<?xml version="1.0" encoding="iso-8859-1"?>
<!-- Generator: Adobe Illustrator 17.1.0, SVG Export Plug-In . SVG Version: 6.00 Build 0)  -->
<!DOCTYPE svg PUBLIC "-//W3C//DTD SVG 1.0//EN" "http://www.w3.org/TR/2001/REC-SVG-20010904/DTD/svg10.dtd">
<svg version="1.0" xmlns="http://www.w3.org/2000/svg" xmlns:xlink="http://www.w3.org/1999/xlink" x="0px" y="0px" width="110px"
	 height="110px" viewBox="0 0 110 110" style="enable-background:new 0 0 110 110;" xml:space="preserve">
<g id="Artboard">
</g>
<g id="Multicolor">
	<circle style="fill:#32BEA6;" cx="55" cy="55" r="55"/>
	<g>
		<path style="fill:#3E3E3F;" d="M59,49c0,1.105-0.895,2-2,2H25c-1.105,0-2-0.895-2-2V25c0-1.105,0.895-2,2-2h32
			c1.105,0,2,0.895,2,2V49z"/>
		<path style="fill:#FFFFFF;" d="M23,49c0,1.104,0.896,2,2,2h32c1.104,0,2-0.896,2-2v-6H23V49z"/>
		<circle style="fill:#B6BCBD;" cx="39" cy="47" r="1"/>
		<rect x="35" y="51" style="fill:#E2E4E5;" width="12" height="4"/>
		<path style="fill:#F0F1F1;" d="M51,56c0,0.552-0.448,1-1,1H32c-0.552,0-1-0.448-1-1s0.448-1,1-1h18C50.552,55,51,55.448,51,56z"/>
		<path style="fill:#3E3E3F;" d="M87,77c0,1.105-0.895,2-2,2H45c-1.105,0-2-0.895-2-2V49c0-1.105,0.895-2,2-2h40
			c1.105,0,2,0.895,2,2V77z"/>
		<rect x="59" y="79" style="fill:#E2E4E5;" width="12" height="6"/>
		<path style="fill:#F0F1F1;" d="M75,86c0,0.552-0.448,1-1,1H56c-0.552,0-1-0.448-1-1s0.448-1,1-1h18C74.552,85,75,85.448,75,86z"/>
		<path style="fill:#FFFFFF;" d="M87,77v-6H43v6c0,1.104,0.896,2,2,2h40C86.104,79,87,78.104,87,77z"/>
		<circle style="fill:#B6BCBD;" cx="65" cy="75" r="2"/>
		<path style="fill:#5B5C5F;" d="M43,49v22h13.56l24-24H45C43.896,47,43,47.896,43,49z"/>
		<path style="fill:#5B5C5F;" d="M23,25v18h9.953l20-20H25C23.896,23,23,23.896,23,25z"/>
	</g>
</g>
</svg>
