<?xml version="1.0" encoding="iso-8859-1"?>
<!-- Generator: Adobe Illustrator 17.1.0, SVG Export Plug-In . SVG Version: 6.00 Build 0)  -->
<!DOCTYPE svg PUBLIC "-//W3C//DTD SVG 1.0//EN" "http://www.w3.org/TR/2001/REC-SVG-20010904/DTD/svg10.dtd">
<svg version="1.0" xmlns="http://www.w3.org/2000/svg" xmlns:xlink="http://www.w3.org/1999/xlink" x="0px" y="0px" width="110px"
	 height="110px" viewBox="0 0 110 110" style="enable-background:new 0 0 110 110;" xml:space="preserve">
<g id="Artboard">
</g>
<g id="Multicolor">
	<circle style="fill:#E04F5F;" cx="55" cy="55" r="55"/>
	<g>
		<path style="fill:#FACB1B;" d="M77,28H63v6h14c1.654,0,3,1.346,3,3v41c0,1.654-1.346,3-3,3H33c-1.654,0-3-1.346-3-3V37
			c0-1.654,1.346-3,3-3h10v5l12-8l-12-8v5H33c-4.962,0-9,4.037-9,9v41c0,4.963,4.038,9,9,9h44c4.962,0,9-4.037,9-9V37
			C86,32.037,81.962,28,77,28z"/>
		<g>
			<path style="fill:#FBE158;" d="M30,78V37c0-1.654,1.346-3,3-3h10v-6H33c-4.962,0-9,4.037-9,9v41c0,2.978,1.459,5.614,3.694,7.253
				l4.406-4.406C30.887,80.462,30,79.339,30,78z"/>
			<path style="fill:#FBE158;" d="M77,28H63v6h14c0.557,0,1.072,0.163,1.52,0.428l4.29-4.29C81.24,28.807,79.214,28,77,28z"/>
		</g>
		<g>
			<polygon style="fill:#FBE158;" points="43,23 43,39 55,31 			"/>
		</g>
		<g>
			<path style="fill:#FFFFFF;" d="M38.481,50.9c1.791-3.428,4.756-4.972,7.751-4.972c4.818,0,7.32,3.304,7.32,6.733
				c0,2.038-0.741,4.262-2.718,6.115l-4.818,4.046h7.505v5.25H39.439l-1.39-2.872l8.895-10.006c2.934-3.304-1.915-6.455-4.324-2.038
				L38.481,50.9z"/>
			<path style="fill:#FFFFFF;" d="M71.523,63.346h-2.039v4.756h-5.281v-4.756h-7.69l-1.76-3.243l10.191-13.867h4.54v12.631h2.039
				V63.346z M64.605,58.93l0.062-5.59l-3.922,5.59H64.605z"/>
		</g>
	</g>
</g>
</svg>
