<?xml version="1.0" encoding="iso-8859-1"?>
<!-- Generator: Adobe Illustrator 17.1.0, SVG Export Plug-In . SVG Version: 6.00 Build 0)  -->
<!DOCTYPE svg PUBLIC "-//W3C//DTD SVG 1.0//EN" "http://www.w3.org/TR/2001/REC-SVG-20010904/DTD/svg10.dtd">
<svg version="1.0" xmlns="http://www.w3.org/2000/svg" xmlns:xlink="http://www.w3.org/1999/xlink" x="0px" y="0px" width="110px"
	 height="110px" viewBox="0 0 110 110" style="enable-background:new 0 0 110 110;" xml:space="preserve">
<g id="Artboard">
</g>
<g id="Multicolor">
	<circle style="fill:#32BEA6;" cx="55" cy="55" r="55"/>
	<g>
		<g>
			<path style="fill:#CFD3D4;" d="M59,37.27c1.926,0.539,3-2,6-1c2.081,0.694,6.567,9.431,9.121,14.72H83
				c1.364,0,2.564,0.685,3.287,1.727c-3.083-6.232-15.186-18.844-16.13-19.789c-1.083-1.083-4.354-3.375-9.167-0.625
				C57.106,34.521,58,36.99,59,37.27z"/>
		</g>
		<g>
			<path style="fill:#CFD3D4;" d="M27,50.99h8.879c2.554-5.289,7.04-14.026,9.121-14.72c3-1,4.074,1.539,6,1
				c1-0.28,1.894-2.749-1.99-4.968c-4.812-2.75-8.083-0.458-9.167,0.625c-0.945,0.945-13.047,13.558-16.13,19.789
				C24.436,51.675,25.637,50.99,27,50.99z"/>
		</g>
		<path style="fill:#FFFFFF;" d="M27,51c-2.209,0-4,1.791-4,4v20c0,2.209,1.791,4,4,4h17.859c1.337,0,2.586-0.668,3.328-1.781
			C48.187,77.219,52,67,55,67s6.813,10.219,6.813,10.219C62.554,78.332,63.803,79,65.141,79H83c2.209,0,4-1.791,4-4V55
			c0-2.209-1.791-4-4-4H27z"/>
		<path style="fill:#059BBF;" d="M60.42,56.99c-0.711,0-1.368,0.377-1.726,0.99c-0.359,0.613-0.365,1.371-0.017,1.99l6.75,12
			c0.354,0.63,1.021,1.019,1.743,1.019H79c1.105,0,2-0.895,2-2v-12c0-1.105-0.895-2-2-2H60.42z"/>
		<path style="fill:#DF2C2C;" d="M49.58,56.99c0.711,0,1.368,0.377,1.726,0.99c0.359,0.613,0.365,1.371,0.017,1.99l-6.75,12
			c-0.354,0.63-1.021,1.019-1.743,1.019H31c-1.105,0-2-0.895-2-2v-12c0-1.105,0.895-2,2-2H49.58z"/>
		<path style="fill:#21B2D1;" d="M79,56.99H60.42c-0.711,0-1.368,0.377-1.727,0.99c-0.359,0.613-0.365,1.371-0.017,1.99
			l6.667,11.853l14.591-14.591C79.655,57.083,79.34,56.99,79,56.99z"/>
		<path style="fill:#FA5655;" d="M31,56.99c-1.104,0-2,0.896-2,2v12c0,0.687,0.347,1.293,0.875,1.653L45.528,56.99H31z"/>
	</g>
</g>
</svg>
