<?xml version="1.0" encoding="iso-8859-1"?>
<!-- Generator: Adobe Illustrator 17.1.0, SVG Export Plug-In . SVG Version: 6.00 Build 0)  -->
<!DOCTYPE svg PUBLIC "-//W3C//DTD SVG 1.0//EN" "http://www.w3.org/TR/2001/REC-SVG-20010904/DTD/svg10.dtd">
<svg version="1.0" xmlns="http://www.w3.org/2000/svg" xmlns:xlink="http://www.w3.org/1999/xlink" x="0px" y="0px" width="110px"
	 height="110px" viewBox="0 0 110 110" style="enable-background:new 0 0 110 110;" xml:space="preserve">
<g id="Artboard" style="display:none;">
	
		<rect x="-456.5" y="-674.5" style="display:inline;fill:#808080;stroke:#000000;stroke-miterlimit:10;" width="1392" height="1369"/>
</g>
<g id="R-Multicolor">
	<circle style="fill:#32BEA6;" cx="55" cy="55" r="55"/>
	<g>
		<g>
			<path style="fill:#EDBC7C;" d="M66.193,65.1L45.787,44.694c-1.265-1.265-2.078-2.847-2.42-4.522
				c-3.912,2.787-6.896,6.78-10.28,10.164c-9.73,9.73-7.729,24.275-4.073,28.737l-0.82,2.475c-0.12,0.361-0.028,0.75,0.24,1.018
				c0.269,0.269,0.665,0.368,1.025,0.248l2.489-0.834c4.596,3.734,18.986,5.664,28.716-4.066c3.385-3.385,7.285-6.463,10.056-10.392
				C69.043,67.179,67.459,66.366,66.193,65.1z"/>
		</g>
		<g>
			<path style="fill:#84462D;" d="M84.359,34.499L76.54,26.68c-0.569-0.569-1.392-0.802-2.174-0.618
				c-0.783,0.185-1.415,0.762-1.669,1.525l-2.651,7.953c-7.801-6.02-22.455-9.731-26.205-0.529
				c-1.306,3.105-0.715,7.022,1.946,9.683L66.193,65.1c2.654,2.654,6.569,3.255,9.683,1.946c9.231-3.762,5.415-18.398-0.4-26.045
				l7.976-2.659c0.763-0.254,1.34-0.886,1.525-1.669C85.162,35.891,84.928,35.068,84.359,34.499z"/>
		</g>
		<g>
			<path style="fill:#9C6144;" d="M76.54,26.68c-0.569-0.569-1.392-0.802-2.174-0.618c-0.783,0.185-1.415,0.762-1.669,1.525
				l-2.651,7.953c-7.801-6.02-22.455-9.731-26.205-0.529c-1.306,3.105-0.715,7.022,1.946,9.683l10.271,10.271l24.384-24.384
				L76.54,26.68z"/>
		</g>
		<g>
			<path style="fill:#F4D0A1;" d="M45.787,44.694c-1.265-1.265-2.078-2.847-2.42-4.522c-3.912,2.787-6.896,6.78-10.28,10.164
				c-9.73,9.73-7.729,24.275-4.073,28.737l-0.82,2.475c-0.12,0.361-0.028,0.75,0.24,1.018c0.004,0.004,0.009,0.006,0.013,0.01
				l27.611-27.611L45.787,44.694z"/>
		</g>
	</g>
</g>
<g id="Multicolor" style="display:none;">
	<g style="display:inline;">
		<g>
			<path style="fill:#EDBC7C;" d="M66.193,65.1L45.787,44.694c-1.265-1.265-2.078-2.847-2.42-4.522
				c-3.912,2.787-6.896,6.78-10.28,10.164c-9.73,9.73-7.729,24.275-4.073,28.737l-0.82,2.475c-0.12,0.361-0.028,0.75,0.24,1.018
				c0.269,0.269,0.665,0.368,1.025,0.248l2.489-0.834c4.596,3.734,18.986,5.664,28.716-4.066c3.385-3.385,7.285-6.463,10.056-10.392
				C69.043,67.179,67.459,66.366,66.193,65.1z"/>
		</g>
		<g>
			<path style="fill:#84462D;" d="M84.359,34.499L76.54,26.68c-0.569-0.569-1.392-0.802-2.174-0.618
				c-0.783,0.185-1.415,0.762-1.669,1.525l-2.651,7.953c-7.801-6.02-22.455-9.731-26.205-0.529
				c-1.306,3.105-0.715,7.022,1.946,9.683L66.193,65.1c2.654,2.654,6.569,3.255,9.683,1.946c9.231-3.762,5.415-18.398-0.4-26.045
				l7.976-2.659c0.763-0.254,1.34-0.886,1.525-1.669C85.162,35.891,84.928,35.068,84.359,34.499z"/>
		</g>
		<g>
			<path style="fill:#9C6144;" d="M76.54,26.68c-0.569-0.569-1.392-0.802-2.174-0.618c-0.783,0.185-1.415,0.762-1.669,1.525
				l-2.651,7.953c-7.801-6.02-22.455-9.731-26.205-0.529c-1.306,3.105-0.715,7.022,1.946,9.683l10.271,10.271l24.384-24.384
				L76.54,26.68z"/>
		</g>
		<g>
			<path style="fill:#F4D0A1;" d="M45.787,44.694c-1.265-1.265-2.078-2.847-2.42-4.522c-3.912,2.787-6.896,6.78-10.28,10.164
				c-9.73,9.73-7.729,24.275-4.073,28.737l-0.82,2.475c-0.12,0.361-0.028,0.75,0.24,1.018c0.004,0.004,0.009,0.006,0.013,0.01
				l27.611-27.611L45.787,44.694z"/>
		</g>
	</g>
</g>
<g id="Blue" style="display:none;">
	<g style="display:inline;">
		<g>
			<path style="fill:#BBE7F2;" d="M66.193,65.1L45.787,44.694c-1.266-1.265-2.078-2.847-2.42-4.522
				c-3.912,2.787-6.896,6.78-10.28,10.164c-9.729,9.73-7.729,24.275-4.073,28.737l-0.82,2.475c-0.12,0.36-0.028,0.75,0.24,1.018
				c0.269,0.269,0.665,0.368,1.025,0.248l2.489-0.835c4.597,3.734,18.985,5.665,28.716-4.065c3.385-3.385,7.285-6.463,10.056-10.392
				C69.043,67.18,67.459,66.366,66.193,65.1z"/>
		</g>
		<g>
			<path style="fill:#0F6175;" d="M84.359,34.499L76.54,26.68c-0.568-0.569-1.392-0.803-2.175-0.619
				c-0.783,0.186-1.414,0.762-1.668,1.526l-2.651,7.953c-7.802-6.021-22.454-9.731-26.205-0.529
				c-1.306,3.105-0.715,7.022,1.946,9.683L66.193,65.1c2.654,2.654,6.569,3.255,9.683,1.946c9.23-3.763,5.415-18.399-0.399-26.045
				l7.976-2.659c0.763-0.254,1.34-0.886,1.524-1.669C85.162,35.891,84.928,35.068,84.359,34.499z"/>
		</g>
		<g>
			<path style="fill:#33899E;" d="M76.54,26.68c-0.568-0.569-1.392-0.803-2.175-0.619c-0.783,0.186-1.414,0.762-1.668,1.526
				l-2.651,7.953c-7.802-6.021-22.454-9.731-26.205-0.529c-1.306,3.105-0.715,7.022,1.946,9.683l10.271,10.271l24.383-24.384
				L76.54,26.68z"/>
		</g>
		<g>
			<path style="fill:#E1F5FA;" d="M45.787,44.694c-1.266-1.265-2.078-2.847-2.42-4.522c-3.912,2.787-6.896,6.78-10.28,10.164
				c-9.729,9.73-7.729,24.275-4.073,28.737l-0.82,2.475c-0.12,0.36-0.028,0.75,0.24,1.018c0.004,0.004,0.01,0.006,0.014,0.01
				l27.611-27.611L45.787,44.694z"/>
		</g>
	</g>
</g>
<g id="R-Blue" style="display:none;">
	<circle style="display:inline;fill:#81D2EB;" cx="55" cy="55" r="55"/>
	<g style="display:inline;">
		<g>
			<path style="fill:#BBE7F2;" d="M66.193,65.1L45.787,44.694c-1.266-1.265-2.078-2.847-2.42-4.522
				c-3.912,2.787-6.896,6.78-10.28,10.164c-9.729,9.73-7.729,24.275-4.073,28.737l-0.82,2.475c-0.12,0.36-0.028,0.749,0.24,1.018
				c0.269,0.269,0.665,0.368,1.025,0.248l2.489-0.835c4.597,3.734,18.985,5.665,28.716-4.065c3.385-3.385,7.285-6.463,10.056-10.392
				C69.043,67.18,67.459,66.366,66.193,65.1z"/>
		</g>
		<g>
			<path style="fill:#0F6175;" d="M84.359,34.498L76.54,26.68c-0.568-0.569-1.392-0.803-2.175-0.619
				c-0.783,0.186-1.414,0.762-1.668,1.526l-2.651,7.953c-7.802-6.021-22.454-9.731-26.205-0.529
				c-1.306,3.105-0.715,7.022,1.946,9.683L66.193,65.1c2.654,2.654,6.569,3.255,9.683,1.946c9.23-3.763,5.415-18.398-0.399-26.045
				l7.976-2.659c0.763-0.254,1.34-0.886,1.524-1.669C85.162,35.891,84.928,35.068,84.359,34.498z"/>
		</g>
		<g>
			<path style="fill:#33899E;" d="M76.54,26.68c-0.568-0.569-1.392-0.803-2.175-0.619c-0.783,0.186-1.414,0.762-1.668,1.526
				l-2.651,7.953c-7.802-6.021-22.454-9.731-26.205-0.529c-1.306,3.105-0.715,7.022,1.946,9.683l10.271,10.271l24.383-24.384
				L76.54,26.68z"/>
		</g>
		<g>
			<path style="fill:#E1F5FA;" d="M45.787,44.694c-1.266-1.265-2.078-2.847-2.42-4.522c-3.912,2.787-6.896,6.78-10.28,10.164
				c-9.729,9.73-7.729,24.275-4.073,28.737l-0.82,2.475c-0.12,0.36-0.028,0.749,0.24,1.018c0.004,0.004,0.01,0.006,0.014,0.01
				l27.611-27.611L45.787,44.694z"/>
		</g>
	</g>
</g>
<g id="Green" style="display:none;">
	<g style="display:inline;">
		<g>
			<path style="fill:#AAF0E9;" d="M66.193,65.1L45.787,44.694c-1.266-1.265-2.078-2.847-2.42-4.522
				c-3.912,2.787-6.896,6.78-10.28,10.164c-9.729,9.73-7.729,24.275-4.073,28.737l-0.82,2.475c-0.12,0.36-0.028,0.75,0.24,1.018
				c0.269,0.269,0.665,0.368,1.025,0.248l2.489-0.835c4.597,3.734,18.985,5.665,28.716-4.065c3.385-3.385,7.285-6.463,10.056-10.392
				C69.043,67.18,67.459,66.366,66.193,65.1z"/>
		</g>
		<g>
			<path style="fill:#14635B;" d="M84.359,34.499L76.54,26.68c-0.568-0.569-1.392-0.803-2.175-0.619
				c-0.783,0.186-1.414,0.762-1.668,1.526l-2.651,7.953c-7.802-6.021-22.454-9.731-26.205-0.529
				c-1.306,3.105-0.715,7.022,1.946,9.683L66.193,65.1c2.654,2.654,6.569,3.255,9.683,1.946c9.23-3.763,5.415-18.399-0.399-26.045
				l7.975-2.659c0.763-0.254,1.34-0.886,1.525-1.669C85.162,35.891,84.928,35.068,84.359,34.499z"/>
		</g>
		<g>
			<path style="fill:#3E948B;" d="M76.54,26.68c-0.568-0.569-1.392-0.803-2.175-0.619c-0.783,0.186-1.414,0.762-1.668,1.526
				l-2.651,7.953c-7.802-6.021-22.454-9.731-26.205-0.529c-1.306,3.105-0.715,7.022,1.946,9.683l10.271,10.271l24.383-24.384
				L76.54,26.68z"/>
		</g>
		<g>
			<path style="fill:#D7FCF9;" d="M45.787,44.694c-1.266-1.265-2.078-2.847-2.42-4.522c-3.912,2.787-6.896,6.78-10.28,10.164
				c-9.729,9.73-7.729,24.275-4.073,28.737l-0.82,2.475c-0.12,0.36-0.028,0.75,0.24,1.018c0.004,0.004,0.01,0.006,0.014,0.01
				l27.611-27.611L45.787,44.694z"/>
		</g>
	</g>
</g>
<g id="R-Green" style="display:none;">
	<circle style="display:inline;fill:#77E0C4;" cx="55" cy="55" r="55"/>
	<g style="display:inline;">
		<g>
			<path style="fill:#AAF0E9;" d="M66.193,65.1L45.787,44.694c-1.266-1.265-2.078-2.847-2.42-4.522
				c-3.912,2.787-6.896,6.78-10.28,10.164c-9.729,9.73-7.729,24.275-4.073,28.737l-0.82,2.475c-0.12,0.36-0.028,0.75,0.24,1.018
				c0.27,0.269,0.665,0.368,1.025,0.248l2.489-0.835c4.597,3.734,18.985,5.665,28.716-4.065c3.385-3.385,7.285-6.463,10.056-10.392
				C69.043,67.18,67.459,66.366,66.193,65.1z"/>
		</g>
		<g>
			<path style="fill:#14635B;" d="M84.359,34.499L76.54,26.68c-0.568-0.569-1.392-0.803-2.175-0.619
				c-0.783,0.186-1.414,0.762-1.668,1.526l-2.651,7.953c-7.802-6.021-22.454-9.731-26.205-0.529
				c-1.306,3.105-0.715,7.022,1.946,9.683L66.193,65.1c2.654,2.654,6.569,3.255,9.683,1.946c9.23-3.763,5.415-18.399-0.399-26.045
				l7.976-2.659c0.763-0.254,1.34-0.886,1.524-1.669C85.162,35.891,84.928,35.068,84.359,34.499z"/>
		</g>
		<g>
			<path style="fill:#3E948B;" d="M76.54,26.68c-0.568-0.569-1.392-0.803-2.175-0.619c-0.783,0.186-1.414,0.762-1.668,1.526
				l-2.651,7.953c-7.802-6.021-22.454-9.731-26.205-0.529c-1.306,3.105-0.715,7.022,1.946,9.683l10.271,10.271l24.383-24.384
				L76.54,26.68z"/>
		</g>
		<g>
			<path style="fill:#D7FCF9;" d="M45.787,44.694c-1.266-1.265-2.078-2.847-2.42-4.522c-3.912,2.787-6.896,6.78-10.28,10.164
				c-9.729,9.73-7.729,24.275-4.073,28.737l-0.82,2.475c-0.12,0.36-0.028,0.75,0.24,1.018c0.004,0.004,0.01,0.006,0.014,0.01
				l27.611-27.611L45.787,44.694z"/>
		</g>
	</g>
</g>
<g id="Red" style="display:none;">
	<g style="display:inline;">
		<g>
			<path style="fill:#FFD7D4;" d="M66.193,65.1L45.787,44.694c-1.266-1.265-2.078-2.847-2.42-4.522
				c-3.912,2.787-6.896,6.78-10.28,10.164c-9.729,9.73-7.729,24.275-4.073,28.737l-0.82,2.475c-0.12,0.36-0.028,0.75,0.24,1.018
				c0.27,0.269,0.665,0.368,1.025,0.248l2.489-0.835c4.597,3.734,18.985,5.665,28.716-4.065c3.385-3.385,7.285-6.463,10.056-10.392
				C69.043,67.18,67.459,66.366,66.193,65.1z"/>
		</g>
		<g>
			<path style="fill:#7D261E;" d="M84.359,34.499L76.54,26.68c-0.568-0.569-1.392-0.803-2.175-0.619
				c-0.783,0.186-1.414,0.762-1.668,1.526l-2.651,7.953c-7.802-6.021-22.454-9.731-26.205-0.529
				c-1.306,3.105-0.715,7.022,1.946,9.683L66.193,65.1c2.654,2.654,6.569,3.255,9.683,1.946c9.23-3.763,5.415-18.399-0.399-26.045
				l7.976-2.659c0.763-0.254,1.34-0.886,1.524-1.669C85.162,35.891,84.928,35.068,84.359,34.499z"/>
		</g>
		<g>
			<path style="fill:#B84E44;" d="M76.54,26.68c-0.568-0.569-1.392-0.803-2.175-0.619c-0.783,0.186-1.414,0.762-1.668,1.526
				l-2.651,7.953c-7.802-6.021-22.454-9.731-26.205-0.529c-1.306,3.105-0.715,7.022,1.946,9.683l10.271,10.271l24.383-24.384
				L76.54,26.68z"/>
		</g>
		<g>
			<path style="fill:#FFEFED;" d="M45.787,44.694c-1.266-1.265-2.078-2.847-2.42-4.522c-3.912,2.787-6.896,6.78-10.28,10.164
				c-9.729,9.73-7.729,24.275-4.073,28.737l-0.82,2.475c-0.12,0.36-0.028,0.75,0.24,1.018c0.004,0.004,0.01,0.006,0.014,0.01
				l27.611-27.611L45.787,44.694z"/>
		</g>
	</g>
</g>
<g id="R-Red" style="display:none;">
	<circle style="display:inline;fill:#FABBAF;" cx="55" cy="55" r="55"/>
	<g style="display:inline;">
		<g>
			<path style="fill:#FFD7D4;" d="M66.193,65.1L45.787,44.694c-1.266-1.265-2.078-2.847-2.42-4.522
				c-3.912,2.787-6.896,6.78-10.28,10.164c-9.729,9.73-7.729,24.275-4.073,28.737l-0.82,2.475c-0.12,0.36-0.028,0.75,0.24,1.018
				c0.27,0.269,0.665,0.368,1.025,0.248l2.489-0.835c4.597,3.734,18.985,5.665,28.716-4.065c3.385-3.385,7.285-6.463,10.056-10.392
				C69.043,67.18,67.459,66.366,66.193,65.1z"/>
		</g>
		<g>
			<path style="fill:#7D261E;" d="M84.359,34.499L76.54,26.68c-0.568-0.569-1.392-0.803-2.175-0.619
				c-0.783,0.186-1.414,0.762-1.668,1.526l-2.651,7.953c-7.802-6.021-22.454-9.731-26.205-0.529
				c-1.306,3.105-0.715,7.022,1.946,9.683L66.193,65.1c2.654,2.654,6.569,3.255,9.683,1.946c9.23-3.763,5.415-18.399-0.399-26.045
				l7.976-2.659c0.763-0.254,1.34-0.886,1.524-1.669C85.162,35.891,84.928,35.068,84.359,34.499z"/>
		</g>
		<g>
			<path style="fill:#B84E44;" d="M76.54,26.68c-0.568-0.569-1.392-0.803-2.175-0.619c-0.783,0.186-1.414,0.762-1.668,1.526
				l-2.651,7.953c-7.802-6.021-22.454-9.731-26.205-0.529c-1.306,3.105-0.715,7.022,1.946,9.683l10.271,10.271l24.383-24.384
				L76.54,26.68z"/>
		</g>
		<g>
			<path style="fill:#FFEFED;" d="M45.787,44.694c-1.266-1.265-2.078-2.847-2.42-4.522c-3.912,2.787-6.896,6.78-10.28,10.164
				c-9.729,9.73-7.729,24.275-4.073,28.737l-0.82,2.475c-0.12,0.36-0.028,0.75,0.24,1.018c0.004,0.004,0.01,0.006,0.014,0.01
				l27.611-27.611L45.787,44.694z"/>
		</g>
	</g>
</g>
<g id="Yellow" style="display:none;">
	<g style="display:inline;">
		<g>
			<path style="fill:#FFE9A1;" d="M66.193,65.1L45.787,44.694c-1.266-1.265-2.078-2.847-2.42-4.522
				c-3.912,2.787-6.896,6.78-10.28,10.164c-9.729,9.73-7.729,24.275-4.073,28.737l-0.82,2.475c-0.12,0.36-0.028,0.75,0.24,1.018
				c0.27,0.269,0.665,0.368,1.025,0.248l2.489-0.835c4.597,3.734,18.985,5.665,28.716-4.065c3.385-3.385,7.285-6.463,10.056-10.392
				C69.043,67.18,67.459,66.366,66.193,65.1z"/>
		</g>
		<g>
			<path style="fill:#66510D;" d="M84.359,34.499L76.54,26.68c-0.568-0.569-1.392-0.803-2.175-0.619
				c-0.783,0.186-1.414,0.762-1.668,1.526l-2.651,7.953c-7.802-6.021-22.454-9.731-26.205-0.529
				c-1.306,3.105-0.715,7.022,1.946,9.683L66.193,65.1c2.654,2.654,6.569,3.255,9.683,1.946c9.23-3.763,5.415-18.399-0.399-26.045
				l7.976-2.659c0.763-0.254,1.34-0.886,1.524-1.669C85.162,35.891,84.928,35.068,84.359,34.499z"/>
		</g>
		<g>
			<path style="fill:#947615;" d="M76.54,26.68c-0.568-0.569-1.392-0.803-2.175-0.619c-0.783,0.186-1.414,0.762-1.668,1.526
				l-2.651,7.953c-7.802-6.021-22.454-9.731-26.205-0.529c-1.306,3.105-0.715,7.022,1.946,9.683l10.271,10.271l24.383-24.384
				L76.54,26.68z"/>
		</g>
		<g>
			<path style="fill:#FFF5D9;" d="M45.787,44.694c-1.266-1.265-2.078-2.847-2.42-4.522c-3.912,2.787-6.896,6.78-10.28,10.164
				c-9.729,9.73-7.729,24.275-4.073,28.737l-0.82,2.475c-0.12,0.36-0.028,0.75,0.24,1.018c0.004,0.004,0.01,0.006,0.014,0.01
				l27.611-27.611L45.787,44.694z"/>
		</g>
	</g>
</g>
<g id="R-Yellow" style="display:none;">
	<circle style="display:inline;fill:#FFD75E;" cx="55" cy="55" r="55"/>
	<g style="display:inline;">
		<g>
			<path style="fill:#FFE9A1;" d="M66.193,65.1L45.787,44.694c-1.266-1.265-2.078-2.847-2.42-4.522
				c-3.912,2.787-6.896,6.78-10.28,10.164c-9.729,9.73-7.729,24.275-4.073,28.737l-0.82,2.475c-0.12,0.36-0.028,0.75,0.24,1.018
				c0.269,0.269,0.665,0.368,1.025,0.248l2.489-0.835c4.597,3.734,18.985,5.665,28.716-4.065c3.385-3.385,7.285-6.463,10.056-10.392
				C69.043,67.18,67.459,66.366,66.193,65.1z"/>
		</g>
		<g>
			<path style="fill:#66510D;" d="M84.359,34.499L76.54,26.68c-0.568-0.569-1.392-0.803-2.175-0.619
				c-0.783,0.186-1.414,0.762-1.668,1.526l-2.651,7.953c-7.802-6.021-22.454-9.731-26.205-0.529
				c-1.306,3.105-0.715,7.022,1.946,9.683L66.193,65.1c2.654,2.654,6.569,3.255,9.683,1.946c9.23-3.763,5.415-18.399-0.399-26.045
				l7.975-2.659c0.763-0.254,1.34-0.886,1.525-1.669C85.162,35.891,84.928,35.068,84.359,34.499z"/>
		</g>
		<g>
			<path style="fill:#947615;" d="M76.54,26.68c-0.568-0.569-1.392-0.803-2.175-0.619c-0.783,0.186-1.414,0.762-1.668,1.526
				l-2.651,7.953c-7.802-6.021-22.454-9.731-26.205-0.529c-1.306,3.105-0.715,7.022,1.946,9.683l10.271,10.271l24.383-24.384
				L76.54,26.68z"/>
		</g>
		<g>
			<path style="fill:#FFF5D9;" d="M45.787,44.694c-1.266-1.265-2.078-2.847-2.42-4.522c-3.912,2.787-6.896,6.78-10.28,10.164
				c-9.729,9.73-7.729,24.275-4.073,28.737l-0.82,2.475c-0.12,0.36-0.028,0.75,0.24,1.018c0.004,0.004,0.01,0.006,0.014,0.01
				l27.611-27.611L45.787,44.694z"/>
		</g>
	</g>
</g>
</svg>
