<?xml version="1.0" encoding="iso-8859-1"?>
<!-- Generator: Adobe Illustrator 17.1.0, SVG Export Plug-In . SVG Version: 6.00 Build 0)  -->
<!DOCTYPE svg PUBLIC "-//W3C//DTD SVG 1.0//EN" "http://www.w3.org/TR/2001/REC-SVG-20010904/DTD/svg10.dtd">
<svg version="1.0" xmlns="http://www.w3.org/2000/svg" xmlns:xlink="http://www.w3.org/1999/xlink" x="0px" y="0px" width="110px"
	 height="110px" viewBox="0 0 110 110" style="enable-background:new 0 0 110 110;" xml:space="preserve">
<g id="Artboard">
</g>
<g id="Multicolor">
	<circle style="fill:#32BEA6;" cx="55" cy="55" r="55"/>
	<g>
		<path style="fill:#DF2C2C;" d="M55,23c-13.255,0-24,10.42-24,23.273c0,10.868,17.16,31.784,22.46,37.984
			c0.38,0.445,0.945,0.702,1.541,0.702c0.596,0,1.16-0.258,1.54-0.703C61.842,78.053,79,57.14,79,46.273C79,33.42,68.255,23,55,23z"
			/>
		<path style="fill:#FA5655;" d="M31,46.273c0,10.868,17.16,31.784,22.46,37.984c0.38,0.444,0.944,0.702,1.54,0.702V23
			C41.745,23,31,33.419,31,46.273z"/>
		<path style="fill:#FFFFFF;" d="M65,41h-6v-6c0-1.104-0.896-2-2-2h-4c-1.104,0-2,0.896-2,2v6h-6c-1.104,0-2,0.896-2,2v4
			c0,1.104,0.896,2,2,2h6v6c0,1.104,0.896,2,2,2h4c1.104,0,2-0.896,2-2v-6h6c1.104,0,2-0.896,2-2v-4C67,41.896,66.104,41,65,41z"/>
	</g>
</g>
</svg>
