<?xml version="1.0" encoding="iso-8859-1"?>
<!-- Generator: Adobe Illustrator 17.1.0, SVG Export Plug-In . SVG Version: 6.00 Build 0)  -->
<!DOCTYPE svg PUBLIC "-//W3C//DTD SVG 1.0//EN" "http://www.w3.org/TR/2001/REC-SVG-20010904/DTD/svg10.dtd">
<svg version="1.0" xmlns="http://www.w3.org/2000/svg" xmlns:xlink="http://www.w3.org/1999/xlink" x="0px" y="0px" width="110px"
	 height="110px" viewBox="0 0 110 110" style="enable-background:new 0 0 110 110;" xml:space="preserve">
<g id="Artboard">
</g>
<g id="Multicolor">
	<circle style="fill:#FABC3D;" cx="55" cy="55" r="55"/>
	<g>
		<g>
			<path style="fill:#FFFFFF;" d="M87,83c0,2.209-1.791,4-4,4H27c-2.209,0-4-1.791-4-4V43c0-2.209,1.791-4,4-4h56
				c2.209,0,4,1.791,4,4V83z"/>
		</g>
		<g>
			<path style="fill:#3E3E3F;" d="M67,31c0-2.209-1.791-4-4-4H47c-2.209,0-4,1.791-4,4v8h4v-4c0-2.209,1.791-4,4-4h8
				c2.209,0,4,1.791,4,4v4h4V31z"/>
		</g>
		<g>
			<polygon style="fill:#FA5655;" points="69,58.333 59.667,58.333 59.667,49 50.333,49 50.333,58.333 41,58.333 41,67.667 
				50.333,67.667 50.333,77 59.667,77 59.667,67.667 69,67.667 			"/>
		</g>
		<g>
			<rect x="40" y="36" style="fill:#E2E4E5;" width="10" height="3"/>
		</g>
		<g>
			<rect x="60" y="36" style="fill:#E2E4E5;" width="10" height="3"/>
		</g>
	</g>
</g>
</svg>
