<?xml version="1.0" encoding="iso-8859-1"?>
<!-- Generator: Adobe Illustrator 17.1.0, SVG Export Plug-In . SVG Version: 6.00 Build 0)  -->
<!DOCTYPE svg PUBLIC "-//W3C//DTD SVG 1.0//EN" "http://www.w3.org/TR/2001/REC-SVG-20010904/DTD/svg10.dtd">
<svg version="1.0" xmlns="http://www.w3.org/2000/svg" xmlns:xlink="http://www.w3.org/1999/xlink" x="0px" y="0px" width="110px"
	 height="110px" viewBox="0 0 110 110" style="enable-background:new 0 0 110 110;" xml:space="preserve">
<g id="Artboard">
</g>
<g id="Multicolor">
	<g>
		<circle style="fill:#FABC3D;" cx="55" cy="55" r="55"/>
	</g>
	<g>
		<g>
			<path style="fill:#0484AB;" d="M55,70.044l7-1l16.241,3.872c2.371,0.711,4.279,2.48,5.168,4.791L87,87.044H55V70.044z"/>
		</g>
		<path style="fill:#AF7653;" d="M65,67.044v-5.612c-2.841,4.396-6.716,6.473-10,7.567c-3.284-1.095-7.159-3.171-10-7.568v5.612
			c0,1,4.465,15.848,10,20C60.536,82.893,65,68.044,65,67.044z"/>
		<g>
			<path style="fill:#0484AB;" d="M55,70.044l-7-1l-16.241,3.872c-2.371,0.711-4.279,2.48-5.168,4.791L23,87.044h32V70.044z"/>
		</g>
		<g>
			<path style="fill:#F3B607;" d="M74.264,84.104C76.519,83.121,81,82,81,82h-7l-1-2l-1,2h-7c0,0,4.481,1.121,6.736,2.104L73,86
				L74.264,84.104z"/>
		</g>
		<path style="fill:#BF8662;" d="M70,45c-0.277,0-0.632,0-1,0c-1.684,0.842-11.167-0.443-14.121-3.259
			c-0.633,0.194-1.288,0.376-1.991,0.533c-1.178-0.236-2.354-0.641-3.467-1.118C47.295,44.023,43.49,44.958,41,45l0,0
			c-0.368,0-0.723,0-1,0c-1,0-2.296,1.151-2,2.222c0.945,3.422,1.447,7.257,4.185,7.727C44.63,64.033,50.4,67.467,55,69
			c4.604-1.535,10.38-4.973,12.822-14.075C71.136,54.353,72,50.313,72,47.222C72,46.111,71,45,70,45z"/>
		<path style="fill:#CC9978;" d="M52.889,42.274c-1.178-0.236-2.354-0.641-3.467-1.118C47.295,44.023,43.49,44.958,41,45l0,0
			c-0.368,0-0.723,0-1,0c-1,0-2.296,1.151-2,2.222c0.945,3.422,1.447,7.257,4.185,7.727C44.63,64.033,50.4,67.467,55,69V41.702
			C54.331,41.911,53.637,42.107,52.889,42.274z"/>
		<g>
			<path style="fill:#84462D;" d="M50,58h10c0,0,0,3-5,3S50,58,50,58z"/>
		</g>
		<g>
			<path style="fill:#3E3E3F;" d="M52.006,47c0-1.104-0.896-2-2-2c-0.002,0-0.004,0-0.006,0c0.001,0.021,0.006,0.041,0.006,0.062
				c0,1.103-0.892,1.996-1.994,2C48.046,48.137,48.923,49,50.006,49C51.111,49,52.006,48.104,52.006,47z"/>
		</g>
		<g>
			<path style="fill:#3E3E3F;" d="M62,47c0-1.104-0.896-2-2-2c-0.002,0-0.004,0-0.006,0C59.995,45.021,60,45.042,60,45.063
				c0,1.103-0.892,1.996-1.994,2C58.04,48.137,58.917,49,60,49C61.104,49,62,48.104,62,47z"/>
		</g>
		<g>
			<path style="fill:#3E3E3F;" d="M64,30c6,2,5,10,5,15c-2,1-15-1-15-5L64,30z"/>
		</g>
		<g>
			<path style="fill:#3E3E3F;" d="M46,30c-6,2-5,10-5,15c3.612-0.061,10-2,10-9L46,30z"/>
		</g>
		<g>
			<path style="fill:#0484AB;" d="M42.888,37.274c0,0,5,4,10,5C61.888,40.274,65,35,65,31c0.22-1.079,0-3-0.112-5.94
				c-10.78-2.079-20.78,0.135-22.78,2.135C42,34,42.888,37.274,42.888,37.274z"/>
		</g>
		<g>
			<path style="fill:#6FDAF1;" d="M52.772,32.196c0,0,9.138-5.402,12.116-7.136c-13.805-4.81-21.647,0.14-22.804,2.164
				C46,29,52.772,32.196,52.772,32.196z"/>
		</g>
		<g>
			<path style="fill:#F3B607;" d="M53.715,37.654c1.973-0.799,5.894-1.709,5.894-1.709h-6.125l-0.875-1.625l-0.875,1.625h-6.125
				c0,0,3.921,0.91,5.894,1.709l1.106,1.541L53.715,37.654z"/>
		</g>
		<path style="fill:#BF8662;" d="M45,61.432v5.612c0,1,4.465,15.848,10,20V69C51.716,67.905,47.841,65.829,45,61.432z"/>
		<g>
			<path style="fill:#FFFFFF;" d="M45,67.044c0,0-7,2-8,7c5,0,15,13,15,13h3C49.465,82.893,45,68.044,45,67.044z"/>
			<path style="fill:#FFFFFF;" d="M65,67.044c0,1-4.464,15.848-10,20h3c0,0,10-13,15-13C72,69.044,65,67.044,65,67.044z"/>
		</g>
	</g>
</g>
</svg>
