<?xml version="1.0" encoding="iso-8859-1"?>
<!-- Generator: Adobe Illustrator 17.1.0, SVG Export Plug-In . SVG Version: 6.00 Build 0)  -->
<!DOCTYPE svg PUBLIC "-//W3C//DTD SVG 1.0//EN" "http://www.w3.org/TR/2001/REC-SVG-20010904/DTD/svg10.dtd">
<svg version="1.0" xmlns="http://www.w3.org/2000/svg" xmlns:xlink="http://www.w3.org/1999/xlink" x="0px" y="0px" width="110px"
	 height="110px" viewBox="0 0 110 110" style="enable-background:new 0 0 110 110;" xml:space="preserve">
<g id="Artboard">
</g>
<g id="Multicolor">
	<circle style="fill:#E04F5F;" cx="55" cy="55" r="55"/>
	<g>
		<g>
			<path style="fill:#F0F1F1;" d="M23,29c0-3.314,2.686-6,6-6h52c3.314,0,6,2.686,6,6v22H23V29z"/>
		</g>
		<g>
			<polygon style="fill:#CFD3D4;" points="87,51 83,59 27,59 23,51 			"/>
		</g>
		<g>
			<path style="fill:#FFFFFF;" d="M29,23c-3.314,0-6,2.687-6,6v22h6.531l28-28H29z"/>
		</g>
		<g>
			<polygon style="fill:#FFFFFF;" points="79,55 31,55 33,63 77,63 			"/>
		</g>
		<g>
			<circle style="fill:#21B2D1;" cx="69" cy="45" r="2"/>
		</g>
		<g>
			<circle style="fill:#6FDAF1;" cx="62" cy="45" r="2"/>
		</g>
		<g>
			<circle style="fill:#9CE5F4;" cx="55" cy="45" r="2"/>
		</g>
		<g>
			<path style="fill:#B6BCBD;" d="M27,37c0,1.105,0.895,2,2,2h52c1.105,0,2-0.895,2-2s-0.895-2-2-2H29C27.895,35,27,35.895,27,37z"
				/>
		</g>
		<g>
			<path style="fill:#B6BCBD;" d="M27,29c0,1.105,0.895,2,2,2h52c1.105,0,2-0.895,2-2s-0.895-2-2-2H29C27.895,27,27,27.895,27,29z"
				/>
		</g>
		<g>
			<rect x="75" y="43" style="fill:#47C4B7;" width="8" height="4"/>
		</g>
		<g>
			<path style="fill:#FFFFFF;" d="M61.752,84c1.976-3.393,1.427-5.476-0.395-8.515c-1.336-2.226-2.644-4.294,1.079-8.485h-2.548
				c-2.674,3.796-2.285,6.114-0.246,9.514c1.595,2.658,2.119,4.21-0.275,7.486H61.752z"/>
		</g>
		<g>
			<path style="fill:#FFFFFF;" d="M71.752,84c1.976-3.393,1.427-5.476-0.395-8.515c-1.336-2.226-2.644-4.294,1.079-8.485h-2.548
				c-2.674,3.796-2.285,6.114-0.246,9.514c1.595,2.658,2.119,4.21-0.275,7.486H71.752z"/>
		</g>
		<g>
			<path style="fill:#FFFFFF;" d="M51.752,84c1.976-3.393,1.427-5.476-0.395-8.515c-1.336-2.226-2.644-4.294,1.079-8.485h-2.548
				c-2.674,3.796-2.285,6.114-0.246,9.514c1.595,2.658,2.119,4.21-0.275,7.486H51.752z"/>
		</g>
		<g>
			<path style="fill:#FFFFFF;" d="M42.752,84c1.976-3.393,1.427-5.476-0.395-8.515c-1.336-2.226-2.644-4.294,1.079-8.485h-2.548
				c-2.674,3.796-2.285,6.114-0.246,9.514c1.595,2.658,2.119,4.21-0.275,7.486H42.752z"/>
		</g>
	</g>
</g>
</svg>
