<?xml version="1.0" encoding="iso-8859-1"?>
<!-- Generator: Adobe Illustrator 17.1.0, SVG Export Plug-In . SVG Version: 6.00 Build 0)  -->
<!DOCTYPE svg PUBLIC "-//W3C//DTD SVG 1.0//EN" "http://www.w3.org/TR/2001/REC-SVG-20010904/DTD/svg10.dtd">
<svg version="1.0" xmlns="http://www.w3.org/2000/svg" xmlns:xlink="http://www.w3.org/1999/xlink" x="0px" y="0px" width="110px"
	 height="110px" viewBox="0 0 110 110" style="enable-background:new 0 0 110 110;" xml:space="preserve">
<g id="Artboard">
</g>
<g id="Multicolor">
	<circle style="fill:#25B7D3;" cx="55" cy="55" r="55"/>
	<g>
		<rect x="54" y="53.333" style="fill:#5B5C5F;" width="2" height="14"/>
		<path style="fill:#5B5C5F;" d="M66.908,68.765L80.729,54.08c-0.492,0.098-1.008,0.078-1.499-0.097
			c-0.3-0.107-0.582-0.209-0.863-0.311L65.456,67.39C66.154,67.554,66.705,68.083,66.908,68.765z"/>
		<path style="fill:#5B5C5F;" d="M44.544,67.39L31.633,53.672c-0.281,0.102-0.563,0.204-0.863,0.311
			c-0.491,0.175-1.007,0.195-1.499,0.097l13.821,14.685C43.295,68.083,43.846,67.554,44.544,67.39z"/>
		<path style="fill:#EDBC7C;" d="M69,84.667C69,85.955,67.955,87,66.667,87H43.333C42.045,87,41,85.955,41,84.667V66
			c0-1.289,1.045-2.333,2.333-2.333h23.333C67.955,63.667,69,64.711,69,66V84.667z"/>
		<rect x="45" y="67.333" style="fill:#A97A45;" width="20" height="16"/>
		<path style="fill:#FA5655;" d="M55,23.333c0,0-14.62,3.66-15.91,28.44c-3.281,0.282-5.253,1.116-8.32,2.21
			c-0.87,0.31-1.83,0.18-2.57-0.35c-0.75-0.52-1.2-1.38-1.2-2.3C27,35.873,39.54,23.333,55,23.333z"/>
		<path style="fill:#FA5655;" d="M83,51.333c0,0.92-0.45,1.78-1.2,2.3c-0.74,0.53-1.7,0.66-2.57,0.35
			c-3.067-1.095-5.039-1.928-8.32-2.21C69.62,26.993,55,23.333,55,23.333C70.46,23.333,83,35.873,83,51.333z"/>
		<path style="fill:#F0F1F1;" d="M70.91,51.773c-5.702-0.492-9.211,1.165-14.56,3.08c-0.87,0.31-1.83,0.31-2.7,0
			c-5.348-1.915-8.857-3.572-14.56-3.08C40.38,26.993,55,23.333,55,23.333S69.62,26.993,70.91,51.773z"/>
		<line style="fill:#9C6144;" x1="45" y1="79.162" x2="45" y2="73.505"/>
		<polygon style="fill:#D4A263;" points="65,67.333 63.172,67.333 47.172,83.333 52.828,83.333 65,71.162 		"/>
		<polygon style="fill:#D4A263;" points="65,77.505 59.172,83.333 65,83.333 		"/>
		<path style="fill:#F79392;" d="M55,23.333c0,0,4.582,1.15,8.842,6.508l3.594-3.593C63.688,24.386,59.468,23.333,55,23.333z"/>
		<path style="fill:#FFFFFF;" d="M55,23.333c0,0-14.62,3.66-15.91,28.44c1.024-0.088,1.961-0.086,2.868-0.047l21.885-21.885
			C59.582,24.484,55,23.333,55,23.333z"/>
		<polygon style="fill:#D4A263;" points="51.172,67.333 45,73.505 45,79.162 56.828,67.333 		"/>
	</g>
</g>
</svg>
