<?xml version="1.0" encoding="iso-8859-1"?>
<!-- Generator: Adobe Illustrator 17.1.0, SVG Export Plug-In . SVG Version: 6.00 Build 0)  -->
<!DOCTYPE svg PUBLIC "-//W3C//DTD SVG 1.0//EN" "http://www.w3.org/TR/2001/REC-SVG-20010904/DTD/svg10.dtd">
<svg version="1.0" xmlns="http://www.w3.org/2000/svg" xmlns:xlink="http://www.w3.org/1999/xlink" x="0px" y="0px" width="110px"
	 height="110px" viewBox="0 0 110 110" style="enable-background:new 0 0 110 110;" xml:space="preserve">
<g id="Artboard">
</g>
<g id="Multicolor">
	<circle style="fill:#FABC3D;" cx="55" cy="55" r="55"/>
	<g>
		<g>
			<path style="fill:#E2E4E5;" d="M51,75c-4.192,0-8.101-0.584-11.594-1.646l1.952,6.509C41.739,81.131,42.907,82,44.232,82H57
				c1.657,0,3-1.343,3-3v-4.798C57.035,74.74,54.001,75,51,75z"/>
		</g>
		<g>
			<path style="fill:#FFFFFF;" d="M86.734,32.007C86.378,31.384,85.716,31,84.998,31H71.927c-2.126,0-4.094,1.125-5.172,2.958
				l-1.687,2.869c6.3,1.75,11.601,4.74,14.768,8.894l6.886-11.707C87.086,33.396,87.09,32.63,86.734,32.007z"/>
		</g>
		<g>
			<path style="fill:#E2E4E5;" d="M86.725,75.99l-7.187-12.215c-3.788,4.509-8.916,7.488-14.57,9.232l1.787,3.033
				c1.08,1.83,3.05,2.96,5.17,2.96h13.07c0.72,0,1.38-0.38,1.74-1.01C87.095,77.37,87.085,76.6,86.725,75.99z"/>
		</g>
		<g>
			<path style="fill:#40C9E7;" d="M51,75c-2.542,0-4.98-0.215-7.286-0.619L45.1,79H56v-4.246C54.334,74.913,52.662,75,51,75z"/>
		</g>
		<g>
			<path style="fill:#DF2C2C;" d="M83,55c0,9.775-12.877,20-32,20c-16.05,0-28-8.498-28-20c0-11.05,11.43-20,28-20S83,42,83,55z"/>
		</g>
		<g>
			<path style="fill:#FFFFFF;" d="M87,56c0,0.552-0.448,1-1,1H75c-1.105,0-2-0.895-2-2s0.895-2,2-2h11c0.552,0,1,0.448,1,1V56z"/>
		</g>
		<g>
			<path style="fill:#FA5655;" d="M51,35c-16.57,0-28,8.95-28,20c0,5.512,2.75,10.331,7.375,13.858l32.571-32.571
				C59.182,35.435,55.126,35,51,35z"/>
		</g>
	</g>
</g>
</svg>
