<?xml version="1.0" encoding="iso-8859-1"?>
<!-- Generator: Adobe Illustrator 17.1.0, SVG Export Plug-In . SVG Version: 6.00 Build 0)  -->
<!DOCTYPE svg PUBLIC "-//W3C//DTD SVG 1.0//EN" "http://www.w3.org/TR/2001/REC-SVG-20010904/DTD/svg10.dtd">
<svg version="1.0" xmlns="http://www.w3.org/2000/svg" xmlns:xlink="http://www.w3.org/1999/xlink" x="0px" y="0px" width="110px"
	 height="110px" viewBox="0 0 110 110" style="enable-background:new 0 0 110 110;" xml:space="preserve">
<g id="Artboard">
</g>
<g id="Multicolor">
	<circle style="fill:#25B7D3;" cx="55" cy="55" r="55"/>
	<g>
		<path style="fill:#3E3E3F;" d="M69.652,78.002c-1.618,1.25-3.396,2.301-5.304,3.109l4.606,5.047
			c0.771,0.844,2.048,0.982,2.981,0.323c0.933-0.66,1.229-1.911,0.69-2.918L69.652,78.002z"/>
		<path style="fill:#3E3E3F;" d="M40.198,77.884l-3.037,5.678c-0.539,1.007-0.243,2.259,0.69,2.918
			c0.933,0.659,2.211,0.521,2.981-0.323l4.668-5.115C43.591,80.219,41.812,79.152,40.198,77.884z"/>
		<circle style="fill:#DF2C2C;" cx="55" cy="59" r="24"/>
		<circle style="fill:#6FDAF1;" cx="55.136" cy="59.349" r="19.329"/>
		<path style="fill:#C9F2F8;" d="M55.136,40.021c-10.675,0-19.329,8.654-19.329,19.329c0,5.146,2.023,9.809,5.302,13.272
			l27.299-27.299C64.945,42.044,60.282,40.021,55.136,40.021z"/>
		<circle style="fill:#FFFFFF;" cx="54.893" cy="46.182" r="2.286"/>
		<circle style="fill:#FFFFFF;" cx="42.179" cy="60.249" r="2.286"/>
		<path style="fill:#3E3E3F;" d="M56.961,60.101c-0.603,1.109-1.99,1.52-3.1,0.917c-1.109-0.603-1.52-1.99-0.917-3.1
			c0.407-0.75,6.591-9.945,9.15-13.238c0.172-0.221,0.478-0.285,0.724-0.151c0.246,0.134,0.359,0.426,0.267,0.69
			C61.716,49.159,57.369,59.351,56.961,60.101z"/>
		<path style="fill:#DF2C2C;" d="M53.63,57.073c0.997-0.775,2.433-0.594,3.207,0.402s0.594,2.433-0.402,3.207
			c-0.674,0.524-7.318,4.364-10.983,6.354c-0.246,0.134-0.552,0.069-0.724-0.152c-0.172-0.221-0.158-0.534,0.032-0.739
			C47.594,63.087,52.956,57.597,53.63,57.073z"/>
		<path style="fill:#3E3E3F;" d="M36.015,41.056l1.506,1.506c1.573-1.671,3.381-3.116,5.374-4.283l-2.051-2.051L36.015,41.056z"/>
		<path style="fill:#FACB1B;" d="M27.38,46.376c0.34,0.484,0.876,0.792,1.465,0.843c0.589,0.051,1.17-0.162,1.588-0.58
			l16.066-16.066c0.418-0.418,0.629-0.998,0.578-1.587c-0.051-0.588-0.358-1.126-0.841-1.466
			c-5.281-3.711-12.621-3.206-17.341,1.515S23.669,41.095,27.38,46.376z"/>
		<circle style="fill:#FFFFFF;" cx="54.893" cy="71.61" r="2.286"/>
		<circle style="fill:#FFFFFF;" cx="67.608" cy="60.249" r="2.286"/>
		<path style="fill:#FBE158;" d="M28.894,29.035c-3.589,3.589-4.734,8.69-3.45,13.251l16.701-16.701
			C37.585,24.3,32.483,25.446,28.894,29.035z"/>
		<path style="fill:#3E3E3F;" d="M69.05,36.121l-2.08,2.081c2.002,1.155,3.821,2.589,5.405,4.252l1.504-1.504L69.05,36.121z"/>
		<path style="fill:#FACB1B;" d="M82.55,46.306c-0.34,0.484-0.876,0.792-1.465,0.843s-1.17-0.162-1.588-0.58L63.431,30.502
			c-0.418-0.418-0.629-0.998-0.578-1.587c0.051-0.588,0.358-1.126,0.841-1.466c5.281-3.711,12.621-3.206,17.341,1.515
			C85.756,33.685,86.261,41.025,82.55,46.306z"/>
		<path style="fill:#FBE158;" d="M81.041,28.959c3.589,3.589,4.734,8.69,3.45,13.251L67.79,25.509
			C72.351,24.225,77.452,25.37,81.041,28.959z"/>
	</g>
</g>
</svg>
