<?xml version="1.0" encoding="iso-8859-1"?>
<!-- Generator: Adobe Illustrator 17.1.0, SVG Export Plug-In . SVG Version: 6.00 Build 0)  -->
<!DOCTYPE svg PUBLIC "-//W3C//DTD SVG 1.0//EN" "http://www.w3.org/TR/2001/REC-SVG-20010904/DTD/svg10.dtd">
<svg version="1.0" xmlns="http://www.w3.org/2000/svg" xmlns:xlink="http://www.w3.org/1999/xlink" x="0px" y="0px" width="110px"
	 height="110px" viewBox="0 0 110 110" style="enable-background:new 0 0 110 110;" xml:space="preserve">
<g id="Artboard">
</g>
<g id="Multicolor">
	<circle style="fill:#FABC3D;" cx="55" cy="55" r="55"/>
	<g>
		<path style="fill:#47C4B7;" d="M54,28.816v2.21C54.33,31.012,54.662,31,55,31c0.34,0,0.668,0.024,1,0.039v-2.222
			c1.163-0.414,2-1.512,2-2.816c0-1.657-1.343-3-3-3s-3,1.343-3,3C52,27.304,52.837,28.403,54,28.816z"/>
		<path style="fill:#47C4B7;" d="M43.901,32.562l0.919,1.342c0.555-0.372,1.131-0.71,1.73-1.013l-1-1.459
			c0.726-0.998,0.796-2.377,0.059-3.454c-0.936-1.367-2.803-1.717-4.17-0.78c-1.367,0.936-1.716,2.803-0.78,4.17
			C41.396,32.444,42.708,32.878,43.901,32.562z"/>
		<path style="fill:#47C4B7;" d="M63.443,32.901c0.6,0.303,1.177,0.639,1.732,1.011l0.924-1.35c1.193,0.316,2.504-0.118,3.242-1.194
			c0.936-1.367,0.587-3.234-0.78-4.17c-1.367-0.937-3.234-0.587-4.17,0.78c-0.737,1.076-0.667,2.456,0.059,3.454L63.443,32.901z"/>
		<g>
			<circle style="fill:#FBEC9A;" cx="55" cy="26" r="3"/>
		</g>
		<g>
			<circle style="fill:#FBEC9A;" cx="66.865" cy="29.673" r="3"/>
		</g>
		<g>
			<circle style="fill:#FBEC9A;" cx="43.135" cy="29.673" r="3"/>
		</g>
		<g>
			<path style="fill:#12B2A0;" d="M73.69,70.45c-0.99,4.5-2.49,8.77-4.25,12.59C70.48,83.17,73,83.82,73,87H63c-1.1,0-2-0.9-2-2V73
				c-4,1.33-8,1.33-12,0v12c0,1.1-0.89,2-2,2c-1.21,0-10,0-10,0c0-3.18,2.52-3.83,3.56-3.96C37.36,76.08,35,67.62,35,59
				c0-17.12,7-28,20-28c9.49,0,15.79,5.8,18.48,15.6C74.49,50.21,75,54.38,75,59C75,62.89,74.52,66.75,73.69,70.45z"/>
		</g>
		<g>
			<path style="fill:#099686;" d="M80.76,72.56c-1.33,0.82-3.01,0.8-4.31-0.06c-0.97-0.64-1.9-1.35-2.76-2.05
				C74.52,66.75,75,62.89,75,59c0-4.62-0.51-8.79-1.52-12.4c2.99,3.57,7.77,10.86,9.14,22.08C82.81,70.22,82.08,71.74,80.76,72.56z"
				/>
		</g>
		<g>
			<path style="fill:#099686;" d="M29.24,72.56c1.33,0.82,3.01,0.8,4.31-0.06c0.97-0.64,1.9-1.35,2.76-2.05
				C35.48,66.75,35,62.89,35,59c0-4.62,0.51-8.79,1.52-12.4c-2.99,3.57-7.77,10.86-9.14,22.08C27.19,70.22,27.92,71.74,29.24,72.56z
				"/>
		</g>
		<g>
			<path style="fill:#47C4B7;" d="M35,59c0,8.62,2.36,17.08,5.56,24.04C39.52,83.17,37,83.82,37,87c0,0,8.79,0,10,0
				c1.11,0,2-0.9,2-2V73c2,0.665,4,0.998,6,0.998V31C42,31,35,41.88,35,59z"/>
		</g>
		<g>
			<circle style="fill:#F0F1F1;" cx="55" cy="47" r="8"/>
		</g>
		<g>
			<path style="fill:#3E3E3F;" d="M57.5,46c-0.828,0-1.5-0.672-1.5-1.5c0-0.479,0.228-0.9,0.577-1.175
				C56.093,43.117,55.561,43,55,43c-2.209,0-4,1.791-4,4s1.791,4,4,4c2.209,0,4-1.791,4-4c0-0.561-0.117-1.093-0.325-1.577
				C58.4,45.772,57.979,46,57.5,46z"/>
		</g>
	</g>
</g>
</svg>
