<?xml version="1.0" encoding="iso-8859-1"?>
<!-- Generator: Adobe Illustrator 17.1.0, SVG Export Plug-In . SVG Version: 6.00 Build 0)  -->
<!DOCTYPE svg PUBLIC "-//W3C//DTD SVG 1.0//EN" "http://www.w3.org/TR/2001/REC-SVG-20010904/DTD/svg10.dtd">
<svg version="1.0" xmlns="http://www.w3.org/2000/svg" xmlns:xlink="http://www.w3.org/1999/xlink" x="0px" y="0px" width="110px"
	 height="110px" viewBox="0 0 110 110" style="enable-background:new 0 0 110 110;" xml:space="preserve">
<g id="Artboard">
</g>
<g id="Multicolor">
	<circle style="fill:#25B7D3;" cx="55" cy="55" r="55"/>
	<g>
		<g>
			<path style="fill:#3E3E3F;" d="M79,82.5c0,2.485-2.015,4.5-4.5,4.5S70,84.985,70,82.5V80h9V82.5z"/>
		</g>
		<g>
			<path style="fill:#3E3E3F;" d="M40.015,82.5c0,2.485-2.015,4.5-4.5,4.5s-4.5-2.015-4.5-4.5V80h9V82.5z"/>
		</g>
		<g>
			<path style="fill:#F0F1F1;" d="M79.015,29c0-1.105-0.895-2-2-2h-44c-1.105,0-2,0.895-2,2v46h48V29z"/>
		</g>
		<g>
			<path style="fill:#FFFFFF;" d="M31,55v16c0,0.027,0.008,0.053,0.008,0.08L47.088,55H31z"/>
		</g>
		<g>
			<path style="fill:#FFFFFF;" d="M31,29v26h16.088l28-28H33C31.896,27,31,27.896,31,29z"/>
		</g>
		<g>
			<path style="fill:#CFD3D4;" d="M27.82,53.82c-0.2,0.444-0.556,0.8-1,1L31,59v-2L27.82,53.82z"/>
		</g>
		<polygon style="fill:#CFD3D4;" points="28,45 28,45.999 28,46 28,47 31,47 31,45 		"/>
		<g>
			<path style="fill:#FFFFFF;" d="M23,53c0,1.105,0.895,2,2,2h1c1.105,0,2-0.895,2-2v-8c0-1.105-0.895-2-2-2h-1
				c-1.105,0-2,0.895-2,2V53z"/>
		</g>
		<g>
			<path style="fill:#CFD3D4;" d="M82.18,53.82L79,57v2l4.18-4.18C82.736,54.62,82.38,54.264,82.18,53.82z"/>
		</g>
		<rect x="79" y="45" style="fill:#CFD3D4;" width="3" height="2"/>
		<g>
			<path style="fill:#FFFFFF;" d="M87,53c0,1.105-0.895,2-2,2h-1c-1.105,0-2-0.895-2-2v-8c0-1.105,0.895-2,2-2h1
				c1.105,0,2,0.895,2,2V53z"/>
		</g>
		<g>
			<path style="fill:#40C9E7;" d="M74.028,42.03C73.62,40.249,72.153,39,70.47,39H39.53c-1.683,0-3.149,1.249-3.557,3.03L33,55h44
				L74.028,42.03z"/>
		</g>
		<g>
			<path style="fill:#FA5655;" d="M39,23h2v4h-6C35,24.791,36.791,23,39,23z"/>
		</g>
		<g>
			<rect x="63" y="31" style="fill:#DF2C2C;" width="8" height="4"/>
		</g>
		<g>
			<polygon style="fill:#FA5655;" points="71,31 63,31 63,35 67.088,35 71,31.088 			"/>
		</g>
		<g>
			<rect x="39" y="31" style="fill:#40C9E7;" width="8" height="4"/>
		</g>
		<g>
			<rect x="47" y="31" style="fill:#FA5655;" width="8" height="4"/>
		</g>
		<g>
			<rect x="55" y="31" style="fill:#40C9E7;" width="8" height="4"/>
		</g>
		<g>
			<polygon style="fill:#FACB1B;" points="79,59 79,67 66,67 66.5,63 			"/>
		</g>
		<g>
			<polygon style="fill:#FACB1B;" points="44,67 31,67 31,59 43.5,63 			"/>
		</g>
		<g>
			<rect x="48" y="23" style="fill:#FA5655;" width="14" height="4"/>
		</g>
		<g>
			<rect x="41" y="23" style="fill:#FFFFFF;" width="7" height="4"/>
		</g>
		<g>
			<path style="fill:#FA5655;" d="M71,23h-2v4h6C75,24.791,73.209,23,71,23z"/>
		</g>
		<g>
			<rect x="62" y="23" style="fill:#FFFFFF;" width="7" height="4"/>
		</g>
		<g>
			<rect x="38" y="67" style="fill:#FA5655;" width="7" height="4"/>
		</g>
		<g>
			<rect x="31" y="67" style="fill:#F99134;" width="7" height="4"/>
		</g>
		<g>
			<rect x="72" y="67" style="fill:#F99134;" width="7" height="4"/>
		</g>
		<g>
			<rect x="65" y="67" style="fill:#FA5655;" width="7" height="4"/>
		</g>
		<g>
			<path style="fill:#E2E4E5;" d="M81,78c0,1.105-0.895,2-2,2H31c-1.105,0-2-0.895-2-2v-2c0-1.105,0.895-2,2-2h48
				c1.105,0,2,0.895,2,2V78z"/>
		</g>
		<g>
			<polygon style="fill:#F99134;" points="31,67 31,71 31.088,71 35.088,67 			"/>
		</g>
		<g>
			<polygon style="fill:#FBE158;" points="31,67 35.088,67 40.158,61.93 31,59 			"/>
		</g>
		<g>
			<path style="fill:#6FDAF1;" d="M39.53,39c-1.683,0-3.149,1.249-3.557,3.03L33,55h14.088l16-16H39.53z"/>
		</g>
		<g>
			<path style="fill:#FFFFFF;" d="M44.5,71.03V71H31.015v3h15.166C45.286,73.285,44.655,72.245,44.5,71.03z"/>
		</g>
		<g>
			<path style="fill:#B6BCBD;" d="M44.5,71.03c0.155,1.215,0.786,2.255,1.681,2.97h17.637c0.896-0.715,1.526-1.755,1.682-2.97V71
				l1-8h-23l1,8V71.03z"/>
		</g>
		<g>
			<path style="fill:#FFFFFF;" d="M65.5,71v0.03c-0.155,1.215-0.786,2.255-1.682,2.97h15.197v-3H65.5z"/>
		</g>
		<g>
			<path style="fill:#E2E4E5;" d="M64,67c0,0.552-0.448,1-1,1H47c-0.552,0-1-0.448-1-1s0.448-1,1-1h16C63.552,66,64,66.448,64,67z"
				/>
		</g>
		<g>
			<path style="fill:#E2E4E5;" d="M62,71c0,0.552-0.448,1-1,1H49c-0.552,0-1-0.448-1-1s0.448-1,1-1h12C61.552,70,62,70.448,62,71z"
				/>
		</g>
	</g>
</g>
</svg>
