<?xml version="1.0" encoding="iso-8859-1"?>
<!-- Generator: Adobe Illustrator 17.1.0, SVG Export Plug-In . SVG Version: 6.00 Build 0)  -->
<!DOCTYPE svg PUBLIC "-//W3C//DTD SVG 1.0//EN" "http://www.w3.org/TR/2001/REC-SVG-20010904/DTD/svg10.dtd">
<svg version="1.0" xmlns="http://www.w3.org/2000/svg" xmlns:xlink="http://www.w3.org/1999/xlink" x="0px" y="0px" width="110px"
	 height="110px" viewBox="0 0 110 110" style="enable-background:new 0 0 110 110;" xml:space="preserve">
<g id="Artboard">
</g>
<g id="Multicolor">
	<circle style="fill:#FABC3D;" cx="55" cy="55" r="55"/>
	<g>
		<g>
			<path style="fill:#F0F1F1;" d="M47,77H25c-1.105,0-2-0.895-2-2V61c0-0.423,0.134-0.835,0.383-1.176l7.018-9.65
				c0.376-0.517,0.978-0.824,1.617-0.824H47V77z"/>
		</g>
		<g>
			<path style="fill:#FFFFFF;" d="M44.725,49.35H32.019c-0.64,0-1.241,0.306-1.618,0.824l-7.018,9.65C23.134,60.166,23,60.577,23,61
				v10.075L44.725,49.35z"/>
		</g>
		<g>
			<path style="fill:#FFFFFF;" d="M47,41c0-2.209,1.791-4,4-4h32c2.209,0,4,1.791,4,4v32c0,2.209-1.791,4-4,4H47V41z"/>
		</g>
		<g>
			<path style="fill:#FBE158;" d="M35,45.35c0-1.105,0.895-2,2-2h2c1.105,0,2,0.895,2,2v4h-6V45.35z"/>
		</g>
		<g>
			<path style="fill:#40C9E7;" d="M42,59.35v-7h-7.971c-0.646,0-1.252,0.312-1.627,0.838L28,59.35H42z"/>
		</g>
		<g>
			<rect x="51" y="43" style="fill:#FACB1B;" width="4" height="4"/>
		</g>
		<g>
			<rect x="79" y="43" style="fill:#F99134;" width="4" height="4"/>
		</g>
		<g>
			<rect x="47" y="63" style="fill:#059BBF;" width="40" height="5"/>
		</g>
		<g>
			<path style="fill:#FACB1B;" d="M23,71.938h2c1.105,0,2-0.895,2-2v-2.875c0-1.105-0.895-2-2-2h-2V71.938z"/>
		</g>
		<g>
			<polygon style="fill:#059BBF;" points="74.681,48 72.366,44.738 69,47.128 69,43 65,43 65,47.128 61.634,44.738 59.319,48 
				63.545,51 59.319,54 61.634,57.262 65,54.872 65,59 69,59 69,54.872 72.366,57.262 74.681,54 70.455,51 			"/>
		</g>
		<g>
			<circle style="fill:#3E3E3F;" cx="36.5" cy="76.5" r="6.5"/>
		</g>
		<g>
			<circle style="fill:#CFD3D4;" cx="36.5" cy="76.5" r="2.167"/>
		</g>
		<g>
			<circle style="fill:#3E3E3F;" cx="73.5" cy="76.5" r="6.5"/>
		</g>
		<g>
			<circle style="fill:#CFD3D4;" cx="73.5" cy="76.5" r="2.167"/>
		</g>
		<g>
			<path style="fill:#9CE5F4;" d="M34.029,52.35c-0.646,0-1.252,0.312-1.627,0.837L28,59.35h6.725l7-7H34.029z"/>
		</g>
		<g>
			<path style="fill:#FBE158;" d="M27,67.075v-0.012c0-1.104-0.895-2-2-2h-2v6.012L27,67.075z"/>
		</g>
	</g>
</g>
</svg>
