<?xml version="1.0" encoding="iso-8859-1"?>
<!-- Generator: Adobe Illustrator 17.1.0, SVG Export Plug-In . SVG Version: 6.00 Build 0)  -->
<!DOCTYPE svg PUBLIC "-//W3C//DTD SVG 1.0//EN" "http://www.w3.org/TR/2001/REC-SVG-20010904/DTD/svg10.dtd">
<svg version="1.0" xmlns="http://www.w3.org/2000/svg" xmlns:xlink="http://www.w3.org/1999/xlink" x="0px" y="0px" width="110px"
	 height="110px" viewBox="0 0 110 110" style="enable-background:new 0 0 110 110;" xml:space="preserve">
<g id="Artboard">
</g>
<g id="Multicolor">
	<circle style="fill:#FABC3D;" cx="55" cy="55" r="55"/>
	<g>
		<g>
			<path style="fill:#84462D;" d="M25.943,86.028c-0.977-0.181-1.791-0.994-1.971-1.971c-1.178-6.375-4.143-30.087,12.76-46.99
				s40.615-13.938,46.99-12.76c0.977,0.181,1.791,0.994,1.971,1.971c1.178,6.375,4.143,30.087-12.76,46.99
				S32.318,87.206,25.943,86.028z"/>
		</g>
		<g>
			<path style="fill:#9C6144;" d="M83.722,24.307c-6.375-1.178-30.087-4.143-46.99,12.76s-13.938,40.615-12.76,46.99
				c0.094,0.509,0.362,0.971,0.734,1.324L85.047,25.04C84.693,24.669,84.231,24.401,83.722,24.307z"/>
		</g>
		<g>
			<path style="fill:#FFFFFF;" d="M68.967,41.36c-0.884-0.884-2.223-0.976-2.992-0.207l-2.074,2.074
				c-0.6-0.6-2.144-1.846-2.731-1.259l-0.736,0.736c-0.587,0.587,0.66,2.131,1.259,2.731l-4.192,4.191
				c-0.6-0.6-2.144-1.846-2.731-1.259l-0.736,0.736c-0.587,0.587,0.66,2.131,1.259,2.731l-4.192,4.191
				c-0.6-0.6-2.144-1.846-2.731-1.259l-0.736,0.736c-0.587,0.587,0.66,2.131,1.259,2.731l-4.192,4.191
				c-0.6-0.6-2.144-1.846-2.731-1.259l-0.736,0.736c-0.587,0.587,0.66,2.131,1.259,2.731l-1.582,1.582
				c-0.769,0.769-0.676,2.109,0.208,2.992c0.884,0.884,2.223,0.977,2.992,0.207l1.582-1.582c0.679,0.678,2.391,2.281,3.072,1.6
				l0.736-0.736c0.681-0.681-0.922-2.393-1.6-3.072l4.192-4.191c0.679,0.678,2.391,2.281,3.072,1.6l0.736-0.736
				c0.681-0.681-0.922-2.393-1.6-3.072l4.192-4.191c0.679,0.678,2.391,2.281,3.072,1.6l0.736-0.736
				c0.681-0.681-0.922-2.393-1.6-3.072l4.192-4.191c0.679,0.678,2.391,2.281,3.072,1.6l0.736-0.736
				c0.681-0.681-0.922-2.393-1.6-3.072l2.074-2.074C69.944,43.583,69.851,42.244,68.967,41.36z"/>
		</g>
		<g>
			<path style="fill:#F0F1F1;" d="M86.412,43.25c-0.154,1.579-0.366,3.228-0.671,4.902L61.882,24.293
				c1.674-0.305,3.323-0.517,4.902-0.671L86.412,43.25z"/>
		</g>
		<g>
			<path style="fill:#FFFFFF;" d="M66.784,23.622c-1.579,0.154-3.228,0.366-4.902,0.671l11.956,11.956l2.786-2.786L66.784,23.622z"
				/>
		</g>
		<g>
			<path style="fill:#F0F1F1;" d="M47.806,86.076c-1.674,0.305-3.312,0.518-4.891,0.671L23.287,67.119
				c0.154-1.579,0.366-3.217,0.671-4.891L47.806,86.076z"/>
		</g>
		<g>
			<path style="fill:#FFFFFF;" d="M35.909,74.178l-11.95-11.95c-0.305,1.674-0.518,3.312-0.671,4.891l9.84,9.84L35.909,74.178z"/>
		</g>
	</g>
</g>
</svg>
