<?xml version="1.0" encoding="iso-8859-1"?>
<!-- Generator: Adobe Illustrator 17.1.0, SVG Export Plug-In . SVG Version: 6.00 Build 0)  -->
<!DOCTYPE svg PUBLIC "-//W3C//DTD SVG 1.0//EN" "http://www.w3.org/TR/2001/REC-SVG-20010904/DTD/svg10.dtd">
<svg version="1.0" xmlns="http://www.w3.org/2000/svg" xmlns:xlink="http://www.w3.org/1999/xlink" x="0px" y="0px" width="110px"
	 height="110px" viewBox="0 0 110 110" style="enable-background:new 0 0 110 110;" xml:space="preserve">
<g id="Artboard">
</g>
<g id="Multicolor">
	<circle style="fill:#E04F5F;" cx="55" cy="55" r="55"/>
	<g>
		<g>
			<path style="fill:#E2E4E5;" d="M85.048,56.66c-0.005-0.481-0.271-0.922-0.693-1.151c-0.175-0.095-0.367-0.137-0.559-0.148
				c-0.272-0.015-0.546,0.044-0.784,0.195l-7.594,4.835c-0.396,0.252-0.629,0.695-0.612,1.164s0.28,0.895,0.692,1.118l1.624,0.88
				c-4.101,5.851-10.609,9.991-18.147,11.124V46.011h11c1.1,0,2-0.9,2-2v-4c0-1.1-0.9-2-2-2h-8.079c0.682-1.178,1.079-2.541,1.079-4
				c0-4.418-3.582-8-8-8s-8,3.582-8,8c0,1.459,0.397,2.822,1.079,4h-8.079c-1.1,0-2,0.9-2,2v4c0,1.1,0.9,2,2,2h11v28.719
				c-7.684-1.057-14.325-5.237-18.488-11.176l1.624-0.88c0.413-0.224,0.676-0.649,0.692-1.118s-0.216-0.912-0.612-1.164
				c-4.209-2.68-5.554-3.536-7.594-4.835c-0.238-0.151-0.512-0.21-0.784-0.195c-0.192,0.011-0.383,0.053-0.559,0.148
				c-0.423,0.229-0.688,0.669-0.693,1.151l-0.094,9.002c-0.005,0.469,0.239,0.906,0.641,1.148s0.902,0.253,1.315,0.03l1.419-0.769
				C32.014,77.445,42.209,87,54.805,87c0.057,0,0.113-0.008,0.17-0.008c12.516-0.087,22.64-9.599,26.791-20.921l1.419,0.769
				c0.413,0.224,0.913,0.212,1.315-0.03s0.646-0.679,0.641-1.148L85.048,56.66z M54.975,38.011c-2.206,0-4-1.794-4-4s1.794-4,4-4
				s4,1.794,4,4S57.18,38.011,54.975,38.011z"/>
		</g>
		<g>
			<path style="fill:#F0F1F1;" d="M85.048,56.66c-0.005-0.481-0.271-0.922-0.693-1.151c-0.175-0.095-0.367-0.137-0.559-0.148
				c-0.272-0.015-0.546,0.044-0.784,0.195l-7.594,4.835c-0.396,0.252-0.629,0.695-0.612,1.164s0.28,0.895,0.692,1.118l1.624,0.88
				c-4.101,5.851-10.609,9.991-18.147,11.124V46.011h11c1.1,0,2-0.9,2-2v-4c0-1.1-0.9-2-2-2h-8.079c0.682-1.178,1.079-2.541,1.079-4
				c0-4.418-3.582-8-8-8s-8,3.582-8,8c0,1.459,0.397,2.822,1.079,4h-8.079c-1.1,0-2,0.9-2,2v4c0,1.1,0.9,2,2,2h11v28.719
				c-7.684-1.057-14.325-5.237-18.488-11.176l1.624-0.88c0.413-0.224,0.676-0.649,0.692-1.118s-0.216-0.912-0.612-1.164
				c-4.209-2.68-5.554-3.536-7.594-4.835c-0.238-0.151-0.512-0.21-0.784-0.195c-0.192,0.011-0.383,0.053-0.559,0.148
				c-0.423,0.229-0.688,0.669-0.693,1.151l-0.094,9.002c-0.005,0.469,0.239,0.906,0.641,1.148s0.902,0.253,1.315,0.03l1.419-0.769
				C32.014,77.445,42.209,87,54.805,87c0.057,0,0.113-0.008,0.17-0.008c12.516-0.087,22.64-9.599,26.791-20.921l1.419,0.769
				c0.413,0.224,0.913,0.212,1.315-0.03s0.646-0.679,0.641-1.148L85.048,56.66z M54.975,38.011c-2.206,0-4-1.794-4-4s1.794-4,4-4
				s4,1.794,4,4S57.18,38.011,54.975,38.011z"/>
		</g>
		<g>
			<path style="fill:#FFFFFF;" d="M50.975,34.011c0-2.147,1.705-3.892,3.83-3.983V26.02c-4.339,0.091-7.83,3.63-7.83,7.991
				c0,1.459,0.397,2.822,1.079,4h-8.079c-1.1,0-2,0.9-2,2v4c0,1.1,0.9,2,2,2h11v28.719c-7.684-1.058-14.325-5.237-18.488-11.176
				l1.624-0.88c0.413-0.224,0.676-0.649,0.692-1.118s-0.216-0.912-0.612-1.164l-7.594-4.835c-0.238-0.151-0.512-0.21-0.784-0.195
				c-0.192,0.011-0.383,0.053-0.559,0.148c-0.423,0.229-0.688,0.669-0.693,1.151l-0.094,9.002c-0.005,0.469,0.239,0.906,0.641,1.148
				s0.902,0.253,1.315,0.03l1.419-0.769C32.014,77.445,42.209,87,54.805,87V37.994C52.679,37.902,50.975,36.158,50.975,34.011z"/>
		</g>
	</g>
</g>
</svg>
