<?xml version="1.0" encoding="iso-8859-1"?>
<!-- Generator: Adobe Illustrator 17.1.0, SVG Export Plug-In . SVG Version: 6.00 Build 0)  -->
<!DOCTYPE svg PUBLIC "-//W3C//DTD SVG 1.0//EN" "http://www.w3.org/TR/2001/REC-SVG-20010904/DTD/svg10.dtd">
<svg version="1.0" xmlns="http://www.w3.org/2000/svg" xmlns:xlink="http://www.w3.org/1999/xlink" x="0px" y="0px" width="110px"
	 height="110px" viewBox="0 0 110 110" style="enable-background:new 0 0 110 110;" xml:space="preserve">
<g id="Artboard">
</g>
<g id="Multicolor">
	<circle style="fill:#32BEA6;" cx="55" cy="55" r="55"/>
	<g>
		<path style="fill:#DF2C2C;" d="M61.373,33.903l-8.67-9.881c-1.093-1.245-2.988-1.369-4.234-0.276
			c-1.245,1.093-1.369,2.988-0.276,4.234l3.258,3.713l-8.923-5.274c-1.426-0.843-3.266-0.37-4.109,1.056s-0.37,3.266,1.056,4.109
			l5.896,3.485C34.65,39.795,27,51.92,27,64c0,15.464,12.536,23,28,23s28-7.536,28-23C83,50.729,73.765,37.415,61.373,33.903z"/>
		<path style="fill:#FA5655;" d="M52.702,24.021c-1.093-1.246-2.988-1.369-4.233-0.276c-1.246,1.093-1.369,2.988-0.276,4.234
			l3.258,3.713l-8.923-5.274c-1.426-0.843-3.266-0.37-4.109,1.056c-0.843,1.426-0.37,3.266,1.056,4.109l5.896,3.485
			C34.65,39.795,27,51.92,27,64c0,15.464,12.536,23,28,23V26.64L52.702,24.021z"/>
		<path style="fill:#F8E1C2;" d="M32.285,78.637C37.37,84.238,45.647,87,55,87s17.63-2.762,22.715-8.363
			C72.63,71.591,64.353,67,55,67S37.37,71.591,32.285,78.637z"/>
		<path style="fill:#FCF1E2;" d="M32.285,78.637C37.37,84.238,45.646,87,55,87V67C45.646,67,37.37,71.591,32.285,78.637z"/>
		<path style="fill:#FFFFFF;" d="M61,51c-2.704,0-5.02,1.651-6,4c-0.98-2.348-3.296-4-6-4c-3.59,0-6.5,2.91-6.5,6.5S45.41,64,49,64
			c2.704,0,5.02-1.651,6-4c0.98,2.348,3.296,4,6,4c3.59,0,6.5-2.91,6.5-6.5S64.59,51,61,51z"/>
		<circle style="fill:#3E3E3F;" cx="49" cy="57" r="2"/>
		<circle style="fill:#3E3E3F;" cx="61" cy="57" r="2"/>
		<polygon style="fill:#3E3E3F;" points="69,49.801 65.84,44.7 55,53.596 44.16,44.7 41,49.801 54.805,56 55,55.685 55.195,56 		"/>
		<path style="fill:#3E3E3F;" d="M55,73c-1.922,0-5.889-2.049-8.497-3.524C47.354,72.574,49.555,77.639,55,79
			c5.445-1.361,7.646-6.426,8.497-9.524C60.889,70.951,56.922,73,55,73z"/>
		<path style="fill:#FACB1B;" d="M44,68c0,0,7-9,11-9s11,9,11,9s-8,5-11,5S44,68,44,68z"/>
		<path style="fill:#FBE158;" d="M44,68c0,0,8,5,11,5V59C51,59,44,68,44,68z"/>
	</g>
</g>
</svg>
