<?xml version="1.0" encoding="iso-8859-1"?>
<!-- Generator: Adobe Illustrator 17.1.0, SVG Export Plug-In . SVG Version: 6.00 Build 0)  -->
<!DOCTYPE svg PUBLIC "-//W3C//DTD SVG 1.0//EN" "http://www.w3.org/TR/2001/REC-SVG-20010904/DTD/svg10.dtd">
<svg version="1.0" xmlns="http://www.w3.org/2000/svg" xmlns:xlink="http://www.w3.org/1999/xlink" x="0px" y="0px" width="110px"
	 height="110px" viewBox="0 0 110 110" style="enable-background:new 0 0 110 110;" xml:space="preserve">
<g id="Artboard">
</g>
<g id="Multicolor">
	<circle style="fill:#E04F5F;" cx="55" cy="55" r="55"/>
	<g>
		<path style="fill:#E2E4E5;" d="M67.052,87H77c-6.963-10.942-15.074-26.386-20.933-43.149c-0.135-0.386-0.524-0.625-0.933-0.621
			c-0.409,0.005-0.784,0.255-0.919,0.641C48.57,60.14,40.194,76.058,33.23,87h9.948c1.067-1.908,2.06-3.912,3.013-5.969h17.847
			C64.992,83.088,65.986,85.092,67.052,87z M55.115,55.168c0.989,3.745,2.051,7.395,3.191,10.942h-6.381
			C53.064,62.562,54.126,58.913,55.115,55.168z M47.939,77.052c0.935-2.253,1.815-4.578,2.65-6.963h9.052
			c0.835,2.385,1.715,4.71,2.65,6.963H47.939z"/>
		<g>
			<g>
				<path style="fill:#FBE158;" d="M63.581,33.953c0,0.468,0.196,0.933,0.577,1.262c1.102,0.951,1.734,2.331,1.734,3.786
					c0,1.433-0.616,2.799-1.692,3.749c-0.69,0.609-0.755,1.663-0.146,2.352c0.609,0.69,1.662,0.755,2.352,0.146
					c1.791-1.582,2.818-3.858,2.818-6.247c0-2.424-1.053-4.724-2.889-6.309c-0.697-0.601-1.749-0.524-2.35,0.173
					C63.714,33.179,63.581,33.567,63.581,33.953z"/>
			</g>
			<g>
				<path style="fill:#FBE158;" d="M71.392,47.88c0,0.458,0.188,0.914,0.556,1.243c0.686,0.613,1.74,0.554,2.353-0.132
					c2.458-2.75,3.812-6.298,3.812-9.99c0-3.651-1.327-7.169-3.737-9.906c-0.608-0.691-1.661-0.758-2.352-0.15
					c-0.691,0.608-0.758,1.661-0.15,2.352c1.874,2.128,2.906,4.864,2.906,7.704c0,2.871-1.053,5.63-2.964,7.769
					C71.532,47.088,71.392,47.484,71.392,47.88z"/>
			</g>
			<g>
				<path style="fill:#FBE158;" d="M77.738,25.622c0,0.454,0.185,0.907,0.548,1.236c3.42,3.097,5.381,7.519,5.381,12.13
					c0,4.601-1.954,9.016-5.362,12.112c-0.681,0.619-0.732,1.673-0.113,2.354c0.619,0.681,1.673,0.731,2.354,0.113
					C84.648,49.84,87,44.526,87,38.988c0-5.551-2.361-10.872-6.477-14.6c-0.682-0.618-1.736-0.566-2.354,0.117
					C77.88,24.823,77.738,25.223,77.738,25.622z"/>
			</g>
		</g>
		<g>
			<g>
				<path style="fill:#FBE158;" d="M46.419,33.953c0,0.468-0.196,0.933-0.577,1.262c-1.102,0.951-1.734,2.331-1.734,3.786
					c0,1.433,0.616,2.799,1.692,3.749c0.69,0.609,0.755,1.663,0.146,2.352c-0.609,0.69-1.662,0.755-2.352,0.146
					c-1.791-1.582-2.818-3.858-2.818-6.247c0-2.424,1.053-4.724,2.889-6.309c0.697-0.601,1.749-0.524,2.35,0.173
					C46.286,33.179,46.419,33.567,46.419,33.953z"/>
			</g>
			<g>
				<path style="fill:#FBE158;" d="M38.608,47.88c0,0.458-0.188,0.914-0.556,1.243c-0.686,0.613-1.74,0.554-2.353-0.132
					c-2.458-2.75-3.812-6.298-3.812-9.99c0-3.651,1.327-7.169,3.737-9.906c0.608-0.691,1.661-0.758,2.352-0.15
					c0.691,0.608,0.758,1.661,0.15,2.352c-1.874,2.128-2.906,4.864-2.906,7.704c0,2.871,1.053,5.63,2.964,7.769
					C38.468,47.088,38.608,47.484,38.608,47.88z"/>
			</g>
			<g>
				<path style="fill:#FBE158;" d="M32.262,25.622c0,0.454-0.185,0.907-0.548,1.236c-3.42,3.097-5.381,7.519-5.381,12.13
					c0,4.601,1.954,9.016,5.362,12.112c0.681,0.619,0.732,1.673,0.113,2.354c-0.619,0.681-1.673,0.731-2.354,0.113
					C25.352,49.84,23,44.526,23,38.988c0-5.551,2.361-10.872,6.477-14.6c0.682-0.618,1.736-0.566,2.354,0.117
					C32.12,24.823,32.262,25.223,32.262,25.622z"/>
			</g>
		</g>
		<path style="fill:#FFFFFF;" d="M55.115,77.052h-7.176c0.935-2.253,1.815-4.578,2.65-6.963h4.526V66.11h-3.191
			c1.14-3.548,2.202-7.197,3.191-10.942V43.233c-0.401,0.012-0.767,0.258-0.899,0.638C48.57,60.14,40.194,76.058,33.23,87h9.948
			c1.067-1.908,2.06-3.912,3.013-5.969h8.924V77.052z"/>
	</g>
</g>
</svg>
