<?xml version="1.0" encoding="iso-8859-1"?>
<!-- Generator: Adobe Illustrator 17.1.0, SVG Export Plug-In . SVG Version: 6.00 Build 0)  -->
<!DOCTYPE svg PUBLIC "-//W3C//DTD SVG 1.0//EN" "http://www.w3.org/TR/2001/REC-SVG-20010904/DTD/svg10.dtd">
<svg version="1.0" xmlns="http://www.w3.org/2000/svg" xmlns:xlink="http://www.w3.org/1999/xlink" x="0px" y="0px" width="110px"
	 height="110px" viewBox="0 0 110 110" style="enable-background:new 0 0 110 110;" xml:space="preserve">
<g id="Artboard">
</g>
<g id="Multicolor">
	<circle style="fill:#FABC3D;" cx="55" cy="55" r="55"/>
	<g>
		<g>
			<path style="fill:#3E3E3F;" d="M43.129,57h-18c-0.699,0-1.347,0.365-1.71,0.963c-0.363,0.598-0.388,1.342-0.064,1.962
				C25.21,63.477,30.917,69,43.129,69C43.129,66,43.129,57,43.129,57z"/>
		</g>
		<g>
			<path style="fill:#3E3E3F;" d="M86.996,57.125c0.034-0.551-0.16-1.092-0.538-1.494C86.08,55.228,85.552,55,85,55H45.129
				c-1.104,0-2,0.895-2,2v12c0,1.105,0.896,2,2,2h2c3.314,0,6,2.686,6,6s-2.686,6-6,6h-4c-2.209,0-4,1.791-4,4h40
				c0-2.209-1.791-4-4-4c-3.314,0-6-2.686-6-6s2.686-6,6-6h8.004c1.056,0,1.93-0.821,1.996-1.875L86.996,57.125z"/>
		</g>
		<g>
			<path style="fill:#E2E4E5;" d="M76.871,34.199c1.026,0.41,1.525,1.574,1.115,2.599l-6.681,16.714
				c-0.41,1.026-1.574,1.525-2.599,1.115l-11.143-4.454c-1.026-0.41-1.525-1.574-1.115-2.599l6.681-16.714
				c0.41-1.026,1.574-1.525,2.599-1.115L76.871,34.199z"/>
		</g>
		<g>
			<path style="fill:#84462D;" d="M58.675,42.003L25.016,28.787c-1.539-0.615-2.287-2.361-1.672-3.899
				c0.615-1.539,2.361-2.287,3.899-1.672l33.658,13.217L58.675,42.003z"/>
		</g>
		<g>
			<polygon style="fill:#FFFFFF;" points="72.047,51.648 57.188,45.719 62.388,32.719 77.237,38.648 			"/>
		</g>
		<g>
			<path style="fill:#5B5C5F;" d="M25.129,57c-0.699,0-1.348,0.365-1.71,0.963c-0.363,0.598-0.388,1.342-0.064,1.961
				c1.043,1.999,3.307,4.621,7.261,6.533L40.074,57H25.129z"/>
		</g>
	</g>
</g>
</svg>
