<?xml version="1.0" encoding="iso-8859-1"?>
<!-- Generator: Adobe Illustrator 17.1.0, SVG Export Plug-In . SVG Version: 6.00 Build 0)  -->
<!DOCTYPE svg PUBLIC "-//W3C//DTD SVG 1.0//EN" "http://www.w3.org/TR/2001/REC-SVG-20010904/DTD/svg10.dtd">
<svg version="1.0" xmlns="http://www.w3.org/2000/svg" xmlns:xlink="http://www.w3.org/1999/xlink" x="0px" y="0px" width="110px"
	 height="110px" viewBox="0 0 110 110" style="enable-background:new 0 0 110 110;" xml:space="preserve">
<g id="Artboard">
</g>
<g id="Multicolor">
	<circle style="fill:#25B7D3;" cx="55" cy="55" r="55"/>
	<g>
		<rect x="43" y="35" style="fill:#FFFFFF;" width="24" height="52"/>
		<path style="fill:#DF2C2C;" d="M40,35c-0.43,0-0.813-0.275-0.949-0.684c-0.136-0.408,0.004-0.858,0.349-1.116l15-9.75
			c0.356-0.267,0.844-0.267,1.2,0l15,9.75c0.344,0.258,0.485,0.708,0.349,1.116C70.813,34.725,70.43,35,70,35H40z"/>
		<rect x="59" y="63" style="fill:#40C9E7;" width="4" height="4"/>
		<rect x="47" y="71" style="fill:#40C9E7;" width="4" height="4"/>
		<rect x="59" y="71" style="fill:#40C9E7;" width="4" height="4"/>
		<path style="fill:#84462D;" d="M59,81c0-2.209-1.791-4-4-4s-4,1.791-4,4v6h8L59,81z"/>
		<rect x="67" y="55" style="fill:#F0F1F1;" width="16" height="32"/>
		<rect x="27" y="55" style="fill:#F0F1F1;" width="16" height="32"/>
		<path style="fill:#DF2C2C;" d="M43,43L23.486,53.143c-0.385,0.231-0.569,0.691-0.449,1.124S23.551,55,24,55h19V43z"/>
		<path style="fill:#DF2C2C;" d="M67,43l19.514,10.143c0.385,0.231,0.569,0.691,0.449,1.124C86.844,54.7,86.45,55,86,55H67V43z"/>
		<rect x="71" y="75" style="fill:#40C9E7;" width="8" height="4"/>
		<rect x="47" y="39" style="fill:#40C9E7;" width="4" height="4"/>
		<rect x="59" y="39" style="fill:#40C9E7;" width="4" height="4"/>
		<rect x="47" y="47" style="fill:#40C9E7;" width="4" height="4"/>
		<rect x="59" y="47" style="fill:#40C9E7;" width="4" height="4"/>
		<rect x="47" y="55" style="fill:#40C9E7;" width="4" height="4"/>
		<rect x="59" y="55" style="fill:#40C9E7;" width="4" height="4"/>
		<rect x="47" y="63" style="fill:#40C9E7;" width="4" height="4"/>
		<rect x="31" y="59" style="fill:#40C9E7;" width="8" height="4"/>
		<rect x="31" y="67" style="fill:#40C9E7;" width="8" height="4"/>
		<rect x="31" y="75" style="fill:#40C9E7;" width="8" height="4"/>
		<rect x="71" y="59" style="fill:#40C9E7;" width="8" height="4"/>
		<rect x="71" y="67" style="fill:#40C9E7;" width="8" height="4"/>
		<path style="fill:#FA5655;" d="M55,23.25c-0.211,0-0.422,0.067-0.6,0.2l-15,9.75c-0.344,0.258-0.485,0.708-0.349,1.116
			C39.187,34.725,39.57,35,40,35h15V23.25z"/>
	</g>
</g>
</svg>
