<?xml version="1.0" encoding="iso-8859-1"?>
<!-- Generator: Adobe Illustrator 17.1.0, SVG Export Plug-In . SVG Version: 6.00 Build 0)  -->
<!DOCTYPE svg PUBLIC "-//W3C//DTD SVG 1.0//EN" "http://www.w3.org/TR/2001/REC-SVG-20010904/DTD/svg10.dtd">
<svg version="1.0" xmlns="http://www.w3.org/2000/svg" xmlns:xlink="http://www.w3.org/1999/xlink" x="0px" y="0px" width="110px"
	 height="110px" viewBox="0 0 110 110" style="enable-background:new 0 0 110 110;" xml:space="preserve">
<g id="Artboard">
</g>
<g id="Multicolor">
	<circle style="fill:#FABC3D;" cx="55" cy="55" r="55"/>
	<g>
		<polygon style="fill:#FFFFFF;" points="63,39 63,87 87,87 87,39 75,27 		"/>
		<polygon style="fill:#FA5655;" points="63,35 75,23 87,35 87,39 75,27 63,39 		"/>
		<rect x="67" y="57" style="fill:#40C9E7;" width="6" height="8"/>
		<rect x="77" y="57" style="fill:#40C9E7;" width="6" height="8"/>
		<rect x="67" y="73" style="fill:#40C9E7;" width="6" height="8"/>
		<rect x="77" y="73" style="fill:#40C9E7;" width="6" height="8"/>
		<polygon style="fill:#FFFFFF;" points="23,39 23,87 47,87 47,39 35,27 		"/>
		<polygon style="fill:#FA5655;" points="23,35 35,23 47,35 47,39 35,27 23,39 		"/>
		<rect x="27" y="73" style="fill:#40C9E7;" width="6" height="8"/>
		<rect x="37" y="73" style="fill:#40C9E7;" width="6" height="8"/>
		<polygon style="fill:#F0F1F1;" points="47,47 47,87 63,87 63,47 55,43 		"/>
		<polygon style="fill:#FA5655;" points="47,43 47,47 55,43 63,47 63,43 55,39 		"/>
		<rect x="51" y="59" style="fill:#40C9E7;" width="8" height="8"/>
		<path style="fill:#FA5655;" d="M55,71c-3.314,0-6,1.791-6,4h12C61,72.791,58.314,71,55,71z"/>
		<rect x="49" y="75" style="fill:#FFFFFF;" width="12" height="2"/>
		<rect x="51" y="77" style="fill:#3E3E3F;" width="8" height="10"/>
		<path style="fill:#40C9E7;" d="M55,48c-2.209,0-4,1.791-4,4v2h8v-2C59,49.791,57.209,48,55,48z"/>
		<rect x="27" y="41" style="fill:#40C9E7;" width="6" height="8"/>
		<rect x="37" y="41" style="fill:#40C9E7;" width="6" height="8"/>
		<rect x="27" y="57" style="fill:#40C9E7;" width="6" height="8"/>
		<rect x="37" y="57" style="fill:#40C9E7;" width="6" height="8"/>
		<rect x="67" y="41" style="fill:#40C9E7;" width="6" height="8"/>
		<rect x="77" y="41" style="fill:#40C9E7;" width="6" height="8"/>
	</g>
</g>
</svg>
