<?xml version="1.0" encoding="iso-8859-1"?>
<!-- Generator: Adobe Illustrator 17.1.0, SVG Export Plug-In . SVG Version: 6.00 Build 0)  -->
<!DOCTYPE svg PUBLIC "-//W3C//DTD SVG 1.0//EN" "http://www.w3.org/TR/2001/REC-SVG-20010904/DTD/svg10.dtd">
<svg version="1.0" xmlns="http://www.w3.org/2000/svg" xmlns:xlink="http://www.w3.org/1999/xlink" x="0px" y="0px" width="110px"
	 height="110px" viewBox="0 0 110 110" style="enable-background:new 0 0 110 110;" xml:space="preserve">
<g id="Artboard">
</g>
<g id="Multicolor">
	<circle style="fill:#32BEA6;" cx="55" cy="55" r="55"/>
	<g>
		<g>
			<path style="fill:#6FDAF1;" d="M48,55c0-4.089,3.226-7.341,5.326-7.782C54.301,47.013,55,46.153,55,45.156
				C55,43.965,54.035,43,52.844,43H43h-9.844C31.966,43,31,43.965,31,45.156c0,0.997,0.698,1.857,1.674,2.062
				C34.774,47.659,38,50.911,38,55c0,10-15,14-15,23c0,4.797,4.148,9,9,9c4,0,11,0,11,0s7,0,11,0c4.852,0,9-4.203,9-9
				C63,69,48,65,48,55z"/>
		</g>
		<g>
			<path style="fill:#9CE5F4;" d="M33.156,43C31.966,43,31,43.965,31,45.156c0,0.997,0.698,1.857,1.674,2.062
				C34.774,47.659,38,50.911,38,55c0,10-15,14-15,23c0,4.797,4.148,9,9,9c4,0,11,0,11,0V43H33.156z"/>
		</g>
		<g>
			<path style="fill:#FACB1B;" d="M48,71c0,2.761-2.239,5-5,5s-5-2.239-5-5c0-3,4-5,3-9C47,64,48,68.239,48,71z"/>
		</g>
		<g>
			<path style="fill:#FBE158;" d="M41,62c1,4-3,6-3,9c0,2.761,2.239,5,5,5V62.837C42.404,62.528,41.741,62.247,41,62z"/>
		</g>
		<g>
			<path style="fill:#FFFFFF;" d="M32.738,23c0,0,3.69,2.214,3.69,5.167s-2.952,5.167-1.476,10.333
				C32.738,37.024,32,34.81,32,33.333c0-1.476,1.476-3.69,1.476-5.905S32.738,23,32.738,23z"/>
		</g>
		<g>
			<path style="fill:#FFFFFF;" d="M40.738,23c0,0,3.69,2.214,3.69,5.167s-2.952,5.167-1.476,10.333
				C40.738,37.024,40,34.81,40,33.333c0-1.476,1.476-3.69,1.476-5.905S40.738,23,40.738,23z"/>
		</g>
		<g>
			<path style="fill:#FFFFFF;" d="M48.738,23c0,0,3.69,2.214,3.69,5.167s-2.952,5.167-1.476,10.333
				C48.738,37.024,48,34.81,48,33.333c0-1.476,1.476-3.69,1.476-5.905S48.738,23,48.738,23z"/>
		</g>
		<g>
			<path style="fill:#F0F1F1;" d="M51,78c0-1.105-0.895-2-2-2H37c-1.105,0-2,0.895-2,2v6h16V78z"/>
		</g>
		<g>
			<path style="fill:#F37A10;" d="M45.5,73.5c0,1.381-1.119,2.5-2.5,2.5s-2.5-1.119-2.5-2.5c0-1.5,2-2.5,1.5-4.5
				C45,70,45.5,72.119,45.5,73.5z"/>
		</g>
		<g>
			<path style="fill:#FFFFFF;" d="M84.677,69.46c-1.635-2.698-5.671-3.018-8.346-0.651c1.112-3.806-1.425-7.424-4.711-7.424
				c-3.241,0-5.79,3.538-4.732,7.345c-2.784-2.364-6.683-1.841-8.24,0.73c-2.013,3.323,0.873,7.885,5.175,8.081
				c-2.942,2.232-3.181,6.046-1.144,8.083c2.61,2.61,7.563,1.232,8.983-2.819c1.418,4.047,6.37,5.432,8.983,2.819
				c2.037-2.037,1.799-5.851-1.144-8.083C83.785,77.345,86.702,72.803,84.677,69.46z"/>
		</g>
		<g>
			<circle style="fill:#FBE158;" cx="71.662" cy="74.872" r="4.518"/>
		</g>
		<g>
			<path style="fill:#F99134;" d="M42,69c0.5,2-1.5,3-1.5,4.5c0,1.381,1.119,2.5,2.5,2.5v-6.582C42.702,69.264,42.371,69.124,42,69z
				"/>
		</g>
		<g>
			<path style="fill:#FFFFFF;" d="M43,76h-6c-1.104,0-2,0.896-2,2v6h8V76z"/>
		</g>
	</g>
</g>
</svg>
