<?xml version="1.0" encoding="iso-8859-1"?>
<!-- Generator: Adobe Illustrator 17.1.0, SVG Export Plug-In . SVG Version: 6.00 Build 0)  -->
<!DOCTYPE svg PUBLIC "-//W3C//DTD SVG 1.0//EN" "http://www.w3.org/TR/2001/REC-SVG-20010904/DTD/svg10.dtd">
<svg version="1.0" xmlns="http://www.w3.org/2000/svg" xmlns:xlink="http://www.w3.org/1999/xlink" x="0px" y="0px" width="110px"
	 height="110px" viewBox="0 0 110 110" style="enable-background:new 0 0 110 110;" xml:space="preserve">
<g id="Artboard">
</g>
<g id="Multicolor">
	<circle style="fill:#32BEA6;" cx="55" cy="55" r="55"/>
	<g>
		<g>
			<path style="fill:#FBE158;" d="M66.7,81.87C66.48,81.96,66.25,82,66,82c-1.1,0-2-0.9-2-2c0-2.03,1.6-3.75,3.5-3.75
				c1.61,0,3.5,1.24,3.5,4.75c0,2.03-1.81,6-6,6c-3.31,0-6-3.14-6-7c0-6.86,8-11.749,8-19V49c0-7.25-8-12.141-8-19
				c0-3.86,2.69-7,6-7c4.19,0,6,3.97,6,6c0,3.51-1.89,4.75-3.5,4.75c-1.9,0-3.5-1.72-3.5-3.75c0-1.1,0.9-2,2-2
				c0.25,0,0.49,0.05,0.71,0.13C66.43,27.59,65.92,27,65,27c-0.82,0-2,1.07-2,3c0,4.819,14,12,14,25S63,75.188,63,80
				c0,1.93,1.18,3,2,3C65.92,83,66.43,82.41,66.7,81.87z"/>
		</g>
		<g>
			<path style="fill:#F3B607;" d="M67,49v12c0,0.69-0.07,1.35-0.21,2h8.365C76.272,60.606,77,57.954,77,55
				c0-2.955-0.728-5.606-1.845-8H66.79C66.93,47.65,67,48.31,67,49z"/>
		</g>
		<g>
			<path style="fill:#E2E4E5;" d="M59.125,28.58L33.513,48.759l1.164,1.629l24.406-19.229C59.032,30.777,59,30.392,59,30
				C59,29.514,59.043,29.039,59.125,28.58z"/>
		</g>
		<g>
			<path style="fill:#FFFFFF;" d="M28.207,53h8.336l-4.136-5.791C32.313,47.078,32.162,47,32,47h-7.821
				c-0.188,0-0.359,0.105-0.445,0.271s-0.071,0.367,0.038,0.519l3.801,5.322C27.773,53.045,27.984,53,28.207,53z"/>
		</g>
		<g>
			<path style="fill:#E2E4E5;" d="M34.677,59.612l-1.164,1.629L59.125,81.42C59.043,80.961,59,80.486,59,80
				c0-0.392,0.032-0.777,0.083-1.159L34.677,59.612z"/>
		</g>
		<g>
			<path style="fill:#FFFFFF;" d="M28.207,57c-0.223,0-0.434-0.045-0.634-0.112l-3.801,5.322c-0.109,0.152-0.123,0.353-0.038,0.519
				S23.991,63,24.179,63H32c0.162,0,0.313-0.078,0.407-0.209L36.543,57H28.207z"/>
		</g>
		<g>
			<path style="fill:#3E3E3F;" d="M86.707,55.707c0.391-0.391,0.391-1.024,0-1.414l-6-7c-0.286-0.286-0.716-0.372-1.09-0.217
				S79,47.596,79,48v5H28.207c-1.104,0-2,0.896-2,2s0.896,2,2,2H79v5c0,0.404,0.244,0.769,0.617,0.924s0.804,0.069,1.09-0.217
				L86.707,55.707z"/>
		</g>
	</g>
</g>
</svg>
