<?xml version="1.0" encoding="iso-8859-1"?>
<!-- Generator: Adobe Illustrator 17.1.0, SVG Export Plug-In . SVG Version: 6.00 Build 0)  -->
<!DOCTYPE svg PUBLIC "-//W3C//DTD SVG 1.0//EN" "http://www.w3.org/TR/2001/REC-SVG-20010904/DTD/svg10.dtd">
<svg version="1.0" xmlns="http://www.w3.org/2000/svg" xmlns:xlink="http://www.w3.org/1999/xlink" x="0px" y="0px" width="110px"
	 height="110px" viewBox="0 0 110 110" style="enable-background:new 0 0 110 110;" xml:space="preserve">
<g id="Artboard" style="display:none;">
	<rect x="-607" y="-455" style="display:inline;fill:#8C8C8C;" width="1412" height="743"/>
</g>
<g id="R-Multicolor">
	<circle style="fill:#FABC3D;" cx="55" cy="55" r="55"/>
	<g>
		<path style="fill:#F0F1F1;" d="M76.002,63.352c0.469,0.469,1.157,0.644,1.794,0.456c0.636-0.188,1.118-0.71,1.257-1.358
			l5.831-34.262c0.128-0.6-0.057-1.224-0.49-1.657c-0.434-0.434-1.057-0.618-1.657-0.49l-33.906,6.187
			c-0.649,0.138-1.17,0.621-1.358,1.257c-0.188,0.636-0.013,1.324,0.456,1.794l6.18,6.18L27.53,68.034
			c-0.707,0.707-0.707,1.853,0,2.56L40.33,83.393c0.707,0.707,1.853,0.707,2.56,0l26.576-26.576L76.002,63.352z"/>
		<path style="fill:#FFFFFF;" d="M82.735,26.04L48.83,32.227c-0.649,0.138-1.17,0.621-1.358,1.257
			c-0.188,0.636-0.014,1.324,0.456,1.793l6.18,6.18L27.53,68.034c-0.707,0.707-0.707,1.853,0,2.56l5.996,5.996L83.916,26.2
			C83.554,26.021,83.142,25.953,82.735,26.04z"/>
	</g>
</g>
<g id="Multicolor" style="display:none;">
	<g style="display:inline;">
		<path style="fill:#F0F1F1;" d="M76.002,63.352c0.469,0.469,1.157,0.644,1.794,0.456c0.636-0.188,1.118-0.71,1.257-1.358
			l5.831-34.262c0.128-0.6-0.057-1.224-0.49-1.657c-0.434-0.434-1.057-0.618-1.657-0.49l-33.906,6.187
			c-0.649,0.138-1.17,0.621-1.358,1.257c-0.188,0.636-0.013,1.324,0.456,1.794l6.18,6.18L27.53,68.034
			c-0.707,0.707-0.707,1.853,0,2.56L40.33,83.393c0.707,0.707,1.853,0.707,2.56,0l26.576-26.576L76.002,63.352z"/>
		<path style="fill:#FFFFFF;" d="M82.735,26.04L48.83,32.227c-0.649,0.138-1.17,0.621-1.358,1.257
			c-0.188,0.636-0.014,1.324,0.456,1.793l6.18,6.18L27.53,68.034c-0.707,0.707-0.707,1.853,0,2.56l5.996,5.996L83.916,26.2
			C83.554,26.021,83.142,25.953,82.735,26.04z"/>
	</g>
</g>
<g id="Blue" style="display:none;">
	<g style="display:inline;">
		<g>
			<path style="fill:#E1F5FA;" d="M76.005,63.352c0.469,0.469,1.157,0.644,1.793,0.456c0.636-0.188,1.118-0.71,1.256-1.358
				l5.832-34.262c0.127-0.6-0.057-1.224-0.491-1.657c-0.434-0.434-1.057-0.619-1.657-0.49l-33.906,6.187
				c-0.649,0.139-1.17,0.621-1.359,1.257c-0.188,0.636-0.013,1.324,0.456,1.793l6.18,6.18L27.533,68.034
				c-0.707,0.707-0.707,1.853,0,2.56l12.799,12.799c0.707,0.706,1.853,0.706,2.56,0l26.577-26.577L76.005,63.352z"/>
		</g>
		<g>
			<path style="fill:#FFFFFF;" d="M82.738,26.04l-33.906,6.188c-0.649,0.138-1.17,0.621-1.358,1.256
				c-0.188,0.636-0.014,1.324,0.456,1.793l6.18,6.18L27.533,68.034c-0.707,0.706-0.707,1.852,0,2.56l5.996,5.996L83.918,26.2
				C83.557,26.02,83.144,25.953,82.738,26.04z"/>
		</g>
	</g>
</g>
<g id="R-Blue" style="display:none;">
	<g style="display:inline;">
		<circle style="fill:#81D2EB;" cx="55" cy="55" r="55"/>
	</g>
	<g style="display:inline;">
		<g>
			<path style="fill:#E1F5FA;" d="M76.002,63.353c0.469,0.469,1.157,0.644,1.793,0.456c0.636-0.188,1.118-0.71,1.256-1.358
				l5.831-34.262c0.127-0.6-0.057-1.224-0.491-1.657s-1.057-0.619-1.657-0.49L48.83,32.227c-0.649,0.139-1.17,0.621-1.359,1.257
				c-0.188,0.636-0.013,1.324,0.456,1.793l6.18,6.18L27.53,68.034c-0.707,0.707-0.707,1.853,0,2.56L40.33,83.393
				c0.707,0.707,1.853,0.707,2.56,0l26.577-26.577L76.002,63.353z"/>
		</g>
		<g>
			<path style="fill:#FFFFFF;" d="M82.735,26.04L48.83,32.228c-0.649,0.138-1.17,0.621-1.358,1.256
				c-0.188,0.636-0.014,1.324,0.456,1.793l6.18,6.18L27.53,68.034c-0.707,0.706-0.707,1.852,0,2.559l5.996,5.996L83.916,26.2
				C83.554,26.021,83.142,25.953,82.735,26.04z"/>
		</g>
	</g>
</g>
<g id="Green" style="display:none;">
	<g style="display:inline;">
		<g>
			<path style="fill:#D7FCF9;" d="M76.005,63.353c0.469,0.469,1.157,0.644,1.793,0.456c0.636-0.188,1.118-0.71,1.256-1.358
				l5.832-34.262c0.127-0.6-0.057-1.224-0.491-1.657c-0.434-0.434-1.057-0.619-1.657-0.49l-33.906,6.187
				c-0.649,0.139-1.17,0.621-1.359,1.257c-0.188,0.636-0.013,1.324,0.456,1.793l6.18,6.18L27.533,68.034
				c-0.707,0.707-0.707,1.853,0,2.56l12.799,12.799c0.707,0.707,1.853,0.707,2.56,0l26.577-26.577L76.005,63.353z"/>
		</g>
		<g>
			<path style="fill:#FFFFFF;" d="M82.738,26.04l-33.906,6.188c-0.649,0.138-1.17,0.621-1.358,1.256
				c-0.188,0.636-0.014,1.324,0.456,1.793l6.18,6.18L27.533,68.034c-0.707,0.706-0.707,1.852,0,2.559l5.996,5.996L83.918,26.2
				C83.557,26.021,83.144,25.953,82.738,26.04z"/>
		</g>
	</g>
</g>
<g id="R-Green" style="display:none;">
	<g style="display:inline;">
		<circle style="fill:#87E0C8;" cx="55" cy="55" r="55"/>
	</g>
	<g style="display:inline;">
		<g>
			<path style="fill:#D7FCF9;" d="M76.002,63.353c0.469,0.469,1.157,0.644,1.793,0.456c0.636-0.188,1.118-0.71,1.256-1.358
				l5.831-34.262c0.127-0.6-0.057-1.224-0.491-1.657s-1.057-0.619-1.657-0.49L48.83,32.227c-0.649,0.139-1.17,0.621-1.359,1.257
				c-0.188,0.636-0.013,1.324,0.456,1.793l6.18,6.18L27.53,68.034c-0.707,0.707-0.707,1.853,0,2.56L40.33,83.393
				c0.707,0.707,1.853,0.707,2.56,0l26.577-26.577L76.002,63.353z"/>
		</g>
		<g>
			<path style="fill:#FFFFFF;" d="M82.735,26.04L48.83,32.228c-0.649,0.138-1.17,0.621-1.358,1.256
				c-0.188,0.636-0.014,1.324,0.456,1.793l6.18,6.18L27.53,68.034c-0.707,0.706-0.707,1.852,0,2.559l5.996,5.996L83.916,26.2
				C83.554,26.021,83.142,25.953,82.735,26.04z"/>
		</g>
	</g>
</g>
<g id="Red" style="display:none;">
	<g style="display:inline;">
		<g>
			<path style="fill:#FFEFED;" d="M76.002,63.352c0.469,0.469,1.157,0.644,1.793,0.456c0.636-0.188,1.118-0.71,1.256-1.358
				l5.831-34.262c0.127-0.6-0.057-1.224-0.491-1.657s-1.057-0.619-1.657-0.49L48.83,32.227c-0.649,0.139-1.17,0.621-1.359,1.257
				c-0.188,0.636-0.013,1.324,0.456,1.793l6.18,6.18L27.53,68.034c-0.707,0.707-0.707,1.853,0,2.56L40.33,83.393
				c0.707,0.706,1.853,0.706,2.56,0l26.577-26.577L76.002,63.352z"/>
		</g>
		<g>
			<path style="fill:#FFFFFF;" d="M82.735,26.04L48.83,32.227c-0.649,0.138-1.17,0.621-1.358,1.256
				c-0.188,0.636-0.014,1.324,0.456,1.793l6.18,6.18L27.53,68.034c-0.707,0.706-0.707,1.852,0,2.56l5.996,5.996L83.916,26.2
				C83.554,26.02,83.142,25.953,82.735,26.04z"/>
		</g>
	</g>
</g>
<g id="R-Red" style="display:none;">
	<g style="display:inline;">
		<circle style="fill:#FABBAF;" cx="55" cy="55" r="55"/>
	</g>
	<g style="display:inline;">
		<g>
			<path style="fill:#FFEFED;" d="M76.002,63.353c0.469,0.469,1.157,0.644,1.793,0.456c0.636-0.188,1.118-0.71,1.256-1.358
				l5.831-34.262c0.127-0.6-0.057-1.224-0.491-1.657s-1.057-0.619-1.657-0.49L48.83,32.227c-0.649,0.139-1.17,0.621-1.359,1.257
				c-0.188,0.636-0.013,1.324,0.456,1.793l6.18,6.18L27.53,68.034c-0.707,0.707-0.707,1.853,0,2.56L40.33,83.393
				c0.707,0.707,1.853,0.707,2.56,0l26.577-26.577L76.002,63.353z"/>
		</g>
		<g>
			<path style="fill:#FFFFFF;" d="M82.735,26.04L48.83,32.228c-0.649,0.138-1.17,0.621-1.358,1.256
				c-0.188,0.636-0.014,1.324,0.456,1.793l6.18,6.18L27.53,68.034c-0.707,0.706-0.707,1.852,0,2.559l5.996,5.996L83.916,26.2
				C83.554,26.021,83.142,25.953,82.735,26.04z"/>
		</g>
	</g>
</g>
<g id="Yellow" style="display:none;">
	<g style="display:inline;">
		<g>
			<path style="fill:#FFF5D9;" d="M76.005,63.352c0.469,0.469,1.157,0.644,1.793,0.456c0.636-0.188,1.118-0.709,1.256-1.358
				l5.832-34.262c0.127-0.6-0.057-1.224-0.491-1.657c-0.434-0.434-1.057-0.619-1.657-0.49l-33.906,6.187
				c-0.649,0.139-1.17,0.621-1.359,1.257c-0.188,0.636-0.013,1.324,0.456,1.793l6.18,6.18L27.533,68.034
				c-0.707,0.707-0.707,1.853,0,2.56l12.799,12.799c0.707,0.706,1.853,0.706,2.56,0l26.577-26.577L76.005,63.352z"/>
		</g>
		<g>
			<path style="fill:#FFFFFF;" d="M82.738,26.04l-33.906,6.188c-0.649,0.138-1.17,0.621-1.358,1.256
				c-0.188,0.636-0.014,1.324,0.456,1.793l6.18,6.18L27.533,68.034c-0.707,0.706-0.707,1.852,0,2.56l5.996,5.996L83.918,26.2
				C83.557,26.02,83.144,25.953,82.738,26.04z"/>
		</g>
	</g>
</g>
<g id="R-Yellow" style="display:none;">
	<g style="display:inline;">
		<circle style="fill:#FFD75E;" cx="55" cy="55" r="55"/>
	</g>
	<g style="display:inline;">
		<g>
			<path style="fill:#FFF5D9;" d="M76.002,63.353c0.469,0.469,1.157,0.644,1.793,0.456c0.636-0.188,1.118-0.71,1.256-1.358
				l5.831-34.262c0.127-0.6-0.057-1.224-0.491-1.657s-1.057-0.619-1.657-0.49L48.83,32.227c-0.649,0.139-1.17,0.621-1.359,1.257
				c-0.188,0.636-0.013,1.324,0.456,1.793l6.18,6.18L27.53,68.034c-0.707,0.707-0.707,1.853,0,2.56L40.33,83.393
				c0.707,0.707,1.853,0.707,2.56,0l26.577-26.577L76.002,63.353z"/>
		</g>
		<g>
			<path style="fill:#FFFFFF;" d="M82.735,26.04L48.83,32.228c-0.649,0.138-1.17,0.621-1.358,1.256
				c-0.188,0.636-0.014,1.324,0.456,1.793l6.18,6.18L27.53,68.034c-0.707,0.706-0.707,1.852,0,2.559l5.996,5.996L83.915,26.2
				C83.554,26.021,83.142,25.953,82.735,26.04z"/>
		</g>
	</g>
</g>
</svg>
