<?xml version="1.0" encoding="iso-8859-1"?>
<!-- Generator: Adobe Illustrator 17.1.0, SVG Export Plug-In . SVG Version: 6.00 Build 0)  -->
<!DOCTYPE svg PUBLIC "-//W3C//DTD SVG 1.0//EN" "http://www.w3.org/TR/2001/REC-SVG-20010904/DTD/svg10.dtd">
<svg version="1.0" xmlns="http://www.w3.org/2000/svg" xmlns:xlink="http://www.w3.org/1999/xlink" x="0px" y="0px" width="110px"
	 height="110px" viewBox="0 0 110 110" style="enable-background:new 0 0 110 110;" xml:space="preserve">
<g id="Artboard">
</g>
<g id="Multicolor">
	<g>
		<circle style="fill:#FABC3D;" cx="55" cy="55" r="55"/>
	</g>
	<g>
		<path style="fill:#F7B4B4;" d="M61.757,67.24c-1.125,1.125-2.651,1.757-4.242,1.757H55h-2.516c-1.591,0-3.116-0.632-4.242-1.757
			L45,63.999v4.498C45,68.497,45,83,55,83s10-14.503,10-14.503v-4.498L61.757,67.24z"/>
		<path style="fill:#FBC8C8;" d="M48.243,67.24L45,63.999v4.498C45,68.497,45,83,55,83V68.997h-2.516
			C50.894,68.997,49.368,68.365,48.243,67.24z"/>
		<g>
			<path style="fill:#FFFFFF;" d="M67,68l-2-1c0,0-1,7-10,7s-9.596-7.058-10-7l-2,1l4,19h16L67,68z"/>
		</g>
		<g>
			<path style="fill:#FFFFFF;" d="M87,87l-4-11c-0.615-1.333-1.698-2.394-3.043-2.983L67,68l-4,19H87z"/>
		</g>
		<g>
			<path style="fill:#FFFFFF;" d="M23,87l4-11c0.615-1.333,1.698-2.394,3.043-2.983L43,68l4,19H23z"/>
		</g>
		<g>
			<path style="fill:#DF2C2C;" d="M57,27h-4v-2c0-1.105,0.895-2,2-2s2,0.895,2,2V27z"/>
		</g>
		<g>
			<polygon style="fill:#40C9E7;" points="46.368,84 47,87 63,87 63.632,84 			"/>
		</g>
		<g>
			<polygon style="fill:#40C9E7;" points="45.526,80 64.474,80 65.105,77 44.895,77 			"/>
		</g>
		<g>
			<path style="fill:#E2E4E5;" d="M45,62v5l-1,4l3,16h-2l-10-8l5-4c0,0-5-4-7-5C38,63,45,62,45,62z"/>
		</g>
		<path style="fill:#FBC8C8;" d="M70,45c-0.423,0-0.741,0.102-1.004,0.243c-0.007-0.767,0.034-1.515,0-2.243H41.063
			c-0.045,0.965-0.062,1.966-0.063,3v12.343c0,1.061,0.422,2.079,1.172,2.829l6.071,6.068c1.125,1.125,2.651,1.757,4.242,1.757H55
			h2.516c1.591,0,3.116-0.632,4.242-1.757l6.071-6.068c0.75-0.75,1.172-1.768,1.172-2.829v-3.53c2.226-0.873,3-4.66,3-7.59
			C72,46.111,71,45,70,45z"/>
		<path style="fill:#FBD7D7;" d="M41.063,43c-0.034,0.728-0.052,1.476-0.059,2.243C40.741,45.102,40.423,45,40,45
			c-1,0-2,1.111-2,2.222c0,2.931,0.774,6.717,3,7.59v3.53c0,1.061,0.422,2.079,1.172,2.829l6.071,6.068
			c1.125,1.125,2.651,1.757,4.242,1.757H55V43H41.063z"/>
		<g>
			<path style="fill:#F79392;" d="M51,58h8c0,0,0,3-4,3S51,58,51,58z"/>
		</g>
		<g>
			<path style="fill:#3E3E3F;" d="M51.994,46.997c0-1.104-0.896-2-2-2c-0.002,0-0.004,0-0.006,0
				c0.001,0.021,0.006,0.041,0.006,0.062c0,1.103-0.892,1.996-1.994,2c0.033,1.075,0.91,1.938,1.994,1.938
				C51.098,48.997,51.994,48.102,51.994,46.997z"/>
		</g>
		<g>
			<path style="fill:#3E3E3F;" d="M61.987,46.997c0-1.104-0.896-2-2-2c-0.002,0-0.004,0-0.006,0
				c0.001,0.021,0.006,0.041,0.006,0.062c0,1.103-0.892,1.996-1.994,2c0.033,1.075,0.91,1.938,1.994,1.938
				C61.092,48.997,61.987,48.102,61.987,46.997z"/>
		</g>
		<path style="fill:#3E3E3F;" d="M55,56c-5-5-6,4-13,0c5,6,13,2,13,2s8,4,13-2C61,60,60,51,55,56z"/>
		<polygon style="fill:#3E3E3F;" points="41,43 41,45 43,49 44,49 44,43 		"/>
		<g>
			<polygon style="fill:#3E3E3F;" points="55,70 53,63 57,63 			"/>
		</g>
		<path style="fill:#3E3E3F;" d="M44,39v4h22v6h1l2-4v-2c2.209,0,4-1.791,4-4H44z"/>
		<g>
			<path style="fill:#DF2C2C;" d="M48.149,38.999c0,0,23.02,0.006,24.851,0c4.591-0.015,9.085-12.037-6.284-11.994
				c-8.716,0.024-15.821-0.021-20.397,0C41,27.03,30.961,38.543,33,43.03C38,54.03,48.205,39.312,48.149,38.999z"/>
		</g>
		<path style="fill:#FA5655;" d="M55,27.007c-3.453-0.005-6.386-0.012-8.681-0.001C41,27.03,30.96,38.543,33,43.03
			c5,11,15.205-3.718,15.149-4.031c0,0,2.967,0,6.851,0.001V27.007z"/>
		<g>
			<path style="fill:#E2E4E5;" d="M65,62v5l1,4l-3,16h2l10-8l-5-4c0,0,5-4,7-5C72,63,65,62,65,62z"/>
		</g>
		<g>
			<g>
				<path style="fill:#3E3E3F;" d="M77.798,66.67c-2.613-6.571,2.375-5.51,8.296-11.67c1.695,6.175-1.867,14.44-4.622,13.253
					C77.798,66.67,77.798,66.67,77.798,66.67z"/>
			</g>
			<g>
				<path style="fill:#FA5655;" d="M86.237,61.52c0.393-2.117,0.429-4.435-0.143-6.52c-2.265,2.356-4.392,3.655-6.011,4.73
					C80.142,62.363,83.16,63.754,86.237,61.52z"/>
			</g>
		</g>
		<g>
			<polygon style="fill:#84462D;" points="73.13,87 81.357,68.203 77.684,66.62 68.764,87 			"/>
		</g>
		<g>
			
				<rect x="77.124" y="67.33" transform="matrix(0.9184 0.3958 -0.3958 0.9184 33.5029 -25.7355)" style="fill:#F3B607;" width="4" height="2"/>
		</g>
	</g>
</g>
</svg>
