<?xml version="1.0" encoding="iso-8859-1"?>
<!-- Generator: Adobe Illustrator 17.1.0, SVG Export Plug-In . SVG Version: 6.00 Build 0)  -->
<!DOCTYPE svg PUBLIC "-//W3C//DTD SVG 1.0//EN" "http://www.w3.org/TR/2001/REC-SVG-20010904/DTD/svg10.dtd">
<svg version="1.0" xmlns="http://www.w3.org/2000/svg" xmlns:xlink="http://www.w3.org/1999/xlink" x="0px" y="0px" width="110px"
	 height="110px" viewBox="0 0 110 110" style="enable-background:new 0 0 110 110;" xml:space="preserve">
<g id="Artboard">
</g>
<g id="Multicolor">
	<circle style="fill:#25B7D3;" cx="55" cy="55" r="55"/>
	<g>
		<g>
			<path style="fill:#E2E4E5;" d="M78.931,77h-5.246c-2.043,0-3.235-2.057-3.529-4.132V61.627l14.828-14.829
				c1.562-1.562,1.562-4.095,0-5.657l-16.97-16.971c-1.562-1.562-4.095-1.562-5.657,0l-16.97,16.971
				c-1.562,1.562-1.562,4.095,0,5.657l16.97,16.971c1.031,1.031,2.481,1.367,3.799,1.037v8.318l0.015,0.124
				C66.743,77.813,69.832,81,73.685,81h5.246c1.779,0,3.225,1.447,3.225,3.226V87h4v-2.774C86.156,80.241,82.915,77,78.931,77z"/>
		</g>
		<g>
			<path style="fill:#F0F1F1;" d="M68.014,24.172c-1.562-1.562-4.095-1.562-5.657,0l-16.971,16.97c-1.562,1.562-1.562,4.095,0,5.657
				l8.451,8.451l22.627-22.627L68.014,24.172z"/>
		</g>
		<g>
			<path style="fill:#3E3E3F;" d="M68.014,69.426l-4.257,4.257c-0.773,0.773-2.027,0.773-2.8,0l-0.028-0.028
				c-0.773-0.773-0.773-2.027,0-2.8l1.428-1.428c0,0-2.121,0.707-2.121-0.707s3.536-3.536,3.536-3.536L68.014,69.426z"/>
		</g>
		<g>
			<path style="fill:#3E3E3F;" d="M39.73,41.142l-4.257,4.257c-0.773,0.773-0.773,2.027,0,2.8l0.028,0.028
				c0.773,0.773,2.027,0.773,2.8,0l1.428-1.428c0,0-0.707,2.121,0.707,2.121c1.414,0,3.536-3.536,3.536-3.536L39.73,41.142z"/>
		</g>
		<g>
			<path style="fill:#3E3E3F;" d="M34.073,70.841l-4.949-6.364l-0.039-0.039c-1.15-1.15-3.015-1.15-4.165,0l-0.042,0.042
				c-1.17,1.169-1.17,3.065,0,4.235l4.953,4.953c0.391,0.391,1.024,0.391,1.414,0L34.073,70.841
				C34.073,70.841,34.073,70.841,34.073,70.841L34.073,70.841z"/>
		</g>
		<g>
			<path style="fill:#3E3E3F;" d="M44.679,80.033l-6.363-4.95l0,0l0,0l-2.828,2.829c-0.391,0.391-0.391,1.024,0,1.415l4.988,4.988
				c1.15,1.15,3.015,1.15,4.165,0l0.042-0.042c1.169-1.169,1.169-3.066,0-4.235L44.679,80.033z"/>
		</g>
		<g>
			<path style="fill:#F0F1F1;" d="M82.156,43.971c4.686-4.687,4.686-12.284,0-16.971c-4.686-4.686-12.284-4.686-16.971,0
				c-2.415,2.415-3.575,5.603-3.501,8.767c-6.203-3.378-14.128-2.452-19.376,2.796l-2.578,2.578l4.243,4.243l0.099-0.099
				c2.969-2.969,6.949-4.298,10.831-4.01L29.124,64.477l4.95,6.364l14.142-9.899l-9.899,14.142l6.364,4.95l23.201-25.779
				c0.288,3.882-1.042,7.862-4.01,10.831l-0.099,0.099l4.243,4.242l2.578-2.578c5.248-5.248,6.174-13.173,2.796-19.376
				C76.554,47.546,79.742,46.385,82.156,43.971z"/>
		</g>
		<g>
			<path style="fill:#FFFFFF;" d="M65.186,27c-2.415,2.415-3.575,5.603-3.501,8.767c-6.203-3.378-14.128-2.452-19.376,2.796
				l-2.578,2.578l4.243,4.243l0.099-0.099c2.969-2.969,6.949-4.298,10.831-4.01L29.124,64.477l4.95,6.364l13.915-9.74l34.133-34.133
				C77.432,22.316,69.861,22.325,65.186,27z"/>
		</g>
		<g>
			<path style="fill:#3E3E3F;" d="M64.978,35.444c0,0,0-3.744,2.496-6.239c3.446-3.446,8.409-2.822,11.854,0.624
				c3.446,3.446,4.07,8.409,0.624,11.854c-2.496,2.496-6.239,2.496-6.239,2.496C69.969,42.099,67.057,39.187,64.978,35.444z"/>
		</g>
		<g>
			<path style="fill:#099686;" d="M58.669,54.238c-0.391,0.391-1.024,0.391-1.414,0l-4.95-4.95c-0.391-0.391-0.391-1.024,0-1.414
				l4.243-4.243c0.391-0.391,1.024-0.391,1.414,0l4.95,4.95c0.391,0.391,0.391,1.024,0,1.414L58.669,54.238z"/>
		</g>
		<g>
			<circle style="fill:#FA5655;" cx="64.326" cy="52.116" r="1.5"/>
		</g>
		<g>
			<circle style="fill:#12B2A0;" cx="61.498" cy="54.945" r="1.5"/>
		</g>
		<g>
			<path style="fill:#12B2A0;" d="M57.962,43.631c-0.391-0.39-1.024-0.39-1.414,0l-4.243,4.243c-0.391,0.391-0.391,1.024,0,1.414
				l3.748,3.748l5.657-5.657L57.962,43.631z"/>
		</g>
		<g>
			<path style="fill:#5B5C5F;" d="M67.474,29.205c-2.496,2.496-2.496,6.239-2.496,6.239c1.032,1.857,2.269,3.509,3.711,4.956
				l10.604-10.604C75.848,26.38,70.908,25.77,67.474,29.205z"/>
		</g>
	</g>
</g>
</svg>
