<?xml version="1.0" encoding="iso-8859-1"?>
<!-- Generator: Adobe Illustrator 17.1.0, SVG Export Plug-In . SVG Version: 6.00 Build 0)  -->
<!DOCTYPE svg PUBLIC "-//W3C//DTD SVG 1.0//EN" "http://www.w3.org/TR/2001/REC-SVG-20010904/DTD/svg10.dtd">
<svg version="1.0" xmlns="http://www.w3.org/2000/svg" xmlns:xlink="http://www.w3.org/1999/xlink" x="0px" y="0px" width="110px"
	 height="110px" viewBox="0 0 110 110" style="enable-background:new 0 0 110 110;" xml:space="preserve">
<g id="Artboard">
</g>
<g id="Multicolor">
	<g>
		<circle style="fill:#25B7D3;" cx="55" cy="55" r="55"/>
	</g>
	<g>
		<g>
			<path style="fill:#FFFFFF;" d="M51.006,87C49.439,86.958,23,87,23,87s1-19,4-21c3.661-2.441,18-4,18-4h20c0,0,14.339,1.559,18,4
				c3,2,4,21,4,21s-26.439-0.042-28.006,0H51.006z"/>
		</g>
		<g>
			<path style="fill:#E2E4E5;" d="M65,62H55H45c0,0-8.854,0.963-14.424,2.561C33.827,66.672,39,70.571,39,74c0,3.335,0,13,0,13h32
				c0,0,0-9.665,0-13c0-3.429,5.173-7.328,8.424-9.439C73.854,62.963,65,62,65,62z"/>
		</g>
		<g>
			<path style="fill:#FFFFFF;" d="M75,63c0,0-2,4-20,4s-20-4-20-4V43c0-11.046,8.954-20,20-20s20,8.954,20,20V63z"/>
		</g>
		<g>
			<path style="fill:#F1F2F2;" d="M75,63V43c0-11.046-8.954-20-20-20v44C73,67,75,63,75,63z"/>
		</g>
		<g>
			<path style="fill:#5B5C5F;" d="M39,39c0,3,0,8,0,8s0,5,0,8s10,4,16,4V47V35C49,35,39,36,39,39z"/>
		</g>
		<g>
			<path style="fill:#3E3E3F;" d="M55,35v12v12c6,0,16-1,16-4s0-8,0-8s0-5,0-8S61,35,55,35z"/>
		</g>
		<g>
			<rect x="50" y="29" style="fill:#FA5655;" width="2" height="2"/>
		</g>
		<g>
			<rect x="54" y="29" style="fill:#CFD3D4;" width="8" height="2"/>
		</g>
		<g>
			<polygon style="fill:#FFFFFF;" points="63,77 47,77 42,87 69,87 			"/>
		</g>
		<g>
			<circle style="fill:#47C4B7;" cx="52" cy="83" r="3"/>
		</g>
		<g>
			<rect x="57" y="80" style="fill:#CFD3D4;" width="1" height="6"/>
		</g>
		<g>
			<rect x="60" y="80" style="fill:#CFD3D4;" width="1" height="6"/>
		</g>
		<g>
			<path style="fill:#E2E4E5;" d="M35,55h-2c-1.105,0-2-0.895-2-2v-8c0-1.105,0.895-2,2-2h2V55z"/>
		</g>
		<g>
			<path style="fill:#E2E4E5;" d="M75,55h2c1.105,0,2-0.895,2-2v-8c0-1.105-0.895-2-2-2h-2V55z"/>
		</g>
		<g>
			<path style="fill:#FA5655;" d="M55,65c-18,0-20-4-20-4v4c0,0,2,4,20,4s20-4,20-4v-4C75,61,73,65,55,65z"/>
		</g>
		<g>
			<rect x="75" y="71" style="fill:#0484AB;" width="5" height="5"/>
		</g>
		<g>
			<path style="fill:#FA5655;" d="M85.096,71H81v2h4.491C85.368,72.307,85.237,71.635,85.096,71z"/>
		</g>
		<g>
			<path style="fill:#FA5655;" d="M85.662,74H81v2h4.96C85.868,75.327,85.768,74.658,85.662,74z"/>
		</g>
		<g>
			<path style="fill:#FA5655;" d="M86.093,77H75v2h11.33C86.258,78.344,86.179,77.674,86.093,77z"/>
		</g>
		<g>
			<path style="fill:#DF2C2C;" d="M75,65v-4c0,0-2,4-20,4v4C73,69,75,65,75,65z"/>
		</g>
		<g>
			<path style="fill:#FFFFFF;" d="M77,43h-2v6h4v-4C79,43.896,78.104,43,77,43z"/>
		</g>
		<g>
			<path style="fill:#FFFFFF;" d="M31,45v4h4v-6h-2C31.896,43,31,43.896,31,45z"/>
		</g>
	</g>
</g>
</svg>
