<?xml version="1.0" encoding="iso-8859-1"?>
<!-- Generator: Adobe Illustrator 17.1.0, SVG Export Plug-In . SVG Version: 6.00 Build 0)  -->
<!DOCTYPE svg PUBLIC "-//W3C//DTD SVG 1.0//EN" "http://www.w3.org/TR/2001/REC-SVG-20010904/DTD/svg10.dtd">
<svg version="1.0" xmlns="http://www.w3.org/2000/svg" xmlns:xlink="http://www.w3.org/1999/xlink" x="0px" y="0px" width="110px"
	 height="110px" viewBox="0 0 110 110" style="enable-background:new 0 0 110 110;" xml:space="preserve">
<g id="Artboard">
</g>
<g id="Multicolor">
	<circle style="fill:#FABC3D;" cx="55" cy="55" r="55"/>
	<g>
		<path style="fill:#0484AB;" d="M87,79c0,4.418-3.582,8-8,8H31c-4.418,0-8-3.582-8-8V31c0-4.418,3.582-8,8-8h48
			c4.418,0,8,3.582,8,8V79z"/>
		<path style="fill:#059BBF;" d="M65.326,23H31c-4.418,0-8,3.582-8,8v34.326L65.326,23z"/>
		<path style="fill:#3E3E3F;" d="M67,54H32c-1.105,0-2-0.895-2-2V32c0-1.105,0.895-2,2-2h35V54z"/>
		<path style="fill:#3E3E3F;" d="M60,63c0,1.65-1.8,3-4,3H34c-2.2,0-4-1.35-4-3s1.8-3,4-3h22C58.2,60,60,61.35,60,63z"/>
		<path style="fill:#F0F1F1;" d="M67,54h12c1.105,0,2-0.895,2-2V32c0-1.105-0.895-2-2-2H67V54z"/>
		<polygon style="fill:#4AC3AF;" points="57.468,81 53.42,64 36.58,64 32.532,81 		"/>
		<path style="fill:#8CE3D4;" d="M53.42,64l4.048,17H32.532l4.048-17H53.42 M55,62H35l-5,21h30L55,62L55,62z"/>
		<g>
			<g>
				<ellipse style="fill:#0D9681;" cx="44.429" cy="71.75" rx="5.429" ry="4.75"/>
			</g>
			<g>
				<path style="fill:#E2E4E5;" d="M48.011,71.812c0,0.2-0.182,0.358-0.411,0.358h-0.11c-0.063,0.373-0.189,0.704-0.378,1
					c-0.087,0.131-0.237,0.249-0.474,0.249c-0.3,0-0.528-0.207-0.528-0.469c0-0.083,0.023-0.166,0.071-0.241
					c0.119-0.193,0.213-0.386,0.268-0.573h-1.199c-0.323,1.048-0.812,1.497-1.696,1.497s-1.452-0.593-1.562-1.462h-0.418
					c-0.229,0-0.41-0.159-0.41-0.358c0-0.2,0.182-0.359,0.41-0.359h0.426c0.071-0.49,0.269-0.952,0.552-1.359
					c0.103-0.145,0.26-0.234,0.473-0.234c0.308,0,0.537,0.207,0.537,0.476c0,0.089-0.04,0.186-0.103,0.269
					c-0.213,0.29-0.363,0.565-0.442,0.883h1.255c0.308-0.993,0.741-1.483,1.68-1.483c0.868,0,1.452,0.579,1.555,1.448H47.6
					C47.829,71.453,48.011,71.611,48.011,71.812z M44.074,72.135h-1.097c0.055,0.324,0.229,0.49,0.513,0.49
					C43.75,72.625,43.924,72.508,44.074,72.135z M45.455,71.487h1.065c-0.055-0.331-0.245-0.476-0.497-0.476
					C45.778,71.011,45.612,71.108,45.455,71.487z"/>
			</g>
		</g>
		<path style="fill:#3E3E3F;" d="M78,42c0,0.552-0.448,1-1,1h-6c-0.552,0-1-0.448-1-1s0.448-1,1-1h6C77.552,41,78,41.448,78,42z"/>
		<path style="fill:#F0F1F1;" d="M69,61c0,0.552-0.448,1-1,1h-1c-0.552,0-1-0.448-1-1v-1c0-0.552,0.448-1,1-1h1c0.552,0,1,0.448,1,1
			V61z"/>
		<path style="fill:#F0F1F1;" d="M75,61c0,0.552-0.448,1-1,1h-1c-0.552,0-1-0.448-1-1v-1c0-0.552,0.448-1,1-1h1c0.552,0,1,0.448,1,1
			V61z"/>
		<path style="fill:#F0F1F1;" d="M81,61c0,0.552-0.448,1-1,1h-1c-0.552,0-1-0.448-1-1v-1c0-0.552,0.448-1,1-1h1c0.552,0,1,0.448,1,1
			V61z"/>
		<path style="fill:#F0F1F1;" d="M69,66c0,0.552-0.448,1-1,1h-1c-0.552,0-1-0.448-1-1v-1c0-0.552,0.448-1,1-1h1c0.552,0,1,0.448,1,1
			V66z"/>
		<path style="fill:#F0F1F1;" d="M75,66c0,0.552-0.448,1-1,1h-1c-0.552,0-1-0.448-1-1v-1c0-0.552,0.448-1,1-1h1c0.552,0,1,0.448,1,1
			V66z"/>
		<path style="fill:#F0F1F1;" d="M81,66c0,0.552-0.448,1-1,1h-1c-0.552,0-1-0.448-1-1v-1c0-0.552,0.448-1,1-1h1c0.552,0,1,0.448,1,1
			V66z"/>
		<path style="fill:#F0F1F1;" d="M69,71c0,0.552-0.448,1-1,1h-1c-0.552,0-1-0.448-1-1v-1c0-0.552,0.448-1,1-1h1c0.552,0,1,0.448,1,1
			V71z"/>
		<path style="fill:#F0F1F1;" d="M81,77c0,0.552-0.448,1-1,1H67c-0.552,0-1-0.448-1-1v-1c0-0.552,0.448-1,1-1h13
			c0.552,0,1,0.448,1,1V77z"/>
		<path style="fill:#F0F1F1;" d="M75,71c0,0.552-0.448,1-1,1h-1c-0.552,0-1-0.448-1-1v-1c0-0.552,0.448-1,1-1h1c0.552,0,1,0.448,1,1
			V71z"/>
		<path style="fill:#F0F1F1;" d="M81,71c0,0.552-0.448,1-1,1h-1c-0.552,0-1-0.448-1-1v-1c0-0.552,0.448-1,1-1h1c0.552,0,1,0.448,1,1
			V71z"/>
		<path style="fill:#5B5C5F;" d="M32,30c-1.104,0-2,0.896-2,2v20c0,1.104,0.896,2,2,2h2.326l24-24H32z"/>
		<g>
			<path style="fill:#FFFFFF;" d="M34.6,45.067l3.25-7.34c0.226-0.506,0.639-0.812,1.199-0.812h0.12c0.56,0,0.959,0.306,1.186,0.812
				l3.25,7.34c0.066,0.146,0.106,0.28,0.106,0.413c0,0.546-0.426,0.986-0.972,0.986c-0.479,0-0.799-0.28-0.986-0.706l-0.626-1.465
				h-4.103l-0.653,1.532c-0.173,0.4-0.52,0.64-0.945,0.64c-0.533,0-0.946-0.426-0.946-0.959C34.479,45.36,34.533,45.213,34.6,45.067
				z M40.368,42.483l-1.292-3.077l-1.292,3.077H40.368z"/>
			<path style="fill:#FFFFFF;" d="M46.498,38.953h-1.972c-0.52,0-0.945-0.426-0.945-0.946s0.426-0.946,0.945-0.946h5.995
				c0.52,0,0.946,0.426,0.946,0.946s-0.426,0.946-0.946,0.946H48.55v6.487c0,0.573-0.453,1.026-1.026,1.026
				c-0.572,0-1.025-0.453-1.025-1.026V38.953z"/>
			<path style="fill:#FFFFFF;" d="M52.961,38.034c0-0.573,0.453-1.026,1.026-1.026h0.226c0.44,0,0.746,0.227,0.933,0.533
				l2.478,4.036l2.491-4.049c0.213-0.346,0.507-0.52,0.919-0.52h0.227c0.573,0,1.026,0.453,1.026,1.026v7.406
				c0,0.573-0.453,1.026-1.026,1.026c-0.56,0-1.012-0.466-1.012-1.026v-4.649l-1.799,2.771c-0.213,0.32-0.479,0.52-0.853,0.52
				s-0.639-0.2-0.853-0.52l-1.771-2.73v4.636c0,0.559-0.453,0.999-1.013,0.999c-0.559,0-0.999-0.44-0.999-0.999V38.034z"/>
		</g>
	</g>
</g>
</svg>
