<?xml version="1.0" encoding="iso-8859-1"?>
<!-- Generator: Adobe Illustrator 17.1.0, SVG Export Plug-In . SVG Version: 6.00 Build 0)  -->
<!DOCTYPE svg PUBLIC "-//W3C//DTD SVG 1.0//EN" "http://www.w3.org/TR/2001/REC-SVG-20010904/DTD/svg10.dtd">
<svg version="1.0" xmlns="http://www.w3.org/2000/svg" xmlns:xlink="http://www.w3.org/1999/xlink" x="0px" y="0px" width="110px"
	 height="110px" viewBox="0 0 110 110" style="enable-background:new 0 0 110 110;" xml:space="preserve">
<g id="Artboard">
</g>
<g id="Multicolor">
	<circle style="fill:#32BEA6;" cx="55" cy="55" r="55"/>
	<g>
		<g>
			<path style="fill:#3E3E3F;" d="M77,67c-5.523,0-10,4.477-10,10s4.477,10,10,10s10-4.477,10-10S82.523,67,77,67z M77,81
				c-2.209,0-4-1.791-4-4s1.791-4,4-4c2.209,0,4,1.791,4,4S79.209,81,77,81z"/>
		</g>
		<g>
			<path style="fill:#3E3E3F;" d="M42.861,75.306c-0.68-4.145-4.022-7.487-8.167-8.167c-6.844-1.123-12.677,4.71-11.555,11.555
				c0.68,4.145,4.023,7.487,8.167,8.167C38.15,87.983,43.983,82.15,42.861,75.306z M33,81c-2.209,0-4-1.791-4-4s1.791-4,4-4
				c2.209,0,4,1.791,4,4S35.209,81,33,81z"/>
		</g>
		<g>
			<path style="fill:#F3B607;" d="M85.356,52.021c-0.26-0.332-0.626-0.538-1.023-0.625c-0.239,0.304-0.776,0.619-1.66,0.943
				C77.787,54.129,71.512,57,65,57c-6.96,0-11.51-4.59-16.66-7.55c-3.665-2.128-6.89-2.902-10.74-2.22
				c-4.406,0.759-9.136,3.48-12.71,6.21C23.67,56.38,23,59.61,23,63c0,0.83,0.04,1.65,0.12,2.47c0.09,0.18,0.24,0.33,0.43,0.43
				c0.34,0.17,0.75,0.13,1.05-0.1c9.109-7.01,23.165-0.132,22.37,12.13c-0.02,0.28,0.08,0.55,0.27,0.75
				c0.19,0.21,0.45,0.32,0.73,0.32h14.06c0.28,0,0.54-0.12,0.73-0.32s0.29-0.47,0.27-0.75C62.497,69.766,68.975,63,77,63
				c0.79,0,1.57,0.07,2.32,0.19c0.86,0.15,1.72-0.29,2.12-1.07l4.105-8.21C85.852,53.296,85.778,52.562,85.356,52.021z"/>
		</g>
		<g>
			<path style="fill:#3E3E3F;" d="M82.673,52.339C77.544,54.218,71.531,57,65,57c-6.96,0-11.51-4.59-16.66-7.55
				C48.332,45.477,94.007,48.187,82.673,52.339z"/>
		</g>
		<path style="fill:#6FDAF1;" d="M37.6,47.23c3.652-0.646,6.746,0.032,10.182,1.917c0.646-2.413,1.618-6.177,2.643-10.612
			c0.143-0.617-0.016-1.266-0.427-1.748c-0.411-0.482-1.026-0.742-1.659-0.698C33.341,37.113,27.651,46.78,24.89,53.44
			C28.464,50.71,33.194,47.989,37.6,47.23z"/>
		<g>
			<path style="fill:#FACB1B;" d="M48.34,49.45c-3.665-2.128-6.89-2.902-10.74-2.22c-4.406,0.759-9.136,3.48-12.71,6.21
				C23.67,56.38,23,59.61,23,63c0,0.83,0.04,1.65,0.12,2.47c0.09,0.18,0.24,0.33,0.43,0.43c0.34,0.17,0.75,0.13,1.05-0.1
				c5.612-4.319,13.099-3.361,17.837,0.876L55.23,53.883C52.871,52.454,50.666,50.787,48.34,49.45z"/>
		</g>
		<g>
			<path style="fill:#5B5C5F;" d="M48.34,49.45c2.414,1.387,4.698,3.128,7.157,4.591l6.52-6.52
				C54.661,47.419,48.337,47.972,48.34,49.45z"/>
		</g>
		<g>
			<circle style="fill:#E2E4E5;" cx="33" cy="77" r="4"/>
		</g>
		<g>
			<circle style="fill:#E2E4E5;" cx="77" cy="77" r="4"/>
		</g>
	</g>
</g>
</svg>
