<?xml version="1.0" encoding="iso-8859-1"?>
<!-- Generator: Adobe Illustrator 17.1.0, SVG Export Plug-In . SVG Version: 6.00 Build 0)  -->
<!DOCTYPE svg PUBLIC "-//W3C//DTD SVG 1.0//EN" "http://www.w3.org/TR/2001/REC-SVG-20010904/DTD/svg10.dtd">
<svg version="1.0" xmlns="http://www.w3.org/2000/svg" xmlns:xlink="http://www.w3.org/1999/xlink" x="0px" y="0px" width="110px"
	 height="110px" viewBox="0 0 110 110" style="enable-background:new 0 0 110 110;" xml:space="preserve">
<g id="Artboard">
</g>
<g id="Multicolor">
	<circle style="fill:#FABC3D;" cx="55" cy="55" r="55"/>
	<g>
		<path style="fill:#692E19;" d="M85.833,78.177C85.671,78.014,62.136,54.168,62,54.354c2.492-3.356,4.184-7.404,5.167-12.274
			l1.928-1.921l1.508,1.515c0.78,0.783,2.046,0.785,2.828,0.005l0.708-0.706c0.782-0.78,0.785-2.046,0.005-2.829L60.026,23.966
			c-0.78-0.782-2.046-0.785-2.828-0.005l-0.708,0.706c-0.782,0.78-0.785,2.046-0.005,2.829l1.321,1.326l-1.932,1.925
			c-12.575,2.492-20.131,10.021-22.668,22.587l-1.82,1.814l-1.267-1.273c-0.78-0.782-2.046-0.785-2.829-0.005l-0.708,0.706
			c-0.782,0.779-0.785,2.046-0.005,2.828l14.118,14.179c0.78,0.782,2.046,0.785,2.828,0.005l0.708-0.706
			c0.782-0.779,0.785-2.046,0.005-2.828l-5.881-5.907l4.32,4.338l1.824-1.818c4.615-0.915,8.548-2.514,11.811-4.786l23.857,23.942
			c1.559,1.565,4.092,1.569,5.657,0.01c0.054-0.053,0.091-0.116,0.141-0.171l0,0C87.372,82.094,87.339,79.688,85.833,78.177z"/>
		<path style="fill:#692E19;" d="M23,87c0-2.209,1.791-4,4-4h24c2.209,0,4,1.791,4,4H23z"/>
		<path style="fill:#F0F1F1;" d="M51,82c0-2.209-1.791-4-4-4H31c-2.209,0-4,1.791-4,4v1h24V82z"/>
		
			<rect x="54.499" y="34.055" transform="matrix(0.7058 0.7084 -0.7084 0.7058 43.4875 -33.8486)" style="fill:#9C6144;" width="16" height="2.765"/>
		
			<rect x="36.655" y="51.909" transform="matrix(0.7084 -0.7058 0.7058 0.7084 -31.2213 44.2491)" style="fill:#9C6144;" width="2.57" height="16"/>
		<path style="fill:#FFFFFF;" d="M39,78h-8c-2.209,0-4,1.791-4,4v1h12V78z"/>
		<polygon style="fill:#84462D;" points="38.947,59.095 38.947,59.095 33.206,53.333 		"/>
		<path style="fill:#84462D;" d="M55.873,30.746c-12.575,2.492-20.131,10.021-22.668,22.587l5.741,5.762l22.627-22.627
			L55.873,30.746z"/>
		<polygon style="fill:#AF7653;" points="31.385,55.147 37.128,60.914 38.947,59.095 33.206,53.333 		"/>
		
			<rect x="55.663" y="31.246" transform="matrix(-0.7059 -0.7084 0.7084 -0.7059 78.7286 97.9505)" style="fill:#AF7653;" width="8.077" height="2.765"/>
		<path style="fill:#84462D;" d="M57.198,23.961l-0.708,0.706c-0.782,0.78-0.785,2.046-0.005,2.828l7.016,7.046l3.536-3.536
			l-7.01-7.04C59.247,23.183,57.98,23.181,57.198,23.961z"/>
		<path style="fill:#84462D;" d="M30.118,53.874c-0.78-0.782-2.046-0.785-2.829-0.005l-0.708,0.706
			c-0.782,0.78-0.785,2.046-0.005,2.828l7.016,7.046l3.536-3.536L30.118,53.874z"/>
		<path style="fill:#84462D;" d="M39,83H27c-2.209,0-4,1.791-4,4h16V83z"/>
	</g>
</g>
</svg>
