<?xml version="1.0" encoding="iso-8859-1"?>
<!-- Generator: Adobe Illustrator 17.1.0, SVG Export Plug-In . SVG Version: 6.00 Build 0)  -->
<!DOCTYPE svg PUBLIC "-//W3C//DTD SVG 1.0//EN" "http://www.w3.org/TR/2001/REC-SVG-20010904/DTD/svg10.dtd">
<svg version="1.0" xmlns="http://www.w3.org/2000/svg" xmlns:xlink="http://www.w3.org/1999/xlink" x="0px" y="0px" width="110px"
	 height="110px" viewBox="0 0 110 110" style="enable-background:new 0 0 110 110;" xml:space="preserve">
<g id="Artboard">
</g>
<g id="Multicolor">
	<circle style="fill:#FABC3D;" cx="55" cy="55" r="55"/>
	<g>
		<g>
			<path style="fill:#F0F1F1;" d="M59.561,63.619c0,0,0.65-1.879,0.65-5.98c8.14-2.68,17.76-12.39,20.39-20.5
				c3.089,0.656,4.968-0.608,5.97-0.53C89.5,46.507,69.998,66.516,59.561,63.619z"/>
		</g>
		<g>
			<path style="fill:#84462D;" d="M56.347,48.706c-1.35-1.984-2.903-3.886-4.447-5.608C37.931,58.421,17.623,74.889,24.299,81.573
				l6.161,4.378c1.284,1.284,3.78,1.101,4.292-0.642c4.603-15.664,13.163-22.902,23.574-33.313
				C57.751,50.887,57.082,49.786,56.347,48.706z"/>
		</g>
		<g>
			<path style="fill:#9C6144;" d="M51.9,43.098C38.168,58.161,18.488,74.179,23.927,81.126l32.42-32.419
				C54.997,46.722,53.444,44.82,51.9,43.098z"/>
		</g>
		<g>
			<path style="fill:#DF2C2C;" d="M63.047,24.852c-2.22-2.4-5.97-2.48-8.28-0.17l-6.52,6.52c-2.44,2.44-2.172,6.435,0.48,8.551
				c4.485,4.484,10.722,11.563,11.51,17.89c8.14-2.68,17.76-12.39,20.39-20.5C74.767,36.056,66.987,29.104,63.047,24.852z"/>
		</g>
		<g>
			<path style="fill:#FA5655;" d="M63.047,24.853c-2.22-2.4-5.97-2.48-8.28-0.17l-6.52,6.52c-2.444,2.444-2.168,6.439,0.48,8.55
				c3.441,3.441,5.886,6.396,7.625,8.949l15.77-15.77C68.359,30.189,64.404,26.314,63.047,24.853z"/>
		</g>
	</g>
</g>
</svg>
