<?xml version="1.0" encoding="iso-8859-1"?>
<!-- Generator: Adobe Illustrator 17.1.0, SVG Export Plug-In . SVG Version: 6.00 Build 0)  -->
<!DOCTYPE svg PUBLIC "-//W3C//DTD SVG 1.0//EN" "http://www.w3.org/TR/2001/REC-SVG-20010904/DTD/svg10.dtd">
<svg version="1.0" xmlns="http://www.w3.org/2000/svg" xmlns:xlink="http://www.w3.org/1999/xlink" x="0px" y="0px" width="110px"
	 height="110px" viewBox="0 0 110 110" style="enable-background:new 0 0 110 110;" xml:space="preserve">
<g id="Artboard">
</g>
<g id="Multicolor">
	<circle style="fill:#E04F5F;" cx="55" cy="55" r="55"/>
	<g>
		<g>
			<path style="fill:#F3B607;" d="M71,40H59c0.837,6.016,4,7,12,7V40z"/>
		</g>
		<g>
			<path style="fill:#E2E4E5;" d="M77,51h-4c-0.355,0-0.684-0.1-0.973-0.263C72.065,59.857,70.601,79,65,79
				c-10,0-36.083-37.167-39-41c-1.917,8.833,27.037,48,39,48c11.514,0,13.207-22.751,13.035-35.296C77.732,50.888,77.38,51,77,51z"
				/>
		</g>
		<g>
			<path style="fill:#FACB1B;" d="M65,23c-7.732,0-14,6.268-14,14v12c0,1.105,0.895,2,2,2h4c1.468,0,6.583-4.834,2-14
				c0-3.314,2.686-6,6-6s6,2.686,6,6v12c0,1.105,0.895,2,2,2h4c1.105,0,2-0.895,2-2V37C79,29.268,72.732,23,65,23z"/>
		</g>
		<g>
			<circle style="fill:#FFFFFF;" cx="65" cy="81" r="6"/>
		</g>
		<g>
			<circle style="fill:#9E9FA0;" cx="65" cy="81" r="3"/>
		</g>
		<g>
			<path style="fill:#FFFFFF;" d="M26,38c-1.047,4.827,7.123,18.71,16.701,30.311l3.94-3.94C37.074,53.509,27.683,40.211,26,38z"/>
		</g>
		<g>
			<path style="fill:#FBE158;" d="M65,23c-7.732,0-14,6.268-14,14v11.012l8.91-8.91C59.662,38.428,59.365,37.729,59,37
				c0-3.314,2.686-6,6-6c0.883,0,1.719,0.196,2.474,0.538l5.808-5.808C70.961,24.022,68.103,23,65,23z"/>
		</g>
	</g>
</g>
</svg>
