<?xml version="1.0" encoding="iso-8859-1"?>
<!-- Generator: Adobe Illustrator 17.1.0, SVG Export Plug-In . SVG Version: 6.00 Build 0)  -->
<!DOCTYPE svg PUBLIC "-//W3C//DTD SVG 1.0//EN" "http://www.w3.org/TR/2001/REC-SVG-20010904/DTD/svg10.dtd">
<svg version="1.0" xmlns="http://www.w3.org/2000/svg" xmlns:xlink="http://www.w3.org/1999/xlink" x="0px" y="0px" width="110px"
	 height="110px" viewBox="0 0 110 110" style="enable-background:new 0 0 110 110;" xml:space="preserve">
<g id="Artboard">
</g>
<g id="Multicolor">
	<circle style="fill:#FABC3D;" cx="55" cy="55" r="55"/>
	<g>
		<g>
			<path style="fill:#059BBF;" d="M56,23c-7.49,0-14.689,2.596-20.41,7.35C23.228,40.607,25,51.28,25,55h26l19.59-28.49
				C66.22,24.27,61.26,23,56,23z"/>
		</g>
		<g>
			<path style="fill:#21B2D1;" d="M56,23c-7.49,0-14.689,2.596-20.41,7.35C23.228,40.607,25,51.28,25,55h5.397l31.462-31.462
				C59.96,23.186,58.002,23,56,23z"/>
		</g>
		<g>
			<polygon style="fill:#0484AB;" points="25,55 74.5,55 66.687,75 36.062,75 			"/>
		</g>
		<g>
			<path style="fill:#21B2D1;" d="M51,23.39V55L35.59,30.35C39.91,26.76,45.2,24.3,51,23.39z"/>
		</g>
		<g>
			<path style="fill:#21B2D1;" d="M25,55h26L26.218,43.237C24.429,48.506,25,52.881,25,55z"/>
		</g>
		<polygon style="fill:#40C9E7;" points="74.494,55 23,55 24,59 72.923,59 		"/>
		<g>
			<g>
				<path style="fill:#FFFFFF;" d="M68,79H36.5c-1.104,0-2-0.896-2-2s0.896-2,2-2h30.137l10.502-26.731
					C77.439,47.503,78.178,47,79,47h6c1.104,0,2,0.896,2,2s-0.896,2-2,2h-4.637L69.861,77.731C69.561,78.497,68.822,79,68,79z"/>
			</g>
		</g>
		<g>
			<circle style="fill:#3E3E3F;" cx="43" cy="81" r="6"/>
		</g>
		<g>
			<circle style="fill:#FFFFFF;" cx="43" cy="81" r="2"/>
		</g>
		<g>
			<circle style="fill:#3E3E3F;" cx="65" cy="81" r="6"/>
		</g>
		<g>
			<circle style="fill:#FFFFFF;" cx="65" cy="81" r="2"/>
		</g>
		<g>
			<path style="fill:#40C9E7;" d="M26.218,43.237C24.429,48.506,25,52.881,25,55h5.397l6.631-6.632L26.218,43.237z"/>
		</g>
		<g>
			<path style="fill:#40C9E7;" d="M51,23.39c-5.8,0.91-11.09,3.37-15.41,6.96l7.485,11.972L51,34.397V23.39z"/>
		</g>
		<g>
			<polygon style="fill:#6FDAF1;" points="23,55 24,59 26.397,59 30.397,55 			"/>
		</g>
	</g>
</g>
</svg>
