<?xml version="1.0" encoding="iso-8859-1"?>
<!-- Generator: Adobe Illustrator 17.1.0, SVG Export Plug-In . SVG Version: 6.00 Build 0)  -->
<!DOCTYPE svg PUBLIC "-//W3C//DTD SVG 1.0//EN" "http://www.w3.org/TR/2001/REC-SVG-20010904/DTD/svg10.dtd">
<svg version="1.0" xmlns="http://www.w3.org/2000/svg" xmlns:xlink="http://www.w3.org/1999/xlink" x="0px" y="0px" width="110px"
	 height="110px" viewBox="0 0 110 110" style="enable-background:new 0 0 110 110;" xml:space="preserve">
<g id="Artboard">
</g>
<g id="Multicolor">
	<circle style="fill:#E04F5F;" cx="55" cy="55" r="55"/>
	<g>
		<g>
			<path style="fill:#F0F1F1;" d="M75,49.984c0,15.725-4.356,37-20,37c-13.72,0-18.14-15.91-19.47-28.62
				c-0.42-3.97-0.53-5.62-0.53-8.38c0-11.6,8.4-19,20-19C66.525,30.984,75,38.316,75,49.984z"/>
		</g>
		<g>
			<path style="fill:#FFFFFF;" d="M55,30.984c-11.6,0-20,7.4-20,19c0,2.76,0.11,4.41,0.53,8.38
				c0.546,5.219,1.615,10.976,3.633,15.951c16.169,3.529,31.737-6.792,35.821-22.741c0.01-0.535,0.016-1.066,0.016-1.59
				C75,38.316,66.525,30.984,55,30.984z"/>
		</g>
		<g>
			<path style="fill:#FBC8C8;" d="M69,48.984c0,6.63-5.72,10-14,10c-8.28,0-14-3.37-14-10c0-8.622,4.746-14,14-14
				C64.241,34.984,69,40.339,69,48.984z"/>
		</g>
		<g>
			<path style="fill:#FBD7D7;" d="M41,48.984c0,6.63,5.72,10,14,10v-24C45.752,34.984,41,40.355,41,48.984z"/>
		</g>
		<g>
			<circle style="fill:#F79392;" cx="55" cy="53" r="5"/>
		</g>
		<g>
			<g>
				<path style="fill:#5B5C5F;" d="M51.553,43.208c-0.377-0.755-1.164-1.224-2.053-1.224s-1.676,0.469-2.053,1.224
					c-0.124,0.248-0.422,0.347-0.671,0.224c-0.247-0.124-0.347-0.424-0.224-0.671c0.548-1.096,1.677-1.776,2.947-1.776
					s2.399,0.681,2.947,1.776c0.123,0.247,0.023,0.547-0.224,0.671C51.971,43.556,51.675,43.451,51.553,43.208z"/>
			</g>
		</g>
		<g>
			<g>
				<path style="fill:#5B5C5F;" d="M62.553,43.208c-0.377-0.755-1.164-1.224-2.053-1.224s-1.676,0.469-2.053,1.224
					c-0.124,0.248-0.423,0.347-0.671,0.224c-0.247-0.124-0.347-0.424-0.224-0.671c0.548-1.096,1.677-1.776,2.947-1.776
					s2.399,0.681,2.947,1.776c0.123,0.247,0.023,0.547-0.224,0.671C62.971,43.556,62.675,43.451,62.553,43.208z"/>
			</g>
		</g>
		<path style="fill:#FACB1B;" d="M68.033,23.191c-0.423-0.249-0.947-0.255-1.376-0.017l-8.386,4.112
			c-0.751-1.081-1.998-1.791-3.413-1.791s-2.662,0.71-3.413,1.791l-8.387-4.112c-0.429-0.238-0.952-0.232-1.375,0.017
			S41,23.895,41,24.386v10.534c0,0.491,0.26,0.945,0.683,1.194s0.946,0.255,1.375,0.017l8.387-4.112
			c0.75,1.081,1.997,1.791,3.413,1.791s2.662-0.711,3.413-1.791l8.386,4.112c0.429,0.239,0.953,0.232,1.376-0.017
			c0.423-0.249,0.683-0.704,0.683-1.194V24.386C68.716,23.895,68.456,23.44,68.033,23.191z"/>
		<g>
			<path style="fill:#F7B4B4;" d="M50,53c0,2.761,2.239,5,5,5V48C52.239,48,50,50.239,50,53z"/>
		</g>
		<g>
			<path style="fill:#FBE158;" d="M55,25.509c-0.048-0.001-0.093-0.014-0.142-0.014c-2.296,0-4.157,1.861-4.157,4.157
				s1.861,4.157,4.157,4.157c0.049,0,0.094-0.013,0.142-0.014V25.509z"/>
		</g>
		<g>
			<circle style="fill:#FA5655;" cx="55" cy="53" r="2"/>
		</g>
	</g>
</g>
</svg>
