<?xml version="1.0" encoding="iso-8859-1"?>
<!-- Generator: Adobe Illustrator 17.1.0, SVG Export Plug-In . SVG Version: 6.00 Build 0)  -->
<!DOCTYPE svg PUBLIC "-//W3C//DTD SVG 1.0//EN" "http://www.w3.org/TR/2001/REC-SVG-20010904/DTD/svg10.dtd">
<svg version="1.0" xmlns="http://www.w3.org/2000/svg" xmlns:xlink="http://www.w3.org/1999/xlink" x="0px" y="0px" width="110px"
	 height="110px" viewBox="0 0 110 110" style="enable-background:new 0 0 110 110;" xml:space="preserve">
<g id="Artboard">
</g>
<g id="Multicolor">
	<circle style="fill:#FABC3D;" cx="55" cy="55" r="55"/>
	<g>
		<g>
			<path style="fill:#FFFFFF;" d="M62.731,23C60,23,58.599,26.952,60,29.054c1.569,2.354,11,4,11,13s-8,12-16,12s-16-3-16-12
				s9.431-10.646,11-13C51.401,26.952,50,23,47.269,23C31,23,23,39.047,23,54.054c0,17.673,14.327,32,32,32
				c17.673,0,32-14.327,32-32C87,39.047,79,23,62.731,23z"/>
		</g>
		<g>
			<path style="fill:#F79392;" d="M70,61.054c0-2.209-1.791-4-4-4c-1.829,0-3.354,1.235-3.831,2.911
				c-2.056-1.205-4.518-1.911-7.169-1.911c-2.292,0-4.442,0.529-6.312,1.45c-0.606-1.439-2.028-2.45-3.688-2.45
				c-2.209,0-4,1.791-4,4c0,1.582,0.927,2.938,2.26,3.586C42.46,66.132,42,67.793,42,69.554c0,6.351,5.82,11.5,13,11.5
				s13-5.149,13-11.5c0-1.641-0.395-3.199-1.095-4.612C68.676,64.531,70,62.951,70,61.054z"/>
		</g>
		<g>
			<path style="fill:#F7B4B4;" d="M48.688,59.504c-0.606-1.439-2.028-2.45-3.688-2.45c-2.209,0-4,1.791-4,4
				c0,1.582,0.927,2.938,2.26,3.586C42.46,66.132,42,67.793,42,69.554c0,6.351,5.82,11.5,13,11.5v-23
				C52.708,58.054,50.558,58.583,48.688,59.504z"/>
		</g>
		<g>
			<path style="fill:#FFFFFF;" d="M65.694,63.023c0.101,0.015,0.201,0.031,0.306,0.031c1.104,0,2-0.896,2-2s-0.896-2-2-2
				s-2,0.896-2,2c0,0.08,0.015,0.155,0.023,0.232C64.643,61.815,65.203,62.395,65.694,63.023z"/>
		</g>
		<g>
			<path style="fill:#FFFFFF;" d="M44.373,62.944c0.719-0.903,1.58-1.709,2.555-2.394c-0.225-0.859-0.999-1.496-1.928-1.496
				c-1.104,0-2,0.896-2,2C43,61.938,43.577,62.679,44.373,62.944z"/>
		</g>
		<path style="fill:#FFFFFF;" d="M61.447,73.159c-0.494-0.247-1.095-0.047-1.342,0.447c-0.283,0.566-1.129,0.947-2.105,0.947
			c-0.876,0-1.625-0.316-1.978-0.789C56.605,73.416,57,72.783,57,72.054c0-1.104-0.896-2-2-2s-2,0.896-2,2
			c0,0.729,0.395,1.362,0.978,1.711c-0.354,0.473-1.102,0.789-1.978,0.789c-0.976,0-1.822-0.381-2.105-0.947
			c-0.247-0.495-0.848-0.695-1.342-0.447c-0.494,0.247-0.694,0.848-0.447,1.342c0.633,1.266,2.125,2.053,3.895,2.053
			c1.181,0,2.239-0.351,3-0.96c0.761,0.61,1.819,0.96,3,0.96c1.769,0,3.261-0.787,3.895-2.053
			C62.142,74.007,61.941,73.406,61.447,73.159z"/>
		<g>
			<path style="fill:#FFFFFF;" d="M50.034,64c-0.381,0-0.733,0.113-1.034,0.301c0.292,0.17,0.498,0.474,0.498,0.837
				c0,0.543-0.44,0.983-0.983,0.983c-0.162,0-0.308-0.048-0.443-0.118c0.02,1.068,0.889,1.929,1.962,1.929
				c1.086,0,1.966-0.88,1.966-1.966C52,64.88,51.12,64,50.034,64z"/>
		</g>
		<g>
			<path style="fill:#FFFFFF;" d="M59.962,64c-0.381,0-0.733,0.113-1.034,0.301c0.292,0.17,0.498,0.474,0.498,0.837
				c0,0.543-0.44,0.983-0.983,0.983c-0.162,0-0.308-0.048-0.443-0.118c0.02,1.068,0.889,1.929,1.962,1.929
				c1.086,0,1.966-0.88,1.966-1.966C61.928,64.88,61.048,64,59.962,64z"/>
		</g>
	</g>
</g>
</svg>
