<?xml version="1.0" encoding="iso-8859-1"?>
<!-- Generator: Adobe Illustrator 17.1.0, SVG Export Plug-In . SVG Version: 6.00 Build 0)  -->
<!DOCTYPE svg PUBLIC "-//W3C//DTD SVG 1.0//EN" "http://www.w3.org/TR/2001/REC-SVG-20010904/DTD/svg10.dtd">
<svg version="1.0" xmlns="http://www.w3.org/2000/svg" xmlns:xlink="http://www.w3.org/1999/xlink" x="0px" y="0px" width="110px"
	 height="110px" viewBox="0 0 110 110" style="enable-background:new 0 0 110 110;" xml:space="preserve">
<g id="Artboard">
</g>
<g id="Multicolor">
	<circle style="fill:#25B7D3;" cx="55" cy="55" r="55"/>
	<g>
		<g>
			<path style="fill:#FFFFFF;" d="M23,57V35c0,0,12-12,32-12s32,12,32,12v22l-16,6H39L23,57z"/>
		</g>
		<g>
			<polygon style="fill:#DF2C2C;" points="35,35 35,59 39,59 39,39 71,39 71,59 75,59 75,35 			"/>
		</g>
		<g>
			<path style="fill:#3E3E3F;" d="M77,61c0,1.105-0.895,2-2,2H35c-1.105,0-2-0.895-2-2s0.895-2,2-2h40C76.105,59,77,59.895,77,61z"
				/>
		</g>
		<g>
			<path style="fill:#E2E4E5;" d="M38,63l6.243,20.97c0.445,1.781,2.045,3.03,3.88,3.03h13.754c1.835,0,3.435-1.249,3.88-3.03L72,63
				H38z M44,70c0-1.657,1.343-3,3-3s3,1.343,3,3s-1.343,3-3,3S44,71.657,44,70z M51,82c-1.657,0-3-1.343-3-3s1.343-3,3-3
				s3,1.343,3,3S52.657,82,51,82z M52,70c0-1.657,1.343-3,3-3s3,1.343,3,3s-1.343,3-3,3S52,71.657,52,70z M59,82
				c-1.657,0-3-1.343-3-3s1.343-3,3-3s3,1.343,3,3S60.657,82,59,82z M63,73c-1.657,0-3-1.343-3-3s1.343-3,3-3s3,1.343,3,3
				S64.657,73,63,73z"/>
		</g>
		<g>
			<path style="fill:#5B5C5F;" d="M54.811,59H35c-1.105,0-2,0.896-2,2s0.895,2,2,2h19.811V59z"/>
		</g>
		<g>
			<path style="fill:#FFFFFF;" d="M54.811,72.981C53.244,72.881,52,71.592,52,70s1.244-2.881,2.811-2.981V63H38l6.242,20.97
				c0.445,1.781,2.045,3.03,3.881,3.03h6.688V72.981z M44,70c0-1.657,1.343-3,3-3c1.657,0,3,1.343,3,3s-1.343,3-3,3
				C45.343,73,44,71.657,44,70z M51,82c-1.657,0-3-1.343-3-3s1.343-3,3-3c1.657,0,3,1.343,3,3S52.657,82,51,82z"/>
		</g>
	</g>
</g>
</svg>
