<?xml version="1.0" encoding="iso-8859-1"?>
<!-- Generator: Adobe Illustrator 17.1.0, SVG Export Plug-In . SVG Version: 6.00 Build 0)  -->
<!DOCTYPE svg PUBLIC "-//W3C//DTD SVG 1.0//EN" "http://www.w3.org/TR/2001/REC-SVG-20010904/DTD/svg10.dtd">
<svg version="1.0" xmlns="http://www.w3.org/2000/svg" xmlns:xlink="http://www.w3.org/1999/xlink" x="0px" y="0px" width="110px"
	 height="110px" viewBox="0 0 110 110" style="enable-background:new 0 0 110 110;" xml:space="preserve">
<g id="Artboard">
</g>
<g id="Multicolor">
	<circle style="fill:#32BEA6;" cx="55" cy="55" r="55"/>
	<g>
		<path style="fill:#FACB1B;" d="M78.975,44.819C78.882,43.789,78.018,43,76.984,43H32.636c-1.034,0-1.898,0.789-1.992,1.819
			l-3.636,40C26.902,85.99,27.825,87,29,87h51.62c1.176,0,2.098-1.011,1.992-2.181L78.975,44.819z"/>
		<path style="fill:#FBE158;" d="M32.637,43c-1.035,0-1.898,0.789-1.992,1.819l-3.637,40c-0.051,0.56,0.136,1.115,0.515,1.53
			c0.182,0.2,0.402,0.355,0.643,0.466L71.98,43H32.637z"/>
		<path style="fill:#5B5C5F;" d="M46.028,45.405c-2.116-0.635-4.346,0.566-4.981,2.682c-0.635,2.116,1.466,9.031,1.466,9.031
			s5.562-4.616,6.196-6.732C49.344,48.27,48.144,46.039,46.028,45.405z M42.088,48.592c0.453-1.511,2.046-2.369,3.558-1.915
			c1.511,0.453,2.369,2.046,1.915,3.558c-0.453,1.511-4.426,4.808-4.426,4.808S41.635,50.103,42.088,48.592z"/>
		<path style="fill:#84462D;" d="M45,49c1.105,0,2-0.895,2-2V35c0-4.411,3.589-8,8-8s8,3.589,8,8v12c0,1.105,0.895,2,2,2
			s2-0.895,2-2V35c0-6.627-5.373-12-12-12s-12,5.373-12,12v12C43,48.105,43.895,49,45,49z"/>
		<path style="fill:#FFFFFF;" d="M47,69c0,1.105-0.895,2-2,2h-4c-1.105,0-2-0.895-2-2V57c0-1.105,0.895-2,2-2h4c1.105,0,2,0.895,2,2
			V69z"/>
	</g>
</g>
</svg>
