<?xml version="1.0" encoding="iso-8859-1"?>
<!-- Generator: Adobe Illustrator 17.1.0, SVG Export Plug-In . SVG Version: 6.00 Build 0)  -->
<!DOCTYPE svg PUBLIC "-//W3C//DTD SVG 1.0//EN" "http://www.w3.org/TR/2001/REC-SVG-20010904/DTD/svg10.dtd">
<svg version="1.0" xmlns="http://www.w3.org/2000/svg" xmlns:xlink="http://www.w3.org/1999/xlink" x="0px" y="0px" width="110px"
	 height="110px" viewBox="0 0 110 110" style="enable-background:new 0 0 110 110;" xml:space="preserve">
<g id="Artboard">
</g>
<g id="Multicolor">
	<circle style="fill:#FA5655;" cx="55" cy="55" r="55"/>
	<g>
		<g>
			<path style="fill:#E2E4E5;" d="M61.604,43h-2v-8c0-3.86-3.14-7-7-7s-7,3.14-7,7v8h-2v-8c0-4.962,4.037-9,9-9s9,4.038,9,9V43z"/>
		</g>
		<path style="fill:#E2E4E5;" d="M36.604,43h-4l-7.571,41.642c-0.106,0.583,0.052,1.184,0.432,1.639C25.845,86.737,26.407,87,27,87
			h17.604L36.604,43z"/>
		<path style="fill:#FFFFFF;" d="M84.175,84.642L76.604,43h-9v-8c0-4.962-4.037-9-9-9s-9,4.038-9,9v8h-13l8,44h37.604
			c0.593,0,1.156-0.263,1.536-0.719C84.123,85.826,84.281,85.226,84.175,84.642z M51.604,35c0-3.86,3.14-7,7-7s7,3.14,7,7v8h-14V35z
			"/>
		<path style="fill:#DF2C2C;" d="M60.601,57.414c-2.499-4.397-9.997-2.827-9.997,5.025c0.155,7.148,9.997,12.562,9.997,12.562
			s9.842-5.414,9.997-12.562C70.598,54.588,63.1,53.018,60.601,57.414z"/>
		<path style="fill:#FA5655;" d="M60.717,57.414c-2.5-4.397-9.998-2.826-9.998,5.025c0.069,3.151,2.02,5.964,4.18,8.126
			L68.725,56.74C66.322,54.214,62.396,54.461,60.717,57.414z"/>
	</g>
</g>
</svg>
