<?xml version="1.0" encoding="iso-8859-1"?>
<!-- Generator: Adobe Illustrator 17.1.0, SVG Export Plug-In . SVG Version: 6.00 Build 0)  -->
<!DOCTYPE svg PUBLIC "-//W3C//DTD SVG 1.0//EN" "http://www.w3.org/TR/2001/REC-SVG-20010904/DTD/svg10.dtd">
<svg version="1.0" xmlns="http://www.w3.org/2000/svg" xmlns:xlink="http://www.w3.org/1999/xlink" x="0px" y="0px" width="110px"
	 height="110px" viewBox="0 0 110 110" style="enable-background:new 0 0 110 110;" xml:space="preserve">
<g id="Artboard">
</g>
<g id="Multicolor">
	<circle style="fill:#32BEA6;" cx="55" cy="55" r="55"/>
	<g>
		<polygon style="fill:#FACB1B;" points="81,33 29,33 23,87 87,87 		"/>
		<rect x="33" y="23" style="fill:#F3B607;" width="44" height="10"/>
		<polygon style="fill:#FBE158;" points="76.704,33 29,33 23.037,86.667 		"/>
		<g>
			<path style="fill:#3E3E3F;" d="M55,58.25c-7.022,0-14.566-5.396-14.982-17.214C39.998,40.469,40.455,40,41.017,40
				c0.54,0,0.98,0.426,1,0.964C42.394,51.458,48.922,56.25,55,56.25s12.606-4.792,12.983-15.286C68.002,40.426,68.444,40,68.982,40
				c0.567,0,1.02,0.469,1,1.036C69.566,52.854,62.022,58.25,55,58.25z"/>
		</g>
		<polygon style="fill:#FBEC9A;" points="40,27 33,23 33,30.818 		"/>
		<polygon style="fill:#F99134;" points="29,33 40,33 40,27 		"/>
		<polygon style="fill:#FBEC9A;" points="77,23 70,27 77,30.818 		"/>
		<polygon style="fill:#F99134;" points="81,33 70,33 70,27 		"/>
	</g>
</g>
</svg>
