<?xml version="1.0" encoding="iso-8859-1"?>
<!-- Generator: Adobe Illustrator 17.1.0, SVG Export Plug-In . SVG Version: 6.00 Build 0)  -->
<!DOCTYPE svg PUBLIC "-//W3C//DTD SVG 1.0//EN" "http://www.w3.org/TR/2001/REC-SVG-20010904/DTD/svg10.dtd">
<svg version="1.0" xmlns="http://www.w3.org/2000/svg" xmlns:xlink="http://www.w3.org/1999/xlink" x="0px" y="0px" width="110px"
	 height="110px" viewBox="0 0 110 110" style="enable-background:new 0 0 110 110;" xml:space="preserve">
<g id="Artboard">
</g>
<g id="Multicolor">
	<circle style="fill:#32BEA6;" cx="55" cy="55" r="55"/>
	<g>
		<g>
			<path style="fill:#FACB1B;" d="M85.916,49.575c0.182-0.606,0.066-1.261-0.311-1.769C85.227,47.299,84.632,47,84,47H25.376
				c-0.632,0-1.227,0.299-1.605,0.806c-0.377,0.507-0.493,1.163-0.311,1.769l10.8,36C34.514,86.421,35.293,87,36.176,87H73.2
				c0.883,0,1.662-0.579,1.916-1.425L85.916,49.575z"/>
		</g>
		<g>
			<path style="fill:#FBE158;" d="M25.376,47c-0.632,0-1.227,0.299-1.605,0.806s-0.493,1.163-0.311,1.769l10.8,36
				c0.08,0.267,0.226,0.493,0.397,0.697L73.93,47H25.376z"/>
		</g>
		<g>
			<path style="fill:#F3B607;" d="M75.116,85.575L77.088,79h-44.8l1.972,6.575C34.514,86.421,35.293,87,36.176,87H73.2
				C74.083,87,74.862,86.421,75.116,85.575z"/>
		</g>
		<g>
			<g>
				<path style="fill:#FFFFFF;" d="M36.389,58.857c-1.06-0.311-1.668-1.421-1.357-2.481l9.485-30.561
					C45.036,24.141,46.584,23,48.337,23h13.1c1.755,0,3.305,1.144,3.822,2.821l9.424,30.558c0.309,1.061-0.301,2.171-1.362,2.479
					c-1.061,0.308-2.171-0.301-2.479-1.362L62.26,29.815C61.741,28.141,60.192,27,58.44,27h-7.111c-1.75,0-3.297,1.138-3.818,2.809
					L38.87,57.5C38.559,58.561,37.447,59.167,36.389,58.857z"/>
			</g>
		</g>
		<g>
			<path style="fill:#FACB1B;" d="M32.288,79l1.972,6.575c0.08,0.267,0.226,0.494,0.397,0.697L41.93,79H32.288z"/>
		</g>
	</g>
</g>
</svg>
