<?xml version="1.0" encoding="iso-8859-1"?>
<!-- Generator: Adobe Illustrator 17.1.0, SVG Export Plug-In . SVG Version: 6.00 Build 0)  -->
<!DOCTYPE svg PUBLIC "-//W3C//DTD SVG 1.0//EN" "http://www.w3.org/TR/2001/REC-SVG-20010904/DTD/svg10.dtd">
<svg version="1.0" xmlns="http://www.w3.org/2000/svg" xmlns:xlink="http://www.w3.org/1999/xlink" x="0px" y="0px" width="110px"
	 height="110px" viewBox="0 0 110 110" style="enable-background:new 0 0 110 110;" xml:space="preserve">
<g id="Artboard">
</g>
<g id="Multicolor">
	<circle style="fill:#25B7D3;" cx="55" cy="55" r="55"/>
	<g>
		<g>
			<path style="fill:#DF2C2C;" d="M75.02,53.364C64.086,64.299,49.564,67.507,46.029,63.971
				c-3.536-3.536-0.328-18.057,10.607-28.991s25.456-14.142,28.991-10.607C89.162,27.909,85.955,42.43,75.02,53.364z"/>
		</g>
		<g>
			<path style="fill:#FA5655;" d="M56.636,34.98c-10.91,10.91-14.126,25.389-10.629,28.965l39.594-39.594
				C82.024,20.853,67.546,24.069,56.636,34.98z"/>
		</g>
		<g>
			<path style="fill:#E2E4E5;" d="M55.928,75.285l-5.657,5.657c-2.34,2.339-6.146,2.339-8.485,0c-2.339-2.34-2.339-6.146,0-8.485
				l7.226-7.226c-1.306-0.188-2.332-0.608-2.983-1.259c-0.651-0.651-1.072-1.678-1.259-2.983l-7.226,7.226
				c-2.339,2.339-6.146,2.339-8.485,0c-2.34-2.34-2.34-6.146,0-8.485l5.657-5.657l2.829,2.828l1.414-12.728L26.23,56.9
				c-3.899,3.899-3.899,10.243,0,14.142c2.801,2.801,6.861,3.579,10.373,2.355c-1.224,3.512-0.447,7.572,2.355,10.373
				c3.899,3.899,10.243,3.899,14.142,0l12.728-12.728L53.1,72.456L55.928,75.285z"/>
		</g>
		<g>
			<circle style="fill:#FACB1B;" cx="75.806" cy="29.194" r="2.5"/>
		</g>
		<g>
			<g>
				<path style="fill:#FBE158;" d="M79.595,48.026c-7.372-3.904-13.69-9.883-18.06-17.282c-1.053,0.785-2.107,1.64-3.125,2.56
					c4.521,7.461,10.951,13.654,18.639,17.89C77.962,50.154,78.81,49.094,79.595,48.026z"/>
			</g>
		</g>
		<g>
			<g>
				<path style="fill:#FBE158;" d="M53.439,38.544c-0.919,1.131-1.754,2.277-2.524,3.429c4.682,6.783,10.682,12.55,17.465,16.872
					c1.167-0.785,2.312-1.648,3.444-2.581C64.63,51.957,58.215,45.875,53.439,38.544z"/>
			</g>
		</g>
		<g>
			<path style="fill:#FBE158;" d="M47.217,48.768c-0.658,1.52-1.188,3.012-1.598,4.426c3.322,4.036,7.251,7.867,11.448,11.109
				c1.428-0.424,2.934-0.969,4.469-1.655C56.1,58.747,51.254,54.05,47.217,48.768z"/>
		</g>
		<g>
			<path style="fill:#FFFFFF;" d="M37.544,68.214c-2.339,2.339-6.146,2.339-8.485,0c-2.34-2.34-2.34-6.146,0-8.485l5.657-5.657
				l2.829,2.828l1.414-12.728L26.23,56.9c-3.899,3.899-3.899,10.243,0,14.142c2.784,2.784,6.81,3.564,10.307,2.373l9.47-9.471
				c-0.638-0.652-1.052-1.667-1.238-2.957L37.544,68.214z"/>
		</g>
		<g>
			<path style="fill:#FBEC9A;" d="M47.217,48.768c-0.658,1.52-1.188,3.012-1.598,4.426c1.862,2.262,3.52,4.011,5.346,5.792
				l2.832-2.832C51.477,53.901,49.399,51.623,47.217,48.768z"/>
		</g>
		<g>
			<path style="fill:#FBEC9A;" d="M53.44,38.543c-0.919,1.131-1.754,2.277-2.524,3.43c2.44,3.535,4.937,6.42,7.836,9.228
				l2.831-2.831C58.528,45.419,55.915,42.343,53.44,38.543z"/>
		</g>
		<g>
			<path style="fill:#FBEC9A;" d="M61.536,30.744c-1.053,0.785-2.107,1.641-3.125,2.56c2.364,3.901,4.96,7.067,8.125,10.112
				l2.817-2.817C66.274,37.65,63.689,34.39,61.536,30.744z"/>
		</g>
	</g>
</g>
</svg>
