<?xml version="1.0" encoding="iso-8859-1"?>
<!-- Generator: Adobe Illustrator 17.1.0, SVG Export Plug-In . SVG Version: 6.00 Build 0)  -->
<!DOCTYPE svg PUBLIC "-//W3C//DTD SVG 1.0//EN" "http://www.w3.org/TR/2001/REC-SVG-20010904/DTD/svg10.dtd">
<svg version="1.0" xmlns="http://www.w3.org/2000/svg" xmlns:xlink="http://www.w3.org/1999/xlink" x="0px" y="0px" width="110px"
	 height="110px" viewBox="0 0 110 110" style="enable-background:new 0 0 110 110;" xml:space="preserve">
<g id="Artboard">
</g>
<g id="Multicolor">
	<circle style="fill:#E04F5F;" cx="55" cy="55" r="55"/>
	<g>
		<path style="fill:#FACB1B;" d="M56,39h-2c-1.094,0-2.117-0.737-3-1.833V71h8V37.167C58.117,38.263,57.094,39,56,39z"/>
		<path style="fill:#3E3E3F;" d="M27.775,58L33,37.971L38.225,58h1.511c0-0.063,0.006-0.125-0.01-0.189l-6-23
			C33.64,34.48,33.341,34.25,33,34.25s-0.64,0.23-0.726,0.561l-6,23c-0.017,0.064-0.011,0.126-0.01,0.189H27.775z"/>
		<path style="fill:#3E3E3F;" d="M71.775,58L77,37.971L82.225,58h1.511c0-0.063,0.006-0.125-0.01-0.189l-6-23
			C77.64,34.48,77.341,34.25,77,34.25s-0.64,0.23-0.726,0.561l-6,23c-0.017,0.064-0.011,0.126-0.01,0.189H71.775z"/>
		<path style="fill:#FACB1B;" d="M87,58c0,4.418-3.582,8-8,8h-4c-4.418,0-8-3.582-8-8H87z"/>
		<path style="fill:#FBE158;" d="M77,58H67c0,4.418,3.582,8,8,8h2V58z"/>
		<path style="fill:#FACB1B;" d="M43,58c0,4.418-3.582,8-8,8h-4c-4.418,0-8-3.582-8-8H43z"/>
		<path style="fill:#FBE158;" d="M33,58H23c0,4.418,3.582,8,8,8h2V58z"/>
		<g>
			<path style="fill:#FBE158;" d="M77,36.886C70.344,33.036,62.736,31,55,31s-15.343,2.035-21.998,5.885
				c-0.956,0.554-2.18,0.226-2.733-0.729c-0.553-0.956-0.227-2.18,0.729-2.732C38.262,29.221,46.562,27,55,27
				s16.739,2.221,24.004,6.424c0.956,0.553,1.282,1.776,0.729,2.732C79.182,37.109,77.96,37.442,77,36.886z"/>
		</g>
		<path style="fill:#F3B607;" d="M59,71h-8c-0.469,16.256-12,7.129-12,16h32C71,78.113,59.463,87.056,59,71z"/>
		<path style="fill:#FACB1B;" d="M51,71c-0.469,16.256-12,7.129-12,16h16V71H51z"/>
		<path style="fill:#FBE158;" d="M54,39c-1.094,0-2.117-0.737-3-1.833V71h4V39H54z"/>
		<path style="fill:#FACB1B;" d="M55,23L55,23l-7,6c0,3.314,2.686,10,6,10h2c3.314,0,6-6.686,6-10L55,23z"/>
		<path style="fill:#F3B607;" d="M55,23v16h1c3.314,0,6-6.686,6-10L55,23z"/>
	</g>
</g>
</svg>
