<?xml version="1.0" encoding="iso-8859-1"?>
<!-- Generator: Adobe Illustrator 17.1.0, SVG Export Plug-In . SVG Version: 6.00 Build 0)  -->
<!DOCTYPE svg PUBLIC "-//W3C//DTD SVG 1.0//EN" "http://www.w3.org/TR/2001/REC-SVG-20010904/DTD/svg10.dtd">
<svg version="1.0" xmlns="http://www.w3.org/2000/svg" xmlns:xlink="http://www.w3.org/1999/xlink" x="0px" y="0px" width="110px"
	 height="110px" viewBox="0 0 110 110" style="enable-background:new 0 0 110 110;" xml:space="preserve">
<g id="Artboard">
</g>
<g id="Multicolor">
	<circle style="fill:#25B7D3;" cx="55" cy="55" r="55"/>
	<g>
		<g>
			<path style="fill:#FACB1B;" d="M55,23.016V71h6.015C63.015,66,82,63,82,45C82,31.304,70,23.355,55,23.016z"/>
		</g>
		<g>
			<path style="fill:#FBE158;" d="M55,23.016V71h-5.985C47.015,66,28,63,28,45C28,31.304,40,23.355,55,23.016z"/>
		</g>
		<g>
			<path style="fill:#84462D;" d="M63,85c0,1.105-0.895,2-2,2H49c-1.105,0-2-0.895-2-2v-6h16V85z"/>
		</g>
		<g>
			<path style="fill:#DF2C2C;" d="M51.015,71c0-8-12-12-12-26c0-20,16-22,16-22s16,2,16,22c0,14-12,18-12,26H51.015z"/>
		</g>
		<g>
			<g>
				<rect x="49" y="71" style="fill:#FFFFFF;" width="2" height="5"/>
			</g>
		</g>
		<g>
			<g>
				<rect x="59" y="71" style="fill:#FFFFFF;" width="2" height="5"/>
			</g>
		</g>
		<g>
			<path style="fill:#9C6144;" d="M65,78c0,0.552-0.448,1-1,1H46c-0.552,0-1-0.448-1-1v-1c0-0.552,0.448-1,1-1h18
				c0.552,0,1,0.448,1,1V78z"/>
		</g>
		<g>
			<path style="fill:#AF7653;" d="M55.015,76H46c-0.552,0-1,0.448-1,1v1c0,0.552,0.448,1,1,1h9.015V76z"/>
		</g>
		<g>
			<path style="fill:#9C6144;" d="M47,79v6c0,1.104,0.896,2,2,2h6.015v-8H47z"/>
		</g>
		<g>
			<path style="fill:#FA5655;" d="M39.015,45c0,14,12,18,12,26h4V23C55.015,23,39.015,25,39.015,45z"/>
		</g>
	</g>
</g>
</svg>
