<?xml version="1.0" encoding="iso-8859-1"?>
<!-- Generator: Adobe Illustrator 17.1.0, SVG Export Plug-In . SVG Version: 6.00 Build 0)  -->
<!DOCTYPE svg PUBLIC "-//W3C//DTD SVG 1.0//EN" "http://www.w3.org/TR/2001/REC-SVG-20010904/DTD/svg10.dtd">
<svg version="1.0" xmlns="http://www.w3.org/2000/svg" xmlns:xlink="http://www.w3.org/1999/xlink" x="0px" y="0px" width="110px"
	 height="110px" viewBox="0 0 110 110" style="enable-background:new 0 0 110 110;" xml:space="preserve">
<g id="Artboard">
</g>
<g id="Multicolor">
	<circle style="fill:#25B7D3;" cx="55" cy="55" r="55"/>
	<g>
		<g>
			<path style="fill:#DF2C2C;" d="M76.34,46.556C76.34,30,67.366,23,54.905,23c-12.462,0-21.436,8.449-21.436,23.556
				c0,12.746,11.178,27.779,20.006,29.308l-1.674,3.348C51.31,80.195,51.807,81,52.907,81h4c1.1,0,1.598-0.805,1.106-1.789
				l-1.676-3.352C65.165,74.287,76.34,58.869,76.34,46.556z"/>
		</g>
		<g>
			<path style="fill:#FA5655;" d="M54.622,23.012c-12.312,0.129-21.153,8.553-21.153,23.543c0,12.746,11.178,27.779,20.006,29.308
				l-1.674,3.348C51.309,80.195,51.807,81,52.907,81h1.715V23.012z"/>
		</g>
		<g>
			<g>
				<path style="fill:#E2E4E5;" d="M58.905,76.718c0,0.55-0.45,1-1,1h-6c-0.55,0-1-0.45-1-1c0-0.55,0.45-1,1-1h6
					C58.455,75.718,58.905,76.168,58.905,76.718z"/>
			</g>
			<g>
				<path style="fill:#FFFFFF;" d="M54.604,75.718h-2.7c-0.55,0-1,0.45-1,1s0.45,1,1,1h2.7V75.718z"/>
			</g>
		</g>
		<g>
			<rect x="53.622" y="81" style="fill:#FFFFFF;" width="2" height="6"/>
		</g>
	</g>
</g>
</svg>
