<?xml version="1.0" encoding="iso-8859-1"?>
<!-- Generator: Adobe Illustrator 17.1.0, SVG Export Plug-In . SVG Version: 6.00 Build 0)  -->
<!DOCTYPE svg PUBLIC "-//W3C//DTD SVG 1.0//EN" "http://www.w3.org/TR/2001/REC-SVG-20010904/DTD/svg10.dtd">
<svg version="1.0" xmlns="http://www.w3.org/2000/svg" xmlns:xlink="http://www.w3.org/1999/xlink" x="0px" y="0px" width="110px"
	 height="110px" viewBox="0 0 110 110" style="enable-background:new 0 0 110 110;" xml:space="preserve">
<g id="Artboard">
</g>
<g id="Multicolor">
	<circle style="fill:#FABC3D;" cx="55" cy="55" r="55"/>
	<g>
		<g>
			<path style="fill:#099686;" d="M46.516,35.377c1.714-1.807,3.846-5.334,3.892-11.784c-5.269,3.705-6.749,8.065-6.061,13.411
				c3.316,0.57,7.16-0.294,9.364-3.135C50.849,33.757,48.248,34.546,46.516,35.377z"/>
		</g>
		<g>
			<path style="fill:#C9F2F8;" d="M34.877,57.485c-0.149-0.597-0.015-1.23,0.364-1.716C35.62,55.284,36.202,55,36.818,55h34.877
				c0.616,0,1.197,0.284,1.576,0.769s0.513,1.118,0.364,1.716L67.013,83.97C66.568,85.751,64.968,87,63.133,87H45.379
				c-1.835,0-3.435-1.249-3.881-3.03L34.877,57.485z"/>
		</g>
		<g>
			<path style="fill:#0C7367;" d="M50.95,58.171c2.177-1.644,5.552-5.391,4.979-12.585c-6.254,5.263-6.823,9.373-6.862,14
				c0,0,4.685,1.832,7.849-2.218C54.618,56.956,52.43,57.499,50.95,58.171z"/>
		</g>
		<g>
			<polygon style="fill:#099686;" points="53.38,72 44.043,35 37.256,36.713 46.161,72 			"/>
		</g>
		<g>
			<polygon style="fill:#099686;" points="60.876,72 73.256,29.685 67.497,28 54.625,72 			"/>
		</g>
		<g>
			<polygon style="fill:#12B2A0;" points="44.043,35 37.256,36.713 41.871,55 49.09,55 			"/>
		</g>
		<g>
			<polygon style="fill:#12B2A0;" points="59.598,55 65.85,55 73.256,29.685 67.497,28 			"/>
		</g>
		<g>
			
				<rect x="44.001" y="62.005" transform="matrix(0.9696 -0.2447 0.2447 0.9696 -13.9723 13.5376)" style="fill:#0C7367;" width="7" height="2"/>
		</g>
		<g>
			
				<rect x="57.549" y="61.434" transform="matrix(0.9598 0.2808 -0.2808 0.9598 19.9667 -14.4897)" style="fill:#0C7367;" width="6" height="2"/>
		</g>
		<g>
			
				<rect x="63.165" y="42.239" transform="matrix(0.9598 0.2808 -0.2808 0.9598 14.8028 -16.8388)" style="fill:#099686;" width="6" height="2"/>
		</g>
		<g>
			<path style="fill:#099686;" d="M71.764,41.879c3.176-0.734,8.982-3.224,11.804-11.691c-13,4-14,12-14,12s4.775,3.354,11,2.236
				C77.213,42.09,73.87,41.772,71.764,41.879z"/>
		</g>
		<g>
			<path style="fill:#099686;" d="M57.1,23.969c0.911,6.816,3.699,10.161,5.707,11.73c-1.881-0.669-4.764-1.209-7.816-0.701
				c3.187,3.188,7.635,2.566,9.315,2.181c-1.109,0.396-3.363,1.46-4.771,3.916c3.983-0.888,5.473-4.126,5.473-4.126
				S66.397,28.895,57.1,23.969z"/>
		</g>
		<g>
			<path style="fill:#099686;" d="M26,37.133c3.868,7.312,8.41,9.934,11.334,10.872c-2.405,0.03-5.883,0.624-9.115,2.47
				c6.189,2.85,12.133-1.914,12.133-1.914C38.083,42.432,34.401,38.26,26,37.133z"/>
		</g>
		<g>
			
				<rect x="40.33" y="47.461" transform="matrix(0.9696 -0.2447 0.2447 0.9696 -10.5252 12.1975)" style="fill:#099686;" width="7" height="2"/>
		</g>
		<g>
			<path style="fill:#12B2A0;" d="M49.495,55h4.372c1.357-2.121,2.4-5.161,2.061-9.414C51.792,49.068,50.149,52.044,49.495,55z"/>
		</g>
		<g>
			<path style="fill:#40C9E7;" d="M43,72l2.397,8.789C45.753,82.095,46.939,83,48.292,83h11.417c1.353,0,2.538-0.905,2.894-2.211
				L65,72H43z"/>
		</g>
	</g>
</g>
</svg>
