<?xml version="1.0" encoding="iso-8859-1"?>
<!-- Generator: Adobe Illustrator 17.1.0, SVG Export Plug-In . SVG Version: 6.00 Build 0)  -->
<!DOCTYPE svg PUBLIC "-//W3C//DTD SVG 1.0//EN" "http://www.w3.org/TR/2001/REC-SVG-20010904/DTD/svg10.dtd">
<svg version="1.0" xmlns="http://www.w3.org/2000/svg" xmlns:xlink="http://www.w3.org/1999/xlink" x="0px" y="0px" width="110px"
	 height="110px" viewBox="0 0 110 110" style="enable-background:new 0 0 110 110;" xml:space="preserve">
<g id="Artboard" style="display:none;">
	
		<rect x="-584.5" y="-546.5" style="display:inline;fill:#808080;stroke:#000000;stroke-miterlimit:10;" width="1392" height="1369"/>
</g>
<g id="R-Multicolor">
	<circle style="fill:#E04F5F;" cx="55" cy="55" r="55"/>
	<g>
		<g>
			<path style="fill:#FBE158;" d="M69,23.775c-8.347-4.174-31.855,8.768-28.83,32.44c2.982,18.954,12.928,27.476,19.217,25.92
				l3.527,4.276c0.351,0.426,0.982,0.487,1.408,0.135l2.314-1.909c0.426-0.352,0.487-0.982,0.135-1.408l-3.305-4.007
				c4.395-5.932-3.579-14.031-5.536-24.798c-2.73-12.81,8.1-21.67,11.07-23.65C72,28.775,71,24.775,69,23.775z"/>
		</g>
		<g>
			<path style="fill:#FCF6C2;" d="M50.218,55.256c17.86-12.768,25.598,5.748,21.927,19.085c-0.293,1.064-1.786,1.137-2.205,0.116
				C66.962,67.182,61.786,55.914,50.218,55.256z"/>
		</g>
		<g>
			<path style="fill:#F3B607;" d="M66.771,83.23l-3.305-4.007c3.861-5.212-1.824-12.097-4.589-20.995
				c-2.365-1.633-5.162-2.737-8.494-2.957c-4.027,1.057-6.974,3.305-9.172,6.106c3.815,15.332,12.49,22.164,18.176,20.758
				l3.527,4.276c0.351,0.426,0.982,0.487,1.408,0.135l2.314-1.909C67.062,84.286,67.123,83.656,66.771,83.23z"/>
		</g>
		<g>
			<path style="fill:#FCF6C2;" d="M50.524,55.227C30.558,46.096,26.49,65.746,32.635,78.14c0.49,0.989,1.97,0.776,2.186-0.306
				C36.359,70.124,39.293,58.076,50.524,55.227z"/>
		</g>
		<g>
			<path style="fill:#FCF6C2;" d="M39.916,52.347l28.722-28.722C60.493,20.178,39.744,31.461,39.916,52.347z"/>
		</g>
	</g>
</g>
<g id="Multicolor" style="display:none;">
	<g style="display:inline;">
		<g>
			<path style="fill:#FBE158;" d="M69,23.775c-8.347-4.174-31.855,8.768-28.83,32.44c2.982,18.954,12.928,27.476,19.217,25.92
				l3.527,4.276c0.351,0.426,0.982,0.487,1.408,0.135l2.314-1.909c0.426-0.352,0.487-0.982,0.135-1.408l-3.305-4.007
				c4.395-5.932-3.579-14.031-5.536-24.798c-2.73-12.81,8.1-21.67,11.07-23.65C72,28.775,71,24.775,69,23.775z"/>
		</g>
		<g>
			<path style="fill:#FCF6C2;" d="M50.218,55.256c17.86-12.768,25.598,5.748,21.927,19.085c-0.293,1.064-1.786,1.137-2.205,0.116
				C66.962,67.182,61.786,55.914,50.218,55.256z"/>
		</g>
		<g>
			<path style="fill:#F3B607;" d="M66.771,83.23l-3.305-4.007c3.861-5.212-1.824-12.097-4.589-20.995
				c-2.365-1.633-5.162-2.737-8.494-2.957c-4.027,1.057-6.974,3.305-9.172,6.106c3.815,15.332,12.49,22.164,18.176,20.758
				l3.527,4.276c0.351,0.426,0.982,0.487,1.408,0.135l2.314-1.909C67.062,84.286,67.123,83.656,66.771,83.23z"/>
		</g>
		<g>
			<path style="fill:#FCF6C2;" d="M50.524,55.227C30.558,46.096,26.49,65.746,32.635,78.14c0.49,0.989,1.97,0.776,2.186-0.306
				C36.359,70.124,39.293,58.076,50.524,55.227z"/>
		</g>
		<g>
			<path style="fill:#FCF6C2;" d="M39.916,52.347l28.722-28.722C60.493,20.178,39.744,31.461,39.916,52.347z"/>
		</g>
	</g>
</g>
<g id="Blue" style="display:none;">
	<g style="display:inline;">
		<g>
			<path style="fill:#E1F5FA;" d="M69,23.775c-8.348-4.174-31.855,8.768-28.83,32.44c2.982,18.955,12.929,27.476,19.217,25.92
				l3.527,4.276c0.352,0.426,0.981,0.487,1.408,0.135l2.314-1.909c0.426-0.352,0.486-0.982,0.135-1.408l-3.305-4.007
				c4.394-5.932-3.579-14.031-5.537-24.798C55.2,41.615,66.03,32.755,69,30.775C72,28.775,71,24.775,69,23.775z"/>
		</g>
		<g>
			<path style="fill:#BBE7F2;" d="M50.218,55.256c17.86-12.768,25.599,5.748,21.928,19.084c-0.293,1.065-1.787,1.138-2.205,0.116
				C66.962,67.182,61.786,55.914,50.218,55.256z"/>
		</g>
		<g>
			<path style="fill:#0081A1;" d="M66.771,83.23l-3.305-4.007c3.86-5.211-1.824-12.097-4.59-20.995
				c-2.365-1.633-5.162-2.737-8.493-2.957c-4.026,1.057-6.974,3.305-9.172,6.106c3.815,15.332,12.489,22.165,18.175,20.758
				l3.527,4.276c0.352,0.426,0.981,0.487,1.408,0.135l2.314-1.909C67.062,84.287,67.123,83.656,66.771,83.23z"/>
		</g>
		<g>
			<path style="fill:#BBE7F2;" d="M50.523,55.227C30.559,46.096,26.49,65.746,32.635,78.14c0.49,0.989,1.97,0.776,2.186-0.306
				C36.359,70.123,39.293,58.077,50.523,55.227z"/>
		</g>
		<g>
			<path style="fill:#FFFFFF;" d="M39.916,52.347l28.722-28.722C60.492,20.178,39.744,31.461,39.916,52.347z"/>
		</g>
	</g>
</g>
<g id="R-Blue" style="display:none;">
	<circle style="display:inline;fill:#81D2EB;" cx="55" cy="55" r="55"/>
	<g style="display:inline;">
		<g>
			<path style="fill:#E1F5FA;" d="M69,23.775c-8.348-4.174-31.855,8.768-28.83,32.44c2.982,18.955,12.929,27.476,19.217,25.92
				l3.527,4.276c0.352,0.426,0.981,0.487,1.408,0.135l2.314-1.909c0.426-0.352,0.486-0.982,0.135-1.408l-3.305-4.007
				c4.394-5.932-3.579-14.031-5.537-24.798C55.2,41.615,66.03,32.755,69,30.775C72,28.775,71,24.775,69,23.775z"/>
		</g>
		<g>
			<path style="fill:#BBE7F2;" d="M50.218,55.256c17.86-12.768,25.599,5.748,21.928,19.084c-0.293,1.064-1.787,1.138-2.205,0.116
				C66.962,67.182,61.786,55.914,50.218,55.256z"/>
		</g>
		<g>
			<path style="fill:#0081A1;" d="M66.771,83.23l-3.305-4.007c3.86-5.211-1.824-12.097-4.59-20.995
				c-2.365-1.633-5.162-2.737-8.493-2.957c-4.026,1.057-6.974,3.305-9.172,6.106c3.815,15.332,12.489,22.165,18.175,20.758
				l3.527,4.276c0.352,0.426,0.981,0.487,1.408,0.135l2.314-1.909C67.062,84.287,67.123,83.656,66.771,83.23z"/>
		</g>
		<g>
			<path style="fill:#BBE7F2;" d="M50.523,55.227C30.559,46.096,26.49,65.746,32.635,78.14c0.49,0.989,1.97,0.776,2.186-0.306
				C36.359,70.123,39.293,58.077,50.523,55.227z"/>
		</g>
		<g>
			<path style="fill:#FFFFFF;" d="M39.916,52.347l28.722-28.722C60.492,20.178,39.744,31.461,39.916,52.347z"/>
		</g>
	</g>
</g>
<g id="Green" style="display:none;">
	<g style="display:inline;">
		<g>
			<path style="fill:#D7FCF9;" d="M69,23.775c-8.348-4.174-31.856,8.768-28.83,32.44c2.982,18.955,12.929,27.476,19.217,25.92
				l3.527,4.276c0.352,0.426,0.981,0.487,1.408,0.135l2.314-1.909c0.426-0.352,0.486-0.982,0.135-1.408l-3.305-4.007
				c4.395-5.932-3.579-14.031-5.537-24.798C55.2,41.615,66.03,32.755,69,30.775C72,28.775,71,24.775,69,23.775z"/>
		</g>
		<g>
			<path style="fill:#AAF0E9;" d="M50.218,55.256c17.86-12.768,25.599,5.748,21.928,19.084c-0.293,1.064-1.787,1.138-2.205,0.116
				C66.962,67.182,61.786,55.914,50.218,55.256z"/>
		</g>
		<g>
			<path style="fill:#009687;" d="M66.771,83.23l-3.305-4.007c3.86-5.211-1.824-12.097-4.59-20.995
				c-2.365-1.633-5.162-2.737-8.493-2.957c-4.026,1.057-6.974,3.305-9.172,6.106c3.815,15.332,12.489,22.165,18.175,20.758
				l3.527,4.276c0.352,0.426,0.981,0.487,1.408,0.135l2.314-1.909C67.062,84.287,67.123,83.656,66.771,83.23z"/>
		</g>
		<g>
			<path style="fill:#AAF0E9;" d="M50.523,55.227C30.559,46.096,26.49,65.746,32.635,78.14c0.49,0.989,1.97,0.776,2.186-0.306
				C36.359,70.123,39.293,58.077,50.523,55.227z"/>
		</g>
		<g>
			<path style="fill:#FFFFFF;" d="M39.916,52.347l28.722-28.722C60.492,20.178,39.744,31.461,39.916,52.347z"/>
		</g>
	</g>
</g>
<g id="R-Green" style="display:none;">
	<circle style="display:inline;fill:#77E0C4;" cx="55" cy="55" r="55"/>
	<g style="display:inline;">
		<g>
			<path style="fill:#D7FCF9;" d="M69,23.775c-8.348-4.174-31.855,8.768-28.83,32.44c2.982,18.955,12.929,27.476,19.217,25.92
				l3.527,4.276c0.351,0.426,0.981,0.487,1.408,0.135l2.314-1.909c0.426-0.352,0.486-0.982,0.135-1.408l-3.305-4.007
				c4.394-5.932-3.579-14.031-5.537-24.798C55.2,41.615,66.03,32.755,69,30.775C72,28.775,71,24.775,69,23.775z"/>
		</g>
		<g>
			<path style="fill:#AAF0E9;" d="M50.218,55.256c17.86-12.768,25.599,5.748,21.928,19.084c-0.293,1.065-1.787,1.138-2.205,0.116
				C66.962,67.182,61.786,55.914,50.218,55.256z"/>
		</g>
		<g>
			<path style="fill:#009687;" d="M66.771,83.23l-3.305-4.007c3.86-5.211-1.824-12.097-4.59-20.995
				c-2.365-1.633-5.162-2.737-8.493-2.957c-4.026,1.057-6.974,3.305-9.172,6.106c3.815,15.332,12.489,22.165,18.175,20.758
				l3.527,4.276c0.351,0.426,0.981,0.487,1.408,0.135l2.314-1.909C67.062,84.287,67.123,83.656,66.771,83.23z"/>
		</g>
		<g>
			<path style="fill:#AAF0E9;" d="M50.523,55.227C30.559,46.096,26.49,65.746,32.635,78.14c0.49,0.989,1.97,0.776,2.186-0.306
				C36.359,70.123,39.293,58.077,50.523,55.227z"/>
		</g>
		<g>
			<path style="fill:#FFFFFF;" d="M39.916,52.347l28.722-28.722C60.492,20.178,39.744,31.461,39.916,52.347z"/>
		</g>
	</g>
</g>
<g id="Red" style="display:none;">
	<g style="display:inline;">
		<g>
			<path style="fill:#FFEFED;" d="M69,23.775c-8.348-4.174-31.856,8.768-28.83,32.44c2.982,18.955,12.929,27.476,19.217,25.92
				l3.527,4.276c0.352,0.426,0.981,0.487,1.408,0.135l2.314-1.909c0.426-0.352,0.486-0.982,0.135-1.408l-3.305-4.007
				c4.395-5.932-3.579-14.031-5.537-24.798C55.2,41.615,66.03,32.755,69,30.775C72,28.775,71,24.775,69,23.775z"/>
		</g>
		<g>
			<path style="fill:#FFD7D4;" d="M50.218,55.256c17.86-12.768,25.599,5.748,21.928,19.084c-0.293,1.064-1.787,1.138-2.205,0.116
				C66.962,67.182,61.786,55.914,50.218,55.256z"/>
		</g>
		<g>
			<path style="fill:#C23023;" d="M66.771,83.23l-3.305-4.007c3.86-5.211-1.824-12.097-4.59-20.995
				c-2.365-1.633-5.162-2.737-8.493-2.957c-4.026,1.057-6.974,3.305-9.172,6.106c3.815,15.332,12.489,22.165,18.175,20.758
				l3.527,4.276c0.352,0.426,0.981,0.487,1.408,0.135l2.314-1.909C67.062,84.287,67.123,83.656,66.771,83.23z"/>
		</g>
		<g>
			<path style="fill:#FFD7D4;" d="M50.523,55.227C30.559,46.096,26.49,65.746,32.635,78.14c0.49,0.989,1.97,0.776,2.186-0.306
				C36.359,70.123,39.293,58.077,50.523,55.227z"/>
		</g>
		<g>
			<path style="fill:#FFFFFF;" d="M39.916,52.347l28.722-28.722C60.492,20.178,39.744,31.461,39.916,52.347z"/>
		</g>
	</g>
</g>
<g id="R-Red" style="display:none;">
	<circle style="display:inline;fill:#FABBAF;" cx="55" cy="55" r="55"/>
	<g style="display:inline;">
		<g>
			<path style="fill:#FFEFED;" d="M69,23.775c-8.348-4.174-31.856,8.768-28.83,32.44c2.982,18.955,12.929,27.476,19.217,25.92
				l3.527,4.276c0.352,0.426,0.981,0.487,1.408,0.135l2.314-1.909c0.426-0.352,0.486-0.982,0.135-1.408l-3.305-4.007
				c4.395-5.932-3.579-14.031-5.537-24.798C55.2,41.615,66.03,32.755,69,30.775C72,28.775,71,24.775,69,23.775z"/>
		</g>
		<g>
			<path style="fill:#FFD7D4;" d="M50.218,55.256c17.86-12.768,25.599,5.748,21.928,19.084c-0.293,1.064-1.787,1.138-2.205,0.116
				C66.962,67.182,61.786,55.914,50.218,55.256z"/>
		</g>
		<g>
			<path style="fill:#C23023;" d="M66.771,83.23l-3.305-4.007c3.86-5.211-1.824-12.097-4.59-20.995
				c-2.365-1.633-5.162-2.737-8.493-2.957c-4.026,1.057-6.974,3.305-9.172,6.106c3.815,15.332,12.489,22.165,18.175,20.758
				l3.527,4.276c0.352,0.426,0.981,0.487,1.408,0.135l2.314-1.909C67.062,84.287,67.123,83.656,66.771,83.23z"/>
		</g>
		<g>
			<path style="fill:#FFD7D4;" d="M50.523,55.227C30.559,46.096,26.49,65.746,32.635,78.14c0.49,0.989,1.97,0.776,2.186-0.306
				C36.359,70.123,39.293,58.077,50.523,55.227z"/>
		</g>
		<g>
			<path style="fill:#FFFFFF;" d="M39.916,52.347l28.722-28.722C60.492,20.178,39.744,31.461,39.916,52.347z"/>
		</g>
	</g>
</g>
<g id="Yellow" style="display:none;">
	<g style="display:inline;">
		<g>
			<path style="fill:#FFF5D9;" d="M69,23.775c-8.348-4.174-31.855,8.768-28.83,32.44c2.982,18.955,12.929,27.476,19.217,25.92
				l3.527,4.276c0.351,0.426,0.981,0.487,1.408,0.135l2.314-1.909c0.426-0.352,0.486-0.982,0.135-1.408l-3.305-4.007
				c4.394-5.932-3.579-14.031-5.537-24.798C55.2,41.615,66.03,32.755,69,30.775C72,28.775,71,24.775,69,23.775z"/>
		</g>
		<g>
			<path style="fill:#FFE9A1;" d="M50.218,55.256c17.86-12.768,25.599,5.748,21.928,19.084c-0.293,1.065-1.787,1.138-2.205,0.116
				C66.962,67.182,61.786,55.914,50.218,55.256z"/>
		</g>
		<g>
			<path style="fill:#E07000;" d="M66.771,83.23l-3.305-4.007c3.86-5.211-1.824-12.097-4.59-20.995
				c-2.365-1.633-5.162-2.737-8.493-2.957c-4.026,1.057-6.974,3.305-9.172,6.106c3.815,15.332,12.489,22.165,18.175,20.758
				l3.527,4.276c0.351,0.426,0.981,0.487,1.408,0.135l2.314-1.909C67.062,84.287,67.123,83.656,66.771,83.23z"/>
		</g>
		<g>
			<path style="fill:#FFE9A1;" d="M50.523,55.227C30.559,46.096,26.49,65.746,32.635,78.14c0.49,0.989,1.97,0.776,2.186-0.306
				C36.359,70.123,39.293,58.077,50.523,55.227z"/>
		</g>
		<g>
			<path style="fill:#FFFFFF;" d="M39.916,52.347l28.722-28.722C60.492,20.178,39.744,31.461,39.916,52.347z"/>
		</g>
	</g>
</g>
<g id="R-Yellow" style="display:none;">
	<circle style="display:inline;fill:#FFD75E;" cx="55" cy="55" r="55"/>
	<g style="display:inline;">
		<g>
			<path style="fill:#FFF5D9;" d="M69,23.775c-8.348-4.174-31.856,8.768-28.83,32.44c2.982,18.955,12.929,27.476,19.217,25.92
				l3.527,4.276c0.352,0.426,0.981,0.487,1.408,0.135l2.314-1.909c0.426-0.352,0.486-0.982,0.135-1.408l-3.305-4.007
				c4.395-5.932-3.579-14.031-5.537-24.798C55.2,41.615,66.03,32.755,69,30.775C72,28.775,71,24.775,69,23.775z"/>
		</g>
		<g>
			<path style="fill:#FFE9A1;" d="M50.218,55.256c17.86-12.768,25.599,5.748,21.928,19.084c-0.293,1.065-1.787,1.138-2.205,0.116
				C66.962,67.182,61.786,55.914,50.218,55.256z"/>
		</g>
		<g>
			<path style="fill:#E07000;" d="M66.771,83.23l-3.305-4.007c3.86-5.211-1.824-12.097-4.59-20.995
				c-2.365-1.633-5.162-2.737-8.493-2.957c-4.026,1.057-6.974,3.305-9.172,6.106c3.815,15.332,12.489,22.165,18.175,20.758
				l3.527,4.276c0.352,0.426,0.981,0.487,1.408,0.135l2.314-1.909C67.062,84.287,67.123,83.656,66.771,83.23z"/>
		</g>
		<g>
			<path style="fill:#FFE9A1;" d="M50.523,55.227C30.559,46.096,26.49,65.746,32.635,78.14c0.49,0.989,1.97,0.776,2.186-0.306
				C36.359,70.123,39.293,58.077,50.523,55.227z"/>
		</g>
		<g>
			<path style="fill:#FFFFFF;" d="M39.916,52.347l28.722-28.722C60.492,20.178,39.744,31.461,39.916,52.347z"/>
		</g>
	</g>
</g>
</svg>
