<?xml version="1.0" encoding="iso-8859-1"?>
<!-- Generator: Adobe Illustrator 17.1.0, SVG Export Plug-In . SVG Version: 6.00 Build 0)  -->
<!DOCTYPE svg PUBLIC "-//W3C//DTD SVG 1.0//EN" "http://www.w3.org/TR/2001/REC-SVG-20010904/DTD/svg10.dtd">
<svg version="1.0" xmlns="http://www.w3.org/2000/svg" xmlns:xlink="http://www.w3.org/1999/xlink" x="0px" y="0px" width="110px"
	 height="110px" viewBox="0 0 110 110" style="enable-background:new 0 0 110 110;" xml:space="preserve">
<g id="Artboard">
</g>
<g id="Multicolor">
	<circle style="fill:#FABC3D;" cx="55" cy="55" r="55"/>
	<g>
		<path style="fill:#4AC3AF;" d="M59.855,23.807c-0.589-0.85-1.755-1.062-2.606-0.474l-17.708,12.26
			c-0.85,0.589-1.062,1.755-0.474,2.606l26.652,38.495c0.589,0.85,1.755,1.062,2.606,0.474l17.708-12.26
			c0.85-0.589,1.062-1.755,0.474-2.606L59.855,23.807z"/>
		<path style="fill:#0D9681;" d="M79.633,62.709c-0.02,1.058,0.316,2.048,0.891,2.836l-9.692,6.715
			c-0.819-1.252-2.226-2.094-3.836-2.125c-1.011-0.02-1.963,0.29-2.741,0.818L43.836,41.45c1.196-0.82,1.981-2.191,2.011-3.745
			c0.02-1.011-0.281-1.954-0.828-2.723l9.711-6.724c0.82,1.196,2.191,1.991,3.754,2.021c1.021,0.02,1.973-0.29,2.751-0.837
			l20.438,29.504C80.468,59.756,79.664,61.136,79.633,62.709z"/>
		<path style="fill:#8CE3D4;" d="M38.358,29.759c-0.985-0.502-2.19-0.11-2.692,0.875l-10.448,20.51
			c-0.502,0.985-0.11,2.19,0.875,2.692L70.68,76.548c0.985,0.502,2.19,0.11,2.692-0.875l10.448-20.51
			c0.502-0.985,0.11-2.19-0.875-2.692L38.358,29.759z"/>
		<path style="fill:#17B198;" d="M76.684,56.338c0.517,1.006,1.335,1.767,2.276,2.217l-5.716,11.231
			c-1.405-0.763-3.156-0.842-4.687-0.055c-0.961,0.494-1.7,1.268-2.165,2.159L32.228,54.478c0.71-1.377,0.754-3.065-0.006-4.543
			c-0.494-0.961-1.254-1.696-2.159-2.142l5.729-11.249c1.378,0.71,3.07,0.763,4.556-0.001c0.97-0.499,1.709-1.272,2.164-2.182
			l34.183,17.403C75.973,53.137,75.915,54.843,76.684,56.338z"/>
		<path style="fill:#8CE3D4;" d="M87,85c0,1.105-0.895,2-2,2H25c-1.105,0-2-0.895-2-2V53c0-1.105,0.895-2,2-2h60
			c1.105,0,2,0.895,2,2V85z"/>
		<path style="fill:#0D9681;" d="M83,62v14c-3.87,0-7,3.13-7,7H34c0-3.87-3.13-7-7-7V62c3.87,0,7-3.13,7-7h42
			C76,58.87,79.13,62,83,62z"/>
		<circle style="fill:#C2F8F0;" cx="75" cy="69" r="3"/>
		<circle style="fill:#0D9681;" cx="35" cy="69" r="3"/>
		<path style="fill:#C2F8F0;" d="M34,83c0-3.87-3.13-7-7-7V62c3.87,0,7-3.13,7-7h35.397l4-4H25c-1.104,0-2,0.896-2,2v32
			c0,1.104,0.896,2,2,2h12.397l4-4H34z"/>
		<path style="fill:#17B198;" d="M27,62v14c3.87,0,7,3.13,7,7h7.397l6.74-6.74C46.209,74.437,45,71.863,45,69
			c0-5.523,4.477-10,10-10c2.862,0,5.437,1.209,7.26,3.137L69.397,55H34C34,58.87,30.87,62,27,62z M38,69c0,1.657-1.343,3-3,3
			s-3-1.343-3-3s1.343-3,3-3S38,67.343,38,69z"/>
		<circle style="fill:#C2F8F0;" cx="55" cy="69" r="10"/>
		<path style="fill:#17B198;" d="M54.986,63.827c0.348,0,0.624,0.277,0.624,0.624v0.168c0.648,0.096,1.225,0.288,1.741,0.577
			c0.228,0.132,0.432,0.36,0.432,0.72c0,0.456-0.36,0.805-0.816,0.805c-0.144,0-0.288-0.036-0.42-0.108
			c-0.336-0.18-0.673-0.324-0.996-0.408v1.825c1.825,0.492,2.605,1.237,2.605,2.581c0,1.345-1.032,2.209-2.545,2.377v0.637
			c0,0.348-0.276,0.624-0.624,0.624s-0.624-0.277-0.624-0.624v-0.649c-0.852-0.108-1.657-0.408-2.365-0.84
			c-0.252-0.156-0.408-0.396-0.408-0.72c0-0.468,0.36-0.817,0.828-0.817c0.156,0,0.324,0.06,0.468,0.156
			c0.504,0.324,0.984,0.552,1.537,0.672v-1.909c-1.729-0.468-2.581-1.128-2.581-2.557c0-1.321,1.009-2.21,2.521-2.366v-0.144
			C54.361,64.104,54.638,63.827,54.986,63.827z M54.422,67.718v-1.621c-0.576,0.084-0.829,0.372-0.829,0.756
			C53.593,67.225,53.761,67.477,54.422,67.718z M55.55,69.818v1.669c0.564-0.084,0.852-0.349,0.852-0.781
			C56.403,70.311,56.199,70.046,55.55,69.818z"/>
		<path style="fill:#FFFFFF;" d="M51.996,72.137c-0.252-0.156-0.408-0.396-0.408-0.72c0-0.468,0.359-0.815,0.827-0.815
			c0.156,0,0.324,0.06,0.468,0.156c0.164,0.105,0.326,0.184,0.488,0.269l1.047-1.047v-0.457c-1.727-0.468-2.579-1.127-2.579-2.555
			c0-1.319,1.008-2.207,2.519-2.363v-0.144c0-0.348,0.275-0.624,0.624-0.624c0.348,0,0.624,0.276,0.624,0.624v0.168
			c0.647,0.096,1.223,0.288,1.739,0.575c0.228,0.132,0.432,0.36,0.432,0.72c0,0.456-0.36,0.804-0.815,0.804
			c-0.144,0-0.288-0.036-0.42-0.108c-0.336-0.18-0.672-0.324-0.996-0.408v1.823c0.224,0.06,0.431,0.125,0.624,0.193l6.091-6.091
			C60.437,60.209,57.862,59,55,59c-5.523,0-10,4.477-10,10c0,2.863,1.209,5.437,3.137,7.26l4.03-4.03
			C52.11,72.198,52.051,72.17,51.996,72.137z"/>
		<circle style="fill:#FFFFFF;" cx="35" cy="69" r="3"/>
		<path style="fill:#FFFFFF;" d="M54.418,66.11v1.612c-0.661-0.234-0.827-0.496-0.827-0.868S53.839,66.192,54.418,66.11z"/>
	</g>
</g>
</svg>
