<?xml version="1.0" encoding="iso-8859-1"?>
<!-- Generator: Adobe Illustrator 17.1.0, SVG Export Plug-In . SVG Version: 6.00 Build 0)  -->
<!DOCTYPE svg PUBLIC "-//W3C//DTD SVG 1.0//EN" "http://www.w3.org/TR/2001/REC-SVG-20010904/DTD/svg10.dtd">
<svg version="1.0" xmlns="http://www.w3.org/2000/svg" xmlns:xlink="http://www.w3.org/1999/xlink" x="0px" y="0px" width="110px"
	 height="110px" viewBox="0 0 110 110" style="enable-background:new 0 0 110 110;" xml:space="preserve">
<g id="Artboard">
</g>
<g id="Multicolor">
	<circle style="fill:#25B7D3;" cx="55" cy="54.98" r="55"/>
	<g>
		<path style="fill:#FFFFFF;" d="M87,50.98v-4l-32-20l-32,20v4h8v28h-4v4h56v-4h-4v-28H87z M43,78.98v-28h6v28H43z M61,78.98v-28h6
			v28H61z"/>
		<rect x="35" y="50.98" style="fill:#CFD3D4;" width="4" height="28"/>
		<polygon style="fill:#E2E4E5;" points="35,61.574 35,50.98 39,50.98 39,65.574 		"/>
		<rect x="53" y="50.98" style="fill:#CFD3D4;" width="4" height="28"/>
		<polygon style="fill:#E2E4E5;" points="53,61.574 53,50.98 57,50.98 57,65.574 		"/>
		<rect x="71" y="50.98" style="fill:#CFD3D4;" width="4" height="28"/>
		<polygon style="fill:#E2E4E5;" points="71,61.574 71,50.98 75,50.98 75,65.574 		"/>
		<rect x="23" y="82.98" style="fill:#E2E4E5;" width="64" height="4"/>
		<polygon style="fill:#E2E4E5;" points="55,32.98 36,44.98 55,44.98 		"/>
		<polygon style="fill:#E2E4E5;" points="55,32.98 74,44.98 55,44.98 		"/>
	</g>
</g>
</svg>
