<?xml version="1.0" encoding="iso-8859-1"?>
<!-- Generator: Adobe Illustrator 17.1.0, SVG Export Plug-In . SVG Version: 6.00 Build 0)  -->
<!DOCTYPE svg PUBLIC "-//W3C//DTD SVG 1.0//EN" "http://www.w3.org/TR/2001/REC-SVG-20010904/DTD/svg10.dtd">
<svg version="1.0" xmlns="http://www.w3.org/2000/svg" xmlns:xlink="http://www.w3.org/1999/xlink" x="0px" y="0px" width="110px"
	 height="110px" viewBox="0 0 110 110" style="enable-background:new 0 0 110 110;" xml:space="preserve">
<g id="Artboard">
</g>
<g id="Multicolor">
	<circle style="fill:#FABC3D;" cx="55" cy="55" r="55"/>
	<g>
		<path style="fill:#FA5655;" d="M60.059,46.722c2.625,3.468,3.786,5.243,4.475,10.254c0.473,3.439,4.639,0.953,5.733,0.235
			c-1.257-3.953-3.064-7.565-5.558-10.755L60.059,46.722z"/>
		<rect x="23" y="59.03" style="fill:#3E3E3F;" width="1" height="20"/>
		<rect x="32" y="59.03" style="fill:#3E3E3F;" width="1" height="20"/>
		<rect x="35" y="59.03" style="fill:#3E3E3F;" width="1" height="20"/>
		<rect x="44" y="59.03" style="fill:#3E3E3F;" width="1" height="20"/>
		<rect x="47" y="59.03" style="fill:#3E3E3F;" width="1" height="20"/>
		<rect x="50" y="59.03" style="fill:#3E3E3F;" width="1" height="20"/>
		<rect x="27" y="59.03" style="fill:#3E3E3F;" width="4" height="20"/>
		<rect x="39" y="59.03" style="fill:#3E3E3F;" width="4" height="20"/>
		<rect x="53" y="59.03" style="fill:#3E3E3F;" width="4" height="20"/>
		<g>
			<path style="fill:#CFD3D4;" d="M86.533,75.03c0.021-11.23-1.014-22.292-3.192-33.17c-0.007,0.008-0.007,0.009-0.014,0.017
				c0.555-0.694,3.206-4.188,3.206-6.847c0-2.5-3.21-8.155-6-9c-7.22-2.17-19.65-2.77-26-2.93c-2.45-0.07-4-0.07-4-0.07
				c-0.46,0.46-0.93,0.97-1.39,1.51c-0.001,0.001-0.002,0.002-0.002,0.003c0.001-0.001,0.002-0.002,0.003-0.003
				c2.08,2.57,3.39,6.31,3.39,10.49s-1.31,7.92-3.39,10.49c0,0-0.001-0.001-0.001-0.001c0,0,0.001,0,0.001,0.001
				c0.46,0.54,0.93,1.05,1.39,1.51c0,0,6.645-0.001,14.187-0.575c-0.003,0-0.007,0-0.011,0.001
				c5.917,7.57,8.015,17.499,7.893,28.798c-4.78,0.582-6.663,2.391-6.068,7.776C67.533,92.085,90.533,84.03,86.533,75.03z"/>
			<rect x="42.533" y="35.03" style="fill:#CFD3D4;" width="0.001" height="0"/>
		</g>
		<path style="fill:#3E3E3F;" d="M52.533,35.03c0,4.18-1.31,7.92-3.39,10.49c-2.2-2.59-6.61-6.436-6.61-10.49s4.41-7.9,6.61-10.49
			C51.223,27.11,52.533,30.85,52.533,35.03z"/>
		<path style="fill:#FFFFFF;" d="M86.167,37h-9.58c-12.1,0-21.92,4.44-22,9.93c6.35-0.16,18.78-0.76,26-2.93
			C82.767,43.34,85.207,39.74,86.167,37z"/>
		<path style="fill:#FFFFFF;" d="M66.533,83.03c-1-9.054,5-8,20-8C90.533,84.03,67.533,92.085,66.533,83.03z"/>
		<path style="fill:#E2E4E5;" d="M80.533,26.03c-7.22-2.17-19.65-2.77-26-2.93c-2.45-0.07-4-0.07-4-0.07
			c-0.46,0.46-0.93,0.97-1.39,1.51c2.075,2.564,3.383,6.292,3.389,10.46h33.999C86.507,32.485,83.312,26.872,80.533,26.03z"/>
		<path style="fill:#5B5C5F;" d="M49.143,24.54c-2.194,2.584-6.585,6.417-6.608,10.46h9.997
			C52.526,30.832,51.218,27.104,49.143,24.54z"/>
		<path style="fill:#FFFFFF;" d="M86.113,33.03h-9.58c-12.1,0-21.92-4.44-22-9.93c6.35,0.16,18.78,0.76,26,2.93
			C82.713,26.69,85.153,30.29,86.113,33.03z"/>
	</g>
</g>
</svg>
