<?xml version="1.0" encoding="iso-8859-1"?>
<!-- Generator: Adobe Illustrator 17.1.0, SVG Export Plug-In . SVG Version: 6.00 Build 0)  -->
<!DOCTYPE svg PUBLIC "-//W3C//DTD SVG 1.0//EN" "http://www.w3.org/TR/2001/REC-SVG-20010904/DTD/svg10.dtd">
<svg version="1.0" xmlns="http://www.w3.org/2000/svg" xmlns:xlink="http://www.w3.org/1999/xlink" x="0px" y="0px" width="110px"
	 height="110px" viewBox="0 0 110 110" style="enable-background:new 0 0 110 110;" xml:space="preserve">
<g id="Artboard">
</g>
<g id="Multicolor">
	<g>
		<circle style="fill:#FABC3D;" cx="55" cy="55" r="55"/>
	</g>
	<g>
		<path style="fill:#FBC8C8;" d="M70,45.036c-0.348,0-0.694,0-1,0V45c-0.003-1.721-0.044-3.403-0.196-5c-5.457,0-13.831,0-13.831,0
			s-8.319,0-13.776,0c-0.152,1.597-0.193,3.279-0.196,5v8l4,10l5.105,3.995C50.674,67.634,51.489,68,52.345,68H55h2.655
			c0.856,0,1.671-0.366,2.24-1.005L65,63l3.193-7.982C71.039,54.827,72,50.517,72,47.258C72,46.147,71,45.036,70,45.036z"/>
		<g>
			<path style="fill:#3E3E3F;" d="M83,76c-0.615-1.333-1.698-2.395-3.043-2.983L65,69H55H45l-14.957,4.017
				C28.698,73.605,27.615,74.667,27,76l-4,11h32h32L83,76z"/>
		</g>
		<path style="fill:#F7B4B4;" d="M57.655,68H55h-2.655c-0.856,0-1.671-0.366-2.24-1.005L45,63v11c0,0,2,4,10,4s10-4,10-4V63
			l-5.105,3.995C59.326,67.634,58.511,68,57.655,68z"/>
		<path style="fill:#FBC8C8;" d="M50.105,66.995L45,63v11c0,0,2,4,10,4V68h-2.655C51.489,68,50.674,67.634,50.105,66.995z"/>
		<path style="fill:#099686;" d="M75.553,82.105C75.214,81.428,74.521,81,73.764,81h-1.937L70,70.036l-4-1L66.92,81H55H43.08
			L44,69.036l-4,1L38.173,81h-1.937c-0.758,0-1.45,0.428-1.789,1.105L32,87h23h23L75.553,82.105z"/>
		<path style="fill:#FBD7D7;" d="M54.973,40c0,0-8.319,0-13.776,0c-0.152,1.597-0.193,3.279-0.196,5v0.036c-0.306,0-0.652,0-1,0
			c-1,0-2,1.111-2,2.222c0,3.259,0.961,7.568,3.807,7.76L45,63l5.105,3.996C50.674,67.635,51.489,68,52.345,68H55V40
			C54.995,40,54.973,40,54.973,40z"/>
		<g>
			<path style="fill:#3E3E3F;" d="M52,47.036c0-1.104-0.896-2-2-2c-0.002,0-0.004,0-0.006,0C49.995,45.058,50,45.078,50,45.099
				c0,1.103-0.892,1.996-1.994,2c0.033,1.075,0.91,1.938,1.994,1.938C51.104,49.036,52,48.141,52,47.036z"/>
		</g>
		<g>
			<path style="fill:#3E3E3F;" d="M61.994,47.036c0-1.104-0.896-2-2-2c-0.002,0-0.004,0-0.006,0
				c0.001,0.021,0.006,0.041,0.006,0.062c0,1.103-0.892,1.996-1.994,2c0.033,1.075,0.91,1.938,1.994,1.938
				C61.098,49.036,61.994,48.141,61.994,47.036z"/>
		</g>
		<g>
			<path style="fill:#F79392;" d="M50,57.033h10c0,0,0,3-5,3S50,57.033,50,57.033z"/>
		</g>
		<g>
			<path style="fill:#9C6144;" d="M43,36v16h-2v-3.172c0-1.811,0-2.792-2-3.792V40C39,37.791,40.791,36,43,36z"/>
		</g>
		<g>
			<path style="fill:#9C6144;" d="M67,36v16h2v-3.172c0-1.811,0-2.792,2-3.792V40C71,37.791,69.209,36,67,36z"/>
		</g>
		<path style="fill:#3E3E3F;" d="M56.957,24.078c0.004-0.026,0.016-0.051,0.016-0.078c0-0.552-0.896-1-2-1s-2,0.448-2,1
			c0,0.027,0.012,0.052,0.016,0.078c-5.779,0.452-13.462,3.177-13.987,14.653C38.97,39.421,39.521,40,40.213,40
			c5.373,0,14.76,0,14.76,0s9.388,0,14.76,0c0.691,0,1.243-0.579,1.211-1.269C70.419,27.255,62.736,24.53,56.957,24.078z"/>
		<g>
			<circle style="fill:#12B2A0;" cx="54.973" cy="32" r="3"/>
		</g>
		<g>
			<path style="fill:#FFFFFF;" d="M54.973,29c1.657,0,3,1.343,3,3s-1.343,3-3,3s-3-1.343-3-3S53.316,29,54.973,29 M54.973,28
				c-2.206,0-4,1.794-4,4s1.794,4,4,4s4-1.794,4-4S57.178,28,54.973,28L54.973,28z"/>
		</g>
		<path style="fill:#5B5C5F;" d="M54.973,37.355c-8.169,0.064-14.169,2.71-14,2.645c1,2,1,7,4,5.355c1.24-0.68,5-3,10-3
			s8.76,2.32,10,3c3,1.645,3-3.355,4-5.355C69.142,40.066,63.142,37.419,54.973,37.355z"/>
	</g>
</g>
</svg>
