<?xml version="1.0" encoding="iso-8859-1"?>
<!-- Generator: Adobe Illustrator 17.1.0, SVG Export Plug-In . SVG Version: 6.00 Build 0)  -->
<!DOCTYPE svg PUBLIC "-//W3C//DTD SVG 1.0//EN" "http://www.w3.org/TR/2001/REC-SVG-20010904/DTD/svg10.dtd">
<svg version="1.0" xmlns="http://www.w3.org/2000/svg" xmlns:xlink="http://www.w3.org/1999/xlink" x="0px" y="0px" width="110px"
	 height="110px" viewBox="0 0 110 110" style="enable-background:new 0 0 110 110;" xml:space="preserve">
<g id="Artboard">
</g>
<g id="Multicolor">
	<g>
		<circle style="fill:#E04F5F;" cx="55" cy="55" r="55"/>
	</g>
	<g>
		<path style="fill:#F99134;" d="M70.999,39.731l-0.057,0.014C70.965,40.429,70.419,41,69.733,41c-1.111,0-2.397,0-3.733,0
			l-0.235,4.588L67,53l2-8c0.368,0,0.723,0,1,0c1,0,2,1.111,2,2.222c0,3.091-0.864,7.13-4.178,7.703
			c-0.71,2.649-1.709,4.807-2.874,6.589L64.513,70H65l10.861,2.356L70.999,39.731z"/>
		<path style="fill:#FBC8C8;" d="M70,45c-0.277,0-0.632,0-1,0l-2,8l-1.054-6.324c-0.285-0.02-0.606-0.119-0.973-0.32
			c-1.24-0.68-5-3-10-3s-8.76,2.32-10,3c-0.345,0.189-0.646,0.281-0.917,0.309L43,53l-2-8c-0.368,0-0.723,0-1,0
			c-1,0-2,1.111-2,2.222c0,3.091,0.864,7.13,4.178,7.703C44.62,64.027,50.396,67.465,55,69c4.604-1.535,10.38-4.973,12.822-14.075
			C71.136,54.353,72,50.313,72,47.222C72,46.111,71,45,70,45z"/>
		<path style="fill:#3E3E3F;" d="M83.409,77.663c-0.889-2.311-2.797-4.08-5.168-4.791L65,70H55H45l-13.241,2.872
			c-2.371,0.711-4.279,2.48-5.168,4.791L23,87h32h32L83.409,77.663z"/>
		<path style="fill:#F7B4B4;" d="M55,69v18h2l8-17v-8.567C62.159,65.829,58.284,67.905,55,69z"/>
		<path style="fill:#FBC8C8;" d="M45,61.433V70l8,17h2V69C51.716,67.905,47.841,65.829,45,61.433z"/>
		<path style="fill:#F99134;" d="M42.178,54.925C38.864,54.353,38,50.313,38,47.222C38,46.111,39,45,40,45c0.277,0,0.632,0,1,0l2,8
			l1.235-7.412L44,41c-1.355,0-2.661,0-3.787,0c-0.691,0-1.243-0.579-1.211-1.269l-4.862,32.625L45,70h0.487l-0.435-8.486
			C43.888,59.732,42.889,57.575,42.178,54.925z"/>
		<path style="fill:#FBD7D7;" d="M54.973,43.355c-5,0-8.76,2.32-10,3c-0.345,0.189-0.646,0.281-0.917,0.309L43,53l-2-8
			c-0.368,0-0.723,0-1,0c-1,0-2,1.111-2,2.222c0,3.091,0.864,7.13,4.178,7.703C44.62,64.027,50.396,67.465,55,69V43.356
			C54.991,43.356,54.982,43.355,54.973,43.355z"/>
		<path style="fill:#099686;" d="M75.553,82.105C75.214,81.428,74.521,81,73.764,81h-2.098L70,71l-4-1l0.846,11H55H43.154L44,70
			l-4,1l-1.667,10h-2.097c-0.758,0-1.45,0.428-1.789,1.105L32,87h23h23L75.553,82.105z"/>
		<path style="fill:#3E3E3F;" d="M56.957,25.078c0.004-0.026,0.016-0.051,0.016-0.078c0-0.552-0.896-1-2-1s-2,0.448-2,1
			c0,0.027,0.012,0.052,0.016,0.078c-5.779,0.452-13.462,3.177-13.987,14.653C38.97,40.421,39.521,41,40.213,41
			c5.373,0,14.76,0,14.76,0s9.388,0,14.76,0c0.691,0,1.243-0.579,1.211-1.269C70.419,28.255,62.736,25.53,56.957,25.078z"/>
		<g>
			<path style="fill:#F79392;" d="M50,58h10c0,0,0,3-5,3S50,58,50,58z"/>
		</g>
		<g>
			<path style="fill:#3E3E3F;" d="M52.006,47c0-1.104-0.896-2-2-2c-0.002,0-0.004,0-0.006,0c0.001,0.021,0.006,0.041,0.006,0.062
				c0,1.103-0.892,1.996-1.994,2C48.046,48.137,48.923,49,50.006,49C51.111,49,52.006,48.104,52.006,47z"/>
		</g>
		<g>
			<path style="fill:#3E3E3F;" d="M62,47c0-1.104-0.896-2-2-2c-0.002,0-0.004,0-0.006,0C59.995,45.021,60,45.042,60,45.063
				c0,1.103-0.892,1.996-1.994,2C58.04,48.137,58.917,49,60,49C61.104,49,62,48.104,62,47z"/>
		</g>
		<g>
			<circle style="fill:#12B2A0;" cx="55" cy="33" r="3"/>
		</g>
		<g>
			<path style="fill:#FFFFFF;" d="M55,30c1.657,0,3,1.343,3,3s-1.343,3-3,3s-3-1.343-3-3S53.343,30,55,30 M55,29
				c-2.206,0-4,1.794-4,4s1.794,4,4,4s4-1.794,4-4S57.206,29,55,29L55,29z"/>
		</g>
		<path style="fill:#5B5C5F;" d="M54.973,38.355c-8.169,0.064-14.169,2.71-14,2.645c1,2,1,7,4,5.355c1.24-0.68,5-3,10-3
			s8.76,2.32,10,3c3,1.645,3-3.355,4-5.355C69.142,41.066,63.142,38.419,54.973,38.355z"/>
	</g>
</g>
</svg>
