<?xml version="1.0" encoding="iso-8859-1"?>
<!-- Generator: Adobe Illustrator 17.1.0, SVG Export Plug-In . SVG Version: 6.00 Build 0)  -->
<!DOCTYPE svg PUBLIC "-//W3C//DTD SVG 1.0//EN" "http://www.w3.org/TR/2001/REC-SVG-20010904/DTD/svg10.dtd">
<svg version="1.0" xmlns="http://www.w3.org/2000/svg" xmlns:xlink="http://www.w3.org/1999/xlink" x="0px" y="0px" width="110px"
	 height="110px" viewBox="0 0 110 110" style="enable-background:new 0 0 110 110;" xml:space="preserve">
<g id="Artboard">
</g>
<g id="Multicolor">
	<circle style="fill:#25B7D3;" cx="55" cy="55" r="55"/>
	<g>
		<g>
			<path style="fill:#DF2C2C;" d="M83,58.238v24.76c0,2.209-1.791,4-4,4H31c-2.209,0-4-1.791-4-4v-24.76l28-28L83,58.238z"/>
		</g>
		<g>
			<path style="fill:#FA5655;" d="M55,30.238l-28,28v24.76c0,1.092,0.44,2.08,1.15,2.802l41.206-41.207L55,30.238z"/>
		</g>
		<g>
			<g>
				<path style="fill:#F0F1F1;" d="M86.707,53.465C86.895,53.652,87,53.907,87,54.172v5.652c0,0.404-0.244,0.769-0.617,0.924
					s-0.804,0.069-1.09-0.217L55,30.238L24.707,60.53c-0.286,0.286-0.716,0.372-1.09,0.217S23,60.228,23,59.823v-5.652
					c0-0.265,0.105-0.52,0.293-0.707L52.88,23.878c1.17-1.17,3.07-1.17,4.24,0L86.707,53.465z"/>
			</g>
		</g>
		<g>
			<path style="fill:#BF0302;" d="M59,52.998c0,1.105-0.895,2-2,2h-4c-1.105,0-2-0.895-2-2v-8c0-1.105,0.895-2,2-2h4
				c1.105,0,2,0.895,2,2V52.998z"/>
		</g>
		<g>
			<path style="fill:#FFFFFF;" d="M57.12,23.877c-1.17-1.17-3.07-1.17-4.24,0L23.293,53.465C23.105,53.652,23,53.907,23,54.172
				v5.651c0,0.405,0.244,0.769,0.617,0.924c0.374,0.155,0.804,0.069,1.09-0.217L55,30.238l14.23,14.229l4.24-4.24L57.12,23.877z"/>
		</g>
		<path style="fill:#FFFFFF;" d="M63,64H47h-4v4v19h4v-0.799l8.04-8.04l7.96,7.96V87h4V68v-4H63z M60.958,68l-5.918,5.918L49.121,68
			H60.958z M47,81.958V70.121l5.918,5.919L47,81.958z M57.161,76.04L63,70.201v11.678L57.161,76.04z"/>
	</g>
</g>
</svg>
