<?xml version="1.0" encoding="iso-8859-1"?>
<!-- Generator: Adobe Illustrator 17.1.0, SVG Export Plug-In . SVG Version: 6.00 Build 0)  -->
<!DOCTYPE svg PUBLIC "-//W3C//DTD SVG 1.0//EN" "http://www.w3.org/TR/2001/REC-SVG-20010904/DTD/svg10.dtd">
<svg version="1.0" xmlns="http://www.w3.org/2000/svg" xmlns:xlink="http://www.w3.org/1999/xlink" x="0px" y="0px" width="110px"
	 height="110px" viewBox="0 0 110 110" style="enable-background:new 0 0 110 110;" xml:space="preserve">
<g id="Artboard">
</g>
<g id="Multicolor">
	<circle style="fill:#E04F5F;" cx="55" cy="55" r="55"/>
	<g>
		<g>
			
				<rect x="27.153" y="37.368" transform="matrix(0.8254 0.5646 -0.5646 0.8254 33.7695 -22.4372)" style="fill:#3E3E3F;" width="52" height="12"/>
		</g>
		<g>
			<polygon style="fill:#FACB1B;" points="43.715,29.641 29.176,32.369 32.372,27.697 39.044,26.446 			"/>
		</g>
		<g>
			<polygon style="fill:#FACB1B;" points="53.925,36.626 37.245,39.755 32.573,36.559 49.253,33.43 			"/>
		</g>
		<g>
			<polygon style="fill:#FACB1B;" points="64.134,43.61 47.454,46.739 42.791,43.549 59.463,40.414 			"/>
		</g>
		<g>
			<polygon style="fill:#FACB1B;" points="73.873,50.273 57.194,53.401 52.522,50.206 69.202,47.077 			"/>
		</g>
		<g>
			<polygon style="fill:#FACB1B;" points="76.707,54.986 73.511,59.657 67.882,60.713 63.21,57.518 			"/>
		</g>
		<g>
			<path style="fill:#FFFFFF;" d="M67,59c0-4.418,3.582-8,8-8h4c4.418,0,8,3.582,8,8v28H67V59z"/>
		</g>
		<g>
			<rect x="71" y="59" style="fill:#CFD3D4;" width="12" height="8"/>
		</g>
		<g>
			<path style="fill:#059BBF;" d="M58.341,71.862c-0.375-2.263-2.342-3.984-4.709-3.984L52,57.597
				C51.721,56.092,50.407,55,48.869,55H35.037c-1.538,0-2.852,1.092-3.131,2.597c-0.096,0.514-2.105,9.903-2.176,10.281
				c-2.637,0-4.78,2.143-4.78,4.78v3.984h33.463C58.413,72.922,58.458,72.488,58.341,71.862z M32.917,67.878
				c0.287-1.713,0.326-0.442,1.419-7.03c0.255-1.538,1.586-2.661,3.147-2.661h8.939c1.562,0,2.892,1.123,3.147,2.661l0.875,7.03
				H32.917z"/>
		</g>
		<g>
			<path style="fill:#3E3E3F;" d="M50.445,81.423v3.984c0,0.88,0.713,1.593,1.593,1.593h3.187c0.88,0,1.593-0.713,1.593-1.593
				v-3.984H50.445z"/>
		</g>
		<g>
			<path style="fill:#3E3E3F;" d="M26.543,81.423v3.984c0,0.88,0.713,1.593,1.593,1.593h3.187c0.88,0,1.593-0.713,1.593-1.593
				v-3.984H26.543z"/>
		</g>
		<g>
			<path style="fill:#E2E4E5;" d="M60.006,78.236c0-0.88-0.713-1.593-1.593-1.593H24.95c-0.88,0-1.593,0.713-1.593,1.593v1.593
				c0,0.88,0.713,1.593,1.593,1.593h33.463c0.88,0,1.593-0.713,1.593-1.593V78.236z"/>
		</g>
		<g>
			<circle style="fill:#FBE158;" cx="53.632" cy="73.455" r="2.39"/>
		</g>
		<g>
			<path style="fill:#FFFFFF;" d="M58.413,76.642H24.95c-0.88,0-1.593,0.713-1.593,1.593v0.797h36.65v-0.797
				C60.006,77.356,59.293,76.642,58.413,76.642z"/>
		</g>
		<g>
			<path style="fill:#FBEC9A;" d="M53.632,71.065c-1.32,0-2.39,1.07-2.39,2.39c0,0.683,0.29,1.295,0.749,1.731l3.372-3.372
				C54.928,71.355,54.315,71.065,53.632,71.065z"/>
		</g>
		<g>
			<path style="fill:#21B2D1;" d="M31.906,57.597c-0.096,0.514-2.105,9.903-2.176,10.281c-2.637,0-4.78,2.143-4.78,4.78v3.984h1.683
				l8.764-8.764h-2.48c0.287-1.713,0.326-0.442,1.419-7.03c0.255-1.538,1.586-2.661,3.147-2.661h7.746L48.417,55H35.037
				C33.5,55,32.185,56.092,31.906,57.597z"/>
		</g>
		<g>
			<circle style="fill:#FBE158;" cx="29.73" cy="73.455" r="2.39"/>
		</g>
		<g>
			<path style="fill:#FBEC9A;" d="M29.73,71.065c-1.32,0-2.39,1.07-2.39,2.39c0,0.683,0.29,1.295,0.749,1.731l3.372-3.372
				C31.025,71.355,30.413,71.065,29.73,71.065z"/>
		</g>
		<g>
			<g>
				<path style="fill:#6FDAF1;" d="M46.423,58.187h-8.939c-1.562,0-2.892,1.123-3.147,2.661c-1.095,6.598-1.132,5.32-1.419,7.03
					h17.528l-0.875-7.03C49.315,59.31,47.985,58.187,46.423,58.187z"/>
			</g>
			<g>
				<path style="fill:#6FDAF1;" d="M32.917,67.878c0.287-1.713,0.326-0.442,1.419-7.03c0.255-1.538,1.586-2.661,3.147-2.661h8.939
					c1.562,0,2.892,1.123,3.147,2.661l0.875,7.03H32.917z"/>
			</g>
		</g>
		<g>
			<path style="fill:#9CE5F4;" d="M34.336,60.848c-1.031,6.218-1.173,5.563-1.419,7.03h2.48l9.833-9.691h-7.746
				C35.922,58.187,34.591,59.31,34.336,60.848z"/>
		</g>
	</g>
</g>
</svg>
