<?xml version="1.0" encoding="iso-8859-1"?>
<!-- Generator: Adobe Illustrator 17.1.0, SVG Export Plug-In . SVG Version: 6.00 Build 0)  -->
<!DOCTYPE svg PUBLIC "-//W3C//DTD SVG 1.0//EN" "http://www.w3.org/TR/2001/REC-SVG-20010904/DTD/svg10.dtd">
<svg version="1.0" xmlns="http://www.w3.org/2000/svg" xmlns:xlink="http://www.w3.org/1999/xlink" x="0px" y="0px" width="110px"
	 height="110px" viewBox="0 0 110 110" style="enable-background:new 0 0 110 110;" xml:space="preserve">
<g id="Artboard">
</g>
<g id="Multicolor">
	<circle style="fill:#32BEA6;" cx="55" cy="55" r="55"/>
	<g>
		<g>
			<g>
				<path style="fill:#FFFFFF;" d="M34,87c-0.828,0-1.5-0.672-1.5-1.5S33.172,84,34,84c3.092,0,4.5-3.369,4.5-6.5
					c0-0.828,0.672-1.5,1.5-1.5s4,0.672,4,1.5C44,82.221,38.924,87,34,87z"/>
			</g>
		</g>
		<g>
			<g>
				<path style="fill:#FFFFFF;" d="M78,87c0.828,0,1.5-0.672,1.5-1.5S78.828,84,78,84c-3.092,0-4.5-3.369-4.5-6.5
					c0-0.828-0.672-1.5-1.5-1.5s-4,0.672-4,1.5C68,82.221,73.076,87,78,87z"/>
			</g>
		</g>
		<g>
			<g>
				<path style="fill:#F0F1F1;" d="M25,62.208c0,0-2,20,30,20s30-20,30-20H25z"/>
			</g>
		</g>
		<g>
			<path style="fill:#FFFFFF;" d="M25,62.208c0,0-1.066,10.827,11.12,16.547l16.547-16.547H25z"/>
		</g>
		<g>
			<g>
				<path style="fill:#E2E4E5;" d="M87,60.208c0,1.105-0.895,2-2,2H25c-1.105,0-2-0.895-2-2c0-1.105,0.895-2,2-2h60
					C86.105,58.208,87,59.104,87,60.208z"/>
			</g>
		</g>
		<g>
			<g>
				<path style="fill:#DF2C2C;" d="M63,58.208c0-1.105-0.895-2-2-2H45c-1.105,0-2,0.895-2,2v12h20V58.208z"/>
			</g>
		</g>
		<g>
			<g>
				<rect x="43" y="70.208" style="fill:#F3B607;" width="20" height="2"/>
			</g>
		</g>
		<g>
			<path style="fill:#FFFFFF;" d="M77.521,26.855c-3.425-1.14-7.312,0.505-10.534,4.409c-2.476-1.401-5.53-1.397-7.987,0.053
				l10.943,10.943c1.49-2.525,1.454-5.68-0.066-8.19c2.146-2.709,4.562-4.026,6.379-3.42C77.949,31.214,79,33.343,79,36.208v22h4
				v-22C83,31.565,80.9,27.981,77.521,26.855z"/>
		</g>
		<g>
			<path style="fill:#9CE5F4;" d="M58.707,44.48c-0.593,0.579-1.543,0.567-2.121-0.026c-0.579-0.593-0.567-1.543,0.026-2.121
				s3.553-1.371,3.553-1.371S59.3,43.901,58.707,44.48z"/>
		</g>
		<g>
			<path style="fill:#9CE5F4;" d="M64.995,45.45c-0.251,0.79-1.094,1.226-1.884,0.975c-0.79-0.251-1.226-1.094-0.975-1.884
				c0.251-0.79,2.49-2.881,2.49-2.881S65.246,44.661,64.995,45.45z"/>
		</g>
		<g>
			<path style="fill:#9CE5F4;" d="M55.652,35.873c-0.795,0.231-1.253,1.064-1.021,1.859c0.231,0.795,1.064,1.253,1.859,1.021
				c0.795-0.231,2.942-2.418,2.942-2.418S56.447,35.642,55.652,35.873z"/>
		</g>
		<g>
			<polygon style="fill:#FACB1B;" points="43,70.208 43,72.208 43.024,72.208 45.024,70.208 			"/>
		</g>
		<g>
			<path style="fill:#FA5655;" d="M43,58.208v12h2.024l14-14H45C43.896,56.208,43,57.104,43,58.208z"/>
		</g>
	</g>
</g>
</svg>
