<?xml version="1.0" encoding="iso-8859-1"?>
<!-- Generator: Adobe Illustrator 17.1.0, SVG Export Plug-In . SVG Version: 6.00 Build 0)  -->
<!DOCTYPE svg PUBLIC "-//W3C//DTD SVG 1.0//EN" "http://www.w3.org/TR/2001/REC-SVG-20010904/DTD/svg10.dtd">
<svg version="1.0" xmlns="http://www.w3.org/2000/svg" xmlns:xlink="http://www.w3.org/1999/xlink" x="0px" y="0px" width="110px"
	 height="110px" viewBox="0 0 110 110" style="enable-background:new 0 0 110 110;" xml:space="preserve">
<g id="Artboard">
</g>
<g id="Multicolor">
	<circle style="fill:#25B7D3;" cx="55" cy="55" r="55"/>
	<g>
		<circle style="fill:#F0F1F1;" cx="55" cy="55" r="32"/>
		<g>
			<path style="fill:#FFFFFF;" d="M55,23c-17.67,0-32,14.33-32,32c0,8.664,3.451,16.519,9.045,22.281l45.236-45.237
				C71.519,26.45,63.663,23,55,23z"/>
		</g>
		<g>
			<path style="fill:#FA5655;" d="M81,54c-1.286,0-2.55,0.096-3.788,0.271c-0.129-0.134-3.423-2.914-3.566-3.034
				c-0.421-0.357-1.052-0.304-1.409,0.117s-0.304,1.052,0.117,1.409L74.7,54.75c-3.069,0.736-5.935,1.996-8.499,3.683l-3.866-1.374
				c-0.521-0.186-1.092,0.087-1.277,0.607c-0.185,0.521,0.087,1.092,0.607,1.277l2.572,0.914c-2.297,1.824-4.289,4.013-5.891,6.48
				l-4.095-0.333c-0.551-0.044-1.033,0.365-1.078,0.916c-0.045,0.551,0.365,1.033,0.916,1.078l3.118,0.253
				c-1.463,2.719-2.47,5.717-2.927,8.892l-3.749,1.817c-0.497,0.241-0.705,0.839-0.464,1.336c0.241,0.497,0.839,0.705,1.336,0.464
				l2.643-1.281C54.017,79.982,54,80.489,54,81c0,2.06,0.23,4.07,0.68,6H55c0.57,0,1.15-0.01,1.72-0.05C56.25,85.04,56,83.05,56,81
				c0-0.496,0.018-0.987,0.047-1.475l2.439,1.333c0.489,0.267,1.095,0.082,1.357-0.398c0.265-0.485,0.086-1.092-0.398-1.357
				l-3.178-1.736c0.411-2.81,1.292-5.467,2.558-7.893l1.316,2.205c0.285,0.478,0.9,0.628,1.371,0.346
				c0.474-0.283,0.629-0.897,0.346-1.371l-1.884-3.155c1.555-2.413,3.512-4.542,5.778-6.292l0.814,2.852
				c0.152,0.532,0.706,0.838,1.236,0.687c0.531-0.152,0.839-0.705,0.687-1.236l-1.006-3.525c2.378-1.534,5.03-2.674,7.868-3.332
				l-0.218,2.629c-0.046,0.55,0.363,1.034,0.914,1.079c0.54,0.047,1.033-0.355,1.079-0.914l0.264-3.181
				C78.57,56.093,79.774,56,81,56c2.05,0,4.04,0.25,5.95,0.72C87,56.004,87,55.377,87,54.68C85.07,54.23,83.06,54,81,54z"/>
		</g>
		<g>
			<path style="fill:#FA5655;" d="M59.9,29.705c-0.241-0.497-0.839-0.705-1.336-0.464l-2.634,1.277
				c0.028-0.502,0.045-1.008,0.045-1.518c0-2.06-0.238-4.07-0.689-6c-0.699,0-1.325,0-2.04,0.05c0.47,1.91,0.72,3.9,0.72,5.95
				c0,0.496-0.018,0.987-0.047,1.475l-2.439-1.333c-0.485-0.264-1.092-0.086-1.357,0.398c-0.265,0.485-0.086,1.092,0.398,1.357
				l3.178,1.736c-0.411,2.81-1.292,5.467-2.558,7.893l-1.316-2.205c-0.283-0.474-0.896-0.63-1.371-0.346
				c-0.474,0.283-0.629,0.897-0.346,1.371l1.884,3.155c-1.555,2.413-3.512,4.542-5.778,6.292L43.4,45.943
				c-0.152-0.531-0.706-0.839-1.236-0.687c-0.531,0.152-0.839,0.705-0.687,1.236l1.006,3.525c-2.378,1.534-5.03,2.675-7.868,3.332
				l0.218-2.629c0.046-0.55-0.363-1.034-0.914-1.079c-0.545-0.046-1.034,0.363-1.079,0.914l-0.264,3.181
				C31.397,53.907,30.192,54,28.966,54c-2.05,0-4.023-0.25-5.933-0.72C22.993,53.85,23,54.43,23,55v0.32
				c2,0.45,3.923,0.68,5.983,0.68c1.281,0,2.54-0.096,3.773-0.269c0.13,0.134,3.421,2.911,3.564,3.032
				c0.42,0.356,1.052,0.305,1.409-0.117c0.357-0.421,0.304-1.052-0.117-1.409l-2.343-1.983c3.072-0.735,5.939-1.995,8.504-3.682
				l3.857,1.371c0.517,0.185,1.092-0.085,1.277-0.607c0.185-0.521-0.087-1.092-0.607-1.277l-2.562-0.911
				c2.297-1.825,4.29-4.014,5.892-6.482C51.702,43.67,55.727,44,55.798,44c0.515,0,0.953-0.396,0.996-0.919
				c0.045-0.551-0.365-1.033-0.916-1.078L52.77,41.75c1.463-2.721,2.47-5.72,2.926-8.897l3.74-1.813
				C59.933,30.8,60.141,30.202,59.9,29.705z"/>
		</g>
	</g>
</g>
</svg>
