<?xml version="1.0" encoding="iso-8859-1"?>
<!-- Generator: Adobe Illustrator 17.1.0, SVG Export Plug-In . SVG Version: 6.00 Build 0)  -->
<!DOCTYPE svg PUBLIC "-//W3C//DTD SVG 1.0//EN" "http://www.w3.org/TR/2001/REC-SVG-20010904/DTD/svg10.dtd">
<svg version="1.0" xmlns="http://www.w3.org/2000/svg" xmlns:xlink="http://www.w3.org/1999/xlink" x="0px" y="0px" width="110px"
	 height="110px" viewBox="0 0 110 110" style="enable-background:new 0 0 110 110;" xml:space="preserve">
<g id="Artboard">
</g>
<g id="Multicolor">
	<circle style="fill:#32BEA6;" cx="55" cy="55" r="55"/>
	<g>
		<g>
			<circle style="fill:#F37A10;" cx="55" cy="55" r="32"/>
		</g>
		<g>
			<path style="fill:#F37A10;" d="M55,23c-17.673,0-32,14.327-32,32c0,8.523,3.339,16.262,8.772,21.998l45.225-45.226
				C71.262,26.339,63.524,23,55,23z"/>
		</g>
		<path style="fill:#84462D;" d="M86.95,53.356c-6.763-3.82-15.186-7.301-24.25-2.398c-1.672-1.74-3.246-3.277-5.351-5.098l0,0l0,0
			c6.06-5.02,13.35-9.28,21.98-11.65c-0.483-0.589-1.774-1.95-2.34-2.45c-8.61,2.62-15.89,7.03-21.97,12.16l0,0
			c-1.95-1.57-3.89-2.969-5.78-4.229l0,0l0,0c3.83-5.59,4.53-12.37,4.51-16.66c-0.536,0-2.111,0.112-3.01,0.26
			c-0.02,3.91-0.69,9.92-4.02,14.76l0,0c-5.2-3.219-9.92-5.379-13.26-6.719c-1.064,0.972-2.223,2.218-2.3,2.332
			c3.136,1.188,8.08,3.34,13.622,6.744c-0.004,0.004-0.008,0.008-0.012,0.012c-4.45,4.49-11.31,6.29-20.42,5.36
			c-0.491,1.63-0.73,2.939-0.73,2.939c8.581,0.949,17.96-0.177,23.717-6.655c0.011,0.007,0.022,0.014,0.033,0.021
			c1.739,1.156,3.517,2.494,5.305,3.906C40.946,56.751,34.135,69.903,31.25,76.44c0.628,0.71,1.813,1.857,2.26,2.27
			c2.472-5.82,9.217-19.673,21.427-30.754c1.11,0.977,3.144,2.617,5.123,5.044c-7.57,5-7.05,17.515-6.67,26.235
			c0.13,2.92,0.26,5.685,0.01,7.725c1.345,0.051,1.551,0.05,3.01,0.01c0.23-2.21,0.11-4.979-0.02-8.09
			c-0.378-8.539-0.828-19.079,5.621-24.036c5.64,6.692,10.545,13.321,14.059,24.236c0.572-0.526,1.806-1.624,2.38-2.33
			c-3.28-9.55-8.21-17.31-13.72-23.57c8.14-4.02,15.78-0.2,22.21,3.59C86.997,56.371,87.036,54.509,86.95,53.356z"/>
	</g>
</g>
</svg>
