<?xml version="1.0" encoding="iso-8859-1"?>
<!-- Generator: Adobe Illustrator 17.1.0, SVG Export Plug-In . SVG Version: 6.00 Build 0)  -->
<!DOCTYPE svg PUBLIC "-//W3C//DTD SVG 1.0//EN" "http://www.w3.org/TR/2001/REC-SVG-20010904/DTD/svg10.dtd">
<svg version="1.0" xmlns="http://www.w3.org/2000/svg" xmlns:xlink="http://www.w3.org/1999/xlink" x="0px" y="0px" width="110px"
	 height="110px" viewBox="0 0 110 110" style="enable-background:new 0 0 110 110;" xml:space="preserve">
<g id="Artboard">
</g>
<g id="Multicolor">
	<circle style="fill:#E04F5F;" cx="55" cy="55" r="55"/>
	<g>
		<path style="fill:#3E3E3F;" d="M31.291,51c0.525-12.791,11.055-23,23.975-23s23.45,10.209,23.975,23h4
			c-0.528-15-12.846-27-27.975-27S27.818,36,27.291,51H31.291z"/>
		<path style="fill:#FACB1B;" d="M65.266,28c0,1.657-1.343,3-3,3h-14c-1.657,0-3-1.343-3-3v-2c0-1.657,1.343-3,3-3h14
			c1.657,0,3,1.343,3,3V28z"/>
		<path style="fill:#FBE158;" d="M86.766,55l0.219-1.752C87.134,52.055,86.202,51,85,51H25.531c-0.574,0-1.12,0.246-1.499,0.676
			s-0.556,1.002-0.485,1.572L23.766,55H86.766z"/>
		<path style="fill:#FBEC9A;" d="M60.278,55l4-4H25.531c-0.682,0-1.408,0.364-1.781,1.106c-0.406,0.809-0.158,1.509,0.015,2.894
			H60.278z"/>
		<path style="fill:#FBE158;" d="M62.266,23h-14c-1.657,0-3,1.343-3,3v1h20v-1C65.266,24.343,63.922,23,62.266,23z"/>
		<path style="fill:#FACB1B;" d="M85,51H25.531c-0.574,0-1.12,0.246-1.499,0.676s-0.556,1.002-0.485,1.572l3.062,28.496
			C26.984,84.747,29.536,87,32.562,87h45.407c3.026,0,5.578-2.253,5.954-5.256l3.062-28.496C87.134,52.055,86.202,51,85,51z
			 M43.266,81h-9c-1.657,0-3-1.343-3-3v-1h12V81z M43.266,73h-12v-4h12V73z M43.266,65h-12v-4h12V65z M61.266,81h-12v-4h12V81z
			 M61.266,73h-12v-4h12V73z M61.266,65h-12v-4h12V65z M79.266,78c0,1.657-1.343,3-3,3h-9v-4h12V78z M79.266,73h-12v-4h12V73z
			 M79.266,65h-12v-4h12V65z"/>
		<path style="fill:#FBE158;" d="M23.547,53.248l3.062,28.496c0.225,1.801,1.243,3.321,2.667,4.258L34.278,81h-0.012
			c-1.657,0-3-1.343-3-3v-1h7.012l4-4H31.266v-4h12v3.012L50.278,65h-1.012v-4h5.012l10-10H25.531
			C24.329,51,23.398,52.055,23.547,53.248z M31.266,61h12v4h-12V61z"/>
	</g>
</g>
</svg>
