<?xml version="1.0" encoding="iso-8859-1"?>
<!-- Generator: Adobe Illustrator 17.1.0, SVG Export Plug-In . SVG Version: 6.00 Build 0)  -->
<!DOCTYPE svg PUBLIC "-//W3C//DTD SVG 1.0//EN" "http://www.w3.org/TR/2001/REC-SVG-20010904/DTD/svg10.dtd">
<svg version="1.0" xmlns="http://www.w3.org/2000/svg" xmlns:xlink="http://www.w3.org/1999/xlink" x="0px" y="0px" width="110px"
	 height="110px" viewBox="0 0 110 110" style="enable-background:new 0 0 110 110;" xml:space="preserve">
<g id="Artboard">
</g>
<g id="Multicolor">
	<circle style="fill:#FABC3D;" cx="55" cy="55" r="55"/>
	<g>
		<path style="fill:#F0F1F1;" d="M29.604,51l7.195-16.788C37.115,33.476,37.836,33,38.638,33h32.725
			c0.801,0,1.523,0.476,1.838,1.212L80.396,51h4.352l-7.87-18.364C75.931,30.427,73.766,29,71.362,29H38.638
			c-2.403,0-4.568,1.427-5.515,3.636L25.252,51H29.604z"/>
		<path style="fill:#DF2C2C;" d="M87,57c0,1.105-0.895,2-2,2H25c-1.105,0-2-0.895-2-2v-4c0-1.105,0.895-2,2-2h60
			c1.105,0,2,0.895,2,2V57z"/>
		<path style="fill:#BF0302;" d="M25,59l7.17,25.1c0.49,1.72,2.06,2.9,3.85,2.9h37.96c1.79,0,3.36-1.18,3.85-2.9L85,59H25z M38.3,83
			c-1.07,0.27-2.16-0.37-2.43-1.44L31.81,65.6c-0.28-1.07,0.37-2.16,1.44-2.43c1.07-0.28,2.16,0.37,2.43,1.44l4.06,15.96
			C40.01,81.64,39.37,82.73,38.3,83z M46.28,83.01c-1.1,0.14-2.1-0.63-2.24-1.73l-2.06-16c-0.14-1.09,0.63-2.1,1.73-2.24
			c1.09-0.14,2.1,0.63,2.24,1.73L48,80.76C48.15,81.86,47.37,82.86,46.28,83.01z M57,81c0,1.1-0.9,2-2,2s-2-0.9-2-2V65
			c0-1.1,0.9-2,2-2s2,0.9,2,2V81z M68.06,65.24l-2.1,16.04c-0.14,1.1-1.14,1.87-2.24,1.73c-1.09-0.15-1.87-1.15-1.72-2.25
			l2.09-16.03c0.14-1.1,1.15-1.87,2.24-1.73C67.43,63.14,68.2,64.15,68.06,65.24z M74.13,81.56c-0.27,1.07-1.36,1.71-2.43,1.44
			c-1.07-0.27-1.71-1.36-1.44-2.43l4.44-16c0.27-1.07,1.36-1.71,2.43-1.44c1.07,0.27,1.72,1.36,1.44,2.43L74.13,81.56z"/>
		<path style="fill:#FA5655;" d="M23,53v4c0,1.104,0.896,2,2,2h35.049l8-8H25C23.896,51,23,51.895,23,53z"/>
		<path style="fill:#DF2C2C;" d="M35.87,81.56L31.81,65.6c-0.28-1.07,0.37-2.16,1.44-2.43c1.07-0.28,2.16,0.37,2.43,1.44
			l3.804,14.954l3.84-3.84L41.98,65.28c-0.14-1.09,0.63-2.1,1.73-2.24c1.09-0.14,2.1,0.63,2.24,1.73l0.946,7.382L53,66.049V65
			c0-1.1,0.9-2,2-2c0.305,0,0.591,0.075,0.851,0.198L60.049,59H25l7.17,25.1c0.194,0.679,0.56,1.27,1.038,1.741l3.277-3.277
			C36.193,82.308,35.972,81.965,35.87,81.56z"/>
		<path style="fill:#3E3E3F;" d="M67,31c0,2.209-1.791,4-4,4H47c-2.209,0-4-1.791-4-4s1.791-4,4-4h16C65.209,27,67,28.791,67,31z"/>
		<path style="fill:#5B5C5F;" d="M63,27H47c-2.209,0-4,1.791-4,4h24C67,28.791,65.209,27,63,27z"/>
	</g>
</g>
</svg>
