<?xml version="1.0" encoding="iso-8859-1"?>
<!-- Generator: Adobe Illustrator 17.1.0, SVG Export Plug-In . SVG Version: 6.00 Build 0)  -->
<!DOCTYPE svg PUBLIC "-//W3C//DTD SVG 1.0//EN" "http://www.w3.org/TR/2001/REC-SVG-20010904/DTD/svg10.dtd">
<svg version="1.0" xmlns="http://www.w3.org/2000/svg" xmlns:xlink="http://www.w3.org/1999/xlink" x="0px" y="0px" width="110px"
	 height="110px" viewBox="0 0 110 110" style="enable-background:new 0 0 110 110;" xml:space="preserve">
<g id="Artboard">
</g>
<g id="Multicolor">
	<circle style="fill:#FABC3D;" cx="55" cy="55" r="55"/>
	<g>
		<g>
			<path style="fill:#DF2C2C;" d="M27,81c0,1.105,0.895,2,2,2h52c1.105,0,2-0.895,2-2V51H27V81z"/>
		</g>
		<g>
			<rect x="25" y="43" style="fill:#9E9FA0;" width="60" height="8"/>
		</g>
		<g>
			<path style="fill:#3E3E3F;" d="M75,39c0-1.105-0.895-2-2-2h-4c-1.105,0-2,0.895-2,2v4h8V39z"/>
		</g>
		<g>
			<path style="fill:#3E3E3F;" d="M43,39c0-1.105-0.895-2-2-2h-4c-1.105,0-2,0.895-2,2v4h8V39z"/>
		</g>
		<g>
			<rect x="35" y="63" style="fill:#FFFFFF;" width="12" height="4"/>
		</g>
		<g>
			<polygon style="fill:#FFFFFF;" points="75,63 71,63 71,59 67,59 67,63 63,63 63,67 67,67 67,71 71,71 71,67 75,67 			"/>
		</g>
		<g>
			<rect x="25" y="43" style="fill:#F3F4F4;" width="60" height="8"/>
		</g>
		<g>
			<polygon style="fill:#FA5655;" points="43.461,51 27,51 27,67.461 			"/>
		</g>
		<g>
			<polygon style="fill:#FFFFFF;" points="25,43 25,51 43.461,51 51.461,43 			"/>
		</g>
	</g>
</g>
</svg>
