<?xml version="1.0" encoding="iso-8859-1"?>
<!-- Generator: Adobe Illustrator 17.1.0, SVG Export Plug-In . SVG Version: 6.00 Build 0)  -->
<!DOCTYPE svg PUBLIC "-//W3C//DTD SVG 1.0//EN" "http://www.w3.org/TR/2001/REC-SVG-20010904/DTD/svg10.dtd">
<svg version="1.0" xmlns="http://www.w3.org/2000/svg" xmlns:xlink="http://www.w3.org/1999/xlink" x="0px" y="0px" width="110px"
	 height="110px" viewBox="0 0 110 110" style="enable-background:new 0 0 110 110;" xml:space="preserve">
<g id="Artboard" style="display:none;">
	
		<rect x="-200.5" y="-418.5" style="display:inline;fill:#808080;stroke:#000000;stroke-miterlimit:10;" width="1392" height="1369"/>
</g>
<g id="R-Multicolor">
	<circle style="fill:#FABC3D;" cx="55" cy="55" r="55"/>
	<g>
		<g>
			<path style="fill:#E2E4E5;" d="M25.924,84.076c3.899,3.899,10.243,3.899,14.142,0c3.66-3.66,3.884-9.475,0.671-13.399
				L84.614,26.8c0.781-0.781,0.781-2.047,0-2.828c-0.781-0.781-2.047-0.781-2.828,0L36.536,69.221c-0.784,0.784-0.784,2.055,0,2.839
				l0.702,0.702c2.34,2.34,2.34,6.146,0,8.485c-2.34,2.34-6.146,2.34-8.485,0c-1.973-1.973-2.282-4.988-0.928-7.288
				c0.465-0.789,0.336-1.79-0.312-2.437c-0.922-0.922-2.467-0.725-3.129,0.396C22.12,75.753,22.634,80.785,25.924,84.076z"/>
		</g>
		<g>
			<g>
				<path style="fill:#FFFFFF;" d="M27.825,73.96c0.464-0.79,0.336-1.79-0.312-2.438c-0.921-0.922-2.467-0.725-3.129,0.396
					c-2.062,3.492-1.812,7.975,0.734,11.233l2.868-2.868C26.737,78.376,26.675,75.913,27.825,73.96z"/>
			</g>
			<g>
				<path style="fill:#FFFFFF;" d="M81.786,23.972l-45.25,45.25c-0.728,0.728-0.771,1.872-0.146,2.66L84.44,23.83
					C83.655,23.203,82.513,23.245,81.786,23.972z"/>
			</g>
		</g>
		<g>
			<path style="fill:#FA5655;" d="M55.055,58.052l-4.522-4.522c-2.652-0.539-5.879,0.502-8.346,2.968
				c-3.515,3.515-4.148,8.58-1.414,11.314c2.734,2.734,7.799,2.101,11.314-1.414C54.553,63.932,55.594,60.705,55.055,58.052z"/>
		</g>
		<g>
			<path style="fill:#12B2A0;" d="M59.865,60.034c0.781-0.781,0.781-2.047,0-2.828L51.38,48.72c-0.781-0.781-2.047-0.781-2.828,0
				c-0.781,0.781-0.781,2.047,0,2.828l8.485,8.485C57.818,60.815,59.084,60.815,59.865,60.034z"/>
		</g>
		<g>
			<path style="fill:#9C6144;" d="M54.203,45.898c0.784-0.784,2.055-0.784,2.839,0l5.646,5.646c0.784,0.784,0.784,2.055,0,2.839
				l-1.403,1.403c-0.784,0.784-2.055,0.784-2.839,0L52.8,50.14c-0.784-0.784-0.784-2.055,0-2.839L54.203,45.898z"/>
		</g>
		<g>
			<path style="fill:#84462D;" d="M75.422,41.649l-8.485-8.485L73.3,26.8c1.172-1.172,3.071-1.172,4.243,0l4.243,4.243
				c1.172,1.172,1.172,3.071,0,4.243L75.422,41.649z"/>
		</g>
		<g>
			<path style="fill:#12B2A0;" d="M75.422,44.478c0.781-0.781,0.781-2.047,0-2.828l-8.485-8.485c-0.781-0.781-2.047-0.781-2.828,0
				c-0.781,0.781-0.781,2.047,0,2.828l8.485,8.485C73.374,45.259,74.641,45.259,75.422,44.478z"/>
		</g>
		<g>
			<path style="fill:#FA5655;" d="M60.592,43.79l4.204,4.204c1.51,0.221,3.1-0.233,4.262-1.395c1.162-1.162,1.616-2.752,1.395-4.262
				l-4.204-4.204c-1.51-0.221-3.1,0.233-4.262,1.395C60.825,40.69,60.371,42.28,60.592,43.79z"/>
		</g>
		<g>
			<path style="fill:#FBE158;" d="M66.936,52.963c0.781-0.781,0.781-2.047,0-2.828l-8.485-8.485c-0.781-0.781-2.047-0.781-2.828,0
				c-0.781,0.781-0.781,2.047,0,2.828l8.485,8.485C64.889,53.744,66.155,53.744,66.936,52.963z"/>
		</g>
		<g>
			<path style="fill:#9C6144;" d="M77.543,26.8c-1.171-1.172-3.071-1.172-4.243,0l-6.364,6.364l4.085,4.085l8.485-8.485L77.543,26.8
				z"/>
		</g>
		<g>
			<path style="fill:#47C4B7;" d="M66.937,33.164c-0.781-0.781-2.047-0.781-2.829,0c-0.781,0.781-0.781,2.047,0,2.829l4.085,4.085
				l2.829-2.829L66.937,33.164z"/>
		</g>
		<g>
			<path style="fill:#F79392;" d="M66.249,38.133c-1.51-0.221-3.1,0.233-4.262,1.395c-1.162,1.162-1.616,2.752-1.395,4.262
				l1.944,1.944l5.657-5.657L66.249,38.133z"/>
		</g>
		<g>
			<path style="fill:#FBEC9A;" d="M58.451,41.649c-0.781-0.781-2.047-0.781-2.829,0c-0.781,0.781-0.781,2.047,0,2.829l4.085,4.085
				l2.828-2.829L58.451,41.649z"/>
		</g>
		<g>
			<path style="fill:#9C6144;" d="M57.042,45.897c-0.784-0.784-2.055-0.784-2.839,0L52.8,47.301c-0.784,0.784-0.784,2.055,0,2.839
				l2.666,2.666l4.243-4.243L57.042,45.897z"/>
		</g>
		<g>
			<path style="fill:#F79392;" d="M50.533,53.531c-2.652-0.539-5.879,0.501-8.346,2.968c-3.446,3.446-4.113,8.378-1.562,11.146
				l12.011-12.011L50.533,53.531z"/>
		</g>
		<path style="fill:#47C4B7;" d="M51.38,48.721c-0.781-0.781-2.047-0.781-2.828,0c-0.781,0.781-0.781,2.047,0,2.828l4.053,4.054
			l2.829-2.829L51.38,48.721z"/>
	</g>
</g>
<g id="Multicolor" style="display:none;">
	<g style="display:inline;">
		<g>
			<path style="fill:#E2E4E5;" d="M25.924,84.076c3.899,3.899,10.243,3.899,14.142,0c3.66-3.66,3.884-9.475,0.671-13.399
				L84.614,26.8c0.781-0.781,0.781-2.047,0-2.828c-0.781-0.781-2.047-0.781-2.828,0L36.536,69.221c-0.784,0.784-0.784,2.055,0,2.839
				l0.702,0.702c2.34,2.34,2.34,6.146,0,8.485c-2.34,2.34-6.146,2.34-8.485,0c-1.973-1.973-2.282-4.988-0.928-7.288
				c0.465-0.789,0.336-1.79-0.312-2.437c-0.922-0.922-2.467-0.725-3.129,0.396C22.12,75.753,22.634,80.785,25.924,84.076z"/>
		</g>
		<g>
			<g>
				<path style="fill:#FFFFFF;" d="M27.825,73.96c0.464-0.79,0.336-1.79-0.312-2.438c-0.921-0.922-2.467-0.725-3.129,0.396
					c-2.062,3.492-1.812,7.975,0.734,11.233l2.868-2.868C26.737,78.376,26.675,75.913,27.825,73.96z"/>
			</g>
			<g>
				<path style="fill:#FFFFFF;" d="M81.786,23.972l-45.25,45.25c-0.728,0.728-0.771,1.872-0.146,2.66L84.44,23.83
					C83.655,23.203,82.513,23.245,81.786,23.972z"/>
			</g>
		</g>
		<g>
			<path style="fill:#FA5655;" d="M55.055,58.052l-4.522-4.522c-2.652-0.539-5.879,0.502-8.346,2.968
				c-3.515,3.515-4.148,8.58-1.414,11.314c2.734,2.734,7.799,2.101,11.314-1.414C54.553,63.932,55.594,60.705,55.055,58.052z"/>
		</g>
		<g>
			<path style="fill:#12B2A0;" d="M59.865,60.034c0.781-0.781,0.781-2.047,0-2.828L51.38,48.72c-0.781-0.781-2.047-0.781-2.828,0
				c-0.781,0.781-0.781,2.047,0,2.828l8.485,8.485C57.818,60.815,59.084,60.815,59.865,60.034z"/>
		</g>
		<g>
			<path style="fill:#9C6144;" d="M54.203,45.898c0.784-0.784,2.055-0.784,2.839,0l5.646,5.646c0.784,0.784,0.784,2.055,0,2.839
				l-1.403,1.403c-0.784,0.784-2.055,0.784-2.839,0L52.8,50.14c-0.784-0.784-0.784-2.055,0-2.839L54.203,45.898z"/>
		</g>
		<g>
			<path style="fill:#84462D;" d="M75.422,41.649l-8.485-8.485L73.3,26.8c1.172-1.172,3.071-1.172,4.243,0l4.243,4.243
				c1.172,1.172,1.172,3.071,0,4.243L75.422,41.649z"/>
		</g>
		<g>
			<path style="fill:#12B2A0;" d="M75.422,44.478c0.781-0.781,0.781-2.047,0-2.828l-8.485-8.485c-0.781-0.781-2.047-0.781-2.828,0
				c-0.781,0.781-0.781,2.047,0,2.828l8.485,8.485C73.374,45.259,74.641,45.259,75.422,44.478z"/>
		</g>
		<g>
			<path style="fill:#FA5655;" d="M60.592,43.79l4.204,4.204c1.51,0.221,3.1-0.233,4.262-1.395c1.162-1.162,1.616-2.752,1.395-4.262
				l-4.204-4.204c-1.51-0.221-3.1,0.233-4.262,1.395C60.825,40.69,60.371,42.28,60.592,43.79z"/>
		</g>
		<g>
			<path style="fill:#FBE158;" d="M66.936,52.963c0.781-0.781,0.781-2.047,0-2.828l-8.485-8.485c-0.781-0.781-2.047-0.781-2.828,0
				c-0.781,0.781-0.781,2.047,0,2.828l8.485,8.485C64.889,53.744,66.155,53.744,66.936,52.963z"/>
		</g>
		<g>
			<path style="fill:#9C6144;" d="M77.543,26.8c-1.171-1.172-3.071-1.172-4.243,0l-6.364,6.364l4.085,4.085l8.485-8.485L77.543,26.8
				z"/>
		</g>
		<g>
			<path style="fill:#47C4B7;" d="M66.937,33.164c-0.781-0.781-2.047-0.781-2.829,0c-0.781,0.781-0.781,2.047,0,2.829l4.085,4.085
				l2.829-2.829L66.937,33.164z"/>
		</g>
		<g>
			<path style="fill:#F79392;" d="M66.249,38.133c-1.51-0.221-3.1,0.233-4.262,1.395c-1.162,1.162-1.616,2.752-1.395,4.262
				l1.944,1.944l5.657-5.657L66.249,38.133z"/>
		</g>
		<g>
			<path style="fill:#FBEC9A;" d="M58.451,41.649c-0.781-0.781-2.047-0.781-2.829,0c-0.781,0.781-0.781,2.047,0,2.829l4.085,4.085
				l2.828-2.829L58.451,41.649z"/>
		</g>
		<g>
			<path style="fill:#9C6144;" d="M57.042,45.897c-0.784-0.784-2.055-0.784-2.839,0L52.8,47.301c-0.784,0.784-0.784,2.055,0,2.839
				l2.666,2.666l4.243-4.243L57.042,45.897z"/>
		</g>
		<g>
			<path style="fill:#F79392;" d="M50.533,53.531c-2.652-0.539-5.879,0.501-8.346,2.968c-3.446,3.446-4.113,8.378-1.562,11.146
				l12.011-12.011L50.533,53.531z"/>
		</g>
		<path style="fill:#47C4B7;" d="M51.38,48.721c-0.781-0.781-2.047-0.781-2.828,0c-0.781,0.781-0.781,2.047,0,2.828l4.053,4.054
			l2.829-2.829L51.38,48.721z"/>
	</g>
</g>
<g id="Blue" style="display:none;">
	<g style="display:inline;">
		<g>
			<path style="fill:#E1F5FA;" d="M25.924,84.076c3.899,3.899,10.244,3.898,14.143,0c3.66-3.661,3.883-9.475,0.671-13.399
				L84.614,26.8c0.78-0.781,0.78-2.047,0-2.829c-0.781-0.781-2.048-0.781-2.829,0L36.536,69.221c-0.784,0.784-0.784,2.055,0,2.839
				l0.702,0.702c2.34,2.339,2.34,6.146,0,8.485c-2.34,2.339-6.146,2.339-8.486,0c-1.972-1.973-2.281-4.988-0.928-7.288
				c0.465-0.79,0.336-1.79-0.312-2.438c-0.921-0.922-2.467-0.725-3.129,0.396C22.12,75.753,22.633,80.785,25.924,84.076z"/>
		</g>
		<g>
			<g>
				<path style="fill:#FFFFFF;" d="M27.824,73.96c0.465-0.79,0.336-1.79-0.312-2.438c-0.921-0.922-2.467-0.725-3.129,0.396
					c-2.062,3.492-1.812,7.975,0.734,11.233l2.868-2.868C26.737,78.376,26.675,75.913,27.824,73.96z"/>
			</g>
			<g>
				<path style="fill:#FFFFFF;" d="M81.785,23.972L36.536,69.221c-0.728,0.728-0.771,1.872-0.147,2.66L84.44,23.83
					C83.655,23.203,82.513,23.245,81.785,23.972z"/>
			</g>
		</g>
		<g>
			<path style="fill:#0081A1;" d="M55.055,58.053l-4.521-4.522c-2.652-0.539-5.879,0.502-8.346,2.968
				c-3.515,3.515-4.148,8.58-1.414,11.314c2.734,2.733,7.799,2.1,11.313-1.414C54.553,63.932,55.594,60.705,55.055,58.053z"/>
		</g>
		<g>
			<path style="fill:#0C333D;" d="M59.865,60.034c0.781-0.781,0.781-2.047,0-2.828l-8.485-8.485c-0.781-0.781-2.048-0.781-2.828,0
				c-0.781,0.781-0.781,2.047,0,2.828l8.485,8.485C57.818,60.815,59.084,60.815,59.865,60.034z"/>
		</g>
		<g>
			<path style="fill:#009FC7;" d="M54.203,45.897c0.783-0.784,2.055-0.784,2.84,0l5.645,5.646c0.785,0.784,0.785,2.055,0,2.839
				l-1.402,1.403c-0.784,0.785-2.056,0.785-2.84,0L52.8,50.14c-0.784-0.784-0.784-2.055,0-2.839L54.203,45.897z"/>
		</g>
		<g>
			<path style="fill:#0081A1;" d="M75.422,41.649l-8.485-8.485l6.364-6.364c1.171-1.171,3.07-1.171,4.242,0l4.242,4.243
				c1.172,1.171,1.172,3.071,0,4.243L75.422,41.649z"/>
		</g>
		<g>
			<path style="fill:#0C333D;" d="M75.422,44.478c0.781-0.781,0.781-2.047,0-2.829l-8.485-8.485c-0.781-0.781-2.048-0.781-2.829,0
				c-0.781,0.781-0.781,2.047,0,2.829l8.486,8.485C73.375,45.259,74.641,45.259,75.422,44.478z"/>
		</g>
		<g>
			<path style="fill:#0F6175;" d="M60.592,43.79l4.204,4.204c1.51,0.221,3.1-0.233,4.262-1.395c1.162-1.162,1.616-2.752,1.396-4.262
				l-4.205-4.204c-1.51-0.221-3.1,0.233-4.262,1.395C60.824,40.69,60.371,42.28,60.592,43.79z"/>
		</g>
		<g>
			<path style="fill:#0C333D;" d="M66.937,52.963c0.78-0.781,0.78-2.047,0-2.829l-8.485-8.485c-0.781-0.781-2.047-0.781-2.828,0
				c-0.781,0.781-0.781,2.047,0,2.829l8.484,8.485C64.889,53.744,66.155,53.744,66.937,52.963z"/>
		</g>
		<g>
			<path style="fill:#009FC7;" d="M77.543,26.8c-1.172-1.172-3.071-1.172-4.242,0l-6.364,6.364l4.085,4.084l8.485-8.485L77.543,26.8
				z"/>
		</g>
		<g>
			<path style="fill:#0F6175;" d="M66.937,33.164c-0.781-0.781-2.048-0.781-2.829,0c-0.78,0.781-0.78,2.047,0,2.829l4.086,4.085
				l2.828-2.829L66.937,33.164z"/>
		</g>
		<g>
			<path style="fill:#33899E;" d="M66.248,38.133c-1.51-0.221-3.1,0.233-4.262,1.395c-1.162,1.162-1.615,2.752-1.395,4.262
				l1.944,1.944l5.657-5.657L66.248,38.133z"/>
		</g>
		<g>
			<path style="fill:#0F6175;" d="M58.451,41.649c-0.781-0.781-2.047-0.781-2.828,0c-0.781,0.781-0.781,2.047,0,2.828l4.085,4.085
				l2.828-2.828L58.451,41.649z"/>
		</g>
		<g>
			<path style="fill:#00B7E5;" d="M57.043,45.897c-0.785-0.784-2.056-0.784-2.84,0L52.8,47.301c-0.784,0.784-0.784,2.055,0,2.839
				l2.665,2.666l4.243-4.243L57.043,45.897z"/>
		</g>
		<g>
			<path style="fill:#009FC7;" d="M50.533,53.531c-2.652-0.539-5.879,0.501-8.346,2.968c-3.446,3.446-4.113,8.378-1.562,11.146
				l12.011-12.011L50.533,53.531z"/>
		</g>
		<path style="fill:#0F6175;" d="M51.38,48.721c-0.78-0.781-2.048-0.781-2.828,0c-0.781,0.781-0.781,2.047,0,2.828l4.054,4.054
			l2.828-2.829L51.38,48.721z"/>
	</g>
</g>
<g id="R-Blue" style="display:none;">
	<circle style="display:inline;fill:#81D2EB;" cx="55" cy="55" r="55"/>
	<g style="display:inline;">
		<g>
			<path style="fill:#E1F5FA;" d="M25.924,84.076c3.899,3.899,10.244,3.898,14.143,0c3.66-3.661,3.883-9.475,0.671-13.399
				L84.614,26.8c0.78-0.781,0.78-2.047,0-2.829c-0.781-0.781-2.048-0.781-2.829,0l-45.249,45.25c-0.784,0.784-0.784,2.055,0,2.839
				l0.702,0.702c2.34,2.339,2.34,6.146,0,8.485c-2.34,2.339-6.146,2.339-8.486,0c-1.972-1.973-2.281-4.988-0.928-7.288
				c0.465-0.79,0.336-1.79-0.312-2.438c-0.921-0.922-2.467-0.725-3.129,0.396C22.12,75.753,22.633,80.785,25.924,84.076z"/>
		</g>
		<g>
			<g>
				<path style="fill:#FFFFFF;" d="M27.824,73.96c0.465-0.79,0.336-1.79-0.312-2.438c-0.921-0.922-2.467-0.725-3.129,0.396
					c-2.062,3.492-1.812,7.975,0.734,11.233l2.868-2.868C26.737,78.376,26.675,75.913,27.824,73.96z"/>
			</g>
			<g>
				<path style="fill:#FFFFFF;" d="M81.785,23.972l-45.249,45.25c-0.728,0.728-0.771,1.872-0.147,2.66L84.44,23.83
					C83.655,23.203,82.513,23.245,81.785,23.972z"/>
			</g>
		</g>
		<g>
			<path style="fill:#0081A1;" d="M55.055,58.053l-4.521-4.522c-2.652-0.539-5.879,0.502-8.346,2.968
				c-3.515,3.515-4.148,8.58-1.414,11.314c2.734,2.733,7.799,2.1,11.313-1.414C54.553,63.932,55.594,60.705,55.055,58.053z"/>
		</g>
		<g>
			<path style="fill:#0C333D;" d="M59.865,60.034c0.781-0.781,0.781-2.047,0-2.828l-8.485-8.485c-0.781-0.781-2.048-0.781-2.828,0
				c-0.781,0.781-0.781,2.047,0,2.828l8.485,8.485C57.818,60.815,59.084,60.815,59.865,60.034z"/>
		</g>
		<g>
			<path style="fill:#009FC7;" d="M54.203,45.897c0.783-0.784,2.055-0.784,2.84,0l5.645,5.646c0.785,0.784,0.785,2.055,0,2.839
				l-1.402,1.403c-0.784,0.785-2.056,0.785-2.84,0L52.8,50.14c-0.784-0.784-0.784-2.055,0-2.839L54.203,45.897z"/>
		</g>
		<g>
			<path style="fill:#0081A1;" d="M75.422,41.649l-8.485-8.485l6.364-6.364c1.171-1.171,3.07-1.171,4.242,0l4.242,4.243
				c1.172,1.171,1.172,3.071,0,4.243L75.422,41.649z"/>
		</g>
		<g>
			<path style="fill:#0C333D;" d="M75.422,44.478c0.781-0.781,0.781-2.047,0-2.829l-8.485-8.485c-0.781-0.781-2.048-0.781-2.829,0
				c-0.781,0.781-0.781,2.047,0,2.829l8.486,8.485C73.375,45.259,74.641,45.259,75.422,44.478z"/>
		</g>
		<g>
			<path style="fill:#0F6175;" d="M60.592,43.79l4.204,4.204c1.51,0.221,3.1-0.233,4.262-1.395c1.162-1.162,1.616-2.752,1.396-4.262
				l-4.205-4.204c-1.51-0.221-3.1,0.233-4.262,1.395C60.824,40.69,60.371,42.28,60.592,43.79z"/>
		</g>
		<g>
			<path style="fill:#0C333D;" d="M66.937,52.963c0.78-0.781,0.78-2.047,0-2.829l-8.485-8.485c-0.781-0.781-2.047-0.781-2.828,0
				c-0.781,0.781-0.781,2.047,0,2.829l8.484,8.485C64.889,53.744,66.155,53.744,66.937,52.963z"/>
		</g>
		<g>
			<path style="fill:#009FC7;" d="M77.543,26.8c-1.172-1.172-3.071-1.172-4.242,0l-6.364,6.364l4.085,4.084l8.485-8.485L77.543,26.8
				z"/>
		</g>
		<g>
			<path style="fill:#0F6175;" d="M66.937,33.164c-0.781-0.781-2.048-0.781-2.829,0c-0.78,0.781-0.78,2.047,0,2.829l4.086,4.085
				l2.828-2.829L66.937,33.164z"/>
		</g>
		<g>
			<path style="fill:#33899E;" d="M66.248,38.133c-1.51-0.221-3.1,0.233-4.262,1.395c-1.162,1.162-1.615,2.752-1.395,4.262
				l1.944,1.944l5.657-5.657L66.248,38.133z"/>
		</g>
		<g>
			<path style="fill:#0F6175;" d="M58.451,41.649c-0.781-0.781-2.047-0.781-2.828,0c-0.781,0.781-0.781,2.047,0,2.828l4.085,4.085
				l2.828-2.828L58.451,41.649z"/>
		</g>
		<g>
			<path style="fill:#00B7E5;" d="M57.043,45.897c-0.785-0.784-2.056-0.784-2.84,0L52.8,47.301c-0.784,0.784-0.784,2.055,0,2.839
				l2.665,2.666l4.243-4.243L57.043,45.897z"/>
		</g>
		<g>
			<path style="fill:#009FC7;" d="M50.533,53.531c-2.652-0.539-5.879,0.501-8.346,2.968c-3.446,3.446-4.113,8.378-1.562,11.146
				l12.011-12.011L50.533,53.531z"/>
		</g>
		<path style="fill:#0F6175;" d="M51.38,48.721c-0.78-0.781-2.048-0.781-2.828,0c-0.781,0.781-0.781,2.047,0,2.828l4.054,4.054
			l2.828-2.829L51.38,48.721z"/>
	</g>
</g>
<g id="Green" style="display:none;">
	<g style="display:inline;">
		<g>
			<path style="fill:#D7FCF9;" d="M25.924,84.076c3.899,3.899,10.244,3.898,14.143,0c3.66-3.661,3.883-9.475,0.671-13.399
				L84.614,26.8c0.78-0.781,0.78-2.047,0-2.829c-0.781-0.781-2.048-0.781-2.829,0L36.536,69.221c-0.784,0.784-0.784,2.055,0,2.839
				l0.702,0.702c2.34,2.339,2.34,6.146,0,8.485c-2.34,2.339-6.146,2.339-8.486,0c-1.972-1.973-2.281-4.988-0.928-7.288
				c0.465-0.79,0.336-1.79-0.312-2.438c-0.921-0.922-2.467-0.725-3.129,0.396C22.12,75.753,22.633,80.785,25.924,84.076z"/>
		</g>
		<g>
			<g>
				<path style="fill:#FFFFFF;" d="M27.824,73.96c0.465-0.79,0.336-1.79-0.312-2.438c-0.921-0.922-2.467-0.725-3.129,0.396
					c-2.062,3.492-1.812,7.975,0.734,11.233l2.868-2.868C26.737,78.376,26.675,75.913,27.824,73.96z"/>
			</g>
			<g>
				<path style="fill:#FFFFFF;" d="M81.785,23.972L36.536,69.221c-0.728,0.728-0.771,1.872-0.147,2.66L84.44,23.83
					C83.655,23.203,82.513,23.245,81.785,23.972z"/>
			</g>
		</g>
		<g>
			<path style="fill:#009687;" d="M55.055,58.053l-4.521-4.522c-2.652-0.539-5.879,0.502-8.346,2.968
				c-3.515,3.515-4.148,8.58-1.414,11.314c2.734,2.733,7.799,2.1,11.313-1.414C54.553,63.932,55.594,60.705,55.055,58.053z"/>
		</g>
		<g>
			<path style="fill:#0A3631;" d="M59.865,60.034c0.781-0.781,0.781-2.047,0-2.828l-8.485-8.485c-0.781-0.781-2.048-0.781-2.828,0
				c-0.781,0.781-0.781,2.047,0,2.828l8.485,8.485C57.818,60.815,59.084,60.815,59.865,60.034z"/>
		</g>
		<g>
			<path style="fill:#00B8A5;" d="M54.203,45.897c0.783-0.784,2.055-0.784,2.84,0l5.645,5.646c0.785,0.784,0.785,2.055,0,2.839
				l-1.402,1.403c-0.784,0.785-2.056,0.785-2.84,0L52.8,50.14c-0.784-0.784-0.784-2.055,0-2.839L54.203,45.897z"/>
		</g>
		<g>
			<path style="fill:#009687;" d="M75.422,41.649l-8.485-8.485l6.364-6.364c1.171-1.171,3.07-1.171,4.242,0l4.242,4.243
				c1.172,1.171,1.172,3.071,0,4.243L75.422,41.649z"/>
		</g>
		<g>
			<path style="fill:#0A3631;" d="M75.422,44.478c0.781-0.781,0.781-2.047,0-2.829l-8.485-8.485c-0.781-0.781-2.048-0.781-2.829,0
				c-0.781,0.781-0.781,2.047,0,2.829l8.486,8.485C73.375,45.259,74.641,45.259,75.422,44.478z"/>
		</g>
		<g>
			<path style="fill:#14635B;" d="M60.592,43.79l4.204,4.204c1.51,0.221,3.1-0.233,4.262-1.395c1.162-1.162,1.616-2.752,1.396-4.262
				l-4.205-4.204c-1.51-0.221-3.1,0.233-4.262,1.395C60.824,40.69,60.371,42.28,60.592,43.79z"/>
		</g>
		<g>
			<path style="fill:#0A3631;" d="M66.937,52.963c0.78-0.781,0.78-2.047,0-2.829l-8.485-8.485c-0.781-0.781-2.047-0.781-2.828,0
				c-0.781,0.781-0.781,2.047,0,2.829l8.484,8.485C64.889,53.744,66.155,53.744,66.937,52.963z"/>
		</g>
		<g>
			<path style="fill:#00B8A5;" d="M77.543,26.8c-1.172-1.172-3.071-1.172-4.242,0l-6.364,6.364l4.085,4.084l8.485-8.485L77.543,26.8
				z"/>
		</g>
		<g>
			<path style="fill:#14635B;" d="M66.937,33.164c-0.781-0.781-2.048-0.781-2.829,0c-0.78,0.781-0.78,2.047,0,2.829l4.086,4.085
				l2.828-2.829L66.937,33.164z"/>
		</g>
		<g>
			<path style="fill:#3E948B;" d="M66.248,38.133c-1.51-0.221-3.1,0.233-4.262,1.395c-1.162,1.162-1.615,2.752-1.395,4.262
				l1.944,1.944l5.657-5.657L66.248,38.133z"/>
		</g>
		<g>
			<path style="fill:#14635B;" d="M58.451,41.649c-0.781-0.781-2.047-0.781-2.828,0c-0.781,0.781-0.781,2.047,0,2.828l4.085,4.085
				l2.828-2.828L58.451,41.649z"/>
		</g>
		<g>
			<path style="fill:#00D6C1;" d="M57.043,45.897c-0.785-0.784-2.056-0.784-2.84,0L52.8,47.301c-0.784,0.784-0.784,2.055,0,2.839
				l2.665,2.666l4.243-4.243L57.043,45.897z"/>
		</g>
		<g>
			<path style="fill:#00B8A5;" d="M50.533,53.531c-2.652-0.539-5.879,0.501-8.346,2.968c-3.446,3.446-4.113,8.378-1.562,11.146
				l12.011-12.011L50.533,53.531z"/>
		</g>
		<path style="fill:#14635B;" d="M51.38,48.721c-0.78-0.781-2.048-0.781-2.828,0c-0.781,0.781-0.781,2.047,0,2.828l4.054,4.054
			l2.828-2.829L51.38,48.721z"/>
	</g>
</g>
<g id="R-Green" style="display:none;">
	<circle style="display:inline;fill:#77E0C4;" cx="55" cy="55" r="55"/>
	<g style="display:inline;">
		<g>
			<path style="fill:#D7FCF9;" d="M25.924,84.076c3.899,3.899,10.244,3.898,14.143,0c3.66-3.661,3.883-9.475,0.671-13.399
				L84.614,26.8c0.78-0.781,0.78-2.047,0-2.829c-0.781-0.781-2.048-0.781-2.829,0L36.536,69.221c-0.784,0.784-0.784,2.055,0,2.839
				l0.702,0.702c2.34,2.339,2.34,6.146,0,8.485c-2.34,2.339-6.146,2.339-8.486,0c-1.972-1.973-2.281-4.988-0.928-7.288
				c0.465-0.79,0.336-1.79-0.312-2.438c-0.921-0.922-2.467-0.725-3.129,0.396C22.12,75.753,22.633,80.785,25.924,84.076z"/>
		</g>
		<g>
			<g>
				<path style="fill:#FFFFFF;" d="M27.824,73.96c0.465-0.79,0.336-1.79-0.312-2.438c-0.921-0.922-2.467-0.725-3.129,0.396
					c-2.062,3.492-1.812,7.975,0.734,11.233l2.868-2.868C26.737,78.376,26.675,75.913,27.824,73.96z"/>
			</g>
			<g>
				<path style="fill:#FFFFFF;" d="M81.785,23.972L36.536,69.221c-0.727,0.728-0.771,1.872-0.146,2.66L84.44,23.83
					C83.655,23.203,82.513,23.245,81.785,23.972z"/>
			</g>
		</g>
		<g>
			<path style="fill:#009687;" d="M55.055,58.053l-4.521-4.522c-2.652-0.539-5.879,0.502-8.346,2.968
				c-3.515,3.515-4.148,8.58-1.414,11.314c2.734,2.733,7.799,2.1,11.313-1.414C54.553,63.932,55.594,60.705,55.055,58.053z"/>
		</g>
		<g>
			<path style="fill:#0A3631;" d="M59.865,60.034c0.781-0.781,0.781-2.047,0-2.828l-8.485-8.485c-0.781-0.781-2.048-0.781-2.828,0
				c-0.781,0.781-0.781,2.047,0,2.828l8.485,8.485C57.818,60.815,59.084,60.815,59.865,60.034z"/>
		</g>
		<g>
			<path style="fill:#00B8A5;" d="M54.203,45.897c0.783-0.784,2.055-0.784,2.84,0l5.645,5.646c0.785,0.784,0.785,2.055,0,2.839
				l-1.402,1.403c-0.784,0.785-2.056,0.785-2.84,0L52.8,50.14c-0.784-0.784-0.784-2.055,0-2.839L54.203,45.897z"/>
		</g>
		<g>
			<path style="fill:#009687;" d="M75.422,41.649l-8.485-8.485l6.364-6.364c1.171-1.171,3.07-1.171,4.242,0l4.242,4.243
				c1.172,1.171,1.172,3.071,0,4.243L75.422,41.649z"/>
		</g>
		<g>
			<path style="fill:#0A3631;" d="M75.422,44.478c0.781-0.781,0.781-2.047,0-2.829l-8.485-8.485c-0.781-0.781-2.048-0.781-2.829,0
				c-0.781,0.781-0.781,2.047,0,2.829l8.486,8.485C73.375,45.259,74.641,45.259,75.422,44.478z"/>
		</g>
		<g>
			<path style="fill:#14635B;" d="M60.592,43.79l4.204,4.204c1.51,0.221,3.1-0.233,4.262-1.395c1.162-1.162,1.616-2.752,1.396-4.262
				l-4.205-4.204c-1.51-0.221-3.1,0.233-4.262,1.395C60.824,40.69,60.371,42.28,60.592,43.79z"/>
		</g>
		<g>
			<path style="fill:#0A3631;" d="M66.937,52.963c0.78-0.781,0.78-2.047,0-2.829l-8.485-8.485c-0.781-0.781-2.047-0.781-2.828,0
				c-0.781,0.781-0.781,2.047,0,2.829l8.484,8.485C64.889,53.744,66.155,53.744,66.937,52.963z"/>
		</g>
		<g>
			<path style="fill:#00B8A5;" d="M77.543,26.8c-1.172-1.172-3.071-1.172-4.242,0l-6.364,6.364l4.085,4.084l8.485-8.485L77.543,26.8
				z"/>
		</g>
		<g>
			<path style="fill:#14635B;" d="M66.937,33.164c-0.781-0.781-2.048-0.781-2.829,0c-0.78,0.781-0.78,2.047,0,2.829l4.086,4.085
				l2.828-2.829L66.937,33.164z"/>
		</g>
		<g>
			<path style="fill:#3E948B;" d="M66.248,38.133c-1.51-0.221-3.1,0.233-4.262,1.395c-1.162,1.162-1.615,2.752-1.395,4.262
				l1.944,1.944l5.657-5.657L66.248,38.133z"/>
		</g>
		<g>
			<path style="fill:#14635B;" d="M58.451,41.649c-0.781-0.781-2.047-0.781-2.828,0c-0.781,0.781-0.781,2.047,0,2.828l4.085,4.085
				l2.828-2.828L58.451,41.649z"/>
		</g>
		<g>
			<path style="fill:#00D6C1;" d="M57.043,45.897c-0.785-0.784-2.056-0.784-2.84,0L52.8,47.301c-0.784,0.784-0.784,2.055,0,2.839
				l2.665,2.666l4.243-4.243L57.043,45.897z"/>
		</g>
		<g>
			<path style="fill:#00B8A5;" d="M50.533,53.531c-2.652-0.539-5.879,0.501-8.346,2.968c-3.446,3.446-4.113,8.378-1.562,11.146
				l12.011-12.011L50.533,53.531z"/>
		</g>
		<path style="fill:#14635B;" d="M51.38,48.721c-0.78-0.781-2.048-0.781-2.828,0c-0.781,0.781-0.781,2.047,0,2.828l4.054,4.054
			l2.828-2.829L51.38,48.721z"/>
	</g>
</g>
<g id="Red" style="display:none;">
	<g style="display:inline;">
		<g>
			<path style="fill:#FFEFED;" d="M25.924,84.076c3.899,3.899,10.244,3.898,14.143,0c3.66-3.661,3.883-9.475,0.671-13.399
				L84.614,26.8c0.78-0.781,0.78-2.047,0-2.829c-0.781-0.781-2.048-0.781-2.829,0L36.536,69.221c-0.784,0.784-0.784,2.055,0,2.839
				l0.702,0.702c2.34,2.339,2.34,6.146,0,8.485c-2.34,2.339-6.146,2.339-8.486,0c-1.972-1.973-2.281-4.988-0.928-7.288
				c0.465-0.79,0.336-1.79-0.312-2.438c-0.921-0.922-2.467-0.725-3.129,0.396C22.12,75.753,22.633,80.785,25.924,84.076z"/>
		</g>
		<g>
			<g>
				<path style="fill:#FFFFFF;" d="M27.824,73.96c0.465-0.79,0.336-1.79-0.312-2.438c-0.921-0.922-2.467-0.725-3.129,0.396
					c-2.062,3.492-1.812,7.975,0.734,11.233l2.868-2.868C26.737,78.376,26.675,75.913,27.824,73.96z"/>
			</g>
			<g>
				<path style="fill:#FFFFFF;" d="M81.785,23.972L36.536,69.221c-0.727,0.728-0.771,1.872-0.146,2.66L84.44,23.83
					C83.655,23.203,82.513,23.245,81.785,23.972z"/>
			</g>
		</g>
		<g>
			<path style="fill:#C23023;" d="M55.055,58.053l-4.521-4.522c-2.652-0.539-5.879,0.502-8.346,2.968
				c-3.515,3.515-4.148,8.58-1.414,11.314c2.734,2.733,7.799,2.1,11.313-1.414C54.553,63.932,55.594,60.705,55.055,58.053z"/>
		</g>
		<g>
			<path style="fill:#4A1410;" d="M59.865,60.034c0.781-0.781,0.781-2.047,0-2.828l-8.485-8.485c-0.781-0.781-2.048-0.781-2.828,0
				c-0.781,0.781-0.781,2.047,0,2.828l8.485,8.485C57.818,60.815,59.084,60.815,59.865,60.034z"/>
		</g>
		<g>
			<path style="fill:#E54B44;" d="M54.203,45.897c0.783-0.784,2.055-0.784,2.84,0l5.645,5.646c0.785,0.784,0.785,2.055,0,2.839
				l-1.402,1.403c-0.784,0.785-2.056,0.785-2.84,0L52.8,50.14c-0.784-0.784-0.784-2.055,0-2.839L54.203,45.897z"/>
		</g>
		<g>
			<path style="fill:#C23023;" d="M75.422,41.649l-8.485-8.485l6.364-6.364c1.171-1.171,3.07-1.171,4.242,0l4.242,4.243
				c1.172,1.171,1.172,3.071,0,4.243L75.422,41.649z"/>
		</g>
		<g>
			<path style="fill:#4A1410;" d="M75.422,44.478c0.781-0.781,0.781-2.047,0-2.829l-8.485-8.485c-0.781-0.781-2.048-0.781-2.829,0
				c-0.781,0.781-0.781,2.047,0,2.829l8.486,8.485C73.375,45.259,74.641,45.259,75.422,44.478z"/>
		</g>
		<g>
			<path style="fill:#7D261E;" d="M60.592,43.79l4.204,4.204c1.51,0.221,3.1-0.232,4.262-1.395c1.162-1.162,1.616-2.752,1.396-4.262
				l-4.205-4.204c-1.51-0.221-3.1,0.233-4.262,1.395C60.824,40.69,60.371,42.28,60.592,43.79z"/>
		</g>
		<g>
			<path style="fill:#4A1410;" d="M66.937,52.963c0.78-0.781,0.78-2.047,0-2.829l-8.485-8.485c-0.781-0.781-2.047-0.781-2.828,0
				c-0.781,0.781-0.781,2.047,0,2.829l8.484,8.485C64.889,53.744,66.155,53.744,66.937,52.963z"/>
		</g>
		<g>
			<path style="fill:#E54B44;" d="M77.543,26.8c-1.172-1.172-3.071-1.172-4.242,0l-6.364,6.364l4.085,4.084l8.485-8.485L77.543,26.8
				z"/>
		</g>
		<g>
			<path style="fill:#7D261E;" d="M66.937,33.164c-0.781-0.781-2.048-0.781-2.829,0c-0.78,0.781-0.78,2.047,0,2.829l4.086,4.085
				l2.828-2.829L66.937,33.164z"/>
		</g>
		<g>
			<path style="fill:#B84E44;" d="M66.248,38.133c-1.51-0.221-3.1,0.233-4.262,1.395c-1.162,1.162-1.615,2.752-1.395,4.262
				l1.944,1.944l5.657-5.657L66.248,38.133z"/>
		</g>
		<g>
			<path style="fill:#7D261E;" d="M58.451,41.649c-0.781-0.781-2.047-0.781-2.828,0c-0.781,0.781-0.781,2.047,0,2.828l4.085,4.085
				l2.828-2.828L58.451,41.649z"/>
		</g>
		<g>
			<path style="fill:#FF6C5E;" d="M57.043,45.897c-0.785-0.784-2.056-0.784-2.84,0L52.8,47.301c-0.784,0.784-0.784,2.055,0,2.839
				l2.665,2.666l4.243-4.243L57.043,45.897z"/>
		</g>
		<g>
			<path style="fill:#E54B44;" d="M50.533,53.531c-2.652-0.539-5.879,0.501-8.346,2.968c-3.446,3.446-4.113,8.378-1.562,11.146
				l12.011-12.011L50.533,53.531z"/>
		</g>
		<path style="fill:#7D261E;" d="M51.38,48.721c-0.78-0.781-2.048-0.781-2.828,0c-0.781,0.781-0.781,2.047,0,2.828l4.054,4.054
			l2.828-2.829L51.38,48.721z"/>
	</g>
</g>
<g id="R-Red" style="display:none;">
	<circle style="display:inline;fill:#FABBAF;" cx="55" cy="55" r="55"/>
	<g style="display:inline;">
		<g>
			<path style="fill:#FFEFED;" d="M25.924,84.076c3.899,3.899,10.244,3.898,14.143,0c3.66-3.661,3.883-9.475,0.671-13.399
				L84.614,26.8c0.78-0.781,0.78-2.047,0-2.829c-0.781-0.781-2.048-0.781-2.829,0L36.536,69.221c-0.784,0.784-0.784,2.055,0,2.839
				l0.702,0.702c2.34,2.339,2.34,6.146,0,8.485c-2.34,2.339-6.146,2.339-8.486,0c-1.972-1.973-2.281-4.988-0.928-7.288
				c0.465-0.79,0.336-1.79-0.312-2.438c-0.921-0.922-2.467-0.725-3.129,0.396C22.12,75.753,22.633,80.785,25.924,84.076z"/>
		</g>
		<g>
			<g>
				<path style="fill:#FFFFFF;" d="M27.824,73.96c0.465-0.79,0.336-1.79-0.312-2.438c-0.921-0.922-2.467-0.725-3.129,0.396
					c-2.062,3.492-1.812,7.975,0.734,11.233l2.868-2.868C26.737,78.376,26.675,75.913,27.824,73.96z"/>
			</g>
			<g>
				<path style="fill:#FFFFFF;" d="M81.785,23.972L36.536,69.221c-0.727,0.728-0.771,1.872-0.146,2.66L84.44,23.83
					C83.655,23.203,82.513,23.245,81.785,23.972z"/>
			</g>
		</g>
		<g>
			<path style="fill:#C23023;" d="M55.055,58.053l-4.521-4.522c-2.652-0.539-5.879,0.502-8.346,2.968
				c-3.515,3.515-4.148,8.58-1.414,11.314c2.734,2.733,7.799,2.1,11.313-1.414C54.553,63.932,55.594,60.705,55.055,58.053z"/>
		</g>
		<g>
			<path style="fill:#4A1410;" d="M59.865,60.034c0.781-0.781,0.781-2.047,0-2.828l-8.485-8.485c-0.781-0.781-2.048-0.781-2.828,0
				c-0.781,0.781-0.781,2.047,0,2.828l8.485,8.485C57.818,60.815,59.084,60.815,59.865,60.034z"/>
		</g>
		<g>
			<path style="fill:#E54B44;" d="M54.203,45.897c0.783-0.784,2.055-0.784,2.84,0l5.645,5.646c0.785,0.784,0.785,2.055,0,2.839
				l-1.402,1.403c-0.784,0.785-2.056,0.785-2.84,0L52.8,50.14c-0.784-0.784-0.784-2.055,0-2.839L54.203,45.897z"/>
		</g>
		<g>
			<path style="fill:#C23023;" d="M75.422,41.649l-8.485-8.485l6.364-6.364c1.171-1.171,3.07-1.171,4.242,0l4.242,4.243
				c1.172,1.171,1.172,3.071,0,4.243L75.422,41.649z"/>
		</g>
		<g>
			<path style="fill:#4A1410;" d="M75.422,44.478c0.781-0.781,0.781-2.047,0-2.829l-8.485-8.485c-0.781-0.781-2.048-0.781-2.829,0
				c-0.781,0.781-0.781,2.047,0,2.829l8.486,8.485C73.375,45.259,74.641,45.259,75.422,44.478z"/>
		</g>
		<g>
			<path style="fill:#7D261E;" d="M60.592,43.79l4.204,4.204c1.51,0.221,3.1-0.232,4.262-1.395c1.162-1.162,1.616-2.752,1.396-4.262
				l-4.205-4.204c-1.51-0.221-3.1,0.233-4.262,1.395C60.824,40.69,60.371,42.28,60.592,43.79z"/>
		</g>
		<g>
			<path style="fill:#4A1410;" d="M66.937,52.963c0.78-0.781,0.78-2.047,0-2.829l-8.485-8.485c-0.781-0.781-2.047-0.781-2.828,0
				c-0.781,0.781-0.781,2.047,0,2.829l8.484,8.485C64.889,53.744,66.155,53.744,66.937,52.963z"/>
		</g>
		<g>
			<path style="fill:#E54B44;" d="M77.543,26.8c-1.172-1.172-3.071-1.172-4.242,0l-6.364,6.364l4.085,4.084l8.485-8.485L77.543,26.8
				z"/>
		</g>
		<g>
			<path style="fill:#7D261E;" d="M66.937,33.164c-0.781-0.781-2.048-0.781-2.829,0c-0.78,0.781-0.78,2.047,0,2.829l4.086,4.085
				l2.828-2.829L66.937,33.164z"/>
		</g>
		<g>
			<path style="fill:#B84E44;" d="M66.248,38.133c-1.51-0.221-3.1,0.233-4.262,1.395c-1.162,1.162-1.615,2.752-1.395,4.262
				l1.944,1.944l5.657-5.657L66.248,38.133z"/>
		</g>
		<g>
			<path style="fill:#7D261E;" d="M58.451,41.649c-0.781-0.781-2.047-0.781-2.828,0c-0.781,0.781-0.781,2.047,0,2.828l4.085,4.085
				l2.828-2.828L58.451,41.649z"/>
		</g>
		<g>
			<path style="fill:#FF6C5E;" d="M57.043,45.897c-0.785-0.784-2.056-0.784-2.84,0L52.8,47.301c-0.784,0.784-0.784,2.055,0,2.839
				l2.665,2.666l4.243-4.243L57.043,45.897z"/>
		</g>
		<g>
			<path style="fill:#E54B44;" d="M50.533,53.531c-2.652-0.539-5.879,0.501-8.346,2.968c-3.446,3.446-4.113,8.378-1.562,11.146
				l12.011-12.011L50.533,53.531z"/>
		</g>
		<path style="fill:#7D261E;" d="M51.38,48.721c-0.78-0.781-2.048-0.781-2.828,0c-0.781,0.781-0.781,2.047,0,2.828l4.054,4.054
			l2.828-2.829L51.38,48.721z"/>
	</g>
</g>
<g id="Yellow" style="display:none;">
	<g style="display:inline;">
		<g>
			<path style="fill:#FFF5D9;" d="M25.924,84.076c3.899,3.899,10.244,3.898,14.143,0c3.66-3.661,3.883-9.475,0.671-13.399
				L84.614,26.8c0.78-0.781,0.78-2.047,0-2.829c-0.781-0.781-2.048-0.781-2.829,0L36.536,69.221c-0.784,0.784-0.784,2.055,0,2.839
				l0.702,0.702c2.34,2.339,2.34,6.146,0,8.485c-2.34,2.339-6.146,2.339-8.486,0c-1.972-1.973-2.281-4.988-0.928-7.288
				c0.465-0.79,0.336-1.79-0.312-2.438c-0.921-0.922-2.467-0.725-3.129,0.396C22.12,75.753,22.633,80.785,25.924,84.076z"/>
		</g>
		<g>
			<g>
				<path style="fill:#FFFFFF;" d="M27.824,73.96c0.465-0.79,0.336-1.79-0.312-2.438c-0.921-0.922-2.467-0.725-3.129,0.396
					c-2.062,3.492-1.812,7.975,0.734,11.233l2.868-2.868C26.737,78.376,26.675,75.913,27.824,73.96z"/>
			</g>
			<g>
				<path style="fill:#FFFFFF;" d="M81.785,23.972L36.536,69.221c-0.727,0.728-0.771,1.872-0.146,2.66L84.44,23.83
					C83.655,23.203,82.513,23.245,81.785,23.972z"/>
			</g>
		</g>
		<g>
			<path style="fill:#E07000;" d="M55.055,58.053l-4.521-4.522c-2.652-0.539-5.879,0.502-8.346,2.968
				c-3.515,3.515-4.148,8.58-1.414,11.314c2.734,2.733,7.799,2.1,11.313-1.414C54.553,63.932,55.594,60.705,55.055,58.053z"/>
		</g>
		<g>
			<path style="fill:#3D320C;" d="M59.865,60.034c0.781-0.781,0.781-2.047,0-2.828l-8.485-8.485c-0.781-0.781-2.048-0.781-2.828,0
				c-0.781,0.781-0.781,2.047,0,2.828l8.485,8.485C57.818,60.815,59.084,60.815,59.865,60.034z"/>
		</g>
		<g>
			<path style="fill:#FA9200;" d="M54.203,45.897c0.783-0.784,2.055-0.784,2.84,0l5.645,5.646c0.785,0.784,0.785,2.055,0,2.839
				l-1.402,1.403c-0.784,0.785-2.056,0.785-2.84,0L52.8,50.14c-0.784-0.784-0.784-2.055,0-2.839L54.203,45.897z"/>
		</g>
		<g>
			<path style="fill:#E07000;" d="M75.422,41.649l-8.485-8.485l6.364-6.364c1.171-1.171,3.07-1.171,4.242,0l4.242,4.243
				c1.172,1.171,1.172,3.071,0,4.243L75.422,41.649z"/>
		</g>
		<g>
			<path style="fill:#3D320C;" d="M75.422,44.478c0.781-0.781,0.781-2.047,0-2.829l-8.485-8.485c-0.781-0.781-2.048-0.781-2.829,0
				c-0.781,0.781-0.781,2.047,0,2.829l8.486,8.485C73.375,45.259,74.641,45.259,75.422,44.478z"/>
		</g>
		<g>
			<path style="fill:#66510D;" d="M60.592,43.79l4.204,4.204c1.51,0.221,3.1-0.233,4.262-1.395c1.162-1.162,1.616-2.752,1.396-4.262
				l-4.205-4.204c-1.51-0.221-3.1,0.233-4.262,1.395C60.824,40.69,60.371,42.28,60.592,43.79z"/>
		</g>
		<g>
			<path style="fill:#3D320C;" d="M66.937,52.963c0.78-0.781,0.78-2.047,0-2.829l-8.485-8.485c-0.781-0.781-2.047-0.781-2.828,0
				c-0.781,0.781-0.781,2.047,0,2.829l8.484,8.485C64.889,53.744,66.155,53.744,66.937,52.963z"/>
		</g>
		<g>
			<path style="fill:#FA9200;" d="M77.543,26.8c-1.172-1.172-3.071-1.172-4.242,0l-6.364,6.364l4.085,4.084l8.485-8.485L77.543,26.8
				z"/>
		</g>
		<g>
			<path style="fill:#66510D;" d="M66.937,33.164c-0.781-0.781-2.048-0.781-2.829,0c-0.78,0.781-0.78,2.047,0,2.829l4.086,4.085
				l2.828-2.829L66.937,33.164z"/>
		</g>
		<g>
			<path style="fill:#947615;" d="M66.248,38.133c-1.51-0.221-3.1,0.233-4.262,1.395c-1.162,1.162-1.615,2.752-1.395,4.262
				l1.944,1.944l5.657-5.657L66.248,38.133z"/>
		</g>
		<g>
			<path style="fill:#66510D;" d="M58.451,41.649c-0.781-0.781-2.047-0.781-2.828,0c-0.781,0.781-0.781,2.047,0,2.828l4.085,4.085
				l2.828-2.828L58.451,41.649z"/>
		</g>
		<g>
			<path style="fill:#FFAA00;" d="M57.043,45.897c-0.785-0.784-2.056-0.784-2.84,0L52.8,47.301c-0.784,0.784-0.784,2.055,0,2.839
				l2.665,2.666l4.243-4.243L57.043,45.897z"/>
		</g>
		<g>
			<path style="fill:#FA9200;" d="M50.533,53.531c-2.652-0.539-5.879,0.501-8.346,2.968c-3.446,3.446-4.113,8.378-1.562,11.146
				l12.011-12.011L50.533,53.531z"/>
		</g>
		<path style="fill:#66510D;" d="M51.38,48.721c-0.78-0.781-2.048-0.781-2.828,0c-0.781,0.781-0.781,2.047,0,2.828l4.054,4.054
			l2.828-2.829L51.38,48.721z"/>
	</g>
</g>
<g id="R-Yellow" style="display:none;">
	<circle style="display:inline;fill:#FFD75E;" cx="55" cy="55" r="55"/>
	<g style="display:inline;">
		<g>
			<path style="fill:#FFF5D9;" d="M25.924,84.076c3.899,3.899,10.244,3.898,14.143,0c3.66-3.661,3.883-9.475,0.671-13.399
				L84.614,26.8c0.78-0.781,0.78-2.047,0-2.829c-0.781-0.781-2.048-0.781-2.829,0L36.536,69.221c-0.784,0.784-0.784,2.055,0,2.839
				l0.702,0.702c2.34,2.339,2.34,6.146,0,8.485c-2.34,2.339-6.146,2.339-8.486,0c-1.972-1.973-2.281-4.988-0.928-7.288
				c0.465-0.79,0.336-1.79-0.312-2.438c-0.921-0.922-2.467-0.725-3.129,0.396C22.12,75.753,22.633,80.785,25.924,84.076z"/>
		</g>
		<g>
			<g>
				<path style="fill:#FFFFFF;" d="M27.824,73.96c0.465-0.79,0.336-1.79-0.312-2.438c-0.921-0.922-2.467-0.725-3.129,0.396
					c-2.062,3.492-1.812,7.975,0.734,11.233l2.868-2.868C26.737,78.376,26.675,75.913,27.824,73.96z"/>
			</g>
			<g>
				<path style="fill:#FFFFFF;" d="M81.785,23.972L36.536,69.221c-0.728,0.728-0.771,1.872-0.147,2.66L84.44,23.83
					C83.655,23.203,82.513,23.245,81.785,23.972z"/>
			</g>
		</g>
		<g>
			<path style="fill:#E07000;" d="M55.055,58.053l-4.521-4.522c-2.652-0.539-5.879,0.502-8.346,2.968
				c-3.515,3.515-4.148,8.58-1.414,11.314c2.734,2.733,7.799,2.1,11.313-1.414C54.553,63.932,55.594,60.705,55.055,58.053z"/>
		</g>
		<g>
			<path style="fill:#3D320C;" d="M59.865,60.034c0.781-0.781,0.781-2.047,0-2.828l-8.485-8.485c-0.781-0.781-2.048-0.781-2.828,0
				c-0.781,0.781-0.781,2.047,0,2.828l8.485,8.485C57.818,60.815,59.084,60.815,59.865,60.034z"/>
		</g>
		<g>
			<path style="fill:#FA9200;" d="M54.203,45.897c0.783-0.784,2.055-0.784,2.84,0l5.645,5.646c0.785,0.784,0.785,2.055,0,2.839
				l-1.402,1.403c-0.784,0.785-2.056,0.785-2.84,0L52.8,50.14c-0.784-0.784-0.784-2.055,0-2.839L54.203,45.897z"/>
		</g>
		<g>
			<path style="fill:#E07000;" d="M75.422,41.649l-8.485-8.485l6.364-6.364c1.171-1.171,3.07-1.171,4.242,0l4.242,4.243
				c1.172,1.171,1.172,3.071,0,4.243L75.422,41.649z"/>
		</g>
		<g>
			<path style="fill:#3D320C;" d="M75.422,44.478c0.781-0.781,0.781-2.047,0-2.829l-8.485-8.485c-0.781-0.781-2.048-0.781-2.829,0
				c-0.781,0.781-0.781,2.047,0,2.829l8.486,8.485C73.375,45.259,74.641,45.259,75.422,44.478z"/>
		</g>
		<g>
			<path style="fill:#66510D;" d="M60.592,43.79l4.204,4.204c1.51,0.221,3.1-0.233,4.262-1.395c1.162-1.162,1.616-2.752,1.396-4.262
				l-4.205-4.204c-1.51-0.221-3.1,0.233-4.262,1.395C60.824,40.69,60.371,42.28,60.592,43.79z"/>
		</g>
		<g>
			<path style="fill:#3D320C;" d="M66.937,52.963c0.78-0.781,0.78-2.047,0-2.829l-8.485-8.485c-0.781-0.781-2.047-0.781-2.828,0
				c-0.781,0.781-0.781,2.047,0,2.829l8.484,8.485C64.889,53.744,66.155,53.744,66.937,52.963z"/>
		</g>
		<g>
			<path style="fill:#FA9200;" d="M77.543,26.8c-1.172-1.172-3.071-1.172-4.242,0l-6.364,6.364l4.085,4.084l8.485-8.485L77.543,26.8
				z"/>
		</g>
		<g>
			<path style="fill:#66510D;" d="M66.937,33.164c-0.781-0.781-2.048-0.781-2.829,0c-0.78,0.781-0.78,2.047,0,2.829l4.086,4.085
				l2.828-2.829L66.937,33.164z"/>
		</g>
		<g>
			<path style="fill:#947615;" d="M66.248,38.133c-1.51-0.221-3.1,0.233-4.262,1.395c-1.162,1.162-1.615,2.752-1.395,4.262
				l1.944,1.944l5.657-5.657L66.248,38.133z"/>
		</g>
		<g>
			<path style="fill:#66510D;" d="M58.451,41.649c-0.781-0.781-2.047-0.781-2.828,0c-0.781,0.781-0.781,2.047,0,2.828l4.085,4.085
				l2.828-2.828L58.451,41.649z"/>
		</g>
		<g>
			<path style="fill:#FFAA00;" d="M57.043,45.897c-0.785-0.784-2.056-0.784-2.84,0L52.8,47.301c-0.784,0.784-0.784,2.055,0,2.839
				l2.665,2.666l4.243-4.243L57.043,45.897z"/>
		</g>
		<g>
			<path style="fill:#FA9200;" d="M50.533,53.531c-2.652-0.539-5.879,0.501-8.346,2.968c-3.446,3.446-4.113,8.378-1.562,11.146
				l12.011-12.011L50.533,53.531z"/>
		</g>
		<path style="fill:#66510D;" d="M51.38,48.721c-0.78-0.781-2.048-0.781-2.828,0c-0.781,0.781-0.781,2.047,0,2.828l4.054,4.054
			l2.828-2.829L51.38,48.721z"/>
	</g>
</g>
</svg>
