<?xml version="1.0" encoding="iso-8859-1"?>
<!-- Generator: Adobe Illustrator 17.1.0, SVG Export Plug-In . SVG Version: 6.00 Build 0)  -->
<!DOCTYPE svg PUBLIC "-//W3C//DTD SVG 1.0//EN" "http://www.w3.org/TR/2001/REC-SVG-20010904/DTD/svg10.dtd">
<svg version="1.0" xmlns="http://www.w3.org/2000/svg" xmlns:xlink="http://www.w3.org/1999/xlink" x="0px" y="0px" width="110px"
	 height="110px" viewBox="0 0 110 110" style="enable-background:new 0 0 110 110;" xml:space="preserve">
<g id="Artboard">
</g>
<g id="Multicolor">
	<circle style="fill:#25B7D3;" cx="55" cy="55" r="55"/>
	<g>
		<g>
			<path style="fill:#FFFFFF;" d="M71,73c0,1.105-0.895,2-2,2H29c-1.105,0-2-0.895-2-2v-2c0-1.105,0.895-2,2-2h40
				c1.105,0,2,0.895,2,2V73z"/>
		</g>
		<g>
			<path style="fill:#FFFFFF;" d="M84.959,52.669c0.867,0.684,1.015,1.942,0.331,2.809L74.14,69.609
				c-0.684,0.867-1.942,1.015-2.809,0.331l-1.57-1.239c-0.867-0.684-1.015-1.942-0.331-2.809l11.15-14.131
				c0.684-0.867,1.942-1.015,2.809-0.331L84.959,52.669z"/>
		</g>
		<g>
			<path style="fill:#84462D;" d="M84.935,60.433c-0.132-1.052-0.676-2.009-1.513-2.661L70.022,75H32
				c-0.694,0-1.339,0.36-1.703,0.952L23.498,87h4.696l4.923-8H71c0.022,0,0.043-0.007,0.066-0.008L77.841,87h5.24l-9.028-10.669
				l10.07-12.946C84.774,62.547,85.066,61.485,84.935,60.433z"/>
		</g>
		<g>
			<circle style="fill:#F3B607;" cx="41" cy="42" r="11"/>
		</g>
		<g>
			<polygon style="fill:#FACB1B;" points="39,28 43,28 41,24 			"/>
		</g>
		<g>
			<polygon style="fill:#FACB1B;" points="49.485,30.686 52.314,33.515 53.728,29.272 			"/>
		</g>
		<g>
			<polygon style="fill:#FACB1B;" points="55,40 55,44 59,42 			"/>
		</g>
		<g>
			<polygon style="fill:#FACB1B;" points="52.314,50.485 49.485,53.314 53.728,54.728 			"/>
		</g>
		<g>
			<polygon style="fill:#FACB1B;" points="43,56 39,56 41,60 			"/>
		</g>
		<g>
			<polygon style="fill:#FACB1B;" points="32.515,53.314 29.686,50.485 28.272,54.728 			"/>
		</g>
		<g>
			<polygon style="fill:#FACB1B;" points="27,44 27,40 23,42 			"/>
		</g>
		<g>
			<polygon style="fill:#FACB1B;" points="29.686,33.515 32.515,30.686 28.272,29.272 			"/>
		</g>
		<g>
			<path style="fill:#FACB1B;" d="M41,31c-6.075,0-11,4.925-11,11c0,3.023,1.221,5.76,3.195,7.748l15.554-15.554
				C46.76,32.221,44.023,31,41,31z"/>
		</g>
	</g>
</g>
</svg>
