<?xml version="1.0" encoding="iso-8859-1"?>
<!-- Generator: Adobe Illustrator 17.1.0, SVG Export Plug-In . SVG Version: 6.00 Build 0)  -->
<!DOCTYPE svg PUBLIC "-//W3C//DTD SVG 1.0//EN" "http://www.w3.org/TR/2001/REC-SVG-20010904/DTD/svg10.dtd">
<svg version="1.0" xmlns="http://www.w3.org/2000/svg" xmlns:xlink="http://www.w3.org/1999/xlink" x="0px" y="0px" width="110px"
	 height="110px" viewBox="0 0 110 110" style="enable-background:new 0 0 110 110;" xml:space="preserve">
<g id="Artboard">
</g>
<g id="Multicolor">
	<circle style="fill:#25B7D3;" cx="55" cy="55" r="55"/>
	<g>
		<g>
			<path style="fill:#0C7367;" d="M33.958,63c-1,2,0,6,1,8c0.821-4.439,2.351-7.67,5-9c2.667-0.667,5.333,0,8,2c1-2-2-5-4-5
				c1.333-2,4-2.667,8-2c-2-2-5.333-2.667-10-2c-0.015-2.158,2.136-4.972,5-8c-3.875,0.189-7.568,2.245-11,7
				c-3.875-0.662-7.568-0.167-11,2c2.533-0.655,6,1,7,2c-6.707,2.036-8.287,6.986-8,13C25.958,67,29.291,64.333,33.958,63z"/>
		</g>
		<g>
			<path style="fill:#0C7367;" d="M53.958,53c0.093-5.576,1.863-9.972,7-12c-1-2-8-5-15-5c6-4,16-4,20-1c0-4-1.333-8-4-12
				c5,1,10,5,11,10c2.699-2.14,8-3,13-1c-5.202,1.816-6.561,3.416-8,6c6.991,1.315,8.313,5.713,8,11c-2.667-3.333-6.667-5.333-12-6
				c4.383,5.645,3.617,10.141,0,14c-1.441-6.379-3.659-10.397-7-11C62.958,45,55.958,50,53.958,53z"/>
		</g>
		<path style="fill:#84462D;" d="M60.108,79.147c0.982-18.987,6.613-27.566,8.923-32.233c-0.639-0.464-1.326-0.779-2.073-0.914
			c-0.341-0.085-0.709-0.113-1.088-0.116c-6.877,5.664-12.83,23.415-15.851,32.938C53.394,78.739,56.795,78.86,60.108,79.147z"/>
		<path style="fill:#692E19;" d="M50.373,78.812c-2.44-9.849-4.896-14.377-7.31-16.98c-1.035-0.143-2.069-0.091-3.104,0.168
			c-0.414,0.208-0.792,0.478-1.153,0.776c3.008,6.557,4.299,12.32,4.837,16.466C45.849,78.997,48.104,78.858,50.373,78.812z"/>
		<g>
			<path style="fill:#F8E1C2;" d="M23,87h64C80.016,79.881,38.692,72.783,23,87z"/>
		</g>
		<g>
			<path style="fill:#FCF1E2;" d="M23,87h19.164l13.938-8.118C43.564,78.325,30.418,80.279,23,87z"/>
		</g>
	</g>
</g>
</svg>
