<?xml version="1.0" encoding="iso-8859-1"?>
<!-- Generator: Adobe Illustrator 17.1.0, SVG Export Plug-In . SVG Version: 6.00 Build 0)  -->
<!DOCTYPE svg PUBLIC "-//W3C//DTD SVG 1.0//EN" "http://www.w3.org/TR/2001/REC-SVG-20010904/DTD/svg10.dtd">
<svg version="1.0" xmlns="http://www.w3.org/2000/svg" xmlns:xlink="http://www.w3.org/1999/xlink" x="0px" y="0px" width="110px"
	 height="110px" viewBox="0 0 110 110" style="enable-background:new 0 0 110 110;" xml:space="preserve">
<g id="Artboard">
</g>
<g id="Multicolor">
	<g>
		<circle style="fill:#32BEA6;" cx="55" cy="55" r="55"/>
	</g>
	<g>
		<path style="fill:#FBC8C8;" d="M50.105,66.996L45,63v6l-14.957,4.017C28.698,73.606,27.615,74.667,27,76l-4,11h32V68h-2.655
			C51.489,68,50.674,67.635,50.105,66.996z"/>
		<path style="fill:#F7B4B4;" d="M83,76c-0.615-1.333-1.698-2.394-3.043-2.983L65,69v-6l-5.105,3.996
			C59.326,67.635,58.511,68,57.655,68H55v19h32L83,76z"/>
		<path style="fill:#FBC8C8;" d="M72,47.259c0-1.111-1-2.222-2-2.222s-1,1.111-1,1.111v-1.111c-0.018-9-1.024-15-14-15
			s-13.982,6-14,15V53l4,10l5.105,3.996C50.674,67.635,51.489,68,52.345,68H55h2.655c0.856,0,1.671-0.365,2.24-1.004L65,63
			l3.193-7.982C71.039,54.827,72,50.518,72,47.259z"/>
		<path style="fill:#FBD7D7;" d="M41,45.036v1.111c0,0,0-1.111-1-1.111s-2,1.111-2,2.222c0,3.259,0.961,7.568,3.807,7.76L45,63
			l5.105,3.996C50.674,67.635,51.489,68,52.345,68H55V30.036C42.024,30.036,41.018,36.036,41,45.036z"/>
		<g>
			<g>
				<path style="fill:#FFFFFF;" d="M55,78.688c-7.001,0-13-5.433-13-9.88c0-0.287,0.233-0.52,0.52-0.52s0.52,0.233,0.52,0.52
					c0,5.044,7.255,8.84,11.96,8.84s11.96-3.796,11.96-8.84c0-0.287,0.233-0.52,0.52-0.52c0.287,0,0.52,0.233,0.52,0.52
					C68,73.255,62.001,78.688,55,78.688z"/>
			</g>
		</g>
		<g>
			<ellipse style="fill:#FA5655;" cx="55" cy="78.79" rx="1.04" ry="2.496"/>
		</g>
		<g>
			<g>
				<ellipse style="fill:#12B2A0;" cx="59.16" cy="77.542" rx="1.04" ry="2.496"/>
			</g>
		</g>
		<g>
			<g>
				<ellipse style="fill:#12B2A0;" cx="49.8" cy="77.749" rx="1.04" ry="2.496"/>
			</g>
		</g>
		<g>
			<path style="fill:#3E3E3F;" d="M52,47.036c0-1.104-0.896-2-2-2c-0.002,0-0.004,0-0.006,0C49.995,45.058,50,45.078,50,45.099
				c0,1.103-0.892,1.996-1.994,2c0.033,1.075,0.91,1.938,1.994,1.938C51.104,49.036,52,48.141,52,47.036z"/>
		</g>
		<g>
			<path style="fill:#3E3E3F;" d="M61.994,47.036c0-1.104-0.896-2-2-2c-0.002,0-0.004,0-0.006,0
				c0.001,0.021,0.006,0.041,0.006,0.062c0,1.103-0.892,1.996-1.994,2c0.033,1.075,0.91,1.938,1.994,1.938
				C61.098,49.036,61.994,48.141,61.994,47.036z"/>
		</g>
		<g>
			<path style="fill:#F79392;" d="M50,57.036h10c0,0,0,3-5,3S50,57.036,50,57.036z"/>
		</g>
		<path style="fill:#84462D;" d="M61.033,26.036c-2,2-3,3-6-2c-3,5-4,4-6,2c-9,7-8,8.072-8,20.997l2,0.003c0-7.619,1-9,4.5-12
			c1.137,1.515,3.711,2.911,7.5,3c3.789-0.089,6.363-1.485,7.5-3c3.5,3,4.5,4.381,4.5,12l2-0.003
			C69.033,34.108,70.033,33.036,61.033,26.036z"/>
		<g>
			<path style="fill:#9C6144;" d="M55.033,24.036c-3,5-4,4-6,2c-9,7-8,8.072-8,20.997l2,0.003c0-7.619,1-9,4.5-12
				c1.137,1.515,3.711,2.911,7.5,3V24.036z"/>
		</g>
	</g>
</g>
</svg>
