<?xml version="1.0" encoding="iso-8859-1"?>
<!-- Generator: Adobe Illustrator 17.1.0, SVG Export Plug-In . SVG Version: 6.00 Build 0)  -->
<!DOCTYPE svg PUBLIC "-//W3C//DTD SVG 1.0//EN" "http://www.w3.org/TR/2001/REC-SVG-20010904/DTD/svg10.dtd">
<svg version="1.0" xmlns="http://www.w3.org/2000/svg" xmlns:xlink="http://www.w3.org/1999/xlink" x="0px" y="0px" width="110px"
	 height="110px" viewBox="0 0 110 110" style="enable-background:new 0 0 110 110;" xml:space="preserve">
<g id="Artboard">
</g>
<g id="Multicolor">
	<circle style="fill:#32BEA6;" cx="55" cy="55" r="55"/>
	<g>
		<g>
			<path style="fill:#F8E1C2;" d="M86.644,82.939c0.413,0.922,0.263,1.955-0.401,2.766S84.486,87,83.318,87h-56.76
				c-1.168,0-2.262-0.484-2.926-1.294c-0.664-0.81-0.815-1.845-0.403-2.766C26.295,76.096,34.794,63,54.937,63
				C75.079,63,83.578,76.094,86.644,82.939z"/>
		</g>
		<g>
			
				<rect x="54.683" y="49.053" transform="matrix(0.9766 -0.2151 0.2151 0.9766 -12.5575 13.7023)" style="fill:#3E3E3F;" width="4" height="31"/>
		</g>
		<g>
			<polygon style="fill:#5B5C5F;" points="55.302,48.985 51.396,49.845 54.271,62.9 57.628,59.543 			"/>
		</g>
		<g>
			<path style="fill:#FCF1E2;" d="M23.229,82.94c-0.413,0.921-0.262,1.956,0.403,2.766C24.296,86.516,25.39,87,26.558,87h3.613
				l23.984-23.984C34.579,63.353,26.255,76.186,23.229,82.94z"/>
		</g>
		<g>
			<circle style="fill:#40C9E7;" cx="74.937" cy="67" r="8"/>
		</g>
		<g>
			<path style="fill:#F0F1F1;" d="M80.817,45.035c-5.478-0.109-11.061,1.781-15.425,5.701c-3.57-1.098-7.456-1.307-11.362-0.447
				c-4.111,0.905-7.702,2.874-10.551,5.56c-5.759-1.924-11.844-1.344-16.941,1.14c-1.362-13.903,7.857-26.951,21.842-30.031
				S76.213,31.846,80.817,45.035z"/>
		</g>
		<g>
			<path style="fill:#DF2C2C;" d="M48.38,26.958c8.606,5.281,15.077,13.683,17.012,23.777c4.467-4.033,10.076-5.806,15.425-5.701
				C76.267,32.002,62.659,23.814,48.38,26.958z"/>
		</g>
		<g>
			<path style="fill:#FACB1B;" d="M32.938,69.897l-1.104,1.808c-0.395,0.646-0.39,1.46,0.012,2.103L33.843,77
				c1.568-1.891,3.567-3.771,6.094-5.343l-1.309-2.092c-0.402-0.642-1.132-1.002-1.886-0.93l-2.108,0.202l-1.235-1.975l0.093-3.218
				c0.01-0.346-0.172-0.67-0.472-0.843c-0.301-0.172-0.672-0.166-0.966,0.019l-3.397,2.126c-0.294,0.184-0.462,0.515-0.439,0.861
				c0.024,0.346,0.236,0.65,0.552,0.793l2.935,1.324L32.938,69.897z M29.778,66.194c-0.194-0.088-0.325-0.275-0.339-0.488
				c-0.015-0.213,0.089-0.417,0.27-0.53l2.09-1.308c0.181-0.113,0.409-0.118,0.594-0.011c0.186,0.105,0.297,0.305,0.291,0.519
				l-0.04,1.38l-1.607,1.006L29.778,66.194z"/>
		</g>
		<path style="fill:#FFFFFF;" d="M81.072,61.865c-0.881-1.052-1.976-1.82-3.167-2.295c-0.308,0.567-0.5,1.208-0.5,1.898
			c0,0.167,0.029,0.326,0.049,0.488c-2.406-0.201-4.879,0.501-6.877,2.173c-1.725,1.444-2.812,3.371-3.215,5.429
			c0.218,0.665,0.531,1.303,0.931,1.907c1.06-1.865,2.469-3.579,4.209-5.036c1.647-1.379,3.467-2.414,5.367-3.126
			c0.297,0.571,0.717,1.066,1.24,1.434c-1.038,1.755-2.384,3.374-4.04,4.759c-1.741,1.457-3.676,2.542-5.699,3.257
			c0.524,0.501,1.097,0.921,1.713,1.253c2.098-0.034,4.186-0.765,5.911-2.209c2.025-1.695,3.157-4.045,3.361-6.485
			c0.336,0.092,0.683,0.156,1.048,0.156c0.468,0,0.91-0.095,1.327-0.243C82.461,64.027,81.915,62.873,81.072,61.865z"/>
		<g>
			<circle style="fill:#5B5C5F;" cx="47.874" cy="25" r="2"/>
		</g>
		<path style="fill:#FFFFFF;" d="M48.38,26.958c-13.985,3.08-23.204,16.128-21.842,30.031c4.34-2.115,9.397-2.843,14.359-1.827
			l25.939-25.94C61.318,26.481,54.865,25.53,48.38,26.958z"/>
		<path style="fill:#FA5655;" d="M48.38,26.958c4.227,2.594,7.934,5.944,10.846,9.874l7.636-7.636
			C61.39,26.471,54.958,25.51,48.38,26.958z"/>
		<g>
			<path style="fill:#DF2C2C;" d="M48.443,26.925c-5.591,8.408-7.449,18.95-4.964,28.924c-5.377-1.805-11.403-1.557-16.941,1.14
				c-1.362-13.902,7.823-26.962,21.808-30.042L48.443,26.925z"/>
		</g>
		<path style="fill:#FA5655;" d="M48.443,26.925l-0.098,0.021c-13.985,3.08-23.169,16.14-21.808,30.042
			c4.669-2.274,9.683-2.801,14.363-1.831l2.023-2.023C41.373,43.989,43.357,34.574,48.443,26.925z"/>
	</g>
</g>
</svg>
