<?xml version="1.0" encoding="iso-8859-1"?>
<!-- Generator: Adobe Illustrator 17.1.0, SVG Export Plug-In . SVG Version: 6.00 Build 0)  -->
<!DOCTYPE svg PUBLIC "-//W3C//DTD SVG 1.0//EN" "http://www.w3.org/TR/2001/REC-SVG-20010904/DTD/svg10.dtd">
<svg version="1.0" xmlns="http://www.w3.org/2000/svg" xmlns:xlink="http://www.w3.org/1999/xlink" x="0px" y="0px" width="110px"
	 height="110px" viewBox="0 0 110 110" style="enable-background:new 0 0 110 110;" xml:space="preserve">
<g id="Artboard">
</g>
<g id="Multicolor">
	<circle style="fill:#E04F5F;" cx="55" cy="55" r="55"/>
	<g>
		<g>
			<path style="fill:#C9F2F8;" d="M69.18,51.97L59,35v-8h2c1.105,0,2-0.895,2-2c0-1.105-0.895-2-2-2H49c-1.105,0-2,0.895-2,2
				c0,1.105,0.895,2,2,2h2v8L40.82,51.97c-0.37,0.62-0.38,1.39-0.03,2.02c0.36,0.62,1.02,1.01,1.74,1.01h24.94
				c0.72,0,1.38-0.39,1.74-1.01C69.56,53.36,69.55,52.59,69.18,51.97z"/>
		</g>
		<polygon style="fill:#F4D0A1;" points="71.786,61 66.786,61 77,87 82,87 		"/>
		<polygon style="fill:#F4D0A1;" points="38.214,61 28,87 33,87 43.214,61 		"/>
		<g>
			<path style="fill:#D4A263;" d="M31,60c0,0.552,0.448,1,1,1h46c0.552,0,1-0.448,1-1v-4c0-0.552-0.448-1-1-1H32
				c-0.552,0-1,0.448-1,1V60z"/>
		</g>
		<g>
			<path style="fill:#E2E4E5;" d="M65,85c0,1.105-0.895,2-2,2H47c-1.105,0-2-0.895-2-2l0,0c0-1.105,0.895-2,2-2h16
				C64.105,83,65,83.895,65,85L65,85z"/>
		</g>
		<g>
			<path style="fill:#6FDAF1;" d="M65.885,51.913c-0.273,0.47-0.773,0.765-1.319,0.765H45.668c-0.546,0-1.046-0.296-1.319-0.765
				c-0.265-0.477-0.258-1.061,0.023-1.531l4.077-6.797h13.337l4.077,6.797C66.143,50.852,66.15,51.436,65.885,51.913z"/>
		</g>
		<g>
			<path style="fill:#FBE158;" d="M54.97,83c-3.333,0-6.667-2.222-6.667-6.667c0-4.444,6.667-7.778,5.556-13.333
				C65.516,70.771,64.166,83,54.97,83z"/>
		</g>
		<g>
			<path style="fill:#FA5655;" d="M55.136,83c-1.481,0-2.963-0.988-2.963-2.963c0-1.975,2.963-3.457,2.469-5.926
				C59.823,77.565,59.223,83,55.136,83z"/>
		</g>
		<g>
			<path style="fill:#FFFFFF;" d="M55,23h-6c-1.104,0-2,0.896-2,2s0.896,2,2,2h2v8L40.82,51.97c-0.37,0.62-0.38,1.39-0.03,2.02
				c0.36,0.62,1.02,1.01,1.74,1.01H55V23z"/>
		</g>
		<g>
			<path style="fill:#9CE5F4;" d="M55.117,43.585h-6.668l-4.077,6.797c-0.28,0.47-0.288,1.053-0.023,1.531
				c0.273,0.47,0.773,0.765,1.319,0.765h9.449V43.585z"/>
		</g>
		<g>
			<path style="fill:#EDBC7C;" d="M55,55H32c-0.552,0-1,0.448-1,1v4c0,0.552,0.448,1,1,1h23V55z"/>
		</g>
	</g>
</g>
</svg>
