<?xml version="1.0" encoding="iso-8859-1"?>
<!-- Generator: Adobe Illustrator 17.1.0, SVG Export Plug-In . SVG Version: 6.00 Build 0)  -->
<!DOCTYPE svg PUBLIC "-//W3C//DTD SVG 1.0//EN" "http://www.w3.org/TR/2001/REC-SVG-20010904/DTD/svg10.dtd">
<svg version="1.0" xmlns="http://www.w3.org/2000/svg" xmlns:xlink="http://www.w3.org/1999/xlink" x="0px" y="0px" width="110px"
	 height="110px" viewBox="0 0 110 110" style="enable-background:new 0 0 110 110;" xml:space="preserve">
<g id="Artboard">
</g>
<g id="Multicolor">
	<g>
		<circle style="fill:#FABC3D;" cx="55" cy="55" r="55"/>
	</g>
	<g>
		<path style="fill:#3E3E3F;" d="M86.854,33c-0.068-0.941-0.784-1.707-1.718-1.837c-0.934-0.13-1.833,0.41-2.156,1.296
			C80.603,38.976,76.366,54.183,74,53c-2-1-6-7-13-7c-6,0-6,0-12,0c-7,0-11,6-13,7c-2.366,1.183-6.603-14.168-8.98-20.685
			c-0.323-0.886-1.221-1.426-2.156-1.295s-1.651,0.896-1.719,1.836C23.055,34.122,23,40.184,23,42c0,11,2,45,32,45s32-34,32-45
			C87,40.184,86.945,34.266,86.854,33z M62,70c-2.85,0-3.669-2.03-3.905-3.198C58.001,66.336,57.592,66,57.116,66H55h-2.116
			c-0.476,0-0.885,0.335-0.979,0.802C51.669,67.97,50.85,70,48,70c-7,0-13-7-8-12c3.793-3.793,9-1,15-6c6,5,11,2,15,6
			C75,63,69,70,62,70z"/>
	</g>
</g>
</svg>
