<?xml version="1.0" encoding="iso-8859-1"?>
<!-- Generator: Adobe Illustrator 17.1.0, SVG Export Plug-In . SVG Version: 6.00 Build 0)  -->
<!DOCTYPE svg PUBLIC "-//W3C//DTD SVG 1.0//EN" "http://www.w3.org/TR/2001/REC-SVG-20010904/DTD/svg10.dtd">
<svg version="1.0" xmlns="http://www.w3.org/2000/svg" xmlns:xlink="http://www.w3.org/1999/xlink" x="0px" y="0px" width="110px"
	 height="110px" viewBox="0 0 110 110" style="enable-background:new 0 0 110 110;" xml:space="preserve">
<g id="Artboard">
</g>
<g id="Multicolor">
	<circle style="fill:#FABC3D;" cx="55" cy="54.98" r="55"/>
	<g>
		<path style="fill:#84462D;" d="M86.928,72.042c-1.125-5.857-4.358-19.342-10.736-30.043c3.969-3.401,6.218-7.663,6.706-12.805
			c0.054-0.572-0.142-1.139-0.535-1.558c-0.394-0.418-0.947-0.648-1.521-0.63c-5.97,0.187-10.866,1.369-14.471,3.744
			c-3.313-2.34-7.082-3.769-11.37-3.769c-21.235,0-29.925,34.63-31.928,45.062c-0.335,1.743,0.519,3.5,2.097,4.312
			C31.294,79.503,47.106,86.98,55,86.98s23.706-7.477,29.831-10.627C86.411,75.541,87.263,73.786,86.928,72.042z"/>
		<path style="fill:#9C6144;" d="M43.63,30.749c-3.605-2.375-8.501-3.557-14.471-3.744c-0.574-0.018-1.127,0.212-1.521,0.63
			c-0.393,0.418-0.589,0.986-0.535,1.558c0.488,5.142,2.736,9.404,6.706,12.805C27.431,52.7,24.197,66.185,23.072,72.042
			c-0.335,1.743,0.519,3.5,2.097,4.312C31.294,79.503,47.106,86.98,55,86.98v-60C50.712,26.98,46.943,28.409,43.63,30.749z"/>
		<path style="fill:#EDBC7C;" d="M70,32.979c2.026-1.414,4.92-2.024,8.501-2c0,3.334-1.333,6.001-4,8.001L70,32.979z"/>
		<path style="fill:#F4D0A1;" d="M40,32.979c-2.026-1.414-4.92-2.024-8.501-2c0,3.334,1.333,6.001,4,8.001L40,32.979z"/>
		<path style="fill:#3E3E3F;" d="M47.417,68.086c-0.116-0.275-0.104-0.587,0.034-0.852c0.138-0.265,0.386-0.454,0.678-0.516
			c4.581-0.984,9.162-0.984,13.742,0c0.292,0.063,0.54,0.252,0.677,0.517s0.151,0.577,0.035,0.852
			c-1.391,3.283-3.806,5.542-7.246,6.777c-0.219,0.079-0.457,0.078-0.675,0C51.223,73.628,48.808,71.369,47.417,68.086z"/>
		<path style="fill:#EDBC7C;" d="M66.8,77.92c-0.05,0.67-0.08,1.34-0.55,1.81l-3.23,3.23l-0.73,0.73
			c-2.016,2.015-4.132,3.29-7.33,3.29c-3.13,0-5.219-1.291-7.25-3.28c0,0,0,0,0-0.01l-0.73-0.73l-3.27-3.27
			c-0.45-0.45-0.49-1.09-0.56-1.73c-0.53-5.11,1.59-12.23,7.37-25.65c0.34-0.78,1.04-1.33,1.89-1.33h5.14c0.87,0,1.56,0.58,1.9,1.38
			C64.76,64.79,67.28,71.61,66.8,77.92z"/>
		<path style="fill:#F4D0A1;" d="M55,50.98h-2.59c-0.85,0-1.55,0.55-1.89,1.33c-5.78,13.42-7.9,20.54-7.37,25.65
			c0.07,0.64,0.11,1.28,0.56,1.73l3.27,3.27l0.73,0.73c0,0.01,0,0.01,0,0.01l0.49,0.48c1.79,1.79,4.22,2.8,6.76,2.8H55V50.98z"/>
		<path style="fill:#84462D;" d="M63.02,82.96l-0.73,0.73c-1.35-2.37-4.51-4.21-7.33-4.21c-2.83,0-5.9,1.81-7.25,4.21l-0.73-0.73
			c1.59-2.56,4.91-4.48,7.98-4.48C58.07,78.48,61.43,80.4,63.02,82.96z"/>
		<path style="fill:#3E3E3F;" d="M47.417,68.086c-0.116-0.275-0.104-0.587,0.034-0.852c0.138-0.265,0.386-0.454,0.678-0.516
			c4.581-0.984,9.162-0.984,13.742,0c0.292,0.063,0.54,0.252,0.677,0.517s0.151,0.577,0.035,0.852
			c-1.391,3.283-3.806,5.542-7.246,6.777c-0.219,0.079-0.457,0.078-0.675,0C51.223,73.628,48.808,71.369,47.417,68.086z"/>
		<path style="fill:#5B5C5F;" d="M47.451,67.234c-0.138,0.265-0.15,0.577-0.034,0.852c1.391,3.283,3.806,5.542,7.245,6.777
			c0.109,0.039,0.224,0.059,0.338,0.059V65.98c-2.291,0-4.581,0.246-6.871,0.738C47.837,66.78,47.588,66.969,47.451,67.234z"/>
		<g>
			<path style="fill:#FFFFFF;" d="M51,44.978c0,1.657-1.343,3-3,3h-4c-1.657,0-3-1.343-3-3v-2.493c0-0.346,0.089-0.687,0.26-0.988
				c0.605-1.063,2.172-3.52,3.74-3.52c1.635,0,4.606,4.009,5.637,5.473C50.874,43.789,51,44.189,51,44.601V44.978z"/>
			<path style="fill:#3E3E3F;" d="M43.93,44.871c-0.025-0.061-0.036-0.123-0.055-0.184c0.239,0.03,0.488,0.007,0.727-0.091
				c0.742-0.304,1.097-1.152,0.794-1.894c-0.098-0.239-0.256-0.432-0.445-0.582c0.057-0.029,0.109-0.065,0.169-0.09
				c1.113-0.456,2.386,0.077,2.842,1.191c0.456,1.113-0.077,2.386-1.191,2.842C45.658,46.518,44.386,45.985,43.93,44.871z"/>
		</g>
		<path style="fill:#FFFFFF;" d="M59,44.978c0,1.657,1.343,3,3,3h4c1.657,0,3-1.343,3-3v-2.493c0-0.346-0.09-0.687-0.26-0.988
			c-0.605-1.063-2.172-3.52-3.74-3.52c-1.635,0-4.606,4.009-5.637,5.473C59.126,43.789,59,44.189,59,44.601V44.978z"/>
		<path style="fill:#3E3E3F;" d="M63.12,41.998c-0.06,0.025-0.112,0.061-0.169,0.091c0.19,0.148,0.35,0.34,0.45,0.578
			c0.31,0.74-0.039,1.591-0.778,1.901c-0.238,0.1-0.487,0.125-0.726,0.097c0.02,0.061,0.031,0.123,0.056,0.184
			c0.465,1.11,1.742,1.633,2.851,1.167c1.11-0.465,1.632-1.742,1.167-2.851S64.23,41.533,63.12,41.998z"/>
	</g>
</g>
</svg>
