<?xml version="1.0" encoding="iso-8859-1"?>
<!-- Generator: Adobe Illustrator 17.1.0, SVG Export Plug-In . SVG Version: 6.00 Build 0)  -->
<!DOCTYPE svg PUBLIC "-//W3C//DTD SVG 1.0//EN" "http://www.w3.org/TR/2001/REC-SVG-20010904/DTD/svg10.dtd">
<svg version="1.0" xmlns="http://www.w3.org/2000/svg" xmlns:xlink="http://www.w3.org/1999/xlink" x="0px" y="0px" width="110px"
	 height="110px" viewBox="0 0 110 110" style="enable-background:new 0 0 110 110;" xml:space="preserve">
<g id="Artboard">
</g>
<g id="Multicolor">
	<circle style="fill:#25B7D3;" cx="55" cy="55" r="55"/>
	<g>
		<g>
			<path style="fill:#84462D;" d="M55.001,31C39.001,31,27,38,27,38v13h28.001H83V38C83,38,71.001,31,55.001,31z"/>
		</g>
		<g>
			<path style="fill:#9C6144;" d="M55,31c-15.999,0-28,7-28,7v13h28V31z"/>
		</g>
		<g>
			<polygon style="fill:#E2E4E5;" points="87,64 23,65 27,51 83,51 			"/>
		</g>
		<g>
			<path style="fill:#84462D;" d="M55.001,54C36.716,54,23,59.895,23,59.895V69h64v-9.105C87,59.895,73.287,54,55.001,54z"/>
		</g>
		<g>
			<path style="fill:#FFFFFF;" d="M30.481,41.771c-0.03-0.155,0.002-0.316,0.087-0.448c0.085-0.131,0.217-0.222,0.367-0.251
				c7.194-1.429,13.407-1.429,20.601,0c0.15,0.03,0.282,0.12,0.367,0.251c0.085,0.131,0.117,0.292,0.087,0.447
				c-0.606,3.176-0.606,6.352,0,9.528c0.03,0.155-0.002,0.316-0.087,0.447c-0.085,0.131-0.217,0.222-0.367,0.251
				c-7.194,1.429-13.407,1.429-20.601,0c-0.15-0.03-0.282-0.12-0.367-0.251c-0.085-0.131-0.117-0.292-0.087-0.447
				C31.087,48.123,31.087,44.947,30.481,41.771z"/>
		</g>
		<g>
			<path style="fill:#FFFFFF;" d="M58.011,41.771c-0.03-0.155,0.002-0.316,0.087-0.448c0.085-0.131,0.217-0.222,0.367-0.251
				c7.194-1.429,13.407-1.429,20.601,0c0.15,0.03,0.282,0.12,0.367,0.251c0.085,0.131,0.117,0.292,0.087,0.447
				c-0.606,3.176-0.606,6.352,0,9.528c0.03,0.155-0.002,0.316-0.087,0.447c-0.085,0.131-0.217,0.222-0.367,0.251
				c-7.194,1.429-13.407,1.429-20.601,0c-0.15-0.03-0.282-0.12-0.367-0.251c-0.085-0.131-0.117-0.292-0.087-0.447
				C58.617,48.123,58.617,44.947,58.011,41.771z"/>
		</g>
		<g>
			<path style="fill:#692E19;" d="M23,73v8.295V85c0,1.1,0.9,2,2,2c1.1,0,2.334-0.835,2.743-1.857L31,77h48l3.257,8.143
				C82.666,86.165,83.9,87,85,87c1.1,0,2-0.9,2-2V73H23z"/>
		</g>
		<g>
			<rect x="23" y="69" style="fill:#9C6144;" width="64" height="4"/>
		</g>
		<g>
			<path style="fill:#9C6144;" d="M55,54c-18.285,0-32,5.895-32,5.895V69h32V54z"/>
		</g>
		<g>
			<rect x="23" y="69" style="fill:#AF7653;" width="32" height="4"/>
		</g>
		<g>
			<path style="fill:#84462D;" d="M55,73H23v8.295V85c0,1.1,0.9,2,2,2c1.1,0,2.334-0.835,2.743-1.857L31,77h24V73z"/>
		</g>
	</g>
</g>
</svg>
