<?xml version="1.0" encoding="iso-8859-1"?>
<!-- Generator: Adobe Illustrator 17.1.0, SVG Export Plug-In . SVG Version: 6.00 Build 0)  -->
<!DOCTYPE svg PUBLIC "-//W3C//DTD SVG 1.0//EN" "http://www.w3.org/TR/2001/REC-SVG-20010904/DTD/svg10.dtd">
<svg version="1.0" xmlns="http://www.w3.org/2000/svg" xmlns:xlink="http://www.w3.org/1999/xlink" x="0px" y="0px" width="110px"
	 height="110px" viewBox="0 0 110 110" style="enable-background:new 0 0 110 110;" xml:space="preserve">
<g id="Artboard" style="display:none;">
	
		<rect x="-328.5" y="-34.5" style="display:inline;fill:#808080;stroke:#000000;stroke-miterlimit:10;" width="1392" height="1369"/>
</g>
<g id="R-Multicolor">
	<circle style="fill:#E04F5F;" cx="55" cy="55" r="55"/>
	<g>
		<g>
			<path style="fill:#FACB1B;" d="M65.277,84.013C65.124,85.656,63.65,87,62,87H42c-1.65,0-3.124-1.344-3.277-2.987L34,33h36
				L65.277,84.013z"/>
		</g>
		<g>
			<path style="fill:#FBE158;" d="M42,87h10V33H34l4.724,51.013C38.875,85.656,40.35,87,42,87z"/>
		</g>
		<g>
			<path style="fill:#FFFFFF;" d="M74,31c0,2.21-1.79,4-4,4c-23,0-13,8.98-21,8.98c0,0.01,0,0.01,0,0.02c0,2.76-2.24,5-5,5
				c-1.656,0-2.953-0.812-3.31-1.26C39.98,49.64,38.15,51,36,51c-3.139,0-4.96-2.783-4.96-4.43C30.489,46.822,29.747,47,29,47
				c-2.667,0-4.9-1.65-4.9-6.01C25.11,30.88,33.63,23,44,23c11,0,10.345,4,26,4C72.21,27,74,28.79,74,31z"/>
		</g>
	</g>
</g>
<g id="Multicolor" style="display:none;">
	<g style="display:inline;">
		<g>
			<path style="fill:#FACB1B;" d="M65.277,84.013C65.124,85.656,63.65,87,62,87H42c-1.65,0-3.124-1.344-3.277-2.987L34,33h36
				L65.277,84.013z"/>
		</g>
		<g>
			<path style="fill:#FBE158;" d="M42,87h10V33H34l4.724,51.013C38.875,85.656,40.35,87,42,87z"/>
		</g>
		<g>
			<path style="fill:#FFFFFF;" d="M74,31c0,2.21-1.79,4-4,4c-23,0-13,8.98-21,8.98c0,0.01,0,0.01,0,0.02c0,2.76-2.24,5-5,5
				c-1.656,0-2.953-0.812-3.31-1.26C39.98,49.64,38.15,51,36,51c-3.139,0-4.96-2.783-4.96-4.43C30.489,46.822,29.747,47,29,47
				c-2.667,0-4.9-1.65-4.9-6.01C25.11,30.88,33.63,23,44,23c11,0,10.345,4,26,4C72.21,27,74,28.79,74,31z"/>
		</g>
	</g>
</g>
<g id="Blue" style="display:none;">
	<g style="display:inline;">
		<g>
			<path style="fill:#0081A1;" d="M65.276,84.013C65.125,85.656,63.65,87,62,87H42c-1.65,0-3.125-1.344-3.276-2.987L34,33h36
				L65.276,84.013z"/>
		</g>
		<g>
			<path style="fill:#009FC7;" d="M42,87h10V33H34l4.724,51.013C38.875,85.656,40.35,87,42,87z"/>
		</g>
		<g>
			<path style="fill:#FFFFFF;" d="M74,31c0,2.21-1.79,4-4,4c-23,0-13,8.98-21,8.98c0,0.01,0,0.01,0,0.02c0,2.76-2.24,5-5,5
				c-1.656,0-2.953-0.812-3.311-1.26C39.98,49.64,38.15,51,36,51c-3.139,0-4.96-2.783-4.96-4.43C30.489,46.822,29.746,47,29,47
				c-2.666,0-4.9-1.65-4.9-6.01C25.109,30.88,33.63,23,44,23c11,0,10.345,4,26,4C72.21,27,74,28.79,74,31z"/>
		</g>
	</g>
</g>
<g id="R-Blue" style="display:none;">
	<circle style="display:inline;fill:#81D2EB;" cx="55" cy="55" r="55"/>
	<g style="display:inline;">
		<g>
			<path style="fill:#0081A1;" d="M65.276,84.013C65.125,85.656,63.65,87,62,87H42c-1.65,0-3.125-1.344-3.276-2.987L34,33h36
				L65.276,84.013z"/>
		</g>
		<g>
			<path style="fill:#009FC7;" d="M42,87h10V33H34l4.724,51.013C38.875,85.656,40.35,87,42,87z"/>
		</g>
		<g>
			<path style="fill:#FFFFFF;" d="M74,31c0,2.21-1.79,4-4,4c-23,0-13,8.98-21,8.98c0,0.01,0,0.01,0,0.02c0,2.76-2.24,5-5,5
				c-1.656,0-2.953-0.812-3.311-1.26C39.98,49.64,38.15,51,36,51c-3.139,0-4.96-2.783-4.96-4.43C30.489,46.822,29.746,47,29,47
				c-2.666,0-4.9-1.65-4.9-6.01C25.109,30.88,33.63,23,44,23c11,0,10.345,4,26,4C72.21,27,74,28.79,74,31z"/>
		</g>
	</g>
</g>
<g id="Green" style="display:none;">
	<g style="display:inline;">
		<g>
			<path style="fill:#009687;" d="M65.276,84.013C65.125,85.656,63.65,87,62,87H42c-1.65,0-3.125-1.344-3.276-2.987L34,33h36
				L65.276,84.013z"/>
		</g>
		<g>
			<path style="fill:#00B8A5;" d="M42,87h10V33H34l4.724,51.013C38.875,85.656,40.35,87,42,87z"/>
		</g>
		<g>
			<path style="fill:#FFFFFF;" d="M74,31c0,2.21-1.79,4-4,4c-23,0-13,8.98-21,8.98c0,0.01,0,0.01,0,0.02c0,2.76-2.24,5-5,5
				c-1.656,0-2.953-0.812-3.311-1.26C39.98,49.64,38.15,51,36,51c-3.139,0-4.96-2.783-4.96-4.43C30.489,46.822,29.746,47,29,47
				c-2.666,0-4.9-1.65-4.9-6.01C25.109,30.88,33.63,23,44,23c11,0,10.345,4,26,4C72.21,27,74,28.79,74,31z"/>
		</g>
	</g>
</g>
<g id="R-Green" style="display:none;">
	<circle style="display:inline;fill:#77E0C4;" cx="55" cy="55" r="55"/>
	<g style="display:inline;">
		<g>
			<path style="fill:#009687;" d="M65.276,84.013C65.125,85.656,63.65,87,62,87H42c-1.65,0-3.125-1.344-3.276-2.987L34,33h36
				L65.276,84.013z"/>
		</g>
		<g>
			<path style="fill:#00B8A5;" d="M42,87h10V33H34l4.724,51.013C38.875,85.656,40.35,87,42,87z"/>
		</g>
		<g>
			<path style="fill:#FFFFFF;" d="M74,31c0,2.21-1.79,4-4,4c-23,0-13,8.98-21,8.98c0,0.01,0,0.01,0,0.02c0,2.76-2.24,5-5,5
				c-1.656,0-2.953-0.812-3.311-1.26C39.98,49.64,38.15,51,36,51c-3.139,0-4.96-2.783-4.96-4.43C30.489,46.822,29.746,47,29,47
				c-2.666,0-4.9-1.65-4.9-6.01C25.109,30.88,33.63,23,44,23c11,0,10.345,4,26,4C72.21,27,74,28.79,74,31z"/>
		</g>
	</g>
</g>
<g id="Red" style="display:none;">
	<g style="display:inline;">
		<g>
			<path style="fill:#C23023;" d="M65.276,84.013C65.125,85.656,63.65,87,62,87H42c-1.65,0-3.125-1.344-3.276-2.987L34,33h36
				L65.276,84.013z"/>
		</g>
		<g>
			<path style="fill:#E54B44;" d="M42,87h10V33H34l4.724,51.013C38.875,85.656,40.35,87,42,87z"/>
		</g>
		<g>
			<path style="fill:#FFFFFF;" d="M74,31c0,2.21-1.79,4-4,4c-23,0-13,8.98-21,8.98c0,0.01,0,0.01,0,0.02c0,2.76-2.24,5-5,5
				c-1.656,0-2.953-0.812-3.311-1.26C39.98,49.64,38.15,51,36,51c-3.139,0-4.96-2.783-4.96-4.43C30.489,46.822,29.746,47,29,47
				c-2.666,0-4.9-1.65-4.9-6.01C25.109,30.88,33.63,23,44,23c11,0,10.345,4,26,4C72.21,27,74,28.79,74,31z"/>
		</g>
	</g>
</g>
<g id="R-Red" style="display:none;">
	<circle style="display:inline;fill:#FABBAF;" cx="55" cy="55" r="55"/>
	<g style="display:inline;">
		<g>
			<path style="fill:#C23023;" d="M65.276,84.013C65.125,85.656,63.65,87,62,87H42c-1.65,0-3.125-1.344-3.276-2.987L34,33h36
				L65.276,84.013z"/>
		</g>
		<g>
			<path style="fill:#E54B44;" d="M42,87h10V33H34l4.724,51.013C38.875,85.656,40.35,87,42,87z"/>
		</g>
		<g>
			<path style="fill:#FFFFFF;" d="M74,31c0,2.21-1.79,4-4,4c-23,0-13,8.98-21,8.98c0,0.01,0,0.01,0,0.02c0,2.76-2.24,5-5,5
				c-1.656,0-2.953-0.812-3.311-1.26C39.98,49.64,38.15,51,36,51c-3.139,0-4.96-2.783-4.96-4.43C30.489,46.822,29.746,47,29,47
				c-2.666,0-4.9-1.65-4.9-6.01C25.109,30.88,33.63,23,44,23c11,0,10.345,4,26,4C72.21,27,74,28.79,74,31z"/>
		</g>
	</g>
</g>
<g id="Yellow" style="display:none;">
	<g style="display:inline;">
		<g>
			<path style="fill:#E07000;" d="M65.276,84.013C65.125,85.656,63.65,87,62,87H42c-1.65,0-3.125-1.344-3.276-2.987L34,33h36
				L65.276,84.013z"/>
		</g>
		<g>
			<path style="fill:#FA9200;" d="M42,87h10V33H34l4.724,51.013C38.875,85.656,40.35,87,42,87z"/>
		</g>
		<g>
			<path style="fill:#FFFFFF;" d="M74,31c0,2.21-1.79,4-4,4c-23,0-13,8.98-21,8.98c0,0.01,0,0.01,0,0.02c0,2.76-2.24,5-5,5
				c-1.656,0-2.953-0.812-3.311-1.26C39.98,49.64,38.15,51,36,51c-3.139,0-4.96-2.783-4.96-4.43C30.489,46.822,29.746,47,29,47
				c-2.666,0-4.9-1.65-4.9-6.01C25.109,30.88,33.63,23,44,23c11,0,10.345,4,26,4C72.21,27,74,28.79,74,31z"/>
		</g>
	</g>
</g>
<g id="R-Yellow" style="display:none;">
	<circle style="display:inline;fill:#FFD75E;" cx="55" cy="55" r="55"/>
	<g style="display:inline;">
		<g>
			<path style="fill:#E07000;" d="M65.276,84.013C65.125,85.656,63.65,87,62,87H42c-1.65,0-3.125-1.344-3.276-2.987L34,33h36
				L65.276,84.013z"/>
		</g>
		<g>
			<path style="fill:#FA9200;" d="M42,87h10V33H34l4.724,51.013C38.875,85.656,40.35,87,42,87z"/>
		</g>
		<g>
			<path style="fill:#FFFFFF;" d="M74,31c0,2.21-1.79,4-4,4c-23,0-13,8.98-21,8.98c0,0.01,0,0.01,0,0.02c0,2.76-2.24,5-5,5
				c-1.656,0-2.953-0.812-3.311-1.26C39.98,49.64,38.15,51,36,51c-3.139,0-4.96-2.783-4.96-4.43C30.489,46.822,29.746,47,29,47
				c-2.666,0-4.9-1.65-4.9-6.01C25.109,30.88,33.63,23,44,23c11,0,10.345,4,26,4C72.21,27,74,28.79,74,31z"/>
		</g>
	</g>
</g>
</svg>
