<?xml version="1.0" encoding="iso-8859-1"?>
<!-- Generator: Adobe Illustrator 17.1.0, SVG Export Plug-In . SVG Version: 6.00 Build 0)  -->
<!DOCTYPE svg PUBLIC "-//W3C//DTD SVG 1.0//EN" "http://www.w3.org/TR/2001/REC-SVG-20010904/DTD/svg10.dtd">
<svg version="1.0" xmlns="http://www.w3.org/2000/svg" xmlns:xlink="http://www.w3.org/1999/xlink" x="0px" y="0px" width="110px"
	 height="110px" viewBox="0 0 110 110" style="enable-background:new 0 0 110 110;" xml:space="preserve">
<g id="Artboard">
</g>
<g id="Multicolor">
	<circle style="fill:#E04F5F;" cx="55" cy="55" r="55"/>
	<g>
		<g>
			<path style="fill:#FBE158;" d="M85,75.042H25c-5.27-16.69-0.24-20.94,10.21-21.27c0.056-0.38,1.936-11.591,2-11.97
				c3.828-15.712,31.79-15.76,35.58,0c1.997,11.978,1.6,9.609,2,11.97C87.571,53.19,88.836,62.831,85,75.042z"/>
		</g>
		<g>
			<path style="fill:#3E3E3F;" d="M36,85.042c0,1.105-0.895,2-2,2h-5c-1.105,0-2-0.895-2-2v-6h9V85.042z"/>
		</g>
		<g>
			<path style="fill:#3E3E3F;" d="M83,85.042c0,1.105-0.895,2-2,2h-5c-1.105,0-2-0.895-2-2v-6h9V85.042z"/>
		</g>
		<g>
			<path style="fill:#F0F1F1;" d="M87,77.042c0,1.105-0.895,2-2,2H25c-1.105,0-2-0.895-2-2s0.895-2,2-2h60
				C86.105,75.042,87,75.937,87,77.042z"/>
		</g>
		<g>
			<path style="fill:#FACB1B;" d="M62.04,74.96c1.63-2.41,2.94-5.49,4.22-8.53c2.37-5.64,4.82-11.44,9-12.71
				C87.6,53.39,88.79,62.94,85,75"/>
		</g>
		<g>
			<circle style="fill:#FBEC9A;" cx="77" cy="65.042" r="6"/>
		</g>
		<g>
			<path style="fill:#FBE158;" d="M37.21,41.802c-0.063,0.379-1.944,11.59-2,11.97c-9.612,0.304-14.631,3.932-11.275,17.498
				l39.637-39.637C53.826,27.617,39.837,31.021,37.21,41.802z"/>
		</g>
		<g>
			<path style="fill:#FFFFFF;" d="M77,59.042c-3.314,0-6,2.686-6,6c0,1.698,0.708,3.229,1.843,4.32l8.478-8.478
				C80.229,59.75,78.698,59.042,77,59.042z"/>
		</g>
		<g>
			<path style="fill:#40C9E7;" d="M39,51.042c10.667-2.667,21.333-2.667,32,0c0-13.333-5-18-16-18C45,33.042,39,37.709,39,51.042z"
				/>
		</g>
		<g>
			<path style="fill:#6FDAF1;" d="M55,33.042c-10,0-16,4.667-16,18c2.148-0.537,4.296-0.96,6.444-1.281l15.973-15.973
				C59.559,33.287,57.435,33.042,55,33.042z"/>
		</g>
		<g>
			<path style="fill:#FACB1B;" d="M25,75c-5.2-16.48-0.37-20.83,9.82-21.25c4.13,1.31,6.57,7.08,8.92,12.68
				c1.28,3.04,2.59,6.12,4.22,8.53"/>
		</g>
		<g>
			<path style="fill:#FBE158;" d="M34.82,53.75c-9.37,0.386-14.201,4.104-10.876,17.511l14.67-14.67
				C37.511,55.229,36.271,54.21,34.82,53.75z"/>
		</g>
		<g>
			<circle style="fill:#FBEC9A;" cx="33" cy="65.042" r="6"/>
		</g>
		<g>
			<path style="fill:#FFFFFF;" d="M33,59.042c-3.314,0-6,2.686-6,6c0,1.698,0.708,3.229,1.843,4.32l8.478-8.478
				C36.229,59.75,34.698,59.042,33,59.042z"/>
		</g>
	</g>
</g>
</svg>
