<?xml version="1.0" encoding="iso-8859-1"?>
<!-- Generator: Adobe Illustrator 17.1.0, SVG Export Plug-In . SVG Version: 6.00 Build 0)  -->
<!DOCTYPE svg PUBLIC "-//W3C//DTD SVG 1.0//EN" "http://www.w3.org/TR/2001/REC-SVG-20010904/DTD/svg10.dtd">
<svg version="1.0" xmlns="http://www.w3.org/2000/svg" xmlns:xlink="http://www.w3.org/1999/xlink" x="0px" y="0px" width="110px"
	 height="110px" viewBox="0 0 110 110" style="enable-background:new 0 0 110 110;" xml:space="preserve">
<g id="Artboard">
</g>
<g id="Multicolor">
	<circle style="fill:#25B7D3;" cx="55" cy="55" r="55"/>
	<g>
		<g>
			<path style="fill:#FACB1B;" d="M24,71c-0.032,0.193-2-17,16-18c5-13,14.332-15,22-15c13,0,24,13.352,24,33C79,71,24,71,24,71z"/>
		</g>
		<g>
			<path style="fill:#FBE158;" d="M64.467,38.164C63.655,38.056,62.832,38,62,38c-7.668,0-17,2-22,15c-18,1-16.032,18.193-16,18
				c0,0,2.977,0,7.631,0L64.467,38.164z"/>
		</g>
		<g>
			<path style="fill:#F3B607;" d="M77,63c-4.838,0-8.873,3.436-9.799,8H42.799c-0.927-4.564-4.961-8-9.799-8
				c-4.906,0-8.979,3.536-9.829,8.196C23.481,70.493,24.182,70,25,70h2.809C27.298,70.883,27,71.906,27,73
				c0,0.702,0.127,1.374,0.349,2h59.45C86.93,74.354,87,73.685,87,73C87,67.477,82.523,63,77,63z"/>
		</g>
		<g>
			<path style="fill:#F3B607;" d="M33,63c-4.906,0-8.979,3.536-9.829,8.196C23.481,70.493,24.182,70,25,70h2.809
				C27.298,70.883,27,71.906,27,73c0,0.702,0.127,1.374,0.349,2h0.379l10.51-10.51C36.714,63.549,34.923,63,33,63z"/>
		</g>
		<g>
			<path style="fill:#F0F1F1;" d="M28,73c0-1.094,0.298-2.117,0.809-3H25c-1.105,0-2,0.895-2,2v1c0,1.105,0.895,2,2,2h3.349
				C28.127,74.374,28,73.702,28,73z"/>
		</g>
		<g>
			<circle style="fill:#3E3E3F;" cx="33" cy="73" r="6"/>
		</g>
		<g>
			<circle style="fill:#F0F1F1;" cx="33" cy="73" r="2"/>
		</g>
		<g>
			<circle style="fill:#3E3E3F;" cx="77" cy="73" r="6"/>
		</g>
		<g>
			<circle style="fill:#F0F1F1;" cx="77" cy="73" r="2"/>
		</g>
		<g>
			<path style="fill:#F3B607;" d="M49,60c0,0.552,0.448,1,1,1h6c0.552,0,1-0.448,1-1v-1c0-0.552-0.448-1-1-1h-6
				c-0.552,0-1,0.448-1,1V60z"/>
		</g>
		<g>
			<path style="fill:#40C9E7;" d="M62.474,52c0,0.552,0.448,1,1,1h13.475c0.34,0,0.656-0.173,0.841-0.458
				c0.184-0.286,0.21-0.645,0.07-0.955c-2.547-5.624-7.893-9.702-14.267-10.451c-0.284-0.033-0.568,0.056-0.781,0.246
				c-0.213,0.19-0.337,0.462-0.337,0.747V52z"/>
		</g>
		<g>
			<path style="fill:#40C9E7;" d="M58.474,42.479c0-0.307-0.141-0.596-0.382-0.786c-0.241-0.19-0.556-0.258-0.854-0.186
				c-5.428,1.313-9.889,5.09-12.149,10.08c-0.14,0.309-0.114,0.669,0.07,0.954c0.184,0.285,0.5,0.459,0.84,0.459h11.475
				c0.552,0,1-0.448,1-1V42.479z"/>
		</g>
		<g>
			<path style="fill:#9CE5F4;" d="M58.474,42.479c0-0.307-0.141-0.596-0.382-0.786c-0.241-0.189-0.556-0.258-0.854-0.186
				c-5.428,1.313-9.89,5.09-12.149,10.08c-0.14,0.309-0.114,0.668,0.07,0.954C45.344,52.827,45.66,53,46,53h3.632l8.843-8.843
				V42.479z"/>
		</g>
	</g>
</g>
</svg>
