<?xml version="1.0" encoding="iso-8859-1"?>
<!-- Generator: Adobe Illustrator 17.1.0, SVG Export Plug-In . SVG Version: 6.00 Build 0)  -->
<!DOCTYPE svg PUBLIC "-//W3C//DTD SVG 1.0//EN" "http://www.w3.org/TR/2001/REC-SVG-20010904/DTD/svg10.dtd">
<svg version="1.0" xmlns="http://www.w3.org/2000/svg" xmlns:xlink="http://www.w3.org/1999/xlink" x="0px" y="0px" width="110px"
	 height="110px" viewBox="0 0 110 110" style="enable-background:new 0 0 110 110;" xml:space="preserve">
<g id="Artboard">
</g>
<g id="Multicolor">
	<circle style="fill:#32BEA6;" cx="55" cy="55" r="55"/>
	<g>
		<g>
			<path style="fill:#84462D;" d="M85.701,24.366l-0.067-0.067c-1.793-1.793-4.723-1.72-6.425,0.161l-17.764,18.03
				c0.35,0.146,0.692,0.323,1.021,0.532c1.803,1.148,3.364,2.709,4.512,4.512c0.209,0.329,0.386,0.67,0.532,1.021L85.54,30.79
				C87.421,29.088,87.495,26.159,85.701,24.366z"/>
		</g>
		<g>
			<path style="fill:#FACB1B;" d="M54.979,87.021c5.867-7.047,8.63-15.119,8.296-24.235c-0.088-2.39,0.8-4.859,2.777-6.837
				c2.241-2.241,2.63-5.741,0.927-8.415c-1.148-1.803-2.709-3.364-4.512-4.512c-2.673-1.703-6.174-1.314-8.415,0.927
				c-1.998,1.999-4.49,2.887-6.925,2.789c-10.158-0.406-18.207,2.353-24.147,8.283h0c-0.01,0.01-0.01,0.01-0.01,0.01
				s2.17,10.17,12,20s20,12,20,12S54.969,87.031,54.979,87.021"/>
		</g>
		<g>
			<path style="fill:#F3B607;" d="M43.969,66.031c-13.07-13.07-20.64-11.13-20.99-11.01c-0.01,0.01-0.01,0.01-0.01,0.01
				s2.17,10.17,12,20s20,12,20,12s0,0,0.01-0.01C55.099,86.671,57.039,79.101,43.969,66.031z"/>
		</g>
		<g>
			<path style="fill:#9C6144;" d="M62.466,43.022c0.905,0.576,1.748,1.257,2.51,2.02l20.7-20.7l-0.042-0.042
				c-1.793-1.793-4.723-1.72-6.425,0.161l-17.764,18.03C61.796,42.636,62.138,42.812,62.466,43.022z"/>
		</g>
		<g>
			<path style="fill:#FBE158;" d="M43.969,66.031c-1.633-1.633-3.179-3.031-4.637-4.228l-8.864,3.594
				c-2.882,1.168-4.024,4.645-2.398,7.295c1.789,2.91,5.411,3.217,7.653,1.269l8.65-7.518C44.236,66.305,44.108,66.17,43.969,66.031
				z"/>
		</g>
		<g>
			<path style="fill:#FACB1B;" d="M63.275,62.785c0.334,9.116-2.429,17.188-8.296,24.235c0.12-0.35,2.06-7.92-11.01-20.99
				s-20.64-11.13-20.99-11.01c5.94-5.931,13.989-8.69,24.147-8.283c2.435,0.097,4.927-0.791,6.925-2.789
				c2.241-2.241,5.742-2.63,8.415-0.927c1.803,1.148,3.364,2.709,4.512,4.512c1.702,2.673,1.314,6.174-0.927,8.415
				C64.074,57.926,63.187,60.396,63.275,62.785z"/>
		</g>
		<g>
			<path style="fill:#FBEC9A;" d="M39.332,61.803l-8.864,3.594c-2.882,1.168-4.024,4.645-2.398,7.295
				c0.142,0.232,0.229,0.369,0.454,0.647l13.707-8.984C41.23,63.421,40.261,62.566,39.332,61.803z"/>
		</g>
		<g>
			<path style="fill:#FBE158;" d="M62.466,43.022c-2.673-1.703-6.174-1.314-8.415,0.927c-1.98,1.987-4.48,2.887-6.925,2.789
				c-10.159-0.406-18.208,2.353-24.147,8.283c0.35-0.12,7.92-2.06,20.99,11.01c0.003,0.003,0.006,0.006,0.008,0.008l20.999-20.998
				C64.214,44.278,63.371,43.598,62.466,43.022z"/>
		</g>
	</g>
</g>
</svg>
