<?xml version="1.0" encoding="iso-8859-1"?>
<!-- Generator: Adobe Illustrator 17.1.0, SVG Export Plug-In . SVG Version: 6.00 Build 0)  -->
<!DOCTYPE svg PUBLIC "-//W3C//DTD SVG 1.0//EN" "http://www.w3.org/TR/2001/REC-SVG-20010904/DTD/svg10.dtd">
<svg version="1.0" xmlns="http://www.w3.org/2000/svg" xmlns:xlink="http://www.w3.org/1999/xlink" x="0px" y="0px" width="110px"
	 height="110px" viewBox="0 0 110 110" style="enable-background:new 0 0 110 110;" xml:space="preserve">
<g id="Artboard" style="display:none;">
	
		<rect x="-328.5" y="-674.5" style="display:inline;fill:#808080;stroke:#000000;stroke-miterlimit:10;" width="1392" height="1369"/>
</g>
<g id="R-Multicolor">
	<circle style="fill:#FABC3D;" cx="55" cy="55" r="55"/>
	<g>
		<g>
			<path style="fill:#8E6134;" d="M51.651,39.398C52.569,39.136,53.546,39,54.566,39c1.077,0,2.103,0.154,3.066,0.442
				C57.677,33.621,58.298,30,66.627,30v-6C54.734,24,51.922,30.19,51.651,39.398z"/>
		</g>
		<path style="fill:#099686;" d="M69.239,39c-2.671-0.002-5.034,1.296-6.525,3.292C60.697,40.122,57.825,39,54.561,39
			c-3.607,0-6.749,1.386-8.751,4.084c-1.416-2.441-4.038-4.086-7.049-4.084c-13.266,0.01-14.999,20.741-4.228,42.56
			c1.427,2.89,3.399,5.44,6.622,5.44c3.103,0,5.703-2.015,6.637-4.776C49.081,84.939,51.545,87,54.805,87h0.002
			c2.631,0,4.706-1.426,6.008-3.444C62.033,85.61,64.267,87,66.845,87c3.223,0,5.195-2.55,6.622-5.44
			C84.238,59.741,82.505,39.01,69.239,39z"/>
		<path style="fill:#12B2A0;" d="M55,39.019C54.853,39.015,54.709,39,54.561,39c-3.607,0-6.749,1.386-8.751,4.084
			c-1.416-2.441-4.038-4.086-7.049-4.084c-13.266,0.01-14.999,20.741-4.228,42.56c1.427,2.89,3.399,5.44,6.622,5.44
			c3.103,0,5.703-2.015,6.637-4.776C49.081,84.939,51.545,87,54.805,87h0.002c0.066,0,0.128-0.011,0.193-0.013V39.019z"/>
	</g>
</g>
<g id="Multicolor" style="display:none;">
	<g style="display:inline;">
		<g>
			<path style="fill:#8E6134;" d="M51.651,39.398C52.569,39.136,53.546,39,54.566,39c1.077,0,2.103,0.154,3.066,0.442
				C57.677,33.621,58.298,30,66.627,30v-6C54.734,24,51.922,30.19,51.651,39.398z"/>
		</g>
		<path style="fill:#099686;" d="M69.239,39c-2.671-0.002-5.034,1.296-6.525,3.292C60.697,40.122,57.825,39,54.561,39
			c-3.607,0-6.749,1.386-8.751,4.084c-1.416-2.441-4.038-4.086-7.049-4.084c-13.266,0.01-14.999,20.741-4.228,42.56
			c1.427,2.89,3.399,5.44,6.622,5.44c3.103,0,5.703-2.015,6.637-4.776C49.081,84.939,51.545,87,54.805,87h0.002
			c2.631,0,4.706-1.426,6.008-3.444C62.033,85.61,64.267,87,66.845,87c3.223,0,5.195-2.55,6.622-5.44
			C84.238,59.741,82.505,39.01,69.239,39z"/>
		<path style="fill:#12B2A0;" d="M55,39.019C54.853,39.015,54.709,39,54.561,39c-3.607,0-6.749,1.386-8.751,4.084
			c-1.416-2.441-4.038-4.086-7.049-4.084c-13.266,0.01-14.999,20.741-4.228,42.56c1.427,2.89,3.399,5.44,6.622,5.44
			c3.103,0,5.703-2.015,6.637-4.776C49.081,84.939,51.545,87,54.805,87h0.002c0.066,0,0.128-0.011,0.193-0.013V39.019z"/>
	</g>
</g>
<g id="Blue" style="display:none;">
	<g style="display:inline;">
		<g>
			<path style="fill:#0F6175;" d="M51.651,39.398C52.569,39.136,53.546,39,54.566,39c1.076,0,2.102,0.154,3.065,0.442
				C57.677,33.621,58.299,30,66.627,30v-6C54.734,24,51.922,30.19,51.651,39.398z"/>
		</g>
		<path style="fill:#0081A1;" d="M69.239,39c-2.671-0.002-5.034,1.296-6.525,3.292C60.697,40.122,57.824,39,54.561,39
			c-3.607,0-6.748,1.386-8.751,4.084c-1.416-2.441-4.038-4.086-7.049-4.084c-13.266,0.01-14.999,20.741-4.228,42.56
			c1.426,2.89,3.398,5.44,6.621,5.44c3.104,0,5.703-2.015,6.637-4.776C49.081,84.939,51.545,87,54.805,87h0.002
			c2.631,0,4.705-1.426,6.008-3.444C62.033,85.61,64.268,87,66.846,87c3.223,0,5.195-2.55,6.621-5.44
			C84.238,59.741,82.505,39.01,69.239,39z"/>
		<path style="fill:#009FC7;" d="M55,39.019C54.854,39.015,54.709,39,54.561,39c-3.607,0-6.748,1.386-8.751,4.084
			c-1.416-2.441-4.038-4.086-7.049-4.084c-13.266,0.01-14.999,20.741-4.228,42.56c1.426,2.89,3.398,5.44,6.621,5.44
			c3.104,0,5.703-2.015,6.637-4.776C49.081,84.939,51.545,87,54.805,87h0.002c0.066,0,0.128-0.011,0.193-0.013V39.019z"/>
	</g>
</g>
<g id="R-Blue" style="display:none;">
	<circle style="display:inline;fill:#81D2EB;" cx="55" cy="55" r="55"/>
	<g style="display:inline;">
		<g>
			<path style="fill:#0F6175;" d="M51.651,39.398C52.569,39.136,53.546,39,54.566,39c1.076,0,2.102,0.154,3.065,0.442
				C57.677,33.621,58.299,30,66.627,30v-6C54.734,24,51.922,30.19,51.651,39.398z"/>
		</g>
		<path style="fill:#0081A1;" d="M69.239,39c-2.671-0.002-5.034,1.296-6.525,3.292C60.697,40.122,57.824,39,54.561,39
			c-3.607,0-6.748,1.386-8.751,4.084c-1.416-2.441-4.038-4.086-7.049-4.084c-13.266,0.01-14.999,20.741-4.228,42.56
			c1.426,2.89,3.398,5.44,6.621,5.44c3.104,0,5.703-2.015,6.637-4.776C49.081,84.939,51.545,87,54.805,87h0.002
			c2.631,0,4.705-1.426,6.008-3.444C62.033,85.61,64.268,87,66.846,87c3.223,0,5.195-2.55,6.621-5.44
			C84.238,59.741,82.505,39.01,69.239,39z"/>
		<path style="fill:#009FC7;" d="M55,39.019C54.854,39.015,54.709,39,54.561,39c-3.607,0-6.748,1.386-8.751,4.084
			c-1.416-2.441-4.038-4.086-7.049-4.084c-13.266,0.01-14.999,20.741-4.228,42.56c1.426,2.89,3.398,5.44,6.621,5.44
			c3.104,0,5.703-2.015,6.637-4.776C49.081,84.939,51.545,87,54.805,87h0.002c0.066,0,0.128-0.011,0.193-0.013V39.019z"/>
	</g>
</g>
<g id="Green" style="display:none;">
	<g style="display:inline;">
		<g>
			<path style="fill:#14635B;" d="M51.651,39.398C52.569,39.136,53.546,39,54.566,39c1.076,0,2.102,0.154,3.065,0.442
				C57.677,33.621,58.299,30,66.627,30v-6C54.734,24,51.922,30.19,51.651,39.398z"/>
		</g>
		<path style="fill:#009687;" d="M69.239,39c-2.671-0.002-5.034,1.296-6.525,3.292C60.697,40.122,57.824,39,54.56,39
			c-3.607,0-6.748,1.386-8.751,4.084c-1.416-2.441-4.038-4.086-7.049-4.084c-13.266,0.01-14.999,20.741-4.228,42.56
			c1.426,2.89,3.398,5.44,6.621,5.44c3.104,0,5.703-2.015,6.637-4.776C49.081,84.939,51.545,87,54.805,87h0.002
			c2.631,0,4.705-1.426,6.008-3.444C62.033,85.61,64.268,87,66.846,87c3.223,0,5.195-2.55,6.621-5.44
			C84.238,59.741,82.505,39.01,69.239,39z"/>
		<path style="fill:#00B8A5;" d="M55,39.019C54.853,39.015,54.709,39,54.56,39c-3.607,0-6.748,1.386-8.751,4.084
			c-1.416-2.441-4.038-4.086-7.049-4.084c-13.266,0.01-14.999,20.741-4.228,42.56c1.426,2.89,3.398,5.44,6.621,5.44
			c3.104,0,5.703-2.015,6.637-4.776C49.081,84.939,51.545,87,54.805,87h0.002c0.066,0,0.128-0.011,0.193-0.013V39.019z"/>
	</g>
</g>
<g id="R-Green" style="display:none;">
	<circle style="display:inline;fill:#77E0C4;" cx="55" cy="55" r="55"/>
	<g style="display:inline;">
		<g>
			<path style="fill:#14635B;" d="M51.651,39.398C52.569,39.136,53.546,39,54.566,39c1.076,0,2.103,0.154,3.065,0.442
				C57.677,33.621,58.299,30,66.627,30v-6C54.734,24,51.922,30.19,51.651,39.398z"/>
		</g>
		<path style="fill:#009687;" d="M69.239,39c-2.671-0.002-5.034,1.296-6.525,3.292C60.697,40.122,57.824,39,54.561,39
			c-3.607,0-6.748,1.386-8.751,4.084c-1.416-2.441-4.038-4.086-7.049-4.084c-13.266,0.01-14.999,20.741-4.228,42.56
			c1.426,2.89,3.398,5.44,6.621,5.44c3.104,0,5.703-2.015,6.637-4.776C49.081,84.939,51.545,87,54.805,87h0.002
			c2.631,0,4.705-1.426,6.008-3.444C62.033,85.61,64.268,87,66.846,87c3.223,0,5.195-2.55,6.621-5.44
			C84.238,59.741,82.505,39.01,69.239,39z"/>
		<path style="fill:#00B8A5;" d="M55,39.019C54.854,39.015,54.709,39,54.561,39c-3.607,0-6.748,1.386-8.751,4.084
			c-1.416-2.441-4.038-4.086-7.049-4.084c-13.266,0.01-14.999,20.741-4.228,42.56c1.426,2.89,3.398,5.44,6.621,5.44
			c3.104,0,5.703-2.015,6.637-4.776C49.081,84.939,51.545,87,54.805,87h0.002c0.066,0,0.128-0.011,0.193-0.013V39.019z"/>
	</g>
</g>
<g id="Red" style="display:none;">
	<g style="display:inline;">
		<g>
			<path style="fill:#7D261E;" d="M51.651,39.398C52.569,39.136,53.546,39,54.566,39c1.076,0,2.102,0.154,3.065,0.442
				C57.677,33.621,58.299,30,66.627,30v-6C54.734,24,51.922,30.19,51.651,39.398z"/>
		</g>
		<path style="fill:#C23023;" d="M69.239,39c-2.671-0.002-5.034,1.296-6.525,3.292C60.697,40.122,57.824,39,54.56,39
			c-3.607,0-6.748,1.386-8.751,4.084c-1.416-2.441-4.038-4.086-7.049-4.084c-13.266,0.01-14.999,20.741-4.228,42.56
			c1.426,2.89,3.398,5.44,6.621,5.44c3.104,0,5.703-2.015,6.637-4.776C49.081,84.939,51.545,87,54.805,87h0.002
			c2.631,0,4.705-1.426,6.008-3.444C62.033,85.61,64.268,87,66.846,87c3.223,0,5.195-2.55,6.621-5.44
			C84.238,59.741,82.505,39.01,69.239,39z"/>
		<path style="fill:#E54B44;" d="M55,39.019C54.853,39.015,54.709,39,54.56,39c-3.607,0-6.748,1.386-8.751,4.084
			c-1.416-2.441-4.038-4.086-7.049-4.084c-13.266,0.01-14.999,20.741-4.228,42.56c1.426,2.89,3.398,5.44,6.621,5.44
			c3.104,0,5.703-2.015,6.637-4.776C49.081,84.939,51.545,87,54.805,87h0.002c0.066,0,0.128-0.011,0.193-0.013V39.019z"/>
	</g>
</g>
<g id="R-Red" style="display:none;">
	<circle style="display:inline;fill:#FABBAF;" cx="55" cy="55" r="55"/>
	<g style="display:inline;">
		<g>
			<path style="fill:#7D261E;" d="M51.651,39.398C52.569,39.136,53.546,39,54.566,39c1.076,0,2.102,0.154,3.065,0.442
				C57.677,33.621,58.299,30,66.627,30v-6C54.734,24,51.922,30.19,51.651,39.398z"/>
		</g>
		<path style="fill:#C23023;" d="M69.239,39c-2.671-0.002-5.034,1.296-6.525,3.292C60.697,40.122,57.824,39,54.56,39
			c-3.607,0-6.748,1.386-8.751,4.084c-1.416-2.441-4.038-4.086-7.049-4.084c-13.266,0.01-14.999,20.741-4.228,42.56
			c1.426,2.89,3.398,5.44,6.621,5.44c3.104,0,5.703-2.015,6.637-4.776C49.081,84.939,51.545,87,54.805,87h0.002
			c2.631,0,4.705-1.426,6.008-3.444C62.033,85.61,64.268,87,66.846,87c3.223,0,5.195-2.55,6.621-5.44
			C84.238,59.741,82.505,39.01,69.239,39z"/>
		<path style="fill:#E54B44;" d="M55,39.019C54.853,39.015,54.709,39,54.56,39c-3.607,0-6.748,1.386-8.751,4.084
			c-1.416-2.441-4.038-4.086-7.049-4.084c-13.266,0.01-14.999,20.741-4.228,42.56c1.426,2.89,3.398,5.44,6.621,5.44
			c3.104,0,5.703-2.015,6.637-4.776C49.081,84.939,51.545,87,54.805,87h0.002c0.066,0,0.128-0.011,0.193-0.013V39.019z"/>
	</g>
</g>
<g id="Yellow" style="display:none;">
	<g style="display:inline;">
		<g>
			<path style="fill:#66510D;" d="M51.651,39.398C52.569,39.136,53.546,39,54.566,39c1.076,0,2.103,0.154,3.065,0.442
				C57.677,33.621,58.299,30,66.627,30v-6C54.734,24,51.922,30.19,51.651,39.398z"/>
		</g>
		<path style="fill:#E07000;" d="M69.239,39c-2.671-0.002-5.034,1.296-6.525,3.292C60.697,40.122,57.824,39,54.561,39
			c-3.607,0-6.748,1.386-8.751,4.084c-1.416-2.441-4.038-4.086-7.049-4.084c-13.266,0.01-14.999,20.741-4.228,42.56
			c1.426,2.89,3.398,5.44,6.621,5.44c3.104,0,5.703-2.015,6.637-4.776C49.081,84.939,51.545,87,54.805,87h0.002
			c2.631,0,4.705-1.426,6.008-3.444C62.033,85.61,64.268,87,66.846,87c3.223,0,5.195-2.55,6.621-5.44
			C84.238,59.741,82.505,39.01,69.239,39z"/>
		<path style="fill:#FA9200;" d="M55,39.019C54.854,39.015,54.709,39,54.561,39c-3.607,0-6.748,1.386-8.751,4.084
			c-1.416-2.441-4.038-4.086-7.049-4.084c-13.266,0.01-14.999,20.741-4.228,42.56c1.426,2.89,3.398,5.44,6.621,5.44
			c3.104,0,5.703-2.015,6.637-4.776C49.081,84.939,51.545,87,54.805,87h0.002c0.066,0,0.128-0.011,0.193-0.013V39.019z"/>
	</g>
</g>
<g id="R-Yellow" style="display:none;">
	<circle style="display:inline;fill:#FFD75E;" cx="55" cy="55" r="55"/>
	<g style="display:inline;">
		<g>
			<path style="fill:#66510D;" d="M51.651,39.398C52.569,39.136,53.546,39,54.566,39c1.076,0,2.102,0.154,3.065,0.442
				C57.677,33.621,58.299,30,66.627,30v-6C54.734,24,51.922,30.19,51.651,39.398z"/>
		</g>
		<path style="fill:#E07000;" d="M69.239,39c-2.671-0.002-5.034,1.296-6.525,3.292C60.697,40.122,57.824,39,54.56,39
			c-3.607,0-6.748,1.386-8.751,4.084c-1.416-2.441-4.038-4.086-7.049-4.084c-13.266,0.01-14.999,20.741-4.228,42.56
			c1.426,2.89,3.398,5.44,6.621,5.44c3.104,0,5.703-2.015,6.637-4.776C49.081,84.939,51.545,87,54.805,87h0.002
			c2.631,0,4.705-1.426,6.008-3.444C62.033,85.61,64.268,87,66.846,87c3.223,0,5.195-2.55,6.621-5.44
			C84.238,59.741,82.505,39.01,69.239,39z"/>
		<path style="fill:#FA9200;" d="M55,39.019C54.853,39.015,54.709,39,54.56,39c-3.607,0-6.748,1.386-8.751,4.084
			c-1.416-2.441-4.038-4.086-7.049-4.084c-13.266,0.01-14.999,20.741-4.228,42.56c1.426,2.89,3.398,5.44,6.621,5.44
			c3.104,0,5.703-2.015,6.637-4.776C49.081,84.939,51.545,87,54.805,87h0.002c0.066,0,0.128-0.011,0.193-0.013V39.019z"/>
	</g>
</g>
</svg>
