<?xml version="1.0" encoding="iso-8859-1"?>
<!-- Generator: Adobe Illustrator 17.1.0, SVG Export Plug-In . SVG Version: 6.00 Build 0)  -->
<!DOCTYPE svg PUBLIC "-//W3C//DTD SVG 1.0//EN" "http://www.w3.org/TR/2001/REC-SVG-20010904/DTD/svg10.dtd">
<svg version="1.0" xmlns="http://www.w3.org/2000/svg" xmlns:xlink="http://www.w3.org/1999/xlink" x="0px" y="0px" width="110px"
	 height="110px" viewBox="0 0 110 110" style="enable-background:new 0 0 110 110;" xml:space="preserve">
<g id="Artboard">
</g>
<g id="Multicolor">
	<circle style="fill:#E04F5F;" cx="55.333" cy="55" r="55"/>
	<g>
		<path style="fill:#CFD3D4;" d="M67,23c-11.046,0-20,8.954-20,20s8.954,20,20,20s20-8.954,20-20S78.046,23,67,23z M67,48
			c-2.761,0-5-2.239-5-5s2.239-5,5-5s5,2.239,5,5S69.761,48,67,48z"/>
		<path style="fill:#E2E4E5;" d="M67,23c-11.046,0-20,8.954-20,20c0,5.489,2.215,10.459,5.795,14.073l10.61-10.61
			C62.539,45.564,62,44.347,62,43c0-2.761,2.239-5,5-5c1.347,0,2.564,0.539,3.464,1.405l10.61-10.61C77.459,25.215,72.49,23,67,23z"
			/>
		<path style="fill:#3E3E3F;" d="M67,63c-0.411,0-0.813-0.037-1.218-0.062L46.921,76.34c-0.377,3.39-2.17,6.344-4.77,8.281
			l0.007,0.01l32.714-23.244C72.456,62.422,69.796,63,67,63z"/>
		<path style="fill:#3E3E3F;" d="M48.341,35.845L25.375,67.833l0.011,0.008c1.948-2.611,4.922-4.409,8.334-4.771l13.354-18.601
			C46.87,41.663,47.175,38.882,48.341,35.845z"/>
		<path style="fill:#CFD3D4;" d="M35,63c-6.627,0-12,5.373-12,12s5.373,12,12,12s12-5.373,12-12S41.627,63,35,63z M35,78
			c-1.657,0-3-1.343-3-3s1.343-3,3-3s3,1.343,3,3S36.657,78,35,78z"/>
		<path style="fill:#F0F1F1;" d="M35,67c-4.418,0-8,3.582-8,8s3.582,8,8,8s8-3.582,8-8S39.418,67,35,67z M35,78
			c-1.657,0-3-1.343-3-3s1.343-3,3-3s3,1.343,3,3S36.657,78,35,78z"/>
		<path style="fill:#F0F1F1;" d="M67,29.667c-7.364,0-13.333,5.97-13.333,13.333S59.636,56.333,67,56.333S80.333,50.364,80.333,43
			S74.364,29.667,67,29.667z M67,48c-2.761,0-5-2.239-5-5s2.239-5,5-5s5,2.239,5,5S69.761,48,67,48z"/>
		<path style="fill:#E2E4E5;" d="M35,63c-6.627,0-12,5.373-12,12c0,3.28,1.319,6.25,3.452,8.417l6.367-6.367
			C32.315,76.513,32,75.795,32,75c0-1.657,1.343-3,3-3c0.795,0,1.513,0.315,2.049,0.819l6.367-6.367C41.25,64.319,38.28,63,35,63z"
			/>
		<path style="fill:#FFFFFF;" d="M35,67c-4.418,0-8,3.582-8,8c0,2.176,0.871,4.146,2.281,5.588l3.539-3.539
			C32.315,76.513,32,75.795,32,75c0-1.657,1.343-3,3-3c0.795,0,1.513,0.315,2.049,0.819l3.539-3.539C39.146,67.871,37.176,67,35,67z
			"/>
		<path style="fill:#FFFFFF;" d="M67,29.667c-7.364,0-13.333,5.969-13.333,13.333c0,3.648,1.468,6.952,3.843,9.359l5.896-5.896
			C62.539,45.564,62,44.347,62,43c0-2.761,2.239-5,5-5c1.347,0,2.564,0.539,3.464,1.405l5.896-5.896
			C73.952,31.135,70.648,29.667,67,29.667z"/>
	</g>
</g>
</svg>
