<?xml version="1.0" encoding="iso-8859-1"?>
<!-- Generator: Adobe Illustrator 17.1.0, SVG Export Plug-In . SVG Version: 6.00 Build 0)  -->
<!DOCTYPE svg PUBLIC "-//W3C//DTD SVG 1.0//EN" "http://www.w3.org/TR/2001/REC-SVG-20010904/DTD/svg10.dtd">
<svg version="1.0" xmlns="http://www.w3.org/2000/svg" xmlns:xlink="http://www.w3.org/1999/xlink" x="0px" y="0px" width="110px"
	 height="110px" viewBox="0 0 110 110" style="enable-background:new 0 0 110 110;" xml:space="preserve">
<g id="Artboard">
</g>
<g id="Multicolor">
	<circle style="fill:#32BEA6;" cx="55" cy="55" r="55"/>
	<g>
		<g>
			<path style="fill:#F0F1F1;" d="M74,85c0,1.105,0.895,2,2,2h5c1.105,0,2-0.895,2-2V33c0-1.105-0.895-2-2-2H44.828
				c-0.53,0-1.039,0.211-1.414,0.586l-4,4c-0.572,0.572-0.743,1.432-0.434,2.18S40.02,39,40.828,39H72c1.105,0,2,0.895,2,2v24
				c0,1.105-0.895,2-2,2H40.828c-0.809,0-1.538,0.487-1.848,1.235c-0.31,0.747-0.138,1.608,0.434,2.18l4,4
				C43.789,74.789,44.298,75,44.828,75H72c1.105,0,2,0.895,2,2V85z"/>
		</g>
		<g>
			<rect x="50" y="64" style="fill:#3E3E3F;" width="8" height="3"/>
		</g>
		<g>
			<rect x="50" y="39" style="fill:#3E3E3F;" width="8" height="3"/>
		</g>
		<path style="fill:#3E3E3F;" d="M64,23H44c-1.104,0-2,0.896-2,2s0.896,2,2,2h6v4h8v-4h6c1.104,0,2-0.896,2-2S65.104,23,64,23z"/>
		<path style="fill:#3E3E3F;" d="M64,79h-6v-4h-8v4h-6c-1.104,0-2,0.896-2,2s0.896,2,2,2h20c1.104,0,2-0.896,2-2S65.104,79,64,79z"
			/>
		<g>
			<path style="fill:#FFFFFF;" d="M34,48c0,1.105,0.895,2,2,2h32c1.105,0,2-0.895,2-2v-4c0-1.105-0.895-2-2-2H36
				c-1.105,0-2,0.895-2,2V48z"/>
		</g>
		<g>
			<path style="fill:#E2E4E5;" d="M36,42c-1.105,0-2,0.895-2,2v4c0,1.105,0.895,2,2,2h6v-8H36z"/>
		</g>
		<g>
			<path style="fill:#E2E4E5;" d="M68,42c1.105,0,2,0.895,2,2v4c0,1.105-0.895,2-2,2h-6v-8H68z"/>
		</g>
		<g>
			<path style="fill:#FFFFFF;" d="M34,62c0,1.105,0.895,2,2,2h32c1.105,0,2-0.895,2-2v-4c0-1.105-0.895-2-2-2H36
				c-1.105,0-2,0.895-2,2V62z"/>
		</g>
		<g>
			<path style="fill:#E2E4E5;" d="M36,56c-1.105,0-2,0.895-2,2v4c0,1.105,0.895,2,2,2h6v-8H36z"/>
		</g>
		<g>
			<path style="fill:#E2E4E5;" d="M68,56c1.105,0,2,0.895,2,2v4c0,1.105-0.895,2-2,2h-6v-8H68z"/>
		</g>
		<g>
			<path style="fill:#FFFFFF;" d="M43.414,31.586l-4,4c-0.572,0.572-0.743,1.432-0.434,2.18C39.29,38.513,40.02,39,40.828,39h3.263
				l8-8h-7.263C44.298,31,43.789,31.211,43.414,31.586z"/>
		</g>
		<g>
			<path style="fill:#5B5C5F;" d="M44,23c-1.104,0-2,0.896-2,2s0.896,2,2,2h12.092l4-4H44z"/>
		</g>
	</g>
</g>
</svg>
