<?xml version="1.0" encoding="iso-8859-1"?>
<!-- Generator: Adobe Illustrator 17.1.0, SVG Export Plug-In . SVG Version: 6.00 Build 0)  -->
<!DOCTYPE svg PUBLIC "-//W3C//DTD SVG 1.0//EN" "http://www.w3.org/TR/2001/REC-SVG-20010904/DTD/svg10.dtd">
<svg version="1.0" xmlns="http://www.w3.org/2000/svg" xmlns:xlink="http://www.w3.org/1999/xlink" x="0px" y="0px" width="110px"
	 height="110px" viewBox="0 0 110 110" style="enable-background:new 0 0 110 110;" xml:space="preserve">
<g id="Artboard">
</g>
<g id="Multicolor">
	<circle style="fill:#25B7D3;" cx="55" cy="55" r="55"/>
	<g>
		<g>
			<path style="fill:#3E3E3F;" d="M23,87h52v-2c0-2.209-1.791-4-4-4H27c-2.209,0-4,1.791-4,4V87z"/>
		</g>
		<g>
			<path style="fill:#FFFFFF;" d="M39,39v24H23v-8C23,46.163,30.163,39,39,39z"/>
		</g>
		<g>
			<rect x="39" y="37" style="fill:#E2E4E5;" width="6" height="28"/>
		</g>
		<g>
			<rect x="53" y="37" style="fill:#E2E4E5;" width="6" height="28"/>
		</g>
		<g>
			<path style="fill:#FFFFFF;" d="M59,39v24h16v-8C75,46.163,67.837,39,59,39z"/>
		</g>
		<g>
			<path style="fill:#F0F1F1;" d="M68,63h-7v5H37v-5h-7c0,0-3,4-3,18h22h22C71,67,68,63,68,63z"/>
		</g>
		<g>
			<circle style="fill:#DF2C2C;" cx="81" cy="83" r="4"/>
		</g>
		<g>
			<path style="fill:#3E3E3F;" d="M69.565,67c0.281,1.07,0.558,2.391,0.794,4H85c1.105,0,2-0.895,2-2s-0.895-2-2-2H69.565z"/>
		</g>
		<path style="fill:#3E3E3F;" d="M81,41c-0.702,0-1.374-0.127-2-0.349v38.903C79.59,79.211,80.268,79,81,79s1.41,0.211,2,0.555
			V40.651C82.374,40.873,81.702,41,81,41z"/>
		<g>
			<circle style="fill:#DF2C2C;" cx="81" cy="35" r="6"/>
		</g>
		<g>
			<path style="fill:#FA5655;" d="M81,29c-3.314,0-6,2.687-6,6c0,1.752,0.756,3.325,1.954,4.422l8.468-8.467
				C84.325,29.756,82.753,29,81,29z"/>
		</g>
	</g>
</g>
</svg>
