<?xml version="1.0" encoding="iso-8859-1"?>
<!-- Generator: Adobe Illustrator 17.1.0, SVG Export Plug-In . SVG Version: 6.00 Build 0)  -->
<!DOCTYPE svg PUBLIC "-//W3C//DTD SVG 1.0//EN" "http://www.w3.org/TR/2001/REC-SVG-20010904/DTD/svg10.dtd">
<svg version="1.0" xmlns="http://www.w3.org/2000/svg" xmlns:xlink="http://www.w3.org/1999/xlink" x="0px" y="0px" width="110px"
	 height="110px" viewBox="0 0 110 110" style="enable-background:new 0 0 110 110;" xml:space="preserve">
<g id="Artboard" style="display:none;">
	<rect x="-863" y="-71" style="display:inline;fill:#8C8C8C;" width="1412" height="743"/>
</g>
<g id="R-Multicolor">
	<circle style="fill:#25B7D3;" cx="55" cy="55" r="55"/>
	<g>
		<path style="fill:#F0F1F1;" d="M67,25.2c-3.12-1.35-7.05-2.2-12-2.2s-8.88,0.85-12,2.2C31,30.4,31,43,31,43l1,8l3.037,34.382
			C35.22,86.321,36.042,87,37,87h36c0.958,0,1.78-0.679,1.963-1.618L78,51l1-8C79,43,79,30.4,67,25.2z"/>
		<path style="fill:#FFFFFF;" d="M55,23c-4.95,0-8.88,0.85-12,2.2C31,30.4,31,43,31,43l1,8l3.037,34.382
			C35.22,86.321,36.042,87,37,87h18V23z"/>
		<path style="fill:#E2E4E5;" d="M83,45c0-1.105-0.895-2-2-2H29c-1.105,0-2,0.895-2,2v4c0,1.105,0.895,2,2,2h52c1.105,0,2-0.895,2-2
			V45z"/>
		<path style="fill:#FFFFFF;" d="M79,43H31c0,0,0-12.6,12-17.8c3.12-1.35,7.05-2.2,12-2.2s8.88,0.85,12,2.2C79,30.4,79,43,79,43z"/>
		<path style="fill:#CFD3D4;" d="M67,25.2V37c0,1.105-0.895,2-2,2H45c-1.105,0-2-0.895-2-2V25.2c3.12-1.35,7.05-2.2,12-2.2
			S63.88,23.85,67,25.2z"/>
		<path style="fill:#F0F1F1;" d="M55,43H29c-1.104,0-2,0.896-2,2v4c0,1.104,0.896,2,2,2h26V43z"/>
	</g>
</g>
<g id="Multicolor" style="display:none;">
	<g style="display:inline;">
		<path style="fill:#F0F1F1;" d="M67,25.2c-3.12-1.35-7.05-2.2-12-2.2s-8.88,0.85-12,2.2C31,30.4,31,43,31,43l1,8l3.037,34.382
			C35.22,86.321,36.042,87,37,87h36c0.958,0,1.78-0.679,1.963-1.618L78,51l1-8C79,43,79,30.4,67,25.2z"/>
		<path style="fill:#FFFFFF;" d="M55,23c-4.95,0-8.88,0.85-12,2.2C31,30.4,31,43,31,43l1,8l3.037,34.382
			C35.22,86.321,36.042,87,37,87h18V23z"/>
		<path style="fill:#E2E4E5;" d="M83,45c0-1.105-0.895-2-2-2H29c-1.105,0-2,0.895-2,2v4c0,1.105,0.895,2,2,2h52c1.105,0,2-0.895,2-2
			V45z"/>
		<path style="fill:#FFFFFF;" d="M79,43H31c0,0,0-12.6,12-17.8c3.12-1.35,7.05-2.2,12-2.2s8.88,0.85,12,2.2C79,30.4,79,43,79,43z"/>
		<path style="fill:#CFD3D4;" d="M67,25.2V37c0,1.105-0.895,2-2,2H45c-1.105,0-2-0.895-2-2V25.2c3.12-1.35,7.05-2.2,12-2.2
			S63.88,23.85,67,25.2z"/>
		<path style="fill:#F0F1F1;" d="M55,43H29c-1.104,0-2,0.896-2,2v4c0,1.104,0.896,2,2,2h26V43z"/>
	</g>
</g>
<g id="Blue" style="display:none;">
	<g style="display:inline;">
		<g>
			<path style="fill:#E1F5FA;" d="M67.003,25.2c-3.12-1.35-7.05-2.2-12-2.2s-8.88,0.85-12,2.2c-12,5.2-12,17.8-12,17.8l1,8
				l3.037,34.382C35.223,86.321,36.045,87,37.003,87h36c0.957,0,1.78-0.679,1.963-1.618L78.003,51l1-8
				C79.003,43,79.003,30.4,67.003,25.2z"/>
		</g>
		<g>
			<path style="fill:#FFFFFF;" d="M55.003,23c-4.95,0-8.88,0.85-12,2.2c-12,5.2-12,17.8-12,17.8l1,8l3.037,34.382
				C35.223,86.321,36.045,87,37.003,87h18V23z"/>
		</g>
		<g>
			<path style="fill:#BBE7F2;" d="M83.003,45c0-1.104-0.896-2-2-2h-52c-1.104,0-2,0.896-2,2v4c0,1.105,0.896,2,2,2h52
				c1.104,0,2-0.895,2-2V45z"/>
		</g>
		<g>
			<path style="fill:#FFFFFF;" d="M79.003,43h-48c0,0,0-12.6,12-17.8c3.12-1.35,7.05-2.2,12-2.2s8.88,0.85,12,2.2
				C79.003,30.4,79.003,43,79.003,43z"/>
		</g>
		<g>
			<path style="fill:#BBE7F2;" d="M67.003,25.2V37c0,1.105-0.896,2-2,2h-20c-1.104,0-2-0.895-2-2V25.2c3.12-1.35,7.05-2.2,12-2.2
				S63.883,23.85,67.003,25.2z"/>
		</g>
		<g>
			<path style="fill:#E1F5FA;" d="M55.003,43h-26c-1.104,0-2,0.896-2,2v4c0,1.104,0.896,2,2,2h26V43z"/>
		</g>
	</g>
</g>
<g id="R-Blue" style="display:none;">
	<g style="display:inline;">
		<circle style="fill:#81D2EB;" cx="55" cy="55" r="55"/>
	</g>
	<g style="display:inline;">
		<g>
			<path style="fill:#E1F5FA;" d="M67,25.2c-3.12-1.35-7.05-2.2-12-2.2s-8.88,0.85-12,2.2C31,30.4,31,43,31,43l1,8l3.037,34.382
				C35.22,86.321,36.042,87,37,87h36c0.958,0,1.78-0.679,1.963-1.618L78,51l1-8C79,43,79,30.4,67,25.2z"/>
		</g>
		<g>
			<path style="fill:#FFFFFF;" d="M55,23c-4.95,0-8.88,0.85-12,2.2C31,30.4,31,43,31,43l1,8l3.037,34.382
				C35.22,86.321,36.042,87,37,87h18V23z"/>
		</g>
		<g>
			<path style="fill:#BBE7F2;" d="M83,45c0-1.104-0.896-2-2-2H29c-1.104,0-2,0.896-2,2v4c0,1.105,0.896,2,2,2h52
				c1.104,0,2-0.895,2-2V45z"/>
		</g>
		<g>
			<path style="fill:#FFFFFF;" d="M79,43H31c0,0,0-12.6,12-17.8c3.12-1.35,7.05-2.2,12-2.2s8.88,0.85,12,2.2C79,30.4,79,43,79,43z"
				/>
		</g>
		<g>
			<path style="fill:#BBE7F2;" d="M67,25.2V37c0,1.105-0.896,2-2,2H45c-1.104,0-2-0.895-2-2V25.2c3.12-1.35,7.05-2.2,12-2.2
				S63.88,23.85,67,25.2z"/>
		</g>
		<g>
			<path style="fill:#E1F5FA;" d="M55,43H29c-1.104,0-2,0.896-2,2v4c0,1.104,0.896,2,2,2h26V43z"/>
		</g>
	</g>
</g>
<g id="Green" style="display:none;">
	<g style="display:inline;">
		<g>
			<path style="fill:#D7FCF9;" d="M67.003,25.2c-3.12-1.35-7.05-2.2-12-2.2s-8.88,0.85-12,2.2c-12,5.2-12,17.8-12,17.8l1,8
				l3.037,34.382C35.223,86.321,36.045,87,37.003,87h36c0.957,0,1.78-0.679,1.963-1.618L78.003,51l1-8
				C79.003,43,79.003,30.4,67.003,25.2z"/>
		</g>
		<g>
			<path style="fill:#FFFFFF;" d="M55.003,23c-4.95,0-8.88,0.85-12,2.2c-12,5.2-12,17.8-12,17.8l1,8l3.037,34.382
				C35.223,86.321,36.045,87,37.003,87h18V23z"/>
		</g>
		<g>
			<path style="fill:#AAF0E9;" d="M83.003,45c0-1.104-0.896-2-2-2h-52c-1.104,0-2,0.896-2,2v4c0,1.105,0.896,2,2,2h52
				c1.104,0,2-0.895,2-2V45z"/>
		</g>
		<g>
			<path style="fill:#FFFFFF;" d="M79.003,43h-48c0,0,0-12.6,12-17.8c3.12-1.35,7.05-2.2,12-2.2s8.88,0.85,12,2.2
				C79.003,30.4,79.003,43,79.003,43z"/>
		</g>
		<g>
			<path style="fill:#AAF0E9;" d="M67.003,25.2V37c0,1.105-0.896,2-2,2h-20c-1.104,0-2-0.895-2-2V25.2c3.12-1.35,7.05-2.2,12-2.2
				S63.883,23.85,67.003,25.2z"/>
		</g>
		<g>
			<path style="fill:#D7FCF9;" d="M55.003,43h-26c-1.104,0-2,0.896-2,2v4c0,1.104,0.896,2,2,2h26V43z"/>
		</g>
	</g>
</g>
<g id="R-Green" style="display:none;">
	<g style="display:inline;">
		<circle style="fill:#87E0C8;" cx="55" cy="55" r="55"/>
	</g>
	<g style="display:inline;">
		<g>
			<path style="fill:#D7FCF9;" d="M67,25.2c-3.12-1.35-7.05-2.2-12-2.2s-8.88,0.85-12,2.2C31,30.4,31,43,31,43l1,8l3.037,34.382
				C35.22,86.321,36.042,87,37,87h36c0.958,0,1.78-0.679,1.963-1.618L78,51l1-8C79,43,79,30.4,67,25.2z"/>
		</g>
		<g>
			<path style="fill:#FFFFFF;" d="M55,23c-4.95,0-8.88,0.85-12,2.2C31,30.4,31,43,31,43l1,8l3.037,34.382
				C35.22,86.321,36.042,87,37,87h18V23z"/>
		</g>
		<g>
			<path style="fill:#AAF0E9;" d="M83,45c0-1.104-0.896-2-2-2H29c-1.104,0-2,0.896-2,2v4c0,1.105,0.896,2,2,2h52
				c1.104,0,2-0.895,2-2V45z"/>
		</g>
		<g>
			<path style="fill:#FFFFFF;" d="M79,43H31c0,0,0-12.6,12-17.8c3.12-1.35,7.05-2.2,12-2.2s8.88,0.85,12,2.2C79,30.4,79,43,79,43z"
				/>
		</g>
		<g>
			<path style="fill:#AAF0E9;" d="M67,25.2V37c0,1.105-0.896,2-2,2H45c-1.104,0-2-0.895-2-2V25.2c3.12-1.35,7.05-2.2,12-2.2
				S63.88,23.85,67,25.2z"/>
		</g>
		<g>
			<path style="fill:#D7FCF9;" d="M55,43H29c-1.104,0-2,0.896-2,2v4c0,1.104,0.896,2,2,2h26V43z"/>
		</g>
	</g>
</g>
<g id="Red" style="display:none;">
	<g style="display:inline;">
		<g>
			<path style="fill:#FFEFED;" d="M67,25.2c-3.12-1.35-7.05-2.2-12-2.2s-8.88,0.85-12,2.2C31,30.4,31,43,31,43l1,8l3.037,34.382
				C35.22,86.321,36.042,87,37,87h36c0.958,0,1.78-0.679,1.963-1.618L78,51l1-8C79,43,79,30.4,67,25.2z"/>
		</g>
		<g>
			<path style="fill:#FFFFFF;" d="M55,23c-4.95,0-8.88,0.85-12,2.2C31,30.4,31,43,31,43l1,8l3.037,34.382
				C35.22,86.321,36.042,87,37,87h18V23z"/>
		</g>
		<g>
			<path style="fill:#FFD7D4;" d="M83,45c0-1.104-0.896-2-2-2H29c-1.104,0-2,0.896-2,2v4c0,1.105,0.896,2,2,2h52
				c1.104,0,2-0.895,2-2V45z"/>
		</g>
		<g>
			<path style="fill:#FFFFFF;" d="M79,43H31c0,0,0-12.6,12-17.8c3.12-1.35,7.05-2.2,12-2.2s8.88,0.85,12,2.2C79,30.4,79,43,79,43z"
				/>
		</g>
		<g>
			<path style="fill:#FFD7D4;" d="M67,25.2V37c0,1.105-0.896,2-2,2H45c-1.104,0-2-0.895-2-2V25.2c3.12-1.35,7.05-2.2,12-2.2
				S63.88,23.85,67,25.2z"/>
		</g>
		<g>
			<path style="fill:#FFEFED;" d="M55,43H29c-1.104,0-2,0.896-2,2v4c0,1.104,0.896,2,2,2h26V43z"/>
		</g>
	</g>
</g>
<g id="R-Red" style="display:none;">
	<g style="display:inline;">
		<circle style="fill:#FABBAF;" cx="55" cy="55" r="55"/>
	</g>
	<g style="display:inline;">
		<g>
			<path style="fill:#FFEFED;" d="M67,25.2c-3.12-1.35-7.05-2.2-12-2.2s-8.88,0.85-12,2.2C31,30.4,31,43,31,43l1,8l3.037,34.382
				C35.22,86.321,36.042,87,37,87h36c0.958,0,1.78-0.679,1.963-1.618L78,51l1-8C79,43,79,30.4,67,25.2z"/>
		</g>
		<g>
			<path style="fill:#FFFFFF;" d="M55,23c-4.95,0-8.88,0.85-12,2.2C31,30.4,31,43,31,43l1,8l3.037,34.382
				C35.22,86.321,36.042,87,37,87h18V23z"/>
		</g>
		<g>
			<path style="fill:#FFD7D4;" d="M83,45c0-1.104-0.896-2-2-2H29c-1.104,0-2,0.896-2,2v4c0,1.105,0.896,2,2,2h52
				c1.104,0,2-0.895,2-2V45z"/>
		</g>
		<g>
			<path style="fill:#FFFFFF;" d="M79,43H31c0,0,0-12.6,12-17.8c3.12-1.35,7.05-2.2,12-2.2s8.88,0.85,12,2.2C79,30.4,79,43,79,43z"
				/>
		</g>
		<g>
			<path style="fill:#FFD7D4;" d="M67,25.2V37c0,1.105-0.896,2-2,2H45c-1.104,0-2-0.895-2-2V25.2c3.12-1.35,7.05-2.2,12-2.2
				S63.88,23.85,67,25.2z"/>
		</g>
		<g>
			<path style="fill:#FFEFED;" d="M55,43H29c-1.104,0-2,0.896-2,2v4c0,1.104,0.896,2,2,2h26V43z"/>
		</g>
	</g>
</g>
<g id="Yellow" style="display:none;">
	<g style="display:inline;">
		<g>
			<path style="fill:#FFF5D9;" d="M67.003,25.2c-3.12-1.35-7.05-2.2-12-2.2s-8.88,0.85-12,2.2c-12,5.2-12,17.8-12,17.8l1,8
				l3.037,34.382C35.223,86.321,36.045,87,37.003,87h36c0.957,0,1.78-0.679,1.963-1.618L78.003,51l1-8
				C79.003,43,79.003,30.4,67.003,25.2z"/>
		</g>
		<g>
			<path style="fill:#FFFFFF;" d="M55.003,23c-4.95,0-8.88,0.85-12,2.2c-12,5.2-12,17.8-12,17.8l1,8l3.037,34.382
				C35.223,86.321,36.045,87,37.003,87h18V23z"/>
		</g>
		<g>
			<path style="fill:#FFE9A1;" d="M83.003,45c0-1.104-0.896-2-2-2h-52c-1.104,0-2,0.896-2,2v4c0,1.105,0.896,2,2,2h52
				c1.104,0,2-0.895,2-2V45z"/>
		</g>
		<g>
			<path style="fill:#FFFFFF;" d="M79.003,43h-48c0,0,0-12.6,12-17.8c3.12-1.35,7.05-2.2,12-2.2s8.88,0.85,12,2.2
				C79.003,30.4,79.003,43,79.003,43z"/>
		</g>
		<g>
			<path style="fill:#FFE9A1;" d="M67.003,25.2V37c0,1.105-0.896,2-2,2h-20c-1.104,0-2-0.895-2-2V25.2c3.12-1.35,7.05-2.2,12-2.2
				S63.883,23.85,67.003,25.2z"/>
		</g>
		<g>
			<path style="fill:#FFF5D9;" d="M55.003,43h-26c-1.104,0-2,0.896-2,2v4c0,1.104,0.896,2,2,2h26V43z"/>
		</g>
	</g>
</g>
<g id="R-Yellow" style="display:none;">
	<g style="display:inline;">
		<circle style="fill:#FFD75E;" cx="55" cy="55" r="55"/>
	</g>
	<g style="display:inline;">
		<g>
			<path style="fill:#FFF5D9;" d="M67,25.2c-3.12-1.35-7.05-2.2-12-2.2s-8.88,0.85-12,2.2C31,30.4,31,43,31,43l1,8l3.037,34.382
				C35.22,86.321,36.042,87,37,87h36c0.957,0,1.78-0.679,1.963-1.618L78,51l1-8C79,43,79,30.4,67,25.2z"/>
		</g>
		<g>
			<path style="fill:#FFFFFF;" d="M55,23c-4.95,0-8.88,0.85-12,2.2C31,30.4,31,43,31,43l1,8l3.037,34.382
				C35.22,86.321,36.042,87,37,87h18V23z"/>
		</g>
		<g>
			<path style="fill:#FFE9A1;" d="M83,45c0-1.104-0.896-2-2-2H29c-1.104,0-2,0.896-2,2v4c0,1.105,0.896,2,2,2h52
				c1.104,0,2-0.895,2-2V45z"/>
		</g>
		<g>
			<path style="fill:#FFFFFF;" d="M79,43H31c0,0,0-12.6,12-17.8c3.12-1.35,7.05-2.2,12-2.2s8.88,0.85,12,2.2C79,30.4,79,43,79,43z"
				/>
		</g>
		<g>
			<path style="fill:#FFE9A1;" d="M67,25.2V37c0,1.105-0.896,2-2,2H45c-1.104,0-2-0.895-2-2V25.2c3.12-1.35,7.05-2.2,12-2.2
				S63.88,23.85,67,25.2z"/>
		</g>
		<g>
			<path style="fill:#FFF5D9;" d="M55,43H29c-1.104,0-2,0.896-2,2v4c0,1.104,0.896,2,2,2h26V43z"/>
		</g>
	</g>
</g>
</svg>
