<?xml version="1.0" encoding="iso-8859-1"?>
<!-- Generator: Adobe Illustrator 17.1.0, SVG Export Plug-In . SVG Version: 6.00 Build 0)  -->
<!DOCTYPE svg PUBLIC "-//W3C//DTD SVG 1.0//EN" "http://www.w3.org/TR/2001/REC-SVG-20010904/DTD/svg10.dtd">
<svg version="1.0" xmlns="http://www.w3.org/2000/svg" xmlns:xlink="http://www.w3.org/1999/xlink" x="0px" y="0px" width="110px"
	 height="110px" viewBox="0 0 110 110" style="enable-background:new 0 0 110 110;" xml:space="preserve">
<g id="Artboard">
</g>
<g id="Multicolor">
	<circle style="fill:#FABC3D;" cx="55" cy="55" r="55"/>
	<g>
		<path style="fill:#3E3E3F;" d="M37.654,55c-1.67,0-3.16,1.03-3.74,2.6l-10.02,26.7c-0.23,0.61-0.14,1.3,0.23,1.84
			c0.38,0.54,0.99,0.86,1.65,0.86h11.11l3-6h4l3,6h16l3-6h4l3,6h11.11c0.66,0,1.27-0.32,1.65-0.86c0.37-0.54,0.46-1.23,0.23-1.84
			l-10.02-26.7c-0.58-1.57-2.07-2.6-3.74-2.6H37.654z"/>
		<path style="fill:#5B5C5F;" d="M45.784,55h-8.13c-1.67,0-3.16,1.03-3.74,2.6l-10.02,26.7c-0.23,0.61-0.14,1.3,0.23,1.84
			c0.38,0.54,0.99,0.86,1.65,0.86h2.088l32-32H45.784z"/>
		<path style="fill:#F0F1F1;" d="M69.884,81h-0.85c-1,0-1.83-0.72-1.97-1.72c-0.69-4.83-2.05-14.71-3.08-24.28
			c-0.41-3.78-0.77-7.5-1.02-10.85c2.64-1.49,7.92-4.99,7.92-9.15c0-5.27-8.97-12-16-12c-7.03,0-16,6.73-16,12
			c0,4.16,5.28,7.66,7.92,9.15c-0.25,3.35-0.61,7.07-1.02,10.85c-1.03,9.57-2.39,19.45-3.08,24.28c-0.14,1-0.97,1.72-1.97,1.72
			h-0.85l-2,4h2.85c1.64,0,3.16-0.68,4.25-1.79c0.88-0.89,1.49-2.05,1.68-3.36c0.71-4.93,2.1-15.07,3.15-24.85
			c0.45-4.17,0.83-8.27,1.07-11.87l0.08-1.32l-1.18-0.6c-2.9-1.45-6.9-4.42-6.9-6.21c0-2.58,6.72-8,12-8c5.28,0,12,5.42,12,8
			c0,1.79-4,4.76-6.9,6.21l-1.18,0.6l0.08,1.32c0.24,3.6,0.62,7.7,1.07,11.87c1.05,9.78,2.44,19.92,3.15,24.85
			c0.19,1.31,0.8,2.47,1.68,3.36c1.09,1.11,2.61,1.79,4.25,1.79h2.85L69.884,81z"/>
	</g>
</g>
</svg>
