<?xml version="1.0" encoding="iso-8859-1"?>
<!-- Generator: Adobe Illustrator 17.1.0, SVG Export Plug-In . SVG Version: 6.00 Build 0)  -->
<!DOCTYPE svg PUBLIC "-//W3C//DTD SVG 1.0//EN" "http://www.w3.org/TR/2001/REC-SVG-20010904/DTD/svg10.dtd">
<svg version="1.0" xmlns="http://www.w3.org/2000/svg" xmlns:xlink="http://www.w3.org/1999/xlink" x="0px" y="0px" width="110px"
	 height="110px" viewBox="0 0 110 110" style="enable-background:new 0 0 110 110;" xml:space="preserve">
<g id="Artboard" style="display:none;">
	<rect x="-351" y="-71" style="display:inline;fill:#8C8C8C;" width="1412" height="743"/>
</g>
<g id="R-Multicolor">
	<circle style="fill:#25B7D3;" cx="55" cy="55" r="55"/>
	<g>
		<path style="fill:#3E3E3F;" d="M51,85c0,1.105-0.895,2-2,2H25c-1.105,0-2-0.895-2-2v-8c0-1.105,0.895-2,2-2h24
			c1.105,0,2,0.895,2,2V85z"/>
		<polygon style="fill:#3E3E3F;" points="47,63 31,63 27,75 47,75 		"/>
		<path style="fill:#3E3E3F;" d="M49,23H37c-1.104,0-2,0.896-2,2v4c0,1.104,0.896,2,2,2h2v4h8v-4h2c1.104,0,2-0.896,2-2v-4
			C51,23.896,50.104,23,49,23z"/>
		<path style="fill:#3E3E3F;" d="M59,85c0,1.105,0.895,2,2,2h24c1.105,0,2-0.895,2-2v-8c0-1.105-0.895-2-2-2H61
			c-1.105,0-2,0.895-2,2V85z"/>
		<polygon style="fill:#3E3E3F;" points="63,63 79,63 83,75 63,75 		"/>
		<path style="fill:#3E3E3F;" d="M73,23H61c-1.104,0-2,0.896-2,2v4c0,1.104,0.896,2,2,2h2v4h8v-4h2c1.104,0,2-0.896,2-2v-4
			C75,23.896,74.104,23,73,23z"/>
		<path style="fill:#3E3E3F;" d="M32.509,35c-0.893,0-1.678,0.592-1.923,1.451l-7.508,24c-0.172,0.604-0.052,1.252,0.326,1.754
			C23.781,62.706,24.373,63,25,63h25c1.657,0,3-1.343,3-3V38c0-1.657-1.343-3-3-3H32.509z"/>
		<path style="fill:#5B5C5F;" d="M77.491,35c0.893,0,1.678,0.592,1.923,1.451l7.508,24c0.172,0.604,0.052,1.252-0.326,1.754
			C86.219,62.706,85.627,63,85,63H60c-1.657,0-3-1.343-3-3V38c0-1.657,1.343-3,3-3H77.491z"/>
		<rect x="53" y="43" style="fill:#3E3E3F;" width="4" height="11"/>
		<path style="fill:#E2E4E5;" d="M23,85c0,1.104,0.896,2,2,2h24c1.104,0,2-0.896,2-2v-4H23V85z"/>
		<path style="fill:#E2E4E5;" d="M51,27v-2c0-1.104-0.896-2-2-2H37c-1.104,0-2,0.896-2,2v2H51z"/>
		<path style="fill:#FFFFFF;" d="M43,23h-6c-1.104,0-2,0.896-2,2v2h8V23z"/>
		<path style="fill:#E2E4E5;" d="M75,27v-2c0-1.104-0.896-2-2-2H61c-1.104,0-2,0.896-2,2v2H75z"/>
		<path style="fill:#FFFFFF;" d="M67,23h-6c-1.104,0-2,0.896-2,2v2h8V23z"/>
		<path style="fill:#FFFFFF;" d="M38,81H23v4c0,1.104,0.896,2,2,2h13V81z"/>
		<path style="fill:#E2E4E5;" d="M59,85c0,1.104,0.896,2,2,2h24c1.104,0,2-0.896,2-2v-4H59V85z"/>
		<path style="fill:#FFFFFF;" d="M74,81H59v4c0,1.104,0.896,2,2,2h13V81z"/>
		<path style="fill:#5B5C5F;" d="M40,35h-7.491c-0.893,0-1.678,0.592-1.923,1.451l-7.508,24c-0.172,0.604-0.052,1.252,0.326,1.754
			C23.781,62.706,24.373,63,25,63h15V35z"/>
		<path style="fill:#3E3E3F;" d="M70,35h7.491c0.893,0,1.678,0.592,1.923,1.451l7.508,24c0.172,0.604,0.052,1.252-0.326,1.754
			C86.219,62.706,85.627,63,85,63H70V35z"/>
	</g>
</g>
<g id="Multicolor" style="display:none;">
	<g style="display:inline;">
		<path style="fill:#3E3E3F;" d="M51,85c0,1.105-0.895,2-2,2H25c-1.105,0-2-0.895-2-2v-8c0-1.105,0.895-2,2-2h24
			c1.105,0,2,0.895,2,2V85z"/>
		<polygon style="fill:#3E3E3F;" points="47,63 31,63 27,75 47,75 		"/>
		<path style="fill:#3E3E3F;" d="M49,23H37c-1.104,0-2,0.896-2,2v4c0,1.104,0.896,2,2,2h2v4h8v-4h2c1.104,0,2-0.896,2-2v-4
			C51,23.896,50.104,23,49,23z"/>
		<path style="fill:#3E3E3F;" d="M59,85c0,1.105,0.895,2,2,2h24c1.105,0,2-0.895,2-2v-8c0-1.105-0.895-2-2-2H61
			c-1.105,0-2,0.895-2,2V85z"/>
		<polygon style="fill:#3E3E3F;" points="63,63 79,63 83,75 63,75 		"/>
		<path style="fill:#3E3E3F;" d="M73,23H61c-1.104,0-2,0.896-2,2v4c0,1.104,0.896,2,2,2h2v4h8v-4h2c1.104,0,2-0.896,2-2v-4
			C75,23.896,74.104,23,73,23z"/>
		<path style="fill:#3E3E3F;" d="M32.509,35c-0.893,0-1.678,0.592-1.923,1.451l-7.508,24c-0.172,0.604-0.052,1.252,0.326,1.754
			C23.781,62.706,24.373,63,25,63h25c1.657,0,3-1.343,3-3V38c0-1.657-1.343-3-3-3H32.509z"/>
		<path style="fill:#5B5C5F;" d="M77.491,35c0.893,0,1.678,0.592,1.923,1.451l7.508,24c0.172,0.604,0.052,1.252-0.326,1.754
			C86.219,62.706,85.627,63,85,63H60c-1.657,0-3-1.343-3-3V38c0-1.657,1.343-3,3-3H77.491z"/>
		<rect x="53" y="43" style="fill:#3E3E3F;" width="4" height="11"/>
		<path style="fill:#E2E4E5;" d="M23,85c0,1.104,0.896,2,2,2h24c1.104,0,2-0.896,2-2v-4H23V85z"/>
		<path style="fill:#E2E4E5;" d="M51,27v-2c0-1.104-0.896-2-2-2H37c-1.104,0-2,0.896-2,2v2H51z"/>
		<path style="fill:#FFFFFF;" d="M43,23h-6c-1.104,0-2,0.896-2,2v2h8V23z"/>
		<path style="fill:#E2E4E5;" d="M75,27v-2c0-1.104-0.896-2-2-2H61c-1.104,0-2,0.896-2,2v2H75z"/>
		<path style="fill:#FFFFFF;" d="M67,23h-6c-1.104,0-2,0.896-2,2v2h8V23z"/>
		<path style="fill:#FFFFFF;" d="M38,81H23v4c0,1.104,0.896,2,2,2h13V81z"/>
		<path style="fill:#E2E4E5;" d="M59,85c0,1.104,0.896,2,2,2h24c1.104,0,2-0.896,2-2v-4H59V85z"/>
		<path style="fill:#FFFFFF;" d="M74,81H59v4c0,1.104,0.896,2,2,2h13V81z"/>
		<path style="fill:#5B5C5F;" d="M40,35h-7.491c-0.893,0-1.678,0.592-1.923,1.451l-7.508,24c-0.172,0.604-0.052,1.252,0.326,1.754
			C23.781,62.706,24.373,63,25,63h15V35z"/>
		<path style="fill:#3E3E3F;" d="M70,35h7.491c0.893,0,1.678,0.592,1.923,1.451l7.508,24c0.172,0.604,0.052,1.252-0.326,1.754
			C86.219,62.706,85.627,63,85,63H70V35z"/>
	</g>
</g>
<g id="Blue" style="display:none;">
	<g style="display:inline;">
		<g>
			<path style="fill:#0F6175;" d="M51.003,85c0,1.105-0.896,2-2,2h-24c-1.104,0-2-0.895-2-2v-8c0-1.104,0.896-2,2-2h24
				c1.104,0,2,0.896,2,2V85z"/>
		</g>
		<g>
			<polygon style="fill:#0C333D;" points="47.003,63 31.003,63 27.003,75 47.003,75 			"/>
		</g>
		<g>
			<path style="fill:#0F6175;" d="M49.003,23h-12c-1.104,0-2,0.896-2,2v4c0,1.104,0.896,2,2,2h2v4h8v-4h2c1.104,0,2-0.896,2-2v-4
				C51.003,23.895,50.107,23,49.003,23z"/>
		</g>
		<g>
			<path style="fill:#0F6175;" d="M59.003,85c0,1.105,0.896,2,2,2h24c1.104,0,2-0.895,2-2v-8c0-1.104-0.896-2-2-2h-24
				c-1.104,0-2,0.896-2,2V85z"/>
		</g>
		<g>
			<polygon style="fill:#0C333D;" points="63.003,63 79.003,63 83.003,75 63.003,75 			"/>
		</g>
		<g>
			<path style="fill:#0F6175;" d="M73.003,23h-12c-1.104,0-2,0.896-2,2v4c0,1.104,0.896,2,2,2h2v4h8v-4h2c1.104,0,2-0.896,2-2v-4
				C75.003,23.895,74.107,23,73.003,23z"/>
		</g>
		<g>
			<path style="fill:#0081A1;" d="M32.512,35c-0.893,0-1.678,0.592-1.923,1.451l-7.508,24c-0.172,0.604-0.052,1.252,0.326,1.754
				C23.784,62.705,24.375,63,25.003,63h25c1.657,0,3-1.343,3-3V38c0-1.657-1.343-3-3-3H32.512z"/>
		</g>
		<g>
			<path style="fill:#009FC7;" d="M77.494,35c0.893,0,1.678,0.592,1.923,1.451l7.508,24c0.172,0.604,0.052,1.252-0.326,1.754
				C86.222,62.705,85.63,63,85.003,63h-25c-1.657,0-3-1.343-3-3V38c0-1.657,1.343-3,3-3H77.494z"/>
		</g>
		<g>
			<rect x="53.003" y="43" style="fill:#0C333D;" width="4" height="11"/>
		</g>
		<g>
			<path style="fill:#BBE7F2;" d="M23.003,85c0,1.105,0.896,2,2,2h24c1.104,0,2-0.895,2-2v-4h-28V85z"/>
		</g>
		<g>
			<path style="fill:#BBE7F2;" d="M51.003,27v-2c0-1.104-0.896-2-2-2h-12c-1.104,0-2,0.896-2,2v2H51.003z"/>
		</g>
		<g>
			<path style="fill:#FFFFFF;" d="M43.003,23h-6c-1.104,0-2,0.896-2,2v2h8V23z"/>
		</g>
		<g>
			<path style="fill:#BBE7F2;" d="M75.003,27v-2c0-1.104-0.896-2-2-2h-12c-1.104,0-2,0.896-2,2v2H75.003z"/>
		</g>
		<g>
			<path style="fill:#FFFFFF;" d="M67.003,23h-6c-1.104,0-2,0.896-2,2v2h8V23z"/>
		</g>
		<g>
			<path style="fill:#FFFFFF;" d="M38.003,81h-15v4c0,1.105,0.896,2,2,2h13V81z"/>
		</g>
		<g>
			<path style="fill:#BBE7F2;" d="M59.003,85c0,1.105,0.896,2,2,2h24c1.104,0,2-0.895,2-2v-4h-28V85z"/>
		</g>
		<g>
			<path style="fill:#FFFFFF;" d="M74.003,81h-15v4c0,1.105,0.896,2,2,2h13V81z"/>
		</g>
		<g>
			<path style="fill:#009FC7;" d="M40.003,35h-7.491c-0.893,0-1.678,0.592-1.923,1.451l-7.508,24
				c-0.172,0.604-0.052,1.252,0.326,1.754C23.784,62.705,24.375,63,25.003,63h15V35z"/>
		</g>
		<g>
			<path style="fill:#0081A1;" d="M70.003,35h7.491c0.893,0,1.678,0.592,1.923,1.451l7.508,24c0.172,0.604,0.052,1.252-0.326,1.754
				C86.222,62.705,85.63,63,85.003,63h-15V35z"/>
		</g>
		<rect x="39.003" y="31" style="fill:#0C333D;" width="8" height="4"/>
		<rect x="63.003" y="31" style="fill:#0C333D;" width="8" height="4"/>
	</g>
</g>
<g id="R-Blue" style="display:none;">
	<g style="display:inline;">
		<circle style="fill:#81D2EB;" cx="55" cy="55" r="55"/>
	</g>
	<g style="display:inline;">
		<g>
			<path style="fill:#0F6175;" d="M51,85c0,1.105-0.896,2-2,2H25c-1.104,0-2-0.895-2-2v-8c0-1.104,0.896-2,2-2h24
				c1.104,0,2,0.896,2,2V85z"/>
		</g>
		<g>
			<polygon style="fill:#0C333D;" points="47,63 31,63 27,75 47,75 			"/>
		</g>
		<g>
			<path style="fill:#0F6175;" d="M49,23H37c-1.104,0-2,0.896-2,2v4c0,1.104,0.896,2,2,2h2v4h8v-4h2c1.104,0,2-0.896,2-2v-4
				C51,23.896,50.104,23,49,23z"/>
		</g>
		<g>
			<path style="fill:#0F6175;" d="M59,85c0,1.105,0.896,2,2,2h24c1.104,0,2-0.895,2-2v-8c0-1.104-0.896-2-2-2H61
				c-1.104,0-2,0.896-2,2V85z"/>
		</g>
		<g>
			<polygon style="fill:#0C333D;" points="63,63 79,63 83,75 63,75 			"/>
		</g>
		<g>
			<path style="fill:#0F6175;" d="M73,23H61c-1.104,0-2,0.896-2,2v4c0,1.104,0.896,2,2,2h2v4h8v-4h2c1.104,0,2-0.896,2-2v-4
				C75,23.896,74.104,23,73,23z"/>
		</g>
		<g>
			<path style="fill:#0081A1;" d="M32.509,35c-0.893,0-1.678,0.592-1.923,1.451l-7.508,24c-0.172,0.604-0.052,1.252,0.326,1.754
				C23.781,62.706,24.373,63,25,63h25c1.657,0,3-1.343,3-3V38c0-1.657-1.343-3-3-3H32.509z"/>
		</g>
		<g>
			<path style="fill:#009FC7;" d="M77.491,35c0.893,0,1.678,0.592,1.923,1.451l7.508,24c0.172,0.604,0.052,1.252-0.326,1.754
				C86.219,62.706,85.627,63,85,63H60c-1.657,0-3-1.343-3-3V38c0-1.657,1.343-3,3-3H77.491z"/>
		</g>
		<g>
			<rect x="53" y="43" style="fill:#0C333D;" width="4" height="11"/>
		</g>
		<g>
			<path style="fill:#BBE7F2;" d="M23,85c0,1.104,0.896,2,2,2h24c1.104,0,2-0.896,2-2v-4H23V85z"/>
		</g>
		<g>
			<path style="fill:#BBE7F2;" d="M51,27v-2c0-1.104-0.896-2-2-2H37c-1.104,0-2,0.896-2,2v2H51z"/>
		</g>
		<g>
			<path style="fill:#FFFFFF;" d="M43,23h-6c-1.104,0-2,0.896-2,2v2h8V23z"/>
		</g>
		<g>
			<path style="fill:#BBE7F2;" d="M75,27v-2c0-1.104-0.896-2-2-2H61c-1.104,0-2,0.896-2,2v2H75z"/>
		</g>
		<g>
			<path style="fill:#FFFFFF;" d="M67,23h-6c-1.104,0-2,0.896-2,2v2h8V23z"/>
		</g>
		<g>
			<path style="fill:#FFFFFF;" d="M38,81H23v4c0,1.104,0.896,2,2,2h13V81z"/>
		</g>
		<g>
			<path style="fill:#BBE7F2;" d="M59,85c0,1.104,0.896,2,2,2h24c1.104,0,2-0.896,2-2v-4H59V85z"/>
		</g>
		<g>
			<path style="fill:#FFFFFF;" d="M74,81H59v4c0,1.104,0.896,2,2,2h13V81z"/>
		</g>
		<g>
			<path style="fill:#009FC7;" d="M40,35h-7.491c-0.893,0-1.678,0.592-1.923,1.451l-7.508,24c-0.172,0.604-0.052,1.252,0.326,1.754
				C23.781,62.706,24.373,63,25,63h15V35z"/>
		</g>
		<g>
			<path style="fill:#0081A1;" d="M70,35h7.491c0.893,0,1.678,0.592,1.923,1.451l7.508,24c0.172,0.604,0.052,1.252-0.326,1.754
				C86.219,62.706,85.627,63,85,63H70V35z"/>
		</g>
		<rect x="39" y="31" style="fill:#0C333D;" width="8" height="4"/>
		<rect x="63" y="31" style="fill:#0C333D;" width="8" height="4"/>
	</g>
</g>
<g id="Green" style="display:none;">
	<g style="display:inline;">
		<g>
			<path style="fill:#14635B;" d="M51.003,85c0,1.105-0.896,2-2,2h-24c-1.104,0-2-0.895-2-2v-8c0-1.104,0.896-2,2-2h24
				c1.104,0,2,0.896,2,2V85z"/>
		</g>
		<g>
			<polygon style="fill:#0A3631;" points="47.003,63 31.003,63 27.003,75 47.003,75 			"/>
		</g>
		<g>
			<path style="fill:#14635B;" d="M49.003,23h-12c-1.104,0-2,0.896-2,2v4c0,1.104,0.896,2,2,2h2v4h8v-4h2c1.104,0,2-0.896,2-2v-4
				C51.003,23.896,50.107,23,49.003,23z"/>
		</g>
		<g>
			<path style="fill:#14635B;" d="M59.003,85c0,1.105,0.896,2,2,2h24c1.104,0,2-0.895,2-2v-8c0-1.104-0.896-2-2-2h-24
				c-1.104,0-2,0.896-2,2V85z"/>
		</g>
		<g>
			<polygon style="fill:#0A3631;" points="63.003,63 79.003,63 83.003,75 63.003,75 			"/>
		</g>
		<g>
			<path style="fill:#14635B;" d="M73.003,23h-12c-1.104,0-2,0.896-2,2v4c0,1.104,0.896,2,2,2h2v4h8v-4h2c1.104,0,2-0.896,2-2v-4
				C75.003,23.896,74.107,23,73.003,23z"/>
		</g>
		<g>
			<path style="fill:#009687;" d="M32.512,35c-0.893,0-1.678,0.592-1.923,1.451l-7.508,24c-0.172,0.604-0.052,1.252,0.326,1.754
				C23.784,62.706,24.375,63,25.003,63h25c1.657,0,3-1.343,3-3V38c0-1.657-1.343-3-3-3H32.512z"/>
		</g>
		<g>
			<path style="fill:#00B8A5;" d="M77.494,35c0.893,0,1.678,0.592,1.923,1.451l7.508,24c0.172,0.604,0.052,1.252-0.326,1.754
				C86.222,62.706,85.63,63,85.003,63h-25c-1.657,0-3-1.343-3-3V38c0-1.657,1.343-3,3-3H77.494z"/>
		</g>
		<g>
			<rect x="53.003" y="43" style="fill:#0A3631;" width="4" height="11"/>
		</g>
		<g>
			<path style="fill:#AAF0E9;" d="M23.003,85c0,1.104,0.896,2,2,2h24c1.104,0,2-0.896,2-2v-4h-28V85z"/>
		</g>
		<g>
			<path style="fill:#AAF0E9;" d="M51.003,27v-2c0-1.104-0.896-2-2-2h-12c-1.104,0-2,0.896-2,2v2H51.003z"/>
		</g>
		<g>
			<path style="fill:#FFFFFF;" d="M43.003,23h-6c-1.104,0-2,0.896-2,2v2h8V23z"/>
		</g>
		<g>
			<path style="fill:#AAF0E9;" d="M75.003,27v-2c0-1.104-0.896-2-2-2h-12c-1.104,0-2,0.896-2,2v2H75.003z"/>
		</g>
		<g>
			<path style="fill:#FFFFFF;" d="M67.003,23h-6c-1.104,0-2,0.896-2,2v2h8V23z"/>
		</g>
		<g>
			<path style="fill:#FFFFFF;" d="M38.003,81h-15v4c0,1.104,0.896,2,2,2h13V81z"/>
		</g>
		<g>
			<path style="fill:#AAF0E9;" d="M59.003,85c0,1.104,0.896,2,2,2h24c1.104,0,2-0.896,2-2v-4h-28V85z"/>
		</g>
		<g>
			<path style="fill:#FFFFFF;" d="M74.003,81h-15v4c0,1.104,0.896,2,2,2h13V81z"/>
		</g>
		<g>
			<path style="fill:#00B8A5;" d="M40.003,35h-7.491c-0.893,0-1.678,0.592-1.923,1.451l-7.508,24
				c-0.172,0.604-0.052,1.252,0.326,1.754C23.784,62.706,24.375,63,25.003,63h15V35z"/>
		</g>
		<g>
			<path style="fill:#009687;" d="M70.003,35h7.491c0.893,0,1.678,0.592,1.923,1.451l7.508,24c0.172,0.604,0.052,1.252-0.326,1.754
				C86.222,62.706,85.63,63,85.003,63h-15V35z"/>
		</g>
		<rect x="39.003" y="31" style="fill:#0A3631;" width="8" height="4"/>
		<rect x="63.003" y="31" style="fill:#0A3631;" width="8" height="4"/>
	</g>
</g>
<g id="R-Green" style="display:none;">
	<g style="display:inline;">
		<circle style="fill:#87E0C8;" cx="55" cy="55" r="55"/>
	</g>
	<g style="display:inline;">
		<g>
			<path style="fill:#14635B;" d="M51,85c0,1.105-0.896,2-2,2H25c-1.104,0-2-0.895-2-2v-8c0-1.104,0.896-2,2-2h24
				c1.104,0,2,0.896,2,2V85z"/>
		</g>
		<g>
			<polygon style="fill:#0A3631;" points="47,63 31,63 27,75 47,75 			"/>
		</g>
		<g>
			<path style="fill:#14635B;" d="M49,23H37c-1.104,0-2,0.896-2,2v4c0,1.104,0.896,2,2,2h2v4h8v-4h2c1.104,0,2-0.896,2-2v-4
				C51,23.896,50.104,23,49,23z"/>
		</g>
		<g>
			<path style="fill:#14635B;" d="M59,85c0,1.105,0.896,2,2,2h24c1.104,0,2-0.895,2-2v-8c0-1.104-0.896-2-2-2H61
				c-1.104,0-2,0.896-2,2V85z"/>
		</g>
		<g>
			<polygon style="fill:#0A3631;" points="63,63 79,63 83,75 63,75 			"/>
		</g>
		<g>
			<path style="fill:#14635B;" d="M73,23H61c-1.104,0-2,0.896-2,2v4c0,1.104,0.896,2,2,2h2v4h8v-4h2c1.104,0,2-0.896,2-2v-4
				C75,23.896,74.104,23,73,23z"/>
		</g>
		<g>
			<path style="fill:#009687;" d="M32.509,35c-0.893,0-1.678,0.592-1.923,1.451l-7.508,24c-0.172,0.604-0.052,1.252,0.326,1.754
				C23.781,62.706,24.373,63,25,63h25c1.657,0,3-1.343,3-3V38c0-1.657-1.343-3-3-3H32.509z"/>
		</g>
		<g>
			<path style="fill:#00B8A5;" d="M77.491,35c0.893,0,1.678,0.592,1.923,1.451l7.508,24c0.172,0.604,0.052,1.252-0.326,1.754
				C86.219,62.706,85.627,63,85,63H60c-1.657,0-3-1.343-3-3V38c0-1.657,1.343-3,3-3H77.491z"/>
		</g>
		<g>
			<rect x="53" y="43" style="fill:#0A3631;" width="4" height="11"/>
		</g>
		<g>
			<path style="fill:#AAF0E9;" d="M23,85c0,1.104,0.896,2,2,2h24c1.104,0,2-0.896,2-2v-4H23V85z"/>
		</g>
		<g>
			<path style="fill:#AAF0E9;" d="M51,27v-2c0-1.104-0.896-2-2-2H37c-1.104,0-2,0.896-2,2v2H51z"/>
		</g>
		<g>
			<path style="fill:#FFFFFF;" d="M43,23h-6c-1.104,0-2,0.896-2,2v2h8V23z"/>
		</g>
		<g>
			<path style="fill:#AAF0E9;" d="M75,27v-2c0-1.104-0.896-2-2-2H61c-1.104,0-2,0.896-2,2v2H75z"/>
		</g>
		<g>
			<path style="fill:#FFFFFF;" d="M67,23h-6c-1.104,0-2,0.896-2,2v2h8V23z"/>
		</g>
		<g>
			<path style="fill:#FFFFFF;" d="M38,81H23v4c0,1.104,0.896,2,2,2h13V81z"/>
		</g>
		<g>
			<path style="fill:#AAF0E9;" d="M59,85c0,1.104,0.896,2,2,2h24c1.104,0,2-0.896,2-2v-4H59V85z"/>
		</g>
		<g>
			<path style="fill:#FFFFFF;" d="M74,81H59v4c0,1.104,0.896,2,2,2h13V81z"/>
		</g>
		<g>
			<path style="fill:#00B8A5;" d="M40,35h-7.491c-0.893,0-1.678,0.592-1.923,1.451l-7.508,24c-0.172,0.604-0.052,1.252,0.326,1.754
				C23.781,62.706,24.373,63,25,63h15V35z"/>
		</g>
		<g>
			<path style="fill:#009687;" d="M70,35h7.491c0.893,0,1.678,0.592,1.923,1.451l7.508,24c0.172,0.604,0.052,1.252-0.326,1.754
				C86.219,62.706,85.627,63,85,63H70V35z"/>
		</g>
		<rect x="39" y="31" style="fill:#0A3631;" width="8" height="4"/>
		<rect x="63" y="31" style="fill:#0A3631;" width="8" height="4"/>
	</g>
</g>
<g id="Red" style="display:none;">
	<g style="display:inline;">
		<g>
			<path style="fill:#7D261E;" d="M51,85c0,1.105-0.896,2-2,2H25c-1.104,0-2-0.895-2-2v-8c0-1.104,0.896-2,2-2h24
				c1.104,0,2,0.896,2,2V85z"/>
		</g>
		<g>
			<polygon style="fill:#4A1410;" points="47,63 31,63 27,75 47,75 			"/>
		</g>
		<g>
			<path style="fill:#7D261E;" d="M49,23H37c-1.104,0-2,0.896-2,2v4c0,1.104,0.896,2,2,2h2v4h8v-4h2c1.104,0,2-0.896,2-2v-4
				C51,23.895,50.104,23,49,23z"/>
		</g>
		<g>
			<path style="fill:#7D261E;" d="M59,85c0,1.105,0.896,2,2,2h24c1.104,0,2-0.895,2-2v-8c0-1.104-0.896-2-2-2H61
				c-1.104,0-2,0.896-2,2V85z"/>
		</g>
		<g>
			<polygon style="fill:#4A1410;" points="63,63 79,63 83,75 63,75 			"/>
		</g>
		<g>
			<path style="fill:#7D261E;" d="M73,23H61c-1.104,0-2,0.896-2,2v4c0,1.104,0.896,2,2,2h2v4h8v-4h2c1.104,0,2-0.896,2-2v-4
				C75,23.895,74.104,23,73,23z"/>
		</g>
		<g>
			<path style="fill:#C23023;" d="M32.509,35c-0.893,0-1.678,0.592-1.923,1.451l-7.508,24c-0.172,0.604-0.052,1.252,0.326,1.754
				C23.781,62.705,24.373,63,25,63h25c1.657,0,3-1.343,3-3V38c0-1.657-1.343-3-3-3H32.509z"/>
		</g>
		<g>
			<path style="fill:#E54B44;" d="M77.491,35c0.893,0,1.678,0.592,1.923,1.451l7.508,24c0.172,0.604,0.052,1.252-0.326,1.754
				C86.219,62.705,85.627,63,85,63H60c-1.657,0-3-1.343-3-3V38c0-1.657,1.343-3,3-3H77.491z"/>
		</g>
		<g>
			<rect x="53" y="43" style="fill:#4A1410;" width="4" height="11"/>
		</g>
		<g>
			<path style="fill:#FFD7D4;" d="M23,85c0,1.105,0.896,2,2,2h24c1.104,0,2-0.895,2-2v-4H23V85z"/>
		</g>
		<g>
			<path style="fill:#FFD7D4;" d="M51,27v-2c0-1.104-0.896-2-2-2H37c-1.104,0-2,0.896-2,2v2H51z"/>
		</g>
		<g>
			<path style="fill:#FFFFFF;" d="M43,23h-6c-1.104,0-2,0.896-2,2v2h8V23z"/>
		</g>
		<g>
			<path style="fill:#FFD7D4;" d="M75,27v-2c0-1.104-0.896-2-2-2H61c-1.104,0-2,0.896-2,2v2H75z"/>
		</g>
		<g>
			<path style="fill:#FFFFFF;" d="M67,23h-6c-1.104,0-2,0.896-2,2v2h8V23z"/>
		</g>
		<g>
			<path style="fill:#FFFFFF;" d="M38,81H23v4c0,1.105,0.896,2,2,2h13V81z"/>
		</g>
		<g>
			<path style="fill:#FFD7D4;" d="M59,85c0,1.105,0.896,2,2,2h24c1.104,0,2-0.895,2-2v-4H59V85z"/>
		</g>
		<g>
			<path style="fill:#FFFFFF;" d="M74,81H59v4c0,1.105,0.896,2,2,2h13V81z"/>
		</g>
		<g>
			<path style="fill:#E54B44;" d="M40,35h-7.491c-0.893,0-1.678,0.592-1.923,1.451l-7.508,24c-0.172,0.604-0.052,1.252,0.326,1.754
				C23.781,62.705,24.373,63,25,63h15V35z"/>
		</g>
		<g>
			<path style="fill:#C23023;" d="M70,35h7.491c0.893,0,1.678,0.592,1.923,1.451l7.508,24c0.172,0.604,0.052,1.252-0.326,1.754
				C86.219,62.705,85.627,63,85,63H70V35z"/>
		</g>
		<rect x="39" y="31" style="fill:#4A1410;" width="8" height="4"/>
		<rect x="63" y="31" style="fill:#4A1410;" width="8" height="4"/>
	</g>
</g>
<g id="R-Red" style="display:none;">
	<g style="display:inline;">
		<circle style="fill:#FABBAF;" cx="55" cy="55" r="55"/>
	</g>
	<g style="display:inline;">
		<g>
			<path style="fill:#7D261E;" d="M51,85c0,1.105-0.896,2-2,2H25c-1.104,0-2-0.895-2-2v-8c0-1.104,0.896-2,2-2h24
				c1.104,0,2,0.896,2,2V85z"/>
		</g>
		<g>
			<polygon style="fill:#4A1410;" points="47,63 31,63 27,75 47,75 			"/>
		</g>
		<g>
			<path style="fill:#7D261E;" d="M49,23H37c-1.104,0-2,0.896-2,2v4c0,1.104,0.896,2,2,2h2v4h8v-4h2c1.104,0,2-0.896,2-2v-4
				C51,23.896,50.104,23,49,23z"/>
		</g>
		<g>
			<path style="fill:#7D261E;" d="M59,85c0,1.105,0.896,2,2,2h24c1.104,0,2-0.895,2-2v-8c0-1.104-0.896-2-2-2H61
				c-1.104,0-2,0.896-2,2V85z"/>
		</g>
		<g>
			<polygon style="fill:#4A1410;" points="63,63 79,63 83,75 63,75 			"/>
		</g>
		<g>
			<path style="fill:#7D261E;" d="M73,23H61c-1.104,0-2,0.896-2,2v4c0,1.104,0.896,2,2,2h2v4h8v-4h2c1.104,0,2-0.896,2-2v-4
				C75,23.896,74.104,23,73,23z"/>
		</g>
		<g>
			<path style="fill:#C23023;" d="M32.509,35c-0.893,0-1.678,0.592-1.923,1.451l-7.508,24c-0.172,0.604-0.052,1.252,0.326,1.754
				C23.781,62.706,24.373,63,25,63h25c1.657,0,3-1.343,3-3V38c0-1.657-1.343-3-3-3H32.509z"/>
		</g>
		<g>
			<path style="fill:#E54B44;" d="M77.491,35c0.893,0,1.678,0.592,1.923,1.451l7.508,24c0.172,0.604,0.052,1.252-0.326,1.754
				C86.219,62.706,85.627,63,85,63H60c-1.657,0-3-1.343-3-3V38c0-1.657,1.343-3,3-3H77.491z"/>
		</g>
		<g>
			<rect x="53" y="43" style="fill:#4A1410;" width="4" height="11"/>
		</g>
		<g>
			<path style="fill:#FFD7D4;" d="M23,85c0,1.104,0.896,2,2,2h24c1.104,0,2-0.896,2-2v-4H23V85z"/>
		</g>
		<g>
			<path style="fill:#FFD7D4;" d="M51,27v-2c0-1.104-0.896-2-2-2H37c-1.104,0-2,0.896-2,2v2H51z"/>
		</g>
		<g>
			<path style="fill:#FFFFFF;" d="M43,23h-6c-1.104,0-2,0.896-2,2v2h8V23z"/>
		</g>
		<g>
			<path style="fill:#FFD7D4;" d="M75,27v-2c0-1.104-0.896-2-2-2H61c-1.104,0-2,0.896-2,2v2H75z"/>
		</g>
		<g>
			<path style="fill:#FFFFFF;" d="M67,23h-6c-1.104,0-2,0.896-2,2v2h8V23z"/>
		</g>
		<g>
			<path style="fill:#FFFFFF;" d="M38,81H23v4c0,1.104,0.896,2,2,2h13V81z"/>
		</g>
		<g>
			<path style="fill:#FFD7D4;" d="M59,85c0,1.104,0.896,2,2,2h24c1.104,0,2-0.896,2-2v-4H59V85z"/>
		</g>
		<g>
			<path style="fill:#FFFFFF;" d="M74,81H59v4c0,1.104,0.896,2,2,2h13V81z"/>
		</g>
		<g>
			<path style="fill:#E54B44;" d="M40,35h-7.491c-0.893,0-1.678,0.592-1.923,1.451l-7.508,24c-0.172,0.604-0.052,1.252,0.326,1.754
				C23.781,62.706,24.373,63,25,63h15V35z"/>
		</g>
		<g>
			<path style="fill:#C23023;" d="M70,35h7.491c0.893,0,1.678,0.592,1.923,1.451l7.508,24c0.172,0.604,0.052,1.252-0.326,1.754
				C86.219,62.706,85.627,63,85,63H70V35z"/>
		</g>
		<rect x="39" y="31" style="fill:#4A1410;" width="8" height="4"/>
		<rect x="63" y="31" style="fill:#4A1410;" width="8" height="4"/>
	</g>
</g>
<g id="Yellow" style="display:none;">
	<g style="display:inline;">
		<g>
			<path style="fill:#66510D;" d="M51.003,85c0,1.105-0.896,2-2,2h-24c-1.104,0-2-0.895-2-2v-8c0-1.104,0.896-2,2-2h24
				c1.104,0,2,0.896,2,2V85z"/>
		</g>
		<g>
			<polygon style="fill:#3D320C;" points="47.003,63 31.003,63 27.003,75 47.003,75 			"/>
		</g>
		<g>
			<path style="fill:#66510D;" d="M49.003,23h-12c-1.104,0-2,0.896-2,2v4c0,1.104,0.896,2,2,2h2v4h8v-4h2c1.104,0,2-0.896,2-2v-4
				C51.003,23.895,50.107,23,49.003,23z"/>
		</g>
		<g>
			<path style="fill:#66510D;" d="M59.003,85c0,1.105,0.896,2,2,2h24c1.104,0,2-0.895,2-2v-8c0-1.104-0.896-2-2-2h-24
				c-1.104,0-2,0.896-2,2V85z"/>
		</g>
		<g>
			<polygon style="fill:#3D320C;" points="63.003,63 79.003,63 83.003,75 63.003,75 			"/>
		</g>
		<g>
			<path style="fill:#66510D;" d="M73.003,23h-12c-1.104,0-2,0.896-2,2v4c0,1.104,0.896,2,2,2h2v4h8v-4h2c1.104,0,2-0.896,2-2v-4
				C75.003,23.895,74.107,23,73.003,23z"/>
		</g>
		<g>
			<path style="fill:#E07000;" d="M32.512,35c-0.893,0-1.678,0.592-1.923,1.451l-7.508,24c-0.172,0.604-0.052,1.252,0.326,1.754
				C23.784,62.705,24.375,63,25.003,63h25c1.657,0,3-1.343,3-3V38c0-1.657-1.343-3-3-3H32.512z"/>
		</g>
		<g>
			<path style="fill:#FA9200;" d="M77.494,35c0.893,0,1.678,0.592,1.923,1.451l7.508,24c0.172,0.604,0.052,1.252-0.326,1.754
				C86.222,62.705,85.63,63,85.003,63h-25c-1.657,0-3-1.343-3-3V38c0-1.657,1.343-3,3-3H77.494z"/>
		</g>
		<g>
			<rect x="53.003" y="43" style="fill:#3D320C;" width="4" height="11"/>
		</g>
		<g>
			<path style="fill:#FFE9A1;" d="M23.003,85c0,1.104,0.896,2,2,2h24c1.104,0,2-0.896,2-2v-4h-28V85z"/>
		</g>
		<g>
			<path style="fill:#FFE9A1;" d="M51.003,27v-2c0-1.104-0.896-2-2-2h-12c-1.104,0-2,0.896-2,2v2H51.003z"/>
		</g>
		<g>
			<path style="fill:#FFFFFF;" d="M43.003,23h-6c-1.104,0-2,0.896-2,2v2h8V23z"/>
		</g>
		<g>
			<path style="fill:#FFE9A1;" d="M75.003,27v-2c0-1.104-0.896-2-2-2h-12c-1.104,0-2,0.896-2,2v2H75.003z"/>
		</g>
		<g>
			<path style="fill:#FFFFFF;" d="M67.003,23h-6c-1.104,0-2,0.896-2,2v2h8V23z"/>
		</g>
		<g>
			<path style="fill:#FFFFFF;" d="M38.003,81h-15v4c0,1.104,0.896,2,2,2h13V81z"/>
		</g>
		<g>
			<path style="fill:#FFE9A1;" d="M59.003,85c0,1.104,0.896,2,2,2h24c1.104,0,2-0.896,2-2v-4h-28V85z"/>
		</g>
		<g>
			<path style="fill:#FFFFFF;" d="M74.003,81h-15v4c0,1.104,0.896,2,2,2h13V81z"/>
		</g>
		<g>
			<path style="fill:#FA9200;" d="M40.003,35h-7.491c-0.893,0-1.678,0.592-1.923,1.451l-7.508,24
				c-0.172,0.604-0.052,1.252,0.326,1.754C23.784,62.705,24.375,63,25.003,63h15V35z"/>
		</g>
		<g>
			<path style="fill:#E07000;" d="M70.003,35h7.491c0.893,0,1.678,0.592,1.923,1.451l7.508,24c0.172,0.604,0.052,1.252-0.326,1.754
				C86.222,62.705,85.63,63,85.003,63h-15V35z"/>
		</g>
		<rect x="39.003" y="31" style="fill:#3D320C;" width="8" height="4"/>
		<rect x="63.003" y="31" style="fill:#3D320C;" width="8" height="4"/>
	</g>
</g>
<g id="R-Yellow" style="display:none;">
	<g style="display:inline;">
		<circle style="fill:#FFD75E;" cx="55" cy="55" r="55"/>
	</g>
	<g style="display:inline;">
		<g>
			<path style="fill:#66510D;" d="M51,85c0,1.105-0.896,2-2,2H25c-1.104,0-2-0.895-2-2v-8c0-1.104,0.896-2,2-2h24
				c1.104,0,2,0.896,2,2V85z"/>
		</g>
		<g>
			<polygon style="fill:#3D320C;" points="47,63 31,63 27,75 47,75 			"/>
		</g>
		<g>
			<path style="fill:#66510D;" d="M49,23H37c-1.104,0-2,0.896-2,2v4c0,1.104,0.896,2,2,2h2v4h8v-4h2c1.104,0,2-0.896,2-2v-4
				C51,23.896,50.104,23,49,23z"/>
		</g>
		<g>
			<path style="fill:#66510D;" d="M59,85c0,1.105,0.896,2,2,2h24c1.104,0,2-0.895,2-2v-8c0-1.104-0.896-2-2-2H61
				c-1.104,0-2,0.896-2,2V85z"/>
		</g>
		<g>
			<polygon style="fill:#3D320C;" points="63,63 79,63 83,75 63,75 			"/>
		</g>
		<g>
			<path style="fill:#66510D;" d="M73,23H61c-1.104,0-2,0.896-2,2v4c0,1.104,0.896,2,2,2h2v4h8v-4h2c1.104,0,2-0.896,2-2v-4
				C75,23.896,74.104,23,73,23z"/>
		</g>
		<g>
			<path style="fill:#E07000;" d="M32.509,35c-0.893,0-1.678,0.592-1.923,1.451l-7.508,24c-0.172,0.604-0.052,1.252,0.326,1.754
				C23.781,62.706,24.373,63,25,63h25c1.657,0,3-1.343,3-3V38c0-1.657-1.343-3-3-3H32.509z"/>
		</g>
		<g>
			<path style="fill:#FA9200;" d="M77.491,35c0.893,0,1.678,0.592,1.923,1.451l7.508,24c0.172,0.604,0.052,1.252-0.326,1.754
				C86.219,62.706,85.627,63,85,63H60c-1.657,0-3-1.343-3-3V38c0-1.657,1.343-3,3-3H77.491z"/>
		</g>
		<g>
			<rect x="53" y="43" style="fill:#3D320C;" width="4" height="11"/>
		</g>
		<g>
			<path style="fill:#FFE9A1;" d="M23,85c0,1.104,0.896,2,2,2h24c1.104,0,2-0.896,2-2v-4H23V85z"/>
		</g>
		<g>
			<path style="fill:#FFE9A1;" d="M51,27v-2c0-1.104-0.896-2-2-2H37c-1.104,0-2,0.896-2,2v2H51z"/>
		</g>
		<g>
			<path style="fill:#FFFFFF;" d="M43,23h-6c-1.104,0-2,0.896-2,2v2h8V23z"/>
		</g>
		<g>
			<path style="fill:#FFE9A1;" d="M75,27v-2c0-1.104-0.896-2-2-2H61c-1.104,0-2,0.896-2,2v2H75z"/>
		</g>
		<g>
			<path style="fill:#FFFFFF;" d="M67,23h-6c-1.104,0-2,0.896-2,2v2h8V23z"/>
		</g>
		<g>
			<path style="fill:#FFFFFF;" d="M38,81H23v4c0,1.104,0.896,2,2,2h13V81z"/>
		</g>
		<g>
			<path style="fill:#FFE9A1;" d="M59,85c0,1.104,0.896,2,2,2h24c1.104,0,2-0.896,2-2v-4H59V85z"/>
		</g>
		<g>
			<path style="fill:#FFFFFF;" d="M74,81H59v4c0,1.104,0.896,2,2,2h13V81z"/>
		</g>
		<g>
			<path style="fill:#FA9200;" d="M40,35h-7.491c-0.893,0-1.678,0.592-1.923,1.451l-7.508,24c-0.172,0.604-0.052,1.252,0.326,1.754
				C23.781,62.706,24.373,63,25,63h15V35z"/>
		</g>
		<g>
			<path style="fill:#E07000;" d="M70,35h7.491c0.893,0,1.678,0.592,1.923,1.451l7.508,24c0.172,0.604,0.052,1.252-0.326,1.754
				C86.219,62.706,85.627,63,85,63H70V35z"/>
		</g>
		<rect x="39" y="31" style="fill:#3D320C;" width="8" height="4"/>
		<rect x="63" y="31" style="fill:#3D320C;" width="8" height="4"/>
	</g>
</g>
</svg>
