<?xml version="1.0" encoding="iso-8859-1"?>
<!-- Generator: Adobe Illustrator 17.1.0, SVG Export Plug-In . SVG Version: 6.00 Build 0)  -->
<!DOCTYPE svg PUBLIC "-//W3C//DTD SVG 1.0//EN" "http://www.w3.org/TR/2001/REC-SVG-20010904/DTD/svg10.dtd">
<svg version="1.0" xmlns="http://www.w3.org/2000/svg" xmlns:xlink="http://www.w3.org/1999/xlink" x="0px" y="0px" width="110px"
	 height="110px" viewBox="0 0 110 110" style="enable-background:new 0 0 110 110;" xml:space="preserve">
<g id="Artboard">
</g>
<g id="Multicolor">
	<circle style="fill:#FABC3D;" cx="55" cy="55" r="55"/>
	<g>
		<g>
			<path style="fill:#F4D0A1;" d="M87,67v16c0,2.21-1.79,4-4,4H27c-2.21,0-4-1.79-4-4V67c0-2.21,1.79-4,4-4h56
				C85.21,63,87,64.79,87,67z"/>
		</g>
		<g>
			<path style="fill:#FCF1E2;" d="M27,63c-2.21,0-4,1.79-4,4v16c0,1.081,0.432,2.057,1.128,2.776L46.905,63H27z"/>
		</g>
		<g>
			<path style="fill:#F4D0A1;" d="M75,51v12H35V51c0-2.21,1.79-4,4-4h32C73.21,47,75,48.79,75,51z"/>
		</g>
		<g>
			<path style="fill:#FCF1E2;" d="M35,51v12h11.905l16-16H39C36.79,47,35,48.79,35,51z"/>
		</g>
		<g>
			<path style="fill:#692E19;" d="M75,51v4c0,0,0,4-4,4s-3-7-7-7s-4,7-9,7s-5-7-9-7s-3,7-7,7s-4-4-4-4v-4c0-2.21,1.79-4,4-4h32
				C73.21,47,75,48.79,75,51z"/>
		</g>
		<g>
			<path style="fill:#692E19;" d="M87,67v4H23v-4c0-2.21,1.79-4,4-4h56C85.21,63,87,64.79,87,67z"/>
		</g>
		<g>
			<path style="fill:#692E19;" d="M23,83v-4h64v4c0,2.21-1.79,4-4,4H27C24.79,87,23,85.21,23,83z"/>
		</g>
		<g>
			<path style="fill:#FA5655;" d="M43,35c-0.772,0-1.468-0.3-2-0.779V47h4V34.221C44.468,34.7,43.772,35,43,35z"/>
		</g>
		<g>
			<path style="fill:#FCF6C2;" d="M46,32c0,1.657-1.343,3-3,3s-3-1.343-3-3c0-3,3-3,3-9C43,23,46,27,46,32z"/>
		</g>
		<g>
			<path style="fill:#21B2D1;" d="M51,35c-0.772,0-1.468-0.3-2-0.779V47h4V34.221C52.468,34.7,51.772,35,51,35z"/>
		</g>
		<g>
			<path style="fill:#FCF6C2;" d="M54,32c0,1.657-1.343,3-3,3s-3-1.343-3-3c0-3,3-3,3-9C51,23,54,27,54,32z"/>
		</g>
		<g>
			<path style="fill:#FBE158;" d="M59,35c-0.772,0-1.468-0.3-2-0.779V47h4V34.221C60.468,34.7,59.772,35,59,35z"/>
		</g>
		<g>
			<path style="fill:#FCF6C2;" d="M62,32c0,1.657-1.343,3-3,3s-3-1.343-3-3c0-3,3-3,3-9C59,23,62,27,62,32z"/>
		</g>
		<g>
			<path style="fill:#FA5655;" d="M67,35c-0.772,0-1.468-0.3-2-0.779V47h4V34.221C68.468,34.7,67.772,35,67,35z"/>
		</g>
		<g>
			<path style="fill:#FCF6C2;" d="M70,32c0,1.657-1.343,3-3,3s-3-1.343-3-3c0-3,3-3,3-9C67,23,70,27,70,32z"/>
		</g>
		<g>
			<path style="fill:#9C6144;" d="M39,47c-2.21,0-4,1.79-4,4v4c0,0,0,4,4,4s3-7,7-7c2.989,0,3.746,3.906,6.022,5.882L62.905,47H39z"
				/>
		</g>
		<g>
			<path style="fill:#9C6144;" d="M23,79v4c0,1.081,0.432,2.057,1.128,2.776L30.905,79H23z"/>
		</g>
		<g>
			<path style="fill:#9C6144;" d="M23,67v4h15.905l8-8H27C24.79,63,23,64.79,23,67z"/>
		</g>
	</g>
</g>
</svg>
