<?xml version="1.0" encoding="iso-8859-1"?>
<!-- Generator: Adobe Illustrator 17.1.0, SVG Export Plug-In . SVG Version: 6.00 Build 0)  -->
<!DOCTYPE svg PUBLIC "-//W3C//DTD SVG 1.0//EN" "http://www.w3.org/TR/2001/REC-SVG-20010904/DTD/svg10.dtd">
<svg version="1.0" xmlns="http://www.w3.org/2000/svg" xmlns:xlink="http://www.w3.org/1999/xlink" x="0px" y="0px" width="110px"
	 height="110px" viewBox="0 0 110 110" style="enable-background:new 0 0 110 110;" xml:space="preserve">
<g id="Artboard" style="display:none;">
	
		<rect x="-456.5" y="-1186.5" style="display:inline;fill:#808080;stroke:#000000;stroke-miterlimit:10;" width="1392" height="1369"/>
</g>
<g id="R-Multicolor">
	<circle style="fill:#25B7D3;" cx="55" cy="55" r="55"/>
	<g>
		<g>
			<path style="fill:#6FDAF1;" d="M72,27H36.586c-0.4,0-0.76,0.24-0.92,0.62c-0.15,0.37-0.07,0.8,0.22,1.09l2.29,2.29l4,30h22
				l0.882-6H68c6.893,0,12.5-5.607,12.5-12.5v-7C80.5,30.813,76.687,27,72,27z M75.5,42.5c0,4.136-3.364,7.5-7.5,7.5h-2.207
				l2.647-18H72c1.93,0,3.5,1.57,3.5,3.5V42.5z"/>
		</g>
		<g>
			<path style="fill:#E2E4E5;" d="M37.176,27l2.828-2.828c0.75-0.75,1.768-1.172,2.828-1.172h20.686
				c1.061,0,2.078,0.421,2.828,1.172L69.176,27H37.176z"/>
		</g>
		<g>
			<path style="fill:#9CE5F4;" d="M54,27H36.586c-0.4,0-0.76,0.24-0.92,0.62c-0.15,0.37-0.07,0.8,0.22,1.09l2.29,2.29l4,30H54V27z"
				/>
		</g>
		<g>
			<path style="fill:#FFFFFF;" d="M54,23H42.833c-1.061,0-2.079,0.421-2.829,1.171L37.176,27H54V23z"/>
		</g>
		<g>
			<path style="fill:#FFFFFF;" d="M38.683,62.282C38.98,61.51,39.722,61,40.55,61h25.253c0.828,0,1.57,0.51,1.867,1.282
				l7.416,19.282c0.473,1.23,0.31,2.614-0.436,3.7C73.903,86.351,72.67,87,71.352,87H35c-1.318,0-2.551-0.649-3.297-1.735
				c-0.746-1.086-0.909-2.47-0.436-3.7L38.683,62.282z"/>
		</g>
		<g>
			<polygon style="fill:#FFFFFF;" points="49.176,35 49.176,37 38.976,37 38.706,35 			"/>
		</g>
		<g>
			<polygon style="fill:#FFFFFF;" points="49.176,41 49.176,43 39.776,43 39.506,41 			"/>
		</g>
		<g>
			<polygon style="fill:#FFFFFF;" points="49.176,47 49.176,49 40.576,49 40.306,47 			"/>
		</g>
		<g>
			<polygon style="fill:#FFFFFF;" points="49.176,53 49.176,55 41.376,55 41.106,53 			"/>
		</g>
		<g>
			<path style="fill:#FA5655;" d="M43.176,68.5c0,0.276,0.224,0.5,0.5,0.5h5c0.276,0,0.5-0.224,0.5-0.5v-3
				c0-0.276-0.224-0.5-0.5-0.5h-5c-0.276,0-0.5,0.224-0.5,0.5V68.5z"/>
		</g>
		<g>
			<path style="fill:#12B2A0;" d="M57.176,68.5c0,0.276,0.224,0.5,0.5,0.5h5c0.276,0,0.5-0.224,0.5-0.5v-3
				c0-0.276-0.224-0.5-0.5-0.5h-5c-0.276,0-0.5,0.224-0.5,0.5V68.5z"/>
		</g>
		<path style="fill:#CFD3D4;" d="M53.176,71c-3.859,0-7,3.14-7,7s3.141,7,7,7c3.86,0,7-3.14,7-7S57.036,71,53.176,71z M53.176,83
			c-2.757,0-5-2.243-5-5c0-2.415,1.721-4.435,4-4.899V78h2v-4.899c2.28,0.464,4,2.484,4,4.899C58.176,80.757,55.933,83,53.176,83z"
			/>
	</g>
</g>
<g id="Multicolor" style="display:none;">
	<g style="display:inline;">
		<g>
			<path style="fill:#6FDAF1;" d="M72,27H36.586c-0.4,0-0.76,0.24-0.92,0.62c-0.15,0.37-0.07,0.8,0.22,1.09l2.29,2.29l4,30h22
				l0.882-6H68c6.893,0,12.5-5.607,12.5-12.5v-7C80.5,30.813,76.687,27,72,27z M75.5,42.5c0,4.136-3.364,7.5-7.5,7.5h-2.207
				l2.647-18H72c1.93,0,3.5,1.57,3.5,3.5V42.5z"/>
		</g>
		<g>
			<path style="fill:#E2E4E5;" d="M37.176,27l2.828-2.828c0.75-0.75,1.768-1.172,2.828-1.172h20.686
				c1.061,0,2.078,0.421,2.828,1.172L69.176,27H37.176z"/>
		</g>
		<g>
			<path style="fill:#9CE5F4;" d="M54,27H36.586c-0.4,0-0.76,0.24-0.92,0.62c-0.15,0.37-0.07,0.8,0.22,1.09l2.29,2.29l4,30H54V27z"
				/>
		</g>
		<g>
			<path style="fill:#FFFFFF;" d="M54,23H42.833c-1.061,0-2.079,0.421-2.829,1.171L37.176,27H54V23z"/>
		</g>
		<g>
			<path style="fill:#FFFFFF;" d="M38.683,62.282C38.98,61.51,39.722,61,40.55,61h25.253c0.828,0,1.57,0.51,1.867,1.282
				l7.416,19.282c0.473,1.23,0.31,2.614-0.436,3.7C73.903,86.351,72.67,87,71.352,87H35c-1.318,0-2.551-0.649-3.297-1.735
				c-0.746-1.086-0.909-2.47-0.436-3.7L38.683,62.282z"/>
		</g>
		<g>
			<polygon style="fill:#FFFFFF;" points="49.176,35 49.176,37 38.976,37 38.706,35 			"/>
		</g>
		<g>
			<polygon style="fill:#FFFFFF;" points="49.176,41 49.176,43 39.776,43 39.506,41 			"/>
		</g>
		<g>
			<polygon style="fill:#FFFFFF;" points="49.176,47 49.176,49 40.576,49 40.306,47 			"/>
		</g>
		<g>
			<polygon style="fill:#FFFFFF;" points="49.176,53 49.176,55 41.376,55 41.106,53 			"/>
		</g>
		<g>
			<path style="fill:#FA5655;" d="M43.176,68.5c0,0.276,0.224,0.5,0.5,0.5h5c0.276,0,0.5-0.224,0.5-0.5v-3
				c0-0.276-0.224-0.5-0.5-0.5h-5c-0.276,0-0.5,0.224-0.5,0.5V68.5z"/>
		</g>
		<g>
			<path style="fill:#12B2A0;" d="M57.176,68.5c0,0.276,0.224,0.5,0.5,0.5h5c0.276,0,0.5-0.224,0.5-0.5v-3
				c0-0.276-0.224-0.5-0.5-0.5h-5c-0.276,0-0.5,0.224-0.5,0.5V68.5z"/>
		</g>
		<path style="fill:#CFD3D4;" d="M53.176,71c-3.859,0-7,3.14-7,7s3.141,7,7,7c3.86,0,7-3.14,7-7S57.036,71,53.176,71z M53.176,83
			c-2.757,0-5-2.243-5-5c0-2.415,1.721-4.435,4-4.899V78h2v-4.899c2.28,0.464,4,2.484,4,4.899C58.176,80.757,55.933,83,53.176,83z"
			/>
	</g>
</g>
<g id="Blue" style="display:none;">
	<g style="display:inline;">
		<g>
			<path style="fill:#E1F5FA;" d="M72,27H36.586c-0.4,0-0.76,0.24-0.92,0.62c-0.15,0.37-0.07,0.8,0.22,1.09l2.29,2.29l4,30h22
				l0.883-6H68c6.893,0,12.5-5.607,12.5-12.5v-7C80.5,30.813,76.687,27,72,27z M75.5,42.5c0,4.136-3.364,7.5-7.5,7.5h-2.207
				l2.647-18H72c1.93,0,3.5,1.57,3.5,3.5V42.5z"/>
		</g>
		<g>
			<path style="fill:#BBE7F2;" d="M37.176,27l2.828-2.828c0.75-0.75,1.768-1.172,2.829-1.172H63.52c1.061,0,2.078,0.421,2.828,1.172
				L69.176,27H37.176z"/>
		</g>
		<g>
			<path style="fill:#FFFFFF;" d="M54,27H36.586c-0.4,0-0.76,0.24-0.92,0.62c-0.15,0.37-0.07,0.8,0.221,1.09L38.176,31l4,30H54V27z"
				/>
		</g>
		<g>
			<path style="fill:#E1F5FA;" d="M54,23H42.833c-1.062,0-2.079,0.421-2.829,1.171L37.176,27H54V23z"/>
		</g>
		<g>
			<path style="fill:#0081A1;" d="M38.683,62.282C38.98,61.51,39.722,61,40.549,61h25.254c0.827,0,1.569,0.51,1.866,1.282
				l7.416,19.283c0.474,1.23,0.31,2.614-0.437,3.7C73.902,86.351,72.67,87,71.352,87H35c-1.318,0-2.551-0.649-3.297-1.735
				c-0.746-1.086-0.91-2.47-0.436-3.7L38.683,62.282z"/>
		</g>
		<g>
			<polygon style="fill:#BBE7F2;" points="49.176,35 49.176,37 38.977,37 38.705,35 			"/>
		</g>
		<g>
			<polygon style="fill:#BBE7F2;" points="49.176,41 49.176,43 39.775,43 39.506,41 			"/>
		</g>
		<g>
			<polygon style="fill:#BBE7F2;" points="49.176,47 49.176,49 40.576,49 40.306,47 			"/>
		</g>
		<g>
			<polygon style="fill:#BBE7F2;" points="49.176,53 49.176,55 41.376,55 41.105,53 			"/>
		</g>
		<g>
			<path style="fill:#00B7E5;" d="M43.176,68.5c0,0.276,0.225,0.5,0.5,0.5h5c0.276,0,0.5-0.224,0.5-0.5v-3
				c0-0.276-0.224-0.5-0.5-0.5h-5c-0.275,0-0.5,0.224-0.5,0.5V68.5z"/>
		</g>
		<g>
			<path style="fill:#00B7E5;" d="M57.176,68.5c0,0.276,0.225,0.5,0.5,0.5h5c0.276,0,0.5-0.224,0.5-0.5v-3
				c0-0.276-0.224-0.5-0.5-0.5h-5c-0.275,0-0.5,0.224-0.5,0.5V68.5z"/>
		</g>
		<path style="fill:#BBE7F2;" d="M53.176,71c-3.859,0-7,3.14-7,7s3.141,7,7,7c3.86,0,7-3.14,7-7S57.036,71,53.176,71z M53.176,83
			c-2.757,0-5-2.243-5-5c0-2.415,1.721-4.435,4-4.899V78h2v-4.899c2.279,0.464,4,2.484,4,4.899C58.176,80.757,55.934,83,53.176,83z"
			/>
	</g>
</g>
<g id="R-Blue" style="display:none;">
	<circle style="display:inline;fill:#81D2EB;" cx="55" cy="55" r="55"/>
	<g style="display:inline;">
		<g>
			<path style="fill:#E1F5FA;" d="M72,27H36.586c-0.4,0-0.76,0.24-0.92,0.62c-0.15,0.37-0.07,0.8,0.22,1.09l2.29,2.29l4,30h22
				l0.883-6H68c6.893,0,12.5-5.607,12.5-12.5v-7C80.5,30.813,76.687,27,72,27z M75.5,42.5c0,4.136-3.364,7.5-7.5,7.5h-2.207
				l2.647-18H72c1.93,0,3.5,1.57,3.5,3.5V42.5z"/>
		</g>
		<g>
			<path style="fill:#BBE7F2;" d="M37.176,27l2.828-2.828c0.75-0.75,1.768-1.172,2.829-1.172H63.52c1.061,0,2.078,0.421,2.828,1.172
				L69.176,27H37.176z"/>
		</g>
		<g>
			<path style="fill:#FFFFFF;" d="M54,27H36.586c-0.4,0-0.76,0.24-0.92,0.62c-0.15,0.37-0.07,0.8,0.221,1.09L38.176,31l4,30H54V27z"
				/>
		</g>
		<g>
			<path style="fill:#E1F5FA;" d="M54,23H42.833c-1.062,0-2.079,0.421-2.829,1.171L37.176,27H54V23z"/>
		</g>
		<g>
			<path style="fill:#0081A1;" d="M38.683,62.282C38.98,61.51,39.722,61,40.549,61h25.254c0.827,0,1.569,0.51,1.866,1.282
				l7.416,19.283c0.474,1.23,0.31,2.614-0.437,3.7C73.902,86.351,72.67,87,71.352,87H35c-1.318,0-2.551-0.649-3.297-1.735
				c-0.746-1.086-0.91-2.47-0.436-3.7L38.683,62.282z"/>
		</g>
		<g>
			<polygon style="fill:#BBE7F2;" points="49.176,35 49.176,37 38.977,37 38.705,35 			"/>
		</g>
		<g>
			<polygon style="fill:#BBE7F2;" points="49.176,41 49.176,43 39.775,43 39.506,41 			"/>
		</g>
		<g>
			<polygon style="fill:#BBE7F2;" points="49.176,47 49.176,49 40.576,49 40.306,47 			"/>
		</g>
		<g>
			<polygon style="fill:#BBE7F2;" points="49.176,53 49.176,55 41.376,55 41.105,53 			"/>
		</g>
		<g>
			<path style="fill:#00B7E5;" d="M43.176,68.5c0,0.276,0.225,0.5,0.5,0.5h5c0.276,0,0.5-0.224,0.5-0.5v-3
				c0-0.276-0.224-0.5-0.5-0.5h-5c-0.275,0-0.5,0.224-0.5,0.5V68.5z"/>
		</g>
		<g>
			<path style="fill:#00B7E5;" d="M57.176,68.5c0,0.276,0.225,0.5,0.5,0.5h5c0.276,0,0.5-0.224,0.5-0.5v-3
				c0-0.276-0.224-0.5-0.5-0.5h-5c-0.275,0-0.5,0.224-0.5,0.5V68.5z"/>
		</g>
		<path style="fill:#BBE7F2;" d="M53.176,71c-3.859,0-7,3.14-7,7c0,3.86,3.141,7,7,7c3.86,0,7-3.14,7-7
			C60.176,74.14,57.036,71,53.176,71z M53.176,83c-2.757,0-5-2.243-5-5c0-2.415,1.721-4.435,4-4.899V78h2v-4.899
			c2.279,0.464,4,2.484,4,4.899C58.176,80.757,55.934,83,53.176,83z"/>
	</g>
</g>
<g id="Green" style="display:none;">
	<g style="display:inline;">
		<g>
			<path style="fill:#D7FCF9;" d="M72,27H36.586c-0.4,0-0.76,0.24-0.92,0.62c-0.15,0.37-0.07,0.8,0.22,1.09l2.29,2.29l4,30h22
				l0.883-6H68c6.893,0,12.5-5.607,12.5-12.5v-7C80.5,30.813,76.687,27,72,27z M75.5,42.5c0,4.136-3.364,7.5-7.5,7.5h-2.207
				l2.647-18H72c1.93,0,3.5,1.57,3.5,3.5V42.5z"/>
		</g>
		<g>
			<path style="fill:#AAF0E9;" d="M37.176,27l2.828-2.828c0.75-0.75,1.768-1.172,2.829-1.172h20.687
				c1.061,0,2.078,0.421,2.828,1.172L69.176,27H37.176z"/>
		</g>
		<g>
			<path style="fill:#FFFFFF;" d="M54,27H36.586c-0.4,0-0.76,0.24-0.92,0.62c-0.15,0.37-0.07,0.8,0.221,1.09L38.176,31l4,30H54V27z"
				/>
		</g>
		<g>
			<path style="fill:#D7FCF9;" d="M54,23H42.833c-1.062,0-2.079,0.421-2.829,1.171L37.176,27H54V23z"/>
		</g>
		<g>
			<path style="fill:#009687;" d="M38.683,62.282C38.98,61.51,39.722,61,40.549,61h25.254c0.827,0,1.569,0.51,1.866,1.282
				l7.416,19.283c0.474,1.23,0.309,2.614-0.437,3.7C73.902,86.351,72.67,87,71.352,87H35c-1.318,0-2.551-0.649-3.297-1.735
				c-0.746-1.086-0.91-2.47-0.436-3.7L38.683,62.282z"/>
		</g>
		<g>
			<polygon style="fill:#AAF0E9;" points="49.176,35 49.176,37 38.977,37 38.705,35 			"/>
		</g>
		<g>
			<polygon style="fill:#AAF0E9;" points="49.176,41 49.176,43 39.775,43 39.506,41 			"/>
		</g>
		<g>
			<polygon style="fill:#AAF0E9;" points="49.176,47 49.176,49 40.576,49 40.306,47 			"/>
		</g>
		<g>
			<polygon style="fill:#AAF0E9;" points="49.176,53 49.176,55 41.376,55 41.105,53 			"/>
		</g>
		<g>
			<path style="fill:#00D6C1;" d="M43.176,68.5c0,0.276,0.225,0.5,0.5,0.5h5c0.276,0,0.5-0.224,0.5-0.5v-3
				c0-0.276-0.224-0.5-0.5-0.5h-5c-0.275,0-0.5,0.224-0.5,0.5V68.5z"/>
		</g>
		<g>
			<path style="fill:#00D6C1;" d="M57.176,68.5c0,0.276,0.225,0.5,0.5,0.5h5c0.276,0,0.5-0.224,0.5-0.5v-3
				c0-0.276-0.224-0.5-0.5-0.5h-5c-0.275,0-0.5,0.224-0.5,0.5V68.5z"/>
		</g>
		<path style="fill:#AAF0E9;" d="M53.176,71c-3.859,0-7,3.14-7,7s3.141,7,7,7c3.86,0,7-3.14,7-7S57.036,71,53.176,71z M53.176,83
			c-2.757,0-5-2.243-5-5c0-2.415,1.721-4.435,4-4.899V78h2v-4.899c2.279,0.464,4,2.484,4,4.899C58.176,80.757,55.934,83,53.176,83z"
			/>
	</g>
</g>
<g id="R-Green" style="display:none;">
	<circle style="display:inline;fill:#77E0C4;" cx="55" cy="55" r="55"/>
	<g style="display:inline;">
		<g>
			<path style="fill:#D7FCF9;" d="M72,27H36.586c-0.4,0-0.76,0.24-0.92,0.62c-0.15,0.37-0.07,0.8,0.22,1.09l2.29,2.29l4,30h22
				l0.883-6H68c6.893,0,12.5-5.607,12.5-12.5v-7C80.5,30.813,76.687,27,72,27z M75.5,42.5c0,4.136-3.364,7.5-7.5,7.5h-2.207
				l2.647-18H72c1.93,0,3.5,1.57,3.5,3.5V42.5z"/>
		</g>
		<g>
			<path style="fill:#AAF0E9;" d="M37.176,27l2.828-2.828c0.75-0.75,1.768-1.172,2.829-1.172H63.52c1.061,0,2.078,0.421,2.828,1.172
				L69.176,27H37.176z"/>
		</g>
		<g>
			<path style="fill:#FFFFFF;" d="M54,27H36.586c-0.4,0-0.76,0.24-0.92,0.62c-0.15,0.37-0.07,0.8,0.221,1.09L38.176,31l4,30H54V27z"
				/>
		</g>
		<g>
			<path style="fill:#D7FCF9;" d="M54,23H42.833c-1.062,0-2.079,0.421-2.829,1.171L37.176,27H54V23z"/>
		</g>
		<g>
			<path style="fill:#009687;" d="M38.683,62.282C38.98,61.51,39.722,61,40.549,61h25.254c0.827,0,1.569,0.51,1.866,1.282
				l7.416,19.283c0.474,1.23,0.31,2.614-0.437,3.7C73.902,86.351,72.67,87,71.352,87H35c-1.318,0-2.551-0.649-3.297-1.735
				c-0.746-1.086-0.91-2.47-0.437-3.7L38.683,62.282z"/>
		</g>
		<g>
			<polygon style="fill:#AAF0E9;" points="49.176,35 49.176,37 38.977,37 38.705,35 			"/>
		</g>
		<g>
			<polygon style="fill:#AAF0E9;" points="49.176,41 49.176,43 39.775,43 39.506,41 			"/>
		</g>
		<g>
			<polygon style="fill:#AAF0E9;" points="49.176,47 49.176,49 40.576,49 40.306,47 			"/>
		</g>
		<g>
			<polygon style="fill:#AAF0E9;" points="49.176,53 49.176,55 41.376,55 41.105,53 			"/>
		</g>
		<g>
			<path style="fill:#00D6C1;" d="M43.176,68.5c0,0.276,0.225,0.5,0.5,0.5h5c0.276,0,0.5-0.224,0.5-0.5v-3
				c0-0.276-0.224-0.5-0.5-0.5h-5c-0.275,0-0.5,0.224-0.5,0.5V68.5z"/>
		</g>
		<g>
			<path style="fill:#00D6C1;" d="M57.176,68.5c0,0.276,0.225,0.5,0.5,0.5h5c0.276,0,0.5-0.224,0.5-0.5v-3
				c0-0.276-0.224-0.5-0.5-0.5h-5c-0.275,0-0.5,0.224-0.5,0.5V68.5z"/>
		</g>
		<path style="fill:#AAF0E9;" d="M53.176,71c-3.859,0-7,3.14-7,7s3.141,7,7,7c3.86,0,7-3.14,7-7S57.036,71,53.176,71z M53.176,83
			c-2.757,0-5-2.243-5-5c0-2.415,1.721-4.435,4-4.899V78h2v-4.899c2.279,0.464,4,2.484,4,4.899C58.176,80.757,55.934,83,53.176,83z"
			/>
	</g>
</g>
<g id="Red" style="display:none;">
	<g style="display:inline;">
		<g>
			<path style="fill:#FFEFED;" d="M72,27H36.586c-0.4,0-0.76,0.24-0.92,0.62c-0.15,0.37-0.07,0.8,0.22,1.09l2.29,2.29l4,30h22
				l0.883-6H68c6.893,0,12.5-5.607,12.5-12.5v-7C80.5,30.813,76.686,27,72,27z M75.5,42.5c0,4.136-3.364,7.5-7.5,7.5h-2.207
				l2.647-18H72c1.93,0,3.5,1.57,3.5,3.5V42.5z"/>
		</g>
		<g>
			<path style="fill:#FFD7D4;" d="M37.176,27l2.828-2.828c0.75-0.75,1.768-1.172,2.829-1.172h20.686
				c1.061,0,2.078,0.421,2.828,1.172L69.176,27H37.176z"/>
		</g>
		<g>
			<path style="fill:#FFFFFF;" d="M54,27H36.586c-0.4,0-0.76,0.24-0.92,0.62c-0.15,0.37-0.07,0.8,0.221,1.09L38.176,31l4,30H54V27z"
				/>
		</g>
		<g>
			<path style="fill:#FFEFED;" d="M54,23H42.833c-1.062,0-2.079,0.421-2.829,1.171L37.176,27H54V23z"/>
		</g>
		<g>
			<path style="fill:#C23023;" d="M38.683,62.282C38.98,61.51,39.722,61,40.549,61h25.254c0.827,0,1.569,0.51,1.866,1.282
				l7.416,19.283c0.474,1.23,0.309,2.614-0.437,3.7C73.902,86.351,72.67,87,71.352,87H35c-1.318,0-2.551-0.649-3.297-1.735
				c-0.746-1.086-0.91-2.47-0.437-3.7L38.683,62.282z"/>
		</g>
		<g>
			<polygon style="fill:#FFD7D4;" points="49.176,35 49.176,37 38.977,37 38.705,35 			"/>
		</g>
		<g>
			<polygon style="fill:#FFD7D4;" points="49.176,41 49.176,43 39.775,43 39.506,41 			"/>
		</g>
		<g>
			<polygon style="fill:#FFD7D4;" points="49.176,47 49.176,49 40.576,49 40.306,47 			"/>
		</g>
		<g>
			<polygon style="fill:#FFD7D4;" points="49.176,53 49.176,55 41.376,55 41.105,53 			"/>
		</g>
		<g>
			<path style="fill:#FF6C5E;" d="M43.176,68.5c0,0.276,0.225,0.5,0.5,0.5h5c0.276,0,0.5-0.224,0.5-0.5v-3
				c0-0.276-0.224-0.5-0.5-0.5h-5c-0.275,0-0.5,0.224-0.5,0.5V68.5z"/>
		</g>
		<g>
			<path style="fill:#FF6C5E;" d="M57.176,68.5c0,0.276,0.225,0.5,0.5,0.5h5c0.276,0,0.5-0.224,0.5-0.5v-3
				c0-0.276-0.224-0.5-0.5-0.5h-5c-0.275,0-0.5,0.224-0.5,0.5V68.5z"/>
		</g>
		<path style="fill:#FFD7D4;" d="M53.176,71c-3.859,0-7,3.14-7,7s3.141,7,7,7c3.86,0,7-3.14,7-7S57.036,71,53.176,71z M53.176,83
			c-2.757,0-5-2.243-5-5c0-2.415,1.721-4.435,4-4.899V78h2v-4.899c2.279,0.464,4,2.484,4,4.899C58.176,80.757,55.934,83,53.176,83z"
			/>
	</g>
</g>
<g id="R-Red" style="display:none;">
	<circle style="display:inline;fill:#FABBAF;" cx="55" cy="55" r="55"/>
	<g style="display:inline;">
		<g>
			<path style="fill:#FFEFED;" d="M72,27H36.586c-0.4,0-0.76,0.24-0.92,0.62c-0.15,0.37-0.07,0.8,0.22,1.09l2.29,2.29l4,30h22
				l0.883-6H68c6.893,0,12.5-5.607,12.5-12.5v-7C80.5,30.813,76.686,27,72,27z M75.5,42.5c0,4.136-3.364,7.5-7.5,7.5h-2.207
				l2.647-18H72c1.93,0,3.5,1.57,3.5,3.5V42.5z"/>
		</g>
		<g>
			<path style="fill:#FFD7D4;" d="M37.176,27l2.828-2.828c0.75-0.75,1.768-1.172,2.829-1.172h20.686
				c1.061,0,2.078,0.421,2.828,1.172L69.176,27H37.176z"/>
		</g>
		<g>
			<path style="fill:#FFFFFF;" d="M54,27H36.586c-0.4,0-0.76,0.24-0.92,0.62c-0.15,0.37-0.07,0.8,0.221,1.09L38.176,31l4,30H54V27z"
				/>
		</g>
		<g>
			<path style="fill:#FFEFED;" d="M54,23H42.833c-1.062,0-2.079,0.421-2.829,1.171L37.176,27H54V23z"/>
		</g>
		<g>
			<path style="fill:#C23023;" d="M38.683,62.282C38.98,61.51,39.722,61,40.549,61h25.254c0.827,0,1.569,0.51,1.866,1.282
				l7.416,19.283c0.474,1.23,0.309,2.614-0.437,3.7C73.902,86.351,72.67,87,71.352,87H35c-1.318,0-2.551-0.649-3.297-1.735
				c-0.746-1.086-0.91-2.47-0.437-3.7L38.683,62.282z"/>
		</g>
		<g>
			<polygon style="fill:#FFD7D4;" points="49.176,35 49.176,37 38.977,37 38.705,35 			"/>
		</g>
		<g>
			<polygon style="fill:#FFD7D4;" points="49.176,41 49.176,43 39.775,43 39.506,41 			"/>
		</g>
		<g>
			<polygon style="fill:#FFD7D4;" points="49.176,47 49.176,49 40.576,49 40.306,47 			"/>
		</g>
		<g>
			<polygon style="fill:#FFD7D4;" points="49.176,53 49.176,55 41.376,55 41.105,53 			"/>
		</g>
		<g>
			<path style="fill:#FF6C5E;" d="M43.176,68.5c0,0.276,0.225,0.5,0.5,0.5h5c0.276,0,0.5-0.224,0.5-0.5v-3
				c0-0.276-0.224-0.5-0.5-0.5h-5c-0.275,0-0.5,0.224-0.5,0.5V68.5z"/>
		</g>
		<g>
			<path style="fill:#FF6C5E;" d="M57.176,68.5c0,0.276,0.225,0.5,0.5,0.5h5c0.276,0,0.5-0.224,0.5-0.5v-3
				c0-0.276-0.224-0.5-0.5-0.5h-5c-0.275,0-0.5,0.224-0.5,0.5V68.5z"/>
		</g>
		<path style="fill:#FFD7D4;" d="M53.176,71c-3.859,0-7,3.14-7,7s3.141,7,7,7c3.86,0,7-3.14,7-7S57.036,71,53.176,71z M53.176,83
			c-2.757,0-5-2.243-5-5c0-2.415,1.721-4.435,4-4.899V78h2v-4.899c2.279,0.464,4,2.484,4,4.899C58.176,80.757,55.934,83,53.176,83z"
			/>
	</g>
</g>
<g id="Yellow" style="display:none;">
	<g style="display:inline;">
		<g>
			<path style="fill:#FFF5D9;" d="M72,27H36.586c-0.4,0-0.76,0.24-0.92,0.62c-0.15,0.37-0.07,0.8,0.22,1.09l2.29,2.29l4,30h22
				l0.883-6H68c6.893,0,12.5-5.607,12.5-12.5v-7C80.5,30.813,76.687,27,72,27z M75.5,42.5c0,4.136-3.364,7.5-7.5,7.5h-2.207
				l2.647-18H72c1.93,0,3.5,1.57,3.5,3.5V42.5z"/>
		</g>
		<g>
			<path style="fill:#FFE9A1;" d="M37.176,27l2.828-2.828c0.75-0.75,1.768-1.172,2.829-1.172H63.52c1.061,0,2.078,0.421,2.828,1.172
				L69.176,27H37.176z"/>
		</g>
		<g>
			<path style="fill:#FFFFFF;" d="M54,27H36.586c-0.4,0-0.76,0.24-0.92,0.62c-0.15,0.37-0.07,0.8,0.221,1.09L38.176,31l4,30H54V27z"
				/>
		</g>
		<g>
			<path style="fill:#FFF5D9;" d="M54,23H42.833c-1.062,0-2.079,0.421-2.829,1.171L37.176,27H54V23z"/>
		</g>
		<g>
			<path style="fill:#E07000;" d="M38.683,62.282C38.98,61.51,39.722,61,40.549,61h25.254c0.827,0,1.569,0.51,1.866,1.282
				l7.416,19.283c0.474,1.23,0.31,2.614-0.437,3.7C73.902,86.351,72.67,87,71.352,87H35c-1.318,0-2.551-0.649-3.297-1.735
				c-0.746-1.086-0.91-2.47-0.437-3.7L38.683,62.282z"/>
		</g>
		<g>
			<polygon style="fill:#FFE9A1;" points="49.176,35 49.176,37 38.977,37 38.705,35 			"/>
		</g>
		<g>
			<polygon style="fill:#FFE9A1;" points="49.176,41 49.176,43 39.775,43 39.506,41 			"/>
		</g>
		<g>
			<polygon style="fill:#FFE9A1;" points="49.176,47 49.176,49 40.576,49 40.306,47 			"/>
		</g>
		<g>
			<polygon style="fill:#FFE9A1;" points="49.176,53 49.176,55 41.376,55 41.105,53 			"/>
		</g>
		<g>
			<path style="fill:#FFAA00;" d="M43.176,68.5c0,0.276,0.225,0.5,0.5,0.5h5c0.276,0,0.5-0.224,0.5-0.5v-3
				c0-0.276-0.224-0.5-0.5-0.5h-5c-0.275,0-0.5,0.224-0.5,0.5V68.5z"/>
		</g>
		<g>
			<path style="fill:#FFAA00;" d="M57.176,68.5c0,0.276,0.225,0.5,0.5,0.5h5c0.276,0,0.5-0.224,0.5-0.5v-3
				c0-0.276-0.224-0.5-0.5-0.5h-5c-0.275,0-0.5,0.224-0.5,0.5V68.5z"/>
		</g>
		<path style="fill:#FFE9A1;" d="M53.176,71c-3.859,0-7,3.14-7,7s3.141,7,7,7c3.86,0,7-3.14,7-7S57.036,71,53.176,71z M53.176,83
			c-2.757,0-5-2.243-5-5c0-2.415,1.721-4.435,4-4.899V78h2v-4.899c2.279,0.464,4,2.484,4,4.899C58.176,80.757,55.934,83,53.176,83z"
			/>
	</g>
</g>
<g id="R-Yellow" style="display:none;">
	<circle style="display:inline;fill:#FFD75E;" cx="55" cy="55" r="55"/>
	<g style="display:inline;">
		<g>
			<path style="fill:#FFF5D9;" d="M72,27H36.586c-0.4,0-0.76,0.24-0.92,0.62c-0.15,0.37-0.07,0.8,0.22,1.09l2.29,2.29l4,30h22
				l0.883-6H68c6.893,0,12.5-5.607,12.5-12.5v-7C80.5,30.813,76.687,27,72,27z M75.5,42.5c0,4.136-3.364,7.5-7.5,7.5h-2.207
				l2.647-18H72c1.93,0,3.5,1.57,3.5,3.5V42.5z"/>
		</g>
		<g>
			<path style="fill:#FFE9A1;" d="M37.176,27l2.828-2.828c0.75-0.75,1.768-1.172,2.829-1.172h20.687
				c1.061,0,2.078,0.421,2.828,1.172L69.176,27H37.176z"/>
		</g>
		<g>
			<path style="fill:#FFFFFF;" d="M54,27H36.586c-0.4,0-0.76,0.24-0.92,0.62c-0.15,0.37-0.07,0.8,0.221,1.09L38.176,31l4,30H54V27z"
				/>
		</g>
		<g>
			<path style="fill:#FFF5D9;" d="M54,23H42.833c-1.062,0-2.079,0.421-2.829,1.171L37.176,27H54V23z"/>
		</g>
		<g>
			<path style="fill:#E07000;" d="M38.683,62.282C38.98,61.51,39.722,61,40.549,61h25.254c0.827,0,1.569,0.51,1.866,1.282
				l7.416,19.283c0.474,1.23,0.309,2.614-0.437,3.7C73.902,86.351,72.67,87,71.352,87H35c-1.318,0-2.551-0.649-3.297-1.735
				c-0.746-1.086-0.91-2.47-0.436-3.7L38.683,62.282z"/>
		</g>
		<g>
			<polygon style="fill:#FFE9A1;" points="49.176,35 49.176,37 38.977,37 38.705,35 			"/>
		</g>
		<g>
			<polygon style="fill:#FFE9A1;" points="49.176,41 49.176,43 39.775,43 39.506,41 			"/>
		</g>
		<g>
			<polygon style="fill:#FFE9A1;" points="49.176,47 49.176,49 40.576,49 40.306,47 			"/>
		</g>
		<g>
			<polygon style="fill:#FFE9A1;" points="49.176,53 49.176,55 41.376,55 41.105,53 			"/>
		</g>
		<g>
			<path style="fill:#FFAA00;" d="M43.176,68.5c0,0.276,0.225,0.5,0.5,0.5h5c0.276,0,0.5-0.224,0.5-0.5v-3
				c0-0.276-0.224-0.5-0.5-0.5h-5c-0.275,0-0.5,0.224-0.5,0.5V68.5z"/>
		</g>
		<g>
			<path style="fill:#FFAA00;" d="M57.176,68.5c0,0.276,0.225,0.5,0.5,0.5h5c0.276,0,0.5-0.224,0.5-0.5v-3
				c0-0.276-0.224-0.5-0.5-0.5h-5c-0.275,0-0.5,0.224-0.5,0.5V68.5z"/>
		</g>
		<path style="fill:#FFE9A1;" d="M53.176,71c-3.859,0-7,3.14-7,7s3.141,7,7,7c3.86,0,7-3.14,7-7S57.036,71,53.176,71z M53.176,83
			c-2.757,0-5-2.243-5-5c0-2.415,1.721-4.435,4-4.899V78h2v-4.899c2.279,0.464,4,2.484,4,4.899C58.176,80.757,55.934,83,53.176,83z"
			/>
	</g>
</g>
</svg>
