<?xml version="1.0" encoding="iso-8859-1"?>
<!-- Generator: Adobe Illustrator 17.1.0, SVG Export Plug-In . SVG Version: 6.00 Build 0)  -->
<!DOCTYPE svg PUBLIC "-//W3C//DTD SVG 1.0//EN" "http://www.w3.org/TR/2001/REC-SVG-20010904/DTD/svg10.dtd">
<svg version="1.0" xmlns="http://www.w3.org/2000/svg" xmlns:xlink="http://www.w3.org/1999/xlink" x="0px" y="0px" width="110px"
	 height="110px" viewBox="0 0 110 110" style="enable-background:new 0 0 110 110;" xml:space="preserve">
<g id="Artboard">
</g>
<g id="Multicolor">
	<circle style="fill:#25B7D3;" cx="55" cy="55" r="55"/>
	<g>
		<g>
			<path style="fill:#F0F1F1;" d="M86.438,82.504l-7-56C79.188,24.502,77.486,23,75.469,23H34.531c-2.017,0-3.719,1.502-3.969,3.504
				l-7,56c-0.142,1.138,0.211,2.283,0.97,3.143C25.292,86.507,26.384,87,27.531,87h5.938c2.017,0,3.719-1.502,3.969-3.504L38,79h34
				l0.562,4.496C72.812,85.498,74.514,87,76.531,87h5.938c1.147,0,2.239-0.493,2.999-1.353
				C86.227,84.787,86.58,83.642,86.438,82.504z M71,35c0,2.209-1.791,4-4,4H43c-2.209,0-4-1.791-4-4v-4h32V35z"/>
		</g>
		<g>
			<path style="fill:#FFFFFF;" d="M30.562,26.504l-7,56c-0.142,1.138,0.211,2.283,0.97,3.143S26.384,87,27.531,87h5.938
				c2.017,0,3.719-1.502,3.969-3.504L38,79h17V39H43c-2.209,0-4-1.791-4-4v-4h16v-8H34.531C32.514,23,30.812,24.502,30.562,26.504z"
				/>
		</g>
		<g>
			<rect x="39" y="23" style="fill:#DF2C2C;" width="32" height="8"/>
		</g>
		<g>
			<path style="fill:#FA5655;" d="M55,43c-8.837,0-16,7.163-16,16s7.163,16,16,16s16-7.163,16-16S63.837,43,55,43z M55,47
				c5.944,0,10.866,4.327,11.82,10H43.18C44.134,51.327,49.056,47,55,47z M55,71c-5.944,0-10.866-4.327-11.82-10h23.64
				C65.866,66.673,60.944,71,55,71z"/>
		</g>
		<g>
			<rect x="39" y="23" style="fill:#FA5655;" width="16" height="8"/>
		</g>
	</g>
</g>
</svg>
