<?xml version="1.0" encoding="iso-8859-1"?>
<!-- Generator: Adobe Illustrator 17.1.0, SVG Export Plug-In . SVG Version: 6.00 Build 0)  -->
<!DOCTYPE svg PUBLIC "-//W3C//DTD SVG 1.0//EN" "http://www.w3.org/TR/2001/REC-SVG-20010904/DTD/svg10.dtd">
<svg version="1.0" xmlns="http://www.w3.org/2000/svg" xmlns:xlink="http://www.w3.org/1999/xlink" x="0px" y="0px" width="110px"
	 height="110px" viewBox="0 0 110 110" style="enable-background:new 0 0 110 110;" xml:space="preserve">
<g id="Artboard" style="display:none;">
	<rect x="-1247" y="-71" style="display:inline;fill:#8C8C8C;" width="1412" height="743"/>
</g>
<g id="R-Multicolor">
	<circle style="fill:#FABC3D;" cx="55" cy="55" r="55"/>
	<g>
		<circle style="fill:#F0F1F1;" cx="55" cy="55" r="24"/>
		<g>
			<path style="fill:#DF2C2C;" d="M55,23c-17.673,0-32,14.327-32,32s14.327,32,32,32c17.673,0,32-14.327,32-32S72.673,23,55,23z
				 M31,55c0-5.44,1.812-10.455,4.863-14.48L69.48,74.137C65.455,77.188,60.44,79,55,79C41.745,79,31,68.255,31,55z M74.969,68.312
				L41.688,35.031C45.497,32.486,50.075,31,55,31c13.255,0,24,10.745,24,24C79,59.925,77.514,64.503,74.969,68.312z"/>
		</g>
		<path style="fill:#FFFFFF;" d="M55,31c-13.255,0-24,10.745-24,24c0,6.612,2.675,12.6,7,16.94L71.94,38
			C67.6,33.675,61.612,31,55,31z"/>
		<path style="fill:#FA5655;" d="M23,55c0,8.821,3.57,16.809,9.344,22.597L38,71.94C33.675,67.6,31,61.612,31,55
			c0-5.44,1.812-10.455,4.863-14.48l16.779,16.779l5.657-5.657L41.688,35.031C45.497,32.486,50.075,31,55,31
			c6.612,0,12.6,2.675,16.94,7l5.657-5.657C71.809,26.57,63.822,23,55,23C37.327,23,23,37.327,23,55z"/>
	</g>
</g>
<g id="Multicolor" style="display:none;">
	<g style="display:inline;">
		<circle style="fill:#F0F1F1;" cx="55" cy="55" r="24"/>
		<g>
			<path style="fill:#DF2C2C;" d="M55,23c-17.673,0-32,14.327-32,32s14.327,32,32,32c17.673,0,32-14.327,32-32S72.673,23,55,23z
				 M31,55c0-5.44,1.812-10.455,4.863-14.48L69.48,74.137C65.455,77.188,60.44,79,55,79C41.745,79,31,68.255,31,55z M74.969,68.312
				L41.688,35.031C45.497,32.486,50.075,31,55,31c13.255,0,24,10.745,24,24C79,59.925,77.514,64.503,74.969,68.312z"/>
		</g>
		<path style="fill:#FFFFFF;" d="M55,31c-13.255,0-24,10.745-24,24c0,6.612,2.675,12.6,7,16.94L71.94,38
			C67.6,33.675,61.612,31,55,31z"/>
		<path style="fill:#FA5655;" d="M23,55c0,8.821,3.57,16.809,9.344,22.597L38,71.94C33.675,67.6,31,61.612,31,55
			c0-5.44,1.812-10.455,4.863-14.48l16.779,16.779l5.657-5.657L41.688,35.031C45.497,32.486,50.075,31,55,31
			c6.612,0,12.6,2.675,16.94,7l5.657-5.657C71.809,26.57,63.822,23,55,23C37.327,23,23,37.327,23,55z"/>
	</g>
</g>
<g id="Blue" style="display:none;">
	<g style="display:inline;">
		<g>
			<circle style="fill:#E1F5FA;" cx="55.003" cy="55" r="24"/>
		</g>
		<g>
			<g>
				<path style="fill:#0081A1;" d="M55.003,23c-17.673,0-32,14.327-32,32c0,17.673,14.327,32,32,32c17.673,0,32-14.327,32-32
					C87.003,37.327,72.676,23,55.003,23z M31.003,55c0-5.44,1.812-10.455,4.863-14.48l33.618,33.618
					C65.458,77.188,60.443,79,55.003,79C41.748,79,31.003,68.255,31.003,55z M74.972,68.312L41.69,35.031
					C45.5,32.486,50.078,31,55.003,31c13.255,0,24,10.745,24,24C79.003,59.925,77.517,64.503,74.972,68.312z"/>
			</g>
		</g>
		<g>
			<path style="fill:#FFFFFF;" d="M55.003,31c-13.255,0-24,10.745-24,24c0,6.612,2.675,12.6,7,16.94L71.943,38
				C67.602,33.675,61.615,31,55.003,31z"/>
		</g>
		<g>
			<path style="fill:#009FC7;" d="M23.003,55c0,8.821,3.57,16.809,9.344,22.597l5.657-5.657c-4.326-4.341-7-10.328-7-16.94
				c0-5.44,1.812-10.455,4.863-14.48l16.779,16.779l5.657-5.657L41.69,35.031C45.5,32.486,50.078,31,55.003,31
				c6.612,0,12.6,2.675,16.94,7l5.657-5.657C71.811,26.57,63.825,23,55.003,23C37.33,23,23.003,37.327,23.003,55z"/>
		</g>
	</g>
</g>
<g id="R-Blue" style="display:none;">
	<g style="display:inline;">
		<circle style="fill:#81D2EB;" cx="55" cy="55" r="55"/>
	</g>
	<g style="display:inline;">
		<g>
			<circle style="fill:#E1F5FA;" cx="55" cy="55" r="24"/>
		</g>
		<g>
			<g>
				<path style="fill:#0081A1;" d="M55,23c-17.673,0-32,14.327-32,32c0,17.673,14.327,32,32,32c17.673,0,32-14.327,32-32
					C87,37.327,72.673,23,55,23z M31,55c0-5.44,1.812-10.455,4.863-14.48L69.48,74.137C65.455,77.188,60.44,79,55,79
					C41.745,79,31,68.255,31,55z M74.969,68.312L41.688,35.031C45.497,32.486,50.075,31,55,31c13.255,0,24,10.745,24,24
					C79,59.925,77.514,64.503,74.969,68.312z"/>
			</g>
		</g>
		<g>
			<path style="fill:#FFFFFF;" d="M55,31c-13.255,0-24,10.745-24,24c0,6.612,2.675,12.6,7,16.94l33.94-33.94
				C67.6,33.675,61.612,31,55,31z"/>
		</g>
		<g>
			<path style="fill:#009FC7;" d="M23,55c0,8.821,3.57,16.809,9.344,22.597L38,71.94C33.675,67.6,31,61.612,31,55
				c0-5.44,1.812-10.455,4.863-14.48l16.779,16.779l5.657-5.657L41.688,35.031C45.497,32.486,50.075,31,55,31
				c6.612,0,12.6,2.675,16.94,7.001l5.657-5.657C71.809,26.57,63.822,23,55,23C37.327,23,23,37.327,23,55z"/>
		</g>
	</g>
</g>
<g id="Green" style="display:none;">
	<g style="display:inline;">
		<g>
			<circle style="fill:#D7FCF9;" cx="55.003" cy="55" r="24"/>
		</g>
		<g>
			<g>
				<path style="fill:#009687;" d="M55.003,23c-17.673,0-32,14.327-32,32c0,17.673,14.327,32,32,32c17.673,0,32-14.327,32-32
					C87.003,37.327,72.676,23,55.003,23z M31.003,55c0-5.44,1.812-10.455,4.863-14.48l33.618,33.618
					C65.458,77.188,60.443,79,55.003,79C41.748,79,31.003,68.255,31.003,55z M74.972,68.312L41.69,35.031
					C45.5,32.486,50.078,31,55.003,31c13.255,0,24,10.745,24,24C79.003,59.925,77.517,64.503,74.972,68.312z"/>
			</g>
		</g>
		<g>
			<path style="fill:#FFFFFF;" d="M55.003,31c-13.255,0-24,10.745-24,24c0,6.612,2.675,12.6,7,16.94l33.94-33.94
				C67.602,33.675,61.615,31,55.003,31z"/>
		</g>
		<g>
			<path style="fill:#00B8A5;" d="M23.003,55c0,8.821,3.57,16.809,9.344,22.597l5.657-5.657c-4.326-4.341-7-10.328-7-16.94
				c0-5.44,1.812-10.455,4.863-14.48l16.779,16.779l5.657-5.657L41.69,35.031C45.5,32.486,50.078,31,55.003,31
				c6.612,0,12.6,2.675,16.94,7.001l5.657-5.657C71.811,26.57,63.825,23,55.003,23C37.33,23,23.003,37.327,23.003,55z"/>
		</g>
	</g>
</g>
<g id="R-Green" style="display:none;">
	<g style="display:inline;">
		<circle style="fill:#87E0C8;" cx="55" cy="55" r="55"/>
	</g>
	<g style="display:inline;">
		<g>
			<circle style="fill:#D7FCF9;" cx="55" cy="55" r="24"/>
		</g>
		<g>
			<g>
				<path style="fill:#009687;" d="M55,23c-17.673,0-32,14.327-32,32c0,17.673,14.327,32,32,32c17.673,0,32-14.327,32-32
					C87,37.327,72.673,23,55,23z M31,55c0-5.44,1.812-10.455,4.863-14.48L69.48,74.137C65.455,77.188,60.44,79,55,79
					C41.745,79,31,68.255,31,55z M74.969,68.312L41.688,35.031C45.497,32.486,50.075,31,55,31c13.255,0,24,10.745,24,24
					C79,59.925,77.514,64.503,74.969,68.312z"/>
			</g>
		</g>
		<g>
			<path style="fill:#FFFFFF;" d="M55,31c-13.255,0-24,10.745-24,24c0,6.612,2.675,12.6,7,16.94l33.94-33.94
				C67.6,33.675,61.612,31,55,31z"/>
		</g>
		<g>
			<path style="fill:#00B8A5;" d="M23,55c0,8.821,3.57,16.809,9.344,22.597L38,71.94C33.675,67.6,31,61.612,31,55
				c0-5.44,1.812-10.455,4.863-14.48l16.779,16.779l5.657-5.657L41.688,35.031C45.497,32.486,50.075,31,55,31
				c6.612,0,12.6,2.675,16.94,7.001l5.657-5.657C71.809,26.57,63.822,23,55,23C37.327,23,23,37.327,23,55z"/>
		</g>
	</g>
</g>
<g id="Red" style="display:none;">
	<g style="display:inline;">
		<g>
			<circle style="fill:#FFEFED;" cx="55" cy="55" r="24"/>
		</g>
		<g>
			<g>
				<path style="fill:#C23023;" d="M55,23c-17.673,0-32,14.327-32,32c0,17.673,14.327,32,32,32c17.673,0,32-14.327,32-32
					C87,37.327,72.673,23,55,23z M31,55c0-5.44,1.812-10.455,4.863-14.48L69.48,74.137C65.455,77.188,60.44,79,55,79
					C41.745,79,31,68.255,31,55z M74.969,68.312L41.688,35.031C45.497,32.486,50.075,31,55,31c13.255,0,24,10.745,24,24
					C79,59.925,77.514,64.503,74.969,68.312z"/>
			</g>
		</g>
		<g>
			<path style="fill:#FFFFFF;" d="M55,31c-13.255,0-24,10.745-24,24c0,6.612,2.675,12.6,7,16.94L71.94,38
				C67.6,33.675,61.612,31,55,31z"/>
		</g>
		<g>
			<path style="fill:#E54B44;" d="M23,55c0,8.821,3.57,16.809,9.344,22.597L38,71.94c-4.326-4.341-7-10.328-7-16.94
				c0-5.44,1.812-10.455,4.863-14.48l16.779,16.779l5.657-5.657L41.688,35.031C45.497,32.486,50.075,31,55,31
				c6.612,0,12.6,2.675,16.94,7l5.657-5.657C71.809,26.57,63.822,23,55,23C37.327,23,23,37.327,23,55z"/>
		</g>
	</g>
</g>
<g id="R-Red" style="display:none;">
	<g style="display:inline;">
		<circle style="fill:#FABBAF;" cx="55" cy="55" r="55"/>
	</g>
	<g style="display:inline;">
		<g>
			<circle style="fill:#FFEFED;" cx="55" cy="55" r="24"/>
		</g>
		<g>
			<g>
				<path style="fill:#C23023;" d="M55,23c-17.673,0-32,14.327-32,32c0,17.673,14.327,32,32,32c17.673,0,32-14.327,32-32
					C87,37.327,72.673,23,55,23z M31,55c0-5.44,1.812-10.455,4.863-14.48L69.48,74.137C65.455,77.188,60.44,79,55,79
					C41.745,79,31,68.255,31,55z M74.969,68.312L41.688,35.031C45.497,32.486,50.075,31,55,31c13.255,0,24,10.745,24,24
					C79,59.925,77.514,64.503,74.969,68.312z"/>
			</g>
		</g>
		<g>
			<path style="fill:#FFFFFF;" d="M55,31c-13.255,0-24,10.745-24,24c0,6.612,2.675,12.6,7,16.94l33.94-33.94
				C67.6,33.675,61.612,31,55,31z"/>
		</g>
		<g>
			<path style="fill:#E54B44;" d="M23,55c0,8.821,3.57,16.809,9.344,22.597L38,71.94C33.675,67.6,31,61.612,31,55
				c0-5.44,1.812-10.455,4.863-14.48l16.779,16.779l5.657-5.657L41.688,35.031C45.497,32.486,50.075,31,55,31
				c6.612,0,12.6,2.675,16.94,7.001l5.657-5.657C71.809,26.57,63.822,23,55,23C37.327,23,23,37.327,23,55z"/>
		</g>
	</g>
</g>
<g id="Yellow" style="display:none;">
	<g style="display:inline;">
		<g>
			<circle style="fill:#FFF5D9;" cx="55.003" cy="55" r="24"/>
		</g>
		<g>
			<g>
				<path style="fill:#E07000;" d="M55.003,23c-17.673,0-32,14.327-32,32c0,17.673,14.327,32,32,32c17.673,0,32-14.327,32-32
					C87.003,37.327,72.676,23,55.003,23z M31.003,55c0-5.44,1.812-10.455,4.863-14.48l33.618,33.618
					C65.458,77.188,60.443,79,55.003,79C41.748,79,31.003,68.255,31.003,55z M74.972,68.312L41.69,35.031
					C45.5,32.486,50.078,31,55.003,31c13.255,0,24,10.745,24,24C79.003,59.925,77.517,64.503,74.972,68.312z"/>
			</g>
		</g>
		<g>
			<path style="fill:#FFFFFF;" d="M55.003,31c-13.255,0-24,10.745-24,24c0,6.612,2.675,12.6,7,16.94L71.943,38
				C67.602,33.675,61.615,31,55.003,31z"/>
		</g>
		<g>
			<path style="fill:#FA9200;" d="M23.003,55c0,8.821,3.57,16.809,9.344,22.597l5.657-5.657c-4.326-4.341-7-10.328-7-16.94
				c0-5.44,1.812-10.455,4.863-14.48l16.779,16.779l5.657-5.657L41.69,35.031C45.5,32.486,50.078,31,55.003,31
				c6.612,0,12.6,2.675,16.94,7l5.657-5.657C71.811,26.57,63.825,23,55.003,23C37.33,23,23.003,37.327,23.003,55z"/>
		</g>
	</g>
</g>
<g id="R-Yellow" style="display:none;">
	<g style="display:inline;">
		<circle style="fill:#FFD75E;" cx="55" cy="55" r="55"/>
	</g>
	<g style="display:inline;">
		<g>
			<circle style="fill:#FFF5D9;" cx="55" cy="55" r="24"/>
		</g>
		<g>
			<g>
				<path style="fill:#E07000;" d="M55,23c-17.673,0-32,14.327-32,32c0,17.673,14.327,32,32,32c17.673,0,32-14.327,32-32
					C87,37.327,72.673,23,55,23z M31,55c0-5.44,1.812-10.455,4.863-14.48L69.48,74.137C65.455,77.188,60.44,79,55,79
					C41.745,79,31,68.255,31,55z M74.969,68.312L41.688,35.031C45.497,32.486,50.075,31,55,31c13.255,0,24,10.745,24,24
					C79,59.925,77.514,64.503,74.969,68.312z"/>
			</g>
		</g>
		<g>
			<path style="fill:#FFFFFF;" d="M55,31c-13.255,0-24,10.745-24,24c0,6.612,2.675,12.6,7,16.94l33.94-33.94
				C67.6,33.675,61.612,31,55,31z"/>
		</g>
		<g>
			<path style="fill:#FA9200;" d="M23,55c0,8.821,3.57,16.809,9.344,22.597L38,71.94C33.675,67.6,31,61.612,31,55
				c0-5.44,1.812-10.455,4.863-14.48l16.779,16.779l5.657-5.657L41.688,35.031C45.497,32.486,50.075,31,55,31
				c6.612,0,12.6,2.675,16.94,7.001l5.657-5.657C71.809,26.57,63.822,23,55,23C37.327,23,23,37.327,23,55z"/>
		</g>
	</g>
</g>
</svg>
