<?xml version="1.0" encoding="iso-8859-1"?>
<!-- Generator: Adobe Illustrator 17.1.0, SVG Export Plug-In . SVG Version: 6.00 Build 0)  -->
<!DOCTYPE svg PUBLIC "-//W3C//DTD SVG 1.0//EN" "http://www.w3.org/TR/2001/REC-SVG-20010904/DTD/svg10.dtd">
<svg version="1.0" xmlns="http://www.w3.org/2000/svg" xmlns:xlink="http://www.w3.org/1999/xlink" x="0px" y="0px" width="110px"
	 height="110px" viewBox="0 0 110 110" style="enable-background:new 0 0 110 110;" xml:space="preserve">
<g id="Artboard">
</g>
<g id="Multicolor">
	<circle style="fill:#25B7D3;" cx="55" cy="55" r="55"/>
	<g>
		<g>
			<path style="fill:#DF2C2C;" d="M64.964,68.619c-1.66-8.608-1.925-17.217-0.841-25.825c-0.043-0.413-0.212-0.804-0.492-1.114
				c-0.38-0.43-0.92-0.68-1.49-0.68c-4.678,1.243-8.89,1.899-13.071,1.985c-4.18-0.086-8.392-0.742-13.071-1.985
				c-0.57,0-1.11,0.25-1.49,0.68c-0.28,0.31-0.449,0.701-0.492,1.114c1.085,8.609,0.819,17.217-0.841,25.825
				c-0.113,0.586,0.042,1.191,0.421,1.652C33.978,70.731,34.543,71,35.14,71h13.93h13.93c0.597,0,1.162-0.269,1.542-0.729
				C64.922,69.81,65.077,69.205,64.964,68.619z"/>
		</g>
		<g>
			<path style="fill:#9CE5F4;" d="M64.543,35.727C64.163,35.267,63.597,35,63,35H49.07H35.14c-0.597,0-1.163,0.267-1.543,0.728
				c-0.38,0.461-0.534,1.067-0.421,1.653c0.348,1.804,0.613,3.609,0.841,5.413c0.043-0.413,0.212-0.804,0.492-1.114
				c0.38-0.43,0.92-0.68,1.49-0.68c4.678,1.243,8.89,1.899,13.071,1.985c4.18-0.086,8.392-0.742,13.071-1.985
				c0.57,0,1.11,0.25,1.49,0.68c0.28,0.31,0.449,0.701,0.492,1.114c0.227-1.804,0.493-3.609,0.841-5.413
				C65.077,36.794,64.923,36.188,64.543,35.727z"/>
		</g>
		<g>
			<path style="fill:#C9F2F8;" d="M35.14,35c-0.597,0-1.163,0.267-1.543,0.728c-0.38,0.461-0.534,1.067-0.421,1.653
				c0.348,1.804,0.613,3.609,0.841,5.413c0.043-0.413,0.212-0.804,0.492-1.114c0.38-0.43,0.92-0.68,1.49-0.68
				c4.678,1.243,8.89,1.899,13.071,1.985c1.139-0.023,2.283-0.098,3.436-0.206L60.284,35H49.07H35.14z"/>
		</g>
		<g>
			<path style="fill:#FA5655;" d="M49.053,42.985c-4.18-0.086-8.392-0.742-13.071-1.985c-0.57,0-1.11,0.25-1.49,0.68
				c-0.28,0.31-0.449,0.701-0.492,1.114c0.766,6.075,0.844,12.15,0.249,18.224l18.24-18.239
				C51.336,42.887,50.192,42.962,49.053,42.985z"/>
		</g>
		<g>
			<path style="fill:#F0F1F1;" d="M69,27c3.308,0,6,2.692,6,6.001V87h4V33.001C79,27.487,74.514,23,69,23H55.948
				c-0.723,0-1.389,0.39-1.743,1.02C54.187,24.05,52.451,27,49.698,27c-2.685,0-4.202-2.877-4.211-2.894
				c-0.494-0.988-1.696-1.389-2.683-0.894s-1.388,1.695-0.894,2.684C42.013,26.103,44.521,31,49.698,31c3.705,0,6.178-3,7.302-4H69z
				"/>
		</g>
		<g>
			<path style="fill:#FFFFFF;" d="M53,71h-8v2c0,1.105,0.895,2,2,2h4c1.105,0,2-0.895,2-2V71z"/>
		</g>
		<g>
			<path style="fill:#FFFFFF;" d="M49.02,25h-0.04C47.886,25,47,25.886,47,26.98V35h4v-8.02C51,25.886,50.114,25,49.02,25z"/>
		</g>
		<g>
			<g>
				<path style="fill:#9CE5F4;" d="M37,87h-2v-4.04c0-2.735,2.265-4.96,5-4.96h5.04c1.632,0,2.96-1.368,2.96-3h2v0.04
					c0,2.735-2.225,4.96-4.96,4.96H40c-1.632,0-3,1.328-3,2.96V87z"/>
			</g>
		</g>
		<g>
			<path style="fill:#F79392;" d="M61,66h-6c-0.552,0-1-0.448-1-1s0.448-1,1-1h6V66z"/>
		</g>
		<g>
			<path style="fill:#F79392;" d="M61,61h-6c-0.552,0-1-0.448-1-1s0.448-1,1-1h6V61z"/>
		</g>
		<g>
			<path style="fill:#F79392;" d="M61,56h-6c-0.552,0-1-0.448-1-1s0.448-1,1-1h6V56z"/>
		</g>
		<g>
			<path style="fill:#F79392;" d="M61,51h-6c-0.552,0-1-0.448-1-1s0.448-1,1-1h6V51z"/>
		</g>
	</g>
</g>
</svg>
