<?xml version="1.0" encoding="iso-8859-1"?>
<!-- Generator: Adobe Illustrator 17.1.0, SVG Export Plug-In . SVG Version: 6.00 Build 0)  -->
<!DOCTYPE svg PUBLIC "-//W3C//DTD SVG 1.0//EN" "http://www.w3.org/TR/2001/REC-SVG-20010904/DTD/svg10.dtd">
<svg version="1.0" xmlns="http://www.w3.org/2000/svg" xmlns:xlink="http://www.w3.org/1999/xlink" x="0px" y="0px" width="110px"
	 height="110px" viewBox="0 0 110 110" style="enable-background:new 0 0 110 110;" xml:space="preserve">
<g id="Artboard">
</g>
<g id="Multicolor">
	<circle style="fill:#32BEA6;" cx="55" cy="55" r="55"/>
	<g>
		<g>
			<g>
				<path style="fill:#DF2C2C;" d="M55,87c-13.234,0-24-10.767-24-24V47c0-2.797,1.175-5.469,3.229-7.358l13.715-14.2
					C49.442,23.891,51.54,23,53.698,23h4.439c2.369,0,4.601,1.04,6.125,2.854l11.946,14.215C78.01,41.94,79,44.395,79,47v16
					C79,76.233,68.234,87,55,87z M55.821,31c-1.353,0-2.644,0.567-3.559,1.564l-11.68,12.715C39.564,46.386,39,47.834,39,49.338V63
					c0,8.822,7.178,16,16,16s16-7.178,16-16V49.113c0-1.367-0.467-2.694-1.324-3.759L59.588,32.805
					C58.67,31.664,57.285,31,55.821,31z"/>
			</g>
		</g>
		<g>
			<path style="fill:#3E3E3F;" d="M71,49.11V63c0,8.82-7.18,16-16,16s-16-7.18-16-16V49.34c0-1.51,0.56-2.95,1.58-4.06l11.68-12.72
				c0.92-0.99,2.21-1.56,3.56-1.56c1.47,0,2.85,0.66,3.77,1.8l10.09,12.55C70.53,46.42,71,47.75,71,49.11z"/>
		</g>
		<g>
			<rect x="39" y="51" style="fill:#9E9FA0;" width="32" height="8"/>
		</g>
		<g>
			<path style="fill:#9E9FA0;" d="M39.489,47h31.116c-0.222-0.59-0.529-1.148-0.929-1.646L64.568,39H46.349l-5.768,6.278
				C40.114,45.788,39.755,46.375,39.489,47z"/>
		</g>
		<g>
			<path style="fill:#9E9FA0;" d="M41.165,71h27.67C70.203,68.644,71,65.916,71,63H39C39,65.916,39.797,68.644,41.165,71z"/>
		</g>
		<g>
			<path style="fill:#FACB1B;" d="M77,52c0,0.552-0.448,1-1,1h-2c-0.552,0-1-0.448-1-1v-5c0-0.552,0.448-1,1-1h2
				c0.552,0,1,0.448,1,1V52z"/>
		</g>
		<g>
			<path style="fill:#F0F1F1;" d="M64.677,44.549c-0.249-0.493-0.851-0.69-1.344-0.441l-1.785,0.902
				c-0.493,0.249-0.69,0.851-0.441,1.344l12.634,24.988l-1.775,3.138l6.091,12.048c2.913,1.329,8.267-1.379,8.924-4.512
				l-6.091-12.048l-3.58-0.431L64.677,44.549z"/>
		</g>
		<g>
			<path style="fill:#FA5655;" d="M56,78.949C55.667,78.97,55.337,79,55,79c-8.822,0-16-7.178-16-16V49.337
				c0-1.503,0.564-2.952,1.581-4.059l11.68-12.715C53.177,31.567,54.468,31,55.821,31c0.06,0,0.119,0.008,0.179,0.01V23h-2.302
				c-2.158,0-4.256,0.891-5.754,2.441l-13.715,14.2C32.175,41.531,31,44.203,31,47v16c0,13.233,10.766,24,24,24
				c0.335,0,0.668-0.012,1-0.025V78.949z"/>
		</g>
		<g>
			<path style="fill:#F0F1F1;" d="M45.323,44.549c0.249-0.493,0.851-0.69,1.344-0.441l1.785,0.902
				c0.493,0.249,0.69,0.851,0.441,1.344L36.259,71.342l1.775,3.138l-6.091,12.048c-2.913,1.329-8.267-1.379-8.924-4.512
				l6.091-12.048l3.58-0.431L45.323,44.549z"/>
		</g>
		<g>
			<path style="fill:#FBE158;" d="M37,52c0,0.552-0.448,1-1,1h-2c-0.552,0-1-0.448-1-1v-5c0-0.552,0.448-1,1-1h2
				c0.552,0,1,0.448,1,1V52z"/>
		</g>
	</g>
</g>
</svg>
