<?xml version="1.0" encoding="iso-8859-1"?>
<!-- Generator: Adobe Illustrator 17.1.0, SVG Export Plug-In . SVG Version: 6.00 Build 0)  -->
<!DOCTYPE svg PUBLIC "-//W3C//DTD SVG 1.0//EN" "http://www.w3.org/TR/2001/REC-SVG-20010904/DTD/svg10.dtd">
<svg version="1.0" xmlns="http://www.w3.org/2000/svg" xmlns:xlink="http://www.w3.org/1999/xlink" x="0px" y="0px" width="110px"
	 height="110px" viewBox="0 0 110 110" style="enable-background:new 0 0 110 110;" xml:space="preserve">
<g id="Artboard" style="display:none;">
	
		<rect x="-584.5" y="-1058.5" style="display:inline;fill:#808080;stroke:#000000;stroke-miterlimit:10;" width="1392" height="1369"/>
</g>
<g id="R-Multicolor">
	<circle style="fill:#FABC3D;" cx="55" cy="55" r="55"/>
	<g>
		<g>
			<path style="fill:#E2E4E5;" d="M55,27c-13.255,0-24,5.373-24,12v24c0,2.209,1.791,4,4,4h40c2.209,0,4-1.791,4-4V39
				C79,32.373,68.255,27,55,27z"/>
		</g>
		<path style="fill:#FFFFFF;" d="M31,39v24c0,2.209,1.791,4,4,4h20V27C41.745,27,31,32.373,31,39z"/>
		<g>
			<path style="fill:#FFFFFF;" d="M31,39v24c0,2.209,1.791,4,4,4h20V27C41.745,27,31,32.373,31,39z"/>
		</g>
		<g>
			<path style="fill:#3E3E3F;" d="M55,27c1.358,0,2.687,0.059,3.983,0.167C58.985,27.111,59,27.057,59,27c0-2.209-1.791-4-4-4
				c-2.209,0-4,1.791-4,4c0,0.057,0.015,0.111,0.017,0.167C52.313,27.059,53.642,27,55,27z"/>
		</g>
		<path style="fill:#3E3E3F;" d="M85,39H25c-1.104,0-2,0.896-2,2v4.113c0,1.017,0.76,1.867,1.77,1.984
			C27.798,47.447,29.874,48.748,31,51v-8h48v8c1.126-2.252,3.202-3.553,6.23-3.903C86.24,46.98,87,46.129,87,45.112V41
			C87,39.896,86.104,39,85,39z"/>
		<g>
			<path style="fill:#FA5655;" d="M29.75,87C26.022,87,23,84.189,23,80.461c0-3.728,5.344-8.051,4.5-11.461
				c5.449,2.145,5.063,9.75,5.063,9.75s1.641-0.984,1.406-4.172C39.15,79.759,35.664,87,29.75,87z"/>
		</g>
		<g>
			<path style="fill:#FBEC9A;" d="M29.75,87c-5.15-1.354-0.402-6.256-1.055-8.649C32.372,81.055,34.25,86.174,29.75,87z"/>
		</g>
		<g>
			<path style="fill:#FA5655;" d="M54.5,87c-3.728,0-6.75-2.811-6.75-6.539c0-3.728,5.344-8.051,4.5-11.461
				c5.449,2.145,5.063,9.75,5.063,9.75s1.641-0.984,1.406-4.172C63.901,79.759,60.414,87,54.5,87z"/>
		</g>
		<g>
			<path style="fill:#FBEC9A;" d="M54.5,87c-5.15-1.354-0.402-6.256-1.055-8.649C57.122,81.055,59,86.174,54.5,87z"/>
		</g>
		<g>
			<path style="fill:#FA5655;" d="M79.251,87c-3.728,0-6.75-2.811-6.75-6.539c0-3.728,5.344-8.051,4.5-11.461
				c5.449,2.145,5.063,9.75,5.063,9.75s1.641-0.984,1.406-4.172C88.651,79.759,85.164,87,79.251,87z"/>
		</g>
		<g>
			<path style="fill:#FBEC9A;" d="M79.251,87c-5.15-1.354-0.402-6.256-1.055-8.649C81.872,81.055,83.751,86.174,79.251,87z"/>
		</g>
	</g>
</g>
<g id="Multicolor" style="display:none;">
	<g style="display:inline;">
		<g>
			<path style="fill:#E2E4E5;" d="M55,27c-13.255,0-24,5.373-24,12v24c0,2.209,1.791,4,4,4h40c2.209,0,4-1.791,4-4V39
				C79,32.373,68.255,27,55,27z"/>
		</g>
		<path style="fill:#FFFFFF;" d="M31,39v24c0,2.209,1.791,4,4,4h20V27C41.745,27,31,32.373,31,39z"/>
		<g>
			<path style="fill:#FFFFFF;" d="M31,39v24c0,2.209,1.791,4,4,4h20V27C41.745,27,31,32.373,31,39z"/>
		</g>
		<g>
			<path style="fill:#3E3E3F;" d="M55,27c1.358,0,2.687,0.059,3.983,0.167C58.985,27.111,59,27.057,59,27c0-2.209-1.791-4-4-4
				c-2.209,0-4,1.791-4,4c0,0.057,0.015,0.111,0.017,0.167C52.313,27.059,53.642,27,55,27z"/>
		</g>
		<path style="fill:#3E3E3F;" d="M85,39H25c-1.104,0-2,0.896-2,2v4.113c0,1.017,0.76,1.867,1.77,1.984
			C27.798,47.447,29.874,48.748,31,51v-8h48v8c1.126-2.252,3.202-3.553,6.23-3.903C86.24,46.98,87,46.129,87,45.112V41
			C87,39.896,86.104,39,85,39z"/>
		<g>
			<path style="fill:#FA5655;" d="M29.75,87C26.022,87,23,84.189,23,80.461c0-3.728,5.344-8.051,4.5-11.461
				c5.449,2.145,5.063,9.75,5.063,9.75s1.641-0.984,1.406-4.172C39.15,79.759,35.664,87,29.75,87z"/>
		</g>
		<g>
			<path style="fill:#FBEC9A;" d="M29.75,87c-5.15-1.354-0.402-6.256-1.055-8.649C32.372,81.055,34.25,86.174,29.75,87z"/>
		</g>
		<g>
			<path style="fill:#FA5655;" d="M54.5,87c-3.728,0-6.75-2.811-6.75-6.539c0-3.728,5.344-8.051,4.5-11.461
				c5.449,2.145,5.063,9.75,5.063,9.75s1.641-0.984,1.406-4.172C63.901,79.759,60.414,87,54.5,87z"/>
		</g>
		<g>
			<path style="fill:#FBEC9A;" d="M54.5,87c-5.15-1.354-0.402-6.256-1.055-8.649C57.122,81.055,59,86.174,54.5,87z"/>
		</g>
		<g>
			<path style="fill:#FA5655;" d="M79.251,87c-3.728,0-6.75-2.811-6.75-6.539c0-3.728,5.344-8.051,4.5-11.461
				c5.449,2.145,5.063,9.75,5.063,9.75s1.641-0.984,1.406-4.172C88.651,79.759,85.164,87,79.251,87z"/>
		</g>
		<g>
			<path style="fill:#FBEC9A;" d="M79.251,87c-5.15-1.354-0.402-6.256-1.055-8.649C81.872,81.055,83.751,86.174,79.251,87z"/>
		</g>
	</g>
</g>
<g id="Blue" style="display:none;">
	<g style="display:inline;">
		<g>
			<path style="fill:#E1F5FA;" d="M55,27c-13.255,0-24,5.373-24,12v24c0,2.209,1.791,4,4,4h40c2.209,0,4-1.791,4-4V39
				C79,32.373,68.255,27,55,27z"/>
		</g>
		<path style="fill:#FFFFFF;" d="M31,39v24c0,2.209,1.791,4,4,4h20V27C41.745,27,31,32.373,31,39z"/>
		<g>
			<path style="fill:#FFFFFF;" d="M31,39v24c0,2.209,1.791,4,4,4h20V27C41.745,27,31,32.373,31,39z"/>
		</g>
		<g>
			<path style="fill:#0C333D;" d="M55,27c1.357,0,2.687,0.059,3.983,0.168C58.985,27.111,59,27.058,59,27c0-2.209-1.791-4-4-4
				s-4,1.791-4,4c0,0.058,0.015,0.111,0.017,0.168C52.312,27.059,53.643,27,55,27z"/>
		</g>
		<path style="fill:#0C333D;" d="M85,39H25c-1.104,0-2,0.896-2,2v4.113c0,1.017,0.76,1.867,1.771,1.984
			C27.798,47.447,29.874,48.748,31,51v-8h48v8c1.126-2.252,3.202-3.553,6.229-3.903C86.24,46.98,87,46.129,87,45.112V41
			C87,39.896,86.104,39,85,39z"/>
		<g>
			<path style="fill:#FFFFFF;" d="M29.75,87C26.023,87,23,84.189,23,80.461c0-3.728,5.344-8.051,4.5-11.461
				c5.449,2.145,5.062,9.75,5.062,9.75s1.641-0.984,1.406-4.172C39.15,79.759,35.664,87,29.75,87z"/>
		</g>
		<g>
			<path style="fill:#00B7E5;" d="M29.75,87c-5.15-1.354-0.402-6.256-1.055-8.648C32.371,81.055,34.25,86.174,29.75,87z"/>
		</g>
		<g>
			<path style="fill:#FFFFFF;" d="M54.5,87c-3.728,0-6.75-2.811-6.75-6.539c0-3.728,5.344-8.051,4.5-11.461
				c5.449,2.145,5.062,9.75,5.062,9.75s1.641-0.984,1.406-4.172C63.9,79.759,60.414,87,54.5,87z"/>
		</g>
		<g>
			<path style="fill:#00B7E5;" d="M54.5,87c-5.15-1.354-0.402-6.256-1.055-8.648C57.122,81.055,59,86.174,54.5,87z"/>
		</g>
		<g>
			<path style="fill:#FFFFFF;" d="M79.251,87c-3.729,0-6.751-2.811-6.751-6.539c0-3.728,5.345-8.051,4.501-11.461
				c5.449,2.145,5.062,9.75,5.062,9.75s1.641-0.984,1.406-4.172C88.65,79.759,85.164,87,79.251,87z"/>
		</g>
		<g>
			<path style="fill:#00B7E5;" d="M79.251,87c-5.151-1.354-0.402-6.256-1.056-8.648C81.872,81.055,83.751,86.174,79.251,87z"/>
		</g>
	</g>
</g>
<g id="R-Blue" style="display:none;">
	<circle style="display:inline;fill:#81D2EB;" cx="55" cy="55" r="55"/>
	<g style="display:inline;">
		<g>
			<path style="fill:#E1F5FA;" d="M55,27c-13.255,0-24,5.373-24,12v24c0,2.209,1.791,4,4,4h40c2.209,0,4-1.791,4-4V39
				C79,32.373,68.255,27,55,27z"/>
		</g>
		<path style="fill:#FFFFFF;" d="M31,39v24c0,2.209,1.791,4,4,4h20V27C41.745,27,31,32.373,31,39z"/>
		<g>
			<path style="fill:#FFFFFF;" d="M31,39v24c0,2.209,1.791,4,4,4h20V27C41.745,27,31,32.373,31,39z"/>
		</g>
		<g>
			<path style="fill:#0C333D;" d="M55,27c1.357,0,2.687,0.059,3.983,0.168C58.985,27.111,59,27.058,59,27c0-2.209-1.791-4-4-4
				s-4,1.791-4,4c0,0.058,0.015,0.111,0.017,0.168C52.312,27.059,53.643,27,55,27z"/>
		</g>
		<path style="fill:#0C333D;" d="M85,39H25c-1.104,0-2,0.896-2,2v4.113c0,1.017,0.76,1.867,1.771,1.984
			C27.798,47.447,29.874,48.748,31,51v-8h48v8c1.126-2.252,3.202-3.553,6.229-3.903C86.24,46.98,87,46.129,87,45.112V41
			C87,39.895,86.104,39,85,39z"/>
		<g>
			<path style="fill:#FFFFFF;" d="M29.75,87C26.023,87,23,84.189,23,80.461c0-3.728,5.344-8.051,4.5-11.461
				c5.449,2.144,5.062,9.75,5.062,9.75s1.641-0.984,1.406-4.172C39.15,79.759,35.664,87,29.75,87z"/>
		</g>
		<g>
			<path style="fill:#00B7E5;" d="M29.75,87c-5.15-1.354-0.402-6.256-1.055-8.648C32.371,81.055,34.25,86.174,29.75,87z"/>
		</g>
		<g>
			<path style="fill:#FFFFFF;" d="M54.5,87c-3.728,0-6.75-2.811-6.75-6.539c0-3.728,5.344-8.051,4.5-11.461
				c5.449,2.144,5.062,9.75,5.062,9.75s1.641-0.984,1.406-4.172C63.9,79.759,60.414,87,54.5,87z"/>
		</g>
		<g>
			<path style="fill:#00B7E5;" d="M54.5,87c-5.15-1.354-0.402-6.256-1.055-8.648C57.122,81.055,59,86.174,54.5,87z"/>
		</g>
		<g>
			<path style="fill:#FFFFFF;" d="M79.251,87c-3.729,0-6.751-2.811-6.751-6.539c0-3.728,5.345-8.051,4.501-11.461
				c5.449,2.144,5.062,9.75,5.062,9.75s1.641-0.984,1.406-4.172C88.65,79.759,85.164,87,79.251,87z"/>
		</g>
		<g>
			<path style="fill:#00B7E5;" d="M79.251,87c-5.151-1.354-0.402-6.256-1.056-8.648C81.872,81.055,83.751,86.174,79.251,87z"/>
		</g>
	</g>
</g>
<g id="Green" style="display:none;">
	<g style="display:inline;">
		<g>
			<path style="fill:#D7FCF9;" d="M55,27c-13.255,0-24,5.373-24,12v24c0,2.209,1.791,4,4,4h40c2.209,0,4-1.791,4-4V39
				C79,32.373,68.255,27,55,27z"/>
		</g>
		<path style="fill:#FFFFFF;" d="M31,39v24c0,2.209,1.791,4,4,4h20V27C41.745,27,31,32.373,31,39z"/>
		<g>
			<path style="fill:#FFFFFF;" d="M31,39v24c0,2.209,1.791,4,4,4h20V27C41.745,27,31,32.373,31,39z"/>
		</g>
		<g>
			<path style="fill:#0A3631;" d="M55,27c1.357,0,2.687,0.059,3.983,0.167C58.985,27.111,59,27.058,59,27c0-2.209-1.791-4-4-4
				s-4,1.791-4,4c0,0.058,0.015,0.111,0.017,0.167C52.312,27.059,53.643,27,55,27z"/>
		</g>
		<path style="fill:#0A3631;" d="M85,39H25c-1.104,0-2,0.896-2,2v4.113c0,1.017,0.76,1.867,1.771,1.984
			C27.798,47.447,29.874,48.748,31,51v-8h48v8c1.126-2.252,3.202-3.553,6.229-3.903C86.24,46.98,87,46.129,87,45.112V41
			C87,39.896,86.104,39,85,39z"/>
		<g>
			<path style="fill:#FFFFFF;" d="M29.75,87C26.022,87,23,84.189,23,80.461c0-3.728,5.344-8.051,4.5-11.461
				c5.449,2.145,5.062,9.75,5.062,9.75s1.641-0.984,1.406-4.172C39.15,79.759,35.664,87,29.75,87z"/>
		</g>
		<g>
			<path style="fill:#00D6C1;" d="M29.75,87c-5.15-1.354-0.402-6.256-1.055-8.648C32.371,81.055,34.25,86.174,29.75,87z"/>
		</g>
		<g>
			<path style="fill:#FFFFFF;" d="M54.5,87c-3.728,0-6.75-2.811-6.75-6.539c0-3.728,5.344-8.051,4.5-11.461
				c5.449,2.145,5.062,9.75,5.062,9.75s1.641-0.984,1.406-4.172C63.9,79.759,60.414,87,54.5,87z"/>
		</g>
		<g>
			<path style="fill:#00D6C1;" d="M54.5,87c-5.15-1.354-0.402-6.256-1.055-8.648C57.122,81.055,59,86.174,54.5,87z"/>
		</g>
		<g>
			<path style="fill:#FFFFFF;" d="M79.251,87c-3.729,0-6.751-2.811-6.751-6.539c0-3.728,5.345-8.051,4.501-11.461
				c5.449,2.145,5.062,9.75,5.062,9.75s1.641-0.984,1.406-4.172C88.65,79.759,85.164,87,79.251,87z"/>
		</g>
		<g>
			<path style="fill:#00D6C1;" d="M79.251,87c-5.151-1.354-0.402-6.256-1.056-8.648C81.872,81.055,83.751,86.174,79.251,87z"/>
		</g>
	</g>
</g>
<g id="R-Green" style="display:none;">
	<circle style="display:inline;fill:#77E0C4;" cx="55" cy="55" r="55"/>
	<g style="display:inline;">
		<g>
			<path style="fill:#D7FCF9;" d="M55,27c-13.255,0-24,5.373-24,12v24c0,2.209,1.791,4,4,4h40c2.209,0,4-1.791,4-4V39
				C79,32.373,68.255,27,55,27z"/>
		</g>
		<path style="fill:#FFFFFF;" d="M31,39v24c0,2.209,1.791,4,4,4h20V27C41.745,27,31,32.373,31,39z"/>
		<g>
			<path style="fill:#FFFFFF;" d="M31,39v24c0,2.209,1.791,4,4,4h20V27C41.745,27,31,32.373,31,39z"/>
		</g>
		<g>
			<path style="fill:#0A3631;" d="M55,27c1.357,0,2.687,0.059,3.983,0.168C58.985,27.111,59,27.058,59,27c0-2.209-1.791-4-4-4
				s-4,1.791-4,4c0,0.058,0.015,0.111,0.017,0.168C52.312,27.059,53.643,27,55,27z"/>
		</g>
		<path style="fill:#0A3631;" d="M85,39H25c-1.104,0-2,0.896-2,2v4.113c0,1.017,0.76,1.867,1.771,1.984
			C27.798,47.447,29.874,48.748,31,51v-8h48v8c1.126-2.252,3.202-3.553,6.229-3.903C86.24,46.98,87,46.129,87,45.112V41
			C87,39.896,86.104,39,85,39z"/>
		<g>
			<path style="fill:#FFFFFF;" d="M29.75,87C26.022,87,23,84.189,23,80.461c0-3.728,5.344-8.051,4.5-11.461
				c5.449,2.145,5.062,9.75,5.062,9.75s1.641-0.984,1.406-4.172C39.15,79.759,35.664,87,29.75,87z"/>
		</g>
		<g>
			<path style="fill:#00D6C1;" d="M29.75,87c-5.15-1.354-0.402-6.256-1.055-8.648C32.371,81.055,34.25,86.174,29.75,87z"/>
		</g>
		<g>
			<path style="fill:#FFFFFF;" d="M54.5,87c-3.728,0-6.75-2.811-6.75-6.539c0-3.728,5.344-8.051,4.5-11.461
				c5.449,2.145,5.062,9.75,5.062,9.75s1.641-0.984,1.406-4.172C63.9,79.759,60.414,87,54.5,87z"/>
		</g>
		<g>
			<path style="fill:#00D6C1;" d="M54.5,87c-5.15-1.354-0.402-6.256-1.055-8.648C57.122,81.055,59,86.174,54.5,87z"/>
		</g>
		<g>
			<path style="fill:#FFFFFF;" d="M79.251,87c-3.729,0-6.751-2.811-6.751-6.539c0-3.728,5.345-8.051,4.501-11.461
				c5.449,2.145,5.062,9.75,5.062,9.75s1.641-0.984,1.406-4.172C88.65,79.759,85.164,87,79.251,87z"/>
		</g>
		<g>
			<path style="fill:#00D6C1;" d="M79.251,87c-5.151-1.354-0.402-6.256-1.056-8.648C81.872,81.055,83.751,86.174,79.251,87z"/>
		</g>
	</g>
</g>
<g id="Red" style="display:none;">
	<g style="display:inline;">
		<g>
			<path style="fill:#FFEFED;" d="M55,27c-13.255,0-24,5.373-24,12v24c0,2.209,1.791,4,4,4h40c2.209,0,4-1.791,4-4V39
				C79,32.373,68.255,27,55,27z"/>
		</g>
		<path style="fill:#FFFFFF;" d="M31,39v24c0,2.209,1.791,4,4,4h20V27C41.745,27,31,32.373,31,39z"/>
		<g>
			<path style="fill:#FFFFFF;" d="M31,39v24c0,2.209,1.791,4,4,4h20V27C41.745,27,31,32.373,31,39z"/>
		</g>
		<g>
			<path style="fill:#4A1410;" d="M55,27c1.357,0,2.686,0.059,3.983,0.167C58.985,27.111,59,27.058,59,27c0-2.209-1.791-4-4-4
				s-4,1.791-4,4c0,0.058,0.015,0.111,0.017,0.167C52.312,27.059,53.643,27,55,27z"/>
		</g>
		<path style="fill:#4A1410;" d="M85,39H25c-1.104,0-2,0.896-2,2v4.113c0,1.017,0.76,1.867,1.771,1.984
			C27.798,47.447,29.874,48.748,31,51v-8h48v8c1.126-2.252,3.202-3.553,6.229-3.903C86.24,46.98,87,46.129,87,45.112V41
			C87,39.896,86.104,39,85,39z"/>
		<g>
			<path style="fill:#FFFFFF;" d="M29.75,87C26.022,87,23,84.189,23,80.461c0-3.728,5.344-8.051,4.5-11.461
				c5.449,2.145,5.062,9.75,5.062,9.75s1.641-0.984,1.406-4.172C39.15,79.759,35.664,87,29.75,87z"/>
		</g>
		<g>
			<path style="fill:#FF6C5E;" d="M29.75,87c-5.15-1.354-0.402-6.256-1.055-8.648C32.371,81.055,34.25,86.174,29.75,87z"/>
		</g>
		<g>
			<path style="fill:#FFFFFF;" d="M54.5,87c-3.728,0-6.75-2.811-6.75-6.539c0-3.728,5.344-8.051,4.5-11.461
				c5.449,2.145,5.062,9.75,5.062,9.75s1.641-0.984,1.406-4.172C63.9,79.759,60.414,87,54.5,87z"/>
		</g>
		<g>
			<path style="fill:#FF6C5E;" d="M54.5,87c-5.15-1.354-0.402-6.256-1.055-8.648C57.122,81.055,59,86.174,54.5,87z"/>
		</g>
		<g>
			<path style="fill:#FFFFFF;" d="M79.251,87c-3.729,0-6.751-2.811-6.751-6.539c0-3.728,5.345-8.051,4.501-11.461
				c5.449,2.145,5.062,9.75,5.062,9.75s1.641-0.984,1.406-4.172C88.65,79.759,85.164,87,79.251,87z"/>
		</g>
		<g>
			<path style="fill:#FF6C5E;" d="M79.251,87c-5.151-1.354-0.402-6.256-1.056-8.648C81.872,81.055,83.751,86.174,79.251,87z"/>
		</g>
	</g>
</g>
<g id="R-Red" style="display:none;">
	<circle style="display:inline;fill:#FABBAF;" cx="55" cy="55" r="55"/>
	<g style="display:inline;">
		<g>
			<path style="fill:#FFEFED;" d="M55,27c-13.255,0-24,5.373-24,12v24c0,2.209,1.791,4,4,4h40c2.209,0,4-1.791,4-4V39
				C79,32.373,68.255,27,55,27z"/>
		</g>
		<path style="fill:#FFFFFF;" d="M31,39v24c0,2.209,1.791,4,4,4h20V27C41.745,27,31,32.373,31,39z"/>
		<g>
			<path style="fill:#FFFFFF;" d="M31,39v24c0,2.209,1.791,4,4,4h20V27C41.745,27,31,32.373,31,39z"/>
		</g>
		<g>
			<path style="fill:#4A1410;" d="M55,27c1.357,0,2.686,0.059,3.983,0.167C58.985,27.111,59,27.058,59,27c0-2.209-1.791-4-4-4
				s-4,1.791-4,4c0,0.058,0.015,0.111,0.017,0.167C52.312,27.059,53.643,27,55,27z"/>
		</g>
		<path style="fill:#4A1410;" d="M85,39H25c-1.104,0-2,0.896-2,2v4.113c0,1.017,0.76,1.867,1.771,1.984
			C27.798,47.447,29.874,48.748,31,51v-8h48v8c1.126-2.252,3.202-3.553,6.229-3.903C86.24,46.98,87,46.129,87,45.112V41
			C87,39.896,86.104,39,85,39z"/>
		<g>
			<path style="fill:#FFFFFF;" d="M29.75,87C26.022,87,23,84.189,23,80.461c0-3.728,5.344-8.051,4.5-11.461
				c5.449,2.145,5.062,9.75,5.062,9.75s1.641-0.984,1.406-4.172C39.15,79.759,35.664,87,29.75,87z"/>
		</g>
		<g>
			<path style="fill:#FF6C5E;" d="M29.75,87c-5.15-1.354-0.402-6.256-1.055-8.648C32.371,81.055,34.25,86.174,29.75,87z"/>
		</g>
		<g>
			<path style="fill:#FFFFFF;" d="M54.5,87c-3.728,0-6.75-2.811-6.75-6.539c0-3.728,5.344-8.051,4.5-11.461
				c5.449,2.145,5.062,9.75,5.062,9.75s1.641-0.984,1.406-4.172C63.9,79.759,60.414,87,54.5,87z"/>
		</g>
		<g>
			<path style="fill:#FF6C5E;" d="M54.5,87c-5.15-1.354-0.402-6.256-1.055-8.648C57.122,81.055,59,86.174,54.5,87z"/>
		</g>
		<g>
			<path style="fill:#FFFFFF;" d="M79.251,87c-3.729,0-6.751-2.811-6.751-6.539c0-3.728,5.345-8.051,4.501-11.461
				c5.449,2.145,5.062,9.75,5.062,9.75s1.641-0.984,1.406-4.172C88.65,79.759,85.164,87,79.251,87z"/>
		</g>
		<g>
			<path style="fill:#FF6C5E;" d="M79.251,87c-5.151-1.354-0.402-6.256-1.056-8.648C81.872,81.055,83.751,86.174,79.251,87z"/>
		</g>
	</g>
</g>
<g id="Yellow" style="display:none;">
	<g style="display:inline;">
		<g>
			<path style="fill:#FFF5D9;" d="M55,27c-13.255,0-24,5.373-24,12v24c0,2.209,1.791,4,4,4h40c2.209,0,4-1.791,4-4V39
				C79,32.373,68.255,27,55,27z"/>
		</g>
		<path style="fill:#FFFFFF;" d="M31,39v24c0,2.209,1.791,4,4,4h20V27C41.745,27,31,32.373,31,39z"/>
		<g>
			<path style="fill:#FFFFFF;" d="M31,39v24c0,2.209,1.791,4,4,4h20V27C41.745,27,31,32.373,31,39z"/>
		</g>
		<g>
			<path style="fill:#3D320C;" d="M55,27c1.357,0,2.687,0.059,3.983,0.168C58.985,27.111,59,27.058,59,27c0-2.209-1.791-4-4-4
				s-4,1.791-4,4c0,0.058,0.015,0.111,0.017,0.168C52.312,27.059,53.643,27,55,27z"/>
		</g>
		<path style="fill:#3D320C;" d="M85,39H25c-1.104,0-2,0.896-2,2v4.113c0,1.017,0.76,1.867,1.771,1.984
			C27.798,47.447,29.874,48.748,31,51v-8h48v8c1.126-2.252,3.202-3.553,6.229-3.903C86.24,46.98,87,46.129,87,45.112V41
			C87,39.896,86.104,39,85,39z"/>
		<g>
			<path style="fill:#FFFFFF;" d="M29.75,87C26.022,87,23,84.189,23,80.461c0-3.728,5.344-8.051,4.5-11.461
				c5.449,2.145,5.062,9.75,5.062,9.75s1.641-0.984,1.406-4.172C39.15,79.759,35.664,87,29.75,87z"/>
		</g>
		<g>
			<path style="fill:#FFAA00;" d="M29.75,87c-5.15-1.354-0.402-6.256-1.055-8.648C32.371,81.055,34.25,86.174,29.75,87z"/>
		</g>
		<g>
			<path style="fill:#FFFFFF;" d="M54.5,87c-3.728,0-6.75-2.811-6.75-6.539c0-3.728,5.344-8.051,4.5-11.461
				c5.449,2.145,5.062,9.75,5.062,9.75s1.641-0.984,1.406-4.172C63.9,79.759,60.414,87,54.5,87z"/>
		</g>
		<g>
			<path style="fill:#FFAA00;" d="M54.5,87c-5.15-1.354-0.402-6.256-1.055-8.648C57.122,81.055,59,86.174,54.5,87z"/>
		</g>
		<g>
			<path style="fill:#FFFFFF;" d="M79.251,87c-3.729,0-6.751-2.811-6.751-6.539c0-3.728,5.345-8.051,4.501-11.461
				c5.449,2.145,5.062,9.75,5.062,9.75s1.641-0.984,1.406-4.172C88.65,79.759,85.164,87,79.251,87z"/>
		</g>
		<g>
			<path style="fill:#FFAA00;" d="M79.251,87c-5.151-1.354-0.402-6.256-1.056-8.648C81.872,81.055,83.751,86.174,79.251,87z"/>
		</g>
	</g>
</g>
<g id="R-Yellow" style="display:none;">
	<circle style="display:inline;fill:#FFD75E;" cx="55" cy="55" r="55"/>
	<g style="display:inline;">
		<g>
			<path style="fill:#FFF5D9;" d="M55,27c-13.255,0-24,5.373-24,12v24c0,2.209,1.791,4,4,4h40c2.209,0,4-1.791,4-4V39
				C79,32.373,68.255,27,55,27z"/>
		</g>
		<path style="fill:#FFFFFF;" d="M31,39v24c0,2.209,1.791,4,4,4h20V27C41.745,27,31,32.373,31,39z"/>
		<g>
			<path style="fill:#FFFFFF;" d="M31,39v24c0,2.209,1.791,4,4,4h20V27C41.745,27,31,32.373,31,39z"/>
		</g>
		<g>
			<path style="fill:#3D320C;" d="M55,27c1.357,0,2.687,0.059,3.983,0.168C58.985,27.111,59,27.058,59,27c0-2.209-1.791-4-4-4
				s-4,1.791-4,4c0,0.058,0.015,0.111,0.017,0.168C52.312,27.059,53.643,27,55,27z"/>
		</g>
		<path style="fill:#3D320C;" d="M85,39H25c-1.104,0-2,0.896-2,2v4.113c0,1.017,0.76,1.867,1.771,1.984
			C27.798,47.447,29.874,48.748,31,51v-8h48v8c1.126-2.252,3.202-3.553,6.229-3.903C86.24,46.98,87,46.129,87,45.112V41
			C87,39.896,86.104,39,85,39z"/>
		<g>
			<path style="fill:#FFFFFF;" d="M29.75,87C26.022,87,23,84.189,23,80.461c0-3.728,5.344-8.051,4.5-11.461
				c5.449,2.145,5.062,9.75,5.062,9.75s1.641-0.984,1.406-4.172C39.15,79.759,35.664,87,29.75,87z"/>
		</g>
		<g>
			<path style="fill:#FFAA00;" d="M29.75,87c-5.15-1.354-0.402-6.256-1.055-8.648C32.371,81.055,34.25,86.174,29.75,87z"/>
		</g>
		<g>
			<path style="fill:#FFFFFF;" d="M54.5,87c-3.728,0-6.75-2.811-6.75-6.539c0-3.728,5.344-8.051,4.5-11.461
				c5.449,2.145,5.062,9.75,5.062,9.75s1.641-0.984,1.406-4.172C63.9,79.759,60.414,87,54.5,87z"/>
		</g>
		<g>
			<path style="fill:#FFAA00;" d="M54.5,87c-5.15-1.354-0.402-6.256-1.055-8.648C57.122,81.055,59,86.174,54.5,87z"/>
		</g>
		<g>
			<path style="fill:#FFFFFF;" d="M79.251,87c-3.729,0-6.751-2.811-6.751-6.539c0-3.728,5.345-8.051,4.501-11.461
				c5.449,2.145,5.062,9.75,5.062,9.75s1.641-0.984,1.406-4.172C88.65,79.759,85.164,87,79.251,87z"/>
		</g>
		<g>
			<path style="fill:#FFAA00;" d="M79.251,87c-5.151-1.354-0.402-6.256-1.056-8.648C81.872,81.055,83.751,86.174,79.251,87z"/>
		</g>
	</g>
</g>
</svg>
