<?xml version="1.0" encoding="iso-8859-1"?>
<!-- Generator: Adobe Illustrator 17.1.0, SVG Export Plug-In . SVG Version: 6.00 Build 0)  -->
<!DOCTYPE svg PUBLIC "-//W3C//DTD SVG 1.0//EN" "http://www.w3.org/TR/2001/REC-SVG-20010904/DTD/svg10.dtd">
<svg version="1.0" xmlns="http://www.w3.org/2000/svg" xmlns:xlink="http://www.w3.org/1999/xlink" x="0px" y="0px" width="110px"
	 height="110px" viewBox="0 0 110 110" style="enable-background:new 0 0 110 110;" xml:space="preserve">
<g id="Artboard">
</g>
<g id="Multicolor">
	<circle style="fill:#FABC3D;" cx="55" cy="55" r="55"/>
	<g>
		<g>
			<path style="fill:#FA5655;" d="M69.492,37.836l1.135,1.135l1.71,1.709c2.954-3.683,6.622-8.05,11.822-6.933l0.84-3.911
				C77.639,28.256,72.784,33.755,69.492,37.836z"/>
		</g>
		<g>
			<path style="fill:#DF2C2C;" d="M81.405,29.621c1.126-0.11,2.321-0.05,3.597,0.228l-0.843,3.899
				c-1.333-0.28-2.565-0.205-3.71,0.126L81.405,29.621z"/>
		</g>
		<path style="fill:#DF2C2C;" d="M73.355,33.576c-0.009,0.012-1.213,6.893-1.215,6.907l0.197,0.197
			c1.227-1.529,2.564-3.172,4.095-4.5c0.01-0.012,1.354-5.599,1.357-5.614C76.127,31.299,74.666,32.371,73.355,33.576z"/>
		<g>
			<path style="fill:#E2E4E5;" d="M67.184,42.416c1.88,1.834,3.414,3.907,4.623,6.122L76,44.344l-5.373-5.373l-5.234-5.234
				l-4.265,4.266C63.289,39.145,65.333,40.608,67.184,42.416z"/>
		</g>
		<g>
			<path style="fill:#FFFFFF;" d="M67.184,42.415l3.444-3.443l-5.234-5.234l-4.265,4.266C63.289,39.145,65.333,40.608,67.184,42.415
				z"/>
		</g>
		<g>
			<path style="fill:#3E3E3F;" d="M67.184,42.415c-11.056-10.794-28.903-9.622-38.476,2.332c-8.312,10.378-7.37,25.171,1.713,34.432
				c11.028,11.24,29.194,10.161,38.875-1.926C77.728,66.723,76.64,51.645,67.184,42.415z"/>
		</g>
		<g>
			<path style="fill:#5B5C5F;" d="M28.707,44.747c-8.312,10.378-7.37,25.171,1.713,34.432l36.764-36.764
				C56.128,31.621,38.28,32.794,28.707,44.747z"/>
		</g>
	</g>
</g>
</svg>
