<?xml version="1.0" encoding="iso-8859-1"?>
<!-- Generator: Adobe Illustrator 17.1.0, SVG Export Plug-In . SVG Version: 6.00 Build 0)  -->
<!DOCTYPE svg PUBLIC "-//W3C//DTD SVG 1.0//EN" "http://www.w3.org/TR/2001/REC-SVG-20010904/DTD/svg10.dtd">
<svg version="1.0" xmlns="http://www.w3.org/2000/svg" xmlns:xlink="http://www.w3.org/1999/xlink" x="0px" y="0px" width="110px"
	 height="110px" viewBox="0 0 110 110" style="enable-background:new 0 0 110 110;" xml:space="preserve">
<g id="Artboard">
</g>
<g id="Multicolor">
	<circle style="fill:#FABC3D;" cx="55" cy="55" r="55"/>
	<g>
		<path style="fill:#3E3E3F;" d="M79,79H34c-1.657,0-3-1.343-3-3V27c0-1.657,1.343-3,3-3h45V79z"/>
		<path style="fill:#5B5C5F;" d="M39,79h-5c-1.657,0-3-1.343-3-3V27c0-1.657,1.343-3,3-3h5V79z"/>
		<polygon style="fill:#FA5655;" points="39,79 39,87 44,83 49,87 49,79 		"/>
		<polygon style="fill:#5B5C5F;" points="39,24 39,64.063 79,24.063 79,24 		"/>
		<path style="fill:#818284;" d="M39,24h-5c-1.657,0-3,1.343-3,3v45.063l8-8V24z"/>
		<path style="fill:#FA5655;" d="M71,31h-6v48c0,0.552,0.448,1,1,1h4c0.552,0,1-0.448,1-1V31z"/>
		<path style="fill:#F79392;" d="M71,32.063V24c0-0.552-0.448-1-1-1h-4c-0.552,0-1,0.448-1,1v14.063L71,32.063z"/>
	</g>
</g>
</svg>
