<?xml version="1.0" encoding="iso-8859-1"?>
<!-- Generator: Adobe Illustrator 17.1.0, SVG Export Plug-In . SVG Version: 6.00 Build 0)  -->
<!DOCTYPE svg PUBLIC "-//W3C//DTD SVG 1.0//EN" "http://www.w3.org/TR/2001/REC-SVG-20010904/DTD/svg10.dtd">
<svg version="1.0" xmlns="http://www.w3.org/2000/svg" xmlns:xlink="http://www.w3.org/1999/xlink" x="0px" y="0px" width="110px"
	 height="110px" viewBox="0 0 110 110" style="enable-background:new 0 0 110 110;" xml:space="preserve">
<g id="Artboard">
</g>
<g id="Multicolor">
	<circle style="fill:#32BEA6;" cx="55" cy="55" r="55"/>
	<g>
		<g>
			<path style="fill:#FFFFFF;" d="M87,37c0-7.732-6.268-14-14-14H37c-7.732,0-14,6.268-14,14v48c0,1.104,0.895,2,2,2h4
				c1.105,0,2-0.896,2-2v-4.01c0-3.31,2.68-5.994,5.99-6l36-0.062c3.316-0.006,6.01,2.683,6.01,6V85c0,1.104,0.895,2,2,2h4
				c1.105,0,2-0.896,2-2V37z M27,37c0-5.523,4.477-10,10-10h8c1.105,0,2,0.895,2,2v16c0,1.105-0.895,2-2,2H31c-2.209,0-4-1.791-4-4
				V37z M83,65c0,3.314-2.686,6-6,6H33c-3.314,0-6-2.686-6-6v-8c0-3.314,2.686-6,6-6h44c3.314,0,6,2.686,6,6V65z M83,43
				c0,2.209-1.791,4-4,4H53c-1.105,0-2-0.895-2-2V29c0-1.105,0.895-2,2-2h20c5.523,0,10,4.477,10,10V43z"/>
		</g>
		<g>
			<path style="fill:#F37A10;" d="M70,45c0,1.105-0.895,2-2,2h-5c-1.105,0-2-0.895-2-2V33c0-1.105,0.895-2,2-2h5
				c1.105,0,2,0.895,2,2V45z"/>
		</g>
		<g>
			<path style="fill:#F37A10;" d="M39,69c0,1.105-0.895,2-2,2h-4c-1.105,0-2-0.895-2-2V57c0-1.105,0.895-2,2-2h4
				c1.105,0,2,0.895,2,2V69z"/>
		</g>
		<g>
			<path style="fill:#FACB1B;" d="M47,69c0,1.105-0.895,2-2,2h-4c-1.105,0-2-0.895-2-2V57c0-1.105,0.895-2,2-2h4
				c1.105,0,2,0.895,2,2V69z"/>
		</g>
		<g>
			<path style="fill:#FACB1B;" d="M79,69c0,1.105-0.895,2-2,2h-4c-1.105,0-2-0.895-2-2V57c0-1.105,0.895-2,2-2h4
				c1.105,0,2,0.895,2,2V69z"/>
		</g>
		<g>
			<path style="fill:#FACB1B;" d="M79,45c0,1.105-0.895,2-2,2h-4c-1.105,0-2-0.895-2-2V33c0-1.105,0.895-2,2-2h4
				c1.105,0,2,0.895,2,2V45z"/>
		</g>
		<g>
			<path style="fill:#FA5655;" d="M60.125,66.05c0.543,0.962,0.203,2.182-0.758,2.725l-3.483,1.966
				c-0.962,0.543-2.182,0.203-2.725-0.758l-5.899-10.45c-0.543-0.962-0.203-2.182,0.758-2.725l3.483-1.966
				c0.962-0.543,2.182-0.203,2.725,0.758L60.125,66.05z"/>
		</g>
		<g>
			<path style="fill:#FA5655;" d="M32.826,46.217C32.928,46.674,33.333,47,33.802,47h6.396c0.469,0,0.875-0.326,0.976-0.783l1.556-7
				c0.066-0.296-0.006-0.606-0.196-0.843C42.344,38.138,42.057,38,41.753,38h-9.507c-0.303,0-0.59,0.138-0.78,0.374
				c-0.19,0.237-0.262,0.547-0.196,0.843L32.826,46.217z"/>
		</g>
		<g>
			<path style="fill:#0C7367;" d="M37,30c0,0-2,2-2,8c1,0,3,0,3,0S37,33,37,30z"/>
		</g>
		<g>
			<path style="fill:#8AE5DB;" d="M43.228,36.228c-1.953,1.953-5.303,1.768-5.303,1.768s-0.185-3.351,1.768-5.303
				s5.303-1.768,5.303-1.768S45.18,34.275,43.228,36.228z"/>
		</g>
		<g>
			<path style="fill:#47C4B7;" d="M44.997,30.981l-7.016,7.016c0.431,0.014,3.437,0.04,5.246-1.77
				C45.037,34.418,45.011,31.412,44.997,30.981z"/>
		</g>
	</g>
</g>
</svg>
