<?xml version="1.0" encoding="iso-8859-1"?>
<!-- Generator: Adobe Illustrator 17.1.0, SVG Export Plug-In . SVG Version: 6.00 Build 0)  -->
<!DOCTYPE svg PUBLIC "-//W3C//DTD SVG 1.0//EN" "http://www.w3.org/TR/2001/REC-SVG-20010904/DTD/svg10.dtd">
<svg version="1.0" xmlns="http://www.w3.org/2000/svg" xmlns:xlink="http://www.w3.org/1999/xlink" x="0px" y="0px" width="110px"
	 height="110px" viewBox="0 0 110 110" style="enable-background:new 0 0 110 110;" xml:space="preserve">
<g id="Artboard">
</g>
<g id="Multicolor">
	<circle style="fill:#25B7D3;" cx="55" cy="55" r="55"/>
	<g>
		<path style="fill:#3E3E3F;" d="M87,76c0,2.2-1.8,4-4,4H27c-2.2,0-4-1.8-4-4V28c0-2.2,1.8-4,4-4h56c2.2,0,4,1.8,4,4V76z"/>
		<g>
			<rect x="27" y="28" style="fill:#FFFFFF;" width="56" height="48"/>
		</g>
		<g>
			<rect x="54" y="28" style="fill:#F0F1F1;" width="2" height="48"/>
		</g>
		<polygon style="fill:#FA5655;" points="31,76 31,87 36,83 41,87 41,76 		"/>
		<path style="fill:#E2E4E5;" d="M49,40c0,0.552-0.256,1-0.571,1H33.571C33.256,41,33,40.552,33,40s0.256-1,0.571-1h14.857
			C48.744,39,49,39.448,49,40z"/>
		<path style="fill:#E2E4E5;" d="M49,48c0,0.552-0.256,1-0.571,1H33.571C33.256,49,33,48.552,33,48s0.256-1,0.571-1h14.857
			C48.744,47,49,47.448,49,48z"/>
		<path style="fill:#E2E4E5;" d="M49,56c0,0.552-0.256,1-0.571,1H33.571C33.256,57,33,56.552,33,56s0.256-1,0.571-1h14.857
			C48.744,55,49,55.448,49,56z"/>
		<path style="fill:#E2E4E5;" d="M49,64c0,0.552-0.256,1-0.571,1H33.571C33.256,65,33,64.552,33,64s0.256-1,0.571-1h14.857
			C48.744,63,49,63.448,49,64z"/>
		<path style="fill:#E2E4E5;" d="M77,40c0,0.552-0.256,1-0.571,1H61.571C61.256,41,61,40.552,61,40s0.256-1,0.571-1h14.857
			C76.744,39,77,39.448,77,40z"/>
		<path style="fill:#E2E4E5;" d="M77,48c0,0.552-0.256,1-0.571,1H61.571C61.256,49,61,48.552,61,48s0.256-1,0.571-1h14.857
			C76.744,47,77,47.448,77,48z"/>
		<path style="fill:#E2E4E5;" d="M77,56c0,0.552-0.256,1-0.571,1H61.571C61.256,57,61,56.552,61,56s0.256-1,0.571-1h14.857
			C76.744,55,77,55.448,77,56z"/>
		<path style="fill:#E2E4E5;" d="M77,64c0,0.552-0.256,1-0.571,1H61.571C61.256,65,61,64.552,61,64s0.256-1,0.571-1h14.857
			C76.744,63,77,63.448,77,64z"/>
		<path style="fill:#FA5655;" d="M79,23h-6v57c0,0.552,0.448,1,1,1h4c0.552,0,1-0.448,1-1V23z"/>
	</g>
</g>
</svg>
