<?xml version="1.0" encoding="iso-8859-1"?>
<!-- Generator: Adobe Illustrator 17.1.0, SVG Export Plug-In . SVG Version: 6.00 Build 0)  -->
<!DOCTYPE svg PUBLIC "-//W3C//DTD SVG 1.0//EN" "http://www.w3.org/TR/2001/REC-SVG-20010904/DTD/svg10.dtd">
<svg version="1.0" xmlns="http://www.w3.org/2000/svg" xmlns:xlink="http://www.w3.org/1999/xlink" x="0px" y="0px" width="110px"
	 height="110px" viewBox="0 0 110 110" style="enable-background:new 0 0 110 110;" xml:space="preserve">
<g id="Artboard">
</g>
<g id="Multicolor">
	<circle style="fill:#25B7D3;" cx="55" cy="55" r="55"/>
	<g>
		<g>
			<path style="fill:#EDBC7C;" d="M31,27v56h48V27H31z M75,59H35V47h40V59z M75,43H35V31h40V43z"/>
		</g>
		<g>
			<path style="fill:#F37A10;" d="M40.634,41.656c0,0.742-0.602,1.344-1.344,1.344h-2.687c-0.742,0-1.344-0.602-1.344-1.344v-8.062
				c0-0.742,0.602-1.344,1.344-1.344h2.687c0.742,0,1.344,0.602,1.344,1.344V41.656z"/>
		</g>
		<g>
			<path style="fill:#FACB1B;" d="M46.009,41.656c0,0.742-0.602,1.344-1.344,1.344h-2.687c-0.742,0-1.344-0.602-1.344-1.344v-8.062
				c0-0.742,0.602-1.344,1.344-1.344h2.687c0.742,0,1.344,0.602,1.344,1.344V41.656z"/>
		</g>
		<g>
			<path style="fill:#FA5655;" d="M54.826,39.674c0.365,0.646,0.137,1.466-0.509,1.831l-2.34,1.321
				c-0.646,0.365-1.466,0.137-1.831-0.509l-3.963-7.02c-0.365-0.646-0.137-1.466,0.509-1.831l2.34-1.321
				c0.646-0.365,1.466-0.137,1.831,0.509L54.826,39.674z"/>
		</g>
		<g>
			<path style="fill:#FA5655;" d="M63.417,58.512C63.48,58.797,63.733,59,64.025,59h3.984c0.292,0,0.545-0.203,0.608-0.488
				l0.969-4.36c0.041-0.184-0.004-0.378-0.122-0.525s-0.297-0.233-0.486-0.233h-5.922c-0.189,0-0.368,0.086-0.486,0.233
				s-0.163,0.34-0.122,0.525L63.417,58.512z"/>
		</g>
		<g>
			<path style="fill:#0C7367;" d="M66.017,48.411c0,0-1.246,1.246-1.246,4.983c0.623,0,1.869,0,1.869,0S66.017,50.279,66.017,48.411
				z"/>
		</g>
		<g>
			<path style="fill:#8AE5DB;" d="M69.896,52.29c-1.216,1.216-3.303,1.101-3.303,1.101s-0.115-2.087,1.101-3.303
				c1.216-1.216,3.303-1.101,3.303-1.101S71.112,51.073,69.896,52.29z"/>
		</g>
		<g>
			<path style="fill:#47C4B7;" d="M70.998,49.022l-4.37,4.37c0.269,0.008,2.141,0.025,3.268-1.102
				C71.023,51.163,71.007,49.29,70.998,49.022z"/>
		</g>
		<g>
			<path style="fill:#84462D;" d="M27,25c0,1.105,0.895,2,2,2h52c1.105,0,2-0.895,2-2s-0.895-2-2-2H29C27.895,23,27,23.895,27,25z"
				/>
		</g>
		<g>
			<polygon style="fill:#84462D;" points="77,83 77,87 73,87 65,83 			"/>
		</g>
		<g>
			<polygon style="fill:#84462D;" points="33,83 33,87 37,87 45,83 			"/>
		</g>
		<g>
			<rect x="35" y="63" style="fill:#F8E1C2;" width="18" height="16"/>
		</g>
		<g>
			<rect x="57" y="63" style="fill:#F8E1C2;" width="18" height="16"/>
		</g>
		<g>
			<circle style="fill:#84462D;" cx="61" cy="71" r="2"/>
		</g>
		<g>
			<circle style="fill:#84462D;" cx="49" cy="71" r="2"/>
		</g>
		<g>
			<polygon style="fill:#F4D0A1;" points="31,55.698 35,51.698 35,47 39.698,47 43.698,43 35,43 35,31 55.698,31 59.698,27 31,27 
							"/>
		</g>
		<g>
			<path style="fill:#9C6144;" d="M29,23c-1.104,0-2,0.896-2,2s0.896,2,2,2h30.698l4-4H29z"/>
		</g>
	</g>
</g>
</svg>
