<?xml version="1.0" encoding="iso-8859-1"?>
<!-- Generator: Adobe Illustrator 17.1.0, SVG Export Plug-In . SVG Version: 6.00 Build 0)  -->
<!DOCTYPE svg PUBLIC "-//W3C//DTD SVG 1.0//EN" "http://www.w3.org/TR/2001/REC-SVG-20010904/DTD/svg10.dtd">
<svg version="1.0" xmlns="http://www.w3.org/2000/svg" xmlns:xlink="http://www.w3.org/1999/xlink" x="0px" y="0px" width="110px"
	 height="110px" viewBox="0 0 110 110" style="enable-background:new 0 0 110 110;" xml:space="preserve">
<g id="Artboard">
</g>
<g id="Multicolor">
	<circle style="fill:#25B7D3;" cx="55" cy="55" r="55"/>
	<g>
		<g>
			<path style="fill:#E2E4E5;" d="M86,35h-7c-1.104,0-2,0.896-2,2v8H33v-8c0-1.104-0.896-2-2-2h-7c-0.552,0-1,0.448-1,1v2
				c0,0.552,0.448,1,1,1h3v36c0,2.209,1.791,4,4,4h48c2.209,0,4-1.791,4-4V39h3c0.552,0,1-0.448,1-1v-2C87,35.448,86.552,35,86,35z
				 M77,67H33V51h44V67z"/>
		</g>
		<g>
			<rect x="67" y="55" style="fill:#DF2C2C;" width="8" height="12"/>
		</g>
		<g>
			<rect x="67" y="55" style="fill:#FA5655;" width="4" height="12"/>
		</g>
		<g>
			<polygon style="fill:#F79392;" points="58.424,54.245 54.098,67 58.322,67 62.212,55.53 			"/>
		</g>
		<g>
			<polygon style="fill:#FA5655;" points="58.424,54.245 54.098,67 62.545,67 66,56.815 			"/>
		</g>
		<g>
			
				<rect x="56.606" y="59.265" transform="matrix(0.947 0.3212 -0.3212 0.947 22.5681 -16.273)" style="fill:#F3B607;" width="8" height="2"/>
		</g>
		<g>
			
				<rect x="56.712" y="58.623" transform="matrix(0.947 0.3212 -0.3212 0.947 22.2614 -15.6987)" style="fill:#FBE158;" width="4" height="2"/>
		</g>
		<g>
			<rect x="67" y="59" style="fill:#F3B607;" width="8" height="2"/>
		</g>
		<g>
			<rect x="67" y="59" style="fill:#FBE158;" width="4" height="2"/>
		</g>
		<g>
			<rect x="35" y="25" style="fill:#DF2C2C;" width="10" height="20"/>
		</g>
		<g>
			<rect x="35" y="25" style="fill:#FA5655;" width="5" height="20"/>
		</g>
		<g>
			<circle style="fill:#3E3E3F;" cx="35" cy="83" r="4"/>
		</g>
		<g>
			<circle style="fill:#3E3E3F;" cx="75" cy="83" r="4"/>
		</g>
		<g>
			<rect x="47" y="25" style="fill:#8E6134;" width="10" height="20"/>
		</g>
		<g>
			<rect x="35" y="29" style="fill:#F3B607;" width="10" height="2"/>
		</g>
		<g>
			<rect x="35" y="39" style="fill:#F3B607;" width="10" height="2"/>
		</g>
		<g>
			<path style="fill:#FFFFFF;" d="M62.204,51l6-6H33v-8c0-1.104-0.896-2-2-2h-7c-0.552,0-1,0.448-1,1v2c0,0.552,0.448,1,1,1h3v36
				c0,2.209,1.791,4,4,4h3.205l12-12H33V51H62.204z"/>
		</g>
		<g>
			<rect x="35" y="29" style="fill:#FBE158;" width="5" height="2"/>
		</g>
		<g>
			<rect x="35" y="39" style="fill:#FBE158;" width="5" height="2"/>
		</g>
		<g>
			<rect x="47" y="25" style="fill:#A97A45;" width="5" height="20"/>
		</g>
		<g>
			<rect x="47" y="37" style="fill:#EDBC7C;" width="10" height="4"/>
		</g>
		<g>
			<rect x="47" y="37" style="fill:#F4D0A1;" width="5" height="4"/>
		</g>
		<g>
			<circle style="fill:#EDBC7C;" cx="52" cy="31" r="3"/>
		</g>
		<g>
			<path style="fill:#F8E1C2;" d="M49,31c0,1.657,1.343,3,3,3v-6C50.343,28,49,29.343,49,31z"/>
		</g>
	</g>
</g>
</svg>
