<?xml version="1.0" encoding="iso-8859-1"?>
<!-- Generator: Adobe Illustrator 17.1.0, SVG Export Plug-In . SVG Version: 6.00 Build 0)  -->
<!DOCTYPE svg PUBLIC "-//W3C//DTD SVG 1.0//EN" "http://www.w3.org/TR/2001/REC-SVG-20010904/DTD/svg10.dtd">
<svg version="1.0" xmlns="http://www.w3.org/2000/svg" xmlns:xlink="http://www.w3.org/1999/xlink" x="0px" y="0px" width="110px"
	 height="110px" viewBox="0 0 110 110" style="enable-background:new 0 0 110 110;" xml:space="preserve">
<g id="Artboard">
</g>
<g id="Multicolor">
	<circle style="fill:#E04F5F;" cx="55" cy="55" r="55"/>
	<g>
		<g>
			<path style="fill:#8E6134;" d="M51.75,38.976c0,0,2.127,9.82,4.04,18.6c0.62,3.43-1.76,6.66-5.15,7.07
				c-6.07,0.753-22.13,3.188-24.458,8.813c0.136,0.002,0.276,0.017,0.417,0.047l31.74,7.05c5.583-9.469,17.624-12.56,28.66-12.56
				v-29C83,28.996,56,28.996,51.75,38.976z"/>
		</g>
		<g>
			<path style="fill:#A97A45;" d="M87,38.996c-4-10-31-10-35.25-0.02c0,0,2.127,9.82,4.04,18.6c0.62,3.43-1.76,6.66-5.15,7.07
				c-6.07,0.753-22.13,3.188-24.458,8.813c0.136,0.002,0.276,0.017,0.417,0.047l23.088,5.128L87,41.322V38.996z"/>
		</g>
		<g>
			<path style="fill:#692E19;" d="M87,30.996v8c-4-10-31-10-35.25-0.02c-0.647-2.964-0.235-1.084-1.75-7.98
				C55,21.017,82.99,20.986,87,30.996z"/>
		</g>
		<g>
			<path style="fill:#EDBC7C;" d="M75,23.986v23.01c0,2.21-1.79,4-4,4c-2.21,0-4-1.79-4-4v-23.45
				C69.7,23.416,72.44,23.567,75,23.986z"/>
		</g>
		<g>
			<circle style="fill:#692E19;" cx="71" cy="44.996" r="2"/>
		</g>
		<g>
			<path style="fill:#EDBC7C;" d="M48.73,78.426l-22.13-4.92c-0.14-0.03-0.28-0.05-0.42-0.05c1.86-4.47,12.31-6.96,20.53-8.25
				C48.787,69.359,49.431,74.068,48.73,78.426z"/>
		</g>
		<path style="fill:#692E19;" d="M58.34,80.557l-31.74-7.05c-1.144-0.245-2.149,0.489-2.38,1.51l-0.44,1.96
			c-0.238,1.105,0.482,2.16,1.52,2.38l34.05,7.57c1.399,0.333,2.999-0.488,3.51-2.01c0.105-0.316,2.003-5.579,10.14-8.681v8.761
			c0,1.104,0.896,2,2,2h6.512c0.883,0,1.662-0.58,1.916-1.425l3.066-7.888C86.83,76.565,87,75.165,87,73.997v-6
			C75.94,67.997,63.93,71.076,58.34,80.557z"/>
	</g>
</g>
</svg>
