<?xml version="1.0" encoding="iso-8859-1"?>
<!-- Generator: Adobe Illustrator 17.1.0, SVG Export Plug-In . SVG Version: 6.00 Build 0)  -->
<!DOCTYPE svg PUBLIC "-//W3C//DTD SVG 1.0//EN" "http://www.w3.org/TR/2001/REC-SVG-20010904/DTD/svg10.dtd">
<svg version="1.0" xmlns="http://www.w3.org/2000/svg" xmlns:xlink="http://www.w3.org/1999/xlink" x="0px" y="0px" width="110px"
	 height="110px" viewBox="0 0 110 110" style="enable-background:new 0 0 110 110;" xml:space="preserve">
<g id="Artboard">
</g>
<g id="Multicolor">
	<circle style="fill:#E04F5F;" cx="55" cy="55" r="55"/>
	<g>
		<g>
			<path style="fill:#3E3E3F;" d="M87,76.379C87,81.897,59.414,83,58.311,83c-7.724,0-22.069-8.828-22.069-8.828l1.722,6.887
				C38.23,82.127,37.549,83,36.449,83h-9.241c-1.1,0-2-0.9-2-2v-6.828c-2.946-5.881-2.946-11.774,0-17.655
				c2.502-4.995,2.653-9.86,0.905-14.857c-0.214-0.612-0.118-1.289,0.257-1.818C26.745,39.314,27.353,39,28.001,39h20.241
				c1.843,0,3.714,1.01,4.353,2.731c4.267,8.431,3.15,22.841,14.356,27.321C84.639,76.225,87,73.069,87,76.379z"/>
		</g>
		<g>
			<path style="fill:#3E3E3F;" d="M48.242,39c1.843,0,3.714,1.01,4.353,2.731c0.034,0.066,0.064,0.136,0.097,0.203l-2.545-5.939
				c-0.398-0.929-1.428-1.417-2.398-1.132c-1.962,0.574-4.885,1.799-4.885,4c0,0.047,0.009,0.092,0.013,0.138H48.242z"/>
		</g>
		<g>
			<path style="fill:#F0F1F1;" d="M26.369,39.843c-0.375,0.528-0.471,1.206-0.257,1.818c1.748,4.997,1.597,9.862-0.905,14.857
				C22.29,62.341,22.266,68.176,25.126,74h11.489c3.557,0,7.082-0.679,10.385-2s6.828-2,10.385-2H69.36
				c-0.773-0.296-1.568-0.607-2.409-0.948c-11.206-4.48-10.089-18.89-14.356-27.321C51.955,40.01,50.084,39,48.242,39H28.001
				C27.353,39,26.745,39.314,26.369,39.843z"/>
		</g>
		<g>
			<path style="fill:#3E3E3F;" d="M52.232,59.36c-0.265,0.318-0.307,0.766-0.104,1.127c0.201,0.361,0.603,0.562,1.015,0.503
				l4.786-0.684l-2.76,4.139c-0.219,0.328-0.225,0.754-0.014,1.088C55.339,65.826,55.66,66,56,66c0.047,0,0.094-0.003,0.142-0.01
				l5.366-0.767c-0.507-0.575-0.97-1.182-1.391-1.822l-2.044,0.292l1.174-1.761c-0.614-1.143-1.131-2.354-1.583-3.609l-2.23,0.319
				l1.666-2c-0.403-1.294-0.757-2.616-1.091-3.938l-2.64-0.377l2.108-1.756c-0.327-1.315-0.655-2.611-1.017-3.86l-3.751-0.417
				l2.939-2.1c-0.24-0.658-0.501-1.291-0.783-1.898l-5.445,3.89c-0.337,0.241-0.491,0.665-0.387,1.065
				c0.104,0.401,0.445,0.696,0.857,0.742l6.667,0.74l-4.197,3.497c-0.303,0.253-0.43,0.661-0.321,1.042
				c0.107,0.38,0.43,0.661,0.82,0.717l5.227,0.746L52.232,59.36z"/>
		</g>
		<g>
			<path style="fill:#FFFFFF;" d="M48.242,39H28.001c-0.648,0-1.256,0.314-1.631,0.843c-0.375,0.528-0.471,1.206-0.257,1.818
				c1.748,4.997,1.597,9.862-0.905,14.857c-1.943,3.879-2.595,7.763-1.974,11.646l28.109-28.108C50.485,39.377,49.36,39,48.242,39z"
				/>
		</g>
	</g>
</g>
</svg>
