<?xml version="1.0" encoding="iso-8859-1"?>
<!-- Generator: Adobe Illustrator 17.1.0, SVG Export Plug-In . SVG Version: 6.00 Build 0)  -->
<!DOCTYPE svg PUBLIC "-//W3C//DTD SVG 1.0//EN" "http://www.w3.org/TR/2001/REC-SVG-20010904/DTD/svg10.dtd">
<svg version="1.0" xmlns="http://www.w3.org/2000/svg" xmlns:xlink="http://www.w3.org/1999/xlink" x="0px" y="0px" width="110px"
	 height="110px" viewBox="0 0 110 110" style="enable-background:new 0 0 110 110;" xml:space="preserve">
<g id="Artboard">
</g>
<g id="Multicolor">
	<g>
		<circle style="fill:#25B7D3;" cx="55" cy="55" r="55"/>
	</g>
	<g>
		<g>
			<polygon style="fill:#FFFFFF;" points="67,67.997 65,66.997 45,66.997 43,67.997 43.001,67.999 43,68 43.035,68.059 
				49.192,77.807 49.194,77.806 55,87 60.806,77.806 60.808,77.807 66.965,68.059 67,68 66.999,67.999 			"/>
		</g>
		<path style="fill:#F7B4B4;" d="M57.655,67.997H55h-2.655c-0.856,0-1.671-0.365-2.24-1.004L45,62.997v4.5l10,7.5l10-7.5v-4.5
			l-5.105,3.996C59.326,67.632,58.511,67.997,57.655,67.997z"/>
		<path style="fill:#FBC8C8;" d="M50.105,66.993L45,62.997v4.5l10,7.5v-7h-2.655C51.489,67.997,50.674,67.632,50.105,66.993z"/>
		<path style="fill:#FBC8C8;" d="M70,45c-1,0-1,1.111-1,1.111v-2.305C65.526,44.538,60.549,45,55,45s-10.526-0.462-14-1.194v9.191
			l4,10l5.105,3.996c0.569,0.639,1.384,1.004,2.24,1.004H55h2.655c0.856,0,1.671-0.365,2.24-1.004L65,62.997l3.207-8.017
			C71.042,54.776,72,50.476,72,47.222C72,46.111,71,45,70,45z"/>
		<path style="fill:#FBD7D7;" d="M41,46.111c0,0,0-1.111-1-1.111s-2,1.111-2,2.222c0,3.253,0.958,7.554,3.793,7.758L45,62.997
			l5.105,3.996c0.569,0.639,1.384,1.004,2.24,1.004H55V45c-5.549,0-10.526-0.462-14-1.194V46.111z"/>
		<g>
			<path style="fill:#3E3E3F;" d="M52,46.997c0-1.104-0.896-2-2-2c-0.002,0-0.004,0-0.006,0C49.995,45.019,50,45.039,50,45.06
				c0,1.103-0.892,1.996-1.994,2c0.033,1.075,0.91,1.938,1.994,1.938C51.104,48.997,52,48.102,52,46.997z"/>
		</g>
		<g>
			<path style="fill:#3E3E3F;" d="M61.994,46.997c0-1.104-0.896-2-2-2c-0.002,0-0.004,0-0.006,0
				c0.001,0.021,0.006,0.041,0.006,0.062c0,1.103-0.892,1.996-1.994,2c0.033,1.075,0.91,1.938,1.994,1.938
				C61.098,48.997,61.994,48.102,61.994,46.997z"/>
		</g>
		<g>
			<path style="fill:#F79392;" d="M50,56.997h10c0,0,0,3-5,3S50,56.997,50,56.997z"/>
		</g>
		<g>
			<path style="fill:#FFFFFF;" d="M40,41c0,2.156,0,0.873,0,2c0,0,1,7,2,9c0,0,0,0,1,0c0-1.383,0-7.587,0-11H40z"/>
		</g>
		<g>
			<path style="fill:#FFFFFF;" d="M70,42c0,2.156,0-0.127,0,1c0,0-1,7-2,9c0,0,0,0-1,0c0-1.383,0-6.587,0-10H70z"/>
		</g>
		<path style="fill:#3E3E3F;" d="M70,39.088c0-0.638,0-1.403,0-2.338c0-3.11,0.921-8.332,1.513-11.367
			c0.114-0.586-0.042-1.194-0.421-1.655C70.711,23.268,70.146,23,69.548,23C65.934,23,59.157,23,55,23s-10.934,0-14.548,0
			c-0.598,0-1.164,0.268-1.544,0.729c-0.38,0.461-0.536,1.068-0.421,1.655C39.079,28.418,40,33.64,40,36.75c0,0.936,0,1.701,0,2.338
			c-2.498,0.621-4,1.398-4,2.245C36,43.358,44.507,45,55,45s19-1.642,19-3.667C74,40.486,72.498,39.709,70,39.088z"/>
		<path style="fill:#5B5C5F;" d="M40,36.75c0,0.088,0,0.165,0,0.25h15V23c-4.157,0-10.934,0-14.548,0
			c-0.598,0-1.164,0.268-1.544,0.729c-0.38,0.461-0.536,1.068-0.421,1.655C39.079,28.418,40,33.64,40,36.75z"/>
		<g>
			<path style="fill:#FFFFFF;" d="M55,36c-5.88,0-11.188-0.09-15-0.77v3.667c3.812,0.68,9.12,0.77,15,0.77V36z"/>
		</g>
		<g>
			<path style="fill:#E2E4E5;" d="M55,36c5.88,0,11.188-0.09,15-0.77v3.667c-3.812,0.68-9.12,0.77-15,0.77V36z"/>
		</g>
		<g>
			<path style="fill:#3E3E3F;" d="M23,87l4-11c0.615-1.333,1.698-2.394,3.043-2.983L43,68l12,19H23z"/>
		</g>
		<g>
			<path style="fill:#3E3E3F;" d="M87,87l-4-11c-0.615-1.333-1.698-2.394-3.043-2.983L67,68L55,87H87z"/>
		</g>
		<g>
			<polygon style="fill:#5B5C5F;" points="55,87 45,66 41,68 39,75 45.333,75 42,79 51,87 			"/>
		</g>
		<g>
			<path style="fill:#F79392;" d="M50,56.997h10c0,0,0,3-5,3S50,56.997,50,56.997z"/>
		</g>
		<g>
			<polygon style="fill:#5B5C5F;" points="55,87 65,66 69,68 71,75 64.667,75 68,79 59,87 			"/>
		</g>
		<g>
			<g>
				<polygon style="fill:#DF2C2C;" points="57,77 46,72 46,82 				"/>
			</g>
			<g>
				<polygon style="fill:#DF2C2C;" points="53,77 64,72 64,82 				"/>
			</g>
			<g>
				<circle style="fill:#DF2C2C;" cx="55" cy="77" r="3"/>
			</g>
		</g>
		<g>
			<g>
				<path style="fill:#FFFFFF;" d="M54.936,55.484c-2-3-7-1-9,2c3,0,9,0,9,0V55.484z"/>
			</g>
			<g>
				<path style="fill:#FFFFFF;" d="M54.936,55.484c2-3,7-1,9,2c-3,0-9,0-9,0V55.484z"/>
			</g>
		</g>
		<g>
			<g>
				<path style="fill:#84462D;" d="M75.492,58.894c-2.4-0.48-17.65-3.528-18.238-0.587c-0.588,2.942,15.003,6.059,17.553,6.568
					c1.354,0.271,2.715-0.827,3.04-2.452C78.486,59.221,75.492,58.894,75.492,58.894z"/>
			</g>
			<g>
				
					<ellipse transform="matrix(0.9806 0.196 -0.196 0.9806 13.632 -13.6718)" style="fill:#FA5655;" cx="75.885" cy="62.032" rx="2" ry="3"/>
			</g>
		</g>
	</g>
</g>
</svg>
