<?xml version="1.0" encoding="iso-8859-1"?>
<!-- Generator: Adobe Illustrator 17.1.0, SVG Export Plug-In . SVG Version: 6.00 Build 0)  -->
<!DOCTYPE svg PUBLIC "-//W3C//DTD SVG 1.0//EN" "http://www.w3.org/TR/2001/REC-SVG-20010904/DTD/svg10.dtd">
<svg version="1.0" xmlns="http://www.w3.org/2000/svg" xmlns:xlink="http://www.w3.org/1999/xlink" x="0px" y="0px" width="110px"
	 height="110px" viewBox="0 0 110 110" style="enable-background:new 0 0 110 110;" xml:space="preserve">
<g id="Artboard">
</g>
<g id="Multicolor">
	<g>
		<circle style="fill:#E04F5F;" cx="55" cy="55" r="55"/>
	</g>
	<g>
		<g>
			<g>
				<path style="fill:#EDBC7C;" d="M55,70l-7-1l-16.241,3.872c-2.371,0.711-4.279,2.48-5.168,4.791L23,87h32V70z"/>
			</g>
			<g>
				<path style="fill:#EDBC7C;" d="M55,70l7-1l16.241,3.872c2.371,0.711,4.279,2.48,5.168,4.791L87,87H55V70z"/>
			</g>
		</g>
		<path style="fill:#AF7653;" d="M64.313,63.255c1.143-0.944-2.69,4.471-9.312,6.679c-3.286-1.095-7.16-3.178-10.001-7.581v12.036
			c0,1.725,0.329,3.434,0.97,5.035L49,87h12l3.03-7.576c0.641-1.602,0.97-3.311,0.97-5.035V62.256
			C64.776,62.602,64.549,62.938,64.313,63.255z"/>
		<g>
			<path style="fill:#F8E1C2;" d="M43,87h6l-3.03-7.576c-0.641-1.601-0.97-3.31-0.97-5.035V67c-2,2-4,4-6,7l4,2l-5,5L43,87z"/>
		</g>
		<g>
			<path style="fill:#F8E1C2;" d="M67,87h-6l3.03-7.576c0.641-1.601,0.97-3.31,0.97-5.035V67c2,2,4,4,6,7l-4,2l5,5L67,87z"/>
		</g>
		<path style="fill:#BF8662;" d="M45,62.354v12.036c0,1.725,0.329,3.434,0.97,5.035L49,87h6V69.935
			C51.715,68.839,47.841,66.756,45,62.354z"/>
		<path style="fill:#BF8662;" d="M64.313,63.255c1.434-1.934,2.665-4.366,3.501-7.47c2.353-0.305,2.923-7.619-0.002-8.956
			c-6.764-2.899-9.215-8.907-10.832-11.021c-0.117,0.49-0.633,3.542,3.02,9.021H60c-5.492-0.915-9.214-8.504-9.884-9.872
			c-0.909,4.36-3.813,15.212-7.974,16.872c0-2.146-0.58-4.235-1.57-5.996c0-0.001-0.001-0.003-0.002-0.004c-0.279,0-0.546,0-0.762,0
			c-1,0-2,1.111-2,2.222c0,3.382,1.027,7.309,4.377,7.734c0.517,1.917,1.188,3.57,1.959,5.019l-0.003,0.025
			c-0.018-0.007-0.034-0.016-0.052-0.023c2.878,5.485,7.26,7.912,10.911,9.128C61.624,67.727,65.457,62.311,64.313,63.255z"/>
		<path style="fill:#CC9978;" d="M50.116,34.935c-0.909,4.36-3.813,15.212-7.974,16.872c0-2.146-0.58-4.235-1.57-5.996
			c0-0.001-0.001-0.003-0.002-0.004c-0.279,0-0.546,0-0.762,0c-1,0-2,1.111-2,2.222c0,3.382,1.027,7.31,4.377,7.734
			c0.517,1.917,1.188,3.57,1.959,5.019l-0.003,0.025c-0.018-0.007-0.034-0.016-0.052-0.023c2.878,5.485,7.26,7.912,10.911,9.128
			V41.993C52.307,39.383,50.554,35.83,50.116,34.935z"/>
		<path style="fill:#3E3E3F;" d="M78,43.829c0-9.06-11.355-22.402-23.892-19.397c-2.88,0.567-5.85,2.021-6.166,2.372
			c-15.89-2.727-26.702,25.064-3.799,34.026l0.003-0.025c-0.771-1.449-1.442-3.101-1.959-5.019
			c-3.479-0.442-4.377-4.582-4.377-7.734c0-1.111,1-2.222,2-2.222c0.216,0,0.483,0,0.762,0c0,0.001,0.001,0.002,0.002,0.004
			c0.99,1.761,1.57,3.851,1.57,5.996c4.161-1.659,7.065-12.512,7.974-16.872c0.669,1.367,4.392,8.957,9.884,9.872h0
			c-3.992-5.989-3.003-9.088-3-9.099c0.005,0.011,3.817,8.101,10.812,11.099c2.94,1.344,2.345,8.652,0.002,8.956
			c-0.836,3.104-2.067,5.536-3.501,7.47c3.957-3.267,9.078-7.921,10.83-11.426c1.964-3.928,0.501-7.417-0.745-9.365
			C75.272,42.838,76.512,43.333,78,43.829z"/>
		<g>
			<g>
				<path style="fill:#FBE158;" d="M40.31,55.935l1.527,3.687c0.256,0.618,0.114,1.329-0.358,1.801
					c-0.646,0.646-1.692,0.646-2.338,0c-0.473-0.473-0.614-1.184-0.358-1.801L40.31,55.935z"/>
			</g>
			<g>
				<path style="fill:#FBE158;" d="M69.31,55.935l1.527,3.687c0.256,0.618,0.114,1.329-0.358,1.801
					c-0.646,0.646-1.692,0.646-2.338,0c-0.473-0.473-0.614-1.184-0.358-1.801L69.31,55.935z"/>
			</g>
		</g>
		<g>
			<path style="fill:#3E3E3F;" d="M51.804,47.935c0-1.104-0.896-2-2-2c-0.002,0-0.004,0-0.006,0
				c0.001,0.021,0.006,0.041,0.006,0.062c0,1.103-0.892,1.996-1.994,2c0.033,1.075,0.91,1.938,1.994,1.938
				C50.908,49.935,51.804,49.039,51.804,47.935z"/>
		</g>
		<g>
			<path style="fill:#3E3E3F;" d="M61.797,47.935c0-1.104-0.896-2-2-2c-0.002,0-0.004,0-0.006,0
				c0.001,0.021,0.006,0.041,0.006,0.062c0,1.103-0.892,1.996-1.994,2c0.033,1.075,0.91,1.938,1.994,1.938
				C60.902,49.935,61.797,49.039,61.797,47.935z"/>
		</g>
		<g>
			<path style="fill:#84462D;" d="M49.81,58.935h10c0,0,0,3-5,3S49.81,58.935,49.81,58.935z"/>
		</g>
		<g>
			<path style="fill:#FFFFFF;" d="M54.977,83c-2.887,0-5.605-0.387-8.023-1.058L48.977,87h12L63,81.942
				C60.582,82.613,57.863,83,54.977,83z"/>
		</g>
	</g>
</g>
</svg>
