<?xml version="1.0" encoding="iso-8859-1"?>
<!-- Generator: Adobe Illustrator 17.1.0, SVG Export Plug-In . SVG Version: 6.00 Build 0)  -->
<!DOCTYPE svg PUBLIC "-//W3C//DTD SVG 1.0//EN" "http://www.w3.org/TR/2001/REC-SVG-20010904/DTD/svg10.dtd">
<svg version="1.0" xmlns="http://www.w3.org/2000/svg" xmlns:xlink="http://www.w3.org/1999/xlink" x="0px" y="0px" width="110px"
	 height="110px" viewBox="0 0 110 110" style="enable-background:new 0 0 110 110;" xml:space="preserve">
<g id="Artboard">
</g>
<g id="Multicolor">
	<g>
		<circle style="fill:#25B7D3;" cx="55" cy="55" r="55"/>
	</g>
	<g>
		<path style="fill:#3E3E3F;" d="M64.98,66c10.156-2.257,8.946-10.796,9-23c0-9.941-9.059-18-19-18s-19,8.059-19,18
			c0.034,10.368-0.796,20.823,9,23H64.98z"/>
		<g>
			<path style="fill:#3E3E3F;" d="M55,70l-7-1l-16.241,3.872c-2.371,0.711-4.279,2.48-5.168,4.791L23,87h32V70z"/>
		</g>
		<g>
			<path style="fill:#3E3E3F;" d="M55,70l7-1l16.241,3.872c2.371,0.711,4.279,2.48,5.168,4.791L87,87H55V70z"/>
		</g>
		<g>
			<path style="fill:#FFFFFF;" d="M54.977,83c-2.887,0-5.605-0.387-8.023-1.058L48.977,87h12L63,81.942
				C60.582,82.613,57.863,83,54.977,83z"/>
		</g>
		<g>
			<path style="fill:#B5BBBD;" d="M43,87h6l-3.03-7.576c-0.641-1.601-0.97-3.31-0.97-5.035V67c-2,2-4,4-6,7l4,2l-5,5L43,87z"/>
		</g>
		<g>
			<path style="fill:#B5BBBD;" d="M67,87h-6l3.03-7.576c0.641-1.601,0.97-3.31,0.97-5.035V67c2,2,4,4,6,7l-4,2l5,5L67,87z"/>
		</g>
		<path style="fill:#F4D0A1;" d="M54.98,70c-3.276-1.092-7.141-3.161-9.98-7.536v11.925c0,1.725,0.329,3.434,0.97,5.035L49,87h12
			l3.03-7.576c0.641-1.602,0.97-3.311,0.97-5.035V62.401C62.157,66.819,58.271,68.903,54.98,70z"/>
		<path style="fill:#F8E1C2;" d="M54.98,70c-3.276-1.092-7.141-3.161-9.98-7.536v11.925c0,1.725,0.329,3.434,0.97,5.035L49,87h6
			V69.993C54.993,69.995,54.986,69.998,54.98,70z"/>
		<path style="fill:#F8E1C2;" d="M65.98,40l-8,5l1-9l-11,10v-5c-6.359,6.063-7.922,8.148-9.921,8.792
			c0.271,2.747,1.326,5.653,4.099,6.133C44.6,65.027,50.377,68.465,54.98,70c4.604-1.535,10.38-4.973,12.822-14.075
			c1.98-0.342,3.082-1.925,3.651-3.801C67.988,50.368,65.98,46.542,65.98,40z"/>
		<path style="fill:#FCF1E2;" d="M47.98,46v-5c-6.359,6.063-7.922,8.148-9.921,8.792c0.271,2.747,1.326,5.653,4.099,6.133
			C44.6,65.027,50.377,68.465,54.98,70V39.636L47.98,46z"/>
		<g>
			<path style="fill:#F79392;" d="M49.98,59h10c0,0,0,3-5,3S49.98,59,49.98,59z"/>
		</g>
		<g>
			<g>
				<path style="fill:#3E3E3F;" d="M49.119,47.866c1.43,0,2.627,0.277,2.959,1.134c0.004-1-1.003-2.446-2.959-2.446
					c-1.953,0-3.053,1.446-2.959,2.446C46.491,48.144,47.689,47.866,49.119,47.866z"/>
			</g>
		</g>
		<g>
			<g>
				<path style="fill:#3E3E3F;" d="M61.041,47.866c1.43,0,2.627,0.277,2.959,1.134c0.004-1-1.003-2.446-2.959-2.446
					c-1.953,0-3.053,1.446-2.959,2.446C58.414,48.144,59.611,47.866,61.041,47.866z"/>
			</g>
		</g>
		<g>
			<circle style="fill:#FFFFFF;" cx="40.371" cy="58.371" r="1.629"/>
		</g>
		<g>
			<circle style="fill:#FFFFFF;" cx="69.629" cy="58.371" r="1.629"/>
		</g>
	</g>
</g>
</svg>
