<?xml version="1.0" encoding="iso-8859-1"?>
<!-- Generator: Adobe Illustrator 17.1.0, SVG Export Plug-In . SVG Version: 6.00 Build 0)  -->
<!DOCTYPE svg PUBLIC "-//W3C//DTD SVG 1.0//EN" "http://www.w3.org/TR/2001/REC-SVG-20010904/DTD/svg10.dtd">
<svg version="1.0" xmlns="http://www.w3.org/2000/svg" xmlns:xlink="http://www.w3.org/1999/xlink" x="0px" y="0px" width="110px"
	 height="110px" viewBox="0 0 110 110" style="enable-background:new 0 0 110 110;" xml:space="preserve">
<g id="Artboard">
</g>
<g id="Multicolor">
	<circle style="fill:#FABC3D;" cx="55" cy="55" r="55"/>
	<g>
		<g>
			<path style="fill:#3E3E3F;" d="M72.996,39.75c0,0.37,0.022,8.636-0.034,9c-0.135,1.429-0.956,2.722-2.216,3.454
				c-2.689,1.552-2.754,4.466-2.754,7.796s0.066,6.244,2.754,7.796c1.395,0.81,2.25,2.295,2.25,3.904v8.55
				c0,3.724-3.026,6.75-6.75,6.75h-22.5c-3.724,0-6.75-3.026-6.75-6.75V71.7c0-1.609,0.855-3.094,2.25-3.904
				c2.689-1.552,2.746-4.466,2.746-7.796s-0.057-6.244-2.746-7.796c-1.26-0.731-2.081-2.025-2.216-3.454
				c-0.056-0.364-0.034-8.63-0.034-9c0-3.724,3.026-6.75,6.75-6.75h22.5C69.969,33,72.996,36.026,72.996,39.75z"/>
		</g>
		<g>
			<path style="fill:#5B5C5F;" d="M55,33H43.746c-3.724,0-6.75,3.026-6.75,6.75c0,0.37-0.022,8.636,0.034,9
				c0.135,1.429,0.956,2.722,2.216,3.454c2.689,1.552,2.746,4.466,2.746,7.796s-0.057,6.244-2.746,7.796
				c-1.395,0.81-2.25,2.295-2.25,3.904v8.55c0,3.724,3.026,6.75,6.75,6.75H55V33z"/>
		</g>
		<g>
			<path style="fill:#DF2C2C;" d="M67.991,60c0,3.33,0.066,6.244,2.754,7.796c1.395,0.81,2.25,2.295,2.25,3.904v1.8h-36v-1.8
				c0-1.609,0.855-3.094,2.25-3.904c2.689-1.552,2.746-4.466,2.746-7.796s-0.057-6.244-2.746-7.796
				c-1.26-0.731-2.081-2.025-2.216-3.454c-0.055-0.359-0.034-1.845-0.034-2.25h36c0,0.405,0.021,1.891-0.034,2.25
				c-0.135,1.429-0.956,2.722-2.216,3.454C68.057,53.756,67.991,56.67,67.991,60z"/>
		</g>
		<g>
			<path style="fill:#FA5655;" d="M39.246,67.796c-1.395,0.81-2.25,2.295-2.25,3.904v1.8H55v-27H36.996
				c0,0.406-0.021,1.892,0.034,2.25c0.135,1.429,0.956,2.722,2.216,3.454c2.689,1.552,2.746,4.466,2.746,7.796
				S41.934,66.244,39.246,67.796z"/>
		</g>
		<g>
			<path style="fill:#FFFFFF;" d="M58.991,27c0-2.209-1.791-4-4-4s-4,1.791-4,4v3h8V27z"/>
		</g>
		<g>
			<path style="fill:#DF2C2C;" d="M48.991,32c0-1.105,0.895-2,2-2h8c1.105,0,2,0.895,2,2v1h-12V32z"/>
		</g>
	</g>
</g>
</svg>
