<?xml version="1.0" encoding="iso-8859-1"?>
<!-- Generator: Adobe Illustrator 17.1.0, SVG Export Plug-In . SVG Version: 6.00 Build 0)  -->
<!DOCTYPE svg PUBLIC "-//W3C//DTD SVG 1.0//EN" "http://www.w3.org/TR/2001/REC-SVG-20010904/DTD/svg10.dtd">
<svg version="1.0" xmlns="http://www.w3.org/2000/svg" xmlns:xlink="http://www.w3.org/1999/xlink" x="0px" y="0px" width="110px"
	 height="110px" viewBox="0 0 110 110" style="enable-background:new 0 0 110 110;" xml:space="preserve">
<g id="Artboard">
</g>
<g id="Multicolor">
	<circle style="fill:#25B7D3;" cx="55" cy="55" r="55"/>
	<g>
		<g>
			<path style="fill:#F0F1F1;" d="M75.818,87h-10c-13.598-13.598-4.168-30.354-1.66-40c0.41-1.5,0.66-2.84,0.66-4
				c0-0.62-0.34-2.11-0.69-4c-1.1-5.97-2.31-16,6.69-16s7.79,10.04,6.69,16c-0.35,1.89-0.69,3.38-0.69,4c0,1.16,0.25,2.5,0.66,4
				C79.969,56.577,89.429,73.389,75.818,87z"/>
		</g>
		<g>
			<path style="fill:#FFFFFF;" d="M70.818,23c-9,0-7.79,10.03-6.69,16c0.35,1.89,0.69,3.38,0.69,4c0,1.16-0.25,2.5-0.66,4
				c-0.008,0.032-0.021,0.068-0.029,0.1l14.116-14.116C78.425,27.965,77.147,23,70.818,23z"/>
		</g>
		<g>
			<circle style="fill:#3E3E3F;" cx="43" cy="67" r="20"/>
		</g>
		<g>
			<path style="fill:#5B5C5F;" d="M43,47c-11.046,0-20,8.954-20,20c0,5.882,2.555,11.154,6.597,14.814l28.217-28.217
				C54.154,49.555,48.882,47,43,47z"/>
		</g>
		<g>
			<path style="fill:#DF2C2C;" d="M77.508,39c-0.35,1.89-0.69,3.38-0.69,4h-12c0-0.62-0.34-2.11-0.69-4H77.508z"/>
		</g>
		<g>
			<path style="fill:#DF2C2C;" d="M78.718,51h-15.8c0.48-1.43,0.92-2.77,1.24-4h13.32C77.798,48.23,78.238,49.57,78.718,51z"/>
		</g>
		<g>
			<circle style="fill:#3E3E3F;" cx="43" cy="61" r="3"/>
		</g>
		<g>
			<circle style="fill:#3E3E3F;" cx="49" cy="54" r="3"/>
		</g>
		<g>
			<circle style="fill:#3E3E3F;" cx="38" cy="54" r="3"/>
		</g>
		<g>
			<path style="fill:#FA5655;" d="M64.128,39c0.35,1.89,0.69,3.38,0.69,4h3.411l4-4H64.128z"/>
		</g>
	</g>
</g>
</svg>
