<?xml version="1.0" encoding="iso-8859-1"?>
<!-- Generator: Adobe Illustrator 17.1.0, SVG Export Plug-In . SVG Version: 6.00 Build 0)  -->
<!DOCTYPE svg PUBLIC "-//W3C//DTD SVG 1.0//EN" "http://www.w3.org/TR/2001/REC-SVG-20010904/DTD/svg10.dtd">
<svg version="1.0" xmlns="http://www.w3.org/2000/svg" xmlns:xlink="http://www.w3.org/1999/xlink" x="0px" y="0px" width="110px"
	 height="110px" viewBox="0 0 110 110" style="enable-background:new 0 0 110 110;" xml:space="preserve">
<g id="Artboard">
</g>
<g id="Multicolor">
	<circle style="fill:#25B7D3;" cx="55" cy="55" r="55"/>
	<g>
		<polygon style="fill:#D4A263;" points="55,83 31,75 31,43 55,51 		"/>
		<polygon style="fill:#F4D0A1;" points="47,59 23,51 31,43 55,51 		"/>
		<polygon style="fill:#A97A45;" points="55,83 79,75 79,43 55,51 		"/>
		<polygon style="fill:#F4D0A1;" points="63,59 87,51 79,43 55,51 		"/>
		<polygon style="fill:#8E6134;" points="31,43 55,51 79,43 55,35 		"/>
		<polygon style="fill:#EDBC7C;" points="31,43 23,35 47,26 55,35 		"/>
		<polygon style="fill:#EDBC7C;" points="79,43 87,35 63,26 55,35 		"/>
		<polygon style="fill:#A97A45;" points="31,43 55,35 55,51 		"/>
	</g>
</g>
</svg>
