<?xml version="1.0" encoding="iso-8859-1"?>
<!-- Generator: Adobe Illustrator 17.1.0, SVG Export Plug-In . SVG Version: 6.00 Build 0)  -->
<!DOCTYPE svg PUBLIC "-//W3C//DTD SVG 1.0//EN" "http://www.w3.org/TR/2001/REC-SVG-20010904/DTD/svg10.dtd">
<svg version="1.0" xmlns="http://www.w3.org/2000/svg" xmlns:xlink="http://www.w3.org/1999/xlink" x="0px" y="0px" width="110px"
	 height="110px" viewBox="0 0 110 110" style="enable-background:new 0 0 110 110;" xml:space="preserve">
<g id="Artboard">
</g>
<g id="Multicolor">
	<circle style="fill:#32BEA6;" cx="55" cy="55" r="55"/>
	<g>
		<g>
			<path style="fill:#D4A263;" d="M74.814,61.4V39h-18h-26v25.093c17.498,11.04,20,10.907,20,10.907l11.872-4.566
				C70.212,63.761,67.259,65.933,74.814,61.4z"/>
		</g>
		<path style="fill:#EDBC7C;" d="M56.815,39h-26v25.093c0.627,0.396,1.23,0.773,1.82,1.141L58.869,39H56.815z"/>
		<rect x="79" y="55" style="fill:#0484AB;" width="8" height="28"/>
		<polygon style="fill:#F4D0A1;" points="30.814,39 35.814,27 68.814,27 74.814,39 		"/>
		<path style="fill:#FBC8C8;" d="M72.186,63l-18.392-3.707c-1.796-0.714-3.831,0.163-4.545,1.96
			c-0.714,1.796,0.164,3.831,1.96,4.545L61.186,71L51,75c0,0-2.719,0.155-22.428-12.448c-1.629-1.041-3.793-0.565-4.834,1.063
			c-1.041,1.628-0.565,3.793,1.063,4.834C25.802,69.09,47,87,53,87s26-8,26-8V59L72.186,63z"/>
		<polygon style="fill:#F4D0A1;" points="59,55 53,49 47,55 47,39 59,39 		"/>
		<polygon style="fill:#FCF1E2;" points="47,39 49,27 57,27 59,39 		"/>
		<path style="fill:#FBD7D7;" d="M73.44,62.263L72.186,63l-18.392-3.707c-1.796-0.714-3.831,0.163-4.545,1.959
			s0.163,3.832,1.96,4.545L61.186,71L51,75c0,0-2.719,0.155-22.428-12.448c-1.629-1.042-3.793-0.565-4.834,1.063
			c-1.041,1.628-0.565,3.792,1.063,4.834C25.662,69,41.448,82.31,49.672,86.032L73.44,62.263z"/>
		<polygon style="fill:#F8E1C2;" points="59,39.054 59,39 47,39 47,51.054 		"/>
		<path style="fill:#FFFFFF;" d="M53.14,60.376c-1.004-0.354-2.117,0.06-2.645,0.984c-0.317,0.554-0.378,1.219-0.166,1.821
			c0.211,0.602,0.673,1.084,1.267,1.319l0.532,0.211l1.748-4.075L53.14,60.376z"/>
	</g>
</g>
</svg>
