<?xml version="1.0" encoding="iso-8859-1"?>
<!-- Generator: Adobe Illustrator 17.1.0, SVG Export Plug-In . SVG Version: 6.00 Build 0)  -->
<!DOCTYPE svg PUBLIC "-//W3C//DTD SVG 1.0//EN" "http://www.w3.org/TR/2001/REC-SVG-20010904/DTD/svg10.dtd">
<svg version="1.0" xmlns="http://www.w3.org/2000/svg" xmlns:xlink="http://www.w3.org/1999/xlink" x="0px" y="0px" width="110px"
	 height="110px" viewBox="0 0 110 110" style="enable-background:new 0 0 110 110;" xml:space="preserve">
<g id="Artboard">
</g>
<g id="Multicolor">
	<circle style="fill:#E04F5F;" cx="55" cy="55" r="55"/>
	<g>
		<polygon style="fill:#EDBC7C;" points="57.89,72.32 86.738,57.917 73.104,30.663 44.275,45.083 		"/>
		<polygon style="fill:#A97A45;" points="75.109,49 73.732,53.617 75.231,52.807 78.47,58.8 81.467,57.18 78.227,51.187 
			79.726,50.377 		"/>
		<polygon style="fill:#A97A45;" points="68.377,52.59 67,57.207 68.498,56.397 71.738,62.39 74.735,60.77 71.495,54.777 
			72.993,53.967 		"/>
		<polygon style="fill:#F4D0A1;" points="57.794,72.128 73.104,30.663 44.275,45.083 		"/>
		<polygon style="fill:#FCF1E2;" points="64,43 61.268,42.268 60.536,45 57.804,44.268 57.072,47 53.072,40.072 60,36.072 		"/>
		<path style="fill:#3E3E3F;" d="M36.12,28.79l-3.66,1.62C30.87,27.35,30.4,27,29,27h-5c-0.552,0-1-0.448-1-1v-2
			c0-0.552,0.448-1,1-1h5C32.8,23,34.26,25.15,36.12,28.79z"/>
		<g>
			<path style="fill:#F0F1F1;" d="M81.89,64.79l-24,12C57.61,76.93,57.3,77,57,77c-0.73,0-1.44-0.4-1.79-1.11
				c0,0-22.53-45.04-22.75-45.48l3.66-1.62c0.22,0.42,21.77,43.53,21.77,43.53l22.22-11.11c0.98-0.49,2.19-0.09,2.68,0.9
				C83.28,63.09,82.88,64.29,81.89,64.79z"/>
		</g>
		<circle style="fill:#3E3E3F;" cx="57" cy="77" r="10"/>
		<circle style="fill:#CFD3D4;" cx="57" cy="77" r="3"/>
	</g>
</g>
</svg>
