<?xml version="1.0" encoding="iso-8859-1"?>
<!-- Generator: Adobe Illustrator 17.1.0, SVG Export Plug-In . SVG Version: 6.00 Build 0)  -->
<!DOCTYPE svg PUBLIC "-//W3C//DTD SVG 1.0//EN" "http://www.w3.org/TR/2001/REC-SVG-20010904/DTD/svg10.dtd">
<svg version="1.0" xmlns="http://www.w3.org/2000/svg" xmlns:xlink="http://www.w3.org/1999/xlink" x="0px" y="0px" width="110px"
	 height="110px" viewBox="0 0 110 110" style="enable-background:new 0 0 110 110;" xml:space="preserve">
<g id="Artboard">
</g>
<g id="Multicolor">
	<circle style="fill:#FABC3D;" cx="55" cy="55" r="55"/>
	<g>
		<g>
			<path style="fill:#F0F1F1;" d="M55,65c-14.36,0-26-3.36-26-7.5v22.219h0.02c0.098,0.989,0.847,1.925,2.15,2.781
				C35.18,85.15,44.34,87,55,87c10.66,0,19.82-1.85,23.83-4.5c1.304-0.857,2.052-1.793,2.15-2.781H81V57.5C81,61.64,69.36,65,55,65z
				"/>
		</g>
		<path style="fill:#E2E4E5;" d="M81,51.5v6c0,4.14-11.64,7.5-26,7.5s-26-3.36-26-7.5v-6c0,5.577,17.728,7.5,26,7.5
			C69.384,59,81,55.632,81,51.5z"/>
		<path style="fill:#DF2C2C;" d="M67,64.153V86.12c2.84-0.4,5.65-0.97,8-1.73V62.291C72.798,63.055,70.079,63.689,67,64.153z"/>
		<path style="fill:#FFFFFF;" d="M81,51.5c0,1.07-0.77,2.08-2.17,3C74.82,57.15,65.66,59,55,59c-10.66,0-19.865-1.803-23.875-4.453
			C29.725,53.627,29,52.57,29,51.5c0-5.907,19.053-7.5,26-7.5C69.338,44,81,47.347,81,51.5z"/>
		<path style="fill:#FFFFFF;" d="M29.06,51C29.02,51.17,29,51.33,29,51.5V51H29.06z"/>
		<path style="fill:#FFFFFF;" d="M81,51v0.5c0-0.17-0.02-0.33-0.06-0.5H81z"/>
		<path style="fill:#F0F1F1;" d="M53,35c-8.836,0-16-1.791-16-4v18c0,2.363,7.781,4,16,4c3.891,0,16-0.752,16-4V31
			C69,33.209,61.836,35,53,35z"/>
		<path style="fill:#F0F1F1;" d="M53,35c-8.836,0-16-1.791-16-4v18c0,2.363,7.781,4,16,4c3.891,0,16-0.752,16-4V31
			C69,33.209,61.836,35,53,35z"/>
		<ellipse style="fill:#0484AB;" cx="53" cy="31" rx="16" ry="4"/>
		<path style="fill:#FFFFFF;" d="M29,57.5v22.219h0.02c0.098,0.989,0.847,1.925,2.15,2.781C35.18,85.15,44.34,87,55,87V65
			C40.64,65,29,61.64,29,57.5z"/>
		<path style="fill:#F0F1F1;" d="M29,51.5v6c0,4.14,11.64,7.5,26,7.5v-6C46.728,59,29,57.077,29,51.5z"/>
		<path style="fill:#DF2C2C;" d="M55,65c-1.36,0-2.696-0.031-4-0.089V86.9c1.34,0.07,2.68,0.1,4,0.1c1.13,0,2.49-0.04,4-0.12V64.911
			C57.696,64.969,56.36,65,55,65z"/>
		<path style="fill:#DF2C2C;" d="M35,62.291V84.28c2.26,0.77,5.02,1.39,8,1.84V64.153C39.921,63.689,37.202,63.055,35,62.291z"/>
		<path style="fill:#059BBF;" d="M70.992,23.753c-0.201-0.515-0.78-0.769-1.295-0.569l-3.727,1.452
			c-0.515,0.201-0.769,0.78-0.569,1.295l9.803,25.157c0.201,0.515,0.78,0.769,1.295,0.569l3.727-1.452
			c0.515-0.201,0.769-0.78,0.569-1.295L70.992,23.753z"/>
		<path style="fill:#059BBF;" d="M61,52.438c1.405-0.19,2.789-0.438,4-0.756V33.64c-1.144,0.325-2.492,0.603-4,0.821V52.438z"/>
		<path style="fill:#059BBF;" d="M54,52.986c1.087-0.027,2.488-0.095,4-0.223V34.798c-1.27,0.104-2.611,0.168-4,0.189V52.986z"/>
		<path style="fill:#FFFFFF;" d="M37,31v18c0,2.363,7.781,4,16,4V35C44.164,35,37,33.209,37,31z"/>
		<path style="fill:#059BBF;" d="M47,52.704c1.279,0.13,2.625,0.216,4,0.26V34.965c-1.397-0.043-2.739-0.131-4-0.259V52.704z"/>
		<path style="fill:#21B2D1;" d="M40,51.337c1.105,0.38,2.468,0.703,4,0.962V34.307c-1.555-0.265-2.904-0.599-4-0.981V51.337z"/>
	</g>
</g>
</svg>
