<?xml version="1.0" encoding="iso-8859-1"?>
<!-- Generator: Adobe Illustrator 17.1.0, SVG Export Plug-In . SVG Version: 6.00 Build 0)  -->
<!DOCTYPE svg PUBLIC "-//W3C//DTD SVG 1.0//EN" "http://www.w3.org/TR/2001/REC-SVG-20010904/DTD/svg10.dtd">
<svg version="1.0" xmlns="http://www.w3.org/2000/svg" xmlns:xlink="http://www.w3.org/1999/xlink" x="0px" y="0px" width="110px"
	 height="110px" viewBox="0 0 110 110" style="enable-background:new 0 0 110 110;" xml:space="preserve">
<g id="Artboard">
</g>
<g id="Multicolor">
	<circle style="fill:#25B7D3;" cx="55" cy="55" r="55"/>
	<g>
		<g>
			<path style="fill:#BF0302;" d="M76.705,67.341c-0.859,2.499-1.31,5.162-1.31,7.804V85c0,1.105-0.895,2-2,2h-28
				c-1.105,0-2-0.895-2-2V67c-26-9-21-32-14-32c5.27,0,6.08,2.4,6.86,4.39c0.54,1.41,1.07,2.61,3.14,2.61V30.74
				c0-2.61,1.69-4.92,4.17-5.71c8.56-2.75,25.6-3.62,33.83,2.97C84.282,33.508,83.025,48.957,76.705,67.341z"/>
		</g>
		<g>
			<path style="fill:#DF2C2C;" d="M43.565,25.03c-2.48,0.79-4.17,3.1-4.17,5.71V42c-2.07,0-2.6-1.2-3.14-2.61
				c-0.78-1.99-1.59-4.39-6.86-4.39c-6.127,0-10.72,17.618,5.659,28.049l37.679-37.679C63.825,21.761,50.732,22.728,43.565,25.03z"
				/>
		</g>
		<g>
			<path style="fill:#DF2C2C;" d="M73.395,35c1.1,0,2,0.9,2,2v48c0,1.105-0.895,2-2,2h-26V69.69c0-4.03-1.87-8.07-5.39-10.02
				c-6.52-3.62-9.53-10.49-5.75-20.28c0.54,1.41,1.07,2.61,3.14,2.61v-2c0,19,32,17,31.94-3.14c-0.01-1.05,0.94-1.86,1.99-1.86
				H73.395z"/>
		</g>
		<g>
			<path style="fill:#F0F1F1;" d="M67.395,81c0,1.105-0.895,2-2,2h-22c-1.105,0-2-0.895-2-2V71c0-1.105,0.895-2,2-2h22
				c1.105,0,2,0.895,2,2V81z"/>
		</g>
		<g>
			<path style="fill:#FA5655;" d="M39.395,40v2c-2.07,0-2.6-1.2-3.14-2.61c-3.288,8.516-1.435,14.82,3.394,18.7l6.62-6.62
				C42.262,49.466,39.395,45.678,39.395,40z"/>
		</g>
	</g>
</g>
</svg>
