<?xml version="1.0" encoding="iso-8859-1"?>
<!-- Generator: Adobe Illustrator 17.1.0, SVG Export Plug-In . SVG Version: 6.00 Build 0)  -->
<!DOCTYPE svg PUBLIC "-//W3C//DTD SVG 1.0//EN" "http://www.w3.org/TR/2001/REC-SVG-20010904/DTD/svg10.dtd">
<svg version="1.0" xmlns="http://www.w3.org/2000/svg" xmlns:xlink="http://www.w3.org/1999/xlink" x="0px" y="0px" width="110px"
	 height="110px" viewBox="0 0 110 110" style="enable-background:new 0 0 110 110;" xml:space="preserve">
<g id="Artboard" style="display:none;">
	
		<rect x="-968.5" y="-674.5" style="display:inline;fill:#808080;stroke:#000000;stroke-miterlimit:10;" width="1392" height="1369"/>
</g>
<g id="R-Multicolor">
	<circle style="fill:#32BEA6;" cx="55" cy="55" r="55"/>
	<g>
		<g>
			<path style="fill:#8E6134;" d="M71.749,32.047l0.003-0.003c-5.388-1.245-15.012-2.824-20.3-0.18
				c-1.146,0.507-21.62,9.592-22.628,10.039c0.348-0.099,0.682-0.151,0.988-0.151c14.397,0,28.645,6.542,28.645,14.62
				c0,2.893-1.344,6.615-3.437,8.295v2.392c0.032,0.01,0.054,0.018,0.063,0.024l25.17-14.53c3.3-1.39,5.62-4.65,5.62-8.46
				C85.872,37.011,78.862,33.745,71.749,32.047z"/>
		</g>
		<g>
			<path style="fill:#A97A45;" d="M51.452,31.864c-1.146,0.507-21.62,9.592-22.628,10.039c0.348-0.099,0.682-0.151,0.988-0.151
				c9.693,0,19.31,2.967,24.566,7.37L71.51,31.99C66.081,30.754,56.665,29.258,51.452,31.864z"/>
		</g>
		<g>
			<polygon style="fill:#D4A263;" points="82.518,50.918 55.019,66.959 55.019,83 82.518,66.959 			"/>
		</g>
		<g>
			<path style="fill:#F8E1C2;" d="M58.456,56.372c0-8.078-14.247-14.621-28.645-14.621c-2.531,0-6.875,3.437-6.875,9.166
				c0,6.875,3.219,8.372,4.583,9.166v16.041L55.019,83V64.667C57.113,62.987,58.456,59.265,58.456,56.372z"/>
		</g>
		<g>
			<path style="fill:#D4A263;" d="M60.572,43.224c-0.03,0.18-0.11,0.36-0.24,0.51c-0.17,0.2-0.4,0.33-0.64,0.38c0,0,0,0-0.01,0
				c-0.07,0.01-0.15,0.02-0.23,0.02c-0.26,0-0.52-0.09-0.74-0.27c-3.84-3.26-10.71-5.36-19.37-5.91c-0.31-0.02-0.58-0.17-0.76-0.38
				l3.75-1.66c6.03,0.63,13.23,2.26,17.87,6.2C60.532,42.394,60.662,42.824,60.572,43.224z"/>
		</g>
		<g>
			<path style="fill:#A97A45;" d="M69.352,39.654c-0.418,0.473-1.119,0.54-1.62,0.13c-4.72-4.057-13.148-5.513-19.36-5.91
				c-0.29-0.02-0.53-0.14-0.71-0.32c-0.01,0-0.01,0-0.01-0.01l3.8-1.68c0.02-0.01,0.04-0.01,0.06-0.02
				c5.956,0.642,13.155,2.297,17.71,6.19C69.702,38.444,69.762,39.174,69.352,39.654z"/>
		</g>
		<g>
			<path style="fill:#D4A263;" d="M51.512,31.844c-0.02,0.01-0.04,0.01-0.06,0.02l-3.8,1.68c0,0.01,0,0.01,0.01,0.01
				c0.18,0.18,0.42,0.3,0.71,0.32c5.279,0.337,12.15,1.446,16.994,4.259l1.675-1.675C62.565,33.68,56.589,32.391,51.512,31.844z"/>
		</g>
		<g>
			<path style="fill:#FCF1E2;" d="M54.378,49.122c-5.255-4.403-14.873-7.37-24.566-7.37c-2.531,0-6.875,3.437-6.875,9.166
				c0,6.875,3.219,8.372,4.583,9.166v15.895L54.378,49.122z"/>
		</g>
	</g>
</g>
<g id="Multicolor" style="display:none;">
	<g style="display:inline;">
		<g>
			<path style="fill:#8E6134;" d="M71.749,32.047l0.003-0.003c-5.388-1.245-15.012-2.824-20.3-0.18
				c-1.146,0.507-21.62,9.592-22.628,10.039c0.348-0.099,0.682-0.151,0.988-0.151c14.397,0,28.645,6.542,28.645,14.62
				c0,2.893-1.344,6.615-3.437,8.295v2.392c0.032,0.01,0.054,0.018,0.063,0.024l25.17-14.53c3.3-1.39,5.62-4.65,5.62-8.46
				C85.872,37.011,78.862,33.745,71.749,32.047z"/>
		</g>
		<g>
			<path style="fill:#A97A45;" d="M51.452,31.864c-1.146,0.507-21.62,9.592-22.628,10.039c0.348-0.099,0.682-0.151,0.988-0.151
				c9.693,0,19.31,2.967,24.566,7.37L71.51,31.99C66.081,30.754,56.665,29.258,51.452,31.864z"/>
		</g>
		<g>
			<polygon style="fill:#D4A263;" points="82.518,50.918 55.019,66.959 55.019,83 82.518,66.959 			"/>
		</g>
		<g>
			<path style="fill:#F8E1C2;" d="M58.456,56.372c0-8.078-14.247-14.621-28.645-14.621c-2.531,0-6.875,3.437-6.875,9.166
				c0,6.875,3.219,8.372,4.583,9.166v16.041L55.019,83V64.667C57.113,62.987,58.456,59.265,58.456,56.372z"/>
		</g>
		<g>
			<path style="fill:#D4A263;" d="M60.572,43.224c-0.03,0.18-0.11,0.36-0.24,0.51c-0.17,0.2-0.4,0.33-0.64,0.38c0,0,0,0-0.01,0
				c-0.07,0.01-0.15,0.02-0.23,0.02c-0.26,0-0.52-0.09-0.74-0.27c-3.84-3.26-10.71-5.36-19.37-5.91c-0.31-0.02-0.58-0.17-0.76-0.38
				l3.75-1.66c6.03,0.63,13.23,2.26,17.87,6.2C60.532,42.394,60.662,42.824,60.572,43.224z"/>
		</g>
		<g>
			<path style="fill:#A97A45;" d="M69.352,39.654c-0.418,0.473-1.119,0.54-1.62,0.13c-4.72-4.057-13.148-5.513-19.36-5.91
				c-0.29-0.02-0.53-0.14-0.71-0.32c-0.01,0-0.01,0-0.01-0.01l3.8-1.68c0.02-0.01,0.04-0.01,0.06-0.02
				c5.956,0.642,13.155,2.297,17.71,6.19C69.702,38.444,69.762,39.174,69.352,39.654z"/>
		</g>
		<g>
			<path style="fill:#D4A263;" d="M51.512,31.844c-0.02,0.01-0.04,0.01-0.06,0.02l-3.8,1.68c0,0.01,0,0.01,0.01,0.01
				c0.18,0.18,0.42,0.3,0.71,0.32c5.279,0.337,12.15,1.446,16.994,4.259l1.675-1.675C62.565,33.68,56.589,32.391,51.512,31.844z"/>
		</g>
		<g>
			<path style="fill:#FCF1E2;" d="M54.378,49.122c-5.255-4.403-14.873-7.37-24.566-7.37c-2.531,0-6.875,3.437-6.875,9.166
				c0,6.875,3.219,8.372,4.583,9.166v15.895L54.378,49.122z"/>
		</g>
	</g>
</g>
<g id="Blue" style="display:none;">
	<g style="display:inline;">
		<g>
			<path style="fill:#0C333D;" d="M71.749,32.047l0.003-0.003c-5.389-1.246-15.012-2.824-20.3-0.18
				c-1.145,0.506-21.62,9.591-22.628,10.039c0.348-0.099,0.682-0.151,0.987-0.151c14.397,0,28.645,6.542,28.645,14.621
				c0,2.893-1.344,6.615-3.437,8.295v2.392c0.031,0.009,0.053,0.017,0.062,0.024l25.17-14.53c3.3-1.39,5.62-4.65,5.62-8.46
				C85.872,37.011,78.861,33.745,71.749,32.047z"/>
		</g>
		<g>
			<path style="fill:#0F6175;" d="M51.452,31.864c-1.146,0.506-21.62,9.591-22.628,10.039c0.348-0.099,0.682-0.151,0.987-0.151
				c9.692,0,19.311,2.967,24.565,7.37L71.51,31.99C66.081,30.753,56.665,29.258,51.452,31.864z"/>
		</g>
		<g>
			<polygon style="fill:#BBE7F2;" points="82.518,50.918 55.02,66.959 55.02,83 82.518,66.959 			"/>
		</g>
		<g>
			<path style="fill:#E1F5FA;" d="M58.457,56.373c0-8.079-14.248-14.621-28.646-14.621c-2.53,0-6.874,3.438-6.874,9.166
				c0,6.875,3.219,8.373,4.583,9.167v16.041L55.02,83V64.668C57.112,62.987,58.457,59.265,58.457,56.373z"/>
		</g>
		<g>
			<path style="fill:#33899E;" d="M60.572,43.224c-0.03,0.18-0.11,0.36-0.24,0.51c-0.17,0.2-0.4,0.33-0.641,0.38c0,0,0,0-0.01,0
				c-0.069,0.01-0.149,0.02-0.23,0.02c-0.261,0-0.52-0.09-0.74-0.27c-3.84-3.26-10.71-5.36-19.37-5.911
				c-0.31-0.02-0.58-0.17-0.76-0.38l3.75-1.66c6.03,0.63,13.23,2.26,17.87,6.2C60.532,42.394,60.662,42.824,60.572,43.224z"/>
		</g>
		<g>
			<path style="fill:#0F6175;" d="M69.352,39.654c-0.417,0.473-1.119,0.54-1.619,0.13c-4.721-4.057-13.148-5.513-19.36-5.91
				c-0.29-0.02-0.53-0.14-0.71-0.32c-0.01,0-0.01,0-0.01-0.01l3.8-1.68c0.021-0.01,0.04-0.01,0.06-0.021
				c5.956,0.643,13.155,2.297,17.711,6.19C69.702,38.444,69.762,39.174,69.352,39.654z"/>
		</g>
		<g>
			<path style="fill:#33899E;" d="M51.512,31.844c-0.02,0.01-0.039,0.01-0.06,0.021l-3.8,1.68c0,0.01,0,0.01,0.01,0.01
				c0.18,0.18,0.42,0.3,0.71,0.32c5.278,0.337,12.15,1.446,16.994,4.259l1.675-1.675C62.564,33.68,56.59,32.392,51.512,31.844z"/>
		</g>
		<g>
			<path style="fill:#FFFFFF;" d="M54.377,49.122c-5.255-4.403-14.873-7.37-24.565-7.37c-2.53,0-6.874,3.438-6.874,9.167
				c0,6.875,3.219,8.372,4.582,9.166v15.895L54.377,49.122z"/>
		</g>
	</g>
</g>
<g id="R-Blue" style="display:none;">
	<circle style="display:inline;fill:#81D2EB;" cx="55" cy="55" r="55"/>
	<g style="display:inline;">
		<g>
			<path style="fill:#0C333D;" d="M71.749,32.047l0.003-0.003c-5.389-1.246-15.012-2.824-20.3-0.18
				c-1.145,0.506-21.62,9.591-22.628,10.039c0.348-0.099,0.682-0.151,0.987-0.151c14.397,0,28.645,6.542,28.645,14.621
				c0,2.893-1.344,6.615-3.437,8.295v2.392c0.031,0.009,0.053,0.017,0.062,0.024l25.17-14.53c3.3-1.39,5.62-4.65,5.62-8.46
				C85.872,37.011,78.861,33.745,71.749,32.047z"/>
		</g>
		<g>
			<path style="fill:#0F6175;" d="M51.452,31.864c-1.146,0.506-21.62,9.591-22.628,10.039c0.348-0.099,0.682-0.151,0.987-0.151
				c9.692,0,19.311,2.967,24.565,7.37L71.51,31.99C66.081,30.753,56.665,29.258,51.452,31.864z"/>
		</g>
		<g>
			<polygon style="fill:#BBE7F2;" points="82.518,50.918 55.02,66.959 55.02,83 82.518,66.959 			"/>
		</g>
		<g>
			<path style="fill:#E1F5FA;" d="M58.457,56.373c0-8.079-14.248-14.621-28.646-14.621c-2.53,0-6.874,3.438-6.874,9.166
				c0,6.875,3.219,8.373,4.583,9.167v16.041L55.02,83V64.667C57.112,62.987,58.457,59.265,58.457,56.373z"/>
		</g>
		<g>
			<path style="fill:#33899E;" d="M60.572,43.224c-0.03,0.18-0.11,0.36-0.24,0.51c-0.17,0.2-0.4,0.33-0.641,0.38c0,0,0,0-0.01,0
				c-0.069,0.01-0.149,0.02-0.23,0.02c-0.261,0-0.52-0.09-0.74-0.27c-3.84-3.26-10.71-5.36-19.37-5.911
				c-0.31-0.02-0.58-0.17-0.76-0.38l3.75-1.66c6.03,0.63,13.23,2.26,17.87,6.2C60.532,42.394,60.662,42.824,60.572,43.224z"/>
		</g>
		<g>
			<path style="fill:#0F6175;" d="M69.352,39.654c-0.417,0.473-1.119,0.54-1.619,0.13c-4.721-4.057-13.148-5.513-19.36-5.91
				c-0.29-0.02-0.53-0.14-0.71-0.32c-0.01,0-0.01,0-0.01-0.01l3.8-1.68c0.021-0.01,0.04-0.01,0.06-0.021
				c5.956,0.643,13.155,2.297,17.711,6.19C69.702,38.444,69.762,39.174,69.352,39.654z"/>
		</g>
		<g>
			<path style="fill:#33899E;" d="M51.512,31.844c-0.02,0.01-0.039,0.01-0.06,0.021l-3.8,1.68c0,0.01,0,0.01,0.01,0.01
				c0.18,0.18,0.42,0.3,0.71,0.32c5.278,0.337,12.15,1.446,16.994,4.259l1.675-1.675C62.564,33.68,56.59,32.392,51.512,31.844z"/>
		</g>
		<g>
			<path style="fill:#FFFFFF;" d="M54.377,49.122c-5.255-4.403-14.873-7.37-24.565-7.37c-2.53,0-6.874,3.438-6.874,9.167
				c0,6.875,3.219,8.372,4.582,9.166v15.895L54.377,49.122z"/>
		</g>
	</g>
</g>
<g id="Green" style="display:none;">
	<g style="display:inline;">
		<g>
			<path style="fill:#0A3631;" d="M71.749,32.047l0.003-0.003c-5.389-1.246-15.012-2.824-20.3-0.18
				c-1.145,0.506-21.62,9.591-22.628,10.039c0.348-0.099,0.682-0.151,0.987-0.151c14.397,0,28.645,6.542,28.645,14.621
				c0,2.892-1.344,6.615-3.437,8.295v2.392c0.031,0.009,0.053,0.017,0.062,0.024l25.17-14.53c3.3-1.39,5.62-4.65,5.62-8.46
				C85.872,37.011,78.861,33.745,71.749,32.047z"/>
		</g>
		<g>
			<path style="fill:#14635B;" d="M51.452,31.864c-1.146,0.506-21.62,9.591-22.628,10.039c0.348-0.099,0.682-0.151,0.987-0.151
				c9.692,0,19.311,2.967,24.565,7.37L71.51,31.99C66.081,30.753,56.665,29.258,51.452,31.864z"/>
		</g>
		<g>
			<polygon style="fill:#AAF0E9;" points="82.518,50.918 55.019,66.959 55.019,83 82.518,66.959 			"/>
		</g>
		<g>
			<path style="fill:#D7FCF9;" d="M58.457,56.373c0-8.079-14.248-14.621-28.646-14.621c-2.53,0-6.874,3.438-6.874,9.166
				c0,6.875,3.219,8.373,4.583,9.167v16.041L55.019,83V64.668C57.112,62.987,58.457,59.265,58.457,56.373z"/>
		</g>
		<g>
			<path style="fill:#3E948B;" d="M60.572,43.224c-0.03,0.18-0.11,0.36-0.24,0.51c-0.17,0.2-0.4,0.33-0.641,0.38c0,0,0,0-0.01,0
				c-0.069,0.01-0.149,0.02-0.23,0.02c-0.261,0-0.52-0.09-0.74-0.27c-3.84-3.26-10.71-5.36-19.37-5.911
				c-0.31-0.02-0.58-0.17-0.76-0.38l3.75-1.66c6.03,0.63,13.23,2.26,17.87,6.2C60.532,42.394,60.662,42.824,60.572,43.224z"/>
		</g>
		<g>
			<path style="fill:#14635B;" d="M69.352,39.654c-0.417,0.473-1.119,0.54-1.619,0.13c-4.721-4.057-13.148-5.513-19.36-5.91
				c-0.29-0.02-0.53-0.14-0.71-0.32c-0.01,0-0.01,0-0.01-0.01l3.8-1.68c0.021-0.01,0.04-0.01,0.06-0.021
				c5.956,0.643,13.155,2.297,17.711,6.19C69.702,38.444,69.762,39.174,69.352,39.654z"/>
		</g>
		<g>
			<path style="fill:#3E948B;" d="M51.512,31.844c-0.02,0.01-0.039,0.01-0.06,0.021l-3.8,1.68c0,0.01,0,0.01,0.01,0.01
				c0.18,0.18,0.42,0.3,0.71,0.32c5.278,0.337,12.15,1.446,16.994,4.259l1.675-1.675C62.564,33.68,56.59,32.392,51.512,31.844z"/>
		</g>
		<g>
			<path style="fill:#FFFFFF;" d="M54.377,49.122c-5.255-4.403-14.873-7.37-24.565-7.37c-2.53,0-6.874,3.438-6.874,9.167
				c0,6.875,3.219,8.372,4.582,9.166v15.895L54.377,49.122z"/>
		</g>
	</g>
</g>
<g id="R-Green" style="display:none;">
	<circle style="display:inline;fill:#77E0C4;" cx="55" cy="55" r="55"/>
	<g style="display:inline;">
		<g>
			<path style="fill:#0A3631;" d="M71.749,32.047l0.003-0.003c-5.389-1.246-15.012-2.824-20.3-0.18
				c-1.146,0.506-21.62,9.591-22.628,10.039c0.348-0.099,0.682-0.151,0.987-0.151c14.397,0,28.645,6.542,28.645,14.621
				c0,2.893-1.344,6.615-3.437,8.295v2.392c0.031,0.009,0.053,0.017,0.062,0.024l25.17-14.53c3.3-1.39,5.62-4.65,5.62-8.46
				C85.872,37.011,78.861,33.745,71.749,32.047z"/>
		</g>
		<g>
			<path style="fill:#14635B;" d="M51.452,31.864c-1.146,0.506-21.62,9.591-22.628,10.039c0.348-0.099,0.682-0.151,0.987-0.151
				c9.692,0,19.311,2.967,24.565,7.37L71.51,31.99C66.081,30.753,56.665,29.258,51.452,31.864z"/>
		</g>
		<g>
			<polygon style="fill:#AAF0E9;" points="82.518,50.918 55.02,66.959 55.02,83 82.518,66.959 			"/>
		</g>
		<g>
			<path style="fill:#D7FCF9;" d="M58.457,56.373c0-8.079-14.248-14.621-28.646-14.621c-2.53,0-6.874,3.438-6.874,9.166
				c0,6.875,3.219,8.373,4.583,9.167v16.041L55.02,83V64.668C57.112,62.987,58.457,59.265,58.457,56.373z"/>
		</g>
		<g>
			<path style="fill:#3E948B;" d="M60.572,43.224c-0.03,0.18-0.11,0.36-0.24,0.51c-0.17,0.2-0.4,0.33-0.641,0.38c0,0,0,0-0.01,0
				c-0.069,0.01-0.149,0.02-0.229,0.02c-0.261,0-0.521-0.09-0.74-0.27c-3.84-3.26-10.71-5.36-19.37-5.911
				c-0.31-0.02-0.58-0.17-0.76-0.38l3.75-1.66c6.03,0.63,13.23,2.26,17.87,6.2C60.532,42.394,60.662,42.824,60.572,43.224z"/>
		</g>
		<g>
			<path style="fill:#14635B;" d="M69.352,39.654c-0.417,0.473-1.119,0.54-1.619,0.13c-4.721-4.057-13.148-5.513-19.36-5.91
				c-0.29-0.02-0.53-0.14-0.71-0.32c-0.01,0-0.01,0-0.01-0.01l3.8-1.68c0.021-0.01,0.04-0.01,0.06-0.021
				c5.956,0.643,13.155,2.297,17.711,6.19C69.702,38.444,69.762,39.174,69.352,39.654z"/>
		</g>
		<g>
			<path style="fill:#3E948B;" d="M51.512,31.844c-0.02,0.01-0.039,0.01-0.06,0.021l-3.8,1.68c0,0.01,0,0.01,0.01,0.01
				c0.18,0.18,0.42,0.3,0.71,0.32c5.278,0.337,12.15,1.446,16.994,4.259l1.675-1.675C62.564,33.68,56.59,32.392,51.512,31.844z"/>
		</g>
		<g>
			<path style="fill:#FFFFFF;" d="M54.377,49.122c-5.255-4.403-14.873-7.37-24.565-7.37c-2.53,0-6.874,3.438-6.874,9.167
				c0,6.875,3.219,8.372,4.582,9.166v15.895L54.377,49.122z"/>
		</g>
	</g>
</g>
<g id="Red" style="display:none;">
	<g style="display:inline;">
		<g>
			<path style="fill:#4A1410;" d="M71.749,32.047l0.003-0.003c-5.389-1.246-15.012-2.824-20.3-0.18
				c-1.146,0.506-21.62,9.591-22.628,10.039c0.348-0.099,0.682-0.151,0.987-0.151c14.398,0,28.645,6.542,28.645,14.621
				c0,2.892-1.344,6.615-3.437,8.295v2.392c0.031,0.009,0.053,0.017,0.063,0.024l25.17-14.53c3.3-1.39,5.62-4.65,5.62-8.46
				C85.872,37.011,78.861,33.745,71.749,32.047z"/>
		</g>
		<g>
			<path style="fill:#7D261E;" d="M51.452,31.864c-1.146,0.506-21.62,9.591-22.628,10.039c0.348-0.099,0.682-0.151,0.987-0.151
				c9.692,0,19.311,2.967,24.566,7.37L71.51,31.99C66.081,30.753,56.665,29.258,51.452,31.864z"/>
		</g>
		<g>
			<polygon style="fill:#FFD7D4;" points="82.518,50.918 55.019,66.959 55.019,83 82.518,66.959 			"/>
		</g>
		<g>
			<path style="fill:#FFEFED;" d="M58.457,56.373c0-8.079-14.248-14.621-28.646-14.621c-2.53,0-6.874,3.438-6.874,9.166
				c0,6.875,3.219,8.373,4.583,9.167v16.041L55.019,83V64.668C57.112,62.987,58.457,59.265,58.457,56.373z"/>
		</g>
		<g>
			<path style="fill:#B84E44;" d="M60.572,43.224c-0.03,0.18-0.11,0.36-0.24,0.51c-0.17,0.2-0.4,0.33-0.641,0.38c0,0,0,0-0.01,0
				c-0.069,0.01-0.149,0.02-0.229,0.02c-0.261,0-0.521-0.09-0.74-0.27c-3.84-3.26-10.71-5.36-19.37-5.911
				c-0.31-0.02-0.58-0.17-0.76-0.38l3.75-1.66c6.03,0.63,13.23,2.26,17.87,6.2C60.532,42.394,60.662,42.824,60.572,43.224z"/>
		</g>
		<g>
			<path style="fill:#7D261E;" d="M69.352,39.654c-0.417,0.473-1.119,0.54-1.619,0.13c-4.721-4.057-13.148-5.513-19.36-5.91
				c-0.29-0.02-0.53-0.14-0.71-0.32c-0.01,0-0.01,0-0.01-0.01l3.8-1.68c0.021-0.01,0.04-0.01,0.06-0.021
				c5.956,0.643,13.155,2.297,17.711,6.19C69.702,38.444,69.762,39.174,69.352,39.654z"/>
		</g>
		<g>
			<path style="fill:#B84E44;" d="M51.512,31.844c-0.02,0.01-0.039,0.01-0.06,0.021l-3.8,1.68c0,0.01,0,0.01,0.01,0.01
				c0.18,0.18,0.42,0.3,0.71,0.32c5.278,0.337,12.15,1.446,16.994,4.259l1.675-1.675C62.564,33.68,56.59,32.392,51.512,31.844z"/>
		</g>
		<g>
			<path style="fill:#FFFFFF;" d="M54.377,49.122c-5.255-4.403-14.873-7.37-24.566-7.37c-2.53,0-6.874,3.438-6.874,9.167
				c0,6.875,3.219,8.372,4.582,9.166v15.895L54.377,49.122z"/>
		</g>
	</g>
</g>
<g id="R-Red" style="display:none;">
	<circle style="display:inline;fill:#FABBAF;" cx="55" cy="55" r="55"/>
	<g style="display:inline;">
		<g>
			<path style="fill:#4A1410;" d="M71.749,32.047l0.003-0.003c-5.389-1.246-15.012-2.824-20.3-0.18
				c-1.146,0.506-21.62,9.591-22.628,10.039c0.348-0.099,0.682-0.151,0.987-0.151c14.398,0,28.645,6.542,28.645,14.621
				c0,2.892-1.344,6.615-3.437,8.295v2.392c0.031,0.009,0.053,0.017,0.063,0.024l25.17-14.53c3.3-1.39,5.62-4.65,5.62-8.46
				C85.872,37.011,78.861,33.745,71.749,32.047z"/>
		</g>
		<g>
			<path style="fill:#7D261E;" d="M51.452,31.864c-1.146,0.506-21.62,9.591-22.628,10.039c0.348-0.099,0.682-0.151,0.987-0.151
				c9.692,0,19.311,2.967,24.566,7.37L71.51,31.99C66.081,30.753,56.665,29.258,51.452,31.864z"/>
		</g>
		<g>
			<polygon style="fill:#FFD7D4;" points="82.518,50.918 55.019,66.959 55.019,83 82.518,66.959 			"/>
		</g>
		<g>
			<path style="fill:#FFEFED;" d="M58.457,56.373c0-8.079-14.248-14.621-28.646-14.621c-2.53,0-6.874,3.438-6.874,9.166
				c0,6.875,3.219,8.373,4.583,9.167v16.041L55.019,83V64.668C57.112,62.987,58.457,59.265,58.457,56.373z"/>
		</g>
		<g>
			<path style="fill:#B84E44;" d="M60.572,43.224c-0.03,0.18-0.11,0.36-0.24,0.51c-0.17,0.2-0.4,0.33-0.641,0.38c0,0,0,0-0.01,0
				c-0.069,0.01-0.149,0.02-0.229,0.02c-0.261,0-0.521-0.09-0.74-0.27c-3.84-3.26-10.71-5.36-19.37-5.911
				c-0.31-0.02-0.58-0.17-0.76-0.38l3.75-1.66c6.03,0.63,13.23,2.26,17.87,6.2C60.532,42.394,60.662,42.824,60.572,43.224z"/>
		</g>
		<g>
			<path style="fill:#7D261E;" d="M69.352,39.654c-0.417,0.473-1.119,0.54-1.619,0.13c-4.721-4.057-13.148-5.513-19.36-5.91
				c-0.29-0.02-0.53-0.14-0.71-0.32c-0.01,0-0.01,0-0.01-0.01l3.8-1.68c0.021-0.01,0.04-0.01,0.06-0.021
				c5.956,0.643,13.155,2.297,17.711,6.19C69.702,38.444,69.762,39.174,69.352,39.654z"/>
		</g>
		<g>
			<path style="fill:#B84E44;" d="M51.512,31.844c-0.02,0.01-0.039,0.01-0.06,0.021l-3.8,1.68c0,0.01,0,0.01,0.01,0.01
				c0.18,0.18,0.42,0.3,0.71,0.32c5.278,0.337,12.15,1.446,16.994,4.259l1.675-1.675C62.564,33.68,56.59,32.392,51.512,31.844z"/>
		</g>
		<g>
			<path style="fill:#FFFFFF;" d="M54.377,49.122c-5.255-4.403-14.873-7.37-24.566-7.37c-2.53,0-6.874,3.438-6.874,9.167
				c0,6.875,3.219,8.372,4.582,9.166v15.895L54.377,49.122z"/>
		</g>
	</g>
</g>
<g id="Yellow" style="display:none;">
	<g style="display:inline;">
		<g>
			<path style="fill:#3D320C;" d="M71.749,32.047l0.003-0.003c-5.389-1.246-15.012-2.824-20.3-0.18
				c-1.146,0.506-21.62,9.591-22.628,10.039c0.348-0.099,0.682-0.151,0.987-0.151c14.397,0,28.645,6.542,28.645,14.621
				c0,2.893-1.344,6.615-3.437,8.295v2.392c0.031,0.009,0.053,0.017,0.062,0.024l25.17-14.53c3.3-1.39,5.62-4.65,5.62-8.46
				C85.872,37.011,78.861,33.745,71.749,32.047z"/>
		</g>
		<g>
			<path style="fill:#66510D;" d="M51.452,31.864c-1.146,0.506-21.62,9.591-22.628,10.039c0.348-0.099,0.682-0.151,0.987-0.151
				c9.692,0,19.311,2.967,24.565,7.37L71.51,31.99C66.081,30.753,56.665,29.258,51.452,31.864z"/>
		</g>
		<g>
			<polygon style="fill:#FFE9A1;" points="82.518,50.918 55.02,66.959 55.02,83 82.518,66.959 			"/>
		</g>
		<g>
			<path style="fill:#FFF5D9;" d="M58.457,56.373c0-8.079-14.248-14.621-28.646-14.621c-2.53,0-6.874,3.438-6.874,9.166
				c0,6.875,3.219,8.373,4.583,9.167v16.041L55.02,83V64.668C57.112,62.987,58.457,59.265,58.457,56.373z"/>
		</g>
		<g>
			<path style="fill:#947615;" d="M60.572,43.224c-0.03,0.18-0.11,0.36-0.24,0.51c-0.17,0.2-0.4,0.33-0.641,0.38c0,0,0,0-0.01,0
				c-0.069,0.01-0.149,0.02-0.229,0.02c-0.261,0-0.521-0.09-0.74-0.27c-3.84-3.26-10.71-5.36-19.37-5.911
				c-0.31-0.02-0.58-0.17-0.76-0.38l3.75-1.66c6.03,0.63,13.23,2.26,17.87,6.2C60.532,42.394,60.662,42.824,60.572,43.224z"/>
		</g>
		<g>
			<path style="fill:#66510D;" d="M69.352,39.654c-0.417,0.473-1.119,0.54-1.619,0.13c-4.721-4.057-13.148-5.513-19.36-5.91
				c-0.29-0.02-0.53-0.14-0.71-0.32c-0.01,0-0.01,0-0.01-0.01l3.8-1.68c0.021-0.01,0.04-0.01,0.06-0.021
				c5.956,0.643,13.155,2.297,17.711,6.19C69.702,38.444,69.762,39.174,69.352,39.654z"/>
		</g>
		<g>
			<path style="fill:#947615;" d="M51.512,31.844c-0.02,0.01-0.039,0.01-0.06,0.021l-3.8,1.68c0,0.01,0,0.01,0.01,0.01
				c0.18,0.18,0.42,0.3,0.71,0.32c5.278,0.337,12.15,1.446,16.994,4.259l1.675-1.675C62.564,33.68,56.59,32.392,51.512,31.844z"/>
		</g>
		<g>
			<path style="fill:#FFFFFF;" d="M54.377,49.122c-5.255-4.403-14.873-7.37-24.565-7.37c-2.53,0-6.874,3.438-6.874,9.167
				c0,6.875,3.219,8.372,4.582,9.166v15.895L54.377,49.122z"/>
		</g>
	</g>
</g>
<g id="R-Yellow" style="display:none;">
	<circle style="display:inline;fill:#FFD75E;" cx="55" cy="55" r="55"/>
	<g style="display:inline;">
		<g>
			<path style="fill:#3D320C;" d="M71.749,32.047l0.003-0.003c-5.389-1.246-15.012-2.824-20.3-0.18
				c-1.145,0.506-21.62,9.591-22.628,10.039c0.348-0.099,0.682-0.151,0.987-0.151c14.397,0,28.645,6.542,28.645,14.621
				c0,2.893-1.344,6.615-3.437,8.295v2.392c0.031,0.009,0.053,0.017,0.062,0.024l25.17-14.53c3.3-1.39,5.62-4.65,5.62-8.46
				C85.872,37.011,78.861,33.745,71.749,32.047z"/>
		</g>
		<g>
			<path style="fill:#66510D;" d="M51.452,31.864c-1.146,0.506-21.62,9.591-22.628,10.039c0.348-0.099,0.682-0.151,0.987-0.151
				c9.692,0,19.311,2.967,24.565,7.37L71.51,31.99C66.081,30.753,56.665,29.258,51.452,31.864z"/>
		</g>
		<g>
			<polygon style="fill:#FFE9A1;" points="82.518,50.918 55.019,66.959 55.019,83 82.518,66.959 			"/>
		</g>
		<g>
			<path style="fill:#FFF5D9;" d="M58.457,56.373c0-8.079-14.248-14.621-28.646-14.621c-2.53,0-6.874,3.438-6.874,9.166
				c0,6.875,3.219,8.373,4.583,9.167v16.041L55.019,83V64.668C57.112,62.987,58.457,59.265,58.457,56.373z"/>
		</g>
		<g>
			<path style="fill:#947615;" d="M60.572,43.224c-0.03,0.18-0.11,0.36-0.24,0.51c-0.17,0.2-0.4,0.33-0.641,0.38c0,0,0,0-0.01,0
				c-0.069,0.01-0.149,0.02-0.23,0.02c-0.261,0-0.52-0.09-0.74-0.27c-3.84-3.26-10.71-5.36-19.37-5.911
				c-0.31-0.02-0.58-0.17-0.76-0.38l3.75-1.66c6.03,0.63,13.23,2.26,17.87,6.2C60.532,42.394,60.662,42.824,60.572,43.224z"/>
		</g>
		<g>
			<path style="fill:#66510D;" d="M69.352,39.654c-0.417,0.473-1.119,0.54-1.619,0.13c-4.721-4.057-13.148-5.513-19.36-5.91
				c-0.29-0.02-0.53-0.14-0.71-0.32c-0.01,0-0.01,0-0.01-0.01l3.8-1.68c0.021-0.01,0.04-0.01,0.06-0.021
				c5.956,0.643,13.155,2.297,17.711,6.19C69.702,38.444,69.762,39.174,69.352,39.654z"/>
		</g>
		<g>
			<path style="fill:#947615;" d="M51.512,31.844c-0.02,0.01-0.039,0.01-0.06,0.021l-3.8,1.68c0,0.01,0,0.01,0.01,0.01
				c0.18,0.18,0.42,0.3,0.71,0.32c5.278,0.337,12.15,1.446,16.994,4.259l1.675-1.675C62.564,33.68,56.59,32.392,51.512,31.844z"/>
		</g>
		<g>
			<path style="fill:#FFFFFF;" d="M54.377,49.122c-5.255-4.403-14.873-7.37-24.565-7.37c-2.53,0-6.874,3.438-6.874,9.167
				c0,6.875,3.219,8.372,4.582,9.166v15.895L54.377,49.122z"/>
		</g>
	</g>
</g>
</svg>
