<?xml version="1.0" encoding="iso-8859-1"?>
<!-- Generator: Adobe Illustrator 17.1.0, SVG Export Plug-In . SVG Version: 6.00 Build 0)  -->
<!DOCTYPE svg PUBLIC "-//W3C//DTD SVG 1.0//EN" "http://www.w3.org/TR/2001/REC-SVG-20010904/DTD/svg10.dtd">
<svg version="1.0" xmlns="http://www.w3.org/2000/svg" xmlns:xlink="http://www.w3.org/1999/xlink" x="0px" y="0px" width="110px"
	 height="110px" viewBox="0 0 110 110" style="enable-background:new 0 0 110 110;" xml:space="preserve">
<g id="Artboard" style="display:none;">
	
		<rect x="-328.5" y="-418.5" style="display:inline;fill:#808080;stroke:#000000;stroke-miterlimit:10;" width="1392" height="1369"/>
</g>
<g id="R-Multicolor">
	<circle style="fill:#E04F5F;" cx="55" cy="55" r="55"/>
	<g>
		<path style="fill:#F8E1C2;" d="M71.799,41.387C73.833,39.861,75,37.533,75,35c0-4.411-3.589-8-8-8H35c-4.411,0-8,3.589-8,8
			c0,2.533,1.167,4.861,3.201,6.387C33.206,43.641,35,47.232,35,50.992V79h32V50.992C67,47.232,68.794,43.642,71.799,41.387z"/>
		<path style="fill:#EDBC7C;" d="M67,27c4.411,0,8,3.589,8,8c0,2.533-1.167,4.861-3.201,6.387C68.794,43.642,67,47.232,67,50.992V79
			H35V50.992c0-3.76-1.794-7.351-4.799-9.605C28.167,39.861,27,37.533,27,35c0-4.411,3.589-8,8-8H67 M67,23H35
			c-6.627,0-12,5.373-12,12c0,3.924,1.887,7.401,4.8,9.587c2.016,1.512,3.2,3.886,3.2,6.405V79c0,2.209,1.791,4,4,4h32
			c2.209,0,4-1.791,4-4V50.992c0-2.516,1.187-4.896,3.2-6.405C77.113,42.401,79,38.924,79,35C79,28.373,73.627,23,67,23L67,23z"/>
		<path style="fill:#FCF1E2;" d="M69.833,27.528C68.95,27.192,67.999,27,67,27H35c-4.411,0-8,3.589-8,8
			c0,2.533,1.167,4.861,3.201,6.387C33.206,43.641,35,47.232,35,50.992V62.36L69.833,27.528z"/>
		<g>
			<path style="fill:#F4D0A1;" d="M35,23c-6.627,0-12,5.373-12,12c0,3.924,1.887,7.401,4.8,9.587c2.016,1.512,3.2,3.886,3.2,6.405
				V66.36l4-4V50.992c0-3.76-1.794-7.351-4.799-9.605C28.167,39.861,27,37.533,27,35c0-4.411,3.589-8,8-8h32
				c0.999,0,1.951,0.192,2.833,0.528l3.006-3.007C71.11,23.555,69.121,23,67,23H35z"/>
		</g>
		<g>
			<path style="fill:#FACB1B;" d="M42.671,50.144c3.128-7.047-7.819-7.047-3.909-12.919c4.704-7.066,21.779-1.061,20.329,4.111
				C55.963,52.493,63,53.668,63,60.128C63,64.238,55.181,66,51.272,66S35.945,65.299,42.671,50.144z"/>
		</g>
		<g>
			<path style="fill:#FBE158;" d="M38.762,37.225c-3.91,5.873,7.037,5.873,3.909,12.919c-1.14,2.567-1.749,4.711-1.971,6.516
				l17.799-17.798C55.42,34.585,42.718,31.282,38.762,37.225z"/>
		</g>
		<g>
			<path style="fill:#FFFFFF;" d="M59.064,29.303c-5.452-10.495-15.026,18.551,5.405,27.116c1.289,0.54,2.516,1.209,3.125,2.467
				l12.658,26.166c0.849,1.755,2.977,2.452,4.696,1.559c1.691-0.878,2.349-2.961,1.471-4.652L71.875,53.962L59.064,29.303z"/>
		</g>
	</g>
</g>
<g id="Multicolor" style="display:none;">
	<g style="display:inline;">
		<path style="fill:#F8E1C2;" d="M71.799,41.387C73.833,39.861,75,37.533,75,35c0-4.411-3.589-8-8-8H35c-4.411,0-8,3.589-8,8
			c0,2.533,1.167,4.861,3.201,6.387C33.206,43.641,35,47.232,35,50.992V79h32V50.992C67,47.232,68.794,43.642,71.799,41.387z"/>
		<path style="fill:#EDBC7C;" d="M67,27c4.411,0,8,3.589,8,8c0,2.533-1.167,4.861-3.201,6.387C68.794,43.642,67,47.232,67,50.992V79
			H35V50.992c0-3.76-1.794-7.351-4.799-9.605C28.167,39.861,27,37.533,27,35c0-4.411,3.589-8,8-8H67 M67,23H35
			c-6.627,0-12,5.373-12,12c0,3.924,1.887,7.401,4.8,9.587c2.016,1.512,3.2,3.886,3.2,6.405V79c0,2.209,1.791,4,4,4h32
			c2.209,0,4-1.791,4-4V50.992c0-2.516,1.187-4.896,3.2-6.405C77.113,42.401,79,38.924,79,35C79,28.373,73.627,23,67,23L67,23z"/>
		<path style="fill:#FCF1E2;" d="M69.833,27.528C68.95,27.192,67.999,27,67,27H35c-4.411,0-8,3.589-8,8
			c0,2.533,1.167,4.861,3.201,6.387C33.206,43.641,35,47.232,35,50.992V62.36L69.833,27.528z"/>
		<g>
			<path style="fill:#F4D0A1;" d="M35,23c-6.627,0-12,5.373-12,12c0,3.924,1.887,7.401,4.8,9.587c2.016,1.512,3.2,3.886,3.2,6.405
				V66.36l4-4V50.992c0-3.76-1.794-7.351-4.799-9.605C28.167,39.861,27,37.533,27,35c0-4.411,3.589-8,8-8h32
				c0.999,0,1.951,0.192,2.833,0.528l3.006-3.007C71.11,23.555,69.121,23,67,23H35z"/>
		</g>
		<g>
			<path style="fill:#FACB1B;" d="M42.671,50.144c3.128-7.047-7.819-7.047-3.909-12.919c4.704-7.066,21.779-1.061,20.329,4.111
				C55.963,52.493,63,53.668,63,60.128C63,64.238,55.181,66,51.272,66S35.945,65.299,42.671,50.144z"/>
		</g>
		<g>
			<path style="fill:#FBE158;" d="M38.762,37.225c-3.91,5.873,7.037,5.873,3.909,12.919c-1.14,2.567-1.749,4.711-1.971,6.516
				l17.799-17.798C55.42,34.585,42.718,31.282,38.762,37.225z"/>
		</g>
		<g>
			<path style="fill:#FFFFFF;" d="M59.064,29.303c-5.452-10.495-15.026,18.551,5.405,27.116c1.289,0.54,2.516,1.209,3.125,2.467
				l12.658,26.166c0.849,1.755,2.977,2.452,4.696,1.559c1.691-0.878,2.349-2.961,1.471-4.652L71.875,53.962L59.064,29.303z"/>
		</g>
	</g>
</g>
<g id="Blue" style="display:none;">
	<g style="display:inline;">
		<path style="fill:#BBE7F2;" d="M71.799,41.387C73.834,39.861,75,37.533,75,35c0-4.411-3.589-8-8-8H35c-4.411,0-8,3.589-8,8
			c0,2.533,1.166,4.861,3.201,6.387C33.205,43.641,35,47.232,35,50.992V79h32V50.992C67,47.232,68.794,43.642,71.799,41.387z"/>
		<path style="fill:#0081A1;" d="M67,27c4.411,0,8,3.589,8,8c0,2.533-1.166,4.861-3.201,6.387C68.794,43.642,67,47.232,67,50.992V79
			H35V50.992c0-3.76-1.795-7.351-4.799-9.605C28.166,39.861,27,37.533,27,35c0-4.411,3.589-8,8-8H67 M67,23H35
			c-6.627,0-12,5.373-12,12c0,3.924,1.887,7.401,4.801,9.587C29.816,46.099,31,48.473,31,50.992V79c0,2.209,1.791,4,4,4h32
			c2.209,0,4-1.791,4-4V50.992c0-2.516,1.188-4.896,3.199-6.405C77.113,42.401,79,38.924,79,35C79,28.373,73.627,23,67,23L67,23z"/>
		<path style="fill:#E1F5FA;" d="M69.832,27.528C68.95,27.192,67.998,27,67,27H35c-4.411,0-8,3.589-8,8
			c0,2.533,1.166,4.861,3.201,6.387C33.205,43.641,35,47.232,35,50.992V62.36L69.832,27.528z"/>
		<g>
			<path style="fill:#009FC7;" d="M35,23c-6.627,0-12,5.373-12,12c0,3.924,1.887,7.401,4.801,9.587
				C29.816,46.099,31,48.473,31,50.992V66.36l4-4V50.992c0-3.76-1.795-7.351-4.799-9.605C28.166,39.861,27,37.533,27,35
				c0-4.411,3.589-8,8-8h32c0.998,0,1.951,0.192,2.833,0.528l3.007-3.007C71.11,23.555,69.121,23,67,23H35z"/>
		</g>
		<g>
			<path style="fill:#009FC7;" d="M42.671,50.145c3.128-7.047-7.819-7.047-3.909-12.919c4.704-7.066,21.779-1.062,20.329,4.111
				C55.963,52.494,63,53.668,63,60.128C63,64.238,55.182,66,51.271,66C47.362,66,35.945,65.299,42.671,50.145z"/>
		</g>
		<g>
			<path style="fill:#00B7E5;" d="M38.762,37.225c-3.91,5.873,7.037,5.873,3.909,12.919c-1.14,2.567-1.749,4.711-1.972,6.516
				l17.799-17.798C55.42,34.585,42.718,31.282,38.762,37.225z"/>
		</g>
		<g>
			<path style="fill:#FFFFFF;" d="M59.064,29.303c-5.452-10.495-15.025,18.551,5.404,27.116c1.289,0.541,2.518,1.209,3.125,2.468
				l12.658,26.166c0.849,1.755,2.977,2.453,4.695,1.559c1.691-0.878,2.35-2.961,1.472-4.652L71.875,53.962L59.064,29.303z"/>
		</g>
	</g>
</g>
<g id="R-Blue" style="display:none;">
	<circle style="display:inline;fill:#81D2EB;" cx="55" cy="55" r="55"/>
	<g style="display:inline;">
		<path style="fill:#BBE7F2;" d="M71.799,41.387C73.834,39.861,75,37.533,75,35c0-4.411-3.589-8-8-8H35c-4.411,0-8,3.589-8,8
			c0,2.533,1.166,4.861,3.201,6.387C33.205,43.641,35,47.232,35,50.992V79h32V50.992C67,47.232,68.794,43.642,71.799,41.387z"/>
		<path style="fill:#0081A1;" d="M67,27c4.411,0,8,3.589,8,8c0,2.533-1.166,4.861-3.201,6.387C68.794,43.642,67,47.232,67,50.992V79
			H35V50.992c0-3.76-1.795-7.351-4.799-9.605C28.166,39.861,27,37.533,27,35c0-4.411,3.589-8,8-8H67 M67,23H35
			c-6.627,0-12,5.373-12,12c0,3.924,1.887,7.401,4.801,9.587C29.816,46.099,31,48.473,31,50.992V79c0,2.209,1.791,4,4,4h32
			c2.209,0,4-1.791,4-4V50.992c0-2.516,1.188-4.896,3.199-6.405C77.113,42.401,79,38.924,79,35C79,28.373,73.627,23,67,23L67,23z"/>
		<path style="fill:#E1F5FA;" d="M69.832,27.528C68.95,27.192,67.998,27,67,27H35c-4.411,0-8,3.589-8,8
			c0,2.533,1.166,4.861,3.201,6.387C33.205,43.641,35,47.232,35,50.992V62.36L69.832,27.528z"/>
		<g>
			<path style="fill:#009FC7;" d="M35,23c-6.627,0-12,5.373-12,12c0,3.924,1.887,7.401,4.801,9.587
				C29.816,46.099,31,48.473,31,50.992V66.36l4-4V50.992c0-3.76-1.795-7.351-4.799-9.605C28.166,39.861,27,37.533,27,35
				c0-4.411,3.589-8,8-8h32c0.998,0,1.951,0.192,2.833,0.528l3.007-3.007C71.11,23.555,69.121,23,67,23H35z"/>
		</g>
		<g>
			<path style="fill:#009FC7;" d="M42.671,50.144c3.128-7.047-7.819-7.047-3.909-12.919c4.704-7.066,21.779-1.062,20.329,4.111
				C55.963,52.494,63,53.668,63,60.128C63,64.238,55.182,66,51.271,66C47.362,66,35.945,65.299,42.671,50.144z"/>
		</g>
		<g>
			<path style="fill:#00B7E5;" d="M38.762,37.225c-3.91,5.873,7.037,5.873,3.909,12.919c-1.14,2.567-1.749,4.711-1.972,6.516
				l17.799-17.798C55.42,34.585,42.718,31.282,38.762,37.225z"/>
		</g>
		<g>
			<path style="fill:#FFFFFF;" d="M59.064,29.303c-5.452-10.495-15.025,18.551,5.404,27.116c1.289,0.541,2.518,1.209,3.125,2.468
				l12.658,26.166c0.849,1.755,2.977,2.453,4.695,1.56c1.691-0.878,2.35-2.961,1.472-4.652L71.875,53.962L59.064,29.303z"/>
		</g>
	</g>
</g>
<g id="Green" style="display:none;">
	<g style="display:inline;">
		<path style="fill:#AAF0E9;" d="M71.799,41.387C73.834,39.861,75,37.533,75,35c0-4.411-3.589-8-8-8H35c-4.411,0-8,3.589-8,8
			c0,2.533,1.166,4.861,3.201,6.387C33.205,43.641,35,47.232,35,50.992V79h32V50.992C67,47.232,68.794,43.642,71.799,41.387z"/>
		<path style="fill:#009687;" d="M67,27c4.411,0,8,3.589,8,8c0,2.533-1.166,4.861-3.201,6.387C68.794,43.642,67,47.232,67,50.992V79
			H35V50.992c0-3.76-1.795-7.351-4.799-9.605C28.166,39.861,27,37.533,27,35c0-4.411,3.589-8,8-8H67 M67,23H35
			c-6.627,0-12,5.373-12,12c0,3.924,1.887,7.401,4.801,9.587C29.816,46.099,31,48.473,31,50.992V79c0,2.209,1.791,4,4,4h32
			c2.209,0,4-1.791,4-4V50.992c0-2.516,1.188-4.896,3.199-6.405C77.113,42.401,79,38.924,79,35C79,28.373,73.627,23,67,23L67,23z"/>
		<path style="fill:#D7FCF9;" d="M69.832,27.528C68.95,27.192,67.998,27,67,27H35c-4.411,0-8,3.589-8,8
			c0,2.533,1.166,4.861,3.201,6.387C33.205,43.641,35,47.232,35,50.992V62.36L69.832,27.528z"/>
		<g>
			<path style="fill:#00B8A5;" d="M35,23c-6.627,0-12,5.373-12,12c0,3.924,1.887,7.401,4.801,9.587
				C29.816,46.099,31,48.473,31,50.992V66.36l4-4V50.992c0-3.76-1.795-7.351-4.799-9.605C28.166,39.861,27,37.533,27,35
				c0-4.411,3.589-8,8-8h32c0.998,0,1.951,0.192,2.833,0.528l3.007-3.007C71.11,23.555,69.121,23,67,23H35z"/>
		</g>
		<g>
			<path style="fill:#00B8A5;" d="M42.671,50.145c3.128-7.047-7.819-7.047-3.909-12.919c4.704-7.066,21.779-1.062,20.329,4.111
				C55.963,52.494,63,53.668,63,60.128C63,64.238,55.182,66,51.271,66C47.362,66,35.945,65.299,42.671,50.145z"/>
		</g>
		<g>
			<path style="fill:#00D6C1;" d="M38.762,37.225c-3.91,5.873,7.037,5.873,3.909,12.919c-1.14,2.567-1.749,4.711-1.972,6.516
				l17.799-17.798C55.42,34.585,42.718,31.282,38.762,37.225z"/>
		</g>
		<g>
			<path style="fill:#FFFFFF;" d="M59.064,29.303c-5.452-10.495-15.025,18.551,5.404,27.116c1.289,0.541,2.518,1.209,3.125,2.468
				l12.658,26.166c0.849,1.755,2.977,2.453,4.695,1.559c1.691-0.878,2.35-2.961,1.472-4.652L71.875,53.962L59.064,29.303z"/>
		</g>
	</g>
</g>
<g id="R-Green" style="display:none;">
	<circle style="display:inline;fill:#77E0C4;" cx="55" cy="55" r="55"/>
	<g style="display:inline;">
		<path style="fill:#AAF0E9;" d="M71.799,41.387C73.834,39.861,75,37.533,75,35c0-4.411-3.589-8-8-8H35c-4.411,0-8,3.589-8,8
			c0,2.533,1.166,4.861,3.201,6.387C33.205,43.641,35,47.232,35,50.992V79h32V50.992C67,47.232,68.794,43.642,71.799,41.387z"/>
		<path style="fill:#009687;" d="M67,27c4.411,0,8,3.589,8,8c0,2.533-1.166,4.861-3.201,6.387C68.794,43.642,67,47.232,67,50.992V79
			H35V50.992c0-3.76-1.795-7.351-4.799-9.605C28.166,39.861,27,37.533,27,35c0-4.411,3.589-8,8-8H67 M67,23H35
			c-6.627,0-12,5.373-12,12c0,3.924,1.887,7.401,4.801,9.587C29.816,46.099,31,48.473,31,50.992V79c0,2.209,1.791,4,4,4h32
			c2.209,0,4-1.791,4-4V50.992c0-2.516,1.188-4.896,3.199-6.405C77.113,42.401,79,38.924,79,35C79,28.373,73.627,23,67,23L67,23z"/>
		<path style="fill:#D7FCF9;" d="M69.832,27.528C68.95,27.192,67.998,27,67,27H35c-4.411,0-8,3.589-8,8
			c0,2.533,1.166,4.861,3.201,6.387C33.205,43.641,35,47.232,35,50.992V62.36L69.832,27.528z"/>
		<g>
			<path style="fill:#00B8A5;" d="M35,23c-6.627,0-12,5.373-12,12c0,3.924,1.887,7.401,4.801,9.587
				C29.816,46.099,31,48.473,31,50.992V66.36l4-4V50.992c0-3.76-1.795-7.351-4.799-9.605C28.166,39.861,27,37.533,27,35
				c0-4.411,3.589-8,8-8h32c0.998,0,1.951,0.192,2.833,0.528l3.007-3.007C71.11,23.555,69.121,23,67,23H35z"/>
		</g>
		<g>
			<path style="fill:#00B8A5;" d="M42.671,50.145c3.128-7.047-7.819-7.047-3.909-12.919c4.704-7.066,21.779-1.062,20.329,4.111
				C55.963,52.494,63,53.668,63,60.128C63,64.238,55.182,66,51.271,66C47.362,66,35.945,65.299,42.671,50.145z"/>
		</g>
		<g>
			<path style="fill:#00D6C1;" d="M38.762,37.225c-3.91,5.873,7.037,5.873,3.909,12.919c-1.14,2.567-1.749,4.711-1.972,6.516
				l17.799-17.798C55.42,34.585,42.718,31.282,38.762,37.225z"/>
		</g>
		<g>
			<path style="fill:#FFFFFF;" d="M59.064,29.303c-5.452-10.495-15.025,18.551,5.404,27.116c1.289,0.541,2.518,1.209,3.125,2.468
				l12.658,26.166c0.849,1.755,2.977,2.453,4.695,1.559c1.691-0.878,2.35-2.961,1.472-4.652L71.875,53.962L59.064,29.303z"/>
		</g>
	</g>
</g>
<g id="Red" style="display:none;">
	<g style="display:inline;">
		<path style="fill:#FFD7D4;" d="M71.799,41.387C73.834,39.861,75,37.533,75,35c0-4.411-3.589-8-8-8H35c-4.411,0-8,3.589-8,8
			c0,2.533,1.166,4.861,3.201,6.387C33.205,43.641,35,47.232,35,50.992V79h32V50.992C67,47.232,68.794,43.642,71.799,41.387z"/>
		<path style="fill:#C23023;" d="M67,27c4.411,0,8,3.589,8,8c0,2.533-1.166,4.861-3.201,6.387C68.794,43.642,67,47.232,67,50.992V79
			H35V50.992c0-3.76-1.795-7.351-4.799-9.605C28.166,39.861,27,37.533,27,35c0-4.411,3.589-8,8-8H67 M67,23H35
			c-6.627,0-12,5.373-12,12c0,3.924,1.887,7.401,4.801,9.587C29.816,46.099,31,48.473,31,50.992V79c0,2.209,1.791,4,4,4h32
			c2.209,0,4-1.791,4-4V50.992c0-2.516,1.188-4.896,3.199-6.405C77.113,42.401,79,38.924,79,35C79,28.373,73.627,23,67,23L67,23z"/>
		<path style="fill:#FFEFED;" d="M69.832,27.528C68.95,27.192,67.998,27,67,27H35c-4.411,0-8,3.589-8,8
			c0,2.533,1.166,4.861,3.201,6.387C33.205,43.641,35,47.232,35,50.992V62.36L69.832,27.528z"/>
		<g>
			<path style="fill:#E54B44;" d="M35,23c-6.627,0-12,5.373-12,12c0,3.924,1.887,7.401,4.801,9.587
				C29.816,46.099,31,48.473,31,50.992V66.36l4-4V50.992c0-3.76-1.795-7.351-4.799-9.605C28.166,39.861,27,37.533,27,35
				c0-4.411,3.589-8,8-8h32c0.998,0,1.951,0.192,2.833,0.528l3.007-3.007C71.11,23.555,69.121,23,67,23H35z"/>
		</g>
		<g>
			<path style="fill:#E54B44;" d="M42.671,50.145c3.128-7.047-7.819-7.047-3.909-12.919c4.704-7.066,21.779-1.062,20.329,4.111
				C55.963,52.494,63,53.668,63,60.128C63,64.238,55.182,66,51.271,66C47.362,66,35.945,65.299,42.671,50.145z"/>
		</g>
		<g>
			<path style="fill:#FF6C5E;" d="M38.762,37.225c-3.91,5.873,7.037,5.873,3.909,12.919c-1.14,2.567-1.749,4.711-1.972,6.516
				l17.799-17.798C55.42,34.585,42.718,31.282,38.762,37.225z"/>
		</g>
		<g>
			<path style="fill:#FFFFFF;" d="M59.064,29.303c-5.452-10.495-15.025,18.551,5.404,27.116c1.289,0.541,2.518,1.209,3.125,2.468
				l12.658,26.166c0.849,1.755,2.976,2.453,4.695,1.559c1.691-0.878,2.35-2.961,1.472-4.652L71.875,53.962L59.064,29.303z"/>
		</g>
	</g>
</g>
<g id="R-Red" style="display:none;">
	<circle style="display:inline;fill:#FABBAF;" cx="55" cy="55" r="55"/>
	<g style="display:inline;">
		<path style="fill:#FFD7D4;" d="M71.799,41.387C73.834,39.861,75,37.533,75,35c0-4.411-3.589-8-8-8H35c-4.411,0-8,3.589-8,8
			c0,2.533,1.166,4.861,3.201,6.387C33.205,43.641,35,47.232,35,50.992V79h32V50.992C67,47.232,68.794,43.642,71.799,41.387z"/>
		<path style="fill:#C23023;" d="M67,27c4.411,0,8,3.589,8,8c0,2.533-1.166,4.861-3.201,6.387C68.794,43.642,67,47.232,67,50.992V79
			H35V50.992c0-3.76-1.795-7.351-4.799-9.605C28.166,39.861,27,37.533,27,35c0-4.411,3.589-8,8-8H67 M67,23H35
			c-6.627,0-12,5.373-12,12c0,3.924,1.887,7.401,4.801,9.587C29.816,46.099,31,48.473,31,50.992V79c0,2.209,1.791,4,4,4h32
			c2.209,0,4-1.791,4-4V50.992c0-2.516,1.188-4.896,3.199-6.405C77.113,42.401,79,38.924,79,35C79,28.373,73.627,23,67,23L67,23z"/>
		<path style="fill:#FFEFED;" d="M69.832,27.528C68.95,27.192,67.998,27,67,27H35c-4.411,0-8,3.589-8,8
			c0,2.533,1.166,4.861,3.201,6.387C33.205,43.641,35,47.232,35,50.992V62.36L69.832,27.528z"/>
		<g>
			<path style="fill:#E54B44;" d="M35,23c-6.627,0-12,5.373-12,12c0,3.924,1.887,7.401,4.801,9.587
				C29.816,46.099,31,48.473,31,50.992V66.36l4-4V50.992c0-3.76-1.795-7.351-4.799-9.605C28.166,39.861,27,37.533,27,35
				c0-4.411,3.589-8,8-8h32c0.998,0,1.951,0.192,2.833,0.528l3.007-3.007C71.11,23.555,69.121,23,67,23H35z"/>
		</g>
		<g>
			<path style="fill:#E54B44;" d="M42.671,50.145c3.128-7.047-7.819-7.047-3.909-12.919c4.704-7.066,21.779-1.062,20.329,4.111
				C55.963,52.494,63,53.668,63,60.128C63,64.238,55.182,66,51.271,66C47.362,66,35.945,65.299,42.671,50.145z"/>
		</g>
		<g>
			<path style="fill:#FF6C5E;" d="M38.762,37.225c-3.91,5.873,7.037,5.873,3.909,12.919c-1.14,2.567-1.749,4.711-1.972,6.516
				l17.799-17.798C55.42,34.585,42.718,31.282,38.762,37.225z"/>
		</g>
		<g>
			<path style="fill:#FFFFFF;" d="M59.064,29.303c-5.452-10.495-15.025,18.551,5.404,27.116c1.289,0.541,2.518,1.209,3.125,2.468
				l12.658,26.166c0.849,1.755,2.976,2.453,4.695,1.559c1.691-0.878,2.35-2.961,1.472-4.652L71.875,53.962L59.064,29.303z"/>
		</g>
	</g>
</g>
<g id="Yellow" style="display:none;">
	<g style="display:inline;">
		<path style="fill:#FFE9A1;" d="M71.799,41.387C73.834,39.861,75,37.533,75,35c0-4.411-3.589-8-8-8H35c-4.411,0-8,3.589-8,8
			c0,2.533,1.166,4.861,3.201,6.387C33.205,43.641,35,47.232,35,50.992V79h32V50.992C67,47.232,68.794,43.642,71.799,41.387z"/>
		<path style="fill:#E07000;" d="M67,27c4.411,0,8,3.589,8,8c0,2.533-1.166,4.861-3.201,6.387C68.794,43.642,67,47.232,67,50.992V79
			H35V50.992c0-3.76-1.795-7.351-4.799-9.605C28.166,39.861,27,37.533,27,35c0-4.411,3.589-8,8-8H67 M67,23H35
			c-6.627,0-12,5.373-12,12c0,3.924,1.887,7.401,4.801,9.587C29.816,46.099,31,48.473,31,50.992V79c0,2.209,1.791,4,4,4h32
			c2.209,0,4-1.791,4-4V50.992c0-2.516,1.188-4.896,3.199-6.405C77.113,42.401,79,38.924,79,35C79,28.373,73.627,23,67,23L67,23z"/>
		<path style="fill:#FFF5D9;" d="M69.832,27.528C68.95,27.192,67.998,27,67,27H35c-4.411,0-8,3.589-8,8
			c0,2.533,1.166,4.861,3.201,6.387C33.205,43.641,35,47.232,35,50.992V62.36L69.832,27.528z"/>
		<g>
			<path style="fill:#FA9200;" d="M35,23c-6.627,0-12,5.373-12,12c0,3.924,1.887,7.401,4.801,9.587
				C29.816,46.099,31,48.473,31,50.992V66.36l4-4V50.992c0-3.76-1.795-7.351-4.799-9.605C28.166,39.861,27,37.533,27,35
				c0-4.411,3.589-8,8-8h32c0.998,0,1.951,0.192,2.833,0.528l3.007-3.007C71.11,23.555,69.121,23,67,23H35z"/>
		</g>
		<g>
			<path style="fill:#FA9200;" d="M42.671,50.145c3.128-7.047-7.819-7.047-3.909-12.919c4.704-7.066,21.779-1.062,20.329,4.111
				C55.963,52.494,63,53.668,63,60.128C63,64.238,55.182,66,51.271,66C47.362,66,35.945,65.299,42.671,50.145z"/>
		</g>
		<g>
			<path style="fill:#FFAA00;" d="M38.762,37.225c-3.91,5.873,7.037,5.873,3.909,12.919c-1.14,2.567-1.749,4.711-1.972,6.516
				l17.799-17.798C55.42,34.585,42.718,31.282,38.762,37.225z"/>
		</g>
		<g>
			<path style="fill:#FFFFFF;" d="M59.064,29.303c-5.452-10.495-15.025,18.551,5.404,27.116c1.289,0.541,2.518,1.209,3.125,2.468
				l12.658,26.166c0.849,1.755,2.977,2.453,4.695,1.559c1.691-0.878,2.35-2.961,1.472-4.652L71.875,53.962L59.064,29.303z"/>
		</g>
	</g>
</g>
<g id="R-Yellow" style="display:none;">
	<circle style="display:inline;fill:#FFD75E;" cx="55" cy="55" r="55"/>
	<g style="display:inline;">
		<path style="fill:#FFE9A1;" d="M71.799,41.387C73.834,39.861,75,37.533,75,35c0-4.411-3.589-8-8-8H35c-4.411,0-8,3.589-8,8
			c0,2.533,1.166,4.861,3.201,6.387C33.205,43.641,35,47.232,35,50.992V79h32V50.992C67,47.232,68.794,43.642,71.799,41.387z"/>
		<path style="fill:#E07000;" d="M67,27c4.411,0,8,3.589,8,8c0,2.533-1.166,4.861-3.201,6.387C68.794,43.642,67,47.232,67,50.992V79
			H35V50.992c0-3.76-1.795-7.351-4.799-9.605C28.166,39.861,27,37.533,27,35c0-4.411,3.589-8,8-8H67 M67,23H35
			c-6.627,0-12,5.373-12,12c0,3.924,1.887,7.401,4.801,9.587C29.816,46.099,31,48.473,31,50.992V79c0,2.209,1.791,4,4,4h32
			c2.209,0,4-1.791,4-4V50.992c0-2.516,1.188-4.896,3.199-6.405C77.113,42.401,79,38.924,79,35C79,28.373,73.627,23,67,23L67,23z"/>
		<path style="fill:#FFF5D9;" d="M69.832,27.528C68.95,27.192,67.998,27,67,27H35c-4.411,0-8,3.589-8,8
			c0,2.533,1.166,4.861,3.201,6.387C33.205,43.641,35,47.232,35,50.992V62.36L69.832,27.528z"/>
		<g>
			<path style="fill:#FA9200;" d="M35,23c-6.627,0-12,5.373-12,12c0,3.924,1.887,7.401,4.801,9.587
				C29.816,46.099,31,48.473,31,50.992V66.36l4-4V50.992c0-3.76-1.795-7.351-4.799-9.605C28.166,39.861,27,37.533,27,35
				c0-4.411,3.589-8,8-8h32c0.998,0,1.951,0.192,2.833,0.528l3.007-3.007C71.11,23.555,69.121,23,67,23H35z"/>
		</g>
		<g>
			<path style="fill:#FA9200;" d="M42.671,50.145c3.128-7.047-7.819-7.047-3.909-12.919c4.704-7.066,21.779-1.062,20.329,4.111
				C55.963,52.494,63,53.668,63,60.128C63,64.238,55.182,66,51.271,66C47.362,66,35.945,65.299,42.671,50.145z"/>
		</g>
		<g>
			<path style="fill:#FFAA00;" d="M38.762,37.225c-3.91,5.873,7.037,5.873,3.909,12.919c-1.14,2.567-1.749,4.711-1.972,6.516
				l17.799-17.798C55.42,34.585,42.718,31.282,38.762,37.225z"/>
		</g>
		<g>
			<path style="fill:#FFFFFF;" d="M59.064,29.303c-5.452-10.495-15.025,18.551,5.404,27.116c1.289,0.541,2.518,1.209,3.125,2.468
				l12.658,26.166c0.849,1.755,2.977,2.453,4.695,1.559c1.691-0.878,2.35-2.961,1.472-4.652L71.875,53.962L59.064,29.303z"/>
		</g>
	</g>
</g>
</svg>
