<?xml version="1.0" encoding="iso-8859-1"?>
<!-- Generator: Adobe Illustrator 17.1.0, SVG Export Plug-In . SVG Version: 6.00 Build 0)  -->
<!DOCTYPE svg PUBLIC "-//W3C//DTD SVG 1.0//EN" "http://www.w3.org/TR/2001/REC-SVG-20010904/DTD/svg10.dtd">
<svg version="1.0" xmlns="http://www.w3.org/2000/svg" xmlns:xlink="http://www.w3.org/1999/xlink" x="0px" y="0px" width="110px"
	 height="110px" viewBox="0 0 110 110" style="enable-background:new 0 0 110 110;" xml:space="preserve">
<g id="Artboard" style="display:none;">
	
		<rect x="-840.5" y="-674.5" style="display:inline;fill:#808080;stroke:#000000;stroke-miterlimit:10;" width="1392" height="1369"/>
</g>
<g id="R-Multicolor">
	<circle style="fill:#25B7D3;" cx="55" cy="55" r="55"/>
	<g>
		<g>
			<path style="fill:#EDBC7C;" d="M58.76,61H45.575L61.26,26.551c1.373-3.016,4.931-4.348,7.947-2.974
				c3.016,1.373,4.348,4.931,2.974,7.947L58.76,61z"/>
		</g>
		<g>
			<path style="fill:#9C6144;" d="M58.76,61l7.525-16.529c1.372-0.702,2.878-1.217,4.532-1.471c2.965-0.456,25,2,10,18H58.76z"/>
		</g>
		<g>
			<path style="fill:#F4D0A1;" d="M72.047,26.286c-0.596-1.155-1.565-2.128-2.84-2.709c-3.016-1.373-6.574-0.042-7.947,2.975
				l-8.794,19.315L72.047,26.286z"/>
		</g>
		<g>
			<path style="fill:#D4A263;" d="M53.657,43.25c0.789-0.159,1.695-0.25,2.661-0.25c3.038,0,5.5,0.896,5.5,2s-2.462,2-5.5,2
				c-1.615,0-3.062-0.255-4.069-0.658L53.657,43.25z"/>
		</g>
		<g>
			<path style="fill:#D4A263;" d="M61.029,27.058C61.443,27.021,61.873,27,62.317,27c3.038,0,5.5,0.896,5.5,2s-2.462,2-5.5,2
				c-1.083,0-2.09-0.115-2.941-0.312L61.029,27.058z"/>
		</g>
		<g>
			<path style="fill:#D4A263;" d="M57.352,35.134C57.963,35.049,58.624,35,59.317,35c3.038,0,5.5,0.896,5.5,2s-2.462,2-5.5,2
				c-1.337,0-2.562-0.174-3.515-0.462L57.352,35.134z"/>
		</g>
		<g>
			<circle style="fill:#EDBC7C;" cx="73.317" cy="49.536" r="1.5"/>
		</g>
		<g>
			<circle style="fill:#EDBC7C;" cx="74.317" cy="57.536" r="1.5"/>
		</g>
		<g>
			<circle style="fill:#EDBC7C;" cx="80.317" cy="52.5" r="1.5"/>
		</g>
		<g>
			<circle style="fill:#EDBC7C;" cx="67.317" cy="54.5" r="1.5"/>
		</g>
		<g>
			<path style="fill:#D4A263;" d="M48.555,54.456l1.492-3.276c0.693-0.115,1.46-0.18,2.271-0.18c3.038,0,5.5,0.896,5.5,2
				s-2.462,2-5.5,2C50.86,55,49.539,54.793,48.555,54.456z"/>
		</g>
		<g>
			<polygon style="fill:#EDBC7C;" points="56.029,67 56.021,67.018 55.982,67 			"/>
		</g>
		<g>
			<path style="fill:#F8E1C2;" d="M75,72.036c0-0.552,0.448-1,1-1h5.386L83,67H27l1.643,4.108c0.111-0.043,0.23-0.072,0.357-0.072h6
				c0.552,0,1,0.448,1,1s-0.448,1-1,1h-5.586l3.2,8H35c0.552,0,1,0.448,1,1s-0.448,1-1,1h-1.586l1.083,2.708
				C34.801,86.502,35.536,87,36.354,87h37.292c0.818,0,1.553-0.498,1.857-1.257l1.083-2.708H76c-0.552,0-1-0.448-1-1s0.448-1,1-1
				h1.386l3.2-8H76C75.448,73.036,75,72.588,75,72.036z M67,71.036h4c0.552,0,1,0.448,1,1s-0.448,1-1,1h-4c-0.552,0-1-0.448-1-1
				S66.448,71.036,67,71.036z M67,77.036c0,0.552-0.448,1-1,1h-4c-0.552,0-1-0.448-1-1s0.448-1,1-1h4
				C66.552,76.036,67,76.483,67,77.036z M58,71.036h4c0.552,0,1,0.448,1,1s-0.448,1-1,1h-4c-0.552,0-1-0.448-1-1
				S57.448,71.036,58,71.036z M58,77.036c0,0.552-0.448,1-1,1h-4c-0.552,0-1-0.448-1-1s0.448-1,1-1h4
				C57.552,76.036,58,76.483,58,77.036z M49,71.036h4c0.552,0,1,0.448,1,1s-0.448,1-1,1h-4c-0.552,0-1-0.448-1-1
				S48.448,71.036,49,71.036z M49,77.036c0,0.552-0.448,1-1,1h-4c-0.552,0-1-0.448-1-1s0.448-1,1-1h4
				C48.552,76.036,49,76.483,49,77.036z M40,71.036h4c0.552,0,1,0.448,1,1s-0.448,1-1,1h-4c-0.552,0-1-0.448-1-1
				S39.448,71.036,40,71.036z M35,78.036c-0.552,0-1-0.448-1-1s0.448-1,1-1h4c0.552,0,1,0.448,1,1s-0.448,1-1,1H35z M44,83.036h-4
				c-0.552,0-1-0.448-1-1s0.448-1,1-1h4c0.552,0,1,0.448,1,1S44.552,83.036,44,83.036z M53,83.036h-4c-0.552,0-1-0.448-1-1
				s0.448-1,1-1h4c0.552,0,1,0.448,1,1S53.552,83.036,53,83.036z M62,83.036h-4c-0.552,0-1-0.448-1-1s0.448-1,1-1h4
				c0.552,0,1,0.448,1,1S62.552,83.036,62,83.036z M71,83.036h-4c-0.552,0-1-0.448-1-1s0.448-1,1-1h4c0.552,0,1,0.448,1,1
				S71.552,83.036,71,83.036z M75,78.036h-4c-0.552,0-1-0.448-1-1s0.448-1,1-1h4c0.552,0,1,0.448,1,1S75.552,78.036,75,78.036z"/>
		</g>
		<g>
			<g>
				<path style="fill:#F4D0A1;" d="M36,82.036c0-0.552-0.448-1-1-1h-2.386l0.8,2H35C35.552,83.036,36,82.588,36,82.036z"/>
			</g>
			<g>
				<path style="fill:#F4D0A1;" d="M44,81.036h-4c-0.552,0-1,0.448-1,1s0.448,1,1,1h4c0.552,0,1-0.448,1-1S44.552,81.036,44,81.036z
					"/>
			</g>
			<g>
				<path style="fill:#F4D0A1;" d="M53,81.036h-4c-0.552,0-1,0.448-1,1s0.448,1,1,1h4c0.552,0,1-0.448,1-1S53.552,81.036,53,81.036z
					"/>
			</g>
			<g>
				<path style="fill:#F4D0A1;" d="M62,81.036h-4c-0.552,0-1,0.448-1,1s0.448,1,1,1h4c0.552,0,1-0.448,1-1S62.552,81.036,62,81.036z
					"/>
			</g>
			<g>
				<path style="fill:#F4D0A1;" d="M71,81.036h-4c-0.552,0-1,0.448-1,1s0.448,1,1,1h4c0.552,0,1-0.448,1-1S71.552,81.036,71,81.036z
					"/>
			</g>
			<g>
				<path style="fill:#F4D0A1;" d="M75,82.036c0,0.552,0.448,1,1,1h0.586l0.8-2H76C75.448,81.036,75,81.483,75,82.036z"/>
			</g>
			<g>
				<path style="fill:#F4D0A1;" d="M40,77.036c0-0.552-0.448-1-1-1h-4c-0.552,0-1,0.448-1,1s0.448,1,1,1h4
					C39.552,78.036,40,77.588,40,77.036z"/>
			</g>
			<g>
				<path style="fill:#F4D0A1;" d="M43,77.036c0,0.552,0.448,1,1,1h4c0.552,0,1-0.448,1-1s-0.448-1-1-1h-4
					C43.448,76.036,43,76.483,43,77.036z"/>
			</g>
			<g>
				<path style="fill:#F4D0A1;" d="M52,77.036c0,0.552,0.448,1,1,1h4c0.552,0,1-0.448,1-1s-0.448-1-1-1h-4
					C52.448,76.036,52,76.483,52,77.036z"/>
			</g>
			<g>
				<path style="fill:#F4D0A1;" d="M61,77.036c0,0.552,0.448,1,1,1h4c0.552,0,1-0.448,1-1s-0.448-1-1-1h-4
					C61.448,76.036,61,76.483,61,77.036z"/>
			</g>
			<g>
				<path style="fill:#F4D0A1;" d="M75,76.036h-4c-0.552,0-1,0.448-1,1s0.448,1,1,1h4c0.552,0,1-0.448,1-1S75.552,76.036,75,76.036z
					"/>
			</g>
			<g>
				<path style="fill:#F4D0A1;" d="M36,72.036c0-0.552-0.448-1-1-1h-6c-0.127,0-0.246,0.029-0.357,0.072l0.771,1.928H35
					C35.552,73.036,36,72.588,36,72.036z"/>
			</g>
			<g>
				<path style="fill:#F4D0A1;" d="M40,73.036h4c0.552,0,1-0.448,1-1s-0.448-1-1-1h-4c-0.552,0-1,0.448-1,1S39.448,73.036,40,73.036
					z"/>
			</g>
			<g>
				<path style="fill:#F4D0A1;" d="M49,73.036h4c0.552,0,1-0.448,1-1s-0.448-1-1-1h-4c-0.552,0-1,0.448-1,1S48.448,73.036,49,73.036
					z"/>
			</g>
			<g>
				<path style="fill:#F4D0A1;" d="M58,73.036h4c0.552,0,1-0.448,1-1s-0.448-1-1-1h-4c-0.552,0-1,0.448-1,1S57.448,73.036,58,73.036
					z"/>
			</g>
			<g>
				<path style="fill:#F4D0A1;" d="M67,73.036h4c0.552,0,1-0.448,1-1s-0.448-1-1-1h-4c-0.552,0-1,0.448-1,1S66.448,73.036,67,73.036
					z"/>
			</g>
			<g>
				<path style="fill:#F4D0A1;" d="M76,71.036c-0.552,0-1,0.448-1,1s0.448,1,1,1h4.586l0.8-2H76z"/>
			</g>
		</g>
		<g>
			<path style="fill:#FFFFFF;" d="M23,65c0,1.105,0.895,2,2,2h60c1.105,0,2-0.895,2-2v-2c0-1.105-0.895-2-2-2H25
				c-1.105,0-2,0.895-2,2V65z"/>
		</g>
		<path style="fill:#84462D;" d="M28.14,61h21.848c0.2-9.382-6.649-19.559-15.61-21.741c-1.904-0.464-3.91-0.213-5.64,0.707
			c-4.269,2.27-6.276,7.29-4.75,11.877C24.856,54.454,26.408,57.818,28.14,61z"/>
		<g>
			<path style="fill:#9C6144;" d="M34.378,39.259c-1.904-0.464-3.91-0.213-5.64,0.707c-4.269,2.27-6.276,7.29-4.75,11.877
				c0.751,2.258,2.014,5.08,3.462,7.859l15.469-15.468C40.485,41.829,37.567,40.035,34.378,39.259z"/>
		</g>
		<g>
			<path style="fill:#D4A263;" d="M34.822,39.383c2.108,0.58,4.092,1.598,5.888,2.943c-3.398,4.329-8.877,9.852-10.231,8.497
				C29.254,49.597,32.159,43.868,34.822,39.383z"/>
		</g>
		<g>
			<path style="fill:#D4A263;" d="M44.465,45.925c1.542,1.861,2.821,3.977,3.759,6.22c-3.412,4.217-8.453,9.178-9.744,7.886
				C36.99,58.542,41.6,50.399,44.465,45.925z"/>
		</g>
	</g>
</g>
<g id="Multicolor" style="display:none;">
	<g style="display:inline;">
		<g>
			<path style="fill:#EDBC7C;" d="M58.76,61H45.575L61.26,26.551c1.373-3.016,4.931-4.348,7.947-2.974
				c3.016,1.373,4.348,4.931,2.974,7.947L58.76,61z"/>
		</g>
		<g>
			<path style="fill:#9C6144;" d="M58.76,61l7.525-16.529c1.372-0.702,2.878-1.217,4.532-1.471c2.965-0.456,25,2,10,18H58.76z"/>
		</g>
		<g>
			<path style="fill:#F4D0A1;" d="M72.047,26.286c-0.596-1.155-1.565-2.128-2.84-2.709c-3.016-1.373-6.574-0.042-7.947,2.975
				l-8.794,19.315L72.047,26.286z"/>
		</g>
		<g>
			<path style="fill:#D4A263;" d="M53.657,43.25c0.789-0.159,1.695-0.25,2.661-0.25c3.038,0,5.5,0.896,5.5,2s-2.462,2-5.5,2
				c-1.615,0-3.062-0.255-4.069-0.658L53.657,43.25z"/>
		</g>
		<g>
			<path style="fill:#D4A263;" d="M61.029,27.058C61.443,27.021,61.873,27,62.317,27c3.038,0,5.5,0.896,5.5,2s-2.462,2-5.5,2
				c-1.083,0-2.09-0.115-2.941-0.312L61.029,27.058z"/>
		</g>
		<g>
			<path style="fill:#D4A263;" d="M57.352,35.134C57.963,35.049,58.624,35,59.317,35c3.038,0,5.5,0.896,5.5,2s-2.462,2-5.5,2
				c-1.337,0-2.562-0.174-3.515-0.462L57.352,35.134z"/>
		</g>
		<g>
			<circle style="fill:#EDBC7C;" cx="73.317" cy="49.536" r="1.5"/>
		</g>
		<g>
			<circle style="fill:#EDBC7C;" cx="74.317" cy="57.536" r="1.5"/>
		</g>
		<g>
			<circle style="fill:#EDBC7C;" cx="80.317" cy="52.5" r="1.5"/>
		</g>
		<g>
			<circle style="fill:#EDBC7C;" cx="67.317" cy="54.5" r="1.5"/>
		</g>
		<g>
			<path style="fill:#D4A263;" d="M48.555,54.456l1.492-3.276c0.693-0.115,1.46-0.18,2.271-0.18c3.038,0,5.5,0.896,5.5,2
				s-2.462,2-5.5,2C50.86,55,49.539,54.793,48.555,54.456z"/>
		</g>
		<g>
			<polygon style="fill:#EDBC7C;" points="56.029,67 56.021,67.018 55.982,67 			"/>
		</g>
		<g>
			<path style="fill:#F8E1C2;" d="M75,72.036c0-0.552,0.448-1,1-1h5.386L83,67H27l1.643,4.108c0.111-0.043,0.23-0.072,0.357-0.072h6
				c0.552,0,1,0.448,1,1s-0.448,1-1,1h-5.586l3.2,8H35c0.552,0,1,0.448,1,1s-0.448,1-1,1h-1.586l1.083,2.708
				C34.801,86.502,35.536,87,36.354,87h37.292c0.818,0,1.553-0.498,1.857-1.257l1.083-2.708H76c-0.552,0-1-0.448-1-1s0.448-1,1-1
				h1.386l3.2-8H76C75.448,73.036,75,72.588,75,72.036z M67,71.036h4c0.552,0,1,0.448,1,1s-0.448,1-1,1h-4c-0.552,0-1-0.448-1-1
				S66.448,71.036,67,71.036z M67,77.036c0,0.552-0.448,1-1,1h-4c-0.552,0-1-0.448-1-1s0.448-1,1-1h4
				C66.552,76.036,67,76.483,67,77.036z M58,71.036h4c0.552,0,1,0.448,1,1s-0.448,1-1,1h-4c-0.552,0-1-0.448-1-1
				S57.448,71.036,58,71.036z M58,77.036c0,0.552-0.448,1-1,1h-4c-0.552,0-1-0.448-1-1s0.448-1,1-1h4
				C57.552,76.036,58,76.483,58,77.036z M49,71.036h4c0.552,0,1,0.448,1,1s-0.448,1-1,1h-4c-0.552,0-1-0.448-1-1
				S48.448,71.036,49,71.036z M49,77.036c0,0.552-0.448,1-1,1h-4c-0.552,0-1-0.448-1-1s0.448-1,1-1h4
				C48.552,76.036,49,76.483,49,77.036z M40,71.036h4c0.552,0,1,0.448,1,1s-0.448,1-1,1h-4c-0.552,0-1-0.448-1-1
				S39.448,71.036,40,71.036z M35,78.036c-0.552,0-1-0.448-1-1s0.448-1,1-1h4c0.552,0,1,0.448,1,1s-0.448,1-1,1H35z M44,83.036h-4
				c-0.552,0-1-0.448-1-1s0.448-1,1-1h4c0.552,0,1,0.448,1,1S44.552,83.036,44,83.036z M53,83.036h-4c-0.552,0-1-0.448-1-1
				s0.448-1,1-1h4c0.552,0,1,0.448,1,1S53.552,83.036,53,83.036z M62,83.036h-4c-0.552,0-1-0.448-1-1s0.448-1,1-1h4
				c0.552,0,1,0.448,1,1S62.552,83.036,62,83.036z M71,83.036h-4c-0.552,0-1-0.448-1-1s0.448-1,1-1h4c0.552,0,1,0.448,1,1
				S71.552,83.036,71,83.036z M75,78.036h-4c-0.552,0-1-0.448-1-1s0.448-1,1-1h4c0.552,0,1,0.448,1,1S75.552,78.036,75,78.036z"/>
		</g>
		<g>
			<g>
				<path style="fill:#F4D0A1;" d="M36,82.036c0-0.552-0.448-1-1-1h-2.386l0.8,2H35C35.552,83.036,36,82.588,36,82.036z"/>
			</g>
			<g>
				<path style="fill:#F4D0A1;" d="M44,81.036h-4c-0.552,0-1,0.448-1,1s0.448,1,1,1h4c0.552,0,1-0.448,1-1S44.552,81.036,44,81.036z
					"/>
			</g>
			<g>
				<path style="fill:#F4D0A1;" d="M53,81.036h-4c-0.552,0-1,0.448-1,1s0.448,1,1,1h4c0.552,0,1-0.448,1-1S53.552,81.036,53,81.036z
					"/>
			</g>
			<g>
				<path style="fill:#F4D0A1;" d="M62,81.036h-4c-0.552,0-1,0.448-1,1s0.448,1,1,1h4c0.552,0,1-0.448,1-1S62.552,81.036,62,81.036z
					"/>
			</g>
			<g>
				<path style="fill:#F4D0A1;" d="M71,81.036h-4c-0.552,0-1,0.448-1,1s0.448,1,1,1h4c0.552,0,1-0.448,1-1S71.552,81.036,71,81.036z
					"/>
			</g>
			<g>
				<path style="fill:#F4D0A1;" d="M75,82.036c0,0.552,0.448,1,1,1h0.586l0.8-2H76C75.448,81.036,75,81.483,75,82.036z"/>
			</g>
			<g>
				<path style="fill:#F4D0A1;" d="M40,77.036c0-0.552-0.448-1-1-1h-4c-0.552,0-1,0.448-1,1s0.448,1,1,1h4
					C39.552,78.036,40,77.588,40,77.036z"/>
			</g>
			<g>
				<path style="fill:#F4D0A1;" d="M43,77.036c0,0.552,0.448,1,1,1h4c0.552,0,1-0.448,1-1s-0.448-1-1-1h-4
					C43.448,76.036,43,76.483,43,77.036z"/>
			</g>
			<g>
				<path style="fill:#F4D0A1;" d="M52,77.036c0,0.552,0.448,1,1,1h4c0.552,0,1-0.448,1-1s-0.448-1-1-1h-4
					C52.448,76.036,52,76.483,52,77.036z"/>
			</g>
			<g>
				<path style="fill:#F4D0A1;" d="M61,77.036c0,0.552,0.448,1,1,1h4c0.552,0,1-0.448,1-1s-0.448-1-1-1h-4
					C61.448,76.036,61,76.483,61,77.036z"/>
			</g>
			<g>
				<path style="fill:#F4D0A1;" d="M75,76.036h-4c-0.552,0-1,0.448-1,1s0.448,1,1,1h4c0.552,0,1-0.448,1-1S75.552,76.036,75,76.036z
					"/>
			</g>
			<g>
				<path style="fill:#F4D0A1;" d="M36,72.036c0-0.552-0.448-1-1-1h-6c-0.127,0-0.246,0.029-0.357,0.072l0.771,1.928H35
					C35.552,73.036,36,72.588,36,72.036z"/>
			</g>
			<g>
				<path style="fill:#F4D0A1;" d="M40,73.036h4c0.552,0,1-0.448,1-1s-0.448-1-1-1h-4c-0.552,0-1,0.448-1,1S39.448,73.036,40,73.036
					z"/>
			</g>
			<g>
				<path style="fill:#F4D0A1;" d="M49,73.036h4c0.552,0,1-0.448,1-1s-0.448-1-1-1h-4c-0.552,0-1,0.448-1,1S48.448,73.036,49,73.036
					z"/>
			</g>
			<g>
				<path style="fill:#F4D0A1;" d="M58,73.036h4c0.552,0,1-0.448,1-1s-0.448-1-1-1h-4c-0.552,0-1,0.448-1,1S57.448,73.036,58,73.036
					z"/>
			</g>
			<g>
				<path style="fill:#F4D0A1;" d="M67,73.036h4c0.552,0,1-0.448,1-1s-0.448-1-1-1h-4c-0.552,0-1,0.448-1,1S66.448,73.036,67,73.036
					z"/>
			</g>
			<g>
				<path style="fill:#F4D0A1;" d="M76,71.036c-0.552,0-1,0.448-1,1s0.448,1,1,1h4.586l0.8-2H76z"/>
			</g>
		</g>
		<g>
			<path style="fill:#FFFFFF;" d="M23,65c0,1.105,0.895,2,2,2h60c1.105,0,2-0.895,2-2v-2c0-1.105-0.895-2-2-2H25
				c-1.105,0-2,0.895-2,2V65z"/>
		</g>
		<path style="fill:#84462D;" d="M28.14,61h21.848c0.2-9.382-6.649-19.559-15.61-21.741c-1.904-0.464-3.91-0.213-5.64,0.707
			c-4.269,2.27-6.276,7.29-4.75,11.877C24.856,54.454,26.408,57.818,28.14,61z"/>
		<g>
			<path style="fill:#9C6144;" d="M34.378,39.259c-1.904-0.464-3.91-0.213-5.64,0.707c-4.269,2.27-6.276,7.29-4.75,11.877
				c0.751,2.258,2.014,5.08,3.462,7.859l15.469-15.468C40.485,41.829,37.567,40.035,34.378,39.259z"/>
		</g>
		<g>
			<path style="fill:#D4A263;" d="M34.822,39.383c2.108,0.58,4.092,1.598,5.888,2.943c-3.398,4.329-8.877,9.852-10.231,8.497
				C29.254,49.597,32.159,43.868,34.822,39.383z"/>
		</g>
		<g>
			<path style="fill:#D4A263;" d="M44.465,45.925c1.542,1.861,2.821,3.977,3.759,6.22c-3.412,4.217-8.453,9.178-9.744,7.886
				C36.99,58.542,41.6,50.399,44.465,45.925z"/>
		</g>
	</g>
</g>
<g id="Blue" style="display:none;">
	<g style="display:inline;">
		<g>
			<path style="fill:#BBE7F2;" d="M58.76,61H45.575L61.26,26.551c1.373-3.016,4.932-4.348,7.947-2.974
				c3.016,1.373,4.348,4.931,2.974,7.947L58.76,61z"/>
		</g>
		<g>
			<path style="fill:#33899E;" d="M58.76,61l7.526-16.529c1.372-0.702,2.878-1.217,4.531-1.471c2.965-0.457,25,2,10,18H58.76z"/>
		</g>
		<g>
			<path style="fill:#E1F5FA;" d="M72.047,26.286c-0.596-1.155-1.565-2.128-2.84-2.709c-3.016-1.373-6.574-0.042-7.947,2.975
				l-8.795,19.315L72.047,26.286z"/>
		</g>
		<g>
			<path style="fill:#81D2EB;" d="M53.656,43.25c0.789-0.159,1.695-0.25,2.661-0.25c3.038,0,5.5,0.896,5.5,2s-2.462,2-5.5,2
				c-1.614,0-3.062-0.255-4.068-0.658L53.656,43.25z"/>
		</g>
		<g>
			<path style="fill:#81D2EB;" d="M61.029,27.058C61.443,27.021,61.873,27,62.317,27c3.038,0,5.5,0.896,5.5,2c0,1.105-2.462,2-5.5,2
				c-1.083,0-2.09-0.116-2.941-0.312L61.029,27.058z"/>
		</g>
		<g>
			<path style="fill:#81D2EB;" d="M57.352,35.134C57.963,35.049,58.624,35,59.317,35c3.038,0,5.5,0.896,5.5,2s-2.462,2-5.5,2
				c-1.337,0-2.562-0.174-3.516-0.463L57.352,35.134z"/>
		</g>
		<g>
			<circle style="fill:#53BAD4;" cx="73.317" cy="49.536" r="1.5"/>
		</g>
		<g>
			<circle style="fill:#53BAD4;" cx="74.317" cy="57.536" r="1.5"/>
		</g>
		<g>
			<circle style="fill:#53BAD4;" cx="80.317" cy="52.5" r="1.5"/>
		</g>
		<g>
			<circle style="fill:#53BAD4;" cx="67.317" cy="54.5" r="1.5"/>
		</g>
		<g>
			<path style="fill:#81D2EB;" d="M48.555,54.456l1.491-3.276c0.693-0.114,1.461-0.18,2.271-0.18c3.038,0,5.5,0.896,5.5,2
				s-2.462,2-5.5,2C50.86,55,49.539,54.793,48.555,54.456z"/>
		</g>
		<g>
			<polygon style="fill:#53BAD4;" points="56.028,67.001 56.021,67.018 55.981,67.001 			"/>
		</g>
		<g>
			<path style="fill:#BBE7F2;" d="M75,72.036c0-0.552,0.447-1,1-1h5.386L83,67H27l1.643,4.108c0.111-0.043,0.23-0.072,0.357-0.072h6
				c0.553,0,1,0.448,1,1c0,0.552-0.447,1-1,1h-5.586l3.2,8H35c0.553,0,1,0.448,1,1c0,0.552-0.447,1-1,1h-1.586l1.083,2.708
				C34.801,86.502,35.536,87,36.354,87h37.292c0.818,0,1.554-0.498,1.857-1.257l1.083-2.708H76c-0.553,0-1-0.448-1-1
				c0-0.552,0.447-1,1-1h1.386l3.2-8H76C75.447,73.036,75,72.588,75,72.036z M67,71.036h4c0.553,0,1,0.448,1,1c0,0.552-0.447,1-1,1
				h-4c-0.553,0-1-0.448-1-1C66,71.483,66.447,71.036,67,71.036z M67,77.036c0,0.552-0.447,1-1,1h-4c-0.553,0-1-0.448-1-1
				c0-0.552,0.447-1,1-1h4C66.553,76.036,67,76.483,67,77.036z M58,71.036h4c0.553,0,1,0.448,1,1c0,0.552-0.447,1-1,1h-4
				c-0.553,0-1-0.448-1-1C57,71.483,57.447,71.036,58,71.036z M58,77.036c0,0.552-0.447,1-1,1h-4c-0.553,0-1-0.448-1-1
				c0-0.552,0.447-1,1-1h4C57.553,76.036,58,76.483,58,77.036z M49,71.036h4c0.553,0,1,0.448,1,1c0,0.552-0.447,1-1,1h-4
				c-0.553,0-1-0.448-1-1C48,71.483,48.447,71.036,49,71.036z M49,77.036c0,0.552-0.447,1-1,1h-4c-0.553,0-1-0.448-1-1
				c0-0.552,0.447-1,1-1h4C48.553,76.036,49,76.483,49,77.036z M40,71.036h4c0.553,0,1,0.448,1,1c0,0.552-0.447,1-1,1h-4
				c-0.553,0-1-0.448-1-1C39,71.483,39.447,71.036,40,71.036z M35,78.036c-0.553,0-1-0.448-1-1c0-0.552,0.447-1,1-1h4
				c0.553,0,1,0.448,1,1c0,0.552-0.447,1-1,1H35z M44,83.036h-4c-0.553,0-1-0.448-1-1c0-0.552,0.447-1,1-1h4c0.553,0,1,0.448,1,1
				C45,82.588,44.553,83.036,44,83.036z M53,83.036h-4c-0.553,0-1-0.448-1-1c0-0.552,0.447-1,1-1h4c0.553,0,1,0.448,1,1
				C54,82.588,53.553,83.036,53,83.036z M62,83.036h-4c-0.553,0-1-0.448-1-1c0-0.552,0.447-1,1-1h4c0.553,0,1,0.448,1,1
				C63,82.588,62.553,83.036,62,83.036z M71,83.036h-4c-0.553,0-1-0.448-1-1c0-0.552,0.447-1,1-1h4c0.553,0,1,0.448,1,1
				C72,82.588,71.553,83.036,71,83.036z M75,78.036h-4c-0.553,0-1-0.448-1-1c0-0.552,0.447-1,1-1h4c0.553,0,1,0.448,1,1
				C76,77.588,75.553,78.036,75,78.036z"/>
		</g>
		<g>
			<g>
				<path style="fill:#81D2EB;" d="M36,82.036c0-0.552-0.447-1-1-1h-2.386l0.8,2H35C35.553,83.036,36,82.588,36,82.036z"/>
			</g>
			<g>
				<path style="fill:#81D2EB;" d="M44,81.036h-4c-0.553,0-1,0.448-1,1c0,0.552,0.447,1,1,1h4c0.553,0,1-0.448,1-1
					C45,81.483,44.553,81.036,44,81.036z"/>
			</g>
			<g>
				<path style="fill:#81D2EB;" d="M53,81.036h-4c-0.553,0-1,0.448-1,1c0,0.552,0.447,1,1,1h4c0.553,0,1-0.448,1-1
					C54,81.483,53.553,81.036,53,81.036z"/>
			</g>
			<g>
				<path style="fill:#81D2EB;" d="M62,81.036h-4c-0.553,0-1,0.448-1,1c0,0.552,0.447,1,1,1h4c0.553,0,1-0.448,1-1
					C63,81.483,62.553,81.036,62,81.036z"/>
			</g>
			<g>
				<path style="fill:#81D2EB;" d="M71,81.036h-4c-0.553,0-1,0.448-1,1c0,0.552,0.447,1,1,1h4c0.553,0,1-0.448,1-1
					C72,81.483,71.553,81.036,71,81.036z"/>
			</g>
			<g>
				<path style="fill:#81D2EB;" d="M75,82.036c0,0.552,0.447,1,1,1h0.586l0.8-2H76C75.447,81.036,75,81.483,75,82.036z"/>
			</g>
			<g>
				<path style="fill:#81D2EB;" d="M40,77.036c0-0.552-0.447-1-1-1h-4c-0.553,0-1,0.448-1,1c0,0.552,0.447,1,1,1h4
					C39.553,78.036,40,77.588,40,77.036z"/>
			</g>
			<g>
				<path style="fill:#81D2EB;" d="M43,77.036c0,0.552,0.447,1,1,1h4c0.553,0,1-0.448,1-1c0-0.552-0.447-1-1-1h-4
					C43.447,76.036,43,76.483,43,77.036z"/>
			</g>
			<g>
				<path style="fill:#81D2EB;" d="M52,77.036c0,0.552,0.447,1,1,1h4c0.553,0,1-0.448,1-1c0-0.552-0.447-1-1-1h-4
					C52.447,76.036,52,76.483,52,77.036z"/>
			</g>
			<g>
				<path style="fill:#81D2EB;" d="M61,77.036c0,0.552,0.447,1,1,1h4c0.553,0,1-0.448,1-1c0-0.552-0.447-1-1-1h-4
					C61.447,76.036,61,76.483,61,77.036z"/>
			</g>
			<g>
				<path style="fill:#81D2EB;" d="M75,76.036h-4c-0.553,0-1,0.448-1,1c0,0.552,0.447,1,1,1h4c0.553,0,1-0.448,1-1
					C76,76.483,75.553,76.036,75,76.036z"/>
			</g>
			<g>
				<path style="fill:#81D2EB;" d="M36,72.036c0-0.552-0.447-1-1-1h-6c-0.127,0-0.246,0.029-0.357,0.072l0.771,1.928H35
					C35.553,73.036,36,72.588,36,72.036z"/>
			</g>
			<g>
				<path style="fill:#81D2EB;" d="M40,73.036h4c0.553,0,1-0.448,1-1c0-0.552-0.447-1-1-1h-4c-0.553,0-1,0.448-1,1
					C39,72.588,39.447,73.036,40,73.036z"/>
			</g>
			<g>
				<path style="fill:#81D2EB;" d="M49,73.036h4c0.553,0,1-0.448,1-1c0-0.552-0.447-1-1-1h-4c-0.553,0-1,0.448-1,1
					C48,72.588,48.447,73.036,49,73.036z"/>
			</g>
			<g>
				<path style="fill:#81D2EB;" d="M58,73.036h4c0.553,0,1-0.448,1-1c0-0.552-0.447-1-1-1h-4c-0.553,0-1,0.448-1,1
					C57,72.588,57.447,73.036,58,73.036z"/>
			</g>
			<g>
				<path style="fill:#81D2EB;" d="M67,73.036h4c0.553,0,1-0.448,1-1c0-0.552-0.447-1-1-1h-4c-0.553,0-1,0.448-1,1
					C66,72.588,66.447,73.036,67,73.036z"/>
			</g>
			<g>
				<path style="fill:#81D2EB;" d="M76,71.036c-0.553,0-1,0.448-1,1c0,0.552,0.447,1,1,1h4.586l0.8-2H76z"/>
			</g>
		</g>
		<g>
			<path style="fill:#FFFFFF;" d="M23,65.001c0,1.104,0.896,2,2,2h60c1.104,0,2-0.896,2-2v-2c0-1.105-0.896-2-2-2H25
				c-1.104,0-2,0.895-2,2V65.001z"/>
		</g>
		<path style="fill:#0C333D;" d="M28.141,61h21.848c0.2-9.382-6.648-19.559-15.61-21.741c-1.903-0.464-3.91-0.213-5.64,0.707
			c-4.27,2.27-6.277,7.29-4.751,11.877C24.856,54.454,26.408,57.818,28.141,61z"/>
		<g>
			<path style="fill:#0F6175;" d="M34.378,39.259c-1.903-0.464-3.91-0.213-5.64,0.707c-4.27,2.27-6.277,7.29-4.751,11.877
				c0.751,2.258,2.015,5.08,3.462,7.859l15.469-15.468C40.485,41.829,37.566,40.035,34.378,39.259z"/>
		</g>
		<g>
			<path style="fill:#33899E;" d="M34.822,39.383c2.107,0.58,4.092,1.598,5.889,2.943c-3.398,4.329-8.877,9.851-10.231,8.497
				C29.254,49.598,32.158,43.868,34.822,39.383z"/>
		</g>
		<g>
			<path style="fill:#33899E;" d="M44.465,45.925c1.542,1.861,2.821,3.978,3.759,6.22c-3.412,4.217-8.452,9.178-9.744,7.887
				C36.99,58.542,41.601,50.399,44.465,45.925z"/>
		</g>
	</g>
</g>
<g id="R-Blue" style="display:none;">
	<circle style="display:inline;fill:#81D2EB;" cx="55" cy="55" r="55"/>
	<g style="display:inline;">
		<g>
			<path style="fill:#BBE7F2;" d="M58.76,61H45.575L61.26,26.551c1.373-3.016,4.932-4.348,7.947-2.974
				c3.016,1.373,4.348,4.931,2.974,7.947L58.76,61z"/>
		</g>
		<g>
			<path style="fill:#33899E;" d="M58.76,61l7.526-16.529c1.372-0.702,2.878-1.217,4.531-1.471c2.965-0.457,25,2,10,18H58.76z"/>
		</g>
		<g>
			<path style="fill:#E1F5FA;" d="M72.047,26.286c-0.596-1.155-1.565-2.128-2.84-2.709c-3.016-1.373-6.574-0.042-7.947,2.975
				l-8.795,19.315L72.047,26.286z"/>
		</g>
		<g>
			<path style="fill:#81D2EB;" d="M53.656,43.25c0.789-0.159,1.695-0.25,2.661-0.25c3.038,0,5.5,0.896,5.5,2s-2.462,2-5.5,2
				c-1.614,0-3.062-0.255-4.068-0.658L53.656,43.25z"/>
		</g>
		<g>
			<path style="fill:#81D2EB;" d="M61.029,27.058C61.443,27.021,61.873,27,62.317,27c3.038,0,5.5,0.896,5.5,2c0,1.105-2.462,2-5.5,2
				c-1.083,0-2.09-0.116-2.941-0.312L61.029,27.058z"/>
		</g>
		<g>
			<path style="fill:#81D2EB;" d="M57.352,35.134C57.963,35.049,58.624,35,59.317,35c3.038,0,5.5,0.896,5.5,2s-2.462,2-5.5,2
				c-1.337,0-2.562-0.174-3.516-0.463L57.352,35.134z"/>
		</g>
		<g>
			<circle style="fill:#53BAD4;" cx="73.317" cy="49.536" r="1.5"/>
		</g>
		<g>
			<circle style="fill:#53BAD4;" cx="74.317" cy="57.536" r="1.5"/>
		</g>
		<g>
			<circle style="fill:#53BAD4;" cx="80.317" cy="52.5" r="1.5"/>
		</g>
		<g>
			<circle style="fill:#53BAD4;" cx="67.317" cy="54.5" r="1.5"/>
		</g>
		<g>
			<path style="fill:#81D2EB;" d="M48.555,54.456l1.491-3.276c0.693-0.114,1.461-0.18,2.271-0.18c3.038,0,5.5,0.896,5.5,2
				s-2.462,2-5.5,2C50.86,55,49.539,54.793,48.555,54.456z"/>
		</g>
		<g>
			<polygon style="fill:#53BAD4;" points="56.028,67 56.021,67.018 55.981,67 			"/>
		</g>
		<g>
			<path style="fill:#BBE7F2;" d="M75,72.036c0-0.552,0.447-1,1-1h5.386L83,67H27l1.643,4.108c0.111-0.043,0.23-0.072,0.357-0.072h6
				c0.553,0,1,0.448,1,1c0,0.552-0.447,1-1,1h-5.586l3.2,8H35c0.553,0,1,0.448,1,1c0,0.552-0.447,1-1,1h-1.586l1.083,2.708
				C34.801,86.502,35.536,87,36.354,87h37.292c0.818,0,1.554-0.498,1.857-1.257l1.083-2.708H76c-0.553,0-1-0.448-1-1
				c0-0.552,0.447-1,1-1h1.386l3.2-8H76C75.447,73.036,75,72.588,75,72.036z M67,71.036h4c0.553,0,1,0.448,1,1c0,0.552-0.447,1-1,1
				h-4c-0.553,0-1-0.448-1-1C66,71.483,66.447,71.036,67,71.036z M67,77.036c0,0.552-0.447,1-1,1h-4c-0.553,0-1-0.448-1-1
				c0-0.552,0.447-1,1-1h4C66.553,76.036,67,76.483,67,77.036z M58,71.036h4c0.553,0,1,0.448,1,1c0,0.552-0.447,1-1,1h-4
				c-0.553,0-1-0.448-1-1C57,71.483,57.447,71.036,58,71.036z M58,77.036c0,0.552-0.447,1-1,1h-4c-0.553,0-1-0.448-1-1
				c0-0.552,0.447-1,1-1h4C57.553,76.036,58,76.483,58,77.036z M49,71.036h4c0.553,0,1,0.448,1,1c0,0.552-0.447,1-1,1h-4
				c-0.553,0-1-0.448-1-1C48,71.483,48.447,71.036,49,71.036z M49,77.036c0,0.552-0.447,1-1,1h-4c-0.553,0-1-0.448-1-1
				c0-0.552,0.447-1,1-1h4C48.553,76.036,49,76.483,49,77.036z M40,71.036h4c0.553,0,1,0.448,1,1c0,0.552-0.447,1-1,1h-4
				c-0.553,0-1-0.448-1-1C39,71.483,39.447,71.036,40,71.036z M35,78.036c-0.553,0-1-0.448-1-1c0-0.552,0.447-1,1-1h4
				c0.553,0,1,0.448,1,1c0,0.552-0.447,1-1,1H35z M44,83.036h-4c-0.553,0-1-0.448-1-1c0-0.552,0.447-1,1-1h4c0.553,0,1,0.448,1,1
				C45,82.588,44.553,83.036,44,83.036z M53,83.036h-4c-0.553,0-1-0.448-1-1c0-0.552,0.447-1,1-1h4c0.553,0,1,0.448,1,1
				C54,82.588,53.553,83.036,53,83.036z M62,83.036h-4c-0.553,0-1-0.448-1-1c0-0.552,0.447-1,1-1h4c0.553,0,1,0.448,1,1
				C63,82.588,62.553,83.036,62,83.036z M71,83.036h-4c-0.553,0-1-0.448-1-1c0-0.552,0.447-1,1-1h4c0.553,0,1,0.448,1,1
				C72,82.588,71.553,83.036,71,83.036z M75,78.036h-4c-0.553,0-1-0.448-1-1c0-0.552,0.447-1,1-1h4c0.553,0,1,0.448,1,1
				C76,77.588,75.553,78.036,75,78.036z"/>
		</g>
		<g>
			<g>
				<path style="fill:#81D2EB;" d="M36,82.036c0-0.552-0.447-1-1-1h-2.386l0.8,2H35C35.553,83.036,36,82.588,36,82.036z"/>
			</g>
			<g>
				<path style="fill:#81D2EB;" d="M44,81.036h-4c-0.553,0-1,0.448-1,1c0,0.552,0.447,1,1,1h4c0.553,0,1-0.448,1-1
					C45,81.483,44.553,81.036,44,81.036z"/>
			</g>
			<g>
				<path style="fill:#81D2EB;" d="M53,81.036h-4c-0.553,0-1,0.448-1,1c0,0.552,0.447,1,1,1h4c0.553,0,1-0.448,1-1
					C54,81.483,53.553,81.036,53,81.036z"/>
			</g>
			<g>
				<path style="fill:#81D2EB;" d="M62,81.036h-4c-0.553,0-1,0.448-1,1c0,0.552,0.447,1,1,1h4c0.553,0,1-0.448,1-1
					C63,81.483,62.553,81.036,62,81.036z"/>
			</g>
			<g>
				<path style="fill:#81D2EB;" d="M71,81.036h-4c-0.553,0-1,0.448-1,1c0,0.552,0.447,1,1,1h4c0.553,0,1-0.448,1-1
					C72,81.483,71.553,81.036,71,81.036z"/>
			</g>
			<g>
				<path style="fill:#81D2EB;" d="M75,82.036c0,0.552,0.447,1,1,1h0.586l0.8-2H76C75.447,81.036,75,81.483,75,82.036z"/>
			</g>
			<g>
				<path style="fill:#81D2EB;" d="M40,77.036c0-0.552-0.447-1-1-1h-4c-0.553,0-1,0.448-1,1c0,0.552,0.447,1,1,1h4
					C39.553,78.036,40,77.588,40,77.036z"/>
			</g>
			<g>
				<path style="fill:#81D2EB;" d="M43,77.036c0,0.552,0.447,1,1,1h4c0.553,0,1-0.448,1-1c0-0.552-0.447-1-1-1h-4
					C43.447,76.036,43,76.483,43,77.036z"/>
			</g>
			<g>
				<path style="fill:#81D2EB;" d="M52,77.036c0,0.552,0.447,1,1,1h4c0.553,0,1-0.448,1-1c0-0.552-0.447-1-1-1h-4
					C52.447,76.036,52,76.483,52,77.036z"/>
			</g>
			<g>
				<path style="fill:#81D2EB;" d="M61,77.036c0,0.552,0.447,1,1,1h4c0.553,0,1-0.448,1-1c0-0.552-0.447-1-1-1h-4
					C61.447,76.036,61,76.483,61,77.036z"/>
			</g>
			<g>
				<path style="fill:#81D2EB;" d="M75,76.036h-4c-0.553,0-1,0.448-1,1c0,0.552,0.447,1,1,1h4c0.553,0,1-0.448,1-1
					C76,76.483,75.553,76.036,75,76.036z"/>
			</g>
			<g>
				<path style="fill:#81D2EB;" d="M36,72.036c0-0.552-0.447-1-1-1h-6c-0.127,0-0.246,0.029-0.357,0.072l0.771,1.928H35
					C35.553,73.036,36,72.588,36,72.036z"/>
			</g>
			<g>
				<path style="fill:#81D2EB;" d="M40,73.036h4c0.553,0,1-0.448,1-1c0-0.552-0.447-1-1-1h-4c-0.553,0-1,0.448-1,1
					C39,72.588,39.447,73.036,40,73.036z"/>
			</g>
			<g>
				<path style="fill:#81D2EB;" d="M49,73.036h4c0.553,0,1-0.448,1-1c0-0.552-0.447-1-1-1h-4c-0.553,0-1,0.448-1,1
					C48,72.588,48.447,73.036,49,73.036z"/>
			</g>
			<g>
				<path style="fill:#81D2EB;" d="M58,73.036h4c0.553,0,1-0.448,1-1c0-0.552-0.447-1-1-1h-4c-0.553,0-1,0.448-1,1
					C57,72.588,57.447,73.036,58,73.036z"/>
			</g>
			<g>
				<path style="fill:#81D2EB;" d="M67,73.036h4c0.553,0,1-0.448,1-1c0-0.552-0.447-1-1-1h-4c-0.553,0-1,0.448-1,1
					C66,72.588,66.447,73.036,67,73.036z"/>
			</g>
			<g>
				<path style="fill:#81D2EB;" d="M76,71.036c-0.553,0-1,0.448-1,1c0,0.552,0.447,1,1,1h4.586l0.8-2H76z"/>
			</g>
		</g>
		<g>
			<path style="fill:#FFFFFF;" d="M23,65c0,1.104,0.896,2,2,2h60c1.104,0,2-0.896,2-2v-2c0-1.105-0.896-2-2-2H25
				c-1.104,0-2,0.895-2,2V65z"/>
		</g>
		<path style="fill:#0C333D;" d="M28.141,61h21.848c0.2-9.382-6.648-19.559-15.61-21.741c-1.903-0.464-3.91-0.213-5.64,0.707
			c-4.27,2.27-6.277,7.29-4.751,11.877C24.856,54.454,26.408,57.818,28.141,61z"/>
		<g>
			<path style="fill:#0F6175;" d="M34.378,39.259c-1.903-0.464-3.91-0.213-5.64,0.707c-4.27,2.27-6.277,7.29-4.751,11.877
				c0.751,2.258,2.015,5.08,3.462,7.859l15.469-15.468C40.485,41.829,37.566,40.035,34.378,39.259z"/>
		</g>
		<g>
			<path style="fill:#33899E;" d="M34.822,39.383c2.107,0.58,4.092,1.598,5.889,2.943c-3.398,4.329-8.877,9.851-10.231,8.497
				C29.254,49.598,32.158,43.868,34.822,39.383z"/>
		</g>
		<g>
			<path style="fill:#33899E;" d="M44.465,45.925c1.542,1.861,2.821,3.978,3.759,6.22c-3.412,4.217-8.452,9.178-9.744,7.887
				C36.99,58.542,41.601,50.399,44.465,45.925z"/>
		</g>
	</g>
</g>
<g id="Green" style="display:none;">
	<g style="display:inline;">
		<g>
			<path style="fill:#AAF0E9;" d="M58.76,61H45.575L61.26,26.551c1.373-3.016,4.932-4.348,7.947-2.974
				c3.016,1.373,4.348,4.931,2.974,7.947L58.76,61z"/>
		</g>
		<g>
			<path style="fill:#3E948B;" d="M58.76,61l7.526-16.529c1.372-0.702,2.878-1.217,4.531-1.471c2.965-0.457,25,2,10,18H58.76z"/>
		</g>
		<g>
			<path style="fill:#D7FCF9;" d="M72.047,26.286c-0.596-1.155-1.565-2.128-2.84-2.709c-3.016-1.373-6.574-0.042-7.947,2.975
				l-8.795,19.315L72.047,26.286z"/>
		</g>
		<g>
			<path style="fill:#77E0C4;" d="M53.656,43.25c0.789-0.159,1.695-0.25,2.661-0.25c3.038,0,5.5,0.896,5.5,2s-2.462,2-5.5,2
				c-1.614,0-3.062-0.255-4.068-0.658L53.656,43.25z"/>
		</g>
		<g>
			<path style="fill:#77E0C4;" d="M61.029,27.058C61.443,27.021,61.873,27,62.317,27c3.038,0,5.5,0.896,5.5,2s-2.462,2-5.5,2
				c-1.083,0-2.09-0.116-2.941-0.312L61.029,27.058z"/>
		</g>
		<g>
			<path style="fill:#77E0C4;" d="M57.352,35.134C57.963,35.049,58.624,35,59.317,35c3.038,0,5.5,0.896,5.5,2s-2.462,2-5.5,2
				c-1.337,0-2.562-0.174-3.516-0.463L57.352,35.134z"/>
		</g>
		<g>
			<circle style="fill:#55C9BE;" cx="73.317" cy="49.536" r="1.5"/>
		</g>
		<g>
			<circle style="fill:#55C9BE;" cx="74.317" cy="57.536" r="1.5"/>
		</g>
		<g>
			<circle style="fill:#55C9BE;" cx="80.317" cy="52.5" r="1.5"/>
		</g>
		<g>
			<circle style="fill:#55C9BE;" cx="67.317" cy="54.5" r="1.5"/>
		</g>
		<g>
			<path style="fill:#77E0C4;" d="M48.555,54.456l1.491-3.276c0.693-0.114,1.461-0.18,2.271-0.18c3.038,0,5.5,0.896,5.5,2
				s-2.462,2-5.5,2C50.86,55,49.539,54.793,48.555,54.456z"/>
		</g>
		<g>
			<polygon style="fill:#55C9BE;" points="56.028,67.001 56.02,67.018 55.981,67.001 			"/>
		</g>
		<g>
			<path style="fill:#AAF0E9;" d="M75,72.036c0-0.552,0.447-1,1-1h5.386L83,67H27l1.643,4.108c0.111-0.043,0.23-0.072,0.357-0.072h6
				c0.553,0,1,0.448,1,1c0,0.552-0.447,1-1,1h-5.586l3.2,8H35c0.553,0,1,0.448,1,1c0,0.552-0.447,1-1,1h-1.586l1.083,2.708
				C34.801,86.502,35.536,87,36.353,87h37.292c0.818,0,1.554-0.498,1.857-1.257l1.083-2.708H76c-0.553,0-1-0.448-1-1
				c0-0.552,0.447-1,1-1h1.386l3.2-8H76C75.447,73.036,75,72.588,75,72.036z M67,71.036h4c0.553,0,1,0.448,1,1c0,0.552-0.447,1-1,1
				h-4c-0.553,0-1-0.448-1-1C66,71.483,66.447,71.036,67,71.036z M67,77.036c0,0.552-0.447,1-1,1h-4c-0.553,0-1-0.448-1-1
				c0-0.552,0.447-1,1-1h4C66.553,76.036,67,76.483,67,77.036z M58,71.036h4c0.553,0,1,0.448,1,1c0,0.552-0.447,1-1,1h-4
				c-0.553,0-1-0.448-1-1C57,71.483,57.447,71.036,58,71.036z M58,77.036c0,0.552-0.447,1-1,1h-4c-0.553,0-1-0.448-1-1
				c0-0.552,0.447-1,1-1h4C57.553,76.036,58,76.483,58,77.036z M49,71.036h4c0.553,0,1,0.448,1,1c0,0.552-0.447,1-1,1h-4
				c-0.553,0-1-0.448-1-1C48,71.483,48.447,71.036,49,71.036z M49,77.036c0,0.552-0.447,1-1,1h-4c-0.553,0-1-0.448-1-1
				c0-0.552,0.447-1,1-1h4C48.553,76.036,49,76.483,49,77.036z M40,71.036h4c0.553,0,1,0.448,1,1c0,0.552-0.447,1-1,1h-4
				c-0.553,0-1-0.448-1-1C39,71.483,39.447,71.036,40,71.036z M35,78.036c-0.553,0-1-0.448-1-1c0-0.552,0.447-1,1-1h4
				c0.553,0,1,0.448,1,1c0,0.552-0.447,1-1,1H35z M44,83.036h-4c-0.553,0-1-0.448-1-1c0-0.552,0.447-1,1-1h4c0.553,0,1,0.448,1,1
				C45,82.588,44.553,83.036,44,83.036z M53,83.036h-4c-0.553,0-1-0.448-1-1c0-0.552,0.447-1,1-1h4c0.553,0,1,0.448,1,1
				C54,82.588,53.553,83.036,53,83.036z M62,83.036h-4c-0.553,0-1-0.448-1-1c0-0.552,0.447-1,1-1h4c0.553,0,1,0.448,1,1
				C63,82.588,62.553,83.036,62,83.036z M71,83.036h-4c-0.553,0-1-0.448-1-1c0-0.552,0.447-1,1-1h4c0.553,0,1,0.448,1,1
				C72,82.588,71.553,83.036,71,83.036z M75,78.036h-4c-0.553,0-1-0.448-1-1c0-0.552,0.447-1,1-1h4c0.553,0,1,0.448,1,1
				C76,77.588,75.553,78.036,75,78.036z"/>
		</g>
		<g>
			<g>
				<path style="fill:#77E0C4;" d="M36,82.036c0-0.552-0.447-1-1-1h-2.386l0.8,2H35C35.553,83.036,36,82.588,36,82.036z"/>
			</g>
			<g>
				<path style="fill:#77E0C4;" d="M44,81.036h-4c-0.553,0-1,0.448-1,1c0,0.552,0.447,1,1,1h4c0.553,0,1-0.448,1-1
					C45,81.483,44.553,81.036,44,81.036z"/>
			</g>
			<g>
				<path style="fill:#77E0C4;" d="M53,81.036h-4c-0.553,0-1,0.448-1,1c0,0.552,0.447,1,1,1h4c0.553,0,1-0.448,1-1
					C54,81.483,53.553,81.036,53,81.036z"/>
			</g>
			<g>
				<path style="fill:#77E0C4;" d="M62,81.036h-4c-0.553,0-1,0.448-1,1c0,0.552,0.447,1,1,1h4c0.553,0,1-0.448,1-1
					C63,81.483,62.553,81.036,62,81.036z"/>
			</g>
			<g>
				<path style="fill:#77E0C4;" d="M71,81.036h-4c-0.553,0-1,0.448-1,1c0,0.552,0.447,1,1,1h4c0.553,0,1-0.448,1-1
					C72,81.483,71.553,81.036,71,81.036z"/>
			</g>
			<g>
				<path style="fill:#77E0C4;" d="M75,82.036c0,0.552,0.447,1,1,1h0.586l0.8-2H76C75.447,81.036,75,81.483,75,82.036z"/>
			</g>
			<g>
				<path style="fill:#77E0C4;" d="M40,77.036c0-0.552-0.447-1-1-1h-4c-0.553,0-1,0.448-1,1c0,0.552,0.447,1,1,1h4
					C39.553,78.036,40,77.588,40,77.036z"/>
			</g>
			<g>
				<path style="fill:#77E0C4;" d="M43,77.036c0,0.552,0.447,1,1,1h4c0.553,0,1-0.448,1-1c0-0.552-0.447-1-1-1h-4
					C43.447,76.036,43,76.483,43,77.036z"/>
			</g>
			<g>
				<path style="fill:#77E0C4;" d="M52,77.036c0,0.552,0.447,1,1,1h4c0.553,0,1-0.448,1-1c0-0.552-0.447-1-1-1h-4
					C52.447,76.036,52,76.483,52,77.036z"/>
			</g>
			<g>
				<path style="fill:#77E0C4;" d="M61,77.036c0,0.552,0.447,1,1,1h4c0.553,0,1-0.448,1-1c0-0.552-0.447-1-1-1h-4
					C61.447,76.036,61,76.483,61,77.036z"/>
			</g>
			<g>
				<path style="fill:#77E0C4;" d="M75,76.036h-4c-0.553,0-1,0.448-1,1c0,0.552,0.447,1,1,1h4c0.553,0,1-0.448,1-1
					C76,76.483,75.553,76.036,75,76.036z"/>
			</g>
			<g>
				<path style="fill:#77E0C4;" d="M36,72.036c0-0.552-0.447-1-1-1h-6c-0.127,0-0.246,0.029-0.357,0.072l0.771,1.928H35
					C35.553,73.036,36,72.588,36,72.036z"/>
			</g>
			<g>
				<path style="fill:#77E0C4;" d="M40,73.036h4c0.553,0,1-0.448,1-1c0-0.552-0.447-1-1-1h-4c-0.553,0-1,0.448-1,1
					C39,72.588,39.447,73.036,40,73.036z"/>
			</g>
			<g>
				<path style="fill:#77E0C4;" d="M49,73.036h4c0.553,0,1-0.448,1-1c0-0.552-0.447-1-1-1h-4c-0.553,0-1,0.448-1,1
					C48,72.588,48.447,73.036,49,73.036z"/>
			</g>
			<g>
				<path style="fill:#77E0C4;" d="M58,73.036h4c0.553,0,1-0.448,1-1c0-0.552-0.447-1-1-1h-4c-0.553,0-1,0.448-1,1
					C57,72.588,57.447,73.036,58,73.036z"/>
			</g>
			<g>
				<path style="fill:#77E0C4;" d="M67,73.036h4c0.553,0,1-0.448,1-1c0-0.552-0.447-1-1-1h-4c-0.553,0-1,0.448-1,1
					C66,72.588,66.447,73.036,67,73.036z"/>
			</g>
			<g>
				<path style="fill:#77E0C4;" d="M76,71.036c-0.553,0-1,0.448-1,1c0,0.552,0.447,1,1,1h4.586l0.8-2H76z"/>
			</g>
		</g>
		<g>
			<path style="fill:#FFFFFF;" d="M23,65.001c0,1.104,0.896,2,2,2h60c1.104,0,2-0.896,2-2v-2c0-1.105-0.896-2-2-2H25
				c-1.104,0-2,0.895-2,2V65.001z"/>
		</g>
		<path style="fill:#0A3631;" d="M28.141,61h21.848c0.2-9.382-6.648-19.559-15.61-21.741c-1.903-0.464-3.91-0.213-5.64,0.707
			c-4.27,2.27-6.277,7.29-4.751,11.877C24.855,54.454,26.408,57.818,28.141,61z"/>
		<g>
			<path style="fill:#14635B;" d="M34.378,39.259c-1.903-0.464-3.91-0.213-5.64,0.707c-4.27,2.27-6.277,7.29-4.751,11.877
				c0.751,2.258,2.015,5.08,3.462,7.859l15.469-15.468C40.485,41.829,37.566,40.035,34.378,39.259z"/>
		</g>
		<g>
			<path style="fill:#3E948B;" d="M34.822,39.383c2.107,0.58,4.092,1.598,5.889,2.943c-3.398,4.329-8.877,9.852-10.231,8.497
				C29.254,49.598,32.158,43.868,34.822,39.383z"/>
		</g>
		<g>
			<path style="fill:#3E948B;" d="M44.465,45.925c1.542,1.861,2.821,3.978,3.759,6.22c-3.412,4.217-8.452,9.178-9.744,7.887
				C36.99,58.542,41.601,50.399,44.465,45.925z"/>
		</g>
	</g>
</g>
<g id="R-Green" style="display:none;">
	<circle style="display:inline;fill:#77E0C4;" cx="55" cy="55" r="55"/>
	<g style="display:inline;">
		<g>
			<path style="fill:#AAF0E9;" d="M58.76,61H45.575L61.26,26.551c1.373-3.016,4.932-4.348,7.947-2.974
				c3.016,1.373,4.348,4.931,2.974,7.947L58.76,61z"/>
		</g>
		<g>
			<path style="fill:#3E948B;" d="M58.76,61l7.526-16.529c1.372-0.702,2.878-1.217,4.531-1.471c2.965-0.457,25,2,10,18H58.76z"/>
		</g>
		<g>
			<path style="fill:#D7FCF9;" d="M72.047,26.286c-0.596-1.155-1.565-2.128-2.84-2.709c-3.016-1.373-6.574-0.042-7.947,2.975
				l-8.795,19.315L72.047,26.286z"/>
		</g>
		<g>
			<path style="fill:#77E0C4;" d="M53.656,43.25c0.789-0.159,1.695-0.25,2.661-0.25c3.038,0,5.5,0.896,5.5,2s-2.462,2-5.5,2
				c-1.614,0-3.062-0.255-4.068-0.658L53.656,43.25z"/>
		</g>
		<g>
			<path style="fill:#77E0C4;" d="M61.029,27.058C61.443,27.021,61.873,27,62.317,27c3.038,0,5.5,0.896,5.5,2c0,1.105-2.462,2-5.5,2
				c-1.083,0-2.09-0.116-2.941-0.312L61.029,27.058z"/>
		</g>
		<g>
			<path style="fill:#77E0C4;" d="M57.352,35.134C57.963,35.049,58.624,35,59.317,35c3.038,0,5.5,0.896,5.5,2s-2.462,2-5.5,2
				c-1.337,0-2.561-0.174-3.516-0.463L57.352,35.134z"/>
		</g>
		<g>
			<circle style="fill:#55C9BE;" cx="73.317" cy="49.536" r="1.5"/>
		</g>
		<g>
			<circle style="fill:#55C9BE;" cx="74.317" cy="57.536" r="1.5"/>
		</g>
		<g>
			<circle style="fill:#55C9BE;" cx="80.317" cy="52.5" r="1.5"/>
		</g>
		<g>
			<circle style="fill:#55C9BE;" cx="67.317" cy="54.5" r="1.5"/>
		</g>
		<g>
			<path style="fill:#77E0C4;" d="M48.555,54.456l1.491-3.276c0.693-0.114,1.461-0.18,2.271-0.18c3.038,0,5.5,0.896,5.5,2
				s-2.462,2-5.5,2C50.86,55,49.539,54.793,48.555,54.456z"/>
		</g>
		<g>
			<polygon style="fill:#55C9BE;" points="56.028,67.001 56.021,67.018 55.981,67.001 			"/>
		</g>
		<g>
			<path style="fill:#AAF0E9;" d="M75,72.036c0-0.552,0.447-1,1-1h5.386L83,67H27l1.643,4.108c0.111-0.043,0.23-0.072,0.357-0.072h6
				c0.553,0,1,0.448,1,1c0,0.552-0.447,1-1,1h-5.586l3.2,8H35c0.553,0,1,0.448,1,1c0,0.552-0.447,1-1,1h-1.586l1.083,2.708
				C34.801,86.502,35.536,87,36.354,87h37.292c0.818,0,1.554-0.498,1.857-1.257l1.083-2.708H76c-0.553,0-1-0.448-1-1
				c0-0.552,0.447-1,1-1h1.386l3.2-8H76C75.447,73.036,75,72.588,75,72.036z M67,71.036h4c0.553,0,1,0.448,1,1c0,0.552-0.447,1-1,1
				h-4c-0.553,0-1-0.448-1-1C66,71.483,66.447,71.036,67,71.036z M67,77.036c0,0.552-0.447,1-1,1h-4c-0.553,0-1-0.448-1-1
				c0-0.552,0.447-1,1-1h4C66.553,76.036,67,76.483,67,77.036z M58,71.036h4c0.553,0,1,0.448,1,1c0,0.552-0.447,1-1,1h-4
				c-0.553,0-1-0.448-1-1C57,71.483,57.447,71.036,58,71.036z M58,77.036c0,0.552-0.447,1-1,1h-4c-0.553,0-1-0.448-1-1
				c0-0.552,0.447-1,1-1h4C57.553,76.036,58,76.483,58,77.036z M49,71.036h4c0.553,0,1,0.448,1,1c0,0.552-0.447,1-1,1h-4
				c-0.553,0-1-0.448-1-1C48,71.483,48.447,71.036,49,71.036z M49,77.036c0,0.552-0.447,1-1,1h-4c-0.553,0-1-0.448-1-1
				c0-0.552,0.447-1,1-1h4C48.553,76.036,49,76.483,49,77.036z M40,71.036h4c0.553,0,1,0.448,1,1c0,0.552-0.447,1-1,1h-4
				c-0.553,0-1-0.448-1-1C39,71.483,39.447,71.036,40,71.036z M35,78.036c-0.553,0-1-0.448-1-1c0-0.552,0.447-1,1-1h4
				c0.553,0,1,0.448,1,1c0,0.552-0.447,1-1,1H35z M44,83.036h-4c-0.553,0-1-0.448-1-1c0-0.552,0.447-1,1-1h4c0.553,0,1,0.448,1,1
				C45,82.588,44.553,83.036,44,83.036z M53,83.036h-4c-0.553,0-1-0.448-1-1c0-0.552,0.447-1,1-1h4c0.553,0,1,0.448,1,1
				C54,82.588,53.553,83.036,53,83.036z M62,83.036h-4c-0.553,0-1-0.448-1-1c0-0.552,0.447-1,1-1h4c0.553,0,1,0.448,1,1
				C63,82.588,62.553,83.036,62,83.036z M71,83.036h-4c-0.553,0-1-0.448-1-1c0-0.552,0.447-1,1-1h4c0.553,0,1,0.448,1,1
				C72,82.588,71.553,83.036,71,83.036z M75,78.036h-4c-0.553,0-1-0.448-1-1c0-0.552,0.447-1,1-1h4c0.553,0,1,0.448,1,1
				C76,77.588,75.553,78.036,75,78.036z"/>
		</g>
		<g>
			<g>
				<path style="fill:#77E0C4;" d="M36,82.036c0-0.552-0.447-1-1-1h-2.386l0.8,2H35C35.553,83.036,36,82.588,36,82.036z"/>
			</g>
			<g>
				<path style="fill:#77E0C4;" d="M44,81.036h-4c-0.553,0-1,0.448-1,1c0,0.552,0.447,1,1,1h4c0.553,0,1-0.448,1-1
					C45,81.483,44.553,81.036,44,81.036z"/>
			</g>
			<g>
				<path style="fill:#77E0C4;" d="M53,81.036h-4c-0.553,0-1,0.448-1,1c0,0.552,0.447,1,1,1h4c0.553,0,1-0.448,1-1
					C54,81.483,53.553,81.036,53,81.036z"/>
			</g>
			<g>
				<path style="fill:#77E0C4;" d="M62,81.036h-4c-0.553,0-1,0.448-1,1c0,0.552,0.447,1,1,1h4c0.553,0,1-0.448,1-1
					C63,81.483,62.553,81.036,62,81.036z"/>
			</g>
			<g>
				<path style="fill:#77E0C4;" d="M71,81.036h-4c-0.553,0-1,0.448-1,1c0,0.552,0.447,1,1,1h4c0.553,0,1-0.448,1-1
					C72,81.483,71.553,81.036,71,81.036z"/>
			</g>
			<g>
				<path style="fill:#77E0C4;" d="M75,82.036c0,0.552,0.447,1,1,1h0.586l0.8-2H76C75.447,81.036,75,81.483,75,82.036z"/>
			</g>
			<g>
				<path style="fill:#77E0C4;" d="M40,77.036c0-0.552-0.447-1-1-1h-4c-0.553,0-1,0.448-1,1c0,0.552,0.447,1,1,1h4
					C39.553,78.036,40,77.588,40,77.036z"/>
			</g>
			<g>
				<path style="fill:#77E0C4;" d="M43,77.036c0,0.552,0.447,1,1,1h4c0.553,0,1-0.448,1-1c0-0.552-0.447-1-1-1h-4
					C43.447,76.036,43,76.483,43,77.036z"/>
			</g>
			<g>
				<path style="fill:#77E0C4;" d="M52,77.036c0,0.552,0.447,1,1,1h4c0.553,0,1-0.448,1-1c0-0.552-0.447-1-1-1h-4
					C52.447,76.036,52,76.483,52,77.036z"/>
			</g>
			<g>
				<path style="fill:#77E0C4;" d="M61,77.036c0,0.552,0.447,1,1,1h4c0.553,0,1-0.448,1-1c0-0.552-0.447-1-1-1h-4
					C61.447,76.036,61,76.483,61,77.036z"/>
			</g>
			<g>
				<path style="fill:#77E0C4;" d="M75,76.036h-4c-0.553,0-1,0.448-1,1c0,0.552,0.447,1,1,1h4c0.553,0,1-0.448,1-1
					C76,76.483,75.553,76.036,75,76.036z"/>
			</g>
			<g>
				<path style="fill:#77E0C4;" d="M36,72.036c0-0.552-0.447-1-1-1h-6c-0.127,0-0.246,0.029-0.357,0.072l0.772,1.928H35
					C35.553,73.036,36,72.588,36,72.036z"/>
			</g>
			<g>
				<path style="fill:#77E0C4;" d="M40,73.036h4c0.553,0,1-0.448,1-1c0-0.552-0.447-1-1-1h-4c-0.553,0-1,0.448-1,1
					C39,72.588,39.447,73.036,40,73.036z"/>
			</g>
			<g>
				<path style="fill:#77E0C4;" d="M49,73.036h4c0.553,0,1-0.448,1-1c0-0.552-0.447-1-1-1h-4c-0.553,0-1,0.448-1,1
					C48,72.588,48.447,73.036,49,73.036z"/>
			</g>
			<g>
				<path style="fill:#77E0C4;" d="M58,73.036h4c0.553,0,1-0.448,1-1c0-0.552-0.447-1-1-1h-4c-0.553,0-1,0.448-1,1
					C57,72.588,57.447,73.036,58,73.036z"/>
			</g>
			<g>
				<path style="fill:#77E0C4;" d="M67,73.036h4c0.553,0,1-0.448,1-1c0-0.552-0.447-1-1-1h-4c-0.553,0-1,0.448-1,1
					C66,72.588,66.447,73.036,67,73.036z"/>
			</g>
			<g>
				<path style="fill:#77E0C4;" d="M76,71.036c-0.553,0-1,0.448-1,1c0,0.552,0.447,1,1,1h4.586l0.8-2H76z"/>
			</g>
		</g>
		<g>
			<path style="fill:#FFFFFF;" d="M23,65.001c0,1.104,0.896,2,2,2h60c1.104,0,2-0.896,2-2v-2c0-1.105-0.896-2-2-2H25
				c-1.104,0-2,0.895-2,2V65.001z"/>
		</g>
		<path style="fill:#0A3631;" d="M28.141,61h21.848c0.2-9.382-6.648-19.559-15.61-21.741c-1.903-0.464-3.91-0.213-5.64,0.707
			c-4.27,2.27-6.277,7.29-4.751,11.877C24.855,54.454,26.408,57.818,28.141,61z"/>
		<g>
			<path style="fill:#14635B;" d="M34.378,39.259c-1.903-0.464-3.91-0.213-5.64,0.707c-4.27,2.27-6.277,7.29-4.751,11.877
				c0.751,2.258,2.015,5.08,3.462,7.859l15.469-15.468C40.485,41.829,37.566,40.035,34.378,39.259z"/>
		</g>
		<g>
			<path style="fill:#3E948B;" d="M34.822,39.383c2.107,0.58,4.092,1.598,5.889,2.943c-3.398,4.329-8.877,9.851-10.231,8.497
				C29.254,49.598,32.158,43.868,34.822,39.383z"/>
		</g>
		<g>
			<path style="fill:#3E948B;" d="M44.465,45.925c1.542,1.861,2.821,3.978,3.759,6.22c-3.412,4.217-8.452,9.178-9.744,7.887
				C36.99,58.542,41.601,50.399,44.465,45.925z"/>
		</g>
	</g>
</g>
<g id="Red" style="display:none;">
	<g style="display:inline;">
		<g>
			<path style="fill:#FFD7D4;" d="M58.76,61H45.575L61.26,26.551c1.373-3.016,4.932-4.348,7.947-2.974
				c3.016,1.373,4.348,4.931,2.974,7.947L58.76,61z"/>
		</g>
		<g>
			<path style="fill:#B84E44;" d="M58.76,61l7.526-16.529c1.372-0.702,2.878-1.217,4.531-1.471c2.965-0.457,25,2,10,18H58.76z"/>
		</g>
		<g>
			<path style="fill:#FFEFED;" d="M72.047,26.286c-0.596-1.155-1.565-2.128-2.84-2.709c-3.016-1.373-6.574-0.042-7.947,2.975
				l-8.795,19.315L72.047,26.286z"/>
		</g>
		<g>
			<path style="fill:#FABBAF;" d="M53.656,43.25c0.789-0.159,1.695-0.25,2.661-0.25c3.038,0,5.5,0.896,5.5,2s-2.462,2-5.5,2
				c-1.614,0-3.062-0.255-4.068-0.658L53.656,43.25z"/>
		</g>
		<g>
			<path style="fill:#FABBAF;" d="M61.029,27.058C61.443,27.021,61.873,27,62.317,27c3.038,0,5.5,0.896,5.5,2s-2.462,2-5.5,2
				c-1.083,0-2.09-0.116-2.941-0.312L61.029,27.058z"/>
		</g>
		<g>
			<path style="fill:#FABBAF;" d="M57.352,35.134C57.963,35.049,58.624,35,59.317,35c3.038,0,5.5,0.896,5.5,2s-2.462,2-5.5,2
				c-1.337,0-2.562-0.174-3.516-0.463L57.352,35.134z"/>
		</g>
		<g>
			<circle style="fill:#E8A099;" cx="73.317" cy="49.536" r="1.5"/>
		</g>
		<g>
			<circle style="fill:#E8A099;" cx="74.317" cy="57.536" r="1.5"/>
		</g>
		<g>
			<circle style="fill:#E8A099;" cx="80.317" cy="52.5" r="1.5"/>
		</g>
		<g>
			<circle style="fill:#E8A099;" cx="67.317" cy="54.5" r="1.5"/>
		</g>
		<g>
			<path style="fill:#FABBAF;" d="M48.555,54.456l1.491-3.276c0.693-0.114,1.461-0.18,2.271-0.18c3.038,0,5.5,0.896,5.5,2
				s-2.462,2-5.5,2C50.86,55,49.539,54.793,48.555,54.456z"/>
		</g>
		<g>
			<polygon style="fill:#E8A099;" points="56.028,67.001 56.021,67.018 55.981,67.001 			"/>
		</g>
		<g>
			<path style="fill:#FFD7D4;" d="M75,72.036c0-0.552,0.447-1,1-1h5.386L83,67H27l1.643,4.108c0.111-0.043,0.23-0.072,0.357-0.072h6
				c0.553,0,1,0.448,1,1c0,0.552-0.447,1-1,1h-5.586l3.2,8H35c0.553,0,1,0.448,1,1c0,0.552-0.447,1-1,1h-1.586l1.083,2.708
				C34.801,86.502,35.536,87,36.354,87h37.292c0.818,0,1.554-0.498,1.857-1.257l1.083-2.708H76c-0.553,0-1-0.448-1-1
				c0-0.552,0.447-1,1-1h1.386l3.2-8H76C75.447,73.036,75,72.588,75,72.036z M67,71.036h4c0.553,0,1,0.448,1,1c0,0.552-0.447,1-1,1
				h-4c-0.553,0-1-0.448-1-1C66,71.483,66.447,71.036,67,71.036z M67,77.036c0,0.552-0.447,1-1,1h-4c-0.553,0-1-0.448-1-1
				c0-0.552,0.447-1,1-1h4C66.553,76.036,67,76.483,67,77.036z M58,71.036h4c0.553,0,1,0.448,1,1c0,0.552-0.447,1-1,1h-4
				c-0.553,0-1-0.448-1-1C57,71.483,57.447,71.036,58,71.036z M58,77.036c0,0.552-0.447,1-1,1h-4c-0.553,0-1-0.448-1-1
				c0-0.552,0.447-1,1-1h4C57.553,76.036,58,76.483,58,77.036z M49,71.036h4c0.553,0,1,0.448,1,1c0,0.552-0.447,1-1,1h-4
				c-0.553,0-1-0.448-1-1C48,71.483,48.447,71.036,49,71.036z M49,77.036c0,0.552-0.447,1-1,1h-4c-0.553,0-1-0.448-1-1
				c0-0.552,0.447-1,1-1h4C48.553,76.036,49,76.483,49,77.036z M40,71.036h4c0.553,0,1,0.448,1,1c0,0.552-0.447,1-1,1h-4
				c-0.553,0-1-0.448-1-1C39,71.483,39.447,71.036,40,71.036z M35,78.036c-0.553,0-1-0.448-1-1c0-0.552,0.447-1,1-1h4
				c0.553,0,1,0.448,1,1c0,0.552-0.447,1-1,1H35z M44,83.036h-4c-0.553,0-1-0.448-1-1c0-0.552,0.447-1,1-1h4c0.553,0,1,0.448,1,1
				C45,82.588,44.553,83.036,44,83.036z M53,83.036h-4c-0.553,0-1-0.448-1-1c0-0.552,0.447-1,1-1h4c0.553,0,1,0.448,1,1
				C54,82.588,53.553,83.036,53,83.036z M62,83.036h-4c-0.553,0-1-0.448-1-1c0-0.552,0.447-1,1-1h4c0.553,0,1,0.448,1,1
				C63,82.588,62.553,83.036,62,83.036z M71,83.036h-4c-0.553,0-1-0.448-1-1c0-0.552,0.447-1,1-1h4c0.553,0,1,0.448,1,1
				C72,82.588,71.553,83.036,71,83.036z M75,78.036h-4c-0.553,0-1-0.448-1-1c0-0.552,0.447-1,1-1h4c0.553,0,1,0.448,1,1
				C76,77.588,75.553,78.036,75,78.036z"/>
		</g>
		<g>
			<g>
				<path style="fill:#FABBAF;" d="M36,82.036c0-0.552-0.447-1-1-1h-2.386l0.8,2H35C35.553,83.036,36,82.588,36,82.036z"/>
			</g>
			<g>
				<path style="fill:#FABBAF;" d="M44,81.036h-4c-0.553,0-1,0.448-1,1c0,0.552,0.447,1,1,1h4c0.553,0,1-0.448,1-1
					C45,81.483,44.553,81.036,44,81.036z"/>
			</g>
			<g>
				<path style="fill:#FABBAF;" d="M53,81.036h-4c-0.553,0-1,0.448-1,1c0,0.552,0.447,1,1,1h4c0.553,0,1-0.448,1-1
					C54,81.483,53.553,81.036,53,81.036z"/>
			</g>
			<g>
				<path style="fill:#FABBAF;" d="M62,81.036h-4c-0.553,0-1,0.448-1,1c0,0.552,0.447,1,1,1h4c0.553,0,1-0.448,1-1
					C63,81.483,62.553,81.036,62,81.036z"/>
			</g>
			<g>
				<path style="fill:#FABBAF;" d="M71,81.036h-4c-0.553,0-1,0.448-1,1c0,0.552,0.447,1,1,1h4c0.553,0,1-0.448,1-1
					C72,81.483,71.553,81.036,71,81.036z"/>
			</g>
			<g>
				<path style="fill:#FABBAF;" d="M75,82.036c0,0.552,0.447,1,1,1h0.586l0.8-2H76C75.447,81.036,75,81.483,75,82.036z"/>
			</g>
			<g>
				<path style="fill:#FABBAF;" d="M40,77.036c0-0.552-0.447-1-1-1h-4c-0.553,0-1,0.448-1,1c0,0.552,0.447,1,1,1h4
					C39.553,78.036,40,77.588,40,77.036z"/>
			</g>
			<g>
				<path style="fill:#FABBAF;" d="M43,77.036c0,0.552,0.447,1,1,1h4c0.553,0,1-0.448,1-1c0-0.552-0.447-1-1-1h-4
					C43.447,76.036,43,76.483,43,77.036z"/>
			</g>
			<g>
				<path style="fill:#FABBAF;" d="M52,77.036c0,0.552,0.447,1,1,1h4c0.553,0,1-0.448,1-1c0-0.552-0.447-1-1-1h-4
					C52.447,76.036,52,76.483,52,77.036z"/>
			</g>
			<g>
				<path style="fill:#FABBAF;" d="M61,77.036c0,0.552,0.447,1,1,1h4c0.553,0,1-0.448,1-1c0-0.552-0.447-1-1-1h-4
					C61.447,76.036,61,76.483,61,77.036z"/>
			</g>
			<g>
				<path style="fill:#FABBAF;" d="M75,76.036h-4c-0.553,0-1,0.448-1,1c0,0.552,0.447,1,1,1h4c0.553,0,1-0.448,1-1
					C76,76.483,75.553,76.036,75,76.036z"/>
			</g>
			<g>
				<path style="fill:#FABBAF;" d="M36,72.036c0-0.552-0.447-1-1-1h-6c-0.127,0-0.246,0.029-0.357,0.072l0.771,1.928H35
					C35.553,73.036,36,72.588,36,72.036z"/>
			</g>
			<g>
				<path style="fill:#FABBAF;" d="M40,73.036h4c0.553,0,1-0.448,1-1c0-0.552-0.447-1-1-1h-4c-0.553,0-1,0.448-1,1
					C39,72.588,39.447,73.036,40,73.036z"/>
			</g>
			<g>
				<path style="fill:#FABBAF;" d="M49,73.036h4c0.553,0,1-0.448,1-1c0-0.552-0.447-1-1-1h-4c-0.553,0-1,0.448-1,1
					C48,72.588,48.447,73.036,49,73.036z"/>
			</g>
			<g>
				<path style="fill:#FABBAF;" d="M58,73.036h4c0.553,0,1-0.448,1-1c0-0.552-0.447-1-1-1h-4c-0.553,0-1,0.448-1,1
					C57,72.588,57.447,73.036,58,73.036z"/>
			</g>
			<g>
				<path style="fill:#FABBAF;" d="M67,73.036h4c0.553,0,1-0.448,1-1c0-0.552-0.447-1-1-1h-4c-0.553,0-1,0.448-1,1
					C66,72.588,66.447,73.036,67,73.036z"/>
			</g>
			<g>
				<path style="fill:#FABBAF;" d="M76,71.036c-0.553,0-1,0.448-1,1c0,0.552,0.447,1,1,1h4.586l0.8-2H76z"/>
			</g>
		</g>
		<g>
			<path style="fill:#FFFFFF;" d="M23,65.001c0,1.104,0.896,2,2,2h60c1.104,0,2-0.896,2-2v-2c0-1.105-0.896-2-2-2H25
				c-1.104,0-2,0.895-2,2V65.001z"/>
		</g>
		<path style="fill:#4A1410;" d="M28.141,61h21.848c0.2-9.382-6.649-19.559-15.61-21.741c-1.903-0.464-3.91-0.213-5.64,0.707
			c-4.27,2.27-6.277,7.29-4.751,11.877C24.855,54.454,26.408,57.818,28.141,61z"/>
		<g>
			<path style="fill:#7D261E;" d="M34.378,39.259c-1.903-0.464-3.91-0.213-5.64,0.707c-4.27,2.27-6.277,7.29-4.751,11.877
				c0.751,2.258,2.015,5.08,3.462,7.859l15.469-15.468C40.485,41.829,37.566,40.035,34.378,39.259z"/>
		</g>
		<g>
			<path style="fill:#B84E44;" d="M34.822,39.383c2.107,0.58,4.092,1.598,5.889,2.943c-3.398,4.329-8.877,9.852-10.231,8.497
				C29.254,49.598,32.158,43.868,34.822,39.383z"/>
		</g>
		<g>
			<path style="fill:#B84E44;" d="M44.465,45.925c1.542,1.861,2.821,3.978,3.759,6.22c-3.412,4.217-8.452,9.178-9.744,7.887
				C36.99,58.542,41.601,50.399,44.465,45.925z"/>
		</g>
	</g>
</g>
<g id="R-Red" style="display:none;">
	<circle style="display:inline;fill:#FABBAF;" cx="55" cy="55" r="55"/>
	<g style="display:inline;">
		<g>
			<path style="fill:#FFD7D4;" d="M58.76,61H45.575L61.26,26.551c1.373-3.016,4.932-4.348,7.947-2.974
				c3.016,1.373,4.348,4.931,2.974,7.947L58.76,61z"/>
		</g>
		<g>
			<path style="fill:#B84E44;" d="M58.76,61l7.526-16.529c1.372-0.702,2.878-1.217,4.531-1.471c2.965-0.457,25,2,10,18H58.76z"/>
		</g>
		<g>
			<path style="fill:#FFEFED;" d="M72.047,26.286c-0.596-1.155-1.565-2.128-2.84-2.709c-3.016-1.373-6.574-0.042-7.947,2.975
				l-8.795,19.315L72.047,26.286z"/>
		</g>
		<g>
			<path style="fill:#FABBAF;" d="M53.656,43.25c0.789-0.159,1.695-0.25,2.661-0.25c3.038,0,5.5,0.896,5.5,2s-2.462,2-5.5,2
				c-1.614,0-3.062-0.255-4.068-0.658L53.656,43.25z"/>
		</g>
		<g>
			<path style="fill:#FABBAF;" d="M61.029,27.058C61.443,27.021,61.873,27,62.317,27c3.038,0,5.5,0.896,5.5,2s-2.462,2-5.5,2
				c-1.083,0-2.09-0.116-2.941-0.312L61.029,27.058z"/>
		</g>
		<g>
			<path style="fill:#FABBAF;" d="M57.352,35.134C57.963,35.049,58.624,35,59.317,35c3.038,0,5.5,0.896,5.5,2s-2.462,2-5.5,2
				c-1.337,0-2.562-0.174-3.516-0.463L57.352,35.134z"/>
		</g>
		<g>
			<circle style="fill:#E8A099;" cx="73.317" cy="49.536" r="1.5"/>
		</g>
		<g>
			<circle style="fill:#E8A099;" cx="74.317" cy="57.536" r="1.5"/>
		</g>
		<g>
			<circle style="fill:#E8A099;" cx="80.317" cy="52.5" r="1.5"/>
		</g>
		<g>
			<circle style="fill:#E8A099;" cx="67.317" cy="54.5" r="1.5"/>
		</g>
		<g>
			<path style="fill:#FABBAF;" d="M48.555,54.456l1.491-3.276c0.693-0.114,1.461-0.18,2.271-0.18c3.038,0,5.5,0.896,5.5,2
				s-2.462,2-5.5,2C50.86,55,49.539,54.793,48.555,54.456z"/>
		</g>
		<g>
			<polygon style="fill:#E8A099;" points="56.028,67.001 56.021,67.018 55.981,67.001 			"/>
		</g>
		<g>
			<path style="fill:#FFD7D4;" d="M75,72.036c0-0.552,0.447-1,1-1h5.386L83,67H27l1.643,4.108c0.111-0.043,0.23-0.072,0.357-0.072h6
				c0.553,0,1,0.448,1,1c0,0.552-0.447,1-1,1h-5.586l3.2,8H35c0.553,0,1,0.448,1,1c0,0.552-0.447,1-1,1h-1.586l1.083,2.708
				C34.801,86.502,35.536,87,36.354,87h37.292c0.818,0,1.554-0.498,1.857-1.257l1.083-2.708H76c-0.553,0-1-0.448-1-1
				c0-0.552,0.447-1,1-1h1.386l3.2-8H76C75.447,73.036,75,72.588,75,72.036z M67,71.036h4c0.553,0,1,0.448,1,1c0,0.552-0.447,1-1,1
				h-4c-0.553,0-1-0.448-1-1C66,71.483,66.447,71.036,67,71.036z M67,77.036c0,0.552-0.447,1-1,1h-4c-0.553,0-1-0.448-1-1
				c0-0.552,0.447-1,1-1h4C66.553,76.036,67,76.483,67,77.036z M58,71.036h4c0.553,0,1,0.448,1,1c0,0.552-0.447,1-1,1h-4
				c-0.553,0-1-0.448-1-1C57,71.483,57.447,71.036,58,71.036z M58,77.036c0,0.552-0.447,1-1,1h-4c-0.553,0-1-0.448-1-1
				c0-0.552,0.447-1,1-1h4C57.553,76.036,58,76.483,58,77.036z M49,71.036h4c0.553,0,1,0.448,1,1c0,0.552-0.447,1-1,1h-4
				c-0.553,0-1-0.448-1-1C48,71.483,48.447,71.036,49,71.036z M49,77.036c0,0.552-0.447,1-1,1h-4c-0.553,0-1-0.448-1-1
				c0-0.552,0.447-1,1-1h4C48.553,76.036,49,76.483,49,77.036z M40,71.036h4c0.553,0,1,0.448,1,1c0,0.552-0.447,1-1,1h-4
				c-0.553,0-1-0.448-1-1C39,71.483,39.447,71.036,40,71.036z M35,78.036c-0.553,0-1-0.448-1-1c0-0.552,0.447-1,1-1h4
				c0.553,0,1,0.448,1,1c0,0.552-0.447,1-1,1H35z M44,83.036h-4c-0.553,0-1-0.448-1-1c0-0.552,0.447-1,1-1h4c0.553,0,1,0.448,1,1
				C45,82.588,44.553,83.036,44,83.036z M53,83.036h-4c-0.553,0-1-0.448-1-1c0-0.552,0.447-1,1-1h4c0.553,0,1,0.448,1,1
				C54,82.588,53.553,83.036,53,83.036z M62,83.036h-4c-0.553,0-1-0.448-1-1c0-0.552,0.447-1,1-1h4c0.553,0,1,0.448,1,1
				C63,82.588,62.553,83.036,62,83.036z M71,83.036h-4c-0.553,0-1-0.448-1-1c0-0.552,0.447-1,1-1h4c0.553,0,1,0.448,1,1
				C72,82.588,71.553,83.036,71,83.036z M75,78.036h-4c-0.553,0-1-0.448-1-1c0-0.552,0.447-1,1-1h4c0.553,0,1,0.448,1,1
				C76,77.588,75.553,78.036,75,78.036z"/>
		</g>
		<g>
			<g>
				<path style="fill:#FABBAF;" d="M36,82.036c0-0.552-0.447-1-1-1h-2.386l0.8,2H35C35.553,83.036,36,82.588,36,82.036z"/>
			</g>
			<g>
				<path style="fill:#FABBAF;" d="M44,81.036h-4c-0.553,0-1,0.448-1,1c0,0.552,0.447,1,1,1h4c0.553,0,1-0.448,1-1
					C45,81.483,44.553,81.036,44,81.036z"/>
			</g>
			<g>
				<path style="fill:#FABBAF;" d="M53,81.036h-4c-0.553,0-1,0.448-1,1c0,0.552,0.447,1,1,1h4c0.553,0,1-0.448,1-1
					C54,81.483,53.553,81.036,53,81.036z"/>
			</g>
			<g>
				<path style="fill:#FABBAF;" d="M62,81.036h-4c-0.553,0-1,0.448-1,1c0,0.552,0.447,1,1,1h4c0.553,0,1-0.448,1-1
					C63,81.483,62.553,81.036,62,81.036z"/>
			</g>
			<g>
				<path style="fill:#FABBAF;" d="M71,81.036h-4c-0.553,0-1,0.448-1,1c0,0.552,0.447,1,1,1h4c0.553,0,1-0.448,1-1
					C72,81.483,71.553,81.036,71,81.036z"/>
			</g>
			<g>
				<path style="fill:#FABBAF;" d="M75,82.036c0,0.552,0.447,1,1,1h0.586l0.8-2H76C75.447,81.036,75,81.483,75,82.036z"/>
			</g>
			<g>
				<path style="fill:#FABBAF;" d="M40,77.036c0-0.552-0.447-1-1-1h-4c-0.553,0-1,0.448-1,1c0,0.552,0.447,1,1,1h4
					C39.553,78.036,40,77.588,40,77.036z"/>
			</g>
			<g>
				<path style="fill:#FABBAF;" d="M43,77.036c0,0.552,0.447,1,1,1h4c0.553,0,1-0.448,1-1c0-0.552-0.447-1-1-1h-4
					C43.447,76.036,43,76.483,43,77.036z"/>
			</g>
			<g>
				<path style="fill:#FABBAF;" d="M52,77.036c0,0.552,0.447,1,1,1h4c0.553,0,1-0.448,1-1c0-0.552-0.447-1-1-1h-4
					C52.447,76.036,52,76.483,52,77.036z"/>
			</g>
			<g>
				<path style="fill:#FABBAF;" d="M61,77.036c0,0.552,0.447,1,1,1h4c0.553,0,1-0.448,1-1c0-0.552-0.447-1-1-1h-4
					C61.447,76.036,61,76.483,61,77.036z"/>
			</g>
			<g>
				<path style="fill:#FABBAF;" d="M75,76.036h-4c-0.553,0-1,0.448-1,1c0,0.552,0.447,1,1,1h4c0.553,0,1-0.448,1-1
					C76,76.483,75.553,76.036,75,76.036z"/>
			</g>
			<g>
				<path style="fill:#FABBAF;" d="M36,72.036c0-0.552-0.447-1-1-1h-6c-0.127,0-0.246,0.029-0.357,0.072l0.771,1.928H35
					C35.553,73.036,36,72.588,36,72.036z"/>
			</g>
			<g>
				<path style="fill:#FABBAF;" d="M40,73.036h4c0.553,0,1-0.448,1-1c0-0.552-0.447-1-1-1h-4c-0.553,0-1,0.448-1,1
					C39,72.588,39.447,73.036,40,73.036z"/>
			</g>
			<g>
				<path style="fill:#FABBAF;" d="M49,73.036h4c0.553,0,1-0.448,1-1c0-0.552-0.447-1-1-1h-4c-0.553,0-1,0.448-1,1
					C48,72.588,48.447,73.036,49,73.036z"/>
			</g>
			<g>
				<path style="fill:#FABBAF;" d="M58,73.036h4c0.553,0,1-0.448,1-1c0-0.552-0.447-1-1-1h-4c-0.553,0-1,0.448-1,1
					C57,72.588,57.447,73.036,58,73.036z"/>
			</g>
			<g>
				<path style="fill:#FABBAF;" d="M67,73.036h4c0.553,0,1-0.448,1-1c0-0.552-0.447-1-1-1h-4c-0.553,0-1,0.448-1,1
					C66,72.588,66.447,73.036,67,73.036z"/>
			</g>
			<g>
				<path style="fill:#FABBAF;" d="M76,71.036c-0.553,0-1,0.448-1,1c0,0.552,0.447,1,1,1h4.586l0.8-2H76z"/>
			</g>
		</g>
		<g>
			<path style="fill:#FFFFFF;" d="M23,65.001c0,1.104,0.896,2,2,2h60c1.104,0,2-0.896,2-2v-2c0-1.105-0.896-2-2-2H25
				c-1.104,0-2,0.895-2,2V65.001z"/>
		</g>
		<path style="fill:#4A1410;" d="M28.141,61h21.848c0.2-9.382-6.649-19.559-15.61-21.741c-1.903-0.464-3.91-0.213-5.64,0.707
			c-4.27,2.27-6.277,7.29-4.751,11.877C24.855,54.454,26.408,57.818,28.141,61z"/>
		<g>
			<path style="fill:#7D261E;" d="M34.378,39.259c-1.903-0.464-3.91-0.213-5.64,0.707c-4.27,2.27-6.277,7.29-4.751,11.877
				c0.751,2.258,2.015,5.08,3.462,7.859l15.469-15.468C40.485,41.829,37.566,40.035,34.378,39.259z"/>
		</g>
		<g>
			<path style="fill:#B84E44;" d="M34.822,39.383c2.107,0.58,4.092,1.598,5.889,2.943c-3.398,4.329-8.877,9.852-10.231,8.497
				C29.254,49.598,32.158,43.868,34.822,39.383z"/>
		</g>
		<g>
			<path style="fill:#B84E44;" d="M44.465,45.925c1.542,1.861,2.821,3.978,3.759,6.22c-3.412,4.217-8.452,9.178-9.744,7.887
				C36.99,58.542,41.601,50.399,44.465,45.925z"/>
		</g>
	</g>
</g>
<g id="Yellow" style="display:none;">
	<g style="display:inline;">
		<g>
			<path style="fill:#FFE9A1;" d="M58.76,61H45.575L61.26,26.551c1.373-3.016,4.932-4.348,7.947-2.974
				c3.016,1.373,4.348,4.931,2.974,7.947L58.76,61z"/>
		</g>
		<g>
			<path style="fill:#947615;" d="M58.76,61l7.526-16.529c1.372-0.702,2.878-1.217,4.531-1.471c2.965-0.457,25,2,10,18H58.76z"/>
		</g>
		<g>
			<path style="fill:#FFF5D9;" d="M72.047,26.286c-0.596-1.155-1.565-2.128-2.84-2.709c-3.016-1.373-6.574-0.042-7.947,2.975
				l-8.795,19.315L72.047,26.286z"/>
		</g>
		<g>
			<path style="fill:#FFD75E;" d="M53.656,43.25c0.789-0.159,1.695-0.25,2.661-0.25c3.038,0,5.5,0.896,5.5,2s-2.462,2-5.5,2
				c-1.614,0-3.062-0.255-4.068-0.658L53.656,43.25z"/>
		</g>
		<g>
			<path style="fill:#FFD75E;" d="M61.029,27.058C61.443,27.021,61.873,27,62.317,27c3.038,0,5.5,0.896,5.5,2c0,1.105-2.462,2-5.5,2
				c-1.083,0-2.09-0.116-2.941-0.312L61.029,27.058z"/>
		</g>
		<g>
			<path style="fill:#FFD75E;" d="M57.352,35.134C57.963,35.049,58.624,35,59.317,35c3.038,0,5.5,0.896,5.5,2s-2.462,2-5.5,2
				c-1.337,0-2.561-0.174-3.516-0.463L57.352,35.134z"/>
		</g>
		<g>
			<circle style="fill:#F5C43D;" cx="73.317" cy="49.536" r="1.5"/>
		</g>
		<g>
			<circle style="fill:#F5C43D;" cx="74.317" cy="57.536" r="1.5"/>
		</g>
		<g>
			<circle style="fill:#F5C43D;" cx="80.317" cy="52.5" r="1.5"/>
		</g>
		<g>
			<circle style="fill:#F5C43D;" cx="67.317" cy="54.5" r="1.5"/>
		</g>
		<g>
			<path style="fill:#FFD75E;" d="M48.555,54.456l1.491-3.276c0.693-0.114,1.461-0.18,2.271-0.18c3.038,0,5.5,0.896,5.5,2
				s-2.462,2-5.5,2C50.86,55,49.539,54.793,48.555,54.456z"/>
		</g>
		<g>
			<polygon style="fill:#F5C43D;" points="56.028,67.001 56.021,67.018 55.981,67.001 			"/>
		</g>
		<g>
			<path style="fill:#FFE9A1;" d="M75,72.036c0-0.552,0.447-1,1-1h5.386L83,67H27l1.643,4.108c0.111-0.043,0.23-0.072,0.357-0.072h6
				c0.553,0,1,0.448,1,1c0,0.552-0.447,1-1,1h-5.586l3.2,8H35c0.553,0,1,0.448,1,1c0,0.552-0.447,1-1,1h-1.586l1.083,2.708
				C34.801,86.502,35.536,87,36.354,87h37.292c0.818,0,1.554-0.498,1.857-1.257l1.083-2.708H76c-0.553,0-1-0.448-1-1
				c0-0.552,0.447-1,1-1h1.386l3.2-8H76C75.447,73.036,75,72.588,75,72.036z M67,71.036h4c0.553,0,1,0.448,1,1c0,0.552-0.447,1-1,1
				h-4c-0.553,0-1-0.448-1-1C66,71.483,66.447,71.036,67,71.036z M67,77.036c0,0.552-0.447,1-1,1h-4c-0.553,0-1-0.448-1-1
				c0-0.552,0.447-1,1-1h4C66.553,76.036,67,76.483,67,77.036z M58,71.036h4c0.553,0,1,0.448,1,1c0,0.552-0.447,1-1,1h-4
				c-0.553,0-1-0.448-1-1C57,71.483,57.447,71.036,58,71.036z M58,77.036c0,0.552-0.447,1-1,1h-4c-0.553,0-1-0.448-1-1
				c0-0.552,0.447-1,1-1h4C57.553,76.036,58,76.483,58,77.036z M49,71.036h4c0.553,0,1,0.448,1,1c0,0.552-0.447,1-1,1h-4
				c-0.553,0-1-0.448-1-1C48,71.483,48.447,71.036,49,71.036z M49,77.036c0,0.552-0.447,1-1,1h-4c-0.553,0-1-0.448-1-1
				c0-0.552,0.447-1,1-1h4C48.553,76.036,49,76.483,49,77.036z M40,71.036h4c0.553,0,1,0.448,1,1c0,0.552-0.447,1-1,1h-4
				c-0.553,0-1-0.448-1-1C39,71.483,39.447,71.036,40,71.036z M35,78.036c-0.553,0-1-0.448-1-1c0-0.552,0.447-1,1-1h4
				c0.553,0,1,0.448,1,1c0,0.552-0.447,1-1,1H35z M44,83.036h-4c-0.553,0-1-0.448-1-1c0-0.552,0.447-1,1-1h4c0.553,0,1,0.448,1,1
				C45,82.588,44.553,83.036,44,83.036z M53,83.036h-4c-0.553,0-1-0.448-1-1c0-0.552,0.447-1,1-1h4c0.553,0,1,0.448,1,1
				C54,82.588,53.553,83.036,53,83.036z M62,83.036h-4c-0.553,0-1-0.448-1-1c0-0.552,0.447-1,1-1h4c0.553,0,1,0.448,1,1
				C63,82.588,62.553,83.036,62,83.036z M71,83.036h-4c-0.553,0-1-0.448-1-1c0-0.552,0.447-1,1-1h4c0.553,0,1,0.448,1,1
				C72,82.588,71.553,83.036,71,83.036z M75,78.036h-4c-0.553,0-1-0.448-1-1c0-0.552,0.447-1,1-1h4c0.553,0,1,0.448,1,1
				C76,77.588,75.553,78.036,75,78.036z"/>
		</g>
		<g>
			<g>
				<path style="fill:#FFD75E;" d="M36,82.036c0-0.552-0.447-1-1-1h-2.386l0.8,2H35C35.553,83.036,36,82.588,36,82.036z"/>
			</g>
			<g>
				<path style="fill:#FFD75E;" d="M44,81.036h-4c-0.553,0-1,0.448-1,1c0,0.552,0.447,1,1,1h4c0.553,0,1-0.448,1-1
					C45,81.483,44.553,81.036,44,81.036z"/>
			</g>
			<g>
				<path style="fill:#FFD75E;" d="M53,81.036h-4c-0.553,0-1,0.448-1,1c0,0.552,0.447,1,1,1h4c0.553,0,1-0.448,1-1
					C54,81.483,53.553,81.036,53,81.036z"/>
			</g>
			<g>
				<path style="fill:#FFD75E;" d="M62,81.036h-4c-0.553,0-1,0.448-1,1c0,0.552,0.447,1,1,1h4c0.553,0,1-0.448,1-1
					C63,81.483,62.553,81.036,62,81.036z"/>
			</g>
			<g>
				<path style="fill:#FFD75E;" d="M71,81.036h-4c-0.553,0-1,0.448-1,1c0,0.552,0.447,1,1,1h4c0.553,0,1-0.448,1-1
					C72,81.483,71.553,81.036,71,81.036z"/>
			</g>
			<g>
				<path style="fill:#FFD75E;" d="M75,82.036c0,0.552,0.447,1,1,1h0.586l0.8-2H76C75.447,81.036,75,81.483,75,82.036z"/>
			</g>
			<g>
				<path style="fill:#FFD75E;" d="M40,77.036c0-0.552-0.447-1-1-1h-4c-0.553,0-1,0.448-1,1c0,0.552,0.447,1,1,1h4
					C39.553,78.036,40,77.588,40,77.036z"/>
			</g>
			<g>
				<path style="fill:#FFD75E;" d="M43,77.036c0,0.552,0.447,1,1,1h4c0.553,0,1-0.448,1-1c0-0.552-0.447-1-1-1h-4
					C43.447,76.036,43,76.483,43,77.036z"/>
			</g>
			<g>
				<path style="fill:#FFD75E;" d="M52,77.036c0,0.552,0.447,1,1,1h4c0.553,0,1-0.448,1-1c0-0.552-0.447-1-1-1h-4
					C52.447,76.036,52,76.483,52,77.036z"/>
			</g>
			<g>
				<path style="fill:#FFD75E;" d="M61,77.036c0,0.552,0.447,1,1,1h4c0.553,0,1-0.448,1-1c0-0.552-0.447-1-1-1h-4
					C61.447,76.036,61,76.483,61,77.036z"/>
			</g>
			<g>
				<path style="fill:#FFD75E;" d="M75,76.036h-4c-0.553,0-1,0.448-1,1c0,0.552,0.447,1,1,1h4c0.553,0,1-0.448,1-1
					C76,76.483,75.553,76.036,75,76.036z"/>
			</g>
			<g>
				<path style="fill:#FFD75E;" d="M36,72.036c0-0.552-0.447-1-1-1h-6c-0.127,0-0.246,0.029-0.357,0.072l0.772,1.928H35
					C35.553,73.036,36,72.588,36,72.036z"/>
			</g>
			<g>
				<path style="fill:#FFD75E;" d="M40,73.036h4c0.553,0,1-0.448,1-1c0-0.552-0.447-1-1-1h-4c-0.553,0-1,0.448-1,1
					C39,72.588,39.447,73.036,40,73.036z"/>
			</g>
			<g>
				<path style="fill:#FFD75E;" d="M49,73.036h4c0.553,0,1-0.448,1-1c0-0.552-0.447-1-1-1h-4c-0.553,0-1,0.448-1,1
					C48,72.588,48.447,73.036,49,73.036z"/>
			</g>
			<g>
				<path style="fill:#FFD75E;" d="M58,73.036h4c0.553,0,1-0.448,1-1c0-0.552-0.447-1-1-1h-4c-0.553,0-1,0.448-1,1
					C57,72.588,57.447,73.036,58,73.036z"/>
			</g>
			<g>
				<path style="fill:#FFD75E;" d="M67,73.036h4c0.553,0,1-0.448,1-1c0-0.552-0.447-1-1-1h-4c-0.553,0-1,0.448-1,1
					C66,72.588,66.447,73.036,67,73.036z"/>
			</g>
			<g>
				<path style="fill:#FFD75E;" d="M76,71.036c-0.553,0-1,0.448-1,1c0,0.552,0.447,1,1,1h4.586l0.8-2H76z"/>
			</g>
		</g>
		<g>
			<path style="fill:#FFFFFF;" d="M23,65.001c0,1.104,0.896,2,2,2h60c1.104,0,2-0.896,2-2v-2c0-1.105-0.896-2-2-2H25
				c-1.104,0-2,0.895-2,2V65.001z"/>
		</g>
		<path style="fill:#3D320C;" d="M28.141,61h21.848c0.2-9.382-6.648-19.559-15.61-21.741c-1.903-0.464-3.91-0.213-5.64,0.707
			c-4.27,2.27-6.277,7.29-4.751,11.877C24.855,54.454,26.408,57.818,28.141,61z"/>
		<g>
			<path style="fill:#66510D;" d="M34.378,39.259c-1.903-0.464-3.91-0.213-5.64,0.707c-4.27,2.27-6.277,7.29-4.751,11.877
				c0.751,2.258,2.015,5.08,3.462,7.859l15.469-15.468C40.485,41.829,37.566,40.035,34.378,39.259z"/>
		</g>
		<g>
			<path style="fill:#947615;" d="M34.822,39.383c2.107,0.58,4.092,1.598,5.889,2.943c-3.398,4.329-8.877,9.851-10.231,8.497
				C29.254,49.598,32.158,43.868,34.822,39.383z"/>
		</g>
		<g>
			<path style="fill:#947615;" d="M44.465,45.925c1.542,1.861,2.821,3.978,3.759,6.22c-3.412,4.217-8.452,9.178-9.744,7.887
				C36.99,58.542,41.601,50.399,44.465,45.925z"/>
		</g>
	</g>
</g>
<g id="R-Yellow" style="display:none;">
	<circle style="display:inline;fill:#FFD75E;" cx="55" cy="55" r="55"/>
	<g style="display:inline;">
		<g>
			<path style="fill:#FFE9A1;" d="M58.76,61H45.575L61.26,26.551c1.373-3.016,4.932-4.348,7.947-2.974
				c3.016,1.373,4.348,4.931,2.974,7.947L58.76,61z"/>
		</g>
		<g>
			<path style="fill:#947615;" d="M58.76,61l7.526-16.529c1.372-0.702,2.878-1.217,4.531-1.471c2.965-0.457,25,2,10,18H58.76z"/>
		</g>
		<g>
			<path style="fill:#FFF5D9;" d="M72.047,26.286c-0.596-1.155-1.565-2.128-2.84-2.709c-3.016-1.373-6.574-0.042-7.947,2.975
				l-8.795,19.315L72.047,26.286z"/>
		</g>
		<g>
			<path style="fill:#FFD75E;" d="M53.656,43.25c0.789-0.159,1.695-0.25,2.661-0.25c3.038,0,5.5,0.896,5.5,2s-2.462,2-5.5,2
				c-1.614,0-3.062-0.255-4.068-0.658L53.656,43.25z"/>
		</g>
		<g>
			<path style="fill:#FFD75E;" d="M61.029,27.058C61.443,27.021,61.873,27,62.317,27c3.038,0,5.5,0.896,5.5,2c0,1.105-2.462,2-5.5,2
				c-1.083,0-2.09-0.116-2.941-0.312L61.029,27.058z"/>
		</g>
		<g>
			<path style="fill:#FFD75E;" d="M57.352,35.134C57.963,35.049,58.624,35,59.317,35c3.038,0,5.5,0.896,5.5,2s-2.462,2-5.5,2
				c-1.337,0-2.562-0.174-3.516-0.463L57.352,35.134z"/>
		</g>
		<g>
			<circle style="fill:#F5C43D;" cx="73.317" cy="49.536" r="1.5"/>
		</g>
		<g>
			<circle style="fill:#F5C43D;" cx="74.317" cy="57.536" r="1.5"/>
		</g>
		<g>
			<circle style="fill:#F5C43D;" cx="80.317" cy="52.5" r="1.5"/>
		</g>
		<g>
			<circle style="fill:#F5C43D;" cx="67.317" cy="54.5" r="1.5"/>
		</g>
		<g>
			<path style="fill:#FFD75E;" d="M48.555,54.456l1.491-3.276c0.693-0.114,1.461-0.18,2.271-0.18c3.038,0,5.5,0.896,5.5,2
				s-2.462,2-5.5,2C50.86,55,49.539,54.793,48.555,54.456z"/>
		</g>
		<g>
			<polygon style="fill:#F5C43D;" points="56.028,67.001 56.02,67.018 55.981,67.001 			"/>
		</g>
		<g>
			<path style="fill:#FFE9A1;" d="M75,72.036c0-0.552,0.447-1,1-1h5.386L83,67H27l1.643,4.108c0.111-0.043,0.23-0.072,0.357-0.072h6
				c0.553,0,1,0.448,1,1c0,0.552-0.447,1-1,1h-5.586l3.2,8H35c0.553,0,1,0.448,1,1c0,0.552-0.447,1-1,1h-1.586l1.083,2.708
				C34.801,86.502,35.536,87,36.353,87h37.292c0.818,0,1.554-0.498,1.857-1.257l1.083-2.708H76c-0.553,0-1-0.448-1-1
				c0-0.552,0.447-1,1-1h1.386l3.2-8H76C75.447,73.036,75,72.588,75,72.036z M67,71.036h4c0.553,0,1,0.448,1,1c0,0.552-0.447,1-1,1
				h-4c-0.553,0-1-0.448-1-1C66,71.483,66.447,71.036,67,71.036z M67,77.036c0,0.552-0.447,1-1,1h-4c-0.553,0-1-0.448-1-1
				c0-0.552,0.447-1,1-1h4C66.553,76.036,67,76.483,67,77.036z M58,71.036h4c0.553,0,1,0.448,1,1c0,0.552-0.447,1-1,1h-4
				c-0.553,0-1-0.448-1-1C57,71.483,57.447,71.036,58,71.036z M58,77.036c0,0.552-0.447,1-1,1h-4c-0.553,0-1-0.448-1-1
				c0-0.552,0.447-1,1-1h4C57.553,76.036,58,76.483,58,77.036z M49,71.036h4c0.553,0,1,0.448,1,1c0,0.552-0.447,1-1,1h-4
				c-0.553,0-1-0.448-1-1C48,71.483,48.447,71.036,49,71.036z M49,77.036c0,0.552-0.447,1-1,1h-4c-0.553,0-1-0.448-1-1
				c0-0.552,0.447-1,1-1h4C48.553,76.036,49,76.483,49,77.036z M40,71.036h4c0.553,0,1,0.448,1,1c0,0.552-0.447,1-1,1h-4
				c-0.553,0-1-0.448-1-1C39,71.483,39.447,71.036,40,71.036z M35,78.036c-0.553,0-1-0.448-1-1c0-0.552,0.447-1,1-1h4
				c0.553,0,1,0.448,1,1c0,0.552-0.447,1-1,1H35z M44,83.036h-4c-0.553,0-1-0.448-1-1c0-0.552,0.447-1,1-1h4c0.553,0,1,0.448,1,1
				C45,82.588,44.553,83.036,44,83.036z M53,83.036h-4c-0.553,0-1-0.448-1-1c0-0.552,0.447-1,1-1h4c0.553,0,1,0.448,1,1
				C54,82.588,53.553,83.036,53,83.036z M62,83.036h-4c-0.553,0-1-0.448-1-1c0-0.552,0.447-1,1-1h4c0.553,0,1,0.448,1,1
				C63,82.588,62.553,83.036,62,83.036z M71,83.036h-4c-0.553,0-1-0.448-1-1c0-0.552,0.447-1,1-1h4c0.553,0,1,0.448,1,1
				C72,82.588,71.553,83.036,71,83.036z M75,78.036h-4c-0.553,0-1-0.448-1-1c0-0.552,0.447-1,1-1h4c0.553,0,1,0.448,1,1
				C76,77.588,75.553,78.036,75,78.036z"/>
		</g>
		<g>
			<g>
				<path style="fill:#FFD75E;" d="M36,82.036c0-0.552-0.447-1-1-1h-2.386l0.8,2H35C35.553,83.036,36,82.588,36,82.036z"/>
			</g>
			<g>
				<path style="fill:#FFD75E;" d="M44,81.036h-4c-0.553,0-1,0.448-1,1c0,0.552,0.447,1,1,1h4c0.553,0,1-0.448,1-1
					C45,81.483,44.553,81.036,44,81.036z"/>
			</g>
			<g>
				<path style="fill:#FFD75E;" d="M53,81.036h-4c-0.553,0-1,0.448-1,1c0,0.552,0.447,1,1,1h4c0.553,0,1-0.448,1-1
					C54,81.483,53.553,81.036,53,81.036z"/>
			</g>
			<g>
				<path style="fill:#FFD75E;" d="M62,81.036h-4c-0.553,0-1,0.448-1,1c0,0.552,0.447,1,1,1h4c0.553,0,1-0.448,1-1
					C63,81.483,62.553,81.036,62,81.036z"/>
			</g>
			<g>
				<path style="fill:#FFD75E;" d="M71,81.036h-4c-0.553,0-1,0.448-1,1c0,0.552,0.447,1,1,1h4c0.553,0,1-0.448,1-1
					C72,81.483,71.553,81.036,71,81.036z"/>
			</g>
			<g>
				<path style="fill:#FFD75E;" d="M75,82.036c0,0.552,0.447,1,1,1h0.586l0.8-2H76C75.447,81.036,75,81.483,75,82.036z"/>
			</g>
			<g>
				<path style="fill:#FFD75E;" d="M40,77.036c0-0.552-0.447-1-1-1h-4c-0.553,0-1,0.448-1,1c0,0.552,0.447,1,1,1h4
					C39.553,78.036,40,77.588,40,77.036z"/>
			</g>
			<g>
				<path style="fill:#FFD75E;" d="M43,77.036c0,0.552,0.447,1,1,1h4c0.553,0,1-0.448,1-1c0-0.552-0.447-1-1-1h-4
					C43.447,76.036,43,76.483,43,77.036z"/>
			</g>
			<g>
				<path style="fill:#FFD75E;" d="M52,77.036c0,0.552,0.447,1,1,1h4c0.553,0,1-0.448,1-1c0-0.552-0.447-1-1-1h-4
					C52.447,76.036,52,76.483,52,77.036z"/>
			</g>
			<g>
				<path style="fill:#FFD75E;" d="M61,77.036c0,0.552,0.447,1,1,1h4c0.553,0,1-0.448,1-1c0-0.552-0.447-1-1-1h-4
					C61.447,76.036,61,76.483,61,77.036z"/>
			</g>
			<g>
				<path style="fill:#FFD75E;" d="M75,76.036h-4c-0.553,0-1,0.448-1,1c0,0.552,0.447,1,1,1h4c0.553,0,1-0.448,1-1
					C76,76.483,75.553,76.036,75,76.036z"/>
			</g>
			<g>
				<path style="fill:#FFD75E;" d="M36,72.036c0-0.552-0.447-1-1-1h-6c-0.127,0-0.246,0.029-0.357,0.072l0.771,1.928H35
					C35.553,73.036,36,72.588,36,72.036z"/>
			</g>
			<g>
				<path style="fill:#FFD75E;" d="M40,73.036h4c0.553,0,1-0.448,1-1c0-0.552-0.447-1-1-1h-4c-0.553,0-1,0.448-1,1
					C39,72.588,39.447,73.036,40,73.036z"/>
			</g>
			<g>
				<path style="fill:#FFD75E;" d="M49,73.036h4c0.553,0,1-0.448,1-1c0-0.552-0.447-1-1-1h-4c-0.553,0-1,0.448-1,1
					C48,72.588,48.447,73.036,49,73.036z"/>
			</g>
			<g>
				<path style="fill:#FFD75E;" d="M58,73.036h4c0.553,0,1-0.448,1-1c0-0.552-0.447-1-1-1h-4c-0.553,0-1,0.448-1,1
					C57,72.588,57.447,73.036,58,73.036z"/>
			</g>
			<g>
				<path style="fill:#FFD75E;" d="M67,73.036h4c0.553,0,1-0.448,1-1c0-0.552-0.447-1-1-1h-4c-0.553,0-1,0.448-1,1
					C66,72.588,66.447,73.036,67,73.036z"/>
			</g>
			<g>
				<path style="fill:#FFD75E;" d="M76,71.036c-0.553,0-1,0.448-1,1c0,0.552,0.447,1,1,1h4.586l0.8-2H76z"/>
			</g>
		</g>
		<g>
			<path style="fill:#FFFFFF;" d="M23,65.001c0,1.104,0.896,2,2,2h60c1.104,0,2-0.896,2-2v-2c0-1.105-0.896-2-2-2H25
				c-1.104,0-2,0.895-2,2V65.001z"/>
		</g>
		<path style="fill:#3D320C;" d="M28.141,61h21.848c0.2-9.382-6.648-19.559-15.61-21.741c-1.903-0.464-3.91-0.213-5.64,0.707
			c-4.27,2.27-6.277,7.29-4.751,11.877C24.855,54.454,26.408,57.818,28.141,61z"/>
		<g>
			<path style="fill:#66510D;" d="M34.378,39.259c-1.903-0.464-3.91-0.213-5.64,0.707c-4.27,2.27-6.277,7.29-4.751,11.877
				c0.751,2.258,2.015,5.08,3.462,7.859l15.469-15.468C40.485,41.829,37.566,40.035,34.378,39.259z"/>
		</g>
		<g>
			<path style="fill:#947615;" d="M34.822,39.383c2.107,0.58,4.092,1.598,5.889,2.943c-3.398,4.329-8.877,9.851-10.231,8.497
				C29.254,49.598,32.158,43.868,34.822,39.383z"/>
		</g>
		<g>
			<path style="fill:#947615;" d="M44.465,45.925c1.542,1.861,2.821,3.978,3.759,6.22c-3.412,4.217-8.452,9.178-9.744,7.887
				C36.99,58.542,41.601,50.399,44.465,45.925z"/>
		</g>
	</g>
</g>
</svg>
