<?xml version="1.0" encoding="iso-8859-1"?>
<!-- Generator: Adobe Illustrator 17.1.0, SVG Export Plug-In . SVG Version: 6.00 Build 0)  -->
<!DOCTYPE svg PUBLIC "-//W3C//DTD SVG 1.0//EN" "http://www.w3.org/TR/2001/REC-SVG-20010904/DTD/svg10.dtd">
<svg version="1.0" xmlns="http://www.w3.org/2000/svg" xmlns:xlink="http://www.w3.org/1999/xlink" x="0px" y="0px" width="110px"
	 height="110px" viewBox="0 0 110 110" style="enable-background:new 0 0 110 110;" xml:space="preserve">
<g id="Artboard">
</g>
<g id="Multicolor">
	<circle style="fill:#E04F5F;" cx="55" cy="55" r="55"/>
	<g>
		<g>
			<path style="fill:#3E3E3F;" d="M27,33c0,1.105,0.895,2,2,2h14v-8H29c-1.105,0-2,0.895-2,2V33z"/>
		</g>
		<g>
			<path style="fill:#3E3E3F;" d="M83,33c0,1.105-0.895,2-2,2H67v-8h14c1.105,0,2,0.895,2,2V33z"/>
		</g>
		<g>
			<path style="fill:#FACB1B;" d="M67,27c-8-5.333-16-5.333-24,0v16l4,12h16l4-12V27z"/>
		</g>
		<g>
			<path style="fill:#3E3E3F;" d="M49,61c0,1.105,0.895,2,2,2h8c1.105,0,2-0.895,2-2v-6H49V61z"/>
		</g>
		<g>
			<polygon style="fill:#E2E4E5;" points="51,83 55,87 59,83 59,63 51,63 			"/>
		</g>
		<g>
			<g>
				<path style="fill:#FFFFFF;" d="M64.939,73.629c-0.586-0.586-0.586-1.536,0-2.121l8.73-8.73l5,6l5.839-5.838
					c0.585-0.586,1.536-0.586,2.121,0c0.586,0.585,0.586,1.536,0,2.121l-8.161,8.162l-5-6l-6.407,6.407
					C66.475,74.215,65.525,74.215,64.939,73.629z"/>
			</g>
		</g>
		<g>
			<g>
				<path style="fill:#FFFFFF;" d="M42.939,73.629l-6.407-6.407l-5,6l-8.161-8.162c-0.586-0.585-0.586-1.536,0-2.121
					c0.585-0.586,1.536-0.586,2.121,0l5.839,5.838l5-6l8.73,8.73c0.586,0.585,0.586,1.535,0,2.121
					C44.475,74.215,43.525,74.215,42.939,73.629z"/>
			</g>
		</g>
		<g>
			<g>
				<path style="fill:#FFFFFF;" d="M33.263,86.072L28.1,82.2c-0.663-0.497-0.797-1.438-0.3-2.1c0.497-0.663,1.438-0.797,2.1-0.3
					l2.837,2.128l4-5L41.9,80.8c0.663,0.497,0.797,1.438,0.3,2.1c-0.497,0.663-1.438,0.796-2.1,0.3l-2.837-2.128L33.263,86.072z"/>
			</g>
		</g>
		<g>
			<g>
				<path style="fill:#FFFFFF;" d="M76.737,86.072l-4-5L69.9,83.2c-0.663,0.497-1.603,0.363-2.1-0.3
					c-0.497-0.663-0.363-1.603,0.3-2.1l5.163-3.872l4,5L80.1,79.8c0.663-0.497,1.603-0.363,2.1,0.3c0.497,0.663,0.363,1.603-0.3,2.1
					L76.737,86.072z"/>
			</g>
		</g>
		<g>
			<polygon style="fill:#FFFFFF;" points="51,63 51,83 55,87 55,63 			"/>
		</g>
		<g>
			<path style="fill:#5B5C5F;" d="M55,55h-6v6c0,1.104,0.896,2,2,2h4V55z"/>
		</g>
		<g>
			<path style="fill:#FBE158;" d="M43,43l4,12h8V23c-4,0-8,1.333-12,4V43z"/>
		</g>
		<g>
			<path style="fill:#F3B607;" d="M47,32c0,1.105,0.895,2,2,2h12c1.105,0,2-0.895,2-2c0-1.105-0.895-2-2-2H49
				C47.895,30,47,30.895,47,32z"/>
		</g>
		<g>
			<path style="fill:#F3B607;" d="M47,40c0,1.105,0.895,2,2,2h12c1.105,0,2-0.895,2-2s-0.895-2-2-2H49C47.895,38,47,38.895,47,40z"
				/>
		</g>
	</g>
</g>
</svg>
