<?xml version="1.0" encoding="iso-8859-1"?>
<!-- Generator: Adobe Illustrator 17.1.0, SVG Export Plug-In . SVG Version: 6.00 Build 0)  -->
<!DOCTYPE svg PUBLIC "-//W3C//DTD SVG 1.0//EN" "http://www.w3.org/TR/2001/REC-SVG-20010904/DTD/svg10.dtd">
<svg version="1.0" xmlns="http://www.w3.org/2000/svg" xmlns:xlink="http://www.w3.org/1999/xlink" x="0px" y="0px" width="110px"
	 height="110px" viewBox="0 0 110 110" style="enable-background:new 0 0 110 110;" xml:space="preserve">
<g id="Artboard">
</g>
<g id="Multicolor">
	<circle style="fill:#FABC3D;" cx="55" cy="55" r="55"/>
	<g>
		<g>
			<path style="fill:#DF2C2C;" d="M23,85c0,1.105,0.895,2,2,2h16c1.105,0,2-0.895,2-2v-8c0-1.105-0.895-2-2-2H25
				c-1.105,0-2,0.895-2,2V85z"/>
		</g>
		<g>
			<path style="fill:#DF2C2C;" d="M35,63v8c0,1.1-0.9,2-2,2H23V61h10C34.1,61,35,61.9,35,63z"/>
		</g>
		<g>
			<path style="fill:#DF2C2C;" d="M37,71c0,1.105,0.895,2,2,2h16c1.105,0,2-0.895,2-2v-8c0-1.105-0.895-2-2-2H39
				c-1.105,0-2,0.895-2,2V71z"/>
		</g>
		<g>
			<path style="fill:#DF2C2C;" d="M35,35v8c0,1.1-0.9,2-2,2H23V33h10C34.1,33,35,33.9,35,35z"/>
		</g>
		<g>
			<path style="fill:#DF2C2C;" d="M37,43c0,1.105,0.895,2,2,2h16c1.105,0,2-0.895,2-2v-8c0-1.105-0.895-2-2-2H39
				c-1.105,0-2,0.895-2,2V43z"/>
		</g>
		<g>
			<path style="fill:#DF2C2C;" d="M59,71c0,1.105,0.895,2,2,2h16c1.105,0,2-0.895,2-2v-8c0-1.105-0.895-2-2-2H61
				c-1.105,0-2,0.895-2,2V71z"/>
		</g>
		<g>
			<path style="fill:#DF2C2C;" d="M45,85c0,1.105,0.895,2,2,2h16c1.105,0,2-0.895,2-2v-8c0-1.105-0.895-2-2-2H47
				c-1.105,0-2,0.895-2,2V85z"/>
		</g>
		<g>
			<path style="fill:#DF2C2C;" d="M23,57c0,1.105,0.895,2,2,2h16c1.105,0,2-0.895,2-2v-8c0-1.105-0.895-2-2-2H25
				c-1.105,0-2,0.895-2,2V57z"/>
		</g>
		<g>
			<path style="fill:#DF2C2C;" d="M43,23v6c0,1.1-0.9,2-2,2H25c-1.1,0-2-0.9-2-2v-6H43z"/>
		</g>
		<g>
			<path style="fill:#DF2C2C;" d="M67,85c0,1.105,0.895,2,2,2h16c1.105,0,2-0.895,2-2v-8c0-1.105-0.895-2-2-2H69
				c-1.105,0-2,0.895-2,2V85z"/>
		</g>
		<g>
			<g>
				<path style="fill:#DF2C2C;" d="M45.997,58.721c2.406-4.144,4.986-8.053,7.746-11.721H47c-1.104,0-2,0.896-2,2v8
					C45,57.737,45.403,58.374,45.997,58.721z"/>
			</g>
		</g>
		<g>
			<path style="fill:#F0F1F1;" d="M44.243,61.831c-0.373,0.685-0.313,1.525,0.153,2.15s1.253,0.924,2.016,0.763
				c7.815-1.649,15.148-3.944,22.001-6.885c0.563-0.241,0.984-0.728,1.143-1.319s0.04-1.224-0.326-1.715l-8.956-12.02
				c-0.366-0.491-0.937-0.788-1.55-0.804c-0.612-0.017-1.199,0.248-1.591,0.719C52.355,48.445,48.059,54.815,44.243,61.831z"/>
		</g>
		<g>
			<path style="fill:#FFFFFF;" d="M60.273,42.805c-0.366-0.491-0.937-0.788-1.549-0.804c-0.613-0.017-1.199,0.248-1.591,0.719
				c-4.778,5.725-9.074,12.096-12.89,19.112c-0.373,0.685-0.313,1.524,0.153,2.15c0.023,0.031,0.055,0.051,0.079,0.08L64.64,48.666
				L60.273,42.805z"/>
		</g>
		<path style="fill:#E2E4E5;" d="M71.252,35.977c-1.084,0.785-2.722,2.04-3.997,3.316c-2.293,2.293-2.293,4.638-2.293,6.707
			c0,2.224-2.227,3.021-2.316,3.051c-0.524,0.175-0.807,0.741-0.632,1.265c0.176,0.527,0.745,0.807,1.265,0.632
			c0.15-0.05,3.684-1.271,3.684-4.949c0-1.924,0-3.586,1.707-5.293c1.199-1.199,2.797-2.415,3.824-3.158L71.252,35.977z"/>
		<g>
			<path style="fill:#84462D;" d="M74.464,38.433c-0.434,0.342-1.062,0.268-1.404-0.166l-2.478-3.14
				c-0.342-0.434-0.268-1.062,0.166-1.404l11.775-9.292c0.867-0.684,2.125-0.536,2.809,0.331l1.239,1.57
				c0.684,0.867,0.536,2.125-0.331,2.809L74.464,38.433z"/>
		</g>
		<g>
			<path style="fill:#9C6144;" d="M85.331,24.761c-0.684-0.867-1.942-1.015-2.809-0.331l-11.775,9.292
				c-0.434,0.342-0.508,0.971-0.166,1.404l1.232,1.561l14.309-10.924L85.331,24.761z"/>
		</g>
	</g>
</g>
</svg>
