<?xml version="1.0" encoding="iso-8859-1"?>
<!-- Generator: Adobe Illustrator 17.1.0, SVG Export Plug-In . SVG Version: 6.00 Build 0)  -->
<!DOCTYPE svg PUBLIC "-//W3C//DTD SVG 1.0//EN" "http://www.w3.org/TR/2001/REC-SVG-20010904/DTD/svg10.dtd">
<svg version="1.0" xmlns="http://www.w3.org/2000/svg" xmlns:xlink="http://www.w3.org/1999/xlink" x="0px" y="0px" width="110px"
	 height="110px" viewBox="0 0 110 110" style="enable-background:new 0 0 110 110;" xml:space="preserve">
<g id="Artboard">
</g>
<g id="Multicolor">
	<circle style="fill:#25B7D3;" cx="55" cy="55" r="55"/>
	<g>
		<path style="fill:#692E19;" d="M45,27c-1.105,0-2,0.895-2,2v6h4v-2c0-1.105,0.895-2,2-2h12c1.105,0,2,0.895,2,2v2h4v-6
			c0-1.105-0.895-2-2-2H45z"/>
		<path style="fill:#692E19;" d="M79,35c2.209,0,4,1.791,4,4v38c0,2.209-1.791,4-4,4H31c-2.209,0-4-1.791-4-4V39
			c0-2.209,1.791-4,4-4H79z"/>
		<path style="fill:#84462D;" d="M87,35c0,2.679,0.341,8.483-4,14.65C79.02,55.3,72.44,59,65,59H45c-7.229,0-13.914-3.527-18-9.35
			c-4.072-5.784-4-11.034-4-14.65H87z"/>
		<path style="fill:#9C6144;" d="M23,35c0,2.679-0.341,8.483,4,14.65c2.776,3.956,6.769,6.924,11.597,8.38L61.627,35H23z"/>
		<polygon style="fill:#D4A263;" points="35,35 35,73 38,76 41,73 41,35 		"/>
		<polygon style="fill:#D4A263;" points="69,35 69,73 72,76 75,73 75,35 		"/>
		<polygon style="fill:#EDBC7C;" points="41,55.87 41,35 35,35 35,61.87 		"/>
		<path style="fill:#F3B607;" d="M42,65.4c0,0.884-0.716,1.6-1.6,1.6h-4.8c-0.884,0-1.6-0.716-1.6-1.6v-4.8
			c0-0.884,0.716-1.6,1.6-1.6h4.8c0.884,0,1.6,0.716,1.6,1.6V65.4z"/>
		<path style="fill:#FACB1B;" d="M42,63v-2.4c0-0.884-0.716-1.6-1.6-1.6h-4.8c-0.884,0-1.6,0.716-1.6,1.6V63H42z"/>
		<path style="fill:#F3B607;" d="M76,65.4c0,0.884-0.716,1.6-1.6,1.6h-4.8c-0.884,0-1.6-0.716-1.6-1.6v-4.8
			c0-0.884,0.716-1.6,1.6-1.6h4.8c0.884,0,1.6,0.716,1.6,1.6V65.4z"/>
		<path style="fill:#FACB1B;" d="M76,63v-2.4c0-0.884-0.716-1.6-1.6-1.6h-4.8c-0.884,0-1.6,0.716-1.6,1.6V63H76z"/>
	</g>
</g>
</svg>
