<?xml version="1.0" encoding="iso-8859-1"?>
<!-- Generator: Adobe Illustrator 17.1.0, SVG Export Plug-In . SVG Version: 6.00 Build 0)  -->
<!DOCTYPE svg PUBLIC "-//W3C//DTD SVG 1.0//EN" "http://www.w3.org/TR/2001/REC-SVG-20010904/DTD/svg10.dtd">
<svg version="1.0" xmlns="http://www.w3.org/2000/svg" xmlns:xlink="http://www.w3.org/1999/xlink" x="0px" y="0px" width="110px"
	 height="110px" viewBox="0 0 110 110" style="enable-background:new 0 0 110 110;" xml:space="preserve">
<g id="Artboard">
</g>
<g id="Multicolor">
	<circle style="fill:#25B7D3;" cx="55" cy="55" r="55"/>
	<g>
		<g>
			<path style="fill:#84462D;" d="M87,47v36c0,2.21-1.79,4-4,4H27c-2.21,0-4-1.79-4-4V47c0-2.21,1.79-4,4-4h56
				C85.21,43,87,44.79,87,47z"/>
		</g>
		<g>
			<path style="fill:#9C6144;" d="M27,43c-2.21,0-4,1.79-4,4v36c0,1.323,0.649,2.486,1.639,3.214L67.853,43H27z"/>
		</g>
		<g>
			<path style="fill:#3E3E3F;" d="M46.875,43l2.286-4h11.679l2.286,4h4.607l-3.996-6.992C63.38,35.385,62.718,35,62,35H48
				c-0.718,0-1.38,0.385-1.736,1.008L42.268,43H46.875z"/>
		</g>
		<g>
			<rect x="71" y="41" style="fill:#F0F1F1;" width="5" height="2"/>
		</g>
		<g>
			<rect x="34" y="41" style="fill:#F0F1F1;" width="5" height="2"/>
		</g>
		<g>
			<path style="fill:#FBE158;" d="M87,47v4c-4.42,0-8-3.58-8-8h4C85.21,43,87,44.79,87,47z"/>
		</g>
		<g>
			<path style="fill:#FBE158;" d="M87,79v4c0,2.21-1.79,4-4,4h-4C79,82.58,82.58,79,87,79z"/>
		</g>
		<g>
			<path style="fill:#FBEC9A;" d="M31,43c0,4.42-3.58,8-8,8v-4c0-2.21,1.79-4,4-4H31z"/>
		</g>
		<g>
			<path style="fill:#FBE158;" d="M31,87h-4c-2.21,0-4-1.79-4-4v-4C27.42,79,31,82.58,31,87z"/>
		</g>
		<g>
			<circle style="fill:#DF2C2C;" cx="73.167" cy="63" r="8"/>
		</g>
		<g>
			<g>
				<path style="fill:#FFFFFF;" d="M77.912,61.5c-0.64-2.023-2.51-3.5-4.746-3.5s-4.105,1.477-4.746,3.5H77.912z"/>
			</g>
			<g>
				<path style="fill:#FFFFFF;" d="M77.912,64.5h-9.491c0.64,2.023,2.51,3.5,4.746,3.5S77.272,66.523,77.912,64.5z"/>
			</g>
		</g>
		<g>
			
				<rect x="38.656" y="72.18" transform="matrix(0.9447 0.328 -0.328 0.9447 27.6423 -11.5069)" style="fill:#FFFFFF;" width="18.545" height="8"/>
		</g>
		<g>
			
				<rect x="37.412" y="51.896" transform="matrix(0.9068 -0.4216 0.4216 0.9068 -19.8041 24.4612)" style="fill:#FFFFFF;" width="16" height="10.235"/>
		</g>
		<g>
			
				<rect x="37.925" y="54.215" transform="matrix(0.9068 -0.4216 0.4216 0.9068 -21.2467 22.5746)" style="fill:#12B2A0;" width="5" height="10.235"/>
		</g>
		<g>
			
				<rect x="47.899" y="49.577" transform="matrix(0.9068 -0.4216 0.4216 0.9068 -18.3615 26.3477)" style="fill:#FA5655;" width="5" height="10.235"/>
		</g>
		<g>
			<path style="fill:#FBEC9A;" d="M23,79v4c0,1.323,0.649,2.486,1.639,3.214l4.425-4.425C27.597,80.084,25.427,79,23,79z"/>
		</g>
	</g>
</g>
</svg>
