<?xml version="1.0" encoding="iso-8859-1"?>
<!-- Generator: Adobe Illustrator 17.1.0, SVG Export Plug-In . SVG Version: 6.00 Build 0)  -->
<!DOCTYPE svg PUBLIC "-//W3C//DTD SVG 1.0//EN" "http://www.w3.org/TR/2001/REC-SVG-20010904/DTD/svg10.dtd">
<svg version="1.0" xmlns="http://www.w3.org/2000/svg" xmlns:xlink="http://www.w3.org/1999/xlink" x="0px" y="0px" width="110px"
	 height="110px" viewBox="0 0 110 110" style="enable-background:new 0 0 110 110;" xml:space="preserve">
<g id="Artboard">
</g>
<g id="Multicolor">
	<circle style="fill:#25B7D3;" cx="55" cy="54.98" r="55"/>
	<g>
		<rect x="32" y="53.98" style="fill:#84462D;" width="46" height="7"/>
		<polygon style="fill:#D4A263;" points="32,60.98 78,60.98 83,72.98 27,72.98 		"/>
		<polygon style="fill:#84462D;" points="78,53.98 78,60.98 87,83.98 87,72.98 		"/>
		<polygon style="fill:#84462D;" points="32,53.98 32,60.98 23,83.98 23,72.98 		"/>
		<rect x="23" y="72.98" style="fill:#9C6144;" width="64" height="11"/>
		<polygon style="fill:#F4D0A1;" points="27,72.98 45.77,72.98 57.77,60.98 32,60.98 		"/>
		<polygon style="fill:#9C6144;" points="32,53.98 32,60.98 57.77,60.98 64.77,53.98 		"/>
		<polygon style="fill:#AF7653;" points="23,72.98 23,83.98 34.77,83.98 45.77,72.98 		"/>
		<polygon style="fill:#F0F1F1;" points="38,62.98 52,62.98 50,72.98 34,72.98 		"/>
		<polygon style="fill:#FFFFFF;" points="52,62.98 38,62.98 34,72.98 45.77,72.98 51.058,67.692 		"/>
		<rect x="32" y="22.98" style="fill:#EDBC7C;" width="46" height="31"/>
		<g>
			<path style="fill:#3E3E3F;" d="M63,86.98H47c-0.608,0-1.182-0.276-1.562-0.75l-4-5c-0.69-0.863-0.55-2.121,0.312-2.811
				c0.863-0.69,2.121-0.55,2.811,0.312l3.399,4.25h14.078l3.399-4.25c0.69-0.862,1.948-1.002,2.811-0.312
				c0.862,0.69,1.002,1.948,0.312,2.811l-4,5C64.182,86.704,63.608,86.98,63,86.98z"/>
		</g>
		<polygon style="fill:#FA5655;" points="73,62.98 59,62.98 61,72.98 77,72.98 		"/>
		<polygon style="fill:#F0F1F1;" points="71,64.98 63,64.98 64,68.98 72,68.98 		"/>
		<rect x="73" y="75.98" style="fill:#FACB1B;" width="10" height="6"/>
		<circle style="fill:#F99134;" cx="78" cy="78.98" r="2"/>
		<rect x="27" y="75.98" style="fill:#FACB1B;" width="10" height="6"/>
		<circle style="fill:#F99134;" cx="32" cy="78.98" r="2"/>
		<polygon style="fill:#9C6144;" points="32.017,22.98 32,53.98 35,53.98 35,25.98 75,25.98 75,53.98 78,53.98 78.017,22.98 		"/>
		<rect x="41" y="31.98" style="fill:#FFFFFF;" width="15" height="10"/>
		<rect x="35" y="41.98" style="fill:#F4D0A1;" width="40" height="12"/>
		<path style="fill:#0484AB;" d="M67,33.98c0-1.105-0.895-2-2-2s-2,0.895-2,2v8h4V33.98z"/>
		<path style="fill:#059BBF;" d="M65,31.98c-1.104,0-2,0.896-2,2v4h4v-4C67,32.875,66.104,31.98,65,31.98z"/>
		<path style="fill:#DF2C2C;" d="M73,33.98c0-1.105-0.895-2-2-2s-2,0.895-2,2v8h4V33.98z"/>
		<path style="fill:#FA5655;" d="M71,31.98c-1.104,0-2,0.896-2,2v4h4v-4C73,32.875,72.104,31.98,71,31.98z"/>
	</g>
</g>
</svg>
