<?xml version="1.0" encoding="iso-8859-1"?>
<!-- Generator: Adobe Illustrator 17.1.0, SVG Export Plug-In . SVG Version: 6.00 Build 0)  -->
<!DOCTYPE svg PUBLIC "-//W3C//DTD SVG 1.0//EN" "http://www.w3.org/TR/2001/REC-SVG-20010904/DTD/svg10.dtd">
<svg version="1.0" xmlns="http://www.w3.org/2000/svg" xmlns:xlink="http://www.w3.org/1999/xlink" x="0px" y="0px" width="110px"
	 height="110px" viewBox="0 0 110 110" style="enable-background:new 0 0 110 110;" xml:space="preserve">
<g id="Artboard">
</g>
<g id="Multicolor">
	<circle style="fill:#E04F5F;" cx="55" cy="54.98" r="55"/>
	<g>
		<path style="fill:#E2E4E5;" d="M87,42.98c0-2.209-1.791-4-4-4H27c-2.209,0-4,1.791-4,4v36c0,2.209,1.791,4,4,4h56
			c2.209,0,4-1.791,4-4V42.98z"/>
		<path style="fill:#FFFFFF;" d="M27,38.98c-2.209,0-4,1.791-4,4v36c0,0.945,0.341,1.802,0.89,2.487L66.376,38.98H27z"/>
		<path style="fill:#3E3E3F;" d="M67,38.98v-4l-3.414-3.414c-0.375-0.375-0.884-0.586-1.414-0.586H47.828
			c-0.53,0-1.039,0.211-1.414,0.586L43,34.98v4h-8l3.33-4l6.07-7.281c0.38-0.456,0.943-0.719,1.536-0.719h18.127
			c0.594,0,1.156,0.264,1.536,0.72L75,38.98H67z"/>
		<polygon style="fill:#CFD3D4;" points="43,34.98 43,38.98 35,38.98 38.33,34.98 		"/>
		<polygon style="fill:#CFD3D4;" points="67,34.98 67,38.98 75,38.98 71.67,34.98 		"/>
		<path style="fill:#B6BCBD;" d="M81,45.98c0,0.55-0.45,1-1,1H30c-0.55,0-1-0.45-1-1l0,0c0-0.55,0.45-1,1-1h50
			C80.55,44.98,81,45.43,81,45.98L81,45.98z"/>
		<path style="fill:#B6BCBD;" d="M81,52.98c0,0.55-0.45,1-1,1H30c-0.55,0-1-0.45-1-1l0,0c0-0.55,0.45-1,1-1h50
			C80.55,51.98,81,52.43,81,52.98L81,52.98z"/>
		<path style="fill:#B6BCBD;" d="M81,68.98c0,0.55-0.45,1-1,1H30c-0.55,0-1-0.45-1-1l0,0c0-0.55,0.45-1,1-1h50
			C80.55,67.98,81,68.43,81,68.98L81,68.98z"/>
		<path style="fill:#B6BCBD;" d="M81,75.98c0,0.55-0.45,1-1,1H30c-0.55,0-1-0.45-1-1l0,0c0-0.55,0.45-1,1-1h50
			C80.55,74.98,81,75.43,81,75.98L81,75.98z"/>
		<g>
			<path style="fill:#CFD3D4;" d="M29,45.98c0,0.55,0.45,1,1,1h28.458l2-2H30C29.45,44.98,29,45.43,29,45.98z"/>
			<path style="fill:#CFD3D4;" d="M29,52.98c0,0.55,0.45,1,1,1h21.458l2-2H30C29.45,51.98,29,52.43,29,52.98z"/>
			<path style="fill:#CFD3D4;" d="M29,68.98c0,0.55,0.45,1,1,1h5.458l2-2H30C29.45,67.98,29,68.43,29,68.98z"/>
		</g>
	</g>
</g>
</svg>
