<?xml version="1.0" encoding="iso-8859-1"?>
<!-- Generator: Adobe Illustrator 17.1.0, SVG Export Plug-In . SVG Version: 6.00 Build 0)  -->
<!DOCTYPE svg PUBLIC "-//W3C//DTD SVG 1.0//EN" "http://www.w3.org/TR/2001/REC-SVG-20010904/DTD/svg10.dtd">
<svg version="1.0" xmlns="http://www.w3.org/2000/svg" xmlns:xlink="http://www.w3.org/1999/xlink" x="0px" y="0px" width="110px"
	 height="110px" viewBox="0 0 110 110" style="enable-background:new 0 0 110 110;" xml:space="preserve">
<g id="Artboard" style="display:none;">
	
		<rect x="-840.5" y="-546.5" style="display:inline;fill:#808080;stroke:#000000;stroke-miterlimit:10;" width="1392" height="1369"/>
</g>
<g id="R-Multicolor">
	<circle style="fill:#25B7D3;" cx="55" cy="55" r="55"/>
	<g>
		<g>
			<path style="fill:#E2E4E5;" d="M84.364,55.334c-0.054-0.054-0.114-0.1-0.169-0.153c2.931-4.642,1.056-10.859-4.048-13.057
				c1.971-3.438,1.497-7.895-1.439-10.832s-7.394-3.41-10.832-1.439c-2.206-5.119-8.429-6.971-13.057-4.048
				c-0.053-0.055-0.099-0.115-0.153-0.169c-3.515-3.515-9.213-3.515-12.728,0c-3.515,3.515-3.515,9.213,0,12.728
				c-1.104,1.104-1.86,2.423-2.27,3.822L24.136,72.053c-1.61,3.097-1.027,6.88,1.441,9.348l3.022,3.022
				c2.468,2.468,6.251,3.051,9.348,1.441l29.867-15.531c1.399-0.41,2.718-1.167,3.822-2.27c3.515,3.515,9.213,3.515,12.728,0
				C87.879,64.548,87.879,58.849,84.364,55.334z M30.624,73.719l12.347-21.754c0.559,0.41,1.151,0.756,1.77,1.023
				c-1.288,2.246-1.525,4.926-0.72,7.334L30.624,73.719z M36.281,79.376l13.397-13.397c2.408,0.805,5.088,0.568,7.334-0.72
				c0.267,0.619,0.613,1.211,1.023,1.77L36.281,79.376z"/>
		</g>
		<g>
			<path style="fill:#FFFFFF;" d="M78.707,31.293c-2.937-2.937-7.394-3.41-10.832-1.439c-2.206-5.119-8.429-6.971-13.057-4.048
				c-0.053-0.055-0.099-0.115-0.153-0.169c-3.515-3.515-9.213-3.515-12.728,0c-3.515,3.515-3.515,9.213,0,12.728
				c-1.104,1.104-1.86,2.423-2.27,3.822L24.136,72.053c-1.61,3.097-1.027,6.88,1.441,9.348l1.67,1.67l51.612-51.612
				C78.807,31.404,78.76,31.346,78.707,31.293z M44.021,60.322L30.624,73.719l12.347-21.754c0.559,0.41,1.151,0.756,1.77,1.023
				C43.453,55.235,43.216,57.914,44.021,60.322z"/>
		</g>
		<g>
			<path style="fill:#0C7367;" d="M84.364,55.334c-0.054-0.054-0.114-0.1-0.169-0.153c2.931-4.642,1.056-10.859-4.048-13.057
				c1.971-3.438,1.497-7.895-1.439-10.832s-7.394-3.41-10.832-1.439c-2.206-5.119-8.429-6.971-13.057-4.048
				c-0.053-0.055-0.099-0.115-0.153-0.169c-3.515-3.515-9.213-3.515-12.728,0c-3.515,3.515-3.515,9.213,0,12.728
				c-3.515,3.515-3.515,9.213,0,12.728c0.831,0.831,1.786,1.458,2.803,1.896c-1.971,3.438-1.497,7.895,1.439,10.832
				s7.394,3.41,10.832,1.439c0.438,1.017,1.065,1.972,1.896,2.803c3.515,3.515,9.213,3.515,12.728,0
				c3.515,3.515,9.213,3.515,12.728,0C87.879,64.548,87.879,58.849,84.364,55.334z"/>
		</g>
		<g>
			<path style="fill:#099686;" d="M78.707,31.293c-2.937-2.937-7.394-3.41-10.832-1.439c-2.206-5.119-8.429-6.971-13.057-4.048
				c-0.053-0.055-0.099-0.115-0.153-0.169c-3.515-3.515-9.213-3.515-12.728,0c-3.515,3.515-3.515,9.213,0,12.728
				c-3.515,3.515-3.515,9.213,0,12.728c0.831,0.831,1.786,1.458,2.803,1.896c-1.971,3.438-1.497,7.895,1.439,10.832
				c0.038,0.038,0.08,0.071,0.118,0.109l32.517-32.517C78.778,31.372,78.745,31.331,78.707,31.293z"/>
		</g>
	</g>
</g>
<g id="Multicolor" style="display:none;">
	<g style="display:inline;">
		<g>
			<path style="fill:#E2E4E5;" d="M84.364,55.334c-0.054-0.054-0.114-0.1-0.169-0.153c2.931-4.642,1.056-10.859-4.048-13.057
				c1.971-3.438,1.497-7.895-1.439-10.832s-7.394-3.41-10.832-1.439c-2.206-5.119-8.429-6.971-13.057-4.048
				c-0.053-0.055-0.099-0.115-0.153-0.169c-3.515-3.515-9.213-3.515-12.728,0c-3.515,3.515-3.515,9.213,0,12.728
				c-1.104,1.104-1.86,2.423-2.27,3.822L24.136,72.053c-1.61,3.097-1.027,6.88,1.441,9.348l3.022,3.022
				c2.468,2.468,6.251,3.051,9.348,1.441l29.867-15.531c1.399-0.41,2.718-1.167,3.822-2.27c3.515,3.515,9.213,3.515,12.728,0
				C87.879,64.548,87.879,58.849,84.364,55.334z M30.624,73.719l12.347-21.754c0.559,0.41,1.151,0.756,1.77,1.023
				c-1.288,2.246-1.525,4.926-0.72,7.334L30.624,73.719z M36.281,79.376l13.397-13.397c2.408,0.805,5.088,0.568,7.334-0.72
				c0.267,0.619,0.613,1.211,1.023,1.77L36.281,79.376z"/>
		</g>
		<g>
			<path style="fill:#FFFFFF;" d="M78.707,31.293c-2.937-2.937-7.394-3.41-10.832-1.439c-2.206-5.119-8.429-6.971-13.057-4.048
				c-0.053-0.055-0.099-0.115-0.153-0.169c-3.515-3.515-9.213-3.515-12.728,0c-3.515,3.515-3.515,9.213,0,12.728
				c-1.104,1.104-1.86,2.423-2.27,3.822L24.136,72.053c-1.61,3.097-1.027,6.88,1.441,9.348l1.67,1.67l51.612-51.612
				C78.807,31.404,78.76,31.346,78.707,31.293z M44.021,60.322L30.624,73.719l12.347-21.754c0.559,0.41,1.151,0.756,1.77,1.023
				C43.453,55.235,43.216,57.914,44.021,60.322z"/>
		</g>
		<g>
			<path style="fill:#0C7367;" d="M84.364,55.334c-0.054-0.054-0.114-0.1-0.169-0.153c2.931-4.642,1.056-10.859-4.048-13.057
				c1.971-3.438,1.497-7.895-1.439-10.832s-7.394-3.41-10.832-1.439c-2.206-5.119-8.429-6.971-13.057-4.048
				c-0.053-0.055-0.099-0.115-0.153-0.169c-3.515-3.515-9.213-3.515-12.728,0c-3.515,3.515-3.515,9.213,0,12.728
				c-3.515,3.515-3.515,9.213,0,12.728c0.831,0.831,1.786,1.458,2.803,1.896c-1.971,3.438-1.497,7.895,1.439,10.832
				s7.394,3.41,10.832,1.439c0.438,1.017,1.065,1.972,1.896,2.803c3.515,3.515,9.213,3.515,12.728,0
				c3.515,3.515,9.213,3.515,12.728,0C87.879,64.548,87.879,58.849,84.364,55.334z"/>
		</g>
		<g>
			<path style="fill:#099686;" d="M78.707,31.293c-2.937-2.937-7.394-3.41-10.832-1.439c-2.206-5.119-8.429-6.971-13.057-4.048
				c-0.053-0.055-0.099-0.115-0.153-0.169c-3.515-3.515-9.213-3.515-12.728,0c-3.515,3.515-3.515,9.213,0,12.728
				c-3.515,3.515-3.515,9.213,0,12.728c0.831,0.831,1.786,1.458,2.803,1.896c-1.971,3.438-1.497,7.895,1.439,10.832
				c0.038,0.038,0.08,0.071,0.118,0.109l32.517-32.517C78.778,31.372,78.745,31.331,78.707,31.293z"/>
		</g>
	</g>
</g>
<g id="Blue" style="display:none;">
	<g style="display:inline;">
		<g>
			<path style="fill:#BBE7F2;" d="M84.363,55.334c-0.054-0.054-0.113-0.1-0.168-0.153c2.931-4.642,1.055-10.858-4.049-13.057
				c1.971-3.438,1.497-7.895-1.439-10.831c-2.937-2.937-7.394-3.41-10.832-1.44c-2.205-5.119-8.428-6.971-13.057-4.048
				c-0.053-0.055-0.099-0.115-0.152-0.169c-3.516-3.515-9.214-3.515-12.729,0c-3.515,3.515-3.515,9.213,0,12.728
				c-1.104,1.104-1.859,2.423-2.271,3.823l-15.53,29.867c-1.61,3.097-1.027,6.879,1.44,9.348l3.022,3.022
				c2.468,2.468,6.251,3.051,9.348,1.441l29.866-15.531c1.399-0.411,2.719-1.166,3.822-2.271c3.515,3.515,9.214,3.515,12.728,0
				C87.879,64.548,87.879,58.85,84.363,55.334z M30.624,73.719l12.347-21.754c0.559,0.41,1.15,0.756,1.77,1.023
				c-1.287,2.247-1.524,4.926-0.72,7.334L30.624,73.719z M36.281,79.377l13.396-13.397c2.408,0.805,5.088,0.567,7.334-0.72
				c0.267,0.619,0.613,1.211,1.024,1.77L36.281,79.377z"/>
		</g>
		<g>
			<path style="fill:#FFFFFF;" d="M78.707,31.293c-2.937-2.937-7.394-3.41-10.832-1.44c-2.205-5.119-8.428-6.971-13.057-4.048
				c-0.053-0.055-0.099-0.115-0.152-0.169c-3.516-3.515-9.214-3.515-12.729,0c-3.515,3.515-3.515,9.213,0,12.728
				c-1.104,1.104-1.859,2.423-2.271,3.823l-15.53,29.867c-1.61,3.097-1.027,6.879,1.44,9.348l1.67,1.669l51.612-51.612
				C78.807,31.404,78.761,31.347,78.707,31.293z M44.021,60.322L30.624,73.719l12.347-21.754c0.559,0.41,1.15,0.756,1.77,1.023
				C43.453,55.235,43.216,57.915,44.021,60.322z"/>
		</g>
		<g>
			<path style="fill:#0081A1;" d="M84.363,55.334c-0.054-0.054-0.113-0.1-0.168-0.153c2.931-4.642,1.055-10.858-4.049-13.057
				c1.971-3.438,1.497-7.895-1.439-10.831c-2.937-2.937-7.394-3.41-10.832-1.44c-2.205-5.119-8.428-6.971-13.057-4.048
				c-0.053-0.055-0.099-0.115-0.152-0.169c-3.516-3.515-9.214-3.515-12.729,0c-3.515,3.515-3.515,9.213,0,12.728
				c-3.515,3.515-3.515,9.213,0,12.728c0.831,0.831,1.786,1.458,2.803,1.896c-1.971,3.438-1.496,7.895,1.439,10.832
				c2.938,2.937,7.395,3.41,10.832,1.439c0.438,1.017,1.065,1.973,1.896,2.803c3.515,3.515,9.213,3.515,12.728,0
				c3.515,3.515,9.214,3.515,12.728,0C87.879,64.548,87.879,58.85,84.363,55.334z"/>
		</g>
		<g>
			<path style="fill:#009FC7;" d="M78.707,31.293c-2.937-2.937-7.394-3.41-10.832-1.44c-2.205-5.119-8.428-6.971-13.057-4.048
				c-0.053-0.055-0.099-0.115-0.152-0.169c-3.516-3.515-9.214-3.515-12.729,0c-3.515,3.515-3.515,9.213,0,12.728
				c-3.515,3.515-3.515,9.213,0,12.728c0.831,0.831,1.786,1.458,2.803,1.896c-1.971,3.438-1.496,7.895,1.439,10.832
				c0.039,0.038,0.08,0.071,0.119,0.109l32.517-32.518C78.778,31.373,78.745,31.331,78.707,31.293z"/>
		</g>
	</g>
</g>
<g id="R-Blue" style="display:none;">
	<circle style="display:inline;fill:#81D2EB;" cx="55" cy="55" r="55"/>
	<g style="display:inline;">
		<g>
			<path style="fill:#BBE7F2;" d="M84.363,55.334c-0.054-0.054-0.113-0.1-0.168-0.153c2.931-4.642,1.055-10.858-4.049-13.057
				c1.971-3.438,1.497-7.895-1.439-10.831c-2.937-2.937-7.394-3.41-10.832-1.44c-2.205-5.119-8.428-6.971-13.057-4.048
				c-0.053-0.055-0.099-0.115-0.152-0.169c-3.516-3.515-9.214-3.515-12.729,0c-3.515,3.515-3.515,9.213,0,12.728
				c-1.104,1.104-1.859,2.423-2.271,3.823l-15.53,29.867c-1.61,3.097-1.027,6.879,1.44,9.348l3.022,3.022
				c2.468,2.468,6.251,3.051,9.348,1.441l29.866-15.531c1.399-0.411,2.719-1.167,3.822-2.271c3.515,3.515,9.214,3.515,12.728,0
				C87.879,64.548,87.879,58.85,84.363,55.334z M30.624,73.719l12.347-21.754c0.559,0.41,1.15,0.756,1.77,1.023
				c-1.287,2.247-1.524,4.926-0.72,7.334L30.624,73.719z M36.281,79.376l13.396-13.397c2.408,0.805,5.088,0.567,7.334-0.72
				c0.267,0.619,0.613,1.211,1.024,1.77L36.281,79.376z"/>
		</g>
		<g>
			<path style="fill:#FFFFFF;" d="M78.707,31.293c-2.937-2.937-7.394-3.41-10.832-1.44c-2.205-5.119-8.428-6.971-13.057-4.048
				c-0.053-0.055-0.099-0.115-0.152-0.169c-3.516-3.515-9.214-3.515-12.729,0c-3.515,3.515-3.515,9.213,0,12.728
				c-1.104,1.104-1.859,2.423-2.271,3.823l-15.53,29.867c-1.61,3.097-1.027,6.879,1.44,9.348l1.67,1.669l51.612-51.612
				C78.807,31.404,78.761,31.347,78.707,31.293z M44.021,60.322L30.624,73.719l12.347-21.754c0.559,0.41,1.15,0.756,1.77,1.023
				C43.453,55.235,43.216,57.915,44.021,60.322z"/>
		</g>
		<g>
			<path style="fill:#0081A1;" d="M84.363,55.334c-0.054-0.054-0.113-0.1-0.168-0.153c2.931-4.642,1.055-10.858-4.049-13.057
				c1.971-3.438,1.497-7.895-1.439-10.831c-2.937-2.937-7.394-3.41-10.832-1.44c-2.205-5.119-8.428-6.971-13.057-4.048
				c-0.053-0.055-0.099-0.115-0.152-0.169c-3.516-3.515-9.214-3.515-12.729,0c-3.515,3.515-3.515,9.213,0,12.728
				c-3.515,3.515-3.515,9.213,0,12.728c0.831,0.831,1.786,1.458,2.803,1.896c-1.971,3.438-1.496,7.895,1.439,10.832
				c2.938,2.936,7.395,3.41,10.832,1.44c0.438,1.017,1.065,1.973,1.896,2.803c3.515,3.515,9.213,3.515,12.728,0
				c3.515,3.515,9.214,3.515,12.728,0C87.879,64.548,87.879,58.85,84.363,55.334z"/>
		</g>
		<g>
			<path style="fill:#009FC7;" d="M78.707,31.293c-2.937-2.937-7.394-3.41-10.832-1.44c-2.205-5.119-8.428-6.971-13.057-4.048
				c-0.053-0.055-0.099-0.115-0.152-0.169c-3.516-3.515-9.214-3.515-12.729,0c-3.515,3.515-3.515,9.213,0,12.728
				c-3.515,3.515-3.515,9.213,0,12.728c0.831,0.831,1.786,1.458,2.803,1.896c-1.971,3.438-1.496,7.895,1.439,10.832
				c0.039,0.038,0.08,0.071,0.119,0.109l32.517-32.518C78.778,31.373,78.745,31.331,78.707,31.293z"/>
		</g>
	</g>
</g>
<g id="Green" style="display:none;">
	<g style="display:inline;">
		<g>
			<path style="fill:#AAF0E9;" d="M84.363,55.334c-0.054-0.054-0.113-0.1-0.168-0.153c2.931-4.642,1.055-10.858-4.049-13.057
				c1.971-3.438,1.497-7.895-1.44-10.832c-2.936-2.937-7.393-3.41-10.832-1.439c-2.205-5.119-8.428-6.971-13.057-4.048
				c-0.053-0.055-0.099-0.115-0.152-0.169c-3.516-3.515-9.214-3.515-12.729,0c-3.515,3.515-3.515,9.213,0,12.728
				c-1.104,1.104-1.859,2.423-2.271,3.823l-15.53,29.867c-1.61,3.097-1.027,6.879,1.44,9.348l3.022,3.022
				c2.468,2.468,6.251,3.051,9.348,1.441l29.866-15.531c1.399-0.411,2.719-1.167,3.822-2.271c3.515,3.515,9.214,3.515,12.728,0
				C87.879,64.548,87.879,58.85,84.363,55.334z M30.624,73.719l12.347-21.754c0.559,0.41,1.15,0.756,1.77,1.023
				c-1.287,2.247-1.524,4.926-0.72,7.334L30.624,73.719z M36.281,79.377l13.396-13.397c2.408,0.805,5.088,0.567,7.334-0.72
				c0.267,0.619,0.613,1.211,1.024,1.77L36.281,79.377z"/>
		</g>
		<g>
			<path style="fill:#FFFFFF;" d="M78.707,31.293c-2.936-2.937-7.393-3.41-10.832-1.439c-2.205-5.119-8.428-6.971-13.057-4.048
				c-0.053-0.055-0.099-0.115-0.152-0.169c-3.516-3.515-9.214-3.515-12.729,0c-3.515,3.515-3.515,9.213,0,12.728
				c-1.104,1.104-1.859,2.423-2.271,3.823l-15.53,29.867c-1.61,3.097-1.027,6.879,1.44,9.348l1.67,1.669l51.612-51.612
				C78.807,31.404,78.761,31.347,78.707,31.293z M44.02,60.322L30.624,73.719l12.347-21.754c0.559,0.41,1.15,0.756,1.77,1.023
				C43.453,55.235,43.216,57.915,44.02,60.322z"/>
		</g>
		<g>
			<path style="fill:#009687;" d="M84.363,55.334c-0.054-0.054-0.113-0.1-0.168-0.153c2.931-4.642,1.055-10.858-4.049-13.057
				c1.971-3.438,1.497-7.895-1.44-10.832c-2.936-2.937-7.393-3.41-10.832-1.439c-2.205-5.119-8.428-6.971-13.057-4.048
				c-0.053-0.055-0.099-0.115-0.152-0.169c-3.516-3.515-9.214-3.515-12.729,0c-3.515,3.515-3.515,9.213,0,12.728
				c-3.515,3.515-3.515,9.213,0,12.728c0.831,0.831,1.786,1.458,2.803,1.896c-1.971,3.438-1.496,7.895,1.439,10.832
				c2.938,2.937,7.395,3.41,10.832,1.439c0.438,1.017,1.065,1.973,1.896,2.803c3.515,3.515,9.213,3.515,12.728,0
				c3.515,3.515,9.214,3.515,12.728,0C87.879,64.548,87.879,58.85,84.363,55.334z"/>
		</g>
		<g>
			<path style="fill:#00B8A5;" d="M78.707,31.293c-2.936-2.937-7.393-3.41-10.832-1.439c-2.205-5.119-8.428-6.971-13.057-4.048
				c-0.053-0.055-0.099-0.115-0.152-0.169c-3.516-3.515-9.214-3.515-12.729,0c-3.515,3.515-3.515,9.213,0,12.728
				c-3.515,3.515-3.515,9.213,0,12.728c0.831,0.831,1.786,1.458,2.803,1.896c-1.971,3.438-1.496,7.895,1.439,10.832
				c0.039,0.038,0.08,0.071,0.119,0.109l32.517-32.518C78.778,31.373,78.745,31.331,78.707,31.293z"/>
		</g>
	</g>
</g>
<g id="R-Green" style="display:none;">
	<circle style="display:inline;fill:#77E0C4;" cx="55" cy="55" r="55"/>
	<g style="display:inline;">
		<g>
			<path style="fill:#AAF0E9;" d="M84.363,55.334c-0.054-0.054-0.113-0.1-0.168-0.153c2.931-4.642,1.055-10.858-4.049-13.057
				c1.971-3.438,1.497-7.895-1.439-10.831c-2.937-2.937-7.394-3.41-10.832-1.44c-2.205-5.119-8.428-6.971-13.057-4.048
				c-0.053-0.055-0.099-0.115-0.152-0.169c-3.516-3.515-9.214-3.515-12.729,0c-3.515,3.515-3.515,9.213,0,12.728
				c-1.104,1.104-1.859,2.423-2.271,3.823l-15.53,29.867c-1.61,3.097-1.027,6.879,1.44,9.348l3.022,3.022
				c2.468,2.468,6.251,3.051,9.348,1.441l29.866-15.531c1.399-0.411,2.719-1.166,3.822-2.271c3.515,3.515,9.214,3.515,12.728,0
				C87.879,64.548,87.879,58.85,84.363,55.334z M30.624,73.719l12.347-21.754c0.559,0.41,1.15,0.756,1.77,1.023
				c-1.287,2.247-1.524,4.926-0.72,7.334L30.624,73.719z M36.281,79.377l13.396-13.397c2.408,0.805,5.088,0.567,7.334-0.72
				c0.267,0.619,0.613,1.211,1.023,1.77L36.281,79.377z"/>
		</g>
		<g>
			<path style="fill:#FFFFFF;" d="M78.707,31.293c-2.937-2.937-7.394-3.41-10.832-1.44c-2.205-5.119-8.428-6.971-13.057-4.048
				c-0.053-0.055-0.099-0.115-0.152-0.169c-3.516-3.515-9.214-3.515-12.729,0c-3.515,3.515-3.515,9.213,0,12.728
				c-1.104,1.104-1.859,2.423-2.271,3.823l-15.53,29.867c-1.61,3.097-1.027,6.879,1.44,9.348l1.67,1.669l51.612-51.612
				C78.807,31.404,78.761,31.347,78.707,31.293z M44.021,60.322L30.624,73.719l12.347-21.754c0.559,0.41,1.15,0.756,1.77,1.023
				C43.453,55.235,43.216,57.915,44.021,60.322z"/>
		</g>
		<g>
			<path style="fill:#009687;" d="M84.363,55.334c-0.054-0.054-0.113-0.1-0.168-0.153c2.931-4.642,1.055-10.858-4.049-13.057
				c1.971-3.438,1.497-7.895-1.439-10.831c-2.937-2.937-7.394-3.41-10.832-1.44c-2.205-5.119-8.428-6.971-13.057-4.048
				c-0.053-0.055-0.099-0.115-0.152-0.169c-3.516-3.515-9.214-3.515-12.729,0c-3.515,3.515-3.515,9.213,0,12.728
				c-3.515,3.515-3.515,9.213,0,12.728c0.831,0.831,1.786,1.458,2.803,1.896c-1.971,3.438-1.496,7.895,1.439,10.832
				c2.938,2.937,7.395,3.41,10.832,1.439c0.438,1.017,1.065,1.973,1.896,2.803c3.515,3.515,9.213,3.515,12.727,0
				c3.515,3.515,9.214,3.515,12.728,0C87.879,64.548,87.879,58.85,84.363,55.334z"/>
		</g>
		<g>
			<path style="fill:#00B8A5;" d="M78.707,31.293c-2.937-2.937-7.394-3.41-10.832-1.44c-2.205-5.119-8.428-6.971-13.057-4.048
				c-0.053-0.055-0.099-0.115-0.152-0.169c-3.516-3.515-9.214-3.515-12.729,0c-3.515,3.515-3.515,9.213,0,12.728
				c-3.515,3.515-3.515,9.213,0,12.728c0.831,0.831,1.786,1.458,2.803,1.896c-1.971,3.438-1.496,7.895,1.439,10.832
				c0.039,0.038,0.08,0.071,0.119,0.109l32.517-32.518C78.778,31.373,78.745,31.331,78.707,31.293z"/>
		</g>
	</g>
</g>
<g id="Red" style="display:none;">
	<g style="display:inline;">
		<g>
			<path style="fill:#FFD7D4;" d="M84.363,55.334c-0.054-0.054-0.113-0.1-0.168-0.153c2.931-4.642,1.055-10.858-4.049-13.057
				c1.971-3.438,1.497-7.895-1.439-10.832c-2.937-2.937-7.394-3.41-10.832-1.439c-2.205-5.119-8.428-6.971-13.057-4.048
				c-0.053-0.055-0.099-0.115-0.152-0.169c-3.516-3.515-9.214-3.515-12.729,0c-3.515,3.515-3.515,9.213,0,12.728
				c-1.103,1.104-1.859,2.423-2.27,3.823l-15.53,29.867c-1.61,3.097-1.027,6.879,1.44,9.348l3.022,3.022
				c2.468,2.468,6.251,3.051,9.348,1.441l29.866-15.531c1.399-0.411,2.719-1.167,3.822-2.271c3.515,3.515,9.214,3.515,12.728,0
				C87.879,64.548,87.879,58.85,84.363,55.334z M30.624,73.719l12.347-21.754c0.559,0.41,1.15,0.756,1.77,1.023
				c-1.287,2.247-1.524,4.926-0.72,7.334L30.624,73.719z M36.281,79.377l13.396-13.397c2.408,0.805,5.088,0.567,7.334-0.72
				c0.267,0.619,0.613,1.211,1.023,1.77L36.281,79.377z"/>
		</g>
		<g>
			<path style="fill:#FFFFFF;" d="M78.707,31.293c-2.937-2.937-7.394-3.41-10.832-1.439c-2.205-5.119-8.428-6.971-13.057-4.048
				c-0.053-0.055-0.099-0.115-0.152-0.169c-3.516-3.515-9.214-3.515-12.729,0c-3.515,3.515-3.515,9.213,0,12.728
				c-1.103,1.104-1.859,2.423-2.27,3.823l-15.53,29.867c-1.61,3.097-1.027,6.879,1.44,9.348l1.67,1.669l51.612-51.612
				C78.807,31.404,78.761,31.347,78.707,31.293z M44.021,60.322L30.624,73.719l12.347-21.754c0.559,0.41,1.15,0.756,1.77,1.023
				C43.453,55.235,43.216,57.915,44.021,60.322z"/>
		</g>
		<g>
			<path style="fill:#C23023;" d="M84.363,55.334c-0.054-0.054-0.113-0.1-0.168-0.153c2.931-4.642,1.055-10.858-4.049-13.057
				c1.971-3.438,1.497-7.895-1.439-10.832c-2.937-2.937-7.394-3.41-10.832-1.439c-2.205-5.119-8.428-6.971-13.057-4.048
				c-0.053-0.055-0.099-0.115-0.152-0.169c-3.516-3.515-9.214-3.515-12.729,0c-3.515,3.515-3.515,9.213,0,12.728
				c-3.515,3.515-3.515,9.213,0,12.728c0.831,0.831,1.786,1.458,2.803,1.896c-1.971,3.438-1.496,7.895,1.44,10.832
				c2.938,2.937,7.395,3.41,10.832,1.439c0.438,1.017,1.065,1.973,1.896,2.803c3.515,3.515,9.213,3.515,12.728,0
				c3.515,3.515,9.214,3.515,12.728,0C87.879,64.548,87.879,58.85,84.363,55.334z"/>
		</g>
		<g>
			<path style="fill:#E54B44;" d="M78.707,31.293c-2.937-2.937-7.394-3.41-10.832-1.439c-2.205-5.119-8.428-6.971-13.057-4.048
				c-0.053-0.055-0.099-0.115-0.152-0.169c-3.516-3.515-9.214-3.515-12.729,0c-3.515,3.515-3.515,9.213,0,12.728
				c-3.515,3.515-3.515,9.213,0,12.728c0.831,0.831,1.786,1.458,2.803,1.896c-1.971,3.438-1.496,7.895,1.44,10.832
				c0.039,0.038,0.08,0.071,0.119,0.109l32.517-32.518C78.778,31.373,78.745,31.331,78.707,31.293z"/>
		</g>
	</g>
</g>
<g id="R-Red" style="display:none;">
	<circle style="display:inline;fill:#FABBAF;" cx="55" cy="55" r="55"/>
	<g style="display:inline;">
		<g>
			<path style="fill:#FFD7D4;" d="M84.363,55.334c-0.054-0.054-0.113-0.1-0.168-0.153c2.931-4.642,1.055-10.858-4.049-13.057
				c1.971-3.438,1.497-7.895-1.439-10.832c-2.937-2.937-7.394-3.41-10.832-1.439c-2.205-5.119-8.428-6.971-13.057-4.048
				c-0.053-0.055-0.099-0.115-0.152-0.169c-3.516-3.515-9.214-3.515-12.729,0c-3.515,3.515-3.515,9.213,0,12.728
				c-1.103,1.104-1.859,2.423-2.27,3.823l-15.53,29.867c-1.61,3.097-1.027,6.879,1.44,9.348l3.022,3.022
				c2.468,2.468,6.251,3.051,9.348,1.441l29.866-15.531c1.399-0.411,2.719-1.167,3.822-2.271c3.515,3.515,9.214,3.515,12.728,0
				C87.879,64.548,87.879,58.85,84.363,55.334z M30.624,73.719l12.347-21.754c0.559,0.41,1.15,0.756,1.77,1.023
				c-1.287,2.247-1.524,4.926-0.72,7.334L30.624,73.719z M36.281,79.377l13.396-13.397c2.408,0.805,5.088,0.567,7.334-0.72
				c0.267,0.619,0.613,1.211,1.023,1.77L36.281,79.377z"/>
		</g>
		<g>
			<path style="fill:#FFFFFF;" d="M78.707,31.293c-2.937-2.937-7.394-3.41-10.832-1.439c-2.205-5.119-8.428-6.971-13.057-4.048
				c-0.053-0.055-0.099-0.115-0.152-0.169c-3.516-3.515-9.214-3.515-12.729,0c-3.515,3.515-3.515,9.213,0,12.728
				c-1.103,1.104-1.859,2.423-2.27,3.823l-15.53,29.867c-1.61,3.097-1.027,6.879,1.44,9.348l1.67,1.669l51.612-51.612
				C78.807,31.404,78.761,31.347,78.707,31.293z M44.021,60.322L30.624,73.719l12.347-21.754c0.559,0.41,1.15,0.756,1.77,1.023
				C43.453,55.235,43.216,57.915,44.021,60.322z"/>
		</g>
		<g>
			<path style="fill:#C23023;" d="M84.363,55.334c-0.054-0.054-0.113-0.1-0.168-0.153c2.931-4.642,1.055-10.858-4.049-13.057
				c1.971-3.438,1.497-7.895-1.439-10.832c-2.937-2.937-7.394-3.41-10.832-1.439c-2.205-5.119-8.428-6.971-13.057-4.048
				c-0.053-0.055-0.099-0.115-0.152-0.169c-3.516-3.515-9.214-3.515-12.729,0c-3.515,3.515-3.515,9.213,0,12.728
				c-3.515,3.515-3.515,9.213,0,12.728c0.831,0.831,1.786,1.458,2.803,1.896c-1.971,3.438-1.496,7.895,1.44,10.832
				c2.938,2.937,7.395,3.41,10.832,1.439c0.438,1.017,1.065,1.973,1.896,2.803c3.515,3.515,9.213,3.515,12.728,0
				c3.515,3.515,9.214,3.515,12.728,0C87.879,64.548,87.879,58.85,84.363,55.334z"/>
		</g>
		<g>
			<path style="fill:#E54B44;" d="M78.707,31.293c-2.937-2.937-7.394-3.41-10.832-1.439c-2.205-5.119-8.428-6.971-13.057-4.048
				c-0.053-0.055-0.099-0.115-0.152-0.169c-3.516-3.515-9.214-3.515-12.729,0c-3.515,3.515-3.515,9.213,0,12.728
				c-3.515,3.515-3.515,9.213,0,12.728c0.831,0.831,1.786,1.458,2.803,1.896c-1.971,3.438-1.496,7.895,1.44,10.832
				c0.039,0.038,0.08,0.071,0.119,0.109l32.517-32.518C78.778,31.373,78.745,31.331,78.707,31.293z"/>
		</g>
	</g>
</g>
<g id="Yellow" style="display:none;">
	<g style="display:inline;">
		<g>
			<path style="fill:#FFE9A1;" d="M84.363,55.334c-0.054-0.054-0.113-0.1-0.168-0.153c2.931-4.642,1.055-10.858-4.049-13.057
				c1.971-3.438,1.497-7.895-1.439-10.831c-2.937-2.937-7.394-3.41-10.832-1.44c-2.205-5.119-8.428-6.971-13.057-4.048
				c-0.053-0.055-0.099-0.115-0.152-0.169c-3.516-3.515-9.214-3.515-12.729,0c-3.515,3.515-3.515,9.213,0,12.728
				c-1.104,1.104-1.859,2.423-2.271,3.823l-15.53,29.867c-1.61,3.097-1.027,6.879,1.44,9.348l3.022,3.022
				c2.468,2.468,6.251,3.051,9.348,1.441l29.866-15.531c1.399-0.411,2.719-1.166,3.822-2.271c3.515,3.515,9.214,3.515,12.728,0
				C87.879,64.548,87.879,58.85,84.363,55.334z M30.624,73.719l12.347-21.754c0.559,0.41,1.15,0.756,1.77,1.023
				c-1.287,2.247-1.524,4.926-0.72,7.334L30.624,73.719z M36.281,79.377l13.396-13.397c2.408,0.805,5.088,0.567,7.334-0.72
				c0.267,0.619,0.613,1.211,1.023,1.77L36.281,79.377z"/>
		</g>
		<g>
			<path style="fill:#FFFFFF;" d="M78.707,31.293c-2.937-2.937-7.394-3.41-10.832-1.44c-2.205-5.119-8.428-6.971-13.057-4.048
				c-0.053-0.055-0.099-0.115-0.152-0.169c-3.516-3.515-9.214-3.515-12.729,0c-3.515,3.515-3.515,9.213,0,12.728
				c-1.104,1.104-1.859,2.423-2.271,3.823l-15.53,29.867c-1.61,3.097-1.027,6.879,1.44,9.348l1.67,1.669l51.612-51.612
				C78.807,31.404,78.761,31.347,78.707,31.293z M44.021,60.322L30.624,73.719l12.347-21.754c0.559,0.41,1.15,0.756,1.77,1.023
				C43.453,55.235,43.216,57.915,44.021,60.322z"/>
		</g>
		<g>
			<path style="fill:#E07000;" d="M84.363,55.334c-0.054-0.054-0.113-0.1-0.168-0.153c2.931-4.642,1.055-10.858-4.049-13.057
				c1.971-3.438,1.497-7.895-1.439-10.831c-2.937-2.937-7.394-3.41-10.832-1.44c-2.205-5.119-8.428-6.971-13.057-4.048
				c-0.053-0.055-0.099-0.115-0.152-0.169c-3.516-3.515-9.214-3.515-12.729,0c-3.515,3.515-3.515,9.213,0,12.728
				c-3.515,3.515-3.515,9.213,0,12.728c0.831,0.831,1.786,1.458,2.803,1.896c-1.971,3.438-1.496,7.895,1.439,10.832
				c2.938,2.937,7.395,3.41,10.832,1.439c0.438,1.017,1.065,1.973,1.896,2.803c3.515,3.515,9.213,3.515,12.727,0
				c3.515,3.515,9.214,3.515,12.728,0C87.879,64.548,87.879,58.85,84.363,55.334z"/>
		</g>
		<g>
			<path style="fill:#FA9200;" d="M78.707,31.293c-2.937-2.937-7.394-3.41-10.832-1.44c-2.205-5.119-8.428-6.971-13.057-4.048
				c-0.053-0.055-0.099-0.115-0.152-0.169c-3.516-3.515-9.214-3.515-12.729,0c-3.515,3.515-3.515,9.213,0,12.728
				c-3.515,3.515-3.515,9.213,0,12.728c0.831,0.831,1.786,1.458,2.803,1.896c-1.971,3.438-1.496,7.895,1.439,10.832
				c0.039,0.038,0.08,0.071,0.119,0.109l32.517-32.518C78.778,31.373,78.745,31.331,78.707,31.293z"/>
		</g>
	</g>
</g>
<g id="R-Yellow" style="display:none;">
	<circle style="display:inline;fill:#FFD75E;" cx="55" cy="55" r="55"/>
	<g style="display:inline;">
		<g>
			<path style="fill:#FFE9A1;" d="M84.363,55.334c-0.054-0.054-0.113-0.1-0.168-0.153c2.931-4.642,1.055-10.858-4.049-13.057
				c1.971-3.438,1.497-7.895-1.44-10.831c-2.936-2.937-7.393-3.41-10.832-1.44c-2.205-5.119-8.428-6.971-13.057-4.048
				c-0.053-0.055-0.099-0.115-0.152-0.169c-3.516-3.515-9.214-3.515-12.729,0c-3.515,3.515-3.515,9.213,0,12.728
				c-1.104,1.104-1.859,2.423-2.271,3.823l-15.53,29.867c-1.61,3.097-1.027,6.879,1.44,9.348l3.022,3.022
				c2.468,2.468,6.251,3.051,9.348,1.441l29.866-15.531c1.399-0.411,2.719-1.166,3.822-2.271c3.515,3.515,9.214,3.515,12.728,0
				C87.879,64.548,87.879,58.85,84.363,55.334z M30.624,73.719l12.347-21.754c0.559,0.41,1.15,0.756,1.77,1.023
				c-1.287,2.247-1.524,4.926-0.72,7.334L30.624,73.719z M36.281,79.377l13.396-13.397c2.408,0.805,5.088,0.567,7.334-0.72
				c0.267,0.619,0.613,1.211,1.024,1.77L36.281,79.377z"/>
		</g>
		<g>
			<path style="fill:#FFFFFF;" d="M78.707,31.293c-2.936-2.937-7.393-3.41-10.832-1.44c-2.205-5.119-8.428-6.971-13.057-4.048
				c-0.053-0.055-0.099-0.115-0.152-0.169c-3.516-3.515-9.214-3.515-12.729,0c-3.515,3.515-3.515,9.213,0,12.728
				c-1.104,1.104-1.859,2.423-2.271,3.823l-15.53,29.867c-1.61,3.097-1.027,6.879,1.44,9.348l1.67,1.669l51.612-51.612
				C78.807,31.404,78.761,31.347,78.707,31.293z M44.02,60.322L30.624,73.719l12.347-21.754c0.559,0.41,1.15,0.756,1.77,1.023
				C43.453,55.235,43.216,57.915,44.02,60.322z"/>
		</g>
		<g>
			<path style="fill:#E07000;" d="M84.363,55.334c-0.054-0.054-0.113-0.1-0.168-0.153c2.931-4.642,1.055-10.858-4.049-13.057
				c1.971-3.438,1.497-7.895-1.44-10.831c-2.936-2.937-7.393-3.41-10.832-1.44c-2.205-5.119-8.428-6.971-13.057-4.048
				c-0.053-0.055-0.099-0.115-0.152-0.169c-3.516-3.515-9.214-3.515-12.729,0c-3.515,3.515-3.515,9.213,0,12.728
				c-3.515,3.515-3.515,9.213,0,12.728c0.831,0.831,1.786,1.458,2.803,1.896c-1.971,3.438-1.496,7.895,1.439,10.832
				c2.938,2.937,7.395,3.41,10.832,1.439c0.438,1.017,1.065,1.973,1.896,2.803c3.515,3.515,9.213,3.515,12.728,0
				c3.515,3.515,9.214,3.515,12.728,0C87.879,64.548,87.879,58.85,84.363,55.334z"/>
		</g>
		<g>
			<path style="fill:#FA9200;" d="M78.707,31.293c-2.936-2.937-7.393-3.41-10.832-1.44c-2.205-5.119-8.428-6.971-13.057-4.048
				c-0.053-0.055-0.099-0.115-0.152-0.169c-3.516-3.515-9.214-3.515-12.729,0c-3.515,3.515-3.515,9.213,0,12.728
				c-3.515,3.515-3.515,9.213,0,12.728c0.831,0.831,1.786,1.458,2.803,1.896c-1.971,3.438-1.496,7.895,1.439,10.832
				c0.039,0.038,0.08,0.071,0.119,0.109l32.517-32.518C78.778,31.373,78.745,31.331,78.707,31.293z"/>
		</g>
	</g>
</g>
</svg>
