<?xml version="1.0" encoding="iso-8859-1"?>
<!-- Generator: Adobe Illustrator 17.1.0, SVG Export Plug-In . SVG Version: 6.00 Build 0)  -->
<!DOCTYPE svg PUBLIC "-//W3C//DTD SVG 1.0//EN" "http://www.w3.org/TR/2001/REC-SVG-20010904/DTD/svg10.dtd">
<svg version="1.0" xmlns="http://www.w3.org/2000/svg" xmlns:xlink="http://www.w3.org/1999/xlink" x="0px" y="0px" width="110px"
	 height="110px" viewBox="0 0 110 110" style="enable-background:new 0 0 110 110;" xml:space="preserve">
<g id="Artboard">
</g>
<g id="Multicolor">
	<circle style="fill:#FABC3D;" cx="55" cy="55" r="55"/>
	<g>
		<g>
			<path style="fill:#DF2C2C;" d="M49.446,63.347l6.96-11.932L49,44.281l-1.65-19.944C37.162,20.354,23,27.771,23,47.08
				c0.399,18.371,20.783,33.154,28.794,38.264l3.823-12.741L49.446,63.347z"/>
		</g>
		<g>
			<path style="fill:#DF2C2C;" d="M58.526,26.742L56,42.281l7,8l-8,12l4.988,9.669L55.474,87
				c3.916-2.263,31.043-18.699,31.503-39.92C86.977,24.996,68.442,18.449,58.526,26.742z"/>
		</g>
		<g>
			<path style="fill:#FA5655;" d="M49,44.281l-1.65-19.944C37.162,20.354,23,27.771,23,47.08c0.181,8.313,4.458,15.887,9.825,22.167
				l20.653-20.653L49,44.281z"/>
		</g>
		<g>
			<path style="fill:#FA5655;" d="M58.526,26.742L56,42.281l1.77,2.022l18.752-18.752C70.638,22.158,63.499,22.583,58.526,26.742z"
				/>
		</g>
	</g>
</g>
</svg>
