<?xml version="1.0" encoding="iso-8859-1"?>
<!-- Generator: Adobe Illustrator 17.1.0, SVG Export Plug-In . SVG Version: 6.00 Build 0)  -->
<!DOCTYPE svg PUBLIC "-//W3C//DTD SVG 1.0//EN" "http://www.w3.org/TR/2001/REC-SVG-20010904/DTD/svg10.dtd">
<svg version="1.0" xmlns="http://www.w3.org/2000/svg" xmlns:xlink="http://www.w3.org/1999/xlink" x="0px" y="0px" width="110px"
	 height="110px" viewBox="0 0 110 110" style="enable-background:new 0 0 110 110;" xml:space="preserve">
<g id="Artboard">
</g>
<g id="Multicolor">
	<circle style="fill:#32BEA6;" cx="55" cy="55" r="55"/>
	<g>
		<g>
			<path style="fill:#84462D;" d="M85.439,30.315c0.763-0.722,1.202-1.722,1.217-2.772s-0.396-2.062-1.139-2.805
				c-0.743-0.743-1.755-1.154-2.805-1.139c-1.05,0.015-2.05,0.453-2.772,1.217L59.19,46.822l4.243,4.243L85.439,30.315z"/>
		</g>
		<g>
			<path style="fill:#9C6144;" d="M82.712,23.599c-1.051,0.015-2.051,0.453-2.772,1.217L59.19,46.822l2.026,2.026l24.196-24.196
				C84.68,23.97,83.717,23.585,82.712,23.599z"/>
		</g>
		<g>
			<path style="fill:#FBE158;" d="M64.14,48.944l2.426-4.852c0.058-0.115,0.035-0.255-0.056-0.346
				c-0.091-0.091-0.231-0.114-0.346-0.056l-4.852,2.426l1.22-6.099c0.026-0.13-0.036-0.261-0.153-0.323
				c-0.117-0.062-0.26-0.041-0.354,0.052l-8.492,8.492l-2.885,0.577c-5.035,1.007-12.615,0.526-16.246,4.157L23,64.373
				c0.525,1.049,4.045,5.014,4.643,5.99l7.034-5.627l-4.585,9.17c1.237,1.584,2.595,3.048,4.066,4.397l10.968-8.775L38.901,81.98
				c1.278,0.837,5.317,4.315,6.727,5.02L57.03,75.597c3.631-3.631,3.405-10.957,4.412-15.992l0.576-2.883l8.492-8.492
				c0.093-0.093,0.115-0.237,0.052-0.354c-0.062-0.117-0.194-0.179-0.323-0.153L64.14,48.944z"/>
		</g>
		<g>
			<path style="fill:#FBEC9A;" d="M66.163,43.689l-4.852,2.426l1.22-6.099c0.026-0.13-0.036-0.261-0.153-0.323
				c-0.117-0.062-0.26-0.041-0.354,0.052l-8.492,8.492l-2.885,0.577c-5.035,1.007-12.615,0.526-16.246,4.157L23,64.372
				c0.524,1.049,4.045,5.014,4.643,5.99l7.034-5.627l-4.585,9.17c0.887,1.135,1.857,2.188,2.865,3.202l33.427-33.427
				C66.311,43.658,66.234,43.653,66.163,43.689z"/>
		</g>
		<g>
			
				<rect x="53.19" y="49.065" transform="matrix(-0.7071 -0.7071 0.7071 -0.7071 64.935 129.0268)" style="fill:#FA5655;" width="12" height="4"/>
		</g>
		<g>
			
				<rect x="55.021" y="45.963" transform="matrix(0.7071 -0.7071 0.7071 0.7071 -17.8735 54.6445)" style="fill:#F79392;" width="4" height="5.866"/>
		</g>
	</g>
</g>
</svg>
