<?xml version="1.0" encoding="iso-8859-1"?>
<!-- Generator: Adobe Illustrator 17.1.0, SVG Export Plug-In . SVG Version: 6.00 Build 0)  -->
<!DOCTYPE svg PUBLIC "-//W3C//DTD SVG 1.0//EN" "http://www.w3.org/TR/2001/REC-SVG-20010904/DTD/svg10.dtd">
<svg version="1.0" xmlns="http://www.w3.org/2000/svg" xmlns:xlink="http://www.w3.org/1999/xlink" x="0px" y="0px" width="110px"
	 height="110px" viewBox="0 0 110 110" style="enable-background:new 0 0 110 110;" xml:space="preserve">
<g id="Artboard">
</g>
<g id="Multicolor">
	<circle style="fill:#32BEA6;" cx="55" cy="55" r="55"/>
	<g>
		<path style="fill:#84462D;" d="M85.88,24.043l0.028,0.028c0.808,0.808,0.916,2.077,0.249,3.006
			C82.166,32.63,60.66,62.288,57.073,65.875c-4.243,4.243-12.332,4.992-12.332,4.992l-5.657-5.657c0,0,1.019-7.821,5.261-12.063
			c3.587-3.587,32.977-25.362,38.529-29.353C83.803,23.127,85.072,23.235,85.88,24.043z"/>
		<path style="fill:#3E3E3F;" d="M44.744,70.868l-5.657-5.657c0,0,0.002-0.02,0.005-0.036c-4.305-2.151-8.717-0.14-11.145,4.101
			c-3.608,6.304,1.98,10.479-4.947,17.407c3.5,1.209,15.554-1.144,19.796-5.386c3.257-3.257,4.134-6.648,1.987-10.433
			C44.765,70.866,44.744,70.868,44.744,70.868z"/>
		<path style="fill:#9C6144;" d="M85.908,24.072l-0.028-0.028c-0.808-0.808-2.077-0.916-3.005-0.249
			c-5.553,3.991-34.942,25.766-38.529,29.353c-4.243,4.243-5.261,12.063-5.261,12.063l3.02,3.02L86.07,24.265
			C86.017,24.199,85.969,24.132,85.908,24.072z"/>
		<path style="fill:#5B5C5F;" d="M39.087,65.211c0,0,0.002-0.02,0.005-0.036c-4.305-2.151-8.717-0.14-11.145,4.101
			c-3.608,6.304,1.98,10.479-4.947,17.407c0.152,0.052,0.34,0.089,0.522,0.129l18.583-18.583L39.087,65.211z"/>
		<path style="fill:#FACB1B;" d="M41.923,56.479L53.71,68.266c-4.151,2.157-8.966,2.602-8.966,2.602l-5.657-5.657
			C39.087,65.211,39.695,60.559,41.923,56.479z"/>
		<path style="fill:#FBE158;" d="M41.923,56.479c-2.228,4.08-2.835,8.733-2.835,8.733l3.018,3.018l5.784-5.784L41.923,56.479z"/>
	</g>
</g>
</svg>
