<?xml version="1.0" encoding="iso-8859-1"?>
<!-- Generator: Adobe Illustrator 17.1.0, SVG Export Plug-In . SVG Version: 6.00 Build 0)  -->
<!DOCTYPE svg PUBLIC "-//W3C//DTD SVG 1.0//EN" "http://www.w3.org/TR/2001/REC-SVG-20010904/DTD/svg10.dtd">
<svg version="1.0" xmlns="http://www.w3.org/2000/svg" xmlns:xlink="http://www.w3.org/1999/xlink" x="0px" y="0px" width="110px"
	 height="110px" viewBox="0 0 110 110" style="enable-background:new 0 0 110 110;" xml:space="preserve">
<g id="Artboard">
</g>
<g id="Multicolor">
	<circle style="fill:#32BEA6;" cx="55" cy="55" r="55"/>
	<g>
		<g>
			<path style="fill:#84462D;" d="M50.944,58.945L42.998,51L26.312,67.686c-4.4,4.399-4.415,11.52-0.052,15.942
				c4.405,4.478,11.617,4.492,16.052,0.058L58.998,67L50.944,58.945z"/>
		</g>
		<g>
			<path style="fill:#9C6144;" d="M42.998,51L26.312,67.686c-4.4,4.399-4.415,11.52-0.052,15.942l24.684-24.684L42.998,51z"/>
		</g>
		<g>
			<polygon style="fill:#F3B607;" points="54.944,54.945 46.998,47 42.998,51 50.944,58.945 58.998,67 62.998,63 			"/>
		</g>
		<g>
			
				<rect x="43.353" y="50.144" transform="matrix(-0.7071 -0.7071 0.7071 -0.7071 46.1423 125.0576)" style="fill:#FACB1B;" width="11.236" height="5.657"/>
		</g>
		<g>
			<path style="fill:#3E3E3F;" d="M85.168,49.954c1.417-2.371,1.528-5.421,0.156-7.919c-0.83-1.561-2.289-2.926-4.165-3.656
				c0.563-2.564-0.126-5.323-2.216-7.432c-1.871-1.858-4.649-2.685-7.316-2.1c-0.729-1.873-2.094-3.334-3.656-4.165
				c-4.092-2.248-7.963,0.12-7.963,0.12c-2.128-1.751-5.377-0.686-6.247,1.929l-6.755,20.275l7.939,7.939L63,63l20.275-6.755
				C85.94,55.358,86.952,52.034,85.168,49.954z"/>
		</g>
		<g>
			<path style="fill:#5B5C5F;" d="M78.942,30.947c-1.871-1.858-4.649-2.686-7.316-2.1c-0.729-1.873-2.094-3.334-3.656-4.165
				c-4.092-2.248-7.963,0.12-7.963,0.12c-2.128-1.751-5.377-0.686-6.247,1.929l-6.755,20.275l7.939,7.939l0.002,0.002l23.998-23.998
				C78.944,30.949,78.943,30.948,78.942,30.947z"/>
		</g>
	</g>
</g>
</svg>
