<?xml version="1.0" encoding="iso-8859-1"?>
<!-- Generator: Adobe Illustrator 17.1.0, SVG Export Plug-In . SVG Version: 6.00 Build 0)  -->
<!DOCTYPE svg PUBLIC "-//W3C//DTD SVG 1.0//EN" "http://www.w3.org/TR/2001/REC-SVG-20010904/DTD/svg10.dtd">
<svg version="1.0" xmlns="http://www.w3.org/2000/svg" xmlns:xlink="http://www.w3.org/1999/xlink" x="0px" y="0px" width="110px"
	 height="110px" viewBox="0 0 110 110" style="enable-background:new 0 0 110 110;" xml:space="preserve">
<g id="Artboard">
</g>
<g id="Multicolor">
	<circle style="fill:#E04F5F;" cx="55" cy="55" r="55"/>
	<g>
		<rect x="27" y="31" style="fill:#F0F1F1;" width="20" height="48"/>
		<rect x="47" y="23" style="fill:#FFFFFF;" width="36" height="56"/>
		<rect x="31" y="35" style="fill:#21B2D1;" width="4" height="4"/>
		<rect x="53" y="61" style="fill:#40C9E7;" width="10" height="4"/>
		<rect x="67" y="61" style="fill:#40C9E7;" width="10" height="4"/>
		<rect x="53" y="53" style="fill:#40C9E7;" width="10" height="4"/>
		<rect x="67" y="53" style="fill:#40C9E7;" width="10" height="4"/>
		<rect x="53" y="45" style="fill:#40C9E7;" width="10" height="4"/>
		<rect x="67" y="45" style="fill:#40C9E7;" width="10" height="4"/>
		<rect x="53" y="37" style="fill:#40C9E7;" width="10" height="4"/>
		<rect x="67" y="37" style="fill:#40C9E7;" width="10" height="4"/>
		<rect x="53" y="29" style="fill:#40C9E7;" width="10" height="4"/>
		<rect x="67" y="29" style="fill:#40C9E7;" width="10" height="4"/>
		<rect x="39" y="35" style="fill:#21B2D1;" width="4" height="4"/>
		<rect x="31" y="43" style="fill:#21B2D1;" width="4" height="4"/>
		<rect x="39" y="43" style="fill:#21B2D1;" width="4" height="4"/>
		<rect x="31" y="51" style="fill:#21B2D1;" width="4" height="4"/>
		<rect x="39" y="51" style="fill:#21B2D1;" width="4" height="4"/>
		<rect x="31" y="59" style="fill:#21B2D1;" width="4" height="4"/>
		<rect x="39" y="59" style="fill:#21B2D1;" width="4" height="4"/>
		<rect x="31" y="67" style="fill:#21B2D1;" width="4" height="4"/>
		<rect x="39" y="67" style="fill:#21B2D1;" width="4" height="4"/>
		<rect x="59" y="71" style="fill:#5B5C5F;" width="12" height="8"/>
		<rect x="23" y="83" style="fill:#0D9681;" width="64" height="4"/>
		<polygon style="fill:#17B198;" points="23,83 27,79 83,79 87,83 		"/>
		<rect x="56" y="68" style="fill:#CFD3D4;" width="18" height="3"/>
		<rect x="34" y="74" style="fill:#5B5C5F;" width="6" height="5"/>
	</g>
</g>
</svg>
