<?xml version="1.0" encoding="iso-8859-1"?>
<!-- Generator: Adobe Illustrator 17.1.0, SVG Export Plug-In . SVG Version: 6.00 Build 0)  -->
<!DOCTYPE svg PUBLIC "-//W3C//DTD SVG 1.0//EN" "http://www.w3.org/TR/2001/REC-SVG-20010904/DTD/svg10.dtd">
<svg version="1.0" xmlns="http://www.w3.org/2000/svg" xmlns:xlink="http://www.w3.org/1999/xlink" x="0px" y="0px" width="110px"
	 height="110px" viewBox="0 0 110 110" style="enable-background:new 0 0 110 110;" xml:space="preserve">
<g id="Artboard">
</g>
<g id="Multicolor">
	<circle style="fill:#32BEA6;" cx="55" cy="55" r="55"/>
	<g>
		<g>
			<path style="fill:#F3B607;" d="M64.975,28.989c-0.001-1.105-0.898-1.999-2.002-1.998l-16,0.017
				c-1.105,0.001-1.999,0.898-1.998,2.002l0.017,16l20-0.021L64.975,28.989z"/>
		</g>
		<g>
			<rect x="64.986" y="37.988" style="fill:#F3B607;" width="3" height="2"/>
		</g>
		<g>
			<path style="fill:#FACB1B;" d="M46.973,27.009c-1.104,0.001-1.999,0.898-1.998,2.002l0.017,16l0.373,0l17.947-17.985
				c-0.11-0.019-0.222-0.034-0.338-0.034L46.973,27.009z"/>
		</g>
		<g>
			<path style="fill:#FACB1B;" d="M66.994,46.987c-0.001-1.105-0.898-1.999-2.002-1.998l-20,0.021
				c-1.105,0.001-1.999,0.898-1.998,2.002l0.015,14l24-0.026L66.994,46.987z"/>
		</g>
		<g>
			<path style="fill:#F0F1F1;" d="M82.995,63.996c0.006-0.8-0.308-1.569-0.872-2.137c-0.564-0.568-1.331-0.887-2.131-0.886
				L55.009,61l-24.983,0.027c-0.8,0.001-1.567,0.321-2.129,0.89c-0.563,0.569-0.875,1.339-0.867,2.139
				c0.062,6.455,0.114,12.369-2.264,18.955c-0.332,0.92-0.195,1.944,0.368,2.744s1.48,1.276,2.458,1.275L55.037,87l27.446-0.029
				c0.978-0.001,1.894-0.479,2.455-1.28c0.561-0.801,0.696-1.826,0.362-2.745C82.908,76.365,82.947,70.451,82.995,63.996z"/>
		</g>
		<g>
			<path style="fill:#FACB1B;" d="M71.984,36.982c-0.001-0.552-0.449-1-1.001-0.999l-2,0.002c-0.552,0.001-1,0.449-0.999,1.001
				l0.006,6c0.001,0.552,0.449,1,1.001,0.999l2-0.002c0.552-0.001,1-0.449,0.999-1.001L71.984,36.982z"/>
		</g>
		<g>
			<rect x="41.985" y="38.012" style="fill:#F3B607;" width="3" height="2"/>
		</g>
		<g>
			<path style="fill:#FACB1B;" d="M37.983,37.018c-0.001-0.552,0.447-1,0.999-1.001l2-0.002c0.552-0.001,1,0.447,1.001,0.999
				l0.006,6c0.001,0.552-0.447,1-0.999,1.001l-2,0.002c-0.552,0.001-1-0.447-1.001-0.999L37.983,37.018z"/>
		</g>
		<g>
			<path style="fill:#E2E4E5;" d="M24.765,83.011c-0.332,0.92-0.195,1.944,0.368,2.744s1.48,1.275,2.458,1.274l54.892-0.059
				c0.978-0.001,1.894-0.479,2.455-1.28c0.561-0.801,0.697-1.826,0.363-2.745c-0.743-2.044-1.251-4.025-1.597-5.977L26.35,77.031
				C26.007,78.984,25.504,80.965,24.765,83.011z"/>
		</g>
		<g>
			<path style="fill:#3E3E3F;" d="M77,52.976c-0.001-1.105-0.898-1.999-2.002-1.998l-6,0.006c-1.105,0.001-1.999,0.898-1.998,2.002
				l0.009,8l10-0.011L77,52.976z"/>
		</g>
		<g>
			<path style="fill:#5B5C5F;" d="M72.005,57.1l4.997-2.505L77,52.976c0-0.2-0.039-0.389-0.094-0.572l-4.904,2.459l-4.91-2.448
				C67.038,52.598,67,52.787,67,52.987l0.002,1.618L72.005,57.1z"/>
		</g>
		<g>
			<polygon style="fill:#5B5C5F;" points="67.005,57.251 67.007,59.487 70.009,60.984 74.009,60.98 77.007,59.476 77.005,57.24 
				72.008,59.745 			"/>
		</g>
		<g>
			<path style="fill:#3E3E3F;" d="M43,53.013c-0.001-1.105-0.898-1.999-2.002-1.998l-6,0.006c-1.105,0.001-1.999,0.898-1.998,2.002
				l0.009,8l10-0.011L43,53.013z"/>
		</g>
		<g>
			<path style="fill:#5B5C5F;" d="M38.005,57.136l4.997-2.505L43,53.013c0-0.2-0.039-0.389-0.094-0.572L38.002,54.9l-4.91-2.448
				C33.038,52.634,33,52.824,33,53.024l0.002,1.618L38.005,57.136z"/>
		</g>
		<g>
			<polygon style="fill:#5B5C5F;" points="33.005,57.287 33.007,59.524 36.009,61.02 40.009,61.016 43.007,59.513 43.005,57.277 
				38.008,59.782 			"/>
		</g>
		<g>
			<path style="fill:#F3B607;" d="M63.006,57.991c0.001,0.552-0.447,1-0.999,1.001l-14,0.015c-0.552,0.001-1-0.447-1.001-0.999
				c-0.001-0.552,0.447-1,0.999-1.001l14-0.015C62.557,56.992,63.005,57.439,63.006,57.991z"/>
		</g>
		<g>
			<path style="fill:#F3B607;" d="M63.002,53.991c0.001,0.552-0.447,1-0.999,1.001l-14,0.015c-0.552,0.001-1-0.447-1.001-0.999
				c-0.001-0.552,0.447-1,0.999-1.001l14-0.015C62.553,52.992,63.001,53.439,63.002,53.991z"/>
		</g>
		<g>
			<path style="fill:#F3B607;" d="M62.997,49.991c0.001,0.552-0.447,1-0.999,1.001l-14,0.015c-0.552,0.001-1-0.447-1.001-0.999
				c-0.001-0.552,0.447-1,0.999-1.001l14-0.015C62.548,48.992,62.997,49.439,62.997,49.991z"/>
		</g>
		<g>
			<rect x="47.983" y="31" transform="matrix(1 -0.0011 0.0011 1 -0.0392 0.0591)" style="fill:#40C9E7;" width="14" height="11"/>
		</g>
		<g>
			<polygon style="fill:#6FDAF1;" points="47.988,41.857 58.826,30.996 47.977,31.008 			"/>
		</g>
	</g>
</g>
</svg>
