<?xml version="1.0" encoding="iso-8859-1"?>
<!-- Generator: Adobe Illustrator 17.1.0, SVG Export Plug-In . SVG Version: 6.00 Build 0)  -->
<!DOCTYPE svg PUBLIC "-//W3C//DTD SVG 1.0//EN" "http://www.w3.org/TR/2001/REC-SVG-20010904/DTD/svg10.dtd">
<svg version="1.0" xmlns="http://www.w3.org/2000/svg" xmlns:xlink="http://www.w3.org/1999/xlink" x="0px" y="0px" width="110px"
	 height="110px" viewBox="0 0 110 110" style="enable-background:new 0 0 110 110;" xml:space="preserve">
<g id="Artboard">
</g>
<g id="Multicolor">
	<circle style="fill:#FABC3D;" cx="55" cy="55" r="55"/>
	<g>
		<path style="fill:#FA5655;" d="M39.023,68.807c0.11,2.231,0.576,4.782,1.248,7.401l2.698-1.658L41.983,68L39.023,68.807z"/>
		<path style="fill:#FFFFFF;" d="M39.023,68.807L41.983,68L45,63h-2.017h-8c-1.405,0-2.747-0.254-4-0.698V70c0,6.667-3.667,13-1,17
			h9.585c0.979,0,1.897-0.479,2.459-1.283c0.561-0.803,0.694-1.83,0.357-2.75C40.641,78.206,39.228,72.958,39.023,68.807z"/>
		<path style="fill:#DF2C2C;" d="M22.983,51c0,6.627,5.373,12,12,12h12V39h-12C28.355,39,22.983,44.373,22.983,51z"/>
		<path style="fill:#FA5655;" d="M46.983,39h-12c-6.627,0-12,5.373-12,12h24V39z"/>
		<path style="fill:#FFFFFF;" d="M79,27c0.006,7.383,0,24,0,24H46.98V39C71.903,39,79,27,79,27z"/>
		<path style="fill:#F0F1F1;" d="M79,75c0.006-7.383,0-24,0-24H46.98v12C71.903,63,79,75,79,75z"/>
		<rect x="79" y="25" style="fill:#F0F1F1;" width="6" height="26"/>
		<rect x="79" y="51" style="fill:#E2E4E5;" width="6" height="26"/>
	</g>
</g>
</svg>
