<?xml version="1.0" encoding="iso-8859-1"?>
<!-- Generator: Adobe Illustrator 17.1.0, SVG Export Plug-In . SVG Version: 6.00 Build 0)  -->
<!DOCTYPE svg PUBLIC "-//W3C//DTD SVG 1.0//EN" "http://www.w3.org/TR/2001/REC-SVG-20010904/DTD/svg10.dtd">
<svg version="1.0" xmlns="http://www.w3.org/2000/svg" xmlns:xlink="http://www.w3.org/1999/xlink" x="0px" y="0px" width="110px"
	 height="110px" viewBox="0 0 110 110" style="enable-background:new 0 0 110 110;" xml:space="preserve">
<g id="Artboard">
</g>
<g id="Multicolor">
	<circle style="fill:#E04F5F;" cx="55" cy="54.98" r="55"/>
	<g>
		<path style="fill:#3E3E3F;" d="M87,44.981c-3.654-2.088-8.942-1.995-13.164-1.43c-2.022-2.624-4.86-4.728-10.193-6.625
			c-2.181-2.43-5.226-3.945-8.601-3.945c-0.014,0-0.028,0.002-0.042,0.002v-0.001c-0.014,0-0.028-0.002-0.042-0.002
			c-3.375,0-6.42,1.515-8.601,3.945c-5.333,1.897-8.171,4.001-10.193,6.625c-4.222-0.565-9.509-0.659-13.164,1.43
			c2.064,4.645,4.398,7.682,7.132,9.681c-6.998,12.771,11.863,12.209,9.826,18.319c-2.702,8.105,2,13,15,13
			c0.015,0,0.028-0.001,0.042-0.001v0.001c0.015,0,0.028,0.001,0.042,0.001c13,0,17.702-4.895,15-13
			c-2.029-6.086,16.772-5.642,9.826-18.319C82.602,52.663,84.936,49.625,87,44.981z"/>
		<path style="fill:#FFFFFF;" d="M23.131,23.475c-1.088,20.506,17.773,22.816,19.912,22.506c3.801-0.552,6.791-4.276,4.889-8
			c-2.895-5.666-18.463-1.286-23.621-14.543C24.071,22.824,23.165,22.818,23.131,23.475z"/>
		<path style="fill:#FFFFFF;" d="M86.955,23.475c1.088,20.506-17.773,22.816-19.912,22.506c-3.801-0.552-6.791-4.276-4.889-8
			c2.895-5.666,18.463-1.286,23.621-14.543C86.014,22.824,86.92,22.818,86.955,23.475z"/>
		<g>
			<path style="fill:#FACB1B;" d="M55,86.982c-5.238,0-9.5-4.262-9.5-9.5c0-2.153,0.74-4.262,2.085-5.939
				c0.517-0.646,1.462-0.75,2.108-0.232c0.646,0.519,0.75,1.462,0.232,2.109c-0.932,1.163-1.425,2.567-1.425,4.062
				c0,3.584,2.916,6.5,6.5,6.5s6.5-2.916,6.5-6.5c0-1.494-0.493-2.899-1.425-4.062c-0.518-0.646-0.414-1.59,0.232-2.108
				c0.646-0.518,1.591-0.414,2.108,0.232c1.344,1.677,2.084,3.786,2.084,5.938C64.5,82.72,60.238,86.982,55,86.982z"/>
		</g>
		<path style="fill:#FBE158;" d="M48.5,77.482c0-1.495,0.493-2.899,1.425-4.062c0.518-0.646,0.415-1.59-0.232-2.109
			c-0.646-0.518-1.591-0.414-2.108,0.232c-1.345,1.677-2.085,3.786-2.085,5.939c0,5.238,4.262,9.5,9.5,9.5v-3
			C51.416,83.982,48.5,81.066,48.5,77.482z"/>
		<path style="fill:#5B5C5F;" d="M78.485,52.017c1.904-2.092,3.488-4.253,4.557-6.036c-2.314-0.579-5.046-0.569-7.762-0.267
			C76.358,47.55,77.288,49.626,78.485,52.017z"/>
		<path style="fill:#5B5C5F;" d="M33.515,52.017c-1.904-2.092-3.488-4.253-4.557-6.036c2.314-0.579,5.046-0.569,7.762-0.267
			C35.642,47.55,34.712,49.626,33.515,52.017z"/>
		<g>
			<path style="fill:#FFFFFF;" d="M51,55.98c0,1.657-1.343,3-3,3h-4c-1.657,0-3-1.343-3-3v-2.493c0-0.346,0.089-0.687,0.26-0.988
				c0.605-1.063,2.172-3.52,3.74-3.52c1.635,0,4.606,4.009,5.637,5.473C50.874,54.791,51,55.19,51,55.603V55.98z"/>
			<path style="fill:#3E3E3F;" d="M43.875,55.689c0.239,0.03,0.488,0.007,0.727-0.091c0.742-0.304,1.097-1.152,0.794-1.894
				c-0.098-0.239-0.256-0.432-0.445-0.582c1.198-0.618,2.547-0.033,3.011,1.101c0.456,1.113-0.077,2.386-1.191,2.842
				C45.63,57.531,44.266,56.966,43.875,55.689z"/>
		</g>
		<path style="fill:#FFFFFF;" d="M59,55.98c0,1.657,1.343,3,3,3h4c1.657,0,3-1.343,3-3v-2.493c0-0.346-0.09-0.687-0.26-0.988
			c-0.605-1.063-2.172-3.52-3.74-3.52c-1.635,0-4.606,4.009-5.637,5.473C59.126,54.791,59,55.19,59,55.603V55.98z"/>
		<path style="fill:#3E3E3F;" d="M62.951,53.091c0.19,0.148,0.35,0.34,0.45,0.578c0.31,0.74-0.039,1.591-0.778,1.901
			c-0.238,0.1-0.487,0.125-0.726,0.097c0.41,1.284,1.778,1.824,2.907,1.351c1.11-0.465,1.632-1.742,1.167-2.851
			C65.494,53.03,64.13,52.465,62.951,53.091z"/>
	</g>
</g>
</svg>
