<?xml version="1.0" encoding="iso-8859-1"?>
<!-- Generator: Adobe Illustrator 17.1.0, SVG Export Plug-In . SVG Version: 6.00 Build 0)  -->
<!DOCTYPE svg PUBLIC "-//W3C//DTD SVG 1.0//EN" "http://www.w3.org/TR/2001/REC-SVG-20010904/DTD/svg10.dtd">
<svg version="1.0" xmlns="http://www.w3.org/2000/svg" xmlns:xlink="http://www.w3.org/1999/xlink" x="0px" y="0px" width="110px"
	 height="110px" viewBox="0 0 110 110" style="enable-background:new 0 0 110 110;" xml:space="preserve">
<g id="Artboard">
</g>
<g id="Multicolor">
	<circle style="fill:#25B7D3;" cx="55" cy="55" r="55"/>
	<g>
		<g>
			<path style="fill:#FACB1B;" d="M59.512,37.875l12.631,12.632c6.2-6.376,12.376-17.112,14.442-27.445
				C76.253,25.128,65.874,31.661,59.512,37.875z"/>
		</g>
		<g>
			<path style="fill:#FBEC9A;" d="M59.512,37.875l6.244,6.244L86.52,23.356c0.02-0.098,0.046-0.196,0.066-0.294
				C76.253,25.128,65.874,31.661,59.512,37.875z"/>
		</g>
		<g>
			<path style="fill:#F3B607;" d="M72.634,50.997L58.906,37.269c-0.391-0.39-1.024-0.39-1.414,0L28.128,66.633L43.27,81.775
				l29.364-29.364C73.024,52.021,73.024,51.387,72.634,50.997z"/>
		</g>
		<g>
			<path style="fill:#FACB1B;" d="M35.685,74.191l30.071-30.071l-6.85-6.851c-0.391-0.39-1.024-0.39-1.414,0L28.128,66.633
				L35.685,74.191z"/>
		</g>
		<g>
			<path style="fill:#F3B607;" d="M44.021,82.526L27.121,65.627c-0.391-0.39-1.024-0.39-1.414,0l-2.414,2.415
				c-0.391,0.39-0.391,1.023,0,1.414l16.899,16.899c0.391,0.391,1.024,0.391,1.414,0l2.414-2.414
				C44.411,83.55,44.411,82.917,44.021,82.526z"/>
		</g>
		<g>
			<path style="fill:#F3B607;" d="M27.121,65.627c-0.391-0.39-1.024-0.39-1.414,0l-2.414,2.415c-0.391,0.39-0.391,1.023,0,1.414
				l8.559,8.559l3.828-3.829L27.121,65.627z"/>
		</g>
	</g>
</g>
</svg>
