<?xml version="1.0" encoding="iso-8859-1"?>
<!-- Generator: Adobe Illustrator 17.1.0, SVG Export Plug-In . SVG Version: 6.00 Build 0)  -->
<!DOCTYPE svg PUBLIC "-//W3C//DTD SVG 1.0//EN" "http://www.w3.org/TR/2001/REC-SVG-20010904/DTD/svg10.dtd">
<svg version="1.0" xmlns="http://www.w3.org/2000/svg" xmlns:xlink="http://www.w3.org/1999/xlink" x="0px" y="0px" width="110px"
	 height="110px" viewBox="0 0 110 110" style="enable-background:new 0 0 110 110;" xml:space="preserve">
<g id="Artboard">
</g>
<g id="Multicolor">
	<circle style="fill:#E04F5F;" cx="55" cy="55" r="55"/>
	<g>
		<g>
			<path style="fill:#F0F1F1;" d="M79,79c0,2.209-1.791,4-4,4H35c-2.209,0-4-1.791-4-4V31c0-4.418,3.582-8,8-8h32
				c4.418,0,8,3.582,8,8V79z"/>
		</g>
		<g>
			<path style="fill:#FFFFFF;" d="M74.18,23.661C73.205,23.237,72.131,23,71,23H39c-4.418,0-8,3.582-8,8v35.841L74.18,23.661z"/>
		</g>
		<g>
			<path style="fill:#3E3E3F;" d="M35,83c-0.347,0-0.679-0.058-1-0.141V85c0,1.104,0.896,2,2,2h8c1.105,0,2-0.896,2-2v-2H35z"/>
		</g>
		<g>
			<path style="fill:#3E3E3F;" d="M75,83H64v2c0,1.104,0.896,2,2,2h8c1.105,0,2-0.896,2-2v-2.141C75.679,82.942,75.347,83,75,83z"/>
		</g>
		<g>
			<path style="fill:#40C9E7;" d="M72,28c2.209,0,4,1.791,4,4v31H35V32c0-2.209,1.791-4,4-4H72z"/>
		</g>
		<g>
			<path style="fill:#3E3E3F;" d="M72,28H39c-2.209,0-4,1.791-4,4v7h41v-7C76,29.791,74.209,28,72,28z"/>
		</g>
		<g>
			<path style="fill:#6FDAF1;" d="M69.841,28H39c-2.209,0-4,1.791-4,4v30.841L69.841,28z"/>
		</g>
		<g>
			<path style="fill:#5B5C5F;" d="M69.841,28H39c-2.209,0-4,1.791-4,4v7h23.841L69.841,28z"/>
		</g>
		<g>
			<rect x="31" y="67" style="fill:#E2E4E5;" width="48" height="11"/>
		</g>
		<g>
			<g>
				<path style="fill:#E2E4E5;" d="M85,43h-2v-2h-4v-2h5c0.552,0,1,0.448,1,1V43z"/>
			</g>
		</g>
		<g>
			<g>
				<path style="fill:#E2E4E5;" d="M25,43h2v-2h4v-2h-5c-0.552,0-1,0.448-1,1V43z"/>
			</g>
		</g>
		<g>
			<path style="fill:#FFFFFF;" d="M29,44c0-0.552-0.448-1-1-1h-4c-0.552,0-1,0.448-1,1v10c0,0.552,0.448,1,1,1h4
				c0.552,0,1-0.448,1-1V44z"/>
		</g>
		<g>
			<path style="fill:#FFFFFF;" d="M87,44c0-0.552-0.448-1-1-1h-4c-0.552,0-1,0.448-1,1v10c0,0.552,0.448,1,1,1h4
				c0.552,0,1-0.448,1-1V44z"/>
		</g>
		<g>
			<path style="fill:#C7CBCC;" d="M63,76v-0.06c0-0.68,0.12-1.331,0.331-1.94H46.669C46.88,74.609,47,75.26,47,75.94V76H63z"/>
		</g>
		<g>
			<path style="fill:#C7CBCC;" d="M68.94,70H41.06c1.767,0,3.349,0.776,4.437,2h19.006C65.591,70.776,67.173,70,68.94,70z"/>
		</g>
		<g>
			<path style="fill:#FACB1B;" d="M68.94,70H75v8H63v-2C63,72.552,65.744,70,68.94,70z"/>
		</g>
		<g>
			<path style="fill:#FBE158;" d="M68.94,70C65.747,70,63,72.549,63,76v2h1.673l8-8H68.94z"/>
		</g>
		<g>
			<path style="fill:#FACB1B;" d="M41.06,70H35v8h12v-2C47,72.552,44.256,70,41.06,70z"/>
		</g>
		<g>
			<path style="fill:#FBE158;" d="M35,70v8h0.673l7.578-7.578C42.572,70.153,41.834,70,41.06,70H35z"/>
		</g>
		<g>
			<path style="fill:#CFD3D4;" d="M40.719,32.208c0.761,0,1.473,0.386,1.473,1.269v1.275c0,0.873-0.712,1.253-1.473,1.248H39.3
				v-3.792H40.719z M40.751,35.1c0.327,0,0.477-0.166,0.477-0.413v-1.184c0-0.246-0.155-0.402-0.477-0.402h-0.487V35.1H40.751z"/>
			<path style="fill:#CFD3D4;" d="M43.662,36h-0.959v-3.792h0.959V36z"/>
			<path style="fill:#CFD3D4;" d="M45.401,34.795H45.23V36h-0.97v-3.792h1.516c0.782,0,1.387,0.359,1.409,1.248
				c0,0.701-0.284,1.098-0.744,1.242L47.474,36h-1.194L45.401,34.795z M45.792,33.97c0.605,0,0.605-0.868,0-0.868H45.23v0.868
				H45.792z"/>
			<path style="fill:#CFD3D4;" d="M48.687,33.697h1.537v0.83h-1.537v0.568h1.671V36h-2.641v-3.792h2.641v0.9h-1.671V33.697z"/>
			<path style="fill:#CFD3D4;" d="M53.606,35.202c-0.316,0.616-0.889,0.852-1.366,0.852c-0.745,0-1.494-0.434-1.494-1.296v-1.307
				c0-0.857,0.75-1.296,1.51-1.296c0.466,0,1.028,0.198,1.333,0.873l-0.782,0.316c-0.257-0.471-1.104-0.364-1.104,0.107v1.307
				c0,0.455,0.857,0.584,1.066,0.059L53.606,35.202z"/>
			<path style="fill:#CFD3D4;" d="M55.703,33.113V36h-0.969v-2.887h-1.007v-0.911h2.983v0.911H55.703z"/>
		</g>
		<g>
			<path style="fill:#B6BCBD;" d="M67.83,34.816c0.359,0.439,0.98,0.294,1.001-0.15c0.021-0.386-0.208-0.562-0.498-0.562
				c-0.219,0-0.444,0.086-0.616,0.316h-0.439v-2.212h2.25v0.841h-1.483v0.428c0.921-0.337,1.725,0.252,1.725,1.168
				c0,0.702-0.439,1.408-1.43,1.408c-0.428,0-0.884-0.203-1.189-0.701L67.83,34.816z"/>
			<path style="fill:#B6BCBD;" d="M72.46,32.208l0.257,0.514L71.255,36h-1.028l1.232-2.881h-1.446v-0.911H72.46z"/>
		</g>
		<rect x="75" y="70" style="fill:#F99134;" width="4" height="8"/>
		<rect x="31" y="70" style="fill:#F99134;" width="4" height="8"/>
	</g>
</g>
</svg>
