<?xml version="1.0" encoding="iso-8859-1"?>
<!-- Generator: Adobe Illustrator 17.1.0, SVG Export Plug-In . SVG Version: 6.00 Build 0)  -->
<!DOCTYPE svg PUBLIC "-//W3C//DTD SVG 1.0//EN" "http://www.w3.org/TR/2001/REC-SVG-20010904/DTD/svg10.dtd">
<svg version="1.0" xmlns="http://www.w3.org/2000/svg" xmlns:xlink="http://www.w3.org/1999/xlink" x="0px" y="0px" width="110px"
	 height="110px" viewBox="0 0 110 110" style="enable-background:new 0 0 110 110;" xml:space="preserve">
<g id="Artboard">
</g>
<g id="Multicolor">
	<circle style="fill:#25B7D3;" cx="55" cy="55" r="55"/>
	<g>
		<g>
			<path style="fill:#DF2C2C;" d="M81,31H34.47c-1.72,0-3.1,1.59-4.18,4H41v8H28.07c-0.76,4.38-1.06,8.99-1.01,12
				c0.02,1.79,0.18,3.02,0.43,3.31C27.87,58.75,28.42,59,29,59h8v8h-8c-1.1,0-2,0.9-2,2v14h60V37C87,33.69,84.31,31,81,31z M68,35v8
				H57v-8H68z M43,35h12v8H43V35z M44,67h-5v-8h5V67z M51,67h-5v-8h5V67z M65,67H53v-8h12V67z M83,67H67v-8h12c2.21,0,4,1.79,4,4V67
				z M83,43H70v-8h9c2.21,0,4,1.79,4,4V43z"/>
		</g>
		<g>
			<path style="fill:#BF0302;" d="M80.264,80c-0.493-3.945-3.852-7-7.931-7s-7.438,3.055-7.931,7H38.931
				c-0.493-3.945-3.852-7-7.931-7s-7.438,3.055-7.931,7H23v3h0.262h15.476h25.858h15.476H87v-3H80.264z"/>
		</g>
		<g>
			<circle style="fill:#3E3E3F;" cx="31" cy="81.5" r="5.5"/>
		</g>
		<g>
			<circle style="fill:#CFD3D4;" cx="31" cy="81.5" r="2.2"/>
		</g>
		<g>
			<path style="fill:#40C9E7;" d="M83,63v4H67v-8h12C81.21,59,83,60.79,83,63z"/>
		</g>
		<g>
			<rect x="53" y="59" style="fill:#40C9E7;" width="12" height="8"/>
		</g>
		<g>
			<polygon style="fill:#40C9E7;" points="37,59 37,67 29,67 31,59 			"/>
		</g>
		<g>
			<path style="fill:#9CE5F4;" d="M41,35v8H28.07c0.52-2.96,1.25-5.82,2.22-8H41z"/>
		</g>
		<g>
			<rect x="43" y="35" style="fill:#40C9E7;" width="12" height="8"/>
		</g>
		<g>
			<rect x="57" y="35" style="fill:#40C9E7;" width="11" height="8"/>
		</g>
		<g>
			<path style="fill:#40C9E7;" d="M83,39v4H70v-8h9C81.21,35,83,36.79,83,39z"/>
		</g>
		<g>
			<rect x="46" y="59" style="fill:#40C9E7;" width="5" height="8"/>
		</g>
		<g>
			<rect x="39" y="59" style="fill:#40C9E7;" width="5" height="8"/>
		</g>
		<g>
			<path style="fill:#3E3E3F;" d="M87,55v4H29c-0.58,0-1.13-0.25-1.51-0.69c-0.25-0.29-0.41-1.52-0.43-3.31H87z"/>
		</g>
		<g>
			<circle style="fill:#3E3E3F;" cx="72.333" cy="81.5" r="5.5"/>
		</g>
		<g>
			<circle style="fill:#CFD3D4;" cx="72.333" cy="81.5" r="2.5"/>
		</g>
		<g>
			<polygon style="fill:#9CE5F4;" points="55,35 43,35 43,43 47.719,43 55,35.719 			"/>
		</g>
		<g>
			<path style="fill:#FA5655;" d="M43,43v-8h12v0.719L59.719,31H34.47c-1.72,0-3.1,1.59-4.18,4H41v8H28.07
				c-0.76,4.38-1.06,8.99-1.01,12c0.02,1.79,0.18,3.02,0.43,3.31C27.87,58.75,28.42,59,29,59h2.719l16-16H43z"/>
		</g>
		<g>
			<path style="fill:#5B5C5F;" d="M27.06,55c0.02,1.79,0.18,3.02,0.43,3.31C27.87,58.75,28.42,59,29,59h2.719l4-4H27.06z"/>
		</g>
	</g>
</g>
</svg>
