<?xml version="1.0" encoding="iso-8859-1"?>
<!-- Generator: Adobe Illustrator 17.1.0, SVG Export Plug-In . SVG Version: 6.00 Build 0)  -->
<!DOCTYPE svg PUBLIC "-//W3C//DTD SVG 1.0//EN" "http://www.w3.org/TR/2001/REC-SVG-20010904/DTD/svg10.dtd">
<svg version="1.0" xmlns="http://www.w3.org/2000/svg" xmlns:xlink="http://www.w3.org/1999/xlink" x="0px" y="0px" width="110px"
	 height="110px" viewBox="0 0 110 110" style="enable-background:new 0 0 110 110;" xml:space="preserve">
<g id="Artboard">
</g>
<g id="Multicolor">
	<g>
		<circle style="fill:#FABC3D;" cx="55" cy="55" r="55"/>
	</g>
	<g>
		<path style="fill:#3E3E3F;" d="M83.409,77.663c-0.889-2.311-2.797-4.08-5.168-4.791L62,69l-7,1l-7-1l-16.241,3.872
			c-2.371,0.711-4.279,2.48-5.168,4.791L23,87h32h32L83.409,77.663z"/>
		<path style="fill:#BF8662;" d="M45,61.433V79l8,8h2V69C51.716,67.905,47.841,65.829,45,61.433z"/>
		<path style="fill:#AF7653;" d="M55,69v18h2l8-8V61.433C62.159,65.829,58.284,67.905,55,69z"/>
		<path style="fill:#BF8662;" d="M70,45c-0.277,0-0.633,0-1,0v-0.001C65.999,33.001,56,43,50,33v5c0,0-5.999-1-9,6.999V45
			c-0.368,0-0.723,0-1,0c-1,0-2,1.111-2,2.222c0,3.091,0.864,7.13,4.178,7.703C44.62,64.027,50.396,67.465,55,69
			c4.604-1.535,10.38-4.973,12.822-14.075C71.136,54.353,72,50.313,72,47.222C72,46.111,71,45,70,45z"/>
		<path style="fill:#CC9978;" d="M50,33v5c0,0-5.999-1-9,6.999V45c-0.368,0-0.723,0-1,0c-1,0-2,1.111-2,2.222
			c0,3.091,0.864,7.13,4.178,7.703C44.62,64.027,50.396,67.465,55,69V37.375C53.2,36.711,51.479,35.464,50,33z"/>
		<g>
			<path style="fill:#84462D;" d="M50,58h10c0,0,0,3-5,3S50,58,50,58z"/>
		</g>
		<path style="fill:#3E3E3F;" d="M72,38c0-1.657-1.343-3-3-3c-0.293,0-0.572,0.056-0.84,0.134c-0.271-0.744-0.601-1.433-0.995-2.066
			C67.68,32.529,68,31.804,68,31c0-1.657-1.343-3-3-3c-0.988,0-1.857,0.484-2.404,1.221c-1.305-0.567-2.831-0.966-4.599-1.195
			C57.998,28.018,58,28.009,58,28c0-1.657-1.343-3-3-3c-1.606,0-2.907,1.266-2.985,2.854c-0.174,0.009-0.343,0.014-0.521,0.024
			c-1.575,0.095-3.011,0.47-4.295,1.094C46.65,28.378,45.872,28,45,28c-1.657,0-3,1.343-3,3c0,0.822,0.332,1.566,0.868,2.108
			c-0.357,0.629-0.674,1.311-0.94,2.053C41.634,35.065,41.326,35,41,35c-1.657,0-3,1.343-3,3c0,1.617,1.282,2.926,2.885,2.988
			C40.837,42.238,40.87,43.572,41,45c3-8,9-7,9-7v-5c6,10,16,0,19,12c0.119-1.424,0.164-2.76,0.133-4.014
			C70.727,40.916,72,39.611,72,38z"/>
		<g>
			<path style="fill:#3E3E3F;" d="M52,47.077c0-1.104-0.896-2-2-2c-0.002,0-0.004,0-0.006,0C49.995,45.098,50,45.118,50,45.139
				c0,1.103-0.892,1.996-1.994,2c0.033,1.075,0.91,1.938,1.994,1.938C51.104,49.077,52,48.181,52,47.077z"/>
		</g>
		<g>
			<path style="fill:#3E3E3F;" d="M61.994,47.077c0-1.104-0.896-2-2-2c-0.002,0-0.004,0-0.006,0
				c0.001,0.021,0.006,0.041,0.006,0.062c0,1.103-0.892,1.996-1.994,2c0.033,1.075,0.91,1.938,1.994,1.938
				C61.098,49.077,61.994,48.181,61.994,47.077z"/>
		</g>
		<g>
			<g>
				<polygon style="fill:#FACB1B;" points="55,76.618 42.808,71.538 43.192,70.615 55,75.535 66.808,70.615 67.192,71.538 				"/>
			</g>
		</g>
		<g>
			<polygon style="fill:#FFFFFF;" points="44.989,64 47,75 55,87 53,87 40,79 44,74 35,72 			"/>
		</g>
		<g>
			<polygon style="fill:#FFFFFF;" points="65.011,64 63,75 55,87 57,87 70,79 66,74 75,72 			"/>
		</g>
		<g>
			<g>
				<path style="fill:#FFFFFF;" d="M55,75.657l1.386,3.346c0.232,0.561,0.104,1.206-0.325,1.635c-0.586,0.586-1.535,0.586-2.121,0
					c-0.429-0.429-0.557-1.074-0.325-1.635L55,75.657z"/>
			</g>
		</g>
	</g>
</g>
</svg>
