<?xml version="1.0" encoding="iso-8859-1"?>
<!-- Generator: Adobe Illustrator 17.1.0, SVG Export Plug-In . SVG Version: 6.00 Build 0)  -->
<!DOCTYPE svg PUBLIC "-//W3C//DTD SVG 1.0//EN" "http://www.w3.org/TR/2001/REC-SVG-20010904/DTD/svg10.dtd">
<svg version="1.0" xmlns="http://www.w3.org/2000/svg" xmlns:xlink="http://www.w3.org/1999/xlink" x="0px" y="0px" width="110px"
	 height="110px" viewBox="0 0 110 110" style="enable-background:new 0 0 110 110;" xml:space="preserve">
<g id="Artboard">
</g>
<g id="Multicolor">
	<g>
		<circle style="fill:#32BEA6;" cx="55" cy="55" r="55"/>
	</g>
	<g>
		<g>
			<polygon style="fill:#F1F2F2;" points="55,87 43,67.997 67,67.997 			"/>
		</g>
		<path style="fill:#F7B4B4;" d="M57.655,67.997H55h-2.655c-0.856,0-1.671-0.365-2.24-1.004L45,62.997V67.5c0,0,0,7.5,10,7.5
			s10-7.5,10-7.5v-4.503l-5.105,3.996C59.326,67.632,58.511,67.997,57.655,67.997z"/>
		<path style="fill:#FBC8C8;" d="M50.105,66.993L45,62.997V67.5c0,0,0,7.5,10,7.5v-7.003h-2.655
			C51.489,67.997,50.674,67.632,50.105,66.993z"/>
		<g>
			<polygon style="fill:#FFFFFF;" points="43,67.997 45,66.997 54.985,71.978 49,77.997 			"/>
		</g>
		<g>
			<polygon style="fill:#FFFFFF;" points="67,67.997 65,66.997 55.015,71.978 61,77.997 			"/>
		</g>
		<g>
			<polygon style="fill:#DF2C2C;" points="59,87 56.201,76.8 58,75.002 54.981,71.978 51.983,74.976 53.801,76.793 51,87 			"/>
		</g>
		<g>
			<polygon style="fill:#FA5655;" points="55,87 55,71.997 54.981,71.978 51.983,74.976 53.801,76.793 51,87 			"/>
		</g>
		<g>
			<path style="fill:#3E3E3F;" d="M23,87l4-11c0.615-1.333,1.698-2.394,3.043-2.983L43,68l12,19H23z"/>
		</g>
		<g>
			<path style="fill:#3E3E3F;" d="M87,87l-4-11c-0.615-1.333-1.698-2.394-3.043-2.983L67,68L55,87H87z"/>
		</g>
		<g>
			<rect x="66" y="79.997" style="fill:#FFFFFF;" width="10" height="2"/>
		</g>
		<path style="fill:#FBC8C8;" d="M70,45l-2,4h-1V38.969v-3.868c-1.442,2.094-4.568,3.733-10.016,3.868c-9.939,0.246-11-1-14-3
			c0,1,0,11.031,0,13.031c-1,0-1,0-1,0c-0.342-0.685-0.682-1.364-0.984-1.969v5.966l4,10l5.105,3.996
			c0.569,0.639,1.384,1.004,2.24,1.004H55h2.655c0.856,0,1.671-0.365,2.24-1.004L65,62.997l3.207-8.017
			C71.042,54.776,72,50.476,72,47.222C72,46.111,71,45,70,45z"/>
		<path style="fill:#FBD7D7;" d="M42.984,35.969c0,1,0,11.031,0,13.031c-1,0-1,0-1,0c-0.997-1.995-1.994-3.987-1.999-3.998
			C38.99,45.013,38,46.117,38,47.222c0,3.253,0.958,7.554,3.793,7.758L45,62.997l5.105,3.996c0.569,0.639,1.384,1.004,2.24,1.004H55
			v-29C46.896,39.032,45.771,37.827,42.984,35.969z"/>
		<g>
			<path style="fill:#3E3E3F;" d="M52,46.997c0-1.104-0.896-2-2-2c-0.002,0-0.004,0-0.006,0C49.995,45.019,50,45.039,50,45.06
				c0,1.103-0.892,1.996-1.994,2c0.033,1.075,0.91,1.938,1.994,1.938C51.104,48.997,52,48.102,52,46.997z"/>
		</g>
		<g>
			<path style="fill:#3E3E3F;" d="M61.994,46.997c0-1.104-0.896-2-2-2c-0.002,0-0.004,0-0.006,0
				c0.001,0.021,0.006,0.041,0.006,0.062c0,1.103-0.892,1.996-1.994,2c0.033,1.075,0.91,1.938,1.994,1.938
				C61.098,48.997,61.994,48.102,61.994,46.997z"/>
		</g>
		<g>
			<path style="fill:#F79392;" d="M50,56.997h10c0,0,0,3-5,3S50,56.997,50,56.997z"/>
		</g>
		<path style="fill:#3E3E3F;" d="M67.823,33.284c0.107-0.435,0.162-0.875,0.162-1.314c0-3-1-5-15-5s-13,10-13,10s0,6.031,0,8.031
			c0,0,1,2,2,4c0,0,0,0,1,0c0-2,0-12.031,0-13.031c3,2,4.061,3.246,14,3c5.447-0.135,8.573-1.774,10.016-3.868v3.868V49h1l2-4
			v-6.031C70,37.007,69.27,35.055,67.823,33.284z"/>
	</g>
</g>
</svg>
