<?xml version="1.0" encoding="iso-8859-1"?>
<!-- Generator: Adobe Illustrator 17.1.0, SVG Export Plug-In . SVG Version: 6.00 Build 0)  -->
<!DOCTYPE svg PUBLIC "-//W3C//DTD SVG 1.0//EN" "http://www.w3.org/TR/2001/REC-SVG-20010904/DTD/svg10.dtd">
<svg version="1.0" xmlns="http://www.w3.org/2000/svg" xmlns:xlink="http://www.w3.org/1999/xlink" x="0px" y="0px" width="110px"
	 height="110px" viewBox="0 0 110 110" style="enable-background:new 0 0 110 110;" xml:space="preserve">
<g id="Artboard">
</g>
<g id="Multicolor">
	<g>
		<circle style="fill:#32BEA6;" cx="55" cy="55" r="55"/>
	</g>
	<g>
		<path style="fill:#F3B607;" d="M64,68l4.972-4.42C71.534,61.303,73,58.039,73,54.611V43.944c0-9.941-8.059-18-18-18
			s-18,8.059-18,18v10.667c0,3.427,1.466,6.692,4.028,8.969L46,68H64z"/>
		<path style="fill:#FACB1B;" d="M37,43.944v10.667c0,3.427,1.466,6.692,4.028,8.969L46,68h9V25.944
			C45.059,25.944,37,34.003,37,43.944z"/>
		<g>
			<path style="fill:#3E3E3F;" d="M55,70l-7-1l-16.241,3.872c-2.371,0.711-4.279,2.48-5.168,4.791L23,87h32V70z"/>
		</g>
		<g>
			<path style="fill:#3E3E3F;" d="M55,70l7-1l16.241,3.872c2.371,0.711,4.279,2.48,5.168,4.791L87,87H55V70z"/>
		</g>
		<path style="fill:#F7B4B4;" d="M55,69c-3.284-1.095-7.159-3.171-10-7.568V77l9,10h3l8-10V61.432
			C62.159,65.829,58.284,67.905,55,69z"/>
		<path style="fill:#FBC8C8;" d="M45,61.432V77l9,10h1V69C51.716,67.905,47.841,65.829,45,61.432z"/>
		<g>
			<path style="fill:#FFFFFF;" d="M40.347,55l1.527,3.687c0.256,0.618,0.114,1.329-0.358,1.801c-0.646,0.646-1.692,0.646-2.338,0
				c-0.473-0.473-0.614-1.184-0.358-1.801L40.347,55z"/>
		</g>
		<g>
			<path style="fill:#FFFFFF;" d="M69.347,55l1.527,3.687c0.256,0.618,0.114,1.329-0.358,1.801c-0.646,0.646-1.692,0.646-2.338,0
				c-0.473-0.473-0.614-1.184-0.358-1.801L69.347,55z"/>
		</g>
		<g>
			<polygon style="fill:#FFFFFF;" points="44.989,64 47,75 55,87 53,87 40,79 44,74 35,72 			"/>
		</g>
		<g>
			<polygon style="fill:#FFFFFF;" points="65.011,64 63,75 55,87 57,87 70,79 66,74 75,72 			"/>
		</g>
		<path style="fill:#FBC8C8;" d="M69,48c0-16-16,4-21.875-13.056c0,0-1.867,14.105-8.688,15.875c0.54,2.009,1.654,3.746,3.742,4.107
			C44.62,64.027,50.396,67.465,55,69c4.604-1.535,10.38-4.973,12.822-14.075c1.479-0.255,2.467-1.203,3.111-2.447
			C69.009,50.454,69,48,69,48z"/>
		<path style="fill:#FBD7D7;" d="M47.125,34.944c0,0-1.867,14.105-8.688,15.875c0.54,2.009,1.654,3.746,3.742,4.107
			C44.62,64.027,50.396,67.465,55,69V42.32C51.91,42.051,49.001,40.39,47.125,34.944z"/>
		<g>
			<path style="fill:#3E3E3F;" d="M52,47c0-1.104-0.896-2-2-2c-0.002,0-0.004,0-0.006,0C49.995,45.021,50,45.042,50,45.063
				c0,1.103-0.892,1.996-1.994,2C48.04,48.137,48.917,49,50,49C51.104,49,52,48.104,52,47z"/>
		</g>
		<g>
			<path style="fill:#3E3E3F;" d="M61.994,47c0-1.104-0.896-2-2-2c-0.002,0-0.004,0-0.006,0c0.001,0.021,0.006,0.041,0.006,0.062
				c0,1.103-0.892,1.996-1.994,2C58.033,48.137,58.91,49,59.994,49C61.098,49,61.994,48.104,61.994,47z"/>
		</g>
		<g>
			<path style="fill:#F79392;" d="M50,58h10c0,0,0,3-5,3S50,58,50,58z"/>
		</g>
	</g>
</g>
</svg>
