<?xml version="1.0" encoding="iso-8859-1"?>
<!-- Generator: Adobe Illustrator 17.1.0, SVG Export Plug-In . SVG Version: 6.00 Build 0)  -->
<!DOCTYPE svg PUBLIC "-//W3C//DTD SVG 1.0//EN" "http://www.w3.org/TR/2001/REC-SVG-20010904/DTD/svg10.dtd">
<svg version="1.0" xmlns="http://www.w3.org/2000/svg" xmlns:xlink="http://www.w3.org/1999/xlink" x="0px" y="0px" width="110px"
	 height="110px" viewBox="0 0 110 110" style="enable-background:new 0 0 110 110;" xml:space="preserve">
<g id="Artboard">
</g>
<g id="Multicolor">
	<g>
		<circle style="fill:#25B7D3;" cx="55" cy="55" r="55"/>
	</g>
	<g>
		<g>
			<polygon style="fill:#F1F2F2;" points="55,87 43,67.997 67,67.997 			"/>
		</g>
		<path style="fill:#FBC8C8;" d="M70,45l-2,1l-3-10l-17,5c0,0,1.5-2.107,3-5c-7.25,0-9,10-9,10l-1-0.5v7.464l4,10l5.105,3.995
			c0.569,0.639,1.384,1.005,2.24,1.005H55h2.655c0.856,0,1.671-0.366,2.24-1.005L65,62.964l3.193-7.982
			C71.039,54.791,72,50.481,72,47.222C72,46.111,71,45,70,45z"/>
		<path style="fill:#F7B4B4;" d="M57.655,67.964H55h-2.655c-0.856,0-1.671-0.366-2.24-1.005L45,62.964V71c0,0,2,4,10,4s10-4,10-4
			v-8.036l-5.105,3.995C59.326,67.598,58.511,67.964,57.655,67.964z"/>
		<path style="fill:#FBC8C8;" d="M50.105,66.959L45,62.964V71c0,0,2,4,10,4v-7.036h-2.655
			C51.489,67.964,50.674,67.599,50.105,66.959z"/>
		<path style="fill:#FBD7D7;" d="M51,36c-7.25,0-9,10-9,10l-2-1c-1,0-2,1.111-2,2.222c0,3.259,0.961,7.568,3.807,7.76L45,62.964
			l5.105,3.995c0.569,0.64,1.384,1.005,2.24,1.005H55V38.941L48,41C48,41,49.5,38.893,51,36z"/>
		<g>
			<path style="fill:#3E3E3F;" d="M52,47c0-1.104-0.896-2-2-2c-0.002,0-0.004,0-0.006,0C49.995,45.021,50,45.042,50,45.063
				c0,1.103-0.892,1.996-1.994,2C48.04,48.137,48.917,49,50,49C51.104,49,52,48.104,52,47z"/>
		</g>
		<g>
			<path style="fill:#3E3E3F;" d="M61.994,47c0-1.104-0.896-2-2-2c-0.002,0-0.004,0-0.006,0c0.001,0.021,0.006,0.041,0.006,0.062
				c0,1.103-0.892,1.996-1.994,2C58.033,48.137,58.91,49,59.994,49C61.098,49,61.994,48.104,61.994,47z"/>
		</g>
		<g>
			<path style="fill:#F79392;" d="M50,58h10c0,0,0,3-5,3S50,58,50,58z"/>
		</g>
		<g>
			<path style="fill:#84462D;" d="M55,26.393c-8.284,0-15,6.42-15,15V45l2,1c0,0,1.75-10,9-10c-1.5,2.893-3,5-3,5l17-5l3,10l2-1
				v-3.607C70,32.813,63.284,26.393,55,26.393z"/>
		</g>
		<path style="fill:#9C6144;" d="M40,41.393V45l2,1c0,0,1.75-10,9-10c-1.5,2.893-3,5-3,5l7-2.059V26.393
			C46.716,26.393,40,32.813,40,41.393z"/>
		<g>
			<polygon style="fill:#FFFFFF;" points="43,67.997 45,66.997 54.985,71.978 49,77.997 			"/>
		</g>
		<g>
			<polygon style="fill:#FFFFFF;" points="67,67.997 65,66.997 55.015,71.978 61,77.997 			"/>
		</g>
		<g>
			<polygon style="fill:#F37A10;" points="59,87 56.201,76.8 58,75.002 54.981,71.978 51.983,74.976 53.801,76.793 51,87 			"/>
		</g>
		<g>
			<polygon style="fill:#F37A10;" points="55,87 55,71.997 54.981,71.978 51.983,74.976 53.801,76.793 51,87 			"/>
		</g>
		<g>
			<path style="fill:#F4D0A1;" d="M23,87l4-11c0.615-1.333,1.698-2.394,3.043-2.983L43,68l12,19H23z"/>
		</g>
		<g>
			<path style="fill:#F4D0A1;" d="M82,87h5l-4-11c-0.615-1.333-1.698-2.394-3.043-2.983L67,68L55,87H82"/>
		</g>
		<g>
			<rect x="66" y="79.997" style="fill:#D4A263;" width="10" height="2"/>
		</g>
	</g>
</g>
</svg>
