<?xml version="1.0" encoding="iso-8859-1"?>
<!-- Generator: Adobe Illustrator 17.1.0, SVG Export Plug-In . SVG Version: 6.00 Build 0)  -->
<!DOCTYPE svg PUBLIC "-//W3C//DTD SVG 1.0//EN" "http://www.w3.org/TR/2001/REC-SVG-20010904/DTD/svg10.dtd">
<svg version="1.0" xmlns="http://www.w3.org/2000/svg" xmlns:xlink="http://www.w3.org/1999/xlink" x="0px" y="0px" width="110px"
	 height="110px" viewBox="0 0 110 110" style="enable-background:new 0 0 110 110;" xml:space="preserve">
<g id="Artboard">
</g>
<g id="Multicolor">
	<g>
		<circle style="fill:#25B7D3;" cx="55" cy="55" r="55"/>
	</g>
	<g>
		<path style="fill:#6FDAF1;" d="M83,76c-0.615-1.333-1.698-2.394-3.043-2.983L65,69H55H45l-14.957,4.017
			C28.698,73.606,27.615,74.667,27,76l-4,11.003h32h32L83,76z"/>
		<path style="fill:#9C6144;" d="M57.655,67.997H55h-2.655c-0.856,0-1.671-0.365-2.24-1.004L45,62.997v4.5c0,0,0,7.5,10,7.5
			s10-7.5,10-7.5v-4.5l-5.105,3.996C59.326,67.632,58.511,67.997,57.655,67.997z"/>
		<path style="fill:#BF8662;" d="M50.105,66.993L45,62.997v4.5c0,0,0,7.5,10,7.5v-7h-2.655
			C51.489,67.997,50.674,67.632,50.105,66.993z"/>
		<path style="fill:#BF8662;" d="M72,47.222C72,46.111,71,45,70,45s-1,1.111-1,1.111V45c-0.018-9-1.024-15-14-15s-13.982,6-14,15
			v7.997l4,10l5.105,3.996c0.569,0.639,1.384,1.004,2.24,1.004H55h2.655c0.856,0,1.671-0.365,2.24-1.004L65,62.997l3.207-8.017
			C71.042,54.776,72,50.476,72,47.222z"/>
		<path style="fill:#CC9978;" d="M41,45v1.111c0,0,0-1.111-1-1.111s-2,1.111-2,2.222c0,3.253,0.958,7.554,3.793,7.758L45,62.997
			l5.105,3.996c0.569,0.639,1.384,1.004,2.24,1.004H55V30C42.024,30,41.018,36,41,45z"/>
		<g>
			<path style="fill:#3E3E3F;" d="M52,46.997c0-1.104-0.896-2-2-2c-0.002,0-0.004,0-0.006,0C49.995,45.019,50,45.039,50,45.06
				c0,1.103-0.892,1.996-1.994,2c0.033,1.075,0.91,1.938,1.994,1.938C51.104,48.997,52,48.102,52,46.997z"/>
		</g>
		<g>
			<path style="fill:#3E3E3F;" d="M61.994,46.997c0-1.104-0.896-2-2-2c-0.002,0-0.004,0-0.006,0
				c0.001,0.021,0.006,0.041,0.006,0.062c0,1.103-0.892,1.996-1.994,2c0.033,1.075,0.91,1.938,1.994,1.938
				C61.098,48.997,61.994,48.102,61.994,46.997z"/>
		</g>
		<g>
			<path style="fill:#84462D;" d="M50,56.997h10c0,0,0,3-5,3S50,56.997,50,56.997z"/>
		</g>
		<g>
			<path style="fill:#692E19;" d="M54.821,29C42.821,29,40,36.111,41,46.111L41.821,47c0-18,4-12,13-12s13-6,13,12L69,46.111
				C70,36.111,66.821,29,54.821,29z"/>
		</g>
		<path style="fill:#84462D;" d="M55,29.007c-0.062,0-0.116-0.007-0.179-0.007C42.821,29,40,36.111,41,46.111L41.821,47
			c0-18,4-12,13-12c0.061,0,0.119-0.003,0.179-0.003V29.007z"/>
		<g>
			<polygon style="fill:#DF2C2C;" points="59,86.997 56,78.997 58,75.999 54.981,72.975 51.983,75.973 54,78.997 51,86.997 			"/>
		</g>
		<g>
			<polygon style="fill:#FA5655;" points="55,86.997 55,72.994 54.981,72.975 51.983,75.973 54,78.997 51,86.997 			"/>
		</g>
		<g>
			<polygon style="fill:#FFFFFF;" points="67,68.997 65,66.997 55,72.997 62,79.997 			"/>
		</g>
		<g>
			<polygon style="fill:#FFFFFF;" points="43,69.997 45,66.997 55,72.997 48,79.997 			"/>
		</g>
		<g>
			<rect x="65" y="82.997" style="fill:#FFFFFF;" width="10" height="2"/>
		</g>
	</g>
</g>
</svg>
