<?xml version="1.0" encoding="iso-8859-1"?>
<!-- Generator: Adobe Illustrator 17.1.0, SVG Export Plug-In . SVG Version: 6.00 Build 0)  -->
<!DOCTYPE svg PUBLIC "-//W3C//DTD SVG 1.0//EN" "http://www.w3.org/TR/2001/REC-SVG-20010904/DTD/svg10.dtd">
<svg version="1.0" xmlns="http://www.w3.org/2000/svg" xmlns:xlink="http://www.w3.org/1999/xlink" x="0px" y="0px" width="110px"
	 height="110px" viewBox="0 0 110 110" style="enable-background:new 0 0 110 110;" xml:space="preserve">
<g id="Artboard">
</g>
<g id="Multicolor">
	<g>
		<circle style="fill:#E04F5F;" cx="55" cy="55" r="55"/>
	</g>
	<g>
		<g>
			<g>
				<path style="fill:#0484AB;" d="M55,70l-7-1l-16.241,3.872c-2.371,0.711-4.279,2.48-5.168,4.791L23,87h32V70z"/>
			</g>
			<g>
				<path style="fill:#0484AB;" d="M55,70l7-1l16.241,3.872c2.371,0.711,4.279,2.48,5.168,4.791L87,87H55V70z"/>
			</g>
		</g>
		<g>
			<path style="fill:#F3B607;" d="M55,26c-23.325,0-28.531,27.812-14.068,38.699L55,58l14.068,6.699C83.531,53.812,78.325,26,55,26z
				"/>
		</g>
		<path style="fill:#FACB1B;" d="M40.932,64.699L55,58V45.324V26C31.805,26,26.378,53.743,40.932,64.699z"/>
		<path style="fill:#FBC8C8;" d="M45,65.132V87h10V72.699C51.716,71.604,47.841,69.528,45,65.132z"/>
		<path style="fill:#F7B4B4;" d="M55,72.699V87h10V65.132C62.159,69.528,58.284,71.604,55,72.699z"/>
		<path style="fill:#FBD7D7;" d="M51,46c-4,0-7.492-2.065-9.415-4.971c-0.482,2.331-0.58,4.942-0.585,7.649c0,0.007,0,0.014,0,0.021
			c-0.368,0-0.723,0-1,0c-1,0-2,1.111-2,2.222c0,3.091,0.864,7.13,4.178,7.703C44.62,67.726,50.396,71.165,55,72.699V45.324
			C53.757,45.746,52.417,46,51,46z"/>
		<path style="fill:#FBC8C8;" d="M70,48.699c-0.277,0-0.633,0-1,0c0-0.007,0-0.014,0-0.021c-0.002-0.929-0.016-1.846-0.05-2.745
			C68.638,45.973,68.323,46,68,46c-3.563,0-6.498-2.474-6.937-5.672c-1.168,2.287-3.361,4.08-6.063,4.996v27.375
			c4.604-1.535,10.38-4.973,12.822-14.075C71.136,58.052,72,54.012,72,50.921C72,49.811,71,48.699,70,48.699z"/>
		<g>
			<path style="fill:#F79392;" d="M50,61.699h10c0,0,0,3-5,3S50,61.699,50,61.699z"/>
		</g>
		<g>
			<path style="fill:#3E3E3F;" d="M52.006,50.699c0-1.104-0.896-2-2-2c-0.002,0-0.004,0-0.006,0
				c0.001,0.021,0.006,0.041,0.006,0.062c0,1.103-0.892,1.996-1.994,2c0.033,1.075,0.91,1.938,1.994,1.938
				C51.111,52.699,52.006,51.804,52.006,50.699z"/>
		</g>
		<g>
			<path style="fill:#3E3E3F;" d="M62,50.699c0-1.104-0.896-2-2-2c-0.002,0-0.004,0-0.006,0C59.995,48.721,60,48.741,60,48.762
				c0,1.103-0.892,1.996-1.994,2c0.033,1.075,0.91,1.938,1.994,1.938C61.104,52.699,62,51.804,62,50.699z"/>
		</g>
		<g>
			<path style="fill:#3E3E3F;" d="M54.977,83c-2.887,0-5.605-0.387-8.023-1.058L48.977,87h12L63,81.942
				C60.582,82.613,57.863,83,54.977,83z"/>
		</g>
		<g>
			<g>
				<polygon style="fill:#3E3E3F;" points="55,81 42.808,75.92 43.192,74.997 55,79.917 66.808,74.997 67.192,75.92 				"/>
			</g>
		</g>
		<g>
			<g>
				<path style="fill:#FFFFFF;" d="M55,80.58l1.386,3.346c0.232,0.561,0.104,1.206-0.325,1.635c-0.586,0.586-1.535,0.586-2.121,0
					c-0.429-0.429-0.557-1.074-0.325-1.635L55,80.58z"/>
			</g>
		</g>
		<g>
			<path style="fill:#40C9E7;" d="M43,87h6l-3.03-7.576c-0.641-1.601-0.97-3.31-0.97-5.035V67c-2,2-4,4-6,7l4,2l-5,5L43,87z"/>
		</g>
		<g>
			<path style="fill:#40C9E7;" d="M67,87h-6l3.03-7.576c0.641-1.601,0.97-3.31,0.97-5.035V67c2,2,4,4,6,7l-4,2l5,5L67,87z"/>
		</g>
		<g>
			<g>
				<path style="fill:#FFFFFF;" d="M42,84.667c0,0.55-0.45,1-1,1H30c-0.55,0-1-0.45-1-1v-7c0-0.55,0.45-1,1-1h11c0.55,0,1,0.45,1,1
					V84.667z"/>
			</g>
			<g>
				<rect x="30" y="79.667" style="fill:#9CE5F4;" width="4" height="5"/>
			</g>
			<g>
				<g>
					<path style="fill:#9CE5F4;" d="M37,77.667h-3v-1.5c0-0.825,0.675-1.5,1.5-1.5s1.5,0.675,1.5,1.5V77.667z"/>
				</g>
				<g>
					<path style="fill:#9CE5F4;" d="M42,78.667H29v-1c0-0.55,0.45-1,1-1h11c0.55,0,1,0.45,1,1V78.667z"/>
				</g>
			</g>
		</g>
	</g>
</g>
</svg>
