<?xml version="1.0" encoding="iso-8859-1"?>
<!-- Generator: Adobe Illustrator 17.1.0, SVG Export Plug-In . SVG Version: 6.00 Build 0)  -->
<!DOCTYPE svg PUBLIC "-//W3C//DTD SVG 1.0//EN" "http://www.w3.org/TR/2001/REC-SVG-20010904/DTD/svg10.dtd">
<svg version="1.0" xmlns="http://www.w3.org/2000/svg" xmlns:xlink="http://www.w3.org/1999/xlink" x="0px" y="0px" width="110px"
	 height="110px" viewBox="0 0 110 110" style="enable-background:new 0 0 110 110;" xml:space="preserve">
<g id="Artboard">
</g>
<g id="Multicolor">
	<circle style="fill:#FABC3D;" cx="55" cy="55" r="55"/>
	<g>
		<g>
			<path style="fill:#FFFFFF;" d="M81.485,41.515c0,6.065-4.935,11-11,11s-11-4.935-11-11s4.935-11,11-11
				S81.485,35.449,81.485,41.515z M63.485,41.515c0,3.86,3.14,7,7,7s7-3.14,7-7s-3.14-7-7-7S63.485,37.655,63.485,41.515z"/>
		</g>
		<path style="fill:#FFFFFF;" d="M35.471,73.806l-6.734-6.734c-0.744-0.744-1.95-0.744-2.694,0c-0.744,0.744-0.744,1.95,0,2.694
			l6.734,6.734l-6.734,6.734c-0.744,0.744-0.744,1.95,0,2.693s1.95,0.744,2.694,0l6.734-6.734l6.734,6.734
			c0.744,0.744,1.95,0.744,2.693,0c0.744-0.744,0.744-1.95,0-2.693L38.164,76.5l6.734-6.734c0.744-0.744,0.744-1.95,0-2.694
			c-0.744-0.744-1.95-0.744-2.693,0L35.471,73.806z"/>
		<path style="fill:#DF2C2C;" d="M30,24l-2,19l7.389-4.063C40.43,52.438,58.989,78,87,78v-6c-26.097,0-42.817-25.943-46.308-35.981
			L48,32L30,24z"/>
	</g>
</g>
</svg>
