<?xml version="1.0" encoding="iso-8859-1"?>
<!-- Generator: Adobe Illustrator 17.1.0, SVG Export Plug-In . SVG Version: 6.00 Build 0)  -->
<!DOCTYPE svg PUBLIC "-//W3C//DTD SVG 1.0//EN" "http://www.w3.org/TR/2001/REC-SVG-20010904/DTD/svg10.dtd">
<svg version="1.0" xmlns="http://www.w3.org/2000/svg" xmlns:xlink="http://www.w3.org/1999/xlink" x="0px" y="0px" width="110px"
	 height="110px" viewBox="0 0 110 110" style="enable-background:new 0 0 110 110;" xml:space="preserve">
<g id="Artboard">
</g>
<g id="Multicolor">
	<circle style="fill:#E04F5F;" cx="55" cy="54.98" r="55"/>
	<g>
		<path style="fill:#FFFFFF;" d="M87,72.982v-50H23v50c8.667,2.167,17.333,3.438,26,3.844v4.294c-8.114,0.382-14,1.519-14,2.862
			c0,1.657,8.954,3,20,3s20-1.343,20-3c0-1.343-5.886-2.48-14-2.862v-4.294C69.667,76.419,78.333,75.148,87,72.982z"/>
		<ellipse style="fill:#FFFFFF;" cx="55" cy="83.982" rx="20" ry="3"/>
		<path style="fill:#E2E4E5;" d="M49,76.825v6.156h12v-6.156C57,77.013,53,77.013,49,76.825z"/>
		<rect x="27" y="26.982" style="fill:#40C9E7;" width="56" height="38"/>
		<path style="fill:#3E3E3F;" d="M51.488,52.118L46,48.982h-8l-5.488,3.136C31.577,52.652,31,53.646,31,54.723v10.259h22V54.723
			C53,53.646,52.423,52.652,51.488,52.118z"/>
		<rect x="55" y="30.982" style="fill:#0D9681;" width="24" height="16"/>
		<rect x="73" y="69.982" style="fill:#BF0302;" width="2" height="2"/>
		<rect x="77" y="69.982" style="fill:#17B198;" width="2" height="2"/>
		<polygon style="fill:#FFFFFF;" points="46,48.982 43.6,56.192 42,60.982 40.4,56.172 38,48.982 		"/>
		<polygon style="fill:#FA5655;" points="43.6,56.192 42,60.982 40.4,56.171 41.96,48.982 		"/>
		<polygon style="fill:#8CE3D4;" points="79,30.982 79,32.782 73.28,41.372 70.19,39.312 65.16,45.352 61.09,42.302 56.42,46.982 
			55,46.982 55,45.562 60.91,39.662 64.84,42.611 69.81,36.652 72.72,38.591 77.8,30.982 		"/>
		<g>
			<path style="fill:#F7B4B4;" d="M49.125,41.858c0-3.897-3.18-7.125-7.125-7.125c-3.921,0-7.125,3.189-7.125,7.125
				c0,2.416,1.21,4.551,3.054,5.84v1.285h8.143v-1.285C47.915,46.409,49.125,44.274,49.125,41.858z"/>
			<path style="fill:#692E19;" d="M49.101,41.454c-1.306,0.261-2.696,0.404-4.132,0.404c-3.693,0-7.077-0.914-9.666-2.434
				c0.998-2.731,3.622-4.691,6.698-4.691C45.788,34.733,48.899,37.713,49.101,41.454z"/>
			<path style="fill:#FBC8C8;" d="M41.872,48.983V34.739c-3.862,0.069-6.998,3.225-6.998,7.118c0,2.416,1.21,4.551,3.054,5.84v1.285
				H41.872z"/>
			<path style="fill:#84462D;" d="M41.872,34.743c-3.019,0.054-5.587,1.988-6.57,4.681c1.844,1.083,4.096,1.85,6.57,2.207V34.743z"
				/>
		</g>
	</g>
</g>
</svg>
