<?xml version="1.0" encoding="iso-8859-1"?>
<!-- Generator: Adobe Illustrator 17.1.0, SVG Export Plug-In . SVG Version: 6.00 Build 0)  -->
<!DOCTYPE svg PUBLIC "-//W3C//DTD SVG 1.0//EN" "http://www.w3.org/TR/2001/REC-SVG-20010904/DTD/svg10.dtd">
<svg version="1.0" xmlns="http://www.w3.org/2000/svg" xmlns:xlink="http://www.w3.org/1999/xlink" x="0px" y="0px" width="110px"
	 height="110px" viewBox="0 0 110 110" style="enable-background:new 0 0 110 110;" xml:space="preserve">
<g id="Artboard">
</g>
<g id="Multicolor">
	<g>
		<circle style="fill:#E04F5F;" cx="55" cy="55" r="55"/>
	</g>
	<g>
		<path style="fill:#6FDAF1;" d="M83,75.997c-0.615-1.333-1.698-2.394-3.043-2.983L65,68.997H55H45l-14.957,4.017
			c-1.345,0.589-2.428,1.65-3.043,2.983L23,87h32h32L83,75.997z"/>
		<path style="fill:#F7B4B4;" d="M57.655,67.997H55h-2.655c-0.856,0-1.671-0.365-2.24-1.004L45,62.997v4.5c0,0,0,7.5,10,7.5
			s10-7.5,10-7.5v-4.5l-5.105,3.996C59.326,67.632,58.511,67.997,57.655,67.997z"/>
		<path style="fill:#FBC8C8;" d="M50.105,66.993L45,62.997v4.5c0,0,0,7.5,10,7.5v-7h-2.655
			C51.489,67.997,50.674,67.632,50.105,66.993z"/>
		<path style="fill:#FBC8C8;" d="M70.702,45.178L68.791,49l-1.135-10.884l-16.288,6.515l2.171-7.601c0,0-5.28,3.772-10.094,7.383
			L42.791,50L41,47.015v5.982l4,10l5.105,3.996c0.569,0.639,1.384,1.004,2.24,1.004H55h2.655c0.856,0,1.671-0.365,2.24-1.004
			L65,62.997l3.207-8.017C71.042,54.776,72,50.476,72,47.222C72,46.376,71.42,45.534,70.702,45.178z"/>
		<path style="fill:#FBD7D7;" d="M51.369,44.631l2.171-7.601c0,0-5.28,3.772-10.094,7.383L42.791,50l-2.984-4.974
			C38.875,45.156,38,46.183,38,47.222c0,3.253,0.958,7.554,3.793,7.758L45,62.997l5.105,3.996c0.569,0.639,1.384,1.004,2.24,1.004
			H55V43.179L51.369,44.631z"/>
		<g>
			<path style="fill:#F3B607;" d="M55.712,24c-8.996,0-16.288,7.292-16.288,16.288c0,1.438,0.367,4.712,0.367,4.712l3,5l0.655-5.586
				C48.26,40.803,53.54,37.03,53.54,37.03l-2.171,7.601l16.288-6.515L68.791,49l2-4c0,0,1-2,1.209-4.712
				C72,31.292,64.708,24,55.712,24z"/>
		</g>
		<g>
			<path style="fill:#3E3E3F;" d="M52,46.997c0-1.104-0.896-2-2-2c-0.002,0-0.004,0-0.006,0C49.995,45.019,50,45.039,50,45.06
				c0,1.103-0.892,1.996-1.994,2c0.033,1.075,0.91,1.938,1.994,1.938C51.104,48.997,52,48.102,52,46.997z"/>
		</g>
		<g>
			<path style="fill:#3E3E3F;" d="M61.994,46.997c0-1.104-0.896-2-2-2c-0.002,0-0.004,0-0.006,0
				c0.001,0.021,0.006,0.041,0.006,0.062c0,1.103-0.892,1.996-1.994,2c0.033,1.075,0.91,1.938,1.994,1.938
				C61.098,48.997,61.994,48.102,61.994,46.997z"/>
		</g>
		<g>
			<path style="fill:#F79392;" d="M50,58h10c0,0,0,3-5,3S50,58,50,58z"/>
		</g>
		<g>
			<polygon style="fill:#DF2C2C;" points="59,86.997 56,78.997 58,75.999 54.981,72.975 51.983,75.973 54,78.997 51,86.997 			"/>
		</g>
		<g>
			<polygon style="fill:#FA5655;" points="55,86.997 55,72.994 54.981,72.975 51.983,75.973 54,78.997 51,86.997 			"/>
		</g>
		<g>
			<polygon style="fill:#FFFFFF;" points="67,68.997 65,66.997 55,72.997 62,79.997 			"/>
		</g>
		<g>
			<polygon style="fill:#FFFFFF;" points="43,69.997 45,66.997 55,72.997 48,79.997 			"/>
		</g>
		<g>
			<rect x="65" y="82.997" style="fill:#FFFFFF;" width="10" height="2"/>
		</g>
		<path style="fill:#FACB1B;" d="M55,43.179V24.036c-8.663,0.375-15.576,7.497-15.576,16.252c0,1.438,0.367,4.712,0.367,4.712l3,5
			l0.655-5.586C48.26,40.803,53.54,37.03,53.54,37.03l-2.171,7.601L55,43.179z"/>
	</g>
</g>
</svg>
