<?xml version="1.0" encoding="iso-8859-1"?>
<!-- Generator: Adobe Illustrator 17.1.0, SVG Export Plug-In . SVG Version: 6.00 Build 0)  -->
<!DOCTYPE svg PUBLIC "-//W3C//DTD SVG 1.0//EN" "http://www.w3.org/TR/2001/REC-SVG-20010904/DTD/svg10.dtd">
<svg version="1.0" xmlns="http://www.w3.org/2000/svg" xmlns:xlink="http://www.w3.org/1999/xlink" x="0px" y="0px" width="110px"
	 height="110px" viewBox="0 0 110 110" style="enable-background:new 0 0 110 110;" xml:space="preserve">
<g id="Artboard">
</g>
<g id="Multicolor">
	<g>
		<circle style="fill:#E04F5F;" cx="55" cy="55" r="55"/>
	</g>
	<g>
		<g>
			<polygon style="fill:#F1F2F2;" points="55,86.997 43,67.994 67,67.994 			"/>
		</g>
		<path style="fill:#F4D0A1;" d="M64.864,62.997l-5.105,3.996c-0.569,0.639-1.384,1.004-2.24,1.004h-2.655h-2.655
			c-0.856,0-1.671-0.365-2.24-1.004L45,63.103V67.5c0,0,0,7.5,10,7.5s10-7.5,10-7.5v-4.842L64.864,62.997z"/>
		<path style="fill:#F8E1C2;" d="M70.202,45.045C68.84,46.999,67.893,47,67.893,47V34.433c-0.022-0.064-0.044-0.129-0.068-0.193
			l-25.932,6.751v9c0.057-0.006-0.402-0.292-1.029-1.1v4.105l4,10l5.105,3.996c0.569,0.639,1.384,1.004,2.24,1.004h2.655h2.655
			c0.855,0,1.67-0.365,2.24-1.004l5.105-3.996l3.207-8.017c2.835-0.205,3.793-4.505,3.793-7.758
			C71.864,46.237,71.077,45.255,70.202,45.045z"/>
		<path style="fill:#F8E1C2;" d="M52.209,67.997c-0.856,0-1.671-0.365-2.24-1.004L45,63.103V67.5c0,0,0,7.5,10,7.5v-7.003H52.209z"
			/>
		<path style="fill:#FCF1E2;" d="M41.893,40.991v9c0.045-0.005-0.239-0.198-0.669-0.674l-0.36-3.206c0,0,0-1.111-1-1.111
			s-2,1.111-2,2.222c0,3.253,0.958,7.554,3.793,7.758l3.207,8.017l5.105,3.996c0.569,0.639,1.384,1.004,2.24,1.004H55V37.579
			L41.893,40.991z"/>
		<g>
			<path style="fill:#F79392;" d="M49.864,56.997h10c0,0,0,3-5,3S49.864,56.997,49.864,56.997z"/>
		</g>
		<path style="fill:#3E3E3F;" d="M70.069,32.239c0.546-1.14,0.871-2.706-0.176-4.277c-4.097-6.144-33.077-6.967-32,11
			c0.538,8.97,4.155,11.012,4,11.029v-9l26-6.769V47c0,0,3,0,6-11.029C74.549,33.559,72.042,32.611,70.069,32.239z"/>
		<g>
			<path style="fill:#3E3E3F;" d="M61.007,46.498c1.191,0,2.248,0.266,2.981,0.678c0.071-0.569-0.172-1.154-0.748-1.59
				c-1.03-0.781-2.702-0.781-3.733,0c-0.464,0.352-0.709,0.801-0.753,1.26C59.396,46.627,60.171,46.498,61.007,46.498z"/>
		</g>
		<g>
			<path style="fill:#3E3E3F;" d="M49,46.498c-1.191,0-2.248,0.266-2.981,0.678c-0.071-0.569,0.172-1.154,0.748-1.59
				c1.03-0.781,2.702-0.781,3.733,0c0.464,0.352,0.709,0.801,0.753,1.26C50.611,46.627,49.836,46.498,49,46.498z"/>
		</g>
		<g>
			<polygon style="fill:#FFFFFF;" points="43,67.994 45,66.994 54.985,71.975 49,77.994 			"/>
		</g>
		<g>
			<polygon style="fill:#FFFFFF;" points="67,67.994 65,66.994 55.015,71.975 61,77.994 			"/>
		</g>
		<g>
			<polygon style="fill:#F3B607;" points="59,86.997 56.201,76.797 58,74.999 54.981,71.975 51.983,74.973 53.801,76.791 51,86.997 
							"/>
		</g>
		<g>
			<polygon style="fill:#F3B607;" points="55,86.997 55,71.994 54.981,71.975 51.983,74.973 53.801,76.791 51,86.997 			"/>
		</g>
		<g>
			<path style="fill:#3E3E3F;" d="M23,86.997l4-11c0.615-1.333,1.698-2.394,3.043-2.983L43,67.997l12,19H23z"/>
		</g>
		<g>
			<path style="fill:#3E3E3F;" d="M87,86.997l-4-11c-0.615-1.333-1.698-2.394-3.043-2.983L67,67.997l-12,19H87z"/>
		</g>
		<g>
			<rect x="66" y="79.994" style="fill:#FFFFFF;" width="10" height="2"/>
		</g>
	</g>
</g>
</svg>
