<?xml version="1.0" encoding="iso-8859-1"?>
<!-- Generator: Adobe Illustrator 17.1.0, SVG Export Plug-In . SVG Version: 6.00 Build 0)  -->
<!DOCTYPE svg PUBLIC "-//W3C//DTD SVG 1.0//EN" "http://www.w3.org/TR/2001/REC-SVG-20010904/DTD/svg10.dtd">
<svg version="1.0" xmlns="http://www.w3.org/2000/svg" xmlns:xlink="http://www.w3.org/1999/xlink" x="0px" y="0px" width="110px"
	 height="110px" viewBox="0 0 110 110" style="enable-background:new 0 0 110 110;" xml:space="preserve">
<g id="Artboard">
</g>
<g id="Multicolor">
	<g>
		<circle style="fill:#FABC3D;" cx="55" cy="55" r="55"/>
	</g>
	<g>
		<g>
			<path style="fill:#3E3E3F;" d="M55,70l-7-1l-16.241,3.872c-2.371,0.711-4.279,2.48-5.168,4.791L23,87h32V70z"/>
		</g>
		<g>
			<path style="fill:#3E3E3F;" d="M55,70l7-1l16.241,3.872c2.371,0.711,4.279,2.48,5.168,4.791L87,87H55V70z"/>
		</g>
		<path style="fill:#AF7653;" d="M55,69.077c-3.284-1.095-7.159-3.171-10-7.568V77l9,10h2l9-10V61.509
			C62.159,65.905,58.284,67.982,55,69.077z"/>
		<path style="fill:#BF8662;" d="M45,61.509V77l9,10h1V69.077C51.716,67.982,47.841,65.905,45,61.509z"/>
		<path style="fill:#BF8662;" d="M70,45.077c-0.277,0-0.633,0-1,0c0-0.007,0-0.014,0-0.021c-0.018-9.008-1.024-16.979-14-16.979
			s-13.982,7.971-14,16.979c0,0.007,0,0.014,0,0.021c-0.368,0-0.723,0-1,0c-1,0-2,1.111-2,2.222c0,3.091,0.864,7.13,4.178,7.703
			C44.62,64.103,50.396,67.542,55,69.077c4.604-1.535,10.38-4.973,12.822-14.075C71.136,54.429,72,50.39,72,47.299
			C72,46.188,71,45.077,70,45.077z"/>
		<path style="fill:#CC9978;" d="M41,45.056c0,0.007,0,0.014,0,0.021c-0.368,0-0.723,0-1,0c-1,0-2,1.111-2,2.222
			c0,3.091,0.864,7.13,4.178,7.703C44.62,64.103,50.396,67.542,55,69.077v-41C42.024,28.077,41.018,36.047,41,45.056z"/>
		<g>
			<path style="fill:#FACB1B;" d="M55,80.599l-0.275-0.181C54.308,80.143,44.5,73.635,44.5,69c0-0.276,0.224-0.5,0.5-0.5
				s0.5,0.224,0.5,0.5c0,3.292,6.61,8.448,9.5,10.399c2.89-1.951,9.5-7.107,9.5-10.399c0-0.276,0.224-0.5,0.5-0.5s0.5,0.224,0.5,0.5
				c0,4.635-9.808,11.143-10.225,11.418L55,80.599z"/>
		</g>
		<g>
			<path style="fill:#F3B607;" d="M57,82c0,1.105-0.895,2-2,2s-2-0.895-2-2s0.895-3.333,2-3.333S57,80.895,57,82z"/>
		</g>
		<g>
			<polygon style="fill:#FFFFFF;" points="44.989,64 47,75 55,87 53,87 40,79 44,74 35,72 			"/>
		</g>
		<g>
			<polygon style="fill:#FFFFFF;" points="65.011,64 63,75 55,87 57,87 70,79 66,74 75,72 			"/>
		</g>
		<path style="fill:#3E3E3F;" d="M76.561,39.273C78.016,38.399,79,36.821,79,35c0-3.143-2.898-5.583-6.088-4.874
			c-0.598-3.38-4.403-5.25-7.48-3.396c-1.243-2.421-4.204-3.499-6.776-2.121l-0.001-0.001C57.719,23.606,56.4,23,55,23
			c-1.4,0-2.72,0.607-3.655,1.609l0,0c-2.572-1.377-5.533-0.3-6.776,2.121c-3.078-1.854-6.882,0.016-7.48,3.396
			C33.898,29.417,31,31.857,31,35c0,1.821,0.984,3.399,2.439,4.273c-5.537,1.831-3.976,10.024,1.845,9.698
			C34.187,52,36.463,55,39.5,55c4.001,0,3.5-6,3.5-10c7.821,0.332,12-7.668,12-7.5c0-0.168,4.179,7.832,12,7.5c0,4-0.501,10,3.5,10
			c3.037,0,5.313-3,4.216-6.029C80.537,49.298,82.098,41.104,76.561,39.273z"/>
		<g>
			<path style="fill:#3E3E3F;" d="M52,47.077c0-1.104-0.896-2-2-2c-0.002,0-0.004,0-0.006,0C49.995,45.098,50,45.118,50,45.139
				c0,1.103-0.892,1.996-1.994,2c0.033,1.075,0.91,1.938,1.994,1.938C51.104,49.077,52,48.181,52,47.077z"/>
		</g>
		<g>
			<path style="fill:#3E3E3F;" d="M61.994,47.077c0-1.104-0.896-2-2-2c-0.002,0-0.004,0-0.006,0
				c0.001,0.021,0.006,0.041,0.006,0.062c0,1.103-0.892,1.996-1.994,2c0.033,1.075,0.91,1.938,1.994,1.938
				C61.098,49.077,61.994,48.181,61.994,47.077z"/>
		</g>
		<g>
			<path style="fill:#84462D;" d="M50,58.077h10c0,0,0,3-5,3S50,58.077,50,58.077z"/>
		</g>
	</g>
</g>
</svg>
