<?xml version="1.0" encoding="iso-8859-1"?>
<!-- Generator: Adobe Illustrator 17.1.0, SVG Export Plug-In . SVG Version: 6.00 Build 0)  -->
<!DOCTYPE svg PUBLIC "-//W3C//DTD SVG 1.0//EN" "http://www.w3.org/TR/2001/REC-SVG-20010904/DTD/svg10.dtd">
<svg version="1.0" xmlns="http://www.w3.org/2000/svg" xmlns:xlink="http://www.w3.org/1999/xlink" x="0px" y="0px" width="110px"
	 height="110px" viewBox="0 0 110 110" style="enable-background:new 0 0 110 110;" xml:space="preserve">
<g id="Artboard">
</g>
<g id="Multicolor">
	<circle style="fill:#FABC3D;" cx="55" cy="55" r="55"/>
	<g>
		<g>
			<circle style="fill:#84462D;" cx="55" cy="55" r="32"/>
		</g>
		<g>
			<path style="fill:#D4A263;" d="M69.142,40.858c-7.81-7.81-20.474-7.811-28.284,0s-7.81,20.474,0,28.284
				c7.811,7.811,20.474,7.811,28.284,0S76.953,48.668,69.142,40.858z M40.858,57.828c-1.562-1.562-1.562-4.095,0-5.657
				s4.095-1.562,5.657,0c1.562,1.562,1.562,4.095,0,5.657C44.953,59.39,42.42,59.391,40.858,57.828z M52.172,46.515
				c-1.562-1.562-1.562-4.095,0-5.657s4.095-1.562,5.657,0c1.562,1.562,1.562,4.095,0,5.657
				C56.267,48.077,53.734,48.077,52.172,46.515z M52.172,69.142c-1.562-1.562-1.562-4.095,0-5.657s4.095-1.562,5.657,0
				c1.562,1.562,1.562,4.095,0,5.657S53.734,70.704,52.172,69.142z M63.486,57.828c-1.562-1.562-1.562-4.095,0-5.657
				s4.095-1.562,5.657,0c1.562,1.562,1.562,4.095,0,5.657S65.048,59.391,63.486,57.828z"/>
		</g>
		<g>
			<path style="fill:#9C6144;" d="M40.858,40.858c7.811-7.811,20.474-7.81,28.284,0l8.485-8.485
				c-12.497-12.497-32.758-12.497-45.255,0s-12.497,32.758,0,45.255l8.485-8.485C33.048,61.332,33.047,48.668,40.858,40.858z"/>
		</g>
		<g>
			<path style="fill:#EDBC7C;" d="M40.858,40.858c-7.811,7.811-7.81,20.474,0,28.284l28.284-28.284
				C61.332,33.047,48.669,33.047,40.858,40.858z M57.829,40.858c1.562,1.562,1.562,4.095,0,5.657c-1.562,1.562-4.095,1.562-5.657,0
				c-1.562-1.562-1.562-4.095,0-5.657S56.267,39.296,57.829,40.858z M46.515,52.172c1.562,1.562,1.562,4.095,0,5.657
				c-1.562,1.562-4.095,1.562-5.657,0c-1.562-1.562-1.562-4.095,0-5.657S44.953,50.609,46.515,52.172z"/>
		</g>
		<g>
			<circle style="fill:#692E19;" cx="66.314" cy="55" r="4"/>
		</g>
		<g>
			<circle style="fill:#692E19;" cx="55" cy="43.686" r="4"/>
		</g>
		<g>
			<circle style="fill:#692E19;" cx="55" cy="66.314" r="4"/>
		</g>
		<g>
			<circle style="fill:#692E19;" cx="43.687" cy="55" r="4"/>
		</g>
		<g>
			<path style="fill:#FFFFFF;" d="M65.852,53.573H56.22v-9.632c0-0.73-0.592-1.323-1.323-1.323c-0.731,0-1.323,0.593-1.323,1.323
				v9.632h-9.631c-0.731,0-1.323,0.592-1.323,1.323s0.592,1.323,1.323,1.323h9.631v9.631c0,0.731,0.592,1.324,1.323,1.324
				c0.731,0,1.323-0.593,1.323-1.324V56.22h9.632c0.731,0,1.323-0.592,1.323-1.323S66.582,53.573,65.852,53.573z"/>
		</g>
	</g>
</g>
</svg>
