<?xml version="1.0" encoding="iso-8859-1"?>
<!-- Generator: Adobe Illustrator 17.1.0, SVG Export Plug-In . SVG Version: 6.00 Build 0)  -->
<!DOCTYPE svg PUBLIC "-//W3C//DTD SVG 1.0//EN" "http://www.w3.org/TR/2001/REC-SVG-20010904/DTD/svg10.dtd">
<svg version="1.0" xmlns="http://www.w3.org/2000/svg" xmlns:xlink="http://www.w3.org/1999/xlink" x="0px" y="0px" width="110px"
	 height="110px" viewBox="0 0 110 110" style="enable-background:new 0 0 110 110;" xml:space="preserve">
<g id="Artboard">
</g>
<g id="Multicolor">
	<circle style="fill:#32BEA6;" cx="55" cy="55" r="55"/>
	<g>
		<g>
			<g>
				<path style="fill:#F79392;" d="M51,60.998v-16c0-0.53,0.123-1.125,0.382-1.681c-2.528-8.69-12.333-16.609-23.142-20.119
					c-1.28-0.42-2.69-0.16-3.74,0.68c-1.05,0.84-1.61,2.15-1.48,3.49l3.64,24c0.19,2.06,1.92,3.63,3.98,3.63h7.74
					c-8.93,4.1-16.28,12.35-6.53,28.83c1.63,2.75,5.12,3.74,7.95,2.26c5.822-3.052,14.659-9.586,15.153-21.095
					C52.766,64.967,51,63.19,51,60.998z"/>
			</g>
			<g>
				<path style="fill:#F79392;" d="M85.5,23.878c-1.05-0.84-2.46-1.1-3.74-0.68c-10.808,3.509-20.614,11.429-23.142,20.119
					c0,0,0,0,0,0c0.237,0.51,0.381,1.099,0.381,1.677c0,0.001,0,0.003,0,0.004c0,4.732,0,0.573,0,16
					c0,2.193-1.766,3.969-3.953,3.995c0.493,11.509,9.331,18.043,15.153,21.095c2.83,1.48,6.32,0.49,7.95-2.26
					c9.75-16.48,2.4-24.73-6.53-28.83h7.74c2.06,0,3.79-1.57,3.98-3.63l3.64-24C87.11,26.028,86.55,24.718,85.5,23.878z"/>
			</g>
		</g>
		<g>
			<g>
				<path style="fill:#0484AB;" d="M54.949,64.99c-0.49,11.51-9.33,18.05-15.15,21.1c-2.83,1.48-6.32,0.49-7.95-2.26
					c-7.234-12.349-6.582-22.803,6.53-28.83h-7.74c-2.06,0-3.79-1.57-3.98-3.63l-3.64-24c-0.13-1.34,0.43-2.65,1.48-3.49
					c1.05-0.84,2.46-1.1,3.74-0.68c10.81,3.51,20.62,11.43,23.14,20.12c-0.26,0.55-0.38,1.15-0.38,1.68v16
					c0,0.15,0.01,0.3,0.03,0.45C51.249,63.43,52.919,64.97,54.949,64.99z"/>
			</g>
			<g>
				<path style="fill:#0484AB;" d="M79.359,55h-7.74c8.93,4.1,16.28,12.35,6.53,28.83c-1.63,2.75-5.12,3.74-7.95,2.26
					c-5.82-3.05-14.66-9.59-15.15-21.1c2.19-0.02,3.95-1.8,3.95-3.99v-7.52c0-6.53,0-4.77,0-8.48v-0.01c0-0.57-0.14-1.16-0.38-1.67
					c2.53-8.69,12.33-16.61,23.14-20.12c1.28-0.42,2.69-0.16,3.74,0.68c1.026,0.821,1.623,2.108,1.48,3.49l-3.64,24
					C83.149,53.43,81.419,55,79.359,55z"/>
			</g>
		</g>
		<g>
			<path style="fill:#059BBF;" d="M50.999,45v16c0,0.15,0.01,0.3,0.03,0.45l-20.33,20.33c-7.97-15.12-0.87-22.85,7.68-26.78h-7.74
				c-2.06,0-3.79-1.57-3.98-3.63l-3.64-24c-0.13-1.34,0.43-2.65,1.48-3.49c1.05-0.84,2.46-1.1,3.74-0.68
				c10.81,3.51,20.62,11.43,23.14,20.12C51.119,43.87,50.999,44.47,50.999,45z"/>
		</g>
		<g>
			<path style="fill:#F3B607;" d="M51,60.998v-5.778c-5.996,0.568-16.365,2.598-13.895,9.842C33.663,65.501,31,68.436,31,71.998
				c0,3.866,3.134,7,7,7c9,0,12.457-4.913,17-14C52.791,64.998,51,63.207,51,60.998z"/>
		</g>
		<g>
			<path style="fill:#FACB1B;" d="M51,60.998v-5.778c-5.996,0.568-16.365,2.598-13.895,9.842C33.663,65.501,31,68.436,31,71.998
				c0,2.57,1.389,4.809,3.452,6.027l16.592-16.592C51.028,61.288,51,61.147,51,60.998z"/>
		</g>
		<g>
			<circle style="fill:#FFFFFF;" cx="39" cy="72.998" r="3"/>
		</g>
		<g>
			<path style="fill:#FACB1B;" d="M51,46.998c-5.546-10.55-11.519-15.282-17.79-15.935c-0.563-0.059-1.125,0.125-1.546,0.504
				C31.243,31.945,31,32.485,31,33.051l0,16.307c0,0.953,0.673,1.774,1.608,1.961C37.51,53.614,43.606,54.871,51,54.998V46.998z"/>
		</g>
		<g>
			<path style="fill:#059BBF;" d="M58.999,45v-0.01c0-0.57-0.14-1.16-0.38-1.67c2.53-8.69,12.33-16.61,23.14-20.12
				c1.28-0.42,2.69-0.16,3.74,0.68c0.6,0.48,1.04,1.11,1.29,1.81l-27.79,27.79C58.999,46.95,58.999,48.71,58.999,45z"/>
		</g>
		<g>
			<path style="fill:#F3B607;" d="M72.895,65.061c2.47-7.244-7.898-9.273-13.895-9.842v5.778c0,2.209-1.791,4-4,4
				c4.543,9.087,8,14,17,14c3.866,0,7-3.134,7-7C79,68.436,76.338,65.501,72.895,65.061z"/>
		</g>
		<g>
			<path style="fill:#FFFFFF;" d="M66.479,25.12c-2.515-1.372-4.718-1.49-6.547-0.349c-4.375,2.728-4.942,11.974-4.964,16.23
				c0.011,0,0.021-0.003,0.032-0.003c0.721,0,1.387,0.206,1.971,0.54c-0.012-4.486,0.66-12.976,4.019-15.07
				c1.188-0.74,2.67-0.607,4.531,0.408c0.487,0.265,1.092,0.085,1.357-0.399C67.143,25.992,66.964,25.384,66.479,25.12z"/>
		</g>
		<g>
			<path style="fill:#FFFFFF;" d="M53.029,41.537c0.584-0.334,1.25-0.54,1.971-0.54c0.011,0,0.021,0.003,0.032,0.003
				c-0.022-4.257-0.589-13.503-4.964-16.23c-1.83-1.141-4.032-1.022-6.547,0.349c-0.485,0.265-0.664,0.872-0.399,1.357
				c0.265,0.484,0.87,0.664,1.357,0.399c1.86-1.015,3.342-1.148,4.531-0.408C52.369,28.561,53.041,37.051,53.029,41.537z"/>
		</g>
		<g>
			<path style="fill:#FA5655;" d="M59,44.998c0-2.209-1.791-4-4-4c-2.209,0-4,1.791-4,4v16c0,2.209,1.791,4,4,4c2.209,0,4-1.791,4-4
				V44.998z"/>
		</g>
		<g>
			<circle style="fill:#FFFFFF;" cx="71" cy="72.998" r="3"/>
		</g>
		<g>
			<path style="fill:#F79392;" d="M54.999,40.998c-2.208,0.001-3.999,1.791-3.999,4v16c0,2.209,1.79,3.999,3.999,4V40.998z"/>
		</g>
		<g>
			<circle style="fill:#FFFFFF;" cx="36.5" cy="39.5" r="2.5"/>
		</g>
		<g>
			<path style="fill:#F3B607;" d="M59,46.998c5.546-10.55,11.519-15.282,17.79-15.935c0.563-0.059,1.125,0.125,1.546,0.504
				S79,32.485,79,33.051v16.307c0,0.953-0.673,1.774-1.608,1.961C71.639,53.881,65.467,54.96,59,54.998V46.998z"/>
		</g>
		<g>
			<path style="fill:#FACB1B;" d="M79,33.477v-0.426c0-0.566-0.242-1.106-0.664-1.485c-0.421-0.379-0.982-0.562-1.546-0.504
				C70.519,31.715,64.547,36.447,59,46.998v6.479L79,33.477z"/>
		</g>
		<g>
			<circle style="fill:#FFFFFF;" cx="72.5" cy="39.5" r="2.5"/>
		</g>
	</g>
</g>
</svg>
