<?xml version="1.0" encoding="iso-8859-1"?>
<!-- Generator: Adobe Illustrator 17.1.0, SVG Export Plug-In . SVG Version: 6.00 Build 0)  -->
<!DOCTYPE svg PUBLIC "-//W3C//DTD SVG 1.0//EN" "http://www.w3.org/TR/2001/REC-SVG-20010904/DTD/svg10.dtd">
<svg version="1.0" xmlns="http://www.w3.org/2000/svg" xmlns:xlink="http://www.w3.org/1999/xlink" x="0px" y="0px" width="110px"
	 height="110px" viewBox="0 0 110 110" style="enable-background:new 0 0 110 110;" xml:space="preserve">
<g id="Artboard">
</g>
<g id="Multicolor">
	<circle style="fill:#25B7D3;" cx="55" cy="55" r="55"/>
	<g>
		<g>
			<rect x="31" y="27" style="fill:#D4A263;" width="48" height="56"/>
		</g>
		<g>
			<polygon style="fill:#EDBC7C;" points="31,67.598 71.598,27 31,27 			"/>
		</g>
		<g>
			<rect x="35" y="31" style="fill:#F4D0A1;" width="16" height="36"/>
		</g>
		<g>
			<polygon style="fill:#F8E1C2;" points="51,47.598 51,31 35,31 35,63.598 			"/>
		</g>
		<g>
			<path style="fill:#84462D;" d="M27,23c0,1.333,1.333,2.667,4,4h48c2.667-1.333,4-2.667,4-4H27z"/>
		</g>
		<g>
			<polygon style="fill:#84462D;" points="41,83 35,83 35,87 39,87 			"/>
		</g>
		<g>
			<polygon style="fill:#84462D;" points="69,83 75,83 75,87 71,87 			"/>
		</g>
		<g>
			<rect x="31" y="71" style="fill:#F4D0A1;" width="48" height="12"/>
		</g>
		<g>
			<circle style="fill:#84462D;" cx="55" cy="77" r="2"/>
		</g>
		<g>
			<rect x="59" y="31" style="fill:#F4D0A1;" width="16" height="36"/>
		</g>
		<g>
			<polygon style="fill:#F8E1C2;" points="67.598,31 59,31 59,39.598 			"/>
		</g>
		<g>
			<circle style="fill:#84462D;" cx="63" cy="47" r="2"/>
		</g>
		<g>
			<circle style="fill:#9C6144;" cx="47" cy="47" r="2"/>
		</g>
		<g>
			<path style="fill:#9C6144;" d="M27,23c0,1.333,1.333,2.667,4,4h40.598l4-4H27z"/>
		</g>
	</g>
</g>
</svg>
