<?xml version="1.0" encoding="iso-8859-1"?>
<!-- Generator: Adobe Illustrator 17.1.0, SVG Export Plug-In . SVG Version: 6.00 Build 0)  -->
<!DOCTYPE svg PUBLIC "-//W3C//DTD SVG 1.0//EN" "http://www.w3.org/TR/2001/REC-SVG-20010904/DTD/svg10.dtd">
<svg version="1.0" xmlns="http://www.w3.org/2000/svg" xmlns:xlink="http://www.w3.org/1999/xlink" x="0px" y="0px" width="110px"
	 height="110px" viewBox="0 0 110 110" style="enable-background:new 0 0 110 110;" xml:space="preserve">
<g id="Artboard">
</g>
<g id="Multicolor">
	<circle style="fill:#25B7D3;" cx="55" cy="54.98" r="55"/>
	<g>
		<path style="fill:#3E3E3F;" d="M83,30.98c0-4.418-3.582-8-8-8H35c-4.418,0-8,3.582-8,8v48c0,4.418,3.582,8,8,8h40
			c4.418,0,8-3.582,8-8V30.98z"/>
		<path style="fill:#CFD3D4;" d="M42,68.105c0,0.483-0.392,0.875-0.875,0.875h-5.25c-0.483,0-0.875-0.392-0.875-0.875v-5.25
			c0-0.483,0.392-0.875,0.875-0.875h5.25c0.483,0,0.875,0.392,0.875,0.875V68.105z"/>
		<path style="fill:#CFD3D4;" d="M42,80.105c0,0.483-0.392,0.875-0.875,0.875h-5.25c-0.483,0-0.875-0.392-0.875-0.875v-5.25
			c0-0.483,0.392-0.875,0.875-0.875h5.25c0.483,0,0.875,0.392,0.875,0.875V80.105z"/>
		<path style="fill:#CFD3D4;" d="M53,56.105c0,0.483-0.392,0.875-0.875,0.875h-5.25c-0.483,0-0.875-0.392-0.875-0.875v-5.25
			c0-0.483,0.392-0.875,0.875-0.875h5.25c0.483,0,0.875,0.392,0.875,0.875V56.105z"/>
		<path style="fill:#CFD3D4;" d="M53,68.105c0,0.483-0.392,0.875-0.875,0.875h-5.25c-0.483,0-0.875-0.392-0.875-0.875v-5.25
			c0-0.483,0.392-0.875,0.875-0.875h5.25c0.483,0,0.875,0.392,0.875,0.875V68.105z"/>
		<path style="fill:#CFD3D4;" d="M53,80.105c0,0.483-0.392,0.875-0.875,0.875h-5.25c-0.483,0-0.875-0.392-0.875-0.875v-5.25
			c0-0.483,0.392-0.875,0.875-0.875h5.25c0.483,0,0.875,0.392,0.875,0.875V80.105z"/>
		<path style="fill:#CFD3D4;" d="M64,56.105c0,0.483-0.392,0.875-0.875,0.875h-5.25c-0.483,0-0.875-0.392-0.875-0.875v-5.25
			c0-0.483,0.392-0.875,0.875-0.875h5.25c0.483,0,0.875,0.392,0.875,0.875V56.105z"/>
		<path style="fill:#FA5655;" d="M75,56.105c0,0.483-0.392,0.875-0.875,0.875h-5.25c-0.483,0-0.875-0.392-0.875-0.875v-5.25
			c0-0.483,0.392-0.875,0.875-0.875h5.25c0.483,0,0.875,0.392,0.875,0.875V56.105z"/>
		<path style="fill:#CFD3D4;" d="M64,68.105c0,0.483-0.392,0.875-0.875,0.875h-5.25c-0.483,0-0.875-0.392-0.875-0.875v-5.25
			c0-0.483,0.392-0.875,0.875-0.875h5.25c0.483,0,0.875,0.392,0.875,0.875V68.105z"/>
		<path style="fill:#CFD3D4;" d="M64,80.105c0,0.483-0.392,0.875-0.875,0.875h-5.25c-0.483,0-0.875-0.392-0.875-0.875v-5.25
			c0-0.483,0.392-0.875,0.875-0.875h5.25c0.483,0,0.875,0.392,0.875,0.875V80.105z"/>
		<path style="fill:#CFD3D4;" d="M75,80.105c0,0.483-0.392,0.875-0.875,0.875h-5.25c-0.483,0-0.875-0.392-0.875-0.875V62.98
			c0-0.483,0.392-0.875,0.875-0.875h5.25c0.483,0,0.875,0.392,0.875,0.875V80.105z"/>
		<path style="fill:#CFD3D4;" d="M42,56.105c0,0.483-0.392,0.875-0.875,0.875h-5.25c-0.483,0-0.875-0.392-0.875-0.875v-5.25
			c0-0.483,0.392-0.875,0.875-0.875h5.25c0.483,0,0.875,0.392,0.875,0.875V56.105z"/>
		<path style="fill:#F0F1F1;" d="M41.125,49.98h-5.25c-0.483,0-0.875,0.392-0.875,0.875v5.25c0,0.287,0.147,0.529,0.36,0.689
			l6.454-6.454C41.654,50.127,41.412,49.98,41.125,49.98z"/>
		<path style="fill:#17B198;" d="M75,32.98v8c0,2.21-1.79,4-4,4H39c-2.21,0-4-1.79-4-4v-8c0-2.21,1.79-4,4-4h32
			C73.21,28.98,75,30.77,75,32.98z"/>
		<path style="fill:#4AC3AF;" d="M39,28.98c-2.21,0-4,1.79-4,4v8c0,2.21,1.79,4,4,4h8.174l16-16H39z"/>
	</g>
</g>
</svg>
