<?xml version="1.0" encoding="iso-8859-1"?>
<!-- Generator: Adobe Illustrator 17.1.0, SVG Export Plug-In . SVG Version: 6.00 Build 0)  -->
<!DOCTYPE svg PUBLIC "-//W3C//DTD SVG 1.0//EN" "http://www.w3.org/TR/2001/REC-SVG-20010904/DTD/svg10.dtd">
<svg version="1.0" xmlns="http://www.w3.org/2000/svg" xmlns:xlink="http://www.w3.org/1999/xlink" x="0px" y="0px" width="110px"
	 height="110px" viewBox="0 0 110 110" style="enable-background:new 0 0 110 110;" xml:space="preserve">
<g id="Artboard">
</g>
<g id="Multicolor">
	<circle style="fill:#FABC3D;" cx="55" cy="55" r="55"/>
	<g>
		<path style="fill:#84462D;" d="M87,84c0,1.65-1.35,3-3,3H26c-1.65,0-3-1.35-3-3V26c0-1.65,1.35-3,3-3h58c1.65,0,3,1.35,3,3V84z"/>
		<rect x="31" y="31" style="fill:#F0F1F1;" width="48" height="48"/>
		<polygon style="fill:#FFFFFF;" points="83,73 27,73 31,55 79,55 		"/>
		<path style="fill:#DF2C2C;" d="M48.154,55c-0.014,0-0.009-12.628-0.009-12.642c0-1.42-1.149-2.57-2.57-2.57
			c-0.859,0-1.664,0.209-2.502,0.44l-3.348,0.98C38.676,41.513,38,42.392,38,43.44c0,1.232,1.115,2.614,3.179,2.096l1.826-0.473
			c0,0.014-0.005,9.937,0.009,9.937c-0.239,2.99-0.357,4.486-0.597,7.476c-0.133,1.652,1.285,3.072,3.166,3.072
			c1.882,0,3.3-1.42,3.168-3.072C48.513,59.486,48.395,57.99,48.154,55z"/>
		<g>
			<path style="fill:#FA5655;" d="M45.583,65.548c1.882,0,3.3-1.42,3.168-3.072c-0.238-2.99-0.356-4.486-0.597-7.476
				c-2.058,0-3.098,0-5.14,0c-0.239,2.99-0.358,4.486-0.597,7.476C42.284,64.128,43.702,65.548,45.583,65.548z"/>
		</g>
		<path style="fill:#DF2C2C;" d="M68.281,59.985c-3.785,0.049-4.677,0.057-8.461,0.047c1.835-1.389,2.669-2.089,4.169-3.484
			C64.03,56.512,65.693,55,65.637,55c3.158-2.602,4.563-4.505,4.563-7.908c0-4.43-3.246-7.304-8.149-7.304
			c-3.584,0-5.817,1.285-7.71,3.483c-0.372,0.44-0.608,1.048-0.608,1.624c0,1.319,1.048,2.367,2.367,2.367
			c0.812,0,1.42-0.372,1.758-0.744c1.319-1.42,2.367-2.063,3.855-2.063c1.86,0,3.178,1.082,3.178,3.078
			c0,1.961-4.092,5.681-4.092,5.681S58.641,55,58.575,55c-5.325,4.75-6.427,5.576-6.913,7.279c-0.511,1.79,0.741,2.89,2.869,2.936
			c5.616,0.122,9.236,0.115,14.852-0.014c1.641-0.038,2.238-1.138,2.238-2.649C71.622,61.055,69.716,59.967,68.281,59.985z"/>
		<g>
			<path style="fill:#FA5655;" d="M51.662,62.279c-0.511,1.789,0.741,2.89,2.869,2.936c5.616,0.122,9.236,0.115,14.852-0.015
				c1.64-0.038,2.238-1.138,2.238-2.649c0-1.497-1.906-2.585-3.34-2.566c-3.785,0.049-4.677,0.057-8.461,0.047
				c2.533-1.916,4.82-4.032,5.82-5.032c-2.779,0-4.287,0-7.066,0C53.25,59.75,52.149,60.576,51.662,62.279z"/>
		</g>
		<path style="fill:#3E3E3F;" d="M35,51c-0.552,0-1,0.448-1,1v3v3c0,0.552,0.448,1,1,1s1-0.448,1-1v-3v-3C36,51.448,35.552,51,35,51
			z"/>
		<path style="fill:#5B5C5F;" d="M36,52c0-0.552-0.448-1-1-1s-1,0.448-1,1v3h2V52z"/>
		<path style="fill:#3E3E3F;" d="M75,51c-0.552,0-1,0.448-1,1v3v3c0,0.552,0.448,1,1,1s1-0.448,1-1v-3v-3C76,51.448,75.552,51,75,51
			z"/>
		<path style="fill:#5B5C5F;" d="M76,52c0-0.552-0.448-1-1-1s-1,0.448-1,1v3h2V52z"/>
	</g>
</g>
</svg>
