<?xml version="1.0" encoding="iso-8859-1"?>
<!-- Generator: Adobe Illustrator 17.1.0, SVG Export Plug-In . SVG Version: 6.00 Build 0)  -->
<!DOCTYPE svg PUBLIC "-//W3C//DTD SVG 1.0//EN" "http://www.w3.org/TR/2001/REC-SVG-20010904/DTD/svg10.dtd">
<svg version="1.0" xmlns="http://www.w3.org/2000/svg" xmlns:xlink="http://www.w3.org/1999/xlink" x="0px" y="0px" width="110px"
	 height="110px" viewBox="0 0 110 110" style="enable-background:new 0 0 110 110;" xml:space="preserve">
<g id="Artboard">
</g>
<g id="Multicolor">
	<circle style="fill:#FABC3D;" cx="55" cy="55" r="55"/>
	<g>
		<path style="fill:#DF2C2C;" d="M87,39H23v-6c0-3.314,2.686-6,6-6h52c3.314,0,6,2.686,6,6V39z"/>
		<path style="fill:#FA5655;" d="M52.452,27H29c-3.313,0-6,2.687-6,6v6h17.452L52.452,27z"/>
		<path style="fill:#FFFFFF;" d="M87,81c0,3.314-2.686,6-6,6H29c-3.314,0-6-2.686-6-6V39h64V81z"/>
		<rect x="45" y="47" style="fill:#40C9E7;" width="10" height="9"/>
		<rect x="44" y="58" style="fill:#C9F2F8;" width="10" height="9"/>
		<rect x="56" y="58" style="fill:#C9F2F8;" width="10" height="9"/>
		<rect x="31" y="47" style="fill:#C9F2F8;" width="11" height="9"/>
		<rect x="56" y="47" style="fill:#C9F2F8;" width="10" height="9"/>
		<rect x="56" y="69" style="fill:#40C9E7;" width="10" height="10"/>
		<rect x="68" y="58" style="fill:#C9F2F8;" width="10" height="9"/>
		<rect x="68" y="47" style="fill:#C9F2F8;" width="10" height="9"/>
		<rect x="68" y="69" style="fill:#C9F2F8;" width="10" height="10"/>
		<rect x="31" y="58" style="fill:#C9F2F8;" width="11" height="9"/>
		<rect x="31" y="69" style="fill:#C9F2F8;" width="11" height="10"/>
		<rect x="44" y="69" style="fill:#C9F2F8;" width="10" height="10"/>
		<path style="fill:#3E3E3F;" d="M37,32c0,1.65-1.35,3-3,3l0,0c-1.65,0-3-1.35-3-3v-6c0-1.65,1.35-3,3-3l0,0c1.65,0,3,1.35,3,3V32z"
			/>
		<path style="fill:#3E3E3F;" d="M79,32c0,1.65-1.35,3-3,3l0,0c-1.65,0-3-1.35-3-3v-6c0-1.65,1.35-3,3-3l0,0c1.65,0,3,1.35,3,3V32z"
			/>
		<path style="fill:#3E3E3F;" d="M58,32c0,1.65-1.35,3-3,3l0,0c-1.65,0-3-1.35-3-3v-6c0-1.65,1.35-3,3-3l0,0c1.65,0,3,1.35,3,3V32z"
			/>
	</g>
</g>
</svg>
