<?xml version="1.0" encoding="iso-8859-1"?>
<!-- Generator: Adobe Illustrator 17.1.0, SVG Export Plug-In . SVG Version: 6.00 Build 0)  -->
<!DOCTYPE svg PUBLIC "-//W3C//DTD SVG 1.0//EN" "http://www.w3.org/TR/2001/REC-SVG-20010904/DTD/svg10.dtd">
<svg version="1.0" xmlns="http://www.w3.org/2000/svg" xmlns:xlink="http://www.w3.org/1999/xlink" x="0px" y="0px" width="110px"
	 height="110px" viewBox="0 0 110 110" style="enable-background:new 0 0 110 110;" xml:space="preserve">
<g id="Artboard">
</g>
<g id="Multicolor">
	<circle style="fill:#25B7D3;" cx="55" cy="55" r="55"/>
	<g>
		<g>
			<path style="fill:#FFFFFF;" d="M87,81c0,3.314-2.686,6-6,6H29c-3.314,0-6-2.686-6-6V39h64V81z"/>
		</g>
		<g>
			<path style="fill:#DF2C2C;" d="M87,39H23v-6c0-3.314,2.686-6,6-6h52c3.314,0,6,2.686,6,6V39z"/>
		</g>
		<g>
			<path style="fill:#FA5655;" d="M54.402,27H29c-3.313,0-6,2.687-6,6v6h19.402L54.402,27z"/>
		</g>
		<g>
			<g>
				<path style="fill:#3E3E3F;" d="M37,32c0,1.65-1.35,3-3,3l0,0c-1.65,0-3-1.35-3-3v-6c0-1.65,1.35-3,3-3l0,0c1.65,0,3,1.35,3,3V32
					z"/>
			</g>
			<g>
				<path style="fill:#5B5C5F;" d="M34,23c-1.65,0-3,1.35-3,3v6c0,1.65,1.35,3,3,3V23z"/>
			</g>
		</g>
		<g>
			<g>
				<path style="fill:#3E3E3F;" d="M79,32c0,1.65-1.35,3-3,3l0,0c-1.65,0-3-1.35-3-3v-6c0-1.65,1.35-3,3-3l0,0c1.65,0,3,1.35,3,3V32
					z"/>
			</g>
			<g>
				<path style="fill:#5B5C5F;" d="M76,23c-1.65,0-3,1.35-3,3v6c0,1.65,1.35,3,3,3V23z"/>
			</g>
		</g>
		<g>
			<g>
				<path style="fill:#3E3E3F;" d="M58,32c0,1.65-1.35,3-3,3l0,0c-1.65,0-3-1.35-3-3v-6c0-1.65,1.35-3,3-3l0,0c1.65,0,3,1.35,3,3V32
					z"/>
			</g>
			<g>
				<path style="fill:#5B5C5F;" d="M55,23c-1.65,0-3,1.35-3,3v6c0,1.65,1.35,3,3,3V23z"/>
			</g>
		</g>
		<path style="fill:#FACB1B;" d="M62.919,59.5H63l-3-3H50l-3,3h0.081C44.584,61.699,43,64.911,43,68.5c0,6.627,5.373,12,12,12
			s12-5.373,12-12C67,64.911,65.416,61.699,62.919,59.5z M55,77.5c-4.962,0-9-4.038-9-9s4.038-9,9-9s9,4.038,9,9
			S59.962,77.5,55,77.5z"/>
		<g>
			<g>
				<polygon style="fill:#FA5655;" points="64.99,49.003 59.993,44.006 54.995,49.003 				"/>
			</g>
			<g>
				<polygon style="fill:#FA5655;" points="49.997,44.006 45,49.003 54.995,49.003 				"/>
			</g>
			<g>
				<polygon style="fill:#DF2C2C;" points="45,49.003 49.997,56.5 54.995,49.003 				"/>
			</g>
			<g>
				<polygon style="fill:#DF2C2C;" points="59.993,56.5 64.99,49.003 54.995,49.003 				"/>
			</g>
			<g>
				<polygon style="fill:#F79392;" points="59.993,44.006 49.997,44.006 54.995,49.003 				"/>
			</g>
			<g>
				<polygon style="fill:#FA5655;" points="59.993,56.5 54.995,49.003 49.997,56.5 				"/>
			</g>
		</g>
	</g>
</g>
</svg>
