<?xml version="1.0" encoding="iso-8859-1"?>
<!-- Generator: Adobe Illustrator 17.1.0, SVG Export Plug-In . SVG Version: 6.00 Build 0)  -->
<!DOCTYPE svg PUBLIC "-//W3C//DTD SVG 1.0//EN" "http://www.w3.org/TR/2001/REC-SVG-20010904/DTD/svg10.dtd">
<svg version="1.0" xmlns="http://www.w3.org/2000/svg" xmlns:xlink="http://www.w3.org/1999/xlink" x="0px" y="0px" width="110px"
	 height="110px" viewBox="0 0 110 110" style="enable-background:new 0 0 110 110;" xml:space="preserve">
<g id="Artboard">
</g>
<g id="Multicolor">
	<circle style="fill:#E04F5F;" cx="55" cy="55" r="55"/>
	<g>
		<path style="fill:#3E3E3F;" d="M51.272,42.286L42.714,40H38h-4.714l-8.558,2.286C23.659,42.896,23,44.032,23,45.263L24,62h5
			l2,23.875c2.139,0.713,4.561,1.079,7,1.125c2.439-0.046,4.861-0.412,7-1.125L47,62h5l1-16.737
			C53,44.032,52.341,42.896,51.272,42.286z"/>
		<path style="fill:#F7B4B4;" d="M46,31c0-4.418-3.582-8-8-8s-8,3.582-8,8c0,2.525,1.173,4.773,3,6.24V40l5,5l5-5v-2.76
			C44.827,35.773,46,33.525,46,31z"/>
		<path style="fill:#FBC8C8;" d="M37.833,44.833V23.008C33.493,23.098,30,26.638,30,31c0,2.525,1.173,4.773,3,6.24V40L37.833,44.833
			z"/>
		<polygon style="fill:#CFD3D4;" points="78,43 83,47 83,31 78,35 70,35 70,43 		"/>
		<rect x="83" y="31" style="fill:#FFFFFF;" width="4" height="16"/>
		<polygon style="fill:#E2E4E5;" points="70,35 70,39 83,39 83,31 78,35 		"/>
		<path style="fill:#3E3E3F;" d="M70,35v-2c0-1.104-0.896-2-2-2h-8c-1.104,0-2,0.896-2,2v11c0,1.104,0.896,2,2,2h8
			c1.104,0,2-0.896,2-2v-1V35z"/>
		<path style="fill:#F0F1F1;" d="M76.935,84.444L68,63h-2V46h-4v17h-2l-8.935,21.444c-0.238,0.57-0.175,1.22,0.168,1.734
			S52.152,87,52.769,87c0.745,0,1.417-0.448,1.704-1.136L62,67.8V85c0,1.104,0.896,2,2,2s2-0.896,2-2V67.8l7.527,18.064
			C73.813,86.552,74.485,87,75.231,87c0.617,0,1.194-0.309,1.536-0.822C77.109,85.664,77.172,85.014,76.935,84.444z"/>
		<rect x="59" y="59" style="fill:#CFD3D4;" width="10" height="4"/>
		<path style="fill:#F7B4B4;" d="M24,62h6v6C26.667,68,24.667,66,24,62z"/>
		<path style="fill:#F7B4B4;" d="M52,62h-6v6C49.333,68,51.333,66,52,62z"/>
		<path style="fill:#E2E4E5;" d="M65,31h-3c-0.552,0-1-0.448-1-1s0.448-1,1-1h1C64.105,29,65,29.895,65,31z"/>
		<rect x="83" y="31" style="fill:#FFFFFF;" width="4" height="8"/>
		<path style="fill:#692E19;" d="M45.973,30.547C44.507,30.84,42.947,31,41.333,31c-4.146,0-7.947-1.027-10.854-2.733
			C31.6,25.2,34.547,23,38,23C42.253,23,45.747,26.347,45.973,30.547z"/>
		<rect x="73" y="35" style="fill:#E2E4E5;" width="5" height="8"/>
		<rect x="73" y="35" style="fill:#FFFFFF;" width="5" height="4"/>
		<path style="fill:#0484AB;" d="M45,85.875L47,62H29l2,23.875c2.139,0.713,4.561,1.079,7,1.125
			C40.439,86.954,42.861,86.588,45,85.875z"/>
		<path style="fill:#5B5C5F;" d="M67,41c0,1.105-0.895,2-2,2h-2v-8h2c1.105,0,2,0.895,2,2V41z"/>
		<path style="fill:#84462D;" d="M37.833,23.013c-3.38,0.071-6.252,2.237-7.354,5.253c2.064,1.212,4.584,2.072,7.354,2.474V23.013z"
			/>
		<path style="fill:#059BBF;" d="M37.667,62H29l2,23.875c2.041,0.68,4.341,1.035,6.667,1.107V62z"/>
	</g>
</g>
</svg>
