<?xml version="1.0" encoding="iso-8859-1"?>
<!-- Generator: Adobe Illustrator 17.1.0, SVG Export Plug-In . SVG Version: 6.00 Build 0)  -->
<!DOCTYPE svg PUBLIC "-//W3C//DTD SVG 1.0//EN" "http://www.w3.org/TR/2001/REC-SVG-20010904/DTD/svg10.dtd">
<svg version="1.0" xmlns="http://www.w3.org/2000/svg" xmlns:xlink="http://www.w3.org/1999/xlink" x="0px" y="0px" width="110px"
	 height="110px" viewBox="0 0 110 110" style="enable-background:new 0 0 110 110;" xml:space="preserve">
<g id="Artboard">
</g>
<g id="Multicolor">
	<circle style="fill:#32BEA6;" cx="55" cy="55" r="55"/>
	<g>
		<path style="fill:#FACB1B;" d="M77,23H33c-5.523,0-10,4.477-10,10v14v8v22c0,5.523,4.477,10,10,10h44c5.523,0,10-4.477,10-10V55
			v-8V33C87,27.477,82.523,23,77,23z"/>
		<path style="fill:#F0F1F1;" d="M23,77c0,5.523,4.477,10,10,10h44c5.523,0,10-4.477,10-10V55H23V77z"/>
		<path style="fill:#84462D;" d="M77,23H33c-5.523,0-10,4.477-10,10v14h64V33C87,27.477,82.523,23,77,23z"/>
		<circle style="fill:#6FDAF1;" cx="77.5" cy="32.5" r="4.5"/>
		<path style="fill:#CFD3D4;" d="M65.306,72.117C62.293,73.935,58.775,75,55,75s-7.293-1.065-10.306-2.883L33,87h44L65.306,72.117z"
			/>
		<circle style="fill:#FFFFFF;" cx="55" cy="55" r="20"/>
		<circle style="fill:#3E3E3F;" cx="55" cy="55" r="16"/>
		<circle style="fill:#F0F1F1;" cx="45.667" cy="78.333" r="1.333"/>
		<circle style="fill:#F0F1F1;" cx="55" cy="78.333" r="1.333"/>
		<circle style="fill:#F0F1F1;" cx="49.667" cy="82.333" r="1.333"/>
		<circle style="fill:#F0F1F1;" cx="60.333" cy="82.333" r="1.333"/>
		<circle style="fill:#F0F1F1;" cx="64.333" cy="78.333" r="1.333"/>
		<path style="fill:#5B5C5F;" d="M55,39c-8.836,0-16,7.164-16,16c0,4.429,1.8,8.437,4.708,11.333l22.625-22.625
			C63.437,40.8,59.429,39,55,39z"/>
		<path style="fill:#9CE5F4;" d="M77.5,28c-2.485,0-4.5,2.015-4.5,4.5c0,1.354,0.61,2.554,1.556,3.379l6.322-6.322
			C80.054,28.61,78.854,28,77.5,28z"/>
	</g>
</g>
</svg>
