<?xml version="1.0" encoding="iso-8859-1"?>
<!-- Generator: Adobe Illustrator 17.1.0, SVG Export Plug-In . SVG Version: 6.00 Build 0)  -->
<!DOCTYPE svg PUBLIC "-//W3C//DTD SVG 1.0//EN" "http://www.w3.org/TR/2001/REC-SVG-20010904/DTD/svg10.dtd">
<svg version="1.0" xmlns="http://www.w3.org/2000/svg" xmlns:xlink="http://www.w3.org/1999/xlink" x="0px" y="0px" width="110px"
	 height="110px" viewBox="0 0 110 110" style="enable-background:new 0 0 110 110;" xml:space="preserve">
<g id="Artboard">
</g>
<g id="Multicolor">
	<circle style="fill:#25B7D3;" cx="55" cy="55" r="55"/>
	<g>
		<g>
			<path style="fill:#F0F1F1;" d="M42.928,30.653c0.178-0.435,0.602-0.72,1.072-0.72s0.894,0.284,1.072,0.72l19.125,46.75
				c0.146,0.357,0.105,0.764-0.11,1.084C63.872,78.808,63.511,79,63.125,79h-38.25c-0.386,0-0.747-0.192-0.962-0.513
				c-0.215-0.32-0.257-0.727-0.11-1.084L42.928,30.653z"/>
		</g>
		<g>
			<path style="fill:#FBE158;" d="M77.596,40.761c-3.091,0-5.597-2.506-5.597-5.597c0-3.091,2.506-5.597,5.597-5.597
				c0.382,0,0.754,0.039,1.114,0.113c-1.422-1.45-3.401-2.351-5.592-2.351c-4.327,0-7.836,3.508-7.836,7.836S68.791,43,73.119,43
				c2.191,0,4.169-0.901,5.591-2.351C78.35,40.722,77.978,40.761,77.596,40.761z"/>
		</g>
		<g>
			<path style="fill:#FFFFFF;" d="M44.012,29.935c-0.004,0-0.008-0.002-0.012-0.002c-0.47,0-0.894,0.284-1.072,0.72l-19.125,46.75
				c-0.146,0.357-0.105,0.764,0.11,1.084S24.489,79,24.875,79h19.137V29.935z"/>
		</g>
		<g>
			<path style="fill:#3E3E3F;" d="M49.122,71.411c0-2.794-2.265-5.059-5.059-5.059s-5.059,2.265-5.059,5.059V79h10.119V71.411z"/>
		</g>
		<g>
			<g>
				<path style="fill:#84462D;" d="M86.283,77.273c0-0.367-0.155-0.717-0.428-0.964s-0.636-0.366-1.002-0.33l-11.571,1.157
					l-11.571-1.157c-0.365-0.037-0.729,0.083-1.002,0.33s-0.428,0.597-0.428,0.964v2.265c0,0.377,0.164,0.735,0.448,0.982
					s0.663,0.358,1.036,0.305l7.616-1.088l-2.725,3.634c-0.261,0.348-0.331,0.805-0.185,1.215c0.146,0.41,0.487,0.721,0.91,0.826
					l2.2,0.55c0.631,0.158,1.281-0.175,1.522-0.778l2.179-5.446l2.179,5.446c0.241,0.604,0.892,0.936,1.522,0.778l2.2-0.55
					c0.423-0.106,0.764-0.416,0.91-0.826c0.146-0.41,0.076-0.867-0.185-1.215l-2.725-3.634l7.616,1.088
					c0.373,0.053,0.751-0.058,1.036-0.305s0.448-0.605,0.448-0.982V77.273z"/>
			</g>
			<g>
				<path style="fill:#F37A10;" d="M73.283,78.436c-2.009,0-6.749-1.381-6.749-6.906c0-5.525,8.036-8.287,6.027-15.194
					c3.014,2.763,4.018,9.669,3.014,11.05c2.009-1.381,2.009-5.525,2.009-6.906c1.005,1.381,4.52,6.216,1.005,11.05
					c1.005,0,3.014-2.762,3.014-2.762C82.607,70.149,83.106,78.436,73.283,78.436z"/>
			</g>
			<g>
				<path style="fill:#FACB1B;" d="M73.795,77.136c1.076,0,2.896-0.739,2.896-3.196c0-2.457-2.896-2.956-2.896-5.904
					C70.847,69.019,68.595,77.136,73.795,77.136z"/>
			</g>
		</g>
		<g>
			<path style="fill:#F37A10;" d="M75.575,67.386c1.005-1.381,0-8.287-3.014-11.05c2.009,6.906-6.027,9.669-6.027,15.194
				c0,2.275,0.808,3.838,1.894,4.901l11.424-11.424c-0.532-2.125-1.742-3.803-2.268-4.527
				C77.584,61.861,77.584,66.005,75.575,67.386z"/>
		</g>
		<g>
			<path style="fill:#FBE158;" d="M73.795,68.036c-1.754,0.585-3.248,3.69-3.086,6.114l3.841-3.841
				C74.124,69.71,73.795,69.013,73.795,68.036z"/>
		</g>
		<g>
			<polygon style="fill:#DF2C2C;" points="34.996,50.041 53.004,50.041 51.582,46.566 36.418,46.566 			"/>
		</g>
		<g>
			<polygon style="fill:#FA5655;" points="44.012,46.566 36.418,46.566 35.992,47.608 34.997,50.041 44.012,50.041 			"/>
		</g>
	</g>
</g>
</svg>
