<?xml version="1.0" encoding="iso-8859-1"?>
<!-- Generator: Adobe Illustrator 17.1.0, SVG Export Plug-In . SVG Version: 6.00 Build 0)  -->
<!DOCTYPE svg PUBLIC "-//W3C//DTD SVG 1.0//EN" "http://www.w3.org/TR/2001/REC-SVG-20010904/DTD/svg10.dtd">
<svg version="1.0" xmlns="http://www.w3.org/2000/svg" xmlns:xlink="http://www.w3.org/1999/xlink" x="0px" y="0px" width="110px"
	 height="110px" viewBox="0 0 110 110" style="enable-background:new 0 0 110 110;" xml:space="preserve">
<g id="Artboard" style="display:none;">
	
		<rect x="-584.5" y="-290.5" style="display:inline;fill:#808080;stroke:#000000;stroke-miterlimit:10;" width="1392" height="1369"/>
</g>
<g id="R-Multicolor">
	<circle style="fill:#FABC3D;" cx="55" cy="55" r="55"/>
	<g>
		<g>
			<path style="fill:#FBD7D7;" d="M82.939,34.32c-0.02-0.02-0.042-0.036-0.062-0.056c0.006-0.007,0.012-0.015,0.018-0.022
				c-5.133-5.046-13.844-5.416-19.351,0.106c-29.559,29.643-40.58,40.697-40.58,40.697c4.283,4.271,2.322,2.316,6.474,6.456
				c0,0,21.69-21.776,40.671-40.678c1.73-1.716,4.583-1.813,6.374-0.028c1.789,1.784,1.793,4.676,0.009,6.465l-6.456,6.474
				l6.474,6.456c3.147-3.156,5.852-5.761,6.502-6.41C88.348,48.484,88.293,39.657,82.939,34.32z"/>
		</g>
		<g>
			<path style="fill:#FFFFFF;" d="M63.545,34.347c-29.559,29.644-40.58,40.697-40.58,40.697c2.077,2.072,2.685,2.678,3.235,3.226
				l47.897-47.896C70.353,30.14,66.491,31.393,63.545,34.347z"/>
		</g>
		<g>
			<path style="fill:#BF0302;" d="M38.985,66.811c0,1.63,0.1,3.24,0.31,4.82c-1.96,1.96-3.7,3.7-5.15,5.15
				c-0.76-3.2-1.16-6.54-1.16-9.97c0-0.62,0.01-1.24,0.04-1.86c2.01-2.01,4.35-4.35,7.03-7.05
				C39.355,60.761,38.985,63.741,38.985,66.811z"/>
		</g>
		<g>
			<path style="fill:#BF0302;" d="M51.985,55.811c0,1,0.05,1.98,0.16,2.95c-1.79,1.79-3.52,3.52-5.18,5.19
				c-0.64-2.61-0.98-5.34-0.98-8.14c0-1.39,0.08-2.76,0.25-4.1c2.71-2.72,5.69-5.71,8.95-8.99
				C53.134,46.641,51.985,51.091,51.985,55.811z"/>
		</g>
		<g>
			<path style="fill:#BF0302;" d="M73.975,30.341c-4.04,3.22-6.71,8.09-6.97,13.58c-1.85,1.85-3.72,3.71-5.57,5.56
				c-0.3-1.51-0.45-3.07-0.45-4.67c0-3.6,0.78-7.01,2.19-10.09c0.12-0.13,0.25-0.26,0.38-0.39
				C66.465,31.411,70.275,30.141,73.975,30.341z"/>
		</g>
		<g>
			<path style="fill:#BF0302;" d="M86.505,47.761c-1.29-0.3-2.64-0.45-4.02-0.45c-2.77,0-5.4,0.61-7.76,1.72l1.78-1.79
				c1.46-1.45,1.72-3.65,0.8-5.37c1.67-0.37,3.4-0.56,5.18-0.56c1.47,0,2.91,0.13,4.3,0.38
				C87.145,43.701,87.055,45.781,86.505,47.761z"/>
		</g>
		<g>
			<path style="fill:#DF2C2C;" d="M70.638,33.831c0.964-1.298,2.073-2.482,3.337-3.49c-3.7-0.2-7.51,1.07-10.42,3.99
				c-0.13,0.13-0.26,0.26-0.38,0.39c-1.23,2.688-1.98,5.627-2.152,8.724L70.638,33.831z"/>
		</g>
		<g>
			<path style="fill:#DF2C2C;" d="M46.235,51.711c-0.17,1.34-0.25,2.71-0.25,4.1c0,0.864,0.043,1.717,0.107,2.566l6.115-6.115
				c0.425-3.403,1.45-6.619,2.978-9.541C51.925,46.001,48.945,48.991,46.235,51.711z"/>
		</g>
		<g>
			<path style="fill:#DF2C2C;" d="M33.025,64.951c-0.03,0.62-0.04,1.24-0.04,1.86c0,1.498,0.09,2.974,0.239,4.434l5.802-5.802
				c0.094-2.587,0.434-5.11,1.029-7.541C37.375,60.601,35.035,62.941,33.025,64.951z"/>
		</g>
	</g>
</g>
<g id="Multicolor" style="display:none;">
	<g style="display:inline;">
		<g>
			<path style="fill:#FBD7D7;" d="M82.939,34.32c-0.02-0.02-0.042-0.036-0.062-0.056c0.006-0.007,0.012-0.015,0.018-0.022
				c-5.133-5.046-13.844-5.416-19.351,0.106c-29.559,29.643-40.58,40.697-40.58,40.697c4.283,4.271,2.322,2.316,6.474,6.456
				c0,0,21.69-21.776,40.671-40.678c1.73-1.716,4.583-1.813,6.374-0.028c1.789,1.784,1.793,4.676,0.009,6.465l-6.456,6.474
				l6.474,6.456c3.147-3.156,5.852-5.761,6.502-6.41C88.348,48.484,88.293,39.657,82.939,34.32z"/>
		</g>
		<g>
			<path style="fill:#FFFFFF;" d="M63.545,34.347c-29.559,29.644-40.58,40.697-40.58,40.697c2.077,2.072,2.685,2.678,3.235,3.226
				l47.897-47.896C70.353,30.14,66.491,31.393,63.545,34.347z"/>
		</g>
		<g>
			<path style="fill:#BF0302;" d="M38.985,66.811c0,1.63,0.1,3.24,0.31,4.82c-1.96,1.96-3.7,3.7-5.15,5.15
				c-0.76-3.2-1.16-6.54-1.16-9.97c0-0.62,0.01-1.24,0.04-1.86c2.01-2.01,4.35-4.35,7.03-7.05
				C39.355,60.761,38.985,63.741,38.985,66.811z"/>
		</g>
		<g>
			<path style="fill:#BF0302;" d="M51.985,55.811c0,1,0.05,1.98,0.16,2.95c-1.79,1.79-3.52,3.52-5.18,5.19
				c-0.64-2.61-0.98-5.34-0.98-8.14c0-1.39,0.08-2.76,0.25-4.1c2.71-2.72,5.69-5.71,8.95-8.99
				C53.134,46.641,51.985,51.091,51.985,55.811z"/>
		</g>
		<g>
			<path style="fill:#BF0302;" d="M73.975,30.341c-4.04,3.22-6.71,8.09-6.97,13.58c-1.85,1.85-3.72,3.71-5.57,5.56
				c-0.3-1.51-0.45-3.07-0.45-4.67c0-3.6,0.78-7.01,2.19-10.09c0.12-0.13,0.25-0.26,0.38-0.39
				C66.465,31.411,70.275,30.141,73.975,30.341z"/>
		</g>
		<g>
			<path style="fill:#BF0302;" d="M86.505,47.761c-1.29-0.3-2.64-0.45-4.02-0.45c-2.77,0-5.4,0.61-7.76,1.72l1.78-1.79
				c1.46-1.45,1.72-3.65,0.8-5.37c1.67-0.37,3.4-0.56,5.18-0.56c1.47,0,2.91,0.13,4.3,0.38
				C87.145,43.701,87.055,45.781,86.505,47.761z"/>
		</g>
		<g>
			<path style="fill:#DF2C2C;" d="M70.638,33.831c0.964-1.298,2.073-2.482,3.337-3.49c-3.7-0.2-7.51,1.07-10.42,3.99
				c-0.13,0.13-0.26,0.26-0.38,0.39c-1.23,2.688-1.98,5.627-2.152,8.724L70.638,33.831z"/>
		</g>
		<g>
			<path style="fill:#DF2C2C;" d="M46.235,51.711c-0.17,1.34-0.25,2.71-0.25,4.1c0,0.864,0.043,1.717,0.107,2.566l6.115-6.115
				c0.425-3.403,1.45-6.619,2.978-9.541C51.925,46.001,48.945,48.991,46.235,51.711z"/>
		</g>
		<g>
			<path style="fill:#DF2C2C;" d="M33.025,64.951c-0.03,0.62-0.04,1.24-0.04,1.86c0,1.498,0.09,2.974,0.239,4.434l5.802-5.802
				c0.094-2.587,0.434-5.11,1.029-7.541C37.375,60.601,35.035,62.941,33.025,64.951z"/>
		</g>
	</g>
</g>
<g id="Blue" style="display:none;">
	<g style="display:inline;">
		<g>
			<path style="fill:#E1F5FA;" d="M82.939,34.32c-0.021-0.02-0.043-0.036-0.062-0.056c0.006-0.007,0.012-0.015,0.018-0.022
				c-5.133-5.046-13.844-5.416-19.35,0.106C33.985,63.991,22.964,75.044,22.964,75.044c4.283,4.271,2.323,2.316,6.475,6.456
				c0,0,21.69-21.776,40.671-40.678c1.73-1.715,4.583-1.812,6.374-0.028c1.789,1.784,1.794,4.676,0.01,6.465l-6.456,6.475
				l6.475,6.456c3.146-3.156,5.852-5.762,6.501-6.41C88.348,48.484,88.293,39.658,82.939,34.32z"/>
		</g>
		<g>
			<path style="fill:#FFFFFF;" d="M63.545,34.348C33.985,63.991,22.964,75.044,22.964,75.044c2.077,2.072,2.685,2.678,3.235,3.226
				l47.896-47.897C70.354,30.14,66.49,31.393,63.545,34.348z"/>
		</g>
		<g>
			<path style="fill:#0081A1;" d="M38.984,66.812c0,1.63,0.101,3.24,0.31,4.82c-1.96,1.96-3.7,3.7-5.15,5.15
				c-0.76-3.2-1.16-6.54-1.16-9.97c0-0.62,0.01-1.24,0.04-1.86c2.011-2.01,4.351-4.35,7.03-7.05
				C39.354,60.761,38.984,63.741,38.984,66.812z"/>
		</g>
		<g>
			<path style="fill:#0081A1;" d="M51.984,55.812c0,1,0.051,1.98,0.16,2.95c-1.79,1.79-3.52,3.52-5.18,5.191
				c-0.641-2.61-0.98-5.34-0.98-8.14c0-1.39,0.08-2.76,0.25-4.1c2.71-2.72,5.69-5.71,8.95-8.99
				C53.135,46.642,51.984,51.091,51.984,55.812z"/>
		</g>
		<g>
			<path style="fill:#0081A1;" d="M73.975,30.341c-4.04,3.22-6.71,8.09-6.97,13.58c-1.851,1.85-3.72,3.71-5.57,5.56
				c-0.3-1.51-0.45-3.07-0.45-4.67c0-3.6,0.78-7.01,2.19-10.09c0.12-0.13,0.25-0.26,0.38-0.39
				C66.465,31.412,70.274,30.142,73.975,30.341z"/>
		</g>
		<g>
			<path style="fill:#0081A1;" d="M86.505,47.761c-1.29-0.3-2.641-0.45-4.021-0.45c-2.77,0-5.399,0.61-7.76,1.72l1.78-1.79
				c1.46-1.45,1.72-3.65,0.8-5.37c1.67-0.37,3.4-0.56,5.18-0.56c1.471,0,2.91,0.13,4.301,0.38
				C87.145,43.702,87.055,45.781,86.505,47.761z"/>
		</g>
		<g>
			<path style="fill:#009FC7;" d="M70.638,33.831c0.964-1.298,2.073-2.483,3.337-3.49c-3.7-0.2-7.51,1.07-10.42,3.99
				c-0.13,0.13-0.26,0.26-0.38,0.39c-1.23,2.688-1.98,5.627-2.152,8.725L70.638,33.831z"/>
		</g>
		<g>
			<path style="fill:#009FC7;" d="M46.234,51.711c-0.17,1.34-0.25,2.71-0.25,4.1c0,0.863,0.043,1.717,0.107,2.566l6.114-6.115
				c0.425-3.403,1.45-6.62,2.979-9.542C51.925,46.001,48.944,48.991,46.234,51.711z"/>
		</g>
		<g>
			<path style="fill:#009FC7;" d="M33.024,64.952c-0.03,0.62-0.04,1.24-0.04,1.86c0,1.498,0.09,2.974,0.239,4.434l5.802-5.802
				c0.094-2.587,0.435-5.11,1.029-7.542C37.375,60.602,35.034,62.941,33.024,64.952z"/>
		</g>
	</g>
</g>
<g id="R-Blue" style="display:none;">
	<circle style="display:inline;fill:#81D2EB;" cx="55" cy="55" r="55"/>
	<g style="display:inline;">
		<g>
			<path style="fill:#E1F5FA;" d="M82.939,34.32c-0.021-0.02-0.043-0.036-0.062-0.056c0.006-0.007,0.012-0.015,0.018-0.022
				c-5.133-5.046-13.844-5.416-19.35,0.106C33.985,63.991,22.964,75.044,22.964,75.044c4.283,4.271,2.323,2.316,6.475,6.456
				c0,0,21.69-21.776,40.671-40.678c1.73-1.715,4.583-1.812,6.374-0.028c1.789,1.784,1.794,4.676,0.01,6.465l-6.456,6.475
				l6.475,6.456c3.146-3.156,5.852-5.762,6.501-6.41C88.348,48.484,88.293,39.658,82.939,34.32z"/>
		</g>
		<g>
			<path style="fill:#FFFFFF;" d="M63.545,34.348C33.985,63.991,22.964,75.044,22.964,75.044c2.077,2.072,2.685,2.678,3.235,3.226
				l47.896-47.897C70.354,30.14,66.49,31.393,63.545,34.348z"/>
		</g>
		<g>
			<path style="fill:#0081A1;" d="M38.984,66.811c0,1.63,0.101,3.24,0.31,4.82c-1.96,1.96-3.7,3.7-5.15,5.15
				c-0.76-3.2-1.16-6.54-1.16-9.97c0-0.62,0.01-1.24,0.04-1.86c2.011-2.01,4.351-4.35,7.03-7.05
				C39.354,60.761,38.984,63.741,38.984,66.811z"/>
		</g>
		<g>
			<path style="fill:#0081A1;" d="M51.984,55.811c0,1,0.051,1.98,0.16,2.95c-1.79,1.79-3.52,3.52-5.18,5.191
				c-0.641-2.61-0.98-5.34-0.98-8.14c0-1.39,0.08-2.76,0.25-4.1c2.71-2.72,5.69-5.71,8.95-8.99
				C53.135,46.642,51.984,51.091,51.984,55.811z"/>
		</g>
		<g>
			<path style="fill:#0081A1;" d="M73.975,30.341c-4.04,3.22-6.71,8.09-6.97,13.58c-1.851,1.85-3.72,3.71-5.57,5.56
				c-0.3-1.51-0.45-3.07-0.45-4.67c0-3.6,0.78-7.01,2.19-10.09c0.12-0.13,0.25-0.26,0.38-0.39
				C66.465,31.412,70.274,30.142,73.975,30.341z"/>
		</g>
		<g>
			<path style="fill:#0081A1;" d="M86.505,47.761c-1.29-0.3-2.641-0.45-4.021-0.45c-2.77,0-5.399,0.61-7.76,1.72l1.78-1.79
				c1.46-1.45,1.72-3.65,0.8-5.37c1.67-0.37,3.4-0.56,5.18-0.56c1.471,0,2.91,0.13,4.301,0.38
				C87.145,43.702,87.055,45.781,86.505,47.761z"/>
		</g>
		<g>
			<path style="fill:#009FC7;" d="M70.638,33.831c0.964-1.298,2.073-2.483,3.337-3.49c-3.7-0.2-7.51,1.07-10.42,3.99
				c-0.13,0.13-0.26,0.26-0.38,0.39c-1.23,2.688-1.98,5.627-2.152,8.725L70.638,33.831z"/>
		</g>
		<g>
			<path style="fill:#009FC7;" d="M46.234,51.711c-0.17,1.34-0.25,2.71-0.25,4.1c0,0.863,0.043,1.717,0.107,2.566l6.114-6.115
				c0.425-3.403,1.45-6.62,2.979-9.542C51.925,46.001,48.944,48.991,46.234,51.711z"/>
		</g>
		<g>
			<path style="fill:#009FC7;" d="M33.024,64.952c-0.03,0.62-0.04,1.24-0.04,1.86c0,1.498,0.09,2.974,0.239,4.434l5.802-5.802
				c0.094-2.587,0.435-5.11,1.029-7.541C37.375,60.602,35.034,62.941,33.024,64.952z"/>
		</g>
	</g>
</g>
<g id="Green" style="display:none;">
	<g style="display:inline;">
		<g>
			<path style="fill:#D7FCF9;" d="M82.939,34.32c-0.021-0.02-0.043-0.036-0.062-0.056c0.006-0.007,0.012-0.015,0.017-0.022
				c-5.133-5.046-13.844-5.416-19.35,0.106C33.985,63.991,22.964,75.044,22.964,75.044c4.283,4.271,2.323,2.316,6.475,6.456
				c0,0,21.69-21.776,40.671-40.678c1.73-1.715,4.583-1.812,6.374-0.028c1.789,1.784,1.794,4.676,0.01,6.465l-6.456,6.475
				l6.475,6.456c3.146-3.156,5.852-5.762,6.501-6.41C88.348,48.484,88.293,39.658,82.939,34.32z"/>
		</g>
		<g>
			<path style="fill:#FFFFFF;" d="M63.545,34.348C33.985,63.991,22.964,75.044,22.964,75.044c2.077,2.072,2.685,2.678,3.235,3.226
				l47.896-47.897C70.354,30.14,66.49,31.393,63.545,34.348z"/>
		</g>
		<g>
			<path style="fill:#009687;" d="M38.984,66.812c0,1.63,0.101,3.24,0.31,4.82c-1.96,1.96-3.7,3.7-5.15,5.15
				c-0.76-3.2-1.16-6.54-1.16-9.97c0-0.62,0.01-1.24,0.04-1.86c2.011-2.01,4.351-4.35,7.03-7.05
				C39.354,60.761,38.984,63.741,38.984,66.812z"/>
		</g>
		<g>
			<path style="fill:#009687;" d="M51.984,55.812c0,1,0.051,1.98,0.16,2.95c-1.79,1.79-3.52,3.52-5.18,5.19
				c-0.641-2.61-0.98-5.34-0.98-8.14c0-1.39,0.08-2.76,0.25-4.1c2.71-2.72,5.69-5.71,8.95-8.99
				C53.135,46.642,51.984,51.091,51.984,55.812z"/>
		</g>
		<g>
			<path style="fill:#009687;" d="M73.975,30.341c-4.04,3.22-6.71,8.09-6.97,13.58c-1.851,1.85-3.72,3.71-5.57,5.56
				c-0.3-1.51-0.45-3.07-0.45-4.67c0-3.6,0.78-7.01,2.19-10.09c0.12-0.13,0.25-0.26,0.38-0.39
				C66.465,31.412,70.274,30.142,73.975,30.341z"/>
		</g>
		<g>
			<path style="fill:#009687;" d="M86.505,47.761c-1.29-0.3-2.641-0.45-4.021-0.45c-2.77,0-5.399,0.61-7.76,1.72l1.78-1.79
				c1.46-1.45,1.72-3.65,0.8-5.37c1.67-0.37,3.4-0.56,5.18-0.56c1.471,0,2.91,0.13,4.301,0.38
				C87.144,43.702,87.055,45.781,86.505,47.761z"/>
		</g>
		<g>
			<path style="fill:#00B8A5;" d="M70.638,33.831c0.964-1.298,2.073-2.483,3.337-3.49c-3.7-0.2-7.51,1.07-10.42,3.99
				c-0.13,0.13-0.26,0.26-0.38,0.39c-1.23,2.688-1.98,5.627-2.152,8.725L70.638,33.831z"/>
		</g>
		<g>
			<path style="fill:#00B8A5;" d="M46.234,51.711c-0.17,1.34-0.25,2.71-0.25,4.1c0,0.863,0.043,1.717,0.107,2.566l6.114-6.115
				c0.425-3.403,1.45-6.62,2.979-9.542C51.925,46.001,48.944,48.991,46.234,51.711z"/>
		</g>
		<g>
			<path style="fill:#00B8A5;" d="M33.024,64.952c-0.03,0.62-0.04,1.24-0.04,1.86c0,1.498,0.09,2.974,0.239,4.434l5.802-5.802
				c0.094-2.587,0.435-5.11,1.029-7.542C37.375,60.602,35.034,62.941,33.024,64.952z"/>
		</g>
	</g>
</g>
<g id="R-Green" style="display:none;">
	<circle style="display:inline;fill:#77E0C4;" cx="55" cy="55" r="55"/>
	<g style="display:inline;">
		<g>
			<path style="fill:#D7FCF9;" d="M82.939,34.32c-0.021-0.02-0.043-0.036-0.062-0.056c0.006-0.007,0.012-0.015,0.018-0.022
				c-5.133-5.046-13.844-5.416-19.35,0.106C33.985,63.991,22.964,75.044,22.964,75.044c4.283,4.271,2.323,2.316,6.475,6.456
				c0,0,21.69-21.776,40.671-40.678c1.73-1.715,4.583-1.812,6.374-0.028c1.789,1.784,1.794,4.676,0.01,6.465l-6.456,6.475
				l6.475,6.456c3.146-3.156,5.852-5.762,6.501-6.41C88.348,48.484,88.293,39.658,82.939,34.32z"/>
		</g>
		<g>
			<path style="fill:#FFFFFF;" d="M63.545,34.348C33.985,63.991,22.964,75.044,22.964,75.044c2.077,2.072,2.686,2.678,3.235,3.226
				l47.897-47.897C70.354,30.14,66.49,31.393,63.545,34.348z"/>
		</g>
		<g>
			<path style="fill:#009687;" d="M38.984,66.812c0,1.63,0.101,3.24,0.31,4.82c-1.96,1.96-3.7,3.7-5.15,5.15
				c-0.76-3.2-1.16-6.54-1.16-9.97c0-0.62,0.01-1.24,0.04-1.86c2.011-2.01,4.351-4.35,7.03-7.05
				C39.354,60.761,38.984,63.741,38.984,66.812z"/>
		</g>
		<g>
			<path style="fill:#009687;" d="M51.984,55.812c0,1,0.051,1.98,0.16,2.95c-1.79,1.79-3.52,3.52-5.18,5.191
				c-0.641-2.61-0.98-5.34-0.98-8.14c0-1.39,0.08-2.76,0.25-4.1c2.71-2.72,5.69-5.71,8.95-8.99
				C53.135,46.642,51.984,51.091,51.984,55.812z"/>
		</g>
		<g>
			<path style="fill:#009687;" d="M73.975,30.341c-4.04,3.22-6.71,8.09-6.97,13.58c-1.851,1.85-3.72,3.71-5.57,5.56
				c-0.3-1.51-0.45-3.07-0.45-4.67c0-3.6,0.78-7.01,2.19-10.09c0.12-0.13,0.25-0.26,0.38-0.39
				C66.465,31.412,70.274,30.142,73.975,30.341z"/>
		</g>
		<g>
			<path style="fill:#009687;" d="M86.505,47.761c-1.29-0.3-2.641-0.45-4.021-0.45c-2.77,0-5.399,0.61-7.76,1.72l1.78-1.79
				c1.46-1.45,1.72-3.65,0.8-5.37c1.67-0.37,3.4-0.56,5.18-0.56c1.471,0,2.91,0.13,4.301,0.38
				C87.145,43.702,87.055,45.781,86.505,47.761z"/>
		</g>
		<g>
			<path style="fill:#00B8A5;" d="M70.638,33.831c0.964-1.298,2.073-2.483,3.337-3.49c-3.7-0.2-7.51,1.07-10.42,3.99
				c-0.13,0.13-0.26,0.26-0.38,0.39c-1.23,2.688-1.98,5.627-2.152,8.725L70.638,33.831z"/>
		</g>
		<g>
			<path style="fill:#00B8A5;" d="M46.234,51.711c-0.17,1.34-0.25,2.71-0.25,4.1c0,0.863,0.043,1.717,0.107,2.566l6.114-6.115
				c0.425-3.403,1.45-6.62,2.979-9.542C51.925,46.001,48.944,48.991,46.234,51.711z"/>
		</g>
		<g>
			<path style="fill:#00B8A5;" d="M33.024,64.952c-0.03,0.62-0.04,1.24-0.04,1.86c0,1.498,0.09,2.974,0.239,4.434l5.802-5.802
				c0.094-2.587,0.435-5.11,1.029-7.542C37.375,60.602,35.034,62.941,33.024,64.952z"/>
		</g>
	</g>
</g>
<g id="Red" style="display:none;">
	<g style="display:inline;">
		<g>
			<path style="fill:#FFEFED;" d="M82.939,34.32c-0.021-0.02-0.043-0.036-0.062-0.056c0.006-0.007,0.012-0.015,0.017-0.022
				c-5.133-5.046-13.844-5.416-19.35,0.106c-29.56,29.644-40.581,40.696-40.581,40.696c4.283,4.271,2.323,2.316,6.475,6.456
				c0,0,21.69-21.776,40.671-40.678c1.73-1.715,4.583-1.812,6.374-0.028c1.789,1.784,1.794,4.676,0.01,6.465l-6.456,6.475
				l6.475,6.456c3.146-3.156,5.852-5.762,6.501-6.41C88.348,48.484,88.293,39.658,82.939,34.32z"/>
		</g>
		<g>
			<path style="fill:#FFFFFF;" d="M63.545,34.348c-29.56,29.643-40.581,40.696-40.581,40.696c2.077,2.072,2.685,2.678,3.235,3.226
				l47.896-47.897C70.354,30.14,66.49,31.393,63.545,34.348z"/>
		</g>
		<g>
			<path style="fill:#C23023;" d="M38.984,66.812c0,1.63,0.101,3.24,0.31,4.82c-1.96,1.96-3.7,3.7-5.15,5.15
				c-0.76-3.2-1.16-6.54-1.16-9.97c0-0.62,0.01-1.24,0.04-1.86c2.011-2.01,4.351-4.35,7.03-7.05
				C39.354,60.761,38.984,63.741,38.984,66.812z"/>
		</g>
		<g>
			<path style="fill:#C23023;" d="M51.984,55.812c0,1,0.051,1.98,0.16,2.95c-1.79,1.79-3.519,3.52-5.18,5.19
				c-0.641-2.61-0.98-5.34-0.98-8.14c0-1.39,0.08-2.76,0.25-4.1c2.71-2.72,5.69-5.71,8.95-8.99
				C53.135,46.642,51.984,51.091,51.984,55.812z"/>
		</g>
		<g>
			<path style="fill:#C23023;" d="M73.975,30.341c-4.04,3.22-6.71,8.09-6.97,13.58c-1.851,1.85-3.72,3.71-5.57,5.56
				c-0.3-1.51-0.45-3.07-0.45-4.67c0-3.6,0.78-7.01,2.19-10.09c0.12-0.13,0.25-0.26,0.38-0.39
				C66.465,31.412,70.274,30.142,73.975,30.341z"/>
		</g>
		<g>
			<path style="fill:#C23023;" d="M86.505,47.761c-1.29-0.3-2.641-0.45-4.02-0.45c-2.77,0-5.399,0.61-7.76,1.72l1.78-1.79
				c1.46-1.45,1.72-3.65,0.8-5.37c1.67-0.37,3.4-0.56,5.18-0.56c1.471,0,2.91,0.13,4.301,0.38
				C87.144,43.702,87.055,45.781,86.505,47.761z"/>
		</g>
		<g>
			<path style="fill:#E54B44;" d="M70.638,33.831c0.964-1.298,2.073-2.483,3.337-3.49c-3.7-0.2-7.51,1.07-10.42,3.99
				c-0.13,0.13-0.26,0.26-0.38,0.39c-1.23,2.688-1.98,5.627-2.152,8.725L70.638,33.831z"/>
		</g>
		<g>
			<path style="fill:#E54B44;" d="M46.234,51.711c-0.17,1.34-0.25,2.71-0.25,4.1c0,0.863,0.043,1.717,0.107,2.566l6.114-6.115
				c0.425-3.403,1.45-6.62,2.979-9.542C51.925,46.001,48.944,48.991,46.234,51.711z"/>
		</g>
		<g>
			<path style="fill:#E54B44;" d="M33.024,64.952c-0.03,0.62-0.04,1.24-0.04,1.86c0,1.498,0.09,2.974,0.239,4.434l5.802-5.802
				c0.094-2.587,0.435-5.11,1.029-7.542C37.375,60.602,35.034,62.941,33.024,64.952z"/>
		</g>
	</g>
</g>
<g id="R-Red" style="display:none;">
	<circle style="display:inline;fill:#FABBAF;" cx="55" cy="55" r="55"/>
	<g style="display:inline;">
		<g>
			<path style="fill:#FFEFED;" d="M82.939,34.32c-0.021-0.02-0.043-0.036-0.062-0.056c0.006-0.007,0.012-0.015,0.017-0.022
				c-5.133-5.046-13.844-5.416-19.35,0.106c-29.56,29.644-40.581,40.696-40.581,40.696c4.283,4.271,2.323,2.316,6.475,6.456
				c0,0,21.69-21.776,40.671-40.678c1.73-1.715,4.583-1.812,6.374-0.028c1.789,1.784,1.794,4.676,0.01,6.465l-6.456,6.475
				l6.475,6.456c3.146-3.156,5.852-5.762,6.501-6.41C88.348,48.484,88.293,39.658,82.939,34.32z"/>
		</g>
		<g>
			<path style="fill:#FFFFFF;" d="M63.545,34.348c-29.56,29.643-40.581,40.696-40.581,40.696c2.077,2.072,2.685,2.678,3.235,3.226
				l47.896-47.897C70.354,30.14,66.49,31.393,63.545,34.348z"/>
		</g>
		<g>
			<path style="fill:#C23023;" d="M38.984,66.812c0,1.63,0.101,3.24,0.31,4.82c-1.96,1.96-3.7,3.7-5.15,5.15
				c-0.76-3.2-1.16-6.54-1.16-9.97c0-0.62,0.01-1.24,0.04-1.86c2.011-2.01,4.351-4.35,7.03-7.05
				C39.354,60.761,38.984,63.741,38.984,66.812z"/>
		</g>
		<g>
			<path style="fill:#C23023;" d="M51.984,55.812c0,1,0.051,1.98,0.16,2.95c-1.79,1.79-3.519,3.52-5.18,5.19
				c-0.641-2.61-0.98-5.34-0.98-8.14c0-1.39,0.08-2.76,0.25-4.1c2.71-2.72,5.69-5.71,8.95-8.99
				C53.135,46.642,51.984,51.091,51.984,55.812z"/>
		</g>
		<g>
			<path style="fill:#C23023;" d="M73.975,30.341c-4.04,3.22-6.71,8.09-6.97,13.58c-1.851,1.85-3.72,3.71-5.57,5.56
				c-0.3-1.51-0.45-3.07-0.45-4.67c0-3.6,0.78-7.01,2.19-10.09c0.12-0.13,0.25-0.26,0.38-0.39
				C66.465,31.412,70.274,30.142,73.975,30.341z"/>
		</g>
		<g>
			<path style="fill:#C23023;" d="M86.505,47.761c-1.29-0.3-2.641-0.45-4.02-0.45c-2.77,0-5.399,0.61-7.76,1.72l1.78-1.79
				c1.46-1.45,1.72-3.65,0.8-5.37c1.67-0.37,3.4-0.56,5.18-0.56c1.471,0,2.91,0.13,4.301,0.38
				C87.144,43.702,87.055,45.781,86.505,47.761z"/>
		</g>
		<g>
			<path style="fill:#E54B44;" d="M70.638,33.831c0.964-1.298,2.073-2.483,3.337-3.49c-3.7-0.2-7.51,1.07-10.42,3.99
				c-0.13,0.13-0.26,0.26-0.38,0.39c-1.23,2.688-1.98,5.627-2.152,8.725L70.638,33.831z"/>
		</g>
		<g>
			<path style="fill:#E54B44;" d="M46.234,51.711c-0.17,1.34-0.25,2.71-0.25,4.1c0,0.863,0.043,1.717,0.107,2.566l6.114-6.115
				c0.425-3.403,1.45-6.62,2.979-9.542C51.925,46.001,48.944,48.991,46.234,51.711z"/>
		</g>
		<g>
			<path style="fill:#E54B44;" d="M33.024,64.952c-0.03,0.62-0.04,1.24-0.04,1.86c0,1.498,0.09,2.974,0.239,4.434l5.802-5.802
				c0.094-2.587,0.435-5.11,1.029-7.542C37.375,60.602,35.034,62.941,33.024,64.952z"/>
		</g>
	</g>
</g>
<g id="Yellow" style="display:none;">
	<g style="display:inline;">
		<g>
			<path style="fill:#FFF5D9;" d="M82.939,34.32c-0.021-0.02-0.043-0.036-0.062-0.056c0.006-0.007,0.012-0.015,0.018-0.022
				c-5.133-5.046-13.844-5.416-19.35,0.106C33.985,63.991,22.964,75.044,22.964,75.044c4.283,4.271,2.323,2.316,6.475,6.456
				c0,0,21.69-21.776,40.671-40.678c1.73-1.715,4.583-1.812,6.374-0.028c1.789,1.784,1.794,4.676,0.01,6.465l-6.456,6.475
				l6.475,6.456c3.146-3.156,5.852-5.762,6.501-6.41C88.348,48.484,88.293,39.658,82.939,34.32z"/>
		</g>
		<g>
			<path style="fill:#FFFFFF;" d="M63.545,34.348C33.985,63.991,22.964,75.044,22.964,75.044c2.077,2.072,2.686,2.678,3.235,3.226
				l47.897-47.897C70.354,30.14,66.49,31.393,63.545,34.348z"/>
		</g>
		<g>
			<path style="fill:#E07000;" d="M38.984,66.812c0,1.63,0.101,3.24,0.31,4.82c-1.96,1.96-3.7,3.7-5.15,5.15
				c-0.76-3.2-1.16-6.54-1.16-9.97c0-0.62,0.01-1.24,0.04-1.86c2.011-2.01,4.351-4.35,7.03-7.05
				C39.354,60.761,38.984,63.741,38.984,66.812z"/>
		</g>
		<g>
			<path style="fill:#E07000;" d="M51.984,55.812c0,1,0.051,1.98,0.16,2.95c-1.79,1.79-3.52,3.52-5.18,5.191
				c-0.641-2.61-0.98-5.34-0.98-8.14c0-1.39,0.08-2.76,0.25-4.1c2.71-2.72,5.69-5.71,8.95-8.99
				C53.135,46.642,51.984,51.091,51.984,55.812z"/>
		</g>
		<g>
			<path style="fill:#E07000;" d="M73.975,30.341c-4.04,3.22-6.71,8.09-6.97,13.58c-1.851,1.85-3.72,3.71-5.57,5.56
				c-0.3-1.51-0.45-3.07-0.45-4.67c0-3.6,0.78-7.01,2.19-10.09c0.12-0.13,0.25-0.26,0.38-0.39
				C66.465,31.412,70.274,30.142,73.975,30.341z"/>
		</g>
		<g>
			<path style="fill:#E07000;" d="M86.505,47.761c-1.29-0.3-2.641-0.45-4.021-0.45c-2.77,0-5.399,0.61-7.76,1.72l1.78-1.79
				c1.46-1.45,1.72-3.65,0.8-5.37c1.67-0.37,3.4-0.56,5.18-0.56c1.471,0,2.91,0.13,4.301,0.38
				C87.145,43.702,87.055,45.781,86.505,47.761z"/>
		</g>
		<g>
			<path style="fill:#FA9200;" d="M70.638,33.831c0.964-1.298,2.073-2.483,3.337-3.49c-3.7-0.2-7.51,1.07-10.42,3.99
				c-0.13,0.13-0.26,0.26-0.38,0.39c-1.23,2.688-1.98,5.627-2.152,8.725L70.638,33.831z"/>
		</g>
		<g>
			<path style="fill:#FA9200;" d="M46.234,51.711c-0.17,1.34-0.25,2.71-0.25,4.1c0,0.863,0.043,1.717,0.107,2.566l6.114-6.115
				c0.425-3.403,1.45-6.62,2.979-9.542C51.925,46.001,48.944,48.991,46.234,51.711z"/>
		</g>
		<g>
			<path style="fill:#FA9200;" d="M33.024,64.952c-0.03,0.62-0.04,1.24-0.04,1.86c0,1.498,0.09,2.974,0.239,4.434l5.802-5.802
				c0.094-2.587,0.435-5.11,1.029-7.542C37.375,60.602,35.034,62.941,33.024,64.952z"/>
		</g>
	</g>
</g>
<g id="R-Yellow" style="display:none;">
	<circle style="display:inline;fill:#FFD75E;" cx="55" cy="55" r="55"/>
	<g style="display:inline;">
		<g>
			<path style="fill:#FFF5D9;" d="M82.939,34.32c-0.021-0.02-0.043-0.036-0.062-0.056c0.006-0.007,0.012-0.015,0.017-0.022
				c-5.133-5.046-13.844-5.416-19.35,0.106C33.985,63.991,22.964,75.044,22.964,75.044c4.283,4.271,2.323,2.316,6.475,6.456
				c0,0,21.69-21.776,40.671-40.678c1.73-1.715,4.583-1.812,6.374-0.028c1.789,1.784,1.794,4.676,0.01,6.465l-6.456,6.475
				l6.475,6.456c3.146-3.156,5.852-5.762,6.501-6.41C88.348,48.484,88.293,39.658,82.939,34.32z"/>
		</g>
		<g>
			<path style="fill:#FFFFFF;" d="M63.545,34.348C33.985,63.991,22.964,75.044,22.964,75.044c2.077,2.072,2.685,2.678,3.235,3.226
				l47.896-47.897C70.354,30.14,66.49,31.393,63.545,34.348z"/>
		</g>
		<g>
			<path style="fill:#E07000;" d="M38.984,66.812c0,1.63,0.101,3.24,0.31,4.82c-1.96,1.96-3.7,3.7-5.15,5.15
				c-0.76-3.2-1.16-6.54-1.16-9.97c0-0.62,0.01-1.24,0.04-1.86c2.011-2.01,4.351-4.35,7.03-7.05
				C39.354,60.761,38.984,63.741,38.984,66.812z"/>
		</g>
		<g>
			<path style="fill:#E07000;" d="M51.984,55.812c0,1,0.051,1.98,0.16,2.95c-1.79,1.79-3.52,3.52-5.18,5.191
				c-0.641-2.61-0.98-5.34-0.98-8.14c0-1.39,0.08-2.76,0.25-4.1c2.71-2.72,5.69-5.71,8.95-8.99
				C53.135,46.642,51.984,51.091,51.984,55.812z"/>
		</g>
		<g>
			<path style="fill:#E07000;" d="M73.975,30.341c-4.04,3.22-6.71,8.09-6.97,13.58c-1.851,1.85-3.72,3.71-5.57,5.56
				c-0.3-1.51-0.45-3.07-0.45-4.67c0-3.6,0.78-7.01,2.19-10.09c0.12-0.13,0.25-0.26,0.38-0.39
				C66.465,31.412,70.274,30.142,73.975,30.341z"/>
		</g>
		<g>
			<path style="fill:#E07000;" d="M86.505,47.761c-1.29-0.3-2.641-0.45-4.021-0.45c-2.77,0-5.399,0.61-7.76,1.72l1.78-1.79
				c1.46-1.45,1.72-3.65,0.8-5.37c1.67-0.37,3.4-0.56,5.18-0.56c1.471,0,2.91,0.13,4.301,0.38
				C87.144,43.702,87.055,45.781,86.505,47.761z"/>
		</g>
		<g>
			<path style="fill:#FA9200;" d="M70.638,33.831c0.964-1.298,2.073-2.483,3.337-3.49c-3.7-0.2-7.51,1.07-10.42,3.99
				c-0.13,0.13-0.26,0.26-0.38,0.39c-1.23,2.688-1.98,5.627-2.152,8.725L70.638,33.831z"/>
		</g>
		<g>
			<path style="fill:#FA9200;" d="M46.234,51.711c-0.17,1.34-0.25,2.71-0.25,4.1c0,0.863,0.043,1.717,0.107,2.566l6.114-6.115
				c0.425-3.403,1.45-6.62,2.979-9.542C51.925,46.001,48.944,48.991,46.234,51.711z"/>
		</g>
		<g>
			<path style="fill:#FA9200;" d="M33.024,64.952c-0.03,0.62-0.04,1.24-0.04,1.86c0,1.498,0.09,2.974,0.239,4.434l5.802-5.802
				c0.094-2.587,0.435-5.11,1.029-7.542C37.375,60.602,35.034,62.941,33.024,64.952z"/>
		</g>
	</g>
</g>
</svg>
