<?xml version="1.0" encoding="iso-8859-1"?>
<!-- Generator: Adobe Illustrator 17.1.0, SVG Export Plug-In . SVG Version: 6.00 Build 0)  -->
<!DOCTYPE svg PUBLIC "-//W3C//DTD SVG 1.0//EN" "http://www.w3.org/TR/2001/REC-SVG-20010904/DTD/svg10.dtd">
<svg version="1.0" xmlns="http://www.w3.org/2000/svg" xmlns:xlink="http://www.w3.org/1999/xlink" x="0px" y="0px" width="110px"
	 height="110px" viewBox="0 0 110 110" style="enable-background:new 0 0 110 110;" xml:space="preserve">
<g id="Artboard" style="display:none;">
	
		<rect x="-1096.5" y="-290.5" style="display:inline;fill:#808080;stroke:#000000;stroke-miterlimit:10;" width="1392" height="1369"/>
</g>
<g id="R-Multicolor">
	<circle style="fill:#FABC3D;" cx="55" cy="55" r="55"/>
	<g>
		<g>
			<path style="fill:#BF0302;" d="M85.36,39.541c-4.772-1.839-2.157-6.211-5.366-9.42c-3.203-3.203-7.568-0.602-9.411-5.344
				c-0.134-0.344-0.447-0.586-0.814-0.63s-0.728,0.119-0.939,0.422c-2.391,3.439-3.076,8.272-2.356,12.089
				c1.505,0.107,3.228,1.002,4.596,2.54c1.251,1.406,1.913,3.036,1.969,4.459c3.828,0.925,8.824,0.345,12.552-2.376
				c0.295-0.216,0.449-0.576,0.401-0.939C85.943,39.98,85.701,39.673,85.36,39.541z"/>
		</g>
		<g>
			<path style="fill:#DF2C2C;" d="M71.079,46.877c0.362-0.12,0.705-0.282,0.991-0.537c1.65-1.469,1.203-4.666-1-7.141
				s-5.326-3.292-6.977-1.824c-0.476,0.424-0.758,1.001-0.893,1.653C66.584,40.748,69.347,43.5,71.079,46.877z"/>
		</g>
		<g>
			<path style="fill:#BF0302;" d="M39.061,70.942c-1.251-1.406-1.913-3.036-1.969-4.459c-3.828-0.926-8.824-0.345-12.552,2.376
				c-0.295,0.216-0.449,0.576-0.401,0.938c0.048,0.363,0.29,0.67,0.632,0.802c4.772,1.839,2.157,6.211,5.366,9.42
				c3.203,3.203,7.568,0.602,9.411,5.344c0.134,0.344,0.447,0.586,0.814,0.63s0.728-0.119,0.939-0.422
				c2.391-3.439,3.076-8.272,2.356-12.089C42.152,73.374,40.429,72.48,39.061,70.942z"/>
		</g>
		<g>
			<path style="fill:#DF2C2C;" d="M39.051,63.263c-0.362,0.121-0.705,0.282-0.991,0.537c-1.65,1.469-1.203,4.666,1,7.141
				s5.326,3.292,6.977,1.824c0.476-0.424,0.758-1.001,0.893-1.653C43.546,69.392,40.783,66.641,39.051,63.263z"/>
		</g>
		<g>
			<circle style="fill:#DF2C2C;" cx="55.065" cy="55.07" r="18"/>
		</g>
		<g>
			<path style="fill:#FA5655;" d="M55.065,37.07c-9.941,0-18,8.059-18,18c0,4.979,2.022,9.485,5.29,12.744L67.809,42.36
				C64.55,39.093,60.044,37.07,55.065,37.07z"/>
		</g>
		<g>
			<path style="fill:#DF2C2C;" d="M39.061,70.942c-1.251-1.406-1.913-3.036-1.969-4.459c-3.828-0.926-8.824-0.345-12.552,2.376
				c-0.295,0.216-0.449,0.576-0.401,0.938c0.048,0.363,0.29,0.67,0.632,0.802c4.772,1.839,2.157,6.211,5.366,9.42
				c0.002,0.002,0.005,0.004,0.007,0.006l8.999-8.999C39.115,70.997,39.087,70.971,39.061,70.942z"/>
		</g>
		<g>
			<path style="fill:#FA5655;" d="M38.061,63.8c-1.65,1.469-1.203,4.666,1,7.141c0.027,0.03,0.057,0.053,0.084,0.082l3.221-3.221
				c-1.328-1.323-2.449-2.854-3.314-4.54C38.689,63.384,38.347,63.546,38.061,63.8z"/>
		</g>
		<g>
			<path style="fill:#FA5655;" d="M64.093,37.375c-0.476,0.424-0.758,1.001-0.893,1.653c1.709,0.868,3.258,2.001,4.597,3.343
				l3.222-3.222C68.819,36.716,65.731,35.917,64.093,37.375z"/>
		</g>
		<g>
			<path style="fill:#DF2C2C;" d="M79.994,30.122c-3.203-3.203-7.568-0.602-9.411-5.344c-0.134-0.344-0.447-0.586-0.814-0.63
				s-0.728,0.119-0.939,0.422c-2.391,3.439-3.076,8.272-2.356,12.089c1.488,0.106,3.187,0.984,4.547,2.489l8.998-8.998
				C80.009,30.141,80.003,30.131,79.994,30.122z"/>
		</g>
		<g>
			<g>
				<path style="fill:#FBD7D7;" d="M68.435,43.02c-7.11-0.27-13.87-1.91-20.04-4.67c-2.21,0.88-4.2,2.18-5.87,3.81
					c8.974,4.728,18.903,7.107,29.51,6.89C71.235,46.8,70.005,44.76,68.435,43.02z"/>
			</g>
		</g>
		<g>
			<g>
				<path style="fill:#FBD7D7;" d="M73.035,54.02c-11.491,0.421-23.03-2.095-33.62-7.83c-0.99,1.73-1.7,3.65-2.06,5.69
					c10.729,5.651,22.337,8.385,35,8.17c0.47-1.58,0.71-3.25,0.71-4.98C73.065,54.72,73.055,54.37,73.035,54.02z"/>
			</g>
		</g>
		<g>
			<path style="fill:#FBD7D7;" d="M37.225,57.41c0.37,2.91,1.44,5.6,3.05,7.9c7.39,2.93,15.3,4.82,23.55,5.48
				c2.5-1.39,4.63-3.36,6.2-5.73C58.285,64.99,47.155,62.24,37.225,57.41z"/>
		</g>
		<g>
			<path style="fill:#FFFFFF;" d="M37.225,57.41c0.37,2.91,1.44,5.6,3.05,7.9c1.104,0.438,2.222,0.844,3.349,1.235l4.761-4.761
				C44.529,60.612,40.798,59.148,37.225,57.41z"/>
		</g>
		<g>
			<path style="fill:#FFFFFF;" d="M39.415,46.19c-0.99,1.73-1.7,3.65-2.06,5.69c4.738,2.496,9.792,4.467,15.079,5.854l4.995-4.994
				C51.039,51.435,44.984,49.206,39.415,46.19z"/>
		</g>
		<g>
			<path style="fill:#FFFFFF;" d="M42.525,42.16c5.904,3.11,12.379,5.26,19.22,6.263l5.479-5.479
				c-6.665-0.402-13.011-1.992-18.828-4.595C46.185,39.23,44.195,40.53,42.525,42.16z"/>
		</g>
	</g>
</g>
<g id="Multicolor" style="display:none;">
	<g style="display:inline;">
		<g>
			<path style="fill:#BF0302;" d="M85.36,39.541c-4.772-1.839-2.157-6.211-5.366-9.42c-3.203-3.203-7.568-0.602-9.411-5.344
				c-0.134-0.344-0.447-0.586-0.814-0.63s-0.728,0.119-0.939,0.422c-2.391,3.439-3.076,8.272-2.356,12.089
				c1.505,0.107,3.228,1.002,4.596,2.54c1.251,1.406,1.913,3.036,1.969,4.459c3.828,0.925,8.824,0.345,12.552-2.376
				c0.295-0.216,0.449-0.576,0.401-0.939C85.943,39.98,85.701,39.673,85.36,39.541z"/>
		</g>
		<g>
			<path style="fill:#DF2C2C;" d="M71.079,46.877c0.362-0.12,0.705-0.282,0.991-0.537c1.65-1.469,1.203-4.666-1-7.141
				s-5.326-3.292-6.977-1.824c-0.476,0.424-0.758,1.001-0.893,1.653C66.584,40.748,69.347,43.5,71.079,46.877z"/>
		</g>
		<g>
			<path style="fill:#BF0302;" d="M39.061,70.942c-1.251-1.406-1.913-3.036-1.969-4.459c-3.828-0.926-8.824-0.345-12.552,2.376
				c-0.295,0.216-0.449,0.576-0.401,0.938c0.048,0.363,0.29,0.67,0.632,0.802c4.772,1.839,2.157,6.211,5.366,9.42
				c3.203,3.203,7.568,0.602,9.411,5.344c0.134,0.344,0.447,0.586,0.814,0.63s0.728-0.119,0.939-0.422
				c2.391-3.439,3.076-8.272,2.356-12.089C42.152,73.374,40.429,72.48,39.061,70.942z"/>
		</g>
		<g>
			<path style="fill:#DF2C2C;" d="M39.051,63.263c-0.362,0.121-0.705,0.282-0.991,0.537c-1.65,1.469-1.203,4.666,1,7.141
				s5.326,3.292,6.977,1.824c0.476-0.424,0.758-1.001,0.893-1.653C43.546,69.392,40.783,66.641,39.051,63.263z"/>
		</g>
		<g>
			<circle style="fill:#DF2C2C;" cx="55.065" cy="55.07" r="18"/>
		</g>
		<g>
			<path style="fill:#FA5655;" d="M55.065,37.07c-9.941,0-18,8.059-18,18c0,4.979,2.022,9.485,5.29,12.744L67.809,42.36
				C64.55,39.093,60.044,37.07,55.065,37.07z"/>
		</g>
		<g>
			<path style="fill:#DF2C2C;" d="M39.061,70.942c-1.251-1.406-1.913-3.036-1.969-4.459c-3.828-0.926-8.824-0.345-12.552,2.376
				c-0.295,0.216-0.449,0.576-0.401,0.938c0.048,0.363,0.29,0.67,0.632,0.802c4.772,1.839,2.157,6.211,5.366,9.42
				c0.002,0.002,0.005,0.004,0.007,0.006l8.999-8.999C39.115,70.997,39.087,70.971,39.061,70.942z"/>
		</g>
		<g>
			<path style="fill:#FA5655;" d="M38.061,63.8c-1.65,1.469-1.203,4.666,1,7.141c0.027,0.03,0.057,0.053,0.084,0.082l3.221-3.221
				c-1.328-1.323-2.449-2.854-3.314-4.54C38.689,63.384,38.347,63.546,38.061,63.8z"/>
		</g>
		<g>
			<path style="fill:#FA5655;" d="M64.093,37.375c-0.476,0.424-0.758,1.001-0.893,1.653c1.709,0.868,3.258,2.001,4.597,3.343
				l3.222-3.222C68.819,36.716,65.731,35.917,64.093,37.375z"/>
		</g>
		<g>
			<path style="fill:#DF2C2C;" d="M79.994,30.122c-3.203-3.203-7.568-0.602-9.411-5.344c-0.134-0.344-0.447-0.586-0.814-0.63
				s-0.728,0.119-0.939,0.422c-2.391,3.439-3.076,8.272-2.356,12.089c1.488,0.106,3.187,0.984,4.547,2.489l8.998-8.998
				C80.009,30.141,80.003,30.131,79.994,30.122z"/>
		</g>
		<g>
			<g>
				<path style="fill:#FBD7D7;" d="M68.435,43.02c-7.11-0.27-13.87-1.91-20.04-4.67c-2.21,0.88-4.2,2.18-5.87,3.81
					c8.974,4.728,18.903,7.107,29.51,6.89C71.235,46.8,70.005,44.76,68.435,43.02z"/>
			</g>
		</g>
		<g>
			<g>
				<path style="fill:#FBD7D7;" d="M73.035,54.02c-11.491,0.421-23.03-2.095-33.62-7.83c-0.99,1.73-1.7,3.65-2.06,5.69
					c10.729,5.651,22.337,8.385,35,8.17c0.47-1.58,0.71-3.25,0.71-4.98C73.065,54.72,73.055,54.37,73.035,54.02z"/>
			</g>
		</g>
		<g>
			<path style="fill:#FBD7D7;" d="M37.225,57.41c0.37,2.91,1.44,5.6,3.05,7.9c7.39,2.93,15.3,4.82,23.55,5.48
				c2.5-1.39,4.63-3.36,6.2-5.73C58.285,64.99,47.155,62.24,37.225,57.41z"/>
		</g>
		<g>
			<path style="fill:#FFFFFF;" d="M37.225,57.41c0.37,2.91,1.44,5.6,3.05,7.9c1.104,0.438,2.222,0.844,3.349,1.235l4.761-4.761
				C44.529,60.612,40.798,59.148,37.225,57.41z"/>
		</g>
		<g>
			<path style="fill:#FFFFFF;" d="M39.415,46.19c-0.99,1.73-1.7,3.65-2.06,5.69c4.738,2.496,9.792,4.467,15.079,5.854l4.995-4.994
				C51.039,51.435,44.984,49.206,39.415,46.19z"/>
		</g>
		<g>
			<path style="fill:#FFFFFF;" d="M42.525,42.16c5.904,3.11,12.379,5.26,19.22,6.263l5.479-5.479
				c-6.665-0.402-13.011-1.992-18.828-4.595C46.185,39.23,44.195,40.53,42.525,42.16z"/>
		</g>
	</g>
</g>
<g id="Blue" style="display:none;">
	<g style="display:inline;">
		<g>
			<path style="fill:#E1F5FA;" d="M85.359,39.542c-4.771-1.839-2.157-6.211-5.365-9.419c-3.203-3.204-7.568-0.602-9.412-5.344
				c-0.133-0.345-0.447-0.587-0.813-0.63c-0.367-0.044-0.728,0.119-0.938,0.422c-2.392,3.44-3.076,8.272-2.357,12.089
				c1.506,0.107,3.229,1.002,4.597,2.54c1.251,1.406,1.913,3.036,1.97,4.458c3.828,0.925,8.823,0.345,12.551-2.376
				c0.296-0.216,0.449-0.576,0.401-0.938C85.943,39.98,85.701,39.673,85.359,39.542z"/>
		</g>
		<g>
			<path style="fill:#BBE7F2;" d="M71.078,46.877c0.363-0.121,0.705-0.283,0.991-0.537c1.65-1.468,1.202-4.666-1-7.141
				c-2.202-2.476-5.326-3.292-6.976-1.824c-0.477,0.424-0.758,1.001-0.894,1.653C66.584,40.749,69.348,43.5,71.078,46.877z"/>
		</g>
		<g>
			<path style="fill:#E1F5FA;" d="M39.061,70.942c-1.251-1.406-1.913-3.036-1.969-4.459c-3.829-0.926-8.824-0.345-12.553,2.376
				c-0.295,0.216-0.449,0.576-0.4,0.939c0.048,0.363,0.29,0.67,0.632,0.801c4.771,1.839,2.157,6.212,5.365,9.42
				c3.204,3.204,7.567,0.602,9.411,5.344c0.135,0.344,0.447,0.586,0.814,0.629c0.367,0.044,0.729-0.119,0.939-0.422
				c2.391-3.439,3.076-8.272,2.355-12.089C42.151,73.375,40.429,72.48,39.061,70.942z"/>
		</g>
		<g>
			<path style="fill:#BBE7F2;" d="M39.051,63.264c-0.362,0.121-0.704,0.282-0.99,0.537c-1.65,1.468-1.203,4.666,1,7.141
				c2.203,2.476,5.326,3.292,6.977,1.824c0.477-0.424,0.758-1.001,0.893-1.653C43.546,69.393,40.783,66.641,39.051,63.264z"/>
		</g>
		<g>
			<circle style="fill:#0081A1;" cx="55.065" cy="55.07" r="18"/>
		</g>
		<g>
			<path style="fill:#009FC7;" d="M55.064,37.07c-9.94,0-18,8.059-18,18c0,4.979,2.023,9.485,5.29,12.744L67.809,42.36
				C64.55,39.093,60.044,37.07,55.064,37.07z"/>
		</g>
		<g>
			<path style="fill:#FFFFFF;" d="M39.061,70.942c-1.251-1.406-1.913-3.036-1.969-4.459c-3.829-0.926-8.824-0.345-12.553,2.376
				c-0.295,0.216-0.449,0.576-0.4,0.939c0.048,0.363,0.29,0.67,0.632,0.801c4.771,1.839,2.157,6.212,5.365,9.42
				c0.003,0.002,0.005,0.004,0.007,0.006l9-8.999C39.115,70.997,39.087,70.972,39.061,70.942z"/>
		</g>
		<g>
			<path style="fill:#E1F5FA;" d="M38.061,63.801c-1.65,1.468-1.203,4.666,1,7.141c0.026,0.03,0.057,0.053,0.084,0.082l3.221-3.221
				c-1.328-1.323-2.449-2.854-3.314-4.539C38.688,63.384,38.347,63.546,38.061,63.801z"/>
		</g>
		<g>
			<path style="fill:#E1F5FA;" d="M64.093,37.375c-0.477,0.424-0.758,1.001-0.894,1.653c1.709,0.869,3.258,2.001,4.598,3.344
				l3.223-3.223C68.819,36.716,65.731,35.917,64.093,37.375z"/>
		</g>
		<g>
			<path style="fill:#FFFFFF;" d="M79.994,30.122c-3.203-3.204-7.568-0.602-9.412-5.344c-0.133-0.345-0.447-0.587-0.813-0.63
				c-0.367-0.044-0.728,0.119-0.938,0.422c-2.392,3.44-3.076,8.272-2.357,12.089c1.488,0.105,3.188,0.984,4.548,2.489l8.998-8.998
				C80.01,30.141,80.003,30.131,79.994,30.122z"/>
		</g>
		<g>
			<g>
				<path style="fill:#E1F5FA;" d="M68.435,43.021c-7.109-0.27-13.87-1.91-20.04-4.67c-2.21,0.88-4.199,2.18-5.869,3.81
					c8.974,4.728,18.902,7.106,29.51,6.89C71.234,46.8,70.005,44.76,68.435,43.021z"/>
			</g>
		</g>
		<g>
			<g>
				<path style="fill:#E1F5FA;" d="M73.035,54.021c-11.49,0.42-23.03-2.095-33.62-7.83c-0.99,1.73-1.7,3.65-2.061,5.69
					c10.729,5.651,22.337,8.385,35,8.17c0.471-1.58,0.71-3.25,0.71-4.98C73.064,54.72,73.055,54.371,73.035,54.021z"/>
			</g>
		</g>
		<g>
			<path style="fill:#E1F5FA;" d="M37.225,57.411c0.37,2.91,1.44,5.6,3.051,7.9c7.39,2.93,15.3,4.82,23.55,5.48
				c2.5-1.39,4.63-3.36,6.2-5.73C58.285,64.99,47.154,62.24,37.225,57.411z"/>
		</g>
		<g>
			<path style="fill:#FFFFFF;" d="M37.225,57.411c0.37,2.91,1.44,5.6,3.051,7.9c1.104,0.438,2.222,0.844,3.348,1.234l4.762-4.762
				C44.528,60.612,40.798,59.148,37.225,57.411z"/>
		</g>
		<g>
			<path style="fill:#FFFFFF;" d="M39.415,46.19c-0.99,1.73-1.7,3.65-2.061,5.691c4.739,2.496,9.792,4.467,15.079,5.854l4.994-4.995
				C51.039,51.436,44.984,49.207,39.415,46.19z"/>
		</g>
		<g>
			<path style="fill:#FFFFFF;" d="M42.525,42.161c5.903,3.11,12.379,5.259,19.219,6.263l5.479-5.479
				c-6.665-0.401-13.011-1.992-18.829-4.595C46.186,39.23,44.195,40.531,42.525,42.161z"/>
		</g>
	</g>
</g>
<g id="R-Blue" style="display:none;">
	<circle style="display:inline;fill:#81D2EB;" cx="55" cy="55" r="55"/>
	<g style="display:inline;">
		<g>
			<path style="fill:#E1F5FA;" d="M85.359,39.541c-4.771-1.839-2.157-6.211-5.365-9.419c-3.203-3.204-7.568-0.602-9.412-5.344
				c-0.133-0.345-0.447-0.587-0.813-0.63c-0.367-0.044-0.728,0.119-0.938,0.422c-2.392,3.44-3.076,8.272-2.357,12.089
				c1.506,0.107,3.229,1.002,4.597,2.54c1.251,1.406,1.913,3.036,1.97,4.458c3.828,0.925,8.823,0.345,12.551-2.376
				c0.296-0.216,0.449-0.576,0.401-0.938C85.943,39.98,85.701,39.673,85.359,39.541z"/>
		</g>
		<g>
			<path style="fill:#BBE7F2;" d="M71.078,46.877c0.363-0.121,0.705-0.283,0.991-0.537c1.65-1.468,1.202-4.666-1-7.141
				c-2.202-2.476-5.326-3.292-6.976-1.824c-0.477,0.424-0.758,1.001-0.894,1.653C66.584,40.748,69.348,43.499,71.078,46.877z"/>
		</g>
		<g>
			<path style="fill:#E1F5FA;" d="M39.061,70.942c-1.251-1.406-1.913-3.036-1.969-4.459c-3.829-0.926-8.824-0.345-12.553,2.376
				c-0.295,0.216-0.449,0.576-0.4,0.939c0.048,0.363,0.29,0.67,0.632,0.801c4.771,1.839,2.157,6.212,5.365,9.42
				c3.204,3.204,7.567,0.602,9.411,5.344c0.135,0.344,0.447,0.586,0.814,0.629c0.367,0.044,0.729-0.119,0.939-0.422
				c2.391-3.439,3.076-8.272,2.355-12.089C42.151,73.374,40.429,72.48,39.061,70.942z"/>
		</g>
		<g>
			<path style="fill:#BBE7F2;" d="M39.051,63.264c-0.362,0.121-0.704,0.282-0.99,0.537c-1.65,1.468-1.203,4.665,1,7.141
				c2.203,2.476,5.326,3.292,6.977,1.824c0.477-0.424,0.758-1,0.893-1.653C43.546,69.393,40.783,66.641,39.051,63.264z"/>
		</g>
		<g>
			<circle style="fill:#0081A1;" cx="55.065" cy="55.07" r="18"/>
		</g>
		<g>
			<path style="fill:#009FC7;" d="M55.064,37.07c-9.94,0-18,8.059-18,18c0,4.979,2.023,9.485,5.29,12.744L67.809,42.36
				C64.55,39.093,60.044,37.07,55.064,37.07z"/>
		</g>
		<g>
			<path style="fill:#FFFFFF;" d="M39.061,70.942c-1.251-1.406-1.913-3.036-1.969-4.459c-3.829-0.926-8.824-0.345-12.553,2.376
				c-0.295,0.216-0.449,0.576-0.4,0.939c0.048,0.363,0.29,0.67,0.632,0.801c4.771,1.839,2.157,6.212,5.365,9.42
				c0.003,0.002,0.005,0.004,0.007,0.006l9-8.999C39.115,70.997,39.087,70.972,39.061,70.942z"/>
		</g>
		<g>
			<path style="fill:#E1F5FA;" d="M38.061,63.801c-1.65,1.468-1.203,4.665,1,7.141c0.026,0.03,0.057,0.053,0.084,0.082l3.221-3.221
				c-1.328-1.323-2.449-2.854-3.314-4.54C38.688,63.384,38.347,63.546,38.061,63.801z"/>
		</g>
		<g>
			<path style="fill:#E1F5FA;" d="M64.093,37.375c-0.477,0.424-0.758,1.001-0.894,1.653c1.709,0.869,3.258,2.001,4.598,3.344
				l3.223-3.223C68.819,36.716,65.731,35.917,64.093,37.375z"/>
		</g>
		<g>
			<path style="fill:#FFFFFF;" d="M79.994,30.122c-3.203-3.204-7.568-0.602-9.412-5.344c-0.133-0.345-0.447-0.587-0.813-0.63
				c-0.367-0.044-0.728,0.119-0.938,0.422c-2.392,3.44-3.076,8.272-2.357,12.089c1.488,0.105,3.188,0.984,4.548,2.489l8.998-8.998
				C80.01,30.141,80.003,30.131,79.994,30.122z"/>
		</g>
		<g>
			<g>
				<path style="fill:#E1F5FA;" d="M68.435,43.02c-7.109-0.27-13.87-1.91-20.04-4.67c-2.21,0.88-4.199,2.18-5.869,3.81
					c8.974,4.728,18.902,7.106,29.51,6.89C71.234,46.8,70.005,44.76,68.435,43.02z"/>
			</g>
		</g>
		<g>
			<g>
				<path style="fill:#E1F5FA;" d="M73.035,54.02c-11.49,0.42-23.03-2.095-33.62-7.83c-0.99,1.73-1.7,3.65-2.061,5.69
					c10.729,5.651,22.337,8.385,35,8.17c0.471-1.58,0.71-3.25,0.71-4.98C73.064,54.72,73.055,54.371,73.035,54.02z"/>
			</g>
		</g>
		<g>
			<path style="fill:#E1F5FA;" d="M37.225,57.411c0.37,2.91,1.44,5.6,3.051,7.9c7.39,2.93,15.3,4.82,23.55,5.48
				c2.5-1.39,4.63-3.36,6.2-5.73C58.285,64.99,47.154,62.24,37.225,57.411z"/>
		</g>
		<g>
			<path style="fill:#FFFFFF;" d="M37.225,57.411c0.37,2.91,1.44,5.6,3.051,7.9c1.104,0.438,2.222,0.844,3.348,1.234l4.762-4.762
				C44.528,60.612,40.798,59.148,37.225,57.411z"/>
		</g>
		<g>
			<path style="fill:#FFFFFF;" d="M39.415,46.19c-0.99,1.73-1.7,3.65-2.061,5.691c4.739,2.496,9.792,4.467,15.079,5.854l4.994-4.995
				C51.039,51.435,44.984,49.206,39.415,46.19z"/>
		</g>
		<g>
			<path style="fill:#FFFFFF;" d="M42.525,42.161c5.903,3.11,12.379,5.259,19.219,6.263l5.479-5.479
				c-6.665-0.401-13.011-1.992-18.829-4.595C46.186,39.23,44.195,40.531,42.525,42.161z"/>
		</g>
	</g>
</g>
<g id="Green" style="display:none;">
	<g style="display:inline;">
		<g>
			<path style="fill:#D7FCF9;" d="M85.359,39.542c-4.771-1.839-2.157-6.211-5.365-9.419c-3.203-3.204-7.568-0.602-9.412-5.344
				c-0.133-0.345-0.447-0.587-0.813-0.63c-0.367-0.044-0.728,0.119-0.939,0.422c-2.392,3.44-3.076,8.272-2.357,12.089
				c1.506,0.107,3.229,1.002,4.597,2.54c1.251,1.406,1.913,3.036,1.97,4.458c3.828,0.925,8.823,0.345,12.551-2.376
				c0.296-0.216,0.449-0.576,0.401-0.938C85.943,39.98,85.701,39.673,85.359,39.542z"/>
		</g>
		<g>
			<path style="fill:#AAF0E9;" d="M71.078,46.877c0.363-0.121,0.705-0.283,0.991-0.537c1.65-1.468,1.202-4.666-1-7.141
				c-2.202-2.476-5.326-3.292-6.977-1.824c-0.477,0.424-0.758,1.001-0.894,1.653C66.584,40.749,69.348,43.5,71.078,46.877z"/>
		</g>
		<g>
			<path style="fill:#D7FCF9;" d="M39.06,70.942c-1.251-1.406-1.913-3.036-1.969-4.459c-3.829-0.926-8.824-0.345-12.553,2.376
				c-0.295,0.216-0.449,0.576-0.4,0.939c0.048,0.363,0.29,0.67,0.632,0.801c4.771,1.839,2.157,6.212,5.365,9.42
				c3.204,3.204,7.567,0.602,9.411,5.344c0.135,0.344,0.447,0.586,0.814,0.629c0.367,0.044,0.729-0.119,0.939-0.422
				c2.391-3.439,3.076-8.272,2.355-12.089C42.151,73.374,40.429,72.48,39.06,70.942z"/>
		</g>
		<g>
			<path style="fill:#AAF0E9;" d="M39.051,63.264c-0.362,0.121-0.704,0.282-0.99,0.537c-1.65,1.468-1.203,4.666,1,7.141
				c2.203,2.476,5.326,3.292,6.977,1.824c0.477-0.424,0.758-1.001,0.893-1.653C43.546,69.393,40.783,66.641,39.051,63.264z"/>
		</g>
		<g>
			<circle style="fill:#009687;" cx="55.065" cy="55.07" r="18"/>
		</g>
		<g>
			<path style="fill:#00B8A5;" d="M55.064,37.07c-9.94,0-18,8.059-18,18c0,4.979,2.023,9.485,5.29,12.744L67.809,42.36
				C64.55,39.093,60.044,37.07,55.064,37.07z"/>
		</g>
		<g>
			<path style="fill:#FFFFFF;" d="M39.06,70.942c-1.251-1.406-1.913-3.036-1.969-4.459c-3.829-0.926-8.824-0.345-12.553,2.376
				c-0.295,0.216-0.449,0.576-0.4,0.939c0.048,0.363,0.29,0.67,0.632,0.801c4.771,1.839,2.157,6.212,5.365,9.42
				c0.003,0.002,0.005,0.004,0.007,0.006l9-8.999C39.115,70.997,39.087,70.972,39.06,70.942z"/>
		</g>
		<g>
			<path style="fill:#D7FCF9;" d="M38.06,63.801c-1.65,1.468-1.203,4.666,1,7.141c0.026,0.03,0.057,0.053,0.084,0.082l3.221-3.221
				c-1.328-1.323-2.449-2.854-3.314-4.54C38.688,63.384,38.347,63.546,38.06,63.801z"/>
		</g>
		<g>
			<path style="fill:#D7FCF9;" d="M64.093,37.375c-0.477,0.424-0.758,1.001-0.894,1.653c1.709,0.869,3.258,2.001,4.598,3.344
				l3.223-3.223C68.819,36.716,65.731,35.917,64.093,37.375z"/>
		</g>
		<g>
			<path style="fill:#FFFFFF;" d="M79.994,30.122c-3.203-3.204-7.568-0.602-9.412-5.344c-0.133-0.345-0.447-0.587-0.813-0.63
				c-0.367-0.044-0.728,0.119-0.939,0.422c-2.392,3.44-3.076,8.272-2.357,12.089c1.488,0.105,3.188,0.984,4.548,2.489l8.998-8.998
				C80.01,30.141,80.003,30.131,79.994,30.122z"/>
		</g>
		<g>
			<g>
				<path style="fill:#D7FCF9;" d="M68.435,43.021c-7.109-0.27-13.87-1.91-20.04-4.67c-2.21,0.88-4.199,2.18-5.869,3.81
					c8.974,4.728,18.902,7.106,29.51,6.89C71.234,46.8,70.005,44.76,68.435,43.021z"/>
			</g>
		</g>
		<g>
			<g>
				<path style="fill:#D7FCF9;" d="M73.035,54.021c-11.49,0.42-23.03-2.095-33.62-7.83c-0.99,1.73-1.7,3.65-2.061,5.69
					c10.729,5.651,22.337,8.385,35,8.17c0.471-1.58,0.71-3.25,0.71-4.98C73.064,54.72,73.055,54.371,73.035,54.021z"/>
			</g>
		</g>
		<g>
			<path style="fill:#D7FCF9;" d="M37.225,57.411c0.37,2.91,1.44,5.6,3.051,7.9c7.39,2.93,15.3,4.82,23.55,5.48
				c2.5-1.39,4.63-3.36,6.2-5.73C58.285,64.99,47.154,62.24,37.225,57.411z"/>
		</g>
		<g>
			<path style="fill:#FFFFFF;" d="M37.225,57.411c0.37,2.91,1.44,5.6,3.051,7.9c1.104,0.438,2.222,0.844,3.348,1.234l4.762-4.762
				C44.528,60.612,40.798,59.148,37.225,57.411z"/>
		</g>
		<g>
			<path style="fill:#FFFFFF;" d="M39.415,46.19c-0.99,1.73-1.7,3.65-2.061,5.691c4.739,2.496,9.792,4.467,15.079,5.854l4.994-4.995
				C51.039,51.436,44.984,49.207,39.415,46.19z"/>
		</g>
		<g>
			<path style="fill:#FFFFFF;" d="M42.525,42.161c5.903,3.11,12.379,5.259,19.219,6.263l5.479-5.479
				c-6.665-0.401-13.011-1.992-18.829-4.595C46.185,39.23,44.195,40.531,42.525,42.161z"/>
		</g>
	</g>
</g>
<g id="R-Green" style="display:none;">
	<circle style="display:inline;fill:#77E0C4;" cx="55" cy="55" r="55"/>
	<g style="display:inline;">
		<g>
			<path style="fill:#D7FCF9;" d="M85.359,39.542c-4.771-1.839-2.157-6.211-5.365-9.419c-3.203-3.204-7.568-0.602-9.412-5.344
				c-0.133-0.345-0.447-0.587-0.813-0.63c-0.367-0.044-0.728,0.119-0.938,0.422c-2.392,3.44-3.076,8.272-2.357,12.089
				c1.506,0.107,3.229,1.002,4.597,2.54c1.251,1.406,1.913,3.036,1.97,4.458c3.828,0.925,8.823,0.345,12.551-2.376
				c0.296-0.216,0.449-0.576,0.401-0.938C85.943,39.98,85.701,39.673,85.359,39.542z"/>
		</g>
		<g>
			<path style="fill:#AAF0E9;" d="M71.078,46.877c0.363-0.121,0.705-0.283,0.991-0.537c1.65-1.468,1.202-4.666-1-7.141
				c-2.202-2.476-5.326-3.292-6.977-1.824c-0.477,0.424-0.758,1.001-0.894,1.653C66.584,40.749,69.348,43.5,71.078,46.877z"/>
		</g>
		<g>
			<path style="fill:#D7FCF9;" d="M39.061,70.942c-1.251-1.406-1.913-3.036-1.969-4.459c-3.829-0.926-8.824-0.345-12.553,2.376
				c-0.295,0.216-0.449,0.576-0.4,0.939c0.048,0.363,0.29,0.67,0.632,0.801c4.771,1.839,2.157,6.212,5.365,9.42
				c3.204,3.204,7.567,0.602,9.411,5.344c0.135,0.344,0.447,0.586,0.814,0.629c0.367,0.044,0.729-0.119,0.939-0.422
				c2.391-3.439,3.076-8.272,2.355-12.089C42.151,73.375,40.429,72.48,39.061,70.942z"/>
		</g>
		<g>
			<path style="fill:#AAF0E9;" d="M39.051,63.264c-0.362,0.121-0.704,0.282-0.99,0.537c-1.65,1.468-1.203,4.666,1,7.141
				c2.203,2.476,5.326,3.292,6.977,1.824c0.477-0.424,0.758-1.001,0.893-1.653C43.546,69.393,40.783,66.641,39.051,63.264z"/>
		</g>
		<g>
			<circle style="fill:#009687;" cx="55.065" cy="55.07" r="18"/>
		</g>
		<g>
			<path style="fill:#00B8A5;" d="M55.064,37.07c-9.94,0-18,8.059-18,18c0,4.979,2.023,9.485,5.29,12.744L67.809,42.36
				C64.55,39.093,60.044,37.07,55.064,37.07z"/>
		</g>
		<g>
			<path style="fill:#FFFFFF;" d="M39.061,70.942c-1.251-1.406-1.913-3.036-1.969-4.459c-3.829-0.926-8.824-0.345-12.553,2.376
				c-0.295,0.216-0.449,0.576-0.4,0.939c0.048,0.363,0.29,0.67,0.632,0.801c4.771,1.839,2.157,6.212,5.365,9.42
				c0.003,0.002,0.005,0.004,0.007,0.006l9-8.999C39.115,70.997,39.087,70.972,39.061,70.942z"/>
		</g>
		<g>
			<path style="fill:#D7FCF9;" d="M38.061,63.801c-1.65,1.468-1.203,4.666,1,7.141c0.026,0.03,0.057,0.053,0.084,0.082l3.221-3.221
				c-1.328-1.323-2.449-2.854-3.314-4.539C38.688,63.384,38.347,63.546,38.061,63.801z"/>
		</g>
		<g>
			<path style="fill:#D7FCF9;" d="M64.093,37.375c-0.477,0.424-0.758,1.001-0.894,1.653c1.709,0.869,3.258,2.001,4.598,3.344
				l3.223-3.223C68.819,36.716,65.731,35.917,64.093,37.375z"/>
		</g>
		<g>
			<path style="fill:#FFFFFF;" d="M79.994,30.122c-3.203-3.204-7.568-0.602-9.412-5.344c-0.133-0.345-0.447-0.587-0.813-0.63
				c-0.367-0.044-0.728,0.119-0.938,0.422c-2.392,3.44-3.076,8.272-2.357,12.089c1.488,0.105,3.188,0.984,4.548,2.489l8.998-8.998
				C80.01,30.141,80.003,30.131,79.994,30.122z"/>
		</g>
		<g>
			<g>
				<path style="fill:#D7FCF9;" d="M68.435,43.021c-7.109-0.27-13.87-1.91-20.04-4.67c-2.21,0.88-4.199,2.18-5.869,3.81
					c8.974,4.728,18.902,7.106,29.51,6.89C71.234,46.8,70.005,44.76,68.435,43.021z"/>
			</g>
		</g>
		<g>
			<g>
				<path style="fill:#D7FCF9;" d="M73.035,54.021c-11.49,0.42-23.03-2.095-33.62-7.83c-0.99,1.73-1.7,3.65-2.061,5.69
					c10.729,5.651,22.337,8.385,35,8.17c0.471-1.58,0.71-3.25,0.71-4.98C73.064,54.72,73.055,54.371,73.035,54.021z"/>
			</g>
		</g>
		<g>
			<path style="fill:#D7FCF9;" d="M37.225,57.411c0.37,2.91,1.44,5.6,3.051,7.9c7.39,2.93,15.3,4.82,23.55,5.48
				c2.5-1.39,4.63-3.36,6.2-5.73C58.285,64.99,47.154,62.24,37.225,57.411z"/>
		</g>
		<g>
			<path style="fill:#FFFFFF;" d="M37.225,57.411c0.37,2.91,1.44,5.6,3.051,7.9c1.104,0.438,2.222,0.844,3.348,1.234l4.762-4.762
				C44.528,60.612,40.798,59.148,37.225,57.411z"/>
		</g>
		<g>
			<path style="fill:#FFFFFF;" d="M39.415,46.19c-0.99,1.73-1.7,3.65-2.061,5.691c4.739,2.496,9.792,4.467,15.079,5.854l4.994-4.995
				C51.039,51.436,44.984,49.207,39.415,46.19z"/>
		</g>
		<g>
			<path style="fill:#FFFFFF;" d="M42.525,42.161c5.903,3.11,12.379,5.259,19.219,6.263l5.48-5.479
				c-6.665-0.401-13.011-1.992-18.829-4.595C46.186,39.23,44.195,40.531,42.525,42.161z"/>
		</g>
	</g>
</g>
<g id="Red" style="display:none;">
	<g style="display:inline;">
		<g>
			<path style="fill:#FFEFED;" d="M85.359,39.542c-4.771-1.839-2.157-6.211-5.365-9.419c-3.203-3.204-7.568-0.602-9.412-5.344
				c-0.133-0.345-0.447-0.587-0.813-0.63c-0.367-0.044-0.728,0.119-0.938,0.422c-2.392,3.44-3.076,8.272-2.357,12.089
				c1.506,0.107,3.229,1.002,4.597,2.54c1.251,1.406,1.913,3.036,1.97,4.458c3.828,0.925,8.823,0.345,12.551-2.376
				c0.296-0.216,0.449-0.576,0.401-0.938C85.943,39.98,85.701,39.673,85.359,39.542z"/>
		</g>
		<g>
			<path style="fill:#FFD7D4;" d="M71.078,46.877c0.363-0.121,0.705-0.283,0.991-0.537c1.65-1.468,1.202-4.666-1-7.141
				c-2.202-2.476-5.326-3.292-6.977-1.824c-0.477,0.424-0.758,1.001-0.894,1.653C66.584,40.749,69.348,43.5,71.078,46.877z"/>
		</g>
		<g>
			<path style="fill:#FFEFED;" d="M39.06,70.942c-1.251-1.406-1.913-3.036-1.969-4.459c-3.829-0.926-8.824-0.345-12.553,2.376
				c-0.295,0.216-0.449,0.576-0.4,0.939c0.048,0.363,0.29,0.67,0.632,0.801c4.771,1.839,2.157,6.212,5.365,9.42
				c3.204,3.204,7.567,0.602,9.411,5.344c0.135,0.344,0.447,0.586,0.814,0.629c0.367,0.044,0.728-0.119,0.939-0.422
				c2.391-3.439,3.076-8.272,2.355-12.089C42.151,73.374,40.429,72.48,39.06,70.942z"/>
		</g>
		<g>
			<path style="fill:#FFD7D4;" d="M39.051,63.264c-0.362,0.121-0.704,0.282-0.99,0.537c-1.65,1.468-1.203,4.666,1,7.141
				c2.203,2.476,5.326,3.292,6.977,1.824c0.477-0.424,0.758-1.001,0.893-1.653C43.546,69.393,40.783,66.641,39.051,63.264z"/>
		</g>
		<g>
			<circle style="fill:#C23023;" cx="55.064" cy="55.07" r="18"/>
		</g>
		<g>
			<path style="fill:#E54B44;" d="M55.064,37.07c-9.94,0-18,8.059-18,18c0,4.979,2.023,9.485,5.29,12.744L67.809,42.36
				C64.55,39.093,60.044,37.07,55.064,37.07z"/>
		</g>
		<g>
			<path style="fill:#FFFFFF;" d="M39.06,70.942c-1.251-1.406-1.913-3.036-1.969-4.459c-3.829-0.926-8.824-0.345-12.553,2.376
				c-0.295,0.216-0.449,0.576-0.4,0.939c0.048,0.363,0.29,0.67,0.632,0.801c4.771,1.839,2.157,6.212,5.365,9.42
				c0.003,0.002,0.005,0.004,0.007,0.006l9-8.999C39.115,70.997,39.087,70.972,39.06,70.942z"/>
		</g>
		<g>
			<path style="fill:#FFEFED;" d="M38.06,63.801c-1.65,1.468-1.203,4.666,1,7.141c0.026,0.03,0.057,0.053,0.084,0.082l3.221-3.221
				c-1.328-1.323-2.449-2.854-3.314-4.54C38.688,63.384,38.347,63.546,38.06,63.801z"/>
		</g>
		<g>
			<path style="fill:#FFEFED;" d="M64.093,37.375c-0.477,0.424-0.758,1.001-0.894,1.653c1.709,0.869,3.258,2.001,4.598,3.344
				l3.223-3.223C68.819,36.716,65.731,35.917,64.093,37.375z"/>
		</g>
		<g>
			<path style="fill:#FFFFFF;" d="M79.994,30.122c-3.203-3.204-7.568-0.602-9.412-5.344c-0.133-0.345-0.447-0.587-0.813-0.63
				c-0.367-0.044-0.728,0.119-0.938,0.422c-2.392,3.44-3.076,8.272-2.357,12.089c1.488,0.105,3.188,0.984,4.548,2.489l8.998-8.998
				C80.01,30.141,80.003,30.131,79.994,30.122z"/>
		</g>
		<g>
			<g>
				<path style="fill:#FFEFED;" d="M68.435,43.021c-7.109-0.27-13.87-1.91-20.04-4.67c-2.21,0.88-4.199,2.18-5.869,3.81
					c8.974,4.728,18.902,7.106,29.51,6.89C71.234,46.8,70.005,44.76,68.435,43.021z"/>
			</g>
		</g>
		<g>
			<g>
				<path style="fill:#FFEFED;" d="M73.035,54.021c-11.49,0.42-23.03-2.095-33.62-7.83c-0.99,1.73-1.7,3.65-2.061,5.69
					c10.73,5.651,22.337,8.385,35,8.17c0.471-1.58,0.71-3.25,0.71-4.98C73.064,54.72,73.055,54.371,73.035,54.021z"/>
			</g>
		</g>
		<g>
			<path style="fill:#FFEFED;" d="M37.225,57.411c0.37,2.91,1.44,5.6,3.051,7.9c7.39,2.93,15.3,4.82,23.55,5.48
				c2.5-1.39,4.63-3.36,6.2-5.73C58.285,64.99,47.154,62.24,37.225,57.411z"/>
		</g>
		<g>
			<path style="fill:#FFFFFF;" d="M37.225,57.411c0.37,2.91,1.44,5.6,3.051,7.9c1.103,0.438,2.222,0.844,3.348,1.234l4.762-4.762
				C44.528,60.612,40.798,59.148,37.225,57.411z"/>
		</g>
		<g>
			<path style="fill:#FFFFFF;" d="M39.415,46.19c-0.99,1.73-1.7,3.65-2.061,5.691c4.739,2.496,9.792,4.467,15.079,5.854l4.994-4.995
				C51.039,51.436,44.984,49.207,39.415,46.19z"/>
		</g>
		<g>
			<path style="fill:#FFFFFF;" d="M42.525,42.161c5.903,3.11,12.379,5.259,19.219,6.263l5.48-5.479
				c-6.665-0.401-13.011-1.992-18.829-4.595C46.185,39.23,44.195,40.531,42.525,42.161z"/>
		</g>
	</g>
</g>
<g id="R-Red" style="display:none;">
	<circle style="display:inline;fill:#FABBAF;" cx="55" cy="55" r="55"/>
	<g style="display:inline;">
		<g>
			<path style="fill:#FFEFED;" d="M85.359,39.542c-4.771-1.839-2.157-6.211-5.365-9.419c-3.203-3.204-7.568-0.602-9.412-5.344
				c-0.133-0.345-0.447-0.587-0.813-0.63c-0.367-0.044-0.728,0.119-0.938,0.422c-2.392,3.44-3.076,8.272-2.357,12.089
				c1.506,0.107,3.229,1.002,4.597,2.54c1.251,1.406,1.913,3.036,1.97,4.458c3.828,0.925,8.823,0.345,12.551-2.376
				c0.296-0.216,0.449-0.576,0.401-0.938C85.943,39.98,85.701,39.673,85.359,39.542z"/>
		</g>
		<g>
			<path style="fill:#FFD7D4;" d="M71.078,46.877c0.363-0.121,0.705-0.283,0.991-0.537c1.65-1.468,1.202-4.666-1-7.141
				c-2.202-2.476-5.326-3.292-6.977-1.824c-0.477,0.424-0.758,1.001-0.894,1.653C66.584,40.749,69.348,43.5,71.078,46.877z"/>
		</g>
		<g>
			<path style="fill:#FFEFED;" d="M39.06,70.942c-1.251-1.406-1.913-3.036-1.969-4.459c-3.829-0.926-8.824-0.345-12.553,2.376
				c-0.295,0.216-0.449,0.576-0.4,0.939c0.048,0.363,0.29,0.67,0.632,0.801c4.771,1.839,2.157,6.212,5.365,9.42
				c3.204,3.204,7.567,0.602,9.411,5.344c0.135,0.344,0.447,0.586,0.814,0.629c0.367,0.044,0.728-0.119,0.939-0.422
				c2.391-3.439,3.076-8.272,2.355-12.089C42.151,73.374,40.429,72.48,39.06,70.942z"/>
		</g>
		<g>
			<path style="fill:#FFD7D4;" d="M39.051,63.264c-0.362,0.121-0.704,0.282-0.99,0.537c-1.65,1.468-1.203,4.666,1,7.141
				c2.203,2.476,5.326,3.292,6.977,1.824c0.477-0.424,0.758-1.001,0.893-1.653C43.546,69.393,40.783,66.641,39.051,63.264z"/>
		</g>
		<g>
			<circle style="fill:#C23023;" cx="55.064" cy="55.07" r="18"/>
		</g>
		<g>
			<path style="fill:#E54B44;" d="M55.064,37.07c-9.94,0-18,8.059-18,18c0,4.979,2.023,9.485,5.29,12.744L67.809,42.36
				C64.55,39.093,60.044,37.07,55.064,37.07z"/>
		</g>
		<g>
			<path style="fill:#FFFFFF;" d="M39.06,70.942c-1.251-1.406-1.913-3.036-1.969-4.459c-3.829-0.926-8.824-0.345-12.553,2.376
				c-0.295,0.216-0.449,0.576-0.4,0.939c0.048,0.363,0.29,0.67,0.632,0.801c4.771,1.839,2.157,6.212,5.365,9.42
				c0.003,0.002,0.005,0.004,0.007,0.006l9-8.999C39.115,70.997,39.087,70.972,39.06,70.942z"/>
		</g>
		<g>
			<path style="fill:#FFEFED;" d="M38.06,63.801c-1.65,1.468-1.203,4.666,1,7.141c0.026,0.03,0.057,0.053,0.084,0.082l3.221-3.221
				c-1.328-1.323-2.449-2.854-3.314-4.54C38.688,63.384,38.347,63.546,38.06,63.801z"/>
		</g>
		<g>
			<path style="fill:#FFEFED;" d="M64.093,37.375c-0.477,0.424-0.758,1.001-0.894,1.653c1.709,0.869,3.258,2.001,4.598,3.344
				l3.223-3.223C68.819,36.716,65.731,35.917,64.093,37.375z"/>
		</g>
		<g>
			<path style="fill:#FFFFFF;" d="M79.994,30.122c-3.203-3.204-7.568-0.602-9.412-5.344c-0.133-0.345-0.447-0.587-0.813-0.63
				c-0.367-0.044-0.728,0.119-0.938,0.422c-2.392,3.44-3.076,8.272-2.357,12.089c1.488,0.105,3.188,0.984,4.548,2.489l8.998-8.998
				C80.01,30.141,80.003,30.131,79.994,30.122z"/>
		</g>
		<g>
			<g>
				<path style="fill:#FFEFED;" d="M68.435,43.021c-7.109-0.27-13.87-1.91-20.04-4.67c-2.21,0.88-4.199,2.18-5.869,3.81
					c8.974,4.728,18.902,7.106,29.51,6.89C71.234,46.8,70.005,44.76,68.435,43.021z"/>
			</g>
		</g>
		<g>
			<g>
				<path style="fill:#FFEFED;" d="M73.035,54.021c-11.49,0.42-23.03-2.095-33.62-7.83c-0.99,1.73-1.7,3.65-2.061,5.69
					c10.73,5.651,22.337,8.385,35,8.17c0.471-1.58,0.71-3.25,0.71-4.98C73.064,54.72,73.055,54.371,73.035,54.021z"/>
			</g>
		</g>
		<g>
			<path style="fill:#FFEFED;" d="M37.225,57.411c0.37,2.91,1.44,5.6,3.051,7.9c7.39,2.93,15.3,4.82,23.55,5.48
				c2.5-1.39,4.63-3.36,6.2-5.73C58.285,64.99,47.154,62.24,37.225,57.411z"/>
		</g>
		<g>
			<path style="fill:#FFFFFF;" d="M37.225,57.411c0.37,2.91,1.44,5.6,3.051,7.9c1.103,0.438,2.222,0.844,3.348,1.234l4.762-4.762
				C44.528,60.612,40.798,59.148,37.225,57.411z"/>
		</g>
		<g>
			<path style="fill:#FFFFFF;" d="M39.415,46.19c-0.99,1.73-1.7,3.65-2.061,5.691c4.739,2.496,9.792,4.467,15.079,5.854l4.994-4.995
				C51.039,51.436,44.984,49.207,39.415,46.19z"/>
		</g>
		<g>
			<path style="fill:#FFFFFF;" d="M42.525,42.161c5.903,3.11,12.379,5.259,19.219,6.263l5.48-5.479
				c-6.665-0.401-13.011-1.992-18.829-4.595C46.185,39.23,44.195,40.531,42.525,42.161z"/>
		</g>
	</g>
</g>
<g id="Yellow" style="display:none;">
	<g style="display:inline;">
		<g>
			<path style="fill:#FFF5D9;" d="M85.359,39.542c-4.771-1.839-2.157-6.211-5.365-9.419c-3.203-3.204-7.568-0.602-9.412-5.344
				c-0.133-0.345-0.447-0.587-0.813-0.63c-0.367-0.044-0.728,0.119-0.938,0.422c-2.392,3.44-3.076,8.272-2.357,12.089
				c1.506,0.107,3.229,1.002,4.597,2.54c1.251,1.406,1.913,3.036,1.97,4.458c3.828,0.925,8.823,0.345,12.551-2.376
				c0.296-0.216,0.449-0.576,0.401-0.938C85.943,39.98,85.701,39.673,85.359,39.542z"/>
		</g>
		<g>
			<path style="fill:#FFE9A1;" d="M71.078,46.877c0.363-0.121,0.705-0.283,0.991-0.537c1.65-1.468,1.202-4.666-1-7.141
				c-2.202-2.476-5.326-3.292-6.977-1.824c-0.477,0.424-0.758,1.001-0.894,1.653C66.584,40.749,69.348,43.5,71.078,46.877z"/>
		</g>
		<g>
			<path style="fill:#FFF5D9;" d="M39.061,70.942c-1.251-1.406-1.913-3.036-1.969-4.459c-3.829-0.926-8.824-0.345-12.553,2.376
				c-0.295,0.216-0.449,0.576-0.4,0.939c0.048,0.363,0.29,0.67,0.632,0.801c4.771,1.839,2.157,6.212,5.365,9.42
				c3.204,3.204,7.567,0.602,9.411,5.344c0.135,0.344,0.447,0.586,0.814,0.629c0.367,0.044,0.729-0.119,0.939-0.422
				c2.391-3.439,3.076-8.272,2.355-12.089C42.151,73.375,40.429,72.48,39.061,70.942z"/>
		</g>
		<g>
			<path style="fill:#FFE9A1;" d="M39.051,63.264c-0.362,0.121-0.704,0.282-0.99,0.537c-1.65,1.468-1.203,4.666,1,7.141
				c2.203,2.476,5.326,3.292,6.977,1.824c0.477-0.424,0.758-1.001,0.893-1.653C43.546,69.393,40.783,66.641,39.051,63.264z"/>
		</g>
		<g>
			<circle style="fill:#E07000;" cx="55.065" cy="55.07" r="18"/>
		</g>
		<g>
			<path style="fill:#FA9200;" d="M55.064,37.07c-9.94,0-18,8.059-18,18c0,4.979,2.023,9.485,5.29,12.744L67.809,42.36
				C64.55,39.093,60.044,37.07,55.064,37.07z"/>
		</g>
		<g>
			<path style="fill:#FFFFFF;" d="M39.061,70.942c-1.251-1.406-1.913-3.036-1.969-4.459c-3.829-0.926-8.824-0.345-12.553,2.376
				c-0.295,0.216-0.449,0.576-0.4,0.939c0.048,0.363,0.29,0.67,0.632,0.801c4.771,1.839,2.157,6.212,5.365,9.42
				c0.003,0.002,0.005,0.004,0.007,0.006l9-8.999C39.115,70.997,39.087,70.972,39.061,70.942z"/>
		</g>
		<g>
			<path style="fill:#FFF5D9;" d="M38.061,63.801c-1.65,1.468-1.203,4.666,1,7.141c0.026,0.03,0.057,0.053,0.084,0.082l3.221-3.221
				c-1.328-1.323-2.449-2.854-3.314-4.539C38.688,63.384,38.347,63.546,38.061,63.801z"/>
		</g>
		<g>
			<path style="fill:#FFF5D9;" d="M64.093,37.375c-0.477,0.424-0.758,1.001-0.894,1.653c1.709,0.869,3.258,2.001,4.598,3.344
				l3.223-3.223C68.819,36.716,65.731,35.917,64.093,37.375z"/>
		</g>
		<g>
			<path style="fill:#FFFFFF;" d="M79.994,30.122c-3.203-3.204-7.568-0.602-9.412-5.344c-0.133-0.345-0.447-0.587-0.813-0.63
				c-0.367-0.044-0.728,0.119-0.938,0.422c-2.392,3.44-3.076,8.272-2.357,12.089c1.488,0.105,3.188,0.984,4.548,2.489l8.998-8.998
				C80.01,30.141,80.003,30.131,79.994,30.122z"/>
		</g>
		<g>
			<g>
				<path style="fill:#FFF5D9;" d="M68.435,43.021c-7.109-0.27-13.87-1.91-20.04-4.67c-2.21,0.88-4.199,2.18-5.869,3.81
					c8.974,4.728,18.902,7.106,29.51,6.89C71.234,46.8,70.005,44.76,68.435,43.021z"/>
			</g>
		</g>
		<g>
			<g>
				<path style="fill:#FFF5D9;" d="M73.035,54.021c-11.49,0.42-23.03-2.095-33.62-7.83c-0.99,1.73-1.7,3.65-2.061,5.69
					c10.729,5.651,22.337,8.385,35,8.17c0.471-1.58,0.71-3.25,0.71-4.98C73.064,54.72,73.055,54.371,73.035,54.021z"/>
			</g>
		</g>
		<g>
			<path style="fill:#FFF5D9;" d="M37.225,57.411c0.37,2.91,1.44,5.6,3.051,7.9c7.39,2.93,15.3,4.82,23.55,5.48
				c2.5-1.39,4.63-3.36,6.2-5.73C58.285,64.99,47.154,62.24,37.225,57.411z"/>
		</g>
		<g>
			<path style="fill:#FFFFFF;" d="M37.225,57.411c0.37,2.91,1.44,5.6,3.051,7.9c1.104,0.438,2.222,0.844,3.348,1.234l4.762-4.762
				C44.528,60.612,40.798,59.148,37.225,57.411z"/>
		</g>
		<g>
			<path style="fill:#FFFFFF;" d="M39.415,46.19c-0.99,1.73-1.7,3.65-2.061,5.691c4.739,2.496,9.792,4.467,15.079,5.854l4.994-4.995
				C51.039,51.436,44.984,49.207,39.415,46.19z"/>
		</g>
		<g>
			<path style="fill:#FFFFFF;" d="M42.525,42.161c5.903,3.11,12.379,5.259,19.219,6.263l5.48-5.479
				c-6.665-0.401-13.011-1.992-18.829-4.595C46.186,39.23,44.195,40.531,42.525,42.161z"/>
		</g>
	</g>
</g>
<g id="R-Yellow" style="display:none;">
	<circle style="display:inline;fill:#FFD75E;" cx="55" cy="55" r="55"/>
	<g style="display:inline;">
		<g>
			<path style="fill:#FFF5D9;" d="M85.359,39.542c-4.771-1.839-2.157-6.211-5.365-9.419c-3.203-3.204-7.568-0.602-9.412-5.344
				c-0.133-0.345-0.447-0.587-0.813-0.63c-0.367-0.044-0.728,0.119-0.939,0.422c-2.392,3.44-3.076,8.272-2.357,12.089
				c1.506,0.107,3.229,1.002,4.597,2.54c1.251,1.406,1.913,3.036,1.97,4.458c3.828,0.925,8.823,0.345,12.551-2.376
				c0.296-0.216,0.449-0.576,0.401-0.938C85.943,39.98,85.701,39.673,85.359,39.542z"/>
		</g>
		<g>
			<path style="fill:#FFE9A1;" d="M71.078,46.877c0.363-0.121,0.705-0.283,0.991-0.537c1.65-1.468,1.202-4.666-1-7.141
				c-2.202-2.476-5.326-3.292-6.977-1.824c-0.477,0.424-0.758,1.001-0.894,1.653C66.584,40.749,69.348,43.5,71.078,46.877z"/>
		</g>
		<g>
			<path style="fill:#FFF5D9;" d="M39.06,70.942c-1.251-1.406-1.913-3.036-1.969-4.459c-3.829-0.926-8.824-0.345-12.553,2.376
				c-0.295,0.216-0.449,0.576-0.4,0.939c0.048,0.363,0.29,0.67,0.632,0.801c4.771,1.839,2.157,6.212,5.365,9.42
				c3.204,3.204,7.567,0.602,9.411,5.344c0.135,0.344,0.447,0.586,0.814,0.629c0.367,0.044,0.729-0.119,0.939-0.422
				c2.391-3.439,3.076-8.272,2.355-12.089C42.151,73.375,40.429,72.48,39.06,70.942z"/>
		</g>
		<g>
			<path style="fill:#FFE9A1;" d="M39.051,63.264c-0.362,0.121-0.704,0.282-0.99,0.537c-1.65,1.468-1.203,4.666,1,7.141
				c2.203,2.476,5.326,3.292,6.977,1.824c0.477-0.424,0.758-1.001,0.893-1.653C43.546,69.393,40.783,66.641,39.051,63.264z"/>
		</g>
		<g>
			<circle style="fill:#E07000;" cx="55.065" cy="55.07" r="18"/>
		</g>
		<g>
			<path style="fill:#FA9200;" d="M55.064,37.07c-9.94,0-18,8.059-18,18c0,4.979,2.023,9.485,5.29,12.744L67.809,42.36
				C64.55,39.093,60.044,37.07,55.064,37.07z"/>
		</g>
		<g>
			<path style="fill:#FFFFFF;" d="M39.06,70.942c-1.251-1.406-1.913-3.036-1.969-4.459c-3.829-0.926-8.824-0.345-12.553,2.376
				c-0.295,0.216-0.449,0.576-0.4,0.939c0.048,0.363,0.29,0.67,0.632,0.801c4.771,1.839,2.157,6.212,5.365,9.42
				c0.003,0.002,0.005,0.004,0.007,0.006l9-8.999C39.115,70.997,39.087,70.972,39.06,70.942z"/>
		</g>
		<g>
			<path style="fill:#FFF5D9;" d="M38.06,63.801c-1.65,1.468-1.203,4.666,1,7.141c0.026,0.03,0.057,0.053,0.084,0.082l3.221-3.221
				c-1.328-1.323-2.449-2.854-3.314-4.539C38.688,63.384,38.347,63.546,38.06,63.801z"/>
		</g>
		<g>
			<path style="fill:#FFF5D9;" d="M64.093,37.375c-0.477,0.424-0.758,1.001-0.894,1.653c1.709,0.869,3.258,2.001,4.598,3.344
				l3.223-3.223C68.819,36.716,65.731,35.917,64.093,37.375z"/>
		</g>
		<g>
			<path style="fill:#FFFFFF;" d="M79.994,30.122c-3.203-3.204-7.568-0.602-9.412-5.344c-0.133-0.345-0.447-0.587-0.813-0.63
				c-0.367-0.044-0.728,0.119-0.939,0.422c-2.392,3.44-3.076,8.272-2.357,12.089c1.488,0.105,3.188,0.984,4.548,2.489l8.998-8.998
				C80.01,30.141,80.003,30.131,79.994,30.122z"/>
		</g>
		<g>
			<g>
				<path style="fill:#FFF5D9;" d="M68.435,43.021c-7.109-0.27-13.87-1.91-20.04-4.67c-2.21,0.88-4.199,2.18-5.869,3.81
					c8.974,4.728,18.902,7.106,29.51,6.89C71.234,46.8,70.005,44.76,68.435,43.021z"/>
			</g>
		</g>
		<g>
			<g>
				<path style="fill:#FFF5D9;" d="M73.035,54.021c-11.49,0.42-23.03-2.095-33.62-7.83c-0.99,1.73-1.7,3.65-2.061,5.69
					c10.729,5.651,22.337,8.385,35,8.17c0.471-1.58,0.71-3.25,0.71-4.98C73.064,54.72,73.055,54.371,73.035,54.021z"/>
			</g>
		</g>
		<g>
			<path style="fill:#FFF5D9;" d="M37.225,57.411c0.37,2.91,1.44,5.6,3.051,7.9c7.39,2.93,15.3,4.82,23.55,5.48
				c2.5-1.39,4.63-3.36,6.2-5.73C58.285,64.99,47.154,62.24,37.225,57.411z"/>
		</g>
		<g>
			<path style="fill:#FFFFFF;" d="M37.225,57.411c0.37,2.91,1.44,5.6,3.051,7.9c1.104,0.438,2.222,0.844,3.348,1.234l4.762-4.762
				C44.528,60.612,40.798,59.148,37.225,57.411z"/>
		</g>
		<g>
			<path style="fill:#FFFFFF;" d="M39.415,46.19c-0.99,1.73-1.7,3.65-2.061,5.691c4.739,2.496,9.792,4.467,15.079,5.854l4.994-4.995
				C51.039,51.436,44.984,49.207,39.415,46.19z"/>
		</g>
		<g>
			<path style="fill:#FFFFFF;" d="M42.525,42.161c5.903,3.11,12.379,5.259,19.219,6.263l5.479-5.479
				c-6.665-0.401-13.011-1.992-18.829-4.595C46.185,39.23,44.195,40.531,42.525,42.161z"/>
		</g>
	</g>
</g>
</svg>
