<?xml version="1.0" encoding="iso-8859-1"?>
<!-- Generator: Adobe Illustrator 17.1.0, SVG Export Plug-In . SVG Version: 6.00 Build 0)  -->
<!DOCTYPE svg PUBLIC "-//W3C//DTD SVG 1.0//EN" "http://www.w3.org/TR/2001/REC-SVG-20010904/DTD/svg10.dtd">
<svg version="1.0" xmlns="http://www.w3.org/2000/svg" xmlns:xlink="http://www.w3.org/1999/xlink" x="0px" y="0px" width="110px"
	 height="110px" viewBox="0 0 110 110" style="enable-background:new 0 0 110 110;" xml:space="preserve">
<g id="Artboard">
</g>
<g id="Multicolor">
	<circle style="fill:#E04F5F;" cx="55" cy="55" r="55"/>
	<g>
		<g>
			<path style="fill:#3E3E3F;" d="M55.099,58.05c0.302,0.012,0.603,0.023,0.901,0.032c0.373,0.011,0.741,0.019,1.105,0.026
				c0.157-1.997,0.167-6.412-2.305-9.708c-0.331-0.442-0.958-0.531-1.4-0.2c-0.442,0.331-0.531,0.958-0.2,1.4
				C55.299,52.399,55.236,56.384,55.099,58.05z"/>
		</g>
		<g>
			<path style="fill:#F0F1F1;" d="M66,58c-1.36,0-5.365,0.22-10,0.082C50.409,57.916,43.9,57.229,40,55v10.699l-3.635,7.633
				c-0.92,2.008-0.039,4.383,1.969,5.303c0.541,0.248,1.107,0.355,1.666,0.355V87h16h16V73.695c1.837-1.648,3-5.033,3-7.695
				C75,61,71,58,66,58z"/>
		</g>
		<g>
			<path style="fill:#FFFFFF;" d="M40,55v10.699l-3.635,7.633c-0.92,2.008-0.039,4.383,1.969,5.303
				c0.541,0.248,1.107,0.355,1.666,0.355V87h16V58.082C50.409,57.916,43.9,57.229,40,55z"/>
		</g>
		<g>
			<path style="fill:#FACB1B;" d="M56,23c-9,4-14,11-14,20c0,6.954,4.184,10.912,9.312,12.356c-3-3.062-4.427-8.685,0.688-16.356
				c0.859,2.578,2.457,4.047,4,5.361c2.048,1.745,4,3.217,4,6.639c0,2.037-0.5,3.568-1.09,4.677C64.342,54.471,68,49.837,68,43
				C68,34.238,57,31,56,23z"/>
		</g>
	</g>
</g>
</svg>
