<?xml version="1.0" encoding="iso-8859-1"?>
<!-- Generator: Adobe Illustrator 17.1.0, SVG Export Plug-In . SVG Version: 6.00 Build 0)  -->
<!DOCTYPE svg PUBLIC "-//W3C//DTD SVG 1.0//EN" "http://www.w3.org/TR/2001/REC-SVG-20010904/DTD/svg10.dtd">
<svg version="1.0" xmlns="http://www.w3.org/2000/svg" xmlns:xlink="http://www.w3.org/1999/xlink" x="0px" y="0px" width="110px"
	 height="110px" viewBox="0 0 110 110" style="enable-background:new 0 0 110 110;" xml:space="preserve">
<g id="Artboard">
</g>
<g id="Multicolor">
	<circle style="fill:#E04F5F;" cx="55" cy="55" r="55"/>
	<g>
		<g>
			<path style="fill:#3E3E3F;" d="M78.666,38.518l-8.567-11.073c-0.079-0.102-0.144-0.21-0.2-0.321L29.265,51.282
				c-3.065,1.822-5.211,4.861-5.904,8.358c-0.693,3.498,0.133,7.125,2.271,9.978c2.197,2.931,5.564,4.659,8.88,4.97
				c3.907,0.307,7.271-1.003,9.759-3.333l34.67-32.448C78.842,38.723,78.749,38.626,78.666,38.518z"/>
		</g>
		<g>
			<path style="fill:#FACB1B;" d="M34.136,45.508c-1.632-1.435-4.163-2.941-7.636-2.941c-0.552,0-1,0.448-1,1s0.448,1,1,1
				c2.531,0,4.461,0.976,5.81,2.02L34.136,45.508z"/>
		</g>
		<g>
			<path style="fill:#3E3E3F;" d="M31.316,50.063l6.447-3.833l-0.238-0.402c-0.56-0.947-1.792-1.264-2.739-0.704l-3.013,1.781
				c-0.947,0.56-1.264,1.792-0.704,2.739L31.316,50.063z"/>
		</g>
		<g>
			<path style="fill:#5B5C5F;" d="M83.411,34.847l-8.567-11.073c-0.673-0.87-1.936-1.031-2.806-0.358l-1.582,1.224
				c-0.87,0.673-1.031,1.936-0.358,2.806l8.567,11.073c0.673,0.87,1.936,1.031,2.806,0.358l1.582-1.224
				C83.923,36.98,84.084,35.717,83.411,34.847z"/>
		</g>
		<g>
			<path style="fill:#5B5C5F;" d="M39.135,72.625l-14.459,9.43C23.754,82.655,23,84.047,23,85.147s0.861,1.738,1.913,1.417
				l17.983-5.473C40.881,78.759,39.532,75.842,39.135,72.625z"/>
		</g>
		<g>
			<circle style="fill:#F0F1F1;" cx="55" cy="70.648" r="16"/>
		</g>
		<g>
			<circle style="fill:#9E9FA0;" cx="55" cy="70.648" r="11"/>
		</g>
		<g>
			<circle style="fill:#3E3E3F;" cx="55" cy="70.648" r="4"/>
		</g>
		<g>
			<path style="fill:#9E9FA0;" d="M74.844,23.774c-0.673-0.87-1.936-1.031-2.806-0.358l-1.582,1.224
				c-0.87,0.673-1.031,1.936-0.358,2.806l4.402,5.69l4.786-3.619L74.844,23.774z"/>
		</g>
		<g>
			<path style="fill:#5B5C5F;" d="M70.099,27.445c-0.079-0.102-0.144-0.21-0.2-0.321L29.265,51.282
				c-3.065,1.822-5.211,4.861-5.904,8.358s0.133,7.125,2.271,9.978c0.075,0.101,0.163,0.188,0.241,0.286l48.628-36.77L70.099,27.445
				z"/>
		</g>
	</g>
</g>
</svg>
