<?xml version="1.0" encoding="iso-8859-1"?>
<!-- Generator: Adobe Illustrator 17.1.0, SVG Export Plug-In . SVG Version: 6.00 Build 0)  -->
<!DOCTYPE svg PUBLIC "-//W3C//DTD SVG 1.0//EN" "http://www.w3.org/TR/2001/REC-SVG-20010904/DTD/svg10.dtd">
<svg version="1.0" xmlns="http://www.w3.org/2000/svg" xmlns:xlink="http://www.w3.org/1999/xlink" x="0px" y="0px" width="110px"
	 height="110px" viewBox="0 0 110 110" style="enable-background:new 0 0 110 110;" xml:space="preserve">
<g id="Artboard">
</g>
<g id="Multicolor">
	<circle style="fill:#32BEA6;" cx="55" cy="55" r="55"/>
	<g>
		<g>
			<path style="fill:#0484AB;" d="M57,73c0-7.732,6.268-14,14-14c0.673,0,1.33,0.064,1.978,0.156C70.891,52.883,59.641,51,53,51
				c-19.701,0-19.113,5.931-27.741,30.08c-0.752,2.106,0.183,4.445,2.184,5.446c2.394,1.197,5.303,0.048,6.229-2.467L39,70l2,17h12
				h12l0.152-1.292C60.344,83.491,57,78.642,57,73z"/>
		</g>
		<circle style="fill:#DF2C2C;" cx="71" cy="73" r="14"/>
		<ellipse style="fill:#0484AB;" cx="53" cy="39" rx="13" ry="16"/>
		<path style="fill:#059BBF;" d="M40,39c0,8.836,5.82,16,13,16V23C45.82,23,40,30.164,40,39z"/>
		<path style="fill:#FFFFFF;" d="M40.529,83h20.694C58.62,80.462,57,76.924,57,73H39.353L40.529,83z"/>
		<polygon style="fill:#FFFFFF;" points="52.725,56 54.313,60.886 59.45,60.886 55.294,63.906 56.881,68.792 52.725,65.772 
			48.569,68.792 50.156,63.906 46,60.886 51.137,60.886 		"/>
		<circle style="fill:#0484AB;" cx="71" cy="73" r="10"/>
		<rect x="50" y="73" style="fill:#DF2C2C;" width="6" height="10"/>
		<polygon style="fill:#DF2C2C;" points="40.529,83 45.831,83 44.667,73 39.353,73 		"/>
		<path style="fill:#FBC8C8;" d="M63,49.148l-1.138-3.413C61.318,44.102,59.789,43,58.068,43h-9.728
			c-1.955,0-3.624,1.414-3.946,3.342l-0.657,3.942C46.091,53.196,49.349,55,52.951,55C57,55,60.616,52.72,63,49.148z"/>
		<path style="fill:#3E3E3F;" d="M55,36.917C55.416,38.682,56.992,40,58.884,40c2.209,0,4-1.791,4-4c0-0.731-0.21-1.406-0.553-1.996
			L55,36.917z"/>
		<path style="fill:#3E3E3F;" d="M51,36.913c-0.416,1.765-1.992,3.083-3.884,3.083c-2.209,0-4-1.791-4-4
			c0-0.731,0.21-1.406,0.553-1.996L51,36.913z"/>
		<g>
			<path style="fill:#DF2C2C;" d="M27.008,76.087c-0.543,1.574-1.12,3.229-1.75,4.992c-0.752,2.106,0.183,4.445,2.184,5.446
				c2.394,1.197,5.303,0.048,6.229-2.467l1.843-4.863L27.008,76.087z"/>
		</g>
		<g>
			<path style="fill:#FFFFFF;" d="M56.952,34h-2.303l-0.552-1.703H51.83L51.303,34H49l2.962-8.491h1.955L56.952,34z M53.582,30.39
				l-0.588-2.483h-0.06L52.31,30.39H53.582z"/>
		</g>
		<path style="fill:#FBD7D7;" d="M53,43h-4.661c-1.956,0-3.624,1.414-3.946,3.342l-0.657,3.942C46.091,53.196,49.349,55,52.951,55
			c0.017,0,0.033-0.003,0.049-0.003V43z"/>
		<path style="fill:#F79392;" d="M48,47h10c0,0,0,3-5,3S48,47,48,47z"/>
		<polygon style="fill:#FFFFFF;" points="71.275,66 72.863,70.886 78,70.886 73.844,73.906 75.431,78.792 71.275,75.772 
			67.119,78.792 68.706,73.906 64.55,70.886 69.687,70.886 		"/>
	</g>
</g>
</svg>
