<?xml version="1.0" encoding="iso-8859-1"?>
<!-- Generator: Adobe Illustrator 17.1.0, SVG Export Plug-In . SVG Version: 6.00 Build 0)  -->
<!DOCTYPE svg PUBLIC "-//W3C//DTD SVG 1.0//EN" "http://www.w3.org/TR/2001/REC-SVG-20010904/DTD/svg10.dtd">
<svg version="1.0" xmlns="http://www.w3.org/2000/svg" xmlns:xlink="http://www.w3.org/1999/xlink" x="0px" y="0px" width="110px"
	 height="110px" viewBox="0 0 110 110" style="enable-background:new 0 0 110 110;" xml:space="preserve">
<g id="Artboard">
</g>
<g id="Multicolor">
	<circle style="fill:#E04F5F;" cx="55" cy="55" r="55"/>
	<g>
		<g>
			<g>
				<path style="fill:#FACB1B;" d="M49,63c0.089-0.474,2.269-12.094,2.39-12.74c0.35-1.89,2-3.26,3.93-3.26h11.31
					c0.25-1.3,0.37-2.63,0.37-4c0-5-3-9-3-9s0.17,6.96-3,9c0-11-11.96-16-11.96-16S51,35,48,38c0-12-16-15-16-15c6,10-7,16,0,27
					c-5,0-9-7-9-7c0,11.999,9.608,21.748,21.55,21.989C45.648,63.771,47.233,63,49,63z"/>
			</g>
		</g>
		<g>
			<path style="fill:#FA5655;" d="M49.03,62.84c0.274-1.461,2.245-11.967,2.36-12.58c0.35-1.89,2-3.26,3.93-3.26h4.36
				c-1.02-4.59-4.35-7.17-7.68-8c0,0,1,5-4,8c0-8-10-9-10-9c2,4-4,8,3,15c0,0-1.46,2.67-6.01,2c1.96,4.7,6.6,8,12.01,8
				C47.69,63,48.37,62.95,49.03,62.84z"/>
		</g>
		<g>
			<g>
				<path style="fill:#21B2D1;" d="M84.91,68c-0.47-2.84-2.94-5-5.91-5l-2.39-12.74c-0.35-1.89-2-3.26-3.93-3.26H55.32
					c-1.93,0-3.58,1.37-3.93,3.26C51.269,50.905,49.089,62.526,49,63c-3.31,0-6,2.69-6,6v5h42C85,69.33,85.057,68.786,84.91,68z
					 M53,63c0.361-2.15,0.068-0.391,1.44-8.66c0.32-1.93,1.99-3.34,3.95-3.34h11.22c1.96,0,3.63,1.41,3.95,3.34L75,63H53z"/>
			</g>
			<g>
				<path style="fill:#3E3E3F;" d="M75,80v5c0,1.104,0.896,2,2,2h4c1.104,0,2-0.896,2-2v-5H75z"/>
			</g>
			<g>
				<path style="fill:#3E3E3F;" d="M45,80v5c0,1.104,0.896,2,2,2h4c1.104,0,2-0.896,2-2v-5H45z"/>
			</g>
			<g>
				<path style="fill:#E2E4E5;" d="M87,76c0-1.105-0.895-2-2-2H43c-1.105,0-2,0.895-2,2v2c0,1.105,0.895,2,2,2h42
					c1.105,0,2-0.895,2-2V76z"/>
			</g>
			<g>
				<circle style="fill:#FBE158;" cx="79" cy="70" r="3"/>
			</g>
			<g>
				<path style="fill:#FFFFFF;" d="M85,74H43c-1.104,0-2,0.896-2,2v1h46v-1C87,74.896,86.104,74,85,74z"/>
			</g>
			<g>
				<path style="fill:#FBEC9A;" d="M79,67c-1.657,0-3,1.343-3,3c0,0.857,0.364,1.625,0.94,2.172l4.232-4.232
					C80.625,67.364,79.857,67,79,67z"/>
			</g>
			<g>
				<path style="fill:#40C9E7;" d="M51.39,50.26C51.269,50.906,49.089,62.526,49,63c-3.31,0-6,2.69-6,6v5h2.113l11-11H53
					c0.361-2.15,0.068-0.391,1.44-8.66c0.32-1.93,1.99-3.34,3.95-3.34h9.723l4-4H55.32C53.39,47,51.74,48.37,51.39,50.26z"/>
			</g>
			<g>
				<circle style="fill:#FBE158;" cx="49" cy="70" r="3"/>
			</g>
			<g>
				<path style="fill:#FBEC9A;" d="M49,67c-1.657,0-3,1.343-3,3c0,0.857,0.364,1.625,0.94,2.172l4.232-4.232
					C50.625,67.364,49.857,67,49,67z"/>
			</g>
			<g>
				<g>
					<path style="fill:#6FDAF1;" d="M69.61,51H58.39c-1.96,0-3.63,1.41-3.95,3.34C53.066,62.621,53.36,60.853,53,63h22l-1.44-8.66
						C73.24,52.41,71.57,51,69.61,51z"/>
				</g>
				<g>
					<path style="fill:#6FDAF1;" d="M53,63c0.361-2.15,0.068-0.391,1.44-8.66c0.32-1.93,1.99-3.34,3.95-3.34h11.22
						c1.96,0,3.63,1.41,3.95,3.34L75,63H53z"/>
				</g>
			</g>
			<g>
				<path style="fill:#9CE5F4;" d="M54.44,54.34C53.145,62.145,53.309,61.158,53,63h3.113l12-12H58.39
					C56.43,51,54.76,52.41,54.44,54.34z"/>
			</g>
		</g>
	</g>
</g>
</svg>
