<?xml version="1.0" encoding="iso-8859-1"?>
<!-- Generator: Adobe Illustrator 17.1.0, SVG Export Plug-In . SVG Version: 6.00 Build 0)  -->
<!DOCTYPE svg PUBLIC "-//W3C//DTD SVG 1.0//EN" "http://www.w3.org/TR/2001/REC-SVG-20010904/DTD/svg10.dtd">
<svg version="1.0" xmlns="http://www.w3.org/2000/svg" xmlns:xlink="http://www.w3.org/1999/xlink" x="0px" y="0px" width="110px"
	 height="110px" viewBox="0 0 110 110" style="enable-background:new 0 0 110 110;" xml:space="preserve">
<g id="Artboard">
</g>
<g id="Multicolor">
	<circle style="fill:#32BEA6;" cx="55" cy="55" r="55"/>
	<g>
		<g>
			<path style="fill:#DF2C2C;" d="M78.109,42.406l-10.605-7.07C67.175,35.117,66.789,35,66.395,35H47c-1.104,0-2,0.896-2,2v6H34
				c-1.104,0-2,0.896-2,2v40c0,1.055,0.87,2,2,2h43c1.104,0,2-0.896,2-2V44.07C79,43.401,78.666,42.777,78.109,42.406z
				 M71.879,47.227C71.549,48.241,70.603,49,69.536,49H53.464C52.103,49,51,47.754,51,46.393V43c0-1.361,1.103-2,2.464-2H64
				c0.521,0,1.028-0.067,1.449,0.239l5.536,3.312C71.848,45.18,72.209,46.211,71.879,47.227z"/>
		</g>
		<g>
			<g>
				<path style="fill:#FFFFFF;" d="M40,39h-4c0-11.864-7.673-12-8-12v-4C28.12,23,40,23.183,40,39z"/>
			</g>
		</g>
		<g>
			<path style="fill:#3E3E3F;" d="M34,43h9v-6H33v6.277C33.295,43.106,33.634,43,34,43z"/>
		</g>
		<g>
			<path style="fill:#5B5C5F;" d="M34,43h4v-6h-5v6.277C33.295,43.106,33.634,43,34,43z"/>
		</g>
		<g>
			<path style="fill:#FA5655;" d="M57.937,68.475l9.119-9.119c0.673-0.673,0.673-1.764,0-2.437c-0.672-0.673-1.764-0.673-2.436,0
				L55.5,66.038l-9.119-9.119c-0.672-0.673-1.764-0.673-2.436,0c-0.673,0.673-0.673,1.764,0,2.437l9.119,9.119l-9.119,9.119
				c-0.673,0.673-0.673,1.764,0,2.437c0.336,0.336,0.777,0.504,1.218,0.504c0.441,0,0.882-0.168,1.218-0.504l9.119-9.12l9.119,9.12
				c0.336,0.336,0.777,0.504,1.218,0.504c0.441,0,0.882-0.168,1.218-0.504c0.673-0.673,0.673-1.764,0-2.437L57.937,68.475z"/>
		</g>
		<g>
			<path style="fill:#FA5655;" d="M51,46.188V43c0-1.361,1.103-2,2.464-2h2.723l6-6H47c-1.104,0-2,0.896-2,2v6H34
				c-1.104,0-2,0.896-2,2v20.188L51,46.188z"/>
		</g>
	</g>
</g>
</svg>
