<?xml version="1.0" encoding="iso-8859-1"?>
<!-- Generator: Adobe Illustrator 17.1.0, SVG Export Plug-In . SVG Version: 6.00 Build 0)  -->
<!DOCTYPE svg PUBLIC "-//W3C//DTD SVG 1.0//EN" "http://www.w3.org/TR/2001/REC-SVG-20010904/DTD/svg10.dtd">
<svg version="1.0" xmlns="http://www.w3.org/2000/svg" xmlns:xlink="http://www.w3.org/1999/xlink" x="0px" y="0px" width="110px"
	 height="110px" viewBox="0 0 110 110" style="enable-background:new 0 0 110 110;" xml:space="preserve">
<g id="Artboard">
</g>
<g id="Multicolor">
	<circle style="fill:#E04F5F;" cx="55" cy="55" r="55"/>
	<g>
		<path style="fill:#FFFFFF;" d="M71.208,68.048c-0.088-0.336-0.394-0.568-0.741-0.564c-2.733,0.034-4.973-1.909-5.003-4.338
			c-0.029-2.43,2.162-4.426,4.895-4.459c0.347-0.004,0.647-0.244,0.727-0.582c0.08-0.338-0.079-0.687-0.388-0.846
			c-0.931-0.484-1.992-0.752-3.116-0.738c-2.872,0.035-5.285,1.903-6.161,4.475l-10.666,0.13c-0.938-2.55-3.397-4.358-6.269-4.324
			c-1.124,0.014-2.177,0.308-3.097,0.814c-0.303,0.167-0.455,0.52-0.367,0.855c0.089,0.335,0.394,0.568,0.741,0.564
			c2.733-0.034,4.973,1.909,5.002,4.338c0.03,2.43-2.162,4.426-4.895,4.46c-0.347,0.004-0.647,0.243-0.727,0.581
			c-0.08,0.338,0.08,0.687,0.388,0.847c0.932,0.483,1.993,0.751,3.116,0.738c2.872-0.035,5.286-1.903,6.161-4.475l10.665-0.13
			c0.938,2.55,3.397,4.358,6.269,4.323c1.123-0.014,2.177-0.307,3.097-0.814C71.146,68.736,71.297,68.383,71.208,68.048z"/>
		<g>
			<g>
				<path style="fill:#FACB1B;" d="M79,56c0,13.233-10.766,24-24,24S31,69.233,31,56s10.766-24,24-24
					c7.26,0,13.972,3.198,18.555,8.792L68,47h17V28l-6.062,6.775C72.862,27.904,64.265,24,55,24c-17.645,0-32,14.355-32,32
					s14.355,32,32,32s32-14.355,32-32H79z"/>
			</g>
		</g>
		<g>
			<g>
				<path style="fill:#FFFFFF;" d="M51.333,47.291c-1.601,1.256-1.868,2.23-1.868,3.04h5.034v2.13h-7.434v-1.22
					c0-0.671,0.042-1.255,0.125-1.752c0.276-1.634,1.196-2.654,2.585-3.804c1-0.815,3.591-2.723,1.791-4.163
					c-0.883-0.706-2.316-0.434-3.339,1.181l-1.549-1.53c0.796-1.284,2.206-2.13,4.046-2.13c1.201,0,2.114,0.297,2.74,0.891
					c0.626,0.594,0.939,1.375,0.939,2.343C54.402,43.89,54.16,45.075,51.333,47.291z"/>
			</g>
			<g>
				<path style="fill:#FFFFFF;" d="M62.785,46.788h1.723v2.13h-1.723v3.543h-2.401v-3.543h-4.685V47.33l3.523-8.034h3.562V46.788z
					 M60.384,41.406h-0.097l-1.936,5.382h2.033V41.406z"/>
			</g>
		</g>
		<g>
			<path style="fill:#FBE158;" d="M23,56c0,7.511,2.607,14.419,6.956,19.885l5.7-5.7C32.732,66.208,31,61.303,31,56
				c0-13.233,10.766-24,24-24c5.208,0,10.13,1.654,14.191,4.649l5.708-5.707C69.308,26.476,62.368,24,55,24
				C37.355,24,23,38.355,23,56z"/>
		</g>
	</g>
</g>
</svg>
