<?xml version="1.0" encoding="iso-8859-1"?>
<!-- Generator: Adobe Illustrator 17.1.0, SVG Export Plug-In . SVG Version: 6.00 Build 0)  -->
<!DOCTYPE svg PUBLIC "-//W3C//DTD SVG 1.0//EN" "http://www.w3.org/TR/2001/REC-SVG-20010904/DTD/svg10.dtd">
<svg version="1.0" xmlns="http://www.w3.org/2000/svg" xmlns:xlink="http://www.w3.org/1999/xlink" x="0px" y="0px" width="110px"
	 height="110px" viewBox="0 0 110 110" style="enable-background:new 0 0 110 110;" xml:space="preserve">
<g id="Artboard">
</g>
<g id="Multicolor">
	<circle style="fill:#25B7D3;" cx="55" cy="55" r="55"/>
	<g>
		<g>
			<g>
				<path style="fill:#F3B607;" d="M55.302,39H60v-2h4v2h2.5l1.5-2h4v2h4l3.33-4H56C56,36.405,55.746,37.747,55.302,39z"/>
			</g>
			<g>
				<path style="fill:#FACB1B;" d="M76,29H54.382c-2.076-3.583-5.943-6-10.382-6c-6.627,0-12,5.373-12,12s5.373,12,12,12
					s12-5.373,12-12h23.33L81,33L76,29z M43,39.577c0,0.337-0.169,0.652-0.452,0.837c-0.282,0.185-0.639,0.215-0.948,0.08
					C39.482,39.569,38,37.46,38,35c0-2.459,1.481-4.569,3.6-5.494c0.309-0.135,0.666-0.105,0.948,0.079
					C42.83,29.771,43,30.085,43,30.422V39.577z"/>
			</g>
			<g>
				<path style="fill:#FBE158;" d="M51.915,26.024C49.802,24.155,47.044,23,44,23c-6.627,0-12,5.373-12,12
					c0,3.044,1.142,5.814,3.01,7.93l4.263-4.263C38.483,37.652,38,36.387,38,35c0-2.459,1.481-4.569,3.6-5.494
					c0.309-0.135,0.666-0.105,0.948,0.079C42.83,29.771,43,30.085,43,30.422v4.518L51.915,26.024z"/>
			</g>
		</g>
		<g>
			<path style="fill:#DF2C2C;" d="M76.66,68.638c-0.453-2.738-2.835-4.821-5.698-4.821l-2.304-12.283
				c-0.337-1.822-1.928-3.143-3.789-3.143H48.131c-1.861,0-3.452,1.321-3.789,3.143c-0.117,0.622-2.218,11.826-2.304,12.283
				c-3.191,0-5.785,2.593-5.785,5.785v4.821h40.493C76.747,69.92,76.802,69.396,76.66,68.638z M45.895,63.817
				c0.348-2.073,0.065-0.377,1.388-8.349c0.309-1.861,1.919-3.22,3.808-3.22h10.818c1.89,0,3.5,1.359,3.808,3.22l1.388,8.349H45.895
				z"/>
		</g>
		<g>
			<path style="fill:#3E3E3F;" d="M67.105,80.208v4.821c0,1.065,0.863,1.928,1.928,1.928h3.857c1.065,0,1.928-0.863,1.928-1.928
				v-4.821H67.105z"/>
		</g>
		<g>
			<path style="fill:#3E3E3F;" d="M38.182,80.208v4.821c0,1.065,0.863,1.928,1.928,1.928h3.857c1.065,0,1.928-0.863,1.928-1.928
				v-4.821H38.182z"/>
		</g>
		<g>
			<path style="fill:#E2E4E5;" d="M78.675,76.351c0-1.065-0.863-1.928-1.928-1.928H36.253c-1.065,0-1.928,0.863-1.928,1.928v1.928
				c0,1.065,0.863,1.928,1.928,1.928h40.493c1.065,0,1.928-0.863,1.928-1.928V76.351z"/>
		</g>
		<g>
			<circle style="fill:#FBE158;" cx="70.962" cy="70.566" r="2.892"/>
		</g>
		<g>
			<path style="fill:#FFFFFF;" d="M76.747,74.423H36.253c-1.065,0-1.928,0.863-1.928,1.928v0.964h44.35v-0.964
				C78.675,75.286,77.812,74.423,76.747,74.423z"/>
		</g>
		<g>
			<path style="fill:#FBEC9A;" d="M70.962,67.674c-1.597,0-2.892,1.295-2.892,2.892c0,0.826,0.351,1.567,0.907,2.094l4.08-4.08
				C72.529,68.025,71.788,67.674,70.962,67.674z"/>
		</g>
		<g>
			<path style="fill:#FA5655;" d="M44.342,51.534c-0.117,0.622-2.218,11.826-2.304,12.283c-3.191,0-5.785,2.593-5.785,5.785v4.821
				h2.037l10.605-10.605h-3.001c0.348-2.073,0.065-0.377,1.388-8.35c0.309-1.861,1.919-3.22,3.809-3.22h9.374l3.857-3.857h-16.19
				C46.271,48.391,44.68,49.712,44.342,51.534z"/>
		</g>
		<g>
			<circle style="fill:#FBE158;" cx="42.038" cy="70.566" r="2.892"/>
		</g>
		<g>
			<path style="fill:#FBEC9A;" d="M42.038,67.674c-1.597,0-2.892,1.295-2.892,2.892c0,0.826,0.351,1.567,0.907,2.094l4.08-4.08
				C43.605,68.025,42.864,67.674,42.038,67.674z"/>
		</g>
		<g>
			<g>
				<path style="fill:#6FDAF1;" d="M61.909,52.248H51.091c-1.89,0-3.5,1.359-3.808,3.22c-1.325,7.984-1.041,6.28-1.388,8.35h21.211
					l-1.388-8.35C65.409,53.607,63.799,52.248,61.909,52.248z"/>
			</g>
			<g>
				<path style="fill:#6FDAF1;" d="M45.895,63.817c0.348-2.073,0.065-0.377,1.388-8.35c0.309-1.861,1.919-3.22,3.808-3.22h10.818
					c1.89,0,3.5,1.359,3.808,3.22l1.388,8.35H45.895z"/>
			</g>
		</g>
		<g>
			<path style="fill:#9CE5F4;" d="M47.283,55.468c-1.248,7.525-1.09,6.573-1.388,8.35h3.001l11.57-11.57h-9.374
				C49.201,52.248,47.591,53.607,47.283,55.468z"/>
		</g>
	</g>
</g>
</svg>
