<?xml version="1.0" encoding="iso-8859-1"?>
<!-- Generator: Adobe Illustrator 17.1.0, SVG Export Plug-In . SVG Version: 6.00 Build 0)  -->
<!DOCTYPE svg PUBLIC "-//W3C//DTD SVG 1.0//EN" "http://www.w3.org/TR/2001/REC-SVG-20010904/DTD/svg10.dtd">
<svg version="1.0" xmlns="http://www.w3.org/2000/svg" xmlns:xlink="http://www.w3.org/1999/xlink" x="0px" y="0px" width="110px"
	 height="110px" viewBox="0 0 110 110" style="enable-background:new 0 0 110 110;" xml:space="preserve">
<g id="Artboard">
</g>
<g id="Multicolor">
	<circle style="fill:#25B7D3;" cx="55" cy="55" r="55"/>
	<g>
		<g>
			<path style="fill:#DF2C2C;" d="M73.821,69.921c-0.423-2.553-2.643-4.495-5.313-4.495L66.36,53.974
				c-0.315-1.699-1.798-2.93-3.533-2.93H47.222c-1.735,0-3.218,1.232-3.533,2.93c-0.109,0.58-2.068,11.026-2.148,11.452
				c-2.975,0-5.393,2.418-5.393,5.393v4.495h37.754C73.902,71.116,73.954,70.627,73.821,69.921z M45.137,65.426
				c0.324-1.933,0.061-0.352,1.294-7.785c0.288-1.735,1.789-3.002,3.551-3.002h10.086c1.762,0,3.263,1.267,3.551,3.002l1.294,7.785
				H45.137z"/>
		</g>
		<g>
			<path style="fill:#3E3E3F;" d="M64.913,80.708v4.495c0,0.993,0.805,1.798,1.798,1.798h3.596c0.993,0,1.798-0.805,1.798-1.798
				v-4.495H64.913z"/>
		</g>
		<g>
			<path style="fill:#3E3E3F;" d="M37.946,80.708v4.495c0,0.993,0.805,1.798,1.798,1.798h3.596c0.993,0,1.798-0.805,1.798-1.798
				v-4.495H37.946z"/>
		</g>
		<g>
			<path style="fill:#E2E4E5;" d="M75.7,77.112c0-0.993-0.805-1.798-1.798-1.798H36.148c-0.993,0-1.798,0.805-1.798,1.798v1.798
				c0,0.993,0.805,1.798,1.798,1.798h37.754c0.993,0,1.798-0.805,1.798-1.798V77.112z"/>
		</g>
		<g>
			<circle style="fill:#FBE158;" cx="68.509" cy="71.718" r="2.697"/>
		</g>
		<g>
			<path style="fill:#FFFFFF;" d="M73.902,75.314H36.148c-0.993,0-1.798,0.805-1.798,1.798v0.899H75.7v-0.899
				C75.7,76.119,74.895,75.314,73.902,75.314z"/>
		</g>
		<g>
			<path style="fill:#FBEC9A;" d="M68.509,69.022c-1.489,0-2.697,1.207-2.697,2.697c0,0.771,0.327,1.461,0.845,1.953l3.804-3.804
				C69.97,69.349,69.279,69.022,68.509,69.022z"/>
		</g>
		<g>
			<path style="fill:#FA5655;" d="M43.69,53.974c-0.109,0.58-2.068,11.026-2.149,11.452c-2.975,0-5.393,2.418-5.393,5.393v4.495
				h1.899l9.888-9.888h-2.798c0.324-1.933,0.061-0.352,1.294-7.785c0.288-1.735,1.789-3.002,3.551-3.002h8.74l3.596-3.596H47.222
				C45.488,51.043,44.004,52.275,43.69,53.974z"/>
		</g>
		<g>
			<circle style="fill:#FBE158;" cx="41.541" cy="71.718" r="2.697"/>
		</g>
		<g>
			<path style="fill:#FBEC9A;" d="M41.541,69.022c-1.489,0-2.697,1.207-2.697,2.697c0,0.771,0.327,1.461,0.845,1.953l3.804-3.804
				C43.002,69.349,42.312,69.022,41.541,69.022z"/>
		</g>
		<g>
			<g>
				<path style="fill:#6FDAF1;" d="M60.068,54.639H49.982c-1.762,0-3.263,1.267-3.551,3.002c-1.235,7.444-0.971,5.855-1.294,7.785
					h19.776l-1.294-7.785C63.331,55.907,61.83,54.639,60.068,54.639z"/>
			</g>
			<g>
				<path style="fill:#6FDAF1;" d="M45.137,65.426c0.324-1.933,0.061-0.352,1.294-7.785c0.288-1.735,1.789-3.002,3.551-3.002h10.086
					c1.762,0,3.263,1.267,3.551,3.002l1.294,7.785H45.137z"/>
			</g>
		</g>
		<g>
			<path style="fill:#9CE5F4;" d="M46.431,57.641c-1.164,7.016-1.016,6.129-1.294,7.785h2.798l10.787-10.787h-8.74
				C48.22,54.639,46.719,55.907,46.431,57.641z"/>
		</g>
		<g>
			<path style="fill:#9CE5F4;" d="M57.324,30.477c0,1.325-1.075,2.4-2.4,2.4c-1.325,0-2.4-1.075-2.4-2.4s2.4-5.6,2.4-5.6
				S57.324,29.152,57.324,30.477z"/>
		</g>
		<g>
			<path style="fill:#9CE5F4;" d="M57.324,44.477c0,1.325-1.075,2.4-2.4,2.4c-1.325,0-2.4-1.075-2.4-2.4c0-1.325,2.4-5.6,2.4-5.6
				S57.324,43.152,57.324,44.477z"/>
		</g>
		<g>
			<path style="fill:#9CE5F4;" d="M48.213,29.216c-0.464,1.242-1.847,1.872-3.088,1.408c-1.242-0.464-1.872-1.847-1.408-3.088
				c0.464-1.242,4.208-4.406,4.208-4.406S48.676,27.975,48.213,29.216z"/>
		</g>
		<g>
			<path style="fill:#9CE5F4;" d="M61.636,29.216c0.464,1.242,1.847,1.872,3.088,1.408c1.242-0.464,1.872-1.847,1.408-3.088
				c-0.464-1.242-4.208-4.406-4.208-4.406S61.172,27.975,61.636,29.216z"/>
		</g>
		<g>
			<path style="fill:#9CE5F4;" d="M62.276,43.963c0.464,1.242,1.847,1.872,3.088,1.408c1.242-0.464,1.872-1.847,1.408-3.088
				s-4.208-4.406-4.208-4.406S61.812,42.722,62.276,43.963z"/>
		</g>
		<g>
			<path style="fill:#9CE5F4;" d="M72.399,40.97c0.529,1.215,1.944,1.771,3.159,1.242c1.215-0.529,1.771-1.944,1.242-3.159
				c-0.529-1.215-4.437-4.176-4.437-4.176S71.87,39.755,72.399,40.97z"/>
		</g>
		<g>
			<path style="fill:#9CE5F4;" d="M37.45,40.97c-0.529,1.215-1.944,1.771-3.159,1.242s-1.771-1.944-1.242-3.159
				c0.529-1.215,4.437-4.176,4.437-4.176S37.979,39.755,37.45,40.97z"/>
		</g>
		<g>
			<path style="fill:#9CE5F4;" d="M47.573,43.963c-0.464,1.242-1.847,1.872-3.088,1.408c-1.242-0.464-1.872-1.847-1.408-3.088
				c0.464-1.242,4.208-4.406,4.208-4.406S48.037,42.722,47.573,43.963z"/>
		</g>
	</g>
</g>
</svg>
