<?xml version="1.0" encoding="iso-8859-1"?>
<!-- Generator: Adobe Illustrator 17.1.0, SVG Export Plug-In . SVG Version: 6.00 Build 0)  -->
<!DOCTYPE svg PUBLIC "-//W3C//DTD SVG 1.0//EN" "http://www.w3.org/TR/2001/REC-SVG-20010904/DTD/svg10.dtd">
<svg version="1.0" xmlns="http://www.w3.org/2000/svg" xmlns:xlink="http://www.w3.org/1999/xlink" x="0px" y="0px" width="110px"
	 height="110px" viewBox="0 0 110 110" style="enable-background:new 0 0 110 110;" xml:space="preserve">
<g id="Artboard">
</g>
<g id="Multicolor">
	<circle style="fill:#32BEA6;" cx="55" cy="55" r="55"/>
	<g>
		<g>
			<path style="fill:#3E3E3F;" d="M32.454,59.666C32.157,58.479,32,57.251,32,56c0-8.271,6.729-15,15-15
				c3.383,0,6.631,1.176,9.247,3.225c1.524-0.504,3.048-0.929,4.56-1.268C57.242,39.193,52.238,37,47,37c-10.477,0-19,8.523-19,19
				c0,2.574,0.512,5.071,1.493,7.39C30.395,62.113,31.383,60.868,32.454,59.666z"/>
		</g>
		<g>
			<path style="fill:#DF2C2C;" d="M27,85.002c0,1.105,0.895,2,2,2h32c1.105,0,2-0.895,2-2V68.677c0-0.852-0.54-1.61-1.344-1.889
				C57.185,65.235,58.33,55.672,62,52.002c4-4,10-7,19-3l1-3c-13.882-10.907-44,2-54.445,20.418C27.301,66.868,27,67.287,27,67.802
				V85.002z"/>
		</g>
		<g>
			<path style="fill:#FACB1B;" d="M87,73.002c0,3.314-2.686,6-6,6s-6-2.686-6-6s6-18,6-18S87,69.688,87,73.002z"/>
		</g>
		<g>
			<path style="fill:#FA5655;" d="M65.977,42.143C51.726,43.4,34.847,53.561,27.555,66.419C27.301,66.868,27,67.287,27,67.802V81.12
				L65.977,42.143z"/>
		</g>
		<g>
			<path style="fill:#FFFFFF;" d="M33.617,71.684c0-2.579,2.31-3.845,4.636-3.845s4.652,1.281,4.652,3.845v3.829
				c0,2.563-2.31,3.845-4.636,3.845c-2.326,0-4.652-1.282-4.652-3.845V71.684z M36.449,75.513c0,0.823,0.917,1.218,1.819,1.218
				s1.804-0.411,1.804-1.218v-3.829c0-0.87-0.934-1.266-1.852-1.266c-0.886,0-1.772,0.443-1.772,1.266V75.513z"/>
			<path style="fill:#FFFFFF;" d="M47.241,79.2h-2.832V67.997h2.832V79.2z"/>
			<path style="fill:#FFFFFF;" d="M49.013,67.997h2.848v8.402h4.557V79.2h-7.405V67.997z"/>
		</g>
		<path style="fill:#FBE158;" d="M75,73.002c0,3.313,2.686,6,6,6v-24C81,55.002,75,69.688,75,73.002z"/>
	</g>
</g>
</svg>
