<?xml version="1.0" encoding="iso-8859-1"?>
<!-- Generator: Adobe Illustrator 17.1.0, SVG Export Plug-In . SVG Version: 6.00 Build 0)  -->
<!DOCTYPE svg PUBLIC "-//W3C//DTD SVG 1.0//EN" "http://www.w3.org/TR/2001/REC-SVG-20010904/DTD/svg10.dtd">
<svg version="1.0" xmlns="http://www.w3.org/2000/svg" xmlns:xlink="http://www.w3.org/1999/xlink" x="0px" y="0px" width="110px"
	 height="110px" viewBox="0 0 110 110" style="enable-background:new 0 0 110 110;" xml:space="preserve">
<g id="Artboard">
</g>
<g id="Multicolor">
	<circle style="fill:#FABC3D;" cx="55" cy="55" r="55"/>
	<g>
		<g>
			<path style="fill:#0484AB;" d="M83,55l-9-13.7c-0.66-1.41-2.07-2.3-3.62-2.3H48.56c-1.51,0-2.9,0.86-3.58,2.21L36.88,53
				c-0.4,0.81-1.07,1.46-1.88,1.84c-0.41,0.17-9.38,2.99-9.76,3.16C24.07,58.55,24,60.11,24,61c0,0.084,0.006,2.914,0.004,4.277
				l0.001,0C23.416,65.619,23,66.247,23,67v4c0,1.1,0.9,2,2,2h12h46c2.21,0,4-1.79,4-4V59C87,56.79,85.21,55,83,55z"/>
		</g>
		<g>
			<path style="fill:#059BBF;" d="M48.56,39c-1.51,0-2.9,0.86-3.58,2.21L36.88,53c-0.4,0.81-1.07,1.46-1.88,1.84
				c-0.41,0.17-9.38,2.99-9.76,3.16C24.07,58.55,24,60.11,24,61c0,0.084,0.006,2.914,0.004,4.277l0.001,0
				C23.416,65.619,23,66.247,23,67v4c0,1.1,0.9,2,2,2h0.917l34-34H48.56z"/>
		</g>
		<g>
			<circle style="fill:#3E3E3F;" cx="73" cy="72" r="7"/>
		</g>
		<g>
			<circle style="fill:#FFFFFF;" cx="73" cy="72" r="3"/>
		</g>
		<g>
			<path style="fill:#FBEC9A;" d="M87,65h-4v-3c0-0.552,0.448-1,1-1h3V65z"/>
		</g>
		<g>
			<path style="fill:#F99134;" d="M87,69h-3c-0.552,0-1-0.448-1-1v-3h4V69z"/>
		</g>
		<g>
			<path style="fill:#FBEC9A;" d="M24.004,65.277C24.302,65.104,24.641,65,25,65h8v-2c0-1.104-0.895-2-2-2h-7
				C24,61.084,24.006,63.914,24.004,65.277z"/>
		</g>
		<g>
			<path style="fill:#E2E4E5;" d="M30,72c0-3.866,3.134-7,7-7H25c-1.068,0-2,0.867-2,2v4c0,1.1,0.9,2,2,2h5.08
				C30.032,72.673,30,72.34,30,72z"/>
		</g>
		<g>
			<circle style="fill:#3E3E3F;" cx="37" cy="72" r="7"/>
		</g>
		<g>
			<circle style="fill:#FFFFFF;" cx="37" cy="72" r="3"/>
		</g>
		<g>
			<path style="fill:#F99134;" d="M31,61h-2v4h4v-2C33,61.896,32.105,61,31,61z"/>
		</g>
		<g>
			<rect x="51" y="60" style="fill:#21B2D1;" width="6" height="2"/>
		</g>
		<g>
			<path style="fill:#40C9E7;" d="M77.703,51.952l-5.912-9C71.427,42.36,70.783,42,70.088,42H61v13h15
				c0.725,0,1.392-0.392,1.746-1.024C78.099,53.343,78.083,52.569,77.703,51.952z"/>
		</g>
		<g>
			<path style="fill:#40C9E7;" d="M57,42h-8.434c-0.736,0-1.412,0.404-1.761,1.052l-5.566,9c-0.334,0.62-0.317,1.369,0.044,1.974
				C41.644,54.63,42.296,55,43,55h14V42z"/>
		</g>
		<g>
			<path style="fill:#6FDAF1;" d="M48.566,42c-0.736,0-1.412,0.404-1.761,1.052l-5.566,9c-0.334,0.62-0.317,1.369,0.044,1.974
				C41.644,54.63,42.296,55,43,55h0.917l13-13H48.566z"/>
		</g>
	</g>
</g>
</svg>
