<?xml version="1.0" encoding="iso-8859-1"?>
<!-- Generator: Adobe Illustrator 17.1.0, SVG Export Plug-In . SVG Version: 6.00 Build 0)  -->
<!DOCTYPE svg PUBLIC "-//W3C//DTD SVG 1.0//EN" "http://www.w3.org/TR/2001/REC-SVG-20010904/DTD/svg10.dtd">
<svg version="1.0" xmlns="http://www.w3.org/2000/svg" xmlns:xlink="http://www.w3.org/1999/xlink" x="0px" y="0px" width="110px"
	 height="110px" viewBox="0 0 110 110" style="enable-background:new 0 0 110 110;" xml:space="preserve">
<g id="Artboard">
</g>
<g id="Multicolor">
	<circle style="fill:#32BEA6;" cx="55" cy="55" r="55"/>
	<g>
		<g>
			<path style="fill:#CFD3D4;" d="M43.837,38.81c-0.571-0.946-1.8-1.25-2.746-0.679L23.967,48.464
				c-0.946,0.571-1.25,1.8-0.679,2.746l18.599,30.824c0.571,0.946,1.8,1.25,2.746,0.679L61.756,72.38
				c0.946-0.571,1.25-1.8,0.679-2.746L43.837,38.81z"/>
		</g>
		<g>
			<path style="fill:#3E3E3F;" d="M43.85,55.046c-0.678,0.4-1.386,1.539-1.969,2.697c0.088-1.443,0.062-3.067-0.393-3.838
				c-0.918-1.556-2.925-2.074-4.482-1.155s-2.074,2.925-1.156,4.481c0.455,0.771,1.862,1.579,3.169,2.2
				c-1.296-0.05-2.635,0.019-3.313,0.419c-1.557,0.919-2.074,2.925-1.156,4.482c0.918,1.556,2.925,2.074,4.482,1.155
				c0.904-0.533,1.858-2.376,2.502-3.83c1.259,2.046,1.769,4.073,1.692,5.982l3.829-2.259c-1.834-1.018-3.251-2.52-4.321-4.348
				c1.567,0.132,3.561,0.171,4.442-0.349c1.556-0.918,2.074-2.925,1.156-4.481C47.413,54.645,45.406,54.127,43.85,55.046z"/>
		</g>
		<g>
			<path style="fill:#E2E4E5;" d="M56.166,35.364c-0.301-1.063-1.407-1.68-2.47-1.379L34.455,39.44
				c-1.063,0.301-1.68,1.407-1.379,2.47l9.819,34.635c0.301,1.063,1.407,1.68,2.47,1.379l19.242-5.455
				c1.063-0.301,1.68-1.407,1.379-2.47L56.166,35.364z"/>
		</g>
		<g>
			<path style="fill:#FA5655;" d="M52.269,53.926c-0.866,0.217-2.981,7.236-2.584,8.579c-0.396-1.343-6.022-6.22-6.876-5.961
				c0.854-0.259,2.911-7.466,2.514-8.809C45.72,49.078,51.403,54.143,52.269,53.926z"/>
		</g>
		<g>
			<path style="fill:#F0F1F1;" d="M71,71c0,1.105-0.895,2-2,2H49c-1.105,0-2-0.895-2-2V35c0-1.105,0.895-2,2-2h20
				c1.105,0,2,0.895,2,2V71z"/>
		</g>
		<g>
			<g>
				<path style="fill:#FA5655;" d="M58.968,61c0,0,7.859-7.137,7.859-12.147c0-5.011-7.859-4.886-7.859-1.061
					c0-3.825-7.859-3.95-7.859,1.446S58.968,61,58.968,61z"/>
			</g>
		</g>
		<g>
			<path style="fill:#FFFFFF;" d="M77.105,71.636c-0.301,1.063-1.407,1.68-2.47,1.379L55.393,67.56
				c-1.063-0.301-1.68-1.407-1.379-2.47l9.819-34.635c0.301-1.063,1.407-1.68,2.47-1.379l19.242,5.455
				c1.063,0.301,1.68,1.407,1.379,2.47L77.105,71.636z"/>
		</g>
		<g>
			<path style="fill:#3E3E3F;" d="M73.537,41.461c-0.437,1.614-9.228,3.524-10.591,8.321c-1.295,4.556,3.835,6.645,6.291,4.836
				c-0.582,2.401-1.702,4.221-3.155,5.521l4.287,1.176c-0.555-2.054-0.453-4.145,0.137-6.214c1.273,2.82,6.621,3.793,7.843-1.094
				C79.52,49.329,73.095,43.095,73.537,41.461z"/>
		</g>
		<g>
			<path style="fill:#5B5C5F;" d="M73.537,41.461c-0.437,1.614-9.228,3.524-10.591,8.321c-0.752,2.646,0.666,4.452,2.465,5.153
				l9.862-9.862C74.226,43.419,73.366,42.094,73.537,41.461z"/>
		</g>
	</g>
</g>
</svg>
