<?xml version="1.0" encoding="iso-8859-1"?>
<!-- Generator: Adobe Illustrator 17.1.0, SVG Export Plug-In . SVG Version: 6.00 Build 0)  -->
<!DOCTYPE svg PUBLIC "-//W3C//DTD SVG 1.0//EN" "http://www.w3.org/TR/2001/REC-SVG-20010904/DTD/svg10.dtd">
<svg version="1.0" xmlns="http://www.w3.org/2000/svg" xmlns:xlink="http://www.w3.org/1999/xlink" x="0px" y="0px" width="110px"
	 height="110px" viewBox="0 0 110 110" style="enable-background:new 0 0 110 110;" xml:space="preserve">
<g id="Artboard">
</g>
<g id="Multicolor">
	<circle style="fill:#25B7D3;" cx="55" cy="55" r="55"/>
	<g>
		<g>
			<rect x="53" y="41" style="fill:#3E3E3F;" width="4" height="46"/>
		</g>
		<g>
			<path style="fill:#FA5655;" d="M55,23L23,40v1c0,3.314,2.686,6,6,6c3.155,0,5.741-2.435,5.982-5.528
				C35.002,41.206,35.224,41,35.491,41h0.018c0.267,0,0.489,0.205,0.51,0.472C36.259,44.565,38.845,47,42,47
				s5.741-2.435,5.982-5.528C48.002,41.206,48.224,41,48.491,41h0.018c0.267,0,0.489,0.205,0.51,0.472
				C49.259,44.565,51.845,47,55,47s5.741-2.435,5.982-5.528C61.002,41.206,61.224,41,61.491,41h0.018
				c0.267,0,0.489,0.205,0.509,0.472C62.259,44.565,64.845,47,68,47s5.741-2.435,5.982-5.528C74.002,41.206,74.224,41,74.491,41
				h0.018c0.267,0,0.489,0.205,0.51,0.472C75.259,44.565,77.845,47,81,47c3.314,0,6-2.686,6-6v-1L55,23z"/>
		</g>
		<g>
			<path style="fill:#6FDAF1;" d="M47,63v-8c-2.092,0-8.825-1.151-15.908,8H47z"/>
		</g>
		<g>
			<polygon style="fill:#FFFFFF;" points="55,23 35.491,41 48.491,41 			"/>
		</g>
		<g>
			<polygon style="fill:#FFFFFF;" points="55,23 74.509,41 61.509,41 			"/>
		</g>
		<g>
			<path style="fill:#E2E4E5;" d="M36.018,41.472C36.259,44.565,38.845,47,42,47c3.155,0,5.741-2.435,5.982-5.528
				C48.002,41.206,48.224,41,48.491,41H35.509C35.776,41,35.998,41.205,36.018,41.472z"/>
		</g>
		<g>
			<path style="fill:#DF2C2C;" d="M49.018,41.472C49.259,44.565,51.845,47,55,47c3.155,0,5.741-2.435,5.982-5.528
				C61.002,41.206,61.224,41,61.491,41H48.509C48.776,41,48.998,41.205,49.018,41.472z"/>
		</g>
		<g>
			<path style="fill:#DF2C2C;" d="M29,47c3.155,0,5.741-2.435,5.982-5.528C35.002,41.206,35.224,41,35.491,41H23
				C23,44.314,25.686,47,29,47z"/>
		</g>
		<g>
			<path style="fill:#DF2C2C;" d="M75.018,41.472C75.259,44.565,77.845,47,81,47c3.314,0,6-2.686,6-6H74.509
				C74.776,41,74.998,41.205,75.018,41.472z"/>
		</g>
		<g>
			<path style="fill:#E2E4E5;" d="M62.018,41.472C62.259,44.565,64.845,47,68,47c3.155,0,5.741-2.435,5.982-5.528
				C74.002,41.206,74.224,41,74.491,41H61.509C61.776,41,61.998,41.205,62.018,41.472z"/>
		</g>
		<g>
			<path style="fill:#F3B607;" d="M72,58c-3.532,0-6.58,2.039-8.053,5H31.092c-4.579,5.916-4.065,12.546,3.967,15.338
				C36.293,78.767,37.619,79,39,79h28c6.627,0,12-5.373,12-12v-9H72z"/>
		</g>
		<g>
			<path style="fill:#FACB1B;" d="M52,63h-5H31.092c-4.579,5.916-4.065,12.546,3.967,15.338c1.113,0.387,2.304,0.604,3.539,0.645
				L54.581,63H52z"/>
		</g>
		<g>
			<path style="fill:#F99134;" d="M41,67H28.827c-0.631,1.728-0.796,3.429-0.438,5h5.226C36.867,72,39.792,70.02,41,67z"/>
		</g>
	</g>
</g>
</svg>
