<?xml version="1.0" encoding="iso-8859-1"?>
<!-- Generator: Adobe Illustrator 17.1.0, SVG Export Plug-In . SVG Version: 6.00 Build 0)  -->
<!DOCTYPE svg PUBLIC "-//W3C//DTD SVG 1.0//EN" "http://www.w3.org/TR/2001/REC-SVG-20010904/DTD/svg10.dtd">
<svg version="1.0" xmlns="http://www.w3.org/2000/svg" xmlns:xlink="http://www.w3.org/1999/xlink" x="0px" y="0px" width="110px"
	 height="110px" viewBox="0 0 110 110" style="enable-background:new 0 0 110 110;" xml:space="preserve">
<g id="Artboard" style="display:none;">
	
		<rect x="-1096.5" y="-546.5" style="display:inline;fill:#808080;stroke:#000000;stroke-miterlimit:10;" width="1392" height="1369"/>
</g>
<g id="R-Multicolor">
	<circle style="fill:#FABC3D;" cx="55" cy="55" r="55"/>
	<g>
		<g>
			<path style="fill:#F37A10;" d="M73.541,52.723c-9.363,6.992-43.992,32.835-45,33.588c-1.386,1.032-3.309,0.891-4.525-0.325
				s-1.358-3.14-0.325-4.525c0,0,33.587-45,33.588-45c1.237-1.662,3.543-2.1,5.31-1.011c4.921,3.055,8.91,7.043,11.957,11.957
				C75.641,49.18,75.209,51.478,73.541,52.723z"/>
		</g>
		<g>
			<path style="fill:#F99134;" d="M62.588,35.448c-1.768-1.089-4.073-0.651-5.31,1.011c0,0-33.587,45-33.587,45
				c-1.033,1.387-0.891,3.31,0.325,4.526c0.039,0.039,0.084,0.067,0.124,0.103L69.38,40.847
				C67.358,38.807,65.095,37.005,62.588,35.448z"/>
		</g>
		<g>
			<path style="fill:#099686;" d="M66.728,38.438l3.348-9.849l-5.886-1.163l-0.546,8.72C64.719,36.862,65.747,37.626,66.728,38.438z
				"/>
		</g>
		<g>
			<path style="fill:#099686;" d="M69.192,40.657L79.427,28.26l-5.829-3.635l-6.422,14.188
				C67.87,39.406,68.547,40.016,69.192,40.657z"/>
		</g>
		<g>
			<path style="fill:#099686;" d="M71.194,42.833l14.19-6.422l-3.635-5.829L69.351,40.817C69.993,41.462,70.602,42.14,71.194,42.833
				z"/>
		</g>
		<g>
			<path style="fill:#099686;" d="M73.859,46.365l8.725-0.547l-1.163-5.886l-9.851,3.348C72.38,44.262,73.143,45.291,73.859,46.365z
				"/>
		</g>
		<g>
			<path style="fill:#F37A10;" d="M61.138,51.69c-0.573,0.573-4.858-2.765-9.631-7.509l1.817-2.425l0.035,0.035
				C58.239,46.67,61.725,51.104,61.138,51.69z"/>
		</g>
		<g>
			<path style="fill:#F37A10;" d="M61.76,61.519l-2.425,1.803c-0.97-0.97-9.062-9.252-8.096-10.218
				C52.207,52.137,60.562,60.235,61.76,61.519z"/>
		</g>
		<g>
			<path style="fill:#F37A10;" d="M52.016,68.788l-2.348,1.754c-3.642-3.868-5.989-7.05-5.501-7.538
				C44.669,62.502,48.007,64.991,52.016,68.788z"/>
		</g>
		<g>
			<path style="fill:#F37A10;" d="M39.925,70.075c-0.389,0.389-2.454-0.997-5.204-3.394l1.563-2.1
				C38.829,67.48,40.328,69.672,39.925,70.075z"/>
		</g>
		<g>
			<path style="fill:#F37A10;" d="M35.682,77.146c-0.417,0.417-2.765-1.209-5.834-3.939l1.633-2.185
				C34.367,74.233,36.113,76.715,35.682,77.146z"/>
		</g>
	</g>
</g>
<g id="Multicolor" style="display:none;">
	<g style="display:inline;">
		<g>
			<path style="fill:#F37A10;" d="M73.541,52.723c-9.363,6.992-43.992,32.835-45,33.588c-1.386,1.032-3.309,0.891-4.525-0.325
				s-1.358-3.14-0.325-4.525c0,0,33.587-45,33.588-45c1.237-1.662,3.543-2.1,5.31-1.011c4.921,3.055,8.91,7.043,11.957,11.957
				C75.641,49.18,75.209,51.478,73.541,52.723z"/>
		</g>
		<g>
			<path style="fill:#F99134;" d="M62.588,35.448c-1.768-1.089-4.073-0.651-5.31,1.011c0,0-33.587,45-33.587,45
				c-1.033,1.387-0.891,3.31,0.325,4.526c0.039,0.039,0.084,0.067,0.124,0.103L69.38,40.847
				C67.358,38.807,65.095,37.005,62.588,35.448z"/>
		</g>
		<g>
			<path style="fill:#099686;" d="M66.728,38.438l3.348-9.849l-5.886-1.163l-0.546,8.72C64.719,36.862,65.747,37.626,66.728,38.438z
				"/>
		</g>
		<g>
			<path style="fill:#099686;" d="M69.192,40.657L79.427,28.26l-5.829-3.635l-6.422,14.188
				C67.87,39.406,68.547,40.016,69.192,40.657z"/>
		</g>
		<g>
			<path style="fill:#099686;" d="M71.194,42.833l14.19-6.422l-3.635-5.829L69.351,40.817C69.993,41.462,70.602,42.14,71.194,42.833
				z"/>
		</g>
		<g>
			<path style="fill:#099686;" d="M73.859,46.365l8.725-0.547l-1.163-5.886l-9.851,3.348C72.38,44.262,73.143,45.291,73.859,46.365z
				"/>
		</g>
		<g>
			<path style="fill:#F37A10;" d="M61.138,51.69c-0.573,0.573-4.858-2.765-9.631-7.509l1.817-2.425l0.035,0.035
				C58.239,46.67,61.725,51.104,61.138,51.69z"/>
		</g>
		<g>
			<path style="fill:#F37A10;" d="M61.76,61.519l-2.425,1.803c-0.97-0.97-9.062-9.252-8.096-10.218
				C52.207,52.137,60.562,60.235,61.76,61.519z"/>
		</g>
		<g>
			<path style="fill:#F37A10;" d="M52.016,68.788l-2.348,1.754c-3.642-3.868-5.989-7.05-5.501-7.538
				C44.669,62.502,48.007,64.991,52.016,68.788z"/>
		</g>
		<g>
			<path style="fill:#F37A10;" d="M39.925,70.075c-0.389,0.389-2.454-0.997-5.204-3.394l1.563-2.1
				C38.829,67.48,40.328,69.672,39.925,70.075z"/>
		</g>
		<g>
			<path style="fill:#F37A10;" d="M35.682,77.146c-0.417,0.417-2.765-1.209-5.834-3.939l1.633-2.185
				C34.367,74.233,36.113,76.715,35.682,77.146z"/>
		</g>
	</g>
</g>
<g id="Blue" style="display:none;">
	<g style="display:inline;">
		<g>
			<path style="fill:#BBE7F2;" d="M73.541,52.723c-9.363,6.991-43.992,32.835-45.001,33.587c-1.386,1.032-3.309,0.891-4.525-0.325
				c-1.216-1.216-1.357-3.14-0.325-4.525c0,0,33.587-45,33.588-45c1.237-1.662,3.543-2.1,5.311-1.011
				c4.921,3.055,8.909,7.042,11.957,11.957C75.641,49.18,75.209,51.479,73.541,52.723z"/>
		</g>
		<g>
			<path style="fill:#E1F5FA;" d="M62.588,35.448c-1.768-1.089-4.073-0.65-5.311,1.011c-0.001,0-33.587,45-33.587,45
				c-1.033,1.387-0.892,3.31,0.324,4.526c0.039,0.039,0.084,0.066,0.124,0.103L69.38,40.847
				C67.357,38.807,65.096,37.005,62.588,35.448z"/>
		</g>
		<g>
			<path style="fill:#0F6175;" d="M66.728,38.438l3.349-9.849l-5.887-1.164l-0.546,8.72C64.719,36.862,65.747,37.626,66.728,38.438z
				"/>
		</g>
		<g>
			<path style="fill:#0F6175;" d="M69.192,40.657L79.427,28.26l-5.829-3.635l-6.422,14.188
				C67.869,39.406,68.547,40.016,69.192,40.657z"/>
		</g>
		<g>
			<path style="fill:#0F6175;" d="M71.194,42.833l14.19-6.422l-3.635-5.83L69.352,40.817C69.992,41.462,70.602,42.14,71.194,42.833z
				"/>
		</g>
		<g>
			<path style="fill:#0F6175;" d="M73.858,46.365l8.726-0.546l-1.164-5.886l-9.851,3.348C72.38,44.262,73.143,45.291,73.858,46.365z
				"/>
		</g>
		<g>
			<path style="fill:#81D2EB;" d="M61.138,51.69c-0.572,0.573-4.857-2.765-9.631-7.51l1.817-2.425l0.035,0.035
				C58.239,46.67,61.725,51.104,61.138,51.69z"/>
		</g>
		<g>
			<path style="fill:#81D2EB;" d="M61.76,61.52l-2.425,1.803c-0.97-0.97-9.062-9.251-8.097-10.218
				C52.207,52.137,60.562,60.235,61.76,61.52z"/>
		</g>
		<g>
			<path style="fill:#81D2EB;" d="M52.017,68.789l-2.348,1.753c-3.642-3.868-5.989-7.05-5.501-7.538
				C44.67,62.502,48.007,64.991,52.017,68.789z"/>
		</g>
		<g>
			<path style="fill:#81D2EB;" d="M39.925,70.075c-0.389,0.389-2.454-0.997-5.204-3.394l1.562-2.101
				C38.829,67.48,40.328,69.672,39.925,70.075z"/>
		</g>
		<g>
			<path style="fill:#81D2EB;" d="M35.682,77.146c-0.417,0.417-2.765-1.209-5.833-3.938l1.634-2.185
				C34.367,74.233,36.113,76.715,35.682,77.146z"/>
		</g>
	</g>
</g>
<g id="R-Blue" style="display:none;">
	<circle style="display:inline;fill:#81D2EB;" cx="55" cy="55" r="55"/>
	<g style="display:inline;">
		<g>
			<path style="fill:#BBE7F2;" d="M73.541,52.723C64.178,59.714,29.549,85.558,28.54,86.31c-1.386,1.032-3.309,0.891-4.525-0.325
				c-1.216-1.216-1.357-3.14-0.325-4.525c0,0,33.587-45,33.588-45.001c1.237-1.662,3.543-2.1,5.311-1.011
				c4.921,3.055,8.909,7.042,11.957,11.957C75.641,49.18,75.209,51.478,73.541,52.723z"/>
		</g>
		<g>
			<path style="fill:#E1F5FA;" d="M62.588,35.448c-1.768-1.089-4.073-0.65-5.311,1.011c-0.001,0-33.587,45-33.587,45
				c-1.033,1.387-0.892,3.31,0.324,4.526c0.039,0.038,0.084,0.066,0.124,0.103L69.38,40.847
				C67.357,38.807,65.096,37.005,62.588,35.448z"/>
		</g>
		<g>
			<path style="fill:#0F6175;" d="M66.728,38.438l3.349-9.849l-5.887-1.164l-0.546,8.72C64.719,36.862,65.747,37.626,66.728,38.438z
				"/>
		</g>
		<g>
			<path style="fill:#0F6175;" d="M69.192,40.657L79.427,28.26l-5.829-3.635l-6.422,14.188
				C67.869,39.406,68.547,40.016,69.192,40.657z"/>
		</g>
		<g>
			<path style="fill:#0F6175;" d="M71.194,42.833l14.19-6.422l-3.635-5.83L69.352,40.817C69.992,41.462,70.602,42.14,71.194,42.833z
				"/>
		</g>
		<g>
			<path style="fill:#0F6175;" d="M73.858,46.365l8.726-0.546l-1.164-5.886l-9.851,3.348C72.38,44.262,73.143,45.29,73.858,46.365z"
				/>
		</g>
		<g>
			<path style="fill:#81D2EB;" d="M61.138,51.69c-0.572,0.573-4.857-2.765-9.631-7.51l1.817-2.425l0.035,0.035
				C58.239,46.67,61.725,51.103,61.138,51.69z"/>
		</g>
		<g>
			<path style="fill:#81D2EB;" d="M61.76,61.519l-2.425,1.803c-0.97-0.97-9.062-9.251-8.097-10.218
				C52.207,52.137,60.562,60.235,61.76,61.519z"/>
		</g>
		<g>
			<path style="fill:#81D2EB;" d="M52.017,68.789l-2.348,1.753c-3.642-3.868-5.989-7.05-5.501-7.538
				C44.67,62.502,48.007,64.991,52.017,68.789z"/>
		</g>
		<g>
			<path style="fill:#81D2EB;" d="M39.925,70.075c-0.389,0.389-2.454-0.997-5.204-3.394l1.562-2.101
				C38.829,67.48,40.328,69.672,39.925,70.075z"/>
		</g>
		<g>
			<path style="fill:#81D2EB;" d="M35.682,77.146c-0.417,0.417-2.765-1.21-5.833-3.938l1.634-2.185
				C34.367,74.233,36.113,76.715,35.682,77.146z"/>
		</g>
	</g>
</g>
<g id="Green" style="display:none;">
	<g style="display:inline;">
		<g>
			<path style="fill:#AAF0E9;" d="M73.541,52.723c-9.363,6.991-43.992,32.835-45.001,33.587c-1.386,1.032-3.309,0.891-4.525-0.325
				c-1.216-1.216-1.357-3.14-0.325-4.525c0,0,33.587-45,33.588-45c1.237-1.662,3.543-2.1,5.311-1.011
				c4.921,3.055,8.909,7.042,11.957,11.957C75.641,49.18,75.209,51.479,73.541,52.723z"/>
		</g>
		<g>
			<path style="fill:#D7FCF9;" d="M62.588,35.448c-1.768-1.089-4.073-0.65-5.311,1.011c-0.001,0-33.587,45-33.587,45
				c-1.033,1.387-0.892,3.31,0.324,4.526c0.039,0.039,0.084,0.066,0.124,0.103L69.38,40.847
				C67.357,38.807,65.096,37.005,62.588,35.448z"/>
		</g>
		<g>
			<path style="fill:#14635B;" d="M66.727,38.438l3.349-9.849l-5.887-1.164l-0.546,8.72C64.719,36.862,65.747,37.626,66.727,38.438z
				"/>
		</g>
		<g>
			<path style="fill:#14635B;" d="M69.192,40.657L79.427,28.26l-5.829-3.635l-6.422,14.188
				C67.869,39.406,68.547,40.016,69.192,40.657z"/>
		</g>
		<g>
			<path style="fill:#14635B;" d="M71.194,42.833l14.189-6.422l-3.635-5.83L69.352,40.817C69.992,41.462,70.602,42.14,71.194,42.833
				z"/>
		</g>
		<g>
			<path style="fill:#14635B;" d="M73.858,46.365l8.726-0.546l-1.164-5.886l-9.851,3.348C72.38,44.262,73.143,45.291,73.858,46.365z
				"/>
		</g>
		<g>
			<path style="fill:#77E0C4;" d="M61.138,51.69c-0.572,0.573-4.857-2.765-9.631-7.51l1.817-2.425l0.035,0.035
				C58.239,46.67,61.725,51.104,61.138,51.69z"/>
		</g>
		<g>
			<path style="fill:#77E0C4;" d="M61.76,61.52l-2.425,1.803c-0.97-0.97-9.062-9.251-8.097-10.218
				C52.207,52.137,60.562,60.235,61.76,61.52z"/>
		</g>
		<g>
			<path style="fill:#77E0C4;" d="M52.017,68.789l-2.348,1.753c-3.642-3.868-5.989-7.05-5.501-7.538
				C44.67,62.502,48.007,64.991,52.017,68.789z"/>
		</g>
		<g>
			<path style="fill:#77E0C4;" d="M39.925,70.075c-0.389,0.389-2.454-0.997-5.204-3.394l1.562-2.101
				C38.829,67.48,40.328,69.672,39.925,70.075z"/>
		</g>
		<g>
			<path style="fill:#77E0C4;" d="M35.682,77.146c-0.417,0.417-2.765-1.21-5.833-3.938l1.634-2.185
				C34.367,74.233,36.113,76.715,35.682,77.146z"/>
		</g>
	</g>
</g>
<g id="R-Green" style="display:none;">
	<circle style="display:inline;fill:#77E0C4;" cx="55" cy="55" r="55"/>
	<g style="display:inline;">
		<g>
			<path style="fill:#AAF0E9;" d="M73.541,52.723c-9.363,6.991-43.992,32.835-45.001,33.587c-1.386,1.032-3.309,0.891-4.525-0.325
				c-1.216-1.216-1.357-3.14-0.325-4.525c0,0,33.587-45,33.588-45c1.237-1.662,3.543-2.1,5.311-1.011
				c4.921,3.055,8.909,7.042,11.957,11.957C75.641,49.18,75.209,51.479,73.541,52.723z"/>
		</g>
		<g>
			<path style="fill:#D7FCF9;" d="M62.588,35.448c-1.768-1.089-4.073-0.65-5.311,1.011c-0.001,0-33.587,45-33.587,45
				c-1.033,1.387-0.892,3.31,0.324,4.526c0.039,0.039,0.084,0.066,0.124,0.103L69.38,40.847
				C67.357,38.807,65.096,37.005,62.588,35.448z"/>
		</g>
		<g>
			<path style="fill:#14635B;" d="M66.728,38.438l3.349-9.849l-5.887-1.164l-0.546,8.72C64.719,36.862,65.747,37.626,66.728,38.438z
				"/>
		</g>
		<g>
			<path style="fill:#14635B;" d="M69.192,40.657L79.427,28.26l-5.829-3.635l-6.422,14.188
				C67.869,39.406,68.547,40.016,69.192,40.657z"/>
		</g>
		<g>
			<path style="fill:#14635B;" d="M71.194,42.833l14.189-6.422l-3.635-5.83L69.352,40.817C69.992,41.462,70.602,42.14,71.194,42.833
				z"/>
		</g>
		<g>
			<path style="fill:#14635B;" d="M73.858,46.365l8.726-0.546l-1.164-5.886l-9.851,3.348C72.38,44.262,73.143,45.291,73.858,46.365z
				"/>
		</g>
		<g>
			<path style="fill:#77E0C4;" d="M61.138,51.69c-0.572,0.573-4.857-2.765-9.631-7.51l1.817-2.425l0.035,0.035
				C58.239,46.67,61.725,51.104,61.138,51.69z"/>
		</g>
		<g>
			<path style="fill:#77E0C4;" d="M61.76,61.52l-2.425,1.803c-0.97-0.97-9.062-9.251-8.097-10.218
				C52.207,52.137,60.562,60.235,61.76,61.52z"/>
		</g>
		<g>
			<path style="fill:#77E0C4;" d="M52.017,68.789l-2.348,1.753c-3.642-3.868-5.989-7.05-5.501-7.538
				C44.67,62.502,48.007,64.991,52.017,68.789z"/>
		</g>
		<g>
			<path style="fill:#77E0C4;" d="M39.925,70.075c-0.389,0.389-2.454-0.997-5.204-3.394l1.562-2.101
				C38.829,67.48,40.328,69.672,39.925,70.075z"/>
		</g>
		<g>
			<path style="fill:#77E0C4;" d="M35.682,77.146c-0.417,0.417-2.765-1.209-5.833-3.938l1.634-2.185
				C34.367,74.233,36.113,76.715,35.682,77.146z"/>
		</g>
	</g>
</g>
<g id="Red" style="display:none;">
	<g style="display:inline;">
		<g>
			<path style="fill:#FFD7D4;" d="M73.541,52.723c-9.363,6.991-43.992,32.835-45.001,33.587c-1.386,1.032-3.309,0.891-4.525-0.325
				c-1.216-1.216-1.357-3.14-0.325-4.525c0,0,33.587-45,33.588-45c1.237-1.662,3.543-2.1,5.311-1.011
				c4.921,3.055,8.909,7.042,11.957,11.957C75.641,49.18,75.209,51.479,73.541,52.723z"/>
		</g>
		<g>
			<path style="fill:#FFEFED;" d="M62.588,35.448c-1.768-1.089-4.073-0.65-5.311,1.011c-0.001,0-33.587,45-33.587,45
				c-1.033,1.387-0.892,3.31,0.324,4.526c0.039,0.039,0.084,0.066,0.124,0.103L69.38,40.847
				C67.357,38.807,65.096,37.005,62.588,35.448z"/>
		</g>
		<g>
			<path style="fill:#7D261E;" d="M66.728,38.438l3.349-9.849l-5.887-1.164l-0.546,8.72C64.719,36.862,65.747,37.626,66.728,38.438z
				"/>
		</g>
		<g>
			<path style="fill:#7D261E;" d="M69.192,40.657L79.427,28.26l-5.829-3.635l-6.422,14.188
				C67.869,39.406,68.547,40.016,69.192,40.657z"/>
		</g>
		<g>
			<path style="fill:#7D261E;" d="M71.194,42.833l14.189-6.422l-3.635-5.83L69.352,40.817C69.992,41.462,70.602,42.14,71.194,42.833
				z"/>
		</g>
		<g>
			<path style="fill:#7D261E;" d="M73.858,46.365l8.726-0.546l-1.164-5.886l-9.851,3.348C72.38,44.262,73.143,45.291,73.858,46.365z
				"/>
		</g>
		<g>
			<path style="fill:#FABBAF;" d="M61.138,51.69c-0.572,0.573-4.857-2.765-9.631-7.51l1.817-2.425l0.035,0.035
				C58.239,46.67,61.725,51.104,61.138,51.69z"/>
		</g>
		<g>
			<path style="fill:#FABBAF;" d="M61.76,61.52l-2.425,1.803c-0.97-0.97-9.062-9.251-8.097-10.218
				C52.207,52.137,60.562,60.235,61.76,61.52z"/>
		</g>
		<g>
			<path style="fill:#FABBAF;" d="M52.017,68.789l-2.348,1.753c-3.642-3.868-5.989-7.05-5.501-7.538
				C44.67,62.502,48.007,64.991,52.017,68.789z"/>
		</g>
		<g>
			<path style="fill:#FABBAF;" d="M39.925,70.075c-0.389,0.389-2.454-0.997-5.204-3.394l1.562-2.101
				C38.829,67.48,40.328,69.672,39.925,70.075z"/>
		</g>
		<g>
			<path style="fill:#FABBAF;" d="M35.682,77.146c-0.417,0.417-2.765-1.21-5.833-3.938l1.634-2.185
				C34.367,74.233,36.113,76.715,35.682,77.146z"/>
		</g>
	</g>
</g>
<g id="R-Red" style="display:none;">
	<circle style="display:inline;fill:#FABBAF;" cx="55" cy="55" r="55"/>
	<g style="display:inline;">
		<g>
			<path style="fill:#FFD7D4;" d="M73.541,52.723c-9.363,6.991-43.992,32.835-45.001,33.587c-1.386,1.032-3.309,0.891-4.525-0.325
				c-1.216-1.216-1.357-3.14-0.325-4.525c0,0,33.587-45,33.588-45c1.237-1.662,3.543-2.1,5.311-1.011
				c4.921,3.055,8.909,7.042,11.957,11.957C75.641,49.18,75.209,51.479,73.541,52.723z"/>
		</g>
		<g>
			<path style="fill:#FFEFED;" d="M62.588,35.448c-1.768-1.089-4.073-0.65-5.311,1.011c-0.001,0-33.587,45-33.587,45
				c-1.033,1.387-0.892,3.31,0.324,4.526c0.039,0.039,0.084,0.066,0.124,0.103L69.38,40.847
				C67.357,38.807,65.096,37.005,62.588,35.448z"/>
		</g>
		<g>
			<path style="fill:#7D261E;" d="M66.728,38.438l3.349-9.849l-5.887-1.164l-0.546,8.72C64.719,36.862,65.747,37.626,66.728,38.438z
				"/>
		</g>
		<g>
			<path style="fill:#7D261E;" d="M69.192,40.657L79.427,28.26l-5.829-3.635l-6.422,14.188
				C67.869,39.406,68.547,40.016,69.192,40.657z"/>
		</g>
		<g>
			<path style="fill:#7D261E;" d="M71.194,42.833l14.189-6.422l-3.635-5.83L69.352,40.817C69.992,41.462,70.602,42.14,71.194,42.833
				z"/>
		</g>
		<g>
			<path style="fill:#7D261E;" d="M73.858,46.365l8.726-0.546l-1.164-5.886l-9.851,3.348C72.38,44.262,73.143,45.291,73.858,46.365z
				"/>
		</g>
		<g>
			<path style="fill:#FABBAF;" d="M61.138,51.69c-0.572,0.573-4.857-2.765-9.631-7.51l1.817-2.425l0.035,0.035
				C58.239,46.67,61.725,51.104,61.138,51.69z"/>
		</g>
		<g>
			<path style="fill:#FABBAF;" d="M61.76,61.52l-2.425,1.803c-0.97-0.97-9.062-9.251-8.097-10.218
				C52.207,52.137,60.562,60.235,61.76,61.52z"/>
		</g>
		<g>
			<path style="fill:#FABBAF;" d="M52.017,68.789l-2.348,1.753c-3.642-3.868-5.989-7.05-5.501-7.538
				C44.67,62.502,48.007,64.991,52.017,68.789z"/>
		</g>
		<g>
			<path style="fill:#FABBAF;" d="M39.925,70.075c-0.389,0.389-2.454-0.997-5.204-3.394l1.562-2.101
				C38.829,67.48,40.328,69.672,39.925,70.075z"/>
		</g>
		<g>
			<path style="fill:#FABBAF;" d="M35.682,77.146c-0.417,0.417-2.765-1.21-5.833-3.938l1.634-2.185
				C34.367,74.233,36.113,76.715,35.682,77.146z"/>
		</g>
	</g>
</g>
<g id="Yellow" style="display:none;">
	<g style="display:inline;">
		<g>
			<path style="fill:#FFE9A1;" d="M73.541,52.723c-9.363,6.991-43.992,32.835-45.001,33.587c-1.386,1.032-3.309,0.891-4.525-0.325
				c-1.216-1.216-1.357-3.14-0.325-4.525c0,0,33.587-45,33.588-45c1.237-1.662,3.543-2.1,5.311-1.011
				c4.921,3.055,8.909,7.042,11.957,11.957C75.641,49.18,75.209,51.479,73.541,52.723z"/>
		</g>
		<g>
			<path style="fill:#FFF5D9;" d="M62.588,35.448c-1.768-1.089-4.073-0.65-5.311,1.011c-0.001,0-33.587,45-33.587,45
				c-1.033,1.387-0.892,3.31,0.324,4.526c0.039,0.039,0.084,0.066,0.124,0.103L69.38,40.847
				C67.357,38.807,65.096,37.005,62.588,35.448z"/>
		</g>
		<g>
			<path style="fill:#66510D;" d="M66.728,38.438l3.349-9.849l-5.887-1.164l-0.546,8.72C64.719,36.862,65.747,37.626,66.728,38.438z
				"/>
		</g>
		<g>
			<path style="fill:#66510D;" d="M69.192,40.657L79.427,28.26l-5.829-3.635l-6.422,14.188
				C67.869,39.406,68.547,40.016,69.192,40.657z"/>
		</g>
		<g>
			<path style="fill:#66510D;" d="M71.194,42.833l14.189-6.422l-3.635-5.83L69.352,40.817C69.992,41.462,70.602,42.14,71.194,42.833
				z"/>
		</g>
		<g>
			<path style="fill:#66510D;" d="M73.858,46.365l8.726-0.546l-1.164-5.886l-9.851,3.348C72.38,44.262,73.143,45.291,73.858,46.365z
				"/>
		</g>
		<g>
			<path style="fill:#FFD75E;" d="M61.138,51.69c-0.572,0.573-4.857-2.765-9.631-7.51l1.817-2.425l0.035,0.035
				C58.239,46.67,61.725,51.104,61.138,51.69z"/>
		</g>
		<g>
			<path style="fill:#FFD75E;" d="M61.76,61.52l-2.425,1.803c-0.97-0.97-9.062-9.251-8.097-10.218
				C52.207,52.137,60.562,60.235,61.76,61.52z"/>
		</g>
		<g>
			<path style="fill:#FFD75E;" d="M52.017,68.789l-2.348,1.753c-3.642-3.868-5.989-7.05-5.501-7.538
				C44.67,62.502,48.007,64.991,52.017,68.789z"/>
		</g>
		<g>
			<path style="fill:#FFD75E;" d="M39.925,70.075c-0.389,0.389-2.454-0.997-5.204-3.394l1.562-2.101
				C38.829,67.48,40.328,69.672,39.925,70.075z"/>
		</g>
		<g>
			<path style="fill:#FFD75E;" d="M35.682,77.146c-0.417,0.417-2.765-1.209-5.833-3.938l1.634-2.185
				C34.367,74.233,36.113,76.715,35.682,77.146z"/>
		</g>
	</g>
</g>
<g id="R-Yellow" style="display:none;">
	<circle style="display:inline;fill:#FFD75E;" cx="55" cy="55" r="55"/>
	<g style="display:inline;">
		<g>
			<path style="fill:#FFE9A1;" d="M73.541,52.723c-9.363,6.991-43.992,32.835-45.001,33.587c-1.386,1.032-3.309,0.891-4.525-0.325
				c-1.216-1.216-1.357-3.14-0.325-4.525c0,0,33.587-45,33.588-45c1.237-1.662,3.543-2.1,5.311-1.011
				c4.921,3.055,8.909,7.042,11.957,11.957C75.641,49.18,75.209,51.479,73.541,52.723z"/>
		</g>
		<g>
			<path style="fill:#FFF5D9;" d="M62.588,35.448c-1.768-1.089-4.073-0.65-5.311,1.011c-0.001,0-33.587,45-33.587,45
				c-1.033,1.387-0.892,3.31,0.324,4.526c0.039,0.039,0.084,0.066,0.124,0.103L69.38,40.847
				C67.357,38.807,65.096,37.005,62.588,35.448z"/>
		</g>
		<g>
			<path style="fill:#66510D;" d="M66.727,38.438l3.349-9.849l-5.887-1.164l-0.546,8.72C64.719,36.862,65.747,37.626,66.727,38.438z
				"/>
		</g>
		<g>
			<path style="fill:#66510D;" d="M69.192,40.657L79.427,28.26l-5.829-3.635l-6.422,14.188
				C67.869,39.406,68.547,40.016,69.192,40.657z"/>
		</g>
		<g>
			<path style="fill:#66510D;" d="M71.194,42.833l14.189-6.422l-3.635-5.83L69.352,40.817C69.992,41.462,70.602,42.14,71.194,42.833
				z"/>
		</g>
		<g>
			<path style="fill:#66510D;" d="M73.858,46.365l8.726-0.546l-1.164-5.886l-9.851,3.348C72.38,44.262,73.143,45.291,73.858,46.365z
				"/>
		</g>
		<g>
			<path style="fill:#FFD75E;" d="M61.138,51.69c-0.572,0.573-4.857-2.765-9.631-7.51l1.817-2.425l0.035,0.035
				C58.239,46.67,61.725,51.104,61.138,51.69z"/>
		</g>
		<g>
			<path style="fill:#FFD75E;" d="M61.76,61.52l-2.425,1.803c-0.97-0.97-9.062-9.251-8.097-10.218
				C52.207,52.137,60.562,60.235,61.76,61.52z"/>
		</g>
		<g>
			<path style="fill:#FFD75E;" d="M52.017,68.789l-2.348,1.753c-3.642-3.868-5.989-7.05-5.501-7.538
				C44.67,62.502,48.007,64.991,52.017,68.789z"/>
		</g>
		<g>
			<path style="fill:#FFD75E;" d="M39.925,70.075c-0.389,0.389-2.454-0.997-5.204-3.394l1.562-2.101
				C38.829,67.48,40.328,69.672,39.925,70.075z"/>
		</g>
		<g>
			<path style="fill:#FFD75E;" d="M35.682,77.146c-0.417,0.417-2.765-1.209-5.833-3.938l1.634-2.185
				C34.367,74.233,36.113,76.715,35.682,77.146z"/>
		</g>
	</g>
</g>
</svg>
