<?xml version="1.0" encoding="iso-8859-1"?>
<!-- Generator: Adobe Illustrator 17.1.0, SVG Export Plug-In . SVG Version: 6.00 Build 0)  -->
<!DOCTYPE svg PUBLIC "-//W3C//DTD SVG 1.0//EN" "http://www.w3.org/TR/2001/REC-SVG-20010904/DTD/svg10.dtd">
<svg version="1.0" xmlns="http://www.w3.org/2000/svg" xmlns:xlink="http://www.w3.org/1999/xlink" x="0px" y="0px" width="110px"
	 height="110px" viewBox="0 0 110 110" style="enable-background:new 0 0 110 110;" xml:space="preserve">
<g id="Artboard">
</g>
<g id="Multicolor">
	<circle style="fill:#25B7D3;" cx="55" cy="55" r="55"/>
	<g>
		<circle style="fill:#3E3E3F;" cx="43" cy="83" r="4"/>
		<circle style="fill:#3E3E3F;" cx="71" cy="83" r="4"/>
		<path style="fill:#E2E4E5;" d="M75,75H42.236l2.299-10H41c-0.205,0-0.402-0.035-0.589-0.094l-3.2,11.199
			c-0.31,0.62-0.277,1.356,0.088,1.946C37.663,78.641,38.307,79,39,79h36c1.104,0,2-0.896,2-2S76.104,75,75,75z"/>
		<path style="fill:#FFFFFF;" d="M86.576,35.769C86.197,35.284,85.616,35,85,35H35c-0.046,0-0.09,0.01-0.135,0.014l-1.925-6.499
			C32.718,27.625,31.918,27,31,27h-6c-1.104,0-2,0.896-2,2s0.896,2,2,2h4.438l9.621,32.485C39.282,64.376,40.082,65,41,65h35.998
			c0.001,0,0.003,0,0.004,0c0.391,0,0.821-0.136,1.16-0.378c0.369-0.264,0.659-0.658,0.779-1.138l8-26
			C87.09,36.888,86.956,36.254,86.576,35.769z M74,39v6h-6v-6H74z M76,59.519V55h1.418L76,59.519z M76,53v-6h3.928l-1.883,6H76z
			 M74,53h-6v-6h6V53z M38.415,47H42v6h-1.808L38.415,47z M44,47h6v6h-6V47z M52,47h6v6h-6V47z M60,47h6v6h-6V47z M66,39v6h-6v-6H66
			z M58,39v6h-6v-6H58z M50,39v6h-6v-6H50z M42,39v6h-4.177l-1.777-6H42z M40.784,55H42v4.104L40.784,55z M44,61v-6h6v6H44z M52,61
			v-6h6v6H52z M60,61v-6h6v6H60z M68,61v-6h6v6H68z M80.556,45H76v-6h6.438L80.556,45z"/>
		<circle style="fill:#DF2C2C;" cx="27" cy="29" r="4"/>
		<path style="fill:#5B5C5F;" d="M43,79c-2.209,0-4,1.791-4,4c0,1.154,0.496,2.185,1.277,2.916l5.639-5.639
			C45.185,79.496,44.154,79,43,79z"/>
		<path style="fill:#5B5C5F;" d="M71,79c-2.209,0-4,1.791-4,4c0,1.154,0.496,2.185,1.277,2.916l5.639-5.639
			C73.185,79.496,72.154,79,71,79z"/>
	</g>
</g>
</svg>
