<?xml version="1.0" encoding="iso-8859-1"?>
<!-- Generator: Adobe Illustrator 17.1.0, SVG Export Plug-In . SVG Version: 6.00 Build 0)  -->
<!DOCTYPE svg PUBLIC "-//W3C//DTD SVG 1.0//EN" "http://www.w3.org/TR/2001/REC-SVG-20010904/DTD/svg10.dtd">
<svg version="1.0" xmlns="http://www.w3.org/2000/svg" xmlns:xlink="http://www.w3.org/1999/xlink" x="0px" y="0px" width="110px"
	 height="110px" viewBox="0 0 110 110" style="enable-background:new 0 0 110 110;" xml:space="preserve">
<g id="Artboard">
</g>
<g id="Multicolor">
	<g>
		<circle style="fill:#E04F5F;" cx="55" cy="55" r="55"/>
	</g>
	<g>
		<path style="fill:#F4D0A1;" d="M64.864,61.997l-5.105,3.996c-0.569,0.639-1.384,1.004-2.24,1.004h-2.655h-2.655
			c-0.856,0-1.671-0.365-2.24-1.004L45,62.104v5.391c0,0,0,7.5,10,7.5s10-7.5,10-7.5v-5.836L64.864,61.997z"/>
		<path style="fill:#F8E1C2;" d="M54.864,66.997h-2.655c-0.856,0-1.671-0.365-2.24-1.004L45,62.104v5.391c0,0,0,7.5,10,7.5v-7.997
			H54.864z"/>
		<g>
			<path style="fill:#FFFFFF;" d="M55.002,86.997H87l-4-11c-0.615-1.333-1.698-2.394-3.043-2.982L67,67.997l-2-1L55,75l-10-8.003
				l-2,1l-12.957,5.018c-1.345,0.588-2.428,1.649-3.043,2.982l-4,11h31.998L55,87L55.002,86.997z"/>
		</g>
		<path style="fill:#DF2C2C;" d="M64,72l-6.262,2.783C57.271,73.734,56.223,73,55,73s-2.271,0.734-2.738,1.783L46,72v8l6.262-2.783
			C52.729,78.266,53.777,79,55,79s2.271-0.734,2.738-1.783L64,80V72z"/>
		<polygon style="fill:#099686;" points="77,81 75,81 75,71 70,69 70,81 40,81 40,69 35,71 35,81 33,81 31,87 79,87 		"/>
		<path style="fill:#F8E1C2;" d="M70.202,44.045C68.84,46,67.894,46,67.894,46V33.433c-0.022-0.064-0.044-0.129-0.068-0.193
			l-25.932,6.751v9c0.057-0.006-0.402-0.292-1.029-1.1v4.105l4,10l5.105,3.996c0.569,0.639,1.384,1.004,2.24,1.004h2.655h2.655
			c0.855,0,1.67-0.365,2.24-1.004l5.105-3.996l3.207-8.017c2.835-0.205,3.793-4.505,3.793-7.758
			C71.864,45.237,71.077,44.255,70.202,44.045z"/>
		<path style="fill:#FCF1E2;" d="M41.894,39.991v9c0.045-0.005-0.239-0.198-0.669-0.674l-0.36-3.206c0,0,0-1.111-1-1.111
			s-2,1.111-2,2.222c0,3.253,0.958,7.554,3.793,7.758l3.207,8.017l5.105,3.996c0.569,0.639,1.384,1.004,2.24,1.004h2.655H55V36.579
			L41.894,39.991z"/>
		<g>
			<path style="fill:#F79392;" d="M49.864,55.997h10c0,0,0,3-5,3S49.864,55.997,49.864,55.997z"/>
		</g>
		<path style="fill:#3E3E3F;" d="M70.069,31.239c0.546-1.14,0.871-2.706-0.176-4.277c-4.097-6.144-33.077-6.967-32,11
			c0.538,8.97,4.155,11.012,4,11.029v-9l26-6.769V46c0,0,3,0,6-11.029C74.549,32.559,72.042,31.611,70.069,31.239z"/>
		<g>
			<path style="fill:#3E3E3F;" d="M61.007,46.322c1.191,0,2.248,0.266,2.981,0.678c0.071-0.569-0.172-1.154-0.748-1.59
				c-1.03-0.781-2.702-0.781-3.733,0c-0.464,0.352-0.709,0.801-0.753,1.26C59.396,46.451,60.171,46.322,61.007,46.322z"/>
		</g>
		<g>
			<path style="fill:#3E3E3F;" d="M49,46.322c-1.191,0-2.248,0.266-2.981,0.678c-0.071-0.569,0.172-1.154,0.748-1.59
				c1.03-0.781,2.702-0.781,3.733,0c0.464,0.352,0.709,0.801,0.753,1.26C50.611,46.451,49.836,46.322,49,46.322z"/>
		</g>
	</g>
</g>
</svg>
