<?xml version="1.0" encoding="iso-8859-1"?>
<!-- Generator: Adobe Illustrator 17.1.0, SVG Export Plug-In . SVG Version: 6.00 Build 0)  -->
<!DOCTYPE svg PUBLIC "-//W3C//DTD SVG 1.0//EN" "http://www.w3.org/TR/2001/REC-SVG-20010904/DTD/svg10.dtd">
<svg version="1.0" xmlns="http://www.w3.org/2000/svg" xmlns:xlink="http://www.w3.org/1999/xlink" x="0px" y="0px" width="110px"
	 height="110px" viewBox="0 0 110 110" style="enable-background:new 0 0 110 110;" xml:space="preserve">
<g id="Artboard">
</g>
<g id="Multicolor">
	<g>
		<circle style="fill:#32BEA6;" cx="55" cy="55" r="55"/>
	</g>
	<g>
		<path style="fill:#F7B4B4;" d="M57.655,66.547H55h-2.655c-0.856,0-1.671-0.365-2.24-1.004L45,61.547v5.95c0,0,0,7.5,10,7.5
			s10-7.5,10-7.5v-5.95l-5.105,3.996C59.325,66.182,58.51,66.547,57.655,66.547z"/>
		<path style="fill:#FBC8C8;" d="M50.105,65.543L45,61.547v5.95c0,0,0,7.5,10,7.5v-8.45h-2.655
			C51.489,66.547,50.674,66.182,50.105,65.543z"/>
		<g>
			<path style="fill:#FFFFFF;" d="M55.002,87H87l-4-11c-0.615-1.333-1.698-2.394-3.043-2.982L67,68l-2-1l-10,8.003L45,67l-2,1
				l-12.957,5.018C28.698,73.606,27.615,74.667,27,76l-4,11h31.998L55,87.003L55.002,87z"/>
		</g>
		<path style="fill:#DF2C2C;" d="M64,72.003l-6.262,2.783c-0.467-1.049-1.515-1.783-2.738-1.783s-2.271,0.734-2.738,1.783L46,72.003
			v8l6.262-2.783c0.467,1.049,1.515,1.783,2.738,1.783s2.271-0.734,2.738-1.783L64,80.003V72.003z"/>
		<polygon style="fill:#099686;" points="77,81.003 75,81.003 75,71.003 70,69.003 70,81.003 40,81.003 40,69.003 35,71.003 
			35,81.003 33,81.003 31,87.003 79,87.003 		"/>
		<path style="fill:#FBC8C8;" d="M69.719,49.5c0.042-2.566,0.286-5.949,0.286-5.949s-1.822,2.532-5.807,2.532
			c0-4.417,0-13.146,0-13.146S61.99,45.083,53.157,45.083c0-2.208,0-7.729,0-7.729s-3.312,7.729-7.729,7.729
			c0-3.312,0-6.625,0-6.625l-4.417,5.521V49.5c0,0-0.009-0.006-0.011-0.008v2.055l4,10l5.105,3.996
			c0.569,0.639,1.384,1.004,2.24,1.004H55h2.655c0.855,0,1.67-0.365,2.24-1.004L65,61.547l3.207-8.016
			c2.172-0.157,3.24-2.717,3.622-5.37C71.345,48.943,70.672,49.5,69.719,49.5z"/>
		<path style="fill:#FBD7D7;" d="M40.979,49.55c0,0-2.065-1.437-2.932-4.197C38.017,45.492,38,45.632,38,45.773
			c0,3.253,0.958,7.554,3.793,7.758L45,61.547l5.105,3.996c0.569,0.639,1.384,1.004,2.24,1.004H55V44.881
			c-0.59,0.127-1.212,0.203-1.875,0.203c0-2.208,0-7.729,0-7.729s-3.312,7.729-7.729,7.729c0-3.312,0-6.625,0-6.625L41,43.953"/>
		<g>
			<path style="fill:#F79392;" d="M50,56.545h10c0,0,0,3-5,3S50,56.545,50,56.545z"/>
		</g>
		<g>
			<path style="fill:#84462D;" d="M73,42.875C73,31.898,66.31,23,55.333,23s-17.667,8.898-17.667,19.875
				c0,4.417,3.312,6.625,3.312,6.625v-5.521l4.417-5.521c0,0,0,3.312,0,6.625c4.417,0,7.729-7.729,7.729-7.729s0,5.521,0,7.729
				c8.833,0,11.042-12.146,11.042-12.146s0,8.729,0,13.146C68.581,46.086,70,43.55,70,43.5c0,1.05-0.243,1.76-0.312,6
				C73,49.5,73,42.875,73,42.875z"/>
		</g>
		<g>
			<path style="fill:#9C6144;" d="M55,44.931V23.067c-10.774,0.182-17.333,8.995-17.333,19.858c0,4.417,3.312,6.625,3.312,6.625
				v-5.521l4.417-5.521c0,0,0,3.312,0,6.625c4.417,0,7.729-7.729,7.729-7.729s0,5.521,0,7.729C53.788,45.134,54.41,45.058,55,44.931
				z"/>
		</g>
		<g>
			<path style="fill:#3E3E3F;" d="M51.994,47.036c0-1.104-0.896-2-2-2c-0.002,0-0.004,0-0.006,0
				c0.001,0.021,0.006,0.041,0.006,0.062c0,1.103-0.892,1.996-1.994,2c0.033,1.075,0.91,1.938,1.994,1.938
				C51.098,49.036,51.994,48.141,51.994,47.036z"/>
		</g>
		<g>
			<path style="fill:#3E3E3F;" d="M61.987,47.036c0-1.104-0.896-2-2-2c-0.002,0-0.004,0-0.006,0
				c0.001,0.021,0.006,0.041,0.006,0.062c0,1.103-0.892,1.996-1.994,2c0.033,1.075,0.91,1.938,1.994,1.938
				C61.092,49.036,61.987,48.141,61.987,47.036z"/>
		</g>
	</g>
</g>
</svg>
