<?xml version="1.0" encoding="iso-8859-1"?>
<!-- Generator: Adobe Illustrator 17.1.0, SVG Export Plug-In . SVG Version: 6.00 Build 0)  -->
<!DOCTYPE svg PUBLIC "-//W3C//DTD SVG 1.0//EN" "http://www.w3.org/TR/2001/REC-SVG-20010904/DTD/svg10.dtd">
<svg version="1.0" xmlns="http://www.w3.org/2000/svg" xmlns:xlink="http://www.w3.org/1999/xlink" x="0px" y="0px" width="110px"
	 height="110px" viewBox="0 0 110 110" style="enable-background:new 0 0 110 110;" xml:space="preserve">
<g id="Artboard">
</g>
<g id="Multicolor">
	<circle style="fill:#32BEA6;" cx="55" cy="55" r="55"/>
	<g>
		<path style="fill:#CFD3D4;" d="M65.931,59.59c-0.533,0.143-1.082-0.174-1.225-0.707l-0.776-2.898
			c-0.143-0.533,0.174-1.082,0.707-1.225l1.932-0.517c0.533-0.143,1.082,0.174,1.225,0.707l0.776,2.898
			c0.143,0.533-0.174,1.082-0.707,1.225L65.931,59.59z"/>
		<path style="fill:#CFD3D4;" d="M63.833,50.452c-0.468,0.293-1.085,0.15-1.378-0.318l-1.589-2.544
			c-0.293-0.468-0.15-1.085,0.318-1.378l1.696-1.059c0.468-0.293,1.085-0.15,1.378,0.318l1.589,2.544
			c0.293,0.468,0.15,1.085-0.318,1.378L63.833,50.452z"/>
		<path style="fill:#CFD3D4;" d="M57.446,43.105c-0.322,0.448-0.947,0.551-1.396,0.228l-2.436-1.751
			c-0.448-0.322-0.551-0.947-0.228-1.396l1.167-1.624c0.322-0.448,0.947-0.551,1.396-0.228l2.436,1.751
			c0.448,0.322,0.551,0.947,0.228,1.396L57.446,43.105z"/>
		<path style="fill:#CFD3D4;" d="M49.947,38.268c-0.182,0.521-0.752,0.797-1.274,0.614l-2.832-0.989
			c-0.521-0.182-0.797-0.752-0.614-1.274l0.659-1.888c0.182-0.521,0.752-0.797,1.274-0.614l2.832,0.989
			c0.521,0.182,0.797,0.752,0.614,1.274L49.947,38.268z"/>
		<path style="fill:#F0F1F1;" d="M71,87H23V23h14v12h2c15.464,0,28,12.536,28,28h4V87z"/>
		<rect x="23" y="79" style="fill:#CFD3D4;" width="48" height="8"/>
		<path style="fill:#FFFFFF;" d="M29.333,79l32.374-32.374C56.621,39.586,48.349,35,39,35h-2V23H23v56H29.333z"/>
		<path style="fill:#CFD3D4;" d="M37,35h4V24c0-0.552-0.448-1-1-1h-3V35z"/>
		<rect x="71" y="71" style="fill:#818284;" width="13" height="12"/>
		<rect x="84" y="67" style="fill:#E2E4E5;" width="3" height="18"/>
		<circle style="fill:#F0F1F1;" cx="35" cy="55" r="7"/>
		<path style="fill:#B6BCBD;" d="M35,64c-4.962,0-9-4.037-9-9s4.038-9,9-9s9,4.037,9,9S39.962,64,35,64z M35,48c-3.86,0-7,3.14-7,7
			s3.14,7,7,7s7-3.14,7-7S38.86,48,35,48z"/>
		<g>
			<path style="fill:#3E3E3F;" d="M49.586,72.414l-16-16c-0.781-0.781-0.781-2.047,0-2.828c0.781-0.781,2.047-0.781,2.829,0l16,16
				c0.781,0.781,0.781,2.047,0,2.828C51.633,73.195,50.367,73.195,49.586,72.414z"/>
		</g>
		<circle style="fill:#DF2C2C;" cx="51" cy="71" r="4"/>
	</g>
</g>
</svg>
