<?xml version="1.0" encoding="iso-8859-1"?>
<!-- Generator: Adobe Illustrator 17.1.0, SVG Export Plug-In . SVG Version: 6.00 Build 0)  -->
<!DOCTYPE svg PUBLIC "-//W3C//DTD SVG 1.0//EN" "http://www.w3.org/TR/2001/REC-SVG-20010904/DTD/svg10.dtd">
<svg version="1.0" xmlns="http://www.w3.org/2000/svg" xmlns:xlink="http://www.w3.org/1999/xlink" x="0px" y="0px" width="110px"
	 height="110px" viewBox="0 0 110 110" style="enable-background:new 0 0 110 110;" xml:space="preserve">
<g id="Artboard">
</g>
<g id="Multicolor">
	<circle style="fill:#E04F5F;" cx="55" cy="55" r="55"/>
	<g>
		<path style="fill:#FACB1B;" d="M65,30c-0.296-3.712-3.563-7-10-7s-9.704,3.288-10,7c-6.017-7.876-18-3-18,5h28h28
			C83,27,71.017,22.124,65,30z"/>
		<path style="fill:#FBE158;" d="M65,30c-0.296-3.712-3.563-7-10-7s-9.704,3.288-10,7c-6.017-7.876-18-3-18,5h28h11.113l8.8-8.8
			C71.476,25.534,67.657,26.523,65,30z"/>
		<rect x="29" y="39" style="fill:#F99134;" width="52" height="12"/>
		<rect x="27.113" y="55" style="fill:#F99134;" width="56" height="16"/>
		<path style="fill:#9C6144;" d="M87,85c0,1.1-0.9,2-2,2H25c-1.1,0-2-0.9-2-2V73c0-1.1,0.9-2,2-2h60c1.1,0,2,0.9,2,2V85z"/>
		<rect x="27" y="74" style="fill:#84462D;" width="56" height="10"/>
		<path style="fill:#F3B607;" d="M62,78c0,0,0,3-8,3s-8-3-8-3H62z"/>
		<polygon style="fill:#F3B607;" points="27.113,55 29.113,51 81.113,51 83.113,55 		"/>
		<rect x="27" y="35" style="fill:#FBE158;" width="56" height="4"/>
		<polygon style="fill:#F3B607;" points="29,51 50.113,51 62.113,39 29,39 		"/>
		<polygon style="fill:#F3B607;" points="27,55 27,71 30.113,71 46.113,55 		"/>
		<polygon style="fill:#FACB1B;" points="27,55 46.113,55 50.113,51 29,51 		"/>
		<polygon style="fill:#FBEC9A;" points="55,35 27,35 27,39 29,39 62.113,39 66.113,35 		"/>
		<rect x="32.113" y="39" style="fill:#3E3E3F;" width="10" height="12"/>
		<rect x="44" y="39" style="fill:#3E3E3F;" width="10" height="12"/>
		<rect x="56.113" y="39" style="fill:#3E3E3F;" width="10" height="12"/>
		<rect x="68.113" y="39" style="fill:#3E3E3F;" width="10" height="12"/>
		<circle style="fill:#FCF6C2;" cx="35.113" cy="60" r="2"/>
		<circle style="fill:#FCF6C2;" cx="43.113" cy="60" r="2"/>
		<circle style="fill:#FCF6C2;" cx="51.113" cy="60" r="2"/>
		<circle style="fill:#FCF6C2;" cx="59.113" cy="60" r="2"/>
		<circle style="fill:#FCF6C2;" cx="75.113" cy="60" r="2"/>
		<circle style="fill:#FCF6C2;" cx="67.113" cy="60" r="2"/>
		<circle style="fill:#FCF6C2;" cx="39.113" cy="66" r="2"/>
		<circle style="fill:#FCF6C2;" cx="47.113" cy="66" r="2"/>
		<circle style="fill:#FCF6C2;" cx="55.113" cy="66" r="2"/>
		<circle style="fill:#FCF6C2;" cx="63.113" cy="66" r="2"/>
		<circle style="fill:#FCF6C2;" cx="71.113" cy="66" r="2"/>
		<g>
			<path style="fill:#FFFFFF;" d="M36.892,43.463l-0.54,0.14c-0.08,0.02-0.19,0.04-0.27,0.04c-0.36,0-0.67-0.3-0.67-0.66
				c0-0.31,0.2-0.57,0.51-0.66l0.99-0.29c0.29-0.08,0.51-0.13,0.719-0.13h0.02c0.42,0,0.76,0.34,0.76,0.76V48.3
				c0,0.42-0.34,0.76-0.76,0.76c-0.42,0-0.76-0.34-0.76-0.76V43.463z"/>
		</g>
		<g>
			<path style="fill:#FFFFFF;" d="M47.282,48.62c-0.21-0.13-0.36-0.35-0.36-0.629c0-0.4,0.33-0.7,0.729-0.7
				c0.15,0,0.28,0.05,0.4,0.12c0.36,0.21,0.68,0.31,1.119,0.31c0.86,0,1.319-0.649,1.419-1.589c-0.34,0.29-0.81,0.48-1.419,0.48
				c-1.519,0-2.499-0.839-2.499-2.259v-0.02c0-1.409,1.09-2.449,2.669-2.449c0.939,0,1.489,0.23,2.019,0.76
				c0.5,0.5,0.83,1.259,0.83,2.639v0.02c0,2.269-1.069,3.818-3.058,3.818C48.352,49.12,47.802,48.94,47.282,48.62z M50.62,44.292
				v-0.02c0-0.62-0.46-1.069-1.229-1.069c-0.76,0-1.189,0.44-1.189,1.06v0.02c0,0.62,0.46,1.049,1.219,1.049
				C50.181,45.332,50.62,44.892,50.62,44.292z"/>
		</g>
		<g>
			<path style="fill:#FFFFFF;" d="M71.012,48.46c-0.18-0.13-0.31-0.33-0.31-0.59c0-0.4,0.33-0.74,0.73-0.74
				c0.18,0,0.3,0.05,0.42,0.14c0.43,0.31,0.84,0.45,1.329,0.45c0.65,0,1.129-0.35,1.129-0.969v-0.02c0-0.6-0.51-0.95-1.239-0.95
				c-0.59,0-0.85,0.18-1.06,0.18c-0.22,0-0.39-0.09-0.7-0.31c-0.21-0.15-0.3-0.36-0.28-0.62l0.14-2.369
				c0.02-0.37,0.31-0.66,0.68-0.66h3.038c0.37,0,0.68,0.31,0.68,0.68c0,0.37-0.31,0.669-0.68,0.669h-2.359l-0.08,1.209
				c0.28-0.07,0.53-0.12,0.92-0.12c1.379,0,2.448,0.66,2.448,2.239v0.02c0,1.479-1.069,2.419-2.608,2.419
				C72.242,49.12,71.572,48.86,71.012,48.46z"/>
		</g>
		<g>
			<path style="fill:#FFFFFF;" d="M60.603,48.95c0.51-0.12,0.79-0.47,0.77-0.95c-0.35-0.09-0.7-0.39-0.7-0.819v-0.02
				c0-0.47,0.33-0.82,0.83-0.82c0.56,0,0.89,0.43,0.89,1.12v0.04c0,0.729-0.22,1.269-0.59,1.639c-0.3,0.3-0.75,0.48-1.119,0.48
				c-0.27,0-0.38-0.16-0.38-0.34S60.433,48.989,60.603,48.95z"/>
		</g>
	</g>
</g>
</svg>
