<?xml version="1.0" encoding="iso-8859-1"?>
<!-- Generator: Adobe Illustrator 17.1.0, SVG Export Plug-In . SVG Version: 6.00 Build 0)  -->
<!DOCTYPE svg PUBLIC "-//W3C//DTD SVG 1.0//EN" "http://www.w3.org/TR/2001/REC-SVG-20010904/DTD/svg10.dtd">
<svg version="1.0" xmlns="http://www.w3.org/2000/svg" xmlns:xlink="http://www.w3.org/1999/xlink" x="0px" y="0px" width="110px"
	 height="110px" viewBox="0 0 110 110" style="enable-background:new 0 0 110 110;" xml:space="preserve">
<g id="Artboard">
</g>
<g id="Multicolor">
	<circle style="fill:#FABC3D;" cx="55" cy="55" r="55"/>
	<g>
		<circle style="fill:#E2E4E5;" cx="55" cy="55" r="32"/>
		<path style="fill:#FFFFFF;" d="M23,55c0,17.673,14.327,32,32,32V23C37.327,23,23,37.327,23,55z"/>
		<circle style="fill:#3E3E3F;" cx="55" cy="55" r="16"/>
		<g>
			<g>
				<path style="fill:#DF2C2C;" d="M44.169,24.879l6.442,14.729c-2.531,0.721-4.929,2.086-6.923,4.08
					c-1.994,1.994-3.359,4.391-4.08,6.923l-14.729-6.442C28.096,35.222,35.203,28.103,44.169,24.879z"/>
			</g>
		</g>
		<g>
			<g>
				<path style="fill:#BF0302;" d="M85.124,44.169l-14.729,6.442c-0.721-2.531-2.086-4.929-4.08-6.923
					c-1.994-1.994-4.391-3.359-6.923-4.08l6.442-14.729c4.306,1.549,8.344,4.045,11.795,7.495S83.576,39.863,85.124,44.169z"/>
			</g>
		</g>
		<g>
			<g>
				<path style="fill:#BF0302;" d="M65.834,85.124l-6.442-14.729c2.531-0.721,4.929-2.086,6.923-4.08s3.359-4.391,4.08-6.923
					l14.729,6.442c-1.549,4.306-4.045,8.344-7.495,11.795C74.178,81.08,70.141,83.576,65.834,85.124z"/>
			</g>
		</g>
		<g>
			<g>
				<path style="fill:#DF2C2C;" d="M24.879,65.835l14.729-6.442c0.721,2.531,2.086,4.929,4.08,6.923s4.391,3.359,6.923,4.08
					l-6.442,14.729c-4.306-1.549-8.344-4.045-11.795-7.495C28.924,74.178,26.428,70.141,24.879,65.835z"/>
			</g>
		</g>
		<g>
			<g>
				<circle style="fill:#DF2C2C;" cx="30.96" cy="55.002" r="3"/>
			</g>
		</g>
		<g>
			<g>
				<circle style="fill:#BF0302;" cx="55.002" cy="30.96" r="3"/>
			</g>
		</g>
		<g>
			<g>
				<circle style="fill:#BF0302;" cx="55.002" cy="79.043" r="3"/>
			</g>
		</g>
		<g>
			<g>
				<circle style="fill:#BF0302;" cx="79.043" cy="55.002" r="3"/>
			</g>
		</g>
		<path style="fill:#DF2C2C;" d="M55,27.96c-0.767,0-1.534,0.293-2.12,0.879c-1.171,1.171-1.171,3.071,0,4.242
			c0.585,0.585,1.353,0.878,2.12,0.879V27.96z"/>
		<path style="fill:#DF2C2C;" d="M55,76c-0.767,0-1.534,0.293-2.12,0.879c-1.171,1.171-1.171,3.071,0,4.242
			C53.466,81.707,54.233,81.999,55,82V76z"/>
		<path style="fill:#5B5C5F;" d="M39,55c0,8.836,7.164,16,16,16V39C46.164,39,39,46.164,39,55z"/>
		<g>
			<g>
				<path style="fill:#FFFFFF;" d="M49.57,62.13c-0.452-0.326-0.778-0.828-0.778-1.48c0-1.003,0.828-1.856,1.832-1.856
					c0.451,0,0.752,0.125,1.053,0.351c1.079,0.778,2.107,1.129,3.336,1.129c1.631,0,2.835-0.878,2.835-2.433v-0.05
					c0-1.505-1.28-2.383-3.111-2.383c-1.48,0-2.132,0.452-2.659,0.452c-0.552,0-0.978-0.226-1.756-0.778
					c-0.527-0.376-0.752-0.903-0.703-1.555l0.352-5.945c0.05-0.928,0.777-1.655,1.706-1.655h7.626c0.928,0,1.706,0.777,1.706,1.706
					s-0.778,1.681-1.706,1.681h-5.92l-0.201,3.036c0.702-0.176,1.33-0.301,2.308-0.301c3.462,0,6.146,1.656,6.146,5.619v0.05
					c0,3.712-2.684,6.07-6.547,6.07C52.655,63.785,50.975,63.133,49.57,62.13z"/>
			</g>
		</g>
	</g>
</g>
</svg>
