<?xml version="1.0" encoding="iso-8859-1"?>
<!-- Generator: Adobe Illustrator 17.1.0, SVG Export Plug-In . SVG Version: 6.00 Build 0)  -->
<!DOCTYPE svg PUBLIC "-//W3C//DTD SVG 1.0//EN" "http://www.w3.org/TR/2001/REC-SVG-20010904/DTD/svg10.dtd">
<svg version="1.0" xmlns="http://www.w3.org/2000/svg" xmlns:xlink="http://www.w3.org/1999/xlink" x="0px" y="0px" width="110px"
	 height="110px" viewBox="0 0 110 110" style="enable-background:new 0 0 110 110;" xml:space="preserve">
<g id="Artboard">
</g>
<g id="Multicolor">
	<circle style="fill:#32BEA6;" cx="55" cy="55" r="55"/>
	<g>
		<path style="fill:#3E3E3F;" d="M87,39c0-2.209-1.791-4-4-4H27c-2.209,0-4,1.791-4,4v37c0,2.209,1.791,4,4,4h56
			c2.209,0,4-1.791,4-4V39z"/>
		<rect x="27" y="55" style="fill:#DF2C2C;" width="56" height="16"/>
		<path style="fill:#FACB1B;" d="M83,55H27V41l2-2h52l2,2V55z"/>
		<polygon style="fill:#B6BCBD;" points="71,71 39,71 35,80 75,80 		"/>
		<path style="fill:#FA5655;" d="M35,55.053c0-0.018,0.002-0.035,0.003-0.053H27v16h5.835l8.168-8.168
			C37.551,61.924,35,58.791,35,55.053z"/>
		<path style="fill:#FBE158;" d="M27,41v14h8.003c0.029-4.423,3.621-8,8.05-8h13.783l8-8H29L27,41z"/>
		<path style="fill:#3E3E3F;" d="M66.947,47H43.053C38.605,47,35,50.605,35,55.053s3.605,8.053,8.053,8.053h23.895
			c4.448,0,8.053-3.605,8.053-8.053S71.395,47,66.947,47z"/>
		<path style="fill:#FFFFFF;" d="M70.801,53.902c-0.391-1.202-1.362-2.132-2.59-2.461v1.664H65.91v-1.547
			c-1.052,0.404-1.864,1.267-2.214,2.344h1.252v2.301h-1.252c0.371,1.139,1.263,2.032,2.402,2.402v-1.252h2.301v1.252
			c1.139-0.371,2.032-1.263,2.402-2.402h-1.252v-2.301H70.801z"/>
		<path style="fill:#818284;" d="M67.248,49.301c-3.177,0-5.752,2.575-5.752,5.752s2.575,5.752,5.752,5.752S73,58.229,73,55.053
			S70.425,49.301,67.248,49.301z M68.398,58.605v-1.252h-2.301v1.252c-1.139-0.371-2.032-1.263-2.402-2.402h1.252v-2.301h-1.252
			c0.35-1.077,1.163-1.939,2.214-2.344v1.547h2.301v-1.664c1.228,0.329,2.2,1.259,2.59,2.461h-1.252v2.301h1.252
			C70.43,57.342,69.538,58.235,68.398,58.605z"/>
		<path style="fill:#FFFFFF;" d="M46.553,53.902c-0.391-1.202-1.362-2.132-2.59-2.461v1.664h-2.301v-1.547
			c-1.052,0.404-1.864,1.267-2.214,2.344h1.252v2.301h-1.252c0.371,1.139,1.263,2.032,2.402,2.402v-1.252h2.301v1.252
			c1.139-0.371,2.032-1.263,2.402-2.402h-1.252v-2.301H46.553z"/>
		<path style="fill:#818284;" d="M43,49.301c-3.177,0-5.752,2.575-5.752,5.752s2.575,5.752,5.752,5.752s5.752-2.575,5.752-5.752
			S46.177,49.301,43,49.301z M44.15,58.605v-1.252H41.85v1.252c-1.139-0.371-2.032-1.263-2.402-2.402h1.252v-2.301h-1.252
			c0.35-1.077,1.163-1.939,2.214-2.344v1.547h2.301v-1.664c1.228,0.329,2.2,1.259,2.59,2.461h-1.252v2.301h1.252
			C46.182,57.342,45.29,58.235,44.15,58.605z"/>
		<path style="fill:#5B5C5F;" d="M27,71V55V41l2-2h35.836l4-4H27c-2.209,0-4,1.791-4,4v37c0,1.318,0.646,2.478,1.629,3.206
			L32.835,71H27z"/>
		<path style="fill:#5B5C5F;" d="M43.053,47c-4.429,0-8.021,3.577-8.05,8c0,0.018-0.003,0.035-0.003,0.053
			c0,3.738,2.551,6.872,6.003,7.779l2.029-2.028c-3.167-0.011-5.731-2.581-5.731-5.751c0-0.018,0.002-0.035,0.003-0.053
			c0.029-3.152,2.59-5.699,5.749-5.699s5.721,2.547,5.749,5.699h0.034l8-8H43.053z"/>
		<circle style="fill:#3E3E3F;" cx="50.5" cy="74.625" r="1.375"/>
		<circle style="fill:#3E3E3F;" cx="44.5" cy="76.625" r="1.375"/>
		<circle style="fill:#3E3E3F;" cx="59.5" cy="74.625" r="1.375"/>
		<circle style="fill:#3E3E3F;" cx="65.5" cy="76.625" r="1.375"/>
		<path style="fill:#B6BCBD;" d="M48.752,55.053c0-3.177-2.575-5.752-5.752-5.752s-5.752,2.575-5.752,5.752s2.575,5.752,5.752,5.752
			c0.077,0,0.152-0.008,0.228-0.012l5.513-5.513C48.744,55.204,48.752,55.129,48.752,55.053z M46.553,56.203
			c-0.371,1.139-1.263,2.032-2.402,2.402v-1.252H41.85v1.252c-1.139-0.371-2.032-1.263-2.402-2.402h1.252v-2.301h-1.252
			c0.35-1.077,1.163-1.939,2.214-2.344v1.547h2.301v-1.664c1.228,0.329,2.2,1.259,2.59,2.461h-1.252v2.301H46.553z"/>
	</g>
</g>
</svg>
