<?xml version="1.0" encoding="iso-8859-1"?>
<!-- Generator: Adobe Illustrator 17.1.0, SVG Export Plug-In . SVG Version: 6.00 Build 0)  -->
<!DOCTYPE svg PUBLIC "-//W3C//DTD SVG 1.0//EN" "http://www.w3.org/TR/2001/REC-SVG-20010904/DTD/svg10.dtd">
<svg version="1.0" xmlns="http://www.w3.org/2000/svg" xmlns:xlink="http://www.w3.org/1999/xlink" x="0px" y="0px" width="110px"
	 height="110px" viewBox="0 0 110 110" style="enable-background:new 0 0 110 110;" xml:space="preserve">
<g id="Artboard">
</g>
<g id="Multicolor">
	<circle style="fill:#32BEA6;" cx="55" cy="55" r="55"/>
	<g>
		<polygon style="fill:#E2E4E5;" points="70,62 70,66 75,66 75,47 67,47 67,62 		"/>
		<polygon style="fill:#E2E4E5;" points="51,66 51,62 59,62 59,66 60,66 60,39 50,39 50,66 		"/>
		<polygon style="fill:#E2E4E5;" points="40,66 40,62 43,62 43,47 35,47 35,66 		"/>
		<g>
			<polygon style="fill:#FFFFFF;" points="70,66 70,62 63,62 63,66 59,66 59,62 51,62 51,66 48,66 48,62 40,62 40,66 27,66 27,87 
				83,87 83,66 			"/>
		</g>
		<g>
			<path style="fill:#F0F1F1;" d="M38.901,60H23.099C23.604,65.185,26,66,26,66l-3,21h16l-3-21C36,66,38.396,65.185,38.901,60z"/>
		</g>
		<g>
			<path style="fill:#FFFFFF;" d="M86.901,60H71.099C71.604,65.185,74,66,74,66l-3,21h16l-3-21C84,66,86.396,65.185,86.901,60z"/>
		</g>
		<g>
			<polygon style="fill:#FACB1B;" points="72,31 79,33 72,35 			"/>
		</g>
		<g>
			<path style="fill:#84462D;" d="M59,82c0-2.209-1.791-4-4-4c-2.209,0-4,1.791-4,4v5h8V82z"/>
		</g>
		<g>
			<polygon style="fill:#84462D;" points="55,32 56,32.875 56,24 54,24 54,32.875 			"/>
		</g>
		<g>
			<polygon style="fill:#DF2C2C;" points="47,39 63,39 55,32 			"/>
		</g>
		<g>
			<polygon style="fill:#FACB1B;" points="56,24 73,27 56,29 			"/>
		</g>
		<g>
			<polygon style="fill:#84462D;" points="39,39 40,40.143 40,31 38,31 38,40 			"/>
		</g>
		<g>
			<polygon style="fill:#DF2C2C;" points="31,47 47,47 39,39 			"/>
		</g>
		<g>
			<polygon style="fill:#FACB1B;" points="40,31 47,33 40,35 			"/>
		</g>
		<g>
			<polygon style="fill:#84462D;" points="71,39 72,40 72,31 70,31 70,40 			"/>
		</g>
		<g>
			<polygon style="fill:#DF2C2C;" points="63,47 79,47 71,39 			"/>
		</g>
		<g>
			<path style="fill:#6A6A6B;" d="M57,45c0-1.105-0.895-2-2-2c-1.105,0-2,0.895-2,2v2h4V45z"/>
		</g>
		<g>
			<path style="fill:#FFFFFF;" d="M31,87V60h-7.901C23.604,65.185,26,66,26,66l-3,21H31z"/>
		</g>
		<g>
			<path style="fill:#F0F1F1;" d="M79,87V60h-7.901C71.604,65.185,74,66,74,66l-3,21H79z"/>
		</g>
		<g>
			<path style="fill:#C7CBCC;" d="M33.5,73.5c0-0.276-0.224-0.5-0.5-0.5h-1.5v-3.5c0-0.276-0.224-0.5-0.5-0.5s-0.5,0.224-0.5,0.5V73
				H29c-0.276,0-0.5,0.224-0.5,0.5S28.724,74,29,74h1.5v3.5c0,0.276,0.224,0.5,0.5,0.5s0.5-0.224,0.5-0.5V74H33
				C33.276,74,33.5,73.776,33.5,73.5z"/>
		</g>
		<g>
			<path style="fill:#C7CBCC;" d="M81,73h-1.5v-3.5c0-0.276-0.224-0.5-0.5-0.5s-0.5,0.224-0.5,0.5V73H77c-0.276,0-0.5,0.224-0.5,0.5
				S76.724,74,77,74h1.5v3.5c0,0.276,0.224,0.5,0.5,0.5s0.5-0.224,0.5-0.5V74H81c0.276,0,0.5-0.224,0.5-0.5S81.276,73,81,73z"/>
		</g>
		<g>
			<path style="fill:#6A6A6B;" d="M73,51c0-1.105-0.895-2-2-2s-2,0.895-2,2v2h4V51z"/>
		</g>
		<g>
			<path style="fill:#6A6A6B;" d="M41,51c0-1.105-0.895-2-2-2c-1.105,0-2,0.895-2,2v2h4V51z"/>
		</g>
		<g>
			<polygon style="fill:#FA5655;" points="55,32 47,39 55,39 			"/>
		</g>
		<g>
			<polygon style="fill:#FA5655;" points="39,39 31,47 39,47 			"/>
		</g>
		<g>
			<polygon style="fill:#FA5655;" points="71,39 63,47 71,47 			"/>
		</g>
	</g>
</g>
</svg>
