<?xml version="1.0" encoding="iso-8859-1"?>
<!-- Generator: Adobe Illustrator 17.1.0, SVG Export Plug-In . SVG Version: 6.00 Build 0)  -->
<!DOCTYPE svg PUBLIC "-//W3C//DTD SVG 1.0//EN" "http://www.w3.org/TR/2001/REC-SVG-20010904/DTD/svg10.dtd">
<svg version="1.0" xmlns="http://www.w3.org/2000/svg" xmlns:xlink="http://www.w3.org/1999/xlink" x="0px" y="0px" width="110px"
	 height="110px" viewBox="0 0 110 110" style="enable-background:new 0 0 110 110;" xml:space="preserve">
<g id="Artboard">
</g>
<g id="Multicolor">
	<circle style="fill:#32BEA6;" cx="55" cy="55" r="55"/>
	<g>
		<path style="fill:#E2E4E5;" d="M31,87l8-36l-6.894-3.447C31.428,47.214,31,46.521,31,45.764V25c0-1.105,0.895-2,2-2h8
			c1.105,0,2,0.895,2,2v8c0,1.105,0.895,2,2,2h2c1.105,0,2-0.895,2-2v-8c0-1.105,0.895-2,2-2h8c1.105,0,2,0.895,2,2v8
			c0,1.105,0.895,2,2,2h2c1.105,0,2-0.895,2-2v-8c0-1.105,0.895-2,2-2h8c1.105,0,2,0.895,2,2v20.764c0,0.758-0.428,1.45-1.106,1.789
			L71,51l8,36H31z"/>
		<path style="fill:#F0F1F1;" d="M55,87V23h-4c-1.104,0-2,0.896-2,2v8c0,1.104-0.896,2-2,2h-2c-1.104,0-2-0.896-2-2v-8
			c0-1.104-0.896-2-2-2h-8c-1.104,0-2,0.896-2,2v20.764c0,0.758,0.428,1.45,1.105,1.789L39,51l-8,36H55z"/>
		<path style="fill:#5B5C5F;" d="M63,81c0-4.418-3.582-8-8-8s-8,3.582-8,8v6h16V81z"/>
		<path style="fill:#5B5C5F;" d="M65,66c0,0.552-0.448,1-1,1h-2c-0.552,0-1-0.448-1-1v-6c0-0.552,0.448-1,1-1h2c0.552,0,1,0.448,1,1
			V66z"/>
		<path style="fill:#5B5C5F;" d="M49,66c0,0.552-0.448,1-1,1h-2c-0.552,0-1-0.448-1-1v-6c0-0.552,0.448-1,1-1h2c0.552,0,1,0.448,1,1
			V66z"/>
		<path style="fill:#F0F1F1;" d="M32.105,47.553L39,51h32l6.895-3.447C78.572,47.214,79,46.521,79,45.764V25c0-1.104-0.896-2-2-2h-8
			c-1.104,0-2,0.896-2,2v8c0,1.104-0.896,2-2,2h-2c-1.104,0-2-0.896-2-2v-8c0-1.104-0.896-2-2-2h-8c-1.104,0-2,0.896-2,2v8
			c0,1.104-0.896,2-2,2h-2c-1.104,0-2-0.896-2-2v-8c0-1.104-0.896-2-2-2h-8c-1.104,0-2,0.896-2,2v20.764
			C31,46.521,31.428,47.214,32.105,47.553z"/>
		<path style="fill:#FFFFFF;" d="M33,23h8c1.104,0,2,0.896,2,2v8c0,1.104,0.896,2,2,2h2c1.104,0,2-0.896,2-2v-8c0-1.104,0.896-2,2-2
			h4v28H39l-6.895-3.447C31.428,47.214,31,46.521,31,45.764V25C31,23.896,31.896,23,33,23z"/>
	</g>
</g>
</svg>
