<?xml version="1.0" encoding="iso-8859-1"?>
<!-- Generator: Adobe Illustrator 17.1.0, SVG Export Plug-In . SVG Version: 6.00 Build 0)  -->
<!DOCTYPE svg PUBLIC "-//W3C//DTD SVG 1.0//EN" "http://www.w3.org/TR/2001/REC-SVG-20010904/DTD/svg10.dtd">
<svg version="1.0" xmlns="http://www.w3.org/2000/svg" xmlns:xlink="http://www.w3.org/1999/xlink" x="0px" y="0px" width="110px"
	 height="110px" viewBox="0 0 110 110" style="enable-background:new 0 0 110 110;" xml:space="preserve">
<g id="Artboard">
</g>
<g id="Multicolor">
	<circle style="fill:#32BEA6;" cx="55" cy="55" r="55"/>
	<g>
		<g>
			<path style="fill:#3E3E3F;" d="M86.047,44.007c0.256-0.234,0.372-0.583,0.308-0.924s-0.3-0.623-0.624-0.748L36.759,23.521
				c-4.083-1.568-8.665,0.47-10.233,4.553c-1.716,4.468,0.593,8.883,4.496,10.383l0.075,0.028l-1.434,3.734
				c-0.394,1.026,0.123,2.189,1.15,2.584L43,49.487V63H31v8h12c0,2.209,1.791,4,4,4c2.209,0,4-1.791,4-4V52.56l19.017,7.306
				c1.027,0.395,2.19-0.123,2.584-1.15l4.269-11.113c1.585,0.508,2.919,1.019,3.768,1.345L86.047,44.007z"/>
		</g>
		<g>
			<path style="fill:#CFD3D4;" d="M60.967,49.962L31.095,38.486l-1.434,3.734c-0.394,1.026,0.123,2.189,1.15,2.584l39.206,15.062
				c1.027,0.395,2.19-0.123,2.584-1.15l4.269-11.113C71.486,45.877,63.183,44.192,60.967,49.962z"/>
		</g>
		<g>
			
				<rect x="78.919" y="50.611" transform="matrix(0.9335 0.3586 -0.3586 0.9335 24.5842 -25.4573)" style="fill:#CFD3D4;" width="4" height="5.867"/>
		</g>
		<g>
			<path style="fill:#F0F1F1;" d="M31,75c0,4.418-3.582,8-8,8V51c4.418,0,8,3.582,8,8V75z"/>
		</g>
		<g>
			
				<rect x="74.979" y="47.899" transform="matrix(0.9335 0.3586 -0.3586 0.9335 24.0905 -24.0871)" style="fill:#3E3E3F;" width="4" height="10"/>
		</g>
		<g>
			<path style="fill:#FFFFFF;" d="M31,67.527V59c0-4.418-3.582-8-8-8v24.527L31,67.527z"/>
		</g>
		<g>
			<path style="fill:#E2E4E5;" d="M31.095,38.486l-1.434,3.734c-0.394,1.027,0.123,2.189,1.15,2.584l16.553,6.359l4.644-4.644
				L31.095,38.486z"/>
		</g>
		<g>
			<path style="fill:#F0F1F1;" d="M86.047,44.007c0.256-0.234,0.372-0.583,0.308-0.924s-0.3-0.623-0.624-0.748L36.759,23.521
				c-4.083-1.569-8.665,0.47-10.233,4.553c-1.716,4.468,0.593,8.884,4.496,10.383l29.946,11.504
				c2.869-7.468,15.938-2.447,19.672-1.013L86.047,44.007z"/>
		</g>
		<g>
			<path style="fill:#FFFFFF;" d="M36.759,23.521c-4.083-1.569-8.665,0.47-10.233,4.553c-1.715,4.462,0.589,8.882,4.496,10.383
				l20.987,8.062L64.39,34.137L36.759,23.521z"/>
		</g>
	</g>
</g>
</svg>
