<?xml version="1.0" encoding="iso-8859-1"?>
<!-- Generator: Adobe Illustrator 17.1.0, SVG Export Plug-In . SVG Version: 6.00 Build 0)  -->
<!DOCTYPE svg PUBLIC "-//W3C//DTD SVG 1.0//EN" "http://www.w3.org/TR/2001/REC-SVG-20010904/DTD/svg10.dtd">
<svg version="1.0" xmlns="http://www.w3.org/2000/svg" xmlns:xlink="http://www.w3.org/1999/xlink" x="0px" y="0px" width="110px"
	 height="110px" viewBox="0 0 110 110" style="enable-background:new 0 0 110 110;" xml:space="preserve">
<g id="Artboard">
</g>
<g id="Multicolor">
	<circle style="fill:#25B7D3;" cx="55" cy="55" r="55"/>
	<g>
		<path style="fill:#EDBC7C;" d="M35,51h40v24c0,2.209-1.791,4-4,4H39c-2.209,0-4-1.791-4-4V51z"/>
		<path style="fill:#C9F2F8;" d="M71,55c-8.837,0-16,7.163-16,16s7.163,16,16,16s16-7.163,16-16S79.837,55,71,55z M71,75
			c-2.209,0-4-1.791-4-4c0-2.209,1.791-4,4-4s4,1.791,4,4C75,73.209,73.209,75,71,75z"/>
		<polygon style="fill:#F8E1C2;" points="35,39 29,51 81,51 75,39 		"/>
		<polygon style="fill:#A97A45;" points="75,39 35,39 39,30 71,30 		"/>
		<path style="fill:#FFFFFF;" d="M71,67c0.644,0,1.243,0.166,1.782,0.436l5.368-10.735C75.996,55.622,73.573,55,71,55
			s-4.996,0.622-7.149,1.701l5.368,10.735C69.757,67.166,70.356,67,71,67z"/>
		<path style="fill:#FFFFFF;" d="M72.782,74.564C72.243,74.834,71.644,75,71,75s-1.243-0.166-1.782-0.436l-5.368,10.735
			C66.004,86.378,68.427,87,71,87s4.996-0.622,7.149-1.701L72.782,74.564z"/>
		<polygon style="fill:#F8E1C2;" points="39,30 35,39 23,33 31,26 		"/>
		<polygon style="fill:#F8E1C2;" points="71,30 75,39 87,33 79,26 		"/>
	</g>
</g>
</svg>
