<?xml version="1.0" encoding="iso-8859-1"?>
<!-- Generator: Adobe Illustrator 17.1.0, SVG Export Plug-In . SVG Version: 6.00 Build 0)  -->
<!DOCTYPE svg PUBLIC "-//W3C//DTD SVG 1.0//EN" "http://www.w3.org/TR/2001/REC-SVG-20010904/DTD/svg10.dtd">
<svg version="1.0" xmlns="http://www.w3.org/2000/svg" xmlns:xlink="http://www.w3.org/1999/xlink" x="0px" y="0px" width="110px"
	 height="110px" viewBox="0 0 110 110" style="enable-background:new 0 0 110 110;" xml:space="preserve">
<g id="Artboard">
</g>
<g id="Multicolor">
	<circle style="fill:#32BEA6;" cx="55" cy="54.98" r="55"/>
	<g>
		<g>
			<rect x="23" y="22.98" style="fill:#FFFFFF;" width="64" height="52"/>
		</g>
		<g>
			<path style="fill:#FACB1B;" d="M83,26.98v44H27v-44H83 M87,22.98H23v52h64V22.98L87,22.98z"/>
		</g>
		<path style="fill:#CFD3D4;" d="M57,61.98c0-0.552-0.448-1-1-1H34c-0.552,0-1,0.448-1,1s0.448,1,1,1h22
			C56.552,62.98,57,62.532,57,61.98z"/>
		<path style="fill:#CFD3D4;" d="M57,54.98c0-0.552-0.448-1-1-1H34c-0.552,0-1,0.448-1,1s0.448,1,1,1h22
			C56.552,55.98,57,55.532,57,54.98z"/>
		<path style="fill:#CFD3D4;" d="M57,47.98c0-0.552-0.448-1-1-1H34c-0.552,0-1,0.448-1,1s0.448,1,1,1h22
			C56.552,48.98,57,48.532,57,47.98z"/>
		<path style="fill:#3E3E3F;" d="M83,58.98c0-1.466-0.903-2.717-2.182-3.239c0.536-1.273,0.289-2.796-0.747-3.833
			c-1.037-1.037-2.56-1.283-3.833-0.748C75.717,49.883,74.466,48.98,73,48.98s-2.717,0.903-3.239,2.181
			c-1.272-0.535-2.796-0.289-3.833,0.748c-1.036,1.036-1.283,2.56-0.747,3.833C63.903,56.263,63,57.514,63,58.98
			s0.903,2.717,2.182,3.239c-0.536,1.273-0.289,2.796,0.747,3.833c0.532,0.532,1.192,0.852,1.88,0.969L65,85.98l8-6.75l8,6.75
			l-2.809-18.96c0.688-0.117,1.349-0.437,1.88-0.969c1.036-1.036,1.283-2.56,0.747-3.833C82.097,61.697,83,60.446,83,58.98z"/>
		<path style="fill:#DF2C2C;" d="M83,58.98c0-1.466-0.903-2.717-2.182-3.239c0.536-1.273,0.289-2.796-0.747-3.833
			c-1.037-1.037-2.56-1.283-3.833-0.748C75.717,49.883,74.466,48.98,73,48.98s-2.717,0.903-3.239,2.181
			c-1.272-0.535-2.796-0.289-3.833,0.748c-1.036,1.036-1.283,2.56-0.747,3.833C63.903,56.263,63,57.514,63,58.98
			s0.903,2.717,2.182,3.239c-0.536,1.273-0.289,2.796,0.747,3.833c1.037,1.037,2.56,1.283,3.833,0.748
			c0.521,1.279,1.773,2.181,3.239,2.181s2.717-0.903,3.239-2.181c1.272,0.535,2.796,0.289,3.833-0.748
			c1.036-1.036,1.283-2.56,0.747-3.833C82.097,61.697,83,60.446,83,58.98z"/>
		<path style="fill:#FA5655;" d="M80.071,51.909c-1.037-1.037-2.56-1.283-3.833-0.748C75.717,49.883,74.466,48.98,73,48.98
			s-2.717,0.903-3.239,2.181c-1.272-0.535-2.796-0.289-3.833,0.748c-1.036,1.036-1.283,2.56-0.747,3.833
			C63.903,56.263,63,57.514,63,58.98s0.903,2.717,2.182,3.239c-0.536,1.273-0.289,2.796,0.747,3.833
			c0.043,0.043,0.091,0.076,0.135,0.116l14.123-14.123C80.147,52,80.114,51.952,80.071,51.909z"/>
		<circle style="fill:#FACB1B;" cx="73" cy="58.98" r="4"/>
		<path style="fill:#FBE158;" d="M73,54.98c-2.209,0-4,1.791-4,4c0,1.169,0.51,2.211,1.309,2.942l5.633-5.633
			C75.211,55.49,74.169,54.98,73,54.98z"/>
		<g>
			<path style="fill:#FA5655;" d="M36.152,38.795c-0.471,0.917-1.324,1.268-2.034,1.268c-1.109,0-2.226-0.646-2.226-1.93v-1.946
				c0-1.276,1.116-1.93,2.249-1.93c0.694,0,1.532,0.295,1.986,1.3l-1.164,0.471c-0.383-0.702-1.643-0.542-1.643,0.16v1.946
				c0,0.678,1.276,0.869,1.587,0.088L36.152,38.795z"/>
			<path style="fill:#FA5655;" d="M38.118,36.554h2.289v1.236h-2.289v0.846h2.489v1.348h-3.933v-5.647h3.933v1.34h-2.489V36.554z"/>
			<path style="fill:#FA5655;" d="M43.067,38.189h-0.255v1.795h-1.444v-5.647h2.257c1.165,0,2.066,0.534,2.098,1.858
				c0,1.045-0.422,1.635-1.109,1.851l1.539,1.938h-1.779L43.067,38.189z M43.649,36.961c0.901,0,0.901-1.292,0-1.292h-0.837v1.292
				H43.649z"/>
			<path style="fill:#FA5655;" d="M49.029,35.684v4.299h-1.444v-4.299h-1.499v-1.356h4.443v1.356H49.029z"/>
			<path style="fill:#FA5655;" d="M52.517,39.984H51.09v-5.647h1.428V39.984z"/>
			<path style="fill:#FA5655;" d="M54.857,36.705h2.178v1.332h-2.178v1.946h-1.444v-5.647h3.933v1.356h-2.489V36.705z"/>
			<path style="fill:#FA5655;" d="M59.438,39.984H58.01v-5.647h1.428V39.984z"/>
			<path style="fill:#FA5655;" d="M64.457,38.795c-0.471,0.917-1.324,1.268-2.034,1.268c-1.109,0-2.226-0.646-2.226-1.93v-1.946
				c0-1.276,1.116-1.93,2.249-1.93c0.694,0,1.532,0.295,1.986,1.3l-1.164,0.471c-0.383-0.702-1.643-0.542-1.643,0.16v1.946
				c0,0.678,1.276,0.869,1.587,0.088L64.457,38.795z"/>
			<path style="fill:#FA5655;" d="M69.733,39.984h-1.532l-0.367-1.133h-1.507l-0.351,1.133h-1.532l1.97-5.647h1.3L69.733,39.984z
				 M67.491,37.583l-0.391-1.651h-0.04l-0.415,1.651H67.491z"/>
			<path style="fill:#FA5655;" d="M72.113,35.684v4.299h-1.444v-4.299H69.17v-1.356h4.443v1.356H72.113z"/>
			<path style="fill:#FA5655;" d="M75.619,36.554h2.289v1.236h-2.289v0.846h2.489v1.348h-3.933v-5.647h3.933v1.34h-2.489V36.554z"/>
		</g>
	</g>
</g>
</svg>
