<?xml version="1.0" encoding="iso-8859-1"?>
<!-- Generator: Adobe Illustrator 17.1.0, SVG Export Plug-In . SVG Version: 6.00 Build 0)  -->
<!DOCTYPE svg PUBLIC "-//W3C//DTD SVG 1.0//EN" "http://www.w3.org/TR/2001/REC-SVG-20010904/DTD/svg10.dtd">
<svg version="1.0" xmlns="http://www.w3.org/2000/svg" xmlns:xlink="http://www.w3.org/1999/xlink" x="0px" y="0px" width="110px"
	 height="110px" viewBox="0 0 110 110" style="enable-background:new 0 0 110 110;" xml:space="preserve">
<g id="Artboard">
</g>
<g id="Multicolor">
	<circle style="fill:#FABC3D;" cx="55" cy="55" r="55"/>
	<g>
		<g>
			<path style="fill:#FFFFFF;" d="M62,76l9.309-3.721c0.563-0.225,0.862-0.843,0.689-1.424c-0.174-0.581-0.762-0.935-1.357-0.814
				l-15.642,3.17l-15.642-3.17c-0.595-0.12-1.183,0.233-1.357,0.814s0.125,1.199,0.689,1.424L48,76l-11.474,9.708
				C35.686,86.419,35.899,87,36.999,87c1.1,0,2.781-0.447,3.736-0.992l10.527-6.015C52.218,79.447,53.899,79,54.999,79
				c1.1,0,2.781,0.447,3.736,0.992l10.527,6.015C70.218,86.553,71.899,87,72.999,87c1.1,0,1.313-0.581,0.473-1.292L62,76z"/>
		</g>
		<path style="fill:#DF2C2C;" d="M79.657,47.054c-2.179-0.362-4.24,1.109-4.604,3.288C75.04,50.429,73.34,59,69,59h-2
			c-1.982-7.482,4.473-15.357,11.658-23.317C80.715,31.566,70.901,23,55,23c-16.452,0-25.629,8.74-23.658,12.683
			C39.201,44.921,44.665,52.905,43,59h-2c-4.327,0-6.044-8.598-6.059-8.685c-0.377-2.171-2.442-3.629-4.615-3.258
			c-2.177,0.372-3.641,2.439-3.269,4.616C28.029,57.366,32.06,67,41,67h28c8.99,0,12.996-9.644,13.945-15.342
			C83.308,49.479,81.836,47.417,79.657,47.054z"/>
		<g>
			<path style="fill:#E2E4E5;" d="M56.999,67h-4v9c0,0,0.563,1,2.001,1c1.312,0,1.999-1,1.999-1V67z"/>
		</g>
		<g>
			<path style="fill:#FA5655;" d="M55,59V23h0c-16.452,0-25.629,8.74-23.658,12.683C39.201,44.921,44.665,52.905,43,59H55z"/>
		</g>
	</g>
</g>
</svg>
