<?xml version="1.0" encoding="iso-8859-1"?>
<!-- Generator: Adobe Illustrator 17.1.0, SVG Export Plug-In . SVG Version: 6.00 Build 0)  -->
<!DOCTYPE svg PUBLIC "-//W3C//DTD SVG 1.0//EN" "http://www.w3.org/TR/2001/REC-SVG-20010904/DTD/svg10.dtd">
<svg version="1.0" xmlns="http://www.w3.org/2000/svg" xmlns:xlink="http://www.w3.org/1999/xlink" x="0px" y="0px" width="110px"
	 height="110px" viewBox="0 0 110 110" style="enable-background:new 0 0 110 110;" xml:space="preserve">
<g id="Artboard">
</g>
<g id="Multicolor">
	<circle style="fill:#E04F5F;" cx="55" cy="55" r="55"/>
	<g>
		<g>
			<path style="fill:#3E3E3F;" d="M46.96,68.55l12.61,2.521c1.86,0.38,3.75-0.63,4.48-2.38l6.05-14.55
				c-0.855,0.254,2.783-0.773-9.725,2.754c-0.719,1.818-1.479,3.887-2.322,6.336c-0.517-0.468-1.152-0.818-1.885-0.965l-8.673-1.738
				c-0.279,0.079-0.539,0.152-0.825,0.233c-0.53,0.15-0.98,0.521-1.23,1.01s-0.29,1.07-0.1,1.59L46.96,68.55z"/>
			<path style="fill:#3E3E3F;" d="M68.8,50.36C74.81,48.67,79,43.13,79,36.89c0-3.062,0-9.89,0-9.89c0-2.209-1.791-4-4-4
				s-4,1.791-4,4v11.735c-0.598,0.848-1.156,1.63-1.68,2.365c-2.927,4.107-4.886,6.868-6.896,11.059L68.8,50.36z"/>
			<path style="fill:#3E3E3F;" d="M29.39,65.04l13.09,2.62l-0.94-3.02c-0.53-1.48-0.42-3.23,0.34-4.7
				c0.085-0.166,0.181-0.326,0.28-0.482L31.246,57.27c-2.166-0.435-4.274,0.969-4.708,3.135l-0.394,1.961
				c-0.217,1.083,0.485,2.137,1.568,2.354l1.677,0.336C29.39,65.051,29.389,65.046,29.39,65.04z"/>
		</g>
		<g>
			<g>
				<path style="fill:#3E3E3F;" d="M63,29c0-1.105,0.895-2,2-2h6v14c-4.418,0-8-3.582-8-8V29z"/>
			</g>
		</g>
		<g>
			<path style="fill:#5B5C5F;" d="M79,37.084C79,34.125,79,27,79,27c0-2.209-1.791-4-4-4s-4,1.791-4,4v11.735
				c-0.598,0.848-1.156,1.63-1.68,2.365c-3.518,4.938-5.638,7.917-8.13,13.794L79,37.084z"/>
		</g>
		<g>
			<path style="fill:#FFFFFF;" d="M60.34,75.15c3.18,0,6.14-1.9,7.4-4.92l7.83-18.79C80.13,48.13,83,42.75,83,36.89V31
				c0-2.209-1.791-4-4-4v9.89c0,6.24-4.19,11.78-10.2,13.47l-23.21,6.55c-1.6,0.45-2.95,1.55-3.71,3.03
				c-0.76,1.47-0.87,3.22-0.34,4.7l0.94,3.02l-13.09-2.62c-0.431,2.166,0.974,4.271,3.139,4.705L43.84,72.01l0,0l3.37,10.78
				C48,85.31,50.3,87,52.94,87H81c1.105,0,2-0.895,2-2s-0.895-2-2-2H52.94c-0.88,0-1.65-0.56-1.91-1.4l-2.71-8.69L58.78,75
				C59.31,75.1,59.83,75.15,60.34,75.15z M45.34,63.36c-0.19-0.52-0.15-1.1,0.1-1.59s0.7-0.86,1.23-1.01
				c28.48-8.033,22.349-6.299,23.43-6.62l-6.05,14.55c-0.73,1.75-2.62,2.76-4.48,2.38L46.96,68.55L45.34,63.36z"/>
		</g>
	</g>
</g>
</svg>
