<?xml version="1.0" encoding="iso-8859-1"?>
<!-- Generator: Adobe Illustrator 17.1.0, SVG Export Plug-In . SVG Version: 6.00 Build 0)  -->
<!DOCTYPE svg PUBLIC "-//W3C//DTD SVG 1.0//EN" "http://www.w3.org/TR/2001/REC-SVG-20010904/DTD/svg10.dtd">
<svg version="1.0" xmlns="http://www.w3.org/2000/svg" xmlns:xlink="http://www.w3.org/1999/xlink" x="0px" y="0px" width="110px"
	 height="110px" viewBox="0 0 110 110" style="enable-background:new 0 0 110 110;" xml:space="preserve">
<g id="Artboard">
</g>
<g id="Multicolor">
	<circle style="fill:#25B7D3;" cx="55" cy="55" r="55"/>
	<g>
		<g>
			<path style="fill:#F3B607;" d="M46.163,58.113C46.715,56.823,47,55.514,47,54c0,0,2.004,3.211,8,3
				c4.931-0.173,7.509-2.491,8.01-3.011c0.124-0.147,0.123-0.127,0,0C63.006,53.994,63.005,53.994,63,54
				c0,1.514,0.285,2.823,0.837,4.112c1.174,0.33,2.24,0.714,3.189,1.142C67.297,52.71,71,48.686,71,41c0-9.941-7.164-18-16-18
				s-16,8.059-16,18c0,7.644,3.663,12.578,3.97,18.256C43.919,58.827,44.987,58.443,46.163,58.113z"/>
		</g>
		<g>
			<path style="fill:#FACB1B;" d="M55,23c-8.836,0-16,8.059-16,18c0,7.644,3.663,12.578,3.97,18.256
				c0.949-0.429,2.017-0.813,3.193-1.144C46.715,56.823,47,55.514,47,54c0,0,2.004,3.211,8,3V23z"/>
		</g>
		<g>
			<ellipse style="fill:#DF2C2C;" cx="55" cy="40.5" rx="12" ry="13.5"/>
		</g>
		<path style="fill:#FACB1B;" d="M61.727,71.348l3.031,10.865c0.168,0.544,0.719,0.874,1.278,0.767
			c0.559-0.107,0.948-0.618,0.903-1.185l-1.62-11.32C64.306,70.748,63.13,71.068,61.727,71.348z"/>
		<path style="fill:#FACB1B;" d="M44.645,70.527l-1.584,11.268c-0.045,0.568,0.344,1.078,0.903,1.185s1.109-0.223,1.278-0.767
			l2.966-10.828C46.793,71.115,45.634,70.801,44.645,70.527z"/>
		<g>
			<path style="fill:#FBE158;" d="M76.664,83.891C73.358,78.932,76,76.42,76,72c0-2.652-1.481-4.349-3.194-5.492
				C72.451,66.81,72.007,67,71.523,67H38.477c-0.483,0-0.927-0.19-1.282-0.492C35.481,67.652,34,69.348,34,72
				c0,4.459,2.643,6.874-0.664,11.891c-0.613,0.919-0.364,2.161,0.555,2.773c0.917,0.612,2.162,0.363,2.773-0.555
				C36.904,85.751,39,82.505,39,79c0-2.891-1.623-6.377,0-8c3-3,5.249,1,16,1c10.175,0,13-4,16-1c1.631,1.631,0,5.081,0,8
				c0,3.504,2.097,6.751,2.336,7.109c0.612,0.918,1.856,1.167,2.773,0.555C77.029,86.052,77.277,84.81,76.664,83.891z"/>
		</g>
		<g>
			<path style="fill:#FA5655;" d="M55,57c-10.492,0-15.651,3.809-18.064,6.725c-0.494,0.597-0.598,1.425-0.269,2.126
				C36.997,66.552,37.702,67,38.477,67h33.046c0.775,0,1.479-0.447,1.809-1.148c0.33-0.701,0.226-1.529-0.268-2.126
				C70.652,60.81,65.493,57,55,57z"/>
		</g>
		<g>
			<path style="fill:#FA5655;" d="M55,27c-6.627,0-12,6.044-12,13.5S48.373,54,55,54V27z"/>
		</g>
	</g>
</g>
</svg>
