<?xml version="1.0" encoding="iso-8859-1"?>
<!-- Generator: Adobe Illustrator 17.1.0, SVG Export Plug-In . SVG Version: 6.00 Build 0)  -->
<!DOCTYPE svg PUBLIC "-//W3C//DTD SVG 1.0//EN" "http://www.w3.org/TR/2001/REC-SVG-20010904/DTD/svg10.dtd">
<svg version="1.0" xmlns="http://www.w3.org/2000/svg" xmlns:xlink="http://www.w3.org/1999/xlink" x="0px" y="0px" width="110px"
	 height="110px" viewBox="0 0 110 110" style="enable-background:new 0 0 110 110;" xml:space="preserve">
<g id="Artboard">
</g>
<g id="Multicolor">
	<circle style="fill:#25B7D3;" cx="55" cy="55" r="55"/>
	<g>
		<g>
			<rect x="27" y="31" style="fill:#9C6144;" width="56" height="44"/>
		</g>
		<g>
			<rect x="31" y="35" style="fill:#099686;" width="48" height="40"/>
		</g>
		<g>
			<polygon style="fill:#AF7653;" points="27,31 31,35 79,35 83,31 			"/>
		</g>
		<g>
			<polygon style="fill:#12B2A0;" points="79,35 31,35 31,75 39.262,75 79,35.262 			"/>
		</g>
		<g>
			<rect x="23" y="75" style="fill:#84462D;" width="64" height="6"/>
		</g>
		<g>
			<path style="fill:#FFFFFF;" d="M47,71c0-1.105-0.895-2-2-2h-8c-1.105,0-2,0.895-2,2v4h12V71z"/>
		</g>
		<g>
			<path style="fill:#FACB1B;" d="M75,74c0,0.55-0.45,1-1,1h-6c-0.55,0-1-0.45-1-1l0,0c0-0.55,0.45-1,1-1h6C74.55,73,75,73.45,75,74
				L75,74z"/>
		</g>
		<g>
			<path style="fill:#FFFFFF;" d="M37.742,53.367l4.025-9.089c0.28-0.627,0.792-1.006,1.484-1.006H43.4
				c0.693,0,1.188,0.379,1.468,1.006l4.024,9.089c0.083,0.181,0.132,0.346,0.132,0.511c0,0.676-0.527,1.221-1.204,1.221
				c-0.594,0-0.989-0.347-1.221-0.875l-0.775-1.814h-5.081l-0.808,1.897c-0.214,0.495-0.643,0.792-1.171,0.792
				c-0.659,0-1.171-0.528-1.171-1.188C37.594,53.73,37.66,53.548,37.742,53.367z M44.885,50.167l-1.601-3.81l-1.6,3.81H44.885z"/>
		</g>
		<g>
			<path style="fill:#FFFFFF;" d="M51.019,44.724c0-0.709,0.561-1.27,1.271-1.27h4.09c1.32,0,2.359,0.363,3.019,1.023
				c0.528,0.528,0.792,1.171,0.792,1.963v0.033c0,1.303-0.692,2.029-1.518,2.491c1.336,0.511,2.161,1.287,2.161,2.837v0.033
				c0,2.111-1.716,3.167-4.321,3.167h-4.223c-0.71,0-1.271-0.561-1.271-1.27V44.724z M55.835,48.122
				c1.122,0,1.831-0.363,1.831-1.221v-0.033c0-0.759-0.594-1.188-1.666-1.188h-2.507v2.441H55.835z M56.512,52.773
				c1.121,0,1.798-0.396,1.798-1.254v-0.033c0-0.775-0.578-1.254-1.881-1.254h-2.936v2.541H56.512z"/>
		</g>
		<g>
			<path style="fill:#FFFFFF;" d="M62.415,49.26v-0.033c0-3.283,2.474-5.971,6.021-5.971c1.732,0,2.903,0.462,3.86,1.171
				c0.264,0.198,0.495,0.561,0.495,1.006c0,0.693-0.561,1.237-1.254,1.237c-0.347,0-0.577-0.132-0.759-0.247
				c-0.709-0.528-1.452-0.825-2.358-0.825c-1.947,0-3.349,1.616-3.349,3.596v0.033c0,1.979,1.369,3.628,3.349,3.628
				c1.072,0,1.781-0.33,2.507-0.907c0.198-0.165,0.462-0.28,0.759-0.28c0.644,0,1.188,0.528,1.188,1.171
				c0,0.396-0.198,0.709-0.429,0.907c-1.039,0.907-2.26,1.451-4.107,1.451C64.938,55.198,62.415,52.575,62.415,49.26z"/>
		</g>
	</g>
</g>
</svg>
