<?xml version="1.0" encoding="iso-8859-1"?>
<!-- Generator: Adobe Illustrator 17.1.0, SVG Export Plug-In . SVG Version: 6.00 Build 0)  -->
<!DOCTYPE svg PUBLIC "-//W3C//DTD SVG 1.0//EN" "http://www.w3.org/TR/2001/REC-SVG-20010904/DTD/svg10.dtd">
<svg version="1.0" xmlns="http://www.w3.org/2000/svg" xmlns:xlink="http://www.w3.org/1999/xlink" x="0px" y="0px" width="110px"
	 height="110px" viewBox="0 0 110 110" style="enable-background:new 0 0 110 110;" xml:space="preserve">
<g id="Artboard" style="display:none;">
	
		<rect x="-200.5" y="-34.5" style="display:inline;fill:#808080;stroke:#000000;stroke-miterlimit:10;" width="1392" height="1369"/>
</g>
<g id="R-Multicolor">
	<circle style="fill:#32BEA6;" cx="55" cy="55" r="55"/>
	<g>
		<path style="fill:#C9F2F8;" d="M57.317,81.057C57.124,80.749,57,80.391,57,80V69c0-0.499,0.189-0.949,0.491-1.299
			c-1.636,0.396-3.345,0.396-4.981,0C52.811,68.051,53,68.501,53,69v11c0,0.391-0.124,0.749-0.317,1.057
			C47.165,81.327,43,82.542,43,84c0,1.657,5.373,3,12,3s12-1.343,12-3C67,82.542,62.835,81.327,57.317,81.057z"/>
		<g>
			<path style="fill:#C9F2F8;" d="M64,25H46l-1.547,31.611c-0.282,3.661,1.356,7.206,4.325,9.366c3.709,2.698,8.734,2.698,12.443,0
				c2.97-2.16,4.607-5.705,4.325-9.366L64,25z"/>
		</g>
		<g>
			<path style="fill:#FACB1B;" d="M44.453,56.611c-0.282,3.661,1.355,7.206,4.325,9.366c3.709,2.698,8.734,2.698,12.443,0
				c2.969-2.16,4.607-5.705,4.325-9.366L64.832,42H45.168L44.453,56.611z"/>
		</g>
		<g>
			<path style="fill:#FFFFFF;" d="M55.003,25H46l-1.547,31.611c-0.282,3.661,1.355,7.206,4.325,9.366
				C50.634,67.326,52.818,68,55.003,68V25z"/>
		</g>
		<path style="fill:#FFFFFF;" d="M55.003,68c-0.838,0-1.676-0.101-2.496-0.3C52.81,68.051,53,68.501,53,69v11
			c0,0.391-0.123,0.749-0.317,1.057C47.165,81.327,43,82.542,43,84c0,1.657,5.373,3,12,3c0,0,0.001,0,0.002,0L55.003,68z"/>
		<g>
			<path style="fill:#FBE158;" d="M55.003,42h-9.834l-0.715,14.611c-0.282,3.661,1.355,7.206,4.325,9.366
				C50.634,67.326,52.818,68,55.003,68V42z"/>
		</g>
		<g>
			<circle style="fill:#FBE158;" cx="60.003" cy="53" r="1.75"/>
		</g>
		<g>
			<circle style="fill:#FBE158;" cx="60.625" cy="47.625" r="1.375"/>
		</g>
		<g>
			<circle style="fill:#FACB1B;" cx="49.125" cy="53.875" r="2.125"/>
		</g>
		<g>
			<circle style="fill:#FBE158;" cx="59.5" cy="59.5" r="1.375"/>
		</g>
		<g>
			<circle style="fill:#FACB1B;" cx="51.003" cy="59" r="1.75"/>
		</g>
		<g>
			<circle style="fill:#FACB1B;" cx="50.625" cy="49.375" r="1.375"/>
		</g>
	</g>
</g>
<g id="Multicolor" style="display:none;">
	<g style="display:inline;">
		<path style="fill:#C9F2F8;" d="M57.317,81.057C57.124,80.749,57,80.391,57,80V69c0-0.499,0.189-0.949,0.491-1.299
			c-1.636,0.396-3.345,0.396-4.981,0C52.811,68.051,53,68.501,53,69v11c0,0.391-0.124,0.749-0.317,1.057
			C47.165,81.327,43,82.542,43,84c0,1.657,5.373,3,12,3s12-1.343,12-3C67,82.542,62.835,81.327,57.317,81.057z"/>
		<g>
			<path style="fill:#C9F2F8;" d="M64,25H46l-1.547,31.611c-0.282,3.661,1.356,7.206,4.325,9.366c3.709,2.698,8.734,2.698,12.443,0
				c2.97-2.16,4.607-5.705,4.325-9.366L64,25z"/>
		</g>
		<g>
			<path style="fill:#FACB1B;" d="M44.453,56.611c-0.282,3.661,1.355,7.206,4.325,9.366c3.709,2.698,8.734,2.698,12.443,0
				c2.969-2.16,4.607-5.705,4.325-9.366L64.832,42H45.168L44.453,56.611z"/>
		</g>
		<g>
			<path style="fill:#FFFFFF;" d="M55.003,25H46l-1.547,31.611c-0.282,3.661,1.355,7.206,4.325,9.366
				C50.634,67.326,52.818,68,55.003,68V25z"/>
		</g>
		<path style="fill:#FFFFFF;" d="M55.003,68c-0.838,0-1.676-0.101-2.496-0.3C52.81,68.051,53,68.501,53,69v11
			c0,0.391-0.123,0.749-0.317,1.057C47.165,81.327,43,82.542,43,84c0,1.657,5.373,3,12,3c0,0,0.001,0,0.002,0L55.003,68z"/>
		<g>
			<path style="fill:#FBE158;" d="M55.003,42h-9.834l-0.715,14.611c-0.282,3.661,1.355,7.206,4.325,9.366
				C50.634,67.326,52.818,68,55.003,68V42z"/>
		</g>
		<g>
			<circle style="fill:#FBE158;" cx="60.003" cy="53" r="1.75"/>
		</g>
		<g>
			<circle style="fill:#FBE158;" cx="60.625" cy="47.625" r="1.375"/>
		</g>
		<g>
			<circle style="fill:#FACB1B;" cx="49.125" cy="53.875" r="2.125"/>
		</g>
		<g>
			<circle style="fill:#FBE158;" cx="59.5" cy="59.5" r="1.375"/>
		</g>
		<g>
			<circle style="fill:#FACB1B;" cx="51.003" cy="59" r="1.75"/>
		</g>
		<g>
			<circle style="fill:#FACB1B;" cx="50.625" cy="49.375" r="1.375"/>
		</g>
	</g>
</g>
<g id="Blue" style="display:none;">
	<g style="display:inline;">
		<path style="fill:#E1F5FA;" d="M57.317,81.057C57.123,80.748,57,80.391,57,80V69c0-0.498,0.189-0.949,0.49-1.299
			c-1.636,0.396-3.345,0.396-4.98,0C52.811,68.051,53,68.502,53,69v11c0,0.391-0.123,0.748-0.317,1.057
			C47.164,81.327,43,82.542,43,84c0,1.657,5.373,3,12,3s12-1.343,12-3C67,82.542,62.835,81.327,57.317,81.057z"/>
		<g>
			<path style="fill:#E1F5FA;" d="M64,25H46l-1.547,31.611c-0.281,3.661,1.355,7.207,4.325,9.366c3.709,2.697,8.734,2.697,12.443,0
				c2.97-2.16,4.606-5.705,4.325-9.366L64,25z"/>
		</g>
		<g>
			<path style="fill:#0081A1;" d="M44.453,56.611c-0.281,3.661,1.355,7.207,4.325,9.366c3.709,2.697,8.733,2.697,12.443,0
				c2.97-2.16,4.606-5.705,4.325-9.366L64.832,42H45.168L44.453,56.611z"/>
		</g>
		<g>
			<path style="fill:#FFFFFF;" d="M55.002,25H46l-1.547,31.611c-0.281,3.661,1.355,7.207,4.325,9.366
				c1.855,1.349,4.04,2.023,6.224,2.023V25z"/>
		</g>
		<path style="fill:#FFFFFF;" d="M55.003,68c-0.839,0-1.676-0.101-2.495-0.3C52.81,68.051,53,68.501,53,69v11
			c0,0.391-0.123,0.748-0.317,1.057C47.164,81.327,43,82.542,43,84c0,1.657,5.373,3,12,3h0.002L55.003,68z"/>
		<g>
			<path style="fill:#009FC7;" d="M55.002,42h-9.834l-0.715,14.611c-0.281,3.661,1.355,7.207,4.325,9.366
				c1.855,1.349,4.04,2.023,6.224,2.023V42z"/>
		</g>
		<g>
			<circle style="fill:#00B7E5;" cx="60.002" cy="53" r="1.75"/>
		</g>
		<g>
			<circle style="fill:#00B7E5;" cx="60.517" cy="47.16" r="1.483"/>
		</g>
		<g>
			<circle style="fill:#00B7E5;" cx="49.125" cy="53.875" r="2.125"/>
		</g>
		<g>
			<circle style="fill:#00B7E5;" cx="59.304" cy="59.966" r="1.483"/>
		</g>
		<g>
			<circle style="fill:#00B7E5;" cx="50.14" cy="59.427" r="1.887"/>
		</g>
		<g>
			<circle style="fill:#00B7E5;" cx="49.733" cy="49.047" r="1.483"/>
		</g>
	</g>
</g>
<g id="R-Blue" style="display:none;">
	<circle style="display:inline;fill:#81D2EB;" cx="55" cy="55" r="55"/>
	<g style="display:inline;">
		<path style="fill:#E1F5FA;" d="M57.317,81.057C57.123,80.748,57,80.391,57,80V69c0-0.499,0.189-0.949,0.49-1.299
			c-1.636,0.396-3.345,0.396-4.98,0C52.811,68.051,53,68.501,53,69v11c0,0.391-0.123,0.748-0.317,1.057
			C47.164,81.327,43,82.541,43,84c0,1.657,5.373,3,12,3s12-1.343,12-3C67,82.541,62.835,81.327,57.317,81.057z"/>
		<g>
			<path style="fill:#E1F5FA;" d="M64,25H46l-1.547,31.611c-0.281,3.661,1.355,7.207,4.325,9.366c3.709,2.697,8.734,2.697,12.443,0
				c2.97-2.16,4.606-5.705,4.325-9.366L64,25z"/>
		</g>
		<g>
			<path style="fill:#0081A1;" d="M44.453,56.611c-0.281,3.661,1.355,7.207,4.325,9.366c3.709,2.697,8.733,2.697,12.443,0
				c2.97-2.16,4.606-5.705,4.325-9.366L64.832,42H45.168L44.453,56.611z"/>
		</g>
		<g>
			<path style="fill:#FFFFFF;" d="M55.002,25H46l-1.547,31.611c-0.281,3.661,1.355,7.207,4.325,9.366
				C50.634,67.326,52.818,68,55.002,68V25z"/>
		</g>
		<path style="fill:#FFFFFF;" d="M55.003,68c-0.839,0-1.676-0.101-2.495-0.3C52.81,68.051,53,68.5,53,69v11
			c0,0.391-0.123,0.748-0.317,1.057C47.164,81.327,43,82.541,43,84c0,1.657,5.373,3,12,3h0.002L55.003,68z"/>
		<g>
			<path style="fill:#009FC7;" d="M55.002,42h-9.834l-0.715,14.611c-0.281,3.661,1.355,7.207,4.325,9.366
				C50.634,67.326,52.818,68,55.002,68V42z"/>
		</g>
		<g>
			<circle style="fill:#00B7E5;" cx="60.002" cy="53" r="1.75"/>
		</g>
		<g>
			<circle style="fill:#00B7E5;" cx="60.517" cy="47.16" r="1.483"/>
		</g>
		<g>
			<circle style="fill:#00B7E5;" cx="49.125" cy="53.875" r="2.125"/>
		</g>
		<g>
			<circle style="fill:#00B7E5;" cx="59.304" cy="59.966" r="1.483"/>
		</g>
		<g>
			<circle style="fill:#00B7E5;" cx="50.14" cy="59.427" r="1.887"/>
		</g>
		<g>
			<circle style="fill:#00B7E5;" cx="49.733" cy="49.047" r="1.483"/>
		</g>
	</g>
</g>
<g id="Green" style="display:none;">
	<g style="display:inline;">
		<path style="fill:#D7FCF9;" d="M57.317,81.057C57.123,80.748,57,80.391,57,80V69c0-0.498,0.189-0.949,0.49-1.299
			c-1.636,0.396-3.345,0.396-4.98,0C52.81,68.051,53,68.502,53,69v11c0,0.391-0.123,0.748-0.317,1.057
			C47.164,81.327,43,82.541,43,84c0,1.657,5.373,3,12,3s12-1.343,12-3C67,82.541,62.835,81.327,57.317,81.057z"/>
		<g>
			<path style="fill:#D7FCF9;" d="M64,25H46l-1.547,31.611c-0.281,3.661,1.355,7.207,4.325,9.366c3.709,2.697,8.734,2.697,12.443,0
				c2.97-2.16,4.606-5.705,4.325-9.366L64,25z"/>
		</g>
		<g>
			<path style="fill:#009687;" d="M44.453,56.611c-0.281,3.661,1.355,7.207,4.325,9.366c3.709,2.697,8.733,2.697,12.443,0
				c2.97-2.16,4.606-5.705,4.325-9.366L64.832,42H45.168L44.453,56.611z"/>
		</g>
		<g>
			<path style="fill:#FFFFFF;" d="M55.002,25H46l-1.547,31.611c-0.281,3.661,1.355,7.207,4.325,9.366
				c1.855,1.349,4.04,2.023,6.224,2.023V25z"/>
		</g>
		<path style="fill:#FFFFFF;" d="M55.003,68c-0.839,0-1.676-0.101-2.495-0.3C52.81,68.051,53,68.501,53,69v11
			c0,0.391-0.123,0.748-0.317,1.057C47.164,81.327,43,82.541,43,84c0,1.657,5.373,3,12,3h0.002L55.003,68z"/>
		<g>
			<path style="fill:#00B8A5;" d="M55.002,42h-9.834l-0.715,14.611c-0.281,3.661,1.355,7.207,4.325,9.366
				c1.855,1.349,4.04,2.023,6.224,2.023V42z"/>
		</g>
		<g>
			<circle style="fill:#00D6C1;" cx="60.002" cy="53" r="1.75"/>
		</g>
		<g>
			<circle style="fill:#00D6C1;" cx="60.517" cy="47.16" r="1.483"/>
		</g>
		<g>
			<circle style="fill:#00D6C1;" cx="49.125" cy="53.875" r="2.125"/>
		</g>
		<g>
			<circle style="fill:#00D6C1;" cx="59.304" cy="59.966" r="1.483"/>
		</g>
		<g>
			<circle style="fill:#00D6C1;" cx="50.14" cy="59.427" r="1.887"/>
		</g>
		<g>
			<circle style="fill:#00D6C1;" cx="49.733" cy="49.047" r="1.483"/>
		</g>
	</g>
</g>
<g id="R-Green" style="display:none;">
	<circle style="display:inline;fill:#77E0C4;" cx="55" cy="55" r="55"/>
	<g style="display:inline;">
		<path style="fill:#D7FCF9;" d="M57.317,81.057C57.123,80.748,57,80.391,57,80V69c0-0.498,0.189-0.949,0.49-1.299
			c-1.636,0.396-3.345,0.396-4.98,0C52.811,68.051,53,68.502,53,69v11c0,0.391-0.123,0.748-0.317,1.057
			C47.164,81.327,43,82.542,43,84c0,1.657,5.373,3,12,3s12-1.343,12-3C67,82.542,62.835,81.327,57.317,81.057z"/>
		<g>
			<path style="fill:#D7FCF9;" d="M64,25H46l-1.547,31.611c-0.281,3.661,1.356,7.207,4.325,9.366c3.709,2.697,8.734,2.697,12.443,0
				c2.97-2.16,4.606-5.705,4.325-9.366L64,25z"/>
		</g>
		<g>
			<path style="fill:#009687;" d="M44.453,56.611c-0.281,3.661,1.356,7.207,4.325,9.366c3.709,2.697,8.733,2.697,12.443,0
				c2.97-2.16,4.606-5.705,4.325-9.366L64.832,42H45.168L44.453,56.611z"/>
		</g>
		<g>
			<path style="fill:#FFFFFF;" d="M55.002,25H46l-1.547,31.611c-0.281,3.661,1.356,7.207,4.325,9.366
				c1.855,1.349,4.04,2.023,6.224,2.023V25z"/>
		</g>
		<path style="fill:#FFFFFF;" d="M55.003,68c-0.839,0-1.676-0.101-2.495-0.3C52.81,68.051,53,68.501,53,69v11
			c0,0.391-0.123,0.748-0.317,1.057C47.164,81.327,43,82.542,43,84c0,1.657,5.373,3,12,3h0.002L55.003,68z"/>
		<g>
			<path style="fill:#00B8A5;" d="M55.002,42h-9.834l-0.715,14.611c-0.281,3.661,1.356,7.207,4.325,9.366
				c1.855,1.349,4.04,2.023,6.224,2.023V42z"/>
		</g>
		<g>
			<circle style="fill:#00D6C1;" cx="60.002" cy="53" r="1.75"/>
		</g>
		<g>
			<circle style="fill:#00D6C1;" cx="60.517" cy="47.16" r="1.483"/>
		</g>
		<g>
			<circle style="fill:#00D6C1;" cx="49.125" cy="53.875" r="2.125"/>
		</g>
		<g>
			<circle style="fill:#00D6C1;" cx="59.304" cy="59.966" r="1.483"/>
		</g>
		<g>
			<circle style="fill:#00D6C1;" cx="50.14" cy="59.427" r="1.887"/>
		</g>
		<g>
			<circle style="fill:#00D6C1;" cx="49.733" cy="49.047" r="1.483"/>
		</g>
	</g>
</g>
<g id="Red" style="display:none;">
	<g style="display:inline;">
		<path style="fill:#FFEFED;" d="M57.317,81.057C57.123,80.749,57,80.391,57,80V69c0-0.498,0.189-0.949,0.49-1.299
			c-1.636,0.396-3.345,0.396-4.98,0C52.811,68.051,53,68.502,53,69v11c0,0.391-0.123,0.749-0.317,1.057
			C47.164,81.327,43,82.541,43,84c0,1.657,5.373,3,12,3s12-1.343,12-3C67,82.541,62.835,81.327,57.317,81.057z"/>
		<g>
			<path style="fill:#FFEFED;" d="M64,25H46l-1.547,31.611c-0.281,3.661,1.356,7.207,4.325,9.366c3.709,2.697,8.734,2.697,12.443,0
				c2.97-2.16,4.606-5.705,4.325-9.366L64,25z"/>
		</g>
		<g>
			<path style="fill:#C23023;" d="M44.453,56.611c-0.281,3.661,1.356,7.207,4.325,9.366c3.709,2.697,8.733,2.697,12.443,0
				c2.97-2.16,4.606-5.705,4.325-9.366L64.832,42H45.168L44.453,56.611z"/>
		</g>
		<g>
			<path style="fill:#FFFFFF;" d="M55.002,25H46l-1.547,31.611c-0.281,3.661,1.356,7.207,4.325,9.366
				c1.855,1.349,4.04,2.023,6.224,2.023V25z"/>
		</g>
		<path style="fill:#FFFFFF;" d="M55.003,68c-0.839,0-1.676-0.101-2.495-0.3C52.81,68.051,53,68.501,53,69v11
			c0,0.391-0.123,0.749-0.317,1.057C47.164,81.327,43,82.541,43,84c0,1.657,5.373,3,12,3h0.002L55.003,68z"/>
		<g>
			<path style="fill:#E54B44;" d="M55.002,42h-9.834l-0.715,14.611c-0.281,3.661,1.356,7.207,4.325,9.366
				c1.855,1.349,4.04,2.023,6.224,2.023V42z"/>
		</g>
		<g>
			<circle style="fill:#FF6C5E;" cx="60.002" cy="53" r="1.75"/>
		</g>
		<g>
			<circle style="fill:#FF6C5E;" cx="60.517" cy="47.16" r="1.483"/>
		</g>
		<g>
			<circle style="fill:#FF6C5E;" cx="49.125" cy="53.875" r="2.125"/>
		</g>
		<g>
			<circle style="fill:#FF6C5E;" cx="59.304" cy="59.966" r="1.483"/>
		</g>
		<g>
			<circle style="fill:#FF6C5E;" cx="50.14" cy="59.427" r="1.887"/>
		</g>
		<g>
			<circle style="fill:#FF6C5E;" cx="49.733" cy="49.047" r="1.483"/>
		</g>
	</g>
</g>
<g id="R-Red" style="display:none;">
	<circle style="display:inline;fill:#FABBAF;" cx="55" cy="55" r="55"/>
	<g style="display:inline;">
		<path style="fill:#FFEFED;" d="M57.317,81.057C57.123,80.749,57,80.391,57,80V69c0-0.498,0.189-0.949,0.49-1.299
			c-1.636,0.396-3.345,0.396-4.98,0C52.811,68.051,53,68.502,53,69v11c0,0.391-0.123,0.749-0.317,1.057
			C47.164,81.327,43,82.541,43,84c0,1.657,5.373,3,12,3s12-1.343,12-3C67,82.541,62.835,81.327,57.317,81.057z"/>
		<g>
			<path style="fill:#FFEFED;" d="M64,25H46l-1.547,31.611c-0.281,3.661,1.356,7.207,4.325,9.366c3.709,2.697,8.734,2.697,12.443,0
				c2.97-2.16,4.606-5.705,4.325-9.366L64,25z"/>
		</g>
		<g>
			<path style="fill:#C23023;" d="M44.453,56.611c-0.281,3.661,1.356,7.207,4.325,9.366c3.709,2.697,8.733,2.697,12.443,0
				c2.97-2.16,4.606-5.705,4.325-9.366L64.832,42H45.168L44.453,56.611z"/>
		</g>
		<g>
			<path style="fill:#FFFFFF;" d="M55.002,25H46l-1.547,31.611c-0.281,3.661,1.356,7.207,4.325,9.366
				c1.855,1.349,4.04,2.023,6.224,2.023V25z"/>
		</g>
		<path style="fill:#FFFFFF;" d="M55.003,68c-0.839,0-1.676-0.101-2.495-0.3C52.81,68.051,53,68.501,53,69v11
			c0,0.391-0.123,0.749-0.317,1.057C47.164,81.327,43,82.541,43,84c0,1.657,5.373,3,12,3h0.002L55.003,68z"/>
		<g>
			<path style="fill:#E54B44;" d="M55.002,42h-9.834l-0.715,14.611c-0.281,3.661,1.356,7.207,4.325,9.366
				c1.855,1.349,4.04,2.023,6.224,2.023V42z"/>
		</g>
		<g>
			<circle style="fill:#FF6C5E;" cx="60.002" cy="53" r="1.75"/>
		</g>
		<g>
			<circle style="fill:#FF6C5E;" cx="60.517" cy="47.16" r="1.483"/>
		</g>
		<g>
			<circle style="fill:#FF6C5E;" cx="49.125" cy="53.875" r="2.125"/>
		</g>
		<g>
			<circle style="fill:#FF6C5E;" cx="59.304" cy="59.966" r="1.483"/>
		</g>
		<g>
			<circle style="fill:#FF6C5E;" cx="50.14" cy="59.427" r="1.887"/>
		</g>
		<g>
			<circle style="fill:#FF6C5E;" cx="49.733" cy="49.047" r="1.483"/>
		</g>
	</g>
</g>
<g id="Yellow" style="display:none;">
	<g style="display:inline;">
		<path style="fill:#FFF5D9;" d="M57.317,81.057C57.123,80.748,57,80.391,57,80V69c0-0.498,0.189-0.949,0.49-1.299
			c-1.636,0.396-3.345,0.396-4.98,0C52.811,68.051,53,68.502,53,69v11c0,0.391-0.123,0.748-0.317,1.057
			C47.164,81.327,43,82.542,43,84c0,1.657,5.373,3,12,3s12-1.343,12-3C67,82.542,62.835,81.327,57.317,81.057z"/>
		<g>
			<path style="fill:#FFF5D9;" d="M64,25H46l-1.547,31.611c-0.281,3.661,1.356,7.207,4.325,9.366c3.709,2.697,8.734,2.697,12.443,0
				c2.97-2.16,4.606-5.705,4.325-9.366L64,25z"/>
		</g>
		<g>
			<path style="fill:#E07000;" d="M44.453,56.611c-0.281,3.661,1.356,7.207,4.325,9.366c3.709,2.697,8.733,2.697,12.443,0
				c2.97-2.16,4.606-5.705,4.325-9.366L64.832,42H45.168L44.453,56.611z"/>
		</g>
		<g>
			<path style="fill:#FFFFFF;" d="M55.002,25H46l-1.547,31.611c-0.281,3.661,1.356,7.207,4.325,9.366
				c1.855,1.349,4.04,2.023,6.224,2.023V25z"/>
		</g>
		<path style="fill:#FFFFFF;" d="M55.003,68c-0.839,0-1.676-0.101-2.495-0.3C52.81,68.051,53,68.501,53,69v11
			c0,0.391-0.123,0.748-0.317,1.057C47.164,81.327,43,82.542,43,84c0,1.657,5.373,3,12,3h0.002L55.003,68z"/>
		<g>
			<path style="fill:#FA9200;" d="M55.002,42h-9.834l-0.715,14.611c-0.281,3.661,1.356,7.207,4.325,9.366
				c1.855,1.349,4.04,2.023,6.224,2.023V42z"/>
		</g>
		<g>
			<circle style="fill:#FFAA00;" cx="60.002" cy="53" r="1.75"/>
		</g>
		<g>
			<circle style="fill:#FFAA00;" cx="60.517" cy="47.16" r="1.483"/>
		</g>
		<g>
			<circle style="fill:#FFAA00;" cx="49.125" cy="53.875" r="2.125"/>
		</g>
		<g>
			<circle style="fill:#FFAA00;" cx="59.304" cy="59.966" r="1.483"/>
		</g>
		<g>
			<circle style="fill:#FFAA00;" cx="50.14" cy="59.427" r="1.887"/>
		</g>
		<g>
			<circle style="fill:#FFAA00;" cx="49.733" cy="49.047" r="1.483"/>
		</g>
	</g>
</g>
<g id="R-Yellow" style="display:none;">
	<circle style="display:inline;fill:#FFD75E;" cx="55" cy="55" r="55"/>
	<g style="display:inline;">
		<path style="fill:#FFF5D9;" d="M57.317,81.057C57.123,80.748,57,80.391,57,80V69c0-0.498,0.189-0.949,0.49-1.299
			c-1.636,0.396-3.345,0.396-4.98,0C52.81,68.051,53,68.502,53,69v11c0,0.391-0.123,0.748-0.317,1.057
			C47.164,81.327,43,82.542,43,84c0,1.657,5.373,3,12,3s12-1.343,12-3C67,82.542,62.835,81.327,57.317,81.057z"/>
		<g>
			<path style="fill:#FFF5D9;" d="M64,25H46l-1.547,31.611c-0.281,3.661,1.355,7.207,4.325,9.366c3.709,2.697,8.734,2.697,12.443,0
				c2.97-2.16,4.606-5.705,4.325-9.366L64,25z"/>
		</g>
		<g>
			<path style="fill:#E07000;" d="M44.453,56.611c-0.281,3.661,1.355,7.207,4.325,9.366c3.709,2.697,8.733,2.697,12.443,0
				c2.97-2.16,4.606-5.705,4.325-9.366L64.832,42H45.168L44.453,56.611z"/>
		</g>
		<g>
			<path style="fill:#FFFFFF;" d="M55.002,25H46l-1.547,31.611c-0.281,3.661,1.355,7.207,4.325,9.366
				c1.855,1.349,4.04,2.023,6.224,2.023V25z"/>
		</g>
		<path style="fill:#FFFFFF;" d="M55.003,68c-0.839,0-1.676-0.101-2.495-0.3C52.81,68.051,53,68.501,53,69v11
			c0,0.391-0.123,0.748-0.317,1.057C47.164,81.327,43,82.542,43,84c0,1.657,5.373,3,12,3h0.002L55.003,68z"/>
		<g>
			<path style="fill:#FA9200;" d="M55.002,42h-9.834l-0.715,14.611c-0.281,3.661,1.355,7.207,4.325,9.366
				c1.855,1.349,4.04,2.023,6.224,2.023V42z"/>
		</g>
		<g>
			<circle style="fill:#FFAA00;" cx="60.002" cy="53" r="1.75"/>
		</g>
		<g>
			<circle style="fill:#FFAA00;" cx="60.517" cy="47.16" r="1.483"/>
		</g>
		<g>
			<circle style="fill:#FFAA00;" cx="49.125" cy="53.875" r="2.125"/>
		</g>
		<g>
			<circle style="fill:#FFAA00;" cx="59.304" cy="59.966" r="1.483"/>
		</g>
		<g>
			<circle style="fill:#FFAA00;" cx="50.14" cy="59.427" r="1.887"/>
		</g>
		<g>
			<circle style="fill:#FFAA00;" cx="49.733" cy="49.047" r="1.483"/>
		</g>
	</g>
</g>
</svg>
