<?xml version="1.0" encoding="iso-8859-1"?>
<!-- Generator: Adobe Illustrator 17.1.0, SVG Export Plug-In . SVG Version: 6.00 Build 0)  -->
<!DOCTYPE svg PUBLIC "-//W3C//DTD SVG 1.0//EN" "http://www.w3.org/TR/2001/REC-SVG-20010904/DTD/svg10.dtd">
<svg version="1.0" xmlns="http://www.w3.org/2000/svg" xmlns:xlink="http://www.w3.org/1999/xlink" x="0px" y="0px" width="110px"
	 height="110px" viewBox="0 0 110 110" style="enable-background:new 0 0 110 110;" xml:space="preserve">
<g id="Artboard">
</g>
<g id="Multicolor">
	<circle style="fill:#E04F5F;" cx="55" cy="55" r="55"/>
	<g>
		<g>
			<path style="fill:#FFFFFF;" d="M85.696,79.434c-2.863,0.878-6.853,1.621-8.52-3.497l-3.57-10.956
				c-0.131-0.403,0.006-0.845,0.342-1.103c2.613-2.006,3.816-5.505,2.737-8.816l-9.603-29.475c-0.171-0.525-0.735-0.812-1.261-0.641
				L52.51,29.283c-0.525,0.171-0.812,0.735-0.641,1.261l9.603,29.475c1.079,3.31,4.112,5.429,7.404,5.511
				c0.424,0.011,0.795,0.287,0.926,0.69l3.57,10.956c1.668,5.118-1.994,6.868-4.825,7.845c-0.489,0.169-0.807,0.693-0.613,1.289
				c0.171,0.525,0.736,0.812,1.261,0.641l17.114-5.576c0.525-0.171,0.812-0.735,0.641-1.26
				C86.757,79.52,86.191,79.282,85.696,79.434z"/>
		</g>
		<g>
			<path style="fill:#C9F2F8;" d="M65.821,24.946c0.525-0.171,1.089,0.116,1.261,0.641l9.603,29.475
				c1.079,3.31-0.124,6.81-2.737,8.816c-0.336,0.258-0.473,0.7-0.342,1.103l3.57,10.956c1.668,5.118,5.657,4.375,8.52,3.497
				c0.491-0.151,1.059,0.082,1.255,0.681c0.171,0.525-0.116,1.089-0.641,1.26l-8.642,2.816L60.269,26.755L65.821,24.946z"/>
		</g>
		<g>
			<path style="fill:#FACB1B;" d="M71.584,65.177c-4.2,1.37-8.72-0.93-10.09-5.13l-3.58-10.99c1.1-1.1,2.95-2.35,5.75-2.35
				c3.41,0,7.29-0.93,9.41-2.79l3.64,11.17C78.074,59.287,75.784,63.807,71.584,65.177z"/>
		</g>
		<g>
			<circle style="fill:#FBEC9A;" cx="63.637" cy="51.896" r="1"/>
		</g>
		<g>
			<circle style="fill:#FBEC9A;" cx="65.637" cy="58.896" r="1"/>
		</g>
		<g>
			<path style="fill:#F3B607;" d="M73.074,43.917l3.64,11.17c1.329,4.104-0.832,8.506-4.851,9.983l-5.538-18.546
				C68.937,46.171,71.494,45.303,73.074,43.917z"/>
		</g>
		<g>
			<circle style="fill:#FBEC9A;" cx="72" cy="52.896" r="2"/>
		</g>
		<g>
			<path style="fill:#C9F2F8;" d="M24.304,79.434c2.863,0.878,6.853,1.621,8.52-3.497l3.57-10.956
				c0.131-0.403-0.006-0.845-0.342-1.103c-2.613-2.006-3.816-5.505-2.737-8.816l9.603-29.475c0.171-0.525,0.735-0.812,1.261-0.641
				l13.311,4.337c0.525,0.171,0.812,0.735,0.641,1.261l-9.603,29.475c-1.079,3.31-4.112,5.429-7.404,5.511
				c-0.423,0.011-0.795,0.287-0.926,0.69l-3.57,10.956c-1.668,5.118,1.994,6.868,4.825,7.845c0.489,0.169,0.807,0.693,0.613,1.289
				c-0.171,0.525-0.736,0.812-1.261,0.641L23.69,81.375c-0.525-0.171-0.812-0.735-0.641-1.26
				C23.243,79.52,23.809,79.282,24.304,79.434z"/>
		</g>
		<g>
			<path style="fill:#FFFFFF;" d="M44.179,24.946c-0.525-0.171-1.089,0.116-1.261,0.641l-9.603,29.475
				c-1.079,3.31,0.124,6.81,2.737,8.816c0.336,0.258,0.473,0.7,0.342,1.103l-3.57,10.956c-1.668,5.118-5.657,4.375-8.52,3.497
				c-0.491-0.151-1.059,0.082-1.255,0.681c-0.171,0.525,0.116,1.089,0.641,1.26l8.642,2.816l17.399-57.436L44.179,24.946z"/>
		</g>
		<g>
			<path style="fill:#F3B607;" d="M38.416,65.177c4.2,1.37,8.72-0.93,10.09-5.13l3.58-10.99c-1.1-1.1-2.95-2.35-5.75-2.35
				c-3.41,0-7.29-0.93-9.41-2.79l-3.64,11.17C31.926,59.287,34.216,63.807,38.416,65.177z"/>
		</g>
		<g>
			<circle style="fill:#FBEC9A;" cx="46.363" cy="51.896" r="1"/>
		</g>
		<g>
			<circle style="fill:#FBEC9A;" cx="44.363" cy="58.896" r="1"/>
		</g>
		<g>
			<path style="fill:#FFFFFF;" d="M33.57,39.679c-1.998,0.527-3.26,1.789-3.786,3.786c-0.077,0.293-0.489,0.293-0.566,0
				c-0.527-1.997-1.789-3.259-3.786-3.786c-0.293-0.077-0.293-0.489,0-0.566c1.998-0.527,3.26-1.789,3.786-3.786
				c0.077-0.293,0.489-0.293,0.566,0c0.527,1.997,1.789,3.259,3.786,3.786C33.863,39.19,33.863,39.602,33.57,39.679z"/>
		</g>
		<g>
			<path style="fill:#FFFFFF;" d="M83.359,29.469c-1.998,0.527-3.26,1.789-3.786,3.786c-0.077,0.293-0.489,0.293-0.566,0
				c-0.527-1.997-1.789-3.259-3.786-3.786c-0.293-0.077-0.293-0.489,0-0.566c1.998-0.527,3.26-1.789,3.786-3.786
				c0.077-0.293,0.489-0.293,0.566,0c0.527,1.997,1.789,3.259,3.786,3.786C83.653,28.98,83.653,29.392,83.359,29.469z"/>
		</g>
		<g>
			<path style="fill:#FACB1B;" d="M36.926,43.917l-3.64,11.17c-1.329,4.104,0.832,8.506,4.851,9.983l5.538-18.546
				C41.063,46.171,38.506,45.303,36.926,43.917z"/>
		</g>
		<g>
			<circle style="fill:#FBEC9A;" cx="38" cy="52.896" r="2"/>
		</g>
	</g>
</g>
</svg>
