<?xml version="1.0" encoding="iso-8859-1"?>
<!-- Generator: Adobe Illustrator 17.1.0, SVG Export Plug-In . SVG Version: 6.00 Build 0)  -->
<!DOCTYPE svg PUBLIC "-//W3C//DTD SVG 1.0//EN" "http://www.w3.org/TR/2001/REC-SVG-20010904/DTD/svg10.dtd">
<svg version="1.0" xmlns="http://www.w3.org/2000/svg" xmlns:xlink="http://www.w3.org/1999/xlink" x="0px" y="0px" width="110px"
	 height="110px" viewBox="0 0 110 110" style="enable-background:new 0 0 110 110;" xml:space="preserve">
<g id="Artboard">
</g>
<g id="Multicolor">
	<circle style="fill:#E04F5F;" cx="55" cy="55" r="55"/>
	<g>
		<g>
			<polygon style="fill:#84462D;" points="55,27.67 35,45.363 35,87 75,87 75,45.363 			"/>
		</g>
		<g>
			<rect x="43" y="47" style="fill:#AF7653;" width="24" height="40"/>
		</g>
		<g>
			<polygon style="fill:#9C6144;" points="55,27.67 43,38.286 43,87 67,87 67,38.286 			"/>
		</g>
		<g>
			<polygon style="fill:#AF7653;" points="66.742,38.057 55,27.67 43,38.286 43,61.799 			"/>
		</g>
		<g>
			<polygon style="fill:#9C6144;" points="55,27.67 51,31.209 51,47 59,47 59,31.209 			"/>
		</g>
		<g>
			<g>
				<path style="fill:#F4D0A1;" d="M80.905,48c-0.732,0.827-1.996,0.905-2.823,0.173L54.905,27.67L31.728,48.173
					c-0.827,0.732-2.091,0.654-2.823-0.173c-0.732-0.827-0.654-2.091,0.173-2.823l24.502-21.675c0.757-0.669,1.894-0.669,2.65,0
					l24.502,21.675C81.559,45.908,81.637,47.172,80.905,48z"/>
			</g>
		</g>
		<g>
			
				<rect x="52.172" y="36.172" transform="matrix(-0.7071 0.7071 -0.7071 -0.7071 121.468 27.6863)" style="fill:#692E19;" width="5.657" height="5.657"/>
		</g>
		<rect x="47" y="51" style="fill:#F4D0A1;" width="16" height="4"/>
		<rect x="47" y="58" style="fill:#F4D0A1;" width="16" height="4"/>
		<rect x="47" y="65" style="fill:#F4D0A1;" width="16" height="4"/>
		<rect x="47" y="72" style="fill:#F4D0A1;" width="16" height="4"/>
		<rect x="47" y="79" style="fill:#F4D0A1;" width="16" height="4"/>
		<polygon style="fill:#9C6144;" points="43,38.286 35,45.363 35,69.799 43,61.799 		"/>
	</g>
</g>
</svg>
