<?xml version="1.0" encoding="iso-8859-1"?>
<!-- Generator: Adobe Illustrator 17.1.0, SVG Export Plug-In . SVG Version: 6.00 Build 0)  -->
<!DOCTYPE svg PUBLIC "-//W3C//DTD SVG 1.0//EN" "http://www.w3.org/TR/2001/REC-SVG-20010904/DTD/svg10.dtd">
<svg version="1.0" xmlns="http://www.w3.org/2000/svg" xmlns:xlink="http://www.w3.org/1999/xlink" x="0px" y="0px" width="110px"
	 height="110px" viewBox="0 0 110 110" style="enable-background:new 0 0 110 110;" xml:space="preserve">
<g id="Artboard">
</g>
<g id="Multicolor">
	<circle style="fill:#25B7D3;" cx="55" cy="55" r="55"/>
	<g>
		<path style="fill:#F0F1F1;" d="M61,55H25c-1.104,0-2,0.896-2,2v22c0,1.104,0.896,2,2,2h22l8,6v-6h6c1.104,0,2-0.896,2-2V57
			C63,55.896,62.104,55,61,55z"/>
		<path style="fill:#FFFFFF;" d="M25,55c-1.104,0-2,0.896-2,2v22c0,1.104,0.896,2,2,2h4.725l26-26H25z"/>
		<path style="fill:#6FDAF1;" d="M85,23H45c-1.104,0-2,0.896-2,2v24c0,1.104,0.896,2,2,2h26v8l8-8h6c1.104,0,2-0.896,2-2V25
			C87,23.896,86.104,23,85,23z"/>
	</g>
</g>
</svg>
