<?xml version="1.0" encoding="iso-8859-1"?>
<!-- Generator: Adobe Illustrator 17.1.0, SVG Export Plug-In . SVG Version: 6.00 Build 0)  -->
<!DOCTYPE svg PUBLIC "-//W3C//DTD SVG 1.0//EN" "http://www.w3.org/TR/2001/REC-SVG-20010904/DTD/svg10.dtd">
<svg version="1.0" xmlns="http://www.w3.org/2000/svg" xmlns:xlink="http://www.w3.org/1999/xlink" x="0px" y="0px" width="110px"
	 height="110px" viewBox="0 0 110 110" style="enable-background:new 0 0 110 110;" xml:space="preserve">
<g id="Artboard">
</g>
<g id="Multicolor">
	<circle style="fill:#32BEA6;" cx="55" cy="55" r="55"/>
	<g>
		<g>
			<path style="fill:#FFFFFF;" d="M73,87H29c-3.309,0-6-2.691-6-6V41c0-3.309,2.691-6,6-6h44c3.309,0,6,2.691,6,6v40
				C79,84.309,76.309,87,73,87z M31,79h40V43H31V79z"/>
		</g>
		<g>
			<path style="fill:#FACB1B;" d="M52,75c-1.456,0-2.844-0.635-3.796-1.746l-12-14c-1.797-2.097-1.554-5.253,0.542-7.05
				c2.096-1.799,5.252-1.556,7.05,0.542l7.845,9.153L76.435,32c3.839-5.377,7.857-2.399,4,3L56.069,72.906
				c-0.894,1.251-2.312,2.021-3.848,2.089C52.147,74.998,52.073,75,52,75z"/>
		</g>
	</g>
</g>
</svg>
