<?xml version="1.0" encoding="iso-8859-1"?>
<!-- Generator: Adobe Illustrator 17.1.0, SVG Export Plug-In . SVG Version: 6.00 Build 0)  -->
<!DOCTYPE svg PUBLIC "-//W3C//DTD SVG 1.0//EN" "http://www.w3.org/TR/2001/REC-SVG-20010904/DTD/svg10.dtd">
<svg version="1.0" xmlns="http://www.w3.org/2000/svg" xmlns:xlink="http://www.w3.org/1999/xlink" x="0px" y="0px" width="110px"
	 height="110px" viewBox="0 0 110 110" style="enable-background:new 0 0 110 110;" xml:space="preserve">
<g id="Artboard">
</g>
<g id="Multicolor">
	<circle style="fill:#FABC3D;" cx="55" cy="55" r="55"/>
	<g>
		<rect x="23" y="49" style="fill:#FFFFFF;" width="64" height="38"/>
		<rect x="23" y="49" style="fill:#0484AB;" width="64" height="8"/>
		<path style="fill:#CFD3D4;" d="M71,64.5c0,0.276-0.224,0.5-0.5,0.5h-11c-0.276,0-0.5-0.224-0.5-0.5c0-0.276,0.224-0.5,0.5-0.5h11
			C70.776,64,71,64.224,71,64.5z"/>
		<path style="fill:#CFD3D4;" d="M71,68.5c0,0.276-0.224,0.5-0.5,0.5h-11c-0.276,0-0.5-0.224-0.5-0.5c0-0.276,0.224-0.5,0.5-0.5h11
			C70.776,68,71,68.224,71,68.5z"/>
		<path style="fill:#CFD3D4;" d="M71,72.5c0,0.276-0.224,0.5-0.5,0.5h-11c-0.276,0-0.5-0.224-0.5-0.5c0-0.276,0.224-0.5,0.5-0.5h11
			C70.776,72,71,72.224,71,72.5z"/>
		<g>
			<path style="fill:#B6BCBD;" d="M77.184,62.054c0.347,0,0.621,0.274,0.621,0.622v0.318c0.853,0.101,1.575,0.375,2.24,0.794
				c0.231,0.13,0.433,0.347,0.433,0.694c0,0.448-0.361,0.794-0.809,0.794c-0.145,0-0.289-0.043-0.434-0.13
				c-0.506-0.303-0.997-0.52-1.488-0.636v2.774c2.196,0.549,3.136,1.431,3.136,2.977c0,1.59-1.243,2.645-3.078,2.818v0.867
				c0,0.347-0.274,0.621-0.621,0.621s-0.636-0.274-0.636-0.621v-0.896c-1.084-0.116-2.081-0.506-2.962-1.127
				c-0.246-0.159-0.39-0.391-0.39-0.694c0-0.448,0.347-0.795,0.795-0.795c0.173,0,0.347,0.058,0.477,0.159
				c0.679,0.491,1.344,0.824,2.139,0.968v-2.847c-2.109-0.549-3.092-1.344-3.092-2.977c0-1.546,1.228-2.615,3.035-2.76v-0.303
				C76.548,62.329,76.837,62.054,77.184,62.054z M76.605,66.982v-2.558c-0.925,0.087-1.387,0.578-1.387,1.214
				C75.218,66.245,75.493,66.621,76.605,66.982z M77.747,68.99v2.63c0.925-0.101,1.431-0.563,1.431-1.257
				C79.178,69.727,78.859,69.337,77.747,68.99z"/>
		</g>
		<g>
			<path style="fill:#FA5655;" d="M61,81H51c-0.839,0-1.497-0.24-1.956-0.712c-0.856-0.881-0.815-2.308-0.779-3.567
				c0.018-0.631,0.043-1.495-0.147-1.691C48.108,75.021,48.088,75,48,75c-0.564,0-0.804,1.426-0.997,2.571
				C46.732,79.178,46.425,81,45,81c-0.587,0-1.03-0.188-1.318-0.561c-0.625-0.807-0.269-2.185,0.075-3.518
				c0.165-0.639,0.441-1.709,0.295-1.93c-0.51,0.008-0.789,0.922-1.083,1.89C42.439,78.619,41.713,81,39,81
				c-1.154,0-2.028-0.533-2.597-1.302C34.971,80.47,33.389,81,32,81c-2.616,0-3.787-1.615-3.787-3.216
				c0-2.045,1.791-4.159,4.787-4.159c0.276,0,0.5,0.224,0.5,0.5s-0.224,0.5-0.5,0.5c-2.371,0-3.787,1.606-3.787,3.159
				C29.213,78.855,29.945,80,32,80c1.279,0,2.677-0.486,3.927-1.165c-0.197-0.496-0.297-1.032-0.297-1.559
				c0-0.893,0.28-1.719,0.788-2.327c0.589-0.705,1.439-1.078,2.458-1.078c0.558,0,0.981,0.098,1.293,0.301
				c0.351,0.228,0.544,0.586,0.544,1.008c0,1.147-1.493,2.771-3.446,4.012C37.664,79.677,38.245,80,39,80
				c1.832,0,2.403-1.413,3.012-3.41C42.4,75.317,42.801,74,44,74c0.454,0,0.709,0.207,0.844,0.38
				c0.452,0.584,0.188,1.607-0.119,2.792c-0.244,0.943-0.578,2.235-0.253,2.655C44.505,79.87,44.606,80,45,80
				c0.58,0,0.822-1.439,1.017-2.595C46.286,75.809,46.59,74,48,74c0.422,0,0.687,0.181,0.834,0.333
				c0.485,0.499,0.459,1.387,0.43,2.417c-0.03,1.061-0.064,2.263,0.497,2.841C50.029,79.866,50.434,80,51,80h10
				c0.276,0,0.5,0.224,0.5,0.5S61.276,81,61,81z M38.876,74.87c-0.723,0-1.292,0.242-1.691,0.719
				c-0.358,0.428-0.555,1.027-0.555,1.686c0,0.355,0.056,0.711,0.167,1.043c1.678-1.087,2.917-2.427,2.917-3.139
				c0-0.085-0.021-0.125-0.089-0.169C39.545,74.958,39.34,74.87,38.876,74.87z"/>
		</g>
		<g>
			<path style="fill:#DF2C2C;" d="M71.138,26.895c1.033-1.164,2.501-1.849,4.056-1.893c1.555-0.044,3.06,0.557,4.157,1.66
				c1.097,1.103,1.689,2.611,1.636,4.166c-0.053,1.555-0.746,3.019-1.916,4.045L53.807,57.703l-5.641-5.673L71.138,26.895z"/>
			
				<rect x="46.277" y="54.572" transform="matrix(-0.7051 -0.7091 0.7091 -0.7051 46.3222 130.4072)" style="fill:#FACB1B;" width="8" height="2"/>
			<path style="fill:#F3B607;" d="M41.16,56.642c-0.038,3.521-2.547,8.472-2.547,8.472c-0.648-0.002-2.092,2.08-1.416,2.76
				c0.115,0.116,0.19,0.262,0.317,0.39c0.127,0.128,0.273,0.204,0.388,0.319c0.676,0.68,2.868-0.619,2.87-1.297
				c0,0,4.862-2.584,8.384-2.603c0.474-0.006,0.885-0.344,0.971-0.811c0.488-2.502,2.262-4.759,2.262-4.759
				s-4.498-4.524-5.641-5.673c0,0-2.268,1.761-4.772,2.235C41.509,55.759,41.168,56.168,41.16,56.642z"/>
			<path style="fill:#FACB1B;" d="M38.613,65.114c0,0,2.509-4.951,2.547-8.472c0.008-0.474,0.349-0.883,0.816-0.967
				c2.504-0.474,4.772-2.235,4.772-2.235c0.509,0.512,1.684,1.693,2.831,2.847L37.562,68.304c-0.241-0.215-0.168-0.231-0.366-0.43
				C36.521,67.194,37.965,65.112,38.613,65.114z"/>
			<path style="fill:#FA5655;" d="M75.194,25.002c-1.555,0.044-3.023,0.729-4.056,1.893L48.166,52.03l2.856,2.873l28.282-28.282
				C78.212,25.545,76.728,24.959,75.194,25.002z"/>
			<path style="fill:#BF0302;" d="M79.361,26.672c-1.1-1.106-2.597-1.704-4.16-1.659c-1.549,0.045-3.021,0.734-4.057,1.891
				l-1.612,1.765c-0.475-0.354-1.085-0.667-1.831-0.762c-1.39-0.175-2.802,0.439-4.196,1.826c-2.214,2.202-7.393,8.086-7.612,8.336
				c-0.01,0.011-0.012,0.026-0.022,0.038c-0.064,0.088-0.119,0.18-0.162,0.277c-0.002,0.006-0.007,0.011-0.009,0.017
				c-0.237,0.553-0.134,1.217,0.316,1.669c0.591,0.595,1.553,0.598,2.147,0.006c0.498-0.495,0.575-1.247,0.242-1.828
				c1.654-1.864,4.271-4.87,5.86-6.45c0.929-0.924,1.779-1.349,2.523-1.261c0.294,0.035,0.549,0.152,0.77,0.293l-3.173,3.473
				l7.262,7.304l7.437-6.718c1.163-1.029,1.86-2.498,1.914-4.046C81.051,29.279,80.461,27.779,79.361,26.672z"/>
			<path style="fill:#DF2C2C;" d="M75.201,25.013c-1.549,0.045-3.022,0.734-4.057,1.891l-6.76,7.398l3.609,3.63l11.311-11.311
				C78.21,25.55,76.738,24.969,75.201,25.013z"/>
		</g>
	</g>
</g>
</svg>
