<?xml version="1.0" encoding="iso-8859-1"?>
<!-- Generator: Adobe Illustrator 17.1.0, SVG Export Plug-In . SVG Version: 6.00 Build 0)  -->
<!DOCTYPE svg PUBLIC "-//W3C//DTD SVG 1.0//EN" "http://www.w3.org/TR/2001/REC-SVG-20010904/DTD/svg10.dtd">
<svg version="1.0" xmlns="http://www.w3.org/2000/svg" xmlns:xlink="http://www.w3.org/1999/xlink" x="0px" y="0px" width="110px"
	 height="110px" viewBox="0 0 110 110" style="enable-background:new 0 0 110 110;" xml:space="preserve">
<g id="Artboard">
</g>
<g id="Multicolor">
	<g>
		<circle style="fill:#32BEA6;" cx="55" cy="55" r="55"/>
	</g>
	<g>
		<g>
			<path style="fill:#F1F2F2;" d="M72,31.5c0-3.59-2.91-6.5-6.5-6.5c-1.502,0-2.882,0.515-3.983,1.371
				C60.067,24.333,57.691,23,55,23s-5.067,1.333-6.517,3.371C47.382,25.515,46.002,25,44.5,25c-3.59,0-6.5,2.91-6.5,6.5
				c0,2.3,1.198,4.316,3,5.472V47h28V36.972C70.802,35.816,72,33.8,72,31.5z"/>
		</g>
		<path style="fill:#FFFFFF;" d="M55,47V23c-2.691,0-5.067,1.333-6.517,3.371C47.382,25.515,46.002,25,44.5,25
			c-3.59,0-6.5,2.91-6.5,6.5c0,2.3,1.198,4.316,3,5.472V47H55z"/>
		<path style="fill:#9C6144;" d="M65,73l6.165,1.656C75.93,72.576,77,68.808,77,68.808s-7.982-0.899-7.982-9.019
			C69.018,53.062,69,47,69,47H41c0,0-0.018,6.062-0.018,12.789c0,8.12-7.982,9.019-7.982,9.019s1.07,3.768,5.835,5.848L45,73H65z"/>
		<polyline style="fill:#9C6144;" points="54,63 54.993,63 55,63 56,63 		"/>
		<path style="fill:#FFFFFF;" d="M83,80c-0.615-1.333-1.698-2.394-3.043-2.982L65,73v-8.555c-2.841,4.393-6.718,6.461-10,7.555
			c-3.282-1.094-7.159-3.162-10-7.555V73l-14.957,4.018C28.698,77.606,27.615,78.667,27,80l-4,7h32h32L83,80z"/>
		<path style="fill:#FBC8C8;" d="M70,49c-0.277,0-0.633,0-1,0v6l-4-8H45l-4,8v-6c-0.367,0-0.723,0-1,0c-1,0-2,1.111-2,2.222
			c0,3.181,0.917,7.365,4.478,7.741C45.067,67.292,50.576,70.525,55,72c4.424-1.475,9.933-4.708,12.522-13.037
			C71.083,58.587,72,54.403,72,51.222C72,50.111,71,49,70,49z"/>
		<path style="fill:#FBD7D7;" d="M45,47l-4,8v-6c-0.367,0-0.723,0-1,0c-1,0-2,1.111-2,2.222c0,3.181,0.917,7.365,4.478,7.741
			C45.067,67.292,50.576,70.525,55,72V47H45z"/>
		<g>
			<path style="fill:#3E3E3F;" d="M52.333,50.167c0-1.104-0.896-2-2-2c-0.002,0-0.004,0-0.006,0
				c0.001,0.021,0.006,0.041,0.006,0.062c0,1.103-0.892,1.996-1.994,2c0.033,1.075,0.91,1.938,1.994,1.938
				C51.438,52.167,52.333,51.271,52.333,50.167z"/>
		</g>
		<g>
			<path style="fill:#3E3E3F;" d="M62.327,50.167c0-1.104-0.896-2-2-2c-0.002,0-0.004,0-0.006,0
				c0.001,0.021,0.006,0.041,0.006,0.062c0,1.103-0.892,1.996-1.994,2c0.033,1.075,0.91,1.938,1.994,1.938
				C61.431,52.167,62.327,51.271,62.327,50.167z"/>
		</g>
		<g>
			<path style="fill:#F79392;" d="M50.333,61.167h10c0,0,0,3-5,3S50.333,61.167,50.333,61.167z"/>
		</g>
		<g>
			<circle style="fill:#F3B607;" cx="55.5" cy="84" r="2"/>
		</g>
		<g>
			<circle style="fill:#F3B607;" cx="55.5" cy="77" r="2"/>
		</g>
		<g>
			<rect x="62" y="35" style="fill:#E2E4E5;" width="2" height="9"/>
		</g>
		<g>
			<rect x="54" y="35" style="fill:#E2E4E5;" width="2" height="9"/>
		</g>
		<g>
			<rect x="46" y="35" style="fill:#E2E4E5;" width="2" height="9"/>
		</g>
	</g>
</g>
</svg>
