<?xml version="1.0" encoding="iso-8859-1"?>
<!-- Generator: Adobe Illustrator 17.1.0, SVG Export Plug-In . SVG Version: 6.00 Build 0)  -->
<!DOCTYPE svg PUBLIC "-//W3C//DTD SVG 1.0//EN" "http://www.w3.org/TR/2001/REC-SVG-20010904/DTD/svg10.dtd">
<svg version="1.0" xmlns="http://www.w3.org/2000/svg" xmlns:xlink="http://www.w3.org/1999/xlink" x="0px" y="0px" width="110px"
	 height="110px" viewBox="0 0 110 110" style="enable-background:new 0 0 110 110;" xml:space="preserve">
<g id="Artboard" style="display:none;">
	
		<rect x="-328.5" y="-546.5" style="display:inline;fill:#808080;stroke:#000000;stroke-miterlimit:10;" width="1392" height="1369"/>
</g>
<g id="R-Multicolor">
	<circle style="fill:#25B7D3;" cx="55" cy="55" r="55"/>
	<g>
		<path style="fill:#9C6144;" d="M64.665,29.681C65.676,27.877,67.748,27,71,27v-4c-10.837,0-19.152,3.116-24.714,9.263
			c-7.807,8.626-7.462,20.235-7.308,22.54C39.564,54.924,40.225,55,41,55c0.008,0,0.015-0.001,0.022-0.001l1.968-0.195
			c-0.011-0.117-1.047-11.809,6.286-19.884c2.942-3.24,6.852-5.492,11.674-6.745c-3.705,7.599,2.977,21.131,6.043,26.631
			C67.576,54.925,68.232,55,69,55c1.012,0,1.831-0.128,2.54-0.32C68.376,49.427,61.417,35.479,64.665,29.681z"/>
		<g>
			<path style="fill:#DF2C2C;" d="M59,69c0,9.941-8.059,18-18,18s-18-8.059-18-18c0-8.335,6-16,10-16c3,0,4,2,8,2s5-2,8-2
				C55,53,59,62.258,59,69z"/>
		</g>
		<g>
			<path style="fill:#DF2C2C;" d="M87,69c0,9.941-8.059,18-18,18s-18-8.059-18-18c0-8.335,6-16,10-16c3,0,4,2,8,2s5-2,8-2
				C83,53,87,62.258,87,69z"/>
		</g>
		<g>
			<path style="fill:#FA5655;" d="M33,53c-4,0-10,7.666-10,16c0,9.941,8.059,18,18,18V55C37,55,36,53,33,53z"/>
		</g>
		<g>
			<path style="fill:#FA5655;" d="M61,53c-4,0-10,7.666-10,16c0,9.941,8.059,18,18,18V55C65,55,64,53,61,53z"/>
		</g>
	</g>
</g>
<g id="Multicolor" style="display:none;">
	<g style="display:inline;">
		<path style="fill:#9C6144;" d="M64.665,29.681C65.676,27.877,67.748,27,71,27v-4c-10.837,0-19.152,3.116-24.714,9.263
			c-7.807,8.626-7.462,20.235-7.308,22.54C39.564,54.924,40.225,55,41,55c0.008,0,0.015-0.001,0.022-0.001l1.968-0.195
			c-0.011-0.117-1.047-11.809,6.286-19.884c2.942-3.24,6.852-5.492,11.674-6.745c-3.705,7.599,2.977,21.131,6.043,26.631
			C67.576,54.925,68.232,55,69,55c1.012,0,1.831-0.128,2.54-0.32C68.376,49.427,61.417,35.479,64.665,29.681z"/>
		<g>
			<path style="fill:#DF2C2C;" d="M59,69c0,9.941-8.059,18-18,18s-18-8.059-18-18c0-8.335,6-16,10-16c3,0,4,2,8,2s5-2,8-2
				C55,53,59,62.258,59,69z"/>
		</g>
		<g>
			<path style="fill:#DF2C2C;" d="M87,69c0,9.941-8.059,18-18,18s-18-8.059-18-18c0-8.335,6-16,10-16c3,0,4,2,8,2s5-2,8-2
				C83,53,87,62.258,87,69z"/>
		</g>
		<g>
			<path style="fill:#FA5655;" d="M33,53c-4,0-10,7.666-10,16c0,9.941,8.059,18,18,18V55C37,55,36,53,33,53z"/>
		</g>
		<g>
			<path style="fill:#FA5655;" d="M61,53c-4,0-10,7.666-10,16c0,9.941,8.059,18,18,18V55C65,55,64,53,61,53z"/>
		</g>
	</g>
</g>
<g id="Blue" style="display:none;">
	<g style="display:inline;">
		<path style="fill:#0C333D;" d="M64.665,29.681C65.676,27.877,67.748,27,71,27v-4c-10.837,0-19.152,3.116-24.714,9.263
			c-7.807,8.626-7.462,20.235-7.308,22.54C39.564,54.924,40.225,55,41,55c0.008,0,0.015-0.001,0.022-0.001l1.968-0.194
			c-0.012-0.117-1.047-11.809,6.285-19.884c2.942-3.24,6.852-5.492,11.675-6.745c-3.705,7.599,2.978,21.131,6.043,26.631
			C67.576,54.925,68.232,55,69,55c1.012,0,1.831-0.128,2.54-0.32C68.376,49.427,61.416,35.479,64.665,29.681z"/>
		<g>
			<path style="fill:#0081A1;" d="M59,69c0,9.941-8.059,18-18,18s-18-8.059-18-18c0-8.334,6-16,10-16c3,0,4,2,8,2s5-2,8-2
				C55,53,59,62.258,59,69z"/>
		</g>
		<g>
			<path style="fill:#0081A1;" d="M87,69c0,9.941-8.059,18-18,18s-18-8.059-18-18c0-8.334,6-16,10-16c3,0,4,2,8,2s5-2,8-2
				C83,53,87,62.258,87,69z"/>
		</g>
		<g>
			<path style="fill:#009FC7;" d="M33,53c-4,0-10,7.666-10,16c0,9.941,8.059,18,18,18V55C37,55,36,53,33,53z"/>
		</g>
		<g>
			<path style="fill:#009FC7;" d="M61,53c-4,0-10,7.666-10,16c0,9.941,8.059,18,18,18V55C65,55,64,53,61,53z"/>
		</g>
	</g>
</g>
<g id="R-Blue" style="display:none;">
	<circle style="display:inline;fill:#81D2EB;" cx="55" cy="55" r="55"/>
	<g style="display:inline;">
		<path style="fill:#0C333D;" d="M64.665,29.681C65.676,27.877,67.748,27,71,27v-4c-10.837,0-19.152,3.116-24.714,9.263
			c-7.807,8.626-7.462,20.235-7.308,22.54C39.564,54.924,40.225,55,41,55c0.008,0,0.015-0.001,0.022-0.001l1.968-0.194
			c-0.012-0.117-1.047-11.809,6.285-19.884c2.942-3.24,6.852-5.492,11.675-6.745c-3.705,7.599,2.978,21.131,6.043,26.631
			C67.576,54.925,68.232,55,69,55c1.012,0,1.831-0.128,2.54-0.32C68.376,49.427,61.416,35.478,64.665,29.681z"/>
		<g>
			<path style="fill:#0081A1;" d="M59,69c0,9.941-8.059,18-18,18s-18-8.059-18-18c0-8.335,6-16,10-16c3,0,4,2,8,2s5-2,8-2
				C55,53,59,62.258,59,69z"/>
		</g>
		<g>
			<path style="fill:#0081A1;" d="M87,69c0,9.941-8.059,18-18,18s-18-8.059-18-18c0-8.335,6-16,10-16c3,0,4,2,8,2s5-2,8-2
				C83,53,87,62.258,87,69z"/>
		</g>
		<g>
			<path style="fill:#009FC7;" d="M33,53c-4,0-10,7.666-10,16c0,9.941,8.059,18,18,18V55C37,55,36,53,33,53z"/>
		</g>
		<g>
			<path style="fill:#009FC7;" d="M61,53c-4,0-10,7.666-10,16c0,9.941,8.059,18,18,18V55C65,55,64,53,61,53z"/>
		</g>
	</g>
</g>
<g id="Green" style="display:none;">
	<g style="display:inline;">
		<path style="fill:#0A3631;" d="M64.665,29.681C65.676,27.877,67.748,27,71,27v-4c-10.837,0-19.152,3.116-24.714,9.263
			c-7.807,8.626-7.462,20.235-7.308,22.54C39.564,54.924,40.225,55,41,55c0.008,0,0.015-0.001,0.022-0.001l1.968-0.194
			c-0.012-0.117-1.047-11.809,6.285-19.884c2.942-3.24,6.852-5.492,11.675-6.745c-3.705,7.599,2.978,21.131,6.043,26.631
			C67.576,54.925,68.232,55,69,55c1.012,0,1.831-0.128,2.54-0.32C68.376,49.427,61.416,35.479,64.665,29.681z"/>
		<g>
			<path style="fill:#009687;" d="M59,69c0,9.941-8.059,18-18,18s-18-8.059-18-18c0-8.334,6-16,10-16c3,0,4,2,8,2s5-2,8-2
				C55,53,59,62.258,59,69z"/>
		</g>
		<g>
			<path style="fill:#009687;" d="M87,69c0,9.941-8.059,18-18,18s-18-8.059-18-18c0-8.334,6-16,10-16c3,0,4,2,8,2s5-2,8-2
				C83,53,87,62.258,87,69z"/>
		</g>
		<g>
			<path style="fill:#00B8A5;" d="M33,53c-4,0-10,7.666-10,16c0,9.941,8.059,18,18,18V55C37,55,36,53,33,53z"/>
		</g>
		<g>
			<path style="fill:#00B8A5;" d="M61,53c-4,0-10,7.666-10,16c0,9.941,8.059,18,18,18V55C65,55,64,53,61,53z"/>
		</g>
	</g>
</g>
<g id="R-Green" style="display:none;">
	<circle style="display:inline;fill:#77E0C4;" cx="55" cy="55" r="55"/>
	<g style="display:inline;">
		<path style="fill:#0A3631;" d="M64.665,29.681C65.676,27.877,67.748,27,71,27v-4c-10.837,0-19.152,3.116-24.714,9.263
			c-7.807,8.626-7.462,20.235-7.308,22.54C39.564,54.924,40.225,55,41,55c0.008,0,0.015-0.001,0.022-0.001l1.968-0.194
			c-0.012-0.117-1.047-11.809,6.285-19.884c2.942-3.24,6.852-5.492,11.675-6.745c-3.705,7.599,2.978,21.131,6.043,26.631
			C67.576,54.925,68.232,55,69,55c1.012,0,1.831-0.128,2.54-0.32C68.376,49.427,61.416,35.479,64.665,29.681z"/>
		<g>
			<path style="fill:#009687;" d="M59,69c0,9.941-8.059,18-18,18s-18-8.059-18-18c0-8.334,6-16,10-16c3,0,4,2,8,2s5-2,8-2
				C55,53,59,62.258,59,69z"/>
		</g>
		<g>
			<path style="fill:#009687;" d="M87,69c0,9.941-8.059,18-18,18s-18-8.059-18-18c0-8.334,6-16,10-16c3,0,4,2,8,2s5-2,8-2
				C83,53,87,62.258,87,69z"/>
		</g>
		<g>
			<path style="fill:#00B8A5;" d="M33,53c-4,0-10,7.666-10,16c0,9.941,8.059,18,18,18V55C37,55,36,53,33,53z"/>
		</g>
		<g>
			<path style="fill:#00B8A5;" d="M61,53c-4,0-10,7.666-10,16c0,9.941,8.059,18,18,18V55C65,55,64,53,61,53z"/>
		</g>
	</g>
</g>
<g id="Red" style="display:none;">
	<g style="display:inline;">
		<path style="fill:#4A1410;" d="M64.665,29.681C65.676,27.877,67.748,27,71,27v-4c-10.837,0-19.152,3.116-24.714,9.263
			c-7.807,8.626-7.462,20.235-7.308,22.54C39.564,54.924,40.225,55,41,55c0.008,0,0.015-0.001,0.022-0.001l1.968-0.194
			c-0.012-0.117-1.047-11.809,6.285-19.884c2.942-3.24,6.852-5.492,11.675-6.745c-3.705,7.599,2.978,21.131,6.043,26.631
			C67.576,54.925,68.232,55,69,55c1.012,0,1.831-0.128,2.54-0.32C68.376,49.427,61.416,35.479,64.665,29.681z"/>
		<g>
			<path style="fill:#C23023;" d="M59,69c0,9.941-8.059,18-18,18s-18-8.059-18-18c0-8.334,6-16,10-16c3,0,4,2,8,2s5-2,8-2
				C55,53,59,62.258,59,69z"/>
		</g>
		<g>
			<path style="fill:#C23023;" d="M87,69c0,9.941-8.059,18-18,18s-18-8.059-18-18c0-8.334,6-16,10-16c3,0,4,2,8,2s5-2,8-2
				C83,53,87,62.258,87,69z"/>
		</g>
		<g>
			<path style="fill:#E54B44;" d="M33,53c-4,0-10,7.666-10,16c0,9.941,8.059,18,18,18V55C37,55,36,53,33,53z"/>
		</g>
		<g>
			<path style="fill:#E54B44;" d="M61,53c-4,0-10,7.666-10,16c0,9.941,8.059,18,18,18V55C65,55,64,53,61,53z"/>
		</g>
	</g>
</g>
<g id="R-Red" style="display:none;">
	<circle style="display:inline;fill:#FABBAF;" cx="55" cy="55" r="55"/>
	<g style="display:inline;">
		<path style="fill:#4A1410;" d="M64.665,29.681C65.676,27.877,67.748,27,71,27v-4c-10.837,0-19.152,3.116-24.714,9.263
			c-7.807,8.626-7.462,20.235-7.308,22.54C39.564,54.924,40.225,55,41,55c0.008,0,0.015-0.001,0.022-0.001l1.968-0.194
			c-0.012-0.117-1.047-11.809,6.285-19.884c2.942-3.24,6.852-5.492,11.675-6.745c-3.705,7.599,2.978,21.131,6.043,26.631
			C67.576,54.925,68.232,55,69,55c1.012,0,1.831-0.128,2.54-0.32C68.376,49.427,61.416,35.479,64.665,29.681z"/>
		<g>
			<path style="fill:#C23023;" d="M59,69c0,9.941-8.059,18-18,18s-18-8.059-18-18c0-8.334,6-16,10-16c3,0,4,2,8,2s5-2,8-2
				C55,53,59,62.258,59,69z"/>
		</g>
		<g>
			<path style="fill:#C23023;" d="M87,69c0,9.941-8.059,18-18,18s-18-8.059-18-18c0-8.334,6-16,10-16c3,0,4,2,8,2s5-2,8-2
				C83,53,87,62.258,87,69z"/>
		</g>
		<g>
			<path style="fill:#E54B44;" d="M33,53c-4,0-10,7.666-10,16c0,9.941,8.059,18,18,18V55C37,55,36,53,33,53z"/>
		</g>
		<g>
			<path style="fill:#E54B44;" d="M61,53c-4,0-10,7.666-10,16c0,9.941,8.059,18,18,18V55C65,55,64,53,61,53z"/>
		</g>
	</g>
</g>
<g id="Yellow" style="display:none;">
	<g style="display:inline;">
		<path style="fill:#3D320C;" d="M64.665,29.681C65.676,27.877,67.748,27,71,27v-4c-10.837,0-19.152,3.116-24.714,9.263
			c-7.807,8.626-7.462,20.235-7.308,22.54C39.564,54.924,40.225,55,41,55c0.008,0,0.015-0.001,0.022-0.001l1.968-0.194
			c-0.012-0.117-1.047-11.809,6.285-19.884c2.942-3.24,6.852-5.492,11.675-6.745c-3.705,7.599,2.978,21.131,6.043,26.631
			C67.576,54.925,68.232,55,69,55c1.012,0,1.831-0.128,2.54-0.32C68.376,49.427,61.416,35.479,64.665,29.681z"/>
		<g>
			<path style="fill:#E07000;" d="M59,69c0,9.941-8.059,18-18,18s-18-8.059-18-18c0-8.334,6-16,10-16c3,0,4,2,8,2s5-2,8-2
				C55,53,59,62.258,59,69z"/>
		</g>
		<g>
			<path style="fill:#E07000;" d="M87,69c0,9.941-8.059,18-18,18s-18-8.059-18-18c0-8.334,6-16,10-16c3,0,4,2,8,2s5-2,8-2
				C83,53,87,62.258,87,69z"/>
		</g>
		<g>
			<path style="fill:#FA9200;" d="M33,53c-4,0-10,7.666-10,16c0,9.941,8.059,18,18,18V55C37,55,36,53,33,53z"/>
		</g>
		<g>
			<path style="fill:#FA9200;" d="M61,53c-4,0-10,7.666-10,16c0,9.941,8.059,18,18,18V55C65,55,64,53,61,53z"/>
		</g>
	</g>
</g>
<g id="R-Yellow" style="display:none;">
	<circle style="display:inline;fill:#FFD75E;" cx="55" cy="55" r="55"/>
	<g style="display:inline;">
		<path style="fill:#3D320C;" d="M64.665,29.681C65.676,27.877,67.748,27,71,27v-4c-10.837,0-19.152,3.116-24.714,9.263
			c-7.807,8.626-7.462,20.235-7.308,22.54C39.564,54.924,40.225,55,41,55c0.008,0,0.015-0.001,0.022-0.001l1.968-0.194
			c-0.012-0.117-1.047-11.809,6.285-19.884c2.942-3.24,6.852-5.492,11.675-6.745c-3.705,7.599,2.978,21.131,6.043,26.631
			C67.576,54.925,68.232,55,69,55c1.012,0,1.831-0.128,2.54-0.32C68.376,49.427,61.416,35.479,64.665,29.681z"/>
		<g>
			<path style="fill:#E07000;" d="M59,69c0,9.941-8.059,18-18,18s-18-8.059-18-18c0-8.334,6-16,10-16c3,0,4,2,8,2s5-2,8-2
				C55,53,59,62.258,59,69z"/>
		</g>
		<g>
			<path style="fill:#E07000;" d="M87,69c0,9.941-8.059,18-18,18s-18-8.059-18-18c0-8.334,6-16,10-16c3,0,4,2,8,2s5-2,8-2
				C83,53,87,62.258,87,69z"/>
		</g>
		<g>
			<path style="fill:#FA9200;" d="M33,53c-4,0-10,7.666-10,16c0,9.941,8.059,18,18,18V55C37,55,36,53,33,53z"/>
		</g>
		<g>
			<path style="fill:#FA9200;" d="M61,53c-4,0-10,7.666-10,16c0,9.941,8.059,18,18,18V55C65,55,64,53,61,53z"/>
		</g>
	</g>
</g>
</svg>
