<?xml version="1.0" encoding="iso-8859-1"?>
<!-- Generator: Adobe Illustrator 17.1.0, SVG Export Plug-In . SVG Version: 6.00 Build 0)  -->
<!DOCTYPE svg PUBLIC "-//W3C//DTD SVG 1.0//EN" "http://www.w3.org/TR/2001/REC-SVG-20010904/DTD/svg10.dtd">
<svg version="1.0" xmlns="http://www.w3.org/2000/svg" xmlns:xlink="http://www.w3.org/1999/xlink" x="0px" y="0px" width="110px"
	 height="110px" viewBox="0 0 110 110" style="enable-background:new 0 0 110 110;" xml:space="preserve">
<g id="Artboard">
</g>
<g id="Multicolor">
	<circle style="fill:#E04F5F;" cx="55" cy="55" r="55"/>
	<g>
		<path style="fill:#F3B607;" d="M87,38.84C87,30.092,79.908,23,71.16,23H38.84C30.092,23,23,30.092,23,38.84V39h64V38.84z"/>
		<path style="fill:#FBE158;" d="M38.84,23C30.092,23,23,30.092,23,38.84V39h12.309l16-16H38.84z"/>
		<path style="fill:#F3B607;" d="M87,83c0,2.209-1.791,4-4,4H27c-2.209,0-4-1.791-4-4V63c0-2.209,1.791-4,4-4h56
			c2.209,0,4,1.791,4,4V83z"/>
		<path style="fill:#84462D;" d="M63,63v14c0,1.104-0.895,2-2,2H49c-1.104,0-2-0.896-2-2V63H27v20h56V63H63z"/>
		<polygon style="fill:#84462D;" points="87,39 23,39 31,59 79,59 		"/>
		<polygon style="fill:#FBE158;" points="43,51 35,51 31,59 47,59 		"/>
		<polygon style="fill:#FBE158;" points="59,51 51,51 47,59 63,59 		"/>
		<polygon style="fill:#FBE158;" points="51,43 43,43 39,51 55,51 		"/>
		<polygon style="fill:#FBE158;" points="67,43 59,43 55,51 71,51 		"/>
		<polygon style="fill:#FBE158;" points="75,51 67,51 63,59 79,59 		"/>
		<path style="fill:#84462D;" d="M47,33c0-1.104,0.896-2,2-2h12c1.105,0,2,0.896,2,2v2h16c0-6.627-5.373-12-12-12H43
			c-6.627,0-12,5.373-12,12h16V33z"/>
		<path style="fill:#84462D;" d="M58,68c0-1.657-1.343-3-3-3s-3,1.343-3,3c0,1.304,0.837,2.403,2,2.816V77h2v-6.184
			C57.163,70.403,58,69.304,58,68z"/>
		<path style="fill:#9C6144;" d="M43,23c-6.627,0-12,5.373-12,12h8.309l12-12H43z"/>
		<path style="fill:#FFFFFF;" d="M34.081,49.987c0.119,0.017,0.119,0.181,0,0.198c-2.863,0.403-4.495,2.035-4.897,4.897
			c-0.017,0.119-0.181,0.119-0.198,0c-0.402-2.862-2.035-4.495-4.897-4.897c-0.119-0.017-0.119-0.181,0-0.198
			c2.863-0.403,4.495-2.035,4.897-4.897c0.017-0.119,0.181-0.119,0.198,0C29.587,47.951,31.219,49.584,34.081,49.987z"/>
		<path style="fill:#FFFFFF;" d="M86.081,45.013c-2.863,0.403-4.495,2.035-4.897,4.897c-0.017,0.119-0.181,0.119-0.198,0
			c-0.402-2.862-2.035-4.495-4.897-4.897c-0.119-0.017-0.119-0.181,0-0.198c2.863-0.403,4.495-2.035,4.897-4.897
			c0.017-0.119,0.181-0.119,0.198,0c0.402,2.862,2.035,4.495,4.897,4.897C86.201,44.833,86.201,44.997,86.081,45.013z"/>
	</g>
</g>
</svg>
