<?xml version="1.0" encoding="iso-8859-1"?>
<!-- Generator: Adobe Illustrator 17.1.0, SVG Export Plug-In . SVG Version: 6.00 Build 0)  -->
<!DOCTYPE svg PUBLIC "-//W3C//DTD SVG 1.0//EN" "http://www.w3.org/TR/2001/REC-SVG-20010904/DTD/svg10.dtd">
<svg version="1.0" xmlns="http://www.w3.org/2000/svg" xmlns:xlink="http://www.w3.org/1999/xlink" x="0px" y="0px" width="110px"
	 height="110px" viewBox="0 0 110 110" style="enable-background:new 0 0 110 110;" xml:space="preserve">
<g id="Artboard">
</g>
<g id="Multicolor">
	<circle style="fill:#32BEA6;" cx="55" cy="55" r="55"/>
	<g>
		<g>
			<path style="fill:#F0F1F1;" d="M79,87H31c0-2.209,1.791-4,4-4h40C77.209,83,79,84.791,79,87z"/>
		</g>
		<g>
			<path style="fill:#F0F1F1;" d="M58.445,33C58.789,32.41,59,31.732,59,31c0-2.209-1.791-4-4-4c-2.209,0-4,1.791-4,4
				c0,0.732,0.211,1.41,0.555,2H58.445z"/>
		</g>
		<path style="fill:#3E3E3F;" d="M63,49c0.656-1.312,2.172-2.193,3.138-2.645C66.664,46.109,67,45.581,67,45c0-1.104-0.896-2-2-2h-2
			c0-3.466,1.557-5.646,2.909-8.582c0.143-0.31,0.118-0.671-0.066-0.958S65.341,33,65,33H45c-0.358,0-0.688,0.191-0.867,0.501
			c-0.178,0.31-0.178,0.692,0.002,1.001C45.82,37.396,47,39.567,47,43h-2c-1.104,0-2,0.896-2,2c0,0.581,0.336,1.109,0.862,1.355
			C44.829,46.807,46.344,47.688,47,49c0,28-13,22-13,30c0,3,3,4,3,4h18h18c0,0,3-1,3-4C76,71,63,77,63,49z"/>
		<g>
			<path style="fill:#FFFFFF;" d="M55,83H35c-2.209,0-4,1.791-4,4h24V83z"/>
		</g>
		<path style="fill:#5B5C5F;" d="M45,33c-0.358,0-0.688,0.191-0.867,0.501c-0.178,0.31-0.178,0.692,0.002,1.001
			C45.82,37.396,47,39.567,47,43h-2c-1.104,0-2,0.896-2,2c0,0.581,0.336,1.109,0.862,1.355C44.829,46.807,46.344,47.688,47,49
			c0,28-13,22-13,30c0,3,3,4,3,4h18V43V33H45z"/>
		<g>
			<path style="fill:#FFFFFF;" d="M55,27c-2.209,0-4,1.791-4,4c0,0.732,0.211,1.41,0.555,2H55V27z"/>
		</g>
	</g>
</g>
</svg>
