<?xml version="1.0" encoding="iso-8859-1"?>
<!-- Generator: Adobe Illustrator 17.1.0, SVG Export Plug-In . SVG Version: 6.00 Build 0)  -->
<!DOCTYPE svg PUBLIC "-//W3C//DTD SVG 1.0//EN" "http://www.w3.org/TR/2001/REC-SVG-20010904/DTD/svg10.dtd">
<svg version="1.0" xmlns="http://www.w3.org/2000/svg" xmlns:xlink="http://www.w3.org/1999/xlink" x="0px" y="0px" width="110px"
	 height="110px" viewBox="0 0 110 110" style="enable-background:new 0 0 110 110;" xml:space="preserve">
<g id="Artboard" style="display:none;">
	
		<rect x="-968.5" y="-802.5" style="display:inline;fill:#808080;stroke:#000000;stroke-miterlimit:10;" width="1392" height="1369"/>
</g>
<g id="R-Multicolor">
	<circle style="fill:#FABC3D;" cx="55" cy="55" r="55"/>
	<g>
		<g>
			<path style="fill:#8E6134;" d="M23,56.938c0,12.15,8,22,20,22c0.963,0,20.286,0.062,21,0.062c17.375,0,23-10.799,23-22.062
				c0-12.15-23.327-25.088-41-25.088S23,44.787,23,56.938z"/>
		</g>
		<g>
			<g>
				<path style="fill:#E2E4E5;" d="M79.969,28.181c3.605,0.02,1.398,2.836,2.804,4.259c1.406,1.422,4.247-0.753,4.227,2.852
					c-0.024,4.243-6.376,2.085-9.22,4.898s-5.657-0.032-2.812-2.844C77.812,34.533,75.726,28.157,79.969,28.181z"/>
			</g>
			<g>
				<path style="fill:#FFFFFF;" d="M79.969,28.181c-4.243-0.024-2.157,6.352-5.002,9.164c-1.371,1.356-1.421,2.713-0.793,3.446
					l8.49-8.49C81.506,30.844,83.464,28.2,79.969,28.181z"/>
			</g>
			<g>
				<path style="fill:#A97A45;" d="M44.502,47.78c-7.111,7.031-6.341,16.343-0.128,22.627c6.213,6.284,16.938,5.753,22.627,0.128
					c6.935-6.857,2.94-19.783,11.473-28.22c3.555-3.515-2.069-9.204-5.625-5.689C64.317,45.063,51.613,40.749,44.502,47.78z"/>
			</g>
			<g>
				<path style="fill:#D4A263;" d="M72.85,36.626c-8.533,8.437-21.237,4.123-28.348,11.154c-7.146,7.066-6.333,16.435-0.036,22.72
					l33.757-33.757C76.81,35.394,74.586,34.909,72.85,36.626z"/>
			</g>
		</g>
	</g>
</g>
<g id="Multicolor" style="display:none;">
	<g style="display:inline;">
		<g>
			<path style="fill:#8E6134;" d="M23,56.938c0,12.15,8,22,20,22c0.963,0,20.286,0.062,21,0.062c17.375,0,23-10.799,23-22.062
				c0-12.15-23.327-25.088-41-25.088S23,44.787,23,56.938z"/>
		</g>
		<g>
			<g>
				<path style="fill:#E2E4E5;" d="M79.969,28.181c3.605,0.02,1.398,2.836,2.804,4.259c1.406,1.422,4.247-0.753,4.227,2.852
					c-0.024,4.243-6.376,2.085-9.22,4.898s-5.657-0.032-2.812-2.844C77.812,34.533,75.726,28.157,79.969,28.181z"/>
			</g>
			<g>
				<path style="fill:#FFFFFF;" d="M79.969,28.181c-4.243-0.024-2.157,6.352-5.002,9.164c-1.371,1.356-1.421,2.713-0.793,3.446
					l8.49-8.49C81.506,30.844,83.464,28.2,79.969,28.181z"/>
			</g>
			<g>
				<path style="fill:#A97A45;" d="M44.502,47.78c-7.111,7.031-6.341,16.343-0.128,22.627c6.213,6.284,16.938,5.753,22.627,0.128
					c6.935-6.857,2.94-19.783,11.473-28.22c3.555-3.515-2.069-9.204-5.625-5.689C64.317,45.063,51.613,40.749,44.502,47.78z"/>
			</g>
			<g>
				<path style="fill:#D4A263;" d="M72.85,36.626c-8.533,8.437-21.237,4.123-28.348,11.154c-7.146,7.066-6.333,16.435-0.036,22.72
					l33.757-33.757C76.81,35.394,74.586,34.909,72.85,36.626z"/>
			</g>
		</g>
	</g>
</g>
<g id="Blue" style="display:none;">
	<g style="display:inline;">
		<g>
			<path style="fill:#0081A1;" d="M23,56.938c0,12.15,8,22,20,22c0.963,0,20.285,0.062,21,0.062c17.375,0,23-10.798,23-22.062
				c0-12.15-23.327-25.088-41-25.088S23,44.787,23,56.938z"/>
		</g>
		<g>
			<path style="fill:#BBE7F2;" d="M79.969,28.181c3.605,0.021,1.398,2.836,2.805,4.259c1.406,1.422,4.247-0.753,4.227,2.852
				c-0.024,4.243-6.376,2.085-9.221,4.898c-2.844,2.812-5.656-0.032-2.812-2.845C77.812,34.533,75.727,28.157,79.969,28.181z"/>
		</g>
		<g>
			<path style="fill:#FFFFFF;" d="M79.969,28.181c-4.242-0.024-2.157,6.352-5.002,9.164c-1.371,1.356-1.42,2.713-0.792,3.446
				l8.489-8.489C81.506,30.844,83.464,28.201,79.969,28.181z"/>
		</g>
		<g>
			<path style="fill:#009FC7;" d="M44.502,47.78c-7.11,7.031-6.341,16.343-0.128,22.627c6.214,6.284,16.938,5.753,22.628,0.128
				c6.934-6.856,2.939-19.783,11.473-28.22c3.556-3.516-2.069-9.204-5.625-5.689C64.316,45.063,51.613,40.749,44.502,47.78z"/>
		</g>
		<g>
			<path style="fill:#00B7E5;" d="M72.85,36.626c-8.533,8.437-21.236,4.123-28.348,11.154c-7.146,7.065-6.333,16.435-0.035,22.719
				l33.756-33.757C76.811,35.394,74.586,34.909,72.85,36.626z"/>
		</g>
	</g>
</g>
<g id="R-Blue" style="display:none;">
	<circle style="display:inline;fill:#81D2EB;" cx="55" cy="55" r="55"/>
	<g style="display:inline;">
		<g>
			<path style="fill:#0081A1;" d="M23,56.937c0,12.15,8,22,20,22c0.963,0,20.285,0.062,21,0.062c17.375,0,23-10.798,23-22.063
				c0-12.15-23.327-25.088-41-25.088S23,44.787,23,56.937z"/>
		</g>
		<g>
			<path style="fill:#BBE7F2;" d="M79.969,28.181c3.605,0.021,1.398,2.836,2.805,4.259c1.406,1.422,4.247-0.753,4.227,2.852
				c-0.024,4.243-6.376,2.085-9.221,4.898c-2.844,2.812-5.656-0.032-2.812-2.845C77.812,34.533,75.727,28.157,79.969,28.181z"/>
		</g>
		<g>
			<path style="fill:#FFFFFF;" d="M79.969,28.181c-4.242-0.024-2.157,6.352-5.002,9.164c-1.371,1.356-1.42,2.713-0.792,3.446
				l8.489-8.489C81.506,30.844,83.464,28.201,79.969,28.181z"/>
		</g>
		<g>
			<path style="fill:#009FC7;" d="M44.502,47.78c-7.11,7.031-6.341,16.343-0.128,22.627c6.214,6.284,16.938,5.753,22.628,0.128
				c6.934-6.857,2.939-19.783,11.473-28.22c3.556-3.516-2.069-9.204-5.625-5.689C64.316,45.063,51.613,40.748,44.502,47.78z"/>
		</g>
		<g>
			<path style="fill:#00B7E5;" d="M72.85,36.626c-8.533,8.437-21.236,4.123-28.348,11.154c-7.146,7.065-6.333,16.435-0.035,22.719
				l33.756-33.757C76.811,35.394,74.586,34.909,72.85,36.626z"/>
		</g>
	</g>
</g>
<g id="Green" style="display:none;">
	<g style="display:inline;">
		<g>
			<path style="fill:#009687;" d="M23,56.938c0,12.15,8,22,20,22c0.963,0,20.285,0.062,21,0.062c17.375,0,23-10.798,23-22.062
				c0-12.15-23.327-25.088-41-25.088S23,44.787,23,56.938z"/>
		</g>
		<g>
			<path style="fill:#AAF0E9;" d="M79.969,28.181c3.605,0.021,1.398,2.836,2.805,4.259c1.406,1.422,4.247-0.753,4.227,2.852
				c-0.024,4.243-6.376,2.085-9.221,4.898c-2.844,2.812-5.656-0.032-2.812-2.845C77.812,34.533,75.727,28.157,79.969,28.181z"/>
		</g>
		<g>
			<path style="fill:#FFFFFF;" d="M79.969,28.181c-4.242-0.024-2.157,6.352-5.002,9.164c-1.371,1.356-1.42,2.713-0.792,3.446
				l8.489-8.489C81.506,30.844,83.464,28.201,79.969,28.181z"/>
		</g>
		<g>
			<path style="fill:#00B8A5;" d="M44.502,47.78c-7.11,7.031-6.341,16.343-0.128,22.627c6.214,6.284,16.938,5.753,22.628,0.128
				c6.933-6.856,2.939-19.783,11.473-28.22c3.556-3.516-2.069-9.204-5.625-5.689C64.316,45.063,51.613,40.749,44.502,47.78z"/>
		</g>
		<g>
			<path style="fill:#00D6C1;" d="M72.85,36.626c-8.533,8.437-21.236,4.123-28.348,11.154c-7.146,7.065-6.333,16.435-0.035,22.719
				l33.756-33.757C76.81,35.394,74.586,34.909,72.85,36.626z"/>
		</g>
	</g>
</g>
<g id="R-Green" style="display:none;">
	<circle style="display:inline;fill:#77E0C4;" cx="55" cy="55" r="55"/>
	<g style="display:inline;">
		<g>
			<path style="fill:#009687;" d="M23,56.938c0,12.15,8,22,20,22c0.963,0,20.285,0.062,21,0.062c17.375,0,23-10.798,23-22.062
				c0-12.15-23.327-25.088-41-25.088S23,44.787,23,56.938z"/>
		</g>
		<g>
			<path style="fill:#AAF0E9;" d="M79.969,28.181c3.606,0.021,1.399,2.836,2.805,4.259c1.406,1.422,4.247-0.753,4.227,2.852
				c-0.024,4.243-6.376,2.085-9.221,4.898c-2.844,2.812-5.656-0.032-2.812-2.845C77.812,34.533,75.727,28.157,79.969,28.181z"/>
		</g>
		<g>
			<path style="fill:#FFFFFF;" d="M79.969,28.181c-4.242-0.024-2.157,6.352-5.002,9.164c-1.371,1.356-1.42,2.713-0.792,3.446
				l8.489-8.489C81.506,30.844,83.464,28.201,79.969,28.181z"/>
		</g>
		<g>
			<path style="fill:#00B8A5;" d="M44.502,47.78c-7.11,7.031-6.341,16.343-0.128,22.627c6.214,6.284,16.938,5.753,22.628,0.128
				c6.934-6.856,2.939-19.783,11.473-28.22c3.556-3.516-2.069-9.204-5.625-5.689C64.316,45.063,51.613,40.749,44.502,47.78z"/>
		</g>
		<g>
			<path style="fill:#00D6C1;" d="M72.85,36.626c-8.533,8.437-21.236,4.123-28.348,11.154c-7.146,7.065-6.333,16.435-0.035,22.719
				l33.756-33.757C76.811,35.394,74.586,34.909,72.85,36.626z"/>
		</g>
	</g>
</g>
<g id="Red" style="display:none;">
	<g style="display:inline;">
		<g>
			<path style="fill:#C23023;" d="M23,56.938c0,12.15,8,22,20,22c0.963,0,20.285,0.062,21,0.062c17.375,0,23-10.798,23-22.062
				c0-12.15-23.327-25.088-41-25.088C28.327,31.85,23,44.787,23,56.938z"/>
		</g>
		<g>
			<path style="fill:#FFD7D4;" d="M79.969,28.181c3.606,0.021,1.399,2.836,2.805,4.259c1.406,1.422,4.247-0.753,4.227,2.852
				c-0.024,4.243-6.376,2.085-9.221,4.898c-2.844,2.812-5.656-0.032-2.812-2.845C77.811,34.533,75.727,28.157,79.969,28.181z"/>
		</g>
		<g>
			<path style="fill:#FFFFFF;" d="M79.969,28.181c-4.242-0.024-2.157,6.352-5.002,9.164c-1.371,1.356-1.42,2.713-0.792,3.446
				l8.489-8.489C81.506,30.844,83.464,28.201,79.969,28.181z"/>
		</g>
		<g>
			<path style="fill:#E54B44;" d="M44.502,47.78c-7.11,7.031-6.341,16.343-0.128,22.627c6.214,6.284,16.938,5.753,22.628,0.128
				c6.933-6.856,2.939-19.783,11.473-28.22c3.556-3.516-2.069-9.204-5.625-5.689C64.316,45.063,51.613,40.749,44.502,47.78z"/>
		</g>
		<g>
			<path style="fill:#FF6C5E;" d="M72.85,36.626c-8.533,8.437-21.236,4.123-28.348,11.154c-7.146,7.065-6.333,16.435-0.035,22.719
				l33.756-33.757C76.81,35.394,74.586,34.909,72.85,36.626z"/>
		</g>
	</g>
</g>
<g id="R-Red" style="display:none;">
	<circle style="display:inline;fill:#FABBAF;" cx="55" cy="55" r="55"/>
	<g style="display:inline;">
		<g>
			<path style="fill:#C23023;" d="M23,56.938c0,12.15,8,22,20,22c0.963,0,20.285,0.062,21,0.062c17.375,0,23-10.798,23-22.062
				c0-12.15-23.327-25.088-41-25.088C28.327,31.85,23,44.787,23,56.938z"/>
		</g>
		<g>
			<path style="fill:#FFD7D4;" d="M79.969,28.181c3.606,0.021,1.399,2.836,2.805,4.259c1.406,1.422,4.247-0.753,4.227,2.852
				c-0.024,4.243-6.376,2.085-9.221,4.898c-2.844,2.812-5.656-0.032-2.812-2.845C77.811,34.533,75.727,28.157,79.969,28.181z"/>
		</g>
		<g>
			<path style="fill:#FFFFFF;" d="M79.969,28.181c-4.242-0.024-2.157,6.352-5.002,9.164c-1.371,1.356-1.42,2.713-0.792,3.446
				l8.489-8.489C81.506,30.844,83.464,28.201,79.969,28.181z"/>
		</g>
		<g>
			<path style="fill:#E54B44;" d="M44.502,47.78c-7.11,7.031-6.341,16.343-0.128,22.627c6.214,6.284,16.938,5.753,22.628,0.128
				c6.933-6.856,2.939-19.783,11.473-28.22c3.556-3.516-2.069-9.204-5.625-5.689C64.316,45.063,51.613,40.749,44.502,47.78z"/>
		</g>
		<g>
			<path style="fill:#FF6C5E;" d="M72.85,36.626c-8.533,8.437-21.236,4.123-28.348,11.154c-7.146,7.065-6.333,16.435-0.035,22.719
				l33.756-33.757C76.81,35.394,74.586,34.909,72.85,36.626z"/>
		</g>
	</g>
</g>
<g id="Yellow" style="display:none;">
	<g style="display:inline;">
		<g>
			<path style="fill:#E07000;" d="M23,56.938c0,12.15,8,22,20,22c0.963,0,20.285,0.062,21,0.062c17.375,0,23-10.798,23-22.062
				c0-12.15-23.327-25.088-41-25.088S23,44.787,23,56.938z"/>
		</g>
		<g>
			<path style="fill:#FFE9A1;" d="M79.969,28.181c3.606,0.021,1.399,2.836,2.805,4.259c1.406,1.422,4.247-0.753,4.227,2.852
				c-0.024,4.243-6.376,2.085-9.221,4.898c-2.844,2.812-5.656-0.032-2.812-2.845C77.812,34.533,75.727,28.157,79.969,28.181z"/>
		</g>
		<g>
			<path style="fill:#FFFFFF;" d="M79.969,28.181c-4.242-0.024-2.157,6.352-5.002,9.164c-1.371,1.356-1.42,2.713-0.792,3.446
				l8.489-8.489C81.506,30.844,83.464,28.201,79.969,28.181z"/>
		</g>
		<g>
			<path style="fill:#FA9200;" d="M44.502,47.78c-7.11,7.031-6.341,16.343-0.128,22.627c6.214,6.284,16.938,5.753,22.628,0.128
				c6.934-6.856,2.939-19.783,11.473-28.22c3.556-3.516-2.069-9.204-5.625-5.689C64.316,45.063,51.613,40.749,44.502,47.78z"/>
		</g>
		<g>
			<path style="fill:#FFAA00;" d="M72.85,36.626c-8.533,8.437-21.236,4.123-28.348,11.154c-7.146,7.065-6.333,16.435-0.035,22.719
				l33.756-33.757C76.811,35.394,74.586,34.909,72.85,36.626z"/>
		</g>
	</g>
</g>
<g id="R-Yellow" style="display:none;">
	<circle style="display:inline;fill:#FFD75E;" cx="55" cy="55" r="55"/>
	<g style="display:inline;">
		<g>
			<path style="fill:#E07000;" d="M23,56.938c0,12.15,8,22,20,22c0.963,0,20.285,0.062,21,0.062c17.375,0,23-10.798,23-22.062
				c0-12.15-23.327-25.088-41-25.088S23,44.787,23,56.938z"/>
		</g>
		<g>
			<path style="fill:#FFE9A1;" d="M79.969,28.181c3.605,0.021,1.398,2.836,2.805,4.259c1.406,1.422,4.247-0.753,4.227,2.852
				c-0.024,4.243-6.376,2.085-9.221,4.898c-2.844,2.812-5.656-0.032-2.812-2.845C77.812,34.533,75.727,28.157,79.969,28.181z"/>
		</g>
		<g>
			<path style="fill:#FFFFFF;" d="M79.969,28.181c-4.242-0.024-2.157,6.352-5.002,9.164c-1.371,1.356-1.42,2.713-0.792,3.446
				l8.489-8.489C81.506,30.844,83.464,28.201,79.969,28.181z"/>
		</g>
		<g>
			<path style="fill:#FA9200;" d="M44.502,47.78c-7.11,7.031-6.341,16.343-0.128,22.627c6.214,6.284,16.938,5.753,22.628,0.128
				c6.933-6.856,2.939-19.783,11.473-28.22c3.556-3.516-2.069-9.204-5.625-5.689C64.316,45.063,51.613,40.749,44.502,47.78z"/>
		</g>
		<g>
			<path style="fill:#FFAA00;" d="M72.85,36.626c-8.533,8.437-21.236,4.123-28.348,11.154c-7.146,7.065-6.333,16.435-0.035,22.719
				l33.756-33.757C76.81,35.394,74.586,34.909,72.85,36.626z"/>
		</g>
	</g>
</g>
</svg>
