<?xml version="1.0" encoding="iso-8859-1"?>
<!-- Generator: Adobe Illustrator 17.1.0, SVG Export Plug-In . SVG Version: 6.00 Build 0)  -->
<!DOCTYPE svg PUBLIC "-//W3C//DTD SVG 1.0//EN" "http://www.w3.org/TR/2001/REC-SVG-20010904/DTD/svg10.dtd">
<svg version="1.0" xmlns="http://www.w3.org/2000/svg" xmlns:xlink="http://www.w3.org/1999/xlink" x="0px" y="0px" width="110px"
	 height="110px" viewBox="0 0 110 110" style="enable-background:new 0 0 110 110;" xml:space="preserve">
<g id="Artboard" style="display:none;">
	
		<rect x="-1224.5" y="-802.5" style="display:inline;fill:#808080;stroke:#000000;stroke-miterlimit:10;" width="1392" height="1369"/>
</g>
<g id="R-Multicolor">
	<circle style="fill:#FABC3D;" cx="55" cy="55" r="55"/>
	<g>
		<g>
			<path style="fill:#FCF1E2;" d="M48.014,68.072C46.986,66.912,46.878,64.878,46,64c-0.763-0.763-2.396-0.945-3.573-1.654
				l-9.709,9.312c-2.151-2.596-5.818-2.595-8.024-0.479c-2.192,2.103-2.265,5.584-0.162,7.777c1.251,1.304,2.99,1.84,4.655,1.632
				c-0.278,1.655,0.185,3.415,1.436,4.719c2.103,2.192,5.584,2.265,7.777,0.162c2.201-2.112,2.366-5.776-0.144-8.037L48.014,68.072z
				"/>
		</g>
		<g>
			<path style="fill:#9C6144;" d="M87,43c0,18-18.012,14.58-27,21c-14,10-12,2-14,0s-10,0,0-14c6.42-8.988,3-27,21-27
				C78.046,23,87,31.954,87,43z"/>
		</g>
		<g>
			<path style="fill:#FFFFFF;" d="M32.717,71.658c-2.151-2.596-5.818-2.595-8.024-0.479c-2.192,2.103-2.265,5.584-0.162,7.777
				c1.251,1.304,2.99,1.84,4.655,1.632c-0.003,0.016-0.003,0.033-0.005,0.049l16.718-16.719c-0.796-0.691-2.341-0.891-3.472-1.572
				L32.717,71.658z"/>
		</g>
		<g>
			<path style="fill:#AF7653;" d="M67,23c-18,0-14.58,18.012-21,27c-9.85,13.79-2.24,12.059-0.098,13.915l35.145-35.145
				C77.435,25.205,72.476,23,67,23z"/>
		</g>
	</g>
</g>
<g id="Multicolor" style="display:none;">
	<g style="display:inline;">
		<g>
			<path style="fill:#FCF1E2;" d="M48.014,68.072C46.986,66.912,46.878,64.878,46,64c-0.763-0.763-2.396-0.945-3.573-1.654
				l-9.709,9.312c-2.151-2.596-5.818-2.595-8.024-0.479c-2.192,2.103-2.265,5.584-0.162,7.777c1.251,1.304,2.99,1.84,4.655,1.632
				c-0.278,1.655,0.185,3.415,1.436,4.719c2.103,2.192,5.584,2.265,7.777,0.162c2.201-2.112,2.366-5.776-0.144-8.037L48.014,68.072z
				"/>
		</g>
		<g>
			<path style="fill:#9C6144;" d="M87,43c0,18-18.012,14.58-27,21c-14,10-12,2-14,0s-10,0,0-14c6.42-8.988,3-27,21-27
				C78.046,23,87,31.954,87,43z"/>
		</g>
		<g>
			<path style="fill:#FFFFFF;" d="M32.717,71.658c-2.151-2.596-5.818-2.595-8.024-0.479c-2.192,2.103-2.265,5.584-0.162,7.777
				c1.251,1.304,2.99,1.84,4.655,1.632c-0.003,0.016-0.003,0.033-0.005,0.049l16.718-16.719c-0.796-0.691-2.341-0.891-3.472-1.572
				L32.717,71.658z"/>
		</g>
		<g>
			<path style="fill:#AF7653;" d="M67,23c-18,0-14.58,18.012-21,27c-9.85,13.79-2.24,12.059-0.098,13.915l35.145-35.145
				C77.435,25.205,72.476,23,67,23z"/>
		</g>
	</g>
</g>
<g id="Blue" style="display:none;">
	<g style="display:inline;">
		<g>
			<path style="fill:#E1F5FA;" d="M48.014,68.072C46.986,66.912,46.878,64.878,46,64c-0.763-0.763-2.396-0.945-3.573-1.654
				l-9.71,9.312c-2.15-2.596-5.817-2.595-8.023-0.479c-2.192,2.102-2.266,5.584-0.163,7.776c1.251,1.305,2.989,1.84,4.655,1.632
				c-0.277,1.655,0.186,3.415,1.437,4.719c2.103,2.192,5.584,2.265,7.776,0.163c2.201-2.112,2.365-5.776-0.143-8.038L48.014,68.072z
				"/>
		</g>
		<g>
			<path style="fill:#0081A1;" d="M87,43c0,18-18.012,14.58-27,21c-14,10-12,2-14,0s-10,0,0-14c6.42-8.988,3-27,21-27
				C78.046,23,87,31.955,87,43z"/>
		</g>
		<g>
			<path style="fill:#FFFFFF;" d="M32.717,71.659c-2.15-2.596-5.817-2.595-8.023-0.479c-2.192,2.102-2.266,5.584-0.163,7.776
				c1.251,1.305,2.989,1.84,4.655,1.632c-0.002,0.016-0.003,0.033-0.005,0.049l16.718-16.718c-0.796-0.691-2.341-0.891-3.472-1.572
				L32.717,71.659z"/>
		</g>
		<g>
			<path style="fill:#009FC7;" d="M67,23c-18,0-14.58,18.012-21,27c-9.85,13.79-2.24,12.059-0.098,13.916l35.145-35.145
				C77.435,25.205,72.477,23,67,23z"/>
		</g>
	</g>
</g>
<g id="R-Blue" style="display:none;">
	<circle style="display:inline;fill:#81D2EB;" cx="55" cy="55" r="55"/>
	<g style="display:inline;">
		<g>
			<path style="fill:#E1F5FA;" d="M48.014,68.072C46.986,66.912,46.878,64.878,46,64c-0.763-0.763-2.396-0.945-3.573-1.654
				l-9.71,9.313c-2.15-2.596-5.817-2.595-8.023-0.479c-2.192,2.102-2.266,5.584-0.163,7.776c1.251,1.305,2.989,1.84,4.655,1.632
				c-0.277,1.655,0.186,3.414,1.437,4.719c2.103,2.192,5.584,2.265,7.776,0.163c2.201-2.112,2.365-5.776-0.143-8.038L48.014,68.072z
				"/>
		</g>
		<g>
			<path style="fill:#0081A1;" d="M87,43c0,18-18.012,14.58-27,21c-14,10-12,2-14,0c-2-2-10,0,0-14c6.42-8.988,3-27,21-27
				C78.046,23,87,31.955,87,43z"/>
		</g>
		<g>
			<path style="fill:#FFFFFF;" d="M32.717,71.659c-2.15-2.596-5.817-2.595-8.023-0.479c-2.192,2.102-2.266,5.584-0.163,7.776
				c1.251,1.305,2.989,1.84,4.655,1.632c-0.002,0.016-0.003,0.033-0.005,0.049l16.718-16.718c-0.796-0.691-2.341-0.891-3.472-1.572
				L32.717,71.659z"/>
		</g>
		<g>
			<path style="fill:#009FC7;" d="M67,23c-18,0-14.58,18.012-21,27c-9.85,13.79-2.24,12.059-0.098,13.916l35.145-35.145
				C77.435,25.205,72.477,23,67,23z"/>
		</g>
	</g>
</g>
<g id="Green" style="display:none;">
	<g style="display:inline;">
		<g>
			<path style="fill:#D7FCF9;" d="M48.014,68.072C46.986,66.912,46.878,64.878,46,64c-0.763-0.763-2.396-0.945-3.573-1.654
				l-9.71,9.312c-2.15-2.596-5.817-2.595-8.023-0.479c-2.192,2.102-2.266,5.584-0.163,7.776c1.251,1.305,2.989,1.84,4.655,1.632
				c-0.277,1.655,0.186,3.415,1.437,4.719c2.103,2.192,5.584,2.265,7.776,0.163c2.201-2.112,2.365-5.776-0.143-8.038L48.014,68.072z
				"/>
		</g>
		<g>
			<path style="fill:#009687;" d="M87,43c0,18-18.012,14.58-27,21c-14,10-12,2-14,0s-10,0,0-14c6.42-8.988,3-27,21-27
				C78.046,23,87,31.955,87,43z"/>
		</g>
		<g>
			<path style="fill:#FFFFFF;" d="M32.717,71.659c-2.15-2.596-5.817-2.595-8.023-0.479c-2.192,2.102-2.266,5.584-0.163,7.776
				c1.251,1.305,2.989,1.84,4.655,1.632c-0.002,0.016-0.003,0.033-0.005,0.049l16.718-16.718c-0.796-0.691-2.341-0.891-3.472-1.572
				L32.717,71.659z"/>
		</g>
		<g>
			<path style="fill:#00B8A5;" d="M67,23c-18,0-14.58,18.012-21,27c-9.85,13.79-2.24,12.059-0.098,13.916l35.145-35.145
				C77.435,25.205,72.477,23,67,23z"/>
		</g>
	</g>
</g>
<g id="R-Green" style="display:none;">
	<circle style="display:inline;fill:#77E0C4;" cx="55" cy="55" r="55"/>
	<g style="display:inline;">
		<g>
			<path style="fill:#D7FCF9;" d="M48.014,68.072C46.986,66.912,46.878,64.878,46,64c-0.763-0.763-2.396-0.945-3.573-1.654
				l-9.71,9.312c-2.15-2.596-5.817-2.595-8.023-0.479c-2.192,2.102-2.266,5.584-0.163,7.776c1.251,1.305,2.989,1.84,4.655,1.632
				c-0.277,1.655,0.186,3.415,1.437,4.719c2.103,2.192,5.584,2.265,7.776,0.163c2.201-2.112,2.365-5.776-0.144-8.038L48.014,68.072z
				"/>
		</g>
		<g>
			<path style="fill:#009687;" d="M87,43c0,18-18.012,14.58-27,21c-14,10-12,2-14,0s-10,0,0-14c6.42-8.988,3-27,21-27
				C78.046,23,87,31.955,87,43z"/>
		</g>
		<g>
			<path style="fill:#FFFFFF;" d="M32.717,71.659c-2.15-2.596-5.817-2.595-8.023-0.479c-2.192,2.102-2.266,5.584-0.163,7.776
				c1.251,1.305,2.989,1.84,4.655,1.632c-0.002,0.016-0.003,0.033-0.005,0.049l16.718-16.718c-0.796-0.691-2.341-0.891-3.472-1.572
				L32.717,71.659z"/>
		</g>
		<g>
			<path style="fill:#00B8A5;" d="M67,23c-18,0-14.58,18.012-21,27c-9.85,13.79-2.24,12.059-0.098,13.916l35.145-35.145
				C77.435,25.205,72.477,23,67,23z"/>
		</g>
	</g>
</g>
<g id="Red" style="display:none;">
	<g style="display:inline;">
		<g>
			<path style="fill:#FFEFED;" d="M48.014,68.072C46.986,66.912,46.878,64.878,46,64c-0.763-0.763-2.396-0.945-3.573-1.654
				l-9.71,9.312c-2.15-2.596-5.817-2.595-8.023-0.479c-2.192,2.102-2.266,5.584-0.163,7.776c1.251,1.305,2.989,1.84,4.655,1.632
				c-0.277,1.655,0.186,3.415,1.437,4.719c2.103,2.192,5.584,2.265,7.776,0.163c2.201-2.112,2.365-5.776-0.143-8.038L48.014,68.072z
				"/>
		</g>
		<g>
			<path style="fill:#C23023;" d="M87,43c0,18-18.012,14.58-27,21c-14,10-12,2-14,0s-10,0,0-14c6.42-8.988,3-27,21-27
				C78.046,23,87,31.955,87,43z"/>
		</g>
		<g>
			<path style="fill:#FFFFFF;" d="M32.717,71.659c-2.15-2.596-5.817-2.595-8.023-0.479c-2.192,2.102-2.266,5.584-0.163,7.776
				c1.251,1.305,2.989,1.84,4.655,1.632c-0.002,0.016-0.003,0.033-0.005,0.049l16.718-16.718c-0.796-0.691-2.341-0.891-3.472-1.572
				L32.717,71.659z"/>
		</g>
		<g>
			<path style="fill:#E54B44;" d="M67,23c-18,0-14.58,18.012-21,27c-9.85,13.79-2.24,12.059-0.098,13.916l35.145-35.145
				C77.435,25.205,72.477,23,67,23z"/>
		</g>
	</g>
</g>
<g id="R-Red" style="display:none;">
	<circle style="display:inline;fill:#FABBAF;" cx="55" cy="55" r="55"/>
	<g style="display:inline;">
		<g>
			<path style="fill:#FFEFED;" d="M48.014,68.072C46.986,66.912,46.878,64.878,46,64c-0.763-0.763-2.396-0.945-3.573-1.654
				l-9.71,9.312c-2.15-2.596-5.817-2.595-8.023-0.479c-2.192,2.102-2.266,5.584-0.163,7.776c1.251,1.305,2.989,1.84,4.655,1.632
				c-0.277,1.655,0.186,3.415,1.437,4.719c2.103,2.192,5.584,2.265,7.776,0.163c2.201-2.112,2.365-5.776-0.143-8.038L48.014,68.072z
				"/>
		</g>
		<g>
			<path style="fill:#C23023;" d="M87,43c0,18-18.012,14.58-27,21c-14,10-12,2-14,0s-10,0,0-14c6.42-8.988,3-27,21-27
				C78.046,23,87,31.955,87,43z"/>
		</g>
		<g>
			<path style="fill:#FFFFFF;" d="M32.717,71.659c-2.15-2.596-5.817-2.595-8.023-0.479c-2.192,2.102-2.266,5.584-0.163,7.776
				c1.251,1.305,2.989,1.84,4.655,1.632c-0.002,0.016-0.003,0.033-0.005,0.049l16.718-16.718c-0.796-0.691-2.341-0.891-3.472-1.572
				L32.717,71.659z"/>
		</g>
		<g>
			<path style="fill:#E54B44;" d="M67,23c-18,0-14.58,18.012-21,27c-9.85,13.79-2.24,12.059-0.098,13.916l35.145-35.145
				C77.435,25.205,72.477,23,67,23z"/>
		</g>
	</g>
</g>
<g id="Yellow" style="display:none;">
	<g style="display:inline;">
		<g>
			<path style="fill:#FFF5D9;" d="M48.014,68.072C46.986,66.912,46.878,64.878,46,64c-0.763-0.763-2.396-0.945-3.573-1.654
				l-9.71,9.312c-2.15-2.596-5.817-2.595-8.023-0.479c-2.192,2.102-2.266,5.584-0.163,7.776c1.251,1.305,2.989,1.84,4.655,1.632
				c-0.277,1.655,0.186,3.415,1.437,4.719c2.103,2.192,5.584,2.265,7.776,0.163c2.201-2.112,2.365-5.776-0.144-8.038L48.014,68.072z
				"/>
		</g>
		<g>
			<path style="fill:#E07000;" d="M87,43c0,18-18.012,14.58-27,21c-14,10-12,2-14,0s-10,0,0-14c6.42-8.988,3-27,21-27
				C78.046,23,87,31.955,87,43z"/>
		</g>
		<g>
			<path style="fill:#FFFFFF;" d="M32.717,71.659c-2.15-2.596-5.817-2.595-8.023-0.479c-2.192,2.102-2.266,5.584-0.163,7.776
				c1.251,1.305,2.989,1.84,4.655,1.632c-0.002,0.016-0.003,0.033-0.005,0.049l16.718-16.718c-0.796-0.691-2.341-0.891-3.472-1.572
				L32.717,71.659z"/>
		</g>
		<g>
			<path style="fill:#FA9200;" d="M67,23c-18,0-14.58,18.012-21,27c-9.85,13.79-2.24,12.059-0.098,13.916l35.145-35.145
				C77.435,25.205,72.477,23,67,23z"/>
		</g>
	</g>
</g>
<g id="R-Yellow" style="display:none;">
	<circle style="display:inline;fill:#FFD75E;" cx="55" cy="55" r="55"/>
	<g style="display:inline;">
		<g>
			<path style="fill:#FFF5D9;" d="M48.014,68.072C46.986,66.912,46.878,64.878,46,64c-0.763-0.763-2.396-0.945-3.573-1.654
				l-9.71,9.312c-2.15-2.596-5.817-2.595-8.023-0.479c-2.192,2.102-2.266,5.584-0.163,7.776c1.251,1.305,2.989,1.84,4.655,1.632
				c-0.277,1.655,0.186,3.415,1.437,4.719c2.103,2.192,5.584,2.265,7.776,0.163c2.201-2.112,2.365-5.776-0.143-8.038L48.014,68.072z
				"/>
		</g>
		<g>
			<path style="fill:#E07000;" d="M87,43c0,18-18.012,14.58-27,21c-14,10-12,2-14,0s-10,0,0-14c6.42-8.988,3-27,21-27
				C78.046,23,87,31.955,87,43z"/>
		</g>
		<g>
			<path style="fill:#FFFFFF;" d="M32.717,71.659c-2.15-2.596-5.817-2.595-8.023-0.479c-2.192,2.102-2.266,5.584-0.163,7.776
				c1.251,1.305,2.989,1.84,4.655,1.632c-0.002,0.016-0.003,0.033-0.005,0.049l16.718-16.718c-0.796-0.691-2.341-0.891-3.472-1.572
				L32.717,71.659z"/>
		</g>
		<g>
			<path style="fill:#FA9200;" d="M67,23c-18,0-14.58,18.012-21,27c-9.85,13.79-2.24,12.059-0.098,13.916l35.145-35.145
				C77.435,25.205,72.477,23,67,23z"/>
		</g>
	</g>
</g>
</svg>
