<?xml version="1.0" encoding="iso-8859-1"?>
<!-- Generator: Adobe Illustrator 17.1.0, SVG Export Plug-In . SVG Version: 6.00 Build 0)  -->
<!DOCTYPE svg PUBLIC "-//W3C//DTD SVG 1.0//EN" "http://www.w3.org/TR/2001/REC-SVG-20010904/DTD/svg10.dtd">
<svg version="1.0" xmlns="http://www.w3.org/2000/svg" xmlns:xlink="http://www.w3.org/1999/xlink" x="0px" y="0px" width="110px"
	 height="110px" viewBox="0 0 110 110" style="enable-background:new 0 0 110 110;" xml:space="preserve">
<g id="Artboard" style="display:none;">
	
		<rect x="-712.5" y="-674.5" style="display:inline;fill:#808080;stroke:#000000;stroke-miterlimit:10;" width="1392" height="1369"/>
</g>
<g id="R-Multicolor">
	<circle style="fill:#FABC3D;" cx="55" cy="55" r="55"/>
	<g>
		<g>
			<path style="fill:#DF2C2C;" d="M73.828,54.093c-0.383-0.106-0.671-0.426-0.726-0.822c-1.076-7.746-6.144-9.914-13.513-8.865
				c-0.394,0.056-0.784-0.127-0.992-0.466c-0.004-0.007-0.006-0.016-0.01-0.023C49.746,49.022,43.384,64.56,38.375,71
				c-5.75,7.393-11.5,7.364-14.479,7.672c-0.359,0.037-0.669,0.265-0.813,0.595c-0.144,0.33-0.099,0.713,0.118,1
				C24.899,82.524,30.399,87,39.375,87C52.125,87,71.063,67.312,73.828,54.093z"/>
		</g>
		<g>
			<path style="fill:#099686;" d="M85.957,24.599c-0.87-1.521-2.791-2.021-4.328-1.181c-6.177,3.374-11.226,10.692-13.225,14.614
				c-3.329-0.438-7.023,0.858-9.776,4.813c-0.227,0.327-0.239,0.757-0.031,1.096s0.598,0.521,0.992,0.465
				c7.37-1.049,12.438,1.119,13.513,8.865c0.057,0.408,0.357,0.739,0.758,0.835c0.4,0.096,0.819-0.063,1.054-0.401
				c3.581-5.145,1.999-10.888-1.949-13.815c2.419-3.36,7.404-8.445,11.811-10.963C86.298,28.057,86.827,26.12,85.957,24.599z"/>
		</g>
		<g>
			<path style="fill:#12B2A0;" d="M72.965,39.89c2.419-3.36,7.404-8.445,11.811-10.963c1.521-0.87,2.05-2.807,1.181-4.328
				c-0.87-1.521-2.791-2.021-4.328-1.181c-6.177,3.374-11.226,10.692-13.225,14.614c-3.329-0.438-7.023,0.858-9.776,4.813
				c-0.227,0.327-0.239,0.757-0.031,1.096s0.598,0.521,0.992,0.465c4.405-0.627,7.977-0.091,10.377,2.083l4.827-4.827
				C74.264,41,73.653,40.4,72.965,39.89z"/>
		</g>
		<g>
			<path style="fill:#FA5655;" d="M59.589,44.406c-0.394,0.056-0.784-0.126-0.992-0.465c-0.004-0.007-0.006-0.016-0.01-0.023
				C49.746,49.022,43.384,64.56,38.375,71c-5.75,7.393-11.5,7.363-14.479,7.671c-0.359,0.037-0.669,0.265-0.813,0.596
				c-0.144,0.33-0.099,0.712,0.118,1c1.076,1.429,3.684,3.748,7.73,5.256L69.966,46.49C67.567,44.314,63.994,43.779,59.589,44.406z"
				/>
		</g>
	</g>
</g>
<g id="Multicolor" style="display:none;">
	<g style="display:inline;">
		<g>
			<path style="fill:#DF2C2C;" d="M73.828,54.093c-0.383-0.106-0.671-0.426-0.726-0.822c-1.076-7.746-6.144-9.914-13.513-8.865
				c-0.394,0.056-0.784-0.127-0.992-0.466c-0.004-0.007-0.006-0.016-0.01-0.023C49.746,49.022,43.384,64.56,38.375,71
				c-5.75,7.393-11.5,7.364-14.479,7.672c-0.359,0.037-0.669,0.265-0.813,0.595c-0.144,0.33-0.099,0.713,0.118,1
				C24.899,82.524,30.399,87,39.375,87C52.125,87,71.063,67.312,73.828,54.093z"/>
		</g>
		<g>
			<path style="fill:#099686;" d="M85.957,24.599c-0.87-1.521-2.791-2.021-4.328-1.181c-6.177,3.374-11.226,10.692-13.225,14.614
				c-3.329-0.438-7.023,0.858-9.776,4.813c-0.227,0.327-0.239,0.757-0.031,1.096s0.598,0.521,0.992,0.465
				c7.37-1.049,12.438,1.119,13.513,8.865c0.057,0.408,0.357,0.739,0.758,0.835c0.4,0.096,0.819-0.063,1.054-0.401
				c3.581-5.145,1.999-10.888-1.949-13.815c2.419-3.36,7.404-8.445,11.811-10.963C86.298,28.057,86.827,26.12,85.957,24.599z"/>
		</g>
		<g>
			<path style="fill:#12B2A0;" d="M72.965,39.89c2.419-3.36,7.404-8.445,11.811-10.963c1.521-0.87,2.05-2.807,1.181-4.328
				c-0.87-1.521-2.791-2.021-4.328-1.181c-6.177,3.374-11.226,10.692-13.225,14.614c-3.329-0.438-7.023,0.858-9.776,4.813
				c-0.227,0.327-0.239,0.757-0.031,1.096s0.598,0.521,0.992,0.465c4.405-0.627,7.977-0.091,10.377,2.083l4.827-4.827
				C74.264,41,73.653,40.4,72.965,39.89z"/>
		</g>
		<g>
			<path style="fill:#FA5655;" d="M59.589,44.406c-0.394,0.056-0.784-0.126-0.992-0.465c-0.004-0.007-0.006-0.016-0.01-0.023
				C49.746,49.022,43.384,64.56,38.375,71c-5.75,7.393-11.5,7.363-14.479,7.671c-0.359,0.037-0.669,0.265-0.813,0.596
				c-0.144,0.33-0.099,0.712,0.118,1c1.076,1.429,3.684,3.748,7.73,5.256L69.966,46.49C67.567,44.314,63.994,43.779,59.589,44.406z"
				/>
		</g>
	</g>
</g>
<g id="Blue" style="display:none;">
	<g style="display:inline;">
		<g>
			<path style="fill:#0081A1;" d="M73.828,54.094c-0.383-0.106-0.67-0.426-0.726-0.823c-1.075-7.746-6.144-9.914-13.514-8.864
				c-0.394,0.056-0.783-0.127-0.992-0.466c-0.004-0.007-0.005-0.016-0.01-0.023c-8.841,5.104-15.202,20.643-20.212,27.083
				c-5.75,7.393-11.5,7.364-14.478,7.671c-0.359,0.038-0.67,0.265-0.814,0.596c-0.143,0.33-0.099,0.713,0.118,1
				c1.697,2.256,7.197,6.733,16.174,6.733C52.125,87.001,71.063,67.312,73.828,54.094z"/>
		</g>
		<g>
			<path style="fill:#BBE7F2;" d="M85.957,24.599c-0.869-1.521-2.791-2.021-4.328-1.181c-6.177,3.373-11.227,10.692-13.226,14.614
				c-3.329-0.438-7.023,0.858-9.776,4.813c-0.227,0.327-0.238,0.757-0.03,1.096c0.209,0.339,0.599,0.522,0.993,0.465
				c7.369-1.049,12.437,1.119,13.513,8.865c0.057,0.408,0.357,0.739,0.758,0.835c0.4,0.096,0.818-0.063,1.054-0.401
				c3.581-5.145,1.999-10.888-1.949-13.816c2.42-3.36,7.404-8.445,11.812-10.963C86.298,28.057,86.826,26.12,85.957,24.599z"/>
		</g>
		<g>
			<path style="fill:#E1F5FA;" d="M72.965,39.89c2.42-3.36,7.404-8.445,11.812-10.963c1.521-0.87,2.05-2.807,1.181-4.328
				c-0.869-1.521-2.791-2.021-4.328-1.181c-6.177,3.373-11.227,10.692-13.226,14.614c-3.329-0.438-7.023,0.858-9.776,4.813
				c-0.227,0.327-0.238,0.757-0.03,1.096c0.209,0.339,0.599,0.522,0.993,0.465c4.404-0.627,7.977-0.091,10.376,2.083l4.827-4.827
				C74.264,41,73.653,40.4,72.965,39.89z"/>
		</g>
		<g>
			<path style="fill:#009FC7;" d="M59.59,44.406c-0.395,0.056-0.784-0.126-0.993-0.465c-0.004-0.007-0.005-0.016-0.01-0.023
				c-8.841,5.104-15.202,20.642-20.212,27.083c-5.75,7.393-11.5,7.363-14.478,7.671c-0.359,0.037-0.67,0.265-0.814,0.596
				c-0.143,0.33-0.099,0.712,0.118,1c1.076,1.429,3.684,3.748,7.73,5.256L69.966,46.49C67.566,44.314,63.994,43.779,59.59,44.406z"
				/>
		</g>
	</g>
</g>
<g id="R-Blue" style="display:none;">
	<circle style="display:inline;fill:#81D2EB;" cx="55" cy="55" r="55"/>
	<g style="display:inline;">
		<g>
			<path style="fill:#0081A1;" d="M73.828,54.094c-0.383-0.106-0.67-0.426-0.726-0.823c-1.075-7.746-6.144-9.914-13.514-8.864
				c-0.394,0.056-0.783-0.127-0.992-0.466c-0.004-0.007-0.005-0.016-0.01-0.023C49.746,49.022,43.385,64.56,38.375,71
				c-5.75,7.393-11.5,7.364-14.478,7.671c-0.359,0.038-0.67,0.265-0.814,0.596c-0.143,0.331-0.099,0.713,0.118,1
				C24.898,82.524,30.398,87,39.375,87C52.125,87,71.063,67.312,73.828,54.094z"/>
		</g>
		<g>
			<path style="fill:#BBE7F2;" d="M85.957,24.599c-0.869-1.521-2.791-2.021-4.328-1.181c-6.177,3.373-11.227,10.692-13.226,14.614
				c-3.329-0.438-7.023,0.858-9.776,4.813c-0.227,0.327-0.238,0.757-0.03,1.096c0.209,0.339,0.599,0.522,0.993,0.465
				c7.369-1.049,12.437,1.119,13.513,8.865c0.057,0.408,0.357,0.739,0.758,0.835c0.4,0.096,0.818-0.063,1.054-0.401
				c3.581-5.145,1.999-10.888-1.949-13.816c2.42-3.36,7.404-8.445,11.812-10.963C86.298,28.057,86.826,26.12,85.957,24.599z"/>
		</g>
		<g>
			<path style="fill:#E1F5FA;" d="M72.965,39.89c2.42-3.36,7.404-8.445,11.812-10.963c1.521-0.87,2.05-2.807,1.181-4.328
				c-0.869-1.521-2.791-2.021-4.328-1.181c-6.177,3.373-11.227,10.692-13.226,14.614c-3.329-0.438-7.023,0.858-9.776,4.813
				c-0.227,0.327-0.238,0.757-0.03,1.096c0.209,0.339,0.599,0.522,0.993,0.465c4.404-0.627,7.977-0.091,10.376,2.083l4.827-4.827
				C74.264,41,73.653,40.4,72.965,39.89z"/>
		</g>
		<g>
			<path style="fill:#009FC7;" d="M59.59,44.406c-0.395,0.056-0.784-0.126-0.993-0.465c-0.004-0.007-0.005-0.016-0.01-0.023
				C49.746,49.022,43.385,64.56,38.375,71c-5.75,7.393-11.5,7.363-14.478,7.671c-0.359,0.037-0.67,0.265-0.814,0.596
				c-0.143,0.33-0.099,0.712,0.118,1.001c1.076,1.429,3.684,3.747,7.73,5.256L69.966,46.49
				C67.566,44.314,63.994,43.779,59.59,44.406z"/>
		</g>
	</g>
</g>
<g id="Green" style="display:none;">
	<g style="display:inline;">
		<g>
			<path style="fill:#009687;" d="M73.828,54.094c-0.383-0.106-0.67-0.426-0.726-0.823c-1.075-7.746-6.143-9.914-13.514-8.864
				c-0.394,0.056-0.783-0.127-0.992-0.466c-0.004-0.007-0.005-0.016-0.01-0.023c-8.841,5.104-15.202,20.643-20.212,27.083
				c-5.75,7.393-11.5,7.364-14.478,7.671c-0.359,0.038-0.67,0.265-0.814,0.596c-0.143,0.33-0.099,0.713,0.118,1
				c1.697,2.256,7.197,6.733,16.174,6.733C52.125,87.001,71.063,67.312,73.828,54.094z"/>
		</g>
		<g>
			<path style="fill:#AAF0E9;" d="M85.957,24.599c-0.869-1.521-2.791-2.021-4.328-1.181c-6.177,3.374-11.227,10.692-13.226,14.614
				c-3.329-0.438-7.023,0.858-9.776,4.813c-0.227,0.327-0.238,0.757-0.03,1.096c0.209,0.339,0.599,0.521,0.993,0.465
				c7.369-1.049,12.438,1.119,13.513,8.865c0.057,0.408,0.358,0.739,0.758,0.835c0.4,0.096,0.818-0.063,1.054-0.401
				c3.581-5.145,1.999-10.888-1.949-13.816c2.42-3.36,7.404-8.445,11.812-10.963C86.298,28.057,86.826,26.12,85.957,24.599z"/>
		</g>
		<g>
			<path style="fill:#D7FCF9;" d="M72.965,39.89c2.42-3.36,7.404-8.445,11.812-10.963c1.521-0.87,2.05-2.807,1.181-4.328
				c-0.869-1.521-2.791-2.021-4.328-1.181c-6.177,3.374-11.227,10.692-13.226,14.614c-3.329-0.438-7.023,0.858-9.776,4.813
				c-0.227,0.327-0.238,0.757-0.03,1.096c0.209,0.339,0.599,0.521,0.993,0.465c4.404-0.627,7.977-0.091,10.376,2.083l4.827-4.827
				C74.264,41,73.653,40.4,72.965,39.89z"/>
		</g>
		<g>
			<path style="fill:#00B8A5;" d="M59.59,44.406c-0.395,0.056-0.784-0.126-0.993-0.465c-0.004-0.007-0.005-0.016-0.01-0.023
				c-8.841,5.104-15.202,20.642-20.212,27.083c-5.75,7.393-11.5,7.363-14.478,7.671c-0.359,0.037-0.67,0.265-0.814,0.596
				c-0.143,0.33-0.099,0.712,0.118,1c1.076,1.429,3.684,3.748,7.73,5.256L69.966,46.49C67.566,44.314,63.994,43.779,59.59,44.406z"
				/>
		</g>
	</g>
</g>
<g id="R-Green" style="display:none;">
	<circle style="display:inline;fill:#77E0C4;" cx="55" cy="55" r="55"/>
	<g style="display:inline;">
		<g>
			<path style="fill:#009687;" d="M73.828,54.094c-0.383-0.106-0.67-0.426-0.726-0.823c-1.075-7.746-6.144-9.914-13.514-8.864
				c-0.394,0.056-0.783-0.127-0.992-0.466c-0.004-0.007-0.005-0.016-0.01-0.023c-8.841,5.104-15.202,20.643-20.212,27.083
				c-5.75,7.393-11.5,7.364-14.479,7.671c-0.359,0.038-0.67,0.265-0.813,0.596c-0.143,0.33-0.099,0.713,0.118,1
				c1.697,2.256,7.197,6.733,16.174,6.733C52.125,87.001,71.063,67.312,73.828,54.094z"/>
		</g>
		<g>
			<path style="fill:#AAF0E9;" d="M85.957,24.599c-0.869-1.521-2.791-2.021-4.328-1.181c-6.177,3.373-11.227,10.692-13.226,14.614
				c-3.329-0.438-7.023,0.858-9.776,4.813c-0.227,0.327-0.238,0.757-0.03,1.096c0.209,0.339,0.599,0.522,0.993,0.465
				c7.369-1.049,12.437,1.119,13.513,8.865c0.057,0.408,0.357,0.739,0.758,0.835c0.4,0.096,0.818-0.063,1.054-0.401
				c3.581-5.145,1.999-10.888-1.949-13.816c2.42-3.36,7.404-8.445,11.812-10.963C86.298,28.057,86.826,26.12,85.957,24.599z"/>
		</g>
		<g>
			<path style="fill:#D7FCF9;" d="M72.965,39.89c2.42-3.36,7.404-8.445,11.812-10.963c1.521-0.87,2.05-2.807,1.181-4.328
				c-0.869-1.521-2.791-2.021-4.328-1.181c-6.177,3.373-11.227,10.692-13.226,14.614c-3.329-0.438-7.023,0.858-9.776,4.813
				c-0.227,0.327-0.238,0.757-0.03,1.096c0.209,0.339,0.599,0.522,0.993,0.465c4.404-0.627,7.977-0.091,10.376,2.083l4.827-4.827
				C74.264,41,73.653,40.4,72.965,39.89z"/>
		</g>
		<g>
			<path style="fill:#00B8A5;" d="M59.59,44.406c-0.395,0.056-0.784-0.126-0.993-0.465c-0.004-0.007-0.005-0.016-0.01-0.023
				c-8.841,5.104-15.202,20.642-20.212,27.083c-5.75,7.393-11.5,7.363-14.479,7.671c-0.359,0.037-0.67,0.265-0.813,0.596
				c-0.143,0.33-0.099,0.712,0.118,1c1.076,1.429,3.684,3.748,7.73,5.256L69.966,46.49C67.566,44.314,63.994,43.779,59.59,44.406z"
				/>
		</g>
	</g>
</g>
<g id="Red" style="display:none;">
	<g style="display:inline;">
		<g>
			<path style="fill:#C23023;" d="M73.828,54.094c-0.383-0.106-0.67-0.426-0.726-0.823c-1.075-7.746-6.144-9.914-13.514-8.864
				c-0.394,0.056-0.783-0.127-0.992-0.466c-0.004-0.007-0.005-0.016-0.01-0.023c-8.841,5.104-15.202,20.643-20.212,27.083
				c-5.75,7.393-11.5,7.364-14.479,7.671c-0.359,0.038-0.67,0.265-0.813,0.596c-0.144,0.33-0.099,0.713,0.118,1
				c1.697,2.256,7.197,6.733,16.174,6.733C52.125,87.001,71.063,67.312,73.828,54.094z"/>
		</g>
		<g>
			<path style="fill:#FFD7D4;" d="M85.957,24.599c-0.869-1.521-2.791-2.021-4.328-1.181c-6.177,3.374-11.227,10.692-13.226,14.614
				c-3.329-0.438-7.023,0.858-9.776,4.813c-0.227,0.327-0.238,0.757-0.03,1.096c0.209,0.339,0.599,0.521,0.993,0.465
				c7.369-1.049,12.438,1.119,13.513,8.865c0.057,0.408,0.357,0.739,0.758,0.835c0.4,0.096,0.818-0.063,1.054-0.401
				c3.581-5.145,1.999-10.888-1.949-13.816c2.42-3.36,7.404-8.445,11.812-10.963C86.298,28.057,86.826,26.12,85.957,24.599z"/>
		</g>
		<g>
			<path style="fill:#FFEFED;" d="M72.965,39.89c2.42-3.36,7.404-8.445,11.812-10.963c1.521-0.87,2.05-2.807,1.181-4.328
				c-0.869-1.521-2.791-2.021-4.328-1.181c-6.177,3.374-11.227,10.692-13.226,14.614c-3.329-0.438-7.023,0.858-9.776,4.813
				c-0.227,0.327-0.238,0.757-0.03,1.096c0.209,0.339,0.599,0.521,0.993,0.465c4.404-0.627,7.977-0.091,10.376,2.083l4.827-4.827
				C74.264,41,73.653,40.4,72.965,39.89z"/>
		</g>
		<g>
			<path style="fill:#E54B44;" d="M59.59,44.406c-0.394,0.056-0.784-0.126-0.993-0.465c-0.004-0.007-0.005-0.016-0.01-0.023
				c-8.841,5.104-15.202,20.642-20.212,27.083c-5.75,7.393-11.5,7.363-14.479,7.671c-0.359,0.037-0.67,0.265-0.813,0.596
				c-0.144,0.33-0.099,0.712,0.118,1c1.076,1.429,3.684,3.748,7.73,5.256L69.966,46.49C67.566,44.314,63.994,43.779,59.59,44.406z"
				/>
		</g>
	</g>
</g>
<g id="R-Red" style="display:none;">
	<circle style="display:inline;fill:#FABBAF;" cx="55" cy="55" r="55"/>
	<g style="display:inline;">
		<g>
			<path style="fill:#C23023;" d="M73.828,54.094c-0.383-0.106-0.67-0.426-0.726-0.823c-1.075-7.746-6.144-9.914-13.514-8.864
				c-0.394,0.056-0.783-0.127-0.992-0.466c-0.004-0.007-0.005-0.016-0.01-0.023c-8.841,5.104-15.202,20.643-20.212,27.083
				c-5.75,7.393-11.5,7.364-14.479,7.671c-0.359,0.038-0.67,0.265-0.813,0.596c-0.144,0.33-0.099,0.713,0.118,1
				c1.697,2.256,7.197,6.733,16.174,6.733C52.125,87.001,71.063,67.312,73.828,54.094z"/>
		</g>
		<g>
			<path style="fill:#FFD7D4;" d="M85.957,24.599c-0.869-1.521-2.791-2.021-4.328-1.181c-6.177,3.374-11.227,10.692-13.226,14.614
				c-3.329-0.438-7.023,0.858-9.776,4.813c-0.227,0.327-0.238,0.757-0.03,1.096c0.209,0.339,0.599,0.521,0.993,0.465
				c7.369-1.049,12.438,1.119,13.513,8.865c0.057,0.408,0.357,0.739,0.758,0.835c0.4,0.096,0.818-0.063,1.054-0.401
				c3.581-5.145,1.999-10.888-1.949-13.816c2.42-3.36,7.404-8.445,11.812-10.963C86.298,28.057,86.826,26.12,85.957,24.599z"/>
		</g>
		<g>
			<path style="fill:#FFEFED;" d="M72.965,39.89c2.42-3.36,7.404-8.445,11.812-10.963c1.521-0.87,2.05-2.807,1.181-4.328
				c-0.869-1.521-2.791-2.021-4.328-1.181c-6.177,3.374-11.227,10.692-13.226,14.614c-3.329-0.438-7.023,0.858-9.776,4.813
				c-0.227,0.327-0.238,0.757-0.03,1.096c0.209,0.339,0.599,0.521,0.993,0.465c4.404-0.627,7.977-0.091,10.376,2.083l4.827-4.827
				C74.264,41,73.653,40.4,72.965,39.89z"/>
		</g>
		<g>
			<path style="fill:#E54B44;" d="M59.59,44.406c-0.394,0.056-0.784-0.126-0.993-0.465c-0.004-0.007-0.005-0.016-0.01-0.023
				c-8.841,5.104-15.202,20.642-20.212,27.083c-5.75,7.393-11.5,7.363-14.479,7.671c-0.359,0.037-0.67,0.265-0.813,0.596
				c-0.144,0.33-0.099,0.712,0.118,1c1.076,1.429,3.684,3.748,7.73,5.256L69.966,46.49C67.566,44.314,63.994,43.779,59.59,44.406z"
				/>
		</g>
	</g>
</g>
<g id="Yellow" style="display:none;">
	<g style="display:inline;">
		<g>
			<path style="fill:#E07000;" d="M73.828,54.094c-0.383-0.106-0.67-0.426-0.726-0.823c-1.075-7.746-6.144-9.914-13.514-8.864
				c-0.394,0.056-0.783-0.127-0.992-0.466c-0.004-0.007-0.005-0.016-0.01-0.023c-8.841,5.104-15.202,20.643-20.212,27.083
				c-5.75,7.393-11.5,7.364-14.479,7.671c-0.359,0.038-0.67,0.265-0.813,0.596c-0.143,0.33-0.099,0.713,0.118,1
				c1.697,2.256,7.197,6.733,16.174,6.733C52.125,87.001,71.063,67.312,73.828,54.094z"/>
		</g>
		<g>
			<path style="fill:#FFE9A1;" d="M85.957,24.599c-0.869-1.521-2.791-2.021-4.328-1.181c-6.177,3.373-11.227,10.692-13.226,14.614
				c-3.329-0.438-7.023,0.858-9.776,4.813c-0.227,0.327-0.238,0.757-0.03,1.096c0.209,0.339,0.599,0.522,0.993,0.465
				c7.369-1.049,12.437,1.119,13.513,8.865c0.057,0.408,0.357,0.739,0.758,0.835c0.4,0.096,0.818-0.063,1.054-0.401
				c3.581-5.145,1.999-10.888-1.949-13.816c2.42-3.36,7.404-8.445,11.812-10.963C86.298,28.057,86.826,26.12,85.957,24.599z"/>
		</g>
		<g>
			<path style="fill:#FFF5D9;" d="M72.965,39.89c2.42-3.36,7.404-8.445,11.812-10.963c1.521-0.87,2.05-2.807,1.181-4.328
				c-0.869-1.521-2.791-2.021-4.328-1.181c-6.177,3.373-11.227,10.692-13.226,14.614c-3.329-0.438-7.023,0.858-9.776,4.813
				c-0.227,0.327-0.238,0.757-0.03,1.096c0.209,0.339,0.599,0.522,0.993,0.465c4.404-0.627,7.977-0.091,10.376,2.083l4.827-4.827
				C74.264,41,73.653,40.4,72.965,39.89z"/>
		</g>
		<g>
			<path style="fill:#FA9200;" d="M59.59,44.406c-0.395,0.056-0.784-0.126-0.993-0.465c-0.004-0.007-0.005-0.016-0.01-0.023
				c-8.841,5.104-15.202,20.642-20.212,27.083c-5.75,7.393-11.5,7.363-14.479,7.671c-0.359,0.037-0.67,0.265-0.813,0.596
				c-0.143,0.33-0.099,0.712,0.118,1c1.076,1.429,3.684,3.748,7.73,5.256L69.966,46.49C67.566,44.314,63.994,43.779,59.59,44.406z"
				/>
		</g>
	</g>
</g>
<g id="R-Yellow" style="display:none;">
	<circle style="display:inline;fill:#FFD75E;" cx="55" cy="55" r="55"/>
	<g style="display:inline;">
		<g>
			<path style="fill:#E07000;" d="M73.828,54.094c-0.383-0.106-0.67-0.426-0.726-0.823c-1.075-7.746-6.143-9.914-13.514-8.864
				c-0.394,0.056-0.783-0.127-0.992-0.466c-0.004-0.007-0.005-0.016-0.01-0.023c-8.841,5.104-15.202,20.643-20.212,27.083
				c-5.75,7.393-11.5,7.364-14.478,7.671c-0.359,0.038-0.67,0.265-0.814,0.596c-0.143,0.33-0.099,0.713,0.118,1
				c1.697,2.256,7.197,6.733,16.174,6.733C52.125,87.001,71.063,67.312,73.828,54.094z"/>
		</g>
		<g>
			<path style="fill:#FFE9A1;" d="M85.957,24.599c-0.869-1.521-2.791-2.021-4.328-1.181c-6.177,3.373-11.227,10.692-13.226,14.614
				c-3.329-0.438-7.023,0.858-9.776,4.813c-0.227,0.327-0.238,0.757-0.03,1.096c0.209,0.339,0.599,0.522,0.993,0.465
				c7.369-1.049,12.438,1.119,13.513,8.865c0.057,0.408,0.358,0.739,0.758,0.835c0.4,0.096,0.818-0.063,1.054-0.401
				c3.581-5.145,1.999-10.888-1.949-13.816c2.42-3.36,7.404-8.445,11.812-10.963C86.298,28.057,86.826,26.12,85.957,24.599z"/>
		</g>
		<g>
			<path style="fill:#FFF5D9;" d="M72.965,39.89c2.42-3.36,7.404-8.445,11.812-10.963c1.521-0.87,2.05-2.807,1.181-4.328
				c-0.869-1.521-2.791-2.021-4.328-1.181c-6.177,3.373-11.227,10.692-13.226,14.614c-3.329-0.438-7.023,0.858-9.776,4.813
				c-0.227,0.327-0.238,0.757-0.03,1.096c0.209,0.339,0.599,0.522,0.993,0.465c4.404-0.627,7.977-0.091,10.376,2.083l4.827-4.827
				C74.264,41,73.653,40.4,72.965,39.89z"/>
		</g>
		<g>
			<path style="fill:#FA9200;" d="M59.59,44.406c-0.395,0.056-0.784-0.126-0.993-0.465c-0.004-0.007-0.005-0.016-0.01-0.023
				c-8.841,5.104-15.202,20.642-20.212,27.083c-5.75,7.393-11.5,7.363-14.478,7.671c-0.359,0.037-0.67,0.265-0.814,0.596
				c-0.143,0.33-0.099,0.712,0.118,1c1.076,1.429,3.684,3.748,7.73,5.256L69.966,46.49C67.566,44.314,63.994,43.779,59.59,44.406z"
				/>
		</g>
	</g>
</g>
</svg>
