<?xml version="1.0" encoding="iso-8859-1"?>
<!-- Generator: Adobe Illustrator 17.1.0, SVG Export Plug-In . SVG Version: 6.00 Build 0)  -->
<!DOCTYPE svg PUBLIC "-//W3C//DTD SVG 1.0//EN" "http://www.w3.org/TR/2001/REC-SVG-20010904/DTD/svg10.dtd">
<svg version="1.0" xmlns="http://www.w3.org/2000/svg" xmlns:xlink="http://www.w3.org/1999/xlink" x="0px" y="0px" width="110px"
	 height="110px" viewBox="0 0 110 110" style="enable-background:new 0 0 110 110;" xml:space="preserve">
<g id="Artboard" style="display:none;">
	
		<rect x="-1224.5" y="-290.5" style="display:inline;fill:#808080;stroke:#000000;stroke-miterlimit:10;" width="1392" height="1369"/>
</g>
<g id="R-Multicolor">
	<circle style="fill:#25B7D3;" cx="55" cy="55" r="55"/>
	<g>
		<g>
			<path style="fill:#CFD3D4;" d="M79,85c0,1.105-0.895,2-2,2H33c-1.105,0-2-0.895-2-2V55h48V85z"/>
		</g>
		<g>
			<polygon style="fill:#E2E4E5;" points="31,83.556 59.556,55 31,55 			"/>
		</g>
		<g>
			<path style="fill:#692E19;" d="M79,25v14H63V23h14c0.55,0,1.05,0.22,1.41,0.59C78.78,23.95,79,24.45,79,25z"/>
		</g>
		<g>
			<rect x="47" y="39" style="fill:#692E19;" width="16" height="16"/>
		</g>
		<g>
			<rect x="47" y="23" style="fill:#692E19;" width="16" height="16"/>
		</g>
		<g>
			<polygon style="fill:#9C6144;" points="47,55 47,39 63,39 			"/>
		</g>
		<g>
			<rect x="51" y="43" style="fill:#AF7653;" width="8" height="8"/>
		</g>
		<g>
			<rect x="63" y="39" style="fill:#692E19;" width="16" height="16"/>
		</g>
		<g>
			<polygon style="fill:#9C6144;" points="63,55 63,39 79,39 			"/>
		</g>
		<g>
			<path style="fill:#9C6144;" d="M78.41,23.59L63,39V23h14C77.55,23,78.05,23.22,78.41,23.59z"/>
		</g>
		<g>
			<rect x="67" y="43" style="fill:#AF7653;" width="8" height="8"/>
		</g>
		<g>
			<polygon style="fill:#9C6144;" points="47,39 47,23 63,23 			"/>
		</g>
		<g>
			<rect x="67" y="27" style="fill:#AF7653;" width="8" height="8"/>
		</g>
		<g>
			<rect x="51" y="27" style="fill:#AF7653;" width="8" height="8"/>
		</g>
		<g>
			<rect x="31" y="39" style="fill:#692E19;" width="16" height="16"/>
		</g>
		<g>
			<path style="fill:#692E19;" d="M31,25c0-1.105,0.895-2,2-2h14v16H31V25z"/>
		</g>
		<g>
			<polygon style="fill:#9C6144;" points="31,55 31,39 47,39 			"/>
		</g>
		<g>
			<rect x="35" y="43" style="fill:#AF7653;" width="8" height="8"/>
		</g>
		<g>
			<path style="fill:#9C6144;" d="M31,39V25c0-1.105,0.895-2,2-2h14L31,39z"/>
		</g>
		<g>
			<rect x="35" y="27" style="fill:#AF7653;" width="8" height="8"/>
		</g>
		<g>
			<polygon style="fill:#F0F1F1;" points="29,55 27,67 39,62 55,67 71,62 83,67 81,55 			"/>
		</g>
		<g>
			<polygon style="fill:#FFFFFF;" points="29,55 27,67 39,62 53.304,66.47 64.775,55 			"/>
		</g>
	</g>
</g>
<g id="Multicolor" style="display:none;">
	<g style="display:inline;">
		<g>
			<path style="fill:#CFD3D4;" d="M79,85c0,1.105-0.895,2-2,2H33c-1.105,0-2-0.895-2-2V55h48V85z"/>
		</g>
		<g>
			<polygon style="fill:#E2E4E5;" points="31,83.556 59.556,55 31,55 			"/>
		</g>
		<g>
			<path style="fill:#692E19;" d="M79,25v14H63V23h14c0.55,0,1.05,0.22,1.41,0.59C78.78,23.95,79,24.45,79,25z"/>
		</g>
		<g>
			<rect x="47" y="39" style="fill:#692E19;" width="16" height="16"/>
		</g>
		<g>
			<rect x="47" y="23" style="fill:#692E19;" width="16" height="16"/>
		</g>
		<g>
			<polygon style="fill:#9C6144;" points="47,55 47,39 63,39 			"/>
		</g>
		<g>
			<rect x="51" y="43" style="fill:#AF7653;" width="8" height="8"/>
		</g>
		<g>
			<rect x="63" y="39" style="fill:#692E19;" width="16" height="16"/>
		</g>
		<g>
			<polygon style="fill:#9C6144;" points="63,55 63,39 79,39 			"/>
		</g>
		<g>
			<path style="fill:#9C6144;" d="M78.41,23.59L63,39V23h14C77.55,23,78.05,23.22,78.41,23.59z"/>
		</g>
		<g>
			<rect x="67" y="43" style="fill:#AF7653;" width="8" height="8"/>
		</g>
		<g>
			<polygon style="fill:#9C6144;" points="47,39 47,23 63,23 			"/>
		</g>
		<g>
			<rect x="67" y="27" style="fill:#AF7653;" width="8" height="8"/>
		</g>
		<g>
			<rect x="51" y="27" style="fill:#AF7653;" width="8" height="8"/>
		</g>
		<g>
			<rect x="31" y="39" style="fill:#692E19;" width="16" height="16"/>
		</g>
		<g>
			<path style="fill:#692E19;" d="M31,25c0-1.105,0.895-2,2-2h14v16H31V25z"/>
		</g>
		<g>
			<polygon style="fill:#9C6144;" points="31,55 31,39 47,39 			"/>
		</g>
		<g>
			<rect x="35" y="43" style="fill:#AF7653;" width="8" height="8"/>
		</g>
		<g>
			<path style="fill:#9C6144;" d="M31,39V25c0-1.105,0.895-2,2-2h14L31,39z"/>
		</g>
		<g>
			<rect x="35" y="27" style="fill:#AF7653;" width="8" height="8"/>
		</g>
		<g>
			<polygon style="fill:#F0F1F1;" points="29,55 27,67 39,62 55,67 71,62 83,67 81,55 			"/>
		</g>
		<g>
			<polygon style="fill:#FFFFFF;" points="29,55 27,67 39,62 53.304,66.47 64.775,55 			"/>
		</g>
	</g>
</g>
<g id="Blue" style="display:none;">
	<g style="display:inline;">
		<g>
			<path style="fill:#BBE7F2;" d="M79,85c0,1.105-0.896,2-2,2H33c-1.104,0-2-0.895-2-2V55h48V85z"/>
		</g>
		<g>
			<polygon style="fill:#E1F5FA;" points="31,83.556 59.557,55 31,55 			"/>
		</g>
		<g>
			<path style="fill:#0C333D;" d="M79,25v14H63V23h14c0.55,0,1.05,0.22,1.41,0.59C78.78,23.95,79,24.45,79,25z"/>
		</g>
		<g>
			<rect x="47" y="39" style="fill:#0C333D;" width="16" height="16"/>
		</g>
		<g>
			<rect x="47" y="23" style="fill:#0C333D;" width="16" height="16"/>
		</g>
		<g>
			<polygon style="fill:#0F6175;" points="47,55 47,39 63,39 			"/>
		</g>
		<g>
			<rect x="51" y="43" style="fill:#33899E;" width="8" height="8"/>
		</g>
		<g>
			<rect x="63" y="39" style="fill:#0C333D;" width="16" height="16"/>
		</g>
		<g>
			<polygon style="fill:#0F6175;" points="63,55 63,39 79,39 			"/>
		</g>
		<g>
			<path style="fill:#0F6175;" d="M78.41,23.59L63,39V23h14C77.55,23,78.05,23.22,78.41,23.59z"/>
		</g>
		<g>
			<rect x="67" y="43" style="fill:#33899E;" width="8" height="8"/>
		</g>
		<g>
			<polygon style="fill:#0F6175;" points="47,39 47,23 63,23 			"/>
		</g>
		<g>
			<rect x="67" y="27" style="fill:#33899E;" width="8" height="8"/>
		</g>
		<g>
			<rect x="51" y="27" style="fill:#33899E;" width="8" height="8"/>
		</g>
		<g>
			<rect x="31" y="39" style="fill:#0C333D;" width="16" height="16"/>
		</g>
		<g>
			<path style="fill:#0C333D;" d="M31,25c0-1.104,0.896-2,2-2h14v16H31V25z"/>
		</g>
		<g>
			<polygon style="fill:#0F6175;" points="31,55 31,39 47,39 			"/>
		</g>
		<g>
			<rect x="35" y="43" style="fill:#33899E;" width="8" height="8"/>
		</g>
		<g>
			<path style="fill:#0F6175;" d="M31,39V25c0-1.104,0.896-2,2-2h14L31,39z"/>
		</g>
		<g>
			<rect x="35" y="27" style="fill:#33899E;" width="8" height="8"/>
		</g>
		<g>
			<polygon style="fill:#E1F5FA;" points="29,55 27,67 39,62 55,67 71,62 83,67 81,55 			"/>
		</g>
		<g>
			<polygon style="fill:#FFFFFF;" points="29,55 27,67 39,62 53.305,66.47 64.774,55 			"/>
		</g>
	</g>
</g>
<g id="R-Blue" style="display:none;">
	<circle style="display:inline;fill:#81D2EB;" cx="55" cy="55" r="55"/>
	<g style="display:inline;">
		<g>
			<path style="fill:#BBE7F2;" d="M79,85c0,1.105-0.896,2-2,2H33c-1.104,0-2-0.895-2-2V55h48V85z"/>
		</g>
		<g>
			<polygon style="fill:#E1F5FA;" points="31,83.556 59.557,55 31,55 			"/>
		</g>
		<g>
			<path style="fill:#0C333D;" d="M79,25v14H63V23h14c0.55,0,1.05,0.22,1.41,0.59C78.78,23.95,79,24.45,79,25z"/>
		</g>
		<g>
			<rect x="47" y="39" style="fill:#0C333D;" width="16" height="16"/>
		</g>
		<g>
			<rect x="47" y="23" style="fill:#0C333D;" width="16" height="16"/>
		</g>
		<g>
			<polygon style="fill:#0F6175;" points="47,55 47,39 63,39 			"/>
		</g>
		<g>
			<rect x="51" y="43" style="fill:#33899E;" width="8" height="8"/>
		</g>
		<g>
			<rect x="63" y="39" style="fill:#0C333D;" width="16" height="16"/>
		</g>
		<g>
			<polygon style="fill:#0F6175;" points="63,55 63,39 79,39 			"/>
		</g>
		<g>
			<path style="fill:#0F6175;" d="M78.41,23.59L63,39V23h14C77.55,23,78.05,23.22,78.41,23.59z"/>
		</g>
		<g>
			<rect x="67" y="43" style="fill:#33899E;" width="8" height="8"/>
		</g>
		<g>
			<polygon style="fill:#0F6175;" points="47,39 47,23 63,23 			"/>
		</g>
		<g>
			<rect x="67" y="27" style="fill:#33899E;" width="8" height="8"/>
		</g>
		<g>
			<rect x="51" y="27" style="fill:#33899E;" width="8" height="8"/>
		</g>
		<g>
			<rect x="31" y="39" style="fill:#0C333D;" width="16" height="16"/>
		</g>
		<g>
			<path style="fill:#0C333D;" d="M31,25c0-1.104,0.896-2,2-2h14v16H31V25z"/>
		</g>
		<g>
			<polygon style="fill:#0F6175;" points="31,55 31,39 47,39 			"/>
		</g>
		<g>
			<rect x="35" y="43" style="fill:#33899E;" width="8" height="8"/>
		</g>
		<g>
			<path style="fill:#0F6175;" d="M31,39V25c0-1.104,0.896-2,2-2h14L31,39z"/>
		</g>
		<g>
			<rect x="35" y="27" style="fill:#33899E;" width="8" height="8"/>
		</g>
		<g>
			<polygon style="fill:#E1F5FA;" points="29,55 27,67 39,62 55,67 71,62 83,67 81,55 			"/>
		</g>
		<g>
			<polygon style="fill:#FFFFFF;" points="29,55 27,67 39,62 53.305,66.47 64.774,55 			"/>
		</g>
	</g>
</g>
<g id="Green" style="display:none;">
	<g style="display:inline;">
		<g>
			<path style="fill:#AAF0E9;" d="M79,85c0,1.105-0.896,2-2,2H33c-1.104,0-2-0.895-2-2V55h48V85z"/>
		</g>
		<g>
			<polygon style="fill:#D7FCF9;" points="31,83.556 59.557,55 31,55 			"/>
		</g>
		<g>
			<path style="fill:#0A3631;" d="M79,25v14H63V23h14c0.55,0,1.05,0.22,1.41,0.59C78.78,23.95,79,24.45,79,25z"/>
		</g>
		<g>
			<rect x="47" y="39" style="fill:#0A3631;" width="16" height="16"/>
		</g>
		<g>
			<rect x="47" y="23" style="fill:#0A3631;" width="16" height="16"/>
		</g>
		<g>
			<polygon style="fill:#14635B;" points="47,55 47,39 63,39 			"/>
		</g>
		<g>
			<rect x="51" y="43" style="fill:#3E948B;" width="8" height="8"/>
		</g>
		<g>
			<rect x="63" y="39" style="fill:#0A3631;" width="16" height="16"/>
		</g>
		<g>
			<polygon style="fill:#14635B;" points="63,55 63,39 79,39 			"/>
		</g>
		<g>
			<path style="fill:#14635B;" d="M78.41,23.59L63,39V23h14C77.55,23,78.05,23.22,78.41,23.59z"/>
		</g>
		<g>
			<rect x="67" y="43" style="fill:#3E948B;" width="8" height="8"/>
		</g>
		<g>
			<polygon style="fill:#14635B;" points="47,39 47,23 63,23 			"/>
		</g>
		<g>
			<rect x="67" y="27" style="fill:#3E948B;" width="8" height="8"/>
		</g>
		<g>
			<rect x="51" y="27" style="fill:#3E948B;" width="8" height="8"/>
		</g>
		<g>
			<rect x="31" y="39" style="fill:#0A3631;" width="16" height="16"/>
		</g>
		<g>
			<path style="fill:#0A3631;" d="M31,25c0-1.104,0.896-2,2-2h14v16H31V25z"/>
		</g>
		<g>
			<polygon style="fill:#14635B;" points="31,55 31,39 47,39 			"/>
		</g>
		<g>
			<rect x="35" y="43" style="fill:#3E948B;" width="8" height="8"/>
		</g>
		<g>
			<path style="fill:#14635B;" d="M31,39V25c0-1.104,0.896-2,2-2h14L31,39z"/>
		</g>
		<g>
			<rect x="35" y="27" style="fill:#3E948B;" width="8" height="8"/>
		</g>
		<g>
			<polygon style="fill:#D7FCF9;" points="29,55 27,67 39,62 55,67 71,62 83,67 81,55 			"/>
		</g>
		<g>
			<polygon style="fill:#FFFFFF;" points="29,55 27,67 39,62 53.305,66.47 64.774,55 			"/>
		</g>
	</g>
</g>
<g id="R-Green" style="display:none;">
	<circle style="display:inline;fill:#77E0C4;" cx="55" cy="55" r="55"/>
	<g style="display:inline;">
		<g>
			<path style="fill:#AAF0E9;" d="M79,85c0,1.105-0.896,2-2,2H33c-1.104,0-2-0.895-2-2V55h48V85z"/>
		</g>
		<g>
			<polygon style="fill:#D7FCF9;" points="31,83.556 59.557,55 31,55 			"/>
		</g>
		<g>
			<path style="fill:#0A3631;" d="M79,25v14H63V23h14c0.55,0,1.05,0.22,1.41,0.59C78.78,23.95,79,24.45,79,25z"/>
		</g>
		<g>
			<rect x="47" y="39" style="fill:#0A3631;" width="16" height="16"/>
		</g>
		<g>
			<rect x="47" y="23" style="fill:#0A3631;" width="16" height="16"/>
		</g>
		<g>
			<polygon style="fill:#14635B;" points="47,55 47,39 63,39 			"/>
		</g>
		<g>
			<rect x="51" y="43" style="fill:#3E948B;" width="8" height="8"/>
		</g>
		<g>
			<rect x="63" y="39" style="fill:#0A3631;" width="16" height="16"/>
		</g>
		<g>
			<polygon style="fill:#14635B;" points="63,55 63,39 79,39 			"/>
		</g>
		<g>
			<path style="fill:#14635B;" d="M78.41,23.59L63,39V23h14C77.55,23,78.05,23.22,78.41,23.59z"/>
		</g>
		<g>
			<rect x="67" y="43" style="fill:#3E948B;" width="8" height="8"/>
		</g>
		<g>
			<polygon style="fill:#14635B;" points="47,39 47,23 63,23 			"/>
		</g>
		<g>
			<rect x="67" y="27" style="fill:#3E948B;" width="8" height="8"/>
		</g>
		<g>
			<rect x="51" y="27" style="fill:#3E948B;" width="8" height="8"/>
		</g>
		<g>
			<rect x="31" y="39" style="fill:#0A3631;" width="16" height="16"/>
		</g>
		<g>
			<path style="fill:#0A3631;" d="M31,25c0-1.104,0.896-2,2-2h14v16H31V25z"/>
		</g>
		<g>
			<polygon style="fill:#14635B;" points="31,55 31,39 47,39 			"/>
		</g>
		<g>
			<rect x="35" y="43" style="fill:#3E948B;" width="8" height="8"/>
		</g>
		<g>
			<path style="fill:#14635B;" d="M31,39V25c0-1.104,0.896-2,2-2h14L31,39z"/>
		</g>
		<g>
			<rect x="35" y="27" style="fill:#3E948B;" width="8" height="8"/>
		</g>
		<g>
			<polygon style="fill:#D7FCF9;" points="29,55 27,67 39,62 55,67 71,62 83,67 81,55 			"/>
		</g>
		<g>
			<polygon style="fill:#FFFFFF;" points="29,55 27,67 39,62 53.305,66.47 64.774,55 			"/>
		</g>
	</g>
</g>
<g id="Red" style="display:none;">
	<g style="display:inline;">
		<g>
			<path style="fill:#FFD7D4;" d="M79,85c0,1.105-0.896,2-2,2H33c-1.104,0-2-0.895-2-2V55h48V85z"/>
		</g>
		<g>
			<polygon style="fill:#FFEFED;" points="31,83.556 59.557,55 31,55 			"/>
		</g>
		<g>
			<path style="fill:#4A1410;" d="M79,25v14H63V23h14c0.55,0,1.05,0.22,1.41,0.59C78.78,23.95,79,24.45,79,25z"/>
		</g>
		<g>
			<rect x="47" y="39" style="fill:#4A1410;" width="16" height="16"/>
		</g>
		<g>
			<rect x="47" y="23" style="fill:#4A1410;" width="16" height="16"/>
		</g>
		<g>
			<polygon style="fill:#7D261E;" points="47,55 47,39 63,39 			"/>
		</g>
		<g>
			<rect x="51" y="43" style="fill:#B84E44;" width="8" height="8"/>
		</g>
		<g>
			<rect x="63" y="39" style="fill:#4A1410;" width="16" height="16"/>
		</g>
		<g>
			<polygon style="fill:#7D261E;" points="63,55 63,39 79,39 			"/>
		</g>
		<g>
			<path style="fill:#7D261E;" d="M78.41,23.59L63,39V23h14C77.55,23,78.05,23.22,78.41,23.59z"/>
		</g>
		<g>
			<rect x="67" y="43" style="fill:#B84E44;" width="8" height="8"/>
		</g>
		<g>
			<polygon style="fill:#7D261E;" points="47,39 47,23 63,23 			"/>
		</g>
		<g>
			<rect x="67" y="27" style="fill:#B84E44;" width="8" height="8"/>
		</g>
		<g>
			<rect x="51" y="27" style="fill:#B84E44;" width="8" height="8"/>
		</g>
		<g>
			<rect x="31" y="39" style="fill:#4A1410;" width="16" height="16"/>
		</g>
		<g>
			<path style="fill:#4A1410;" d="M31,25c0-1.104,0.896-2,2-2h14v16H31V25z"/>
		</g>
		<g>
			<polygon style="fill:#7D261E;" points="31,55 31,39 47,39 			"/>
		</g>
		<g>
			<rect x="35" y="43" style="fill:#B84E44;" width="8" height="8"/>
		</g>
		<g>
			<path style="fill:#7D261E;" d="M31,39V25c0-1.104,0.896-2,2-2h14L31,39z"/>
		</g>
		<g>
			<rect x="35" y="27" style="fill:#B84E44;" width="8" height="8"/>
		</g>
		<g>
			<polygon style="fill:#FFEFED;" points="29,55 27,67 39,62 55,67 71,62 83,67 81,55 			"/>
		</g>
		<g>
			<polygon style="fill:#FFFFFF;" points="29,55 27,67 39,62 53.305,66.47 64.774,55 			"/>
		</g>
	</g>
</g>
<g id="R-Red" style="display:none;">
	<circle style="display:inline;fill:#FABBAF;" cx="55" cy="55" r="55"/>
	<g style="display:inline;">
		<g>
			<path style="fill:#FFD7D4;" d="M79,85c0,1.105-0.896,2-2,2H33c-1.104,0-2-0.895-2-2V55h48V85z"/>
		</g>
		<g>
			<polygon style="fill:#FFEFED;" points="31,83.556 59.557,55 31,55 			"/>
		</g>
		<g>
			<path style="fill:#4A1410;" d="M79,25v14H63V23h14c0.55,0,1.05,0.22,1.41,0.59C78.78,23.95,79,24.45,79,25z"/>
		</g>
		<g>
			<rect x="47" y="39" style="fill:#4A1410;" width="16" height="16"/>
		</g>
		<g>
			<rect x="47" y="23" style="fill:#4A1410;" width="16" height="16"/>
		</g>
		<g>
			<polygon style="fill:#7D261E;" points="47,55 47,39 63,39 			"/>
		</g>
		<g>
			<rect x="51" y="43" style="fill:#B84E44;" width="8" height="8"/>
		</g>
		<g>
			<rect x="63" y="39" style="fill:#4A1410;" width="16" height="16"/>
		</g>
		<g>
			<polygon style="fill:#7D261E;" points="63,55 63,39 79,39 			"/>
		</g>
		<g>
			<path style="fill:#7D261E;" d="M78.41,23.59L63,39V23h14C77.55,23,78.05,23.22,78.41,23.59z"/>
		</g>
		<g>
			<rect x="67" y="43" style="fill:#B84E44;" width="8" height="8"/>
		</g>
		<g>
			<polygon style="fill:#7D261E;" points="47,39 47,23 63,23 			"/>
		</g>
		<g>
			<rect x="67" y="27" style="fill:#B84E44;" width="8" height="8"/>
		</g>
		<g>
			<rect x="51" y="27" style="fill:#B84E44;" width="8" height="8"/>
		</g>
		<g>
			<rect x="31" y="39" style="fill:#4A1410;" width="16" height="16"/>
		</g>
		<g>
			<path style="fill:#4A1410;" d="M31,25c0-1.104,0.896-2,2-2h14v16H31V25z"/>
		</g>
		<g>
			<polygon style="fill:#7D261E;" points="31,55 31,39 47,39 			"/>
		</g>
		<g>
			<rect x="35" y="43" style="fill:#B84E44;" width="8" height="8"/>
		</g>
		<g>
			<path style="fill:#7D261E;" d="M31,39V25c0-1.104,0.896-2,2-2h14L31,39z"/>
		</g>
		<g>
			<rect x="35" y="27" style="fill:#B84E44;" width="8" height="8"/>
		</g>
		<g>
			<polygon style="fill:#FFEFED;" points="29,55 27,67 39,62 55,67 71,62 83,67 81,55 			"/>
		</g>
		<g>
			<polygon style="fill:#FFFFFF;" points="29,55 27,67 39,62 53.305,66.47 64.774,55 			"/>
		</g>
	</g>
</g>
<g id="Yellow" style="display:none;">
	<g style="display:inline;">
		<g>
			<path style="fill:#FFE9A1;" d="M79,85c0,1.105-0.896,2-2,2H33c-1.104,0-2-0.895-2-2V55h48V85z"/>
		</g>
		<g>
			<polygon style="fill:#FFF5D9;" points="31,83.556 59.557,55 31,55 			"/>
		</g>
		<g>
			<path style="fill:#3D320C;" d="M79,25v14H63V23h14c0.55,0,1.05,0.22,1.41,0.59C78.78,23.95,79,24.45,79,25z"/>
		</g>
		<g>
			<rect x="47" y="39" style="fill:#3D320C;" width="16" height="16"/>
		</g>
		<g>
			<rect x="47" y="23" style="fill:#3D320C;" width="16" height="16"/>
		</g>
		<g>
			<polygon style="fill:#66510D;" points="47,55 47,39 63,39 			"/>
		</g>
		<g>
			<rect x="51" y="43" style="fill:#947615;" width="8" height="8"/>
		</g>
		<g>
			<rect x="63" y="39" style="fill:#3D320C;" width="16" height="16"/>
		</g>
		<g>
			<polygon style="fill:#66510D;" points="63,55 63,39 79,39 			"/>
		</g>
		<g>
			<path style="fill:#66510D;" d="M78.41,23.59L63,39V23h14C77.55,23,78.05,23.22,78.41,23.59z"/>
		</g>
		<g>
			<rect x="67" y="43" style="fill:#947615;" width="8" height="8"/>
		</g>
		<g>
			<polygon style="fill:#66510D;" points="47,39 47,23 63,23 			"/>
		</g>
		<g>
			<rect x="67" y="27" style="fill:#947615;" width="8" height="8"/>
		</g>
		<g>
			<rect x="51" y="27" style="fill:#947615;" width="8" height="8"/>
		</g>
		<g>
			<rect x="31" y="39" style="fill:#3D320C;" width="16" height="16"/>
		</g>
		<g>
			<path style="fill:#3D320C;" d="M31,25c0-1.104,0.896-2,2-2h14v16H31V25z"/>
		</g>
		<g>
			<polygon style="fill:#66510D;" points="31,55 31,39 47,39 			"/>
		</g>
		<g>
			<rect x="35" y="43" style="fill:#947615;" width="8" height="8"/>
		</g>
		<g>
			<path style="fill:#66510D;" d="M31,39V25c0-1.104,0.896-2,2-2h14L31,39z"/>
		</g>
		<g>
			<rect x="35" y="27" style="fill:#947615;" width="8" height="8"/>
		</g>
		<g>
			<polygon style="fill:#FFF5D9;" points="29,55 27,67 39,62 55,67 71,62 83,67 81,55 			"/>
		</g>
		<g>
			<polygon style="fill:#FFFFFF;" points="29,55 27,67 39,62 53.305,66.47 64.774,55 			"/>
		</g>
	</g>
</g>
<g id="R-Yellow" style="display:none;">
	<circle style="display:inline;fill:#FFD75E;" cx="55" cy="55" r="55"/>
	<g style="display:inline;">
		<g>
			<path style="fill:#FFE9A1;" d="M79,85c0,1.105-0.896,2-2,2H33c-1.104,0-2-0.895-2-2V55h48V85z"/>
		</g>
		<g>
			<polygon style="fill:#FFF5D9;" points="31,83.556 59.557,55 31,55 			"/>
		</g>
		<g>
			<path style="fill:#3D320C;" d="M79,25v14H63V23h14c0.55,0,1.05,0.22,1.41,0.59C78.78,23.95,79,24.45,79,25z"/>
		</g>
		<g>
			<rect x="47" y="39" style="fill:#3D320C;" width="16" height="16"/>
		</g>
		<g>
			<rect x="47" y="23" style="fill:#3D320C;" width="16" height="16"/>
		</g>
		<g>
			<polygon style="fill:#66510D;" points="47,55 47,39 63,39 			"/>
		</g>
		<g>
			<rect x="51" y="43" style="fill:#947615;" width="8" height="8"/>
		</g>
		<g>
			<rect x="63" y="39" style="fill:#3D320C;" width="16" height="16"/>
		</g>
		<g>
			<polygon style="fill:#66510D;" points="63,55 63,39 79,39 			"/>
		</g>
		<g>
			<path style="fill:#66510D;" d="M78.41,23.59L63,39V23h14C77.55,23,78.05,23.22,78.41,23.59z"/>
		</g>
		<g>
			<rect x="67" y="43" style="fill:#947615;" width="8" height="8"/>
		</g>
		<g>
			<polygon style="fill:#66510D;" points="47,39 47,23 63,23 			"/>
		</g>
		<g>
			<rect x="67" y="27" style="fill:#947615;" width="8" height="8"/>
		</g>
		<g>
			<rect x="51" y="27" style="fill:#947615;" width="8" height="8"/>
		</g>
		<g>
			<rect x="31" y="39" style="fill:#3D320C;" width="16" height="16"/>
		</g>
		<g>
			<path style="fill:#3D320C;" d="M31,25c0-1.104,0.896-2,2-2h14v16H31V25z"/>
		</g>
		<g>
			<polygon style="fill:#66510D;" points="31,55 31,39 47,39 			"/>
		</g>
		<g>
			<rect x="35" y="43" style="fill:#947615;" width="8" height="8"/>
		</g>
		<g>
			<path style="fill:#66510D;" d="M31,39V25c0-1.104,0.896-2,2-2h14L31,39z"/>
		</g>
		<g>
			<rect x="35" y="27" style="fill:#947615;" width="8" height="8"/>
		</g>
		<g>
			<polygon style="fill:#FFF5D9;" points="29,55 27,67 39,62 55,67 71,62 83,67 81,55 			"/>
		</g>
		<g>
			<polygon style="fill:#FFFFFF;" points="29,55 27,67 39,62 53.305,66.47 64.774,55 			"/>
		</g>
	</g>
</g>
</svg>
