<?xml version="1.0" encoding="iso-8859-1"?>
<!-- Generator: Adobe Illustrator 17.1.0, SVG Export Plug-In . SVG Version: 6.00 Build 0)  -->
<!DOCTYPE svg PUBLIC "-//W3C//DTD SVG 1.0//EN" "http://www.w3.org/TR/2001/REC-SVG-20010904/DTD/svg10.dtd">
<svg version="1.0" xmlns="http://www.w3.org/2000/svg" xmlns:xlink="http://www.w3.org/1999/xlink" x="0px" y="0px" width="110px"
	 height="110px" viewBox="0 0 110 110" style="enable-background:new 0 0 110 110;" xml:space="preserve">
<g id="Artboard">
</g>
<g id="Multicolor">
	<circle style="fill:#E04F5F;" cx="55" cy="55" r="55"/>
	<g>
		<g>
			<path style="fill:#099686;" d="M25.794,75.892c-0.531,0.531-0.69,1.33-0.403,2.024c0.287,0.694,0.965,1.146,1.716,1.146H82.43
				c0.777,0,1.472-0.484,1.742-1.212c0.27-0.729,0.057-1.548-0.532-2.054c-6.842-3.839-12.485-8.155-15.674-13.448h8.894
				c0.777,0,1.472-0.484,1.742-1.212c0.27-0.729,0.057-1.548-0.532-2.054c-6.595-3.274-11.918-7.67-15.674-13.448h9.286
				c0.806,0,1.52-0.52,1.768-1.287c0.247-0.767,0.05-1.741-0.683-2.077c-4.799-2.207-12.145-8.614-15.06-13.616
				c-0.573-0.983-1.629-1.591-2.766-1.591c-1.108,0-2.13,0.589-2.686,1.547c-2.94,5.059-10.287,11.453-15.211,13.759
				c-0.703,0.329-0.8,1.325-0.531,2.054s0.964,1.212,1.741,1.212h9.286c-3.778,5.954-9.334,10.32-16.17,13.544
				c-0.531,0.531-0.69,1.33-0.403,2.024c0.287,0.694,0.965,1.146,1.716,1.146h9.286C38.763,67.796,32.865,72.094,25.794,75.892z"/>
		</g>
		<g>
			<path style="fill:#12B2A0;" d="M54.979,27.065c-0.014,0-0.028-0.003-0.042-0.003c-1.108,0-2.13,0.589-2.686,1.547
				c-2.94,5.059-10.286,11.453-15.211,13.759c-0.703,0.329-0.8,1.325-0.531,2.053c0.27,0.728,0.964,1.212,1.741,1.212h9.286
				c-3.778,5.954-9.334,10.321-16.17,13.544c-0.531,0.531-0.69,1.33-0.403,2.024c0.287,0.694,0.965,1.146,1.716,1.146h9.286
				c-3.201,5.448-9.1,9.746-16.17,13.544c-0.531,0.531-0.69,1.33-0.403,2.024c0.287,0.694,0.965,1.146,1.716,1.146h27.872V27.065z"
				/>
		</g>
		<g>
			<path style="fill:#84462D;" d="M60.979,85.063c0,1.105-0.895,2-2,2h-8c-1.105,0-2-0.895-2-2v-6h12V85.063z"/>
		</g>
		<g>
			<path style="fill:#FBE158;" d="M54.509,23.267c0.04-0.122,0.153-0.204,0.281-0.204c0.128,0,0.242,0.083,0.281,0.204l0.786,2.419
				c0.04,0.122,0.153,0.204,0.281,0.204h2.544c0.128,0,0.242,0.083,0.281,0.204c0.04,0.122-0.004,0.255-0.107,0.331l-2.058,1.495
				c-0.104,0.075-0.147,0.209-0.107,0.331l0.786,2.419c0.04,0.122-0.004,0.255-0.107,0.331c-0.104,0.075-0.244,0.075-0.348,0
				l-2.058-1.495c-0.104-0.075-0.244-0.075-0.348,0l-2.058,1.495c-0.104,0.075-0.244,0.075-0.348,0
				c-0.104-0.075-0.147-0.209-0.107-0.331l0.786-2.419c0.04-0.122-0.004-0.255-0.107-0.331l-2.058-1.495
				c-0.104-0.075-0.147-0.209-0.107-0.331c0.04-0.122,0.153-0.204,0.281-0.204h2.544c0.128,0,0.242-0.083,0.281-0.204L54.509,23.267
				z"/>
		</g>
		<g>
			<path style="fill:#FACB1B;" d="M38.979,45.634h8.556c-0.065,0.102-0.14,0.195-0.205,0.296c6.477-1.894,12.44-4.992,17.637-9.037
				c-0.508-0.444-1.012-0.896-1.503-1.361C56.495,40.881,48.112,44.466,38.979,45.634z"/>
		</g>
		<g>
			<g>
				<path style="fill:#FACB1B;" d="M67.154,51.449c-0.489-0.482-0.96-0.981-1.419-1.49c-9.755,5.774-21.121,9.103-33.256,9.103
					c-0.283,0-0.561-0.018-0.843-0.021c-0.092,0.044-0.178,0.093-0.271,0.137c-0.487,0.487-0.643,1.195-0.447,1.845
					c0.521,0.012,1.038,0.04,1.561,0.04C45.15,61.063,57.013,57.547,67.154,51.449z"/>
			</g>
		</g>
		<g>
			<g>
				<path style="fill:#FACB1B;" d="M69.672,64.797c-0.422-0.535-0.821-1.08-1.19-1.637c-10.766,5.674-23.012,8.902-36.003,8.902
					c-0.097,0-0.191-0.007-0.288-0.007c-0.968,0.658-1.979,1.298-3.024,1.923c1.1,0.045,2.201,0.084,3.311,0.084
					C45.91,74.063,58.567,70.702,69.672,64.797z"/>
			</g>
		</g>
		<g>
			<circle style="fill:#DF2C2C;" cx="48.979" cy="39.062" r="2"/>
		</g>
		<g>
			<circle style="fill:#DF2C2C;" cx="58.979" cy="48.062" r="2"/>
		</g>
		<g>
			<circle style="fill:#DF2C2C;" cx="44.979" cy="56.062" r="2"/>
		</g>
		<g>
			<circle style="fill:#DF2C2C;" cx="63.979" cy="65.062" r="2"/>
		</g>
		<g>
			<circle style="fill:#DF2C2C;" cx="52.979" cy="64.062" r="2"/>
		</g>
		<g>
			<circle style="fill:#DF2C2C;" cx="43.979" cy="74.062" r="2"/>
		</g>
		<g>
			<circle style="fill:#DF2C2C;" cx="68.979" cy="74.062" r="2"/>
		</g>
		<g>
			<path style="fill:#9C6144;" d="M54.979,79.063h-6v6c0,1.104,0.895,2,2,2h4V79.063z"/>
		</g>
	</g>
</g>
</svg>
