<?xml version="1.0" encoding="iso-8859-1"?>
<!-- Generator: Adobe Illustrator 17.1.0, SVG Export Plug-In . SVG Version: 6.00 Build 0)  -->
<!DOCTYPE svg PUBLIC "-//W3C//DTD SVG 1.0//EN" "http://www.w3.org/TR/2001/REC-SVG-20010904/DTD/svg10.dtd">
<svg version="1.0" xmlns="http://www.w3.org/2000/svg" xmlns:xlink="http://www.w3.org/1999/xlink" x="0px" y="0px" width="110px"
	 height="110px" viewBox="0 0 110 110" style="enable-background:new 0 0 110 110;" xml:space="preserve">
<g id="Artboard">
</g>
<g id="Multicolor">
	<circle style="fill:#25B7D3;" cx="55" cy="55" r="55"/>
	<g>
		<g>
			<polygon style="fill:#F0F1F1;" points="61.627,47.583 31.341,77.523 35.253,81.479 38.954,85.223 69.239,55.283 			"/>
		</g>
		<g>
			
				<rect x="62.34" y="38.492" transform="matrix(0.7112 -0.703 0.703 0.7112 -9.768 64.0367)" style="fill:#F3B607;" width="21.414" height="10.828"/>
		</g>
		<g>
			<polygon style="fill:#FFFFFF;" points="61.627,47.583 31.341,77.523 35.253,81.479 65.366,51.366 			"/>
		</g>
		<g>
			<polygon style="fill:#FACB1B;" points="76.855,32.528 80.508,36.224 65.366,51.366 61.627,47.583 			"/>
		</g>
		<g>
			<circle style="fill:#FACB1B;" cx="72.856" cy="46.941" r="1"/>
		</g>
		<g>
			<circle style="fill:#FACB1B;" cx="70.011" cy="49.753" r="1"/>
		</g>
		<g>
			<circle style="fill:#FACB1B;" cx="78.545" cy="41.317" r="1"/>
		</g>
		<g>
			<circle style="fill:#FACB1B;" cx="75.701" cy="44.129" r="1"/>
		</g>
		<g>
			<circle style="fill:#FBEC9A;" cx="70.044" cy="44.096" r="1"/>
		</g>
		<g>
			<circle style="fill:#FBEC9A;" cx="67.199" cy="46.908" r="1"/>
		</g>
		<g>
			<circle style="fill:#FBEC9A;" cx="75.733" cy="38.472" r="1"/>
		</g>
		<g>
			<circle style="fill:#FBEC9A;" cx="72.889" cy="41.284" r="1"/>
		</g>
		<g>
			<path style="fill:#FFFFFF;" d="M33.882,25c0,0-4,8-4,16c0,14,7,13,4,28c2-2,8-9,8-16C41.882,44.938,33.882,41,33.882,25z"/>
		</g>
		<g>
			<path style="fill:#FFFFFF;" d="M27.102,53c0,0-3.102,4.599-3.102,8.235C24,67.599,26.882,69,27.102,73
				c0.909-0.909,2.781-5.053,2.781-8.235C29.882,61,27.102,58.882,27.102,53z"/>
		</g>
		<g>
			
				<rect x="34.601" y="74.678" transform="matrix(0.7112 -0.703 0.703 0.7112 -45.7861 48.7366)" style="fill:#DF2C2C;" width="3.642" height="10.828"/>
		</g>
		<g>
			<polygon style="fill:#FA5655;" points="33.91,74.962 37.818,78.914 35.242,81.489 31.321,77.522 			"/>
		</g>
	</g>
</g>
</svg>
