<?xml version="1.0" encoding="iso-8859-1"?>
<!-- Generator: Adobe Illustrator 17.1.0, SVG Export Plug-In . SVG Version: 6.00 Build 0)  -->
<!DOCTYPE svg PUBLIC "-//W3C//DTD SVG 1.0//EN" "http://www.w3.org/TR/2001/REC-SVG-20010904/DTD/svg10.dtd">
<svg version="1.0" xmlns="http://www.w3.org/2000/svg" xmlns:xlink="http://www.w3.org/1999/xlink" x="0px" y="0px" width="110px"
	 height="110px" viewBox="0 0 110 110" style="enable-background:new 0 0 110 110;" xml:space="preserve">
<g id="Artboard">
</g>
<g id="Multicolor">
	<circle style="fill:#25B7D3;" cx="55" cy="55" r="55"/>
	<g>
		<g>
			<path style="fill:#FFFFFF;" d="M83,55v27.94c-2.63,1.86-10.27,3.32-20,3.85C60.46,86.93,57.77,87,55,87c-1.35,0-2.69-0.02-4-0.05
				c-1.36-0.04-2.7-0.09-4-0.16c-1.38-0.08-2.71-0.17-4-0.28c-2.97-0.26-5.67-0.6-8-1.03c-3.79-0.68-6.6-1.55-8-2.54V55H83z"/>
		</g>
		<g>
			<path style="fill:#DF2C2C;" d="M76,64c-0.338,0-0.67-0.019-1-0.049V85.48c3.79-0.624,6.6-1.421,8-2.328V61.485
				C81.098,63.056,78.659,64,76,64z"/>
		</g>
		<g>
			<path style="fill:#DF2C2C;" d="M65.663,56.73c0.091-0.005,0.018,0-0.072,0.004c-1.122,3.074-3.539,5.52-6.591,6.682V86.95
				c1.36-0.04,2.7-0.09,4-0.16c1.38-0.08,2.71-0.17,4-0.28V59.292C66.45,58.506,65.994,57.649,65.663,56.73z"/>
		</g>
		<g>
			<path style="fill:#DF2C2C;" d="M44.372,56.632c-0.334,0.956-0.803,1.846-1.372,2.661V86.51c1.29,0.11,2.62,0.2,4,0.28
				c1.3,0.07,2.64,0.12,4,0.16V63.416C47.915,62.241,45.477,59.754,44.372,56.632z"/>
		</g>
		<g>
			<path style="fill:#DF2C2C;" d="M34,64c-2.659,0-5.098-0.944-7-2.515V82.94c1.4,0.99,4.21,1.86,8,2.54V63.951
				C34.67,63.981,34.338,64,34,64z"/>
		</g>
		<g>
			<path style="fill:#DF2C2C;" d="M55.02,29.02L55,29l-0.02,0.02C54.01,29.73,23,52.69,23,53c0,2.067,15.809,4,32,4
				c16.472,0,32-1.964,32-4C87,52.69,55.99,29.73,55.02,29.02z"/>
		</g>
		<g>
			<path style="fill:#FA5655;" d="M55.02,29.02L55,29l-0.02,0.02C54.01,29.73,23,52.69,23,53c0,1.371,6.955,2.682,16.36,3.41
				l22.399-22.399C58.016,31.234,55.296,29.222,55.02,29.02z"/>
		</g>
		<g>
			<path style="fill:#F3B607;" d="M73,34c0-2.761-4.239-7-7-7h-2v-3h-8v6h6v2C66,32,70,32,73,34z"/>
		</g>
		<g>
			<rect x="56" y="24" style="fill:#FACB1B;" width="8" height="6"/>
		</g>
		<g>
			<path style="fill:#9C6144;" d="M54.98,29.02L55,29l0.02,0.02c0.089,0.065,0.434,0.32,0.98,0.724V24c0-0.552-0.448-1-1-1
				s-1,0.448-1,1v5.744C54.546,29.34,54.891,29.085,54.98,29.02z"/>
		</g>
		<g>
			<path style="fill:#F0F1F1;" d="M55,57c3.636,0,7.225-0.096,10.612-0.267L55,29L44.37,56.729C47.78,56.903,51.38,57,55,57z"/>
		</g>
		<g>
			<polygon style="fill:#F3B607;" points="64,30 62,30 62,32 			"/>
		</g>
		<g>
			<g>
				<path style="fill:#BF0302;" d="M23,53c0,6.075,4.925,11,11,11c4.764,0,8.809-3.035,10.338-7.272C32.514,56.125,23,54.604,23,53z
					"/>
			</g>
		</g>
		<g>
			<g>
				<path style="fill:#BF0302;" d="M65.663,56.73C67.192,60.966,71.237,64,76,64c6.075,0,11-4.925,11-11
					C87,54.584,77.596,56.125,65.663,56.73z"/>
			</g>
		</g>
		<g>
			<path style="fill:#CFD3D4;" d="M55,56.975c-3.606,0-7.192-0.094-10.599-0.262c1.573,4.338,5.718,7.443,10.599,7.443
				c4.88,0,9.025-3.104,10.598-7.441C62.208,56.882,58.627,56.975,55,56.975z"/>
		</g>
		<g>
			<path style="fill:#3E3E3F;" d="M55,71c4.42,0,8,3.58,8,8v7.79C60.46,86.93,57.77,87,55,87s-5.46-0.07-8-0.21V79
				C47,74.58,50.58,71,55,71z"/>
		</g>
		<g>
			<polygon style="fill:#FFFFFF;" points="58.257,37.512 55,29 47.684,48.086 			"/>
		</g>
	</g>
</g>
</svg>
