<?xml version="1.0" encoding="iso-8859-1"?>
<!-- Generator: Adobe Illustrator 17.1.0, SVG Export Plug-In . SVG Version: 6.00 Build 0)  -->
<!DOCTYPE svg PUBLIC "-//W3C//DTD SVG 1.0//EN" "http://www.w3.org/TR/2001/REC-SVG-20010904/DTD/svg10.dtd">
<svg version="1.0" xmlns="http://www.w3.org/2000/svg" xmlns:xlink="http://www.w3.org/1999/xlink" x="0px" y="0px" width="110px"
	 height="110px" viewBox="0 0 110 110" style="enable-background:new 0 0 110 110;" xml:space="preserve">
<g id="Artboard" style="display:none;">
	
		<rect x="-72.5" y="-418.5" style="display:inline;fill:#808080;stroke:#000000;stroke-miterlimit:10;" width="1392" height="1369"/>
</g>
<g id="R-Multicolor">
	<circle style="fill:#25B7D3;" cx="55" cy="55" r="55"/>
	<g>
		<g>
			<path style="fill:#3E3E3F;" d="M55,57.002c-12.012,0-22.471-2.897-27.944-7.179C24.476,53.427,23,57.579,23,62.002
				c0,13.807,14.327,25,32,25c17.673,0,32-11.193,32-25c0-4.423-1.476-8.575-4.056-12.179C77.471,54.105,67.012,57.002,55,57.002z"
				/>
		</g>
		<g>
			<path style="fill:#5B5C5F;" d="M27.056,49.822C24.476,53.427,23,57.579,23,62.002c0,13.807,14.327,25,32,25v-30
				C42.988,57.002,32.528,54.104,27.056,49.822z"/>
		</g>
		<g>
			<ellipse style="fill:#9E9FA0;" cx="55" cy="43.002" rx="32" ry="14"/>
		</g>
		<g>
			<path style="fill:#F4D0A1;" d="M83,43.002c0,2.32-2.21,4.45-5.91,6.14c-2.94,1.35-6.82,2.42-11.28,3.08
				c-3.33,0.5-6.98,0.78-10.81,0.78c-15.46,0-28-4.48-28-10s12.54-10,28-10c7.05,0,13.49,0.93,18.41,2.47
				c2.86,0.89,5.2,1.98,6.86,3.22C82.02,39.992,83,41.462,83,43.002z"/>
		</g>
		<g>
			<g>
				<path style="fill:#84462D;" d="M83.81,27.062l-6.72,22.08c-2.94,1.35-6.82,2.42-11.28,3.08l12.38-27.28
					c0.59-1.55,2.32-2.33,3.87-1.75C83.61,23.782,84.39,25.512,83.81,27.062z"/>
			</g>
		</g>
	</g>
</g>
<g id="Multicolor" style="display:none;">
	<g style="display:inline;">
		<g>
			<path style="fill:#3E3E3F;" d="M55,57.002c-12.012,0-22.471-2.897-27.944-7.179C24.476,53.427,23,57.579,23,62.002
				c0,13.807,14.327,25,32,25c17.673,0,32-11.193,32-25c0-4.423-1.476-8.575-4.056-12.179C77.471,54.105,67.012,57.002,55,57.002z"
				/>
		</g>
		<g>
			<path style="fill:#5B5C5F;" d="M27.056,49.822C24.476,53.427,23,57.579,23,62.002c0,13.807,14.327,25,32,25v-30
				C42.988,57.002,32.528,54.104,27.056,49.822z"/>
		</g>
		<g>
			<ellipse style="fill:#9E9FA0;" cx="55" cy="43.002" rx="32" ry="14"/>
		</g>
		<g>
			<path style="fill:#F4D0A1;" d="M83,43.002c0,2.32-2.21,4.45-5.91,6.14c-2.94,1.35-6.82,2.42-11.28,3.08
				c-3.33,0.5-6.98,0.78-10.81,0.78c-15.46,0-28-4.48-28-10s12.54-10,28-10c7.05,0,13.49,0.93,18.41,2.47
				c2.86,0.89,5.2,1.98,6.86,3.22C82.02,39.992,83,41.462,83,43.002z"/>
		</g>
		<g>
			<g>
				<path style="fill:#84462D;" d="M83.81,27.062l-6.72,22.08c-2.94,1.35-6.82,2.42-11.28,3.08l12.38-27.28
					c0.59-1.55,2.32-2.33,3.87-1.75C83.61,23.782,84.39,25.512,83.81,27.062z"/>
			</g>
		</g>
	</g>
</g>
<g id="Blue" style="display:none;">
	<g style="display:inline;">
		<g>
			<path style="fill:#0C333D;" d="M55,57.002c-12.012,0-22.471-2.897-27.944-7.18C24.477,53.427,23,57.579,23,62.002
				c0,13.807,14.326,25,32,25s32-11.193,32-25c0-4.423-1.477-8.575-4.056-12.18C77.471,54.105,67.012,57.002,55,57.002z"/>
		</g>
		<g>
			<path style="fill:#0F6175;" d="M27.056,49.822C24.477,53.427,23,57.579,23,62.002c0,13.807,14.327,25,32,25v-30
				C42.988,57.002,32.528,54.104,27.056,49.822z"/>
		</g>
		<g>
			<ellipse style="fill:#33899E;" cx="55" cy="43.002" rx="32" ry="14"/>
		</g>
		<g>
			<path style="fill:#00B7E5;" d="M83,43.002c0,2.32-2.21,4.45-5.91,6.14c-2.939,1.35-6.82,2.42-11.279,3.08
				c-3.33,0.5-6.98,0.78-10.811,0.78c-15.46,0-28-4.48-28-10c0-5.52,12.54-10,28-10c7.051,0,13.49,0.93,18.41,2.47
				c2.859,0.89,5.199,1.98,6.859,3.22C82.02,39.992,83,41.462,83,43.002z"/>
		</g>
		<g>
			<g>
				<path style="fill:#E1F5FA;" d="M83.811,27.062l-6.721,22.08c-2.939,1.35-6.82,2.42-11.279,3.08l12.379-27.28
					c0.591-1.55,2.32-2.33,3.871-1.75C83.609,23.782,84.391,25.512,83.811,27.062z"/>
			</g>
		</g>
	</g>
</g>
<g id="R-Blue" style="display:none;">
	<circle style="display:inline;fill:#81D2EB;" cx="55" cy="55" r="55"/>
	<g style="display:inline;">
		<g>
			<path style="fill:#0C333D;" d="M55,57.002c-12.012,0-22.471-2.897-27.944-7.18C24.477,53.427,23,57.579,23,62.002
				c0,13.807,14.326,25,32,25s32-11.193,32-25c0-4.423-1.477-8.575-4.056-12.18C77.471,54.105,67.012,57.002,55,57.002z"/>
		</g>
		<g>
			<path style="fill:#0F6175;" d="M27.056,49.822C24.477,53.427,23,57.579,23,62.002c0,13.807,14.327,25,32,25v-30
				C42.988,57.002,32.528,54.104,27.056,49.822z"/>
		</g>
		<g>
			<ellipse style="fill:#33899E;" cx="55" cy="43.002" rx="32" ry="14"/>
		</g>
		<g>
			<path style="fill:#00B7E5;" d="M83,43.002c0,2.32-2.21,4.45-5.91,6.14c-2.939,1.35-6.82,2.42-11.279,3.08
				c-3.33,0.5-6.98,0.78-10.811,0.78c-15.46,0-28-4.48-28-10c0-5.52,12.54-10,28-10c7.051,0,13.49,0.93,18.41,2.47
				c2.859,0.89,5.199,1.98,6.859,3.22C82.02,39.992,83,41.462,83,43.002z"/>
		</g>
		<g>
			<g>
				<path style="fill:#E1F5FA;" d="M83.811,27.062l-6.721,22.08c-2.939,1.35-6.82,2.42-11.279,3.08l12.379-27.28
					c0.591-1.55,2.32-2.33,3.871-1.75C83.609,23.782,84.391,25.512,83.811,27.062z"/>
			</g>
		</g>
	</g>
</g>
<g id="Green" style="display:none;">
	<g style="display:inline;">
		<g>
			<path style="fill:#0A3631;" d="M55,57.002c-12.012,0-22.471-2.897-27.944-7.18C24.477,53.427,23,57.579,23,62.002
				c0,13.807,14.326,25,32,25s32-11.193,32-25c0-4.423-1.477-8.575-4.056-12.18C77.471,54.105,67.012,57.002,55,57.002z"/>
		</g>
		<g>
			<path style="fill:#14635B;" d="M27.056,49.822C24.477,53.427,23,57.579,23,62.002c0,13.807,14.327,25,32,25v-30
				C42.988,57.002,32.528,54.104,27.056,49.822z"/>
		</g>
		<g>
			<ellipse style="fill:#3E948B;" cx="55" cy="43.002" rx="32" ry="14"/>
		</g>
		<g>
			<path style="fill:#00D6C1;" d="M83,43.002c0,2.32-2.21,4.45-5.91,6.14c-2.939,1.35-6.82,2.42-11.279,3.08
				c-3.33,0.5-6.98,0.78-10.81,0.78c-15.46,0-28-4.48-28-10c0-5.52,12.54-10,28-10c7.051,0,13.49,0.93,18.41,2.47
				c2.859,0.89,5.199,1.98,6.859,3.22C82.019,39.992,83,41.462,83,43.002z"/>
		</g>
		<g>
			<g>
				<path style="fill:#D7FCF9;" d="M83.81,27.062l-6.721,22.08c-2.939,1.35-6.82,2.42-11.279,3.08l12.379-27.28
					c0.591-1.55,2.32-2.33,3.871-1.75C83.609,23.782,84.391,25.512,83.81,27.062z"/>
			</g>
		</g>
	</g>
</g>
<g id="R-Green" style="display:none;">
	<circle style="display:inline;fill:#77E0C4;" cx="55" cy="55" r="55"/>
	<g style="display:inline;">
		<g>
			<path style="fill:#0A3631;" d="M55,57.002c-12.012,0-22.471-2.897-27.944-7.18C24.477,53.427,23,57.579,23,62.002
				c0,13.807,14.326,25,32,25s32-11.193,32-25c0-4.423-1.477-8.575-4.056-12.18C77.471,54.105,67.012,57.002,55,57.002z"/>
		</g>
		<g>
			<path style="fill:#14635B;" d="M27.056,49.822C24.477,53.427,23,57.579,23,62.002c0,13.807,14.327,25,32,25v-30
				C42.988,57.002,32.528,54.104,27.056,49.822z"/>
		</g>
		<g>
			<ellipse style="fill:#3E948B;" cx="55" cy="43.002" rx="32" ry="14"/>
		</g>
		<g>
			<path style="fill:#00D6C1;" d="M83,43.002c0,2.32-2.21,4.45-5.91,6.14c-2.939,1.35-6.82,2.42-11.279,3.08
				c-3.33,0.5-6.98,0.78-10.811,0.78c-15.46,0-28-4.48-28-10c0-5.52,12.54-10,28-10c7.051,0,13.49,0.93,18.41,2.47
				c2.859,0.89,5.199,1.98,6.859,3.22C82.02,39.992,83,41.462,83,43.002z"/>
		</g>
		<g>
			<g>
				<path style="fill:#D7FCF9;" d="M83.811,27.062l-6.721,22.08c-2.939,1.35-6.82,2.42-11.279,3.08l12.379-27.28
					c0.591-1.55,2.32-2.33,3.871-1.75C83.609,23.782,84.391,25.512,83.811,27.062z"/>
			</g>
		</g>
	</g>
</g>
<g id="Red" style="display:none;">
	<g style="display:inline;">
		<g>
			<path style="fill:#4A1410;" d="M55,57.002c-12.012,0-22.471-2.897-27.944-7.18C24.477,53.427,23,57.579,23,62.002
				c0,13.807,14.326,25,32,25s32-11.193,32-25c0-4.423-1.477-8.575-4.056-12.18C77.471,54.105,67.012,57.002,55,57.002z"/>
		</g>
		<g>
			<path style="fill:#7D261E;" d="M27.056,49.822C24.477,53.427,23,57.579,23,62.002c0,13.807,14.327,25,32,25v-30
				C42.988,57.002,32.528,54.104,27.056,49.822z"/>
		</g>
		<g>
			<ellipse style="fill:#B84E44;" cx="55" cy="43.002" rx="32" ry="14"/>
		</g>
		<g>
			<path style="fill:#FF6C5E;" d="M83,43.002c0,2.32-2.21,4.45-5.91,6.14c-2.939,1.35-6.82,2.42-11.279,3.08
				c-3.33,0.5-6.98,0.78-10.811,0.78c-15.46,0-28-4.48-28-10c0-5.52,12.54-10,28-10c7.051,0,13.49,0.93,18.41,2.47
				c2.859,0.89,5.199,1.98,6.859,3.22C82.02,39.992,83,41.462,83,43.002z"/>
		</g>
		<g>
			<g>
				<path style="fill:#FFEFED;" d="M83.811,27.062l-6.721,22.08c-2.939,1.35-6.82,2.42-11.279,3.08l12.379-27.28
					c0.591-1.55,2.32-2.33,3.871-1.75C83.609,23.782,84.391,25.512,83.811,27.062z"/>
			</g>
		</g>
	</g>
</g>
<g id="R-Red" style="display:none;">
	<circle style="display:inline;fill:#FABBAF;" cx="55" cy="55" r="55"/>
	<g style="display:inline;">
		<g>
			<path style="fill:#4A1410;" d="M55,57.002c-12.012,0-22.471-2.897-27.944-7.18C24.477,53.427,23,57.579,23,62.002
				c0,13.807,14.326,25,32,25s32-11.193,32-25c0-4.423-1.477-8.575-4.056-12.18C77.471,54.105,67.012,57.002,55,57.002z"/>
		</g>
		<g>
			<path style="fill:#7D261E;" d="M27.056,49.822C24.477,53.427,23,57.579,23,62.002c0,13.807,14.327,25,32,25v-30
				C42.988,57.002,32.528,54.104,27.056,49.822z"/>
		</g>
		<g>
			<ellipse style="fill:#B84E44;" cx="55" cy="43.002" rx="32" ry="14"/>
		</g>
		<g>
			<path style="fill:#FF6C5E;" d="M83,43.002c0,2.32-2.21,4.45-5.91,6.14c-2.939,1.35-6.82,2.42-11.279,3.08
				c-3.33,0.5-6.98,0.78-10.811,0.78c-15.46,0-28-4.48-28-10c0-5.52,12.54-10,28-10c7.051,0,13.49,0.93,18.41,2.47
				c2.859,0.89,5.199,1.98,6.859,3.22C82.02,39.992,83,41.462,83,43.002z"/>
		</g>
		<g>
			<g>
				<path style="fill:#FFEFED;" d="M83.811,27.062l-6.721,22.08c-2.939,1.35-6.82,2.42-11.279,3.08l12.379-27.28
					c0.591-1.55,2.32-2.33,3.871-1.75C83.609,23.782,84.391,25.512,83.811,27.062z"/>
			</g>
		</g>
	</g>
</g>
<g id="Yellow" style="display:none;">
	<g style="display:inline;">
		<g>
			<path style="fill:#3D320C;" d="M55,57.002c-12.012,0-22.471-2.897-27.944-7.18C24.477,53.427,23,57.579,23,62.002
				c0,13.807,14.326,25,32,25s32-11.193,32-25c0-4.423-1.477-8.575-4.056-12.18C77.471,54.105,67.012,57.002,55,57.002z"/>
		</g>
		<g>
			<path style="fill:#66510D;" d="M27.056,49.822C24.477,53.427,23,57.579,23,62.002c0,13.807,14.327,25,32,25v-30
				C42.988,57.002,32.528,54.104,27.056,49.822z"/>
		</g>
		<g>
			<ellipse style="fill:#947615;" cx="55" cy="43.002" rx="32" ry="14"/>
		</g>
		<g>
			<path style="fill:#FFAA00;" d="M83,43.002c0,2.32-2.21,4.45-5.91,6.14c-2.939,1.35-6.82,2.42-11.279,3.08
				c-3.33,0.5-6.98,0.78-10.811,0.78c-15.46,0-28-4.48-28-10c0-5.52,12.54-10,28-10c7.051,0,13.49,0.93,18.41,2.47
				c2.859,0.89,5.199,1.98,6.859,3.22C82.02,39.992,83,41.462,83,43.002z"/>
		</g>
		<g>
			<g>
				<path style="fill:#FFF5D9;" d="M83.811,27.062l-6.721,22.08c-2.939,1.35-6.82,2.42-11.279,3.08l12.379-27.28
					c0.591-1.55,2.32-2.33,3.871-1.75C83.609,23.782,84.391,25.512,83.811,27.062z"/>
			</g>
		</g>
	</g>
</g>
<g id="R-Yellow" style="display:none;">
	<circle style="display:inline;fill:#FFD75E;" cx="55" cy="55" r="55"/>
	<g style="display:inline;">
		<g>
			<path style="fill:#3D320C;" d="M55,57.002c-12.012,0-22.471-2.897-27.944-7.18C24.477,53.427,23,57.579,23,62.002
				c0,13.807,14.326,25,32,25s32-11.193,32-25c0-4.423-1.477-8.575-4.056-12.18C77.471,54.105,67.012,57.002,55,57.002z"/>
		</g>
		<g>
			<path style="fill:#66510D;" d="M27.056,49.822C24.477,53.427,23,57.579,23,62.002c0,13.807,14.327,25,32,25v-30
				C42.988,57.002,32.528,54.104,27.056,49.822z"/>
		</g>
		<g>
			<ellipse style="fill:#947615;" cx="55" cy="43.002" rx="32" ry="14"/>
		</g>
		<g>
			<path style="fill:#FFAA00;" d="M83,43.002c0,2.32-2.21,4.45-5.91,6.14c-2.939,1.35-6.82,2.42-11.279,3.08
				c-3.33,0.5-6.98,0.78-10.81,0.78c-15.46,0-28-4.48-28-10c0-5.52,12.54-10,28-10c7.051,0,13.49,0.93,18.41,2.47
				c2.859,0.89,5.199,1.98,6.859,3.22C82.019,39.992,83,41.462,83,43.002z"/>
		</g>
		<g>
			<g>
				<path style="fill:#FFF5D9;" d="M83.81,27.062l-6.721,22.08c-2.939,1.35-6.82,2.42-11.279,3.08l12.379-27.28
					c0.591-1.55,2.32-2.33,3.871-1.75C83.609,23.782,84.391,25.512,83.81,27.062z"/>
			</g>
		</g>
	</g>
</g>
</svg>
