<?xml version="1.0" encoding="iso-8859-1"?>
<!-- Generator: Adobe Illustrator 17.1.0, SVG Export Plug-In . SVG Version: 6.00 Build 0)  -->
<!DOCTYPE svg PUBLIC "-//W3C//DTD SVG 1.0//EN" "http://www.w3.org/TR/2001/REC-SVG-20010904/DTD/svg10.dtd">
<svg version="1.0" xmlns="http://www.w3.org/2000/svg" xmlns:xlink="http://www.w3.org/1999/xlink" x="0px" y="0px" width="110px"
	 height="110px" viewBox="0 0 110 110" style="enable-background:new 0 0 110 110;" xml:space="preserve">
<g id="Artboard">
</g>
<g id="Multicolor">
	<circle style="fill:#32BEA6;" cx="55" cy="55" r="55"/>
	<g>
		<g>
			<ellipse style="fill:#9C6144;" cx="55" cy="83" rx="12" ry="4"/>
		</g>
		<path style="fill:#84462D;" d="M59.001,31l-0.589-2.94c-0.186-0.926-0.852-1.575-1.617-1.575h-4.064
			c-0.765,0-1.432,0.649-1.617,1.575L50.524,31H59.001z"/>
		<g>
			<path style="fill:#F0F1F1;" d="M72.106,45.553c0.62,0.31,1.356,0.277,1.946-0.088C74.641,45.101,75,44.457,75,43.764v-7.322
				c0-0.861-0.551-1.625-1.368-1.897L61,31H49l-12.632,3.544C35.551,34.816,35,35.581,35,36.442v7.322
				c0,0.693,0.359,1.337,0.949,1.701c0.59,0.364,1.317,0.38,1.946,0.088C52,39,40.501,57.88,39.06,70.543
				c-0.129,1.132,0.232,2.265,0.99,3.116C40.809,74.509,41.895,75,43.034,75C48.345,75,55,75,55,75s6.656,0,11.966,0
				c1.14,0,2.227-0.487,2.986-1.338s1.117-1.986,0.988-3.119C69.486,57.761,57,39,72.106,45.553z"/>
		</g>
		<g>
			<path style="fill:#84462D;" d="M53,75h4v6c0,0,0,1-2,1s-2-1-2-1V75z"/>
		</g>
		<g>
			<path style="fill:#FFFFFF;" d="M49,31l-12.632,3.544C35.551,34.816,35,35.581,35,36.441v7.323c0,0.693,0.359,1.337,0.948,1.701
				c0.59,0.364,1.317,0.379,1.946,0.087C52,39,40.501,57.88,39.06,70.543c-0.129,1.132,0.232,2.265,0.99,3.116S41.895,75,43.034,75
				C48.345,75,55,75,55,75V31H49z"/>
		</g>
	</g>
</g>
</svg>
