<?xml version="1.0" encoding="iso-8859-1"?>
<!-- Generator: Adobe Illustrator 17.1.0, SVG Export Plug-In . SVG Version: 6.00 Build 0)  -->
<!DOCTYPE svg PUBLIC "-//W3C//DTD SVG 1.0//EN" "http://www.w3.org/TR/2001/REC-SVG-20010904/DTD/svg10.dtd">
<svg version="1.0" xmlns="http://www.w3.org/2000/svg" xmlns:xlink="http://www.w3.org/1999/xlink" x="0px" y="0px" width="110px"
	 height="110px" viewBox="0 0 110 110" style="enable-background:new 0 0 110 110;" xml:space="preserve">
<g id="Artboard">
</g>
<g id="Multicolor">
	<circle style="fill:#32BEA6;" cx="55" cy="55" r="55"/>
	<g>
		<g>
			<path style="fill:#F0F1F1;" d="M83,79h-4V31H31v48h-4V31c0-2.206,1.794-4,4-4h48c2.206,0,4,1.794,4,4V79z"/>
		</g>
		<rect x="31" y="75" style="fill:#E2E4E5;" width="48" height="4"/>
		<path style="fill:#FFFFFF;" d="M64.277,41.17c0.406-0.507,0.658-1.137,0.706-1.906L60,36.42V26h-2v10.42l-3,1.71l-2.02,1.15
			L55,40.44l2.02-1.16L59,38.15L64.277,41.17z"/>
		<path style="fill:#DF2C2C;" d="M59,67h10V46l3,3l5-4l-5-6h-7c0,3-3,4-6,4"/>
		<path style="fill:#FACB1B;" d="M64,39h-7c0,3-3,4-6,4s-6-1-6-4h-7l-5,6l5,4l3-3v21h10h10V46l3,3l5-4L64,39z"/>
		<path style="fill:#3E3E3F;" d="M81,87c2.209,0,4-1.791,4-4h-8C77,85.209,78.791,87,81,87z"/>
		<path style="fill:#FFFFFF;" d="M81,77c-3.314,0-6,2.686-6,6h12C87,79.686,84.314,77,81,77z"/>
		<path style="fill:#3E3E3F;" d="M29,87c2.209,0,4-1.791,4-4h-8C25,85.209,26.791,87,29,87z"/>
		<path style="fill:#FFFFFF;" d="M29,77c-3.314,0-6,2.686-6,6h12C35,79.686,32.314,77,29,77z"/>
		<path style="fill:#FFFFFF;" d="M45.723,41.17L51,38.15l1.98,1.13L55,40.44l1.277,0.73c0.407-0.508,0.659-1.14,0.707-1.911
			L55,38.13l-3-1.71V26h-2v10.42l-4.983,2.844C45.065,40.033,45.317,40.663,45.723,41.17z"/>
		<path style="fill:#FBE158;" d="M63.904,39H57c0,3-3,4-6,4s-6-1-6-4h-7l-5,6l5,4l3-3v15.905L63.904,39z"/>
		<polygon style="fill:#3E3E3F;" points="52,46 46,53 51,53 47,59 56,51 50,51 		"/>
	</g>
</g>
</svg>
