<?xml version="1.0" encoding="iso-8859-1"?>
<!-- Generator: Adobe Illustrator 17.1.0, SVG Export Plug-In . SVG Version: 6.00 Build 0)  -->
<!DOCTYPE svg PUBLIC "-//W3C//DTD SVG 1.0//EN" "http://www.w3.org/TR/2001/REC-SVG-20010904/DTD/svg10.dtd">
<svg version="1.0" xmlns="http://www.w3.org/2000/svg" xmlns:xlink="http://www.w3.org/1999/xlink" x="0px" y="0px" width="110px"
	 height="110px" viewBox="0 0 110 110" style="enable-background:new 0 0 110 110;" xml:space="preserve">
<g id="Artboard">
</g>
<g id="Multicolor">
	<circle style="fill:#25B7D3;" cx="55" cy="55" r="55"/>
	<g>
		<path style="fill:#F0F1F1;" d="M79,43.006C80.199,32.219,69.636,23,59,23c-9.324,0-18.992,7.09-19.908,16.173
			C30.425,37.871,23,44.603,23,53c0,7.732,6.268,14,14,14h38c6.627,0,12-5.373,12-12C87,48.265,82,43.006,79,43.006z"/>
		<path style="fill:#FFFFFF;" d="M59,23c-9.324,0-18.992,7.09-19.908,16.173C30.425,37.871,23,44.603,23,53c0,7.732,6.268,14,14,14
			h0.747l36.842-36.842C70.729,25.818,64.877,23,59,23z"/>
		<path style="fill:#3E3E3F;" d="M49.883,36.993V52.74c-3.161-0.745-6.447,0.82-6.447,3.036c0,1.78,2.165,3.223,4.835,3.223
			s4.835-1.443,4.835-3.223V39.102l9.67-4.231v11.423c-3.161-0.745-6.447,0.82-6.447,3.036c0,1.78,2.165,3.223,4.835,3.223
			S66,51.11,66,49.33V29.942L49.883,36.993z"/>
		<circle style="fill:#FFFFFF;" cx="66" cy="73" r="14"/>
		<path style="fill:#17B198;" d="M74.662,74.143c-0.179-0.431-0.599-0.712-1.066-0.712h-2.983v-8.074
			c0-0.637-0.516-1.153-1.153-1.153H62.54c-0.637,0-1.153,0.516-1.153,1.153v8.074h-2.983c-0.466,0-0.887,0.281-1.066,0.712
			c-0.179,0.431-0.08,0.927,0.25,1.257l7.574,6.934c0.451,0.451,1.18,0.451,1.631,0l7.619-6.934
			C74.742,75.07,74.841,74.574,74.662,74.143z"/>
	</g>
</g>
</svg>
