<?xml version="1.0" encoding="iso-8859-1"?>
<!-- Generator: Adobe Illustrator 17.1.0, SVG Export Plug-In . SVG Version: 6.00 Build 0)  -->
<!DOCTYPE svg PUBLIC "-//W3C//DTD SVG 1.0//EN" "http://www.w3.org/TR/2001/REC-SVG-20010904/DTD/svg10.dtd">
<svg version="1.0" xmlns="http://www.w3.org/2000/svg" xmlns:xlink="http://www.w3.org/1999/xlink" x="0px" y="0px" width="110px"
	 height="110px" viewBox="0 0 110 110" style="enable-background:new 0 0 110 110;" xml:space="preserve">
<g id="Artboard">
</g>
<g id="Multicolor">
	<circle style="fill:#E04F5F;" cx="55" cy="55" r="55"/>
	<g>
		<g>
			<path style="fill:#F3B607;" d="M81.383,52.157C83.592,50.69,85,48.477,85,46c0-4.417-4.496-8.049-10.113-7.995
				C75.683,34.234,72.022,31,67.5,31c-4.142,0-7.5,2.686-7.5,6c0,2.849,2.484,5.229,5.812,5.842
				c-2.04,3.793-0.128,8.178,4.359,10.162c-2.56,1.824-4.224,4.722-4.224,7.996c0,5.523,4.713,10,10.526,10S87,66.523,87,61
				C87,57.162,84.722,53.834,81.383,52.157z"/>
		</g>
		<g>
			<path style="fill:#F3B607;" d="M42.5,31c-4.54,0-8.18,3.249-7.387,7.005C29.496,37.951,25,41.583,25,46
				c0,2.477,1.408,4.69,3.617,6.157C25.278,53.834,23,57.162,23,61c0,5.523,4.713,10,10.526,10c5.814,0,10.526-4.477,10.526-10
				c0-3.274-1.664-6.172-4.224-7.996c4.502-1.991,6.392-6.382,4.359-10.162C47.516,42.229,50,39.849,50,37
				C50,33.686,46.642,31,42.5,31z"/>
		</g>
		<g>
			<path style="fill:#F7B4B4;" d="M66,82c0,0,0,0-0.01,0.01C61.964,85.02,60.991,87,55,87c-5.994,0-6.971-1.984-10.99-4.99
				C44,82,44,82,44,82c-20-9-4-25-4-25s-3-25,15-25s15,25,15,25S86,73,66,82z"/>
		</g>
		<g>
			<path style="fill:#FBC8C8;" d="M40,57c0,0-16,16,4,25c0,0,0,0,0.01,0.01C48.029,85.016,49.006,87,55,87V32C37,32,40,57,40,57z"/>
		</g>
		<g>
			<path style="fill:#FFFFFF;" d="M63.907,55c1.796,0,3.262-1.433,3.304-3.229C67.322,47.098,66.691,39,61,39c-6,0-6,16-6,16H63.907
				z"/>
		</g>
		<g>
			<path style="fill:#6FDAF1;" d="M66.394,44h-9.908c0.88-2.783,2.281-5,4.514-5C63.978,39,65.568,41.217,66.394,44z"/>
		</g>
		<g>
			<circle style="fill:#FA5655;" cx="55" cy="63" r="6"/>
		</g>
		<g>
			<path style="fill:#FFFFFF;" d="M46.093,55c-1.796,0-3.262-1.433-3.304-3.229C42.678,47.098,43.309,39,49,39c6,0,6,16,6,16H46.093
				z"/>
		</g>
		<g>
			<path style="fill:#FFFFFF;" d="M66,82c0,0,0,0-0.01,0.01C61.964,85.02,60.991,87,55,87c-5.994,0-6.971-1.984-10.99-4.99
				C44,82,44,82,44,82s-10-8-6-14s10,1,17,1s13-7,17-1S66,82,66,82z"/>
		</g>
		<g>
			<path style="fill:#DF2C2C;" d="M70.84,68.581c-0.355-0.399-0.962-0.448-1.377-0.112C67.93,69.712,63.109,73,55,73
				c-8.109,0-12.93-3.288-14.463-4.531c-0.415-0.337-1.022-0.288-1.377,0.112C38.57,69.244,37.85,70.85,40,73c4,4,4,3,6,6s5,6,9,6
				s7-3,9-6s2-2,6-6C72.15,70.85,71.43,69.244,70.84,68.581z"/>
		</g>
		<g>
			<path style="fill:#F79392;" d="M55,75c-7,0-12-2-12-2c5,4,7,10,12,10s7-6,12-10C67,73,62,75,55,75z"/>
		</g>
		<g>
			<path style="fill:#F79392;" d="M49,63c0,3.314,2.686,6,6,6V57C51.686,57,49,59.686,49,63z"/>
		</g>
		<g>
			<path style="fill:#3E3E3F;" d="M60.721,30.015l-1.158-3.401c-0.84-2.468-3.342-3.967-5.914-3.543l-4.24,0.698
				c-2.573,0.423-4.462,2.644-4.468,5.251l-0.007,3.592c-1.719,0.283-3,1.622-3.289,3.244c-0.057,0.32,0.045,0.647,0.273,0.878
				c0.228,0.231,0.554,0.337,0.874,0.284l21.371-3.516c0.32-0.053,0.595-0.258,0.737-0.55s0.134-0.635-0.023-0.919
				C64.082,30.59,62.44,29.732,60.721,30.015z"/>
		</g>
		<g>
			<path style="fill:#3E3E3F;" d="M48.647,45.691c-0.708,0-1.363,0.21-1.923,0.559c2.041,1.19,0.365,4.237-1.725,3.164
				C45.037,51.4,46.652,53,48.647,53c2.018,0,3.654-1.636,3.654-3.654C52.302,47.327,50.665,45.691,48.647,45.691z"/>
		</g>
		<g>
			<path style="fill:#3E3E3F;" d="M61.346,45.691c-0.708,0-1.363,0.21-1.923,0.559c2.041,1.19,0.365,4.237-1.725,3.164
				C57.735,51.4,59.351,53,61.346,53C63.364,53,65,51.364,65,49.346C65,47.327,63.364,45.691,61.346,45.691z"/>
		</g>
		<g>
			<path style="fill:#6FDAF1;" d="M43.606,44h9.908c-0.88-2.783-2.281-5-4.514-5C46.022,39,44.432,41.217,43.606,44z"/>
		</g>
		<path style="fill:#5B5C5F;" d="M51.64,23.402l-2.231,0.367c-2.572,0.423-4.462,2.644-4.467,5.251l-0.007,3.593
			c-1.719,0.283-3,1.621-3.29,3.244c-0.057,0.32,0.044,0.647,0.272,0.878c0.228,0.231,0.554,0.337,0.875,0.285l10.469-1.723
			L51.64,23.402z"/>
	</g>
</g>
</svg>
