<?xml version="1.0" encoding="iso-8859-1"?>
<!-- Generator: Adobe Illustrator 17.1.0, SVG Export Plug-In . SVG Version: 6.00 Build 0)  -->
<!DOCTYPE svg PUBLIC "-//W3C//DTD SVG 1.0//EN" "http://www.w3.org/TR/2001/REC-SVG-20010904/DTD/svg10.dtd">
<svg version="1.0" xmlns="http://www.w3.org/2000/svg" xmlns:xlink="http://www.w3.org/1999/xlink" x="0px" y="0px" width="110px"
	 height="110px" viewBox="0 0 110 110" style="enable-background:new 0 0 110 110;" xml:space="preserve">
<g id="Artboard">
</g>
<g id="Multicolor">
	<circle style="fill:#25B7D3;" cx="55" cy="55" r="55"/>
	<g>
		<g>
			<path style="fill:#F0F1F1;" d="M79,27c0-2.209-1.791-4-4-4H35c-2.209,0-4,1.791-4,4v56c0,2.209,1.791,4,4,4h40
				c2.209,0,4-1.791,4-4V27z"/>
		</g>
		<g>
			<path style="fill:#FFFFFF;" d="M77.973,24.346C77.24,23.526,76.186,23,75,23H35c-2.209,0-4,1.791-4,4v44.319L77.973,24.346z"/>
		</g>
		<g>
			<path style="fill:#3E3E3F;" d="M65,49c-4,0-6,1-8,2.908C59.005,48.902,62,46,62,42c0-4.515-2.635-7.027-7.151-6.999
				C50.333,35.028,48,37.485,48,42c0,4,2.958,6.977,5,9.958c-2.736-1.735-6.033-2.97-8-2.958c-4.516,0.027-8.027,3.484-8,8
				c0.027,4.515,3.484,7.027,8,7c2.622-0.016,5.218-1.743,8.434-4.075c0.148,6.001-1.297,11.018-3.862,15.043l11.106-0.067
				c-2.683-4.502-3.855-9.526-3.868-14.819C59,62,61,64,65,64s8.027-2.485,8-7C72.973,52.484,69,49,65,49z"/>
		</g>
		<g>
			<g>
				<path style="fill:#5B5C5F;" d="M45,49c-4.516,0.027-8.027,3.484-8,8c0.015,2.487,1.074,4.362,2.774,5.544L51.32,50.999
					C49.007,49.79,46.577,48.99,45,49z"/>
			</g>
			<g>
				<path style="fill:#5B5C5F;" d="M54.849,35.001C50.333,35.028,48,37.485,48,42c0,3.317,2.034,5.93,3.893,8.426l9.989-9.989
					C61.327,36.91,58.814,34.977,54.849,35.001z"/>
			</g>
		</g>
	</g>
</g>
</svg>
