<?xml version="1.0" encoding="iso-8859-1"?>
<!-- Generator: Adobe Illustrator 17.1.0, SVG Export Plug-In . SVG Version: 6.00 Build 0)  -->
<!DOCTYPE svg PUBLIC "-//W3C//DTD SVG 1.0//EN" "http://www.w3.org/TR/2001/REC-SVG-20010904/DTD/svg10.dtd">
<svg version="1.0" xmlns="http://www.w3.org/2000/svg" xmlns:xlink="http://www.w3.org/1999/xlink" x="0px" y="0px" width="110px"
	 height="110px" viewBox="0 0 110 110" style="enable-background:new 0 0 110 110;" xml:space="preserve">
<g id="Artboard">
</g>
<g id="Multicolor">
	<circle style="fill:#FABC3D;" cx="55" cy="55" r="55"/>
	<g>
		<g>
			<path style="fill:#099686;" d="M54.912,60.744l5.443-5.443l-5.657-5.657l-5.443,5.443c-4.459-2.127-9.956-1.358-13.649,2.335
				L23.586,69.444c-0.781,0.781-0.781,2.047,0,2.828l14.142,14.142c0.781,0.781,2.047,0.781,2.828,0l12.021-12.021
				C56.27,70.7,57.04,65.204,54.912,60.744z"/>
		</g>
		<g>
			<path style="fill:#12B2A0;" d="M57.546,52.492l-2.847-2.848l-5.443,5.443c-4.459-2.127-9.956-1.358-13.649,2.335L23.586,69.444
				c-0.781,0.781-0.781,2.047,0,2.828l7.09,7.09L57.546,52.492z"/>
		</g>
		<g>
			<path style="fill:#FA5655;" d="M81.266,40.608c0,6.525-5.692,11.502-12.218,11.502c-6.525,0-11.123-4.604-11.949-11.076
				c-0.403-3.155-3.088-6.109-3.088-6.109s3.222-2.148,6.444,2.148c-1.074-4.296,3.222-13.963,13.963-13.963
				c-4.296,4.296-1.969,10.741-1.074,10.741c0.795,0,3.222-2.148,3.222-6.444c2.024,0.945,3.414,10.468,0.828,15.306
				c2.393-1.03,3.366-3.775,3.366-3.775S81.266,39.422,81.266,40.608z"/>
		</g>
		<g>
			<path style="fill:#FBEC9A;" d="M71.775,44.814c-0.179,2.909-3.092,6.221-6.355,6.221s-5.367-2.461-5.367-5.549
				c0-4.028,6.038-5.997,6.441-10.248c0.537,0,2.73,4.699,1.387,7.16c0.577-0.688,3.267-2.64,3.267-2.64
				S71.954,41.905,71.775,44.814z"/>
		</g>
		<g>
			<path style="fill:#12B2A0;" d="M56.113,45.402c0.391-0.391,1.024-0.391,1.414,0l7.071,7.071c0.391,0.391,0.391,1.024,0,1.414
				l-2.121,2.121c-0.391,0.391-1.024,0.391-1.414,0l-7.071-7.071c-0.391-0.391-0.391-1.024,0-1.414L56.113,45.402z"/>
		</g>
		<g>
			
				<rect x="26.435" y="66.565" transform="matrix(0.7071 0.7071 -0.7071 0.7071 61.8614 -6.2168)" style="fill:#F0F1F1;" width="24" height="10"/>
		</g>
		<g>
			<path style="fill:#47C4B7;" d="M57.527,45.402c-0.39-0.391-1.024-0.391-1.414,0l-2.121,2.121c-0.391,0.39-0.391,1.024,0,1.414
				l3.554,3.555l3.536-3.536L57.527,45.402z"/>
		</g>
		<g>
			
				<rect x="29.202" y="61.318" transform="matrix(0.7071 -0.7071 0.7071 0.7071 -37.5933 43.9055)" style="fill:#FFFFFF;" width="10" height="12.027"/>
		</g>
	</g>
</g>
</svg>
