<?xml version="1.0" encoding="iso-8859-1"?>
<!-- Generator: Adobe Illustrator 17.1.0, SVG Export Plug-In . SVG Version: 6.00 Build 0)  -->
<!DOCTYPE svg PUBLIC "-//W3C//DTD SVG 1.0//EN" "http://www.w3.org/TR/2001/REC-SVG-20010904/DTD/svg10.dtd">
<svg version="1.0" xmlns="http://www.w3.org/2000/svg" xmlns:xlink="http://www.w3.org/1999/xlink" x="0px" y="0px" width="110px"
	 height="110px" viewBox="0 0 110 110" style="enable-background:new 0 0 110 110;" xml:space="preserve">
<g id="Artboard" style="display:none;">
	
		<rect x="-840.5" y="-34.5" style="display:inline;fill:#808080;stroke:#000000;stroke-miterlimit:10;" width="1392" height="1369"/>
</g>
<g id="R-Multicolor">
	<circle style="fill:#E04F5F;" cx="55" cy="55" r="55"/>
	<g>
		<g>
			<path style="fill:#C9F2F8;" d="M74.758,38.65C64.827,50.928,57.278,60,51.859,60h-1.69c-5.629,0-13.679-9.91-22.93-21.343
				c-0.25-0.31-0.31-0.724-0.15-1.074c0.17-0.35,0.52-0.584,0.91-0.584h46c0.364,0,0.735,0.212,0.91,0.58
				C75.086,37.943,74.991,38.312,74.758,38.65z"/>
		</g>
		<g>
			<path style="fill:#FFFFFF;" d="M51,37H27.999c-0.39,0-0.74,0.234-0.91,0.584c-0.16,0.35-0.1,0.764,0.15,1.074
				C36.49,50.09,44.54,60,50.169,60H51V37z"/>
		</g>
		<g>
			<path style="fill:#C9F2F8;" d="M53.004,82.038C53.004,82.025,53,82.013,53,82V61c0-1.104,0.896-2,2-2h-8c1.104,0,2,0.896,2,2v21
				c0,0.013-0.004,0.025-0.004,0.038C43.325,82.237,39,83.262,39,84.5c0,1.381,5.373,2.5,12,2.5s12-1.119,12-2.5
				C63,83.262,58.675,82.237,53.004,82.038z"/>
		</g>
		<g>
			<path style="fill:#FFFFFF;" d="M47,59c1.104,0,2,0.896,2,2v21c0,0.013-0.004,0.025-0.004,0.038C43.325,82.237,39,83.262,39,84.5
				c0,1.381,5.373,2.5,12,2.5V59H47z"/>
		</g>
		<g>
			<path style="fill:#9CE5F4;" d="M53.6,59.641c-0.269,0.091-0.532,0.162-0.791,0.218C53.068,59.804,53.332,59.731,53.6,59.641z"/>
		</g>
		<g>
			<path style="fill:#9CE5F4;" d="M51.647,60c0.301,0,0.611-0.036,0.925-0.091C52.255,59.965,51.944,60,51.641,60H51.647z"/>
		</g>
		<g>
			<path style="fill:#47C4B7;" d="M53.802,59.573c-0.068,0.025-0.135,0.045-0.202,0.068C53.667,59.618,53.734,59.598,53.802,59.573z
				"/>
		</g>
		<g>
			<path style="fill:#47C4B7;" d="M52.809,59.859c-0.079,0.017-0.159,0.037-0.237,0.05C52.65,59.896,52.73,59.876,52.809,59.859z"/>
		</g>
		<g>
			<path style="fill:#47C4B7;" d="M49,59.908c0.311,0.055,0.616,0.086,0.914,0.089C49.616,59.994,49.311,59.963,49,59.908z"/>
		</g>
		<g>
			<path style="fill:#47C4B7;" d="M49.957,60c-0.014,0-0.028-0.003-0.042-0.003c0.012,0,0.025,0.003,0.036,0.003H49.957z"/>
		</g>
		<g>
			<path style="fill:#12B2A0;" d="M40.449,54c3.713,3.682,7,6,9.719,6h1.69c2.692,0,5.911-2.242,9.685-6H40.449z"/>
		</g>
		<g>
			<path style="fill:#FACB1B;" d="M35.808,49c1.609,1.845,3.159,3.531,4.641,5h21.094c1.46-1.454,3.003-3.133,4.631-5H35.808z"/>
		</g>
		<g>
			<path style="fill:#F37A10;" d="M71.221,43H30.767c1.735,2.12,3.418,4.139,5.041,6h30.366C67.774,47.166,69.456,45.153,71.221,43z
				"/>
		</g>
		<g>
			<path style="fill:#47C4B7;" d="M51,54H40.449c3.713,3.682,7,6,9.719,6H51V54z"/>
		</g>
		<g>
			<path style="fill:#FBE158;" d="M51,49H35.808c1.609,1.845,3.159,3.531,4.641,5H51V49z"/>
		</g>
		<g>
			<path style="fill:#F99134;" d="M51,43H30.767c1.735,2.12,3.418,4.139,5.041,6H51V43z"/>
		</g>
		<g>
			<path style="fill:#FCF6C2;" d="M87,37c0,6.63-5.37,12-12,12c-2.59,0-4.98-0.82-6.94-2.21c2.06-2.42,4.29-5.15,6.7-8.14
				c0.25-0.31,0.31-0.72,0.15-1.07C74.74,37.23,74.39,37,74,37H63c0-6.63,5.37-12,12-12S87,30.37,87,37z"/>
		</g>
		<g>
			<g>
				<path style="fill:#FACB1B;" d="M75,37l0.62-6.136c1.611-5.865,11.242,2.967,5.443,4.997L75,37z"/>
			</g>
			<g>
				<path style="fill:#FACB1B;" d="M75,37l6.167-0.075c6.009,0.94-1.68,11.505-4.351,5.972L75,37z"/>
			</g>
			<g>
				<path style="fill:#FACB1B;" d="M74.82,38.56l-0.53,4.57c-0.67,2.32-2.58,2.3-4.26,1.32c0.39-0.47,0.79-0.95,1.19-1.45
					c1.13-1.38,2.31-2.83,3.54-4.35C74.78,38.62,74.81,38.59,74.82,38.56z"/>
			</g>
			<g>
				<path style="fill:#FACB1B;" d="M75,37l-6.122-0.749c-5.83-1.733,3.201-11.177,5.109-5.337L75,37z"/>
			</g>
		</g>
	</g>
</g>
<g id="Multicolor" style="display:none;">
	<g style="display:inline;">
		<g>
			<path style="fill:#C9F2F8;" d="M74.758,38.65C64.827,50.928,57.278,60,51.859,60h-1.69c-5.629,0-13.679-9.91-22.93-21.343
				c-0.25-0.31-0.31-0.724-0.15-1.074c0.17-0.35,0.52-0.584,0.91-0.584h46c0.364,0,0.735,0.212,0.91,0.58
				C75.086,37.943,74.991,38.312,74.758,38.65z"/>
		</g>
		<g>
			<path style="fill:#FFFFFF;" d="M51,37H27.999c-0.39,0-0.74,0.234-0.91,0.584c-0.16,0.35-0.1,0.764,0.15,1.074
				C36.49,50.09,44.54,60,50.169,60H51V37z"/>
		</g>
		<g>
			<path style="fill:#C9F2F8;" d="M53.004,82.038C53.004,82.025,53,82.013,53,82V61c0-1.104,0.896-2,2-2h-8c1.104,0,2,0.896,2,2v21
				c0,0.013-0.004,0.025-0.004,0.038C43.325,82.237,39,83.262,39,84.5c0,1.381,5.373,2.5,12,2.5s12-1.119,12-2.5
				C63,83.262,58.675,82.237,53.004,82.038z"/>
		</g>
		<g>
			<path style="fill:#FFFFFF;" d="M47,59c1.104,0,2,0.896,2,2v21c0,0.013-0.004,0.025-0.004,0.038C43.325,82.237,39,83.262,39,84.5
				c0,1.381,5.373,2.5,12,2.5V59H47z"/>
		</g>
		<g>
			<path style="fill:#9CE5F4;" d="M53.6,59.641c-0.269,0.091-0.532,0.162-0.791,0.218C53.068,59.804,53.332,59.731,53.6,59.641z"/>
		</g>
		<g>
			<path style="fill:#9CE5F4;" d="M51.647,60c0.301,0,0.611-0.036,0.925-0.091C52.255,59.965,51.944,60,51.641,60H51.647z"/>
		</g>
		<g>
			<path style="fill:#47C4B7;" d="M53.802,59.573c-0.068,0.025-0.135,0.045-0.202,0.068C53.667,59.618,53.734,59.598,53.802,59.573z
				"/>
		</g>
		<g>
			<path style="fill:#47C4B7;" d="M52.809,59.859c-0.079,0.017-0.159,0.037-0.237,0.05C52.65,59.896,52.73,59.876,52.809,59.859z"/>
		</g>
		<g>
			<path style="fill:#47C4B7;" d="M49,59.908c0.311,0.055,0.616,0.086,0.914,0.089C49.616,59.994,49.311,59.963,49,59.908z"/>
		</g>
		<g>
			<path style="fill:#47C4B7;" d="M49.957,60c-0.014,0-0.028-0.003-0.042-0.003c0.012,0,0.025,0.003,0.036,0.003H49.957z"/>
		</g>
		<g>
			<path style="fill:#12B2A0;" d="M40.449,54c3.713,3.682,7,6,9.719,6h1.69c2.692,0,5.911-2.242,9.685-6H40.449z"/>
		</g>
		<g>
			<path style="fill:#FACB1B;" d="M35.808,49c1.609,1.845,3.159,3.531,4.641,5h21.094c1.46-1.454,3.003-3.133,4.631-5H35.808z"/>
		</g>
		<g>
			<path style="fill:#F37A10;" d="M71.221,43H30.767c1.735,2.12,3.418,4.139,5.041,6h30.366C67.774,47.166,69.456,45.153,71.221,43z
				"/>
		</g>
		<g>
			<path style="fill:#47C4B7;" d="M51,54H40.449c3.713,3.682,7,6,9.719,6H51V54z"/>
		</g>
		<g>
			<path style="fill:#FBE158;" d="M51,49H35.808c1.609,1.845,3.159,3.531,4.641,5H51V49z"/>
		</g>
		<g>
			<path style="fill:#F99134;" d="M51,43H30.767c1.735,2.12,3.418,4.139,5.041,6H51V43z"/>
		</g>
		<g>
			<path style="fill:#FCF6C2;" d="M87,37c0,6.63-5.37,12-12,12c-2.59,0-4.98-0.82-6.94-2.21c2.06-2.42,4.29-5.15,6.7-8.14
				c0.25-0.31,0.31-0.72,0.15-1.07C74.74,37.23,74.39,37,74,37H63c0-6.63,5.37-12,12-12S87,30.37,87,37z"/>
		</g>
		<g>
			<g>
				<path style="fill:#FACB1B;" d="M75,37l0.62-6.136c1.611-5.865,11.242,2.967,5.443,4.997L75,37z"/>
			</g>
			<g>
				<path style="fill:#FACB1B;" d="M75,37l6.167-0.075c6.009,0.94-1.68,11.505-4.351,5.972L75,37z"/>
			</g>
			<g>
				<path style="fill:#FACB1B;" d="M74.82,38.56l-0.53,4.57c-0.67,2.32-2.58,2.3-4.26,1.32c0.39-0.47,0.79-0.95,1.19-1.45
					c1.13-1.38,2.31-2.83,3.54-4.35C74.78,38.62,74.81,38.59,74.82,38.56z"/>
			</g>
			<g>
				<path style="fill:#FACB1B;" d="M75,37l-6.122-0.749c-5.83-1.733,3.201-11.177,5.109-5.337L75,37z"/>
			</g>
		</g>
	</g>
</g>
<g id="Blue" style="display:none;">
	<g style="display:inline;">
		<g>
			<path style="fill:#E1F5FA;" d="M74.758,38.65C64.827,50.929,57.278,60,51.858,60h-1.69c-5.629,0-13.679-9.91-22.93-21.342
				c-0.25-0.31-0.311-0.724-0.151-1.074c0.17-0.35,0.521-0.584,0.911-0.584h46c0.364,0,0.734,0.212,0.909,0.58
				C75.086,37.943,74.991,38.312,74.758,38.65z"/>
		</g>
		<g>
			<path style="fill:#FFFFFF;" d="M51,37H27.999c-0.391,0-0.741,0.234-0.911,0.584c-0.159,0.35-0.099,0.764,0.151,1.074
				C36.49,50.09,44.54,60,50.169,60H51V37z"/>
		</g>
		<g>
			<path style="fill:#E1F5FA;" d="M53.004,82.038C53.004,82.025,53,82.013,53,82V61c0-1.104,0.896-2,2-2h-8c1.104,0,2,0.896,2,2v21
				c0,0.013-0.004,0.025-0.004,0.038C43.324,82.237,39,83.262,39,84.5c0,1.381,5.373,2.5,12,2.5s12-1.119,12-2.5
				C63,83.262,58.676,82.237,53.004,82.038z"/>
		</g>
		<g>
			<path style="fill:#FFFFFF;" d="M47,59c1.104,0,2,0.896,2,2v21c0,0.013-0.004,0.025-0.004,0.038C43.324,82.237,39,83.262,39,84.5
				c0,1.381,5.373,2.5,12,2.5V59H47z"/>
		</g>
		<g>
			<path style="fill:#BBE7F2;" d="M53.6,59.641c-0.268,0.091-0.531,0.163-0.791,0.218C53.068,59.804,53.332,59.731,53.6,59.641z"/>
		</g>
		<g>
			<path style="fill:#BBE7F2;" d="M51.646,60c0.302,0,0.611-0.036,0.926-0.09C52.255,59.965,51.943,60,51.641,60H51.646z"/>
		</g>
		<g>
			<path style="fill:#00B7E5;" d="M53.802,59.573c-0.067,0.025-0.134,0.046-0.202,0.068C53.668,59.618,53.734,59.598,53.802,59.573z
				"/>
		</g>
		<g>
			<path style="fill:#00B7E5;" d="M52.809,59.859c-0.078,0.016-0.158,0.036-0.236,0.05C52.65,59.896,52.73,59.876,52.809,59.859z"/>
		</g>
		<g>
			<path style="fill:#00B7E5;" d="M49,59.908c0.311,0.055,0.616,0.086,0.914,0.089C49.616,59.995,49.311,59.963,49,59.908z"/>
		</g>
		<g>
			<path style="fill:#00B7E5;" d="M49.957,60c-0.014,0-0.029-0.003-0.043-0.003c0.012,0,0.024,0.003,0.037,0.003H49.957z"/>
		</g>
		<g>
			<path style="fill:#0081A1;" d="M40.449,54c3.713,3.682,7,6,9.72,6h1.69c2.692,0,5.911-2.242,9.685-6H40.449z"/>
		</g>
		<g>
			<path style="fill:#0C333D;" d="M35.809,49c1.609,1.845,3.158,3.531,4.641,5h21.094c1.461-1.454,3.003-3.133,4.632-5H35.809z"/>
		</g>
		<g>
			<path style="fill:#009FC7;" d="M71.221,43H30.767c1.735,2.12,3.418,4.139,5.042,6h30.366C67.773,47.167,69.455,45.153,71.221,43z
				"/>
		</g>
		<g>
			<path style="fill:#009FC7;" d="M51,54H40.449c3.713,3.682,7,6,9.72,6H51V54z"/>
		</g>
		<g>
			<path style="fill:#0F6175;" d="M51,49H35.809c1.609,1.845,3.158,3.531,4.641,5H51V49z"/>
		</g>
		<g>
			<path style="fill:#00B7E5;" d="M51,43H30.767c1.735,2.12,3.418,4.139,5.042,6H51V43z"/>
		</g>
		<g>
			<path style="fill:#FFFFFF;" d="M87,37c0,6.63-5.37,12-12,12c-2.59,0-4.98-0.82-6.939-2.21c2.06-2.42,4.289-5.15,6.699-8.14
				c0.25-0.31,0.31-0.72,0.15-1.07C74.74,37.23,74.391,37,74,37H63c0-6.63,5.37-12,12-12S87,30.37,87,37z"/>
		</g>
		<g>
			<g>
				<path style="fill:#BBE7F2;" d="M75,37l0.62-6.136c1.611-5.865,11.242,2.967,5.443,4.997L75,37z"/>
			</g>
			<g>
				<path style="fill:#BBE7F2;" d="M75,37l6.167-0.075c6.009,0.939-1.681,11.505-4.351,5.972L75,37z"/>
			</g>
			<g>
				<path style="fill:#BBE7F2;" d="M74.82,38.56l-0.53,4.57c-0.67,2.32-2.58,2.3-4.26,1.32c0.39-0.47,0.79-0.95,1.19-1.45
					c1.129-1.38,2.31-2.83,3.539-4.35C74.78,38.62,74.811,38.59,74.82,38.56z"/>
			</g>
			<g>
				<path style="fill:#BBE7F2;" d="M75,37l-6.122-0.749c-5.83-1.734,3.201-11.178,5.109-5.337L75,37z"/>
			</g>
		</g>
	</g>
</g>
<g id="R-Blue" style="display:none;">
	<circle style="display:inline;fill:#81D2EB;" cx="55" cy="55" r="55"/>
	<g style="display:inline;">
		<g>
			<path style="fill:#E1F5FA;" d="M74.758,38.65C64.827,50.929,57.278,60,51.858,60h-1.69c-5.629,0-13.679-9.91-22.93-21.342
				c-0.25-0.31-0.311-0.724-0.151-1.074c0.17-0.35,0.521-0.584,0.911-0.584h46c0.364,0,0.734,0.212,0.909,0.58
				C75.086,37.943,74.991,38.311,74.758,38.65z"/>
		</g>
		<g>
			<path style="fill:#FFFFFF;" d="M51,37H27.999c-0.391,0-0.741,0.234-0.911,0.584c-0.159,0.35-0.099,0.764,0.151,1.074
				C36.49,50.09,44.54,60,50.169,60H51V37z"/>
		</g>
		<g>
			<path style="fill:#E1F5FA;" d="M53.004,82.038C53.004,82.025,53,82.013,53,82V61c0-1.104,0.896-2,2-2h-8c1.104,0,2,0.896,2,2v21
				c0,0.013-0.004,0.025-0.004,0.038C43.324,82.237,39,83.262,39,84.5c0,1.381,5.373,2.5,12,2.5s12-1.119,12-2.5
				C63,83.262,58.676,82.237,53.004,82.038z"/>
		</g>
		<g>
			<path style="fill:#FFFFFF;" d="M47,59c1.104,0,2,0.896,2,2v21c0,0.013-0.004,0.025-0.004,0.038C43.324,82.237,39,83.262,39,84.5
				c0,1.381,5.373,2.5,12,2.5V59H47z"/>
		</g>
		<g>
			<path style="fill:#BBE7F2;" d="M53.6,59.641c-0.268,0.091-0.531,0.163-0.791,0.218C53.068,59.804,53.332,59.731,53.6,59.641z"/>
		</g>
		<g>
			<path style="fill:#BBE7F2;" d="M51.646,60c0.302,0,0.611-0.036,0.926-0.09C52.255,59.965,51.943,60,51.641,60H51.646z"/>
		</g>
		<g>
			<path style="fill:#00B7E5;" d="M53.802,59.573c-0.067,0.025-0.134,0.046-0.202,0.068C53.668,59.618,53.734,59.598,53.802,59.573z
				"/>
		</g>
		<g>
			<path style="fill:#00B7E5;" d="M52.809,59.859c-0.078,0.016-0.158,0.036-0.236,0.05C52.65,59.896,52.73,59.876,52.809,59.859z"/>
		</g>
		<g>
			<path style="fill:#00B7E5;" d="M49,59.908c0.311,0.055,0.616,0.086,0.914,0.089C49.616,59.995,49.311,59.963,49,59.908z"/>
		</g>
		<g>
			<path style="fill:#00B7E5;" d="M49.957,60c-0.014,0-0.029-0.003-0.043-0.003c0.012,0,0.024,0.003,0.037,0.003H49.957z"/>
		</g>
		<g>
			<path style="fill:#0081A1;" d="M40.449,54c3.713,3.682,7,6,9.72,6h1.69c2.692,0,5.911-2.242,9.685-6H40.449z"/>
		</g>
		<g>
			<path style="fill:#0C333D;" d="M35.809,49c1.609,1.845,3.158,3.531,4.641,5h21.094c1.461-1.454,3.003-3.133,4.632-5H35.809z"/>
		</g>
		<g>
			<path style="fill:#009FC7;" d="M71.221,43H30.767c1.735,2.12,3.418,4.139,5.042,6h30.366C67.773,47.166,69.455,45.153,71.221,43z
				"/>
		</g>
		<g>
			<path style="fill:#009FC7;" d="M51,54H40.449c3.713,3.682,7,6,9.72,6H51V54z"/>
		</g>
		<g>
			<path style="fill:#0F6175;" d="M51,49H35.809c1.609,1.845,3.158,3.531,4.641,5H51V49z"/>
		</g>
		<g>
			<path style="fill:#00B7E5;" d="M51,43H30.767c1.735,2.12,3.418,4.139,5.042,6H51V43z"/>
		</g>
		<g>
			<path style="fill:#FFFFFF;" d="M87,37c0,6.63-5.37,12-12,12c-2.59,0-4.98-0.82-6.939-2.21c2.06-2.42,4.289-5.15,6.699-8.14
				c0.25-0.31,0.31-0.72,0.15-1.07C74.74,37.23,74.391,37,74,37H63c0-6.63,5.37-12,12-12S87,30.37,87,37z"/>
		</g>
		<g>
			<g>
				<path style="fill:#BBE7F2;" d="M75,37l0.62-6.136c1.611-5.865,11.242,2.967,5.443,4.997L75,37z"/>
			</g>
			<g>
				<path style="fill:#BBE7F2;" d="M75,37l6.167-0.075c6.009,0.939-1.681,11.505-4.351,5.972L75,37z"/>
			</g>
			<g>
				<path style="fill:#BBE7F2;" d="M74.82,38.56l-0.53,4.57c-0.67,2.32-2.58,2.3-4.26,1.32c0.39-0.47,0.79-0.95,1.19-1.45
					c1.129-1.38,2.31-2.83,3.539-4.35C74.78,38.62,74.811,38.59,74.82,38.56z"/>
			</g>
			<g>
				<path style="fill:#BBE7F2;" d="M75,37l-6.122-0.749c-5.83-1.734,3.201-11.178,5.109-5.337L75,37z"/>
			</g>
		</g>
	</g>
</g>
<g id="Green" style="display:none;">
	<g style="display:inline;">
		<g>
			<path style="fill:#D7FCF9;" d="M74.758,38.65C64.827,50.929,57.278,60,51.858,60h-1.69c-5.629,0-13.679-9.91-22.93-21.342
				c-0.25-0.31-0.311-0.724-0.151-1.074c0.17-0.35,0.521-0.584,0.911-0.584h46c0.364,0,0.734,0.212,0.909,0.58
				C75.086,37.943,74.991,38.312,74.758,38.65z"/>
		</g>
		<g>
			<path style="fill:#FFFFFF;" d="M51,37H27.999c-0.391,0-0.741,0.234-0.911,0.584c-0.159,0.35-0.099,0.764,0.151,1.074
				C36.49,50.09,44.54,60,50.169,60H51V37z"/>
		</g>
		<g>
			<path style="fill:#D7FCF9;" d="M53.004,82.038C53.004,82.025,53,82.013,53,82V61c0-1.104,0.896-2,2-2h-8c1.104,0,2,0.896,2,2v21
				c0,0.013-0.004,0.025-0.004,0.038C43.324,82.237,39,83.262,39,84.5c0,1.381,5.373,2.5,12,2.5s12-1.119,12-2.5
				C63,83.262,58.676,82.237,53.004,82.038z"/>
		</g>
		<g>
			<path style="fill:#FFFFFF;" d="M47,59c1.104,0,2,0.896,2,2v21c0,0.013-0.004,0.025-0.004,0.038C43.324,82.237,39,83.262,39,84.5
				c0,1.381,5.373,2.5,12,2.5V59H47z"/>
		</g>
		<g>
			<path style="fill:#AAF0E9;" d="M53.6,59.641c-0.268,0.091-0.531,0.163-0.791,0.218C53.068,59.804,53.332,59.731,53.6,59.641z"/>
		</g>
		<g>
			<path style="fill:#AAF0E9;" d="M51.646,60c0.302,0,0.611-0.036,0.926-0.09C52.255,59.965,51.943,60,51.641,60H51.646z"/>
		</g>
		<g>
			<path style="fill:#00D6C1;" d="M53.802,59.573c-0.067,0.025-0.134,0.046-0.202,0.068C53.668,59.618,53.734,59.598,53.802,59.573z
				"/>
		</g>
		<g>
			<path style="fill:#00D6C1;" d="M52.809,59.859c-0.078,0.016-0.158,0.036-0.236,0.05C52.65,59.896,52.73,59.876,52.809,59.859z"/>
		</g>
		<g>
			<path style="fill:#00D6C1;" d="M49,59.908c0.311,0.055,0.616,0.086,0.914,0.089C49.616,59.995,49.31,59.963,49,59.908z"/>
		</g>
		<g>
			<path style="fill:#00D6C1;" d="M49.957,60c-0.014,0-0.029-0.003-0.043-0.003c0.012,0,0.024,0.003,0.037,0.003H49.957z"/>
		</g>
		<g>
			<path style="fill:#009687;" d="M40.449,54c3.713,3.682,7,6,9.72,6h1.69c2.692,0,5.911-2.242,9.685-6H40.449z"/>
		</g>
		<g>
			<path style="fill:#0A3631;" d="M35.809,49c1.609,1.845,3.158,3.531,4.641,5h21.094c1.461-1.454,3.003-3.133,4.632-5H35.809z"/>
		</g>
		<g>
			<path style="fill:#00B8A5;" d="M71.221,43H30.767c1.735,2.12,3.418,4.139,5.042,6h30.366C67.773,47.167,69.455,45.153,71.221,43z
				"/>
		</g>
		<g>
			<path style="fill:#00B8A5;" d="M51,54H40.449c3.713,3.682,7,6,9.72,6H51V54z"/>
		</g>
		<g>
			<path style="fill:#14635B;" d="M51,49H35.809c1.609,1.845,3.158,3.531,4.641,5H51V49z"/>
		</g>
		<g>
			<path style="fill:#00D6C1;" d="M51,43H30.767c1.735,2.12,3.418,4.139,5.042,6H51V43z"/>
		</g>
		<g>
			<path style="fill:#FFFFFF;" d="M87,37c0,6.63-5.37,12-12,12c-2.59,0-4.981-0.82-6.94-2.21c2.06-2.42,4.289-5.15,6.699-8.14
				c0.25-0.31,0.311-0.72,0.15-1.07C74.74,37.23,74.391,37,74,37H63c0-6.63,5.37-12,12-12C81.63,25,87,30.37,87,37z"/>
		</g>
		<g>
			<g>
				<path style="fill:#AAF0E9;" d="M75,37l0.62-6.136c1.611-5.865,11.242,2.967,5.443,4.997L75,37z"/>
			</g>
			<g>
				<path style="fill:#AAF0E9;" d="M75,37l6.167-0.075c6.009,0.939-1.681,11.505-4.351,5.972L75,37z"/>
			</g>
			<g>
				<path style="fill:#AAF0E9;" d="M74.82,38.56l-0.53,4.57c-0.67,2.32-2.58,2.3-4.26,1.32c0.39-0.47,0.79-0.95,1.19-1.45
					c1.129-1.38,2.31-2.83,3.539-4.35C74.78,38.62,74.81,38.59,74.82,38.56z"/>
			</g>
			<g>
				<path style="fill:#AAF0E9;" d="M75,37l-6.122-0.749c-5.83-1.734,3.201-11.178,5.109-5.337L75,37z"/>
			</g>
		</g>
	</g>
</g>
<g id="R-Green" style="display:none;">
	<circle style="display:inline;fill:#77E0C4;" cx="55" cy="55" r="55"/>
	<g style="display:inline;">
		<g>
			<path style="fill:#D7FCF9;" d="M74.758,38.65C64.827,50.929,57.278,60,51.858,60h-1.689c-5.629,0-13.679-9.91-22.93-21.342
				c-0.25-0.31-0.311-0.724-0.151-1.074c0.17-0.35,0.521-0.584,0.911-0.584h46c0.364,0,0.734,0.212,0.909,0.58
				C75.086,37.943,74.991,38.312,74.758,38.65z"/>
		</g>
		<g>
			<path style="fill:#FFFFFF;" d="M51,37H27.999c-0.391,0-0.741,0.234-0.911,0.584c-0.159,0.35-0.099,0.764,0.151,1.074
				C36.49,50.09,44.54,60,50.169,60H51V37z"/>
		</g>
		<g>
			<path style="fill:#D7FCF9;" d="M53.004,82.038C53.004,82.025,53,82.013,53,82V61c0-1.104,0.896-2,2-2h-8c1.104,0,2,0.896,2,2v21
				c0,0.013-0.004,0.025-0.004,0.038C43.324,82.237,39,83.262,39,84.5c0,1.381,5.373,2.5,12,2.5s12-1.119,12-2.5
				C63,83.262,58.676,82.237,53.004,82.038z"/>
		</g>
		<g>
			<path style="fill:#FFFFFF;" d="M47,59c1.104,0,2,0.896,2,2v21c0,0.013-0.004,0.025-0.004,0.038C43.324,82.237,39,83.262,39,84.5
				c0,1.381,5.373,2.5,12,2.5V59H47z"/>
		</g>
		<g>
			<path style="fill:#AAF0E9;" d="M53.6,59.641c-0.268,0.091-0.531,0.163-0.791,0.218C53.068,59.804,53.332,59.731,53.6,59.641z"/>
		</g>
		<g>
			<path style="fill:#AAF0E9;" d="M51.646,60c0.302,0,0.611-0.036,0.926-0.09C52.255,59.965,51.943,60,51.641,60H51.646z"/>
		</g>
		<g>
			<path style="fill:#00D6C1;" d="M53.802,59.573c-0.067,0.025-0.134,0.046-0.202,0.068C53.668,59.618,53.734,59.598,53.802,59.573z
				"/>
		</g>
		<g>
			<path style="fill:#00D6C1;" d="M52.809,59.859c-0.078,0.016-0.158,0.036-0.236,0.05C52.65,59.896,52.73,59.876,52.809,59.859z"/>
		</g>
		<g>
			<path style="fill:#00D6C1;" d="M49,59.908c0.311,0.055,0.616,0.086,0.914,0.089C49.616,59.995,49.311,59.963,49,59.908z"/>
		</g>
		<g>
			<path style="fill:#00D6C1;" d="M49.957,60c-0.014,0-0.029-0.003-0.043-0.003c0.012,0,0.024,0.003,0.037,0.003H49.957z"/>
		</g>
		<g>
			<path style="fill:#009687;" d="M40.449,54c3.713,3.682,7,6,9.72,6h1.689c2.692,0,5.911-2.242,9.685-6H40.449z"/>
		</g>
		<g>
			<path style="fill:#0A3631;" d="M35.809,49c1.609,1.845,3.158,3.531,4.641,5h21.094c1.461-1.454,3.003-3.133,4.632-5H35.809z"/>
		</g>
		<g>
			<path style="fill:#00B8A5;" d="M71.221,43H30.767c1.735,2.12,3.418,4.139,5.042,6h30.366C67.773,47.167,69.455,45.153,71.221,43z
				"/>
		</g>
		<g>
			<path style="fill:#00B8A5;" d="M51,54H40.449c3.713,3.682,7,6,9.72,6H51V54z"/>
		</g>
		<g>
			<path style="fill:#14635B;" d="M51,49H35.809c1.609,1.845,3.158,3.531,4.641,5H51V49z"/>
		</g>
		<g>
			<path style="fill:#00D6C1;" d="M51,43H30.767c1.735,2.12,3.418,4.139,5.042,6H51V43z"/>
		</g>
		<g>
			<path style="fill:#FFFFFF;" d="M87,37c0,6.63-5.37,12-12,12c-2.59,0-4.98-0.82-6.939-2.21c2.06-2.42,4.289-5.15,6.699-8.14
				c0.25-0.31,0.31-0.72,0.15-1.07C74.74,37.23,74.391,37,74,37H63c0-6.63,5.37-12,12-12S87,30.37,87,37z"/>
		</g>
		<g>
			<g>
				<path style="fill:#AAF0E9;" d="M75,37l0.62-6.136c1.611-5.865,11.242,2.967,5.443,4.997L75,37z"/>
			</g>
			<g>
				<path style="fill:#AAF0E9;" d="M75,37l6.167-0.075c6.009,0.939-1.681,11.505-4.351,5.972L75,37z"/>
			</g>
			<g>
				<path style="fill:#AAF0E9;" d="M74.82,38.56l-0.53,4.57c-0.67,2.32-2.58,2.3-4.26,1.32c0.39-0.47,0.79-0.95,1.19-1.45
					c1.129-1.38,2.31-2.83,3.539-4.35C74.78,38.62,74.811,38.59,74.82,38.56z"/>
			</g>
			<g>
				<path style="fill:#AAF0E9;" d="M75,37l-6.122-0.749c-5.83-1.734,3.201-11.178,5.109-5.337L75,37z"/>
			</g>
		</g>
	</g>
</g>
<g id="Red" style="display:none;">
	<g style="display:inline;">
		<g>
			<path style="fill:#FFEFED;" d="M74.758,38.65C64.827,50.929,57.278,60,51.858,60h-1.689c-5.629,0-13.679-9.91-22.93-21.342
				c-0.25-0.31-0.311-0.724-0.151-1.074c0.17-0.35,0.521-0.584,0.911-0.584h46c0.364,0,0.734,0.212,0.909,0.58
				C75.086,37.943,74.991,38.312,74.758,38.65z"/>
		</g>
		<g>
			<path style="fill:#FFFFFF;" d="M51,37H27.999c-0.391,0-0.741,0.234-0.911,0.584c-0.159,0.35-0.099,0.764,0.151,1.074
				C36.49,50.09,44.54,60,50.169,60H51V37z"/>
		</g>
		<g>
			<path style="fill:#FFEFED;" d="M53.004,82.038C53.004,82.025,53,82.013,53,82V61c0-1.104,0.896-2,2-2h-8c1.104,0,2,0.896,2,2v21
				c0,0.013-0.004,0.025-0.004,0.038C43.324,82.237,39,83.262,39,84.5c0,1.381,5.373,2.5,12,2.5s12-1.119,12-2.5
				C63,83.262,58.676,82.237,53.004,82.038z"/>
		</g>
		<g>
			<path style="fill:#FFFFFF;" d="M47,59c1.104,0,2,0.896,2,2v21c0,0.013-0.004,0.025-0.004,0.038C43.324,82.237,39,83.262,39,84.5
				c0,1.381,5.373,2.5,12,2.5V59H47z"/>
		</g>
		<g>
			<path style="fill:#FFD7D4;" d="M53.6,59.641c-0.268,0.091-0.531,0.163-0.791,0.218C53.068,59.804,53.332,59.731,53.6,59.641z"/>
		</g>
		<g>
			<path style="fill:#FFD7D4;" d="M51.646,60c0.302,0,0.611-0.036,0.926-0.09C52.255,59.965,51.943,60,51.641,60H51.646z"/>
		</g>
		<g>
			<path style="fill:#FF6C5E;" d="M53.802,59.573c-0.067,0.025-0.134,0.046-0.202,0.068C53.668,59.618,53.734,59.598,53.802,59.573z
				"/>
		</g>
		<g>
			<path style="fill:#FF6C5E;" d="M52.809,59.859c-0.078,0.016-0.158,0.036-0.236,0.05C52.65,59.896,52.73,59.876,52.809,59.859z"/>
		</g>
		<g>
			<path style="fill:#FF6C5E;" d="M49,59.908c0.31,0.055,0.616,0.086,0.914,0.089C49.616,59.995,49.31,59.963,49,59.908z"/>
		</g>
		<g>
			<path style="fill:#FF6C5E;" d="M49.957,60c-0.014,0-0.029-0.003-0.043-0.003c0.012,0,0.024,0.003,0.037,0.003H49.957z"/>
		</g>
		<g>
			<path style="fill:#C23023;" d="M40.449,54c3.713,3.682,7,6,9.72,6h1.689c2.692,0,5.911-2.242,9.685-6H40.449z"/>
		</g>
		<g>
			<path style="fill:#4A1410;" d="M35.809,49c1.609,1.845,3.158,3.531,4.641,5h21.094c1.461-1.454,3.003-3.133,4.632-5H35.809z"/>
		</g>
		<g>
			<path style="fill:#E54B44;" d="M71.221,43H30.767c1.735,2.12,3.418,4.139,5.042,6h30.366C67.773,47.167,69.455,45.153,71.221,43z
				"/>
		</g>
		<g>
			<path style="fill:#E54B44;" d="M51,54H40.449c3.713,3.682,7,6,9.72,6H51V54z"/>
		</g>
		<g>
			<path style="fill:#7D261E;" d="M51,49H35.809c1.609,1.845,3.158,3.531,4.641,5H51V49z"/>
		</g>
		<g>
			<path style="fill:#FF6C5E;" d="M51,43H30.767c1.735,2.12,3.418,4.139,5.042,6H51V43z"/>
		</g>
		<g>
			<path style="fill:#FFFFFF;" d="M87,37c0,6.63-5.37,12-12,12c-2.59,0-4.981-0.82-6.94-2.21c2.06-2.42,4.289-5.15,6.699-8.14
				c0.25-0.31,0.311-0.72,0.15-1.07C74.74,37.23,74.391,37,74,37H63c0-6.63,5.37-12,12-12C81.63,25,87,30.37,87,37z"/>
		</g>
		<g>
			<g>
				<path style="fill:#FFD7D4;" d="M75,37l0.62-6.136c1.611-5.865,11.242,2.967,5.443,4.997L75,37z"/>
			</g>
			<g>
				<path style="fill:#FFD7D4;" d="M75,37l6.167-0.075c6.009,0.939-1.681,11.505-4.351,5.972L75,37z"/>
			</g>
			<g>
				<path style="fill:#FFD7D4;" d="M74.82,38.56l-0.53,4.57c-0.67,2.32-2.58,2.3-4.26,1.32c0.39-0.47,0.79-0.95,1.19-1.45
					c1.129-1.38,2.31-2.83,3.539-4.35C74.78,38.62,74.81,38.59,74.82,38.56z"/>
			</g>
			<g>
				<path style="fill:#FFD7D4;" d="M75,37l-6.122-0.749c-5.83-1.734,3.201-11.178,5.109-5.337L75,37z"/>
			</g>
		</g>
	</g>
</g>
<g id="R-Red" style="display:none;">
	<circle style="display:inline;fill:#FABBAF;" cx="55" cy="55" r="55"/>
	<g style="display:inline;">
		<g>
			<path style="fill:#FFEFED;" d="M74.758,38.65C64.827,50.929,57.278,60,51.858,60h-1.689c-5.629,0-13.679-9.91-22.93-21.342
				c-0.25-0.31-0.311-0.724-0.151-1.074c0.17-0.35,0.521-0.584,0.911-0.584h46c0.364,0,0.734,0.212,0.909,0.58
				C75.086,37.943,74.991,38.312,74.758,38.65z"/>
		</g>
		<g>
			<path style="fill:#FFFFFF;" d="M51,37H27.999c-0.391,0-0.741,0.234-0.911,0.584c-0.159,0.35-0.099,0.764,0.151,1.074
				C36.49,50.09,44.54,60,50.169,60H51V37z"/>
		</g>
		<g>
			<path style="fill:#FFEFED;" d="M53.004,82.038C53.004,82.025,53,82.013,53,82V61c0-1.104,0.896-2,2-2h-8c1.104,0,2,0.896,2,2v21
				c0,0.013-0.004,0.025-0.004,0.038C43.324,82.237,39,83.262,39,84.5c0,1.381,5.373,2.5,12,2.5s12-1.119,12-2.5
				C63,83.262,58.676,82.237,53.004,82.038z"/>
		</g>
		<g>
			<path style="fill:#FFFFFF;" d="M47,59c1.104,0,2,0.896,2,2v21c0,0.013-0.004,0.025-0.004,0.038C43.324,82.237,39,83.262,39,84.5
				c0,1.381,5.373,2.5,12,2.5V59H47z"/>
		</g>
		<g>
			<path style="fill:#FFD7D4;" d="M53.6,59.641c-0.268,0.091-0.531,0.163-0.791,0.218C53.068,59.804,53.332,59.731,53.6,59.641z"/>
		</g>
		<g>
			<path style="fill:#FFD7D4;" d="M51.646,60c0.302,0,0.611-0.036,0.926-0.09C52.255,59.965,51.943,60,51.641,60H51.646z"/>
		</g>
		<g>
			<path style="fill:#FF6C5E;" d="M53.802,59.573c-0.067,0.025-0.134,0.046-0.202,0.068C53.668,59.618,53.734,59.598,53.802,59.573z
				"/>
		</g>
		<g>
			<path style="fill:#FF6C5E;" d="M52.809,59.859c-0.078,0.016-0.158,0.036-0.236,0.05C52.65,59.896,52.73,59.876,52.809,59.859z"/>
		</g>
		<g>
			<path style="fill:#FF6C5E;" d="M49,59.908c0.31,0.055,0.616,0.086,0.914,0.089C49.616,59.995,49.31,59.963,49,59.908z"/>
		</g>
		<g>
			<path style="fill:#FF6C5E;" d="M49.957,60c-0.014,0-0.029-0.003-0.043-0.003c0.012,0,0.024,0.003,0.037,0.003H49.957z"/>
		</g>
		<g>
			<path style="fill:#C23023;" d="M40.449,54c3.713,3.682,7,6,9.72,6h1.689c2.692,0,5.911-2.242,9.685-6H40.449z"/>
		</g>
		<g>
			<path style="fill:#4A1410;" d="M35.809,49c1.609,1.845,3.158,3.531,4.641,5h21.094c1.461-1.454,3.003-3.133,4.632-5H35.809z"/>
		</g>
		<g>
			<path style="fill:#E54B44;" d="M71.221,43H30.767c1.735,2.12,3.418,4.139,5.042,6h30.366C67.773,47.167,69.455,45.153,71.221,43z
				"/>
		</g>
		<g>
			<path style="fill:#E54B44;" d="M51,54H40.449c3.713,3.682,7,6,9.72,6H51V54z"/>
		</g>
		<g>
			<path style="fill:#7D261E;" d="M51,49H35.809c1.609,1.845,3.158,3.531,4.641,5H51V49z"/>
		</g>
		<g>
			<path style="fill:#FF6C5E;" d="M51,43H30.767c1.735,2.12,3.418,4.139,5.042,6H51V43z"/>
		</g>
		<g>
			<path style="fill:#FFFFFF;" d="M87,37c0,6.63-5.37,12-12,12c-2.59,0-4.981-0.82-6.94-2.21c2.06-2.42,4.289-5.15,6.699-8.14
				c0.25-0.31,0.311-0.72,0.15-1.07C74.74,37.23,74.391,37,74,37H63c0-6.63,5.37-12,12-12C81.63,25,87,30.37,87,37z"/>
		</g>
		<g>
			<g>
				<path style="fill:#FFD7D4;" d="M75,37l0.62-6.136c1.611-5.865,11.242,2.967,5.443,4.997L75,37z"/>
			</g>
			<g>
				<path style="fill:#FFD7D4;" d="M75,37l6.167-0.075c6.009,0.939-1.681,11.505-4.351,5.972L75,37z"/>
			</g>
			<g>
				<path style="fill:#FFD7D4;" d="M74.82,38.56l-0.53,4.57c-0.67,2.32-2.58,2.3-4.26,1.32c0.39-0.47,0.79-0.95,1.19-1.45
					c1.129-1.38,2.31-2.83,3.539-4.35C74.78,38.62,74.81,38.59,74.82,38.56z"/>
			</g>
			<g>
				<path style="fill:#FFD7D4;" d="M75,37l-6.122-0.749c-5.83-1.734,3.201-11.178,5.109-5.337L75,37z"/>
			</g>
		</g>
	</g>
</g>
<g id="Yellow" style="display:none;">
	<g style="display:inline;">
		<g>
			<path style="fill:#FFF5D9;" d="M74.758,38.65C64.827,50.929,57.278,60,51.858,60h-1.689c-5.629,0-13.679-9.91-22.93-21.342
				c-0.25-0.31-0.311-0.724-0.151-1.074c0.17-0.35,0.521-0.584,0.911-0.584h46c0.364,0,0.734,0.212,0.909,0.58
				C75.086,37.943,74.991,38.312,74.758,38.65z"/>
		</g>
		<g>
			<path style="fill:#FFFFFF;" d="M51,37H27.999c-0.391,0-0.741,0.234-0.911,0.584c-0.159,0.35-0.099,0.764,0.151,1.074
				C36.49,50.09,44.54,60,50.169,60H51V37z"/>
		</g>
		<g>
			<path style="fill:#FFF5D9;" d="M53.004,82.038C53.004,82.025,53,82.013,53,82V61c0-1.104,0.896-2,2-2h-8c1.104,0,2,0.896,2,2v21
				c0,0.013-0.004,0.025-0.004,0.038C43.324,82.237,39,83.262,39,84.5c0,1.381,5.373,2.5,12,2.5s12-1.119,12-2.5
				C63,83.262,58.676,82.237,53.004,82.038z"/>
		</g>
		<g>
			<path style="fill:#FFFFFF;" d="M47,59c1.104,0,2,0.896,2,2v21c0,0.013-0.004,0.025-0.004,0.038C43.324,82.237,39,83.262,39,84.5
				c0,1.381,5.373,2.5,12,2.5V59H47z"/>
		</g>
		<g>
			<path style="fill:#FFE9A1;" d="M53.6,59.641c-0.268,0.091-0.531,0.163-0.791,0.218C53.068,59.804,53.332,59.731,53.6,59.641z"/>
		</g>
		<g>
			<path style="fill:#FFE9A1;" d="M51.646,60c0.302,0,0.611-0.036,0.926-0.09C52.255,59.965,51.943,60,51.641,60H51.646z"/>
		</g>
		<g>
			<path style="fill:#FFAA00;" d="M53.802,59.573c-0.067,0.025-0.134,0.046-0.202,0.068C53.668,59.618,53.734,59.598,53.802,59.573z
				"/>
		</g>
		<g>
			<path style="fill:#FFAA00;" d="M52.809,59.859c-0.078,0.016-0.158,0.036-0.236,0.05C52.65,59.896,52.73,59.876,52.809,59.859z"/>
		</g>
		<g>
			<path style="fill:#FFAA00;" d="M49,59.908c0.311,0.055,0.616,0.086,0.914,0.089C49.616,59.995,49.311,59.963,49,59.908z"/>
		</g>
		<g>
			<path style="fill:#FFAA00;" d="M49.957,60c-0.014,0-0.029-0.003-0.043-0.003c0.012,0,0.024,0.003,0.037,0.003H49.957z"/>
		</g>
		<g>
			<path style="fill:#E07000;" d="M40.449,54c3.713,3.682,7,6,9.72,6h1.689c2.692,0,5.911-2.242,9.685-6H40.449z"/>
		</g>
		<g>
			<path style="fill:#3D320C;" d="M35.809,49c1.609,1.845,3.158,3.531,4.641,5h21.094c1.461-1.454,3.003-3.133,4.632-5H35.809z"/>
		</g>
		<g>
			<path style="fill:#FA9200;" d="M71.221,43H30.767c1.735,2.12,3.418,4.139,5.042,6h30.366C67.773,47.167,69.455,45.153,71.221,43z
				"/>
		</g>
		<g>
			<path style="fill:#FA9200;" d="M51,54H40.449c3.713,3.682,7,6,9.72,6H51V54z"/>
		</g>
		<g>
			<path style="fill:#66510D;" d="M51,49H35.809c1.609,1.845,3.158,3.531,4.641,5H51V49z"/>
		</g>
		<g>
			<path style="fill:#FFAA00;" d="M51,43H30.767c1.735,2.12,3.418,4.139,5.042,6H51V43z"/>
		</g>
		<g>
			<path style="fill:#FFFFFF;" d="M87,37c0,6.63-5.37,12-12,12c-2.59,0-4.98-0.82-6.939-2.21c2.06-2.42,4.289-5.15,6.699-8.14
				c0.25-0.31,0.31-0.72,0.15-1.07C74.74,37.23,74.391,37,74,37H63c0-6.63,5.37-12,12-12S87,30.37,87,37z"/>
		</g>
		<g>
			<g>
				<path style="fill:#FFE9A1;" d="M75,37l0.62-6.136c1.611-5.865,11.242,2.967,5.443,4.997L75,37z"/>
			</g>
			<g>
				<path style="fill:#FFE9A1;" d="M75,37l6.167-0.075c6.009,0.939-1.681,11.505-4.351,5.972L75,37z"/>
			</g>
			<g>
				<path style="fill:#FFE9A1;" d="M74.82,38.56l-0.53,4.57c-0.67,2.32-2.58,2.3-4.26,1.32c0.39-0.47,0.79-0.95,1.19-1.45
					c1.129-1.38,2.31-2.83,3.539-4.35C74.78,38.62,74.811,38.59,74.82,38.56z"/>
			</g>
			<g>
				<path style="fill:#FFE9A1;" d="M75,37l-6.122-0.749c-5.83-1.734,3.201-11.178,5.109-5.337L75,37z"/>
			</g>
		</g>
	</g>
</g>
<g id="R-Yellow" style="display:none;">
	<circle style="display:inline;fill:#FFD75E;" cx="55" cy="55" r="55"/>
	<g style="display:inline;">
		<g>
			<path style="fill:#FFF5D9;" d="M74.758,38.65C64.827,50.929,57.278,60,51.858,60h-1.69c-5.629,0-13.679-9.91-22.93-21.342
				c-0.25-0.31-0.311-0.724-0.151-1.074c0.17-0.35,0.521-0.584,0.911-0.584h46c0.364,0,0.734,0.212,0.909,0.58
				C75.086,37.943,74.991,38.312,74.758,38.65z"/>
		</g>
		<g>
			<path style="fill:#FFFFFF;" d="M51,37H27.999c-0.391,0-0.741,0.234-0.911,0.584c-0.159,0.35-0.099,0.764,0.151,1.074
				C36.49,50.09,44.54,60,50.169,60H51V37z"/>
		</g>
		<g>
			<path style="fill:#FFF5D9;" d="M53.004,82.038C53.004,82.025,53,82.013,53,82V61c0-1.104,0.896-2,2-2h-8c1.104,0,2,0.896,2,2v21
				c0,0.013-0.004,0.025-0.004,0.038C43.324,82.237,39,83.262,39,84.5c0,1.381,5.373,2.5,12,2.5s12-1.119,12-2.5
				C63,83.262,58.676,82.237,53.004,82.038z"/>
		</g>
		<g>
			<path style="fill:#FFFFFF;" d="M47,59c1.104,0,2,0.896,2,2v21c0,0.013-0.004,0.025-0.004,0.038C43.324,82.237,39,83.262,39,84.5
				c0,1.381,5.373,2.5,12,2.5V59H47z"/>
		</g>
		<g>
			<path style="fill:#FFE9A1;" d="M53.6,59.641c-0.268,0.091-0.531,0.163-0.791,0.218C53.068,59.804,53.332,59.731,53.6,59.641z"/>
		</g>
		<g>
			<path style="fill:#FFE9A1;" d="M51.646,60c0.302,0,0.611-0.036,0.926-0.09C52.255,59.965,51.943,60,51.641,60H51.646z"/>
		</g>
		<g>
			<path style="fill:#FFAA00;" d="M53.802,59.573c-0.067,0.025-0.134,0.046-0.202,0.068C53.668,59.618,53.734,59.598,53.802,59.573z
				"/>
		</g>
		<g>
			<path style="fill:#FFAA00;" d="M52.809,59.859c-0.078,0.016-0.158,0.036-0.236,0.05C52.65,59.896,52.73,59.876,52.809,59.859z"/>
		</g>
		<g>
			<path style="fill:#FFAA00;" d="M49,59.908c0.311,0.055,0.616,0.086,0.914,0.089C49.616,59.995,49.31,59.963,49,59.908z"/>
		</g>
		<g>
			<path style="fill:#FFAA00;" d="M49.957,60c-0.014,0-0.029-0.003-0.043-0.003c0.012,0,0.024,0.003,0.037,0.003H49.957z"/>
		</g>
		<g>
			<path style="fill:#E07000;" d="M40.449,54c3.713,3.682,7,6,9.72,6h1.69c2.692,0,5.911-2.242,9.685-6H40.449z"/>
		</g>
		<g>
			<path style="fill:#3D320C;" d="M35.809,49c1.609,1.845,3.158,3.531,4.641,5h21.094c1.461-1.454,3.003-3.133,4.632-5H35.809z"/>
		</g>
		<g>
			<path style="fill:#FA9200;" d="M71.221,43H30.767c1.735,2.12,3.418,4.139,5.042,6h30.366C67.773,47.167,69.455,45.153,71.221,43z
				"/>
		</g>
		<g>
			<path style="fill:#FA9200;" d="M51,54H40.449c3.713,3.682,7,6,9.72,6H51V54z"/>
		</g>
		<g>
			<path style="fill:#66510D;" d="M51,49H35.809c1.609,1.845,3.158,3.531,4.641,5H51V49z"/>
		</g>
		<g>
			<path style="fill:#FFAA00;" d="M51,43H30.767c1.735,2.12,3.418,4.139,5.042,6H51V43z"/>
		</g>
		<g>
			<path style="fill:#FFFFFF;" d="M87,37c0,6.63-5.37,12-12,12c-2.59,0-4.981-0.82-6.94-2.21c2.06-2.42,4.289-5.15,6.699-8.14
				c0.25-0.31,0.311-0.72,0.15-1.07C74.74,37.23,74.391,37,74,37H63c0-6.63,5.37-12,12-12C81.63,25,87,30.37,87,37z"/>
		</g>
		<g>
			<g>
				<path style="fill:#FFE9A1;" d="M75,37l0.62-6.136c1.611-5.865,11.242,2.967,5.443,4.997L75,37z"/>
			</g>
			<g>
				<path style="fill:#FFE9A1;" d="M75,37l6.167-0.075c6.009,0.939-1.681,11.505-4.351,5.972L75,37z"/>
			</g>
			<g>
				<path style="fill:#FFE9A1;" d="M74.82,38.56l-0.53,4.57c-0.67,2.32-2.58,2.3-4.26,1.32c0.39-0.47,0.79-0.95,1.19-1.45
					c1.129-1.38,2.31-2.83,3.539-4.35C74.78,38.62,74.81,38.59,74.82,38.56z"/>
			</g>
			<g>
				<path style="fill:#FFE9A1;" d="M75,37l-6.122-0.749c-5.83-1.734,3.201-11.178,5.109-5.337L75,37z"/>
			</g>
		</g>
	</g>
</g>
</svg>
