<?xml version="1.0" encoding="iso-8859-1"?>
<!-- Generator: Adobe Illustrator 17.1.0, SVG Export Plug-In . SVG Version: 6.00 Build 0)  -->
<!DOCTYPE svg PUBLIC "-//W3C//DTD SVG 1.0//EN" "http://www.w3.org/TR/2001/REC-SVG-20010904/DTD/svg10.dtd">
<svg version="1.0" xmlns="http://www.w3.org/2000/svg" xmlns:xlink="http://www.w3.org/1999/xlink" x="0px" y="0px" width="110px"
	 height="110px" viewBox="0 0 110 110" style="enable-background:new 0 0 110 110;" xml:space="preserve">
<g id="Artboard">
</g>
<g id="Multicolor">
	<circle style="fill:#32BEA6;" cx="55" cy="55" r="55"/>
	<g>
		<path style="fill:#84462D;" d="M79,55.001c-0.001,1.398-1.922,2.684-5.131,3.704c0.316,2.744-1.66,8.318-2.827,10.169
			c1.126-5.993-1.313-8.91-1.484-9.106C65.52,60.541,60.476,61,55,61c-13.252,0-23.996-2.686-24-5.998c-0.646,2.221-1,4.568-1,6.998
			c0,13.807,11.193,25,25,25s25-11.193,25-25C80,59.57,79.646,57.223,79,55.001z"/>
		<g>
			<path style="fill:#AF7653;" d="M79,55c0-3.313-10.745-6-24-6s-24,2.687-24,6s10.745,6,24,6c5.476,0,10.52-0.459,14.558-1.231
				c0.171,0.196,2.61,3.113,1.484,9.106c1.167-1.851,3.143-7.425,2.827-10.169C77.079,57.685,79,56.399,79,55z"/>
		</g>
		<g>
			<path style="fill:#FFFFFF;" d="M71,57.15c0.58,1.1,0.89,4.84,0,5.73c-0.67-3.05-2.33-4.05-3.88-4.8
				C63.265,58.752,58.714,59,55,59c-9.556,0-19-1.62-19-4c0-3.317,14.864-4,19-4c4.63,0,8.248,0.325,11.44,0.8
				C71.03,52.54,74,53.69,74,55C74,55.79,72.89,56.53,71,57.15z"/>
		</g>
		<g>
			<path style="fill:#FACB1B;" d="M55.13,59H55c-1.47,0-2.91-0.03-4.31-0.1L40.46,36.14L29,29.46L31.02,26l12.54,7.32L55.13,59z"/>
		</g>
		<g>
			<path style="fill:#3E3E3F;" d="M74.95,33.82l-9.68,17.81l-3.88,7.14c-0.34,0.02-0.68,0.04-1.03,0.06
				c-0.43,0.03-0.88,0.05-1.32,0.07l4.08-7.51l10.07-18.53L74.95,33.82z"/>
		</g>
		<g>
			<path style="fill:#DF2C2C;" d="M79.77,50.91c-0.198-1.712-1.201-3.302-2.835-4.189c-1.635-0.887-3.524-0.865-5.071-0.089
				c-0.193-1.72-1.205-3.316-2.839-4.203c-1.635-0.887-3.524-0.865-5.071-0.089c-0.193-1.72-1.205-3.316-2.839-4.203
				c-1.652-0.897-3.551-0.857-5.103-0.072c1.76-4.5,9.587-7.495,17.188-3.371C80.934,38.89,82.501,47.23,79.77,50.91z"/>
		</g>
		<g>
			<path style="fill:#FA5655;" d="M73.198,34.693c-7.613-4.131-15.438-1.104-17.188,3.371c1.552-0.785,3.451-0.824,5.103,0.072
				c1.635,0.887,2.646,2.483,2.839,4.203c1.185-0.594,2.57-0.742,3.889-0.381l6.551-6.552
				C74.009,35.155,73.611,34.917,73.198,34.693z"/>
		</g>
		<g>
			<path style="fill:#E2E4E5;" d="M71.863,46.631c-0.193-1.72-1.205-3.316-2.839-4.203c-1.635-0.887-3.524-0.865-5.071-0.089
				c2.084-3.501,5.113-6.091,9.297-7.573C74.327,39.252,73.733,43.161,71.863,46.631z"/>
		</g>
		<g>
			<path style="fill:#FFFFFF;" d="M73.25,34.766c-4.183,1.482-7.213,4.072-9.297,7.573c1.185-0.594,2.57-0.742,3.889-0.381
				l5.702-5.702C73.464,35.766,73.371,35.271,73.25,34.766z"/>
		</g>
		<path style="fill:#9C6144;" d="M31,55.001c-0.646,2.222-1,4.568-1,6.999c0,13.807,11.193,25,25,25V61
			C41.747,61,31.003,58.314,31,55.001z"/>
	</g>
</g>
</svg>
