<?xml version="1.0" encoding="iso-8859-1"?>
<!-- Generator: Adobe Illustrator 17.1.0, SVG Export Plug-In . SVG Version: 6.00 Build 0)  -->
<!DOCTYPE svg PUBLIC "-//W3C//DTD SVG 1.0//EN" "http://www.w3.org/TR/2001/REC-SVG-20010904/DTD/svg10.dtd">
<svg version="1.0" xmlns="http://www.w3.org/2000/svg" xmlns:xlink="http://www.w3.org/1999/xlink" x="0px" y="0px" width="110px"
	 height="110px" viewBox="0 0 110 110" style="enable-background:new 0 0 110 110;" xml:space="preserve">
<g id="Artboard">
</g>
<g id="Multicolor">
	<circle style="fill:#32BEA6;" cx="55" cy="55" r="55"/>
	<g>
		<g>
			<path style="fill:#D4A263;" d="M83.229,55.792c-3.504,0-3.747,7.361-10.042,9.675c-0.491-0.416-1.164-0.586-1.816-0.409
				l-7.416,2.02l-0.215-0.68C63.478,65.565,62.706,65,61.833,65H48.765c-0.873,0-1.644,0.565-1.907,1.398l-0.215,0.68l-7.416-2.02
				c-0.652-0.178-1.325-0.007-1.816,0.409c-6.296-2.314-6.539-9.675-10.042-9.675c-3.549,0-3.767,13.365,3.937,21.845
				c0.032,0.627,0.354,1.226,0.918,1.584c1.979,1.258,5.664,3.251,9.546,3.699c0.033,0.781,0.519,1.499,1.292,1.788
				c8.158,3.056,16.315,3.056,24.473,0c0.771-0.289,1.258-1.007,1.292-1.788c3.882-0.448,7.567-2.441,9.546-3.699
				c0.564-0.358,0.886-0.958,0.918-1.584C86.995,69.157,86.778,55.792,83.229,55.792z"/>
		</g>
		<g>
			<path style="fill:#EDBC7C;" d="M54.599,65h-5.834c-0.873,0-1.644,0.565-1.907,1.398l-0.215,0.68l-7.416-2.02
				c-0.652-0.178-1.325-0.007-1.816,0.409c-6.296-2.314-6.539-9.675-10.042-9.675c-3.549,0-3.767,13.365,3.938,21.845
				c0.032,0.627,0.354,1.226,0.918,1.584c1.979,1.258,5.664,3.251,9.546,3.699c0.033,0.781,0.52,1.499,1.292,1.788
				c3.845,1.44,7.691,2.193,11.536,2.275V65z"/>
		</g>
		<g>
			<path style="fill:#FFFFFF;" d="M40.701,63V39h28v24c0,2.21-1.79,4-4,4h-20C42.491,67,40.701,65.21,40.701,63z"/>
		</g>
		<path style="fill:#F0F1F1;" d="M77.701,50.1c0-4.049-2.697-7.1-7.243-7.1h-1.758v-4H54.697v28h10.004c2.21,0,4-1.79,4-4v-2.261
			C74.072,59.586,77.701,54.704,77.701,50.1z M68.701,56.599V47h1.758c2.202,0,3.243,1.129,3.243,3.1
			C73.701,52.45,71.864,55.523,68.701,56.599z"/>
		<g>
			<path style="fill:#F4D0A1;" d="M41.856,82.235l4.786-15.157l-7.416-2.02c-0.913-0.249-1.875,0.176-2.306,1.018l-5.402,10.546
				c-0.47,0.918-0.166,2.045,0.705,2.599c1.979,1.258,5.664,3.251,9.546,3.699C41.761,82.694,41.784,82.463,41.856,82.235z"/>
		</g>
		<g>
			<path style="fill:#EDBC7C;" d="M79.079,76.623l-5.402-10.546c-0.431-0.842-1.393-1.267-2.306-1.018l-7.416,2.02l4.786,15.157
				c0.072,0.228,0.095,0.459,0.085,0.686c3.882-0.448,7.567-2.441,9.546-3.699C79.244,78.668,79.549,77.541,79.079,76.623z"/>
		</g>
		<g>
			<path style="fill:#D4A263;" d="M63.74,66.398C63.478,65.566,62.706,65,61.833,65H48.765c-0.873,0-1.644,0.566-1.907,1.398
				l-5.001,15.837c-0.321,1.015,0.209,2.1,1.206,2.474c8.158,3.056,16.315,3.056,24.473,0c0.996-0.373,1.526-1.46,1.206-2.474
				L63.74,66.398z"/>
		</g>
		<g>
			<path style="fill:#FFFFFF;" d="M48.001,23c0,0-5,1-5,4s5,4,3,8c0,0,3-1,3-4S43.001,28,48.001,23z"/>
		</g>
		<g>
			<path style="fill:#FFFFFF;" d="M57.001,23c0,0-5,1-5,4s5,4,3,8c0,0,3-1,3-4S52.001,28,57.001,23z"/>
		</g>
		<g>
			<path style="fill:#FFFFFF;" d="M66.001,23c0,0-5,1-5,4s5,4,3,8c0,0,3-1,3-4S61.001,28,66.001,23z"/>
		</g>
		<g>
			<path style="fill:#EDBC7C;" d="M54.598,65.017h-5.834c-0.873,0-1.644,0.565-1.907,1.398l-5.001,15.837
				c-0.321,1.015,0.209,2.1,1.206,2.473c3.845,1.44,7.691,2.193,11.536,2.275V65.017z"/>
		</g>
	</g>
</g>
</svg>
