<?xml version="1.0" encoding="iso-8859-1"?>
<!-- Generator: Adobe Illustrator 17.1.0, SVG Export Plug-In . SVG Version: 6.00 Build 0)  -->
<!DOCTYPE svg PUBLIC "-//W3C//DTD SVG 1.0//EN" "http://www.w3.org/TR/2001/REC-SVG-20010904/DTD/svg10.dtd">
<svg version="1.0" xmlns="http://www.w3.org/2000/svg" xmlns:xlink="http://www.w3.org/1999/xlink" x="0px" y="0px" width="110px"
	 height="110px" viewBox="0 0 110 110" style="enable-background:new 0 0 110 110;" xml:space="preserve">
<g id="Artboard" style="display:none;">
	
		<rect x="-456.5" y="-162.5" style="display:inline;fill:#808080;stroke:#000000;stroke-miterlimit:10;" width="1392" height="1369"/>
</g>
<g id="R-Multicolor">
	<circle style="fill:#25B7D3;" cx="55" cy="55" r="55"/>
	<g>
		<g>
			<path style="fill:#8E6134;" d="M75,39H35l3.924,47.083C38.967,86.601,39.4,87,39.92,87h30.16c0.52,0,0.953-0.399,0.997-0.917
				L75,39z"/>
		</g>
		<g>
			<path style="fill:#A97A45;" d="M55,39H35l3.924,47.083C38.967,86.602,39.4,87,39.92,87H55V39z"/>
		</g>
		<g>
			<path style="fill:#E2E4E5;" d="M79,37c0,1.105-0.895,2-2,2H33c-1.105,0-2-0.895-2-2v-4c0-1.105,0.895-2,2-2h44
				c1.105,0,2,0.895,2,2V37z"/>
		</g>
		<g>
			<path style="fill:#F0F1F1;" d="M33.22,53.199c-0.056-0.562,0.128-1.122,0.507-1.541S34.645,51,35.21,51h39.58
				c0.565,0,1.104,0.239,1.483,0.658c0.379,0.419,0.563,0.979,0.507,1.541l-1.6,16C75.078,70.221,74.218,71,73.19,71H36.81
				c-1.028,0-1.888-0.779-1.99-1.801L33.22,53.199z"/>
		</g>
		<g>
			<path style="fill:#F0F1F1;" d="M75,31l-2.894-5.789C71.428,23.856,70.043,23,68.528,23H41.472c-1.515,0-2.9,0.856-3.578,2.211
				L35,31H75z"/>
		</g>
		<g>
			<path style="fill:#692E19;" d="M52.349,62.858c-0.203,0.152-0.488,0.128-0.663-0.057c-0.174-0.184-0.183-0.47-0.02-0.665
				c1.775-2.12,6.403-4.669,9.165-6.074c-2.148-2.094-6.007-2.49-9.485-0.74c-4.167,2.097-6.2,6.47-4.54,9.769
				c1.66,3.298,6.383,4.272,10.55,2.175c4.164-2.095,6.196-6.463,4.544-9.761C59.798,58.49,55.164,60.758,52.349,62.858z"/>
		</g>
		<g>
			<path style="fill:#FFFFFF;" d="M55,23H41.472c-1.515,0-2.9,0.856-3.578,2.211L35,31h20V23z"/>
		</g>
		<g>
			<path style="fill:#F0F1F1;" d="M55,31H33c-1.104,0-2,0.896-2,2v4c0,1.104,0.896,2,2,2h22V31z"/>
		</g>
	</g>
</g>
<g id="Multicolor" style="display:none;">
	<g style="display:inline;">
		<g>
			<path style="fill:#8E6134;" d="M75,39H35l3.924,47.083C38.967,86.601,39.4,87,39.92,87h30.16c0.52,0,0.953-0.399,0.997-0.917
				L75,39z"/>
		</g>
		<g>
			<path style="fill:#A97A45;" d="M55,39H35l3.924,47.083C38.967,86.602,39.4,87,39.92,87H55V39z"/>
		</g>
		<g>
			<path style="fill:#E2E4E5;" d="M79,37c0,1.105-0.895,2-2,2H33c-1.105,0-2-0.895-2-2v-4c0-1.105,0.895-2,2-2h44
				c1.105,0,2,0.895,2,2V37z"/>
		</g>
		<g>
			<path style="fill:#F0F1F1;" d="M33.22,53.199c-0.056-0.562,0.128-1.122,0.507-1.541S34.645,51,35.21,51h39.58
				c0.565,0,1.104,0.239,1.483,0.658c0.379,0.419,0.563,0.979,0.507,1.541l-1.6,16C75.078,70.221,74.218,71,73.19,71H36.81
				c-1.028,0-1.888-0.779-1.99-1.801L33.22,53.199z"/>
		</g>
		<g>
			<path style="fill:#F0F1F1;" d="M75,31l-2.894-5.789C71.428,23.856,70.043,23,68.528,23H41.472c-1.515,0-2.9,0.856-3.578,2.211
				L35,31H75z"/>
		</g>
		<g>
			<path style="fill:#692E19;" d="M52.349,62.858c-0.203,0.152-0.488,0.128-0.663-0.057c-0.174-0.184-0.183-0.47-0.02-0.665
				c1.775-2.12,6.403-4.669,9.165-6.074c-2.148-2.094-6.007-2.49-9.485-0.74c-4.167,2.097-6.2,6.47-4.54,9.769
				c1.66,3.298,6.383,4.272,10.55,2.175c4.164-2.095,6.196-6.463,4.544-9.761C59.798,58.49,55.164,60.758,52.349,62.858z"/>
		</g>
		<g>
			<path style="fill:#FFFFFF;" d="M55,23H41.472c-1.515,0-2.9,0.856-3.578,2.211L35,31h20V23z"/>
		</g>
		<g>
			<path style="fill:#F0F1F1;" d="M55,31H33c-1.104,0-2,0.896-2,2v4c0,1.104,0.896,2,2,2h22V31z"/>
		</g>
	</g>
</g>
<g id="Blue" style="display:none;">
	<g style="display:inline;">
		<g>
			<path style="fill:#0081A1;" d="M75,39H35l3.924,47.083C38.967,86.602,39.4,87,39.92,87h30.16c0.52,0,0.953-0.398,0.996-0.917
				L75,39z"/>
		</g>
		<g>
			<path style="fill:#009FC7;" d="M55,39H35l3.924,47.083C38.967,86.602,39.4,87,39.92,87H55V39z"/>
		</g>
		<g>
			<path style="fill:#BBE7F2;" d="M79,37c0,1.105-0.896,2-2,2H33c-1.104,0-2-0.895-2-2v-4c0-1.104,0.896-2,2-2h44
				c1.104,0,2,0.896,2,2V37z"/>
		</g>
		<g>
			<path style="fill:#E1F5FA;" d="M33.22,53.199c-0.056-0.562,0.128-1.122,0.507-1.541C34.105,51.239,34.645,51,35.21,51h39.58
				c0.565,0,1.104,0.239,1.483,0.658c0.379,0.419,0.562,0.979,0.507,1.541l-1.601,16C75.078,70.222,74.218,71,73.19,71h-36.38
				c-1.027,0-1.889-0.778-1.99-1.801L33.22,53.199z"/>
		</g>
		<g>
			<path style="fill:#E1F5FA;" d="M75,31l-2.895-5.789C71.428,23.856,70.043,23,68.527,23H41.473c-1.516,0-2.9,0.856-3.578,2.211
				L35,31H75z"/>
		</g>
		<g>
			<path style="fill:#0F6175;" d="M52.35,62.858c-0.203,0.152-0.488,0.128-0.662-0.057c-0.176-0.184-0.184-0.47-0.021-0.665
				c1.775-2.121,6.403-4.668,9.165-6.074c-2.147-2.094-6.007-2.49-9.485-0.74c-4.167,2.097-6.199,6.471-4.541,9.769
				c1.66,3.298,6.384,4.272,10.551,2.175c4.164-2.095,6.196-6.463,4.544-9.76C59.799,58.491,55.164,60.758,52.35,62.858z"/>
		</g>
		<g>
			<path style="fill:#FFFFFF;" d="M55,23H41.473c-1.516,0-2.9,0.856-3.578,2.211L35,31h20V23z"/>
		</g>
		<g>
			<path style="fill:#E1F5FA;" d="M55,31H33c-1.104,0-2,0.896-2,2v4c0,1.104,0.896,2,2,2h22V31z"/>
		</g>
	</g>
</g>
<g id="R-Blue" style="display:none;">
	<circle style="display:inline;fill:#81D2EB;" cx="55" cy="55" r="55"/>
	<g style="display:inline;">
		<g>
			<path style="fill:#0081A1;" d="M75,39H35l3.924,47.083C38.967,86.602,39.4,87,39.92,87h30.16c0.52,0,0.953-0.398,0.996-0.918
				L75,39z"/>
		</g>
		<g>
			<path style="fill:#009FC7;" d="M55,39H35l3.924,47.083C38.967,86.602,39.4,87,39.92,87H55V39z"/>
		</g>
		<g>
			<path style="fill:#BBE7F2;" d="M79,37c0,1.105-0.896,2-2,2H33c-1.104,0-2-0.895-2-2v-4c0-1.104,0.896-2,2-2h44
				c1.104,0,2,0.896,2,2V37z"/>
		</g>
		<g>
			<path style="fill:#E1F5FA;" d="M33.22,53.199c-0.056-0.562,0.128-1.122,0.507-1.541C34.105,51.239,34.645,51,35.21,51h39.58
				c0.565,0,1.104,0.239,1.483,0.658c0.379,0.419,0.562,0.979,0.507,1.541l-1.601,16C75.078,70.222,74.218,71,73.19,71h-36.38
				c-1.027,0-1.889-0.778-1.99-1.801L33.22,53.199z"/>
		</g>
		<g>
			<path style="fill:#E1F5FA;" d="M75,31l-2.895-5.789C71.428,23.856,70.043,23,68.527,23H41.473c-1.516,0-2.9,0.856-3.578,2.211
				L35,31H75z"/>
		</g>
		<g>
			<path style="fill:#0F6175;" d="M52.35,62.858c-0.203,0.152-0.488,0.128-0.662-0.057c-0.176-0.184-0.184-0.47-0.021-0.665
				c1.775-2.121,6.403-4.668,9.165-6.074c-2.147-2.094-6.007-2.49-9.485-0.74c-4.167,2.097-6.199,6.471-4.541,9.768
				c1.66,3.298,6.384,4.273,10.551,2.175c4.164-2.095,6.196-6.463,4.544-9.76C59.799,58.491,55.164,60.758,52.35,62.858z"/>
		</g>
		<g>
			<path style="fill:#FFFFFF;" d="M55,23H41.473c-1.516,0-2.9,0.856-3.578,2.211L35,31h20V23z"/>
		</g>
		<g>
			<path style="fill:#E1F5FA;" d="M55,31H33c-1.104,0-2,0.896-2,2v4c0,1.104,0.896,2,2,2h22V31z"/>
		</g>
	</g>
</g>
<g id="Green" style="display:none;">
	<g style="display:inline;">
		<g>
			<path style="fill:#009687;" d="M75,39H35l3.924,47.082C38.967,86.602,39.4,87,39.92,87h30.16c0.52,0,0.953-0.398,0.996-0.918
				L75,39z"/>
		</g>
		<g>
			<path style="fill:#00B8A5;" d="M55,39H35l3.924,47.082C38.967,86.602,39.4,87,39.92,87H55V39z"/>
		</g>
		<g>
			<path style="fill:#AAF0E9;" d="M79,37c0,1.105-0.896,2-2,2H33c-1.104,0-2-0.895-2-2v-4c0-1.104,0.896-2,2-2h44
				c1.104,0,2,0.896,2,2V37z"/>
		</g>
		<g>
			<path style="fill:#D7FCF9;" d="M33.22,53.199c-0.056-0.562,0.128-1.122,0.507-1.541C34.105,51.239,34.644,51,35.21,51h39.58
				c0.566,0,1.104,0.239,1.483,0.658c0.379,0.419,0.562,0.979,0.507,1.541l-1.601,16C75.078,70.222,74.218,71,73.19,71H36.81
				c-1.027,0-1.889-0.778-1.99-1.801L33.22,53.199z"/>
		</g>
		<g>
			<path style="fill:#D7FCF9;" d="M75,31l-2.895-5.789C71.428,23.856,70.043,23,68.527,23H41.473c-1.516,0-2.9,0.856-3.578,2.211
				L35,31H75z"/>
		</g>
		<g>
			<path style="fill:#14635B;" d="M52.35,62.858c-0.203,0.152-0.488,0.128-0.662-0.057c-0.176-0.184-0.184-0.47-0.021-0.665
				c1.775-2.121,6.403-4.668,9.165-6.074c-2.147-2.094-6.007-2.49-9.485-0.74c-4.167,2.097-6.199,6.471-4.541,9.769
				c1.66,3.298,6.384,4.272,10.551,2.175c4.164-2.095,6.196-6.463,4.544-9.76C59.799,58.491,55.164,60.758,52.35,62.858z"/>
		</g>
		<g>
			<path style="fill:#FFFFFF;" d="M55,23H41.473c-1.516,0-2.9,0.856-3.578,2.211L35,31h20V23z"/>
		</g>
		<g>
			<path style="fill:#D7FCF9;" d="M55,31H33c-1.104,0-2,0.896-2,2v4c0,1.104,0.896,2,2,2h22V31z"/>
		</g>
	</g>
</g>
<g id="R-Green" style="display:none;">
	<circle style="display:inline;fill:#77E0C4;" cx="55" cy="55" r="55"/>
	<g style="display:inline;">
		<g>
			<path style="fill:#009687;" d="M75,39H35l3.924,47.083C38.967,86.602,39.4,87,39.92,87h30.16c0.52,0,0.953-0.398,0.996-0.917
				L75,39z"/>
		</g>
		<g>
			<path style="fill:#00B8A5;" d="M55,39H35l3.924,47.083C38.967,86.602,39.4,87,39.92,87H55V39z"/>
		</g>
		<g>
			<path style="fill:#AAF0E9;" d="M79,37c0,1.105-0.896,2-2,2H33c-1.104,0-2-0.895-2-2v-4c0-1.104,0.896-2,2-2h44
				c1.104,0,2,0.896,2,2V37z"/>
		</g>
		<g>
			<path style="fill:#D7FCF9;" d="M33.22,53.199c-0.056-0.562,0.128-1.122,0.507-1.541C34.105,51.239,34.645,51,35.21,51h39.58
				c0.565,0,1.104,0.239,1.483,0.658c0.379,0.419,0.562,0.979,0.507,1.541l-1.601,16C75.078,70.222,74.218,71,73.19,71h-36.38
				c-1.027,0-1.889-0.778-1.99-1.801L33.22,53.199z"/>
		</g>
		<g>
			<path style="fill:#D7FCF9;" d="M75,31l-2.895-5.789C71.428,23.856,70.043,23,68.527,23H41.473c-1.516,0-2.9,0.856-3.578,2.211
				L35,31H75z"/>
		</g>
		<g>
			<path style="fill:#14635B;" d="M52.35,62.858c-0.203,0.152-0.488,0.128-0.662-0.057c-0.176-0.184-0.184-0.47-0.021-0.665
				c1.775-2.121,6.403-4.668,9.165-6.074c-2.147-2.094-6.007-2.49-9.485-0.74c-4.167,2.097-6.199,6.471-4.541,9.769
				c1.66,3.298,6.384,4.272,10.551,2.175c4.164-2.095,6.196-6.463,4.544-9.76C59.799,58.491,55.164,60.758,52.35,62.858z"/>
		</g>
		<g>
			<path style="fill:#FFFFFF;" d="M55,23H41.473c-1.516,0-2.9,0.856-3.578,2.211L35,31h20V23z"/>
		</g>
		<g>
			<path style="fill:#D7FCF9;" d="M55,31H33c-1.104,0-2,0.896-2,2v4c0,1.104,0.896,2,2,2h22V31z"/>
		</g>
	</g>
</g>
<g id="Red" style="display:none;">
	<g style="display:inline;">
		<g>
			<path style="fill:#C23023;" d="M75,39H35l3.924,47.083C38.967,86.602,39.4,87,39.92,87h30.16c0.52,0,0.953-0.398,0.996-0.917
				L75,39z"/>
		</g>
		<g>
			<path style="fill:#E54B44;" d="M55,39H35l3.924,47.083C38.967,86.602,39.4,87,39.92,87H55V39z"/>
		</g>
		<g>
			<path style="fill:#FFD7D4;" d="M79,37c0,1.105-0.896,2-2,2H33c-1.105,0-2-0.895-2-2v-4c0-1.104,0.895-2,2-2h44
				c1.104,0,2,0.896,2,2V37z"/>
		</g>
		<g>
			<path style="fill:#FFEFED;" d="M33.22,53.199c-0.056-0.562,0.128-1.122,0.507-1.541C34.105,51.239,34.644,51,35.21,51h39.58
				c0.565,0,1.104,0.239,1.483,0.658c0.379,0.419,0.562,0.979,0.507,1.541l-1.601,16C75.078,70.222,74.218,71,73.19,71H36.81
				c-1.027,0-1.889-0.778-1.99-1.801L33.22,53.199z"/>
		</g>
		<g>
			<path style="fill:#FFEFED;" d="M75,31l-2.895-5.789C71.428,23.856,70.043,23,68.527,23H41.473c-1.516,0-2.9,0.856-3.578,2.211
				L35,31H75z"/>
		</g>
		<g>
			<path style="fill:#7D261E;" d="M52.35,62.858c-0.203,0.152-0.488,0.128-0.662-0.057c-0.176-0.184-0.184-0.47-0.021-0.665
				c1.775-2.121,6.403-4.669,9.165-6.074c-2.147-2.094-6.007-2.49-9.485-0.74c-4.167,2.097-6.199,6.471-4.541,9.768
				c1.66,3.298,6.384,4.272,10.551,2.175c4.164-2.095,6.196-6.463,4.544-9.76C59.799,58.491,55.164,60.758,52.35,62.858z"/>
		</g>
		<g>
			<path style="fill:#FFFFFF;" d="M55,23H41.473c-1.516,0-2.9,0.856-3.578,2.211L35,31h20V23z"/>
		</g>
		<g>
			<path style="fill:#FFEFED;" d="M55,31H33c-1.105,0-2,0.896-2,2v4c0,1.104,0.895,2,2,2h22V31z"/>
		</g>
	</g>
</g>
<g id="R-Red" style="display:none;">
	<circle style="display:inline;fill:#FABBAF;" cx="55" cy="55" r="55"/>
	<g style="display:inline;">
		<g>
			<path style="fill:#C23023;" d="M75,39H35l3.924,47.083C38.967,86.602,39.4,87,39.92,87h30.16c0.52,0,0.953-0.398,0.996-0.917
				L75,39z"/>
		</g>
		<g>
			<path style="fill:#E54B44;" d="M55,39H35l3.924,47.083C38.967,86.602,39.4,87,39.92,87H55V39z"/>
		</g>
		<g>
			<path style="fill:#FFD7D4;" d="M79,37c0,1.105-0.896,2-2,2H33c-1.105,0-2-0.895-2-2v-4c0-1.104,0.895-2,2-2h44
				c1.104,0,2,0.896,2,2V37z"/>
		</g>
		<g>
			<path style="fill:#FFEFED;" d="M33.22,53.199c-0.056-0.562,0.128-1.122,0.507-1.541C34.105,51.239,34.644,51,35.21,51h39.58
				c0.565,0,1.104,0.239,1.483,0.658c0.379,0.419,0.562,0.979,0.507,1.541l-1.601,16C75.078,70.222,74.218,71,73.19,71H36.81
				c-1.027,0-1.889-0.778-1.99-1.801L33.22,53.199z"/>
		</g>
		<g>
			<path style="fill:#FFEFED;" d="M75,31l-2.895-5.789C71.428,23.856,70.043,23,68.527,23H41.473c-1.516,0-2.9,0.856-3.578,2.211
				L35,31H75z"/>
		</g>
		<g>
			<path style="fill:#7D261E;" d="M52.35,62.858c-0.203,0.152-0.488,0.128-0.662-0.057c-0.176-0.184-0.184-0.47-0.021-0.665
				c1.775-2.121,6.403-4.669,9.165-6.074c-2.147-2.094-6.007-2.49-9.485-0.74c-4.167,2.097-6.199,6.471-4.541,9.768
				c1.66,3.298,6.384,4.272,10.551,2.175c4.164-2.095,6.196-6.463,4.544-9.76C59.799,58.491,55.164,60.758,52.35,62.858z"/>
		</g>
		<g>
			<path style="fill:#FFFFFF;" d="M55,23H41.473c-1.516,0-2.9,0.856-3.578,2.211L35,31h20V23z"/>
		</g>
		<g>
			<path style="fill:#FFEFED;" d="M55,31H33c-1.105,0-2,0.896-2,2v4c0,1.104,0.895,2,2,2h22V31z"/>
		</g>
	</g>
</g>
<g id="Yellow" style="display:none;">
	<g style="display:inline;">
		<g>
			<path style="fill:#E07000;" d="M75,39H35l3.924,47.083C38.967,86.602,39.4,87,39.92,87h30.16c0.52,0,0.953-0.398,0.996-0.917
				L75,39z"/>
		</g>
		<g>
			<path style="fill:#FA9200;" d="M55,39H35l3.924,47.083C38.967,86.602,39.4,87,39.92,87H55V39z"/>
		</g>
		<g>
			<path style="fill:#FFE9A1;" d="M79,37c0,1.105-0.896,2-2,2H33c-1.104,0-2-0.895-2-2v-4c0-1.104,0.896-2,2-2h44
				c1.104,0,2,0.896,2,2V37z"/>
		</g>
		<g>
			<path style="fill:#FFF5D9;" d="M33.22,53.199c-0.056-0.562,0.128-1.122,0.507-1.541C34.105,51.239,34.645,51,35.21,51h39.58
				c0.565,0,1.104,0.239,1.483,0.658c0.379,0.419,0.562,0.979,0.507,1.541l-1.601,16C75.078,70.222,74.218,71,73.19,71h-36.38
				c-1.027,0-1.889-0.778-1.99-1.801L33.22,53.199z"/>
		</g>
		<g>
			<path style="fill:#FFF5D9;" d="M75,31l-2.895-5.789C71.428,23.856,70.043,23,68.527,23H41.473c-1.516,0-2.9,0.856-3.578,2.211
				L35,31H75z"/>
		</g>
		<g>
			<path style="fill:#66510D;" d="M52.35,62.858c-0.203,0.152-0.488,0.128-0.662-0.057c-0.176-0.184-0.184-0.47-0.021-0.665
				c1.775-2.121,6.403-4.668,9.165-6.074c-2.147-2.094-6.007-2.49-9.485-0.74c-4.167,2.097-6.199,6.471-4.541,9.769
				c1.66,3.298,6.384,4.272,10.551,2.175c4.164-2.095,6.196-6.463,4.544-9.76C59.799,58.491,55.164,60.758,52.35,62.858z"/>
		</g>
		<g>
			<path style="fill:#FFFFFF;" d="M55,23H41.473c-1.516,0-2.9,0.856-3.578,2.211L35,31h20V23z"/>
		</g>
		<g>
			<path style="fill:#FFF5D9;" d="M55,31H33c-1.104,0-2,0.896-2,2v4c0,1.104,0.896,2,2,2h22V31z"/>
		</g>
	</g>
</g>
<g id="R-Yellow" style="display:none;">
	<circle style="display:inline;fill:#FFD75E;" cx="55" cy="55" r="55"/>
	<g style="display:inline;">
		<g>
			<path style="fill:#E07000;" d="M75,39H35l3.924,47.083C38.967,86.602,39.4,87,39.92,87h30.16c0.52,0,0.953-0.398,0.996-0.917
				L75,39z"/>
		</g>
		<g>
			<path style="fill:#FA9200;" d="M55,39H35l3.924,47.083C38.967,86.602,39.4,87,39.92,87H55V39z"/>
		</g>
		<g>
			<path style="fill:#FFE9A1;" d="M79,37c0,1.105-0.896,2-2,2H33c-1.104,0-2-0.895-2-2v-4c0-1.104,0.896-2,2-2h44
				c1.104,0,2,0.896,2,2V37z"/>
		</g>
		<g>
			<path style="fill:#FFF5D9;" d="M33.22,53.199c-0.056-0.562,0.128-1.122,0.507-1.541C34.105,51.239,34.644,51,35.21,51h39.58
				c0.566,0,1.104,0.239,1.483,0.658c0.379,0.419,0.562,0.979,0.507,1.541l-1.601,16C75.078,70.222,74.218,71,73.19,71H36.81
				c-1.027,0-1.889-0.778-1.99-1.801L33.22,53.199z"/>
		</g>
		<g>
			<path style="fill:#FFF5D9;" d="M75,31l-2.895-5.789C71.428,23.856,70.043,23,68.527,23H41.473c-1.516,0-2.9,0.856-3.578,2.211
				L35,31H75z"/>
		</g>
		<g>
			<path style="fill:#66510D;" d="M52.35,62.858c-0.203,0.152-0.488,0.128-0.662-0.057c-0.176-0.184-0.184-0.47-0.021-0.665
				c1.775-2.121,6.403-4.668,9.165-6.074c-2.147-2.094-6.007-2.49-9.485-0.74c-4.167,2.097-6.199,6.471-4.541,9.769
				c1.66,3.298,6.384,4.272,10.551,2.175c4.164-2.095,6.196-6.463,4.544-9.76C59.799,58.491,55.164,60.758,52.35,62.858z"/>
		</g>
		<g>
			<path style="fill:#FFFFFF;" d="M55,23H41.473c-1.516,0-2.9,0.856-3.578,2.211L35,31h20V23z"/>
		</g>
		<g>
			<path style="fill:#FFF5D9;" d="M55,31H33c-1.104,0-2,0.896-2,2v4c0,1.104,0.896,2,2,2h22V31z"/>
		</g>
	</g>
</g>
</svg>
