<?xml version="1.0" encoding="iso-8859-1"?>
<!-- Generator: Adobe Illustrator 17.1.0, SVG Export Plug-In . SVG Version: 6.00 Build 0)  -->
<!DOCTYPE svg PUBLIC "-//W3C//DTD SVG 1.0//EN" "http://www.w3.org/TR/2001/REC-SVG-20010904/DTD/svg10.dtd">
<svg version="1.0" xmlns="http://www.w3.org/2000/svg" xmlns:xlink="http://www.w3.org/1999/xlink" x="0px" y="0px" width="110px"
	 height="110px" viewBox="0 0 110 110" style="enable-background:new 0 0 110 110;" xml:space="preserve">
<g id="Artboard" style="display:none;">
	
		<rect x="-840.5" y="-162.5" style="display:inline;fill:#808080;stroke:#000000;stroke-miterlimit:10;" width="1392" height="1369"/>
</g>
<g id="R-Multicolor">
	<circle style="fill:#25B7D3;" cx="55" cy="55" r="55"/>
	<g>
		<g>
			<path style="fill:#9CE5F4;" d="M61.015,50H31.183c-4.945,4.219-8.084,10.491-8.084,17.5c0,8.223,4.318,15.434,10.808,19.5h24.384
				c6.49-4.066,10.808-11.277,10.808-19.5C69.099,60.491,65.96,54.219,61.015,50z"/>
		</g>
		<g>
			<g>
				<path style="fill:#3E3E3F;" d="M77.406,38.368c-0.969-0.85-2.329-1.096-3.536-0.646l-12.771,4.789v7.477l13.162-4.937
					c5.974,6.379,7.225,16.038,3.955,30.158c-0.436,1.884,0.737,3.764,2.62,4.2c0.266,0.062,0.531,0.091,0.792,0.091
					c1.592,0,3.032-1.094,3.407-2.711C89.202,58.793,86.779,46.585,77.406,38.368z"/>
			</g>
		</g>
		<g>
			<rect x="31.099" y="42" style="fill:#F0F1F1;" width="30" height="8"/>
		</g>
		<g>
			<rect x="31.099" y="42" style="fill:#FFFFFF;" width="15.901" height="8"/>
		</g>
		<g>
			<path style="fill:#9CE5F4;" d="M31.903,42l-4.18-8.36c-0.413-0.826-0.278-1.821,0.34-2.507c0.618-0.686,1.593-0.924,2.458-0.6
				L61.099,42H31.903z"/>
		</g>
		<g>
			<path style="fill:#692E19;" d="M36.646,84h19.507c5.345-3.349,8.778-9.294,8.635-16H28.011C27.869,74.692,31.29,80.644,36.646,84
				z"/>
		</g>
		<g>
			<path style="fill:#C9F2F8;" d="M47,36.713l-16.479-6.18c-0.865-0.324-1.84-0.086-2.458,0.6c-0.618,0.687-0.753,1.681-0.34,2.507
				L31.903,42H47V36.713z"/>
		</g>
		<g>
			<path style="fill:#C9F2F8;" d="M47,50H31.183c-4.945,4.219-8.084,10.491-8.084,17.5c0,8.223,4.319,15.434,10.808,19.5H47V50z"/>
		</g>
		<g>
			<path style="fill:#84462D;" d="M47.121,68h-19.11c-0.138,6.74,3.313,12.665,8.635,16h10.474V68z"/>
		</g>
	</g>
</g>
<g id="Multicolor" style="display:none;">
	<g style="display:inline;">
		<g>
			<path style="fill:#9CE5F4;" d="M61.015,50H31.183c-4.945,4.219-8.084,10.491-8.084,17.5c0,8.223,4.318,15.434,10.808,19.5h24.384
				c6.49-4.066,10.808-11.277,10.808-19.5C69.099,60.491,65.96,54.219,61.015,50z"/>
		</g>
		<g>
			<g>
				<path style="fill:#3E3E3F;" d="M77.406,38.368c-0.969-0.85-2.329-1.096-3.536-0.646l-12.771,4.789v7.477l13.162-4.937
					c5.974,6.379,7.225,16.038,3.955,30.158c-0.436,1.884,0.737,3.764,2.62,4.2c0.266,0.062,0.531,0.091,0.792,0.091
					c1.592,0,3.032-1.094,3.407-2.711C89.202,58.793,86.779,46.585,77.406,38.368z"/>
			</g>
		</g>
		<g>
			<rect x="31.099" y="42" style="fill:#F0F1F1;" width="30" height="8"/>
		</g>
		<g>
			<rect x="31.099" y="42" style="fill:#FFFFFF;" width="15.901" height="8"/>
		</g>
		<g>
			<path style="fill:#9CE5F4;" d="M31.903,42l-4.18-8.36c-0.413-0.826-0.278-1.821,0.34-2.507c0.618-0.686,1.593-0.924,2.458-0.6
				L61.099,42H31.903z"/>
		</g>
		<g>
			<path style="fill:#692E19;" d="M36.646,84h19.507c5.345-3.349,8.778-9.294,8.635-16H28.011C27.869,74.692,31.29,80.644,36.646,84
				z"/>
		</g>
		<g>
			<path style="fill:#C9F2F8;" d="M47,36.713l-16.479-6.18c-0.865-0.324-1.84-0.086-2.458,0.6c-0.618,0.687-0.753,1.681-0.34,2.507
				L31.903,42H47V36.713z"/>
		</g>
		<g>
			<path style="fill:#C9F2F8;" d="M47,50H31.183c-4.945,4.219-8.084,10.491-8.084,17.5c0,8.223,4.319,15.434,10.808,19.5H47V50z"/>
		</g>
		<g>
			<path style="fill:#84462D;" d="M47.121,68h-19.11c-0.138,6.74,3.313,12.665,8.635,16h10.474V68z"/>
		</g>
	</g>
</g>
<g id="Blue" style="display:none;">
	<g style="display:inline;">
		<g>
			<path style="fill:#BBE7F2;" d="M61.016,50H31.183c-4.944,4.219-8.084,10.491-8.084,17.5c0,8.223,4.319,15.434,10.808,19.5h24.385
				c6.489-4.066,10.808-11.277,10.808-19.5C69.099,60.491,65.96,54.219,61.016,50z"/>
		</g>
		<g>
			<g>
				<path style="fill:#0C333D;" d="M77.406,38.368c-0.97-0.85-2.329-1.096-3.536-0.646l-12.771,4.789v7.477l13.162-4.937
					c5.975,6.379,7.225,16.038,3.955,30.158c-0.437,1.884,0.736,3.764,2.62,4.2c0.266,0.062,0.531,0.09,0.792,0.09
					c1.593,0,3.032-1.093,3.407-2.711C89.202,58.793,86.778,46.585,77.406,38.368z"/>
			</g>
		</g>
		<g>
			<rect x="31.099" y="42" style="fill:#E1F5FA;" width="30" height="8"/>
		</g>
		<g>
			<rect x="31.099" y="42" style="fill:#FFFFFF;" width="15.901" height="8"/>
		</g>
		<g>
			<path style="fill:#BBE7F2;" d="M31.903,42l-4.18-8.359c-0.413-0.826-0.278-1.821,0.339-2.507c0.618-0.686,1.594-0.924,2.458-0.6
				L61.099,42H31.903z"/>
		</g>
		<g>
			<path style="fill:#0C333D;" d="M36.646,84h19.507c5.345-3.349,8.777-9.294,8.636-16H28.011C27.869,74.692,31.29,80.644,36.646,84
				z"/>
		</g>
		<g>
			<path style="fill:#E1F5FA;" d="M47,36.713l-16.479-6.18c-0.864-0.325-1.839-0.086-2.457,0.6c-0.618,0.687-0.753,1.681-0.34,2.507
				L31.903,42H47V36.713z"/>
		</g>
		<g>
			<path style="fill:#E1F5FA;" d="M47,50H31.183c-4.944,4.219-8.084,10.491-8.084,17.5c0,8.223,4.319,15.434,10.808,19.5H47V50z"/>
		</g>
		<g>
			<path style="fill:#0F6175;" d="M47.121,68h-19.11c-0.138,6.74,3.314,12.665,8.636,16h10.475V68z"/>
		</g>
	</g>
</g>
<g id="R-Blue" style="display:none;">
	<circle style="display:inline;fill:#81D2EB;" cx="55" cy="55" r="55"/>
	<g style="display:inline;">
		<g>
			<path style="fill:#BBE7F2;" d="M61.016,50H31.183c-4.944,4.219-8.084,10.491-8.084,17.5c0,8.223,4.319,15.434,10.808,19.5h24.385
				c6.489-4.066,10.808-11.277,10.808-19.5C69.099,60.491,65.96,54.219,61.016,50z"/>
		</g>
		<g>
			<g>
				<path style="fill:#0C333D;" d="M77.406,38.368c-0.97-0.85-2.329-1.096-3.536-0.646l-12.771,4.789v7.477l13.162-4.937
					c5.975,6.379,7.225,16.038,3.955,30.158c-0.437,1.884,0.736,3.764,2.62,4.2c0.266,0.062,0.531,0.09,0.792,0.09
					c1.593,0,3.032-1.093,3.407-2.711C89.202,58.793,86.778,46.585,77.406,38.368z"/>
			</g>
		</g>
		<g>
			<rect x="31.099" y="42" style="fill:#E1F5FA;" width="30" height="8"/>
		</g>
		<g>
			<rect x="31.099" y="42" style="fill:#FFFFFF;" width="15.901" height="8"/>
		</g>
		<g>
			<path style="fill:#BBE7F2;" d="M31.903,42l-4.18-8.359c-0.413-0.826-0.278-1.821,0.339-2.507c0.618-0.686,1.594-0.924,2.458-0.6
				L61.099,42H31.903z"/>
		</g>
		<g>
			<path style="fill:#0C333D;" d="M36.646,84h19.507c5.345-3.349,8.777-9.294,8.636-16H28.011C27.869,74.692,31.29,80.644,36.646,84
				z"/>
		</g>
		<g>
			<path style="fill:#E1F5FA;" d="M47,36.713l-16.479-6.18c-0.864-0.325-1.839-0.086-2.457,0.6c-0.618,0.687-0.753,1.681-0.34,2.507
				L31.903,42H47V36.713z"/>
		</g>
		<g>
			<path style="fill:#E1F5FA;" d="M47,50H31.183c-4.944,4.219-8.084,10.491-8.084,17.5c0,8.223,4.319,15.434,10.808,19.5H47V50z"/>
		</g>
		<g>
			<path style="fill:#0F6175;" d="M47.121,68h-19.11c-0.138,6.74,3.314,12.665,8.636,16h10.475V68z"/>
		</g>
	</g>
</g>
<g id="Green" style="display:none;">
	<g style="display:inline;">
		<g>
			<path style="fill:#AAF0E9;" d="M61.016,50H31.183c-4.944,4.219-8.084,10.491-8.084,17.5c0,8.223,4.319,15.434,10.808,19.5h24.385
				c6.489-4.066,10.808-11.277,10.808-19.5C69.099,60.491,65.96,54.219,61.016,50z"/>
		</g>
		<g>
			<g>
				<path style="fill:#0A3631;" d="M77.406,38.368c-0.97-0.85-2.329-1.096-3.536-0.646l-12.771,4.789v7.477l13.162-4.937
					c5.975,6.379,7.225,16.038,3.955,30.158c-0.437,1.884,0.736,3.764,2.62,4.2c0.266,0.062,0.531,0.09,0.792,0.09
					c1.593,0,3.032-1.093,3.407-2.711C89.202,58.793,86.778,46.585,77.406,38.368z"/>
			</g>
		</g>
		<g>
			<rect x="31.099" y="42" style="fill:#D7FCF9;" width="30" height="8"/>
		</g>
		<g>
			<rect x="31.099" y="42" style="fill:#FFFFFF;" width="15.901" height="8"/>
		</g>
		<g>
			<path style="fill:#AAF0E9;" d="M31.903,42l-4.18-8.359c-0.413-0.826-0.278-1.821,0.339-2.507c0.618-0.686,1.594-0.924,2.458-0.6
				L61.099,42H31.903z"/>
		</g>
		<g>
			<path style="fill:#0A3631;" d="M36.646,84h19.507c5.345-3.349,8.777-9.294,8.636-16H28.011C27.869,74.692,31.29,80.644,36.646,84
				z"/>
		</g>
		<g>
			<path style="fill:#D7FCF9;" d="M47,36.713l-16.479-6.18c-0.864-0.325-1.839-0.086-2.457,0.6c-0.618,0.686-0.753,1.681-0.34,2.507
				L31.903,42H47V36.713z"/>
		</g>
		<g>
			<path style="fill:#D7FCF9;" d="M47,50H31.183c-4.944,4.219-8.084,10.491-8.084,17.5c0,8.223,4.319,15.434,10.808,19.5H47V50z"/>
		</g>
		<g>
			<path style="fill:#14635B;" d="M47.121,68h-19.11c-0.138,6.74,3.314,12.665,8.636,16h10.475V68z"/>
		</g>
	</g>
</g>
<g id="R-Green" style="display:none;">
	<circle style="display:inline;fill:#77E0C4;" cx="55" cy="55" r="55"/>
	<g style="display:inline;">
		<g>
			<path style="fill:#AAF0E9;" d="M61.016,50H31.183c-4.944,4.219-8.084,10.491-8.084,17.5c0,8.223,4.319,15.434,10.808,19.5h24.385
				c6.489-4.066,10.808-11.277,10.808-19.5C69.099,60.491,65.96,54.219,61.016,50z"/>
		</g>
		<g>
			<g>
				<path style="fill:#0A3631;" d="M77.406,38.368c-0.97-0.85-2.329-1.096-3.536-0.646l-12.772,4.789v7.477l13.162-4.937
					c5.975,6.379,7.225,16.038,3.955,30.158c-0.437,1.884,0.736,3.764,2.62,4.2c0.266,0.062,0.531,0.09,0.792,0.09
					c1.593,0,3.032-1.093,3.407-2.711C89.202,58.793,86.778,46.585,77.406,38.368z"/>
			</g>
		</g>
		<g>
			<rect x="31.099" y="42" style="fill:#D7FCF9;" width="30" height="8"/>
		</g>
		<g>
			<rect x="31.099" y="42" style="fill:#FFFFFF;" width="15.901" height="8"/>
		</g>
		<g>
			<path style="fill:#AAF0E9;" d="M31.903,42l-4.18-8.359c-0.413-0.826-0.278-1.821,0.339-2.507c0.618-0.686,1.594-0.924,2.458-0.6
				L61.099,42H31.903z"/>
		</g>
		<g>
			<path style="fill:#0A3631;" d="M36.646,84h19.507c5.345-3.349,8.777-9.294,8.636-16H28.011C27.869,74.692,31.29,80.644,36.646,84
				z"/>
		</g>
		<g>
			<path style="fill:#D7FCF9;" d="M47,36.713l-16.479-6.18c-0.864-0.325-1.839-0.086-2.457,0.6c-0.618,0.687-0.753,1.681-0.34,2.507
				L31.903,42H47V36.713z"/>
		</g>
		<g>
			<path style="fill:#D7FCF9;" d="M47,50H31.183c-4.944,4.219-8.084,10.491-8.084,17.5c0,8.223,4.319,15.434,10.808,19.5H47V50z"/>
		</g>
		<g>
			<path style="fill:#14635B;" d="M47.121,68h-19.11c-0.138,6.74,3.313,12.665,8.636,16h10.475V68z"/>
		</g>
	</g>
</g>
<g id="Red" style="display:none;">
	<g style="display:inline;">
		<g>
			<path style="fill:#FFD7D4;" d="M61.016,50H31.183c-4.944,4.219-8.084,10.491-8.084,17.5c0,8.223,4.319,15.434,10.808,19.5h24.385
				c6.489-4.066,10.808-11.277,10.808-19.5C69.099,60.491,65.96,54.219,61.016,50z"/>
		</g>
		<g>
			<g>
				<path style="fill:#4A1410;" d="M77.406,38.368c-0.97-0.85-2.329-1.096-3.536-0.646l-12.771,4.789v7.477l13.162-4.937
					c5.975,6.379,7.225,16.038,3.955,30.158c-0.437,1.884,0.736,3.764,2.62,4.2c0.266,0.062,0.531,0.09,0.792,0.09
					c1.593,0,3.032-1.093,3.407-2.711C89.202,58.793,86.778,46.585,77.406,38.368z"/>
			</g>
		</g>
		<g>
			<rect x="31.099" y="42" style="fill:#FFEFED;" width="30" height="8"/>
		</g>
		<g>
			<rect x="31.099" y="42" style="fill:#FFFFFF;" width="15.901" height="8"/>
		</g>
		<g>
			<path style="fill:#FFD7D4;" d="M31.903,42l-4.18-8.359c-0.413-0.826-0.278-1.821,0.339-2.507c0.618-0.686,1.594-0.924,2.458-0.6
				L61.099,42H31.903z"/>
		</g>
		<g>
			<path style="fill:#4A1410;" d="M36.646,84h19.507c5.345-3.349,8.777-9.294,8.636-16H28.011C27.869,74.692,31.29,80.644,36.646,84
				z"/>
		</g>
		<g>
			<path style="fill:#FFEFED;" d="M47,36.713l-16.479-6.18c-0.864-0.325-1.839-0.086-2.457,0.6c-0.618,0.686-0.753,1.681-0.34,2.507
				L31.903,42H47V36.713z"/>
		</g>
		<g>
			<path style="fill:#FFEFED;" d="M47,50H31.183c-4.944,4.219-8.084,10.491-8.084,17.5c0,8.223,4.319,15.434,10.808,19.5H47V50z"/>
		</g>
		<g>
			<path style="fill:#7D261E;" d="M47.121,68h-19.11c-0.138,6.74,3.313,12.666,8.636,16h10.475V68z"/>
		</g>
	</g>
</g>
<g id="R-Red" style="display:none;">
	<circle style="display:inline;fill:#FABBAF;" cx="55" cy="55" r="55"/>
	<g style="display:inline;">
		<g>
			<path style="fill:#FFD7D4;" d="M61.016,50H31.183c-4.944,4.219-8.084,10.491-8.084,17.5c0,8.223,4.319,15.434,10.808,19.5h24.385
				c6.489-4.066,10.808-11.277,10.808-19.5C69.099,60.491,65.96,54.219,61.016,50z"/>
		</g>
		<g>
			<g>
				<path style="fill:#4A1410;" d="M77.406,38.368c-0.97-0.85-2.329-1.096-3.536-0.646l-12.771,4.789v7.477l13.162-4.937
					c5.975,6.379,7.225,16.038,3.955,30.158c-0.437,1.884,0.736,3.764,2.62,4.2c0.266,0.062,0.531,0.09,0.792,0.09
					c1.593,0,3.032-1.093,3.407-2.711C89.202,58.793,86.778,46.585,77.406,38.368z"/>
			</g>
		</g>
		<g>
			<rect x="31.099" y="42" style="fill:#FFEFED;" width="30" height="8"/>
		</g>
		<g>
			<rect x="31.099" y="42" style="fill:#FFFFFF;" width="15.901" height="8"/>
		</g>
		<g>
			<path style="fill:#FFD7D4;" d="M31.903,42l-4.18-8.359c-0.413-0.826-0.278-1.821,0.339-2.507c0.618-0.686,1.594-0.924,2.458-0.6
				L61.099,42H31.903z"/>
		</g>
		<g>
			<path style="fill:#4A1410;" d="M36.646,84h19.507c5.345-3.349,8.777-9.294,8.636-16H28.011C27.869,74.692,31.29,80.644,36.646,84
				z"/>
		</g>
		<g>
			<path style="fill:#FFEFED;" d="M47,36.713l-16.479-6.18c-0.864-0.325-1.839-0.086-2.457,0.6c-0.618,0.686-0.753,1.681-0.34,2.507
				L31.903,42H47V36.713z"/>
		</g>
		<g>
			<path style="fill:#FFEFED;" d="M47,50H31.183c-4.944,4.219-8.084,10.491-8.084,17.5c0,8.223,4.319,15.434,10.808,19.5H47V50z"/>
		</g>
		<g>
			<path style="fill:#7D261E;" d="M47.121,68h-19.11c-0.138,6.74,3.313,12.666,8.636,16h10.475V68z"/>
		</g>
	</g>
</g>
<g id="Yellow" style="display:none;">
	<g style="display:inline;">
		<g>
			<path style="fill:#FFE9A1;" d="M61.016,50H31.183c-4.944,4.219-8.084,10.491-8.084,17.5c0,8.223,4.319,15.434,10.808,19.5h24.385
				c6.489-4.066,10.808-11.277,10.808-19.5C69.099,60.491,65.96,54.219,61.016,50z"/>
		</g>
		<g>
			<g>
				<path style="fill:#3D320C;" d="M77.406,38.368c-0.97-0.85-2.329-1.096-3.536-0.646l-12.772,4.789v7.477l13.162-4.937
					c5.975,6.379,7.225,16.038,3.955,30.158c-0.437,1.884,0.736,3.764,2.62,4.2c0.266,0.062,0.531,0.09,0.792,0.09
					c1.593,0,3.032-1.093,3.407-2.711C89.202,58.793,86.778,46.585,77.406,38.368z"/>
			</g>
		</g>
		<g>
			<rect x="31.099" y="42" style="fill:#FFF5D9;" width="30" height="8"/>
		</g>
		<g>
			<rect x="31.099" y="42" style="fill:#FFFFFF;" width="15.901" height="8"/>
		</g>
		<g>
			<path style="fill:#FFE9A1;" d="M31.903,42l-4.18-8.359c-0.413-0.826-0.278-1.821,0.339-2.507c0.618-0.686,1.594-0.924,2.458-0.6
				L61.099,42H31.903z"/>
		</g>
		<g>
			<path style="fill:#3D320C;" d="M36.646,84h19.507c5.345-3.349,8.777-9.294,8.636-16H28.011C27.869,74.692,31.29,80.644,36.646,84
				z"/>
		</g>
		<g>
			<path style="fill:#FFF5D9;" d="M47,36.713l-16.479-6.18c-0.864-0.325-1.839-0.086-2.457,0.6c-0.618,0.687-0.753,1.681-0.34,2.507
				L31.903,42H47V36.713z"/>
		</g>
		<g>
			<path style="fill:#FFF5D9;" d="M47,50H31.183c-4.944,4.219-8.084,10.491-8.084,17.5c0,8.223,4.319,15.434,10.808,19.5H47V50z"/>
		</g>
		<g>
			<path style="fill:#66510D;" d="M47.121,68h-19.11c-0.138,6.74,3.313,12.665,8.636,16h10.475V68z"/>
		</g>
	</g>
</g>
<g id="R-Yellow" style="display:none;">
	<circle style="display:inline;fill:#FFD75E;" cx="55" cy="55" r="55"/>
	<g style="display:inline;">
		<g>
			<path style="fill:#FFE9A1;" d="M61.016,50H31.183c-4.944,4.219-8.084,10.491-8.084,17.5c0,8.223,4.319,15.434,10.808,19.5h24.385
				c6.489-4.066,10.808-11.277,10.808-19.5C69.099,60.491,65.96,54.219,61.016,50z"/>
		</g>
		<g>
			<g>
				<path style="fill:#3D320C;" d="M77.406,38.368c-0.97-0.85-2.329-1.096-3.536-0.646l-12.771,4.789v7.477l13.162-4.937
					c5.975,6.379,7.225,16.038,3.955,30.158c-0.437,1.884,0.736,3.764,2.62,4.2c0.266,0.062,0.531,0.09,0.792,0.09
					c1.593,0,3.032-1.093,3.407-2.711C89.202,58.793,86.778,46.585,77.406,38.368z"/>
			</g>
		</g>
		<g>
			<rect x="31.099" y="42" style="fill:#FFF5D9;" width="30" height="8"/>
		</g>
		<g>
			<rect x="31.099" y="42" style="fill:#FFFFFF;" width="15.901" height="8"/>
		</g>
		<g>
			<path style="fill:#FFE9A1;" d="M31.903,42l-4.18-8.359c-0.413-0.826-0.278-1.821,0.339-2.507c0.618-0.686,1.594-0.924,2.458-0.6
				L61.099,42H31.903z"/>
		</g>
		<g>
			<path style="fill:#3D320C;" d="M36.646,84h19.507c5.345-3.349,8.777-9.294,8.636-16H28.011C27.869,74.692,31.29,80.644,36.646,84
				z"/>
		</g>
		<g>
			<path style="fill:#FFF5D9;" d="M47,36.713l-16.479-6.18c-0.864-0.325-1.839-0.086-2.457,0.6c-0.618,0.687-0.753,1.681-0.34,2.507
				L31.903,42H47V36.713z"/>
		</g>
		<g>
			<path style="fill:#FFF5D9;" d="M47,50H31.183c-4.944,4.219-8.084,10.491-8.084,17.5c0,8.223,4.319,15.434,10.808,19.5H47V50z"/>
		</g>
		<g>
			<path style="fill:#66510D;" d="M47.121,68h-19.11c-0.138,6.74,3.314,12.665,8.636,16h10.475V68z"/>
		</g>
	</g>
</g>
</svg>
