<?xml version="1.0" encoding="iso-8859-1"?>
<!-- Generator: Adobe Illustrator 17.1.0, SVG Export Plug-In . SVG Version: 6.00 Build 0)  -->
<!DOCTYPE svg PUBLIC "-//W3C//DTD SVG 1.0//EN" "http://www.w3.org/TR/2001/REC-SVG-20010904/DTD/svg10.dtd">
<svg version="1.0" xmlns="http://www.w3.org/2000/svg" xmlns:xlink="http://www.w3.org/1999/xlink" x="0px" y="0px" width="110px"
	 height="110px" viewBox="0 0 110 110" style="enable-background:new 0 0 110 110;" xml:space="preserve">
<g id="Artboard" style="display:none;">
	
		<rect x="-1224.5" y="-1058.5" style="display:inline;fill:#808080;stroke:#000000;stroke-miterlimit:10;" width="1392" height="1369"/>
</g>
<g id="R-Multicolor">
	<circle style="fill:#FABC3D;" cx="55" cy="55" r="55"/>
	<g>
		<g>
			<path style="fill:#3E3E3F;" d="M47,43h32V33c0-5.523-4.477-10-10-10H29c-3.314,0-6,2.686-6,6v52c0,3.314,2.686,6,6,6h56
				c1.105,0,2-0.895,2-2v-6c0-4.418-3.582-8-8-8H47V43z"/>
		</g>
		<g>
			<path style="fill:#9E9FA0;" d="M58.96,47h16.08c2.187,0,3.96-1.773,3.96-3.96V43H55v0.04C55,45.227,56.773,47,58.96,47z"/>
		</g>
		<g>
			<path style="fill:#3E3E3F;" d="M71,48c0,1.105-0.895,2-2,2h-4c-1.105,0-2-0.895-2-2v-1h8V48z"/>
		</g>
		<g>
			<path style="fill:#9E9FA0;" d="M48,28c0,0.552-0.448,1-1,1H29c-0.552,0-1-0.448-1-1s0.448-1,1-1h18C47.552,27,48,27.448,48,28z"
				/>
		</g>
		<g>
			<path style="fill:#9E9FA0;" d="M48,33c0,0.552-0.448,1-1,1H29c-0.552,0-1-0.448-1-1s0.448-1,1-1h18C47.552,32,48,32.448,48,33z"
				/>
		</g>
		<g>
			<path style="fill:#9E9FA0;" d="M48,38c0,0.552-0.448,1-1,1H29c-0.552,0-1-0.448-1-1s0.448-1,1-1h18C47.552,37,48,37.448,48,38z"
				/>
		</g>
		<g>
			<path style="fill:#9E9FA0;" d="M36,71h-4c-2.209,0-4-1.791-4-4V43h8V71z"/>
		</g>
		<g>
			<path style="fill:#E2E4E5;" d="M80,59H56v2.1c0,5.319,4.246,9.9,10,9.9h2c2.266,0,4.295-0.686,6.023-1.981
				c0.549,0.008,1.089,0.015,1.613,0.015c2.881,0,5.326-0.218,6.872-1.741C83.512,66.303,84,64.899,84,63C84,60.065,81.608,59,80,59
				z M76.013,67.032C77.269,65.359,78,63.34,78,61h2c0.334,0,2,0.096,2,2C82,66.386,80.187,66.999,76.013,67.032z"/>
		</g>
		<g>
			<path style="fill:#84462D;" d="M69,55c0,1.105-0.895,2-2,2s-2-0.895-2-2s2-3.778,2-3.778S69,53.895,69,55z"/>
		</g>
		<g>
			<path style="fill:#5B5C5F;" d="M67,47h-4v1c0,1.104,0.896,2,2,2h2V47z"/>
		</g>
		<g>
			<path style="fill:#9C6144;" d="M65,55c0,1.104,0.896,2,2,2v-5.778C67,51.222,65,53.896,65,55z"/>
		</g>
		<g>
			<path style="fill:#FFFFFF;" d="M67,59H56v2.1c0,5.32,4.246,9.9,10,9.9h1V59z"/>
		</g>
		<g>
			<path style="fill:#C7CBCC;" d="M67,43H55v0.04c0,2.187,1.773,3.96,3.96,3.96H67V43z"/>
		</g>
	</g>
</g>
<g id="Multicolor" style="display:none;">
	<g style="display:inline;">
		<g>
			<path style="fill:#3E3E3F;" d="M47,43h32V33c0-5.523-4.477-10-10-10H29c-3.314,0-6,2.686-6,6v52c0,3.314,2.686,6,6,6h56
				c1.105,0,2-0.895,2-2v-6c0-4.418-3.582-8-8-8H47V43z"/>
		</g>
		<g>
			<path style="fill:#9E9FA0;" d="M58.96,47h16.08c2.187,0,3.96-1.773,3.96-3.96V43H55v0.04C55,45.227,56.773,47,58.96,47z"/>
		</g>
		<g>
			<path style="fill:#3E3E3F;" d="M71,48c0,1.105-0.895,2-2,2h-4c-1.105,0-2-0.895-2-2v-1h8V48z"/>
		</g>
		<g>
			<path style="fill:#9E9FA0;" d="M48,28c0,0.552-0.448,1-1,1H29c-0.552,0-1-0.448-1-1s0.448-1,1-1h18C47.552,27,48,27.448,48,28z"
				/>
		</g>
		<g>
			<path style="fill:#9E9FA0;" d="M48,33c0,0.552-0.448,1-1,1H29c-0.552,0-1-0.448-1-1s0.448-1,1-1h18C47.552,32,48,32.448,48,33z"
				/>
		</g>
		<g>
			<path style="fill:#9E9FA0;" d="M48,38c0,0.552-0.448,1-1,1H29c-0.552,0-1-0.448-1-1s0.448-1,1-1h18C47.552,37,48,37.448,48,38z"
				/>
		</g>
		<g>
			<path style="fill:#9E9FA0;" d="M36,71h-4c-2.209,0-4-1.791-4-4V43h8V71z"/>
		</g>
		<g>
			<path style="fill:#E2E4E5;" d="M80,59H56v2.1c0,5.319,4.246,9.9,10,9.9h2c2.266,0,4.295-0.686,6.023-1.981
				c0.549,0.008,1.089,0.015,1.613,0.015c2.881,0,5.326-0.218,6.872-1.741C83.512,66.303,84,64.899,84,63C84,60.065,81.608,59,80,59
				z M76.013,67.032C77.269,65.359,78,63.34,78,61h2c0.334,0,2,0.096,2,2C82,66.386,80.187,66.999,76.013,67.032z"/>
		</g>
		<g>
			<path style="fill:#84462D;" d="M69,55c0,1.105-0.895,2-2,2s-2-0.895-2-2s2-3.778,2-3.778S69,53.895,69,55z"/>
		</g>
		<g>
			<path style="fill:#5B5C5F;" d="M67,47h-4v1c0,1.104,0.896,2,2,2h2V47z"/>
		</g>
		<g>
			<path style="fill:#9C6144;" d="M65,55c0,1.104,0.896,2,2,2v-5.778C67,51.222,65,53.896,65,55z"/>
		</g>
		<g>
			<path style="fill:#FFFFFF;" d="M67,59H56v2.1c0,5.32,4.246,9.9,10,9.9h1V59z"/>
		</g>
		<g>
			<path style="fill:#C7CBCC;" d="M67,43H55v0.04c0,2.187,1.773,3.96,3.96,3.96H67V43z"/>
		</g>
	</g>
</g>
<g id="Blue" style="display:none;">
	<g style="display:inline;">
		<g>
			<path style="fill:#0C333D;" d="M47,43h32V33c0-5.522-4.478-10-10-10H29c-3.313,0-6,2.687-6,6v52c0,3.314,2.687,6,6,6h56
				c1.104,0,2-0.896,2-2v-6c0-4.418-3.582-8-8-8H47V43z"/>
		</g>
		<g>
			<path style="fill:#E1F5FA;" d="M58.96,47h16.08c2.187,0,3.96-1.773,3.96-3.96V43H55v0.04C55,45.227,56.773,47,58.96,47z"/>
		</g>
		<g>
			<path style="fill:#0C333D;" d="M71,48c0,1.104-0.896,2-2,2h-4c-1.104,0-2-0.896-2-2v-1h8V48z"/>
		</g>
		<g>
			<path style="fill:#33899E;" d="M48,28c0,0.552-0.447,1-1,1H29c-0.553,0-1-0.448-1-1s0.447-1,1-1h18C47.553,27,48,27.448,48,28z"
				/>
		</g>
		<g>
			<path style="fill:#33899E;" d="M48,33c0,0.552-0.447,1-1,1H29c-0.553,0-1-0.448-1-1s0.447-1,1-1h18C47.553,32,48,32.448,48,33z"
				/>
		</g>
		<g>
			<path style="fill:#33899E;" d="M48,38c0,0.552-0.447,1-1,1H29c-0.553,0-1-0.448-1-1s0.447-1,1-1h18C47.553,37,48,37.448,48,38z"
				/>
		</g>
		<g>
			<path style="fill:#33899E;" d="M36,71h-4c-2.209,0-4-1.791-4-4V43h8V71z"/>
		</g>
		<g>
			<path style="fill:#E1F5FA;" d="M80,59H56v2.1c0,5.32,4.246,9.9,10,9.9h2c2.267,0,4.295-0.686,6.023-1.98
				c0.549,0.007,1.089,0.015,1.612,0.015c2.881,0,5.326-0.217,6.872-1.741C83.512,66.304,84,64.899,84,63C84,60.065,81.607,59,80,59
				z M76.013,67.032C77.269,65.359,78,63.34,78,61h2c0.334,0,2,0.097,2,2C82,66.386,80.187,67,76.013,67.032z"/>
		</g>
		<g>
			<path style="fill:#0081A1;" d="M69,55c0,1.104-0.896,2-2,2s-2-0.896-2-2s2-3.778,2-3.778S69,53.896,69,55z"/>
		</g>
		<g>
			<path style="fill:#0F6175;" d="M67,47h-4v1c0,1.104,0.896,2,2,2h2V47z"/>
		</g>
		<g>
			<path style="fill:#009FC7;" d="M65,55c0,1.104,0.896,2,2,2v-5.778C67,51.222,65,53.896,65,55z"/>
		</g>
		<g>
			<path style="fill:#FFFFFF;" d="M67,59H56v2.1c0,5.32,4.246,9.9,10,9.9h1V59z"/>
		</g>
		<g>
			<path style="fill:#FFFFFF;" d="M67,43H55v0.04c0,2.187,1.773,3.96,3.96,3.96H67V43z"/>
		</g>
	</g>
</g>
<g id="R-Blue" style="display:none;">
	<circle style="display:inline;fill:#81D2EB;" cx="55" cy="55" r="55"/>
	<g style="display:inline;">
		<g>
			<path style="fill:#0C333D;" d="M47,43h32V33c0-5.522-4.478-10-10-10H29c-3.313,0-6,2.687-6,6v52c0,3.314,2.687,6,6,6h56
				c1.104,0,2-0.896,2-2v-6c0-4.418-3.582-8-8-8H47V43z"/>
		</g>
		<g>
			<path style="fill:#E1F5FA;" d="M58.96,47h16.08c2.187,0,3.96-1.773,3.96-3.96V43H55v0.04C55,45.227,56.773,47,58.96,47z"/>
		</g>
		<g>
			<path style="fill:#0C333D;" d="M71,48c0,1.104-0.896,2-2,2h-4c-1.104,0-2-0.896-2-2v-1h8V48z"/>
		</g>
		<g>
			<path style="fill:#33899E;" d="M48,28c0,0.552-0.447,1-1,1H29c-0.553,0-1-0.448-1-1s0.447-1,1-1h18C47.553,27,48,27.448,48,28z"
				/>
		</g>
		<g>
			<path style="fill:#33899E;" d="M48,33c0,0.552-0.447,1-1,1H29c-0.553,0-1-0.448-1-1s0.447-1,1-1h18C47.553,32,48,32.448,48,33z"
				/>
		</g>
		<g>
			<path style="fill:#33899E;" d="M48,38c0,0.552-0.447,1-1,1H29c-0.553,0-1-0.448-1-1s0.447-1,1-1h18C47.553,37,48,37.448,48,38z"
				/>
		</g>
		<g>
			<path style="fill:#33899E;" d="M36,71h-4c-2.209,0-4-1.791-4-4V43h8V71z"/>
		</g>
		<g>
			<path style="fill:#E1F5FA;" d="M80,59H56v2.1c0,5.32,4.246,9.9,10,9.9h2c2.267,0,4.295-0.686,6.023-1.981
				c0.549,0.007,1.089,0.015,1.612,0.015c2.881,0,5.326-0.217,6.872-1.741C83.512,66.304,84,64.899,84,63C84,60.065,81.607,59,80,59
				z M76.013,67.032C77.269,65.359,78,63.34,78,61h2c0.334,0,2,0.097,2,2C82,66.386,80.187,66.999,76.013,67.032z"/>
		</g>
		<g>
			<path style="fill:#0081A1;" d="M69,55c0,1.104-0.896,2-2,2s-2-0.896-2-2s2-3.778,2-3.778S69,53.895,69,55z"/>
		</g>
		<g>
			<path style="fill:#0F6175;" d="M67,47h-4v1c0,1.104,0.896,2,2,2h2V47z"/>
		</g>
		<g>
			<path style="fill:#009FC7;" d="M65,55c0,1.104,0.896,2,2,2v-5.778C67,51.222,65,53.895,65,55z"/>
		</g>
		<g>
			<path style="fill:#FFFFFF;" d="M67,59H56v2.1c0,5.32,4.246,9.9,10,9.9h1V59z"/>
		</g>
		<g>
			<path style="fill:#FFFFFF;" d="M67,43H55v0.04c0,2.187,1.773,3.96,3.96,3.96H67V43z"/>
		</g>
	</g>
</g>
<g id="Green" style="display:none;">
	<g style="display:inline;">
		<g>
			<path style="fill:#0A3631;" d="M47,43h32V33c0-5.522-4.478-10-10-10H29c-3.313,0-6,2.687-6,6v52c0,3.314,2.687,6,6,6h56
				c1.104,0,2-0.896,2-2v-6c0-4.418-3.582-8-8-8H47V43z"/>
		</g>
		<g>
			<path style="fill:#D7FCF9;" d="M58.96,47h16.08c2.187,0,3.96-1.773,3.96-3.96V43H55v0.04C55,45.227,56.773,47,58.96,47z"/>
		</g>
		<g>
			<path style="fill:#0A3631;" d="M71,48c0,1.104-0.896,2-2,2h-4c-1.105,0-2-0.896-2-2v-1h8V48z"/>
		</g>
		<g>
			<path style="fill:#3E948B;" d="M48,28c0,0.552-0.447,1-1,1H29c-0.553,0-1-0.448-1-1s0.447-1,1-1h18C47.553,27,48,27.448,48,28z"
				/>
		</g>
		<g>
			<path style="fill:#3E948B;" d="M48,33c0,0.552-0.447,1-1,1H29c-0.553,0-1-0.448-1-1s0.447-1,1-1h18C47.553,32,48,32.448,48,33z"
				/>
		</g>
		<g>
			<path style="fill:#3E948B;" d="M48,38c0,0.552-0.447,1-1,1H29c-0.553,0-1-0.448-1-1s0.447-1,1-1h18C47.553,37,48,37.448,48,38z"
				/>
		</g>
		<g>
			<path style="fill:#3E948B;" d="M36,71h-4c-2.209,0-4-1.791-4-4V43h8V71z"/>
		</g>
		<g>
			<path style="fill:#D7FCF9;" d="M80,59H56v2.1c0,5.32,4.246,9.9,10,9.9h2c2.267,0,4.295-0.686,6.023-1.98
				c0.549,0.007,1.089,0.015,1.612,0.015c2.881,0,5.326-0.217,6.872-1.741C83.512,66.304,84,64.899,84,63C84,60.065,81.607,59,80,59
				z M76.013,67.032C77.269,65.359,78,63.34,78,61h2c0.334,0,2,0.097,2,2C82,66.386,80.187,66.999,76.013,67.032z"/>
		</g>
		<g>
			<path style="fill:#009687;" d="M69,55c0,1.104-0.896,2-2,2s-2-0.896-2-2s2-3.778,2-3.778S69,53.896,69,55z"/>
		</g>
		<g>
			<path style="fill:#14635B;" d="M67,47h-4v1c0,1.104,0.896,2,2,2h2V47z"/>
		</g>
		<g>
			<path style="fill:#00B8A5;" d="M65,55c0,1.104,0.896,2,2,2v-5.778C67,51.222,65,53.896,65,55z"/>
		</g>
		<g>
			<path style="fill:#FFFFFF;" d="M67,59H56v2.1c0,5.32,4.246,9.9,10,9.9h1V59z"/>
		</g>
		<g>
			<path style="fill:#FFFFFF;" d="M67,43H55v0.04c0,2.187,1.773,3.96,3.96,3.96H67V43z"/>
		</g>
	</g>
</g>
<g id="R-Green" style="display:none;">
	<circle style="display:inline;fill:#77E0C4;" cx="55" cy="55" r="55"/>
	<g style="display:inline;">
		<g>
			<path style="fill:#0A3631;" d="M47,43h32V33c0-5.522-4.478-10-10-10H29c-3.313,0-6,2.687-6,6v52c0,3.314,2.687,6,6,6h56
				c1.104,0,2-0.896,2-2v-6c0-4.418-3.582-8-8-8H47V43z"/>
		</g>
		<g>
			<path style="fill:#D7FCF9;" d="M58.96,47h16.08c2.187,0,3.96-1.773,3.96-3.96V43H55v0.04C55,45.227,56.773,47,58.96,47z"/>
		</g>
		<g>
			<path style="fill:#0A3631;" d="M71,48c0,1.104-0.896,2-2,2h-4c-1.104,0-2-0.896-2-2v-1h8V48z"/>
		</g>
		<g>
			<path style="fill:#3E948B;" d="M48,28c0,0.552-0.447,1-1,1H29c-0.553,0-1-0.448-1-1s0.447-1,1-1h18C47.553,27,48,27.448,48,28z"
				/>
		</g>
		<g>
			<path style="fill:#3E948B;" d="M48,33c0,0.552-0.447,1-1,1H29c-0.553,0-1-0.448-1-1s0.447-1,1-1h18C47.553,32,48,32.448,48,33z"
				/>
		</g>
		<g>
			<path style="fill:#3E948B;" d="M48,38c0,0.552-0.447,1-1,1H29c-0.553,0-1-0.448-1-1s0.447-1,1-1h18C47.553,37,48,37.448,48,38z"
				/>
		</g>
		<g>
			<path style="fill:#3E948B;" d="M36,71h-4c-2.209,0-4-1.791-4-4V43h8V71z"/>
		</g>
		<g>
			<path style="fill:#D7FCF9;" d="M80,59H56v2.1c0,5.32,4.246,9.9,10,9.9h2c2.267,0,4.295-0.686,6.023-1.98
				c0.549,0.007,1.089,0.015,1.612,0.015c2.881,0,5.326-0.217,6.872-1.741C83.512,66.304,84,64.899,84,63C84,60.065,81.607,59,80,59
				z M76.013,67.032C77.269,65.359,78,63.34,78,61h2c0.334,0,2,0.097,2,2C82,66.386,80.187,67,76.013,67.032z"/>
		</g>
		<g>
			<path style="fill:#009687;" d="M69,55c0,1.104-0.896,2-2,2s-2-0.896-2-2s2-3.778,2-3.778S69,53.896,69,55z"/>
		</g>
		<g>
			<path style="fill:#14635B;" d="M67,47h-4v1c0,1.104,0.896,2,2,2h2V47z"/>
		</g>
		<g>
			<path style="fill:#00B8A5;" d="M65,55c0,1.104,0.896,2,2,2v-5.778C67,51.222,65,53.896,65,55z"/>
		</g>
		<g>
			<path style="fill:#FFFFFF;" d="M67,59H56v2.1c0,5.32,4.246,9.9,10,9.9h1V59z"/>
		</g>
		<g>
			<path style="fill:#FFFFFF;" d="M67,43H55v0.04c0,2.187,1.773,3.96,3.96,3.96H67V43z"/>
		</g>
	</g>
</g>
<g id="Red" style="display:none;">
	<g style="display:inline;">
		<g>
			<path style="fill:#4A1410;" d="M47,43h32V33c0-5.522-4.478-10-10-10H29c-3.314,0-6,2.687-6,6v52c0,3.314,2.686,6,6,6h56
				c1.104,0,2-0.896,2-2v-6c0-4.418-3.582-8-8-8H47V43z"/>
		</g>
		<g>
			<path style="fill:#FFEFED;" d="M58.96,47h16.08c2.187,0,3.96-1.773,3.96-3.96V43H55v0.04C55,45.227,56.773,47,58.96,47z"/>
		</g>
		<g>
			<path style="fill:#4A1410;" d="M71,48c0,1.104-0.896,2-2,2h-4c-1.104,0-2-0.896-2-2v-1h8V48z"/>
		</g>
		<g>
			<path style="fill:#B84E44;" d="M48,28c0,0.552-0.447,1-1,1H29c-0.553,0-1-0.448-1-1s0.447-1,1-1h18C47.553,27,48,27.448,48,28z"
				/>
		</g>
		<g>
			<path style="fill:#B84E44;" d="M48,33c0,0.552-0.447,1-1,1H29c-0.553,0-1-0.448-1-1s0.447-1,1-1h18C47.553,32,48,32.448,48,33z"
				/>
		</g>
		<g>
			<path style="fill:#B84E44;" d="M48,38c0,0.552-0.447,1-1,1H29c-0.553,0-1-0.448-1-1s0.447-1,1-1h18C47.553,37,48,37.448,48,38z"
				/>
		</g>
		<g>
			<path style="fill:#B84E44;" d="M36,71h-4c-2.209,0-4-1.791-4-4V43h8V71z"/>
		</g>
		<g>
			<path style="fill:#FFEFED;" d="M80,59H56v2.1c0,5.32,4.246,9.9,10,9.9h2c2.267,0,4.295-0.686,6.023-1.98
				c0.549,0.007,1.089,0.015,1.612,0.015c2.881,0,5.326-0.217,6.872-1.741C83.512,66.304,84,64.899,84,63C84,60.065,81.607,59,80,59
				z M76.013,67.032C77.269,65.359,78,63.34,78,61h2c0.334,0,2,0.097,2,2C82,66.386,80.187,66.999,76.013,67.032z"/>
		</g>
		<g>
			<path style="fill:#C23023;" d="M69,55c0,1.104-0.896,2-2,2s-2-0.896-2-2s2-3.778,2-3.778S69,53.896,69,55z"/>
		</g>
		<g>
			<path style="fill:#7D261E;" d="M67,47h-4v1c0,1.104,0.896,2,2,2h2V47z"/>
		</g>
		<g>
			<path style="fill:#E54B44;" d="M65,55c0,1.104,0.896,2,2,2v-5.778C67,51.222,65,53.896,65,55z"/>
		</g>
		<g>
			<path style="fill:#FFFFFF;" d="M67,59H56v2.1c0,5.32,4.246,9.9,10,9.9h1V59z"/>
		</g>
		<g>
			<path style="fill:#FFFFFF;" d="M67,43H55v0.04c0,2.187,1.773,3.96,3.96,3.96H67V43z"/>
		</g>
	</g>
</g>
<g id="R-Red" style="display:none;">
	<circle style="display:inline;fill:#FABBAF;" cx="55" cy="55" r="55"/>
	<g style="display:inline;">
		<g>
			<path style="fill:#4A1410;" d="M47,43h32V33c0-5.522-4.478-10-10-10H29c-3.314,0-6,2.687-6,6v52c0,3.314,2.686,6,6,6h56
				c1.104,0,2-0.896,2-2v-6c0-4.418-3.582-8-8-8H47V43z"/>
		</g>
		<g>
			<path style="fill:#FFEFED;" d="M58.96,47h16.08c2.187,0,3.96-1.773,3.96-3.96V43H55v0.04C55,45.227,56.773,47,58.96,47z"/>
		</g>
		<g>
			<path style="fill:#4A1410;" d="M71,48c0,1.104-0.896,2-2,2h-4c-1.104,0-2-0.896-2-2v-1h8V48z"/>
		</g>
		<g>
			<path style="fill:#B84E44;" d="M48,28c0,0.552-0.447,1-1,1H29c-0.553,0-1-0.448-1-1s0.447-1,1-1h18C47.553,27,48,27.448,48,28z"
				/>
		</g>
		<g>
			<path style="fill:#B84E44;" d="M48,33c0,0.552-0.447,1-1,1H29c-0.553,0-1-0.448-1-1s0.447-1,1-1h18C47.553,32,48,32.448,48,33z"
				/>
		</g>
		<g>
			<path style="fill:#B84E44;" d="M48,38c0,0.552-0.447,1-1,1H29c-0.553,0-1-0.448-1-1s0.447-1,1-1h18C47.553,37,48,37.448,48,38z"
				/>
		</g>
		<g>
			<path style="fill:#B84E44;" d="M36,71h-4c-2.209,0-4-1.791-4-4V43h8V71z"/>
		</g>
		<g>
			<path style="fill:#FFEFED;" d="M80,59H56v2.1c0,5.32,4.246,9.9,10,9.9h2c2.267,0,4.295-0.686,6.023-1.98
				c0.549,0.007,1.089,0.015,1.612,0.015c2.881,0,5.326-0.217,6.872-1.741C83.512,66.304,84,64.899,84,63C84,60.065,81.607,59,80,59
				z M76.013,67.032C77.269,65.359,78,63.34,78,61h2c0.334,0,2,0.097,2,2C82,66.386,80.187,66.999,76.013,67.032z"/>
		</g>
		<g>
			<path style="fill:#C23023;" d="M69,55c0,1.104-0.896,2-2,2s-2-0.896-2-2s2-3.778,2-3.778S69,53.896,69,55z"/>
		</g>
		<g>
			<path style="fill:#7D261E;" d="M67,47h-4v1c0,1.104,0.896,2,2,2h2V47z"/>
		</g>
		<g>
			<path style="fill:#E54B44;" d="M65,55c0,1.104,0.896,2,2,2v-5.778C67,51.222,65,53.896,65,55z"/>
		</g>
		<g>
			<path style="fill:#FFFFFF;" d="M67,59H56v2.1c0,5.32,4.246,9.9,10,9.9h1V59z"/>
		</g>
		<g>
			<path style="fill:#FFFFFF;" d="M67,43H55v0.04c0,2.187,1.773,3.96,3.96,3.96H67V43z"/>
		</g>
	</g>
</g>
<g id="Yellow" style="display:none;">
	<g style="display:inline;">
		<g>
			<path style="fill:#3D320C;" d="M47,43h32V33c0-5.522-4.478-10-10-10H29c-3.313,0-6,2.687-6,6v52c0,3.314,2.687,6,6,6h56
				c1.104,0,2-0.896,2-2v-6c0-4.418-3.582-8-8-8H47V43z"/>
		</g>
		<g>
			<path style="fill:#FFF5D9;" d="M58.96,47h16.08c2.187,0,3.96-1.773,3.96-3.96V43H55v0.04C55,45.227,56.773,47,58.96,47z"/>
		</g>
		<g>
			<path style="fill:#3D320C;" d="M71,48c0,1.104-0.896,2-2,2h-4c-1.104,0-2-0.896-2-2v-1h8V48z"/>
		</g>
		<g>
			<path style="fill:#947615;" d="M48,28c0,0.552-0.447,1-1,1H29c-0.553,0-1-0.448-1-1s0.447-1,1-1h18C47.553,27,48,27.448,48,28z"
				/>
		</g>
		<g>
			<path style="fill:#947615;" d="M48,33c0,0.552-0.447,1-1,1H29c-0.553,0-1-0.448-1-1s0.447-1,1-1h18C47.553,32,48,32.448,48,33z"
				/>
		</g>
		<g>
			<path style="fill:#947615;" d="M48,38c0,0.552-0.447,1-1,1H29c-0.553,0-1-0.448-1-1s0.447-1,1-1h18C47.553,37,48,37.448,48,38z"
				/>
		</g>
		<g>
			<path style="fill:#947615;" d="M36,71h-4c-2.209,0-4-1.791-4-4V43h8V71z"/>
		</g>
		<g>
			<path style="fill:#FFF5D9;" d="M80,59H56v2.1c0,5.32,4.246,9.9,10,9.9h2c2.267,0,4.295-0.686,6.023-1.98
				c0.549,0.007,1.089,0.015,1.612,0.015c2.881,0,5.326-0.217,6.872-1.741C83.512,66.304,84,64.899,84,63C84,60.065,81.607,59,80,59
				z M76.013,67.032C77.269,65.359,78,63.34,78,61h2c0.334,0,2,0.097,2,2C82,66.386,80.187,67,76.013,67.032z"/>
		</g>
		<g>
			<path style="fill:#E07000;" d="M69,55c0,1.104-0.896,2-2,2s-2-0.896-2-2s2-3.778,2-3.778S69,53.896,69,55z"/>
		</g>
		<g>
			<path style="fill:#66510D;" d="M67,47h-4v1c0,1.104,0.896,2,2,2h2V47z"/>
		</g>
		<g>
			<path style="fill:#FA9200;" d="M65,55c0,1.104,0.896,2,2,2v-5.778C67,51.222,65,53.896,65,55z"/>
		</g>
		<g>
			<path style="fill:#FFFFFF;" d="M67,59H56v2.1c0,5.32,4.246,9.9,10,9.9h1V59z"/>
		</g>
		<g>
			<path style="fill:#FFFFFF;" d="M67,43H55v0.04c0,2.187,1.773,3.96,3.96,3.96H67V43z"/>
		</g>
	</g>
</g>
<g id="R-Yellow" style="display:none;">
	<circle style="display:inline;fill:#FFD75E;" cx="55" cy="55" r="55"/>
	<g style="display:inline;">
		<g>
			<path style="fill:#3D320C;" d="M47,43h32V33c0-5.522-4.478-10-10-10H29c-3.313,0-6,2.687-6,6v52c0,3.314,2.687,6,6,6h56
				c1.104,0,2-0.896,2-2v-6c0-4.418-3.582-8-8-8H47V43z"/>
		</g>
		<g>
			<path style="fill:#FFF5D9;" d="M58.96,47h16.08c2.187,0,3.96-1.773,3.96-3.96V43H55v0.04C55,45.227,56.773,47,58.96,47z"/>
		</g>
		<g>
			<path style="fill:#3D320C;" d="M71,48c0,1.104-0.896,2-2,2h-4c-1.105,0-2-0.896-2-2v-1h8V48z"/>
		</g>
		<g>
			<path style="fill:#947615;" d="M48,28c0,0.552-0.447,1-1,1H29c-0.553,0-1-0.448-1-1s0.447-1,1-1h18C47.553,27,48,27.448,48,28z"
				/>
		</g>
		<g>
			<path style="fill:#947615;" d="M48,33c0,0.552-0.447,1-1,1H29c-0.553,0-1-0.448-1-1s0.447-1,1-1h18C47.553,32,48,32.448,48,33z"
				/>
		</g>
		<g>
			<path style="fill:#947615;" d="M48,38c0,0.552-0.447,1-1,1H29c-0.553,0-1-0.448-1-1s0.447-1,1-1h18C47.553,37,48,37.448,48,38z"
				/>
		</g>
		<g>
			<path style="fill:#947615;" d="M36,71h-4c-2.209,0-4-1.791-4-4V43h8V71z"/>
		</g>
		<g>
			<path style="fill:#FFF5D9;" d="M80,59H56v2.1c0,5.32,4.246,9.9,10,9.9h2c2.267,0,4.295-0.686,6.023-1.98
				c0.549,0.007,1.089,0.015,1.612,0.015c2.881,0,5.326-0.217,6.872-1.741C83.512,66.304,84,64.899,84,63C84,60.065,81.607,59,80,59
				z M76.013,67.032C77.269,65.359,78,63.34,78,61h2c0.334,0,2,0.097,2,2C82,66.386,80.187,67,76.013,67.032z"/>
		</g>
		<g>
			<path style="fill:#E07000;" d="M69,55c0,1.104-0.896,2-2,2s-2-0.896-2-2s2-3.778,2-3.778S69,53.896,69,55z"/>
		</g>
		<g>
			<path style="fill:#66510D;" d="M67,47h-4v1c0,1.104,0.896,2,2,2h2V47z"/>
		</g>
		<g>
			<path style="fill:#FA9200;" d="M65,55c0,1.104,0.896,2,2,2v-5.778C67,51.222,65,53.896,65,55z"/>
		</g>
		<g>
			<path style="fill:#FFFFFF;" d="M67,59H56v2.1c0,5.32,4.246,9.9,10,9.9h1V59z"/>
		</g>
		<g>
			<path style="fill:#FFFFFF;" d="M67,43H55v0.04c0,2.187,1.773,3.96,3.96,3.96H67V43z"/>
		</g>
	</g>
</g>
</svg>
