<?xml version="1.0" encoding="iso-8859-1"?>
<!-- Generator: Adobe Illustrator 17.1.0, SVG Export Plug-In . SVG Version: 6.00 Build 0)  -->
<!DOCTYPE svg PUBLIC "-//W3C//DTD SVG 1.0//EN" "http://www.w3.org/TR/2001/REC-SVG-20010904/DTD/svg10.dtd">
<svg version="1.0" xmlns="http://www.w3.org/2000/svg" xmlns:xlink="http://www.w3.org/1999/xlink" x="0px" y="0px" width="110px"
	 height="110px" viewBox="0 0 110 110" style="enable-background:new 0 0 110 110;" xml:space="preserve">
<g id="Artboard">
</g>
<g id="Multicolor">
	<circle style="fill:#E04F5F;" cx="55" cy="55" r="55"/>
	<g>
		<g>
			<path style="fill:#FBEC9A;" d="M74,33.625c6.272,0,11.375,5.103,11.375,11.375S80.272,56.375,74,56.375S62.625,51.272,62.625,45
				S67.728,33.625,74,33.625 M74,32c-7.18,0-13,5.82-13,13c0,7.18,5.82,13,13,13s13-5.82,13-13C87,37.82,81.18,32,74,32L74,32z"/>
			<g>
				<path style="fill:#FACB1B;" d="M74,56.375c-6.272,0-11.375-5.103-11.375-11.375S67.728,33.625,74,33.625
					S85.375,38.728,85.375,45S80.272,56.375,74,56.375z"/>
				<path style="fill:#FBE158;" d="M74,33.625c-6.272,0-11.375,5.103-11.375,11.375c0,3.228,1.354,6.144,3.521,8.216l16.07-16.071
					C80.144,34.979,77.228,33.625,74,33.625z"/>
			</g>
			<path style="fill:#FCF6C2;" d="M62.625,45c0-6.272,5.103-11.375,11.375-11.375c3.22,0,6.129,1.347,8.2,3.504l1.153-1.153
				C80.989,33.526,77.674,32,74,32c-7.18,0-13,5.82-13,13c0,3.674,1.526,6.989,3.976,9.353l1.153-1.153
				C63.972,51.129,62.625,48.22,62.625,45z"/>
		</g>
		<g>
			<path style="fill:#8E6134;" d="M74.289,36.889c0.468,0,0.838,0.371,0.838,0.838v0.429c1.151,0.136,2.126,0.507,3.023,1.073
				c0.312,0.176,0.585,0.468,0.585,0.936c0,0.605-0.488,1.073-1.092,1.073c-0.195,0-0.39-0.059-0.585-0.176
				c-0.683-0.409-1.346-0.702-2.009-0.858v3.744c2.964,0.741,4.232,1.931,4.232,4.017c0,2.145-1.677,3.569-4.154,3.803v0.406
				c0,0.468-0.371,0.838-0.838,0.838s-0.858-0.371-0.858-0.838V51.73c-1.463-0.156-2.808-0.683-3.998-1.521
				c-0.331-0.214-0.527-0.526-0.527-0.936c0-0.605,0.468-1.073,1.073-1.073c0.234,0,0.468,0.078,0.643,0.214
				c0.917,0.663,1.814,1.112,2.886,1.307v-3.842c-2.847-0.741-4.173-1.814-4.173-4.017c0-2.087,1.658-3.53,4.095-3.725v-0.41
				C73.431,37.26,73.821,36.889,74.289,36.889z M73.509,43.539v-3.452c-1.248,0.117-1.872,0.78-1.872,1.638
				C71.636,42.545,72.007,43.052,73.509,43.539z M75.049,46.25v3.549c1.248-0.136,1.931-0.761,1.931-1.697
				C76.98,47.245,76.551,46.718,75.049,46.25z"/>
		</g>
		<circle style="fill:#FBE158;" cx="47" cy="33" r="10"/>
		<g>
			<path style="fill:#FBEC9A;" d="M44,47.625c10.132,0,18.375,8.243,18.375,18.375S54.132,84.375,44,84.375S25.625,76.132,25.625,66
				S33.868,47.625,44,47.625 M44,45c-11.598,0-21,9.402-21,21c0,11.598,9.402,21,21,21s21-9.402,21-21C65,54.402,55.598,45,44,45
				L44,45z"/>
			<g>
				<path style="fill:#FACB1B;" d="M44,84.375c-10.132,0-18.375-8.243-18.375-18.375S33.868,47.625,44,47.625
					S62.375,55.868,62.375,66S54.132,84.375,44,84.375z"/>
				<path style="fill:#FBE158;" d="M44,47.625c-10.132,0-18.375,8.243-18.375,18.375c0,5.214,2.187,9.925,5.687,13.272l25.96-25.96
					C53.925,49.812,49.214,47.625,44,47.625z"/>
			</g>
			<path style="fill:#FCF6C2;" d="M25.625,66c0-10.132,8.243-18.375,18.375-18.375c5.201,0,9.9,2.175,13.246,5.66l1.862-1.862
				C55.289,47.465,49.934,45,44,45c-11.598,0-21,9.402-21,21c0,5.934,2.465,11.289,6.423,15.108l1.862-1.862
				C27.801,75.9,25.625,71.201,25.625,66z"/>
		</g>
		<g>
			<path style="fill:#8E6134;" d="M44.467,52.898c0.756,0,1.354,0.599,1.354,1.354v0.693c1.859,0.22,3.434,0.819,4.883,1.733
				c0.504,0.284,0.945,0.756,0.945,1.512c0,0.977-0.788,1.733-1.764,1.733c-0.315,0-0.63-0.095-0.945-0.284
				c-1.103-0.661-2.174-1.134-3.245-1.386v6.049c4.788,1.197,6.836,3.119,6.836,6.489c0,3.465-2.709,5.765-6.71,6.143v0.656
				c0,0.756-0.599,1.354-1.354,1.354s-1.386-0.599-1.386-1.354v-0.719c-2.363-0.252-4.536-1.103-6.458-2.457
				c-0.535-0.346-0.851-0.85-0.851-1.512c0-0.977,0.756-1.733,1.733-1.733c0.378,0,0.756,0.126,1.039,0.346
				c1.481,1.071,2.93,1.796,4.662,2.111v-6.206c-4.6-1.197-6.741-2.93-6.741-6.49c0-3.371,2.678-5.702,6.615-6.017v-0.662
				C43.08,53.497,43.711,52.898,44.467,52.898z M43.206,63.64v-5.576c-2.016,0.189-3.024,1.26-3.024,2.646
				C40.182,62.034,40.781,62.853,43.206,63.64z M45.695,68.019v5.733c2.016-0.22,3.119-1.229,3.119-2.741
				C48.814,69.626,48.121,68.775,45.695,68.019z"/>
		</g>
		<path style="fill:#FBEC9A;" d="M47,23c-5.523,0-10,4.477-10,10c0,2.739,1.103,5.219,2.887,7.025l14.138-14.138
			C52.219,24.103,49.739,23,47,23z"/>
		<g>
			<path style="fill:#8E6134;" d="M47.095,26.927c0.401,0,0.72,0.318,0.72,0.719v0.194c0.748,0.111,1.412,0.332,2.007,0.664
				c0.263,0.152,0.498,0.416,0.498,0.831c0,0.526-0.415,0.927-0.941,0.927c-0.166,0-0.332-0.042-0.484-0.125
				c-0.388-0.208-0.775-0.374-1.149-0.47v2.104c2.104,0.567,3.003,1.425,3.003,2.976c0,1.55-1.19,2.546-2.934,2.74v0.733
				c0,0.401-0.318,0.72-0.72,0.72s-0.72-0.318-0.72-0.72v-0.747c-0.982-0.125-1.91-0.471-2.726-0.969
				c-0.291-0.18-0.471-0.457-0.471-0.831c0-0.54,0.415-0.941,0.955-0.941c0.18,0,0.374,0.069,0.54,0.18
				c0.581,0.374,1.135,0.637,1.771,0.775v-2.201c-1.993-0.54-2.976-1.301-2.976-2.948c0-1.522,1.163-2.546,2.906-2.726v-0.167
				C46.375,27.245,46.693,26.927,47.095,26.927z M46.444,31.411v-1.869c-0.665,0.097-0.955,0.429-0.955,0.872
				C45.489,30.843,45.683,31.134,46.444,31.411z M47.745,33.833v1.923c0.65-0.097,0.983-0.401,0.983-0.899
				C48.728,34.4,48.493,34.096,47.745,33.833z"/>
		</g>
	</g>
</g>
</svg>
