<?xml version="1.0" encoding="iso-8859-1"?>
<!-- Generator: Adobe Illustrator 17.1.0, SVG Export Plug-In . SVG Version: 6.00 Build 0)  -->
<!DOCTYPE svg PUBLIC "-//W3C//DTD SVG 1.0//EN" "http://www.w3.org/TR/2001/REC-SVG-20010904/DTD/svg10.dtd">
<svg version="1.0" xmlns="http://www.w3.org/2000/svg" xmlns:xlink="http://www.w3.org/1999/xlink" x="0px" y="0px" width="110px"
	 height="110px" viewBox="0 0 110 110" style="enable-background:new 0 0 110 110;" xml:space="preserve">
<g id="Artboard">
</g>
<g id="Multicolor">
	<circle style="fill:#32BEA6;" cx="55" cy="55" r="55"/>
	<g>
		<path style="fill:#FACB1B;" d="M71,37c0,1.105-0.895,2-2,2H25c-1.105,0-2-0.895-2-2v-8c0-1.105,0.895-2,2-2h44
			c1.105,0,2,0.895,2,2V37z"/>
		<path style="fill:#FACB1B;" d="M79,49c0,1.105-0.895,2-2,2H33c-1.105,0-2-0.895-2-2v-8c0-1.105,0.895-2,2-2h44
			c1.105,0,2,0.895,2,2V49z"/>
		<path style="fill:#FACB1B;" d="M75,61c0,1.105-0.895,2-2,2H29c-1.105,0-2-0.895-2-2v-8c0-1.105,0.895-2,2-2h44
			c1.105,0,2,0.895,2,2V61z"/>
		<path style="fill:#FACB1B;" d="M79,73c0,1.105-0.895,2-2,2H33c-1.105,0-2-0.895-2-2v-8c0-1.105,0.895-2,2-2h44
			c1.105,0,2,0.895,2,2V73z"/>
		<path style="fill:#FACB1B;" d="M71,85c0,1.105-0.895,2-2,2H25c-1.105,0-2-0.895-2-2v-8c0-1.105,0.895-2,2-2h44
			c1.105,0,2,0.895,2,2V85z"/>
		<g>
			<g>
				<rect x="33" y="27" style="fill:#FBE158;" width="4" height="12"/>
			</g>
		</g>
		<g>
			<g>
				<rect x="44.917" y="27" style="fill:#FBE158;" width="4" height="12"/>
			</g>
		</g>
		<g>
			<g>
				<rect x="56.833" y="27" style="fill:#FBE158;" width="4" height="12"/>
			</g>
		</g>
		<g>
			<g>
				<rect x="41" y="39" style="fill:#FBE158;" width="4" height="12"/>
			</g>
		</g>
		<g>
			<g>
				<rect x="52.917" y="39" style="fill:#FBE158;" width="4" height="12"/>
			</g>
		</g>
		<g>
			<g>
				<g>
					<rect x="64.833" y="39" style="fill:#FBE158;" width="4" height="12"/>
				</g>
			</g>
		</g>
		<g>
			<g>
				<rect x="37" y="51" style="fill:#FBE158;" width="4" height="12"/>
			</g>
		</g>
		<g>
			<g>
				<rect x="33" y="75" style="fill:#FBE158;" width="4" height="12"/>
			</g>
		</g>
		<g>
			<g>
				<rect x="44.917" y="75" style="fill:#FBE158;" width="4" height="12"/>
			</g>
		</g>
		<path style="fill:#FFFFFF;" d="M83.496,34.599c-2.863,0.403-4.495,2.035-4.897,4.897c-0.017,0.119-0.181,0.119-0.198,0
			c-0.402-2.862-2.035-4.495-4.897-4.897c-0.119-0.017-0.119-0.181,0-0.198c2.863-0.403,4.495-2.035,4.897-4.897
			c0.017-0.119,0.181-0.119,0.198,0c0.402,2.862,2.035,4.495,4.897,4.897C83.615,34.418,83.615,34.582,83.496,34.599z"/>
		<path style="fill:#FFFFFF;" d="M32.911,51.013c-2.863,0.403-4.495,2.035-4.897,4.897c-0.017,0.119-0.181,0.119-0.198,0
			c-0.402-2.862-2.035-4.495-4.897-4.897c-0.119-0.017-0.119-0.181,0-0.198c2.863-0.403,4.495-2.035,4.897-4.897
			c0.017-0.119,0.181-0.119,0.198,0c0.402,2.862,2.035,4.495,4.897,4.897C33.03,50.833,33.03,50.997,32.911,51.013z"/>
		<path style="fill:#FBEC9A;" d="M62,42c11.579,0,21,9.421,21,21s-9.421,21-21,21s-21-9.421-21-21S50.421,42,62,42 M62,39
			c-13.255,0-24,10.745-24,24c0,13.255,10.745,24,24,24s24-10.745,24-24C86,49.745,75.255,39,62,39L62,39z"/>
		<g>
			<path style="fill:#FACB1B;" d="M62,84c-11.579,0-21-9.421-21-21s9.421-21,21-21s21,9.421,21,21S73.579,84,62,84z"/>
			<path style="fill:#FBE158;" d="M62,42c-11.58,0-21,9.421-21,21c0,5.959,2.499,11.343,6.5,15.168L77.168,48.5
				C73.343,44.499,67.959,42,62,42z"/>
		</g>
		<g>
			<path style="fill:#8E6134;" d="M62.533,48.026c0.864,0,1.548,0.684,1.548,1.548v0.792c2.124,0.252,3.924,0.936,5.58,1.98
				c0.576,0.324,1.08,0.864,1.08,1.728c0,1.116-0.9,1.98-2.016,1.98c-0.36,0-0.72-0.108-1.08-0.324
				c-1.26-0.756-2.484-1.296-3.708-1.584v6.913c5.472,1.368,7.813,3.564,7.813,7.417c0,3.96-3.096,6.589-7.669,7.021v0.75
				c0,0.864-0.684,1.548-1.548,1.548s-1.584-0.684-1.584-1.548v-0.822c-2.7-0.288-5.184-1.26-7.381-2.808
				c-0.612-0.396-0.972-0.972-0.972-1.728c0-1.116,0.864-1.98,1.98-1.98c0.432,0,0.864,0.144,1.188,0.396
				c1.692,1.224,3.348,2.052,5.328,2.412v-7.092c-5.257-1.368-7.704-3.348-7.704-7.417c0-3.852,3.06-6.516,7.56-6.876v-0.756
				C60.949,48.71,61.669,48.026,62.533,48.026z M61.093,60.303v-6.372c-2.304,0.216-3.456,1.44-3.456,3.024
				C57.637,58.467,58.321,59.403,61.093,60.303z M63.937,65.308v6.552c2.304-0.252,3.564-1.404,3.564-3.132
				C67.502,67.144,66.709,66.172,63.937,65.308z"/>
		</g>
		<path style="fill:#FCF6C2;" d="M41,63c0-11.579,9.421-21,21-21c5.944,0,11.315,2.486,15.139,6.469l2.128-2.128
			C74.902,41.817,68.782,39,62,39c-13.255,0-24,10.745-24,24c0,6.782,2.817,12.902,7.34,17.267l2.128-2.128
			C43.486,74.315,41,68.944,41,63z"/>
	</g>
</g>
</svg>
