<?xml version="1.0" encoding="iso-8859-1"?>
<!-- Generator: Adobe Illustrator 17.1.0, SVG Export Plug-In . SVG Version: 6.00 Build 0)  -->
<!DOCTYPE svg PUBLIC "-//W3C//DTD SVG 1.0//EN" "http://www.w3.org/TR/2001/REC-SVG-20010904/DTD/svg10.dtd">
<svg version="1.0" xmlns="http://www.w3.org/2000/svg" xmlns:xlink="http://www.w3.org/1999/xlink" x="0px" y="0px" width="110px"
	 height="110px" viewBox="0 0 110 110" style="enable-background:new 0 0 110 110;" xml:space="preserve">
<g id="Artboard" style="display:none;">
	
		<rect x="-456.5" y="-34.5" style="display:inline;fill:#808080;stroke:#000000;stroke-miterlimit:10;" width="1392" height="1369"/>
</g>
<g id="R-Multicolor">
	<circle style="fill:#FABC3D;" cx="55" cy="55" r="55"/>
	<g>
		<g>
			<path style="fill:#DF2C2C;" d="M70.254,26H39.746C39.019,32.261,35,32.464,35,36.264v44.321C35,81.919,36.081,83,37.415,83H55
				h17.585C73.919,83,75,81.919,75,80.585V36.264C75,32.449,70.985,32.293,70.254,26z"/>
		</g>
		<g>
			<path style="fill:#FA5655;" d="M39.746,26C39.019,32.261,35,32.464,35,36.264v44.321C35,81.919,36.081,83,37.415,83H55V26H39.746
				z"/>
		</g>
		<g>
			<path style="fill:#CFD3D4;" d="M72,24.5c0,0.828-0.672,1.5-1.5,1.5h-31c-0.828,0-1.5-0.672-1.5-1.5s0.672-1.5,1.5-1.5h31
				C71.328,23,72,23.672,72,24.5z"/>
		</g>
		<g>
			<path style="fill:#FFFFFF;" d="M45,83c0,0,10.102-10.506,10.102-23.62c0-14.306-12.627-17.882-7.576-33.38H61
				c0,0-6,3.576-6,11.921c0,13.168,8,15.498,8,33.38C63,79.731,60.475,83,60.475,83H45z"/>
		</g>
		<g>
			<path style="fill:#E2E4E5;" d="M55,23H39.5c-0.829,0-1.5,0.671-1.5,1.5s0.671,1.5,1.5,1.5H55V23z"/>
		</g>
		<g>
			<path style="fill:#CFD3D4;" d="M55,83.024c0,0-18-0.054-18,0C37,84.128,37.896,87,39,87h32c1.104,0,2-2.872,2-3.976
				C73,82.97,55,83.024,55,83.024z"/>
		</g>
		<g>
			<path style="fill:#E2E4E5;" d="M37,83.024C37,84.128,37.896,87,39,87h16v-3.976C55,83.024,37,82.97,37,83.024z"/>
		</g>
	</g>
</g>
<g id="Multicolor" style="display:none;">
	<g style="display:inline;">
		<g>
			<path style="fill:#DF2C2C;" d="M70.254,26H39.746C39.019,32.261,35,32.464,35,36.264v44.321C35,81.919,36.081,83,37.415,83H55
				h17.585C73.919,83,75,81.919,75,80.585V36.264C75,32.449,70.985,32.293,70.254,26z"/>
		</g>
		<g>
			<path style="fill:#FA5655;" d="M39.746,26C39.019,32.261,35,32.464,35,36.264v44.321C35,81.919,36.081,83,37.415,83H55V26H39.746
				z"/>
		</g>
		<g>
			<path style="fill:#CFD3D4;" d="M72,24.5c0,0.828-0.672,1.5-1.5,1.5h-31c-0.828,0-1.5-0.672-1.5-1.5s0.672-1.5,1.5-1.5h31
				C71.328,23,72,23.672,72,24.5z"/>
		</g>
		<g>
			<path style="fill:#FFFFFF;" d="M45,83c0,0,10.102-10.506,10.102-23.62c0-14.306-12.627-17.882-7.576-33.38H61
				c0,0-6,3.576-6,11.921c0,13.168,8,15.498,8,33.38C63,79.731,60.475,83,60.475,83H45z"/>
		</g>
		<g>
			<path style="fill:#E2E4E5;" d="M55,23H39.5c-0.829,0-1.5,0.671-1.5,1.5s0.671,1.5,1.5,1.5H55V23z"/>
		</g>
		<g>
			<path style="fill:#CFD3D4;" d="M55,83.024c0,0-18-0.054-18,0C37,84.128,37.896,87,39,87h32c1.104,0,2-2.872,2-3.976
				C73,82.97,55,83.024,55,83.024z"/>
		</g>
		<g>
			<path style="fill:#E2E4E5;" d="M37,83.024C37,84.128,37.896,87,39,87h16v-3.976C55,83.024,37,82.97,37,83.024z"/>
		</g>
	</g>
</g>
<g id="Blue" style="display:none;">
	<g style="display:inline;">
		<g>
			<path style="fill:#0081A1;" d="M70.254,26H39.746C39.019,32.261,35,32.464,35,36.264v44.321C35,81.919,36.082,83,37.415,83H55
				h17.585C73.919,83,75,81.919,75,80.585V36.264C75,32.45,70.984,32.293,70.254,26z"/>
		</g>
		<g>
			<path style="fill:#009FC7;" d="M39.746,26C39.019,32.261,35,32.464,35,36.264v44.321C35,81.919,36.082,83,37.415,83H55V26H39.746
				z"/>
		</g>
		<g>
			<path style="fill:#BBE7F2;" d="M72,24.5c0,0.829-0.672,1.5-1.5,1.5h-31c-0.828,0-1.5-0.671-1.5-1.5c0-0.828,0.672-1.5,1.5-1.5h31
				C71.328,23,72,23.672,72,24.5z"/>
		</g>
		<g>
			<path style="fill:#FFFFFF;" d="M45,83c0,0,10.102-10.506,10.102-23.62c0-14.306-12.627-17.882-7.576-33.38H61
				c0,0-6,3.577-6,11.921c0,13.168,8,15.498,8,33.38C63,79.731,60.475,83,60.475,83H45z"/>
		</g>
		<g>
			<path style="fill:#E1F5FA;" d="M55,23H39.5c-0.828,0-1.5,0.671-1.5,1.5s0.672,1.5,1.5,1.5H55V23z"/>
		</g>
		<g>
			<path style="fill:#BBE7F2;" d="M55,83.024c0,0-18-0.054-18,0C37,84.128,37.896,87,39,87h32c1.104,0,2-2.872,2-3.976
				C73,82.97,55,83.024,55,83.024z"/>
		</g>
		<g>
			<path style="fill:#E1F5FA;" d="M37,83.024C37,84.128,37.896,87,39,87h16v-3.976C55,83.024,37,82.97,37,83.024z"/>
		</g>
	</g>
</g>
<g id="R-Blue" style="display:none;">
	<circle style="display:inline;fill:#81D2EB;" cx="55" cy="55" r="55"/>
	<g style="display:inline;">
		<g>
			<path style="fill:#0081A1;" d="M70.254,26H39.746C39.019,32.261,35,32.464,35,36.264v44.321C35,81.919,36.082,83,37.415,83H55
				h17.585C73.919,83,75,81.919,75,80.585V36.264C75,32.45,70.984,32.293,70.254,26z"/>
		</g>
		<g>
			<path style="fill:#009FC7;" d="M39.746,26C39.019,32.261,35,32.464,35,36.264v44.321C35,81.919,36.082,83,37.415,83H55V26H39.746
				z"/>
		</g>
		<g>
			<path style="fill:#BBE7F2;" d="M72,24.5c0,0.829-0.672,1.5-1.5,1.5h-31c-0.828,0-1.5-0.671-1.5-1.5c0-0.828,0.672-1.5,1.5-1.5h31
				C71.328,23,72,23.672,72,24.5z"/>
		</g>
		<g>
			<path style="fill:#FFFFFF;" d="M45,83c0,0,10.102-10.506,10.102-23.62c0-14.306-12.627-17.882-7.576-33.38H61
				c0,0-6,3.577-6,11.921c0,13.168,8,15.498,8,33.38C63,79.731,60.475,83,60.475,83H45z"/>
		</g>
		<g>
			<path style="fill:#E1F5FA;" d="M55,23H39.5c-0.828,0-1.5,0.671-1.5,1.5s0.672,1.5,1.5,1.5H55V23z"/>
		</g>
		<g>
			<path style="fill:#BBE7F2;" d="M55,83.024c0,0-18-0.054-18,0C37,84.128,37.896,87,39,87h32c1.104,0,2-2.872,2-3.976
				C73,82.97,55,83.024,55,83.024z"/>
		</g>
		<g>
			<path style="fill:#E1F5FA;" d="M37,83.024C37,84.128,37.896,87,39,87h16v-3.976C55,83.024,37,82.97,37,83.024z"/>
		</g>
	</g>
</g>
<g id="Green" style="display:none;">
	<g style="display:inline;">
		<g>
			<path style="fill:#009687;" d="M70.254,26H39.746C39.019,32.261,35,32.464,35,36.264v44.321C35,81.919,36.082,83,37.415,83H55
				h17.585C73.919,83,75,81.919,75,80.585V36.264C75,32.45,70.984,32.293,70.254,26z"/>
		</g>
		<g>
			<path style="fill:#00B8A5;" d="M39.746,26C39.019,32.261,35,32.464,35,36.264v44.321C35,81.919,36.082,83,37.415,83H55V26H39.746
				z"/>
		</g>
		<g>
			<path style="fill:#AAF0E9;" d="M72,24.5c0,0.829-0.672,1.5-1.5,1.5h-31c-0.828,0-1.5-0.671-1.5-1.5c0-0.828,0.672-1.5,1.5-1.5h31
				C71.328,23,72,23.672,72,24.5z"/>
		</g>
		<g>
			<path style="fill:#FFFFFF;" d="M45,83c0,0,10.102-10.506,10.102-23.62c0-14.306-12.627-17.882-7.576-33.38H61
				c0,0-6,3.577-6,11.921c0,13.168,8,15.498,8,33.38C63,79.731,60.475,83,60.475,83H45z"/>
		</g>
		<g>
			<path style="fill:#D7FCF9;" d="M55,23H39.5c-0.828,0-1.5,0.671-1.5,1.5s0.672,1.5,1.5,1.5H55V23z"/>
		</g>
		<g>
			<path style="fill:#AAF0E9;" d="M55,83.024c0,0-18-0.054-18,0C37,84.128,37.895,87,39,87h32c1.104,0,2-2.872,2-3.976
				C73,82.97,55,83.024,55,83.024z"/>
		</g>
		<g>
			<path style="fill:#D7FCF9;" d="M37,83.024C37,84.128,37.895,87,39,87h16v-3.976C55,83.024,37,82.97,37,83.024z"/>
		</g>
	</g>
</g>
<g id="R-Green" style="display:none;">
	<circle style="display:inline;fill:#77E0C4;" cx="55" cy="55" r="55"/>
	<g style="display:inline;">
		<g>
			<path style="fill:#009687;" d="M70.254,26H39.746C39.019,32.261,35,32.464,35,36.264v44.321C35,81.919,36.082,83,37.415,83H55
				h17.585C73.919,83,75,81.919,75,80.585V36.264C75,32.45,70.984,32.293,70.254,26z"/>
		</g>
		<g>
			<path style="fill:#00B8A5;" d="M39.746,26C39.019,32.261,35,32.464,35,36.264v44.321C35,81.919,36.082,83,37.415,83H55V26H39.746
				z"/>
		</g>
		<g>
			<path style="fill:#AAF0E9;" d="M72,24.5c0,0.829-0.672,1.5-1.5,1.5h-31c-0.828,0-1.5-0.671-1.5-1.5c0-0.828,0.672-1.5,1.5-1.5h31
				C71.328,23,72,23.672,72,24.5z"/>
		</g>
		<g>
			<path style="fill:#FFFFFF;" d="M45,83c0,0,10.102-10.506,10.102-23.62c0-14.306-12.627-17.882-7.576-33.38H61
				c0,0-6,3.577-6,11.921c0,13.168,8,15.498,8,33.38C63,79.731,60.475,83,60.475,83H45z"/>
		</g>
		<g>
			<path style="fill:#D7FCF9;" d="M55,23H39.5c-0.828,0-1.5,0.671-1.5,1.5s0.672,1.5,1.5,1.5H55V23z"/>
		</g>
		<g>
			<path style="fill:#AAF0E9;" d="M55,83.024c0,0-18-0.054-18,0C37,84.128,37.896,87,39,87h32c1.104,0,2-2.872,2-3.976
				C73,82.97,55,83.024,55,83.024z"/>
		</g>
		<g>
			<path style="fill:#D7FCF9;" d="M37,83.024C37,84.128,37.896,87,39,87h16v-3.976C55,83.024,37,82.97,37,83.024z"/>
		</g>
	</g>
</g>
<g id="Red" style="display:none;">
	<g style="display:inline;">
		<g>
			<path style="fill:#C23023;" d="M70.254,26H39.746C39.019,32.261,35,32.464,35,36.264v44.321C35,81.919,36.082,83,37.415,83H55
				h17.585C73.919,83,75,81.919,75,80.585V36.264C75,32.45,70.984,32.294,70.254,26z"/>
		</g>
		<g>
			<path style="fill:#E54B44;" d="M39.746,26C39.019,32.261,35,32.464,35,36.264v44.321C35,81.919,36.082,83,37.415,83H55V26H39.746
				z"/>
		</g>
		<g>
			<path style="fill:#FFD7D4;" d="M72,24.5c0,0.829-0.672,1.5-1.5,1.5h-31c-0.828,0-1.5-0.671-1.5-1.5c0-0.828,0.672-1.5,1.5-1.5h31
				C71.328,23,72,23.672,72,24.5z"/>
		</g>
		<g>
			<path style="fill:#FFFFFF;" d="M45,83c0,0,10.102-10.506,10.102-23.62c0-14.306-12.627-17.882-7.576-33.38H61
				c0,0-6,3.577-6,11.921c0,13.168,8,15.498,8,33.38C63,79.731,60.475,83,60.475,83H45z"/>
		</g>
		<g>
			<path style="fill:#FFEFED;" d="M55,23H39.5c-0.828,0-1.5,0.671-1.5,1.5c0,0.829,0.672,1.5,1.5,1.5H55V23z"/>
		</g>
		<g>
			<path style="fill:#FFD7D4;" d="M55,83.024c0,0-18-0.054-18,0C37,84.128,37.895,87,39,87h32c1.104,0,2-2.872,2-3.976
				C73,82.97,55,83.024,55,83.024z"/>
		</g>
		<g>
			<path style="fill:#FFEFED;" d="M37,83.024C37,84.128,37.895,87,39,87h16v-3.976C55,83.024,37,82.97,37,83.024z"/>
		</g>
	</g>
</g>
<g id="R-Red" style="display:none;">
	<circle style="display:inline;fill:#FABBAF;" cx="55" cy="55" r="55"/>
	<g style="display:inline;">
		<g>
			<path style="fill:#C23023;" d="M70.254,26H39.746C39.019,32.261,35,32.464,35,36.264v44.321C35,81.919,36.082,83,37.415,83H55
				h17.585C73.919,83,75,81.919,75,80.585V36.264C75,32.45,70.984,32.294,70.254,26z"/>
		</g>
		<g>
			<path style="fill:#E54B44;" d="M39.746,26C39.019,32.261,35,32.464,35,36.264v44.321C35,81.919,36.082,83,37.415,83H55V26H39.746
				z"/>
		</g>
		<g>
			<path style="fill:#FFD7D4;" d="M72,24.5c0,0.829-0.672,1.5-1.5,1.5h-31c-0.828,0-1.5-0.671-1.5-1.5c0-0.828,0.672-1.5,1.5-1.5h31
				C71.328,23,72,23.672,72,24.5z"/>
		</g>
		<g>
			<path style="fill:#FFFFFF;" d="M45,83c0,0,10.102-10.506,10.102-23.62c0-14.306-12.627-17.882-7.576-33.38H61
				c0,0-6,3.577-6,11.921c0,13.168,8,15.498,8,33.38C63,79.731,60.475,83,60.475,83H45z"/>
		</g>
		<g>
			<path style="fill:#FFEFED;" d="M55,23H39.5c-0.828,0-1.5,0.671-1.5,1.5c0,0.829,0.672,1.5,1.5,1.5H55V23z"/>
		</g>
		<g>
			<path style="fill:#FFD7D4;" d="M55,83.024c0,0-18-0.054-18,0C37,84.128,37.895,87,39,87h32c1.104,0,2-2.872,2-3.976
				C73,82.97,55,83.024,55,83.024z"/>
		</g>
		<g>
			<path style="fill:#FFEFED;" d="M37,83.024C37,84.128,37.895,87,39,87h16v-3.976C55,83.024,37,82.97,37,83.024z"/>
		</g>
	</g>
</g>
<g id="Yellow" style="display:none;">
	<g style="display:inline;">
		<g>
			<path style="fill:#E07000;" d="M70.254,26H39.746C39.019,32.261,35,32.464,35,36.264v44.321C35,81.919,36.082,83,37.415,83H55
				h17.585C73.919,83,75,81.919,75,80.585V36.264C75,32.45,70.984,32.293,70.254,26z"/>
		</g>
		<g>
			<path style="fill:#FA9200;" d="M39.746,26C39.019,32.261,35,32.464,35,36.264v44.321C35,81.919,36.082,83,37.415,83H55V26H39.746
				z"/>
		</g>
		<g>
			<path style="fill:#FFE9A1;" d="M72,24.5c0,0.829-0.672,1.5-1.5,1.5h-31c-0.828,0-1.5-0.671-1.5-1.5c0-0.828,0.672-1.5,1.5-1.5h31
				C71.328,23,72,23.672,72,24.5z"/>
		</g>
		<g>
			<path style="fill:#FFFFFF;" d="M45,83c0,0,10.102-10.506,10.102-23.62c0-14.306-12.627-17.882-7.576-33.38H61
				c0,0-6,3.577-6,11.921c0,13.168,8,15.498,8,33.38C63,79.731,60.475,83,60.475,83H45z"/>
		</g>
		<g>
			<path style="fill:#FFF5D9;" d="M55,23H39.5c-0.828,0-1.5,0.671-1.5,1.5s0.672,1.5,1.5,1.5H55V23z"/>
		</g>
		<g>
			<path style="fill:#FFE9A1;" d="M55,83.024c0,0-18-0.054-18,0C37,84.128,37.896,87,39,87h32c1.104,0,2-2.872,2-3.976
				C73,82.97,55,83.024,55,83.024z"/>
		</g>
		<g>
			<path style="fill:#FFF5D9;" d="M37,83.024C37,84.128,37.896,87,39,87h16v-3.976C55,83.024,37,82.97,37,83.024z"/>
		</g>
	</g>
</g>
<g id="R-Yellow" style="display:none;">
	<circle style="display:inline;fill:#FFD75E;" cx="55" cy="55" r="55"/>
	<g style="display:inline;">
		<g>
			<path style="fill:#E07000;" d="M70.254,26H39.746C39.019,32.261,35,32.464,35,36.264v44.321C35,81.919,36.082,83,37.415,83H55
				h17.585C73.919,83,75,81.919,75,80.585V36.264C75,32.45,70.984,32.293,70.254,26z"/>
		</g>
		<g>
			<path style="fill:#FA9200;" d="M39.746,26C39.019,32.261,35,32.464,35,36.264v44.321C35,81.919,36.082,83,37.415,83H55V26H39.746
				z"/>
		</g>
		<g>
			<path style="fill:#FFE9A1;" d="M72,24.5c0,0.829-0.672,1.5-1.5,1.5h-31c-0.828,0-1.5-0.671-1.5-1.5c0-0.828,0.672-1.5,1.5-1.5h31
				C71.328,23,72,23.672,72,24.5z"/>
		</g>
		<g>
			<path style="fill:#FFFFFF;" d="M45,83c0,0,10.102-10.506,10.102-23.62c0-14.306-12.627-17.882-7.576-33.38H61
				c0,0-6,3.577-6,11.921c0,13.168,8,15.498,8,33.38C63,79.731,60.475,83,60.475,83H45z"/>
		</g>
		<g>
			<path style="fill:#FFF5D9;" d="M55,23H39.5c-0.828,0-1.5,0.671-1.5,1.5s0.672,1.5,1.5,1.5H55V23z"/>
		</g>
		<g>
			<path style="fill:#FFE9A1;" d="M55,83.024c0,0-18-0.054-18,0C37,84.128,37.895,87,39,87h32c1.104,0,2-2.872,2-3.976
				C73,82.97,55,83.024,55,83.024z"/>
		</g>
		<g>
			<path style="fill:#FFF5D9;" d="M37,83.024C37,84.128,37.895,87,39,87h16v-3.976C55,83.024,37,82.97,37,83.024z"/>
		</g>
	</g>
</g>
</svg>
