<?xml version="1.0" encoding="iso-8859-1"?>
<!-- Generator: Adobe Illustrator 17.1.0, SVG Export Plug-In . SVG Version: 6.00 Build 0)  -->
<!DOCTYPE svg PUBLIC "-//W3C//DTD SVG 1.0//EN" "http://www.w3.org/TR/2001/REC-SVG-20010904/DTD/svg10.dtd">
<svg version="1.0" xmlns="http://www.w3.org/2000/svg" xmlns:xlink="http://www.w3.org/1999/xlink" x="0px" y="0px" width="110px"
	 height="110px" viewBox="0 0 110 110" style="enable-background:new 0 0 110 110;" xml:space="preserve">
<g id="Artboard">
</g>
<g id="Multicolor">
	<circle style="fill:#25B7D3;" cx="55" cy="55" r="55"/>
	<g>
		<path style="fill:#CFD3D4;" d="M76.862,67.776c1.075-0.623,1.8-1.71,1.962-2.942c0.161-1.232-0.259-2.469-1.138-3.348
			L48.28,32.079c-0.879-0.879-2.116-1.299-3.348-1.138s-2.319,0.886-2.942,1.962l-18.416,31.81c-1.362,2.352-0.972,5.327,0.95,7.249
			l13.28,13.28c1.922,1.922,4.896,2.312,7.249,0.95L76.862,67.776z"/>
		<path style="fill:#F0F1F1;" d="M48.28,32.08c-0.879-0.879-2.116-1.299-3.348-1.138c-1.232,0.161-2.319,0.886-2.942,1.962
			l-18.416,31.81c-1.362,2.353-0.972,5.327,0.95,7.249l6.757,6.757L63.1,46.9L48.28,32.08z"/>
		<path style="fill:#3E3E3F;" d="M51.712,45.518c0.973,0.523,1.338,1.735,0.815,2.708l-1.893,3.524
			c-0.523,0.973-1.735,1.338-2.708,0.815L23.82,39.804c-0.973-0.523-1.338-1.735-0.815-2.708l1.893-3.524
			c0.523-0.973,1.735-1.338,2.708-0.815L51.712,45.518z"/>
		<circle style="fill:#FFFFFF;" cx="46.766" cy="47.518" r="2"/>
		<path style="fill:#FACB1B;" d="M63,46.766c0,0,24,7,24,28c0,2.225,0,1.275,0,2c0,2.187-2,6-6,6s-6-4-6-6c0-0.935,0-4.159,0-6
			C75,61.766,63,46.766,63,46.766z"/>
	</g>
</g>
</svg>
