<?xml version="1.0" encoding="iso-8859-1"?>
<!-- Generator: Adobe Illustrator 17.1.0, SVG Export Plug-In . SVG Version: 6.00 Build 0)  -->
<!DOCTYPE svg PUBLIC "-//W3C//DTD SVG 1.0//EN" "http://www.w3.org/TR/2001/REC-SVG-20010904/DTD/svg10.dtd">
<svg version="1.0" xmlns="http://www.w3.org/2000/svg" xmlns:xlink="http://www.w3.org/1999/xlink" x="0px" y="0px" width="110px"
	 height="110px" viewBox="0 0 110 110" style="enable-background:new 0 0 110 110;" xml:space="preserve">
<g id="Artboard">
</g>
<g id="Multicolor">
	<circle style="fill:#FABC3D;" cx="55" cy="55" r="55"/>
	<g>
		<ellipse style="fill:#17B198;" cx="55.492" cy="43" rx="19.692" ry="20"/>
		<ellipse style="fill:#059BBF;" cx="42.692" cy="67" rx="19.692" ry="20"/>
		<ellipse style="fill:#DF2C2C;" cx="67.308" cy="67" rx="19.692" ry="20"/>
		<path style="fill:#6FDAF1;" d="M55,51.4c-3.18,2.57-5.543,6.14-6.666,10.23c-5.839-2.3-10.309-7.36-11.904-13.59
			c1.969-0.68,4.076-1.04,6.262-1.04C47.35,47,51.633,48.64,55,51.4z"/>
		<path style="fill:#FFFFFF;" d="M61.754,61.96C59.785,62.64,57.678,63,55.492,63c-2.521,0-4.943-0.48-7.158-1.37
			C49.457,57.54,51.82,53.97,55,51.4C58.269,54.04,60.671,57.73,61.754,61.96z"/>
		<path style="fill:#F37A10;" d="M62.385,67c0,6.32-2.875,11.95-7.385,15.6c-4.51-3.65-7.385-9.28-7.385-15.6
			c0-1.86,0.246-3.66,0.719-5.37C50.55,62.52,52.972,63,55.492,63c2.186,0,4.293-0.36,6.262-1.04
			C62.168,63.57,62.385,65.26,62.385,67z"/>
		<path style="fill:#FBE158;" d="M74.466,48.37c-1.753,6.4-6.548,11.5-12.711,13.59C60.671,57.73,58.269,54.04,55,51.4
			c3.367-2.76,7.65-4.4,12.308-4.4C69.828,47,72.25,47.48,74.466,48.37z"/>
	</g>
</g>
</svg>
