<?xml version="1.0" encoding="iso-8859-1"?>
<!-- Generator: Adobe Illustrator 17.1.0, SVG Export Plug-In . SVG Version: 6.00 Build 0)  -->
<!DOCTYPE svg PUBLIC "-//W3C//DTD SVG 1.0//EN" "http://www.w3.org/TR/2001/REC-SVG-20010904/DTD/svg10.dtd">
<svg version="1.0" xmlns="http://www.w3.org/2000/svg" xmlns:xlink="http://www.w3.org/1999/xlink" x="0px" y="0px" width="110px"
	 height="110px" viewBox="0 0 110 110" style="enable-background:new 0 0 110 110;" xml:space="preserve">
<g id="Artboard">
</g>
<g id="Multicolor">
	<circle style="fill:#FABC3D;" cx="55" cy="55" r="55"/>
	<g>
		<g>
			<path style="fill:#FA5655;" d="M41.669,33.04c-0.083-0.056-0.172-0.1-0.259-0.148L28.415,45.887
				c-0.781,0.781-0.781,2.047,0,2.829c0.781,0.781,2.047,0.781,2.828,0l13.491-13.491C43.727,34.475,42.707,33.74,41.669,33.04z"/>
		</g>
		<g>
			<path style="fill:#FA5655;" d="M47.908,37.708L34.072,51.544c-0.781,0.781-0.781,2.047,0,2.828c0.781,0.781,2.047,0.781,2.829,0
				l14.051-14.05C49.963,39.433,48.949,38.561,47.908,37.708z"/>
		</g>
		<g>
			<path style="fill:#FA5655;" d="M53.865,43.064L39.729,57.201c-0.781,0.781-0.781,2.047,0,2.828c0.781,0.781,2.047,0.781,2.828,0
				l14.088-14.088C55.346,44.524,54.655,43.841,53.865,43.064z"/>
		</g>
		<g>
			<path style="fill:#FA5655;" d="M59.277,48.966L45.386,62.857c-0.781,0.781-0.781,2.047,0,2.829c0.781,0.781,2.047,0.781,2.828,0
				l13.533-13.534C60.963,51.074,60.137,50.011,59.277,48.966z"/>
		</g>
		<path style="fill:#DF2C2C;" d="M85.929,80c-1-6-21.834-45.222-41.96-55.33c-8.045-1.361-20.78,11.331-20.563,18.18
			c0.013,0.4,0.262,0.753,0.635,0.899s0.796,0.056,1.077-0.229c3.312-3.357,6.923-7.026,12.582-10.53
			c1.132-0.73,2.567-0.75,3.73-0.088l-5.942,5.911l2.828,2.829l6.436-6.406c1.077,0.802,2.132,1.63,3.166,2.478l-6.773,6.755
			l2.828,2.829l6.987-6.969c0.992,0.892,1.952,1.797,2.883,2.713l-7.042,7.084l2.828,2.829l6.995-7.037
			c0.91,0.992,1.792,2.004,2.641,3.034l-6.808,6.831l2.829,2.828l6.45-6.474c0.809,1.112,1.578,2.24,2.292,3.381L50.359,69.2
			c-0.613,0.613-0.613,1.607,0,2.22c1.41,1.41,3.7,1.41,5.11,0l4.88-4.88c0.71-0.7,1.67-1.08,2.66-1.06
			c0.99,0.03,1.93,0.47,2.59,1.21l7.83,8.99c-0.95,1.19-1.5,2.68-1.5,4.32c0,3.87,3.13,7,7,7C82.799,87,86.565,83.817,85.929,80z
			 M81.157,81.903c-1.172,1.171-3.071,1.171-4.243,0c-1.172-1.172-1.172-3.071,0-4.243c1.171-1.172,3.071-1.172,4.243,0
			C82.329,78.832,82.329,80.731,81.157,81.903z"/>
	</g>
</g>
</svg>
