<?xml version="1.0" encoding="iso-8859-1"?>
<!-- Generator: Adobe Illustrator 17.1.0, SVG Export Plug-In . SVG Version: 6.00 Build 0)  -->
<!DOCTYPE svg PUBLIC "-//W3C//DTD SVG 1.0//EN" "http://www.w3.org/TR/2001/REC-SVG-20010904/DTD/svg10.dtd">
<svg version="1.0" xmlns="http://www.w3.org/2000/svg" xmlns:xlink="http://www.w3.org/1999/xlink" x="0px" y="0px" width="110px"
	 height="110px" viewBox="0 0 110 110" style="enable-background:new 0 0 110 110;" xml:space="preserve">
<g id="Artboard">
</g>
<g id="Multicolor">
	<circle style="fill:#32BEA6;" cx="55" cy="55" r="55"/>
	<g>
		<g>
			<path style="fill:#FCF6C2;" d="M43,42c0,0,30,0,44,32c-12-2-12-2-12-2l-1,14c-6.723-16.508-16.937-30.269-31-41
				C43,45,43.33,42.229,43,42z"/>
		</g>
		<g>
			<path style="fill:#FBE158;" d="M38.093,26.379c0.153-0.471,0.592-0.79,1.087-0.79s0.934,0.319,1.087,0.79l3.036,9.345
				c0.153,0.471,0.592,0.79,1.087,0.79h9.826c0.495,0,0.934,0.319,1.087,0.79c0.153,0.471-0.015,0.987-0.415,1.278l-7.95,5.776
				c-0.401,0.291-0.568,0.807-0.415,1.278l3.036,9.345c0.153,0.471-0.015,0.987-0.415,1.278c-0.401,0.291-0.943,0.291-1.344,0
				l-7.95-5.776c-0.401-0.291-0.943-0.291-1.344,0l-7.95,5.776c-0.401,0.291-0.943,0.291-1.344,0
				c-0.401-0.291-0.568-0.807-0.415-1.278l3.036-9.345c0.153-0.471-0.015-0.987-0.415-1.278l-7.95-5.776
				c-0.401-0.291-0.568-0.807-0.415-1.278s0.592-0.79,1.087-0.79h9.826c0.495,0,0.934-0.319,1.087-0.79L38.093,26.379z"/>
		</g>
		<g>
			<path style="fill:#FBEC9A;" d="M30.645,49.301l13.039-13.039c-0.172-0.136-0.31-0.318-0.381-0.537l-3.036-9.345
				c-0.153-0.471-0.592-0.79-1.087-0.79c-0.495,0-0.934,0.318-1.087,0.79l-3.036,9.345c-0.153,0.471-0.592,0.79-1.087,0.79h-9.826
				c-0.495,0-0.934,0.319-1.087,0.79c-0.153,0.471,0.014,0.987,0.415,1.278l7.95,5.776c0.401,0.291,0.568,0.807,0.415,1.278
				L30.645,49.301z"/>
		</g>
	</g>
</g>
</svg>
