<?xml version="1.0" encoding="iso-8859-1"?>
<!-- Generator: Adobe Illustrator 17.1.0, SVG Export Plug-In . SVG Version: 6.00 Build 0)  -->
<!DOCTYPE svg PUBLIC "-//W3C//DTD SVG 1.0//EN" "http://www.w3.org/TR/2001/REC-SVG-20010904/DTD/svg10.dtd">
<svg version="1.0" xmlns="http://www.w3.org/2000/svg" xmlns:xlink="http://www.w3.org/1999/xlink" x="0px" y="0px" width="110px"
	 height="110px" viewBox="0 0 110 110" style="enable-background:new 0 0 110 110;" xml:space="preserve">
<g id="Artboard" style="display:none;">
	<rect x="-351" y="-455" style="display:inline;fill:#8C8C8C;" width="1412" height="743"/>
</g>
<g id="R-Multicolor">
	<circle style="fill:#32BEA6;" cx="55" cy="55" r="55"/>
	<g>
		<path style="fill:#F0F1F1;" d="M72.605,48C78.346,48,83,43.346,83,37.605C83,31.358,78.125,27,72.605,27
			C66.358,27,62,31.875,62,37.395V41H48v-3.605C48,31.654,43.346,27,37.605,27C31.358,27,27,31.875,27,37.395
			C27,43.642,31.875,48,37.395,48H41v14h-3.605C31.897,62,27,66.335,27,72.605C27,78.103,31.335,83,37.605,83
			C43.346,83,48,78.346,48,72.605V69h14v3.605C62,78.103,66.335,83,72.605,83C78.346,83,83,78.346,83,72.605
			C83,66.358,78.125,62,72.605,62H69V48H72.605z M69,37.465C69,35.551,70.551,34,72.465,34h0.07C74.449,34,76,35.551,76,37.465v0.07
			C76,39.449,74.449,41,72.535,41H69V37.465z M37.465,41C35.551,41,34,39.449,34,37.535v-0.07C34,35.551,35.551,34,37.465,34h0.07
			C39.449,34,41,35.551,41,37.465V41H37.465z M41,72.535C41,74.449,39.449,76,37.535,76h-0.07C35.551,76,34,74.449,34,72.535v-0.07
			C34,70.551,35.551,69,37.465,69H41V72.535z M72.535,69C74.449,69,76,70.551,76,72.465v0.07C76,74.449,74.449,76,72.535,76h-0.07
			C70.551,76,69,74.449,69,72.535V69H72.535z M62,62H48V48h14V62z"/>
		<path style="fill:#FFFFFF;" d="M56,62h-8V48h8v-7h-8v-3.605C48,31.654,43.346,27,37.605,27C31.358,27,27,31.875,27,37.395
			C27,43.642,31.875,48,37.395,48H41v14h-3.605C31.897,62,27,66.335,27,72.605C27,78.103,31.335,83,37.605,83
			C43.346,83,48,78.346,48,72.605V69h8V62z M41,72.535C41,74.449,39.449,76,37.535,76h-0.07C35.551,76,34,74.449,34,72.535v-0.07
			C34,70.551,35.551,69,37.465,69H41V72.535z M41,41h-3.535C35.551,41,34,39.449,34,37.535v-0.07C34,35.551,35.551,34,37.465,34
			h0.07C39.449,34,41,35.551,41,37.465V41z"/>
	</g>
</g>
<g id="Multicolor" style="display:none;">
	<g style="display:inline;">
		<path style="fill:#F0F1F1;" d="M72.605,48C78.346,48,83,43.346,83,37.605C83,31.358,78.125,27,72.605,27
			C66.358,27,62,31.875,62,37.395V41H48v-3.605C48,31.654,43.346,27,37.605,27C31.358,27,27,31.875,27,37.395
			C27,43.642,31.875,48,37.395,48H41v14h-3.605C31.897,62,27,66.335,27,72.605C27,78.103,31.335,83,37.605,83
			C43.346,83,48,78.346,48,72.605V69h14v3.605C62,78.103,66.335,83,72.605,83C78.346,83,83,78.346,83,72.605
			C83,66.358,78.125,62,72.605,62H69V48H72.605z M69,37.465C69,35.551,70.551,34,72.465,34h0.07C74.449,34,76,35.551,76,37.465v0.07
			C76,39.449,74.449,41,72.535,41H69V37.465z M37.465,41C35.551,41,34,39.449,34,37.535v-0.07C34,35.551,35.551,34,37.465,34h0.07
			C39.449,34,41,35.551,41,37.465V41H37.465z M41,72.535C41,74.449,39.449,76,37.535,76h-0.07C35.551,76,34,74.449,34,72.535v-0.07
			C34,70.551,35.551,69,37.465,69H41V72.535z M72.535,69C74.449,69,76,70.551,76,72.465v0.07C76,74.449,74.449,76,72.535,76h-0.07
			C70.551,76,69,74.449,69,72.535V69H72.535z M62,62H48V48h14V62z"/>
		<path style="fill:#FFFFFF;" d="M56,62h-8V48h8v-7h-8v-3.605C48,31.654,43.346,27,37.605,27C31.358,27,27,31.875,27,37.395
			C27,43.642,31.875,48,37.395,48H41v14h-3.605C31.897,62,27,66.335,27,72.605C27,78.103,31.335,83,37.605,83
			C43.346,83,48,78.346,48,72.605V69h8V62z M41,72.535C41,74.449,39.449,76,37.535,76h-0.07C35.551,76,34,74.449,34,72.535v-0.07
			C34,70.551,35.551,69,37.465,69H41V72.535z M41,41h-3.535C35.551,41,34,39.449,34,37.535v-0.07C34,35.551,35.551,34,37.465,34
			h0.07C39.449,34,41,35.551,41,37.465V41z"/>
	</g>
</g>
<g id="Blue" style="display:none;">
	<g style="display:inline;">
		<g>
			<path style="fill:#E1F5FA;" d="M72.607,48c5.742,0,10.396-4.654,10.396-10.395C83.003,31.358,78.128,27,72.607,27
				c-6.247,0-10.605,4.875-10.605,10.395V41h-14v-3.605C48.003,31.654,43.349,27,37.607,27c-6.247,0-10.604,4.875-10.604,10.395
				C27.003,43.642,31.878,48,37.397,48h3.605v14h-3.605c-5.497,0-10.395,4.335-10.395,10.605C27.003,78.103,31.337,83,37.607,83
				c5.742,0,10.396-4.654,10.396-10.395V69h14v3.605C62.003,78.103,66.337,83,72.607,83c5.742,0,10.396-4.654,10.396-10.395
				C83.003,66.358,78.128,62,72.607,62h-3.604V48H72.607z M69.003,37.465c0-1.914,1.551-3.465,3.465-3.465h0.07
				c1.914,0,3.465,1.551,3.465,3.465v0.07c0,1.914-1.551,3.465-3.465,3.465h-3.535V37.465z M37.468,41
				c-1.914,0-3.465-1.551-3.465-3.465v-0.07c0-1.914,1.551-3.465,3.465-3.465h0.07c1.913,0,3.465,1.551,3.465,3.465V41H37.468z
				 M41.003,72.535c0,1.914-1.551,3.465-3.465,3.465h-0.07c-1.914,0-3.465-1.551-3.465-3.465v-0.07c0-1.914,1.551-3.465,3.465-3.465
				h3.535V72.535z M72.538,69c1.914,0,3.465,1.551,3.465,3.465v0.07c0,1.914-1.551,3.465-3.465,3.465h-0.07
				c-1.913,0-3.465-1.551-3.465-3.465V69H72.538z M62.003,62h-14V48h14V62z"/>
		</g>
		<g>
			<path style="fill:#FFFFFF;" d="M56.003,62h-8V48h8v-7h-8v-3.605C48.003,31.654,43.349,27,37.607,27
				c-6.247,0-10.604,4.875-10.604,10.395C27.003,43.642,31.878,48,37.397,48h3.605v14h-3.605c-5.497,0-10.395,4.335-10.395,10.605
				C27.003,78.103,31.337,83,37.607,83c5.742,0,10.396-4.654,10.396-10.395V69h8V62z M41.003,72.535
				c0,1.914-1.551,3.465-3.465,3.465h-0.07c-1.914,0-3.465-1.551-3.465-3.465v-0.07c0-1.914,1.551-3.465,3.465-3.465h3.535V72.535z
				 M41.003,41h-3.535c-1.914,0-3.465-1.551-3.465-3.465v-0.07c0-1.914,1.551-3.465,3.465-3.465h0.07
				c1.913,0,3.465,1.551,3.465,3.465V41z"/>
		</g>
	</g>
</g>
<g id="R-Blue" style="display:none;">
	<g style="display:inline;">
		<circle style="fill:#81D2EB;" cx="55" cy="55" r="55"/>
	</g>
	<g style="display:inline;">
		<g>
			<path style="fill:#E1F5FA;" d="M72.604,48C78.346,48,83,43.346,83,37.605C83,31.358,78.125,27,72.604,27
				C66.357,27,62,31.875,62,37.395V41H48v-3.605C48,31.654,43.346,27,37.604,27C31.357,27,27,31.875,27,37.395
				C27,43.643,31.875,48,37.395,48H41v14h-3.605C31.898,62,27,66.335,27,72.605C27,78.103,31.335,83,37.604,83
				C43.346,83,48,78.346,48,72.605V69h14v3.605C62,78.103,66.335,83,72.604,83C78.346,83,83,78.346,83,72.605
				C83,66.358,78.125,62,72.604,62H69V48H72.604z M69,37.465C69,35.551,70.551,34,72.465,34h0.07C74.449,34,76,35.551,76,37.465
				v0.07C76,39.449,74.449,41,72.535,41H69V37.465z M37.465,41C35.551,41,34,39.449,34,37.535v-0.07C34,35.551,35.551,34,37.465,34
				h0.07C39.449,34,41,35.551,41,37.465V41H37.465z M41,72.535C41,74.449,39.449,76,37.535,76h-0.07C35.551,76,34,74.449,34,72.535
				v-0.07C34,70.551,35.551,69,37.465,69H41V72.535z M72.535,69C74.449,69,76,70.551,76,72.465v0.07C76,74.449,74.449,76,72.535,76
				h-0.07C70.551,76,69,74.449,69,72.535V69H72.535z M62,62H48V48h14V62z"/>
		</g>
		<g>
			<path style="fill:#FFFFFF;" d="M56,62h-8V48h8v-7h-8v-3.605C48,31.654,43.346,27,37.604,27C31.357,27,27,31.875,27,37.395
				C27,43.643,31.875,48,37.395,48H41v14h-3.605C31.898,62,27,66.335,27,72.605C27,78.103,31.335,83,37.604,83
				C43.346,83,48,78.346,48,72.605V69h8V62z M41,72.535C41,74.449,39.449,76,37.535,76h-0.07C35.551,76,34,74.449,34,72.535v-0.07
				C34,70.551,35.551,69,37.465,69H41V72.535z M41,41h-3.535C35.551,41,34,39.449,34,37.535v-0.07C34,35.551,35.551,34,37.465,34
				h0.07C39.449,34,41,35.551,41,37.465V41z"/>
		</g>
	</g>
</g>
<g id="Green" style="display:none;">
	<g style="display:inline;">
		<g>
			<path style="fill:#D7FCF9;" d="M72.607,48c5.742,0,10.396-4.654,10.396-10.395C83.003,31.358,78.128,27,72.607,27
				c-6.247,0-10.605,4.875-10.605,10.395V41h-14v-3.605C48.003,31.654,43.349,27,37.607,27c-6.247,0-10.604,4.875-10.604,10.395
				C27.003,43.643,31.878,48,37.397,48h3.605v14h-3.605c-5.497,0-10.395,4.335-10.395,10.605C27.003,78.103,31.337,83,37.607,83
				c5.742,0,10.396-4.654,10.396-10.395V69h14v3.605C62.003,78.103,66.337,83,72.607,83c5.742,0,10.396-4.654,10.396-10.395
				C83.003,66.358,78.128,62,72.607,62h-3.604V48H72.607z M69.003,37.465c0-1.914,1.551-3.465,3.465-3.465h0.07
				c1.914,0,3.465,1.551,3.465,3.465v0.07c0,1.914-1.551,3.465-3.465,3.465h-3.535V37.465z M37.468,41
				c-1.914,0-3.465-1.551-3.465-3.465v-0.07c0-1.914,1.551-3.465,3.465-3.465h0.07c1.913,0,3.465,1.551,3.465,3.465V41H37.468z
				 M41.003,72.535c0,1.913-1.551,3.465-3.465,3.465h-0.07c-1.914,0-3.465-1.551-3.465-3.465v-0.07c0-1.913,1.551-3.465,3.465-3.465
				h3.535V72.535z M72.538,69c1.914,0,3.465,1.551,3.465,3.465v0.07c0,1.913-1.551,3.465-3.465,3.465h-0.07
				c-1.913,0-3.465-1.551-3.465-3.465V69H72.538z M62.003,62h-14V48h14V62z"/>
		</g>
		<g>
			<path style="fill:#FFFFFF;" d="M56.003,62h-8V48h8v-7h-8v-3.605C48.003,31.654,43.349,27,37.607,27
				c-6.247,0-10.604,4.875-10.604,10.395C27.003,43.643,31.878,48,37.397,48h3.605v14h-3.605c-5.497,0-10.395,4.335-10.395,10.605
				C27.003,78.103,31.337,83,37.607,83c5.742,0,10.396-4.654,10.396-10.395V69h8V62z M41.003,72.535
				c0,1.913-1.551,3.465-3.465,3.465h-0.07c-1.914,0-3.465-1.551-3.465-3.465v-0.07c0-1.913,1.551-3.465,3.465-3.465h3.535V72.535z
				 M41.003,41h-3.535c-1.914,0-3.465-1.551-3.465-3.465v-0.07c0-1.914,1.551-3.465,3.465-3.465h0.07
				c1.913,0,3.465,1.551,3.465,3.465V41z"/>
		</g>
	</g>
</g>
<g id="R-Green" style="display:none;">
	<g style="display:inline;">
		<circle style="fill:#87E0C8;" cx="55" cy="55" r="55"/>
	</g>
	<g style="display:inline;">
		<g>
			<path style="fill:#D7FCF9;" d="M72.604,48C78.346,48,83,43.346,83,37.605C83,31.358,78.125,27,72.604,27
				C66.357,27,62,31.875,62,37.395V41H48v-3.605C48,31.654,43.346,27,37.604,27C31.357,27,27,31.875,27,37.395
				C27,43.643,31.875,48,37.395,48H41v14h-3.605C31.898,62,27,66.335,27,72.605C27,78.103,31.335,83,37.604,83
				C43.346,83,48,78.346,48,72.605V69h14v3.605C62,78.103,66.335,83,72.604,83C78.346,83,83,78.346,83,72.605
				C83,66.358,78.125,62,72.604,62H69V48H72.604z M69,37.465C69,35.551,70.551,34,72.465,34h0.07C74.449,34,76,35.551,76,37.465
				v0.07C76,39.449,74.449,41,72.535,41H69V37.465z M37.465,41C35.551,41,34,39.449,34,37.535v-0.07C34,35.551,35.551,34,37.465,34
				h0.07C39.449,34,41,35.551,41,37.465V41H37.465z M41,72.535C41,74.449,39.449,76,37.535,76h-0.07C35.551,76,34,74.449,34,72.535
				v-0.07C34,70.551,35.551,69,37.465,69H41V72.535z M72.535,69C74.449,69,76,70.551,76,72.465v0.07C76,74.449,74.449,76,72.535,76
				h-0.07C70.551,76,69,74.449,69,72.535V69H72.535z M62,62H48V48h14V62z"/>
		</g>
		<g>
			<path style="fill:#FFFFFF;" d="M56,62h-8V48h8v-7h-8v-3.605C48,31.654,43.346,27,37.604,27C31.357,27,27,31.875,27,37.395
				C27,43.643,31.875,48,37.395,48H41v14h-3.605C31.898,62,27,66.335,27,72.605C27,78.103,31.335,83,37.604,83
				C43.346,83,48,78.346,48,72.605V69h8V62z M41,72.535C41,74.449,39.449,76,37.535,76h-0.07C35.551,76,34,74.449,34,72.535v-0.07
				C34,70.551,35.551,69,37.465,69H41V72.535z M41,41h-3.535C35.551,41,34,39.449,34,37.535v-0.07C34,35.551,35.551,34,37.465,34
				h0.07C39.449,34,41,35.551,41,37.465V41z"/>
		</g>
	</g>
</g>
<g id="Red" style="display:none;">
	<g style="display:inline;">
		<g>
			<path style="fill:#FFEFED;" d="M72.604,48C78.346,48,83,43.346,83,37.605C83,31.358,78.125,27,72.604,27
				C66.357,27,62,31.875,62,37.394V41H48v-3.605C48,31.654,43.346,27,37.604,27C31.357,27,27,31.875,27,37.394
				C27,43.642,31.875,48,37.395,48H41v14h-3.605C31.898,62,27,66.335,27,72.605C27,78.103,31.335,83,37.604,83
				C43.346,83,48,78.346,48,72.605V69h14v3.605C62,78.103,66.335,83,72.604,83C78.346,83,83,78.346,83,72.605
				C83,66.358,78.125,62,72.604,62H69V48H72.604z M69,37.465C69,35.551,70.551,34,72.465,34h0.07C74.449,34,76,35.551,76,37.465
				v0.07C76,39.449,74.449,41,72.535,41H69V37.465z M37.465,41C35.551,41,34,39.449,34,37.535v-0.07C34,35.551,35.551,34,37.465,34
				h0.07C39.449,34,41,35.551,41,37.465V41H37.465z M41,72.535C41,74.449,39.449,76,37.535,76h-0.07C35.551,76,34,74.449,34,72.535
				v-0.07C34,70.551,35.551,69,37.465,69H41V72.535z M72.535,69C74.449,69,76,70.551,76,72.465v0.07C76,74.449,74.449,76,72.535,76
				h-0.07C70.551,76,69,74.449,69,72.535V69H72.535z M62,62H48V48h14V62z"/>
		</g>
		<g>
			<path style="fill:#FFFFFF;" d="M56,62h-8V48h8v-7h-8v-3.605C48,31.654,43.346,27,37.604,27C31.357,27,27,31.875,27,37.394
				C27,43.642,31.875,48,37.395,48H41v14h-3.605C31.898,62,27,66.335,27,72.605C27,78.103,31.335,83,37.604,83
				C43.346,83,48,78.346,48,72.605V69h8V62z M41,72.535C41,74.449,39.449,76,37.535,76h-0.07C35.551,76,34,74.449,34,72.535v-0.07
				C34,70.551,35.551,69,37.465,69H41V72.535z M41,41h-3.535C35.551,41,34,39.449,34,37.535v-0.07C34,35.551,35.551,34,37.465,34
				h0.07C39.449,34,41,35.551,41,37.465V41z"/>
		</g>
	</g>
</g>
<g id="R-Red" style="display:none;">
	<g style="display:inline;">
		<circle style="fill:#FABBAF;" cx="55" cy="55" r="55"/>
	</g>
	<g style="display:inline;">
		<g>
			<path style="fill:#FFEFED;" d="M72.604,48C78.346,48,83,43.346,83,37.605C83,31.358,78.125,27,72.604,27
				C66.357,27,62,31.875,62,37.395V41H48v-3.605C48,31.654,43.346,27,37.604,27C31.357,27,27,31.875,27,37.395
				C27,43.643,31.875,48,37.395,48H41v14h-3.605C31.898,62,27,66.335,27,72.605C27,78.103,31.335,83,37.604,83
				C43.346,83,48,78.346,48,72.605V69h14v3.605C62,78.103,66.335,83,72.604,83C78.346,83,83,78.346,83,72.605
				C83,66.358,78.125,62,72.604,62H69V48H72.604z M69,37.465C69,35.551,70.551,34,72.465,34h0.07C74.449,34,76,35.551,76,37.465
				v0.07C76,39.449,74.449,41,72.535,41H69V37.465z M37.465,41C35.551,41,34,39.449,34,37.535v-0.07C34,35.551,35.551,34,37.465,34
				h0.07C39.449,34,41,35.551,41,37.465V41H37.465z M41,72.535C41,74.449,39.449,76,37.535,76h-0.07C35.551,76,34,74.449,34,72.535
				v-0.07C34,70.551,35.551,69,37.465,69H41V72.535z M72.535,69C74.449,69,76,70.551,76,72.465v0.07C76,74.449,74.449,76,72.535,76
				h-0.07C70.551,76,69,74.449,69,72.535V69H72.535z M62,62H48V48h14V62z"/>
		</g>
		<g>
			<path style="fill:#FFFFFF;" d="M56,62h-8V48h8v-7h-8v-3.605C48,31.654,43.346,27,37.604,27C31.357,27,27,31.875,27,37.395
				C27,43.643,31.875,48,37.395,48H41v14h-3.605C31.898,62,27,66.335,27,72.605C27,78.103,31.335,83,37.604,83
				C43.346,83,48,78.346,48,72.605V69h8V62z M41,72.535C41,74.449,39.449,76,37.535,76h-0.07C35.551,76,34,74.449,34,72.535v-0.07
				C34,70.551,35.551,69,37.465,69H41V72.535z M41,41h-3.535C35.551,41,34,39.449,34,37.535v-0.07C34,35.551,35.551,34,37.465,34
				h0.07C39.449,34,41,35.551,41,37.465V41z"/>
		</g>
	</g>
</g>
<g id="Yellow" style="display:none;">
	<g style="display:inline;">
		<g>
			<path style="fill:#FFF5D9;" d="M72.607,48c5.742,0,10.396-4.654,10.396-10.395C83.003,31.358,78.128,27,72.607,27
				c-6.247,0-10.605,4.875-10.605,10.395V41h-14v-3.605C48.003,31.654,43.349,27,37.607,27c-6.247,0-10.604,4.875-10.604,10.395
				C27.003,43.642,31.878,48,37.397,48h3.605v14h-3.605c-5.497,0-10.395,4.335-10.395,10.605C27.003,78.103,31.337,83,37.607,83
				c5.742,0,10.396-4.654,10.396-10.395V69h14v3.605C62.003,78.103,66.337,83,72.607,83c5.742,0,10.396-4.654,10.396-10.395
				C83.003,66.358,78.128,62,72.607,62h-3.604V48H72.607z M69.003,37.465c0-1.913,1.551-3.465,3.465-3.465h0.07
				c1.914,0,3.465,1.551,3.465,3.465v0.07c0,1.914-1.551,3.465-3.465,3.465h-3.535V37.465z M37.468,41
				c-1.914,0-3.465-1.551-3.465-3.465v-0.07c0-1.913,1.551-3.465,3.465-3.465h0.07c1.913,0,3.465,1.551,3.465,3.465V41H37.468z
				 M41.003,72.535c0,1.913-1.551,3.465-3.465,3.465h-0.07c-1.914,0-3.465-1.551-3.465-3.465v-0.07c0-1.914,1.551-3.465,3.465-3.465
				h3.535V72.535z M72.538,69c1.914,0,3.465,1.551,3.465,3.465v0.07c0,1.913-1.551,3.465-3.465,3.465h-0.07
				c-1.913,0-3.465-1.551-3.465-3.465V69H72.538z M62.003,62h-14V48h14V62z"/>
		</g>
		<g>
			<path style="fill:#FFFFFF;" d="M56.003,62h-8V48h8v-7h-8v-3.605C48.003,31.654,43.349,27,37.607,27
				c-6.247,0-10.604,4.875-10.604,10.395C27.003,43.642,31.878,48,37.397,48h3.605v14h-3.605c-5.497,0-10.395,4.335-10.395,10.605
				C27.003,78.103,31.337,83,37.607,83c5.742,0,10.396-4.654,10.396-10.395V69h8V62z M41.003,72.535
				c0,1.913-1.551,3.465-3.465,3.465h-0.07c-1.914,0-3.465-1.551-3.465-3.465v-0.07c0-1.914,1.551-3.465,3.465-3.465h3.535V72.535z
				 M41.003,41h-3.535c-1.914,0-3.465-1.551-3.465-3.465v-0.07c0-1.913,1.551-3.465,3.465-3.465h0.07
				c1.913,0,3.465,1.551,3.465,3.465V41z"/>
		</g>
	</g>
</g>
<g id="R-Yellow" style="display:none;">
	<g style="display:inline;">
		<circle style="fill:#FFD75E;" cx="55" cy="55" r="55"/>
	</g>
	<g style="display:inline;">
		<g>
			<path style="fill:#FFF5D9;" d="M72.604,48C78.346,48,83,43.346,83,37.605C83,31.358,78.125,27,72.604,27
				C66.357,27,62,31.875,62,37.395V41H48v-3.605C48,31.654,43.346,27,37.604,27C31.357,27,27,31.875,27,37.395
				C27,43.643,31.875,48,37.395,48H41v14h-3.605C31.897,62,27,66.335,27,72.605C27,78.103,31.334,83,37.604,83
				C43.346,83,48,78.346,48,72.605V69h14v3.605C62,78.103,66.335,83,72.604,83C78.346,83,83,78.346,83,72.605
				C83,66.358,78.125,62,72.604,62H69V48H72.604z M69,37.465C69,35.551,70.551,34,72.465,34h0.07C74.449,34,76,35.551,76,37.465
				v0.07C76,39.449,74.449,41,72.535,41H69V37.465z M37.465,41C35.551,41,34,39.449,34,37.535v-0.07C34,35.551,35.551,34,37.465,34
				h0.07C39.449,34,41,35.551,41,37.465V41H37.465z M41,72.535C41,74.449,39.449,76,37.535,76h-0.07C35.551,76,34,74.449,34,72.535
				v-0.07C34,70.551,35.551,69,37.465,69H41V72.535z M72.535,69C74.449,69,76,70.551,76,72.465v0.07C76,74.449,74.449,76,72.535,76
				h-0.07C70.551,76,69,74.449,69,72.535V69H72.535z M62,62H48V48h14V62z"/>
		</g>
		<g>
			<path style="fill:#FFFFFF;" d="M56,62h-8V48h8v-7h-8v-3.605C48,31.654,43.346,27,37.604,27C31.357,27,27,31.875,27,37.395
				C27,43.643,31.875,48,37.395,48H41v14h-3.605C31.897,62,27,66.335,27,72.605C27,78.103,31.334,83,37.604,83
				C43.346,83,48,78.346,48,72.605V69h8V62z M41,72.535C41,74.449,39.449,76,37.535,76h-0.07C35.551,76,34,74.449,34,72.535v-0.07
				C34,70.551,35.551,69,37.465,69H41V72.535z M41,41h-3.535C35.551,41,34,39.449,34,37.535v-0.07C34,35.551,35.551,34,37.465,34
				h0.07C39.449,34,41,35.551,41,37.465V41z"/>
		</g>
	</g>
</g>
</svg>
