<?xml version="1.0" encoding="iso-8859-1"?>
<!-- Generator: Adobe Illustrator 17.1.0, SVG Export Plug-In . SVG Version: 6.00 Build 0)  -->
<!DOCTYPE svg PUBLIC "-//W3C//DTD SVG 1.0//EN" "http://www.w3.org/TR/2001/REC-SVG-20010904/DTD/svg10.dtd">
<svg version="1.0" xmlns="http://www.w3.org/2000/svg" xmlns:xlink="http://www.w3.org/1999/xlink" x="0px" y="0px" width="110px"
	 height="110px" viewBox="0 0 110 110" style="enable-background:new 0 0 110 110;" xml:space="preserve">
<g id="Artboard">
</g>
<g id="Multicolor">
	<circle style="fill:#E04F5F;" cx="55" cy="55" r="55"/>
	<g>
		<g>
			<polygon style="fill:#F4D0A1;" points="23,51 23,87 28,87 28,55 63,55 63,87 87,87 87,55 87,51 			"/>
		</g>
		<g>
			<rect x="63" y="55" style="fill:#F8E1C2;" width="24" height="8"/>
		</g>
		<g>
			<rect x="63" y="67" style="fill:#F8E1C2;" width="24" height="16"/>
		</g>
		<g>
			<path style="fill:#9C6144;" d="M81,55c0,1.66-2.69,3-6,3s-6-1.34-6-3H81z"/>
		</g>
		<g>
			<path style="fill:#9C6144;" d="M81,67c0,1.66-2.69,3-6,3s-6-1.34-6-3H81z"/>
		</g>
		<g>
			<path style="fill:#FFFFFF;" d="M65,23H33c-1.104,0-2,0.896-2,2v19c0,1.104,0.896,2,2,2h13c0,0.795-0.316,1.559-0.878,2.121
				C44.559,48.684,43.796,49,43,49h-3c-0.552,0-1,0.448-1,1s0.448,1,1,1h18c0.552,0,1-0.448,1-1s-0.448-1-1-1h-3
				c-1.657,0-3-1.343-3-3h13c1.104,0,2-0.896,2-2V25C67,23.896,66.104,23,65,23z"/>
		</g>
		<g>
			<circle style="fill:#5B5C5F;" cx="49" cy="43" r="1"/>
		</g>
		<g>
			<rect x="28" y="55" style="fill:#EDBC7C;" width="35" height="8"/>
		</g>
		<g>
			<rect x="33" y="25" style="fill:#3E3E3F;" width="32" height="16"/>
		</g>
		<g>
			<polygon style="fill:#5B5C5F;" points="33,25 33,41 36.874,41 52.874,25 			"/>
		</g>
	</g>
</g>
</svg>
