<?xml version="1.0" encoding="iso-8859-1"?>
<!-- Generator: Adobe Illustrator 17.1.0, SVG Export Plug-In . SVG Version: 6.00 Build 0)  -->
<!DOCTYPE svg PUBLIC "-//W3C//DTD SVG 1.0//EN" "http://www.w3.org/TR/2001/REC-SVG-20010904/DTD/svg10.dtd">
<svg version="1.0" xmlns="http://www.w3.org/2000/svg" xmlns:xlink="http://www.w3.org/1999/xlink" x="0px" y="0px" width="110px"
	 height="110px" viewBox="0 0 110 110" style="enable-background:new 0 0 110 110;" xml:space="preserve">
<g id="Artboard">
</g>
<g id="Multicolor">
	<g>
		<circle style="fill:#32BEA6;" cx="55" cy="55" r="55"/>
	</g>
	<g>
		<path style="fill:#F7B4B4;" d="M75.5,55.5C75.5,49.757,70.814,45,65,45c-5.777,0-10.5,4.699-10.5,10.5
			c0,3.561,1.783,6.707,4.5,8.606V67h12v-2.894C73.717,62.207,75.5,59.061,75.5,55.5z"/>
		<path style="fill:#FBC8C8;" d="M54.5,55.5c0,3.561,1.783,6.707,4.5,8.606V67h6V45C59.223,45,54.5,49.699,54.5,55.5z"/>
		<path style="fill:#3E3E3F;" d="M87,87H43l1.099-12.983c0-1.786,1.184-3.355,2.901-3.846L59,67h12l12,3.171
			c1.717,0.491,2.901,2.06,2.901,3.846L87,87z"/>
		<polygon style="fill:#FFFFFF;" points="59,67 71,67 65,87 		"/>
		<polygon style="fill:#DF2C2C;" points="65,67 62,77 65,87 68,77 		"/>
		<path style="fill:#692E19;" d="M75.465,54.905c-1.925,0.385-3.973,0.595-6.09,0.595c-5.442,0-10.43-1.348-14.245-3.588
			C56.6,47.887,60.468,45,65,45C70.582,45,75.168,49.393,75.465,54.905z"/>
		<polygon style="fill:#FA5655;" points="62,77 65,87 65,67 		"/>
		<path style="fill:#84462D;" d="M65,45c-4.532,0-8.4,2.887-9.87,6.913c2.764,1.623,6.148,2.768,9.87,3.281V45z"/>
		<g>
			<path style="fill:#FFFFFF;" d="M58.415,37.488C58.415,29.486,50.487,23,40.707,23S23,29.486,23,37.488
				c0,8.064,8.072,14.63,18.021,14.481L47.146,56l-0.568-4.843C53.471,49.174,58.415,43.805,58.415,37.488z"/>
		</g>
		<g>
			<circle style="fill:#FACB1B;" cx="40.415" cy="37" r="10"/>
		</g>
		<g>
			<circle style="fill:#84462D;" cx="37.415" cy="34" r="1"/>
		</g>
		<g>
			<circle style="fill:#84462D;" cx="43.415" cy="34" r="1"/>
		</g>
		<g>
			<g>
				<path style="fill:#84462D;" d="M40.415,39c2.313,0,4.471,1.245,5.63,3.25c0.138,0.239,0.057,0.545-0.183,0.683
					c-0.239,0.14-0.544,0.057-0.683-0.182C44.198,41.054,42.372,40,40.415,40c-1.957,0-3.783,1.054-4.764,2.75
					c-0.138,0.239-0.444,0.321-0.683,0.182c-0.239-0.138-0.321-0.444-0.182-0.683C35.944,40.245,38.102,39,40.415,39z"/>
			</g>
		</g>
	</g>
</g>
</svg>
