<?xml version="1.0" encoding="iso-8859-1"?>
<!-- Generator: Adobe Illustrator 17.1.0, SVG Export Plug-In . SVG Version: 6.00 Build 0)  -->
<!DOCTYPE svg PUBLIC "-//W3C//DTD SVG 1.0//EN" "http://www.w3.org/TR/2001/REC-SVG-20010904/DTD/svg10.dtd">
<svg version="1.0" xmlns="http://www.w3.org/2000/svg" xmlns:xlink="http://www.w3.org/1999/xlink" x="0px" y="0px" width="110px"
	 height="110px" viewBox="0 0 110 110" style="enable-background:new 0 0 110 110;" xml:space="preserve">
<g id="Artboard">
</g>
<g id="Multicolor">
	<circle style="fill:#E04F5F;" cx="55" cy="55" r="55"/>
	<g>
		<circle style="fill:#FACB1B;" cx="55" cy="61" r="26"/>
		<circle style="fill:#21B2D1;" cx="55.047" cy="61.016" r="22"/>
		<path style="fill:#FBE158;" d="M55,35c-14.359,0-26,11.641-26,26c0,7.178,2.909,13.677,7.612,18.382l36.769-36.769
			C68.677,37.909,62.178,35,55,35z"/>
		<path style="fill:#40C9E7;" d="M55.047,39.016c-12.15,0-22,9.85-22,22c0,6.058,2.449,11.543,6.41,15.521l31.111-31.111
			C66.59,41.465,61.104,39.016,55.047,39.016z"/>
		<path style="fill:#FACB1B;" d="M55,23c-3.866,0-7,2.687-7,6s3.134,6,7,6s7-2.687,7-6S58.866,23,55,23z M55,32
			c-2.416,0-4.375-1.343-4.375-3s1.959-3,4.375-3s4.375,1.343,4.375,3S57.416,32,55,32z"/>
		<path style="fill:#F3B607;" d="M57,35h-4v-3c0-0.552,0.448-1,1-1h2c0.552,0,1,0.448,1,1V35z"/>
		<polygon style="fill:#E2E4E5;" points="61.049,57.585 65,51 58.415,54.951 55,43 51,57 37,61 48.537,64.296 43.787,72.213 
			51.704,67.463 55,79 59,65 73,61 		"/>
		<polygon style="fill:#FFFFFF;" points="55,43 51,57 37,61 48.537,64.296 43.908,72.011 64.797,51.122 58.415,54.951 		"/>
		<path style="fill:#DF2C2C;" d="M58.771,56.556c0.31,0.177,0.567,0.434,0.744,0.744l11.193,18.103
			c0.236,0.394,0.174,0.897-0.15,1.222c-0.325,0.325-0.828,0.387-1.222,0.15L51.233,65.582c-0.31-0.177-0.567-0.434-0.744-0.744
			L39.295,46.735c-0.236-0.394-0.174-0.897,0.15-1.222c0.325-0.325,0.828-0.387,1.222-0.15L58.771,56.556z"/>
		<path style="fill:#FA5655;" d="M58.771,56.556L40.667,45.362c-0.394-0.236-0.897-0.174-1.222,0.15s-0.387,0.829-0.15,1.222
			l11.193,18.103c0.071,0.124,0.163,0.231,0.257,0.336l8.361-8.361C59.002,56.718,58.894,56.626,58.771,56.556z"/>
	</g>
</g>
</svg>
