<?xml version="1.0" encoding="iso-8859-1"?>
<!-- Generator: Adobe Illustrator 17.1.0, SVG Export Plug-In . SVG Version: 6.00 Build 0)  -->
<!DOCTYPE svg PUBLIC "-//W3C//DTD SVG 1.0//EN" "http://www.w3.org/TR/2001/REC-SVG-20010904/DTD/svg10.dtd">
<svg version="1.0" xmlns="http://www.w3.org/2000/svg" xmlns:xlink="http://www.w3.org/1999/xlink" x="0px" y="0px" width="110px"
	 height="110px" viewBox="0 0 110 110" style="enable-background:new 0 0 110 110;" xml:space="preserve">
<g id="Artboard">
</g>
<g id="Multicolor">
	<circle style="fill:#E04F5F;" cx="55" cy="55" r="55"/>
	<g>
		<g>
			<path style="fill:#FBC8C8;" d="M84.141,25.859c-3.062-3.062-4.534,1.827-8.087,2.735c-3.914-1.797-8.693-1.096-11.917,2.127
				L27.26,67.598c0.126,0.088,0.249,0.183,0.362,0.295l14.485,14.485c0.113,0.113,0.207,0.236,0.295,0.362l36.877-36.877
				c3.224-3.224,3.925-8.003,2.128-11.917C82.314,30.393,87.202,28.921,84.141,25.859z"/>
		</g>
		<g>
			<path style="fill:#F79392;" d="M42.107,82.379L27.621,67.894c-1.057-1.058-2.771-1.058-3.828,0c-1.057,1.057-1.057,2.771,0,3.828
				l14.485,14.485c1.057,1.057,2.771,1.057,3.828,0S43.164,83.436,42.107,82.379z"/>
		</g>
		<g>
			<path style="fill:#F7B4B4;" d="M27.621,67.894c-1.057-1.058-2.771-1.058-3.828,0c-1.057,1.057-1.057,2.771,0,3.828l7.042,7.042
				l3.828-3.828L27.621,67.894z"/>
		</g>
		<g>
			<path style="fill:#FBD7D7;" d="M76.054,28.594c-3.914-1.797-8.693-1.096-11.917,2.127L27.26,67.598
				c0.126,0.088,0.249,0.183,0.362,0.295l7.065,7.065l49.265-49.265C81.02,23.024,79.531,27.706,76.054,28.594z"/>
		</g>
	</g>
</g>
</svg>
