<?xml version="1.0" encoding="iso-8859-1"?>
<!-- Generator: Adobe Illustrator 17.1.0, SVG Export Plug-In . SVG Version: 6.00 Build 0)  -->
<!DOCTYPE svg PUBLIC "-//W3C//DTD SVG 1.0//EN" "http://www.w3.org/TR/2001/REC-SVG-20010904/DTD/svg10.dtd">
<svg version="1.0" xmlns="http://www.w3.org/2000/svg" xmlns:xlink="http://www.w3.org/1999/xlink" x="0px" y="0px" width="110px"
	 height="110px" viewBox="0 0 110 110" style="enable-background:new 0 0 110 110;" xml:space="preserve">
<g id="Artboard">
</g>
<g id="Multicolor">
	<g>
		<circle style="fill:#25B7D3;" cx="55" cy="55" r="55"/>
	</g>
	<g>
		<g>
			<polygon style="fill:#E2E4E5;" points="67,67.997 65,66.997 45,66.997 43,67.997 55,87 			"/>
		</g>
		<path style="fill:#F7B4B4;" d="M57.655,68H55h-2.655c-0.856,0-1.671-0.365-2.24-1.004L45,63v4.5c0,0,0,7.5,10,7.5s10-7.5,10-7.5
			V63l-5.105,3.996C59.326,67.635,58.511,68,57.655,68z"/>
		<path style="fill:#FBC8C8;" d="M50.105,66.996L45,63v4.5c0,0,0,7.5,10,7.5v-7h-2.655C51.489,68,50.674,67.635,50.105,66.996z"/>
		<path style="fill:#FBC8C8;" d="M70,45.006c-0.421,0-0.737,0.101-1,0.241c0-2.61-0.076-4.972-0.487-7.016
			c-2.759-0.763-7.626-1.822-13.486-1.869v-0.001c-0.009,0-0.018,0-0.027,0s-0.018,0-0.027,0v0.001
			c-5.861,0.046-10.728,1.106-13.487,1.869c-0.398,1.979-0.481,4.258-0.486,6.771V53l4,10l5.105,3.996
			C50.674,67.635,51.489,68,52.345,68H55h2.655c0.856,0,1.671-0.365,2.24-1.004L65,63l3.206-8.014
			C71.042,54.783,72,50.482,72,47.228C72,46.117,71,45.006,70,45.006z"/>
		<path style="fill:#FBD7D7;" d="M54.973,36.363c-5.859,0.046-10.725,1.105-13.484,1.868C41.076,40.276,41,42.639,41,45.253
			c-0.263-0.14-0.579-0.241-1-0.241c-1,0-2,1.111-2,2.222c0,3.254,0.958,7.555,3.794,7.758L45,63.006l5.105,3.996
			c0.569,0.639,1.384,1.004,2.24,1.004H55V36.362c-0.009,0-0.018,0-0.027,0V36.363z"/>
		<g>
			<path style="fill:#3E3E3F;" d="M51.994,47.039c0-1.104-0.896-2-2-2c-0.002,0-0.004,0-0.006,0
				c0.001,0.021,0.006,0.041,0.006,0.062c0,1.103-0.892,1.996-1.994,2c0.033,1.075,0.91,1.938,1.994,1.938
				C51.098,49.039,51.994,48.144,51.994,47.039z"/>
		</g>
		<g>
			<path style="fill:#3E3E3F;" d="M61.987,47.039c0-1.104-0.896-2-2-2c-0.002,0-0.004,0-0.006,0
				c0.001,0.021,0.006,0.041,0.006,0.062c0,1.103-0.892,1.996-1.994,2c0.033,1.075,0.91,1.938,1.994,1.938
				C61.092,49.039,61.987,48.144,61.987,47.039z"/>
		</g>
		<g>
			<path style="fill:#F79392;" d="M50,57.006h10c0,0,0,3-5,3S50,57.006,50,57.006z"/>
		</g>
		<g>
			<polygon style="fill:#9C6144;" points="42,39.006 42,49.64 41,49.64 39,45.64 39,39.006 			"/>
		</g>
		<g>
			<polygon style="fill:#9C6144;" points="68,39.006 68,49.64 69,49.64 71,45.64 71,39.006 			"/>
		</g>
		<g>
			<g>
				<path style="fill:#FACB1B;" d="M40,41c0,0-1-15,15-15c0,8,0,15,0,15H40z"/>
			</g>
			<g>
				<path style="fill:#F3B607;" d="M70,41c0,0,1-15-15-15c0,8,0,15,0,15H70z"/>
			</g>
			<path style="fill:#FBE158;" d="M58,31v-6c0-1.104-0.896-2-2-2h-2c-1.104,0-2,0.896-2,2v6c0.067,1.766-1.921,7.722-7,8
				c4.853,0,6.506,0,7,0h0.189h5.621H58c0.494,0,2.146,0,7,0C59.921,38.722,57.933,32.766,58,31z"/>
			<g>
				<path style="fill:#F3B607;" d="M73,41.248c0,0.454-0.305,0.849-0.744,0.966C70.313,42.73,64.561,44,55,44
					s-15.313-1.27-17.256-1.786C37.306,42.098,37,41.701,37,41.248V41c0-1.105,0.895-2,2-2h32c1.105,0,2,0.895,2,2V41.248z"/>
			</g>
			<path style="fill:#FACB1B;" d="M39,39c-1.104,0-2,0.896-2,2v0.249c0,0.453,0.306,0.85,0.744,0.966C39.687,42.73,45.439,44,55,44
				v-5H39z"/>
		</g>
		<g>
			<polygon style="fill:#059BBF;" points="59,87 56.201,76.8 58,75.002 54.981,71.978 51.983,74.976 53.801,76.793 51,87 			"/>
		</g>
		<g>
			<polygon style="fill:#21B2D1;" points="55,87 55,71.997 54.981,71.978 51.983,74.976 53.801,76.793 51,87 			"/>
		</g>
		<g>
			<path style="fill:#3E3E3F;" d="M23,87l4-11c0.615-1.333,1.698-2.394,3.043-2.983L43,68l12,19H23z"/>
		</g>
		<g>
			<path style="fill:#3E3E3F;" d="M87,87l-4-11c-0.615-1.333-1.698-2.394-3.043-2.983L67,68L55,87H87z"/>
		</g>
		<g>
			<polygon style="fill:#FFFFFF;" points="66.965,68.059 67,68 65,67 55.015,71.981 60.808,77.807 			"/>
		</g>
		<g>
			<polygon style="fill:#FFFFFF;" points="43.035,68.059 43,68 45,67 54.985,71.981 49.192,77.807 			"/>
		</g>
		<g>
			<rect x="66" y="79.997" style="fill:#FFFFFF;" width="10" height="2"/>
		</g>
	</g>
</g>
</svg>
