<?xml version="1.0" encoding="iso-8859-1"?>
<!-- Generator: Adobe Illustrator 17.1.0, SVG Export Plug-In . SVG Version: 6.00 Build 0)  -->
<!DOCTYPE svg PUBLIC "-//W3C//DTD SVG 1.0//EN" "http://www.w3.org/TR/2001/REC-SVG-20010904/DTD/svg10.dtd">
<svg version="1.0" xmlns="http://www.w3.org/2000/svg" xmlns:xlink="http://www.w3.org/1999/xlink" x="0px" y="0px" width="110px"
	 height="110px" viewBox="0 0 110 110" style="enable-background:new 0 0 110 110;" xml:space="preserve">
<g id="Artboard">
</g>
<g id="Multicolor">
	<circle style="fill:#E04F5F;" cx="55" cy="55" r="55"/>
	<g>
		<g>
			<path style="fill:#FACB1B;" d="M83,55c0-15.464-12.536-28-28-28S27,39.536,27,55v13c18.667,5.333,37.333,5.333,56,0V55z"/>
		</g>
		<g>
			<path style="fill:#FBE158;" d="M27,55v13c9.333,2.667,18.667,4,28,4V27C39.536,27,27,39.536,27,55z"/>
		</g>
		<g>
			<path style="fill:#F3B607;" d="M85,63h-2v5c-6.681,1.909-13.362,3.122-20.042,3.665l-1.76-10.885C61.088,59.795,60.329,59,59,59
				V25.426c0-0.28-0.117-0.547-0.323-0.737c-2.451-2.253-4.902-2.253-7.354,0C51.117,24.879,51,25.146,51,25.426V59
				c-1.329,0-2.088,0.795-2.198,1.779l-1.76,10.885C40.362,71.122,33.681,69.909,27,68v-5h-2c-1.104,0-2,0.896-2,2v5.375
				c0,1.107,0.459,2.165,1.267,2.921C27.583,76.399,37.491,84,55,84s27.417-7.601,30.733-10.704C86.541,72.54,87,71.482,87,70.375
				V65C87,63.896,86.104,63,85,63z"/>
		</g>
		<g>
			<path style="fill:#F3B607;" d="M32.129,37.587c-0.1-0.178-0.144-0.383-0.124-0.587c0.255-2.61,4.406-6.453,6.87-6.445
				c0.429,0.002,0.809,0.277,0.945,0.684l7.039,21.117c0.88,2.373-2.593,3.839-3.728,1.646L32.129,37.587z"/>
		</g>
		<g>
			<path style="fill:#F3B607;" d="M77.871,37.587c0.1-0.178,0.144-0.383,0.124-0.587c-0.255-2.61-4.406-6.453-6.87-6.445
				c-0.429,0.002-0.809,0.277-0.945,0.684l-7.039,21.117c-0.88,2.373,2.593,3.839,3.728,1.646L77.871,37.587z"/>
		</g>
		<g>
			<path style="fill:#F3B607;" d="M51.323,24.69C51.117,24.879,51,25.146,51,25.426V59c-1.329,0-2.088,0.795-2.198,1.779
				l-1.76,10.885C40.362,71.122,33.681,69.909,27,68v-5h-2c-1.104,0-2,0.896-2,2v5.375c0,1.107,0.459,2.165,1.267,2.921
				C27.583,76.399,37.491,84,55,84V23C53.774,23,52.549,23.563,51.323,24.69z"/>
		</g>
	</g>
</g>
</svg>
