<?xml version="1.0" encoding="iso-8859-1"?>
<!-- Generator: Adobe Illustrator 17.1.0, SVG Export Plug-In . SVG Version: 6.00 Build 0)  -->
<!DOCTYPE svg PUBLIC "-//W3C//DTD SVG 1.0//EN" "http://www.w3.org/TR/2001/REC-SVG-20010904/DTD/svg10.dtd">
<svg version="1.0" xmlns="http://www.w3.org/2000/svg" xmlns:xlink="http://www.w3.org/1999/xlink" x="0px" y="0px" width="110px"
	 height="110px" viewBox="0 0 110 110" style="enable-background:new 0 0 110 110;" xml:space="preserve">
<g id="Artboard">
</g>
<g id="Multicolor">
	<g>
		<circle style="fill:#32BEA6;" cx="55" cy="55" r="55"/>
	</g>
	<g>
		<path style="fill:#BF8662;" d="M70,44.997c-0.348,0-0.694,0-1,0v-0.036c-0.001-0.688-0.01-1.37-0.028-2.043
			C65.981,43.443,61.331,44,55,44c-4.565,0-9.475-0.292-13.972-1.084c-0.018,0.674-0.026,1.356-0.028,2.045v8l4,10l5.105,3.995
			c0.569,0.639,1.384,1.005,2.24,1.005H55h2.655c0.856,0,1.671-0.366,2.24-1.005L65,62.961l3.193-7.982
			C71.039,54.788,72,50.478,72,47.219C72,46.108,71,44.997,70,44.997z"/>
		<path style="fill:#CC9978;" d="M41.028,42.916c-0.018,0.674-0.026,1.356-0.028,2.045v0.036c-0.306,0-0.652,0-1,0
			c-1,0-2,1.111-2,2.222c0,3.259,0.961,7.568,3.807,7.76L45,62.961l5.105,3.995c0.569,0.64,1.384,1.005,2.24,1.005H55V44
			C50.435,44,45.525,43.708,41.028,42.916z"/>
		<path style="fill:#AF7653;" d="M57.655,67.961H55h-2.655c-0.856,0-1.671-0.366-2.24-1.005L45,62.961v4.536C45,67.497,45,82,55,82
			s10-14.503,10-14.503v-4.536l-5.105,3.995C59.326,67.595,58.511,67.961,57.655,67.961z"/>
		<path style="fill:#BF8662;" d="M50.105,66.956L45,62.961v4.536C45,67.497,45,82,55,82V67.961h-2.655
			C51.489,67.961,50.674,67.595,50.105,66.956z"/>
		<g>
			<path style="fill:#21B2D1;" d="M23,87l4-11c0.615-1.333,1.698-2.394,3.043-2.983L43,68l4,19H23z"/>
		</g>
		<g>
			<path style="fill:#21B2D1;" d="M87,87l-4-11c-0.615-1.333-1.698-2.394-3.043-2.983L67,68l-4,19H87z"/>
		</g>
		<g>
			<polygon style="fill:#0484AB;" points="65,64 65,67 66,71 63,87 65,87 74,75 71,73 74,69 			"/>
		</g>
		<g>
			<rect x="29" y="81.997" style="fill:#0484AB;" width="10" height="2"/>
		</g>
		<g>
			<rect x="29" y="83.997" style="fill:#059BBF;" width="10" height="3"/>
		</g>
		<g>
			<rect x="70" y="81.997" style="fill:#0484AB;" width="10" height="2"/>
		</g>
		<g>
			<rect x="70" y="83.997" style="fill:#059BBF;" width="10" height="3"/>
		</g>
		<g>
			<g>
				<rect x="30" y="79" style="fill:#DF2C2C;" width="3" height="3"/>
			</g>
			<g>
				<path style="fill:#FA5655;" d="M33,79h-3v-0.5c0-0.825,0.675-1.5,1.5-1.5s1.5,0.675,1.5,1.5V79z"/>
			</g>
			<g>
				<rect x="34" y="80" style="fill:#F37A10;" width="3" height="2"/>
			</g>
			<g>
				<path style="fill:#F3B607;" d="M37,80h-3v-0.5c0-0.825,0.675-1.5,1.5-1.5s1.5,0.675,1.5,1.5V80z"/>
			</g>
		</g>
		<path style="fill:#FFFFFF;" d="M65,67c0,0-3,12-10,12S45,67,45,67l-1,4l3,16h16l3-16L65,67z"/>
		<g>
			<polygon style="fill:#0484AB;" points="45,64 45,67 44,71 47,87 45,87 36,75 39,73 36,69 			"/>
		</g>
		<g>
			<path style="fill:#3E3E3F;" d="M52,46.997c0-1.104-0.896-2-2-2c-0.002,0-0.004,0-0.006,0C49.995,45.019,50,45.039,50,45.06
				c0,1.103-0.892,1.996-1.994,2c0.033,1.075,0.91,1.938,1.994,1.938C51.104,48.997,52,48.102,52,46.997z"/>
		</g>
		<g>
			<path style="fill:#3E3E3F;" d="M61.994,46.997c0-1.104-0.896-2-2-2c-0.002,0-0.004,0-0.006,0
				c0.001,0.021,0.006,0.041,0.006,0.062c0,1.103-0.892,1.996-1.994,2c0.033,1.075,0.91,1.938,1.994,1.938
				C61.098,48.997,61.994,48.102,61.994,46.997z"/>
		</g>
		<g>
			<path style="fill:#3E3E3F;" d="M55,54c0,0-6,0-9,2c0,7,5,12,5,12l4,2l4-2c0,0,5-5,5-12C61,54,55,54,55,54z M57,62l-1-1h-1h-1
				l-1,1h-2l-1.183-1.971c-0.371-0.618-0.38-1.387-0.025-2.014S50.812,57,51.532,57H55h3.468c0.721,0,1.385,0.388,1.74,1.015
				s0.345,1.397-0.025,2.014L59,62H57z"/>
		</g>
		<g>
			<path style="fill:#3E3E3F;" d="M40,39c0,2.156,1,11.873,1,13c0,0,0,0,1,2c0,0,0,0,1,0c0-1.383-1-13,3-16L40,39z"/>
		</g>
		<g>
			<path style="fill:#3E3E3F;" d="M70,39c0,2.156-1,11.873-1,13c0,0,0,0-1,2c0,0,0,0-1,0c0-1.383,1-13-3-16L70,39z"/>
		</g>
		<g>
			<g>
				<path style="fill:#FACB1B;" d="M40,41c0,0-1-15,15-15c0,8,0,15,0,15H40z"/>
			</g>
			<g>
				<path style="fill:#F3B607;" d="M70,41c0,0,1-15-15-15c0,8,0,15,0,15H70z"/>
			</g>
			<path style="fill:#FBE158;" d="M58,31v-6c0-1.104-0.896-2-2-2h-2c-1.104,0-2,0.896-2,2v6c0.067,1.766-1.921,7.722-7,8
				c4.853,0,6.506,0,7,0h0.189h5.621H58c0.494,0,2.146,0,7,0C59.921,38.722,57.933,32.766,58,31z"/>
			<g>
				<path style="fill:#F3B607;" d="M73,41.248c0,0.454-0.305,0.849-0.744,0.966C70.313,42.73,64.561,44,55,44
					s-15.313-1.27-17.256-1.786C37.306,42.098,37,41.701,37,41.248V41c0-1.105,0.895-2,2-2h32c1.105,0,2,0.895,2,2V41.248z"/>
			</g>
			<path style="fill:#FACB1B;" d="M39,39c-1.104,0-2,0.896-2,2v0.249c0,0.453,0.306,0.85,0.744,0.966C39.687,42.73,45.439,44,55,44
				v-5H39z"/>
		</g>
	</g>
</g>
</svg>
