<?xml version="1.0" encoding="iso-8859-1"?>
<!-- Generator: Adobe Illustrator 17.1.0, SVG Export Plug-In . SVG Version: 6.00 Build 0)  -->
<!DOCTYPE svg PUBLIC "-//W3C//DTD SVG 1.0//EN" "http://www.w3.org/TR/2001/REC-SVG-20010904/DTD/svg10.dtd">
<svg version="1.0" xmlns="http://www.w3.org/2000/svg" xmlns:xlink="http://www.w3.org/1999/xlink" x="0px" y="0px" width="110px"
	 height="110px" viewBox="0 0 110 110" style="enable-background:new 0 0 110 110;" xml:space="preserve">
<g id="Artboard">
</g>
<g id="Multicolor">
	<g>
		<circle style="fill:#25B7D3;" cx="55" cy="55" r="55"/>
	</g>
	<g>
		<g>
			<path style="fill:#FFFFFF;" d="M55.002,86.997H87l-4-11c-0.615-1.333-1.698-2.394-3.043-2.982L67,67.997l-2-1
				c0,0-1,8.003-10,8.003s-10-8.003-10-8.003l-2,1l-12.957,5.018c-1.345,0.588-2.428,1.649-3.043,2.982l-4,11h31.998L55,87
				L55.002,86.997z"/>
		</g>
		<polygon style="fill:#0484AB;" points="75,80.997 75,71 70,69 70,77 40,77 40,69 35,71 35,80.997 33,87 77,87 		"/>
		<g>
			<rect x="43" y="81" style="fill:#21B2D1;" width="24" height="2.997"/>
		</g>
		<path style="fill:#BF8662;" d="M70,44.997c-1,0-1,1.111-1,1.111v-1.111c-0.004-2.081-0.063-3.998-0.309-5.721
			c-2.723-0.766-7.67-1.872-13.664-1.919c0,0,0-0.001,0-0.001c-0.009,0-0.018,0-0.027,0s-0.018,0-0.027,0c0,0,0,0.001,0,0.001
			c-5.993,0.047-10.94,1.153-13.664,1.919c-0.246,1.723-0.305,3.641-0.309,5.721v7.997l4,10l5.105,3.996
			c0.569,0.639,1.384,1.004,2.24,1.004H55h2.655c0.856,0,1.671-0.365,2.24-1.004L65,62.994l3.207-8.017
			C71.042,54.773,72,50.473,72,47.219C72,46.108,71,44.997,70,44.997z"/>
		<path style="fill:#CC9978;" d="M54.973,37.357c-5.993,0.047-10.94,1.153-13.664,1.919c-0.246,1.723-0.305,3.641-0.309,5.721v1.111
			c0,0,0-1.111-1-1.111s-2,1.111-2,2.222c0,3.253,0.958,7.554,3.793,7.758L45,62.994l5.105,3.996
			c0.569,0.639,1.384,1.004,2.24,1.004H55V37.356c-0.009,0-0.018,0-0.027,0C54.973,37.356,54.973,37.356,54.973,37.357z"/>
		<path style="fill:#AF7653;" d="M57.655,68H55h-2.655c-0.856,0-1.671-0.365-2.24-1.004L45,63v4.5c0,0,0,7.5,10,7.5s10-7.5,10-7.5
			V63l-5.105,3.996C59.326,67.635,58.511,68,57.655,68z"/>
		<path style="fill:#BF8662;" d="M50.105,66.996L45,63v4.5c0,0,0,7.5,10,7.5v-7h-2.655C51.489,68,50.674,67.635,50.105,66.996z"/>
		<g>
			<path style="fill:#84462D;" d="M50,56.994h10c0,0,0,3-5,3S50,56.994,50,56.994z"/>
		</g>
		<g>
			<path style="fill:#3E3E3F;" d="M51.994,47.033c0-1.104-0.896-2-2-2c-0.002,0-0.004,0-0.006,0
				c0.001,0.021,0.006,0.041,0.006,0.062c0,1.103-0.892,1.996-1.994,2c0.033,1.075,0.91,1.938,1.994,1.938
				C51.098,49.033,51.994,48.138,51.994,47.033z"/>
		</g>
		<g>
			<path style="fill:#3E3E3F;" d="M61.987,47.033c0-1.104-0.896-2-2-2c-0.002,0-0.004,0-0.006,0
				c0.001,0.021,0.006,0.041,0.006,0.062c0,1.103-0.892,1.996-1.994,2c0.033,1.075,0.91,1.938,1.994,1.938
				C61.092,49.033,61.987,48.138,61.987,47.033z"/>
		</g>
		<g>
			<path style="fill:#84462D;" d="M40,42c0,2.156,1,11.873,1,13c0,0,0,0,1,2c0,0,0,0,1,0c0-1.383-1-13,3-16L40,42z"/>
		</g>
		<g>
			<path style="fill:#84462D;" d="M70,42c0,2.156-1,11.873-1,13c0,0,0,0-1,2c0,0,0,0-1,0c0-1.383,1-13-3-16L70,42z"/>
		</g>
		<g>
			<g>
				<path style="fill:#FACB1B;" d="M40,41c0,0-1-15,15-15c0,8,0,15,0,15H40z"/>
			</g>
			<g>
				<path style="fill:#F3B607;" d="M70,41c0,0,1-15-15-15c0,8,0,15,0,15H70z"/>
			</g>
			<path style="fill:#FBE158;" d="M58,31v-6c0-1.104-0.896-2-2-2h-2c-1.104,0-2,0.896-2,2v6c0.067,1.766-1.921,7.722-7,8
				c4.853,0,6.506,0,7,0h0.189h5.621H58c0.494,0,2.146,0,7,0C59.921,38.722,57.933,32.766,58,31z"/>
			<g>
				<path style="fill:#F3B607;" d="M73,41.248c0,0.454-0.305,0.849-0.744,0.966C70.313,42.73,64.561,44,55,44
					s-15.313-1.27-17.256-1.786C37.306,42.098,37,41.701,37,41.248V41c0-1.105,0.895-2,2-2h32c1.105,0,2,0.895,2,2V41.248z"/>
			</g>
			<path style="fill:#FACB1B;" d="M39,39c-1.104,0-2,0.896-2,2v0.249c0,0.453,0.306,0.85,0.744,0.966C39.687,42.73,45.439,44,55,44
				v-5H39z"/>
		</g>
	</g>
</g>
</svg>
