<?xml version="1.0" encoding="iso-8859-1"?>
<!-- Generator: Adobe Illustrator 17.1.0, SVG Export Plug-In . SVG Version: 6.00 Build 0)  -->
<!DOCTYPE svg PUBLIC "-//W3C//DTD SVG 1.0//EN" "http://www.w3.org/TR/2001/REC-SVG-20010904/DTD/svg10.dtd">
<svg version="1.0" xmlns="http://www.w3.org/2000/svg" xmlns:xlink="http://www.w3.org/1999/xlink" x="0px" y="0px" width="110px"
	 height="110px" viewBox="0 0 110 110" style="enable-background:new 0 0 110 110;" xml:space="preserve">
<g id="Artboard">
</g>
<g id="Multicolor">
	<circle style="fill:#32BEA6;" cx="55" cy="55" r="55"/>
	<g>
		<g>
			<rect x="23" y="39" style="fill:#FFFFFF;" width="64" height="48"/>
		</g>
		<g>
			<path style="fill:#21B2D1;" d="M74,48v2h3v13h-6v2h6v9.915C76.879,75.532,75.562,81,67,81c-8.587,0-9.875-5.425-10-6.084V65h6v-2
				h-8v10H41v4h-8V63h6v-2h-6V49h12v14h2V52h12v-2H47v-3H31v32h12v-4h12c0.146,2.118,2.863,8,12,8c10.743,0,11.979-7.78,11.99-7.858
				L79,48H74z"/>
		</g>
		<g>
			<path style="fill:#F4D0A1;" d="M70.607,47.002l14.834-14.834c0.131-0.131,0.249-0.266,0.364-0.405
				c1.708-2.088,1.585-5.179-0.364-7.128c-2.136-2.136-5.209-2.071-7.204-0.44c-0.139,0.114-0.275,0.233-0.405,0.364L62.998,39.393
				l-1.67,5.965c1.602,0.441,2.873,1.709,3.314,3.314L70.607,47.002z"/>
		</g>
		<g>
			<path style="fill:#F79392;" d="M85.804,31.763l-7.567-7.567c1.992-1.629,5.064-1.7,7.204,0.44
				C87.39,26.584,87.512,29.674,85.804,31.763z"/>
		</g>
		<g>
			<path style="fill:#3E3E3F;" d="M64.642,48.672l-3.818,1.069c-0.344,0.096-0.662-0.221-0.565-0.565l1.069-3.818
				c0.769,0.211,1.488,0.617,2.093,1.222C64.025,47.184,64.43,47.903,64.642,48.672z"/>
		</g>
		<g>
			<path style="fill:#DF2C2C;" d="M70.661,46.934c1.168-1.146,13.711-13.697,13.711-13.697l-3.805-3.805l-3.805-3.805l-0.005,0.005
				v0c0,0-11.88,11.872-13.566,13.578c-0.022,0.022,0.008,0.055,0.035,0.039c0.979-0.605,2.334-0.436,3.245,0.475
				c0.966,0.966,1.097,2.425,0.358,3.413c-0.008,0.011,0.004,0.02,0.014,0.016c0.008,0.011,0.022,0.016,0.037,0.005
				c1.055-0.794,2.555-0.711,3.516,0.25c0.958,0.958,1.044,2.461,0.254,3.515c-0.003,0.003-0.002,0.008,0.001,0.011
				C70.654,46.937,70.658,46.937,70.661,46.934z"/>
		</g>
		<g>
			
				<rect x="80.279" y="23.32" transform="matrix(0.7071 -0.7071 0.7071 0.7071 3.5175 65.8935)" style="fill:#FACB1B;" width="2.041" height="10.761"/>
		</g>
		<g>
			<path style="fill:#FA5655;" d="M76.758,25.633c0,0-11.88,11.872-13.566,13.578c-0.022,0.022,0.009,0.055,0.035,0.039
				c0.979-0.605,2.334-0.435,3.244,0.475c0.966,0.966,1.097,2.425,0.358,3.413c-0.009,0.012,0.007,0.026,0.018,0.016l13.721-13.721
				L76.758,25.633z"/>
		</g>
	</g>
</g>
</svg>
