<?xml version="1.0" encoding="iso-8859-1"?>
<!-- Generator: Adobe Illustrator 17.1.0, SVG Export Plug-In . SVG Version: 6.00 Build 0)  -->
<!DOCTYPE svg PUBLIC "-//W3C//DTD SVG 1.0//EN" "http://www.w3.org/TR/2001/REC-SVG-20010904/DTD/svg10.dtd">
<svg version="1.0" xmlns="http://www.w3.org/2000/svg" xmlns:xlink="http://www.w3.org/1999/xlink" x="0px" y="0px" width="110px"
	 height="110px" viewBox="0 0 110 110" style="enable-background:new 0 0 110 110;" xml:space="preserve">
<g id="Artboard">
</g>
<g id="Multicolor">
	<circle style="fill:#FABC3D;" cx="55" cy="55" r="55"/>
	<g>
		<path style="fill:#F0F1F1;" d="M57,31.12V27l6-4H47l6,4v5.87c0,1.1,0.9,2,2,2c3.58,0,4.72,2.41,3.74,4.08
			c-0.647,1.108-1.972,1.56-3.28,1.56c-0.34,0-0.66-0.03-0.95-0.08c-1.16-0.21-1.94-0.79-2.5-1.51c-1.29-1.67-1.36-4.05-2.01-4.05
			c-0.91,0-1.28,2.55-0.38,4.95c0.23,0.609,0.54,1.21,0.94,1.76c1.03,1.38,2.65,2.42,5.06,2.42c2.51,0,4.25-0.77,5.36-1.93
			c0.48-0.5,0.84-1.061,1.08-1.68C63.64,36.58,61.1,31.12,57,31.12z"/>
		<g>
			<path style="fill:#DF2C2C;" d="M85,51H25c-1.104,0-2,0.896-2,2v32c0,1.104,0.896,2,2,2h18v-2h8v2h8v-2h8v2h18
				c1.105,0,2-0.896,2-2V53C87,51.896,86.105,51,85,51z"/>
		</g>
		<g>
			<path style="fill:#DF2C2C;" d="M85,51H25c-1.104,0-2,0.896-2,2v32c0,1.104,0.896,2,2,2h18v-2h8v2h8v-2h8v2h18
				c1.105,0,2-0.896,2-2V53C87,51.896,86.105,51,85,51z"/>
		</g>
		<path style="fill:#3E3E3F;" d="M55.42,38.38c-5.848,0-12.825,5.424-17.622,9.788c0.647,0.282,1.107,0.898,1.182,1.628
			c4.408-4.01,11.188-9.416,16.44-9.416c0.3,0,0.6,0.02,0.91,0.06c1.18-0.19,1.99-0.77,2.41-1.49
			C57.61,38.59,56.49,38.38,55.42,38.38z"/>
		<path style="fill:#CFD3D4;" d="M39,87h-4V50c0-1.105,0.895-2,2-2s2,0.895,2,2V87z"/>
		<path style="fill:#3E3E3F;" d="M72.217,48.16c-2.366-2.289-6.182-5.647-10.156-7.77c-0.24,0.62-0.6,1.18-1.08,1.68
			c3.877,2.041,7.742,5.498,10.04,7.737C71.092,49.065,71.559,48.44,72.217,48.16z"/>
		<path style="fill:#CFD3D4;" d="M75,87h-4V50c0-1.105,0.895-2,2-2s2,0.895,2,2V87z"/>
		<rect x="43" y="56" style="fill:#FA5655;" width="8" height="25"/>
		<rect x="23" y="56" style="fill:#FA5655;" width="8" height="25"/>
		<rect x="79" y="56" style="fill:#FA5655;" width="8" height="25"/>
		<rect x="59" y="56" style="fill:#FA5655;" width="8" height="25"/>
		<path style="fill:#FFFFFF;" d="M71,50v19h4V50c0-1.104-0.895-2-2-2C71.896,48,71,48.896,71,50z"/>
		<path style="fill:#FFFFFF;" d="M35,50v19h4V50c0-1.104-0.895-2-2-2C35.896,48,35,48.896,35,50z"/>
	</g>
</g>
</svg>
