<?xml version="1.0" encoding="iso-8859-1"?>
<!-- Generator: Adobe Illustrator 17.1.0, SVG Export Plug-In . SVG Version: 6.00 Build 0)  -->
<!DOCTYPE svg PUBLIC "-//W3C//DTD SVG 1.0//EN" "http://www.w3.org/TR/2001/REC-SVG-20010904/DTD/svg10.dtd">
<svg version="1.0" xmlns="http://www.w3.org/2000/svg" xmlns:xlink="http://www.w3.org/1999/xlink" x="0px" y="0px" width="110px"
	 height="110px" viewBox="0 0 110 110" style="enable-background:new 0 0 110 110;" xml:space="preserve">
<g id="Artboard">
</g>
<g id="Multicolor">
	<circle style="fill:#25B7D3;" cx="55" cy="55" r="55"/>
	<g>
		<path style="fill:#FFFFFF;" d="M37,47v-7c0-0.552-0.448-1-1-1s-1,0.448-1,1v7h-2V36c0-0.552-0.448-1-1-1s-1,0.448-1,1v11l-4,8v8
			h16V47H37z"/>
		<rect x="45" y="57" style="fill:#4AC3AF;" width="10" height="6"/>
		<rect x="55" y="57" style="fill:#FBEC9A;" width="10" height="6"/>
		<rect x="65" y="57" style="fill:#F3B607;" width="10" height="6"/>
		<rect x="45" y="51" style="fill:#FBE158;" width="10" height="6"/>
		<rect x="55" y="51" style="fill:#F37A10;" width="10" height="6"/>
		<rect x="65" y="51" style="fill:#FBE158;" width="10" height="6"/>
		<rect x="45" y="45" style="fill:#F37A10;" width="10" height="6"/>
		<rect x="55" y="45" style="fill:#4AC3AF;" width="10" height="6"/>
		<rect x="65" y="45" style="fill:#059BBF;" width="10" height="6"/>
		<rect x="45" y="39" style="fill:#FBEC9A;" width="10" height="6"/>
		<rect x="55" y="39" style="fill:#059BBF;" width="10" height="6"/>
		<rect x="45" y="33" style="fill:#F3B607;" width="10" height="6"/>
		<path style="fill:#3E3E3F;" d="M87,59c-1.4,6.27-3.57,11.84-7.28,16c-1.35,1.53-2.91,2.88-4.72,4H35c-2-1.11-3.75-2.45-5.25-4
			c-3.15-3.21-5.29-7.3-6.75-12h48l4-4H87z"/>
		<path style="fill:#DF2C2C;" d="M79.72,75c-1.35,1.53-2.91,2.88-4.72,4H35c-2-1.11-3.75-2.45-5.25-4H79.72z"/>
		<path style="fill:#5B5C5F;" d="M29.75,75c1.5,1.55,3.25,2.89,5.25,4h15.413l16-16H23C24.46,67.7,26.6,71.79,29.75,75z"/>
		<rect x="35" y="50" style="fill:#6FDAF1;" width="8" height="6"/>
		<path style="fill:#FA5655;" d="M29.75,75c1.5,1.55,3.25,2.89,5.25,4h15.413l4-4H29.75z"/>
	</g>
</g>
</svg>
