<?xml version="1.0" encoding="iso-8859-1"?>
<!-- Generator: Adobe Illustrator 17.1.0, SVG Export Plug-In . SVG Version: 6.00 Build 0)  -->
<!DOCTYPE svg PUBLIC "-//W3C//DTD SVG 1.0//EN" "http://www.w3.org/TR/2001/REC-SVG-20010904/DTD/svg10.dtd">
<svg version="1.0" xmlns="http://www.w3.org/2000/svg" xmlns:xlink="http://www.w3.org/1999/xlink" x="0px" y="0px" width="110px"
	 height="110px" viewBox="0 0 110 110" style="enable-background:new 0 0 110 110;" xml:space="preserve">
<g id="Artboard" style="display:none;">
	
		<rect x="-968.5" y="-162.5" style="display:inline;fill:#808080;stroke:#000000;stroke-miterlimit:10;" width="1392" height="1369"/>
</g>
<g id="R-Multicolor">
	<circle style="fill:#25B7D3;" cx="55" cy="55" r="55"/>
	<g>
		<g>
			<circle style="fill:#EDBC7C;" cx="67" cy="43" r="20"/>
		</g>
		<g>
			<path style="fill:#F4D0A1;" d="M80.515,28.288C76.954,25.015,72.218,23,67,23c-11.046,0-20,8.954-20,20
				c0,5.218,2.015,9.954,5.288,13.515L80.515,28.288z"/>
		</g>
		<g>
			<path style="fill:#84462D;" d="M63,67c0,11.05-8.95,20-20,20s-20-8.95-20-20s8.95-20,20-20c2.13,0,4.18,0.33,6.1,0.95
				C49.03,48.29,49,48.64,49,49c0,2.9,2.25,5.28,5.1,5.48c-0.07,0.33-0.1,0.67-0.1,1.02c0,2.88,2.21,5.24,5.03,5.47
				C59.01,61.14,59,61.32,59,61.5c0,2.31,1.73,4.21,3.97,4.47C62.99,66.31,63,66.66,63,67z"/>
		</g>
		<g>
			<path style="fill:#9C6144;" d="M49,49c0-0.36,0.03-0.71,0.1-1.05C47.18,47.33,45.13,47,43,47c-11.05,0-20,8.95-20,20
				c0,3.354,0.835,6.509,2.292,9.285L49.78,51.797C49.292,50.976,49,50.024,49,49z"/>
		</g>
		<g>
			<circle style="fill:#D4A263;" cx="61" cy="34" r="2"/>
		</g>
		<g>
			<circle style="fill:#F4D0A1;" cx="45" cy="66" r="2"/>
		</g>
		<g>
			<circle style="fill:#D4A263;" cx="49" cy="78" r="2"/>
		</g>
		<g>
			<circle style="fill:#F4D0A1;" cx="29" cy="69" r="2"/>
		</g>
		<g>
			<circle style="fill:#D4A263;" cx="73" cy="30" r="2"/>
		</g>
		<g>
			<circle style="fill:#9C6144;" cx="77" cy="53" r="2"/>
		</g>
		<g>
			<circle style="fill:#9C6144;" cx="75" cy="40" r="4"/>
		</g>
		<g>
			<circle style="fill:#9C6144;" cx="59" cy="44" r="4"/>
		</g>
		<g>
			<circle style="fill:#D4A263;" cx="35" cy="60" r="4"/>
		</g>
		<g>
			<circle style="fill:#F4D0A1;" cx="35" cy="76" r="4"/>
		</g>
		<g>
			<circle style="fill:#D4A263;" cx="56" cy="70" r="4"/>
		</g>
		<g>
			<circle style="fill:#D4A263;" cx="67" cy="56" r="3"/>
		</g>
	</g>
</g>
<g id="Multicolor" style="display:none;">
	<g style="display:inline;">
		<g>
			<circle style="fill:#EDBC7C;" cx="67" cy="43" r="20"/>
		</g>
		<g>
			<path style="fill:#F4D0A1;" d="M80.515,28.288C76.954,25.015,72.218,23,67,23c-11.046,0-20,8.954-20,20
				c0,5.218,2.015,9.954,5.288,13.515L80.515,28.288z"/>
		</g>
		<g>
			<path style="fill:#84462D;" d="M63,67c0,11.05-8.95,20-20,20s-20-8.95-20-20s8.95-20,20-20c2.13,0,4.18,0.33,6.1,0.95
				C49.03,48.29,49,48.64,49,49c0,2.9,2.25,5.28,5.1,5.48c-0.07,0.33-0.1,0.67-0.1,1.02c0,2.88,2.21,5.24,5.03,5.47
				C59.01,61.14,59,61.32,59,61.5c0,2.31,1.73,4.21,3.97,4.47C62.99,66.31,63,66.66,63,67z"/>
		</g>
		<g>
			<path style="fill:#9C6144;" d="M49,49c0-0.36,0.03-0.71,0.1-1.05C47.18,47.33,45.13,47,43,47c-11.05,0-20,8.95-20,20
				c0,3.354,0.835,6.509,2.292,9.285L49.78,51.797C49.292,50.976,49,50.024,49,49z"/>
		</g>
		<g>
			<circle style="fill:#D4A263;" cx="61" cy="34" r="2"/>
		</g>
		<g>
			<circle style="fill:#F4D0A1;" cx="45" cy="66" r="2"/>
		</g>
		<g>
			<circle style="fill:#D4A263;" cx="49" cy="78" r="2"/>
		</g>
		<g>
			<circle style="fill:#F4D0A1;" cx="29" cy="69" r="2"/>
		</g>
		<g>
			<circle style="fill:#D4A263;" cx="73" cy="30" r="2"/>
		</g>
		<g>
			<circle style="fill:#9C6144;" cx="77" cy="53" r="2"/>
		</g>
		<g>
			<circle style="fill:#9C6144;" cx="75" cy="40" r="4"/>
		</g>
		<g>
			<circle style="fill:#9C6144;" cx="59" cy="44" r="4"/>
		</g>
		<g>
			<circle style="fill:#D4A263;" cx="35" cy="60" r="4"/>
		</g>
		<g>
			<circle style="fill:#F4D0A1;" cx="35" cy="76" r="4"/>
		</g>
		<g>
			<circle style="fill:#D4A263;" cx="56" cy="70" r="4"/>
		</g>
		<g>
			<circle style="fill:#D4A263;" cx="67" cy="56" r="3"/>
		</g>
	</g>
</g>
<g id="Blue" style="display:none;">
	<g style="display:inline;">
		<g>
			<circle style="fill:#BBE7F2;" cx="67" cy="43" r="20"/>
		</g>
		<g>
			<path style="fill:#E1F5FA;" d="M80.515,28.288C76.954,25.015,72.218,23,67,23c-11.046,0-20,8.954-20,20
				c0,5.218,2.015,9.954,5.288,13.515L80.515,28.288z"/>
		</g>
		<g>
			<path style="fill:#0C333D;" d="M63,67c0,11.05-8.95,20-20,20s-20-8.95-20-20c0-11.05,8.95-20,20-20c2.13,0,4.18,0.33,6.1,0.95
				C49.03,48.29,49,48.64,49,49c0,2.9,2.25,5.28,5.1,5.48C54.03,54.81,54,55.15,54,55.5c0,2.88,2.21,5.24,5.03,5.47
				C59.01,61.14,59,61.32,59,61.5c0,2.31,1.73,4.21,3.97,4.47C62.99,66.31,63,66.66,63,67z"/>
		</g>
		<g>
			<path style="fill:#0F6175;" d="M49,49c0-0.36,0.03-0.71,0.1-1.05C47.18,47.33,45.13,47,43,47c-11.05,0-20,8.95-20,20
				c0,3.354,0.835,6.509,2.293,9.285L49.78,51.797C49.292,50.976,49,50.024,49,49z"/>
		</g>
		<g>
			<circle style="fill:#81D2EB;" cx="61" cy="34" r="2"/>
		</g>
		<g>
			<circle style="fill:#33899E;" cx="45" cy="66" r="2"/>
		</g>
		<g>
			<circle style="fill:#81D2EB;" cx="49" cy="78" r="2"/>
		</g>
		<g>
			<circle style="fill:#33899E;" cx="29" cy="69" r="2"/>
		</g>
		<g>
			<circle style="fill:#81D2EB;" cx="73" cy="30" r="2"/>
		</g>
		<g>
			<circle style="fill:#53BAD4;" cx="77" cy="53" r="2"/>
		</g>
		<g>
			<circle style="fill:#81D2EB;" cx="75" cy="40" r="4"/>
		</g>
		<g>
			<circle style="fill:#53BAD4;" cx="59" cy="44" r="4"/>
		</g>
		<g>
			<circle style="fill:#81D2EB;" cx="35" cy="60" r="4"/>
		</g>
		<g>
			<circle style="fill:#33899E;" cx="35" cy="76" r="4"/>
		</g>
		<g>
			<circle style="fill:#33899E;" cx="56" cy="70" r="4"/>
		</g>
		<g>
			<circle style="fill:#81D2EB;" cx="67" cy="56" r="3"/>
		</g>
	</g>
</g>
<g id="R-Blue" style="display:none;">
	<circle style="display:inline;fill:#81D2EB;" cx="55" cy="55" r="55"/>
	<g style="display:inline;">
		<g>
			<circle style="fill:#BBE7F2;" cx="67" cy="43" r="20"/>
		</g>
		<g>
			<path style="fill:#E1F5FA;" d="M80.515,28.288C76.954,25.015,72.218,23,67,23c-11.046,0-20,8.954-20,20
				c0,5.218,2.015,9.954,5.288,13.515L80.515,28.288z"/>
		</g>
		<g>
			<path style="fill:#0C333D;" d="M63,67c0,11.05-8.95,20-20,20s-20-8.95-20-20c0-11.05,8.95-20,20-20c2.13,0,4.18,0.33,6.1,0.95
				C49.03,48.29,49,48.64,49,49c0,2.9,2.25,5.28,5.1,5.48C54.03,54.81,54,55.15,54,55.5c0,2.88,2.21,5.24,5.03,5.47
				C59.01,61.14,59,61.32,59,61.5c0,2.31,1.73,4.21,3.97,4.47C62.99,66.31,63,66.66,63,67z"/>
		</g>
		<g>
			<path style="fill:#0F6175;" d="M49,49c0-0.36,0.03-0.71,0.1-1.05C47.18,47.33,45.13,47,43,47c-11.05,0-20,8.95-20,20
				c0,3.354,0.835,6.509,2.293,9.285L49.78,51.797C49.292,50.976,49,50.024,49,49z"/>
		</g>
		<g>
			<circle style="fill:#81D2EB;" cx="61" cy="34" r="2"/>
		</g>
		<g>
			<circle style="fill:#33899E;" cx="45" cy="66" r="2"/>
		</g>
		<g>
			<circle style="fill:#81D2EB;" cx="49" cy="78" r="2"/>
		</g>
		<g>
			<circle style="fill:#33899E;" cx="29" cy="69" r="2"/>
		</g>
		<g>
			<circle style="fill:#81D2EB;" cx="73" cy="30" r="2"/>
		</g>
		<g>
			<circle style="fill:#53BAD4;" cx="77" cy="53" r="2"/>
		</g>
		<g>
			<circle style="fill:#81D2EB;" cx="75" cy="40" r="4"/>
		</g>
		<g>
			<circle style="fill:#53BAD4;" cx="59" cy="44" r="4"/>
		</g>
		<g>
			<circle style="fill:#81D2EB;" cx="35" cy="60" r="4"/>
		</g>
		<g>
			<circle style="fill:#33899E;" cx="35" cy="76" r="4"/>
		</g>
		<g>
			<circle style="fill:#33899E;" cx="56" cy="70" r="4"/>
		</g>
		<g>
			<circle style="fill:#81D2EB;" cx="67" cy="56" r="3"/>
		</g>
	</g>
</g>
<g id="Green" style="display:none;">
	<g style="display:inline;">
		<g>
			<circle style="fill:#AAF0E9;" cx="67" cy="43" r="20"/>
		</g>
		<g>
			<path style="fill:#D7FCF9;" d="M80.515,28.288C76.954,25.015,72.218,23,67,23c-11.046,0-20,8.954-20,20
				c0,5.218,2.015,9.954,5.288,13.515L80.515,28.288z"/>
		</g>
		<g>
			<path style="fill:#0A3631;" d="M63,67c0,11.05-8.95,20-20,20s-20-8.95-20-20c0-11.05,8.95-20,20-20c2.13,0,4.18,0.33,6.1,0.95
				C49.03,48.29,49,48.64,49,49c0,2.9,2.25,5.28,5.1,5.48C54.03,54.81,54,55.15,54,55.5c0,2.88,2.21,5.24,5.03,5.47
				C59.01,61.14,59,61.32,59,61.5c0,2.31,1.73,4.21,3.97,4.47C62.99,66.31,63,66.66,63,67z"/>
		</g>
		<g>
			<path style="fill:#14635B;" d="M49,49c0-0.36,0.03-0.71,0.1-1.05C47.18,47.33,45.13,47,43,47c-11.05,0-20,8.95-20,20
				c0,3.354,0.835,6.509,2.293,9.285L49.78,51.797C49.292,50.976,49,50.024,49,49z"/>
		</g>
		<g>
			<circle style="fill:#77E0C4;" cx="61" cy="34" r="2"/>
		</g>
		<g>
			<circle style="fill:#3E948B;" cx="45" cy="66" r="2"/>
		</g>
		<g>
			<circle style="fill:#77E0C4;" cx="49" cy="78" r="2"/>
		</g>
		<g>
			<circle style="fill:#3E948B;" cx="29" cy="69" r="2"/>
		</g>
		<g>
			<circle style="fill:#77E0C4;" cx="73" cy="30" r="2"/>
		</g>
		<g>
			<circle style="fill:#55C9BE;" cx="77" cy="53" r="2"/>
		</g>
		<g>
			<circle style="fill:#77E0C4;" cx="75" cy="40" r="4"/>
		</g>
		<g>
			<circle style="fill:#55C9BE;" cx="59" cy="44" r="4"/>
		</g>
		<g>
			<circle style="fill:#77E0C4;" cx="35" cy="60" r="4"/>
		</g>
		<g>
			<circle style="fill:#3E948B;" cx="35" cy="76" r="4"/>
		</g>
		<g>
			<circle style="fill:#3E948B;" cx="56" cy="70" r="4"/>
		</g>
		<g>
			<circle style="fill:#77E0C4;" cx="67" cy="56" r="3"/>
		</g>
	</g>
</g>
<g id="R-Green" style="display:none;">
	<circle style="display:inline;fill:#77E0C4;" cx="55" cy="55" r="55"/>
	<g style="display:inline;">
		<g>
			<circle style="fill:#AAF0E9;" cx="67" cy="43" r="20"/>
		</g>
		<g>
			<path style="fill:#D7FCF9;" d="M80.515,28.288C76.954,25.015,72.218,23,67,23c-11.046,0-20,8.954-20,20
				c0,5.218,2.015,9.954,5.288,13.515L80.515,28.288z"/>
		</g>
		<g>
			<path style="fill:#0A3631;" d="M63,67c0,11.05-8.95,20-20,20s-20-8.95-20-20c0-11.05,8.95-20,20-20c2.13,0,4.18,0.33,6.1,0.95
				C49.03,48.29,49,48.64,49,49c0,2.9,2.25,5.28,5.1,5.48C54.03,54.81,54,55.15,54,55.5c0,2.88,2.21,5.24,5.03,5.47
				C59.01,61.14,59,61.32,59,61.5c0,2.31,1.73,4.21,3.97,4.47C62.99,66.31,63,66.66,63,67z"/>
		</g>
		<g>
			<path style="fill:#14635B;" d="M49,49c0-0.36,0.03-0.71,0.1-1.05C47.18,47.33,45.13,47,43,47c-11.05,0-20,8.95-20,20
				c0,3.354,0.835,6.509,2.293,9.285L49.78,51.797C49.292,50.976,49,50.024,49,49z"/>
		</g>
		<g>
			<circle style="fill:#77E0C4;" cx="61" cy="34" r="2"/>
		</g>
		<g>
			<circle style="fill:#3E948B;" cx="45" cy="66" r="2"/>
		</g>
		<g>
			<circle style="fill:#77E0C4;" cx="49" cy="78" r="2"/>
		</g>
		<g>
			<circle style="fill:#3E948B;" cx="29" cy="69" r="2"/>
		</g>
		<g>
			<circle style="fill:#77E0C4;" cx="73" cy="30" r="2"/>
		</g>
		<g>
			<circle style="fill:#55C9BE;" cx="77" cy="53" r="2"/>
		</g>
		<g>
			<circle style="fill:#77E0C4;" cx="75" cy="40" r="4"/>
		</g>
		<g>
			<circle style="fill:#55C9BE;" cx="59" cy="44" r="4"/>
		</g>
		<g>
			<circle style="fill:#77E0C4;" cx="35" cy="60" r="4"/>
		</g>
		<g>
			<circle style="fill:#3E948B;" cx="35" cy="76" r="4"/>
		</g>
		<g>
			<circle style="fill:#3E948B;" cx="56" cy="70" r="4"/>
		</g>
		<g>
			<circle style="fill:#77E0C4;" cx="67" cy="56" r="3"/>
		</g>
	</g>
</g>
<g id="Red" style="display:none;">
	<g style="display:inline;">
		<g>
			<circle style="fill:#FFD7D4;" cx="67" cy="43" r="20"/>
		</g>
		<g>
			<path style="fill:#FFEFED;" d="M80.515,28.288C76.954,25.015,72.218,23,67,23c-11.046,0-20,8.954-20,20
				c0,5.218,2.015,9.954,5.288,13.515L80.515,28.288z"/>
		</g>
		<g>
			<path style="fill:#4A1410;" d="M63,67c0,11.05-8.95,20-20,20s-20-8.95-20-20c0-11.05,8.95-20,20-20c2.13,0,4.18,0.33,6.1,0.95
				C49.03,48.29,49,48.64,49,49c0,2.9,2.25,5.28,5.1,5.48C54.03,54.81,54,55.15,54,55.5c0,2.88,2.21,5.24,5.03,5.47
				C59.01,61.14,59,61.32,59,61.5c0,2.31,1.73,4.21,3.97,4.47C62.99,66.31,63,66.66,63,67z"/>
		</g>
		<g>
			<path style="fill:#7D261E;" d="M49,49c0-0.36,0.03-0.71,0.1-1.05C47.18,47.33,45.13,47,43,47c-11.05,0-20,8.95-20,20
				c0,3.354,0.835,6.509,2.293,9.285L49.78,51.797C49.292,50.976,49,50.024,49,49z"/>
		</g>
		<g>
			<circle style="fill:#FABBAF;" cx="61" cy="34" r="2"/>
		</g>
		<g>
			<circle style="fill:#B84E44;" cx="45" cy="66" r="2"/>
		</g>
		<g>
			<circle style="fill:#FABBAF;" cx="49" cy="78" r="2"/>
		</g>
		<g>
			<circle style="fill:#B84E44;" cx="29" cy="69" r="2"/>
		</g>
		<g>
			<circle style="fill:#FABBAF;" cx="73" cy="30" r="2"/>
		</g>
		<g>
			<circle style="fill:#E8A099;" cx="77" cy="53" r="2"/>
		</g>
		<g>
			<circle style="fill:#FABBAF;" cx="75" cy="40" r="4"/>
		</g>
		<g>
			<circle style="fill:#E8A099;" cx="59" cy="44" r="4"/>
		</g>
		<g>
			<circle style="fill:#FABBAF;" cx="35" cy="60" r="4"/>
		</g>
		<g>
			<circle style="fill:#B84E44;" cx="35" cy="76" r="4"/>
		</g>
		<g>
			<circle style="fill:#B84E44;" cx="56" cy="70" r="4"/>
		</g>
		<g>
			<circle style="fill:#FABBAF;" cx="67" cy="56" r="3"/>
		</g>
	</g>
</g>
<g id="R-Red" style="display:none;">
	<circle style="display:inline;fill:#FABBAF;" cx="55" cy="55" r="55"/>
	<g style="display:inline;">
		<g>
			<circle style="fill:#FFD7D4;" cx="67" cy="43" r="20"/>
		</g>
		<g>
			<path style="fill:#FFEFED;" d="M80.515,28.288C76.954,25.015,72.218,23,67,23c-11.046,0-20,8.954-20,20
				c0,5.218,2.015,9.954,5.288,13.515L80.515,28.288z"/>
		</g>
		<g>
			<path style="fill:#4A1410;" d="M63,67c0,11.05-8.95,20-20,20s-20-8.95-20-20c0-11.05,8.95-20,20-20c2.13,0,4.18,0.33,6.1,0.95
				C49.03,48.29,49,48.64,49,49c0,2.9,2.25,5.28,5.1,5.48C54.03,54.81,54,55.15,54,55.5c0,2.88,2.21,5.24,5.03,5.47
				C59.01,61.14,59,61.32,59,61.5c0,2.31,1.73,4.21,3.97,4.47C62.99,66.31,63,66.66,63,67z"/>
		</g>
		<g>
			<path style="fill:#7D261E;" d="M49,49c0-0.36,0.03-0.71,0.1-1.05C47.18,47.33,45.13,47,43,47c-11.05,0-20,8.95-20,20
				c0,3.354,0.835,6.509,2.293,9.285L49.78,51.797C49.292,50.976,49,50.024,49,49z"/>
		</g>
		<g>
			<circle style="fill:#FABBAF;" cx="61" cy="34" r="2"/>
		</g>
		<g>
			<circle style="fill:#B84E44;" cx="45" cy="66" r="2"/>
		</g>
		<g>
			<circle style="fill:#FABBAF;" cx="49" cy="78" r="2"/>
		</g>
		<g>
			<circle style="fill:#B84E44;" cx="29" cy="69" r="2"/>
		</g>
		<g>
			<circle style="fill:#FABBAF;" cx="73" cy="30" r="2"/>
		</g>
		<g>
			<circle style="fill:#E8A099;" cx="77" cy="53" r="2"/>
		</g>
		<g>
			<circle style="fill:#FABBAF;" cx="75" cy="40" r="4"/>
		</g>
		<g>
			<circle style="fill:#E8A099;" cx="59" cy="44" r="4"/>
		</g>
		<g>
			<circle style="fill:#FABBAF;" cx="35" cy="60" r="4"/>
		</g>
		<g>
			<circle style="fill:#B84E44;" cx="35" cy="76" r="4"/>
		</g>
		<g>
			<circle style="fill:#B84E44;" cx="56" cy="70" r="4"/>
		</g>
		<g>
			<circle style="fill:#FABBAF;" cx="67" cy="56" r="3"/>
		</g>
	</g>
</g>
<g id="Yellow" style="display:none;">
	<g style="display:inline;">
		<g>
			<circle style="fill:#FFE9A1;" cx="67" cy="43" r="20"/>
		</g>
		<g>
			<path style="fill:#FFF5D9;" d="M80.515,28.288C76.954,25.015,72.218,23,67,23c-11.046,0-20,8.954-20,20
				c0,5.218,2.015,9.954,5.288,13.515L80.515,28.288z"/>
		</g>
		<g>
			<path style="fill:#3D320C;" d="M63,67c0,11.05-8.95,20-20,20s-20-8.95-20-20c0-11.05,8.95-20,20-20c2.13,0,4.18,0.33,6.1,0.95
				C49.03,48.29,49,48.64,49,49c0,2.9,2.25,5.28,5.1,5.48C54.03,54.81,54,55.15,54,55.5c0,2.88,2.21,5.24,5.03,5.47
				C59.01,61.14,59,61.32,59,61.5c0,2.31,1.73,4.21,3.97,4.47C62.99,66.31,63,66.66,63,67z"/>
		</g>
		<g>
			<path style="fill:#66510D;" d="M49,49c0-0.36,0.03-0.71,0.1-1.05C47.18,47.33,45.13,47,43,47c-11.05,0-20,8.95-20,20
				c0,3.354,0.835,6.509,2.293,9.285L49.78,51.797C49.292,50.976,49,50.024,49,49z"/>
		</g>
		<g>
			<circle style="fill:#FFD75E;" cx="61" cy="34" r="2"/>
		</g>
		<g>
			<circle style="fill:#947615;" cx="45" cy="66" r="2"/>
		</g>
		<g>
			<circle style="fill:#FFD75E;" cx="49" cy="78" r="2"/>
		</g>
		<g>
			<circle style="fill:#947615;" cx="29" cy="69" r="2"/>
		</g>
		<g>
			<circle style="fill:#FFD75E;" cx="73" cy="30" r="2"/>
		</g>
		<g>
			<circle style="fill:#F5C43D;" cx="77" cy="53" r="2"/>
		</g>
		<g>
			<circle style="fill:#FFD75E;" cx="75" cy="40" r="4"/>
		</g>
		<g>
			<circle style="fill:#F5C43D;" cx="59" cy="44" r="4"/>
		</g>
		<g>
			<circle style="fill:#FFD75E;" cx="35" cy="60" r="4"/>
		</g>
		<g>
			<circle style="fill:#947615;" cx="35" cy="76" r="4"/>
		</g>
		<g>
			<circle style="fill:#947615;" cx="56" cy="70" r="4"/>
		</g>
		<g>
			<circle style="fill:#FFD75E;" cx="67" cy="56" r="3"/>
		</g>
	</g>
</g>
<g id="R-Yellow" style="display:none;">
	<circle style="display:inline;fill:#FFD75E;" cx="55" cy="55" r="55"/>
	<g style="display:inline;">
		<g>
			<circle style="fill:#FFE9A1;" cx="67" cy="43" r="20"/>
		</g>
		<g>
			<path style="fill:#FFF5D9;" d="M80.515,28.288C76.954,25.015,72.218,23,67,23c-11.046,0-20,8.954-20,20
				c0,5.218,2.015,9.954,5.288,13.515L80.515,28.288z"/>
		</g>
		<g>
			<path style="fill:#3D320C;" d="M63,67c0,11.05-8.95,20-20,20s-20-8.95-20-20c0-11.05,8.95-20,20-20c2.13,0,4.18,0.33,6.1,0.95
				C49.03,48.29,49,48.64,49,49c0,2.9,2.25,5.28,5.1,5.48C54.03,54.81,54,55.15,54,55.5c0,2.88,2.21,5.24,5.03,5.47
				C59.01,61.14,59,61.32,59,61.5c0,2.31,1.73,4.21,3.97,4.47C62.99,66.31,63,66.66,63,67z"/>
		</g>
		<g>
			<path style="fill:#66510D;" d="M49,49c0-0.36,0.03-0.71,0.1-1.05C47.18,47.33,45.13,47,43,47c-11.05,0-20,8.95-20,20
				c0,3.354,0.835,6.509,2.293,9.285L49.78,51.797C49.292,50.976,49,50.024,49,49z"/>
		</g>
		<g>
			<circle style="fill:#FFD75E;" cx="61" cy="34" r="2"/>
		</g>
		<g>
			<circle style="fill:#947615;" cx="45" cy="66" r="2"/>
		</g>
		<g>
			<circle style="fill:#FFD75E;" cx="49" cy="78" r="2"/>
		</g>
		<g>
			<circle style="fill:#947615;" cx="29" cy="69" r="2"/>
		</g>
		<g>
			<circle style="fill:#FFD75E;" cx="73" cy="30" r="2"/>
		</g>
		<g>
			<circle style="fill:#F5C43D;" cx="77" cy="53" r="2"/>
		</g>
		<g>
			<circle style="fill:#FFD75E;" cx="75" cy="40" r="4"/>
		</g>
		<g>
			<circle style="fill:#F5C43D;" cx="59" cy="44" r="4"/>
		</g>
		<g>
			<circle style="fill:#FFD75E;" cx="35" cy="60" r="4"/>
		</g>
		<g>
			<circle style="fill:#947615;" cx="35" cy="76" r="4"/>
		</g>
		<g>
			<circle style="fill:#947615;" cx="56" cy="70" r="4"/>
		</g>
		<g>
			<circle style="fill:#FFD75E;" cx="67" cy="56" r="3"/>
		</g>
	</g>
</g>
</svg>
