<?xml version="1.0" encoding="iso-8859-1"?>
<!-- Generator: Adobe Illustrator 17.1.0, SVG Export Plug-In . SVG Version: 6.00 Build 0)  -->
<!DOCTYPE svg PUBLIC "-//W3C//DTD SVG 1.0//EN" "http://www.w3.org/TR/2001/REC-SVG-20010904/DTD/svg10.dtd">
<svg version="1.0" xmlns="http://www.w3.org/2000/svg" xmlns:xlink="http://www.w3.org/1999/xlink" x="0px" y="0px" width="110px"
	 height="110px" viewBox="0 0 110 110" style="enable-background:new 0 0 110 110;" xml:space="preserve">
<g id="Artboard" style="display:none;">
	
		<rect x="-712.5" y="-1186.5" style="display:inline;fill:#808080;stroke:#000000;stroke-miterlimit:10;" width="1392" height="1369"/>
</g>
<g id="R-Multicolor">
	<circle style="fill:#32BEA6;" cx="55" cy="55" r="55"/>
	<g>
		<g>
			<path style="fill:#FFFFFF;" d="M46.994,87c-4.256-7.093,5.66-10.34-2-18C47.674,78.381,37.427,79.825,46.994,87z"/>
		</g>
		<g>
			<path style="fill:#FFFFFF;" d="M56.994,87c-4.256-7.093,5.66-10.34-2-18C57.674,78.381,47.427,79.825,56.994,87z"/>
		</g>
		<g>
			<path style="fill:#FFFFFF;" d="M66.994,87c-4.256-7.093,5.66-10.34-2-18C67.674,78.381,57.427,79.825,66.994,87z"/>
		</g>
		<g>
			<path style="fill:#3E3E3F;" d="M87,65c0,1.105-0.895,2-2,2H25c-1.105,0-2-0.895-2-2v-4c0-1.105,0.895-2,2-2h60
				c1.105,0,2,0.895,2,2V65z"/>
		</g>
		<g>
			<rect x="35" y="61" style="fill:#9E9FA0;" width="10" height="4"/>
		</g>
		<g>
			<rect x="49" y="61" style="fill:#9E9FA0;" width="10" height="4"/>
		</g>
		<g>
			<rect x="63" y="61" style="fill:#9E9FA0;" width="10" height="4"/>
		</g>
		<g>
			<circle style="fill:#FB7D7C;" cx="79" cy="63" r="2"/>
		</g>
		<g>
			<polygon style="fill:#DADDDE;" points="27,59 43,39 67,39 83,59 			"/>
		</g>
		<g>
			<rect x="43" y="23" style="fill:#FFFFFF;" width="24" height="16"/>
		</g>
		<g>
			<polygon style="fill:#F0F1F1;" points="66.698,39 43,39 27,59 46.698,59 			"/>
		</g>
	</g>
</g>
<g id="Multicolor" style="display:none;">
	<g style="display:inline;">
		<g>
			<path style="fill:#FFFFFF;" d="M46.994,87c-4.256-7.093,5.66-10.34-2-18C47.674,78.381,37.427,79.825,46.994,87z"/>
		</g>
		<g>
			<path style="fill:#FFFFFF;" d="M56.994,87c-4.256-7.093,5.66-10.34-2-18C57.674,78.381,47.427,79.825,56.994,87z"/>
		</g>
		<g>
			<path style="fill:#FFFFFF;" d="M66.994,87c-4.256-7.093,5.66-10.34-2-18C67.674,78.381,57.427,79.825,66.994,87z"/>
		</g>
		<g>
			<path style="fill:#3E3E3F;" d="M87,65c0,1.105-0.895,2-2,2H25c-1.105,0-2-0.895-2-2v-4c0-1.105,0.895-2,2-2h60
				c1.105,0,2,0.895,2,2V65z"/>
		</g>
		<g>
			<rect x="35" y="61" style="fill:#9E9FA0;" width="10" height="4"/>
		</g>
		<g>
			<rect x="49" y="61" style="fill:#9E9FA0;" width="10" height="4"/>
		</g>
		<g>
			<rect x="63" y="61" style="fill:#9E9FA0;" width="10" height="4"/>
		</g>
		<g>
			<circle style="fill:#FB7D7C;" cx="79" cy="63" r="2"/>
		</g>
		<g>
			<polygon style="fill:#DADDDE;" points="27,59 43,39 67,39 83,59 			"/>
		</g>
		<g>
			<rect x="43" y="23" style="fill:#FFFFFF;" width="24" height="16"/>
		</g>
		<g>
			<polygon style="fill:#F0F1F1;" points="66.698,39 43,39 27,59 46.698,59 			"/>
		</g>
	</g>
</g>
<g id="Blue" style="display:none;">
	<g style="display:inline;">
		<g>
			<path style="fill:#FFFFFF;" d="M46.994,87c-4.256-7.093,5.66-10.34-2-18C47.674,78.381,37.427,79.825,46.994,87z"/>
		</g>
		<g>
			<path style="fill:#FFFFFF;" d="M56.994,87c-4.256-7.093,5.66-10.34-2-18C57.674,78.381,47.427,79.825,56.994,87z"/>
		</g>
		<g>
			<path style="fill:#FFFFFF;" d="M66.994,87c-4.256-7.093,5.66-10.34-2-18C67.674,78.381,57.427,79.825,66.994,87z"/>
		</g>
		<g>
			<path style="fill:#0C333D;" d="M87,65c0,1.104-0.896,2-2,2H25c-1.104,0-2-0.896-2-2v-4c0-1.104,0.896-2,2-2h60
				c1.104,0,2,0.896,2,2V65z"/>
		</g>
		<g>
			<rect x="35" y="61" style="fill:#33899E;" width="10" height="4"/>
		</g>
		<g>
			<rect x="49" y="61" style="fill:#33899E;" width="10" height="4"/>
		</g>
		<g>
			<rect x="63" y="61" style="fill:#33899E;" width="10" height="4"/>
		</g>
		<g>
			<circle style="fill:#53BAD4;" cx="79" cy="63" r="2"/>
		</g>
		<g>
			<polygon style="fill:#9EDCEF;" points="27,59 43,39 67,39 83,59 			"/>
		</g>
		<g>
			<rect x="43" y="23" style="fill:#FFFFFF;" width="24" height="16"/>
		</g>
		<g>
			<polygon style="fill:#E1F5FA;" points="66.698,39 43,39 27,59 46.698,59 			"/>
		</g>
	</g>
</g>
<g id="R-Blue" style="display:none;">
	<circle style="display:inline;fill:#81D2EB;" cx="55" cy="55" r="55"/>
	<g style="display:inline;">
		<g>
			<path style="fill:#FFFFFF;" d="M46.994,87c-4.256-7.093,5.66-10.34-2-18C47.674,78.381,37.427,79.825,46.994,87z"/>
		</g>
		<g>
			<path style="fill:#FFFFFF;" d="M56.994,87c-4.256-7.093,5.66-10.34-2-18C57.674,78.381,47.427,79.825,56.994,87z"/>
		</g>
		<g>
			<path style="fill:#FFFFFF;" d="M66.994,87c-4.256-7.093,5.66-10.34-2-18C67.674,78.381,57.427,79.825,66.994,87z"/>
		</g>
		<g>
			<path style="fill:#0C333D;" d="M87,65c0,1.104-0.896,2-2,2H25c-1.104,0-2-0.896-2-2v-4c0-1.104,0.896-2,2-2h60
				c1.104,0,2,0.896,2,2V65z"/>
		</g>
		<g>
			<rect x="35" y="61" style="fill:#33899E;" width="10" height="4"/>
		</g>
		<g>
			<rect x="49" y="61" style="fill:#33899E;" width="10" height="4"/>
		</g>
		<g>
			<rect x="63" y="61" style="fill:#33899E;" width="10" height="4"/>
		</g>
		<g>
			<circle style="fill:#53BAD4;" cx="79" cy="63" r="2"/>
		</g>
		<g>
			<polygon style="fill:#9EDCEF;" points="27,59 43,39 67,39 83,59 			"/>
		</g>
		<g>
			<rect x="43" y="23" style="fill:#FFFFFF;" width="24" height="16"/>
		</g>
		<g>
			<polygon style="fill:#E1F5FA;" points="66.698,39 43,39 27,59 46.698,59 			"/>
		</g>
	</g>
</g>
<g id="Green" style="display:none;">
	<g style="display:inline;">
		<g>
			<path style="fill:#FFFFFF;" d="M46.994,87c-4.256-7.093,5.66-10.34-2-18C47.674,78.381,37.427,79.825,46.994,87z"/>
		</g>
		<g>
			<path style="fill:#FFFFFF;" d="M56.994,87c-4.256-7.093,5.66-10.34-2-18C57.674,78.381,47.427,79.825,56.994,87z"/>
		</g>
		<g>
			<path style="fill:#FFFFFF;" d="M66.994,87c-4.256-7.093,5.66-10.34-2-18C67.674,78.381,57.427,79.825,66.994,87z"/>
		</g>
		<g>
			<path style="fill:#0A3631;" d="M87,65c0,1.104-0.896,2-2,2H25c-1.104,0-2-0.896-2-2v-4c0-1.104,0.896-2,2-2h60
				c1.104,0,2,0.896,2,2V65z"/>
		</g>
		<g>
			<rect x="35" y="61" style="fill:#3E948B;" width="10" height="4"/>
		</g>
		<g>
			<rect x="49" y="61" style="fill:#3E948B;" width="10" height="4"/>
		</g>
		<g>
			<rect x="63" y="61" style="fill:#3E948B;" width="10" height="4"/>
		</g>
		<g>
			<circle style="fill:#55C9BE;" cx="79" cy="63" r="2"/>
		</g>
		<g>
			<polygon style="fill:#96E7D2;" points="27,59 43,39 67,39 83,59 			"/>
		</g>
		<g>
			<rect x="43" y="23" style="fill:#FFFFFF;" width="24" height="16"/>
		</g>
		<g>
			<polygon style="fill:#D7FCF9;" points="66.698,39 43,39 27,59 46.698,59 			"/>
		</g>
	</g>
</g>
<g id="R-Green" style="display:none;">
	<circle style="display:inline;fill:#77E0C4;" cx="55" cy="55" r="55"/>
	<g style="display:inline;">
		<g>
			<path style="fill:#FFFFFF;" d="M46.994,87c-4.256-7.093,5.66-10.34-2-18C47.674,78.381,37.427,79.825,46.994,87z"/>
		</g>
		<g>
			<path style="fill:#FFFFFF;" d="M56.994,87c-4.256-7.093,5.66-10.34-2-18C57.674,78.381,47.427,79.825,56.994,87z"/>
		</g>
		<g>
			<path style="fill:#FFFFFF;" d="M66.994,87c-4.256-7.093,5.66-10.34-2-18C67.674,78.381,57.427,79.825,66.994,87z"/>
		</g>
		<g>
			<path style="fill:#0A3631;" d="M87,65c0,1.104-0.896,2-2,2H25c-1.104,0-2-0.896-2-2v-4c0-1.104,0.896-2,2-2h60
				c1.104,0,2,0.896,2,2V65z"/>
		</g>
		<g>
			<rect x="35" y="61" style="fill:#3E948B;" width="10" height="4"/>
		</g>
		<g>
			<rect x="49" y="61" style="fill:#3E948B;" width="10" height="4"/>
		</g>
		<g>
			<rect x="63" y="61" style="fill:#3E948B;" width="10" height="4"/>
		</g>
		<g>
			<circle style="fill:#55C9BE;" cx="79" cy="63" r="2"/>
		</g>
		<g>
			<polygon style="fill:#96E7D2;" points="27,59 43,39 67,39 83,59 			"/>
		</g>
		<g>
			<rect x="43" y="23" style="fill:#FFFFFF;" width="24" height="16"/>
		</g>
		<g>
			<polygon style="fill:#D7FCF9;" points="66.698,39 43,39 27,59 46.698,59 			"/>
		</g>
	</g>
</g>
<g id="Red" style="display:none;">
	<g style="display:inline;">
		<g>
			<path style="fill:#FFFFFF;" d="M46.994,87c-4.256-7.093,5.66-10.34-2-18C47.674,78.381,37.427,79.825,46.994,87z"/>
		</g>
		<g>
			<path style="fill:#FFFFFF;" d="M56.994,87c-4.256-7.093,5.66-10.34-2-18C57.674,78.381,47.427,79.825,56.994,87z"/>
		</g>
		<g>
			<path style="fill:#FFFFFF;" d="M66.994,87c-4.256-7.093,5.66-10.34-2-18C67.674,78.381,57.427,79.825,66.994,87z"/>
		</g>
		<g>
			<path style="fill:#4A1410;" d="M87,65c0,1.104-0.896,2-2,2H25c-1.104,0-2-0.896-2-2v-4c0-1.104,0.896-2,2-2h60
				c1.104,0,2,0.896,2,2V65z"/>
		</g>
		<g>
			<rect x="35" y="61" style="fill:#B84E44;" width="10" height="4"/>
		</g>
		<g>
			<rect x="49" y="61" style="fill:#B84E44;" width="10" height="4"/>
		</g>
		<g>
			<rect x="63" y="61" style="fill:#B84E44;" width="10" height="4"/>
		</g>
		<g>
			<circle style="fill:#E8A099;" cx="79" cy="63" r="2"/>
		</g>
		<g>
			<polygon style="fill:#FBCBC1;" points="27,59 43,39 67,39 83,59 			"/>
		</g>
		<g>
			<rect x="43" y="23" style="fill:#FFFFFF;" width="24" height="16"/>
		</g>
		<g>
			<polygon style="fill:#FFEFED;" points="66.698,39 43,39 27,59 46.698,59 			"/>
		</g>
	</g>
</g>
<g id="R-Red" style="display:none;">
	<circle style="display:inline;fill:#FABBAF;" cx="55" cy="55" r="55"/>
	<g style="display:inline;">
		<g>
			<path style="fill:#FFFFFF;" d="M46.994,87c-4.256-7.093,5.66-10.34-2-18C47.674,78.381,37.427,79.825,46.994,87z"/>
		</g>
		<g>
			<path style="fill:#FFFFFF;" d="M56.994,87c-4.256-7.093,5.66-10.34-2-18C57.674,78.381,47.427,79.825,56.994,87z"/>
		</g>
		<g>
			<path style="fill:#FFFFFF;" d="M66.994,87c-4.256-7.093,5.66-10.34-2-18C67.674,78.381,57.427,79.825,66.994,87z"/>
		</g>
		<g>
			<path style="fill:#4A1410;" d="M87,65c0,1.104-0.896,2-2,2H25c-1.104,0-2-0.896-2-2v-4c0-1.104,0.896-2,2-2h60
				c1.104,0,2,0.896,2,2V65z"/>
		</g>
		<g>
			<rect x="35" y="61" style="fill:#B84E44;" width="10" height="4"/>
		</g>
		<g>
			<rect x="49" y="61" style="fill:#B84E44;" width="10" height="4"/>
		</g>
		<g>
			<rect x="63" y="61" style="fill:#B84E44;" width="10" height="4"/>
		</g>
		<g>
			<circle style="fill:#E8A099;" cx="79" cy="63" r="2"/>
		</g>
		<g>
			<polygon style="fill:#FBCBC1;" points="27,59 43,39 67,39 83,59 			"/>
		</g>
		<g>
			<rect x="43" y="23" style="fill:#FFFFFF;" width="24" height="16"/>
		</g>
		<g>
			<polygon style="fill:#FFEFED;" points="66.698,39 43,39 27,59 46.698,59 			"/>
		</g>
	</g>
</g>
<g id="Yellow" style="display:none;">
	<g style="display:inline;">
		<g>
			<path style="fill:#FFFFFF;" d="M46.994,87c-4.256-7.093,5.66-10.34-2-18C47.674,78.381,37.427,79.825,46.994,87z"/>
		</g>
		<g>
			<path style="fill:#FFFFFF;" d="M56.994,87c-4.256-7.093,5.66-10.34-2-18C57.674,78.381,47.427,79.825,56.994,87z"/>
		</g>
		<g>
			<path style="fill:#FFFFFF;" d="M66.994,87c-4.256-7.093,5.66-10.34-2-18C67.674,78.381,57.427,79.825,66.994,87z"/>
		</g>
		<g>
			<path style="fill:#3D320C;" d="M87,65c0,1.104-0.896,2-2,2H25c-1.104,0-2-0.896-2-2v-4c0-1.104,0.896-2,2-2h60
				c1.104,0,2,0.896,2,2V65z"/>
		</g>
		<g>
			<rect x="35" y="61" style="fill:#947615;" width="10" height="4"/>
		</g>
		<g>
			<rect x="49" y="61" style="fill:#947615;" width="10" height="4"/>
		</g>
		<g>
			<rect x="63" y="61" style="fill:#947615;" width="10" height="4"/>
		</g>
		<g>
			<circle style="fill:#F5C43D;" cx="79" cy="63" r="2"/>
		</g>
		<g>
			<polygon style="fill:#FFE083;" points="27,59 43,39 67,39 83,59 			"/>
		</g>
		<g>
			<rect x="43" y="23" style="fill:#FFFFFF;" width="24" height="16"/>
		</g>
		<g>
			<polygon style="fill:#FFF5D9;" points="66.698,39 43,39 27,59 46.698,59 			"/>
		</g>
	</g>
</g>
<g id="R-Yellow" style="display:none;">
	<circle style="display:inline;fill:#FFD75E;" cx="55" cy="55" r="55"/>
	<g style="display:inline;">
		<g>
			<path style="fill:#FFFFFF;" d="M46.994,87c-4.256-7.093,5.66-10.34-2-18C47.674,78.381,37.427,79.825,46.994,87z"/>
		</g>
		<g>
			<path style="fill:#FFFFFF;" d="M56.994,87c-4.256-7.093,5.66-10.34-2-18C57.674,78.381,47.427,79.825,56.994,87z"/>
		</g>
		<g>
			<path style="fill:#FFFFFF;" d="M66.994,87c-4.256-7.093,5.66-10.34-2-18C67.674,78.381,57.427,79.825,66.994,87z"/>
		</g>
		<g>
			<path style="fill:#3D320C;" d="M87,65c0,1.104-0.896,2-2,2H25c-1.104,0-2-0.896-2-2v-4c0-1.104,0.896-2,2-2h60
				c1.104,0,2,0.896,2,2V65z"/>
		</g>
		<g>
			<rect x="35" y="61" style="fill:#947615;" width="10" height="4"/>
		</g>
		<g>
			<rect x="49" y="61" style="fill:#947615;" width="10" height="4"/>
		</g>
		<g>
			<rect x="63" y="61" style="fill:#947615;" width="10" height="4"/>
		</g>
		<g>
			<circle style="fill:#F5C43D;" cx="79" cy="63" r="2"/>
		</g>
		<g>
			<polygon style="fill:#FFE083;" points="27,59 43,39 67,39 83,59 			"/>
		</g>
		<g>
			<rect x="43" y="23" style="fill:#FFFFFF;" width="24" height="16"/>
		</g>
		<g>
			<polygon style="fill:#FFF5D9;" points="66.698,39 43,39 27,59 46.698,59 			"/>
		</g>
	</g>
</g>
</svg>
