<?xml version="1.0" encoding="iso-8859-1"?>
<!-- Generator: Adobe Illustrator 17.1.0, SVG Export Plug-In . SVG Version: 6.00 Build 0)  -->
<!DOCTYPE svg PUBLIC "-//W3C//DTD SVG 1.0//EN" "http://www.w3.org/TR/2001/REC-SVG-20010904/DTD/svg10.dtd">
<svg version="1.0" xmlns="http://www.w3.org/2000/svg" xmlns:xlink="http://www.w3.org/1999/xlink" x="0px" y="0px" width="110px"
	 height="110px" viewBox="0 0 110 110" style="enable-background:new 0 0 110 110;" xml:space="preserve">
<g id="Artboard" style="display:none;">
	
		<rect x="-72.5" y="-290.5" style="display:inline;fill:#808080;stroke:#000000;stroke-miterlimit:10;" width="1392" height="1369"/>
</g>
<g id="R-Multicolor">
	<circle style="fill:#FABC3D;" cx="55" cy="55" r="55"/>
	<g>
		<g>
			<path style="fill:#F0F1F1;" d="M35,59v28h40V59c6.63,0,12-5.37,12-12s-5.37-12-12-12c-3.34,0-6.37,1.37-8.54,3.58
				C66.81,37.45,67,36.25,67,35c0-6.63-5.37-12-12-12s-12,5.37-12,12c0,1.25,0.19,2.45,0.54,3.58C41.37,36.37,38.34,35,35,35
				c-6.63,0-12,5.37-12,12S28.37,59,35,59z"/>
		</g>
		<g>
			<path style="fill:#FFFFFF;" d="M55,87V23c-6.63,0-12,5.37-12,12c0,1.25,0.19,2.45,0.54,3.58C41.37,36.37,38.34,35,35,35
				c-6.63,0-12,5.37-12,12s5.37,12,12,12v28H55z"/>
		</g>
		<g>
			<rect x="35" y="79" style="fill:#E2E4E5;" width="40" height="8"/>
		</g>
		<g>
			<rect x="39" y="79" style="fill:#FFFFFF;" width="3" height="8"/>
		</g>
		<g>
			<rect x="46" y="79" style="fill:#FFFFFF;" width="3" height="8"/>
		</g>
		<g>
			<rect x="53" y="79" style="fill:#FFFFFF;" width="3" height="8"/>
		</g>
		<g>
			<rect x="60" y="79" style="fill:#FFFFFF;" width="3" height="8"/>
		</g>
		<g>
			<rect x="67" y="79" style="fill:#FFFFFF;" width="3" height="8"/>
		</g>
	</g>
</g>
<g id="Multicolor" style="display:none;">
	<g style="display:inline;">
		<g>
			<path style="fill:#F0F1F1;" d="M35,59v28h40V59c6.63,0,12-5.37,12-12s-5.37-12-12-12c-3.34,0-6.37,1.37-8.54,3.58
				C66.81,37.45,67,36.25,67,35c0-6.63-5.37-12-12-12s-12,5.37-12,12c0,1.25,0.19,2.45,0.54,3.58C41.37,36.37,38.34,35,35,35
				c-6.63,0-12,5.37-12,12S28.37,59,35,59z"/>
		</g>
		<g>
			<path style="fill:#FFFFFF;" d="M55,87V23c-6.63,0-12,5.37-12,12c0,1.25,0.19,2.45,0.54,3.58C41.37,36.37,38.34,35,35,35
				c-6.63,0-12,5.37-12,12s5.37,12,12,12v28H55z"/>
		</g>
		<g>
			<rect x="35" y="79" style="fill:#E2E4E5;" width="40" height="8"/>
		</g>
		<g>
			<rect x="39" y="79" style="fill:#FFFFFF;" width="3" height="8"/>
		</g>
		<g>
			<rect x="46" y="79" style="fill:#FFFFFF;" width="3" height="8"/>
		</g>
		<g>
			<rect x="53" y="79" style="fill:#FFFFFF;" width="3" height="8"/>
		</g>
		<g>
			<rect x="60" y="79" style="fill:#FFFFFF;" width="3" height="8"/>
		</g>
		<g>
			<rect x="67" y="79" style="fill:#FFFFFF;" width="3" height="8"/>
		</g>
	</g>
</g>
<g id="Blue" style="display:none;">
	<g style="display:inline;">
		<g>
			<path style="fill:#E1F5FA;" d="M35,59v28h40V59c6.63,0,12-5.37,12-12s-5.37-12-12-12c-3.34,0-6.37,1.37-8.54,3.58
				C66.811,37.45,67,36.25,67,35c0-6.63-5.37-12-12-12s-12,5.37-12,12c0,1.25,0.189,2.45,0.54,3.58C41.37,36.37,38.34,35,35,35
				c-6.63,0-12,5.37-12,12S28.37,59,35,59z"/>
		</g>
		<g>
			<path style="fill:#FFFFFF;" d="M55,87V23c-6.63,0-12,5.37-12,12c0,1.25,0.189,2.45,0.54,3.58C41.37,36.37,38.34,35,35,35
				c-6.63,0-12,5.37-12,12s5.37,12,12,12v28H55z"/>
		</g>
		<g>
			<rect x="35" y="79" style="fill:#BBE7F2;" width="40" height="8"/>
		</g>
		<g>
			<rect x="39" y="79" style="fill:#FFFFFF;" width="3" height="8"/>
		</g>
		<g>
			<rect x="46" y="79" style="fill:#FFFFFF;" width="3" height="8"/>
		</g>
		<g>
			<rect x="53" y="79" style="fill:#FFFFFF;" width="3" height="8"/>
		</g>
		<g>
			<rect x="60" y="79" style="fill:#FFFFFF;" width="3" height="8"/>
		</g>
		<g>
			<rect x="67" y="79" style="fill:#FFFFFF;" width="3" height="8"/>
		</g>
	</g>
</g>
<g id="R-Blue" style="display:none;">
	<circle style="display:inline;fill:#81D2EB;" cx="55" cy="55" r="55"/>
	<g style="display:inline;">
		<g>
			<path style="fill:#E1F5FA;" d="M35,59v28h40V59c6.63,0,12-5.37,12-12s-5.37-12-12-12c-3.34,0-6.37,1.37-8.54,3.58
				C66.811,37.45,67,36.25,67,35c0-6.63-5.37-12-12-12s-12,5.37-12,12c0,1.25,0.189,2.45,0.54,3.58C41.37,36.37,38.34,35,35,35
				c-6.63,0-12,5.37-12,12S28.37,59,35,59z"/>
		</g>
		<g>
			<path style="fill:#FFFFFF;" d="M55,87V23c-6.63,0-12,5.37-12,12c0,1.25,0.189,2.45,0.54,3.58C41.37,36.37,38.34,35,35,35
				c-6.63,0-12,5.37-12,12s5.37,12,12,12v28H55z"/>
		</g>
		<g>
			<rect x="35" y="79" style="fill:#BBE7F2;" width="40" height="8"/>
		</g>
		<g>
			<rect x="39" y="79" style="fill:#FFFFFF;" width="3" height="8"/>
		</g>
		<g>
			<rect x="46" y="79" style="fill:#FFFFFF;" width="3" height="8"/>
		</g>
		<g>
			<rect x="53" y="79" style="fill:#FFFFFF;" width="3" height="8"/>
		</g>
		<g>
			<rect x="60" y="79" style="fill:#FFFFFF;" width="3" height="8"/>
		</g>
		<g>
			<rect x="67" y="79" style="fill:#FFFFFF;" width="3" height="8"/>
		</g>
	</g>
</g>
<g id="Green" style="display:none;">
	<g style="display:inline;">
		<g>
			<path style="fill:#D7FCF9;" d="M35,59v28h40V59c6.63,0,12-5.37,12-12s-5.37-12-12-12c-3.34,0-6.37,1.37-8.54,3.58
				C66.81,37.45,67,36.25,67,35c0-6.63-5.37-12-12-12s-12,5.37-12,12c0,1.25,0.189,2.45,0.54,3.58C41.37,36.37,38.34,35,35,35
				c-6.63,0-12,5.37-12,12S28.37,59,35,59z"/>
		</g>
		<g>
			<path style="fill:#FFFFFF;" d="M55,87V23c-6.63,0-12,5.37-12,12c0,1.25,0.189,2.45,0.54,3.58C41.37,36.37,38.34,35,35,35
				c-6.63,0-12,5.37-12,12s5.37,12,12,12v28H55z"/>
		</g>
		<g>
			<rect x="35" y="79" style="fill:#AAF0E9;" width="40" height="8"/>
		</g>
		<g>
			<rect x="39" y="79" style="fill:#FFFFFF;" width="3" height="8"/>
		</g>
		<g>
			<rect x="46" y="79" style="fill:#FFFFFF;" width="3" height="8"/>
		</g>
		<g>
			<rect x="53" y="79" style="fill:#FFFFFF;" width="3" height="8"/>
		</g>
		<g>
			<rect x="60" y="79" style="fill:#FFFFFF;" width="3" height="8"/>
		</g>
		<g>
			<rect x="67" y="79" style="fill:#FFFFFF;" width="3" height="8"/>
		</g>
	</g>
</g>
<g id="R-Green" style="display:none;">
	<circle style="display:inline;fill:#77E0C4;" cx="55" cy="55" r="55"/>
	<g style="display:inline;">
		<g>
			<path style="fill:#D7FCF9;" d="M35,59v28h40V59c6.63,0,12-5.37,12-12s-5.37-12-12-12c-3.34,0-6.37,1.37-8.54,3.58
				C66.811,37.45,67,36.25,67,35c0-6.63-5.37-12-12-12s-12,5.37-12,12c0,1.25,0.189,2.45,0.54,3.58C41.37,36.37,38.34,35,35,35
				c-6.63,0-12,5.37-12,12S28.37,59,35,59z"/>
		</g>
		<g>
			<path style="fill:#FFFFFF;" d="M55,87V23c-6.63,0-12,5.37-12,12c0,1.25,0.189,2.45,0.54,3.58C41.37,36.37,38.34,35,35,35
				c-6.63,0-12,5.37-12,12s5.37,12,12,12v28H55z"/>
		</g>
		<g>
			<rect x="35" y="79" style="fill:#AAF0E9;" width="40" height="8"/>
		</g>
		<g>
			<rect x="39" y="79" style="fill:#FFFFFF;" width="3" height="8"/>
		</g>
		<g>
			<rect x="46" y="79" style="fill:#FFFFFF;" width="3" height="8"/>
		</g>
		<g>
			<rect x="53" y="79" style="fill:#FFFFFF;" width="3" height="8"/>
		</g>
		<g>
			<rect x="60" y="79" style="fill:#FFFFFF;" width="3" height="8"/>
		</g>
		<g>
			<rect x="67" y="79" style="fill:#FFFFFF;" width="3" height="8"/>
		</g>
	</g>
</g>
<g id="Red" style="display:none;">
	<g style="display:inline;">
		<g>
			<path style="fill:#FFEFED;" d="M35,59v28h40V59c6.63,0,12-5.37,12-12s-5.37-12-12-12c-3.34,0-6.37,1.37-8.54,3.58
				C66.811,37.45,67,36.25,67,35c0-6.63-5.37-12-12-12s-12,5.37-12,12c0,1.25,0.189,2.45,0.54,3.58C41.37,36.37,38.34,35,35,35
				c-6.63,0-12,5.37-12,12S28.37,59,35,59z"/>
		</g>
		<g>
			<path style="fill:#FFFFFF;" d="M55,87V23c-6.63,0-12,5.37-12,12c0,1.25,0.189,2.45,0.54,3.58C41.37,36.37,38.34,35,35,35
				c-6.63,0-12,5.37-12,12s5.37,12,12,12v28H55z"/>
		</g>
		<g>
			<rect x="35" y="79" style="fill:#FFD7D4;" width="40" height="8"/>
		</g>
		<g>
			<rect x="39" y="79" style="fill:#FFFFFF;" width="3" height="8"/>
		</g>
		<g>
			<rect x="46" y="79" style="fill:#FFFFFF;" width="3" height="8"/>
		</g>
		<g>
			<rect x="53" y="79" style="fill:#FFFFFF;" width="3" height="8"/>
		</g>
		<g>
			<rect x="60" y="79" style="fill:#FFFFFF;" width="3" height="8"/>
		</g>
		<g>
			<rect x="67" y="79" style="fill:#FFFFFF;" width="3" height="8"/>
		</g>
	</g>
</g>
<g id="R-Red" style="display:none;">
	<circle style="display:inline;fill:#FABBAF;" cx="55" cy="55" r="55"/>
	<g style="display:inline;">
		<g>
			<path style="fill:#FFEFED;" d="M35,59v28h40V59c6.63,0,12-5.37,12-12s-5.37-12-12-12c-3.34,0-6.37,1.37-8.54,3.58
				C66.811,37.45,67,36.25,67,35c0-6.63-5.37-12-12-12s-12,5.37-12,12c0,1.25,0.189,2.45,0.54,3.58C41.37,36.37,38.34,35,35,35
				c-6.63,0-12,5.37-12,12S28.37,59,35,59z"/>
		</g>
		<g>
			<path style="fill:#FFFFFF;" d="M55,87V23c-6.63,0-12,5.37-12,12c0,1.25,0.189,2.45,0.54,3.58C41.37,36.37,38.34,35,35,35
				c-6.63,0-12,5.37-12,12s5.37,12,12,12v28H55z"/>
		</g>
		<g>
			<rect x="35" y="79" style="fill:#FFD7D4;" width="40" height="8"/>
		</g>
		<g>
			<rect x="39" y="79" style="fill:#FFFFFF;" width="3" height="8"/>
		</g>
		<g>
			<rect x="46" y="79" style="fill:#FFFFFF;" width="3" height="8"/>
		</g>
		<g>
			<rect x="53" y="79" style="fill:#FFFFFF;" width="3" height="8"/>
		</g>
		<g>
			<rect x="60" y="79" style="fill:#FFFFFF;" width="3" height="8"/>
		</g>
		<g>
			<rect x="67" y="79" style="fill:#FFFFFF;" width="3" height="8"/>
		</g>
	</g>
</g>
<g id="Yellow" style="display:none;">
	<g style="display:inline;">
		<g>
			<path style="fill:#FFF5D9;" d="M35,59v28h40V59c6.63,0,12-5.37,12-12s-5.37-12-12-12c-3.34,0-6.37,1.37-8.54,3.58
				C66.811,37.45,67,36.25,67,35c0-6.63-5.37-12-12-12s-12,5.37-12,12c0,1.25,0.189,2.45,0.54,3.58C41.37,36.37,38.34,35,35,35
				c-6.63,0-12,5.37-12,12S28.37,59,35,59z"/>
		</g>
		<g>
			<path style="fill:#FFFFFF;" d="M55,87V23c-6.63,0-12,5.37-12,12c0,1.25,0.189,2.45,0.54,3.58C41.37,36.37,38.34,35,35,35
				c-6.63,0-12,5.37-12,12s5.37,12,12,12v28H55z"/>
		</g>
		<g>
			<rect x="35" y="79" style="fill:#FFE9A1;" width="40" height="8"/>
		</g>
		<g>
			<rect x="39" y="79" style="fill:#FFFFFF;" width="3" height="8"/>
		</g>
		<g>
			<rect x="46" y="79" style="fill:#FFFFFF;" width="3" height="8"/>
		</g>
		<g>
			<rect x="53" y="79" style="fill:#FFFFFF;" width="3" height="8"/>
		</g>
		<g>
			<rect x="60" y="79" style="fill:#FFFFFF;" width="3" height="8"/>
		</g>
		<g>
			<rect x="67" y="79" style="fill:#FFFFFF;" width="3" height="8"/>
		</g>
	</g>
</g>
<g id="R-Yellow" style="display:none;">
	<circle style="display:inline;fill:#FFD75E;" cx="55" cy="55" r="55"/>
	<g style="display:inline;">
		<g>
			<path style="fill:#FFF5D9;" d="M35,59v28h40V59c6.63,0,12-5.37,12-12s-5.37-12-12-12c-3.34,0-6.37,1.37-8.54,3.58
				C66.81,37.45,67,36.25,67,35c0-6.63-5.37-12-12-12s-12,5.37-12,12c0,1.25,0.189,2.45,0.54,3.58C41.37,36.37,38.34,35,35,35
				c-6.63,0-12,5.37-12,12S28.37,59,35,59z"/>
		</g>
		<g>
			<path style="fill:#FFFFFF;" d="M55,87V23c-6.63,0-12,5.37-12,12c0,1.25,0.189,2.45,0.54,3.58C41.37,36.37,38.34,35,35,35
				c-6.63,0-12,5.37-12,12s5.37,12,12,12v28H55z"/>
		</g>
		<g>
			<rect x="35" y="79" style="fill:#FFE9A1;" width="40" height="8"/>
		</g>
		<g>
			<rect x="39" y="79" style="fill:#FFFFFF;" width="3" height="8"/>
		</g>
		<g>
			<rect x="46" y="79" style="fill:#FFFFFF;" width="3" height="8"/>
		</g>
		<g>
			<rect x="53" y="79" style="fill:#FFFFFF;" width="3" height="8"/>
		</g>
		<g>
			<rect x="60" y="79" style="fill:#FFFFFF;" width="3" height="8"/>
		</g>
		<g>
			<rect x="67" y="79" style="fill:#FFFFFF;" width="3" height="8"/>
		</g>
	</g>
</g>
</svg>
