<?xml version="1.0" encoding="iso-8859-1"?>
<!-- Generator: Adobe Illustrator 17.1.0, SVG Export Plug-In . SVG Version: 6.00 Build 0)  -->
<!DOCTYPE svg PUBLIC "-//W3C//DTD SVG 1.0//EN" "http://www.w3.org/TR/2001/REC-SVG-20010904/DTD/svg10.dtd">
<svg version="1.0" xmlns="http://www.w3.org/2000/svg" xmlns:xlink="http://www.w3.org/1999/xlink" x="0px" y="0px" width="110px"
	 height="110px" viewBox="0 0 110 110" style="enable-background:new 0 0 110 110;" xml:space="preserve">
<g id="Artboard" style="display:none;">
	
		<rect x="-712.5" y="-546.5" style="display:inline;fill:#808080;stroke:#000000;stroke-miterlimit:10;" width="1392" height="1369"/>
</g>
<g id="R-Multicolor">
	<circle style="fill:#32BEA6;" cx="55" cy="55" r="55"/>
	<g>
		<g>
			<path style="fill:#FACB1B;" d="M55.036,75c0-7.002,5.231-14.875,11.622-20.161c-0.668-15.225-1.914-29.942-9.622-31.639
				c-0.63-0.14-1.3-0.2-2-0.2s-1.37,0.06-2,0.2c-7.663,1.686-8.941,16.106-9.622,31.639C49.805,60.125,55.036,67.998,55.036,75z"/>
		</g>
		<g>
			<path style="fill:#FBE158;" d="M53.036,23.2c-7.663,1.686-8.941,16.106-9.622,31.639C49.805,60.125,55.036,67.998,55.036,75V23
				C54.336,23,53.666,23.06,53.036,23.2z"/>
		</g>
		<g>
			<path style="fill:#0C7367;" d="M55.036,75c0-15-24-34-32-23c18.231,0,6.101,28.523,26.288,30.834C50.1,85.25,52.363,87,55.036,87
				s4.937-1.75,5.712-4.166C80.936,80.523,68.806,52,87.036,52C79.036,41,55.036,60,55.036,75z"/>
		</g>
		<g>
			<path style="fill:#099686;" d="M23.036,52c18.231,0,6.101,28.523,26.288,30.834C50.1,85.25,52.363,87,55.036,87V75
				C55.036,60,31.036,41,23.036,52z"/>
		</g>
	</g>
</g>
<g id="Multicolor" style="display:none;">
	<g style="display:inline;">
		<g>
			<path style="fill:#FACB1B;" d="M55.036,75c0-7.002,5.231-14.875,11.622-20.161c-0.668-15.225-1.914-29.942-9.622-31.639
				c-0.63-0.14-1.3-0.2-2-0.2s-1.37,0.06-2,0.2c-7.663,1.686-8.941,16.106-9.622,31.639C49.805,60.125,55.036,67.998,55.036,75z"/>
		</g>
		<g>
			<path style="fill:#FBE158;" d="M53.036,23.2c-7.663,1.686-8.941,16.106-9.622,31.639C49.805,60.125,55.036,67.998,55.036,75V23
				C54.336,23,53.666,23.06,53.036,23.2z"/>
		</g>
		<g>
			<path style="fill:#0C7367;" d="M55.036,75c0-15-24-34-32-23c18.231,0,6.101,28.523,26.288,30.834C50.1,85.25,52.363,87,55.036,87
				s4.937-1.75,5.712-4.166C80.936,80.523,68.806,52,87.036,52C79.036,41,55.036,60,55.036,75z"/>
		</g>
		<g>
			<path style="fill:#099686;" d="M23.036,52c18.231,0,6.101,28.523,26.288,30.834C50.1,85.25,52.363,87,55.036,87V75
				C55.036,60,31.036,41,23.036,52z"/>
		</g>
	</g>
</g>
<g id="Blue" style="display:none;">
	<g style="display:inline;">
		<g>
			<path style="fill:#BBE7F2;" d="M55.036,75c0-7.002,5.231-14.875,11.622-20.161C65.99,39.614,64.745,24.896,57.036,23.2
				c-0.63-0.14-1.3-0.2-2-0.2c-0.7,0-1.37,0.06-2,0.2c-7.663,1.686-8.94,16.107-9.622,31.639C49.805,60.125,55.036,67.998,55.036,75
				z"/>
		</g>
		<g>
			<path style="fill:#E1F5FA;" d="M53.036,23.2c-7.663,1.686-8.94,16.107-9.622,31.639C49.805,60.125,55.036,67.998,55.036,75V23
				C54.336,23,53.666,23.06,53.036,23.2z"/>
		</g>
		<g>
			<path style="fill:#0081A1;" d="M55.036,75c0-15-24-34-32-23c18.232,0,6.102,28.523,26.288,30.835
				C50.1,85.251,52.363,87,55.036,87c2.674,0,4.937-1.749,5.712-4.165C80.936,80.523,68.806,52,87.036,52
				C79.036,41,55.036,60,55.036,75z"/>
		</g>
		<g>
			<path style="fill:#009FC7;" d="M23.036,52c18.232,0,6.102,28.523,26.288,30.835C50.1,85.251,52.363,87,55.036,87V75
				C55.036,60,31.036,41,23.036,52z"/>
		</g>
	</g>
</g>
<g id="R-Blue" style="display:none;">
	<circle style="display:inline;fill:#81D2EB;" cx="55" cy="55" r="55"/>
	<g style="display:inline;">
		<g>
			<path style="fill:#BBE7F2;" d="M55.036,75c0-7.002,5.231-14.875,11.622-20.161C65.99,39.614,64.745,24.896,57.036,23.2
				c-0.63-0.14-1.3-0.2-2-0.2c-0.7,0-1.37,0.06-2,0.2c-7.663,1.686-8.94,16.107-9.622,31.639C49.805,60.125,55.036,67.998,55.036,75
				z"/>
		</g>
		<g>
			<path style="fill:#E1F5FA;" d="M53.036,23.2c-7.663,1.686-8.94,16.107-9.622,31.639C49.805,60.125,55.036,67.998,55.036,75V23
				C54.336,23,53.666,23.06,53.036,23.2z"/>
		</g>
		<g>
			<path style="fill:#0081A1;" d="M55.036,75c0-15-24-34-32-23c18.232,0,6.102,28.523,26.288,30.834C50.1,85.25,52.363,87,55.036,87
				c2.674,0,4.937-1.75,5.712-4.166C80.936,80.523,68.806,52,87.036,52C79.036,41,55.036,60,55.036,75z"/>
		</g>
		<g>
			<path style="fill:#009FC7;" d="M23.036,52c18.232,0,6.102,28.523,26.288,30.834C50.1,85.25,52.363,87,55.036,87V75
				C55.036,60,31.036,41,23.036,52z"/>
		</g>
	</g>
</g>
<g id="Green" style="display:none;">
	<g style="display:inline;">
		<g>
			<path style="fill:#AAF0E9;" d="M55.036,75c0-7.002,5.231-14.875,11.622-20.161C65.99,39.614,64.745,24.896,57.036,23.2
				c-0.63-0.14-1.3-0.2-2-0.2c-0.7,0-1.37,0.06-2,0.2c-7.663,1.687-8.94,16.107-9.622,31.639C49.805,60.125,55.036,67.998,55.036,75
				z"/>
		</g>
		<g>
			<path style="fill:#D7FCF9;" d="M53.036,23.2c-7.663,1.687-8.94,16.107-9.622,31.639C49.805,60.125,55.036,67.998,55.036,75V23
				C54.336,23,53.666,23.06,53.036,23.2z"/>
		</g>
		<g>
			<path style="fill:#009687;" d="M55.036,75c0-15-24-34-32-23c18.232,0,6.102,28.523,26.288,30.835
				C50.1,85.251,52.363,87,55.036,87c2.674,0,4.937-1.749,5.712-4.165C80.935,80.523,68.806,52,87.036,52
				C79.036,41,55.036,60,55.036,75z"/>
		</g>
		<g>
			<path style="fill:#00B8A5;" d="M23.036,52c18.232,0,6.102,28.523,26.288,30.835C50.1,85.251,52.363,87,55.036,87V75
				C55.036,60,31.036,41,23.036,52z"/>
		</g>
	</g>
</g>
<g id="R-Green" style="display:none;">
	<circle style="display:inline;fill:#77E0C4;" cx="55" cy="55" r="55"/>
	<g style="display:inline;">
		<g>
			<path style="fill:#AAF0E9;" d="M55.036,75c0-7.002,5.232-14.875,11.622-20.161C65.99,39.614,64.745,24.896,57.036,23.2
				c-0.63-0.14-1.3-0.2-2-0.2c-0.7,0-1.37,0.06-2,0.2c-7.663,1.686-8.94,16.107-9.622,31.639C49.805,60.125,55.036,67.998,55.036,75
				z"/>
		</g>
		<g>
			<path style="fill:#D7FCF9;" d="M53.036,23.2c-7.663,1.686-8.94,16.107-9.622,31.639C49.805,60.125,55.036,67.998,55.036,75V23
				C54.336,23,53.666,23.06,53.036,23.2z"/>
		</g>
		<g>
			<path style="fill:#009687;" d="M55.036,75c0-15-24-34-32-23c18.232,0,6.102,28.523,26.288,30.835
				C50.1,85.251,52.363,87,55.036,87c2.674,0,4.937-1.749,5.712-4.165C80.936,80.523,68.806,52,87.036,52
				C79.036,41,55.036,60,55.036,75z"/>
		</g>
		<g>
			<path style="fill:#00B8A5;" d="M23.036,52c18.232,0,6.102,28.523,26.288,30.835C50.1,85.251,52.363,87,55.036,87V75
				C55.036,60,31.036,41,23.036,52z"/>
		</g>
	</g>
</g>
<g id="Red" style="display:none;">
	<g style="display:inline;">
		<g>
			<path style="fill:#FFD7D4;" d="M55.036,75c0-7.002,5.232-14.875,11.622-20.161C65.99,39.614,64.745,24.896,57.036,23.2
				c-0.63-0.14-1.3-0.2-2-0.2c-0.7,0-1.37,0.06-2,0.2c-7.663,1.687-8.94,16.106-9.622,31.639C49.805,60.125,55.036,67.998,55.036,75
				z"/>
		</g>
		<g>
			<path style="fill:#FFEFED;" d="M53.036,23.2c-7.663,1.687-8.94,16.106-9.622,31.639C49.805,60.125,55.036,67.998,55.036,75V23
				C54.336,23,53.666,23.06,53.036,23.2z"/>
		</g>
		<g>
			<path style="fill:#C23023;" d="M55.036,75c0-15-24-34-32-23c18.232,0,6.102,28.523,26.288,30.835
				C50.1,85.251,52.363,87,55.036,87c2.674,0,4.937-1.749,5.712-4.165C80.935,80.523,68.806,52,87.036,52
				C79.036,41,55.036,60,55.036,75z"/>
		</g>
		<g>
			<path style="fill:#E54B44;" d="M23.036,52c18.232,0,6.102,28.523,26.288,30.835C50.1,85.251,52.363,87,55.036,87V75
				C55.036,60,31.036,41,23.036,52z"/>
		</g>
	</g>
</g>
<g id="R-Red" style="display:none;">
	<circle style="display:inline;fill:#FABBAF;" cx="55" cy="55" r="55"/>
	<g style="display:inline;">
		<g>
			<path style="fill:#FFD7D4;" d="M55.036,75c0-7.002,5.232-14.875,11.622-20.161C65.99,39.614,64.745,24.896,57.036,23.2
				c-0.63-0.14-1.3-0.2-2-0.2c-0.7,0-1.37,0.06-2,0.2c-7.663,1.687-8.94,16.106-9.622,31.639C49.805,60.125,55.036,67.998,55.036,75
				z"/>
		</g>
		<g>
			<path style="fill:#FFEFED;" d="M53.036,23.2c-7.663,1.687-8.94,16.106-9.622,31.639C49.805,60.125,55.036,67.998,55.036,75V23
				C54.336,23,53.666,23.06,53.036,23.2z"/>
		</g>
		<g>
			<path style="fill:#C23023;" d="M55.036,75c0-15-24-34-32-23c18.232,0,6.102,28.523,26.288,30.835
				C50.1,85.251,52.363,87,55.036,87c2.674,0,4.937-1.749,5.712-4.165C80.935,80.523,68.806,52,87.036,52
				C79.036,41,55.036,60,55.036,75z"/>
		</g>
		<g>
			<path style="fill:#E54B44;" d="M23.036,52c18.232,0,6.102,28.523,26.288,30.835C50.1,85.251,52.363,87,55.036,87V75
				C55.036,60,31.036,41,23.036,52z"/>
		</g>
	</g>
</g>
<g id="Yellow" style="display:none;">
	<g style="display:inline;">
		<g>
			<path style="fill:#FFE9A1;" d="M55.036,75c0-7.002,5.232-14.875,11.622-20.161C65.99,39.614,64.745,24.896,57.036,23.2
				c-0.63-0.14-1.3-0.2-2-0.2c-0.7,0-1.37,0.06-2,0.2c-7.663,1.686-8.94,16.107-9.622,31.639C49.805,60.125,55.036,67.998,55.036,75
				z"/>
		</g>
		<g>
			<path style="fill:#FFF5D9;" d="M53.036,23.2c-7.663,1.686-8.94,16.107-9.622,31.639C49.805,60.125,55.036,67.998,55.036,75V23
				C54.336,23,53.666,23.06,53.036,23.2z"/>
		</g>
		<g>
			<path style="fill:#E07000;" d="M55.036,75c0-15-24-34-32-23c18.232,0,6.102,28.523,26.288,30.835
				C50.1,85.251,52.363,87,55.036,87c2.674,0,4.937-1.749,5.712-4.165C80.936,80.523,68.806,52,87.036,52
				C79.036,41,55.036,60,55.036,75z"/>
		</g>
		<g>
			<path style="fill:#FA9200;" d="M23.036,52c18.232,0,6.102,28.523,26.288,30.835C50.1,85.251,52.363,87,55.036,87V75
				C55.036,60,31.036,41,23.036,52z"/>
		</g>
	</g>
</g>
<g id="R-Yellow" style="display:none;">
	<circle style="display:inline;fill:#FFD75E;" cx="55" cy="55" r="55"/>
	<g style="display:inline;">
		<g>
			<path style="fill:#FFE9A1;" d="M55.036,75c0-7.002,5.231-14.875,11.622-20.161C65.99,39.614,64.745,24.896,57.036,23.2
				c-0.63-0.14-1.3-0.2-2-0.2c-0.7,0-1.37,0.06-2,0.2c-7.663,1.686-8.94,16.107-9.622,31.639C49.805,60.125,55.036,67.998,55.036,75
				z"/>
		</g>
		<g>
			<path style="fill:#FFF5D9;" d="M53.036,23.2c-7.663,1.686-8.94,16.107-9.622,31.639C49.805,60.125,55.036,67.998,55.036,75V23
				C54.336,23,53.666,23.06,53.036,23.2z"/>
		</g>
		<g>
			<path style="fill:#E07000;" d="M55.036,75c0-15-24-34-32-23c18.232,0,6.102,28.523,26.288,30.835
				C50.1,85.251,52.363,87,55.036,87c2.674,0,4.937-1.749,5.712-4.165C80.935,80.523,68.806,52,87.036,52
				C79.036,41,55.036,60,55.036,75z"/>
		</g>
		<g>
			<path style="fill:#FA9200;" d="M23.036,52c18.232,0,6.102,28.523,26.288,30.835C50.1,85.251,52.363,87,55.036,87V75
				C55.036,60,31.036,41,23.036,52z"/>
		</g>
	</g>
</g>
</svg>
