<?xml version="1.0" encoding="iso-8859-1"?>
<!-- Generator: Adobe Illustrator 17.1.0, SVG Export Plug-In . SVG Version: 6.00 Build 0)  -->
<!DOCTYPE svg PUBLIC "-//W3C//DTD SVG 1.0//EN" "http://www.w3.org/TR/2001/REC-SVG-20010904/DTD/svg10.dtd">
<svg version="1.0" xmlns="http://www.w3.org/2000/svg" xmlns:xlink="http://www.w3.org/1999/xlink" x="0px" y="0px" width="110px"
	 height="110px" viewBox="0 0 110 110" style="enable-background:new 0 0 110 110;" xml:space="preserve">
<g id="Artboard">
</g>
<g id="Multicolor">
	<circle style="fill:#FABC3D;" cx="55" cy="55" r="55"/>
	<g>
		<g>
			<path style="fill:#DF2C2C;" d="M69.015,59h-20l0,0h-20c-3.032,0-5.906,2.311-6,6v20l0,0c0,1.104,0.895,2,2,2h48
				c1.105,0,2-0.896,2-2V65C75.015,61.687,72.329,59,69.015,59z"/>
		</g>
		<g>
			<path style="fill:#FA5655;" d="M29.015,59c-3.314,0-6,2.687-6,6v20c0,1.104,0.895,2,2,2h24V59H29.015z"/>
		</g>
		<g>
			<path style="fill:#3E3E3F;" d="M67.015,53c0-1.105-0.895-2-2-2h-32c-1.105,0-2,0.895-2,2v6h36V53z"/>
		</g>
		<g>
			<path style="fill:#DF2C2C;" d="M70.169,32.217l-0.078,0.017c-1.036,0.225-1.694,1.248-1.468,2.284l11.083,50.969
				c0.225,1.036,1.248,1.694,2.284,1.468l0.078-0.017c3.238-0.704,5.292-3.9,4.588-7.138l-9.349-42.995
				C76.603,33.568,73.407,31.513,70.169,32.217z"/>
		</g>
		<g>
			<path style="fill:#5B5C5F;" d="M31.015,53v6h18v-8h-16C31.91,51,31.015,51.895,31.015,53z"/>
		</g>
		<g>
			<path style="fill:#F0F1F1;" d="M50.015,35c0.998,8.979-16,9.006-16,14c0,2,1,2,1,2h14h14C69.015,44,56.015,35,50.015,35z"/>
		</g>
		<g>
			<path style="fill:#FFFFFF;" d="M34.015,49c0,2,1,2,1,2h14V39.045C45.465,44.156,34.015,44.896,34.015,49z"/>
		</g>
		<g>
			<polygon style="fill:#FFFFFF;" points="49.015,65 31.015,65 31.015,81 49.015,81 67.015,81 67.015,65 			"/>
		</g>
	</g>
</g>
</svg>
