<?xml version="1.0" encoding="iso-8859-1"?>
<!-- Generator: Adobe Illustrator 17.1.0, SVG Export Plug-In . SVG Version: 6.00 Build 0)  -->
<!DOCTYPE svg PUBLIC "-//W3C//DTD SVG 1.0//EN" "http://www.w3.org/TR/2001/REC-SVG-20010904/DTD/svg10.dtd">
<svg version="1.0" xmlns="http://www.w3.org/2000/svg" xmlns:xlink="http://www.w3.org/1999/xlink" x="0px" y="0px" width="110px"
	 height="110px" viewBox="0 0 110 110" style="enable-background:new 0 0 110 110;" xml:space="preserve">
<g id="Artboard">
</g>
<g id="Multicolor">
	<circle style="fill:#E04F5F;" cx="55" cy="55" r="55"/>
	<g>
		<path style="fill:#CFD3D4;" d="M79,79.689c-18-18-24-24-29.47-30.31c1.47-7.69-8.237-29.631-20.13-19.96
			C18,38.689,37,52.689,45,51.689C49,64.689,66.696,81.329,79,79.689z M45,46.689c-5.91,1.16-17.861-8.215-12-13
			C38.445,29.244,45,38.689,45,46.689z"/>
		<path style="fill:#FFFFFF;" d="M45,60c-8-1-27,13-15.6,22.27C41.293,91.941,51,70,49.53,62.31C55,56,61,50,79,32
			C66.696,30.36,49,47,45,60z M33,78c-5.861-4.785,6.09-14.16,12-13C45,73,38.445,82.445,33,78z"/>
		<circle style="fill:#FFFFFF;" cx="81" cy="55.689" r="2"/>
		<circle style="fill:#FFFFFF;" cx="73" cy="55.689" r="2"/>
		<circle style="fill:#FFFFFF;" cx="65" cy="55.689" r="2"/>
		<circle style="fill:#FFFFFF;" cx="37" cy="55.689" r="2"/>
		<circle style="fill:#FFFFFF;" cx="29" cy="55.689" r="2"/>
		<circle style="fill:#CFD3D4;" cx="51" cy="55.689" r="2"/>
	</g>
</g>
</svg>
