<?xml version="1.0" encoding="iso-8859-1"?>
<!-- Generator: Adobe Illustrator 17.1.0, SVG Export Plug-In . SVG Version: 6.00 Build 0)  -->
<!DOCTYPE svg PUBLIC "-//W3C//DTD SVG 1.0//EN" "http://www.w3.org/TR/2001/REC-SVG-20010904/DTD/svg10.dtd">
<svg version="1.0" xmlns="http://www.w3.org/2000/svg" xmlns:xlink="http://www.w3.org/1999/xlink" x="0px" y="0px" width="110px"
	 height="110px" viewBox="0 0 110 110" style="enable-background:new 0 0 110 110;" xml:space="preserve">
<g id="Artboard" style="display:none;">
	
		<rect x="-840.5" y="-802.5" style="display:inline;fill:#808080;stroke:#000000;stroke-miterlimit:10;" width="1392" height="1369"/>
</g>
<g id="R-Multicolor">
	<circle style="fill:#32BEA6;" cx="55" cy="55" r="55"/>
	<g>
		<g>
			<circle style="fill:#FFFFFF;" cx="52" cy="40" r="2"/>
		</g>
		<g>
			<circle style="fill:#FFFFFF;" cx="58" cy="40" r="2"/>
		</g>
		<g>
			<path style="fill:#DF2C2C;" d="M55,41c-11.389,0-20.752,8.107-25.202,12.78c-0.764,0.802-1.161,1.885-1.097,2.991
				C28.997,61.872,48.121,77,51.724,77h6.552c3.751,0,22.729-15.209,23.02-20.229c0.064-1.105-0.331-2.19-1.094-2.991
				C75.752,49.107,66.389,41,55,41z"/>
		</g>
		<g>
			<path style="fill:#FA5655;" d="M55,41c-11.389,0-20.752,8.107-25.202,12.78c-0.764,0.802-1.161,1.885-1.097,2.99
				c0.126,2.165,3.646,6.136,7.928,9.99l24.884-24.884C59.435,41.329,57.26,41,55,41z"/>
		</g>
		<g>
			<path style="fill:#DF2C2C;" d="M47.687,23.147c0.23-0.002,0.431,0.154,0.488,0.376c0.057,0.222-0.045,0.455-0.247,0.564
				c-3.144,1.694-6.245,4.338-8.193,7.401c-0.99-0.312-1.862-0.844-2.547-1.607c-0.804-0.877-1.279-1.977-1.445-3.176
				C40.111,24.39,44.421,23.168,47.687,23.147z"/>
		</g>
		<g>
			<path style="fill:#FA5655;" d="M23.453,42.229c-2.11-3.668,3.35-10.755,12.289-15.524c0.166,1.199,0.641,2.299,1.445,3.176
				c3.098,3.45,9.898,2.19,14.364-2.703c0.302-0.331,0.788-0.421,1.189-0.219c0.4,0.202,0.617,0.646,0.531,1.086
				C51.298,38.148,27.449,49.155,23.453,42.229z"/>
		</g>
		<g>
			<path style="fill:#DF2C2C;" d="M62.313,23.147c-0.23-0.002-0.431,0.154-0.488,0.376c-0.057,0.222,0.045,0.455,0.247,0.564
				c3.144,1.694,6.245,4.338,8.193,7.401c0.99-0.312,1.862-0.844,2.547-1.607c0.804-0.877,1.279-1.977,1.445-3.176
				C69.888,24.39,65.578,23.168,62.313,23.147z"/>
		</g>
		<g>
			<path style="fill:#FA5655;" d="M86.547,42.229c2.11-3.668-3.35-10.755-12.289-15.524c-0.166,1.199-0.641,2.299-1.445,3.176
				c-3.098,3.45-9.898,2.19-14.364-2.703c-0.302-0.331-0.788-0.421-1.189-0.219c-0.4,0.202-0.617,0.646-0.531,1.086
				C58.702,38.148,82.551,49.155,86.547,42.229z"/>
		</g>
		<g>
			<path style="fill:#DF2C2C;" d="M74.985,48.995C74.99,48.996,74.995,48.998,75,49c5.119-1.969,8.062-3.758,9.755-5.206
				c-2.791,1.281-7.683,0.405-12.623-1.709l-2.556,3.195C71.563,46.432,73.378,47.709,74.985,48.995z"/>
		</g>
		<g>
			<path style="fill:#DF2C2C;" d="M35.015,48.995c1.607-1.285,3.422-2.563,5.409-3.715l-2.548-3.185
				c-5.248,2.259-10.084,2.862-12.748,1.599C26.802,45.159,29.764,46.986,35,49C35.005,48.998,35.01,48.997,35.015,48.995z"/>
		</g>
		<g>
			<path style="fill:#DF2C2C;" d="M33.437,63.713c-0.833-0.853-1.589-1.684-2.243-2.475c-1.503,1.384-3.154,3.213-4.826,5.645
				c-1.216,1.77,0.87,6.21,2.098,6.706C28.085,73.435,27.289,68.05,33.437,63.713z"/>
		</g>
		<g>
			<path style="fill:#DF2C2C;" d="M40.247,69.846c-0.91-0.737-1.816-1.499-2.701-2.273c-1.611,1.422-3.413,3.361-5.239,6.018
				c-1.216,1.77,0.87,6.21,2.099,6.706C34.007,80.137,33.158,74.266,40.247,69.846z"/>
		</g>
		<g>
			<path style="fill:#DF2C2C;" d="M48.125,75.473c-1.024-0.605-2.179-1.362-3.407-2.23c-1.894,1.461-4.172,3.68-6.489,7.051
				c-1.216,1.77,0.87,6.21,2.098,6.706C39.896,86.826,38.934,79.944,48.125,75.473z"/>
		</g>
		<g>
			<path style="fill:#DF2C2C;" d="M65.302,73.259c-1.224,0.866-2.378,1.622-3.403,2.225c9.165,4.472,8.205,11.341,7.773,11.515
				c1.229-0.496,3.314-4.936,2.099-6.706C69.462,76.935,67.193,74.72,65.302,73.259z"/>
		</g>
		<g>
			<path style="fill:#DF2C2C;" d="M72.461,67.579c-0.882,0.775-1.785,1.538-2.693,2.276c7.073,4.418,6.225,10.281,5.827,10.442
				c1.229-0.496,3.314-4.936,2.099-6.706C75.869,70.938,74.07,69,72.461,67.579z"/>
		</g>
		<g>
			<path style="fill:#DF2C2C;" d="M83.632,66.883c-1.674-2.435-3.327-4.266-4.832-5.651c-0.653,0.791-1.41,1.624-2.241,2.478
				c6.151,4.337,5.356,9.724,4.974,9.878C82.762,73.093,84.848,68.653,83.632,66.883z"/>
		</g>
		<g>
			<path style="fill:#F79392;" d="M41.298,54.157c-0.331-0.442-1.8-2.4-1-3c0.8-0.6,2.269,1.358,2.6,1.8
				c0.331,0.442,1.442,2.669,1,3C43.456,56.289,41.629,54.599,41.298,54.157z"/>
		</g>
		<g>
			<path style="fill:#F79392;" d="M47.366,50.148c-0.107-0.542-0.579-2.944,0.402-3.137c0.981-0.193,1.454,2.209,1.56,2.751
				s0.14,3.03-0.402,3.137S47.473,50.69,47.366,50.148z"/>
		</g>
		<g>
			<path style="fill:#F79392;" d="M53.999,50.06c0.004-0.552,0.022-3,1.022-2.993s0.982,2.455,0.978,3.007
				c-0.004,0.552-0.469,2.997-1.022,2.993C54.425,53.063,53.995,50.612,53.999,50.06z"/>
		</g>
		<g>
			<path style="fill:#F79392;" d="M68.702,54.157c0.331-0.442,1.8-2.4,1-3c-0.8-0.6-2.269,1.358-2.6,1.8
				c-0.331,0.442-1.442,2.669-1,3C66.544,56.289,68.371,54.599,68.702,54.157z"/>
		</g>
		<g>
			<path style="fill:#F79392;" d="M62.634,50.148c0.107-0.542,0.579-2.944-0.402-3.137c-0.981-0.193-1.454,2.209-1.56,2.751
				s-0.14,3.03,0.402,3.137S62.527,50.69,62.634,50.148z"/>
		</g>
	</g>
</g>
<g id="Multicolor" style="display:none;">
	<g style="display:inline;">
		<g>
			<circle style="fill:#FFFFFF;" cx="52" cy="40" r="2"/>
		</g>
		<g>
			<circle style="fill:#FFFFFF;" cx="58" cy="40" r="2"/>
		</g>
		<g>
			<path style="fill:#DF2C2C;" d="M55,41c-11.389,0-20.752,8.107-25.202,12.78c-0.764,0.802-1.161,1.885-1.097,2.991
				C28.997,61.872,48.121,77,51.724,77h6.552c3.751,0,22.729-15.209,23.02-20.229c0.064-1.105-0.331-2.19-1.094-2.991
				C75.752,49.107,66.389,41,55,41z"/>
		</g>
		<g>
			<path style="fill:#FA5655;" d="M55,41c-11.389,0-20.752,8.107-25.202,12.78c-0.764,0.802-1.161,1.885-1.097,2.99
				c0.126,2.165,3.646,6.136,7.928,9.99l24.884-24.884C59.435,41.329,57.26,41,55,41z"/>
		</g>
		<g>
			<path style="fill:#DF2C2C;" d="M47.687,23.147c0.23-0.002,0.431,0.154,0.488,0.376c0.057,0.222-0.045,0.455-0.247,0.564
				c-3.144,1.694-6.245,4.338-8.193,7.401c-0.99-0.312-1.862-0.844-2.547-1.607c-0.804-0.877-1.279-1.977-1.445-3.176
				C40.111,24.39,44.421,23.168,47.687,23.147z"/>
		</g>
		<g>
			<path style="fill:#FA5655;" d="M23.453,42.229c-2.11-3.668,3.35-10.755,12.289-15.524c0.166,1.199,0.641,2.299,1.445,3.176
				c3.098,3.45,9.898,2.19,14.364-2.703c0.302-0.331,0.788-0.421,1.189-0.219c0.4,0.202,0.617,0.646,0.531,1.086
				C51.298,38.148,27.449,49.155,23.453,42.229z"/>
		</g>
		<g>
			<path style="fill:#DF2C2C;" d="M62.313,23.147c-0.23-0.002-0.431,0.154-0.488,0.376c-0.057,0.222,0.045,0.455,0.247,0.564
				c3.144,1.694,6.245,4.338,8.193,7.401c0.99-0.312,1.862-0.844,2.547-1.607c0.804-0.877,1.279-1.977,1.445-3.176
				C69.888,24.39,65.578,23.168,62.313,23.147z"/>
		</g>
		<g>
			<path style="fill:#FA5655;" d="M86.547,42.229c2.11-3.668-3.35-10.755-12.289-15.524c-0.166,1.199-0.641,2.299-1.445,3.176
				c-3.098,3.45-9.898,2.19-14.364-2.703c-0.302-0.331-0.788-0.421-1.189-0.219c-0.4,0.202-0.617,0.646-0.531,1.086
				C58.702,38.148,82.551,49.155,86.547,42.229z"/>
		</g>
		<g>
			<path style="fill:#DF2C2C;" d="M74.985,48.995C74.99,48.996,74.995,48.998,75,49c5.119-1.969,8.062-3.758,9.755-5.206
				c-2.791,1.281-7.683,0.405-12.623-1.709l-2.556,3.195C71.563,46.432,73.378,47.709,74.985,48.995z"/>
		</g>
		<g>
			<path style="fill:#DF2C2C;" d="M35.015,48.995c1.607-1.285,3.422-2.563,5.409-3.715l-2.548-3.185
				c-5.248,2.259-10.084,2.862-12.748,1.599C26.802,45.159,29.764,46.986,35,49C35.005,48.998,35.01,48.997,35.015,48.995z"/>
		</g>
		<g>
			<path style="fill:#DF2C2C;" d="M33.437,63.713c-0.833-0.853-1.589-1.684-2.243-2.475c-1.503,1.384-3.154,3.213-4.826,5.645
				c-1.216,1.77,0.87,6.21,2.098,6.706C28.085,73.435,27.289,68.05,33.437,63.713z"/>
		</g>
		<g>
			<path style="fill:#DF2C2C;" d="M40.247,69.846c-0.91-0.737-1.816-1.499-2.701-2.273c-1.611,1.422-3.413,3.361-5.239,6.018
				c-1.216,1.77,0.87,6.21,2.099,6.706C34.007,80.137,33.158,74.266,40.247,69.846z"/>
		</g>
		<g>
			<path style="fill:#DF2C2C;" d="M48.125,75.473c-1.024-0.605-2.179-1.362-3.407-2.23c-1.894,1.461-4.172,3.68-6.489,7.051
				c-1.216,1.77,0.87,6.21,2.098,6.706C39.896,86.826,38.934,79.944,48.125,75.473z"/>
		</g>
		<g>
			<path style="fill:#DF2C2C;" d="M65.302,73.259c-1.224,0.866-2.378,1.622-3.403,2.225c9.165,4.472,8.205,11.341,7.773,11.515
				c1.229-0.496,3.314-4.936,2.099-6.706C69.462,76.935,67.193,74.72,65.302,73.259z"/>
		</g>
		<g>
			<path style="fill:#DF2C2C;" d="M72.461,67.579c-0.882,0.775-1.785,1.538-2.693,2.276c7.073,4.418,6.225,10.281,5.827,10.442
				c1.229-0.496,3.314-4.936,2.099-6.706C75.869,70.938,74.07,69,72.461,67.579z"/>
		</g>
		<g>
			<path style="fill:#DF2C2C;" d="M83.632,66.883c-1.674-2.435-3.327-4.266-4.832-5.651c-0.653,0.791-1.41,1.624-2.241,2.478
				c6.151,4.337,5.356,9.724,4.974,9.878C82.762,73.093,84.848,68.653,83.632,66.883z"/>
		</g>
		<g>
			<path style="fill:#F79392;" d="M41.298,54.157c-0.331-0.442-1.8-2.4-1-3c0.8-0.6,2.269,1.358,2.6,1.8
				c0.331,0.442,1.442,2.669,1,3C43.456,56.289,41.629,54.599,41.298,54.157z"/>
		</g>
		<g>
			<path style="fill:#F79392;" d="M47.366,50.148c-0.107-0.542-0.579-2.944,0.402-3.137c0.981-0.193,1.454,2.209,1.56,2.751
				s0.14,3.03-0.402,3.137S47.473,50.69,47.366,50.148z"/>
		</g>
		<g>
			<path style="fill:#F79392;" d="M53.999,50.06c0.004-0.552,0.022-3,1.022-2.993s0.982,2.455,0.978,3.007
				c-0.004,0.552-0.469,2.997-1.022,2.993C54.425,53.063,53.995,50.612,53.999,50.06z"/>
		</g>
		<g>
			<path style="fill:#F79392;" d="M68.702,54.157c0.331-0.442,1.8-2.4,1-3c-0.8-0.6-2.269,1.358-2.6,1.8
				c-0.331,0.442-1.442,2.669-1,3C66.544,56.289,68.371,54.599,68.702,54.157z"/>
		</g>
		<g>
			<path style="fill:#F79392;" d="M62.634,50.148c0.107-0.542,0.579-2.944-0.402-3.137c-0.981-0.193-1.454,2.209-1.56,2.751
				s-0.14,3.03,0.402,3.137S62.527,50.69,62.634,50.148z"/>
		</g>
	</g>
</g>
<g id="Blue" style="display:none;">
	<g style="display:inline;">
		<g>
			<circle style="fill:#FFFFFF;" cx="52" cy="40" r="2"/>
		</g>
		<g>
			<circle style="fill:#FFFFFF;" cx="58" cy="40" r="2"/>
		</g>
		<g>
			<path style="fill:#0081A1;" d="M55,41c-11.39,0-20.752,8.107-25.202,12.78c-0.764,0.802-1.161,1.885-1.097,2.991
				C28.997,61.873,48.121,77,51.725,77h6.551c3.751,0,22.728-15.208,23.02-20.229c0.064-1.105-0.331-2.189-1.094-2.991
				C75.752,49.107,66.389,41,55,41z"/>
		</g>
		<g>
			<path style="fill:#009FC7;" d="M55,41c-11.39,0-20.752,8.107-25.202,12.78c-0.764,0.802-1.161,1.885-1.097,2.991
				c0.126,2.165,3.646,6.136,7.928,9.99l24.884-24.884C59.436,41.329,57.26,41,55,41z"/>
		</g>
		<g>
			<path style="fill:#0F6175;" d="M47.688,23.146c0.229-0.001,0.431,0.154,0.487,0.376c0.058,0.222-0.045,0.455-0.247,0.564
				c-3.145,1.694-6.244,4.338-8.192,7.401c-0.989-0.312-1.862-0.844-2.548-1.607c-0.805-0.877-1.279-1.977-1.445-3.176
				C40.111,24.39,44.422,23.169,47.688,23.146z"/>
		</g>
		<g>
			<path style="fill:#0081A1;" d="M23.453,42.229c-2.11-3.668,3.35-10.754,12.289-15.524c0.166,1.199,0.641,2.299,1.445,3.176
				c3.098,3.45,9.898,2.19,14.364-2.703c0.303-0.33,0.788-0.42,1.188-0.218c0.4,0.202,0.617,0.646,0.531,1.085
				C51.298,38.148,27.449,49.155,23.453,42.229z"/>
		</g>
		<g>
			<path style="fill:#0F6175;" d="M62.312,23.146c-0.229-0.001-0.431,0.154-0.488,0.376c-0.057,0.222,0.045,0.455,0.248,0.564
				c3.143,1.694,6.244,4.338,8.192,7.401c0.989-0.312,1.862-0.844,2.548-1.607c0.805-0.877,1.279-1.977,1.445-3.176
				C69.889,24.39,65.578,23.169,62.312,23.146z"/>
		</g>
		<g>
			<path style="fill:#0081A1;" d="M86.547,42.229c2.11-3.668-3.35-10.754-12.289-15.524c-0.166,1.199-0.641,2.299-1.445,3.176
				c-3.098,3.45-9.898,2.19-14.365-2.703c-0.302-0.33-0.787-0.42-1.188-0.218c-0.4,0.202-0.618,0.646-0.532,1.085
				C58.702,38.148,82.551,49.155,86.547,42.229z"/>
		</g>
		<g>
			<path style="fill:#0F6175;" d="M74.985,48.995C74.99,48.997,74.995,48.999,75,49c5.119-1.969,8.062-3.758,9.755-5.206
				c-2.79,1.28-7.683,0.404-12.623-1.709l-2.556,3.195C71.563,46.432,73.378,47.709,74.985,48.995z"/>
		</g>
		<g>
			<path style="fill:#0F6175;" d="M35.015,48.995c1.608-1.286,3.422-2.564,5.409-3.715l-2.548-3.185
				c-5.248,2.259-10.085,2.862-12.748,1.6C26.802,45.159,29.764,46.986,35,49C35.005,48.999,35.01,48.997,35.015,48.995z"/>
		</g>
		<g>
			<path style="fill:#0F6175;" d="M33.437,63.713c-0.832-0.853-1.589-1.685-2.243-2.476c-1.503,1.384-3.154,3.213-4.826,5.646
				c-1.215,1.77,0.87,6.21,2.099,6.706C28.085,73.435,27.289,68.05,33.437,63.713z"/>
		</g>
		<g>
			<path style="fill:#0F6175;" d="M40.247,69.847c-0.911-0.737-1.816-1.5-2.701-2.273c-1.61,1.422-3.413,3.36-5.239,6.018
				c-1.216,1.77,0.87,6.21,2.099,6.706C34.007,80.137,33.158,74.266,40.247,69.847z"/>
		</g>
		<g>
			<path style="fill:#0F6175;" d="M48.125,75.473c-1.024-0.605-2.18-1.362-3.407-2.23c-1.894,1.461-4.172,3.68-6.488,7.051
				c-1.216,1.77,0.87,6.21,2.099,6.706C39.896,86.826,38.934,79.944,48.125,75.473z"/>
		</g>
		<g>
			<path style="fill:#0F6175;" d="M65.302,73.259c-1.224,0.867-2.378,1.622-3.403,2.226c9.165,4.472,8.205,11.341,7.773,11.515
				c1.229-0.496,3.314-4.936,2.099-6.706C69.462,76.936,67.192,74.72,65.302,73.259z"/>
		</g>
		<g>
			<path style="fill:#0F6175;" d="M72.461,67.579c-0.882,0.775-1.785,1.538-2.693,2.276c7.073,4.418,6.226,10.281,5.827,10.442
				c1.229-0.496,3.314-4.936,2.099-6.706C75.869,70.938,74.07,69.001,72.461,67.579z"/>
		</g>
		<g>
			<path style="fill:#0F6175;" d="M83.633,66.883c-1.674-2.435-3.327-4.266-4.832-5.65c-0.653,0.791-1.41,1.624-2.241,2.478
				c6.151,4.337,5.355,9.724,4.974,9.878C82.762,73.093,84.848,68.653,83.633,66.883z"/>
		</g>
		<g>
			<path style="fill:#E1F5FA;" d="M41.298,54.157c-0.331-0.442-1.8-2.4-1-3c0.8-0.6,2.269,1.358,2.6,1.8
				c0.331,0.442,1.442,2.668,1,3C43.456,56.289,41.629,54.599,41.298,54.157z"/>
		</g>
		<g>
			<path style="fill:#E1F5FA;" d="M47.365,50.148c-0.105-0.542-0.578-2.944,0.402-3.137c0.981-0.193,1.454,2.209,1.561,2.751
				c0.106,0.542,0.141,3.03-0.402,3.137C48.385,53.005,47.473,50.689,47.365,50.148z"/>
		</g>
		<g>
			<path style="fill:#E1F5FA;" d="M53.999,50.06c0.005-0.552,0.022-3,1.021-2.993c1,0.007,0.983,2.455,0.979,3.007
				c-0.004,0.552-0.47,2.997-1.021,2.993C54.426,53.063,53.995,50.612,53.999,50.06z"/>
		</g>
		<g>
			<path style="fill:#E1F5FA;" d="M68.702,54.157c0.331-0.442,1.8-2.4,1-3c-0.8-0.6-2.269,1.358-2.6,1.8
				c-0.332,0.442-1.442,2.668-1,3C66.544,56.289,68.371,54.599,68.702,54.157z"/>
		</g>
		<g>
			<path style="fill:#E1F5FA;" d="M62.634,50.148c0.106-0.542,0.579-2.944-0.401-3.137c-0.981-0.193-1.454,2.209-1.56,2.751
				c-0.107,0.542-0.141,3.03,0.402,3.137C61.615,53.005,62.527,50.689,62.634,50.148z"/>
		</g>
		<g>
			<path style="fill:#009FC7;" d="M37.188,29.881c-0.805-0.877-1.279-1.977-1.445-3.176c-8.939,4.769-14.399,11.855-12.289,15.524
				c0.195,0.34,0.451,0.624,0.738,0.879l13.113-13.114C37.268,29.955,37.225,29.922,37.188,29.881z"/>
		</g>
	</g>
</g>
<g id="R-Blue" style="display:none;">
	<circle style="display:inline;fill:#81D2EB;" cx="55" cy="55" r="55"/>
	<g style="display:inline;">
		<g>
			<circle style="fill:#FFFFFF;" cx="52" cy="40" r="2"/>
		</g>
		<g>
			<circle style="fill:#FFFFFF;" cx="58" cy="40" r="2"/>
		</g>
		<g>
			<path style="fill:#0081A1;" d="M55,41c-11.39,0-20.752,8.107-25.202,12.78c-0.764,0.802-1.161,1.885-1.097,2.991
				C28.997,61.873,48.121,77,51.725,77h6.551c3.751,0,22.728-15.209,23.02-20.229c0.064-1.105-0.331-2.189-1.094-2.991
				C75.752,49.107,66.389,41,55,41z"/>
		</g>
		<g>
			<path style="fill:#009FC7;" d="M55,41c-11.39,0-20.752,8.107-25.202,12.78c-0.764,0.802-1.161,1.885-1.097,2.991
				c0.126,2.165,3.646,6.136,7.928,9.99l24.884-24.884C59.436,41.329,57.26,41,55,41z"/>
		</g>
		<g>
			<path style="fill:#0F6175;" d="M47.688,23.146c0.229-0.001,0.431,0.154,0.487,0.376c0.058,0.222-0.045,0.455-0.247,0.564
				c-3.145,1.694-6.244,4.338-8.192,7.401c-0.989-0.312-1.862-0.844-2.548-1.607c-0.805-0.877-1.279-1.977-1.445-3.176
				C40.111,24.39,44.422,23.168,47.688,23.146z"/>
		</g>
		<g>
			<path style="fill:#0081A1;" d="M23.453,42.229c-2.11-3.668,3.35-10.754,12.289-15.524c0.166,1.199,0.641,2.299,1.445,3.176
				c3.098,3.45,9.898,2.19,14.364-2.703c0.303-0.33,0.788-0.42,1.188-0.218c0.4,0.202,0.617,0.646,0.531,1.085
				C51.298,38.148,27.449,49.155,23.453,42.229z"/>
		</g>
		<g>
			<path style="fill:#0F6175;" d="M62.312,23.146c-0.229-0.001-0.431,0.154-0.488,0.376c-0.057,0.222,0.045,0.455,0.248,0.564
				c3.143,1.694,6.244,4.338,8.192,7.401c0.989-0.312,1.862-0.844,2.548-1.607c0.805-0.877,1.279-1.977,1.445-3.176
				C69.889,24.39,65.578,23.168,62.312,23.146z"/>
		</g>
		<g>
			<path style="fill:#0081A1;" d="M86.547,42.229c2.11-3.668-3.35-10.754-12.289-15.524c-0.166,1.199-0.641,2.299-1.445,3.176
				c-3.098,3.45-9.898,2.19-14.365-2.703c-0.302-0.33-0.787-0.42-1.188-0.218c-0.4,0.202-0.618,0.646-0.532,1.085
				C58.702,38.148,82.551,49.155,86.547,42.229z"/>
		</g>
		<g>
			<path style="fill:#0F6175;" d="M74.985,48.995C74.99,48.997,74.995,48.998,75,49c5.119-1.969,8.062-3.758,9.755-5.206
				c-2.79,1.28-7.683,0.404-12.623-1.709l-2.556,3.195C71.563,46.432,73.378,47.709,74.985,48.995z"/>
		</g>
		<g>
			<path style="fill:#0F6175;" d="M35.015,48.995c1.608-1.286,3.422-2.564,5.409-3.715l-2.548-3.185
				c-5.248,2.259-10.085,2.862-12.748,1.6C26.802,45.159,29.764,46.986,35,49C35.005,48.998,35.01,48.997,35.015,48.995z"/>
		</g>
		<g>
			<path style="fill:#0F6175;" d="M33.437,63.713c-0.832-0.853-1.589-1.685-2.243-2.476c-1.503,1.384-3.154,3.213-4.826,5.645
				c-1.215,1.77,0.87,6.21,2.099,6.706C28.085,73.435,27.289,68.05,33.437,63.713z"/>
		</g>
		<g>
			<path style="fill:#0F6175;" d="M40.247,69.847c-0.911-0.737-1.816-1.499-2.701-2.273c-1.61,1.422-3.413,3.36-5.239,6.018
				c-1.216,1.77,0.87,6.21,2.099,6.706C34.007,80.137,33.158,74.266,40.247,69.847z"/>
		</g>
		<g>
			<path style="fill:#0F6175;" d="M48.125,75.473c-1.024-0.605-2.18-1.362-3.407-2.23c-1.894,1.461-4.172,3.68-6.488,7.051
				c-1.216,1.77,0.87,6.21,2.099,6.706C39.896,86.826,38.934,79.944,48.125,75.473z"/>
		</g>
		<g>
			<path style="fill:#0F6175;" d="M65.302,73.259c-1.224,0.867-2.378,1.622-3.403,2.226c9.165,4.472,8.205,11.341,7.773,11.515
				c1.229-0.496,3.314-4.936,2.099-6.706C69.462,76.935,67.192,74.72,65.302,73.259z"/>
		</g>
		<g>
			<path style="fill:#0F6175;" d="M72.461,67.579c-0.882,0.775-1.785,1.538-2.693,2.276c7.073,4.418,6.226,10.281,5.827,10.442
				c1.229-0.496,3.314-4.936,2.099-6.706C75.869,70.938,74.07,69,72.461,67.579z"/>
		</g>
		<g>
			<path style="fill:#0F6175;" d="M83.633,66.883c-1.674-2.435-3.327-4.266-4.832-5.65c-0.653,0.791-1.41,1.624-2.241,2.478
				c6.151,4.337,5.355,9.724,4.974,9.878C82.762,73.093,84.848,68.653,83.633,66.883z"/>
		</g>
		<g>
			<path style="fill:#E1F5FA;" d="M41.298,54.157c-0.331-0.442-1.8-2.4-1-3c0.8-0.6,2.269,1.358,2.6,1.8
				c0.331,0.442,1.442,2.668,1,3C43.456,56.289,41.629,54.599,41.298,54.157z"/>
		</g>
		<g>
			<path style="fill:#E1F5FA;" d="M47.365,50.148c-0.105-0.542-0.578-2.944,0.402-3.137c0.981-0.193,1.454,2.209,1.561,2.751
				c0.106,0.542,0.141,3.03-0.402,3.137C48.385,53.005,47.473,50.689,47.365,50.148z"/>
		</g>
		<g>
			<path style="fill:#E1F5FA;" d="M53.999,50.06c0.005-0.552,0.022-3,1.021-2.993c1,0.007,0.983,2.455,0.979,3.007
				c-0.004,0.552-0.47,2.997-1.021,2.993C54.426,53.063,53.995,50.612,53.999,50.06z"/>
		</g>
		<g>
			<path style="fill:#E1F5FA;" d="M68.702,54.157c0.331-0.442,1.8-2.4,1-3c-0.8-0.6-2.269,1.358-2.6,1.8
				c-0.332,0.442-1.442,2.668-1,3C66.544,56.289,68.371,54.599,68.702,54.157z"/>
		</g>
		<g>
			<path style="fill:#E1F5FA;" d="M62.634,50.148c0.106-0.542,0.579-2.944-0.401-3.137c-0.981-0.193-1.454,2.209-1.56,2.751
				c-0.107,0.542-0.141,3.03,0.402,3.137C61.615,53.005,62.527,50.689,62.634,50.148z"/>
		</g>
		<g>
			<path style="fill:#009FC7;" d="M37.188,29.881c-0.805-0.877-1.279-1.977-1.445-3.176c-8.939,4.769-14.399,11.855-12.289,15.524
				c0.195,0.34,0.451,0.624,0.738,0.879l13.113-13.114C37.268,29.955,37.225,29.922,37.188,29.881z"/>
		</g>
	</g>
</g>
<g id="Green" style="display:none;">
	<g style="display:inline;">
		<g>
			<circle style="fill:#FFFFFF;" cx="52" cy="40" r="2"/>
		</g>
		<g>
			<circle style="fill:#FFFFFF;" cx="58" cy="40" r="2"/>
		</g>
		<g>
			<path style="fill:#009687;" d="M55,41c-11.39,0-20.752,8.107-25.202,12.78c-0.764,0.802-1.161,1.885-1.097,2.991
				C28.997,61.873,48.121,77,51.725,77h6.551c3.751,0,22.729-15.208,23.021-20.229c0.064-1.105-0.331-2.189-1.094-2.991
				C75.752,49.107,66.389,41,55,41z"/>
		</g>
		<g>
			<path style="fill:#00B8A5;" d="M55,41c-11.39,0-20.752,8.107-25.202,12.78c-0.764,0.802-1.161,1.885-1.097,2.991
				c0.126,2.165,3.646,6.136,7.928,9.99l24.884-24.884C59.435,41.329,57.26,41,55,41z"/>
		</g>
		<g>
			<path style="fill:#14635B;" d="M47.687,23.146c0.229-0.001,0.431,0.154,0.487,0.376c0.058,0.222-0.045,0.455-0.247,0.564
				c-3.145,1.694-6.244,4.338-8.192,7.401c-0.989-0.312-1.862-0.844-2.548-1.607c-0.805-0.877-1.279-1.977-1.445-3.176
				C40.111,24.39,44.422,23.169,47.687,23.146z"/>
		</g>
		<g>
			<path style="fill:#009687;" d="M23.453,42.229c-2.11-3.668,3.35-10.754,12.289-15.524c0.166,1.199,0.641,2.299,1.445,3.176
				c3.098,3.45,9.898,2.19,14.364-2.703c0.303-0.33,0.788-0.42,1.188-0.218c0.4,0.202,0.617,0.646,0.531,1.085
				C51.298,38.148,27.449,49.155,23.453,42.229z"/>
		</g>
		<g>
			<path style="fill:#14635B;" d="M62.312,23.146c-0.229-0.001-0.431,0.154-0.488,0.376c-0.057,0.222,0.045,0.455,0.248,0.564
				c3.144,1.694,6.244,4.338,8.192,7.401c0.989-0.312,1.862-0.844,2.548-1.607c0.805-0.877,1.279-1.977,1.445-3.176
				C69.889,24.39,65.578,23.169,62.312,23.146z"/>
		</g>
		<g>
			<path style="fill:#009687;" d="M86.547,42.229c2.11-3.668-3.35-10.754-12.289-15.524c-0.166,1.199-0.641,2.299-1.445,3.176
				c-3.098,3.45-9.898,2.19-14.365-2.703c-0.302-0.33-0.787-0.42-1.188-0.218c-0.4,0.202-0.618,0.646-0.532,1.085
				C58.702,38.148,82.551,49.155,86.547,42.229z"/>
		</g>
		<g>
			<path style="fill:#14635B;" d="M74.985,48.995C74.99,48.997,74.995,48.999,75,49c5.119-1.969,8.062-3.758,9.755-5.206
				c-2.79,1.28-7.683,0.404-12.623-1.709l-2.556,3.195C71.563,46.432,73.378,47.709,74.985,48.995z"/>
		</g>
		<g>
			<path style="fill:#14635B;" d="M35.015,48.995c1.608-1.286,3.422-2.564,5.409-3.715l-2.548-3.185
				c-5.248,2.259-10.085,2.862-12.748,1.6C26.802,45.159,29.764,46.986,35,49C35.005,48.999,35.01,48.997,35.015,48.995z"/>
		</g>
		<g>
			<path style="fill:#14635B;" d="M33.436,63.713c-0.832-0.853-1.589-1.685-2.243-2.476c-1.503,1.384-3.154,3.213-4.826,5.646
				c-1.215,1.77,0.87,6.21,2.099,6.706C28.085,73.435,27.289,68.05,33.436,63.713z"/>
		</g>
		<g>
			<path style="fill:#14635B;" d="M40.247,69.847c-0.911-0.737-1.816-1.5-2.701-2.273c-1.61,1.422-3.413,3.36-5.239,6.018
				c-1.216,1.77,0.87,6.21,2.099,6.706C34.007,80.137,33.158,74.266,40.247,69.847z"/>
		</g>
		<g>
			<path style="fill:#14635B;" d="M48.125,75.473c-1.024-0.605-2.18-1.362-3.407-2.23c-1.894,1.461-4.172,3.68-6.488,7.051
				c-1.216,1.77,0.87,6.21,2.099,6.706C39.895,86.826,38.934,79.944,48.125,75.473z"/>
		</g>
		<g>
			<path style="fill:#14635B;" d="M65.302,73.259c-1.224,0.867-2.378,1.622-3.403,2.226c9.165,4.472,8.205,11.341,7.774,11.515
				c1.229-0.496,3.314-4.936,2.099-6.706C69.462,76.936,67.192,74.72,65.302,73.259z"/>
		</g>
		<g>
			<path style="fill:#14635B;" d="M72.461,67.579c-0.882,0.775-1.785,1.538-2.693,2.276c7.073,4.418,6.226,10.281,5.827,10.442
				c1.229-0.496,3.314-4.936,2.099-6.706C75.869,70.938,74.07,69.001,72.461,67.579z"/>
		</g>
		<g>
			<path style="fill:#14635B;" d="M83.633,66.883c-1.674-2.435-3.327-4.266-4.832-5.65c-0.653,0.791-1.41,1.624-2.241,2.478
				c6.151,4.337,5.355,9.724,4.974,9.878C82.762,73.093,84.848,68.653,83.633,66.883z"/>
		</g>
		<g>
			<path style="fill:#D7FCF9;" d="M41.298,54.157c-0.331-0.442-1.8-2.4-1-3c0.8-0.6,2.269,1.358,2.6,1.8
				c0.331,0.442,1.442,2.668,1,3C43.456,56.289,41.629,54.599,41.298,54.157z"/>
		</g>
		<g>
			<path style="fill:#D7FCF9;" d="M47.365,50.148c-0.105-0.542-0.578-2.944,0.402-3.137c0.981-0.193,1.454,2.209,1.561,2.751
				c0.106,0.542,0.141,3.03-0.402,3.137C48.385,53.005,47.473,50.689,47.365,50.148z"/>
		</g>
		<g>
			<path style="fill:#D7FCF9;" d="M53.999,50.06c0.005-0.552,0.022-3,1.021-2.993c1,0.007,0.983,2.455,0.979,3.007
				c-0.004,0.552-0.47,2.997-1.021,2.993C54.426,53.063,53.995,50.612,53.999,50.06z"/>
		</g>
		<g>
			<path style="fill:#D7FCF9;" d="M68.702,54.157c0.331-0.442,1.8-2.4,1-3c-0.8-0.6-2.269,1.358-2.6,1.8
				c-0.332,0.442-1.442,2.668-1,3C66.544,56.289,68.371,54.599,68.702,54.157z"/>
		</g>
		<g>
			<path style="fill:#D7FCF9;" d="M62.634,50.148c0.106-0.542,0.579-2.944-0.401-3.137c-0.981-0.193-1.454,2.209-1.56,2.751
				c-0.107,0.542-0.141,3.03,0.402,3.137C61.615,53.005,62.527,50.689,62.634,50.148z"/>
		</g>
		<g>
			<path style="fill:#00B8A5;" d="M37.187,29.881c-0.805-0.877-1.279-1.977-1.445-3.176c-8.939,4.77-14.399,11.855-12.289,15.524
				c0.195,0.34,0.451,0.624,0.738,0.879l13.113-13.114C37.268,29.955,37.225,29.922,37.187,29.881z"/>
		</g>
	</g>
</g>
<g id="R-Green" style="display:none;">
	<circle style="display:inline;fill:#77E0C4;" cx="55" cy="55" r="55"/>
	<g style="display:inline;">
		<g>
			<circle style="fill:#FFFFFF;" cx="52" cy="40" r="2"/>
		</g>
		<g>
			<circle style="fill:#FFFFFF;" cx="58" cy="40" r="2"/>
		</g>
		<g>
			<path style="fill:#009687;" d="M55,41c-11.39,0-20.752,8.107-25.202,12.78c-0.764,0.802-1.161,1.885-1.097,2.991
				C28.997,61.873,48.121,77,51.725,77h6.551c3.751,0,22.729-15.208,23.021-20.229c0.064-1.105-0.331-2.189-1.094-2.991
				C75.752,49.107,66.389,41,55,41z"/>
		</g>
		<g>
			<path style="fill:#00B8A5;" d="M55,41c-11.39,0-20.752,8.107-25.202,12.78c-0.764,0.802-1.161,1.885-1.097,2.991
				c0.126,2.165,3.645,6.136,7.928,9.99l24.884-24.884C59.436,41.329,57.26,41,55,41z"/>
		</g>
		<g>
			<path style="fill:#14635B;" d="M47.688,23.146c0.229-0.001,0.431,0.154,0.487,0.376c0.058,0.222-0.045,0.455-0.247,0.564
				c-3.145,1.694-6.244,4.338-8.192,7.401c-0.989-0.312-1.862-0.844-2.548-1.607c-0.805-0.877-1.279-1.977-1.445-3.176
				C40.111,24.39,44.422,23.169,47.688,23.146z"/>
		</g>
		<g>
			<path style="fill:#009687;" d="M23.453,42.229c-2.11-3.668,3.35-10.754,12.289-15.524c0.166,1.199,0.641,2.299,1.445,3.176
				c3.098,3.45,9.898,2.19,14.364-2.703c0.303-0.33,0.788-0.42,1.188-0.218c0.4,0.202,0.617,0.646,0.531,1.085
				C51.298,38.148,27.449,49.155,23.453,42.229z"/>
		</g>
		<g>
			<path style="fill:#14635B;" d="M62.312,23.146c-0.229-0.001-0.431,0.154-0.488,0.376c-0.057,0.222,0.045,0.455,0.248,0.564
				c3.143,1.694,6.244,4.338,8.192,7.401c0.989-0.312,1.862-0.844,2.548-1.607c0.805-0.877,1.279-1.977,1.445-3.176
				C69.889,24.39,65.578,23.169,62.312,23.146z"/>
		</g>
		<g>
			<path style="fill:#009687;" d="M86.547,42.229c2.11-3.668-3.35-10.754-12.289-15.524c-0.166,1.199-0.641,2.299-1.445,3.176
				c-3.098,3.45-9.898,2.19-14.365-2.703c-0.302-0.33-0.787-0.42-1.188-0.218c-0.4,0.202-0.618,0.646-0.532,1.085
				C58.702,38.148,82.551,49.155,86.547,42.229z"/>
		</g>
		<g>
			<path style="fill:#14635B;" d="M74.985,48.995C74.99,48.997,74.995,48.999,75,49c5.119-1.969,8.062-3.758,9.755-5.206
				c-2.79,1.28-7.683,0.404-12.623-1.709l-2.556,3.195C71.563,46.432,73.378,47.709,74.985,48.995z"/>
		</g>
		<g>
			<path style="fill:#14635B;" d="M35.015,48.995c1.608-1.286,3.422-2.564,5.409-3.715l-2.548-3.185
				c-5.248,2.259-10.085,2.862-12.748,1.6C26.802,45.159,29.764,46.986,35,49C35.005,48.999,35.01,48.997,35.015,48.995z"/>
		</g>
		<g>
			<path style="fill:#14635B;" d="M33.437,63.713c-0.832-0.853-1.589-1.685-2.243-2.476c-1.503,1.384-3.154,3.213-4.826,5.646
				c-1.215,1.77,0.87,6.21,2.099,6.706C28.085,73.435,27.289,68.05,33.437,63.713z"/>
		</g>
		<g>
			<path style="fill:#14635B;" d="M40.247,69.847c-0.911-0.737-1.816-1.5-2.701-2.273c-1.61,1.422-3.413,3.36-5.239,6.018
				c-1.216,1.77,0.87,6.21,2.099,6.706C34.007,80.137,33.158,74.266,40.247,69.847z"/>
		</g>
		<g>
			<path style="fill:#14635B;" d="M48.125,75.473c-1.024-0.605-2.18-1.362-3.407-2.23c-1.894,1.461-4.172,3.68-6.488,7.051
				c-1.216,1.77,0.87,6.21,2.099,6.706C39.896,86.826,38.934,79.944,48.125,75.473z"/>
		</g>
		<g>
			<path style="fill:#14635B;" d="M65.302,73.259c-1.224,0.867-2.378,1.622-3.403,2.226c9.165,4.472,8.205,11.341,7.773,11.515
				c1.229-0.496,3.314-4.936,2.099-6.706C69.462,76.936,67.192,74.72,65.302,73.259z"/>
		</g>
		<g>
			<path style="fill:#14635B;" d="M72.461,67.579c-0.882,0.775-1.785,1.538-2.693,2.276c7.073,4.418,6.226,10.281,5.827,10.442
				c1.228-0.496,3.314-4.936,2.099-6.706C75.869,70.938,74.07,69.001,72.461,67.579z"/>
		</g>
		<g>
			<path style="fill:#14635B;" d="M83.633,66.883c-1.674-2.435-3.327-4.266-4.832-5.65c-0.653,0.791-1.41,1.624-2.241,2.478
				c6.151,4.337,5.355,9.724,4.974,9.878C82.762,73.093,84.848,68.653,83.633,66.883z"/>
		</g>
		<g>
			<path style="fill:#D7FCF9;" d="M41.298,54.157c-0.331-0.442-1.8-2.4-1-3c0.8-0.6,2.268,1.358,2.6,1.8
				c0.331,0.442,1.442,2.668,1,3C43.456,56.289,41.629,54.599,41.298,54.157z"/>
		</g>
		<g>
			<path style="fill:#D7FCF9;" d="M47.365,50.148c-0.105-0.542-0.578-2.944,0.402-3.137c0.981-0.193,1.454,2.209,1.56,2.751
				c0.107,0.542,0.141,3.03-0.402,3.137C48.385,53.005,47.473,50.689,47.365,50.148z"/>
		</g>
		<g>
			<path style="fill:#D7FCF9;" d="M53.999,50.06c0.005-0.552,0.022-3,1.021-2.993c1,0.007,0.983,2.455,0.979,3.007
				c-0.004,0.552-0.47,2.997-1.021,2.993C54.426,53.063,53.995,50.612,53.999,50.06z"/>
		</g>
		<g>
			<path style="fill:#D7FCF9;" d="M68.702,54.157c0.331-0.442,1.8-2.4,1-3c-0.8-0.6-2.269,1.358-2.6,1.8
				c-0.332,0.442-1.442,2.668-1,3C66.544,56.289,68.371,54.599,68.702,54.157z"/>
		</g>
		<g>
			<path style="fill:#D7FCF9;" d="M62.634,50.148c0.106-0.542,0.579-2.944-0.401-3.137c-0.981-0.193-1.454,2.209-1.56,2.751
				c-0.107,0.542-0.141,3.03,0.402,3.137C61.615,53.005,62.527,50.689,62.634,50.148z"/>
		</g>
		<g>
			<path style="fill:#00B8A5;" d="M37.188,29.881c-0.805-0.877-1.279-1.977-1.445-3.176c-8.939,4.769-14.399,11.855-12.289,15.524
				c0.195,0.34,0.451,0.624,0.738,0.879l13.113-13.114C37.268,29.955,37.225,29.922,37.188,29.881z"/>
		</g>
	</g>
</g>
<g id="Red" style="display:none;">
	<g style="display:inline;">
		<g>
			<circle style="fill:#FFFFFF;" cx="52" cy="40" r="2"/>
		</g>
		<g>
			<circle style="fill:#FFFFFF;" cx="58" cy="40" r="2"/>
		</g>
		<g>
			<path style="fill:#C23023;" d="M55,41c-11.39,0-20.752,8.107-25.202,12.78c-0.764,0.802-1.161,1.885-1.097,2.991
				C28.997,61.873,48.121,77,51.725,77h6.551c3.751,0,22.728-15.208,23.021-20.229c0.064-1.105-0.331-2.189-1.094-2.991
				C75.752,49.107,66.389,41,55,41z"/>
		</g>
		<g>
			<path style="fill:#E54B44;" d="M55,41c-11.39,0-20.752,8.107-25.202,12.78c-0.764,0.802-1.161,1.885-1.097,2.991
				c0.126,2.165,3.645,6.136,7.928,9.99l24.884-24.884C59.435,41.329,57.26,41,55,41z"/>
		</g>
		<g>
			<path style="fill:#7D261E;" d="M47.687,23.146c0.23-0.001,0.431,0.154,0.487,0.376c0.058,0.222-0.045,0.455-0.247,0.564
				c-3.145,1.694-6.244,4.338-8.192,7.401c-0.989-0.312-1.862-0.844-2.548-1.607c-0.805-0.877-1.279-1.977-1.445-3.176
				C40.111,24.39,44.422,23.169,47.687,23.146z"/>
		</g>
		<g>
			<path style="fill:#C23023;" d="M23.453,42.229c-2.11-3.668,3.35-10.754,12.289-15.524c0.166,1.199,0.641,2.299,1.445,3.176
				c3.098,3.45,9.898,2.19,14.364-2.703c0.303-0.33,0.788-0.42,1.188-0.218c0.4,0.202,0.617,0.646,0.531,1.085
				C51.298,38.148,27.449,49.155,23.453,42.229z"/>
		</g>
		<g>
			<path style="fill:#7D261E;" d="M62.312,23.146c-0.229-0.001-0.431,0.154-0.488,0.376c-0.057,0.222,0.045,0.455,0.248,0.564
				c3.143,1.694,6.244,4.338,8.192,7.401c0.989-0.312,1.862-0.844,2.548-1.607c0.805-0.877,1.279-1.977,1.445-3.176
				C69.889,24.39,65.578,23.169,62.312,23.146z"/>
		</g>
		<g>
			<path style="fill:#C23023;" d="M86.547,42.229c2.11-3.668-3.35-10.754-12.289-15.524c-0.166,1.199-0.641,2.299-1.445,3.176
				c-3.098,3.45-9.898,2.19-14.365-2.703c-0.302-0.33-0.787-0.42-1.188-0.218c-0.4,0.202-0.618,0.646-0.532,1.085
				C58.702,38.148,82.551,49.155,86.547,42.229z"/>
		</g>
		<g>
			<path style="fill:#7D261E;" d="M74.985,48.995C74.99,48.997,74.995,48.999,75,49c5.119-1.969,8.061-3.758,9.755-5.206
				c-2.79,1.28-7.683,0.404-12.623-1.709l-2.556,3.195C71.563,46.432,73.378,47.709,74.985,48.995z"/>
		</g>
		<g>
			<path style="fill:#7D261E;" d="M35.015,48.995c1.608-1.286,3.422-2.563,5.409-3.715l-2.548-3.185
				c-5.248,2.259-10.085,2.862-12.748,1.6C26.802,45.159,29.764,46.986,35,49C35.005,48.999,35.01,48.997,35.015,48.995z"/>
		</g>
		<g>
			<path style="fill:#7D261E;" d="M33.436,63.713c-0.832-0.853-1.589-1.685-2.243-2.476c-1.503,1.384-3.154,3.213-4.826,5.646
				c-1.215,1.77,0.87,6.21,2.099,6.706C28.085,73.435,27.289,68.05,33.436,63.713z"/>
		</g>
		<g>
			<path style="fill:#7D261E;" d="M40.247,69.847c-0.911-0.737-1.816-1.5-2.701-2.273c-1.61,1.422-3.413,3.36-5.239,6.018
				c-1.216,1.77,0.87,6.21,2.099,6.706C34.007,80.137,33.158,74.266,40.247,69.847z"/>
		</g>
		<g>
			<path style="fill:#7D261E;" d="M48.125,75.473c-1.024-0.605-2.18-1.362-3.407-2.23c-1.894,1.461-4.172,3.68-6.488,7.051
				c-1.216,1.77,0.87,6.21,2.099,6.706C39.896,86.826,38.934,79.944,48.125,75.473z"/>
		</g>
		<g>
			<path style="fill:#7D261E;" d="M65.302,73.259c-1.224,0.867-2.378,1.622-3.403,2.226c9.165,4.472,8.205,11.341,7.774,11.515
				c1.229-0.496,3.314-4.936,2.099-6.706C69.462,76.936,67.192,74.72,65.302,73.259z"/>
		</g>
		<g>
			<path style="fill:#7D261E;" d="M72.461,67.579c-0.882,0.775-1.785,1.538-2.693,2.276c7.073,4.418,6.226,10.281,5.827,10.442
				c1.229-0.496,3.314-4.936,2.099-6.706C75.869,70.938,74.07,69.001,72.461,67.579z"/>
		</g>
		<g>
			<path style="fill:#7D261E;" d="M83.633,66.883c-1.674-2.435-3.327-4.266-4.832-5.65c-0.653,0.791-1.41,1.624-2.241,2.478
				c6.151,4.337,5.355,9.724,4.974,9.878C82.762,73.093,84.848,68.653,83.633,66.883z"/>
		</g>
		<g>
			<path style="fill:#FFEFED;" d="M41.298,54.157c-0.331-0.442-1.8-2.4-1-3c0.8-0.6,2.268,1.358,2.6,1.8
				c0.331,0.442,1.442,2.668,1,3C43.456,56.289,41.629,54.599,41.298,54.157z"/>
		</g>
		<g>
			<path style="fill:#FFEFED;" d="M47.365,50.148c-0.105-0.542-0.578-2.944,0.402-3.137c0.981-0.193,1.454,2.209,1.56,2.751
				c0.107,0.542,0.141,3.03-0.402,3.137C48.385,53.005,47.473,50.689,47.365,50.148z"/>
		</g>
		<g>
			<path style="fill:#FFEFED;" d="M53.999,50.06c0.005-0.552,0.022-3,1.021-2.993c1,0.007,0.983,2.455,0.979,3.007
				c-0.004,0.552-0.47,2.997-1.021,2.993C54.426,53.063,53.995,50.612,53.999,50.06z"/>
		</g>
		<g>
			<path style="fill:#FFEFED;" d="M68.702,54.157c0.331-0.442,1.8-2.4,1-3c-0.8-0.6-2.268,1.358-2.6,1.8
				c-0.332,0.442-1.442,2.668-1,3C66.544,56.289,68.371,54.599,68.702,54.157z"/>
		</g>
		<g>
			<path style="fill:#FFEFED;" d="M62.634,50.148c0.106-0.542,0.579-2.944-0.401-3.137c-0.981-0.193-1.454,2.209-1.56,2.751
				c-0.107,0.542-0.141,3.03,0.402,3.137C61.615,53.005,62.527,50.689,62.634,50.148z"/>
		</g>
		<g>
			<path style="fill:#E54B44;" d="M37.187,29.881c-0.805-0.877-1.279-1.977-1.445-3.176c-8.94,4.77-14.399,11.855-12.289,15.524
				c0.195,0.34,0.451,0.624,0.738,0.879l13.113-13.114C37.268,29.955,37.225,29.922,37.187,29.881z"/>
		</g>
	</g>
</g>
<g id="R-Red" style="display:none;">
	<circle style="display:inline;fill:#FABBAF;" cx="55" cy="55" r="55"/>
	<g style="display:inline;">
		<g>
			<circle style="fill:#FFFFFF;" cx="52" cy="40" r="2"/>
		</g>
		<g>
			<circle style="fill:#FFFFFF;" cx="58" cy="40" r="2"/>
		</g>
		<g>
			<path style="fill:#C23023;" d="M55,41c-11.39,0-20.752,8.107-25.202,12.78c-0.764,0.802-1.161,1.885-1.097,2.991
				C28.997,61.873,48.121,77,51.725,77h6.551c3.751,0,22.728-15.208,23.021-20.229c0.064-1.105-0.331-2.189-1.094-2.991
				C75.752,49.107,66.389,41,55,41z"/>
		</g>
		<g>
			<path style="fill:#E54B44;" d="M55,41c-11.39,0-20.752,8.107-25.202,12.78c-0.764,0.802-1.161,1.885-1.097,2.991
				c0.126,2.165,3.645,6.136,7.928,9.99l24.884-24.884C59.435,41.329,57.26,41,55,41z"/>
		</g>
		<g>
			<path style="fill:#7D261E;" d="M47.687,23.146c0.23-0.001,0.431,0.154,0.487,0.376c0.058,0.222-0.045,0.455-0.247,0.564
				c-3.145,1.694-6.244,4.338-8.192,7.401c-0.989-0.312-1.862-0.844-2.548-1.607c-0.805-0.877-1.279-1.977-1.445-3.176
				C40.111,24.39,44.422,23.169,47.687,23.146z"/>
		</g>
		<g>
			<path style="fill:#C23023;" d="M23.453,42.229c-2.11-3.668,3.35-10.754,12.289-15.524c0.166,1.199,0.641,2.299,1.445,3.176
				c3.098,3.45,9.898,2.19,14.364-2.703c0.303-0.33,0.788-0.42,1.188-0.218c0.4,0.202,0.617,0.646,0.531,1.085
				C51.298,38.148,27.449,49.155,23.453,42.229z"/>
		</g>
		<g>
			<path style="fill:#7D261E;" d="M62.312,23.146c-0.229-0.001-0.431,0.154-0.488,0.376c-0.057,0.222,0.045,0.455,0.248,0.564
				c3.143,1.694,6.244,4.338,8.192,7.401c0.989-0.312,1.862-0.844,2.548-1.607c0.805-0.877,1.279-1.977,1.445-3.176
				C69.889,24.39,65.578,23.169,62.312,23.146z"/>
		</g>
		<g>
			<path style="fill:#C23023;" d="M86.547,42.229c2.11-3.668-3.35-10.754-12.289-15.524c-0.166,1.199-0.641,2.299-1.445,3.176
				c-3.098,3.45-9.898,2.19-14.365-2.703c-0.302-0.33-0.787-0.42-1.188-0.218c-0.4,0.202-0.618,0.646-0.532,1.085
				C58.702,38.148,82.551,49.155,86.547,42.229z"/>
		</g>
		<g>
			<path style="fill:#7D261E;" d="M74.985,48.995C74.99,48.997,74.995,48.999,75,49c5.119-1.969,8.061-3.758,9.755-5.206
				c-2.79,1.28-7.683,0.404-12.623-1.709l-2.556,3.195C71.563,46.432,73.378,47.709,74.985,48.995z"/>
		</g>
		<g>
			<path style="fill:#7D261E;" d="M35.015,48.995c1.608-1.286,3.422-2.563,5.409-3.715l-2.548-3.185
				c-5.248,2.259-10.085,2.862-12.748,1.6C26.802,45.159,29.764,46.986,35,49C35.005,48.999,35.01,48.997,35.015,48.995z"/>
		</g>
		<g>
			<path style="fill:#7D261E;" d="M33.436,63.713c-0.832-0.853-1.589-1.685-2.243-2.476c-1.503,1.384-3.154,3.213-4.826,5.646
				c-1.215,1.77,0.87,6.21,2.099,6.706C28.085,73.435,27.289,68.05,33.436,63.713z"/>
		</g>
		<g>
			<path style="fill:#7D261E;" d="M40.247,69.847c-0.911-0.737-1.816-1.5-2.701-2.273c-1.61,1.422-3.413,3.36-5.239,6.018
				c-1.216,1.77,0.87,6.21,2.099,6.706C34.007,80.137,33.158,74.266,40.247,69.847z"/>
		</g>
		<g>
			<path style="fill:#7D261E;" d="M48.125,75.473c-1.024-0.605-2.18-1.362-3.407-2.23c-1.894,1.461-4.172,3.68-6.488,7.051
				c-1.216,1.77,0.87,6.21,2.099,6.706C39.896,86.826,38.934,79.944,48.125,75.473z"/>
		</g>
		<g>
			<path style="fill:#7D261E;" d="M65.302,73.259c-1.224,0.867-2.378,1.622-3.403,2.226c9.165,4.472,8.205,11.341,7.774,11.515
				c1.229-0.496,3.314-4.936,2.099-6.706C69.462,76.936,67.192,74.72,65.302,73.259z"/>
		</g>
		<g>
			<path style="fill:#7D261E;" d="M72.461,67.579c-0.882,0.775-1.785,1.538-2.693,2.276c7.073,4.418,6.226,10.281,5.827,10.442
				c1.229-0.496,3.314-4.936,2.099-6.706C75.869,70.938,74.07,69.001,72.461,67.579z"/>
		</g>
		<g>
			<path style="fill:#7D261E;" d="M83.633,66.883c-1.674-2.435-3.327-4.266-4.832-5.65c-0.653,0.791-1.41,1.624-2.241,2.478
				c6.151,4.337,5.355,9.724,4.974,9.878C82.762,73.093,84.848,68.653,83.633,66.883z"/>
		</g>
		<g>
			<path style="fill:#FFEFED;" d="M41.298,54.157c-0.331-0.442-1.8-2.4-1-3c0.8-0.6,2.268,1.358,2.6,1.8
				c0.331,0.442,1.442,2.668,1,3C43.456,56.289,41.629,54.599,41.298,54.157z"/>
		</g>
		<g>
			<path style="fill:#FFEFED;" d="M47.365,50.148c-0.105-0.542-0.578-2.944,0.402-3.137c0.981-0.193,1.454,2.209,1.56,2.751
				c0.107,0.542,0.141,3.03-0.402,3.137C48.385,53.005,47.473,50.689,47.365,50.148z"/>
		</g>
		<g>
			<path style="fill:#FFEFED;" d="M53.999,50.06c0.005-0.552,0.022-3,1.021-2.993c1,0.007,0.983,2.455,0.979,3.007
				c-0.004,0.552-0.47,2.997-1.021,2.993C54.426,53.063,53.995,50.612,53.999,50.06z"/>
		</g>
		<g>
			<path style="fill:#FFEFED;" d="M68.702,54.157c0.331-0.442,1.8-2.4,1-3c-0.8-0.6-2.268,1.358-2.6,1.8
				c-0.332,0.442-1.442,2.668-1,3C66.544,56.289,68.371,54.599,68.702,54.157z"/>
		</g>
		<g>
			<path style="fill:#FFEFED;" d="M62.634,50.148c0.106-0.542,0.579-2.944-0.401-3.137c-0.981-0.193-1.454,2.209-1.56,2.751
				c-0.107,0.542-0.141,3.03,0.402,3.137C61.615,53.005,62.527,50.689,62.634,50.148z"/>
		</g>
		<g>
			<path style="fill:#E54B44;" d="M37.187,29.881c-0.805-0.877-1.279-1.977-1.445-3.176c-8.94,4.77-14.399,11.855-12.289,15.524
				c0.195,0.34,0.451,0.624,0.738,0.879l13.113-13.114C37.268,29.955,37.225,29.922,37.187,29.881z"/>
		</g>
	</g>
</g>
<g id="Yellow" style="display:none;">
	<g style="display:inline;">
		<g>
			<circle style="fill:#FFFFFF;" cx="52" cy="40" r="2"/>
		</g>
		<g>
			<circle style="fill:#FFFFFF;" cx="58" cy="40" r="2"/>
		</g>
		<g>
			<path style="fill:#E07000;" d="M55,41c-11.39,0-20.752,8.107-25.202,12.78c-0.764,0.802-1.161,1.885-1.097,2.991
				C28.997,61.873,48.121,77,51.725,77h6.551c3.751,0,22.729-15.208,23.021-20.229c0.064-1.105-0.331-2.189-1.094-2.991
				C75.752,49.107,66.389,41,55,41z"/>
		</g>
		<g>
			<path style="fill:#FA9200;" d="M55,41c-11.39,0-20.752,8.107-25.202,12.78c-0.764,0.802-1.161,1.885-1.097,2.991
				c0.126,2.165,3.645,6.136,7.928,9.99l24.884-24.884C59.436,41.329,57.26,41,55,41z"/>
		</g>
		<g>
			<path style="fill:#66510D;" d="M47.688,23.146c0.229-0.001,0.431,0.154,0.487,0.376c0.058,0.222-0.045,0.455-0.247,0.564
				c-3.145,1.694-6.244,4.338-8.192,7.401c-0.989-0.312-1.862-0.844-2.548-1.607c-0.805-0.877-1.279-1.977-1.445-3.176
				C40.111,24.39,44.422,23.169,47.688,23.146z"/>
		</g>
		<g>
			<path style="fill:#E07000;" d="M23.453,42.229c-2.11-3.668,3.35-10.754,12.289-15.524c0.166,1.199,0.641,2.299,1.445,3.176
				c3.098,3.45,9.898,2.19,14.364-2.703c0.303-0.33,0.788-0.42,1.188-0.218c0.4,0.202,0.617,0.646,0.531,1.085
				C51.298,38.148,27.449,49.155,23.453,42.229z"/>
		</g>
		<g>
			<path style="fill:#66510D;" d="M62.312,23.146c-0.229-0.001-0.431,0.154-0.488,0.376c-0.057,0.222,0.045,0.455,0.248,0.564
				c3.143,1.694,6.244,4.338,8.192,7.401c0.989-0.312,1.862-0.844,2.548-1.607c0.805-0.877,1.279-1.977,1.445-3.176
				C69.889,24.39,65.578,23.169,62.312,23.146z"/>
		</g>
		<g>
			<path style="fill:#E07000;" d="M86.547,42.229c2.11-3.668-3.35-10.754-12.289-15.524c-0.166,1.199-0.641,2.299-1.445,3.176
				c-3.098,3.45-9.898,2.19-14.365-2.703c-0.302-0.33-0.787-0.42-1.188-0.218c-0.4,0.202-0.618,0.646-0.532,1.085
				C58.702,38.148,82.551,49.155,86.547,42.229z"/>
		</g>
		<g>
			<path style="fill:#66510D;" d="M74.985,48.995C74.99,48.997,74.995,48.999,75,49c5.119-1.969,8.062-3.758,9.755-5.206
				c-2.79,1.28-7.683,0.404-12.623-1.709l-2.556,3.195C71.563,46.432,73.378,47.709,74.985,48.995z"/>
		</g>
		<g>
			<path style="fill:#66510D;" d="M35.015,48.995c1.608-1.286,3.422-2.564,5.409-3.715l-2.548-3.185
				c-5.248,2.259-10.085,2.862-12.748,1.6C26.802,45.159,29.764,46.986,35,49C35.005,48.999,35.01,48.997,35.015,48.995z"/>
		</g>
		<g>
			<path style="fill:#66510D;" d="M33.437,63.713c-0.832-0.853-1.589-1.685-2.243-2.476c-1.503,1.384-3.154,3.213-4.826,5.646
				c-1.215,1.77,0.87,6.21,2.099,6.706C28.085,73.435,27.289,68.05,33.437,63.713z"/>
		</g>
		<g>
			<path style="fill:#66510D;" d="M40.247,69.847c-0.911-0.737-1.816-1.5-2.701-2.273c-1.61,1.422-3.413,3.36-5.239,6.018
				c-1.216,1.77,0.87,6.21,2.099,6.706C34.007,80.137,33.158,74.266,40.247,69.847z"/>
		</g>
		<g>
			<path style="fill:#66510D;" d="M48.125,75.473c-1.024-0.605-2.18-1.362-3.407-2.23c-1.894,1.461-4.172,3.68-6.488,7.051
				c-1.216,1.77,0.87,6.21,2.099,6.706C39.896,86.826,38.934,79.944,48.125,75.473z"/>
		</g>
		<g>
			<path style="fill:#66510D;" d="M65.302,73.259c-1.224,0.867-2.378,1.622-3.403,2.226c9.165,4.472,8.205,11.341,7.773,11.515
				c1.229-0.496,3.314-4.936,2.099-6.706C69.462,76.936,67.192,74.72,65.302,73.259z"/>
		</g>
		<g>
			<path style="fill:#66510D;" d="M72.461,67.579c-0.882,0.775-1.785,1.538-2.693,2.276c7.073,4.418,6.226,10.281,5.827,10.442
				c1.228-0.496,3.314-4.936,2.099-6.706C75.869,70.938,74.07,69.001,72.461,67.579z"/>
		</g>
		<g>
			<path style="fill:#66510D;" d="M83.633,66.883c-1.674-2.435-3.327-4.266-4.832-5.65c-0.653,0.791-1.41,1.624-2.241,2.478
				c6.151,4.337,5.355,9.724,4.974,9.878C82.762,73.093,84.848,68.653,83.633,66.883z"/>
		</g>
		<g>
			<path style="fill:#FFF5D9;" d="M41.298,54.157c-0.331-0.442-1.8-2.4-1-3c0.8-0.6,2.268,1.358,2.6,1.8
				c0.331,0.442,1.442,2.668,1,3C43.456,56.289,41.629,54.599,41.298,54.157z"/>
		</g>
		<g>
			<path style="fill:#FFF5D9;" d="M47.365,50.148c-0.105-0.542-0.578-2.944,0.402-3.137c0.981-0.193,1.454,2.209,1.56,2.751
				c0.107,0.542,0.141,3.03-0.402,3.137C48.385,53.005,47.473,50.689,47.365,50.148z"/>
		</g>
		<g>
			<path style="fill:#FFF5D9;" d="M53.999,50.06c0.005-0.552,0.022-3,1.021-2.993c1,0.007,0.983,2.455,0.979,3.007
				c-0.004,0.552-0.47,2.997-1.021,2.993C54.426,53.063,53.995,50.612,53.999,50.06z"/>
		</g>
		<g>
			<path style="fill:#FFF5D9;" d="M68.702,54.157c0.331-0.442,1.8-2.4,1-3c-0.8-0.6-2.269,1.358-2.6,1.8
				c-0.332,0.442-1.442,2.668-1,3C66.544,56.289,68.371,54.599,68.702,54.157z"/>
		</g>
		<g>
			<path style="fill:#FFF5D9;" d="M62.634,50.148c0.106-0.542,0.579-2.944-0.401-3.137c-0.981-0.193-1.454,2.209-1.56,2.751
				c-0.107,0.542-0.141,3.03,0.402,3.137C61.615,53.005,62.527,50.689,62.634,50.148z"/>
		</g>
		<g>
			<path style="fill:#FA9200;" d="M37.188,29.881c-0.805-0.877-1.279-1.977-1.445-3.176c-8.939,4.769-14.399,11.855-12.289,15.524
				c0.195,0.34,0.451,0.624,0.738,0.879l13.113-13.114C37.268,29.955,37.225,29.922,37.188,29.881z"/>
		</g>
	</g>
</g>
<g id="R-Yellow" style="display:none;">
	<circle style="display:inline;fill:#FFD75E;" cx="55" cy="55" r="55"/>
	<g style="display:inline;">
		<g>
			<circle style="fill:#FFFFFF;" cx="52" cy="40" r="2"/>
		</g>
		<g>
			<circle style="fill:#FFFFFF;" cx="58" cy="40" r="2"/>
		</g>
		<g>
			<path style="fill:#E07000;" d="M55,41c-11.39,0-20.752,8.107-25.202,12.78c-0.764,0.802-1.161,1.885-1.097,2.991
				C28.997,61.873,48.121,77,51.725,77h6.551c3.751,0,22.729-15.208,23.021-20.229c0.064-1.105-0.331-2.189-1.094-2.991
				C75.752,49.107,66.389,41,55,41z"/>
		</g>
		<g>
			<path style="fill:#FA9200;" d="M55,41c-11.39,0-20.752,8.107-25.202,12.78c-0.764,0.802-1.161,1.885-1.097,2.991
				c0.126,2.165,3.646,6.136,7.928,9.99l24.884-24.884C59.435,41.329,57.26,41,55,41z"/>
		</g>
		<g>
			<path style="fill:#66510D;" d="M47.687,23.146c0.229-0.001,0.431,0.154,0.487,0.376c0.058,0.222-0.045,0.455-0.247,0.564
				c-3.145,1.694-6.244,4.338-8.192,7.401c-0.989-0.312-1.862-0.844-2.548-1.607c-0.805-0.877-1.279-1.977-1.445-3.176
				C40.111,24.39,44.422,23.169,47.687,23.146z"/>
		</g>
		<g>
			<path style="fill:#E07000;" d="M23.453,42.229c-2.11-3.668,3.35-10.754,12.289-15.524c0.166,1.199,0.641,2.299,1.445,3.176
				c3.098,3.45,9.898,2.19,14.364-2.703c0.303-0.33,0.788-0.42,1.188-0.218c0.4,0.202,0.617,0.646,0.531,1.085
				C51.298,38.148,27.449,49.155,23.453,42.229z"/>
		</g>
		<g>
			<path style="fill:#66510D;" d="M62.312,23.146c-0.229-0.001-0.431,0.154-0.488,0.376c-0.057,0.222,0.045,0.455,0.248,0.564
				c3.144,1.694,6.244,4.338,8.192,7.401c0.989-0.312,1.862-0.844,2.548-1.607c0.805-0.877,1.279-1.977,1.445-3.176
				C69.889,24.39,65.578,23.169,62.312,23.146z"/>
		</g>
		<g>
			<path style="fill:#E07000;" d="M86.547,42.229c2.11-3.668-3.35-10.754-12.289-15.524c-0.166,1.199-0.641,2.299-1.445,3.176
				c-3.098,3.45-9.898,2.19-14.365-2.703c-0.302-0.33-0.787-0.42-1.188-0.218c-0.4,0.202-0.618,0.646-0.532,1.085
				C58.702,38.148,82.551,49.155,86.547,42.229z"/>
		</g>
		<g>
			<path style="fill:#66510D;" d="M74.985,48.995C74.99,48.997,74.995,48.999,75,49c5.119-1.969,8.062-3.758,9.755-5.206
				c-2.79,1.28-7.683,0.404-12.623-1.709l-2.556,3.195C71.563,46.432,73.378,47.709,74.985,48.995z"/>
		</g>
		<g>
			<path style="fill:#66510D;" d="M35.015,48.995c1.608-1.286,3.422-2.564,5.409-3.715l-2.548-3.185
				c-5.248,2.259-10.085,2.862-12.748,1.6C26.802,45.159,29.764,46.986,35,49C35.005,48.999,35.01,48.997,35.015,48.995z"/>
		</g>
		<g>
			<path style="fill:#66510D;" d="M33.436,63.713c-0.832-0.853-1.589-1.685-2.243-2.476c-1.503,1.384-3.154,3.213-4.826,5.646
				c-1.215,1.77,0.87,6.21,2.099,6.706C28.085,73.435,27.289,68.05,33.436,63.713z"/>
		</g>
		<g>
			<path style="fill:#66510D;" d="M40.247,69.847c-0.911-0.737-1.816-1.5-2.701-2.273c-1.61,1.422-3.413,3.36-5.239,6.018
				c-1.216,1.77,0.87,6.21,2.099,6.706C34.007,80.137,33.158,74.266,40.247,69.847z"/>
		</g>
		<g>
			<path style="fill:#66510D;" d="M48.125,75.473c-1.024-0.605-2.18-1.362-3.407-2.23c-1.894,1.461-4.172,3.68-6.488,7.051
				c-1.216,1.77,0.87,6.21,2.099,6.706C39.895,86.826,38.934,79.944,48.125,75.473z"/>
		</g>
		<g>
			<path style="fill:#66510D;" d="M65.302,73.259c-1.224,0.867-2.378,1.622-3.403,2.226c9.165,4.472,8.205,11.341,7.774,11.515
				c1.229-0.496,3.314-4.936,2.099-6.706C69.462,76.936,67.192,74.72,65.302,73.259z"/>
		</g>
		<g>
			<path style="fill:#66510D;" d="M72.461,67.579c-0.882,0.775-1.785,1.538-2.693,2.276c7.073,4.418,6.226,10.281,5.827,10.442
				c1.229-0.496,3.314-4.936,2.099-6.706C75.869,70.938,74.07,69.001,72.461,67.579z"/>
		</g>
		<g>
			<path style="fill:#66510D;" d="M83.633,66.883c-1.674-2.435-3.327-4.266-4.832-5.65c-0.653,0.791-1.41,1.624-2.241,2.478
				c6.151,4.337,5.355,9.724,4.974,9.878C82.762,73.093,84.848,68.653,83.633,66.883z"/>
		</g>
		<g>
			<path style="fill:#FFF5D9;" d="M41.298,54.157c-0.331-0.442-1.8-2.4-1-3c0.8-0.6,2.269,1.358,2.6,1.8
				c0.331,0.442,1.442,2.668,1,3C43.456,56.289,41.629,54.599,41.298,54.157z"/>
		</g>
		<g>
			<path style="fill:#FFF5D9;" d="M47.365,50.148c-0.105-0.542-0.578-2.944,0.402-3.137c0.981-0.193,1.454,2.209,1.561,2.751
				c0.106,0.542,0.141,3.03-0.402,3.137C48.385,53.005,47.473,50.689,47.365,50.148z"/>
		</g>
		<g>
			<path style="fill:#FFF5D9;" d="M53.999,50.06c0.005-0.552,0.022-3,1.021-2.993c1,0.007,0.983,2.455,0.979,3.007
				c-0.004,0.552-0.47,2.997-1.021,2.993C54.426,53.063,53.995,50.612,53.999,50.06z"/>
		</g>
		<g>
			<path style="fill:#FFF5D9;" d="M68.702,54.157c0.331-0.442,1.8-2.4,1-3c-0.8-0.6-2.269,1.358-2.6,1.8
				c-0.332,0.442-1.442,2.668-1,3C66.544,56.289,68.371,54.599,68.702,54.157z"/>
		</g>
		<g>
			<path style="fill:#FFF5D9;" d="M62.634,50.148c0.106-0.542,0.579-2.944-0.401-3.137c-0.981-0.193-1.454,2.209-1.56,2.751
				c-0.107,0.542-0.141,3.03,0.402,3.137C61.615,53.005,62.527,50.689,62.634,50.148z"/>
		</g>
		<g>
			<path style="fill:#FA9200;" d="M37.187,29.881c-0.805-0.877-1.279-1.977-1.445-3.176c-8.939,4.769-14.399,11.855-12.289,15.524
				c0.195,0.34,0.451,0.624,0.738,0.879l13.113-13.114C37.268,29.955,37.225,29.922,37.187,29.881z"/>
		</g>
	</g>
</g>
</svg>
