<?xml version="1.0" encoding="iso-8859-1"?>
<!-- Generator: Adobe Illustrator 17.1.0, SVG Export Plug-In . SVG Version: 6.00 Build 0)  -->
<!DOCTYPE svg PUBLIC "-//W3C//DTD SVG 1.0//EN" "http://www.w3.org/TR/2001/REC-SVG-20010904/DTD/svg10.dtd">
<svg version="1.0" xmlns="http://www.w3.org/2000/svg" xmlns:xlink="http://www.w3.org/1999/xlink" x="0px" y="0px" width="110px"
	 height="110px" viewBox="0 0 110 110" style="enable-background:new 0 0 110 110;" xml:space="preserve">
<g id="Artboard">
</g>
<g id="Multicolor">
	<circle style="fill:#32BEA6;" cx="55" cy="55" r="55"/>
	<g>
		<path style="fill:#FACB1B;" d="M86.972,41.781c0.058-0.182,0.026-0.381-0.087-0.535C86.772,41.091,86.593,41,86.401,41h-0.005
			c-0.112,0-0.22,0.039-0.306,0.109c-0.833,0.677-5.738,4.301-11.461,5.089c-0.193,0.026-0.353,0.162-0.41,0.348
			s-0.002,0.388,0.143,0.518C75.982,48.528,77,50.646,77,53c0,4.42-3.58,8-8,8c-4.42,0-8-3.58-8-8c0-3.314,2.013-6.154,4.882-7.371
			c0.177-0.075,0.295-0.245,0.304-0.437c0.009-0.192-0.093-0.372-0.262-0.463c-3.841-2.069-7.556-7.404-10.453-15.399
			C55.399,29.132,55.211,29,55,29s-0.399,0.132-0.47,0.329c-2.897,7.995-6.612,13.33-10.453,15.399
			c-0.169,0.091-0.271,0.271-0.262,0.463c0.009,0.192,0.127,0.362,0.304,0.437C46.987,46.846,49,49.686,49,53c0,4.42-3.58,8-8,8
			c-4.42,0-8-3.58-8-8c0-2.354,1.018-4.472,2.639-5.936c0.144-0.13,0.2-0.333,0.143-0.518s-0.217-0.321-0.41-0.348
			c-5.723-0.788-10.629-4.412-11.462-5.089C23.824,41.039,23.715,41,23.604,41h-0.005c-0.191,0-0.371,0.091-0.484,0.246
			c-0.113,0.154-0.145,0.353-0.087,0.535L30,81h50L86.972,41.781z"/>
		<polygon style="fill:#FA5655;" points="55,40 51,45 55,50 59,45 		"/>
		<path style="fill:#FBE158;" d="M55,29c-0.21,0-0.398,0.132-0.47,0.33c-2.896,7.995-6.612,13.33-10.453,15.399
			c-0.169,0.091-0.271,0.271-0.262,0.463c0.009,0.192,0.127,0.362,0.304,0.437C46.987,46.846,49,49.686,49,53c0,4.42-3.58,8-8,8
			s-8-3.58-8-8c0-2.354,1.018-4.472,2.639-5.936c0.145-0.13,0.2-0.333,0.143-0.519c-0.058-0.186-0.217-0.321-0.41-0.348
			c-5.723-0.787-10.629-4.412-11.461-5.089C23.824,41.039,23.715,41,23.604,41h-0.005c-0.191,0-0.371,0.091-0.483,0.246
			s-0.145,0.354-0.087,0.535L30,81h25V29z"/>
		<polygon style="fill:#DF2C2C;" points="27.867,69 30,81 80,81 82.133,69 		"/>
		<path style="fill:#FBE158;" d="M81,86c0,0.552-0.448,1-1,1H30c-0.552,0-1-0.448-1-1v-4c0-0.552,0.448-1,1-1h50
			c0.552,0,1,0.448,1,1V86z"/>
		<path style="fill:#FBEC9A;" d="M84,68c0,0.552-0.448,1-1,1H27c-0.552,0-1-0.448-1-1v-2c0-0.552,0.448-1,1-1h56
			c0.552,0,1,0.448,1,1V68z"/>
		<circle style="fill:#FBEC9A;" cx="69" cy="75" r="2"/>
		<polygon style="fill:#FA5655;" points="55,69 27.867,69 30,81 55,81 		"/>
		<polygon style="fill:#F79392;" points="51,45 55,50 55,40 		"/>
		<circle style="fill:#FBEC9A;" cx="41" cy="75" r="2"/>
		<circle style="fill:#FBEC9A;" cx="55" cy="75" r="2"/>
	</g>
</g>
</svg>
