<?xml version="1.0" encoding="iso-8859-1"?>
<!-- Generator: Adobe Illustrator 17.1.0, SVG Export Plug-In . SVG Version: 6.00 Build 0)  -->
<!DOCTYPE svg PUBLIC "-//W3C//DTD SVG 1.0//EN" "http://www.w3.org/TR/2001/REC-SVG-20010904/DTD/svg10.dtd">
<svg version="1.0" xmlns="http://www.w3.org/2000/svg" xmlns:xlink="http://www.w3.org/1999/xlink" x="0px" y="0px" width="110px"
	 height="110px" viewBox="0 0 110 110" style="enable-background:new 0 0 110 110;" xml:space="preserve">
<g id="Artboard">
</g>
<g id="Multicolor">
	<circle style="fill:#32BEA6;" cx="55" cy="55" r="55"/>
	<g>
		<g>
			<circle style="fill:#FACB1B;" cx="55" cy="55" r="32"/>
		</g>
		<path style="fill:#FBE158;" d="M23,55c0,17.673,14.327,32,32,32V23C37.327,23,23,37.327,23,55z"/>
		<g>
			<path style="fill:#FA5655;" d="M38.473,76.038c1.185,1.429,3.191,1.852,4.855,1.027c7.037-3.489,16.192-3.484,23.222,0.015
				c1.635,0.814,3.616,0.418,4.809-0.965C77.219,69.328,73.2,60.5,66.924,60.5c-5,0-9,4-12,4s-7-4-12-4
				C36.687,60.5,32.961,69.391,38.473,76.038z"/>
		</g>
		<g>
			<path style="fill:#FFFFFF;" d="M78.736,54.315c0.548,0.959,0.215,2.181-0.744,2.729s-2.181,0.215-2.729-0.744
				c-0.548-0.959-0.744-5.333-0.744-5.333S78.188,53.356,78.736,54.315z"/>
		</g>
		<g>
			<path style="fill:#FFFFFF;" d="M73.255,57.553c-0.03,1.104-0.95,1.975-2.054,1.944s-1.975-0.95-1.944-2.054
				c0.03-1.104,2.137-4.943,2.137-4.943S73.285,56.449,73.255,57.553z"/>
		</g>
		<g>
			<path style="fill:#FFFFFF;" d="M31.019,54.315c-0.548,0.959-0.215,2.181,0.744,2.729c0.959,0.548,2.181,0.215,2.729-0.744
				c0.548-0.959,0.744-5.333,0.744-5.333S31.567,53.356,31.019,54.315z"/>
		</g>
		<g>
			<path style="fill:#FFFFFF;" d="M37.5,57.555c0.03,1.104,0.95,1.975,2.054,1.944c1.104-0.03,1.975-0.95,1.944-2.054
				s-2.137-4.943-2.137-4.943S37.47,56.451,37.5,57.555z"/>
		</g>
		<g>
			<path style="fill:#9C6144;" d="M49.5,49.5c-0.828,0-1.5-0.672-1.5-1.5c0-3.584-2.916-6.5-6.5-6.5S35,44.416,35,48
				c0,0.828-0.672,1.5-1.5,1.5S32,48.828,32,48c0-5.238,4.262-9.5,9.5-9.5S51,42.762,51,48C51,48.828,50.328,49.5,49.5,49.5z"/>
		</g>
		<g>
			<path style="fill:#9C6144;" d="M76.5,49.5c-0.828,0-1.5-0.672-1.5-1.5c0-3.584-2.916-6.5-6.5-6.5S62,44.416,62,48
				c0,0.828-0.672,1.5-1.5,1.5S59,48.828,59,48c0-5.238,4.262-9.5,9.5-9.5S78,42.762,78,48C78,48.828,77.328,49.5,76.5,49.5z"/>
		</g>
		<path style="fill:#F79392;" d="M64.404,76.127C63.019,72.266,59.337,69.5,55,69.5s-8.019,2.767-9.404,6.627
			C51.51,73.907,58.49,73.907,64.404,76.127z"/>
	</g>
</g>
</svg>
