<?xml version="1.0" encoding="iso-8859-1"?>
<!-- Generator: Adobe Illustrator 17.1.0, SVG Export Plug-In . SVG Version: 6.00 Build 0)  -->
<!DOCTYPE svg PUBLIC "-//W3C//DTD SVG 1.0//EN" "http://www.w3.org/TR/2001/REC-SVG-20010904/DTD/svg10.dtd">
<svg version="1.0" xmlns="http://www.w3.org/2000/svg" xmlns:xlink="http://www.w3.org/1999/xlink" x="0px" y="0px" width="110px"
	 height="110px" viewBox="0 0 110 110" style="enable-background:new 0 0 110 110;" xml:space="preserve">
<g id="Artboard">
</g>
<g id="Multicolor">
	<circle style="fill:#32BEA6;" cx="55" cy="55" r="55"/>
	<g>
		<path style="fill:#FBE158;" d="M80.053,49c-2,2-2.89,2.26-6,3c2.48-5.77,0.66-10.58-3-15c0.1,2.53-0.92,4.91-4,7
			c2-4.67,1.34-9.33-2-14c0,2-1,4-2,5c0.17-4.59-2.63-8.37-6-12c0,11-14,13-14,23c-1.83-3.64-1.21-7.37,0-11
			c-5.31,5.67-8.98,12.17-8,21c-1.67-0.42-4-1-6-5c-3.405,7.291-0.602,17.76,6.803,20.292c-0.303-1.384-0.473-2.817-0.473-4.292
			c0-2.5,0.46-4.89,1.3-7.09c2.02-5.35,6.26-9.59,11.61-11.61c2.2-0.84,4.59-1.3,7.09-1.3c11.05,0,20,8.95,20,20
			c0,0.61-0.029,1.213-0.083,1.809C82.986,65.278,83.294,55.738,80.053,49z"/>
		<path style="fill:#FA5655;" d="M48.293,48.3c2.2-0.84,4.59-1.3,7.09-1.3c5.419,0,10.324,2.161,13.925,5.658
			c1.354-2.104,1.119-4.336-0.253-6.658c-1,1-4,2-6,1c1.105-4.087-2.362-11.581-6-13c-0.98,7.837-12.509,8.961-12.978,16.525
			C45.382,49.629,46.787,48.868,48.293,48.3z"/>
		<path style="fill:#FA5655;" d="M43.434,50.991c-1.29-0.194-3.538-1.466-4.379-3.991c-2.303,3.946-2.516,7.683-1.164,10.35
			C39.269,54.851,41.161,52.688,43.434,50.991z"/>
		<path style="fill:#C9F2F8;" d="M55.383,47c-11.051,0-20,8.967-20,20c0,11.05,8.95,20,20,20c8.356,0,15.784-5.187,18.7-12.91
			c0.84-2.2,1.3-4.59,1.3-7.09C75.383,55.95,66.433,47,55.383,47z M55.383,71c-2.21,0-4-1.79-4-4c0-2.201,1.797-4,4-4
			c2.21,0,4,1.79,4,4C59.383,69.201,57.586,71,55.383,71z"/>
		<path style="fill:#FFFFFF;" d="M74.082,74.09c-2.02,5.35-6.26,9.59-11.61,11.61l-6.1-14.83c1.42-0.36,2.52-1.46,2.88-2.88
			L74.082,74.09z"/>
		<path style="fill:#FFFFFF;" d="M54.393,63.13c-1.42,0.36-2.52,1.46-2.88,2.88l-14.83-6.1c2.02-5.35,6.26-9.59,11.61-11.61
			L54.393,63.13z"/>
	</g>
</g>
</svg>
