<?xml version="1.0" encoding="iso-8859-1"?>
<!-- Generator: Adobe Illustrator 17.1.0, SVG Export Plug-In . SVG Version: 6.00 Build 0)  -->
<!DOCTYPE svg PUBLIC "-//W3C//DTD SVG 1.0//EN" "http://www.w3.org/TR/2001/REC-SVG-20010904/DTD/svg10.dtd">
<svg version="1.0" xmlns="http://www.w3.org/2000/svg" xmlns:xlink="http://www.w3.org/1999/xlink" x="0px" y="0px" width="110px"
	 height="110px" viewBox="0 0 110 110" style="enable-background:new 0 0 110 110;" xml:space="preserve">
<g id="Artboard">
</g>
<g id="Multicolor">
	<circle style="fill:#32BEA6;" cx="55" cy="55" r="55"/>
	<g>
		<g>
			<polygon style="fill:#FACB1B;" points="55,27 27,39 27,75 55,87 83,75 83,39 			"/>
		</g>
		<g>
			<polygon style="fill:#059BBF;" points="83,39 55,51 27,39 55,27 			"/>
		</g>
		<g>
			<polygon style="fill:#21B2D1;" points="55,27 27,39 44.728,46.598 61.528,29.798 			"/>
		</g>
		<g>
			<polygon style="fill:#DF2C2C;" points="55,51 55,87 83,75 83,39 			"/>
		</g>
		<g>
			<g>
				<path style="fill:#E2E4E5;" d="M47.618,43.788l-0.046-0.028c-4.493-2.777-4.91-7.03-0.232-9.866
					c2.285-1.385,4.462-1.931,6.694-2.096c0.619-0.043,1.421,0.079,2.03,0.456c0.948,0.586,0.954,1.495,0.04,2.049
					c-0.457,0.277-0.942,0.35-1.34,0.397c-1.658,0.121-3.044,0.463-4.241,1.189c-2.567,1.556-2.203,4.045,0.506,5.719l0.045,0.028
					c2.71,1.675,6.774,1.975,9.385,0.393c1.414-0.858,1.898-1.704,2.065-2.773c0.035-0.298,0.225-0.606,0.617-0.844
					c0.849-0.514,2.289-0.503,3.17,0.041c0.542,0.335,0.71,0.758,0.676,1.11c-0.128,1.599-0.993,3.035-3.43,4.513
					C59.075,46.793,52.156,46.592,47.618,43.788z"/>
			</g>
		</g>
		<g>
			<g>
				<g>
					<path style="fill:#FFFFFF;" d="M60.321,60.059c0-1.238,0.896-2.601,2.029-3.086c2.614-1.12,3.921-1.68,6.535-2.801
						c2.108-0.904,3.769-0.981,4.822-0.282c0.843,0.56,1.265,1.502,1.265,2.885c0,0.023,0,0.034,0,0.057
						c0,2.275-2.424,5.388-2.424,5.388C72.614,62.373,76,62.987,76,65.694c0,0.023,0,0.034,0,0.057c0,3.686-2.74,6.703-6.904,8.488
						c-2.699,1.156-4.048,1.735-6.746,2.891c-1.133,0.485-2.029-0.109-2.029-1.347C60.321,69.494,60.321,66.348,60.321,60.059z
						 M68.016,62.693c1.792-0.768,2.925-1.887,2.925-3.385c0-0.023,0-0.034,0-0.057c0-1.325-0.949-1.667-2.662-0.933
						c-1.603,0.687-2.403,1.03-4.006,1.717c0,1.705,0,2.557,0,4.262C65.77,63.656,66.519,63.335,68.016,62.693z M69.096,70.352
						c1.792-0.768,2.872-1.922,2.872-3.42c0-0.023,0-0.034,0-0.057c0-1.354-0.922-1.794-3.004-0.902
						c-1.876,0.804-2.814,1.206-4.691,2.01c0,1.774,0,2.661,0,4.435C66.203,71.592,67.167,71.179,69.096,70.352z"/>
				</g>
			</g>
		</g>
		<g>
			<g>
				<g>
					<path style="fill:#FFFFFF;" d="M33.204,67.417c2.208-5.25,3.312-7.876,5.52-13.126c0.385-0.903,1.086-1.25,2.037-0.842
						c0.082,0.035,0.122,0.052,0.204,0.087c0.95,0.407,1.629,1.345,2.014,2.578c2.208,7.143,3.312,10.715,5.52,17.858
						c0.113,0.358,0.181,0.668,0.181,0.949c0,1.153-0.724,1.77-1.651,1.372c-0.814-0.349-1.357-1.172-1.674-2.208
						c-0.425-1.419-0.638-2.129-1.063-3.548c-2.787-1.195-4.181-1.792-6.969-2.987c-0.443,1.104-0.665,1.655-1.108,2.759
						c-0.294,0.717-0.882,0.971-1.606,0.661C33.701,70.581,33,69.381,33,68.257C33,67.948,33.091,67.677,33.204,67.417z M43,66.16
						c-0.878-2.974-1.317-4.461-2.194-7.436c-0.878,2.222-1.317,3.333-2.195,5.554C40.366,65.031,41.244,65.407,43,66.16z"/>
				</g>
			</g>
		</g>
		<g>
			<path style="fill:#FFFFFF;" d="M50.525,35.889c1.197-0.725,2.583-1.068,4.241-1.188c0.397-0.047,0.883-0.121,1.34-0.397
				c0.914-0.554,0.908-1.463-0.04-2.049c-0.609-0.376-1.411-0.499-2.03-0.456c-2.233,0.165-4.41,0.711-6.695,2.096
				c-4.677,2.835-4.261,7.086,0.228,9.863l2.698-2.699C48.283,39.424,48.225,37.283,50.525,35.889z"/>
		</g>
	</g>
</g>
</svg>
