<?xml version="1.0" encoding="iso-8859-1"?>
<!-- Generator: Adobe Illustrator 17.1.0, SVG Export Plug-In . SVG Version: 6.00 Build 0)  -->
<!DOCTYPE svg PUBLIC "-//W3C//DTD SVG 1.0//EN" "http://www.w3.org/TR/2001/REC-SVG-20010904/DTD/svg10.dtd">
<svg version="1.0" xmlns="http://www.w3.org/2000/svg" xmlns:xlink="http://www.w3.org/1999/xlink" x="0px" y="0px" width="110px"
	 height="110px" viewBox="0 0 110 110" style="enable-background:new 0 0 110 110;" xml:space="preserve">
<g id="Artboard" style="display:none;">
	
		<rect x="-200.5" y="-162.5" style="display:inline;fill:#808080;stroke:#000000;stroke-miterlimit:10;" width="1392" height="1369"/>
</g>
<g id="R-Multicolor">
	<circle style="fill:#E04F5F;" cx="55" cy="55" r="55"/>
	<g>
		<path style="fill:#F0F1F1;" d="M85.909,57.551C84.787,55.953,82.952,55,81,55h-6.633c0-0.956-0.323-1.889-0.958-2.621
			C72.65,51.503,71.547,51,70.388,51H35.612c-1.16,0-2.262,0.503-3.022,1.379c-0.76,0.876-1.102,2.039-0.938,3.186L33.528,70
			c0.569,3.988,3.062,7.277,6.456,9h26.032c1.841-0.935,3.402-2.343,4.55-4.062c8.879-0.619,14.113-6.437,16.08-11.907
			C87.306,61.195,87.031,59.146,85.909,57.551z M82.882,61.678c-0.493,1.369-3.109,7.537-10.551,9.004
			C72.377,70.454,73.901,59,73.901,59H81c0.65,0,1.262,0.317,1.636,0.851C83.01,60.382,83.102,61.065,82.882,61.678z"/>
		<g>
			<path style="fill:#E2E4E5;" d="M86.636,80.772c0.326-0.268,0.448-0.712,0.306-1.109C86.799,79.266,86.422,79,86,79H24
				c-0.422,0-0.799,0.265-0.941,0.663s-0.02,0.841,0.306,1.11C28.233,84.781,35.953,87,42.314,87h25.373
				C74.047,87,81.767,84.781,86.636,80.772z"/>
		</g>
		<g>
			<path style="fill:#FFFFFF;" d="M53,51H35.612c-1.16,0-2.262,0.503-3.022,1.379c-0.76,0.876-1.102,2.039-0.938,3.186L33.528,70
				c0.569,3.988,3.062,7.277,6.456,9H53V51z"/>
		</g>
		<g>
			<path style="fill:#FFFFFF;" d="M45,32c0,0-5,1-5,4s5,4,3,8c0,0,3-1,3-4S40,37,45,32z"/>
		</g>
		<g>
			<path style="fill:#FFFFFF;" d="M54,32c0,0-5,1-5,4s5,4,3,8c0,0,3-1,3-4S49,37,54,32z"/>
		</g>
		<g>
			<path style="fill:#FFFFFF;" d="M63,32c0,0-5,1-5,4s5,4,3,8c0,0,3-1,3-4S58,37,63,32z"/>
		</g>
		<g>
			<path style="fill:#F0F1F1;" d="M53,79H24c-0.422,0-0.799,0.265-0.941,0.663s-0.02,0.841,0.306,1.11
				C28.233,84.781,35.953,87,42.313,87H53V79z"/>
		</g>
	</g>
</g>
<g id="Multicolor" style="display:none;">
	<g style="display:inline;">
		<path style="fill:#F0F1F1;" d="M85.909,57.551C84.787,55.953,82.952,55,81,55h-6.633c0-0.956-0.323-1.889-0.958-2.621
			C72.65,51.503,71.547,51,70.388,51H35.612c-1.16,0-2.262,0.503-3.022,1.379c-0.76,0.876-1.102,2.039-0.938,3.186L33.528,70
			c0.569,3.988,3.062,7.277,6.456,9h26.032c1.841-0.935,3.402-2.343,4.55-4.062c8.879-0.619,14.113-6.437,16.08-11.907
			C87.306,61.195,87.031,59.146,85.909,57.551z M82.882,61.678c-0.493,1.369-3.109,7.537-10.551,9.004
			C72.377,70.454,73.901,59,73.901,59H81c0.65,0,1.262,0.317,1.636,0.851C83.01,60.382,83.102,61.065,82.882,61.678z"/>
		<g>
			<path style="fill:#E2E4E5;" d="M86.636,80.772c0.326-0.268,0.448-0.712,0.306-1.109C86.799,79.266,86.422,79,86,79H24
				c-0.422,0-0.799,0.265-0.941,0.663s-0.02,0.841,0.306,1.11C28.233,84.781,35.953,87,42.314,87h25.373
				C74.047,87,81.767,84.781,86.636,80.772z"/>
		</g>
		<g>
			<path style="fill:#FFFFFF;" d="M53,51H35.612c-1.16,0-2.262,0.503-3.022,1.379c-0.76,0.876-1.102,2.039-0.938,3.186L33.528,70
				c0.569,3.988,3.062,7.277,6.456,9H53V51z"/>
		</g>
		<g>
			<path style="fill:#FFFFFF;" d="M45,32c0,0-5,1-5,4s5,4,3,8c0,0,3-1,3-4S40,37,45,32z"/>
		</g>
		<g>
			<path style="fill:#FFFFFF;" d="M54,32c0,0-5,1-5,4s5,4,3,8c0,0,3-1,3-4S49,37,54,32z"/>
		</g>
		<g>
			<path style="fill:#FFFFFF;" d="M63,32c0,0-5,1-5,4s5,4,3,8c0,0,3-1,3-4S58,37,63,32z"/>
		</g>
		<g>
			<path style="fill:#F0F1F1;" d="M53,79H24c-0.422,0-0.799,0.265-0.941,0.663s-0.02,0.841,0.306,1.11
				C28.233,84.781,35.953,87,42.313,87H53V79z"/>
		</g>
	</g>
</g>
<g id="Blue" style="display:none;">
	<g style="display:inline;">
		<path style="fill:#E1F5FA;" d="M85.909,57.551C84.787,55.953,82.952,55,81,55h-6.633c0-0.956-0.322-1.889-0.957-2.621
			C72.65,51.503,71.547,51,70.388,51H35.612c-1.159,0-2.263,0.503-3.022,1.379c-0.76,0.876-1.102,2.039-0.938,3.186L33.528,70
			c0.569,3.988,3.062,7.277,6.456,9h26.031c1.842-0.935,3.402-2.343,4.551-4.062c8.879-0.619,14.112-6.437,16.079-11.907
			C87.307,61.195,87.031,59.146,85.909,57.551z M82.882,61.678c-0.493,1.369-3.109,7.537-10.551,9.004
			C72.377,70.454,73.901,59,73.901,59H81c0.65,0,1.262,0.317,1.637,0.851C83.01,60.382,83.102,61.065,82.882,61.678z"/>
		<g>
			<path style="fill:#BBE7F2;" d="M86.636,80.772c0.325-0.268,0.448-0.712,0.306-1.109C86.799,79.266,86.422,79,86,79H24
				c-0.422,0-0.799,0.265-0.941,0.663c-0.143,0.397-0.02,0.841,0.307,1.11C28.233,84.781,35.953,87,42.313,87h25.373
				C74.047,87,81.767,84.781,86.636,80.772z"/>
		</g>
		<g>
			<path style="fill:#FFFFFF;" d="M53,51H35.612c-1.159,0-2.263,0.503-3.022,1.379c-0.76,0.876-1.102,2.039-0.938,3.186L33.528,70
				c0.569,3.988,3.062,7.277,6.456,9H53V51z"/>
		</g>
		<g>
			<path style="fill:#FFFFFF;" d="M45,32c0,0-5,1-5,4s5,4,3,8c0,0,3-1,3-4S40,37,45,32z"/>
		</g>
		<g>
			<path style="fill:#FFFFFF;" d="M54,32c0,0-5,1-5,4s5,4,3,8c0,0,3-1,3-4S49,37,54,32z"/>
		</g>
		<g>
			<path style="fill:#FFFFFF;" d="M63,32c0,0-5,1-5,4s5,4,3,8c0,0,3-1,3-4S58,37,63,32z"/>
		</g>
		<g>
			<path style="fill:#E1F5FA;" d="M53,79H24c-0.422,0-0.799,0.265-0.941,0.663c-0.143,0.397-0.02,0.841,0.307,1.11
				C28.233,84.781,35.953,87,42.313,87H53V79z"/>
		</g>
	</g>
</g>
<g id="R-Blue" style="display:none;">
	<circle style="display:inline;fill:#81D2EB;" cx="55" cy="55" r="55"/>
	<g style="display:inline;">
		<path style="fill:#E1F5FA;" d="M85.909,57.551C84.787,55.953,82.952,55,81,55h-6.633c0-0.956-0.322-1.889-0.957-2.621
			C72.65,51.503,71.547,51,70.388,51H35.612c-1.159,0-2.263,0.503-3.022,1.379c-0.76,0.876-1.102,2.039-0.938,3.186L33.528,70
			c0.569,3.988,3.062,7.277,6.456,9h26.031c1.842-0.935,3.402-2.343,4.551-4.062c8.879-0.619,14.112-6.437,16.079-11.907
			C87.307,61.195,87.031,59.146,85.909,57.551z M82.882,61.678c-0.493,1.369-3.109,7.537-10.551,9.004
			C72.377,70.454,73.901,59,73.901,59H81c0.65,0,1.262,0.317,1.637,0.851C83.01,60.382,83.102,61.065,82.882,61.678z"/>
		<g>
			<path style="fill:#BBE7F2;" d="M86.636,80.772c0.325-0.268,0.448-0.712,0.306-1.109C86.799,79.266,86.422,79,86,79H24
				c-0.422,0-0.799,0.265-0.941,0.663c-0.143,0.397-0.02,0.841,0.307,1.11C28.233,84.781,35.953,87,42.313,87h25.373
				C74.047,87,81.767,84.781,86.636,80.772z"/>
		</g>
		<g>
			<path style="fill:#FFFFFF;" d="M53,51H35.612c-1.159,0-2.263,0.503-3.022,1.379c-0.76,0.876-1.102,2.039-0.938,3.186L33.528,70
				c0.569,3.988,3.062,7.277,6.456,9H53V51z"/>
		</g>
		<g>
			<path style="fill:#FFFFFF;" d="M45,32c0,0-5,1-5,4s5,4,3,8c0,0,3-1,3-4S40,37,45,32z"/>
		</g>
		<g>
			<path style="fill:#FFFFFF;" d="M54,32c0,0-5,1-5,4s5,4,3,8c0,0,3-1,3-4S49,37,54,32z"/>
		</g>
		<g>
			<path style="fill:#FFFFFF;" d="M63,32c0,0-5,1-5,4s5,4,3,8c0,0,3-1,3-4S58,37,63,32z"/>
		</g>
		<g>
			<path style="fill:#E1F5FA;" d="M53,79H24c-0.422,0-0.799,0.265-0.941,0.663c-0.143,0.397-0.02,0.841,0.307,1.11
				C28.233,84.781,35.953,87,42.313,87H53V79z"/>
		</g>
	</g>
</g>
<g id="Green" style="display:none;">
	<g style="display:inline;">
		<path style="fill:#D7FCF9;" d="M85.909,57.551C84.787,55.953,82.952,55,81,55h-6.633c0-0.956-0.322-1.889-0.957-2.621
			C72.65,51.503,71.547,51,70.388,51H35.612c-1.159,0-2.263,0.503-3.022,1.379c-0.76,0.876-1.102,2.039-0.938,3.186L33.528,70
			c0.569,3.988,3.062,7.277,6.456,9h26.031c1.842-0.935,3.402-2.343,4.551-4.062c8.879-0.619,14.112-6.437,16.079-11.907
			C87.307,61.195,87.031,59.146,85.909,57.551z M82.882,61.678c-0.493,1.369-3.109,7.537-10.551,9.004
			C72.377,70.454,73.901,59,73.901,59H81c0.65,0,1.262,0.317,1.637,0.851C83.01,60.382,83.102,61.065,82.882,61.678z"/>
		<g>
			<path style="fill:#AAF0E9;" d="M86.636,80.772c0.325-0.268,0.448-0.712,0.306-1.109C86.799,79.266,86.422,79,86,79H24
				c-0.422,0-0.799,0.265-0.941,0.663c-0.143,0.397-0.02,0.841,0.307,1.11C28.233,84.781,35.953,87,42.313,87h25.373
				C74.047,87,81.767,84.781,86.636,80.772z"/>
		</g>
		<g>
			<path style="fill:#FFFFFF;" d="M53,51H35.612c-1.159,0-2.263,0.503-3.022,1.379c-0.76,0.876-1.102,2.039-0.938,3.186L33.528,70
				c0.569,3.988,3.062,7.277,6.456,9H53V51z"/>
		</g>
		<g>
			<path style="fill:#FFFFFF;" d="M45,32c0,0-5,1-5,4s5,4,3,8c0,0,3-1,3-4S40,37,45,32z"/>
		</g>
		<g>
			<path style="fill:#FFFFFF;" d="M54,32c0,0-5,1-5,4s5,4,3,8c0,0,3-1,3-4S49,37,54,32z"/>
		</g>
		<g>
			<path style="fill:#FFFFFF;" d="M63,32c0,0-5,1-5,4s5,4,3,8c0,0,3-1,3-4S58,37,63,32z"/>
		</g>
		<g>
			<path style="fill:#D7FCF9;" d="M53,79H24c-0.422,0-0.799,0.265-0.941,0.663c-0.143,0.397-0.02,0.841,0.307,1.11
				C28.233,84.781,35.953,87,42.313,87H53V79z"/>
		</g>
	</g>
</g>
<g id="R-Green" style="display:none;">
	<circle style="display:inline;fill:#77E0C4;" cx="55" cy="55" r="55"/>
	<g style="display:inline;">
		<path style="fill:#D7FCF9;" d="M85.909,57.551C84.787,55.953,82.952,55,81,55h-6.633c0-0.956-0.322-1.889-0.957-2.621
			C72.65,51.503,71.547,51,70.388,51H35.612c-1.159,0-2.263,0.503-3.022,1.379c-0.76,0.876-1.102,2.039-0.938,3.186L33.528,70
			c0.569,3.988,3.062,7.277,6.456,9h26.031c1.842-0.935,3.402-2.343,4.551-4.062c8.879-0.619,14.112-6.437,16.079-11.907
			C87.307,61.195,87.031,59.146,85.909,57.551z M82.882,61.678c-0.493,1.369-3.109,7.537-10.551,9.004
			C72.377,70.454,73.901,59,73.901,59H81c0.65,0,1.262,0.317,1.637,0.851C83.01,60.382,83.102,61.065,82.882,61.678z"/>
		<g>
			<path style="fill:#AAF0E9;" d="M86.636,80.772c0.325-0.268,0.448-0.712,0.306-1.109C86.799,79.266,86.422,79,86,79H24
				c-0.422,0-0.799,0.265-0.941,0.663c-0.143,0.397-0.019,0.841,0.307,1.11C28.233,84.781,35.953,87,42.313,87h25.373
				C74.047,87,81.767,84.781,86.636,80.772z"/>
		</g>
		<g>
			<path style="fill:#FFFFFF;" d="M53,51H35.612c-1.159,0-2.263,0.503-3.022,1.379c-0.76,0.876-1.102,2.039-0.938,3.186L33.528,70
				c0.569,3.988,3.062,7.277,6.456,9H53V51z"/>
		</g>
		<g>
			<path style="fill:#FFFFFF;" d="M45,32c0,0-5,1-5,4s5,4,3,8c0,0,3-1,3-4S40,37,45,32z"/>
		</g>
		<g>
			<path style="fill:#FFFFFF;" d="M54,32c0,0-5,1-5,4s5,4,3,8c0,0,3-1,3-4S49,37,54,32z"/>
		</g>
		<g>
			<path style="fill:#FFFFFF;" d="M63,32c0,0-5,1-5,4s5,4,3,8c0,0,3-1,3-4S58,37,63,32z"/>
		</g>
		<g>
			<path style="fill:#D7FCF9;" d="M53,79H24c-0.422,0-0.799,0.265-0.941,0.663c-0.143,0.397-0.019,0.841,0.307,1.11
				C28.233,84.781,35.953,87,42.313,87H53V79z"/>
		</g>
	</g>
</g>
<g id="Red" style="display:none;">
	<g style="display:inline;">
		<path style="fill:#FFEFED;" d="M85.909,57.551C84.787,55.953,82.952,55,81,55h-6.633c0-0.956-0.322-1.889-0.957-2.621
			C72.65,51.503,71.547,51,70.388,51H35.612c-1.159,0-2.263,0.503-3.022,1.379c-0.76,0.876-1.102,2.039-0.938,3.186L33.528,70
			c0.569,3.988,3.062,7.277,6.456,9h26.031c1.842-0.935,3.402-2.343,4.551-4.062c8.879-0.619,14.112-6.437,16.079-11.907
			C87.307,61.195,87.031,59.147,85.909,57.551z M82.882,61.678c-0.493,1.369-3.109,7.537-10.551,9.004
			C72.377,70.454,73.901,59,73.901,59H81c0.65,0,1.262,0.317,1.637,0.851C83.01,60.382,83.102,61.065,82.882,61.678z"/>
		<g>
			<path style="fill:#FFD7D4;" d="M86.636,80.773c0.325-0.268,0.448-0.712,0.306-1.109C86.799,79.266,86.422,79,86,79H24
				c-0.422,0-0.799,0.265-0.941,0.663c-0.143,0.397-0.019,0.841,0.307,1.11C28.233,84.781,35.953,87,42.313,87h25.373
				C74.047,87,81.767,84.781,86.636,80.773z"/>
		</g>
		<g>
			<path style="fill:#FFFFFF;" d="M53,51H35.612c-1.159,0-2.263,0.503-3.022,1.379c-0.76,0.876-1.102,2.039-0.938,3.186L33.528,70
				c0.569,3.988,3.062,7.277,6.456,9H53V51z"/>
		</g>
		<g>
			<path style="fill:#FFFFFF;" d="M45,32c0,0-5,1-5,4s5,4,3,8c0,0,3-1,3-4S40,37,45,32z"/>
		</g>
		<g>
			<path style="fill:#FFFFFF;" d="M54,32c0,0-5,1-5,4s5,4,3,8c0,0,3-1,3-4S49,37,54,32z"/>
		</g>
		<g>
			<path style="fill:#FFFFFF;" d="M63,32c0,0-5,1-5,4s5,4,3,8c0,0,3-1,3-4S58,37,63,32z"/>
		</g>
		<g>
			<path style="fill:#FFEFED;" d="M53,79H24c-0.422,0-0.799,0.265-0.941,0.663c-0.143,0.397-0.019,0.841,0.307,1.11
				C28.233,84.781,35.953,87,42.313,87H53V79z"/>
		</g>
	</g>
</g>
<g id="R-Red" style="display:none;">
	<circle style="display:inline;fill:#FABBAF;" cx="55" cy="55" r="55"/>
	<g style="display:inline;">
		<path style="fill:#FFEFED;" d="M85.909,57.551C84.787,55.953,82.952,55,81,55h-6.633c0-0.956-0.322-1.889-0.957-2.621
			C72.65,51.503,71.547,51,70.388,51H35.612c-1.159,0-2.263,0.503-3.022,1.379c-0.76,0.876-1.102,2.039-0.938,3.186L33.528,70
			c0.569,3.988,3.062,7.277,6.456,9h26.031c1.842-0.935,3.402-2.343,4.551-4.062c8.879-0.619,14.112-6.437,16.079-11.907
			C87.307,61.195,87.031,59.147,85.909,57.551z M82.882,61.678c-0.493,1.369-3.109,7.537-10.551,9.004
			C72.377,70.454,73.901,59,73.901,59H81c0.65,0,1.262,0.317,1.637,0.851C83.01,60.382,83.102,61.065,82.882,61.678z"/>
		<g>
			<path style="fill:#FFD7D4;" d="M86.636,80.773c0.325-0.268,0.448-0.712,0.306-1.109C86.799,79.266,86.422,79,86,79H24
				c-0.422,0-0.799,0.265-0.941,0.663c-0.143,0.397-0.019,0.841,0.307,1.11C28.233,84.781,35.953,87,42.313,87h25.373
				C74.047,87,81.767,84.781,86.636,80.773z"/>
		</g>
		<g>
			<path style="fill:#FFFFFF;" d="M53,51H35.612c-1.159,0-2.263,0.503-3.022,1.379c-0.76,0.876-1.102,2.039-0.938,3.186L33.528,70
				c0.569,3.988,3.062,7.277,6.456,9H53V51z"/>
		</g>
		<g>
			<path style="fill:#FFFFFF;" d="M45,32c0,0-5,1-5,4s5,4,3,8c0,0,3-1,3-4S40,37,45,32z"/>
		</g>
		<g>
			<path style="fill:#FFFFFF;" d="M54,32c0,0-5,1-5,4s5,4,3,8c0,0,3-1,3-4S49,37,54,32z"/>
		</g>
		<g>
			<path style="fill:#FFFFFF;" d="M63,32c0,0-5,1-5,4s5,4,3,8c0,0,3-1,3-4S58,37,63,32z"/>
		</g>
		<g>
			<path style="fill:#FFEFED;" d="M53,79H24c-0.422,0-0.799,0.265-0.941,0.663c-0.143,0.397-0.019,0.841,0.307,1.11
				C28.233,84.781,35.953,87,42.313,87H53V79z"/>
		</g>
	</g>
</g>
<g id="Yellow" style="display:none;">
	<g style="display:inline;">
		<path style="fill:#FFF5D9;" d="M85.909,57.551C84.787,55.953,82.952,55,81,55h-6.633c0-0.956-0.322-1.889-0.957-2.621
			C72.65,51.503,71.547,51,70.388,51H35.612c-1.159,0-2.263,0.503-3.022,1.379c-0.76,0.876-1.102,2.039-0.938,3.186L33.528,70
			c0.569,3.988,3.062,7.277,6.456,9h26.031c1.842-0.935,3.402-2.343,4.551-4.062c8.879-0.619,14.112-6.437,16.079-11.907
			C87.307,61.195,87.031,59.146,85.909,57.551z M82.882,61.678c-0.493,1.369-3.109,7.537-10.551,9.004
			C72.377,70.454,73.901,59,73.901,59H81c0.65,0,1.262,0.317,1.637,0.851C83.01,60.382,83.102,61.065,82.882,61.678z"/>
		<g>
			<path style="fill:#FFE9A1;" d="M86.636,80.772c0.325-0.268,0.448-0.712,0.306-1.109C86.799,79.266,86.422,79,86,79H24
				c-0.422,0-0.799,0.265-0.941,0.663c-0.143,0.397-0.019,0.841,0.307,1.11C28.233,84.781,35.953,87,42.313,87h25.373
				C74.047,87,81.767,84.781,86.636,80.772z"/>
		</g>
		<g>
			<path style="fill:#FFFFFF;" d="M53,51H35.612c-1.159,0-2.263,0.503-3.022,1.379c-0.76,0.876-1.102,2.039-0.938,3.186L33.528,70
				c0.569,3.988,3.062,7.277,6.456,9H53V51z"/>
		</g>
		<g>
			<path style="fill:#FFFFFF;" d="M45,32c0,0-5,1-5,4s5,4,3,8c0,0,3-1,3-4S40,37,45,32z"/>
		</g>
		<g>
			<path style="fill:#FFFFFF;" d="M54,32c0,0-5,1-5,4s5,4,3,8c0,0,3-1,3-4S49,37,54,32z"/>
		</g>
		<g>
			<path style="fill:#FFFFFF;" d="M63,32c0,0-5,1-5,4s5,4,3,8c0,0,3-1,3-4S58,37,63,32z"/>
		</g>
		<g>
			<path style="fill:#FFF5D9;" d="M53,79H24c-0.422,0-0.799,0.265-0.941,0.663c-0.143,0.397-0.019,0.841,0.307,1.11
				C28.233,84.781,35.953,87,42.313,87H53V79z"/>
		</g>
	</g>
</g>
<g id="R-Yellow" style="display:none;">
	<circle style="display:inline;fill:#FFD75E;" cx="55" cy="55" r="55"/>
	<g style="display:inline;">
		<path style="fill:#FFF5D9;" d="M85.909,57.551C84.787,55.953,82.952,55,81,55h-6.633c0-0.956-0.322-1.889-0.957-2.621
			C72.65,51.503,71.547,51,70.388,51H35.612c-1.159,0-2.263,0.503-3.022,1.379c-0.76,0.876-1.102,2.039-0.938,3.186L33.528,70
			c0.569,3.988,3.062,7.277,6.456,9h26.031c1.842-0.935,3.402-2.343,4.551-4.062c8.879-0.619,14.112-6.437,16.079-11.907
			C87.307,61.195,87.031,59.146,85.909,57.551z M82.882,61.678c-0.493,1.369-3.109,7.537-10.551,9.004
			C72.377,70.454,73.901,59,73.901,59H81c0.65,0,1.262,0.317,1.637,0.851C83.01,60.382,83.102,61.065,82.882,61.678z"/>
		<g>
			<path style="fill:#FFE9A1;" d="M86.636,80.772c0.325-0.268,0.448-0.712,0.306-1.109C86.799,79.266,86.422,79,86,79H24
				c-0.422,0-0.799,0.265-0.941,0.663c-0.143,0.397-0.02,0.841,0.307,1.11C28.233,84.781,35.953,87,42.313,87h25.373
				C74.047,87,81.767,84.781,86.636,80.772z"/>
		</g>
		<g>
			<path style="fill:#FFFFFF;" d="M53,51H35.612c-1.159,0-2.263,0.503-3.022,1.379c-0.76,0.876-1.102,2.039-0.938,3.186L33.528,70
				c0.569,3.988,3.062,7.277,6.456,9H53V51z"/>
		</g>
		<g>
			<path style="fill:#FFFFFF;" d="M45,32c0,0-5,1-5,4s5,4,3,8c0,0,3-1,3-4S40,37,45,32z"/>
		</g>
		<g>
			<path style="fill:#FFFFFF;" d="M54,32c0,0-5,1-5,4s5,4,3,8c0,0,3-1,3-4S49,37,54,32z"/>
		</g>
		<g>
			<path style="fill:#FFFFFF;" d="M63,32c0,0-5,1-5,4s5,4,3,8c0,0,3-1,3-4S58,37,63,32z"/>
		</g>
		<g>
			<path style="fill:#FFF5D9;" d="M53,79H24c-0.422,0-0.799,0.265-0.941,0.663c-0.143,0.397-0.02,0.841,0.307,1.11
				C28.233,84.781,35.953,87,42.313,87H53V79z"/>
		</g>
	</g>
</g>
</svg>
