<?xml version="1.0" encoding="iso-8859-1"?>
<!-- Generator: Adobe Illustrator 17.1.0, SVG Export Plug-In . SVG Version: 6.00 Build 0)  -->
<!DOCTYPE svg PUBLIC "-//W3C//DTD SVG 1.0//EN" "http://www.w3.org/TR/2001/REC-SVG-20010904/DTD/svg10.dtd">
<svg version="1.0" xmlns="http://www.w3.org/2000/svg" xmlns:xlink="http://www.w3.org/1999/xlink" x="0px" y="0px" width="110px"
	 height="110px" viewBox="0 0 110 110" style="enable-background:new 0 0 110 110;" xml:space="preserve">
<g id="Artboard" style="display:none;">
	
		<rect x="-328.5" y="-290.5" style="display:inline;fill:#808080;stroke:#000000;stroke-miterlimit:10;" width="1392" height="1369"/>
</g>
<g id="R-Multicolor">
	<circle style="fill:#25B7D3;" cx="55" cy="55" r="55"/>
	<g>
		<g>
			<path style="fill:#84462D;" d="M73.78,60.02c-2.819-0.435-6.75,2.147-6.75,6.34V66c0-3.31-2.68-6-6-6c-3.31,0-6,2.69-6,6
				c0-3.31-2.68-6-6-6c-3.31,0-6,2.69-6,6v0.36c0-4.188-3.928-6.773-6.74-6.34c0.82-2.2,2.02-4.21,3.52-5.97
				c0.93,0.6,2.04,0.95,3.22,0.95c16.83,0,6.66,0,24,0c1.22,0,2.36-0.28,3.4-0.76C71.85,55.95,72.98,57.9,73.78,60.02z"/>
		</g>
		<g>
			<path style="fill:#FFFFFF;" d="M67.188,39.009c-0.02-3.042-1.735-5.678-4.251-7.014c-1.314,3.891-6.786,3.067-17.745,3.067
				c-4.544,0-7.404,4.849-5.3,8.809c-1.567,0.964-2.596,2.548-2.832,4.352C36.589,51.914,39.464,55,43.005,55
				c8.988,0,14.681,0,23.94,0h0.06c4.42,0,8-3.58,8-8C75.005,42.801,71.663,39.112,67.188,39.009z"/>
		</g>
		<g>
			<circle style="fill:#DF2C2C;" cx="55.005" cy="30" r="5"/>
		</g>
		<g>
			<path style="fill:#F0F1F1;" d="M62.959,31.997c-1.513,4.125-2.203,7.433-23.603,7.676c-0.349,1.489-0.122,2.946,0.536,4.183
				C50.192,43.856,64.101,42.385,62.959,31.997z"/>
		</g>
		<g>
			<g>
				<path style="fill:#F0F1F1;" d="M67.163,38.476c-0.197-2.694-1.717-5.009-3.926-6.304c2.302,4.617-1.502,16.078-26.17,16.138
					c-0.286,2.57,1.022,4.808,3.034,5.931C58.719,53.434,67.464,45.371,67.163,38.476z"/>
			</g>
		</g>
		<g>
			<path style="fill:#F0F1F1;" d="M55.755,55c2.5,0,17.062-6.062,11.5-16c4.625,2,7.312,12.5-2.188,16
				C62.067,55,55.755,55,55.755,55z"/>
		</g>
		<g>
			<path style="fill:#FA5655;" d="M55.005,25c-2.761,0-5,2.239-5,5c0,1.24,0.468,2.359,1.215,3.233l7.018-7.018
				C57.364,25.468,56.244,25,55.005,25z"/>
		</g>
		<g>
			<path style="fill:#DF2C2C;" d="M43.005,87h-4.836c-1.854,0-3.466-1.275-3.893-3.079l-3.88-16.406
				c-0.344-1.857,0.156-3.771,1.364-5.223S34.759,60,36.647,60c3.511,0,6.357,2.846,6.357,6.357V87z"/>
		</g>
		<g>
			<path style="fill:#F0F1F1;" d="M43.005,87h12V66c0-3.314-2.686-6-6-6s-6,2.686-6,6V87z"/>
		</g>
		<g>
			<path style="fill:#9C6144;" d="M61.814,55l-7.76,7.76c-1.06-1.66-2.93-2.76-5.05-2.76c-3.31,0-6,2.69-6,6v0.36
				c0-3.51-2.84-6.36-6.35-6.36c-0.13,0-0.26,0-0.38,0.02c0.82-2.2,2.02-4.21,3.51-5.97c0.93,0.6,2.04,0.95,3.22,0.95H61.814z"/>
		</g>
		<g>
			<path style="fill:#F0F1F1;" d="M67.005,87h4.836c1.854,0,3.466-1.275,3.893-3.079l3.88-16.406
				c0.344-1.857-0.156-3.771-1.364-5.223C77.042,60.84,75.251,60,73.362,60c-3.511,0-6.357,2.846-6.357,6.357V87z"/>
		</g>
		<g>
			<path style="fill:#DF2C2C;" d="M67.005,87h-12V66c0-3.314,2.686-6,6-6s6,2.686,6,6V87z"/>
		</g>
		<g>
			<path style="fill:#FFFFFF;" d="M54.047,62.756C52.979,61.1,51.122,60,49.005,60c-3.314,0-6,2.686-6,6v7.799L54.047,62.756z"/>
		</g>
		<g>
			<path style="fill:#FA5655;" d="M43.005,66.357c0-3.511-2.846-6.357-6.357-6.357c-1.889,0-3.679,0.84-4.887,2.292
				c-1.208,1.452-1.708,3.366-1.364,5.223l3.614,15.279l8.995-8.995V66.357z"/>
		</g>
	</g>
</g>
<g id="Multicolor" style="display:none;">
	<g style="display:inline;">
		<g>
			<path style="fill:#84462D;" d="M73.78,60.02c-2.819-0.435-6.75,2.147-6.75,6.34V66c0-3.31-2.68-6-6-6c-3.31,0-6,2.69-6,6
				c0-3.31-2.68-6-6-6c-3.31,0-6,2.69-6,6v0.36c0-4.188-3.928-6.773-6.74-6.34c0.82-2.2,2.02-4.21,3.52-5.97
				c0.93,0.6,2.04,0.95,3.22,0.95c16.83,0,6.66,0,24,0c1.22,0,2.36-0.28,3.4-0.76C71.85,55.95,72.98,57.9,73.78,60.02z"/>
		</g>
		<g>
			<path style="fill:#FFFFFF;" d="M67.188,39.009c-0.02-3.042-1.735-5.678-4.251-7.014c-1.314,3.891-6.786,3.067-17.745,3.067
				c-4.544,0-7.404,4.849-5.3,8.809c-1.567,0.964-2.596,2.548-2.832,4.352C36.589,51.914,39.464,55,43.005,55
				c8.988,0,14.681,0,23.94,0h0.06c4.42,0,8-3.58,8-8C75.005,42.801,71.663,39.112,67.188,39.009z"/>
		</g>
		<g>
			<circle style="fill:#DF2C2C;" cx="55.005" cy="30" r="5"/>
		</g>
		<g>
			<path style="fill:#F0F1F1;" d="M62.959,31.997c-1.513,4.125-2.203,7.433-23.603,7.676c-0.349,1.489-0.122,2.946,0.536,4.183
				C50.192,43.856,64.101,42.385,62.959,31.997z"/>
		</g>
		<g>
			<g>
				<path style="fill:#F0F1F1;" d="M67.163,38.476c-0.197-2.694-1.717-5.009-3.926-6.304c2.302,4.617-1.502,16.078-26.17,16.138
					c-0.286,2.57,1.022,4.808,3.034,5.931C58.719,53.434,67.464,45.371,67.163,38.476z"/>
			</g>
		</g>
		<g>
			<path style="fill:#F0F1F1;" d="M55.755,55c2.5,0,17.062-6.062,11.5-16c4.625,2,7.312,12.5-2.188,16
				C62.067,55,55.755,55,55.755,55z"/>
		</g>
		<g>
			<path style="fill:#FA5655;" d="M55.005,25c-2.761,0-5,2.239-5,5c0,1.24,0.468,2.359,1.215,3.233l7.018-7.018
				C57.364,25.468,56.244,25,55.005,25z"/>
		</g>
		<g>
			<path style="fill:#DF2C2C;" d="M43.005,87h-4.836c-1.854,0-3.466-1.275-3.893-3.079l-3.88-16.406
				c-0.344-1.857,0.156-3.771,1.364-5.223S34.759,60,36.647,60c3.511,0,6.357,2.846,6.357,6.357V87z"/>
		</g>
		<g>
			<path style="fill:#F0F1F1;" d="M43.005,87h12V66c0-3.314-2.686-6-6-6s-6,2.686-6,6V87z"/>
		</g>
		<g>
			<path style="fill:#9C6144;" d="M61.814,55l-7.76,7.76c-1.06-1.66-2.93-2.76-5.05-2.76c-3.31,0-6,2.69-6,6v0.36
				c0-3.51-2.84-6.36-6.35-6.36c-0.13,0-0.26,0-0.38,0.02c0.82-2.2,2.02-4.21,3.51-5.97c0.93,0.6,2.04,0.95,3.22,0.95H61.814z"/>
		</g>
		<g>
			<path style="fill:#F0F1F1;" d="M67.005,87h4.836c1.854,0,3.466-1.275,3.893-3.079l3.88-16.406
				c0.344-1.857-0.156-3.771-1.364-5.223C77.042,60.84,75.251,60,73.362,60c-3.511,0-6.357,2.846-6.357,6.357V87z"/>
		</g>
		<g>
			<path style="fill:#DF2C2C;" d="M67.005,87h-12V66c0-3.314,2.686-6,6-6s6,2.686,6,6V87z"/>
		</g>
		<g>
			<path style="fill:#FFFFFF;" d="M54.047,62.756C52.979,61.1,51.122,60,49.005,60c-3.314,0-6,2.686-6,6v7.799L54.047,62.756z"/>
		</g>
		<g>
			<path style="fill:#FA5655;" d="M43.005,66.357c0-3.511-2.846-6.357-6.357-6.357c-1.889,0-3.679,0.84-4.887,2.292
				c-1.208,1.452-1.708,3.366-1.364,5.223l3.614,15.279l8.995-8.995V66.357z"/>
		</g>
	</g>
</g>
<g id="Blue" style="display:none;">
	<g style="display:inline;">
		<g>
			<path style="fill:#0C333D;" d="M73.779,60.02c-2.818-0.435-6.75,2.147-6.75,6.34V66c0-3.31-2.68-6-6-6c-3.31,0-6,2.69-6,6
				c0-3.31-2.68-6-6-6c-3.31,0-6,2.69-6,6v0.36c0-4.188-3.928-6.773-6.739-6.34c0.819-2.2,2.021-4.21,3.521-5.97
				c0.93,0.6,2.039,0.95,3.219,0.95c16.83,0,6.66,0,24,0c1.221,0,2.36-0.28,3.4-0.76C71.85,55.95,72.98,57.9,73.779,60.02z"/>
		</g>
		<g>
			<path style="fill:#FFFFFF;" d="M67.188,39.009c-0.02-3.042-1.734-5.678-4.25-7.014c-1.314,3.892-6.786,3.067-17.746,3.067
				c-4.543,0-7.402,4.849-5.3,8.809c-1.567,0.964-2.596,2.548-2.831,4.352C36.588,51.914,39.465,55,43.004,55
				c8.988,0,14.682,0,23.941,0h0.059c4.42,0,8-3.58,8-8C75.004,42.801,71.664,39.112,67.188,39.009z"/>
		</g>
		<g>
			<circle style="fill:#0081A1;" cx="55.004" cy="30" r="5"/>
		</g>
		<g>
			<path style="fill:#E1F5FA;" d="M62.959,31.997c-1.514,4.125-2.203,7.433-23.604,7.676c-0.348,1.489-0.121,2.946,0.536,4.183
				C50.191,43.856,64.101,42.385,62.959,31.997z"/>
		</g>
		<g>
			<g>
				<path style="fill:#E1F5FA;" d="M67.163,38.476c-0.197-2.694-1.717-5.009-3.926-6.304c2.303,4.617-1.503,16.077-26.171,16.138
					c-0.285,2.571,1.023,4.808,3.035,5.931C58.719,53.434,67.463,45.371,67.163,38.476z"/>
			</g>
		</g>
		<g>
			<path style="fill:#E1F5FA;" d="M55.754,55c2.5,0,17.062-6.062,11.5-16c4.625,2,7.312,12.5-2.188,16
				C62.066,55,55.754,55,55.754,55z"/>
		</g>
		<g>
			<path style="fill:#009FC7;" d="M55.004,25c-2.761,0-5,2.239-5,5c0,1.24,0.469,2.359,1.215,3.233l7.019-7.018
				C57.363,25.468,56.244,25,55.004,25z"/>
		</g>
		<g>
			<path style="fill:#0081A1;" d="M43.004,87h-4.835c-1.854,0-3.466-1.274-3.892-3.079l-3.88-16.406
				c-0.344-1.857,0.155-3.771,1.363-5.223C32.968,60.84,34.759,60,36.647,60c3.511,0,6.356,2.847,6.356,6.357V87z"/>
		</g>
		<g>
			<path style="fill:#E1F5FA;" d="M43.004,87h12V66c0-3.313-2.686-6-6-6c-3.312,0-6,2.687-6,6V87z"/>
		</g>
		<g>
			<path style="fill:#0F6175;" d="M61.814,55l-7.76,7.76C52.994,61.1,51.125,60,49.004,60c-3.31,0-6,2.69-6,6v0.36
				c0-3.51-2.84-6.36-6.35-6.36c-0.13,0-0.26,0-0.38,0.02c0.819-2.2,2.021-4.21,3.51-5.97c0.931,0.6,2.04,0.95,3.22,0.95H61.814z"/>
		</g>
		<g>
			<path style="fill:#E1F5FA;" d="M67.004,87h4.836c1.855,0,3.467-1.274,3.893-3.079l3.881-16.406
				c0.344-1.857-0.156-3.771-1.363-5.223C77.041,60.84,75.25,60,73.361,60c-3.51,0-6.357,2.847-6.357,6.357V87z"/>
		</g>
		<g>
			<path style="fill:#0081A1;" d="M67.004,87h-12V66c0-3.313,2.688-6,6-6c3.314,0,6,2.687,6,6V87z"/>
		</g>
		<g>
			<path style="fill:#FFFFFF;" d="M54.047,62.756C52.979,61.1,51.122,60,49.004,60c-3.312,0-6,2.687-6,6v7.799L54.047,62.756z"/>
		</g>
		<g>
			<path style="fill:#009FC7;" d="M43.004,66.357c0-3.511-2.846-6.357-6.357-6.357c-1.889,0-3.679,0.84-4.887,2.292
				c-1.208,1.452-1.707,3.366-1.363,5.223l3.613,15.279l8.994-8.995V66.357z"/>
		</g>
	</g>
</g>
<g id="R-Blue" style="display:none;">
	<circle style="display:inline;fill:#81D2EB;" cx="55" cy="55" r="55"/>
	<g style="display:inline;">
		<g>
			<path style="fill:#0C333D;" d="M73.779,60.02c-2.818-0.435-6.75,2.147-6.75,6.34V66c0-3.31-2.68-6-6-6c-3.31,0-6,2.69-6,6
				c0-3.31-2.68-6-6-6c-3.31,0-6,2.69-6,6v0.36c0-4.188-3.928-6.773-6.739-6.34c0.819-2.2,2.021-4.21,3.521-5.97
				c0.93,0.6,2.039,0.95,3.219,0.95c16.83,0,6.66,0,24,0c1.221,0,2.36-0.28,3.4-0.76C71.85,55.95,72.98,57.9,73.779,60.02z"/>
		</g>
		<g>
			<path style="fill:#FFFFFF;" d="M67.188,39.009c-0.02-3.042-1.734-5.678-4.25-7.014c-1.314,3.892-6.786,3.067-17.746,3.067
				c-4.543,0-7.402,4.849-5.3,8.809c-1.567,0.964-2.596,2.548-2.831,4.352C36.588,51.914,39.465,55,43.004,55
				c8.988,0,14.682,0,23.941,0h0.059c4.42,0,8-3.58,8-8C75.004,42.801,71.664,39.112,67.188,39.009z"/>
		</g>
		<g>
			<circle style="fill:#0081A1;" cx="55.004" cy="30" r="5"/>
		</g>
		<g>
			<path style="fill:#E1F5FA;" d="M62.959,31.997c-1.514,4.125-2.203,7.433-23.604,7.676c-0.348,1.489-0.121,2.946,0.536,4.183
				C50.191,43.856,64.101,42.385,62.959,31.997z"/>
		</g>
		<g>
			<g>
				<path style="fill:#E1F5FA;" d="M67.163,38.476c-0.197-2.694-1.717-5.009-3.926-6.304c2.303,4.617-1.503,16.077-26.171,16.138
					c-0.285,2.571,1.023,4.808,3.035,5.931C58.719,53.434,67.463,45.371,67.163,38.476z"/>
			</g>
		</g>
		<g>
			<path style="fill:#E1F5FA;" d="M55.754,55c2.5,0,17.062-6.062,11.5-16c4.625,2,7.312,12.5-2.188,16
				C62.066,55,55.754,55,55.754,55z"/>
		</g>
		<g>
			<path style="fill:#009FC7;" d="M55.004,25c-2.761,0-5,2.239-5,5c0,1.24,0.469,2.359,1.215,3.233l7.019-7.018
				C57.363,25.468,56.244,25,55.004,25z"/>
		</g>
		<g>
			<path style="fill:#0081A1;" d="M43.004,87h-4.835c-1.854,0-3.466-1.274-3.892-3.079l-3.88-16.406
				c-0.344-1.857,0.155-3.771,1.363-5.223C32.968,60.84,34.759,60,36.647,60c3.511,0,6.356,2.847,6.356,6.357V87z"/>
		</g>
		<g>
			<path style="fill:#E1F5FA;" d="M43.004,87h12V66c0-3.314-2.686-6-6-6c-3.312,0-6,2.687-6,6V87z"/>
		</g>
		<g>
			<path style="fill:#0F6175;" d="M61.814,55l-7.76,7.76C52.994,61.1,51.125,60,49.004,60c-3.31,0-6,2.69-6,6v0.36
				c0-3.51-2.84-6.36-6.35-6.36c-0.13,0-0.26,0-0.38,0.02c0.819-2.2,2.021-4.21,3.51-5.97c0.931,0.6,2.04,0.95,3.22,0.95H61.814z"/>
		</g>
		<g>
			<path style="fill:#E1F5FA;" d="M67.004,87h4.836c1.855,0,3.467-1.274,3.893-3.079l3.881-16.406
				c0.344-1.857-0.156-3.771-1.363-5.223C77.041,60.84,75.25,60,73.361,60c-3.51,0-6.357,2.847-6.357,6.357V87z"/>
		</g>
		<g>
			<path style="fill:#0081A1;" d="M67.004,87h-12V66c0-3.314,2.688-6,6-6c3.314,0,6,2.687,6,6V87z"/>
		</g>
		<g>
			<path style="fill:#FFFFFF;" d="M54.047,62.756C52.979,61.1,51.122,60,49.004,60c-3.312,0-6,2.687-6,6v7.799L54.047,62.756z"/>
		</g>
		<g>
			<path style="fill:#009FC7;" d="M43.004,66.357c0-3.511-2.846-6.357-6.357-6.357c-1.889,0-3.679,0.84-4.887,2.292
				c-1.208,1.452-1.707,3.366-1.363,5.223l3.613,15.279l8.994-8.995V66.357z"/>
		</g>
	</g>
</g>
<g id="Green" style="display:none;">
	<g style="display:inline;">
		<g>
			<path style="fill:#0A3631;" d="M73.779,60.02c-2.818-0.435-6.75,2.147-6.75,6.34V66c0-3.31-2.68-6-6-6c-3.31,0-6,2.69-6,6
				c0-3.31-2.68-6-6-6c-3.31,0-6,2.69-6,6v0.36c0-4.188-3.928-6.773-6.739-6.34c0.819-2.2,2.021-4.21,3.521-5.97
				c0.93,0.6,2.039,0.95,3.219,0.95c16.83,0,6.66,0,24,0c1.221,0,2.36-0.28,3.4-0.76C71.85,55.95,72.98,57.9,73.779,60.02z"/>
		</g>
		<g>
			<path style="fill:#FFFFFF;" d="M67.188,39.009c-0.02-3.042-1.734-5.678-4.25-7.014c-1.314,3.892-6.786,3.067-17.746,3.067
				c-4.543,0-7.402,4.849-5.3,8.809c-1.567,0.964-2.596,2.548-2.831,4.352C36.588,51.914,39.465,55,43.004,55
				c8.988,0,14.682,0,23.941,0h0.059c4.42,0,8-3.58,8-8C75.004,42.801,71.664,39.112,67.188,39.009z"/>
		</g>
		<g>
			<circle style="fill:#009687;" cx="55.004" cy="30" r="5"/>
		</g>
		<g>
			<path style="fill:#D7FCF9;" d="M62.959,31.997c-1.514,4.125-2.203,7.433-23.604,7.676c-0.348,1.489-0.121,2.946,0.536,4.183
				C50.191,43.856,64.101,42.385,62.959,31.997z"/>
		</g>
		<g>
			<g>
				<path style="fill:#D7FCF9;" d="M67.163,38.476c-0.197-2.694-1.717-5.009-3.926-6.304c2.303,4.617-1.503,16.077-26.171,16.138
					c-0.285,2.571,1.023,4.808,3.035,5.931C58.719,53.434,67.463,45.371,67.163,38.476z"/>
			</g>
		</g>
		<g>
			<path style="fill:#D7FCF9;" d="M55.754,55c2.5,0,17.062-6.062,11.5-16c4.625,2,7.312,12.5-2.188,16
				C62.066,55,55.754,55,55.754,55z"/>
		</g>
		<g>
			<path style="fill:#00B8A5;" d="M55.004,25c-2.761,0-5,2.239-5,5c0,1.24,0.469,2.359,1.215,3.233l7.019-7.018
				C57.363,25.468,56.244,25,55.004,25z"/>
		</g>
		<g>
			<path style="fill:#009687;" d="M43.004,87h-4.835c-1.854,0-3.466-1.274-3.892-3.079l-3.88-16.406
				c-0.344-1.857,0.155-3.771,1.363-5.223C32.968,60.84,34.759,60,36.647,60c3.511,0,6.356,2.847,6.356,6.357V87z"/>
		</g>
		<g>
			<path style="fill:#D7FCF9;" d="M43.004,87h12V66c0-3.313-2.686-6-6-6c-3.312,0-6,2.687-6,6V87z"/>
		</g>
		<g>
			<path style="fill:#14635B;" d="M61.814,55l-7.76,7.76C52.994,61.1,51.125,60,49.004,60c-3.31,0-6,2.69-6,6v0.36
				c0-3.51-2.84-6.36-6.35-6.36c-0.13,0-0.26,0-0.38,0.02c0.819-2.2,2.021-4.21,3.51-5.97c0.931,0.6,2.04,0.95,3.22,0.95H61.814z"/>
		</g>
		<g>
			<path style="fill:#D7FCF9;" d="M67.004,87h4.836c1.855,0,3.467-1.274,3.893-3.079l3.881-16.406
				c0.344-1.857-0.156-3.771-1.363-5.223C77.041,60.84,75.25,60,73.361,60c-3.51,0-6.357,2.847-6.357,6.357V87z"/>
		</g>
		<g>
			<path style="fill:#009687;" d="M67.004,87h-12V66c0-3.313,2.688-6,6-6c3.314,0,6,2.687,6,6V87z"/>
		</g>
		<g>
			<path style="fill:#FFFFFF;" d="M54.047,62.756C52.979,61.1,51.122,60,49.004,60c-3.312,0-6,2.687-6,6v7.799L54.047,62.756z"/>
		</g>
		<g>
			<path style="fill:#00B8A5;" d="M43.004,66.357c0-3.511-2.846-6.357-6.357-6.357c-1.889,0-3.679,0.84-4.887,2.292
				c-1.208,1.452-1.707,3.366-1.363,5.223l3.613,15.279l8.994-8.995V66.357z"/>
		</g>
	</g>
</g>
<g id="R-Green" style="display:none;">
	<circle style="display:inline;fill:#77E0C4;" cx="55" cy="55" r="55"/>
	<g style="display:inline;">
		<g>
			<path style="fill:#0A3631;" d="M73.779,60.02c-2.818-0.435-6.75,2.147-6.75,6.34V66c0-3.31-2.68-6-6-6c-3.31,0-6,2.69-6,6
				c0-3.31-2.68-6-6-6c-3.31,0-6,2.69-6,6v0.36c0-4.188-3.928-6.773-6.739-6.34c0.819-2.2,2.021-4.21,3.521-5.97
				c0.93,0.6,2.039,0.95,3.219,0.95c16.83,0,6.66,0,24,0c1.221,0,2.36-0.28,3.4-0.76C71.85,55.95,72.98,57.9,73.779,60.02z"/>
		</g>
		<g>
			<path style="fill:#FFFFFF;" d="M67.188,39.009c-0.02-3.042-1.734-5.678-4.25-7.014c-1.314,3.892-6.786,3.067-17.746,3.067
				c-4.543,0-7.402,4.849-5.3,8.809c-1.567,0.964-2.596,2.548-2.831,4.352C36.588,51.914,39.465,55,43.004,55
				c8.988,0,14.682,0,23.941,0h0.059c4.42,0,8-3.58,8-8C75.004,42.801,71.664,39.112,67.188,39.009z"/>
		</g>
		<g>
			<circle style="fill:#009687;" cx="55.004" cy="30" r="5"/>
		</g>
		<g>
			<path style="fill:#D7FCF9;" d="M62.959,31.997c-1.514,4.125-2.203,7.433-23.604,7.676c-0.348,1.489-0.121,2.946,0.536,4.183
				C50.191,43.856,64.101,42.385,62.959,31.997z"/>
		</g>
		<g>
			<g>
				<path style="fill:#D7FCF9;" d="M67.163,38.476c-0.197-2.694-1.717-5.009-3.926-6.304c2.303,4.617-1.503,16.077-26.171,16.138
					c-0.285,2.571,1.023,4.808,3.035,5.931C58.719,53.434,67.463,45.371,67.163,38.476z"/>
			</g>
		</g>
		<g>
			<path style="fill:#D7FCF9;" d="M55.754,55c2.5,0,17.062-6.062,11.5-16c4.625,2,7.312,12.5-2.188,16
				C62.066,55,55.754,55,55.754,55z"/>
		</g>
		<g>
			<path style="fill:#00B8A5;" d="M55.004,25c-2.761,0-5,2.239-5,5c0,1.24,0.469,2.359,1.215,3.233l7.019-7.018
				C57.363,25.468,56.244,25,55.004,25z"/>
		</g>
		<g>
			<path style="fill:#009687;" d="M43.004,87h-4.835c-1.854,0-3.466-1.274-3.892-3.079l-3.88-16.406
				c-0.344-1.857,0.155-3.771,1.363-5.223C32.968,60.84,34.759,60,36.647,60c3.511,0,6.356,2.847,6.356,6.357V87z"/>
		</g>
		<g>
			<path style="fill:#D7FCF9;" d="M43.004,87h12V66c0-3.313-2.685-6-6-6c-3.312,0-6,2.687-6,6V87z"/>
		</g>
		<g>
			<path style="fill:#14635B;" d="M61.814,55l-7.76,7.76C52.994,61.1,51.125,60,49.004,60c-3.31,0-6,2.69-6,6v0.36
				c0-3.51-2.84-6.36-6.35-6.36c-0.13,0-0.26,0-0.38,0.02c0.819-2.2,2.021-4.21,3.51-5.97c0.931,0.6,2.04,0.95,3.22,0.95H61.814z"/>
		</g>
		<g>
			<path style="fill:#D7FCF9;" d="M67.004,87h4.836c1.855,0,3.467-1.274,3.893-3.079l3.881-16.406
				c0.344-1.857-0.156-3.771-1.363-5.223C77.041,60.84,75.25,60,73.361,60c-3.51,0-6.357,2.847-6.357,6.357V87z"/>
		</g>
		<g>
			<path style="fill:#009687;" d="M67.004,87h-12V66c0-3.313,2.688-6,6-6c3.314,0,6,2.687,6,6V87z"/>
		</g>
		<g>
			<path style="fill:#FFFFFF;" d="M54.047,62.756C52.979,61.1,51.122,60,49.004,60c-3.312,0-6,2.687-6,6v7.799L54.047,62.756z"/>
		</g>
		<g>
			<path style="fill:#00B8A5;" d="M43.004,66.357c0-3.511-2.846-6.357-6.357-6.357c-1.889,0-3.679,0.84-4.887,2.292
				c-1.208,1.452-1.707,3.366-1.363,5.223l3.613,15.279l8.994-8.995V66.357z"/>
		</g>
	</g>
</g>
<g id="Red" style="display:none;">
	<g style="display:inline;">
		<g>
			<path style="fill:#4A1410;" d="M73.779,60.02c-2.818-0.435-6.75,2.147-6.75,6.34V66c0-3.31-2.68-6-6-6c-3.31,0-6,2.69-6,6
				c0-3.31-2.68-6-6-6c-3.31,0-6,2.69-6,6v0.36c0-4.188-3.928-6.773-6.739-6.34c0.819-2.2,2.02-4.21,3.52-5.97
				c0.93,0.6,2.039,0.95,3.219,0.95c16.83,0,6.66,0,24,0c1.221,0,2.36-0.28,3.4-0.76C71.85,55.95,72.98,57.9,73.779,60.02z"/>
		</g>
		<g>
			<path style="fill:#FFFFFF;" d="M67.188,39.009c-0.02-3.042-1.734-5.678-4.25-7.014c-1.314,3.892-6.786,3.067-17.746,3.067
				c-4.543,0-7.402,4.849-5.3,8.809c-1.567,0.964-2.596,2.548-2.831,4.352C36.588,51.914,39.465,55,43.004,55
				c8.988,0,14.682,0,23.941,0h0.059c4.42,0,8-3.58,8-8C75.004,42.801,71.664,39.112,67.188,39.009z"/>
		</g>
		<g>
			<circle style="fill:#C23023;" cx="55.004" cy="30" r="5"/>
		</g>
		<g>
			<path style="fill:#FFEFED;" d="M62.959,31.997c-1.514,4.125-2.203,7.433-23.604,7.676c-0.348,1.489-0.121,2.946,0.536,4.183
				C50.191,43.856,64.101,42.385,62.959,31.997z"/>
		</g>
		<g>
			<g>
				<path style="fill:#FFEFED;" d="M67.163,38.476c-0.197-2.694-1.717-5.009-3.926-6.304c2.303,4.617-1.503,16.077-26.171,16.138
					c-0.285,2.571,1.023,4.808,3.035,5.931C58.719,53.434,67.463,45.371,67.163,38.476z"/>
			</g>
		</g>
		<g>
			<path style="fill:#FFEFED;" d="M55.754,55c2.5,0,17.062-6.062,11.5-16c4.625,2,7.312,12.5-2.188,16
				C62.066,55,55.754,55,55.754,55z"/>
		</g>
		<g>
			<path style="fill:#E54B44;" d="M55.004,25c-2.761,0-5,2.239-5,5c0,1.24,0.469,2.359,1.215,3.233l7.019-7.018
				C57.363,25.468,56.244,25,55.004,25z"/>
		</g>
		<g>
			<path style="fill:#C23023;" d="M43.004,87h-4.835c-1.854,0-3.466-1.274-3.892-3.079l-3.88-16.406
				c-0.344-1.857,0.155-3.771,1.363-5.223C32.968,60.84,34.759,60,36.647,60c3.511,0,6.356,2.847,6.356,6.357V87z"/>
		</g>
		<g>
			<path style="fill:#FFEFED;" d="M43.004,87h12V66c0-3.313-2.686-6-6-6c-3.312,0-6,2.687-6,6V87z"/>
		</g>
		<g>
			<path style="fill:#7D261E;" d="M61.814,55l-7.76,7.76C52.994,61.1,51.125,60,49.004,60c-3.31,0-6,2.69-6,6v0.36
				c0-3.51-2.84-6.36-6.35-6.36c-0.13,0-0.26,0-0.38,0.02c0.819-2.2,2.021-4.21,3.51-5.97c0.931,0.6,2.04,0.95,3.22,0.95H61.814z"/>
		</g>
		<g>
			<path style="fill:#FFEFED;" d="M67.004,87h4.836c1.855,0,3.467-1.274,3.893-3.079l3.881-16.406
				c0.344-1.857-0.156-3.771-1.363-5.223C77.041,60.84,75.25,60,73.361,60c-3.51,0-6.357,2.847-6.357,6.357V87z"/>
		</g>
		<g>
			<path style="fill:#C23023;" d="M67.004,87h-12V66c0-3.313,2.687-6,6-6c3.315,0,6,2.687,6,6V87z"/>
		</g>
		<g>
			<path style="fill:#FFFFFF;" d="M54.047,62.756C52.979,61.1,51.122,60,49.004,60c-3.312,0-6,2.687-6,6v7.799L54.047,62.756z"/>
		</g>
		<g>
			<path style="fill:#E54B44;" d="M43.004,66.357c0-3.511-2.846-6.357-6.357-6.357c-1.889,0-3.679,0.84-4.887,2.292
				c-1.208,1.452-1.707,3.366-1.363,5.223l3.613,15.279l8.994-8.995V66.357z"/>
		</g>
	</g>
</g>
<g id="R-Red" style="display:none;">
	<circle style="display:inline;fill:#FABBAF;" cx="55" cy="55" r="55"/>
	<g style="display:inline;">
		<g>
			<path style="fill:#4A1410;" d="M73.779,60.02c-2.818-0.435-6.75,2.147-6.75,6.34V66c0-3.31-2.68-6-6-6c-3.31,0-6,2.69-6,6
				c0-3.31-2.68-6-6-6c-3.31,0-6,2.69-6,6v0.36c0-4.188-3.928-6.773-6.739-6.34c0.819-2.2,2.02-4.21,3.52-5.97
				c0.93,0.6,2.039,0.95,3.219,0.95c16.83,0,6.66,0,24,0c1.221,0,2.36-0.28,3.4-0.76C71.85,55.95,72.98,57.9,73.779,60.02z"/>
		</g>
		<g>
			<path style="fill:#FFFFFF;" d="M67.188,39.009c-0.02-3.042-1.734-5.678-4.25-7.014c-1.314,3.892-6.786,3.067-17.746,3.067
				c-4.543,0-7.402,4.849-5.3,8.809c-1.567,0.964-2.596,2.548-2.831,4.352C36.588,51.914,39.465,55,43.004,55
				c8.988,0,14.682,0,23.941,0h0.059c4.42,0,8-3.58,8-8C75.004,42.801,71.664,39.112,67.188,39.009z"/>
		</g>
		<g>
			<circle style="fill:#C23023;" cx="55.004" cy="30" r="5"/>
		</g>
		<g>
			<path style="fill:#FFEFED;" d="M62.959,31.997c-1.514,4.125-2.203,7.433-23.604,7.676c-0.348,1.489-0.121,2.946,0.536,4.183
				C50.191,43.856,64.101,42.385,62.959,31.997z"/>
		</g>
		<g>
			<g>
				<path style="fill:#FFEFED;" d="M67.163,38.476c-0.197-2.694-1.717-5.009-3.926-6.304c2.303,4.617-1.503,16.077-26.171,16.138
					c-0.285,2.571,1.023,4.808,3.035,5.931C58.719,53.434,67.463,45.371,67.163,38.476z"/>
			</g>
		</g>
		<g>
			<path style="fill:#FFEFED;" d="M55.754,55c2.5,0,17.062-6.062,11.5-16c4.625,2,7.312,12.5-2.188,16
				C62.066,55,55.754,55,55.754,55z"/>
		</g>
		<g>
			<path style="fill:#E54B44;" d="M55.004,25c-2.761,0-5,2.239-5,5c0,1.24,0.469,2.359,1.215,3.233l7.019-7.018
				C57.363,25.468,56.244,25,55.004,25z"/>
		</g>
		<g>
			<path style="fill:#C23023;" d="M43.004,87h-4.835c-1.854,0-3.466-1.274-3.892-3.079l-3.88-16.406
				c-0.344-1.857,0.155-3.771,1.363-5.223C32.968,60.84,34.759,60,36.647,60c3.511,0,6.356,2.847,6.356,6.357V87z"/>
		</g>
		<g>
			<path style="fill:#FFEFED;" d="M43.004,87h12V66c0-3.313-2.686-6-6-6c-3.312,0-6,2.687-6,6V87z"/>
		</g>
		<g>
			<path style="fill:#7D261E;" d="M61.814,55l-7.76,7.76C52.994,61.1,51.125,60,49.004,60c-3.31,0-6,2.69-6,6v0.36
				c0-3.51-2.84-6.36-6.35-6.36c-0.13,0-0.26,0-0.38,0.02c0.819-2.2,2.021-4.21,3.51-5.97c0.931,0.6,2.04,0.95,3.22,0.95H61.814z"/>
		</g>
		<g>
			<path style="fill:#FFEFED;" d="M67.004,87h4.836c1.855,0,3.467-1.274,3.893-3.079l3.881-16.406
				c0.344-1.857-0.156-3.771-1.363-5.223C77.041,60.84,75.25,60,73.361,60c-3.51,0-6.357,2.847-6.357,6.357V87z"/>
		</g>
		<g>
			<path style="fill:#C23023;" d="M67.004,87h-12V66c0-3.313,2.687-6,6-6c3.315,0,6,2.687,6,6V87z"/>
		</g>
		<g>
			<path style="fill:#FFFFFF;" d="M54.047,62.756C52.979,61.1,51.122,60,49.004,60c-3.312,0-6,2.687-6,6v7.799L54.047,62.756z"/>
		</g>
		<g>
			<path style="fill:#E54B44;" d="M43.004,66.357c0-3.511-2.846-6.357-6.357-6.357c-1.889,0-3.679,0.84-4.887,2.292
				c-1.208,1.452-1.707,3.366-1.363,5.223l3.613,15.279l8.994-8.995V66.357z"/>
		</g>
	</g>
</g>
<g id="Yellow" style="display:none;">
	<g style="display:inline;">
		<g>
			<path style="fill:#3D320C;" d="M73.779,60.02c-2.818-0.435-6.75,2.147-6.75,6.34V66c0-3.31-2.68-6-6-6c-3.31,0-6,2.69-6,6
				c0-3.31-2.68-6-6-6c-3.31,0-6,2.69-6,6v0.36c0-4.188-3.928-6.773-6.739-6.34c0.819-2.2,2.021-4.21,3.521-5.97
				c0.93,0.6,2.039,0.95,3.219,0.95c16.83,0,6.66,0,24,0c1.221,0,2.36-0.28,3.4-0.76C71.85,55.95,72.98,57.9,73.779,60.02z"/>
		</g>
		<g>
			<path style="fill:#FFFFFF;" d="M67.188,39.009c-0.02-3.042-1.734-5.678-4.25-7.014c-1.314,3.892-6.786,3.067-17.746,3.067
				c-4.543,0-7.402,4.849-5.3,8.809c-1.567,0.964-2.596,2.548-2.831,4.352C36.588,51.914,39.465,55,43.004,55
				c8.988,0,14.682,0,23.941,0h0.059c4.42,0,8-3.58,8-8C75.004,42.801,71.664,39.112,67.188,39.009z"/>
		</g>
		<g>
			<circle style="fill:#E07000;" cx="55.004" cy="30" r="5"/>
		</g>
		<g>
			<path style="fill:#FFF5D9;" d="M62.959,31.997c-1.514,4.125-2.203,7.433-23.604,7.676c-0.348,1.489-0.121,2.946,0.536,4.183
				C50.191,43.856,64.101,42.385,62.959,31.997z"/>
		</g>
		<g>
			<g>
				<path style="fill:#FFF5D9;" d="M67.163,38.476c-0.197-2.694-1.717-5.009-3.926-6.304c2.303,4.617-1.503,16.077-26.171,16.138
					c-0.285,2.571,1.023,4.808,3.035,5.931C58.719,53.434,67.463,45.371,67.163,38.476z"/>
			</g>
		</g>
		<g>
			<path style="fill:#FFF5D9;" d="M55.754,55c2.5,0,17.062-6.062,11.5-16c4.625,2,7.312,12.5-2.188,16
				C62.066,55,55.754,55,55.754,55z"/>
		</g>
		<g>
			<path style="fill:#FA9200;" d="M55.004,25c-2.761,0-5,2.239-5,5c0,1.24,0.469,2.359,1.215,3.233l7.019-7.018
				C57.363,25.468,56.244,25,55.004,25z"/>
		</g>
		<g>
			<path style="fill:#E07000;" d="M43.004,87h-4.835c-1.854,0-3.466-1.274-3.892-3.079l-3.88-16.406
				c-0.344-1.857,0.155-3.771,1.363-5.223C32.968,60.84,34.759,60,36.647,60c3.511,0,6.356,2.847,6.356,6.357V87z"/>
		</g>
		<g>
			<path style="fill:#FFF5D9;" d="M43.004,87h12V66c0-3.313-2.685-6-6-6c-3.312,0-6,2.687-6,6V87z"/>
		</g>
		<g>
			<path style="fill:#66510D;" d="M61.814,55l-7.76,7.76C52.994,61.1,51.125,60,49.004,60c-3.31,0-6,2.69-6,6v0.36
				c0-3.51-2.84-6.36-6.35-6.36c-0.13,0-0.26,0-0.38,0.02c0.819-2.2,2.021-4.21,3.51-5.97c0.931,0.6,2.04,0.95,3.22,0.95H61.814z"/>
		</g>
		<g>
			<path style="fill:#FFF5D9;" d="M67.004,87h4.836c1.855,0,3.467-1.274,3.893-3.079l3.881-16.406
				c0.344-1.857-0.156-3.771-1.363-5.223C77.041,60.84,75.25,60,73.361,60c-3.51,0-6.357,2.847-6.357,6.357V87z"/>
		</g>
		<g>
			<path style="fill:#E07000;" d="M67.004,87h-12V66c0-3.313,2.688-6,6-6c3.314,0,6,2.687,6,6V87z"/>
		</g>
		<g>
			<path style="fill:#FFFFFF;" d="M54.047,62.756C52.979,61.1,51.122,60,49.004,60c-3.312,0-6,2.687-6,6v7.799L54.047,62.756z"/>
		</g>
		<g>
			<path style="fill:#FA9200;" d="M43.004,66.357c0-3.511-2.846-6.357-6.357-6.357c-1.889,0-3.679,0.84-4.887,2.292
				c-1.208,1.452-1.707,3.366-1.363,5.223l3.613,15.279l8.994-8.995V66.357z"/>
		</g>
	</g>
</g>
<g id="R-Yellow" style="display:none;">
	<circle style="display:inline;fill:#FFD75E;" cx="55" cy="55" r="55"/>
	<g style="display:inline;">
		<g>
			<path style="fill:#3D320C;" d="M73.779,60.02c-2.818-0.435-6.75,2.147-6.75,6.34V66c0-3.31-2.68-6-6-6c-3.31,0-6,2.69-6,6
				c0-3.31-2.68-6-6-6c-3.31,0-6,2.69-6,6v0.36c0-4.188-3.928-6.773-6.739-6.34c0.819-2.2,2.021-4.21,3.521-5.97
				c0.93,0.6,2.039,0.95,3.219,0.95c16.83,0,6.66,0,24,0c1.221,0,2.36-0.28,3.4-0.76C71.85,55.95,72.98,57.9,73.779,60.02z"/>
		</g>
		<g>
			<path style="fill:#FFFFFF;" d="M67.188,39.009c-0.02-3.042-1.734-5.678-4.25-7.014c-1.314,3.892-6.786,3.067-17.746,3.067
				c-4.543,0-7.402,4.849-5.3,8.809c-1.567,0.964-2.596,2.548-2.831,4.352C36.588,51.914,39.465,55,43.004,55
				c8.988,0,14.682,0,23.941,0h0.059c4.42,0,8-3.58,8-8C75.004,42.801,71.664,39.112,67.188,39.009z"/>
		</g>
		<g>
			<circle style="fill:#E07000;" cx="55.004" cy="30" r="5"/>
		</g>
		<g>
			<path style="fill:#FFF5D9;" d="M62.959,31.997c-1.514,4.125-2.203,7.433-23.604,7.676c-0.348,1.489-0.121,2.946,0.536,4.183
				C50.191,43.856,64.101,42.385,62.959,31.997z"/>
		</g>
		<g>
			<g>
				<path style="fill:#FFF5D9;" d="M67.163,38.476c-0.197-2.694-1.717-5.009-3.926-6.304c2.303,4.617-1.503,16.077-26.171,16.138
					c-0.285,2.571,1.023,4.808,3.035,5.931C58.719,53.434,67.463,45.371,67.163,38.476z"/>
			</g>
		</g>
		<g>
			<path style="fill:#FFF5D9;" d="M55.754,55c2.5,0,17.062-6.062,11.5-16c4.625,2,7.312,12.5-2.188,16
				C62.066,55,55.754,55,55.754,55z"/>
		</g>
		<g>
			<path style="fill:#FA9200;" d="M55.004,25c-2.761,0-5,2.239-5,5c0,1.24,0.469,2.359,1.215,3.233l7.019-7.018
				C57.363,25.468,56.244,25,55.004,25z"/>
		</g>
		<g>
			<path style="fill:#E07000;" d="M43.004,87h-4.835c-1.854,0-3.466-1.274-3.892-3.079l-3.88-16.406
				c-0.344-1.857,0.155-3.771,1.363-5.223C32.968,60.84,34.759,60,36.647,60c3.511,0,6.356,2.847,6.356,6.357V87z"/>
		</g>
		<g>
			<path style="fill:#FFF5D9;" d="M43.004,87h12V66c0-3.313-2.686-6-6-6c-3.312,0-6,2.687-6,6V87z"/>
		</g>
		<g>
			<path style="fill:#66510D;" d="M61.814,55l-7.76,7.76C52.994,61.1,51.125,60,49.004,60c-3.31,0-6,2.69-6,6v0.36
				c0-3.51-2.84-6.36-6.35-6.36c-0.13,0-0.26,0-0.38,0.02c0.819-2.2,2.021-4.21,3.51-5.97c0.931,0.6,2.04,0.95,3.22,0.95H61.814z"/>
		</g>
		<g>
			<path style="fill:#FFF5D9;" d="M67.004,87h4.836c1.855,0,3.467-1.274,3.893-3.079l3.881-16.406
				c0.344-1.857-0.156-3.771-1.363-5.223C77.041,60.84,75.25,60,73.361,60c-3.51,0-6.357,2.847-6.357,6.357V87z"/>
		</g>
		<g>
			<path style="fill:#E07000;" d="M67.004,87h-12V66c0-3.313,2.688-6,6-6c3.314,0,6,2.687,6,6V87z"/>
		</g>
		<g>
			<path style="fill:#FFFFFF;" d="M54.047,62.756C52.979,61.1,51.122,60,49.004,60c-3.312,0-6,2.687-6,6v7.799L54.047,62.756z"/>
		</g>
		<g>
			<path style="fill:#FA9200;" d="M43.004,66.357c0-3.511-2.846-6.357-6.357-6.357c-1.889,0-3.679,0.84-4.887,2.292
				c-1.208,1.452-1.707,3.366-1.363,5.223l3.613,15.279l8.994-8.995V66.357z"/>
		</g>
	</g>
</g>
</svg>
