<?xml version="1.0" encoding="iso-8859-1"?>
<!-- Generator: Adobe Illustrator 17.1.0, SVG Export Plug-In . SVG Version: 6.00 Build 0)  -->
<!DOCTYPE svg PUBLIC "-//W3C//DTD SVG 1.0//EN" "http://www.w3.org/TR/2001/REC-SVG-20010904/DTD/svg10.dtd">
<svg version="1.0" xmlns="http://www.w3.org/2000/svg" xmlns:xlink="http://www.w3.org/1999/xlink" x="0px" y="0px" width="110px"
	 height="110px" viewBox="0 0 110 110" style="enable-background:new 0 0 110 110;" xml:space="preserve">
<g id="Artboard">
</g>
<g id="Multicolor">
	<circle style="fill:#E04F5F;" cx="55" cy="55" r="55"/>
	<g>
		<path style="fill:#FBEC9A;" d="M38,24.875c7.237,0,13.125,5.888,13.125,13.125S45.237,51.125,38,51.125S24.875,45.237,24.875,38
			S30.763,24.875,38,24.875 M38,23c-8.284,0-15,6.716-15,15c0,8.284,6.716,15,15,15s15-6.716,15-15C53,29.716,46.284,23,38,23L38,23
			z"/>
		<path style="fill:#FACB1B;" d="M38,51.125c-7.237,0-13.125-5.888-13.125-13.125S30.763,24.875,38,24.875S51.125,30.763,51.125,38
			S45.237,51.125,38,51.125z"/>
		<path style="fill:#FBE158;" d="M38,24.875c-7.237,0-13.125,5.888-13.125,13.125c0,3.725,1.562,7.089,4.062,9.48L47.48,28.937
			C45.089,26.437,41.725,24.875,38,24.875z"/>
		<path style="fill:#FCF6C2;" d="M24.875,38c0-7.237,5.888-13.125,13.125-13.125c3.715,0,7.072,1.554,9.462,4.043l1.33-1.33
			C46.064,24.761,42.239,23,38,23c-8.284,0-15,6.716-15,15c0,4.239,1.761,8.064,4.588,10.792l1.33-1.33
			C26.429,45.072,24.875,41.715,24.875,38z"/>
		<g>
			<path style="fill:#8E6134;" d="M44.739,43.513c-1.215,1.575-2.723,2.633-5.04,2.633c-3.33,0-5.671-2.138-6.526-5.333h-1.215
				c-0.54,0-0.968-0.428-0.968-0.968c0-0.518,0.428-0.967,0.968-0.967h0.878c-0.022-0.27-0.022-0.563-0.022-0.855
				c0-0.338,0-0.698,0.045-1.035h-0.9c-0.54,0-0.968-0.428-0.968-0.945c0-0.54,0.428-0.967,0.968-0.967h1.26
				c0.878-3.038,3.195-5.22,6.39-5.22c2.385,0,3.825,0.945,4.995,2.295c0.18,0.18,0.36,0.518,0.36,0.923
				c0,0.72-0.608,1.305-1.328,1.305c-0.473,0-0.788-0.225-0.968-0.45c-0.855-1.035-1.733-1.598-3.128-1.598
				c-1.62,0-2.835,1.058-3.465,2.745h4.005c0.518,0,0.945,0.428,0.945,0.967c0,0.518-0.428,0.945-0.945,0.945h-4.433
				c-0.045,0.315-0.045,0.653-0.045,0.99c0,0.315,0,0.608,0.023,0.9h4.455c0.518,0,0.945,0.45,0.945,0.967
				c0,0.54-0.428,0.968-0.945,0.968h-4.05c0.63,1.8,1.913,2.858,3.69,2.858c1.35,0,2.228-0.653,3.083-1.71
				c0.225-0.27,0.54-0.45,0.968-0.45c0.675,0,1.238,0.54,1.238,1.215C45.009,43.063,44.874,43.355,44.739,43.513z"/>
		</g>
		<path style="fill:#FBEC9A;" d="M38,58.875c7.237,0,13.125,5.888,13.125,13.125S45.237,85.125,38,85.125S24.875,79.237,24.875,72
			S30.763,58.875,38,58.875 M38,57c-8.284,0-15,6.716-15,15c0,8.284,6.716,15,15,15s15-6.716,15-15C53,63.716,46.284,57,38,57L38,57
			z"/>
		<path style="fill:#FACB1B;" d="M38,85.125c-7.237,0-13.125-5.888-13.125-13.125S30.763,58.875,38,58.875S51.125,64.763,51.125,72
			S45.237,85.125,38,85.125z"/>
		<path style="fill:#FBE158;" d="M38,58.875c-7.237,0-13.125,5.888-13.125,13.125c0,3.725,1.562,7.089,4.062,9.48L47.48,62.937
			C45.089,60.437,41.725,58.875,38,58.875z"/>
		<path style="fill:#FCF6C2;" d="M24.875,72c0-7.237,5.888-13.125,13.125-13.125c3.715,0,7.072,1.554,9.462,4.043l1.33-1.33
			C46.064,58.761,42.239,57,38,57c-8.284,0-15,6.716-15,15c0,4.239,1.761,8.064,4.588,10.792l1.33-1.33
			C26.429,79.072,24.875,75.715,24.875,72z"/>
		<g>
			<path style="fill:#8E6134;" d="M39.328,75.578h3.465c0.54,0,0.99,0.45,0.99,1.013c0,0.54-0.45,0.99-0.99,0.99h-3.465v1.08
				c0,0.742-0.585,1.328-1.328,1.328c-0.742,0-1.328-0.585-1.328-1.328v-1.08h-3.465c-0.54,0-0.99-0.45-0.99-0.99
				c0-0.562,0.45-1.013,0.99-1.013h3.465v-1.642h-3.465c-0.54,0-0.99-0.45-0.99-0.99c0-0.563,0.45-1.013,0.99-1.013h2.678
				l-4.14-5.671c-0.225-0.315-0.337-0.608-0.337-0.945c0-0.698,0.585-1.305,1.373-1.305c0.585,0,0.99,0.293,1.305,0.765l3.938,5.873
				l3.983-5.85c0.27-0.405,0.675-0.788,1.26-0.788c0.72,0,1.328,0.495,1.328,1.283c0,0.382-0.135,0.697-0.338,0.967l-4.185,5.671
				h2.723c0.54,0,0.99,0.45,0.99,1.013c0,0.54-0.45,0.99-0.99,0.99h-3.465V75.578z"/>
		</g>
		<path style="fill:#FBEC9A;" d="M72,58.875c7.237,0,13.125,5.888,13.125,13.125S79.237,85.125,72,85.125S58.875,79.237,58.875,72
			S64.763,58.875,72,58.875 M72,57c-8.284,0-15,6.716-15,15c0,8.284,6.716,15,15,15s15-6.716,15-15C87,63.716,80.284,57,72,57L72,57
			z"/>
		<path style="fill:#FACB1B;" d="M72,85.125c-7.237,0-13.125-5.888-13.125-13.125S64.763,58.875,72,58.875S85.125,64.763,85.125,72
			S79.237,85.125,72,85.125z"/>
		<path style="fill:#FBE158;" d="M72,58.875c-7.237,0-13.125,5.888-13.125,13.125c0,3.725,1.562,7.089,4.062,9.48L81.48,62.937
			C79.089,60.437,75.725,58.875,72,58.875z"/>
		<path style="fill:#FCF6C2;" d="M58.875,72c0-7.237,5.888-13.125,13.125-13.125c3.715,0,7.072,1.554,9.462,4.043l1.33-1.33
			C80.064,58.761,76.239,57,72,57c-8.284,0-15,6.716-15,15c0,4.239,1.761,8.064,4.588,10.792l1.33-1.33
			C60.429,79.072,58.875,75.715,58.875,72z"/>
		<path style="fill:#8E6134;" d="M66.678,78.031l1.148-0.338v-3.96h-0.72c-0.653,0-1.17-0.518-1.17-1.17
			c0-0.63,0.518-1.17,1.17-1.17h0.72v-2.07c0-1.643,0.495-3.015,1.395-3.915c0.878-0.9,2.16-1.395,3.78-1.395
			c2.07,0,3.398,0.765,4.388,1.823c0.247,0.248,0.428,0.563,0.428,0.99c0,0.765-0.607,1.35-1.373,1.35
			c-0.495,0-0.81-0.225-0.99-0.428c-0.698-0.742-1.373-1.17-2.408-1.17c-0.72,0-1.238,0.225-1.665,0.63
			c-0.473,0.495-0.742,1.238-0.742,2.183v2.003h4.545c0.63,0,1.17,0.54,1.17,1.17c0,0.653-0.54,1.17-1.17,1.17h-4.545v3.848h6.21
			c0.675,0,1.215,0.54,1.215,1.215c0,0.675-0.54,1.193-1.215,1.193h-9.856c-0.63,0-1.058-0.428-1.058-0.967
			C65.936,78.571,66.183,78.188,66.678,78.031z"/>
		<g>
			<path style="fill:#FBEC9A;" d="M72,24.875c7.237,0,13.125,5.888,13.125,13.125S79.237,51.125,72,51.125S58.875,45.237,58.875,38
				S64.763,24.875,72,24.875 M72,23c-8.284,0-15,6.716-15,15c0,8.284,6.716,15,15,15s15-6.716,15-15C87,29.716,80.284,23,72,23
				L72,23z"/>
			<g>
				<path style="fill:#FACB1B;" d="M72,51.125c-7.237,0-13.125-5.888-13.125-13.125S64.763,24.875,72,24.875
					S85.125,30.763,85.125,38S79.237,51.125,72,51.125z"/>
				<path style="fill:#FBE158;" d="M72,24.875c-7.237,0-13.125,5.888-13.125,13.125c0,3.725,1.562,7.089,4.062,9.48L81.48,28.937
					C79.089,26.437,75.725,24.875,72,24.875z"/>
			</g>
			<path style="fill:#FCF6C2;" d="M58.875,38c0-7.237,5.888-13.125,13.125-13.125c3.715,0,7.072,1.554,9.462,4.043l1.33-1.33
				C80.064,24.761,76.239,23,72,23c-8.284,0-15,6.716-15,15c0,4.239,1.761,8.064,4.588,10.792l1.33-1.33
				C60.429,45.072,58.875,41.715,58.875,38z"/>
		</g>
		<g>
			<path style="fill:#8E6134;" d="M72.333,28.641c0.54,0,0.967,0.428,0.967,0.967v0.495c1.328,0.157,2.453,0.585,3.488,1.238
				c0.36,0.203,0.675,0.54,0.675,1.08c0,0.698-0.563,1.238-1.26,1.238c-0.225,0-0.45-0.068-0.675-0.203
				c-0.788-0.472-1.553-0.81-2.318-0.99v4.32c3.42,0.855,4.883,2.228,4.883,4.635c0,2.475-1.935,4.118-4.793,4.388v0.469
				c0,0.54-0.428,0.967-0.967,0.967s-0.99-0.428-0.99-0.967v-0.514c-1.688-0.18-3.24-0.788-4.613-1.755
				c-0.382-0.247-0.608-0.607-0.608-1.08c0-0.698,0.54-1.238,1.238-1.238c0.27,0,0.54,0.09,0.742,0.247
				c1.058,0.765,2.093,1.283,3.33,1.508v-4.433c-3.285-0.855-4.815-2.093-4.815-4.636c0-2.408,1.913-4.073,4.725-4.298v-0.473
				C71.343,29.069,71.793,28.641,72.333,28.641z M71.433,36.314v-3.983c-1.44,0.135-2.16,0.9-2.16,1.89
				C69.273,35.167,69.7,35.752,71.433,36.314z M73.211,39.442v4.095c1.44-0.157,2.228-0.878,2.228-1.958
				C75.438,40.59,74.943,39.982,73.211,39.442z"/>
		</g>
	</g>
</g>
</svg>
