<?xml version="1.0" encoding="iso-8859-1"?>
<!-- Generator: Adobe Illustrator 17.1.0, SVG Export Plug-In . SVG Version: 6.00 Build 0)  -->
<!DOCTYPE svg PUBLIC "-//W3C//DTD SVG 1.0//EN" "http://www.w3.org/TR/2001/REC-SVG-20010904/DTD/svg10.dtd">
<svg version="1.0" xmlns="http://www.w3.org/2000/svg" xmlns:xlink="http://www.w3.org/1999/xlink" x="0px" y="0px" width="110px"
	 height="110px" viewBox="0 0 110 110" style="enable-background:new 0 0 110 110;" xml:space="preserve">
<g id="Artboard">
</g>
<g id="Multicolor">
	<circle style="fill:#FABC3D;" cx="55" cy="55" r="55"/>
	<g>
		<path style="fill:#3E3E3F;" d="M78.154,30.846c3.771,1.886,6.6,4.714,8.485,8.485L56.941,69.029l-8.485-8.485L78.154,30.846z"/>
		
			<rect x="45.991" y="64.494" transform="matrix(-0.7071 -0.7071 0.7071 -0.7071 42.4437 148.5685)" style="fill:#818284;" width="12" height="2"/>
		<polygon style="fill:#FFFFFF;" points="23,86 47.042,61.958 55.527,70.444 44.213,81.757 		"/>
		<polygon style="fill:#E2E4E5;" points="25.828,83.172 47.042,61.958 55.527,70.444 47.042,78.929 		"/>
		<path style="fill:#F0F1F1;" d="M42.799,66.201c-2.343,2.343-2.343,6.142,0,8.485c2.343,2.343,6.142,2.343,8.485,0l4.243-4.243
			l-8.485-8.485L42.799,66.201z"/>
		<path style="fill:#5B5C5F;" d="M78.154,30.846L48.456,60.544l4.409,4.409l30.398-30.399
			C81.813,33.066,80.114,31.825,78.154,30.846z"/>
		<path style="fill:#FFFFFF;" d="M47.042,61.958l-4.243,4.242c-2.343,2.343-2.343,6.142,0,8.485
			c0.136,0.136,0.292,0.237,0.438,0.358l8.445-8.445L47.042,61.958z"/>
		<circle style="fill:#B6BCBD;" cx="45.627" cy="71.858" r="2"/>
	</g>
</g>
</svg>
