<?xml version="1.0" encoding="iso-8859-1"?>
<!-- Generator: Adobe Illustrator 17.1.0, SVG Export Plug-In . SVG Version: 6.00 Build 0)  -->
<!DOCTYPE svg PUBLIC "-//W3C//DTD SVG 1.0//EN" "http://www.w3.org/TR/2001/REC-SVG-20010904/DTD/svg10.dtd">
<svg version="1.0" xmlns="http://www.w3.org/2000/svg" xmlns:xlink="http://www.w3.org/1999/xlink" x="0px" y="0px" width="110px"
	 height="110px" viewBox="0 0 110 110" style="enable-background:new 0 0 110 110;" xml:space="preserve">
<g id="Artboard">
</g>
<g id="Multicolor">
	<circle style="fill:#32BEA6;" cx="55" cy="55" r="55"/>
	<g>
		<path style="fill:#F37A10;" d="M77.083,43.159L62.941,29.017L33.95,58.009c-1.562,1.562-1.562,4.095,0,5.657l8.485,8.485
			c1.562,1.562,4.095,1.562,5.657,0L77.083,43.159z"/>
		<path style="fill:#F99134;" d="M62.941,29.017L33.95,58.009c-1.562,1.562-1.562,4.095,0,5.657l4.168,4.168l31.82-31.82
			L62.941,29.017z"/>
		<path style="fill:#FACB1B;" d="M74.255,40.331l-8.485-8.485L41.021,56.594c-2.343,2.343-2.343,6.142,0,8.485
			c2.343,2.343,6.142,2.343,8.485,0L74.255,40.331z"/>
		<path style="fill:#FBE158;" d="M65.77,31.846L41.021,56.594c-2.318,2.318-2.334,6.055-0.067,8.403l28.984-28.984L65.77,31.846z"/>
		<path style="fill:#E2E4E5;" d="M42.435,72.151l-8.485-8.485c-0.246-0.246-0.439-0.521-0.607-0.807L29,67.201V87l14.242-14.242
			C42.956,72.589,42.681,72.396,42.435,72.151z"/>
		<path style="fill:#F0F1F1;" d="M42.435,72.151l-1.414-1.414L29,82.757V87l14.242-14.242
			C42.956,72.589,42.681,72.396,42.435,72.151z"/>
		<path style="fill:#3E3E3F;" d="M81.326,26.189c-4.296-4.296-11.261-4.296-15.556,0l-2.828,2.828L77.064,43.14
			c1.51,0.221,3.1-0.233,4.262-1.395C85.622,37.449,85.622,30.485,81.326,26.189z"/>
		<circle style="fill:#3E3E3F;" cx="55.163" cy="50.938" r="2"/>
		<path style="fill:#3E3E3F;" d="M67.891,41.038c0.781-0.781,0.781-2.047,0-2.828c-0.781-0.781-2.047-0.781-2.828,0l-5.657,5.657
			c-0.781,0.781-0.781,2.047,0,2.828c0.781,0.781,2.047,0.781,2.828,0L67.891,41.038z"/>
		<path style="fill:#5B5C5F;" d="M53.749,49.523c-0.756,0.755-0.773,1.961-0.067,2.747l2.813-2.813
			C55.71,48.75,54.504,48.768,53.749,49.523z"/>
		<path style="fill:#5B5C5F;" d="M65.062,38.21l-5.657,5.657c-0.755,0.756-0.773,1.961-0.067,2.747l8.47-8.47
			C67.024,37.437,65.818,37.454,65.062,38.21z"/>
		<path style="fill:#5B5C5F;" d="M65.77,26.189l-2.828,2.828l6.997,6.997l10.567-10.567C76.184,21.91,69.802,22.157,65.77,26.189z"
			/>
	</g>
</g>
</svg>
