<?xml version="1.0" encoding="iso-8859-1"?>
<!-- Generator: Adobe Illustrator 17.1.0, SVG Export Plug-In . SVG Version: 6.00 Build 0)  -->
<!DOCTYPE svg PUBLIC "-//W3C//DTD SVG 1.0//EN" "http://www.w3.org/TR/2001/REC-SVG-20010904/DTD/svg10.dtd">
<svg version="1.0" xmlns="http://www.w3.org/2000/svg" xmlns:xlink="http://www.w3.org/1999/xlink" x="0px" y="0px" width="110px"
	 height="110px" viewBox="0 0 110 110" style="enable-background:new 0 0 110 110;" xml:space="preserve">
<g id="Artboard">
</g>
<g id="Multicolor">
	<g>
		<circle style="fill:#32BEA6;" cx="55" cy="55" r="55"/>
	</g>
	<g>
		<path style="fill:#F7B4B4;" d="M57.655,67.997H55h-2.655c-0.856,0-1.671-0.365-2.24-1.004L45,62.997v4.5C45,67.497,45,82,55,82
			s10-14.503,10-14.503v-4.5l-5.105,3.996C59.326,67.632,58.511,67.997,57.655,67.997z"/>
		<path style="fill:#FBC8C8;" d="M50.105,66.993L45,62.997v4.5C45,67.497,45,82,55,82V67.997h-2.655
			C51.489,67.997,50.674,67.632,50.105,66.993z"/>
		<g>
			<path style="fill:#F4D0A1;" d="M23,87l4-11c0.615-1.333,1.698-2.394,3.043-2.983L43,68l4,19H23z"/>
		</g>
		<g>
			<path style="fill:#F4D0A1;" d="M87,87l-4-11c-0.615-1.333-1.698-2.394-3.043-2.983L67,68l-4,19H87z"/>
		</g>
		<g>
			<polygon style="fill:#D4A263;" points="45,64 45,67 44,71 47,87 45,87 36,75 39,73 36,69 			"/>
		</g>
		<g>
			<polygon style="fill:#D4A263;" points="65,64 65,67 66,71 63,87 65,87 74,75 71,73 74,69 			"/>
		</g>
		<path style="fill:#9CE5F4;" d="M63,87l2.315-12.348c-2.181,0.607-4.241,1.624-6.052,3.032L56,80.222v6.775"/>
		<path style="fill:#9CE5F4;" d="M47,87l-2.315-12.348c2.181,0.607,4.241,1.624,6.052,3.032L54,80.222v6.775"/>
		<path style="fill:#FFFFFF;" d="M70,74l-5-8.497L55,80L45,65.503L40,74c3.889,0,7.667,1.296,10.736,3.684L54,80.222v6.775h2v-6.775
			l3.264-2.539C62.333,75.296,66.111,74,70,74z"/>
		<g>
			<polygon style="fill:#FFFFFF;" points="71,84 79,84 79,81 			"/>
		</g>
		<path style="fill:#FBC8C8;" d="M70,45.003c-1,0-1,1.111-1,1.111V46l-2.2-1.65c-1.133-0.85-1.8-2.184-1.8-3.6V40h-3
			c-4.971,0-9-1.029-9-6h-7c0,6,0,9-5,12v7l4,10l5.105,3.996C50.674,67.635,51.489,68,52.345,68H55h2.655
			c0.856,0,1.671-0.365,2.24-1.004L65,63l3.207-8.017C71.042,54.779,72,50.479,72,47.225C72,46.114,71,45.003,70,45.003z"/>
		<path style="fill:#FBD7D7;" d="M53,34h-7c0,6,0,9-5,12v0.111c0,0,0-1.111-1-1.111s-2,1.111-2,2.222
			c0,3.253,0.958,7.554,3.793,7.758L45,62.997l5.105,3.996c0.569,0.639,1.384,1.004,2.24,1.004H55V38.46
			C53.751,37.549,53,36.142,53,34z"/>
		<g>
			<path style="fill:#F79392;" d="M50,56.997h10c0,0,0,3-5,3S50,56.997,50,56.997z"/>
		</g>
		<g>
			<path style="fill:#84462D;" d="M58,25c-8.539,0-17,6.164-17,10c0,4,0,11,0,11c5-3,5-6,5-12h7c0,4.971,4.029,6,9,6h3v0.75
				c0,1.416,0.667,2.75,1.8,3.6L69,46V35.691c0.97-0.97,1.289-2.32,1.289-3.691C70.289,25,62,25,58,25z"/>
		</g>
		<path style="fill:#9C6144;" d="M55,25.249C47.586,26.426,41,31.615,41,35c0,4,0,11,0,11c5-3,5-6,5-12h7
			c0,2.142,0.751,3.549,2,4.46V25.249z"/>
		<g>
			<path style="fill:#3E3E3F;" d="M55.515,42.995h-1.029c-3.715-1.201-10.461-1.572-15.148-0.829
				c0.057,1.315,0.457,2.229,0.457,2.229l0.686,0.572c0,0,0.972,4.402,1.429,4.973c0.458,0.572,1.887,2.115,4.745,2.058
				c2.858-0.057,5.374-0.686,6.688-3.259c1.315-2.572,1-3.43,1-3.43L55,45.29l0.657,0.021c0,0-0.314,0.858,1,3.43
				c1.315,2.573,3.83,3.201,6.688,3.259c2.858,0.057,4.287-1.486,4.745-2.058c0.457-0.572,1.429-4.973,1.429-4.973l0.686-0.572
				c0,0,0.4-0.915,0.457-2.229C65.976,41.423,59.23,41.794,55.515,42.995z"/>
			<g>
				<path style="fill:#5B5C5F;" d="M46.792,43.325c-2.525,0.053-4.859,0.114-4.573,1.829c0.284,1.7,0.567,3.173,0.906,3.643
					l5.459-5.459C48.03,43.316,47.432,43.311,46.792,43.325z"/>
			</g>
			<g>
				<path style="fill:#5B5C5F;" d="M63.263,43.325c-2.744-0.057-4.802,0.171-5.316,1.086c-0.514,0.915,0.057,2.687,0.514,3.773
					c0.059,0.141,0.123,0.287,0.196,0.433l4.834-5.287C63.415,43.329,63.34,43.327,63.263,43.325z"/>
			</g>
		</g>
	</g>
</g>
</svg>
