<?xml version="1.0" encoding="iso-8859-1"?>
<!-- Generator: Adobe Illustrator 17.1.0, SVG Export Plug-In . SVG Version: 6.00 Build 0)  -->
<!DOCTYPE svg PUBLIC "-//W3C//DTD SVG 1.0//EN" "http://www.w3.org/TR/2001/REC-SVG-20010904/DTD/svg10.dtd">
<svg version="1.0" xmlns="http://www.w3.org/2000/svg" xmlns:xlink="http://www.w3.org/1999/xlink" x="0px" y="0px" width="110px"
	 height="110px" viewBox="0 0 110 110" style="enable-background:new 0 0 110 110;" xml:space="preserve">
<g id="Artboard">
</g>
<g id="Multicolor">
	<circle style="fill:#FABC3D;" cx="55" cy="55" r="55"/>
	<g>
		<path style="fill:#3E3E3F;" d="M68,34c0-4.971-5-11-14-11s-14,6.029-14,11l-4.75,13.189c-0.275,0.619-0.218,1.335,0.151,1.902
			c0.369,0.568,1,0.909,1.678,0.909c7.654,0,25.817,0,33.844,0c0.677,0,1.308-0.342,1.677-0.91s0.427-1.283,0.152-1.902L68,34z"/>
		<path style="fill:#5B5C5F;" d="M54,23c-9,0-14,6.029-14,11l-4.75,13.188c-0.275,0.619-0.218,1.335,0.151,1.903
			s1,0.909,1.678,0.909c3.854,0,10.374,0,16.922,0V23z"/>
		<path style="fill:#5B5C5F;" d="M66,39c0-3.314-2.91-6-6.5-6c-2.32,0-4.35,1.125-5.5,2.813C52.85,34.125,50.82,33,48.5,33
			c-3.59,0-6.5,2.686-6.5,6c0,0.935,4,16,4,16h16C62,55,66,39.935,66,39z"/>
		<path style="fill:#818284;" d="M54,35.813C52.85,34.125,50.82,33,48.5,33c-3.59,0-6.5,2.686-6.5,6c0,0.935,4,16,4,16h8V35.813z"/>
		<path style="fill:#3E3E3F;" d="M75.952,61.833c-1.218-4.262-4.508-7.619-8.744-8.922L61,51h-7h-7l-6.208,1.91
			c-4.236,1.303-7.526,4.661-8.744,8.922L26,83c6.667,2.667,17.333,4,28,4s21.333-1.333,28-4L75.952,61.833z"/>
		<path style="fill:#5B5C5F;" d="M55,51h-1h-7l-6.208,1.91c-4.236,1.303-7.526,4.661-8.744,8.922L26,83c6.667,2.667,17.333,4,28,4
			c0.333,0,0.667-0.005,1-0.008V51z"/>
		<path style="fill:#5B5C5F;" d="M75.952,61.833c-1.218-4.262-4.508-7.619-8.744-8.922L61,51h-7h-7l-6.208,1.91
			c-4.236,1.303-7.526,4.661-8.744,8.922l-0.049,0.173C34.875,61.132,38.312,60,42,60c6,0,8,3,12,3s6-3,12-3
			c3.688,0,7.125,1.132,10.002,2.006L75.952,61.833z"/>
		<path style="fill:#818284;" d="M55,51h-1h-7l-6.208,1.91c-4.236,1.303-7.526,4.661-8.744,8.922l-0.05,0.173
			C34.875,61.132,38.312,60,42,60c6,0,8,3,12,3c0.349,0,0.678-0.03,1-0.071V51z"/>
		<path style="fill:#FA5655;" d="M79,26c0-1.657,1.343-3,3-3s3,1.343,3,3v41h-6V26z"/>
		<path style="fill:#3E3E3F;" d="M85,62h-6v23c0,1.105,0.895,2,2,2h2c1.105,0,2-0.895,2-2V62z"/>
		<path style="fill:#818284;" d="M46,67c0-1.105,0.895-2,2-2h12c1.105,0,2,0.895,2,2v12c0,1.105-0.895,2-2,2H48
			c-1.105,0-2-0.895-2-2V67z"/>
		<rect x="49" y="74" style="fill:#3E3E3F;" width="2" height="5"/>
		<rect x="49" y="67" style="fill:#21B2D1;" width="4" height="2"/>
		<rect x="49" y="70" style="fill:#21B2D1;" width="4" height="2"/>
		<rect x="53" y="74" style="fill:#3E3E3F;" width="2" height="5"/>
		<rect x="57" y="74" style="fill:#3E3E3F;" width="2" height="5"/>
		<rect x="55" y="67" style="fill:#FA5655;" width="4" height="5"/>
		<ellipse style="fill:#3E3E3F;" cx="48.5" cy="39" rx="4.5" ry="3.375"/>
		<ellipse style="fill:#3E3E3F;" cx="59.5" cy="39.375" rx="4.5" ry="3.375"/>
		<path style="fill:#3E3E3F;" d="M46,55c0,0,6-12,8-12s8,12,8,12H46z"/>
		<circle style="fill:#3E3E3F;" cx="47.5" cy="54.5" r="2.5"/>
		<circle style="fill:#3E3E3F;" cx="60.5" cy="54.5" r="2.5"/>
		<ellipse style="fill:#CFD3D4;" cx="47.5" cy="38" rx="1.5" ry="1"/>
		<ellipse style="fill:#CFD3D4;" cx="58.5" cy="38" rx="1.5" ry="1"/>
		<path style="fill:#5B5C5F;" d="M53,52.5c0,0.276-0.224,0.5-0.5,0.5h-1c-0.276,0-0.5-0.224-0.5-0.5v-3.349
			c0-0.099,0.029-0.195,0.084-0.277l1-1.5c0.122-0.183,0.35-0.265,0.561-0.201C52.856,47.237,53,47.431,53,47.651V52.5z"/>
		<path style="fill:#5B5C5F;" d="M57,52.5c0,0.276-0.224,0.5-0.5,0.5h-1c-0.276,0-0.5-0.224-0.5-0.5v-4.849
			c0-0.22,0.144-0.415,0.355-0.479c0.211-0.064,0.439,0.018,0.561,0.201l1,1.5C56.971,48.956,57,49.053,57,49.151V52.5z"/>
		<path style="fill:#818284;" d="M77.079,77.586C77.363,78.426,78.218,79,79.186,79h5.609C86.013,79,87,78.105,87,77v-8
			c0-1.105-0.987-2-2.205-2h-6.014c-1.065,0-1.974,0.689-2.166,1.64C76.013,71.622,76.071,74.604,77.079,77.586z"/>
	</g>
</g>
</svg>
