<?xml version="1.0" encoding="iso-8859-1"?>
<!-- Generator: Adobe Illustrator 17.1.0, SVG Export Plug-In . SVG Version: 6.00 Build 0)  -->
<!DOCTYPE svg PUBLIC "-//W3C//DTD SVG 1.0//EN" "http://www.w3.org/TR/2001/REC-SVG-20010904/DTD/svg10.dtd">
<svg version="1.0" xmlns="http://www.w3.org/2000/svg" xmlns:xlink="http://www.w3.org/1999/xlink" x="0px" y="0px" width="110px"
	 height="110px" viewBox="0 0 110 110" style="enable-background:new 0 0 110 110;" xml:space="preserve">
<g id="Artboard">
</g>
<g id="Multicolor">
	<circle style="fill:#FABC3D;" cx="55" cy="55" r="55"/>
	<g>
		<circle style="fill:#DF2C2C;" cx="51" cy="55" r="28"/>
		<circle style="fill:#F0F1F1;" cx="51" cy="55" r="20"/>
		<circle style="fill:#DF2C2C;" cx="51" cy="55" r="12"/>
		<circle style="fill:#E2E4E5;" cx="51" cy="55" r="4"/>
		<path style="fill:#FA5655;" d="M70.87,35.28l-5.66,5.66C61.6,37.27,56.57,35,51,35c-11.05,0-20,8.95-20,20
			c0,5.56,2.27,10.59,5.94,14.21l-5.66,5.66C26.17,69.8,23,62.77,23,55c0-15.46,12.54-28,28-28C58.77,27,65.8,30.17,70.87,35.28z"/>
		<path style="fill:#FFFFFF;" d="M65.21,40.94l-5.65,5.65C57.39,44.37,54.35,43,51,43c-6.63,0-12,5.37-12,12
			c0,3.35,1.37,6.39,3.59,8.56l-5.65,5.65C33.27,65.59,31,60.56,31,55c0-11.05,8.95-20,20-20C56.57,35,61.6,37.27,65.21,40.94z"/>
		<path style="fill:#FA5655;" d="M59.56,46.59l-5.66,5.66C53.18,51.48,52.14,51,51,51c-2.21,0-4,1.79-4,4c0,1.14,0.48,2.17,1.25,2.9
			l-5.66,5.66C40.37,61.39,39,58.35,39,55c0-6.63,5.37-12,12-12C54.35,43,57.39,44.37,59.56,46.59z"/>
		<path style="fill:#FFFFFF;" d="M53.9,52.25l-2.12,2.12C51.59,54.14,51.31,54,51,54c-0.55,0-1,0.45-1,1c0,0.31,0.14,0.59,0.37,0.78
			l-2.12,2.12C47.48,57.17,47,56.14,47,55c0-2.21,1.79-4,4-4C52.14,51,53.18,51.48,53.9,52.25z"/>
		<path style="fill:#3E3E3F;" d="M51,55c1.188,0.792,3.284,1.777,6,2.572v-5.145C54.221,53.242,52.127,54.249,51,55z"/>
		<path style="fill:#FACB1B;" d="M57,52.427v5.145c1.494,0.437,3.177,0.813,5,1.071v-7.286C60.167,51.615,58.484,51.992,57,52.427z"
			/>
		<path style="fill:#818284;" d="M57,52.427c-2.779,0.815-4.873,1.821-6,2.573h6V52.427z"/>
		<path style="fill:#3E3E3F;" d="M87,44c-9.33,0-13.524,5.153-15.292,7.31C70.268,51.125,68.491,51,67,51
			c-1.763,0-3.435,0.136-5,0.357v0V55v3.643C63.573,58.865,65.247,59,67,59c1.69,0,3.255-0.121,4.707-0.311
			C73.474,60.845,77.668,66,87,66c0-3.667-0.641-7.19-4.367-11C86.359,51.19,87,47.667,87,44z"/>
		<path style="fill:#818284;" d="M82.633,55C86.359,51.19,87,47.667,87,44c-9.332,0-13.526,5.155-15.293,7.311
			C70.255,51.121,68.69,51,67,51c-1.763,0-3.435,0.136-5,0.357V55H82.633z"/>
		<path style="fill:#FBE158;" d="M62,55v-3.643c-1.833,0.258-3.516,0.635-5,1.07V55H62z"/>
	</g>
</g>
</svg>
