<?xml version="1.0" encoding="iso-8859-1"?>
<!-- Generator: Adobe Illustrator 17.1.0, SVG Export Plug-In . SVG Version: 6.00 Build 0)  -->
<!DOCTYPE svg PUBLIC "-//W3C//DTD SVG 1.0//EN" "http://www.w3.org/TR/2001/REC-SVG-20010904/DTD/svg10.dtd">
<svg version="1.0" xmlns="http://www.w3.org/2000/svg" xmlns:xlink="http://www.w3.org/1999/xlink" x="0px" y="0px" width="110px"
	 height="110px" viewBox="0 0 110 110" style="enable-background:new 0 0 110 110;" xml:space="preserve">
<g id="Artboard" style="display:none;">
	<rect x="-1119" y="-455" style="display:inline;fill:#8C8C8C;" width="1412" height="743"/>
</g>
<g id="R-Multicolor">
	<circle style="fill:#E04F5F;" cx="55" cy="55" r="55"/>
	<g>
		<circle style="fill:#F0F1F1;" cx="55" cy="55" r="32"/>
		<path style="fill:#FFFFFF;" d="M23,55c0,17.673,14.327,32,32,32V23C37.327,23,23,37.327,23,55z"/>
		<g>
			<path style="fill:#FA5655;" d="M51.13,43.64C46.4,45.25,43,49.73,43,55H31c0-9.85,5.97-18.34,14.48-22.03L51.13,43.64z"/>
		</g>
		<path style="fill:#FACB1B;" d="M79,55H67c0-6.62-5.38-12-12-12c-1.35,0-2.66,0.22-3.87,0.64l-5.65-10.67C48.4,31.7,51.62,31,55,31
			C68.23,31,79,41.77,79,55z"/>
		<path style="fill:#FBE158;" d="M55,31c-3.38,0-6.6,0.7-9.52,1.97l5.65,10.67C52.34,43.22,53.65,43,55,43
			c3.943,0,7.435,1.917,9.623,4.859l9.471-7.374C69.705,34.727,62.779,31,55,31z"/>
		<path style="fill:#3E3E3F;" d="M58.2,57.4c-1.325,1.767-3.833,2.125-5.6,0.8c-1.767-1.325-2.125-3.833-0.8-5.6
			c1.325-1.767,14-12,14-12S59.525,55.633,58.2,57.4z"/>
		<path style="fill:#B6BCBD;" d="M56,80c0,0.55-0.45,1-1,1l0,0c-0.55,0-1-0.45-1-1v-6c0-0.55,0.45-1,1-1l0,0c0.55,0,1,0.45,1,1V80z"
			/>
		<path style="fill:#B6BCBD;" d="M75,65c0.55,0,1,0.45,1,1l0,0c0,0.55-0.45,1-1,1h-6c-0.55,0-1-0.45-1-1l0,0c0-0.55,0.45-1,1-1H75z"
			/>
		<path style="fill:#B6BCBD;" d="M34,65c-0.55,0-1,0.45-1,1l0,0c0,0.55,0.45,1,1,1h6c0.55,0,1-0.45,1-1l0,0c0-0.55-0.45-1-1-1H34z"
			/>
		<path style="fill:#B6BCBD;" d="M41.316,75.937c-0.31,0.454-0.192,1.08,0.262,1.39l0,0c0.454,0.31,1.08,0.192,1.39-0.262
			l3.384-4.955c0.31-0.454,0.192-1.08-0.262-1.39l0,0c-0.454-0.31-1.08-0.192-1.39,0.262L41.316,75.937z"/>
		<path style="fill:#B6BCBD;" d="M68.684,75.937c0.31,0.454,0.192,1.08-0.262,1.39l0,0c-0.454,0.31-1.08,0.192-1.39-0.262
			l-3.384-4.955c-0.31-0.454-0.192-1.08,0.262-1.39l0,0c0.454-0.31,1.08-0.192,1.39,0.262L68.684,75.937z"/>
	</g>
</g>
<g id="Multicolor" style="display:none;">
	<g style="display:inline;">
		<circle style="fill:#F0F1F1;" cx="55" cy="55" r="32"/>
		<path style="fill:#FFFFFF;" d="M23,55c0,17.673,14.327,32,32,32V23C37.327,23,23,37.327,23,55z"/>
		<g>
			<path style="fill:#FA5655;" d="M51.13,43.64C46.4,45.25,43,49.73,43,55H31c0-9.85,5.97-18.34,14.48-22.03L51.13,43.64z"/>
		</g>
		<path style="fill:#FACB1B;" d="M79,55H67c0-6.62-5.38-12-12-12c-1.35,0-2.66,0.22-3.87,0.64l-5.65-10.67C48.4,31.7,51.62,31,55,31
			C68.23,31,79,41.77,79,55z"/>
		<path style="fill:#FBE158;" d="M55,31c-3.38,0-6.6,0.7-9.52,1.97l5.65,10.67C52.34,43.22,53.65,43,55,43
			c3.943,0,7.435,1.917,9.623,4.859l9.471-7.374C69.705,34.727,62.779,31,55,31z"/>
		<path style="fill:#3E3E3F;" d="M58.2,57.4c-1.325,1.767-3.833,2.125-5.6,0.8c-1.767-1.325-2.125-3.833-0.8-5.6
			c1.325-1.767,14-12,14-12S59.525,55.633,58.2,57.4z"/>
		<path style="fill:#B6BCBD;" d="M56,80c0,0.55-0.45,1-1,1l0,0c-0.55,0-1-0.45-1-1v-6c0-0.55,0.45-1,1-1l0,0c0.55,0,1,0.45,1,1V80z"
			/>
		<path style="fill:#B6BCBD;" d="M75,65c0.55,0,1,0.45,1,1l0,0c0,0.55-0.45,1-1,1h-6c-0.55,0-1-0.45-1-1l0,0c0-0.55,0.45-1,1-1H75z"
			/>
		<path style="fill:#B6BCBD;" d="M34,65c-0.55,0-1,0.45-1,1l0,0c0,0.55,0.45,1,1,1h6c0.55,0,1-0.45,1-1l0,0c0-0.55-0.45-1-1-1H34z"
			/>
		<path style="fill:#B6BCBD;" d="M41.316,75.937c-0.31,0.454-0.192,1.08,0.262,1.39l0,0c0.454,0.31,1.08,0.192,1.39-0.262
			l3.384-4.955c0.31-0.454,0.192-1.08-0.262-1.39l0,0c-0.454-0.31-1.08-0.192-1.39,0.262L41.316,75.937z"/>
		<path style="fill:#B6BCBD;" d="M68.684,75.937c0.31,0.454,0.192,1.08-0.262,1.39l0,0c-0.454,0.31-1.08,0.192-1.39-0.262
			l-3.384-4.955c-0.31-0.454-0.192-1.08,0.262-1.39l0,0c0.454-0.31,1.08-0.192,1.39,0.262L68.684,75.937z"/>
	</g>
</g>
<g id="Blue" style="display:none;">
	<g style="display:inline;">
		<g>
			<circle style="fill:#E1F5FA;" cx="55.003" cy="55" r="32"/>
		</g>
		<g>
			<path style="fill:#FFFFFF;" d="M23.003,55c0,17.673,14.327,32,32,32V23C37.33,23,23.003,37.327,23.003,55z"/>
		</g>
		<g>
			<g>
				<path style="fill:#009FC7;" d="M51.133,43.64c-4.73,1.61-8.13,6.09-8.13,11.36h-12c0-9.85,5.97-18.34,14.48-22.03L51.133,43.64z
					"/>
			</g>
		</g>
		<g>
			<path style="fill:#00B7E5;" d="M79.003,55h-12c0-6.62-5.38-12-12-12c-1.35,0-2.66,0.22-3.87,0.64l-5.65-10.67
				c2.92-1.271,6.14-1.97,9.52-1.97C68.233,31,79.003,41.77,79.003,55z"/>
		</g>
		<g>
			<path style="fill:#0C333D;" d="M58.203,57.4c-1.325,1.768-3.832,2.126-5.6,0.8c-1.768-1.325-2.125-3.832-0.8-5.6
				c1.326-1.767,14-12,14-12S59.528,55.633,58.203,57.4z"/>
		</g>
		<g>
			<path style="fill:#53BAD4;" d="M56.003,80c0,0.55-0.45,1-1,1l0,0c-0.55,0-1-0.45-1-1v-6c0-0.55,0.45-1,1-1l0,0c0.55,0,1,0.45,1,1
				V80z"/>
		</g>
		<g>
			<path style="fill:#53BAD4;" d="M75.003,65c0.55,0,1,0.45,1,1l0,0c0,0.55-0.45,1-1,1h-6c-0.55,0-1-0.45-1-1l0,0c0-0.55,0.45-1,1-1
				H75.003z"/>
		</g>
		<g>
			<path style="fill:#53BAD4;" d="M34.003,65c-0.55,0-1,0.45-1,1l0,0c0,0.55,0.45,1,1,1h6c0.55,0,1-0.45,1-1l0,0c0-0.55-0.45-1-1-1
				H34.003z"/>
		</g>
		<g>
			<path style="fill:#53BAD4;" d="M41.319,75.937c-0.311,0.455-0.192,1.08,0.262,1.39l0,0c0.454,0.31,1.08,0.192,1.39-0.262
				l3.384-4.955c0.311-0.454,0.192-1.08-0.262-1.39l0,0c-0.454-0.31-1.08-0.192-1.39,0.262L41.319,75.937z"/>
		</g>
		<g>
			<path style="fill:#53BAD4;" d="M68.687,75.937c0.311,0.455,0.192,1.08-0.262,1.39l0,0c-0.454,0.31-1.08,0.192-1.39-0.262
				l-3.384-4.955c-0.31-0.454-0.192-1.08,0.262-1.39l0,0c0.454-0.31,1.08-0.192,1.39,0.262L68.687,75.937z"/>
		</g>
	</g>
</g>
<g id="R-Blue" style="display:none;">
	<g style="display:inline;">
		<circle style="fill:#81D2EB;" cx="55" cy="55" r="55"/>
	</g>
	<g style="display:inline;">
		<g>
			<circle style="fill:#E1F5FA;" cx="55" cy="55" r="32"/>
		</g>
		<g>
			<path style="fill:#FFFFFF;" d="M23,55c0,17.673,14.327,32,32,32V23C37.327,23,23,37.327,23,55z"/>
		</g>
		<g>
			<g>
				<path style="fill:#009FC7;" d="M51.13,43.64C46.4,45.25,43,49.73,43,55H31c0-9.85,5.97-18.34,14.48-22.03L51.13,43.64z"/>
			</g>
		</g>
		<g>
			<path style="fill:#00B7E5;" d="M79,55H67c0-6.62-5.38-12-12-12c-1.35,0-2.66,0.22-3.87,0.64l-5.65-10.67
				C48.4,31.7,51.62,31,55,31C68.23,31,79,41.77,79,55z"/>
		</g>
		<g>
			<path style="fill:#0C333D;" d="M58.2,57.4c-1.325,1.768-3.832,2.126-5.6,0.8c-1.768-1.325-2.125-3.832-0.8-5.6
				c1.326-1.767,14-12,14-12S59.525,55.633,58.2,57.4z"/>
		</g>
		<g>
			<path style="fill:#53BAD4;" d="M56,80c0,0.55-0.45,1-1,1l0,0c-0.55,0-1-0.45-1-1v-6c0-0.55,0.45-1,1-1l0,0c0.55,0,1,0.45,1,1V80z
				"/>
		</g>
		<g>
			<path style="fill:#53BAD4;" d="M75,65c0.55,0,1,0.45,1,1l0,0c0,0.55-0.45,1-1,1h-6c-0.55,0-1-0.45-1-1l0,0c0-0.55,0.45-1,1-1H75z
				"/>
		</g>
		<g>
			<path style="fill:#53BAD4;" d="M34,65c-0.55,0-1,0.45-1,1l0,0c0,0.55,0.45,1,1,1h6c0.55,0,1-0.45,1-1l0,0c0-0.55-0.45-1-1-1H34z"
				/>
		</g>
		<g>
			<path style="fill:#53BAD4;" d="M41.316,75.937c-0.311,0.455-0.192,1.08,0.262,1.39l0,0c0.454,0.31,1.08,0.192,1.39-0.262
				l3.384-4.955c0.311-0.454,0.192-1.08-0.262-1.39l0,0c-0.454-0.31-1.08-0.192-1.39,0.262L41.316,75.937z"/>
		</g>
		<g>
			<path style="fill:#53BAD4;" d="M68.684,75.937c0.311,0.455,0.192,1.08-0.262,1.39l0,0c-0.454,0.31-1.08,0.192-1.39-0.262
				l-3.384-4.955c-0.31-0.454-0.192-1.08,0.262-1.39l0,0c0.454-0.31,1.08-0.192,1.39,0.262L68.684,75.937z"/>
		</g>
	</g>
</g>
<g id="Green" style="display:none;">
	<g style="display:inline;">
		<g>
			<circle style="fill:#D7FCF9;" cx="55.003" cy="55" r="32"/>
		</g>
		<g>
			<path style="fill:#FFFFFF;" d="M23.003,55c0,17.673,14.327,32,32,32V23C37.33,23,23.003,37.327,23.003,55z"/>
		</g>
		<g>
			<g>
				<path style="fill:#00B8A5;" d="M51.133,43.64c-4.73,1.61-8.13,6.09-8.13,11.36h-12c0-9.85,5.97-18.34,14.48-22.03L51.133,43.64z
					"/>
			</g>
		</g>
		<g>
			<path style="fill:#00D6C1;" d="M79.003,55h-12c0-6.62-5.38-12-12-12c-1.35,0-2.66,0.22-3.87,0.64l-5.65-10.67
				c2.92-1.271,6.14-1.97,9.52-1.97C68.233,31,79.003,41.77,79.003,55z"/>
		</g>
		<g>
			<path style="fill:#0A3631;" d="M58.203,57.4c-1.325,1.768-3.832,2.126-5.6,0.8c-1.768-1.325-2.125-3.832-0.8-5.6
				c1.326-1.767,14-12,14-12S59.528,55.633,58.203,57.4z"/>
		</g>
		<g>
			<path style="fill:#5DCFC3;" d="M56.003,80c0,0.55-0.45,1-1,1l0,0c-0.55,0-1-0.45-1-1v-6c0-0.55,0.45-1,1-1l0,0c0.55,0,1,0.45,1,1
				V80z"/>
		</g>
		<g>
			<path style="fill:#5DCFC3;" d="M75.003,65c0.55,0,1,0.45,1,1l0,0c0,0.55-0.45,1-1,1h-6c-0.55,0-1-0.45-1-1l0,0c0-0.55,0.45-1,1-1
				H75.003z"/>
		</g>
		<g>
			<path style="fill:#5DCFC3;" d="M34.003,65c-0.55,0-1,0.45-1,1l0,0c0,0.55,0.45,1,1,1h6c0.55,0,1-0.45,1-1l0,0c0-0.55-0.45-1-1-1
				H34.003z"/>
		</g>
		<g>
			<path style="fill:#5DCFC3;" d="M41.319,75.937c-0.311,0.455-0.192,1.08,0.262,1.39l0,0c0.454,0.31,1.08,0.192,1.39-0.262
				l3.384-4.955c0.311-0.454,0.192-1.08-0.262-1.39l0,0c-0.454-0.31-1.08-0.192-1.39,0.262L41.319,75.937z"/>
		</g>
		<g>
			<path style="fill:#5DCFC3;" d="M68.687,75.937c0.311,0.455,0.192,1.08-0.262,1.39l0,0c-0.454,0.31-1.08,0.192-1.39-0.262
				l-3.384-4.955c-0.31-0.454-0.192-1.08,0.262-1.39l0,0c0.454-0.31,1.08-0.192,1.39,0.262L68.687,75.937z"/>
		</g>
	</g>
</g>
<g id="R-Green" style="display:none;">
	<g style="display:inline;">
		<circle style="fill:#87E0C8;" cx="55" cy="55" r="55"/>
	</g>
	<g style="display:inline;">
		<g>
			<circle style="fill:#D7FCF9;" cx="55" cy="55" r="32"/>
		</g>
		<g>
			<path style="fill:#FFFFFF;" d="M23,55c0,17.673,14.327,32,32,32V23C37.327,23,23,37.327,23,55z"/>
		</g>
		<g>
			<g>
				<path style="fill:#00B8A5;" d="M51.13,43.64C46.4,45.25,43,49.73,43,55H31c0-9.85,5.97-18.34,14.48-22.03L51.13,43.64z"/>
			</g>
		</g>
		<g>
			<path style="fill:#00D6C1;" d="M79,55H67c0-6.62-5.38-12-12-12c-1.35,0-2.66,0.22-3.87,0.64l-5.65-10.67
				C48.4,31.7,51.62,31,55,31C68.23,31,79,41.77,79,55z"/>
		</g>
		<g>
			<path style="fill:#0A3631;" d="M58.2,57.4c-1.325,1.768-3.832,2.126-5.6,0.8c-1.768-1.325-2.125-3.832-0.8-5.6
				c1.326-1.767,14-12,14-12S59.525,55.633,58.2,57.4z"/>
		</g>
		<g>
			<path style="fill:#5DCFC3;" d="M56,80c0,0.55-0.45,1-1,1l0,0c-0.55,0-1-0.45-1-1v-6c0-0.55,0.45-1,1-1l0,0c0.55,0,1,0.45,1,1V80z
				"/>
		</g>
		<g>
			<path style="fill:#5DCFC3;" d="M75,65c0.55,0,1,0.45,1,1l0,0c0,0.55-0.45,1-1,1h-6c-0.55,0-1-0.45-1-1l0,0c0-0.55,0.45-1,1-1H75z
				"/>
		</g>
		<g>
			<path style="fill:#5DCFC3;" d="M34,65c-0.55,0-1,0.45-1,1l0,0c0,0.55,0.45,1,1,1h6c0.55,0,1-0.45,1-1l0,0c0-0.55-0.45-1-1-1H34z"
				/>
		</g>
		<g>
			<path style="fill:#5DCFC3;" d="M41.316,75.937c-0.311,0.455-0.192,1.08,0.262,1.39l0,0c0.454,0.31,1.08,0.192,1.39-0.262
				l3.384-4.955c0.311-0.454,0.192-1.08-0.262-1.39l0,0c-0.454-0.31-1.08-0.192-1.39,0.262L41.316,75.937z"/>
		</g>
		<g>
			<path style="fill:#5DCFC3;" d="M68.684,75.937c0.311,0.455,0.192,1.08-0.262,1.39l0,0c-0.454,0.31-1.08,0.192-1.39-0.262
				l-3.384-4.955c-0.31-0.454-0.192-1.08,0.262-1.39l0,0c0.454-0.31,1.08-0.192,1.39,0.262L68.684,75.937z"/>
		</g>
	</g>
</g>
<g id="Red" style="display:none;">
	<g style="display:inline;">
		<g>
			<circle style="fill:#FFEFED;" cx="55" cy="55" r="32"/>
		</g>
		<g>
			<path style="fill:#FFFFFF;" d="M23,55c0,17.673,14.327,32,32,32V23C37.327,23,23,37.327,23,55z"/>
		</g>
		<g>
			<g>
				<path style="fill:#E54B44;" d="M51.13,43.64C46.4,45.25,43,49.73,43,55H31c0-9.85,5.97-18.34,14.48-22.03L51.13,43.64z"/>
			</g>
		</g>
		<g>
			<path style="fill:#FF6C5E;" d="M79,55H67c0-6.62-5.38-12-12-12c-1.35,0-2.66,0.22-3.87,0.64l-5.65-10.67
				C48.4,31.7,51.62,31,55,31C68.23,31,79,41.77,79,55z"/>
		</g>
		<g>
			<path style="fill:#4A1410;" d="M58.2,57.4c-1.325,1.768-3.832,2.126-5.6,0.8c-1.768-1.325-2.125-3.832-0.8-5.6
				c1.326-1.767,14-12,14-12S59.525,55.633,58.2,57.4z"/>
		</g>
		<g>
			<path style="fill:#E8A099;" d="M56,80c0,0.55-0.45,1-1,1l0,0c-0.55,0-1-0.45-1-1v-6c0-0.55,0.45-1,1-1l0,0c0.55,0,1,0.45,1,1V80z
				"/>
		</g>
		<g>
			<path style="fill:#E8A099;" d="M75,65c0.55,0,1,0.45,1,1l0,0c0,0.55-0.45,1-1,1h-6c-0.55,0-1-0.45-1-1l0,0c0-0.55,0.45-1,1-1H75z
				"/>
		</g>
		<g>
			<path style="fill:#E8A099;" d="M34,65c-0.55,0-1,0.45-1,1l0,0c0,0.55,0.45,1,1,1h6c0.55,0,1-0.45,1-1l0,0c0-0.55-0.45-1-1-1H34z"
				/>
		</g>
		<g>
			<path style="fill:#E8A099;" d="M41.316,75.937c-0.311,0.455-0.192,1.08,0.262,1.39l0,0c0.454,0.31,1.08,0.192,1.39-0.262
				l3.384-4.955c0.311-0.454,0.192-1.08-0.262-1.39l0,0c-0.454-0.31-1.08-0.192-1.39,0.262L41.316,75.937z"/>
		</g>
		<g>
			<path style="fill:#E8A099;" d="M68.684,75.937c0.311,0.455,0.192,1.08-0.262,1.39l0,0c-0.454,0.31-1.08,0.192-1.39-0.262
				l-3.384-4.955c-0.31-0.454-0.192-1.08,0.262-1.39l0,0c0.454-0.31,1.08-0.192,1.39,0.262L68.684,75.937z"/>
		</g>
	</g>
</g>
<g id="R-Red" style="display:none;">
	<g style="display:inline;">
		<circle style="fill:#FABBAF;" cx="55" cy="55" r="55"/>
	</g>
	<g style="display:inline;">
		<g>
			<circle style="fill:#FFEFED;" cx="55" cy="55" r="32"/>
		</g>
		<g>
			<path style="fill:#FFFFFF;" d="M23,55c0,17.673,14.327,32,32,32V23C37.327,23,23,37.327,23,55z"/>
		</g>
		<g>
			<g>
				<path style="fill:#E54B44;" d="M51.13,43.64C46.4,45.25,43,49.73,43,55H31c0-9.85,5.97-18.34,14.48-22.03L51.13,43.64z"/>
			</g>
		</g>
		<g>
			<path style="fill:#FF6C5E;" d="M79,55H67c0-6.62-5.38-12-12-12c-1.35,0-2.66,0.22-3.87,0.64l-5.65-10.67
				C48.4,31.7,51.62,31,55,31C68.23,31,79,41.77,79,55z"/>
		</g>
		<g>
			<path style="fill:#4A1410;" d="M58.2,57.4c-1.325,1.768-3.832,2.126-5.6,0.8c-1.768-1.325-2.125-3.832-0.8-5.6
				c1.326-1.767,14-12,14-12S59.525,55.633,58.2,57.4z"/>
		</g>
		<g>
			<path style="fill:#E8A099;" d="M56,80c0,0.55-0.45,1-1,1l0,0c-0.55,0-1-0.45-1-1v-6c0-0.55,0.45-1,1-1l0,0c0.55,0,1,0.45,1,1V80z
				"/>
		</g>
		<g>
			<path style="fill:#E8A099;" d="M75,65c0.55,0,1,0.45,1,1l0,0c0,0.55-0.45,1-1,1h-6c-0.55,0-1-0.45-1-1l0,0c0-0.55,0.45-1,1-1H75z
				"/>
		</g>
		<g>
			<path style="fill:#E8A099;" d="M34,65c-0.55,0-1,0.45-1,1l0,0c0,0.55,0.45,1,1,1h6c0.55,0,1-0.45,1-1l0,0c0-0.55-0.45-1-1-1H34z"
				/>
		</g>
		<g>
			<path style="fill:#E8A099;" d="M41.316,75.937c-0.311,0.455-0.192,1.08,0.262,1.39l0,0c0.454,0.31,1.08,0.192,1.39-0.262
				l3.384-4.955c0.311-0.454,0.192-1.08-0.262-1.39l0,0c-0.454-0.31-1.08-0.192-1.39,0.262L41.316,75.937z"/>
		</g>
		<g>
			<path style="fill:#E8A099;" d="M68.684,75.937c0.311,0.455,0.192,1.08-0.262,1.39l0,0c-0.454,0.31-1.08,0.192-1.39-0.262
				l-3.384-4.955c-0.31-0.454-0.192-1.08,0.262-1.39l0,0c0.454-0.31,1.08-0.192,1.39,0.262L68.684,75.937z"/>
		</g>
	</g>
</g>
<g id="Yellow" style="display:none;">
	<g style="display:inline;">
		<g>
			<circle style="fill:#FFF5D9;" cx="55.003" cy="55" r="32"/>
		</g>
		<g>
			<path style="fill:#FFFFFF;" d="M23.003,55c0,17.673,14.327,32,32,32V23C37.33,23,23.003,37.327,23.003,55z"/>
		</g>
		<g>
			<g>
				<path style="fill:#FA9200;" d="M51.133,43.64c-4.73,1.61-8.13,6.09-8.13,11.36h-12c0-9.85,5.97-18.34,14.48-22.03L51.133,43.64z
					"/>
			</g>
		</g>
		<g>
			<path style="fill:#FFAA00;" d="M79.003,55h-12c0-6.62-5.38-12-12-12c-1.35,0-2.66,0.22-3.87,0.64l-5.65-10.67
				c2.92-1.271,6.14-1.97,9.52-1.97C68.233,31,79.003,41.77,79.003,55z"/>
		</g>
		<g>
			<path style="fill:#3D320C;" d="M58.203,57.4c-1.325,1.768-3.832,2.126-5.6,0.8c-1.768-1.325-2.125-3.832-0.8-5.6
				c1.326-1.767,14-12,14-12S59.528,55.633,58.203,57.4z"/>
		</g>
		<g>
			<path style="fill:#F5C43D;" d="M56.003,80c0,0.55-0.45,1-1,1l0,0c-0.55,0-1-0.45-1-1v-6c0-0.55,0.45-1,1-1l0,0c0.55,0,1,0.45,1,1
				V80z"/>
		</g>
		<g>
			<path style="fill:#F5C43D;" d="M75.003,65c0.55,0,1,0.45,1,1l0,0c0,0.55-0.45,1-1,1h-6c-0.55,0-1-0.45-1-1l0,0c0-0.55,0.45-1,1-1
				H75.003z"/>
		</g>
		<g>
			<path style="fill:#F5C43D;" d="M34.003,65c-0.55,0-1,0.45-1,1l0,0c0,0.55,0.45,1,1,1h6c0.55,0,1-0.45,1-1l0,0c0-0.55-0.45-1-1-1
				H34.003z"/>
		</g>
		<g>
			<path style="fill:#F5C43D;" d="M41.319,75.937c-0.311,0.455-0.192,1.08,0.262,1.39l0,0c0.454,0.31,1.08,0.192,1.39-0.262
				l3.384-4.955c0.311-0.454,0.192-1.08-0.262-1.39l0,0c-0.454-0.31-1.08-0.192-1.39,0.262L41.319,75.937z"/>
		</g>
		<g>
			<path style="fill:#F5C43D;" d="M68.687,75.937c0.311,0.455,0.192,1.08-0.262,1.39l0,0c-0.454,0.31-1.08,0.192-1.39-0.262
				l-3.384-4.955c-0.31-0.454-0.192-1.08,0.262-1.39l0,0c0.454-0.31,1.08-0.192,1.39,0.262L68.687,75.937z"/>
		</g>
	</g>
</g>
<g id="R-Yellow" style="display:none;">
	<g style="display:inline;">
		<circle style="fill:#FFD75E;" cx="55" cy="55" r="55"/>
	</g>
	<g style="display:inline;">
		<g>
			<circle style="fill:#FFF5D9;" cx="55" cy="55" r="32"/>
		</g>
		<g>
			<path style="fill:#FFFFFF;" d="M23,55c0,17.673,14.327,32,32,32V23C37.327,23,23,37.327,23,55z"/>
		</g>
		<g>
			<g>
				<path style="fill:#FA9200;" d="M51.13,43.64C46.4,45.25,43,49.73,43,55H31c0-9.85,5.97-18.34,14.48-22.03L51.13,43.64z"/>
			</g>
		</g>
		<g>
			<path style="fill:#FFAA00;" d="M79,55H67c0-6.62-5.38-12-12-12c-1.35,0-2.66,0.22-3.87,0.64l-5.65-10.67
				C48.4,31.7,51.62,31,55,31C68.23,31,79,41.77,79,55z"/>
		</g>
		<g>
			<path style="fill:#3D320C;" d="M58.2,57.4c-1.325,1.768-3.833,2.126-5.6,0.8c-1.768-1.325-2.125-3.832-0.8-5.6
				c1.326-1.767,14-12,14-12S59.525,55.633,58.2,57.4z"/>
		</g>
		<g>
			<path style="fill:#F5C43D;" d="M56,80c0,0.55-0.45,1-1,1l0,0c-0.55,0-1-0.45-1-1v-6c0-0.55,0.45-1,1-1l0,0c0.55,0,1,0.45,1,1V80z
				"/>
		</g>
		<g>
			<path style="fill:#F5C43D;" d="M75,65c0.55,0,1,0.45,1,1l0,0c0,0.55-0.45,1-1,1h-6c-0.55,0-1-0.45-1-1l0,0c0-0.55,0.45-1,1-1H75z
				"/>
		</g>
		<g>
			<path style="fill:#F5C43D;" d="M34,65c-0.55,0-1,0.45-1,1l0,0c0,0.55,0.45,1,1,1h6c0.55,0,1-0.45,1-1l0,0c0-0.55-0.45-1-1-1H34z"
				/>
		</g>
		<g>
			<path style="fill:#F5C43D;" d="M41.316,75.937c-0.31,0.455-0.192,1.08,0.262,1.39l0,0c0.454,0.31,1.08,0.192,1.39-0.262
				l3.384-4.955c0.31-0.454,0.192-1.08-0.262-1.39l0,0c-0.454-0.31-1.08-0.192-1.39,0.262L41.316,75.937z"/>
		</g>
		<g>
			<path style="fill:#F5C43D;" d="M68.684,75.937c0.311,0.455,0.192,1.08-0.262,1.39l0,0c-0.454,0.31-1.08,0.192-1.39-0.262
				l-3.384-4.955c-0.31-0.454-0.192-1.08,0.262-1.39l0,0c0.454-0.31,1.08-0.192,1.39,0.262L68.684,75.937z"/>
		</g>
	</g>
</g>
</svg>
