<?xml version="1.0" encoding="iso-8859-1"?>
<!-- Generator: Adobe Illustrator 17.1.0, SVG Export Plug-In . SVG Version: 6.00 Build 0)  -->
<!DOCTYPE svg PUBLIC "-//W3C//DTD SVG 1.0//EN" "http://www.w3.org/TR/2001/REC-SVG-20010904/DTD/svg10.dtd">
<svg version="1.0" xmlns="http://www.w3.org/2000/svg" xmlns:xlink="http://www.w3.org/1999/xlink" x="0px" y="0px" width="110px"
	 height="110px" viewBox="0 0 110 110" style="enable-background:new 0 0 110 110;" xml:space="preserve">
<g id="Artboard">
</g>
<g id="Multicolor">
	<circle style="fill:#FABC3D;" cx="55" cy="55" r="55"/>
	<g>
		<path style="fill:#3E3E3F;" d="M85.152,35.032c0-0.407-0.251-0.787-0.649-0.937L55.351,23.164c-0.226-0.085-0.476-0.085-0.702,0
			L25.497,34.096c-0.391,0.146-0.649,0.52-0.649,0.937l0,0l0,0c0,0.349,0.239,0.783,0.649,0.936L39,41.032V48.1
			c2.547,3.566,9.247,5.57,16,5.758c6.753-0.188,13.453-2.192,16-5.758v-7.068l10-3.75V48.1h2V36.532l1.503-0.564
			C84.884,35.826,85.152,35.447,85.152,35.032z"/>
		<g>
			<path style="fill:#E2E4E5;" d="M86.94,71.1c-0.3,2.34-1.61,6.67-3.94,9l-28-4l-28,4c-2.33-2.33-3.64-6.66-3.94-9
				c-0.08-0.67-0.08-1.33,0-2c0.3-2.34,1.61-6.67,3.94-9l28,4l28-4c2.33,2.33,3.64,6.66,3.94,9C87.02,69.77,87.02,70.43,86.94,71.1z
				"/>
		</g>
		<g>
			<path style="fill:#FFFFFF;" d="M27,60.1c-2.33,2.33-3.64,6.66-3.94,9h63.88c-0.3-2.34-1.61-6.67-3.94-9l-28,4L27,60.1z"/>
		</g>
		<g>
			<path style="fill:#3E3E3F;" d="M58.239,75.918C57.717,77.197,56.466,78.1,55,78.1s-2.717-0.903-3.239-2.182
				c-0.425,0.179-0.878,0.262-1.331,0.267L49,86l6-4.9l6,4.875l-1.929-9.83C58.787,76.102,58.507,76.031,58.239,75.918z"/>
		</g>
		<g>
			<path style="fill:#DF2C2C;" d="M65,68.1c0-1.466-0.903-2.717-2.182-3.239c0.536-1.273,0.289-2.796-0.747-3.833
				c-1.037-1.037-2.56-1.283-3.833-0.748C57.717,59.003,56.466,58.1,55,58.1s-2.717,0.903-3.239,2.181
				c-1.272-0.535-2.796-0.289-3.833,0.748c-1.036,1.036-1.283,2.56-0.747,3.833C45.903,65.383,45,66.634,45,68.1
				s0.903,2.717,2.182,3.239c-0.536,1.273-0.289,2.796,0.747,3.833c1.037,1.037,2.56,1.283,3.833,0.748
				C52.283,77.197,53.534,78.1,55,78.1s2.717-0.903,3.239-2.181c1.272,0.535,2.796,0.289,3.833-0.748
				c1.036-1.036,1.283-2.56,0.747-3.833C64.097,70.817,65,69.566,65,68.1z"/>
		</g>
		<g>
			<rect x="81" y="48.032" style="fill:#FACB1B;" width="2" height="2"/>
		</g>
		<g>
			<polygon style="fill:#3E3E3F;" points="85,57.1 83,50.1 81,50.1 79,57.1 			"/>
		</g>
		<g>
			<circle style="fill:#FA5655;" cx="55" cy="68.1" r="5.929"/>
		</g>
		<g>
			<rect x="81" y="48.032" style="fill:#FCE87E;" width="1" height="2"/>
		</g>
		<g>
			<polygon style="fill:#5B5C5F;" points="82,50.1 81,50.1 79,57.1 82,57.1 			"/>
		</g>
		<g>
			<path style="fill:#FA5655;" d="M58.239,60.281C57.717,59.003,56.466,58.1,55,58.1s-2.717,0.903-3.239,2.181
				c-1.272-0.535-2.796-0.289-3.833,0.748c-1.036,1.036-1.283,2.56-0.747,3.833C45.903,65.383,45,66.634,45,68.1
				s0.903,2.717,2.182,3.239c-0.533,1.267-0.29,2.781,0.734,3.817l14.14-14.14C61.019,59.991,59.505,59.749,58.239,60.281z"/>
		</g>
		<g>
			<path style="fill:#F79392;" d="M55,62.171c-3.274,0-5.929,2.654-5.929,5.929c0,1.63,0.658,3.105,1.723,4.177l8.383-8.383
				C58.105,62.829,56.63,62.171,55,62.171z"/>
		</g>
		<g>
			<path style="fill:#5B5C5F;" d="M39,41.032V48.1c2.547,3.566,9.247,5.57,16,5.758v-6.894c-0.119,0-0.238-0.021-0.351-0.063
				L39,41.032z"/>
		</g>
		<g>
			<path style="fill:#5B5C5F;" d="M54.649,23.164L25.497,34.096c-0.391,0.146-0.649,0.52-0.649,0.937
				c0,0.417,0.258,0.79,0.649,0.936L54.649,46.9c0.113,0.042,0.232,0.063,0.351,0.063V23.1C54.881,23.1,54.762,23.121,54.649,23.164
				z"/>
		</g>
	</g>
</g>
</svg>
