<?xml version="1.0" encoding="iso-8859-1"?>
<!-- Generator: Adobe Illustrator 17.1.0, SVG Export Plug-In . SVG Version: 6.00 Build 0)  -->
<!DOCTYPE svg PUBLIC "-//W3C//DTD SVG 1.0//EN" "http://www.w3.org/TR/2001/REC-SVG-20010904/DTD/svg10.dtd">
<svg version="1.0" xmlns="http://www.w3.org/2000/svg" xmlns:xlink="http://www.w3.org/1999/xlink" x="0px" y="0px" width="110px"
	 height="110px" viewBox="0 0 110 110" style="enable-background:new 0 0 110 110;" xml:space="preserve">
<g id="Artboard">
</g>
<g id="Multicolor">
	<g>
		<circle style="fill:#25B7D3;" cx="55" cy="55" r="55"/>
	</g>
	<g>
		<g>
			<path style="fill:#84462D;" d="M45,67l-2,1l-12.957,5.018C28.698,73.606,27.615,74.667,27,76l-4,11h31.998L55,87.003L55.002,87
				H87l-4-11c-0.615-1.333-1.698-2.394-3.043-2.982L67,68l-2-1H45z"/>
		</g>
		<path style="fill:#F7B4B4;" d="M57.655,67.994H55h-2.655c-0.856,0-1.671-0.365-2.24-1.004L45,62.994v4.5c0,0,0,7.5,10,7.5
			s10-7.5,10-7.5v-4.5l-5.105,3.996C59.326,67.629,58.511,67.994,57.655,67.994z"/>
		<g>
			<path style="fill:#FACB1B;" d="M70.429,77.003c-2.286,0-3.429,1.143-3.429,1.143v4.571l3.429,2.286l3.429-2.286v-4.571
				C73.857,78.146,72.714,77.003,70.429,77.003z"/>
		</g>
		<path style="fill:#FBC8C8;" d="M50.105,66.99L45,62.994v4.5c0,0,0,7.5,10,7.5v-7h-2.655C51.489,67.994,50.674,67.629,50.105,66.99
			z"/>
		<path style="fill:#FBC8C8;" d="M70,45c-0.421,0-0.737,0.101-1,0.241c0-2.61-0.076-4.972-0.487-7.016
			c-2.759-0.763-7.626-1.822-13.486-1.869v-0.001c-0.009,0-0.018,0-0.027,0s-0.018,0-0.027,0v0.001
			c-5.861,0.046-10.728,1.106-13.487,1.869c-0.398,1.979-0.481,4.258-0.486,6.771v7.997l4,10l5.105,3.996
			c0.569,0.639,1.384,1.004,2.24,1.004H55h2.655c0.856,0,1.671-0.365,2.24-1.004L65,62.994l3.206-8.014
			C71.042,54.777,72,50.476,72,47.222C72,46.111,71,45,70,45z"/>
		<path style="fill:#FBD7D7;" d="M54.973,36.357c-5.859,0.046-10.725,1.105-13.484,1.868C41.076,40.27,41,42.633,41,45.247
			c-0.263-0.14-0.579-0.241-1-0.241c-1,0-2,1.111-2,2.222c0,3.254,0.958,7.555,3.794,7.758L45,63l5.105,3.996
			C50.674,67.635,51.489,68,52.345,68H55V36.356c-0.009,0-0.018,0-0.027,0V36.357z"/>
		<g>
			<path style="fill:#3E3E3F;" d="M51.994,47.033c0-1.104-0.896-2-2-2c-0.002,0-0.004,0-0.006,0
				c0.001,0.021,0.006,0.041,0.006,0.062c0,1.103-0.892,1.996-1.994,2c0.033,1.075,0.91,1.938,1.994,1.938
				C51.098,49.033,51.994,48.138,51.994,47.033z"/>
		</g>
		<g>
			<path style="fill:#3E3E3F;" d="M61.987,47.033c0-1.104-0.896-2-2-2c-0.002,0-0.004,0-0.006,0
				c0.001,0.021,0.006,0.041,0.006,0.062c0,1.103-0.892,1.996-1.994,2c0.033,1.075,0.91,1.938,1.994,1.938
				C61.092,49.033,61.987,48.138,61.987,47.033z"/>
		</g>
		<g>
			<path style="fill:#F79392;" d="M50,57h10c0,0,0,3-5,3S50,57,50,57z"/>
		</g>
		<g>
			<polygon style="fill:#3E3E3F;" points="42,39 42,49.634 41,49.634 39,45.634 39,39 			"/>
		</g>
		<g>
			<polygon style="fill:#3E3E3F;" points="68,39 68,49.634 69,49.634 71,45.634 71,39 			"/>
		</g>
		<path style="fill:#84462D;" d="M54.973,36.357v-0.001c0.009,0,0.018,0,0.027,0s0.018,0,0.027,0v0.001
			c9.241,0.073,16.031,2.668,15.939,2.641L71,39l-2-11l-14-5l-14,5l-2,11l0.033-0.002C38.941,39.025,45.731,36.43,54.973,36.357z"/>
		<path style="fill:#9C6144;" d="M54.973,36.357v-0.001c0.009,0,0.018,0,0.027,0V23l-14,5l-2,11l0.033-0.002
			C38.941,39.025,45.731,36.43,54.973,36.357z"/>
		<g>
			<path style="fill:#F3B607;" d="M55.027,36.357v-0.001c-0.009,0-0.018,0-0.027,0s-0.018,0-0.027,0v0.001
				C45.665,36.431,38.835,39.066,39.028,39c1.143,2,1.143,7,4.571,5.355c1.415-0.679,5.701-2.992,11.401-3
				c5.7,0.007,9.986,2.32,11.401,3C69.83,46,69.83,41,70.972,39C71.165,39.066,64.335,36.431,55.027,36.357z"/>
		</g>
		<path style="fill:#F3B607;" d="M72,75.003l-2.285-6.902C69.297,66.286,67.681,65,65.818,65H65v2l-10,8.003L45,67v-2h-0.818
			c-1.863,0-3.479,1.286-3.897,3.101L38,75.003L47,73l6,3.75V87h4V76.75L63,73L72,75.003z"/>
		<g>
			<path style="fill:#FACB1B;" d="M55,27c-2,0-3,1-3,1v4l3,2l3-2v-4C58,28,57,27,55,27z"/>
		</g>
	</g>
</g>
</svg>
