<?xml version="1.0" encoding="iso-8859-1"?>
<!-- Generator: Adobe Illustrator 17.1.0, SVG Export Plug-In . SVG Version: 6.00 Build 0)  -->
<!DOCTYPE svg PUBLIC "-//W3C//DTD SVG 1.0//EN" "http://www.w3.org/TR/2001/REC-SVG-20010904/DTD/svg10.dtd">
<svg version="1.0" xmlns="http://www.w3.org/2000/svg" xmlns:xlink="http://www.w3.org/1999/xlink" x="0px" y="0px" width="110px"
	 height="110px" viewBox="0 0 110 110" style="enable-background:new 0 0 110 110;" xml:space="preserve">
<g id="Artboard">
</g>
<g id="Multicolor">
	<circle style="fill:#25B7D3;" cx="55" cy="55" r="55"/>
	<g>
		<g>
			<circle style="fill:#0484AB;" cx="48" cy="49" r="26"/>
			<path style="fill:#21B2D1;" d="M48,23c-14.359,0-26,11.641-26,26c0,6.638,2.491,12.691,6.584,17.286l36.701-36.701
				C60.691,25.491,54.638,23,48,23z"/>
			<path style="fill:#17B198;" d="M42,48.083l-7,3l-3-8h9l6-8v-3l-11.688-5.776c-5.567,3.12-9.866,8.227-11.941,14.362L28,51.083
				l6,5l8,15h3l5-15L42,48.083z"/>
			<path style="fill:#8CE3D4;" d="M42,48.083l-7,3l-3-8h9l6-8v-3l-11.688-5.776c-5.567,3.12-9.866,8.227-11.941,14.362L28,51.083
				l6,5l1.665,3.122l8.729-8.729L42,48.083z"/>
			<path style="fill:#17B198;" d="M74,49c0-9.834-5.461-18.391-13.515-22.809L54,37l5,3l5-4l3,4h3v3l-10-1l-4,6l-2,11l4,5
				l0.803,8.648C67.768,68.546,74,59.504,74,49z"/>
			<path style="fill:#8CE3D4;" d="M54,37l2.419,1.451l8.859-8.859c-1.462-1.302-3.063-2.452-4.792-3.401L54,37z"/>
		</g>
		<path style="fill:#0484AB;" d="M57,75V58h-7.264c-0.749,0-1.444,0.389-1.836,1.026l-4.986,8.048c-0.209,0.34-0.32,0.731-0.32,1.13
			V81.25h14.375h25.875L85,74.781L57,75z"/>
		<path style="fill:#E2E4E5;" d="M49.625,82h-6.828C41.804,82,41,81.196,41,80.203s0.804-1.797,1.797-1.797h6.828V82z"/>
		<rect x="51.656" y="78.406" style="fill:#E2E4E5;" width="32.344" height="3.594"/>
		<g>
			<circle style="fill:#3E3E3F;" cx="48.984" cy="82" r="4.984"/>
			<circle style="fill:#CFD3D4;" cx="48.984" cy="82" r="1.994"/>
		</g>
		<circle style="fill:#3E3E3F;" cx="75.984" cy="82" r="4.984"/>
		<circle style="fill:#CFD3D4;" cx="75.984" cy="82" r="1.994"/>
		<path style="fill:#FBE158;" d="M87,73.563C87,74.356,86.356,75,85.562,75H57V50.438C57,49.644,57.644,49,58.437,49h27.125
			C86.356,49,87,49.644,87,50.438V73.563z"/>
		<rect x="49" y="70" style="fill:#21B2D1;" width="5" height="2"/>
		<polygon style="fill:#40C9E7;" points="54,61 54,67 45,67 49,61 		"/>
		<path style="fill:#059BBF;" d="M56.809,58h-7.073c-0.749,0-1.444,0.389-1.836,1.026l-4.986,8.048
			c-0.209,0.34-0.32,0.731-0.32,1.13v4.011L56.809,58z"/>
		<polygon style="fill:#6FDAF1;" points="49,61 45,67 47.809,67 53.809,61 		"/>
		<path style="fill:#F3B607;" d="M83,55c0,0.552-0.448,1-1,1H62c-0.552,0-1-0.448-1-1s0.448-1,1-1h20C82.552,54,83,54.448,83,55z"/>
		<path style="fill:#F3B607;" d="M83,62c0,0.552-0.448,1-1,1H62c-0.552,0-1-0.448-1-1s0.448-1,1-1h20C82.552,61,83,61.448,83,62z"/>
		<path style="fill:#F3B607;" d="M83,69c0,0.552-0.448,1-1,1H62c-0.552,0-1-0.448-1-1s0.448-1,1-1h20C82.552,68,83,68.448,83,69z"/>
	</g>
</g>
</svg>
