<?xml version="1.0" encoding="iso-8859-1"?>
<!-- Generator: Adobe Illustrator 17.1.0, SVG Export Plug-In . SVG Version: 6.00 Build 0)  -->
<!DOCTYPE svg PUBLIC "-//W3C//DTD SVG 1.0//EN" "http://www.w3.org/TR/2001/REC-SVG-20010904/DTD/svg10.dtd">
<svg version="1.0" xmlns="http://www.w3.org/2000/svg" xmlns:xlink="http://www.w3.org/1999/xlink" x="0px" y="0px" width="110px"
	 height="110px" viewBox="0 0 110 110" style="enable-background:new 0 0 110 110;" xml:space="preserve">
<g id="Artboard">
</g>
<g id="Multicolor">
	<g>
		<circle style="fill:#E04F5F;" cx="55" cy="55" r="55"/>
	</g>
	<g>
		<g>
			<path style="fill:#FBE158;" d="M83,76c-0.615-1.333-1.698-2.395-3.043-2.983L65,69v-6.683l-5.14,5.966
				c-0.553,0.507-1.277,0.789-2.027,0.789H55h-2.833c-0.75,0-1.474-0.281-2.027-0.789L45,62.317V69l-14.957,4.017
				C28.698,73.605,27.615,74.667,27,76l-4,11h32h32L83,76z"/>
		</g>
		<g>
			<path style="fill:#3E3E3F;" d="M25.614,79.812L23,87h32h32l-2.143-5.894c-5.901-3.613-17.504-6.07-30.857-6.07
				C42.312,75.036,31.971,76.92,25.614,79.812z"/>
		</g>
		<g>
			<path style="fill:#FA5655;" d="M63.548,87c2.577-5.413,7.572-16.622,7.588-16.806C69.006,69.075,65.113,68,65.113,68
				c-0.111,0.333-0.261,0.74-0.439,1.197c-1.563,4.023-5.495,12.4-8.29,17.803H63.548z"/>
		</g>
		<g>
			<g>
				<path style="fill:#FFFFFF;" d="M65.309,85.682c-0.431,0.048-0.873-0.029-1.277-0.224l-5.407-2.598
					c-0.5-0.24-0.896-0.638-1.115-1.12c-0.243-0.535-0.244-1.133-0.001-1.638l2.334-4.859c0.463-0.964,1.79-1.363,2.85-0.853
					l5.407,2.598c0.5,0.24,0.896,0.638,1.115,1.12c0.243,0.535,0.244,1.133,0.001,1.638l-2.334,4.859
					C66.595,85.202,66.007,85.604,65.309,85.682z M59.325,80.952c0.023-0.003,0.069,0.059,0.165,0.105l5.408,2.598
					c0.093,0.045,0.227,0.03,0.227,0.03l2.284-4.795c-0.021,0.028-0.064-0.046-0.174-0.1l-5.408-2.598
					c-0.064-0.031-0.133-0.045-0.19-0.039l-2.321,4.804C59.319,80.954,59.322,80.953,59.325,80.952z"/>
			</g>
		</g>
		<path style="fill:#FBC8C8;" d="M70,45.036c-0.348,0-0.694,0-1,0V45c-0.001-0.649-0.009-1.292-0.024-1.927H41.024
			C41.009,43.708,41.001,44.351,41,45v8l4,10l5.105,3.996C50.674,67.634,51.489,68,52.345,68H55h2.655
			c0.856,0,1.671-0.366,2.24-1.004L65,63l3.193-7.982c2.846-0.191,3.807-4.5,3.807-7.759C72,46.147,71,45.036,70,45.036z"/>
		<path style="fill:#FBD7D7;" d="M41.024,43.072C41.009,43.708,41.001,44.351,41,45v0.037c-0.306,0-0.652,0-1,0
			c-1,0-2,1.111-2,2.222c0,3.259,0.961,7.568,3.807,7.759L45,63l5.105,3.996C50.674,67.634,51.489,68,52.345,68H55V43.072H41.024z"
			/>
		<g>
			<path style="fill:#3E3E3F;" d="M51.994,47.072c0-1.104-0.896-2-2-2c-0.002,0-0.004,0-0.006,0
				c0.001,0.021,0.006,0.041,0.006,0.062c0,1.103-0.892,1.996-1.994,2c0.033,1.075,0.91,1.938,1.994,1.938
				C51.098,49.072,51.994,48.177,51.994,47.072z"/>
		</g>
		<g>
			<path style="fill:#3E3E3F;" d="M61.987,47.072c0-1.104-0.896-2-2-2c-0.002,0-0.004,0-0.006,0
				c0.001,0.021,0.006,0.041,0.006,0.062c0,1.103-0.892,1.996-1.994,2c0.033,1.075,0.91,1.938,1.994,1.938
				C61.092,49.072,61.987,48.177,61.987,47.072z"/>
		</g>
		<g>
			<path style="fill:#F79392;" d="M50,57.033h10c0,0,0,3-5,3S50,57.033,50,57.033z"/>
		</g>
		<path style="fill:#3E3E3F;" d="M69.392,34.072c0.895-1,0-5-3.579-4c0.895-4-5.368-4-5.368-2c0,0-0.971-4-5.445-4s-5.444,4-5.444,4
			c0-2-6.264-2-5.369,2c-3.579-1-4.474,3-3.579,4c-2.317,1.295-4.082,7,0.392,9c0.317,0,0.655,0,1,0v14.68
			c0,0.841,0.353,1.644,0.973,2.211l7.167,8.32c0.553,0.507,1.277,0.789,2.027,0.789H55h2.833c0.75,0,1.474-0.281,2.027-0.789
			l7.167-8.32c0.62-0.568,0.973-1.37,0.973-2.211v-14.68c0.345,0,0.683,0,1,0C73.474,41.072,71.709,35.367,69.392,34.072z
			 M65,58.072l-6,7l-2-2h-2h-2l-2,2l-6-7v-15c3.514,0,7.467,0,10,0s6.486,0,10,0V58.072z"/>
		<g>
			<path style="fill:#F3B607;" d="M58,39.072l3.464-6.928c0.133-0.265,0.376-0.458,0.665-0.526c0.289-0.068,0.593-0.005,0.83,0.173
				l2.216,1.662c0.217,0.162,0.358,0.406,0.392,0.674c0.034,0.268-0.042,0.539-0.211,0.751L62,39.072H58z"/>
		</g>
		<g>
			<path style="fill:#F3B607;" d="M64,39.572l2.7-2.362c0.269-0.235,0.642-0.309,0.98-0.194c0.338,0.115,0.589,0.401,0.659,0.751
				l0.335,1.674c0.069,0.344-0.048,0.699-0.307,0.936c-0.26,0.236-0.624,0.319-0.96,0.218L64,39.572z"/>
		</g>
		<path style="fill:#F3B607;" d="M58.248,28.696L55,27.072l-3.248,1.624c-0.435,0.217-0.65,0.716-0.511,1.182L54,39.072h1h1
			l2.758-9.194C58.898,29.412,58.683,28.914,58.248,28.696z"/>
		<g>
			<path style="fill:#F3B607;" d="M52,39.072l-3.464-6.928c-0.133-0.265-0.376-0.458-0.665-0.526
				c-0.289-0.068-0.593-0.005-0.83,0.173l-2.216,1.662c-0.217,0.162-0.358,0.406-0.392,0.674s0.042,0.539,0.211,0.751L48,39.072H52z
				"/>
		</g>
		<g>
			<path style="fill:#F3B607;" d="M46,39.572l-2.7-2.362c-0.269-0.235-0.642-0.309-0.98-0.194c-0.338,0.115-0.589,0.401-0.659,0.751
				l-0.335,1.674c-0.069,0.344,0.048,0.699,0.307,0.936c0.26,0.236,0.624,0.319,0.96,0.218L46,39.572z"/>
		</g>
	</g>
</g>
</svg>
