<?xml version="1.0" encoding="iso-8859-1"?>
<!-- Generator: Adobe Illustrator 17.1.0, SVG Export Plug-In . SVG Version: 6.00 Build 0)  -->
<!DOCTYPE svg PUBLIC "-//W3C//DTD SVG 1.0//EN" "http://www.w3.org/TR/2001/REC-SVG-20010904/DTD/svg10.dtd">
<svg version="1.0" xmlns="http://www.w3.org/2000/svg" xmlns:xlink="http://www.w3.org/1999/xlink" x="0px" y="0px" width="110px"
	 height="110px" viewBox="0 0 110 110" style="enable-background:new 0 0 110 110;" xml:space="preserve">
<g id="Artboard">
</g>
<g id="Multicolor">
	<circle style="fill:#E04F5F;" cx="55" cy="55" r="55"/>
	<g>
		<g>
			<path style="fill:#FBE158;" d="M67,40c1.65,0,3,0.9,3,2s-1.35,2-3,2s-3-0.9-3-2S65.35,40,67,40 M67,38c-2.804,0-5,1.757-5,4
				s2.196,4,5,4s5-1.757,5-4S69.804,38,67,38L67,38z"/>
		</g>
		<g>
			<path style="fill:#FBE158;" d="M43,40c1.65,0,3,0.9,3,2s-1.35,2-3,2s-3-0.9-3-2S41.35,40,43,40 M43,38c-2.804,0-5,1.757-5,4
				s2.196,4,5,4s5-1.757,5-4S45.804,38,43,38L43,38z"/>
		</g>
		<g>
			<path style="fill:#84462D;" d="M87,53c0-4.418-3.582-8-8-8H31c-4.418,0-8,3.582-8,8v26c0,4.418,3.582,8,8,8h48
				c4.418,0,8-3.582,8-8V53z"/>
		</g>
		<g>
			<path style="fill:#9C6144;" d="M31,45c-4.418,0-8,3.582-8,8v26c0,2.305,0.98,4.376,2.54,5.836L65.376,45H31z"/>
		</g>
		<g>
			<polygon style="fill:#FACB1B;" points="39,54 41,42 45,42 47,54 43,57 			"/>
		</g>
		<g>
			<polygon style="fill:#FACB1B;" points="63,54 65,42 69,42 71,54 67,57 			"/>
		</g>
		<g>
			<path style="fill:#FACB1B;" d="M75,79v8h4c4.418,0,8-3.582,8-8v-4h-8C76.791,75,75,76.791,75,79z"/>
		</g>
		<g>
			<path style="fill:#FACB1B;" d="M35,79v8h-4c-4.418,0-8-3.582-8-8v-4h8C33.209,75,35,76.791,35,79z"/>
		</g>
		<g>
			<path style="fill:#3E3E3F;" d="M45,37.007C45,31.503,49.496,27,55,27s10,4.503,10,10.007V40c0,0.552,0.413,0.958,0.965,0.958H68
				c0.552,0,1-0.448,1-1V37c0-7.732-6.268-14-14-14s-14,6.268-14,14v2.958c0,0.552,0.448,1,1,1h2.035C44.587,40.958,45,40.552,45,40
				V37.007z"/>
		</g>
		<g>
			<path style="fill:#FBE158;" d="M31,75h-8v4c0,2.305,0.98,4.376,2.54,5.836l8.458-8.458C33.265,75.54,32.201,75,31,75z"/>
		</g>
	</g>
</g>
</svg>
