<?xml version="1.0" encoding="iso-8859-1"?>
<!-- Generator: Adobe Illustrator 17.1.0, SVG Export Plug-In . SVG Version: 6.00 Build 0)  -->
<!DOCTYPE svg PUBLIC "-//W3C//DTD SVG 1.0//EN" "http://www.w3.org/TR/2001/REC-SVG-20010904/DTD/svg10.dtd">
<svg version="1.0" xmlns="http://www.w3.org/2000/svg" xmlns:xlink="http://www.w3.org/1999/xlink" x="0px" y="0px" width="110px"
	 height="110px" viewBox="0 0 110 110" style="enable-background:new 0 0 110 110;" xml:space="preserve">
<g id="Artboard">
</g>
<g id="Multicolor">
	<circle style="fill:#32BEA6;" cx="55" cy="55" r="55"/>
	<g>
		<polygon style="fill:#3E3E3F;" points="57,47 45,47 48,37 54,37 		"/>
		<polygon style="fill:#FACB1B;" points="51,23 45,33 48,37 51,37 54,37 57,33 		"/>
		<polygon style="fill:#FBE158;" points="48,37 45,33 51,23 51,37 		"/>
		<path style="fill:#3E3E3F;" d="M67.644,40.019c-5.697-3.479-2.729-8.86,0.39-10.307c3.119-1.448,6.978-1.815,8.966-5.07
			C79.23,33.641,77.07,45.775,67.644,40.019z"/>
		<path style="fill:#3E3E3F;" d="M67.644,40.019c-5.697-3.479-2.729-8.86,0.39-10.307c3.119-1.448,6.978-1.815,8.966-5.07
			C79.23,33.641,77.07,45.775,67.644,40.019z"/>
		<path style="fill:#F4D0A1;" d="M37.074,31.357l-5.668-5.733l-2.062,7.794l0,0.001c0.284,1.062,1.385,1.7,2.447,1.416
			c1.063-0.283,1.701-1.385,1.417-2.448c0.283,1.063,1.385,1.701,2.448,1.417S37.357,32.419,37.074,31.357"/>
		<path style="fill:#E2E4E5;" d="M84,63.359c0-3.333-0.435-7.441-3.828-9.652c-2.33-1.518-5.413-1.7-9.172-1.713V49
			c0-1.104-0.896-2-2-2H33c-1.104,0-2,0.896-2,2v34c0,2.209,1.791,4,4,4h32c2.209,0,4-1.791,4-4v-1.837
			C76.51,80.477,84,77.377,84,63.359z M71,75.153V57.992c6.647,0.016,7,0.384,7,5.367C78,72.275,74.773,74.564,71,75.153z"/>
		<circle style="fill:#FACB1B;" cx="51" cy="67" r="12"/>
		<path style="fill:#FFFFFF;" d="M39,67c0-6.627,5.373-12,12-12v-8H33c-1.104,0-2,0.896-2,2v34c0,2.209,1.791,4,4,4h16v-8
			C44.373,79,39,73.627,39,67z"/>
		<path style="fill:#FBE158;" d="M39,67c0,6.627,5.373,12,12,12v-4c-5.134,0-6.865-4.459-6.937-4.649
			c-0.194-0.517,0.068-1.093,0.585-1.288c0.516-0.191,1.091,0.067,1.286,0.582C45.993,69.794,47.282,73,51,73V55
			C44.373,55,39,60.373,39,67z"/>
		<g>
			<circle style="fill:#3E3E3F;" cx="55" cy="63" r="1"/>
		</g>
		<circle style="fill:#3E3E3F;" cx="47" cy="63" r="1"/>
		<g>
			<path style="fill:#3E3E3F;" d="M51,75c-5.134,0-6.865-4.459-6.936-4.649c-0.194-0.517,0.068-1.093,0.585-1.288
				c0.516-0.191,1.091,0.067,1.286,0.582C45.993,69.794,47.282,73,51,73c3.725,0,5.012-3.219,5.065-3.356
				c0.198-0.513,0.775-0.772,1.29-0.576c0.514,0.196,0.775,0.768,0.581,1.283C57.865,70.541,56.134,75,51,75z"/>
		</g>
		<path style="fill:#3E3E3F;" d="M33.521,27.75c-0.361,0.355-0.815,0.631-1.337,0.77c-0.522,0.139-1.053,0.126-1.543-0.003
			l0.77-2.896L33.521,27.75z"/>
		<path style="fill:#F3B607;" d="M70.692,40.708l-5.121-3.127c-0.471-0.288-1.086-0.139-1.375,0.332l-1.042,1.707L59.367,47h8.247
			l2.368-3.21l1.042-1.707C71.312,41.612,71.164,40.996,70.692,40.708z"/>
		<polygon style="fill:#FBEC9A;" points="63.154,39.621 59.367,47 60.719,47 66.224,41.495 		"/>
		<polygon style="fill:#84462D;" points="67.614,47 69.982,43.79 63.154,39.621 59.367,47 		"/>
		<path style="fill:#0484AB;" d="M41.245,47l-4.041-15.154c-0.011-0.04-0.063-0.031-0.063,0.01c0.006,0.889-0.588,1.709-1.484,1.948
			c-0.882,0.235-1.791-0.164-2.236-0.914c-0.044-0.074-0.144-0.047-0.145,0.039c-0.013,0.872-0.603,1.671-1.484,1.906
			c-0.896,0.239-1.82-0.177-2.257-0.951c-0.021-0.036-0.071-0.018-0.06,0.022L32.966,47H41.245z"/>
		<path style="fill:#21B2D1;" d="M37.105,47l-3.761-14.104c-0.011-0.043-0.068-0.033-0.068,0.011
			c-0.003,0.881-0.595,1.691-1.485,1.928c-0.889,0.237-1.806-0.171-2.248-0.933c-0.022-0.039-0.076-0.019-0.064,0.024L32.966,47
			H37.105z"/>
	</g>
</g>
</svg>
