<?xml version="1.0" encoding="iso-8859-1"?>
<!-- Generator: Adobe Illustrator 17.1.0, SVG Export Plug-In . SVG Version: 6.00 Build 0)  -->
<!DOCTYPE svg PUBLIC "-//W3C//DTD SVG 1.0//EN" "http://www.w3.org/TR/2001/REC-SVG-20010904/DTD/svg10.dtd">
<svg version="1.0" xmlns="http://www.w3.org/2000/svg" xmlns:xlink="http://www.w3.org/1999/xlink" x="0px" y="0px" width="110px"
	 height="110px" viewBox="0 0 110 110" style="enable-background:new 0 0 110 110;" xml:space="preserve">
<g id="Artboard">
</g>
<g id="Multicolor">
	<circle style="fill:#FABC3D;" cx="55" cy="55" r="55"/>
	<g>
		<polygon style="fill:#9C6144;" points="77,47 33,47 25,83 85,83 		"/>
		<path style="fill:#3E3E3F;" d="M74.071,25.929c0.739,0.739,1.337,1.566,1.796,2.446l0.325-0.325c0.781-0.781,0.781-2.047,0-2.828
			l-1.414-1.414c-0.781-0.781-2.047-0.781-2.829,0l-0.325,0.325C72.505,24.592,73.332,25.19,74.071,25.929z"/>
		<path style="fill:#DF2C2C;" d="M74.071,25.929c-3.905-3.905-10.237-3.905-14.142,0l14.142,14.142
			C77.976,36.166,77.976,29.834,74.071,25.929z"/>
		<path style="fill:#F0F1F1;" d="M59.929,25.929l-1.414,1.414c-0.781,0.781-0.781,2.047,0,2.828l11.314,11.314
			c0.781,0.781,2.047,0.781,2.828,0l1.414-1.414L59.929,25.929z"/>
		<path style="fill:#FA5655;" d="M74.071,25.929c-3.906-3.905-10.237-3.905-14.143,0l7.075,7.075l7.071-7.071
			C74.073,25.932,74.072,25.93,74.071,25.929z"/>
		<path style="fill:#FFFFFF;" d="M59.929,25.929l-1.414,1.414c-0.781,0.781-0.781,2.047,0,2.828l5.661,5.661l2.829-2.829
			L59.929,25.929z"/>
		<path style="fill:#FFFFFF;" d="M85.102,41.983l-8.111-8.787c-0.024,1.231-0.269,2.459-0.745,3.615l5.912,6.405l-4.3,7.645
			l0.975,4.386l6.475-11.51C85.626,43.168,85.543,42.46,85.102,41.983z"/>
		<circle style="fill:#DF2C2C;" cx="83" cy="43" r="3"/>
		<path style="fill:#3E3E3F;" d="M73.043,59.917l-1.388,0.502L52.22,67.447l-2.274,2.392l-2.274,2.392l3.278,0.384L54.228,73
			l19.435-7.028l1.388-0.502c1.533-0.554,2.327-2.247,1.772-3.78C76.269,60.156,74.576,59.362,73.043,59.917z"/>
		<polygon style="fill:#FFFFFF;" points="66,59 42,59 40,79 68,79 		"/>
		<path style="fill:#FFFFFF;" d="M45.08,27c0,0-2.24,1.12-2.24,3.36s2.24,2.24,0,5.6c0,0,2.24-1.12,2.24-3.36
			C45.08,30.36,42.84,30.36,45.08,27z"/>
		<path style="fill:#FFFFFF;" d="M49.56,27c0,0-2.24,1.12-2.24,3.36s2.24,2.24,0,5.6c0,0,2.24-1.12,2.24-3.36
			C49.56,30.36,47.32,30.36,49.56,27z"/>
		<rect x="25" y="83" style="fill:#84462D;" width="60" height="4"/>
		
			<rect x="52.608" y="63.757" transform="matrix(-0.9404 0.3401 -0.3401 -0.9404 144.8173 108.0379)" style="fill:#059BBF;" width="20.667" height="5.905"/>
		<polygon style="fill:#F8E1C2;" points="52.22,67.447 54.228,73 47.671,72.232 		"/>
		<path style="fill:#F7B4B4;" d="M76.823,61.689c0.555,1.533-0.239,3.226-1.772,3.78l-1.388,0.502l-2.008-5.553l1.388-0.502
			C74.576,59.362,76.269,60.156,76.823,61.689z"/>
		<polygon style="fill:#3E3E3F;" points="49.945,69.839 47.671,72.232 50.949,72.616 		"/>
		<g>
			<path style="fill:#E2E4E5;" d="M56,44.328c0-1.081-0.141-2.415-1.242-3.132c-0.756-0.493-1.757-0.552-2.977-0.556v-0.971
				c0-0.358-0.291-0.649-0.649-0.649H39.449c-0.358,0-0.649,0.291-0.649,0.649v11.034c0,0.717,0.581,1.298,1.298,1.298h10.385
				c0.717,0,1.298-0.581,1.298-1.298v-0.596C53.569,49.883,56,48.877,56,44.328z M51.781,48.155v-5.569
				c2.157,0.005,2.272,0.124,2.272,1.742C54.053,47.221,53.006,47.964,51.781,48.155z"/>
			<path style="fill:#FFFFFF;" d="M45.291,39.019h-5.842c-0.358,0-0.649,0.291-0.649,0.649v11.034c0,0.717,0.581,1.298,1.298,1.298
				h5.192V39.019z"/>
		</g>
	</g>
</g>
</svg>
