<?xml version="1.0" encoding="iso-8859-1"?>
<!-- Generator: Adobe Illustrator 17.1.0, SVG Export Plug-In . SVG Version: 6.00 Build 0)  -->
<!DOCTYPE svg PUBLIC "-//W3C//DTD SVG 1.0//EN" "http://www.w3.org/TR/2001/REC-SVG-20010904/DTD/svg10.dtd">
<svg version="1.0" xmlns="http://www.w3.org/2000/svg" xmlns:xlink="http://www.w3.org/1999/xlink" x="0px" y="0px" width="110px"
	 height="110px" viewBox="0 0 110 110" style="enable-background:new 0 0 110 110;" xml:space="preserve">
<g id="Artboard">
</g>
<g id="Multicolor">
	<circle style="fill:#FABC3D;" cx="55" cy="55" r="55"/>
	<g>
		<polygon style="fill:#9C6144;" points="79,33 31,33 23,61 87,61 		"/>
		<polygon style="fill:#AF7653;" points="31,33 23,61 34.376,61 62.376,33 		"/>
		<ellipse style="fill:#FFFFFF;" cx="55" cy="81.5" rx="10" ry="5.5"/>
		<path style="fill:#E2E4E5;" d="M59,65h-8v16c2.667,1.333,5.333,1.333,8,0V65z"/>
		<rect x="23" y="61" style="fill:#84462D;" width="64" height="4"/>
		<ellipse style="fill:#E2E4E5;" cx="39" cy="40" rx="4" ry="3"/>
		<polygon style="fill:#E2E4E5;" points="64.63,41.204 64,37 46,37 43,57 67,57 71,42 		"/>
		<polygon style="fill:#FFFFFF;" points="64,37 46,37 43,57 67,57 		"/>
		<path style="fill:#3E3E3F;" d="M56.03,25H51v2.271c-4.126,0.575-7.357,2.084-9.618,4.526c-3.736,4.034-3.379,9.126-3.379,9.126
			h1.994c-0.003-0.043-0.297-4.368,2.853-7.768c1.89-2.041,4.625-3.332,8.15-3.868V31h5.03c1.64,0,2.97-1.33,2.97-2.97
			C59,26.232,57.595,25,56.03,25z"/>
	</g>
</g>
</svg>
