<?xml version="1.0" encoding="iso-8859-1"?>
<!-- Generator: Adobe Illustrator 17.1.0, SVG Export Plug-In . SVG Version: 6.00 Build 0)  -->
<!DOCTYPE svg PUBLIC "-//W3C//DTD SVG 1.0//EN" "http://www.w3.org/TR/2001/REC-SVG-20010904/DTD/svg10.dtd">
<svg version="1.0" xmlns="http://www.w3.org/2000/svg" xmlns:xlink="http://www.w3.org/1999/xlink" x="0px" y="0px" width="110px"
	 height="110px" viewBox="0 0 110 110" style="enable-background:new 0 0 110 110;" xml:space="preserve">
<g id="Artboard">
</g>
<g id="Multicolor">
	<circle style="fill:#32BEA6;" cx="55" cy="55" r="55"/>
	<g>
		<g>
			<path style="fill:#F0F1F1;" d="M79,27c0-2.209-1.791-4-4-4H35c-2.209,0-4,1.791-4,4v56c0,2.209,1.791,4,4,4h40
				c2.209,0,4-1.791,4-4V27z"/>
		</g>
		<g>
			<path style="fill:#FFFFFF;" d="M78,24.346C77.268,23.526,76.214,23,75.027,23h-40c-2.209,0-4,1.791-4,4v44.319L78,24.346z"/>
		</g>
		<g>
			<path style="fill:#DF2C2C;" d="M55,35c4.669,8.325,9.907,15.228,16,20c-6.093,4.772-11.331,11.676-16,20
				c-4.669-8.325-9.907-15.228-16-20C44.333,51,49.667,44.333,55,35z"/>
		</g>
		<g>
			<path style="fill:#FA5655;" d="M55,35c-5.333,9.333-10.667,16-16,20c1.512,1.184,2.971,2.501,4.382,3.937l16.346-16.345
				C58.088,40.219,56.511,37.693,55,35z"/>
		</g>
	</g>
</g>
</svg>
