<?xml version="1.0" encoding="iso-8859-1"?>
<!-- Generator: Adobe Illustrator 17.1.0, SVG Export Plug-In . SVG Version: 6.00 Build 0)  -->
<!DOCTYPE svg PUBLIC "-//W3C//DTD SVG 1.0//EN" "http://www.w3.org/TR/2001/REC-SVG-20010904/DTD/svg10.dtd">
<svg version="1.0" xmlns="http://www.w3.org/2000/svg" xmlns:xlink="http://www.w3.org/1999/xlink" x="0px" y="0px" width="110px"
	 height="110px" viewBox="0 0 110 110" style="enable-background:new 0 0 110 110;" xml:space="preserve">
<g id="Artboard">
</g>
<g id="Multicolor">
	<circle style="fill:#E04F5F;" cx="55" cy="55" r="55"/>
	<g>
		<g>
			<polygon style="fill:#FFFFFF;" points="63,23 39,31 39,63 63,71 87,63 87,31 			"/>
		</g>
		<g>
			<polygon style="fill:#E2E4E5;" points="39,31 63,39 63,71 39,63 			"/>
		</g>
		<g>
			<polygon style="fill:#CFD3D4;" points="87,31 63,39 63,71 87,63 			"/>
		</g>
		<g>
			<ellipse style="fill:#3E3E3F;" cx="82" cy="39.75" rx="3" ry="3.5"/>
		</g>
		<g>
			<ellipse style="fill:#3E3E3F;" cx="70" cy="44.5" rx="3" ry="3.5"/>
		</g>
		<g>
			<ellipse style="fill:#3E3E3F;" cx="70" cy="53.5" rx="3" ry="3.5"/>
		</g>
		<g>
			<ellipse style="fill:#3E3E3F;" cx="82" cy="58.125" rx="3" ry="3.5"/>
		</g>
		<g>
			<ellipse style="fill:#3E3E3F;" cx="70" cy="62.875" rx="3" ry="3.5"/>
		</g>
		<g>
			<ellipse style="fill:#3E3E3F;" cx="82" cy="48.5" rx="3" ry="3.5"/>
		</g>
		<g>
			<ellipse style="fill:#9E9FA0;" cx="62" cy="35" rx="3" ry="2"/>
		</g>
		<g>
			<ellipse style="fill:#9E9FA0;" cx="63" cy="27" rx="3" ry="2"/>
		</g>
		<g>
			<polygon style="fill:#FFFFFF;" points="47,39 23,47 23,79 47,87 71,79 71,47 			"/>
		</g>
		<g>
			<polygon style="fill:#E2E4E5;" points="23,47 47,55 47,87 23,79 			"/>
		</g>
		<g>
			<polygon style="fill:#CFD3D4;" points="71,47 47,55 47,87 71,79 			"/>
		</g>
		<g>
			<ellipse style="fill:#5B5C5F;" cx="40" cy="75" rx="3" ry="4"/>
		</g>
		<g>
			<ellipse style="fill:#5B5C5F;" cx="30" cy="59" rx="3" ry="4"/>
		</g>
		<g>
			<ellipse style="fill:#3E3E3F;" cx="66" cy="55.75" rx="3" ry="3.5"/>
		</g>
		<g>
			<ellipse style="fill:#3E3E3F;" cx="53" cy="60.5" rx="3" ry="3.5"/>
		</g>
		<g>
			<ellipse style="fill:#3E3E3F;" cx="66" cy="74.125" rx="3" ry="3.5"/>
		</g>
		<g>
			<ellipse style="fill:#3E3E3F;" cx="53" cy="78.875" rx="3" ry="3.5"/>
		</g>
		<g>
			<ellipse style="fill:#3E3E3F;" cx="59.896" cy="67.583" rx="3" ry="3.5"/>
		</g>
		<g>
			<ellipse style="fill:#9E9FA0;" cx="47" cy="50" rx="3" ry="2"/>
		</g>
		<g>
			<ellipse style="fill:#9E9FA0;" cx="48" cy="43" rx="3" ry="2"/>
		</g>
		<g>
			<ellipse style="fill:#9E9FA0;" cx="36" cy="47" rx="3" ry="2"/>
		</g>
		<g>
			<ellipse style="fill:#9E9FA0;" cx="60" cy="47" rx="3" ry="2"/>
		</g>
	</g>
</g>
</svg>
