<?xml version="1.0" encoding="iso-8859-1"?>
<!-- Generator: Adobe Illustrator 17.1.0, SVG Export Plug-In . SVG Version: 6.00 Build 0)  -->
<!DOCTYPE svg PUBLIC "-//W3C//DTD SVG 1.0//EN" "http://www.w3.org/TR/2001/REC-SVG-20010904/DTD/svg10.dtd">
<svg version="1.0" xmlns="http://www.w3.org/2000/svg" xmlns:xlink="http://www.w3.org/1999/xlink" x="0px" y="0px" width="110px"
	 height="110px" viewBox="0 0 110 110" style="enable-background:new 0 0 110 110;" xml:space="preserve">
<g id="Artboard">
</g>
<g id="Multicolor">
	<circle style="fill:#E04F5F;" cx="55" cy="55" r="55"/>
	<g>
		<g>
			<path style="fill:#FACB1B;" d="M83.801,70.214C84.538,69.343,85,68.23,85,67c0-1.643-0.804-3.089-2.027-4
				C84.196,62.089,85,60.643,85,59s-0.804-3.089-2.027-4C84.196,54.089,85,52.643,85,51s-0.804-3.089-2.027-4
				C84.196,46.089,85,44.643,85,43c0-1.23-0.462-2.343-1.199-3.214C85.647,39.225,87,37.53,87,35.5c0-2.485-2.015-4.5-4.5-4.5
				c-2.007,0-3.687,1.323-4.267,3.137c-0.873-0.753-2-1.196-3.233-1.137c-1.651,0.08-3.087,0.883-3.997,2.031
				C70.092,33.805,68.645,33,67,33c-1.644,0-3.088,0.803-4,2.027C62.088,33.803,60.644,33,59,33s-3.088,0.803-4,2.027
				C54.088,33.803,52.644,33,51,33s-3.088,0.803-4,2.027C46.088,33.803,44.644,33,43,33s-3.088,0.803-4,2.027
				C38.088,33.803,36.644,33,35,33c-1.23,0-2.343,0.462-3.214,1.199C31.226,32.352,29.53,31,27.5,31c-2.485,0-4.5,2.015-4.5,4.5
				c0,2.03,1.353,3.725,3.199,4.286C25.462,40.657,25,41.769,25,43c0,1.643,0.804,3.089,2.027,4C25.804,47.911,25,49.357,25,51
				s0.804,3.089,2.027,4C25.804,55.911,25,57.357,25,59s0.804,3.089,2.027,4C25.804,63.911,25,65.357,25,67
				c0,1.23,0.462,2.343,1.199,3.214C24.353,70.775,23,72.47,23,74.5c0,2.485,2.015,4.5,4.5,4.5c2.03,0,3.726-1.353,4.286-3.199
				C32.657,76.538,33.77,77,35,77c1.644,0,3.088-0.803,4-2.027C39.912,76.196,41.356,77,43,77s3.088-0.803,4-2.027
				C47.912,76.196,49.356,77,51,77s3.088-0.803,4-2.027C55.912,76.196,57.356,77,59,77s3.088-0.803,4-2.027
				C63.912,76.196,65.356,77,67,77s3.089-0.803,4-2.027C71.912,76.196,73.356,77,75,77c1.23,0,2.343-0.462,3.214-1.199
				C78.774,77.647,80.47,79,82.5,79c2.485,0,4.5-2.015,4.5-4.5C87,72.47,85.647,70.775,83.801,70.214z"/>
		</g>
		<g>
			<path style="fill:#FBE158;" d="M67,33c-1.644,0-3.088,0.803-4,2.027C62.088,33.803,60.644,33,59,33s-3.088,0.803-4,2.027
				C54.088,33.803,52.644,33,51,33s-3.088,0.803-4,2.027C46.088,33.803,44.644,33,43,33s-3.088,0.803-4,2.027
				C38.088,33.803,36.644,33,35,33c-1.23,0-2.343,0.462-3.214,1.199C31.226,32.352,29.53,31,27.5,31c-2.485,0-4.5,2.015-4.5,4.5
				c0,2.03,1.353,3.725,3.199,4.286C25.462,40.657,25,41.769,25,43c0,1.643,0.804,3.089,2.027,4C25.804,47.911,25,49.357,25,51
				s0.804,3.089,2.027,4C25.804,55.911,25,57.357,25,59s0.804,3.089,2.027,4C25.804,63.911,25,65.357,25,67
				c0,1.23,0.462,2.343,1.199,3.214C24.353,70.775,23,72.47,23,74.5c0,1.083,0.398,2.064,1.036,2.84l44.186-44.186
				C67.831,33.055,67.422,33,67,33z"/>
		</g>
		<g>
			<rect x="31" y="39" style="fill:#FFFFFF;" width="48" height="32"/>
		</g>
		<g>
			<g>
				<path style="fill:#FA5655;" d="M53.656,48.87h-1.088h-1.339v-4.164c0-0.366-0.289-0.656-0.655-0.656s-0.656,0.29-0.656,0.656
					v4.7c0,0.366,0.29,0.656,0.656,0.656h0.802h2.28c0.332,0,0.596-0.264,0.596-0.596S53.988,48.87,53.656,48.87z"/>
			</g>
			<g>
				<path style="fill:#FA5655;" d="M67.388,44.068h-0.145c-0.264,0-0.452,0.111-0.587,0.332l-1.592,2.588l-1.583-2.58
					c-0.119-0.196-0.315-0.34-0.596-0.34h-0.145c-0.366,0-0.655,0.29-0.655,0.656v4.751c0,0.357,0.281,0.639,0.639,0.639
					c0.357,0,0.647-0.281,0.647-0.639v-2.963l1.132,1.745c0.136,0.205,0.307,0.332,0.545,0.332s0.409-0.127,0.545-0.332l1.149-1.771
					v2.972c0,0.357,0.29,0.656,0.647,0.656c0.366,0,0.655-0.29,0.655-0.656v-4.734C68.043,44.357,67.753,44.068,67.388,44.068z"/>
			</g>
			<g>
				<path style="fill:#FA5655;" d="M74.896,49.219l-2.078-4.691c-0.145-0.324-0.4-0.52-0.758-0.52h-0.077
					c-0.357,0-0.621,0.196-0.766,0.52l-2.078,4.691c-0.042,0.093-0.077,0.187-0.077,0.281c0,0.341,0.264,0.613,0.605,0.613
					c0.272,0,0.493-0.153,0.604-0.409l0.417-0.979h2.622l0.4,0.937c0.119,0.272,0.324,0.452,0.63,0.452
					c0.35,0,0.622-0.281,0.622-0.63C74.964,49.398,74.938,49.312,74.896,49.219z M71.175,47.567L72,45.601l0.826,1.967H71.175z"/>
			</g>
			<g>
				<path style="fill:#FA5655;" d="M37.04,44.102h-1.668c-0.366,0-0.656,0.29-0.656,0.655v4.649c0,0.366,0.29,0.656,0.656,0.656
					h1.668c1.874,0,3.167-1.303,3.167-2.98v-0.017C40.207,45.388,38.913,44.102,37.04,44.102z M38.836,47.099
					c0,1.056-0.724,1.779-1.796,1.779h-1.013v-3.593h1.013c1.073,0,1.796,0.741,1.796,1.796V47.099z"/>
			</g>
			<g>
				<path style="fill:#FA5655;" d="M42.087,44.051c-0.366,0-0.655,0.29-0.655,0.656v4.751c0,0.366,0.289,0.656,0.655,0.656
					s0.656-0.29,0.656-0.656v-4.751C42.743,44.34,42.453,44.051,42.087,44.051z"/>
			</g>
			<g>
				<path style="fill:#FA5655;" d="M46.667,44.102h-1.78c-0.366,0-0.655,0.29-0.655,0.655v4.7c0,0.366,0.289,0.656,0.655,0.656
					s0.656-0.29,0.656-0.656v-1.184h0.997c1.336,0,2.409-0.715,2.409-2.094v-0.017C48.949,44.945,48.089,44.102,46.667,44.102z
					 M47.621,46.205c0,0.511-0.383,0.902-1.039,0.902h-1.039v-1.822h1.013c0.656,0,1.064,0.315,1.064,0.902V46.205z"/>
			</g>
			<g>
				<path style="fill:#FA5655;" d="M57.759,44c-0.123,0-0.237,0.021-0.355,0.033c-1.561,0.159-2.679,1.332-2.797,2.797
					c-0.007,0.085-0.025,0.166-0.025,0.252v0.017c0,1.694,1.32,3.065,3.159,3.065s3.176-1.388,3.176-3.082v-0.017
					C60.918,45.371,59.599,44,57.759,44z M59.547,47.099c0,1.021-0.732,1.856-1.788,1.856c-1.056,0-1.805-0.852-1.805-1.873v-0.017
					c0-1.022,0.732-1.856,1.788-1.856s1.805,0.851,1.805,1.873V47.099z"/>
			</g>
		</g>
		<g>
			<path style="fill:#3E3E3F;" d="M69.591,69.255C69.174,70.278,68.173,71,67,71s-2.174-0.722-2.591-1.745
				c-0.388,0.163-0.804,0.234-1.218,0.215L61,87l6-6l6,6l-2.191-17.53C70.395,69.489,69.979,69.418,69.591,69.255z"/>
		</g>
		<g>
			<path style="fill:#5B5C5F;" d="M69.591,69.255C69.174,70.278,68.173,71,67,71s-2.174-0.722-2.591-1.745
				c-0.388,0.163-0.804,0.234-1.218,0.215l-1.337,10.696l9.148-9.148l-0.193-1.548C70.395,69.489,69.979,69.418,69.591,69.255z"/>
		</g>
		<g>
			<path style="fill:#DF2C2C;" d="M75,63c0-1.173-0.722-2.174-1.745-2.591c0.429-1.018,0.231-2.237-0.598-3.066
				c-0.829-0.829-2.048-1.026-3.066-0.598C69.174,55.722,68.173,55,67,55s-2.174,0.722-2.591,1.745
				c-1.018-0.428-2.237-0.231-3.066,0.598c-0.829,0.829-1.026,2.048-0.598,3.066C59.722,60.826,59,61.827,59,63
				s0.722,2.174,1.745,2.591c-0.429,1.018-0.231,2.237,0.598,3.066c0.829,0.829,2.048,1.026,3.066,0.598
				C64.826,70.278,65.827,71,67,71s2.174-0.722,2.591-1.745c1.018,0.428,2.237,0.231,3.066-0.598
				c0.829-0.829,1.026-2.048,0.598-3.066C74.278,65.174,75,64.173,75,63z"/>
		</g>
		<g>
			<path style="fill:#FA5655;" d="M72.657,57.343c-0.829-0.829-2.048-1.026-3.066-0.598C69.174,55.722,68.173,55,67,55
				s-2.174,0.722-2.591,1.745c-1.018-0.428-2.237-0.231-3.066,0.598c-0.829,0.829-1.026,2.048-0.598,3.066
				C59.722,60.826,59,61.827,59,63c0,1.173,0.722,2.174,1.745,2.591c-0.428,1.018-0.231,2.237,0.598,3.066
				c0.004,0.004,0.008,0.006,0.011,0.01l11.312-11.312C72.663,57.351,72.661,57.347,72.657,57.343z"/>
		</g>
		<g>
			<circle style="fill:#FA5655;" cx="67" cy="63" r="4"/>
		</g>
		<g>
			<path style="fill:#F79392;" d="M67,59c-2.209,0-4,1.791-4,4c0,1.11,0.453,2.113,1.183,2.838l5.655-5.655
				C69.113,59.453,68.11,59,67,59z"/>
		</g>
		<g>
			<rect x="35" y="54" style="fill:#CFD3D4;" width="18" height="1"/>
		</g>
		<g>
			<rect x="35" y="58" style="fill:#CFD3D4;" width="18" height="1"/>
		</g>
		<g>
			<rect x="35" y="62" style="fill:#CFD3D4;" width="18" height="1"/>
		</g>
		<g>
			<rect x="35" y="66" style="fill:#CFD3D4;" width="9" height="1"/>
		</g>
		<g>
			<g>
				<path style="fill:#5B5C5F;" d="M51.5,26.5c0-0.376,0.075-0.732,0.185-1.071l-16.437,7.586c1.007,0.05,1.928,0.399,2.689,0.962
					l13.765-6.353C51.58,27.269,51.5,26.895,51.5,26.5z"/>
			</g>
			<g>
				<path style="fill:#5B5C5F;" d="M58.315,25.429c0.11,0.339,0.185,0.695,0.185,1.071c0,0.396-0.08,0.77-0.201,1.124l13.808,6.373
					c0.755-0.532,1.666-0.883,2.664-0.974L58.315,25.429z"/>
			</g>
		</g>
		<g>
			<circle style="fill:#CFD3D4;" cx="55" cy="26.5" r="3.5"/>
		</g>
		<g>
			<path style="fill:#FFFFFF;" d="M55,23c-1.933,0-3.5,1.567-3.5,3.5c0,0.983,0.408,1.868,1.061,2.504l4.943-4.943
				C56.868,23.408,55.983,23,55,23z"/>
		</g>
	</g>
</g>
</svg>
