<?xml version="1.0" encoding="iso-8859-1"?>
<!-- Generator: Adobe Illustrator 17.1.0, SVG Export Plug-In . SVG Version: 6.00 Build 0)  -->
<!DOCTYPE svg PUBLIC "-//W3C//DTD SVG 1.0//EN" "http://www.w3.org/TR/2001/REC-SVG-20010904/DTD/svg10.dtd">
<svg version="1.0" xmlns="http://www.w3.org/2000/svg" xmlns:xlink="http://www.w3.org/1999/xlink" x="0px" y="0px" width="110px"
	 height="110px" viewBox="0 0 110 110" style="enable-background:new 0 0 110 110;" xml:space="preserve">
<g id="Artboard">
</g>
<g id="Multicolor">
	<circle style="fill:#25B7D3;" cx="55" cy="55" r="55"/>
	<g>
		<path style="fill:#84462D;" d="M57.292,27c0-2.209-1.791-4-4-4c-2.209,0-4,1.791-4,4v60h8V27z"/>
		<path style="fill:#9C6144;" d="M53.236,23v64h-4V27C49.236,24.791,51.027,23,53.236,23z"/>
		<path style="fill:#84462D;" d="M69.447,48.894C69.308,48.964,69.155,49,69,49H30.236c-0.552,0-1-0.448-1-1V30c0-0.552,0.448-1,1-1
			H69c0.155,0,0.308,0.036,0.447,0.106l14,9C83.786,38.275,84,38.621,84,39s-0.214,0.725-0.553,0.894L69.447,48.894z"/>
		<path style="fill:#84462D;" d="M78.264,74c0,0.552-0.448,1-1,1H38.5c-0.155,0-0.308-0.036-0.447-0.106l-14-9
			C23.714,65.725,23.5,65.379,23.5,65c0-0.379,0.214-0.725,0.553-0.894l14-9C38.192,55.036,38.345,55,38.5,55h38.764
			c0.552,0,1,0.448,1,1V74z"/>
		<g>
			<path style="fill:#FFFFFF;" d="M38.216,42.232c-0.18-0.144-0.3-0.336-0.3-0.576c0-0.384,0.324-0.708,0.708-0.708
				c0.18,0,0.312,0.048,0.432,0.144c0.576,0.468,1.163,0.708,1.823,0.708c0.948,0,1.631-0.564,1.631-1.451v-0.024
				c0-0.864-0.719-1.391-1.739-1.391c-0.815,0-1.211,0.288-1.439,0.288s-0.408-0.084-0.696-0.288
				c-0.216-0.156-0.3-0.372-0.288-0.648l0.18-3.022c0.024-0.384,0.312-0.66,0.672-0.66h3.802c0.36,0,0.66,0.3,0.66,0.66
				c0,0.36-0.3,0.648-0.66,0.648h-3.154l-0.132,1.967c0.396-0.144,0.768-0.24,1.331-0.24c1.643,0,2.926,0.864,2.926,2.639v0.024
				c0,1.703-1.271,2.843-3.07,2.843C39.763,43.144,38.899,42.76,38.216,42.232z"/>
			<path style="fill:#FFFFFF;" d="M49.363,35.276c0-0.408,0.324-0.732,0.744-0.732c0.408,0,0.732,0.324,0.732,0.732v3.55
				l3.982-4.006c0.168-0.18,0.348-0.276,0.612-0.276c0.408,0,0.684,0.324,0.684,0.684c0,0.228-0.096,0.396-0.264,0.552l-2.615,2.519
				l2.83,3.514c0.12,0.156,0.204,0.3,0.204,0.528c0,0.408-0.324,0.72-0.743,0.72c-0.288,0-0.468-0.144-0.624-0.348l-2.698-3.442
				l-1.367,1.319v1.739c0,0.408-0.324,0.732-0.732,0.732c-0.42,0-0.744-0.324-0.744-0.732V35.276z"/>
			<path style="fill:#FFFFFF;" d="M57.751,37.327c0-0.408,0.312-0.732,0.72-0.732s0.732,0.324,0.732,0.732v0.3
				c0.408-0.564,0.959-1.091,1.931-1.091c0.911,0,1.559,0.444,1.895,1.115c0.504-0.672,1.175-1.115,2.135-1.115
				c1.379,0,2.219,0.875,2.219,2.423v3.382c0,0.408-0.312,0.72-0.72,0.72c-0.408,0-0.731-0.312-0.731-0.72v-2.938
				c0-1.007-0.468-1.547-1.283-1.547c-0.792,0-1.355,0.552-1.355,1.571v2.914c0,0.408-0.324,0.72-0.719,0.72
				c-0.408,0-0.732-0.312-0.732-0.72v-2.95c0-0.983-0.48-1.535-1.283-1.535c-0.804,0-1.355,0.6-1.355,1.571v2.914
				c0,0.408-0.324,0.72-0.732,0.72c-0.396,0-0.72-0.312-0.72-0.72V37.327z"/>
		</g>
		<g>
			<path style="fill:#FFFFFF;" d="M39.555,68.448c-0.204-0.132-0.336-0.336-0.336-0.612c0-0.384,0.312-0.672,0.696-0.672
				c0.156,0,0.288,0.048,0.408,0.12c0.492,0.348,0.959,0.516,1.535,0.516c1.235,0,1.979-1.092,2.027-2.639
				c-0.42,0.504-1.067,0.887-1.967,0.887c-1.787,0-2.974-1.043-2.974-2.662v-0.024c0-1.643,1.271-2.902,3.13-2.902
				c1.055,0,1.739,0.3,2.339,0.887c0.612,0.624,1.008,1.547,1.008,3.202v0.024c0,2.698-1.331,4.57-3.598,4.57
				C40.875,69.144,40.179,68.868,39.555,68.448z M43.837,63.303v-0.024c0-0.875-0.684-1.547-1.751-1.547
				c-1.043,0-1.667,0.696-1.667,1.559v0.024c0,0.875,0.672,1.499,1.715,1.499C43.201,64.814,43.837,64.118,43.837,63.303z"/>
			<path style="fill:#FFFFFF;" d="M50.787,61.276c0-0.408,0.324-0.732,0.744-0.732c0.408,0,0.732,0.324,0.732,0.732v3.55
				l3.982-4.006c0.168-0.18,0.348-0.276,0.612-0.276c0.408,0,0.684,0.324,0.684,0.684c0,0.228-0.096,0.396-0.264,0.552l-2.615,2.519
				l2.83,3.514c0.12,0.156,0.204,0.3,0.204,0.528c0,0.408-0.324,0.72-0.743,0.72c-0.288,0-0.468-0.144-0.624-0.348L53.63,65.27
				l-1.367,1.319v1.739c0,0.408-0.324,0.732-0.732,0.732c-0.42,0-0.744-0.324-0.744-0.732V61.276z"/>
			<path style="fill:#FFFFFF;" d="M59.176,63.327c0-0.408,0.312-0.732,0.719-0.732s0.732,0.324,0.732,0.732v0.3
				c0.408-0.564,0.959-1.091,1.931-1.091c0.911,0,1.559,0.444,1.895,1.115c0.504-0.672,1.176-1.115,2.135-1.115
				c1.379,0,2.219,0.875,2.219,2.423v3.382c0,0.408-0.312,0.72-0.72,0.72c-0.408,0-0.731-0.312-0.731-0.72v-2.938
				c0-1.007-0.468-1.547-1.283-1.547c-0.792,0-1.355,0.552-1.355,1.571v2.914c0,0.408-0.324,0.72-0.719,0.72
				c-0.408,0-0.732-0.312-0.732-0.72v-2.95c0-0.983-0.48-1.535-1.283-1.535c-0.804,0-1.355,0.6-1.355,1.571v2.914
				c0,0.408-0.324,0.72-0.732,0.72c-0.396,0-0.719-0.312-0.719-0.72V63.327z"/>
		</g>
	</g>
</g>
</svg>
