<?xml version="1.0" encoding="iso-8859-1"?>
<!-- Generator: Adobe Illustrator 17.1.0, SVG Export Plug-In . SVG Version: 6.00 Build 0)  -->
<!DOCTYPE svg PUBLIC "-//W3C//DTD SVG 1.0//EN" "http://www.w3.org/TR/2001/REC-SVG-20010904/DTD/svg10.dtd">
<svg version="1.0" xmlns="http://www.w3.org/2000/svg" xmlns:xlink="http://www.w3.org/1999/xlink" x="0px" y="0px" width="110px"
	 height="110px" viewBox="0 0 110 110" style="enable-background:new 0 0 110 110;" xml:space="preserve">
<g id="Artboard">
</g>
<g id="Multicolor">
	<circle style="fill:#FABC3D;" cx="55" cy="55" r="55"/>
	<g>
		<path style="fill:#E2E4E5;" d="M83.489,74.848L61.77,43.308C62.544,42.083,63,40.636,63,39.08V31H47v8.08
			c0,1.761,0.582,3.383,1.554,4.698L37,56.574V67l17.883-19.586L76.9,79.385c0.313,0.455,0.936,0.57,1.391,0.256l4.941-3.403
			C83.687,75.926,83.802,75.303,83.489,74.848z"/>
		<path style="fill:#FFFFFF;" d="M83.489,74.848L61.77,43.308C60.384,45.495,57.985,47,54.92,47c-2.613,0-4.923-1.271-6.366-3.222
			L37,56.574V67l17.883-19.586L76.9,79.385c0.313,0.455,0.936,0.57,1.391,0.256l4.941-3.403
			C83.687,75.926,83.802,75.303,83.489,74.848z"/>
		<path style="fill:#3E3E3F;" d="M27,74l3.805,12c0.421,1.095,1.97,1.095,2.391,0L37,74H27z"/>
		<path style="fill:#E2E4E5;" d="M79.114,79.075l3.294-2.269l4.503,8.783c0.198,0.441,0.053,0.96-0.345,1.234
			c-0.398,0.274-0.935,0.224-1.276-0.118L79.114,79.075z"/>
		<path style="fill:#3E3E3F;" d="M59,24c0-0.552-0.448-1-1-1h-6c-0.552,0-1,0.448-1,1v7h8V24z"/>
		<path style="fill:#E2E4E5;" d="M27,68c0,0.552-0.448,1-1,1h-2c-0.552,0-1-0.448-1-1V56c0-0.552,0.448-1,1-1h2c0.552,0,1,0.448,1,1
			V68z"/>
		<g>
			<path style="fill:#F0F1F1;" d="M54.92,47c0.027,0,0.053-0.005,0.08-0.005V31h-8v8.08c0,1.761,0.582,3.383,1.554,4.698
				C49.997,45.729,52.307,47,54.92,47z"/>
		</g>
		<path style="fill:#DF2C2C;" d="M37,32c0-0.552-0.448-1-1-1h-8c-0.552,0-1,0.448-1,1v42c0,0.552,0.448,1,1,1h8c0.552,0,1-0.448,1-1
			V32z"/>
		<path style="fill:#E2E4E5;" d="M39,65c0,1.105-0.895,2-2,2H27V57h10c1.105,0,2,0.895,2,2V65z"/>
		<path style="fill:#5B5C5F;" d="M28,75c-0.36,0-0.661-0.2-0.837-0.485L30.805,86c0.21,0.547,0.703,0.821,1.195,0.821V75H28z"/>
		<path style="fill:#FA5655;" d="M32,31h-4c-0.552,0-1,0.448-1,1v25h5V31z"/>
		<path style="fill:#FA5655;" d="M27,67v7l0.163,0.515C27.339,74.8,27.64,75,28,75h4v-1v-7H27z"/>
		<rect x="27" y="57" style="fill:#FFFFFF;" width="5" height="10"/>
		<path style="fill:#5B5C5F;" d="M55,23h-3c-0.552,0-1,0.448-1,1v7h4V23z"/>
		<circle style="fill:#B6BCBD;" cx="55" cy="39" r="3"/>
	</g>
</g>
</svg>
