<?xml version="1.0" encoding="iso-8859-1"?>
<!-- Generator: Adobe Illustrator 17.1.0, SVG Export Plug-In . SVG Version: 6.00 Build 0)  -->
<!DOCTYPE svg PUBLIC "-//W3C//DTD SVG 1.0//EN" "http://www.w3.org/TR/2001/REC-SVG-20010904/DTD/svg10.dtd">
<svg version="1.0" xmlns="http://www.w3.org/2000/svg" xmlns:xlink="http://www.w3.org/1999/xlink" x="0px" y="0px" width="110px"
	 height="110px" viewBox="0 0 110 110" style="enable-background:new 0 0 110 110;" xml:space="preserve">
<g id="Artboard">
</g>
<g id="Multicolor">
	<circle style="fill:#32BEA6;" cx="54.875" cy="54.875" r="55"/>
	<g>
		<path style="fill:#3E3E3F;" d="M66.917,40.583c-0.738,0.26-1.852,1.059-3.042,1.417c-1.093,0.328-1.354,0.309-2.875,0.184
			c-1.33,0.987-4.3,1.066-6.083,1.066s-4.843-0.08-6.173-1.066c-0.993,0.488-10.392,0.111-11.731,8.54l6.862,2.813
			c-0.532,0.992-1.006,1.875-1.428,2.663l0.469,3.051h12h12l1.333-5.917l4.302-6.526L66.917,40.583z"/>
		<g>
			<polygon style="fill:#CFD3D4;" points="25,87 85,87 87,75 23,75 			"/>
		</g>
		<g>
			<polygon style="fill:#E2E4E5;" points="23,75 31,59 79,59 87,75 			"/>
		</g>
		<g>
			<polygon style="fill:#F0F1F1;" points="23,75 47.848,75 63.848,59 31,59 			"/>
		</g>
		<g>
			<ellipse style="fill:#3E3E3F;" cx="69" cy="68" rx="10" ry="5"/>
		</g>
		<g>
			<ellipse style="fill:#FA5655;" cx="68.625" cy="67.75" rx="2.625" ry="1.313"/>
		</g>
		<g>
			<ellipse style="fill:#3E3E3F;" cx="41" cy="68" rx="10" ry="5"/>
		</g>
		<g>
			<ellipse style="fill:#FA5655;" cx="40.625" cy="67.75" rx="2.625" ry="1.313"/>
		</g>
		<g>
			<path style="fill:#FBC8C8;" d="M39.188,63.458c-0.094-1.016,0.438-2.002,4.688-9.923l-7-2.869l-2.611,11.536H34.25l-0.824,2.035
				c-0.38,0.94,0.067,2.001,1.023,2.426l1.801,0.799v1.435c0,0.528,0.448,0.956,1,0.956s1-0.428,1-0.956v-1.881
				c0-0.317,0.164-0.613,0.438-0.791c0.274-0.178,0.622-0.215,0.93-0.099l0.701,0.265c0.163,0.062,0.345,0.058,0.506-0.01
				c0.16-0.068,0.286-0.195,0.347-0.352c0.086-0.221,0.036-0.47-0.131-0.643L39.188,63.458z"/>
		</g>
		<g>
			<path style="fill:#FBC8C8;" d="M85.921,27.129l-4.493-3.214c-0.152-0.108-0.341-0.149-0.523-0.112
				c-0.182,0.037-0.341,0.148-0.439,0.307l-0.372,0.608l-1.695-0.357c-0.406-0.085-0.821,0.098-1.031,0.456l-0.989,1.686
				c-0.096,0.164,0.285,2.807,0.295,2.997l-9.757,11.082l5.636,6.224l7.973-14.825c1.361,0.656,3.018,0.211,3.837-1.094l1.75-2.787
				C86.315,27.777,86.231,27.352,85.921,27.129z"/>
		</g>
		<g>
			<path style="fill:#F7B4B4;" d="M59,40.921c2.389-1.384,4-3.961,4-6.921c0-4.418-3.582-8-8-8s-8,3.582-8,8
				c0,2.959,1.611,5.537,4,6.921v0.774c-0.865,0.171-1.972,0.332-2.256,0.489L55,51l6-8.816c-0.276-0.152-1.223-0.308-2-0.473
				V40.921z"/>
		</g>
		<g>
			<path style="fill:#FBC8C8;" d="M47,34c0,2.959,1.611,5.537,4,6.921v0.774c-0.865,0.171-1.972,0.332-2.256,0.489L55,51V26
				C50.582,26,47,29.582,47,34z"/>
		</g>
		<g>
			<g>
				<path style="fill:#3E3E3F;" d="M59.733,30.342h-9.466c-0.814,0-4.142,0.259-4.142,2.367c0,2.107,0.851,4.141,2.959,4.141
					c1.94,0,4.457-1.628,4.688-4.344c0.295-0.241,0.731-0.389,1.228-0.389c0,0,0.002,0,0.003,0c0.496,0.001,0.932,0.15,1.225,0.391
					c0.233,2.715,2.749,4.342,4.689,4.342c2.107,0,2.958-2.034,2.958-4.141C63.875,30.6,60.547,30.342,59.733,30.342z
					 M53.753,31.816c-0.088-0.385-0.325-0.674-0.658-0.882h3.809c-0.33,0.207-0.565,0.493-0.656,0.874
					c-0.352-0.181-0.779-0.282-1.245-0.283C54.536,31.538,54.107,31.638,53.753,31.816z"/>
			</g>
			<g>
				<g>
					<path style="fill:#5B5C5F;" d="M52.633,31.751c-0.688-0.209-1.521-0.226-1.887-0.226c-0.675,0-3.438,0.187-3.438,1.705
						c0,0.947,0.275,1.873,0.906,2.436L52.633,31.751z"/>
				</g>
			</g>
			<g>
				<g>
					<path style="fill:#5B5C5F;" d="M57.367,31.751c0.688-0.209,1.521-0.226,1.887-0.226c0.675,0,3.438,0.187,3.438,1.705
						c0,0.947-0.275,1.873-0.906,2.436L57.367,31.751z"/>
				</g>
			</g>
		</g>
		<g>
			<path style="fill:#F79392;" d="M52.042,37.64h5.916c0,0,0,1.775-2.958,1.775S52.042,37.64,52.042,37.64z"/>
		</g>
	</g>
</g>
</svg>
