<?xml version="1.0" encoding="iso-8859-1"?>
<!-- Generator: Adobe Illustrator 17.1.0, SVG Export Plug-In . SVG Version: 6.00 Build 0)  -->
<!DOCTYPE svg PUBLIC "-//W3C//DTD SVG 1.0//EN" "http://www.w3.org/TR/2001/REC-SVG-20010904/DTD/svg10.dtd">
<svg version="1.0" xmlns="http://www.w3.org/2000/svg" xmlns:xlink="http://www.w3.org/1999/xlink" x="0px" y="0px" width="110px"
	 height="110px" viewBox="0 0 110 110" style="enable-background:new 0 0 110 110;" xml:space="preserve">
<g id="Artboard">
</g>
<g id="Multicolor">
	<g>
		<circle style="fill:#FABC3D;" cx="55" cy="55" r="55"/>
	</g>
	<g>
		<g>
			<polygon style="fill:#40C9E7;" points="67,67.997 65,66.997 45,66.997 43,67.997 55,87 			"/>
		</g>
		<path style="fill:#9C6144;" d="M57.655,67.997H55h-2.655c-0.856,0-1.671-0.365-2.24-1.004L45,62.997v4.5c0,0,0,7.5,10,7.5
			s10-7.5,10-7.5v-4.5l-5.105,3.996C59.326,67.632,58.511,67.997,57.655,67.997z"/>
		<path style="fill:#BF8662;" d="M50.105,66.993L45,62.997v4.5c0,0,0,7.5,10,7.5v-7h-2.655
			C51.489,67.997,50.674,67.632,50.105,66.993z"/>
		<path style="fill:#BF8662;" d="M72,47.222C72,46.111,71,45,70,45s-1,1.111-1,1.111V45c-0.018-9-1.024-15-14-15s-13.982,6-14,15
			v7.997l4,10l5.105,3.996c0.569,0.639,1.384,1.004,2.24,1.004H55h2.655c0.856,0,1.671-0.365,2.24-1.004L65,62.997l3.207-8.017
			C71.042,54.776,72,50.476,72,47.222z"/>
		<path style="fill:#CC9978;" d="M41,45v1.111c0,0,0-1.111-1-1.111s-2,1.111-2,2.222c0,3.253,0.958,7.554,3.793,7.758L45,62.997
			l5.105,3.996c0.569,0.639,1.384,1.004,2.24,1.004H55V30C42.024,30,41.018,36,41,45z"/>
		<g>
			<path style="fill:#3E3E3F;" d="M52,46.997c0-1.104-0.896-2-2-2c-0.002,0-0.004,0-0.006,0C49.995,45.019,50,45.039,50,45.06
				c0,1.103-0.892,1.996-1.994,2c0.033,1.075,0.91,1.938,1.994,1.938C51.104,48.997,52,48.102,52,46.997z"/>
		</g>
		<g>
			<path style="fill:#3E3E3F;" d="M61.994,46.997c0-1.104-0.896-2-2-2c-0.002,0-0.004,0-0.006,0
				c0.001,0.021,0.006,0.041,0.006,0.062c0,1.103-0.892,1.996-1.994,2c0.033,1.075,0.91,1.938,1.994,1.938
				C61.098,48.997,61.994,48.102,61.994,46.997z"/>
		</g>
		<g>
			<path style="fill:#84462D;" d="M50,56.997h10c0,0,0,3-5,3S50,56.997,50,56.997z"/>
		</g>
		<g>
			<path style="fill:#692E19;" d="M54.821,29C42.821,29,40,36.111,41,46.111L41.821,47c0-18,4-12,13-12s13-6,13,12L69,46.111
				C70,36.111,66.821,29,54.821,29z"/>
		</g>
		<g>
			<polygon style="fill:#DF2C2C;" points="59,87 56.201,76.8 58,75.002 54.981,71.978 51.983,74.976 53.801,76.793 51,87 			"/>
		</g>
		<g>
			<polygon style="fill:#FA5655;" points="55,87 55,71.997 54.981,71.978 51.983,74.976 53.801,76.793 51,87 			"/>
		</g>
		<g>
			<path style="fill:#FFFFFF;" d="M23,87l4-11c0.615-1.333,1.698-2.394,3.043-2.983L43,68l12,19H23z"/>
		</g>
		<g>
			<path style="fill:#FFFFFF;" d="M87,87l-4-11c-0.615-1.333-1.698-2.394-3.043-2.983L67,68L55,87H87z"/>
		</g>
		<g>
			<polygon style="fill:#9CE5F4;" points="66.965,68.059 67,68 65,67 55.015,71.981 60.808,77.807 			"/>
		</g>
		<g>
			<polygon style="fill:#9CE5F4;" points="43.035,68.059 43,68 45,67 54.985,71.981 49.192,77.807 			"/>
		</g>
		<g>
			<polygon style="fill:#F1F2F2;" points="55,87 45,66 41,68 39,79 46,80 45,87 			"/>
		</g>
		<g>
			<polygon style="fill:#F1F2F2;" points="55,87 65,66 69,68 71,79 64,80 65,87 			"/>
		</g>
		<g>
			<g>
				<path style="fill:#3E3E3F;" d="M39,64c-3.441,0-7,2.618-7,7v4.142c-1.722,0.446-3,1.997-3,3.858c0,2.209,1.791,4,4,4
					s4-1.791,4-4c0-1.862-1.278-3.413-3-3.858V71c0-3.449,2.924-5,5-5h6v-2H39z"/>
			</g>
			<g>
				<g>
					<circle style="fill:#9E9FA0;" cx="33" cy="79" r="2"/>
				</g>
			</g>
		</g>
		<g>
			<g>
				<g>
					<g>
						<path style="fill:#9E9FA0;" d="M73,85c0,0.55-0.45,1-1,1c-0.55,0-1-0.45-1-1v-4h1c0.55,0,1,0.45,1,1V85z"/>
					</g>
				</g>
			</g>
			<g>
				<g>
					<g>
						<path style="fill:#9E9FA0;" d="M76,85c0,0.55,0.45,1,1,1c0.55,0,1-0.45,1-1v-4h-1c-0.55,0-1,0.45-1,1V85z"/>
					</g>
				</g>
			</g>
			<g>
				<path style="fill:#3E3E3F;" d="M76,70h-0.072c-0.496-3.774-3.758-6-6.928-6h-4v2h4c1.862,0,4.4,1.253,4.904,4H73.25
					C70.906,70,69,71.906,69,74.25V82c0,1.302,0.838,2.401,2,2.815V82v-7.75c0-1.241,1.009-2.25,2.25-2.25H76c1.103,0,2,0.897,2,2v8
					v2.816c1.162-0.415,2-1.514,2-2.816v-8C80,71.794,78.206,70,76,70z"/>
			</g>
		</g>
		<path style="fill:#84462D;" d="M55,29.007c-0.062,0-0.116-0.007-0.179-0.007C42.821,29,40,36.111,41,46.111L41.821,47
			c0-18,4-12,13-12c0.061,0,0.119-0.003,0.179-0.003V29.007z"/>
	</g>
</g>
</svg>
