<?xml version="1.0" encoding="iso-8859-1"?>
<!-- Generator: Adobe Illustrator 17.1.0, SVG Export Plug-In . SVG Version: 6.00 Build 0)  -->
<!DOCTYPE svg PUBLIC "-//W3C//DTD SVG 1.0//EN" "http://www.w3.org/TR/2001/REC-SVG-20010904/DTD/svg10.dtd">
<svg version="1.0" xmlns="http://www.w3.org/2000/svg" xmlns:xlink="http://www.w3.org/1999/xlink" x="0px" y="0px" width="110px"
	 height="110px" viewBox="0 0 110 110" style="enable-background:new 0 0 110 110;" xml:space="preserve">
<g id="Artboard">
</g>
<g id="Multicolor">
	<g>
		<circle style="fill:#32BEA6;" cx="55" cy="55" r="55"/>
	</g>
	<g>
		<g>
			<polygon style="fill:#40C9E7;" points="67,67.997 65,66.997 45,66.997 43,67.997 55,87 			"/>
		</g>
		<path style="fill:#F4D0A1;" d="M64.864,62.997l-5.105,3.996c-0.569,0.639-1.384,1.004-2.24,1.004h-2.655h-2.655
			c-0.856,0-1.671-0.365-2.24-1.004L45,63.103V67.5c0,0,0,7.5,10,7.5s10-7.5,10-7.5v-4.842L64.864,62.997z"/>
		<path style="fill:#F8E1C2;" d="M70.202,45.045C68.84,46.999,67.893,47,67.893,47V34.433c-0.022-0.064-0.044-0.129-0.068-0.193
			l-25.932,6.751v9c0.057-0.006-0.402-0.292-1.029-1.1v4.105l4,10l5.105,3.996c0.569,0.639,1.384,1.004,2.24,1.004h2.655h2.655
			c0.855,0,1.67-0.365,2.24-1.004l5.105-3.996l3.207-8.017c2.835-0.205,3.793-4.505,3.793-7.758
			C71.864,46.237,71.077,45.255,70.202,45.045z"/>
		<path style="fill:#F8E1C2;" d="M52.209,67.997c-0.856,0-1.671-0.365-2.24-1.004L45,63.103V67.5c0,0,0,7.5,10,7.5v-7.003H52.209z"
			/>
		<g>
			<polygon style="fill:#DF2C2C;" points="59,87 56.201,76.8 58,75.002 54.981,71.978 51.983,74.976 53.801,76.793 51,87 			"/>
		</g>
		<g>
			<polygon style="fill:#FA5655;" points="55,87 55,71.997 54.981,71.978 51.983,74.976 53.801,76.793 51,87 			"/>
		</g>
		<g>
			<path style="fill:#FFFFFF;" d="M23,87l4-11c0.615-1.333,1.698-2.394,3.043-2.983L43,68l12,19H23z"/>
		</g>
		<g>
			<path style="fill:#FFFFFF;" d="M87,87l-4-11c-0.615-1.333-1.698-2.394-3.043-2.983L67,68L55,87H87z"/>
		</g>
		<g>
			<polygon style="fill:#9CE5F4;" points="66.965,68.059 67,68 65,67 55.015,71.981 60.808,77.807 			"/>
		</g>
		<g>
			<polygon style="fill:#9CE5F4;" points="43.035,68.059 43,68 45,67 54.985,71.981 49.192,77.807 			"/>
		</g>
		<g>
			<polygon style="fill:#F1F2F2;" points="55,87 45,66 41,68 39,79 46,80 45,87 			"/>
		</g>
		<g>
			<polygon style="fill:#F1F2F2;" points="55,87 65,66 69,68 71,79 64,80 65,87 			"/>
		</g>
		<g>
			<g>
				<path style="fill:#3E3E3F;" d="M39,64c-3.441,0-7,2.618-7,7v4.142c-1.722,0.446-3,1.997-3,3.858c0,2.209,1.791,4,4,4
					s4-1.791,4-4c0-1.862-1.278-3.413-3-3.858V71c0-3.449,2.924-5,5-5h6v-2H39z"/>
			</g>
			<g>
				<g>
					<circle style="fill:#9E9FA0;" cx="33" cy="79" r="2"/>
				</g>
			</g>
		</g>
		<g>
			<g>
				<g>
					<g>
						<path style="fill:#9E9FA0;" d="M73,85c0,0.55-0.45,1-1,1c-0.55,0-1-0.45-1-1v-4h1c0.55,0,1,0.45,1,1V85z"/>
					</g>
				</g>
			</g>
			<g>
				<g>
					<g>
						<path style="fill:#9E9FA0;" d="M76,85c0,0.55,0.45,1,1,1c0.55,0,1-0.45,1-1v-4h-1c-0.55,0-1,0.45-1,1V85z"/>
					</g>
				</g>
			</g>
			<g>
				<path style="fill:#3E3E3F;" d="M76,70h-0.072c-0.496-3.774-3.758-6-6.928-6h-4v2h4c1.862,0,4.4,1.253,4.904,4H73.25
					C70.906,70,69,71.906,69,74.25V82c0,1.302,0.838,2.401,2,2.815V82v-7.75c0-1.241,1.009-2.25,2.25-2.25H76c1.103,0,2,0.897,2,2v8
					v2.816c1.162-0.415,2-1.514,2-2.816v-8C80,71.794,78.206,70,76,70z"/>
			</g>
		</g>
		<path style="fill:#FCF1E2;" d="M41.893,40.991v9c0.045-0.005-0.239-0.198-0.669-0.674l-0.36-3.206c0,0,0-1.111-1-1.111
			s-2,1.111-2,2.222c0,3.253,0.958,7.554,3.793,7.758l3.207,8.017l5.105,3.996c0.569,0.639,1.384,1.004,2.24,1.004H55V37.579
			L41.893,40.991z"/>
		<g>
			<path style="fill:#F79392;" d="M49.864,56.997h10c0,0,0,3-5,3S49.864,56.997,49.864,56.997z"/>
		</g>
		<path style="fill:#3E3E3F;" d="M70.069,32.239c0.546-1.14,0.871-2.706-0.176-4.277c-4.097-6.144-33.077-6.967-32,11
			c0.538,8.97,4.155,11.012,4,11.029v-9l26-6.769V47c0,0,3,0,6-11.029C74.549,33.559,72.042,32.611,70.069,32.239z"/>
		<g>
			<path style="fill:#3E3E3F;" d="M61.007,46.498c1.191,0,2.248,0.266,2.981,0.678c0.071-0.569-0.172-1.154-0.748-1.59
				c-1.03-0.781-2.702-0.781-3.733,0c-0.464,0.352-0.709,0.801-0.753,1.26C59.396,46.627,60.171,46.498,61.007,46.498z"/>
		</g>
		<g>
			<path style="fill:#3E3E3F;" d="M49,46.498c-1.191,0-2.248,0.266-2.981,0.678c-0.071-0.569,0.172-1.154,0.748-1.59
				c1.03-0.781,2.702-0.781,3.733,0c0.464,0.352,0.709,0.801,0.753,1.26C50.611,46.627,49.836,46.498,49,46.498z"/>
		</g>
	</g>
</g>
</svg>
