<?xml version="1.0" encoding="iso-8859-1"?>
<!-- Generator: Adobe Illustrator 17.1.0, SVG Export Plug-In . SVG Version: 6.00 Build 0)  -->
<!DOCTYPE svg PUBLIC "-//W3C//DTD SVG 1.0//EN" "http://www.w3.org/TR/2001/REC-SVG-20010904/DTD/svg10.dtd">
<svg version="1.0" xmlns="http://www.w3.org/2000/svg" xmlns:xlink="http://www.w3.org/1999/xlink" x="0px" y="0px" width="110px"
	 height="110px" viewBox="0 0 110 110" style="enable-background:new 0 0 110 110;" xml:space="preserve">
<g id="Artboard">
</g>
<g id="Multicolor">
	<circle style="fill:#FABC3D;" cx="55" cy="55" r="55"/>
	<g>
		<path style="fill:#DF2C2C;" d="M43,27c0-2.209-1.791-4-4-4H27c-2.209,0-4,1.791-4,4v56c0,2.209,1.791,4,4,4h12
			c2.209,0,4-1.791,4-4V27z"/>
		<path style="fill:#0484AB;" d="M63,27c0-2.209-1.791-4-4-4H47c-2.209,0-4,1.791-4,4v56c0,2.209,1.791,4,4,4h12
			c2.209,0,4-1.791,4-4V27z"/>
		<rect x="27" y="27" style="fill:#FFFFFF;" width="12" height="32"/>
		<rect x="47" y="27" style="fill:#FFFFFF;" width="12" height="32"/>
		<rect x="27" y="63" style="fill:#FFFFFF;" width="12" height="8"/>
		<rect x="47" y="63" style="fill:#FFFFFF;" width="12" height="8"/>
		<circle style="fill:#3E3E3F;" cx="33" cy="79" r="4"/>
		<circle style="fill:#3E3E3F;" cx="53" cy="79" r="4"/>
		<path style="fill:#FA5655;" d="M27,27h12v11.213l4-4V27c0-2.209-1.791-4-4-4H27c-2.209,0-4,1.791-4,4v27.213l4-4V27z"/>
		<path style="fill:#059BBF;" d="M47,27h12v11.213l4-4V27c0-2.209-1.791-4-4-4H47c-2.209,0-4,1.791-4,4v27.213l4-4V27z"/>
		<path style="fill:#0D9681;" d="M83.116,27.051c-0.137-2.17-2.008-3.818-4.178-3.681l-11.789,0.746
			c-2.17,0.137-3.818,2.008-3.681,4.178l3.48,55.017c0.137,2.17,2.008,3.818,4.178,3.681l11.789-0.746
			c2.17-0.137,3.818-2.008,3.681-4.178L83.116,27.051z"/>
		
			<rect x="68.379" y="27.641" transform="matrix(0.998 -0.0631 0.0631 0.998 -2.5909 4.7757)" style="fill:#FFFFFF;" width="11.813" height="31.501"/>
		
			<rect x="69.871" y="63.033" transform="matrix(0.998 -0.0631 0.0631 0.998 -4.0763 4.9169)" style="fill:#FFFFFF;" width="11.813" height="7.875"/>
		<circle style="fill:#3E3E3F;" cx="76.523" cy="78.76" r="3.938"/>
	</g>
</g>
</svg>
