<?xml version="1.0" encoding="iso-8859-1"?>
<!-- Generator: Adobe Illustrator 17.1.0, SVG Export Plug-In . SVG Version: 6.00 Build 0)  -->
<!DOCTYPE svg PUBLIC "-//W3C//DTD SVG 1.0//EN" "http://www.w3.org/TR/2001/REC-SVG-20010904/DTD/svg10.dtd">
<svg version="1.0" xmlns="http://www.w3.org/2000/svg" xmlns:xlink="http://www.w3.org/1999/xlink" x="0px" y="0px" width="110px"
	 height="110px" viewBox="0 0 110 110" style="enable-background:new 0 0 110 110;" xml:space="preserve">
<g id="Artboard">
</g>
<g id="Multicolor">
	<circle style="fill:#25B7D3;" cx="55" cy="55" r="55"/>
	<g>
		<g>
			<path style="fill:#BF0302;" d="M79.007,51.042c1.833,1.667,7.833,0,7.833-3.333c0-3.638-7.062-3.763-8.578,0.355l-3.119-12.477
				c-0.668-2.671-3.068-4.545-5.821-4.545H40.692c-2.753,0-5.153,1.874-5.821,4.545l-3.119,12.477
				c-1.509-4.1-8.578-4.011-8.578-0.355c0,3.333,6,5,7.833,3.333c-8.728,6.982-9.997,16.229-5.269,25.774
				c0.675,1.362,2.068,2.226,3.587,2.226h51.377c1.518,0,2.925-0.85,3.584-2.218C89.257,66.5,86.882,56.959,79.007,51.042z"/>
		</g>
		<g>
			<path style="fill:#DF2C2C;" d="M40.692,31.042c-2.753,0-5.153,1.874-5.821,4.545l-3.119,12.477
				c-1.509-4.1-8.578-4.011-8.578-0.355c0,3.333,6,5,7.833,3.333c-6.134,4.907-8.57,10.935-7.843,17.396L60.56,31.042H40.692z"/>
		</g>
		<g>
			<path style="fill:#40C9E7;" d="M37.569,51.042c-0.616,0-1.197-0.284-1.576-0.769c-0.379-0.485-0.513-1.118-0.364-1.716
				l2.621-10.485c0.445-1.781,2.045-3.03,3.881-3.03h25.754c1.835,0,3.435,1.249,3.881,3.03l2.621,10.485
				c0.149,0.597,0.015,1.23-0.364,1.716s-0.961,0.769-1.576,0.769H37.569z"/>
		</g>
		<g>
			<polygon style="fill:#FFFFFF;" points="46.007,51.042 43.007,59.042 53.007,59.042 54.007,51.042 			"/>
		</g>
		<g>
			<polygon style="fill:#FFFFFF;" points="64.007,51.042 67.007,59.042 57.007,59.042 56.007,51.042 			"/>
		</g>
		<g>
			<path style="fill:#6FDAF1;" d="M38.25,38.072l-2.621,10.485c-0.149,0.597-0.015,1.23,0.364,1.716
				c0.379,0.485,0.961,0.769,1.576,0.769h2.991l16-16H42.13C40.295,35.042,38.695,36.291,38.25,38.072z"/>
		</g>
		<g>
			<path style="fill:#3E3E3F;" d="M35.007,85.042c0,1.105-0.895,2-2,2h-4c-1.105,0-2-0.895-2-2v-7h8V85.042z"/>
		</g>
		<g>
			<path style="fill:#3E3E3F;" d="M83.007,85.042c0,1.105-0.895,2-2,2h-4c-1.105,0-2-0.895-2-2v-7h8V85.042z"/>
		</g>
		<g>
			<path style="fill:#FA5655;" d="M29.326,79.042c-1.52,0-2.892-0.874-3.587-2.226c-1.88-3.653-3.429-8.868-2.419-13.177
				c0.634-2.705,3.057-4.598,5.835-4.598h51.702c2.768,0,5.181,1.894,5.832,4.583c0.971,4.01-0.54,9.46-2.402,13.199
				c-0.677,1.359-2.066,2.218-3.584,2.218H29.326z"/>
		</g>
		<g>
			<path style="fill:#3E3E3F;" d="M27.007,67.042c0,2.209,1.791,4,4,4h48c2.209,0,4-1.791,4-4s-1.791-4-4-4h-48
				C28.798,63.042,27.007,64.833,27.007,67.042z"/>
		</g>
		<g>
			<circle style="fill:#FACB1B;" cx="32.007" cy="67.042" r="3"/>
		</g>
		<g>
			<circle style="fill:#FACB1B;" cx="39.007" cy="67.042" r="3"/>
		</g>
		<g>
			<circle style="fill:#FACB1B;" cx="71.007" cy="67.042" r="3"/>
		</g>
		<g>
			<circle style="fill:#FACB1B;" cx="78.007" cy="67.042" r="3"/>
		</g>
		<g>
			<circle style="fill:#FFFFFF;" cx="31.007" cy="75.042" r="2"/>
		</g>
		<g>
			<circle style="fill:#FFFFFF;" cx="79.007" cy="75.042" r="2"/>
		</g>
		<g>
			<polygon style="fill:#BF0302;" points="35.007,79.042 39.007,75.042 71.007,75.042 75.007,79.042 			"/>
		</g>
		<g>
			<path style="fill:#FBE158;" d="M32.007,64.042c-1.657,0-3,1.343-3,3c0,0.857,0.364,1.625,0.94,2.172l4.232-4.232
				C33.633,64.406,32.865,64.042,32.007,64.042z"/>
		</g>
		<g>
			<path style="fill:#FBE158;" d="M39.007,64.042c-1.657,0-3,1.343-3,3c0,0.857,0.364,1.625,0.94,2.172l4.232-4.232
				C40.633,64.406,39.865,64.042,39.007,64.042z"/>
		</g>
		<g>
			<path style="fill:#FBE158;" d="M71.007,64.042c-1.657,0-3,1.343-3,3c0,0.857,0.364,1.625,0.94,2.172l4.232-4.232
				C72.633,64.406,71.865,64.042,71.007,64.042z"/>
		</g>
		<g>
			<path style="fill:#FBE158;" d="M78.007,64.042c-1.657,0-3,1.343-3,3c0,0.857,0.364,1.625,0.94,2.172l4.232-4.232
				C79.633,64.406,78.865,64.042,78.007,64.042z"/>
		</g>
		<g>
			<path style="fill:#9E9FA0;" d="M64.996,65c0,0.552-0.448,1-1,1h-18c-0.552,0-1-0.448-1-1s0.448-1,1-1h18
				C64.548,64,64.996,64.448,64.996,65z"/>
		</g>
		<g>
			<path style="fill:#9E9FA0;" d="M64.996,69c0,0.552-0.448,1-1,1h-18c-0.552,0-1-0.448-1-1s0.448-1,1-1h18
				C64.548,68,64.996,68.448,64.996,69z"/>
		</g>
	</g>
</g>
</svg>
