<?xml version="1.0" encoding="iso-8859-1"?>
<!-- Generator: Adobe Illustrator 17.1.0, SVG Export Plug-In . SVG Version: 6.00 Build 0)  -->
<!DOCTYPE svg PUBLIC "-//W3C//DTD SVG 1.0//EN" "http://www.w3.org/TR/2001/REC-SVG-20010904/DTD/svg10.dtd">
<svg version="1.0" xmlns="http://www.w3.org/2000/svg" xmlns:xlink="http://www.w3.org/1999/xlink" x="0px" y="0px" width="110px"
	 height="110px" viewBox="0 0 110 110" style="enable-background:new 0 0 110 110;" xml:space="preserve">
<g id="Artboard">
</g>
<g id="Multicolor">
	<circle style="fill:#25B7D3;" cx="55" cy="55" r="55"/>
	<g>
		<g>
			<path style="fill:#F0F1F1;" d="M86.85,69C85.833,62.333,80,59,80,59c0-16.985-9.812-26.117-18.855-29.518
				C61.48,27.379,62.425,24.575,64,23c-14.187,0-18.151,2.359-20.262,5.682C32.901,31.346,27.602,39.606,30,46l-4.687,6.154
				c-0.557,0.78-0.349,1.872,0.462,2.391c0.963,0.615,2.217,0.632,3.154-0.022c2.982-2.082,6.08-3.863,9.223-5.244
				C38.928,50.662,42.871,57,50,57c-2.492-3.323-2.913-8.704-2.984-10.434C56.897,44.932,66.592,48.271,74,60
				c-2.767,2.214-4.615,5.346-5.545,9.397c-0.095,0.412,0.081,0.839,0.438,1.066c0.357,0.227,0.818,0.206,1.151-0.054L77,65
				c0,0,3.955,2.373,8.347,5.008c0.332,0.199,0.75,0.188,1.071-0.027C86.74,69.765,86.908,69.383,86.85,69z"/>
		</g>
		<g>
			<path style="fill:#FFFFFF;" d="M43.738,28.682C32.901,31.346,27.602,39.606,30,46l-4.687,6.154
				c-0.557,0.78-0.349,1.872,0.462,2.391c0.963,0.615,2.217,0.632,3.154-0.022c2.982-2.082,6.08-3.863,9.223-5.244
				c0.202,0.36,0.623,1.057,1.253,1.888l21.754-21.754C61.502,27.318,62.441,24.559,64,23C49.813,23,45.849,25.359,43.738,28.682z"
				/>
		</g>
		<g>
			<path style="fill:#9CE5F4;" d="M87,87V76.409c0-0.143-0.061-0.28-0.168-0.375c-0.107-0.095-0.25-0.14-0.392-0.122
				c-4.262,0.521-8.466-1.273-11.051-4.724C75.299,71.07,75.16,71,75.013,71h-0.01c-0.157,0-0.306,0.074-0.4,0.2
				C72.412,74.116,68.931,76,65,76c-3.936,0-7.422-1.889-9.612-4.812C55.299,71.07,55.16,71,55.013,71h-0.01
				c-0.157,0-0.306,0.074-0.4,0.2C52.412,74.116,48.931,76,45,76c-3.936,0-7.422-1.889-9.612-4.812C35.299,71.07,35.16,71,35.013,71
				h-0.01c-0.157,0-0.306,0.074-0.4,0.2c-2.591,3.449-6.792,5.231-11.042,4.712c-0.142-0.017-0.285,0.028-0.392,0.123
				C23.061,76.129,23,76.265,23,76.409V87H87z"/>
		</g>
		<g>
			<path style="fill:#3E3E3F;" d="M37.383,37.998c-0.418,0-0.806,0.124-1.136,0.33c0.321,0.187,0.547,0.521,0.547,0.919
				c0,0.596-0.483,1.08-1.08,1.08c-0.178,0-0.338-0.053-0.486-0.129c0.022,1.174,0.976,2.119,2.155,2.119
				c1.193,0,2.159-0.967,2.159-2.159S38.576,37.998,37.383,37.998z"/>
		</g>
	</g>
</g>
</svg>
