<?xml version="1.0" encoding="iso-8859-1"?>
<!-- Generator: Adobe Illustrator 17.1.0, SVG Export Plug-In . SVG Version: 6.00 Build 0)  -->
<!DOCTYPE svg PUBLIC "-//W3C//DTD SVG 1.0//EN" "http://www.w3.org/TR/2001/REC-SVG-20010904/DTD/svg10.dtd">
<svg version="1.0" xmlns="http://www.w3.org/2000/svg" xmlns:xlink="http://www.w3.org/1999/xlink" x="0px" y="0px" width="110px"
	 height="110px" viewBox="0 0 110 110" style="enable-background:new 0 0 110 110;" xml:space="preserve">
<g id="Artboard">
</g>
<g id="Multicolor">
	<circle style="fill:#FABC3D;" cx="55" cy="55" r="55"/>
	<g>
		<g>
			<path style="fill:#3E3E3F;" d="M85.828,47.645c1.562-1.562,1.562-4.095,0-5.657L68.858,25.017c-1.562-1.562-4.095-1.562-5.657,0
				L25.017,63.201c-1.562,1.562-1.562,4.095,0,5.657l16.971,16.971c1.562,1.562,4.095,1.562,5.657,0L85.828,47.645z"/>
		</g>
		<g>
			<path style="fill:#5B5C5F;" d="M68.858,25.017c-1.562-1.562-4.095-1.562-5.657,0L25.017,63.201c-1.562,1.562-1.562,4.095,0,5.657
				l8.385,8.385l43.841-43.841L68.858,25.017z"/>
		</g>
		<g>
			<path style="fill:#9E9FA0;" d="M46.938,45.523c-0.391-0.391-1.024-0.391-1.414,0c-0.391,0.391-0.391,1.024,0,1.414l18.385,18.385
				c0.391,0.391,1.024,0.391,1.414,0c0.391-0.391,0.391-1.024,0-1.414L46.938,45.523z"/>
		</g>
		<g>
			<circle style="fill:#FFFFFF;" cx="55.423" cy="42.695" r="3"/>
		</g>
		<g>
			<circle style="fill:#FFFFFF;" cx="42.695" cy="55.423" r="3"/>
		</g>
		<g>
			<circle style="fill:#FFFFFF;" cx="32.088" cy="66.029" r="3"/>
		</g>
		<g>
			<circle style="fill:#FFFFFF;" cx="55.423" cy="68.151" r="3"/>
		</g>
		<g>
			<circle style="fill:#FFFFFF;" cx="44.816" cy="78.757" r="3"/>
		</g>
		<g>
			<circle style="fill:#FFFFFF;" cx="79.464" cy="44.109" r="3"/>
		</g>
		<g>
			<circle style="fill:#FFFFFF;" cx="67.444" cy="43.402" r="3"/>
		</g>
		<g>
			<path style="fill:#CFD3D4;" d="M46.938,45.523c-0.391-0.391-1.024-0.391-1.414,0c-0.391,0.39-0.391,1.024,0,1.414l9.092,9.092
				l1.414-1.414L46.938,45.523z"/>
		</g>
	</g>
</g>
</svg>
