<?xml version="1.0" encoding="iso-8859-1"?>
<!-- Generator: Adobe Illustrator 17.1.0, SVG Export Plug-In . SVG Version: 6.00 Build 0)  -->
<!DOCTYPE svg PUBLIC "-//W3C//DTD SVG 1.0//EN" "http://www.w3.org/TR/2001/REC-SVG-20010904/DTD/svg10.dtd">
<svg version="1.0" xmlns="http://www.w3.org/2000/svg" xmlns:xlink="http://www.w3.org/1999/xlink" x="0px" y="0px" width="110px"
	 height="110px" viewBox="0 0 110 110" style="enable-background:new 0 0 110 110;" xml:space="preserve">
<g id="Artboard" style="display:none;">
	
		<rect x="-840.5" y="-290.5" style="display:inline;fill:#808080;stroke:#000000;stroke-miterlimit:10;" width="1392" height="1369"/>
</g>
<g id="R-Multicolor">
	<circle style="fill:#32BEA6;" cx="55" cy="55" r="55"/>
	<g>
		<g>
			<path style="fill:#F4D0A1;" d="M77.627,32.373c-12.497-12.497-32.758-12.497-45.255,0s-12.497,32.758,0,45.255
				c12.497,12.497,32.758,12.497,45.255,0S90.124,44.869,77.627,32.373z M46.515,63.485c-4.686-4.686-4.686-12.284,0-16.971
				s12.284-4.686,16.971,0s4.686,12.284,0,16.971S51.201,68.172,46.515,63.485z"/>
		</g>
		<g>
			<path style="fill:#84462D;" d="M77.627,77.627c-1.952,1.952-4.087,3.592-6.357,4.929c-7.969-8.549,1.237-10.048-4.957-16.242
				c-1.506-1.506-2.786-1.895-3.917-1.867c0.375-0.29,0.742-0.615,1.089-0.962c4.688-4.688,4.688-12.283,0-16.971
				s-12.283-4.688-16.971,0c-1.414,1.414-6.364,4.95-12.021-0.707c-7.778-7.778-2.121-13.435-2.121-13.435
				c12.495-12.495,32.76-12.495,45.255,0S90.122,65.133,77.627,77.627z"/>
		</g>
		<g>
			<path style="fill:#F8E1C2;" d="M46.515,46.515c-1.414,1.414-6.364,4.95-12.021-0.707c-7.452-7.452-2.575-12.954-2.153-13.402
				c-12.464,12.5-12.454,32.736,0.031,45.222l14.142-14.142C41.828,58.799,41.828,51.201,46.515,46.515z"/>
		</g>
		<g>
			<path style="fill:#9C6144;" d="M32.373,32.373c-0.011,0.011-0.021,0.022-0.031,0.033c-0.422,0.448-5.3,5.949,2.153,13.402
				c5.657,5.657,10.607,2.121,12.021,0.707c4.688-4.688,12.283-4.688,16.971,0l14.142-14.142
				C65.133,19.878,44.867,19.878,32.373,32.373z"/>
		</g>
		<g>
			<circle style="fill:#FACB1B;" cx="79.042" cy="47.929" r="2"/>
		</g>
		<g>
			<circle style="fill:#6FDAF1;" cx="68.435" cy="31.665" r="2"/>
		</g>
		<g>
			<circle style="fill:#F79392;" cx="54.293" cy="37.322" r="2"/>
		</g>
		<g>
			<circle style="fill:#FBEC9A;" cx="37.322" cy="38.029" r="3.5"/>
		</g>
		<g>
			<circle style="fill:#FA5655;" cx="77.627" cy="58.535" r="3.5"/>
		</g>
		<g>
			<circle style="fill:#21B2D1;" cx="74.092" cy="71.263" r="2"/>
		</g>
	</g>
</g>
<g id="Multicolor" style="display:none;">
	<g style="display:inline;">
		<g>
			<path style="fill:#F4D0A1;" d="M77.627,32.373c-12.497-12.497-32.758-12.497-45.255,0s-12.497,32.758,0,45.255
				c12.497,12.497,32.758,12.497,45.255,0S90.124,44.869,77.627,32.373z M46.515,63.485c-4.686-4.686-4.686-12.284,0-16.971
				s12.284-4.686,16.971,0s4.686,12.284,0,16.971S51.201,68.172,46.515,63.485z"/>
		</g>
		<g>
			<path style="fill:#84462D;" d="M77.627,77.627c-1.952,1.952-4.087,3.592-6.357,4.929c-7.969-8.549,1.237-10.048-4.957-16.242
				c-1.506-1.506-2.786-1.895-3.917-1.867c0.375-0.29,0.742-0.615,1.089-0.962c4.688-4.688,4.688-12.283,0-16.971
				s-12.283-4.688-16.971,0c-1.414,1.414-6.364,4.95-12.021-0.707c-7.778-7.778-2.121-13.435-2.121-13.435
				c12.495-12.495,32.76-12.495,45.255,0S90.122,65.133,77.627,77.627z"/>
		</g>
		<g>
			<path style="fill:#F8E1C2;" d="M46.515,46.515c-1.414,1.414-6.364,4.95-12.021-0.707c-7.452-7.452-2.575-12.954-2.153-13.402
				c-12.464,12.5-12.454,32.736,0.031,45.222l14.142-14.142C41.828,58.799,41.828,51.201,46.515,46.515z"/>
		</g>
		<g>
			<path style="fill:#9C6144;" d="M32.373,32.373c-0.011,0.011-0.021,0.022-0.031,0.033c-0.422,0.448-5.3,5.949,2.153,13.402
				c5.657,5.657,10.607,2.121,12.021,0.707c4.688-4.688,12.283-4.688,16.971,0l14.142-14.142
				C65.133,19.878,44.867,19.878,32.373,32.373z"/>
		</g>
		<g>
			<circle style="fill:#FACB1B;" cx="79.042" cy="47.929" r="2"/>
		</g>
		<g>
			<circle style="fill:#6FDAF1;" cx="68.435" cy="31.665" r="2"/>
		</g>
		<g>
			<circle style="fill:#F79392;" cx="54.293" cy="37.322" r="2"/>
		</g>
		<g>
			<circle style="fill:#FBEC9A;" cx="37.322" cy="38.029" r="3.5"/>
		</g>
		<g>
			<circle style="fill:#FA5655;" cx="77.627" cy="58.535" r="3.5"/>
		</g>
		<g>
			<circle style="fill:#21B2D1;" cx="74.092" cy="71.263" r="2"/>
		</g>
	</g>
</g>
<g id="Blue" style="display:none;">
	<g style="display:inline;">
		<g>
			<path style="fill:#81D2EB;" d="M77.627,32.373c-12.496-12.497-32.758-12.497-45.254,0c-12.497,12.497-12.497,32.758,0,45.255
				c12.496,12.497,32.758,12.497,45.254,0C90.124,65.131,90.124,44.87,77.627,32.373z M46.515,63.485
				c-4.686-4.687-4.686-12.285,0-16.971c4.687-4.686,12.284-4.686,16.971,0c4.686,4.686,4.686,12.284,0,16.971
				C58.799,68.172,51.201,68.172,46.515,63.485z"/>
		</g>
		<g>
			<path style="fill:#0081A1;" d="M77.627,77.627c-1.951,1.951-4.087,3.592-6.356,4.928c-7.969-8.548,1.237-10.048-4.957-16.242
				c-1.506-1.506-2.786-1.896-3.917-1.867c0.375-0.29,0.742-0.615,1.089-0.961c4.688-4.688,4.688-12.283,0-16.971
				c-4.688-4.688-12.282-4.688-16.971,0c-1.414,1.415-6.364,4.95-12.02-0.707c-7.778-7.778-2.121-13.435-2.121-13.435
				c12.494-12.495,32.76-12.495,45.254,0C90.122,44.867,90.122,65.133,77.627,77.627z"/>
		</g>
		<g>
			<path style="fill:#E1F5FA;" d="M46.515,46.515c-1.414,1.415-6.364,4.95-12.02-0.707c-7.453-7.452-2.575-12.954-2.153-13.402
				c-12.464,12.5-12.454,32.736,0.032,45.222l14.142-14.142C41.828,58.799,41.828,51.201,46.515,46.515z"/>
		</g>
		<g>
			<path style="fill:#009FC7;" d="M32.373,32.373c-0.012,0.011-0.021,0.022-0.032,0.033c-0.422,0.448-5.3,5.95,2.153,13.402
				c5.656,5.657,10.606,2.122,12.02,0.707c4.689-4.688,12.282-4.688,16.971,0l14.142-14.142
				C65.133,19.878,44.867,19.878,32.373,32.373z"/>
		</g>
		<g>
			<circle style="fill:#00B7E5;" cx="79.042" cy="47.929" r="2"/>
		</g>
		<g>
			<circle style="fill:#00B7E5;" cx="68.435" cy="31.666" r="2"/>
		</g>
		<g>
			<circle style="fill:#00B7E5;" cx="54.293" cy="37.323" r="2"/>
		</g>
		<g>
			<circle style="fill:#00B7E5;" cx="37.322" cy="38.03" r="3.5"/>
		</g>
		<g>
			<circle style="fill:#00B7E5;" cx="77.627" cy="58.536" r="3.5"/>
		</g>
		<g>
			<circle style="fill:#00B7E5;" cx="74.092" cy="71.263" r="2"/>
		</g>
	</g>
</g>
<g id="R-Blue" style="display:none;">
	<circle style="display:inline;fill:#81D2EB;" cx="55" cy="55" r="55"/>
	<g style="display:inline;">
		<g>
			<path style="fill:#81D2EB;" d="M77.627,32.373c-12.496-12.497-32.758-12.497-45.254,0c-12.497,12.497-12.497,32.758,0,45.255
				c12.496,12.497,32.758,12.497,45.254,0C90.124,65.131,90.124,44.87,77.627,32.373z M46.515,63.485
				c-4.686-4.687-4.686-12.285,0-16.971c4.687-4.686,12.284-4.686,16.971,0c4.686,4.686,4.686,12.284,0,16.971
				C58.799,68.172,51.201,68.172,46.515,63.485z"/>
		</g>
		<g>
			<path style="fill:#0081A1;" d="M77.627,77.627c-1.951,1.951-4.087,3.592-6.356,4.928c-7.969-8.548,1.237-10.048-4.957-16.242
				c-1.506-1.506-2.786-1.896-3.917-1.867c0.375-0.29,0.742-0.615,1.089-0.961c4.688-4.688,4.688-12.283,0-16.971
				c-4.688-4.688-12.282-4.688-16.971,0c-1.414,1.415-6.364,4.95-12.02-0.707c-7.778-7.778-2.121-13.435-2.121-13.435
				c12.494-12.495,32.76-12.495,45.254,0C90.122,44.867,90.122,65.133,77.627,77.627z"/>
		</g>
		<g>
			<path style="fill:#E1F5FA;" d="M46.515,46.515c-1.414,1.415-6.364,4.95-12.02-0.707c-7.453-7.452-2.575-12.954-2.153-13.402
				c-12.464,12.5-12.454,32.736,0.032,45.222l14.142-14.142C41.828,58.799,41.828,51.201,46.515,46.515z"/>
		</g>
		<g>
			<path style="fill:#009FC7;" d="M32.373,32.373c-0.012,0.011-0.021,0.022-0.032,0.033c-0.422,0.448-5.3,5.95,2.153,13.402
				c5.656,5.657,10.606,2.122,12.02,0.707c4.689-4.688,12.282-4.688,16.971,0l14.142-14.142
				C65.133,19.878,44.867,19.878,32.373,32.373z"/>
		</g>
		<g>
			<circle style="fill:#00B7E5;" cx="79.042" cy="47.929" r="2"/>
		</g>
		<g>
			<circle style="fill:#00B7E5;" cx="68.435" cy="31.666" r="2"/>
		</g>
		<g>
			<circle style="fill:#00B7E5;" cx="54.293" cy="37.322" r="2"/>
		</g>
		<g>
			<circle style="fill:#00B7E5;" cx="37.322" cy="38.03" r="3.5"/>
		</g>
		<g>
			<circle style="fill:#00B7E5;" cx="77.627" cy="58.536" r="3.5"/>
		</g>
		<g>
			<circle style="fill:#00B7E5;" cx="74.092" cy="71.263" r="2"/>
		</g>
	</g>
</g>
<g id="Green" style="display:none;">
	<g style="display:inline;">
		<g>
			<path style="fill:#77E0C4;" d="M77.627,32.373c-12.496-12.497-32.758-12.497-45.254,0c-12.497,12.497-12.497,32.758,0,45.255
				c12.496,12.497,32.758,12.497,45.254,0C90.124,65.131,90.124,44.87,77.627,32.373z M46.515,63.485
				c-4.686-4.687-4.686-12.285,0-16.971c4.687-4.686,12.284-4.686,16.971,0c4.687,4.686,4.687,12.284,0,16.971
				C58.799,68.172,51.201,68.172,46.515,63.485z"/>
		</g>
		<g>
			<path style="fill:#009687;" d="M77.627,77.627c-1.951,1.951-4.087,3.592-6.356,4.928c-7.969-8.548,1.237-10.048-4.957-16.242
				c-1.506-1.506-2.786-1.896-3.917-1.867c0.375-0.29,0.742-0.615,1.089-0.961c4.688-4.688,4.688-12.283,0-16.971
				c-4.688-4.688-12.282-4.688-16.971,0c-1.414,1.415-6.364,4.95-12.02-0.707c-7.778-7.778-2.121-13.435-2.121-13.435
				c12.494-12.495,32.76-12.495,45.254,0C90.122,44.867,90.122,65.133,77.627,77.627z"/>
		</g>
		<g>
			<path style="fill:#D7FCF9;" d="M46.515,46.515c-1.414,1.415-6.364,4.95-12.02-0.707c-7.453-7.452-2.575-12.954-2.153-13.402
				c-12.464,12.5-12.454,32.736,0.032,45.222l14.142-14.142C41.828,58.799,41.828,51.201,46.515,46.515z"/>
		</g>
		<g>
			<path style="fill:#00B8A5;" d="M32.373,32.373c-0.012,0.011-0.021,0.022-0.032,0.033c-0.422,0.448-5.3,5.95,2.153,13.402
				c5.656,5.657,10.606,2.122,12.02,0.707c4.689-4.688,12.282-4.688,16.971,0l14.142-14.142
				C65.133,19.878,44.867,19.878,32.373,32.373z"/>
		</g>
		<g>
			<circle style="fill:#00D6C1;" cx="79.042" cy="47.929" r="2"/>
		</g>
		<g>
			<circle style="fill:#00D6C1;" cx="68.435" cy="31.666" r="2"/>
		</g>
		<g>
			<circle style="fill:#00D6C1;" cx="54.293" cy="37.322" r="2"/>
		</g>
		<g>
			<circle style="fill:#00D6C1;" cx="37.322" cy="38.03" r="3.5"/>
		</g>
		<g>
			<circle style="fill:#00D6C1;" cx="77.627" cy="58.536" r="3.5"/>
		</g>
		<g>
			<circle style="fill:#00D6C1;" cx="74.092" cy="71.263" r="2"/>
		</g>
	</g>
</g>
<g id="R-Green" style="display:none;">
	<circle style="display:inline;fill:#77E0C4;" cx="55" cy="55" r="55"/>
	<g style="display:inline;">
		<g>
			<path style="fill:#77E0C4;" d="M77.627,32.373c-12.496-12.497-32.758-12.497-45.254,0c-12.497,12.497-12.497,32.758,0,45.255
				c12.496,12.497,32.758,12.497,45.254,0C90.124,65.131,90.124,44.87,77.627,32.373z M46.515,63.485
				c-4.687-4.687-4.687-12.285,0-16.971c4.687-4.686,12.284-4.686,16.971,0c4.686,4.686,4.686,12.284,0,16.971
				C58.799,68.172,51.201,68.172,46.515,63.485z"/>
		</g>
		<g>
			<path style="fill:#009687;" d="M77.627,77.627c-1.951,1.951-4.087,3.592-6.356,4.928c-7.969-8.548,1.237-10.048-4.957-16.242
				c-1.506-1.506-2.786-1.896-3.917-1.867c0.375-0.29,0.742-0.615,1.089-0.961c4.688-4.688,4.688-12.283,0-16.971
				c-4.688-4.688-12.282-4.688-16.971,0c-1.414,1.415-6.364,4.95-12.021-0.707c-7.778-7.778-2.121-13.435-2.121-13.435
				c12.494-12.495,32.76-12.495,45.254,0C90.122,44.867,90.122,65.133,77.627,77.627z"/>
		</g>
		<g>
			<path style="fill:#D7FCF9;" d="M46.515,46.515c-1.414,1.415-6.364,4.95-12.021-0.707c-7.453-7.452-2.575-12.954-2.153-13.402
				c-12.464,12.5-12.454,32.736,0.032,45.222l14.142-14.142C41.828,58.799,41.828,51.201,46.515,46.515z"/>
		</g>
		<g>
			<path style="fill:#00B8A5;" d="M32.373,32.373c-0.012,0.011-0.021,0.022-0.032,0.033c-0.422,0.448-5.3,5.95,2.153,13.402
				c5.656,5.657,10.607,2.122,12.021,0.707c4.688-4.688,12.282-4.688,16.971,0l14.142-14.142
				C65.133,19.878,44.867,19.878,32.373,32.373z"/>
		</g>
		<g>
			<circle style="fill:#00D6C1;" cx="79.042" cy="47.929" r="2"/>
		</g>
		<g>
			<circle style="fill:#00D6C1;" cx="68.435" cy="31.666" r="2"/>
		</g>
		<g>
			<circle style="fill:#00D6C1;" cx="54.293" cy="37.323" r="2"/>
		</g>
		<g>
			<circle style="fill:#00D6C1;" cx="37.322" cy="38.03" r="3.5"/>
		</g>
		<g>
			<circle style="fill:#00D6C1;" cx="77.627" cy="58.536" r="3.5"/>
		</g>
		<g>
			<circle style="fill:#00D6C1;" cx="74.092" cy="71.263" r="2"/>
		</g>
	</g>
</g>
<g id="Red" style="display:none;">
	<g style="display:inline;">
		<g>
			<path style="fill:#FABBAF;" d="M77.627,32.373c-12.496-12.497-32.758-12.497-45.254,0c-12.497,12.497-12.497,32.758,0,45.255
				c12.496,12.497,32.758,12.497,45.254,0C90.124,65.131,90.124,44.87,77.627,32.373z M46.515,63.485
				c-4.686-4.687-4.686-12.285,0-16.971c4.687-4.686,12.284-4.686,16.971,0c4.687,4.686,4.687,12.284,0,16.971
				C58.799,68.172,51.201,68.172,46.515,63.485z"/>
		</g>
		<g>
			<path style="fill:#C23023;" d="M77.627,77.627c-1.951,1.951-4.087,3.592-6.356,4.928c-7.969-8.548,1.237-10.048-4.957-16.242
				c-1.506-1.506-2.786-1.896-3.917-1.867c0.375-0.29,0.742-0.615,1.089-0.961c4.688-4.688,4.688-12.283,0-16.971
				c-4.688-4.688-12.282-4.688-16.971,0c-1.414,1.415-6.364,4.95-12.021-0.707c-7.778-7.778-2.121-13.435-2.121-13.435
				c12.494-12.495,32.76-12.495,45.254,0C90.122,44.867,90.122,65.133,77.627,77.627z"/>
		</g>
		<g>
			<path style="fill:#FFEFED;" d="M46.515,46.515c-1.414,1.415-6.364,4.95-12.021-0.707c-7.453-7.452-2.575-12.954-2.153-13.402
				c-12.464,12.5-12.454,32.736,0.032,45.222l14.142-14.142C41.828,58.799,41.828,51.201,46.515,46.515z"/>
		</g>
		<g>
			<path style="fill:#E54B44;" d="M32.373,32.373c-0.012,0.011-0.021,0.022-0.032,0.033c-0.422,0.448-5.3,5.95,2.153,13.402
				c5.656,5.657,10.607,2.122,12.021,0.707c4.689-4.688,12.282-4.688,16.971,0l14.142-14.142
				C65.133,19.878,44.867,19.878,32.373,32.373z"/>
		</g>
		<g>
			<circle style="fill:#FF6C5E;" cx="79.042" cy="47.929" r="2"/>
		</g>
		<g>
			<circle style="fill:#FF6C5E;" cx="68.435" cy="31.666" r="2"/>
		</g>
		<g>
			<circle style="fill:#FF6C5E;" cx="54.293" cy="37.322" r="2"/>
		</g>
		<g>
			<circle style="fill:#FF6C5E;" cx="37.322" cy="38.03" r="3.5"/>
		</g>
		<g>
			<circle style="fill:#FF6C5E;" cx="77.627" cy="58.536" r="3.5"/>
		</g>
		<g>
			<circle style="fill:#FF6C5E;" cx="74.092" cy="71.263" r="2"/>
		</g>
	</g>
</g>
<g id="R-Red" style="display:none;">
	<circle style="display:inline;fill:#FABBAF;" cx="55" cy="55" r="55"/>
	<g style="display:inline;">
		<g>
			<path style="fill:#FABBAF;" d="M77.627,32.373c-12.496-12.497-32.758-12.497-45.254,0c-12.497,12.497-12.497,32.758,0,45.255
				c12.496,12.497,32.758,12.497,45.254,0C90.124,65.131,90.124,44.87,77.627,32.373z M46.515,63.485
				c-4.686-4.687-4.686-12.285,0-16.971c4.687-4.686,12.284-4.686,16.971,0c4.687,4.686,4.687,12.284,0,16.971
				C58.799,68.172,51.201,68.172,46.515,63.485z"/>
		</g>
		<g>
			<path style="fill:#C23023;" d="M77.627,77.627c-1.951,1.951-4.087,3.592-6.356,4.928c-7.969-8.548,1.237-10.048-4.957-16.242
				c-1.506-1.506-2.786-1.896-3.917-1.867c0.375-0.29,0.742-0.615,1.089-0.961c4.688-4.688,4.688-12.283,0-16.971
				c-4.688-4.688-12.282-4.688-16.971,0c-1.414,1.415-6.364,4.95-12.021-0.707c-7.778-7.778-2.121-13.435-2.121-13.435
				c12.494-12.495,32.76-12.495,45.254,0C90.122,44.867,90.122,65.133,77.627,77.627z"/>
		</g>
		<g>
			<path style="fill:#FFEFED;" d="M46.515,46.515c-1.414,1.415-6.364,4.95-12.021-0.707c-7.453-7.452-2.575-12.954-2.153-13.402
				c-12.464,12.5-12.454,32.736,0.032,45.222l14.142-14.142C41.828,58.799,41.828,51.201,46.515,46.515z"/>
		</g>
		<g>
			<path style="fill:#E54B44;" d="M32.373,32.373c-0.012,0.011-0.021,0.022-0.032,0.033c-0.422,0.448-5.3,5.95,2.153,13.402
				c5.656,5.657,10.607,2.122,12.021,0.707c4.689-4.688,12.282-4.688,16.971,0l14.142-14.142
				C65.133,19.878,44.867,19.878,32.373,32.373z"/>
		</g>
		<g>
			<circle style="fill:#FF6C5E;" cx="79.042" cy="47.929" r="2"/>
		</g>
		<g>
			<circle style="fill:#FF6C5E;" cx="68.435" cy="31.666" r="2"/>
		</g>
		<g>
			<circle style="fill:#FF6C5E;" cx="54.293" cy="37.322" r="2"/>
		</g>
		<g>
			<circle style="fill:#FF6C5E;" cx="37.322" cy="38.03" r="3.5"/>
		</g>
		<g>
			<circle style="fill:#FF6C5E;" cx="77.627" cy="58.536" r="3.5"/>
		</g>
		<g>
			<circle style="fill:#FF6C5E;" cx="74.092" cy="71.263" r="2"/>
		</g>
	</g>
</g>
<g id="Yellow" style="display:none;">
	<g style="display:inline;">
		<g>
			<path style="fill:#FFD75E;" d="M77.627,32.373c-12.496-12.497-32.758-12.497-45.254,0c-12.497,12.497-12.497,32.758,0,45.255
				c12.496,12.497,32.758,12.497,45.254,0C90.124,65.131,90.124,44.87,77.627,32.373z M46.515,63.485
				c-4.687-4.687-4.687-12.285,0-16.971c4.687-4.686,12.284-4.686,16.971,0c4.686,4.686,4.686,12.284,0,16.971
				C58.799,68.172,51.201,68.172,46.515,63.485z"/>
		</g>
		<g>
			<path style="fill:#E07000;" d="M77.627,77.627c-1.951,1.951-4.087,3.592-6.356,4.928c-7.969-8.548,1.237-10.048-4.957-16.242
				c-1.506-1.506-2.786-1.896-3.917-1.867c0.375-0.29,0.742-0.615,1.089-0.961c4.688-4.688,4.688-12.283,0-16.971
				c-4.688-4.688-12.282-4.688-16.971,0c-1.414,1.415-6.364,4.95-12.021-0.707c-7.778-7.778-2.121-13.435-2.121-13.435
				c12.494-12.495,32.76-12.495,45.254,0C90.122,44.867,90.122,65.133,77.627,77.627z"/>
		</g>
		<g>
			<path style="fill:#FFF5D9;" d="M46.515,46.515c-1.414,1.415-6.364,4.95-12.021-0.707c-7.453-7.452-2.575-12.954-2.153-13.402
				c-12.464,12.5-12.454,32.736,0.032,45.222l14.142-14.142C41.828,58.799,41.828,51.201,46.515,46.515z"/>
		</g>
		<g>
			<path style="fill:#FA9200;" d="M32.373,32.373c-0.012,0.011-0.021,0.022-0.032,0.033c-0.422,0.448-5.3,5.95,2.153,13.402
				c5.656,5.657,10.607,2.122,12.021,0.707c4.688-4.688,12.282-4.688,16.971,0l14.142-14.142
				C65.133,19.878,44.867,19.878,32.373,32.373z"/>
		</g>
		<g>
			<circle style="fill:#FFAA00;" cx="79.042" cy="47.929" r="2"/>
		</g>
		<g>
			<circle style="fill:#FFAA00;" cx="68.435" cy="31.666" r="2"/>
		</g>
		<g>
			<circle style="fill:#FFAA00;" cx="54.293" cy="37.323" r="2"/>
		</g>
		<g>
			<circle style="fill:#FFAA00;" cx="37.322" cy="38.03" r="3.5"/>
		</g>
		<g>
			<circle style="fill:#FFAA00;" cx="77.627" cy="58.536" r="3.5"/>
		</g>
		<g>
			<circle style="fill:#FFAA00;" cx="74.092" cy="71.263" r="2"/>
		</g>
	</g>
</g>
<g id="R-Yellow" style="display:none;">
	<circle style="display:inline;fill:#FFD75E;" cx="55" cy="55" r="55"/>
	<g style="display:inline;">
		<g>
			<path style="fill:#FFD75E;" d="M77.627,32.373c-12.496-12.497-32.758-12.497-45.254,0c-12.497,12.497-12.497,32.758,0,45.255
				c12.496,12.497,32.758,12.497,45.254,0C90.124,65.131,90.124,44.87,77.627,32.373z M46.515,63.485
				c-4.686-4.687-4.686-12.285,0-16.971c4.687-4.686,12.284-4.686,16.971,0c4.687,4.686,4.687,12.284,0,16.971
				C58.799,68.172,51.201,68.172,46.515,63.485z"/>
		</g>
		<g>
			<path style="fill:#E07000;" d="M77.627,77.627c-1.951,1.951-4.087,3.592-6.356,4.928c-7.969-8.548,1.237-10.048-4.957-16.242
				c-1.506-1.506-2.786-1.896-3.917-1.867c0.375-0.29,0.742-0.615,1.089-0.961c4.688-4.688,4.688-12.283,0-16.971
				c-4.688-4.688-12.282-4.688-16.971,0c-1.414,1.415-6.364,4.95-12.02-0.707c-7.778-7.778-2.121-13.435-2.121-13.435
				c12.494-12.495,32.76-12.495,45.254,0C90.122,44.867,90.122,65.133,77.627,77.627z"/>
		</g>
		<g>
			<path style="fill:#FFF5D9;" d="M46.515,46.515c-1.414,1.415-6.364,4.95-12.02-0.707c-7.453-7.452-2.575-12.954-2.153-13.402
				c-12.464,12.5-12.454,32.736,0.032,45.222l14.142-14.142C41.828,58.799,41.828,51.201,46.515,46.515z"/>
		</g>
		<g>
			<path style="fill:#FA9200;" d="M32.373,32.373c-0.012,0.011-0.021,0.022-0.032,0.033c-0.422,0.448-5.3,5.95,2.153,13.402
				c5.656,5.657,10.606,2.122,12.02,0.707c4.689-4.688,12.282-4.688,16.971,0l14.142-14.142
				C65.133,19.878,44.867,19.878,32.373,32.373z"/>
		</g>
		<g>
			<circle style="fill:#FFAA00;" cx="79.042" cy="47.929" r="2"/>
		</g>
		<g>
			<circle style="fill:#FFAA00;" cx="68.435" cy="31.666" r="2"/>
		</g>
		<g>
			<circle style="fill:#FFAA00;" cx="54.293" cy="37.323" r="2"/>
		</g>
		<g>
			<circle style="fill:#FFAA00;" cx="37.322" cy="38.03" r="3.5"/>
		</g>
		<g>
			<circle style="fill:#FFAA00;" cx="77.627" cy="58.536" r="3.5"/>
		</g>
		<g>
			<circle style="fill:#FFAA00;" cx="74.092" cy="71.263" r="2"/>
		</g>
	</g>
</g>
</svg>
