<?xml version="1.0" encoding="iso-8859-1"?>
<!-- Generator: Adobe Illustrator 17.1.0, SVG Export Plug-In . SVG Version: 6.00 Build 0)  -->
<!DOCTYPE svg PUBLIC "-//W3C//DTD SVG 1.0//EN" "http://www.w3.org/TR/2001/REC-SVG-20010904/DTD/svg10.dtd">
<svg version="1.0" xmlns="http://www.w3.org/2000/svg" xmlns:xlink="http://www.w3.org/1999/xlink" x="0px" y="0px" width="110px"
	 height="110px" viewBox="0 0 110 110" style="enable-background:new 0 0 110 110;" xml:space="preserve">
<g id="Artboard">
</g>
<g id="Multicolor">
	<circle style="fill:#E04F5F;" cx="55" cy="55" r="55"/>
	<g>
		<g>
			<path style="fill:#F0F1F1;" d="M70.421,51.176C69.965,51.065,69.491,51,69,51H51.16C46.653,51,43,47.347,43,42.84
				C43,36.654,47.854,31,55.16,31c5.429,0,10.149,3.669,11.479,8.923c0.542,2.142,2.718,3.44,4.859,2.896
				c2.142-0.542,3.438-2.718,2.896-4.859C72.165,29.152,64.256,23,55.16,23C43.398,23,35,32.285,35,42.84V51c0,3.917,0,30.027,0,34
				c0,0.45,0.154,0.86,0.404,1.194C35.769,86.681,36.345,87,37,87h36c1.104,0,2-0.896,2-2V57C75,54.177,73.048,51.816,70.421,51.176
				z"/>
		</g>
		<g>
			<path style="fill:#FFFFFF;" d="M69,51H51.16C46.653,51,43,47.347,43,42.84C43,36.654,47.854,31,55.16,31
				c5.429,0,10.149,3.669,11.479,8.923c0.542,2.142,2.718,3.44,4.859,2.896c2.142-0.542,3.438-2.718,2.896-4.859
				C72.165,29.152,64.256,23,55.16,23C43.398,23,35,32.285,35,42.84V51c0,3.917,0,30.027,0,34c0,0.45,0.154,0.86,0.404,1.194
				l35.017-35.018C69.965,51.065,69.491,51,69,51z"/>
		</g>
		<g>
			<path style="fill:#DF2C2C;" d="M60.987,60.611l-2.984,2.984C61.028,64.824,63,67.725,63,71c0,1.335-0.365,2.789-1.113,4.055
				c0,0.001-0.001,0.001-0.001,0.002l-7.673-7.673l-2.829,2.829l7.673,7.673c-0.001,0-0.001,0-0.001,0C57.81,78.623,56.357,79,55,79
				c-3.123,0-6.11-1.819-7.402-5l-2.987,2.987C46.685,80.578,50.556,83,55,83c6.627,0,12-5.373,12-12
				C67,66.556,64.578,62.685,60.987,60.611z"/>
		</g>
		<g>
			<path style="fill:#FA5655;" d="M47,71c0-1.345,0.37-2.797,1.113-4.055c0-0.001,0.001-0.001,0.001-0.002l3.271,3.271l2.829-2.829
				l-3.271-3.271c0.001,0,0.001,0,0.001,0c1.985-1.173,4.579-1.525,7.059-0.519l2.984-2.984C59.224,59.592,57.183,59,55,59
				c-6.627,0-12,5.373-12,12c0,2.183,0.592,4.224,1.611,5.987L47.598,74C47.197,73.009,47,72.111,47,71z"/>
		</g>
	</g>
</g>
</svg>
