<?xml version="1.0" encoding="iso-8859-1"?>
<!-- Generator: Adobe Illustrator 17.1.0, SVG Export Plug-In . SVG Version: 6.00 Build 0)  -->
<!DOCTYPE svg PUBLIC "-//W3C//DTD SVG 1.0//EN" "http://www.w3.org/TR/2001/REC-SVG-20010904/DTD/svg10.dtd">
<svg version="1.0" xmlns="http://www.w3.org/2000/svg" xmlns:xlink="http://www.w3.org/1999/xlink" x="0px" y="0px" width="110px"
	 height="110px" viewBox="0 0 110 110" style="enable-background:new 0 0 110 110;" xml:space="preserve">
<g id="Artboard">
</g>
<g id="Multicolor">
	<circle style="fill:#25B7D3;" cx="55" cy="55" r="55"/>
	<g>
		<g>
			<path style="fill:#DF2C2C;" d="M83,49c0,0,2,6-28,6s-28-6-28-6l4-18h48L83,49z"/>
		</g>
		<path style="fill:#FA5655;" d="M31,31l-4,18c0,0-0.729,2.229,5.486,3.97L54.456,31H31z"/>
		<g>
			<path style="fill:#692E19;" d="M54.603,71.2c0.094-0.126,0.243-0.2,0.4-0.2h0.01c0.148,0,0.287,0.07,0.375,0.188
				c2.129,2.842,5.487,4.691,9.289,4.793l6.916-12.449c0.313-0.564,0.335-1.245,0.059-1.828s-0.817-0.997-1.452-1.112
				c-4.753-0.857-9.506-2.55-14.258-5.08c-0.587-0.313-1.294-0.313-1.881-0.001c-4.753,2.53-9.506,4.224-14.259,5.081
				c-0.635,0.114-1.176,0.528-1.452,1.112c-0.276,0.583-0.255,1.264,0.058,1.828l6.916,12.449
				C49.119,75.88,52.473,74.035,54.603,71.2z"/>
		</g>
		<g>
			<path style="fill:#9CE5F4;" d="M87,87V76.409c0-0.143-0.061-0.28-0.168-0.375c-0.107-0.095-0.25-0.14-0.392-0.122
				c-4.262,0.521-8.466-1.273-11.051-4.724C75.299,71.07,75.16,71,75.013,71h-0.01c-0.157,0-0.306,0.074-0.4,0.2
				C72.412,74.116,68.931,76,65,76c-3.936,0-7.422-1.889-9.612-4.812C55.299,71.07,55.16,71,55.013,71h-0.01
				c-0.157,0-0.306,0.074-0.4,0.2C52.412,74.116,48.931,76,45,76c-3.936,0-7.422-1.889-9.612-4.812C35.299,71.07,35.16,71,35.013,71
				h-0.01c-0.157,0-0.306,0.074-0.4,0.2c-2.591,3.449-6.792,5.231-11.042,4.712c-0.142-0.017-0.285,0.028-0.392,0.123
				C23.061,76.129,23,76.265,23,76.409V87H87z"/>
		</g>
		<path style="fill:#692E19;" d="M81,27H57v-2c0-1.104-0.896-2-2-2s-2,0.896-2,2v2H29c-1.104,0-2,0.896-2,2s0.896,2,2,2h52
			c1.104,0,2-0.896,2-2S82.104,27,81,27z"/>
		<g>
			<path style="fill:#FACB1B;" d="M53,55h2c-0.689,0-1.344-0.006-2-0.013V55z"/>
		</g>
		<g>
			<path style="fill:#FACB1B;" d="M57,55v-0.013C56.344,54.994,55.689,55,55,55H57z"/>
		</g>
		<g>
			<path style="fill:#FACB1B;" d="M53,31v23.987C53.656,54.994,54.311,55,55,55c0.689,0,1.344-0.006,2-0.013V31H53z"/>
		</g>
		<g>
			<path style="fill:#FACB1B;" d="M61,31v23.907c1.418-0.045,2.758-0.103,4-0.177V31H61z"/>
		</g>
		<g>
			<path style="fill:#FACB1B;" d="M69,31v23.417c1.486-0.146,2.811-0.315,4-0.501V31H69z"/>
		</g>
		<g>
			<path style="fill:#FACB1B;" d="M79,31h-2v22.112c1.834-0.476,3.107-0.994,4-1.498V40L79,31z"/>
		</g>
		<g>
			<path style="fill:#FBE158;" d="M31,31l-2,9v11.614c0.892,0.504,2.166,1.022,4,1.498V31H31z"/>
		</g>
		<g>
			<path style="fill:#FACB1B;" d="M37,31v22.916c1.189,0.186,2.514,0.355,4,0.501V31H37z"/>
		</g>
		<g>
			<path style="fill:#FACB1B;" d="M45,31v23.73c1.242,0.074,2.582,0.132,4,0.177V31H45z"/>
		</g>
		<g>
			<path style="fill:#84462D;" d="M55,27H29c-1.104,0-2,0.896-2,2s0.896,2,2,2h26V27z"/>
		</g>
		<g>
			<path style="fill:#84462D;" d="M55,55.277c-0.323,0-0.647,0.078-0.94,0.234c-4.753,2.53-9.506,4.224-14.26,5.081
				c-0.635,0.115-1.176,0.529-1.452,1.112s-0.255,1.264,0.059,1.828l6.916,12.449c3.797-0.101,7.15-1.945,9.28-4.78
				c0.094-0.125,0.241-0.198,0.397-0.199V55.277z"/>
		</g>
		<polygon style="fill:#FBE158;" points="37,48.456 41,44.456 41,31 37,31 		"/>
		<polygon style="fill:#FBE158;" points="49,36.456 49,31 45,31 45,40.456 		"/>
	</g>
</g>
</svg>
