<?xml version="1.0" encoding="iso-8859-1"?>
<!-- Generator: Adobe Illustrator 17.1.0, SVG Export Plug-In . SVG Version: 6.00 Build 0)  -->
<!DOCTYPE svg PUBLIC "-//W3C//DTD SVG 1.0//EN" "http://www.w3.org/TR/2001/REC-SVG-20010904/DTD/svg10.dtd">
<svg version="1.0" xmlns="http://www.w3.org/2000/svg" xmlns:xlink="http://www.w3.org/1999/xlink" x="0px" y="0px" width="110px"
	 height="110px" viewBox="0 0 110 110" style="enable-background:new 0 0 110 110;" xml:space="preserve">
<g id="Artboard">
</g>
<g id="Multicolor">
	<circle style="fill:#FABC3D;" cx="55" cy="55" r="55"/>
	<g>
		<path style="fill:#6FDAF1;" d="M79,63H31V25c0-1.105,0.895-2,2-2h44c1.105,0,2,0.895,2,2V63z"/>
		<rect x="31" y="43" style="fill:#17B198;" width="48" height="20"/>
		<path style="fill:#6FDAF1;" d="M41,43c-1.417,0.75-6.167,3-2,6c-2,2-6,8,4,10c1-3,0-4,0-4s-3,0-3-3c0-2,3-3,3-4s-6.333-1-0.333-5
			C41.167,43,41,43,41,43z"/>
		<path style="fill:#4AC3AF;" d="M39,49c-4.167-3,0.583-5.25,2-6H31v20h0.163l6.413-6.413C35.066,53.982,37.554,50.446,39,49z"/>
		<path style="fill:#40C9E7;" d="M79,31v12H63C63,36.37,72.37,31,79,31z"/>
		<path style="fill:#FFFFFF;" d="M65.995,54.001C65.997,54,65.998,54,66,54c6.76-36.697-27.354-34.239-19.044-3.389
			c-0.066,0.08-0.428,0.511-0.536,0.648C43.03,55.23,39,58.94,39,63h16h16C71,59.886,68.629,56.978,65.995,54.001z"/>
		<path style="fill:#F7B4B4;" d="M59.005,42.227c1.093-1.493,1.983-3.764,1.983-7.227c-1.777-0.893-4.559-2.559-6-4c-2,2-6,4-6,4
			c0,3.463,0.89,5.733,1.983,7.227c0.129,0.177,0.261,0.344,0.395,0.5c-0.31,2.916-2.486,5.577-4.608,8.124
			c1.4,1.43,4.54,4.15,8.23,4.15s6.83-2.72,8.23-4.15C60.974,48.156,59.094,45.345,59.005,42.227z"/>
		<path style="fill:#84462D;" d="M82,63H28c-0.552,0-1,0.448-1,1v4c0,0.552,0.448,1,1,1h14.2l-6.651,16.628
			c-0.124,0.308-0.086,0.657,0.1,0.932S36.145,87,36.477,87h1.846c0.409,0,0.776-0.249,0.928-0.628L42.2,79h25.6l2.949,7.372
			C70.9,86.751,71.268,87,71.677,87h1.846c0.332,0,0.642-0.165,0.828-0.439s0.224-0.624,0.101-0.932L67.8,69H82c0.552,0,1-0.448,1-1
			v-4C83,63.448,82.552,63,82,63z M66.2,75H43.8l2.4-6h17.6L66.2,75z"/>
		<path style="fill:#9C6144;" d="M82,63H28c-0.552,0-1,0.448-1,1v2h56v-2C83,63.448,82.552,63,82,63z"/>
		<path style="fill:#9CE5F4;" d="M31,25v6c0,0,9-1,9,6c1.648,0,4.648,0.685,5.655,3.72c0.403-13.697,11.481-17.606,17.474-9.687
			L71,23H33C31.896,23,31,23.896,31,25z"/>
		<g>
			<path style="fill:#3E3E3F;" d="M71,63H55c4.04,0,7.42-8.48,8.58-11.74C66.97,55.23,71,58.94,71,63z"/>
			<path style="fill:#3E3E3F;" d="M55,63H39c0-4.06,4.03-7.77,7.42-11.74C47.58,54.52,50.96,63,55,63z"/>
		</g>
		<path style="fill:#40C9E7;" d="M31,31c0,0,9-1,9,6c2,0,6,1,6,6c-3,0-15,0-15,0V31z"/>
		<path style="fill:#4AC3AF;" d="M42.667,43c-6,4,0.333,4,0.333,5s-3,2-3,4c0,0.736,0.182,1.29,0.454,1.708l5.853-5.853
			c-0.342-1.721-0.542-3.338-0.623-4.856H42.667z"/>
		<path style="fill:#9CE5F4;" d="M40,52c0-2,3-3,3-4s-6.333-1-0.333-5H41c-1.417,0.75-6.167,3-2,6
			c-1.446,1.446-3.934,4.982-1.424,7.587l2.878-2.878C40.182,53.29,40,52.736,40,52z"/>
		<polygon style="fill:#3E3E3F;" points="62.299,54.512 62.303,54.504 62.299,54.512 		"/>
		<g>
			<path style="fill:#3E3E3F;" d="M63.58,51.26c0.79,0.925,1.614,1.836,2.415,2.741C65.996,54,65.998,54,66,54
				c6.759-36.693-27.338-34.234-19.039-3.394c2.056-2.473,4.106-5.056,4.406-7.879c-0.134-0.156-0.266-0.323-0.395-0.5
				c-1.093-1.493-1.983-3.764-1.983-7.227c0,0,4-2,6-4c1.441,1.441,4.224,3.107,6,4c0,3.463-0.89,5.733-1.983,7.227
				C59.101,45.573,61.371,48.755,63.58,51.26z"/>
		</g>
		<path style="fill:#FBC8C8;" d="M55,31c-2,2-6,4-6,4c0,2.765,0.579,5.666,2.404,7.759l8.399-8.399
			C58.463,33.61,56.307,32.307,55,31z"/>
		<path style="fill:#5B5C5F;" d="M45.684,43c0.081,1.518,0.281,3.135,0.623,4.856c0,0,4.792-4.792,5.097-5.097
			c-0.143-0.164-0.283-0.344-0.421-0.532C49.89,40.733,49,38.463,49,35c0,0,4-2,6-4c1.307,1.307,3.463,2.61,4.804,3.359l3.326-3.326
			C56.813,22.686,44.857,27.482,45.684,43z"/>
	</g>
</g>
</svg>
