<?xml version="1.0" encoding="iso-8859-1"?>
<!-- Generator: Adobe Illustrator 17.1.0, SVG Export Plug-In . SVG Version: 6.00 Build 0)  -->
<!DOCTYPE svg PUBLIC "-//W3C//DTD SVG 1.0//EN" "http://www.w3.org/TR/2001/REC-SVG-20010904/DTD/svg10.dtd">
<svg version="1.0" xmlns="http://www.w3.org/2000/svg" xmlns:xlink="http://www.w3.org/1999/xlink" x="0px" y="0px" width="110px"
	 height="110px" viewBox="0 0 110 110" style="enable-background:new 0 0 110 110;" xml:space="preserve">
<g id="Artboard">
</g>
<g id="Multicolor">
	<circle style="fill:#25B7D3;" cx="55" cy="55" r="55"/>
	<g>
		<g>
			<rect x="27" y="29" style="fill:#D4A263;" width="56" height="46"/>
		</g>
		<g>
			<polygon style="fill:#EDBC7C;" points="62.598,29 27,29 27,64.598 			"/>
		</g>
		<g>
			<rect x="32" y="33" style="fill:#F4D0A1;" width="46" height="10"/>
		</g>
		<g>
			<polygon style="fill:#F8E1C2;" points="32,33 32,43 48.598,43 58.598,33 			"/>
		</g>
		<g>
			<rect x="32" y="47" style="fill:#F4D0A1;" width="46" height="10"/>
		</g>
		<g>
			<polygon style="fill:#F8E1C2;" points="32,47 32,57 34.598,57 44.598,47 			"/>
		</g>
		<g>
			<path style="fill:#EDBC7C;" d="M87,75H23v12h4v-4h4c2.209,0,4-1.791,4-4h40c0,2.209,1.791,4,4,4h4v4h4V75z"/>
		</g>
		<g>
			<rect x="32" y="61" style="fill:#F4D0A1;" width="46" height="10"/>
		</g>
		<g>
			<rect x="23" y="24" style="fill:#84462D;" width="64" height="5"/>
		</g>
		<g>
			<circle style="fill:#84462D;" cx="68" cy="66" r="2"/>
		</g>
		<g>
			<circle style="fill:#84462D;" cx="43" cy="66" r="2"/>
		</g>
		<g>
			<circle style="fill:#84462D;" cx="68" cy="52" r="2"/>
		</g>
		<g>
			<circle style="fill:#84462D;" cx="43" cy="52" r="2"/>
		</g>
		<g>
			<circle style="fill:#84462D;" cx="68" cy="38" r="2"/>
		</g>
		<g>
			<circle style="fill:#9C6144;" cx="43" cy="38" r="2"/>
		</g>
		<g>
			<polygon style="fill:#9C6144;" points="23,24 23,29 62.598,29 67.598,24 			"/>
		</g>
	</g>
</g>
</svg>
