<?xml version="1.0" encoding="iso-8859-1"?>
<!-- Generator: Adobe Illustrator 17.1.0, SVG Export Plug-In . SVG Version: 6.00 Build 0)  -->
<!DOCTYPE svg PUBLIC "-//W3C//DTD SVG 1.0//EN" "http://www.w3.org/TR/2001/REC-SVG-20010904/DTD/svg10.dtd">
<svg version="1.0" xmlns="http://www.w3.org/2000/svg" xmlns:xlink="http://www.w3.org/1999/xlink" x="0px" y="0px" width="110px"
	 height="110px" viewBox="0 0 110 110" style="enable-background:new 0 0 110 110;" xml:space="preserve">
<g id="Artboard">
</g>
<g id="Multicolor">
	<circle style="fill:#E04F5F;" cx="55" cy="55" r="55"/>
	<g>
		<g>
			<rect x="23" y="23" style="fill:#F4D0A1;" width="64" height="64"/>
		</g>
		<g>
			<polygon style="fill:#F8E1C2;" points="23,86.834 86.834,23 23,23 			"/>
		</g>
		<g>
			<g>
				<rect x="57" y="27" style="fill:#D4A263;" width="26" height="16"/>
			</g>
		</g>
		<g>
			<polygon style="fill:#EDBC7C;" points="57,27 57,43 66.834,43 82.834,27 			"/>
		</g>
		<g>
			<g>
				<rect x="27" y="47" style="fill:#D4A263;" width="26" height="16"/>
			</g>
		</g>
		<g>
			<polygon style="fill:#EDBC7C;" points="53,47 27,47 27,63 46.834,63 53,56.834 			"/>
		</g>
		<g>
			<g>
				<rect x="57" y="67" style="fill:#D4A263;" width="26" height="16"/>
			</g>
		</g>
		<g>
			<g>
				<rect x="57" y="47" style="fill:#D4A263;" width="26" height="16"/>
			</g>
		</g>
		<g>
			<g>
				<rect x="27" y="27" style="fill:#EDBC7C;" width="26" height="16"/>
			</g>
		</g>
		<g>
			<path style="fill:#84462D;" d="M45,27h-8v4c0,3,8,3,8,0V27z"/>
		</g>
		<g>
			<path style="fill:#84462D;" d="M73,27h-8v4c0,3,8,3,8,0V27z"/>
		</g>
		<g>
			<path style="fill:#84462D;" d="M45,47h-8v4c0,3,8,3,8,0V47z"/>
		</g>
		<g>
			<path style="fill:#84462D;" d="M73,47h-8v4c0,3,8,3,8,0V47z"/>
		</g>
		<g>
			<path style="fill:#84462D;" d="M73,67h-8v4c0,3,8,3,8,0V67z"/>
		</g>
		<g>
			<polygon style="fill:#EDBC7C;" points="62.834,47 57,47 57,52.834 			"/>
		</g>
		<g>
			<g>
				<rect x="27" y="67" style="fill:#D4A263;" width="26" height="16"/>
			</g>
		</g>
		<g>
			<polygon style="fill:#EDBC7C;" points="42.834,67 27,67 27,82.834 			"/>
		</g>
		<g>
			<path style="fill:#84462D;" d="M45,67h-8v4c0,3,8,3,8,0V67z"/>
		</g>
	</g>
</g>
</svg>
