<?xml version="1.0" encoding="iso-8859-1"?>
<!-- Generator: Adobe Illustrator 17.1.0, SVG Export Plug-In . SVG Version: 6.00 Build 0)  -->
<!DOCTYPE svg PUBLIC "-//W3C//DTD SVG 1.0//EN" "http://www.w3.org/TR/2001/REC-SVG-20010904/DTD/svg10.dtd">
<svg version="1.0" xmlns="http://www.w3.org/2000/svg" xmlns:xlink="http://www.w3.org/1999/xlink" x="0px" y="0px" width="110px"
	 height="110px" viewBox="0 0 110 110" style="enable-background:new 0 0 110 110;" xml:space="preserve">
<g id="Artboard">
</g>
<g id="Multicolor">
	<circle style="fill:#25B7D3;" cx="55" cy="55" r="55"/>
	<g>
		<path style="fill:#3E3E3F;" d="M87.042,67c0,2.209-1.791,4-4,4h-56c-2.209,0-4-1.791-4-4V27c0-2.209,1.791-4,4-4h56
			c2.209,0,4,1.791,4,4V67z"/>
		<path style="fill:#5B5C5F;" d="M81.042,62c0,0.552-0.448,1-1,1h-38c-0.552,0-1-0.448-1-1V32c0-0.552,0.448-1,1-1h38
			c0.552,0,1,0.448,1,1V62z"/>
		<circle style="fill:#818284;" cx="31.042" cy="47" r="4"/>
		<path style="fill:#818284;" d="M78.846,79.511L61.614,56.186l-3.985-2.029l-1.609,1.188l0.768,4.406L74.02,83.076
			c0.328,0.444,0.954,0.538,1.398,0.21l3.217-2.377C79.08,80.581,79.174,79.955,78.846,79.511z"/>
		<circle style="fill:#3E3E3F;" cx="31.042" cy="47" r="2"/>
		<path style="fill:#FFFFFF;" d="M56.44,52.548c-0.328-0.444-0.954-0.538-1.399-0.21c-0.444,0.328-0.538,0.954-0.21,1.399
			l1.188,1.609l1.609-1.188L56.44,52.548z"/>
		<path style="fill:#FFFFFF;" d="M61.788,59.787c-0.328-0.444-0.954-0.538-1.399-0.21c-0.444,0.328-0.538,0.954-0.21,1.399
			l4.159,5.63c0.328,0.444,0.954,0.538,1.399,0.21c0.444-0.328,0.538-0.954,0.21-1.399L61.788,59.787z"/>
		<path style="fill:#3E3E3F;" d="M68.078,75.033l4.826-3.565l5.942,8.043c0.328,0.444,0.234,1.07-0.21,1.399l-3.217,2.377
			c-0.444,0.328-1.07,0.234-1.399-0.21L68.078,75.033z"/>
		<path style="fill:#FFFFFF;" d="M78.234,81.206l-2.413,1.782l0.297,0.402c0.492,0.667,1.432,0.808,2.098,0.315
			c0.667-0.492,0.808-1.431,0.315-2.098L78.234,81.206z"/>
		<path style="fill:#818284;" d="M35.042,32.5c0,0.828-0.672,1.5-1.5,1.5h-5c-0.828,0-1.5-0.672-1.5-1.5c0-0.828,0.672-1.5,1.5-1.5
			h5C34.37,31,35.042,31.672,35.042,32.5z"/>
		<path style="fill:#818284;" d="M35.042,38.5c0,0.828-0.672,1.5-1.5,1.5h-5c-0.828,0-1.5-0.672-1.5-1.5c0-0.828,0.672-1.5,1.5-1.5
			h5C34.37,37,35.042,37.672,35.042,38.5z"/>
		<path style="fill:#818284;" d="M35.042,55.5c0,0.828-0.672,1.5-1.5,1.5h-5c-0.828,0-1.5-0.672-1.5-1.5c0-0.828,0.672-1.5,1.5-1.5
			h5C34.37,54,35.042,54.672,35.042,55.5z"/>
		<path style="fill:#818284;" d="M35.042,61.5c0,0.828-0.672,1.5-1.5,1.5h-5c-0.828,0-1.5-0.672-1.5-1.5c0-0.828,0.672-1.5,1.5-1.5
			h5C34.37,60,35.042,60.672,35.042,61.5z"/>
		<path style="fill:#818284;" d="M42.042,31c-0.552,0-1,0.448-1,1v21.853L63.895,31H42.042z"/>
		<polygon style="fill:#3E3E3F;" points="56.788,59.751 56.02,55.345 57.628,54.157 61.614,56.186 		"/>
	</g>
</g>
</svg>
