<?xml version="1.0" encoding="iso-8859-1"?>
<!-- Generator: Adobe Illustrator 17.1.0, SVG Export Plug-In . SVG Version: 6.00 Build 0)  -->
<!DOCTYPE svg PUBLIC "-//W3C//DTD SVG 1.0//EN" "http://www.w3.org/TR/2001/REC-SVG-20010904/DTD/svg10.dtd">
<svg version="1.0" xmlns="http://www.w3.org/2000/svg" xmlns:xlink="http://www.w3.org/1999/xlink" x="0px" y="0px" width="110px"
	 height="110px" viewBox="0 0 110 110" style="enable-background:new 0 0 110 110;" xml:space="preserve">
<g id="Artboard">
</g>
<g id="Multicolor">
	<circle style="fill:#E04F5F;" cx="55" cy="55" r="55"/>
	<g>
		<g>
			<polygon style="fill:#E2E4E5;" points="40,38 40,44 27,44 23,41 27,38 			"/>
		</g>
		<g>
			<path style="fill:#E2E4E5;" d="M61.333,63H55c-1.582,0-2-1.962-2-3v-5h-2v5c0,2.484,1.374,5,4,5h6.917L61.333,63z"/>
		</g>
		<g>
			<path style="fill:#FACB1B;" d="M75,27H51c-1.984,0-4,1.017-4,4v10v10c0,2.209,1.791,4,4,4h8l4.958,17h13.877
				c-2.138-5.798-2.789-12.134-1.146-17.133C82.221,54.085,87,50.038,87,41C87,31.338,81.251,27,75,27z"/>
		</g>
		<g>
			<path style="fill:#FBE158;" d="M75,27H51c-1.992,0-4,1.033-4,4v10h40C87,31.338,81.251,27,75,27z"/>
		</g>
		<g>
			<polygon style="fill:#B6BCBD;" points="27,38 31,44 34,44 30,38 			"/>
		</g>
		<g>
			<polygon style="fill:#B6BCBD;" points="28,44 27,44 23,41 24.33,40 25,39.5 			"/>
		</g>
		<g>
			<polygon style="fill:#B6BCBD;" points="33,38 37,44 40,44 36,38 			"/>
		</g>
		<g>
			<polygon style="fill:#FFFFFF;" points="35,41 33,38 30,38 32,41 			"/>
		</g>
		<g>
			<polygon style="fill:#FFFFFF;" points="36,38 38,41 40,41 40,38 			"/>
		</g>
		<g>
			<polygon style="fill:#FFFFFF;" points="29,41 27,38 25,39.5 26,41 			"/>
		</g>
		<g>
			<polygon style="fill:#E2E4E5;" points="32,41 30,38 27,38 29,41 			"/>
		</g>
		<g>
			<polygon style="fill:#E2E4E5;" points="25,39.5 23,41 26,41 			"/>
		</g>
		<g>
			<polygon style="fill:#E2E4E5;" points="38,41 36,38 33,38 35,41 			"/>
		</g>
		<g>
			<path style="fill:#3E3E3F;" d="M55,55l0.671,4.027C55.852,60.112,56.9,61,58,61h2.792L59,55H55z"/>
		</g>
		<g>
			<path style="fill:#F69947;" d="M79,35c0,0.55-0.45,1-1,1h-6c-0.55,0-1-0.45-1-1s0.45-1,1-1h6C78.55,34,79,34.45,79,35z"/>
		</g>
		<g>
			<path style="fill:#F69947;" d="M79,41c0,0.55-0.45,1-1,1h-6c-0.55,0-1-0.45-1-1s0.45-1,1-1h6C78.55,40,79,40.45,79,41z"/>
		</g>
		<g>
			<path style="fill:#3E3E3F;" d="M47,51h-0.08C42.546,51,39,47.454,39,43.08v-4.16c0-4.374,3.546-7.92,7.92-7.92H47V51z"/>
		</g>
		<g>
			<path style="fill:#F69947;" d="M79,47c0,0.55-0.45,1-1,1h-6c-0.55,0-1-0.45-1-1s0.45-1,1-1h6C78.55,46,79,46.45,79,47z"/>
		</g>
		<g>
			<path style="fill:#818184;" d="M39,38.92V41h8V31h-0.08C42.546,31,39,34.546,39,38.92z"/>
		</g>
		<g>
			<path style="fill:#3E3E3F;" d="M82,81c0,1.1-0.9,2-2,2H59c-1.1,0-2-0.9-2-2v-7c0-1.1,0.9-2,2-2h21c1.1,0,2,0.9,2,2V81z"/>
		</g>
		<g>
			<path style="fill:#5B5C5F;" d="M80,72H59c-1.1,0-2,0.9-2,2v3h25v-3C82,72.9,81.1,72,80,72z"/>
		</g>
	</g>
</g>
</svg>
