<?xml version="1.0" encoding="iso-8859-1"?>
<!-- Generator: Adobe Illustrator 17.1.0, SVG Export Plug-In . SVG Version: 6.00 Build 0)  -->
<!DOCTYPE svg PUBLIC "-//W3C//DTD SVG 1.0//EN" "http://www.w3.org/TR/2001/REC-SVG-20010904/DTD/svg10.dtd">
<svg version="1.0" xmlns="http://www.w3.org/2000/svg" xmlns:xlink="http://www.w3.org/1999/xlink" x="0px" y="0px" width="110px"
	 height="110px" viewBox="0 0 110 110" style="enable-background:new 0 0 110 110;" xml:space="preserve">
<g id="Artboard">
</g>
<g id="Multicolor">
	<circle style="fill:#32BEA6;" cx="55" cy="55" r="55"/>
	<g>
		<path style="fill:#FACB1B;" d="M55,65c-15.464,0-28,3.582-28,8v6c0,4.42,12.54,8,28,8s28-3.58,28-8v-6C83,68.582,70.464,65,55,65z
			"/>
		<ellipse style="fill:#CFD3D4;" cx="55" cy="73" rx="28" ry="8"/>
		<path style="fill:#DF2C2C;" d="M57,57.024c-1.759,0.027-2.239,0.027-4,0C44.551,56.861,33.711,55.38,29,52v24
			c5.171,3.71,17.071,4.89,24,5.024c0.66,0.01,1.33,0.02,2,0.02s1.34-0.01,2-0.02C65.449,80.861,76.289,79.38,81,76V52
			C75.829,55.71,63.929,56.89,57,57.024z"/>
		<path style="fill:#FFFFFF;" d="M67,56.23v24c-1.28,0.17-2.62,0.32-4,0.44v-24C64.38,56.55,65.72,56.4,67,56.23z"/>
		<path style="fill:#FFFFFF;" d="M77,53.95v24c-1.19,0.43-2.53,0.83-4,1.17v-24C74.47,54.78,75.81,54.38,77,53.95z"/>
		<path style="fill:#FBE158;" d="M27,73v6c0,4.42,12.54,8,28,8V65C39.536,65,27,68.582,27,73z"/>
		<path style="fill:#FA5655;" d="M53,56.98c-8.449-0.164-19.289-1.644-24-5.024v24c5.171,3.71,17.071,4.89,24,5.024
			c0.66,0.01,1.33,0.02,2,0.02V57C54.44,57,53.88,56.993,53,56.98z"/>
		<path style="fill:#FACB1B;" d="M55,35c-15.464,0-28,3.582-28,8v6c0,4.42,12.54,8,28,8s28-3.58,28-8v-6C83,38.582,70.464,35,55,35z
			"/>
		<path style="fill:#F3B607;" d="M83,43c0,0.69-0.31,1.36-0.88,2c-3.11,3.45-14.08,6-27.12,6c-13.04,0-24.01-2.55-27.12-6
			C27.31,44.36,27,43.69,27,43c0-4.42,12.54-8,28-8C70.46,35,83,38.58,83,43z"/>
		<path style="fill:#F0F1F1;" d="M82.12,45c-3.11,3.45-14.08,6-27.12,6c-13.04,0-24.01-2.55-27.12-6c3.11-3.45,14.08-6,27.12-6
			C68.04,39,79.01,41.55,82.12,45z"/>
		<path style="fill:#84462D;" d="M59.88,42.509c-0.654,0.508-0.772,1.451-0.264,2.105s1.451,0.772,2.105,0.264l24.7-19.193
			c0.654-0.508,0.772-1.451,0.264-2.105c-0.508-0.654-1.451-0.772-2.105-0.264L59.88,42.509z"/>
		<path style="fill:#FBE158;" d="M27,43v6c0,4.42,12.54,8,28,8V35C39.536,35,27,38.582,27,43z"/>
		<path style="fill:#FACB1B;" d="M27,43c0,0.69,0.31,1.36,0.88,2c3.11,3.45,14.08,6,27.12,6V35C43.927,35,27,37.516,27,43z"/>
		<path style="fill:#FFFFFF;" d="M27.88,45c3.11,3.45,14.08,6,27.12,6V39C41.96,39,30.99,41.55,27.88,45z"/>
		<path style="fill:#84462D;" d="M50.12,42.509c0.654,0.508,0.772,1.451,0.264,2.105s-1.451,0.772-2.105,0.264l-24.7-19.193
			c-0.654-0.508-0.772-1.451-0.264-2.105c0.508-0.654,1.451-0.772,2.105-0.264L50.12,42.509z"/>
		<path style="fill:#FFFFFF;" d="M37,55.12v24c-1.47-0.34-2.81-0.74-4-1.17v-24C34.19,54.38,35.53,54.78,37,55.12z"/>
		<path style="fill:#FFFFFF;" d="M47,56.67v24c-1.38-0.12-2.72-0.27-4-0.44v-24C44.28,56.4,45.62,56.55,47,56.67z"/>
		<path style="fill:#FFFFFF;" d="M57,56.98v24C56.34,80.99,55.67,81,55,81c-0.67,0-1.34-0.01-2-0.02v-24c0.66,0.01,1.33,0.02,2,0.02
			C55.67,57,56.34,56.99,57,56.98z"/>
	</g>
</g>
</svg>
