<?xml version="1.0" encoding="iso-8859-1"?>
<!-- Generator: Adobe Illustrator 17.1.0, SVG Export Plug-In . SVG Version: 6.00 Build 0)  -->
<!DOCTYPE svg PUBLIC "-//W3C//DTD SVG 1.0//EN" "http://www.w3.org/TR/2001/REC-SVG-20010904/DTD/svg10.dtd">
<svg version="1.0" xmlns="http://www.w3.org/2000/svg" xmlns:xlink="http://www.w3.org/1999/xlink" x="0px" y="0px" width="110px"
	 height="110px" viewBox="0 0 110 110" style="enable-background:new 0 0 110 110;" xml:space="preserve">
<g id="Artboard">
</g>
<g id="Multicolor">
	<circle style="fill:#E04F5F;" cx="55" cy="55" r="55"/>
	<g>
		<path style="fill:#692E19;" d="M75.276,66.146c4.758-4.649,8.691-10.905,11.524-18.248c-1.79,4-15.34,7.1-31.8,7.1
			s-30.01-3.1-31.8-7.1c2.833,7.342,6.767,13.599,11.524,18.248l-6.344,13.48c-0.941,1.999-0.083,4.382,1.916,5.322
			c0.55,0.259,1.13,0.382,1.701,0.382c1.501,0,2.94-0.849,3.622-2.298l5.59-11.878c3.053,1.796,6.332,3.01,9.791,3.539V83
			c0,2.2,1.8,4,4,4s4-1.8,4-4v-8.307c3.459-0.529,6.738-1.743,9.791-3.539l5.59,11.878c0.682,1.449,2.12,2.298,3.622,2.298
			c0.571,0,1.15-0.123,1.701-0.382c1.999-0.94,2.857-3.323,1.916-5.322L75.276,66.146z"/>
		<path style="fill:#84462D;" d="M23.2,47.899c6.24,16.17,17.8,27.1,31.8,27.1v-20C38.54,54.999,24.99,51.899,23.2,47.899z"/>
		<path style="fill:#FACB1B;" d="M55,42.999c-17.673,0-32-3.582-32-8v12c0,4.418,14.327,8,32,8s32-3.582,32-8v-12
			C87,39.417,72.673,42.999,55,42.999z"/>
		<ellipse style="fill:#FBEC9A;" cx="55" cy="34.999" rx="32" ry="8"/>
		<path style="fill:#84462D;" d="M67.635,36.126l-1.822-3.561l16.914-8.655c0.983-0.503,2.188-0.114,2.692,0.869
			s0.114,2.188-0.869,2.692L67.635,36.126z"/>
		<path style="fill:#FFFFFF;" d="M63.122,31.696c0.983-0.503,2.188-0.114,2.692,0.869l1.822,3.561
			c0.503,0.983,0.114,2.188-0.869,2.692l-5.341,2.733c-0.983,0.503-2.188,0.114-2.692-0.869l-1.822-3.561
			c-0.503-0.983-0.114-2.188,0.869-2.692L63.122,31.696z"/>
		<path style="fill:#84462D;" d="M42.365,36.126l1.822-3.561L27.273,23.91c-0.983-0.503-2.188-0.114-2.692,0.869
			c-0.503,0.983-0.114,2.188,0.869,2.692L42.365,36.126z"/>
		<path style="fill:#FFFFFF;" d="M46.878,31.696c-0.983-0.503-2.188-0.114-2.692,0.869l-1.822,3.561
			c-0.503,0.983-0.114,2.188,0.869,2.692l5.341,2.733c0.983,0.503,2.188,0.114,2.692-0.869l1.822-3.561
			c0.503-0.983,0.114-2.188-0.869-2.692L46.878,31.696z"/>
		<path style="fill:#FBEC9A;" d="M75,41.242V54c0,1.104,0.896,2,2,2s2-0.896,2-2V40.288C77.779,40.634,76.441,40.953,75,41.242z"/>
		<path style="fill:#FBE158;" d="M23,34.999v12c0,4.418,14.327,8,32,8v-12C37.327,42.999,23,39.417,23,34.999z"/>
		<path style="fill:#FBEC9A;" d="M53,42.999h4v14c0,1.105-0.895,2-2,2s-2-0.895-2-2V42.999z"/>
		<path style="fill:#FBEC9A;" d="M31,40.288V54c0,1.104,0.896,2,2,2s2-0.896,2-2V41.242C33.559,40.953,32.221,40.634,31,40.288z"/>
	</g>
</g>
</svg>
