<?xml version="1.0" encoding="iso-8859-1"?>
<!-- Generator: Adobe Illustrator 17.1.0, SVG Export Plug-In . SVG Version: 6.00 Build 0)  -->
<!DOCTYPE svg PUBLIC "-//W3C//DTD SVG 1.0//EN" "http://www.w3.org/TR/2001/REC-SVG-20010904/DTD/svg10.dtd">
<svg version="1.0" xmlns="http://www.w3.org/2000/svg" xmlns:xlink="http://www.w3.org/1999/xlink" x="0px" y="0px" width="110px"
	 height="110px" viewBox="0 0 110 110" style="enable-background:new 0 0 110 110;" xml:space="preserve">
<g id="Artboard">
</g>
<g id="Multicolor">
	<circle style="fill:#32BEA6;" cx="55" cy="55" r="55"/>
	<g>
		<g>
			<rect x="39" y="39" style="fill:#FFFFFF;" width="32" height="8"/>
		</g>
		<g>
			<path style="fill:#F7B4B4;" d="M45,47h3l0.895-9.343C49.07,35.827,51,35,52.992,36.55c1.104-1.1,2.912-1.1,4.016,0
				c1.331-1.326,2.661-1.323,3.992,0.008c1.503-1.503,4-0.303,4,1.743V52c0,2.209-2,4-3,4l4,31H45l4-31C46,53,46.278,52.575,45,47z"
				/>
		</g>
		<path style="fill:#3E3E3F;" d="M81,31c-1.104,0-2,0.896-2,2v-2c0-2.209-1.791-4-4-4c-2.209,0-4,1.791-4,4v24c0,2.209,1.791,4,4,4
			c2.209,0,4-1.791,4-4v-2c0,1.104,0.896,2,2,2c1.105,0,2-0.896,2-2V33C83,31.896,82.105,31,81,31z"/>
		<g>
			<path style="fill:#FFFFFF;" d="M87,45c0,1.105-0.895,2-2,2h-2v-8h2c1.105,0,2,0.895,2,2V45z"/>
		</g>
		<path style="fill:#3E3E3F;" d="M35,27c-2.209,0-4,1.791-4,4v2c0-1.104-0.895-2-2-2c-1.104,0-2,0.896-2,2v20c0,1.104,0.896,2,2,2
			c1.105,0,2-0.896,2-2v2c0,2.209,1.791,4,4,4c2.209,0,4-1.791,4-4V31C39,28.791,37.209,27,35,27z"/>
		<g>
			<path style="fill:#FFFFFF;" d="M23,41c0-1.105,0.895-2,2-2h2v8h-2c-1.105,0-2-0.895-2-2V41z"/>
		</g>
		<g>
			<path style="fill:#FBC8C8;" d="M62.091,56.705L62,56c1,0,3-1.791,3-4V38.301c0-2.045-2.497-3.246-4-1.742
				c-1.331-1.331-2.661-1.333-3.992-0.008c-1.104-1.1-2.912-1.1-4.016,0C51,35,49.07,35.828,48.895,37.657L48,47h-3
				c1.278,5.575,1,6,4,9l-2.044,15.839L62.091,56.705z"/>
		</g>
	</g>
</g>
</svg>
