<?xml version="1.0" encoding="iso-8859-1"?>
<!-- Generator: Adobe Illustrator 17.1.0, SVG Export Plug-In . SVG Version: 6.00 Build 0)  -->
<!DOCTYPE svg PUBLIC "-//W3C//DTD SVG 1.0//EN" "http://www.w3.org/TR/2001/REC-SVG-20010904/DTD/svg10.dtd">
<svg version="1.0" xmlns="http://www.w3.org/2000/svg" xmlns:xlink="http://www.w3.org/1999/xlink" x="0px" y="0px" width="110px"
	 height="110px" viewBox="0 0 110 110" style="enable-background:new 0 0 110 110;" xml:space="preserve">
<g id="Artboard">
</g>
<g id="Multicolor">
	<circle style="fill:#FABC3D;" cx="55" cy="55" r="55"/>
	<g>
		<g>
			<path style="fill:#E2E4E5;" d="M85.459,24.453c-0.034-0.035-0.076-0.057-0.111-0.09c-1.952-1.843-5.05-1.82-6.96,0.09
				L24.453,78.388c-1.91,1.91-1.933,5.008-0.09,6.96c0.033,0.035,0.056,0.077,0.09,0.111c1.945,1.945,5.127,1.945,7.071,0
				l53.935-53.935C87.403,29.579,87.403,26.397,85.459,24.453z"/>
		</g>
		<g>
			<path style="fill:#FFFFFF;" d="M78.388,24.453L24.453,78.388c-1.91,1.91-1.933,5.008-0.09,6.96l60.986-60.985
				C83.396,22.52,80.298,22.543,78.388,24.453z"/>
		</g>
		<g>
			<g>
				<path style="fill:#3E3E3F;" d="M48.239,61.25L34.308,47.319c-1.556-1.556-4.101-1.556-5.657,0l-2.828,2.829
					c-1.556,1.556-1.556,4.101,0,5.657l2.828,2.829l-2.828,2.828c-1.556,1.556-1.556,4.102,0,5.657l2.828,2.828l-2.828,2.829
					c-1.556,1.556-1.556,4.101,0,5.657l2.617,2.617l3.04,3.04c1.556,1.556,4.101,1.556,5.657,0l2.828-2.828l2.828,2.828
					c1.556,1.556,4.101,1.556,5.657,0l2.828-2.828l2.828,2.828c1.556,1.556,4.101,1.556,5.657,0l2.828-2.828
					c1.556-1.556,1.556-4.101,0-5.657L48.239,61.25z"/>
			</g>
			<g>
				<path style="fill:#3E3E3F;" d="M84.379,42.503l-2.828-2.829l2.828-2.829c1.556-1.556,1.556-4.101,0-5.657l-3.04-3.04
					l-2.617-2.617c-1.556-1.556-4.101-1.556-5.657,0l-2.828,2.829l-2.828-2.829c-1.556-1.556-4.101-1.556-5.657,0l-2.828,2.829
					l-2.828-2.829c-1.556-1.556-4.101-1.556-5.657,0l-2.828,2.829c-1.556,1.555-1.556,4.101,0,5.657L61.54,47.948l14.354,14.354
					c1.556,1.556,4.101,1.556,5.657,0l2.828-2.829c1.556-1.555,1.556-4.101,0-5.657l-2.828-2.828l2.828-2.829
					C85.935,46.604,85.935,44.059,84.379,42.503z"/>
			</g>
		</g>
		<path style="fill:#5B5C5F;" d="M34.308,47.319c-1.556-1.556-4.101-1.556-5.657,0l-2.828,2.829c-1.556,1.556-1.556,4.101,0,5.657
			l2.828,2.829l-2.828,2.828c-1.556,1.556-1.556,4.102,0,5.657l2.828,2.828l-2.828,2.829c-1.556,1.556-1.556,4.101,0,5.657
			l2.617,2.617l5.657-5.657l5.657-5.657l8.485-8.485L34.308,47.319z"/>
		<path style="fill:#5B5C5F;" d="M78.722,25.532c-1.556-1.556-4.101-1.556-5.657,0l-2.829,2.829l-2.828-2.829
			c-1.555-1.556-4.101-1.556-5.657,0l-2.828,2.829l-2.829-2.829c-1.556-1.556-4.101-1.556-5.657,0l-2.828,2.829
			c-1.556,1.555-1.556,4.101,0,5.657L61.54,47.948l8.485-8.485l5.657-5.657l5.657-5.657L78.722,25.532z"/>
	</g>
</g>
</svg>
