<?xml version="1.0" encoding="iso-8859-1"?>
<!-- Generator: Adobe Illustrator 17.1.0, SVG Export Plug-In . SVG Version: 6.00 Build 0)  -->
<!DOCTYPE svg PUBLIC "-//W3C//DTD SVG 1.0//EN" "http://www.w3.org/TR/2001/REC-SVG-20010904/DTD/svg10.dtd">
<svg version="1.0" xmlns="http://www.w3.org/2000/svg" xmlns:xlink="http://www.w3.org/1999/xlink" x="0px" y="0px" width="110px"
	 height="110px" viewBox="0 0 110 110" style="enable-background:new 0 0 110 110;" xml:space="preserve">
<g id="Artboard">
</g>
<g id="Multicolor">
	<circle style="fill:#32BEA6;" cx="55" cy="55" r="55"/>
	<g>
		<g>
			<path style="fill:#FBE158;" d="M82.32,60.04c-0.046,0.015-28.122,6.249-28.17,6.26L41.88,41h4.88l2,4h26L82.32,60.04z"/>
		</g>
		<g>
			<path style="fill:#F0F1F1;" d="M73,73c-2.298,0-4,1.94-4,4c0,2.209,1.791,4,4,4c2.209,0,4-1.791,4-4S75.209,73,73,73z"/>
		</g>
		<g>
			<path style="fill:#3E3E3F;" d="M37,67c-5.541,0-10,4.497-10,10c0,5.497,4.471,10,10,10c5.523,0,10-4.477,10-10
				C47,71.471,42.497,67,37,67z M37,81c-2.312,0-4-1.96-4-4c0-2.053,1.695-4,4-4c2.146,0,4,1.813,4,4C41,79.209,39.209,81,37,81z"/>
		</g>
		<g>
			<path style="fill:#F0F1F1;" d="M37,73c-2.298,0-4,1.94-4,4c0,2.04,1.688,4,4,4c2.209,0,4-1.791,4-4C41,74.812,39.146,73,37,73z"
				/>
		</g>
		<g>
			<polygon style="fill:#40C9E7;" points="39,47 31,47 25,59 39,59 			"/>
		</g>
		<g>
			<polygon style="fill:#6FDAF1;" points="39,47 31,47 25,59 27.205,59 39,47.205 			"/>
		</g>
		<g>
			<path style="fill:#3E3E3F;" d="M73,67c-5.563,0-10,4.544-10,10c0,5.523,4.477,10,10,10c5.523,0,10-4.477,10-10
				C83,71.394,78.395,67,73,67z M73,81c-2.209,0-4-1.791-4-4c0-2.053,1.695-4,4-4c2.209,0,4,1.791,4,4S75.209,81,73,81z"/>
		</g>
		<g>
			<path style="fill:#FACB1B;" d="M59,79h-8l-4.2-4c-0.916-4.539-4.966-8-9.8-8c-4.84,0-8.87,3.44-9.8,8H25c-1.1,0-2-0.9-2-2V63l2-4
				h14V47h2l9.59,20H51l31.32-6.96L74.76,45h-26l-2-4H31v-4h18.24l2,4h26l9.11,18.15l0.18,0.36l-0.21,0.23l-8.07,8.76
				C76.72,67.56,74.93,67,73,67c-4.84,0-8.87,3.44-9.8,8L59,79z"/>
		</g>
		<g>
			<polygon style="fill:#F3B607;" points="48.845,45 58.685,65.292 62.698,64.4 53.291,45 			"/>
		</g>
		<g>
			<polygon style="fill:#F3B607;" points="57.095,45 66.132,63.637 70.146,62.746 61.541,45 			"/>
		</g>
		<g>
			<polygon style="fill:#F3B607;" points="65.345,45 73.58,61.982 77.593,61.09 69.791,45 			"/>
		</g>
		<g>
			<polygon style="fill:#FBEC9A;" points="71.446,45 48.76,45 46.76,41 41.88,41 52.842,63.604 			"/>
		</g>
		<g>
			<polygon style="fill:#FACB1B;" points="69.791,45 65.345,45 67.337,49.108 70.331,46.115 			"/>
		</g>
		<g>
			<polygon style="fill:#FACB1B;" points="61.541,45 57.095,45 61.781,54.665 64.775,51.671 			"/>
		</g>
		<g>
			<polygon style="fill:#FACB1B;" points="53.291,45 48.845,45 56.226,60.22 59.219,57.227 			"/>
		</g>
		<g>
			<polygon style="fill:#FBE158;" points="49.24,37 31,37 31,41 46.76,41 48.76,45 71.253,45 75.253,41 51.24,41 			"/>
		</g>
	</g>
</g>
</svg>
