<?xml version="1.0" encoding="iso-8859-1"?>
<!-- Generator: Adobe Illustrator 17.1.0, SVG Export Plug-In . SVG Version: 6.00 Build 0)  -->
<!DOCTYPE svg PUBLIC "-//W3C//DTD SVG 1.0//EN" "http://www.w3.org/TR/2001/REC-SVG-20010904/DTD/svg10.dtd">
<svg version="1.0" xmlns="http://www.w3.org/2000/svg" xmlns:xlink="http://www.w3.org/1999/xlink" x="0px" y="0px" width="110px"
	 height="110px" viewBox="0 0 110 110" style="enable-background:new 0 0 110 110;" xml:space="preserve">
<g id="Artboard">
</g>
<g id="Multicolor">
	<circle style="fill:#E04F5F;" cx="55" cy="55" r="55"/>
	<g>
		<path style="fill:#FFFFFF;" d="M79,71c0,2.209-1.791,4-4,4H35c-2.209,0-4-1.791-4-4V39c0-2.209,1.791-4,4-4h40
			c2.209,0,4,1.791,4,4V71z"/>
		<rect x="35" y="39" style="fill:#3E3E3F;" width="40" height="32"/>
		<polygon style="fill:#5B5C5F;" points="66.869,39 35,39 35,70.869 		"/>
		<path style="fill:#E2E4E5;" d="M69,25c0-1.105-0.895-2-2-2H43c-1.105,0-2,0.895-2,2v10h28V25z"/>
		<path style="fill:#E2E4E5;" d="M69,75H41v10c0,1.105,0.895,2,2,2h24c1.105,0,2-0.895,2-2V75z"/>
		<polygon style="fill:#CFD3D4;" points="39,35 41,31 69,31 71,35 		"/>
		<polygon style="fill:#CFD3D4;" points="71,75 69,79 41,79 39,75 		"/>
		<path style="fill:#818284;" d="M72,66c0,0.552-0.448,1-1,1H39c-0.552,0-1-0.448-1-1v-6c0-0.552,0.448-1,1-1h32
			c0.552,0,1,0.448,1,1V66z"/>
		<path style="fill:#17B198;" d="M38.929,59C38.416,59,38,59.448,38,60v6c0,0.552,0.416,1,0.929,1H51v-8H38.929z"/>
		<polygon style="fill:#FFFFFF;" points="49,63 45,60 45,61 40,61 40,65 45,65 45,66 		"/>
		<g>
			<path style="fill:#F0F1F1;" d="M44.458,44.382c1.075,0,2.114,0.348,2.576,1.33c0.14,0.299,0.21,0.648,0.21,1.05v4.929
				c0,0.401-0.07,0.751-0.21,1.05c-0.467,0.993-1.489,1.344-2.576,1.344c-0.958,0-1.9-0.343-2.562-1.064l0.951-1.287
				c0.426,0.406,1.013,0.867,1.597,0.867c0.656,0,1.078-0.261,1.078-0.909v-1.4c-0.361,0.324-0.993,0.476-1.456,0.476
				c-0.822,0-1.419-0.195-1.792-0.588c-0.374-0.392-0.561-0.998-0.561-1.819v-1.597c0-0.392,0.067-0.737,0.203-1.036
				C42.365,44.735,43.375,44.382,44.458,44.382z M45.522,46.762c0-0.326-0.097-0.555-0.289-0.686s-0.454-0.196-0.782-0.196
				c-0.329,0-0.588,0.065-0.775,0.196s-0.282,0.359-0.282,0.686v1.597c0,0.326,0.095,0.553,0.282,0.679s0.446,0.188,0.775,0.188
				c0.328,0,0.59-0.091,0.782-0.272s0.289-0.441,0.289-0.777V46.762z"/>
			<path style="fill:#F0F1F1;" d="M49.834,47.14h1.736v1.988h-1.736V47.14z M49.834,51.984h1.736V54h-1.736V51.984z"/>
			<path style="fill:#F0F1F1;" d="M58.71,49.898h1.246v1.54H58.71V54h-1.736v-2.562h-3.388V50.29l2.548-5.81h2.576V49.898z
				 M56.974,46.006c0,0-1.433,3.79-1.47,3.893h1.47V46.006z"/>
			<path style="fill:#F0F1F1;" d="M63.553,52.46h3.641V54h-5.376v-0.882c0-0.774,0.059-1.562,0.405-2.254
				c0.551-1.102,2.865-2.787,3.052-3.234c0.176-0.414,0.184-1.231-0.202-1.54c-0.835-0.668-1.844-0.054-2.415,0.854l-1.12-1.106
				c0.289-0.467,0.684-0.84,1.183-1.12c1.054-0.59,2.849-0.606,3.725,0.225c0.888,0.842,1,2.721-0.112,3.997
				C65.081,50.361,63.553,50.886,63.553,52.46z"/>
		</g>
	</g>
</g>
</svg>
