<?xml version="1.0" encoding="iso-8859-1"?>
<!-- Generator: Adobe Illustrator 17.1.0, SVG Export Plug-In . SVG Version: 6.00 Build 0)  -->
<!DOCTYPE svg PUBLIC "-//W3C//DTD SVG 1.0//EN" "http://www.w3.org/TR/2001/REC-SVG-20010904/DTD/svg10.dtd">
<svg version="1.0" xmlns="http://www.w3.org/2000/svg" xmlns:xlink="http://www.w3.org/1999/xlink" x="0px" y="0px" width="110px"
	 height="110px" viewBox="0 0 110 110" style="enable-background:new 0 0 110 110;" xml:space="preserve">
<g id="Artboard">
</g>
<g id="Multicolor">
	<circle style="fill:#32BEA6;" cx="55" cy="55" r="55"/>
	<g>
		<g>
			<path style="fill:#DF2C2C;" d="M55,87c-15.451,0-24.636-12.519-23.95-28.06C32.062,39.538,46.208,23,55,23
				c8.792,0,22.938,16.538,23.95,35.94C79.694,75.799,69.258,87,55,87z"/>
		</g>
		<g>
			<path style="fill:#FBE158;" d="M75.78,44.52L71,46.91l-8-4l-8,4l-8-4l-8,4l-4.78-2.39c0.87-2.23,1.89-4.35,3-6.32L39,39.09l8-4
				l8,4l8-4l8,4l1.78-0.89C73.89,40.17,74.91,42.29,75.78,44.52z"/>
		</g>
		<g>
			<path style="fill:#FBE158;" d="M78.95,58.94L71,62.91l-8-4l-8,4l-8-4l-8,4l-7.95-3.97c0.13-2.49,0.47-4.94,1-7.32L39,55.09l8-4
				l8,4l8-4l8,4l6.95-3.47C78.48,54,78.82,56.45,78.95,58.94z"/>
		</g>
		<g>
			<path style="fill:#FBE158;" d="M78.25,67.75c-0.72,3.27-1.99,6.37-3.8,9.09C68.94,78.2,62.23,79,55,79s-13.94-0.8-19.45-2.16
				c-1.81-2.72-3.08-5.82-3.8-9.09C37.83,69.77,46.01,71,55,71S72.17,69.77,78.25,67.75z"/>
		</g>
		<g>
			<circle style="fill:#FA5655;" cx="71" cy="73" r="2"/>
		</g>
		<g>
			<circle style="fill:#FA5655;" cx="61" cy="75" r="2"/>
		</g>
		<g>
			<path style="fill:#FA5655;" d="M47,51.09l8,4v-8.18l-8-4l-8,4l-4.78-2.39c-0.89,2.27-1.62,4.65-2.17,7.1L39,55.09L47,51.09z"/>
		</g>
		<g>
			<path style="fill:#FA5655;" d="M39,62.91l-7.95-3.97C31.02,59.62,31,60.31,31,61c0,2.29,0.25,4.56,0.75,6.75
				C37.83,69.77,46.01,71,55,71v-8.09l-8-4L39,62.91z"/>
		</g>
		<g>
			<path style="fill:#FA5655;" d="M37.22,38.2L39,39.09l8-4l8,4V23C49.62,23,42.35,29.12,37.22,38.2z"/>
		</g>
		<g>
			<path style="fill:#FA5655;" d="M35.55,76.84C39.51,82.86,46.06,87,55,87v-8C47.77,79,41.06,78.2,35.55,76.84z"/>
		</g>
		<g>
			<path style="fill:#FBEC9A;" d="M47,42.91l8,4v-7.82l-8-4l-8,4l-1.78-0.89c-1.11,1.97-2.13,4.09-3,6.32L39,46.91L47,42.91z"/>
		</g>
		<g>
			<path style="fill:#FBEC9A;" d="M47,51.09l-8,4l-6.95-3.47c-0.53,2.38-0.87,4.83-1,7.32L39,62.91l8-4l8,4v-7.82L47,51.09z"/>
		</g>
		<g>
			<path style="fill:#FBEC9A;" d="M35.55,76.84C41.06,78.2,47.77,79,55,79v-8c-8.99,0-17.17-1.23-23.25-3.25
				C32.47,71.02,33.74,74.12,35.55,76.84z"/>
		</g>
		<g>
			<circle style="fill:#F79392;" cx="39" cy="73" r="2"/>
		</g>
		<g>
			<circle style="fill:#F79392;" cx="49" cy="75" r="2"/>
		</g>
	</g>
</g>
</svg>
