<?xml version="1.0" encoding="iso-8859-1"?>
<!-- Generator: Adobe Illustrator 17.1.0, SVG Export Plug-In . SVG Version: 6.00 Build 0)  -->
<!DOCTYPE svg PUBLIC "-//W3C//DTD SVG 1.0//EN" "http://www.w3.org/TR/2001/REC-SVG-20010904/DTD/svg10.dtd">
<svg version="1.0" xmlns="http://www.w3.org/2000/svg" xmlns:xlink="http://www.w3.org/1999/xlink" x="0px" y="0px" width="110px"
	 height="110px" viewBox="0 0 110 110" style="enable-background:new 0 0 110 110;" xml:space="preserve">
<g id="Artboard">
</g>
<g id="Multicolor">
	<circle style="fill:#32BEA6;" cx="55" cy="55" r="55"/>
	<g>
		<g>
			<path style="fill:#F0F1F1;" d="M31,29c0-3.314,2.686-6,6-6h28c3.314,0,6,2.686,6,6v50H31V29z"/>
		</g>
		<g>
			<path style="fill:#FFFFFF;" d="M65.431,23.021C65.288,23.012,65.146,23,65,23H37c-3.313,0-6,2.687-6,6v28.452L65.431,23.021z"/>
		</g>
		<g>
			<g>
				<path style="fill:#12B2A0;" d="M63,65.141c-0.115-4.115-3.887-6.786-6.935-7.529c-5.64-1.376-13.012,1.831-16.479-3.612
					C39.602,53.994,44.715,69.563,63,65.141z"/>
			</g>
			<g>
				<path style="fill:#12B2A0;" d="M39.586,54c0,0-1.976,8.909,5.978,15.776c7.592,6.554,15.584,2.297,17.126-2.357
					C56.785,68.342,44.393,68.381,39.586,54z"/>
			</g>
		</g>
		<g>
			<path style="fill:#E2E4E5;" d="M23,85c0,1.105,0.895,2,2,2h52c1.105,0,2-0.895,2-2v-4c0-1.105-0.895-2-2-2H25
				c-1.105,0-2,0.895-2,2V85z"/>
		</g>
		<g>
			<path style="fill:#3E3E3F;" d="M79,50c0,0.144-0.361,13.815-8,14.921v4.037C80.811,68.128,83,55.115,83,50H79z"/>
		</g>
		<g>
			<path style="fill:#3E3E3F;" d="M35,45c0,2.209,1.791,4,4,4h24c2.209,0,4-1.791,4-4V31c0-2.209-1.791-4-4-4H39
				c-2.209,0-4,1.791-4,4V45z"/>
		</g>
		<g>
			<path style="fill:#FFFFFF;" d="M75,23v5c3.314,0,6,2.686,6,6h-4c-1.105,0-2,0.895-2,2v7l4,7h4l4-7v-8C87,28.373,81.627,23,75,23z
				 M81,43h-3v-4c0-1.105,0.895-2,2-2h1V43z"/>
		</g>
		<g>
			<path style="fill:#5B5C5F;" d="M39,27c-2.209,0-4,1.791-4,4v14c0,2.209,1.791,4,4,4h0.452l22-22H39z"/>
		</g>
		<g>
			<g>
				<path style="fill:#FFFFFF;" d="M39.398,34.852c0.744-1.425,1.976-2.066,3.221-2.066c2.002,0,3.041,1.373,3.041,2.798
					c0,0.847-0.308,1.771-1.129,2.541l-2.002,1.899l1.065-0.218h2.053v2.181h-5.852l-0.577-1.193l3.696-4.158
					c1.219-1.373-0.796-2.682-1.797-0.847L39.398,34.852z"/>
			</g>
			<g>
				<path style="fill:#FFFFFF;" d="M48.149,39.164c0.86,1.052,2.348,0.706,2.4-0.359c0.052-0.924-0.5-1.347-1.193-1.347
					c-0.526,0-1.065,0.205-1.476,0.757h-1.052v-5.3h5.39v2.015h-3.555v1.027c2.207-0.808,4.132,0.603,4.132,2.798
					c0,1.681-1.052,3.375-3.426,3.375c-1.027,0-2.117-0.488-2.849-1.681L48.149,39.164z"/>
			</g>
			<g>
				<path style="fill:#FFFFFF;" d="M54.743,39.51c0.706,0,1.283,0.565,1.283,1.271c0,0.719-0.577,1.296-1.283,1.296
					s-1.271-0.577-1.271-1.296C53.473,40.075,54.038,39.51,54.743,39.51z"/>
			</g>
			<g>
				<path style="fill:#FFFFFF;" d="M58.387,39.164c0.86,1.052,2.348,0.706,2.4-0.359c0.052-0.924-0.5-1.347-1.193-1.347
					c-0.526,0-1.065,0.205-1.476,0.757h-1.052v-5.3h5.39v2.015h-3.554v1.027c2.207-0.808,4.132,0.603,4.132,2.798
					c0,1.681-1.052,3.375-3.426,3.375c-1.027,0-2.117-0.488-2.849-1.681L58.387,39.164z"/>
			</g>
		</g>
	</g>
</g>
</svg>
