<?xml version="1.0" encoding="iso-8859-1"?>
<!-- Generator: Adobe Illustrator 17.1.0, SVG Export Plug-In . SVG Version: 6.00 Build 0)  -->
<!DOCTYPE svg PUBLIC "-//W3C//DTD SVG 1.0//EN" "http://www.w3.org/TR/2001/REC-SVG-20010904/DTD/svg10.dtd">
<svg version="1.0" xmlns="http://www.w3.org/2000/svg" xmlns:xlink="http://www.w3.org/1999/xlink" x="0px" y="0px" width="110px"
	 height="110px" viewBox="0 0 110 110" style="enable-background:new 0 0 110 110;" xml:space="preserve">
<g id="Artboard">
</g>
<g id="Multicolor">
	<circle style="fill:#E04F5F;" cx="55" cy="55" r="55"/>
	<g>
		<path style="fill:#FFFFFF;" d="M77,59h-2l-2.106-8.425C71.781,46.123,67.781,43,63.192,43H46.808
			c-4.588,0-8.588,3.123-9.701,7.575L35,59h-2c-3.313,0-6,2.687-6,6l1,6h54l1-6C83,61.687,80.313,59,77,59z"/>
		<g>
			<path style="fill:#40C9E7;" d="M39,59l3.088-9.265C42.633,48.102,44.161,47,45.883,47h18.234c1.722,0,3.25,1.102,3.795,2.735
				L71,59H39z"/>
		</g>
		<g>
			<path style="fill:#9CE5F4;" d="M45.883,47c-1.722,0-3.25,1.102-3.794,2.735L39,59h5.264l12-12H45.883z"/>
		</g>
		<g>
			<path style="fill:#CFD3D4;" d="M25,75c0,2.209,1.791,4,4,4h52c2.209,0,4-1.791,4-4s-1.791-4-4-4H29C26.791,71,25,72.791,25,75z"
				/>
		</g>
		<g>
			<path style="fill:#3E3E3F;" d="M69,79h10v6c0,1.105-0.895,2-2,2h-6c-1.105,0-2-0.895-2-2V79z"/>
		</g>
		<g>
			<path style="fill:#3E3E3F;" d="M31,79h10v6c0,1.105-0.895,2-2,2h-6c-1.105,0-2-0.895-2-2V79z"/>
		</g>
		<g>
			<path style="fill:#FACB1B;" d="M38,65.833C38,64.269,36.731,63,35.167,63h-7.818C27.127,63.626,27,64.298,27,65l0.611,3.667
				h7.555C36.731,68.667,38,67.398,38,65.833z"/>
		</g>
		<g>
			<path style="fill:#FACB1B;" d="M72,65.833C72,64.269,73.269,63,74.833,63h7.818C82.873,63.626,83,64.298,83,65l-0.611,3.667
				h-7.555C73.269,68.667,72,67.398,72,65.833z"/>
		</g>
		<g>
			<path style="fill:#12B2A0;" d="M79,25.357c-8.216,6.441-18.639-3.078-28-2.313c-24.911,2.035-16.464,33.452,10.397,23.173
				C77.274,40.141,79,25.357,79,25.357"/>
		</g>
		<g>
			<path style="fill:#47C4B7;" d="M51,23.044c-16.244,1.327-18.301,15.146-10.32,21.751l29.947-17.291
				C64.284,26.795,57.395,22.521,51,23.044z"/>
		</g>
		<g>
			<path style="fill:#C2FCF5;" d="M72.992,31.374c-0.018-0.025-19.682,15.613-41.731,0.706c-0.306-0.207-0.701-0.228-1.027-0.056
				c-0.326,0.172-0.532,0.511-0.533,0.88c-0.002,0.661,0.036,1.327,0.115,1.992c0.038,0.32,0.228,0.602,0.51,0.758
				C40.826,41.459,56.11,44.696,72.992,31.374z"/>
		</g>
	</g>
</g>
</svg>
