<?xml version="1.0" encoding="iso-8859-1"?>
<!-- Generator: Adobe Illustrator 17.1.0, SVG Export Plug-In . SVG Version: 6.00 Build 0)  -->
<!DOCTYPE svg PUBLIC "-//W3C//DTD SVG 1.0//EN" "http://www.w3.org/TR/2001/REC-SVG-20010904/DTD/svg10.dtd">
<svg version="1.0" xmlns="http://www.w3.org/2000/svg" xmlns:xlink="http://www.w3.org/1999/xlink" x="0px" y="0px" width="110px"
	 height="110px" viewBox="0 0 110 110" style="enable-background:new 0 0 110 110;" xml:space="preserve">
<g id="Artboard">
</g>
<g id="Multicolor">
	<circle style="fill:#25B7D3;" cx="55" cy="55" r="55"/>
	<g>
		<polygon style="fill:#FFFFFF;" points="39,63 35,35 27,35 23,63 23,87 87,87 87,63 		"/>
		<g>
			<polygon style="fill:#FA5655;" points="25.857,43 36.143,43 35.571,39 26.429,39 			"/>
		</g>
		<g>
			<polygon style="fill:#FA5655;" points="24.714,51 37.286,51 36.714,47 25.286,47 			"/>
		</g>
		<g>
			<polygon style="fill:#FA5655;" points="23.571,59 38.429,59 37.857,55 24.143,55 			"/>
		</g>
		<g>
			<rect x="31" y="71" style="fill:#40C9E7;" width="20" height="8"/>
		</g>
		<g>
			<rect x="59" y="71" style="fill:#40C9E7;" width="20" height="8"/>
		</g>
		<g>
			<path style="fill:#12B2A0;" d="M82.257,23.483c-3.767,9.737-16.545,6.866-24.991,10.974c-21.978,10.69,2.703,38.522,20.53,15.954
				C88.333,37.071,82.257,23.483,82.257,23.483"/>
		</g>
		<g>
			<path style="fill:#47C4B7;" d="M82.257,23.483C78.49,33.22,65.712,30.35,57.266,34.457c-10.933,5.317-10.318,14.875-4.747,20.363
				l31.219-18.025C84.794,29.17,82.257,23.483,82.257,23.483z"/>
		</g>
		<g>
			<path style="fill:#C2FCF5;" d="M80.171,31.726c-0.028-0.012-8.93,23.481-35.502,21.945c-0.369-0.021-0.719,0.162-0.911,0.477
				c-0.192,0.315-0.196,0.711-0.008,1.029c0.336,0.57,0.71,1.122,1.117,1.653c0.196,0.256,0.504,0.401,0.826,0.391
				C57.685,56.841,72.475,51.807,80.171,31.726z"/>
		</g>
	</g>
</g>
</svg>
