<?xml version="1.0" encoding="iso-8859-1"?>
<!-- Generator: Adobe Illustrator 17.1.0, SVG Export Plug-In . SVG Version: 6.00 Build 0)  -->
<!DOCTYPE svg PUBLIC "-//W3C//DTD SVG 1.0//EN" "http://www.w3.org/TR/2001/REC-SVG-20010904/DTD/svg10.dtd">
<svg version="1.0" xmlns="http://www.w3.org/2000/svg" xmlns:xlink="http://www.w3.org/1999/xlink" x="0px" y="0px" width="110px"
	 height="110px" viewBox="0 0 110 110" style="enable-background:new 0 0 110 110;" xml:space="preserve">
<g id="Artboard">
</g>
<g id="Multicolor">
	<circle style="fill:#E04F5F;" cx="55" cy="55" r="55"/>
	<g>
		<path style="fill:#692E19;" d="M52.031,81c-0.672,0-1.338-0.029-2-0.072V83h6v-2.267C54.72,80.903,53.387,81,52.031,81z"/>
		<path style="fill:#84462D;" d="M65.071,83h-24.08c-2.187,0-3.96,1.773-3.96,3.96V87h32v-0.04C69.031,84.773,67.258,83,65.071,83z"
			/>
		<path style="fill:#FFFFFF;" d="M75.632,29.934l-2.928,2.928c3.865,4.654,6.193,10.629,6.193,17.138
			c0,14.814-12.052,26.867-26.867,26.867c-6.509,0-12.483-2.328-17.138-6.193l-2.929,2.928C37.376,78.21,44.382,81,52.031,81
			c17.093,0,31-13.907,31-31C83.031,42.351,80.241,35.346,75.632,29.934z"/>
		<path style="fill:#84462D;" d="M31.299,74.268c-0.976,0.976-2.559,0.976-3.536,0s-0.976-2.559,0-3.536l44.99-44.99
			c0.976-0.976,2.559-0.976,3.536,0s0.976,2.559,0,3.536L31.299,74.268z"/>
		<circle style="fill:#0484AB;" cx="52.031" cy="50" r="24"/>
		<path style="fill:#21B2D1;" d="M35.06,33.029c-9.359,9.359-9.37,24.523-0.039,33.898l33.937-33.937
			C59.583,23.659,44.419,23.67,35.06,33.029z"/>
		<path style="fill:#C9F2F8;" d="M68.273,67.657c0.248-0.219,0.488-0.446,0.728-0.686c0.24-0.24,0.467-0.481,0.686-0.728
			l-6.719-6.719c2.67-2.859,4.662-6.125,5.958-9.598l6.29,6.29c0.205-0.771,0.375-1.549,0.495-2.333l-6.088-6.088
			c1.751-6.098,1.068-12.961,0.636-13.393c-0.389-0.474-0.813-0.926-1.258-1.372c-0.445-0.445-0.898-0.87-1.372-1.258
			c-0.432-0.432-7.295-1.115-13.393,0.636l-6.088-6.088c-0.785,0.12-1.563,0.29-2.333,0.495l6.29,6.29
			c-3.473,1.296-6.739,3.289-9.598,5.958l-6.718-6.718c-0.248,0.219-0.488,0.445-0.729,0.686s-0.467,0.481-0.686,0.729l6.718,6.718
			c-3.21,3.437-5.431,7.467-6.655,11.729l-6.088-6.088c-0.142,0.849-0.233,1.704-0.276,2.553l5.812,5.812
			c-1.06,5.259-0.362,10.839-0.084,11.116c0.389,0.474,0.813,0.926,1.258,1.372c0.445,0.445,0.898,0.87,1.372,1.258
			c0.277,0.277,5.857,0.976,11.116-0.084l5.812,5.812c0.849-0.042,1.704-0.134,2.553-0.276l-6.088-6.088
			c4.262-1.224,8.292-3.445,11.729-6.655L68.273,67.657z M68.096,33.935c0.883,4.015,0.828,8.192-0.14,12.192L55.904,34.075
			C59.904,33.106,64.081,33.052,68.096,33.935z M53.705,34.704l13.622,13.622c-1.181,3.534-3.117,6.866-5.802,9.755L43.95,40.505
			C46.839,37.821,50.171,35.885,53.705,34.704z M35.965,66.065c-0.711-3.232-0.82-6.569-0.331-9.835L45.8,66.397
			C42.535,66.885,39.198,66.776,35.965,66.065z M48.157,65.925L36.105,53.874c1.051-4.344,3.195-8.472,6.431-11.954l17.575,17.575
			C56.629,62.73,52.502,64.874,48.157,65.925z"/>
	</g>
</g>
</svg>
