<?xml version="1.0" encoding="iso-8859-1"?>
<!-- Generator: Adobe Illustrator 17.1.0, SVG Export Plug-In . SVG Version: 6.00 Build 0)  -->
<!DOCTYPE svg PUBLIC "-//W3C//DTD SVG 1.0//EN" "http://www.w3.org/TR/2001/REC-SVG-20010904/DTD/svg10.dtd">
<svg version="1.0" xmlns="http://www.w3.org/2000/svg" xmlns:xlink="http://www.w3.org/1999/xlink" x="0px" y="0px" width="110px"
	 height="110px" viewBox="0 0 110 110" style="enable-background:new 0 0 110 110;" xml:space="preserve">
<g id="Artboard" style="display:none;">
	
		<rect x="-1224.5" y="-674.5" style="display:inline;fill:#808080;stroke:#000000;stroke-miterlimit:10;" width="1392" height="1369"/>
</g>
<g id="R-Multicolor">
	<circle style="fill:#32BEA6;" cx="55" cy="55" r="55"/>
	<g>
		<g>
			<ellipse style="fill:#F4D0A1;" cx="55" cy="51" rx="20" ry="28"/>
		</g>
		<g>
			<path style="fill:#F8E1C2;" d="M35,51c0-15.464,8.954-28,20-28v56C43.954,79,35,66.464,35,51z"/>
		</g>
		<g>
			<path style="fill:#F0F1F1;" d="M61.982,79.584c7.998-3.296,14.329-12,15.013-22.453c0.036-0.552-0.158-1.095-0.537-1.499
				C76.081,55.229,75.552,55,74.998,55H35c-0.553,0-1.082,0.229-1.46,0.634c-0.378,0.404-0.571,0.947-0.535,1.499
				c0.685,10.452,7.015,19.155,15.013,22.451c-4.491,0.809-7.549,2.336-9.564,3.797c-0.702,0.509-0.995,1.413-0.728,2.237
				C37.993,86.442,38.761,87,39.628,87h30.744c0.867,0,1.636-0.558,1.904-1.383c0.268-0.825-0.027-1.728-0.729-2.237
				C69.531,81.92,66.473,80.392,61.982,79.584z"/>
		</g>
		<g>
			<path style="fill:#FFFFFF;" d="M55,55H35c-0.553,0-1.082,0.229-1.46,0.634c-0.378,0.404-0.571,0.947-0.535,1.499
				c0.685,10.452,7.015,19.155,15.013,22.451c-4.491,0.809-7.549,2.336-9.564,3.797c-0.702,0.509-0.995,1.413-0.728,2.237
				C37.993,86.442,38.761,87,39.628,87H55V55z"/>
		</g>
		<g>
			<path style="fill:#FA5655;" d="M34.02,63c0.394,1.39,0.896,2.723,1.481,4h38.998c0.585-1.277,1.087-2.61,1.481-4H34.02z"/>
		</g>
		<g>
			<path style="fill:#F79392;" d="M55,63H34.02c0.394,1.39,0.896,2.723,1.481,4H55V63z"/>
		</g>
	</g>
</g>
<g id="Multicolor" style="display:none;">
	<g style="display:inline;">
		<g>
			<ellipse style="fill:#F4D0A1;" cx="55" cy="51" rx="20" ry="28"/>
		</g>
		<g>
			<path style="fill:#F8E1C2;" d="M35,51c0-15.464,8.954-28,20-28v56C43.954,79,35,66.464,35,51z"/>
		</g>
		<g>
			<path style="fill:#F0F1F1;" d="M61.982,79.584c7.998-3.296,14.329-12,15.013-22.453c0.036-0.552-0.158-1.095-0.537-1.499
				C76.081,55.229,75.552,55,74.998,55H35c-0.553,0-1.082,0.229-1.46,0.634c-0.378,0.404-0.571,0.947-0.535,1.499
				c0.685,10.452,7.015,19.155,15.013,22.451c-4.491,0.809-7.549,2.336-9.564,3.797c-0.702,0.509-0.995,1.413-0.728,2.237
				C37.993,86.442,38.761,87,39.628,87h30.744c0.867,0,1.636-0.558,1.904-1.383c0.268-0.825-0.027-1.728-0.729-2.237
				C69.531,81.92,66.473,80.392,61.982,79.584z"/>
		</g>
		<g>
			<path style="fill:#FFFFFF;" d="M55,55H35c-0.553,0-1.082,0.229-1.46,0.634c-0.378,0.404-0.571,0.947-0.535,1.499
				c0.685,10.452,7.015,19.155,15.013,22.451c-4.491,0.809-7.549,2.336-9.564,3.797c-0.702,0.509-0.995,1.413-0.728,2.237
				C37.993,86.442,38.761,87,39.628,87H55V55z"/>
		</g>
		<g>
			<path style="fill:#FA5655;" d="M34.02,63c0.394,1.39,0.896,2.723,1.481,4h38.998c0.585-1.277,1.087-2.61,1.481-4H34.02z"/>
		</g>
		<g>
			<path style="fill:#F79392;" d="M55,63H34.02c0.394,1.39,0.896,2.723,1.481,4H55V63z"/>
		</g>
	</g>
</g>
<g id="Blue" style="display:none;">
	<g style="display:inline;">
		<g>
			<ellipse style="fill:#BBE7F2;" cx="55" cy="51" rx="20" ry="28"/>
		</g>
		<g>
			<path style="fill:#E1F5FA;" d="M35,51c0-15.464,8.954-28,20-28v56C43.954,79,35,66.464,35,51z"/>
		</g>
		<g>
			<path style="fill:#E1F5FA;" d="M61.982,79.584c7.998-3.296,14.328-12,15.014-22.453c0.036-0.552-0.158-1.095-0.537-1.499
				S75.552,55,74.998,55H35c-0.554,0-1.082,0.229-1.461,0.634c-0.378,0.404-0.57,0.947-0.535,1.499
				c0.686,10.452,7.016,19.155,15.014,22.451c-4.491,0.809-7.549,2.336-9.564,3.797c-0.702,0.508-0.995,1.413-0.728,2.237
				C37.993,86.442,38.761,87,39.628,87h30.744c0.867,0,1.636-0.558,1.904-1.383c0.268-0.825-0.026-1.728-0.729-2.237
				C69.531,81.92,66.474,80.392,61.982,79.584z"/>
		</g>
		<g>
			<path style="fill:#FFFFFF;" d="M55,55H35c-0.554,0-1.082,0.229-1.461,0.634c-0.378,0.404-0.57,0.947-0.535,1.499
				c0.686,10.452,7.016,19.155,15.014,22.451c-4.491,0.809-7.549,2.336-9.564,3.797c-0.702,0.508-0.995,1.413-0.728,2.237
				C37.993,86.442,38.761,87,39.628,87H55V55z"/>
		</g>
		<g>
			<path style="fill:#0081A1;" d="M34.021,63c0.394,1.39,0.896,2.724,1.48,4h38.998c0.585-1.276,1.087-2.61,1.48-4H34.021z"/>
		</g>
		<g>
			<path style="fill:#009FC7;" d="M55,63H34.021c0.394,1.39,0.896,2.724,1.48,4H55V63z"/>
		</g>
	</g>
</g>
<g id="R-Blue" style="display:none;">
	<circle style="display:inline;fill:#81D2EB;" cx="55" cy="55" r="55"/>
	<g style="display:inline;">
		<g>
			<ellipse style="fill:#BBE7F2;" cx="55" cy="51" rx="20" ry="28"/>
		</g>
		<g>
			<path style="fill:#E1F5FA;" d="M35,51c0-15.464,8.954-28,20-28v56C43.954,79,35,66.464,35,51z"/>
		</g>
		<g>
			<path style="fill:#E1F5FA;" d="M61.982,79.583c7.998-3.296,14.328-12,15.014-22.453c0.036-0.552-0.158-1.095-0.537-1.499
				S75.552,55,74.998,55H35c-0.554,0-1.082,0.229-1.461,0.634c-0.378,0.404-0.57,0.947-0.535,1.499
				c0.686,10.452,7.016,19.155,15.014,22.451c-4.491,0.809-7.549,2.336-9.564,3.797c-0.702,0.508-0.995,1.413-0.728,2.237
				C37.993,86.442,38.761,87,39.628,87h30.744c0.867,0,1.636-0.558,1.904-1.383c0.268-0.825-0.026-1.728-0.729-2.237
				C69.531,81.92,66.474,80.392,61.982,79.583z"/>
		</g>
		<g>
			<path style="fill:#FFFFFF;" d="M55,55H35c-0.554,0-1.082,0.229-1.461,0.634c-0.378,0.404-0.57,0.947-0.535,1.499
				c0.686,10.452,7.016,19.155,15.014,22.451c-4.491,0.809-7.549,2.336-9.564,3.797c-0.702,0.508-0.995,1.413-0.728,2.237
				C37.993,86.442,38.761,87,39.628,87H55V55z"/>
		</g>
		<g>
			<path style="fill:#0081A1;" d="M34.021,63c0.394,1.39,0.896,2.724,1.48,4h38.998c0.585-1.276,1.087-2.61,1.48-4H34.021z"/>
		</g>
		<g>
			<path style="fill:#009FC7;" d="M55,63H34.021c0.394,1.39,0.896,2.724,1.48,4H55V63z"/>
		</g>
	</g>
</g>
<g id="Green" style="display:none;">
	<g style="display:inline;">
		<g>
			<ellipse style="fill:#AAF0E9;" cx="55" cy="51" rx="20" ry="28"/>
		</g>
		<g>
			<path style="fill:#D7FCF9;" d="M35,51c0-15.464,8.954-28,20-28v56C43.954,79,35,66.464,35,51z"/>
		</g>
		<g>
			<path style="fill:#D7FCF9;" d="M61.982,79.584c7.998-3.296,14.328-12,15.014-22.453c0.036-0.552-0.158-1.095-0.537-1.499
				C76.08,55.229,75.552,55,74.998,55H35c-0.554,0-1.082,0.229-1.461,0.634c-0.378,0.404-0.57,0.947-0.535,1.499
				c0.686,10.452,7.016,19.155,15.014,22.451c-4.491,0.809-7.549,2.336-9.564,3.797c-0.702,0.508-0.995,1.413-0.728,2.237
				C37.993,86.442,38.761,87,39.628,87h30.744c0.867,0,1.636-0.558,1.904-1.383c0.268-0.825-0.026-1.728-0.729-2.237
				C69.531,81.92,66.474,80.392,61.982,79.584z"/>
		</g>
		<g>
			<path style="fill:#FFFFFF;" d="M55,55H35c-0.554,0-1.082,0.229-1.461,0.634c-0.378,0.404-0.57,0.947-0.535,1.499
				c0.686,10.452,7.016,19.155,15.014,22.451c-4.491,0.809-7.549,2.336-9.564,3.797c-0.702,0.508-0.995,1.413-0.728,2.237
				C37.993,86.442,38.761,87,39.628,87H55V55z"/>
		</g>
		<g>
			<path style="fill:#009687;" d="M34.02,63c0.394,1.39,0.896,2.724,1.48,4h38.998c0.585-1.276,1.087-2.61,1.48-4H34.02z"/>
		</g>
		<g>
			<path style="fill:#00B8A5;" d="M55,63H34.02c0.394,1.39,0.896,2.724,1.48,4H55V63z"/>
		</g>
	</g>
</g>
<g id="R-Green" style="display:none;">
	<circle style="display:inline;fill:#77E0C4;" cx="55" cy="55" r="55"/>
	<g style="display:inline;">
		<g>
			<ellipse style="fill:#AAF0E9;" cx="55" cy="51" rx="20" ry="28"/>
		</g>
		<g>
			<path style="fill:#D7FCF9;" d="M35,51c0-15.464,8.954-28,20-28v56C43.954,79,35,66.464,35,51z"/>
		</g>
		<g>
			<path style="fill:#D7FCF9;" d="M61.982,79.584c7.998-3.296,14.328-12,15.014-22.453c0.036-0.552-0.158-1.095-0.537-1.499
				S75.552,55,74.998,55H35c-0.554,0-1.082,0.229-1.461,0.634c-0.378,0.404-0.57,0.947-0.535,1.499
				c0.686,10.452,7.016,19.155,15.014,22.451c-4.491,0.809-7.549,2.336-9.565,3.797c-0.702,0.508-0.995,1.413-0.727,2.237
				C37.993,86.442,38.761,87,39.628,87h30.744c0.867,0,1.636-0.558,1.904-1.383c0.268-0.825-0.026-1.728-0.729-2.237
				C69.531,81.92,66.474,80.392,61.982,79.584z"/>
		</g>
		<g>
			<path style="fill:#FFFFFF;" d="M55,55H35c-0.554,0-1.082,0.229-1.461,0.634c-0.378,0.404-0.57,0.947-0.535,1.499
				c0.686,10.452,7.016,19.155,15.014,22.451c-4.491,0.809-7.549,2.336-9.565,3.797c-0.702,0.508-0.995,1.413-0.727,2.237
				C37.993,86.442,38.761,87,39.628,87H55V55z"/>
		</g>
		<g>
			<path style="fill:#009687;" d="M34.021,63c0.394,1.39,0.896,2.724,1.48,4h38.998c0.585-1.276,1.087-2.61,1.48-4H34.021z"/>
		</g>
		<g>
			<path style="fill:#00B8A5;" d="M55,63H34.021c0.394,1.39,0.896,2.724,1.48,4H55V63z"/>
		</g>
	</g>
</g>
<g id="Red" style="display:none;">
	<g style="display:inline;">
		<g>
			<ellipse style="fill:#FFD7D4;" cx="55" cy="51" rx="20" ry="28"/>
		</g>
		<g>
			<path style="fill:#FFEFED;" d="M35,51c0-15.464,8.954-28,20-28v56C43.954,79,35,66.464,35,51z"/>
		</g>
		<g>
			<path style="fill:#FFEFED;" d="M61.982,79.584c7.998-3.296,14.328-12,15.014-22.453c0.036-0.552-0.158-1.095-0.537-1.499
				C76.08,55.229,75.552,55,74.998,55H35c-0.554,0-1.082,0.229-1.461,0.634c-0.378,0.404-0.57,0.947-0.535,1.499
				c0.686,10.452,7.016,19.155,15.014,22.451c-4.491,0.809-7.549,2.336-9.565,3.797c-0.702,0.508-0.995,1.413-0.727,2.237
				C37.993,86.442,38.761,87,39.628,87h30.744c0.867,0,1.636-0.558,1.904-1.383c0.268-0.825-0.026-1.728-0.729-2.237
				C69.531,81.92,66.474,80.392,61.982,79.584z"/>
		</g>
		<g>
			<path style="fill:#FFFFFF;" d="M55,55H35c-0.554,0-1.082,0.229-1.461,0.634c-0.378,0.404-0.57,0.947-0.535,1.499
				c0.686,10.452,7.016,19.155,15.014,22.451c-4.491,0.809-7.549,2.336-9.565,3.797c-0.702,0.508-0.995,1.413-0.727,2.237
				C37.993,86.442,38.761,87,39.628,87H55V55z"/>
		</g>
		<g>
			<path style="fill:#C23023;" d="M34.021,63c0.394,1.39,0.896,2.724,1.48,4h38.998c0.585-1.276,1.087-2.61,1.48-4H34.021z"/>
		</g>
		<g>
			<path style="fill:#E54B44;" d="M55,63H34.021c0.394,1.39,0.896,2.724,1.48,4H55V63z"/>
		</g>
	</g>
</g>
<g id="R-Red" style="display:none;">
	<circle style="display:inline;fill:#FABBAF;" cx="55" cy="55" r="55"/>
	<g style="display:inline;">
		<g>
			<ellipse style="fill:#FFD7D4;" cx="55" cy="51" rx="20" ry="28"/>
		</g>
		<g>
			<path style="fill:#FFEFED;" d="M35,51c0-15.464,8.954-28,20-28v56C43.954,79,35,66.464,35,51z"/>
		</g>
		<g>
			<path style="fill:#FFEFED;" d="M61.982,79.584c7.998-3.296,14.328-12,15.014-22.453c0.036-0.552-0.158-1.095-0.537-1.499
				C76.08,55.229,75.552,55,74.998,55H35c-0.554,0-1.082,0.229-1.461,0.634c-0.378,0.404-0.57,0.947-0.535,1.499
				c0.686,10.452,7.016,19.155,15.014,22.451c-4.491,0.809-7.549,2.336-9.565,3.797c-0.702,0.508-0.995,1.413-0.727,2.237
				C37.993,86.442,38.761,87,39.628,87h30.744c0.867,0,1.636-0.558,1.904-1.383c0.268-0.825-0.026-1.728-0.729-2.237
				C69.531,81.92,66.474,80.392,61.982,79.584z"/>
		</g>
		<g>
			<path style="fill:#FFFFFF;" d="M55,55H35c-0.554,0-1.082,0.229-1.461,0.634c-0.378,0.404-0.57,0.947-0.535,1.499
				c0.686,10.452,7.016,19.155,15.014,22.451c-4.491,0.809-7.549,2.336-9.565,3.797c-0.702,0.508-0.995,1.413-0.727,2.237
				C37.993,86.442,38.761,87,39.628,87H55V55z"/>
		</g>
		<g>
			<path style="fill:#C23023;" d="M34.021,63c0.394,1.39,0.896,2.724,1.48,4h38.998c0.585-1.276,1.087-2.61,1.48-4H34.021z"/>
		</g>
		<g>
			<path style="fill:#E54B44;" d="M55,63H34.021c0.394,1.39,0.896,2.724,1.48,4H55V63z"/>
		</g>
	</g>
</g>
<g id="Yellow" style="display:none;">
	<g style="display:inline;">
		<g>
			<ellipse style="fill:#FFE9A1;" cx="55" cy="51" rx="20" ry="28"/>
		</g>
		<g>
			<path style="fill:#FFF5D9;" d="M35,51c0-15.464,8.954-28,20-28v56C43.954,79,35,66.464,35,51z"/>
		</g>
		<g>
			<path style="fill:#FFF5D9;" d="M61.982,79.584c7.998-3.296,14.328-12,15.014-22.453c0.036-0.552-0.158-1.095-0.537-1.499
				S75.552,55,74.998,55H35c-0.554,0-1.082,0.229-1.461,0.634c-0.378,0.404-0.57,0.947-0.535,1.499
				c0.686,10.452,7.016,19.155,15.014,22.451c-4.491,0.809-7.549,2.336-9.565,3.797c-0.702,0.508-0.995,1.413-0.727,2.237
				C37.993,86.442,38.761,87,39.628,87h30.744c0.867,0,1.636-0.558,1.904-1.383c0.268-0.825-0.026-1.728-0.729-2.237
				C69.531,81.92,66.474,80.392,61.982,79.584z"/>
		</g>
		<g>
			<path style="fill:#FFFFFF;" d="M55,55H35c-0.554,0-1.082,0.229-1.461,0.634c-0.378,0.404-0.57,0.947-0.535,1.499
				c0.686,10.452,7.016,19.155,15.014,22.451c-4.491,0.809-7.549,2.336-9.565,3.797c-0.702,0.508-0.995,1.413-0.727,2.237
				C37.993,86.442,38.761,87,39.628,87H55V55z"/>
		</g>
		<g>
			<path style="fill:#E07000;" d="M34.021,63c0.394,1.39,0.896,2.724,1.48,4h38.998c0.585-1.276,1.087-2.61,1.48-4H34.021z"/>
		</g>
		<g>
			<path style="fill:#FA9200;" d="M55,63H34.021c0.394,1.39,0.896,2.724,1.48,4H55V63z"/>
		</g>
	</g>
</g>
<g id="R-Yellow" style="display:none;">
	<circle style="display:inline;fill:#FFD75E;" cx="55" cy="55" r="55"/>
	<g style="display:inline;">
		<g>
			<ellipse style="fill:#FFE9A1;" cx="55" cy="51" rx="20" ry="28"/>
		</g>
		<g>
			<path style="fill:#FFF5D9;" d="M35,51c0-15.464,8.954-28,20-28v56C43.954,79,35,66.464,35,51z"/>
		</g>
		<g>
			<path style="fill:#FFF5D9;" d="M61.982,79.584c7.998-3.296,14.328-12,15.014-22.453c0.036-0.552-0.158-1.095-0.537-1.499
				C76.08,55.229,75.552,55,74.998,55H35c-0.554,0-1.082,0.229-1.461,0.634c-0.378,0.404-0.57,0.947-0.535,1.499
				c0.686,10.452,7.016,19.155,15.014,22.451c-4.491,0.809-7.549,2.336-9.564,3.797c-0.702,0.508-0.995,1.413-0.728,2.237
				C37.993,86.442,38.761,87,39.628,87h30.744c0.867,0,1.636-0.558,1.904-1.383c0.268-0.825-0.026-1.728-0.729-2.237
				C69.531,81.92,66.474,80.392,61.982,79.584z"/>
		</g>
		<g>
			<path style="fill:#FFFFFF;" d="M55,55H35c-0.554,0-1.082,0.229-1.461,0.634c-0.378,0.404-0.57,0.947-0.535,1.499
				c0.686,10.452,7.016,19.155,15.014,22.451c-4.491,0.809-7.549,2.336-9.564,3.797c-0.702,0.508-0.995,1.413-0.728,2.237
				C37.993,86.442,38.761,87,39.628,87H55V55z"/>
		</g>
		<g>
			<path style="fill:#E07000;" d="M34.02,63c0.394,1.39,0.896,2.724,1.48,4h38.998c0.585-1.276,1.087-2.61,1.48-4H34.02z"/>
		</g>
		<g>
			<path style="fill:#FA9200;" d="M55,63H34.02c0.394,1.39,0.896,2.724,1.48,4H55V63z"/>
		</g>
	</g>
</g>
</svg>
