<?xml version="1.0" encoding="iso-8859-1"?>
<!-- Generator: Adobe Illustrator 17.1.0, SVG Export Plug-In . SVG Version: 6.00 Build 0)  -->
<!DOCTYPE svg PUBLIC "-//W3C//DTD SVG 1.0//EN" "http://www.w3.org/TR/2001/REC-SVG-20010904/DTD/svg10.dtd">
<svg version="1.0" xmlns="http://www.w3.org/2000/svg" xmlns:xlink="http://www.w3.org/1999/xlink" x="0px" y="0px" width="110px"
	 height="110px" viewBox="0 0 110 110" style="enable-background:new 0 0 110 110;" xml:space="preserve">
<g id="Artboard">
</g>
<g id="Multicolor">
	<circle style="fill:#E04F5F;" cx="55" cy="55" r="55"/>
	<g>
		<g>
			<path style="fill:#3E3E3F;" d="M39,63c0-2.209-1.791-4-4-4h-4c-2.209,0-4,1.791-4,4v20c0,2.209,1.791,4,4,4h4
				c2.209,0,4-1.791,4-4V63z"/>
		</g>
		<g>
			<path style="fill:#3E3E3F;" d="M83,63c0-2.209-1.791-4-4-4h-4c-2.209,0-4,1.791-4,4v20c0,2.209,1.791,4,4,4h4
				c2.209,0,4-1.791,4-4V63z"/>
		</g>
		<g>
			<path style="fill:#CFD3D4;" d="M69.46,81.01C68.32,82.28,66.7,83,65,83H45c-1.7,0-3.32-0.72-4.46-1.99
				C38.347,78.576,39.096,76,39.28,75L42,60.36c0.33-3.05,2.9-5.36,5.97-5.36h14.06c3.07,0,5.64,2.31,5.97,5.36L70.72,75
				C70.904,76,71.653,78.576,69.46,81.01z"/>
		</g>
		<g>
			<path style="fill:#CFD3D4;" d="M71,34c-4,7-28,7-32,0v-5c0-1.105,0.895-2,2-2h28c1.105,0,2,0.895,2,2V34z"/>
		</g>
		<g>
			<path style="fill:#3E3E3F;" d="M27,31.5c0-1.381,1.119-2.5,2.5-2.5H39v5h-9.5C28.119,34,27,32.881,27,31.5z"/>
		</g>
		<g>
			<path style="fill:#3E3E3F;" d="M83,31.5c0,1.381-1.119,2.5-2.5,2.5H71v-5h9.5C81.881,29,83,30.119,83,31.5z"/>
		</g>
		<g>
			<path style="fill:#F0F1F1;" d="M70.72,74.818H61c-1.104,0-2-0.896-2-2V39l5-12c-6-5.333-12-5.333-18,0l5,12v33.818
				c0,1.104-0.896,2-2,2h-9.72c-0.18,1.001-0.961,3.625,1.26,6.147C41.68,82.264,43.3,83,45,83h20c1.7,0,3.32-0.736,4.46-2.035
				C71.643,78.486,70.91,75.877,70.72,74.818z"/>
		</g>
		<g>
			<path style="fill:#FFFFFF;" d="M55,23c-3,0-6,1.333-9,4l5,12v33.818c0,1.104-0.896,2-2,2h-9.72
				c-0.18,1.001-0.96,3.625,1.26,6.147C41.68,82.264,43.3,83,45,83h10V23z"/>
		</g>
	</g>
</g>
</svg>
