<?xml version="1.0" encoding="iso-8859-1"?>
<!-- Generator: Adobe Illustrator 17.1.0, SVG Export Plug-In . SVG Version: 6.00 Build 0)  -->
<!DOCTYPE svg PUBLIC "-//W3C//DTD SVG 1.0//EN" "http://www.w3.org/TR/2001/REC-SVG-20010904/DTD/svg10.dtd">
<svg version="1.0" xmlns="http://www.w3.org/2000/svg" xmlns:xlink="http://www.w3.org/1999/xlink" x="0px" y="0px" width="110px"
	 height="110px" viewBox="0 0 110 110" style="enable-background:new 0 0 110 110;" xml:space="preserve">
<g id="Artboard">
</g>
<g id="Multicolor">
	<circle style="fill:#25B7D3;" cx="55" cy="55" r="55"/>
	<g>
		<path style="fill:#3E3E3F;" d="M73.658,37.071l10.529-3.692c1.412-0.495,2.155-2.041,1.66-3.453l-1.793-5.112
			c-0.495-1.412-2.041-2.155-3.453-1.66l-22.76,7.982C63.712,31.667,69.129,33.791,73.658,37.071z"/>
		<g>
			<path style="fill:#F0F1F1;" d="M74.777,66.183c0.053-0.596,0.091-1.197,0.091-1.807c0-0.464-0.038-0.919-0.07-1.376h-1.975
				c-1.02,0-1.875-0.763-1.988-1.777C69.949,53.234,63.156,47,54.934,47c-8.222,0-15.015,6.234-15.902,14.223
				C38.92,62.235,38.063,63,37.044,63h-2.089c-0.023,0.341-0.063,0.677-0.069,1.022c-3.705,5.329-0.415,10.077-0.415,10.077
				s0.258-2.499,1.313-3.731c0.458,1.461,1.095,2.839,1.859,4.134c-0.381,6.485,4.908,8.818,4.908,8.818s-1.097-2.29-0.824-3.893
				c1.146,1.002,2.399,1.883,3.754,2.605c3.065,5.701,8.776,4.932,8.776,4.932s-2.132-1.38-2.737-2.89
				c1.091,0.185,2.205,0.302,3.348,0.302c0.398,0,0.786-0.037,1.178-0.06c5.608,3.299,10.096-0.357,10.096-0.357
				s-2.526-0.063-3.833-1.029c1.423-0.571,2.763-1.298,4.002-2.165c6.484-0.13,8.397-5.576,8.397-5.576s-2.201,1.272-3.821,1.123
				c0.909-1.218,1.692-2.533,2.307-3.942c5.449-3.497,4.24-9.134,4.24-9.134S76.23,65.458,74.777,66.183z M54.868,68.376
				c-2.209,0-4-1.791-4-4s1.791-4,4-4s4,1.791,4,4S57.077,68.376,54.868,68.376z"/>
		</g>
		<g>
			<path style="fill:#CFD3D4;" d="M54.868,52.376c-6.627,0-12,5.373-12,12c0,6.627,5.373,12,12,12s12-5.373,12-12
				C66.868,57.749,61.496,52.376,54.868,52.376z M54.868,68.376c-2.209,0-4-1.791-4-4c0-2.209,1.791-4,4-4s4,1.791,4,4
				C58.868,66.585,57.077,68.376,54.868,68.376z"/>
		</g>
		<path style="fill:#5B5C5F;" d="M67.242,33.469l17.804-5.825l-0.992-2.831c-0.495-1.412-2.041-2.155-3.453-1.66l-22.76,7.982
			C61.144,31.435,64.303,32.239,67.242,33.469z"/>
		<g>
			<path style="fill:#FACB1B;" d="M84.868,63c0.554,0,1.083-0.23,1.461-0.634c0.378-0.404,0.571-0.948,0.535-1.5
				C85.762,44.212,71.862,31,54.934,31s-30.828,13.212-31.93,29.866c-0.037,0.552,0.158,1.095,0.535,1.499
				C23.918,62.769,24.447,63,25,63H84.868z"/>
		</g>
		<g>
			<path style="fill:#FBE158;" d="M54.868,31.001C37.97,31.036,24.105,44.234,23.004,60.866c-0.036,0.552,0.158,1.094,0.536,1.499
				S24.447,63,25,63h29.868V31.001z"/>
		</g>
		<g>
			<path style="fill:#F3B607;" d="M23.004,60.866c-0.036,0.552,0.158,1.094,0.536,1.499S24.447,63,25,63h59.868
				c0.554,0,1.083-0.229,1.461-0.634c0.378-0.405,0.571-0.948,0.535-1.5c-0.11-1.66-0.352-3.284-0.707-4.866H23.711
				C23.357,57.582,23.114,59.206,23.004,60.866z"/>
		</g>
		<g>
			<path style="fill:#FACB1B;" d="M54.868,56H23.711c-0.354,1.582-0.597,3.206-0.707,4.866c-0.036,0.552,0.158,1.094,0.536,1.499
				S24.447,63,25,63h29.868V56z"/>
		</g>
	</g>
</g>
</svg>
