<?xml version="1.0" encoding="iso-8859-1"?>
<!-- Generator: Adobe Illustrator 17.1.0, SVG Export Plug-In . SVG Version: 6.00 Build 0)  -->
<!DOCTYPE svg PUBLIC "-//W3C//DTD SVG 1.0//EN" "http://www.w3.org/TR/2001/REC-SVG-20010904/DTD/svg10.dtd">
<svg version="1.0" xmlns="http://www.w3.org/2000/svg" xmlns:xlink="http://www.w3.org/1999/xlink" x="0px" y="0px" width="110px"
	 height="110px" viewBox="0 0 110 110" style="enable-background:new 0 0 110 110;" xml:space="preserve">
<g id="Artboard">
</g>
<g id="Multicolor">
	<circle style="fill:#25B7D3;" cx="55" cy="55" r="55"/>
	<g>
		<g>
			<path style="fill:#F0F1F1;" d="M83.157,67.456L65.587,55l17.57-12.456c0.901-0.639,1.114-1.887,0.475-2.789l-4.627-6.526
				c-0.639-0.901-1.887-1.113-2.788-0.475L61.213,43.392V25c0-1.104-0.895-2-2-2H51c-1.104,0-2,0.896-2,2v18.392L34.209,32.755
				c-0.901-0.639-2.149-0.426-2.788,0.475l-4.627,6.526c-0.639,0.901-0.426,2.149,0.475,2.789L44.838,55l-17.57,12.456
				c-0.901,0.639-1.114,1.887-0.475,2.789l4.627,6.526c0.639,0.901,1.887,1.113,2.788,0.475L49,66.608V85c0,1.104,0.896,2,2,2h8.213
				c1.105,0,2-0.896,2-2V66.608l15.004,10.637c0.901,0.639,2.149,0.426,2.788-0.475l4.627-6.526
				C84.27,69.343,84.058,68.095,83.157,67.456z"/>
		</g>
		<g>
			<path style="fill:#FFFFFF;" d="M55,23h-4c-1.104,0-2,0.896-2,2v18.392L34.209,32.755c-0.901-0.639-2.149-0.426-2.788,0.475
				l-4.627,6.526c-0.639,0.901-0.426,2.149,0.475,2.789L44.838,55L27.269,67.456c-0.901,0.639-1.114,1.887-0.475,2.789l4.627,6.526
				c0.639,0.901,1.887,1.113,2.788,0.475L49,66.608V85c0,1.104,0.896,2,2,2h4V23z"/>
		</g>
	</g>
</g>
</svg>
