<?xml version="1.0" encoding="iso-8859-1"?>
<!-- Generator: Adobe Illustrator 17.1.0, SVG Export Plug-In . SVG Version: 6.00 Build 0)  -->
<!DOCTYPE svg PUBLIC "-//W3C//DTD SVG 1.0//EN" "http://www.w3.org/TR/2001/REC-SVG-20010904/DTD/svg10.dtd">
<svg version="1.0" xmlns="http://www.w3.org/2000/svg" xmlns:xlink="http://www.w3.org/1999/xlink" x="0px" y="0px" width="110px"
	 height="110px" viewBox="0 0 110 110" style="enable-background:new 0 0 110 110;" xml:space="preserve">
<g id="Artboard">
</g>
<g id="Multicolor">
	<circle style="fill:#25B7D3;" cx="55" cy="55" r="55"/>
	<g>
		<g>
			<path style="fill:#3E3E3F;" d="M50.848,48C47.066,48,44,51.066,44,54.848V71h13.696V54.848C57.696,51.066,54.63,48,50.848,48z"/>
			<circle style="fill:#3E3E3F;" cx="50.848" cy="42" r="6"/>
		</g>
		<g>
			<g>
				<path style="fill:#E2E4E5;" d="M45.935,87H29c-3.313,0-6-2.687-6-6s2.687-6,6-6h11.065l28-36H81c3.313,0,6,2.687,6,6
					s-2.687,6-6,6h-7.065L45.935,87z"/>
			</g>
		</g>
		<g>
			<polygon style="fill:#FBE158;" points="81.385,65 68.657,66.414 71.485,69.243 63,77.728 68.657,83.385 77.142,74.899 
				79.971,77.728 			"/>
		</g>
		<g>
			<g>
				<path style="fill:#FFFFFF;" d="M42.065,79l28-36h16.586c-0.825-2.329-3.04-4-5.651-4H68.065l-28,36H29
					c-2.611,0-4.827,1.671-5.651,4H42.065z"/>
			</g>
			<g>
				<path style="fill:#FFFFFF;" d="M29,87"/>
			</g>
			<g>
				<path style="fill:#FFFFFF;" d="M81,51"/>
			</g>
		</g>
		<g>
			<path style="fill:#5B5C5F;" d="M50.848,36c-3.313,0-6,2.686-6,6c0,1.508,0.561,2.882,1.479,3.937l8.457-8.458
				C53.73,36.561,52.356,36,50.848,36z"/>
		</g>
	</g>
</g>
</svg>
