<?xml version="1.0" encoding="iso-8859-1"?>
<!-- Generator: Adobe Illustrator 17.1.0, SVG Export Plug-In . SVG Version: 6.00 Build 0)  -->
<!DOCTYPE svg PUBLIC "-//W3C//DTD SVG 1.0//EN" "http://www.w3.org/TR/2001/REC-SVG-20010904/DTD/svg10.dtd">
<svg version="1.0" xmlns="http://www.w3.org/2000/svg" xmlns:xlink="http://www.w3.org/1999/xlink" x="0px" y="0px" width="110px"
	 height="110px" viewBox="0 0 110 110" style="enable-background:new 0 0 110 110;" xml:space="preserve">
<g id="Artboard">
</g>
<g id="Multicolor">
	<circle style="fill:#32BEA6;" cx="55" cy="55" r="55"/>
	<g>
		<path style="fill:#FFFFFF;" d="M71.645,38c0,7.18-7.611,11-17,11s-17-3.82-17-11s7.611-15,17-15S71.645,30.82,71.645,38z"/>
		<path style="fill:#F0F1F1;" d="M38.785,65.602c-1.143-4.259-1.918-8.353-2.406-11.401c-0.175-1.092-0.021-2.162,0.383-3.115
			c-5.219,6.486-7.063,16.824-0.801,26.277c0.835,1.26,3.087,0.494,2.635-0.948C37.393,72.58,37.785,68.832,38.785,65.602z"/>
		<path style="fill:#CFD3D4;" d="M72.531,51.09c0.401,0.951,0.555,2.02,0.38,3.111c-0.488,3.048-1.262,7.142-2.406,11.401
			c0.999,3.23,1.391,6.978,0.189,10.813c-0.452,1.442,1.8,2.208,2.635,0.948C79.59,67.912,77.748,57.577,72.531,51.09z"/>
		<path style="fill:#F0F1F1;" d="M36.379,54.201c-0.476-2.976,1.45-5.81,4.394-6.456c9.248-2.029,18.496-2.029,27.744,0
			c2.948,0.647,4.871,3.476,4.394,6.456C71.253,64.563,66.314,87,54.645,87S38.038,64.563,36.379,54.201z"/>
		<path style="fill:#3E3E3F;" d="M67.722,36.962c0,5.247-5.855,8.038-13.077,8.038s-13.077-2.792-13.077-8.038S47.423,26,54.645,26
			S67.722,31.715,67.722,36.962z"/>
		<g>
			<path style="fill:#40C9E7;" d="M62.645,36c-0.553,0-1-0.447-1-1c0-1.103-0.897-2-2-2s-2,0.897-2,2c0,0.553-0.447,1-1,1
				s-1-0.447-1-1c0-2.206,1.794-4,4-4s4,1.794,4,4C63.645,35.553,63.198,36,62.645,36z"/>
		</g>
		<path style="fill:#FFFFFF;" d="M40.773,47.746c-2.944,0.646-4.87,3.48-4.394,6.456C38.038,64.562,42.976,87,54.645,87V46.224
			C50.021,46.224,45.397,46.731,40.773,47.746z"/>
		<g>
			<path style="fill:#40C9E7;" d="M52.645,36c-0.553,0-1-0.447-1-1c0-1.103-0.897-2-2-2s-2,0.897-2,2c0,0.553-0.447,1-1,1
				s-1-0.447-1-1c0-2.206,1.794-4,4-4s4,1.794,4,4C53.645,35.553,53.198,36,52.645,36z"/>
		</g>
	</g>
</g>
</svg>
