<?xml version="1.0" encoding="iso-8859-1"?>
<!-- Generator: Adobe Illustrator 17.1.0, SVG Export Plug-In . SVG Version: 6.00 Build 0)  -->
<!DOCTYPE svg PUBLIC "-//W3C//DTD SVG 1.0//EN" "http://www.w3.org/TR/2001/REC-SVG-20010904/DTD/svg10.dtd">
<svg version="1.0" xmlns="http://www.w3.org/2000/svg" xmlns:xlink="http://www.w3.org/1999/xlink" x="0px" y="0px" width="110px"
	 height="110px" viewBox="0 0 110 110" style="enable-background:new 0 0 110 110;" xml:space="preserve">
<g id="Artboard">
</g>
<g id="Multicolor">
	<circle style="fill:#E04F5F;" cx="55" cy="55" r="55"/>
	<g>
		<g>
			<path style="fill:#F3B607;" d="M34.83,30l-1.75,33h-8L23,29c0-4,3.31-6,6-6C32.49,23,34.99,26.81,34.83,30z"/>
		</g>
		<g>
			<path style="fill:#FACB1B;" d="M29,23c-2.69,0-6,2-6,6l2.08,34H29V23z"/>
		</g>
		<g>
			<path style="fill:#3E3E3F;" d="M33.08,63h-8L25,67.113c0,5.913,4.459,11.101,10.361,11.457c4.573,0.276,8.587-2.235,10.513-5.994
				c0.167-0.326,0.143-0.717-0.063-1.019c-0.206-0.302-0.561-0.467-0.925-0.431C39.017,71.704,33.08,66.898,33.08,63z"/>
		</g>
		<g>
			<path style="fill:#FBE158;" d="M54.544,48.368C54.816,47.551,55.581,47,56.442,47h13.74L34.899,24.721
				c-2.897-1.737-5.559-2.45-7.177-0.133c-1.618,2.317-0.031,4.571,2.597,6.692l23.812,18.328L54.544,48.368z"/>
		</g>
		<g>
			<path style="fill:#FACB1B;" d="M75,57v-8c0-1.104-0.896-2-2-2H56.442c-0.861,0-1.625,0.551-1.897,1.368l-6.667,20
				c-0.203,0.61-0.101,1.28,0.275,1.802C48.528,70.691,49.132,71,49.775,71h13.837l12.317-12.316C75.372,58.328,75,57.709,75,57z"/>
		</g>
		<g>
			<path style="fill:#F3B607;" d="M87,61c0-1.105-0.895-2-2-2h-8c-1.104,0-2-0.895-2-2v-8c0-1.105-0.895-2-2-2H56.442
				c-0.861,0-1.625,0.551-1.897,1.368l-6.667,20c-0.203,0.61-0.101,1.28,0.275,1.802C48.528,70.691,49.132,71,49.775,71H85
				c1.105,0,2-0.895,2-2V61z"/>
		</g>
		<g>
			<path style="fill:#3E3E3F;" d="M47,79c0,4.418,3.582,8,8,8h24c4.418,0,8-3.582,8-8s-3.582-8-8-8H55C50.582,71,47,74.582,47,79z"
				/>
		</g>
		<g>
			<rect x="75" y="61" style="fill:#F3B607;" width="8" height="2"/>
		</g>
		<g>
			<rect x="75" y="65" style="fill:#F3B607;" width="8" height="2"/>
		</g>
		<g>
			<path style="fill:#40C9E7;" d="M72,49c0.552,0,1,0.448,1,1v8.344c0,0.398-0.236,0.758-0.601,0.917l-20.3,8.826
				c-0.364,0.158-0.788,0.086-1.079-0.184s-0.394-0.688-0.263-1.063l6.01-17.171c0.14-0.401,0.519-0.67,0.944-0.67H72z"/>
		</g>
		<g>
			<rect x="55" y="75" style="fill:#E2E4E5;" width="24" height="8"/>
		</g>
		<g>
			<circle style="fill:#CFD3D4;" cx="79" cy="79" r="4"/>
		</g>
		<g>
			<circle style="fill:#CFD3D4;" cx="55" cy="79" r="4"/>
		</g>
		<g>
			<path style="fill:#B6BCBD;" d="M79,77c1.104,0,2,0.896,2,2s-0.896,2-2,2s-2-0.896-2-2S77.896,77,79,77 M79,75
				c-2.206,0-4,1.794-4,4s1.794,4,4,4s4-1.794,4-4S81.206,75,79,75L79,75z"/>
		</g>
		<g>
			<path style="fill:#B6BCBD;" d="M55,77c1.104,0,2,0.896,2,2s-0.896,2-2,2s-2-0.896-2-2S53.896,77,55,77 M55,75
				c-2.206,0-4,1.794-4,4s1.794,4,4,4s4-1.794,4-4S57.206,75,55,75L55,75z"/>
		</g>
		<g>
			<path style="fill:#9CE5F4;" d="M66.092,49h-8.382c-0.425,0-0.803,0.269-0.944,0.67l-4.661,13.318L66.092,49z"/>
		</g>
	</g>
</g>
</svg>
