<?xml version="1.0" encoding="iso-8859-1"?>
<!-- Generator: Adobe Illustrator 17.1.0, SVG Export Plug-In . SVG Version: 6.00 Build 0)  -->
<!DOCTYPE svg PUBLIC "-//W3C//DTD SVG 1.0//EN" "http://www.w3.org/TR/2001/REC-SVG-20010904/DTD/svg10.dtd">
<svg version="1.0" xmlns="http://www.w3.org/2000/svg" xmlns:xlink="http://www.w3.org/1999/xlink" x="0px" y="0px" width="110px"
	 height="110px" viewBox="0 0 110 110" style="enable-background:new 0 0 110 110;" xml:space="preserve">
<g id="Artboard">
</g>
<g id="Multicolor">
	<circle style="fill:#E04F5F;" cx="55" cy="55" r="55"/>
	<g>
		<g>
			<path style="fill:#3E3E3F;" d="M85.198,23.063c-1.265-0.299-2.536,0.487-2.834,1.755l-1.028,4.055
				c-0.53,2.091-2.412,3.556-4.57,3.556h-5.072h-2.402h-4.67c-1.302,0-2.357,1.055-2.357,2.357c0,1.302,1.055,2.357,2.357,2.357
				h3.431h3.64h1.222h7.562c2.167,0,4.055-1.477,4.576-3.581l1.898-7.664C87.25,24.63,86.465,23.361,85.198,23.063z"/>
		</g>
		<polygon style="fill:#F0F1F1;" points="72.191,65.365 76.054,37 73.015,37 64.599,61.45 		"/>
		<g>
			<path style="fill:#FACB1B;" d="M84.833,71.883L47.298,52.529c-5.165-2.664-11.345-2.443-16.308,0.582S23,61.526,23,67.338
				c0,6.335,3.537,11.844,8.743,14.662C54,81.999,81,81.999,81,81.999s6-2,6-6.561C87,73.941,86.164,72.569,84.833,71.883z"/>
		</g>
		<g>
			<path style="fill:#3E3E3F;" d="M50,40.581c0,1.358-1.101,1.582-2.459,1.582H34c-2.254,0-7.082-1.827-7.082-4.082
				c0-1.214-0.378-2.365,0.557-3.141c0.934-0.775,2.166-1.095,3.359-0.871l17.16,4.094C49.157,38.382,50,39.398,50,40.581z"/>
		</g>
		<path style="fill:#F0F1F1;" d="M41,50.734V42h-4l-2.365,9.459C36.698,50.806,38.859,50.562,41,50.734z"/>
		<g>
			<path style="fill:#FBE158;" d="M47.298,52.529c-5.165-2.664-11.345-2.443-16.308,0.582S23,61.526,23,67.338
				c0,4.08,1.472,7.811,3.906,10.708l23.773-23.773L47.298,52.529z"/>
		</g>
		<g>
			<circle style="fill:#E2E4E5;" cx="39" cy="66" r="10"/>
		</g>
		<g>
			<path style="fill:#3E3E3F;" d="M63,77c0-1.105-0.895-2-2-2H51c-1.105,0-2,0.895-2,2c0,1.105,0.895,2,2,2h10
				C62.105,79,63,78.105,63,77z"/>
		</g>
		<g>
			<path style="fill:#FFFFFF;" d="M39,56c-5.523,0-10,4.477-10,10c0,2.749,1.111,5.238,2.906,7.046l14.14-14.14
				C44.238,57.11,41.749,56,39,56z"/>
		</g>
		<g>
			<path style="fill:#FFFFFF;" d="M59.513,75L39.964,64.248c-0.968-0.534-2.184-0.18-2.716,0.788s-0.179,2.184,0.789,2.716
				L51.214,75H59.513z"/>
		</g>
		<circle style="fill:#FFFFFF;" cx="32" cy="82" r="3"/>
		<path style="fill:#3E3E3F;" d="M32,87c-2.757,0-5-2.243-5-5s2.243-5,5-5s5,2.243,5,5S34.757,87,32,87z M32,79
			c-1.654,0-3,1.346-3,3s1.346,3,3,3s3-1.346,3-3S33.654,79,32,79z"/>
		<circle style="fill:#FFFFFF;" cx="77" cy="82" r="3"/>
		<path style="fill:#3E3E3F;" d="M77,87c-2.757,0-5-2.243-5-5s2.243-5,5-5s5,2.243,5,5S79.757,87,77,87z M77,79
			c-1.654,0-3,1.346-3,3s1.346,3,3,3s3-1.346,3-3S78.654,79,77,79z"/>
	</g>
</g>
</svg>
