<?xml version="1.0" encoding="iso-8859-1"?>
<!-- Generator: Adobe Illustrator 17.1.0, SVG Export Plug-In . SVG Version: 6.00 Build 0)  -->
<!DOCTYPE svg PUBLIC "-//W3C//DTD SVG 1.0//EN" "http://www.w3.org/TR/2001/REC-SVG-20010904/DTD/svg10.dtd">
<svg version="1.0" xmlns="http://www.w3.org/2000/svg" xmlns:xlink="http://www.w3.org/1999/xlink" x="0px" y="0px" width="110px"
	 height="110px" viewBox="0 0 110 110" style="enable-background:new 0 0 110 110;" xml:space="preserve">
<g id="Artboard">
</g>
<g id="Multicolor">
	<circle style="fill:#32BEA6;" cx="55" cy="55" r="55"/>
	<g>
		<g>
			<ellipse style="fill:#FCF1E2;" cx="55" cy="65" rx="32" ry="14"/>
		</g>
		<g>
			<path style="fill:#FCF1E2;" d="M35,51c0-11.046,8.954-20,20-20s20,8.954,20,20v4.5c-10,10-30,10-40,0V51z"/>
		</g>
		<g>
			<path style="fill:#FFFFFF;" d="M23,65c0,7.732,14.327,14,32,14V51C37.327,51,23,57.268,23,65z"/>
		</g>
		<g>
			<path style="fill:#FFFFFF;" d="M35,51v4.5c5,5,12.5,7.5,20,7.5V31C43.955,31,35,39.954,35,51z"/>
		</g>
		<g>
			<path style="fill:#9C6144;" d="M38.53,77.004c10.217-4.039,28.379-9.897,48.184-10.158C86.897,66.242,87,65.626,87,65
				c0-0.733-0.13-1.453-0.378-2.156c-23.809,0.295-44.859,8.245-53.891,12.204C34.483,75.792,36.426,76.45,38.53,77.004z"/>
		</g>
		<g>
			<g>
				<path style="fill:#FACB1B;" d="M75.998,69.398l-8.925,1.159c-0.548,0.071-1.049-0.315-1.12-0.863l-0.773-5.95
					c-0.071-0.548,0.315-1.049,0.863-1.12l8.925-1.159c0.548-0.071,1.049,0.315,1.12,0.863l0.773,5.95
					C76.932,68.826,76.546,69.327,75.998,69.398z M67.807,68.445l6.942-0.901l-0.515-3.967l-6.942,0.901L67.807,68.445z"/>
			</g>
		</g>
		<g>
			
				<rect x="67.52" y="64.011" transform="matrix(0.9917 -0.1288 0.1288 0.9917 -7.9092 9.6952)" style="fill:#9C6144;" width="7" height="4"/>
		</g>
		<path style="fill:#F4D0A1;" d="M57.135,58.925l17.767-9.87c-0.175-1.807-0.605-3.536-1.228-5.17L57,55V31.116
			c0.951,0.101,1.884,0.262,2.793,0.486C59.09,30.277,56.691,26,55,26s-4.09,4.277-4.793,5.602c0.909-0.224,1.842-0.385,2.793-0.486
			V55L36.327,43.885c-0.623,1.634-1.054,3.363-1.228,5.17l17.767,9.87c-6.767-0.43-13.34-2.9-17.865-7.425v4c10,10,30,10,40,0v-4
			C70.475,56.025,63.902,58.495,57.135,58.925z"/>
		<g>
			<path style="fill:#AF7653;" d="M55,67.345c-9.767,2.566-17.616,5.664-22.27,7.704c1.753,0.744,3.696,1.402,5.8,1.956
				c4.258-1.683,9.909-3.679,16.47-5.457V67.345z"/>
		</g>
	</g>
</g>
</svg>
