<?xml version="1.0" encoding="iso-8859-1"?>
<!-- Generator: Adobe Illustrator 17.1.0, SVG Export Plug-In . SVG Version: 6.00 Build 0)  -->
<!DOCTYPE svg PUBLIC "-//W3C//DTD SVG 1.0//EN" "http://www.w3.org/TR/2001/REC-SVG-20010904/DTD/svg10.dtd">
<svg version="1.0" xmlns="http://www.w3.org/2000/svg" xmlns:xlink="http://www.w3.org/1999/xlink" x="0px" y="0px" width="110px"
	 height="110px" viewBox="0 0 110 110" style="enable-background:new 0 0 110 110;" xml:space="preserve">
<g id="Artboard" style="display:none;">
	<rect x="-95" y="-71" style="display:inline;fill:#8C8C8C;" width="1412" height="743"/>
</g>
<g id="R-Multicolor">
	<circle style="fill:#FABC3D;" cx="55" cy="55" r="55"/>
	<g>
		<path style="fill:#FFFFFF;" d="M87,55c0,0-8,24-32,24S23,55,23,55s8-24,32-24S87,55,87,55z"/>
		<path style="fill:#21B2D1;" d="M55,39c-2.528,0-4.91,0.603-7.036,1.646C49.763,41.551,51,43.408,51,45.559
			c0,3.038-2.462,5.5-5.5,5.5c-2.138,0-3.987-1.223-4.897-3.004C39.586,50.157,39,52.507,39,55c0,8.836,7.164,16,16,16
			s16-7.164,16-16S63.836,39,55,39z"/>
		<path style="fill:#40C9E7;" d="M55,39c-2.528,0-4.91,0.603-7.036,1.646C49.763,41.551,51,43.408,51,45.559
			c0,3.038-2.462,5.5-5.5,5.5c-2.138,0-3.987-1.223-4.897-3.004C39.586,50.157,39,52.507,39,55c0,3.137,0.916,6.054,2.476,8.524
			l22.048-22.048C61.054,39.916,58.137,39,55,39z"/>
	</g>
</g>
<g id="Multicolor" style="display:none;">
	<g style="display:inline;">
		<path style="fill:#FFFFFF;" d="M87,55c0,0-8,24-32,24S23,55,23,55s8-24,32-24S87,55,87,55z"/>
		<path style="fill:#21B2D1;" d="M55,39c-2.528,0-4.91,0.603-7.036,1.646C49.763,41.551,51,43.408,51,45.559
			c0,3.038-2.462,5.5-5.5,5.5c-2.138,0-3.987-1.223-4.897-3.004C39.586,50.157,39,52.507,39,55c0,8.836,7.164,16,16,16
			s16-7.164,16-16S63.836,39,55,39z"/>
		<path style="fill:#40C9E7;" d="M55,39c-2.528,0-4.91,0.603-7.036,1.646C49.763,41.551,51,43.408,51,45.559
			c0,3.038-2.462,5.5-5.5,5.5c-2.138,0-3.987-1.223-4.897-3.004C39.586,50.157,39,52.507,39,55c0,3.137,0.916,6.054,2.476,8.524
			l22.048-22.048C61.054,39.916,58.137,39,55,39z"/>
	</g>
</g>
<g id="Blue" style="display:none;">
	<g style="display:inline;">
		<g>
			<path style="fill:#FFFFFF;" d="M87.003,55c0,0-8,24-32,24s-32-24-32-24s8-24,32-24S87.003,55,87.003,55z"/>
		</g>
		<g>
			<path style="fill:#0081A1;" d="M55.003,39c-2.528,0-4.91,0.603-7.036,1.646c1.798,0.904,3.036,2.762,3.036,4.912
				c0,3.038-2.462,5.5-5.5,5.5c-2.138,0-3.987-1.223-4.897-3.004c-1.016,2.103-1.603,4.453-1.603,6.946c0,8.836,7.164,16,16,16
				s16-7.164,16-16S63.839,39,55.003,39z"/>
		</g>
		<g>
			<path style="fill:#009FC7;" d="M55.003,39c-2.528,0-4.91,0.603-7.036,1.646c1.798,0.904,3.036,2.762,3.036,4.912
				c0,3.038-2.462,5.5-5.5,5.5c-2.138,0-3.987-1.223-4.897-3.004c-1.016,2.103-1.603,4.453-1.603,6.946
				c0,3.137,0.916,6.054,2.476,8.524l22.048-22.048C61.057,39.915,58.14,39,55.003,39z"/>
		</g>
	</g>
</g>
<g id="R-Blue" style="display:none;">
	<g style="display:inline;">
		<circle style="fill:#81D2EB;" cx="55" cy="55" r="55"/>
	</g>
	<g style="display:inline;">
		<g>
			<path style="fill:#FFFFFF;" d="M87,55c0,0-8,24-32,24S23,55,23,55s8-24,32-24S87,55,87,55z"/>
		</g>
		<g>
			<path style="fill:#0081A1;" d="M55,39c-2.528,0-4.91,0.603-7.036,1.647C49.763,41.551,51,43.408,51,45.559
				c0,3.038-2.462,5.5-5.5,5.5c-2.138,0-3.987-1.223-4.897-3.004C39.586,50.157,39,52.507,39,55c0,8.836,7.164,16,16,16
				s16-7.164,16-16S63.836,39,55,39z"/>
		</g>
		<g>
			<path style="fill:#009FC7;" d="M55,39c-2.528,0-4.91,0.603-7.036,1.647C49.763,41.551,51,43.408,51,45.559
				c0,3.038-2.462,5.5-5.5,5.5c-2.138,0-3.987-1.223-4.897-3.004C39.586,50.157,39,52.507,39,55c0,3.137,0.916,6.054,2.476,8.524
				l22.048-22.048C61.054,39.916,58.137,39,55,39z"/>
		</g>
	</g>
</g>
<g id="Green" style="display:none;">
	<g style="display:inline;">
		<g>
			<path style="fill:#FFFFFF;" d="M87.003,55c0,0-8,24-32,24s-32-24-32-24s8-24,32-24S87.003,55,87.003,55z"/>
		</g>
		<g>
			<path style="fill:#009687;" d="M55.003,39c-2.528,0-4.91,0.603-7.036,1.647c1.798,0.904,3.036,2.762,3.036,4.912
				c0,3.038-2.462,5.5-5.5,5.5c-2.138,0-3.987-1.223-4.897-3.004c-1.016,2.103-1.603,4.453-1.603,6.946c0,8.836,7.164,16,16,16
				s16-7.164,16-16S63.839,39,55.003,39z"/>
		</g>
		<g>
			<path style="fill:#00B8A5;" d="M55.003,39c-2.528,0-4.91,0.603-7.036,1.647c1.798,0.904,3.036,2.762,3.036,4.912
				c0,3.038-2.462,5.5-5.5,5.5c-2.138,0-3.987-1.223-4.897-3.004c-1.016,2.103-1.603,4.453-1.603,6.946
				c0,3.137,0.916,6.054,2.476,8.524l22.048-22.048C61.057,39.916,58.14,39,55.003,39z"/>
		</g>
	</g>
</g>
<g id="R-Green" style="display:none;">
	<g style="display:inline;">
		<circle style="fill:#87E0C8;" cx="55" cy="55" r="55"/>
	</g>
	<g style="display:inline;">
		<g>
			<path style="fill:#FFFFFF;" d="M87,55c0,0-8,24-32,24S23,55,23,55s8-24,32-24S87,55,87,55z"/>
		</g>
		<g>
			<path style="fill:#009687;" d="M55,39c-2.528,0-4.91,0.603-7.036,1.647C49.763,41.551,51,43.408,51,45.559
				c0,3.038-2.462,5.5-5.5,5.5c-2.138,0-3.987-1.223-4.897-3.004C39.586,50.157,39,52.507,39,55c0,8.836,7.164,16,16,16
				s16-7.164,16-16S63.836,39,55,39z"/>
		</g>
		<g>
			<path style="fill:#00B8A5;" d="M55,39c-2.528,0-4.91,0.603-7.036,1.647C49.763,41.551,51,43.408,51,45.559
				c0,3.038-2.462,5.5-5.5,5.5c-2.138,0-3.987-1.223-4.897-3.004C39.586,50.157,39,52.507,39,55c0,3.137,0.916,6.054,2.476,8.524
				l22.048-22.048C61.054,39.916,58.137,39,55,39z"/>
		</g>
	</g>
</g>
<g id="Red" style="display:none;">
	<g style="display:inline;">
		<g>
			<path style="fill:#FFFFFF;" d="M87,55c0,0-8,24-32,24S23,55,23,55s8-24,32-24S87,55,87,55z"/>
		</g>
		<g>
			<path style="fill:#C23023;" d="M55,39c-2.528,0-4.91,0.603-7.036,1.646C49.763,41.551,51,43.408,51,45.558
				c0,3.038-2.462,5.5-5.5,5.5c-2.138,0-3.987-1.223-4.897-3.004C39.586,50.157,39,52.507,39,55c0,8.836,7.164,16,16,16
				s16-7.164,16-16S63.836,39,55,39z"/>
		</g>
		<g>
			<path style="fill:#E54B44;" d="M55,39c-2.528,0-4.91,0.603-7.036,1.646C49.763,41.551,51,43.408,51,45.558
				c0,3.038-2.462,5.5-5.5,5.5c-2.138,0-3.987-1.223-4.897-3.004C39.586,50.157,39,52.507,39,55c0,3.137,0.916,6.054,2.476,8.524
				l22.048-22.048C61.054,39.915,58.137,39,55,39z"/>
		</g>
	</g>
</g>
<g id="R-Red" style="display:none;">
	<g style="display:inline;">
		<circle style="fill:#FABBAF;" cx="55" cy="55" r="55"/>
	</g>
	<g style="display:inline;">
		<g>
			<path style="fill:#FFFFFF;" d="M87,55c0,0-8,24-32,24S23,55,23,55s8-24,32-24S87,55,87,55z"/>
		</g>
		<g>
			<path style="fill:#C23023;" d="M55,39c-2.528,0-4.91,0.603-7.036,1.647C49.763,41.551,51,43.408,51,45.559
				c0,3.038-2.462,5.5-5.5,5.5c-2.138,0-3.987-1.223-4.897-3.004C39.586,50.157,39,52.507,39,55c0,8.836,7.164,16,16,16
				s16-7.164,16-16S63.836,39,55,39z"/>
		</g>
		<g>
			<path style="fill:#E54B44;" d="M55,39c-2.528,0-4.91,0.603-7.036,1.647C49.763,41.551,51,43.408,51,45.559
				c0,3.038-2.462,5.5-5.5,5.5c-2.138,0-3.987-1.223-4.897-3.004C39.586,50.157,39,52.507,39,55c0,3.137,0.916,6.054,2.476,8.524
				l22.048-22.048C61.054,39.916,58.137,39,55,39z"/>
		</g>
	</g>
</g>
<g id="Yellow" style="display:none;">
	<g style="display:inline;">
		<g>
			<path style="fill:#FFFFFF;" d="M87.003,55c0,0-8,24-32,24s-32-24-32-24s8-24,32-24S87.003,55,87.003,55z"/>
		</g>
		<g>
			<path style="fill:#E07000;" d="M55.003,39c-2.528,0-4.91,0.603-7.036,1.646c1.798,0.904,3.036,2.762,3.036,4.912
				c0,3.038-2.462,5.5-5.5,5.5c-2.138,0-3.987-1.223-4.897-3.004c-1.016,2.103-1.603,4.453-1.603,6.946c0,8.836,7.164,16,16,16
				s16-7.164,16-16S63.839,39,55.003,39z"/>
		</g>
		<g>
			<path style="fill:#FA9200;" d="M55.003,39c-2.528,0-4.91,0.603-7.036,1.646c1.798,0.904,3.036,2.762,3.036,4.912
				c0,3.038-2.462,5.5-5.5,5.5c-2.138,0-3.987-1.223-4.897-3.004c-1.016,2.103-1.603,4.453-1.603,6.946
				c0,3.137,0.916,6.054,2.476,8.524l22.048-22.048C61.057,39.915,58.14,39,55.003,39z"/>
		</g>
	</g>
</g>
<g id="R-Yellow" style="display:none;">
	<g style="display:inline;">
		<circle style="fill:#FFD75E;" cx="55" cy="55" r="55"/>
	</g>
	<g style="display:inline;">
		<g>
			<path style="fill:#FFFFFF;" d="M87,55c0,0-8,24-32,24S23,55,23,55s8-24,32-24S87,55,87,55z"/>
		</g>
		<g>
			<path style="fill:#E07000;" d="M55,39c-2.528,0-4.91,0.603-7.036,1.647C49.763,41.551,51,43.408,51,45.559
				c0,3.038-2.462,5.5-5.5,5.5c-2.138,0-3.987-1.223-4.897-3.004C39.586,50.157,39,52.507,39,55c0,8.836,7.164,16,16,16
				s16-7.164,16-16S63.836,39,55,39z"/>
		</g>
		<g>
			<path style="fill:#FA9200;" d="M55,39c-2.528,0-4.91,0.603-7.036,1.647C49.763,41.551,51,43.408,51,45.559
				c0,3.038-2.462,5.5-5.5,5.5c-2.138,0-3.987-1.223-4.897-3.004C39.586,50.157,39,52.507,39,55c0,3.137,0.916,6.054,2.476,8.524
				l22.048-22.048C61.054,39.916,58.137,39,55,39z"/>
		</g>
	</g>
</g>
</svg>
