<?xml version="1.0" encoding="iso-8859-1"?>
<!-- Generator: Adobe Illustrator 17.1.0, SVG Export Plug-In . SVG Version: 6.00 Build 0)  -->
<!DOCTYPE svg PUBLIC "-//W3C//DTD SVG 1.0//EN" "http://www.w3.org/TR/2001/REC-SVG-20010904/DTD/svg10.dtd">
<svg version="1.0" xmlns="http://www.w3.org/2000/svg" xmlns:xlink="http://www.w3.org/1999/xlink" x="0px" y="0px" width="110px"
	 height="110px" viewBox="0 0 110 110" style="enable-background:new 0 0 110 110;" xml:space="preserve">
<g id="Artboard">
</g>
<g id="Multicolor">
	<circle style="fill:#FABC3D;" cx="55" cy="55" r="55"/>
	<g>
		<path style="fill:#DF2C2C;" d="M85.26,24.825l-0.085-0.085c-2.32-2.32-6.081-2.32-8.4,0L64.004,37.51l-7.159-7.16
			c-0.781-0.781-2.047-0.781-2.829,0l-2.828,2.829c-0.781,0.781-0.781,2.047,0,2.828l5.409,5.409L45.277,52.738l-0.007-0.007
			L29.013,68.987c-1.365,1.365-1.881,3.295-1.676,5.211c0.134,1.167,1.503,4.133,0.612,5.024L23,84.172L25.829,87l4.949-4.949
			c0.891-0.891,3.857,0.478,5.024,0.612c1.917,0.205,3.847-0.311,5.211-1.676L57.27,64.731l0.024,0.024l11.321-11.321l5.29,5.29
			c0.781,0.781,2.047,0.781,2.828,0l2.829-2.828c0.781-0.781,0.781-2.047,0-2.829l-7.071-7.071l12.771-12.77
			C87.58,30.905,87.58,27.144,85.26,24.825z"/>
		
			<rect x="48.941" y="44.589" transform="matrix(0.7071 -0.7071 0.7071 0.7071 -20.8583 55.815)" style="fill:#F0F1F1;" width="16.01" height="16.994"/>
		<path style="fill:#3E3E3F;" d="M85.26,24.825l-0.085-0.085c-2.32-2.32-6.081-2.32-8.4,0L64.004,37.51l-7.159-7.159
			c-0.781-0.781-2.047-0.781-2.829,0l-2.828,2.828c-0.781,0.781-0.781,2.047,0,2.828l22.716,22.716c0.781,0.781,2.047,0.781,2.828,0
			l2.829-2.828c0.781-0.781,0.781-2.047,0-2.828l-7.071-7.071L85.26,33.225C87.58,30.906,87.58,27.145,85.26,24.825z"/>
		<line style="fill:#5B5C5F;" x1="65.45" y1="44.613" x2="62.622" y2="47.441"/>
		
			<rect x="49.69" y="42.084" transform="matrix(-0.7071 -0.7071 0.7071 -0.7071 56.68 123.6558)" style="fill:#FFFFFF;" width="8.519" height="16.01"/>
		<path style="fill:#5B5C5F;" d="M85.175,24.74c-2.32-2.32-6.081-2.32-8.4,0L64.004,37.51l-7.16-7.159
			c-0.781-0.781-2.047-0.781-2.828,0l-2.829,2.828c-0.781,0.781-0.781,2.047,0,2.828l5.41,5.409l6.024,6.024l22.627-22.627
			L85.175,24.74z"/>
		<path style="fill:#FA5655;" d="M45.277,52.738l-0.007-0.007L29.013,68.987c-1.365,1.365-1.881,3.295-1.676,5.211
			c0.134,1.167,1.503,4.133,0.612,5.024L23,84.172l1.445,1.445l26.855-26.855L45.277,52.738z"/>
	</g>
</g>
</svg>
