<?xml version="1.0" encoding="iso-8859-1"?>
<!-- Generator: Adobe Illustrator 17.1.0, SVG Export Plug-In . SVG Version: 6.00 Build 0)  -->
<!DOCTYPE svg PUBLIC "-//W3C//DTD SVG 1.0//EN" "http://www.w3.org/TR/2001/REC-SVG-20010904/DTD/svg10.dtd">
<svg version="1.0" xmlns="http://www.w3.org/2000/svg" xmlns:xlink="http://www.w3.org/1999/xlink" x="0px" y="0px" width="110px"
	 height="110px" viewBox="0 0 110 110" style="enable-background:new 0 0 110 110;" xml:space="preserve">
<g id="Artboard">
</g>
<g id="Multicolor">
	<circle style="fill:#25B7D3;" cx="55" cy="55" r="55"/>
	<g>
		<g>
			<path style="fill:#3E3E3F;" d="M86.999,49.725c0-4.126-9.216-3.714-14.855-3.714S54.95,47.387,54.95,47.387
				s-11.453-1.375-17.093-1.375s-14.855-0.413-14.855,3.714s-0.138,11.692,2.201,16.643c1.396,2.956,6.877,2.889,11.279,3.164
				c4.402,0.275,8.682-0.002,11.279-2.476c2.889-2.751,4.814-8.941,5.502-10.729s1.687-1.788,1.687-1.788s1.1,0,1.788,1.788
				s2.613,7.978,5.502,10.729c2.597,2.474,6.877,2.751,11.279,2.476c4.402-0.275,9.883-0.207,11.279-3.164
				C87.136,61.417,86.999,53.852,86.999,49.725z"/>
		</g>
		<g>
			<path style="fill:#9CE5F4;" d="M44.047,66.506c1.787-0.993,7.52-7.003,7.153-14.168c-0.275-5.364-20.495-4.264-22.558-3.439
				c-5.777,3.026-2.602,15.384-1.1,16.231C32.905,68.156,41.571,67.881,44.047,66.506z"/>
		</g>
		<g>
			<path style="fill:#9CE5F4;" d="M65.954,66.506c-1.787-0.993-7.52-7.003-7.153-14.168c0.275-5.364,20.495-4.264,22.558-3.439
				c5.777,3.026,2.602,15.384,1.1,16.231C77.095,68.156,68.43,67.881,65.954,66.506z"/>
		</g>
		<g>
			<path style="fill:#C9F2F8;" d="M28.641,48.885c-5.234,2.742-3.121,13.117-1.561,15.677l16.063-16.063
				C37.159,47.842,29.841,48.405,28.641,48.885z"/>
		</g>
		<g>
			<path style="fill:#C9F2F8;" d="M78.343,48.424c-6.203-0.543-19.311-0.412-19.532,3.903c-0.237,4.637,2.078,8.779,4.226,11.403
				L78.343,48.424z"/>
		</g>
	</g>
</g>
</svg>
