<?xml version="1.0" encoding="iso-8859-1"?>
<!-- Generator: Adobe Illustrator 17.1.0, SVG Export Plug-In . SVG Version: 6.00 Build 0)  -->
<!DOCTYPE svg PUBLIC "-//W3C//DTD SVG 1.0//EN" "http://www.w3.org/TR/2001/REC-SVG-20010904/DTD/svg10.dtd">
<svg version="1.0" xmlns="http://www.w3.org/2000/svg" xmlns:xlink="http://www.w3.org/1999/xlink" x="0px" y="0px" width="110px"
	 height="110px" viewBox="0 0 110 110" style="enable-background:new 0 0 110 110;" xml:space="preserve">
<g id="Artboard">
</g>
<g id="Multicolor">
	<circle style="fill:#E04F5F;" cx="55" cy="55" r="55"/>
	<g>
		<g>
			<path style="fill:#F7B4B4;" d="M78,58.5C78,69.27,65,87,55,87S32,69.27,32,58.5S42.298,39,55,39S78,47.73,78,58.5z"/>
		</g>
		<g>
			<path style="fill:#F0F1F1;" d="M73.182,29.718C73.186,30.131,73.133,30.558,73,31c-2.181,7.277-10.697,8.195-15.189,8.154
				C69.187,40.33,78,48.538,78,58.5c0,3.97-1.77,8.886-4.502,13.511C79.322,66.88,83,59.372,83,51
				C83,42.478,79.188,34.853,73.182,29.718z"/>
		</g>
		<g>
			<path style="fill:#FFFFFF;" d="M27,50.989c0,8.372,3.679,15.88,9.502,21.011C33.77,67.375,32,62.459,32,58.489
				c0-10.77,10.297-19.5,23-19.5c0,0,15,2.022,18-7.989C76.628,18.893,27,16.989,27,50.989z"/>
		</g>
		<g>
			<path style="fill:#FBC8C8;" d="M32,58.5C32,69.27,45,87,55,87V39C42.298,39,32,47.73,32,58.5z"/>
		</g>
		<circle style="fill:#C2FCF5;" cx="45" cy="57" r="8"/>
		<path style="fill:#12B2A0;" d="M45,67c-5.514,0-10-4.486-10-10s4.486-10,10-10s10,4.486,10,10S50.514,67,45,67z M45,49
			c-4.411,0-8,3.589-8,8s3.589,8,8,8s8-3.589,8-8S49.411,49,45,49z"/>
		<g>
			<path style="fill:#47C4B7;" d="M46.26,53.01c0,0.696-1.26,2.52-1.26,2.52s-1.26-1.824-1.26-2.52c0-0.696,0.564-1.26,1.26-1.26
				S46.26,52.314,46.26,53.01z"/>
		</g>
		<g>
			<path style="fill:#47C4B7;" d="M46.26,60.99c0-0.696-1.26-2.52-1.26-2.52s-1.26,1.824-1.26,2.52c0,0.696,0.564,1.26,1.26,1.26
				S46.26,61.686,46.26,60.99z"/>
		</g>
		<g>
			<path style="fill:#47C4B7;" d="M48.99,58.26c-0.696,0-2.52-1.26-2.52-1.26s1.824-1.26,2.52-1.26c0.696,0,1.26,0.564,1.26,1.26
				S49.686,58.26,48.99,58.26z"/>
		</g>
		<g>
			<path style="fill:#47C4B7;" d="M41.01,58.26c0.696,0,2.52-1.26,2.52-1.26s-1.824-1.26-2.52-1.26c-0.696,0-1.26,0.564-1.26,1.26
				S40.314,58.26,41.01,58.26z"/>
		</g>
		<circle style="fill:#C2FCF5;" cx="65" cy="57" r="8"/>
		<path style="fill:#12B2A0;" d="M65,67c-5.514,0-10-4.486-10-10s4.486-10,10-10s10,4.486,10,10S70.514,67,65,67z M65,49
			c-4.411,0-8,3.589-8,8s3.589,8,8,8s8-3.589,8-8S69.411,49,65,49z"/>
		<g>
			<path style="fill:#47C4B7;" d="M66.26,53.01c0,0.696-1.26,2.52-1.26,2.52s-1.26-1.824-1.26-2.52c0-0.696,0.564-1.26,1.26-1.26
				S66.26,52.314,66.26,53.01z"/>
		</g>
		<g>
			<path style="fill:#47C4B7;" d="M66.26,60.99c0-0.696-1.26-2.52-1.26-2.52s-1.26,1.824-1.26,2.52c0,0.696,0.564,1.26,1.26,1.26
				S66.26,61.686,66.26,60.99z"/>
		</g>
		<g>
			<path style="fill:#47C4B7;" d="M68.99,58.26c-0.696,0-2.52-1.26-2.52-1.26s1.824-1.26,2.52-1.26c0.696,0,1.26,0.564,1.26,1.26
				S69.686,58.26,68.99,58.26z"/>
		</g>
		<g>
			<path style="fill:#47C4B7;" d="M61.01,58.26c0.696,0,2.52-1.26,2.52-1.26s-1.824-1.26-2.52-1.26c-0.696,0-1.26,0.564-1.26,1.26
				S60.314,58.26,61.01,58.26z"/>
		</g>
		<g>
			<path style="fill:#F79392;" d="M48,73.8h14c0,0,0,4.2-7,4.2S48,73.8,48,73.8z"/>
		</g>
	</g>
</g>
</svg>
