<?xml version="1.0" encoding="iso-8859-1"?>
<!-- Generator: Adobe Illustrator 17.1.0, SVG Export Plug-In . SVG Version: 6.00 Build 0)  -->
<!DOCTYPE svg PUBLIC "-//W3C//DTD SVG 1.0//EN" "http://www.w3.org/TR/2001/REC-SVG-20010904/DTD/svg10.dtd">
<svg version="1.0" xmlns="http://www.w3.org/2000/svg" xmlns:xlink="http://www.w3.org/1999/xlink" x="0px" y="0px" width="110px"
	 height="110px" viewBox="0 0 110 110" style="enable-background:new 0 0 110 110;" xml:space="preserve">
<g id="Artboard">
</g>
<g id="Multicolor">
	<circle style="fill:#FABC3D;" cx="55" cy="55" r="55"/>
	<g>
		<polygon style="fill:#DF2C2C;" points="38.92,63 44.703,63 63,44.577 63,38.92 		"/>
		<path style="fill:#FFFFFF;" d="M87,44.829L68.656,63c-2.105,0-0.617,0-5.656,0v-6.423v-12L44.657,63c-2.106,0-0.618,0-5.657,0
			c-0.433-3.033-3.567-24.966-4-28h-8c-0.433,3.033-3.567,24.966-4,28v24h64"/>
		<polygon style="fill:#DF2C2C;" points="63,63 68.656,63 87,44.829 87,39 		"/>
		<polygon style="fill:#DF2C2C;" points="25.857,43 36.143,43 35.571,39 26.429,39 		"/>
		<polygon style="fill:#DF2C2C;" points="24.714,51 37.286,51 36.714,47 25.286,47 		"/>
		<polygon style="fill:#DF2C2C;" points="23.571,59 38.429,59 37.857,55 24.143,55 		"/>
		<polygon style="fill:#FA5655;" points="31,39 26.429,39 25.857,43 31,43 		"/>
		<polygon style="fill:#FA5655;" points="31,47 25.286,47 24.714,51 31,51 		"/>
		<polygon style="fill:#FA5655;" points="31,55 24.143,55 23.571,59 31,59 		"/>
		<polygon style="fill:#FFFFFF;" points="23.571,59 23,63 31,63 31,59 		"/>
		<rect x="57" y="71" style="fill:#21B2D1;" width="24" height="7"/>
		<rect x="29" y="71" style="fill:#21B2D1;" width="24" height="7"/>
		<path style="fill:#FFFFFF;" d="M71.092,22.514c-1.848,4.631-6.365,7.908-11.655,7.908c-8.665,0-7.882-6.695-16.737-6.695
			c-5.446,0-10.068,3.474-11.807,8.323c2.297-2.536,5.605-4.138,9.296-4.138c9.797,0,8.406,8.368,18.411,8.368
			C65.954,36.279,71.808,29.96,71.092,22.514z"/>
	</g>
</g>
</svg>
