<?xml version="1.0" encoding="iso-8859-1"?>
<!-- Generator: Adobe Illustrator 17.1.0, SVG Export Plug-In . SVG Version: 6.00 Build 0)  -->
<!DOCTYPE svg PUBLIC "-//W3C//DTD SVG 1.0//EN" "http://www.w3.org/TR/2001/REC-SVG-20010904/DTD/svg10.dtd">
<svg version="1.0" xmlns="http://www.w3.org/2000/svg" xmlns:xlink="http://www.w3.org/1999/xlink" x="0px" y="0px" width="110px"
	 height="110px" viewBox="0 0 110 110" style="enable-background:new 0 0 110 110;" xml:space="preserve">
<g id="Artboard">
</g>
<g id="Multicolor">
	<circle style="fill:#32BEA6;" cx="55" cy="55" r="55"/>
	<g>
		<g>
			<circle style="fill:#3E3E3F;" cx="55" cy="47" r="24"/>
		</g>
		<g>
			<path style="fill:#5B5C5F;" d="M55,23c-13.255,0-24,10.745-24,24c0,6.602,2.667,12.58,6.98,16.918l33.939-33.939
				C67.579,25.667,61.602,23,55,23z"/>
		</g>
		<g>
			<path style="fill:#FFFFFF;" d="M31,85c0-3.314,2.686-6,6-6h36c3.314,0,6,2.686,6,6c0,1.105-0.895,2-2,2H33
				C31.895,87,31,86.105,31,85z"/>
		</g>
		<g>
			<rect x="63" y="81" style="fill:#47C4B7;" width="2" height="4"/>
		</g>
		<g>
			<rect x="67" y="81" style="fill:#FACB1B;" width="2" height="4"/>
		</g>
		<g>
			<rect x="71" y="81" style="fill:#F79392;" width="2" height="4"/>
		</g>
		<g>
			<path style="fill:#E2E4E5;" d="M55,71c-1.364,0-2.698-0.12-4-0.338V79h8v-8.338C57.698,70.88,56.364,71,55,71z"/>
		</g>
		<g>
			<path style="fill:#E2E4E5;" d="M38.037,41.975c4.278,3.271,13.06,7.351,16.104,5.537c4.295-2.559,1.837,1.129,1.837,1.129
				s-2.108,8.324-6.577,14.135c-1.268,1.649-3.591,2.053-5.339,0.923C32.75,56.386,33.587,38.572,38.037,41.975z"/>
		</g>
		<path style="fill:#E2E4E5;" d="M71.568,44.609c-4.844-0.838-10.183-0.21-13.182,0.295C58.769,45.513,59,46.226,59,47
			c0,1.214-0.552,2.289-1.407,3.022c1.429,3.722,1.546,10.286,0.858,14.33c-0.94,5.522,15.215-2.032,16.419-15.448
			C75.057,46.832,73.618,44.964,71.568,44.609z"/>
		<path style="fill:#FFFFFF;" d="M46.254,29.056c-1.865,0.923-2.707,3.125-1.94,5.059c1.813,4.568,5.134,8.794,7.13,11.089
			C51.169,45.746,51,46.351,51,47c0,0.306,0.041,0.601,0.106,0.887c-3.959-0.473-9.815-3.423-13.07-5.912
			c-3.976-3.041-5.06,10.853,2.823,19.063l11.266-11.266C52.853,50.527,53.869,51,55,51c2.209,0,4-1.791,4-4
			c0-1.779-1.169-3.27-2.775-3.789C58.653,40.05,64.192,36.523,68,35C73.201,32.919,58.327,23.082,46.254,29.056z"/>
		<g>
			<path style="fill:#E2E4E5;" d="M68,35c1.007-0.403,1.254-1.097,0.923-1.91l-2.717,2.716C66.83,35.5,67.436,35.226,68,35z"/>
		</g>
	</g>
</g>
</svg>
