<?xml version="1.0" encoding="iso-8859-1"?>
<!-- Generator: Adobe Illustrator 17.1.0, SVG Export Plug-In . SVG Version: 6.00 Build 0)  -->
<!DOCTYPE svg PUBLIC "-//W3C//DTD SVG 1.0//EN" "http://www.w3.org/TR/2001/REC-SVG-20010904/DTD/svg10.dtd">
<svg version="1.0" xmlns="http://www.w3.org/2000/svg" xmlns:xlink="http://www.w3.org/1999/xlink" x="0px" y="0px" width="110px"
	 height="110px" viewBox="0 0 110 110" style="enable-background:new 0 0 110 110;" xml:space="preserve">
<g id="Artboard">
</g>
<g id="Multicolor">
	<circle style="fill:#25B7D3;" cx="55" cy="55" r="55"/>
	<g>
		<g>
			<path style="fill:#FCF6C2;" d="M86.92,41c0,1.433-3.963,2.325-4.316,3.647c-0.365,1.367,2.609,4.119,1.917,5.316
				c-0.702,1.214-4.579,0.008-5.565,0.993c-0.985,0.985,0.221,4.862-0.993,5.564c-1.197,0.692-3.949-2.282-5.316-1.917
				C71.325,54.957,70.433,58.92,69,58.92c-1.433,0-2.325-3.963-3.647-4.316c-1.367-0.365-4.119,2.609-5.316,1.917
				c-1.214-0.702-0.008-4.579-0.993-5.565c-0.985-0.985-4.862,0.221-5.564-0.993c-0.692-1.197,2.282-3.949,1.917-5.316
				C55.043,43.325,51.08,42.433,51.08,41c0-1.433,3.963-2.325,4.316-3.647c0.365-1.367-2.609-4.119-1.917-5.316
				c0.702-1.214,4.579-0.008,5.565-0.993c0.985-0.985-0.221-4.862,0.993-5.564c1.197-0.692,3.949,2.282,5.316,1.917
				c1.321-0.353,2.214-4.316,3.647-4.316c1.433,0,2.325,3.963,3.647,4.316c1.367,0.365,4.119-2.609,5.316-1.917
				c1.214,0.702,0.008,4.579,0.993,5.565c0.985,0.985,4.862-0.221,5.564,0.993c0.692,1.197-2.282,3.949-1.917,5.316
				C82.957,38.675,86.92,39.567,86.92,41z"/>
		</g>
		<g>
			<circle style="fill:#FACB1B;" cx="69" cy="41" r="10"/>
		</g>
		<g>
			<path style="fill:#FBE158;" d="M69,31c-5.523,0-10,4.477-10,10c0,2.71,1.083,5.165,2.833,6.966l14.133-14.133
				C74.165,32.083,71.71,31,69,31z"/>
		</g>
		<g>
			<path style="fill:#099686;" d="M23,87V51c0,0,41-8,64-1c0,5,0,37,0,37H23z"/>
		</g>
		<g>
			<path style="fill:#47C4B7;" d="M87,50c-4.711-1.434-10.178-2.238-15.893-2.61C50.385,51.002,33.674,60.194,23,67.579V87h64
				C87,87,87,55,87,50z"/>
		</g>
		<g>
			<path style="fill:#099686;" d="M87,50c-1.22-0.371-2.493-0.698-3.805-0.988C59.653,55.071,35.613,71.366,23,80.863V87h64
				C87,87,87,55,87,50z"/>
		</g>
		<g>
			<path style="fill:#47C4B7;" d="M40.788,87H87c0,0,0-32,0-37c-0.536-0.163-1.086-0.316-1.641-0.463
				C61.184,63.713,47.779,77.718,40.788,87z"/>
		</g>
		<g>
			<path style="fill:#099686;" d="M87,87c0,0,0-32,0-37c-0.01-0.003-0.021-0.006-0.031-0.009C71.418,65.63,63.296,78.991,59.342,87
				H87z"/>
		</g>
		<g>
			<path style="fill:#47C4B7;" d="M87,87c0,0,0-28.873,0-36.042C81.508,58.786,76.126,78.503,73.978,87H87z"/>
		</g>
	</g>
</g>
</svg>
