<?xml version="1.0" encoding="iso-8859-1"?>
<!-- Generator: Adobe Illustrator 17.1.0, SVG Export Plug-In . SVG Version: 6.00 Build 0)  -->
<!DOCTYPE svg PUBLIC "-//W3C//DTD SVG 1.0//EN" "http://www.w3.org/TR/2001/REC-SVG-20010904/DTD/svg10.dtd">
<svg version="1.0" xmlns="http://www.w3.org/2000/svg" xmlns:xlink="http://www.w3.org/1999/xlink" x="0px" y="0px" width="110px"
	 height="110px" viewBox="0 0 110 110" style="enable-background:new 0 0 110 110;" xml:space="preserve">
<g id="Artboard">
</g>
<g id="Multicolor">
	<g>
		<circle style="fill:#E04F5F;" cx="55" cy="55" r="55"/>
	</g>
	<g>
		<path style="fill:#F7B4B4;" d="M83.409,77.663c-0.889-2.311-2.797-4.08-5.168-4.791L65,69.715v-8.283
			c-2.841,4.396-6.716,6.473-10,7.568v18h32L83.409,77.663z"/>
		<path style="fill:#FBC8C8;" d="M45,61.432v8.283l-13.241,3.157c-2.371,0.711-4.279,2.48-5.168,4.791L23,87h32V69
			C51.716,67.905,47.841,65.829,45,61.432z"/>
		<g>
			<polygon style="fill:#3E3E3F;" points="45,69 50,87 31,87 41,70 			"/>
		</g>
		<g>
			<polygon style="fill:#3E3E3F;" points="65,69 60,87 79,87 69,70 			"/>
		</g>
		<path style="fill:#F37A10;" d="M72,68c-5.374-6.717,0.143-7,0.143-18l-0.058-8v-2C71.495,31.067,64.082,24,55,24
			s-16.552,7.067-17.143,16v2c0,3,0,3,0,8c0,11,5.517,11.283,0.143,18c-4,5-12,12-1,19h8c-14-7,3.092-8.902,2-18
			c-1.192-9.929-4-7-4-15c0-5,0-12,0-12h1.784c3.929,0,7.645-1.786,10.1-4.854L55,37l0.117,0.146c2.455,3.068,6.17,4.854,10.1,4.854
			H67c0,0,0,7,0,12c0,8-2.808,5.071-4,15c-1.092,9.098,16,11,2,18h8C84,80,76,73,72,68z"/>
		<path style="fill:#FBC8C8;" d="M70,45c-0.277,0-0.633,0-1,0c0-0.007,0-0.014,0-0.021c-0.002-1.01-0.018-2.005-0.061-2.979h-3.723
			c-3.93,0-7.646-1.786-10.1-4.854L55,37v0l-0.117,0.146C52.429,40.214,48.713,42,44.784,42h-3.723
			c-0.042,0.974-0.059,1.969-0.061,2.979c0,0.007,0,0.014,0,0.021c-0.368,0-0.723,0-1,0c-1,0-2,1.111-2,2.222
			c0,3.091,0.864,7.13,4.178,7.703C44.62,64.026,50.396,67.465,55,69c4.604-1.535,10.38-4.974,12.822-14.075
			C71.136,54.353,72,50.313,72,47.222C72,46.111,71,45,70,45z"/>
		<path style="fill:#F99134;" d="M37.857,40v2c0,3,0,3,0,8c0,11,5.517,11.283,0.143,18c-4,5-12,12-1,19h8c-14-7,3.092-8.902,2-18
			c-1.192-9.929-4-7-4-15c0-5,0-12,0-12h1.784c3.929,0,7.645-1.786,10.1-4.854L55,37V24C45.918,24,38.448,31.067,37.857,40z"/>
		<path style="fill:#FBD7D7;" d="M54.883,37.146C52.429,40.214,48.713,42,44.784,42h-3.723c-0.042,0.974-0.059,1.969-0.061,2.979
			c0,0.007,0,0.014,0,0.021c-0.368,0-0.723,0-1,0c-1,0-2,1.111-2,2.222c0,3.091,0.864,7.13,4.178,7.703
			C44.62,64.026,50.396,67.465,55,69V37L54.883,37.146z"/>
		<g>
			<path style="fill:#F79392;" d="M50,58h10c0,0,0,3-5,3S50,58,50,58z"/>
		</g>
		<g>
			<path style="fill:#FBD7D7;" d="M43,55c-4,0-5-4.444-5-7.778C38,46.111,39,45,40,45s3,0,3,0V55z"/>
		</g>
		<g>
			<path style="fill:#FBC8C8;" d="M67,55c4,0,5-4.444,5-7.778C72,46.111,71,45,70,45s-3,0-3,0V55z"/>
		</g>
		<g>
			<path style="fill:#3E3E3F;" d="M67,43c-2,0-6,0-12,0s-10,0-12,0s-3,2-3,5s2,6,6,6c6,0,6-6,9-6s3,6,9,6c4,0,6-3,6-6S69,43,67,43z"
				/>
		</g>
		<g>
			<path style="fill:#5B5C5F;" d="M43,43c-2,0-3,2-3,5c0,1.352,0.41,2.701,1.222,3.778L50,43C46.726,43,44.377,43,43,43z"/>
		</g>
		<g>
			<path style="fill:#FBE158;" d="M60,42H50c-0.55,0-1,0.45-1,1l1,2h5h5l1-2C61,42.45,60.55,42,60,42z"/>
		</g>
		<g>
			<circle style="fill:#FACB1B;" cx="39.629" cy="56.629" r="1.629"/>
		</g>
		<g>
			<circle style="fill:#FACB1B;" cx="70.629" cy="56.629" r="1.629"/>
		</g>
	</g>
</g>
</svg>
