<?xml version="1.0" encoding="iso-8859-1"?>
<!-- Generator: Adobe Illustrator 17.1.0, SVG Export Plug-In . SVG Version: 6.00 Build 0)  -->
<!DOCTYPE svg PUBLIC "-//W3C//DTD SVG 1.0//EN" "http://www.w3.org/TR/2001/REC-SVG-20010904/DTD/svg10.dtd">
<svg version="1.0" xmlns="http://www.w3.org/2000/svg" xmlns:xlink="http://www.w3.org/1999/xlink" x="0px" y="0px" width="110px"
	 height="110px" viewBox="0 0 110 110" style="enable-background:new 0 0 110 110;" xml:space="preserve">
<g id="Artboard">
</g>
<g id="Multicolor">
	<circle style="fill:#32BEA6;" cx="55" cy="55" r="55"/>
	<g>
		<rect x="23" y="60" style="fill:#E2E4E5;" width="64" height="10"/>
		<rect x="23" y="40" style="fill:#E2E4E5;" width="64" height="10"/>
		<rect x="23" y="40" style="fill:#FFFFFF;" width="64" height="5"/>
		<rect x="23" y="60" style="fill:#FFFFFF;" width="64" height="5"/>
		<path style="fill:#FFFFFF;" d="M28.243,87H43V35l-8-12l-8,12v52.279C27.388,87.102,27.808,87,28.243,87z"/>
		<polygon style="fill:#FFFFFF;" points="63,87 63,35 55,23 47,35 47,87 		"/>
		<path style="fill:#FFFFFF;" d="M81.757,87c0.434,0,0.855,0.102,1.243,0.279V35l-8-12l-8,12v52H81.757z"/>
		<circle style="fill:#5B5C5F;" cx="55" cy="65" r="2"/>
		<circle style="fill:#5B5C5F;" cx="75" cy="65" r="2"/>
		<circle style="fill:#5B5C5F;" cx="35" cy="65" r="2"/>
		<circle style="fill:#5B5C5F;" cx="55" cy="45" r="2"/>
		<circle style="fill:#5B5C5F;" cx="75" cy="45" r="2"/>
		<circle style="fill:#5B5C5F;" cx="35" cy="45" r="2"/>
	</g>
</g>
</svg>
