<?xml version="1.0" encoding="iso-8859-1"?>
<!-- Generator: Adobe Illustrator 17.1.0, SVG Export Plug-In . SVG Version: 6.00 Build 0)  -->
<!DOCTYPE svg PUBLIC "-//W3C//DTD SVG 1.0//EN" "http://www.w3.org/TR/2001/REC-SVG-20010904/DTD/svg10.dtd">
<svg version="1.0" xmlns="http://www.w3.org/2000/svg" xmlns:xlink="http://www.w3.org/1999/xlink" x="0px" y="0px" width="110px"
	 height="110px" viewBox="0 0 110 110" style="enable-background:new 0 0 110 110;" xml:space="preserve">
<g id="Artboard">
</g>
<g id="Multicolor">
	<circle style="fill:#32BEA6;" cx="55" cy="55" r="55"/>
	<g>
		<g>
			<path style="fill:#F0F1F1;" d="M54.988,30.725C46.991,16.657,23,21.681,23,46.804C23.497,69.675,54.988,87,54.988,87
				s31.492-17.325,31.988-40.197C86.977,21.681,62.986,16.657,54.988,30.725z"/>
		</g>
		<g>
			<path style="fill:#FFFFFF;" d="M54.988,30.726C46.991,16.657,23,21.681,23,46.804c0.183,8.412,4.562,16.068,10.021,22.394
				l43.762-43.762C69.245,20.909,59.534,22.728,54.988,30.726z"/>
		</g>
		<g>
			<path style="fill:#DF2C2C;" d="M26.06,58.836C34.062,75.484,54.988,87,54.988,87s22.236-12.238,29.631-29.72
				C69.058,63.225,52.908,50.101,26.06,58.836z"/>
		</g>
		<g>
			<path style="fill:#FA5655;" d="M26.06,58.836c1.796,3.737,4.247,7.212,6.962,10.36l13.452-13.452
				C40.371,55.647,33.642,56.369,26.06,58.836z"/>
		</g>
	</g>
</g>
</svg>
