<?xml version="1.0" encoding="iso-8859-1"?>
<!-- Generator: Adobe Illustrator 17.1.0, SVG Export Plug-In . SVG Version: 6.00 Build 0)  -->
<!DOCTYPE svg PUBLIC "-//W3C//DTD SVG 1.0//EN" "http://www.w3.org/TR/2001/REC-SVG-20010904/DTD/svg10.dtd">
<svg version="1.0" xmlns="http://www.w3.org/2000/svg" xmlns:xlink="http://www.w3.org/1999/xlink" x="0px" y="0px" width="110px"
	 height="110px" viewBox="0 0 110 110" style="enable-background:new 0 0 110 110;" xml:space="preserve">
<g id="Artboard">
</g>
<g id="Multicolor">
	<circle style="fill:#25B7D3;" cx="55" cy="55" r="55"/>
	<g>
		<path style="fill:#3E3E3F;" d="M83,37H59v-8H23v8h34v40H23v8h36v-8h12c2.209,0,4-1.791,4-4v-4c0-2.209,1.791-4,4-4h4
			c2.209,0,4-1.791,4-4V41C87,38.791,85.209,37,83,37z"/>
		<rect x="23" y="77" style="fill:#5B5C5F;" width="18" height="8"/>
		<rect x="23" y="29" style="fill:#5B5C5F;" width="18" height="8"/>
		<rect x="25" y="37" style="fill:#FACB1B;" width="32" height="40"/>
		<rect x="25" y="37" style="fill:#FBE158;" width="16" height="40"/>
		<path style="fill:#3E3E3F;" d="M49,27c0-1.105-0.895-2-2-2H35c-1.105,0-2,0.895-2,2v2h16V27z"/>
		<rect x="63" y="41" style="fill:#E2E4E5;" width="3" height="6"/>
		<rect x="63" y="67" style="fill:#E2E4E5;" width="3" height="6"/>
		<rect x="70" y="41" style="fill:#E2E4E5;" width="3" height="6"/>
		<rect x="77" y="41" style="fill:#E2E4E5;" width="3" height="6"/>
	</g>
</g>
</svg>
