<?xml version="1.0" encoding="iso-8859-1"?>
<!-- Generator: Adobe Illustrator 17.1.0, SVG Export Plug-In . SVG Version: 6.00 Build 0)  -->
<!DOCTYPE svg PUBLIC "-//W3C//DTD SVG 1.0//EN" "http://www.w3.org/TR/2001/REC-SVG-20010904/DTD/svg10.dtd">
<svg version="1.0" xmlns="http://www.w3.org/2000/svg" xmlns:xlink="http://www.w3.org/1999/xlink" x="0px" y="0px" width="110px"
	 height="110px" viewBox="0 0 110 110" style="enable-background:new 0 0 110 110;" xml:space="preserve">
<g id="Artboard" style="display:none;">
	<rect x="-991" y="-455" style="display:inline;fill:#8C8C8C;" width="1412" height="743"/>
</g>
<g id="R-Multicolor">
	<circle style="fill:#32BEA6;" cx="55" cy="55" r="55"/>
	<g>
		<path style="fill:#CFD3D4;" d="M81.154,48.133L87,41.5H23L49,71v16h12V76.906c1.704,0.905,3.517,1.518,5.37,1.826
			c5.829,0.969,12.018-0.993,16.208-5.741C88.995,65.719,88.34,54.612,81.154,48.133z M77.267,68.305
			c-3.829,4.339-10.437,4.794-14.831,1.066l14.035-15.924C80.726,57.341,81.1,63.962,77.267,68.305z"/>
		<path style="fill:none;" d="M77.267,68.305c3.833-4.343,3.458-10.963-0.796-14.858L62.436,69.371
			C66.83,73.099,73.438,72.644,77.267,68.305z"/>
		<rect x="23" y="33" style="fill:#FFFFFF;" width="64" height="8.5"/>
		<rect x="55" y="33" style="fill:#F0F1F1;" width="32" height="8.5"/>
		<polygon style="fill:#F0F1F1;" points="55,87 55,41.5 23,41.5 49,71 49,87 		"/>
	</g>
</g>
<g id="Multicolor" style="display:none;">
	<g style="display:inline;">
		<path style="fill:#CFD3D4;" d="M81.154,48.133L87,41.5H23L49,71v16h12V76.906c1.704,0.905,3.517,1.518,5.37,1.826
			c5.829,0.969,12.018-0.993,16.208-5.741C88.995,65.719,88.34,54.612,81.154,48.133z M77.267,68.305
			c-3.829,4.339-10.437,4.794-14.831,1.066l14.035-15.924C80.726,57.341,81.1,63.962,77.267,68.305z"/>
		<path style="fill:none;" d="M77.267,68.305c3.833-4.343,3.458-10.963-0.796-14.858L62.436,69.371
			C66.83,73.099,73.438,72.644,77.267,68.305z"/>
		<rect x="23" y="33" style="fill:#FFFFFF;" width="64" height="8.5"/>
		<rect x="55" y="33" style="fill:#F0F1F1;" width="32" height="8.5"/>
		<polygon style="fill:#F0F1F1;" points="55,87 55,41.5 23,41.5 49,71 49,87 		"/>
	</g>
</g>
<g id="Blue" style="display:none;">
	<g style="display:inline;">
		<g>
			<path style="fill:#E1F5FA;" d="M81.157,48.133l5.846-6.633h-64l26,29.5v16h12V76.906c1.704,0.904,3.517,1.518,5.37,1.826
				c5.829,0.969,12.018-0.993,16.208-5.741C88.998,65.719,88.343,54.612,81.157,48.133z M77.27,68.305
				c-3.829,4.339-10.437,4.794-14.832,1.066l14.035-15.924C80.728,57.341,81.103,63.962,77.27,68.305z"/>
		</g>
		<g>
			<path style="fill:none;" d="M77.27,68.305c3.833-4.343,3.458-10.963-0.796-14.858L62.438,69.37
				C66.833,73.098,73.441,72.643,77.27,68.305z"/>
		</g>
		<g>
			<rect x="23.003" y="33" style="fill:#E1F5FA;" width="64" height="8.5"/>
		</g>
		<g>
			<rect x="55.003" y="33" style="fill:#BBE7F2;" width="32" height="8.5"/>
		</g>
		<g>
			<polygon style="fill:#FFFFFF;" points="55.003,87 55.003,41.5 23.003,41.5 49.003,71 49.003,87 			"/>
		</g>
	</g>
</g>
<g id="R-Blue" style="display:none;">
	<g style="display:inline;">
		<circle style="fill:#81D2EB;" cx="55" cy="55" r="55"/>
	</g>
	<g style="display:inline;">
		<g>
			<path style="fill:#E1F5FA;" d="M81.154,48.133L87,41.5H23L49,71v16h12V76.906c1.704,0.904,3.517,1.518,5.37,1.826
				c5.829,0.969,12.018-0.993,16.208-5.741C88.995,65.719,88.34,54.612,81.154,48.133z M77.267,68.305
				c-3.829,4.339-10.437,4.794-14.832,1.066l14.035-15.924C80.726,57.341,81.1,63.962,77.267,68.305z"/>
		</g>
		<g>
			<path style="fill:none;" d="M77.267,68.305c3.833-4.343,3.459-10.963-0.796-14.858L62.436,69.371
				C66.83,73.099,73.438,72.644,77.267,68.305z"/>
		</g>
		<g>
			<rect x="23" y="33" style="fill:#E1F5FA;" width="64" height="8.5"/>
		</g>
		<g>
			<rect x="55" y="33" style="fill:#BBE7F2;" width="32" height="8.5"/>
		</g>
		<g>
			<polygon style="fill:#FFFFFF;" points="55,87 55,41.5 23,41.5 49,71 49,87 			"/>
		</g>
	</g>
</g>
<g id="Green" style="display:none;">
	<g style="display:inline;">
		<g>
			<path style="fill:#D7FCF9;" d="M81.157,48.133l5.846-6.633h-64l26,29.5v16h12V76.906c1.704,0.904,3.517,1.518,5.37,1.826
				c5.829,0.969,12.018-0.993,16.208-5.741C88.998,65.719,88.343,54.612,81.157,48.133z M77.27,68.305
				c-3.829,4.339-10.437,4.794-14.832,1.066l14.035-15.924C80.728,57.341,81.103,63.962,77.27,68.305z"/>
		</g>
		<g>
			<path style="fill:none;" d="M77.27,68.305c3.833-4.343,3.458-10.963-0.796-14.858L62.438,69.371
				C66.833,73.099,73.441,72.644,77.27,68.305z"/>
		</g>
		<g>
			<rect x="23.003" y="33" style="fill:#D7FCF9;" width="64" height="8.5"/>
		</g>
		<g>
			<rect x="55.003" y="33" style="fill:#AAF0E9;" width="32" height="8.5"/>
		</g>
		<g>
			<polygon style="fill:#FFFFFF;" points="55.003,87 55.003,41.5 23.003,41.5 49.003,71 49.003,87 			"/>
		</g>
	</g>
</g>
<g id="R-Green" style="display:none;">
	<g style="display:inline;">
		<circle style="fill:#87E0C8;" cx="55" cy="55" r="55"/>
	</g>
	<g style="display:inline;">
		<g>
			<path style="fill:#D7FCF9;" d="M81.154,48.133L87,41.5H23L49,71v16h12V76.906c1.704,0.904,3.517,1.518,5.37,1.826
				c5.829,0.969,12.018-0.993,16.208-5.741C88.995,65.719,88.34,54.612,81.154,48.133z M77.267,68.305
				c-3.829,4.339-10.437,4.794-14.832,1.066l14.035-15.924C80.726,57.341,81.1,63.962,77.267,68.305z"/>
		</g>
		<g>
			<path style="fill:none;" d="M77.267,68.305c3.833-4.343,3.459-10.963-0.796-14.858L62.436,69.371
				C66.83,73.099,73.438,72.644,77.267,68.305z"/>
		</g>
		<g>
			<rect x="23" y="33" style="fill:#D7FCF9;" width="64" height="8.5"/>
		</g>
		<g>
			<rect x="55" y="33" style="fill:#AAF0E9;" width="32" height="8.5"/>
		</g>
		<g>
			<polygon style="fill:#FFFFFF;" points="55,87 55,41.5 23,41.5 49,71 49,87 			"/>
		</g>
	</g>
</g>
<g id="Red" style="display:none;">
	<g style="display:inline;">
		<g>
			<path style="fill:#FFEFED;" d="M81.154,48.133L87,41.5H23L49,71v16h12V76.906c1.704,0.904,3.517,1.518,5.37,1.826
				c5.829,0.969,12.018-0.993,16.208-5.741C88.995,65.719,88.34,54.612,81.154,48.133z M77.267,68.305
				c-3.829,4.339-10.437,4.794-14.832,1.066l14.035-15.924C80.726,57.341,81.1,63.962,77.267,68.305z"/>
		</g>
		<g>
			<path style="fill:none;" d="M77.267,68.305c3.833-4.343,3.459-10.963-0.796-14.858L62.436,69.37
				C66.83,73.098,73.438,72.643,77.267,68.305z"/>
		</g>
		<g>
			<rect x="23" y="33" style="fill:#FFEFED;" width="64" height="8.5"/>
		</g>
		<g>
			<rect x="55" y="33" style="fill:#FFD7D4;" width="32" height="8.5"/>
		</g>
		<g>
			<polygon style="fill:#FFFFFF;" points="55,87 55,41.5 23,41.5 49,71 49,87 			"/>
		</g>
	</g>
</g>
<g id="R-Red" style="display:none;">
	<g style="display:inline;">
		<circle style="fill:#FABBAF;" cx="55" cy="55" r="55"/>
	</g>
	<g style="display:inline;">
		<g>
			<path style="fill:#FFEFED;" d="M81.154,48.133L87,41.5H23L49,71v16h12V76.906c1.704,0.904,3.517,1.518,5.37,1.826
				c5.829,0.969,12.018-0.993,16.208-5.741C88.995,65.719,88.34,54.612,81.154,48.133z M77.267,68.305
				c-3.829,4.339-10.437,4.794-14.832,1.066l14.035-15.924C80.726,57.341,81.1,63.962,77.267,68.305z"/>
		</g>
		<g>
			<path style="fill:none;" d="M77.267,68.305c3.833-4.343,3.459-10.963-0.796-14.858L62.436,69.371
				C66.83,73.099,73.438,72.644,77.267,68.305z"/>
		</g>
		<g>
			<rect x="23" y="33" style="fill:#FFEFED;" width="64" height="8.5"/>
		</g>
		<g>
			<rect x="55" y="33" style="fill:#FFD7D4;" width="32" height="8.5"/>
		</g>
		<g>
			<polygon style="fill:#FFFFFF;" points="55,87 55,41.5 23,41.5 49,71 49,87 			"/>
		</g>
	</g>
</g>
<g id="Yellow" style="display:none;">
	<g style="display:inline;">
		<g>
			<path style="fill:#FFF5D9;" d="M81.157,48.133l5.846-6.633h-64l26,29.5v16h12V76.906c1.704,0.904,3.517,1.518,5.37,1.826
				c5.829,0.969,12.018-0.993,16.208-5.741C88.998,65.719,88.343,54.612,81.157,48.133z M77.27,68.305
				c-3.829,4.339-10.437,4.794-14.832,1.066l14.035-15.924C80.728,57.341,81.103,63.962,77.27,68.305z"/>
		</g>
		<g>
			<path style="fill:none;" d="M77.27,68.305c3.833-4.343,3.458-10.963-0.796-14.858L62.438,69.37
				C66.833,73.098,73.441,72.643,77.27,68.305z"/>
		</g>
		<g>
			<rect x="23.003" y="33" style="fill:#FFF5D9;" width="64" height="8.5"/>
		</g>
		<g>
			<rect x="55.003" y="33" style="fill:#FFE9A1;" width="32" height="8.5"/>
		</g>
		<g>
			<polygon style="fill:#FFFFFF;" points="55.003,87 55.003,41.5 23.003,41.5 49.003,71 49.003,87 			"/>
		</g>
	</g>
</g>
<g id="R-Yellow" style="display:none;">
	<g style="display:inline;">
		<circle style="fill:#FFD75E;" cx="55" cy="55" r="55"/>
	</g>
	<g style="display:inline;">
		<g>
			<path style="fill:#FFF5D9;" d="M81.154,48.133L87,41.5H23L49,71v16h12V76.906c1.704,0.904,3.517,1.518,5.37,1.826
				c5.829,0.969,12.018-0.993,16.208-5.741C88.995,65.719,88.34,54.612,81.154,48.133z M77.267,68.305
				c-3.829,4.339-10.437,4.794-14.832,1.066l14.035-15.924C80.726,57.341,81.1,63.962,77.267,68.305z"/>
		</g>
		<g>
			<path style="fill:none;" d="M77.267,68.305c3.833-4.343,3.459-10.963-0.796-14.858L62.436,69.371
				C66.83,73.099,73.438,72.644,77.267,68.305z"/>
		</g>
		<g>
			<rect x="23" y="33" style="fill:#FFF5D9;" width="64" height="8.5"/>
		</g>
		<g>
			<rect x="55" y="33" style="fill:#FFE9A1;" width="32" height="8.5"/>
		</g>
		<g>
			<polygon style="fill:#FFFFFF;" points="55,87 55,41.5 23,41.5 49,71 49,87 			"/>
		</g>
	</g>
</g>
</svg>
