<?xml version="1.0" encoding="iso-8859-1"?>
<!-- Generator: Adobe Illustrator 17.1.0, SVG Export Plug-In . SVG Version: 6.00 Build 0)  -->
<!DOCTYPE svg PUBLIC "-//W3C//DTD SVG 1.0//EN" "http://www.w3.org/TR/2001/REC-SVG-20010904/DTD/svg10.dtd">
<svg version="1.0" xmlns="http://www.w3.org/2000/svg" xmlns:xlink="http://www.w3.org/1999/xlink" x="0px" y="0px" width="110px"
	 height="110px" viewBox="0 0 110 110" style="enable-background:new 0 0 110 110;" xml:space="preserve">
<g id="Artboard">
</g>
<g id="Multicolor">
	<circle style="fill:#E04F5F;" cx="55" cy="55" r="55"/>
	<g>
		<g>
			<path style="fill:#3E3E3F;" d="M23.005,24.62c-0.042-0.455,0.201-0.879,0.614-1.069c0.402-0.191,0.889-0.095,1.206,0.233
				c1.323,1.397,3.324,2.657,6.202,2.657c1.228,0,2.392-0.254,3.45-0.72c1.217-0.529,2.297-1.334,3.143-2.339
				C37.823,23.138,38.109,23,38.426,23c0.307,0,0.603,0.138,0.804,0.381c0.847,1.006,1.926,1.81,3.143,2.339
				c1.058,0.466,2.223,0.72,3.45,0.72c2.879,0,4.879-1.26,6.202-2.657c0.317-0.328,0.804-0.423,1.207-0.233
				c0.413,0.191,0.656,0.614,0.614,1.069l-4.943,52.897C48.365,82.904,43.835,87,38.426,87s-9.939-4.096-10.478-9.483L23.005,24.62z
				"/>
		</g>
		<g>
			<path style="fill:#5B5C5F;" d="M53.848,24.62c0.042-0.455-0.201-0.879-0.614-1.069c-0.402-0.191-0.889-0.095-1.207,0.233
				c-1.323,1.397-3.323,2.657-6.202,2.657c-1.228,0-2.392-0.254-3.45-0.72c-1.217-0.529-2.297-1.333-3.144-2.339
				C39.03,23.138,38.733,23,38.426,23c-0.318,0-0.603,0.138-0.804,0.381c-0.847,1.006-1.926,1.81-3.144,2.339
				c-1.058,0.466-2.223,0.72-3.45,0.72c-2.879,0-4.879-1.26-6.202-2.657c-0.318-0.328-0.804-0.423-1.207-0.233
				c-0.413,0.19-0.656,0.614-0.614,1.069l2.807,30.512l27.785-27.785L53.848,24.62z"/>
		</g>
		<g>
			<path style="fill:#3E3E3F;" d="M86.995,85.389c0.042,0.453-0.2,0.874-0.611,1.063c-0.4,0.19-0.884,0.095-1.2-0.232
				c-1.316-1.39-3.306-2.643-6.17-2.643c-1.221,0-2.38,0.253-3.432,0.716c-1.211,0.526-2.285,1.327-3.127,2.327
				c-0.2,0.242-0.484,0.379-0.8,0.379c-0.305,0-0.6-0.137-0.8-0.379c-0.842-1-1.916-1.8-3.127-2.327
				c-1.053-0.463-2.211-0.716-3.432-0.716c-2.864,0-4.854,1.253-6.17,2.643c-0.316,0.326-0.8,0.421-1.2,0.232
				c-0.411-0.19-0.653-0.611-0.611-1.063l4.917-52.914c0.537-5.359,5.043-9.434,10.423-9.434s9.886,4.075,10.423,9.434
				L86.995,85.389z"/>
		</g>
		<g>
			<path style="fill:#5B5C5F;" d="M78.323,33.824c-0.197-3.539-3.123-6.308-6.668-6.308c-3.544,0-6.471,2.769-6.668,6.308
				l-0.294,5.285c-0.106,1.913,0.58,3.786,1.896,5.178c1.317,1.392,3.149,2.181,5.065,2.181c1.916,0,3.748-0.789,5.065-2.181
				c1.317-1.392,2.003-3.265,1.896-5.178L78.323,33.824z"/>
		</g>
		<g>
			<path style="fill:#5B5C5F;" d="M75.582,84.294c-1.211,0.526-2.285,1.327-3.127,2.327c-0.2,0.242-0.484,0.379-0.8,0.379
				c-0.305,0-0.6-0.137-0.8-0.379c-0.842-1-1.916-1.8-3.127-2.327l1.695-27.564c0.071-1.181,1.05-2.102,2.233-2.102
				c1.183,0,2.161,0.921,2.233,2.102L75.582,84.294z"/>
		</g>
		<g>
			<path style="fill:#5B5C5F;" d="M31.723,76.161c0.198,3.557,3.14,6.341,6.703,6.341c3.563,0,6.505-2.783,6.703-6.341l0.295-5.313
				c0.107-1.923-0.583-3.806-1.906-5.205c-1.324-1.399-3.165-2.192-5.092-2.192c-1.926,0-3.768,0.793-5.092,2.192
				c-1.324,1.399-2.013,3.282-1.906,5.205L31.723,76.161z"/>
		</g>
		<g>
			<path style="fill:#5B5C5F;" d="M34.478,25.72c1.217-0.529,2.297-1.334,3.143-2.339C37.823,23.138,38.109,23,38.426,23
				c0.307,0,0.603,0.138,0.804,0.381c0.847,1.006,1.926,1.81,3.143,2.339L40.67,53.963c-0.072,1.187-1.055,2.113-2.244,2.113
				c-1.189,0-2.173-0.926-2.244-2.113L34.478,25.72z"/>
		</g>
		<g>
			<path style="fill:#9E9FA0;" d="M42.374,25.72c-1.217-0.529-2.297-1.333-3.144-2.339C39.03,23.138,38.733,23,38.426,23
				c-0.318,0-0.603,0.138-0.804,0.381c-0.847,1.006-1.926,1.81-3.144,2.339l1.18,19.565l5.891-5.891L42.374,25.72z"/>
		</g>
	</g>
</g>
</svg>
