<?xml version="1.0" encoding="iso-8859-1"?>
<!-- Generator: Adobe Illustrator 17.1.0, SVG Export Plug-In . SVG Version: 6.00 Build 0)  -->
<!DOCTYPE svg PUBLIC "-//W3C//DTD SVG 1.0//EN" "http://www.w3.org/TR/2001/REC-SVG-20010904/DTD/svg10.dtd">
<svg version="1.0" xmlns="http://www.w3.org/2000/svg" xmlns:xlink="http://www.w3.org/1999/xlink" x="0px" y="0px" width="110px"
	 height="110px" viewBox="0 0 110 110" style="enable-background:new 0 0 110 110;" xml:space="preserve">
<g id="Artboard">
</g>
<g id="Multicolor">
	<g>
		<circle style="fill:#32BEA6;" cx="55" cy="55" r="55"/>
	</g>
	<g>
		<path style="fill:#F3B607;" d="M43,67c0,0-12.339,2.559-16,5c-3,2-4,15-4,15h32h32c0,0-1-13-4-15c-3.661-2.441-16-5-16-5H43z"/>
		<path style="fill:#FACB1B;" d="M60.002,67.995l-0.173,0.347C59.321,69.358,58.282,70,57.146,70H55h-2.146
			c-1.136,0-2.175-0.642-2.683-1.658l-0.173-0.346c-3.229-1.406-5.451-4.188-6.998-7.535V67c-0.03,0.048,0.006,9.654,9.5,9.984V87h5
			V76.984C66.993,76.652,67,67,67,67v-6.541C65.454,63.806,63.232,66.589,60.002,67.995z"/>
		<path style="fill:#FBC8C8;" d="M42,42c-0.004,0.33-0.007,11-0.007,11C41.18,56.015,48.936,67.898,53,68h2h2
			c3.985-0.005,11-11,11-15c0,0-0.003-10.67-0.007-11H42z"/>
		<path style="fill:#FBD7D7;" d="M41.015,42C41.011,42.334,41,42.657,41,43v10c0,4,8.015,14.995,12,15h2V42H41.015z"/>
		<path style="fill:#3E3E3F;" d="M39.161,71.42L41,71l-1.25-4L31,69l1.25,4l1.723-0.394L36,87c2.083,0.256,4.083-0.156,6,0
			L39.161,71.42z"/>
		<path style="fill:#3E3E3F;" d="M79,69l-8.75-2L69,71l1.839,0.42L68,87c1.917-0.156,3.917,0.256,6,0l2.027-14.394L77.75,73L79,69z"
			/>
		<g>
			<path style="fill:#F79392;" d="M50,57h10c0,0,0,3-5,3S50,57,50,57z"/>
		</g>
		<path style="fill:#DF2C2C;" d="M55,24L55,24c-0.002,0-0.003,0-0.005,0s-0.004,0-0.006,0v0C38.001,24.008,39,42,39,42h15.989H55
			h15.989C70.989,42,71.988,24.008,55,24z"/>
		<g>
			<path style="fill:#FA5655;" d="M55,42H39c0,0-1-18,16-18C55,38.625,55,42,55,42z"/>
		</g>
		<path style="fill:#FACB1B;" d="M63,28c0-3-8-7-8-7s-8,4-8,7s2,4,2,7h-2v4h8h8v-4h-2C61,32,63,31,63,28z"/>
		<g>
			<path style="fill:#FBE158;" d="M55,21c0,0-8,4-8,7s2,4,2,7h-2v4h8V21z"/>
		</g>
		<g>
			<polygon style="fill:#3E3E3F;" points="55.146,24.767 56.646,27.806 60,28.293 57.573,30.659 58.146,34 55.146,32.423 52.146,34 
				52.719,30.659 50.291,28.293 53.646,27.806 			"/>
		</g>
		<path style="fill:#FBE158;" d="M50.171,68.342l-0.173-0.346c-3.229-1.406-5.451-4.188-6.998-7.535V67
			c-0.03,0.048,0.006,9.654,9.5,9.984V87H55V70h-2.146C51.718,70,50.679,69.358,50.171,68.342z"/>
		<path style="fill:#3E3E3F;" d="M72.029,42c-0.999-0.039-17,0-17,0C51.42,42,38.856,42,38,42c-7.836,0-3.198,8.631,2.634,10.864
			c1.278,6.379,3.87,12.739,9.364,15.131l0.173,0.346C50.679,69.358,51.718,70,52.854,70H55h2.146c1.136,0,2.175-0.642,2.683-1.658
			l0.173-0.347c5.485-2.388,8.078-8.732,9.357-15.1C74.533,51.268,78.598,42.257,72.029,42z M67,52
			c-1.082,6.492-3.335,10.054-5.809,12H55h-6.191c-2.474-1.946-4.727-5.508-5.809-12H67z"/>
		<g>
			<path style="fill:#5B5C5F;" d="M55,50c-4.624,0-10.184-1.691-14.95-1.948C40.331,51.039,42.096,55,51,55c2,0,3-3,4-3s2,3,4,3
				c8.904,0,10.669-3.961,10.95-6.948C65.184,48.309,59.624,50,55,50z"/>
		</g>
		<path style="fill:#5B5C5F;" d="M40.05,48.052C40.331,51.039,42.096,55,51,55c2,0,3-3,4-3v-2C50.376,50,44.816,48.309,40.05,48.052
			z"/>
	</g>
</g>
</svg>
