<?xml version="1.0" encoding="iso-8859-1"?>
<!-- Generator: Adobe Illustrator 17.1.0, SVG Export Plug-In . SVG Version: 6.00 Build 0)  -->
<!DOCTYPE svg PUBLIC "-//W3C//DTD SVG 1.0//EN" "http://www.w3.org/TR/2001/REC-SVG-20010904/DTD/svg10.dtd">
<svg version="1.0" xmlns="http://www.w3.org/2000/svg" xmlns:xlink="http://www.w3.org/1999/xlink" x="0px" y="0px" width="110px"
	 height="110px" viewBox="0 0 110 110" style="enable-background:new 0 0 110 110;" xml:space="preserve">
<g id="Artboard">
</g>
<g id="Multicolor">
	<circle style="fill:#25B7D3;" cx="55" cy="55" r="55"/>
	<g>
		<g>
			<path style="fill:#BF0302;" d="M82,73h-1V57l-3-20h-7l-4-4H43l-4,4h-7l-3,20v16h-1c-0.55,0-1,0.45-1,1v6
				c0,0.22,0.08,0.43,0.2,0.6c0.18,0.24,0.47,0.4,0.8,0.4h54c0.33,0,0.62-0.16,0.8-0.4c0.12-0.17,0.2-0.38,0.2-0.6v-6
				C83,73.45,82.55,73,82,73z"/>
		</g>
		<g>
			<polygon style="fill:#DF2C2C;" points="40.113,57 29,57 29,68.113 			"/>
		</g>
		<g>
			<polygon style="fill:#DF2C2C;" points="81,57 29,57 32,37 78,37 			"/>
		</g>
		<g>
			<polygon style="fill:#FA5655;" points="32,37 29,57 40.113,57 60.113,37 			"/>
		</g>
		<g>
			<path style="fill:#3E3E3F;" d="M79,81c0,3.314-2.686,6-6,6s-6-2.686-6-6v-6h12V81z"/>
		</g>
		<g>
			<path style="fill:#3E3E3F;" d="M43,81c0,3.314-2.686,6-6,6s-6-2.686-6-6v-6h12V81z"/>
		</g>
		<g>
			<path style="fill:#5B5C5F;" d="M27.723,44C27.894,44.295,28,44.634,28,45v1h2.65l0.3-2H27.723z"/>
		</g>
		<g>
			<path style="fill:#5B5C5F;" d="M27.414,54.414C27.052,54.776,26.552,55,26,55l3,3v-1l0.13-0.87L27.414,54.414z"/>
		</g>
		<g>
			<path style="fill:#DF2C2C;" d="M23,53c0,1.105,0.895,2,2,2h1c1.105,0,2-0.895,2-2v-8c0-1.105-0.895-2-2-2h-1
				c-1.105,0-2,0.895-2,2V53z"/>
		</g>
		<g>
			<path style="fill:#5B5C5F;" d="M82,45c0-0.366,0.106-0.705,0.277-1H79.05l0.3,2H82V45z"/>
		</g>
		<g>
			<path style="fill:#5B5C5F;" d="M80.87,56.13L81,57v1l3-3c-0.552,0-1.052-0.224-1.414-0.586L80.87,56.13z"/>
		</g>
		<g>
			<path style="fill:#DF2C2C;" d="M87,53c0,1.105-0.895,2-2,2h-1c-1.105,0-2-0.895-2-2v-8c0-1.105,0.895-2,2-2h1
				c1.105,0,2,0.895,2,2V53z"/>
		</g>
		<g>
			<path style="fill:#FFFFFF;" d="M83,74v6c0,0.22-0.08,0.43-0.2,0.6C82.62,80.84,82.33,81,82,81H28c-0.33,0-0.62-0.16-0.8-0.4
				C27.08,80.43,27,80.22,27,80v-6c0-0.55,0.45-1,1-1h54C82.55,73,83,73.45,83,74z"/>
		</g>
		<g>
			<path style="fill:#40C9E7;" d="M53,43v10c0,0.55-0.45,1-1,1H33.5L35,42h17C52.55,42,53,42.45,53,43z"/>
		</g>
		<g>
			<path style="fill:#40C9E7;" d="M58,42c-0.55,0-1,0.45-1,1v10c0,0.55,0.45,1,1,1h18.5L75,42H58z"/>
		</g>
		<g>
			<path style="fill:#DF2C2C;" d="M43,73H29V59h12c1.105,0,2,0.895,2,2V73z"/>
		</g>
		<g>
			<polygon style="fill:#FA5655;" points="29,59 29,68.113 38.113,59 			"/>
		</g>
		<g>
			<path style="fill:#DF2C2C;" d="M67,73h14V59H69c-1.105,0-2,0.895-2,2V73z"/>
		</g>
		<g>
			<rect x="43" y="61" style="fill:#FA5655;" width="24" height="2"/>
		</g>
		<g>
			<rect x="43" y="65" style="fill:#FA5655;" width="24" height="2"/>
		</g>
		<g>
			<rect x="43" y="69" style="fill:#FA5655;" width="24" height="2"/>
		</g>
		<g>
			<path style="fill:#FFFFFF;" d="M62.5,23c-0.828,0-1.5,0.672-1.5,1.5V26H49v-1.5c0-0.828-0.672-1.5-1.5-1.5S46,23.672,46,24.5V33
				h3v-3h12v3h3v-8.5C64,23.672,63.328,23,62.5,23z"/>
		</g>
		<g>
			<g>
				<polygon style="fill:#DF2C2C;" points="43,73 39,81 43,81 47,73 				"/>
			</g>
			<g>
				<polygon style="fill:#DF2C2C;" points="35,73 31,81 35,81 39,73 				"/>
			</g>
			<g>
				<path style="fill:#DF2C2C;" d="M31,73l-3.8,7.6C27.08,80.43,27,80.22,27,80v-6c0-0.55,0.45-1,1-1H31z"/>
			</g>
			<g>
				<polygon style="fill:#DF2C2C;" points="51,73 47,81 51,81 55,73 				"/>
			</g>
			<g>
				<polygon style="fill:#DF2C2C;" points="67,73 71,81 67,81 63,73 				"/>
			</g>
			<g>
				<polygon style="fill:#DF2C2C;" points="75,73 79,81 75,81 71,73 				"/>
			</g>
			<g>
				<path style="fill:#DF2C2C;" d="M83,74v6c0,0.22-0.08,0.43-0.2,0.6L79,73h3C82.55,73,83,73.45,83,74z"/>
			</g>
			<g>
				<polygon style="fill:#DF2C2C;" points="59,73 63,81 59,81 55,73 				"/>
			</g>
		</g>
		<g>
			<g>
				<circle style="fill:#FBE158;" cx="36" cy="66" r="4"/>
			</g>
			<g>
				<path style="fill:#FBEC9A;" d="M36.018,62c-2.209,0-4,1.791-4,4c0,1.11,0.454,2.114,1.185,2.839l5.655-5.655
					C38.132,62.454,37.128,62,36.018,62z"/>
			</g>
		</g>
		<g>
			<g>
				<circle style="fill:#FBE158;" cx="74" cy="66" r="4"/>
			</g>
			<g>
				<path style="fill:#FBEC9A;" d="M74.018,62c-2.209,0-4,1.791-4,4c0,1.11,0.454,2.114,1.185,2.839l5.655-5.655
					C76.132,62.454,75.128,62,74.018,62z"/>
			</g>
		</g>
		<g>
			<polygon style="fill:#DF2C2C;" points="39,37 60.113,37 64.113,33 43,33 			"/>
		</g>
		<g>
			<path style="fill:#6FDAF1;" d="M53,43c0-0.55-0.45-1-1-1H35l-1.5,12h9.613L53,44.113V43z"/>
		</g>
		<g>
			<polygon style="fill:#F3B607;" points="40.4,33 35.6,33 34,37 42,37 			"/>
		</g>
		<g>
			<polygon style="fill:#F3B607;" points="74.4,33 69.6,33 68,37 76,37 			"/>
		</g>
		<g>
			<polygon style="fill:#FBE158;" points="38,33 35.6,33 34,37 38,37 			"/>
		</g>
		<g>
			<polygon style="fill:#FBE158;" points="72,33 69.6,33 68,37 72,37 			"/>
		</g>
	</g>
</g>
</svg>
