<?xml version="1.0" encoding="iso-8859-1"?>
<!-- Generator: Adobe Illustrator 17.1.0, SVG Export Plug-In . SVG Version: 6.00 Build 0)  -->
<!DOCTYPE svg PUBLIC "-//W3C//DTD SVG 1.0//EN" "http://www.w3.org/TR/2001/REC-SVG-20010904/DTD/svg10.dtd">
<svg version="1.0" xmlns="http://www.w3.org/2000/svg" xmlns:xlink="http://www.w3.org/1999/xlink" x="0px" y="0px" width="110px"
	 height="110px" viewBox="0 0 110 110" style="enable-background:new 0 0 110 110;" xml:space="preserve">
<g id="Artboard">
</g>
<g id="Multicolor">
	<circle style="fill:#32BEA6;" cx="55" cy="55" r="55"/>
	<g>
		<g>
			<rect x="47" y="65" style="fill:#3E3E3F;" width="8" height="16"/>
		</g>
		<g>
			<path style="fill:#DF2C2C;" d="M47,55v26H27c-2.209,0-4-1.791-4-4V65.61c0-0.21,0.03-0.41,0.1-0.61c0.05-0.18,0.13-0.35,0.24-0.5
				l7.07-10.61C30.78,53.33,31.4,53,32.07,53H45C46.1,53,47,53.9,47,55z"/>
		</g>
		<g>
			<path style="fill:#FFFFFF;" d="M77.728,47.011c-0.058-0.755-0.537-1.413-1.238-1.7L31.355,26.704
				c-0.701-0.286-1.504-0.152-2.074,0.348l-4.289,2.57c-0.521,0.457-0.769,1.151-0.654,1.835c0.115,0.684,0.575,1.259,1.217,1.521
				l50.69,20.875c0.642,0.262,1.373,0.173,1.934-0.235s0.869-1.077,0.816-1.768L77.728,47.011z"/>
		</g>
		<g>
			<path style="fill:#E2E4E5;" d="M25.555,32.977l50.689,20.875c0.642,0.262,1.374,0.173,1.934-0.235
				c0.56-0.408,0.869-1.077,0.816-1.769l-0.268-1.025L25.859,29.102l-0.866,0.519c-0.521,0.457-0.769,1.151-0.654,1.834
				C24.453,32.139,24.913,32.715,25.555,32.977z"/>
		</g>
		<g>
			<path style="fill:#DF2C2C;" d="M55,55c0-1.105,0.895-2,2-2h24l6,6v20c0,1.105-0.895,2-2,2H55V55z"/>
		</g>
		<g>
			<path style="fill:#FACB1B;" d="M41,50c0-1.105-0.895-2-2-2h-2c-1.105,0-2,0.895-2,2v3h6V50z"/>
		</g>
		<g>
			<circle style="fill:#3E3E3F;" cx="73" cy="80" r="7"/>
		</g>
		<g>
			<circle style="fill:#EBEBEC;" cx="73" cy="80" r="3"/>
		</g>
		<g>
			<circle style="fill:#3E3E3F;" cx="36" cy="80" r="7"/>
		</g>
		<g>
			<circle style="fill:#EBEBEC;" cx="36" cy="80" r="3"/>
		</g>
		<g>
			<rect x="39" y="68" style="fill:#E2E4E5;" width="4" height="2"/>
		</g>
		<g>
			<polygon style="fill:#3E3E3F;" points="79,49 71,49 69,53 81,53 			"/>
		</g>
		<g>
			<rect x="47" y="59" style="fill:#E2E4E5;" width="8" height="6"/>
		</g>
		<g>
			<path style="fill:#FBE158;" d="M38,48h-1c-1.104,0-2,0.896-2,2v3h3V48z"/>
		</g>
		<g>
			<path style="fill:#FA5655;" d="M44.553,53H32.07c-0.67,0-1.29,0.33-1.66,0.89L23.34,64.5c-0.11,0.15-0.19,0.32-0.24,0.5
				c-0.07,0.2-0.1,0.4-0.1,0.61v8.943L44.553,53z"/>
		</g>
		<g>
			<path style="fill:#40C9E7;" d="M43,57v8H28c0.05-0.18,5.24-8,5.24-8H43z"/>
		</g>
		<g>
			<path style="fill:#6FDAF1;" d="M33.24,57c0,0-5.19,7.82-5.24,8h4.553l8-8H33.24z"/>
		</g>
	</g>
</g>
</svg>
