<?xml version="1.0" encoding="iso-8859-1"?>
<!-- Generator: Adobe Illustrator 17.1.0, SVG Export Plug-In . SVG Version: 6.00 Build 0)  -->
<!DOCTYPE svg PUBLIC "-//W3C//DTD SVG 1.0//EN" "http://www.w3.org/TR/2001/REC-SVG-20010904/DTD/svg10.dtd">
<svg version="1.0" xmlns="http://www.w3.org/2000/svg" xmlns:xlink="http://www.w3.org/1999/xlink" x="0px" y="0px" width="110px"
	 height="110px" viewBox="0 0 110 110" style="enable-background:new 0 0 110 110;" xml:space="preserve">
<g id="Artboard">
</g>
<g id="Multicolor">
	<circle style="fill:#25B7D3;" cx="55" cy="55" r="55"/>
	<g>
		<g>
			<path style="fill:#3E3E3F;" d="M39.755,66.263c-2.494,1.433-6.024,4.401-7.677,10.187c-1.608,5.629-6.227,6.543-6.406,6.577
				c-1.09,0.182-1.825,1.212-1.644,2.302c0.163,0.978,1.01,1.672,1.97,1.671c1.252,0,7.751-1.839,9.926-9.451
				c1.565-5.477,5.187-7.615,6.799-8.319L39.755,66.263z"/>
		</g>
		<g>
			<path style="fill:#E2E4E5;" d="M61.544,31.484L34.828,58.2c-0.866,0.866-0.866,2.271,0,3.137L48.662,75.17
				c0.866,0.866,2.271,0.866,3.137,0l26.716-26.716L61.544,31.484z"/>
		</g>
		<g>
			<polygon style="fill:#F3B607;" points="57.301,27.241 82.757,52.697 87,22.999 			"/>
		</g>
		<g>
			<path style="fill:#DF2C2C;" d="M55.725,71.245l-3.926,3.926c-0.866,0.866-2.271,0.866-3.137,0L34.62,61.129
				C41.019,67.372,47.529,69.838,55.725,71.245z"/>
		</g>
		<g>
			<path style="fill:#DF2C2C;" d="M67.038,59.931l-6.675,6.675c-7.835-2.235-15.231-6.406-21.44-12.501l5.65-5.65
				C50.973,54.698,58.843,58.524,67.038,59.931z"/>
		</g>
		<g>
			<path style="fill:#DF2C2C;" d="M78.352,48.617l-6.675,6.675c-7.835-2.235-15.231-6.406-21.44-12.501l5.65-5.65
				C62.286,43.385,70.156,47.21,78.352,48.617z"/>
		</g>
		<g>
			<path style="fill:#FA5655;" d="M42.83,67.179l-1.08,1.08l-7-7C37.39,63.809,40.04,65.719,42.83,67.179z"/>
		</g>
		<g>
			<path style="fill:#FFFFFF;" d="M48.52,61.489l-5.69,5.69c-2.79-1.46-5.44-3.37-8.08-5.92c-0.01-0.02-0.03-0.03-0.04-0.04
				c-0.01-0.02-0.03-0.03-0.04-0.05c-0.71-0.87-0.66-2.15,0.15-2.97l4.1-4.09C41.87,57.009,45.1,59.479,48.52,61.489z"/>
		</g>
		<g>
			<path style="fill:#FA5655;" d="M54.39,55.619l-5.87,5.87c-3.42-2.01-6.65-4.48-9.6-7.38l5.65-5.65
				C47.56,51.379,50.87,53.769,54.39,55.619z"/>
		</g>
		<g>
			<path style="fill:#FFFFFF;" d="M59.83,50.189l-5.44,5.43c-3.52-1.85-6.83-4.24-9.82-7.16l5.66-5.67
				C53.19,45.689,56.42,48.159,59.83,50.189z"/>
		</g>
		<g>
			<path style="fill:#FA5655;" d="M65.71,44.309l-5.88,5.88c-3.41-2.03-6.64-4.5-9.6-7.4l5.65-5.65
				C58.87,40.059,62.19,42.449,65.71,44.309z"/>
		</g>
		<g>
			<path style="fill:#FFFFFF;" d="M70.03,39.979l-4.32,4.33c-3.52-1.86-6.84-4.25-9.83-7.17l5.66-5.65L70.03,39.979z"/>
		</g>
		<g>
			<polygon style="fill:#FACB1B;" points="87,23.028 57.302,27.271 70.029,39.999 			"/>
		</g>
	</g>
</g>
</svg>
