<?xml version="1.0" encoding="iso-8859-1"?>
<!-- Generator: Adobe Illustrator 17.1.0, SVG Export Plug-In . SVG Version: 6.00 Build 0)  -->
<!DOCTYPE svg PUBLIC "-//W3C//DTD SVG 1.0//EN" "http://www.w3.org/TR/2001/REC-SVG-20010904/DTD/svg10.dtd">
<svg version="1.0" xmlns="http://www.w3.org/2000/svg" xmlns:xlink="http://www.w3.org/1999/xlink" x="0px" y="0px" width="110px"
	 height="110px" viewBox="0 0 110 110" style="enable-background:new 0 0 110 110;" xml:space="preserve">
<g id="Artboard">
</g>
<g id="Multicolor">
	<circle style="fill:#25B7D3;" cx="55" cy="55" r="55"/>
	<g>
		<g>
			<path style="fill:#F0F1F1;" d="M68.824,42.164C65.729,33.067,60.245,29,51.062,29H38.937C30.149,29,23,36.149,23,44.938
				c0,1.104,0.896,2,2,2s2-0.896,2-2C27,38.355,32.355,33,38.937,33h12.125c7.405,0,11.466,3.044,13.987,10.484L68.824,42.164z"/>
		</g>
		<g>
			<path style="fill:#3E3E3F;" d="M77.321,55.022c0.127,0.257,0.138,0.556,0.03,0.821c-0.108,0.265-0.325,0.472-0.596,0.566
				l-9.19,3.216c-0.271,0.095-0.569,0.069-0.819-0.071s-0.428-0.381-0.489-0.661l-3.012-13.911
				c-0.107-0.493,0.171-0.989,0.647-1.155l5.883-2.059c0.476-0.167,1.002,0.048,1.226,0.5L77.321,55.022z"/>
		</g>
		<g>
			<path style="fill:#3E3E3F;" d="M42.824,35.139c0.61-0.082,1.228-0.139,1.86-0.139h0.28c0.632,0,1.25,0.057,1.86,0.139V24
				c0-0.552-0.448-1-1-1h-19v2l16,2V35.139z"/>
		</g>
		<g>
			<path style="fill:#DF2C2C;" d="M44.964,35h-0.28c-7.655,0-13.86,6.205-13.86,13.86V85c0,1.105,0.895,2,2,2h24
				c1.105,0,2-0.895,2-2V48.86C58.824,41.205,52.618,35,44.964,35z"/>
		</g>
		<g>
			<path style="fill:#FA5655;" d="M44.824,35h-0.14c-7.655,0-13.86,6.205-13.86,13.86V85c0,1.104,0.895,2,2,2h12V35z"/>
		</g>
		<g>
			<path style="fill:#FACB1B;" d="M77.605,82.526c0-1.319-0.991-2.648-1.916-4.128l-6.395,6.395C70.073,86.108,71.492,87,73.131,87
				C75.602,87,77.605,84.997,77.605,82.526z"/>
		</g>
		<g>
			<path style="fill:#DF2C2C;" d="M81.36,72.727c-2.191-3.99-6.075-8.309-6.075-13.727c0,0-7.538,6.461-4.308,15.077
				c-1.077,0-3.231-3.231-3.231-5.385c0-0.069-4.308,2.154-4.308,8.615c0,3.614,1.982,6.76,4.914,8.426
				C69.764,86.536,71.392,87,73.131,87c-1.64,0-3.058-0.892-3.837-2.207c-0.395-0.667-0.636-1.436-0.636-2.267
				c0-2.982,1.988-4.008,1.988-3.976c0,0.994,0.994,2.485,1.491,2.485c-1.491-3.977,1.988-6.958,1.988-6.958
				c0,1.622,0.756,3.029,1.564,4.321c0.925,1.48,1.916,2.81,1.916,4.128c0,2.471-2.003,4.474-4.473,4.474
				c5.353,0,9.692-4.339,9.692-9.692C82.824,75.802,82.217,74.289,81.36,72.727z"/>
		</g>
		<g>
			<path style="fill:#FA5655;" d="M68.658,82.526c0-2.982,1.988-4.008,1.988-3.976c0,0.994,0.994,2.485,1.491,2.485
				c-1.491-3.977,1.988-6.958,1.988-6.958c0,1.622,0.756,3.029,1.564,4.321l5.671-5.671c-2.191-3.99-6.075-8.309-6.075-13.727
				c0,0-7.538,6.461-4.308,15.077c-1.077,0-3.231-3.231-3.231-5.385c0-0.069-4.308,2.154-4.308,8.615
				c0,3.614,1.982,6.76,4.914,8.426l0.941-0.941C68.9,84.126,68.658,83.357,68.658,82.526z"/>
		</g>
		<g>
			<path style="fill:#FBE158;" d="M72.137,81.036c-0.497,0-1.491-1.491-1.491-2.485c0-0.032-1.988,0.994-1.988,3.976
				c0,0.831,0.242,1.6,0.636,2.267l6.395-6.395c-0.807-1.292-1.564-2.699-1.564-4.321C74.125,74.077,70.646,77.059,72.137,81.036z"
				/>
		</g>
	</g>
</g>
</svg>
