<?xml version="1.0" encoding="iso-8859-1"?>
<!-- Generator: Adobe Illustrator 17.1.0, SVG Export Plug-In . SVG Version: 6.00 Build 0)  -->
<!DOCTYPE svg PUBLIC "-//W3C//DTD SVG 1.0//EN" "http://www.w3.org/TR/2001/REC-SVG-20010904/DTD/svg10.dtd">
<svg version="1.0" xmlns="http://www.w3.org/2000/svg" xmlns:xlink="http://www.w3.org/1999/xlink" x="0px" y="0px" width="110px"
	 height="110px" viewBox="0 0 110 110" style="enable-background:new 0 0 110 110;" xml:space="preserve">
<g id="Artboard">
</g>
<g id="Multicolor">
	<g>
		<circle style="fill:#E04F5F;" cx="55" cy="55" r="55"/>
	</g>
	<g>
		<path style="fill:#FBE158;" d="M53,23v1c-11,0-15,11-15,17c0,3.065,1,13,2.724,16.014C41.294,58.011,41.852,59,43,59
			c0,0,0-12,0-16s12-4,12-4V23H53z"/>
		<path style="fill:#FFFFFF;" d="M60.725,71.841c-1.4,0.69-3.25,1.152-5.72,1.153L55,72.997l-0.005-0.003
			c-2.468-0.001-4.317-0.463-5.717-1.151c1.688,3.529,3.705,7.328,5.722,10.151C56.415,79.99,58.269,76.976,60.725,71.841z"/>
		<path style="fill:#3E3E3F;" d="M83,71.994c-3.661-2.441-16-7-16-7l-12,17l-12-17c0,0-12.339,4.559-16,7C24,73.994,23,87,23,87h64
			C87,87,86,73.994,83,71.994z"/>
		<path style="fill:#F7B4B4;" d="M59.992,68.016l-0.163,0.326C59.321,69.358,58.282,70,57.146,70H55h-2.146
			c-1.136,0-2.175-0.642-2.683-1.658l-0.163-0.326c-1.34-0.58-2.486-1.421-3.5-2.421c0.736,1.739,1.708,3.948,2.823,6.279
			c1.394,0.673,3.233,1.12,5.669,1.12c2.466,0,4.321-0.457,5.721-1.144c1.125-2.352,2.103-4.578,2.84-6.321
			C62.531,66.559,61.362,67.422,59.992,68.016z"/>
		<g>
			<path style="fill:#5B5C5F;" d="M45.041,62c0,0,5,13,10,20c-3-2-6-3-6-3s-7,4-9,2s-1-13,2-17C45.041,62,45.041,62,45.041,62z"/>
		</g>
		<g>
			
				<rect x="40.035" y="71.994" transform="matrix(0.8683 -0.496 0.496 0.8683 -30.4718 31.204)" style="fill:#FACB1B;" width="7" height="2"/>
		</g>
		<g>
			
				<rect x="42" y="75.39" transform="matrix(0.8683 -0.496 0.496 0.8683 -31.8973 32.6256)" style="fill:#FACB1B;" width="7" height="2"/>
		</g>
		<g>
			<path style="fill:#5B5C5F;" d="M65,62c0,0-5,13-10,20c3-2,6-3,6-3s7,4,9,2s1-13-2-17C65,62,65,62,65,62z"/>
		</g>
		<g>
			
				<rect x="62.965" y="71.994" transform="matrix(-0.8683 -0.496 0.496 -0.8683 87.9742 169.3427)" style="fill:#FACB1B;" width="7" height="2"/>
		</g>
		<g>
			
				<rect x="61" y="75.39" transform="matrix(-0.8683 -0.496 0.496 -0.8683 82.619 174.7125)" style="fill:#FACB1B;" width="7" height="2"/>
		</g>
		<g>
			<path style="fill:#FBC8C8;" d="M55,28c-12.976,0-13.982,6-14,15v10c0,4,8.015,14.995,12,15h2h2c3.985-0.005,12-11,12-15V43
				C68.982,34,67.976,28,55,28z"/>
		</g>
		<path style="fill:#FBD7D7;" d="M41,42.994v10c0,4,8.015,14.995,12,15h2v-40C42.024,27.994,41.018,33.994,41,42.994z"/>
		<g>
			<path style="fill:#F79392;" d="M50,55.997h10c0,0,0,3-5,3S50,55.997,50,55.997z"/>
		</g>
		<path style="fill:#3E3E3F;" d="M38,41c0-0.265,0.011-0.542,0.026-0.824C36.851,40.581,36,41.686,36,43
			c0,1.427,0.998,2.615,2.333,2.92C38.116,43.853,38,42.033,38,41z"/>
		<path style="fill:#3E3E3F;" d="M67,59c0,0,0-3.291,0-7c-1.082,6.492-3.335,10.054-5.809,12H55h-6.191
			c-2.474-1.946-4.727-5.508-5.809-12c0,3.709,0,7,0,7c-0.257,0-0.48-0.056-0.685-0.144c1.552,4.064,3.946,7.537,7.693,9.159
			l0.163,0.326C50.679,69.358,51.718,70,52.854,70H55h2.146c1.136,0,2.175-0.642,2.683-1.658l0.163-0.326
			c3.747-1.623,6.141-5.095,7.693-9.159C67.48,58.944,67.257,59,67,59z"/>
		<path style="fill:#3E3E3F;" d="M71.974,40.176C71.989,40.458,72,40.735,72,41c0,1.033-0.116,2.853-0.333,4.92
			C73.002,45.615,74,44.427,74,43C74,41.686,73.15,40.581,71.974,40.176z"/>
		<g>
			<path style="fill:#3E3E3F;" d="M43,43h24v8c0,0-2,2-4,2c-6,0-5-3-8-3s-2,3-8,3c-2,0-4-2-4-2V43z"/>
		</g>
		<path style="fill:#5B5C5F;" d="M43,43v8c0,0,2,2,4,2c6,0,5-3,8-3v-7H43z"/>
		<path style="fill:#FACB1B;" d="M57,24v-1h-2h-2v1c-11,0-15,11-15,17c0,3.065,1,13,2.724,16.014C41.294,58.011,41.852,59,43,59
			c0,0,0-12,0-16s12-4,12-4s12,0,12,4s0,16,0,16c1.148,0,1.706-0.989,2.276-1.986C71,54,72,44.065,72,41C72,35,68,24,57,24z"/>
		<path style="fill:#3E3E3F;" d="M62,33c-2.501-1.667-4.308-2.64-4.839-5.236C56.951,26.737,56.048,26,55,26
			s-1.951,0.737-2.161,1.764C52.308,30.36,50.501,31.333,48,33c-3,2-7,5-7,6c2,0,8-3,14-3s12,3,14,3C69,38,65,35,62,33z"/>
		<path style="fill:#5B5C5F;" d="M55,38c-6,0-15,2-15,5h15h15C70,40,61,38,55,38z"/>
		<g>
			<path style="fill:#9E9FA0;" d="M40,43h15c0,0,0-3,0-5C49,38,40,40,40,43z"/>
		</g>
		<path style="fill:#FBC8C8;" d="M52.854,70c-1.136,0-2.175-0.642-2.683-1.658l-0.163-0.326c-1.34-0.58-2.486-1.421-3.5-2.421
			c0.736,1.739,1.708,3.948,2.823,6.279c1.394,0.673,3.233,1.12,5.669,1.12V70H52.854z"/>
	</g>
</g>
</svg>
