<?xml version="1.0" encoding="iso-8859-1"?>
<!-- Generator: Adobe Illustrator 17.1.0, SVG Export Plug-In . SVG Version: 6.00 Build 0)  -->
<!DOCTYPE svg PUBLIC "-//W3C//DTD SVG 1.0//EN" "http://www.w3.org/TR/2001/REC-SVG-20010904/DTD/svg10.dtd">
<svg version="1.0" xmlns="http://www.w3.org/2000/svg" xmlns:xlink="http://www.w3.org/1999/xlink" x="0px" y="0px" width="110px"
	 height="110px" viewBox="0 0 110 110" style="enable-background:new 0 0 110 110;" xml:space="preserve">
<g id="Artboard">
</g>
<g id="Multicolor">
	<circle style="fill:#FABC3D;" cx="55" cy="55" r="55"/>
	<g>
		<g>
			<circle style="fill:#DF2C2C;" cx="55" cy="63" r="24"/>
		</g>
		<g>
			<path style="fill:#FA5655;" d="M54.85,39.004C41.665,39.085,31,49.796,31,63s10.665,23.915,23.85,23.996V39.004z"/>
		</g>
		<g>
			<circle style="fill:#F0F1F1;" cx="55" cy="63" r="17"/>
		</g>
		<g>
			<path style="fill:#FFFFFF;" d="M54.85,46.008C45.531,46.089,38,53.662,38,63s7.531,16.911,16.85,16.992V46.008z"/>
		</g>
		<g>
			<g>
				<path style="fill:#FACB1B;" d="M58.994,71.006c0-1.178-0.885-2.364-1.711-3.686l-5.709,5.71C52.27,74.204,53.536,75,55,75
					C57.206,75,58.994,73.212,58.994,71.006z"/>
			</g>
			<g>
				<path style="fill:#DF2C2C;" d="M62.347,62.256c-1.956-3.562-5.424-7.419-5.424-12.256c0,0-6.731,5.769-3.846,13.462
					c-0.962,0-2.885-2.885-2.885-4.808c0-0.062-3.846,1.923-3.846,7.692c0,3.227,1.769,6.036,4.388,7.523
					C51.994,74.586,53.447,75,55,75c-1.464,0-2.73-0.796-3.426-1.971c-0.352-0.596-0.568-1.282-0.568-2.024
					c0-2.662,1.775-3.579,1.775-3.55c0,0.888,0.888,2.219,1.331,2.219c-1.331-3.55,1.775-6.213,1.775-6.213
					c0,1.448,0.675,2.704,1.396,3.858c0.826,1.322,1.711,2.509,1.711,3.686C58.994,73.212,57.206,75,55,75
					c4.779,0,8.654-3.874,8.654-8.654C63.654,65.002,63.113,63.651,62.347,62.256z"/>
			</g>
			<g>
				<path style="fill:#FA5655;" d="M51.006,71.006c0-2.662,1.775-3.579,1.775-3.55c0,0.888,0.888,2.219,1.331,2.219
					c-1.331-3.55,1.775-6.213,1.775-6.213c0,1.448,0.675,2.704,1.396,3.858l5.063-5.063c-1.956-3.562-5.424-7.419-5.424-12.256
					c0,0-6.731,5.769-3.846,13.462c-0.962,0-2.885-2.885-2.885-4.808c0-0.062-3.846,1.923-3.846,7.692
					c0,3.227,1.769,6.036,4.388,7.523l0.84-0.84C51.222,72.434,51.006,71.748,51.006,71.006z"/>
			</g>
			<g>
				<path style="fill:#FBE158;" d="M54.113,69.675c-0.444,0-1.331-1.331-1.331-2.219c0-0.029-1.775,0.888-1.775,3.55
					c0,0.742,0.216,1.428,0.568,2.024l5.709-5.71c-0.721-1.154-1.396-2.41-1.396-3.858C55.888,63.462,52.781,66.124,54.113,69.675z"
					/>
			</g>
		</g>
		<g>
			<g>
				<path style="fill:#FFFFFF;" d="M68.466,37.875c1.101-0.081,2.181,0.32,2.961,1.1c0.769,0.769,1.171,1.832,1.103,2.918
					c-0.043,0.697,0.487,1.297,1.183,1.34c0.697,0.043,1.297-0.487,1.34-1.183c0.112-1.809-0.558-3.581-1.839-4.862
					c-1.3-1.3-3.099-1.969-4.934-1.834c-0.696,0.051-1.219,0.657-1.168,1.353C67.164,37.406,67.774,37.925,68.466,37.875z"/>
			</g>
			<g>
				<path style="fill:#FFFFFF;" d="M80.104,41.156c0.697-0.039,1.23-0.636,1.191-1.333c-0.157-2.794-1.334-5.423-3.314-7.403
					c-1.958-1.958-4.557-3.134-7.318-3.309c-0.697-0.044-1.298,0.485-1.342,1.181c-0.044,0.697,0.484,1.297,1.181,1.342
					c2.147,0.136,4.168,1.051,5.691,2.574c1.54,1.54,2.456,3.585,2.578,5.757C78.81,40.661,79.406,41.196,80.104,41.156z"/>
			</g>
			<g>
				<path style="fill:#FFFFFF;" d="M71.561,25.814c3.496-0.173,6.92,1.146,9.393,3.62c2.468,2.468,3.788,5.884,3.621,9.373
					c-0.033,0.697,0.505,1.29,1.202,1.323c0.697,0.033,1.29-0.505,1.323-1.202c0.201-4.199-1.388-8.311-4.358-11.282
					c-2.977-2.977-7.098-4.565-11.306-4.357c-0.697,0.034-1.234,0.628-1.2,1.325C70.271,25.31,70.862,25.848,71.561,25.814z"/>
			</g>
		</g>
		<g>
			<g>
				<path style="fill:#FFFFFF;" d="M41.534,37.875c-1.101-0.081-2.181,0.32-2.961,1.1c-0.769,0.769-1.171,1.832-1.103,2.918
					c0.043,0.697-0.487,1.297-1.183,1.34c-0.697,0.043-1.297-0.487-1.34-1.183c-0.112-1.809,0.558-3.581,1.839-4.862
					c1.3-1.3,3.099-1.969,4.934-1.834c0.696,0.051,1.219,0.657,1.168,1.353C42.836,37.406,42.226,37.925,41.534,37.875z"/>
			</g>
			<g>
				<path style="fill:#FFFFFF;" d="M29.896,41.156c-0.697-0.039-1.23-0.636-1.191-1.333c0.157-2.794,1.334-5.423,3.314-7.403
					c1.958-1.958,4.557-3.134,7.318-3.309c0.697-0.044,1.298,0.485,1.342,1.181c0.044,0.697-0.484,1.297-1.181,1.342
					c-2.147,0.136-4.168,1.051-5.691,2.574c-1.54,1.54-2.456,3.585-2.578,5.757C31.19,40.661,30.594,41.196,29.896,41.156z"/>
			</g>
			<g>
				<path style="fill:#FFFFFF;" d="M38.439,25.814c-3.496-0.173-6.92,1.146-9.393,3.62c-2.468,2.468-3.788,5.884-3.621,9.373
					c0.033,0.697-0.505,1.29-1.202,1.323c-0.697,0.033-1.29-0.505-1.323-1.202c-0.201-4.199,1.388-8.311,4.358-11.282
					c2.977-2.977,7.098-4.565,11.306-4.357c0.697,0.034,1.234,0.628,1.2,1.325C39.729,25.31,39.138,25.848,38.439,25.814z"/>
			</g>
		</g>
	</g>
</g>
</svg>
