<?xml version="1.0" encoding="iso-8859-1"?>
<!-- Generator: Adobe Illustrator 17.1.0, SVG Export Plug-In . SVG Version: 6.00 Build 0)  -->
<!DOCTYPE svg PUBLIC "-//W3C//DTD SVG 1.0//EN" "http://www.w3.org/TR/2001/REC-SVG-20010904/DTD/svg10.dtd">
<svg version="1.0" xmlns="http://www.w3.org/2000/svg" xmlns:xlink="http://www.w3.org/1999/xlink" x="0px" y="0px" width="110px"
	 height="110px" viewBox="0 0 110 110" style="enable-background:new 0 0 110 110;" xml:space="preserve">
<g id="Artboard" style="display:none;">
	
		<rect x="-712.5" y="-802.5" style="display:inline;fill:#808080;stroke:#000000;stroke-miterlimit:10;" width="1392" height="1369"/>
</g>
<g id="R-Multicolor">
	<circle style="fill:#25B7D3;" cx="55" cy="55" r="55"/>
	<g>
		<g>
			<path style="fill:#6FDAF1;" d="M81.98,38.34C73.93,27.53,59,27,59,27H46.3C30,27,23,35,23,41c0,9,21.31,8,35,8
				c3.86,0,7.36,1.56,9.9,4.1c2.53,2.53,4.1,6.03,4.1,9.9c0,4.933-2.558,9.269-6.415,11.759C68.6,76.723,71.563,78.323,75,79.74
				C81.4,74.95,87,67.23,87,55C87,47.72,84.96,42.33,81.98,38.34z"/>
		</g>
		<g>
			<path style="fill:#9CE5F4;" d="M59,27H46.3C30,27,23,35,23,41c0,5.38,7.616,7.186,16.666,7.768l21.55-21.55
				C59.839,27.031,59,27,59,27z"/>
		</g>
		<g>
			<polygon style="fill:#C9F2F8;" points="49,49 63,59 61,49 			"/>
		</g>
		<g>
			<path style="fill:#FFFFFF;" d="M75,79.74c-10.033,7.511-21.778,10.174-32.36,3.37l10-5c0,0-6.68-11.01-8.64-20.11
				C59,70,64.986,75.613,75,79.74z"/>
		</g>
		<g>
			<path style="fill:#C9F2F8;" d="M81.98,38.34C73.93,27.53,59,27,59,27h-4l4-4C59,23,81.36,23,81.98,38.34z"/>
		</g>
		<g>
			<circle style="fill:#059BBF;" cx="33" cy="37" r="2"/>
		</g>
		<g>
			<path style="fill:#FFFFFF;" d="M55,27h4c0,0,0.839,0.031,2.215,0.219l3.642-3.642C61.505,23.003,59,23,59,23L55,27z"/>
		</g>
	</g>
</g>
<g id="Multicolor" style="display:none;">
	<g style="display:inline;">
		<g>
			<path style="fill:#6FDAF1;" d="M81.98,38.34C73.93,27.53,59,27,59,27H46.3C30,27,23,35,23,41c0,9,21.31,8,35,8
				c3.86,0,7.36,1.56,9.9,4.1c2.53,2.53,4.1,6.03,4.1,9.9c0,4.933-2.558,9.269-6.415,11.759C68.6,76.723,71.563,78.323,75,79.74
				C81.4,74.95,87,67.23,87,55C87,47.72,84.96,42.33,81.98,38.34z"/>
		</g>
		<g>
			<path style="fill:#9CE5F4;" d="M59,27H46.3C30,27,23,35,23,41c0,5.38,7.616,7.186,16.666,7.768l21.55-21.55
				C59.839,27.031,59,27,59,27z"/>
		</g>
		<g>
			<polygon style="fill:#C9F2F8;" points="49,49 63,59 61,49 			"/>
		</g>
		<g>
			<path style="fill:#FFFFFF;" d="M75,79.74c-10.033,7.511-21.778,10.174-32.36,3.37l10-5c0,0-6.68-11.01-8.64-20.11
				C59,70,64.986,75.613,75,79.74z"/>
		</g>
		<g>
			<path style="fill:#C9F2F8;" d="M81.98,38.34C73.93,27.53,59,27,59,27h-4l4-4C59,23,81.36,23,81.98,38.34z"/>
		</g>
		<g>
			<circle style="fill:#059BBF;" cx="33" cy="37" r="2"/>
		</g>
		<g>
			<path style="fill:#FFFFFF;" d="M55,27h4c0,0,0.839,0.031,2.215,0.219l3.642-3.642C61.505,23.003,59,23,59,23L55,27z"/>
		</g>
	</g>
</g>
<g id="Blue" style="display:none;">
	<g style="display:inline;">
		<g>
			<path style="fill:#BBE7F2;" d="M81.98,38.34C73.93,27.53,59,27,59,27H46.3C30,27,23,35,23,41c0,9,21.311,8,35,8
				c3.86,0,7.36,1.56,9.9,4.1C70.43,55.63,72,59.13,72,63c0,4.933-2.559,9.269-6.415,11.759C68.6,76.723,71.563,78.324,75,79.74
				C81.4,74.95,87,67.23,87,55C87,47.72,84.96,42.33,81.98,38.34z"/>
		</g>
		<g>
			<path style="fill:#E1F5FA;" d="M59,27H46.3C30,27,23,35,23,41c0,5.38,7.615,7.186,16.666,7.769l21.55-21.55
				C59.839,27.032,59,27,59,27z"/>
		</g>
		<g>
			<polygon style="fill:#E1F5FA;" points="49,49 63,59 61,49 			"/>
		</g>
		<g>
			<path style="fill:#FFFFFF;" d="M75,79.74c-10.033,7.511-21.777,10.174-32.359,3.37l10-5c0,0-6.681-11.01-8.641-20.11
				C59,70,64.986,75.613,75,79.74z"/>
		</g>
		<g>
			<path style="fill:#E1F5FA;" d="M81.98,38.34C73.93,27.53,59,27,59,27h-4l4-4C59,23,81.36,23,81.98,38.34z"/>
		</g>
		<g>
			<circle style="fill:#0F6175;" cx="33" cy="37" r="2"/>
		</g>
		<g>
			<path style="fill:#FFFFFF;" d="M55,27h4c0,0,0.839,0.032,2.215,0.219l3.643-3.642C61.506,23.003,59,23,59,23L55,27z"/>
		</g>
	</g>
</g>
<g id="R-Blue" style="display:none;">
	<circle style="display:inline;fill:#81D2EB;" cx="55" cy="55" r="55"/>
	<g style="display:inline;">
		<g>
			<path style="fill:#BBE7F2;" d="M81.98,38.34C73.93,27.53,59,27,59,27H46.3C30,27,23,35,23,41c0,9,21.311,8,35,8
				c3.86,0,7.36,1.56,9.9,4.1C70.43,55.63,72,59.13,72,63c0,4.933-2.559,9.269-6.415,11.759C68.6,76.723,71.563,78.324,75,79.74
				C81.4,74.95,87,67.23,87,55C87,47.72,84.96,42.33,81.98,38.34z"/>
		</g>
		<g>
			<path style="fill:#E1F5FA;" d="M59,27H46.3C30,27,23,35,23,41c0,5.38,7.615,7.186,16.666,7.769l21.55-21.55
				C59.839,27.032,59,27,59,27z"/>
		</g>
		<g>
			<polygon style="fill:#E1F5FA;" points="49,49 63,59 61,49 			"/>
		</g>
		<g>
			<path style="fill:#FFFFFF;" d="M75,79.74c-10.033,7.511-21.777,10.174-32.359,3.37l10-5c0,0-6.681-11.01-8.641-20.11
				C59,70,64.986,75.613,75,79.74z"/>
		</g>
		<g>
			<path style="fill:#E1F5FA;" d="M81.98,38.34C73.93,27.53,59,27,59,27h-4l4-4C59,23,81.36,23,81.98,38.34z"/>
		</g>
		<g>
			<circle style="fill:#0F6175;" cx="33" cy="37" r="2"/>
		</g>
		<g>
			<path style="fill:#FFFFFF;" d="M55,27h4c0,0,0.839,0.032,2.215,0.219l3.643-3.642C61.506,23.003,59,23,59,23L55,27z"/>
		</g>
	</g>
</g>
<g id="Green" style="display:none;">
	<g style="display:inline;">
		<g>
			<path style="fill:#AAF0E9;" d="M81.98,38.34C73.93,27.53,59,27,59,27H46.3C30,27,23,35,23,41c0,9,21.311,8,35,8
				c3.86,0,7.36,1.56,9.9,4.1C70.43,55.63,72,59.13,72,63c0,4.933-2.559,9.269-6.415,11.759C68.6,76.723,71.563,78.324,75,79.74
				C81.4,74.95,87,67.23,87,55C87,47.72,84.96,42.33,81.98,38.34z"/>
		</g>
		<g>
			<path style="fill:#D7FCF9;" d="M59,27H46.3C30,27,23,35,23,41c0,5.38,7.615,7.186,16.666,7.769l21.55-21.55
				C59.839,27.032,59,27,59,27z"/>
		</g>
		<g>
			<polygon style="fill:#D7FCF9;" points="49,49 63,59 61,49 			"/>
		</g>
		<g>
			<path style="fill:#FFFFFF;" d="M75,79.74c-10.033,7.511-21.777,10.174-32.359,3.37l10-5c0,0-6.681-11.01-8.641-20.11
				C59,70,64.986,75.613,75,79.74z"/>
		</g>
		<g>
			<path style="fill:#D7FCF9;" d="M81.98,38.34C73.93,27.53,59,27,59,27h-4l4-4C59,23,81.36,23,81.98,38.34z"/>
		</g>
		<g>
			<circle style="fill:#14635B;" cx="33" cy="37" r="2"/>
		</g>
		<g>
			<path style="fill:#FFFFFF;" d="M55,27h4c0,0,0.839,0.032,2.215,0.219l3.643-3.642C61.506,23.003,59,23,59,23L55,27z"/>
		</g>
	</g>
</g>
<g id="R-Green" style="display:none;">
	<circle style="display:inline;fill:#77E0C4;" cx="55" cy="55" r="55"/>
	<g style="display:inline;">
		<g>
			<path style="fill:#AAF0E9;" d="M81.98,38.34C73.93,27.53,59,27,59,27H46.3C30,27,23,35,23,41c0,9,21.311,8,35,8
				c3.86,0,7.36,1.56,9.9,4.1C70.43,55.63,72,59.13,72,63c0,4.933-2.559,9.269-6.415,11.759C68.6,76.723,71.563,78.324,75,79.74
				C81.4,74.95,87,67.23,87,55C87,47.72,84.96,42.33,81.98,38.34z"/>
		</g>
		<g>
			<path style="fill:#D7FCF9;" d="M59,27H46.3C30,27,23,35,23,41c0,5.38,7.615,7.186,16.666,7.769l21.55-21.55
				C59.839,27.032,59,27,59,27z"/>
		</g>
		<g>
			<polygon style="fill:#D7FCF9;" points="49,49 63,59 61,49 			"/>
		</g>
		<g>
			<path style="fill:#FFFFFF;" d="M75,79.74c-10.033,7.511-21.777,10.174-32.359,3.37l10-5c0,0-6.681-11.01-8.641-20.11
				C59,70,64.986,75.613,75,79.74z"/>
		</g>
		<g>
			<path style="fill:#D7FCF9;" d="M81.98,38.34C73.93,27.53,59,27,59,27h-4l4-4C59,23,81.36,23,81.98,38.34z"/>
		</g>
		<g>
			<circle style="fill:#14635B;" cx="33" cy="37" r="2"/>
		</g>
		<g>
			<path style="fill:#FFFFFF;" d="M55,27h4c0,0,0.839,0.032,2.215,0.219l3.643-3.642C61.506,23.003,59,23,59,23L55,27z"/>
		</g>
	</g>
</g>
<g id="Red" style="display:none;">
	<g style="display:inline;">
		<g>
			<path style="fill:#FFD7D4;" d="M81.98,38.34C73.93,27.53,59,27,59,27H46.3C30,27,23,35,23,41c0,9,21.31,8,35,8
				c3.86,0,7.36,1.56,9.9,4.1C70.43,55.63,72,59.13,72,63c0,4.933-2.559,9.269-6.415,11.759C68.6,76.723,71.563,78.324,75,79.74
				C81.4,74.95,87,67.23,87,55C87,47.72,84.96,42.33,81.98,38.34z"/>
		</g>
		<g>
			<path style="fill:#FFEFED;" d="M59,27H46.3C30,27,23,35,23,41c0,5.38,7.615,7.186,16.666,7.769l21.55-21.55
				C59.839,27.032,59,27,59,27z"/>
		</g>
		<g>
			<polygon style="fill:#FFEFED;" points="49,49 63,59 61,49 			"/>
		</g>
		<g>
			<path style="fill:#FFFFFF;" d="M75,79.74c-10.033,7.511-21.777,10.174-32.359,3.37l10-5c0,0-6.681-11.01-8.641-20.11
				C59,70,64.986,75.613,75,79.74z"/>
		</g>
		<g>
			<path style="fill:#FFEFED;" d="M81.98,38.34C73.93,27.53,59,27,59,27h-4l4-4C59,23,81.36,23,81.98,38.34z"/>
		</g>
		<g>
			<circle style="fill:#7D261E;" cx="33" cy="37" r="2"/>
		</g>
		<g>
			<path style="fill:#FFFFFF;" d="M55,27h4c0,0,0.839,0.032,2.215,0.219l3.643-3.642C61.506,23.003,59,23,59,23L55,27z"/>
		</g>
	</g>
</g>
<g id="R-Red" style="display:none;">
	<circle style="display:inline;fill:#FABBAF;" cx="55" cy="55" r="55"/>
	<g style="display:inline;">
		<g>
			<path style="fill:#FFD7D4;" d="M81.98,38.34C73.93,27.53,59,27,59,27H46.3C30,27,23,35,23,41c0,9,21.31,8,35,8
				c3.86,0,7.36,1.56,9.9,4.1C70.43,55.63,72,59.13,72,63c0,4.933-2.559,9.269-6.415,11.759C68.6,76.723,71.563,78.324,75,79.74
				C81.4,74.95,87,67.23,87,55C87,47.72,84.96,42.33,81.98,38.34z"/>
		</g>
		<g>
			<path style="fill:#FFEFED;" d="M59,27H46.3C30,27,23,35,23,41c0,5.38,7.615,7.186,16.666,7.769l21.55-21.55
				C59.839,27.032,59,27,59,27z"/>
		</g>
		<g>
			<polygon style="fill:#FFEFED;" points="49,49 63,59 61,49 			"/>
		</g>
		<g>
			<path style="fill:#FFFFFF;" d="M75,79.74c-10.033,7.511-21.777,10.174-32.359,3.37l10-5c0,0-6.681-11.01-8.641-20.11
				C59,70,64.986,75.613,75,79.74z"/>
		</g>
		<g>
			<path style="fill:#FFEFED;" d="M81.98,38.34C73.93,27.53,59,27,59,27h-4l4-4C59,23,81.36,23,81.98,38.34z"/>
		</g>
		<g>
			<circle style="fill:#7D261E;" cx="33" cy="37" r="2"/>
		</g>
		<g>
			<path style="fill:#FFFFFF;" d="M55,27h4c0,0,0.839,0.032,2.215,0.219l3.643-3.642C61.506,23.003,59,23,59,23L55,27z"/>
		</g>
	</g>
</g>
<g id="Yellow" style="display:none;">
	<g style="display:inline;">
		<g>
			<path style="fill:#FFE9A1;" d="M81.98,38.34C73.93,27.53,59,27,59,27H46.3C30,27,23,35,23,41c0,9,21.311,8,35,8
				c3.86,0,7.36,1.56,9.9,4.1C70.43,55.63,72,59.13,72,63c0,4.933-2.559,9.269-6.415,11.759C68.6,76.723,71.563,78.324,75,79.74
				C81.4,74.95,87,67.23,87,55C87,47.72,84.96,42.33,81.98,38.34z"/>
		</g>
		<g>
			<path style="fill:#FFF5D9;" d="M59,27H46.3C30,27,23,35,23,41c0,5.38,7.615,7.186,16.666,7.769l21.55-21.55
				C59.839,27.032,59,27,59,27z"/>
		</g>
		<g>
			<polygon style="fill:#FFF5D9;" points="49,49 63,59 61,49 			"/>
		</g>
		<g>
			<path style="fill:#FFFFFF;" d="M75,79.74c-10.033,7.511-21.777,10.174-32.359,3.37l10-5c0,0-6.681-11.01-8.641-20.11
				C59,70,64.986,75.613,75,79.74z"/>
		</g>
		<g>
			<path style="fill:#FFF5D9;" d="M81.98,38.34C73.93,27.53,59,27,59,27h-4l4-4C59,23,81.36,23,81.98,38.34z"/>
		</g>
		<g>
			<circle style="fill:#66510D;" cx="33" cy="37" r="2"/>
		</g>
		<g>
			<path style="fill:#FFFFFF;" d="M55,27h4c0,0,0.839,0.032,2.215,0.219l3.643-3.642C61.506,23.003,59,23,59,23L55,27z"/>
		</g>
	</g>
</g>
<g id="R-Yellow" style="display:none;">
	<circle style="display:inline;fill:#FFD75E;" cx="55" cy="55" r="55"/>
	<g style="display:inline;">
		<g>
			<path style="fill:#FFE9A1;" d="M81.98,38.34C73.93,27.53,59,27,59,27H46.3C30,27,23,35,23,41c0,9,21.311,8,35,8
				c3.86,0,7.36,1.56,9.9,4.1C70.43,55.63,72,59.13,72,63c0,4.933-2.559,9.269-6.415,11.759C68.6,76.723,71.563,78.324,75,79.74
				C81.4,74.95,87,67.23,87,55C87,47.72,84.96,42.33,81.98,38.34z"/>
		</g>
		<g>
			<path style="fill:#FFF5D9;" d="M59,27H46.3C30,27,23,35,23,41c0,5.38,7.615,7.186,16.666,7.769l21.55-21.55
				C59.839,27.032,59,27,59,27z"/>
		</g>
		<g>
			<polygon style="fill:#FFF5D9;" points="49,49 63,59 61,49 			"/>
		</g>
		<g>
			<path style="fill:#FFFFFF;" d="M75,79.74c-10.033,7.511-21.777,10.174-32.359,3.37l10-5c0,0-6.681-11.01-8.641-20.11
				C59,70,64.986,75.613,75,79.74z"/>
		</g>
		<g>
			<path style="fill:#FFF5D9;" d="M81.98,38.34C73.93,27.53,59,27,59,27h-4l4-4C59,23,81.36,23,81.98,38.34z"/>
		</g>
		<g>
			<circle style="fill:#66510D;" cx="33" cy="37" r="2"/>
		</g>
		<g>
			<path style="fill:#FFFFFF;" d="M55,27h4c0,0,0.839,0.032,2.215,0.219l3.643-3.642C61.506,23.003,59,23,59,23L55,27z"/>
		</g>
	</g>
</g>
</svg>
