<?xml version="1.0" encoding="iso-8859-1"?>
<!-- Generator: Adobe Illustrator 17.1.0, SVG Export Plug-In . SVG Version: 6.00 Build 0)  -->
<!DOCTYPE svg PUBLIC "-//W3C//DTD SVG 1.0//EN" "http://www.w3.org/TR/2001/REC-SVG-20010904/DTD/svg10.dtd">
<svg version="1.0" xmlns="http://www.w3.org/2000/svg" xmlns:xlink="http://www.w3.org/1999/xlink" x="0px" y="0px" width="110px"
	 height="110px" viewBox="0 0 110 110" style="enable-background:new 0 0 110 110;" xml:space="preserve">
<g id="Artboard">
</g>
<g id="Multicolor">
	<circle style="fill:#FABC3D;" cx="55" cy="55" r="55"/>
	<g>
		<polygon style="fill:#FBE158;" points="29,75 55,87 81,75 81,40 29,40 		"/>
		<polygon style="fill:#DF2C2C;" points="35,40 35,70 55,79 75,70 75,40 		"/>
		<path style="fill:#3E3E3F;" d="M45.32,34L55,26.774L64.68,34h4.983L55.801,23.731c-0.489-0.309-1.112-0.309-1.602,0L40.337,34
			H45.32z"/>
		<path style="fill:#9C6144;" d="M84,37c0,1.65-1.35,3-3,3H29c-1.65,0-3-1.35-3-3s1.35-3,3-3h52C82.65,34,84,35.35,84,37z"/>
		<polygon style="fill:#FA5655;" points="35,40 35,70 55,79 55,40 		"/>
		<path style="fill:#FBEC9A;" d="M68.223,53.34h-8.816c-0.572,0-1.185-0.445-1.361-0.989l-2.725-8.384
			c-0.132-0.408-0.328-0.51-0.493-0.306c-0.019,0.023-0.033,0.073-0.051,0.104c-0.034,0.06-0.069,0.112-0.099,0.201l-2.724,8.384
			c-0.088,0.27-0.283,0.514-0.527,0.693c-0.248,0.182-0.546,0.296-0.834,0.296h-8.816c-0.286,0-0.451,0.069-0.487,0.179
			c-0.036,0.111,0.057,0.264,0.289,0.432l3.995,2.903l3.137,2.279c0.055,0.04,0.096,0.101,0.144,0.151
			c0.357,0.37,0.532,0.97,0.376,1.449l-2.724,8.385c-0.133,0.408-0.034,0.605,0.218,0.537c0.028-0.008,0.069-0.039,0.101-0.053
			c0.063-0.029,0.124-0.05,0.201-0.106l7.132-5.182c0.463-0.336,1.22-0.336,1.683,0l7.132,5.182c0.462,0.336,0.696,0.166,0.52-0.378
			l-2.725-8.385c-0.177-0.544,0.057-1.264,0.52-1.6l7.132-5.182C68.884,53.615,68.795,53.34,68.223,53.34z"/>
	</g>
</g>
</svg>
