<?xml version="1.0" encoding="iso-8859-1"?>
<!-- Generator: Adobe Illustrator 17.1.0, SVG Export Plug-In . SVG Version: 6.00 Build 0)  -->
<!DOCTYPE svg PUBLIC "-//W3C//DTD SVG 1.0//EN" "http://www.w3.org/TR/2001/REC-SVG-20010904/DTD/svg10.dtd">
<svg version="1.0" xmlns="http://www.w3.org/2000/svg" xmlns:xlink="http://www.w3.org/1999/xlink" x="0px" y="0px" width="110px"
	 height="110px" viewBox="0 0 110 110" style="enable-background:new 0 0 110 110;" xml:space="preserve">
<g id="Artboard">
</g>
<g id="Multicolor">
	<circle style="fill:#FABC3D;" cx="55" cy="55" r="55"/>
	<g>
		<g>
			<path style="fill:#3E3E3F;" d="M85.996,54.692c0.466,0.184,0.724,0.685,0.602,1.171l-7.595,30.379
				C78.892,86.688,78.492,87,78.033,87H31.595c-0.459,0-0.859-0.312-0.97-0.757L23.03,55.863c-0.122-0.487,0.136-0.986,0.602-1.171
				c12.696-5.026,10.274-16.259,7.429-26.784c-0.138-0.51,0.145-1.04,0.646-1.209c2.811-0.944,11.287-3.784,11.287-3.68
				c0.96,5.66,5.89,9.98,11.82,9.98s10.86-4.32,11.82-9.98c0-0.104,8.476,2.735,11.287,3.68c0.502,0.169,0.784,0.698,0.646,1.209
				C75.722,38.433,73.3,49.666,85.996,54.692z"/>
		</g>
		<g>
			<path style="fill:#5B5C5F;" d="M46.814,63c2.21,0,4,1.79,4,4v12c0,2.21-1.79,4-4,4h-17l-5-20H46.814z"/>
		</g>
		<g>
			<path style="fill:#5B5C5F;" d="M62.814,63c-2.21,0-4,1.79-4,4v12c0,2.21,1.79,4,4,4h17l5-20H62.814z"/>
		</g>
		<g>
			<path style="fill:#5B5C5F;" d="M66.634,23.02c-0.96,5.66-5.89,9.98-11.82,9.98s-10.86-4.32-11.82-9.98
				c3,3.07,7.19,4.98,11.82,4.98S63.634,26.09,66.634,23.02z"/>
		</g>
		<g>
			<path style="fill:#9E9FA0;" d="M41.464,24.375c-0.345-1.049-1.476-1.62-2.525-1.275l-4.749,1.563
				c-1.049,0.345-1.62,1.476-1.274,2.525l4.689,14.248l5.838,3.343l2.711-6.156L41.464,24.375z"/>
		</g>
		<g>
			<path style="fill:#9E9FA0;" d="M75.667,24.66l-4.749-1.563c-1.049-0.345-2.18,0.225-2.525,1.274L63.703,38.62l2.711,6.156
				l5.838-3.342l4.69-14.248C77.287,26.136,76.716,25.006,75.667,24.66z"/>
		</g>
		<g>
			<circle style="fill:#FACB1B;" cx="67.314" cy="54.5" r="7.5"/>
		</g>
		<g>
			<path style="fill:#FBE158;" d="M67.314,47c-4.142,0-7.5,3.358-7.5,7.5c0,1.388,0.384,2.684,1.041,3.799l10.258-10.258
				C69.998,47.384,68.702,47,67.314,47z"/>
		</g>
		<g>
			<polygon style="fill:#3E3E3F;" points="67.314,48.439 68.675,52.627 73.078,52.627 69.516,55.215 70.877,59.403 67.314,56.815 
				63.752,59.403 65.112,55.215 61.55,52.627 65.953,52.627 			"/>
		</g>
	</g>
</g>
</svg>
