<?xml version="1.0" encoding="iso-8859-1"?>
<!-- Generator: Adobe Illustrator 17.1.0, SVG Export Plug-In . SVG Version: 6.00 Build 0)  -->
<!DOCTYPE svg PUBLIC "-//W3C//DTD SVG 1.0//EN" "http://www.w3.org/TR/2001/REC-SVG-20010904/DTD/svg10.dtd">
<svg version="1.0" xmlns="http://www.w3.org/2000/svg" xmlns:xlink="http://www.w3.org/1999/xlink" x="0px" y="0px" width="110px"
	 height="110px" viewBox="0 0 110 110" style="enable-background:new 0 0 110 110;" xml:space="preserve">
<g id="Artboard">
</g>
<g id="Multicolor">
	<circle style="fill:#32BEA6;" cx="55" cy="55" r="55"/>
	<g>
		<path style="fill:#5B5C5F;" d="M33.914,55c-0.275,7.415,0.68,17.354,2.468,22.587C37.489,80.827,40.532,83,43.954,83h21.189
			c3.42,0,6.466-2.175,7.572-5.411c2.002-5.859,3-15.267,2.701-22.589H33.914z"/>
		<path style="fill:#3E3E3F;" d="M81.667,55H28.333c-7.111-10.667-7.111-21.333,0-32h53.333C88.778,33.667,88.778,44.333,81.667,55z
			"/>
		<path style="fill:#5B5C5F;" d="M28.333,23c-7.111,10.667-7.111,21.333,0,32h6.185l32-32H28.333z"/>
		<polygon style="fill:#818284;" points="43,83 46,87 64,87 67,83 		"/>
		<path style="fill:#FFFFFF;" d="M31,49.667h48c3.556-7.111,3.556-14.222,0-21.333H31C27.444,35.444,27.444,42.556,31,49.667z"/>
		<path style="fill:#E2E4E5;" d="M79.72,29.9c-0.223-0.522-0.459-1.045-0.72-1.567h-1.737l-8,5.333H40.737l-8-5.333H31
			c-0.261,0.522-0.497,1.045-0.72,1.567L39,35.714v6.573L30.28,48.1c0.223,0.522,0.459,1.045,0.72,1.567h1.737l8-5.333h28.526
			l8,5.333H79c0.261-0.522,0.497-1.045,0.72-1.567L71,42.286v-6.573L79.72,29.9z"/>
		<path style="fill:#3E3E3F;" d="M47,83l-2.757-19.858c-0.299-0.996-0.03-2.051,0.728-2.86C45.728,59.473,46.891,59,48.123,59
			h13.754c1.232,0,2.395,0.473,3.153,1.282c0.758,0.809,1.026,1.864,0.728,2.86L63,83H47z"/>
		<circle style="fill:#FA5655;" cx="59" cy="67" r="3"/>
	</g>
</g>
</svg>
