<?xml version="1.0" encoding="iso-8859-1"?>
<!-- Generator: Adobe Illustrator 17.1.0, SVG Export Plug-In . SVG Version: 6.00 Build 0)  -->
<!DOCTYPE svg PUBLIC "-//W3C//DTD SVG 1.0//EN" "http://www.w3.org/TR/2001/REC-SVG-20010904/DTD/svg10.dtd">
<svg version="1.0" xmlns="http://www.w3.org/2000/svg" xmlns:xlink="http://www.w3.org/1999/xlink" x="0px" y="0px" width="110px"
	 height="110px" viewBox="0 0 110 110" style="enable-background:new 0 0 110 110;" xml:space="preserve">
<g id="Artboard">
</g>
<g id="Multicolor">
	<circle style="fill:#E04F5F;" cx="55" cy="55" r="55"/>
	<g>
		<g>
			<path style="fill:#FACB1B;" d="M80.413,49.245l-19.17-19.17c-0.275-0.275-0.447-0.61-0.529-0.962L55,34.829v8L24.414,73.414
				c-0.781,0.781-0.781,2.047,0,2.829l9.172,9.171c0.781,0.781,2.047,0.781,2.828,0L67,54.829h8l5.507-5.507
				C80.477,49.294,80.442,49.274,80.413,49.245z"/>
		</g>
		<g>
			<path style="fill:#FBE158;" d="M61.244,30.075c-0.275-0.275-0.447-0.61-0.529-0.962L55,34.829v8L24.414,73.414
				c-0.781,0.781-0.781,2.047,0,2.829l4.698,4.698l41.498-41.498L61.244,30.075z"/>
		</g>
		<g>
			<path style="fill:#3E3E3F;" d="M44.393,61.192c-1.172,1.172-1.172,3.071,0,4.243c1.172,1.172,3.071,1.172,4.243,0l8.485-8.485
				c1.172-1.172,1.172-3.071,0-4.243c-1.172-1.172-3.071-1.172-4.243,0L44.393,61.192z"/>
		</g>
		<g>
			<path style="fill:#DF2C2C;" d="M50.757,54.828c-1.172,1.172-1.172,3.071,0,4.243s3.071,1.172,4.243,0l2.121-2.121
				c1.172-1.172,1.172-3.071,0-4.243c-1.172-1.172-3.071-1.172-4.243,0L50.757,54.828z"/>
		</g>
		<g>
			<path style="fill:#FA5655;" d="M57.121,52.707c-1.172-1.171-3.071-1.171-4.243,0l-2.121,2.122c-1.172,1.171-1.172,3.071,0,4.243
				c0.038,0.038,0.084,0.065,0.123,0.101l6.341-6.341C57.186,52.791,57.16,52.746,57.121,52.707z"/>
		</g>
		<g>
			<polygon style="fill:#F3B607;" points="55,42.828 55,34.828 75,54.828 67,54.828 			"/>
		</g>
		<g>
			<path style="fill:#3E3E3F;" d="M61.244,27.247l3.175-3.175c0.778-0.778,2.044-0.785,2.828,0l19.17,19.17
				c0.778,0.778,0.778,2.051,0,2.828l-3.175,3.175c-0.778,0.778-2.051,0.778-2.828,0l-19.17-19.17
				C60.459,29.29,60.466,28.025,61.244,27.247z"/>
		</g>
		<g>
			
				<rect x="78.109" y="43.683" transform="matrix(-0.7071 0.7071 -0.7071 -0.7071 172.5366 18.8985)" style="fill:#5B5C5F;" width="8.49" height="3"/>
		</g>
		<g>
			
				<rect x="73.867" y="39.44" transform="matrix(-0.7071 0.7071 -0.7071 -0.7071 162.294 14.6558)" style="fill:#5B5C5F;" width="8.49" height="3"/>
		</g>
		<g>
			
				<rect x="69.624" y="35.197" transform="matrix(-0.7071 0.7071 -0.7071 -0.7071 152.0513 10.4132)" style="fill:#5B5C5F;" width="8.49" height="3"/>
		</g>
		<g>
			
				<rect x="65.381" y="30.955" transform="matrix(-0.7071 0.7071 -0.7071 -0.7071 141.8087 6.1705)" style="fill:#5B5C5F;" width="8.49" height="3"/>
		</g>
		<g>
			
				<rect x="61.139" y="26.712" transform="matrix(-0.7071 0.7071 -0.7071 -0.7071 131.5661 1.9279)" style="fill:#5B5C5F;" width="8.49" height="3"/>
		</g>
		<g>
			<polygon style="fill:#FACB1B;" points="55,34.829 55,42.829 61.112,48.94 65.112,44.94 			"/>
		</g>
	</g>
</g>
</svg>
