<?xml version="1.0" encoding="iso-8859-1"?>
<!-- Generator: Adobe Illustrator 17.1.0, SVG Export Plug-In . SVG Version: 6.00 Build 0)  -->
<!DOCTYPE svg PUBLIC "-//W3C//DTD SVG 1.0//EN" "http://www.w3.org/TR/2001/REC-SVG-20010904/DTD/svg10.dtd">
<svg version="1.0" xmlns="http://www.w3.org/2000/svg" xmlns:xlink="http://www.w3.org/1999/xlink" x="0px" y="0px" width="110px"
	 height="110px" viewBox="0 0 110 110" style="enable-background:new 0 0 110 110;" xml:space="preserve">
<g id="Artboard">
</g>
<g id="Multicolor">
	<circle style="fill:#FABC3D;" cx="55" cy="55" r="55"/>
	<g>
		<g>
			<path style="fill:#FCF1E2;" d="M55,58.963c-1.421,0-2.738-0.106-4-0.265V86h8V58.698C57.738,58.857,56.421,58.963,55,58.963z"/>
		</g>
		<g>
			<path style="fill:#FFFFFF;" d="M51,86h4V58.963c-1.421,0-2.738-0.106-4-0.265V86z"/>
		</g>
		<g>
			<path style="fill:#F37A10;" d="M31,22.972c0,0-5,36,24,36s24-36,24-36l-16,14l-8-14l-8,14L31,22.972z"/>
		</g>
		<g>
			<path style="fill:#12B2A0;" d="M87,58.972c0,30-32,28-32,28S53,63.972,87,58.972z"/>
		</g>
		<g>
			<path style="fill:#099686;" d="M87,58.945c0,30-32,28-32,28C66,79.945,87,58.945,87,58.945z"/>
		</g>
		<g>
			<path style="fill:#12B2A0;" d="M23,58.972c0,30,32,28,32,28S57,63.972,23,58.972z"/>
		</g>
		<g>
			<path style="fill:#099686;" d="M23,58.945c0,30,32,28,32,28C44,79.945,23,58.945,23,58.945z"/>
		</g>
		<g>
			<path style="fill:#F99134;" d="M47,36.972l-16-14c0,0-5,36,24,36v-36L47,36.972z"/>
		</g>
	</g>
</g>
</svg>
