<?xml version="1.0" encoding="iso-8859-1"?>
<!-- Generator: Adobe Illustrator 17.1.0, SVG Export Plug-In . SVG Version: 6.00 Build 0)  -->
<!DOCTYPE svg PUBLIC "-//W3C//DTD SVG 1.0//EN" "http://www.w3.org/TR/2001/REC-SVG-20010904/DTD/svg10.dtd">
<svg version="1.0" xmlns="http://www.w3.org/2000/svg" xmlns:xlink="http://www.w3.org/1999/xlink" x="0px" y="0px" width="110px"
	 height="110px" viewBox="0 0 110 110" style="enable-background:new 0 0 110 110;" xml:space="preserve">
<g id="Artboard">
</g>
<g id="Multicolor">
	<circle style="fill:#FABC3D;" cx="55" cy="55" r="55"/>
	<g>
		<g>
			<path style="fill:#E2E4E5;" d="M35,61v3.948c0,3.327,1.667,6.448,4.428,8.305c3.266,2.196,7.202,6.19,7.548,12.8
				C47.003,86.584,47.441,87,47.973,87h14.054c0.532,0,0.97-0.417,0.998-0.948c0.347-6.602,4.285-10.598,7.552-12.797
				C73.339,71.396,75,68.284,75,64.954V61H35z"/>
		</g>
		<g>
			<path style="fill:#F0F1F1;" d="M31,31h48l-1.648,18.374C77.154,52.536,74.532,55,71.363,55H38.637
				c-3.168,0-5.791-2.464-5.988-5.626L31,31z"/>
		</g>
		<g>
			<path style="fill:#FFFFFF;" d="M79,27c0-2.209-1.791-4-4-4H35c-2.209,0-4,1.791-4,4v4h48V27z"/>
		</g>
		<g>
			<path style="fill:#3E3E3F;" d="M31,59c0,1.105,0.895,2,2,2h44c1.105,0,2-0.895,2-2c0-2.209-1.791-4-4-4H35
				C32.791,55,31,56.791,31,59z"/>
		</g>
		<g>
			<path style="fill:#3E3E3F;" d="M38.272,34c1.657,0,3,1.343,3,3s-1.343,3-3,3c-1.042,0-7.33-1.186-9.629-2.066
				C28.255,37.786,28,37.414,28,37c0-0.414,0.256-0.786,0.643-0.934C30.942,35.185,37.23,34,38.272,34z"/>
		</g>
		<path style="fill:#F0F1F1;" d="M55,61H35v3.948c0,3.327,1.667,6.448,4.428,8.305c3.267,2.196,7.202,6.19,7.548,12.8
			C47.003,86.584,47.441,87,47.973,87H55V61z"/>
	</g>
</g>
</svg>
