<?xml version="1.0" encoding="iso-8859-1"?>
<!-- Generator: Adobe Illustrator 17.1.0, SVG Export Plug-In . SVG Version: 6.00 Build 0)  -->
<!DOCTYPE svg PUBLIC "-//W3C//DTD SVG 1.0//EN" "http://www.w3.org/TR/2001/REC-SVG-20010904/DTD/svg10.dtd">
<svg version="1.0" xmlns="http://www.w3.org/2000/svg" xmlns:xlink="http://www.w3.org/1999/xlink" x="0px" y="0px" width="110px"
	 height="110px" viewBox="0 0 110 110" style="enable-background:new 0 0 110 110;" xml:space="preserve">
<g id="Artboard" style="display:none;">
	
		<rect x="-72.5" y="-930.5" style="display:inline;fill:#808080;stroke:#000000;stroke-miterlimit:10;" width="1392" height="1369"/>
</g>
<g id="R-Multicolor">
	<circle style="fill:#E04F5F;" cx="55" cy="55" r="55"/>
	<g>
		<g>
			<path style="fill:#F0F1F1;" d="M83,71.5c0-13.369-9.373-24.543-21.904-27.327C62.281,42.778,63,40.974,63,39c0-4.418-3.582-8-8-8
				s-8,3.582-8,8c0,1.974,0.719,3.778,1.904,5.173C36.373,46.957,27,58.131,27,71.5V75h56V71.5z M55,43c-2.209,0-4-1.791-4-4
				s1.791-4,4-4s4,1.791,4,4S57.209,43,55,43z"/>
		</g>
		<g>
			<path style="fill:#FFFFFF;" d="M55,43c-2.209,0-4-1.791-4-4s1.791-4,4-4v-4c-4.418,0-8,3.582-8,8
				c0,1.974,0.719,3.778,1.904,5.173C36.373,46.957,27,58.131,27,71.5V75h28C55,66.349,55,46.495,55,43z"/>
		</g>
		<g>
			<path style="fill:#84462D;" d="M87,79c0,2.209-1.791,4-4,4H27c-2.209,0-4-1.791-4-4s1.791-4,4-4h56C85.209,75,87,76.791,87,79z"
				/>
		</g>
		<g>
			<path style="fill:#9C6144;" d="M55,75H27c-2.209,0-4,1.791-4,4s1.791,4,4,4h28V75z"/>
		</g>
	</g>
</g>
<g id="Multicolor" style="display:none;">
	<g style="display:inline;">
		<g>
			<path style="fill:#F0F1F1;" d="M83,71.5c0-13.369-9.373-24.543-21.904-27.327C62.281,42.778,63,40.974,63,39c0-4.418-3.582-8-8-8
				s-8,3.582-8,8c0,1.974,0.719,3.778,1.904,5.173C36.373,46.957,27,58.131,27,71.5V75h56V71.5z M55,43c-2.209,0-4-1.791-4-4
				s1.791-4,4-4s4,1.791,4,4S57.209,43,55,43z"/>
		</g>
		<g>
			<path style="fill:#FFFFFF;" d="M55,43c-2.209,0-4-1.791-4-4s1.791-4,4-4v-4c-4.418,0-8,3.582-8,8
				c0,1.974,0.719,3.778,1.904,5.173C36.373,46.957,27,58.131,27,71.5V75h28C55,66.349,55,46.495,55,43z"/>
		</g>
		<g>
			<path style="fill:#84462D;" d="M87,79c0,2.209-1.791,4-4,4H27c-2.209,0-4-1.791-4-4s1.791-4,4-4h56C85.209,75,87,76.791,87,79z"
				/>
		</g>
		<g>
			<path style="fill:#9C6144;" d="M55,75H27c-2.209,0-4,1.791-4,4s1.791,4,4,4h28V75z"/>
		</g>
	</g>
</g>
<g id="Blue" style="display:none;">
	<g style="display:inline;">
		<g>
			<path style="fill:#E1F5FA;" d="M83,71.5c0-13.369-9.373-24.543-21.904-27.327C62.281,42.778,63,40.974,63,39c0-4.418-3.582-8-8-8
				s-8,3.582-8,8c0,1.974,0.719,3.778,1.904,5.173C36.373,46.958,27,58.131,27,71.5V75h56V71.5z M55,43c-2.209,0-4-1.791-4-4
				c0-2.209,1.791-4,4-4s4,1.791,4,4C59,41.209,57.209,43,55,43z"/>
		</g>
		<g>
			<path style="fill:#FFFFFF;" d="M55,43c-2.209,0-4-1.791-4-4c0-2.209,1.791-4,4-4v-4c-4.418,0-8,3.582-8,8
				c0,1.974,0.719,3.778,1.904,5.173C36.373,46.958,27,58.131,27,71.5V75h28C55,66.349,55,46.495,55,43z"/>
		</g>
		<g>
			<path style="fill:#0F6175;" d="M87,79c0,2.209-1.791,4-4,4H27c-2.209,0-4-1.791-4-4s1.791-4,4-4h56C85.209,75,87,76.791,87,79z"
				/>
		</g>
		<g>
			<path style="fill:#33899E;" d="M55,75H27c-2.209,0-4,1.79-4,4c0,2.209,1.791,4,4,4h28V75z"/>
		</g>
	</g>
</g>
<g id="R-Blue" style="display:none;">
	<circle style="display:inline;fill:#81D2EB;" cx="55" cy="55" r="55"/>
	<g style="display:inline;">
		<g>
			<path style="fill:#E1F5FA;" d="M83,71.5c0-13.369-9.373-24.544-21.904-27.327C62.281,42.778,63,40.974,63,39c0-4.418-3.582-8-8-8
				s-8,3.582-8,8c0,1.974,0.719,3.778,1.904,5.173C36.373,46.957,27,58.131,27,71.5V75h56V71.5z M55,43c-2.209,0-4-1.791-4-4
				c0-2.209,1.791-4,4-4s4,1.791,4,4C59,41.209,57.209,43,55,43z"/>
		</g>
		<g>
			<path style="fill:#FFFFFF;" d="M55,43c-2.209,0-4-1.791-4-4c0-2.209,1.791-4,4-4v-4c-4.418,0-8,3.582-8,8
				c0,1.974,0.719,3.778,1.904,5.173C36.373,46.957,27,58.131,27,71.5V75h28C55,66.349,55,46.495,55,43z"/>
		</g>
		<g>
			<path style="fill:#0F6175;" d="M87,79c0,2.209-1.791,4-4,4H27c-2.209,0-4-1.791-4-4s1.791-4,4-4h56C85.209,75,87,76.791,87,79z"
				/>
		</g>
		<g>
			<path style="fill:#33899E;" d="M55,75H27c-2.209,0-4,1.79-4,4c0,2.209,1.791,4,4,4h28V75z"/>
		</g>
	</g>
</g>
<g id="Green" style="display:none;">
	<g style="display:inline;">
		<g>
			<path style="fill:#D7FCF9;" d="M83,71.5c0-13.369-9.373-24.543-21.904-27.327C62.281,42.778,63,40.974,63,39c0-4.418-3.582-8-8-8
				s-8,3.582-8,8c0,1.974,0.719,3.778,1.904,5.173C36.373,46.958,27,58.131,27,71.5V75h56V71.5z M55,43c-2.209,0-4-1.791-4-4
				c0-2.209,1.791-4,4-4s4,1.791,4,4C59,41.209,57.209,43,55,43z"/>
		</g>
		<g>
			<path style="fill:#FFFFFF;" d="M55,43c-2.209,0-4-1.791-4-4c0-2.209,1.791-4,4-4v-4c-4.418,0-8,3.582-8,8
				c0,1.974,0.719,3.778,1.904,5.173C36.373,46.958,27,58.131,27,71.5V75h28C55,66.349,55,46.495,55,43z"/>
		</g>
		<g>
			<path style="fill:#14635B;" d="M87,79c0,2.209-1.791,4-4,4H27c-2.209,0-4-1.791-4-4s1.791-4,4-4h56C85.209,75,87,76.791,87,79z"
				/>
		</g>
		<g>
			<path style="fill:#3E948B;" d="M55,75H27c-2.209,0-4,1.79-4,4c0,2.209,1.791,4,4,4h28V75z"/>
		</g>
	</g>
</g>
<g id="R-Green" style="display:none;">
	<circle style="display:inline;fill:#77E0C4;" cx="55" cy="55" r="55"/>
	<g style="display:inline;">
		<g>
			<path style="fill:#D7FCF9;" d="M83,71.5c0-13.369-9.373-24.543-21.904-27.327C62.281,42.778,63,40.974,63,39c0-4.418-3.582-8-8-8
				s-8,3.582-8,8c0,1.974,0.719,3.778,1.904,5.173C36.373,46.958,27,58.131,27,71.5V75h56V71.5z M55,43c-2.209,0-4-1.791-4-4
				c0-2.209,1.791-4,4-4s4,1.791,4,4C59,41.209,57.209,43,55,43z"/>
		</g>
		<g>
			<path style="fill:#FFFFFF;" d="M55,43c-2.209,0-4-1.791-4-4c0-2.209,1.791-4,4-4v-4c-4.418,0-8,3.582-8,8
				c0,1.974,0.719,3.778,1.904,5.173C36.373,46.958,27,58.131,27,71.5V75h28C55,66.349,55,46.495,55,43z"/>
		</g>
		<g>
			<path style="fill:#14635B;" d="M87,79c0,2.209-1.791,4-4,4H27c-2.209,0-4-1.791-4-4s1.791-4,4-4h56C85.209,75,87,76.791,87,79z"
				/>
		</g>
		<g>
			<path style="fill:#3E948B;" d="M55,75H27c-2.209,0-4,1.79-4,4c0,2.209,1.791,4,4,4h28V75z"/>
		</g>
	</g>
</g>
<g id="Red" style="display:none;">
	<g style="display:inline;">
		<g>
			<path style="fill:#FFEFED;" d="M83,71.5c0-13.369-9.373-24.543-21.904-27.327C62.281,42.778,63,40.974,63,39c0-4.418-3.582-8-8-8
				s-8,3.582-8,8c0,1.974,0.719,3.778,1.904,5.173C36.373,46.958,27,58.131,27,71.5V75h56V71.5z M55,43c-2.209,0-4-1.791-4-4
				c0-2.209,1.791-4,4-4s4,1.791,4,4C59,41.209,57.209,43,55,43z"/>
		</g>
		<g>
			<path style="fill:#FFFFFF;" d="M55,43c-2.209,0-4-1.791-4-4c0-2.209,1.791-4,4-4v-4c-4.418,0-8,3.582-8,8
				c0,1.974,0.719,3.778,1.904,5.173C36.373,46.958,27,58.131,27,71.5V75h28C55,66.349,55,46.495,55,43z"/>
		</g>
		<g>
			<path style="fill:#7D261E;" d="M87,79c0,2.209-1.791,4-4,4H27c-2.209,0-4-1.791-4-4s1.791-4,4-4h56C85.209,75,87,76.791,87,79z"
				/>
		</g>
		<g>
			<path style="fill:#B84E44;" d="M55,75H27c-2.209,0-4,1.79-4,4c0,2.209,1.791,4,4,4h28V75z"/>
		</g>
	</g>
</g>
<g id="R-Red" style="display:none;">
	<circle style="display:inline;fill:#FABBAF;" cx="55" cy="55" r="55"/>
	<g style="display:inline;">
		<g>
			<path style="fill:#FFEFED;" d="M83,71.5c0-13.369-9.373-24.543-21.904-27.327C62.281,42.778,63,40.974,63,39c0-4.418-3.582-8-8-8
				s-8,3.582-8,8c0,1.974,0.719,3.778,1.904,5.173C36.373,46.958,27,58.131,27,71.5V75h56V71.5z M55,43c-2.209,0-4-1.791-4-4
				c0-2.209,1.791-4,4-4s4,1.791,4,4C59,41.209,57.209,43,55,43z"/>
		</g>
		<g>
			<path style="fill:#FFFFFF;" d="M55,43c-2.209,0-4-1.791-4-4c0-2.209,1.791-4,4-4v-4c-4.418,0-8,3.582-8,8
				c0,1.974,0.719,3.778,1.904,5.173C36.373,46.958,27,58.131,27,71.5V75h28C55,66.349,55,46.495,55,43z"/>
		</g>
		<g>
			<path style="fill:#7D261E;" d="M87,79c0,2.209-1.791,4-4,4H27c-2.209,0-4-1.791-4-4s1.791-4,4-4h56C85.209,75,87,76.791,87,79z"
				/>
		</g>
		<g>
			<path style="fill:#B84E44;" d="M55,75H27c-2.209,0-4,1.79-4,4c0,2.209,1.791,4,4,4h28V75z"/>
		</g>
	</g>
</g>
<g id="Yellow" style="display:none;">
	<g style="display:inline;">
		<g>
			<path style="fill:#FFF5D9;" d="M83,71.5c0-13.369-9.373-24.543-21.904-27.327C62.281,42.778,63,40.974,63,39c0-4.418-3.582-8-8-8
				s-8,3.582-8,8c0,1.974,0.719,3.778,1.904,5.173C36.373,46.958,27,58.131,27,71.5V75h56V71.5z M55,43c-2.209,0-4-1.791-4-4
				c0-2.209,1.791-4,4-4s4,1.791,4,4C59,41.209,57.209,43,55,43z"/>
		</g>
		<g>
			<path style="fill:#FFFFFF;" d="M55,43c-2.209,0-4-1.791-4-4c0-2.209,1.791-4,4-4v-4c-4.418,0-8,3.582-8,8
				c0,1.974,0.719,3.778,1.904,5.173C36.373,46.958,27,58.131,27,71.5V75h28C55,66.349,55,46.495,55,43z"/>
		</g>
		<g>
			<path style="fill:#66510D;" d="M87,79c0,2.209-1.791,4-4,4H27c-2.209,0-4-1.791-4-4s1.791-4,4-4h56C85.209,75,87,76.791,87,79z"
				/>
		</g>
		<g>
			<path style="fill:#947615;" d="M55,75H27c-2.209,0-4,1.79-4,4c0,2.209,1.791,4,4,4h28V75z"/>
		</g>
	</g>
</g>
<g id="R-Yellow" style="display:none;">
	<circle style="display:inline;fill:#FFD75E;" cx="55" cy="55" r="55"/>
	<g style="display:inline;">
		<g>
			<path style="fill:#FFF5D9;" d="M83,71.5c0-13.369-9.373-24.543-21.904-27.327C62.281,42.778,63,40.974,63,39c0-4.418-3.582-8-8-8
				s-8,3.582-8,8c0,1.974,0.719,3.778,1.904,5.173C36.373,46.958,27,58.131,27,71.5V75h56V71.5z M55,43c-2.209,0-4-1.791-4-4
				c0-2.209,1.791-4,4-4s4,1.791,4,4C59,41.209,57.209,43,55,43z"/>
		</g>
		<g>
			<path style="fill:#FFFFFF;" d="M55,43c-2.209,0-4-1.791-4-4c0-2.209,1.791-4,4-4v-4c-4.418,0-8,3.582-8,8
				c0,1.974,0.719,3.778,1.904,5.173C36.373,46.958,27,58.131,27,71.5V75h28C55,66.349,55,46.495,55,43z"/>
		</g>
		<g>
			<path style="fill:#66510D;" d="M87,79c0,2.209-1.791,4-4,4H27c-2.209,0-4-1.791-4-4s1.791-4,4-4h56C85.209,75,87,76.791,87,79z"
				/>
		</g>
		<g>
			<path style="fill:#947615;" d="M55,75H27c-2.209,0-4,1.79-4,4c0,2.209,1.791,4,4,4h28V75z"/>
		</g>
	</g>
</g>
</svg>
