<?xml version="1.0" encoding="iso-8859-1"?>
<!-- Generator: Adobe Illustrator 17.1.0, SVG Export Plug-In . SVG Version: 6.00 Build 0)  -->
<!DOCTYPE svg PUBLIC "-//W3C//DTD SVG 1.0//EN" "http://www.w3.org/TR/2001/REC-SVG-20010904/DTD/svg10.dtd">
<svg version="1.0" xmlns="http://www.w3.org/2000/svg" xmlns:xlink="http://www.w3.org/1999/xlink" x="0px" y="0px" width="110px"
	 height="110px" viewBox="0 0 110 110" style="enable-background:new 0 0 110 110;" xml:space="preserve">
<g id="Artboard">
</g>
<g id="Multicolor">
	<circle style="fill:#25B7D3;" cx="55" cy="55" r="55"/>
	<g>
		<g>
			<path style="fill:#E2E4E5;" d="M62.273,71H27.728C26.774,71,26,71.895,26,73s0.773,2,1.727,2h0.864l1.747,8.09
				c0.464,2.15,2.644,3.91,4.844,3.91h19.636c2.2,0,4.38-1.759,4.844-3.91L61.409,75h0.864C63.227,75,64,74.105,64,73
				S63.227,71,62.273,71z"/>
		</g>
		<g>
			<path style="fill:#F0F1F1;" d="M45,71H27.728C26.774,71,26,71.896,26,73s0.773,2,1.727,2h0.864l1.747,8.09
				c0.464,2.151,2.644,3.91,4.844,3.91H45V71z"/>
		</g>
		<g>
			<polygon style="fill:#EDBC7C;" points="71,52 87,52 87,87 77,87 			"/>
		</g>
		<g>
			<path style="fill:#F7B4B4;" d="M87,31c0,0-22,3-27,9S50,59,50,59s-5,5-12,5c-4,0-4,1-4,2s2,2,4,2s17.73,0,19.144,0
				C59,68,60,65,58,62c1.856-7,8-7,9-15c1,0,20,0,20,0V31z"/>
		</g>
		<g>
			<path style="fill:#FFFFFF;" d="M34.75,33.625c0,0,4.375,2.625,4.375,6.125s-3.5,6.125-1.75,12.25
				c-2.625-1.75-3.5-4.375-3.5-6.125s1.75-4.375,1.75-7S34.75,33.625,34.75,33.625z"/>
		</g>
		<g>
			<path style="fill:#FFFFFF;" d="M42.625,33.625c0,0,4.375,2.625,4.375,6.125S43.5,45.875,45.25,52
				c-2.625-1.75-3.5-4.375-3.5-6.125s1.75-4.375,1.75-7S42.625,33.625,42.625,33.625z"/>
		</g>
		<g>
			<path style="fill:#FFFFFF;" d="M26.875,33.625c0,0,4.375,2.625,4.375,6.125S27.75,45.875,29.5,52
				c-2.625-1.75-3.5-4.375-3.5-6.125s1.75-4.375,1.75-7S26.875,33.625,26.875,33.625z"/>
		</g>
		<g>
			<rect x="67" y="47" style="fill:#84462D;" width="20" height="5"/>
		</g>
		<g>
			<path style="fill:#F0F1F1;" d="M64,73c0-1.104-0.773-2-1.727-2H27.728C26.774,71,26,71.896,26,73s0.773,2,1.727,2h0.864h32.818
				h0.864C63.227,75,64,74.104,64,73z"/>
		</g>
		<g>
			<path style="fill:#FFFFFF;" d="M45,71H27.728C26.774,71,26,71.896,26,73s0.773,2,1.727,2h0.864H45V71z"/>
		</g>
		<path style="fill:#FBC8C8;" d="M87,31c0,0-22,3-27,9c-2.435,2.922-4.869,7.503-6.726,11.436L87,31.964V31z"/>
	</g>
</g>
</svg>
