<?xml version="1.0" encoding="iso-8859-1"?>
<!-- Generator: Adobe Illustrator 17.1.0, SVG Export Plug-In . SVG Version: 6.00 Build 0)  -->
<!DOCTYPE svg PUBLIC "-//W3C//DTD SVG 1.0//EN" "http://www.w3.org/TR/2001/REC-SVG-20010904/DTD/svg10.dtd">
<svg version="1.0" xmlns="http://www.w3.org/2000/svg" xmlns:xlink="http://www.w3.org/1999/xlink" x="0px" y="0px" width="110px"
	 height="110px" viewBox="0 0 110 110" style="enable-background:new 0 0 110 110;" xml:space="preserve">
<g id="Artboard">
</g>
<g id="Multicolor">
	<circle style="fill:#32BEA6;" cx="55" cy="55" r="55"/>
	<g>
		<g>
			<path style="fill:#84462D;" d="M85.568,34.142l-9.721-9.721c-0.482-0.482-1.177-0.686-1.843-0.54
				c-0.666,0.146-1.212,0.622-1.448,1.262l-3.869,10.502L46.85,57.482l0.006,0.005l5.657-5.657l5.651,5.651l16.18-16.18
				l10.502-3.869c0.64-0.236,1.116-0.781,1.262-1.448C86.254,35.319,86.05,34.625,85.568,34.142z M79.759,35.255l-6.588,2.196
				c-0.522,0.174-0.806-0.111-0.632-0.632l2.196-6.588c0.174-0.522,0.634-0.631,1.023-0.242L80,34.231
				C80.389,34.62,80.281,35.081,79.759,35.255z"/>
		</g>
		<g>
			<path style="fill:#9C6144;" d="M75.847,24.421c-0.482-0.482-1.177-0.686-1.843-0.539c-0.666,0.146-1.212,0.622-1.448,1.262
				l-3.869,10.502L46.85,57.482l0.006,0.005l5.657-5.657l2.715,2.715l17.3-17.3c-0.038-0.114-0.049-0.25,0.01-0.428l2.196-6.588
				c0.174-0.522,0.634-0.631,1.023-0.242l2.014,2.015l2.828-2.829L75.847,24.421z"/>
		</g>
		<g>
			<path style="fill:#E2E4E5;" d="M41.905,52.538l4.95,4.95l5.657-5.657l5.657,5.657l-5.657,5.657l4.95,4.95
				c1.562,1.562,1.562,4.095,0,5.657L44.734,86.479c-1.171,1.171-4.243,0-4.243,0s-1.171-3.071,0-4.243l7.778-7.778
				c1.171-1.171,1.171-3.071,0-4.243c-1.171-1.171-3.071-1.171-4.243,0l-7.778,7.778c-1.171,1.171-4.243,0-4.243,0
				s-1.171-3.071,0-4.243l7.778-7.778c1.171-1.171,1.171-3.071,0-4.243c-1.171-1.171-3.071-1.171-4.243,0l-7.778,7.778
				c-1.171,1.171-4.243,0-4.243,0s-1.171-3.071,0-4.243l12.728-12.728C37.811,50.976,40.343,50.976,41.905,52.538z"/>
		</g>
		<g>
			<path style="fill:#FFFFFF;" d="M36.249,52.538c1.562-1.562,4.095-1.562,5.657,0l4.95,4.95l5.657-5.657l2.651,2.651L31.915,77.731
				c-0.25-0.766-0.873-3.015,0.091-3.979l7.778-7.778c1.171-1.171,1.171-3.071,0-4.243c-1.172-1.171-3.071-1.171-4.243,0
				l-7.778,7.778c-1.172,1.171-4.243,0-4.243,0s-1.172-3.071,0-4.243L36.249,52.538z"/>
		</g>
		<g>
			<circle style="fill:#84462D;" cx="52.5" cy="57.667" r="1.5"/>
		</g>
	</g>
</g>
</svg>
