<?xml version="1.0" encoding="iso-8859-1"?>
<!-- Generator: Adobe Illustrator 17.1.0, SVG Export Plug-In . SVG Version: 6.00 Build 0)  -->
<!DOCTYPE svg PUBLIC "-//W3C//DTD SVG 1.0//EN" "http://www.w3.org/TR/2001/REC-SVG-20010904/DTD/svg10.dtd">
<svg version="1.0" xmlns="http://www.w3.org/2000/svg" xmlns:xlink="http://www.w3.org/1999/xlink" x="0px" y="0px" width="110px"
	 height="110px" viewBox="0 0 110 110" style="enable-background:new 0 0 110 110;" xml:space="preserve">
<g id="Artboard" style="display:none;">
	
		<rect x="-456.5" y="-930.5" style="display:inline;fill:#808080;stroke:#000000;stroke-miterlimit:10;" width="1392" height="1369"/>
</g>
<g id="R-Multicolor">
	<circle style="fill:#25B7D3;" cx="55" cy="55" r="55"/>
	<g>
		<g>
			<path style="fill:#E2E4E5;" d="M53,35.979c0-7.18-4.477-13-10-13s-10,5.82-10,13c0,5.33,2,8.822,6,11.911
				s1.886,21.977,0.374,35.073c-0.247,2.141,1.431,4.016,3.586,4.016h0.08c2.155,0,3.833-1.875,3.586-4.016
				C45.114,69.867,43,50.802,47,47.891S53,41.309,53,35.979z"/>
		</g>
		<g>
			<path style="fill:#E2E4E5;" d="M75,22.979c-1.1,0-2,0.9-2,2c0,4.533,0-1.934,0,8c0,1.105-0.895,2-2,2s-2-0.895-2-2v-8
				c0-1.03-0.79-1.89-1.8-1.99c-0.06-0.01-0.13-0.01-0.2-0.01s-0.14,0-0.2,0.01c-1.01,0.1-1.8,0.96-1.8,1.99v8c0,1.105-0.895,2-2,2
				s-2-0.895-2-2c0-4.165,0,2.866,0-8c0-1.1-0.9-2-2-2s-2,0.9-2,2v11c0,5.27,1.96,8.778,6,11.91c4,3.09,1.89,21.98,0.37,35.07
				c-0.24,2.15,1.43,4.02,3.59,4.02h0.08c2.16,0,3.83-1.88,3.59-4.02C69.11,69.87,67,50.799,71,47.889c4.094-2.985,6-6.696,6-11.91
				v-11C77,23.879,76.1,22.979,75,22.979z"/>
		</g>
		<g>
			<path style="fill:#FFFFFF;" d="M65,24.979v8c0,1.104-0.896,2-2,2s-2-0.896-2-2c0-1.026,0-1.371,0-1.474c0-0.027,0-0.039,0-0.039
				c0-0.2,0-1.313,0-6.488c0-1.1-0.9-2-2-2s-2,0.9-2,2v11c0,5.27,1.96,8.778,6,11.91c4,3.09,1.89,21.98,0.37,35.07
				c-0.24,2.15,1.43,4.02,3.59,4.02H67v-64c-0.07,0-0.14,0-0.2,0.01C65.79,23.089,65,23.949,65,24.979z"/>
		</g>
		<g>
			<path style="fill:#FFFFFF;" d="M33,35.979c0,5.33,2,8.822,6,11.911s1.886,21.977,0.374,35.073
				c-0.247,2.141,1.431,4.016,3.586,4.016H43v-64C37.477,22.979,33,28.8,33,35.979z"/>
		</g>
	</g>
</g>
<g id="Multicolor" style="display:none;">
	<g style="display:inline;">
		<g>
			<path style="fill:#E2E4E5;" d="M53,35.979c0-7.18-4.477-13-10-13s-10,5.82-10,13c0,5.33,2,8.822,6,11.911
				s1.886,21.977,0.374,35.073c-0.247,2.141,1.431,4.016,3.586,4.016h0.08c2.155,0,3.833-1.875,3.586-4.016
				C45.114,69.867,43,50.802,47,47.891S53,41.309,53,35.979z"/>
		</g>
		<g>
			<path style="fill:#E2E4E5;" d="M75,22.979c-1.1,0-2,0.9-2,2c0,4.533,0-1.934,0,8c0,1.105-0.895,2-2,2s-2-0.895-2-2v-8
				c0-1.03-0.79-1.89-1.8-1.99c-0.06-0.01-0.13-0.01-0.2-0.01s-0.14,0-0.2,0.01c-1.01,0.1-1.8,0.96-1.8,1.99v8c0,1.105-0.895,2-2,2
				s-2-0.895-2-2c0-4.165,0,2.866,0-8c0-1.1-0.9-2-2-2s-2,0.9-2,2v11c0,5.27,1.96,8.778,6,11.91c4,3.09,1.89,21.98,0.37,35.07
				c-0.24,2.15,1.43,4.02,3.59,4.02h0.08c2.16,0,3.83-1.88,3.59-4.02C69.11,69.87,67,50.799,71,47.889c4.094-2.985,6-6.696,6-11.91
				v-11C77,23.879,76.1,22.979,75,22.979z"/>
		</g>
		<g>
			<path style="fill:#FFFFFF;" d="M65,24.979v8c0,1.104-0.896,2-2,2s-2-0.896-2-2c0-1.026,0-1.371,0-1.474c0-0.027,0-0.039,0-0.039
				c0-0.2,0-1.313,0-6.488c0-1.1-0.9-2-2-2s-2,0.9-2,2v11c0,5.27,1.96,8.778,6,11.91c4,3.09,1.89,21.98,0.37,35.07
				c-0.24,2.15,1.43,4.02,3.59,4.02H67v-64c-0.07,0-0.14,0-0.2,0.01C65.79,23.089,65,23.949,65,24.979z"/>
		</g>
		<g>
			<path style="fill:#FFFFFF;" d="M33,35.979c0,5.33,2,8.822,6,11.911s1.886,21.977,0.374,35.073
				c-0.247,2.141,1.431,4.016,3.586,4.016H43v-64C37.477,22.979,33,28.8,33,35.979z"/>
		</g>
	</g>
</g>
<g id="Blue" style="display:none;">
	<g style="display:inline;">
		<g>
			<path style="fill:#BBE7F2;" d="M53,35.979c0-7.18-4.477-13-10-13s-10,5.82-10,13c0,5.329,2,8.822,6,11.911
				c4,3.089,1.887,21.977,0.374,35.073c-0.247,2.141,1.431,4.016,3.586,4.016h0.08c2.155,0,3.833-1.875,3.586-4.016
				C45.113,69.867,43,50.802,47,47.891C51,44.979,53,41.309,53,35.979z"/>
		</g>
		<g>
			<path style="fill:#BBE7F2;" d="M75,22.979c-1.1,0-2,0.9-2,2c0,4.533,0-1.935,0,8c0,1.104-0.896,2-2,2s-2-0.896-2-2v-8
				c0-1.03-0.79-1.89-1.8-1.99c-0.06-0.01-0.13-0.01-0.2-0.01s-0.141,0-0.2,0.01c-1.01,0.1-1.8,0.959-1.8,1.99v8
				c0,1.104-0.896,2-2,2s-2-0.896-2-2c0-4.165,0,2.867,0-8c0-1.1-0.9-2-2-2c-1.1,0-2,0.9-2,2v11c0,5.27,1.96,8.778,6,11.91
				c4,3.09,1.891,21.98,0.37,35.07c-0.24,2.15,1.43,4.02,3.59,4.02h0.08c2.16,0,3.83-1.88,3.59-4.02
				C69.109,69.87,67,50.799,71,47.89c4.094-2.985,6-6.696,6-11.91v-11C77,23.879,76.1,22.979,75,22.979z"/>
		</g>
		<g>
			<path style="fill:#FFFFFF;" d="M65,24.979v8c0,1.104-0.896,2-2,2s-2-0.896-2-2c0-1.026,0-1.371,0-1.474c0-0.027,0-0.039,0-0.039
				c0-0.2,0-1.313,0-6.488c0-1.1-0.9-2-2-2c-1.1,0-2,0.9-2,2v11c0,5.27,1.96,8.778,6,11.91c4,3.09,1.891,21.98,0.37,35.07
				c-0.24,2.15,1.43,4.02,3.59,4.02H67v-64c-0.07,0-0.141,0-0.2,0.01C65.79,23.089,65,23.949,65,24.979z"/>
		</g>
		<g>
			<path style="fill:#FFFFFF;" d="M33,35.979c0,5.33,2,8.822,6,11.911c4,3.089,1.887,21.977,0.374,35.073
				c-0.247,2.141,1.431,4.016,3.586,4.016H43v-64C37.477,22.979,33,28.8,33,35.979z"/>
		</g>
	</g>
</g>
<g id="R-Blue" style="display:none;">
	<circle style="display:inline;fill:#81D2EB;" cx="55" cy="55" r="55"/>
	<g style="display:inline;">
		<g>
			<path style="fill:#BBE7F2;" d="M53,35.979c0-7.18-4.477-13-10-13s-10,5.82-10,13c0,5.329,2,8.822,6,11.911
				c4,3.089,1.887,21.977,0.374,35.073c-0.247,2.141,1.431,4.016,3.586,4.016h0.08c2.155,0,3.833-1.875,3.586-4.016
				C45.113,69.867,43,50.802,47,47.891C51,44.979,53,41.309,53,35.979z"/>
		</g>
		<g>
			<path style="fill:#BBE7F2;" d="M75,22.979c-1.1,0-2,0.9-2,2c0,4.533,0-1.935,0,8c0,1.104-0.896,2-2,2s-2-0.896-2-2v-8
				c0-1.03-0.79-1.89-1.8-1.99c-0.06-0.01-0.13-0.01-0.2-0.01s-0.141,0-0.2,0.01c-1.01,0.1-1.8,0.959-1.8,1.99v8
				c0,1.104-0.896,2-2,2s-2-0.896-2-2c0-4.165,0,2.867,0-8c0-1.1-0.9-2-2-2c-1.1,0-2,0.9-2,2v11c0,5.27,1.96,8.778,6,11.91
				c4,3.09,1.891,21.98,0.37,35.07c-0.24,2.15,1.43,4.02,3.59,4.02h0.08c2.16,0,3.83-1.88,3.59-4.02
				C69.109,69.87,67,50.799,71,47.89c4.094-2.985,6-6.696,6-11.91v-11C77,23.879,76.1,22.979,75,22.979z"/>
		</g>
		<g>
			<path style="fill:#FFFFFF;" d="M65,24.979v8c0,1.104-0.896,2-2,2s-2-0.896-2-2c0-1.026,0-1.371,0-1.474c0-0.027,0-0.039,0-0.039
				c0-0.2,0-1.313,0-6.488c0-1.1-0.9-2-2-2c-1.1,0-2,0.9-2,2v11c0,5.27,1.96,8.778,6,11.91c4,3.09,1.891,21.98,0.37,35.07
				c-0.24,2.15,1.43,4.02,3.59,4.02H67v-64c-0.07,0-0.141,0-0.2,0.01C65.79,23.089,65,23.949,65,24.979z"/>
		</g>
		<g>
			<path style="fill:#FFFFFF;" d="M33,35.979c0,5.33,2,8.822,6,11.911c4,3.089,1.887,21.977,0.374,35.073
				c-0.247,2.141,1.431,4.016,3.586,4.016H43v-64C37.477,22.979,33,28.8,33,35.979z"/>
		</g>
	</g>
</g>
<g id="Green" style="display:none;">
	<g style="display:inline;">
		<g>
			<path style="fill:#AAF0E9;" d="M53,35.979c0-7.18-4.477-13-10-13s-10,5.82-10,13c0,5.329,2,8.822,6,11.911
				c4,3.089,1.887,21.977,0.374,35.073c-0.247,2.141,1.431,4.016,3.586,4.016h0.08c2.155,0,3.833-1.875,3.586-4.016
				C45.113,69.867,43,50.802,47,47.891C51,44.979,53,41.309,53,35.979z"/>
		</g>
		<g>
			<path style="fill:#AAF0E9;" d="M75,22.979c-1.1,0-2,0.9-2,2c0,4.533,0-1.935,0,8c0,1.104-0.896,2-2,2s-2-0.896-2-2v-8
				c0-1.03-0.79-1.89-1.8-1.99c-0.06-0.01-0.13-0.01-0.2-0.01c-0.07,0-0.141,0-0.2,0.01c-1.01,0.1-1.8,0.959-1.8,1.99v8
				c0,1.104-0.896,2-2,2c-1.104,0-2-0.896-2-2c0-4.165,0,2.867,0-8c0-1.1-0.9-2-2-2c-1.1,0-2,0.9-2,2v11c0,5.27,1.96,8.778,6,11.91
				c4,3.09,1.891,21.98,0.37,35.07c-0.24,2.15,1.43,4.02,3.59,4.02h0.08c2.16,0,3.83-1.88,3.59-4.02
				C69.109,69.87,67,50.799,71,47.89c4.094-2.985,6-6.696,6-11.91v-11C77,23.879,76.1,22.979,75,22.979z"/>
		</g>
		<g>
			<path style="fill:#FFFFFF;" d="M65,24.979v8c0,1.104-0.896,2-2,2c-1.104,0-2-0.896-2-2c0-1.026,0-1.371,0-1.474
				c0-0.027,0-0.039,0-0.039c0-0.2,0-1.313,0-6.488c0-1.1-0.9-2-2-2c-1.1,0-2,0.9-2,2v11c0,5.27,1.96,8.778,6,11.91
				c4,3.09,1.891,21.98,0.37,35.07c-0.24,2.15,1.43,4.02,3.59,4.02H67v-64c-0.07,0-0.141,0-0.2,0.01
				C65.79,23.089,65,23.949,65,24.979z"/>
		</g>
		<g>
			<path style="fill:#FFFFFF;" d="M33,35.979c0,5.33,2,8.822,6,11.911c4,3.089,1.887,21.977,0.374,35.073
				c-0.247,2.141,1.431,4.016,3.586,4.016H43v-64C37.477,22.979,33,28.8,33,35.979z"/>
		</g>
	</g>
</g>
<g id="R-Green" style="display:none;">
	<circle style="display:inline;fill:#77E0C4;" cx="55" cy="55" r="55"/>
	<g style="display:inline;">
		<g>
			<path style="fill:#AAF0E9;" d="M53,35.979c0-7.18-4.477-13-10-13s-10,5.82-10,13c0,5.329,2,8.822,6,11.911
				c4,3.089,1.887,21.977,0.374,35.073c-0.247,2.141,1.431,4.016,3.586,4.016h0.08c2.155,0,3.833-1.875,3.586-4.016
				C45.113,69.867,43,50.802,47,47.891C51,44.979,53,41.309,53,35.979z"/>
		</g>
		<g>
			<path style="fill:#AAF0E9;" d="M75,22.979c-1.1,0-2,0.9-2,2c0,4.533,0-1.935,0,8c0,1.104-0.896,2-2,2s-2-0.896-2-2v-8
				c0-1.03-0.79-1.89-1.8-1.99c-0.06-0.01-0.13-0.01-0.2-0.01s-0.141,0-0.2,0.01c-1.01,0.1-1.8,0.959-1.8,1.99v8
				c0,1.104-0.896,2-2,2s-2-0.896-2-2c0-4.165,0,2.867,0-8c0-1.1-0.9-2-2-2s-2,0.9-2,2v11c0,5.27,1.96,8.778,6,11.91
				c4,3.09,1.891,21.98,0.37,35.07c-0.24,2.15,1.43,4.02,3.59,4.02h0.08c2.16,0,3.83-1.88,3.59-4.02
				C69.109,69.87,67,50.799,71,47.89c4.094-2.985,6-6.696,6-11.91v-11C77,23.879,76.1,22.979,75,22.979z"/>
		</g>
		<g>
			<path style="fill:#FFFFFF;" d="M65,24.979v8c0,1.104-0.896,2-2,2s-2-0.896-2-2c0-1.026,0-1.371,0-1.474c0-0.027,0-0.039,0-0.039
				c0-0.2,0-1.313,0-6.488c0-1.1-0.9-2-2-2s-2,0.9-2,2v11c0,5.27,1.96,8.778,6,11.91c4,3.09,1.891,21.98,0.37,35.07
				c-0.24,2.15,1.43,4.02,3.59,4.02H67v-64c-0.07,0-0.141,0-0.2,0.01C65.79,23.089,65,23.949,65,24.979z"/>
		</g>
		<g>
			<path style="fill:#FFFFFF;" d="M33,35.979c0,5.33,2,8.822,6,11.911c4,3.089,1.887,21.977,0.374,35.073
				c-0.247,2.141,1.431,4.016,3.586,4.016H43v-64C37.477,22.979,33,28.8,33,35.979z"/>
		</g>
	</g>
</g>
<g id="Red" style="display:none;">
	<g style="display:inline;">
		<g>
			<path style="fill:#FFD7D4;" d="M53,35.979c0-7.18-4.477-13-10-13c-5.523,0-10,5.82-10,13c0,5.329,2,8.822,6,11.911
				c4,3.089,1.887,21.977,0.374,35.073c-0.247,2.141,1.431,4.016,3.586,4.016h0.08c2.155,0,3.833-1.875,3.586-4.016
				C45.113,69.867,43,50.802,47,47.891C51,44.979,53,41.309,53,35.979z"/>
		</g>
		<g>
			<path style="fill:#FFD7D4;" d="M75,22.979c-1.1,0-2,0.9-2,2c0,4.533,0-1.935,0,8c0,1.104-0.896,2-2,2s-2-0.896-2-2v-8
				c0-1.03-0.79-1.89-1.8-1.99c-0.06-0.01-0.13-0.01-0.2-0.01s-0.141,0-0.2,0.01c-1.01,0.1-1.8,0.959-1.8,1.99v8
				c0,1.104-0.896,2-2,2c-1.105,0-2-0.896-2-2c0-4.165,0,2.867,0-8c0-1.1-0.9-2-2-2c-1.1,0-2,0.9-2,2v11c0,5.27,1.96,8.778,6,11.91
				c4,3.09,1.891,21.98,0.37,35.07c-0.24,2.15,1.43,4.02,3.59,4.02h0.08c2.16,0,3.83-1.88,3.59-4.02
				C69.109,69.87,67,50.799,71,47.89c4.094-2.985,6-6.696,6-11.91v-11C77,23.879,76.1,22.979,75,22.979z"/>
		</g>
		<g>
			<path style="fill:#FFFFFF;" d="M65,24.979v8c0,1.104-0.896,2-2,2c-1.105,0-2-0.896-2-2c0-1.026,0-1.371,0-1.474
				c0-0.027,0-0.039,0-0.039c0-0.2,0-1.314,0-6.488c0-1.1-0.9-2-2-2c-1.1,0-2,0.9-2,2v11c0,5.27,1.96,8.778,6,11.91
				c4,3.09,1.891,21.98,0.37,35.07c-0.24,2.15,1.43,4.02,3.59,4.02H67v-64c-0.07,0-0.141,0-0.2,0.01
				C65.79,23.089,65,23.949,65,24.979z"/>
		</g>
		<g>
			<path style="fill:#FFFFFF;" d="M33,35.979c0,5.33,2,8.822,6,11.911c4,3.089,1.887,21.977,0.374,35.073
				c-0.247,2.141,1.431,4.016,3.586,4.016H43v-64C37.477,22.979,33,28.8,33,35.979z"/>
		</g>
	</g>
</g>
<g id="R-Red" style="display:none;">
	<circle style="display:inline;fill:#FABBAF;" cx="55" cy="55" r="55"/>
	<g style="display:inline;">
		<g>
			<path style="fill:#FFD7D4;" d="M53,35.979c0-7.18-4.477-13-10-13c-5.523,0-10,5.82-10,13c0,5.329,2,8.822,6,11.911
				c4,3.089,1.887,21.977,0.374,35.073c-0.247,2.141,1.431,4.016,3.586,4.016h0.08c2.155,0,3.833-1.875,3.586-4.016
				C45.113,69.867,43,50.802,47,47.891C51,44.979,53,41.309,53,35.979z"/>
		</g>
		<g>
			<path style="fill:#FFD7D4;" d="M75,22.979c-1.1,0-2,0.9-2,2c0,4.533,0-1.935,0,8c0,1.104-0.896,2-2,2s-2-0.896-2-2v-8
				c0-1.03-0.79-1.89-1.8-1.99c-0.06-0.01-0.13-0.01-0.2-0.01s-0.141,0-0.2,0.01c-1.01,0.1-1.8,0.959-1.8,1.99v8
				c0,1.104-0.896,2-2,2c-1.105,0-2-0.896-2-2c0-4.165,0,2.867,0-8c0-1.1-0.9-2-2-2c-1.1,0-2,0.9-2,2v11c0,5.27,1.96,8.778,6,11.91
				c4,3.09,1.891,21.98,0.37,35.07c-0.24,2.15,1.43,4.02,3.59,4.02h0.08c2.16,0,3.83-1.88,3.59-4.02
				C69.109,69.87,67,50.799,71,47.89c4.094-2.985,6-6.696,6-11.91v-11C77,23.879,76.1,22.979,75,22.979z"/>
		</g>
		<g>
			<path style="fill:#FFFFFF;" d="M65,24.979v8c0,1.104-0.896,2-2,2c-1.105,0-2-0.896-2-2c0-1.026,0-1.371,0-1.474
				c0-0.027,0-0.039,0-0.039c0-0.2,0-1.314,0-6.488c0-1.1-0.9-2-2-2c-1.1,0-2,0.9-2,2v11c0,5.27,1.96,8.778,6,11.91
				c4,3.09,1.891,21.98,0.37,35.07c-0.24,2.15,1.43,4.02,3.59,4.02H67v-64c-0.07,0-0.141,0-0.2,0.01
				C65.79,23.089,65,23.949,65,24.979z"/>
		</g>
		<g>
			<path style="fill:#FFFFFF;" d="M33,35.979c0,5.33,2,8.822,6,11.911c4,3.089,1.887,21.977,0.374,35.073
				c-0.247,2.141,1.431,4.016,3.586,4.016H43v-64C37.477,22.979,33,28.8,33,35.979z"/>
		</g>
	</g>
</g>
<g id="Yellow" style="display:none;">
	<g style="display:inline;">
		<g>
			<path style="fill:#FFE9A1;" d="M53,35.979c0-7.18-4.477-13-10-13s-10,5.82-10,13c0,5.329,2,8.822,6,11.911
				c4,3.089,1.887,21.977,0.374,35.073c-0.247,2.141,1.431,4.016,3.586,4.016h0.08c2.155,0,3.833-1.875,3.586-4.016
				C45.113,69.867,43,50.802,47,47.891C51,44.979,53,41.309,53,35.979z"/>
		</g>
		<g>
			<path style="fill:#FFE9A1;" d="M75,22.979c-1.1,0-2,0.9-2,2c0,4.533,0-1.935,0,8c0,1.104-0.896,2-2,2s-2-0.896-2-2v-8
				c0-1.03-0.79-1.89-1.8-1.99c-0.06-0.01-0.13-0.01-0.2-0.01s-0.141,0-0.2,0.01c-1.01,0.1-1.8,0.959-1.8,1.99v8
				c0,1.104-0.896,2-2,2s-2-0.896-2-2c0-4.165,0,2.867,0-8c0-1.1-0.9-2-2-2s-2,0.9-2,2v11c0,5.27,1.96,8.778,6,11.91
				c4,3.09,1.891,21.98,0.37,35.07c-0.24,2.15,1.43,4.02,3.59,4.02h0.08c2.16,0,3.83-1.88,3.59-4.02
				C69.109,69.87,67,50.799,71,47.89c4.094-2.985,6-6.696,6-11.91v-11C77,23.879,76.1,22.979,75,22.979z"/>
		</g>
		<g>
			<path style="fill:#FFFFFF;" d="M65,24.979v8c0,1.104-0.896,2-2,2s-2-0.896-2-2c0-1.026,0-1.371,0-1.474c0-0.027,0-0.039,0-0.039
				c0-0.2,0-1.313,0-6.488c0-1.1-0.9-2-2-2s-2,0.9-2,2v11c0,5.27,1.96,8.778,6,11.91c4,3.09,1.891,21.98,0.37,35.07
				c-0.24,2.15,1.43,4.02,3.59,4.02H67v-64c-0.07,0-0.141,0-0.2,0.01C65.79,23.089,65,23.949,65,24.979z"/>
		</g>
		<g>
			<path style="fill:#FFFFFF;" d="M33,35.979c0,5.33,2,8.822,6,11.911c4,3.089,1.887,21.977,0.374,35.073
				c-0.247,2.141,1.431,4.016,3.586,4.016H43v-64C37.477,22.979,33,28.8,33,35.979z"/>
		</g>
	</g>
</g>
<g id="R-Yellow" style="display:none;">
	<circle style="display:inline;fill:#FFD75E;" cx="55" cy="55" r="55"/>
	<g style="display:inline;">
		<g>
			<path style="fill:#FFE9A1;" d="M53,35.979c0-7.18-4.477-13-10-13s-10,5.82-10,13c0,5.329,2,8.822,6,11.911
				c4,3.089,1.887,21.977,0.374,35.073c-0.247,2.141,1.431,4.016,3.586,4.016h0.08c2.155,0,3.833-1.875,3.586-4.016
				C45.113,69.867,43,50.802,47,47.891C51,44.979,53,41.309,53,35.979z"/>
		</g>
		<g>
			<path style="fill:#FFE9A1;" d="M75,22.979c-1.1,0-2,0.9-2,2c0,4.533,0-1.935,0,8c0,1.104-0.896,2-2,2s-2-0.896-2-2v-8
				c0-1.03-0.79-1.89-1.8-1.99c-0.06-0.01-0.13-0.01-0.2-0.01c-0.07,0-0.141,0-0.2,0.01c-1.01,0.1-1.8,0.959-1.8,1.99v8
				c0,1.104-0.896,2-2,2c-1.104,0-2-0.896-2-2c0-4.165,0,2.867,0-8c0-1.1-0.9-2-2-2c-1.1,0-2,0.9-2,2v11c0,5.27,1.96,8.778,6,11.91
				c4,3.09,1.891,21.98,0.37,35.07c-0.24,2.15,1.43,4.02,3.59,4.02h0.08c2.16,0,3.83-1.88,3.59-4.02
				C69.109,69.87,67,50.799,71,47.89c4.094-2.985,6-6.696,6-11.91v-11C77,23.879,76.1,22.979,75,22.979z"/>
		</g>
		<g>
			<path style="fill:#FFFFFF;" d="M65,24.979v8c0,1.104-0.896,2-2,2c-1.104,0-2-0.896-2-2c0-1.026,0-1.371,0-1.474
				c0-0.027,0-0.039,0-0.039c0-0.2,0-1.313,0-6.488c0-1.1-0.9-2-2-2c-1.1,0-2,0.9-2,2v11c0,5.27,1.96,8.778,6,11.91
				c4,3.09,1.891,21.98,0.37,35.07c-0.24,2.15,1.43,4.02,3.59,4.02H67v-64c-0.07,0-0.141,0-0.2,0.01
				C65.79,23.089,65,23.949,65,24.979z"/>
		</g>
		<g>
			<path style="fill:#FFFFFF;" d="M33,35.979c0,5.33,2,8.822,6,11.911c4,3.089,1.887,21.977,0.374,35.073
				c-0.247,2.141,1.431,4.016,3.586,4.016H43v-64C37.477,22.979,33,28.8,33,35.979z"/>
		</g>
	</g>
</g>
</svg>
