<?xml version="1.0" encoding="iso-8859-1"?>
<!-- Generator: Adobe Illustrator 17.1.0, SVG Export Plug-In . SVG Version: 6.00 Build 0)  -->
<!DOCTYPE svg PUBLIC "-//W3C//DTD SVG 1.0//EN" "http://www.w3.org/TR/2001/REC-SVG-20010904/DTD/svg10.dtd">
<svg version="1.0" xmlns="http://www.w3.org/2000/svg" xmlns:xlink="http://www.w3.org/1999/xlink" x="0px" y="0px" width="110px"
	 height="110px" viewBox="0 0 110 110" style="enable-background:new 0 0 110 110;" xml:space="preserve">
<g id="Artboard">
</g>
<g id="Multicolor">
	<circle style="fill:#32BEA6;" cx="55" cy="55" r="55"/>
	<g>
		
			<rect x="63.075" y="38.363" transform="matrix(0.9617 -0.2739 0.2739 0.9617 -11.2855 22.0739)" style="fill:#EDBC7C;" width="20.644" height="26.168"/>
		<polygon style="fill:#F4D0A1;" points="66.051,63.335 82.757,46.628 79.74,36.036 59.886,41.691 		"/>
		<circle style="fill:#3E3E3F;" cx="57" cy="79.001" r="8"/>
		<circle style="fill:#3E3E3F;" cx="29" cy="81.001" r="6"/>
		<circle style="fill:#CFD3D4;" cx="29" cy="81.001" r="2"/>
		<path style="fill:#FACB1B;" d="M50.925,39.689c-0.013-0.035-0.028-0.07-0.043-0.104c-0.958-2.177-3.113-3.584-5.492-3.584H34
			c-3.309,0-6,2.691-6,6v11h-3c-1.104,0-2,0.896-2,2v19.721c1.466-1.665,3.607-2.721,6-2.721c4.079,0,7.438,3.055,7.931,7H45
			c0-7.306,6.484-12.899,13.653-11.87c0.879,0.125,1.73,0.336,2.539,0.638L50.925,39.689z M47,59.001c-2.499-3.749-6.706-6-11.211-6
			H32v-11c0-1.103,0.897-2,2-2h11.39c0.777,0,1.483,0.45,1.811,1.151l6.673,17.849H47z"/>
		<circle style="fill:#CFD3D4;" cx="57" cy="79.001" r="2.8"/>
		<polygon style="fill:#3E3E3F;" points="60.5,58.192 57.907,58.783 60.815,66.739 62.798,66.153 		"/>
		<g>
			<path style="fill:#F0F1F1;" d="M65.749,71.168c-0.869,0-1.668-0.571-1.92-1.446l-12.75-44.167
				c-0.307-1.061,0.306-2.17,1.367-2.476c1.058-0.306,2.169,0.306,2.476,1.367l12.203,42.272l13.348-3.647
				c1.068-0.292,2.166,0.337,2.457,1.402c0.291,1.065-0.336,2.165-1.402,2.456C81.079,67.052,66.187,71.168,65.749,71.168z"/>
		</g>
		<polygon style="fill:#FCF1E2;" points="75.257,44.651 71.125,43.938 68.235,46.652 66.302,39.863 73.324,37.863 		"/>
		<polygon style="fill:#A97A45;" points="76.114,49.881 74.311,53.46 75.657,53.016 77.433,58.397 80.123,57.509 78.347,52.128 
			79.692,51.684 		"/>
		<polygon style="fill:#A97A45;" points="70.076,51.837 68.274,55.415 69.619,54.971 71.396,60.352 74.086,59.464 72.31,54.083 
			73.655,53.639 		"/>
		<path style="fill:#FBE158;" d="M50.882,39.585c-0.958-2.177-3.113-3.584-5.492-3.584H34c-3.309,0-6,2.691-6,6v11h-3
			c-1.104,0-2,0.896-2,2v19.698L42.739,54.96c-2.071-1.25-4.459-1.959-6.95-1.959H32v-11c0-1.103,0.897-2,2-2h11.39
			c0.777,0,1.483,0.45,1.811,1.151l2.543,6.803l3.108-3.108l-1.928-5.157C50.912,39.654,50.897,39.619,50.882,39.585z"/>
	</g>
</g>
</svg>
