<?xml version="1.0" encoding="iso-8859-1"?>
<!-- Generator: Adobe Illustrator 17.1.0, SVG Export Plug-In . SVG Version: 6.00 Build 0)  -->
<!DOCTYPE svg PUBLIC "-//W3C//DTD SVG 1.0//EN" "http://www.w3.org/TR/2001/REC-SVG-20010904/DTD/svg10.dtd">
<svg version="1.0" xmlns="http://www.w3.org/2000/svg" xmlns:xlink="http://www.w3.org/1999/xlink" x="0px" y="0px" width="110px"
	 height="110px" viewBox="0 0 110 110" style="enable-background:new 0 0 110 110;" xml:space="preserve">
<g id="Artboard" style="display:none;">
	
		<rect x="-1224.5" y="-418.5" style="display:inline;fill:#808080;stroke:#000000;stroke-miterlimit:10;" width="1392" height="1369"/>
</g>
<g id="R-Multicolor">
	<circle style="fill:#25B7D3;" cx="55" cy="55" r="55"/>
	<g>
		<g>
			<path style="fill:#FACB1B;" d="M43.014,55.034c2.818,2.112,5.636,3.472,8.454,4.095l-3.261-32.295
				c-0.112-1.103-1.101-1.907-2.204-1.788l-3.977,0.427c-1.093,0.118-1.887,1.096-1.776,2.189L43.014,55.034z"/>
		</g>
		<g>
			<path style="fill:#FACB1B;" d="M67.141,54.921l3.089-26.984c0.126-1.102-0.67-2.098-1.773-2.216l-3.977-0.427
				c-1.093-0.117-2.076,0.669-2.201,1.761l-3.67,32.06C61.453,58.474,64.297,57.079,67.141,54.921z"/>
		</g>
		<g>
			<path style="fill:#FBE158;" d="M36.57,51.528h2.435c2.976,2.976,5.953,5.12,8.929,6.435l-7.777-18.59
				c-0.426-1.019-1.598-1.5-2.617-1.073l-3.69,1.544c-1.019,0.426-1.5,1.598-1.073,2.617L36.57,51.528z"/>
		</g>
		<g>
			<path style="fill:#FBE158;" d="M59.005,59.028V34.653c0-1.105-0.895-2-2-2h-4c-1.104,0-2,0.895-2,2v24.375
				C53.672,59.694,56.338,59.694,59.005,59.028z"/>
		</g>
		<g>
			<path style="fill:#FBE158;" d="M71.005,51.528h2.435l3.793-9.068c0.426-1.019-0.054-2.191-1.073-2.617L72.47,38.3
				c-1.019-0.426-2.191,0.054-2.617,1.073l-7.777,18.59C65.052,56.648,68.029,54.504,71.005,51.528z"/>
		</g>
		<g>
			<path style="fill:#DF2C2C;" d="M78.949,53.999c0.305-1.259-0.65-2.471-1.944-2.471h-6c-10.667,10.667-21.333,10.667-32,0h-6
				c-1.295,0-2.248,1.214-1.944,2.471l3.944,30.529c0.296,1.065,1.019,1.959,1.997,2.472c0.001,0,36.003-0.002,36.004-0.002
				c0.978-0.513,1.704-1.406,1.999-2.47L78.949,53.999z"/>
		</g>
		<g>
			<path style="fill:#FA5655;" d="M68.049,86.998l2.956-35.47c-10.667,10.666-21.333,10.666-32,0L41.961,87
				C48.834,87,61.176,86.999,68.049,86.998z"/>
		</g>
		<g>
			<path style="fill:#FA5655;" d="M68.049,86.998l2.956-35.47c-10.667,10.666-21.333,10.666-32,0L41.961,87
				C48.834,87,61.176,86.999,68.049,86.998z"/>
		</g>
		<g>
			<path style="fill:#FBE158;" d="M61.755,72.028c0,3.038-2.462,5.5-5.5,5.5h-2.75c-3.038,0-5.5-2.462-5.5-5.5l0,0
				c0-3.038,2.462-5.5,5.5-5.5h2.75C59.292,66.528,61.755,68.99,61.755,72.028L61.755,72.028z"/>
		</g>
		<g>
			<path style="fill:#DF2C2C;" d="M52.559,74.611v-4.9c0-0.216,0.061-0.375,0.182-0.478s0.271-0.154,0.449-0.154
				c0.243,0,0.428,0.036,0.555,0.109c0.126,0.073,0.269,0.247,0.425,0.522l0.834,1.458l0.834-1.458
				c0.157-0.275,0.298-0.449,0.425-0.522c0.127-0.073,0.312-0.109,0.555-0.109c0.178,0,0.328,0.051,0.45,0.154
				c0.121,0.103,0.182,0.262,0.182,0.478v4.9c0,0.124-0.062,0.22-0.187,0.287C57.14,74.966,56.992,75,56.819,75
				s-0.321-0.034-0.445-0.101c-0.125-0.067-0.187-0.163-0.187-0.287v-3.037l-0.777,1.328c-0.092,0.157-0.232,0.235-0.421,0.235
				c-0.184,0-0.316-0.078-0.397-0.235l-0.77-1.409v3.118c0,0.124-0.062,0.22-0.186,0.287C53.512,74.966,53.363,75,53.19,75
				s-0.321-0.034-0.445-0.101C52.621,74.831,52.559,74.736,52.559,74.611z"/>
		</g>
	</g>
</g>
<g id="Multicolor" style="display:none;">
	<g style="display:inline;">
		<g>
			<path style="fill:#FACB1B;" d="M43.014,55.034c2.818,2.112,5.636,3.472,8.454,4.095l-3.261-32.295
				c-0.112-1.103-1.101-1.907-2.204-1.788l-3.977,0.427c-1.093,0.118-1.887,1.096-1.776,2.189L43.014,55.034z"/>
		</g>
		<g>
			<path style="fill:#FACB1B;" d="M67.141,54.921l3.089-26.984c0.126-1.102-0.67-2.098-1.773-2.216l-3.977-0.427
				c-1.093-0.117-2.076,0.669-2.201,1.761l-3.67,32.06C61.453,58.474,64.297,57.079,67.141,54.921z"/>
		</g>
		<g>
			<path style="fill:#FBE158;" d="M36.57,51.528h2.435c2.976,2.976,5.953,5.12,8.929,6.435l-7.777-18.59
				c-0.426-1.019-1.598-1.5-2.617-1.073l-3.69,1.544c-1.019,0.426-1.5,1.598-1.073,2.617L36.57,51.528z"/>
		</g>
		<g>
			<path style="fill:#FBE158;" d="M59.005,59.028V34.653c0-1.105-0.895-2-2-2h-4c-1.104,0-2,0.895-2,2v24.375
				C53.672,59.694,56.338,59.694,59.005,59.028z"/>
		</g>
		<g>
			<path style="fill:#FBE158;" d="M71.005,51.528h2.435l3.793-9.068c0.426-1.019-0.054-2.191-1.073-2.617L72.47,38.3
				c-1.019-0.426-2.191,0.054-2.617,1.073l-7.777,18.59C65.052,56.648,68.029,54.504,71.005,51.528z"/>
		</g>
		<g>
			<path style="fill:#DF2C2C;" d="M78.949,53.999c0.305-1.259-0.65-2.471-1.944-2.471h-6c-10.667,10.667-21.333,10.667-32,0h-6
				c-1.295,0-2.248,1.214-1.944,2.471l3.944,30.529c0.296,1.065,1.019,1.959,1.997,2.472c0.001,0,36.003-0.002,36.004-0.002
				c0.978-0.513,1.704-1.406,1.999-2.47L78.949,53.999z"/>
		</g>
		<g>
			<path style="fill:#FA5655;" d="M68.049,86.998l2.956-35.47c-10.667,10.666-21.333,10.666-32,0L41.961,87
				C48.834,87,61.176,86.999,68.049,86.998z"/>
		</g>
		<g>
			<path style="fill:#FA5655;" d="M68.049,86.998l2.956-35.47c-10.667,10.666-21.333,10.666-32,0L41.961,87
				C48.834,87,61.176,86.999,68.049,86.998z"/>
		</g>
		<g>
			<path style="fill:#FBE158;" d="M61.755,72.028c0,3.038-2.462,5.5-5.5,5.5h-2.75c-3.038,0-5.5-2.462-5.5-5.5l0,0
				c0-3.038,2.462-5.5,5.5-5.5h2.75C59.292,66.528,61.755,68.99,61.755,72.028L61.755,72.028z"/>
		</g>
		<g>
			<path style="fill:#DF2C2C;" d="M52.559,74.611v-4.9c0-0.216,0.061-0.375,0.182-0.478s0.271-0.154,0.449-0.154
				c0.243,0,0.428,0.036,0.555,0.109c0.126,0.073,0.269,0.247,0.425,0.522l0.834,1.458l0.834-1.458
				c0.157-0.275,0.298-0.449,0.425-0.522c0.127-0.073,0.312-0.109,0.555-0.109c0.178,0,0.328,0.051,0.45,0.154
				c0.121,0.103,0.182,0.262,0.182,0.478v4.9c0,0.124-0.062,0.22-0.187,0.287C57.14,74.966,56.992,75,56.819,75
				s-0.321-0.034-0.445-0.101c-0.125-0.067-0.187-0.163-0.187-0.287v-3.037l-0.777,1.328c-0.092,0.157-0.232,0.235-0.421,0.235
				c-0.184,0-0.316-0.078-0.397-0.235l-0.77-1.409v3.118c0,0.124-0.062,0.22-0.186,0.287C53.512,74.966,53.363,75,53.19,75
				s-0.321-0.034-0.445-0.101C52.621,74.831,52.559,74.736,52.559,74.611z"/>
		</g>
	</g>
</g>
<g id="Blue" style="display:none;">
	<g style="display:inline;">
		<g>
			<path style="fill:#BBE7F2;" d="M43.014,55.034c2.818,2.111,5.637,3.472,8.454,4.095l-3.261-32.295
				c-0.111-1.103-1.101-1.906-2.203-1.788l-3.978,0.427c-1.093,0.118-1.887,1.096-1.776,2.19L43.014,55.034z"/>
		</g>
		<g>
			<path style="fill:#BBE7F2;" d="M67.142,54.921l3.089-26.985c0.126-1.101-0.67-2.097-1.773-2.215l-3.978-0.428
				c-1.093-0.118-2.075,0.669-2.2,1.761l-3.67,32.06C61.453,58.474,64.297,57.079,67.142,54.921z"/>
		</g>
		<g>
			<path style="fill:#E1F5FA;" d="M36.57,51.528h2.435c2.976,2.976,5.952,5.12,8.929,6.435l-7.776-18.59
				c-0.427-1.019-1.599-1.5-2.617-1.073l-3.69,1.543c-1.019,0.426-1.499,1.598-1.073,2.617L36.57,51.528z"/>
		</g>
		<g>
			<path style="fill:#E1F5FA;" d="M59.005,59.028V34.653c0-1.104-0.896-2-2-2h-4c-1.104,0-2,0.896-2,2v24.375
				C53.672,59.694,56.338,59.694,59.005,59.028z"/>
		</g>
		<g>
			<path style="fill:#E1F5FA;" d="M71.006,51.528h2.434l3.794-9.067c0.426-1.019-0.055-2.191-1.073-2.617L72.47,38.3
				c-1.019-0.426-2.19,0.054-2.617,1.073l-7.776,18.59C65.053,56.648,68.029,54.504,71.006,51.528z"/>
		</g>
		<g>
			<path style="fill:#0081A1;" d="M78.948,53.999c0.306-1.259-0.649-2.471-1.943-2.471h-5.999
				c-10.668,10.667-21.334,10.667-32.001,0h-6c-1.296,0-2.249,1.214-1.943,2.471l3.943,30.529c0.296,1.064,1.018,1.959,1.997,2.472
				l36.004-0.002c0.978-0.513,1.703-1.406,1.999-2.47L78.948,53.999z"/>
		</g>
		<g>
			<path style="fill:#33899E;" d="M68.049,86.998l2.956-35.47c-10.667,10.666-21.333,10.666-32,0L41.961,87
				C48.834,87,61.177,86.999,68.049,86.998z"/>
		</g>
		<g>
			<path style="fill:#009FC7;" d="M68.049,86.998l2.956-35.47c-10.667,10.666-21.333,10.666-32,0L41.961,87
				C48.834,87,61.177,86.999,68.049,86.998z"/>
		</g>
		<g>
			<path style="fill:#FFFFFF;" d="M61.755,72.028c0,3.038-2.462,5.5-5.5,5.5h-2.75c-3.038,0-5.5-2.462-5.5-5.5l0,0
				c0-3.038,2.462-5.5,5.5-5.5h2.75C59.293,66.528,61.755,68.99,61.755,72.028L61.755,72.028z"/>
		</g>
		<g>
			<path style="fill:#00B7E5;" d="M52.559,74.611v-4.9c0-0.216,0.061-0.375,0.183-0.478c0.122-0.103,0.271-0.154,0.449-0.154
				c0.243,0,0.429,0.036,0.556,0.109c0.126,0.073,0.268,0.246,0.424,0.522l0.835,1.458l0.834-1.458
				c0.157-0.276,0.298-0.45,0.425-0.522c0.127-0.073,0.312-0.109,0.555-0.109c0.179,0,0.328,0.051,0.45,0.154
				c0.121,0.103,0.183,0.262,0.183,0.478v4.9c0,0.125-0.062,0.22-0.188,0.288C57.141,74.966,56.992,75,56.818,75
				c-0.173,0-0.32-0.034-0.445-0.101c-0.124-0.067-0.187-0.163-0.187-0.288v-3.037l-0.776,1.328
				c-0.092,0.157-0.233,0.235-0.422,0.235c-0.184,0-0.315-0.078-0.396-0.235l-0.77-1.409v3.118c0,0.125-0.062,0.22-0.186,0.288
				C53.512,74.966,53.363,75,53.19,75c-0.173,0-0.321-0.034-0.445-0.101C52.621,74.831,52.559,74.736,52.559,74.611z"/>
		</g>
	</g>
</g>
<g id="R-Blue" style="display:none;">
	<circle style="display:inline;fill:#81D2EB;" cx="55" cy="55" r="55"/>
	<g style="display:inline;">
		<g>
			<path style="fill:#BBE7F2;" d="M43.014,55.034c2.818,2.111,5.637,3.472,8.454,4.095l-3.261-32.295
				c-0.111-1.103-1.101-1.906-2.203-1.788l-3.978,0.427c-1.093,0.118-1.887,1.096-1.776,2.19L43.014,55.034z"/>
		</g>
		<g>
			<path style="fill:#BBE7F2;" d="M67.142,54.921l3.089-26.985c0.126-1.101-0.67-2.097-1.773-2.215l-3.978-0.428
				c-1.093-0.118-2.075,0.669-2.2,1.761l-3.67,32.06C61.453,58.474,64.297,57.079,67.142,54.921z"/>
		</g>
		<g>
			<path style="fill:#E1F5FA;" d="M36.57,51.528h2.435c2.976,2.976,5.952,5.12,8.929,6.435l-7.776-18.59
				c-0.427-1.019-1.599-1.5-2.617-1.073l-3.69,1.543c-1.019,0.426-1.499,1.598-1.073,2.617L36.57,51.528z"/>
		</g>
		<g>
			<path style="fill:#E1F5FA;" d="M59.005,59.028V34.653c0-1.104-0.896-2-2-2h-4c-1.104,0-2,0.896-2,2v24.375
				C53.672,59.694,56.338,59.694,59.005,59.028z"/>
		</g>
		<g>
			<path style="fill:#E1F5FA;" d="M71.006,51.528h2.434l3.794-9.067c0.426-1.019-0.055-2.191-1.073-2.617L72.47,38.3
				c-1.019-0.426-2.19,0.054-2.617,1.073l-7.776,18.59C65.053,56.648,68.029,54.504,71.006,51.528z"/>
		</g>
		<g>
			<path style="fill:#0081A1;" d="M78.948,53.999c0.306-1.259-0.649-2.471-1.943-2.471h-5.999
				c-10.668,10.667-21.334,10.667-32.001,0h-6c-1.296,0-2.249,1.214-1.943,2.471l3.943,30.529c0.296,1.065,1.018,1.959,1.997,2.472
				l36.004-0.002c0.978-0.513,1.703-1.406,1.999-2.47L78.948,53.999z"/>
		</g>
		<g>
			<path style="fill:#33899E;" d="M68.049,86.998l2.956-35.47c-10.667,10.666-21.333,10.666-32,0L41.961,87
				C48.834,86.999,61.177,86.999,68.049,86.998z"/>
		</g>
		<g>
			<path style="fill:#009FC7;" d="M68.049,86.998l2.956-35.47c-10.667,10.666-21.333,10.666-32,0L41.961,87
				C48.834,86.999,61.177,86.999,68.049,86.998z"/>
		</g>
		<g>
			<path style="fill:#FFFFFF;" d="M61.755,72.028c0,3.038-2.462,5.5-5.5,5.5h-2.75c-3.038,0-5.5-2.462-5.5-5.5l0,0
				c0-3.038,2.462-5.5,5.5-5.5h2.75C59.293,66.528,61.755,68.99,61.755,72.028L61.755,72.028z"/>
		</g>
		<g>
			<path style="fill:#00B7E5;" d="M52.559,74.611v-4.9c0-0.216,0.061-0.375,0.183-0.478c0.122-0.103,0.271-0.154,0.449-0.154
				c0.243,0,0.429,0.036,0.556,0.109c0.126,0.073,0.268,0.246,0.424,0.522l0.835,1.458l0.834-1.458
				c0.157-0.276,0.298-0.45,0.425-0.522c0.127-0.073,0.312-0.109,0.555-0.109c0.179,0,0.328,0.051,0.45,0.154
				c0.121,0.103,0.183,0.262,0.183,0.478v4.9c0,0.124-0.062,0.22-0.188,0.288C57.141,74.966,56.992,75,56.818,75
				c-0.173,0-0.32-0.034-0.445-0.101c-0.124-0.067-0.187-0.163-0.187-0.288v-3.037l-0.776,1.328
				c-0.092,0.157-0.233,0.235-0.422,0.235c-0.184,0-0.315-0.078-0.396-0.235l-0.77-1.409v3.118c0,0.124-0.062,0.22-0.186,0.288
				C53.512,74.966,53.363,75,53.19,75c-0.173,0-0.321-0.034-0.445-0.101S52.559,74.736,52.559,74.611z"/>
		</g>
	</g>
</g>
<g id="Green" style="display:none;">
	<g style="display:inline;">
		<g>
			<path style="fill:#AAF0E9;" d="M43.014,55.034c2.818,2.111,5.637,3.472,8.454,4.095l-3.261-32.295
				c-0.111-1.103-1.101-1.906-2.203-1.788l-3.978,0.427c-1.093,0.118-1.887,1.096-1.776,2.189L43.014,55.034z"/>
		</g>
		<g>
			<path style="fill:#AAF0E9;" d="M67.142,54.921l3.089-26.985c0.126-1.102-0.67-2.097-1.774-2.215l-3.977-0.428
				c-1.093-0.118-2.075,0.669-2.2,1.761l-3.67,32.06C61.453,58.474,64.297,57.079,67.142,54.921z"/>
		</g>
		<g>
			<path style="fill:#D7FCF9;" d="M36.57,51.528h2.435c2.976,2.976,5.952,5.12,8.929,6.435l-7.776-18.59
				c-0.427-1.019-1.599-1.5-2.617-1.073l-3.69,1.543c-1.019,0.426-1.499,1.598-1.073,2.617L36.57,51.528z"/>
		</g>
		<g>
			<path style="fill:#D7FCF9;" d="M59.005,59.028V34.653c0-1.104-0.896-2-2-2h-4c-1.104,0-2,0.896-2,2v24.375
				C53.672,59.694,56.338,59.694,59.005,59.028z"/>
		</g>
		<g>
			<path style="fill:#D7FCF9;" d="M71.006,51.528h2.434l3.794-9.067c0.426-1.019-0.055-2.191-1.073-2.617L72.47,38.3
				c-1.019-0.426-2.19,0.054-2.617,1.073l-7.776,18.59C65.053,56.648,68.029,54.504,71.006,51.528z"/>
		</g>
		<g>
			<path style="fill:#009687;" d="M78.948,53.999c0.306-1.259-0.649-2.471-1.943-2.471h-5.999
				c-10.668,10.667-21.334,10.667-32.001,0h-6c-1.296,0-2.249,1.214-1.943,2.471l3.943,30.529c0.296,1.064,1.018,1.959,1.997,2.472
				l36.004-0.002c0.978-0.513,1.703-1.406,1.999-2.47L78.948,53.999z"/>
		</g>
		<g>
			<path style="fill:#3E948B;" d="M68.049,86.998l2.956-35.47c-10.667,10.666-21.333,10.666-32,0L41.961,87
				C48.834,86.999,61.177,86.999,68.049,86.998z"/>
		</g>
		<g>
			<path style="fill:#00B8A5;" d="M68.049,86.998l2.956-35.47c-10.667,10.666-21.333,10.666-32,0L41.961,87
				C48.834,86.999,61.177,86.999,68.049,86.998z"/>
		</g>
		<g>
			<path style="fill:#FFFFFF;" d="M61.755,72.028c0,3.038-2.462,5.5-5.5,5.5h-2.75c-3.038,0-5.5-2.462-5.5-5.5l0,0
				c0-3.038,2.462-5.5,5.5-5.5h2.75C59.293,66.528,61.755,68.99,61.755,72.028L61.755,72.028z"/>
		</g>
		<g>
			<path style="fill:#00D6C1;" d="M52.559,74.611v-4.9c0-0.216,0.061-0.375,0.183-0.478c0.122-0.103,0.271-0.154,0.449-0.154
				c0.243,0,0.429,0.036,0.556,0.109c0.126,0.073,0.268,0.246,0.424,0.522l0.835,1.458l0.834-1.458
				c0.157-0.276,0.298-0.45,0.425-0.522c0.127-0.073,0.312-0.109,0.555-0.109c0.179,0,0.328,0.051,0.45,0.154
				c0.121,0.103,0.183,0.262,0.183,0.478v4.9c0,0.125-0.062,0.22-0.188,0.288C57.141,74.966,56.992,75,56.818,75
				c-0.173,0-0.32-0.034-0.445-0.101c-0.124-0.067-0.187-0.163-0.187-0.288v-3.037l-0.776,1.328
				c-0.092,0.157-0.233,0.235-0.422,0.235c-0.184,0-0.315-0.078-0.396-0.235l-0.77-1.409v3.118c0,0.125-0.062,0.22-0.186,0.288
				C53.512,74.966,53.363,75,53.19,75c-0.173,0-0.321-0.034-0.445-0.101C52.621,74.831,52.559,74.736,52.559,74.611z"/>
		</g>
	</g>
</g>
<g id="R-Green" style="display:none;">
	<circle style="display:inline;fill:#77E0C4;" cx="55" cy="55" r="55"/>
	<g style="display:inline;">
		<g>
			<path style="fill:#AAF0E9;" d="M43.014,55.034c2.818,2.111,5.637,3.472,8.454,4.095l-3.261-32.295
				c-0.111-1.103-1.101-1.906-2.203-1.788l-3.977,0.427c-1.093,0.118-1.887,1.096-1.776,2.19L43.014,55.034z"/>
		</g>
		<g>
			<path style="fill:#AAF0E9;" d="M67.142,54.921l3.089-26.985c0.126-1.101-0.67-2.097-1.773-2.215l-3.978-0.428
				c-1.093-0.118-2.075,0.669-2.2,1.761l-3.67,32.06C61.453,58.474,64.297,57.079,67.142,54.921z"/>
		</g>
		<g>
			<path style="fill:#D7FCF9;" d="M36.57,51.528h2.435c2.977,2.976,5.952,5.12,8.929,6.435l-7.776-18.59
				c-0.427-1.019-1.599-1.5-2.617-1.073l-3.69,1.543c-1.019,0.426-1.499,1.598-1.073,2.617L36.57,51.528z"/>
		</g>
		<g>
			<path style="fill:#D7FCF9;" d="M59.005,59.028V34.653c0-1.104-0.895-2-2-2h-4c-1.104,0-2,0.896-2,2v24.375
				C53.672,59.694,56.338,59.694,59.005,59.028z"/>
		</g>
		<g>
			<path style="fill:#D7FCF9;" d="M71.006,51.528h2.434l3.794-9.067c0.426-1.019-0.055-2.191-1.073-2.617L72.47,38.3
				c-1.019-0.426-2.19,0.054-2.617,1.073l-7.776,18.59C65.053,56.648,68.029,54.504,71.006,51.528z"/>
		</g>
		<g>
			<path style="fill:#009687;" d="M78.948,53.999c0.306-1.259-0.649-2.471-1.943-2.471h-5.999
				c-10.668,10.667-21.334,10.667-32.001,0h-6c-1.296,0-2.249,1.214-1.943,2.471l3.943,30.529c0.296,1.064,1.019,1.959,1.997,2.472
				l36.004-0.002c0.978-0.513,1.703-1.406,1.999-2.47L78.948,53.999z"/>
		</g>
		<g>
			<path style="fill:#3E948B;" d="M68.049,86.998l2.956-35.47c-10.667,10.666-21.333,10.666-32,0L41.961,87
				C48.834,87,61.177,86.999,68.049,86.998z"/>
		</g>
		<g>
			<path style="fill:#00B8A5;" d="M68.049,86.998l2.956-35.47c-10.667,10.666-21.333,10.666-32,0L41.961,87
				C48.834,87,61.177,86.999,68.049,86.998z"/>
		</g>
		<g>
			<path style="fill:#FFFFFF;" d="M61.755,72.028c0,3.038-2.462,5.5-5.5,5.5h-2.75c-3.038,0-5.5-2.462-5.5-5.5l0,0
				c0-3.038,2.462-5.5,5.5-5.5h2.75C59.293,66.528,61.755,68.99,61.755,72.028L61.755,72.028z"/>
		</g>
		<g>
			<path style="fill:#00D6C1;" d="M52.559,74.611v-4.9c0-0.216,0.06-0.375,0.183-0.478c0.122-0.103,0.271-0.154,0.449-0.154
				c0.243,0,0.429,0.036,0.556,0.109c0.126,0.073,0.268,0.246,0.424,0.522l0.835,1.458l0.834-1.458
				c0.157-0.276,0.298-0.45,0.425-0.522c0.127-0.073,0.312-0.109,0.555-0.109c0.179,0,0.328,0.051,0.45,0.154
				c0.121,0.103,0.183,0.262,0.183,0.478v4.9c0,0.125-0.062,0.22-0.188,0.288C57.141,74.966,56.992,75,56.818,75
				c-0.173,0-0.32-0.034-0.445-0.101c-0.124-0.067-0.187-0.163-0.187-0.288v-3.037l-0.776,1.328
				c-0.092,0.157-0.232,0.235-0.422,0.235c-0.184,0-0.315-0.078-0.396-0.235l-0.77-1.409v3.118c0,0.125-0.062,0.22-0.186,0.288
				C53.512,74.966,53.363,75,53.19,75c-0.173,0-0.321-0.034-0.445-0.101C52.621,74.831,52.559,74.736,52.559,74.611z"/>
		</g>
	</g>
</g>
<g id="Red" style="display:none;">
	<g style="display:inline;">
		<g>
			<path style="fill:#FFD7D4;" d="M43.014,55.034c2.818,2.111,5.637,3.472,8.454,4.095l-3.261-32.295
				c-0.111-1.103-1.101-1.906-2.203-1.788l-3.977,0.427c-1.093,0.118-1.887,1.096-1.776,2.189L43.014,55.034z"/>
		</g>
		<g>
			<path style="fill:#FFD7D4;" d="M67.142,54.921l3.089-26.985c0.126-1.102-0.67-2.097-1.773-2.215l-3.978-0.428
				c-1.093-0.118-2.075,0.669-2.2,1.761l-3.67,32.06C61.453,58.474,64.297,57.079,67.142,54.921z"/>
		</g>
		<g>
			<path style="fill:#FFEFED;" d="M36.57,51.528h2.435c2.976,2.976,5.952,5.12,8.929,6.435l-7.776-18.59
				c-0.427-1.019-1.599-1.5-2.617-1.073l-3.69,1.543c-1.019,0.426-1.499,1.598-1.073,2.617L36.57,51.528z"/>
		</g>
		<g>
			<path style="fill:#FFEFED;" d="M59.005,59.028V34.653c0-1.104-0.896-2-2-2h-4c-1.105,0-2,0.896-2,2v24.375
				C53.672,59.694,56.338,59.694,59.005,59.028z"/>
		</g>
		<g>
			<path style="fill:#FFEFED;" d="M71.006,51.528h2.434l3.794-9.067c0.426-1.019-0.055-2.191-1.073-2.617L72.47,38.3
				c-1.019-0.426-2.19,0.054-2.617,1.073l-7.776,18.59C65.053,56.648,68.029,54.504,71.006,51.528z"/>
		</g>
		<g>
			<path style="fill:#C23023;" d="M78.948,53.999c0.306-1.259-0.649-2.471-1.943-2.471h-5.999
				c-10.668,10.667-21.334,10.667-32.001,0h-6c-1.296,0-2.249,1.214-1.943,2.471l3.943,30.529c0.296,1.064,1.018,1.959,1.997,2.472
				l36.004-0.002c0.978-0.513,1.703-1.406,1.999-2.47L78.948,53.999z"/>
		</g>
		<g>
			<path style="fill:#B84E44;" d="M68.049,86.998l2.956-35.47c-10.667,10.666-21.333,10.666-32,0L41.961,87
				C48.834,86.999,61.177,86.999,68.049,86.998z"/>
		</g>
		<g>
			<path style="fill:#E54B44;" d="M68.049,86.998l2.956-35.47c-10.667,10.666-21.333,10.666-32,0L41.961,87
				C48.834,86.999,61.177,86.999,68.049,86.998z"/>
		</g>
		<g>
			<path style="fill:#FFFFFF;" d="M61.755,72.028c0,3.038-2.462,5.5-5.5,5.5h-2.75c-3.038,0-5.5-2.462-5.5-5.5l0,0
				c0-3.038,2.462-5.5,5.5-5.5h2.75C59.293,66.528,61.755,68.99,61.755,72.028L61.755,72.028z"/>
		</g>
		<g>
			<path style="fill:#FF6C5E;" d="M52.559,74.611v-4.9c0-0.216,0.06-0.375,0.183-0.478c0.122-0.103,0.271-0.154,0.449-0.154
				c0.243,0,0.429,0.036,0.556,0.109c0.126,0.073,0.268,0.246,0.424,0.522l0.835,1.458l0.834-1.458
				c0.157-0.276,0.298-0.45,0.425-0.522c0.127-0.073,0.312-0.109,0.555-0.109c0.179,0,0.328,0.051,0.45,0.154
				c0.121,0.103,0.183,0.262,0.183,0.478v4.9c0,0.125-0.062,0.22-0.188,0.288C57.141,74.966,56.992,75,56.818,75
				c-0.173,0-0.32-0.034-0.445-0.101c-0.124-0.067-0.187-0.163-0.187-0.288v-3.037l-0.776,1.328
				c-0.092,0.157-0.232,0.235-0.422,0.235c-0.184,0-0.315-0.078-0.396-0.235l-0.77-1.409v3.118c0,0.125-0.062,0.22-0.186,0.288
				C53.512,74.966,53.363,75,53.19,75c-0.173,0-0.321-0.034-0.445-0.101C52.621,74.831,52.559,74.736,52.559,74.611z"/>
		</g>
	</g>
</g>
<g id="R-Red" style="display:none;">
	<circle style="display:inline;fill:#FABBAF;" cx="55" cy="55" r="55"/>
	<g style="display:inline;">
		<g>
			<path style="fill:#FFD7D4;" d="M43.014,55.034c2.818,2.111,5.637,3.472,8.454,4.095l-3.261-32.295
				c-0.111-1.103-1.101-1.906-2.203-1.788l-3.977,0.427c-1.093,0.118-1.887,1.096-1.776,2.189L43.014,55.034z"/>
		</g>
		<g>
			<path style="fill:#FFD7D4;" d="M67.142,54.921l3.089-26.985c0.126-1.102-0.67-2.097-1.773-2.215l-3.978-0.428
				c-1.093-0.118-2.075,0.669-2.2,1.761l-3.67,32.06C61.453,58.474,64.297,57.079,67.142,54.921z"/>
		</g>
		<g>
			<path style="fill:#FFEFED;" d="M36.57,51.528h2.435c2.976,2.976,5.952,5.12,8.929,6.435l-7.776-18.59
				c-0.427-1.019-1.599-1.5-2.617-1.073l-3.69,1.543c-1.019,0.426-1.499,1.598-1.073,2.617L36.57,51.528z"/>
		</g>
		<g>
			<path style="fill:#FFEFED;" d="M59.005,59.028V34.653c0-1.104-0.896-2-2-2h-4c-1.105,0-2,0.896-2,2v24.375
				C53.672,59.694,56.338,59.694,59.005,59.028z"/>
		</g>
		<g>
			<path style="fill:#FFEFED;" d="M71.006,51.528h2.434l3.794-9.067c0.426-1.019-0.055-2.191-1.073-2.617L72.47,38.3
				c-1.019-0.426-2.19,0.054-2.617,1.073l-7.776,18.59C65.053,56.648,68.029,54.504,71.006,51.528z"/>
		</g>
		<g>
			<path style="fill:#C23023;" d="M78.948,53.999c0.306-1.259-0.649-2.471-1.943-2.471h-5.999
				c-10.668,10.667-21.334,10.667-32.001,0h-6c-1.296,0-2.249,1.214-1.943,2.471l3.943,30.529c0.296,1.064,1.018,1.959,1.997,2.472
				l36.004-0.002c0.978-0.513,1.703-1.406,1.999-2.47L78.948,53.999z"/>
		</g>
		<g>
			<path style="fill:#B84E44;" d="M68.049,86.998l2.956-35.47c-10.667,10.666-21.333,10.666-32,0L41.961,87
				C48.834,86.999,61.177,86.999,68.049,86.998z"/>
		</g>
		<g>
			<path style="fill:#E54B44;" d="M68.049,86.998l2.956-35.47c-10.667,10.666-21.333,10.666-32,0L41.961,87
				C48.834,86.999,61.177,86.999,68.049,86.998z"/>
		</g>
		<g>
			<path style="fill:#FFFFFF;" d="M61.755,72.028c0,3.038-2.462,5.5-5.5,5.5h-2.75c-3.038,0-5.5-2.462-5.5-5.5l0,0
				c0-3.038,2.462-5.5,5.5-5.5h2.75C59.293,66.528,61.755,68.99,61.755,72.028L61.755,72.028z"/>
		</g>
		<g>
			<path style="fill:#FF6C5E;" d="M52.559,74.611v-4.9c0-0.216,0.06-0.375,0.183-0.478c0.122-0.103,0.271-0.154,0.449-0.154
				c0.243,0,0.429,0.036,0.556,0.109c0.126,0.073,0.268,0.246,0.424,0.522l0.835,1.458l0.834-1.458
				c0.157-0.276,0.298-0.45,0.425-0.522c0.127-0.073,0.312-0.109,0.555-0.109c0.179,0,0.328,0.051,0.45,0.154
				c0.121,0.103,0.183,0.262,0.183,0.478v4.9c0,0.125-0.062,0.22-0.188,0.288C57.141,74.966,56.992,75,56.818,75
				c-0.173,0-0.32-0.034-0.445-0.101c-0.124-0.067-0.187-0.163-0.187-0.288v-3.037l-0.776,1.328
				c-0.092,0.157-0.232,0.235-0.422,0.235c-0.184,0-0.315-0.078-0.396-0.235l-0.77-1.409v3.118c0,0.125-0.062,0.22-0.186,0.288
				C53.512,74.966,53.363,75,53.19,75c-0.173,0-0.321-0.034-0.445-0.101C52.621,74.831,52.559,74.736,52.559,74.611z"/>
		</g>
	</g>
</g>
<g id="Yellow" style="display:none;">
	<g style="display:inline;">
		<g>
			<path style="fill:#FFE9A1;" d="M43.014,55.034c2.818,2.111,5.637,3.472,8.454,4.095l-3.261-32.295
				c-0.111-1.103-1.101-1.906-2.203-1.788l-3.977,0.427c-1.093,0.118-1.887,1.096-1.776,2.19L43.014,55.034z"/>
		</g>
		<g>
			<path style="fill:#FFE9A1;" d="M67.142,54.921l3.089-26.985c0.126-1.101-0.67-2.097-1.773-2.215l-3.978-0.428
				c-1.093-0.118-2.075,0.669-2.2,1.761l-3.67,32.06C61.453,58.474,64.297,57.079,67.142,54.921z"/>
		</g>
		<g>
			<path style="fill:#FFF5D9;" d="M36.57,51.528h2.435c2.977,2.976,5.952,5.12,8.929,6.435l-7.776-18.59
				c-0.427-1.019-1.599-1.5-2.617-1.073l-3.69,1.543c-1.019,0.426-1.499,1.598-1.073,2.617L36.57,51.528z"/>
		</g>
		<g>
			<path style="fill:#FFF5D9;" d="M59.005,59.028V34.653c0-1.104-0.895-2-2-2h-4c-1.104,0-2,0.896-2,2v24.375
				C53.672,59.694,56.338,59.694,59.005,59.028z"/>
		</g>
		<g>
			<path style="fill:#FFF5D9;" d="M71.006,51.528h2.434l3.794-9.067c0.426-1.019-0.055-2.191-1.073-2.617L72.47,38.3
				c-1.019-0.426-2.19,0.054-2.617,1.073l-7.776,18.59C65.053,56.648,68.029,54.504,71.006,51.528z"/>
		</g>
		<g>
			<path style="fill:#E07000;" d="M78.948,53.999c0.306-1.259-0.649-2.471-1.943-2.471h-5.999
				c-10.668,10.667-21.334,10.667-32.001,0h-6c-1.296,0-2.249,1.214-1.943,2.471l3.943,30.529c0.296,1.064,1.019,1.959,1.997,2.472
				l36.004-0.002c0.978-0.513,1.703-1.406,1.999-2.47L78.948,53.999z"/>
		</g>
		<g>
			<path style="fill:#947615;" d="M68.049,86.998l2.956-35.47c-10.667,10.666-21.333,10.666-32,0L41.961,87
				C48.834,87,61.177,86.999,68.049,86.998z"/>
		</g>
		<g>
			<path style="fill:#FA9200;" d="M68.049,86.998l2.956-35.47c-10.667,10.666-21.333,10.666-32,0L41.961,87
				C48.834,87,61.177,86.999,68.049,86.998z"/>
		</g>
		<g>
			<path style="fill:#FFFFFF;" d="M61.755,72.028c0,3.038-2.462,5.5-5.5,5.5h-2.75c-3.038,0-5.5-2.462-5.5-5.5l0,0
				c0-3.038,2.462-5.5,5.5-5.5h2.75C59.293,66.528,61.755,68.99,61.755,72.028L61.755,72.028z"/>
		</g>
		<g>
			<path style="fill:#FFAA00;" d="M52.559,74.611v-4.9c0-0.216,0.06-0.375,0.183-0.478c0.122-0.103,0.271-0.154,0.449-0.154
				c0.243,0,0.429,0.036,0.556,0.109c0.126,0.073,0.268,0.246,0.424,0.522l0.835,1.458l0.834-1.458
				c0.157-0.276,0.298-0.45,0.425-0.522c0.127-0.073,0.312-0.109,0.555-0.109c0.179,0,0.328,0.051,0.45,0.154
				c0.121,0.103,0.183,0.262,0.183,0.478v4.9c0,0.125-0.062,0.22-0.188,0.288C57.141,74.966,56.992,75,56.818,75
				c-0.173,0-0.32-0.034-0.445-0.101c-0.124-0.067-0.187-0.163-0.187-0.288v-3.037l-0.776,1.328
				c-0.092,0.157-0.232,0.235-0.422,0.235c-0.184,0-0.315-0.078-0.396-0.235l-0.77-1.409v3.118c0,0.125-0.062,0.22-0.186,0.288
				C53.512,74.966,53.363,75,53.19,75c-0.173,0-0.321-0.034-0.445-0.101C52.621,74.831,52.559,74.736,52.559,74.611z"/>
		</g>
	</g>
</g>
<g id="R-Yellow" style="display:none;">
	<circle style="display:inline;fill:#FFD75E;" cx="55" cy="55" r="55"/>
	<g style="display:inline;">
		<g>
			<path style="fill:#FFE9A1;" d="M43.014,55.034c2.818,2.111,5.637,3.472,8.454,4.095l-3.261-32.295
				c-0.111-1.103-1.101-1.906-2.203-1.788l-3.978,0.427c-1.093,0.118-1.887,1.096-1.776,2.19L43.014,55.034z"/>
		</g>
		<g>
			<path style="fill:#FFE9A1;" d="M67.142,54.921l3.089-26.985c0.126-1.101-0.67-2.097-1.774-2.215l-3.977-0.428
				c-1.093-0.118-2.075,0.669-2.2,1.761l-3.67,32.06C61.453,58.474,64.297,57.079,67.142,54.921z"/>
		</g>
		<g>
			<path style="fill:#FFF5D9;" d="M36.57,51.528h2.435c2.976,2.976,5.952,5.12,8.929,6.435l-7.776-18.59
				c-0.427-1.019-1.599-1.5-2.617-1.073l-3.69,1.543c-1.019,0.426-1.499,1.598-1.073,2.617L36.57,51.528z"/>
		</g>
		<g>
			<path style="fill:#FFF5D9;" d="M59.005,59.028V34.653c0-1.104-0.896-2-2-2h-4c-1.104,0-2,0.896-2,2v24.375
				C53.672,59.694,56.338,59.694,59.005,59.028z"/>
		</g>
		<g>
			<path style="fill:#FFF5D9;" d="M71.006,51.528h2.434l3.794-9.067c0.426-1.019-0.055-2.191-1.073-2.617L72.47,38.3
				c-1.019-0.426-2.19,0.054-2.617,1.073l-7.776,18.59C65.053,56.648,68.029,54.504,71.006,51.528z"/>
		</g>
		<g>
			<path style="fill:#E07000;" d="M78.948,53.999c0.306-1.259-0.649-2.471-1.943-2.471h-5.999
				c-10.668,10.667-21.334,10.667-32.001,0h-6c-1.296,0-2.249,1.214-1.943,2.471l3.943,30.529c0.296,1.064,1.018,1.959,1.997,2.472
				l36.004-0.002c0.978-0.513,1.703-1.406,1.999-2.47L78.948,53.999z"/>
		</g>
		<g>
			<path style="fill:#947615;" d="M68.049,86.998l2.956-35.47c-10.667,10.666-21.333,10.666-32,0L41.961,87
				C48.834,87,61.177,86.999,68.049,86.998z"/>
		</g>
		<g>
			<path style="fill:#FA9200;" d="M68.049,86.998l2.956-35.47c-10.667,10.666-21.333,10.666-32,0L41.961,87
				C48.834,87,61.177,86.999,68.049,86.998z"/>
		</g>
		<g>
			<path style="fill:#FFFFFF;" d="M61.755,72.028c0,3.038-2.462,5.5-5.5,5.5h-2.75c-3.038,0-5.5-2.462-5.5-5.5l0,0
				c0-3.038,2.462-5.5,5.5-5.5h2.75C59.293,66.528,61.755,68.99,61.755,72.028L61.755,72.028z"/>
		</g>
		<g>
			<path style="fill:#FFAA00;" d="M52.559,74.611v-4.9c0-0.216,0.061-0.375,0.183-0.478c0.122-0.103,0.271-0.154,0.449-0.154
				c0.243,0,0.429,0.036,0.556,0.109c0.126,0.073,0.268,0.246,0.424,0.522l0.835,1.458l0.834-1.458
				c0.157-0.276,0.298-0.45,0.425-0.522c0.127-0.073,0.312-0.109,0.555-0.109c0.179,0,0.328,0.051,0.45,0.154
				c0.121,0.103,0.183,0.262,0.183,0.478v4.9c0,0.125-0.062,0.22-0.188,0.288C57.141,74.966,56.992,75,56.818,75
				c-0.173,0-0.32-0.034-0.445-0.101c-0.124-0.067-0.187-0.163-0.187-0.288v-3.037l-0.776,1.328
				c-0.092,0.157-0.233,0.235-0.422,0.235c-0.184,0-0.315-0.078-0.396-0.235l-0.77-1.409v3.118c0,0.125-0.062,0.22-0.186,0.288
				C53.512,74.966,53.363,75,53.19,75c-0.173,0-0.321-0.034-0.445-0.101C52.621,74.831,52.559,74.736,52.559,74.611z"/>
		</g>
	</g>
</g>
</svg>
