<?xml version="1.0" encoding="iso-8859-1"?>
<!-- Generator: Adobe Illustrator 17.1.0, SVG Export Plug-In . SVG Version: 6.00 Build 0)  -->
<!DOCTYPE svg PUBLIC "-//W3C//DTD SVG 1.0//EN" "http://www.w3.org/TR/2001/REC-SVG-20010904/DTD/svg10.dtd">
<svg version="1.0" xmlns="http://www.w3.org/2000/svg" xmlns:xlink="http://www.w3.org/1999/xlink" x="0px" y="0px" width="110px"
	 height="110px" viewBox="0 0 110 110" style="enable-background:new 0 0 110 110;" xml:space="preserve">
<g id="Artboard" style="display:none;">
	
		<rect x="-328.5" y="-802.5" style="display:inline;fill:#808080;stroke:#000000;stroke-miterlimit:10;" width="1392" height="1369"/>
</g>
<g id="R-Multicolor">
	<circle style="fill:#32BEA6;" cx="55" cy="55" r="55"/>
	<g>
		<g>
			<circle style="fill:#FFFFFF;" cx="55" cy="55" r="32"/>
		</g>
		<g>
			<circle style="fill:#E2E4E5;" cx="55" cy="55" r="28"/>
		</g>
		<g>
			<path style="fill:#F0F1F1;" d="M55,27c-15.464,0-28,12.536-28,28c0,6.24,2.044,12.002,5.495,16.658l39.163-39.163
				C67.002,29.044,61.24,27,55,27z"/>
		</g>
		<g>
			<path style="fill:#FFFFFF;" d="M73,52.525c0-13.271-8.181-19.238-15.999-19.916C49.848,31.988,44,35.483,43,42.483
				c-1.414,9.899,7,10,7,16s-12,2-10,10C41.698,75.274,73,80.931,73,52.525z"/>
		</g>
		<g>
			<circle style="fill:#FACB1B;" cx="57" cy="43.483" r="6"/>
		</g>
		<g>
			<path style="fill:#FBE158;" d="M57,37.483c-3.314,0-6,2.686-6,6c0,1.483,0.541,2.838,1.432,3.885l8.453-8.453
				C59.838,38.024,58.483,37.483,57,37.483z"/>
		</g>
	</g>
</g>
<g id="Multicolor" style="display:none;">
	<g style="display:inline;">
		<g>
			<circle style="fill:#FFFFFF;" cx="55" cy="55" r="32"/>
		</g>
		<g>
			<circle style="fill:#E2E4E5;" cx="55" cy="55" r="28"/>
		</g>
		<g>
			<path style="fill:#F0F1F1;" d="M55,27c-15.464,0-28,12.536-28,28c0,6.24,2.044,12.002,5.495,16.658l39.163-39.163
				C67.002,29.044,61.24,27,55,27z"/>
		</g>
		<g>
			<path style="fill:#FFFFFF;" d="M73,52.525c0-13.271-8.181-19.238-15.999-19.916C49.848,31.988,44,35.483,43,42.483
				c-1.414,9.899,7,10,7,16s-12,2-10,10C41.698,75.274,73,80.931,73,52.525z"/>
		</g>
		<g>
			<circle style="fill:#FACB1B;" cx="57" cy="43.483" r="6"/>
		</g>
		<g>
			<path style="fill:#FBE158;" d="M57,37.483c-3.314,0-6,2.686-6,6c0,1.483,0.541,2.838,1.432,3.885l8.453-8.453
				C59.838,38.024,58.483,37.483,57,37.483z"/>
		</g>
	</g>
</g>
<g id="Blue" style="display:none;">
	<g style="display:inline;">
		<g>
			<circle style="fill:#FFFFFF;" cx="55" cy="55" r="32"/>
		</g>
		<g>
			<circle style="fill:#BBE7F2;" cx="55" cy="55" r="28"/>
		</g>
		<g>
			<path style="fill:#E1F5FA;" d="M55,27c-15.465,0-28,12.536-28,28c0,6.241,2.043,12.002,5.494,16.658l39.164-39.163
				C67.002,29.044,61.24,27,55,27z"/>
		</g>
		<g>
			<path style="fill:#FFFFFF;" d="M73,52.525c0-13.272-8.182-19.239-15.999-19.917C49.848,31.988,44,35.483,43,42.483
				c-1.414,9.9,7,10,7,16s-12,2-10,10C41.697,75.274,73,80.931,73,52.525z"/>
		</g>
		<g>
			<circle style="fill:#0081A1;" cx="57" cy="43.483" r="6"/>
		</g>
		<g>
			<path style="fill:#009FC7;" d="M57,37.483c-3.313,0-6,2.687-6,6c0,1.483,0.541,2.838,1.433,3.885l8.452-8.452
				C59.838,38.024,58.482,37.483,57,37.483z"/>
		</g>
	</g>
</g>
<g id="R-Blue" style="display:none;">
	<circle style="display:inline;fill:#81D2EB;" cx="55" cy="55" r="55"/>
	<g style="display:inline;">
		<g>
			<circle style="fill:#FFFFFF;" cx="55" cy="55" r="32"/>
		</g>
		<g>
			<circle style="fill:#BBE7F2;" cx="55" cy="55" r="28"/>
		</g>
		<g>
			<path style="fill:#E1F5FA;" d="M55,27c-15.465,0-28,12.536-28,28c0,6.241,2.043,12.002,5.494,16.658l39.164-39.163
				C67.002,29.043,61.24,27,55,27z"/>
		</g>
		<g>
			<path style="fill:#FFFFFF;" d="M73,52.525c0-13.272-8.182-19.239-15.999-19.917C49.848,31.988,44,35.483,43,42.483
				c-1.414,9.9,7,10,7,16s-12,2-10,10C41.697,75.274,73,80.931,73,52.525z"/>
		</g>
		<g>
			<circle style="fill:#0081A1;" cx="57" cy="43.483" r="6"/>
		</g>
		<g>
			<path style="fill:#009FC7;" d="M57,37.483c-3.313,0-6,2.687-6,6c0,1.483,0.541,2.838,1.433,3.885l8.452-8.452
				C59.838,38.024,58.482,37.483,57,37.483z"/>
		</g>
	</g>
</g>
<g id="Green" style="display:none;">
	<g style="display:inline;">
		<g>
			<circle style="fill:#FFFFFF;" cx="55" cy="55" r="32"/>
		</g>
		<g>
			<circle style="fill:#AAF0E9;" cx="55" cy="55" r="28"/>
		</g>
		<g>
			<path style="fill:#D7FCF9;" d="M55,27c-15.465,0-28,12.536-28,28c0,6.241,2.043,12.002,5.494,16.658l39.164-39.163
				C67.002,29.044,61.24,27,55,27z"/>
		</g>
		<g>
			<path style="fill:#FFFFFF;" d="M73,52.525c0-13.271-8.182-19.239-15.999-19.917C49.848,31.988,44,35.483,43,42.483
				c-1.414,9.9,7,10,7,16s-12,2-10,10C41.697,75.274,73,80.931,73,52.525z"/>
		</g>
		<g>
			<circle style="fill:#009687;" cx="57" cy="43.483" r="6"/>
		</g>
		<g>
			<path style="fill:#00B8A5;" d="M57,37.483c-3.313,0-6,2.687-6,6c0,1.483,0.541,2.838,1.433,3.885l8.452-8.452
				C59.838,38.024,58.482,37.483,57,37.483z"/>
		</g>
	</g>
</g>
<g id="R-Green" style="display:none;">
	<circle style="display:inline;fill:#77E0C4;" cx="55" cy="55" r="55"/>
	<g style="display:inline;">
		<g>
			<circle style="fill:#FFFFFF;" cx="55" cy="55" r="32"/>
		</g>
		<g>
			<circle style="fill:#AAF0E9;" cx="55" cy="55" r="28"/>
		</g>
		<g>
			<path style="fill:#D7FCF9;" d="M55,27c-15.465,0-28,12.536-28,28c0,6.241,2.043,12.002,5.494,16.658l39.164-39.163
				C67.002,29.044,61.24,27,55,27z"/>
		</g>
		<g>
			<path style="fill:#FFFFFF;" d="M73,52.525c0-13.272-8.182-19.239-15.999-19.917C49.848,31.988,44,35.483,43,42.483
				c-1.414,9.9,7,10,7,16s-12,2-10,10C41.697,75.274,73,80.931,73,52.525z"/>
		</g>
		<g>
			<circle style="fill:#009687;" cx="57" cy="43.483" r="6"/>
		</g>
		<g>
			<path style="fill:#00B8A5;" d="M57,37.483c-3.313,0-6,2.687-6,6c0,1.483,0.541,2.838,1.433,3.885l8.452-8.452
				C59.838,38.024,58.482,37.483,57,37.483z"/>
		</g>
	</g>
</g>
<g id="Red" style="display:none;">
	<g style="display:inline;">
		<g>
			<circle style="fill:#FFFFFF;" cx="55" cy="55" r="32"/>
		</g>
		<g>
			<circle style="fill:#FFD7D4;" cx="55" cy="55" r="28"/>
		</g>
		<g>
			<path style="fill:#FFEFED;" d="M55,27c-15.465,0-28,12.536-28,28c0,6.241,2.043,12.002,5.494,16.658l39.164-39.163
				C67.002,29.044,61.24,27,55,27z"/>
		</g>
		<g>
			<path style="fill:#FFFFFF;" d="M73,52.525c0-13.271-8.182-19.239-15.999-19.917C49.848,31.988,44,35.483,43,42.483
				c-1.414,9.9,7,10,7,16s-12,2-10,10C41.697,75.274,73,80.931,73,52.525z"/>
		</g>
		<g>
			<circle style="fill:#C23023;" cx="57" cy="43.483" r="6"/>
		</g>
		<g>
			<path style="fill:#E54B44;" d="M57,37.483c-3.314,0-6,2.687-6,6c0,1.483,0.541,2.838,1.433,3.885l8.452-8.452
				C59.838,38.024,58.482,37.483,57,37.483z"/>
		</g>
	</g>
</g>
<g id="R-Red" style="display:none;">
	<circle style="display:inline;fill:#FABBAF;" cx="55" cy="55" r="55"/>
	<g style="display:inline;">
		<g>
			<circle style="fill:#FFFFFF;" cx="55" cy="55" r="32"/>
		</g>
		<g>
			<circle style="fill:#FFD7D4;" cx="55" cy="55" r="28"/>
		</g>
		<g>
			<path style="fill:#FFEFED;" d="M55,27c-15.465,0-28,12.536-28,28c0,6.241,2.043,12.002,5.494,16.658l39.164-39.163
				C67.002,29.044,61.24,27,55,27z"/>
		</g>
		<g>
			<path style="fill:#FFFFFF;" d="M73,52.525c0-13.271-8.182-19.239-15.999-19.917C49.848,31.988,44,35.483,43,42.483
				c-1.414,9.9,7,10,7,16s-12,2-10,10C41.697,75.274,73,80.931,73,52.525z"/>
		</g>
		<g>
			<circle style="fill:#C23023;" cx="57" cy="43.483" r="6"/>
		</g>
		<g>
			<path style="fill:#E54B44;" d="M57,37.483c-3.314,0-6,2.687-6,6c0,1.483,0.541,2.838,1.433,3.885l8.452-8.452
				C59.838,38.024,58.482,37.483,57,37.483z"/>
		</g>
	</g>
</g>
<g id="Yellow" style="display:none;">
	<g style="display:inline;">
		<g>
			<circle style="fill:#FFFFFF;" cx="55" cy="55" r="32"/>
		</g>
		<g>
			<circle style="fill:#FFE9A1;" cx="55" cy="55" r="28"/>
		</g>
		<g>
			<path style="fill:#FFF5D9;" d="M55,27c-15.465,0-28,12.536-28,28c0,6.241,2.043,12.002,5.494,16.658l39.164-39.163
				C67.002,29.044,61.24,27,55,27z"/>
		</g>
		<g>
			<path style="fill:#FFFFFF;" d="M73,52.525c0-13.272-8.182-19.239-15.999-19.917C49.848,31.988,44,35.483,43,42.483
				c-1.414,9.9,7,10,7,16s-12,2-10,10C41.697,75.274,73,80.931,73,52.525z"/>
		</g>
		<g>
			<circle style="fill:#E07000;" cx="57" cy="43.483" r="6"/>
		</g>
		<g>
			<path style="fill:#FA9200;" d="M57,37.483c-3.313,0-6,2.687-6,6c0,1.483,0.541,2.838,1.433,3.885l8.452-8.452
				C59.838,38.024,58.482,37.483,57,37.483z"/>
		</g>
	</g>
</g>
<g id="R-Yellow" style="display:none;">
	<circle style="display:inline;fill:#FFD75E;" cx="55" cy="55" r="55"/>
	<g style="display:inline;">
		<g>
			<circle style="fill:#FFFFFF;" cx="55" cy="55" r="32"/>
		</g>
		<g>
			<circle style="fill:#FFE9A1;" cx="55" cy="55" r="28"/>
		</g>
		<g>
			<path style="fill:#FFF5D9;" d="M55,27c-15.465,0-28,12.536-28,28c0,6.241,2.043,12.002,5.494,16.658l39.164-39.163
				C67.002,29.044,61.24,27,55,27z"/>
		</g>
		<g>
			<path style="fill:#FFFFFF;" d="M73,52.525c0-13.272-8.182-19.239-15.999-19.917C49.848,31.988,44,35.483,43,42.483
				c-1.414,9.9,7,10,7,16s-12,2-10,10C41.697,75.274,73,80.931,73,52.525z"/>
		</g>
		<g>
			<circle style="fill:#E07000;" cx="57" cy="43.483" r="6"/>
		</g>
		<g>
			<path style="fill:#FA9200;" d="M57,37.483c-3.313,0-6,2.687-6,6c0,1.483,0.541,2.838,1.433,3.885l8.452-8.452
				C59.838,38.024,58.482,37.483,57,37.483z"/>
		</g>
	</g>
</g>
</svg>
