<?xml version="1.0" encoding="iso-8859-1"?>
<!-- Generator: Adobe Illustrator 17.1.0, SVG Export Plug-In . SVG Version: 6.00 Build 0)  -->
<!DOCTYPE svg PUBLIC "-//W3C//DTD SVG 1.0//EN" "http://www.w3.org/TR/2001/REC-SVG-20010904/DTD/svg10.dtd">
<svg version="1.0" xmlns="http://www.w3.org/2000/svg" xmlns:xlink="http://www.w3.org/1999/xlink" x="0px" y="0px" width="110px"
	 height="110px" viewBox="0 0 110 110" style="enable-background:new 0 0 110 110;" xml:space="preserve">
<g id="Artboard">
</g>
<g id="Multicolor">
	<circle style="fill:#25B7D3;" cx="55" cy="55" r="55"/>
	<g>
		<circle style="fill:#FACB1B;" cx="55" cy="55" r="32"/>
		<path style="fill:#FBE158;" d="M23,55c0,17.673,14.327,32,32,32V23C37.327,23,23,37.327,23,55z"/>
		<circle style="fill:#FFFFFF;" cx="42" cy="46.5" r="9"/>
		<g>
			<path style="fill:#FA5655;" d="M65,71.5c0,2.62-1.01,5.01-2.67,6.79C61.1,75.47,58.28,73.5,55,73.5c-3.28,0-6.1,1.97-7.33,4.79
				C46.01,76.51,45,74.12,45,71.5c0-5.52,4.48-10,10-10S65,65.98,65,71.5z"/>
			<path style="fill:#F79392;" d="M62.33,78.29C60.51,80.27,57.9,81.5,55,81.5s-5.51-1.23-7.33-3.21c1.23-2.82,4.05-4.79,7.33-4.79
				C58.28,73.5,61.1,75.47,62.33,78.29z"/>
		</g>
		<circle style="fill:#059BBF;" cx="42" cy="46.5" r="3"/>
		<circle style="fill:#FFFFFF;" cx="68" cy="46.5" r="9"/>
		<circle style="fill:#059BBF;" cx="68" cy="46.5" r="3"/>
	</g>
</g>
</svg>
