<?xml version="1.0" encoding="iso-8859-1"?>
<!-- Generator: Adobe Illustrator 17.1.0, SVG Export Plug-In . SVG Version: 6.00 Build 0)  -->
<!DOCTYPE svg PUBLIC "-//W3C//DTD SVG 1.0//EN" "http://www.w3.org/TR/2001/REC-SVG-20010904/DTD/svg10.dtd">
<svg version="1.0" xmlns="http://www.w3.org/2000/svg" xmlns:xlink="http://www.w3.org/1999/xlink" x="0px" y="0px" width="110px"
	 height="110px" viewBox="0 0 110 110" style="enable-background:new 0 0 110 110;" xml:space="preserve">
<g id="Artboard">
</g>
<g id="Multicolor">
	<circle style="fill:#E04F5F;" cx="55" cy="55" r="55"/>
	<g>
		<path style="fill:#FFFFFF;" d="M79,75c0,6.627-5.373,12-12,12H33c-1.105,0-2-0.895-2-2V25c0-1.105,0.895-2,2-2h44
			c1.105,0,2,0.895,2,2V75z"/>
		<path style="fill:#E2E4E5;" d="M75,45c0,3.314-2.686,6-6,6H37c-1.105,0-2-0.895-2-2V29c0-1.105,0.895-2,2-2h36
			c1.105,0,2,0.895,2,2V45z"/>
		<circle style="fill:#FA5655;" cx="72.5" cy="64.5" r="2.5"/>
		<rect x="42" y="31" style="fill:#17B198;" width="27" height="16"/>
		<circle style="fill:#FA5655;" cx="39" cy="35" r="1"/>
		<path style="fill:#CFD3D4;" d="M53,60.667c0-0.552-0.448-1-1-1h-2.667c-0.552,0-1-0.448-1-1V56c0-0.552-0.448-1-1-1h-2.667
			c-0.552,0-1,0.448-1,1v2.667c0,0.552-0.448,1-1,1H40c-0.552,0-1,0.448-1,1v2.667c0,0.552,0.448,1,1,1h2.667c0.552,0,1,0.448,1,1
			V68c0,0.552,0.448,1,1,1h2.667c0.552,0,1-0.448,1-1v-2.667c0-0.552,0.448-1,1-1H52c0.552,0,1-0.448,1-1V60.667z"/>
		<circle style="fill:#FA5655;" cx="64.5" cy="68.5" r="2.5"/>
		<g>
			<path style="fill:#CFD3D4;" d="M50.492,79.462c-0.32-0.64-0.061-1.417,0.579-1.737l5.178-2.589c0.64-0.32,1.417-0.06,1.737,0.579
				c0.32,0.64,0.061,1.417-0.579,1.737l-5.178,2.589C51.591,80.36,50.812,80.103,50.492,79.462z"/>
		</g>
		<g>
			<path style="fill:#CFD3D4;" d="M40.137,79.462c-0.32-0.64-0.061-1.417,0.579-1.737l5.178-2.589
				c0.639-0.32,1.417-0.06,1.737,0.579c0.32,0.64,0.061,1.417-0.579,1.737l-5.178,2.589C41.236,80.36,40.457,80.103,40.137,79.462z"
				/>
		</g>
		<polygon style="fill:#4AC3AF;" points="42,31 42,47 46.163,47 62.163,31 		"/>
	</g>
</g>
</svg>
