<?xml version="1.0" encoding="iso-8859-1"?>
<!-- Generator: Adobe Illustrator 17.1.0, SVG Export Plug-In . SVG Version: 6.00 Build 0)  -->
<!DOCTYPE svg PUBLIC "-//W3C//DTD SVG 1.0//EN" "http://www.w3.org/TR/2001/REC-SVG-20010904/DTD/svg10.dtd">
<svg version="1.0" xmlns="http://www.w3.org/2000/svg" xmlns:xlink="http://www.w3.org/1999/xlink" x="0px" y="0px" width="110px"
	 height="110px" viewBox="0 0 110 110" style="enable-background:new 0 0 110 110;" xml:space="preserve">
<g id="Artboard">
</g>
<g id="Multicolor">
	<circle style="fill:#32BEA6;" cx="55" cy="55" r="55"/>
	<g>
		<path style="fill:#3E3E3F;" d="M23,70c0,1.095,0.449,2.143,1.243,2.898c9.349,8.898,52.166,8.898,61.515,0
			C86.55,72.143,87,71.095,87,70V43.938c0-2.12-1.654-3.874-3.771-3.994c-6.974-0.393-12.487-1.869-15.264-5.371
			c-0.758-0.956-1.916-1.517-3.136-1.517h-19.65c-1.256,0-2.439,0.591-3.195,1.594c-3.06,4.056-8.091,5.124-15.116,5.352
			C24.709,40.072,23,41.84,23,44V70z"/>
		<path style="fill:#5B5C5F;" d="M39,45c0-0.552,0.448-1,1-1h30c0.552,0,1,0.448,1,1v24.295c0,0.425-0.269,0.803-0.67,0.944
			c-10.514,3.681-20.146,3.681-30.66,0C39.269,70.099,39,69.72,39,69.295V45z"/>
		<rect x="43" y="48" style="fill:#17B198;" width="24" height="18"/>
		<circle style="fill:#FBE158;" cx="78.88" cy="49.547" r="2.547"/>
		<circle style="fill:#FA5655;" cx="78.88" cy="65.676" r="2.547"/>
		<circle style="fill:#F99134;" cx="78.88" cy="58.036" r="2.547"/>
		<circle style="fill:#CFD3D4;" cx="31.2" cy="66.2" r="1.8"/>
		<path style="fill:#B6BCBD;" d="M36,53.167c0-0.46-0.373-0.833-0.833-0.833H33.5c-0.46,0-0.833-0.373-0.833-0.833v-1.667
			c0-0.46-0.373-0.833-0.833-0.833h-1.667c-0.46,0-0.833,0.373-0.833,0.833V51.5c0,0.46-0.373,0.833-0.833,0.833h-1.667
			c-0.46,0-0.833,0.373-0.833,0.833v1.667c0,0.46,0.373,0.833,0.833,0.833H28.5c0.46,0,0.833,0.373,0.833,0.833v1.667
			c0,0.46,0.373,0.833,0.833,0.833h1.667c0.46,0,0.833-0.373,0.833-0.833V56.5c0-0.46,0.373-0.833,0.833-0.833h1.667
			c0.46,0,0.833-0.373,0.833-0.833V53.167z"/>
		<polygon style="fill:#4AC3AF;" points="43,48 43,66 43.168,66 61.168,48 		"/>
	</g>
</g>
</svg>
