<?xml version="1.0" encoding="iso-8859-1"?>
<!-- Generator: Adobe Illustrator 17.1.0, SVG Export Plug-In . SVG Version: 6.00 Build 0)  -->
<!DOCTYPE svg PUBLIC "-//W3C//DTD SVG 1.0//EN" "http://www.w3.org/TR/2001/REC-SVG-20010904/DTD/svg10.dtd">
<svg version="1.0" xmlns="http://www.w3.org/2000/svg" xmlns:xlink="http://www.w3.org/1999/xlink" x="0px" y="0px" width="110px"
	 height="110px" viewBox="0 0 110 110" style="enable-background:new 0 0 110 110;" xml:space="preserve">
<g id="Artboard">
</g>
<g id="Multicolor">
	<circle style="fill:#25B7D3;" cx="55" cy="55" r="55"/>
	<g>
		<g>
			<path style="fill:#F0F1F1;" d="M70.905,23c-12.609,5.516-12.797,27.453-12.311,34.809c0.045,0.674,0.427,1.281,1.016,1.612
				c0.589,0.331,1.246,0.178,1.905,0.028C67.905,58,73.905,58,80.295,59.45c0.659,0.15,1.316,0.302,1.905-0.03
				s0.97-0.938,1.015-1.612C83.702,50.451,83.513,28.516,70.905,23z"/>
		</g>
		<g>
			<path style="fill:#FFFFFF;" d="M58.594,57.809c0.044,0.675,0.427,1.281,1.016,1.612c0.589,0.331,1.246,0.178,1.905,0.029
				c3.195-0.725,6.292-1.087,9.39-1.087V23C58.296,28.517,58.108,50.453,58.594,57.809z"/>
		</g>
		<g>
			<path style="fill:#84462D;" d="M45,85c0,1.105-0.895,2-2,2h-8c-1.105,0-2-0.895-2-2V65c0-1.105,0.895-2,2-2h8
				c1.105,0,2,0.895,2,2V85z"/>
		</g>
		<g>
			<path style="fill:#84462D;" d="M76.905,85c0,1.105-0.895,2-2,2h-8c-1.105,0-2-0.895-2-2V65c0-1.105,0.895-2,2-2h8
				c1.105,0,2,0.895,2,2V85z"/>
		</g>
		<g>
			<path style="fill:#F0F1F1;" d="M49,23c-1.105,0-2,0.895-2,2v14.5c0,1.381-1.119,2.5-2.5,2.5S42,40.881,42,39.5v-14
				c0-1.381-1.119-2.5-2.5-2.5S37,24.119,37,25.5v14c0,1.381-1.119,2.5-2.5,2.5S32,40.881,32,39.5v-14c0-1.381-1.119-2.5-2.5-2.5
				S27,24.119,27,25.5V41c0,5.185,3.947,9.448,9,9.949V63h6V50.949c5.053-0.502,9-4.764,9-9.949V25C51,23.895,50.105,23,49,23z"/>
		</g>
		<g>
			<path style="fill:#CFD3D4;" d="M67.905,45.364c0,0,2.069-11.154,2.081-11.219c0.158-0.368,0.519-0.606,0.919-0.606
				c0.4,0,0.762,0.238,0.919,0.606c0.012,0.065,2.081,11.219,2.081,11.219V63h-6V45.364z"/>
		</g>
		<g>
			<path style="fill:#9C6144;" d="M70.905,63h-4c-1.104,0-2,0.896-2,2v20c0,1.104,0.896,2,2,2h4V63z"/>
		</g>
		<g>
			<path style="fill:#FFFFFF;" d="M39,63V23.05c-1.141,0.232-2,1.24-2,2.45v14c0,1.381-1.119,2.5-2.5,2.5S32,40.881,32,39.5v-14
				c0-1.381-1.119-2.5-2.5-2.5S27,24.119,27,25.5V41c0,5.186,3.947,9.448,9,9.949V63H39z"/>
		</g>
		<g>
			<path style="fill:#9C6144;" d="M39,63h-4c-1.104,0-2,0.896-2,2v20c0,1.104,0.896,2,2,2h4V63z"/>
		</g>
	</g>
</g>
</svg>
