<?xml version="1.0" encoding="iso-8859-1"?>
<!-- Generator: Adobe Illustrator 17.1.0, SVG Export Plug-In . SVG Version: 6.00 Build 0)  -->
<!DOCTYPE svg PUBLIC "-//W3C//DTD SVG 1.0//EN" "http://www.w3.org/TR/2001/REC-SVG-20010904/DTD/svg10.dtd">
<svg version="1.0" xmlns="http://www.w3.org/2000/svg" xmlns:xlink="http://www.w3.org/1999/xlink" x="0px" y="0px" width="110px"
	 height="110px" viewBox="0 0 110 110" style="enable-background:new 0 0 110 110;" xml:space="preserve">
<g id="Artboard" style="display:none;">
	
		<rect x="-712.5" y="-1058.5" style="display:inline;fill:#808080;stroke:#000000;stroke-miterlimit:10;" width="1392" height="1369"/>
</g>
<g id="R-Multicolor">
	<circle style="fill:#E04F5F;" cx="55" cy="55" r="55"/>
	<g>
		<g>
			<path style="fill:#3E3E3F;" d="M87,83c0,2.209-1.791,4-4,4H27c-2.209,0-4-1.791-4-4V55c0-2.209,1.791-4,4-4h56
				c2.209,0,4,1.791,4,4V83z"/>
		</g>
		<g>
			<path style="fill:#5B5C5F;" d="M53.844,51H27c-2.209,0-4,1.791-4,4v26.844L53.844,51z"/>
		</g>
		<g>
			<rect x="31" y="67" style="fill:#90E3F4;" width="48" height="20"/>
		</g>
		<g>
			<polygon style="fill:#B3EBF7;" points="37.844,67 31,67 31,73.844 			"/>
		</g>
		<g>
			<path style="fill:#FFFFFF;" d="M36,75c0,1.105,0.895,2,2,2h34c1.105,0,2-0.895,2-2s-0.895-2-2-2H38C36.895,73,36,73.895,36,75z"
				/>
		</g>
		<g>
			<circle style="fill:#B6BCBD;" cx="69" cy="59" r="4"/>
		</g>
		<g>
			<path style="fill:#E2E4E5;" d="M70,62h-2v-7c0-0.552,0.448-1,1-1s1,0.448,1,1V62z"/>
		</g>
		<g>
			<circle style="fill:#B6BCBD;" cx="41" cy="59" r="4"/>
		</g>
		<g>
			<path style="fill:#E2E4E5;" d="M42,62h-2v-7c0-0.552,0.448-1,1-1s1,0.448,1,1V62z"/>
		</g>
		<g>
			<path style="fill:#CFD3D4;" d="M79,49c0-1.105-0.895-2-2-2H61c-1.105,0-2,0.895-2,2v2h20V49z"/>
		</g>
		<g>
			<path style="fill:#CFD3D4;" d="M51,49c0-1.105-0.895-2-2-2H33c-1.105,0-2,0.895-2,2v2h20V49z"/>
		</g>
		<g>
			<path style="fill:#FBEC9A;" d="M40.809,47C36.496,47,33,43.748,33,39.435s6.182-9.314,5.206-13.259
				c6.304,2.481,5.857,11.28,5.857,11.28s1.898-1.139,1.627-4.826C51.684,38.623,47.651,47,40.809,47z"/>
		</g>
		<g>
			<path style="fill:#F99134;" d="M40.809,47c-5.959-1.566-0.465-7.238-1.22-10.005C43.842,40.122,46.015,46.044,40.809,47z"/>
		</g>
		<g>
			<path style="fill:#FBEC9A;" d="M69.199,47c-4.313,0-7.809-3.252-7.809-7.565s6.182-9.314,5.206-13.259
				c6.304,2.481,5.857,11.28,5.857,11.28s1.898-1.139,1.627-4.826C80.074,38.623,76.041,47,69.199,47z"/>
		</g>
		<g>
			<path style="fill:#F99134;" d="M69.199,47c-5.959-1.566-0.465-7.238-1.22-10.005C72.232,40.122,74.405,46.044,69.199,47z"/>
		</g>
		<g>
			<path style="fill:#E2E4E5;" d="M41,47h-8c-1.104,0-2,0.896-2,2v2h10V47z"/>
		</g>
		<g>
			<path style="fill:#E2E4E5;" d="M69,47h-8c-1.104,0-2,0.896-2,2v2h10V47z"/>
		</g>
	</g>
</g>
<g id="Multicolor" style="display:none;">
	<g style="display:inline;">
		<g>
			<path style="fill:#3E3E3F;" d="M87,83c0,2.209-1.791,4-4,4H27c-2.209,0-4-1.791-4-4V55c0-2.209,1.791-4,4-4h56
				c2.209,0,4,1.791,4,4V83z"/>
		</g>
		<g>
			<path style="fill:#5B5C5F;" d="M53.844,51H27c-2.209,0-4,1.791-4,4v26.844L53.844,51z"/>
		</g>
		<g>
			<rect x="31" y="67" style="fill:#90E3F4;" width="48" height="20"/>
		</g>
		<g>
			<polygon style="fill:#B3EBF7;" points="37.844,67 31,67 31,73.844 			"/>
		</g>
		<g>
			<path style="fill:#FFFFFF;" d="M36,75c0,1.105,0.895,2,2,2h34c1.105,0,2-0.895,2-2s-0.895-2-2-2H38C36.895,73,36,73.895,36,75z"
				/>
		</g>
		<g>
			<circle style="fill:#B6BCBD;" cx="69" cy="59" r="4"/>
		</g>
		<g>
			<path style="fill:#E2E4E5;" d="M70,62h-2v-7c0-0.552,0.448-1,1-1s1,0.448,1,1V62z"/>
		</g>
		<g>
			<circle style="fill:#B6BCBD;" cx="41" cy="59" r="4"/>
		</g>
		<g>
			<path style="fill:#E2E4E5;" d="M42,62h-2v-7c0-0.552,0.448-1,1-1s1,0.448,1,1V62z"/>
		</g>
		<g>
			<path style="fill:#CFD3D4;" d="M79,49c0-1.105-0.895-2-2-2H61c-1.105,0-2,0.895-2,2v2h20V49z"/>
		</g>
		<g>
			<path style="fill:#CFD3D4;" d="M51,49c0-1.105-0.895-2-2-2H33c-1.105,0-2,0.895-2,2v2h20V49z"/>
		</g>
		<g>
			<path style="fill:#FBEC9A;" d="M40.809,47C36.496,47,33,43.748,33,39.435s6.182-9.314,5.206-13.259
				c6.304,2.481,5.857,11.28,5.857,11.28s1.898-1.139,1.627-4.826C51.684,38.623,47.651,47,40.809,47z"/>
		</g>
		<g>
			<path style="fill:#F99134;" d="M40.809,47c-5.959-1.566-0.465-7.238-1.22-10.005C43.842,40.122,46.015,46.044,40.809,47z"/>
		</g>
		<g>
			<path style="fill:#FBEC9A;" d="M69.199,47c-4.313,0-7.809-3.252-7.809-7.565s6.182-9.314,5.206-13.259
				c6.304,2.481,5.857,11.28,5.857,11.28s1.898-1.139,1.627-4.826C80.074,38.623,76.041,47,69.199,47z"/>
		</g>
		<g>
			<path style="fill:#F99134;" d="M69.199,47c-5.959-1.566-0.465-7.238-1.22-10.005C72.232,40.122,74.405,46.044,69.199,47z"/>
		</g>
		<g>
			<path style="fill:#E2E4E5;" d="M41,47h-8c-1.104,0-2,0.896-2,2v2h10V47z"/>
		</g>
		<g>
			<path style="fill:#E2E4E5;" d="M69,47h-8c-1.104,0-2,0.896-2,2v2h10V47z"/>
		</g>
	</g>
</g>
<g id="Blue" style="display:none;">
	<g style="display:inline;">
		<g>
			<path style="fill:#0C333D;" d="M87,83c0,2.209-1.791,4-4,4H27c-2.209,0-4-1.791-4-4V55c0-2.209,1.791-4,4-4h56
				c2.209,0,4,1.791,4,4V83z"/>
		</g>
		<g>
			<path style="fill:#0F6175;" d="M53.844,51H27c-2.209,0-4,1.791-4,4v26.844L53.844,51z"/>
		</g>
		<g>
			<rect x="31" y="67" style="fill:#3BB5D4;" width="48" height="20"/>
		</g>
		<g>
			<polygon style="fill:#3BC8EB;" points="37.844,67 31,67 31,73.844 			"/>
		</g>
		<g>
			<path style="fill:#FFFFFF;" d="M36,75c0,1.104,0.896,2,2,2h34c1.104,0,2-0.896,2-2s-0.896-2-2-2H38C36.896,73,36,73.896,36,75z"
				/>
		</g>
		<g>
			<circle style="fill:#53BAD4;" cx="69" cy="59" r="4"/>
		</g>
		<g>
			<path style="fill:#BBE7F2;" d="M70,62h-2v-7c0-0.552,0.447-1,1-1c0.553,0,1,0.448,1,1V62z"/>
		</g>
		<g>
			<circle style="fill:#53BAD4;" cx="41" cy="59" r="4"/>
		</g>
		<g>
			<path style="fill:#BBE7F2;" d="M42,62h-2v-7c0-0.552,0.447-1,1-1s1,0.448,1,1V62z"/>
		</g>
		<g>
			<path style="fill:#BBE7F2;" d="M79,49c0-1.104-0.896-2-2-2H61c-1.104,0-2,0.896-2,2v2h20V49z"/>
		</g>
		<g>
			<path style="fill:#BBE7F2;" d="M51,49c0-1.104-0.896-2-2-2H33c-1.104,0-2,0.896-2,2v2h20V49z"/>
		</g>
		<g>
			<path style="fill:#FFFFFF;" d="M40.809,47C36.496,47,33,43.748,33,39.435c0-4.313,6.182-9.315,5.206-13.259
				c6.304,2.481,5.856,11.28,5.856,11.28s1.898-1.139,1.627-4.826C51.684,38.624,47.65,47,40.809,47z"/>
		</g>
		<g>
			<path style="fill:#00B7E5;" d="M40.809,47c-5.958-1.566-0.465-7.237-1.22-10.005C43.842,40.122,46.016,46.044,40.809,47z"/>
		</g>
		<g>
			<path style="fill:#FFFFFF;" d="M69.199,47c-4.312,0-7.81-3.252-7.81-7.565c0-4.313,6.183-9.315,5.206-13.259
				c6.305,2.481,5.857,11.28,5.857,11.28s1.897-1.139,1.627-4.826C80.074,38.624,76.041,47,69.199,47z"/>
		</g>
		<g>
			<path style="fill:#00B7E5;" d="M69.199,47c-5.959-1.566-0.466-7.237-1.221-10.005C72.232,40.122,74.405,46.044,69.199,47z"/>
		</g>
		<g>
			<path style="fill:#E1F5FA;" d="M41,47h-8c-1.104,0-2,0.896-2,2v2h10V47z"/>
		</g>
		<g>
			<path style="fill:#E1F5FA;" d="M69,47h-8c-1.104,0-2,0.896-2,2v2h10V47z"/>
		</g>
	</g>
</g>
<g id="R-Blue" style="display:none;">
	<circle style="display:inline;fill:#81D2EB;" cx="55" cy="55" r="55"/>
	<g style="display:inline;">
		<g>
			<path style="fill:#0C333D;" d="M87,83c0,2.209-1.791,4-4,4H27c-2.209,0-4-1.791-4-4V55c0-2.209,1.791-4,4-4h56
				c2.209,0,4,1.791,4,4V83z"/>
		</g>
		<g>
			<path style="fill:#0F6175;" d="M53.844,51H27c-2.209,0-4,1.791-4,4v26.844L53.844,51z"/>
		</g>
		<g>
			<rect x="31" y="67" style="fill:#3BB5D4;" width="48" height="20"/>
		</g>
		<g>
			<polygon style="fill:#3BC8EB;" points="37.844,67 31,67 31,73.844 			"/>
		</g>
		<g>
			<path style="fill:#FFFFFF;" d="M36,75c0,1.104,0.896,2,2,2h34c1.104,0,2-0.896,2-2s-0.896-2-2-2H38C36.896,73,36,73.896,36,75z"
				/>
		</g>
		<g>
			<circle style="fill:#53BAD4;" cx="69" cy="59" r="4"/>
		</g>
		<g>
			<path style="fill:#BBE7F2;" d="M70,62h-2v-7c0-0.552,0.447-1,1-1c0.553,0,1,0.448,1,1V62z"/>
		</g>
		<g>
			<circle style="fill:#53BAD4;" cx="41" cy="59" r="4"/>
		</g>
		<g>
			<path style="fill:#BBE7F2;" d="M42,62h-2v-7c0-0.552,0.447-1,1-1s1,0.448,1,1V62z"/>
		</g>
		<g>
			<path style="fill:#BBE7F2;" d="M79,49c0-1.104-0.896-2-2-2H61c-1.104,0-2,0.896-2,2v2h20V49z"/>
		</g>
		<g>
			<path style="fill:#BBE7F2;" d="M51,49c0-1.104-0.896-2-2-2H33c-1.104,0-2,0.896-2,2v2h20V49z"/>
		</g>
		<g>
			<path style="fill:#FFFFFF;" d="M40.809,47C36.496,47,33,43.748,33,39.435c0-4.313,6.182-9.315,5.206-13.259
				c6.304,2.481,5.856,11.28,5.856,11.28s1.898-1.139,1.627-4.826C51.684,38.623,47.65,47,40.809,47z"/>
		</g>
		<g>
			<path style="fill:#00B7E5;" d="M40.809,47c-5.958-1.566-0.465-7.237-1.22-10.005C43.842,40.122,46.016,46.044,40.809,47z"/>
		</g>
		<g>
			<path style="fill:#FFFFFF;" d="M69.199,47c-4.312,0-7.81-3.252-7.81-7.565c0-4.313,6.183-9.315,5.206-13.259
				c6.305,2.481,5.857,11.28,5.857,11.28s1.897-1.139,1.627-4.826C80.074,38.623,76.041,47,69.199,47z"/>
		</g>
		<g>
			<path style="fill:#00B7E5;" d="M69.199,47c-5.959-1.566-0.466-7.237-1.221-10.005C72.232,40.122,74.405,46.044,69.199,47z"/>
		</g>
		<g>
			<path style="fill:#E1F5FA;" d="M41,47h-8c-1.104,0-2,0.896-2,2v2h10V47z"/>
		</g>
		<g>
			<path style="fill:#E1F5FA;" d="M69,47h-8c-1.104,0-2,0.896-2,2v2h10V47z"/>
		</g>
	</g>
</g>
<g id="Green" style="display:none;">
	<g style="display:inline;">
		<g>
			<path style="fill:#0A3631;" d="M87,83c0,2.209-1.791,4-4,4H27c-2.209,0-4-1.791-4-4V55c0-2.209,1.791-4,4-4h56
				c2.209,0,4,1.791,4,4V83z"/>
		</g>
		<g>
			<path style="fill:#14635B;" d="M53.844,51H27c-2.209,0-4,1.791-4,4v26.844L53.844,51z"/>
		</g>
		<g>
			<rect x="31" y="67" style="fill:#3BC8BA;" width="48" height="20"/>
		</g>
		<g>
			<polygon style="fill:#3BE0CF;" points="37.844,67 31,67 31,73.844 			"/>
		</g>
		<g>
			<path style="fill:#FFFFFF;" d="M36,75c0,1.104,0.896,2,2,2h34c1.104,0,2-0.896,2-2s-0.896-2-2-2H38C36.895,73,36,73.896,36,75z"
				/>
		</g>
		<g>
			<circle style="fill:#55C9BE;" cx="69" cy="59" r="4"/>
		</g>
		<g>
			<path style="fill:#AAF0E9;" d="M70,62h-2v-7c0-0.552,0.447-1,1-1c0.553,0,1,0.448,1,1V62z"/>
		</g>
		<g>
			<circle style="fill:#55C9BE;" cx="41" cy="59" r="4"/>
		</g>
		<g>
			<path style="fill:#AAF0E9;" d="M42,62h-2v-7c0-0.552,0.447-1,1-1s1,0.448,1,1V62z"/>
		</g>
		<g>
			<path style="fill:#AAF0E9;" d="M79,49c0-1.104-0.896-2-2-2H61c-1.104,0-2,0.896-2,2v2h20V49z"/>
		</g>
		<g>
			<path style="fill:#AAF0E9;" d="M51,49c0-1.104-0.896-2-2-2H33c-1.104,0-2,0.896-2,2v2h20V49z"/>
		</g>
		<g>
			<path style="fill:#FFFFFF;" d="M40.809,47C36.496,47,33,43.748,33,39.435c0-4.313,6.182-9.315,5.206-13.259
				c6.304,2.481,5.856,11.28,5.856,11.28s1.898-1.139,1.627-4.826C51.684,38.624,47.65,47,40.809,47z"/>
		</g>
		<g>
			<path style="fill:#00D6C1;" d="M40.809,47c-5.958-1.566-0.465-7.237-1.22-10.005C43.842,40.122,46.016,46.044,40.809,47z"/>
		</g>
		<g>
			<path style="fill:#FFFFFF;" d="M69.199,47c-4.312,0-7.81-3.252-7.81-7.565c0-4.313,6.183-9.315,5.206-13.259
				c6.305,2.481,5.857,11.28,5.857,11.28s1.897-1.139,1.627-4.826C80.074,38.624,76.041,47,69.199,47z"/>
		</g>
		<g>
			<path style="fill:#00D6C1;" d="M69.199,47c-5.959-1.566-0.466-7.237-1.221-10.005C72.232,40.122,74.405,46.044,69.199,47z"/>
		</g>
		<g>
			<path style="fill:#D7FCF9;" d="M41,47h-8c-1.104,0-2,0.896-2,2v2h10V47z"/>
		</g>
		<g>
			<path style="fill:#D7FCF9;" d="M69,47h-8c-1.104,0-2,0.896-2,2v2h10V47z"/>
		</g>
	</g>
</g>
<g id="R-Green" style="display:none;">
	<circle style="display:inline;fill:#77E0C4;" cx="55" cy="55" r="55"/>
	<g style="display:inline;">
		<g>
			<path style="fill:#0A3631;" d="M87,83c0,2.209-1.791,4-4,4H27c-2.209,0-4-1.791-4-4V55c0-2.209,1.791-4,4-4h56
				c2.209,0,4,1.791,4,4V83z"/>
		</g>
		<g>
			<path style="fill:#14635B;" d="M53.844,51H27c-2.209,0-4,1.791-4,4v26.844L53.844,51z"/>
		</g>
		<g>
			<rect x="31" y="67" style="fill:#3BC8BA;" width="48" height="20"/>
		</g>
		<g>
			<polygon style="fill:#3BE0CF;" points="37.844,67 31,67 31,73.844 			"/>
		</g>
		<g>
			<path style="fill:#FFFFFF;" d="M36,75c0,1.104,0.896,2,2,2h34c1.104,0,2-0.896,2-2s-0.896-2-2-2H38C36.896,73,36,73.896,36,75z"
				/>
		</g>
		<g>
			<circle style="fill:#55C9BE;" cx="69" cy="59" r="4"/>
		</g>
		<g>
			<path style="fill:#AAF0E9;" d="M70,62h-2v-7c0-0.552,0.447-1,1-1s1,0.448,1,1V62z"/>
		</g>
		<g>
			<circle style="fill:#55C9BE;" cx="41" cy="59" r="4"/>
		</g>
		<g>
			<path style="fill:#AAF0E9;" d="M42,62h-2v-7c0-0.552,0.447-1,1-1s1,0.448,1,1V62z"/>
		</g>
		<g>
			<path style="fill:#AAF0E9;" d="M79,49c0-1.104-0.896-2-2-2H61c-1.104,0-2,0.896-2,2v2h20V49z"/>
		</g>
		<g>
			<path style="fill:#AAF0E9;" d="M51,49c0-1.104-0.896-2-2-2H33c-1.104,0-2,0.896-2,2v2h20V49z"/>
		</g>
		<g>
			<path style="fill:#FFFFFF;" d="M40.809,47C36.496,47,33,43.748,33,39.435c0-4.313,6.182-9.315,5.206-13.259
				c6.304,2.481,5.856,11.28,5.856,11.28s1.898-1.139,1.627-4.826C51.684,38.624,47.65,47,40.809,47z"/>
		</g>
		<g>
			<path style="fill:#00D6C1;" d="M40.809,47c-5.958-1.566-0.465-7.237-1.22-10.005C43.842,40.122,46.016,46.044,40.809,47z"/>
		</g>
		<g>
			<path style="fill:#FFFFFF;" d="M69.199,47c-4.312,0-7.81-3.252-7.81-7.565c0-4.313,6.183-9.315,5.206-13.259
				c6.305,2.481,5.857,11.28,5.857,11.28s1.897-1.139,1.627-4.826C80.074,38.624,76.041,47,69.199,47z"/>
		</g>
		<g>
			<path style="fill:#00D6C1;" d="M69.199,47c-5.959-1.566-0.466-7.237-1.221-10.005C72.232,40.122,74.405,46.044,69.199,47z"/>
		</g>
		<g>
			<path style="fill:#D7FCF9;" d="M41,47h-8c-1.104,0-2,0.896-2,2v2h10V47z"/>
		</g>
		<g>
			<path style="fill:#D7FCF9;" d="M69,47h-8c-1.104,0-2,0.896-2,2v2h10V47z"/>
		</g>
	</g>
</g>
<g id="Red" style="display:none;">
	<g style="display:inline;">
		<g>
			<path style="fill:#4A1410;" d="M87,83c0,2.209-1.791,4-4,4H27c-2.209,0-4-1.791-4-4V55c0-2.209,1.791-4,4-4h56
				c2.209,0,4,1.791,4,4V83z"/>
		</g>
		<g>
			<path style="fill:#7D261E;" d="M53.844,51H27c-2.209,0-4,1.791-4,4v26.844L53.844,51z"/>
		</g>
		<g>
			<rect x="31" y="67" style="fill:#EB756F;" width="48" height="20"/>
		</g>
		<g>
			<polygon style="fill:#FF8E83;" points="37.844,67 31,67 31,73.844 			"/>
		</g>
		<g>
			<path style="fill:#FFFFFF;" d="M36,75c0,1.104,0.896,2,2,2h34c1.104,0,2-0.896,2-2s-0.896-2-2-2H38C36.896,73,36,73.896,36,75z"
				/>
		</g>
		<g>
			<circle style="fill:#E8A099;" cx="69" cy="59" r="4"/>
		</g>
		<g>
			<path style="fill:#FFD7D4;" d="M70,62h-2v-7c0-0.552,0.447-1,1-1c0.553,0,1,0.448,1,1V62z"/>
		</g>
		<g>
			<circle style="fill:#E8A099;" cx="41" cy="59" r="4"/>
		</g>
		<g>
			<path style="fill:#FFD7D4;" d="M42,62h-2v-7c0-0.552,0.447-1,1-1c0.553,0,1,0.448,1,1V62z"/>
		</g>
		<g>
			<path style="fill:#FFD7D4;" d="M79,49c0-1.104-0.896-2-2-2H61c-1.104,0-2,0.896-2,2v2h20V49z"/>
		</g>
		<g>
			<path style="fill:#FFD7D4;" d="M51,49c0-1.104-0.896-2-2-2H33c-1.104,0-2,0.896-2,2v2h20V49z"/>
		</g>
		<g>
			<path style="fill:#FFFFFF;" d="M40.809,47C36.496,47,33,43.748,33,39.435c0-4.313,6.182-9.315,5.206-13.259
				c6.304,2.481,5.856,11.28,5.856,11.28s1.898-1.139,1.627-4.826C51.684,38.624,47.65,47,40.809,47z"/>
		</g>
		<g>
			<path style="fill:#FF6C5E;" d="M40.809,47c-5.958-1.566-0.465-7.237-1.22-10.005C43.842,40.122,46.016,46.044,40.809,47z"/>
		</g>
		<g>
			<path style="fill:#FFFFFF;" d="M69.199,47c-4.312,0-7.81-3.252-7.81-7.565c0-4.313,6.183-9.315,5.206-13.259
				c6.305,2.481,5.857,11.28,5.857,11.28s1.897-1.139,1.627-4.826C80.074,38.624,76.041,47,69.199,47z"/>
		</g>
		<g>
			<path style="fill:#FF6C5E;" d="M69.199,47c-5.959-1.566-0.466-7.237-1.221-10.005C72.232,40.122,74.405,46.044,69.199,47z"/>
		</g>
		<g>
			<path style="fill:#FFEFED;" d="M41,47h-8c-1.104,0-2,0.896-2,2v2h10V47z"/>
		</g>
		<g>
			<path style="fill:#FFEFED;" d="M69,47h-8c-1.104,0-2,0.896-2,2v2h10V47z"/>
		</g>
	</g>
</g>
<g id="R-Red" style="display:none;">
	<circle style="display:inline;fill:#FABBAF;" cx="55" cy="55" r="55"/>
	<g style="display:inline;">
		<g>
			<path style="fill:#4A1410;" d="M87,83c0,2.209-1.791,4-4,4H27c-2.209,0-4-1.791-4-4V55c0-2.209,1.791-4,4-4h56
				c2.209,0,4,1.791,4,4V83z"/>
		</g>
		<g>
			<path style="fill:#7D261E;" d="M53.844,51H27c-2.209,0-4,1.791-4,4v26.844L53.844,51z"/>
		</g>
		<g>
			<rect x="31" y="67" style="fill:#EB756F;" width="48" height="20"/>
		</g>
		<g>
			<polygon style="fill:#FF8E83;" points="37.844,67 31,67 31,73.844 			"/>
		</g>
		<g>
			<path style="fill:#FFFFFF;" d="M36,75c0,1.104,0.896,2,2,2h34c1.104,0,2-0.896,2-2s-0.896-2-2-2H38C36.896,73,36,73.896,36,75z"
				/>
		</g>
		<g>
			<circle style="fill:#E8A099;" cx="69" cy="59" r="4"/>
		</g>
		<g>
			<path style="fill:#FFD7D4;" d="M70,62h-2v-7c0-0.552,0.447-1,1-1c0.553,0,1,0.448,1,1V62z"/>
		</g>
		<g>
			<circle style="fill:#E8A099;" cx="41" cy="59" r="4"/>
		</g>
		<g>
			<path style="fill:#FFD7D4;" d="M42,62h-2v-7c0-0.552,0.447-1,1-1c0.553,0,1,0.448,1,1V62z"/>
		</g>
		<g>
			<path style="fill:#FFD7D4;" d="M79,49c0-1.104-0.896-2-2-2H61c-1.104,0-2,0.896-2,2v2h20V49z"/>
		</g>
		<g>
			<path style="fill:#FFD7D4;" d="M51,49c0-1.104-0.896-2-2-2H33c-1.104,0-2,0.896-2,2v2h20V49z"/>
		</g>
		<g>
			<path style="fill:#FFFFFF;" d="M40.809,47C36.496,47,33,43.748,33,39.435c0-4.313,6.182-9.315,5.206-13.259
				c6.304,2.481,5.856,11.28,5.856,11.28s1.898-1.139,1.627-4.826C51.684,38.624,47.65,47,40.809,47z"/>
		</g>
		<g>
			<path style="fill:#FF6C5E;" d="M40.809,47c-5.958-1.566-0.465-7.237-1.22-10.005C43.842,40.122,46.016,46.044,40.809,47z"/>
		</g>
		<g>
			<path style="fill:#FFFFFF;" d="M69.199,47c-4.312,0-7.81-3.252-7.81-7.565c0-4.313,6.183-9.315,5.206-13.259
				c6.305,2.481,5.857,11.28,5.857,11.28s1.897-1.139,1.627-4.826C80.074,38.624,76.041,47,69.199,47z"/>
		</g>
		<g>
			<path style="fill:#FF6C5E;" d="M69.199,47c-5.959-1.566-0.466-7.237-1.221-10.005C72.232,40.122,74.405,46.044,69.199,47z"/>
		</g>
		<g>
			<path style="fill:#FFEFED;" d="M41,47h-8c-1.104,0-2,0.896-2,2v2h10V47z"/>
		</g>
		<g>
			<path style="fill:#FFEFED;" d="M69,47h-8c-1.104,0-2,0.896-2,2v2h10V47z"/>
		</g>
	</g>
</g>
<g id="Yellow" style="display:none;">
	<g style="display:inline;">
		<g>
			<path style="fill:#3D320C;" d="M87,83c0,2.209-1.791,4-4,4H27c-2.209,0-4-1.791-4-4V55c0-2.209,1.791-4,4-4h56
				c2.209,0,4,1.791,4,4V83z"/>
		</g>
		<g>
			<path style="fill:#66510D;" d="M53.844,51H27c-2.209,0-4,1.791-4,4v26.844L53.844,51z"/>
		</g>
		<g>
			<rect x="31" y="67" style="fill:#FBAB3B;" width="48" height="20"/>
		</g>
		<g>
			<polygon style="fill:#FFBE3B;" points="37.844,67 31,67 31,73.844 			"/>
		</g>
		<g>
			<path style="fill:#FFFFFF;" d="M36,75c0,1.104,0.896,2,2,2h34c1.104,0,2-0.896,2-2s-0.896-2-2-2H38C36.896,73,36,73.896,36,75z"
				/>
		</g>
		<g>
			<circle style="fill:#F5C43D;" cx="69" cy="59" r="4"/>
		</g>
		<g>
			<path style="fill:#FFE9A1;" d="M70,62h-2v-7c0-0.552,0.447-1,1-1s1,0.448,1,1V62z"/>
		</g>
		<g>
			<circle style="fill:#F5C43D;" cx="41" cy="59" r="4"/>
		</g>
		<g>
			<path style="fill:#FFE9A1;" d="M42,62h-2v-7c0-0.552,0.447-1,1-1s1,0.448,1,1V62z"/>
		</g>
		<g>
			<path style="fill:#FFE9A1;" d="M79,49c0-1.104-0.896-2-2-2H61c-1.104,0-2,0.896-2,2v2h20V49z"/>
		</g>
		<g>
			<path style="fill:#FFE9A1;" d="M51,49c0-1.104-0.896-2-2-2H33c-1.104,0-2,0.896-2,2v2h20V49z"/>
		</g>
		<g>
			<path style="fill:#FFFFFF;" d="M40.809,47C36.496,47,33,43.748,33,39.435c0-4.313,6.182-9.315,5.206-13.259
				c6.304,2.481,5.856,11.28,5.856,11.28s1.898-1.139,1.627-4.826C51.684,38.624,47.65,47,40.809,47z"/>
		</g>
		<g>
			<path style="fill:#FFAA00;" d="M40.809,47c-5.958-1.566-0.465-7.237-1.22-10.005C43.842,40.122,46.016,46.044,40.809,47z"/>
		</g>
		<g>
			<path style="fill:#FFFFFF;" d="M69.199,47c-4.312,0-7.81-3.252-7.81-7.565c0-4.313,6.183-9.315,5.206-13.259
				c6.305,2.481,5.857,11.28,5.857,11.28s1.897-1.139,1.627-4.826C80.074,38.624,76.041,47,69.199,47z"/>
		</g>
		<g>
			<path style="fill:#FFAA00;" d="M69.199,47c-5.959-1.566-0.466-7.237-1.221-10.005C72.232,40.122,74.405,46.044,69.199,47z"/>
		</g>
		<g>
			<path style="fill:#FFF5D9;" d="M41,47h-8c-1.104,0-2,0.896-2,2v2h10V47z"/>
		</g>
		<g>
			<path style="fill:#FFF5D9;" d="M69,47h-8c-1.104,0-2,0.896-2,2v2h10V47z"/>
		</g>
	</g>
</g>
<g id="R-Yellow" style="display:none;">
	<circle style="display:inline;fill:#FFD75E;" cx="55" cy="55" r="55"/>
	<g style="display:inline;">
		<g>
			<path style="fill:#3D320C;" d="M87,83c0,2.209-1.791,4-4,4H27c-2.209,0-4-1.791-4-4V55c0-2.209,1.791-4,4-4h56
				c2.209,0,4,1.791,4,4V83z"/>
		</g>
		<g>
			<path style="fill:#66510D;" d="M53.844,51H27c-2.209,0-4,1.791-4,4v26.844L53.844,51z"/>
		</g>
		<g>
			<rect x="31" y="67" style="fill:#FBAB3B;" width="48" height="20"/>
		</g>
		<g>
			<polygon style="fill:#FFBE3B;" points="37.844,67 31,67 31,73.844 			"/>
		</g>
		<g>
			<path style="fill:#FFFFFF;" d="M36,75c0,1.104,0.896,2,2,2h34c1.104,0,2-0.896,2-2s-0.896-2-2-2H38C36.895,73,36,73.896,36,75z"
				/>
		</g>
		<g>
			<circle style="fill:#F5C43D;" cx="69" cy="59" r="4"/>
		</g>
		<g>
			<path style="fill:#FFE9A1;" d="M70,62h-2v-7c0-0.552,0.447-1,1-1c0.553,0,1,0.448,1,1V62z"/>
		</g>
		<g>
			<circle style="fill:#F5C43D;" cx="41" cy="59" r="4"/>
		</g>
		<g>
			<path style="fill:#FFE9A1;" d="M42,62h-2v-7c0-0.552,0.447-1,1-1s1,0.448,1,1V62z"/>
		</g>
		<g>
			<path style="fill:#FFE9A1;" d="M79,49c0-1.104-0.896-2-2-2H61c-1.104,0-2,0.896-2,2v2h20V49z"/>
		</g>
		<g>
			<path style="fill:#FFE9A1;" d="M51,49c0-1.104-0.896-2-2-2H33c-1.104,0-2,0.896-2,2v2h20V49z"/>
		</g>
		<g>
			<path style="fill:#FFFFFF;" d="M40.809,47C36.496,47,33,43.748,33,39.435c0-4.313,6.182-9.315,5.206-13.259
				c6.304,2.481,5.856,11.28,5.856,11.28s1.898-1.139,1.627-4.826C51.684,38.624,47.65,47,40.809,47z"/>
		</g>
		<g>
			<path style="fill:#FFAA00;" d="M40.809,47c-5.958-1.566-0.465-7.237-1.22-10.005C43.842,40.122,46.016,46.044,40.809,47z"/>
		</g>
		<g>
			<path style="fill:#FFFFFF;" d="M69.199,47c-4.312,0-7.81-3.252-7.81-7.565c0-4.313,6.183-9.315,5.206-13.259
				c6.305,2.481,5.857,11.28,5.857,11.28s1.897-1.139,1.627-4.826C80.074,38.624,76.041,47,69.199,47z"/>
		</g>
		<g>
			<path style="fill:#FFAA00;" d="M69.199,47c-5.959-1.566-0.466-7.237-1.221-10.005C72.232,40.122,74.405,46.044,69.199,47z"/>
		</g>
		<g>
			<path style="fill:#FFF5D9;" d="M41,47h-8c-1.104,0-2,0.896-2,2v2h10V47z"/>
		</g>
		<g>
			<path style="fill:#FFF5D9;" d="M69,47h-8c-1.104,0-2,0.896-2,2v2h10V47z"/>
		</g>
	</g>
</g>
</svg>
