<?xml version="1.0" encoding="iso-8859-1"?>
<!-- Generator: Adobe Illustrator 17.1.0, SVG Export Plug-In . SVG Version: 6.00 Build 0)  -->
<!DOCTYPE svg PUBLIC "-//W3C//DTD SVG 1.0//EN" "http://www.w3.org/TR/2001/REC-SVG-20010904/DTD/svg10.dtd">
<svg version="1.0" xmlns="http://www.w3.org/2000/svg" xmlns:xlink="http://www.w3.org/1999/xlink" x="0px" y="0px" width="110px"
	 height="110px" viewBox="0 0 110 110" style="enable-background:new 0 0 110 110;" xml:space="preserve">
<g id="Artboard">
</g>
<g id="Multicolor">
	<circle style="fill:#32BEA6;" cx="55" cy="55" r="55"/>
	<g>
		<g>
			<path style="fill:#3E3E3F;" d="M83,47c0,16-15,27-28,27S27,63,27,47s14-24,28-24S83,31,83,47z"/>
		</g>
		<g>
			<path style="fill:#5B5C5F;" d="M27,47c0,16,15,27,28,27V23C41,23,27,31,27,47z"/>
		</g>
		<g>
			<path style="fill:#CFD3D4;" d="M67,79c0,4.42-5.37,8-12,8s-12-3.58-12-8c0-1.46,0.58-2.83,1.61-4c2.07-2.39,5.95-4,10.39-4
				s8.32,1.61,10.39,4C66.42,76.17,67,77.54,67,79z"/>
		</g>
		<g>
			<path style="fill:#F0F1F1;" d="M67,71v8c0-1.46-0.58-2.83-1.61-4c-2.07-2.39-5.95-4-10.39-4s-8.32,1.61-10.39,4
				C43.58,76.17,43,77.54,43,79v-8c0-1.46,0.58-2.83,1.61-4c2.07-2.39,5.95-4,10.39-4s8.32,1.61,10.39,4C66.42,68.17,67,69.54,67,71
				z"/>
		</g>
		<g>
			<circle style="fill:#9E9FA0;" cx="49" cy="77" r="2"/>
		</g>
		<g>
			<circle style="fill:#9E9FA0;" cx="52" cy="82" r="2"/>
		</g>
		<g>
			<circle style="fill:#9E9FA0;" cx="58" cy="82" r="2"/>
		</g>
		<g>
			<circle style="fill:#9E9FA0;" cx="55" cy="77" r="2"/>
		</g>
		<g>
			<circle style="fill:#9E9FA0;" cx="61" cy="77" r="2"/>
		</g>
		<g>
			<circle style="fill:#B3EBF7;" cx="69" cy="43" r="10"/>
		</g>
		<g>
			<circle style="fill:#059BBF;" cx="69" cy="43" r="7"/>
		</g>
		<g>
			<circle style="fill:#B3EBF7;" cx="41" cy="43" r="10"/>
		</g>
		<g>
			<circle style="fill:#059BBF;" cx="41" cy="43" r="7"/>
		</g>
		<g>
			<path style="fill:#FFFFFF;" d="M44.61,67C43.58,68.17,43,69.54,43,71v8c0-1.46,0.58-2.83,1.61-4c2.07-2.39,5.95-4,10.39-4v-8
				C50.56,63,46.68,64.61,44.61,67z"/>
		</g>
		<g>
			<path style="fill:#40C9E7;" d="M34,43c0,3.866,3.134,7,7,7V36C37.134,36,34,39.134,34,43z"/>
		</g>
		<g>
			<path style="fill:#40C9E7;" d="M62,43c0,3.866,3.134,7,7,7V36C65.134,36,62,39.134,62,43z"/>
		</g>
	</g>
</g>
</svg>
