<?xml version="1.0" encoding="iso-8859-1"?>
<!-- Generator: Adobe Illustrator 17.1.0, SVG Export Plug-In . SVG Version: 6.00 Build 0)  -->
<!DOCTYPE svg PUBLIC "-//W3C//DTD SVG 1.0//EN" "http://www.w3.org/TR/2001/REC-SVG-20010904/DTD/svg10.dtd">
<svg version="1.0" xmlns="http://www.w3.org/2000/svg" xmlns:xlink="http://www.w3.org/1999/xlink" x="0px" y="0px" width="110px"
	 height="110px" viewBox="0 0 110 110" style="enable-background:new 0 0 110 110;" xml:space="preserve">
<g id="Artboard">
</g>
<g id="Multicolor">
	<circle style="fill:#FABC3D;" cx="55" cy="55" r="55"/>
	<g>
		<g>
			<circle style="fill:#DF2C2C;" cx="48" cy="32" r="9"/>
		</g>
		<g>
			<path style="fill:#DF2C2C;" d="M68,83H28V41c0-1.657,1.343-3,3-3h34c1.657,0,3,1.343,3,3V83z"/>
		</g>
		<g>
			<path style="fill:#FA5655;" d="M61.744,38H31c-1.657,0-3,1.343-3,3v30.744L61.744,38z"/>
		</g>
		<g>
			<path style="fill:#F0F1F1;" d="M64,61c0,1.105-0.895,2-2,2H34c-1.105,0-2-0.895-2-2V45c0-1.105,0.895-2,2-2h28
				c1.105,0,2,0.895,2,2V61z"/>
		</g>
		<g>
			<path style="fill:#FFFFFF;" d="M34,43c-1.104,0-2,0.896-2,2v16c0,1.104,0.896,2,2,2h2.744l20-20H34z"/>
		</g>
		<g>
			<rect x="23" y="83" style="fill:#FA5655;" width="49" height="4"/>
		</g>
		<g>
			<circle style="fill:#FFFFFF;" cx="48" cy="32" r="4.5"/>
		</g>
		<g>
			<rect x="34.5" y="47" style="fill:#5B5C5F;" width="7.5" height="12"/>
		</g>
		<g>
			<rect x="44" y="47" style="fill:#3E3E3F;" width="7.5" height="12"/>
		</g>
		<g>
			<rect x="53.5" y="47" style="fill:#3E3E3F;" width="7.5" height="12"/>
		</g>
		<g>
			<path style="fill:#3E3E3F;" d="M85.892,33.007c-1.344-4.275-4.225-7.893-10.259-9.904l-1.265,3.795
				c4.409,1.47,6.645,3.894,7.724,7.318l-7.064,2.344c-0.73,0.242-1.159,0.998-0.992,1.75l3,13.5
				c0.152,0.686,0.761,1.174,1.464,1.174H83V69c0,1.103-0.897,2-2,2h-1c-1.103,0-2-0.897-2-2v-8c0-3.309-2.691-6-6-6h-4v4h4
				c1.103,0,2,0.897,2,2v8c0,3.309,2.691,6,6,6h1c3.309,0,6-2.691,6-6V42C87,38.893,86.773,35.81,85.892,33.007z M79.703,49.983
				L77.258,38.98l5.466-1.813C82.921,38.639,83,40.244,83,42v5v2.983H79.703z"/>
		</g>
		<g>
			<path style="fill:#FFFFFF;" d="M36.267,51.198c0.5-0.957,1.328-1.388,2.164-1.388c1.345,0,2.043,0.922,2.043,1.879
				c0,0.569-0.207,1.19-0.759,1.707l-1.345,1.276l0.716-0.146h1.379v1.466h-3.931l-0.388-0.802l2.483-2.793
				c0.819-0.922-0.535-1.802-1.207-0.569L36.267,51.198z"/>
		</g>
		<g>
			<path style="fill:#FFFFFF;" d="M59.129,49.896l0.414,0.828L57.19,56h-1.655l1.983-4.638h-2.328v-1.466H59.129z"/>
		</g>
		<g>
			<polygon style="fill:#5B5C5F;" points="51.5,48.244 51.5,47 44,47 44,55.744 			"/>
		</g>
		<g>
			<path style="fill:#FFFFFF;" d="M46.336,54.095c0.578,0.707,1.578,0.474,1.612-0.241c0.035-0.621-0.336-0.905-0.802-0.905
				c-0.354,0-0.715,0.138-0.991,0.509h-0.707v-3.561h3.621v1.354h-2.388v0.69c1.483-0.543,2.776,0.405,2.776,1.879
				c0,1.129-0.707,2.267-2.302,2.267c-0.689,0-1.422-0.328-1.914-1.129L46.336,54.095z"/>
		</g>
	</g>
</g>
</svg>
