<?xml version="1.0" encoding="iso-8859-1"?>
<!-- Generator: Adobe Illustrator 17.1.0, SVG Export Plug-In . SVG Version: 6.00 Build 0)  -->
<!DOCTYPE svg PUBLIC "-//W3C//DTD SVG 1.0//EN" "http://www.w3.org/TR/2001/REC-SVG-20010904/DTD/svg10.dtd">
<svg version="1.0" xmlns="http://www.w3.org/2000/svg" xmlns:xlink="http://www.w3.org/1999/xlink" x="0px" y="0px" width="110px"
	 height="110px" viewBox="0 0 110 110" style="enable-background:new 0 0 110 110;" xml:space="preserve">
<g id="Artboard">
</g>
<g id="Multicolor">
	<circle style="fill:#FABC3D;" cx="55" cy="55" r="55"/>
	<g>
		<g>
			<path style="fill:#0484AB;" d="M75,83c0-2.209-1.791-4-4-4H39c-2.209,0-4,1.791-4,4v2c0,1.105,0.895,2,2,2h36
				c1.105,0,2-0.895,2-2V83z"/>
		</g>
		<path style="fill:#0484AB;" d="M57,37.043V34h-4v3.043C54.333,36.99,55.667,36.99,57,37.043z"/>
		<g>
			<path style="fill:#059BBF;" d="M75,46.71c0-3.532-2.304-6.694-5.699-7.665c-9.534-2.727-19.068-2.727-28.602,0
				C37.304,40.016,35,43.179,35,46.71V73c0,3.314,2.686,6,6,6h28c3.314,0,6-2.686,6-6V46.71z"/>
		</g>
		<g>
			<polygon style="fill:#E2E4E5;" points="55,43 68,59 55,75 42,59 			"/>
		</g>
		<g>
			<path style="fill:#0484AB;" d="M59.171,62.864C58.36,64.257,56.742,65,55,65c-2.761,0-5-2.686-5-6s2.5-7,5-7
				c-2,2-0.945,5.805,0.833,6C55,56,57,54,57,54C57,57,62,58,59.171,62.864z"/>
		</g>
		<g>
			<rect x="51" y="31" style="fill:#FA5655;" width="8" height="3"/>
		</g>
		<g>
			<path style="fill:#21B2D1;" d="M55,34h-2v3.043C53.667,37.017,54.333,37,55,37V34z"/>
		</g>
		<g>
			<path style="fill:#21B2D1;" d="M53,37.043c-4.242,0.169-8.462,0.908-12.301,2.001C37.304,40.016,35,43.179,35,46.71V73
				c0,3.313,2.686,6,6,6h14v-4L42,59l13-16v-4v-2C54.333,37,53.667,37.017,53,37.043z"/>
		</g>
		<g>
			<path style="fill:#FFFFFF;" d="M55,57.605V52C53.341,53.659,53.786,56.552,55,57.605z"/>
		</g>
		<g>
			<path style="fill:#FFFFFF;" d="M50,59c0-3.313,2.5-7,5-7v-9L42,59l13,16V65C52.239,65,50,62.313,50,59z"/>
		</g>
		<g>
			<polygon style="fill:#F79392;" points="51,31 51,34 53,34 55,34 55,31 			"/>
		</g>
		<g>
			<path style="fill:#0484AB;" d="M69,23H55H41c-1.105,0-2,0.896-2,2s0.895,2,2,2v11.964c0.006-0.001,0.012-0.003,0.018-0.004
				c0.655-0.184,1.311-0.352,1.966-0.51c0.016-0.004,0.033-0.007,0.049-0.011c0.656-0.157,1.311-0.3,1.967-0.431V27h10h10v11.008
				c1.333,0.267,2.667,0.583,4,0.957V27c1.105,0,2-0.896,2-2S70.105,23,69,23z"/>
		</g>
		<g>
			<path style="fill:#059BBF;" d="M43.033,38.439c0.656-0.157,1.311-0.3,1.967-0.431V27h10v-4H41c-1.105,0-2,0.895-2,2s0.895,2,2,2
				v11.964c0.006-0.001,0.012-0.003,0.018-0.004c0.655-0.184,1.311-0.352,1.966-0.51C43,38.446,43.016,38.443,43.033,38.439z"/>
		</g>
		<g>
			<path style="fill:#059BBF;" d="M39,79c-2.209,0-4,1.791-4,4v2c0,1.104,0.895,2,2,2h18v-8H39z"/>
		</g>
	</g>
</g>
</svg>
