<?xml version="1.0" encoding="iso-8859-1"?>
<!-- Generator: Adobe Illustrator 17.1.0, SVG Export Plug-In . SVG Version: 6.00 Build 0)  -->
<!DOCTYPE svg PUBLIC "-//W3C//DTD SVG 1.0//EN" "http://www.w3.org/TR/2001/REC-SVG-20010904/DTD/svg10.dtd">
<svg version="1.0" xmlns="http://www.w3.org/2000/svg" xmlns:xlink="http://www.w3.org/1999/xlink" x="0px" y="0px" width="110px"
	 height="110px" viewBox="0 0 110 110" style="enable-background:new 0 0 110 110;" xml:space="preserve">
<g id="Artboard">
</g>
<g id="Multicolor">
	<circle style="fill:#E04F5F;" cx="55" cy="55" r="55"/>
	<g>
		<g>
			<path style="fill:#FFFFFF;" d="M79,40c-2.209,0-4,1.791-4,4v8h-8v-8c0-2.209-1.791-4-4-4s-4,1.791-4,4v8h-8v-8
				c0-2.209-1.791-4-4-4s-4,1.791-4,4v8h-8v-8c0-2.209-1.791-4-4-4s-4,1.791-4,4v10c0,3.309,2.691,6,6,6h10v8c0,2.209,1.791,4,4,4
				s4-1.791,4-4v-8h8v8c0,2.209,1.791,4,4,4s4-1.791,4-4v-8h8v8c0,2.209,1.791,4,4,4s4-1.791,4-4V44C83,41.791,81.209,40,79,40z"/>
		</g>
		<g>
			<g>
				<path style="fill:#3E3E3F;" d="M26.345,26.028c0-0.688,0.544-1.232,1.232-1.232h3.89c1.425,0,2.529,0.399,3.266,1.136
					c0.624,0.625,0.96,1.505,0.96,2.562v0.032c0,1.761-0.881,2.849-2.241,3.409l1.713,2.081c0.24,0.304,0.4,0.56,0.4,0.944
					c0,0.688-0.576,1.136-1.169,1.136c-0.56,0-0.928-0.271-1.216-0.64l-2.401-3.042H28.81v2.449c0,0.688-0.544,1.232-1.232,1.232
					s-1.232-0.544-1.232-1.232V26.028z M31.307,30.237c1.2,0,1.889-0.64,1.889-1.584v-0.032c0-1.057-0.736-1.601-1.937-1.601H28.81
					v3.217H31.307z"/>
			</g>
		</g>
		<g>
			<g>
				<path style="fill:#3E3E3F;" d="M45.85,27.133l-0.865,0.224c-0.128,0.032-0.304,0.064-0.432,0.064
					c-0.576,0-1.072-0.48-1.072-1.057c0-0.496,0.32-0.912,0.816-1.057l1.584-0.464c0.465-0.128,0.816-0.208,1.152-0.208h0.032
					c0.673,0,1.217,0.544,1.217,1.216v9.028c0,0.672-0.544,1.216-1.217,1.216c-0.672,0-1.216-0.544-1.216-1.216V27.133z"/>
			</g>
		</g>
		<g>
			<g>
				<path style="fill:#3E3E3F;" d="M59.265,34.911c-0.225-0.191-0.416-0.527-0.416-0.88c0-0.641,0.544-1.185,1.185-1.185
					c0.352,0,0.592,0.145,0.784,0.304c0.64,0.545,1.312,0.833,2.192,0.833c0.929,0,1.585-0.528,1.585-1.36v-0.032
					c0-0.912-0.816-1.425-2.193-1.425h-0.384c-0.576,0-1.057-0.48-1.057-1.057c0-0.336,0.145-0.624,0.528-1.008l2.177-2.193h-3.441
					c-0.576,0-1.056-0.48-1.056-1.057s0.479-1.056,1.056-1.056h5.459c0.72,0,1.248,0.416,1.248,1.088
					c0,0.608-0.288,0.944-0.736,1.377l-2.193,2.097c1.521,0.256,3.01,1.057,3.01,3.137v0.032c0,2.113-1.537,3.666-4.034,3.666
					C61.377,36.192,60.177,35.696,59.265,34.911z"/>
			</g>
		</g>
		<g>
			<g>
				<path style="fill:#3E3E3F;" d="M75.44,35.136c-0.288-0.208-0.496-0.528-0.496-0.944c0-0.641,0.528-1.185,1.169-1.185
					c0.288,0,0.479,0.08,0.672,0.224c0.688,0.497,1.345,0.721,2.129,0.721c1.04,0,1.809-0.561,1.809-1.553v-0.032
					c0-0.96-0.816-1.521-1.984-1.521c-0.944,0-1.361,0.288-1.697,0.288c-0.352,0-0.624-0.144-1.12-0.496
					c-0.336-0.24-0.48-0.576-0.448-0.992l0.224-3.794c0.032-0.592,0.497-1.056,1.089-1.056h4.866c0.592,0,1.088,0.496,1.088,1.088
					c0,0.593-0.496,1.072-1.088,1.072h-3.777l-0.129,1.938c0.448-0.112,0.849-0.192,1.473-0.192c2.209,0,3.922,1.057,3.922,3.585
					v0.032c0,2.369-1.713,3.874-4.178,3.874C77.409,36.192,76.337,35.776,75.44,35.136z"/>
			</g>
		</g>
		<g>
			<g>
				<path style="fill:#3E3E3F;" d="M43.328,84.599l3.186-2.608c1.393-1.137,1.937-1.761,1.937-2.689
					c0-0.944-0.624-1.456-1.504-1.456c-0.704,0-1.201,0.304-1.825,0.976c-0.16,0.177-0.448,0.353-0.832,0.353
					c-0.624,0-1.12-0.496-1.12-1.12c0-0.272,0.111-0.561,0.288-0.769c0.896-1.04,1.952-1.648,3.649-1.648
					c2.32,0,3.857,1.36,3.857,3.457v0.032c0,1.873-0.961,2.801-2.945,4.338l-1.825,1.408H50.1c0.592,0,1.072,0.48,1.072,1.072
					c0,0.593-0.48,1.057-1.072,1.057h-6.083c-0.769,0-1.328-0.433-1.328-1.169C42.688,85.352,42.912,84.936,43.328,84.599z"/>
			</g>
		</g>
		<g>
			<g>
				<path style="fill:#3E3E3F;" d="M64.37,84.583h-4.609c-0.656,0-1.2-0.48-1.2-1.137c0-0.512,0.208-0.912,0.576-1.345l4.865-5.649
					c0.465-0.545,0.816-0.833,1.537-0.833c0.656,0,1.185,0.513,1.185,1.169v5.794h0.592c0.561,0,1.009,0.448,1.009,1.009
					c0,0.56-0.448,0.992-1.009,0.992h-0.592v1.345c0,0.656-0.528,1.168-1.185,1.168s-1.169-0.512-1.169-1.168V84.583z M64.37,82.582
					v-3.489l-2.977,3.489H64.37z"/>
			</g>
		</g>
		<g>
			<g>
				<path style="fill:#3E3E3F;" d="M76.193,85.991c-0.816-0.816-1.329-2.017-1.329-4.241v-0.032c0-3.457,1.568-6.114,4.914-6.114
					c1.12,0,2.033,0.272,2.705,0.672c0.384,0.225,0.641,0.561,0.641,1.057c0,0.641-0.528,1.137-1.169,1.137
					c-0.208,0-0.432-0.08-0.608-0.176c-0.512-0.289-0.977-0.448-1.648-0.448c-1.393,0-2.097,1.12-2.257,2.593
					c0.561-0.368,1.217-0.721,2.321-0.721c2.225,0,3.938,1.232,3.938,3.569v0.032c0,2.289-1.841,3.874-4.274,3.874
					C77.97,87.192,76.978,86.776,76.193,85.991z M81.251,83.431v-0.032c0-0.944-0.736-1.633-1.953-1.633
					c-1.216,0-1.921,0.673-1.921,1.617v0.031c0,0.945,0.736,1.665,1.953,1.665S81.251,84.391,81.251,83.431z"/>
			</g>
		</g>
	</g>
</g>
</svg>
