<?xml version="1.0" encoding="iso-8859-1"?>
<!-- Generator: Adobe Illustrator 17.1.0, SVG Export Plug-In . SVG Version: 6.00 Build 0)  -->
<!DOCTYPE svg PUBLIC "-//W3C//DTD SVG 1.0//EN" "http://www.w3.org/TR/2001/REC-SVG-20010904/DTD/svg10.dtd">
<svg version="1.0" xmlns="http://www.w3.org/2000/svg" xmlns:xlink="http://www.w3.org/1999/xlink" x="0px" y="0px" width="110px"
	 height="110px" viewBox="0 0 110 110" style="enable-background:new 0 0 110 110;" xml:space="preserve">
<g id="Artboard">
</g>
<g id="Multicolor">
	<g>
		<circle style="fill:#FABC3D;" cx="55" cy="55" r="55"/>
	</g>
	<g>
		<path style="fill:#FBC8C8;" d="M70,45.036l-3,2c-0.015-0.271,0-7-4-9c-4.611,3.974-16,3-18.375-0.618
			C43.06,39.883,43,42.036,43,47.036l-2-1.333V53l4,10l5.105,3.996C50.674,67.634,51.489,68,52.345,68H55h2.655
			c0.856,0,1.671-0.365,2.24-1.004L65,63l3.193-7.982C71.039,54.827,72,50.517,72,47.258C72,46.147,71,45.036,70,45.036z"/>
		<path style="fill:#FBD7D7;" d="M44.625,37.418C43.06,39.883,43,42.036,43,47.036l-3-2c-1,0-2,1.111-2,2.222
			c0,3.259,0.961,7.568,3.807,7.76L45,63l5.105,3.996C50.674,67.635,51.489,68,52.345,68H55V40.576
			C50.566,40.756,46.027,39.553,44.625,37.418z"/>
		<g>
			<path style="fill:#3E3E3F;" d="M83,76c-0.615-1.333-1.698-2.395-3.043-2.983L65,69H55H45l-14.957,4.017
				C28.698,73.605,27.615,74.667,27,76l-4,11h32h32L83,76z"/>
		</g>
		<path style="fill:#F7B4B4;" d="M57.655,68H55h-2.655c-0.856,0-1.671-0.365-2.24-1.004L45,63v9.036c0,0,2,4,10,4s10-4,10-4V63
			l-5.105,3.996C59.326,67.634,58.511,68,57.655,68z"/>
		<g>
			<path style="fill:#FFFFFF;" d="M55,87h3.175l-0.158-0.924c-0.017-0.099,0.016-0.2,0.087-0.27l2.618-2.552
				c0.083-0.081,0.113-0.202,0.077-0.312c-0.036-0.11-0.131-0.19-0.246-0.208l-3.618-0.525c-0.099-0.015-0.185-0.077-0.229-0.167
				l-1.618-3.278c-0.052-0.104-0.158-0.17-0.273-0.17c-0.116,0-0.222,0.066-0.273,0.17l-1.618,3.278
				c-0.044,0.09-0.13,0.152-0.229,0.167l-3.618,0.525c-0.115,0.017-0.21,0.097-0.246,0.208c-0.036,0.11-0.006,0.231,0.077,0.312
				l2.618,2.552c0.072,0.07,0.104,0.171,0.088,0.27L51.454,87H55z"/>
		</g>
		<path style="fill:#FBC8C8;" d="M50.105,66.995L45,63v9.036c0,0,2,4,10,4V68h-2.655C51.489,68,50.674,67.634,50.105,66.995z"/>
		<g>
			<path style="fill:#84462D;" d="M55,54.036c0,0-6,0-9,2c0,7,5,12,5,12l4,2l4-2c0,0,5-5,5-12C61,54.036,55,54.036,55,54.036z
				 M57,62.036l-1-1h-1h-1l-1,1h-2l-1.183-1.971c-0.371-0.618-0.38-1.387-0.025-2.014s1.02-1.015,1.74-1.015H55h3.468
				c0.721,0,1.385,0.388,1.74,1.015s0.345,1.397-0.025,2.014L59,62.036H57z"/>
		</g>
		<g>
			<path style="fill:#9C6144;" d="M54,61.036l-1,1h-2l-1.183-1.971c-0.371-0.618-0.38-1.387-0.025-2.014s1.02-1.015,1.74-1.015H55
				v-3c0,0-6,0-9,2c0,7,5,12,5,12l4,2v-9H54z"/>
		</g>
		<g>
			<path style="fill:#692E19;" d="M49,23.036l-2,5h-5c0,1.077,0.25,2.5,1.927,2.884C39.296,35.49,40,41.732,40,45.036l3,2
				c0-5,0.06-7.153,1.625-9.618C47,41.036,58.389,42.01,63,38.036c4,2,3.985,8.729,4,9l3-2C71,23.036,58.11,32.146,49,23.036z"/>
		</g>
		<g>
			<path style="fill:#84462D;" d="M55,26.789c-2.058-0.762-4.11-1.863-6-3.752l-2,5h-5c0,1.077,0.25,2.5,1.927,2.884
				C39.296,35.49,40,41.732,40,45.036l3,2c0-5,0.06-7.153,1.625-9.618c1.401,2.135,5.94,3.338,10.375,3.158V26.789z"/>
		</g>
		<g>
			<g>
				<path style="fill:#3E3E3F;" d="M70.98,43.802c-2.22-1.598-15.935-0.51-15.935-0.51s-13.804-1.087-16.024,0.51
					c0,0-0.089,2.086,0,3.196c2.131,1.065,0.71,2.841,2.131,3.196c1.775,0.444,9.277,1.065,10.653,0
					c1.451-1.124,2.131-4.261,3.196-4.261s1.745,3.138,3.196,4.261c1.376,1.065,8.878,0.444,10.653,0
					c1.421-0.355,0-2.131,2.131-3.196C71.069,45.888,70.98,43.802,70.98,43.802z"/>
			</g>
			<g>
				<path style="fill:#9CE5F4;" d="M42.13,48.848c-1.023-2.047-0.686-4.588,0.257-4.717c0.943-0.129,7.547-0.858,10.12,0.386
					c1.026,0.496-0.299,4.812-1.801,4.974C47.533,49.834,42.687,49.963,42.13,48.848z"/>
			</g>
			<g>
				<path style="fill:#9CE5F4;" d="M68.25,48.936c1.023-2.047,0.686-4.588-0.257-4.717c-0.943-0.129-7.547-0.858-10.12,0.386
					c-1.026,0.496,0.299,4.812,1.801,4.974C62.847,49.922,67.692,50.051,68.25,48.936z"/>
			</g>
			<g>
				<path style="fill:#C9F2F8;" d="M42.387,44.128c-0.944,0.129-1.281,2.671-0.257,4.717c0.071,0.141,0.212,0.263,0.408,0.366
					l4.732-5.409C45.013,43.821,42.891,44.059,42.387,44.128z"/>
			</g>
			<g>
				<path style="fill:#C9F2F8;" d="M57.872,44.599c-0.952,0.461,0.123,4.211,1.484,4.875l4.866-5.561
					C61.968,43.828,59.3,43.91,57.872,44.599z"/>
			</g>
		</g>
	</g>
</g>
</svg>
