<?xml version="1.0" encoding="iso-8859-1"?>
<!-- Generator: Adobe Illustrator 17.1.0, SVG Export Plug-In . SVG Version: 6.00 Build 0)  -->
<!DOCTYPE svg PUBLIC "-//W3C//DTD SVG 1.0//EN" "http://www.w3.org/TR/2001/REC-SVG-20010904/DTD/svg10.dtd">
<svg version="1.0" xmlns="http://www.w3.org/2000/svg" xmlns:xlink="http://www.w3.org/1999/xlink" x="0px" y="0px" width="110px"
	 height="110px" viewBox="0 0 110 110" style="enable-background:new 0 0 110 110;" xml:space="preserve">
<g id="Artboard" style="display:none;">
	
		<rect x="-968.5" y="-290.5" style="display:inline;fill:#808080;stroke:#000000;stroke-miterlimit:10;" width="1392" height="1369"/>
</g>
<g id="R-Multicolor">
	<circle style="fill:#E04F5F;" cx="55" cy="55" r="55"/>
	<g>
		<g>
			<path style="fill:#D4A263;" d="M81,47H64.789C67.385,44.458,69,40.92,69,37c0-7.732-6.268-14-14-14s-14,6.268-14,14
				c0,3.92,1.615,7.458,4.211,10H29c-3.313,0-6,2.686-6,6s2.687,6,6,6h14.641l-4.502,20.725c-0.704,3.238,1.351,6.433,4.589,7.137
				c3.238,0.703,6.434-1.351,7.137-4.589L52.444,75c0,0,0.556-4,2.556-4s2.556,4,2.556,4l1.58,7.273
				c0.704,3.238,3.899,5.293,7.137,4.589c3.238-0.704,5.293-3.899,4.589-7.137L66.359,59H81c3.313,0,6-2.686,6-6S84.313,47,81,47z"
				/>
		</g>
		<g>
			<path style="fill:#EDBC7C;" d="M41,37c0,3.92,1.615,7.458,4.211,10H29c-3.313,0-6,2.687-6,6s2.687,6,6,6h14.641l-4.502,20.725
				c-0.704,3.238,1.351,6.434,4.589,7.138c3.238,0.703,6.434-1.352,7.137-4.59L52.444,75c0,0,0.556-4,2.556-4V23
				C47.268,23,41,29.268,41,37z"/>
		</g>
		<g>
			<circle style="fill:#DF2C2C;" cx="55" cy="52" r="2"/>
		</g>
		<g>
			<circle style="fill:#FACB1B;" cx="55" cy="59" r="2"/>
		</g>
		<g>
			<circle style="fill:#12B2A0;" cx="55" cy="66" r="2"/>
		</g>
		<g>
			<rect x="77" y="47" style="fill:#F4D0A1;" width="2" height="12"/>
		</g>
		<g>
			<rect x="31" y="47" style="fill:#F8E1C2;" width="2" height="12"/>
		</g>
		<g>
			
				<rect x="44.941" y="70.667" transform="matrix(0.2126 -0.9771 0.9771 0.2126 -38.74 105.2587)" style="fill:#F4D0A1;" width="2" height="12"/>
		</g>
		<g>
			
				<rect x="63.059" y="70.667" transform="matrix(-0.2126 -0.9771 0.9771 -0.2126 2.7635 155.5602)" style="fill:#F4D0A1;" width="2" height="12"/>
		</g>
		<g>
			<path style="fill:#84462D;" d="M48.08,39c0.486,3.391,3.395,6,6.92,6c3.526,0,6.434-2.609,6.92-6H48.08z"/>
		</g>
		<g>
			<path style="fill:#84462D;" d="M48.55,31.101c-1.035,0-1.915,0.643-2.274,1.55l0.205,0.118l1.889,0.75l-1.889,0.75l-0.221,0.128
				C46.606,35.331,47.497,36,48.55,36c1.353,0,2.45-1.097,2.45-2.45S49.903,31.101,48.55,31.101z"/>
		</g>
		<g>
			<path style="fill:#84462D;" d="M61.29,31.101c-1.035,0-1.915,0.643-2.274,1.55l0.205,0.118l1.889,0.75l-1.889,0.75L59,34.397
				C59.346,35.331,60.236,36,61.29,36c1.353,0,2.45-1.097,2.45-2.45S62.643,31.101,61.29,31.101z"/>
		</g>
	</g>
</g>
<g id="Multicolor" style="display:none;">
	<g style="display:inline;">
		<g>
			<path style="fill:#D4A263;" d="M81,47H64.789C67.385,44.458,69,40.92,69,37c0-7.732-6.268-14-14-14s-14,6.268-14,14
				c0,3.92,1.615,7.458,4.211,10H29c-3.313,0-6,2.686-6,6s2.687,6,6,6h14.641l-4.502,20.725c-0.704,3.238,1.351,6.433,4.589,7.137
				c3.238,0.703,6.434-1.351,7.137-4.589L52.444,75c0,0,0.556-4,2.556-4s2.556,4,2.556,4l1.58,7.273
				c0.704,3.238,3.899,5.293,7.137,4.589c3.238-0.704,5.293-3.899,4.589-7.137L66.359,59H81c3.313,0,6-2.686,6-6S84.313,47,81,47z"
				/>
		</g>
		<g>
			<path style="fill:#EDBC7C;" d="M41,37c0,3.92,1.615,7.458,4.211,10H29c-3.313,0-6,2.687-6,6s2.687,6,6,6h14.641l-4.502,20.725
				c-0.704,3.238,1.351,6.434,4.589,7.138c3.238,0.703,6.434-1.352,7.137-4.59L52.444,75c0,0,0.556-4,2.556-4V23
				C47.268,23,41,29.268,41,37z"/>
		</g>
		<g>
			<circle style="fill:#DF2C2C;" cx="55" cy="52" r="2"/>
		</g>
		<g>
			<circle style="fill:#FACB1B;" cx="55" cy="59" r="2"/>
		</g>
		<g>
			<circle style="fill:#12B2A0;" cx="55" cy="66" r="2"/>
		</g>
		<g>
			<rect x="77" y="47" style="fill:#F4D0A1;" width="2" height="12"/>
		</g>
		<g>
			<rect x="31" y="47" style="fill:#F8E1C2;" width="2" height="12"/>
		</g>
		<g>
			
				<rect x="44.941" y="70.667" transform="matrix(0.2126 -0.9771 0.9771 0.2126 -38.74 105.2587)" style="fill:#F4D0A1;" width="2" height="12"/>
		</g>
		<g>
			
				<rect x="63.059" y="70.667" transform="matrix(-0.2126 -0.9771 0.9771 -0.2126 2.7635 155.5602)" style="fill:#F4D0A1;" width="2" height="12"/>
		</g>
		<g>
			<path style="fill:#84462D;" d="M48.08,39c0.486,3.391,3.395,6,6.92,6c3.526,0,6.434-2.609,6.92-6H48.08z"/>
		</g>
		<g>
			<path style="fill:#84462D;" d="M48.55,31.101c-1.035,0-1.915,0.643-2.274,1.55l0.205,0.118l1.889,0.75l-1.889,0.75l-0.221,0.128
				C46.606,35.331,47.497,36,48.55,36c1.353,0,2.45-1.097,2.45-2.45S49.903,31.101,48.55,31.101z"/>
		</g>
		<g>
			<path style="fill:#84462D;" d="M61.29,31.101c-1.035,0-1.915,0.643-2.274,1.55l0.205,0.118l1.889,0.75l-1.889,0.75L59,34.397
				C59.346,35.331,60.236,36,61.29,36c1.353,0,2.45-1.097,2.45-2.45S62.643,31.101,61.29,31.101z"/>
		</g>
	</g>
</g>
<g id="Blue" style="display:none;">
	<g style="display:inline;">
		<g>
			<path style="fill:#BBE7F2;" d="M81,47H64.789C67.385,44.458,69,40.92,69,37c0-7.732-6.268-14-14-14s-14,6.268-14,14
				c0,3.92,1.615,7.458,4.211,10H29c-3.313,0-6,2.687-6,6c0,3.314,2.687,6,6,6h14.641l-4.502,20.725
				c-0.705,3.238,1.351,6.433,4.588,7.137c3.238,0.703,6.435-1.352,7.138-4.589L52.444,75c0,0,0.556-4,2.556-4s2.556,4,2.556,4
				l1.58,7.273c0.704,3.238,3.9,5.292,7.138,4.589c3.237-0.704,5.293-3.899,4.588-7.137L66.359,59H81c3.313,0,6-2.686,6-6
				C87,49.687,84.313,47,81,47z"/>
		</g>
		<g>
			<path style="fill:#E1F5FA;" d="M41,37c0,3.92,1.615,7.458,4.211,10H29c-3.313,0-6,2.687-6,6s2.687,6,6,6h14.641l-4.502,20.725
				c-0.705,3.238,1.351,6.434,4.588,7.138c3.238,0.703,6.435-1.352,7.138-4.59L52.444,75c0,0,0.556-4,2.556-4V23
				C47.268,23,41,29.268,41,37z"/>
		</g>
		<g>
			<circle style="fill:#00B7E5;" cx="55" cy="52" r="2"/>
		</g>
		<g>
			<circle style="fill:#00B7E5;" cx="55" cy="59" r="2"/>
		</g>
		<g>
			<circle style="fill:#00B7E5;" cx="55" cy="66" r="2"/>
		</g>
		<g>
			<rect x="77" y="47" style="fill:#81D2EB;" width="2" height="12"/>
		</g>
		<g>
			<rect x="31" y="47" style="fill:#BBE7F2;" width="2" height="12"/>
		</g>
		<g>
			
				<rect x="44.941" y="70.667" transform="matrix(0.2124 -0.9772 0.9772 0.2124 -38.7358 105.2727)" style="fill:#BBE7F2;" width="2" height="12"/>
		</g>
		<g>
			
				<rect x="63.06" y="70.667" transform="matrix(-0.2124 -0.9772 0.9772 -0.2124 2.7504 155.5507)" style="fill:#81D2EB;" width="2" height="12"/>
		</g>
		<g>
			<path style="fill:#0F6175;" d="M48.08,39c0.486,3.391,3.395,6,6.92,6c3.525,0,6.434-2.609,6.92-6H48.08z"/>
		</g>
		<g>
			<path style="fill:#0F6175;" d="M48.551,31.101c-1.035,0-1.915,0.643-2.274,1.55l0.205,0.118l1.889,0.75l-1.889,0.75l-0.222,0.128
				C46.605,35.331,47.496,36,48.551,36C49.903,36,51,34.903,51,33.551C51,32.198,49.903,31.101,48.551,31.101z"/>
		</g>
		<g>
			<path style="fill:#0F6175;" d="M61.29,31.101c-1.034,0-1.915,0.643-2.274,1.55l0.205,0.118l1.889,0.75l-1.889,0.75L59,34.397
				C59.346,35.331,60.236,36,61.29,36c1.353,0,2.45-1.097,2.45-2.449C63.74,32.198,62.643,31.101,61.29,31.101z"/>
		</g>
	</g>
</g>
<g id="R-Blue" style="display:none;">
	<circle style="display:inline;fill:#81D2EB;" cx="55" cy="55" r="55"/>
	<g style="display:inline;">
		<g>
			<path style="fill:#BBE7F2;" d="M81,47H64.789C67.385,44.458,69,40.92,69,37c0-7.732-6.268-14-14-14s-14,6.268-14,14
				c0,3.92,1.615,7.458,4.211,10H29c-3.313,0-6,2.687-6,6c0,3.314,2.687,6,6,6h14.641l-4.502,20.725
				c-0.705,3.238,1.351,6.433,4.588,7.137c3.238,0.703,6.435-1.352,7.138-4.589L52.444,75c0,0,0.556-4,2.556-4s2.556,4,2.556,4
				l1.58,7.273c0.704,3.238,3.9,5.293,7.138,4.589c3.237-0.704,5.293-3.899,4.588-7.137L66.359,59H81c3.313,0,6-2.686,6-6
				C87,49.686,84.313,47,81,47z"/>
		</g>
		<g>
			<path style="fill:#E1F5FA;" d="M41,37c0,3.92,1.615,7.458,4.211,10H29c-3.313,0-6,2.687-6,6s2.687,6,6,6h14.641l-4.502,20.725
				c-0.705,3.238,1.351,6.434,4.588,7.138c3.238,0.703,6.435-1.352,7.138-4.59L52.444,75c0,0,0.556-4,2.556-4V23
				C47.268,23,41,29.268,41,37z"/>
		</g>
		<g>
			<circle style="fill:#00B7E5;" cx="55" cy="52" r="2"/>
		</g>
		<g>
			<circle style="fill:#00B7E5;" cx="55" cy="59" r="2"/>
		</g>
		<g>
			<circle style="fill:#00B7E5;" cx="55" cy="66" r="2"/>
		</g>
		<g>
			<rect x="77" y="47" style="fill:#81D2EB;" width="2" height="12"/>
		</g>
		<g>
			<rect x="31" y="47" style="fill:#BBE7F2;" width="2" height="12"/>
		</g>
		<g>
			
				<rect x="44.941" y="70.667" transform="matrix(0.2124 -0.9772 0.9772 0.2124 -38.7358 105.2727)" style="fill:#BBE7F2;" width="2" height="12"/>
		</g>
		<g>
			
				<rect x="63.06" y="70.667" transform="matrix(-0.2124 -0.9772 0.9772 -0.2124 2.7504 155.5507)" style="fill:#81D2EB;" width="2" height="12"/>
		</g>
		<g>
			<path style="fill:#0F6175;" d="M48.08,39c0.486,3.391,3.395,6,6.92,6c3.525,0,6.434-2.609,6.92-6H48.08z"/>
		</g>
		<g>
			<path style="fill:#0F6175;" d="M48.551,31.101c-1.035,0-1.915,0.643-2.274,1.55l0.205,0.118l1.889,0.75l-1.889,0.75l-0.222,0.128
				C46.605,35.331,47.496,36,48.551,36C49.903,36,51,34.903,51,33.551C51,32.198,49.903,31.101,48.551,31.101z"/>
		</g>
		<g>
			<path style="fill:#0F6175;" d="M61.29,31.101c-1.034,0-1.915,0.643-2.274,1.55l0.205,0.118l1.889,0.75l-1.889,0.75L59,34.397
				C59.346,35.331,60.236,36,61.29,36c1.353,0,2.45-1.097,2.45-2.449C63.74,32.198,62.643,31.101,61.29,31.101z"/>
		</g>
	</g>
</g>
<g id="Green" style="display:none;">
	<g style="display:inline;">
		<g>
			<path style="fill:#AAF0E9;" d="M81,47H64.789C67.385,44.458,69,40.92,69,37c0-7.732-6.268-14-14-14s-14,6.268-14,14
				c0,3.92,1.615,7.458,4.211,10H29c-3.313,0-6,2.687-6,6c0,3.314,2.687,6,6,6h14.641l-4.502,20.725
				c-0.705,3.238,1.351,6.433,4.588,7.137c3.238,0.703,6.435-1.352,7.138-4.589L52.444,75c0,0,0.556-4,2.556-4s2.556,4,2.556,4
				l1.58,7.273c0.704,3.238,3.9,5.292,7.138,4.589c3.237-0.704,5.293-3.899,4.588-7.137L66.359,59H81c3.313,0,6-2.686,6-6
				C87,49.687,84.313,47,81,47z"/>
		</g>
		<g>
			<path style="fill:#D7FCF9;" d="M41,37c0,3.92,1.615,7.458,4.211,10H29c-3.313,0-6,2.687-6,6s2.687,6,6,6h14.641l-4.502,20.725
				c-0.705,3.238,1.351,6.434,4.588,7.138c3.238,0.703,6.435-1.352,7.138-4.59L52.444,75c0,0,0.556-4,2.556-4V23
				C47.268,23,41,29.268,41,37z"/>
		</g>
		<g>
			<circle style="fill:#00D6C1;" cx="55" cy="52" r="2"/>
		</g>
		<g>
			<circle style="fill:#00D6C1;" cx="55" cy="59" r="2"/>
		</g>
		<g>
			<circle style="fill:#00D6C1;" cx="55" cy="66" r="2"/>
		</g>
		<g>
			<rect x="77" y="47" style="fill:#77E0C4;" width="2" height="12"/>
		</g>
		<g>
			<rect x="31" y="47" style="fill:#AAF0E9;" width="2" height="12"/>
		</g>
		<g>
			
				<rect x="44.94" y="70.667" transform="matrix(0.2124 -0.9772 0.9772 0.2124 -38.7358 105.2727)" style="fill:#AAF0E9;" width="2" height="12"/>
		</g>
		<g>
			
				<rect x="63.06" y="70.667" transform="matrix(-0.2124 -0.9772 0.9772 -0.2124 2.7504 155.5507)" style="fill:#77E0C4;" width="2" height="12"/>
		</g>
		<g>
			<path style="fill:#14635B;" d="M48.08,39c0.486,3.391,3.395,6,6.92,6c3.525,0,6.434-2.609,6.92-6H48.08z"/>
		</g>
		<g>
			<path style="fill:#14635B;" d="M48.551,31.101c-1.035,0-1.915,0.643-2.274,1.55l0.205,0.118l1.889,0.75l-1.889,0.75l-0.222,0.128
				C46.605,35.331,47.496,36,48.551,36C49.903,36,51,34.903,51,33.551C51,32.198,49.903,31.101,48.551,31.101z"/>
		</g>
		<g>
			<path style="fill:#14635B;" d="M61.29,31.101c-1.034,0-1.915,0.643-2.274,1.55l0.205,0.118l1.889,0.75l-1.889,0.75L59,34.397
				C59.346,35.331,60.236,36,61.29,36c1.353,0,2.45-1.097,2.45-2.449C63.74,32.198,62.643,31.101,61.29,31.101z"/>
		</g>
	</g>
</g>
<g id="R-Green" style="display:none;">
	<circle style="display:inline;fill:#77E0C4;" cx="55" cy="55" r="55"/>
	<g style="display:inline;">
		<g>
			<path style="fill:#AAF0E9;" d="M81,47H64.789C67.385,44.458,69,40.92,69,37c0-7.732-6.268-14-14-14s-14,6.268-14,14
				c0,3.92,1.615,7.458,4.211,10H29c-3.313,0-6,2.687-6,6c0,3.314,2.687,6,6,6h14.641l-4.502,20.725
				c-0.705,3.238,1.351,6.433,4.588,7.137c3.238,0.703,6.434-1.352,7.138-4.589L52.444,75c0,0,0.556-4,2.556-4s2.556,4,2.556,4
				l1.58,7.273c0.704,3.238,3.899,5.292,7.138,4.589c3.237-0.704,5.293-3.899,4.588-7.137L66.359,59H81c3.313,0,6-2.686,6-6
				C87,49.687,84.313,47,81,47z"/>
		</g>
		<g>
			<path style="fill:#D7FCF9;" d="M41,37c0,3.92,1.615,7.458,4.211,10H29c-3.313,0-6,2.687-6,6s2.687,6,6,6h14.641l-4.502,20.725
				c-0.705,3.238,1.351,6.434,4.588,7.138c3.238,0.703,6.434-1.352,7.138-4.59L52.444,75c0,0,0.556-4,2.556-4V23
				C47.268,23,41,29.268,41,37z"/>
		</g>
		<g>
			<circle style="fill:#00D6C1;" cx="55" cy="52" r="2"/>
		</g>
		<g>
			<circle style="fill:#00D6C1;" cx="55" cy="59" r="2"/>
		</g>
		<g>
			<circle style="fill:#00D6C1;" cx="55" cy="66" r="2"/>
		</g>
		<g>
			<rect x="77" y="47" style="fill:#77E0C4;" width="2" height="12"/>
		</g>
		<g>
			<rect x="31" y="47" style="fill:#AAF0E9;" width="2" height="12"/>
		</g>
		<g>
			
				<rect x="44.941" y="70.667" transform="matrix(0.2124 -0.9772 0.9772 0.2124 -38.7358 105.2727)" style="fill:#AAF0E9;" width="2" height="12"/>
		</g>
		<g>
			
				<rect x="63.06" y="70.667" transform="matrix(-0.2124 -0.9772 0.9772 -0.2124 2.7504 155.5507)" style="fill:#77E0C4;" width="2" height="12"/>
		</g>
		<g>
			<path style="fill:#14635B;" d="M48.08,39c0.486,3.391,3.395,6,6.92,6s6.434-2.609,6.92-6H48.08z"/>
		</g>
		<g>
			<path style="fill:#14635B;" d="M48.551,31.101c-1.035,0-1.915,0.643-2.274,1.55l0.205,0.118l1.889,0.75l-1.889,0.75l-0.222,0.128
				C46.605,35.331,47.496,36,48.551,36C49.903,36,51,34.903,51,33.551C51,32.198,49.903,31.101,48.551,31.101z"/>
		</g>
		<g>
			<path style="fill:#14635B;" d="M61.29,31.101c-1.034,0-1.915,0.643-2.274,1.55l0.205,0.118l1.889,0.75l-1.889,0.75L59,34.397
				C59.346,35.331,60.236,36,61.29,36c1.353,0,2.45-1.097,2.45-2.449C63.74,32.198,62.643,31.101,61.29,31.101z"/>
		</g>
	</g>
</g>
<g id="Red" style="display:none;">
	<g style="display:inline;">
		<g>
			<path style="fill:#FFD7D4;" d="M81,47H64.789C67.385,44.458,69,40.92,69,37c0-7.732-6.268-14-14-14s-14,6.268-14,14
				c0,3.92,1.615,7.458,4.211,10H29c-3.314,0-6,2.687-6,6c0,3.314,2.686,6,6,6h14.641l-4.502,20.725
				c-0.705,3.238,1.351,6.433,4.588,7.137c3.238,0.703,6.435-1.352,7.138-4.589L52.444,75c0,0,0.556-4,2.556-4s2.556,4,2.556,4
				l1.58,7.273c0.704,3.238,3.899,5.292,7.138,4.589c3.237-0.704,5.293-3.899,4.588-7.137L66.359,59H81c3.313,0,6-2.686,6-6
				C87,49.687,84.313,47,81,47z"/>
		</g>
		<g>
			<path style="fill:#FFEFED;" d="M41,37c0,3.92,1.615,7.458,4.211,10H29c-3.314,0-6,2.687-6,6s2.686,6,6,6h14.641l-4.502,20.725
				c-0.705,3.238,1.351,6.434,4.588,7.138c3.238,0.703,6.435-1.352,7.138-4.59L52.444,75c0,0,0.556-4,2.556-4V23
				C47.268,23,41,29.268,41,37z"/>
		</g>
		<g>
			<circle style="fill:#FF6C5E;" cx="55" cy="52" r="2"/>
		</g>
		<g>
			<circle style="fill:#FF6C5E;" cx="55" cy="59" r="2"/>
		</g>
		<g>
			<circle style="fill:#FF6C5E;" cx="55" cy="66" r="2"/>
		</g>
		<g>
			<rect x="77" y="47" style="fill:#FABBAF;" width="2" height="12"/>
		</g>
		<g>
			<rect x="31" y="47" style="fill:#FFD7D4;" width="2" height="12"/>
		</g>
		<g>
			
				<rect x="44.94" y="70.667" transform="matrix(0.2124 -0.9772 0.9772 0.2124 -38.7361 105.2719)" style="fill:#FFD7D4;" width="2" height="12"/>
		</g>
		<g>
			
				<rect x="63.06" y="70.667" transform="matrix(-0.2124 -0.9772 0.9772 -0.2124 2.7496 155.5501)" style="fill:#FABBAF;" width="2" height="12"/>
		</g>
		<g>
			<path style="fill:#7D261E;" d="M48.08,39c0.486,3.391,3.394,6,6.92,6c3.525,0,6.434-2.609,6.92-6H48.08z"/>
		</g>
		<g>
			<path style="fill:#7D261E;" d="M48.551,31.101c-1.035,0-1.915,0.643-2.274,1.55l0.205,0.118l1.889,0.75l-1.889,0.75l-0.222,0.128
				C46.605,35.331,47.496,36,48.551,36C49.903,36,51,34.903,51,33.551C51,32.198,49.903,31.101,48.551,31.101z"/>
		</g>
		<g>
			<path style="fill:#7D261E;" d="M61.29,31.101c-1.034,0-1.915,0.643-2.274,1.55l0.205,0.118l1.889,0.75l-1.889,0.75L59,34.397
				C59.346,35.331,60.236,36,61.29,36c1.353,0,2.45-1.097,2.45-2.449C63.74,32.198,62.643,31.101,61.29,31.101z"/>
		</g>
	</g>
</g>
<g id="R-Red" style="display:none;">
	<circle style="display:inline;fill:#FABBAF;" cx="55" cy="55" r="55"/>
	<g style="display:inline;">
		<g>
			<path style="fill:#FFD7D4;" d="M81,47H64.789C67.385,44.458,69,40.92,69,37c0-7.732-6.268-14-14-14s-14,6.268-14,14
				c0,3.92,1.615,7.458,4.211,10H29c-3.314,0-6,2.687-6,6c0,3.314,2.686,6,6,6h14.641l-4.502,20.725
				c-0.705,3.238,1.351,6.433,4.588,7.137c3.238,0.703,6.435-1.352,7.138-4.589L52.444,75c0,0,0.556-4,2.556-4s2.556,4,2.556,4
				l1.58,7.273c0.704,3.238,3.899,5.292,7.138,4.589c3.237-0.704,5.293-3.899,4.588-7.137L66.359,59H81c3.313,0,6-2.686,6-6
				C87,49.687,84.313,47,81,47z"/>
		</g>
		<g>
			<path style="fill:#FFEFED;" d="M41,37c0,3.92,1.615,7.458,4.211,10H29c-3.314,0-6,2.687-6,6s2.686,6,6,6h14.641l-4.502,20.725
				c-0.705,3.238,1.351,6.434,4.588,7.138c3.238,0.703,6.435-1.352,7.138-4.59L52.444,75c0,0,0.556-4,2.556-4V23
				C47.268,23,41,29.268,41,37z"/>
		</g>
		<g>
			<circle style="fill:#FF6C5E;" cx="55" cy="52" r="2"/>
		</g>
		<g>
			<circle style="fill:#FF6C5E;" cx="55" cy="59" r="2"/>
		</g>
		<g>
			<circle style="fill:#FF6C5E;" cx="55" cy="66" r="2"/>
		</g>
		<g>
			<rect x="77" y="47" style="fill:#FABBAF;" width="2" height="12"/>
		</g>
		<g>
			<rect x="31" y="47" style="fill:#FFD7D4;" width="2" height="12"/>
		</g>
		<g>
			
				<rect x="44.94" y="70.667" transform="matrix(0.2124 -0.9772 0.9772 0.2124 -38.7361 105.2719)" style="fill:#FFD7D4;" width="2" height="12"/>
		</g>
		<g>
			
				<rect x="63.06" y="70.667" transform="matrix(-0.2124 -0.9772 0.9772 -0.2124 2.7496 155.5501)" style="fill:#FABBAF;" width="2" height="12"/>
		</g>
		<g>
			<path style="fill:#7D261E;" d="M48.08,39c0.486,3.391,3.394,6,6.92,6c3.525,0,6.434-2.609,6.92-6H48.08z"/>
		</g>
		<g>
			<path style="fill:#7D261E;" d="M48.551,31.101c-1.035,0-1.915,0.643-2.274,1.55l0.205,0.118l1.889,0.75l-1.889,0.75l-0.222,0.128
				C46.605,35.331,47.496,36,48.551,36C49.903,36,51,34.903,51,33.551C51,32.198,49.903,31.101,48.551,31.101z"/>
		</g>
		<g>
			<path style="fill:#7D261E;" d="M61.29,31.101c-1.034,0-1.915,0.643-2.274,1.55l0.205,0.118l1.889,0.75l-1.889,0.75L59,34.397
				C59.346,35.331,60.236,36,61.29,36c1.353,0,2.45-1.097,2.45-2.449C63.74,32.198,62.643,31.101,61.29,31.101z"/>
		</g>
	</g>
</g>
<g id="Yellow" style="display:none;">
	<g style="display:inline;">
		<g>
			<path style="fill:#FFE9A1;" d="M81,47H64.789C67.385,44.458,69,40.92,69,37c0-7.732-6.268-14-14-14s-14,6.268-14,14
				c0,3.92,1.615,7.458,4.211,10H29c-3.313,0-6,2.687-6,6c0,3.314,2.687,6,6,6h14.641l-4.502,20.725
				c-0.705,3.238,1.351,6.433,4.588,7.137c3.238,0.703,6.434-1.352,7.138-4.589L52.444,75c0,0,0.556-4,2.556-4s2.556,4,2.556,4
				l1.58,7.273c0.704,3.238,3.899,5.292,7.138,4.589c3.237-0.704,5.293-3.899,4.588-7.137L66.359,59H81c3.313,0,6-2.686,6-6
				C87,49.687,84.313,47,81,47z"/>
		</g>
		<g>
			<path style="fill:#FFF5D9;" d="M41,37c0,3.92,1.615,7.458,4.211,10H29c-3.313,0-6,2.687-6,6s2.687,6,6,6h14.641l-4.502,20.725
				c-0.705,3.238,1.351,6.434,4.588,7.138c3.238,0.703,6.434-1.352,7.138-4.59L52.444,75c0,0,0.556-4,2.556-4V23
				C47.268,23,41,29.268,41,37z"/>
		</g>
		<g>
			<circle style="fill:#FFAA00;" cx="55" cy="52" r="2"/>
		</g>
		<g>
			<circle style="fill:#FFAA00;" cx="55" cy="59" r="2"/>
		</g>
		<g>
			<circle style="fill:#FFAA00;" cx="55" cy="66" r="2"/>
		</g>
		<g>
			<rect x="77" y="47" style="fill:#FFD75E;" width="2" height="12"/>
		</g>
		<g>
			<rect x="31" y="47" style="fill:#FFE9A1;" width="2" height="12"/>
		</g>
		<g>
			
				<rect x="44.941" y="70.667" transform="matrix(0.2124 -0.9772 0.9772 0.2124 -38.7358 105.2727)" style="fill:#FFE9A1;" width="2" height="12"/>
		</g>
		<g>
			
				<rect x="63.06" y="70.667" transform="matrix(-0.2124 -0.9772 0.9772 -0.2124 2.7504 155.5507)" style="fill:#FFD75E;" width="2" height="12"/>
		</g>
		<g>
			<path style="fill:#66510D;" d="M48.08,39c0.486,3.391,3.395,6,6.92,6s6.434-2.609,6.92-6H48.08z"/>
		</g>
		<g>
			<path style="fill:#66510D;" d="M48.551,31.101c-1.035,0-1.915,0.643-2.274,1.55l0.205,0.118l1.889,0.75l-1.889,0.75l-0.222,0.128
				C46.605,35.331,47.496,36,48.551,36C49.903,36,51,34.903,51,33.551C51,32.198,49.903,31.101,48.551,31.101z"/>
		</g>
		<g>
			<path style="fill:#66510D;" d="M61.29,31.101c-1.034,0-1.915,0.643-2.274,1.55l0.205,0.118l1.889,0.75l-1.889,0.75L59,34.397
				C59.346,35.331,60.236,36,61.29,36c1.353,0,2.45-1.097,2.45-2.449C63.74,32.198,62.643,31.101,61.29,31.101z"/>
		</g>
	</g>
</g>
<g id="R-Yellow" style="display:none;">
	<circle style="display:inline;fill:#FFD75E;" cx="55" cy="55" r="55"/>
	<g style="display:inline;">
		<g>
			<path style="fill:#FFE9A1;" d="M81,47H64.789C67.385,44.458,69,40.92,69,37c0-7.732-6.268-14-14-14s-14,6.268-14,14
				c0,3.92,1.615,7.458,4.211,10H29c-3.313,0-6,2.687-6,6c0,3.314,2.687,6,6,6h14.641l-4.502,20.725
				c-0.705,3.238,1.351,6.433,4.588,7.137c3.238,0.703,6.435-1.352,7.138-4.589L52.444,75c0,0,0.556-4,2.556-4s2.556,4,2.556,4
				l1.58,7.273c0.704,3.238,3.9,5.292,7.138,4.589c3.237-0.704,5.293-3.899,4.588-7.137L66.359,59H81c3.313,0,6-2.686,6-6
				C87,49.687,84.313,47,81,47z"/>
		</g>
		<g>
			<path style="fill:#FFF5D9;" d="M41,37c0,3.92,1.615,7.458,4.211,10H29c-3.313,0-6,2.687-6,6s2.687,6,6,6h14.641l-4.502,20.725
				c-0.705,3.238,1.351,6.434,4.588,7.138c3.238,0.703,6.435-1.352,7.138-4.59L52.444,75c0,0,0.556-4,2.556-4V23
				C47.268,23,41,29.268,41,37z"/>
		</g>
		<g>
			<circle style="fill:#FFAA00;" cx="55" cy="52" r="2"/>
		</g>
		<g>
			<circle style="fill:#FFAA00;" cx="55" cy="59" r="2"/>
		</g>
		<g>
			<circle style="fill:#FFAA00;" cx="55" cy="66" r="2"/>
		</g>
		<g>
			<rect x="77" y="47" style="fill:#FFD75E;" width="2" height="12"/>
		</g>
		<g>
			<rect x="31" y="47" style="fill:#FFE9A1;" width="2" height="12"/>
		</g>
		<g>
			
				<rect x="44.94" y="70.667" transform="matrix(0.2124 -0.9772 0.9772 0.2124 -38.7358 105.2727)" style="fill:#FFE9A1;" width="2" height="12"/>
		</g>
		<g>
			
				<rect x="63.06" y="70.667" transform="matrix(-0.2124 -0.9772 0.9772 -0.2124 2.7504 155.5507)" style="fill:#FFD75E;" width="2" height="12"/>
		</g>
		<g>
			<path style="fill:#66510D;" d="M48.08,39c0.486,3.391,3.395,6,6.92,6c3.525,0,6.434-2.609,6.92-6H48.08z"/>
		</g>
		<g>
			<path style="fill:#66510D;" d="M48.551,31.101c-1.035,0-1.915,0.643-2.274,1.55l0.205,0.118l1.889,0.75l-1.889,0.75l-0.222,0.128
				C46.605,35.331,47.496,36,48.551,36C49.903,36,51,34.903,51,33.551C51,32.198,49.903,31.101,48.551,31.101z"/>
		</g>
		<g>
			<path style="fill:#66510D;" d="M61.29,31.101c-1.034,0-1.915,0.643-2.274,1.55l0.205,0.118l1.889,0.75l-1.889,0.75L59,34.397
				C59.346,35.331,60.236,36,61.29,36c1.353,0,2.45-1.097,2.45-2.449C63.74,32.198,62.643,31.101,61.29,31.101z"/>
		</g>
	</g>
</g>
</svg>
