<?xml version="1.0" encoding="iso-8859-1"?>
<!-- Generator: Adobe Illustrator 17.1.0, SVG Export Plug-In . SVG Version: 6.00 Build 0)  -->
<!DOCTYPE svg PUBLIC "-//W3C//DTD SVG 1.0//EN" "http://www.w3.org/TR/2001/REC-SVG-20010904/DTD/svg10.dtd">
<svg version="1.0" xmlns="http://www.w3.org/2000/svg" xmlns:xlink="http://www.w3.org/1999/xlink" x="0px" y="0px" width="110px"
	 height="110px" viewBox="0 0 110 110" style="enable-background:new 0 0 110 110;" xml:space="preserve">
<g id="Artboard">
</g>
<g id="Multicolor">
	<circle style="fill:#E04F5F;" cx="55" cy="55" r="55"/>
	<g>
		<circle style="fill:#FACB1B;" cx="55" cy="55" r="32"/>
		<path style="fill:#FBE158;" d="M23,55c0,17.673,14.327,32,32,32V23C37.327,23,23,37.327,23,55z"/>
		<path style="fill:#FFFFFF;" d="M51,44.5c0-4.971-4.029-9-9-9s-9,4.029-9,9c0,4,3.179,7,9,7C47.832,51.5,51,48.5,51,44.5z"/>
		<path style="fill:#FFFFFF;" d="M59,44.5c0-4.971,4.029-9,9-9s9,4.029,9,9c0,4-3.178,7-9,7C62.168,51.5,59,48.5,59,44.5z"/>
		<path style="fill:#FA5655;" d="M76.26,57.361c0.647-0.191,1.347-0.043,1.861,0.394s0.774,1.104,0.69,1.773
			C77.816,67.422,72.983,74.12,66.24,77.7c-1.7-3.04-6.09-5.2-11.24-5.2s-9.54,2.16-11.24,5.2
			c-6.743-3.58-11.576-10.278-12.57-18.172c-0.084-0.67,0.175-1.337,0.689-1.774c0.514-0.437,1.214-0.584,1.862-0.393
			C47.913,61.543,62.087,61.543,76.26,57.361z"/>
		<path style="fill:#F79392;" d="M66.24,77.7c-3.36,1.79-7.18,2.8-11.24,2.8s-7.88-1.01-11.24-2.8c1.7-3.04,6.09-5.2,11.24-5.2
			S64.54,74.66,66.24,77.7z"/>
		<circle style="fill:#059BBF;" cx="68" cy="44.5" r="3"/>
		<circle style="fill:#059BBF;" cx="42" cy="44.5" r="3"/>
	</g>
</g>
</svg>
