<?xml version="1.0" encoding="iso-8859-1"?>
<!-- Generator: Adobe Illustrator 17.1.0, SVG Export Plug-In . SVG Version: 6.00 Build 0)  -->
<!DOCTYPE svg PUBLIC "-//W3C//DTD SVG 1.0//EN" "http://www.w3.org/TR/2001/REC-SVG-20010904/DTD/svg10.dtd">
<svg version="1.0" xmlns="http://www.w3.org/2000/svg" xmlns:xlink="http://www.w3.org/1999/xlink" x="0px" y="0px" width="110px"
	 height="110px" viewBox="0 0 110 110" style="enable-background:new 0 0 110 110;" xml:space="preserve">
<g id="Artboard">
</g>
<g id="Multicolor">
	<circle style="fill:#E04F5F;" cx="55" cy="55" r="55"/>
	<g>
		<g>
			<path style="fill:#FFFFFF;" d="M86.394,47c-5.229-2.614-10.458-2.614-15.687-2.614c-3.475,0-6.614,0.937-8.957,2.614
				c-2.751,0-6.731,0-6.731,0s-3.979,0-6.731,0c-2.343-1.677-5.482-2.614-8.957-2.614c-5.229,0-10.458,0-15.688,2.614
				c-2.142,1.071,2.454,20.917,15.688,20.917c7.22,0,13.073-6.575,13.073-13.073c0-0.591-0.06-1.155-0.166-1.696
				c-0.226-1.153,0.345-2.315,1.396-2.84c0.872-0.436,1.898-0.436,2.77,0c1.053,0.526,1.622,1.687,1.396,2.841
				c-0.106,0.541-0.166,1.105-0.166,1.696c0,6.498,5.853,13.073,13.073,13.073C83.953,67.917,88.53,48.068,86.394,47z"/>
		</g>
		<g>
			<circle style="fill:#40C9E7;" cx="38.771" cy="56.151" r="9.151"/>
		</g>
		<g>
			<circle style="fill:#40C9E7;" cx="71.055" cy="56.151" r="9.151"/>
		</g>
		<g>
			<path style="fill:#6FDAF1;" d="M43.794,48.513C42.352,47.562,40.628,47,38.771,47c-5.054,0-9.151,4.097-9.151,9.151
				c0,1.858,0.562,3.581,1.513,5.024L43.794,48.513z"/>
		</g>
		<g>
			<path style="fill:#9CE5F4;" d="M76.079,48.513C74.636,47.562,72.913,47,71.055,47c-5.054,0-9.151,4.097-9.151,9.151
				c0,1.858,0.562,3.581,1.513,5.024L76.079,48.513z"/>
		</g>
	</g>
</g>
</svg>
