<?xml version="1.0" encoding="iso-8859-1"?>
<!-- Generator: Adobe Illustrator 17.1.0, SVG Export Plug-In . SVG Version: 6.00 Build 0)  -->
<!DOCTYPE svg PUBLIC "-//W3C//DTD SVG 1.0//EN" "http://www.w3.org/TR/2001/REC-SVG-20010904/DTD/svg10.dtd">
<svg version="1.0" xmlns="http://www.w3.org/2000/svg" xmlns:xlink="http://www.w3.org/1999/xlink" x="0px" y="0px" width="110px"
	 height="110px" viewBox="0 0 110 110" style="enable-background:new 0 0 110 110;" xml:space="preserve">
<g id="Artboard">
</g>
<g id="Multicolor">
	<circle style="fill:#E04F5F;" cx="55" cy="55" r="55"/>
	<g>
		<path style="fill:#F0F1F1;" d="M79,39V27c0-2.209-1.791-4-4-4H61l-6,11h8l-5,9h5L52,57l3-10h-4l4-9h-9l5-15H35
			c-2.209,0-4,1.791-4,4v12c0,11.891,8.65,21.757,20,23.662V79c0,2.209-1.791,4-4,4h-8c-2.209,0-4,1.791-4,4h40c0-2.209-1.791-4-4-4
			h-8c-2.209,0-4-1.791-4-4V62.662C70.35,60.757,79,50.891,79,39z"/>
		<path style="fill:#FFFFFF;" d="M47,83h-8c-2.209,0-4,1.791-4,4h20V53.182L52,57l3-10h-4l4-9h-9l5-15H35c-2.209,0-4,1.791-4,4v12
			c0,11.891,8.65,21.757,20,23.662V79C51,81.209,49.209,83,47,83z"/>
	</g>
</g>
</svg>
