<?xml version="1.0" encoding="iso-8859-1"?>
<!-- Generator: Adobe Illustrator 17.1.0, SVG Export Plug-In . SVG Version: 6.00 Build 0)  -->
<!DOCTYPE svg PUBLIC "-//W3C//DTD SVG 1.0//EN" "http://www.w3.org/TR/2001/REC-SVG-20010904/DTD/svg10.dtd">
<svg version="1.0" xmlns="http://www.w3.org/2000/svg" xmlns:xlink="http://www.w3.org/1999/xlink" x="0px" y="0px" width="110px"
	 height="110px" viewBox="0 0 110 110" style="enable-background:new 0 0 110 110;" xml:space="preserve">
<g id="Artboard">
</g>
<g id="Multicolor">
	<circle style="fill:#FABC3D;" cx="55" cy="55" r="55"/>
	<g>
		<g>
			<path style="fill:#12B2A0;" d="M65.816,28.483C71.103,38.268,61.72,45.371,59,55c-7.084,25.075,32.443,28.283,27-3
				C82.895,34.156,65.816,28.483,65.816,28.483"/>
		</g>
		<g>
			<path style="fill:#47C4B7;" d="M65.815,28.483C71.104,38.269,61.72,45.371,59,55c-0.72,2.55-0.952,4.87-0.805,6.954
				l26.373-15.226C79.453,33.023,65.815,28.483,65.815,28.483z"/>
		</g>
		<g>
			<path style="fill:#21B2D1;" d="M52.473,27v56c-15.444,0-28-12.549-28-28C24.473,39.531,37.046,27,52.473,27z"/>
		</g>
		<g>
			<path style="fill:#FFFFFF;" d="M52.473,41v-2c-2.417,0-4.755,0.143-7,0.402V27.89c-0.68,0.17-1.35,0.37-2,0.59v11.188
				c-2.872,0.435-5.559,1.073-8,1.886V32.76c-0.7,0.53-1.36,1.09-2,1.69v7.824c-3.139,1.241-5.787,2.789-7.79,4.566
				c-0.41,1.33-0.71,2.7-0.92,4.11c1.625-2.498,4.694-4.72,8.71-6.427V54h-9v2h9v9.477c-4.016-1.707-7.085-3.929-8.71-6.427
				c0.21,1.41,0.51,2.78,0.92,4.11c2.003,1.777,4.651,3.326,7.79,4.566v7.824c0.64,0.6,1.3,1.16,2,1.69v-8.794
				c2.441,0.814,5.128,1.451,8,1.886V81.52c0.65,0.22,1.32,0.42,2,0.59V70.598c2.245,0.258,4.583,0.402,7,0.402v-2
				c-2.404,0-4.75-0.15-7-0.431V56h7v-2h-7V41.431C47.724,41.15,50.07,41,52.473,41z M43.473,68.277
				c-2.884-0.472-5.578-1.161-8-2.026V56h8V68.277z M43.473,54h-8V43.749c2.422-0.864,5.116-1.554,8-2.026V54z"/>
		</g>
		<g>
			<path style="fill:#C2FCF5;" d="M71.054,35.873c-0.029,0.014,12.858,23.474-6.758,43.949c-0.272,0.284-0.366,0.695-0.243,1.069
				c0.122,0.374,0.441,0.65,0.828,0.718c0.694,0.121,1.4,0.2,2.113,0.237c0.343,0.018,0.674-0.131,0.888-0.399
				C75.864,71.464,82.011,55.995,71.054,35.873z"/>
		</g>
	</g>
</g>
</svg>
