<?xml version="1.0" encoding="iso-8859-1"?>
<!-- Generator: Adobe Illustrator 17.1.0, SVG Export Plug-In . SVG Version: 6.00 Build 0)  -->
<!DOCTYPE svg PUBLIC "-//W3C//DTD SVG 1.0//EN" "http://www.w3.org/TR/2001/REC-SVG-20010904/DTD/svg10.dtd">
<svg version="1.0" xmlns="http://www.w3.org/2000/svg" xmlns:xlink="http://www.w3.org/1999/xlink" x="0px" y="0px" width="110px"
	 height="110px" viewBox="0 0 110 110" style="enable-background:new 0 0 110 110;" xml:space="preserve">
<g id="Artboard">
</g>
<g id="Multicolor">
	<circle style="fill:#25B7D3;" cx="55" cy="55" r="55"/>
	<g>
		<path style="fill:#F0F1F1;" d="M75,55c0-4.418-3.582-8-8-8H43c-4.418,0-8,3.582-8,8v30c0,1.105,0.895,2,2,2h36
			c1.105,0,2-0.895,2-2V55z"/>
		<path style="fill:#FFFFFF;" d="M55,47H43c-4.418,0-8,3.582-8,8v30c0,1.104,0.896,2,2,2h18V47z"/>
		<path style="fill:#F0F1F1;" d="M64,24.5h-7.77l1.047,3H64c4.136,0,7.5,3.364,7.5,7.5c0,3.442-2.333,6.343-5.5,7.221v3.083
			c4.836-0.937,8.5-5.198,8.5-10.304C74.5,29.21,69.79,24.5,64,24.5z"/>
		<rect x="44" y="41" style="fill:#E2E4E5;" width="22" height="6"/>
		<rect x="46" y="41" style="fill:#FFFFFF;" width="2" height="6"/>
		<rect x="50" y="41" style="fill:#FFFFFF;" width="2" height="6"/>
		<rect x="54" y="41" style="fill:#FFFFFF;" width="2" height="6"/>
		<rect x="58" y="41" style="fill:#FFFFFF;" width="2" height="6"/>
		<rect x="62" y="41" style="fill:#FFFFFF;" width="2" height="6"/>
		<path style="fill:#FFFFFF;" d="M62,41H48c5.044-14.413,3.65-10.424,6.07-17.36C54.22,23.25,54.59,23,55,23
			c0.41,0,0.78,0.25,0.93,0.64C58.35,30.577,56.955,26.585,62,41z"/>
		<path style="fill:#6FDAF1;" d="M64,58c-5.333-4-12.667-4-18,0v21h18V58z"/>
	</g>
</g>
</svg>
