<?xml version="1.0" encoding="iso-8859-1"?>
<!-- Generator: Adobe Illustrator 17.1.0, SVG Export Plug-In . SVG Version: 6.00 Build 0)  -->
<!DOCTYPE svg PUBLIC "-//W3C//DTD SVG 1.0//EN" "http://www.w3.org/TR/2001/REC-SVG-20010904/DTD/svg10.dtd">
<svg version="1.0" xmlns="http://www.w3.org/2000/svg" xmlns:xlink="http://www.w3.org/1999/xlink" x="0px" y="0px" width="110px"
	 height="110px" viewBox="0 0 110 110" style="enable-background:new 0 0 110 110;" xml:space="preserve">
<g id="Artboard">
</g>
<g id="Multicolor">
	<circle style="fill:#25B7D3;" cx="55" cy="55" r="55"/>
	<g>
		<path style="fill:#F3B607;" d="M48.618,64.368C48.346,63.551,47.582,63,46.721,63H33.604c-0.861,0-1.625,0.551-1.897,1.368
			l-7.105,21.316c-0.102,0.305-0.051,0.64,0.137,0.901C24.926,86.845,25.228,87,25.55,87h29.225c0.321,0,0.623-0.155,0.811-0.415
			c0.188-0.261,0.239-0.596,0.137-0.901L48.618,64.368z"/>
		<path style="fill:#F3B607;" d="M64.231,40.368C63.958,39.551,63.194,39,62.333,39H49.216c-0.861,0-1.625,0.551-1.897,1.368
			l-7.105,21.316c-0.102,0.305-0.051,0.64,0.137,0.901S40.841,63,41.162,63h29.225c0.321,0,0.623-0.155,0.811-0.415
			s0.239-0.596,0.137-0.901L64.231,40.368z"/>
		<path style="fill:#F3B607;" d="M79.843,64.368C79.571,63.551,78.807,63,77.946,63H64.829c-0.861,0-1.625,0.551-1.897,1.368
			l-7.105,21.316c-0.102,0.305-0.051,0.64,0.137,0.901C56.152,86.845,56.453,87,56.775,87H86c0.321,0,0.623-0.155,0.811-0.415
			c0.188-0.261,0.239-0.596,0.137-0.901L79.843,64.368z"/>
		<path style="fill:#FBE158;" d="M46.721,63H33.604c-0.861,0-1.625,0.551-1.897,1.368l-7.105,21.316
			c-0.102,0.305-0.05,0.64,0.138,0.901c0.074,0.103,0.169,0.183,0.273,0.25l23.17-23.17C47.81,63.26,47.294,63,46.721,63z"/>
		<path style="fill:#FBE158;" d="M62.314,39H49.197c-0.861,0-1.625,0.551-1.897,1.368l-7.105,21.316
			c-0.102,0.305-0.05,0.64,0.138,0.901c0.074,0.103,0.169,0.183,0.273,0.25l23.17-23.17C63.404,39.26,62.888,39,62.314,39z"/>
		<path style="fill:#FBE158;" d="M77.946,63H64.829c-0.861,0-1.625,0.551-1.897,1.368l-7.105,21.316
			c-0.102,0.305-0.05,0.64,0.138,0.901c0.074,0.103,0.169,0.183,0.273,0.25l23.17-23.17C79.036,63.26,78.519,63,77.946,63z"/>
		<path style="fill:#FFFFFF;" d="M84.742,36.24c-4.485,0.631-7.042,3.188-7.672,7.672c-0.026,0.187-0.283,0.187-0.31,0
			c-0.631-4.484-3.188-7.042-7.672-7.672c-0.187-0.026-0.187-0.283,0-0.31c4.485-0.631,7.042-3.188,7.672-7.672
			c0.026-0.187,0.283-0.187,0.31,0c0.631,4.484,3.188,7.042,7.672,7.672C84.928,35.957,84.928,36.214,84.742,36.24z"/>
		<path style="fill:#FFFFFF;" d="M38.794,43.122c-4.485,0.631-7.042,3.188-7.672,7.672c-0.026,0.187-0.283,0.187-0.31,0
			c-0.631-4.484-3.188-7.042-7.672-7.672c-0.187-0.026-0.187-0.283,0-0.31c4.485-0.631,7.042-3.188,7.672-7.672
			c0.026-0.187,0.283-0.187,0.31,0c0.631,4.484,3.188,7.042,7.672,7.672C38.981,42.838,38.981,43.095,38.794,43.122z"/>
	</g>
</g>
</svg>
