<?xml version="1.0" encoding="iso-8859-1"?>
<!-- Generator: Adobe Illustrator 17.1.0, SVG Export Plug-In . SVG Version: 6.00 Build 0)  -->
<!DOCTYPE svg PUBLIC "-//W3C//DTD SVG 1.0//EN" "http://www.w3.org/TR/2001/REC-SVG-20010904/DTD/svg10.dtd">
<svg version="1.0" xmlns="http://www.w3.org/2000/svg" xmlns:xlink="http://www.w3.org/1999/xlink" x="0px" y="0px" width="110px"
	 height="110px" viewBox="0 0 110 110" style="enable-background:new 0 0 110 110;" xml:space="preserve">
<g id="Artboard">
</g>
<g id="Multicolor">
	<circle style="fill:#32BEA6;" cx="55" cy="55" r="55"/>
	<g>
		<g>
			<circle style="fill:#F0F1F1;" cx="55" cy="47" r="24"/>
		</g>
		<g>
			<path style="fill:#FFFFFF;" d="M55,23c-13.255,0-24,10.745-24,24c0,7.499,3.441,14.192,8.828,18.594l33.766-33.766
				C69.192,26.441,62.499,23,55,23z"/>
		</g>
		<g>
			<path style="fill:#3E3E3F;" d="M63.675,70H46.325c-0.773,0-1.172,0.873-0.661,1.453c3.85,4.372,5.758,9.11,5.758,15.547h7.158
				c0-6.444,1.911-11.18,5.758-15.547C64.847,70.873,64.448,70,63.675,70z"/>
		</g>
		<g>
			<circle style="fill:#CFD3D4;" cx="71" cy="47" r="2"/>
		</g>
		<g>
			<circle style="fill:#CFD3D4;" cx="75" cy="43" r="2"/>
		</g>
		<g>
			<circle style="fill:#CFD3D4;" cx="74" cy="51" r="2"/>
		</g>
		<g>
			<circle style="fill:#CFD3D4;" cx="55" cy="63" r="2"/>
		</g>
		<g>
			<circle style="fill:#CFD3D4;" cx="67" cy="59" r="2"/>
		</g>
		<g>
			<circle style="fill:#CFD3D4;" cx="70" cy="55" r="2"/>
		</g>
		<g>
			<circle style="fill:#CFD3D4;" cx="67" cy="51" r="2"/>
		</g>
		<g>
			<circle style="fill:#CFD3D4;" cx="63" cy="55" r="2"/>
		</g>
		<g>
			<circle style="fill:#CFD3D4;" cx="63" cy="63" r="2"/>
		</g>
		<g>
			<circle style="fill:#CFD3D4;" cx="59" cy="59" r="2"/>
		</g>
		<g>
			<path style="fill:#5B5C5F;" d="M55,70h-8.675c-0.773,0-1.172,0.873-0.661,1.453c3.85,4.371,5.758,9.11,5.758,15.547H55V70z"/>
		</g>
	</g>
</g>
</svg>
