<?xml version="1.0" encoding="iso-8859-1"?>
<!-- Generator: Adobe Illustrator 17.1.0, SVG Export Plug-In . SVG Version: 6.00 Build 0)  -->
<!DOCTYPE svg PUBLIC "-//W3C//DTD SVG 1.0//EN" "http://www.w3.org/TR/2001/REC-SVG-20010904/DTD/svg10.dtd">
<svg version="1.0" xmlns="http://www.w3.org/2000/svg" xmlns:xlink="http://www.w3.org/1999/xlink" x="0px" y="0px" width="110px"
	 height="110px" viewBox="0 0 110 110" style="enable-background:new 0 0 110 110;" xml:space="preserve">
<g id="Artboard">
</g>
<g id="Multicolor">
	<circle style="fill:#E04F5F;" cx="55" cy="55" r="55"/>
	<g>
		<g>
			<circle style="fill:#F0F1F1;" cx="55" cy="55" r="32"/>
		</g>
		<g>
			<path style="fill:#FFFFFF;" d="M55,23c-17.673,0-32,14.327-32,32c0,3.472,0.56,6.811,1.583,9.941l40.358-40.358
				C61.811,23.56,58.472,23,55,23z"/>
		</g>
		<g>
			<circle style="fill:#3E3E3F;" cx="55" cy="55" r="28"/>
		</g>
		<g>
			<rect x="55" y="55" style="fill:#EBEBEC;" width="0" height="0"/>
		</g>
		<g>
			<g>
				<path style="fill:#EBEBEC;" d="M47.895,49.677h6.018l-2.925,10.36h-1.965l2.499-8.684h-3.626V49.677z"/>
			</g>
			<g>
				<path style="fill:#EBEBEC;" d="M58.285,49.525c1.016,0,1.808,0.272,2.377,0.815c0.569,0.543,0.853,1.318,0.853,2.323v4.448
					c0,0.867-0.24,1.691-0.884,2.278c-0.637,0.58-1.489,0.8-2.346,0.8c-1.005,0-1.79-0.254-2.354-0.762
					c-0.564-0.508-0.845-1.264-0.845-2.27v-4.494c0-1.006,0.279-1.78,0.838-2.323C56.482,49.797,57.269,49.525,58.285,49.525z
					 M59.625,52.664c0-0.477-0.102-0.84-0.305-1.089c-0.203-0.249-0.548-0.373-1.036-0.373c-0.467,0-0.802,0.13-1.005,0.389
					c-0.203,0.259-0.305,0.617-0.305,1.074v4.494c0,0.457,0.104,0.797,0.312,1.021c0.208,0.224,0.541,0.335,0.998,0.335
					c0.467,0,0.807-0.117,1.021-0.35s0.32-0.584,0.32-1.051V52.664z"/>
			</g>
		</g>
		<g>
			<path style="fill:#5B5C5F;" d="M55,27c-15.464,0-28,12.536-28,28c0,2.313,0.286,4.559,0.815,6.708l33.894-33.894
				C59.559,27.286,57.313,27,55,27z"/>
		</g>
		<g>
			<path style="fill:#F3B607;" d="M42.372,70.503l4.809-6.412C44.625,61.891,43,58.638,43,55c0-6.627,5.373-12,12-12s12,5.373,12,12
				c0,3.638-1.625,6.891-4.182,9.091l4.809,6.412C72.125,66.836,75,61.255,75,55c0-11.046-8.954-20-20-20s-20,8.954-20,20
				C35,61.255,37.875,66.836,42.372,70.503z"/>
		</g>
		<g>
			<path style="fill:#FBE158;" d="M61.768,36.2l-1.857,7.859c1.441,0.648,2.727,1.571,3.799,2.703l6.773-4.416
				C68.214,39.572,65.206,37.438,61.768,36.2z"/>
		</g>
		<g>
			<path style="fill:#FFFFFF;" d="M59.909,44.003c-0.128,0.537-0.667,0.869-1.204,0.741c-0.537-0.128-0.869-0.667-0.741-1.204
				l1.852-7.783c0.128-0.537,0.667-0.869,1.204-0.741s0.869,0.667,0.741,1.204L59.909,44.003z"/>
		</g>
		<g>
			<path style="fill:#FFFFFF;" d="M64.884,48.395c-0.461,0.304-1.081,0.176-1.385-0.285c-0.304-0.461-0.176-1.081,0.285-1.385
				l6.68-4.401c0.461-0.304,1.081-0.176,1.385,0.285c0.304,0.461,0.176,1.081-0.285,1.385L64.884,48.395z"/>
		</g>
		<g>
			<path style="fill:#FACB1B;" d="M35.025,54.498l19.473-19.473C43.855,35.29,35.29,43.855,35.025,54.498z"/>
		</g>
	</g>
</g>
</svg>
