<?xml version="1.0" encoding="iso-8859-1"?>
<!-- Generator: Adobe Illustrator 17.1.0, SVG Export Plug-In . SVG Version: 6.00 Build 0)  -->
<!DOCTYPE svg PUBLIC "-//W3C//DTD SVG 1.0//EN" "http://www.w3.org/TR/2001/REC-SVG-20010904/DTD/svg10.dtd">
<svg version="1.0" xmlns="http://www.w3.org/2000/svg" xmlns:xlink="http://www.w3.org/1999/xlink" x="0px" y="0px" width="110px"
	 height="110px" viewBox="0 0 110 110" style="enable-background:new 0 0 110 110;" xml:space="preserve">
<g id="Artboard">
</g>
<g id="Multicolor">
	<g>
		<circle style="fill:#E04F5F;" cx="55" cy="55" r="55"/>
	</g>
	<g>
		<path style="fill:#3E3E3F;" d="M87,86.997L83,69l-4.621,3.594L65,69v-5.001l-3.243,3.241c-1.125,1.125-2.651,1.757-4.242,1.757H55
			h-2.516c-1.591,0-3.116-0.632-4.242-1.757L45,63.999V69l-13.379,3.594L27,69l-4,17.997l0.001-0.001L23,87h32h32l-0.001-0.004
			L87,86.997z"/>
		<g>
			<circle style="fill:#FFFFFF;" cx="43.5" cy="78.5" r="1.5"/>
		</g>
		<g>
			<circle style="fill:#FFFFFF;" cx="40.5" cy="73.5" r="1.5"/>
		</g>
		<g>
			<circle style="fill:#FFFFFF;" cx="46.5" cy="83.5" r="1.5"/>
		</g>
		<g>
			<circle style="fill:#FFFFFF;" cx="66.5" cy="78.5" r="1.5"/>
		</g>
		<g>
			<circle style="fill:#FFFFFF;" cx="69.5" cy="73.5" r="1.5"/>
		</g>
		<g>
			<circle style="fill:#FFFFFF;" cx="63.5" cy="83.5" r="1.5"/>
		</g>
		<polygon style="fill:#FFFFFF;" points="59,78 56.001,78 56.001,76 54.001,76 54.001,78 51,78 51,80 54.001,80 54.001,85 
			56.001,85 56.001,80 59,80 		"/>
		<g>
			<path style="fill:#FBC8C8;" d="M55,31c-12.976,0-13.982,6-14,15v12.343c0,1.061,0.422,2.079,1.172,2.829l6.071,6.069
				c1.125,1.125,2.651,1.757,4.242,1.757H55h2.515c1.591,0,3.117-0.632,4.242-1.757l6.071-6.069c0.75-0.75,1.172-1.768,1.172-2.829
				V46C68.982,37,67.976,31,55,31z"/>
		</g>
		<path style="fill:#FBD7D7;" d="M41,46v0.111c0,0,0-1.111-1-1.111s-2,1.111-2,2.222c0,2.931,0.774,6.718,3,7.59v3.53
			c0,1.061,0.422,2.079,1.172,2.829l6.071,6.068c1.125,1.125,2.651,1.757,4.242,1.757H55V31C42.024,31,41.018,37,41,46z"/>
		<g>
			<path style="fill:#F79392;" d="M51,58h8c0,0,0,3-4,3S51,58,51,58z"/>
		</g>
		<g>
			<path style="fill:#3E3E3F;" d="M51.994,46.997c0-1.104-0.896-2-2-2c-0.002,0-0.004,0-0.006,0
				c0.001,0.021,0.006,0.041,0.006,0.062c0,1.103-0.892,1.996-1.994,2c0.033,1.075,0.91,1.938,1.994,1.938
				C51.098,48.997,51.994,48.102,51.994,46.997z"/>
		</g>
		<g>
			<path style="fill:#3E3E3F;" d="M61.987,46.997c0-1.104-0.896-2-2-2c-0.002,0-0.004,0-0.006,0
				c0.001,0.021,0.006,0.041,0.006,0.062c0,1.103-0.892,1.996-1.994,2c0.033,1.075,0.91,1.938,1.994,1.938
				C61.092,48.997,61.987,48.102,61.987,46.997z"/>
		</g>
		<g>
			<polygon style="fill:#3E3E3F;" points="55,69 53,62 57,62 			"/>
		</g>
		<path style="fill:#3E3E3F;" d="M60.29,28.886C49.754,16.203,23.041,32.32,35,54.53C50,53,57,46,62,39c2,7,4,15,4,15l3-5v10.873
			C85,46,76.056,22.27,60.29,28.886z"/>
	</g>
</g>
</svg>
