<?xml version="1.0" encoding="iso-8859-1"?>
<!-- Generator: Adobe Illustrator 17.1.0, SVG Export Plug-In . SVG Version: 6.00 Build 0)  -->
<!DOCTYPE svg PUBLIC "-//W3C//DTD SVG 1.0//EN" "http://www.w3.org/TR/2001/REC-SVG-20010904/DTD/svg10.dtd">
<svg version="1.0" xmlns="http://www.w3.org/2000/svg" xmlns:xlink="http://www.w3.org/1999/xlink" x="0px" y="0px" width="110px"
	 height="110px" viewBox="0 0 110 110" style="enable-background:new 0 0 110 110;" xml:space="preserve">
<g id="Artboard" style="display:none;">
	
		<rect x="-456.5" y="-546.5" style="display:inline;fill:#808080;stroke:#000000;stroke-miterlimit:10;" width="1392" height="1369"/>
</g>
<g id="R-Multicolor">
	<circle style="fill:#FABC3D;" cx="55" cy="55" r="55"/>
	<g>
		<g>
			<path style="fill:#9C6144;" d="M47.251,27.22c4.736,1.902,5.642,5.244,5.76,10.512C54.246,39.14,55,40.98,55,43
				c0-2.034,0.766-3.885,2.016-5.297c-0.116-5.676-1.196-11.397-8.391-14.24c-0.256-0.101-0.541-0.093-0.791,0.023
				s-0.439,0.33-0.526,0.59l-0.634,1.901C46.507,26.479,46.76,27.024,47.251,27.22z"/>
		</g>
		<g>
			<path style="fill:#DF2C2C;" d="M79.936,35.053C75.099,34.504,71,38.274,71,43c0-4.418-3.582-8-8-8s-8,3.582-8,8
				c0-4.418-3.582-8-8-8s-8,3.582-8,8c0-4.723-4.094-8.491-8.927-7.948c-3.509,0.394-6.416,3.154-6.97,6.642
				c-0.853,5.369,3.667,9.979,9.029,9.217C31.418,52.108,31,53.504,31,55c0,4.784,4.212,8.61,9.133,7.911
				C39.418,64.108,39,65.504,39,67c0,4.784,4.212,8.61,9.133,7.911c-1.007,1.688-1.426,3.768-0.915,5.97
				c0.7,3.015,3.183,5.399,6.224,5.972C58.545,87.815,63,83.928,63,79c0-1.496-0.418-2.892-1.133-4.089
				C66.785,75.609,71,71.788,71,67c0-1.496-0.418-2.892-1.133-4.089c6.717,0.954,11.408-6.29,8-12
				c5.354,0.761,9.875-3.835,9.032-9.204C86.35,38.217,83.446,35.451,79.936,35.053z"/>
		</g>
		<g>
			<path style="fill:#FA5655;" d="M47,35c-4.418,0-8,3.582-8,8c0-4.724-4.094-8.491-8.927-7.948
				c-3.509,0.394-6.416,3.154-6.969,6.642c-0.853,5.369,3.667,9.979,9.029,9.217C31.418,52.108,31,53.503,31,55
				c0,4.784,4.212,8.61,9.133,7.911C39.418,64.108,39,65.503,39,67c0,4.784,4.212,8.61,9.133,7.911
				c-1.007,1.688-1.426,3.768-0.915,5.97c0.7,3.014,3.183,5.399,6.224,5.972c0.528,0.1,1.047,0.135,1.557,0.135V43
				C55,38.582,51.418,35,47,35z"/>
		</g>
		<g>
			<path style="fill:#12B2A0;" d="M54.286,38.07c6.855,6.824,6.268,18.37-1.989,24.364c1.28-3.015,1.648-6.318,1.103-9.499
				c-0.752,4.248-3.712,7.668-7.602,9.139c0.829-2.264,0.958-4.719,0.394-7.044c-1.69,7.874-9.325,9.365-17.305,8.553
				C27.62,51.66,32.119,47.391,37.362,46.24c-2.328-0.553-4.781-0.414-7.042,0.426c1.451-3.89,4.854-6.871,9.105-7.643
				c-3.184-0.53-6.485-0.148-9.494,1.145C35.885,31.897,47.42,31.235,54.286,38.07z"/>
		</g>
		<g>
			<path style="fill:#099686;" d="M28.887,63.602c0.001,0.008,0.002,0.02,0.002,0.02c7.983,0.813,15.615-0.68,17.305-8.553
				c0.564,2.325,0.435,4.779-0.394,7.044c3.883-1.468,6.849-4.885,7.602-9.139c0.545,3.181,0.177,6.484-1.103,9.499
				c8.234-5.981,8.842-17.482,2.033-24.316L28.887,63.602z"/>
		</g>
	</g>
</g>
<g id="Multicolor" style="display:none;">
	<g style="display:inline;">
		<g>
			<path style="fill:#9C6144;" d="M47.251,27.22c4.736,1.902,5.642,5.244,5.76,10.512C54.246,39.14,55,40.98,55,43
				c0-2.034,0.766-3.885,2.016-5.297c-0.116-5.676-1.196-11.397-8.391-14.24c-0.256-0.101-0.541-0.093-0.791,0.023
				s-0.439,0.33-0.526,0.59l-0.634,1.901C46.507,26.479,46.76,27.024,47.251,27.22z"/>
		</g>
		<g>
			<path style="fill:#DF2C2C;" d="M79.936,35.053C75.099,34.504,71,38.274,71,43c0-4.418-3.582-8-8-8s-8,3.582-8,8
				c0-4.418-3.582-8-8-8s-8,3.582-8,8c0-4.723-4.094-8.491-8.927-7.948c-3.509,0.394-6.416,3.154-6.97,6.642
				c-0.853,5.369,3.667,9.979,9.029,9.217C31.418,52.108,31,53.504,31,55c0,4.784,4.212,8.61,9.133,7.911
				C39.418,64.108,39,65.504,39,67c0,4.784,4.212,8.61,9.133,7.911c-1.007,1.688-1.426,3.768-0.915,5.97
				c0.7,3.015,3.183,5.399,6.224,5.972C58.545,87.815,63,83.928,63,79c0-1.496-0.418-2.892-1.133-4.089
				C66.785,75.609,71,71.788,71,67c0-1.496-0.418-2.892-1.133-4.089c6.717,0.954,11.408-6.29,8-12
				c5.354,0.761,9.875-3.835,9.032-9.204C86.35,38.217,83.446,35.451,79.936,35.053z"/>
		</g>
		<g>
			<path style="fill:#FA5655;" d="M47,35c-4.418,0-8,3.582-8,8c0-4.724-4.094-8.491-8.927-7.948
				c-3.509,0.394-6.416,3.154-6.969,6.642c-0.853,5.369,3.667,9.979,9.029,9.217C31.418,52.108,31,53.503,31,55
				c0,4.784,4.212,8.61,9.133,7.911C39.418,64.108,39,65.503,39,67c0,4.784,4.212,8.61,9.133,7.911
				c-1.007,1.688-1.426,3.768-0.915,5.97c0.7,3.014,3.183,5.399,6.224,5.972c0.528,0.1,1.047,0.135,1.557,0.135V43
				C55,38.582,51.418,35,47,35z"/>
		</g>
		<g>
			<path style="fill:#12B2A0;" d="M54.286,38.07c6.855,6.824,6.268,18.37-1.989,24.364c1.28-3.015,1.648-6.318,1.103-9.499
				c-0.752,4.248-3.712,7.668-7.602,9.139c0.829-2.264,0.958-4.719,0.394-7.044c-1.69,7.874-9.325,9.365-17.305,8.553
				C27.62,51.66,32.119,47.391,37.362,46.24c-2.328-0.553-4.781-0.414-7.042,0.426c1.451-3.89,4.854-6.871,9.105-7.643
				c-3.184-0.53-6.485-0.148-9.494,1.145C35.885,31.897,47.42,31.235,54.286,38.07z"/>
		</g>
		<g>
			<path style="fill:#099686;" d="M28.887,63.602c0.001,0.008,0.002,0.02,0.002,0.02c7.983,0.813,15.615-0.68,17.305-8.553
				c0.564,2.325,0.435,4.779-0.394,7.044c3.883-1.468,6.849-4.885,7.602-9.139c0.545,3.181,0.177,6.484-1.103,9.499
				c8.234-5.981,8.842-17.482,2.033-24.316L28.887,63.602z"/>
		</g>
	</g>
</g>
<g id="Blue" style="display:none;">
	<g style="display:inline;">
		<g>
			<path style="fill:#0C333D;" d="M47.25,27.221c4.736,1.901,5.643,5.244,5.761,10.512C54.246,39.14,55,40.98,55,43
				c0-2.034,0.766-3.885,2.016-5.297c-0.115-5.676-1.195-11.397-8.391-14.24c-0.256-0.101-0.541-0.093-0.791,0.023
				c-0.249,0.116-0.439,0.33-0.525,0.59l-0.635,1.901C46.508,26.479,46.76,27.024,47.25,27.221z"/>
		</g>
		<g>
			<path style="fill:#0081A1;" d="M79.936,35.053C75.099,34.504,71,38.273,71,43c0-4.418-3.582-8-8-8s-8,3.582-8,8
				c0-4.418-3.582-8-8-8s-8,3.582-8,8c0-4.723-4.094-8.491-8.926-7.948c-3.51,0.394-6.416,3.154-6.971,6.642
				c-0.852,5.369,3.668,9.979,9.029,9.217C31.418,52.108,31,53.504,31,55c0,4.784,4.212,8.61,9.133,7.911
				C39.418,64.108,39,65.504,39,67c0,4.784,4.212,8.61,9.133,7.911c-1.007,1.688-1.426,3.768-0.914,5.97
				c0.699,3.015,3.183,5.399,6.225,5.972C58.545,87.815,63,83.928,63,79c0-1.496-0.418-2.892-1.133-4.089
				C66.784,75.609,71,71.789,71,67c0-1.496-0.418-2.892-1.133-4.089c6.717,0.954,11.408-6.289,8-12
				c5.354,0.761,9.875-3.835,9.031-9.204C86.35,38.217,83.445,35.452,79.936,35.053z"/>
		</g>
		<g>
			<path style="fill:#009FC7;" d="M47,35c-4.418,0-8,3.582-8,8c0-4.724-4.094-8.491-8.927-7.948
				c-3.509,0.394-6.415,3.154-6.97,6.642c-0.852,5.369,3.668,9.979,9.029,9.217C31.418,52.108,31,53.503,31,55
				c0,4.784,4.212,8.61,9.133,7.911C39.418,64.108,39,65.503,39,67c0,4.784,4.212,8.61,9.133,7.911
				c-1.007,1.688-1.426,3.768-0.914,5.97c0.699,3.014,3.183,5.399,6.225,5.972c0.527,0.1,1.047,0.136,1.557,0.136V43
				C55,38.582,51.418,35,47,35z"/>
		</g>
		<g>
			<path style="fill:#E1F5FA;" d="M54.286,38.07c6.855,6.825,6.269,18.37-1.988,24.364c1.28-3.015,1.647-6.318,1.103-9.499
				c-0.752,4.248-3.712,7.668-7.602,9.139c0.829-2.265,0.958-4.719,0.395-7.044c-1.691,7.875-9.326,9.365-17.305,8.553
				c-1.269-11.923,3.23-16.193,8.474-17.343c-2.327-0.553-4.78-0.413-7.042,0.426c1.451-3.89,4.854-6.871,9.105-7.643
				c-3.184-0.531-6.485-0.149-9.495,1.146C35.885,31.898,47.42,31.235,54.286,38.07z"/>
		</g>
		<g>
			<path style="fill:#BBE7F2;" d="M28.887,63.603c0.002,0.007,0.003,0.02,0.003,0.02c7.983,0.813,15.614-0.681,17.305-8.553
				c0.563,2.325,0.435,4.779-0.395,7.043c3.884-1.469,6.85-4.885,7.603-9.139c0.545,3.181,0.178,6.484-1.104,9.499
				c8.234-5.981,8.843-17.482,2.033-24.316L28.887,63.603z"/>
		</g>
	</g>
</g>
<g id="R-Blue" style="display:none;">
	<circle style="display:inline;fill:#81D2EB;" cx="55" cy="55" r="55"/>
	<g style="display:inline;">
		<g>
			<path style="fill:#0C333D;" d="M47.25,27.221c4.736,1.901,5.643,5.244,5.761,10.512C54.246,39.14,55,40.98,55,43
				c0-2.034,0.766-3.885,2.016-5.297c-0.115-5.676-1.195-11.397-8.391-14.24c-0.256-0.101-0.541-0.093-0.791,0.023
				c-0.249,0.116-0.439,0.33-0.525,0.59l-0.635,1.901C46.508,26.479,46.76,27.024,47.25,27.221z"/>
		</g>
		<g>
			<path style="fill:#0081A1;" d="M79.936,35.053C75.099,34.504,71,38.273,71,43c0-4.418-3.582-8-8-8s-8,3.582-8,8
				c0-4.418-3.582-8-8-8s-8,3.582-8,8c0-4.723-4.094-8.491-8.926-7.948c-3.51,0.394-6.416,3.154-6.971,6.642
				c-0.852,5.369,3.668,9.979,9.029,9.217C31.418,52.108,31,53.504,31,55c0,4.784,4.212,8.61,9.133,7.911
				C39.418,64.108,39,65.504,39,67c0,4.784,4.212,8.61,9.133,7.911c-1.007,1.688-1.426,3.768-0.914,5.97
				c0.699,3.015,3.183,5.399,6.225,5.972C58.545,87.815,63,83.928,63,79c0-1.496-0.418-2.892-1.133-4.089
				C66.784,75.609,71,71.789,71,67c0-1.496-0.418-2.892-1.133-4.089c6.717,0.954,11.408-6.289,8-12
				c5.354,0.761,9.875-3.835,9.031-9.204C86.35,38.217,83.445,35.452,79.936,35.053z"/>
		</g>
		<g>
			<path style="fill:#009FC7;" d="M47,35c-4.418,0-8,3.582-8,8c0-4.724-4.094-8.491-8.927-7.948
				c-3.509,0.394-6.415,3.154-6.97,6.642c-0.852,5.369,3.668,9.979,9.029,9.217C31.418,52.108,31,53.503,31,55
				c0,4.784,4.212,8.61,9.133,7.911C39.418,64.108,39,65.503,39,67c0,4.784,4.212,8.61,9.133,7.911
				c-1.007,1.688-1.426,3.768-0.914,5.97c0.699,3.014,3.183,5.399,6.225,5.972c0.527,0.1,1.047,0.136,1.557,0.136V43
				C55,38.581,51.418,35,47,35z"/>
		</g>
		<g>
			<path style="fill:#E1F5FA;" d="M54.286,38.07c6.855,6.825,6.269,18.37-1.988,24.364c1.28-3.015,1.647-6.318,1.103-9.499
				c-0.752,4.248-3.712,7.668-7.602,9.139c0.829-2.265,0.958-4.719,0.395-7.044c-1.691,7.875-9.326,9.365-17.305,8.553
				c-1.269-11.923,3.23-16.193,8.474-17.343c-2.327-0.553-4.78-0.413-7.042,0.426c1.451-3.89,4.854-6.871,9.105-7.643
				c-3.184-0.531-6.485-0.149-9.495,1.146C35.885,31.897,47.42,31.235,54.286,38.07z"/>
		</g>
		<g>
			<path style="fill:#BBE7F2;" d="M28.887,63.602c0.002,0.007,0.003,0.02,0.003,0.02c7.983,0.813,15.614-0.681,17.305-8.553
				c0.563,2.325,0.435,4.779-0.395,7.043c3.884-1.469,6.85-4.885,7.603-9.139c0.545,3.181,0.178,6.484-1.104,9.499
				c8.234-5.981,8.843-17.482,2.033-24.316L28.887,63.602z"/>
		</g>
	</g>
</g>
<g id="Green" style="display:none;">
	<g style="display:inline;">
		<g>
			<path style="fill:#0A3631;" d="M47.25,27.221c4.736,1.901,5.643,5.244,5.761,10.512C54.246,39.14,55,40.98,55,43
				c0-2.034,0.766-3.885,2.016-5.297c-0.115-5.676-1.195-11.397-8.391-14.24c-0.256-0.101-0.541-0.093-0.791,0.023
				c-0.249,0.116-0.439,0.33-0.525,0.59l-0.635,1.901C46.508,26.479,46.76,27.024,47.25,27.221z"/>
		</g>
		<g>
			<path style="fill:#009687;" d="M79.935,35.053C75.099,34.504,71,38.273,71,43c0-4.418-3.582-8-8-8s-8,3.582-8,8
				c0-4.418-3.582-8-8-8s-8,3.582-8,8c0-4.723-4.094-8.491-8.926-7.948c-3.51,0.394-6.416,3.154-6.971,6.642
				c-0.852,5.369,3.668,9.979,9.029,9.217C31.418,52.108,31,53.504,31,55c0,4.784,4.212,8.61,9.133,7.911
				C39.418,64.108,39,65.504,39,67c0,4.784,4.212,8.61,9.133,7.911c-1.007,1.688-1.426,3.768-0.914,5.97
				c0.699,3.015,3.183,5.399,6.225,5.972C58.545,87.815,63,83.928,63,79c0-1.496-0.418-2.892-1.133-4.089
				C66.784,75.609,71,71.789,71,67c0-1.496-0.418-2.892-1.133-4.089c6.717,0.954,11.408-6.289,8-12
				c5.354,0.761,9.875-3.835,9.031-9.204C86.35,38.217,83.445,35.452,79.935,35.053z"/>
		</g>
		<g>
			<path style="fill:#00B8A5;" d="M47,35c-4.418,0-8,3.582-8,8c0-4.724-4.094-8.491-8.927-7.948
				c-3.509,0.394-6.415,3.154-6.97,6.642c-0.852,5.369,3.668,9.979,9.029,9.217C31.418,52.108,31,53.503,31,55
				c0,4.784,4.212,8.61,9.133,7.911C39.418,64.108,39,65.503,39,67c0,4.784,4.212,8.61,9.133,7.911
				c-1.007,1.688-1.426,3.768-0.914,5.97c0.699,3.014,3.183,5.399,6.225,5.972c0.527,0.1,1.047,0.136,1.557,0.136V43
				C55,38.582,51.418,35,47,35z"/>
		</g>
		<g>
			<path style="fill:#D7FCF9;" d="M54.286,38.07c6.855,6.825,6.269,18.37-1.988,24.364c1.28-3.015,1.647-6.318,1.103-9.499
				c-0.752,4.248-3.712,7.668-7.602,9.139c0.829-2.265,0.958-4.719,0.395-7.044c-1.691,7.875-9.326,9.365-17.305,8.553
				c-1.269-11.923,3.23-16.193,8.474-17.343c-2.327-0.553-4.78-0.414-7.042,0.426c1.451-3.89,4.854-6.871,9.105-7.643
				c-3.184-0.531-6.485-0.149-9.495,1.146C35.885,31.897,47.42,31.235,54.286,38.07z"/>
		</g>
		<g>
			<path style="fill:#AAF0E9;" d="M28.887,63.603c0.002,0.007,0.003,0.02,0.003,0.02c7.983,0.813,15.614-0.681,17.305-8.553
				c0.563,2.325,0.435,4.779-0.395,7.043c3.884-1.469,6.85-4.885,7.603-9.139c0.545,3.181,0.178,6.484-1.104,9.499
				c8.234-5.981,8.843-17.482,2.033-24.316L28.887,63.603z"/>
		</g>
	</g>
</g>
<g id="R-Green" style="display:none;">
	<circle style="display:inline;fill:#77E0C4;" cx="55" cy="55" r="55"/>
	<g style="display:inline;">
		<g>
			<path style="fill:#0A3631;" d="M47.25,27.221c4.736,1.901,5.643,5.244,5.761,10.512C54.246,39.14,55,40.98,55,43
				c0-2.034,0.766-3.885,2.016-5.297c-0.115-5.676-1.195-11.397-8.391-14.24c-0.256-0.101-0.541-0.093-0.791,0.023
				c-0.249,0.116-0.439,0.33-0.525,0.59l-0.635,1.901C46.508,26.479,46.76,27.024,47.25,27.221z"/>
		</g>
		<g>
			<path style="fill:#009687;" d="M79.936,35.053C75.099,34.504,71,38.273,71,43c0-4.418-3.582-8-8-8s-8,3.582-8,8
				c0-4.418-3.582-8-8-8s-8,3.582-8,8c0-4.723-4.094-8.491-8.926-7.948c-3.51,0.394-6.416,3.154-6.971,6.642
				c-0.853,5.369,3.668,9.979,9.029,9.217C31.418,52.108,31,53.504,31,55c0,4.784,4.212,8.61,9.133,7.911
				C39.418,64.108,39,65.504,39,67c0,4.784,4.212,8.61,9.133,7.911c-1.007,1.688-1.426,3.768-0.914,5.97
				c0.699,3.015,3.183,5.399,6.225,5.972C58.545,87.815,63,83.928,63,79c0-1.496-0.418-2.892-1.133-4.089
				C66.784,75.609,71,71.789,71,67c0-1.496-0.418-2.892-1.133-4.089c6.717,0.954,11.408-6.289,8-12
				c5.354,0.761,9.875-3.835,9.031-9.204C86.35,38.217,83.445,35.452,79.936,35.053z"/>
		</g>
		<g>
			<path style="fill:#00B8A5;" d="M47,35c-4.418,0-8,3.582-8,8c0-4.724-4.094-8.491-8.927-7.948
				c-3.509,0.394-6.415,3.154-6.97,6.642c-0.853,5.369,3.668,9.979,9.029,9.217C31.418,52.108,31,53.503,31,55
				c0,4.784,4.212,8.61,9.133,7.911C39.418,64.108,39,65.503,39,67c0,4.784,4.212,8.61,9.133,7.911
				c-1.007,1.688-1.426,3.768-0.914,5.97c0.699,3.014,3.183,5.399,6.225,5.972c0.527,0.1,1.047,0.136,1.557,0.136V43
				C55,38.582,51.418,35,47,35z"/>
		</g>
		<g>
			<path style="fill:#D7FCF9;" d="M54.286,38.07c6.856,6.825,6.269,18.37-1.988,24.364c1.28-3.015,1.647-6.318,1.102-9.499
				c-0.752,4.248-3.712,7.668-7.602,9.139c0.829-2.265,0.958-4.719,0.395-7.044c-1.691,7.875-9.326,9.365-17.305,8.553
				c-1.269-11.923,3.23-16.193,8.474-17.343c-2.327-0.553-4.78-0.413-7.042,0.426c1.451-3.89,4.854-6.871,9.106-7.643
				c-3.184-0.531-6.485-0.149-9.495,1.146C35.885,31.898,47.42,31.235,54.286,38.07z"/>
		</g>
		<g>
			<path style="fill:#AAF0E9;" d="M28.887,63.603c0.002,0.007,0.003,0.02,0.003,0.02c7.983,0.813,15.614-0.681,17.305-8.553
				c0.563,2.325,0.435,4.779-0.395,7.043c3.884-1.469,6.85-4.885,7.603-9.139c0.545,3.181,0.178,6.484-1.104,9.499
				c8.234-5.981,8.843-17.482,2.033-24.316L28.887,63.603z"/>
		</g>
	</g>
</g>
<g id="Red" style="display:none;">
	<g style="display:inline;">
		<g>
			<path style="fill:#4A1410;" d="M47.25,27.221c4.736,1.901,5.643,5.244,5.761,10.512C54.246,39.14,55,40.98,55,43
				c0-2.034,0.766-3.885,2.016-5.297c-0.115-5.676-1.195-11.397-8.391-14.24c-0.256-0.101-0.541-0.093-0.791,0.023
				c-0.249,0.116-0.44,0.33-0.525,0.59l-0.635,1.901C46.508,26.479,46.76,27.024,47.25,27.221z"/>
		</g>
		<g>
			<path style="fill:#C23023;" d="M79.935,35.053C75.099,34.504,71,38.273,71,43c0-4.418-3.582-8-8-8s-8,3.582-8,8
				c0-4.418-3.582-8-8-8s-8,3.582-8,8c0-4.723-4.094-8.491-8.926-7.948c-3.51,0.394-6.416,3.154-6.971,6.642
				c-0.852,5.369,3.668,9.979,9.029,9.217C31.418,52.108,31,53.504,31,55c0,4.784,4.212,8.61,9.133,7.911
				C39.418,64.108,39,65.504,39,67c0,4.784,4.212,8.61,9.133,7.911c-1.007,1.688-1.426,3.768-0.914,5.97
				c0.699,3.015,3.183,5.399,6.225,5.972C58.545,87.815,63,83.928,63,79c0-1.496-0.418-2.892-1.133-4.089
				C66.784,75.609,71,71.789,71,67c0-1.496-0.418-2.892-1.133-4.089c6.717,0.954,11.408-6.289,8-12
				c5.353,0.761,9.875-3.835,9.031-9.204C86.35,38.217,83.445,35.452,79.935,35.053z"/>
		</g>
		<g>
			<path style="fill:#E54B44;" d="M47,35c-4.418,0-8,3.582-8,8c0-4.724-4.094-8.491-8.927-7.948
				c-3.509,0.394-6.415,3.154-6.97,6.642c-0.852,5.369,3.668,9.979,9.029,9.217C31.418,52.108,31,53.503,31,55
				c0,4.784,4.212,8.61,9.133,7.911C39.418,64.108,39,65.503,39,67c0,4.784,4.212,8.61,9.133,7.911
				c-1.007,1.688-1.426,3.768-0.914,5.97c0.699,3.014,3.183,5.399,6.225,5.972c0.527,0.1,1.047,0.136,1.557,0.136V43
				C55,38.582,51.418,35,47,35z"/>
		</g>
		<g>
			<path style="fill:#FFEFED;" d="M54.286,38.07c6.855,6.825,6.269,18.37-1.988,24.364c1.28-3.015,1.647-6.318,1.103-9.499
				c-0.752,4.248-3.712,7.668-7.602,9.139c0.829-2.265,0.958-4.719,0.395-7.044c-1.691,7.875-9.326,9.365-17.305,8.553
				c-1.269-11.923,3.23-16.193,8.474-17.343c-2.327-0.553-4.78-0.414-7.042,0.426c1.451-3.89,4.854-6.871,9.105-7.643
				c-3.184-0.531-6.485-0.149-9.495,1.146C35.885,31.897,47.42,31.235,54.286,38.07z"/>
		</g>
		<g>
			<path style="fill:#FFD7D4;" d="M28.887,63.603c0.002,0.007,0.003,0.02,0.003,0.02c7.983,0.813,15.614-0.681,17.305-8.553
				c0.563,2.325,0.435,4.779-0.395,7.043c3.884-1.469,6.85-4.885,7.603-9.139c0.545,3.181,0.178,6.484-1.104,9.499
				c8.234-5.981,8.843-17.482,2.033-24.316L28.887,63.603z"/>
		</g>
	</g>
</g>
<g id="R-Red" style="display:none;">
	<circle style="display:inline;fill:#FABBAF;" cx="55" cy="55" r="55"/>
	<g style="display:inline;">
		<g>
			<path style="fill:#4A1410;" d="M47.25,27.221c4.736,1.901,5.643,5.244,5.761,10.512C54.246,39.14,55,40.98,55,43
				c0-2.034,0.766-3.885,2.016-5.297c-0.115-5.676-1.195-11.397-8.391-14.24c-0.256-0.101-0.541-0.093-0.791,0.023
				c-0.249,0.116-0.44,0.33-0.525,0.59l-0.635,1.901C46.508,26.479,46.76,27.024,47.25,27.221z"/>
		</g>
		<g>
			<path style="fill:#C23023;" d="M79.935,35.053C75.099,34.504,71,38.273,71,43c0-4.418-3.582-8-8-8s-8,3.582-8,8
				c0-4.418-3.582-8-8-8s-8,3.582-8,8c0-4.723-4.094-8.491-8.926-7.948c-3.51,0.394-6.416,3.154-6.971,6.642
				c-0.852,5.369,3.668,9.979,9.029,9.217C31.418,52.108,31,53.504,31,55c0,4.784,4.212,8.61,9.133,7.911
				C39.418,64.108,39,65.504,39,67c0,4.784,4.212,8.61,9.133,7.911c-1.007,1.688-1.426,3.768-0.914,5.97
				c0.699,3.015,3.183,5.399,6.225,5.972C58.545,87.815,63,83.928,63,79c0-1.496-0.418-2.892-1.133-4.089
				C66.784,75.609,71,71.789,71,67c0-1.496-0.418-2.892-1.133-4.089c6.717,0.954,11.408-6.289,8-12
				c5.353,0.761,9.875-3.835,9.031-9.204C86.35,38.217,83.445,35.452,79.935,35.053z"/>
		</g>
		<g>
			<path style="fill:#E54B44;" d="M47,35c-4.418,0-8,3.582-8,8c0-4.724-4.094-8.491-8.927-7.948
				c-3.509,0.394-6.415,3.154-6.97,6.642c-0.852,5.369,3.668,9.979,9.029,9.217C31.418,52.108,31,53.503,31,55
				c0,4.784,4.212,8.61,9.133,7.911C39.418,64.108,39,65.503,39,67c0,4.784,4.212,8.61,9.133,7.911
				c-1.007,1.688-1.426,3.768-0.914,5.97c0.699,3.014,3.183,5.399,6.225,5.972c0.527,0.1,1.047,0.136,1.557,0.136V43
				C55,38.582,51.418,35,47,35z"/>
		</g>
		<g>
			<path style="fill:#FFEFED;" d="M54.286,38.07c6.855,6.825,6.269,18.37-1.988,24.364c1.28-3.015,1.647-6.318,1.103-9.499
				c-0.752,4.248-3.712,7.668-7.602,9.139c0.829-2.265,0.958-4.719,0.395-7.044c-1.691,7.875-9.326,9.365-17.305,8.553
				c-1.269-11.923,3.23-16.193,8.474-17.343c-2.327-0.553-4.78-0.414-7.042,0.426c1.451-3.89,4.854-6.871,9.105-7.643
				c-3.184-0.531-6.485-0.149-9.495,1.146C35.885,31.897,47.42,31.235,54.286,38.07z"/>
		</g>
		<g>
			<path style="fill:#FFD7D4;" d="M28.887,63.603c0.002,0.007,0.003,0.02,0.003,0.02c7.983,0.813,15.614-0.681,17.305-8.553
				c0.563,2.325,0.435,4.779-0.395,7.043c3.884-1.469,6.85-4.885,7.603-9.139c0.545,3.181,0.178,6.484-1.104,9.499
				c8.234-5.981,8.843-17.482,2.033-24.316L28.887,63.603z"/>
		</g>
	</g>
</g>
<g id="Yellow" style="display:none;">
	<g style="display:inline;">
		<g>
			<path style="fill:#3D320C;" d="M47.25,27.221c4.736,1.901,5.643,5.244,5.761,10.512C54.246,39.14,55,40.98,55,43
				c0-2.034,0.766-3.885,2.016-5.297c-0.115-5.676-1.195-11.397-8.391-14.24c-0.256-0.101-0.541-0.093-0.791,0.023
				c-0.249,0.116-0.439,0.33-0.525,0.59l-0.635,1.901C46.508,26.479,46.76,27.024,47.25,27.221z"/>
		</g>
		<g>
			<path style="fill:#E07000;" d="M79.936,35.053C75.099,34.504,71,38.273,71,43c0-4.418-3.582-8-8-8s-8,3.582-8,8
				c0-4.418-3.582-8-8-8s-8,3.582-8,8c0-4.723-4.094-8.491-8.926-7.948c-3.51,0.394-6.416,3.154-6.971,6.642
				c-0.853,5.369,3.668,9.979,9.029,9.217C31.418,52.108,31,53.504,31,55c0,4.784,4.212,8.61,9.133,7.911
				C39.418,64.108,39,65.504,39,67c0,4.784,4.212,8.61,9.133,7.911c-1.007,1.688-1.426,3.768-0.914,5.97
				c0.699,3.015,3.183,5.399,6.225,5.972C58.545,87.815,63,83.928,63,79c0-1.496-0.418-2.892-1.133-4.089
				C66.784,75.609,71,71.789,71,67c0-1.496-0.418-2.892-1.133-4.089c6.717,0.954,11.408-6.289,8-12
				c5.354,0.761,9.875-3.835,9.031-9.204C86.35,38.217,83.445,35.452,79.936,35.053z"/>
		</g>
		<g>
			<path style="fill:#FA9200;" d="M47,35c-4.418,0-8,3.582-8,8c0-4.724-4.094-8.491-8.927-7.948
				c-3.509,0.394-6.415,3.154-6.97,6.642c-0.853,5.369,3.668,9.979,9.029,9.217C31.418,52.108,31,53.503,31,55
				c0,4.784,4.212,8.61,9.133,7.911C39.418,64.108,39,65.503,39,67c0,4.784,4.212,8.61,9.133,7.911
				c-1.007,1.688-1.426,3.768-0.914,5.97c0.699,3.014,3.183,5.399,6.225,5.972c0.527,0.1,1.047,0.136,1.557,0.136V43
				C55,38.582,51.418,35,47,35z"/>
		</g>
		<g>
			<path style="fill:#FFF5D9;" d="M54.286,38.07c6.856,6.825,6.269,18.37-1.988,24.364c1.28-3.015,1.647-6.318,1.102-9.499
				c-0.752,4.248-3.712,7.668-7.602,9.139c0.829-2.265,0.958-4.719,0.395-7.044c-1.691,7.875-9.326,9.365-17.305,8.553
				c-1.269-11.923,3.23-16.193,8.474-17.343c-2.327-0.553-4.78-0.413-7.042,0.426c1.451-3.89,4.854-6.871,9.106-7.643
				c-3.184-0.531-6.485-0.149-9.495,1.146C35.885,31.898,47.42,31.235,54.286,38.07z"/>
		</g>
		<g>
			<path style="fill:#FFE9A1;" d="M28.887,63.603c0.002,0.007,0.003,0.02,0.003,0.02c7.983,0.813,15.614-0.681,17.305-8.553
				c0.563,2.325,0.435,4.779-0.395,7.043c3.884-1.469,6.85-4.885,7.603-9.139c0.545,3.181,0.178,6.484-1.104,9.499
				c8.234-5.981,8.843-17.482,2.033-24.316L28.887,63.603z"/>
		</g>
	</g>
</g>
<g id="R-Yellow" style="display:none;">
	<circle style="display:inline;fill:#FFD75E;" cx="55" cy="55" r="55"/>
	<g style="display:inline;">
		<g>
			<path style="fill:#3D320C;" d="M47.25,27.221c4.736,1.901,5.643,5.244,5.761,10.512C54.246,39.14,55,40.98,55,43
				c0-2.034,0.766-3.885,2.016-5.297c-0.115-5.676-1.195-11.397-8.391-14.24c-0.256-0.101-0.541-0.093-0.791,0.023
				c-0.249,0.116-0.439,0.33-0.525,0.59l-0.635,1.901C46.508,26.479,46.76,27.024,47.25,27.221z"/>
		</g>
		<g>
			<path style="fill:#E07000;" d="M79.935,35.053C75.099,34.504,71,38.273,71,43c0-4.418-3.582-8-8-8s-8,3.582-8,8
				c0-4.418-3.582-8-8-8s-8,3.582-8,8c0-4.723-4.094-8.491-8.926-7.948c-3.51,0.394-6.416,3.154-6.971,6.642
				c-0.852,5.369,3.668,9.979,9.029,9.217C31.418,52.108,31,53.504,31,55c0,4.784,4.212,8.61,9.133,7.911
				C39.418,64.108,39,65.504,39,67c0,4.784,4.212,8.61,9.133,7.911c-1.007,1.688-1.426,3.768-0.914,5.97
				c0.699,3.015,3.183,5.399,6.225,5.972C58.545,87.815,63,83.928,63,79c0-1.496-0.418-2.892-1.133-4.089
				C66.784,75.609,71,71.789,71,67c0-1.496-0.418-2.892-1.133-4.089c6.717,0.954,11.408-6.289,8-12
				c5.354,0.761,9.875-3.835,9.031-9.204C86.35,38.217,83.445,35.452,79.935,35.053z"/>
		</g>
		<g>
			<path style="fill:#FA9200;" d="M47,35c-4.418,0-8,3.582-8,8c0-4.724-4.094-8.491-8.927-7.948
				c-3.509,0.394-6.415,3.154-6.97,6.642c-0.852,5.369,3.668,9.979,9.029,9.217C31.418,52.108,31,53.503,31,55
				c0,4.784,4.212,8.61,9.133,7.911C39.418,64.108,39,65.503,39,67c0,4.784,4.212,8.61,9.133,7.911
				c-1.007,1.688-1.426,3.768-0.914,5.97c0.699,3.014,3.183,5.399,6.225,5.972c0.527,0.1,1.047,0.136,1.557,0.136V43
				C55,38.582,51.418,35,47,35z"/>
		</g>
		<g>
			<path style="fill:#FFF5D9;" d="M54.286,38.07c6.855,6.825,6.269,18.37-1.988,24.364c1.28-3.015,1.647-6.318,1.103-9.499
				c-0.752,4.248-3.712,7.668-7.602,9.139c0.829-2.265,0.958-4.719,0.395-7.044c-1.691,7.875-9.326,9.365-17.305,8.553
				c-1.269-11.923,3.23-16.193,8.474-17.343c-2.327-0.553-4.78-0.413-7.042,0.426c1.451-3.89,4.854-6.871,9.105-7.643
				c-3.184-0.531-6.485-0.149-9.495,1.146C35.885,31.898,47.42,31.235,54.286,38.07z"/>
		</g>
		<g>
			<path style="fill:#FFE9A1;" d="M28.887,63.603c0.002,0.007,0.003,0.02,0.003,0.02c7.983,0.813,15.614-0.681,17.305-8.553
				c0.563,2.325,0.435,4.779-0.395,7.043c3.884-1.469,6.85-4.885,7.603-9.139c0.545,3.181,0.178,6.484-1.104,9.499
				c8.234-5.981,8.843-17.482,2.033-24.316L28.887,63.603z"/>
		</g>
	</g>
</g>
</svg>
