<?xml version="1.0" encoding="iso-8859-1"?>
<!-- Generator: Adobe Illustrator 17.1.0, SVG Export Plug-In . SVG Version: 6.00 Build 0)  -->
<!DOCTYPE svg PUBLIC "-//W3C//DTD SVG 1.0//EN" "http://www.w3.org/TR/2001/REC-SVG-20010904/DTD/svg10.dtd">
<svg version="1.0" xmlns="http://www.w3.org/2000/svg" xmlns:xlink="http://www.w3.org/1999/xlink" x="0px" y="0px" width="110px"
	 height="110px" viewBox="0 0 110 110" style="enable-background:new 0 0 110 110;" xml:space="preserve">
<g id="Artboard" style="display:none;">
	
		<rect x="-840.5" y="-930.5" style="display:inline;fill:#808080;stroke:#000000;stroke-miterlimit:10;" width="1392" height="1369"/>
</g>
<g id="R-Multicolor">
	<circle style="fill:#E04F5F;" cx="55" cy="55" r="55"/>
	<g>
		<g>
			<path style="fill:#E2E4E5;" d="M82.803,82.087L72.149,36.631C70.277,28.646,63.155,23,54.954,23S39.631,28.646,37.76,36.631
				L27.106,82.087c-0.279,1.189,0.001,2.441,0.76,3.398S29.779,87,31,87h47.908c1.221,0,2.376-0.558,3.135-1.515
				S83.081,83.276,82.803,82.087z M66,44.292c0,1.657-1.343,3-3,3c-1.657,0-3-1.343-3-3c0-1.657,1.343-3,3-3
				C64.657,41.292,66,42.635,66,44.292z M55,27c4.418,0,8,3.582,8,8H47C47,30.582,50.582,27,55,27z M57.833,44.292
				c0,1.657-1.343,3-3,3c-1.657,0-3-1.343-3-3c0-1.657,1.343-3,3-3C56.489,41.292,57.833,42.635,57.833,44.292z M47,41.292
				c1.657,0,3,1.343,3,3c0,1.657-1.343,3-3,3s-3-1.343-3-3C44,42.635,45.343,41.292,47,41.292z M39,76c-1.657,0-3-1.343-3-3
				s1.343-3,3-3s3,1.343,3,3S40.657,76,39,76z M40,59c0-1.657,1.343-3,3-3s3,1.343,3,3s-1.343,3-3,3S40,60.657,40,59z M47,76
				c-1.657,0-3-1.343-3-3s1.343-3,3-3s3,1.343,3,3S48.657,76,47,76z M48,59c0-1.657,1.343-3,3-3s3,1.343,3,3s-1.343,3-3,3
				S48,60.657,48,59z M55,76c-1.657,0-3-1.343-3-3s1.343-3,3-3s3,1.343,3,3S56.657,76,55,76z M56,59c0-1.657,1.343-3,3-3
				s3,1.343,3,3s-1.343,3-3,3S56,60.657,56,59z M63,76c-1.657,0-3-1.343-3-3s1.343-3,3-3c1.657,0,3,1.343,3,3S64.657,76,63,76z
				 M64,59c0-1.657,1.343-3,3-3s3,1.343,3,3s-1.343,3-3,3S64,60.657,64,59z M71,76c-1.657,0-3-1.343-3-3s1.343-3,3-3s3,1.343,3,3
				S72.657,76,71,76z"/>
		</g>
		<g>
			<path style="fill:#CFD3D4;" d="M77.789,80.66L67.819,39h-26l-9.79,41.66c-0.1,0.58,0.06,1.18,0.44,1.63
				c0.38,0.45,0.94,0.71,1.53,0.71h41.82c0.59,0,1.15-0.26,1.53-0.71C77.729,81.84,77.889,81.24,77.789,80.66z M63,41.292
				c1.657,0,3,1.343,3,3c0,1.657-1.343,3-3,3c-1.657,0-3-1.343-3-3C60,42.635,61.343,41.292,63,41.292z M54.833,41.292
				c1.657,0,3,1.343,3,3c0,1.657-1.343,3-3,3c-1.657,0-3-1.343-3-3C51.833,42.635,53.176,41.292,54.833,41.292z M47,41.292
				c1.657,0,3,1.343,3,3c0,1.657-1.343,3-3,3s-3-1.343-3-3C44,42.635,45.343,41.292,47,41.292z M39,76c-1.657,0-3-1.343-3-3
				s1.343-3,3-3s3,1.343,3,3S40.657,76,39,76z M40,59c0-1.657,1.343-3,3-3s3,1.343,3,3s-1.343,3-3,3S40,60.657,40,59z M47,76
				c-1.657,0-3-1.343-3-3s1.343-3,3-3s3,1.343,3,3S48.657,76,47,76z M48,59c0-1.657,1.343-3,3-3s3,1.343,3,3s-1.343,3-3,3
				S48,60.657,48,59z M55,76c-1.657,0-3-1.343-3-3s1.343-3,3-3s3,1.343,3,3S56.657,76,55,76z M56,59c0-1.657,1.343-3,3-3
				s3,1.343,3,3s-1.343,3-3,3S56,60.657,56,59z M63,76c-1.657,0-3-1.343-3-3s1.343-3,3-3c1.657,0,3,1.343,3,3S64.657,76,63,76z
				 M64,59c0-1.657,1.343-3,3-3s3,1.343,3,3s-1.343,3-3,3S64,60.657,64,59z M71,76c-1.657,0-3-1.343-3-3s1.343-3,3-3s3,1.343,3,3
				S72.657,76,71,76z"/>
		</g>
		<g>
			<path style="fill:#FFFFFF;" d="M54.954,23c-8.201,0-15.323,5.646-17.195,13.631L27.106,82.087
				c-0.216,0.921-0.089,1.875,0.329,2.705l9.569-9.569C36.392,74.675,36,73.886,36,73c0-1.657,1.343-3,3-3
				c0.886,0,1.675,0.392,2.224,1.003l9.089-9.089C48.989,61.602,48,60.419,48,59c0-1.657,1.343-3,3-3
				c1.42,0,2.602,0.989,2.914,2.313l18.89-18.89l-0.655-2.793C70.277,28.646,63.155,23,54.954,23z M43,62c-1.657,0-3-1.343-3-3
				s1.343-3,3-3s3,1.343,3,3S44.657,62,43,62z M47,47.292c-1.657,0-3-1.343-3-3c0-1.657,1.343-3,3-3s3,1.343,3,3
				C50,45.948,48.657,47.292,47,47.292z M47,35c0-4.418,3.582-8,8-8s8,3.582,8,8H47z M54.833,47.292c-1.657,0-3-1.343-3-3
				c0-1.657,1.343-3,3-3c1.657,0,3,1.343,3,3C57.833,45.948,56.489,47.292,54.833,47.292z M63,47.292c-1.657,0-3-1.343-3-3
				c0-1.657,1.343-3,3-3c1.657,0,3,1.343,3,3C66,45.948,64.657,47.292,63,47.292z"/>
		</g>
		<g>
			<path style="fill:#E2E4E5;" d="M41.819,39l-9.648,41.056l4.832-4.832C36.392,74.675,36,73.886,36,73c0-1.657,1.343-3,3-3
				c0.886,0,1.675,0.392,2.224,1.003l9.089-9.089C48.989,61.602,48,60.419,48,59c0-1.657,1.343-3,3-3
				c1.42,0,2.602,0.989,2.914,2.313l14.95-14.95L67.819,39H41.819z M43,62c-1.657,0-3-1.343-3-3s1.343-3,3-3s3,1.343,3,3
				S44.657,62,43,62z M47,47.292c-1.657,0-3-1.343-3-3c0-1.657,1.343-3,3-3s3,1.343,3,3C50,45.948,48.657,47.292,47,47.292z
				 M54.833,47.292c-1.657,0-3-1.343-3-3c0-1.657,1.343-3,3-3c1.657,0,3,1.343,3,3C57.833,45.948,56.489,47.292,54.833,47.292z
				 M63,47.292c-1.657,0-3-1.343-3-3c0-1.657,1.343-3,3-3c1.657,0,3,1.343,3,3C66,45.948,64.657,47.292,63,47.292z"/>
		</g>
		<g>
			<g>
				<path style="fill:#FFFFFF;" d="M54.832,47.32c-1.221,0-2.268-0.732-2.735-1.78c0.731,2.208,2.735,5.78,2.735,5.78
					s2.004-3.571,2.735-5.78C57.1,46.588,56.054,47.32,54.832,47.32z"/>
			</g>
		</g>
		<g>
			<g>
				<path style="fill:#FFFFFF;" d="M51,62.028c-1.221,0-2.268-0.732-2.735-1.78c0.731,2.208,2.735,5.78,2.735,5.78
					s2.004-3.571,2.735-5.78C53.268,61.296,52.221,62.028,51,62.028z"/>
			</g>
		</g>
		<g>
			<g>
				<path style="fill:#FFFFFF;" d="M43,62.028c-1.221,0-2.268-0.732-2.735-1.78c0.731,2.208,2.735,5.78,2.735,5.78
					s2.004-3.571,2.735-5.78C45.268,61.296,44.221,62.028,43,62.028z"/>
			</g>
		</g>
		<g>
			<g>
				<path style="fill:#FFFFFF;" d="M39,76.028c-1.221,0-2.268-0.732-2.735-1.78c0.731,2.208,2.735,5.78,2.735,5.78
					s2.004-3.571,2.735-5.78C41.268,75.296,40.221,76.028,39,76.028z"/>
			</g>
		</g>
		<g>
			<g>
				<path style="fill:#FFFFFF;" d="M47,76.028c-1.221,0-2.268-0.732-2.735-1.78c0.731,2.208,2.735,5.78,2.735,5.78
					s2.004-3.571,2.735-5.78C49.268,75.296,48.221,76.028,47,76.028z"/>
			</g>
		</g>
		<g>
			<g>
				<path style="fill:#FFFFFF;" d="M55,76.028c-1.221,0-2.268-0.732-2.735-1.78c0.731,2.208,2.735,5.78,2.735,5.78
					s2.004-3.571,2.735-5.78C57.268,75.296,56.221,76.028,55,76.028z"/>
			</g>
		</g>
		<g>
			<g>
				<path style="fill:#FFFFFF;" d="M63,76.028c-1.221,0-2.268-0.732-2.735-1.78c0.731,2.208,2.735,5.78,2.735,5.78
					s2.004-3.571,2.735-5.78C65.268,75.296,64.221,76.028,63,76.028z"/>
			</g>
		</g>
		<g>
			<g>
				<path style="fill:#FFFFFF;" d="M71,76.028c-1.221,0-2.268-0.732-2.735-1.78c0.731,2.208,2.735,5.78,2.735,5.78
					s2.004-3.571,2.735-5.78C73.268,75.296,72.221,76.028,71,76.028z"/>
			</g>
		</g>
		<g>
			<g>
				<path style="fill:#FFFFFF;" d="M59,62.028c-1.221,0-2.268-0.732-2.735-1.78c0.731,2.208,2.735,5.78,2.735,5.78
					s2.004-3.571,2.735-5.78C61.268,61.296,60.221,62.028,59,62.028z"/>
			</g>
		</g>
		<g>
			<g>
				<path style="fill:#FFFFFF;" d="M67,62.028c-1.221,0-2.268-0.732-2.735-1.78c0.731,2.208,2.735,5.78,2.735,5.78
					s2.004-3.571,2.735-5.78C69.268,61.296,68.221,62.028,67,62.028z"/>
			</g>
		</g>
		<g>
			<g>
				<path style="fill:#FFFFFF;" d="M63,47.32c-1.221,0-2.268-0.732-2.735-1.78C60.996,47.749,63,51.32,63,51.32
					s2.004-3.571,2.735-5.78C65.268,46.588,64.221,47.32,63,47.32z"/>
			</g>
		</g>
		<g>
			<g>
				<path style="fill:#FFFFFF;" d="M47,47.32c-1.221,0-2.268-0.732-2.735-1.78C44.996,47.749,47,51.32,47,51.32
					s2.004-3.571,2.735-5.78C49.268,46.588,48.221,47.32,47,47.32z"/>
			</g>
		</g>
	</g>
</g>
<g id="Multicolor" style="display:none;">
	<g style="display:inline;">
		<g>
			<path style="fill:#E2E4E5;" d="M82.803,82.087L72.149,36.631C70.277,28.646,63.155,23,54.954,23S39.631,28.646,37.76,36.631
				L27.106,82.087c-0.279,1.189,0.001,2.441,0.76,3.398S29.779,87,31,87h47.908c1.221,0,2.376-0.558,3.135-1.515
				S83.081,83.276,82.803,82.087z M66,44.292c0,1.657-1.343,3-3,3c-1.657,0-3-1.343-3-3c0-1.657,1.343-3,3-3
				C64.657,41.292,66,42.635,66,44.292z M55,27c4.418,0,8,3.582,8,8H47C47,30.582,50.582,27,55,27z M57.833,44.292
				c0,1.657-1.343,3-3,3c-1.657,0-3-1.343-3-3c0-1.657,1.343-3,3-3C56.489,41.292,57.833,42.635,57.833,44.292z M47,41.292
				c1.657,0,3,1.343,3,3c0,1.657-1.343,3-3,3s-3-1.343-3-3C44,42.635,45.343,41.292,47,41.292z M39,76c-1.657,0-3-1.343-3-3
				s1.343-3,3-3s3,1.343,3,3S40.657,76,39,76z M40,59c0-1.657,1.343-3,3-3s3,1.343,3,3s-1.343,3-3,3S40,60.657,40,59z M47,76
				c-1.657,0-3-1.343-3-3s1.343-3,3-3s3,1.343,3,3S48.657,76,47,76z M48,59c0-1.657,1.343-3,3-3s3,1.343,3,3s-1.343,3-3,3
				S48,60.657,48,59z M55,76c-1.657,0-3-1.343-3-3s1.343-3,3-3s3,1.343,3,3S56.657,76,55,76z M56,59c0-1.657,1.343-3,3-3
				s3,1.343,3,3s-1.343,3-3,3S56,60.657,56,59z M63,76c-1.657,0-3-1.343-3-3s1.343-3,3-3c1.657,0,3,1.343,3,3S64.657,76,63,76z
				 M64,59c0-1.657,1.343-3,3-3s3,1.343,3,3s-1.343,3-3,3S64,60.657,64,59z M71,76c-1.657,0-3-1.343-3-3s1.343-3,3-3s3,1.343,3,3
				S72.657,76,71,76z"/>
		</g>
		<g>
			<path style="fill:#CFD3D4;" d="M77.789,80.66L67.819,39h-26l-9.79,41.66c-0.1,0.58,0.06,1.18,0.44,1.63
				c0.38,0.45,0.94,0.71,1.53,0.71h41.82c0.59,0,1.15-0.26,1.53-0.71C77.729,81.84,77.889,81.24,77.789,80.66z M63,41.292
				c1.657,0,3,1.343,3,3c0,1.657-1.343,3-3,3c-1.657,0-3-1.343-3-3C60,42.635,61.343,41.292,63,41.292z M54.833,41.292
				c1.657,0,3,1.343,3,3c0,1.657-1.343,3-3,3c-1.657,0-3-1.343-3-3C51.833,42.635,53.176,41.292,54.833,41.292z M47,41.292
				c1.657,0,3,1.343,3,3c0,1.657-1.343,3-3,3s-3-1.343-3-3C44,42.635,45.343,41.292,47,41.292z M39,76c-1.657,0-3-1.343-3-3
				s1.343-3,3-3s3,1.343,3,3S40.657,76,39,76z M40,59c0-1.657,1.343-3,3-3s3,1.343,3,3s-1.343,3-3,3S40,60.657,40,59z M47,76
				c-1.657,0-3-1.343-3-3s1.343-3,3-3s3,1.343,3,3S48.657,76,47,76z M48,59c0-1.657,1.343-3,3-3s3,1.343,3,3s-1.343,3-3,3
				S48,60.657,48,59z M55,76c-1.657,0-3-1.343-3-3s1.343-3,3-3s3,1.343,3,3S56.657,76,55,76z M56,59c0-1.657,1.343-3,3-3
				s3,1.343,3,3s-1.343,3-3,3S56,60.657,56,59z M63,76c-1.657,0-3-1.343-3-3s1.343-3,3-3c1.657,0,3,1.343,3,3S64.657,76,63,76z
				 M64,59c0-1.657,1.343-3,3-3s3,1.343,3,3s-1.343,3-3,3S64,60.657,64,59z M71,76c-1.657,0-3-1.343-3-3s1.343-3,3-3s3,1.343,3,3
				S72.657,76,71,76z"/>
		</g>
		<g>
			<path style="fill:#FFFFFF;" d="M54.954,23c-8.201,0-15.323,5.646-17.195,13.631L27.106,82.087
				c-0.216,0.921-0.089,1.875,0.329,2.705l9.569-9.569C36.392,74.675,36,73.886,36,73c0-1.657,1.343-3,3-3
				c0.886,0,1.675,0.392,2.224,1.003l9.089-9.089C48.989,61.602,48,60.419,48,59c0-1.657,1.343-3,3-3
				c1.42,0,2.602,0.989,2.914,2.313l18.89-18.89l-0.655-2.793C70.277,28.646,63.155,23,54.954,23z M43,62c-1.657,0-3-1.343-3-3
				s1.343-3,3-3s3,1.343,3,3S44.657,62,43,62z M47,47.292c-1.657,0-3-1.343-3-3c0-1.657,1.343-3,3-3s3,1.343,3,3
				C50,45.948,48.657,47.292,47,47.292z M47,35c0-4.418,3.582-8,8-8s8,3.582,8,8H47z M54.833,47.292c-1.657,0-3-1.343-3-3
				c0-1.657,1.343-3,3-3c1.657,0,3,1.343,3,3C57.833,45.948,56.489,47.292,54.833,47.292z M63,47.292c-1.657,0-3-1.343-3-3
				c0-1.657,1.343-3,3-3c1.657,0,3,1.343,3,3C66,45.948,64.657,47.292,63,47.292z"/>
		</g>
		<g>
			<path style="fill:#E2E4E5;" d="M41.819,39l-9.648,41.056l4.832-4.832C36.392,74.675,36,73.886,36,73c0-1.657,1.343-3,3-3
				c0.886,0,1.675,0.392,2.224,1.003l9.089-9.089C48.989,61.602,48,60.419,48,59c0-1.657,1.343-3,3-3
				c1.42,0,2.602,0.989,2.914,2.313l14.95-14.95L67.819,39H41.819z M43,62c-1.657,0-3-1.343-3-3s1.343-3,3-3s3,1.343,3,3
				S44.657,62,43,62z M47,47.292c-1.657,0-3-1.343-3-3c0-1.657,1.343-3,3-3s3,1.343,3,3C50,45.948,48.657,47.292,47,47.292z
				 M54.833,47.292c-1.657,0-3-1.343-3-3c0-1.657,1.343-3,3-3c1.657,0,3,1.343,3,3C57.833,45.948,56.489,47.292,54.833,47.292z
				 M63,47.292c-1.657,0-3-1.343-3-3c0-1.657,1.343-3,3-3c1.657,0,3,1.343,3,3C66,45.948,64.657,47.292,63,47.292z"/>
		</g>
		<g>
			<g>
				<path style="fill:#FFFFFF;" d="M54.832,47.32c-1.221,0-2.268-0.732-2.735-1.78c0.731,2.208,2.735,5.78,2.735,5.78
					s2.004-3.571,2.735-5.78C57.1,46.588,56.054,47.32,54.832,47.32z"/>
			</g>
		</g>
		<g>
			<g>
				<path style="fill:#FFFFFF;" d="M51,62.028c-1.221,0-2.268-0.732-2.735-1.78c0.731,2.208,2.735,5.78,2.735,5.78
					s2.004-3.571,2.735-5.78C53.268,61.296,52.221,62.028,51,62.028z"/>
			</g>
		</g>
		<g>
			<g>
				<path style="fill:#FFFFFF;" d="M43,62.028c-1.221,0-2.268-0.732-2.735-1.78c0.731,2.208,2.735,5.78,2.735,5.78
					s2.004-3.571,2.735-5.78C45.268,61.296,44.221,62.028,43,62.028z"/>
			</g>
		</g>
		<g>
			<g>
				<path style="fill:#FFFFFF;" d="M39,76.028c-1.221,0-2.268-0.732-2.735-1.78c0.731,2.208,2.735,5.78,2.735,5.78
					s2.004-3.571,2.735-5.78C41.268,75.296,40.221,76.028,39,76.028z"/>
			</g>
		</g>
		<g>
			<g>
				<path style="fill:#FFFFFF;" d="M47,76.028c-1.221,0-2.268-0.732-2.735-1.78c0.731,2.208,2.735,5.78,2.735,5.78
					s2.004-3.571,2.735-5.78C49.268,75.296,48.221,76.028,47,76.028z"/>
			</g>
		</g>
		<g>
			<g>
				<path style="fill:#FFFFFF;" d="M55,76.028c-1.221,0-2.268-0.732-2.735-1.78c0.731,2.208,2.735,5.78,2.735,5.78
					s2.004-3.571,2.735-5.78C57.268,75.296,56.221,76.028,55,76.028z"/>
			</g>
		</g>
		<g>
			<g>
				<path style="fill:#FFFFFF;" d="M63,76.028c-1.221,0-2.268-0.732-2.735-1.78c0.731,2.208,2.735,5.78,2.735,5.78
					s2.004-3.571,2.735-5.78C65.268,75.296,64.221,76.028,63,76.028z"/>
			</g>
		</g>
		<g>
			<g>
				<path style="fill:#FFFFFF;" d="M71,76.028c-1.221,0-2.268-0.732-2.735-1.78c0.731,2.208,2.735,5.78,2.735,5.78
					s2.004-3.571,2.735-5.78C73.268,75.296,72.221,76.028,71,76.028z"/>
			</g>
		</g>
		<g>
			<g>
				<path style="fill:#FFFFFF;" d="M59,62.028c-1.221,0-2.268-0.732-2.735-1.78c0.731,2.208,2.735,5.78,2.735,5.78
					s2.004-3.571,2.735-5.78C61.268,61.296,60.221,62.028,59,62.028z"/>
			</g>
		</g>
		<g>
			<g>
				<path style="fill:#FFFFFF;" d="M67,62.028c-1.221,0-2.268-0.732-2.735-1.78c0.731,2.208,2.735,5.78,2.735,5.78
					s2.004-3.571,2.735-5.78C69.268,61.296,68.221,62.028,67,62.028z"/>
			</g>
		</g>
		<g>
			<g>
				<path style="fill:#FFFFFF;" d="M63,47.32c-1.221,0-2.268-0.732-2.735-1.78C60.996,47.749,63,51.32,63,51.32
					s2.004-3.571,2.735-5.78C65.268,46.588,64.221,47.32,63,47.32z"/>
			</g>
		</g>
		<g>
			<g>
				<path style="fill:#FFFFFF;" d="M47,47.32c-1.221,0-2.268-0.732-2.735-1.78C44.996,47.749,47,51.32,47,51.32
					s2.004-3.571,2.735-5.78C49.268,46.588,48.221,47.32,47,47.32z"/>
			</g>
		</g>
	</g>
</g>
<g id="Blue" style="display:none;">
	<g style="display:inline;">
		<g>
			<path style="fill:#E1F5FA;" d="M82.803,82.087L72.148,36.631C70.277,28.646,63.155,23,54.954,23S39.631,28.646,37.76,36.631
				L27.106,82.087c-0.278,1.189,0.001,2.44,0.76,3.397C28.624,86.442,29.779,87,31,87h47.908c1.222,0,2.376-0.558,3.135-1.515
				C82.802,84.528,83.081,83.276,82.803,82.087z M66,44.292c0,1.657-1.344,3-3,3c-1.657,0-3-1.343-3-3c0-1.657,1.343-3,3-3
				C64.656,41.292,66,42.635,66,44.292z M55,27c4.418,0,8,3.582,8,8H47C47,30.582,50.582,27,55,27z M57.832,44.292
				c0,1.657-1.343,3-3,3c-1.656,0-3-1.343-3-3c0-1.657,1.344-3,3-3C56.489,41.292,57.832,42.635,57.832,44.292z M47,41.292
				c1.656,0,3,1.343,3,3c0,1.657-1.344,3-3,3c-1.657,0-3-1.343-3-3C44,42.635,45.343,41.292,47,41.292z M39,76c-1.657,0-3-1.343-3-3
				s1.343-3,3-3c1.656,0,3,1.343,3,3S40.656,76,39,76z M40,59c0-1.657,1.343-3,3-3c1.656,0,3,1.343,3,3s-1.344,3-3,3
				C41.343,62,40,60.657,40,59z M47,76c-1.657,0-3-1.343-3-3s1.343-3,3-3c1.656,0,3,1.343,3,3S48.656,76,47,76z M48,59
				c0-1.657,1.343-3,3-3c1.656,0,3,1.343,3,3s-1.344,3-3,3C49.343,62,48,60.657,48,59z M55,76c-1.657,0-3-1.343-3-3s1.343-3,3-3
				c1.656,0,3,1.343,3,3S56.656,76,55,76z M56,59c0-1.657,1.343-3,3-3c1.656,0,3,1.343,3,3s-1.344,3-3,3C57.343,62,56,60.657,56,59z
				 M63,76c-1.657,0-3-1.343-3-3s1.343-3,3-3c1.656,0,3,1.343,3,3S64.656,76,63,76z M64,59c0-1.657,1.343-3,3-3c1.656,0,3,1.343,3,3
				s-1.344,3-3,3C65.343,62,64,60.657,64,59z M71,76c-1.657,0-3-1.343-3-3s1.343-3,3-3c1.656,0,3,1.343,3,3S72.656,76,71,76z"/>
		</g>
		<g>
			<path style="fill:#BBE7F2;" d="M77.789,80.66L67.819,39h-26l-9.79,41.66c-0.1,0.58,0.06,1.18,0.439,1.63
				C32.85,82.74,33.409,83,34,83h41.819c0.59,0,1.149-0.26,1.53-0.71C77.729,81.84,77.889,81.24,77.789,80.66z M63,41.292
				c1.656,0,3,1.343,3,3c0,1.657-1.344,3-3,3c-1.657,0-3-1.343-3-3C60,42.635,61.343,41.292,63,41.292z M54.832,41.292
				c1.657,0,3,1.343,3,3c0,1.657-1.343,3-3,3c-1.656,0-3-1.343-3-3C51.832,42.635,53.176,41.292,54.832,41.292z M47,41.292
				c1.656,0,3,1.343,3,3c0,1.657-1.344,3-3,3c-1.657,0-3-1.343-3-3C44,42.635,45.343,41.292,47,41.292z M39,76c-1.657,0-3-1.343-3-3
				s1.343-3,3-3c1.656,0,3,1.343,3,3S40.656,76,39,76z M40,59c0-1.657,1.343-3,3-3c1.656,0,3,1.343,3,3s-1.344,3-3,3
				C41.343,62,40,60.657,40,59z M47,76c-1.657,0-3-1.343-3-3s1.343-3,3-3c1.656,0,3,1.343,3,3S48.656,76,47,76z M48,59
				c0-1.657,1.343-3,3-3c1.656,0,3,1.343,3,3s-1.344,3-3,3C49.343,62,48,60.657,48,59z M55,76c-1.657,0-3-1.343-3-3s1.343-3,3-3
				c1.656,0,3,1.343,3,3S56.656,76,55,76z M56,59c0-1.657,1.343-3,3-3c1.656,0,3,1.343,3,3s-1.344,3-3,3C57.343,62,56,60.657,56,59z
				 M63,76c-1.657,0-3-1.343-3-3s1.343-3,3-3c1.656,0,3,1.343,3,3S64.656,76,63,76z M64,59c0-1.657,1.343-3,3-3c1.656,0,3,1.343,3,3
				s-1.344,3-3,3C65.343,62,64,60.657,64,59z M71,76c-1.657,0-3-1.343-3-3s1.343-3,3-3c1.656,0,3,1.343,3,3S72.656,76,71,76z"/>
		</g>
		<g>
			<path style="fill:#FFFFFF;" d="M54.954,23c-8.201,0-15.323,5.646-17.194,13.631L27.106,82.087
				c-0.216,0.921-0.088,1.875,0.329,2.705l9.568-9.568C36.392,74.675,36,73.886,36,73c0-1.657,1.343-3,3-3
				c0.887,0,1.675,0.392,2.224,1.003l9.09-9.089C48.988,61.602,48,60.419,48,59c0-1.657,1.343-3,3-3c1.42,0,2.602,0.989,2.914,2.313
				l18.89-18.89l-0.655-2.792C70.277,28.646,63.155,23,54.954,23z M43,62c-1.657,0-3-1.343-3-3s1.343-3,3-3c1.656,0,3,1.343,3,3
				S44.656,62,43,62z M47,47.292c-1.657,0-3-1.343-3-3c0-1.657,1.343-3,3-3c1.656,0,3,1.343,3,3C50,45.949,48.656,47.292,47,47.292z
				 M47,35c0-4.418,3.582-8,8-8s8,3.582,8,8H47z M54.832,47.292c-1.656,0-3-1.343-3-3c0-1.657,1.344-3,3-3c1.657,0,3,1.343,3,3
				C57.832,45.949,56.489,47.292,54.832,47.292z M63,47.292c-1.657,0-3-1.343-3-3c0-1.657,1.343-3,3-3c1.656,0,3,1.343,3,3
				C66,45.949,64.656,47.292,63,47.292z"/>
		</g>
		<g>
			<path style="fill:#E1F5FA;" d="M41.819,39l-9.648,41.056l4.832-4.832C36.392,74.675,36,73.886,36,73c0-1.657,1.343-3,3-3
				c0.887,0,1.675,0.392,2.224,1.003l9.09-9.089C48.988,61.602,48,60.419,48,59c0-1.657,1.343-3,3-3c1.42,0,2.602,0.989,2.914,2.313
				l14.949-14.95L67.819,39H41.819z M43,62c-1.657,0-3-1.343-3-3s1.343-3,3-3c1.656,0,3,1.343,3,3S44.656,62,43,62z M47,47.292
				c-1.657,0-3-1.343-3-3c0-1.657,1.343-3,3-3c1.656,0,3,1.343,3,3C50,45.949,48.656,47.292,47,47.292z M54.832,47.292
				c-1.656,0-3-1.343-3-3c0-1.657,1.344-3,3-3c1.657,0,3,1.343,3,3C57.832,45.949,56.489,47.292,54.832,47.292z M63,47.292
				c-1.657,0-3-1.343-3-3c0-1.657,1.343-3,3-3c1.656,0,3,1.343,3,3C66,45.949,64.656,47.292,63,47.292z"/>
		</g>
		<g>
			<g>
				<path style="fill:#FFFFFF;" d="M54.832,47.32c-1.221,0-2.268-0.732-2.734-1.78c0.73,2.208,2.734,5.78,2.734,5.78
					s2.005-3.572,2.736-5.78C57.1,46.588,56.054,47.32,54.832,47.32z"/>
			</g>
		</g>
		<g>
			<g>
				<path style="fill:#FFFFFF;" d="M51,62.028c-1.221,0-2.268-0.732-2.735-1.779C48.996,62.458,51,66.028,51,66.028
					s2.004-3.571,2.735-5.779C53.268,61.296,52.221,62.028,51,62.028z"/>
			</g>
		</g>
		<g>
			<g>
				<path style="fill:#FFFFFF;" d="M43,62.028c-1.221,0-2.268-0.732-2.735-1.779C40.996,62.458,43,66.028,43,66.028
					s2.004-3.571,2.735-5.779C45.268,61.296,44.221,62.028,43,62.028z"/>
			</g>
		</g>
		<g>
			<g>
				<path style="fill:#FFFFFF;" d="M39,76.028c-1.221,0-2.268-0.732-2.735-1.779C36.996,76.458,39,80.028,39,80.028
					s2.004-3.571,2.735-5.779C41.268,75.296,40.221,76.028,39,76.028z"/>
			</g>
		</g>
		<g>
			<g>
				<path style="fill:#FFFFFF;" d="M47,76.028c-1.221,0-2.268-0.732-2.735-1.779C44.996,76.458,47,80.028,47,80.028
					s2.004-3.571,2.735-5.779C49.268,75.296,48.221,76.028,47,76.028z"/>
			</g>
		</g>
		<g>
			<g>
				<path style="fill:#FFFFFF;" d="M55,76.028c-1.221,0-2.268-0.732-2.735-1.779C52.996,76.458,55,80.028,55,80.028
					s2.004-3.571,2.735-5.779C57.268,75.296,56.221,76.028,55,76.028z"/>
			</g>
		</g>
		<g>
			<g>
				<path style="fill:#FFFFFF;" d="M63,76.028c-1.221,0-2.268-0.732-2.735-1.779C60.996,76.458,63,80.028,63,80.028
					s2.004-3.571,2.735-5.779C65.268,75.296,64.221,76.028,63,76.028z"/>
			</g>
		</g>
		<g>
			<g>
				<path style="fill:#FFFFFF;" d="M71,76.028c-1.221,0-2.268-0.732-2.735-1.779C68.996,76.458,71,80.028,71,80.028
					s2.004-3.571,2.735-5.779C73.268,75.296,72.221,76.028,71,76.028z"/>
			</g>
		</g>
		<g>
			<g>
				<path style="fill:#FFFFFF;" d="M59,62.028c-1.221,0-2.268-0.732-2.735-1.779C56.996,62.458,59,66.028,59,66.028
					s2.004-3.571,2.735-5.779C61.268,61.296,60.221,62.028,59,62.028z"/>
			</g>
		</g>
		<g>
			<g>
				<path style="fill:#FFFFFF;" d="M67,62.028c-1.221,0-2.268-0.732-2.735-1.779C64.996,62.458,67,66.028,67,66.028
					s2.004-3.571,2.735-5.779C69.268,61.296,68.221,62.028,67,62.028z"/>
			</g>
		</g>
		<g>
			<g>
				<path style="fill:#FFFFFF;" d="M63,47.32c-1.221,0-2.268-0.732-2.735-1.78C60.996,47.749,63,51.32,63,51.32
					s2.004-3.572,2.735-5.78C65.268,46.588,64.221,47.32,63,47.32z"/>
			</g>
		</g>
		<g>
			<g>
				<path style="fill:#FFFFFF;" d="M47,47.32c-1.221,0-2.268-0.732-2.735-1.78C44.996,47.749,47,51.32,47,51.32
					s2.004-3.572,2.735-5.78C49.268,46.588,48.221,47.32,47,47.32z"/>
			</g>
		</g>
	</g>
</g>
<g id="R-Blue" style="display:none;">
	<circle style="display:inline;fill:#81D2EB;" cx="55" cy="55" r="55"/>
	<g style="display:inline;">
		<g>
			<path style="fill:#E1F5FA;" d="M82.803,82.087L72.148,36.631C70.277,28.646,63.155,23,54.954,23S39.631,28.646,37.76,36.631
				L27.106,82.087c-0.278,1.189,0.001,2.44,0.76,3.397C28.624,86.442,29.779,87,31,87h47.908c1.222,0,2.376-0.558,3.135-1.515
				C82.802,84.528,83.081,83.276,82.803,82.087z M66,44.292c0,1.657-1.344,3-3,3c-1.657,0-3-1.343-3-3c0-1.657,1.343-3,3-3
				C64.656,41.292,66,42.635,66,44.292z M55,27c4.418,0,8,3.582,8,8H47C47,30.582,50.582,27,55,27z M57.832,44.292
				c0,1.657-1.343,3-3,3c-1.656,0-3-1.343-3-3c0-1.657,1.344-3,3-3C56.489,41.292,57.832,42.635,57.832,44.292z M47,41.292
				c1.656,0,3,1.343,3,3c0,1.657-1.344,3-3,3c-1.657,0-3-1.343-3-3C44,42.635,45.343,41.292,47,41.292z M39,76c-1.657,0-3-1.343-3-3
				s1.343-3,3-3c1.656,0,3,1.343,3,3S40.656,76,39,76z M40,59c0-1.657,1.343-3,3-3c1.656,0,3,1.343,3,3s-1.344,3-3,3
				C41.343,62,40,60.657,40,59z M47,76c-1.657,0-3-1.343-3-3s1.343-3,3-3c1.656,0,3,1.343,3,3S48.656,76,47,76z M48,59
				c0-1.657,1.343-3,3-3c1.656,0,3,1.343,3,3s-1.344,3-3,3C49.343,62,48,60.657,48,59z M55,76c-1.657,0-3-1.343-3-3s1.343-3,3-3
				c1.656,0,3,1.343,3,3S56.656,76,55,76z M56,59c0-1.657,1.343-3,3-3c1.656,0,3,1.343,3,3s-1.344,3-3,3C57.343,62,56,60.657,56,59z
				 M63,76c-1.657,0-3-1.343-3-3s1.343-3,3-3c1.656,0,3,1.343,3,3S64.656,76,63,76z M64,59c0-1.657,1.343-3,3-3c1.656,0,3,1.343,3,3
				s-1.344,3-3,3C65.343,62,64,60.657,64,59z M71,76c-1.657,0-3-1.343-3-3s1.343-3,3-3c1.656,0,3,1.343,3,3S72.656,76,71,76z"/>
		</g>
		<g>
			<path style="fill:#BBE7F2;" d="M77.789,80.66L67.819,39h-26l-9.79,41.66c-0.1,0.58,0.06,1.18,0.439,1.63
				C32.85,82.74,33.409,83,34,83h41.819c0.59,0,1.149-0.26,1.53-0.71C77.729,81.84,77.889,81.24,77.789,80.66z M63,41.292
				c1.656,0,3,1.343,3,3c0,1.657-1.344,3-3,3c-1.657,0-3-1.343-3-3C60,42.635,61.343,41.292,63,41.292z M54.832,41.292
				c1.657,0,3,1.343,3,3c0,1.657-1.343,3-3,3c-1.656,0-3-1.343-3-3C51.832,42.635,53.176,41.292,54.832,41.292z M47,41.292
				c1.656,0,3,1.343,3,3c0,1.657-1.344,3-3,3c-1.657,0-3-1.343-3-3C44,42.635,45.343,41.292,47,41.292z M39,76c-1.657,0-3-1.343-3-3
				s1.343-3,3-3c1.656,0,3,1.343,3,3S40.656,76,39,76z M40,59c0-1.657,1.343-3,3-3c1.656,0,3,1.343,3,3s-1.344,3-3,3
				C41.343,62,40,60.657,40,59z M47,76c-1.657,0-3-1.343-3-3s1.343-3,3-3c1.656,0,3,1.343,3,3S48.656,76,47,76z M48,59
				c0-1.657,1.343-3,3-3c1.656,0,3,1.343,3,3s-1.344,3-3,3C49.343,62,48,60.657,48,59z M55,76c-1.657,0-3-1.343-3-3s1.343-3,3-3
				c1.656,0,3,1.343,3,3S56.656,76,55,76z M56,59c0-1.657,1.343-3,3-3c1.656,0,3,1.343,3,3s-1.344,3-3,3C57.343,62,56,60.657,56,59z
				 M63,76c-1.657,0-3-1.343-3-3s1.343-3,3-3c1.656,0,3,1.343,3,3S64.656,76,63,76z M64,59c0-1.657,1.343-3,3-3c1.656,0,3,1.343,3,3
				s-1.344,3-3,3C65.343,62,64,60.657,64,59z M71,76c-1.657,0-3-1.343-3-3s1.343-3,3-3c1.656,0,3,1.343,3,3S72.656,76,71,76z"/>
		</g>
		<g>
			<path style="fill:#FFFFFF;" d="M54.954,23c-8.201,0-15.323,5.646-17.194,13.631L27.106,82.087
				c-0.216,0.921-0.088,1.876,0.329,2.705l9.568-9.568C36.392,74.675,36,73.886,36,73c0-1.657,1.343-3,3-3
				c0.887,0,1.675,0.392,2.224,1.003l9.09-9.089C48.988,61.602,48,60.419,48,59c0-1.657,1.343-3,3-3c1.42,0,2.602,0.989,2.914,2.313
				l18.89-18.89l-0.655-2.792C70.277,28.646,63.155,23,54.954,23z M43,62c-1.657,0-3-1.343-3-3s1.343-3,3-3c1.656,0,3,1.343,3,3
				S44.656,62,43,62z M47,47.292c-1.657,0-3-1.343-3-3c0-1.657,1.343-3,3-3c1.656,0,3,1.343,3,3C50,45.949,48.656,47.292,47,47.292z
				 M47,35c0-4.418,3.582-8,8-8s8,3.582,8,8H47z M54.832,47.292c-1.656,0-3-1.343-3-3c0-1.657,1.344-3,3-3c1.657,0,3,1.343,3,3
				C57.832,45.949,56.489,47.292,54.832,47.292z M63,47.292c-1.657,0-3-1.343-3-3c0-1.657,1.343-3,3-3c1.656,0,3,1.343,3,3
				C66,45.949,64.656,47.292,63,47.292z"/>
		</g>
		<g>
			<path style="fill:#E1F5FA;" d="M41.819,39l-9.648,41.056l4.832-4.832C36.392,74.675,36,73.886,36,73c0-1.657,1.343-3,3-3
				c0.887,0,1.675,0.392,2.224,1.003l9.09-9.089C48.988,61.602,48,60.419,48,59c0-1.657,1.343-3,3-3c1.42,0,2.602,0.989,2.914,2.313
				l14.949-14.95L67.819,39H41.819z M43,62c-1.657,0-3-1.343-3-3s1.343-3,3-3c1.656,0,3,1.343,3,3S44.656,62,43,62z M47,47.292
				c-1.657,0-3-1.343-3-3c0-1.657,1.343-3,3-3c1.656,0,3,1.343,3,3C50,45.949,48.656,47.292,47,47.292z M54.832,47.292
				c-1.656,0-3-1.343-3-3c0-1.657,1.344-3,3-3c1.657,0,3,1.343,3,3C57.832,45.949,56.489,47.292,54.832,47.292z M63,47.292
				c-1.657,0-3-1.343-3-3c0-1.657,1.343-3,3-3c1.656,0,3,1.343,3,3C66,45.949,64.656,47.292,63,47.292z"/>
		</g>
		<g>
			<g>
				<path style="fill:#FFFFFF;" d="M54.832,47.32c-1.221,0-2.268-0.732-2.734-1.78c0.73,2.208,2.734,5.78,2.734,5.78
					s2.005-3.572,2.736-5.78C57.1,46.588,56.054,47.32,54.832,47.32z"/>
			</g>
		</g>
		<g>
			<g>
				<path style="fill:#FFFFFF;" d="M51,62.028c-1.221,0-2.268-0.732-2.735-1.779C48.996,62.457,51,66.028,51,66.028
					s2.004-3.571,2.735-5.779C53.268,61.296,52.221,62.028,51,62.028z"/>
			</g>
		</g>
		<g>
			<g>
				<path style="fill:#FFFFFF;" d="M43,62.028c-1.221,0-2.268-0.732-2.735-1.779C40.996,62.457,43,66.028,43,66.028
					s2.004-3.571,2.735-5.779C45.268,61.296,44.221,62.028,43,62.028z"/>
			</g>
		</g>
		<g>
			<g>
				<path style="fill:#FFFFFF;" d="M39,76.028c-1.221,0-2.268-0.732-2.735-1.779C36.996,76.457,39,80.028,39,80.028
					s2.004-3.571,2.735-5.779C41.268,75.296,40.221,76.028,39,76.028z"/>
			</g>
		</g>
		<g>
			<g>
				<path style="fill:#FFFFFF;" d="M47,76.028c-1.221,0-2.268-0.732-2.735-1.779C44.996,76.457,47,80.028,47,80.028
					s2.004-3.571,2.735-5.779C49.268,75.296,48.221,76.028,47,76.028z"/>
			</g>
		</g>
		<g>
			<g>
				<path style="fill:#FFFFFF;" d="M55,76.028c-1.221,0-2.268-0.732-2.735-1.779C52.996,76.457,55,80.028,55,80.028
					s2.004-3.571,2.735-5.779C57.268,75.296,56.221,76.028,55,76.028z"/>
			</g>
		</g>
		<g>
			<g>
				<path style="fill:#FFFFFF;" d="M63,76.028c-1.221,0-2.268-0.732-2.735-1.779C60.996,76.457,63,80.028,63,80.028
					s2.004-3.571,2.735-5.779C65.268,75.296,64.221,76.028,63,76.028z"/>
			</g>
		</g>
		<g>
			<g>
				<path style="fill:#FFFFFF;" d="M71,76.028c-1.221,0-2.268-0.732-2.735-1.779C68.996,76.457,71,80.028,71,80.028
					s2.004-3.571,2.735-5.779C73.268,75.296,72.221,76.028,71,76.028z"/>
			</g>
		</g>
		<g>
			<g>
				<path style="fill:#FFFFFF;" d="M59,62.028c-1.221,0-2.268-0.732-2.735-1.779C56.996,62.457,59,66.028,59,66.028
					s2.004-3.571,2.735-5.779C61.268,61.296,60.221,62.028,59,62.028z"/>
			</g>
		</g>
		<g>
			<g>
				<path style="fill:#FFFFFF;" d="M67,62.028c-1.221,0-2.268-0.732-2.735-1.779C64.996,62.457,67,66.028,67,66.028
					s2.004-3.571,2.735-5.779C69.268,61.296,68.221,62.028,67,62.028z"/>
			</g>
		</g>
		<g>
			<g>
				<path style="fill:#FFFFFF;" d="M63,47.32c-1.221,0-2.268-0.732-2.735-1.78C60.996,47.748,63,51.32,63,51.32
					s2.004-3.572,2.735-5.78C65.268,46.588,64.221,47.32,63,47.32z"/>
			</g>
		</g>
		<g>
			<g>
				<path style="fill:#FFFFFF;" d="M47,47.32c-1.221,0-2.268-0.732-2.735-1.78C44.996,47.748,47,51.32,47,51.32
					s2.004-3.572,2.735-5.78C49.268,46.588,48.221,47.32,47,47.32z"/>
			</g>
		</g>
	</g>
</g>
<g id="Green" style="display:none;">
	<g style="display:inline;">
		<g>
			<path style="fill:#D7FCF9;" d="M82.803,82.087L72.148,36.631C70.277,28.646,63.155,23,54.954,23S39.631,28.646,37.76,36.631
				L27.105,82.087c-0.278,1.189,0.001,2.44,0.76,3.397C28.624,86.442,29.779,87,31,87h47.908c1.222,0,2.376-0.558,3.135-1.515
				C82.802,84.528,83.081,83.276,82.803,82.087z M66,44.292c0,1.657-1.344,3-3,3c-1.657,0-3-1.343-3-3c0-1.657,1.343-3,3-3
				C64.656,41.292,66,42.635,66,44.292z M55,27c4.418,0,8,3.582,8,8H47C47,30.582,50.582,27,55,27z M57.832,44.292
				c0,1.657-1.343,3-3,3c-1.656,0-3-1.343-3-3c0-1.657,1.344-3,3-3C56.489,41.292,57.832,42.635,57.832,44.292z M47,41.292
				c1.656,0,3,1.343,3,3c0,1.657-1.344,3-3,3c-1.657,0-3-1.343-3-3C44,42.635,45.343,41.292,47,41.292z M39,76c-1.657,0-3-1.343-3-3
				s1.343-3,3-3c1.656,0,3,1.343,3,3S40.656,76,39,76z M40,59c0-1.657,1.343-3,3-3c1.656,0,3,1.343,3,3s-1.344,3-3,3
				C41.343,62,40,60.657,40,59z M47,76c-1.657,0-3-1.343-3-3s1.343-3,3-3c1.656,0,3,1.343,3,3S48.656,76,47,76z M48,59
				c0-1.657,1.343-3,3-3c1.656,0,3,1.343,3,3s-1.344,3-3,3C49.343,62,48,60.657,48,59z M55,76c-1.657,0-3-1.343-3-3s1.343-3,3-3
				c1.656,0,3,1.343,3,3S56.656,76,55,76z M56,59c0-1.657,1.343-3,3-3c1.656,0,3,1.343,3,3s-1.344,3-3,3C57.343,62,56,60.657,56,59z
				 M63,76c-1.657,0-3-1.343-3-3s1.343-3,3-3c1.656,0,3,1.343,3,3S64.656,76,63,76z M64,59c0-1.657,1.343-3,3-3c1.656,0,3,1.343,3,3
				s-1.344,3-3,3C65.343,62,64,60.657,64,59z M71,76c-1.657,0-3-1.343-3-3s1.343-3,3-3c1.656,0,3,1.343,3,3S72.656,76,71,76z"/>
		</g>
		<g>
			<path style="fill:#AAF0E9;" d="M77.789,80.66L67.819,39h-26l-9.79,41.66c-0.1,0.58,0.06,1.18,0.439,1.63
				C32.85,82.74,33.409,83,34,83h41.819c0.59,0,1.149-0.26,1.53-0.71C77.729,81.84,77.889,81.24,77.789,80.66z M63,41.292
				c1.656,0,3,1.343,3,3c0,1.657-1.344,3-3,3c-1.657,0-3-1.343-3-3C60,42.635,61.343,41.292,63,41.292z M54.832,41.292
				c1.657,0,3,1.343,3,3c0,1.657-1.343,3-3,3c-1.656,0-3-1.343-3-3C51.832,42.635,53.176,41.292,54.832,41.292z M47,41.292
				c1.656,0,3,1.343,3,3c0,1.657-1.344,3-3,3c-1.657,0-3-1.343-3-3C44,42.635,45.343,41.292,47,41.292z M39,76c-1.657,0-3-1.343-3-3
				s1.343-3,3-3c1.656,0,3,1.343,3,3S40.656,76,39,76z M40,59c0-1.657,1.343-3,3-3c1.656,0,3,1.343,3,3s-1.344,3-3,3
				C41.343,62,40,60.657,40,59z M47,76c-1.657,0-3-1.343-3-3s1.343-3,3-3c1.656,0,3,1.343,3,3S48.656,76,47,76z M48,59
				c0-1.657,1.343-3,3-3c1.656,0,3,1.343,3,3s-1.344,3-3,3C49.343,62,48,60.657,48,59z M55,76c-1.657,0-3-1.343-3-3s1.343-3,3-3
				c1.656,0,3,1.343,3,3S56.656,76,55,76z M56,59c0-1.657,1.343-3,3-3c1.656,0,3,1.343,3,3s-1.344,3-3,3C57.343,62,56,60.657,56,59z
				 M63,76c-1.657,0-3-1.343-3-3s1.343-3,3-3c1.656,0,3,1.343,3,3S64.656,76,63,76z M64,59c0-1.657,1.343-3,3-3c1.656,0,3,1.343,3,3
				s-1.344,3-3,3C65.343,62,64,60.657,64,59z M71,76c-1.657,0-3-1.343-3-3s1.343-3,3-3c1.656,0,3,1.343,3,3S72.656,76,71,76z"/>
		</g>
		<g>
			<path style="fill:#FFFFFF;" d="M54.954,23c-8.201,0-15.323,5.646-17.194,13.631L27.105,82.087
				c-0.216,0.921-0.088,1.875,0.329,2.705l9.568-9.568C36.392,74.675,36,73.886,36,73c0-1.657,1.343-3,3-3
				c0.887,0,1.675,0.392,2.224,1.003l9.09-9.089C48.988,61.602,48,60.419,48,59c0-1.657,1.343-3,3-3c1.42,0,2.602,0.989,2.914,2.313
				l18.89-18.89l-0.655-2.792C70.277,28.646,63.155,23,54.954,23z M43,62c-1.657,0-3-1.343-3-3s1.343-3,3-3c1.656,0,3,1.343,3,3
				S44.656,62,43,62z M47,47.292c-1.657,0-3-1.343-3-3c0-1.657,1.343-3,3-3c1.656,0,3,1.343,3,3C50,45.949,48.656,47.292,47,47.292z
				 M47,35c0-4.418,3.582-8,8-8s8,3.582,8,8H47z M54.832,47.292c-1.656,0-3-1.343-3-3c0-1.657,1.344-3,3-3c1.657,0,3,1.343,3,3
				C57.832,45.949,56.489,47.292,54.832,47.292z M63,47.292c-1.657,0-3-1.343-3-3c0-1.657,1.343-3,3-3c1.656,0,3,1.343,3,3
				C66,45.949,64.656,47.292,63,47.292z"/>
		</g>
		<g>
			<path style="fill:#D7FCF9;" d="M41.819,39l-9.648,41.056l4.832-4.832C36.392,74.675,36,73.886,36,73c0-1.657,1.343-3,3-3
				c0.887,0,1.675,0.392,2.224,1.003l9.09-9.089C48.988,61.602,48,60.419,48,59c0-1.657,1.343-3,3-3c1.42,0,2.602,0.989,2.914,2.313
				l14.949-14.95L67.819,39H41.819z M43,62c-1.657,0-3-1.343-3-3s1.343-3,3-3c1.656,0,3,1.343,3,3S44.656,62,43,62z M47,47.292
				c-1.657,0-3-1.343-3-3c0-1.657,1.343-3,3-3c1.656,0,3,1.343,3,3C50,45.949,48.656,47.292,47,47.292z M54.832,47.292
				c-1.656,0-3-1.343-3-3c0-1.657,1.344-3,3-3c1.657,0,3,1.343,3,3C57.832,45.949,56.489,47.292,54.832,47.292z M63,47.292
				c-1.657,0-3-1.343-3-3c0-1.657,1.343-3,3-3c1.656,0,3,1.343,3,3C66,45.949,64.656,47.292,63,47.292z"/>
		</g>
		<g>
			<g>
				<path style="fill:#FFFFFF;" d="M54.832,47.32c-1.221,0-2.268-0.732-2.734-1.78c0.73,2.208,2.734,5.78,2.734,5.78
					s2.005-3.572,2.736-5.78C57.1,46.588,56.054,47.32,54.832,47.32z"/>
			</g>
		</g>
		<g>
			<g>
				<path style="fill:#FFFFFF;" d="M51,62.028c-1.221,0-2.268-0.732-2.735-1.779C48.996,62.458,51,66.028,51,66.028
					s2.004-3.571,2.735-5.779C53.268,61.296,52.221,62.028,51,62.028z"/>
			</g>
		</g>
		<g>
			<g>
				<path style="fill:#FFFFFF;" d="M43,62.028c-1.221,0-2.268-0.732-2.735-1.779C40.996,62.458,43,66.028,43,66.028
					s2.004-3.571,2.735-5.779C45.268,61.296,44.221,62.028,43,62.028z"/>
			</g>
		</g>
		<g>
			<g>
				<path style="fill:#FFFFFF;" d="M39,76.028c-1.221,0-2.268-0.732-2.735-1.779C36.996,76.457,39,80.028,39,80.028
					s2.004-3.571,2.735-5.779C41.268,75.296,40.221,76.028,39,76.028z"/>
			</g>
		</g>
		<g>
			<g>
				<path style="fill:#FFFFFF;" d="M47,76.028c-1.221,0-2.268-0.732-2.735-1.779C44.996,76.457,47,80.028,47,80.028
					s2.004-3.571,2.735-5.779C49.268,75.296,48.221,76.028,47,76.028z"/>
			</g>
		</g>
		<g>
			<g>
				<path style="fill:#FFFFFF;" d="M55,76.028c-1.221,0-2.268-0.732-2.735-1.779C52.996,76.457,55,80.028,55,80.028
					s2.004-3.571,2.735-5.779C57.268,75.296,56.221,76.028,55,76.028z"/>
			</g>
		</g>
		<g>
			<g>
				<path style="fill:#FFFFFF;" d="M63,76.028c-1.221,0-2.268-0.732-2.735-1.779C60.996,76.457,63,80.028,63,80.028
					s2.004-3.571,2.735-5.779C65.268,75.296,64.221,76.028,63,76.028z"/>
			</g>
		</g>
		<g>
			<g>
				<path style="fill:#FFFFFF;" d="M71,76.028c-1.221,0-2.268-0.732-2.735-1.779C68.996,76.457,71,80.028,71,80.028
					s2.004-3.571,2.735-5.779C73.268,75.296,72.221,76.028,71,76.028z"/>
			</g>
		</g>
		<g>
			<g>
				<path style="fill:#FFFFFF;" d="M59,62.028c-1.221,0-2.268-0.732-2.735-1.779C56.996,62.458,59,66.028,59,66.028
					s2.004-3.571,2.735-5.779C61.268,61.296,60.221,62.028,59,62.028z"/>
			</g>
		</g>
		<g>
			<g>
				<path style="fill:#FFFFFF;" d="M67,62.028c-1.221,0-2.268-0.732-2.735-1.779C64.996,62.458,67,66.028,67,66.028
					s2.004-3.571,2.735-5.779C69.268,61.296,68.221,62.028,67,62.028z"/>
			</g>
		</g>
		<g>
			<g>
				<path style="fill:#FFFFFF;" d="M63,47.32c-1.221,0-2.268-0.732-2.735-1.78C60.996,47.749,63,51.32,63,51.32
					s2.004-3.572,2.735-5.78C65.268,46.588,64.221,47.32,63,47.32z"/>
			</g>
		</g>
		<g>
			<g>
				<path style="fill:#FFFFFF;" d="M47,47.32c-1.221,0-2.268-0.732-2.735-1.78C44.996,47.749,47,51.32,47,51.32
					s2.004-3.572,2.735-5.78C49.268,46.588,48.221,47.32,47,47.32z"/>
			</g>
		</g>
	</g>
</g>
<g id="R-Green" style="display:none;">
	<circle style="display:inline;fill:#77E0C4;" cx="55" cy="55" r="55"/>
	<g style="display:inline;">
		<g>
			<path style="fill:#D7FCF9;" d="M82.803,82.087L72.148,36.631C70.277,28.646,63.155,23,54.954,23S39.631,28.646,37.76,36.631
				L27.105,82.087c-0.278,1.189,0.001,2.44,0.76,3.397C28.624,86.442,29.779,87,31,87h47.908c1.222,0,2.376-0.558,3.135-1.515
				C82.802,84.528,83.081,83.276,82.803,82.087z M66,44.292c0,1.657-1.344,3-3,3c-1.657,0-3-1.343-3-3c0-1.657,1.343-3,3-3
				C64.656,41.292,66,42.635,66,44.292z M55,27c4.418,0,8,3.582,8,8H47C47,30.582,50.582,27,55,27z M57.832,44.292
				c0,1.657-1.343,3-3,3c-1.656,0-3-1.343-3-3c0-1.657,1.344-3,3-3C56.489,41.292,57.832,42.635,57.832,44.292z M47,41.292
				c1.656,0,3,1.343,3,3c0,1.657-1.344,3-3,3c-1.657,0-3-1.343-3-3C44,42.635,45.343,41.292,47,41.292z M39,76c-1.657,0-3-1.343-3-3
				s1.343-3,3-3c1.656,0,3,1.343,3,3S40.656,76,39,76z M40,59c0-1.657,1.343-3,3-3c1.656,0,3,1.343,3,3s-1.344,3-3,3
				C41.343,62,40,60.657,40,59z M47,76c-1.657,0-3-1.343-3-3s1.343-3,3-3c1.656,0,3,1.343,3,3S48.656,76,47,76z M48,59
				c0-1.657,1.343-3,3-3c1.656,0,3,1.343,3,3s-1.344,3-3,3C49.343,62,48,60.657,48,59z M55,76c-1.657,0-3-1.343-3-3s1.343-3,3-3
				c1.656,0,3,1.343,3,3S56.656,76,55,76z M56,59c0-1.657,1.343-3,3-3c1.656,0,3,1.343,3,3s-1.344,3-3,3C57.343,62,56,60.657,56,59z
				 M63,76c-1.657,0-3-1.343-3-3s1.343-3,3-3c1.656,0,3,1.343,3,3S64.656,76,63,76z M64,59c0-1.657,1.343-3,3-3c1.656,0,3,1.343,3,3
				s-1.344,3-3,3C65.343,62,64,60.657,64,59z M71,76c-1.657,0-3-1.343-3-3s1.343-3,3-3c1.656,0,3,1.343,3,3S72.656,76,71,76z"/>
		</g>
		<g>
			<path style="fill:#AAF0E9;" d="M77.789,80.66L67.819,39h-26l-9.79,41.66c-0.1,0.58,0.06,1.18,0.439,1.63
				C32.85,82.74,33.409,83,34,83h41.819c0.59,0,1.149-0.26,1.53-0.71C77.729,81.84,77.889,81.24,77.789,80.66z M63,41.292
				c1.656,0,3,1.343,3,3c0,1.657-1.344,3-3,3c-1.657,0-3-1.343-3-3C60,42.635,61.343,41.292,63,41.292z M54.832,41.292
				c1.657,0,3,1.343,3,3c0,1.657-1.343,3-3,3c-1.656,0-3-1.343-3-3C51.832,42.635,53.176,41.292,54.832,41.292z M47,41.292
				c1.656,0,3,1.343,3,3c0,1.657-1.344,3-3,3c-1.657,0-3-1.343-3-3C44,42.635,45.343,41.292,47,41.292z M39,76c-1.657,0-3-1.343-3-3
				s1.343-3,3-3c1.656,0,3,1.343,3,3S40.656,76,39,76z M40,59c0-1.657,1.343-3,3-3c1.656,0,3,1.343,3,3s-1.344,3-3,3
				C41.343,62,40,60.657,40,59z M47,76c-1.657,0-3-1.343-3-3s1.343-3,3-3c1.656,0,3,1.343,3,3S48.656,76,47,76z M48,59
				c0-1.657,1.343-3,3-3c1.656,0,3,1.343,3,3s-1.344,3-3,3C49.343,62,48,60.657,48,59z M55,76c-1.657,0-3-1.343-3-3s1.343-3,3-3
				c1.656,0,3,1.343,3,3S56.656,76,55,76z M56,59c0-1.657,1.343-3,3-3c1.656,0,3,1.343,3,3s-1.344,3-3,3C57.343,62,56,60.657,56,59z
				 M63,76c-1.657,0-3-1.343-3-3s1.343-3,3-3c1.656,0,3,1.343,3,3S64.656,76,63,76z M64,59c0-1.657,1.343-3,3-3c1.656,0,3,1.343,3,3
				s-1.344,3-3,3C65.343,62,64,60.657,64,59z M71,76c-1.657,0-3-1.343-3-3s1.343-3,3-3c1.656,0,3,1.343,3,3S72.656,76,71,76z"/>
		</g>
		<g>
			<path style="fill:#FFFFFF;" d="M54.954,23c-8.201,0-15.323,5.646-17.194,13.631L27.105,82.087
				c-0.216,0.921-0.088,1.875,0.329,2.705l9.568-9.568C36.392,74.675,36,73.886,36,73c0-1.657,1.343-3,3-3
				c0.887,0,1.675,0.392,2.224,1.003l9.09-9.089C48.988,61.602,48,60.419,48,59c0-1.657,1.343-3,3-3c1.42,0,2.602,0.989,2.914,2.313
				l18.89-18.89l-0.655-2.792C70.277,28.646,63.155,23,54.954,23z M43,62c-1.657,0-3-1.343-3-3s1.343-3,3-3c1.656,0,3,1.343,3,3
				S44.656,62,43,62z M47,47.292c-1.657,0-3-1.343-3-3c0-1.657,1.343-3,3-3c1.656,0,3,1.343,3,3C50,45.949,48.656,47.292,47,47.292z
				 M47,35c0-4.418,3.582-8,8-8s8,3.582,8,8H47z M54.832,47.292c-1.656,0-3-1.343-3-3c0-1.657,1.344-3,3-3c1.657,0,3,1.343,3,3
				C57.832,45.949,56.489,47.292,54.832,47.292z M63,47.292c-1.657,0-3-1.343-3-3c0-1.657,1.343-3,3-3c1.656,0,3,1.343,3,3
				C66,45.949,64.656,47.292,63,47.292z"/>
		</g>
		<g>
			<path style="fill:#D7FCF9;" d="M41.819,39l-9.648,41.056l4.832-4.832C36.392,74.675,36,73.886,36,73c0-1.657,1.343-3,3-3
				c0.887,0,1.675,0.392,2.224,1.003l9.09-9.089C48.988,61.602,48,60.419,48,59c0-1.657,1.343-3,3-3c1.42,0,2.602,0.989,2.914,2.313
				l14.949-14.95L67.819,39H41.819z M43,62c-1.657,0-3-1.343-3-3s1.343-3,3-3c1.656,0,3,1.343,3,3S44.656,62,43,62z M47,47.292
				c-1.657,0-3-1.343-3-3c0-1.657,1.343-3,3-3c1.656,0,3,1.343,3,3C50,45.949,48.656,47.292,47,47.292z M54.832,47.292
				c-1.656,0-3-1.343-3-3c0-1.657,1.344-3,3-3c1.657,0,3,1.343,3,3C57.832,45.949,56.489,47.292,54.832,47.292z M63,47.292
				c-1.657,0-3-1.343-3-3c0-1.657,1.343-3,3-3c1.656,0,3,1.343,3,3C66,45.949,64.656,47.292,63,47.292z"/>
		</g>
		<g>
			<g>
				<path style="fill:#FFFFFF;" d="M54.832,47.32c-1.221,0-2.268-0.732-2.734-1.78c0.73,2.208,2.734,5.78,2.734,5.78
					s2.005-3.572,2.736-5.78C57.1,46.588,56.054,47.32,54.832,47.32z"/>
			</g>
		</g>
		<g>
			<g>
				<path style="fill:#FFFFFF;" d="M51,62.028c-1.221,0-2.268-0.732-2.735-1.779C48.996,62.458,51,66.028,51,66.028
					s2.004-3.571,2.735-5.779C53.268,61.296,52.221,62.028,51,62.028z"/>
			</g>
		</g>
		<g>
			<g>
				<path style="fill:#FFFFFF;" d="M43,62.028c-1.221,0-2.268-0.732-2.735-1.779C40.996,62.458,43,66.028,43,66.028
					s2.004-3.571,2.735-5.779C45.268,61.296,44.221,62.028,43,62.028z"/>
			</g>
		</g>
		<g>
			<g>
				<path style="fill:#FFFFFF;" d="M39,76.028c-1.221,0-2.268-0.732-2.735-1.779C36.996,76.458,39,80.028,39,80.028
					s2.004-3.571,2.735-5.779C41.268,75.296,40.221,76.028,39,76.028z"/>
			</g>
		</g>
		<g>
			<g>
				<path style="fill:#FFFFFF;" d="M47,76.028c-1.221,0-2.268-0.732-2.735-1.779C44.996,76.458,47,80.028,47,80.028
					s2.004-3.571,2.735-5.779C49.268,75.296,48.221,76.028,47,76.028z"/>
			</g>
		</g>
		<g>
			<g>
				<path style="fill:#FFFFFF;" d="M55,76.028c-1.221,0-2.268-0.732-2.735-1.779C52.996,76.458,55,80.028,55,80.028
					s2.004-3.571,2.735-5.779C57.268,75.296,56.221,76.028,55,76.028z"/>
			</g>
		</g>
		<g>
			<g>
				<path style="fill:#FFFFFF;" d="M63,76.028c-1.221,0-2.268-0.732-2.735-1.779C60.996,76.458,63,80.028,63,80.028
					s2.004-3.571,2.735-5.779C65.268,75.296,64.221,76.028,63,76.028z"/>
			</g>
		</g>
		<g>
			<g>
				<path style="fill:#FFFFFF;" d="M71,76.028c-1.221,0-2.268-0.732-2.735-1.779C68.996,76.458,71,80.028,71,80.028
					s2.004-3.571,2.735-5.779C73.268,75.296,72.221,76.028,71,76.028z"/>
			</g>
		</g>
		<g>
			<g>
				<path style="fill:#FFFFFF;" d="M59,62.028c-1.221,0-2.268-0.732-2.735-1.779C56.996,62.458,59,66.028,59,66.028
					s2.004-3.571,2.735-5.779C61.268,61.296,60.221,62.028,59,62.028z"/>
			</g>
		</g>
		<g>
			<g>
				<path style="fill:#FFFFFF;" d="M67,62.028c-1.221,0-2.268-0.732-2.735-1.779C64.996,62.458,67,66.028,67,66.028
					s2.004-3.571,2.735-5.779C69.268,61.296,68.221,62.028,67,62.028z"/>
			</g>
		</g>
		<g>
			<g>
				<path style="fill:#FFFFFF;" d="M63,47.32c-1.221,0-2.268-0.732-2.735-1.78C60.996,47.749,63,51.32,63,51.32
					s2.004-3.572,2.735-5.78C65.268,46.588,64.221,47.32,63,47.32z"/>
			</g>
		</g>
		<g>
			<g>
				<path style="fill:#FFFFFF;" d="M47,47.32c-1.221,0-2.268-0.732-2.735-1.78C44.996,47.749,47,51.32,47,51.32
					s2.004-3.572,2.735-5.78C49.268,46.588,48.221,47.32,47,47.32z"/>
			</g>
		</g>
	</g>
</g>
<g id="Red" style="display:none;">
	<g style="display:inline;">
		<g>
			<path style="fill:#FFEFED;" d="M82.803,82.087L72.148,36.631C70.277,28.646,63.155,23,54.954,23
				c-8.201,0-15.323,5.646-17.194,13.631L27.105,82.087c-0.278,1.189,0.001,2.44,0.76,3.397C28.624,86.442,29.779,87,31,87h47.908
				c1.222,0,2.376-0.558,3.135-1.515C82.802,84.528,83.081,83.276,82.803,82.087z M66,44.292c0,1.657-1.344,3-3,3
				c-1.657,0-3-1.343-3-3c0-1.657,1.343-3,3-3C64.656,41.292,66,42.635,66,44.292z M55,27c4.418,0,8,3.582,8,8H47
				C47,30.582,50.582,27,55,27z M57.832,44.292c0,1.657-1.343,3-3,3c-1.656,0-3-1.343-3-3c0-1.657,1.344-3,3-3
				C56.489,41.292,57.832,42.635,57.832,44.292z M47,41.292c1.656,0,3,1.343,3,3c0,1.657-1.344,3-3,3c-1.657,0-3-1.343-3-3
				C44,42.635,45.343,41.292,47,41.292z M39,76c-1.657,0-3-1.343-3-3s1.343-3,3-3c1.656,0,3,1.343,3,3S40.656,76,39,76z M40,59
				c0-1.657,1.343-3,3-3c1.656,0,3,1.343,3,3s-1.344,3-3,3C41.343,62,40,60.657,40,59z M47,76c-1.657,0-3-1.343-3-3s1.343-3,3-3
				c1.656,0,3,1.343,3,3S48.656,76,47,76z M48,59c0-1.657,1.343-3,3-3c1.656,0,3,1.343,3,3s-1.344,3-3,3C49.343,62,48,60.657,48,59z
				 M55,76c-1.657,0-3-1.343-3-3s1.343-3,3-3c1.656,0,3,1.343,3,3S56.656,76,55,76z M56,59c0-1.657,1.343-3,3-3c1.656,0,3,1.343,3,3
				s-1.344,3-3,3C57.343,62,56,60.657,56,59z M63,76c-1.657,0-3-1.343-3-3s1.343-3,3-3c1.656,0,3,1.343,3,3S64.656,76,63,76z M64,59
				c0-1.657,1.343-3,3-3c1.656,0,3,1.343,3,3s-1.344,3-3,3C65.343,62,64,60.657,64,59z M71,76c-1.657,0-3-1.343-3-3s1.343-3,3-3
				c1.656,0,3,1.343,3,3S72.656,76,71,76z"/>
		</g>
		<g>
			<path style="fill:#FFD7D4;" d="M77.789,80.66L67.819,39h-26l-9.79,41.66c-0.1,0.58,0.06,1.18,0.439,1.63
				C32.85,82.74,33.409,83,34,83h41.819c0.59,0,1.149-0.26,1.53-0.71C77.729,81.84,77.889,81.24,77.789,80.66z M63,41.292
				c1.656,0,3,1.343,3,3c0,1.657-1.344,3-3,3c-1.657,0-3-1.343-3-3C60,42.635,61.343,41.292,63,41.292z M54.832,41.292
				c1.657,0,3,1.343,3,3c0,1.657-1.343,3-3,3c-1.656,0-3-1.343-3-3C51.832,42.635,53.176,41.292,54.832,41.292z M47,41.292
				c1.656,0,3,1.343,3,3c0,1.657-1.344,3-3,3c-1.657,0-3-1.343-3-3C44,42.635,45.343,41.292,47,41.292z M39,76c-1.657,0-3-1.343-3-3
				s1.343-3,3-3c1.656,0,3,1.343,3,3S40.656,76,39,76z M40,59c0-1.657,1.343-3,3-3c1.656,0,3,1.343,3,3s-1.344,3-3,3
				C41.343,62,40,60.657,40,59z M47,76c-1.657,0-3-1.343-3-3s1.343-3,3-3c1.656,0,3,1.343,3,3S48.656,76,47,76z M48,59
				c0-1.657,1.343-3,3-3c1.656,0,3,1.343,3,3s-1.344,3-3,3C49.343,62,48,60.657,48,59z M55,76c-1.657,0-3-1.343-3-3s1.343-3,3-3
				c1.656,0,3,1.343,3,3S56.656,76,55,76z M56,59c0-1.657,1.343-3,3-3c1.656,0,3,1.343,3,3s-1.344,3-3,3C57.343,62,56,60.657,56,59z
				 M63,76c-1.657,0-3-1.343-3-3s1.343-3,3-3c1.656,0,3,1.343,3,3S64.656,76,63,76z M64,59c0-1.657,1.343-3,3-3c1.656,0,3,1.343,3,3
				s-1.344,3-3,3C65.343,62,64,60.657,64,59z M71,76c-1.657,0-3-1.343-3-3s1.343-3,3-3c1.656,0,3,1.343,3,3S72.656,76,71,76z"/>
		</g>
		<g>
			<path style="fill:#FFFFFF;" d="M54.954,23c-8.201,0-15.323,5.646-17.194,13.631L27.105,82.087
				c-0.216,0.921-0.088,1.875,0.329,2.705l9.568-9.568C36.392,74.675,36,73.886,36,73c0-1.657,1.343-3,3-3
				c0.887,0,1.675,0.392,2.224,1.003l9.09-9.089C48.988,61.602,48,60.419,48,59c0-1.657,1.343-3,3-3c1.42,0,2.602,0.989,2.914,2.313
				l18.89-18.89l-0.655-2.792C70.277,28.646,63.155,23,54.954,23z M43,62c-1.657,0-3-1.343-3-3s1.343-3,3-3c1.656,0,3,1.343,3,3
				S44.656,62,43,62z M47,47.292c-1.657,0-3-1.343-3-3c0-1.657,1.343-3,3-3c1.656,0,3,1.343,3,3C50,45.949,48.656,47.292,47,47.292z
				 M47,35c0-4.418,3.582-8,8-8s8,3.582,8,8H47z M54.832,47.292c-1.656,0-3-1.343-3-3c0-1.657,1.344-3,3-3c1.657,0,3,1.343,3,3
				C57.832,45.949,56.489,47.292,54.832,47.292z M63,47.292c-1.657,0-3-1.343-3-3c0-1.657,1.343-3,3-3c1.656,0,3,1.343,3,3
				C66,45.949,64.656,47.292,63,47.292z"/>
		</g>
		<g>
			<path style="fill:#FFEFED;" d="M41.819,39l-9.648,41.056l4.832-4.832C36.392,74.675,36,73.886,36,73c0-1.657,1.343-3,3-3
				c0.887,0,1.675,0.392,2.224,1.003l9.09-9.089C48.988,61.602,48,60.419,48,59c0-1.657,1.343-3,3-3c1.42,0,2.602,0.989,2.914,2.313
				l14.949-14.95L67.819,39H41.819z M43,62c-1.657,0-3-1.343-3-3s1.343-3,3-3c1.656,0,3,1.343,3,3S44.656,62,43,62z M47,47.292
				c-1.657,0-3-1.343-3-3c0-1.657,1.343-3,3-3c1.656,0,3,1.343,3,3C50,45.949,48.656,47.292,47,47.292z M54.832,47.292
				c-1.656,0-3-1.343-3-3c0-1.657,1.344-3,3-3c1.657,0,3,1.343,3,3C57.832,45.949,56.489,47.292,54.832,47.292z M63,47.292
				c-1.657,0-3-1.343-3-3c0-1.657,1.343-3,3-3c1.656,0,3,1.343,3,3C66,45.949,64.656,47.292,63,47.292z"/>
		</g>
		<g>
			<g>
				<path style="fill:#FFFFFF;" d="M54.832,47.32c-1.221,0-2.268-0.732-2.734-1.78c0.73,2.208,2.734,5.78,2.734,5.78
					s2.005-3.572,2.736-5.78C57.1,46.588,56.054,47.32,54.832,47.32z"/>
			</g>
		</g>
		<g>
			<g>
				<path style="fill:#FFFFFF;" d="M51,62.028c-1.221,0-2.268-0.732-2.735-1.779C48.996,62.458,51,66.028,51,66.028
					s2.004-3.571,2.735-5.779C53.268,61.296,52.221,62.028,51,62.028z"/>
			</g>
		</g>
		<g>
			<g>
				<path style="fill:#FFFFFF;" d="M43,62.028c-1.221,0-2.268-0.732-2.735-1.779C40.996,62.458,43,66.028,43,66.028
					s2.004-3.571,2.735-5.779C45.268,61.296,44.221,62.028,43,62.028z"/>
			</g>
		</g>
		<g>
			<g>
				<path style="fill:#FFFFFF;" d="M39,76.028c-1.221,0-2.268-0.732-2.735-1.779C36.996,76.457,39,80.028,39,80.028
					s2.004-3.571,2.735-5.779C41.268,75.296,40.221,76.028,39,76.028z"/>
			</g>
		</g>
		<g>
			<g>
				<path style="fill:#FFFFFF;" d="M47,76.028c-1.221,0-2.268-0.732-2.735-1.779C44.996,76.457,47,80.028,47,80.028
					s2.004-3.571,2.735-5.779C49.268,75.296,48.221,76.028,47,76.028z"/>
			</g>
		</g>
		<g>
			<g>
				<path style="fill:#FFFFFF;" d="M55,76.028c-1.221,0-2.268-0.732-2.735-1.779C52.996,76.457,55,80.028,55,80.028
					s2.004-3.571,2.735-5.779C57.268,75.296,56.221,76.028,55,76.028z"/>
			</g>
		</g>
		<g>
			<g>
				<path style="fill:#FFFFFF;" d="M63,76.028c-1.221,0-2.268-0.732-2.735-1.779C60.996,76.457,63,80.028,63,80.028
					s2.004-3.571,2.735-5.779C65.268,75.296,64.221,76.028,63,76.028z"/>
			</g>
		</g>
		<g>
			<g>
				<path style="fill:#FFFFFF;" d="M71,76.028c-1.221,0-2.268-0.732-2.735-1.779C68.996,76.457,71,80.028,71,80.028
					s2.004-3.571,2.735-5.779C73.268,75.296,72.221,76.028,71,76.028z"/>
			</g>
		</g>
		<g>
			<g>
				<path style="fill:#FFFFFF;" d="M59,62.028c-1.221,0-2.268-0.732-2.735-1.779C56.996,62.458,59,66.028,59,66.028
					s2.004-3.571,2.735-5.779C61.268,61.296,60.221,62.028,59,62.028z"/>
			</g>
		</g>
		<g>
			<g>
				<path style="fill:#FFFFFF;" d="M67,62.028c-1.221,0-2.268-0.732-2.735-1.779C64.996,62.458,67,66.028,67,66.028
					s2.004-3.571,2.735-5.779C69.268,61.296,68.221,62.028,67,62.028z"/>
			</g>
		</g>
		<g>
			<g>
				<path style="fill:#FFFFFF;" d="M63,47.32c-1.221,0-2.268-0.732-2.735-1.78C60.996,47.749,63,51.32,63,51.32
					s2.004-3.572,2.735-5.78C65.268,46.588,64.221,47.32,63,47.32z"/>
			</g>
		</g>
		<g>
			<g>
				<path style="fill:#FFFFFF;" d="M47,47.32c-1.221,0-2.268-0.732-2.735-1.78C44.996,47.749,47,51.32,47,51.32
					s2.004-3.572,2.735-5.78C49.268,46.588,48.221,47.32,47,47.32z"/>
			</g>
		</g>
	</g>
</g>
<g id="R-Red" style="display:none;">
	<circle style="display:inline;fill:#FABBAF;" cx="55" cy="55" r="55"/>
	<g style="display:inline;">
		<g>
			<path style="fill:#FFEFED;" d="M82.803,82.087L72.148,36.631C70.277,28.646,63.155,23,54.954,23
				c-8.201,0-15.323,5.646-17.194,13.631L27.105,82.087c-0.278,1.189,0.001,2.44,0.76,3.397C28.624,86.442,29.779,87,31,87h47.908
				c1.222,0,2.376-0.558,3.135-1.515C82.802,84.528,83.081,83.276,82.803,82.087z M66,44.292c0,1.657-1.344,3-3,3
				c-1.657,0-3-1.343-3-3c0-1.657,1.343-3,3-3C64.656,41.292,66,42.635,66,44.292z M55,27c4.418,0,8,3.582,8,8H47
				C47,30.582,50.582,27,55,27z M57.832,44.292c0,1.657-1.343,3-3,3c-1.656,0-3-1.343-3-3c0-1.657,1.344-3,3-3
				C56.489,41.292,57.832,42.635,57.832,44.292z M47,41.292c1.656,0,3,1.343,3,3c0,1.657-1.344,3-3,3c-1.657,0-3-1.343-3-3
				C44,42.635,45.343,41.292,47,41.292z M39,76c-1.657,0-3-1.343-3-3s1.343-3,3-3c1.656,0,3,1.343,3,3S40.656,76,39,76z M40,59
				c0-1.657,1.343-3,3-3c1.656,0,3,1.343,3,3s-1.344,3-3,3C41.343,62,40,60.657,40,59z M47,76c-1.657,0-3-1.343-3-3s1.343-3,3-3
				c1.656,0,3,1.343,3,3S48.656,76,47,76z M48,59c0-1.657,1.343-3,3-3c1.656,0,3,1.343,3,3s-1.344,3-3,3C49.343,62,48,60.657,48,59z
				 M55,76c-1.657,0-3-1.343-3-3s1.343-3,3-3c1.656,0,3,1.343,3,3S56.656,76,55,76z M56,59c0-1.657,1.343-3,3-3c1.656,0,3,1.343,3,3
				s-1.344,3-3,3C57.343,62,56,60.657,56,59z M63,76c-1.657,0-3-1.343-3-3s1.343-3,3-3c1.656,0,3,1.343,3,3S64.656,76,63,76z M64,59
				c0-1.657,1.343-3,3-3c1.656,0,3,1.343,3,3s-1.344,3-3,3C65.343,62,64,60.657,64,59z M71,76c-1.657,0-3-1.343-3-3s1.343-3,3-3
				c1.656,0,3,1.343,3,3S72.656,76,71,76z"/>
		</g>
		<g>
			<path style="fill:#FFD7D4;" d="M77.789,80.66L67.819,39h-26l-9.79,41.66c-0.1,0.58,0.06,1.18,0.439,1.63
				C32.85,82.74,33.409,83,34,83h41.819c0.59,0,1.149-0.26,1.53-0.71C77.729,81.84,77.889,81.24,77.789,80.66z M63,41.292
				c1.656,0,3,1.343,3,3c0,1.657-1.344,3-3,3c-1.657,0-3-1.343-3-3C60,42.635,61.343,41.292,63,41.292z M54.832,41.292
				c1.657,0,3,1.343,3,3c0,1.657-1.343,3-3,3c-1.656,0-3-1.343-3-3C51.832,42.635,53.176,41.292,54.832,41.292z M47,41.292
				c1.656,0,3,1.343,3,3c0,1.657-1.344,3-3,3c-1.657,0-3-1.343-3-3C44,42.635,45.343,41.292,47,41.292z M39,76c-1.657,0-3-1.343-3-3
				s1.343-3,3-3c1.656,0,3,1.343,3,3S40.656,76,39,76z M40,59c0-1.657,1.343-3,3-3c1.656,0,3,1.343,3,3s-1.344,3-3,3
				C41.343,62,40,60.657,40,59z M47,76c-1.657,0-3-1.343-3-3s1.343-3,3-3c1.656,0,3,1.343,3,3S48.656,76,47,76z M48,59
				c0-1.657,1.343-3,3-3c1.656,0,3,1.343,3,3s-1.344,3-3,3C49.343,62,48,60.657,48,59z M55,76c-1.657,0-3-1.343-3-3s1.343-3,3-3
				c1.656,0,3,1.343,3,3S56.656,76,55,76z M56,59c0-1.657,1.343-3,3-3c1.656,0,3,1.343,3,3s-1.344,3-3,3C57.343,62,56,60.657,56,59z
				 M63,76c-1.657,0-3-1.343-3-3s1.343-3,3-3c1.656,0,3,1.343,3,3S64.656,76,63,76z M64,59c0-1.657,1.343-3,3-3c1.656,0,3,1.343,3,3
				s-1.344,3-3,3C65.343,62,64,60.657,64,59z M71,76c-1.657,0-3-1.343-3-3s1.343-3,3-3c1.656,0,3,1.343,3,3S72.656,76,71,76z"/>
		</g>
		<g>
			<path style="fill:#FFFFFF;" d="M54.954,23c-8.201,0-15.323,5.646-17.194,13.631L27.105,82.087
				c-0.216,0.921-0.088,1.875,0.329,2.705l9.568-9.568C36.392,74.675,36,73.886,36,73c0-1.657,1.343-3,3-3
				c0.887,0,1.675,0.392,2.224,1.003l9.09-9.089C48.988,61.602,48,60.419,48,59c0-1.657,1.343-3,3-3c1.42,0,2.602,0.989,2.914,2.313
				l18.89-18.89l-0.655-2.792C70.277,28.646,63.155,23,54.954,23z M43,62c-1.657,0-3-1.343-3-3s1.343-3,3-3c1.656,0,3,1.343,3,3
				S44.656,62,43,62z M47,47.292c-1.657,0-3-1.343-3-3c0-1.657,1.343-3,3-3c1.656,0,3,1.343,3,3C50,45.949,48.656,47.292,47,47.292z
				 M47,35c0-4.418,3.582-8,8-8s8,3.582,8,8H47z M54.832,47.292c-1.656,0-3-1.343-3-3c0-1.657,1.344-3,3-3c1.657,0,3,1.343,3,3
				C57.832,45.949,56.489,47.292,54.832,47.292z M63,47.292c-1.657,0-3-1.343-3-3c0-1.657,1.343-3,3-3c1.656,0,3,1.343,3,3
				C66,45.949,64.656,47.292,63,47.292z"/>
		</g>
		<g>
			<path style="fill:#FFEFED;" d="M41.819,39l-9.648,41.056l4.832-4.832C36.392,74.675,36,73.886,36,73c0-1.657,1.343-3,3-3
				c0.887,0,1.675,0.392,2.224,1.003l9.09-9.089C48.988,61.602,48,60.419,48,59c0-1.657,1.343-3,3-3c1.42,0,2.602,0.989,2.914,2.313
				l14.949-14.95L67.819,39H41.819z M43,62c-1.657,0-3-1.343-3-3s1.343-3,3-3c1.656,0,3,1.343,3,3S44.656,62,43,62z M47,47.292
				c-1.657,0-3-1.343-3-3c0-1.657,1.343-3,3-3c1.656,0,3,1.343,3,3C50,45.949,48.656,47.292,47,47.292z M54.832,47.292
				c-1.656,0-3-1.343-3-3c0-1.657,1.344-3,3-3c1.657,0,3,1.343,3,3C57.832,45.949,56.489,47.292,54.832,47.292z M63,47.292
				c-1.657,0-3-1.343-3-3c0-1.657,1.343-3,3-3c1.656,0,3,1.343,3,3C66,45.949,64.656,47.292,63,47.292z"/>
		</g>
		<g>
			<g>
				<path style="fill:#FFFFFF;" d="M54.832,47.32c-1.221,0-2.268-0.732-2.734-1.78c0.73,2.208,2.734,5.78,2.734,5.78
					s2.005-3.572,2.736-5.78C57.1,46.588,56.054,47.32,54.832,47.32z"/>
			</g>
		</g>
		<g>
			<g>
				<path style="fill:#FFFFFF;" d="M51,62.028c-1.221,0-2.268-0.732-2.735-1.779C48.996,62.458,51,66.028,51,66.028
					s2.004-3.571,2.735-5.779C53.268,61.296,52.221,62.028,51,62.028z"/>
			</g>
		</g>
		<g>
			<g>
				<path style="fill:#FFFFFF;" d="M43,62.028c-1.221,0-2.268-0.732-2.735-1.779C40.996,62.458,43,66.028,43,66.028
					s2.004-3.571,2.735-5.779C45.268,61.296,44.221,62.028,43,62.028z"/>
			</g>
		</g>
		<g>
			<g>
				<path style="fill:#FFFFFF;" d="M39,76.028c-1.221,0-2.268-0.732-2.735-1.779C36.996,76.457,39,80.028,39,80.028
					s2.004-3.571,2.735-5.779C41.268,75.296,40.221,76.028,39,76.028z"/>
			</g>
		</g>
		<g>
			<g>
				<path style="fill:#FFFFFF;" d="M47,76.028c-1.221,0-2.268-0.732-2.735-1.779C44.996,76.457,47,80.028,47,80.028
					s2.004-3.571,2.735-5.779C49.268,75.296,48.221,76.028,47,76.028z"/>
			</g>
		</g>
		<g>
			<g>
				<path style="fill:#FFFFFF;" d="M55,76.028c-1.221,0-2.268-0.732-2.735-1.779C52.996,76.457,55,80.028,55,80.028
					s2.004-3.571,2.735-5.779C57.268,75.296,56.221,76.028,55,76.028z"/>
			</g>
		</g>
		<g>
			<g>
				<path style="fill:#FFFFFF;" d="M63,76.028c-1.221,0-2.268-0.732-2.735-1.779C60.996,76.457,63,80.028,63,80.028
					s2.004-3.571,2.735-5.779C65.268,75.296,64.221,76.028,63,76.028z"/>
			</g>
		</g>
		<g>
			<g>
				<path style="fill:#FFFFFF;" d="M71,76.028c-1.221,0-2.268-0.732-2.735-1.779C68.996,76.457,71,80.028,71,80.028
					s2.004-3.571,2.735-5.779C73.268,75.296,72.221,76.028,71,76.028z"/>
			</g>
		</g>
		<g>
			<g>
				<path style="fill:#FFFFFF;" d="M59,62.028c-1.221,0-2.268-0.732-2.735-1.779C56.996,62.458,59,66.028,59,66.028
					s2.004-3.571,2.735-5.779C61.268,61.296,60.221,62.028,59,62.028z"/>
			</g>
		</g>
		<g>
			<g>
				<path style="fill:#FFFFFF;" d="M67,62.028c-1.221,0-2.268-0.732-2.735-1.779C64.996,62.458,67,66.028,67,66.028
					s2.004-3.571,2.735-5.779C69.268,61.296,68.221,62.028,67,62.028z"/>
			</g>
		</g>
		<g>
			<g>
				<path style="fill:#FFFFFF;" d="M63,47.32c-1.221,0-2.268-0.732-2.735-1.78C60.996,47.749,63,51.32,63,51.32
					s2.004-3.572,2.735-5.78C65.268,46.588,64.221,47.32,63,47.32z"/>
			</g>
		</g>
		<g>
			<g>
				<path style="fill:#FFFFFF;" d="M47,47.32c-1.221,0-2.268-0.732-2.735-1.78C44.996,47.749,47,51.32,47,51.32
					s2.004-3.572,2.735-5.78C49.268,46.588,48.221,47.32,47,47.32z"/>
			</g>
		</g>
	</g>
</g>
<g id="Yellow" style="display:none;">
	<g style="display:inline;">
		<g>
			<path style="fill:#FFF5D9;" d="M82.803,82.087L72.148,36.631C70.277,28.646,63.155,23,54.954,23S39.631,28.646,37.76,36.631
				L27.105,82.087c-0.278,1.189,0.001,2.44,0.76,3.397C28.624,86.442,29.779,87,31,87h47.908c1.222,0,2.376-0.558,3.135-1.515
				C82.802,84.528,83.081,83.276,82.803,82.087z M66,44.292c0,1.657-1.344,3-3,3c-1.657,0-3-1.343-3-3c0-1.657,1.343-3,3-3
				C64.656,41.292,66,42.635,66,44.292z M55,27c4.418,0,8,3.582,8,8H47C47,30.582,50.582,27,55,27z M57.832,44.292
				c0,1.657-1.343,3-3,3c-1.656,0-3-1.343-3-3c0-1.657,1.344-3,3-3C56.489,41.292,57.832,42.635,57.832,44.292z M47,41.292
				c1.656,0,3,1.343,3,3c0,1.657-1.344,3-3,3c-1.657,0-3-1.343-3-3C44,42.635,45.343,41.292,47,41.292z M39,76c-1.657,0-3-1.343-3-3
				s1.343-3,3-3c1.656,0,3,1.343,3,3S40.656,76,39,76z M40,59c0-1.657,1.343-3,3-3c1.656,0,3,1.343,3,3s-1.344,3-3,3
				C41.343,62,40,60.657,40,59z M47,76c-1.657,0-3-1.343-3-3s1.343-3,3-3c1.656,0,3,1.343,3,3S48.656,76,47,76z M48,59
				c0-1.657,1.343-3,3-3c1.656,0,3,1.343,3,3s-1.344,3-3,3C49.343,62,48,60.657,48,59z M55,76c-1.657,0-3-1.343-3-3s1.343-3,3-3
				c1.656,0,3,1.343,3,3S56.656,76,55,76z M56,59c0-1.657,1.343-3,3-3c1.656,0,3,1.343,3,3s-1.344,3-3,3C57.343,62,56,60.657,56,59z
				 M63,76c-1.657,0-3-1.343-3-3s1.343-3,3-3c1.656,0,3,1.343,3,3S64.656,76,63,76z M64,59c0-1.657,1.343-3,3-3c1.656,0,3,1.343,3,3
				s-1.344,3-3,3C65.343,62,64,60.657,64,59z M71,76c-1.657,0-3-1.343-3-3s1.343-3,3-3c1.656,0,3,1.343,3,3S72.656,76,71,76z"/>
		</g>
		<g>
			<path style="fill:#FFE9A1;" d="M77.789,80.66L67.819,39h-26l-9.79,41.66c-0.1,0.58,0.06,1.18,0.439,1.63
				C32.85,82.74,33.409,83,34,83h41.819c0.59,0,1.149-0.26,1.53-0.71C77.729,81.84,77.889,81.24,77.789,80.66z M63,41.292
				c1.656,0,3,1.343,3,3c0,1.657-1.344,3-3,3c-1.657,0-3-1.343-3-3C60,42.635,61.343,41.292,63,41.292z M54.832,41.292
				c1.657,0,3,1.343,3,3c0,1.657-1.343,3-3,3c-1.656,0-3-1.343-3-3C51.832,42.635,53.176,41.292,54.832,41.292z M47,41.292
				c1.656,0,3,1.343,3,3c0,1.657-1.344,3-3,3c-1.657,0-3-1.343-3-3C44,42.635,45.343,41.292,47,41.292z M39,76c-1.657,0-3-1.343-3-3
				s1.343-3,3-3c1.656,0,3,1.343,3,3S40.656,76,39,76z M40,59c0-1.657,1.343-3,3-3c1.656,0,3,1.343,3,3s-1.344,3-3,3
				C41.343,62,40,60.657,40,59z M47,76c-1.657,0-3-1.343-3-3s1.343-3,3-3c1.656,0,3,1.343,3,3S48.656,76,47,76z M48,59
				c0-1.657,1.343-3,3-3c1.656,0,3,1.343,3,3s-1.344,3-3,3C49.343,62,48,60.657,48,59z M55,76c-1.657,0-3-1.343-3-3s1.343-3,3-3
				c1.656,0,3,1.343,3,3S56.656,76,55,76z M56,59c0-1.657,1.343-3,3-3c1.656,0,3,1.343,3,3s-1.344,3-3,3C57.343,62,56,60.657,56,59z
				 M63,76c-1.657,0-3-1.343-3-3s1.343-3,3-3c1.656,0,3,1.343,3,3S64.656,76,63,76z M64,59c0-1.657,1.343-3,3-3c1.656,0,3,1.343,3,3
				s-1.344,3-3,3C65.343,62,64,60.657,64,59z M71,76c-1.657,0-3-1.343-3-3s1.343-3,3-3c1.656,0,3,1.343,3,3S72.656,76,71,76z"/>
		</g>
		<g>
			<path style="fill:#FFFFFF;" d="M54.954,23c-8.201,0-15.323,5.646-17.194,13.631L27.105,82.087
				c-0.216,0.921-0.088,1.875,0.329,2.705l9.568-9.568C36.392,74.675,36,73.886,36,73c0-1.657,1.343-3,3-3
				c0.887,0,1.675,0.392,2.224,1.003l9.09-9.089C48.988,61.602,48,60.419,48,59c0-1.657,1.343-3,3-3c1.42,0,2.602,0.989,2.914,2.313
				l18.89-18.89l-0.655-2.792C70.277,28.646,63.155,23,54.954,23z M43,62c-1.657,0-3-1.343-3-3s1.343-3,3-3c1.656,0,3,1.343,3,3
				S44.656,62,43,62z M47,47.292c-1.657,0-3-1.343-3-3c0-1.657,1.343-3,3-3c1.656,0,3,1.343,3,3C50,45.949,48.656,47.292,47,47.292z
				 M47,35c0-4.418,3.582-8,8-8s8,3.582,8,8H47z M54.832,47.292c-1.656,0-3-1.343-3-3c0-1.657,1.344-3,3-3c1.657,0,3,1.343,3,3
				C57.832,45.949,56.489,47.292,54.832,47.292z M63,47.292c-1.657,0-3-1.343-3-3c0-1.657,1.343-3,3-3c1.656,0,3,1.343,3,3
				C66,45.949,64.656,47.292,63,47.292z"/>
		</g>
		<g>
			<path style="fill:#FFF5D9;" d="M41.819,39l-9.648,41.056l4.832-4.832C36.392,74.675,36,73.886,36,73c0-1.657,1.343-3,3-3
				c0.887,0,1.675,0.392,2.224,1.003l9.09-9.089C48.988,61.602,48,60.419,48,59c0-1.657,1.343-3,3-3c1.42,0,2.602,0.989,2.914,2.313
				l14.949-14.95L67.819,39H41.819z M43,62c-1.657,0-3-1.343-3-3s1.343-3,3-3c1.656,0,3,1.343,3,3S44.656,62,43,62z M47,47.292
				c-1.657,0-3-1.343-3-3c0-1.657,1.343-3,3-3c1.656,0,3,1.343,3,3C50,45.949,48.656,47.292,47,47.292z M54.832,47.292
				c-1.656,0-3-1.343-3-3c0-1.657,1.344-3,3-3c1.657,0,3,1.343,3,3C57.832,45.949,56.489,47.292,54.832,47.292z M63,47.292
				c-1.657,0-3-1.343-3-3c0-1.657,1.343-3,3-3c1.656,0,3,1.343,3,3C66,45.949,64.656,47.292,63,47.292z"/>
		</g>
		<g>
			<g>
				<path style="fill:#FFFFFF;" d="M54.832,47.32c-1.221,0-2.268-0.732-2.734-1.78c0.73,2.208,2.734,5.78,2.734,5.78
					s2.005-3.572,2.736-5.78C57.1,46.588,56.054,47.32,54.832,47.32z"/>
			</g>
		</g>
		<g>
			<g>
				<path style="fill:#FFFFFF;" d="M51,62.028c-1.221,0-2.268-0.732-2.735-1.779C48.996,62.458,51,66.028,51,66.028
					s2.004-3.571,2.735-5.779C53.268,61.296,52.221,62.028,51,62.028z"/>
			</g>
		</g>
		<g>
			<g>
				<path style="fill:#FFFFFF;" d="M43,62.028c-1.221,0-2.268-0.732-2.735-1.779C40.996,62.458,43,66.028,43,66.028
					s2.004-3.571,2.735-5.779C45.268,61.296,44.221,62.028,43,62.028z"/>
			</g>
		</g>
		<g>
			<g>
				<path style="fill:#FFFFFF;" d="M39,76.028c-1.221,0-2.268-0.732-2.735-1.779C36.996,76.458,39,80.028,39,80.028
					s2.004-3.571,2.735-5.779C41.268,75.296,40.221,76.028,39,76.028z"/>
			</g>
		</g>
		<g>
			<g>
				<path style="fill:#FFFFFF;" d="M47,76.028c-1.221,0-2.268-0.732-2.735-1.779C44.996,76.458,47,80.028,47,80.028
					s2.004-3.571,2.735-5.779C49.268,75.296,48.221,76.028,47,76.028z"/>
			</g>
		</g>
		<g>
			<g>
				<path style="fill:#FFFFFF;" d="M55,76.028c-1.221,0-2.268-0.732-2.735-1.779C52.996,76.458,55,80.028,55,80.028
					s2.004-3.571,2.735-5.779C57.268,75.296,56.221,76.028,55,76.028z"/>
			</g>
		</g>
		<g>
			<g>
				<path style="fill:#FFFFFF;" d="M63,76.028c-1.221,0-2.268-0.732-2.735-1.779C60.996,76.458,63,80.028,63,80.028
					s2.004-3.571,2.735-5.779C65.268,75.296,64.221,76.028,63,76.028z"/>
			</g>
		</g>
		<g>
			<g>
				<path style="fill:#FFFFFF;" d="M71,76.028c-1.221,0-2.268-0.732-2.735-1.779C68.996,76.458,71,80.028,71,80.028
					s2.004-3.571,2.735-5.779C73.268,75.296,72.221,76.028,71,76.028z"/>
			</g>
		</g>
		<g>
			<g>
				<path style="fill:#FFFFFF;" d="M59,62.028c-1.221,0-2.268-0.732-2.735-1.779C56.996,62.458,59,66.028,59,66.028
					s2.004-3.571,2.735-5.779C61.268,61.296,60.221,62.028,59,62.028z"/>
			</g>
		</g>
		<g>
			<g>
				<path style="fill:#FFFFFF;" d="M67,62.028c-1.221,0-2.268-0.732-2.735-1.779C64.996,62.458,67,66.028,67,66.028
					s2.004-3.571,2.735-5.779C69.268,61.296,68.221,62.028,67,62.028z"/>
			</g>
		</g>
		<g>
			<g>
				<path style="fill:#FFFFFF;" d="M63,47.32c-1.221,0-2.268-0.732-2.735-1.78C60.996,47.749,63,51.32,63,51.32
					s2.004-3.572,2.735-5.78C65.268,46.588,64.221,47.32,63,47.32z"/>
			</g>
		</g>
		<g>
			<g>
				<path style="fill:#FFFFFF;" d="M47,47.32c-1.221,0-2.268-0.732-2.735-1.78C44.996,47.749,47,51.32,47,51.32
					s2.004-3.572,2.735-5.78C49.268,46.588,48.221,47.32,47,47.32z"/>
			</g>
		</g>
	</g>
</g>
<g id="R-Yellow" style="display:none;">
	<circle style="display:inline;fill:#FFD75E;" cx="55" cy="55" r="55"/>
	<g style="display:inline;">
		<g>
			<path style="fill:#FFF5D9;" d="M82.803,82.087L72.148,36.631C70.277,28.646,63.155,23,54.954,23S39.631,28.646,37.76,36.631
				L27.105,82.087c-0.278,1.189,0.001,2.44,0.76,3.397C28.624,86.442,29.779,87,31,87h47.908c1.222,0,2.376-0.558,3.135-1.515
				C82.802,84.528,83.081,83.276,82.803,82.087z M66,44.292c0,1.657-1.344,3-3,3c-1.657,0-3-1.343-3-3c0-1.657,1.343-3,3-3
				C64.656,41.292,66,42.635,66,44.292z M55,27c4.418,0,8,3.582,8,8H47C47,30.582,50.582,27,55,27z M57.832,44.292
				c0,1.657-1.343,3-3,3c-1.656,0-3-1.343-3-3c0-1.657,1.344-3,3-3C56.489,41.292,57.832,42.635,57.832,44.292z M47,41.292
				c1.656,0,3,1.343,3,3c0,1.657-1.344,3-3,3c-1.657,0-3-1.343-3-3C44,42.635,45.343,41.292,47,41.292z M39,76c-1.657,0-3-1.343-3-3
				s1.343-3,3-3c1.656,0,3,1.343,3,3S40.656,76,39,76z M40,59c0-1.657,1.343-3,3-3c1.656,0,3,1.343,3,3s-1.344,3-3,3
				C41.343,62,40,60.657,40,59z M47,76c-1.657,0-3-1.343-3-3s1.343-3,3-3c1.656,0,3,1.343,3,3S48.656,76,47,76z M48,59
				c0-1.657,1.343-3,3-3c1.656,0,3,1.343,3,3s-1.344,3-3,3C49.343,62,48,60.657,48,59z M55,76c-1.657,0-3-1.343-3-3s1.343-3,3-3
				c1.656,0,3,1.343,3,3S56.656,76,55,76z M56,59c0-1.657,1.343-3,3-3c1.656,0,3,1.343,3,3s-1.344,3-3,3C57.343,62,56,60.657,56,59z
				 M63,76c-1.657,0-3-1.343-3-3s1.343-3,3-3c1.656,0,3,1.343,3,3S64.656,76,63,76z M64,59c0-1.657,1.343-3,3-3c1.656,0,3,1.343,3,3
				s-1.344,3-3,3C65.343,62,64,60.657,64,59z M71,76c-1.657,0-3-1.343-3-3s1.343-3,3-3c1.656,0,3,1.343,3,3S72.656,76,71,76z"/>
		</g>
		<g>
			<path style="fill:#FFE9A1;" d="M77.789,80.66L67.819,39h-26l-9.79,41.66c-0.1,0.58,0.06,1.18,0.439,1.63
				C32.85,82.74,33.409,83,34,83h41.819c0.59,0,1.149-0.26,1.53-0.71C77.729,81.84,77.889,81.24,77.789,80.66z M63,41.292
				c1.656,0,3,1.343,3,3c0,1.657-1.344,3-3,3c-1.657,0-3-1.343-3-3C60,42.635,61.343,41.292,63,41.292z M54.832,41.292
				c1.657,0,3,1.343,3,3c0,1.657-1.343,3-3,3c-1.656,0-3-1.343-3-3C51.832,42.635,53.176,41.292,54.832,41.292z M47,41.292
				c1.656,0,3,1.343,3,3c0,1.657-1.344,3-3,3c-1.657,0-3-1.343-3-3C44,42.635,45.343,41.292,47,41.292z M39,76c-1.657,0-3-1.343-3-3
				s1.343-3,3-3c1.656,0,3,1.343,3,3S40.656,76,39,76z M40,59c0-1.657,1.343-3,3-3c1.656,0,3,1.343,3,3s-1.344,3-3,3
				C41.343,62,40,60.657,40,59z M47,76c-1.657,0-3-1.343-3-3s1.343-3,3-3c1.656,0,3,1.343,3,3S48.656,76,47,76z M48,59
				c0-1.657,1.343-3,3-3c1.656,0,3,1.343,3,3s-1.344,3-3,3C49.343,62,48,60.657,48,59z M55,76c-1.657,0-3-1.343-3-3s1.343-3,3-3
				c1.656,0,3,1.343,3,3S56.656,76,55,76z M56,59c0-1.657,1.343-3,3-3c1.656,0,3,1.343,3,3s-1.344,3-3,3C57.343,62,56,60.657,56,59z
				 M63,76c-1.657,0-3-1.343-3-3s1.343-3,3-3c1.656,0,3,1.343,3,3S64.656,76,63,76z M64,59c0-1.657,1.343-3,3-3c1.656,0,3,1.343,3,3
				s-1.344,3-3,3C65.343,62,64,60.657,64,59z M71,76c-1.657,0-3-1.343-3-3s1.343-3,3-3c1.656,0,3,1.343,3,3S72.656,76,71,76z"/>
		</g>
		<g>
			<path style="fill:#FFFFFF;" d="M54.954,23c-8.201,0-15.323,5.646-17.194,13.631L27.105,82.087
				c-0.216,0.921-0.088,1.875,0.329,2.705l9.568-9.568C36.392,74.675,36,73.886,36,73c0-1.657,1.343-3,3-3
				c0.887,0,1.675,0.392,2.224,1.003l9.09-9.089C48.988,61.602,48,60.419,48,59c0-1.657,1.343-3,3-3c1.42,0,2.602,0.989,2.914,2.313
				l18.89-18.89l-0.655-2.792C70.277,28.646,63.155,23,54.954,23z M43,62c-1.657,0-3-1.343-3-3s1.343-3,3-3c1.656,0,3,1.343,3,3
				S44.656,62,43,62z M47,47.292c-1.657,0-3-1.343-3-3c0-1.657,1.343-3,3-3c1.656,0,3,1.343,3,3C50,45.949,48.656,47.292,47,47.292z
				 M47,35c0-4.418,3.582-8,8-8s8,3.582,8,8H47z M54.832,47.292c-1.656,0-3-1.343-3-3c0-1.657,1.344-3,3-3c1.657,0,3,1.343,3,3
				C57.832,45.949,56.489,47.292,54.832,47.292z M63,47.292c-1.657,0-3-1.343-3-3c0-1.657,1.343-3,3-3c1.656,0,3,1.343,3,3
				C66,45.949,64.656,47.292,63,47.292z"/>
		</g>
		<g>
			<path style="fill:#FFF5D9;" d="M41.819,39l-9.648,41.056l4.832-4.832C36.392,74.675,36,73.886,36,73c0-1.657,1.343-3,3-3
				c0.887,0,1.675,0.392,2.224,1.003l9.09-9.089C48.988,61.602,48,60.419,48,59c0-1.657,1.343-3,3-3c1.42,0,2.602,0.989,2.914,2.313
				l14.949-14.95L67.819,39H41.819z M43,62c-1.657,0-3-1.343-3-3s1.343-3,3-3c1.656,0,3,1.343,3,3S44.656,62,43,62z M47,47.292
				c-1.657,0-3-1.343-3-3c0-1.657,1.343-3,3-3c1.656,0,3,1.343,3,3C50,45.949,48.656,47.292,47,47.292z M54.832,47.292
				c-1.656,0-3-1.343-3-3c0-1.657,1.344-3,3-3c1.657,0,3,1.343,3,3C57.832,45.949,56.489,47.292,54.832,47.292z M63,47.292
				c-1.657,0-3-1.343-3-3c0-1.657,1.343-3,3-3c1.656,0,3,1.343,3,3C66,45.949,64.656,47.292,63,47.292z"/>
		</g>
		<g>
			<g>
				<path style="fill:#FFFFFF;" d="M54.832,47.32c-1.221,0-2.268-0.732-2.734-1.78c0.73,2.208,2.734,5.78,2.734,5.78
					s2.005-3.572,2.736-5.78C57.1,46.588,56.054,47.32,54.832,47.32z"/>
			</g>
		</g>
		<g>
			<g>
				<path style="fill:#FFFFFF;" d="M51,62.028c-1.221,0-2.268-0.732-2.735-1.779C48.996,62.458,51,66.028,51,66.028
					s2.004-3.571,2.735-5.779C53.268,61.296,52.221,62.028,51,62.028z"/>
			</g>
		</g>
		<g>
			<g>
				<path style="fill:#FFFFFF;" d="M43,62.028c-1.221,0-2.268-0.732-2.735-1.779C40.996,62.458,43,66.028,43,66.028
					s2.004-3.571,2.735-5.779C45.268,61.296,44.221,62.028,43,62.028z"/>
			</g>
		</g>
		<g>
			<g>
				<path style="fill:#FFFFFF;" d="M39,76.028c-1.221,0-2.268-0.732-2.735-1.779C36.996,76.458,39,80.028,39,80.028
					s2.004-3.571,2.735-5.779C41.268,75.296,40.221,76.028,39,76.028z"/>
			</g>
		</g>
		<g>
			<g>
				<path style="fill:#FFFFFF;" d="M47,76.028c-1.221,0-2.268-0.732-2.735-1.779C44.996,76.458,47,80.028,47,80.028
					s2.004-3.571,2.735-5.779C49.268,75.296,48.221,76.028,47,76.028z"/>
			</g>
		</g>
		<g>
			<g>
				<path style="fill:#FFFFFF;" d="M55,76.028c-1.221,0-2.268-0.732-2.735-1.779C52.996,76.458,55,80.028,55,80.028
					s2.004-3.571,2.735-5.779C57.268,75.296,56.221,76.028,55,76.028z"/>
			</g>
		</g>
		<g>
			<g>
				<path style="fill:#FFFFFF;" d="M63,76.028c-1.221,0-2.268-0.732-2.735-1.779C60.996,76.458,63,80.028,63,80.028
					s2.004-3.571,2.735-5.779C65.268,75.296,64.221,76.028,63,76.028z"/>
			</g>
		</g>
		<g>
			<g>
				<path style="fill:#FFFFFF;" d="M71,76.028c-1.221,0-2.268-0.732-2.735-1.779C68.996,76.458,71,80.028,71,80.028
					s2.004-3.571,2.735-5.779C73.268,75.296,72.221,76.028,71,76.028z"/>
			</g>
		</g>
		<g>
			<g>
				<path style="fill:#FFFFFF;" d="M59,62.028c-1.221,0-2.268-0.732-2.735-1.779C56.996,62.458,59,66.028,59,66.028
					s2.004-3.571,2.735-5.779C61.268,61.296,60.221,62.028,59,62.028z"/>
			</g>
		</g>
		<g>
			<g>
				<path style="fill:#FFFFFF;" d="M67,62.028c-1.221,0-2.268-0.732-2.735-1.779C64.996,62.458,67,66.028,67,66.028
					s2.004-3.571,2.735-5.779C69.268,61.296,68.221,62.028,67,62.028z"/>
			</g>
		</g>
		<g>
			<g>
				<path style="fill:#FFFFFF;" d="M63,47.32c-1.221,0-2.268-0.732-2.735-1.78C60.996,47.749,63,51.32,63,51.32
					s2.004-3.572,2.735-5.78C65.268,46.588,64.221,47.32,63,47.32z"/>
			</g>
		</g>
		<g>
			<g>
				<path style="fill:#FFFFFF;" d="M47,47.32c-1.221,0-2.268-0.732-2.735-1.78C44.996,47.749,47,51.32,47,51.32
					s2.004-3.572,2.735-5.78C49.268,46.588,48.221,47.32,47,47.32z"/>
			</g>
		</g>
	</g>
</g>
</svg>
