<?xml version="1.0" encoding="iso-8859-1"?>
<!-- Generator: Adobe Illustrator 17.1.0, SVG Export Plug-In . SVG Version: 6.00 Build 0)  -->
<!DOCTYPE svg PUBLIC "-//W3C//DTD SVG 1.0//EN" "http://www.w3.org/TR/2001/REC-SVG-20010904/DTD/svg10.dtd">
<svg version="1.0" xmlns="http://www.w3.org/2000/svg" xmlns:xlink="http://www.w3.org/1999/xlink" x="0px" y="0px" width="110px"
	 height="110px" viewBox="0 0 110 110" style="enable-background:new 0 0 110 110;" xml:space="preserve">
<g id="Artboard">
</g>
<g id="Multicolor">
	<circle style="fill:#FABC3D;" cx="55" cy="55" r="55"/>
	<g>
		<g>
			<path style="fill:#F0F1F1;" d="M79,39c-4-20-44-21-48,0v48h48V39z"/>
		</g>
		<g>
			<path style="fill:#FFFFFF;" d="M71.296,28.205C58.374,19.733,34.073,22.869,31,39v29.501L71.296,28.205z"/>
		</g>
		<g>
			<path style="fill:#9C6144;" d="M86.317,87C86.75,86.09,87,85.075,87,84c0-3.879-3.159-7.037-7.07-6.996
				C80.543,72.119,76.724,68,72,68c-1.972,0-3.774,0.717-5.169,1.899C64.277,65.765,59.717,63,54.5,63
				c-4.998,0-9.405,2.53-12.012,6.377C41.208,68.509,39.664,68,38,68c-4.742,0-8.541,4.137-7.93,9.004
				C26.159,76.963,23,80.121,23,84c0,1.075,0.25,2.09,0.683,3H86.317z"/>
		</g>
		<g>
			<g>
				<path style="fill:#3E3E3F;" d="M40.428,41.411c0-0.731,0.578-1.309,1.309-1.309h4.131c1.513,0,2.686,0.425,3.468,1.206
					c0.663,0.663,1.02,1.599,1.02,2.72v0.034c0,1.87-0.935,3.026-2.38,3.621l1.819,2.21c0.255,0.322,0.425,0.595,0.425,1.003
					c0,0.73-0.611,1.206-1.241,1.206c-0.595,0-0.985-0.288-1.291-0.68l-2.55-3.229h-2.091v2.601c0,0.731-0.578,1.309-1.31,1.309
					c-0.73,0-1.309-0.577-1.309-1.309V41.411z M45.697,45.882c1.275,0,2.006-0.681,2.006-1.683v-0.034c0-1.122-0.782-1.7-2.057-1.7
					h-2.601v3.417H45.697z"/>
			</g>
			<g>
				<path style="fill:#3E3E3F;" d="M54.538,41.309c0-0.73,0.578-1.309,1.309-1.309c0.731,0,1.31,0.578,1.31,1.309v9.485
					c0,0.731-0.578,1.309-1.31,1.309c-0.73,0-1.309-0.577-1.309-1.309V41.309z"/>
			</g>
			<g>
				<path style="fill:#3E3E3F;" d="M61.831,41.411c0-0.731,0.578-1.309,1.309-1.309h3.553c2.839,0,4.556,1.683,4.556,4.113v0.034
					c0,2.754-2.142,4.182-4.811,4.182h-1.988v2.362c0,0.731-0.578,1.309-1.31,1.309c-0.73,0-1.309-0.577-1.309-1.309V41.411z
					 M66.522,46.103c1.31,0,2.074-0.782,2.074-1.802v-0.034c0-1.173-0.816-1.802-2.125-1.802h-2.022v3.638H66.522z"/>
			</g>
		</g>
	</g>
</g>
</svg>
