<?xml version="1.0" encoding="iso-8859-1"?>
<!-- Generator: Adobe Illustrator 17.1.0, SVG Export Plug-In . SVG Version: 6.00 Build 0)  -->
<!DOCTYPE svg PUBLIC "-//W3C//DTD SVG 1.0//EN" "http://www.w3.org/TR/2001/REC-SVG-20010904/DTD/svg10.dtd">
<svg version="1.0" xmlns="http://www.w3.org/2000/svg" xmlns:xlink="http://www.w3.org/1999/xlink" x="0px" y="0px" width="110px"
	 height="110px" viewBox="0 0 110 110" style="enable-background:new 0 0 110 110;" xml:space="preserve">
<g id="Artboard">
</g>
<g id="Multicolor">
	<circle style="fill:#E04F5F;" cx="55" cy="55" r="55"/>
	<g>
		<g>
			<path style="fill:#E2E4E5;" d="M43,23c0,0-16,12.008-16,34c0,8.852,2.618,17.388,7.571,24.685C35.152,82.54,36.096,83,37.057,83
				c0.58,0,1.166-0.168,1.682-0.519c1.371-0.93,1.729-2.796,0.798-4.167C35.26,72.016,33,64.646,33,57
				c0-9.713,3.768-19.011,10.311-26H69c1.105,0,2-0.895,2-2v-4c0-1.104-0.895-2-2-2C64.077,23,51.179,23,43,23z"/>
		</g>
		<g>
			<path style="fill:#0C7367;" d="M47,39h24c10.667,14.667,10.667,29.333,0,44H47C36.333,68.333,36.333,53.667,47,39z"/>
		</g>
		<g>
			<polygon style="fill:#099686;" points="47,83 71,83 68,87 50,87 			"/>
		</g>
		<g>
			<polygon style="fill:#099686;" points="50,31 68,31 71,39 47,39 			"/>
		</g>
		<g>
			<g>
				<path style="fill:#FFFFFF;" d="M73,51c-7.72,0-14-6.28-14-14s6.28-14,14-14s14,6.28,14,14S80.72,51,73,51z M73,27
					c-5.514,0-10,4.486-10,10s4.486,10,10,10s10-4.486,10-10S78.514,27,73,27z"/>
			</g>
		</g>
		<g>
			<circle style="fill:#3E3E3F;" cx="66" cy="28" r="5"/>
		</g>
		<g>
			<polygon style="fill:#12B2A0;" points="59,31 50,31 47,39 59,39 			"/>
		</g>
		<g>
			<polygon style="fill:#12B2A0;" points="59,83 47,83 50,87 59,87 			"/>
		</g>
		<g>
			<path style="fill:#099686;" d="M59,39H47c-10.667,14.667-10.667,29.333,0,44h12V39z"/>
		</g>
	</g>
</g>
</svg>
