<?xml version="1.0" encoding="iso-8859-1"?>
<!-- Generator: Adobe Illustrator 17.1.0, SVG Export Plug-In . SVG Version: 6.00 Build 0)  -->
<!DOCTYPE svg PUBLIC "-//W3C//DTD SVG 1.0//EN" "http://www.w3.org/TR/2001/REC-SVG-20010904/DTD/svg10.dtd">
<svg version="1.0" xmlns="http://www.w3.org/2000/svg" xmlns:xlink="http://www.w3.org/1999/xlink" x="0px" y="0px" width="110px"
	 height="110px" viewBox="0 0 110 110" style="enable-background:new 0 0 110 110;" xml:space="preserve">
<g id="Artboard" style="display:none;">
	
		<rect x="-200.5" y="-1186.5" style="display:inline;fill:#808080;stroke:#000000;stroke-miterlimit:10;" width="1392" height="1369"/>
</g>
<g id="R-Multicolor">
	<circle style="fill:#25B7D3;" cx="55" cy="55" r="55"/>
	<g>
		<g>
			<path style="fill:#3E3E3F;" d="M82.109,54H27.891c1.831,7.112,6.385,13.129,12.484,16.875l-4.542,13.627
				c-0.193,0.579-0.096,1.215,0.261,1.709C36.45,86.707,37.022,87,37.632,87c0.817,0,1.542-0.522,1.8-1.297l4.348-13.043
				c2.855,1.251,5.961,2.033,9.22,2.263V85c0,1.104,0.896,2,2,2s2-0.896,2-2V74.922c3.259-0.23,6.364-1.012,9.22-2.263l4.348,13.043
				c0.258,0.775,0.983,1.297,1.8,1.297c0.61,0,1.183-0.293,1.539-0.788c0.357-0.495,0.454-1.131,0.261-1.709l-4.542-13.627
				C75.725,67.129,80.278,61.112,82.109,54z"/>
		</g>
		<g>
			<path style="fill:#E9EAEB;" d="M85,52c0,1.105-0.895,2-2,2H26.711c-1.105,0-2-0.895-2-2s0.895-2,2-2H83
				C84.105,50,85,50.895,85,52z"/>
		</g>
		<g>
			<path style="fill:#F0F1F1;" d="M23,43c0,1.105,0.895,2,2,2h60c1.105,0,2-0.895,2-2s-0.895-2-2-2H25C23.895,41,23,41.895,23,43z"
				/>
		</g>
		<g>
			<path style="fill:#DF2C2C;" d="M45,44.364C45,46.372,43.209,48,41,48h-8c-2.209,0-4-1.628-4-3.636v-2.727
				C29,39.628,30.791,38,33,38h8c2.209,0,4,1.628,4,3.636V44.364z"/>
		</g>
		<g>
			<path style="fill:#DF2C2C;" d="M63,44.364C63,46.372,61.209,48,59,48h-8c-2.209,0-4-1.628-4-3.636v-2.727
				C47,39.628,48.791,38,51,38h8c2.209,0,4,1.628,4,3.636V44.364z"/>
		</g>
		<g>
			<path style="fill:#DF2C2C;" d="M81,44.364C81,46.372,79.209,48,77,48h-8c-2.209,0-4-1.628-4-3.636v-2.727
				C65,39.628,66.791,38,69,38h8c2.209,0,4,1.628,4,3.636V44.364z"/>
		</g>
		<g>
			<path style="fill:#FFFFFF;" d="M45,35c2-4-8-7,0-12C43,29,52,29,45,35z"/>
		</g>
		<g>
			<path style="fill:#FFFFFF;" d="M55.151,35c2-4-8-7,0-12C53.151,29,62.151,29,55.151,35z"/>
		</g>
		<g>
			<path style="fill:#FFFFFF;" d="M65.302,35c2-4-8-7,0-12C63.302,29,72.302,29,65.302,35z"/>
		</g>
		<g>
			<path style="fill:#5B5C5F;" d="M27.895,54C31.004,66.075,41.955,75,55,75V54H27.895z"/>
		</g>
	</g>
</g>
<g id="Multicolor" style="display:none;">
	<g style="display:inline;">
		<g>
			<path style="fill:#3E3E3F;" d="M82.109,54H27.891c1.831,7.112,6.385,13.129,12.484,16.875l-4.542,13.627
				c-0.193,0.579-0.096,1.215,0.261,1.709C36.45,86.707,37.022,87,37.632,87c0.817,0,1.542-0.522,1.8-1.297l4.348-13.043
				c2.855,1.251,5.961,2.033,9.22,2.263V85c0,1.104,0.896,2,2,2s2-0.896,2-2V74.922c3.259-0.23,6.364-1.012,9.22-2.263l4.348,13.043
				c0.258,0.775,0.983,1.297,1.8,1.297c0.61,0,1.183-0.293,1.539-0.788c0.357-0.495,0.454-1.131,0.261-1.709l-4.542-13.627
				C75.725,67.129,80.278,61.112,82.109,54z"/>
		</g>
		<g>
			<path style="fill:#E9EAEB;" d="M85,52c0,1.105-0.895,2-2,2H26.711c-1.105,0-2-0.895-2-2s0.895-2,2-2H83
				C84.105,50,85,50.895,85,52z"/>
		</g>
		<g>
			<path style="fill:#F0F1F1;" d="M23,43c0,1.105,0.895,2,2,2h60c1.105,0,2-0.895,2-2s-0.895-2-2-2H25C23.895,41,23,41.895,23,43z"
				/>
		</g>
		<g>
			<path style="fill:#DF2C2C;" d="M45,44.364C45,46.372,43.209,48,41,48h-8c-2.209,0-4-1.628-4-3.636v-2.727
				C29,39.628,30.791,38,33,38h8c2.209,0,4,1.628,4,3.636V44.364z"/>
		</g>
		<g>
			<path style="fill:#DF2C2C;" d="M63,44.364C63,46.372,61.209,48,59,48h-8c-2.209,0-4-1.628-4-3.636v-2.727
				C47,39.628,48.791,38,51,38h8c2.209,0,4,1.628,4,3.636V44.364z"/>
		</g>
		<g>
			<path style="fill:#DF2C2C;" d="M81,44.364C81,46.372,79.209,48,77,48h-8c-2.209,0-4-1.628-4-3.636v-2.727
				C65,39.628,66.791,38,69,38h8c2.209,0,4,1.628,4,3.636V44.364z"/>
		</g>
		<g>
			<path style="fill:#FFFFFF;" d="M45,35c2-4-8-7,0-12C43,29,52,29,45,35z"/>
		</g>
		<g>
			<path style="fill:#FFFFFF;" d="M55.151,35c2-4-8-7,0-12C53.151,29,62.151,29,55.151,35z"/>
		</g>
		<g>
			<path style="fill:#FFFFFF;" d="M65.302,35c2-4-8-7,0-12C63.302,29,72.302,29,65.302,35z"/>
		</g>
		<g>
			<path style="fill:#5B5C5F;" d="M27.895,54C31.004,66.075,41.955,75,55,75V54H27.895z"/>
		</g>
	</g>
</g>
<g id="Blue" style="display:none;">
	<g style="display:inline;">
		<g>
			<path style="fill:#0C333D;" d="M82.109,54H27.891c1.831,7.112,6.385,13.129,12.484,16.876l-4.543,13.627
				c-0.192,0.579-0.096,1.214,0.262,1.709C36.449,86.707,37.022,87,37.633,87c0.816,0,1.541-0.522,1.8-1.297l4.348-13.043
				c2.855,1.251,5.962,2.033,9.22,2.263V85c0,1.104,0.896,2,2,2s2-0.896,2-2V74.922c3.259-0.23,6.364-1.012,9.22-2.263l4.348,13.043
				c0.259,0.775,0.983,1.297,1.8,1.297c0.61,0,1.184-0.293,1.539-0.788c0.357-0.495,0.454-1.13,0.262-1.709l-4.543-13.627
				C75.725,67.129,80.278,61.112,82.109,54z"/>
		</g>
		<g>
			<path style="fill:#CAEDF5;" d="M85,52c0,1.104-0.896,2-2,2H26.711c-1.104,0-2-0.896-2-2s0.896-2,2-2H83
				C84.104,50,85,50.896,85,52z"/>
		</g>
		<g>
			<path style="fill:#E1F5FA;" d="M23,43c0,1.104,0.896,2,2,2h60c1.104,0,2-0.896,2-2s-0.896-2-2-2H25C23.896,41,23,41.896,23,43z"
				/>
		</g>
		<g>
			<path style="fill:#0081A1;" d="M45,44.364C45,46.372,43.209,48,41,48h-8c-2.209,0-4-1.628-4-3.636v-2.727
				C29,39.628,30.791,38,33,38h8c2.209,0,4,1.628,4,3.637V44.364z"/>
		</g>
		<g>
			<path style="fill:#0081A1;" d="M63,44.364C63,46.372,61.209,48,59,48h-8c-2.209,0-4-1.628-4-3.636v-2.727
				C47,39.628,48.791,38,51,38h8c2.209,0,4,1.628,4,3.637V44.364z"/>
		</g>
		<g>
			<path style="fill:#0081A1;" d="M81,44.364C81,46.372,79.209,48,77,48h-8c-2.209,0-4-1.628-4-3.636v-2.727
				C65,39.628,66.791,38,69,38h8c2.209,0,4,1.628,4,3.637V44.364z"/>
		</g>
		<g>
			<path style="fill:#FFFFFF;" d="M45,35c2-4-8-7,0-12C43,29,52,29,45,35z"/>
		</g>
		<g>
			<path style="fill:#FFFFFF;" d="M55.15,35c2-4-8-7,0-12C53.15,29,62.15,29,55.15,35z"/>
		</g>
		<g>
			<path style="fill:#FFFFFF;" d="M65.302,35c2-4-8-7,0-12C63.302,29,72.302,29,65.302,35z"/>
		</g>
		<g>
			<path style="fill:#0F6175;" d="M27.895,54C31.004,66.075,41.955,75,55,75V54H27.895z"/>
		</g>
	</g>
</g>
<g id="R-Blue" style="display:none;">
	<circle style="display:inline;fill:#81D2EB;" cx="55" cy="55" r="55"/>
	<g style="display:inline;">
		<g>
			<path style="fill:#0C333D;" d="M82.109,54H27.891c1.831,7.112,6.385,13.129,12.484,16.875l-4.543,13.627
				c-0.192,0.579-0.096,1.214,0.262,1.709C36.449,86.707,37.022,87,37.633,87c0.816,0,1.541-0.523,1.8-1.297l4.348-13.043
				c2.855,1.251,5.962,2.033,9.22,2.263V85c0,1.104,0.896,2,2,2s2-0.896,2-2V74.922c3.259-0.23,6.364-1.012,9.22-2.263l4.348,13.043
				c0.259,0.775,0.983,1.297,1.8,1.297c0.61,0,1.184-0.293,1.539-0.788c0.357-0.495,0.454-1.13,0.262-1.709l-4.543-13.627
				C75.725,67.129,80.278,61.112,82.109,54z"/>
		</g>
		<g>
			<path style="fill:#CAEDF5;" d="M85,52c0,1.104-0.896,2-2,2H26.711c-1.104,0-2-0.896-2-2s0.896-2,2-2H83
				C84.104,50,85,50.895,85,52z"/>
		</g>
		<g>
			<path style="fill:#E1F5FA;" d="M23,43c0,1.104,0.896,2,2,2h60c1.104,0,2-0.896,2-2s-0.896-2-2-2H25C23.896,41,23,41.895,23,43z"
				/>
		</g>
		<g>
			<path style="fill:#0081A1;" d="M45,44.364C45,46.372,43.209,48,41,48h-8c-2.209,0-4-1.628-4-3.636v-2.727
				C29,39.628,30.791,38,33,38h8c2.209,0,4,1.628,4,3.637V44.364z"/>
		</g>
		<g>
			<path style="fill:#0081A1;" d="M63,44.364C63,46.372,61.209,48,59,48h-8c-2.209,0-4-1.628-4-3.636v-2.727
				C47,39.628,48.791,38,51,38h8c2.209,0,4,1.628,4,3.637V44.364z"/>
		</g>
		<g>
			<path style="fill:#0081A1;" d="M81,44.364C81,46.372,79.209,48,77,48h-8c-2.209,0-4-1.628-4-3.636v-2.727
				C65,39.628,66.791,38,69,38h8c2.209,0,4,1.628,4,3.637V44.364z"/>
		</g>
		<g>
			<path style="fill:#FFFFFF;" d="M45,35c2-4-8-7,0-12C43,29,52,29,45,35z"/>
		</g>
		<g>
			<path style="fill:#FFFFFF;" d="M55.15,35c2-4-8-7,0-12C53.15,29,62.15,29,55.15,35z"/>
		</g>
		<g>
			<path style="fill:#FFFFFF;" d="M65.302,35c2-4-8-7,0-12C63.302,29,72.302,29,65.302,35z"/>
		</g>
		<g>
			<path style="fill:#0F6175;" d="M27.895,54C31.004,66.075,41.955,75,55,75V54H27.895z"/>
		</g>
	</g>
</g>
<g id="Green" style="display:none;">
	<g style="display:inline;">
		<g>
			<path style="fill:#0A3631;" d="M82.109,54H27.891c1.831,7.112,6.385,13.129,12.484,16.876l-4.543,13.627
				c-0.192,0.579-0.096,1.214,0.262,1.709C36.449,86.707,37.022,87,37.633,87c0.816,0,1.541-0.522,1.8-1.297l4.348-13.043
				c2.855,1.251,5.962,2.033,9.22,2.263V85c0,1.104,0.896,2,2,2s2-0.896,2-2V74.922c3.259-0.23,6.364-1.012,9.22-2.263l4.348,13.043
				c0.259,0.775,0.983,1.297,1.8,1.297c0.61,0,1.184-0.293,1.539-0.788c0.357-0.495,0.454-1.13,0.262-1.709l-4.543-13.627
				C75.725,67.129,80.278,61.112,82.109,54z"/>
		</g>
		<g>
			<path style="fill:#BEF3EE;" d="M85,52c0,1.104-0.896,2-2,2H26.711c-1.104,0-2-0.896-2-2s0.896-2,2-2H83
				C84.104,50,85,50.896,85,52z"/>
		</g>
		<g>
			<path style="fill:#D7FCF9;" d="M23,43c0,1.104,0.896,2,2,2h60c1.104,0,2-0.896,2-2s-0.896-2-2-2H25C23.895,41,23,41.896,23,43z"
				/>
		</g>
		<g>
			<path style="fill:#009687;" d="M45,44.364C45,46.372,43.209,48,41,48h-8c-2.209,0-4-1.628-4-3.636v-2.727
				C29,39.628,30.791,38,33,38h8c2.209,0,4,1.628,4,3.637V44.364z"/>
		</g>
		<g>
			<path style="fill:#009687;" d="M63,44.364C63,46.372,61.209,48,59,48h-8c-2.209,0-4-1.628-4-3.636v-2.727
				C47,39.628,48.791,38,51,38h8c2.209,0,4,1.628,4,3.637V44.364z"/>
		</g>
		<g>
			<path style="fill:#009687;" d="M81,44.364C81,46.372,79.209,48,77,48h-8c-2.209,0-4-1.628-4-3.636v-2.727
				C65,39.628,66.791,38,69,38h8c2.209,0,4,1.628,4,3.637V44.364z"/>
		</g>
		<g>
			<path style="fill:#FFFFFF;" d="M45,35c2-4-8-7,0-12C43,29,52,29,45,35z"/>
		</g>
		<g>
			<path style="fill:#FFFFFF;" d="M55.15,35c2-4-8-7,0-12C53.15,29,62.15,29,55.15,35z"/>
		</g>
		<g>
			<path style="fill:#FFFFFF;" d="M65.302,35c2-4-8-7,0-12C63.302,29,72.302,29,65.302,35z"/>
		</g>
		<g>
			<path style="fill:#14635B;" d="M27.894,54C31.004,66.075,41.955,75,55,75V54H27.894z"/>
		</g>
	</g>
</g>
<g id="R-Green" style="display:none;">
	<circle style="display:inline;fill:#77E0C4;" cx="55" cy="55" r="55"/>
	<g style="display:inline;">
		<g>
			<path style="fill:#0A3631;" d="M82.109,54H27.891c1.831,7.112,6.385,13.129,12.484,16.876l-4.543,13.627
				c-0.192,0.579-0.096,1.214,0.262,1.709C36.449,86.707,37.022,87,37.633,87c0.816,0,1.541-0.522,1.8-1.297l4.348-13.043
				c2.855,1.251,5.962,2.033,9.22,2.263V85c0,1.104,0.896,2,2,2s2-0.896,2-2V74.922c3.259-0.23,6.364-1.012,9.22-2.263l4.348,13.043
				c0.259,0.775,0.983,1.297,1.8,1.297c0.61,0,1.184-0.293,1.539-0.788c0.358-0.495,0.454-1.13,0.262-1.709l-4.543-13.627
				C75.725,67.129,80.278,61.112,82.109,54z"/>
		</g>
		<g>
			<path style="fill:#BEF3EE;" d="M85,52c0,1.104-0.896,2-2,2H26.711c-1.104,0-2-0.896-2-2s0.896-2,2-2H83
				C84.104,50,85,50.896,85,52z"/>
		</g>
		<g>
			<path style="fill:#D7FCF9;" d="M23,43c0,1.104,0.896,2,2,2h60c1.104,0,2-0.896,2-2s-0.896-2-2-2H25C23.896,41,23,41.896,23,43z"
				/>
		</g>
		<g>
			<path style="fill:#009687;" d="M45,44.364C45,46.372,43.209,48,41,48h-8c-2.209,0-4-1.628-4-3.636v-2.727
				C29,39.628,30.791,38,33,38h8c2.209,0,4,1.628,4,3.637V44.364z"/>
		</g>
		<g>
			<path style="fill:#009687;" d="M63,44.364C63,46.372,61.209,48,59,48h-8c-2.209,0-4-1.628-4-3.636v-2.727
				C47,39.628,48.791,38,51,38h8c2.209,0,4,1.628,4,3.637V44.364z"/>
		</g>
		<g>
			<path style="fill:#009687;" d="M81,44.364C81,46.372,79.209,48,77,48h-8c-2.209,0-4-1.628-4-3.636v-2.727
				C65,39.628,66.791,38,69,38h8c2.209,0,4,1.628,4,3.637V44.364z"/>
		</g>
		<g>
			<path style="fill:#FFFFFF;" d="M45,35c2-4-8-7,0-12C43,29,52,29,45,35z"/>
		</g>
		<g>
			<path style="fill:#FFFFFF;" d="M55.15,35c2-4-8-7,0-12C53.15,29,62.15,29,55.15,35z"/>
		</g>
		<g>
			<path style="fill:#FFFFFF;" d="M65.302,35c2-4-8-7,0-12C63.302,29,72.302,29,65.302,35z"/>
		</g>
		<g>
			<path style="fill:#14635B;" d="M27.895,54C31.004,66.075,41.955,75,55,75V54H27.895z"/>
		</g>
	</g>
</g>
<g id="Red" style="display:none;">
	<g style="display:inline;">
		<g>
			<path style="fill:#4A1410;" d="M82.109,54H27.891c1.831,7.112,6.385,13.129,12.484,16.876l-4.543,13.627
				c-0.192,0.579-0.096,1.214,0.262,1.709C36.449,86.707,37.022,87,37.633,87c0.816,0,1.541-0.522,1.8-1.297l4.348-13.043
				c2.855,1.251,5.962,2.033,9.22,2.263V85c0,1.104,0.896,2,2,2s2-0.896,2-2V74.922c3.259-0.23,6.364-1.012,9.22-2.263l4.348,13.043
				c0.259,0.775,0.983,1.297,1.8,1.297c0.61,0,1.184-0.293,1.539-0.788c0.358-0.495,0.454-1.13,0.262-1.709l-4.543-13.627
				C75.725,67.129,80.278,61.112,82.109,54z"/>
		</g>
		<g>
			<path style="fill:#FFE0DE;" d="M85,52c0,1.104-0.896,2-2,2H26.711c-1.104,0-2-0.896-2-2s0.896-2,2-2H83
				C84.104,50,85,50.896,85,52z"/>
		</g>
		<g>
			<path style="fill:#FFEFED;" d="M23,43c0,1.104,0.896,2,2,2h60c1.104,0,2-0.896,2-2s-0.896-2-2-2H25C23.896,41,23,41.896,23,43z"
				/>
		</g>
		<g>
			<path style="fill:#C23023;" d="M45,44.364C45,46.372,43.209,48,41,48h-8c-2.209,0-4-1.628-4-3.636v-2.727
				C29,39.628,30.791,38,33,38h8c2.209,0,4,1.628,4,3.637V44.364z"/>
		</g>
		<g>
			<path style="fill:#C23023;" d="M63,44.364C63,46.372,61.209,48,59,48h-8c-2.209,0-4-1.628-4-3.636v-2.727
				C47,39.628,48.791,38,51,38h8c2.209,0,4,1.628,4,3.637V44.364z"/>
		</g>
		<g>
			<path style="fill:#C23023;" d="M81,44.364C81,46.372,79.209,48,77,48h-8c-2.209,0-4-1.628-4-3.636v-2.727
				C65,39.628,66.791,38,69,38h8c2.209,0,4,1.628,4,3.637V44.364z"/>
		</g>
		<g>
			<path style="fill:#FFFFFF;" d="M45,35c2-4-8-7,0-12C43,29,52,29,45,35z"/>
		</g>
		<g>
			<path style="fill:#FFFFFF;" d="M55.15,35c2-4-8-7,0-12C53.15,29,62.15,29,55.15,35z"/>
		</g>
		<g>
			<path style="fill:#FFFFFF;" d="M65.302,35c2-4-8-7,0-12C63.302,29,72.302,29,65.302,35z"/>
		</g>
		<g>
			<path style="fill:#7D261E;" d="M27.895,54C31.004,66.075,41.955,75,55,75V54H27.895z"/>
		</g>
	</g>
</g>
<g id="R-Red" style="display:none;">
	<circle style="display:inline;fill:#FABBAF;" cx="55" cy="55" r="55"/>
	<g style="display:inline;">
		<g>
			<path style="fill:#4A1410;" d="M82.109,54H27.891c1.831,7.112,6.385,13.129,12.484,16.876l-4.543,13.627
				c-0.192,0.579-0.096,1.214,0.262,1.709C36.449,86.707,37.022,87,37.633,87c0.816,0,1.541-0.522,1.8-1.297l4.348-13.043
				c2.855,1.251,5.962,2.033,9.22,2.263V85c0,1.104,0.896,2,2,2s2-0.896,2-2V74.922c3.259-0.23,6.364-1.012,9.22-2.263l4.348,13.043
				c0.259,0.775,0.983,1.297,1.8,1.297c0.61,0,1.184-0.293,1.539-0.788c0.358-0.495,0.454-1.13,0.262-1.709l-4.543-13.627
				C75.725,67.129,80.278,61.112,82.109,54z"/>
		</g>
		<g>
			<path style="fill:#FFE0DE;" d="M85,52c0,1.104-0.896,2-2,2H26.711c-1.104,0-2-0.896-2-2s0.896-2,2-2H83
				C84.104,50,85,50.896,85,52z"/>
		</g>
		<g>
			<path style="fill:#FFEFED;" d="M23,43c0,1.104,0.896,2,2,2h60c1.104,0,2-0.896,2-2s-0.896-2-2-2H25C23.896,41,23,41.896,23,43z"
				/>
		</g>
		<g>
			<path style="fill:#C23023;" d="M45,44.364C45,46.372,43.209,48,41,48h-8c-2.209,0-4-1.628-4-3.636v-2.727
				C29,39.628,30.791,38,33,38h8c2.209,0,4,1.628,4,3.637V44.364z"/>
		</g>
		<g>
			<path style="fill:#C23023;" d="M63,44.364C63,46.372,61.209,48,59,48h-8c-2.209,0-4-1.628-4-3.636v-2.727
				C47,39.628,48.791,38,51,38h8c2.209,0,4,1.628,4,3.637V44.364z"/>
		</g>
		<g>
			<path style="fill:#C23023;" d="M81,44.364C81,46.372,79.209,48,77,48h-8c-2.209,0-4-1.628-4-3.636v-2.727
				C65,39.628,66.791,38,69,38h8c2.209,0,4,1.628,4,3.637V44.364z"/>
		</g>
		<g>
			<path style="fill:#FFFFFF;" d="M45,35c2-4-8-7,0-12C43,29,52,29,45,35z"/>
		</g>
		<g>
			<path style="fill:#FFFFFF;" d="M55.15,35c2-4-8-7,0-12C53.15,29,62.15,29,55.15,35z"/>
		</g>
		<g>
			<path style="fill:#FFFFFF;" d="M65.302,35c2-4-8-7,0-12C63.302,29,72.302,29,65.302,35z"/>
		</g>
		<g>
			<path style="fill:#7D261E;" d="M27.895,54C31.004,66.075,41.955,75,55,75V54H27.895z"/>
		</g>
	</g>
</g>
<g id="Yellow" style="display:none;">
	<g style="display:inline;">
		<g>
			<path style="fill:#3D320C;" d="M82.109,54H27.891c1.831,7.112,6.385,13.129,12.484,16.876l-4.543,13.627
				c-0.192,0.579-0.096,1.214,0.262,1.709C36.449,86.707,37.022,87,37.633,87c0.816,0,1.541-0.522,1.8-1.297l4.348-13.043
				c2.855,1.251,5.962,2.033,9.22,2.263V85c0,1.104,0.896,2,2,2s2-0.896,2-2V74.922c3.259-0.23,6.364-1.012,9.22-2.263l4.348,13.043
				c0.259,0.775,0.983,1.297,1.8,1.297c0.61,0,1.184-0.293,1.539-0.788c0.358-0.495,0.454-1.13,0.262-1.709l-4.543-13.627
				C75.725,67.129,80.278,61.112,82.109,54z"/>
		</g>
		<g>
			<path style="fill:#FFEEB6;" d="M85,52c0,1.104-0.896,2-2,2H26.711c-1.104,0-2-0.896-2-2s0.896-2,2-2H83
				C84.104,50,85,50.896,85,52z"/>
		</g>
		<g>
			<path style="fill:#FFF5D9;" d="M23,43c0,1.104,0.896,2,2,2h60c1.104,0,2-0.896,2-2s-0.896-2-2-2H25C23.896,41,23,41.896,23,43z"
				/>
		</g>
		<g>
			<path style="fill:#E07000;" d="M45,44.364C45,46.372,43.209,48,41,48h-8c-2.209,0-4-1.628-4-3.636v-2.727
				C29,39.628,30.791,38,33,38h8c2.209,0,4,1.628,4,3.637V44.364z"/>
		</g>
		<g>
			<path style="fill:#E07000;" d="M63,44.364C63,46.372,61.209,48,59,48h-8c-2.209,0-4-1.628-4-3.636v-2.727
				C47,39.628,48.791,38,51,38h8c2.209,0,4,1.628,4,3.637V44.364z"/>
		</g>
		<g>
			<path style="fill:#E07000;" d="M81,44.364C81,46.372,79.209,48,77,48h-8c-2.209,0-4-1.628-4-3.636v-2.727
				C65,39.628,66.791,38,69,38h8c2.209,0,4,1.628,4,3.637V44.364z"/>
		</g>
		<g>
			<path style="fill:#FFFFFF;" d="M45,35c2-4-8-7,0-12C43,29,52,29,45,35z"/>
		</g>
		<g>
			<path style="fill:#FFFFFF;" d="M55.15,35c2-4-8-7,0-12C53.15,29,62.15,29,55.15,35z"/>
		</g>
		<g>
			<path style="fill:#FFFFFF;" d="M65.302,35c2-4-8-7,0-12C63.302,29,72.302,29,65.302,35z"/>
		</g>
		<g>
			<path style="fill:#66510D;" d="M27.895,54C31.004,66.075,41.955,75,55,75V54H27.895z"/>
		</g>
	</g>
</g>
<g id="R-Yellow" style="display:none;">
	<circle style="display:inline;fill:#FFD75E;" cx="55" cy="55" r="55"/>
	<g style="display:inline;">
		<g>
			<path style="fill:#3D320C;" d="M82.109,54H27.891c1.831,7.112,6.385,13.129,12.484,16.876l-4.543,13.627
				c-0.192,0.579-0.096,1.214,0.262,1.709C36.449,86.707,37.022,87,37.633,87c0.816,0,1.541-0.522,1.8-1.297l4.348-13.043
				c2.855,1.251,5.962,2.033,9.22,2.263V85c0,1.104,0.896,2,2,2s2-0.896,2-2V74.922c3.259-0.23,6.364-1.012,9.22-2.263l4.348,13.043
				c0.259,0.775,0.983,1.297,1.8,1.297c0.61,0,1.184-0.293,1.539-0.788c0.357-0.495,0.454-1.13,0.262-1.709l-4.543-13.627
				C75.725,67.129,80.278,61.112,82.109,54z"/>
		</g>
		<g>
			<path style="fill:#FFEEB6;" d="M85,52c0,1.104-0.896,2-2,2H26.711c-1.104,0-2-0.896-2-2s0.896-2,2-2H83
				C84.104,50,85,50.896,85,52z"/>
		</g>
		<g>
			<path style="fill:#FFF5D9;" d="M23,43c0,1.104,0.896,2,2,2h60c1.104,0,2-0.896,2-2s-0.896-2-2-2H25C23.895,41,23,41.896,23,43z"
				/>
		</g>
		<g>
			<path style="fill:#E07000;" d="M45,44.364C45,46.372,43.209,48,41,48h-8c-2.209,0-4-1.628-4-3.636v-2.727
				C29,39.628,30.791,38,33,38h8c2.209,0,4,1.628,4,3.637V44.364z"/>
		</g>
		<g>
			<path style="fill:#E07000;" d="M63,44.364C63,46.372,61.209,48,59,48h-8c-2.209,0-4-1.628-4-3.636v-2.727
				C47,39.628,48.791,38,51,38h8c2.209,0,4,1.628,4,3.637V44.364z"/>
		</g>
		<g>
			<path style="fill:#E07000;" d="M81,44.364C81,46.372,79.209,48,77,48h-8c-2.209,0-4-1.628-4-3.636v-2.727
				C65,39.628,66.791,38,69,38h8c2.209,0,4,1.628,4,3.637V44.364z"/>
		</g>
		<g>
			<path style="fill:#FFFFFF;" d="M45,35c2-4-8-7,0-12C43,29,52,29,45,35z"/>
		</g>
		<g>
			<path style="fill:#FFFFFF;" d="M55.15,35c2-4-8-7,0-12C53.15,29,62.15,29,55.15,35z"/>
		</g>
		<g>
			<path style="fill:#FFFFFF;" d="M65.302,35c2-4-8-7,0-12C63.302,29,72.302,29,65.302,35z"/>
		</g>
		<g>
			<path style="fill:#66510D;" d="M27.894,54C31.004,66.075,41.955,75,55,75V54H27.894z"/>
		</g>
	</g>
</g>
</svg>
