<?xml version="1.0" encoding="iso-8859-1"?>
<!-- Generator: Adobe Illustrator 17.1.0, SVG Export Plug-In . SVG Version: 6.00 Build 0)  -->
<!DOCTYPE svg PUBLIC "-//W3C//DTD SVG 1.0//EN" "http://www.w3.org/TR/2001/REC-SVG-20010904/DTD/svg10.dtd">
<svg version="1.0" xmlns="http://www.w3.org/2000/svg" xmlns:xlink="http://www.w3.org/1999/xlink" x="0px" y="0px" width="110px"
	 height="110px" viewBox="0 0 110 110" style="enable-background:new 0 0 110 110;" xml:space="preserve">
<g id="Artboard">
</g>
<g id="Multicolor">
	<circle style="fill:#25B7D3;" cx="55" cy="55" r="55"/>
	<g>
		<g>
			<path style="fill:#FFFFFF;" d="M66.148,51l14.878-20.26c1.086-1.459,0.933-3.495-0.358-4.776l-0.045-0.045
				c-1.291-1.281-3.328-1.417-4.779-0.321L42.983,51H66.148z"/>
		</g>
		<g>
			<path style="fill:#E2E4E5;" d="M87,59c0,2.209-1.791,4-4,4H27c-2.209,0-4-1.791-4-4v-4c0-2.209,1.791-4,4-4h56
				c2.209,0,4,1.791,4,4V59z"/>
		</g>
		<g>
			<path style="fill:#F0F1F1;" d="M27,63c0,6.667,4,12,12,16l-3.414,3.414C35.211,82.789,35,83.298,35,83.828V85
				c0,1.105,0.895,2,2,2h36c1.105,0,2-0.895,2-2v-1.172c0-0.53-0.211-1.039-0.586-1.414L71,79c8-4,12-9.333,12-16H27z"/>
		</g>
		<g>
			<path style="fill:#F0F1F1;" d="M55,51v12H27c-2.21,0-4-1.79-4-4v-4c0-2.21,1.79-4,4-4H55z"/>
		</g>
		<g>
			<path style="fill:#FFFFFF;" d="M55,63v24H37c-1.1,0-2-0.9-2-2v-1.17c0-0.53,0.21-1.04,0.59-1.42L39,79c-8-4-12-9.33-12-16H55z"/>
		</g>
	</g>
</g>
</svg>
