<?xml version="1.0" encoding="iso-8859-1"?>
<!-- Generator: Adobe Illustrator 17.1.0, SVG Export Plug-In . SVG Version: 6.00 Build 0)  -->
<!DOCTYPE svg PUBLIC "-//W3C//DTD SVG 1.0//EN" "http://www.w3.org/TR/2001/REC-SVG-20010904/DTD/svg10.dtd">
<svg version="1.0" xmlns="http://www.w3.org/2000/svg" xmlns:xlink="http://www.w3.org/1999/xlink" x="0px" y="0px" width="110px"
	 height="110px" viewBox="0 0 110 110" style="enable-background:new 0 0 110 110;" xml:space="preserve">
<g id="Artboard">
</g>
<g id="Multicolor">
	<circle style="fill:#FABC3D;" cx="55" cy="55" r="55"/>
	<g>
		<g>
			<path style="fill:#9C6144;" d="M66.126,60.71c11.767-5.23,2.406-14.905,0.17-17.14s-11.91-11.597-17.14,0.17
				c-5.657,12.728-15.63,5.583-21.994,11.947c-10.607,10.607,2.247,22.046,3.635,23.434c1.388,1.388,12.702,14.116,23.308,3.51
				C60.469,76.266,53.398,66.366,66.126,60.71z"/>
		</g>
		<path style="fill:#AF7653;" d="M66.314,43.588c-0.006-0.006-0.013-0.013-0.019-0.019c-2.236-2.236-11.911-11.598-17.14,0.17
			c-5.657,12.728-15.63,5.583-21.994,11.947C16.569,66.278,29.372,77.7,30.789,79.113L66.314,43.588z"/>
		<path style="fill:#84462D;" d="M78.343,37.179c-0.33-0.087-0.645-0.252-0.903-0.511l-4.243-4.243
			c-0.259-0.259-0.424-0.573-0.511-0.903L56.042,48.166c-2.176-0.387-4.499,0.256-6.18,1.938c-2.734,2.734-2.734,7.166,0,9.899
			c2.734,2.734,7.166,2.734,9.899,0c1.681-1.681,2.324-4.004,1.938-6.18L78.343,37.179z"/>
		<g>
			<path style="fill:#EDBC7C;" d="M46.327,76.266c-0.391,0.391-1.024,0.391-1.414,0L33.599,64.952c-0.391-0.391-0.391-1.024,0-1.414
				l1.414-1.414c0.391-0.391,1.024-0.391,1.414,0l11.314,11.314c0.391,0.391,0.391,1.024,0,1.414L46.327,76.266z"/>
		</g>
		<g>
			<circle style="fill:#3E3E3F;" cx="54.812" cy="55.053" r="7"/>
		</g>
		<path style="fill:#FCF1E2;" d="M76.38,35.608c-0.003,0.003-0.006,0.003-0.009,0.006L42.431,70.97
			c-0.191,0.199-0.185,0.516,0.015,0.707c0.199,0.191,0.516,0.185,0.707-0.015l33.934-35.348L76.38,35.608z"/>
		<path style="fill:#FCF1E2;" d="M74.965,34.193L40.316,68.841c-0.195,0.195-0.195,0.512,0,0.707s0.512,0.195,0.707,0L75.672,34.9
			L74.965,34.193z"/>
		<path style="fill:#FCF1E2;" d="M73.55,32.778L38.203,66.713c-0.199,0.191-0.206,0.508-0.015,0.707
			c0.191,0.199,0.508,0.206,0.707,0.015L74.25,33.493c0.002-0.002,0.003-0.006,0.006-0.009L73.55,32.778z"/>
		<g>
			<path style="fill:#9C6144;" d="M78.854,23.94c0.781-0.781,2.047-0.781,2.828,0l4.243,4.243c0.781,0.781,0.781,2.047,0,2.828
				l-5.657,5.657c-0.781,0.781-2.047,0.781-2.828,0l-4.243-4.243c-0.781-0.781-0.781-2.047,0-2.828L78.854,23.94z"/>
		</g>
		<g>
			<path style="fill:#FBEC9A;" d="M82.639,37.125c-0.529,0.529-1.274,0.641-1.664,0.25l-1.414-1.414
				c-0.391-0.391-0.279-1.136,0.25-1.664s1.274-0.641,1.664-0.25l1.414,1.414C83.28,35.851,83.168,36.596,82.639,37.125z"/>
		</g>
		<g>
			<path style="fill:#FBEC9A;" d="M86.382,33.382c-0.529,0.529-1.274,0.641-1.664,0.25l-1.414-1.414
				c-0.391-0.391-0.279-1.136,0.25-1.664s1.274-0.641,1.664-0.25l1.414,1.414C87.022,32.109,86.91,32.854,86.382,33.382z"/>
		</g>
		<path style="fill:#AF7653;" d="M81.682,23.94c-0.781-0.781-2.047-0.781-2.829,0l-5.657,5.657c-0.781,0.781-0.781,2.048,0,2.829
			l2.14,2.14l8.485-8.485L81.682,23.94z"/>
		<g>
			<path style="fill:#FBEC9A;" d="M75.568,30.054c-0.529,0.529-1.274,0.641-1.664,0.25L72.49,28.89
				c-0.391-0.391-0.279-1.136,0.25-1.664c0.529-0.529,1.274-0.641,1.664-0.25l1.414,1.414C76.209,28.78,76.097,29.525,75.568,30.054
				z"/>
		</g>
		<g>
			<path style="fill:#FBEC9A;" d="M79.311,26.311c-0.529,0.529-1.274,0.641-1.664,0.25l-1.414-1.414
				c-0.391-0.391-0.279-1.136,0.25-1.664s1.274-0.641,1.664-0.25l1.414,1.414C79.951,25.038,79.839,25.783,79.311,26.311z"/>
		</g>
	</g>
</g>
</svg>
