<?xml version="1.0" encoding="iso-8859-1"?>
<!-- Generator: Adobe Illustrator 17.1.0, SVG Export Plug-In . SVG Version: 6.00 Build 0)  -->
<!DOCTYPE svg PUBLIC "-//W3C//DTD SVG 1.0//EN" "http://www.w3.org/TR/2001/REC-SVG-20010904/DTD/svg10.dtd">
<svg version="1.0" xmlns="http://www.w3.org/2000/svg" xmlns:xlink="http://www.w3.org/1999/xlink" x="0px" y="0px" width="110px"
	 height="110px" viewBox="0 0 110 110" style="enable-background:new 0 0 110 110;" xml:space="preserve">
<g id="Artboard">
</g>
<g id="Multicolor">
	<circle style="fill:#25B7D3;" cx="55" cy="55" r="55"/>
	<g>
		<g>
			<rect x="39" y="35" style="fill:#F0F1F1;" width="32" height="40"/>
		</g>
		<g>
			<path style="fill:#F3B607;" d="M74.17,31.38c-3.506-2.536-10.846-3.859-15.187-4.211C59.084,24.787,57.187,23,55,23
				c-2.195,0-4.085,1.796-3.983,4.172C44.225,27.72,38.34,29.564,35.83,31.38c-0.71,0.51-1,1.41-0.73,2.24
				C35.371,34.44,36.13,35,37,35h18h18c0.87,0,1.63-0.56,1.9-1.38C75.17,32.79,74.88,31.89,74.17,31.38z"/>
		</g>
		<g>
			<path style="fill:#FACB1B;" d="M51,27c0,0.059,0.015,0.114,0.017,0.172c-4.75,0.383-9.026,1.393-12.017,2.578
				c-1.33,0.52-2.41,1.08-3.17,1.63c-0.71,0.51-1,1.41-0.73,2.24C35.371,34.44,36.13,35,37,35h18V23C52.791,23,51,24.791,51,27z"/>
		</g>
		<g>
			<path style="fill:#F3B607;" d="M35.83,78.62c3.506,2.536,10.846,3.859,15.187,4.211C50.916,85.213,52.813,87,55,87
				c2.195,0,4.085-1.796,3.983-4.172c6.793-0.548,12.677-2.392,15.187-4.208c0.71-0.51,1-1.41,0.73-2.24
				C74.63,75.56,73.871,75,73,75H55H37c-0.87,0-1.63,0.56-1.9,1.38C34.83,77.21,35.121,78.11,35.83,78.62z"/>
		</g>
		<g>
			<path style="fill:#FACB1B;" d="M51,83c0-0.059,0.015-0.114,0.017-0.172C44.225,82.28,38.34,80.436,35.83,78.62
				c-0.71-0.51-1-1.41-0.73-2.24C35.371,75.56,36.13,75,37,75h18v12C52.791,87,51,85.209,51,83z"/>
		</g>
		<g>
			<rect x="39" y="35" style="fill:#FFFFFF;" width="16" height="40"/>
		</g>
		<g>
			<polygon style="fill:#DF2C2C;" points="39,47 71,35 71,43 39,55 			"/>
		</g>
		<g>
			<polygon style="fill:#FA5655;" points="39,55 55,49 55,41 39,47 			"/>
		</g>
		<g>
			<polygon style="fill:#DF2C2C;" points="39,63 71,51 71,59 39,71 			"/>
		</g>
		<g>
			<polygon style="fill:#FA5655;" points="55,57 39,63 39,71 55,65 			"/>
		</g>
		<g>
			<polygon style="fill:#DF2C2C;" points="71,67 71,75 49.67,75 			"/>
		</g>
		<g>
			<polygon style="fill:#FA5655;" points="49.67,75 55,75 55,73.001 			"/>
		</g>
		<g>
			<polygon style="fill:#FA5655;" points="49.67,35 39,39 39,35 			"/>
		</g>
	</g>
</g>
</svg>
