<?xml version="1.0" encoding="iso-8859-1"?>
<!-- Generator: Adobe Illustrator 17.1.0, SVG Export Plug-In . SVG Version: 6.00 Build 0)  -->
<!DOCTYPE svg PUBLIC "-//W3C//DTD SVG 1.0//EN" "http://www.w3.org/TR/2001/REC-SVG-20010904/DTD/svg10.dtd">
<svg version="1.0" xmlns="http://www.w3.org/2000/svg" xmlns:xlink="http://www.w3.org/1999/xlink" x="0px" y="0px" width="110px"
	 height="110px" viewBox="0 0 110 110" style="enable-background:new 0 0 110 110;" xml:space="preserve">
<g id="Artboard">
</g>
<g id="Multicolor">
	<circle style="fill:#E04F5F;" cx="55" cy="55" r="55"/>
	<g>
		<g>
			<path style="fill:#E2E4E5;" d="M56.593,59.734c0.29,0.29,0.508,0.621,0.691,0.966l7.505-7.505c2.14-2.14,5.495-2.278,7.822-0.464
				l-0.957,0.957c-0.873,0.873-0.873,2.289,0,3.162l3.511,3.51c0.873,0.874,2.289,0.874,3.162,0l8.018-8.017
				c0.873-0.874,0.873-2.289,0-3.162l-3.511-3.511c-0.873-0.873-2.289-0.873-3.162,0l-0.959,0.959
				c-1.545-1.782-2.151-3.207-0.729-4.629c-0.193-2.9-1.141-5.535-2.627-7.846C69.157,24.509,53.471,20.547,42.984,27l1,2
				c9.162-0.611,15.805,3.255,15.317,11.598c-0.085,1.446-0.724,2.81-1.749,3.834L49.284,52.7c0.345,0.183,0.676,0.4,0.966,0.691
				L56.593,59.734z"/>
		</g>
		<g>
			<path style="fill:#84462D;" d="M56.593,59.734c-4.185-4.185-2.731-2.731-6.343-6.343c-1.562-1.562-4.095-1.562-5.657,0
				L24.156,73.828c-1.562,1.562-1.562,4.095,0,5.657c4.172,4.172,2.204,2.204,6.343,6.343c1.562,1.562,4.095,1.562,5.657,0
				l20.438-20.438C58.156,63.829,58.156,61.296,56.593,59.734z"/>
		</g>
		<g>
			<path style="fill:#9C6144;" d="M50.25,53.391c-1.562-1.562-4.095-1.562-5.657,0L24.156,73.828c-1.562,1.562-1.562,4.095,0,5.657
				c2.223,2.224,2.704,2.704,3.293,3.293l26.094-26.094C52.749,55.89,52.371,55.512,50.25,53.391z"/>
		</g>
		<g>
			<path style="fill:#FFFFFF;" d="M75.358,34.154C69.157,24.509,53.471,20.547,42.984,27l1,2
				c9.162-0.611,15.805,3.255,15.317,11.598c-0.085,1.446-0.724,2.81-1.749,3.834L49.284,52.7c0.345,0.183,0.676,0.4,0.966,0.691
				l3.293,3.293l22.083-22.083C75.537,34.452,75.452,34.3,75.358,34.154z"/>
		</g>
	</g>
</g>
</svg>
