<?xml version="1.0" encoding="iso-8859-1"?>
<!-- Generator: Adobe Illustrator 17.1.0, SVG Export Plug-In . SVG Version: 6.00 Build 0)  -->
<!DOCTYPE svg PUBLIC "-//W3C//DTD SVG 1.0//EN" "http://www.w3.org/TR/2001/REC-SVG-20010904/DTD/svg10.dtd">
<svg version="1.0" xmlns="http://www.w3.org/2000/svg" xmlns:xlink="http://www.w3.org/1999/xlink" x="0px" y="0px" width="110px"
	 height="110px" viewBox="0 0 110 110" style="enable-background:new 0 0 110 110;" xml:space="preserve">
<g id="Artboard">
</g>
<g id="Multicolor">
	<circle style="fill:#FABC3D;" cx="55" cy="55" r="55"/>
	<g>
		<g>
			<path style="fill:#FFFFFF;" d="M55,75c-7.448,0-14.756-3.606-21.82-10.722C33.969,68.96,37.917,85,55,85
				c17.137,0,21.789-16.874,22.771-21.709C70.412,71.058,62.783,75,55,75z"/>
		</g>
		<g>
			<path style="fill:#84462D;" d="M23,61v17.223c0,0.492,0.358,0.911,0.844,0.988s0.956-0.211,1.108-0.679
				C28.02,69.083,34.508,51.784,43,44l-3-3C40,41,30,48,23,61z"/>
		</g>
		<g>
			<path style="fill:#099686;" d="M27,47c5.333-3.333,9.333-4,12-2c1.543,0.599,3.245,3.862,5,8c1.034-2.464,1.639-5.15,0-9
				c4.348-0.095,7.441,1.989,10,5c0.453-3.713-0.557-7.165-5-10c0.667-2.667,2.667-5.333,6-8c-2.975-0.174-6.038,0.024-10,4
				c-0.667-3.333-2.667-5.333-6-6c1,2,1,4,0,5c-6.487-3.795-11-3-16-1c4.198,0.31,8.104,1.546,11,6C31,40,27,44,27,47z"/>
		</g>
		<g>
			<path style="fill:#84462D;" d="M87,61v17.223c0,0.492-0.358,0.911-0.844,0.988c-0.486,0.077-0.956-0.211-1.108-0.679
				C81.98,69.083,75.492,51.784,67,44l3-3C70,41,80,48,87,61z"/>
		</g>
		<g>
			<path style="fill:#099686;" d="M83,47c-5.333-3.333-9.333-4-12-2c-1.543,0.599-3.245,3.862-5,8c-1.034-2.464-1.639-5.15,0-9
				c-4.348-0.095-7.441,1.989-10,5c-0.453-3.713,0.557-7.165,5-10c-0.667-2.667-2.667-5.333-6-8c2.975-0.174,6.038,0.024,10,4
				c0.667-3.333,2.667-5.333,6-6c-1,2-1,4,0,5c6.487-3.795,11-3,16-1c-4.198,0.31-8.104,1.546-11,6C79,40,83,44,83,47z"/>
		</g>
		<g>
			<g>
				<path style="fill:#F8E1C2;" d="M55,75c-10.088,0-19.92-6.594-29.235-19.602c-0.156-0.217-0.218-0.487-0.173-0.751
					s0.193-0.498,0.412-0.651c0.45-0.315,1.067-0.209,1.387,0.237C36.308,66.688,45.594,73,55,73s18.692-6.313,27.609-18.766
					c0.319-0.446,0.937-0.551,1.386-0.237c0.219,0.153,0.368,0.388,0.413,0.651c0.045,0.263-0.017,0.534-0.173,0.751
					C74.92,68.407,65.088,75,55,75z"/>
			</g>
		</g>
		<g>
			<path style="fill:#12B2A0;" d="M39,29c1,2,1,4,0,5c-6.487-3.795-11-3-16-1c4.198,0.31,8.104,1.546,11,6c-3,1-7,5-7,8
				c2.807-1.754,5.241-2.762,7.309-3.039L44.62,33.649C43.721,31.125,41.853,29.57,39,29z"/>
		</g>
	</g>
</g>
</svg>
