<?xml version="1.0" encoding="iso-8859-1"?>
<!-- Generator: Adobe Illustrator 17.1.0, SVG Export Plug-In . SVG Version: 6.00 Build 0)  -->
<!DOCTYPE svg PUBLIC "-//W3C//DTD SVG 1.0//EN" "http://www.w3.org/TR/2001/REC-SVG-20010904/DTD/svg10.dtd">
<svg version="1.0" xmlns="http://www.w3.org/2000/svg" xmlns:xlink="http://www.w3.org/1999/xlink" x="0px" y="0px" width="110px"
	 height="110px" viewBox="0 0 110 110" style="enable-background:new 0 0 110 110;" xml:space="preserve">
<g id="Artboard">
</g>
<g id="Multicolor">
	<circle style="fill:#32BEA6;" cx="55" cy="55" r="55"/>
	<g>
		<path style="fill:#E2E4E5;" d="M81.625,79.258l-6.138-6.752c-0.707,0.707-1.454,1.374-2.231,2.005l6.149,6.764
			C79.854,80.343,80.646,79.618,81.625,79.258z"/>
		<path style="fill:#E2E4E5;" d="M30.585,81.258l6.108-6.787c-0.776-0.633-1.519-1.303-2.225-2.012l-6.113,6.792
			C29.337,79.607,30.133,80.329,30.585,81.258z"/>
		<g>
			<path style="fill:#F0F1F1;" d="M54.997,83.007c-17.095,0-31.003-13.909-31.003-31.003S37.901,21,54.997,21S86,34.909,86,52.003
				S72.092,83.007,54.997,83.007z M54.997,27.415c-13.558,0-24.589,11.03-24.589,24.589s11.031,24.589,24.589,24.589
				s24.589-11.03,24.589-24.589S68.555,27.415,54.997,27.415z"/>
		</g>
		<path style="fill:#FFFFFF;" d="M30.408,52.003c0-13.559,11.031-24.589,24.589-24.589c6.733,0,12.842,2.722,17.287,7.122
			l4.534-4.534C71.21,24.442,63.499,21,54.997,21c-17.095,0-31.003,13.908-31.003,31.003c0,8.502,3.442,16.213,9.003,21.82
			l4.533-4.533C33.13,64.845,30.408,58.737,30.408,52.003z"/>
		<g>
			<path style="fill:#E2E4E5;" d="M67.349,32.611c-0.561-0.358-1.138-0.694-1.73-1.003L55,50L44.381,31.608
				c-0.593,0.31-1.169,0.645-1.73,1.003L53.268,51H32.025C32.011,51.332,32,51.665,32,52s0.011,0.668,0.025,1h21.242L42.651,71.389
				c0.561,0.358,1.138,0.694,1.73,1.003L55,54l10.619,18.392c0.593-0.31,1.169-0.645,1.73-1.003L56.732,53h21.242
				C77.989,52.668,78,52.335,78,52s-0.011-0.668-0.025-1H56.732L67.349,32.611z"/>
		</g>
		<g>
			<path style="fill:#3E3E3F;" d="M55,29c12.682,0,23,10.317,23,23S67.682,75,55,75S32,64.683,32,52S42.318,29,55,29 M55,26
				c-14.336,0-26,11.664-26,26s11.664,26,26,26s26-11.664,26-26S69.336,26,55,26L55,26z"/>
		</g>
		<path style="fill:#9C6144;" d="M71.128,53.861C73.477,51.512,77.523,47.523,74,44c-1.616-1.616-3-1-6.573-0.729L63,43
			c-1,1,0,3,0,3s-8.313,7.861-10.662,10.21c-1.408,1.408-2.203,2.758-2.588,4.009c-3.784-0.852-4.707,1.075-2.75,2.053
			c0.948,0.474,1.89,0.945,2.625,1.312c0.615,2.664,2.714,4.369,2.714,4.369S53.512,75,54.687,75s2.349-4.698,2.349-8.221
			c7.046-2.349,10.569-7.046,10.569-7.046S77,58.559,77,57.384S73.477,55.036,71.128,53.861z"/>
		<path style="fill:#692E19;" d="M72.125,45.563c0-1.039-0.453-1.966-1.162-2.617c-0.912,0.042-2.021,0.21-3.536,0.325l-1.496-0.091
			C65.358,43.811,65,44.642,65,45.563c0,1.968,1.595,3.562,3.562,3.562S72.125,47.53,72.125,45.563z"/>
		<circle style="fill:#F4D0A1;" cx="68.5" cy="46.5" r="1.5"/>
		<g>
			<circle style="fill:#FA5655;" cx="27" cy="83" r="4"/>
		</g>
		<g>
			<circle style="fill:#FA5655;" cx="83" cy="83" r="4"/>
		</g>
	</g>
</g>
</svg>
