<?xml version="1.0" encoding="iso-8859-1"?>
<!-- Generator: Adobe Illustrator 17.1.0, SVG Export Plug-In . SVG Version: 6.00 Build 0)  -->
<!DOCTYPE svg PUBLIC "-//W3C//DTD SVG 1.0//EN" "http://www.w3.org/TR/2001/REC-SVG-20010904/DTD/svg10.dtd">
<svg version="1.0" xmlns="http://www.w3.org/2000/svg" xmlns:xlink="http://www.w3.org/1999/xlink" x="0px" y="0px" width="110px"
	 height="110px" viewBox="0 0 110 110" style="enable-background:new 0 0 110 110;" xml:space="preserve">
<g id="Artboard">
</g>
<g id="Multicolor">
	<circle style="fill:#25B7D3;" cx="55" cy="55" r="55"/>
	<g>
		<g>
			<path style="fill:#CFD3D4;" d="M35,52v-4c0-1.104,0.895-2,2-2c1.105,0,2,0.896,2,2v4h2v-4c0-1.862-1.278-3.413-3-3.858v-1.644
				c1.397,0.322,2.918-0.101,3.922-1.26l3.93-4.534c1.184-1.366,1.261-3.297,0.341-4.75l2.025-0.708C48.743,32.841,50.228,34,52,34
				h6c1.772,0,3.257-1.159,3.783-2.755l2.025,0.708c-0.919,1.453-0.843,3.384,0.341,4.75l3.93,4.534
				c1.004,1.159,2.525,1.582,3.922,1.26v1.644c-1.722,0.446-3,1.997-3,3.858v4h2v-4c0-1.104,0.895-2,2-2c1.105,0,2,0.896,2,2v4h2v-4
				c0-1.862-1.278-3.413-3-3.858v-2.797c1.389-1.476,1.48-3.782,0.124-5.347l-3.93-4.534c-1.181-1.362-3.075-1.714-4.641-1.018
				l-3.641-1.275C61.53,27.36,59.925,26,58,26h-6c-1.925,0-3.53,1.36-3.912,3.171l-3.641,1.275c-1.566-0.696-3.46-0.344-4.641,1.018
				l-3.93,4.534c-1.356,1.565-1.265,3.871,0.124,5.347v2.797c-1.722,0.446-3,1.997-3,3.858v4H35z M65.861,32.572
				c0.835-0.723,2.098-0.633,2.821,0.202l3.93,4.534c0.723,0.834,0.633,2.098-0.201,2.821c-0.835,0.723-2.098,0.633-2.821-0.202
				l-3.93-4.534C64.936,34.559,65.027,33.296,65.861,32.572z M52,28h6c1.105,0,2,0.896,2,2s-0.895,2-2,2h-6c-1.105,0-2-0.896-2-2
				S50.895,28,52,28z M37.388,37.308l3.93-4.534c0.723-0.834,1.987-0.925,2.821-0.202c0.835,0.724,0.925,1.987,0.201,2.821
				l-3.93,4.534c-0.723,0.835-1.987,0.925-2.821,0.202C36.755,39.406,36.664,38.143,37.388,37.308z"/>
		</g>
		<g>
			<path style="fill:#CFD3D4;" d="M43,59.365V54c0-1.104-0.895-2-2-2h-8c-1.105,0-2,0.896-2,2v5.365c-4.726,2.249-8,7.053-8,12.635
				c0,7.732,6.268,14,14,14s14-6.268,14-14C51,66.418,47.726,61.614,43,59.365z M37,80c-4.418,0-8-3.582-8-8s3.582-8,8-8
				s8,3.582,8,8S41.418,80,37,80z"/>
		</g>
		<g>
			<path style="fill:#CFD3D4;" d="M79,59.365V54c0-1.104-0.895-2-2-2h-8c-1.105,0-2,0.896-2,2v5.365c-4.726,2.249-8,7.053-8,12.635
				c0,7.732,6.268,14,14,14s14-6.268,14-14C87,66.418,83.726,61.614,79,59.365z M73,80c-4.418,0-8-3.582-8-8s3.582-8,8-8
				s8,3.582,8,8S77.418,80,73,80z"/>
		</g>
		<path style="fill:#F0F1F1;" d="M58,26h-6c-1.925,0-3.53,1.36-3.912,3.171l-3.642,1.275c-1.566-0.696-3.46-0.344-4.641,1.018
			l-3.93,4.534c-1.356,1.565-1.265,3.871,0.124,5.347v2.797c-1.722,0.446-3,1.997-3,3.858v4c-1.104,0-2,0.896-2,2v5.365
			c-4.726,2.249-8,7.053-8,12.635c0,3.851,1.556,7.337,4.072,9.869l4.243-4.243C29.885,76.181,29,74.194,29,72c0-4.418,3.582-8,8-8
			c2.194,0,4.181,0.885,5.626,2.315l4.233-4.232c-1.119-1.108-2.42-2.033-3.859-2.717V54c0-1.104-0.896-2-2-2h-6v-4
			c0-1.104,0.896-2,2-2c1.086,0,1.966,0.867,1.995,1.946l1.622-1.621c-0.5-1.068-1.451-1.882-2.616-2.184v-1.644
			c1.396,0.322,2.918-0.101,3.922-1.26l3.93-4.534c1.184-1.366,1.261-3.297,0.341-4.75l2.024-0.708C48.743,32.841,50.229,34,52,34
			h0.941l2-2H52c-1.104,0-2-0.896-2-2s0.896-2,2-2h6c0.277,0,0.542,0.057,0.782,0.159l1.457-1.457C59.599,26.266,58.833,26,58,26z
			 M44.34,35.394l-3.93,4.534c-0.724,0.835-1.987,0.925-2.821,0.202c-0.834-0.724-0.925-1.987-0.202-2.821l3.93-4.534
			c0.724-0.834,1.987-0.925,2.821-0.202C44.974,33.296,45.063,34.559,44.34,35.394z"/>
		<g>
			<path style="fill:#F0F1F1;" d="M79,59.365V54c0-1.104-0.895-2-2-2h-8c-1.105,0-2,0.896-2,2v5.365c-4.726,2.249-8,7.053-8,12.635
				c0,3.851,1.556,7.337,4.073,9.869l4.243-4.243C65.885,76.181,65,74.194,65,72c0-4.418,3.582-8,8-8
				c2.194,0,4.181,0.885,5.626,2.315l4.233-4.232C81.74,60.974,80.439,60.05,79,59.365z"/>
		</g>
	</g>
</g>
</svg>
