<?xml version="1.0" encoding="iso-8859-1"?>
<!-- Generator: Adobe Illustrator 17.1.0, SVG Export Plug-In . SVG Version: 6.00 Build 0)  -->
<!DOCTYPE svg PUBLIC "-//W3C//DTD SVG 1.0//EN" "http://www.w3.org/TR/2001/REC-SVG-20010904/DTD/svg10.dtd">
<svg version="1.0" xmlns="http://www.w3.org/2000/svg" xmlns:xlink="http://www.w3.org/1999/xlink" x="0px" y="0px" width="110px"
	 height="110px" viewBox="0 0 110 110" style="enable-background:new 0 0 110 110;" xml:space="preserve">
<g id="Artboard" style="display:none;">
	<rect x="-863" y="-455" style="display:inline;fill:#8C8C8C;" width="1412" height="743"/>
</g>
<g id="R-Multicolor">
	<circle style="fill:#25B7D3;" cx="55" cy="55" r="55"/>
	<g>
		<path style="fill:#F7B4B4;" d="M87,51v19.925C87,79.803,79.803,87,70.925,87H54.394c-5.804,0-11.156-3.128-14.005-8.185
			L36.2,71.38l-3.57-6.33l-0.3-0.54c-0.792-1.427-0.31-3.226,1.091-4.065l0.159-0.095c4.27-2.4,9.67-0.89,12.08,3.38L47,66.11V27.95
			c0-2.734,2.216-4.95,4.95-4.95h0.1c2.734,0,4.95,2.216,4.95,4.95V51c0,0,0-4,5-4s5,4,5,4s0-4,5-4s5,4,5,4s0-4,5-4S87,51,87,51z"/>
		<path style="fill:#FBC8C8;" d="M82,47c-5,0-5,4-5,4s0-4-5-4s-5,4-5,4s0-4-5-4s-5,4-5,4V27.95c0-2.734-2.216-4.95-4.95-4.95h-0.1
			C49.216,23,47,25.216,47,27.95v38.16l-1.34-2.38c-2.41-4.27-7.81-5.78-12.08-3.38l-0.159,0.095
			c-1.401,0.838-1.884,2.637-1.091,4.064l0.3,0.54l3.57,6.33l2.913,5.171L86.486,49.2C85.905,48.138,84.668,47,82,47z"/>
		<path style="fill:#FFFFFF;" d="M52.03,26h-0.06C50.33,26,49,27.33,49,28.97V34h6v-5.03C55,27.33,53.67,26,52.03,26z"/>
		<path style="fill:#FFFFFF;" d="M40.55,68.91l-4.35,2.47l-3.57-6.33c0.22-0.66,0.68-1.24,1.33-1.6l0.06-0.03
			c1.42-0.81,3.24-0.31,4.04,1.11L40.55,68.91z"/>
	</g>
</g>
<g id="Multicolor" style="display:none;">
	<g style="display:inline;">
		<path style="fill:#F7B4B4;" d="M87,51v19.925C87,79.803,79.803,87,70.925,87H54.394c-5.804,0-11.156-3.128-14.005-8.185
			L36.2,71.38l-3.57-6.33l-0.3-0.54c-0.792-1.427-0.31-3.226,1.091-4.065l0.159-0.095c4.27-2.4,9.67-0.89,12.08,3.38L47,66.11V27.95
			c0-2.734,2.216-4.95,4.95-4.95h0.1c2.734,0,4.95,2.216,4.95,4.95V51c0,0,0-4,5-4s5,4,5,4s0-4,5-4s5,4,5,4s0-4,5-4S87,51,87,51z"/>
		<path style="fill:#FBC8C8;" d="M82,47c-5,0-5,4-5,4s0-4-5-4s-5,4-5,4s0-4-5-4s-5,4-5,4V27.95c0-2.734-2.216-4.95-4.95-4.95h-0.1
			C49.216,23,47,25.216,47,27.95v38.16l-1.34-2.38c-2.41-4.27-7.81-5.78-12.08-3.38l-0.159,0.095
			c-1.401,0.838-1.884,2.637-1.091,4.064l0.3,0.54l3.57,6.33l2.913,5.171L86.486,49.2C85.905,48.138,84.668,47,82,47z"/>
		<path style="fill:#FFFFFF;" d="M52.03,26h-0.06C50.33,26,49,27.33,49,28.97V34h6v-5.03C55,27.33,53.67,26,52.03,26z"/>
		<path style="fill:#FFFFFF;" d="M40.55,68.91l-4.35,2.47l-3.57-6.33c0.22-0.66,0.68-1.24,1.33-1.6l0.06-0.03
			c1.42-0.81,3.24-0.31,4.04,1.11L40.55,68.91z"/>
	</g>
</g>
<g id="Blue" style="display:none;">
	<g style="display:inline;">
		<g>
			<path style="fill:#E1F5FA;" d="M87.003,51v19.925C87.003,79.803,79.806,87,70.928,87H54.397c-5.804,0-11.156-3.128-14.005-8.185
				l-4.189-7.436l-3.57-6.33l-0.3-0.54c-0.792-1.428-0.31-3.226,1.091-4.065l0.159-0.095c4.27-2.4,9.67-0.89,12.08,3.38l1.34,2.38
				V27.95c0-2.733,2.216-4.95,4.95-4.95h0.1c2.734,0,4.95,2.216,4.95,4.95V51c0,0,0-4,5-4s5,4,5,4s0-4,5-4s5,4,5,4s0-4,5-4
				S87.003,51,87.003,51z"/>
		</g>
		<g>
			<path style="fill:#FFFFFF;" d="M82.003,47c-5,0-5,4-5,4s0-4-5-4s-5,4-5,4s0-4-5-4s-5,4-5,4V27.95c0-2.734-2.216-4.95-4.95-4.95
				h-0.1c-2.733,0-4.95,2.216-4.95,4.95v38.16l-1.34-2.38c-2.41-4.27-7.81-5.78-12.08-3.38l-0.159,0.095
				c-1.401,0.838-1.884,2.637-1.091,4.064l0.3,0.54l3.57,6.33l2.913,5.171L86.489,49.2C85.908,48.138,84.671,47,82.003,47z"/>
		</g>
		<g>
			<path style="fill:#E1F5FA;" d="M52.033,26h-0.06c-1.641,0-2.97,1.33-2.97,2.97V34h6v-5.03C55.003,27.33,53.673,26,52.033,26z"/>
		</g>
		<g>
			<path style="fill:#E1F5FA;" d="M40.553,68.91l-4.35,2.47l-3.57-6.33c0.22-0.66,0.68-1.24,1.33-1.6l0.06-0.03
				c1.42-0.809,3.24-0.309,4.04,1.11L40.553,68.91z"/>
		</g>
	</g>
</g>
<g id="R-Blue" style="display:none;">
	<g style="display:inline;">
		<circle style="fill:#81D2EB;" cx="55" cy="55" r="55"/>
	</g>
	<g style="display:inline;">
		<g>
			<path style="fill:#E1F5FA;" d="M87,51v19.925C87,79.803,79.803,87,70.925,87H54.394c-5.804,0-11.156-3.128-14.005-8.185
				L36.2,71.38l-3.57-6.33l-0.3-0.54c-0.792-1.428-0.31-3.226,1.091-4.065l0.159-0.095c4.27-2.4,9.67-0.89,12.08,3.38L47,66.11
				V27.95c0-2.733,2.216-4.95,4.95-4.95h0.1c2.734,0,4.95,2.216,4.95,4.95V51c0,0,0-4,5-4s5,4,5,4s0-4,5-4s5,4,5,4s0-4,5-4
				S87,51,87,51z"/>
		</g>
		<g>
			<path style="fill:#FFFFFF;" d="M82,47c-5,0-5,4-5,4s0-4-5-4s-5,4-5,4s0-4-5-4s-5,4-5,4V27.95c0-2.734-2.216-4.95-4.95-4.95h-0.1
				C49.216,23,47,25.216,47,27.95v38.16l-1.34-2.38c-2.41-4.27-7.81-5.78-12.08-3.38l-0.159,0.095
				c-1.401,0.838-1.884,2.637-1.091,4.065l0.3,0.54l3.57,6.33l2.913,5.171L86.486,49.2C85.905,48.138,84.668,47,82,47z"/>
		</g>
		<g>
			<path style="fill:#E1F5FA;" d="M52.03,26h-0.06C50.33,26,49,27.33,49,28.97V34h6v-5.03C55,27.33,53.67,26,52.03,26z"/>
		</g>
		<g>
			<path style="fill:#E1F5FA;" d="M40.55,68.91l-4.35,2.47l-3.57-6.33c0.22-0.66,0.68-1.24,1.33-1.6l0.06-0.03
				c1.42-0.809,3.24-0.309,4.04,1.11L40.55,68.91z"/>
		</g>
	</g>
</g>
<g id="Green" style="display:none;">
	<g style="display:inline;">
		<g>
			<path style="fill:#D7FCF9;" d="M87.003,51v19.925C87.003,79.803,79.806,87,70.928,87H54.397c-5.804,0-11.156-3.128-14.005-8.185
				l-4.189-7.436l-3.57-6.33l-0.3-0.54c-0.792-1.428-0.31-3.226,1.091-4.065l0.159-0.095c4.27-2.4,9.67-0.89,12.08,3.38l1.34,2.38
				V27.95c0-2.733,2.216-4.95,4.95-4.95h0.1c2.734,0,4.95,2.216,4.95,4.95V51c0,0,0-4,5-4s5,4,5,4s0-4,5-4s5,4,5,4s0-4,5-4
				S87.003,51,87.003,51z"/>
		</g>
		<g>
			<path style="fill:#FFFFFF;" d="M82.003,47c-5,0-5,4-5,4s0-4-5-4s-5,4-5,4s0-4-5-4s-5,4-5,4V27.95c0-2.734-2.216-4.95-4.95-4.95
				h-0.1c-2.733,0-4.95,2.216-4.95,4.95v38.16l-1.34-2.38c-2.41-4.27-7.81-5.78-12.08-3.38l-0.159,0.095
				c-1.401,0.838-1.884,2.637-1.091,4.065l0.3,0.54l3.57,6.33l2.913,5.171L86.489,49.2C85.908,48.138,84.671,47,82.003,47z"/>
		</g>
		<g>
			<path style="fill:#D7FCF9;" d="M52.033,26h-0.06c-1.641,0-2.97,1.33-2.97,2.97V34h6v-5.03C55.003,27.33,53.673,26,52.033,26z"/>
		</g>
		<g>
			<path style="fill:#D7FCF9;" d="M40.553,68.91l-4.35,2.47l-3.57-6.33c0.22-0.66,0.68-1.24,1.33-1.6l0.06-0.03
				c1.42-0.809,3.24-0.309,4.04,1.11L40.553,68.91z"/>
		</g>
	</g>
</g>
<g id="R-Green" style="display:none;">
	<g style="display:inline;">
		<circle style="fill:#87E0C8;" cx="55" cy="55" r="55"/>
	</g>
	<g style="display:inline;">
		<g>
			<path style="fill:#D7FCF9;" d="M87,51v19.925C87,79.803,79.803,87,70.925,87H54.394c-5.804,0-11.156-3.128-14.005-8.185
				L36.2,71.38l-3.57-6.33l-0.3-0.54c-0.792-1.428-0.31-3.226,1.091-4.065l0.159-0.095c4.27-2.4,9.67-0.89,12.08,3.38L47,66.11
				V27.95c0-2.733,2.216-4.95,4.95-4.95h0.1c2.734,0,4.95,2.216,4.95,4.95V51c0,0,0-4,5-4s5,4,5,4s0-4,5-4s5,4,5,4s0-4,5-4
				S87,51,87,51z"/>
		</g>
		<g>
			<path style="fill:#FFFFFF;" d="M82,47c-5,0-5,4-5,4s0-4-5-4s-5,4-5,4s0-4-5-4s-5,4-5,4V27.95c0-2.734-2.216-4.95-4.95-4.95h-0.1
				C49.216,23,47,25.216,47,27.95v38.16l-1.34-2.38c-2.41-4.27-7.81-5.78-12.08-3.38l-0.159,0.095
				c-1.401,0.838-1.884,2.637-1.091,4.065l0.3,0.54l3.57,6.33l2.913,5.171L86.486,49.2C85.905,48.138,84.668,47,82,47z"/>
		</g>
		<g>
			<path style="fill:#D7FCF9;" d="M52.03,26h-0.06C50.33,26,49,27.33,49,28.97V34h6v-5.03C55,27.33,53.67,26,52.03,26z"/>
		</g>
		<g>
			<path style="fill:#D7FCF9;" d="M40.55,68.91l-4.35,2.47l-3.57-6.33c0.22-0.66,0.68-1.24,1.33-1.6l0.06-0.03
				c1.42-0.809,3.24-0.309,4.04,1.11L40.55,68.91z"/>
		</g>
	</g>
</g>
<g id="Red" style="display:none;">
	<g style="display:inline;">
		<g>
			<path style="fill:#FFEFED;" d="M87,51v19.925C87,79.803,79.803,87,70.925,87H54.394c-5.804,0-11.156-3.128-14.005-8.185
				L36.2,71.38l-3.57-6.33l-0.3-0.54c-0.792-1.428-0.31-3.226,1.091-4.065l0.159-0.095c4.27-2.4,9.67-0.89,12.08,3.38L47,66.11
				V27.95c0-2.733,2.216-4.95,4.95-4.95h0.1c2.734,0,4.95,2.216,4.95,4.95V51c0,0,0-4,5-4s5,4,5,4s0-4,5-4s5,4,5,4s0-4,5-4
				S87,51,87,51z"/>
		</g>
		<g>
			<path style="fill:#FFFFFF;" d="M82,47c-5,0-5,4-5,4s0-4-5-4s-5,4-5,4s0-4-5-4s-5,4-5,4V27.95c0-2.734-2.216-4.95-4.95-4.95h-0.1
				C49.216,23,47,25.216,47,27.95v38.16l-1.34-2.38c-2.41-4.27-7.81-5.78-12.08-3.38l-0.159,0.095
				c-1.401,0.838-1.884,2.637-1.091,4.064l0.3,0.54l3.57,6.33l2.913,5.171L86.486,49.2C85.905,48.138,84.668,47,82,47z"/>
		</g>
		<g>
			<path style="fill:#FFEFED;" d="M52.03,26h-0.06C50.33,26,49,27.33,49,28.97V34h6v-5.03C55,27.33,53.67,26,52.03,26z"/>
		</g>
		<g>
			<path style="fill:#FFEFED;" d="M40.55,68.91l-4.35,2.47l-3.57-6.33c0.22-0.66,0.68-1.24,1.33-1.6l0.06-0.03
				c1.42-0.809,3.24-0.309,4.04,1.11L40.55,68.91z"/>
		</g>
	</g>
</g>
<g id="R-Red" style="display:none;">
	<g style="display:inline;">
		<circle style="fill:#FABBAF;" cx="55" cy="55" r="55"/>
	</g>
	<g style="display:inline;">
		<g>
			<path style="fill:#FFEFED;" d="M87,51v19.925C87,79.803,79.803,87,70.925,87H54.394c-5.804,0-11.156-3.128-14.005-8.185
				L36.2,71.38l-3.57-6.33l-0.3-0.54c-0.792-1.428-0.31-3.226,1.091-4.065l0.159-0.095c4.27-2.4,9.67-0.89,12.08,3.38L47,66.11
				V27.95c0-2.733,2.216-4.95,4.95-4.95h0.1c2.734,0,4.95,2.216,4.95,4.95V51c0,0,0-4,5-4s5,4,5,4s0-4,5-4s5,4,5,4s0-4,5-4
				S87,51,87,51z"/>
		</g>
		<g>
			<path style="fill:#FFFFFF;" d="M82,47c-5,0-5,4-5,4s0-4-5-4s-5,4-5,4s0-4-5-4s-5,4-5,4V27.95c0-2.734-2.216-4.95-4.95-4.95h-0.1
				C49.216,23,47,25.216,47,27.95v38.16l-1.34-2.38c-2.41-4.27-7.81-5.78-12.08-3.38l-0.159,0.095
				c-1.401,0.838-1.884,2.637-1.091,4.065l0.3,0.54l3.57,6.33l2.913,5.171L86.486,49.2C85.905,48.138,84.668,47,82,47z"/>
		</g>
		<g>
			<path style="fill:#FFEFED;" d="M52.03,26h-0.06C50.33,26,49,27.33,49,28.97V34h6v-5.03C55,27.33,53.67,26,52.03,26z"/>
		</g>
		<g>
			<path style="fill:#FFEFED;" d="M40.55,68.91l-4.35,2.47l-3.57-6.33c0.22-0.66,0.68-1.24,1.33-1.6l0.06-0.03
				c1.42-0.809,3.24-0.309,4.04,1.11L40.55,68.91z"/>
		</g>
	</g>
</g>
<g id="Yellow" style="display:none;">
	<g style="display:inline;">
		<g>
			<path style="fill:#FFF5D9;" d="M87.003,51v19.925C87.003,79.803,79.806,87,70.928,87H54.397c-5.804,0-11.156-3.128-14.005-8.185
				l-4.189-7.436l-3.57-6.33l-0.3-0.54c-0.792-1.428-0.31-3.226,1.091-4.065l0.159-0.095c4.27-2.4,9.67-0.89,12.08,3.38l1.34,2.38
				V27.95c0-2.733,2.216-4.95,4.95-4.95h0.1c2.734,0,4.95,2.216,4.95,4.95V51c0,0,0-4,5-4s5,4,5,4s0-4,5-4s5,4,5,4s0-4,5-4
				S87.003,51,87.003,51z"/>
		</g>
		<g>
			<path style="fill:#FFFFFF;" d="M82.003,47c-5,0-5,4-5,4s0-4-5-4s-5,4-5,4s0-4-5-4s-5,4-5,4V27.95c0-2.734-2.216-4.95-4.95-4.95
				h-0.1c-2.733,0-4.95,2.216-4.95,4.95v38.16l-1.34-2.38c-2.41-4.27-7.81-5.78-12.08-3.38l-0.159,0.095
				c-1.401,0.838-1.884,2.637-1.091,4.064l0.3,0.54l3.57,6.33l2.913,5.171L86.489,49.2C85.908,48.138,84.671,47,82.003,47z"/>
		</g>
		<g>
			<path style="fill:#FFF5D9;" d="M52.033,26h-0.06c-1.641,0-2.97,1.33-2.97,2.97V34h6v-5.03C55.003,27.33,53.673,26,52.033,26z"/>
		</g>
		<g>
			<path style="fill:#FFF5D9;" d="M40.553,68.91l-4.35,2.47l-3.57-6.33c0.22-0.66,0.68-1.24,1.33-1.6l0.06-0.03
				c1.42-0.809,3.24-0.309,4.04,1.11L40.553,68.91z"/>
		</g>
	</g>
</g>
<g id="R-Yellow" style="display:none;">
	<g style="display:inline;">
		<circle style="fill:#FFD75E;" cx="55" cy="55" r="55"/>
	</g>
	<g style="display:inline;">
		<g>
			<path style="fill:#FFF5D9;" d="M87,51v19.925C87,79.803,79.803,87,70.925,87H54.394c-5.804,0-11.156-3.128-14.005-8.185
				L36.2,71.38l-3.57-6.33l-0.3-0.54c-0.793-1.428-0.31-3.226,1.091-4.065l0.159-0.095c4.27-2.4,9.67-0.89,12.08,3.38L47,66.11
				V27.95c0-2.733,2.216-4.95,4.95-4.95h0.1c2.734,0,4.95,2.216,4.95,4.95V51c0,0,0-4,5-4s5,4,5,4s0-4,5-4s5,4,5,4s0-4,5-4
				S87,51,87,51z"/>
		</g>
		<g>
			<path style="fill:#FFFFFF;" d="M82,47c-5,0-5,4-5,4s0-4-5-4s-5,4-5,4s0-4-5-4s-5,4-5,4V27.95c0-2.734-2.216-4.95-4.95-4.95h-0.1
				C49.216,23,47,25.216,47,27.95v38.16l-1.34-2.38c-2.41-4.27-7.81-5.78-12.08-3.38l-0.159,0.095
				c-1.401,0.838-1.884,2.637-1.091,4.065l0.3,0.54l3.57,6.33l2.913,5.171L86.486,49.2C85.905,48.138,84.668,47,82,47z"/>
		</g>
		<g>
			<path style="fill:#FFF5D9;" d="M52.03,26h-0.06C50.33,26,49,27.33,49,28.97V34h6v-5.03C55,27.33,53.67,26,52.03,26z"/>
		</g>
		<g>
			<path style="fill:#FFF5D9;" d="M40.55,68.91l-4.35,2.47l-3.57-6.33c0.22-0.66,0.68-1.24,1.33-1.6l0.06-0.03
				c1.42-0.809,3.24-0.309,4.04,1.11L40.55,68.91z"/>
		</g>
	</g>
</g>
</svg>
