<?xml version="1.0" encoding="iso-8859-1"?>
<!-- Generator: Adobe Illustrator 17.1.0, SVG Export Plug-In . SVG Version: 6.00 Build 0)  -->
<!DOCTYPE svg PUBLIC "-//W3C//DTD SVG 1.0//EN" "http://www.w3.org/TR/2001/REC-SVG-20010904/DTD/svg10.dtd">
<svg version="1.0" xmlns="http://www.w3.org/2000/svg" xmlns:xlink="http://www.w3.org/1999/xlink" x="0px" y="0px" width="110px"
	 height="110px" viewBox="0 0 110 110" style="enable-background:new 0 0 110 110;" xml:space="preserve">
<g id="Artboard">
</g>
<g id="Multicolor">
	<circle style="fill:#32BEA6;" cx="55" cy="55" r="55"/>
	<g>
		<g>
			<path style="fill:#E2E4E5;" d="M73.51,56.524l-7.249-23.657l-0.017,0.005c-0.983-5.639-5.889-9.93-11.809-9.93
				s-10.827,4.291-11.809,9.93l-0.017-0.005l-7.249,23.657l3.824,1.172l5.045-16.465c2.114,3.423,5.888,5.711,10.206,5.711
				s8.093-2.289,10.206-5.711l5.045,16.465L73.51,56.524z M54.434,42.943c-4.418,0-8-3.582-8-8s3.582-8,8-8s8,3.582,8,8
				S58.852,42.943,54.434,42.943z"/>
		</g>
		<g>
			<path style="fill:#FFFFFF;" d="M65.941,31.602c-1.448-4.999-6.042-8.66-11.507-8.66c-5.92,0-10.827,4.291-11.809,9.93
				l-0.017-0.005l-7.249,23.657l3.824,1.172l5.045-16.465c1.544,2.5,3.98,4.384,6.861,5.224l3.521-3.521
				c-0.059,0.001-0.116,0.009-0.176,0.009c-4.418,0-8-3.582-8-8s3.582-8,8-8s8,3.582,8,8c0,0.059-0.008,0.117-0.009,0.176
				L65.941,31.602z"/>
		</g>
		<g>
			<path style="fill:#3E3E3F;" d="M43.682,52.906l-9.583-2.858c-1.058-0.316-2.172,0.286-2.488,1.345l-8.575,28.749
				c-0.631,2.117,0.573,4.345,2.69,4.977l5.75,1.715c2.117,0.631,4.345-0.573,4.976-2.69l8.575-28.749
				C45.343,54.336,44.741,53.222,43.682,52.906z"/>
		</g>
		<g>
			<path style="fill:#5B5C5F;" d="M43.648,52.896l-9.549-2.848c-1.058-0.316-2.172,0.286-2.488,1.345l-5.756,19.296L43.648,52.896z"
				/>
		</g>
		<g>
			<path style="fill:#3E3E3F;" d="M85.832,80.141l-8.575-28.749c-0.316-1.058-1.43-1.66-2.488-1.345l-9.583,2.858
				c-1.058,0.316-1.661,1.43-1.345,2.488l8.575,28.749c0.631,2.117,2.859,3.321,4.976,2.69l5.75-1.715
				C85.259,84.486,86.464,82.258,85.832,80.141z"/>
		</g>
		<g>
			
				<rect x="65.997" y="63.899" transform="matrix(-0.2858 -0.9583 0.9583 -0.2858 35.225 162.0499)" style="fill:#F0F1F1;" width="24" height="8"/>
		</g>
		<g>
			
				<rect x="18.871" y="63.868" transform="matrix(0.2858 -0.9583 0.9583 0.2858 -42.9897 78.0522)" style="fill:#F0F1F1;" width="24" height="8"/>
		</g>
		<g>
			<polygon style="fill:#FFFFFF;" points="37.752,58.791 38.134,57.512 30.468,55.225 25.855,70.688 			"/>
		</g>
	</g>
</g>
</svg>
