<?xml version="1.0" encoding="iso-8859-1"?>
<!-- Generator: Adobe Illustrator 17.1.0, SVG Export Plug-In . SVG Version: 6.00 Build 0)  -->
<!DOCTYPE svg PUBLIC "-//W3C//DTD SVG 1.0//EN" "http://www.w3.org/TR/2001/REC-SVG-20010904/DTD/svg10.dtd">
<svg version="1.0" xmlns="http://www.w3.org/2000/svg" xmlns:xlink="http://www.w3.org/1999/xlink" x="0px" y="0px" width="110px"
	 height="110px" viewBox="0 0 110 110" style="enable-background:new 0 0 110 110;" xml:space="preserve">
<g id="Artboard">
</g>
<g id="Multicolor">
	<g>
		<circle style="fill:#FABC3D;" cx="55" cy="55" r="55"/>
	</g>
	<g>
		<path style="fill:#FBC8C8;" d="M70,44.997c-1,0-1,1.111-1,1.111v-1.111c-0.004-2.081-0.063-3.998-0.309-5.721
			c-2.723-0.766-7.67-1.872-13.664-1.919c0,0,0-0.001,0-0.001c-0.009,0-0.018,0-0.027,0s-0.018,0-0.027,0c0,0,0,0.001,0,0.001
			c-5.993,0.047-10.94,1.153-13.664,1.919c-0.246,1.723-0.305,3.641-0.309,5.721v7.997l4,10l5.105,3.996
			c0.569,0.639,1.384,1.004,2.24,1.004H55h2.655c0.856,0,1.671-0.365,2.24-1.004L65,62.994l3.207-8.017
			C71.042,54.773,72,50.473,72,47.219C72,46.108,71,44.997,70,44.997z"/>
		<path style="fill:#FBD7D7;" d="M54.973,37.357c-5.993,0.047-10.94,1.153-13.664,1.919c-0.246,1.723-0.305,3.641-0.309,5.721v1.111
			c0,0,0-1.111-1-1.111s-2,1.111-2,2.222c0,3.253,0.958,7.554,3.793,7.758L45,62.994l5.105,3.996
			c0.569,0.639,1.384,1.004,2.24,1.004H55V37.356c-0.009,0-0.018,0-0.027,0C54.973,37.356,54.973,37.356,54.973,37.357z"/>
		<path style="fill:#F7B4B4;" d="M57.655,67.994H55h-2.655c-0.856,0-1.671-0.365-2.24-1.004L45,62.994v4.5c0,0,0,7.5,10,7.5
			s10-7.5,10-7.5v-4.5l-5.105,3.996C59.326,67.629,58.511,67.994,57.655,67.994z"/>
		<path style="fill:#FBC8C8;" d="M50.105,66.99L45,62.994v4.5c0,0,0,7.5,10,7.5v-7h-2.655C51.489,67.994,50.674,67.629,50.105,66.99
			z"/>
		<g>
			<path style="fill:#F79392;" d="M50,56.994h10c0,0,0,3-5,3S50,56.994,50,56.994z"/>
		</g>
		<g>
			<path style="fill:#FFFFFF;" d="M55.002,86.997H87l-4-11c-0.615-1.333-1.698-2.394-3.043-2.982L67,67.997l-2-1
				c0,0-1,8.003-10,8.003s-10-8.003-10-8.003l-2,1l-12.957,5.018c-1.345,0.588-2.428,1.649-3.043,2.982l-4,11h31.998L55,87
				L55.002,86.997z"/>
		</g>
		<g>
			<path style="fill:#3E3E3F;" d="M51.994,47.033c0-1.104-0.896-2-2-2c-0.002,0-0.004,0-0.006,0
				c0.001,0.021,0.006,0.041,0.006,0.062c0,1.103-0.892,1.996-1.994,2c0.033,1.075,0.91,1.938,1.994,1.938
				C51.098,49.033,51.994,48.138,51.994,47.033z"/>
		</g>
		<g>
			<path style="fill:#3E3E3F;" d="M61.987,47.033c0-1.104-0.896-2-2-2c-0.002,0-0.004,0-0.006,0
				c0.001,0.021,0.006,0.041,0.006,0.062c0,1.103-0.892,1.996-1.994,2c0.033,1.075,0.91,1.938,1.994,1.938
				C61.092,49.033,61.987,48.138,61.987,47.033z"/>
		</g>
		<polygon style="fill:#0484AB;" points="75,80.997 75,71 70,69 70,76.997 40,76.997 40,69 35,71 35,80.997 33,87 77,87 		"/>
		<g>
			<rect x="43" y="81" style="fill:#21B2D1;" width="24" height="2.997"/>
		</g>
		<g>
			<g>
				<path style="fill:#84462D;" d="M57,60.917h-2h-2c1.688,5.065-3,6-3,6s1.563,2,5,2s5-2,5-2S55.312,65.982,57,60.917z"/>
			</g>
		</g>
		<path style="fill:#0484AB;" d="M69,29l-14-5l-14,5l-2,11l0.033-0.002c-0.092,0.027,6.698-2.568,15.939-2.641c0,0,0-0.001,0-0.001
			c0.009,0,0.018,0,0.027,0s0.018,0,0.027,0c0,0,0,0.001,0,0.001c9.241,0.073,16.031,2.668,15.939,2.641L71,40L69,29z"/>
		<path style="fill:#059BBF;" d="M54.973,37.357c0,0,0-0.001,0-0.001c0.009,0,0.018,0,0.027,0V24l-14,5l-2,11l0.033-0.002
			C38.941,40.025,45.731,37.43,54.973,37.357z"/>
		<path style="fill:#84462D;" d="M66.606,45.435C67.427,49.818,67,55.093,67,55.997c1,0,1,0,1,0c1-2,1-2,1-2
			c0-0.899,0.635-7.254,0.893-10.887C69.334,44.813,68.55,46.243,66.606,45.435z"/>
		<path style="fill:#84462D;" d="M43.394,45.435c-1.944,0.809-2.729-0.622-3.287-2.324C40.365,46.743,41,53.098,41,53.997
			c0,0,0,0,1,2c0,0,0,0,1,0C43,55.093,42.573,49.818,43.394,45.435z"/>
		<path style="fill:#6FDAF1;" d="M55.027,37.357c0,0,0-0.001,0-0.001c-0.009,0-0.018,0-0.027,0s-0.018,0-0.027,0
			c0,0,0,0.001,0,0.001C45.665,37.431,38.835,40.066,39.028,40c1.143,2,1.143,7,4.571,5.355c1.415-0.679,5.701-2.992,11.401-3
			c5.7,0.007,9.986,2.32,11.401,3C69.83,47,69.83,42,70.972,40C71.165,40.066,64.335,37.431,55.027,37.357z"/>
		<g>
			<ellipse style="fill:#FACB1B;" cx="55" cy="32" rx="5" ry="2"/>
		</g>
	</g>
</g>
</svg>
