<?xml version="1.0" encoding="iso-8859-1"?>
<!-- Generator: Adobe Illustrator 17.1.0, SVG Export Plug-In . SVG Version: 6.00 Build 0)  -->
<!DOCTYPE svg PUBLIC "-//W3C//DTD SVG 1.0//EN" "http://www.w3.org/TR/2001/REC-SVG-20010904/DTD/svg10.dtd">
<svg version="1.0" xmlns="http://www.w3.org/2000/svg" xmlns:xlink="http://www.w3.org/1999/xlink" x="0px" y="0px" width="110px"
	 height="110px" viewBox="0 0 110 110" style="enable-background:new 0 0 110 110;" xml:space="preserve">
<g id="Artboard">
</g>
<g id="Multicolor">
	<circle style="fill:#25B7D3;" cx="55" cy="55" r="55"/>
	<g>
		<path style="fill:#E2E4E5;" d="M55,81c0,3.314-2.686,6-6,6H29c-3.314,0-6-2.686-6-6V33c0-3.314,2.686-6,6-6h20
			c3.314,0,6,2.686,6,6V81z"/>
		<path style="fill:#FFFFFF;" d="M49,79c0,2.209,0,8-4,8H33c-4,0-4-5.791-4-8V36c0-2.209,0-9,4-9h12c4,0,4,5.791,4,8V79z"/>
		<rect x="55" y="47" style="fill:#CFD3D4;" width="4" height="8"/>
		<path style="fill:#F0F1F1;" d="M87,57c0,2.209-1.791,4-4,4H59V41h24c2.209,0,4,1.791,4,4V57z"/>
		<circle style="fill:#3E3E3F;" cx="39" cy="43" r="15"/>
		<circle style="fill:#21B2D1;" cx="39" cy="43" r="11.667"/>
		<circle style="fill:#DF2C2C;" cx="44.5" cy="65.938" r="2.062"/>
		<path style="fill:#CFD3D4;" d="M47,79c0,2.209-1.791,4-4,4h-8c-2.209,0-4-1.791-4-4H47z"/>
		<circle style="fill:#818284;" cx="35" cy="81" r="1"/>
		<circle style="fill:#818284;" cx="39" cy="81" r="1"/>
		<circle style="fill:#818284;" cx="43" cy="81" r="1"/>
		<polygon style="fill:#FFFFFF;" points="59,41 59,61 59.246,61 79.246,41 		"/>
		<path style="fill:#40C9E7;" d="M39,31.333c-6.443,0-11.667,5.223-11.667,11.667c0,3.193,1.285,6.083,3.363,8.19L47.19,34.696
			C45.083,32.618,42.193,31.333,39,31.333z"/>
	</g>
</g>
</svg>
