<?xml version="1.0" encoding="iso-8859-1"?>
<!-- Generator: Adobe Illustrator 17.1.0, SVG Export Plug-In . SVG Version: 6.00 Build 0)  -->
<!DOCTYPE svg PUBLIC "-//W3C//DTD SVG 1.0//EN" "http://www.w3.org/TR/2001/REC-SVG-20010904/DTD/svg10.dtd">
<svg version="1.0" xmlns="http://www.w3.org/2000/svg" xmlns:xlink="http://www.w3.org/1999/xlink" x="0px" y="0px" width="110px"
	 height="110px" viewBox="0 0 110 110" style="enable-background:new 0 0 110 110;" xml:space="preserve">
<g id="Artboard" style="display:none;">
	<rect x="-735" y="-455" style="display:inline;fill:#8C8C8C;" width="1412" height="743"/>
</g>
<g id="R-Multicolor">
	<circle style="fill:#E04F5F;" cx="55" cy="55" r="55"/>
	<g>
		<path style="fill:#F7B4B4;" d="M29,38.96v30.52C29,79.156,36.844,87,46.52,87h9.49c6.72,0,12.85-3.85,15.77-9.9l0.05-0.1
			l9.51-16.701l2.64-4.61c0.1-0.24,0.18-0.48,0.24-0.73c0.4-1.8-0.52-3.67-2.27-4.44l-0.09-0.04c-3.03-1.32-5.55,0.21-7.86,3.09
			l-7,9.471V34.96c0-2.187-1.773-3.96-3.96-3.96h-0.08C60.773,31,59,32.773,59,34.96v19.05c0,0.547-0.443,0.99-0.99,0.99h-0.02
			C57.443,55,57,54.557,57,54.01V26.96c0-2.187-1.773-3.96-3.96-3.96h-0.08C50.773,23,49,24.773,49,26.96v27.05
			c0,0.547-0.443,0.99-0.99,0.99h-0.02C47.443,55,47,54.557,47,54.01V32.96c0-2.187-1.773-3.96-3.96-3.96h-0.08
			C40.773,29,39,30.773,39,32.96v21.05c0,0.547-0.443,0.99-0.99,0.99h-0.02C37.443,55,37,54.557,37,54.01V38.96
			c0-2.187-1.773-3.96-3.96-3.96h-0.08C30.773,35,29,36.773,29,38.96z"/>
		<g>
			<path style="fill:#FBC8C8;" d="M67,34.96c0-2.187-1.773-3.96-3.96-3.96h-0.08C60.773,31,59,32.773,59,34.96v19.05
				c0,0.547-0.443,0.99-0.99,0.99h-0.02C57.443,55,57,54.557,57,54.01V26.96c0-2.187-1.773-3.96-3.96-3.96h-0.08
				C50.773,23,49,24.773,49,26.96v27.05c0,0.547-0.443,0.99-0.99,0.99h-0.02C47.443,55,47,54.557,47,54.01V32.96
				c0-2.187-1.773-3.96-3.96-3.96h-0.08C40.773,29,39,30.773,39,32.96v21.05c0,0.547-0.443,0.99-0.99,0.99h-0.02
				C37.443,55,37,54.557,37,54.01V38.96c0-2.187-1.773-3.96-3.96-3.96h-0.08C30.773,35,29,36.773,29,38.96v30.52
				c0,2.978,0.748,5.78,2.059,8.235L67,56.964V34.96z"/>
		</g>
	</g>
</g>
<g id="Multicolor" style="display:none;">
	<g style="display:inline;">
		<path style="fill:#F7B4B4;" d="M29,38.96v30.52C29,79.156,36.844,87,46.52,87h9.49c6.72,0,12.85-3.85,15.77-9.9l0.05-0.1
			l9.51-16.701l2.64-4.61c0.1-0.24,0.18-0.48,0.24-0.73c0.4-1.8-0.52-3.67-2.27-4.44l-0.09-0.04c-3.03-1.32-5.55,0.21-7.86,3.09
			l-7,9.471V34.96c0-2.187-1.773-3.96-3.96-3.96h-0.08C60.773,31,59,32.773,59,34.96v19.05c0,0.547-0.443,0.99-0.99,0.99h-0.02
			C57.443,55,57,54.557,57,54.01V26.96c0-2.187-1.773-3.96-3.96-3.96h-0.08C50.773,23,49,24.773,49,26.96v27.05
			c0,0.547-0.443,0.99-0.99,0.99h-0.02C47.443,55,47,54.557,47,54.01V32.96c0-2.187-1.773-3.96-3.96-3.96h-0.08
			C40.773,29,39,30.773,39,32.96v21.05c0,0.547-0.443,0.99-0.99,0.99h-0.02C37.443,55,37,54.557,37,54.01V38.96
			c0-2.187-1.773-3.96-3.96-3.96h-0.08C30.773,35,29,36.773,29,38.96z"/>
		<g>
			<path style="fill:#FBC8C8;" d="M67,34.96c0-2.187-1.773-3.96-3.96-3.96h-0.08C60.773,31,59,32.773,59,34.96v19.05
				c0,0.547-0.443,0.99-0.99,0.99h-0.02C57.443,55,57,54.557,57,54.01V26.96c0-2.187-1.773-3.96-3.96-3.96h-0.08
				C50.773,23,49,24.773,49,26.96v27.05c0,0.547-0.443,0.99-0.99,0.99h-0.02C47.443,55,47,54.557,47,54.01V32.96
				c0-2.187-1.773-3.96-3.96-3.96h-0.08C40.773,29,39,30.773,39,32.96v21.05c0,0.547-0.443,0.99-0.99,0.99h-0.02
				C37.443,55,37,54.557,37,54.01V38.96c0-2.187-1.773-3.96-3.96-3.96h-0.08C30.773,35,29,36.773,29,38.96v30.52
				c0,2.978,0.748,5.78,2.059,8.235L67,56.964V34.96z"/>
		</g>
	</g>
</g>
<g id="Blue" style="display:none;">
	<g style="display:inline;">
		<g>
			<path style="fill:#E1F5FA;" d="M29.003,38.96v30.52c0,9.676,7.844,17.52,17.52,17.52h9.49c6.72,0,12.85-3.85,15.77-9.9l0.05-0.1
				l9.51-16.701l2.64-4.61c0.1-0.24,0.18-0.48,0.24-0.73c0.4-1.8-0.52-3.67-2.27-4.44l-0.09-0.041c-3.03-1.32-5.55,0.21-7.86,3.09
				l-7,9.471V34.96c0-2.187-1.773-3.96-3.96-3.96h-0.08c-2.187,0-3.96,1.773-3.96,3.96v19.05c0,0.547-0.443,0.99-0.99,0.99h-0.02
				c-0.547,0-0.99-0.443-0.99-0.99V26.96c0-2.187-1.773-3.96-3.96-3.96h-0.08c-2.187,0-3.96,1.773-3.96,3.96v27.05
				c0,0.547-0.443,0.99-0.99,0.99h-0.02c-0.547,0-0.99-0.443-0.99-0.99V32.96c0-2.187-1.773-3.96-3.96-3.96h-0.08
				c-2.187,0-3.96,1.773-3.96,3.96v21.05c0,0.547-0.443,0.99-0.99,0.99h-0.02c-0.547,0-0.99-0.443-0.99-0.99V38.96
				c0-2.187-1.773-3.96-3.96-3.96h-0.08C30.776,35,29.003,36.773,29.003,38.96z"/>
		</g>
		<g>
			<g>
				<path style="fill:#FFFFFF;" d="M67.003,34.96c0-2.187-1.773-3.96-3.96-3.96h-0.08c-2.187,0-3.96,1.773-3.96,3.96v19.05
					c0,0.547-0.443,0.99-0.99,0.99h-0.02c-0.547,0-0.99-0.443-0.99-0.99V26.96c0-2.187-1.773-3.96-3.96-3.96h-0.08
					c-2.187,0-3.96,1.773-3.96,3.96v27.05c0,0.547-0.443,0.99-0.99,0.99h-0.02c-0.547,0-0.99-0.443-0.99-0.99V32.96
					c0-2.187-1.773-3.96-3.96-3.96h-0.08c-2.187,0-3.96,1.773-3.96,3.96v21.05c0,0.547-0.443,0.99-0.99,0.99h-0.02
					c-0.547,0-0.99-0.443-0.99-0.99V38.96c0-2.187-1.773-3.96-3.96-3.96h-0.08c-2.187,0-3.96,1.773-3.96,3.96v30.52
					c0,2.978,0.748,5.78,2.059,8.235l35.941-20.751V34.96z"/>
			</g>
		</g>
	</g>
</g>
<g id="R-Blue" style="display:none;">
	<g style="display:inline;">
		<circle style="fill:#81D2EB;" cx="55" cy="55" r="55"/>
	</g>
	<g style="display:inline;">
		<g>
			<path style="fill:#E1F5FA;" d="M29,38.96v30.52C29,79.156,36.844,87,46.52,87h9.49c6.72,0,12.85-3.85,15.77-9.9l0.05-0.1
				l9.51-16.701l2.64-4.61c0.1-0.24,0.18-0.48,0.24-0.73c0.4-1.8-0.52-3.67-2.27-4.44l-0.09-0.041c-3.03-1.32-5.55,0.21-7.86,3.09
				l-7,9.471V34.96c0-2.187-1.773-3.96-3.96-3.96h-0.08C60.773,31,59,32.773,59,34.96v19.05c0,0.547-0.443,0.99-0.99,0.99h-0.02
				C57.443,55,57,54.557,57,54.01V26.96c0-2.187-1.773-3.96-3.96-3.96h-0.08C50.773,23,49,24.773,49,26.96v27.05
				c0,0.547-0.443,0.99-0.99,0.99h-0.02C47.443,55,47,54.557,47,54.01V32.96c0-2.187-1.773-3.96-3.96-3.96h-0.08
				C40.773,29,39,30.773,39,32.96v21.05c0,0.547-0.443,0.99-0.99,0.99h-0.02C37.443,55,37,54.557,37,54.01V38.96
				c0-2.187-1.773-3.96-3.96-3.96h-0.08C30.773,35,29,36.773,29,38.96z"/>
		</g>
		<g>
			<g>
				<path style="fill:#FFFFFF;" d="M67,34.96c0-2.187-1.773-3.96-3.96-3.96h-0.08C60.773,31,59,32.773,59,34.96v19.05
					c0,0.547-0.443,0.99-0.99,0.99h-0.02C57.443,55,57,54.557,57,54.01V26.96c0-2.187-1.773-3.96-3.96-3.96h-0.08
					C50.773,23,49,24.773,49,26.96v27.05c0,0.547-0.443,0.99-0.99,0.99h-0.02C47.443,55,47,54.557,47,54.01V32.96
					c0-2.187-1.773-3.96-3.96-3.96h-0.08C40.773,29,39,30.773,39,32.96v21.05c0,0.547-0.443,0.99-0.99,0.99h-0.02
					C37.443,55,37,54.557,37,54.01V38.96c0-2.187-1.773-3.96-3.96-3.96h-0.08C30.773,35,29,36.773,29,38.96v30.52
					c0,2.977,0.748,5.78,2.059,8.235L67,56.964V34.96z"/>
			</g>
		</g>
	</g>
</g>
<g id="Green" style="display:none;">
	<g style="display:inline;">
		<g>
			<path style="fill:#D7FCF9;" d="M29.003,38.96v30.52c0,9.676,7.844,17.52,17.52,17.52h9.49c6.72,0,12.85-3.85,15.77-9.9l0.05-0.1
				l9.51-16.701l2.64-4.61c0.1-0.24,0.18-0.48,0.24-0.73c0.4-1.8-0.52-3.67-2.27-4.44l-0.09-0.041c-3.03-1.32-5.55,0.21-7.86,3.09
				l-7,9.471V34.96c0-2.187-1.773-3.96-3.96-3.96h-0.08c-2.187,0-3.96,1.773-3.96,3.96v19.05c0,0.547-0.443,0.99-0.99,0.99h-0.02
				c-0.547,0-0.99-0.443-0.99-0.99V26.96c0-2.187-1.773-3.96-3.96-3.96h-0.08c-2.187,0-3.96,1.773-3.96,3.96v27.05
				c0,0.547-0.443,0.99-0.99,0.99h-0.02c-0.547,0-0.99-0.443-0.99-0.99V32.96c0-2.187-1.773-3.96-3.96-3.96h-0.08
				c-2.187,0-3.96,1.773-3.96,3.96v21.05c0,0.547-0.443,0.99-0.99,0.99h-0.02c-0.547,0-0.99-0.443-0.99-0.99V38.96
				c0-2.187-1.773-3.96-3.96-3.96h-0.08C30.776,35,29.003,36.773,29.003,38.96z"/>
		</g>
		<g>
			<g>
				<path style="fill:#FFFFFF;" d="M67.003,34.96c0-2.187-1.773-3.96-3.96-3.96h-0.08c-2.187,0-3.96,1.773-3.96,3.96v19.05
					c0,0.547-0.443,0.99-0.99,0.99h-0.02c-0.547,0-0.99-0.443-0.99-0.99V26.96c0-2.187-1.773-3.96-3.96-3.96h-0.08
					c-2.187,0-3.96,1.773-3.96,3.96v27.05c0,0.547-0.443,0.99-0.99,0.99h-0.02c-0.547,0-0.99-0.443-0.99-0.99V32.96
					c0-2.187-1.773-3.96-3.96-3.96h-0.08c-2.187,0-3.96,1.773-3.96,3.96v21.05c0,0.547-0.443,0.99-0.99,0.99h-0.02
					c-0.547,0-0.99-0.443-0.99-0.99V38.96c0-2.187-1.773-3.96-3.96-3.96h-0.08c-2.187,0-3.96,1.773-3.96,3.96v30.52
					c0,2.977,0.748,5.78,2.059,8.235l35.941-20.751V34.96z"/>
			</g>
		</g>
	</g>
</g>
<g id="R-Green" style="display:none;">
	<g style="display:inline;">
		<circle style="fill:#87E0C8;" cx="55" cy="55" r="55"/>
	</g>
	<g style="display:inline;">
		<g>
			<path style="fill:#D7FCF9;" d="M29,38.96v30.52C29,79.156,36.844,87,46.52,87h9.49c6.72,0,12.85-3.85,15.77-9.9l0.05-0.1
				l9.51-16.701l2.64-4.61c0.1-0.24,0.18-0.48,0.24-0.73c0.4-1.8-0.52-3.67-2.27-4.44l-0.09-0.041c-3.03-1.32-5.55,0.21-7.86,3.09
				l-7,9.471V34.96c0-2.187-1.773-3.96-3.96-3.96h-0.08C60.773,31,59,32.773,59,34.96v19.05c0,0.547-0.443,0.99-0.99,0.99h-0.02
				C57.443,55,57,54.557,57,54.01V26.96c0-2.187-1.773-3.96-3.96-3.96h-0.08C50.773,23,49,24.773,49,26.96v27.05
				c0,0.547-0.443,0.99-0.99,0.99h-0.02C47.443,55,47,54.557,47,54.01V32.96c0-2.187-1.773-3.96-3.96-3.96h-0.08
				C40.773,29,39,30.773,39,32.96v21.05c0,0.547-0.443,0.99-0.99,0.99h-0.02C37.443,55,37,54.557,37,54.01V38.96
				c0-2.187-1.773-3.96-3.96-3.96h-0.08C30.773,35,29,36.773,29,38.96z"/>
		</g>
		<g>
			<g>
				<path style="fill:#FFFFFF;" d="M67,34.96c0-2.187-1.773-3.96-3.96-3.96h-0.08C60.773,31,59,32.773,59,34.96v19.05
					c0,0.547-0.443,0.99-0.99,0.99h-0.02C57.443,55,57,54.557,57,54.01V26.96c0-2.187-1.773-3.96-3.96-3.96h-0.08
					C50.773,23,49,24.773,49,26.96v27.05c0,0.547-0.443,0.99-0.99,0.99h-0.02C47.443,55,47,54.557,47,54.01V32.96
					c0-2.187-1.773-3.96-3.96-3.96h-0.08C40.773,29,39,30.773,39,32.96v21.05c0,0.547-0.443,0.99-0.99,0.99h-0.02
					C37.443,55,37,54.557,37,54.01V38.96c0-2.187-1.773-3.96-3.96-3.96h-0.08C30.773,35,29,36.773,29,38.96v30.52
					c0,2.977,0.748,5.78,2.059,8.235L67,56.964V34.96z"/>
			</g>
		</g>
	</g>
</g>
<g id="Red" style="display:none;">
	<g style="display:inline;">
		<g>
			<path style="fill:#FFEFED;" d="M29,38.96v30.52C29,79.156,36.844,87,46.52,87h9.49c6.72,0,12.85-3.85,15.77-9.9l0.05-0.1
				l9.51-16.701l2.64-4.61c0.1-0.24,0.18-0.48,0.24-0.73c0.4-1.8-0.52-3.67-2.27-4.44l-0.09-0.041c-3.03-1.32-5.55,0.21-7.86,3.09
				l-7,9.471V34.96c0-2.187-1.773-3.96-3.96-3.96h-0.08C60.773,31,59,32.773,59,34.96v19.05c0,0.547-0.443,0.99-0.99,0.99h-0.02
				C57.443,55,57,54.557,57,54.01V26.96c0-2.187-1.773-3.96-3.96-3.96h-0.08C50.773,23,49,24.773,49,26.96v27.05
				c0,0.547-0.443,0.99-0.99,0.99h-0.02C47.443,55,47,54.557,47,54.01V32.96c0-2.187-1.773-3.96-3.96-3.96h-0.08
				C40.773,29,39,30.773,39,32.96v21.05c0,0.547-0.443,0.99-0.99,0.99h-0.02C37.443,55,37,54.557,37,54.01V38.96
				c0-2.187-1.773-3.96-3.96-3.96h-0.08C30.773,35,29,36.773,29,38.96z"/>
		</g>
		<g>
			<g>
				<path style="fill:#FFFFFF;" d="M67,34.96c0-2.187-1.773-3.96-3.96-3.96h-0.08C60.773,31,59,32.773,59,34.96v19.05
					c0,0.547-0.443,0.99-0.99,0.99h-0.02C57.443,55,57,54.556,57,54.01V26.96c0-2.187-1.773-3.96-3.96-3.96h-0.08
					C50.773,23,49,24.773,49,26.96v27.05c0,0.547-0.443,0.99-0.99,0.99h-0.02C47.443,55,47,54.556,47,54.01V32.96
					c0-2.187-1.773-3.96-3.96-3.96h-0.08C40.773,29,39,30.773,39,32.96v21.05c0,0.547-0.443,0.99-0.99,0.99h-0.02
					C37.443,55,37,54.556,37,54.01V38.96c0-2.187-1.773-3.96-3.96-3.96h-0.08C30.773,35,29,36.773,29,38.96v30.52
					c0,2.978,0.748,5.78,2.059,8.235L67,56.964V34.96z"/>
			</g>
		</g>
	</g>
</g>
<g id="R-Red" style="display:none;">
	<g style="display:inline;">
		<circle style="fill:#FABBAF;" cx="55" cy="55" r="55"/>
	</g>
	<g style="display:inline;">
		<g>
			<path style="fill:#FFEFED;" d="M29,38.96v30.52C29,79.156,36.844,87,46.52,87h9.49c6.72,0,12.85-3.85,15.77-9.9l0.05-0.1
				l9.51-16.701l2.64-4.61c0.1-0.24,0.18-0.48,0.24-0.73c0.4-1.8-0.52-3.67-2.27-4.44l-0.09-0.041c-3.03-1.32-5.55,0.21-7.86,3.09
				l-7,9.471V34.96c0-2.187-1.773-3.96-3.96-3.96h-0.08C60.773,31,59,32.773,59,34.96v19.05c0,0.547-0.443,0.99-0.99,0.99h-0.02
				C57.443,55,57,54.557,57,54.01V26.96c0-2.187-1.773-3.96-3.96-3.96h-0.08C50.773,23,49,24.773,49,26.96v27.05
				c0,0.547-0.443,0.99-0.99,0.99h-0.02C47.443,55,47,54.557,47,54.01V32.96c0-2.187-1.773-3.96-3.96-3.96h-0.08
				C40.773,29,39,30.773,39,32.96v21.05c0,0.547-0.443,0.99-0.99,0.99h-0.02C37.443,55,37,54.557,37,54.01V38.96
				c0-2.187-1.773-3.96-3.96-3.96h-0.08C30.773,35,29,36.773,29,38.96z"/>
		</g>
		<g>
			<g>
				<path style="fill:#FFFFFF;" d="M67,34.96c0-2.187-1.773-3.96-3.96-3.96h-0.08C60.773,31,59,32.773,59,34.96v19.05
					c0,0.547-0.443,0.99-0.99,0.99h-0.02C57.443,55,57,54.557,57,54.01V26.96c0-2.187-1.773-3.96-3.96-3.96h-0.08
					C50.773,23,49,24.773,49,26.96v27.05c0,0.547-0.443,0.99-0.99,0.99h-0.02C47.443,55,47,54.557,47,54.01V32.96
					c0-2.187-1.773-3.96-3.96-3.96h-0.08C40.773,29,39,30.773,39,32.96v21.05c0,0.547-0.443,0.99-0.99,0.99h-0.02
					C37.443,55,37,54.557,37,54.01V38.96c0-2.187-1.773-3.96-3.96-3.96h-0.08C30.773,35,29,36.773,29,38.96v30.52
					c0,2.977,0.748,5.78,2.059,8.235L67,56.964V34.96z"/>
			</g>
		</g>
	</g>
</g>
<g id="Yellow" style="display:none;">
	<g style="display:inline;">
		<g>
			<path style="fill:#FFF5D9;" d="M29.003,38.96v30.52c0,9.676,7.844,17.52,17.52,17.52h9.49c6.72,0,12.85-3.85,15.77-9.9l0.05-0.1
				l9.51-16.701l2.64-4.61c0.1-0.24,0.18-0.48,0.24-0.73c0.4-1.8-0.52-3.67-2.27-4.44l-0.09-0.041c-3.03-1.32-5.55,0.21-7.86,3.09
				l-7,9.471V34.96c0-2.187-1.773-3.96-3.96-3.96h-0.08c-2.187,0-3.96,1.773-3.96,3.96v19.05c0,0.547-0.443,0.99-0.99,0.99h-0.02
				c-0.547,0-0.99-0.443-0.99-0.99V26.96c0-2.187-1.773-3.96-3.96-3.96h-0.08c-2.187,0-3.96,1.773-3.96,3.96v27.05
				c0,0.547-0.443,0.99-0.99,0.99h-0.02c-0.547,0-0.99-0.443-0.99-0.99V32.96c0-2.187-1.773-3.96-3.96-3.96h-0.08
				c-2.187,0-3.96,1.773-3.96,3.96v21.05c0,0.547-0.443,0.99-0.99,0.99h-0.02c-0.547,0-0.99-0.443-0.99-0.99V38.96
				c0-2.187-1.773-3.96-3.96-3.96h-0.08C30.776,35,29.003,36.773,29.003,38.96z"/>
		</g>
		<g>
			<g>
				<path style="fill:#FFFFFF;" d="M67.003,34.96c0-2.187-1.773-3.96-3.96-3.96h-0.08c-2.187,0-3.96,1.773-3.96,3.96v19.05
					c0,0.547-0.443,0.99-0.99,0.99h-0.02c-0.547,0-0.99-0.443-0.99-0.99V26.96c0-2.187-1.773-3.96-3.96-3.96h-0.08
					c-2.187,0-3.96,1.773-3.96,3.96v27.05c0,0.547-0.443,0.99-0.99,0.99h-0.02c-0.547,0-0.99-0.443-0.99-0.99V32.96
					c0-2.187-1.773-3.96-3.96-3.96h-0.08c-2.187,0-3.96,1.773-3.96,3.96v21.05c0,0.547-0.443,0.99-0.99,0.99h-0.02
					c-0.547,0-0.99-0.443-0.99-0.99V38.96c0-2.187-1.773-3.96-3.96-3.96h-0.08c-2.187,0-3.96,1.773-3.96,3.96v30.52
					c0,2.978,0.748,5.78,2.059,8.235l35.941-20.751V34.96z"/>
			</g>
		</g>
	</g>
</g>
<g id="R-Yellow" style="display:none;">
	<g style="display:inline;">
		<circle style="fill:#FFD75E;" cx="55" cy="55" r="55"/>
	</g>
	<g style="display:inline;">
		<g>
			<path style="fill:#FFF5D9;" d="M29,38.96v30.52C29,79.156,36.844,87,46.52,87h9.49c6.72,0,12.85-3.85,15.77-9.9l0.05-0.1
				l9.51-16.701l2.64-4.61c0.1-0.24,0.18-0.48,0.24-0.73c0.4-1.8-0.52-3.67-2.27-4.44l-0.09-0.041c-3.03-1.32-5.55,0.21-7.86,3.09
				l-7,9.471V34.96c0-2.187-1.773-3.96-3.96-3.96h-0.08C60.773,31,59,32.773,59,34.96v19.05c0,0.547-0.443,0.99-0.99,0.99h-0.02
				C57.443,55,57,54.557,57,54.01V26.96c0-2.187-1.773-3.96-3.96-3.96h-0.08C50.773,23,49,24.773,49,26.96v27.05
				c0,0.547-0.443,0.99-0.99,0.99h-0.02C47.443,55,47,54.557,47,54.01V32.96c0-2.187-1.773-3.96-3.96-3.96h-0.08
				C40.773,29,39,30.773,39,32.96v21.05c0,0.547-0.443,0.99-0.99,0.99h-0.02C37.443,55,37,54.557,37,54.01V38.96
				c0-2.187-1.773-3.96-3.96-3.96h-0.08C30.773,35,29,36.773,29,38.96z"/>
		</g>
		<g>
			<g>
				<path style="fill:#FFFFFF;" d="M67,34.96c0-2.187-1.773-3.96-3.96-3.96h-0.08C60.773,31,59,32.773,59,34.96v19.05
					c0,0.547-0.443,0.99-0.99,0.99h-0.02C57.443,55,57,54.557,57,54.01V26.96c0-2.187-1.773-3.96-3.96-3.96h-0.08
					C50.773,23,49,24.773,49,26.96v27.05c0,0.547-0.443,0.99-0.99,0.99h-0.02C47.443,55,47,54.557,47,54.01V32.96
					c0-2.187-1.773-3.96-3.96-3.96h-0.08C40.773,29,39,30.773,39,32.96v21.05c0,0.547-0.443,0.99-0.99,0.99h-0.02
					C37.443,55,37,54.557,37,54.01V38.96c0-2.187-1.773-3.96-3.96-3.96h-0.08C30.773,35,29,36.773,29,38.96v30.52
					c0,2.977,0.748,5.78,2.059,8.235L67,56.964V34.96z"/>
			</g>
		</g>
	</g>
</g>
</svg>
