<?xml version="1.0" encoding="iso-8859-1"?>
<!-- Generator: Adobe Illustrator 17.1.0, SVG Export Plug-In . SVG Version: 6.00 Build 0)  -->
<!DOCTYPE svg PUBLIC "-//W3C//DTD SVG 1.0//EN" "http://www.w3.org/TR/2001/REC-SVG-20010904/DTD/svg10.dtd">
<svg version="1.0" xmlns="http://www.w3.org/2000/svg" xmlns:xlink="http://www.w3.org/1999/xlink" x="0px" y="0px" width="110px"
	 height="110px" viewBox="0 0 110 110" style="enable-background:new 0 0 110 110;" xml:space="preserve">
<g id="Artboard">
</g>
<g id="Multicolor">
	<circle style="fill:#FABC3D;" cx="55" cy="55" r="55"/>
	<g>
		<g>
			<path style="fill:#FFFFFF;" d="M62.845,33.393c-0.61-3.115-3.12-5.625-6.235-6.235c-4.246-0.832-8.067,1.723-9.239,5.441
				C46.996,33.79,47.92,35,49.169,35h0.272c0.829,0,1.515-0.56,1.793-1.341c0.65-1.823,2.588-3.04,4.712-2.551
				c1.443,0.332,2.616,1.505,2.948,2.948C59.496,36.67,57.516,39,55.003,39h-1c-0.552,0-1,0.448-1,1v7h4v-4.262
				C60.935,41.72,63.707,37.789,62.845,33.393z"/>
		</g>
		<g>
			<path style="fill:#84462D;" d="M86.814,73.532c-0.907-2.779-2.807-6.03-9.132-9.192l-15.137-7.568
				c-4.15-2.075-3.542-5.78-3.542-9.771h-8c0,3.823,0.65,7.675-3.542,9.771L30.083,65.46c-3.099,1.55-5.632,4.277-6.867,7.997
				C22.312,76.184,24.36,79,27.233,79h0.08c1.246,0,2.421-0.556,3.231-1.503C33.302,74.276,42.544,67,55.003,67
				s21.702,7.276,24.459,10.497C80.273,78.444,81.448,79,82.694,79h0.08C85.617,79,87.697,76.235,86.814,73.532z"/>
		</g>
		<g>
			<path style="fill:#9C6144;" d="M55.019,47h-4.016c0,3.823,0.65,7.675-3.542,9.771L30.083,65.46
				c-3.099,1.55-5.632,4.277-6.867,7.997C22.312,76.184,24.36,79,27.233,79h0.08c1.246,0,2.421-0.556,3.231-1.503
				C33.302,74.276,42.544,67,55.003,67c0.005,0,0.011,0,0.016,0V47z"/>
		</g>
	</g>
</g>
</svg>
