<?xml version="1.0" encoding="iso-8859-1"?>
<!-- Generator: Adobe Illustrator 17.1.0, SVG Export Plug-In . SVG Version: 6.00 Build 0)  -->
<!DOCTYPE svg PUBLIC "-//W3C//DTD SVG 1.0//EN" "http://www.w3.org/TR/2001/REC-SVG-20010904/DTD/svg10.dtd">
<svg version="1.0" xmlns="http://www.w3.org/2000/svg" xmlns:xlink="http://www.w3.org/1999/xlink" x="0px" y="0px" width="110px"
	 height="110px" viewBox="0 0 110 110" style="enable-background:new 0 0 110 110;" xml:space="preserve">
<g id="Artboard">
</g>
<g id="Multicolor">
	<circle style="fill:#E04F5F;" cx="55" cy="55" r="55"/>
	<g>
		<rect x="34.195" y="35" style="fill:#F3B607;" width="6" height="40"/>
		<path style="fill:#FBE158;" d="M30.583,25.329c-0.097-0.58,0.067-1.173,0.447-1.622S31.968,23,32.556,23h9.278
			c0.588,0,1.146,0.259,1.526,0.707c0.38,0.449,0.543,1.042,0.447,1.622l-1.333,8C42.313,34.293,41.478,35,40.501,35h-6.611
			c-0.978,0-1.812-0.707-1.973-1.671L30.583,25.329z"/>
		<path style="fill:#3E3E3F;" d="M44.195,33.009v47.453c0.67-0.455,1.34-0.91,2-1.376V33.087
			C45.475,33.021,44.802,32.997,44.195,33.009z"/>
		<path style="fill:#3E3E3F;" d="M50.195,33.964v42.19c0.677-0.516,1.337-1.042,2-1.566V34.84
			C51.523,34.49,50.856,34.199,50.195,33.964z"/>
		<path style="fill:#3E3E3F;" d="M58.195,39.051c-0.023-0.018-0.048-0.036-0.07-0.054c-0.623-0.51-1.265-1.025-1.93-1.539v33.859
			c0.68-0.578,1.338-1.16,2-1.742V39.051z"/>
		<path style="fill:#3E3E3F;" d="M64.195,42.574c-0.701-0.27-1.367-0.568-2-0.893v24.267c0.684-0.645,1.341-1.287,2-1.929V42.574z"
			/>
		<path style="fill:#3E3E3F;" d="M70.195,57.851V43.909c-0.693-0.056-1.357-0.143-2-0.252v16.321
			C68.877,59.263,69.55,58.552,70.195,57.851z"/>
		<path style="fill:#3E3E3F;" d="M74.195,53.326c0.698-0.825,1.368-1.633,2-2.417v-7.823c-0.667,0.247-1.349,0.461-2,0.622V53.326z"
			/>
		<path style="fill:#F3B607;" d="M86.195,39c-3.689-5.534-7.75-2-15-2c-6.718,0-8.178-4.414-15.512-8.604
			c-4.404-2.517-8.791-2.98-11.908-2.874l-1.267,7.599c7.12-0.845,11.326,2.367,15.616,5.877C61.426,41.699,65.839,44,72.195,44
			c2.47,0,7-2,8-3c1.177-1.177,3.409-0.687,1.697,2.059c-5.334,8.557-20.048,25.716-38.675,38.076l0.589,3.536
			c0.097,0.58-0.067,1.173-0.447,1.622C42.98,86.741,42.422,87,41.834,87h12.201c14.393-12.375,28.497-35.885,32.547-43.408
			C87.196,42.451,87.187,40.487,86.195,39z"/>
		<path style="fill:#FBE158;" d="M43.807,84.671c0.097,0.58-0.067,1.173-0.447,1.622C42.98,86.741,42.422,87,41.834,87h-9.278
			c-0.588,0-1.146-0.259-1.526-0.707c-0.38-0.449-0.543-1.042-0.447-1.622l1.333-8C32.077,75.707,32.912,75,33.889,75h6.611
			c0.978,0,1.812,0.707,1.973,1.671L43.807,84.671z"/>
		<rect x="34.195" y="35" style="fill:#FACB1B;" width="2.805" height="40"/>
		<path style="fill:#FBEC9A;" d="M37,75h-3.111c-0.978,0-1.812,0.707-1.973,1.671l-1.333,8c-0.097,0.58,0.067,1.173,0.447,1.622
			C31.41,86.741,31.968,87,32.556,87H37V75z"/>
		<path style="fill:#FBEC9A;" d="M37,23h-4.444c-0.588,0-1.146,0.259-1.526,0.707c-0.38,0.449-0.543,1.042-0.447,1.622l1.333,8
			C32.077,34.293,32.912,35,33.889,35H37V23z"/>
	</g>
</g>
</svg>
