<?xml version="1.0" encoding="iso-8859-1"?>
<!-- Generator: Adobe Illustrator 17.1.0, SVG Export Plug-In . SVG Version: 6.00 Build 0)  -->
<!DOCTYPE svg PUBLIC "-//W3C//DTD SVG 1.0//EN" "http://www.w3.org/TR/2001/REC-SVG-20010904/DTD/svg10.dtd">
<svg version="1.0" xmlns="http://www.w3.org/2000/svg" xmlns:xlink="http://www.w3.org/1999/xlink" x="0px" y="0px" width="110px"
	 height="110px" viewBox="0 0 110 110" style="enable-background:new 0 0 110 110;" xml:space="preserve">
<g id="Artboard">
</g>
<g id="Multicolor">
	<circle style="fill:#FABC3D;" cx="55" cy="55" r="55"/>
	<g>
		<g>
			<path style="fill:#3E3E3F;" d="M86.559,63.75c-0.16-0.2-0.35-0.36-0.56-0.48c-0.46-0.27-1.02-0.35-1.55-0.19
				c-3.572,1.026-9.209,2.163-15.387,2.947c0.092-1.681,0.193-3.359,0.327-5.027c1.09-13.17,2.64-19.49,7.53-31
				c0.24-1.18-0.06-2.41-0.82-3.34c-3.724-4.607-38.477-4.605-42.2,0c-0.76,0.93-1.06,2.16-0.82,3.34c4.89,11.51,6.44,17.83,7.53,31
				c0.134,1.667,0.235,3.346,0.327,5.027c-6.178-0.784-11.814-1.92-15.387-2.947c-0.53-0.16-1.09-0.08-1.55,0.19
				c-0.21,0.12-0.4,0.28-0.56,0.48c-0.5,0.63-0.58,1.5-0.2,2.21C26.469,71.88,34.999,83,54.999,83s28.53-11.12,31.76-17.04
				C87.139,65.25,87.059,64.38,86.559,63.75z"/>
		</g>
		<g>
			<path style="fill:#5B5C5F;" d="M55,23.206c-9.62,0-19.24,1.152-21.102,3.455c-0.76,0.93-1.06,2.16-0.82,3.34
				c4.89,11.51,6.44,17.83,7.53,31c0.134,1.667,0.235,3.346,0.327,5.027c-6.178-0.784-11.814-1.92-15.387-2.947
				c-0.53-0.16-1.09-0.08-1.55,0.19c-0.21,0.12-0.4,0.28-0.56,0.48c-0.5,0.63-0.58,1.5-0.2,2.21C26.469,71.88,34.999,83,54.999,83
				H55L55,23.206z"/>
		</g>
		<g>
			<path style="fill:#F0F1F1;" d="M54.999,67c4.573,0,9.467-0.39,14.063-0.973c0.092-1.681,0.193-3.36,0.327-5.027h-28.78
				c0.134,1.667,0.235,3.346,0.327,5.027C45.531,66.61,50.426,67,54.999,67z"/>
		</g>
		<g>
			<path style="fill:#FFFFFF;" d="M55,61H40.609c0.134,1.667,0.235,3.346,0.327,5.027C45.531,66.61,50.426,67,54.999,67H55L55,61z"
				/>
		</g>
	</g>
</g>
</svg>
