<?xml version="1.0" encoding="iso-8859-1"?>
<!-- Generator: Adobe Illustrator 17.1.0, SVG Export Plug-In . SVG Version: 6.00 Build 0)  -->
<!DOCTYPE svg PUBLIC "-//W3C//DTD SVG 1.0//EN" "http://www.w3.org/TR/2001/REC-SVG-20010904/DTD/svg10.dtd">
<svg version="1.0" xmlns="http://www.w3.org/2000/svg" xmlns:xlink="http://www.w3.org/1999/xlink" x="0px" y="0px" width="110px"
	 height="110px" viewBox="0 0 110 110" style="enable-background:new 0 0 110 110;" xml:space="preserve">
<g id="Artboard">
</g>
<g id="Multicolor">
	<circle style="fill:#25B7D3;" cx="55" cy="55" r="55"/>
	<g>
		<path style="fill:#3E3E3F;" d="M75.532,57.798C76.128,44.773,73.069,35,67,35c-7,0-7,4-11,4s-6-4-13-4
			c-6.068,0-9.127,9.773-8.532,22.798C27.46,59.999,23,63.304,23,67c0,6.627,14.327,12,32,12s32-5.373,32-12
			C87,63.304,82.54,59.999,75.532,57.798z"/>
		<path style="fill:#5B5C5F;" d="M43,35c-6.068,0-9.127,9.773-8.532,22.798C27.46,59.999,23,63.304,23,67c0,6.627,14.327,12,32,12
			c0.335,0,0.667-0.006,1-0.01V62.989V39C52,39,50,35,43,35z"/>
		<g>
			<path style="fill:#E2E4E5;" d="M55,61c-11.322,0-17.558-2.031-20.427-3.36c0.1,1.422,0.242,2.878,0.427,4.36c0,0,5,4,20,4
				s20-4,20-4c0.185-1.482,0.327-2.938,0.427-4.36C72.558,58.968,66.323,61,55,61z"/>
		</g>
		<g>
			<path style="fill:#FFFFFF;" d="M56,60.989C55.667,60.992,55.343,61,55,61c-11.322,0-17.558-2.031-20.427-3.36
				c0.1,1.422,0.242,2.878,0.427,4.36c0,0,5,4,20,4c0.34,0,0.67-0.004,1-0.008V60.989z"/>
		</g>
	</g>
</g>
</svg>
