<?xml version="1.0" encoding="iso-8859-1"?>
<!-- Generator: Adobe Illustrator 17.1.0, SVG Export Plug-In . SVG Version: 6.00 Build 0)  -->
<!DOCTYPE svg PUBLIC "-//W3C//DTD SVG 1.0//EN" "http://www.w3.org/TR/2001/REC-SVG-20010904/DTD/svg10.dtd">
<svg version="1.0" xmlns="http://www.w3.org/2000/svg" xmlns:xlink="http://www.w3.org/1999/xlink" x="0px" y="0px" width="110px"
	 height="110px" viewBox="0 0 110 110" style="enable-background:new 0 0 110 110;" xml:space="preserve">
<g id="Artboard">
</g>
<g id="Multicolor">
	<circle style="fill:#E04F5F;" cx="55" cy="55" r="55"/>
	<g>
		<path style="fill:#FFFFFF;" d="M55.949,25c8.909,0,22.716,0.98,26.875,36.884c0.033,0.283-0.057,0.567-0.247,0.78
			S82.116,63,81.831,63c-1.807,0-3.743,0-4.882,0c-0.552,0-1,0.448-1,1v9.757c0,1.942-0.943,3.773-2.527,4.898
			c-2.344,1.664-5.473,4.273-5.473,6.345v2h-28l3.845-11.536c0.097-0.292,0.122-0.674-0.116-0.87C19.864,55,32.831,25,55.949,25z"/>
		<circle style="fill:#3E3E3F;" cx="54.949" cy="52" r="14"/>
		<path style="fill:#5B5C5F;" d="M54.949,38c-7.732,0-14,6.268-14,14c0,3.875,1.575,7.382,4.119,9.917L64.866,42.12
			C62.331,39.575,58.824,38,54.949,38z"/>
		<circle style="fill:#B6BCBD;" cx="54.949" cy="52" r="8"/>
		<path style="fill:#CFD3D4;" d="M54.949,44c-4.418,0-8,3.582-8,8c0,2.218,0.904,4.225,2.362,5.674l11.312-11.312
			C59.174,44.904,57.168,44,54.949,44z"/>
		<path style="fill:#E2E4E5;" d="M57.949,24c0-0.552-0.448-1-1-1h-4c-0.552,0-1,0.448-1,1v26c0,1.657,1.343,3,3,3
			c1.657,0,3-1.343,3-3V24z"/>
		<path style="fill:#3E3E3F;" d="M59.864,34c0,1.105-0.895,2-2,2h-6c-1.105,0-2-0.895-2-2s0.895-2,2-2h6
			C58.968,32,59.864,32.895,59.864,34z"/>
	</g>
</g>
</svg>
