<?xml version="1.0" encoding="iso-8859-1"?>
<!-- Generator: Adobe Illustrator 17.1.0, SVG Export Plug-In . SVG Version: 6.00 Build 0)  -->
<!DOCTYPE svg PUBLIC "-//W3C//DTD SVG 1.0//EN" "http://www.w3.org/TR/2001/REC-SVG-20010904/DTD/svg10.dtd">
<svg version="1.0" xmlns="http://www.w3.org/2000/svg" xmlns:xlink="http://www.w3.org/1999/xlink" x="0px" y="0px" width="110px"
	 height="110px" viewBox="0 0 110 110" style="enable-background:new 0 0 110 110;" xml:space="preserve">
<g id="Artboard">
</g>
<g id="Multicolor">
	<circle style="fill:#FABC3D;" cx="55" cy="55" r="55"/>
	<g>
		<path style="fill:#3E3E3F;" d="M48.983,83c0,2.209,1.791,4,4,4H63v-8H52.983C50.774,79,48.983,80.791,48.983,83z"/>
		<g>
			<path style="fill:#3E3E3F;" d="M71.374,84H63v-2h8.374c3.093,0,5.61-2.516,5.61-5.61V73h2v3.39
				C78.983,80.586,75.569,84,71.374,84z"/>
		</g>
		<path style="fill:#F0F1F1;" d="M86.397,58.585l-3.431-3.414c0,15.967,0,5.003,0,15.829l3.431-3.414
			c0.758-0.758,0.586-2.665,0.586-3.415V60C86.983,59.251,87.156,59.344,86.397,58.585z"/>
		<path style="fill:#E2E4E5;" d="M74.983,73h5.983C82.071,73,83,72.105,83,71V55c0-1.105-0.929-1.829-2.034-1.829h-5.983V73z"/>
		<path style="fill:#3E3E3F;" d="M68.966,74c0,0.552,0.448,1,1,1h4.017c0.552,0,1-0.448,1-1V52.171c0-0.552-0.448-1-1-1h-4.017
			c-0.552,0-1,0.448-1,1V74z"/>
		<path style="fill:#5B5C5F;" d="M58.983,79h-6c-2.209,0-4,1.791-4,4h10V79z"/>
		<rect x="59" y="79" style="fill:#E2E4E5;" width="4" height="4"/>
		<rect x="59" y="83" style="fill:#B6BCBD;" width="4" height="4"/>
		<path style="fill:#818284;" d="M73.983,51.171h-4.017c-0.552,0-1,0.448-1,1V63h6.017V52.171
			C74.983,51.619,74.535,51.171,73.983,51.171z"/>
		<path style="fill:#FFFFFF;" d="M82.966,55.171c0,4.14,0,6.46,0,7.829h4.017v-3c0-0.749,0.172-0.656-0.586-1.415L82.966,55.171z"/>
		<path style="fill:#3E3E3F;" d="M55.017,23.171c-0.006,0-0.011,0-0.017,0s-0.011,0-0.017,0c-15.013,0-28.013,9-28.013,28h0.013V59
			H27v-4c0-1.104,0.929-1.829,2.034-1.829h1.933v-2c0-6,2.458-20,24.017-20c0.006,0,0.011,0,0.017,0s0.011,0,0.017,0
			c21.558,0,24.017,14,24.017,20v2h1.933C82.071,53.171,83,53.896,83,55h0.017v-3.829h0.013
			C83.03,32.171,70.03,23.171,55.017,23.171z"/>
		<path style="fill:#F0F1F1;" d="M80.966,53.171h-5.983V63H83v-8C83,53.896,82.071,53.171,80.966,53.171z"/>
		<path style="fill:#F0F1F1;" d="M23.603,58.585l3.431-3.414c0,15.967,0,5.003,0,15.829l-3.431-3.414
			c-0.758-0.758-0.586-2.665-0.586-3.415V60C23.017,59.251,22.844,59.344,23.603,58.585z"/>
		<path style="fill:#E2E4E5;" d="M35.017,73h-5.983C27.929,73,27,72.105,27,71V55c0-1.105,0.929-1.829,2.034-1.829h5.983V73z"/>
		<path style="fill:#3E3E3F;" d="M41.034,74c0,0.552-0.448,1-1,1h-4.017c-0.552,0-1-0.448-1-1V52.171c0-0.552,0.448-1,1-1h4.017
			c0.552,0,1,0.448,1,1V74z"/>
		<path style="fill:#818284;" d="M36.017,51.171h4.017c0.552,0,1,0.448,1,1V63h-6.017V52.171
			C35.017,51.619,35.465,51.171,36.017,51.171z"/>
		<path style="fill:#FFFFFF;" d="M27.034,55.171c0,4.14,0,6.46,0,7.829h-4.017v-3c0-0.749-0.172-0.656,0.586-1.415L27.034,55.171z"
			/>
		<path style="fill:#F0F1F1;" d="M29.034,53.171h5.983V63H27v-8C27,53.896,27.929,53.171,29.034,53.171z"/>
	</g>
</g>
</svg>
