<?xml version="1.0" encoding="iso-8859-1"?>
<!-- Generator: Adobe Illustrator 17.1.0, SVG Export Plug-In . SVG Version: 6.00 Build 0)  -->
<!DOCTYPE svg PUBLIC "-//W3C//DTD SVG 1.0//EN" "http://www.w3.org/TR/2001/REC-SVG-20010904/DTD/svg10.dtd">
<svg version="1.0" xmlns="http://www.w3.org/2000/svg" xmlns:xlink="http://www.w3.org/1999/xlink" x="0px" y="0px" width="110px"
	 height="110px" viewBox="0 0 110 110" style="enable-background:new 0 0 110 110;" xml:space="preserve">
<g id="Artboard">
</g>
<g id="Multicolor">
	<circle style="fill:#FABC3D;" cx="55" cy="55" r="55"/>
	<g>
		<g>
			<polygon style="fill:#FFFFFF;" points="56.769,87 54,87 42.635,50.656 45.511,49.802 55.381,83.016 67.361,59.977 70.023,61.361 
							"/>
		</g>
		<g>
			<path style="fill:#DF2C2C;" d="M39.566,28.842c-6.19-6.385-18.682,0.472-16.259,10.867c2.434,10.443,22.497,15.892,22.497,15.892
				s15.576-13.757,13.142-24.2C56.523,21.007,42.286,20.38,39.566,28.842z"/>
		</g>
		<g>
			<path style="fill:#FA5655;" d="M39.566,28.842c-6.19-6.385-18.682,0.472-16.259,10.867c0.892,3.824,4.149,6.976,7.918,9.438
				l23.863-23.863C49.918,21.297,41.582,22.572,39.566,28.842z"/>
		</g>
		<g>
			<path style="fill:#FA5655;" d="M68.29,37.898c-4.251-7.156-17.113-3.621-17.161,6.369c-0.048,10.037,17.038,19.349,17.038,19.349
				s17.166-9.149,17.214-19.185C85.43,34.44,72.602,30.782,68.29,37.898z"/>
		</g>
	</g>
</g>
</svg>
