<?xml version="1.0" encoding="iso-8859-1"?>
<!-- Generator: Adobe Illustrator 17.1.0, SVG Export Plug-In . SVG Version: 6.00 Build 0)  -->
<!DOCTYPE svg PUBLIC "-//W3C//DTD SVG 1.0//EN" "http://www.w3.org/TR/2001/REC-SVG-20010904/DTD/svg10.dtd">
<svg version="1.0" xmlns="http://www.w3.org/2000/svg" xmlns:xlink="http://www.w3.org/1999/xlink" x="0px" y="0px" width="110px"
	 height="110px" viewBox="0 0 110 110" style="enable-background:new 0 0 110 110;" xml:space="preserve">
<g id="Artboard">
</g>
<g id="Multicolor">
	<circle style="fill:#25B7D3;" cx="55" cy="55" r="55"/>
	<g>
		<g>
			<path style="fill:#DF2C2C;" d="M83.76,53.038c0,16.173-24.749,30.95-24.749,30.95s-24.77-14.776-24.77-30.95
				c0-16.104,18.521-19.664,24.77-8.161C65.239,33.374,83.76,36.934,83.76,53.038z"/>
		</g>
		<g>
			<path style="fill:#84462D;" d="M79.899,79.886l0.395-1.974l-6.156-6.034c-0.788,0.818-1.59,1.607-2.396,2.362l6.167,6.044
				L79.899,79.886z"/>
		</g>
		<g>
			<polygon style="fill:#F0F1F1;" points="79.899,79.886 81.674,71.009 87,86.987 71.022,81.661 			"/>
		</g>
		<g>
			<polygon style="fill:#FFFFFF;" points="38.065,35.716 38.75,30.92 30.829,23 30.136,27.854 			"/>
		</g>
		<g>
			<polygon style="fill:#FFFFFF;" points="27.753,30.229 22.909,30.92 30.829,38.841 35.732,38.141 			"/>
		</g>
		<g>
			<path style="fill:#9C6144;" d="M44.828,47.159L24.257,26.763c-0.123-0.123,0.309-0.756,0.966-1.413
				c0.657-0.657,1.289-1.089,1.413-0.966L47.207,44.78C46.996,46.212,46.231,47.035,44.828,47.159z"/>
		</g>
		<g>
			<path style="fill:#FA5655;" d="M59.01,44.877c-6.249-11.503-24.77-7.943-24.77,8.161c0,6.676,4.222,13.11,9.178,18.369
				l32.147-32.147C69.789,36.734,62.486,38.458,59.01,44.877z"/>
		</g>
	</g>
</g>
</svg>
