<?xml version="1.0" encoding="iso-8859-1"?>
<!-- Generator: Adobe Illustrator 17.1.0, SVG Export Plug-In . SVG Version: 6.00 Build 0)  -->
<!DOCTYPE svg PUBLIC "-//W3C//DTD SVG 1.0//EN" "http://www.w3.org/TR/2001/REC-SVG-20010904/DTD/svg10.dtd">
<svg version="1.0" xmlns="http://www.w3.org/2000/svg" xmlns:xlink="http://www.w3.org/1999/xlink" x="0px" y="0px" width="110px"
	 height="110px" viewBox="0 0 110 110" style="enable-background:new 0 0 110 110;" xml:space="preserve">
<g id="Artboard">
</g>
<g id="Multicolor">
	<circle style="fill:#32BEA6;" cx="55" cy="55" r="55"/>
	<g>
		<g>
			<path style="fill:#DF2C2C;" d="M55.009,32.362c-7.498-13.41-29.991-8.621-29.991,15.325C25.483,69.487,55.009,86,55.009,86
				S84.535,69.487,85,47.687C85,23.742,62.506,18.953,55.009,32.362z"/>
		</g>
		<g>
			<path style="fill:#FA5655;" d="M55,32.349c-7.506-13.392-29.983-8.598-29.983,15.338C25.481,69.418,54.815,85.892,55,85.995
				V32.349z"/>
		</g>
		<g>
			<g>
				<path style="fill:#FFFFFF;" d="M51,68c-0.663,0-1.29-0.33-1.664-0.891l-8.551-12.826l-5.28,6.034C35.125,60.751,34.577,61,34,61
					H23v-4h10.092l6.402-7.317c0.411-0.469,1.011-0.722,1.636-0.679c0.621,0.041,1.188,0.368,1.533,0.886l7.769,11.653l6.678-19.2
					c0.275-0.791,1.014-1.327,1.851-1.343c0.818-0.026,1.595,0.491,1.9,1.271l7.886,20.152l4.838-4.838
					C73.961,57.211,74.47,57,75,57h12v4H75.829l-6.415,6.414c-0.478,0.477-1.163,0.681-1.824,0.543s-1.207-0.6-1.453-1.229
					L59.11,48.771l-6.221,17.886C52.608,67.464,51.847,68,51,68z"/>
			</g>
		</g>
	</g>
</g>
</svg>
