<?xml version="1.0" encoding="iso-8859-1"?>
<!-- Generator: Adobe Illustrator 17.1.0, SVG Export Plug-In . SVG Version: 6.00 Build 0)  -->
<!DOCTYPE svg PUBLIC "-//W3C//DTD SVG 1.0//EN" "http://www.w3.org/TR/2001/REC-SVG-20010904/DTD/svg10.dtd">
<svg version="1.0" xmlns="http://www.w3.org/2000/svg" xmlns:xlink="http://www.w3.org/1999/xlink" x="0px" y="0px" width="110px"
	 height="110px" viewBox="0 0 110 110" style="enable-background:new 0 0 110 110;" xml:space="preserve">
<g id="Artboard">
</g>
<g id="Multicolor">
	<circle style="fill:#25B7D3;" cx="55" cy="55" r="55"/>
	<g>
		<g>
			<path style="fill:#F0F1F1;" d="M87,83c0,1.105-0.895,2-2,2H25c-1.105,0-2-0.895-2-2V45c0-1.105,0.895-2,2-2h60
				c1.105,0,2,0.895,2,2V83z"/>
		</g>
		<g>
			<path style="fill:#FFFFFF;" d="M58.991,43H25c-1.104,0-2,0.896-2,2v33.991L58.991,43z"/>
		</g>
		<g>
			<path style="fill:#FFFFFF;" d="M68.752,40c1.976-3.393,1.427-5.476-0.395-8.515c-1.336-2.226-2.644-4.294,1.079-8.485h-2.548
				c-2.674,3.796-2.285,6.114-0.246,9.514c1.595,2.658,2.119,4.21-0.275,7.486H68.752z"/>
		</g>
		<g>
			<path style="fill:#FFFFFF;" d="M78.752,40c1.976-3.393,1.427-5.476-0.395-8.515c-1.336-2.226-2.644-4.294,1.079-8.485h-2.548
				c-2.674,3.796-2.285,6.114-0.246,9.514c1.595,2.658,2.119,4.21-0.275,7.486H78.752z"/>
		</g>
		<g>
			<path style="fill:#FFFFFF;" d="M58.752,40c1.976-3.393,1.427-5.476-0.395-8.515c-1.336-2.226-2.644-4.294,1.079-8.485h-2.548
				c-2.674,3.796-2.285,6.114-0.246,9.514c1.595,2.658,2.119,4.21-0.275,7.486H58.752z"/>
		</g>
		<g>
			<path style="fill:#FFFFFF;" d="M49.752,40c1.976-3.393,1.427-5.476-0.395-8.515c-1.336-2.226-2.644-4.294,1.079-8.485h-2.548
				c-2.674,3.796-2.285,6.114-0.246,9.514c1.595,2.658,2.119,4.21-0.275,7.486H49.752z"/>
		</g>
		<g>
			<path style="fill:#B6BCBD;" d="M45,79c0,1.105-0.895,2-2,2s-2-0.895-2-2V49c0-1.105,0.895-2,2-2s2,0.895,2,2V79z"/>
		</g>
		<g>
			<path style="fill:#B6BCBD;" d="M51,79c0,1.105-0.895,2-2,2c-1.105,0-2-0.895-2-2V49c0-1.105,0.895-2,2-2c1.105,0,2,0.895,2,2V79z
				"/>
		</g>
		<g>
			<path style="fill:#B6BCBD;" d="M57,79c0,1.105-0.895,2-2,2s-2-0.895-2-2V49c0-1.105,0.895-2,2-2s2,0.895,2,2V79z"/>
		</g>
		<g>
			<path style="fill:#B6BCBD;" d="M63,79c0,1.105-0.895,2-2,2s-2-0.895-2-2V49c0-1.105,0.895-2,2-2s2,0.895,2,2V79z"/>
		</g>
		<g>
			<path style="fill:#B6BCBD;" d="M69,79c0,1.105-0.895,2-2,2s-2-0.895-2-2V49c0-1.105,0.895-2,2-2s2,0.895,2,2V79z"/>
		</g>
		<g>
			<path style="fill:#B6BCBD;" d="M75,79c0,1.105-0.895,2-2,2s-2-0.895-2-2V49c0-1.105,0.895-2,2-2s2,0.895,2,2V79z"/>
		</g>
		<g>
			<path style="fill:#B6BCBD;" d="M81,79c0,1.105-0.895,2-2,2s-2-0.895-2-2V49c0-1.105,0.895-2,2-2s2,0.895,2,2V79z"/>
		</g>
		<g>
			<circle style="fill:#FA5655;" cx="29.5" cy="48.5" r="1.5"/>
		</g>
		<g>
			<circle style="fill:#F99134;" cx="34.5" cy="48.5" r="1.5"/>
		</g>
		<g>
			<circle style="fill:#FFFFFF;" cx="32" cy="59" r="3"/>
		</g>
		<g>
			<g>
				<path style="fill:#E2E4E5;" d="M32,56c1.654,0,3,1.346,3,3s-1.346,3-3,3s-3-1.346-3-3S30.346,56,32,56 M32,54
					c-2.761,0-5,2.239-5,5s2.239,5,5,5s5-2.239,5-5S34.761,54,32,54L32,54z"/>
			</g>
		</g>
		<g>
			<circle style="fill:#FFFFFF;" cx="32" cy="72" r="3"/>
		</g>
		<g>
			<path style="fill:#E2E4E5;" d="M32,69c1.654,0,3,1.346,3,3s-1.346,3-3,3s-3-1.346-3-3S30.346,69,32,69 M32,67
				c-2.761,0-5,2.239-5,5s2.239,5,5,5s5-2.239,5-5S34.761,67,32,67L32,67z"/>
		</g>
		<g>
			<rect x="27" y="85" style="fill:#E2E4E5;" width="8" height="2"/>
		</g>
		<g>
			<rect x="75" y="85" style="fill:#E2E4E5;" width="8" height="2"/>
		</g>
	</g>
</g>
</svg>
