<?xml version="1.0" encoding="iso-8859-1"?>
<!-- Generator: Adobe Illustrator 17.1.0, SVG Export Plug-In . SVG Version: 6.00 Build 0)  -->
<!DOCTYPE svg PUBLIC "-//W3C//DTD SVG 1.0//EN" "http://www.w3.org/TR/2001/REC-SVG-20010904/DTD/svg10.dtd">
<svg version="1.0" xmlns="http://www.w3.org/2000/svg" xmlns:xlink="http://www.w3.org/1999/xlink" x="0px" y="0px" width="110px"
	 height="110px" viewBox="0 0 110 110" style="enable-background:new 0 0 110 110;" xml:space="preserve">
<g id="Artboard">
</g>
<g id="Multicolor">
	<circle style="fill:#E04F5F;" cx="55" cy="55" r="55"/>
	<g>
		<g>
			<path style="fill:#FACB1B;" d="M51,75c-7.38,0-28,1.81-28-8c0-1.31,0.18-2.66,0.53-4c1.99-7.95,9.33-15.81,15.47-15.99
				C39.07,47,78.171,47,78.171,47c0.745,0,1.428,0.414,1.773,1.074s0.545,1.758-0.131,2.069C54,62,68,75,51,75z"/>
		</g>
		<g>
			<path style="fill:#FBE158;" d="M39,47.01C32.86,47.19,25.52,55.05,23.53,63C23.18,64.34,23,65.69,23,67
				c0,4.24,3.854,6.306,8.823,7.29L59.113,47C59.113,47,39.07,47,39,47.01z"/>
		</g>
		<g>
			<path style="fill:#3E3E3F;" d="M74,37c0,2.209-1.791,4-4,4s-21-2-21-4s18.791-4,21-4S74,34.791,74,37z"/>
		</g>
		<g>
			<path style="fill:#3E3E3F;" d="M24,37c0,2.209,1.791,4,4,4s21-2,21-4s-18.791-4-21-4S24,34.791,24,37z"/>
		</g>
		<path style="fill:#F0F1F1;" d="M60,76c-1.025,0-1,3-5,3c-0.69,0-1.357,0-2.011,0l-1.146-4.012C51.57,74.995,51.29,75,51,75
			c-0.657,0-1.422,0.015-2.265,0.034L49.868,79c-5.655,0-10.281,0-16.062,0l1.225-4.23c-1.025-0.112-2.031-0.253-2.996-0.437
			L30.687,79c-0.339,0-0.672,0-1.021,0c-4,0-3.975-3-5-3c-2.28,0-3,7,3,7c9.108,0,20.202,0,29.334,0C63,83,62.28,76,60,76z"/>
		<g>
			<polygon style="fill:#F0F1F1;" points="39,47 43,41 55,41 59,47 			"/>
		</g>
		<g>
			<path style="fill:#6FDAF1;" d="M39,47.01V63H23.53C25.52,55.05,32.86,47.19,39,47.01z"/>
		</g>
		<g>
			<path style="fill:#F3B607;" d="M32,67.5c0,0.276,0.224,0.5,0.5,0.5h5c0.276,0,0.5-0.224,0.5-0.5v-1c0-0.276-0.224-0.5-0.5-0.5h-5
				c-0.276,0-0.5,0.224-0.5,0.5V67.5z"/>
		</g>
		<g>
			<path style="fill:#3E3E3F;" d="M86.482,55.032c0.694,1.504,0.038,3.287-1.466,3.981c-1.504,0.694-3.287,0.038-3.981-1.466
				c-0.694-1.504-2.864-8.59-1.048-9.429S85.787,53.528,86.482,55.032z"/>
		</g>
		<g>
			<path style="fill:#3E3E3F;" d="M71.179,51.642c-1.654,0.098-3.074-1.164-3.171-2.818c-0.098-1.654,1.164-3.074,2.818-3.171
				c1.654-0.098,9.043,0.468,9.161,2.465C80.105,50.113,72.833,51.544,71.179,51.642z"/>
		</g>
		<g>
			<path style="fill:#3E3E3F;" d="M81.153,38.708c0.714-1.495,2.505-2.128,4-1.414s2.128,2.505,1.414,4s-4.781,7.69-6.586,6.828
				C78.177,47.26,80.439,40.203,81.153,38.708z"/>
		</g>
		<g>
			<circle style="fill:#F3B607;" cx="79.861" cy="48" r="3"/>
		</g>
		<g>
			<path style="fill:#5B5C5F;" d="M24.013,36.87h24.949C48.182,34.914,30.161,33,28,33C25.835,33,24.083,34.723,24.013,36.87z"/>
		</g>
		<g>
			<path style="fill:#5B5C5F;" d="M49.037,36.87h24.949C73.917,34.723,72.165,33,70,33C67.839,33,49.818,34.914,49.037,36.87z"/>
		</g>
		<g>
			<path style="fill:#CFD3D4;" d="M51,36c0-0.552-0.448-1-1-1h-2c-0.552,0-1,0.448-1,1v5h4V36z"/>
		</g>
	</g>
</g>
</svg>
