<?xml version="1.0" encoding="iso-8859-1"?>
<!-- Generator: Adobe Illustrator 17.1.0, SVG Export Plug-In . SVG Version: 6.00 Build 0)  -->
<!DOCTYPE svg PUBLIC "-//W3C//DTD SVG 1.0//EN" "http://www.w3.org/TR/2001/REC-SVG-20010904/DTD/svg10.dtd">
<svg version="1.0" xmlns="http://www.w3.org/2000/svg" xmlns:xlink="http://www.w3.org/1999/xlink" x="0px" y="0px" width="110px"
	 height="110px" viewBox="0 0 110 110" style="enable-background:new 0 0 110 110;" xml:space="preserve">
<g id="Artboard">
</g>
<g id="Multicolor">
	<circle style="fill:#32BEA6;" cx="55" cy="55" r="55"/>
	<g>
		<g>
			<path style="fill:#F0F1F1;" d="M80.62,34.912C76.1,28.23,68.2,23.478,55,23.478c-17.673,0-32,14.327-32,32
				c0,6.919,2.197,13.325,5.93,18.56c0.281,0.395,0.687,0.679,1.153,0.812l41.792,11.884c2.315,0.658,4.807,0.078,6.593-1.537
				C85.496,78.845,86,64.316,86,55.449C86,48.4,84.66,40.885,80.62,34.912z"/>
		</g>
		<g>
			<path style="fill:#FFFFFF;" d="M55,23.478c-17.673,0-32,14.327-32,32c0,6.919,2.196,13.325,5.93,18.56
				c0.281,0.395,0.687,0.679,1.153,0.812l8.253,2.347L80.62,34.912C76.1,28.23,68.2,23.478,55,23.478z"/>
		</g>
		<g>
			<path style="fill:#3E3E3F;" d="M84.867,44.812c-10.974,0-33.155,0-38.111,0c-3.706,0-6.71,3.004-6.71,6.71
				c0,1.242,0.355,2.455,1.023,3.501c2.516,3.94,5.882,6.971,10.166,9.273c7.844,4.217,18.814,5.956,33.611,6.104
				c0.57,0.006,1.117-0.216,1.522-0.617c0.405-0.4,0.633-0.946,0.633-1.516V46.945C87,45.767,86.045,44.812,84.867,44.812z"/>
		</g>
		<g>
			<path style="fill:#5B5C5F;" d="M46.755,44.812c-3.706,0-6.711,3.004-6.711,6.71c0,1.242,0.355,2.455,1.024,3.501
				c2.516,3.94,5.882,6.971,10.166,9.273L70.72,44.812H46.755z"/>
		</g>
		<g>
			<circle style="fill:#FFFFFF;" cx="46.467" cy="51.212" r="2.133"/>
		</g>
	</g>
</g>
</svg>
