<?xml version="1.0" encoding="iso-8859-1"?>
<!-- Generator: Adobe Illustrator 17.1.0, SVG Export Plug-In . SVG Version: 6.00 Build 0)  -->
<!DOCTYPE svg PUBLIC "-//W3C//DTD SVG 1.0//EN" "http://www.w3.org/TR/2001/REC-SVG-20010904/DTD/svg10.dtd">
<svg version="1.0" xmlns="http://www.w3.org/2000/svg" xmlns:xlink="http://www.w3.org/1999/xlink" x="0px" y="0px" width="110px"
	 height="110px" viewBox="0 0 110 110" style="enable-background:new 0 0 110 110;" xml:space="preserve">
<g id="Artboard" style="display:none;">
	<rect x="-1247" y="-455" style="display:inline;fill:#8C8C8C;" width="1412" height="743"/>
</g>
<g id="R-Multicolor">
	<circle style="fill:#FABC3D;" cx="55" cy="55" r="55"/>
	<g>
		<path style="fill:#692E19;" d="M85.813,52.274c-0.756-0.705-1.772-1.063-2.803-0.989l-4.257,0.304
			c-0.583-4.073-2.187-7.82-4.551-10.969l3.23-2.799c0.781-0.677,1.246-1.648,1.283-2.682c0.037-1.034-0.357-2.036-1.088-2.767
			s-1.733-1.125-2.766-1.088c-1.034,0.037-2.005,0.501-2.682,1.283l-2.799,3.23c-3.149-2.364-6.896-3.968-10.969-4.551l0.304-4.257
			c0.074-1.031-0.285-2.046-0.989-2.803C57.021,23.43,56.034,23,55,23c-1.034,0-2.021,0.43-2.726,1.187
			c-0.705,0.757-1.063,1.772-0.989,2.803l0.304,4.257c-4.073,0.583-7.82,2.187-10.969,4.551l-2.799-3.23
			c-0.677-0.781-1.648-1.246-2.682-1.283c-1.034-0.037-2.036,0.357-2.767,1.088s-1.125,1.733-1.088,2.767
			c0.037,1.033,0.501,2.004,1.283,2.682l3.23,2.799c-2.364,3.149-3.968,6.896-4.551,10.969l-4.257-0.304
			c-1.031-0.074-2.046,0.285-2.803,0.989C23.43,52.979,23,53.966,23,55s0.43,2.021,1.187,2.726c0.757,0.705,1.772,1.063,2.803,0.989
			l4.257-0.304c0.583,4.073,2.187,7.82,4.551,10.969l-3.23,2.799c-0.781,0.677-1.246,1.648-1.283,2.682
			c-0.037,1.034,0.357,2.036,1.088,2.767s1.733,1.125,2.767,1.088c1.033-0.037,2.004-0.501,2.682-1.283l2.799-3.23
			c3.149,2.364,6.896,3.968,10.969,4.551l-0.304,4.257c-0.074,1.031,0.285,2.046,0.989,2.803C52.979,86.57,53.966,87,55,87
			c1.034,0,2.021-0.43,2.726-1.187c0.705-0.757,1.063-1.772,0.989-2.803l-0.304-4.257c4.073-0.583,7.82-2.187,10.969-4.551
			l2.799,3.23c0.677,0.781,1.648,1.246,2.682,1.283c1.033,0.037,2.035-0.357,2.766-1.088s1.125-1.733,1.088-2.767
			c-0.037-1.033-0.501-2.004-1.283-2.682l-3.23-2.799c2.364-3.149,3.968-6.896,4.551-10.969l4.257,0.304
			c1.031,0.074,2.047-0.285,2.803-0.989C86.57,57.021,87,56.034,87,55S86.57,52.979,85.813,52.274z M58.124,35.269
			c3.185,0.503,6.116,1.752,8.616,3.574l-9.668,11.156L58.124,35.269z M51.876,35.269l1.052,14.73L43.26,38.843
			C45.761,37.021,48.692,35.772,51.876,35.269z M38.843,43.26l11.156,9.668l-14.73-1.052C35.772,48.692,37.021,45.761,38.843,43.26z
			 M38.843,66.74c-1.822-2.5-3.071-5.432-3.574-8.616l14.73-1.052L38.843,66.74z M51.876,74.731
			c-3.185-0.503-6.116-1.752-8.616-3.574l9.668-11.156L51.876,74.731z M58.124,74.731l-1.052-14.73l9.668,11.156
			C64.239,72.979,61.308,74.228,58.124,74.731z M71.157,66.74l-11.156-9.668l14.73,1.052C74.228,61.308,72.979,64.239,71.157,66.74z
			 M60.001,52.929l11.156-9.668c1.822,2.5,3.071,5.432,3.574,8.616L60.001,52.929z"/>
		<path style="fill:#84462D;" d="M74.861,31.284c-1.034,0.037-2.005,0.501-2.682,1.283l-2.799,3.23
			c-3.149-2.364-6.896-3.968-10.969-4.551l0.304-4.257c0.074-1.031-0.285-2.046-0.989-2.803C57.021,23.43,56.034,23,55,23
			c-1.034,0-2.021,0.43-2.726,1.187c-0.705,0.757-1.063,1.772-0.989,2.803l0.304,4.257c-4.073,0.583-7.82,2.187-10.969,4.551
			l-2.799-3.23c-0.677-0.781-1.648-1.246-2.682-1.283c-1.034-0.037-2.036,0.357-2.767,1.088s-1.125,1.733-1.088,2.767
			c0.037,1.033,0.501,2.004,1.283,2.682l3.23,2.799c-2.364,3.149-3.968,6.896-4.551,10.969l-4.257-0.304
			c-1.031-0.074-2.046,0.285-2.803,0.989C23.43,52.979,23,53.966,23,55s0.43,2.021,1.187,2.726c0.757,0.705,1.772,1.063,2.803,0.989
			l4.257-0.304c0.583,4.073,2.187,7.82,4.551,10.969l-3.23,2.799c-0.781,0.677-1.246,1.648-1.283,2.682
			c-0.037,1.026,0.354,2.019,1.074,2.749l45.251-45.251C76.88,31.637,75.887,31.247,74.861,31.284z M38.843,66.74
			c-1.822-2.5-3.071-5.432-3.574-8.616l14.73-1.052L38.843,66.74z M35.269,51.876c0.503-3.185,1.752-6.116,3.574-8.616l11.156,9.668
			L35.269,51.876z M43.26,38.843c2.5-1.822,5.432-3.071,8.616-3.574l1.052,14.73L43.26,38.843z M57.071,49.999l1.052-14.73
			c3.185,0.503,6.116,1.752,8.616,3.574L57.071,49.999z"/>
		<circle style="fill:#84462D;" cx="55" cy="55" r="10"/>
		<path style="fill:#9C6144;" d="M55,45c-5.523,0-10,4.477-10,10c0,2.753,1.113,5.246,2.913,7.054l14.141-14.141
			C60.246,46.113,57.753,45,55,45z"/>
		<circle style="fill:#CFD3D4;" cx="55" cy="55" r="4"/>
		<path style="fill:#F0F1F1;" d="M55,51c-2.209,0-4,1.791-4,4c0,1.098,0.443,2.091,1.16,2.814l5.655-5.655
			C57.091,51.443,56.098,51,55,51z"/>
	</g>
</g>
<g id="Multicolor" style="display:none;">
	<g style="display:inline;">
		<path style="fill:#692E19;" d="M85.813,52.274c-0.756-0.705-1.772-1.063-2.803-0.989l-4.257,0.304
			c-0.583-4.073-2.187-7.82-4.551-10.969l3.23-2.799c0.781-0.677,1.246-1.648,1.283-2.682c0.037-1.034-0.357-2.036-1.088-2.767
			s-1.733-1.125-2.766-1.088c-1.034,0.037-2.005,0.501-2.682,1.283l-2.799,3.23c-3.149-2.364-6.896-3.968-10.969-4.551l0.304-4.257
			c0.074-1.031-0.285-2.046-0.989-2.803C57.021,23.43,56.034,23,55,23c-1.034,0-2.021,0.43-2.726,1.187
			c-0.705,0.757-1.063,1.772-0.989,2.803l0.304,4.257c-4.073,0.583-7.82,2.187-10.969,4.551l-2.799-3.23
			c-0.677-0.781-1.648-1.246-2.682-1.283c-1.034-0.037-2.036,0.357-2.767,1.088s-1.125,1.733-1.088,2.767
			c0.037,1.033,0.501,2.004,1.283,2.682l3.23,2.799c-2.364,3.149-3.968,6.896-4.551,10.969l-4.257-0.304
			c-1.031-0.074-2.046,0.285-2.803,0.989C23.43,52.979,23,53.966,23,55s0.43,2.021,1.187,2.726c0.757,0.705,1.772,1.063,2.803,0.989
			l4.257-0.304c0.583,4.073,2.187,7.82,4.551,10.969l-3.23,2.799c-0.781,0.677-1.246,1.648-1.283,2.682
			c-0.037,1.034,0.357,2.036,1.088,2.767s1.733,1.125,2.767,1.088c1.033-0.037,2.004-0.501,2.682-1.283l2.799-3.23
			c3.149,2.364,6.896,3.968,10.969,4.551l-0.304,4.257c-0.074,1.031,0.285,2.046,0.989,2.803C52.979,86.57,53.966,87,55,87
			c1.034,0,2.021-0.43,2.726-1.187c0.705-0.757,1.063-1.772,0.989-2.803l-0.304-4.257c4.073-0.583,7.82-2.187,10.969-4.551
			l2.799,3.23c0.677,0.781,1.648,1.246,2.682,1.283c1.033,0.037,2.035-0.357,2.766-1.088s1.125-1.733,1.088-2.767
			c-0.037-1.033-0.501-2.004-1.283-2.682l-3.23-2.799c2.364-3.149,3.968-6.896,4.551-10.969l4.257,0.304
			c1.031,0.074,2.047-0.285,2.803-0.989C86.57,57.021,87,56.034,87,55S86.57,52.979,85.813,52.274z M58.124,35.269
			c3.185,0.503,6.116,1.752,8.616,3.574l-9.668,11.156L58.124,35.269z M51.876,35.269l1.052,14.73L43.26,38.843
			C45.761,37.021,48.692,35.772,51.876,35.269z M38.843,43.26l11.156,9.668l-14.73-1.052C35.772,48.692,37.021,45.761,38.843,43.26z
			 M38.843,66.74c-1.822-2.5-3.071-5.432-3.574-8.616l14.73-1.052L38.843,66.74z M51.876,74.731
			c-3.185-0.503-6.116-1.752-8.616-3.574l9.668-11.156L51.876,74.731z M58.124,74.731l-1.052-14.73l9.668,11.156
			C64.239,72.979,61.308,74.228,58.124,74.731z M71.157,66.74l-11.156-9.668l14.73,1.052C74.228,61.308,72.979,64.239,71.157,66.74z
			 M60.001,52.929l11.156-9.668c1.822,2.5,3.071,5.432,3.574,8.616L60.001,52.929z"/>
		<path style="fill:#84462D;" d="M74.861,31.284c-1.034,0.037-2.005,0.501-2.682,1.283l-2.799,3.23
			c-3.149-2.364-6.896-3.968-10.969-4.551l0.304-4.257c0.074-1.031-0.285-2.046-0.989-2.803C57.021,23.43,56.034,23,55,23
			c-1.034,0-2.021,0.43-2.726,1.187c-0.705,0.757-1.063,1.772-0.989,2.803l0.304,4.257c-4.073,0.583-7.82,2.187-10.969,4.551
			l-2.799-3.23c-0.677-0.781-1.648-1.246-2.682-1.283c-1.034-0.037-2.036,0.357-2.767,1.088s-1.125,1.733-1.088,2.767
			c0.037,1.033,0.501,2.004,1.283,2.682l3.23,2.799c-2.364,3.149-3.968,6.896-4.551,10.969l-4.257-0.304
			c-1.031-0.074-2.046,0.285-2.803,0.989C23.43,52.979,23,53.966,23,55s0.43,2.021,1.187,2.726c0.757,0.705,1.772,1.063,2.803,0.989
			l4.257-0.304c0.583,4.073,2.187,7.82,4.551,10.969l-3.23,2.799c-0.781,0.677-1.246,1.648-1.283,2.682
			c-0.037,1.026,0.354,2.019,1.074,2.749l45.251-45.251C76.88,31.637,75.887,31.247,74.861,31.284z M38.843,66.74
			c-1.822-2.5-3.071-5.432-3.574-8.616l14.73-1.052L38.843,66.74z M35.269,51.876c0.503-3.185,1.752-6.116,3.574-8.616l11.156,9.668
			L35.269,51.876z M43.26,38.843c2.5-1.822,5.432-3.071,8.616-3.574l1.052,14.73L43.26,38.843z M57.071,49.999l1.052-14.73
			c3.185,0.503,6.116,1.752,8.616,3.574L57.071,49.999z"/>
		<circle style="fill:#84462D;" cx="55" cy="55" r="10"/>
		<path style="fill:#9C6144;" d="M55,45c-5.523,0-10,4.477-10,10c0,2.753,1.113,5.246,2.913,7.054l14.141-14.141
			C60.246,46.113,57.753,45,55,45z"/>
		<circle style="fill:#CFD3D4;" cx="55" cy="55" r="4"/>
		<path style="fill:#F0F1F1;" d="M55,51c-2.209,0-4,1.791-4,4c0,1.098,0.443,2.091,1.16,2.814l5.655-5.655
			C57.091,51.443,56.098,51,55,51z"/>
	</g>
</g>
<g id="Blue" style="display:none;">
	<g style="display:inline;">
		<g>
			<path style="fill:#0C333D;" d="M85.816,52.274c-0.756-0.705-1.772-1.063-2.803-0.989l-4.257,0.304
				c-0.582-4.073-2.187-7.82-4.551-10.969l3.23-2.799c0.781-0.677,1.246-1.648,1.283-2.682c0.037-1.034-0.357-2.036-1.088-2.767
				c-0.731-0.731-1.733-1.125-2.766-1.088c-1.034,0.037-2.005,0.501-2.682,1.283l-2.799,3.231
				c-3.149-2.364-6.896-3.968-10.969-4.551l0.304-4.257c0.074-1.031-0.285-2.046-0.989-2.803C57.024,23.43,56.037,23,55.003,23
				c-1.034,0-2.021,0.43-2.726,1.187c-0.705,0.757-1.063,1.772-0.989,2.803l0.304,4.257c-4.073,0.583-7.82,2.187-10.969,4.551
				l-2.799-3.231c-0.677-0.781-1.648-1.246-2.682-1.283c-1.034-0.037-2.036,0.357-2.767,1.088c-0.731,0.731-1.125,1.733-1.088,2.767
				c0.037,1.033,0.501,2.004,1.283,2.682l3.23,2.799c-2.364,3.149-3.968,6.896-4.551,10.969l-4.257-0.304
				c-1.031-0.074-2.046,0.285-2.803,0.989c-0.757,0.704-1.187,1.692-1.187,2.726s0.43,2.021,1.187,2.726
				c0.757,0.705,1.772,1.063,2.803,0.989l4.257-0.304c0.583,4.073,2.187,7.82,4.551,10.969l-3.23,2.799
				c-0.781,0.677-1.246,1.648-1.283,2.682c-0.037,1.034,0.357,2.036,1.088,2.767c0.731,0.731,1.733,1.126,2.767,1.088
				c1.033-0.037,2.004-0.501,2.682-1.283l2.799-3.23c3.148,2.364,6.896,3.968,10.969,4.551l-0.304,4.257
				c-0.074,1.031,0.285,2.046,0.989,2.803C52.981,86.57,53.969,87,55.003,87c1.034,0,2.021-0.43,2.726-1.186
				c0.705-0.757,1.063-1.772,0.989-2.803l-0.304-4.257c4.073-0.582,7.82-2.187,10.969-4.551l2.799,3.23
				c0.677,0.781,1.648,1.246,2.682,1.283c1.033,0.037,2.035-0.357,2.766-1.088c0.731-0.731,1.126-1.733,1.088-2.767
				c-0.037-1.033-0.501-2.004-1.283-2.682l-3.23-2.799c2.364-3.149,3.968-6.896,4.551-10.969l4.257,0.304
				c1.031,0.074,2.047-0.285,2.803-0.989c0.757-0.704,1.187-1.692,1.187-2.726S86.573,52.978,85.816,52.274z M58.126,35.268
				c3.185,0.503,6.116,1.753,8.616,3.575l-9.668,11.155L58.126,35.268z M51.879,35.268l1.052,14.73l-9.668-11.155
				C45.764,37.021,48.695,35.772,51.879,35.268z M38.846,43.26l11.155,9.668l-14.73-1.052C35.775,48.692,37.024,45.761,38.846,43.26
				z M38.846,66.74c-1.822-2.5-3.071-5.432-3.575-8.616l14.73-1.052L38.846,66.74z M51.879,74.731
				c-3.185-0.504-6.116-1.753-8.616-3.574l9.668-11.156L51.879,74.731z M58.126,74.731l-1.052-14.73l9.668,11.156
				C64.242,72.978,61.311,74.227,58.126,74.731z M71.16,66.74l-11.156-9.668l14.73,1.052C74.23,61.308,72.981,64.239,71.16,66.74z
				 M60.004,52.929L71.16,43.26c1.822,2.5,3.071,5.432,3.574,8.616L60.004,52.929z"/>
		</g>
		<g>
			<path style="fill:#0F6175;" d="M74.864,31.284c-1.034,0.037-2.005,0.501-2.682,1.283l-2.799,3.231
				c-3.149-2.364-6.896-3.968-10.969-4.551l0.304-4.257c0.074-1.031-0.285-2.046-0.989-2.803C57.024,23.43,56.037,23,55.003,23
				c-1.034,0-2.021,0.43-2.726,1.187c-0.705,0.757-1.063,1.772-0.989,2.803l0.304,4.257c-4.073,0.583-7.82,2.187-10.969,4.551
				l-2.799-3.231c-0.677-0.781-1.648-1.246-2.682-1.283c-1.034-0.037-2.036,0.357-2.767,1.088c-0.731,0.731-1.125,1.733-1.088,2.767
				c0.037,1.033,0.501,2.004,1.283,2.682l3.23,2.799c-2.364,3.149-3.968,6.896-4.551,10.969l-4.257-0.304
				c-1.031-0.074-2.046,0.285-2.803,0.989c-0.757,0.704-1.187,1.692-1.187,2.726s0.43,2.021,1.187,2.726
				c0.757,0.705,1.772,1.063,2.803,0.989l4.257-0.304c0.583,4.073,2.187,7.82,4.551,10.969l-3.23,2.799
				c-0.781,0.677-1.246,1.648-1.283,2.682c-0.037,1.026,0.354,2.019,1.074,2.749l45.251-45.252
				C76.883,31.637,75.89,31.247,74.864,31.284z M38.846,66.74c-1.822-2.5-3.071-5.432-3.575-8.616l14.73-1.052L38.846,66.74z
				 M35.271,51.876c0.503-3.185,1.753-6.116,3.575-8.616l11.155,9.668L35.271,51.876z M43.263,38.843
				c2.5-1.822,5.432-3.071,8.616-3.575l1.052,14.73L43.263,38.843z M57.074,49.998l1.052-14.73c3.185,0.503,6.116,1.753,8.616,3.575
				L57.074,49.998z"/>
		</g>
		<g>
			<circle style="fill:#0081A1;" cx="55.003" cy="55" r="10"/>
		</g>
		<g>
			<path style="fill:#009FC7;" d="M55.003,45c-5.523,0-10,4.477-10,10c0,2.753,1.113,5.246,2.913,7.054l14.141-14.141
				C60.248,46.113,57.756,45,55.003,45z"/>
		</g>
		<g>
			<circle style="fill:#BBE7F2;" cx="55.003" cy="55" r="4"/>
		</g>
		<g>
			<path style="fill:#FFFFFF;" d="M55.003,51c-2.209,0-4,1.791-4,4c0,1.098,0.443,2.091,1.16,2.814l5.655-5.655
				C57.094,51.443,56.101,51,55.003,51z"/>
		</g>
	</g>
</g>
<g id="R-Blue" style="display:none;">
	<g style="display:inline;">
		<circle style="fill:#81D2EB;" cx="55" cy="55" r="55"/>
	</g>
	<g style="display:inline;">
		<g>
			<path style="fill:#0C333D;" d="M85.813,52.274c-0.756-0.705-1.772-1.063-2.803-0.989l-4.257,0.304
				c-0.583-4.073-2.187-7.82-4.551-10.969l3.23-2.799c0.781-0.677,1.246-1.648,1.283-2.682c0.037-1.034-0.357-2.036-1.088-2.767
				c-0.731-0.731-1.733-1.125-2.766-1.088c-1.034,0.037-2.005,0.501-2.682,1.283l-2.799,3.231
				c-3.149-2.364-6.896-3.968-10.969-4.551l0.304-4.257c0.074-1.031-0.285-2.046-0.989-2.803C57.021,23.43,56.034,23,55,23
				c-1.034,0-2.021,0.43-2.726,1.187c-0.705,0.757-1.063,1.772-0.989,2.803l0.304,4.257c-4.073,0.583-7.82,2.187-10.969,4.551
				l-2.799-3.231c-0.677-0.781-1.648-1.246-2.682-1.283c-1.034-0.037-2.036,0.357-2.767,1.088c-0.731,0.731-1.125,1.733-1.088,2.767
				c0.037,1.033,0.501,2.004,1.283,2.682l3.23,2.799c-2.364,3.149-3.968,6.896-4.551,10.969l-4.257-0.304
				c-1.031-0.074-2.046,0.285-2.803,0.989C23.43,52.979,23,53.966,23,55s0.43,2.021,1.187,2.726
				c0.757,0.705,1.772,1.063,2.803,0.989l4.257-0.304c0.583,4.073,2.187,7.82,4.551,10.969l-3.23,2.799
				c-0.781,0.677-1.246,1.648-1.283,2.682c-0.037,1.034,0.357,2.036,1.088,2.767c0.731,0.731,1.733,1.125,2.767,1.088
				c1.033-0.037,2.004-0.501,2.682-1.283l2.799-3.23c3.148,2.364,6.896,3.968,10.969,4.551l-0.304,4.257
				c-0.074,1.031,0.285,2.046,0.989,2.803C52.979,86.57,53.966,87,55,87c1.034,0,2.021-0.43,2.726-1.187
				c0.705-0.757,1.063-1.772,0.989-2.803l-0.304-4.257c4.073-0.583,7.82-2.187,10.969-4.551l2.799,3.23
				c0.677,0.781,1.648,1.246,2.682,1.283c1.033,0.037,2.035-0.357,2.766-1.088c0.731-0.731,1.125-1.733,1.088-2.767
				c-0.037-1.033-0.501-2.004-1.283-2.682l-3.23-2.799c2.364-3.149,3.968-6.896,4.551-10.969l4.257,0.304
				c1.031,0.074,2.047-0.285,2.803-0.989C86.57,57.021,87,56.034,87,55S86.57,52.979,85.813,52.274z M58.124,35.269
				c3.185,0.503,6.116,1.753,8.616,3.575l-9.668,11.155L58.124,35.269z M51.876,35.269l1.052,14.73L43.26,38.843
				C45.761,37.021,48.692,35.772,51.876,35.269z M38.843,43.26l11.155,9.668l-14.73-1.052C35.772,48.692,37.021,45.761,38.843,43.26
				z M38.843,66.74c-1.822-2.5-3.071-5.432-3.575-8.616l14.73-1.052L38.843,66.74z M51.876,74.731
				c-3.185-0.504-6.116-1.753-8.616-3.574l9.668-11.156L51.876,74.731z M58.124,74.731l-1.052-14.73l9.668,11.156
				C64.239,72.979,61.308,74.228,58.124,74.731z M71.157,66.74l-11.156-9.668l14.73,1.052C74.228,61.308,72.979,64.239,71.157,66.74
				z M60.001,52.929l11.156-9.668c1.822,2.5,3.071,5.432,3.574,8.616L60.001,52.929z"/>
		</g>
		<g>
			<path style="fill:#0F6175;" d="M74.861,31.284c-1.034,0.037-2.005,0.501-2.682,1.283l-2.799,3.231
				c-3.149-2.364-6.896-3.968-10.969-4.551l0.304-4.257c0.074-1.031-0.285-2.046-0.989-2.803C57.021,23.43,56.034,23,55,23
				c-1.034,0-2.021,0.43-2.726,1.187c-0.705,0.757-1.063,1.772-0.989,2.803l0.304,4.257c-4.073,0.583-7.82,2.187-10.969,4.551
				l-2.799-3.231c-0.677-0.781-1.648-1.246-2.682-1.283c-1.034-0.037-2.036,0.357-2.767,1.088c-0.731,0.731-1.125,1.733-1.088,2.767
				c0.037,1.033,0.501,2.004,1.283,2.682l3.23,2.799c-2.364,3.149-3.968,6.896-4.551,10.969l-4.257-0.304
				c-1.031-0.074-2.046,0.285-2.803,0.989C23.43,52.979,23,53.966,23,55s0.43,2.021,1.187,2.726
				c0.757,0.705,1.772,1.063,2.803,0.989l4.257-0.304c0.583,4.073,2.187,7.82,4.551,10.969l-3.23,2.799
				c-0.781,0.677-1.246,1.648-1.283,2.682c-0.037,1.026,0.354,2.019,1.074,2.749l45.251-45.251
				C76.88,31.637,75.887,31.247,74.861,31.284z M38.843,66.74c-1.822-2.5-3.071-5.432-3.575-8.616l14.73-1.052L38.843,66.74z
				 M35.269,51.876c0.503-3.185,1.753-6.116,3.575-8.616l11.155,9.668L35.269,51.876z M43.26,38.843
				c2.5-1.822,5.432-3.071,8.616-3.575l1.052,14.73L43.26,38.843z M57.071,49.999l1.052-14.73c3.185,0.503,6.116,1.753,8.616,3.575
				L57.071,49.999z"/>
		</g>
		<g>
			<circle style="fill:#0081A1;" cx="55" cy="55" r="10"/>
		</g>
		<g>
			<path style="fill:#009FC7;" d="M55,45c-5.523,0-10,4.477-10,10c0,2.753,1.113,5.246,2.913,7.054l14.141-14.141
				C60.246,46.113,57.753,45,55,45z"/>
		</g>
		<g>
			<circle style="fill:#BBE7F2;" cx="55" cy="55" r="4"/>
		</g>
		<g>
			<path style="fill:#FFFFFF;" d="M55,51c-2.209,0-4,1.791-4,4c0,1.098,0.443,2.091,1.16,2.814l5.655-5.655
				C57.091,51.443,56.098,51,55,51z"/>
		</g>
	</g>
</g>
<g id="Green" style="display:none;">
	<g style="display:inline;">
		<g>
			<path style="fill:#0A3631;" d="M85.816,52.274c-0.756-0.705-1.772-1.063-2.803-0.989l-4.257,0.304
				c-0.582-4.073-2.187-7.82-4.551-10.969l3.23-2.799c0.781-0.677,1.246-1.648,1.283-2.682c0.037-1.034-0.357-2.036-1.088-2.767
				c-0.731-0.731-1.733-1.125-2.766-1.088c-1.034,0.037-2.005,0.501-2.682,1.283l-2.799,3.231
				c-3.149-2.364-6.896-3.968-10.969-4.551l0.304-4.257c0.074-1.031-0.285-2.046-0.989-2.803C57.024,23.43,56.037,23,55.003,23
				c-1.034,0-2.021,0.43-2.726,1.187c-0.705,0.757-1.063,1.772-0.989,2.803l0.304,4.257c-4.073,0.583-7.82,2.187-10.969,4.551
				l-2.799-3.231c-0.677-0.781-1.648-1.246-2.682-1.283c-1.034-0.037-2.036,0.357-2.767,1.088c-0.731,0.731-1.125,1.733-1.088,2.767
				c0.037,1.033,0.501,2.004,1.283,2.682l3.23,2.799c-2.364,3.149-3.968,6.896-4.551,10.969l-4.257-0.304
				c-1.031-0.074-2.046,0.285-2.803,0.989c-0.757,0.704-1.187,1.692-1.187,2.726s0.43,2.021,1.187,2.726
				c0.757,0.705,1.772,1.063,2.803,0.989l4.257-0.304c0.583,4.073,2.187,7.82,4.551,10.969l-3.23,2.799
				c-0.781,0.677-1.246,1.648-1.283,2.682c-0.037,1.034,0.357,2.036,1.088,2.767c0.731,0.731,1.733,1.125,2.767,1.088
				c1.033-0.037,2.004-0.501,2.682-1.283l2.799-3.23c3.148,2.364,6.896,3.968,10.969,4.551l-0.304,4.257
				c-0.074,1.031,0.285,2.046,0.989,2.803C52.981,86.57,53.969,87,55.003,87c1.034,0,2.021-0.43,2.726-1.187
				c0.705-0.757,1.063-1.772,0.989-2.803l-0.304-4.257c4.073-0.583,7.82-2.187,10.969-4.551l2.799,3.23
				c0.677,0.781,1.648,1.246,2.682,1.283c1.033,0.037,2.035-0.357,2.766-1.088c0.731-0.731,1.126-1.733,1.088-2.767
				c-0.037-1.033-0.501-2.004-1.283-2.682l-3.23-2.799c2.364-3.149,3.968-6.896,4.551-10.969l4.257,0.304
				c1.031,0.074,2.047-0.285,2.803-0.989c0.757-0.704,1.187-1.692,1.187-2.726S86.573,52.979,85.816,52.274z M58.126,35.269
				c3.185,0.503,6.116,1.753,8.616,3.575l-9.668,11.155L58.126,35.269z M51.879,35.269l1.052,14.73l-9.668-11.155
				C45.764,37.021,48.695,35.772,51.879,35.269z M38.846,43.26l11.155,9.668l-14.73-1.052C35.775,48.692,37.024,45.761,38.846,43.26
				z M38.846,66.74c-1.822-2.5-3.071-5.432-3.575-8.616l14.73-1.052L38.846,66.74z M51.879,74.731
				c-3.185-0.504-6.116-1.753-8.616-3.574l9.668-11.156L51.879,74.731z M58.126,74.731l-1.052-14.73l9.668,11.156
				C64.242,72.979,61.311,74.228,58.126,74.731z M71.16,66.74l-11.156-9.668l14.73,1.052C74.23,61.308,72.981,64.239,71.16,66.74z
				 M60.004,52.929L71.16,43.26c1.822,2.5,3.071,5.432,3.574,8.616L60.004,52.929z"/>
		</g>
		<g>
			<path style="fill:#14635B;" d="M74.864,31.284c-1.034,0.037-2.005,0.501-2.682,1.283l-2.799,3.231
				c-3.149-2.364-6.896-3.968-10.969-4.551l0.304-4.257c0.074-1.031-0.285-2.046-0.989-2.803C57.024,23.43,56.037,23,55.003,23
				c-1.034,0-2.021,0.43-2.726,1.187c-0.705,0.757-1.063,1.772-0.989,2.803l0.304,4.257c-4.073,0.583-7.82,2.187-10.969,4.551
				l-2.799-3.231c-0.677-0.781-1.648-1.246-2.682-1.283c-1.034-0.037-2.036,0.357-2.767,1.088c-0.731,0.731-1.125,1.733-1.088,2.767
				c0.037,1.033,0.501,2.004,1.283,2.682l3.23,2.799c-2.364,3.149-3.968,6.896-4.551,10.969l-4.257-0.304
				c-1.031-0.074-2.046,0.285-2.803,0.989c-0.757,0.704-1.187,1.692-1.187,2.726s0.43,2.021,1.187,2.726
				c0.757,0.705,1.772,1.063,2.803,0.989l4.257-0.304c0.583,4.073,2.187,7.82,4.551,10.969l-3.23,2.799
				c-0.781,0.677-1.246,1.648-1.283,2.682c-0.037,1.026,0.354,2.019,1.074,2.749l45.251-45.251
				C76.883,31.637,75.89,31.247,74.864,31.284z M38.846,66.74c-1.822-2.5-3.071-5.432-3.575-8.616l14.73-1.052L38.846,66.74z
				 M35.271,51.876c0.503-3.185,1.753-6.116,3.575-8.616l11.155,9.668L35.271,51.876z M43.263,38.843
				c2.5-1.822,5.432-3.071,8.616-3.575l1.052,14.73L43.263,38.843z M57.074,49.999l1.052-14.73c3.185,0.503,6.116,1.753,8.616,3.575
				L57.074,49.999z"/>
		</g>
		<g>
			<circle style="fill:#009687;" cx="55.003" cy="55" r="10"/>
		</g>
		<g>
			<path style="fill:#00B8A5;" d="M55.003,45c-5.523,0-10,4.477-10,10c0,2.753,1.113,5.246,2.913,7.054l14.141-14.141
				C60.248,46.113,57.756,45,55.003,45z"/>
		</g>
		<g>
			<circle style="fill:#AAF0E9;" cx="55.003" cy="55" r="4"/>
		</g>
		<g>
			<path style="fill:#FFFFFF;" d="M55.003,51c-2.209,0-4,1.791-4,4c0,1.098,0.443,2.091,1.16,2.814l5.655-5.655
				C57.094,51.443,56.101,51,55.003,51z"/>
		</g>
	</g>
</g>
<g id="R-Green" style="display:none;">
	<g style="display:inline;">
		<circle style="fill:#87E0C8;" cx="55" cy="55" r="55"/>
	</g>
	<g style="display:inline;">
		<g>
			<path style="fill:#0A3631;" d="M85.813,52.274c-0.756-0.705-1.772-1.063-2.803-0.989l-4.257,0.304
				c-0.583-4.073-2.187-7.82-4.551-10.969l3.23-2.799c0.781-0.677,1.246-1.648,1.283-2.682c0.037-1.034-0.357-2.036-1.088-2.767
				c-0.731-0.731-1.733-1.125-2.766-1.088c-1.034,0.037-2.005,0.501-2.682,1.283l-2.799,3.231
				c-3.149-2.364-6.896-3.968-10.969-4.551l0.304-4.257c0.074-1.031-0.285-2.046-0.989-2.803C57.021,23.43,56.034,23,55,23
				c-1.034,0-2.021,0.43-2.726,1.187c-0.705,0.757-1.063,1.772-0.989,2.803l0.304,4.257c-4.073,0.583-7.82,2.187-10.969,4.551
				l-2.799-3.231c-0.677-0.781-1.648-1.246-2.682-1.283c-1.034-0.037-2.036,0.357-2.767,1.088c-0.731,0.731-1.125,1.733-1.088,2.767
				c0.037,1.033,0.501,2.004,1.283,2.682l3.23,2.799c-2.364,3.149-3.968,6.896-4.551,10.969l-4.257-0.304
				c-1.031-0.074-2.046,0.285-2.803,0.989C23.43,52.979,23,53.966,23,55s0.43,2.021,1.187,2.726
				c0.757,0.705,1.772,1.063,2.803,0.989l4.257-0.304c0.583,4.073,2.187,7.82,4.551,10.969l-3.23,2.799
				c-0.781,0.677-1.246,1.648-1.283,2.682c-0.037,1.034,0.357,2.036,1.088,2.767c0.731,0.731,1.733,1.125,2.767,1.088
				c1.033-0.037,2.004-0.501,2.682-1.283l2.799-3.23c3.148,2.364,6.896,3.968,10.969,4.551l-0.304,4.257
				c-0.074,1.031,0.285,2.046,0.989,2.803C52.979,86.57,53.966,87,55,87c1.034,0,2.021-0.43,2.726-1.187
				c0.705-0.757,1.063-1.772,0.989-2.803l-0.304-4.257c4.073-0.583,7.82-2.187,10.969-4.551l2.799,3.23
				c0.677,0.781,1.648,1.246,2.682,1.283c1.033,0.037,2.035-0.357,2.766-1.088c0.731-0.731,1.125-1.733,1.088-2.767
				c-0.037-1.033-0.501-2.004-1.283-2.682l-3.23-2.799c2.364-3.149,3.968-6.896,4.551-10.969l4.257,0.304
				c1.031,0.074,2.047-0.285,2.803-0.989C86.57,57.021,87,56.034,87,55S86.57,52.979,85.813,52.274z M58.124,35.269
				c3.185,0.503,6.116,1.753,8.616,3.575l-9.668,11.155L58.124,35.269z M51.876,35.269l1.052,14.73L43.26,38.843
				C45.761,37.021,48.692,35.772,51.876,35.269z M38.843,43.26l11.155,9.668l-14.73-1.052C35.772,48.692,37.021,45.761,38.843,43.26
				z M38.843,66.74c-1.822-2.5-3.071-5.432-3.575-8.616l14.73-1.052L38.843,66.74z M51.876,74.731
				c-3.185-0.504-6.116-1.753-8.616-3.574l9.668-11.156L51.876,74.731z M58.124,74.731l-1.052-14.73l9.668,11.156
				C64.239,72.979,61.308,74.228,58.124,74.731z M71.157,66.74l-11.156-9.668l14.73,1.052C74.228,61.308,72.979,64.239,71.157,66.74
				z M60.001,52.929l11.156-9.668c1.822,2.5,3.071,5.432,3.574,8.616L60.001,52.929z"/>
		</g>
		<g>
			<path style="fill:#14635B;" d="M74.861,31.284c-1.034,0.037-2.005,0.501-2.682,1.283l-2.799,3.231
				c-3.149-2.364-6.896-3.968-10.969-4.551l0.304-4.257c0.074-1.031-0.285-2.046-0.989-2.803C57.021,23.43,56.034,23,55,23
				c-1.034,0-2.021,0.43-2.726,1.187c-0.705,0.757-1.063,1.772-0.989,2.803l0.304,4.257c-4.073,0.583-7.82,2.187-10.969,4.551
				l-2.799-3.231c-0.677-0.781-1.648-1.246-2.682-1.283c-1.034-0.037-2.036,0.357-2.767,1.088c-0.731,0.731-1.125,1.733-1.088,2.767
				c0.037,1.033,0.501,2.004,1.283,2.682l3.23,2.799c-2.364,3.149-3.968,6.896-4.551,10.969l-4.257-0.304
				c-1.031-0.074-2.046,0.285-2.803,0.989C23.43,52.979,23,53.966,23,55s0.43,2.021,1.187,2.726
				c0.757,0.705,1.772,1.063,2.803,0.989l4.257-0.304c0.583,4.073,2.187,7.82,4.551,10.969l-3.23,2.799
				c-0.781,0.677-1.246,1.648-1.283,2.682c-0.037,1.026,0.354,2.019,1.074,2.749l45.251-45.251
				C76.88,31.637,75.887,31.247,74.861,31.284z M38.843,66.74c-1.822-2.5-3.071-5.432-3.575-8.616l14.73-1.052L38.843,66.74z
				 M35.269,51.876c0.503-3.185,1.753-6.116,3.575-8.616l11.155,9.668L35.269,51.876z M43.26,38.843
				c2.5-1.822,5.432-3.071,8.616-3.575l1.052,14.73L43.26,38.843z M57.071,49.999l1.052-14.73c3.185,0.503,6.116,1.753,8.616,3.575
				L57.071,49.999z"/>
		</g>
		<g>
			<circle style="fill:#009687;" cx="55" cy="55" r="10"/>
		</g>
		<g>
			<path style="fill:#00B8A5;" d="M55,45c-5.523,0-10,4.477-10,10c0,2.753,1.113,5.246,2.913,7.054l14.141-14.141
				C60.246,46.113,57.753,45,55,45z"/>
		</g>
		<g>
			<circle style="fill:#AAF0E9;" cx="55" cy="55" r="4"/>
		</g>
		<g>
			<path style="fill:#FFFFFF;" d="M55,51c-2.209,0-4,1.791-4,4c0,1.098,0.443,2.091,1.16,2.814l5.655-5.655
				C57.091,51.443,56.098,51,55,51z"/>
		</g>
	</g>
</g>
<g id="Red" style="display:none;">
	<g style="display:inline;">
		<g>
			<path style="fill:#4A1410;" d="M85.813,52.274c-0.756-0.705-1.772-1.063-2.803-0.989l-4.257,0.304
				c-0.583-4.073-2.187-7.82-4.551-10.969l3.23-2.799c0.781-0.677,1.246-1.648,1.283-2.682c0.037-1.034-0.357-2.036-1.088-2.767
				c-0.731-0.731-1.733-1.125-2.766-1.088c-1.034,0.037-2.005,0.501-2.682,1.283l-2.799,3.231
				c-3.149-2.364-6.896-3.968-10.969-4.551l0.304-4.257c0.074-1.031-0.285-2.046-0.989-2.803C57.021,23.43,56.034,23,55,23
				c-1.034,0-2.021,0.43-2.726,1.187c-0.705,0.757-1.063,1.772-0.989,2.803l0.304,4.257c-4.073,0.583-7.82,2.187-10.969,4.551
				l-2.799-3.231c-0.677-0.781-1.648-1.246-2.682-1.283c-1.034-0.037-2.036,0.357-2.767,1.088c-0.731,0.731-1.125,1.733-1.088,2.767
				c0.037,1.033,0.501,2.004,1.283,2.682l3.23,2.799c-2.364,3.149-3.968,6.896-4.551,10.969l-4.257-0.304
				c-1.031-0.074-2.046,0.285-2.803,0.989C23.43,52.978,23,53.966,23,55s0.43,2.021,1.187,2.726
				c0.757,0.705,1.772,1.063,2.803,0.989l4.257-0.304c0.583,4.073,2.187,7.82,4.551,10.969l-3.23,2.799
				c-0.781,0.677-1.246,1.648-1.283,2.682c-0.037,1.034,0.357,2.036,1.088,2.767c0.731,0.731,1.733,1.126,2.767,1.088
				c1.033-0.037,2.004-0.501,2.682-1.283l2.799-3.23c3.148,2.364,6.896,3.968,10.969,4.551l-0.304,4.257
				c-0.074,1.031,0.285,2.046,0.989,2.803C52.979,86.57,53.966,87,55,87c1.034,0,2.021-0.43,2.726-1.186
				c0.705-0.757,1.063-1.772,0.989-2.803l-0.304-4.257c4.073-0.582,7.82-2.187,10.969-4.551l2.799,3.23
				c0.677,0.781,1.648,1.246,2.682,1.283c1.033,0.037,2.035-0.357,2.766-1.088c0.731-0.731,1.125-1.733,1.088-2.767
				c-0.037-1.033-0.501-2.004-1.283-2.682l-3.23-2.799c2.364-3.149,3.968-6.896,4.551-10.969l4.257,0.304
				c1.031,0.074,2.047-0.285,2.803-0.989C86.57,57.021,87,56.034,87,55S86.57,52.978,85.813,52.274z M58.124,35.268
				c3.185,0.503,6.116,1.753,8.616,3.575l-9.668,11.155L58.124,35.268z M51.876,35.268l1.052,14.73L43.26,38.843
				C45.761,37.021,48.692,35.772,51.876,35.268z M38.843,43.26l11.155,9.668l-14.73-1.052C35.772,48.692,37.021,45.761,38.843,43.26
				z M38.843,66.74c-1.822-2.5-3.071-5.432-3.575-8.616l14.73-1.052L38.843,66.74z M51.876,74.731
				c-3.185-0.504-6.116-1.753-8.616-3.574l9.668-11.156L51.876,74.731z M58.124,74.731l-1.052-14.73l9.668,11.156
				C64.239,72.978,61.308,74.227,58.124,74.731z M71.157,66.74l-11.156-9.668l14.73,1.052C74.228,61.308,72.979,64.239,71.157,66.74
				z M60.001,52.929l11.156-9.668c1.822,2.5,3.071,5.432,3.574,8.616L60.001,52.929z"/>
		</g>
		<g>
			<path style="fill:#7D261E;" d="M74.861,31.284c-1.034,0.037-2.005,0.501-2.682,1.283l-2.799,3.231
				c-3.149-2.364-6.896-3.968-10.969-4.551l0.304-4.257c0.074-1.031-0.285-2.046-0.989-2.803C57.021,23.43,56.034,23,55,23
				c-1.034,0-2.021,0.43-2.726,1.187c-0.705,0.757-1.063,1.772-0.989,2.803l0.304,4.257c-4.073,0.583-7.82,2.187-10.969,4.551
				l-2.799-3.231c-0.677-0.781-1.648-1.246-2.682-1.283c-1.034-0.037-2.036,0.357-2.767,1.088c-0.731,0.731-1.125,1.733-1.088,2.767
				c0.037,1.033,0.501,2.004,1.283,2.682l3.23,2.799c-2.364,3.149-3.968,6.896-4.551,10.969l-4.257-0.304
				c-1.031-0.074-2.046,0.285-2.803,0.989C23.43,52.978,23,53.966,23,55s0.43,2.021,1.187,2.726
				c0.757,0.705,1.772,1.063,2.803,0.989l4.257-0.304c0.583,4.073,2.187,7.82,4.551,10.969l-3.23,2.799
				c-0.781,0.677-1.246,1.648-1.283,2.682c-0.037,1.026,0.354,2.019,1.074,2.749l45.251-45.252
				C76.88,31.637,75.887,31.247,74.861,31.284z M38.843,66.74c-1.822-2.5-3.071-5.432-3.575-8.616l14.73-1.052L38.843,66.74z
				 M35.269,51.876c0.503-3.185,1.753-6.116,3.575-8.616l11.155,9.668L35.269,51.876z M43.26,38.843
				c2.5-1.822,5.432-3.071,8.616-3.575l1.052,14.73L43.26,38.843z M57.071,49.998l1.052-14.73c3.185,0.503,6.116,1.753,8.616,3.575
				L57.071,49.998z"/>
		</g>
		<g>
			<circle style="fill:#C23023;" cx="55" cy="55" r="10"/>
		</g>
		<g>
			<path style="fill:#E54B44;" d="M55,45c-5.523,0-10,4.477-10,10c0,2.753,1.113,5.246,2.913,7.054l14.141-14.141
				C60.246,46.113,57.753,45,55,45z"/>
		</g>
		<g>
			<circle style="fill:#FFD7D4;" cx="55" cy="55" r="4"/>
		</g>
		<g>
			<path style="fill:#FFFFFF;" d="M55,51c-2.209,0-4,1.791-4,4c0,1.098,0.443,2.091,1.16,2.814l5.655-5.655
				C57.091,51.443,56.098,51,55,51z"/>
		</g>
	</g>
</g>
<g id="R-Red" style="display:none;">
	<g style="display:inline;">
		<circle style="fill:#FABBAF;" cx="55" cy="55" r="55"/>
	</g>
	<g style="display:inline;">
		<g>
			<path style="fill:#4A1410;" d="M85.813,52.274c-0.756-0.705-1.772-1.063-2.803-0.989l-4.257,0.304
				c-0.583-4.073-2.187-7.82-4.551-10.969l3.23-2.799c0.781-0.677,1.246-1.648,1.283-2.682c0.037-1.034-0.357-2.036-1.088-2.767
				c-0.731-0.731-1.733-1.125-2.766-1.088c-1.034,0.037-2.005,0.501-2.682,1.283l-2.799,3.231
				c-3.149-2.364-6.896-3.968-10.969-4.551l0.304-4.257c0.074-1.031-0.285-2.046-0.989-2.803C57.021,23.43,56.034,23,55,23
				c-1.034,0-2.021,0.43-2.726,1.187c-0.705,0.757-1.063,1.772-0.989,2.803l0.304,4.257c-4.073,0.583-7.82,2.187-10.969,4.551
				l-2.799-3.231c-0.677-0.781-1.648-1.246-2.682-1.283c-1.034-0.037-2.036,0.357-2.767,1.088c-0.731,0.731-1.125,1.733-1.088,2.767
				c0.037,1.033,0.501,2.004,1.283,2.682l3.23,2.799c-2.364,3.149-3.968,6.896-4.551,10.969l-4.257-0.304
				c-1.031-0.074-2.046,0.285-2.803,0.989C23.43,52.979,23,53.966,23,55s0.43,2.021,1.187,2.726
				c0.757,0.705,1.772,1.063,2.803,0.989l4.257-0.304c0.583,4.073,2.187,7.82,4.551,10.969l-3.23,2.799
				c-0.781,0.677-1.246,1.648-1.283,2.682c-0.037,1.034,0.357,2.036,1.088,2.767c0.731,0.731,1.733,1.125,2.767,1.088
				c1.033-0.037,2.004-0.501,2.682-1.283l2.799-3.23c3.148,2.364,6.896,3.968,10.969,4.551l-0.304,4.257
				c-0.074,1.031,0.285,2.046,0.989,2.803C52.979,86.57,53.966,87,55,87c1.034,0,2.021-0.43,2.726-1.187
				c0.705-0.757,1.063-1.772,0.989-2.803l-0.304-4.257c4.073-0.583,7.82-2.187,10.969-4.551l2.799,3.23
				c0.677,0.781,1.648,1.246,2.682,1.283c1.033,0.037,2.035-0.357,2.766-1.088c0.731-0.731,1.125-1.733,1.088-2.767
				c-0.037-1.033-0.501-2.004-1.283-2.682l-3.23-2.799c2.364-3.149,3.968-6.896,4.551-10.969l4.257,0.304
				c1.031,0.074,2.047-0.285,2.803-0.989C86.57,57.021,87,56.034,87,55S86.57,52.979,85.813,52.274z M58.124,35.269
				c3.185,0.503,6.116,1.753,8.616,3.575l-9.668,11.155L58.124,35.269z M51.876,35.269l1.052,14.73L43.26,38.843
				C45.761,37.021,48.692,35.772,51.876,35.269z M38.843,43.26l11.155,9.668l-14.73-1.052C35.772,48.692,37.021,45.761,38.843,43.26
				z M38.843,66.74c-1.822-2.5-3.071-5.432-3.575-8.616l14.73-1.052L38.843,66.74z M51.876,74.731
				c-3.185-0.504-6.116-1.753-8.616-3.574l9.668-11.156L51.876,74.731z M58.124,74.731l-1.052-14.73l9.668,11.156
				C64.239,72.979,61.308,74.228,58.124,74.731z M71.157,66.74l-11.156-9.668l14.73,1.052C74.228,61.308,72.979,64.239,71.157,66.74
				z M60.001,52.929l11.156-9.668c1.822,2.5,3.071,5.432,3.574,8.616L60.001,52.929z"/>
		</g>
		<g>
			<path style="fill:#7D261E;" d="M74.861,31.284c-1.034,0.037-2.005,0.501-2.682,1.283l-2.799,3.231
				c-3.149-2.364-6.896-3.968-10.969-4.551l0.304-4.257c0.074-1.031-0.285-2.046-0.989-2.803C57.021,23.43,56.034,23,55,23
				c-1.034,0-2.021,0.43-2.726,1.187c-0.705,0.757-1.063,1.772-0.989,2.803l0.304,4.257c-4.073,0.583-7.82,2.187-10.969,4.551
				l-2.799-3.231c-0.677-0.781-1.648-1.246-2.682-1.283c-1.034-0.037-2.036,0.357-2.767,1.088c-0.731,0.731-1.125,1.733-1.088,2.767
				c0.037,1.033,0.501,2.004,1.283,2.682l3.23,2.799c-2.364,3.149-3.968,6.896-4.551,10.969l-4.257-0.304
				c-1.031-0.074-2.046,0.285-2.803,0.989C23.43,52.979,23,53.966,23,55s0.43,2.021,1.187,2.726
				c0.757,0.705,1.772,1.063,2.803,0.989l4.257-0.304c0.583,4.073,2.187,7.82,4.551,10.969l-3.23,2.799
				c-0.781,0.677-1.246,1.648-1.283,2.682c-0.037,1.026,0.354,2.019,1.074,2.749l45.251-45.251
				C76.88,31.637,75.887,31.247,74.861,31.284z M38.843,66.74c-1.822-2.5-3.071-5.432-3.575-8.616l14.73-1.052L38.843,66.74z
				 M35.269,51.876c0.503-3.185,1.753-6.116,3.575-8.616l11.155,9.668L35.269,51.876z M43.26,38.843
				c2.5-1.822,5.432-3.071,8.616-3.575l1.052,14.73L43.26,38.843z M57.071,49.999l1.052-14.73c3.185,0.503,6.116,1.753,8.616,3.575
				L57.071,49.999z"/>
		</g>
		<g>
			<circle style="fill:#C23023;" cx="55" cy="55" r="10"/>
		</g>
		<g>
			<path style="fill:#E54B44;" d="M55,45c-5.523,0-10,4.477-10,10c0,2.753,1.113,5.246,2.913,7.054l14.141-14.141
				C60.246,46.113,57.753,45,55,45z"/>
		</g>
		<g>
			<circle style="fill:#FFD7D4;" cx="55" cy="55" r="4"/>
		</g>
		<g>
			<path style="fill:#FFFFFF;" d="M55,51c-2.209,0-4,1.791-4,4c0,1.098,0.443,2.091,1.16,2.814l5.655-5.655
				C57.091,51.443,56.098,51,55,51z"/>
		</g>
	</g>
</g>
<g id="Yellow" style="display:none;">
	<g style="display:inline;">
		<g>
			<path style="fill:#3D320C;" d="M85.816,52.274c-0.756-0.705-1.772-1.063-2.803-0.989l-4.257,0.304
				c-0.582-4.073-2.187-7.82-4.551-10.969l3.23-2.799c0.781-0.677,1.246-1.648,1.283-2.682c0.037-1.034-0.357-2.036-1.088-2.767
				c-0.731-0.731-1.733-1.126-2.766-1.088c-1.034,0.037-2.005,0.501-2.682,1.283l-2.799,3.231
				c-3.149-2.364-6.896-3.968-10.969-4.551l0.304-4.257c0.074-1.031-0.285-2.046-0.989-2.803C57.024,23.43,56.037,23,55.003,23
				c-1.034,0-2.021,0.43-2.726,1.187c-0.705,0.757-1.063,1.772-0.989,2.803l0.304,4.257c-4.073,0.583-7.82,2.187-10.969,4.551
				l-2.799-3.231c-0.677-0.781-1.648-1.246-2.682-1.283c-1.034-0.037-2.036,0.357-2.767,1.088c-0.731,0.731-1.125,1.733-1.088,2.767
				c0.037,1.033,0.501,2.004,1.283,2.682l3.23,2.799c-2.364,3.149-3.968,6.896-4.551,10.969l-4.257-0.304
				c-1.031-0.074-2.046,0.285-2.803,0.989c-0.757,0.704-1.187,1.692-1.187,2.726s0.43,2.021,1.187,2.726
				c0.757,0.705,1.772,1.063,2.803,0.989l4.257-0.304c0.583,4.073,2.187,7.82,4.551,10.969l-3.23,2.799
				c-0.781,0.677-1.246,1.648-1.283,2.682c-0.037,1.034,0.357,2.036,1.088,2.767c0.731,0.731,1.733,1.126,2.767,1.088
				c1.033-0.037,2.004-0.501,2.682-1.283l2.799-3.23c3.148,2.364,6.896,3.968,10.969,4.551l-0.304,4.257
				c-0.074,1.031,0.285,2.046,0.989,2.803C52.981,86.57,53.969,87,55.003,87c1.034,0,2.021-0.43,2.726-1.186
				c0.705-0.757,1.063-1.772,0.989-2.803l-0.304-4.257c4.073-0.582,7.82-2.187,10.969-4.551l2.799,3.23
				c0.677,0.781,1.648,1.246,2.682,1.283c1.033,0.037,2.035-0.357,2.766-1.088c0.731-0.731,1.126-1.733,1.088-2.767
				c-0.037-1.033-0.501-2.004-1.283-2.682l-3.23-2.799c2.364-3.149,3.968-6.896,4.551-10.969l4.257,0.304
				c1.031,0.074,2.047-0.285,2.803-0.989c0.757-0.704,1.187-1.692,1.187-2.726S86.573,52.978,85.816,52.274z M58.126,35.268
				c3.185,0.503,6.116,1.753,8.616,3.575l-9.668,11.155L58.126,35.268z M51.879,35.268l1.052,14.73l-9.668-11.155
				C45.764,37.021,48.695,35.772,51.879,35.268z M38.846,43.26l11.155,9.668l-14.73-1.052C35.775,48.692,37.024,45.761,38.846,43.26
				z M38.846,66.74c-1.822-2.5-3.071-5.432-3.575-8.616l14.73-1.052L38.846,66.74z M51.879,74.731
				c-3.185-0.504-6.116-1.753-8.616-3.574l9.668-11.156L51.879,74.731z M58.126,74.731l-1.052-14.73l9.668,11.156
				C64.242,72.978,61.311,74.227,58.126,74.731z M71.16,66.74l-11.156-9.668l14.73,1.052C74.23,61.308,72.981,64.239,71.16,66.74z
				 M60.004,52.929L71.16,43.26c1.822,2.5,3.071,5.432,3.574,8.616L60.004,52.929z"/>
		</g>
		<g>
			<path style="fill:#66510D;" d="M74.864,31.284c-1.034,0.037-2.005,0.501-2.682,1.283l-2.799,3.231
				c-3.149-2.364-6.896-3.968-10.969-4.551l0.304-4.257c0.074-1.031-0.285-2.046-0.989-2.803C57.024,23.43,56.037,23,55.003,23
				c-1.034,0-2.021,0.43-2.726,1.187c-0.705,0.757-1.063,1.772-0.989,2.803l0.304,4.257c-4.073,0.583-7.82,2.187-10.969,4.551
				l-2.799-3.231c-0.677-0.781-1.648-1.246-2.682-1.283c-1.034-0.037-2.036,0.357-2.767,1.088c-0.731,0.731-1.125,1.733-1.088,2.767
				c0.037,1.033,0.501,2.004,1.283,2.682l3.23,2.799c-2.364,3.149-3.968,6.896-4.551,10.969l-4.257-0.304
				c-1.031-0.074-2.046,0.285-2.803,0.989c-0.757,0.704-1.187,1.692-1.187,2.726s0.43,2.021,1.187,2.726
				c0.757,0.705,1.772,1.063,2.803,0.989l4.257-0.304c0.583,4.073,2.187,7.82,4.551,10.969l-3.23,2.799
				c-0.781,0.677-1.246,1.648-1.283,2.682c-0.037,1.026,0.354,2.019,1.074,2.749l45.251-45.252
				C76.883,31.637,75.89,31.247,74.864,31.284z M38.846,66.74c-1.822-2.5-3.071-5.432-3.575-8.616l14.73-1.052L38.846,66.74z
				 M35.271,51.876c0.503-3.185,1.753-6.116,3.575-8.616l11.155,9.668L35.271,51.876z M43.263,38.843
				c2.5-1.822,5.432-3.071,8.616-3.575l1.052,14.73L43.263,38.843z M57.074,49.998l1.052-14.73c3.185,0.503,6.116,1.753,8.616,3.575
				L57.074,49.998z"/>
		</g>
		<g>
			<circle style="fill:#E07000;" cx="55.003" cy="55" r="10"/>
		</g>
		<g>
			<path style="fill:#FA9200;" d="M55.003,45c-5.523,0-10,4.477-10,10c0,2.753,1.113,5.246,2.913,7.054l14.141-14.141
				C60.248,46.113,57.756,45,55.003,45z"/>
		</g>
		<g>
			<circle style="fill:#FFE9A1;" cx="55.003" cy="55" r="4"/>
		</g>
		<g>
			<path style="fill:#FFFFFF;" d="M55.003,51c-2.209,0-4,1.791-4,4c0,1.098,0.443,2.091,1.16,2.814l5.655-5.655
				C57.094,51.443,56.101,51,55.003,51z"/>
		</g>
	</g>
</g>
<g id="R-Yellow" style="display:none;">
	<g style="display:inline;">
		<circle style="fill:#FFD75E;" cx="55" cy="55" r="55"/>
	</g>
	<g style="display:inline;">
		<g>
			<path style="fill:#3D320C;" d="M85.813,52.274c-0.756-0.705-1.772-1.063-2.803-0.989l-4.257,0.304
				c-0.583-4.073-2.187-7.82-4.551-10.969l3.23-2.799c0.781-0.677,1.246-1.648,1.283-2.682c0.037-1.034-0.357-2.036-1.088-2.767
				c-0.731-0.731-1.733-1.125-2.766-1.088c-1.034,0.037-2.005,0.501-2.682,1.283l-2.799,3.231
				c-3.149-2.364-6.896-3.968-10.969-4.551l0.304-4.257c0.074-1.031-0.285-2.046-0.989-2.803C57.021,23.43,56.034,23,55,23
				c-1.034,0-2.021,0.43-2.726,1.187c-0.705,0.757-1.063,1.772-0.989,2.803l0.304,4.257c-4.073,0.583-7.82,2.187-10.969,4.551
				l-2.799-3.231c-0.677-0.781-1.648-1.246-2.682-1.283c-1.034-0.037-2.036,0.357-2.767,1.088c-0.731,0.731-1.125,1.733-1.088,2.767
				c0.037,1.033,0.501,2.004,1.283,2.682l3.231,2.799c-2.364,3.149-3.968,6.896-4.551,10.969l-4.257-0.304
				c-1.031-0.074-2.046,0.285-2.803,0.989C23.43,52.979,23,53.966,23,55s0.43,2.021,1.187,2.726
				c0.757,0.705,1.772,1.063,2.803,0.989l4.257-0.304c0.583,4.073,2.187,7.82,4.551,10.969l-3.231,2.799
				c-0.781,0.677-1.246,1.648-1.283,2.682c-0.037,1.034,0.357,2.036,1.088,2.767c0.731,0.731,1.733,1.125,2.767,1.088
				c1.033-0.037,2.004-0.501,2.682-1.283l2.799-3.23c3.149,2.364,6.896,3.968,10.969,4.551l-0.304,4.257
				c-0.074,1.031,0.285,2.046,0.989,2.803C52.979,86.57,53.966,87,55,87c1.034,0,2.021-0.43,2.726-1.187
				c0.705-0.757,1.063-1.772,0.989-2.803l-0.304-4.257c4.073-0.583,7.82-2.187,10.969-4.551l2.799,3.23
				c0.677,0.781,1.648,1.246,2.682,1.283c1.033,0.037,2.035-0.357,2.766-1.088c0.731-0.731,1.125-1.733,1.088-2.767
				c-0.037-1.033-0.501-2.004-1.283-2.682l-3.23-2.799c2.364-3.149,3.968-6.896,4.551-10.969l4.257,0.304
				c1.031,0.074,2.047-0.285,2.803-0.989C86.57,57.021,87,56.034,87,55S86.57,52.979,85.813,52.274z M58.124,35.269
				c3.185,0.503,6.116,1.753,8.616,3.575l-9.668,11.155L58.124,35.269z M51.876,35.269l1.052,14.73L43.26,38.843
				C45.761,37.021,48.692,35.772,51.876,35.269z M38.843,43.26l11.155,9.668l-14.73-1.052C35.772,48.692,37.021,45.761,38.843,43.26
				z M38.843,66.74c-1.822-2.5-3.071-5.432-3.575-8.616l14.73-1.052L38.843,66.74z M51.876,74.731
				c-3.185-0.504-6.116-1.753-8.616-3.574l9.668-11.156L51.876,74.731z M58.124,74.731l-1.052-14.73l9.668,11.156
				C64.239,72.979,61.308,74.228,58.124,74.731z M71.157,66.74l-11.156-9.668l14.73,1.052C74.228,61.308,72.979,64.239,71.157,66.74
				z M60.001,52.929l11.156-9.668c1.822,2.5,3.071,5.432,3.574,8.616L60.001,52.929z"/>
		</g>
		<g>
			<path style="fill:#66510D;" d="M74.861,31.284c-1.034,0.037-2.005,0.501-2.682,1.283l-2.799,3.231
				c-3.149-2.364-6.896-3.968-10.969-4.551l0.304-4.257c0.074-1.031-0.285-2.046-0.989-2.803C57.021,23.43,56.034,23,55,23
				c-1.034,0-2.021,0.43-2.726,1.187c-0.705,0.757-1.063,1.772-0.989,2.803l0.304,4.257c-4.073,0.583-7.82,2.187-10.969,4.551
				l-2.799-3.231c-0.677-0.781-1.648-1.246-2.682-1.283c-1.034-0.037-2.036,0.357-2.767,1.088c-0.731,0.731-1.125,1.733-1.088,2.767
				c0.037,1.033,0.501,2.004,1.283,2.682l3.231,2.799c-2.364,3.149-3.968,6.896-4.551,10.969l-4.257-0.304
				c-1.031-0.074-2.046,0.285-2.803,0.989C23.43,52.979,23,53.966,23,55s0.43,2.021,1.187,2.726
				c0.757,0.705,1.772,1.063,2.803,0.989l4.257-0.304c0.583,4.073,2.187,7.82,4.551,10.969l-3.231,2.799
				c-0.781,0.677-1.246,1.648-1.283,2.682c-0.037,1.026,0.354,2.019,1.074,2.749l45.251-45.251
				C76.88,31.637,75.887,31.247,74.861,31.284z M38.843,66.74c-1.822-2.5-3.071-5.432-3.575-8.616l14.73-1.052L38.843,66.74z
				 M35.269,51.876c0.503-3.185,1.753-6.116,3.575-8.616l11.155,9.668L35.269,51.876z M43.26,38.843
				c2.5-1.822,5.432-3.071,8.616-3.575l1.052,14.73L43.26,38.843z M57.071,49.999l1.052-14.73c3.185,0.503,6.116,1.753,8.616,3.575
				L57.071,49.999z"/>
		</g>
		<g>
			<circle style="fill:#E07000;" cx="55" cy="55" r="10"/>
		</g>
		<g>
			<path style="fill:#FA9200;" d="M55,45c-5.523,0-10,4.477-10,10c0,2.753,1.113,5.246,2.913,7.054l14.141-14.141
				C60.246,46.113,57.753,45,55,45z"/>
		</g>
		<g>
			<circle style="fill:#FFE9A1;" cx="55" cy="55" r="4"/>
		</g>
		<g>
			<path style="fill:#FFFFFF;" d="M55,51c-2.209,0-4,1.791-4,4c0,1.098,0.443,2.091,1.16,2.814l5.655-5.655
				C57.091,51.443,56.098,51,55,51z"/>
		</g>
	</g>
</g>
</svg>
