<?xml version="1.0" encoding="iso-8859-1"?>
<!-- Generator: Adobe Illustrator 17.1.0, SVG Export Plug-In . SVG Version: 6.00 Build 0)  -->
<!DOCTYPE svg PUBLIC "-//W3C//DTD SVG 1.0//EN" "http://www.w3.org/TR/2001/REC-SVG-20010904/DTD/svg10.dtd">
<svg version="1.0" xmlns="http://www.w3.org/2000/svg" xmlns:xlink="http://www.w3.org/1999/xlink" x="0px" y="0px" width="110px"
	 height="110px" viewBox="0 0 110 110" style="enable-background:new 0 0 110 110;" xml:space="preserve">
<g id="Artboard">
</g>
<g id="Multicolor">
	<circle style="fill:#FABC3D;" cx="55" cy="55" r="55"/>
	<g>
		<g>
			<path style="fill:#DF2C2C;" d="M74.201,48.312c0.268,0.769-0.279,1.573-1.095,1.573H60.288c-5.15,0-9.322,4.172-9.322,9.322
				c0,1.422-0.338,6.514,2.843,6.514c4.679,0,7.286,5.26,6.187,9.788C59.099,79.191,55.801,82.5,49.16,82.5
				c-6.793,0-9.369-4.405-10.942-3.776c-1.573,0.629-3.962,0.361-5.896-0.943C25.913,73.434,23,64.881,23,56.876
				c0-14.158,11.478-25.635,25.635-25.635c7.947,0,15.766,3.624,20.881,9.311c1.282,1.433,2.4,2.994,3.298,4.661
				c0.419,0.757,0.781,1.527,1.095,2.33C74.015,47.799,74.107,48.055,74.201,48.312z"/>
		</g>
		<g>
			<path style="fill:#FFFFFF;" d="M72.814,45.212H60.288v-4.661h9.229C70.798,41.985,71.917,43.546,72.814,45.212z"/>
		</g>
		<g>
			<path style="fill:#3E3E3F;" d="M79.844,58.968c-0.384-0.252-0.869-0.335-1.316-0.223l-15.714,3.928l-4.877-14.63h15.143
				c0.341,0,0.658-0.174,0.842-0.461c0.184-0.287,0.209-0.648,0.066-0.958l-0.613-1.331c-0.163-0.355-0.518-0.582-0.908-0.582
				H56.792c-8.009,0-12.199,7.911-12.199,12.152v17.479c0,0.918,0.747,1.666,1.665,1.666h17.491l1.951,5.853
				C65.927,82.542,66.561,83,67.279,83h15.148c0.684,0,1.291-0.41,1.545-1.044C88.915,69.648,87.951,64.277,79.844,58.968z
				 M78.619,62.155c4.016,2.75,5.737,5.272,4.792,10.523H66.149l-2.279-6.836L78.619,62.155z M54.539,48.379l5.035,15.104
				l-3.582,0.895l-8.069-6.051v-1.462C47.923,54.59,50.171,49.69,54.539,48.379z M47.923,72.678V62.491l6.704,5.028
				c0.396,0.297,0.924,0.404,1.403,0.284l4.6-1.15l2.009,6.026H47.923z M81.294,79.669H68.479l-1.22-3.661h15.321
				C82.235,77.124,81.808,78.337,81.294,79.669z"/>
		</g>
		<g>
			<circle style="fill:#FFFFFF;" cx="46.661" cy="73.902" r="4.661"/>
		</g>
		<g>
			<path style="fill:#FA5655;" d="M48.635,31.241C34.478,31.241,23,42.719,23,56.876c0,2.717,0.344,5.494,1.039,8.152l32.576-32.576
				C54.037,31.671,51.345,31.241,48.635,31.241z"/>
		</g>
	</g>
</g>
</svg>
