<?xml version="1.0" encoding="iso-8859-1"?>
<!-- Generator: Adobe Illustrator 17.1.0, SVG Export Plug-In . SVG Version: 6.00 Build 0)  -->
<!DOCTYPE svg PUBLIC "-//W3C//DTD SVG 1.0//EN" "http://www.w3.org/TR/2001/REC-SVG-20010904/DTD/svg10.dtd">
<svg version="1.0" xmlns="http://www.w3.org/2000/svg" xmlns:xlink="http://www.w3.org/1999/xlink" x="0px" y="0px" width="110px"
	 height="110px" viewBox="0 0 110 110" style="enable-background:new 0 0 110 110;" xml:space="preserve">
<g id="Artboard">
</g>
<g id="Multicolor">
	<circle style="fill:#25B7D3;" cx="55" cy="55" r="55"/>
	<g>
		<polygon style="fill:#FFFFFF;" points="84.483,64.58 73.221,80.08 55,86 36.779,80.08 25.517,64.58 25.517,45.42 36.779,29.92 
			55,24 73.221,29.92 84.483,45.42 		"/>
		<polygon style="fill:#9CE5F4;" points="43.303,71 36.074,48.751 55,35 73.926,48.751 66.697,71 		"/>
		<polyline style="fill:#C9F2F8;" points="73.926,48.751 84.483,45.42 73.221,29.92 55,24 55,35 		"/>
		<polygon style="fill:#6FDAF1;" points="66.697,71 73.221,80.08 84.483,64.58 84.483,45.42 73.926,48.751 		"/>
		<polygon style="fill:#6FDAF1;" points="66.697,71 73.221,80.08 55,86 36.779,80.08 43.303,71 		"/>
		<polygon style="fill:#C9F2F8;" points="36.074,48.751 25.517,45.42 25.517,64.58 36.779,80.08 43.303,71 		"/>
	</g>
</g>
</svg>
