<?xml version="1.0" encoding="iso-8859-1"?>
<!-- Generator: Adobe Illustrator 17.1.0, SVG Export Plug-In . SVG Version: 6.00 Build 0)  -->
<!DOCTYPE svg PUBLIC "-//W3C//DTD SVG 1.0//EN" "http://www.w3.org/TR/2001/REC-SVG-20010904/DTD/svg10.dtd">
<svg version="1.0" xmlns="http://www.w3.org/2000/svg" xmlns:xlink="http://www.w3.org/1999/xlink" x="0px" y="0px" width="110px"
	 height="110px" viewBox="0 0 110 110" style="enable-background:new 0 0 110 110;" xml:space="preserve">
<g id="Artboard">
</g>
<g id="Multicolor">
	<circle style="fill:#25B7D3;" cx="55" cy="55" r="55"/>
	<g>
		<g>
			<path style="fill:#E2E4E5;" d="M86.651,28.629c-1.121,2.51-23.768,53.235-25,56c-0.66,1.49-2.12,2.37-3.65,2.37
				c-0.01,0-0.01,0-0.01,0h-23.32c-1.96,0-3.63-1.41-3.95-3.34l-0.67-4c-0.19-1.16,0.14-2.35,0.9-3.25
				c0.76-0.89,1.87-1.41,3.05-1.41h20.6c1.57,0,3.01-0.93,3.65-2.37c0,0,21.1-47.259,21.1-47.26c0.9-2.02,3.26-2.92,5.28-2.02
				S87.551,26.609,86.651,28.629z"/>
		</g>
		<g>
			<path style="fill:#FFFFFF;" d="M34.001,74.999c-1.18,0-2.29,0.52-3.05,1.41c-0.76,0.9-1.09,2.09-0.9,3.25l0.67,4
				c0.32,1.93,1.99,3.34,3.95,3.34h3.03l12-12H34.001z"/>
		</g>
		<g>
			<circle style="fill:#3E3E3F;" cx="40" cy="60.999" r="6"/>
		</g>
		<g>
			<polygon style="fill:#DF2C2C;" points="50,74.999 54,86.999 38,86.999 34,74.999 			"/>
		</g>
		<g>
			<polygon style="fill:#DF2C2C;" points="66.75,73.209 64.56,78.099 58.51,72.049 60.69,67.149 			"/>
		</g>
		<g>
			<g>
				<polygon style="fill:#DF2C2C;" points="70,65.919 67.82,70.819 61.76,64.759 63.95,59.869 				"/>
			</g>
		</g>
		<g>
			<g>
				<polygon style="fill:#DF2C2C;" points="73.25,58.649 71.07,63.529 65.02,57.479 67.19,52.589 				"/>
			</g>
		</g>
		<g>
			<g>
				<polygon style="fill:#DF2C2C;" points="82.18,38.639 80,43.539 73.94,37.479 76.13,32.589 				"/>
			</g>
		</g>
		<g>
			<polygon style="fill:#FA5655;" points="34,74.999 37.925,86.775 49.701,74.999 			"/>
		</g>
		<g>
			<path style="fill:#5B5C5F;" d="M35.757,56.756c-2.343,2.343-2.343,6.142,0,8.485l8.485-8.485
				C41.899,54.413,38.1,54.413,35.757,56.756z"/>
		</g>
	</g>
</g>
</svg>
