<?xml version="1.0" encoding="iso-8859-1"?>
<!-- Generator: Adobe Illustrator 17.1.0, SVG Export Plug-In . SVG Version: 6.00 Build 0)  -->
<!DOCTYPE svg PUBLIC "-//W3C//DTD SVG 1.0//EN" "http://www.w3.org/TR/2001/REC-SVG-20010904/DTD/svg10.dtd">
<svg version="1.0" xmlns="http://www.w3.org/2000/svg" xmlns:xlink="http://www.w3.org/1999/xlink" x="0px" y="0px" width="110px"
	 height="110px" viewBox="0 0 110 110" style="enable-background:new 0 0 110 110;" xml:space="preserve">
<g id="Artboard">
</g>
<g id="Multicolor">
	<circle style="fill:#E04F5F;" cx="55" cy="55" r="55"/>
	<g>
		<path style="fill:#EDBC7C;" d="M67,51c0-2.209-1.791-4-4-4H47c-2.209,0-4,1.791-4,4v32c0,2.209,1.791,4,4,4h16
			c2.209,0,4-1.791,4-4V51z"/>
		<path style="fill:#EDBC7C;" d="M39,85c0,1.105-0.895,2-2,2H25c-1.105,0-2-0.895-2-2s0.895-2,2-2h12C38.105,83,39,83.895,39,85z"/>
		<rect x="25.068" y="55" style="fill:#3E3E3F;" width="12" height="28"/>
		<path style="fill:#3E3E3F;" d="M37.068,25c0-1.105-0.895-2-2-2h-8c-1.105,0-2,0.895-2,2v26h12V25z"/>
		<rect x="25.068" y="51" style="fill:#F0F1F1;" width="12" height="4"/>
		<path style="fill:#EDBC7C;" d="M87,85c0,1.105-0.895,2-2,2H73c-1.105,0-2-0.895-2-2s0.895-2,2-2h12C86.105,83,87,83.895,87,85z"/>
		<rect x="73.068" y="55" style="fill:#3E3E3F;" width="12" height="28"/>
		<path style="fill:#3E3E3F;" d="M85.068,25c0-1.105-0.895-2-2-2h-8c-1.105,0-2,0.895-2,2v26h12V25z"/>
		<rect x="73.068" y="51" style="fill:#F0F1F1;" width="12" height="4"/>
		<circle style="fill:#3E3E3F;" cx="55" cy="75" r="8"/>
		<circle style="fill:#3E3E3F;" cx="55" cy="60" r="5"/>
		<path style="fill:#5B5C5F;" d="M37.068,29.768V25c0-1.104-0.895-2-2-2h-8c-1.105,0-2,0.896-2,2v16.768L37.068,29.768z"/>
		<path style="fill:#5B5C5F;" d="M85.068,29.768V25c0-1.104-0.895-2-2-2h-8c-1.105,0-2,0.896-2,2v16.768L85.068,29.768z"/>
		<circle style="fill:#B6BCBD;" cx="55" cy="60" r="2"/>
		<circle style="fill:#B6BCBD;" cx="55" cy="75" r="2"/>
	</g>
</g>
</svg>
