<?xml version="1.0" encoding="iso-8859-1"?>
<!-- Generator: Adobe Illustrator 17.1.0, SVG Export Plug-In . SVG Version: 6.00 Build 0)  -->
<!DOCTYPE svg PUBLIC "-//W3C//DTD SVG 1.0//EN" "http://www.w3.org/TR/2001/REC-SVG-20010904/DTD/svg10.dtd">
<svg version="1.0" xmlns="http://www.w3.org/2000/svg" xmlns:xlink="http://www.w3.org/1999/xlink" x="0px" y="0px" width="110px"
	 height="110px" viewBox="0 0 110 110" style="enable-background:new 0 0 110 110;" xml:space="preserve">
<g id="Artboard">
</g>
<g id="Multicolor">
	<circle style="fill:#25B7D3;" cx="55" cy="55" r="55"/>
	<g>
		<g>
			<polygon style="fill:#3E3E3F;" points="31,23 31,43 43,59 67,59 79,43 79,23 			"/>
		</g>
		<g>
			<polygon style="fill:#5B5C5F;" points="55,23 31,23 31,43 43,59 55,59 			"/>
		</g>
		<g>
			<path style="fill:#F0F1F1;" d="M64,72c-1.657,0-3,1.343-3,3c0,3.309-2.691,6-6,6s-6-2.691-6-6s2.691-6,6-6c1.657,0,3-1.343,3-3
				v-7h-6v4.379c-5.17,1.336-9,6.039-9,11.621c0,6.617,5.383,12,12,12s12-5.383,12-12C67,73.343,65.657,72,64,72z"/>
		</g>
		<g>
			<polygon style="fill:#FBE158;" points="43.757,23 31,35.757 31,43 31.533,43.71 52.243,23 			"/>
		</g>
		<g>
			<polygon style="fill:#FACB1B;" points="36.039,49.719 39.675,54.567 71.243,23 62.757,23 			"/>
		</g>
		<g>
			<polygon style="fill:#FACB1B;" points="36.039,49.719 39.675,54.567 71.243,23 62.757,23 			"/>
		</g>
		<g>
			<polygon style="fill:#FACB1B;" points="54.243,59 79,34.243 79,25.757 45.757,59 			"/>
		</g>
		<g>
			<polygon style="fill:#FBE158;" points="55,49.757 45.757,59 54.243,59 55,58.243 			"/>
		</g>
		<g>
			<polygon style="fill:#FBE158;" points="55,30.757 36.039,49.719 39.675,54.567 55,39.243 			"/>
		</g>
	</g>
</g>
</svg>
