<?xml version="1.0" encoding="iso-8859-1"?>
<!-- Generator: Adobe Illustrator 17.1.0, SVG Export Plug-In . SVG Version: 6.00 Build 0)  -->
<!DOCTYPE svg PUBLIC "-//W3C//DTD SVG 1.0//EN" "http://www.w3.org/TR/2001/REC-SVG-20010904/DTD/svg10.dtd">
<svg version="1.0" xmlns="http://www.w3.org/2000/svg" xmlns:xlink="http://www.w3.org/1999/xlink" x="0px" y="0px" width="110px"
	 height="110px" viewBox="0 0 110 110" style="enable-background:new 0 0 110 110;" xml:space="preserve">
<g id="Artboard" style="display:none;">
	
		<rect x="-1096.5" y="-418.5" style="display:inline;fill:#808080;stroke:#000000;stroke-miterlimit:10;" width="1392" height="1369"/>
</g>
<g id="R-Multicolor">
	<circle style="fill:#32BEA6;" cx="55" cy="55" r="55"/>
	<g>
		<g>
			<path style="fill:#F4D0A1;" d="M73.741,26.976c-5.302-5.302-13.898-5.302-19.2,0L27.582,53.935c-5.302,5.302-5.302,13.898,0,19.2
				l7.953,7.953c5.302,5.302,13.898,5.302,19.2,0L81.694,54.13c5.302-5.302,5.302-13.898,0-19.2L73.741,26.976z"/>
		</g>
		<g>
			<path style="fill:#F8E1C2;" d="M73.741,26.977c-5.302-5.302-13.898-5.302-19.2,0L27.582,53.935c-5.302,5.302-5.302,13.898,0,19.2
				l4.623,4.624L78.364,31.6L73.741,26.977z"/>
		</g>
		<g>
			<path style="fill:#D4A263;" d="M40.377,49.946c0.276,0.867-0.203,1.793-1.07,2.069c-0.867,0.276-1.793-0.203-2.069-1.07
				c-0.276-0.867,0.571-3.638,0.571-3.638S40.101,49.079,40.377,49.946z"/>
		</g>
		<g>
			<path style="fill:#D4A263;" d="M33.638,56.912c0.189,0.89-0.379,1.764-1.268,1.954c-0.89,0.189-1.764-0.379-1.954-1.268
				c-0.189-0.89,0.926-3.565,0.926-3.565S33.449,56.022,33.638,56.912z"/>
		</g>
		<g>
			<path style="fill:#D4A263;" d="M46.723,42.818c0.7,0.581,0.797,1.619,0.216,2.319c-0.581,0.7-1.619,0.797-2.319,0.216
				c-0.7-0.581-1.484-3.371-1.484-3.371S46.023,42.237,46.723,42.818z"/>
		</g>
		<g>
			<path style="fill:#D4A263;" d="M52.456,35.949c0.848,0.33,1.267,1.285,0.937,2.132s-1.285,1.267-2.132,0.937
				s-2.472-2.73-2.472-2.73S51.609,35.619,52.456,35.949z"/>
		</g>
		<g>
			<path style="fill:#D4A263;" d="M58.878,28.819c0.91-0.013,1.657,0.714,1.67,1.624c0.013,0.91-0.714,1.657-1.624,1.67
				c-0.91,0.013-3.317-1.601-3.317-1.601S57.969,28.831,58.878,28.819z"/>
		</g>
		<g>
			<path style="fill:#DF2C2C;" d="M83.88,25.892l-4.974,4.974c1.095-0.201,2.077-0.554,3.228-1.705c0.568-0.568,1.489-0.568,2.057,0
				c0.568,0.568,0.568,1.489,0,2.057c-4.011,4.011-6.901,1.416-10.02,4.534c-3.122,3.122-0.517,6.003-4.534,10.02
				c-4.014,4.014-6.894,1.408-10.015,4.529c-3.124,3.124-0.515,6.002-4.532,10.017c-4.014,4.014-6.894,1.408-10.015,4.529
				c-3.116,3.116-0.515,6.002-4.527,10.012c-2.162,2.162-4.112,2.435-5.833,2.676c-1.512,0.212-2.706,0.378-4.179,1.851
				c-0.133,0.133-0.288,0.228-0.451,0.299l-4.876,4.876c0.057,0.061,0.11,0.124,0.169,0.183c2.71,2.71,6.644,3.171,8.787,1.029
				l50.926-50.926c2.142-2.142,1.682-6.076-1.029-8.787C84.004,26.002,83.941,25.95,83.88,25.892z"/>
		</g>
		<path style="fill:#FA5655;" d="M75.277,25.033L24.351,75.959c-2.095,2.095-1.695,5.901,0.859,8.603l4.876-4.875
			c-0.185,0.081-0.38,0.127-0.578,0.127c-0.372,0-0.744-0.142-1.029-0.426c-0.568-0.568-0.568-1.489,0-2.057
			c4.021-4.022,6.883-1.398,10.012-4.527c3.129-3.129,0.505-5.992,4.527-10.013c4.075-4.077,6.843-1.356,10.015-4.529
			c3.14-3.139,0.513-6,4.531-10.017c4.031-4.032,6.877-1.392,10.015-4.529c3.133-3.134,0.508-5.994,4.534-10.02
			c2.164-2.164,4.115-2.438,5.837-2.679c0.332-0.047,0.647-0.093,0.956-0.15l4.974-4.974C81.178,23.338,77.372,22.938,75.277,25.033
			z"/>
		<g>
			<path style="fill:#F3B607;" d="M84.191,29.161c-0.568-0.568-1.489-0.568-2.057,0c-3.134,3.134-5.994,0.508-10.02,4.534
				c-4.038,4.038-1.39,6.876-4.534,10.02c-3.13,3.13-5.993,0.506-10.015,4.529c-4.016,4.015-1.393,6.878-4.531,10.017
				c-3.146,3.146-5.97,0.484-10.015,4.529c-4.021,4.02-1.398,6.883-4.527,10.012c-3.133,3.133-5.984,0.498-10.012,4.527
				c-0.568,0.568-0.568,1.489,0,2.057c0.603,0.603,1.525,0.533,2.057,0c3.115-3.115,6.001-0.516,10.012-4.527
				c4.01-4.009,1.412-6.897,4.527-10.012c3.117-3.118,6.002-0.517,10.015-4.529c4.008-4.007,1.416-6.901,4.532-10.017
				c3.116-3.116,6.002-0.517,10.015-4.529c4.014-4.015,1.414-6.9,4.534-10.02c3.125-3.124,6.003-0.517,10.02-4.534
				C84.759,30.651,84.759,29.729,84.191,29.161z"/>
		</g>
	</g>
</g>
<g id="Multicolor" style="display:none;">
	<g style="display:inline;">
		<g>
			<path style="fill:#F4D0A1;" d="M73.741,26.976c-5.302-5.302-13.898-5.302-19.2,0L27.582,53.935c-5.302,5.302-5.302,13.898,0,19.2
				l7.953,7.953c5.302,5.302,13.898,5.302,19.2,0L81.694,54.13c5.302-5.302,5.302-13.898,0-19.2L73.741,26.976z"/>
		</g>
		<g>
			<path style="fill:#F8E1C2;" d="M73.741,26.977c-5.302-5.302-13.898-5.302-19.2,0L27.582,53.935c-5.302,5.302-5.302,13.898,0,19.2
				l4.623,4.624L78.364,31.6L73.741,26.977z"/>
		</g>
		<g>
			<path style="fill:#D4A263;" d="M40.377,49.946c0.276,0.867-0.203,1.793-1.07,2.069c-0.867,0.276-1.793-0.203-2.069-1.07
				c-0.276-0.867,0.571-3.638,0.571-3.638S40.101,49.079,40.377,49.946z"/>
		</g>
		<g>
			<path style="fill:#D4A263;" d="M33.638,56.912c0.189,0.89-0.379,1.764-1.268,1.954c-0.89,0.189-1.764-0.379-1.954-1.268
				c-0.189-0.89,0.926-3.565,0.926-3.565S33.449,56.022,33.638,56.912z"/>
		</g>
		<g>
			<path style="fill:#D4A263;" d="M46.723,42.818c0.7,0.581,0.797,1.619,0.216,2.319c-0.581,0.7-1.619,0.797-2.319,0.216
				c-0.7-0.581-1.484-3.371-1.484-3.371S46.023,42.237,46.723,42.818z"/>
		</g>
		<g>
			<path style="fill:#D4A263;" d="M52.456,35.949c0.848,0.33,1.267,1.285,0.937,2.132s-1.285,1.267-2.132,0.937
				s-2.472-2.73-2.472-2.73S51.609,35.619,52.456,35.949z"/>
		</g>
		<g>
			<path style="fill:#D4A263;" d="M58.878,28.819c0.91-0.013,1.657,0.714,1.67,1.624c0.013,0.91-0.714,1.657-1.624,1.67
				c-0.91,0.013-3.317-1.601-3.317-1.601S57.969,28.831,58.878,28.819z"/>
		</g>
		<g>
			<path style="fill:#DF2C2C;" d="M83.88,25.892l-4.974,4.974c1.095-0.201,2.077-0.554,3.228-1.705c0.568-0.568,1.489-0.568,2.057,0
				c0.568,0.568,0.568,1.489,0,2.057c-4.011,4.011-6.901,1.416-10.02,4.534c-3.122,3.122-0.517,6.003-4.534,10.02
				c-4.014,4.014-6.894,1.408-10.015,4.529c-3.124,3.124-0.515,6.002-4.532,10.017c-4.014,4.014-6.894,1.408-10.015,4.529
				c-3.116,3.116-0.515,6.002-4.527,10.012c-2.162,2.162-4.112,2.435-5.833,2.676c-1.512,0.212-2.706,0.378-4.179,1.851
				c-0.133,0.133-0.288,0.228-0.451,0.299l-4.876,4.876c0.057,0.061,0.11,0.124,0.169,0.183c2.71,2.71,6.644,3.171,8.787,1.029
				l50.926-50.926c2.142-2.142,1.682-6.076-1.029-8.787C84.004,26.002,83.941,25.95,83.88,25.892z"/>
		</g>
		<path style="fill:#FA5655;" d="M75.277,25.033L24.351,75.959c-2.095,2.095-1.695,5.901,0.859,8.603l4.876-4.875
			c-0.185,0.081-0.38,0.127-0.578,0.127c-0.372,0-0.744-0.142-1.029-0.426c-0.568-0.568-0.568-1.489,0-2.057
			c4.021-4.022,6.883-1.398,10.012-4.527c3.129-3.129,0.505-5.992,4.527-10.013c4.075-4.077,6.843-1.356,10.015-4.529
			c3.14-3.139,0.513-6,4.531-10.017c4.031-4.032,6.877-1.392,10.015-4.529c3.133-3.134,0.508-5.994,4.534-10.02
			c2.164-2.164,4.115-2.438,5.837-2.679c0.332-0.047,0.647-0.093,0.956-0.15l4.974-4.974C81.178,23.338,77.372,22.938,75.277,25.033
			z"/>
		<g>
			<path style="fill:#F3B607;" d="M84.191,29.161c-0.568-0.568-1.489-0.568-2.057,0c-3.134,3.134-5.994,0.508-10.02,4.534
				c-4.038,4.038-1.39,6.876-4.534,10.02c-3.13,3.13-5.993,0.506-10.015,4.529c-4.016,4.015-1.393,6.878-4.531,10.017
				c-3.146,3.146-5.97,0.484-10.015,4.529c-4.021,4.02-1.398,6.883-4.527,10.012c-3.133,3.133-5.984,0.498-10.012,4.527
				c-0.568,0.568-0.568,1.489,0,2.057c0.603,0.603,1.525,0.533,2.057,0c3.115-3.115,6.001-0.516,10.012-4.527
				c4.01-4.009,1.412-6.897,4.527-10.012c3.117-3.118,6.002-0.517,10.015-4.529c4.008-4.007,1.416-6.901,4.532-10.017
				c3.116-3.116,6.002-0.517,10.015-4.529c4.014-4.015,1.414-6.9,4.534-10.02c3.125-3.124,6.003-0.517,10.02-4.534
				C84.759,30.651,84.759,29.729,84.191,29.161z"/>
		</g>
	</g>
</g>
<g id="Blue" style="display:none;">
	<g style="display:inline;">
		<g>
			<path style="fill:#E1F5FA;" d="M73.74,26.977c-5.302-5.302-13.898-5.302-19.199,0L27.582,53.935
				c-5.302,5.302-5.302,13.898,0,19.2l7.953,7.953c5.302,5.302,13.898,5.302,19.2,0L81.693,54.13c5.303-5.302,5.303-13.899,0-19.2
				L73.74,26.977z"/>
		</g>
		<g>
			<path style="fill:#E1F5FA;" d="M73.74,26.977c-5.302-5.302-13.898-5.302-19.199,0L27.582,53.935
				c-5.302,5.302-5.302,13.898,0,19.2l4.624,4.623L78.364,31.6L73.74,26.977z"/>
		</g>
		<g>
			<path style="fill:#33899E;" d="M40.377,49.946c0.275,0.867-0.204,1.793-1.07,2.069c-0.867,0.276-1.793-0.203-2.069-1.07
				c-0.275-0.867,0.571-3.639,0.571-3.639S40.101,49.079,40.377,49.946z"/>
		</g>
		<g>
			<path style="fill:#33899E;" d="M33.638,56.912c0.189,0.89-0.379,1.764-1.269,1.954c-0.89,0.189-1.764-0.378-1.953-1.269
				c-0.189-0.89,0.926-3.564,0.926-3.564S33.448,56.022,33.638,56.912z"/>
		</g>
		<g>
			<path style="fill:#33899E;" d="M46.723,42.818c0.7,0.581,0.797,1.619,0.216,2.319c-0.58,0.7-1.618,0.797-2.319,0.216
				c-0.699-0.581-1.483-3.371-1.483-3.371S46.022,42.237,46.723,42.818z"/>
		</g>
		<g>
			<path style="fill:#33899E;" d="M52.456,35.949c0.848,0.33,1.268,1.285,0.938,2.132c-0.33,0.848-1.284,1.268-2.132,0.938
				c-0.848-0.33-2.473-2.73-2.473-2.73S51.608,35.619,52.456,35.949z"/>
		</g>
		<g>
			<path style="fill:#33899E;" d="M58.879,28.819c0.909-0.013,1.656,0.714,1.67,1.624c0.012,0.909-0.715,1.657-1.625,1.669
				c-0.909,0.013-3.316-1.601-3.316-1.601S57.969,28.832,58.879,28.819z"/>
		</g>
		<g>
			<path style="fill:#0081A1;" d="M83.881,25.893l-4.975,4.974c1.094-0.201,2.076-0.554,3.228-1.705
				c0.568-0.568,1.489-0.568,2.058,0c0.567,0.567,0.567,1.489,0,2.057c-4.012,4.012-6.901,1.417-10.021,4.535
				c-3.122,3.122-0.518,6.003-4.534,10.02c-4.014,4.014-6.894,1.408-10.015,4.529c-3.124,3.125-0.515,6.002-4.531,10.017
				c-4.014,4.014-6.895,1.409-10.015,4.529c-3.117,3.117-0.516,6.002-4.527,10.013c-2.162,2.162-4.113,2.435-5.834,2.676
				c-1.512,0.211-2.705,0.378-4.179,1.851c-0.133,0.133-0.288,0.229-0.45,0.299l-4.876,4.877c0.058,0.06,0.109,0.123,0.169,0.183
				c2.711,2.71,6.644,3.17,8.787,1.028l50.926-50.926c2.143-2.142,1.682-6.076-1.028-8.787
				C84.004,26.002,83.941,25.95,83.881,25.893z"/>
		</g>
		<path style="fill:#009FC7;" d="M75.277,25.033L24.351,75.96c-2.095,2.095-1.694,5.901,0.859,8.603l4.876-4.876
			c-0.186,0.081-0.381,0.128-0.578,0.128c-0.372,0-0.744-0.142-1.028-0.426c-0.568-0.568-0.568-1.489,0-2.057
			c4.021-4.022,6.883-1.398,10.013-4.527c3.128-3.129,0.505-5.992,4.526-10.013c4.075-4.076,6.844-1.356,10.015-4.529
			c3.141-3.139,0.514-6,4.532-10.017c4.03-4.032,6.877-1.392,10.015-4.529c3.133-3.134,0.508-5.994,4.533-10.02
			c2.164-2.164,4.115-2.438,5.837-2.679c0.333-0.047,0.647-0.093,0.956-0.15l4.975-4.974C81.178,23.338,77.372,22.938,75.277,25.033
			z"/>
		<g>
			<path style="fill:#FFFFFF;" d="M84.191,29.162c-0.568-0.568-1.489-0.568-2.058,0c-3.134,3.133-5.993,0.508-10.02,4.534
				c-4.038,4.038-1.391,6.876-4.534,10.02c-3.13,3.13-5.993,0.506-10.015,4.529c-4.017,4.015-1.392,6.878-4.532,10.017
				c-3.146,3.146-5.97,0.483-10.015,4.529c-4.021,4.019-1.397,6.882-4.526,10.012c-3.133,3.133-5.985,0.498-10.013,4.527
				c-0.568,0.568-0.568,1.489,0,2.057c0.603,0.603,1.524,0.533,2.057,0c3.115-3.115,6.001-0.516,10.013-4.527
				c4.01-4.009,1.412-6.897,4.527-10.013c3.117-3.118,6.002-0.517,10.015-4.529c4.008-4.007,1.415-6.901,4.531-10.017
				c3.116-3.116,6.002-0.517,10.015-4.529c4.015-4.015,1.414-6.9,4.534-10.02c3.125-3.125,6.003-0.517,10.021-4.535
				C84.759,30.651,84.759,29.729,84.191,29.162z"/>
		</g>
	</g>
</g>
<g id="R-Blue" style="display:none;">
	<circle style="display:inline;fill:#81D2EB;" cx="55" cy="55" r="55"/>
	<g style="display:inline;">
		<g>
			<path style="fill:#E1F5FA;" d="M73.74,26.977c-5.302-5.302-13.898-5.302-19.199,0L27.582,53.935
				c-5.302,5.302-5.302,13.898,0,19.2l7.953,7.953c5.302,5.302,13.898,5.302,19.2,0L81.693,54.13c5.303-5.302,5.303-13.899,0-19.2
				L73.74,26.977z"/>
		</g>
		<g>
			<path style="fill:#E1F5FA;" d="M73.74,26.977c-5.302-5.302-13.898-5.302-19.199,0L27.582,53.935
				c-5.302,5.302-5.302,13.898,0,19.2l4.624,4.623L78.364,31.6L73.74,26.977z"/>
		</g>
		<g>
			<path style="fill:#33899E;" d="M40.377,49.946c0.275,0.867-0.204,1.793-1.07,2.069c-0.867,0.276-1.793-0.203-2.069-1.07
				c-0.275-0.867,0.571-3.639,0.571-3.639S40.101,49.079,40.377,49.946z"/>
		</g>
		<g>
			<path style="fill:#33899E;" d="M33.638,56.912c0.189,0.89-0.379,1.764-1.269,1.954c-0.89,0.189-1.764-0.378-1.953-1.269
				c-0.189-0.89,0.926-3.564,0.926-3.564S33.448,56.022,33.638,56.912z"/>
		</g>
		<g>
			<path style="fill:#33899E;" d="M46.723,42.818c0.7,0.581,0.797,1.619,0.216,2.319c-0.58,0.7-1.618,0.797-2.319,0.216
				c-0.699-0.581-1.483-3.371-1.483-3.371S46.022,42.237,46.723,42.818z"/>
		</g>
		<g>
			<path style="fill:#33899E;" d="M52.456,35.949c0.848,0.33,1.268,1.285,0.938,2.132c-0.33,0.848-1.284,1.268-2.132,0.938
				c-0.848-0.33-2.473-2.73-2.473-2.73S51.608,35.619,52.456,35.949z"/>
		</g>
		<g>
			<path style="fill:#33899E;" d="M58.879,28.819c0.909-0.013,1.656,0.714,1.67,1.624c0.012,0.909-0.715,1.657-1.625,1.669
				c-0.909,0.013-3.316-1.601-3.316-1.601S57.969,28.831,58.879,28.819z"/>
		</g>
		<g>
			<path style="fill:#0081A1;" d="M83.881,25.893l-4.975,4.974c1.094-0.201,2.076-0.554,3.228-1.705
				c0.568-0.568,1.489-0.568,2.058,0c0.567,0.567,0.567,1.489,0,2.057c-4.012,4.012-6.901,1.417-10.021,4.535
				c-3.122,3.122-0.518,6.003-4.534,10.02c-4.014,4.014-6.894,1.408-10.015,4.529c-3.124,3.125-0.515,6.002-4.531,10.017
				c-4.014,4.014-6.895,1.409-10.015,4.529c-3.117,3.117-0.516,6.001-4.527,10.013c-2.162,2.162-4.113,2.435-5.834,2.676
				c-1.512,0.211-2.705,0.378-4.179,1.851c-0.133,0.133-0.288,0.229-0.45,0.299l-4.876,4.877c0.058,0.061,0.109,0.123,0.169,0.183
				c2.711,2.71,6.644,3.17,8.787,1.028l50.926-50.926c2.143-2.142,1.682-6.076-1.028-8.787
				C84.004,26.002,83.941,25.95,83.881,25.893z"/>
		</g>
		<path style="fill:#009FC7;" d="M75.277,25.033L24.351,75.959c-2.095,2.095-1.694,5.901,0.859,8.603l4.876-4.876
			c-0.186,0.081-0.381,0.128-0.578,0.128c-0.372,0-0.744-0.142-1.028-0.426c-0.568-0.568-0.568-1.489,0-2.057
			c4.021-4.022,6.883-1.399,10.013-4.527c3.128-3.129,0.505-5.992,4.526-10.013c4.075-4.076,6.844-1.356,10.015-4.529
			c3.141-3.139,0.514-6,4.532-10.017c4.03-4.032,6.877-1.392,10.015-4.529c3.133-3.134,0.508-5.994,4.533-10.02
			c2.164-2.164,4.115-2.438,5.837-2.679c0.333-0.047,0.647-0.093,0.956-0.15l4.975-4.974C81.178,23.338,77.372,22.937,75.277,25.033
			z"/>
		<g>
			<path style="fill:#FFFFFF;" d="M84.191,29.162c-0.568-0.568-1.489-0.568-2.058,0c-3.134,3.133-5.993,0.508-10.02,4.534
				c-4.038,4.038-1.391,6.876-4.534,10.02c-3.13,3.13-5.993,0.506-10.015,4.529c-4.017,4.015-1.392,6.878-4.532,10.017
				c-3.146,3.146-5.97,0.483-10.015,4.529c-4.021,4.02-1.397,6.882-4.526,10.012c-3.133,3.133-5.985,0.499-10.013,4.527
				c-0.568,0.568-0.568,1.489,0,2.057c0.603,0.603,1.524,0.533,2.057,0c3.115-3.115,6.001-0.516,10.013-4.527
				c4.01-4.009,1.412-6.897,4.527-10.013c3.117-3.118,6.002-0.517,10.015-4.529c4.008-4.007,1.415-6.901,4.531-10.017
				c3.116-3.116,6.002-0.517,10.015-4.529c4.015-4.015,1.414-6.9,4.534-10.02c3.125-3.125,6.003-0.517,10.021-4.535
				C84.759,30.651,84.759,29.728,84.191,29.162z"/>
		</g>
	</g>
</g>
<g id="Green" style="display:none;">
	<g style="display:inline;">
		<g>
			<path style="fill:#D7FCF9;" d="M73.74,26.977c-5.302-5.302-13.898-5.302-19.199,0L27.582,53.935
				c-5.302,5.302-5.302,13.898,0,19.2l7.953,7.953c5.302,5.302,13.898,5.302,19.2,0L81.693,54.13c5.303-5.302,5.303-13.899,0-19.2
				L73.74,26.977z"/>
		</g>
		<g>
			<path style="fill:#D7FCF9;" d="M73.74,26.977c-5.302-5.302-13.898-5.302-19.199,0L27.582,53.935
				c-5.302,5.302-5.302,13.898,0,19.2l4.624,4.623L78.364,31.6L73.74,26.977z"/>
		</g>
		<g>
			<path style="fill:#3E948B;" d="M40.377,49.946c0.275,0.867-0.204,1.793-1.07,2.069c-0.867,0.276-1.793-0.203-2.069-1.07
				c-0.275-0.867,0.571-3.639,0.571-3.639S40.101,49.079,40.377,49.946z"/>
		</g>
		<g>
			<path style="fill:#3E948B;" d="M33.638,56.912c0.189,0.89-0.379,1.764-1.269,1.954c-0.89,0.189-1.764-0.378-1.953-1.269
				c-0.189-0.89,0.926-3.564,0.926-3.564S33.448,56.022,33.638,56.912z"/>
		</g>
		<g>
			<path style="fill:#3E948B;" d="M46.723,42.818c0.7,0.581,0.797,1.619,0.216,2.319c-0.58,0.7-1.618,0.797-2.319,0.216
				c-0.699-0.581-1.483-3.371-1.483-3.371S46.022,42.237,46.723,42.818z"/>
		</g>
		<g>
			<path style="fill:#3E948B;" d="M52.456,35.949c0.848,0.33,1.268,1.285,0.938,2.132c-0.33,0.848-1.284,1.268-2.132,0.938
				c-0.848-0.33-2.473-2.73-2.473-2.73S51.608,35.619,52.456,35.949z"/>
		</g>
		<g>
			<path style="fill:#3E948B;" d="M58.879,28.819c0.909-0.013,1.656,0.714,1.67,1.624c0.012,0.909-0.715,1.657-1.625,1.669
				c-0.909,0.013-3.316-1.601-3.316-1.601S57.969,28.831,58.879,28.819z"/>
		</g>
		<g>
			<path style="fill:#009687;" d="M83.881,25.893l-4.975,4.974c1.094-0.201,2.076-0.554,3.228-1.705
				c0.568-0.568,1.489-0.568,2.058,0c0.567,0.567,0.567,1.489,0,2.057c-4.012,4.012-6.901,1.417-10.021,4.535
				c-3.122,3.122-0.518,6.003-4.534,10.02c-4.014,4.014-6.893,1.408-10.015,4.529c-3.124,3.125-0.515,6.002-4.531,10.017
				c-4.014,4.014-6.895,1.409-10.015,4.529c-3.117,3.117-0.516,6.002-4.527,10.013c-2.162,2.162-4.113,2.435-5.834,2.676
				c-1.512,0.211-2.705,0.378-4.179,1.851c-0.133,0.133-0.288,0.229-0.45,0.299l-4.876,4.877c0.058,0.06,0.109,0.123,0.169,0.183
				c2.711,2.71,6.644,3.17,8.787,1.028l50.926-50.926c2.143-2.142,1.682-6.076-1.028-8.787
				C84.004,26.002,83.941,25.95,83.881,25.893z"/>
		</g>
		<path style="fill:#00B8A5;" d="M75.277,25.033L24.351,75.96c-2.095,2.095-1.694,5.901,0.859,8.603l4.876-4.876
			c-0.186,0.081-0.381,0.128-0.578,0.128c-0.372,0-0.744-0.142-1.028-0.426c-0.568-0.568-0.568-1.489,0-2.057
			c4.021-4.022,6.883-1.398,10.013-4.527c3.128-3.129,0.505-5.992,4.526-10.013c4.075-4.076,6.844-1.356,10.015-4.529
			c3.141-3.139,0.514-6,4.532-10.017c4.03-4.032,6.877-1.392,10.015-4.529c3.133-3.134,0.508-5.994,4.533-10.02
			c2.164-2.164,4.115-2.438,5.837-2.679c0.333-0.047,0.647-0.093,0.956-0.15l4.975-4.974C81.178,23.338,77.372,22.938,75.277,25.033
			z"/>
		<g>
			<path style="fill:#FFFFFF;" d="M84.191,29.162c-0.568-0.568-1.489-0.568-2.058,0c-3.134,3.133-5.993,0.508-10.02,4.534
				c-4.038,4.038-1.391,6.876-4.534,10.02c-3.13,3.13-5.993,0.506-10.015,4.529c-4.017,4.015-1.392,6.878-4.532,10.017
				c-3.146,3.146-5.97,0.483-10.015,4.529c-4.021,4.019-1.397,6.882-4.526,10.012c-3.133,3.133-5.985,0.498-10.013,4.527
				c-0.568,0.568-0.568,1.489,0,2.057c0.603,0.603,1.524,0.533,2.057,0c3.115-3.115,6.001-0.516,10.013-4.527
				c4.01-4.009,1.412-6.897,4.527-10.013c3.117-3.118,6.002-0.517,10.015-4.529c4.008-4.007,1.415-6.901,4.531-10.017
				c3.116-3.116,6.002-0.517,10.015-4.529c4.015-4.015,1.414-6.9,4.534-10.02c3.125-3.125,6.003-0.517,10.021-4.535
				C84.759,30.651,84.759,29.729,84.191,29.162z"/>
		</g>
	</g>
</g>
<g id="R-Green" style="display:none;">
	<circle style="display:inline;fill:#77E0C4;" cx="55" cy="55" r="55"/>
	<g style="display:inline;">
		<g>
			<path style="fill:#D7FCF9;" d="M73.74,26.977c-5.302-5.302-13.898-5.302-19.199,0L27.582,53.935
				c-5.302,5.302-5.302,13.898,0,19.2l7.953,7.953c5.302,5.302,13.898,5.302,19.2,0L81.693,54.13c5.303-5.302,5.303-13.899,0-19.2
				L73.74,26.977z"/>
		</g>
		<g>
			<path style="fill:#D7FCF9;" d="M73.74,26.977c-5.302-5.302-13.898-5.302-19.199,0L27.582,53.935
				c-5.302,5.302-5.302,13.898,0,19.2l4.624,4.623L78.364,31.6L73.74,26.977z"/>
		</g>
		<g>
			<path style="fill:#3E948B;" d="M40.377,49.946c0.275,0.867-0.204,1.793-1.07,2.069c-0.867,0.276-1.793-0.203-2.069-1.07
				c-0.275-0.867,0.571-3.639,0.571-3.639S40.101,49.079,40.377,49.946z"/>
		</g>
		<g>
			<path style="fill:#3E948B;" d="M33.638,56.912c0.189,0.89-0.379,1.764-1.269,1.954c-0.89,0.189-1.764-0.378-1.953-1.269
				c-0.189-0.89,0.926-3.564,0.926-3.564S33.448,56.022,33.638,56.912z"/>
		</g>
		<g>
			<path style="fill:#3E948B;" d="M46.723,42.818c0.7,0.581,0.797,1.619,0.216,2.319c-0.58,0.7-1.618,0.797-2.319,0.216
				c-0.699-0.581-1.483-3.371-1.483-3.371S46.022,42.237,46.723,42.818z"/>
		</g>
		<g>
			<path style="fill:#3E948B;" d="M52.456,35.949c0.848,0.33,1.267,1.285,0.938,2.132c-0.33,0.848-1.284,1.268-2.132,0.938
				c-0.848-0.33-2.473-2.73-2.473-2.73S51.608,35.619,52.456,35.949z"/>
		</g>
		<g>
			<path style="fill:#3E948B;" d="M58.879,28.819c0.909-0.013,1.656,0.714,1.67,1.624c0.012,0.909-0.715,1.657-1.625,1.669
				c-0.909,0.013-3.316-1.601-3.316-1.601S57.969,28.832,58.879,28.819z"/>
		</g>
		<g>
			<path style="fill:#009687;" d="M83.881,25.893l-4.975,4.974c1.094-0.201,2.076-0.554,3.228-1.705
				c0.568-0.568,1.489-0.568,2.058,0c0.567,0.567,0.567,1.489,0,2.057c-4.012,4.012-6.901,1.417-10.021,4.535
				c-3.122,3.122-0.518,6.003-4.534,10.02c-4.014,4.014-6.894,1.408-10.015,4.529c-3.124,3.125-0.515,6.002-4.531,10.017
				c-4.014,4.014-6.895,1.409-10.015,4.529c-3.117,3.117-0.516,6.002-4.527,10.013c-2.162,2.162-4.113,2.435-5.834,2.676
				c-1.512,0.211-2.705,0.378-4.179,1.851c-0.133,0.133-0.288,0.229-0.45,0.299l-4.876,4.877c0.058,0.06,0.109,0.123,0.169,0.183
				c2.711,2.71,6.644,3.17,8.787,1.028l50.926-50.926c2.143-2.142,1.682-6.076-1.028-8.787
				C84.004,26.002,83.941,25.95,83.881,25.893z"/>
		</g>
		<path style="fill:#00B8A5;" d="M75.277,25.033L24.351,75.96c-2.095,2.095-1.694,5.901,0.859,8.603l4.876-4.876
			c-0.185,0.081-0.381,0.128-0.578,0.128c-0.372,0-0.744-0.142-1.028-0.426c-0.568-0.568-0.568-1.489,0-2.057
			c4.021-4.022,6.883-1.398,10.013-4.527c3.128-3.129,0.505-5.992,4.526-10.013c4.075-4.076,6.844-1.356,10.015-4.529
			c3.141-3.139,0.514-6,4.532-10.017c4.03-4.032,6.877-1.392,10.015-4.529c3.133-3.134,0.508-5.994,4.533-10.02
			c2.164-2.164,4.115-2.438,5.837-2.679c0.333-0.047,0.647-0.093,0.956-0.15l4.975-4.974C81.178,23.338,77.372,22.938,75.277,25.033
			z"/>
		<g>
			<path style="fill:#FFFFFF;" d="M84.191,29.162c-0.568-0.568-1.489-0.568-2.058,0c-3.134,3.133-5.993,0.508-10.019,4.534
				c-4.038,4.038-1.391,6.876-4.534,10.02c-3.13,3.13-5.993,0.506-10.015,4.529c-4.017,4.015-1.392,6.878-4.532,10.017
				c-3.146,3.146-5.97,0.483-10.015,4.529c-4.021,4.019-1.397,6.882-4.526,10.012c-3.133,3.133-5.985,0.498-10.013,4.527
				c-0.568,0.568-0.568,1.489,0,2.057c0.603,0.603,1.524,0.533,2.057,0c3.115-3.115,6.001-0.516,10.013-4.527
				c4.01-4.009,1.412-6.897,4.527-10.013c3.117-3.118,6.002-0.517,10.015-4.529c4.008-4.007,1.415-6.901,4.531-10.017
				c3.116-3.116,6.002-0.517,10.015-4.529c4.015-4.015,1.414-6.9,4.534-10.02c3.125-3.125,6.003-0.517,10.021-4.535
				C84.759,30.651,84.759,29.729,84.191,29.162z"/>
		</g>
	</g>
</g>
<g id="Red" style="display:none;">
	<g style="display:inline;">
		<g>
			<path style="fill:#FFEFED;" d="M73.74,26.977c-5.302-5.302-13.898-5.302-19.199,0L27.582,53.935
				c-5.302,5.302-5.302,13.898,0,19.2l7.953,7.953c5.302,5.302,13.898,5.302,19.2,0L81.693,54.13c5.303-5.302,5.303-13.899,0-19.2
				L73.74,26.977z"/>
		</g>
		<g>
			<path style="fill:#FFEFED;" d="M73.74,26.977c-5.302-5.302-13.898-5.302-19.199,0L27.582,53.935
				c-5.302,5.302-5.302,13.898,0,19.2l4.624,4.623L78.364,31.6L73.74,26.977z"/>
		</g>
		<g>
			<path style="fill:#B84E44;" d="M40.377,49.946c0.275,0.867-0.204,1.793-1.07,2.069c-0.867,0.276-1.793-0.203-2.069-1.07
				c-0.275-0.867,0.571-3.639,0.571-3.639S40.101,49.079,40.377,49.946z"/>
		</g>
		<g>
			<path style="fill:#B84E44;" d="M33.638,56.912c0.189,0.89-0.379,1.764-1.269,1.954c-0.89,0.189-1.764-0.378-1.953-1.269
				c-0.189-0.89,0.926-3.564,0.926-3.564S33.448,56.022,33.638,56.912z"/>
		</g>
		<g>
			<path style="fill:#B84E44;" d="M46.723,42.818c0.7,0.581,0.797,1.619,0.216,2.319c-0.58,0.7-1.618,0.797-2.319,0.216
				c-0.699-0.581-1.483-3.371-1.483-3.371S46.022,42.237,46.723,42.818z"/>
		</g>
		<g>
			<path style="fill:#B84E44;" d="M52.456,35.949c0.848,0.33,1.267,1.285,0.938,2.132c-0.33,0.848-1.284,1.268-2.132,0.938
				c-0.848-0.33-2.473-2.73-2.473-2.73S51.608,35.619,52.456,35.949z"/>
		</g>
		<g>
			<path style="fill:#B84E44;" d="M58.879,28.819c0.909-0.013,1.656,0.714,1.67,1.624c0.012,0.909-0.715,1.657-1.625,1.669
				c-0.909,0.013-3.316-1.601-3.316-1.601S57.969,28.831,58.879,28.819z"/>
		</g>
		<g>
			<path style="fill:#C23023;" d="M83.881,25.893l-4.975,4.974c1.094-0.201,2.076-0.554,3.228-1.705
				c0.568-0.568,1.489-0.568,2.058,0c0.567,0.567,0.567,1.489,0,2.057c-4.012,4.012-6.901,1.417-10.02,4.535
				c-3.122,3.122-0.518,6.003-4.534,10.02c-4.014,4.014-6.894,1.408-10.015,4.529c-3.124,3.125-0.515,6.002-4.531,10.017
				c-4.014,4.014-6.895,1.409-10.015,4.529c-3.117,3.117-0.516,6.002-4.527,10.013c-2.162,2.162-4.113,2.435-5.834,2.676
				c-1.512,0.211-2.705,0.378-4.179,1.851c-0.133,0.133-0.288,0.229-0.45,0.299l-4.876,4.877c0.058,0.06,0.109,0.123,0.169,0.183
				c2.711,2.71,6.644,3.17,8.787,1.028l50.926-50.926c2.143-2.142,1.682-6.076-1.028-8.787
				C84.004,26.002,83.941,25.95,83.881,25.893z"/>
		</g>
		<path style="fill:#E54B44;" d="M75.277,25.033L24.351,75.96c-2.095,2.095-1.694,5.901,0.859,8.603l4.876-4.876
			c-0.185,0.081-0.381,0.128-0.578,0.128c-0.372,0-0.744-0.142-1.028-0.426c-0.568-0.568-0.568-1.489,0-2.057
			c4.021-4.022,6.883-1.398,10.013-4.527c3.128-3.129,0.505-5.992,4.526-10.013c4.075-4.076,6.844-1.356,10.015-4.529
			c3.141-3.139,0.514-6,4.532-10.017c4.03-4.032,6.877-1.392,10.015-4.529c3.133-3.134,0.508-5.994,4.533-10.02
			c2.164-2.164,4.115-2.438,5.837-2.679c0.333-0.047,0.647-0.093,0.956-0.15l4.975-4.974C81.178,23.338,77.372,22.938,75.277,25.033
			z"/>
		<g>
			<path style="fill:#FFFFFF;" d="M84.191,29.162c-0.568-0.568-1.489-0.568-2.058,0c-3.134,3.133-5.993,0.508-10.019,4.534
				c-4.038,4.038-1.391,6.876-4.534,10.02c-3.13,3.13-5.993,0.506-10.015,4.529c-4.017,4.015-1.392,6.878-4.532,10.017
				c-3.146,3.146-5.97,0.483-10.015,4.529c-4.021,4.019-1.398,6.882-4.526,10.012c-3.133,3.133-5.985,0.498-10.013,4.527
				c-0.568,0.568-0.568,1.489,0,2.057c0.603,0.603,1.524,0.533,2.057,0c3.115-3.115,6.001-0.516,10.013-4.527
				c4.01-4.009,1.412-6.897,4.527-10.013c3.117-3.118,6.002-0.517,10.015-4.529c4.008-4.007,1.415-6.901,4.531-10.017
				c3.116-3.116,6.002-0.517,10.015-4.529c4.015-4.015,1.414-6.9,4.534-10.02c3.125-3.125,6.003-0.517,10.02-4.535
				C84.759,30.651,84.759,29.729,84.191,29.162z"/>
		</g>
	</g>
</g>
<g id="R-Red" style="display:none;">
	<circle style="display:inline;fill:#FABBAF;" cx="55" cy="55" r="55"/>
	<g style="display:inline;">
		<g>
			<path style="fill:#FFEFED;" d="M73.74,26.977c-5.302-5.302-13.898-5.302-19.199,0L27.582,53.935
				c-5.302,5.302-5.302,13.898,0,19.2l7.953,7.953c5.302,5.302,13.898,5.302,19.2,0L81.693,54.13c5.303-5.302,5.303-13.899,0-19.2
				L73.74,26.977z"/>
		</g>
		<g>
			<path style="fill:#FFEFED;" d="M73.74,26.977c-5.302-5.302-13.898-5.302-19.199,0L27.582,53.935
				c-5.302,5.302-5.302,13.898,0,19.2l4.624,4.623L78.364,31.6L73.74,26.977z"/>
		</g>
		<g>
			<path style="fill:#B84E44;" d="M40.377,49.946c0.275,0.867-0.204,1.793-1.07,2.069c-0.867,0.276-1.793-0.203-2.069-1.07
				c-0.275-0.867,0.571-3.639,0.571-3.639S40.101,49.079,40.377,49.946z"/>
		</g>
		<g>
			<path style="fill:#B84E44;" d="M33.638,56.912c0.189,0.89-0.379,1.764-1.269,1.954c-0.89,0.189-1.764-0.378-1.953-1.269
				c-0.189-0.89,0.926-3.564,0.926-3.564S33.448,56.022,33.638,56.912z"/>
		</g>
		<g>
			<path style="fill:#B84E44;" d="M46.723,42.818c0.7,0.581,0.797,1.619,0.216,2.319c-0.58,0.7-1.618,0.797-2.319,0.216
				c-0.699-0.581-1.483-3.371-1.483-3.371S46.022,42.237,46.723,42.818z"/>
		</g>
		<g>
			<path style="fill:#B84E44;" d="M52.456,35.949c0.848,0.33,1.267,1.285,0.938,2.132c-0.33,0.848-1.284,1.268-2.132,0.938
				c-0.848-0.33-2.473-2.73-2.473-2.73S51.608,35.619,52.456,35.949z"/>
		</g>
		<g>
			<path style="fill:#B84E44;" d="M58.879,28.819c0.909-0.013,1.656,0.714,1.67,1.624c0.012,0.909-0.715,1.657-1.625,1.669
				c-0.909,0.013-3.316-1.601-3.316-1.601S57.969,28.831,58.879,28.819z"/>
		</g>
		<g>
			<path style="fill:#C23023;" d="M83.881,25.893l-4.975,4.974c1.094-0.201,2.076-0.554,3.228-1.705
				c0.568-0.568,1.489-0.568,2.058,0c0.567,0.567,0.567,1.489,0,2.057c-4.012,4.012-6.901,1.417-10.02,4.535
				c-3.122,3.122-0.518,6.003-4.534,10.02c-4.014,4.014-6.894,1.408-10.015,4.529c-3.124,3.125-0.515,6.002-4.531,10.017
				c-4.014,4.014-6.895,1.409-10.015,4.529c-3.117,3.117-0.516,6.002-4.527,10.013c-2.162,2.162-4.113,2.435-5.834,2.676
				c-1.512,0.211-2.705,0.378-4.179,1.851c-0.133,0.133-0.288,0.229-0.45,0.299l-4.876,4.877c0.058,0.06,0.109,0.123,0.169,0.183
				c2.711,2.71,6.644,3.17,8.787,1.028l50.926-50.926c2.143-2.142,1.682-6.076-1.028-8.787
				C84.004,26.002,83.941,25.95,83.881,25.893z"/>
		</g>
		<path style="fill:#E54B44;" d="M75.277,25.033L24.351,75.96c-2.095,2.095-1.694,5.901,0.859,8.603l4.876-4.876
			c-0.185,0.081-0.381,0.128-0.578,0.128c-0.372,0-0.744-0.142-1.028-0.426c-0.568-0.568-0.568-1.489,0-2.057
			c4.021-4.022,6.883-1.398,10.013-4.527c3.128-3.129,0.505-5.992,4.526-10.013c4.075-4.076,6.844-1.356,10.015-4.529
			c3.141-3.139,0.514-6,4.532-10.017c4.03-4.032,6.877-1.392,10.015-4.529c3.133-3.134,0.508-5.994,4.533-10.02
			c2.164-2.164,4.115-2.438,5.837-2.679c0.333-0.047,0.647-0.093,0.956-0.15l4.975-4.974C81.178,23.338,77.372,22.938,75.277,25.033
			z"/>
		<g>
			<path style="fill:#FFFFFF;" d="M84.191,29.162c-0.568-0.568-1.489-0.568-2.058,0c-3.134,3.133-5.993,0.508-10.019,4.534
				c-4.038,4.038-1.391,6.876-4.534,10.02c-3.13,3.13-5.993,0.506-10.015,4.529c-4.017,4.015-1.392,6.878-4.532,10.017
				c-3.146,3.146-5.97,0.483-10.015,4.529c-4.021,4.019-1.398,6.882-4.526,10.012c-3.133,3.133-5.985,0.498-10.013,4.527
				c-0.568,0.568-0.568,1.489,0,2.057c0.603,0.603,1.524,0.533,2.057,0c3.115-3.115,6.001-0.516,10.013-4.527
				c4.01-4.009,1.412-6.897,4.527-10.013c3.117-3.118,6.002-0.517,10.015-4.529c4.008-4.007,1.415-6.901,4.531-10.017
				c3.116-3.116,6.002-0.517,10.015-4.529c4.015-4.015,1.414-6.9,4.534-10.02c3.125-3.125,6.003-0.517,10.02-4.535
				C84.759,30.651,84.759,29.729,84.191,29.162z"/>
		</g>
	</g>
</g>
<g id="Yellow" style="display:none;">
	<g style="display:inline;">
		<g>
			<path style="fill:#FFF5D9;" d="M73.74,26.977c-5.302-5.302-13.898-5.302-19.199,0L27.582,53.935
				c-5.302,5.302-5.302,13.898,0,19.2l7.953,7.953c5.302,5.302,13.898,5.302,19.2,0L81.693,54.13c5.303-5.302,5.303-13.899,0-19.2
				L73.74,26.977z"/>
		</g>
		<g>
			<path style="fill:#FFF5D9;" d="M73.74,26.977c-5.302-5.302-13.898-5.302-19.199,0L27.582,53.935
				c-5.302,5.302-5.302,13.898,0,19.2l4.624,4.623L78.364,31.6L73.74,26.977z"/>
		</g>
		<g>
			<path style="fill:#947615;" d="M40.377,49.946c0.275,0.867-0.204,1.793-1.07,2.069c-0.867,0.276-1.793-0.203-2.069-1.07
				c-0.275-0.867,0.571-3.639,0.571-3.639S40.101,49.079,40.377,49.946z"/>
		</g>
		<g>
			<path style="fill:#947615;" d="M33.638,56.912c0.189,0.89-0.379,1.764-1.269,1.954c-0.89,0.189-1.764-0.378-1.953-1.269
				c-0.189-0.89,0.926-3.564,0.926-3.564S33.448,56.022,33.638,56.912z"/>
		</g>
		<g>
			<path style="fill:#947615;" d="M46.723,42.818c0.7,0.581,0.797,1.619,0.216,2.319c-0.58,0.7-1.618,0.797-2.319,0.216
				c-0.699-0.581-1.483-3.371-1.483-3.371S46.022,42.237,46.723,42.818z"/>
		</g>
		<g>
			<path style="fill:#947615;" d="M52.456,35.949c0.848,0.33,1.267,1.285,0.938,2.132c-0.33,0.848-1.284,1.268-2.132,0.938
				c-0.848-0.33-2.473-2.73-2.473-2.73S51.608,35.619,52.456,35.949z"/>
		</g>
		<g>
			<path style="fill:#947615;" d="M58.879,28.819c0.909-0.013,1.656,0.714,1.67,1.624c0.012,0.909-0.715,1.657-1.625,1.669
				c-0.909,0.013-3.316-1.601-3.316-1.601S57.969,28.832,58.879,28.819z"/>
		</g>
		<g>
			<path style="fill:#E07000;" d="M83.881,25.893l-4.975,4.974c1.094-0.201,2.076-0.554,3.228-1.705
				c0.568-0.568,1.489-0.568,2.058,0c0.567,0.567,0.567,1.489,0,2.057c-4.012,4.012-6.901,1.417-10.021,4.535
				c-3.122,3.122-0.518,6.003-4.534,10.02c-4.014,4.014-6.894,1.408-10.015,4.529c-3.124,3.125-0.515,6.002-4.531,10.017
				c-4.014,4.014-6.895,1.409-10.015,4.529c-3.117,3.117-0.516,6.002-4.527,10.013c-2.162,2.162-4.113,2.435-5.834,2.676
				c-1.512,0.211-2.705,0.378-4.179,1.851c-0.133,0.133-0.288,0.229-0.45,0.299l-4.876,4.877c0.058,0.06,0.109,0.123,0.169,0.183
				c2.711,2.71,6.644,3.17,8.787,1.028l50.926-50.926c2.143-2.142,1.682-6.076-1.028-8.787
				C84.004,26.002,83.941,25.95,83.881,25.893z"/>
		</g>
		<path style="fill:#FA9200;" d="M75.277,25.033L24.351,75.96c-2.095,2.095-1.694,5.901,0.859,8.603l4.876-4.876
			c-0.185,0.081-0.381,0.128-0.578,0.128c-0.372,0-0.744-0.142-1.028-0.426c-0.568-0.568-0.568-1.489,0-2.057
			c4.021-4.022,6.883-1.398,10.013-4.527c3.128-3.129,0.505-5.992,4.526-10.013c4.075-4.076,6.844-1.356,10.015-4.529
			c3.141-3.139,0.514-6,4.532-10.017c4.03-4.032,6.877-1.392,10.015-4.529c3.133-3.134,0.508-5.994,4.533-10.02
			c2.164-2.164,4.115-2.438,5.837-2.679c0.333-0.047,0.647-0.093,0.956-0.15l4.975-4.974C81.178,23.338,77.372,22.938,75.277,25.033
			z"/>
		<g>
			<path style="fill:#FFFFFF;" d="M84.191,29.162c-0.568-0.568-1.489-0.568-2.058,0c-3.134,3.133-5.993,0.508-10.019,4.534
				c-4.038,4.038-1.391,6.876-4.534,10.02c-3.13,3.13-5.993,0.506-10.015,4.529c-4.017,4.015-1.392,6.878-4.532,10.017
				c-3.146,3.146-5.97,0.483-10.015,4.529c-4.021,4.019-1.397,6.882-4.526,10.012c-3.133,3.133-5.985,0.498-10.013,4.527
				c-0.568,0.568-0.568,1.489,0,2.057c0.603,0.603,1.524,0.533,2.057,0c3.115-3.115,6.001-0.516,10.013-4.527
				c4.01-4.009,1.412-6.897,4.527-10.013c3.117-3.118,6.002-0.517,10.015-4.529c4.008-4.007,1.415-6.901,4.531-10.017
				c3.116-3.116,6.002-0.517,10.015-4.529c4.015-4.015,1.414-6.9,4.534-10.02c3.125-3.125,6.003-0.517,10.021-4.535
				C84.759,30.651,84.759,29.729,84.191,29.162z"/>
		</g>
	</g>
</g>
<g id="R-Yellow" style="display:none;">
	<circle style="display:inline;fill:#FFD75E;" cx="55" cy="55" r="55"/>
	<g style="display:inline;">
		<g>
			<path style="fill:#FFF5D9;" d="M73.74,26.977c-5.302-5.302-13.898-5.302-19.199,0L27.582,53.935
				c-5.302,5.302-5.302,13.898,0,19.2l7.953,7.953c5.302,5.302,13.898,5.302,19.2,0L81.693,54.13c5.303-5.302,5.303-13.899,0-19.2
				L73.74,26.977z"/>
		</g>
		<g>
			<path style="fill:#FFF5D9;" d="M73.74,26.977c-5.302-5.302-13.898-5.302-19.199,0L27.582,53.935
				c-5.302,5.302-5.302,13.898,0,19.2l4.624,4.623L78.364,31.6L73.74,26.977z"/>
		</g>
		<g>
			<path style="fill:#947615;" d="M40.377,49.946c0.275,0.867-0.204,1.793-1.07,2.069c-0.867,0.276-1.793-0.203-2.069-1.07
				c-0.275-0.867,0.571-3.639,0.571-3.639S40.101,49.079,40.377,49.946z"/>
		</g>
		<g>
			<path style="fill:#947615;" d="M33.638,56.912c0.189,0.89-0.379,1.764-1.269,1.954c-0.89,0.189-1.764-0.378-1.953-1.269
				c-0.189-0.89,0.926-3.564,0.926-3.564S33.448,56.022,33.638,56.912z"/>
		</g>
		<g>
			<path style="fill:#947615;" d="M46.723,42.818c0.7,0.581,0.797,1.619,0.216,2.319c-0.58,0.7-1.618,0.797-2.319,0.216
				c-0.699-0.581-1.483-3.371-1.483-3.371S46.022,42.237,46.723,42.818z"/>
		</g>
		<g>
			<path style="fill:#947615;" d="M52.456,35.949c0.848,0.33,1.268,1.285,0.938,2.132c-0.33,0.848-1.284,1.268-2.132,0.938
				c-0.848-0.33-2.473-2.73-2.473-2.73S51.608,35.619,52.456,35.949z"/>
		</g>
		<g>
			<path style="fill:#947615;" d="M58.879,28.819c0.909-0.013,1.656,0.714,1.67,1.624c0.012,0.909-0.715,1.657-1.625,1.669
				c-0.909,0.013-3.316-1.601-3.316-1.601S57.969,28.832,58.879,28.819z"/>
		</g>
		<g>
			<path style="fill:#E07000;" d="M83.881,25.893l-4.975,4.974c1.094-0.201,2.076-0.554,3.228-1.705
				c0.568-0.568,1.489-0.568,2.058,0c0.567,0.567,0.567,1.489,0,2.057c-4.012,4.012-6.901,1.417-10.021,4.535
				c-3.122,3.122-0.518,6.003-4.534,10.02c-4.014,4.014-6.893,1.408-10.015,4.529c-3.124,3.125-0.515,6.002-4.531,10.017
				c-4.014,4.014-6.895,1.409-10.015,4.529c-3.117,3.117-0.516,6.002-4.527,10.013c-2.162,2.162-4.113,2.435-5.834,2.676
				c-1.512,0.211-2.705,0.378-4.179,1.851c-0.133,0.133-0.288,0.229-0.45,0.299l-4.876,4.877c0.058,0.06,0.109,0.123,0.169,0.183
				c2.711,2.71,6.644,3.17,8.787,1.028l50.926-50.926c2.143-2.142,1.682-6.076-1.028-8.787
				C84.004,26.002,83.941,25.95,83.881,25.893z"/>
		</g>
		<path style="fill:#FA9200;" d="M75.277,25.033L24.351,75.96c-2.095,2.095-1.694,5.901,0.859,8.603l4.876-4.876
			c-0.186,0.081-0.381,0.128-0.578,0.128c-0.372,0-0.744-0.142-1.028-0.426c-0.568-0.568-0.568-1.489,0-2.057
			c4.021-4.022,6.883-1.398,10.013-4.527c3.128-3.129,0.505-5.992,4.526-10.013c4.075-4.076,6.844-1.356,10.015-4.529
			c3.141-3.139,0.514-6,4.532-10.017c4.03-4.032,6.877-1.392,10.015-4.529c3.133-3.134,0.508-5.994,4.533-10.02
			c2.164-2.164,4.115-2.438,5.837-2.679c0.333-0.047,0.647-0.093,0.956-0.15l4.975-4.974C81.178,23.338,77.372,22.938,75.277,25.033
			z"/>
		<g>
			<path style="fill:#FFFFFF;" d="M84.191,29.162c-0.568-0.568-1.489-0.568-2.058,0c-3.134,3.133-5.993,0.508-10.02,4.534
				c-4.038,4.038-1.391,6.876-4.534,10.02c-3.13,3.13-5.993,0.506-10.015,4.529c-4.017,4.015-1.392,6.878-4.532,10.017
				c-3.146,3.146-5.97,0.483-10.015,4.529c-4.021,4.019-1.397,6.882-4.526,10.012c-3.133,3.133-5.985,0.498-10.013,4.527
				c-0.568,0.568-0.568,1.489,0,2.057c0.603,0.603,1.524,0.533,2.057,0c3.115-3.115,6.001-0.516,10.013-4.527
				c4.01-4.009,1.412-6.897,4.527-10.013c3.117-3.118,6.002-0.517,10.015-4.529c4.008-4.007,1.415-6.901,4.531-10.017
				c3.116-3.116,6.002-0.517,10.015-4.529c4.015-4.015,1.414-6.9,4.534-10.02c3.125-3.125,6.003-0.517,10.021-4.535
				C84.759,30.651,84.759,29.729,84.191,29.162z"/>
		</g>
	</g>
</g>
</svg>
