<?xml version="1.0" encoding="iso-8859-1"?>
<!-- Generator: Adobe Illustrator 17.1.0, SVG Export Plug-In . SVG Version: 6.00 Build 0)  -->
<!DOCTYPE svg PUBLIC "-//W3C//DTD SVG 1.0//EN" "http://www.w3.org/TR/2001/REC-SVG-20010904/DTD/svg10.dtd">
<svg version="1.0" xmlns="http://www.w3.org/2000/svg" xmlns:xlink="http://www.w3.org/1999/xlink" x="0px" y="0px" width="110px"
	 height="110px" viewBox="0 0 110 110" style="enable-background:new 0 0 110 110;" xml:space="preserve">
<g id="Artboard">
</g>
<g id="Multicolor">
	<circle style="fill:#FABC3D;" cx="55" cy="55" r="55"/>
	<g>
		<g>
			<rect x="27" y="43" style="fill:#F0F1F1;" width="56" height="44"/>
		</g>
		<g>
			<polygon style="fill:#FFFFFF;" points="27,73.478 57.478,43 27,43 			"/>
		</g>
		<g>
			<path style="fill:#3E3E3F;" d="M25,41l5.481-12.788C30.796,27.477,31.519,27,32.319,27h45.362c0.8,0,1.523,0.477,1.838,1.212
				L85,41H25z"/>
		</g>
		<g>
			<path style="fill:#CFD3D4;" d="M23,42c0,0.552,0.448,1,1,1h62c0.552,0,1-0.448,1-1s-0.448-1-1-1H24C23.448,41,23,41.448,23,42z"
				/>
		</g>
		<g>
			<path style="fill:#FFFFFF;" d="M47,24c0-0.552-0.448-1-1-1h-2c-0.552,0-1,0.448-1,1v12c0,0.552,0.448,1,1,1h2
				c0.552,0,1-0.448,1-1V24z"/>
		</g>
		<g>
			<path style="fill:#FFFFFF;" d="M67,24c0-0.552-0.448-1-1-1h-2c-0.552,0-1,0.448-1,1v12c0,0.552,0.448,1,1,1h2
				c0.552,0,1-0.448,1-1V24z"/>
		</g>
		<g>
			<polygon style="fill:#6FDAF1;" points="39,38 31,38 31,34 35,30 39,34 			"/>
		</g>
		<g>
			<polygon style="fill:#6FDAF1;" points="59,38 51,38 51,34 55,30 59,34 			"/>
		</g>
		<g>
			<polygon style="fill:#6FDAF1;" points="79,38 71,38 71,34 75,30 79,34 			"/>
		</g>
		<g>
			<path style="fill:#6FDAF1;" d="M79,51v4h-8v-4c0-2.21,1.79-4,4-4S79,48.79,79,51z"/>
		</g>
		<g>
			<path style="fill:#6FDAF1;" d="M67,51v4h-8v-4c0-2.21,1.79-4,4-4S67,48.79,67,51z"/>
		</g>
		<g>
			<path style="fill:#6FDAF1;" d="M51,51v4h-8v-4c0-2.21,1.79-4,4-4S51,48.79,51,51z"/>
		</g>
		<g>
			<path style="fill:#6FDAF1;" d="M39,51v4h-8v-4c0-2.21,1.79-4,4-4S39,48.79,39,51z"/>
		</g>
		<g>
			<path style="fill:#3E3E3F;" d="M63,81c0-4.418-3.582-8-8-8s-8,3.582-8,8v6h16V81z"/>
		</g>
		<g>
			<path style="fill:#6FDAF1;" d="M43,83H31v-3c0-3.314,2.686-6,6-6s6,2.686,6,6V83z"/>
		</g>
		<g>
			<path style="fill:#6FDAF1;" d="M79,83H67v-3c0-3.314,2.686-6,6-6s6,2.686,6,6V83z"/>
		</g>
		<g>
			<rect x="43" y="25" style="fill:#FA5655;" width="4" height="3"/>
		</g>
		<g>
			<rect x="63" y="25" style="fill:#FA5655;" width="4" height="3"/>
		</g>
		<g>
			<path style="fill:#059BBF;" d="M39.21,68.952h-2.121v-8.34h2.121v3.157h2.403v-3.157h2.121v8.34h-2.121v-3.145H39.21V68.952z"/>
			<path style="fill:#059BBF;" d="M45.152,63.357c0-1.92,1.72-2.863,3.452-2.863c1.731,0,3.463,0.954,3.463,2.863v2.851
				c0,1.908-1.72,2.862-3.451,2.862c-1.732,0-3.463-0.954-3.463-2.862V63.357z M47.26,66.208c0,0.613,0.683,0.907,1.355,0.907
				c0.671,0,1.343-0.306,1.343-0.907v-2.851c0-0.648-0.695-0.942-1.378-0.942c-0.66,0-1.319,0.33-1.319,0.942V66.208z"/>
			<path style="fill:#059BBF;" d="M57.267,62.603v6.349h-2.132v-6.349H52.92V60.6h6.561v2.002H57.267z"/>
			<path style="fill:#059BBF;" d="M62.737,63.887h3.38v1.826h-3.38v1.249h3.675v1.991h-5.808v-8.34h5.808v1.979h-3.675V63.887z"/>
			<path style="fill:#059BBF;" d="M67.83,60.612h2.12v6.255h3.393v2.085H67.83V60.612z"/>
		</g>
	</g>
</g>
</svg>
