<?xml version="1.0" encoding="iso-8859-1"?>
<!-- Generator: Adobe Illustrator 17.1.0, SVG Export Plug-In . SVG Version: 6.00 Build 0)  -->
<!DOCTYPE svg PUBLIC "-//W3C//DTD SVG 1.0//EN" "http://www.w3.org/TR/2001/REC-SVG-20010904/DTD/svg10.dtd">
<svg version="1.0" xmlns="http://www.w3.org/2000/svg" xmlns:xlink="http://www.w3.org/1999/xlink" x="0px" y="0px" width="110px"
	 height="110px" viewBox="0 0 110 110" style="enable-background:new 0 0 110 110;" xml:space="preserve">
<g id="Artboard">
</g>
<g id="Multicolor">
	<circle style="fill:#E04F5F;" cx="55" cy="55" r="55"/>
	<g>
		<g>
			<rect x="27" y="83" style="fill:#E2E4E5;" width="56" height="4"/>
		</g>
		<g>
			<polygon style="fill:#FFFFFF;" points="70,57 40,57 35,83 75,83 			"/>
		</g>
		<g>
			<path style="fill:#FFFFFF;" d="M55,39c-3.314,0-6,2.686-6,6h12C61,41.686,58.314,39,55,39z"/>
		</g>
		<g>
			<rect x="43" y="45" style="fill:#F0F1F1;" width="24" height="12"/>
		</g>
		<g>
			<rect x="47" y="49" style="fill:#6FDAF1;" width="4" height="4"/>
		</g>
		<g>
			<rect x="59" y="49" style="fill:#6FDAF1;" width="4" height="4"/>
		</g>
		<g>
			<rect x="41" y="75" style="fill:#6FDAF1;" width="6" height="4"/>
		</g>
		<g>
			<rect x="63" y="75" style="fill:#6FDAF1;" width="6" height="4"/>
		</g>
		<g>
			<path style="fill:#9C6144;" d="M59,79c0-2.209-1.791-4-4-4s-4,1.791-4,4v4h8V79z"/>
		</g>
		<g>
			<polygon style="fill:#FACB1B;" points="54.905,23.208 56.492,28.094 61.63,28.094 57.473,31.114 59.061,36 54.905,32.98 
				50.748,36 52.336,31.114 48.18,28.094 53.317,28.094 			"/>
		</g>
		<g>
			<polygon style="fill:#FACB1B;" points="72.08,28.208 73.667,33.094 78.805,33.094 74.648,36.114 76.236,41 72.08,37.98 
				67.923,41 69.511,36.114 65.355,33.094 70.492,33.094 			"/>
		</g>
		<g>
			<polygon style="fill:#FACB1B;" points="79.63,44.208 81.217,49.094 86.355,49.094 82.198,52.114 83.786,57 79.63,53.98 
				75.473,57 77.061,52.114 72.905,49.094 78.042,49.094 			"/>
		</g>
		<g>
			<polygon style="fill:#FACB1B;" points="37.63,28.208 36.042,33.094 30.905,33.094 35.061,36.114 33.473,41 37.63,37.98 
				41.786,41 40.198,36.114 44.355,33.094 39.217,33.094 			"/>
		</g>
		<g>
			<polygon style="fill:#FACB1B;" points="30.18,44.208 28.592,49.094 23.455,49.094 27.611,52.114 26.023,57 30.18,53.98 
				34.336,57 32.748,52.114 36.905,49.094 31.767,49.094 			"/>
		</g>
		<g>
			<path style="fill:#059BBF;" d="M43.552,69.19H42v-6.104h1.552v2.31h1.759v-2.31h1.552v6.104h-1.552v-2.302h-1.759V69.19z"/>
			<path style="fill:#059BBF;" d="M47.892,65.095c0-1.405,1.258-2.095,2.526-2.095c1.267,0,2.535,0.698,2.535,2.095v2.086
				c0,1.397-1.259,2.095-2.526,2.095c-1.268,0-2.535-0.698-2.535-2.095V65.095z M49.435,67.181c0,0.448,0.5,0.664,0.992,0.664
				c0.491,0,0.982-0.224,0.982-0.664v-2.086c0-0.474-0.508-0.69-1.008-0.69c-0.483,0-0.966,0.241-0.966,0.69V67.181z"/>
			<path style="fill:#059BBF;" d="M56.749,64.543v4.647h-1.56v-4.647h-1.621v-1.466h4.802v1.466H56.749z"/>
			<path style="fill:#059BBF;" d="M60.745,65.483h2.474v1.336h-2.474v0.914h2.689v1.457h-4.25v-6.104h4.25v1.448h-2.689V65.483z"/>
			<path style="fill:#059BBF;" d="M64.464,63.086h1.552v4.578h2.483v1.526h-4.035V63.086z"/>
		</g>
	</g>
</g>
</svg>
