<?xml version="1.0" encoding="iso-8859-1"?>
<!-- Generator: Adobe Illustrator 17.1.0, SVG Export Plug-In . SVG Version: 6.00 Build 0)  -->
<!DOCTYPE svg PUBLIC "-//W3C//DTD SVG 1.0//EN" "http://www.w3.org/TR/2001/REC-SVG-20010904/DTD/svg10.dtd">
<svg version="1.0" xmlns="http://www.w3.org/2000/svg" xmlns:xlink="http://www.w3.org/1999/xlink" x="0px" y="0px" width="110px"
	 height="110px" viewBox="0 0 110 110" style="enable-background:new 0 0 110 110;" xml:space="preserve">
<g id="Artboard">
</g>
<g id="Multicolor">
	<g>
		<circle style="fill:#32BEA6;" cx="55" cy="55" r="55"/>
	</g>
	<g>
		<path style="fill:#DF2C2C;" d="M83,76c-0.615-1.333-1.698-2.394-3.043-2.982L65,69v-5.001l-3.243,3.241
			c-1.125,1.125-2.651,1.757-4.242,1.757H55h-2.516c-1.591,0-3.116-0.632-4.242-1.757L45,63.999V69l-14.957,4.018
			C28.698,73.606,27.615,74.667,27,76l-4,11h32h32L83,76z"/>
		<path style="fill:#FBC8C8;" d="M70,45c-1,0-1,1.111-1,1.111V46c-0.002-1.196-0.023-2.338-0.087-3.421
			C67.123,41.992,62.931,41,55,41s-12.123,0.992-13.913,1.579C41.023,43.662,41.002,44.804,41,46v12.343
			c0,1.061,0.422,2.079,1.172,2.829l6.071,6.068c1.125,1.125,2.651,1.757,4.242,1.757H55h2.516c1.591,0,3.116-0.632,4.242-1.757
			l6.071-6.068c0.75-0.75,1.172-1.768,1.172-2.829v-3.53c2.226-0.873,3-4.66,3-7.59C72,46.111,71,45,70,45z"/>
		<path style="fill:#FBD7D7;" d="M41,46v0.111c0,0,0-1.111-1-1.111s-2,1.111-2,2.222c0,2.931,0.774,6.717,3,7.59v3.53
			c0,1.061,0.422,2.079,1.172,2.829l6.071,6.068c1.125,1.125,2.651,1.757,4.242,1.757H55V41c-7.931,0-12.123,0.992-13.913,1.579
			C41.023,43.662,41.002,44.804,41,46z"/>
		<path style="fill:#F3B607;" d="M55,71c-7.5,0-10-4-10-4v3c0,0,1.589,2.52,6,3.558V87h3V73.967C54.326,73.983,54.652,74,55,74
			c7.5,0,10-4,10-4v-3C65,67,62.5,71,55,71z"/>
		<g>
			<circle style="fill:#F3B607;" cx="59" cy="78" r="2"/>
		</g>
		<g>
			<circle style="fill:#F3B607;" cx="59" cy="84" r="2"/>
		</g>
		<g>
			<g>
				<polygon style="fill:#F3B607;" points="27,77 25,71 39,68 43,70 41,74 				"/>
			</g>
			<g>
				<circle style="fill:#DF2C2C;" cx="38.5" cy="71.5" r="1.5"/>
			</g>
		</g>
		<g>
			<g>
				<polygon style="fill:#F3B607;" points="83,77 85,71 71,68 67,70 69,74 				"/>
			</g>
			<g>
				<circle style="fill:#DF2C2C;" cx="71.5" cy="71.5" r="1.5"/>
			</g>
		</g>
		<g>
			<path style="fill:#F79392;" d="M51,58h8c0,0,0,3-4,3S51,58,51,58z"/>
		</g>
		<g>
			<path style="fill:#3E3E3F;" d="M51.994,46.997c0-1.104-0.896-2-2-2c-0.002,0-0.004,0-0.006,0
				c0.001,0.021,0.006,0.041,0.006,0.062c0,1.103-0.892,1.996-1.994,2c0.033,1.075,0.91,1.938,1.994,1.938
				C51.098,48.997,51.994,48.102,51.994,46.997z"/>
		</g>
		<g>
			<path style="fill:#3E3E3F;" d="M61.987,46.997c0-1.104-0.896-2-2-2c-0.002,0-0.004,0-0.006,0
				c0.001,0.021,0.006,0.041,0.006,0.062c0,1.103-0.892,1.996-1.994,2c0.033,1.075,0.91,1.938,1.994,1.938
				C61.092,48.997,61.987,48.102,61.987,46.997z"/>
		</g>
		<g>
			<polygon style="fill:#84462D;" points="43,42 43,49.634 42,49.634 40,45.634 40,42 			"/>
		</g>
		<g>
			<polygon style="fill:#84462D;" points="67,42 67,49.634 68,49.634 70,45.634 70,42 			"/>
		</g>
		<g>
			<path style="fill:#DF2C2C;" d="M70,43c0,0-3.75-2-15-2s-15,2-15,2V27.414c0-0.891,0.553-1.676,1.355-1.922
				C43.285,24.899,47.457,24,55,24s11.715,0.899,13.645,1.492C69.448,25.739,70,26.522,70,27.414V43z"/>
		</g>
		<path style="fill:#FA5655;" d="M41.355,25.492C40.553,25.738,40,26.523,40,27.414V43c0,0,3.75-2,15-2V24
			C47.457,24,43.285,24.899,41.355,25.492z"/>
		<g>
			<path style="fill:#F3B607;" d="M40,35v4c0,0,3.75-2,15-2s15,2,15,2v-4c0,0-3.75-2-15-2S40,35,40,35z"/>
		</g>
		<path style="fill:#FACB1B;" d="M40,35v4c0,0,3.75-2,15-2v-4C43.75,33,40,35,40,35z"/>
	</g>
</g>
</svg>
