<?xml version="1.0" encoding="iso-8859-1"?>
<!-- Generator: Adobe Illustrator 17.1.0, SVG Export Plug-In . SVG Version: 6.00 Build 0)  -->
<!DOCTYPE svg PUBLIC "-//W3C//DTD SVG 1.0//EN" "http://www.w3.org/TR/2001/REC-SVG-20010904/DTD/svg10.dtd">
<svg version="1.0" xmlns="http://www.w3.org/2000/svg" xmlns:xlink="http://www.w3.org/1999/xlink" x="0px" y="0px" width="110px"
	 height="110px" viewBox="0 0 110 110" style="enable-background:new 0 0 110 110;" xml:space="preserve">
<g id="Artboard">
</g>
<g id="Multicolor">
	<circle style="fill:#25B7D3;" cx="55" cy="55" r="55"/>
	<g>
		<path style="fill:#C9F2F8;" d="M59,55c0-5.324,15.729-7.511,13.691-24H55H37.309C35.271,47.489,51,49.676,51,55
			s-15.729,7.511-13.691,24H55h17.691C74.729,62.511,59,60.324,59,55z"/>
		<path style="fill:#FFFFFF;" d="M37.309,79H55V31H37.309C35.271,47.489,51,49.676,51,55S35.271,62.511,37.309,79z"/>
		<path style="fill:#FA5655;" d="M44.114,42.196c-0.058-0.294,0.018-0.598,0.208-0.829S44.796,41,45.095,41c3.226,0,6.535,0,9.905,0
			v12C52.211,48.352,45.102,47.161,44.114,42.196z"/>
		<path style="fill:#DF2C2C;" d="M65.886,42.196c0.058-0.294-0.018-0.598-0.208-0.829C65.488,41.135,65.204,41,64.905,41
			c-3.226,0-6.535,0-9.905,0v12C57.789,48.352,64.898,47.161,65.886,42.196z"/>
		<path style="fill:#84462D;" d="M79,27c0,2.209-1.791,4-4,4H35c-2.209,0-4-1.791-4-4s1.791-4,4-4h40C77.209,23,79,24.791,79,27z"/>
		<path style="fill:#FA5655;" d="M55,58c-0.441,2.685-9.927,7.01-13.015,14.211c-0.265,0.618-0.202,1.327,0.168,1.889
			c0.37,0.561,0.997,0.9,1.669,0.9H55V58z"/>
		<path style="fill:#DF2C2C;" d="M66.104,75c0.678,0,1.31-0.344,1.679-0.913c0.369-0.569,0.424-1.287,0.147-1.905
			C64.657,64.892,55,60.491,55,58v17H66.104z"/>
		<path style="fill:#9C6144;" d="M55,23H35c-2.209,0-4,1.791-4,4s1.791,4,4,4h20V23z"/>
		<path style="fill:#84462D;" d="M79,83c0,2.209-1.791,4-4,4H35c-2.209,0-4-1.791-4-4s1.791-4,4-4h40C77.209,79,79,80.791,79,83z"/>
		<path style="fill:#9C6144;" d="M55,79H35c-2.209,0-4,1.791-4,4s1.791,4,4,4h20V79z"/>
	</g>
</g>
</svg>
