<?xml version="1.0" encoding="iso-8859-1"?>
<!-- Generator: Adobe Illustrator 17.1.0, SVG Export Plug-In . SVG Version: 6.00 Build 0)  -->
<!DOCTYPE svg PUBLIC "-//W3C//DTD SVG 1.0//EN" "http://www.w3.org/TR/2001/REC-SVG-20010904/DTD/svg10.dtd">
<svg version="1.0" xmlns="http://www.w3.org/2000/svg" xmlns:xlink="http://www.w3.org/1999/xlink" x="0px" y="0px" width="110px"
	 height="110px" viewBox="0 0 110 110" style="enable-background:new 0 0 110 110;" xml:space="preserve">
<g id="Artboard">
</g>
<g id="Multicolor">
	<circle style="fill:#32BEA6;" cx="55" cy="55" r="55"/>
	<g>
		<rect x="26" y="63" style="fill:#F0F1F1;" width="58" height="16"/>
		<path style="fill:#84462D;" d="M55,65.958c-3.31,0-6,2.69-6,6v7h12v-7C61,68.648,58.31,65.958,55,65.958z"/>
		<polygon style="fill:#DF2C2C;" points="23,63 27,55 83,55 87,63 		"/>
		<polygon style="fill:#DF2C2C;" points="35,31 27,39 83,39 75,31 		"/>
		<polygon style="fill:#FFFFFF;" points="63,39 63,35 55,23 47,35 47,39 27,39 27,55 83,55 83,39 		"/>
		<path style="fill:#40C9E7;" d="M52,38c0-1.657,1.343-3,3-3s3,1.343,3,3v13h-6V38z"/>
		<rect x="67" y="43" style="fill:#40C9E7;" width="12" height="8"/>
		<rect x="31" y="43" style="fill:#40C9E7;" width="12" height="8"/>
		<rect x="67" y="67" style="fill:#40C9E7;" width="12" height="8"/>
		<rect x="31" y="67" style="fill:#40C9E7;" width="12" height="8"/>
		<polygon style="fill:#FFFFFF;" points="84,63 84,79 26,79 26,63 23,63 23,87 87,87 87,63 		"/>
		<rect x="47" y="81" style="fill:#E2E4E5;" width="16" height="2"/>
		<rect x="45" y="85" style="fill:#E2E4E5;" width="20" height="2"/>
	</g>
</g>
</svg>
