<?xml version="1.0" encoding="iso-8859-1"?>
<!-- Generator: Adobe Illustrator 17.1.0, SVG Export Plug-In . SVG Version: 6.00 Build 0)  -->
<!DOCTYPE svg PUBLIC "-//W3C//DTD SVG 1.0//EN" "http://www.w3.org/TR/2001/REC-SVG-20010904/DTD/svg10.dtd">
<svg version="1.0" xmlns="http://www.w3.org/2000/svg" xmlns:xlink="http://www.w3.org/1999/xlink" x="0px" y="0px" width="110px"
	 height="110px" viewBox="0 0 110 110" style="enable-background:new 0 0 110 110;" xml:space="preserve">
<g id="Artboard">
</g>
<g id="Multicolor">
	<circle style="fill:#25B7D3;" cx="55" cy="55" r="55"/>
	<g>
		<rect x="27" y="47" style="fill:#FFFFFF;" width="56" height="36"/>
		<path style="fill:#E2E4E5;" d="M79,29c0-1.105-0.895-2-2-2h-4c-1.105,0-2,0.895-2,2v12c0,1.105,0.895,2,2,2h4c1.105,0,2-0.895,2-2
			V29z"/>
		<path style="fill:#DF2C2C;" d="M56.228,23.421c-0.722-0.562-1.734-0.562-2.456,0l-30,20c-0.674,0.525-0.941,1.42-0.664,2.228
			C23.386,46.457,24.146,47,25,47h60c0.854,0,1.614-0.543,1.892-1.351c0.277-0.808,0.011-1.703-0.664-2.228L56.228,23.421z"/>
		<rect x="58" y="55" style="fill:#40C9E7;" width="21" height="15.125"/>
		<path style="fill:#84462D;" d="M49,63c0-4.418-3.582-8-8-8s-8,3.582-8,8v16h16V63z"/>
		<circle style="fill:#FACB1B;" cx="45" cy="69" r="2"/>
		<rect x="23" y="83" style="fill:#0D9681;" width="64" height="4"/>
		<path style="fill:#17B198;" d="M23,83l3.121-3.121C26.684,79.316,27.447,79,28.243,79h53.515c0.796,0,1.559,0.316,2.121,0.879
			L87,83H23z"/>
	</g>
</g>
</svg>
