<?xml version="1.0" encoding="iso-8859-1"?>
<!-- Generator: Adobe Illustrator 17.1.0, SVG Export Plug-In . SVG Version: 6.00 Build 0)  -->
<!DOCTYPE svg PUBLIC "-//W3C//DTD SVG 1.0//EN" "http://www.w3.org/TR/2001/REC-SVG-20010904/DTD/svg10.dtd">
<svg version="1.0" xmlns="http://www.w3.org/2000/svg" xmlns:xlink="http://www.w3.org/1999/xlink" x="0px" y="0px" width="110px"
	 height="110px" viewBox="0 0 110 110" style="enable-background:new 0 0 110 110;" xml:space="preserve">
<g id="Artboard">
</g>
<g id="Multicolor">
	<circle style="fill:#32BEA6;" cx="55" cy="55" r="55"/>
	<g>
		<rect x="27" y="63" style="fill:#F0F1F1;" width="56" height="24"/>
		<path style="fill:#DF2C2C;" d="M86.451,61.629c0.123,0.308,0.086,0.657-0.1,0.932C86.165,62.835,85.855,63,85.523,63H24.477
			c-0.332,0-0.642-0.165-0.828-0.439c-0.186-0.275-0.224-0.624-0.1-0.932l7.2-18C30.9,43.249,31.268,43,31.677,43h46.646
			c0.409,0,0.777,0.249,0.928,0.629L86.451,61.629z"/>
		<path style="fill:#FA5655;" d="M41.081,55c-0.384,0-0.735-0.22-0.901-0.567s-0.12-0.758,0.12-1.058l13.919-17.399
			c0.19-0.237,0.477-0.375,0.781-0.375s0.591,0.138,0.781,0.375L69.7,53.375c0.24,0.3,0.287,0.711,0.12,1.058S69.304,55,68.919,55
			H41.081z"/>
		<rect x="67" y="35" style="fill:#F0F1F1;" width="8" height="8"/>
		<rect x="65" y="31" style="fill:#FFFFFF;" width="12" height="4"/>
		<rect x="35" y="35" style="fill:#F0F1F1;" width="8" height="8"/>
		<rect x="33" y="31" style="fill:#FFFFFF;" width="12" height="4"/>
		<rect x="31" y="67" style="fill:#40C9E7;" width="8" height="8"/>
		<rect x="71" y="67" style="fill:#40C9E7;" width="8" height="8"/>
		<rect x="43" y="55" style="fill:#FFFFFF;" width="24" height="32"/>
		<rect x="49" y="75" style="fill:#8E6134;" width="12" height="12"/>
		<rect x="57" y="59" style="fill:#40C9E7;" width="6" height="8"/>
		<rect x="47" y="59" style="fill:#40C9E7;" width="6" height="8"/>
		<circle style="fill:#FFFFFF;" cx="55" cy="47" r="4"/>
	</g>
</g>
</svg>
