<?xml version="1.0" encoding="iso-8859-1"?>
<!-- Generator: Adobe Illustrator 17.1.0, SVG Export Plug-In . SVG Version: 6.00 Build 0)  -->
<!DOCTYPE svg PUBLIC "-//W3C//DTD SVG 1.0//EN" "http://www.w3.org/TR/2001/REC-SVG-20010904/DTD/svg10.dtd">
<svg version="1.0" xmlns="http://www.w3.org/2000/svg" xmlns:xlink="http://www.w3.org/1999/xlink" x="0px" y="0px" width="110px"
	 height="110px" viewBox="0 0 110 110" style="enable-background:new 0 0 110 110;" xml:space="preserve">
<g id="Artboard">
</g>
<g id="Multicolor">
	<circle style="fill:#25B7D3;" cx="55" cy="55" r="55"/>
	<g>
		<rect x="27" y="59" style="fill:#FFFFFF;" width="36" height="28"/>
		<rect x="47" y="39" style="fill:#FFFFFF;" width="8" height="8"/>
		<rect x="48" y="37" style="fill:#FFFFFF;" width="6" height="2"/>
		<rect x="63" y="66" style="fill:#F0F1F1;" width="24" height="21"/>
		<polygon style="fill:#DF2C2C;" points="63,49 63,66 87,66 		"/>
		<polygon style="fill:#FA5655;" points="63,39 23,59 63,59 		"/>
		<rect x="67" y="73" style="fill:#CFD3D4;" width="16" height="14"/>
		<path style="fill:#84462D;" d="M55,81c0-3.314-2.686-6-6-6s-6,2.686-6,6v6h12V81z"/>
		<rect x="31" y="75" style="fill:#40C9E7;" width="8" height="6"/>
		<rect x="31" y="63" style="fill:#40C9E7;" width="12" height="6"/>
		<rect x="47" y="63" style="fill:#40C9E7;" width="12" height="6"/>
		<rect x="67" y="83" style="fill:#818284;" width="16" height="2"/>
		<rect x="67" y="79" style="fill:#818284;" width="16" height="2"/>
		<rect x="67" y="75" style="fill:#818284;" width="16" height="2"/>
	</g>
</g>
</svg>
