<?xml version="1.0" encoding="iso-8859-1"?>
<!-- Generator: Adobe Illustrator 17.1.0, SVG Export Plug-In . SVG Version: 6.00 Build 0)  -->
<!DOCTYPE svg PUBLIC "-//W3C//DTD SVG 1.0//EN" "http://www.w3.org/TR/2001/REC-SVG-20010904/DTD/svg10.dtd">
<svg version="1.0" xmlns="http://www.w3.org/2000/svg" xmlns:xlink="http://www.w3.org/1999/xlink" x="0px" y="0px" width="110px"
	 height="110px" viewBox="0 0 110 110" style="enable-background:new 0 0 110 110;" xml:space="preserve">
<g id="Artboard">
</g>
<g id="Multicolor">
	<circle style="fill:#FABC3D;" cx="55" cy="55" r="55"/>
	<g>
		<polygon style="fill:#3E3E3F;" points="84.993,45.872 84,27 83,27 82.056,43.997 		"/>
		<g>
			<path style="fill:#099686;" d="M26.47,65.904C26.185,66.569,25.531,67,24.808,67C23.809,67,23,66.191,23,65.192V53c0-2,10-5,18-8
				v-4c0-2.209,1.791-4,4-4h25.528c0.31,0,0.617,0.072,0.894,0.211l14.472,9.236C86.572,46.786,87,47.479,87,48.236L85,65
				c0,1.105-0.895,2-2,2h-0.681c-0.8,0-1.523-0.477-1.838-1.212l-0.905-2.111C78.709,61.654,76.2,60,74,60h-6
				c-2.2,0-4.615,1.692-5.367,3.759l-2.154,5.924C60.191,70.474,59.44,71,58.599,71H47.401c-0.841,0-1.592-0.526-1.88-1.317
				l-2.154-5.924C42.615,61.692,40.2,60,38,60h-5c-2.2,0-4.709,1.654-5.576,3.677L26.47,65.904z"/>
		</g>
		<g>
			<path style="fill:#12B2A0;" d="M45,37c-2.209,0-4,1.791-4,4v4c-8,3-18,6-18,8v12.192C23,66.19,23.809,67,24.808,67
				c0.723,0,1.377-0.431,1.662-1.096l0.955-2.228C28.291,61.654,30.8,60,33,60h5c0.271,0,0.545,0.027,0.819,0.076L61.895,37H45z"/>
		</g>
		<g>
			<path style="fill:#0C7367;" d="M24.808,67c0.723,0,1.377-0.431,1.662-1.096l0.955-2.228C28.291,61.654,30.8,60,33,60h5
				c2.2,0,4.615,1.691,5.367,3.759l2.154,5.924C45.809,70.474,46.56,71,47.401,71h11.198c0.841,0,1.592-0.526,1.88-1.316
				l2.154-5.924C63.385,61.691,65.8,60,68,60h6c2.2,0,4.709,1.654,5.576,3.677l0.905,2.111C80.796,66.523,81.519,67,82.319,67H83
				c1.105,0,2-0.896,2-2l1.432-12H23v12.192C23,66.19,23.809,67,24.808,67z"/>
		</g>
		<g>
			<path style="fill:#099686;" d="M23,53v12.192C23,66.19,23.809,67,24.808,67c0.723,0,1.377-0.431,1.662-1.096l0.955-2.228
				C28.291,61.654,30.8,60,33,60h5c0.271,0,0.545,0.027,0.819,0.076L45.895,53H23z"/>
		</g>
		<g>
			<circle style="fill:#3E3E3F;" cx="35" cy="71" r="8"/>
		</g>
		<g>
			<circle style="fill:#F0F1F1;" cx="35" cy="71" r="2.667"/>
		</g>
		<g>
			<circle style="fill:#3E3E3F;" cx="71" cy="71" r="8"/>
		</g>
		<g>
			<circle style="fill:#F0F1F1;" cx="71" cy="71" r="2.667"/>
		</g>
		<g>
			<polygon style="fill:#6FDAF1;" points="23,59 27,59 29,55 23,55 			"/>
		</g>
		<g>
			<rect x="45" y="40" style="fill:#3E3E3F;" width="14" height="9"/>
		</g>
		<g>
			<polygon style="fill:#3E3E3F;" points="76,49 62,49 62,40 70,40 76,44 			"/>
		</g>
		<g>
			<polygon style="fill:#5B5C5F;" points="45,40 45,49 49.895,49 58.895,40 			"/>
		</g>
	</g>
</g>
</svg>
