<?xml version="1.0" encoding="iso-8859-1"?>
<!-- Generator: Adobe Illustrator 17.1.0, SVG Export Plug-In . SVG Version: 6.00 Build 0)  -->
<!DOCTYPE svg PUBLIC "-//W3C//DTD SVG 1.0//EN" "http://www.w3.org/TR/2001/REC-SVG-20010904/DTD/svg10.dtd">
<svg version="1.0" xmlns="http://www.w3.org/2000/svg" xmlns:xlink="http://www.w3.org/1999/xlink" x="0px" y="0px" width="110px"
	 height="110px" viewBox="0 0 110 110" style="enable-background:new 0 0 110 110;" xml:space="preserve">
<g id="Artboard">
</g>
<g id="Multicolor">
	<circle style="fill:#FABC3D;" cx="55" cy="55" r="55"/>
	<g>
		<g>
			<path style="fill:#3E3E3F;" d="M39,69c0-1.105-0.895-2-2-2h-8c-1.105,0-2,0.895-2,2v16c0,1.105,0.895,2,2,2h8
				c1.105,0,2-0.895,2-2V69z"/>
		</g>
		<g>
			<path style="fill:#3E3E3F;" d="M83,69c0-1.105-0.895-2-2-2h-8c-1.105,0-2,0.895-2,2v16c0,1.105,0.895,2,2,2h8
				c1.105,0,2-0.895,2-2V69z"/>
		</g>
		<g>
			<path style="fill:#0C7367;" d="M79,34c0-2.209-1.791-4-4-4H35c-2.209,0-4,1.791-4,4v14h48V34z"/>
			<path style="fill:#0C7367;" d="M71.015,56.322c-9.45-0.43-22.55-0.43-32,0c-7.01,0.32-12,0.88-12,1.68v9c0,1.104,0.895,2,2,2h52
				c1.105,0,2-0.896,2-2v-9C83.015,57.202,78.025,56.643,71.015,56.322z"/>
		</g>
		<g>
			<polygon style="fill:#5B5C5F;" points="71,74.295 67.015,69 43.015,69 39,74.313 39,80.947 45.02,72.92 47,76.88 63,76.88 
				64.98,72.92 71,80.947 			"/>
		</g>
		<g>
			<path style="fill:#0C7367;" d="M79,48V34c0-2.209-1.791-4-4-4H35c-2.209,0-4,1.791-4,4v14l-4,10h0.016
				c0,0.001-0.001,0.001-0.001,0.002v9c0,1.104,0.896,2,2,2h52c1.104,0,2-0.896,2-2v-9C83.015,58.002,83.049,58.122,79,48z"/>
		</g>
		<g>
			<circle style="fill:#9E9FA0;" cx="60" cy="73.88" r="2"/>
		</g>
		<g>
			<circle style="fill:#9E9FA0;" cx="55" cy="73.88" r="2"/>
		</g>
		<g>
			<circle style="fill:#9E9FA0;" cx="50" cy="73.88" r="2"/>
		</g>
		<g>
			<path style="fill:#099686;" d="M39.015,56.323c9.45-0.43,22.55-0.43,32,0c6.512,0.297,11.275,0.802,11.919,1.513L79,48H31l-4,10
				h0.016C27.026,57.201,32.013,56.642,39.015,56.323z"/>
		</g>
		<g>
			<path style="fill:#099686;" d="M35,30c-2.209,0-4,1.791-4,4v14h25.527l18-18H35z"/>
		</g>
		<g>
			<path style="fill:#5B5C5F;" d="M37,34c-1.104,0-2,0.896-2,2v12h18V34H37z"/>
		</g>
		<g>
			<path style="fill:#3E3E3F;" d="M73,34H57v14h18V36C75,34.896,74.104,34,73,34z"/>
		</g>
		<g>
			<polygon style="fill:#5B5C5F;" points="70.527,34 57,34 57,47.527 			"/>
		</g>
		<g>
			<path style="fill:#3E3E3F;" d="M31,36v-2h-5c-1.105,0-2,0.895-2,2v10c0,1.105,0.895,2,2,2h5v-2h-2V36H31z"/>
		</g>
		<g>
			<path style="fill:#3E3E3F;" d="M79,46v2h5c1.105,0,2-0.895,2-2V36c0-1.105-0.895-2-2-2h-5v2h2v10H79z"/>
		</g>
		<g>
			<path style="fill:#12B2A0;" d="M39.015,56.323c2.881-0.162,6.107-0.222,9.462-0.273l8.05-8.05H31l-4,10
				C27,58,27,57,39.015,56.323z"/>
		</g>
		<g>
			<path style="fill:#3E3E3F;" d="M39,56.32V69h2l1,2h26l1-2h2V56.32C61.55,55.89,48.45,55.89,39,56.32z"/>
		</g>
		<g>
			<circle style="fill:#FBE158;" cx="65" cy="62" r="4"/>
		</g>
		<g>
			<path style="fill:#9E9FA0;" d="M52,68c0,0.552-0.448,1-1,1s-1-0.448-1-1v-9c0-0.552,0.448-1,1-1s1,0.448,1,1V68z"/>
		</g>
		<g>
			<path style="fill:#9E9FA0;" d="M56,68c0,0.552-0.448,1-1,1s-1-0.448-1-1v-9c0-0.552,0.448-1,1-1s1,0.448,1,1V68z"/>
		</g>
		<g>
			<path style="fill:#9E9FA0;" d="M60,68c0,0.552-0.448,1-1,1s-1-0.448-1-1v-9c0-0.552,0.448-1,1-1s1,0.448,1,1V68z"/>
		</g>
		<g>
			<path style="fill:#FBEC9A;" d="M65,58c-2.209,0-4,1.791-4,4c0,1.11,0.453,2.113,1.183,2.838l5.655-5.655
				C67.113,58.453,66.11,58,65,58z"/>
		</g>
		<g>
			<g>
				<circle style="fill:#FBE158;" cx="76.5" cy="58.5" r="3.5"/>
			</g>
			<g>
				<path style="fill:#FBEC9A;" d="M76.516,55c-1.933,0-3.5,1.567-3.5,3.5c0,0.972,0.397,1.85,1.037,2.484L79,56.037
					C78.366,55.397,77.487,55,76.516,55z"/>
			</g>
		</g>
		<g>
			<path style="fill:#099686;" d="M39,56.32C31.99,56.64,27,57.2,27,58v9c0,1.104,0.896,2,2,2h6.527L48.48,56.047
				C45.119,56.098,41.888,56.189,39,56.32z"/>
		</g>
		<g>
			<circle style="fill:#FBE158;" cx="33.5" cy="58.5" r="3.5"/>
		</g>
		<g>
			<path style="fill:#FBEC9A;" d="M33.5,55c-1.933,0-3.5,1.567-3.5,3.5c0,0.972,0.397,1.85,1.037,2.484l4.948-4.948
				C35.35,55.397,34.472,55,33.5,55z"/>
		</g>
		<g>
			<path style="fill:#5B5C5F;" d="M39,65.527l9.48-9.48c-3.361,0.051-6.592,0.142-9.48,0.273V65.527z"/>
		</g>
		<g>
			<circle style="fill:#FBE158;" cx="45" cy="62" r="4"/>
		</g>
		<g>
			<path style="fill:#FBEC9A;" d="M45,58c-2.209,0-4,1.791-4,4c0,1.11,0.453,2.113,1.183,2.838l5.655-5.655
				C47.113,58.453,46.11,58,45,58z"/>
		</g>
	</g>
</g>
</svg>
