<?xml version="1.0" encoding="iso-8859-1"?>
<!-- Generator: Adobe Illustrator 17.1.0, SVG Export Plug-In . SVG Version: 6.00 Build 0)  -->
<!DOCTYPE svg PUBLIC "-//W3C//DTD SVG 1.0//EN" "http://www.w3.org/TR/2001/REC-SVG-20010904/DTD/svg10.dtd">
<svg version="1.0" xmlns="http://www.w3.org/2000/svg" xmlns:xlink="http://www.w3.org/1999/xlink" x="0px" y="0px" width="110px"
	 height="110px" viewBox="0 0 110 110" style="enable-background:new 0 0 110 110;" xml:space="preserve">
<g id="Artboard" style="display:none;">
	
		<rect x="-200.5" y="-290.5" style="display:inline;fill:#808080;stroke:#000000;stroke-miterlimit:10;" width="1392" height="1369"/>
</g>
<g id="R-Multicolor">
	<circle style="fill:#32BEA6;" cx="55" cy="55" r="55"/>
	<g>
		<g>
			<polygon style="fill:#EDBC7C;" points="46.459,55.075 46.458,55.078 55.041,58.5 55.041,55.075 			"/>
		</g>
		<g>
			<path style="fill:#F4D0A1;" d="M65.621,55.514c-1.19,1.49-3.02,2.44-5.08,2.44c-2.281,0-4.277-1.173-5.437-2.952h-0.063h-0.063
				c-0.016,0.025-0.036,0.048-0.052,0.073h0.116h-0.116c-1.167,1.737-3.136,2.879-5.384,2.879c-2.06,0-3.89-0.95-5.08-2.44
				c-0.386,0.149-0.791,0.258-1.209,0.332c5.614,22.451,6.249,25.007,6.838,27.331c0.59,2.25,2.62,3.825,4.951,3.825
				c2.239,0,4.388-1.552,4.97-3.88C60.067,82.9,65.67,60.49,66.83,55.846C66.413,55.772,66.007,55.664,65.621,55.514z"/>
		</g>
		<g>
			<path style="fill:#F8E1C2;" d="M46.458,55.078l0.001-0.003h8.583v-0.073h-12c5.812,23.245,6.453,25.821,7.049,28.175
				c0.59,2.25,2.62,3.825,4.951,3.825V55.075L46.458,55.078z"/>
		</g>
		<g>
			<polygon style="fill:#D4A263;" points="43.844,58.213 45.151,63.441 55.041,67.384 63.139,70.611 64.209,66.331 55.041,62.676 
							"/>
		</g>
		<g>
			<polygon style="fill:#D4A263;" points="46.311,68.08 47.618,73.308 55.041,76.267 61.12,78.69 62.19,74.409 55.041,71.56 			"/>
		</g>
		<g>
			<path style="fill:#D4A263;" d="M48.778,77.947c2.307,9.23,0.706,2.835,1.312,5.23l4.951,1.974l2.688,1.072
				c1.105-0.685,1.949-1.771,2.282-3.101l0.158-0.634l-5.128-2.044L48.778,77.947z"/>
		</g>
		<g>
			<polygon style="fill:#EDBC7C;" points="43.844,58.213 45.151,63.441 55.041,67.384 55.041,62.676 			"/>
		</g>
		<g>
			<polygon style="fill:#EDBC7C;" points="46.311,68.08 47.618,73.308 55.041,76.267 55.041,71.56 			"/>
		</g>
		<g>
			<path style="fill:#EDBC7C;" d="M48.778,77.947c2.307,9.23,0.706,2.835,1.312,5.23l4.951,1.974v-4.707L48.778,77.947z"/>
		</g>
		<g>
			<path style="fill:#D4A263;" d="M60.541,57.954c-2.249,0-4.218-1.142-5.384-2.879h-0.116h-0.116c-0.671,1-1.609,1.797-2.714,2.296
				l2.83,1.128l10.118,4.033l1.07-4.281l-2.649-1.056C62.673,57.676,61.642,57.954,60.541,57.954z"/>
		</g>
		<g>
			<path style="fill:#84462D;" d="M75.041,48.954c0,4.992-5.041,8.253-9.42,6.56c-1.19,1.49-3.02,2.44-5.08,2.44
				c-2.32,0-4.35-1.21-5.5-3.04c-1.15,1.83-3.18,3.04-5.5,3.04c-2.06,0-3.89-0.95-5.08-2.44c-4.366,1.688-9.42-1.552-9.42-6.56
				c0-2.8,1.64-5.21,4.01-6.33c0.17-8.69,7.26-15.67,15.99-15.67s15.82,6.98,15.99,15.67C73.401,43.744,75.041,46.154,75.041,48.954
				z"/>
		</g>
		<g>
			<path style="fill:#9C6144;" d="M39.051,42.624c-2.37,1.12-4.01,3.53-4.01,6.33c0,4.992,5.041,8.253,9.42,6.56
				c1.19,1.49,3.02,2.44,5.08,2.44c2.32,0,4.35-1.21,5.5-3.04v-27.96C46.311,26.954,39.222,33.934,39.051,42.624z"/>
		</g>
		<g>
			<path style="fill:#F0F1F1;" d="M66.247,31.529c-2.885-2.831-6.839-4.575-11.204-4.575c-4.56,0-8.66,1.916-11.573,4.973
				c-0.144,0.402-0.279,0.813-0.402,1.232c-1.208,4.115-1.175,6.761-0.787,8.655c0.118,0.576,0.456,1.007,0.873,1.114
				c0.417,0.108,0.84-0.127,1.094-0.607l3.173-6.174c0.374-0.705,0.96-1.121,1.583-1.121s1.209,0.416,1.583,1.121l2.771,5.681
				c0.374,0.705,0.959,1.12,1.583,1.12c0.623,0,1.208-0.415,1.582-1.12l2.768-5.681c0.374-0.705,0.96-1.121,1.583-1.121
				s1.209,0.416,1.583,1.121l3.229,6.156c0.255,0.481,0.681,0.717,1.099,0.604c0.418-0.112,0.754-0.551,0.867-1.131
				c0.356-1.833,0.345-4.571-0.843-8.617C66.641,32.599,66.45,32.06,66.247,31.529z"/>
		</g>
		<g>
			<path style="fill:#FFFFFF;" d="M55.041,26.954c-4.559,0.001-8.658,1.916-11.571,4.973c-0.144,0.402-0.279,0.813-0.402,1.232
				c-1.208,4.115-1.175,6.761-0.787,8.655c0.118,0.576,0.456,1.007,0.873,1.114c0.417,0.108,0.84-0.127,1.094-0.607l3.173-6.174
				c0.374-0.705,0.96-1.121,1.583-1.121s1.209,0.416,1.583,1.121l2.771,5.681c0.374,0.705,0.959,1.12,1.583,1.12
				c0.035,0,0.068-0.014,0.103-0.017V26.954z"/>
		</g>
	</g>
</g>
<g id="Multicolor" style="display:none;">
	<g style="display:inline;">
		<g>
			<polygon style="fill:#EDBC7C;" points="46.459,55.075 46.458,55.078 55.041,58.5 55.041,55.075 			"/>
		</g>
		<g>
			<path style="fill:#F4D0A1;" d="M65.621,55.514c-1.19,1.49-3.02,2.44-5.08,2.44c-2.281,0-4.277-1.173-5.437-2.952h-0.063h-0.063
				c-0.016,0.025-0.036,0.048-0.052,0.073h0.116h-0.116c-1.167,1.737-3.136,2.879-5.384,2.879c-2.06,0-3.89-0.95-5.08-2.44
				c-0.386,0.149-0.791,0.258-1.209,0.332c5.614,22.451,6.249,25.007,6.838,27.331c0.59,2.25,2.62,3.825,4.951,3.825
				c2.239,0,4.388-1.552,4.97-3.88C60.067,82.9,65.67,60.49,66.83,55.846C66.413,55.772,66.007,55.664,65.621,55.514z"/>
		</g>
		<g>
			<path style="fill:#F8E1C2;" d="M46.458,55.078l0.001-0.003h8.583v-0.073h-12c5.812,23.245,6.453,25.821,7.049,28.175
				c0.59,2.25,2.62,3.825,4.951,3.825V55.075L46.458,55.078z"/>
		</g>
		<g>
			<polygon style="fill:#D4A263;" points="43.844,58.213 45.151,63.441 55.041,67.384 63.139,70.611 64.209,66.331 55.041,62.676 
							"/>
		</g>
		<g>
			<polygon style="fill:#D4A263;" points="46.311,68.08 47.618,73.308 55.041,76.267 61.12,78.69 62.19,74.409 55.041,71.56 			"/>
		</g>
		<g>
			<path style="fill:#D4A263;" d="M48.778,77.947c2.307,9.23,0.706,2.835,1.312,5.23l4.951,1.974l2.688,1.072
				c1.105-0.685,1.949-1.771,2.282-3.101l0.158-0.634l-5.128-2.044L48.778,77.947z"/>
		</g>
		<g>
			<polygon style="fill:#EDBC7C;" points="43.844,58.213 45.151,63.441 55.041,67.384 55.041,62.676 			"/>
		</g>
		<g>
			<polygon style="fill:#EDBC7C;" points="46.311,68.08 47.618,73.308 55.041,76.267 55.041,71.56 			"/>
		</g>
		<g>
			<path style="fill:#EDBC7C;" d="M48.778,77.947c2.307,9.23,0.706,2.835,1.312,5.23l4.951,1.974v-4.707L48.778,77.947z"/>
		</g>
		<g>
			<path style="fill:#D4A263;" d="M60.541,57.954c-2.249,0-4.218-1.142-5.384-2.879h-0.116h-0.116c-0.671,1-1.609,1.797-2.714,2.296
				l2.83,1.128l10.118,4.033l1.07-4.281l-2.649-1.056C62.673,57.676,61.642,57.954,60.541,57.954z"/>
		</g>
		<g>
			<path style="fill:#84462D;" d="M75.041,48.954c0,4.992-5.041,8.253-9.42,6.56c-1.19,1.49-3.02,2.44-5.08,2.44
				c-2.32,0-4.35-1.21-5.5-3.04c-1.15,1.83-3.18,3.04-5.5,3.04c-2.06,0-3.89-0.95-5.08-2.44c-4.366,1.688-9.42-1.552-9.42-6.56
				c0-2.8,1.64-5.21,4.01-6.33c0.17-8.69,7.26-15.67,15.99-15.67s15.82,6.98,15.99,15.67C73.401,43.744,75.041,46.154,75.041,48.954
				z"/>
		</g>
		<g>
			<path style="fill:#9C6144;" d="M39.051,42.624c-2.37,1.12-4.01,3.53-4.01,6.33c0,4.992,5.041,8.253,9.42,6.56
				c1.19,1.49,3.02,2.44,5.08,2.44c2.32,0,4.35-1.21,5.5-3.04v-27.96C46.311,26.954,39.222,33.934,39.051,42.624z"/>
		</g>
		<g>
			<path style="fill:#F0F1F1;" d="M66.247,31.529c-2.885-2.831-6.839-4.575-11.204-4.575c-4.56,0-8.66,1.916-11.573,4.973
				c-0.144,0.402-0.279,0.813-0.402,1.232c-1.208,4.115-1.175,6.761-0.787,8.655c0.118,0.576,0.456,1.007,0.873,1.114
				c0.417,0.108,0.84-0.127,1.094-0.607l3.173-6.174c0.374-0.705,0.96-1.121,1.583-1.121s1.209,0.416,1.583,1.121l2.771,5.681
				c0.374,0.705,0.959,1.12,1.583,1.12c0.623,0,1.208-0.415,1.582-1.12l2.768-5.681c0.374-0.705,0.96-1.121,1.583-1.121
				s1.209,0.416,1.583,1.121l3.229,6.156c0.255,0.481,0.681,0.717,1.099,0.604c0.418-0.112,0.754-0.551,0.867-1.131
				c0.356-1.833,0.345-4.571-0.843-8.617C66.641,32.599,66.45,32.06,66.247,31.529z"/>
		</g>
		<g>
			<path style="fill:#FFFFFF;" d="M55.041,26.954c-4.559,0.001-8.658,1.916-11.571,4.973c-0.144,0.402-0.279,0.813-0.402,1.232
				c-1.208,4.115-1.175,6.761-0.787,8.655c0.118,0.576,0.456,1.007,0.873,1.114c0.417,0.108,0.84-0.127,1.094-0.607l3.173-6.174
				c0.374-0.705,0.96-1.121,1.583-1.121s1.209,0.416,1.583,1.121l2.771,5.681c0.374,0.705,0.959,1.12,1.583,1.12
				c0.035,0,0.068-0.014,0.103-0.017V26.954z"/>
		</g>
	</g>
</g>
<g id="Blue" style="display:none;">
	<g style="display:inline;">
		<g>
			<polygon style="fill:#53BAD4;" points="46.459,55.075 46.457,55.078 55.041,58.5 55.041,55.075 			"/>
		</g>
		<g>
			<path style="fill:#E1F5FA;" d="M65.621,55.514c-1.189,1.49-3.02,2.44-5.08,2.44c-2.28,0-4.277-1.173-5.436-2.952h-0.064h-0.062
				c-0.018,0.025-0.036,0.048-0.053,0.073h0.115h-0.115c-1.166,1.737-3.136,2.879-5.385,2.879c-2.06,0-3.89-0.95-5.08-2.44
				c-0.386,0.149-0.791,0.258-1.209,0.332c5.613,22.451,6.25,25.007,6.838,27.332c0.59,2.25,2.621,3.825,4.951,3.825
				c2.239,0,4.389-1.552,4.971-3.88C60.066,82.9,65.67,60.49,66.83,55.846C66.412,55.772,66.008,55.664,65.621,55.514z"/>
		</g>
		<g>
			<path style="fill:#FFFFFF;" d="M46.457,55.078l0.002-0.003h8.582v-0.073h-12c5.812,23.245,6.453,25.821,7.049,28.175
				c0.59,2.25,2.621,3.825,4.951,3.825V55.075L46.457,55.078z"/>
		</g>
		<g>
			<polygon style="fill:#BBE7F2;" points="43.844,58.213 45.15,63.441 55.041,67.384 63.139,70.611 64.209,66.331 55.041,62.676 			
				"/>
		</g>
		<g>
			<polygon style="fill:#BBE7F2;" points="46.311,68.08 47.617,73.308 55.041,76.268 61.119,78.69 62.189,74.41 55.041,71.56 			"/>
		</g>
		<g>
			<path style="fill:#BBE7F2;" d="M48.777,77.947c2.308,9.23,0.707,2.835,1.312,5.23l4.951,1.974l2.688,1.072
				c1.105-0.685,1.95-1.771,2.282-3.101l0.158-0.634l-5.129-2.044L48.777,77.947z"/>
		</g>
		<g>
			<polygon style="fill:#E1F5FA;" points="43.844,58.213 45.15,63.441 55.041,67.384 55.041,62.676 			"/>
		</g>
		<g>
			<polygon style="fill:#E1F5FA;" points="46.311,68.08 47.617,73.308 55.041,76.268 55.041,71.56 			"/>
		</g>
		<g>
			<path style="fill:#E1F5FA;" d="M48.777,77.947c2.308,9.23,0.707,2.835,1.312,5.23l4.951,1.974v-4.707L48.777,77.947z"/>
		</g>
		<g>
			<path style="fill:#BBE7F2;" d="M60.541,57.954c-2.248,0-4.218-1.142-5.384-2.879h-0.116h-0.115c-0.672,1-1.609,1.797-2.715,2.296
				l2.83,1.128l10.118,4.033l1.069-4.281l-2.648-1.056C62.674,57.676,61.643,57.954,60.541,57.954z"/>
		</g>
		<g>
			<path style="fill:#0081A1;" d="M75.041,48.954c0,4.992-5.041,8.253-9.42,6.56c-1.189,1.489-3.02,2.44-5.08,2.44
				c-2.319,0-4.35-1.21-5.5-3.04c-1.149,1.829-3.18,3.04-5.5,3.04c-2.06,0-3.89-0.95-5.08-2.44c-4.365,1.688-9.42-1.552-9.42-6.56
				c0-2.8,1.641-5.21,4.01-6.33c0.171-8.689,7.261-15.67,15.99-15.67c8.73,0,15.82,6.981,15.99,15.67
				C73.401,43.744,75.041,46.154,75.041,48.954z"/>
		</g>
		<g>
			<path style="fill:#009FC7;" d="M39.051,42.624c-2.369,1.121-4.01,3.531-4.01,6.331c0,4.992,5.042,8.253,9.42,6.56
				c1.191,1.49,3.021,2.44,5.08,2.44c2.32,0,4.351-1.21,5.5-3.04v-27.96C46.312,26.954,39.222,33.934,39.051,42.624z"/>
		</g>
		<g>
			<path style="fill:#E1F5FA;" d="M66.248,31.529c-2.885-2.831-6.84-4.575-11.204-4.575c-4.559,0-8.66,1.916-11.573,4.973
				c-0.144,0.403-0.279,0.813-0.402,1.233c-1.207,4.115-1.175,6.761-0.787,8.655c0.118,0.575,0.456,1.006,0.873,1.114
				c0.416,0.108,0.84-0.127,1.094-0.606l3.172-6.174c0.374-0.705,0.961-1.121,1.583-1.121c0.622,0,1.209,0.416,1.583,1.121
				l2.77,5.681c0.374,0.706,0.96,1.12,1.583,1.12c0.622,0,1.208-0.415,1.582-1.12l2.769-5.681c0.373-0.705,0.959-1.121,1.582-1.121
				c0.623,0,1.209,0.416,1.582,1.121l3.229,6.155c0.256,0.482,0.682,0.717,1.1,0.604c0.418-0.112,0.754-0.551,0.867-1.131
				c0.355-1.833,0.344-4.571-0.844-8.617C66.641,32.599,66.449,32.06,66.248,31.529z"/>
		</g>
		<g>
			<path style="fill:#FFFFFF;" d="M55.041,26.955c-4.559,0-8.658,1.916-11.57,4.973c-0.144,0.402-0.279,0.813-0.402,1.232
				c-1.207,4.115-1.175,6.761-0.787,8.655c0.118,0.576,0.456,1.007,0.873,1.114c0.416,0.108,0.84-0.127,1.094-0.607l3.172-6.174
				c0.374-0.705,0.961-1.121,1.583-1.121c0.622,0,1.209,0.416,1.583,1.121l2.77,5.681c0.374,0.705,0.96,1.12,1.583,1.12
				c0.035,0,0.068-0.014,0.103-0.017V26.955z"/>
		</g>
	</g>
</g>
<g id="R-Blue" style="display:none;">
	<circle style="display:inline;fill:#81D2EB;" cx="55" cy="55" r="55"/>
	<g style="display:inline;">
		<g>
			<polygon style="fill:#53BAD4;" points="46.459,55.075 46.457,55.078 55.041,58.5 55.041,55.075 			"/>
		</g>
		<g>
			<path style="fill:#E1F5FA;" d="M65.621,55.514c-1.189,1.49-3.02,2.44-5.08,2.44c-2.28,0-4.277-1.173-5.436-2.952h-0.064h-0.062
				c-0.018,0.025-0.036,0.048-0.053,0.073h0.115h-0.115c-1.166,1.737-3.136,2.879-5.385,2.879c-2.06,0-3.89-0.95-5.08-2.44
				c-0.386,0.149-0.791,0.258-1.209,0.332c5.613,22.451,6.25,25.007,6.838,27.332c0.59,2.25,2.621,3.825,4.951,3.825
				c2.239,0,4.389-1.552,4.971-3.88C60.066,82.9,65.67,60.49,66.83,55.846C66.412,55.772,66.008,55.664,65.621,55.514z"/>
		</g>
		<g>
			<path style="fill:#FFFFFF;" d="M46.457,55.078l0.002-0.003h8.582v-0.073h-12c5.812,23.245,6.453,25.821,7.049,28.175
				c0.59,2.25,2.621,3.825,4.951,3.825V55.075L46.457,55.078z"/>
		</g>
		<g>
			<polygon style="fill:#BBE7F2;" points="43.844,58.213 45.15,63.441 55.041,67.384 63.139,70.611 64.209,66.331 55.041,62.676 			
				"/>
		</g>
		<g>
			<polygon style="fill:#BBE7F2;" points="46.311,68.08 47.617,73.308 55.041,76.268 61.119,78.69 62.189,74.41 55.041,71.56 			"/>
		</g>
		<g>
			<path style="fill:#BBE7F2;" d="M48.777,77.947c2.308,9.23,0.707,2.835,1.312,5.23l4.951,1.974l2.688,1.072
				c1.105-0.685,1.95-1.771,2.282-3.101l0.158-0.634l-5.129-2.044L48.777,77.947z"/>
		</g>
		<g>
			<polygon style="fill:#E1F5FA;" points="43.844,58.213 45.15,63.441 55.041,67.384 55.041,62.676 			"/>
		</g>
		<g>
			<polygon style="fill:#E1F5FA;" points="46.311,68.08 47.617,73.308 55.041,76.268 55.041,71.56 			"/>
		</g>
		<g>
			<path style="fill:#E1F5FA;" d="M48.777,77.947c2.308,9.23,0.707,2.835,1.312,5.23l4.951,1.974v-4.707L48.777,77.947z"/>
		</g>
		<g>
			<path style="fill:#BBE7F2;" d="M60.541,57.954c-2.248,0-4.218-1.142-5.384-2.879h-0.116h-0.115c-0.672,1-1.609,1.797-2.715,2.296
				l2.83,1.128l10.118,4.033l1.069-4.281l-2.648-1.056C62.674,57.676,61.643,57.954,60.541,57.954z"/>
		</g>
		<g>
			<path style="fill:#0081A1;" d="M75.041,48.954c0,4.992-5.041,8.253-9.42,6.56c-1.189,1.489-3.02,2.44-5.08,2.44
				c-2.319,0-4.35-1.21-5.5-3.04c-1.149,1.829-3.18,3.04-5.5,3.04c-2.06,0-3.89-0.95-5.08-2.44c-4.365,1.688-9.42-1.552-9.42-6.56
				c0-2.8,1.641-5.21,4.01-6.33c0.171-8.689,7.261-15.67,15.99-15.67c8.73,0,15.82,6.981,15.99,15.67
				C73.401,43.744,75.041,46.154,75.041,48.954z"/>
		</g>
		<g>
			<path style="fill:#009FC7;" d="M39.051,42.623c-2.369,1.121-4.01,3.531-4.01,6.331c0,4.992,5.042,8.253,9.42,6.56
				c1.191,1.49,3.021,2.44,5.08,2.44c2.32,0,4.351-1.21,5.5-3.04v-27.96C46.312,26.954,39.222,33.934,39.051,42.623z"/>
		</g>
		<g>
			<path style="fill:#E1F5FA;" d="M66.248,31.529c-2.885-2.831-6.84-4.575-11.204-4.575c-4.559,0-8.66,1.916-11.573,4.973
				c-0.144,0.403-0.279,0.813-0.402,1.233c-1.207,4.115-1.175,6.761-0.787,8.655c0.118,0.575,0.456,1.006,0.873,1.114
				c0.416,0.108,0.84-0.127,1.094-0.606l3.172-6.174c0.374-0.705,0.961-1.121,1.583-1.121c0.622,0,1.209,0.416,1.583,1.121
				l2.77,5.681c0.374,0.706,0.96,1.12,1.583,1.12c0.622,0,1.208-0.415,1.582-1.12l2.769-5.681c0.373-0.705,0.959-1.121,1.582-1.121
				c0.623,0,1.209,0.416,1.582,1.121l3.229,6.155c0.256,0.482,0.682,0.717,1.1,0.604c0.418-0.112,0.754-0.551,0.867-1.131
				c0.355-1.833,0.344-4.571-0.844-8.617C66.641,32.599,66.449,32.06,66.248,31.529z"/>
		</g>
		<g>
			<path style="fill:#FFFFFF;" d="M55.041,26.955c-4.559,0-8.658,1.916-11.57,4.973c-0.144,0.402-0.279,0.813-0.402,1.232
				c-1.207,4.115-1.175,6.761-0.787,8.655c0.118,0.576,0.456,1.007,0.873,1.114c0.416,0.108,0.84-0.127,1.094-0.607l3.172-6.174
				c0.374-0.705,0.961-1.121,1.583-1.121c0.622,0,1.209,0.416,1.583,1.121l2.77,5.681c0.374,0.705,0.96,1.12,1.583,1.12
				c0.035,0,0.068-0.014,0.103-0.017V26.955z"/>
		</g>
	</g>
</g>
<g id="Green" style="display:none;">
	<g style="display:inline;">
		<g>
			<polygon style="fill:#55C9BE;" points="46.459,55.075 46.457,55.078 55.041,58.5 55.041,55.075 			"/>
		</g>
		<g>
			<path style="fill:#D7FCF9;" d="M65.621,55.514c-1.189,1.49-3.019,2.44-5.08,2.44c-2.28,0-4.277-1.173-5.436-2.952h-0.064h-0.062
				c-0.018,0.025-0.036,0.048-0.053,0.073h0.115h-0.115c-1.166,1.737-3.136,2.879-5.385,2.879c-2.06,0-3.89-0.95-5.08-2.44
				c-0.386,0.149-0.791,0.258-1.209,0.332c5.613,22.451,6.25,25.007,6.838,27.331c0.59,2.25,2.621,3.825,4.951,3.825
				c2.239,0,4.389-1.552,4.971-3.88C60.066,82.9,65.67,60.49,66.83,55.846C66.412,55.772,66.008,55.664,65.621,55.514z"/>
		</g>
		<g>
			<path style="fill:#FFFFFF;" d="M46.457,55.078l0.002-0.003h8.582v-0.073h-12c5.812,23.245,6.453,25.821,7.049,28.175
				c0.59,2.25,2.621,3.825,4.951,3.825V55.075L46.457,55.078z"/>
		</g>
		<g>
			<polygon style="fill:#AAF0E9;" points="43.844,58.213 45.15,63.441 55.041,67.384 63.139,70.611 64.209,66.331 55.041,62.676 			
				"/>
		</g>
		<g>
			<polygon style="fill:#AAF0E9;" points="46.31,68.08 47.617,73.308 55.041,76.268 61.119,78.69 62.189,74.41 55.041,71.56 			"/>
		</g>
		<g>
			<path style="fill:#AAF0E9;" d="M48.777,77.947c2.308,9.23,0.707,2.835,1.312,5.23l4.951,1.974l2.688,1.072
				c1.105-0.685,1.95-1.771,2.282-3.101l0.158-0.634l-5.129-2.044L48.777,77.947z"/>
		</g>
		<g>
			<polygon style="fill:#D7FCF9;" points="43.844,58.213 45.15,63.441 55.041,67.384 55.041,62.676 			"/>
		</g>
		<g>
			<polygon style="fill:#D7FCF9;" points="46.31,68.08 47.617,73.308 55.041,76.268 55.041,71.56 			"/>
		</g>
		<g>
			<path style="fill:#D7FCF9;" d="M48.777,77.947c2.308,9.23,0.707,2.835,1.312,5.23l4.951,1.974v-4.707L48.777,77.947z"/>
		</g>
		<g>
			<path style="fill:#AAF0E9;" d="M60.541,57.954c-2.248,0-4.218-1.142-5.384-2.879h-0.116h-0.115c-0.672,1-1.609,1.797-2.715,2.296
				l2.83,1.128l10.118,4.033l1.069-4.281l-2.648-1.056C62.674,57.676,61.643,57.954,60.541,57.954z"/>
		</g>
		<g>
			<path style="fill:#009687;" d="M75.041,48.954c0,4.992-5.041,8.253-9.42,6.56c-1.189,1.489-3.019,2.44-5.08,2.44
				c-2.319,0-4.35-1.21-5.5-3.04c-1.149,1.829-3.18,3.04-5.5,3.04c-2.06,0-3.89-0.95-5.08-2.44c-4.365,1.688-9.42-1.552-9.42-6.56
				c0-2.8,1.641-5.21,4.01-6.33c0.171-8.689,7.261-15.67,15.99-15.67c8.73,0,15.82,6.981,15.99,15.67
				C73.401,43.744,75.041,46.154,75.041,48.954z"/>
		</g>
		<g>
			<path style="fill:#00B8A5;" d="M39.051,42.624c-2.369,1.121-4.01,3.531-4.01,6.331c0,4.992,5.042,8.253,9.42,6.56
				c1.191,1.49,3.021,2.44,5.08,2.44c2.32,0,4.351-1.21,5.5-3.04v-27.96C46.311,26.954,39.222,33.934,39.051,42.624z"/>
		</g>
		<g>
			<path style="fill:#D7FCF9;" d="M66.248,31.529c-2.885-2.831-6.84-4.575-11.204-4.575c-4.559,0-8.66,1.916-11.573,4.973
				c-0.144,0.403-0.279,0.813-0.402,1.232c-1.207,4.115-1.175,6.761-0.787,8.655c0.118,0.575,0.456,1.006,0.873,1.114
				c0.416,0.108,0.84-0.127,1.094-0.606l3.172-6.174c0.374-0.705,0.961-1.121,1.583-1.121c0.622,0,1.209,0.416,1.583,1.121
				l2.77,5.681c0.374,0.706,0.96,1.12,1.583,1.12c0.622,0,1.208-0.415,1.582-1.12l2.769-5.681c0.373-0.705,0.959-1.121,1.582-1.121
				c0.623,0,1.209,0.416,1.582,1.121l3.228,6.155c0.256,0.482,0.682,0.717,1.1,0.604c0.418-0.112,0.754-0.551,0.867-1.131
				c0.355-1.833,0.344-4.571-0.844-8.617C66.641,32.599,66.449,32.06,66.248,31.529z"/>
		</g>
		<g>
			<path style="fill:#FFFFFF;" d="M55.041,26.955c-4.559,0-8.658,1.916-11.57,4.973c-0.144,0.402-0.279,0.813-0.402,1.232
				c-1.207,4.115-1.175,6.761-0.787,8.655c0.118,0.576,0.456,1.007,0.873,1.114c0.416,0.108,0.84-0.127,1.094-0.607l3.172-6.174
				c0.374-0.705,0.961-1.121,1.583-1.121c0.622,0,1.209,0.416,1.583,1.121l2.77,5.681c0.374,0.705,0.96,1.12,1.583,1.12
				c0.035,0,0.068-0.014,0.103-0.017V26.955z"/>
		</g>
	</g>
</g>
<g id="R-Green" style="display:none;">
	<circle style="display:inline;fill:#77E0C4;" cx="55" cy="55" r="55"/>
	<g style="display:inline;">
		<g>
			<polygon style="fill:#55C9BE;" points="46.459,55.075 46.457,55.078 55.041,58.5 55.041,55.075 			"/>
		</g>
		<g>
			<path style="fill:#D7FCF9;" d="M65.621,55.514c-1.189,1.49-3.02,2.44-5.08,2.44c-2.28,0-4.277-1.173-5.436-2.952h-0.064h-0.062
				c-0.018,0.025-0.036,0.048-0.053,0.073h0.115h-0.115c-1.166,1.737-3.136,2.879-5.385,2.879c-2.06,0-3.89-0.95-5.08-2.44
				c-0.386,0.149-0.791,0.258-1.209,0.332c5.613,22.451,6.25,25.007,6.838,27.332c0.59,2.25,2.621,3.825,4.951,3.825
				c2.239,0,4.389-1.552,4.971-3.88C60.066,82.9,65.67,60.49,66.83,55.846C66.412,55.772,66.008,55.664,65.621,55.514z"/>
		</g>
		<g>
			<path style="fill:#FFFFFF;" d="M46.457,55.078l0.002-0.003h8.582v-0.073h-12c5.812,23.245,6.453,25.821,7.049,28.175
				c0.59,2.25,2.621,3.825,4.951,3.825V55.075L46.457,55.078z"/>
		</g>
		<g>
			<polygon style="fill:#AAF0E9;" points="43.844,58.213 45.15,63.441 55.041,67.384 63.139,70.611 64.209,66.331 55.041,62.676 			
				"/>
		</g>
		<g>
			<polygon style="fill:#AAF0E9;" points="46.311,68.08 47.617,73.308 55.041,76.268 61.119,78.69 62.189,74.41 55.041,71.56 			"/>
		</g>
		<g>
			<path style="fill:#AAF0E9;" d="M48.777,77.947c2.308,9.23,0.707,2.835,1.312,5.23l4.951,1.974l2.688,1.072
				c1.105-0.685,1.95-1.771,2.282-3.101l0.158-0.634l-5.129-2.044L48.777,77.947z"/>
		</g>
		<g>
			<polygon style="fill:#D7FCF9;" points="43.844,58.213 45.15,63.441 55.041,67.384 55.041,62.676 			"/>
		</g>
		<g>
			<polygon style="fill:#D7FCF9;" points="46.311,68.08 47.617,73.308 55.041,76.268 55.041,71.56 			"/>
		</g>
		<g>
			<path style="fill:#D7FCF9;" d="M48.777,77.947c2.308,9.23,0.707,2.835,1.312,5.23l4.951,1.974v-4.707L48.777,77.947z"/>
		</g>
		<g>
			<path style="fill:#AAF0E9;" d="M60.541,57.954c-2.248,0-4.218-1.142-5.384-2.879h-0.116h-0.115c-0.672,1-1.609,1.797-2.715,2.296
				l2.83,1.128l10.118,4.033l1.069-4.281l-2.648-1.056C62.674,57.676,61.643,57.954,60.541,57.954z"/>
		</g>
		<g>
			<path style="fill:#009687;" d="M75.041,48.954c0,4.992-5.041,8.253-9.42,6.56c-1.189,1.489-3.02,2.44-5.08,2.44
				c-2.319,0-4.35-1.21-5.5-3.04c-1.149,1.829-3.18,3.04-5.5,3.04c-2.06,0-3.89-0.95-5.08-2.44c-4.365,1.688-9.42-1.552-9.42-6.56
				c0-2.8,1.641-5.21,4.01-6.33c0.171-8.689,7.261-15.67,15.99-15.67c8.73,0,15.82,6.981,15.99,15.67
				C73.401,43.744,75.041,46.154,75.041,48.954z"/>
		</g>
		<g>
			<path style="fill:#00B8A5;" d="M39.051,42.624c-2.369,1.121-4.01,3.531-4.01,6.331c0,4.992,5.042,8.253,9.42,6.56
				c1.191,1.49,3.021,2.44,5.08,2.44c2.32,0,4.351-1.21,5.5-3.04v-27.96C46.312,26.954,39.222,33.934,39.051,42.624z"/>
		</g>
		<g>
			<path style="fill:#D7FCF9;" d="M66.248,31.529c-2.885-2.831-6.84-4.575-11.204-4.575c-4.559,0-8.66,1.916-11.573,4.973
				c-0.145,0.403-0.279,0.813-0.402,1.233c-1.207,4.115-1.175,6.761-0.787,8.655c0.118,0.575,0.456,1.006,0.873,1.114
				c0.416,0.108,0.84-0.127,1.094-0.606l3.172-6.174c0.374-0.705,0.961-1.121,1.583-1.121c0.622,0,1.209,0.416,1.583,1.121
				l2.77,5.681c0.374,0.706,0.96,1.12,1.583,1.12c0.622,0,1.208-0.415,1.582-1.12l2.769-5.681c0.373-0.705,0.959-1.121,1.582-1.121
				c0.623,0,1.209,0.416,1.582,1.121l3.229,6.155c0.256,0.482,0.682,0.717,1.1,0.604c0.418-0.112,0.754-0.551,0.867-1.131
				c0.355-1.833,0.344-4.571-0.844-8.617C66.641,32.599,66.449,32.06,66.248,31.529z"/>
		</g>
		<g>
			<path style="fill:#FFFFFF;" d="M55.041,26.955c-4.559,0-8.658,1.916-11.57,4.973c-0.145,0.402-0.279,0.813-0.402,1.232
				c-1.207,4.115-1.175,6.761-0.787,8.655c0.118,0.576,0.456,1.007,0.873,1.114c0.416,0.108,0.84-0.127,1.094-0.607l3.172-6.174
				c0.374-0.705,0.961-1.121,1.583-1.121c0.622,0,1.209,0.416,1.583,1.121l2.77,5.681c0.374,0.705,0.96,1.12,1.583,1.12
				c0.035,0,0.068-0.014,0.103-0.017V26.955z"/>
		</g>
	</g>
</g>
<g id="Red" style="display:none;">
	<g style="display:inline;">
		<g>
			<polygon style="fill:#E8A099;" points="46.459,55.075 46.457,55.078 55.041,58.5 55.041,55.075 			"/>
		</g>
		<g>
			<path style="fill:#FFEFED;" d="M65.621,55.514c-1.189,1.49-3.02,2.44-5.08,2.44c-2.28,0-4.277-1.173-5.436-2.952h-0.064h-0.062
				c-0.018,0.025-0.036,0.048-0.053,0.073h0.115h-0.115c-1.166,1.737-3.136,2.879-5.385,2.879c-2.06,0-3.89-0.95-5.08-2.44
				c-0.386,0.149-0.791,0.258-1.209,0.332c5.613,22.451,6.25,25.007,6.838,27.331c0.59,2.25,2.621,3.825,4.951,3.825
				c2.239,0,4.389-1.552,4.971-3.88C60.066,82.9,65.67,60.49,66.83,55.846C66.412,55.772,66.008,55.664,65.621,55.514z"/>
		</g>
		<g>
			<path style="fill:#FFFFFF;" d="M46.457,55.078l0.002-0.003h8.582v-0.073h-12c5.812,23.245,6.453,25.821,7.049,28.175
				c0.59,2.25,2.621,3.825,4.951,3.825V55.075L46.457,55.078z"/>
		</g>
		<g>
			<polygon style="fill:#FFD7D4;" points="43.844,58.213 45.15,63.441 55.041,67.384 63.139,70.611 64.209,66.331 55.041,62.676 			
				"/>
		</g>
		<g>
			<polygon style="fill:#FFD7D4;" points="46.311,68.08 47.617,73.308 55.041,76.268 61.119,78.69 62.189,74.41 55.041,71.56 			"/>
		</g>
		<g>
			<path style="fill:#FFD7D4;" d="M48.777,77.947c2.308,9.23,0.707,2.835,1.312,5.23l4.951,1.974l2.688,1.072
				c1.105-0.685,1.95-1.771,2.282-3.101l0.158-0.634l-5.129-2.044L48.777,77.947z"/>
		</g>
		<g>
			<polygon style="fill:#FFEFED;" points="43.844,58.213 45.15,63.441 55.041,67.384 55.041,62.676 			"/>
		</g>
		<g>
			<polygon style="fill:#FFEFED;" points="46.311,68.08 47.617,73.308 55.041,76.268 55.041,71.56 			"/>
		</g>
		<g>
			<path style="fill:#FFEFED;" d="M48.777,77.947c2.308,9.23,0.707,2.835,1.312,5.23l4.951,1.974v-4.707L48.777,77.947z"/>
		</g>
		<g>
			<path style="fill:#FFD7D4;" d="M60.541,57.954c-2.248,0-4.218-1.142-5.384-2.879h-0.116h-0.115c-0.672,1-1.609,1.797-2.715,2.296
				l2.83,1.128l10.118,4.033l1.069-4.281l-2.648-1.056C62.674,57.676,61.643,57.954,60.541,57.954z"/>
		</g>
		<g>
			<path style="fill:#C23023;" d="M75.041,48.954c0,4.992-5.041,8.253-9.42,6.56c-1.189,1.489-3.02,2.44-5.08,2.44
				c-2.319,0-4.35-1.21-5.5-3.04c-1.149,1.829-3.18,3.04-5.5,3.04c-2.06,0-3.89-0.95-5.08-2.44c-4.365,1.688-9.42-1.552-9.42-6.56
				c0-2.8,1.641-5.21,4.01-6.33c0.171-8.689,7.261-15.67,15.99-15.67c8.73,0,15.82,6.981,15.99,15.67
				C73.401,43.744,75.041,46.154,75.041,48.954z"/>
		</g>
		<g>
			<path style="fill:#E54B44;" d="M39.051,42.624c-2.369,1.121-4.01,3.531-4.01,6.331c0,4.992,5.042,8.253,9.42,6.56
				c1.191,1.49,3.021,2.44,5.08,2.44c2.32,0,4.351-1.21,5.5-3.04v-27.96C46.312,26.954,39.222,33.934,39.051,42.624z"/>
		</g>
		<g>
			<path style="fill:#FFEFED;" d="M66.248,31.529c-2.885-2.831-6.84-4.575-11.204-4.575c-4.559,0-8.66,1.916-11.573,4.973
				c-0.145,0.403-0.279,0.813-0.402,1.232c-1.207,4.115-1.175,6.761-0.787,8.655c0.118,0.575,0.456,1.006,0.873,1.114
				c0.416,0.108,0.84-0.127,1.094-0.606l3.172-6.174c0.374-0.705,0.961-1.121,1.583-1.121c0.622,0,1.209,0.416,1.583,1.121
				l2.77,5.681c0.374,0.706,0.96,1.12,1.583,1.12c0.622,0,1.208-0.415,1.582-1.12l2.769-5.681c0.373-0.705,0.959-1.121,1.582-1.121
				c0.623,0,1.209,0.416,1.582,1.121l3.229,6.155c0.256,0.482,0.682,0.717,1.1,0.604c0.418-0.112,0.754-0.551,0.867-1.131
				c0.355-1.833,0.344-4.571-0.844-8.617C66.641,32.599,66.449,32.06,66.248,31.529z"/>
		</g>
		<g>
			<path style="fill:#FFFFFF;" d="M55.041,26.955c-4.559,0-8.658,1.916-11.57,4.973c-0.145,0.402-0.279,0.813-0.402,1.232
				c-1.207,4.115-1.175,6.761-0.787,8.655c0.118,0.576,0.456,1.007,0.873,1.114c0.416,0.108,0.84-0.127,1.094-0.607l3.172-6.174
				c0.374-0.705,0.961-1.121,1.583-1.121c0.622,0,1.209,0.416,1.583,1.121l2.77,5.681c0.374,0.705,0.96,1.12,1.583,1.12
				c0.035,0,0.068-0.014,0.103-0.017V26.955z"/>
		</g>
	</g>
</g>
<g id="R-Red" style="display:none;">
	<circle style="display:inline;fill:#FABBAF;" cx="55" cy="55" r="55"/>
	<g style="display:inline;">
		<g>
			<polygon style="fill:#E8A099;" points="46.459,55.075 46.457,55.078 55.041,58.5 55.041,55.075 			"/>
		</g>
		<g>
			<path style="fill:#FFEFED;" d="M65.621,55.514c-1.189,1.49-3.02,2.44-5.08,2.44c-2.28,0-4.277-1.173-5.436-2.952h-0.064h-0.062
				c-0.018,0.025-0.036,0.048-0.053,0.073h0.115h-0.115c-1.166,1.737-3.136,2.879-5.385,2.879c-2.06,0-3.89-0.95-5.08-2.44
				c-0.386,0.149-0.791,0.258-1.209,0.332c5.613,22.451,6.25,25.007,6.838,27.331c0.59,2.25,2.621,3.825,4.951,3.825
				c2.239,0,4.389-1.552,4.971-3.88C60.066,82.9,65.67,60.49,66.83,55.846C66.412,55.772,66.008,55.664,65.621,55.514z"/>
		</g>
		<g>
			<path style="fill:#FFFFFF;" d="M46.457,55.078l0.002-0.003h8.582v-0.073h-12c5.812,23.245,6.453,25.821,7.049,28.175
				c0.59,2.25,2.621,3.825,4.951,3.825V55.075L46.457,55.078z"/>
		</g>
		<g>
			<polygon style="fill:#FFD7D4;" points="43.844,58.213 45.15,63.441 55.041,67.384 63.139,70.611 64.209,66.331 55.041,62.676 			
				"/>
		</g>
		<g>
			<polygon style="fill:#FFD7D4;" points="46.311,68.08 47.617,73.308 55.041,76.268 61.119,78.69 62.189,74.41 55.041,71.56 			"/>
		</g>
		<g>
			<path style="fill:#FFD7D4;" d="M48.777,77.947c2.308,9.23,0.707,2.835,1.312,5.23l4.951,1.974l2.688,1.072
				c1.105-0.685,1.95-1.771,2.282-3.101l0.158-0.634l-5.129-2.044L48.777,77.947z"/>
		</g>
		<g>
			<polygon style="fill:#FFEFED;" points="43.844,58.213 45.15,63.441 55.041,67.384 55.041,62.676 			"/>
		</g>
		<g>
			<polygon style="fill:#FFEFED;" points="46.311,68.08 47.617,73.308 55.041,76.268 55.041,71.56 			"/>
		</g>
		<g>
			<path style="fill:#FFEFED;" d="M48.777,77.947c2.308,9.23,0.707,2.835,1.312,5.23l4.951,1.974v-4.707L48.777,77.947z"/>
		</g>
		<g>
			<path style="fill:#FFD7D4;" d="M60.541,57.954c-2.248,0-4.218-1.142-5.384-2.879h-0.116h-0.115c-0.672,1-1.609,1.797-2.715,2.296
				l2.83,1.128l10.118,4.033l1.069-4.281l-2.648-1.056C62.674,57.676,61.643,57.954,60.541,57.954z"/>
		</g>
		<g>
			<path style="fill:#C23023;" d="M75.041,48.954c0,4.992-5.041,8.253-9.42,6.56c-1.189,1.489-3.02,2.44-5.08,2.44
				c-2.319,0-4.35-1.21-5.5-3.04c-1.149,1.829-3.18,3.04-5.5,3.04c-2.06,0-3.89-0.95-5.08-2.44c-4.365,1.688-9.42-1.552-9.42-6.56
				c0-2.8,1.641-5.21,4.01-6.33c0.171-8.689,7.261-15.67,15.99-15.67c8.73,0,15.82,6.981,15.99,15.67
				C73.401,43.744,75.041,46.154,75.041,48.954z"/>
		</g>
		<g>
			<path style="fill:#E54B44;" d="M39.051,42.624c-2.369,1.121-4.01,3.531-4.01,6.331c0,4.992,5.042,8.253,9.42,6.56
				c1.191,1.49,3.021,2.44,5.08,2.44c2.32,0,4.351-1.21,5.5-3.04v-27.96C46.312,26.954,39.222,33.934,39.051,42.624z"/>
		</g>
		<g>
			<path style="fill:#FFEFED;" d="M66.248,31.529c-2.885-2.831-6.84-4.575-11.204-4.575c-4.559,0-8.66,1.916-11.573,4.973
				c-0.145,0.403-0.279,0.813-0.402,1.232c-1.207,4.115-1.175,6.761-0.787,8.655c0.118,0.575,0.456,1.006,0.873,1.114
				c0.416,0.108,0.84-0.127,1.094-0.606l3.172-6.174c0.374-0.705,0.961-1.121,1.583-1.121c0.622,0,1.209,0.416,1.583,1.121
				l2.77,5.681c0.374,0.706,0.96,1.12,1.583,1.12c0.622,0,1.208-0.415,1.582-1.12l2.769-5.681c0.373-0.705,0.959-1.121,1.582-1.121
				c0.623,0,1.209,0.416,1.582,1.121l3.229,6.155c0.256,0.482,0.682,0.717,1.1,0.604c0.418-0.112,0.754-0.551,0.867-1.131
				c0.355-1.833,0.344-4.571-0.844-8.617C66.641,32.599,66.449,32.06,66.248,31.529z"/>
		</g>
		<g>
			<path style="fill:#FFFFFF;" d="M55.041,26.955c-4.559,0-8.658,1.916-11.57,4.973c-0.145,0.402-0.279,0.813-0.402,1.232
				c-1.207,4.115-1.175,6.761-0.787,8.655c0.118,0.576,0.456,1.007,0.873,1.114c0.416,0.108,0.84-0.127,1.094-0.607l3.172-6.174
				c0.374-0.705,0.961-1.121,1.583-1.121c0.622,0,1.209,0.416,1.583,1.121l2.77,5.681c0.374,0.705,0.96,1.12,1.583,1.12
				c0.035,0,0.068-0.014,0.103-0.017V26.955z"/>
		</g>
	</g>
</g>
<g id="Yellow" style="display:none;">
	<g style="display:inline;">
		<g>
			<polygon style="fill:#F5C43D;" points="46.459,55.075 46.457,55.078 55.041,58.5 55.041,55.075 			"/>
		</g>
		<g>
			<path style="fill:#FFF5D9;" d="M65.621,55.514c-1.189,1.49-3.02,2.44-5.08,2.44c-2.28,0-4.277-1.173-5.436-2.952h-0.064h-0.062
				c-0.018,0.025-0.036,0.048-0.053,0.073h0.115h-0.115c-1.166,1.737-3.136,2.879-5.385,2.879c-2.06,0-3.89-0.95-5.08-2.44
				c-0.386,0.149-0.791,0.258-1.209,0.332c5.613,22.451,6.25,25.007,6.838,27.332c0.59,2.25,2.621,3.825,4.951,3.825
				c2.239,0,4.389-1.552,4.971-3.88C60.066,82.9,65.67,60.49,66.83,55.846C66.412,55.772,66.008,55.664,65.621,55.514z"/>
		</g>
		<g>
			<path style="fill:#FFFFFF;" d="M46.457,55.078l0.002-0.003h8.582v-0.073h-12c5.812,23.245,6.453,25.821,7.049,28.175
				c0.59,2.25,2.621,3.825,4.951,3.825V55.075L46.457,55.078z"/>
		</g>
		<g>
			<polygon style="fill:#FFE9A1;" points="43.844,58.213 45.15,63.441 55.041,67.384 63.139,70.611 64.209,66.331 55.041,62.676 			
				"/>
		</g>
		<g>
			<polygon style="fill:#FFE9A1;" points="46.311,68.08 47.617,73.308 55.041,76.268 61.119,78.69 62.189,74.41 55.041,71.56 			"/>
		</g>
		<g>
			<path style="fill:#FFE9A1;" d="M48.777,77.947c2.308,9.23,0.707,2.835,1.312,5.23l4.951,1.974l2.688,1.072
				c1.105-0.685,1.95-1.771,2.282-3.101l0.158-0.634l-5.129-2.044L48.777,77.947z"/>
		</g>
		<g>
			<polygon style="fill:#FFF5D9;" points="43.844,58.213 45.15,63.441 55.041,67.384 55.041,62.676 			"/>
		</g>
		<g>
			<polygon style="fill:#FFF5D9;" points="46.311,68.08 47.617,73.308 55.041,76.268 55.041,71.56 			"/>
		</g>
		<g>
			<path style="fill:#FFF5D9;" d="M48.777,77.947c2.308,9.23,0.707,2.835,1.312,5.23l4.951,1.974v-4.707L48.777,77.947z"/>
		</g>
		<g>
			<path style="fill:#FFE9A1;" d="M60.541,57.954c-2.248,0-4.218-1.142-5.384-2.879h-0.116h-0.115c-0.672,1-1.609,1.797-2.715,2.296
				l2.83,1.128l10.118,4.033l1.069-4.281l-2.648-1.056C62.674,57.676,61.643,57.954,60.541,57.954z"/>
		</g>
		<g>
			<path style="fill:#E07000;" d="M75.041,48.954c0,4.992-5.041,8.253-9.42,6.56c-1.189,1.489-3.02,2.44-5.08,2.44
				c-2.319,0-4.35-1.21-5.5-3.04c-1.149,1.829-3.18,3.04-5.5,3.04c-2.06,0-3.89-0.95-5.08-2.44c-4.365,1.688-9.42-1.552-9.42-6.56
				c0-2.8,1.641-5.21,4.01-6.33c0.171-8.689,7.261-15.67,15.99-15.67c8.73,0,15.82,6.981,15.99,15.67
				C73.401,43.744,75.041,46.154,75.041,48.954z"/>
		</g>
		<g>
			<path style="fill:#FA9200;" d="M39.051,42.624c-2.369,1.121-4.01,3.531-4.01,6.331c0,4.992,5.042,8.253,9.42,6.56
				c1.191,1.49,3.021,2.44,5.08,2.44c2.32,0,4.351-1.21,5.5-3.04v-27.96C46.312,26.954,39.222,33.934,39.051,42.624z"/>
		</g>
		<g>
			<path style="fill:#FFF5D9;" d="M66.248,31.529c-2.885-2.831-6.84-4.575-11.204-4.575c-4.559,0-8.66,1.916-11.573,4.973
				c-0.145,0.403-0.279,0.813-0.402,1.233c-1.207,4.115-1.175,6.761-0.787,8.655c0.118,0.575,0.456,1.006,0.873,1.114
				c0.416,0.108,0.84-0.127,1.094-0.606l3.172-6.174c0.374-0.705,0.961-1.121,1.583-1.121c0.622,0,1.209,0.416,1.583,1.121
				l2.77,5.681c0.374,0.706,0.96,1.12,1.583,1.12c0.622,0,1.208-0.415,1.582-1.12l2.769-5.681c0.373-0.705,0.959-1.121,1.582-1.121
				c0.623,0,1.209,0.416,1.582,1.121l3.229,6.155c0.256,0.482,0.682,0.717,1.1,0.604c0.418-0.112,0.754-0.551,0.867-1.131
				c0.355-1.833,0.344-4.571-0.844-8.617C66.641,32.599,66.449,32.06,66.248,31.529z"/>
		</g>
		<g>
			<path style="fill:#FFFFFF;" d="M55.041,26.955c-4.559,0-8.658,1.916-11.57,4.973c-0.145,0.402-0.279,0.813-0.402,1.232
				c-1.207,4.115-1.175,6.761-0.787,8.655c0.118,0.576,0.456,1.007,0.873,1.114c0.416,0.108,0.84-0.127,1.094-0.607l3.172-6.174
				c0.374-0.705,0.961-1.121,1.583-1.121c0.622,0,1.209,0.416,1.583,1.121l2.77,5.681c0.374,0.705,0.96,1.12,1.583,1.12
				c0.035,0,0.068-0.014,0.103-0.017V26.955z"/>
		</g>
	</g>
</g>
<g id="R-Yellow" style="display:none;">
	<circle style="display:inline;fill:#FFD75E;" cx="55" cy="55" r="55"/>
	<g style="display:inline;">
		<g>
			<polygon style="fill:#F5C43D;" points="46.459,55.075 46.457,55.078 55.041,58.5 55.041,55.075 			"/>
		</g>
		<g>
			<path style="fill:#FFF5D9;" d="M65.621,55.514c-1.189,1.49-3.019,2.44-5.08,2.44c-2.28,0-4.277-1.173-5.436-2.952h-0.064h-0.062
				c-0.018,0.025-0.036,0.048-0.053,0.073h0.115h-0.115c-1.166,1.737-3.136,2.879-5.385,2.879c-2.06,0-3.89-0.95-5.08-2.44
				c-0.386,0.149-0.791,0.258-1.209,0.332c5.613,22.451,6.25,25.007,6.838,27.332c0.59,2.25,2.621,3.825,4.951,3.825
				c2.239,0,4.389-1.552,4.971-3.88C60.066,82.9,65.67,60.49,66.83,55.846C66.412,55.772,66.008,55.664,65.621,55.514z"/>
		</g>
		<g>
			<path style="fill:#FFFFFF;" d="M46.457,55.078l0.002-0.003h8.582v-0.073h-12c5.812,23.245,6.453,25.821,7.049,28.175
				c0.59,2.25,2.621,3.825,4.951,3.825V55.075L46.457,55.078z"/>
		</g>
		<g>
			<polygon style="fill:#FFE9A1;" points="43.844,58.213 45.15,63.441 55.041,67.384 63.139,70.611 64.209,66.331 55.041,62.676 			
				"/>
		</g>
		<g>
			<polygon style="fill:#FFE9A1;" points="46.31,68.08 47.617,73.308 55.041,76.268 61.119,78.69 62.189,74.41 55.041,71.56 			"/>
		</g>
		<g>
			<path style="fill:#FFE9A1;" d="M48.777,77.947c2.308,9.23,0.707,2.835,1.312,5.23l4.951,1.974l2.688,1.072
				c1.105-0.685,1.95-1.771,2.282-3.101l0.158-0.634l-5.129-2.044L48.777,77.947z"/>
		</g>
		<g>
			<polygon style="fill:#FFF5D9;" points="43.844,58.213 45.15,63.441 55.041,67.384 55.041,62.676 			"/>
		</g>
		<g>
			<polygon style="fill:#FFF5D9;" points="46.31,68.08 47.617,73.308 55.041,76.268 55.041,71.56 			"/>
		</g>
		<g>
			<path style="fill:#FFF5D9;" d="M48.777,77.947c2.308,9.23,0.707,2.835,1.312,5.23l4.951,1.974v-4.707L48.777,77.947z"/>
		</g>
		<g>
			<path style="fill:#FFE9A1;" d="M60.541,57.954c-2.248,0-4.218-1.142-5.384-2.879h-0.116h-0.115c-0.672,1-1.609,1.797-2.715,2.296
				l2.83,1.128l10.118,4.033l1.069-4.281l-2.648-1.056C62.674,57.676,61.643,57.954,60.541,57.954z"/>
		</g>
		<g>
			<path style="fill:#E07000;" d="M75.041,48.954c0,4.992-5.041,8.253-9.42,6.56c-1.189,1.489-3.019,2.44-5.08,2.44
				c-2.319,0-4.35-1.21-5.5-3.04c-1.149,1.829-3.18,3.04-5.5,3.04c-2.06,0-3.89-0.95-5.08-2.44c-4.365,1.688-9.42-1.552-9.42-6.56
				c0-2.8,1.641-5.21,4.01-6.33c0.171-8.689,7.261-15.67,15.99-15.67c8.73,0,15.82,6.981,15.99,15.67
				C73.401,43.744,75.041,46.154,75.041,48.954z"/>
		</g>
		<g>
			<path style="fill:#FA9200;" d="M39.051,42.624c-2.369,1.121-4.01,3.531-4.01,6.331c0,4.992,5.042,8.253,9.42,6.56
				c1.191,1.49,3.021,2.44,5.08,2.44c2.32,0,4.351-1.21,5.5-3.04v-27.96C46.311,26.954,39.222,33.934,39.051,42.624z"/>
		</g>
		<g>
			<path style="fill:#FFF5D9;" d="M66.248,31.529c-2.885-2.831-6.84-4.575-11.204-4.575c-4.559,0-8.66,1.916-11.573,4.973
				c-0.144,0.403-0.279,0.813-0.402,1.233c-1.207,4.115-1.175,6.761-0.787,8.655c0.118,0.575,0.456,1.006,0.873,1.114
				c0.416,0.108,0.84-0.127,1.094-0.606l3.172-6.174c0.374-0.705,0.961-1.121,1.583-1.121c0.622,0,1.209,0.416,1.583,1.121
				l2.77,5.681c0.374,0.706,0.96,1.12,1.583,1.12c0.622,0,1.208-0.415,1.582-1.12l2.769-5.681c0.373-0.705,0.959-1.121,1.582-1.121
				c0.623,0,1.209,0.416,1.582,1.121l3.228,6.155c0.256,0.482,0.682,0.717,1.1,0.604c0.418-0.112,0.754-0.551,0.867-1.131
				c0.355-1.833,0.344-4.571-0.844-8.617C66.641,32.599,66.449,32.06,66.248,31.529z"/>
		</g>
		<g>
			<path style="fill:#FFFFFF;" d="M55.041,26.955c-4.559,0-8.658,1.916-11.57,4.973c-0.144,0.402-0.279,0.813-0.402,1.232
				c-1.207,4.115-1.175,6.761-0.787,8.655c0.118,0.576,0.456,1.007,0.873,1.114c0.416,0.108,0.84-0.127,1.094-0.607l3.172-6.174
				c0.374-0.705,0.961-1.121,1.583-1.121c0.622,0,1.209,0.416,1.583,1.121l2.77,5.681c0.374,0.705,0.96,1.12,1.583,1.12
				c0.035,0,0.068-0.014,0.103-0.017V26.955z"/>
		</g>
	</g>
</g>
</svg>
