<?xml version="1.0" encoding="iso-8859-1"?>
<!-- Generator: Adobe Illustrator 17.1.0, SVG Export Plug-In . SVG Version: 6.00 Build 0)  -->
<!DOCTYPE svg PUBLIC "-//W3C//DTD SVG 1.0//EN" "http://www.w3.org/TR/2001/REC-SVG-20010904/DTD/svg10.dtd">
<svg version="1.0" xmlns="http://www.w3.org/2000/svg" xmlns:xlink="http://www.w3.org/1999/xlink" x="0px" y="0px" width="110px"
	 height="110px" viewBox="0 0 110 110" style="enable-background:new 0 0 110 110;" xml:space="preserve">
<g id="Artboard" style="display:none;">
	
		<rect x="-712.5" y="-290.5" style="display:inline;fill:#808080;stroke:#000000;stroke-miterlimit:10;" width="1392" height="1369"/>
</g>
<g id="R-Multicolor">
	<circle style="fill:#25B7D3;" cx="55" cy="55" r="55"/>
	<g>
		<g>
			<path style="fill:#84462D;" d="M68,42.5c0.26,0,0.514,0.026,0.771,0.039C67.606,35.983,61.891,31,55,31
				c-7.066,0-12.893,5.24-13.847,12.043C41.435,43.027,41.714,43,42,43c5.46,0,10.224,2.927,12.848,7.288
				C57.399,45.647,62.331,42.5,68,42.5z"/>
		</g>
		<g>
			<path style="fill:#9C6144;" d="M42,43c5.565,0,10.411,3.038,13,7.538V31c-7.066,0-12.893,5.24-13.847,12.043
				C41.435,43.027,41.714,43,42,43z"/>
		</g>
		<g>
			<path style="fill:#FCF1E2;" d="M65,35.21V39c0,1.105-0.895,2-2,2s-2-0.895-2-2v-2c0-1.105-0.895-2-2-2s-2,0.895-2,2v4
				c0,1.105-0.895,2-2,2s-2-0.895-2-2v-4c0-1.105-0.895-2-2-2s-2,0.895-2,2s-0.895,2-2,2s-2-0.895-2-2v-1.79
				C47.488,32.636,51.085,31,55,31C58.877,31,62.486,32.609,65,35.21z"/>
		</g>
		<g>
			<circle style="fill:#DF2C2C;" cx="55" cy="27" r="4"/>
		</g>
		<g>
			<path style="fill:#FA5655;" d="M51,27c0,2.209,1.791,4,4,4v-8C52.791,23,51,24.791,51,27z"/>
		</g>
		<g>
			<path style="fill:#FFFFFF;" d="M45,35.21V37c0,1.104,0.896,2,2,2c1.105,0,2-0.896,2-2s0.896-2,2-2c1.105,0,2,0.896,2,2v4
				c0,1.104,0.896,2,2,2V31C51.069,31,47.48,32.644,45,35.21z"/>
		</g>
		<g>
			<path style="fill:#F0F1F1;" d="M82.708,67H27.292c4.3,7.431,11.505,12.958,20.057,15.061C44.902,82.36,43,84.422,43,86.95V87h24
				v-0.05c0-2.528-1.902-4.59-4.349-4.89C71.204,79.958,78.408,74.431,82.708,67z"/>
		</g>
		<g>
			<path style="fill:#FFFFFF;" d="M43,86.95V87h12V67H27.292c4.3,7.431,11.505,12.958,20.057,15.061
				C44.902,82.36,43,84.422,43,86.95z"/>
		</g>
		<g>
			<path style="fill:#E2E4E5;" d="M87,65c0,1.105-0.895,2-2,2H25c-1.105,0-2-0.895-2-2s0.895-2,2-2h60C86.105,63,87,63.895,87,65z"
				/>
		</g>
		<g>
			<path style="fill:#F0F1F1;" d="M55,63H25c-1.104,0-2,0.896-2,2s0.896,2,2,2h30V63z"/>
		</g>
		<g>
			<path style="fill:#F99134;" d="M56.128,63C56.683,61.434,57,59.756,57,58c0-8.284-6.716-15-15-15c-8.284,0-15,6.716-15,15
				c0,1.756,0.317,3.434,0.872,5H56.128z"/>
		</g>
		<g>
			<path style="fill:#FFFFFF;" d="M55.27,51C53.464,51,53,52.464,53,54.27V56c0,0.276,0,1-1,1s-1-0.724-1-1l0-2.916
				c0-0.874-0.515-1.717-1.348-1.981C48.271,50.665,47,51.684,47,53v6c2.247,0,4,1.762,4,4H39c0-2.234,1.748-4,4-4V49
				c0-1.105-0.895-2-2-2h-4c-1.105,0-2,0.895-2,2v7.916c0,0.874-0.515,1.717-1.348,1.981C32.271,59.335,31,58.316,31,57l0-8.369
				c0-0.52,0.193-1.031,0.566-1.395C34.419,44.45,38.194,43,42,43C47.601,43,52.67,46.109,55.27,51z"/>
		</g>
		<g>
			<path style="fill:#FACB1B;" d="M81.945,63C82.618,61.295,83,59.444,83,57.5c0-8.284-6.716-15-15-15c-8.284,0-15,6.716-15,15
				c0,1.944,0.382,3.795,1.055,5.5H81.945z"/>
		</g>
		<g>
			<path style="fill:#FFFFFF;" d="M82,62.87V63h-8v-0.13c1.73-0.44,3-2.01,3-3.87v-8.535C77,48.559,75.441,47,73.535,47
				C71.456,47,70,48.638,70,50.465v3.545c0,0.55-0.44,0.99-0.99,0.99h-0.02C68.44,55,68,54.56,68,54.01v-6.02
				c0-0.55-0.44-0.99-0.99-0.99h-0.02C66.44,47,66,47.44,66,47.99v9.51c0,0.83-0.67,1.5-1.5,1.5S63,58.33,63,57.5v-4.86
				c0-3.025-2.412-5.64-5.7-5.64c2.72-2.78,6.51-4.5,10.7-4.5c3.786,0,7.282,1.434,9.78,3.63c0.8,0.69,1.22,1.71,1.22,2.75
				C79,48.881,79,59,79,59C79,60.86,80.27,62.43,82,62.87z"/>
		</g>
	</g>
</g>
<g id="Multicolor" style="display:none;">
	<g style="display:inline;">
		<g>
			<path style="fill:#84462D;" d="M68,42.5c0.26,0,0.514,0.026,0.771,0.039C67.606,35.983,61.891,31,55,31
				c-7.066,0-12.893,5.24-13.847,12.043C41.435,43.027,41.714,43,42,43c5.46,0,10.224,2.927,12.848,7.288
				C57.399,45.647,62.331,42.5,68,42.5z"/>
		</g>
		<g>
			<path style="fill:#9C6144;" d="M42,43c5.565,0,10.411,3.038,13,7.538V31c-7.066,0-12.893,5.24-13.847,12.043
				C41.435,43.027,41.714,43,42,43z"/>
		</g>
		<g>
			<path style="fill:#FCF1E2;" d="M65,35.21V39c0,1.105-0.895,2-2,2s-2-0.895-2-2v-2c0-1.105-0.895-2-2-2s-2,0.895-2,2v4
				c0,1.105-0.895,2-2,2s-2-0.895-2-2v-4c0-1.105-0.895-2-2-2s-2,0.895-2,2s-0.895,2-2,2s-2-0.895-2-2v-1.79
				C47.488,32.636,51.085,31,55,31C58.877,31,62.486,32.609,65,35.21z"/>
		</g>
		<g>
			<circle style="fill:#DF2C2C;" cx="55" cy="27" r="4"/>
		</g>
		<g>
			<path style="fill:#FA5655;" d="M51,27c0,2.209,1.791,4,4,4v-8C52.791,23,51,24.791,51,27z"/>
		</g>
		<g>
			<path style="fill:#FFFFFF;" d="M45,35.21V37c0,1.104,0.896,2,2,2c1.105,0,2-0.896,2-2s0.896-2,2-2c1.105,0,2,0.896,2,2v4
				c0,1.104,0.896,2,2,2V31C51.069,31,47.48,32.644,45,35.21z"/>
		</g>
		<g>
			<path style="fill:#F0F1F1;" d="M82.708,67H27.292c4.3,7.431,11.505,12.958,20.057,15.061C44.902,82.36,43,84.422,43,86.95V87h24
				v-0.05c0-2.528-1.902-4.59-4.349-4.89C71.204,79.958,78.408,74.431,82.708,67z"/>
		</g>
		<g>
			<path style="fill:#FFFFFF;" d="M43,86.95V87h12V67H27.292c4.3,7.431,11.505,12.958,20.057,15.061
				C44.902,82.36,43,84.422,43,86.95z"/>
		</g>
		<g>
			<path style="fill:#E2E4E5;" d="M87,65c0,1.105-0.895,2-2,2H25c-1.105,0-2-0.895-2-2s0.895-2,2-2h60C86.105,63,87,63.895,87,65z"
				/>
		</g>
		<g>
			<path style="fill:#F0F1F1;" d="M55,63H25c-1.104,0-2,0.896-2,2s0.896,2,2,2h30V63z"/>
		</g>
		<g>
			<path style="fill:#F99134;" d="M56.128,63C56.683,61.434,57,59.756,57,58c0-8.284-6.716-15-15-15c-8.284,0-15,6.716-15,15
				c0,1.756,0.317,3.434,0.872,5H56.128z"/>
		</g>
		<g>
			<path style="fill:#FFFFFF;" d="M55.27,51C53.464,51,53,52.464,53,54.27V56c0,0.276,0,1-1,1s-1-0.724-1-1l0-2.916
				c0-0.874-0.515-1.717-1.348-1.981C48.271,50.665,47,51.684,47,53v6c2.247,0,4,1.762,4,4H39c0-2.234,1.748-4,4-4V49
				c0-1.105-0.895-2-2-2h-4c-1.105,0-2,0.895-2,2v7.916c0,0.874-0.515,1.717-1.348,1.981C32.271,59.335,31,58.316,31,57l0-8.369
				c0-0.52,0.193-1.031,0.566-1.395C34.419,44.45,38.194,43,42,43C47.601,43,52.67,46.109,55.27,51z"/>
		</g>
		<g>
			<path style="fill:#FACB1B;" d="M81.945,63C82.618,61.295,83,59.444,83,57.5c0-8.284-6.716-15-15-15c-8.284,0-15,6.716-15,15
				c0,1.944,0.382,3.795,1.055,5.5H81.945z"/>
		</g>
		<g>
			<path style="fill:#FFFFFF;" d="M82,62.87V63h-8v-0.13c1.73-0.44,3-2.01,3-3.87v-8.535C77,48.559,75.441,47,73.535,47
				C71.456,47,70,48.638,70,50.465v3.545c0,0.55-0.44,0.99-0.99,0.99h-0.02C68.44,55,68,54.56,68,54.01v-6.02
				c0-0.55-0.44-0.99-0.99-0.99h-0.02C66.44,47,66,47.44,66,47.99v9.51c0,0.83-0.67,1.5-1.5,1.5S63,58.33,63,57.5v-4.86
				c0-3.025-2.412-5.64-5.7-5.64c2.72-2.78,6.51-4.5,10.7-4.5c3.786,0,7.282,1.434,9.78,3.63c0.8,0.69,1.22,1.71,1.22,2.75
				C79,48.881,79,59,79,59C79,60.86,80.27,62.43,82,62.87z"/>
		</g>
	</g>
</g>
<g id="Blue" style="display:none;">
	<g style="display:inline;">
		<g>
			<path style="fill:#BBE7F2;" d="M68,42.5c0.26,0,0.514,0.026,0.771,0.039C67.605,35.983,61.891,31,55,31
				c-7.066,0-12.894,5.24-13.848,12.043C41.435,43.027,41.714,43,42,43c5.46,0,10.225,2.927,12.848,7.288
				C57.398,45.647,62.33,42.5,68,42.5z"/>
		</g>
		<g>
			<path style="fill:#E1F5FA;" d="M42,43c5.564,0,10.411,3.038,13,7.538V31c-7.066,0-12.894,5.24-13.848,12.043
				C41.435,43.027,41.714,43,42,43z"/>
		</g>
		<g>
			<path style="fill:#E1F5FA;" d="M65,35.21V39c0,1.105-0.896,2-2,2s-2-0.895-2-2v-2c0-1.104-0.896-2-2-2s-2,0.896-2,2v4
				c0,1.105-0.896,2-2,2s-2-0.895-2-2v-4c0-1.104-0.896-2-2-2s-2,0.896-2,2c0,1.105-0.896,2-2,2s-2-0.895-2-2v-1.79
				C47.487,32.636,51.085,31,55,31C58.877,31,62.486,32.609,65,35.21z"/>
		</g>
		<g>
			<circle style="fill:#0081A1;" cx="55" cy="27" r="4"/>
		</g>
		<g>
			<path style="fill:#009FC7;" d="M51,27c0,2.21,1.791,4,4,4v-8C52.791,23,51,24.791,51,27z"/>
		</g>
		<g>
			<path style="fill:#FFFFFF;" d="M45,35.21V37c0,1.104,0.896,2,2,2s2-0.896,2-2s0.896-2,2-2s2,0.896,2,2v4c0,1.104,0.896,2,2,2V31
				C51.069,31,47.479,32.645,45,35.21z"/>
		</g>
		<g>
			<path style="fill:#E1F5FA;" d="M82.709,67H27.291c4.301,7.431,11.506,12.958,20.058,15.061C44.902,82.36,43,84.422,43,86.95V87
				h24v-0.05c0-2.528-1.902-4.59-4.349-4.89C71.203,79.958,78.408,74.431,82.709,67z"/>
		</g>
		<g>
			<path style="fill:#FFFFFF;" d="M43,86.95V87h12V67H27.291c4.301,7.431,11.506,12.958,20.058,15.061
				C44.902,82.36,43,84.422,43,86.95z"/>
		</g>
		<g>
			<path style="fill:#BBE7F2;" d="M87,65c0,1.105-0.896,2-2,2H25c-1.104,0-2-0.895-2-2c0-1.104,0.896-2,2-2h60
				C86.104,63,87,63.896,87,65z"/>
		</g>
		<g>
			<path style="fill:#E1F5FA;" d="M55,63H25c-1.104,0-2,0.896-2,2s0.896,2,2,2h30V63z"/>
		</g>
		<g>
			<path style="fill:#009FC7;" d="M56.128,63C56.683,61.434,57,59.756,57,58c0-8.284-6.716-15-15-15s-15,6.716-15,15
				c0,1.756,0.317,3.434,0.872,5H56.128z"/>
		</g>
		<g>
			<path style="fill:#FFFFFF;" d="M55.27,51C53.464,51,53,52.464,53,54.27V56c0,0.276,0,1-1,1s-1-0.724-1-1v-2.916
				c0-0.874-0.515-1.717-1.348-1.982C48.271,50.666,47,51.685,47,53v6c2.247,0,4,1.762,4,4H39c0-2.233,1.748-4,4-4V49
				c0-1.104-0.896-2-2-2h-4c-1.104,0-2,0.896-2,2v7.916c0,0.874-0.515,1.717-1.348,1.981C32.271,59.335,31,58.316,31,57v-8.368
				c0-0.521,0.193-1.032,0.565-1.395C34.419,44.45,38.194,43,42,43C47.601,43,52.67,46.109,55.27,51z"/>
		</g>
		<g>
			<path style="fill:#0F6175;" d="M81.945,63C82.618,61.295,83,59.444,83,57.5c0-8.284-6.716-15-15-15s-15,6.716-15,15
				c0,1.944,0.382,3.795,1.055,5.5H81.945z"/>
		</g>
		<g>
			<path style="fill:#FFFFFF;" d="M82,62.87V63h-8v-0.13c1.73-0.44,3-2.01,3-3.87v-8.535C77,48.56,75.44,47,73.535,47
				C71.456,47,70,48.638,70,50.465v3.545c0,0.55-0.439,0.99-0.99,0.99h-0.02C68.439,55,68,54.56,68,54.01v-6.02
				c0-0.55-0.439-0.99-0.99-0.99h-0.02C66.439,47,66,47.44,66,47.99v9.51c0,0.83-0.67,1.5-1.5,1.5S63,58.33,63,57.5v-4.86
				c0-3.024-2.412-5.64-5.7-5.64c2.72-2.78,6.511-4.5,10.7-4.5c3.786,0,7.282,1.435,9.78,3.63c0.8,0.69,1.22,1.71,1.22,2.75
				C79,48.881,79,59,79,59C79,60.86,80.27,62.43,82,62.87z"/>
		</g>
	</g>
</g>
<g id="R-Blue" style="display:none;">
	<circle style="display:inline;fill:#81D2EB;" cx="55" cy="55" r="55"/>
	<g style="display:inline;">
		<g>
			<path style="fill:#BBE7F2;" d="M68,42.5c0.26,0,0.514,0.026,0.771,0.039C67.605,35.983,61.891,31,55,31
				c-7.066,0-12.894,5.24-13.848,12.043C41.435,43.027,41.714,43,42,43c5.46,0,10.225,2.927,12.848,7.288
				C57.398,45.647,62.33,42.5,68,42.5z"/>
		</g>
		<g>
			<path style="fill:#E1F5FA;" d="M42,43c5.564,0,10.411,3.038,13,7.538V31c-7.066,0-12.894,5.24-13.848,12.043
				C41.435,43.027,41.714,43,42,43z"/>
		</g>
		<g>
			<path style="fill:#E1F5FA;" d="M65,35.21V39c0,1.105-0.896,2-2,2s-2-0.895-2-2v-2c0-1.104-0.896-2-2-2s-2,0.896-2,2v4
				c0,1.105-0.896,2-2,2s-2-0.895-2-2v-4c0-1.104-0.896-2-2-2s-2,0.896-2,2c0,1.105-0.896,2-2,2s-2-0.895-2-2v-1.79
				C47.487,32.636,51.085,31,55,31C58.877,31,62.486,32.609,65,35.21z"/>
		</g>
		<g>
			<circle style="fill:#0081A1;" cx="55" cy="27" r="4"/>
		</g>
		<g>
			<path style="fill:#009FC7;" d="M51,27c0,2.21,1.791,4,4,4v-8C52.791,23,51,24.791,51,27z"/>
		</g>
		<g>
			<path style="fill:#FFFFFF;" d="M45,35.21V37c0,1.104,0.896,2,2,2s2-0.896,2-2s0.896-2,2-2s2,0.896,2,2v4c0,1.104,0.896,2,2,2V31
				C51.069,31,47.479,32.644,45,35.21z"/>
		</g>
		<g>
			<path style="fill:#E1F5FA;" d="M82.709,67H27.291c4.301,7.431,11.506,12.957,20.058,15.06C44.902,82.36,43,84.422,43,86.95V87h24
				v-0.05c0-2.528-1.902-4.59-4.349-4.89C71.203,79.957,78.408,74.431,82.709,67z"/>
		</g>
		<g>
			<path style="fill:#FFFFFF;" d="M43,86.95V87h12V67H27.291c4.301,7.431,11.506,12.957,20.058,15.06
				C44.902,82.36,43,84.422,43,86.95z"/>
		</g>
		<g>
			<path style="fill:#BBE7F2;" d="M87,65c0,1.105-0.896,2-2,2H25c-1.104,0-2-0.895-2-2c0-1.105,0.896-2,2-2h60
				C86.104,63,87,63.895,87,65z"/>
		</g>
		<g>
			<path style="fill:#E1F5FA;" d="M55,63H25c-1.104,0-2,0.896-2,2c0,1.104,0.896,2,2,2h30V63z"/>
		</g>
		<g>
			<path style="fill:#009FC7;" d="M56.128,63C56.683,61.434,57,59.756,57,58c0-8.284-6.716-15-15-15s-15,6.716-15,15
				c0,1.756,0.317,3.434,0.872,5H56.128z"/>
		</g>
		<g>
			<path style="fill:#FFFFFF;" d="M55.27,51C53.464,51,53,52.464,53,54.27V56c0,0.276,0,1-1,1s-1-0.724-1-1v-2.916
				c0-0.874-0.515-1.717-1.348-1.982C48.271,50.665,47,51.685,47,53v6c2.247,0,4,1.762,4,4H39c0-2.233,1.748-4,4-4V49
				c0-1.104-0.896-2-2-2h-4c-1.104,0-2,0.896-2,2v7.916c0,0.874-0.515,1.717-1.348,1.981C32.271,59.335,31,58.316,31,57v-8.368
				c0-0.521,0.193-1.032,0.565-1.395C34.419,44.45,38.194,43,42,43C47.601,43,52.67,46.109,55.27,51z"/>
		</g>
		<g>
			<path style="fill:#0F6175;" d="M81.945,63C82.618,61.295,83,59.444,83,57.5c0-8.284-6.716-15-15-15s-15,6.716-15,15
				c0,1.944,0.382,3.795,1.055,5.5H81.945z"/>
		</g>
		<g>
			<path style="fill:#FFFFFF;" d="M82,62.87V63h-8v-0.13c1.73-0.44,3-2.01,3-3.87v-8.535C77,48.56,75.44,47,73.535,47
				C71.456,47,70,48.638,70,50.465v3.545c0,0.55-0.439,0.99-0.99,0.99h-0.02C68.439,55,68,54.56,68,54.01v-6.02
				c0-0.55-0.439-0.99-0.99-0.99h-0.02C66.439,47,66,47.44,66,47.99v9.51c0,0.83-0.67,1.5-1.5,1.5S63,58.33,63,57.5v-4.86
				c0-3.024-2.412-5.64-5.7-5.64c2.72-2.78,6.511-4.5,10.7-4.5c3.786,0,7.282,1.435,9.78,3.63c0.8,0.69,1.22,1.71,1.22,2.75
				c0,0.001,0,10.12,0,10.12C79,60.86,80.27,62.43,82,62.87z"/>
		</g>
	</g>
</g>
<g id="Green" style="display:none;">
	<g style="display:inline;">
		<g>
			<path style="fill:#AAF0E9;" d="M68,42.5c0.26,0,0.514,0.026,0.771,0.039C67.605,35.983,61.891,31,55,31
				c-7.066,0-12.894,5.24-13.848,12.043C41.435,43.027,41.714,43,42,43c5.46,0,10.225,2.927,12.848,7.288
				C57.398,45.647,62.33,42.5,68,42.5z"/>
		</g>
		<g>
			<path style="fill:#D7FCF9;" d="M42,43c5.564,0,10.411,3.038,13,7.538V31c-7.066,0-12.894,5.24-13.848,12.043
				C41.435,43.027,41.714,43,42,43z"/>
		</g>
		<g>
			<path style="fill:#D7FCF9;" d="M65,35.21V39c0,1.105-0.896,2-2,2c-1.104,0-2-0.895-2-2v-2c0-1.104-0.896-2-2-2s-2,0.896-2,2v4
				c0,1.105-0.896,2-2,2s-2-0.895-2-2v-4c0-1.104-0.896-2-2-2s-2,0.896-2,2c0,1.105-0.896,2-2,2s-2-0.895-2-2v-1.79
				C47.487,32.636,51.085,31,55,31C58.877,31,62.486,32.609,65,35.21z"/>
		</g>
		<g>
			<circle style="fill:#009687;" cx="55" cy="27" r="4"/>
		</g>
		<g>
			<path style="fill:#00B8A5;" d="M51,27c0,2.209,1.791,4,4,4v-8C52.791,23,51,24.791,51,27z"/>
		</g>
		<g>
			<path style="fill:#FFFFFF;" d="M45,35.21V37c0,1.104,0.896,2,2,2s2-0.896,2-2s0.896-2,2-2s2,0.896,2,2v4c0,1.104,0.896,2,2,2V31
				C51.069,31,47.479,32.645,45,35.21z"/>
		</g>
		<g>
			<path style="fill:#D7FCF9;" d="M82.709,67H27.291c4.301,7.431,11.506,12.957,20.058,15.061C44.902,82.36,43,84.422,43,86.95V87
				h24v-0.05c0-2.528-1.902-4.59-4.349-4.89C71.203,79.957,78.408,74.431,82.709,67z"/>
		</g>
		<g>
			<path style="fill:#FFFFFF;" d="M43,86.95V87h12V67H27.291c4.301,7.431,11.506,12.957,20.058,15.061
				C44.902,82.36,43,84.422,43,86.95z"/>
		</g>
		<g>
			<path style="fill:#AAF0E9;" d="M87,65c0,1.105-0.896,2-2,2H25c-1.104,0-2-0.895-2-2c0-1.104,0.896-2,2-2h60
				C86.104,63,87,63.896,87,65z"/>
		</g>
		<g>
			<path style="fill:#D7FCF9;" d="M55,63H25c-1.104,0-2,0.896-2,2s0.896,2,2,2h30V63z"/>
		</g>
		<g>
			<path style="fill:#00B8A5;" d="M56.128,63C56.683,61.434,57,59.756,57,58c0-8.284-6.716-15-15-15s-15,6.716-15,15
				c0,1.756,0.317,3.434,0.872,5H56.128z"/>
		</g>
		<g>
			<path style="fill:#FFFFFF;" d="M55.269,51C53.464,51,53,52.464,53,54.27V56c0,0.276,0,1-1,1s-1-0.724-1-1v-2.916
				c0-0.874-0.515-1.717-1.348-1.982C48.27,50.666,47,51.685,47,53v6c2.247,0,4,1.762,4,4H39c0-2.233,1.748-4,4-4V49
				c0-1.104-0.896-2-2-2h-4c-1.104,0-2,0.896-2,2v7.916c0,0.874-0.515,1.717-1.348,1.981C32.27,59.335,31,58.316,31,57v-8.368
				c0-0.521,0.193-1.032,0.565-1.395C34.419,44.45,38.194,43,42,43C47.601,43,52.67,46.109,55.269,51z"/>
		</g>
		<g>
			<path style="fill:#14635B;" d="M81.945,63C82.618,61.295,83,59.444,83,57.5c0-8.284-6.716-15-15-15s-15,6.716-15,15
				c0,1.944,0.382,3.795,1.055,5.5H81.945z"/>
		</g>
		<g>
			<path style="fill:#FFFFFF;" d="M82,62.87V63h-8v-0.13c1.73-0.44,3-2.01,3-3.87v-8.535C77,48.56,75.44,47,73.535,47
				C71.456,47,70,48.638,70,50.465v3.545c0,0.55-0.44,0.99-0.99,0.99h-0.02C68.439,55,68,54.56,68,54.01v-6.02
				c0-0.55-0.44-0.99-0.99-0.99h-0.02C66.439,47,66,47.44,66,47.99v9.51c0,0.83-0.67,1.5-1.5,1.5c-0.83,0-1.5-0.67-1.5-1.5v-4.86
				c0-3.024-2.412-5.64-5.7-5.64c2.72-2.78,6.511-4.5,10.7-4.5c3.786,0,7.282,1.435,9.78,3.63c0.8,0.69,1.22,1.71,1.22,2.75
				C79,48.881,79,59,79,59C79,60.86,80.269,62.43,82,62.87z"/>
		</g>
	</g>
</g>
<g id="R-Green" style="display:none;">
	<circle style="display:inline;fill:#77E0C4;" cx="55" cy="55" r="55"/>
	<g style="display:inline;">
		<g>
			<path style="fill:#AAF0E9;" d="M68,42.5c0.26,0,0.514,0.026,0.771,0.039C67.605,35.983,61.891,31,55,31
				c-7.066,0-12.894,5.24-13.848,12.043C41.435,43.027,41.714,43,42,43c5.46,0,10.225,2.927,12.848,7.288
				C57.398,45.647,62.33,42.5,68,42.5z"/>
		</g>
		<g>
			<path style="fill:#D7FCF9;" d="M42,43c5.564,0,10.411,3.038,13,7.538V31c-7.066,0-12.894,5.24-13.848,12.043
				C41.435,43.027,41.714,43,42,43z"/>
		</g>
		<g>
			<path style="fill:#D7FCF9;" d="M65,35.21V39c0,1.105-0.896,2-2,2s-2-0.895-2-2v-2c0-1.104-0.896-2-2-2s-2,0.896-2,2v4
				c0,1.105-0.896,2-2,2s-2-0.895-2-2v-4c0-1.104-0.896-2-2-2s-2,0.896-2,2c0,1.105-0.896,2-2,2s-2-0.895-2-2v-1.79
				C47.487,32.636,51.085,31,55,31C58.877,31,62.486,32.609,65,35.21z"/>
		</g>
		<g>
			<circle style="fill:#009687;" cx="55" cy="27" r="4"/>
		</g>
		<g>
			<path style="fill:#00B8A5;" d="M51,27c0,2.21,1.791,4,4,4v-8C52.791,23,51,24.791,51,27z"/>
		</g>
		<g>
			<path style="fill:#FFFFFF;" d="M45,35.21V37c0,1.104,0.896,2,2,2s2-0.896,2-2s0.896-2,2-2s2,0.896,2,2v4c0,1.104,0.896,2,2,2V31
				C51.069,31,47.479,32.645,45,35.21z"/>
		</g>
		<g>
			<path style="fill:#D7FCF9;" d="M82.709,67H27.291c4.301,7.431,11.506,12.958,20.058,15.061C44.902,82.36,43,84.422,43,86.95V87
				h24v-0.05c0-2.528-1.902-4.59-4.349-4.89C71.203,79.958,78.408,74.431,82.709,67z"/>
		</g>
		<g>
			<path style="fill:#FFFFFF;" d="M43,86.95V87h12V67H27.291c4.301,7.431,11.506,12.958,20.058,15.061
				C44.902,82.36,43,84.422,43,86.95z"/>
		</g>
		<g>
			<path style="fill:#AAF0E9;" d="M87,65c0,1.105-0.896,2-2,2H25c-1.104,0-2-0.895-2-2c0-1.104,0.896-2,2-2h60
				C86.104,63,87,63.896,87,65z"/>
		</g>
		<g>
			<path style="fill:#D7FCF9;" d="M55,63H25c-1.104,0-2,0.896-2,2s0.896,2,2,2h30V63z"/>
		</g>
		<g>
			<path style="fill:#00B8A5;" d="M56.128,63C56.683,61.434,57,59.756,57,58c0-8.284-6.716-15-15-15s-15,6.716-15,15
				c0,1.756,0.317,3.434,0.872,5H56.128z"/>
		</g>
		<g>
			<path style="fill:#FFFFFF;" d="M55.27,51C53.464,51,53,52.464,53,54.27V56c0,0.276,0,1-1,1s-1-0.724-1-1v-2.916
				c0-0.874-0.515-1.717-1.348-1.982C48.271,50.666,47,51.685,47,53v6c2.247,0,4,1.762,4,4H39c0-2.233,1.748-4,4-4V49
				c0-1.104-0.896-2-2-2h-4c-1.104,0-2,0.896-2,2v7.916c0,0.874-0.515,1.717-1.348,1.981C32.271,59.335,31,58.316,31,57v-8.368
				c0-0.521,0.193-1.032,0.565-1.395C34.419,44.45,38.194,43,42,43C47.601,43,52.67,46.109,55.27,51z"/>
		</g>
		<g>
			<path style="fill:#14635B;" d="M81.945,63C82.618,61.295,83,59.444,83,57.5c0-8.284-6.716-15-15-15s-15,6.716-15,15
				c0,1.944,0.382,3.795,1.055,5.5H81.945z"/>
		</g>
		<g>
			<path style="fill:#FFFFFF;" d="M82,62.87V63h-8v-0.13c1.73-0.44,3-2.01,3-3.87v-8.535C77,48.56,75.44,47,73.535,47
				C71.456,47,70,48.638,70,50.465v3.545c0,0.55-0.439,0.99-0.99,0.99h-0.02C68.439,55,68,54.56,68,54.01v-6.02
				c0-0.55-0.439-0.99-0.99-0.99h-0.02C66.439,47,66,47.44,66,47.99v9.51c0,0.83-0.67,1.5-1.5,1.5S63,58.33,63,57.5v-4.86
				c0-3.024-2.412-5.64-5.7-5.64c2.72-2.78,6.511-4.5,10.7-4.5c3.786,0,7.282,1.435,9.78,3.63c0.8,0.69,1.22,1.71,1.22,2.75
				C79,48.881,79,59,79,59C79,60.86,80.27,62.43,82,62.87z"/>
		</g>
	</g>
</g>
<g id="Red" style="display:none;">
	<g style="display:inline;">
		<g>
			<path style="fill:#FFD7D4;" d="M68,42.5c0.26,0,0.514,0.026,0.771,0.039C67.605,35.983,61.891,31,55,31
				c-7.066,0-12.894,5.24-13.848,12.043C41.435,43.027,41.714,43,42,43c5.46,0,10.225,2.927,12.848,7.288
				C57.398,45.647,62.33,42.5,68,42.5z"/>
		</g>
		<g>
			<path style="fill:#FFEFED;" d="M42,43c5.564,0,10.411,3.038,13,7.538V31c-7.066,0-12.894,5.24-13.848,12.043
				C41.435,43.027,41.714,43,42,43z"/>
		</g>
		<g>
			<path style="fill:#FFEFED;" d="M65,35.21V39c0,1.105-0.896,2-2,2s-2-0.895-2-2v-2c0-1.104-0.896-2-2-2s-2,0.896-2,2v4
				c0,1.105-0.896,2-2,2s-2-0.895-2-2v-4c0-1.104-0.896-2-2-2s-2,0.896-2,2c0,1.105-0.896,2-2,2s-2-0.895-2-2v-1.79
				C47.487,32.636,51.085,31,55,31C58.877,31,62.486,32.609,65,35.21z"/>
		</g>
		<g>
			<circle style="fill:#C23023;" cx="55" cy="27" r="4"/>
		</g>
		<g>
			<path style="fill:#E54B44;" d="M51,27c0,2.209,1.791,4,4,4v-8C52.791,23,51,24.791,51,27z"/>
		</g>
		<g>
			<path style="fill:#FFFFFF;" d="M45,35.21V37c0,1.104,0.896,2,2,2s2-0.896,2-2s0.896-2,2-2s2,0.896,2,2v4c0,1.104,0.896,2,2,2V31
				C51.069,31,47.479,32.645,45,35.21z"/>
		</g>
		<g>
			<path style="fill:#FFEFED;" d="M82.709,67H27.291c4.301,7.431,11.506,12.957,20.058,15.061C44.902,82.36,43,84.422,43,86.95V87
				h24v-0.05c0-2.528-1.902-4.59-4.349-4.89C71.203,79.957,78.408,74.431,82.709,67z"/>
		</g>
		<g>
			<path style="fill:#FFFFFF;" d="M43,86.95V87h12V67H27.291c4.301,7.431,11.506,12.957,20.058,15.061
				C44.902,82.36,43,84.422,43,86.95z"/>
		</g>
		<g>
			<path style="fill:#FFD7D4;" d="M87,65c0,1.105-0.896,2-2,2H25c-1.104,0-2-0.895-2-2c0-1.104,0.896-2,2-2h60
				C86.104,63,87,63.896,87,65z"/>
		</g>
		<g>
			<path style="fill:#FFEFED;" d="M55,63H25c-1.104,0-2,0.896-2,2s0.896,2,2,2h30V63z"/>
		</g>
		<g>
			<path style="fill:#E54B44;" d="M56.128,63C56.683,61.434,57,59.756,57,58c0-8.284-6.716-15-15-15c-8.284,0-15,6.716-15,15
				c0,1.756,0.317,3.434,0.872,5H56.128z"/>
		</g>
		<g>
			<path style="fill:#FFFFFF;" d="M55.269,51C53.464,51,53,52.464,53,54.27V56c0,0.276,0,1-1,1s-1-0.724-1-1v-2.916
				c0-0.874-0.515-1.717-1.348-1.982C48.271,50.666,47,51.685,47,53v6c2.247,0,4,1.762,4,4H39c0-2.233,1.748-4,4-4V49
				c0-1.104-0.896-2-2-2h-4c-1.104,0-2,0.896-2,2v7.916c0,0.874-0.515,1.717-1.348,1.981C32.271,59.335,31,58.316,31,57v-8.368
				c0-0.521,0.193-1.032,0.565-1.395C34.419,44.45,38.194,43,42,43C47.601,43,52.67,46.109,55.269,51z"/>
		</g>
		<g>
			<path style="fill:#7D261E;" d="M81.945,63C82.618,61.295,83,59.444,83,57.5c0-8.284-6.716-15-15-15c-8.284,0-15,6.716-15,15
				c0,1.944,0.382,3.795,1.055,5.5H81.945z"/>
		</g>
		<g>
			<path style="fill:#FFFFFF;" d="M82,62.87V63h-8v-0.13c1.73-0.44,3-2.01,3-3.87v-8.535C77,48.56,75.44,47,73.535,47
				C71.456,47,70,48.638,70,50.465v3.545c0,0.55-0.44,0.99-0.99,0.99h-0.02C68.439,55,68,54.56,68,54.01v-6.02
				c0-0.55-0.44-0.99-0.99-0.99h-0.02C66.439,47,66,47.44,66,47.99v9.51c0,0.83-0.67,1.5-1.5,1.5S63,58.33,63,57.5v-4.86
				c0-3.024-2.412-5.64-5.7-5.64c2.72-2.78,6.511-4.5,10.7-4.5c3.786,0,7.282,1.435,9.78,3.63c0.8,0.69,1.22,1.71,1.22,2.75
				C79,48.881,79,59,79,59C79,60.86,80.269,62.43,82,62.87z"/>
		</g>
	</g>
</g>
<g id="R-Red" style="display:none;">
	<circle style="display:inline;fill:#FABBAF;" cx="55" cy="55" r="55"/>
	<g style="display:inline;">
		<g>
			<path style="fill:#FFD7D4;" d="M68,42.5c0.26,0,0.514,0.026,0.771,0.039C67.605,35.983,61.891,31,55,31
				c-7.066,0-12.894,5.24-13.848,12.043C41.435,43.027,41.714,43,42,43c5.46,0,10.225,2.927,12.848,7.288
				C57.398,45.647,62.33,42.5,68,42.5z"/>
		</g>
		<g>
			<path style="fill:#FFEFED;" d="M42,43c5.564,0,10.411,3.038,13,7.538V31c-7.066,0-12.894,5.24-13.848,12.043
				C41.435,43.027,41.714,43,42,43z"/>
		</g>
		<g>
			<path style="fill:#FFEFED;" d="M65,35.21V39c0,1.105-0.896,2-2,2s-2-0.895-2-2v-2c0-1.104-0.896-2-2-2s-2,0.896-2,2v4
				c0,1.105-0.896,2-2,2s-2-0.895-2-2v-4c0-1.104-0.896-2-2-2s-2,0.896-2,2c0,1.105-0.896,2-2,2s-2-0.895-2-2v-1.79
				C47.487,32.636,51.085,31,55,31C58.877,31,62.486,32.609,65,35.21z"/>
		</g>
		<g>
			<circle style="fill:#C23023;" cx="55" cy="27" r="4"/>
		</g>
		<g>
			<path style="fill:#E54B44;" d="M51,27c0,2.209,1.791,4,4,4v-8C52.791,23,51,24.791,51,27z"/>
		</g>
		<g>
			<path style="fill:#FFFFFF;" d="M45,35.21V37c0,1.104,0.896,2,2,2s2-0.896,2-2s0.896-2,2-2s2,0.896,2,2v4c0,1.104,0.896,2,2,2V31
				C51.069,31,47.479,32.645,45,35.21z"/>
		</g>
		<g>
			<path style="fill:#FFEFED;" d="M82.709,67H27.291c4.301,7.431,11.506,12.957,20.058,15.061C44.902,82.36,43,84.422,43,86.95V87
				h24v-0.05c0-2.528-1.902-4.59-4.349-4.89C71.203,79.957,78.408,74.431,82.709,67z"/>
		</g>
		<g>
			<path style="fill:#FFFFFF;" d="M43,86.95V87h12V67H27.291c4.301,7.431,11.506,12.957,20.058,15.061
				C44.902,82.36,43,84.422,43,86.95z"/>
		</g>
		<g>
			<path style="fill:#FFD7D4;" d="M87,65c0,1.105-0.896,2-2,2H25c-1.104,0-2-0.895-2-2c0-1.104,0.896-2,2-2h60
				C86.104,63,87,63.896,87,65z"/>
		</g>
		<g>
			<path style="fill:#FFEFED;" d="M55,63H25c-1.104,0-2,0.896-2,2s0.896,2,2,2h30V63z"/>
		</g>
		<g>
			<path style="fill:#E54B44;" d="M56.128,63C56.683,61.434,57,59.756,57,58c0-8.284-6.716-15-15-15c-8.284,0-15,6.716-15,15
				c0,1.756,0.317,3.434,0.872,5H56.128z"/>
		</g>
		<g>
			<path style="fill:#FFFFFF;" d="M55.269,51C53.464,51,53,52.464,53,54.27V56c0,0.276,0,1-1,1s-1-0.724-1-1v-2.916
				c0-0.874-0.515-1.717-1.348-1.982C48.271,50.666,47,51.685,47,53v6c2.247,0,4,1.762,4,4H39c0-2.233,1.748-4,4-4V49
				c0-1.104-0.896-2-2-2h-4c-1.104,0-2,0.896-2,2v7.916c0,0.874-0.515,1.717-1.348,1.981C32.271,59.335,31,58.316,31,57v-8.368
				c0-0.521,0.193-1.032,0.565-1.395C34.419,44.45,38.194,43,42,43C47.601,43,52.67,46.109,55.269,51z"/>
		</g>
		<g>
			<path style="fill:#7D261E;" d="M81.945,63C82.618,61.295,83,59.444,83,57.5c0-8.284-6.716-15-15-15c-8.284,0-15,6.716-15,15
				c0,1.944,0.382,3.795,1.055,5.5H81.945z"/>
		</g>
		<g>
			<path style="fill:#FFFFFF;" d="M82,62.87V63h-8v-0.13c1.73-0.44,3-2.01,3-3.87v-8.535C77,48.56,75.44,47,73.535,47
				C71.456,47,70,48.638,70,50.465v3.545c0,0.55-0.44,0.99-0.99,0.99h-0.02C68.439,55,68,54.56,68,54.01v-6.02
				c0-0.55-0.44-0.99-0.99-0.99h-0.02C66.439,47,66,47.44,66,47.99v9.51c0,0.83-0.67,1.5-1.5,1.5S63,58.33,63,57.5v-4.86
				c0-3.024-2.412-5.64-5.7-5.64c2.72-2.78,6.511-4.5,10.7-4.5c3.786,0,7.282,1.435,9.78,3.63c0.8,0.69,1.22,1.71,1.22,2.75
				C79,48.881,79,59,79,59C79,60.86,80.269,62.43,82,62.87z"/>
		</g>
	</g>
</g>
<g id="Yellow" style="display:none;">
	<g style="display:inline;">
		<g>
			<path style="fill:#FFE9A1;" d="M68,42.5c0.26,0,0.514,0.026,0.771,0.039C67.605,35.983,61.891,31,55,31
				c-7.066,0-12.894,5.24-13.848,12.043C41.435,43.027,41.714,43,42,43c5.46,0,10.225,2.927,12.848,7.288
				C57.398,45.647,62.33,42.5,68,42.5z"/>
		</g>
		<g>
			<path style="fill:#FFF5D9;" d="M42,43c5.564,0,10.411,3.038,13,7.538V31c-7.066,0-12.894,5.24-13.848,12.043
				C41.435,43.027,41.714,43,42,43z"/>
		</g>
		<g>
			<path style="fill:#FFF5D9;" d="M65,35.21V39c0,1.105-0.896,2-2,2s-2-0.895-2-2v-2c0-1.104-0.896-2-2-2s-2,0.896-2,2v4
				c0,1.105-0.896,2-2,2s-2-0.895-2-2v-4c0-1.104-0.896-2-2-2s-2,0.896-2,2c0,1.105-0.896,2-2,2s-2-0.895-2-2v-1.79
				C47.487,32.636,51.085,31,55,31C58.877,31,62.486,32.609,65,35.21z"/>
		</g>
		<g>
			<circle style="fill:#E07000;" cx="55" cy="27" r="4"/>
		</g>
		<g>
			<path style="fill:#FA9200;" d="M51,27c0,2.21,1.791,4,4,4v-8C52.791,23,51,24.791,51,27z"/>
		</g>
		<g>
			<path style="fill:#FFFFFF;" d="M45,35.21V37c0,1.104,0.896,2,2,2s2-0.896,2-2s0.896-2,2-2s2,0.896,2,2v4c0,1.104,0.896,2,2,2V31
				C51.069,31,47.479,32.645,45,35.21z"/>
		</g>
		<g>
			<path style="fill:#FFF5D9;" d="M82.709,67H27.291c4.301,7.431,11.506,12.958,20.058,15.061C44.902,82.36,43,84.422,43,86.95V87
				h24v-0.05c0-2.528-1.902-4.59-4.349-4.89C71.203,79.958,78.408,74.431,82.709,67z"/>
		</g>
		<g>
			<path style="fill:#FFFFFF;" d="M43,86.95V87h12V67H27.291c4.301,7.431,11.506,12.958,20.058,15.061
				C44.902,82.36,43,84.422,43,86.95z"/>
		</g>
		<g>
			<path style="fill:#FFE9A1;" d="M87,65c0,1.105-0.896,2-2,2H25c-1.104,0-2-0.895-2-2c0-1.104,0.896-2,2-2h60
				C86.104,63,87,63.896,87,65z"/>
		</g>
		<g>
			<path style="fill:#FFF5D9;" d="M55,63H25c-1.104,0-2,0.896-2,2s0.896,2,2,2h30V63z"/>
		</g>
		<g>
			<path style="fill:#FA9200;" d="M56.128,63C56.683,61.434,57,59.756,57,58c0-8.284-6.716-15-15-15s-15,6.716-15,15
				c0,1.756,0.317,3.434,0.872,5H56.128z"/>
		</g>
		<g>
			<path style="fill:#FFFFFF;" d="M55.27,51C53.464,51,53,52.464,53,54.27V56c0,0.276,0,1-1,1s-1-0.724-1-1v-2.916
				c0-0.874-0.515-1.717-1.348-1.982C48.271,50.666,47,51.685,47,53v6c2.247,0,4,1.762,4,4H39c0-2.233,1.748-4,4-4V49
				c0-1.104-0.896-2-2-2h-4c-1.104,0-2,0.896-2,2v7.916c0,0.874-0.515,1.717-1.348,1.981C32.271,59.335,31,58.316,31,57v-8.368
				c0-0.521,0.193-1.032,0.565-1.395C34.419,44.45,38.194,43,42,43C47.601,43,52.67,46.109,55.27,51z"/>
		</g>
		<g>
			<path style="fill:#66510D;" d="M81.945,63C82.618,61.295,83,59.444,83,57.5c0-8.284-6.716-15-15-15s-15,6.716-15,15
				c0,1.944,0.382,3.795,1.055,5.5H81.945z"/>
		</g>
		<g>
			<path style="fill:#FFFFFF;" d="M82,62.87V63h-8v-0.13c1.73-0.44,3-2.01,3-3.87v-8.535C77,48.56,75.44,47,73.535,47
				C71.456,47,70,48.638,70,50.465v3.545c0,0.55-0.439,0.99-0.99,0.99h-0.02C68.439,55,68,54.56,68,54.01v-6.02
				c0-0.55-0.439-0.99-0.99-0.99h-0.02C66.439,47,66,47.44,66,47.99v9.51c0,0.83-0.67,1.5-1.5,1.5S63,58.33,63,57.5v-4.86
				c0-3.024-2.412-5.64-5.7-5.64c2.72-2.78,6.511-4.5,10.7-4.5c3.786,0,7.282,1.435,9.78,3.63c0.8,0.69,1.22,1.71,1.22,2.75
				C79,48.881,79,59,79,59C79,60.86,80.27,62.43,82,62.87z"/>
		</g>
	</g>
</g>
<g id="R-Yellow" style="display:none;">
	<circle style="display:inline;fill:#FFD75E;" cx="55" cy="55" r="55"/>
	<g style="display:inline;">
		<g>
			<path style="fill:#FFE9A1;" d="M68,42.5c0.26,0,0.514,0.026,0.771,0.039C67.605,35.983,61.891,31,55,31
				c-7.066,0-12.894,5.24-13.848,12.043C41.435,43.027,41.714,43,42,43c5.46,0,10.225,2.927,12.848,7.288
				C57.398,45.647,62.33,42.5,68,42.5z"/>
		</g>
		<g>
			<path style="fill:#FFF5D9;" d="M42,43c5.564,0,10.411,3.038,13,7.538V31c-7.066,0-12.894,5.24-13.848,12.043
				C41.435,43.027,41.714,43,42,43z"/>
		</g>
		<g>
			<path style="fill:#FFF5D9;" d="M65,35.21V39c0,1.105-0.896,2-2,2c-1.104,0-2-0.895-2-2v-2c0-1.104-0.896-2-2-2s-2,0.896-2,2v4
				c0,1.105-0.896,2-2,2s-2-0.895-2-2v-4c0-1.104-0.896-2-2-2s-2,0.896-2,2c0,1.105-0.896,2-2,2s-2-0.895-2-2v-1.79
				C47.487,32.636,51.085,31,55,31C58.877,31,62.486,32.609,65,35.21z"/>
		</g>
		<g>
			<circle style="fill:#E07000;" cx="55" cy="27" r="4"/>
		</g>
		<g>
			<path style="fill:#FA9200;" d="M51,27c0,2.21,1.791,4,4,4v-8C52.791,23,51,24.791,51,27z"/>
		</g>
		<g>
			<path style="fill:#FFFFFF;" d="M45,35.21V37c0,1.104,0.896,2,2,2s2-0.896,2-2s0.896-2,2-2s2,0.896,2,2v4c0,1.104,0.896,2,2,2V31
				C51.069,31,47.479,32.645,45,35.21z"/>
		</g>
		<g>
			<path style="fill:#FFF5D9;" d="M82.709,67H27.291c4.301,7.431,11.506,12.958,20.058,15.061C44.902,82.36,43,84.422,43,86.95V87
				h24v-0.05c0-2.528-1.902-4.59-4.349-4.89C71.203,79.958,78.408,74.431,82.709,67z"/>
		</g>
		<g>
			<path style="fill:#FFFFFF;" d="M43,86.95V87h12V67H27.291c4.301,7.431,11.506,12.958,20.058,15.061
				C44.902,82.36,43,84.422,43,86.95z"/>
		</g>
		<g>
			<path style="fill:#FFE9A1;" d="M87,65c0,1.105-0.896,2-2,2H25c-1.104,0-2-0.895-2-2c0-1.104,0.896-2,2-2h60
				C86.104,63,87,63.896,87,65z"/>
		</g>
		<g>
			<path style="fill:#FFF5D9;" d="M55,63H25c-1.104,0-2,0.896-2,2s0.896,2,2,2h30V63z"/>
		</g>
		<g>
			<path style="fill:#FA9200;" d="M56.128,63C56.683,61.434,57,59.756,57,58c0-8.284-6.716-15-15-15s-15,6.716-15,15
				c0,1.756,0.317,3.434,0.872,5H56.128z"/>
		</g>
		<g>
			<path style="fill:#FFFFFF;" d="M55.269,51C53.464,51,53,52.464,53,54.27V56c0,0.276,0,1-1,1s-1-0.724-1-1v-2.916
				c0-0.874-0.515-1.717-1.348-1.982C48.27,50.666,47,51.685,47,53v6c2.247,0,4,1.762,4,4H39c0-2.233,1.748-4,4-4V49
				c0-1.104-0.896-2-2-2h-4c-1.104,0-2,0.896-2,2v7.916c0,0.874-0.515,1.717-1.348,1.981C32.27,59.335,31,58.316,31,57v-8.368
				c0-0.521,0.193-1.032,0.565-1.395C34.419,44.45,38.194,43,42,43C47.601,43,52.67,46.109,55.269,51z"/>
		</g>
		<g>
			<path style="fill:#66510D;" d="M81.945,63C82.618,61.295,83,59.444,83,57.5c0-8.284-6.716-15-15-15s-15,6.716-15,15
				c0,1.944,0.382,3.795,1.055,5.5H81.945z"/>
		</g>
		<g>
			<path style="fill:#FFFFFF;" d="M82,62.87V63h-8v-0.13c1.73-0.44,3-2.01,3-3.87v-8.535C77,48.56,75.44,47,73.535,47
				C71.456,47,70,48.638,70,50.465v3.545c0,0.55-0.44,0.99-0.99,0.99h-0.02C68.439,55,68,54.56,68,54.01v-6.02
				c0-0.55-0.44-0.99-0.99-0.99h-0.02C66.439,47,66,47.44,66,47.99v9.51c0,0.83-0.67,1.5-1.5,1.5c-0.83,0-1.5-0.67-1.5-1.5v-4.86
				c0-3.024-2.412-5.64-5.7-5.64c2.72-2.78,6.511-4.5,10.7-4.5c3.786,0,7.282,1.435,9.78,3.63c0.8,0.69,1.22,1.71,1.22,2.75
				C79,48.881,79,59,79,59C79,60.86,80.269,62.43,82,62.87z"/>
		</g>
	</g>
</g>
</svg>
