<?xml version="1.0" encoding="iso-8859-1"?>
<!-- Generator: Adobe Illustrator 17.1.0, SVG Export Plug-In . SVG Version: 6.00 Build 0)  -->
<!DOCTYPE svg PUBLIC "-//W3C//DTD SVG 1.0//EN" "http://www.w3.org/TR/2001/REC-SVG-20010904/DTD/svg10.dtd">
<svg version="1.0" xmlns="http://www.w3.org/2000/svg" xmlns:xlink="http://www.w3.org/1999/xlink" x="0px" y="0px" width="110px"
	 height="110px" viewBox="0 0 110 110" style="enable-background:new 0 0 110 110;" xml:space="preserve">
<g id="Artboard">
</g>
<g id="Multicolor">
	<circle style="fill:#32BEA6;" cx="55" cy="55" r="55"/>
	<g>
		<g>
			<path style="fill:#0484AB;" d="M24.81,29.286c0-2.367,1.919-4.286,4.286-4.286h51.429c2.367,0,4.286,1.919,4.286,4.286v51.429
				c0,2.367-1.919,4.286-4.286,4.286H29.096c-2.367,0-4.286-1.919-4.286-4.286V29.286z"/>
		</g>
		<path style="fill:#21B2D1;" d="M80.524,25H29.096c-2.367,0-4.286,1.919-4.286,4.286v51.429c0,1.101,0.427,2.095,1.11,2.854
			L83.379,26.11C82.62,25.427,81.626,25,80.524,25z"/>
		<path style="fill:#FFFFFF;" d="M87,76c0-0.552-0.448-1-1-1h-9.19V35H86c0.552,0,1-0.448,1-1s-0.448-1-1-1h-7.586l7.879-7.879
			c0.39-0.391,0.39-1.024,0-1.414c-0.391-0.39-1.024-0.39-1.415,0l-8.068,8.069V24c0-0.552-0.448-1-1-1s-1,0.448-1,1v9h-40v-9
			c0-0.552-0.448-1-1-1s-1,0.448-1,1v7.396l-7.689-7.689c-0.39-0.39-1.023-0.39-1.414,0c-0.391,0.391-0.391,1.024,0,1.414L31.585,33
			H24c-0.552,0-1,0.448-1,1s0.448,1,1,1h8.81v40H24c-0.552,0-1,0.448-1,1s0.448,1,1,1h7.585l-8.068,8.069
			c-0.391,0.39-0.391,1.024,0,1.414c0.391,0.391,1.024,0.391,1.414,0l7.879-7.879V86c0,0.552,0.448,1,1,1s1-0.448,1-1v-9h40v9
			c0,0.552,0.448,1,1,1s1-0.448,1-1v-7.776l8.258,8.258c0.391,0.391,1.024,0.391,1.415,0c0.39-0.39,0.39-1.024,0-1.414L78.414,77H86
			C86.552,77,87,76.552,87,76z M74.81,73.396l-3.67-3.671c1.491-1.652,2.731-3.531,3.67-5.577V73.396z M53.585,55l-7.034,7.034
			C44.96,60.125,44,57.673,44,55s0.96-5.125,2.552-7.034L53.585,55z M47.966,46.552C49.875,44.96,52.327,44,55,44
			s5.125,0.96,7.034,2.552L55,53.586L47.966,46.552z M55,56.414l7.034,7.034C60.125,65.04,57.673,66,55,66s-5.125-0.96-7.034-2.552
			L55,56.414z M56.414,55l7.034-7.034C65.04,49.875,66,52.327,66,55s-0.96,5.125-2.552,7.034L56.414,55z M63.447,45.138
			C61.173,43.187,58.225,42,55,42c-3.225,0-6.173,1.187-8.447,3.138l-5.038-5.038C45.053,36.94,49.704,35,54.81,35
			c5.203,0,9.933,2.014,13.494,5.281L63.447,45.138z M45.138,46.553C43.187,48.827,42,51.775,42,55s1.187,6.173,3.138,8.447
			l-5.047,5.047C36.824,64.933,34.81,60.203,34.81,55s2.014-9.933,5.281-13.494L45.138,46.553z M46.553,64.862
			C48.827,66.813,51.775,68,55,68c3.225,0,6.173-1.187,8.447-3.138l4.857,4.857C64.743,72.986,60.013,75,54.81,75
			c-5.106,0-9.757-1.94-13.295-5.101L46.553,64.862z M64.861,63.447C66.812,61.173,68,58.225,68,55s-1.188-6.173-3.139-8.447
			l4.848-4.848C72.87,45.243,74.81,49.894,74.81,55s-1.94,9.757-5.101,13.295L64.861,63.447z M71.14,40.275l3.67-3.671v9.248
			C73.871,43.806,72.63,41.926,71.14,40.275z M73.585,35l-3.853,3.853c-1.699-1.571-3.646-2.876-5.774-3.853H73.585z M40.085,38.671
			L36.414,35h9.248C43.616,35.939,41.736,37.18,40.085,38.671z M34.81,36.224l3.854,3.853c-1.571,1.699-2.876,3.646-3.854,5.774
			V36.224z M38.664,69.922l-3.854,3.853v-9.628C35.788,66.276,37.092,68.223,38.664,69.922z M36.414,75l3.67-3.671
			c1.652,1.491,3.532,2.731,5.578,3.671H36.414z M69.732,71.147L73.586,75h-9.628C66.086,74.023,68.034,72.718,69.732,71.147z"/>
	</g>
</g>
</svg>
