<?xml version="1.0" encoding="iso-8859-1"?>
<!-- Generator: Adobe Illustrator 17.1.0, SVG Export Plug-In . SVG Version: 6.00 Build 0)  -->
<!DOCTYPE svg PUBLIC "-//W3C//DTD SVG 1.0//EN" "http://www.w3.org/TR/2001/REC-SVG-20010904/DTD/svg10.dtd">
<svg version="1.0" xmlns="http://www.w3.org/2000/svg" xmlns:xlink="http://www.w3.org/1999/xlink" x="0px" y="0px" width="110px"
	 height="110px" viewBox="0 0 110 110" style="enable-background:new 0 0 110 110;" xml:space="preserve">
<g id="Artboard">
</g>
<g id="Multicolor">
	<g>
		<circle style="fill:#FABC3D;" cx="55" cy="55" r="55"/>
	</g>
	<g>
		<g>
			<path style="fill:#FFFFFF;" d="M23,35v48h12v-4.555c-1.19-0.693-2-1.969-2-3.445c0-2.209,1.791-4,4-4s4,1.791,4,4
				c0,1.477-0.81,2.752-2,3.445V83h32v-4.555c-1.19-0.693-2-1.969-2-3.445c0-2.209,1.791-4,4-4s4,1.791,4,4
				c0,1.477-0.81,2.752-2,3.445V83h12V35H23z"/>
		</g>
		<g>
			<rect x="29" y="41" style="fill:#6FDAF1;" width="24" height="26"/>
		</g>
		<g>
			<polygon style="fill:#9CE5F4;" points="53,41 29,41 29,67 38.381,67 53,52.381 			"/>
		</g>
		<g>
			<path style="fill:#E2E4E5;" d="M82,45c0,0.552-0.448,1-1,1H59c-0.552,0-1-0.448-1-1s0.448-1,1-1h22C81.552,44,82,44.448,82,45z"
				/>
		</g>
		<g>
			<path style="fill:#E2E4E5;" d="M82,53c0,0.552-0.448,1-1,1H59c-0.552,0-1-0.448-1-1s0.448-1,1-1h22C81.552,52,82,52.448,82,53z"
				/>
		</g>
		<g>
			<path style="fill:#E2E4E5;" d="M74,61c0,0.552-0.448,1-1,1H59c-0.552,0-1-0.448-1-1s0.448-1,1-1h14C73.552,60,74,60.448,74,61z"
				/>
		</g>
		<g>
			<path style="fill:#0484AB;" d="M44.162,59.244C45.321,57.903,46,56.293,46,52c0-2.209-2-5-5-5s-5,2.791-5,5
				c0,4.27,0.934,5.868,2.091,7.214c-3.378,0.474-6.48,1.746-9.091,3.612V67h24v-4.174C50.454,61.006,47.443,59.745,44.162,59.244z"
				/>
		</g>
		<g>
			<path style="fill:#059BBF;" d="M44.162,59.244C45.321,57.903,46,56.293,46,52c0-2.209-2-5-5-5s-5,2.791-5,5
				c0,4.271,0.934,5.868,2.091,7.214c-3.378,0.474-6.48,1.746-9.091,3.612V67h9.381l7.427-7.427
				C45.267,59.444,44.72,59.329,44.162,59.244z"/>
		</g>
	</g>
</g>
</svg>
