<?xml version="1.0" encoding="iso-8859-1"?>
<!-- Generator: Adobe Illustrator 17.1.0, SVG Export Plug-In . SVG Version: 6.00 Build 0)  -->
<!DOCTYPE svg PUBLIC "-//W3C//DTD SVG 1.0//EN" "http://www.w3.org/TR/2001/REC-SVG-20010904/DTD/svg10.dtd">
<svg version="1.0" xmlns="http://www.w3.org/2000/svg" xmlns:xlink="http://www.w3.org/1999/xlink" x="0px" y="0px" width="110px"
	 height="110px" viewBox="0 0 110 110" style="enable-background:new 0 0 110 110;" xml:space="preserve">
<g id="Artboard">
</g>
<g id="Multicolor">
	<g>
		<circle style="fill:#E04F5F;" cx="55" cy="55" r="55"/>
	</g>
	<g>
		<g>
			<path style="fill:#FFFFFF;" d="M83,35H27c-2.209,0-4,1.791-4,4v40c0,2.209,1.791,4,4,4h56c2.209,0,4-1.791,4-4V39
				C87,36.791,85.209,35,83,35z M63,47H47c-2.209,0-4-1.791-4-4s1.791-4,4-4h16c2.209,0,4,1.791,4,4S65.209,47,63,47z"/>
		</g>
		<g>
			<rect x="28" y="52" style="fill:#6FDAF1;" width="24" height="26"/>
		</g>
		<g>
			<path style="fill:#E2E4E5;" d="M81,56c0,0.552-0.448,1-1,1H58c-0.552,0-1-0.448-1-1s0.448-1,1-1h22C80.552,55,81,55.448,81,56z"
				/>
		</g>
		<g>
			<path style="fill:#E2E4E5;" d="M81,64c0,0.552-0.448,1-1,1H58c-0.552,0-1-0.448-1-1s0.448-1,1-1h22C80.552,63,81,63.448,81,64z"
				/>
		</g>
		<g>
			<path style="fill:#E2E4E5;" d="M73,72c0,0.552-0.448,1-1,1H58c-0.552,0-1-0.448-1-1s0.448-1,1-1h14C72.552,71,73,71.448,73,72z"
				/>
		</g>
		<g>
			<polygon style="fill:#9CE5F4;" points="52,53.953 52,52 28,52 28,77.953 			"/>
		</g>
		<g>
			<path style="fill:#FACB1B;" d="M56,27h-2c-4.002,0-5,3.966-5,16h12C61,31.009,60.002,27,56,27z M55.062,33.063
				c-1.104,0-2-0.896-2-2c0-1.104,0.896-2,2-2s2,0.896,2,2C57.062,32.167,56.167,33.063,55.062,33.063z"/>
		</g>
		<g>
			<path style="fill:#FBE158;" d="M60.877,37C60.511,29.632,59.241,27,56,27h-2c-3.243,0-4.513,2.607-4.878,10H60.877z
				 M55.062,29.063c1.104,0,2,0.896,2,2c0,1.104-0.896,2-2,2s-2-0.896-2-2C53.062,29.958,53.958,29.063,55.062,29.063z"/>
		</g>
		<g>
			<path style="fill:#0484AB;" d="M43.162,70.244C44.321,68.903,45,67.293,45,63c0-2.209-2-5-5-5s-5,2.791-5,5
				c0,4.27,0.934,5.868,2.091,7.214c-3.378,0.474-6.48,1.746-9.091,3.612V78h24v-4.174C49.454,72.006,46.443,70.745,43.162,70.244z"
				/>
		</g>
		<g>
			<g>
				<path style="fill:#059BBF;" d="M40,58c-3,0-5,2.791-5,5c0,3.509,0.631,5.212,1.498,6.456l8.149-8.15
					C43.949,59.582,42.258,58,40,58z"/>
			</g>
			<g>
				<path style="fill:#059BBF;" d="M28,77.953l7.429-7.429c-2.733,0.612-5.253,1.746-7.429,3.301V77.953z"/>
			</g>
		</g>
	</g>
</g>
</svg>
