<?xml version="1.0" encoding="iso-8859-1"?>
<!-- Generator: Adobe Illustrator 17.1.0, SVG Export Plug-In . SVG Version: 6.00 Build 0)  -->
<!DOCTYPE svg PUBLIC "-//W3C//DTD SVG 1.0//EN" "http://www.w3.org/TR/2001/REC-SVG-20010904/DTD/svg10.dtd">
<svg version="1.0" xmlns="http://www.w3.org/2000/svg" xmlns:xlink="http://www.w3.org/1999/xlink" x="0px" y="0px" width="110px"
	 height="110px" viewBox="0 0 110 110" style="enable-background:new 0 0 110 110;" xml:space="preserve">
<g id="Artboard">
</g>
<g id="Multicolor">
	<g>
		<circle style="fill:#25B7D3;" cx="55" cy="55" r="55"/>
	</g>
	<g>
		<g>
			<polygon style="fill:#3E3E3F;" points="42.957,23 36.957,23 51,42 54,37.941 			"/>
		</g>
		<g>
			<path style="fill:#DF2C2C;" d="M34,35c-1.657,0-3,1.343-3,3v9h48v-9c0-1.657-1.343-3-3-3H34z M62,41c0,1.105-0.895,2-2,2H48
				c-1.105,0-2-0.895-2-2s0.895-2,2-2h12C61.105,39,62,39.895,62,41z"/>
		</g>
		<g>
			<rect x="31" y="47" style="fill:#FFFFFF;" width="48" height="40"/>
		</g>
		<g>
			<path style="fill:#E2E4E5;" d="M75,55c0,0.552-0.448,1-1,1H60c-0.552,0-1-0.448-1-1s0.448-1,1-1h14C74.552,54,75,54.448,75,55z"
				/>
		</g>
		<g>
			<path style="fill:#E2E4E5;" d="M75,63c0,0.552-0.448,1-1,1H60c-0.552,0-1-0.448-1-1s0.448-1,1-1h14C74.552,62,75,62.448,75,63z"
				/>
		</g>
		<g>
			<path style="fill:#E2E4E5;" d="M75,71c0,0.552-0.448,1-1,1H60c-0.552,0-1-0.448-1-1s0.448-1,1-1h14C74.552,70,75,70.448,75,71z"
				/>
		</g>
		<g>
			<path style="fill:#E2E4E5;" d="M75,79c0,0.552-0.448,1-1,1H37c-0.552,0-1-0.448-1-1s0.448-1,1-1h37C74.552,78,75,78.448,75,79z"
				/>
		</g>
		<g>
			<rect x="35" y="51" style="fill:#9CE5F4;" width="19.385" height="21"/>
		</g>
		<g>
			<polygon style="fill:#C9F2F8;" points="54.385,51 35,51 35,72 41.456,72 54.385,59.071 			"/>
		</g>
		<g>
			<path style="fill:#FA5655;" d="M34,35c-1.657,0-3,1.343-3,3v9h35.456l11.367-11.367C77.317,35.242,76.689,35,76,35H34z M60,43H48
				c-1.104,0-2-0.896-2-2s0.896-2,2-2h12c1.104,0,2,0.896,2,2S61.104,43,60,43z"/>
		</g>
		<g>
			<polygon style="fill:#5B5C5F;" points="65.043,23 54,37.941 51,42 57,42 71.043,23 			"/>
		</g>
		<g>
			<path style="fill:#0484AB;" d="M47.246,65.736c0.936-1.083,1.484-2.384,1.484-5.851c0-1.784-1.615-4.038-4.038-4.038
				s-4.038,2.254-4.038,4.038c0,3.449,0.754,4.74,1.689,5.827c-2.729,0.383-5.234,1.41-7.343,2.917V72h19.385v-3.372
				C52.328,67.159,49.896,66.14,47.246,65.736z"/>
		</g>
		<g>
			<path style="fill:#059BBF;" d="M47.246,65.736c0.936-1.083,1.484-2.384,1.484-5.851c0-1.784-1.615-4.039-4.038-4.039
				s-4.039,2.254-4.039,4.039c0,3.449,0.754,4.739,1.689,5.826c-2.729,0.383-5.234,1.41-7.343,2.917V72h6.456l6.191-6.191
				C47.513,65.785,47.381,65.756,47.246,65.736z"/>
		</g>
	</g>
</g>
</svg>
