<?xml version="1.0" encoding="iso-8859-1"?>
<!-- Generator: Adobe Illustrator 17.1.0, SVG Export Plug-In . SVG Version: 6.00 Build 0)  -->
<!DOCTYPE svg PUBLIC "-//W3C//DTD SVG 1.0//EN" "http://www.w3.org/TR/2001/REC-SVG-20010904/DTD/svg10.dtd">
<svg version="1.0" xmlns="http://www.w3.org/2000/svg" xmlns:xlink="http://www.w3.org/1999/xlink" x="0px" y="0px" width="110px"
	 height="110px" viewBox="0 0 110 110" style="enable-background:new 0 0 110 110;" xml:space="preserve">
<g id="Artboard">
</g>
<g id="Multicolor">
	<circle style="fill:#32BEA6;" cx="55" cy="55" r="55"/>
	<g>
		<g>
			<path style="fill:#E2E4E5;" d="M33.987,80.256c3.879,3.879,1.697,6.756,20.013,6.708c17.749-0.046,16.038-2.926,19.57-6.458
				c0,0-3.75,2.417-19.75,2.417S33.987,80.256,33.987,80.256z"/>
		</g>
		<g>
			<path style="fill:#FFFFFF;" d="M73.57,80.503c0,0-3.75,2.42-19.75,2.42s-19.83-2.67-19.83-2.67s3.63-7.01,14.36-8.87
				c1.65-0.29,3.47-0.46,5.47-0.46s3.82,0.17,5.47,0.47C70,73.313,73.57,80.503,73.57,80.503z"/>
		</g>
		<g>
			<path style="fill:#84462D;" d="M82.71,34.28L54.35,74.893c-0.17,0.02-0.35,0.03-0.53,0.03c-1.33,0-2.56-0.44-3.55-1.17L79.42,32
				L82.71,34.28z"/>
		</g>
		<g>
			
				<rect x="77.353" y="32.605" transform="matrix(0.8221 0.5694 -0.5694 0.8221 34.3944 -38.8484)" style="fill:#FA5655;" width="4" height="6"/>
		</g>
		<path style="fill:#FFFFFF;" d="M54.269,32.077c0.314-2.279-1.457-4.107-3.564-4.107c-1.147,0-2.157,0.545-2.819,1.378
			c0.195-7.735-11.257-8.416-12.007-0.769c-2.459-3.815-8.343-2.431-8.813,2.107C25.154,29.726,23,31.141,23,33.189
			c0,1.532,1.256,2.9,2.997,2.792L26,36h43L54.269,32.077z"/>
	</g>
</g>
</svg>
