<?xml version="1.0" encoding="iso-8859-1"?>
<!-- Generator: Adobe Illustrator 17.1.0, SVG Export Plug-In . SVG Version: 6.00 Build 0)  -->
<!DOCTYPE svg PUBLIC "-//W3C//DTD SVG 1.0//EN" "http://www.w3.org/TR/2001/REC-SVG-20010904/DTD/svg10.dtd">
<svg version="1.0" xmlns="http://www.w3.org/2000/svg" xmlns:xlink="http://www.w3.org/1999/xlink" x="0px" y="0px" width="110px"
	 height="110px" viewBox="0 0 110 110" style="enable-background:new 0 0 110 110;" xml:space="preserve">
<g id="Artboard">
</g>
<g id="Multicolor">
	<circle style="fill:#32BEA6;" cx="55" cy="55" r="55"/>
	<g>
		<path style="fill:#FFFFFF;" d="M75,83c0,2.209-1.791,4-4,4H39c-2.209,0-4-1.791-4-4V27c0-2.209,1.791-4,4-4h32
			c2.209,0,4,1.791,4,4V83z"/>
		<path style="fill:#21B2D1;" d="M71,51c0,2.209-1.791,4-4,4H43c-2.209,0-4-1.791-4-4V31c0-2.209,1.791-4,4-4h24
			c2.209,0,4,1.791,4,4V51z"/>
		<path style="fill:#E2E4E5;" d="M55,84c-7.168,0-13-5.832-13-13s5.832-13,13-13s13,5.832,13,13S62.168,84,55,84z M55,60
			c-6.065,0-11,4.935-11,11s4.935,11,11,11s11-4.935,11-11S61.065,60,55,60z"/>
		<circle style="fill:#E2E4E5;" cx="55" cy="71" r="4"/>
		<path style="fill:#40C9E7;" d="M67,27H43c-2.209,0-4,1.791-4,4v20c0,2.209,1.791,4,4,4h1.042l26.258-26.258
			C69.579,27.691,68.371,27,67,27z"/>
	</g>
</g>
</svg>
