<?xml version="1.0" encoding="iso-8859-1"?>
<!-- Generator: Adobe Illustrator 17.1.0, SVG Export Plug-In . SVG Version: 6.00 Build 0)  -->
<!DOCTYPE svg PUBLIC "-//W3C//DTD SVG 1.0//EN" "http://www.w3.org/TR/2001/REC-SVG-20010904/DTD/svg10.dtd">
<svg version="1.0" xmlns="http://www.w3.org/2000/svg" xmlns:xlink="http://www.w3.org/1999/xlink" x="0px" y="0px" width="110px"
	 height="110px" viewBox="0 0 110 110" style="enable-background:new 0 0 110 110;" xml:space="preserve">
<g id="Artboard">
</g>
<g id="Multicolor">
	<circle style="fill:#E04F5F;" cx="55" cy="55" r="55"/>
	<g>
		<g>
			<path style="fill:#F0F1F1;" d="M86.27,67.73l-4.658-20.968C80.086,39.89,73.991,35,66.952,35H59.87
				c-12.46,0-23.53,7.97-27.47,19.8l-6.74,20.22L24.33,79L23,83h56v-0.08c0-1.35,0.21-2.67,0.62-3.92
				c1.293-4.055,3.875-6.248,7.38-8L86.27,67.73z M70,59c-8.337,0-25.627,0-31,0c-1.97-0.001,2-22,28-18c6.918,1.064,9,5,9,10
				S73.104,59,70,59z"/>
		</g>
		<g>
			<path style="fill:#3E3E3F;" d="M29.825,57.183l1.549,0.693L32.4,54.8c0.949-2.85,2.321-5.47,4.018-7.814l-1.694-0.758
				c-1.008-0.451-2.191,0.001-2.642,1.01l-3.265,7.303C28.365,55.549,28.817,56.732,29.825,57.183z"/>
		</g>
		<g>
			<path style="fill:#FFFFFF;" d="M59.87,35c-12.46,0-23.53,7.97-27.47,19.8l-6.74,20.22C24.019,79.93,24.675,77.963,23,83h5.698
				l24-24C46.924,59,41.583,59,39,59c-1.97-0.001,2-22,28-18c1.113,0.171,2.088,0.424,2.962,0.736l4.634-4.633
				C72.339,35.766,69.721,35,66.952,35H59.87z"/>
		</g>
		<g>
			<path style="fill:#3E3E3F;" d="M79.62,79C79.21,80.25,79,81.57,79,82.92V83H23l1.33-4H79.62z"/>
		</g>
		<g>
			<circle style="fill:#FA5655;" cx="78.5" cy="63.5" r="3"/>
		</g>
		<g>
			<path style="fill:#21B2D1;" d="M87,71c-3.373,1.687-6.052,3.835-7.38,8H24.33l1.33-3.98c9.62,0.06,42.98-0.31,60.61-7.29L87,71z"
				/>
		</g>
		<g>
			<path style="fill:#21B2D1;" d="M65,57c0-1.105-0.895-2-2-2H51c-1.105,0-2,0.895-2,2v2h16V57z"/>
		</g>
		<g>
			<polygon style="fill:#5B5C5F;" points="24.33,79 23,83 28.698,83 32.698,79 			"/>
		</g>
		<g>
			<path style="fill:#40C9E7;" d="M25.66,75.02L24.33,79h8.368l4.115-4.115C32.012,75.022,28.082,75.035,25.66,75.02z"/>
		</g>
	</g>
</g>
</svg>
