<?xml version="1.0" encoding="iso-8859-1"?>
<!-- Generator: Adobe Illustrator 17.1.0, SVG Export Plug-In . SVG Version: 6.00 Build 0)  -->
<!DOCTYPE svg PUBLIC "-//W3C//DTD SVG 1.0//EN" "http://www.w3.org/TR/2001/REC-SVG-20010904/DTD/svg10.dtd">
<svg version="1.0" xmlns="http://www.w3.org/2000/svg" xmlns:xlink="http://www.w3.org/1999/xlink" x="0px" y="0px" width="110px"
	 height="110px" viewBox="0 0 110 110" style="enable-background:new 0 0 110 110;" xml:space="preserve">
<g id="Artboard">
</g>
<g id="Multicolor">
	<circle style="fill:#25B7D3;" cx="55" cy="55" r="55"/>
	<g>
		<g>
			<path style="fill:#F0F1F1;" d="M86.125,63c0,0-61.125,0-62.125,0c-0.73,0.274-1,1.094-1,1.99c0,0.394,0.11,0.76,0.32,1.09
				l5.643,9.224c2.202-0.771,4.181-2.162,5.64-4.104c0.094-0.126,0.243-0.2,0.4-0.2h0.01c0.148,0,0.287,0.07,0.375,0.188
				C37.578,74.111,41.063,76,45,76c3.931,0,7.412-1.884,9.603-4.8c0.094-0.126,0.243-0.2,0.4-0.2h0.01
				c0.148,0,0.287,0.07,0.375,0.188C57.578,74.111,61.063,76,65,76c3.931,0,7.412-1.884,9.603-4.8c0.094-0.126,0.243-0.2,0.4-0.2
				h0.01c0.148,0,0.287,0.07,0.375,0.188c1.456,1.944,3.435,3.338,5.639,4.113C81.027,75.301,89.437,63,86.125,63z"/>
		</g>
		<g>
			<path style="fill:#DF2C2C;" d="M86.062,63c0.813-4.875-0.479-13.5-3.663-16c-6.129,6.129-15.8,7.775-24.42,8
				c-2.8,0.07-4.99,0-6.08,0c0-6.752-5.82-13.91-10-16c-6.648,5.862-15.254,15.427-17.56,24H86.062z"/>
		</g>
		<g>
			<path style="fill:#3E3E3F;" d="M82.4,47c-0.2,0.2-0.42,0.4-0.63,0.6c-6.66,6.03-16.51,7.21-23.79,7.4c-2.8,0.07-4.99,0-6.08,0
				c0-1.646-0.38-3.11-0.38-3.11C52.74,49.02,55.58,47,58.9,47H82.4z"/>
		</g>
		<g>
			<path style="fill:#FA5655;" d="M51.9,55c0-6.752-5.82-13.91-10-16c-6.648,5.862-15.254,15.427-17.56,24h24.97l7.987-7.987
				C54.828,55.058,52.899,55,51.9,55z"/>
		</g>
		<g>
			<path style="fill:#6FDAF1;" d="M87,87V76.409c0-0.143-0.061-0.28-0.168-0.375c-0.107-0.095-0.25-0.14-0.392-0.122
				c-4.262,0.521-8.466-1.273-11.051-4.724C75.299,71.07,75.16,71,75.012,71h-0.01c-0.157,0-0.306,0.074-0.4,0.2
				C72.412,74.116,68.931,76,65,76c-3.936,0-7.422-1.889-9.612-4.812C55.299,71.07,55.16,71,55.012,71h-0.01
				c-0.157,0-0.306,0.074-0.4,0.2C52.412,74.116,48.931,76,45,76c-3.936,0-7.422-1.889-9.612-4.812C35.299,71.07,35.16,71,35.012,71
				h-0.01c-0.157,0-0.306,0.074-0.4,0.2c-2.591,3.449-6.792,5.231-11.042,4.712c-0.142-0.017-0.285,0.028-0.392,0.123
				C23.061,76.129,23,76.265,23,76.409V87H87z"/>
		</g>
		<g>
			<path style="fill:#3E3E3F;" d="M47.627,44.101l4.272-4.272L55.072,43c0.778,0.778,2.05,0.778,2.828,0s0.778-2.05,0-2.828
				l-4.586-4.586c-0.78-0.781-2.048-0.781-2.828,0l-5.57,5.57C45.844,41.996,46.768,42.988,47.627,44.101z"/>
		</g>
		<g>
			<path style="fill:#FBE158;" d="M25.806,59H43.9c0-4.418-3.582-8-8-8h-5.188C28.761,53.603,27.048,56.313,25.806,59z"/>
		</g>
		<g>
			<path style="fill:#FFFFFF;" d="M49.226,63c0,0-24.226,0-25.226,0c-0.73,0.274-1,1.094-1,1.99c0,0.394,0.11,0.76,0.32,1.09
				l5.643,9.224c2.202-0.771,4.181-2.162,5.64-4.104c0.094-0.126,0.243-0.2,0.4-0.2h0.01c0.148,0,0.287,0.07,0.375,0.188
				c0.816,1.089,1.812,2.033,2.944,2.791L49.31,63H49.226z"/>
		</g>
	</g>
</g>
</svg>
