<?xml version="1.0" encoding="iso-8859-1"?>
<!-- Generator: Adobe Illustrator 17.1.0, SVG Export Plug-In . SVG Version: 6.00 Build 0)  -->
<!DOCTYPE svg PUBLIC "-//W3C//DTD SVG 1.0//EN" "http://www.w3.org/TR/2001/REC-SVG-20010904/DTD/svg10.dtd">
<svg version="1.0" xmlns="http://www.w3.org/2000/svg" xmlns:xlink="http://www.w3.org/1999/xlink" x="0px" y="0px" width="110px"
	 height="110px" viewBox="0 0 110 110" style="enable-background:new 0 0 110 110;" xml:space="preserve">
<g id="Artboard">
</g>
<g id="Multicolor">
	<circle style="fill:#E04F5F;" cx="55" cy="55" r="55"/>
	<g>
		<g>
			<path style="fill:#FACB1B;" d="M51,55v7.08C50.68,62.02,50.34,62,50,62c-3.87,0-7,3.13-7,7s3.13,7,7,7c0.34,0,0.68-0.02,1-0.08
				V87h11.08C62.02,86.68,62,86.34,62,86c0-3.87,3.13-7,7-7s7,3.13,7,7c0,0.34-0.02,0.68-0.08,1H87V55H51z"/>
		</g>
		<g>
			<path style="fill:#40C9E7;" d="M79,39c0,3.87,3.13,7,7,7c0.34,0,0.68-0.02,1-0.08V55H75.92c0.06,0.32,0.08,0.66,0.08,1
				c0,3.87-3.13,7-7,7s-7-3.13-7-7c0-0.34,0.02-0.68,0.08-1H51V23h11.08C62.02,23.32,62,23.66,62,24c0,3.87,3.13,7,7,7s7-3.13,7-7
				c0-0.34-0.02-0.68-0.08-1H87v9.08C86.68,32.02,86.34,32,86,32C82.13,32,79,35.13,79,39z"/>
		</g>
		<g>
			<path style="fill:#F0F1F1;" d="M50,62c0.34,0,0.68,0.02,1,0.08V43h-7.08c0.06-0.32,0.08-0.66,0.08-1c0-3.87-3.13-7-7-7
				s-7,3.13-7,7c0,0.34,0.02,0.68,0.08,1H23v19.08c0.32-0.06,0.66-0.08,1-0.08c3.87,0,7,3.13,7,7s-3.13,7-7,7
				c-0.34,0-0.68-0.02-1-0.08V87h28V75.92C50.68,75.98,50.34,76,50,76c-3.87,0-7-3.13-7-7S46.13,62,50,62z"/>
		</g>
		<g>
			<path style="fill:#6FDAF1;" d="M76,24c0,3.87-3.13,7-7,7s-7-3.13-7-7c0-0.34,0.02-0.68,0.08-1H51v32h0.799l32-32H75.92
				C75.98,23.32,76,23.66,76,24z"/>
		</g>
		<g>
			<path style="fill:#FFFFFF;" d="M51,43h-7.08c0.06-0.32,0.08-0.66,0.08-1c0-3.87-3.13-7-7-7s-7,3.13-7,7c0,0.34,0.02,0.68,0.08,1
				H23v19.08c0.32-0.06,0.66-0.08,1-0.08c3.87,0,7,3.13,7,7s-3.13,7-7,7c-0.34,0-0.68-0.02-1-0.08v7.879l28-28V43z"/>
		</g>
	</g>
</g>
</svg>
