<?xml version="1.0" encoding="iso-8859-1"?>
<!-- Generator: Adobe Illustrator 17.1.0, SVG Export Plug-In . SVG Version: 6.00 Build 0)  -->
<!DOCTYPE svg PUBLIC "-//W3C//DTD SVG 1.0//EN" "http://www.w3.org/TR/2001/REC-SVG-20010904/DTD/svg10.dtd">
<svg version="1.0" xmlns="http://www.w3.org/2000/svg" xmlns:xlink="http://www.w3.org/1999/xlink" x="0px" y="0px" width="110px"
	 height="110px" viewBox="0 0 110 110" style="enable-background:new 0 0 110 110;" xml:space="preserve">
<g id="Artboard">
</g>
<g id="Multicolor">
	<circle style="fill:#E04F5F;" cx="55" cy="55" r="55"/>
	<g>
		<path style="fill:#3E3E3F;" d="M84.111,81.76c-2.53,1.26-5.6,0.29-6.95-2.2l-5.46-8.411c-1.05-1.94-3.07-3.15-5.28-3.15h-22.84
			c-2.21,0-4.23,1.21-5.28,3.15l-5.46,8.411c-1.35,2.49-4.42,3.46-6.95,2.2c-2.12-1.07-3.26-3.43-2.78-5.76l7.17-29.541
			c0.45-2.18,2.09-3.93,4.23-4.54c13.03-3.716,26.857-4.027,40.98,0c2.14,0.61,3.78,2.36,4.23,4.54L86.891,76
			C87.371,78.33,86.231,80.69,84.111,81.76z"/>
		<path style="fill:#5B5C5F;" d="M55,39.02c-6.992,0-13.845,1.004-20.489,2.899c-2.14,0.61-3.78,2.36-4.23,4.54L23.111,76
			c-0.48,2.33,0.66,4.69,2.78,5.76c2.53,1.26,5.6,0.29,6.95-2.2l5.46-8.411c1.05-1.94,3.07-3.15,5.28-3.15H55V39.02z"/>
		<circle style="fill:#E2E4E5;" cx="44.001" cy="67.999" r="7"/>
		<circle style="fill:#5B5C5F;" cx="44.001" cy="67.999" r="4"/>
		<circle style="fill:#E2E4E5;" cx="66.001" cy="67.999" r="7"/>
		<circle style="fill:#5B5C5F;" cx="66.001" cy="67.999" r="4"/>
		<path style="fill:#E2E4E5;" d="M47.501,50.249c0-0.69-0.56-1.25-1.25-1.25h-2.5c-0.69,0-1.25-0.56-1.25-1.25v-2.5
			c0-0.69-0.56-1.25-1.25-1.25h-2.5c-0.69,0-1.25,0.56-1.25,1.25v2.5c0,0.69-0.56,1.25-1.25,1.25h-2.5c-0.69,0-1.25,0.56-1.25,1.25
			v2.5c0,0.69,0.56,1.25,1.25,1.25h2.5c0.69,0,1.25,0.56,1.25,1.25v2.5c0,0.69,0.56,1.25,1.25,1.25h2.5c0.69,0,1.25-0.56,1.25-1.25
			v-2.5c0-0.69,0.56-1.25,1.25-1.25h2.5c0.69,0,1.25-0.56,1.25-1.25V50.249z"/>
		<circle style="fill:#17B198;" cx="64.501" cy="51.499" r="2.5"/>
		<circle style="fill:#21B2D1;" cx="74.501" cy="51.498" r="2.5"/>
		<circle style="fill:#FACB1B;" cx="69.501" cy="56.499" r="2.5"/>
		<circle style="fill:#FA5655;" cx="69.501" cy="46.497" r="2.5"/>
		<rect x="53.001" y="22.999" style="fill:#3E3E3F;" width="4" height="16"/>
		<path style="fill:#5B5C5F;" d="M63.531,39.519l-2.53,5.48h-12l-2.53-5.48C52.161,38.839,57.841,38.839,63.531,39.519z"/>
		<path style="fill:#818284;" d="M55,39.009c-2.842,0-5.684,0.17-8.529,0.51l2.53,5.48H55V39.009z"/>
		<path style="fill:#5B5C5F;" d="M63.001,57.999c0,0.552-0.448,1-1,1h-4c-0.552,0-1-0.448-1-1s0.448-1,1-1h4
			C62.553,56.999,63.001,57.447,63.001,57.999z"/>
		<path style="fill:#818284;" d="M53.001,57.999c0,0.552-0.448,1-1,1h-4c-0.552,0-1-0.448-1-1s0.448-1,1-1h4
			C52.553,56.999,53.001,57.447,53.001,57.999z"/>
	</g>
</g>
</svg>
