<?xml version="1.0" encoding="iso-8859-1"?>
<!-- Generator: Adobe Illustrator 17.1.0, SVG Export Plug-In . SVG Version: 6.00 Build 0)  -->
<!DOCTYPE svg PUBLIC "-//W3C//DTD SVG 1.0//EN" "http://www.w3.org/TR/2001/REC-SVG-20010904/DTD/svg10.dtd">
<svg version="1.0" xmlns="http://www.w3.org/2000/svg" xmlns:xlink="http://www.w3.org/1999/xlink" x="0px" y="0px" width="110px"
	 height="110px" viewBox="0 0 110 110" style="enable-background:new 0 0 110 110;" xml:space="preserve">
<g id="Artboard">
</g>
<g id="Multicolor">
	<circle style="fill:#25B7D3;" cx="55" cy="55" r="55"/>
	<g>
		<path style="fill:#9CE5F4;" d="M74.907,54.965l7.702-13.485c0.53-0.93,0.52-2.07-0.02-2.99c-0.53-0.92-1.52-1.49-2.59-1.49H64.699
			l-7.091-12.48c-0.53-0.94-1.53-1.52-2.61-1.52s-2.08,0.58-2.61,1.52L45.295,37H29.999c-1.07,0-2.06,0.57-2.59,1.49
			c-0.54,0.92-0.55,2.06-0.02,2.99L35.069,55l-7.68,13.52c-0.53,0.93-0.52,2.07,0.02,2.99c0.53,0.92,1.52,1.49,2.59,1.49h15.3
			l7.09,12.48c0.53,0.94,1.53,1.52,2.61,1.52s2.08-0.58,2.61-1.52L64.699,73h15.3c1.07,0,2.06-0.57,2.59-1.49
			c0.54-0.92,0.55-2.06,0.02-2.99L74.907,54.965z M54.999,32.07l2.8,4.93h-5.599L54.999,32.07z M41.884,43l-3.365,5.92L35.159,43
			H41.884z M35.159,67l3.36-5.92l3.37,5.92H35.159z M54.999,77.93l-2.8-4.93h5.6L54.999,77.93z M61.209,67h-12.42l-6.81-12l6.814-12
			h12.414l6.812,12L61.209,67z M68.109,43h6.73l-3.384,5.89L68.109,43z M68.109,67l3.369-5.917L74.839,67H68.109z"/>
		<g>
			<path style="fill:#FFFFFF;" d="M82.588,38.49c-0.53-0.92-1.52-1.49-2.59-1.49h-15.3l3.41,6h6.73l-3.36,5.92l3.45,6.08l7.68-13.52
				C83.139,40.55,83.129,39.41,82.588,38.49z M57.798,37h-5.6l-3.41,6h12.42L57.798,37z"/>
		</g>
		<g>
			<path style="fill:#FFFFFF;" d="M71.479,61.08l-13.87,24.4c-0.53,0.94-1.53,1.52-2.61,1.52s-2.08-0.58-2.61-1.52l-25-44
				c-0.53-0.93-0.52-2.07,0.02-2.99c0.53-0.92,1.52-1.49,2.59-1.49h15.3l-3.41,6h-6.73l19.84,34.93L68.019,55L71.479,61.08z"/>
		</g>
	</g>
</g>
</svg>
