<?xml version="1.0" encoding="iso-8859-1"?>
<!-- Generator: Adobe Illustrator 17.1.0, SVG Export Plug-In . SVG Version: 6.00 Build 0)  -->
<!DOCTYPE svg PUBLIC "-//W3C//DTD SVG 1.0//EN" "http://www.w3.org/TR/2001/REC-SVG-20010904/DTD/svg10.dtd">
<svg version="1.0" xmlns="http://www.w3.org/2000/svg" xmlns:xlink="http://www.w3.org/1999/xlink" x="0px" y="0px" width="110px"
	 height="110px" viewBox="0 0 110 110" style="enable-background:new 0 0 110 110;" xml:space="preserve">
<g id="Artboard" style="display:none;">
	
		<rect x="-72.5" y="-162.5" style="display:inline;fill:#808080;stroke:#000000;stroke-miterlimit:10;" width="1392" height="1369"/>
</g>
<g id="R-Multicolor">
	<circle style="fill:#FABC3D;" cx="55" cy="55" r="55"/>
	<g>
		<g>
			<path style="fill:#9CE5F4;" d="M70,55c-1.24,7.904-0.245,1.542-4.47,28.62C65.22,85.56,63.55,87,61.58,87H48.42
				c-1.97,0-3.64-1.44-3.95-3.38C40.508,58.287,41.55,64.965,40,55H70z"/>
		</g>
		<g>
			<path style="fill:#9CE5F4;" d="M70.862,49C69.875,41.109,63.158,35,55,35s-14.876,6.109-15.862,14H70.862z"/>
		</g>
		<g>
			<path style="fill:#F37A10;" d="M69.07,60.93l-3.54,22.69C65.22,85.56,63.55,87,61.58,87H48.42c-1.97,0-3.64-1.44-3.95-3.38
				l-3.3-21.1C42.92,60.87,45.65,59,49,59c6,0,7,4,13,4C64.37,63,66.89,62.07,69.07,60.93z"/>
		</g>
		<g>
			<path style="fill:#F99134;" d="M57,61.82v20.1c0,0.56-0.45,1-1,1h-2c-0.55,0-1-0.44-1-1V59.73C54.47,60.31,55.64,61.14,57,61.82z
				"/>
		</g>
		<g>
			<path style="fill:#FFFFFF;" d="M79.278,32.705c0.459,0.306,0.584,0.927,0.277,1.387l-1.111,1.666
				c-0.306,0.46-0.927,0.584-1.387,0.277L64.77,27.84c-1.53-1.02-3.5-1.12-5.13-0.25C58.01,28.47,57,30.16,57,32v29.82
				c-1.36-0.68-2.53-1.51-4-2.09V32c0-3.32,1.82-6.36,4.75-7.93c2.93-1.57,6.48-1.4,9.24,0.44L79.278,32.705z"/>
		</g>
		<g>
			<path style="fill:#C9F2F8;" d="M53,55v4.73c1.47,0.58,2.64,1.41,4,2.09V55H53z"/>
		</g>
		<g>
			<path style="fill:#C9F2F8;" d="M53,35.139V49h4V35.139C56.343,35.057,55.679,35,55,35S53.657,35.057,53,35.139z"/>
		</g>
		<g>
			<path style="fill:#C9F2F8;" d="M35,53c0-2.209,1.791-4,4-4h32c2.209,0,4,1.791,4,4v2H35V53z"/>
		</g>
		<g>
			<rect x="53" y="49" style="fill:#FFFFFF;" width="4" height="6"/>
		</g>
	</g>
</g>
<g id="Multicolor" style="display:none;">
	<g style="display:inline;">
		<g>
			<path style="fill:#9CE5F4;" d="M70,55c-1.24,7.904-0.245,1.542-4.47,28.62C65.22,85.56,63.55,87,61.58,87H48.42
				c-1.97,0-3.64-1.44-3.95-3.38C40.508,58.287,41.55,64.965,40,55H70z"/>
		</g>
		<g>
			<path style="fill:#9CE5F4;" d="M70.862,49C69.875,41.109,63.158,35,55,35s-14.876,6.109-15.862,14H70.862z"/>
		</g>
		<g>
			<path style="fill:#F37A10;" d="M69.07,60.93l-3.54,22.69C65.22,85.56,63.55,87,61.58,87H48.42c-1.97,0-3.64-1.44-3.95-3.38
				l-3.3-21.1C42.92,60.87,45.65,59,49,59c6,0,7,4,13,4C64.37,63,66.89,62.07,69.07,60.93z"/>
		</g>
		<g>
			<path style="fill:#F99134;" d="M57,61.82v20.1c0,0.56-0.45,1-1,1h-2c-0.55,0-1-0.44-1-1V59.73C54.47,60.31,55.64,61.14,57,61.82z
				"/>
		</g>
		<g>
			<path style="fill:#FFFFFF;" d="M79.278,32.705c0.459,0.306,0.584,0.927,0.277,1.387l-1.111,1.666
				c-0.306,0.46-0.927,0.584-1.387,0.277L64.77,27.84c-1.53-1.02-3.5-1.12-5.13-0.25C58.01,28.47,57,30.16,57,32v29.82
				c-1.36-0.68-2.53-1.51-4-2.09V32c0-3.32,1.82-6.36,4.75-7.93c2.93-1.57,6.48-1.4,9.24,0.44L79.278,32.705z"/>
		</g>
		<g>
			<path style="fill:#C9F2F8;" d="M53,55v4.73c1.47,0.58,2.64,1.41,4,2.09V55H53z"/>
		</g>
		<g>
			<path style="fill:#C9F2F8;" d="M53,35.139V49h4V35.139C56.343,35.057,55.679,35,55,35S53.657,35.057,53,35.139z"/>
		</g>
		<g>
			<path style="fill:#C9F2F8;" d="M35,53c0-2.209,1.791-4,4-4h32c2.209,0,4,1.791,4,4v2H35V53z"/>
		</g>
		<g>
			<rect x="53" y="49" style="fill:#FFFFFF;" width="4" height="6"/>
		</g>
	</g>
</g>
<g id="Blue" style="display:none;">
	<g style="display:inline;">
		<g>
			<path style="fill:#BBE7F2;" d="M70,55c-1.239,7.904-0.245,1.542-4.47,28.62c-0.31,1.94-1.98,3.38-3.95,3.38H48.42
				c-1.97,0-3.64-1.44-3.949-3.38C40.508,58.287,41.551,64.965,40,55H70z"/>
		</g>
		<g>
			<path style="fill:#BBE7F2;" d="M70.861,49C69.875,41.109,63.158,35,55,35s-14.875,6.109-15.861,14H70.861z"/>
		</g>
		<g>
			<path style="fill:#0081A1;" d="M69.07,60.93l-3.54,22.69c-0.31,1.94-1.98,3.38-3.95,3.38H48.42c-1.97,0-3.64-1.44-3.949-3.38
				l-3.301-21.1C42.92,60.87,45.65,59,49,59c6,0,7,4,13,4C64.37,63,66.891,62.07,69.07,60.93z"/>
		</g>
		<g>
			<path style="fill:#00B7E5;" d="M57,61.82v20.1c0,0.56-0.45,1-1,1h-2c-0.55,0-1-0.44-1-1V59.73
				C54.471,60.31,55.641,61.14,57,61.82z"/>
		</g>
		<g>
			<path style="fill:#FFFFFF;" d="M79.278,32.706c0.46,0.306,0.583,0.927,0.276,1.387l-1.109,1.666
				c-0.307,0.459-0.928,0.583-1.387,0.277L64.77,27.84c-1.529-1.02-3.5-1.12-5.129-0.25C58.01,28.47,57,30.16,57,32v29.82
				c-1.359-0.68-2.529-1.51-4-2.09V32c0-3.32,1.82-6.36,4.75-7.93c2.93-1.57,6.48-1.4,9.24,0.44L79.278,32.706z"/>
		</g>
		<g>
			<path style="fill:#E1F5FA;" d="M53,55v4.73c1.47,0.58,2.641,1.41,4,2.09V55H53z"/>
		</g>
		<g>
			<path style="fill:#E1F5FA;" d="M53,35.139V49h4V35.139C56.344,35.057,55.68,35,55,35S53.656,35.057,53,35.139z"/>
		</g>
		<g>
			<path style="fill:#E1F5FA;" d="M35,53c0-2.209,1.791-4,4-4h32c2.209,0,4,1.791,4,4v2H35V53z"/>
		</g>
		<g>
			<rect x="53" y="49" style="fill:#FFFFFF;" width="4" height="6"/>
		</g>
	</g>
</g>
<g id="R-Blue" style="display:none;">
	<circle style="display:inline;fill:#81D2EB;" cx="55" cy="55" r="55"/>
	<g style="display:inline;">
		<g>
			<path style="fill:#BBE7F2;" d="M70,55c-1.239,7.904-0.245,1.542-4.47,28.62c-0.31,1.94-1.98,3.38-3.95,3.38H48.42
				c-1.97,0-3.64-1.44-3.949-3.38C40.508,58.287,41.551,64.965,40,55H70z"/>
		</g>
		<g>
			<path style="fill:#BBE7F2;" d="M70.861,49C69.875,41.109,63.158,35,55,35s-14.875,6.109-15.861,14H70.861z"/>
		</g>
		<g>
			<path style="fill:#0081A1;" d="M69.07,60.93l-3.54,22.69c-0.31,1.94-1.98,3.38-3.95,3.38H48.42c-1.97,0-3.64-1.44-3.949-3.38
				l-3.301-21.1C42.92,60.87,45.65,59,49,59c6,0,7,4,13,4C64.37,63,66.891,62.07,69.07,60.93z"/>
		</g>
		<g>
			<path style="fill:#00B7E5;" d="M57,61.82v20.1c0,0.56-0.45,1-1,1h-2c-0.55,0-1-0.44-1-1V59.73
				C54.471,60.31,55.641,61.14,57,61.82z"/>
		</g>
		<g>
			<path style="fill:#FFFFFF;" d="M79.278,32.706c0.46,0.306,0.583,0.927,0.276,1.387l-1.109,1.666
				c-0.307,0.459-0.928,0.583-1.387,0.277L64.77,27.84c-1.529-1.02-3.5-1.12-5.129-0.25C58.01,28.47,57,30.16,57,32v29.82
				c-1.359-0.68-2.529-1.51-4-2.09V32c0-3.32,1.82-6.36,4.75-7.93c2.93-1.57,6.48-1.4,9.24,0.44L79.278,32.706z"/>
		</g>
		<g>
			<path style="fill:#E1F5FA;" d="M53,55v4.73c1.47,0.58,2.641,1.41,4,2.09V55H53z"/>
		</g>
		<g>
			<path style="fill:#E1F5FA;" d="M53,35.139V49h4V35.139C56.344,35.057,55.68,35,55,35S53.656,35.057,53,35.139z"/>
		</g>
		<g>
			<path style="fill:#E1F5FA;" d="M35,53c0-2.209,1.791-4,4-4h32c2.209,0,4,1.791,4,4v2H35V53z"/>
		</g>
		<g>
			<rect x="53" y="49" style="fill:#FFFFFF;" width="4" height="6"/>
		</g>
	</g>
</g>
<g id="Green" style="display:none;">
	<g style="display:inline;">
		<g>
			<path style="fill:#AAF0E9;" d="M70,55c-1.239,7.904-0.245,1.542-4.47,28.62c-0.31,1.94-1.979,3.38-3.95,3.38H48.42
				c-1.97,0-3.64-1.44-3.949-3.38C40.508,58.287,41.551,64.965,40,55H70z"/>
		</g>
		<g>
			<path style="fill:#AAF0E9;" d="M70.861,49C69.875,41.109,63.158,35,55,35s-14.875,6.109-15.861,14H70.861z"/>
		</g>
		<g>
			<path style="fill:#009687;" d="M69.07,60.93l-3.54,22.69c-0.31,1.94-1.979,3.38-3.95,3.38H48.42c-1.97,0-3.64-1.44-3.949-3.38
				l-3.301-21.1C42.92,60.87,45.65,59,49,59c6,0,7,4,13,4C64.37,63,66.891,62.07,69.07,60.93z"/>
		</g>
		<g>
			<path style="fill:#00D6C1;" d="M57,61.82v20.1c0,0.56-0.45,1-1,1h-2c-0.55,0-1-0.44-1-1V59.73
				C54.471,60.31,55.641,61.14,57,61.82z"/>
		</g>
		<g>
			<path style="fill:#FFFFFF;" d="M79.278,32.706c0.46,0.306,0.583,0.927,0.276,1.387l-1.109,1.666
				c-0.307,0.459-0.928,0.583-1.387,0.277L64.769,27.84c-1.529-1.02-3.5-1.12-5.129-0.25C58.01,28.47,57,30.16,57,32v29.82
				c-1.359-0.68-2.529-1.51-4-2.09V32c0-3.32,1.82-6.36,4.75-7.93c2.93-1.57,6.481-1.4,9.24,0.44L79.278,32.706z"/>
		</g>
		<g>
			<path style="fill:#D7FCF9;" d="M53,55v4.73c1.47,0.58,2.641,1.41,4,2.09V55H53z"/>
		</g>
		<g>
			<path style="fill:#D7FCF9;" d="M53,35.139V49h4V35.139C56.344,35.057,55.68,35,55,35S53.656,35.057,53,35.139z"/>
		</g>
		<g>
			<path style="fill:#D7FCF9;" d="M35,53c0-2.209,1.791-4,4-4h32c2.209,0,4,1.791,4,4v2H35V53z"/>
		</g>
		<g>
			<rect x="53" y="49" style="fill:#FFFFFF;" width="4" height="6"/>
		</g>
	</g>
</g>
<g id="R-Green" style="display:none;">
	<circle style="display:inline;fill:#77E0C4;" cx="55" cy="55" r="55"/>
	<g style="display:inline;">
		<g>
			<path style="fill:#AAF0E9;" d="M70,55c-1.239,7.904-0.245,1.542-4.47,28.62c-0.31,1.94-1.979,3.38-3.95,3.38H48.42
				c-1.97,0-3.64-1.44-3.949-3.38C40.508,58.287,41.551,64.965,40,55H70z"/>
		</g>
		<g>
			<path style="fill:#AAF0E9;" d="M70.861,49C69.875,41.109,63.158,35,55,35s-14.875,6.109-15.861,14H70.861z"/>
		</g>
		<g>
			<path style="fill:#009687;" d="M69.07,60.93l-3.54,22.69c-0.31,1.94-1.979,3.38-3.95,3.38H48.42c-1.97,0-3.64-1.44-3.949-3.38
				l-3.301-21.1C42.92,60.87,45.65,59,49,59c6,0,7,4,13,4C64.37,63,66.891,62.07,69.07,60.93z"/>
		</g>
		<g>
			<path style="fill:#00D6C1;" d="M57,61.82v20.1c0,0.56-0.45,1-1,1h-2c-0.55,0-1-0.44-1-1V59.73
				C54.471,60.31,55.641,61.14,57,61.82z"/>
		</g>
		<g>
			<path style="fill:#FFFFFF;" d="M79.278,32.706c0.46,0.306,0.583,0.927,0.276,1.387l-1.109,1.666
				c-0.307,0.459-0.928,0.583-1.387,0.277L64.77,27.84c-1.529-1.02-3.5-1.12-5.129-0.25C58.01,28.47,57,30.16,57,32v29.82
				c-1.359-0.68-2.529-1.51-4-2.09V32c0-3.32,1.82-6.36,4.75-7.93c2.93-1.57,6.48-1.4,9.24,0.44L79.278,32.706z"/>
		</g>
		<g>
			<path style="fill:#D7FCF9;" d="M53,55v4.73c1.47,0.58,2.641,1.41,4,2.09V55H53z"/>
		</g>
		<g>
			<path style="fill:#D7FCF9;" d="M53,35.139V49h4V35.139C56.344,35.057,55.68,35,55,35S53.656,35.057,53,35.139z"/>
		</g>
		<g>
			<path style="fill:#D7FCF9;" d="M35,53c0-2.209,1.791-4,4-4h32c2.209,0,4,1.791,4,4v2H35V53z"/>
		</g>
		<g>
			<rect x="53" y="49" style="fill:#FFFFFF;" width="4" height="6"/>
		</g>
	</g>
</g>
<g id="Red" style="display:none;">
	<g style="display:inline;">
		<g>
			<path style="fill:#FFD7D4;" d="M70,55c-1.239,7.904-0.245,1.542-4.47,28.62c-0.31,1.94-1.979,3.38-3.95,3.38H48.42
				c-1.97,0-3.64-1.44-3.949-3.38C40.508,58.287,41.551,64.965,40,55H70z"/>
		</g>
		<g>
			<path style="fill:#FFD7D4;" d="M70.861,49C69.875,41.109,63.158,35,55,35s-14.875,6.109-15.861,14H70.861z"/>
		</g>
		<g>
			<path style="fill:#C23023;" d="M69.07,60.93l-3.54,22.69c-0.31,1.94-1.979,3.38-3.95,3.38H48.42c-1.97,0-3.64-1.44-3.949-3.38
				l-3.301-21.1C42.92,60.87,45.65,59,49,59c6,0,7,4,13,4C64.37,63,66.891,62.07,69.07,60.93z"/>
		</g>
		<g>
			<path style="fill:#FF6C5E;" d="M57,61.82v20.1c0,0.56-0.45,1-1,1h-2c-0.55,0-1-0.44-1-1V59.73
				C54.471,60.31,55.641,61.14,57,61.82z"/>
		</g>
		<g>
			<path style="fill:#FFFFFF;" d="M79.278,32.706c0.46,0.306,0.583,0.927,0.276,1.387l-1.109,1.666
				c-0.307,0.459-0.928,0.584-1.387,0.277L64.77,27.84c-1.529-1.02-3.5-1.12-5.129-0.25C58.01,28.47,57,30.16,57,32v29.82
				c-1.359-0.68-2.529-1.51-4-2.09V32c0-3.32,1.82-6.36,4.75-7.93c2.93-1.57,6.48-1.4,9.24,0.44L79.278,32.706z"/>
		</g>
		<g>
			<path style="fill:#FFEFED;" d="M53,55v4.73c1.47,0.58,2.641,1.41,4,2.09V55H53z"/>
		</g>
		<g>
			<path style="fill:#FFEFED;" d="M53,35.139V49h4V35.139C56.344,35.057,55.68,35,55,35S53.656,35.057,53,35.139z"/>
		</g>
		<g>
			<path style="fill:#FFEFED;" d="M35,53c0-2.209,1.791-4,4-4h32c2.209,0,4,1.791,4,4v2H35V53z"/>
		</g>
		<g>
			<rect x="53" y="49" style="fill:#FFFFFF;" width="4" height="6"/>
		</g>
	</g>
</g>
<g id="R-Red" style="display:none;">
	<circle style="display:inline;fill:#FABBAF;" cx="55" cy="55" r="55"/>
	<g style="display:inline;">
		<g>
			<path style="fill:#FFD7D4;" d="M70,55c-1.239,7.904-0.245,1.542-4.47,28.62c-0.31,1.94-1.979,3.38-3.95,3.38H48.42
				c-1.97,0-3.64-1.44-3.949-3.38C40.508,58.287,41.551,64.965,40,55H70z"/>
		</g>
		<g>
			<path style="fill:#FFD7D4;" d="M70.861,49C69.875,41.109,63.158,35,55,35s-14.875,6.109-15.861,14H70.861z"/>
		</g>
		<g>
			<path style="fill:#C23023;" d="M69.07,60.93l-3.54,22.69c-0.31,1.94-1.979,3.38-3.95,3.38H48.42c-1.97,0-3.64-1.44-3.949-3.38
				l-3.301-21.1C42.92,60.87,45.65,59,49,59c6,0,7,4,13,4C64.37,63,66.891,62.07,69.07,60.93z"/>
		</g>
		<g>
			<path style="fill:#FF6C5E;" d="M57,61.82v20.1c0,0.56-0.45,1-1,1h-2c-0.55,0-1-0.44-1-1V59.73
				C54.471,60.31,55.641,61.14,57,61.82z"/>
		</g>
		<g>
			<path style="fill:#FFFFFF;" d="M79.278,32.706c0.46,0.306,0.583,0.927,0.276,1.387l-1.109,1.666
				c-0.307,0.459-0.928,0.584-1.387,0.277L64.77,27.84c-1.529-1.02-3.5-1.12-5.129-0.25C58.01,28.47,57,30.16,57,32v29.82
				c-1.359-0.68-2.529-1.51-4-2.09V32c0-3.32,1.82-6.36,4.75-7.93c2.93-1.57,6.48-1.4,9.24,0.44L79.278,32.706z"/>
		</g>
		<g>
			<path style="fill:#FFEFED;" d="M53,55v4.73c1.47,0.58,2.641,1.41,4,2.09V55H53z"/>
		</g>
		<g>
			<path style="fill:#FFEFED;" d="M53,35.139V49h4V35.139C56.344,35.057,55.68,35,55,35S53.656,35.057,53,35.139z"/>
		</g>
		<g>
			<path style="fill:#FFEFED;" d="M35,53c0-2.209,1.791-4,4-4h32c2.209,0,4,1.791,4,4v2H35V53z"/>
		</g>
		<g>
			<rect x="53" y="49" style="fill:#FFFFFF;" width="4" height="6"/>
		</g>
	</g>
</g>
<g id="Yellow" style="display:none;">
	<g style="display:inline;">
		<g>
			<path style="fill:#FFE9A1;" d="M70,55c-1.239,7.904-0.245,1.542-4.47,28.62c-0.31,1.94-1.979,3.38-3.95,3.38H48.42
				c-1.97,0-3.64-1.44-3.949-3.38C40.508,58.287,41.551,64.965,40,55H70z"/>
		</g>
		<g>
			<path style="fill:#FFE9A1;" d="M70.861,49C69.875,41.109,63.158,35,55,35s-14.875,6.109-15.861,14H70.861z"/>
		</g>
		<g>
			<path style="fill:#E07000;" d="M69.07,60.93l-3.54,22.69c-0.31,1.94-1.979,3.38-3.95,3.38H48.42c-1.97,0-3.64-1.44-3.949-3.38
				l-3.301-21.1C42.92,60.87,45.65,59,49,59c6,0,7,4,13,4C64.37,63,66.891,62.07,69.07,60.93z"/>
		</g>
		<g>
			<path style="fill:#FFAA00;" d="M57,61.82v20.1c0,0.56-0.45,1-1,1h-2c-0.55,0-1-0.44-1-1V59.73
				C54.471,60.31,55.641,61.14,57,61.82z"/>
		</g>
		<g>
			<path style="fill:#FFFFFF;" d="M79.278,32.706c0.46,0.306,0.583,0.927,0.276,1.387l-1.109,1.666
				c-0.307,0.459-0.928,0.583-1.387,0.277L64.77,27.84c-1.529-1.02-3.5-1.12-5.129-0.25C58.01,28.47,57,30.16,57,32v29.82
				c-1.359-0.68-2.529-1.51-4-2.09V32c0-3.32,1.82-6.36,4.75-7.93c2.93-1.57,6.48-1.4,9.24,0.44L79.278,32.706z"/>
		</g>
		<g>
			<path style="fill:#FFF5D9;" d="M53,55v4.73c1.47,0.58,2.641,1.41,4,2.09V55H53z"/>
		</g>
		<g>
			<path style="fill:#FFF5D9;" d="M53,35.139V49h4V35.139C56.344,35.057,55.68,35,55,35S53.656,35.057,53,35.139z"/>
		</g>
		<g>
			<path style="fill:#FFF5D9;" d="M35,53c0-2.209,1.791-4,4-4h32c2.209,0,4,1.791,4,4v2H35V53z"/>
		</g>
		<g>
			<rect x="53" y="49" style="fill:#FFFFFF;" width="4" height="6"/>
		</g>
	</g>
</g>
<g id="R-Yellow" style="display:none;">
	<circle style="display:inline;fill:#FFD75E;" cx="55" cy="55" r="55"/>
	<g style="display:inline;">
		<g>
			<path style="fill:#FFE9A1;" d="M70,55c-1.239,7.904-0.245,1.542-4.47,28.62c-0.31,1.94-1.979,3.38-3.95,3.38H48.42
				c-1.97,0-3.64-1.44-3.949-3.38C40.508,58.287,41.551,64.965,40,55H70z"/>
		</g>
		<g>
			<path style="fill:#FFE9A1;" d="M70.861,49C69.875,41.109,63.158,35,55,35s-14.875,6.109-15.861,14H70.861z"/>
		</g>
		<g>
			<path style="fill:#E07000;" d="M69.07,60.93l-3.54,22.69c-0.31,1.94-1.979,3.38-3.95,3.38H48.42c-1.97,0-3.64-1.44-3.949-3.38
				l-3.301-21.1C42.92,60.87,45.65,59,49,59c6,0,7,4,13,4C64.37,63,66.891,62.07,69.07,60.93z"/>
		</g>
		<g>
			<path style="fill:#FFAA00;" d="M57,61.82v20.1c0,0.56-0.45,1-1,1h-2c-0.55,0-1-0.44-1-1V59.73
				C54.471,60.31,55.641,61.14,57,61.82z"/>
		</g>
		<g>
			<path style="fill:#FFFFFF;" d="M79.278,32.706c0.46,0.306,0.583,0.927,0.276,1.387l-1.109,1.666
				c-0.307,0.459-0.928,0.583-1.387,0.277L64.769,27.84c-1.529-1.02-3.5-1.12-5.129-0.25C58.01,28.47,57,30.16,57,32v29.82
				c-1.359-0.68-2.529-1.51-4-2.09V32c0-3.32,1.82-6.36,4.75-7.93c2.93-1.57,6.481-1.4,9.24,0.44L79.278,32.706z"/>
		</g>
		<g>
			<path style="fill:#FFF5D9;" d="M53,55v4.73c1.47,0.58,2.641,1.41,4,2.09V55H53z"/>
		</g>
		<g>
			<path style="fill:#FFF5D9;" d="M53,35.139V49h4V35.139C56.344,35.057,55.68,35,55,35S53.656,35.057,53,35.139z"/>
		</g>
		<g>
			<path style="fill:#FFF5D9;" d="M35,53c0-2.209,1.791-4,4-4h32c2.209,0,4,1.791,4,4v2H35V53z"/>
		</g>
		<g>
			<rect x="53" y="49" style="fill:#FFFFFF;" width="4" height="6"/>
		</g>
	</g>
</g>
</svg>
