<?xml version="1.0" encoding="iso-8859-1"?>
<!-- Generator: Adobe Illustrator 17.1.0, SVG Export Plug-In . SVG Version: 6.00 Build 0)  -->
<!DOCTYPE svg PUBLIC "-//W3C//DTD SVG 1.0//EN" "http://www.w3.org/TR/2001/REC-SVG-20010904/DTD/svg10.dtd">
<svg version="1.0" xmlns="http://www.w3.org/2000/svg" xmlns:xlink="http://www.w3.org/1999/xlink" x="0px" y="0px" width="110px"
	 height="110px" viewBox="0 0 110 110" style="enable-background:new 0 0 110 110;" xml:space="preserve">
<g id="Artboard" style="display:none;">
	
		<rect x="-328.5" y="-162.5" style="display:inline;fill:#808080;stroke:#000000;stroke-miterlimit:10;" width="1392" height="1369"/>
</g>
<g id="R-Multicolor">
	<circle style="fill:#32BEA6;" cx="55" cy="55" r="55"/>
	<g>
		<g>
			<path style="fill:#C9F2F8;" d="M75,31H35h-9.846c-0.871,0-1.657,0.525-1.99,1.33c-0.333,0.805-0.149,1.731,0.467,2.347
				l8.368,5.322C33.921,41.921,35,44.526,35,47.244V85c0,1.105,0.895,2,2,2h36c1.105,0,2-0.895,2-2V39c3.583,1.194,5,4.548,5,8.325
				v6.324c0,5.015,7,10.744,7,7.493V42.88C87,36.498,81.906,31,75,31z"/>
		</g>
		<g>
			<path style="fill:#FFFFFF;" d="M55,31H35h-9.846c-0.871,0-1.657,0.525-1.99,1.33c-0.333,0.805-0.149,1.731,0.467,2.348
				l8.368,5.322C33.921,41.921,35,44.526,35,47.244V85c0,1.104,0.896,2,2,2h18V31z"/>
		</g>
		<g>
			<path style="fill:#F37A10;" d="M71,81c0,1.105-0.895,2-2,2H41c-1.105,0-2-0.895-2-2V50h32V81z"/>
		</g>
		<g>
			<path style="fill:#F99134;" d="M55,50H39v31c0,1.104,0.896,2,2,2h14V50z"/>
		</g>
	</g>
</g>
<g id="Multicolor" style="display:none;">
	<g style="display:inline;">
		<g>
			<path style="fill:#C9F2F8;" d="M75,31H35h-9.846c-0.871,0-1.657,0.525-1.99,1.33c-0.333,0.805-0.149,1.731,0.467,2.347
				l8.368,5.322C33.921,41.921,35,44.526,35,47.244V85c0,1.105,0.895,2,2,2h36c1.105,0,2-0.895,2-2V39c3.583,1.194,5,4.548,5,8.325
				v6.324c0,5.015,7,10.744,7,7.493V42.88C87,36.498,81.906,31,75,31z"/>
		</g>
		<g>
			<path style="fill:#FFFFFF;" d="M55,31H35h-9.846c-0.871,0-1.657,0.525-1.99,1.33c-0.333,0.805-0.149,1.731,0.467,2.348
				l8.368,5.322C33.921,41.921,35,44.526,35,47.244V85c0,1.104,0.896,2,2,2h18V31z"/>
		</g>
		<g>
			<path style="fill:#F37A10;" d="M71,81c0,1.105-0.895,2-2,2H41c-1.105,0-2-0.895-2-2V50h32V81z"/>
		</g>
		<g>
			<path style="fill:#F99134;" d="M55,50H39v31c0,1.104,0.896,2,2,2h14V50z"/>
		</g>
	</g>
</g>
<g id="Blue" style="display:none;">
	<g style="display:inline;">
		<g>
			<path style="fill:#E1F5FA;" d="M75,31H35h-9.846c-0.871,0-1.656,0.525-1.99,1.33c-0.334,0.805-0.149,1.731,0.467,2.347L32,40
				c1.92,1.921,3,4.527,3,7.244V85c0,1.105,0.896,2,2,2h36c1.104,0,2-0.895,2-2V39c3.583,1.194,5,4.548,5,8.325v6.324
				c0,5.015,7,10.744,7,7.492V42.88C87,36.499,81.906,31,75,31z"/>
		</g>
		<g>
			<path style="fill:#FFFFFF;" d="M55,31H35h-9.846c-0.871,0-1.656,0.525-1.99,1.33c-0.334,0.805-0.149,1.731,0.467,2.348L32,40
				c1.921,1.921,3,4.527,3,7.244V85c0,1.104,0.896,2,2,2h18V31z"/>
		</g>
		<g>
			<path style="fill:#009FC7;" d="M71,81c0,1.105-0.896,2-2,2H41c-1.104,0-2-0.895-2-2V50h32V81z"/>
		</g>
		<g>
			<path style="fill:#00B7E5;" d="M55,50H39v31c0,1.104,0.896,2,2,2h14V50z"/>
		</g>
	</g>
</g>
<g id="R-Blue" style="display:none;">
	<circle style="display:inline;fill:#81D2EB;" cx="55" cy="55" r="55"/>
	<g style="display:inline;">
		<g>
			<path style="fill:#E1F5FA;" d="M75,31H35h-9.846c-0.871,0-1.656,0.525-1.99,1.33c-0.334,0.805-0.149,1.731,0.467,2.347L32,39.999
				c1.92,1.921,3,4.527,3,7.244V85c0,1.105,0.896,2,2,2h36c1.104,0,2-0.895,2-2V39c3.583,1.194,5,4.548,5,8.325v6.324
				c0,5.015,7,10.744,7,7.492V42.88C87,36.498,81.906,31,75,31z"/>
		</g>
		<g>
			<path style="fill:#FFFFFF;" d="M55,31H35h-9.846c-0.871,0-1.656,0.525-1.99,1.33c-0.334,0.805-0.149,1.731,0.467,2.348L32,39.999
				c1.921,1.921,3,4.527,3,7.244V85c0,1.104,0.896,2,2,2h18V31z"/>
		</g>
		<g>
			<path style="fill:#009FC7;" d="M71,81c0,1.105-0.896,2-2,2H41c-1.104,0-2-0.895-2-2V50h32V81z"/>
		</g>
		<g>
			<path style="fill:#00B7E5;" d="M55,50H39v31c0,1.104,0.896,2,2,2h14V50z"/>
		</g>
	</g>
</g>
<g id="Green" style="display:none;">
	<g style="display:inline;">
		<g>
			<path style="fill:#D7FCF9;" d="M75,31H35h-9.846c-0.871,0-1.656,0.525-1.99,1.33c-0.334,0.805-0.149,1.731,0.467,2.347L32,40
				c1.92,1.921,3,4.527,3,7.244V85c0,1.105,0.896,2,2,2h36c1.104,0,2-0.895,2-2V39c3.583,1.194,5,4.548,5,8.325v6.324
				c0,5.015,7,10.744,7,7.492V42.88C87,36.499,81.906,31,75,31z"/>
		</g>
		<g>
			<path style="fill:#FFFFFF;" d="M55,31H35h-9.846c-0.871,0-1.656,0.525-1.99,1.33c-0.334,0.805-0.149,1.731,0.467,2.348L32,40
				c1.921,1.921,3,4.527,3,7.244V85c0,1.104,0.896,2,2,2h18V31z"/>
		</g>
		<g>
			<path style="fill:#00B8A5;" d="M71,81c0,1.105-0.896,2-2,2H41c-1.104,0-2-0.895-2-2V50h32V81z"/>
		</g>
		<g>
			<path style="fill:#00D6C1;" d="M55,50H39v31c0,1.104,0.896,2,2,2h14V50z"/>
		</g>
	</g>
</g>
<g id="R-Green" style="display:none;">
	<circle style="display:inline;fill:#77E0C4;" cx="55" cy="55" r="55"/>
	<g style="display:inline;">
		<g>
			<path style="fill:#D7FCF9;" d="M75,31H35h-9.846c-0.871,0-1.656,0.525-1.99,1.33c-0.334,0.805-0.149,1.731,0.467,2.347L32,40
				c1.92,1.921,3,4.527,3,7.244V85c0,1.105,0.896,2,2,2h36c1.104,0,2-0.895,2-2V39c3.583,1.194,5,4.548,5,8.325v6.324
				c0,5.015,7,10.744,7,7.492V42.88C87,36.499,81.906,31,75,31z"/>
		</g>
		<g>
			<path style="fill:#FFFFFF;" d="M55,31H35h-9.846c-0.871,0-1.656,0.525-1.99,1.33c-0.334,0.805-0.149,1.731,0.467,2.348L32,40
				c1.921,1.921,3,4.527,3,7.244V85c0,1.104,0.896,2,2,2h18V31z"/>
		</g>
		<g>
			<path style="fill:#00B8A5;" d="M71,81c0,1.105-0.896,2-2,2H41c-1.104,0-2-0.895-2-2V50h32V81z"/>
		</g>
		<g>
			<path style="fill:#00D6C1;" d="M55,50H39v31c0,1.104,0.896,2,2,2h14V50z"/>
		</g>
	</g>
</g>
<g id="Red" style="display:none;">
	<g style="display:inline;">
		<g>
			<path style="fill:#FFEFED;" d="M75,31H35h-9.846c-0.871,0-1.656,0.525-1.99,1.33c-0.334,0.805-0.149,1.731,0.467,2.347L32,40
				c1.92,1.921,3,4.527,3,7.244V85c0,1.105,0.895,2,2,2h36c1.104,0,2-0.895,2-2V39c3.583,1.194,5,4.548,5,8.325v6.324
				c0,5.015,7,10.744,7,7.492V42.88C87,36.499,81.906,31,75,31z"/>
		</g>
		<g>
			<path style="fill:#FFFFFF;" d="M55,31H35h-9.846c-0.871,0-1.656,0.525-1.99,1.33c-0.334,0.805-0.149,1.731,0.467,2.348L32,40
				c1.921,1.921,3,4.527,3,7.244V85c0,1.104,0.895,2,2,2h18V31z"/>
		</g>
		<g>
			<path style="fill:#E54B44;" d="M71,81c0,1.105-0.896,2-2,2H41c-1.105,0-2-0.895-2-2V50h32V81z"/>
		</g>
		<g>
			<path style="fill:#FF6C5E;" d="M55,50H39v31c0,1.104,0.895,2,2,2h14V50z"/>
		</g>
	</g>
</g>
<g id="R-Red" style="display:none;">
	<circle style="display:inline;fill:#FABBAF;" cx="55" cy="55" r="55"/>
	<g style="display:inline;">
		<g>
			<path style="fill:#FFEFED;" d="M75,31H35h-9.846c-0.871,0-1.656,0.525-1.99,1.33c-0.334,0.805-0.149,1.731,0.467,2.347L32,40
				c1.92,1.921,3,4.527,3,7.244V85c0,1.105,0.895,2,2,2h36c1.104,0,2-0.895,2-2V39c3.583,1.194,5,4.548,5,8.325v6.324
				c0,5.015,7,10.744,7,7.492V42.88C87,36.499,81.906,31,75,31z"/>
		</g>
		<g>
			<path style="fill:#FFFFFF;" d="M55,31H35h-9.846c-0.871,0-1.656,0.525-1.99,1.33c-0.334,0.805-0.149,1.731,0.467,2.348L32,40
				c1.921,1.921,3,4.527,3,7.244V85c0,1.104,0.895,2,2,2h18V31z"/>
		</g>
		<g>
			<path style="fill:#E54B44;" d="M71,81c0,1.105-0.896,2-2,2H41c-1.105,0-2-0.895-2-2V50h32V81z"/>
		</g>
		<g>
			<path style="fill:#FF6C5E;" d="M55,50H39v31c0,1.104,0.895,2,2,2h14V50z"/>
		</g>
	</g>
</g>
<g id="Yellow" style="display:none;">
	<g style="display:inline;">
		<g>
			<path style="fill:#FFF5D9;" d="M75,31H35h-9.846c-0.871,0-1.656,0.525-1.99,1.33c-0.334,0.805-0.149,1.731,0.467,2.347L32,40
				c1.92,1.921,3,4.527,3,7.244V85c0,1.105,0.896,2,2,2h36c1.104,0,2-0.895,2-2V39c3.583,1.194,5,4.548,5,8.325v6.324
				c0,5.015,7,10.744,7,7.492V42.88C87,36.499,81.906,31,75,31z"/>
		</g>
		<g>
			<path style="fill:#FFFFFF;" d="M55,31H35h-9.846c-0.871,0-1.656,0.525-1.99,1.33c-0.334,0.805-0.149,1.731,0.467,2.348L32,40
				c1.921,1.921,3,4.527,3,7.244V85c0,1.104,0.896,2,2,2h18V31z"/>
		</g>
		<g>
			<path style="fill:#FA9200;" d="M71,81c0,1.105-0.896,2-2,2H41c-1.104,0-2-0.895-2-2V50h32V81z"/>
		</g>
		<g>
			<path style="fill:#FFAA00;" d="M55,50H39v31c0,1.104,0.896,2,2,2h14V50z"/>
		</g>
	</g>
</g>
<g id="R-Yellow" style="display:none;">
	<circle style="display:inline;fill:#FFD75E;" cx="55" cy="55" r="55"/>
	<g style="display:inline;">
		<g>
			<path style="fill:#FFF5D9;" d="M75,31H35h-9.846c-0.871,0-1.656,0.525-1.99,1.33c-0.334,0.805-0.149,1.731,0.467,2.347L32,40
				c1.92,1.921,3,4.527,3,7.244V85c0,1.105,0.896,2,2,2h36c1.104,0,2-0.895,2-2V39c3.583,1.194,5,4.548,5,8.325v6.324
				c0,5.015,7,10.744,7,7.492V42.88C87,36.499,81.906,31,75,31z"/>
		</g>
		<g>
			<path style="fill:#FFFFFF;" d="M55,31H35h-9.846c-0.871,0-1.656,0.525-1.99,1.33c-0.334,0.805-0.149,1.731,0.467,2.348L32,40
				c1.921,1.921,3,4.527,3,7.244V85c0,1.104,0.896,2,2,2h18V31z"/>
		</g>
		<g>
			<path style="fill:#FA9200;" d="M71,81c0,1.105-0.896,2-2,2H41c-1.104,0-2-0.895-2-2V50h32V81z"/>
		</g>
		<g>
			<path style="fill:#FFAA00;" d="M55,50H39v31c0,1.104,0.896,2,2,2h14V50z"/>
		</g>
	</g>
</g>
</svg>
