<?xml version="1.0" encoding="iso-8859-1"?>
<!-- Generator: Adobe Illustrator 17.1.0, SVG Export Plug-In . SVG Version: 6.00 Build 0)  -->
<!DOCTYPE svg PUBLIC "-//W3C//DTD SVG 1.0//EN" "http://www.w3.org/TR/2001/REC-SVG-20010904/DTD/svg10.dtd">
<svg version="1.0" xmlns="http://www.w3.org/2000/svg" xmlns:xlink="http://www.w3.org/1999/xlink" x="0px" y="0px" width="110px"
	 height="110px" viewBox="0 0 110 110" style="enable-background:new 0 0 110 110;" xml:space="preserve">
<g id="Artboard">
</g>
<g id="Multicolor">
	<circle style="fill:#25B7D3;" cx="55" cy="55" r="55"/>
	<g>
		<g>
			<path style="fill:#FFFFFF;" d="M84.412,58.953c0.896-0.538,1.227-1.675,0.76-2.609l-9.618-19.237
				c-0.361-0.721-0.93-1.316-1.635-1.708L66,31l-4-5H46l-4,5l-7.918,4.399c-0.705,0.391-1.275,0.987-1.635,1.708l-9.618,19.237
				c-0.467,0.935-0.136,2.072,0.76,2.609L32,62.928c0.467,0.28,1.028,0.358,1.554,0.215c0.526-0.143,0.97-0.494,1.231-0.972L38,53
				v32c0,1.105,0.895,2,2,2h14h14c1.105,0,2-0.895,2-2V53l3.215,9.171c0.261,0.478,0.705,0.829,1.231,0.972s1.087,0.065,1.554-0.215
				L84.412,58.953z"/>
		</g>
		<polygon style="fill:#E2E4E5;" points="62,26 53.398,43.311 45.958,26 42,30.839 51.15,47.834 38,74.298 38,82.735 65.942,30.839 
					"/>
		<path style="fill:#3E3E3F;" d="M69.992,60h-32v4h14.002L47,74h4.946c0.027,0,0.05-0.019,0.055-0.044
			C52.025,73.851,54,65.213,54,65.213s1.995,8.728,1.998,8.742C56.004,73.981,56.027,74,56.054,74H61l-4.994-10h13.986V60z"/>
	</g>
</g>
</svg>
