<?xml version="1.0" encoding="iso-8859-1"?>
<!-- Generator: Adobe Illustrator 17.1.0, SVG Export Plug-In . SVG Version: 6.00 Build 0)  -->
<!DOCTYPE svg PUBLIC "-//W3C//DTD SVG 1.0//EN" "http://www.w3.org/TR/2001/REC-SVG-20010904/DTD/svg10.dtd">
<svg version="1.0" xmlns="http://www.w3.org/2000/svg" xmlns:xlink="http://www.w3.org/1999/xlink" x="0px" y="0px" width="110px"
	 height="110px" viewBox="0 0 110 110" style="enable-background:new 0 0 110 110;" xml:space="preserve">
<g id="Artboard" style="display:none;">
	
		<rect x="-712.5" y="-162.5" style="display:inline;fill:#808080;stroke:#000000;stroke-miterlimit:10;" width="1392" height="1369"/>
</g>
<g id="R-Multicolor">
	<circle style="fill:#FABC3D;" cx="55" cy="55" r="55"/>
	<g>
		<g>
			<path style="fill:#FFFFFF;" d="M60.5,44c1.226,0,2.408,0.092,3.537,0.251C64.632,43.489,65,42.542,65,41.5
				c0-2.485-2.015-4.5-4.5-4.5S56,39.015,56,41.5c0,1.042,0.368,1.989,0.963,2.751C58.092,44.092,59.274,44,60.5,44z"/>
		</g>
		<g>
			<path style="fill:#E2E4E5;" d="M60.5,44C53.044,44,47,47.134,47,51h27C74,47.134,67.956,44,60.5,44z"/>
		</g>
		<g>
			<path style="fill:#3E3E3F;" d="M41,49.457v5.203c1.191-1.117,2.523-2.071,4-2.805v-2.537c0-1.502-1.09-2.804-2.471-4.451
				C40.957,42.989,39,40.653,39,38.317C39,30.888,49.816,27,60.5,27C71.184,27,82,30.888,82,38.317c0,2.336-1.957,4.672-3.529,6.549
				C77.091,46.514,76,47.815,76,49.317v2.508c1.471,0.723,2.809,1.651,4,2.752v-5.12c0.184-0.406,0.961-1.335,1.537-2.022
				C83.421,45.187,86,42.107,86,38.317C86,27.793,72.781,23,60.5,23C48.219,23,35,27.793,35,38.317c0,3.79,2.58,6.869,4.463,9.117
				C40.039,48.122,40.817,49.051,41,49.457z"/>
		</g>
		<g>
			<path style="fill:#F0F1F1;" d="M74.032,51h-27c-4.938,1.646-8.566,5.574-10.725,10.274C36,57,28.099,52,28.099,52S24,54,23,56
				c0,0,4,1,4,8c0,11.181,6.374,15.342,8.942,16.566c1.478,2.933,3.812,5.263,7.09,6.434h35C92.032,82,89.032,56,74.032,51z"/>
		</g>
		<g>
			<path style="fill:#F0F1F1;" d="M60,44.011C52.731,44.122,46.901,47.204,46.901,51H60V44.011z"/>
		</g>
		<g>
			<path style="fill:#FFFFFF;" d="M60.099,51H47.032c-4.938,1.646-8.566,5.574-10.725,10.273C36,57,28.099,52,28.099,52S24,54,23,56
				c0,0,4,1,4,8c0,11.181,6.374,15.342,8.942,16.566c1.478,2.934,3.812,5.263,7.09,6.434h17.066V51z"/>
		</g>
	</g>
</g>
<g id="Multicolor" style="display:none;">
	<g style="display:inline;">
		<g>
			<path style="fill:#FFFFFF;" d="M60.5,44c1.226,0,2.408,0.092,3.537,0.251C64.632,43.489,65,42.542,65,41.5
				c0-2.485-2.015-4.5-4.5-4.5S56,39.015,56,41.5c0,1.042,0.368,1.989,0.963,2.751C58.092,44.092,59.274,44,60.5,44z"/>
		</g>
		<g>
			<path style="fill:#E2E4E5;" d="M60.5,44C53.044,44,47,47.134,47,51h27C74,47.134,67.956,44,60.5,44z"/>
		</g>
		<g>
			<path style="fill:#3E3E3F;" d="M41,49.457v5.203c1.191-1.117,2.523-2.071,4-2.805v-2.537c0-1.502-1.09-2.804-2.471-4.451
				C40.957,42.989,39,40.653,39,38.317C39,30.888,49.816,27,60.5,27C71.184,27,82,30.888,82,38.317c0,2.336-1.957,4.672-3.529,6.549
				C77.091,46.514,76,47.815,76,49.317v2.508c1.471,0.723,2.809,1.651,4,2.752v-5.12c0.184-0.406,0.961-1.335,1.537-2.022
				C83.421,45.187,86,42.107,86,38.317C86,27.793,72.781,23,60.5,23C48.219,23,35,27.793,35,38.317c0,3.79,2.58,6.869,4.463,9.117
				C40.039,48.122,40.817,49.051,41,49.457z"/>
		</g>
		<g>
			<path style="fill:#F0F1F1;" d="M74.032,51h-27c-4.938,1.646-8.566,5.574-10.725,10.274C36,57,28.099,52,28.099,52S24,54,23,56
				c0,0,4,1,4,8c0,11.181,6.374,15.342,8.942,16.566c1.478,2.933,3.812,5.263,7.09,6.434h35C92.032,82,89.032,56,74.032,51z"/>
		</g>
		<g>
			<path style="fill:#F0F1F1;" d="M60,44.011C52.731,44.122,46.901,47.204,46.901,51H60V44.011z"/>
		</g>
		<g>
			<path style="fill:#FFFFFF;" d="M60.099,51H47.032c-4.938,1.646-8.566,5.574-10.725,10.273C36,57,28.099,52,28.099,52S24,54,23,56
				c0,0,4,1,4,8c0,11.181,6.374,15.342,8.942,16.566c1.478,2.934,3.812,5.263,7.09,6.434h17.066V51z"/>
		</g>
	</g>
</g>
<g id="Blue" style="display:none;">
	<g style="display:inline;">
		<g>
			<path style="fill:#FFFFFF;" d="M60.5,44c1.227,0,2.408,0.092,3.537,0.251C64.632,43.489,65,42.542,65,41.5
				c0-2.485-2.015-4.5-4.5-4.5S56,39.015,56,41.5c0,1.042,0.368,1.989,0.963,2.751C58.092,44.092,59.273,44,60.5,44z"/>
		</g>
		<g>
			<path style="fill:#BBE7F2;" d="M60.5,44C53.044,44,47,47.134,47,51h27C74,47.134,67.956,44,60.5,44z"/>
		</g>
		<g>
			<path style="fill:#0C333D;" d="M41,49.457v5.203c1.191-1.117,2.523-2.071,4-2.805v-2.537c0-1.502-1.09-2.804-2.471-4.451
				C40.957,42.989,39,40.653,39,38.317C39,30.888,49.816,27,60.5,27C71.185,27,82,30.888,82,38.317c0,2.336-1.957,4.672-3.529,6.549
				C77.091,46.514,76,47.815,76,49.317v2.508c1.471,0.723,2.81,1.651,4,2.752v-5.121c0.184-0.406,0.962-1.334,1.537-2.022
				C83.421,45.187,86,42.107,86,38.317C86,27.793,72.781,23,60.5,23C48.219,23,35,27.793,35,38.317c0,3.79,2.58,6.869,4.463,9.117
				C40.039,48.122,40.816,49.051,41,49.457z"/>
		</g>
		<g>
			<path style="fill:#E1F5FA;" d="M74.032,51h-27c-4.938,1.646-8.566,5.574-10.725,10.274C36,57,28.099,52,28.099,52S24,54,23,56
				c0,0,4,1,4,8c0,11.181,6.374,15.342,8.942,16.566c1.479,2.934,3.812,5.263,7.09,6.434h35C92.032,82,89.032,56,74.032,51z"/>
		</g>
		<g>
			<path style="fill:#E1F5FA;" d="M60,44.011C52.731,44.122,46.901,47.204,46.901,51H60V44.011z"/>
		</g>
		<g>
			<path style="fill:#FFFFFF;" d="M60.099,51H47.032c-4.938,1.646-8.566,5.574-10.725,10.273C36,57,28.099,52,28.099,52S24,54,23,56
				c0,0,4,1,4,8c0,11.181,6.374,15.342,8.942,16.566c1.479,2.934,3.812,5.263,7.09,6.434h17.066V51z"/>
		</g>
	</g>
</g>
<g id="R-Blue" style="display:none;">
	<circle style="display:inline;fill:#81D2EB;" cx="55" cy="55" r="55"/>
	<g style="display:inline;">
		<g>
			<path style="fill:#FFFFFF;" d="M60.5,44c1.227,0,2.408,0.092,3.537,0.251C64.632,43.489,65,42.541,65,41.5
				c0-2.485-2.015-4.5-4.5-4.5S56,39.015,56,41.5c0,1.042,0.368,1.989,0.963,2.751C58.092,44.092,59.273,44,60.5,44z"/>
		</g>
		<g>
			<path style="fill:#BBE7F2;" d="M60.5,44C53.044,44,47,47.134,47,51h27C74,47.134,67.956,44,60.5,44z"/>
		</g>
		<g>
			<path style="fill:#0C333D;" d="M41,49.456v5.203c1.191-1.117,2.523-2.071,4-2.805v-2.537c0-1.502-1.09-2.804-2.471-4.451
				C40.957,42.989,39,40.653,39,38.317C39,30.888,49.816,27,60.5,27C71.185,27,82,30.888,82,38.317c0,2.336-1.957,4.672-3.529,6.549
				C77.091,46.514,76,47.815,76,49.317v2.508c1.471,0.723,2.81,1.651,4,2.752v-5.121c0.184-0.406,0.962-1.334,1.537-2.022
				C83.421,45.186,86,42.107,86,38.317C86,27.793,72.781,23,60.5,23C48.219,23,35,27.793,35,38.317c0,3.79,2.58,6.869,4.463,9.117
				C40.039,48.122,40.816,49.051,41,49.456z"/>
		</g>
		<g>
			<path style="fill:#E1F5FA;" d="M74.032,51h-27c-4.938,1.646-8.566,5.574-10.725,10.274C36,57,28.099,52,28.099,52S24,54,23,56
				c0,0,4,1,4,8c0,11.181,6.374,15.342,8.942,16.566c1.479,2.934,3.812,5.263,7.09,6.434h35C92.032,82,89.032,56,74.032,51z"/>
		</g>
		<g>
			<path style="fill:#E1F5FA;" d="M60,44.011C52.731,44.122,46.901,47.204,46.901,51H60V44.011z"/>
		</g>
		<g>
			<path style="fill:#FFFFFF;" d="M60.099,51H47.032c-4.938,1.646-8.566,5.574-10.725,10.273C36,57,28.099,52,28.099,52S24,54,23,56
				c0,0,4,1,4,8c0,11.181,6.374,15.342,8.942,16.566c1.479,2.934,3.812,5.263,7.09,6.434h17.066V51z"/>
		</g>
	</g>
</g>
<g id="Green" style="display:none;">
	<g style="display:inline;">
		<g>
			<path style="fill:#FFFFFF;" d="M60.5,44c1.227,0,2.408,0.092,3.537,0.251C64.632,43.489,65,42.542,65,41.5
				c0-2.485-2.015-4.5-4.5-4.5S56,39.015,56,41.5c0,1.042,0.368,1.989,0.963,2.751C58.092,44.092,59.273,44,60.5,44z"/>
		</g>
		<g>
			<path style="fill:#AAF0E9;" d="M60.5,44C53.044,44,47,47.134,47,51h27C74,47.134,67.956,44,60.5,44z"/>
		</g>
		<g>
			<path style="fill:#0A3631;" d="M41,49.457v5.203c1.191-1.117,2.523-2.071,4-2.805v-2.537c0-1.502-1.09-2.804-2.471-4.451
				C40.957,42.989,39,40.653,39,38.317C39,30.888,49.816,27,60.5,27C71.185,27,82,30.888,82,38.317c0,2.336-1.957,4.672-3.529,6.549
				C77.091,46.514,76,47.815,76,49.317v2.508c1.471,0.723,2.81,1.651,4,2.752v-5.121c0.184-0.406,0.962-1.334,1.537-2.022
				C83.421,45.187,86,42.107,86,38.317C86,27.793,72.781,23,60.5,23C48.219,23,35,27.793,35,38.317c0,3.79,2.58,6.869,4.463,9.117
				C40.039,48.122,40.816,49.051,41,49.457z"/>
		</g>
		<g>
			<path style="fill:#D7FCF9;" d="M74.032,51h-27c-4.938,1.646-8.566,5.574-10.725,10.274C36,57,28.099,52,28.099,52S24,54,23,56
				c0,0,4,1,4,8c0,11.181,6.374,15.342,8.942,16.566c1.479,2.934,3.812,5.263,7.09,6.434h35C92.032,82,89.032,56,74.032,51z"/>
		</g>
		<g>
			<path style="fill:#D7FCF9;" d="M60,44.011C52.731,44.122,46.901,47.204,46.901,51H60V44.011z"/>
		</g>
		<g>
			<path style="fill:#FFFFFF;" d="M60.099,51H47.032c-4.938,1.646-8.566,5.574-10.725,10.273C36,57,28.099,52,28.099,52S24,54,23,56
				c0,0,4,1,4,8c0,11.181,6.374,15.342,8.942,16.566c1.479,2.934,3.812,5.263,7.09,6.434h17.066V51z"/>
		</g>
	</g>
</g>
<g id="R-Green" style="display:none;">
	<circle style="display:inline;fill:#77E0C4;" cx="55" cy="55" r="55"/>
	<g style="display:inline;">
		<g>
			<path style="fill:#FFFFFF;" d="M60.5,44c1.227,0,2.408,0.092,3.537,0.251C64.632,43.489,65,42.542,65,41.5
				c0-2.485-2.015-4.5-4.5-4.5S56,39.015,56,41.5c0,1.042,0.368,1.989,0.963,2.751C58.092,44.092,59.273,44,60.5,44z"/>
		</g>
		<g>
			<path style="fill:#AAF0E9;" d="M60.5,44C53.044,44,47,47.134,47,51h27C74,47.134,67.956,44,60.5,44z"/>
		</g>
		<g>
			<path style="fill:#0A3631;" d="M41,49.457v5.203c1.191-1.117,2.523-2.071,4-2.805v-2.537c0-1.502-1.09-2.804-2.471-4.451
				C40.957,42.989,39,40.653,39,38.317C39,30.888,49.816,27,60.5,27C71.185,27,82,30.888,82,38.317c0,2.336-1.957,4.672-3.529,6.549
				C77.091,46.514,76,47.815,76,49.317v2.508c1.471,0.723,2.81,1.651,4,2.752v-5.121c0.184-0.406,0.962-1.334,1.537-2.022
				C83.421,45.187,86,42.107,86,38.317C86,27.793,72.781,23,60.5,23C48.219,23,35,27.793,35,38.317c0,3.79,2.58,6.869,4.463,9.117
				C40.039,48.122,40.816,49.051,41,49.457z"/>
		</g>
		<g>
			<path style="fill:#D7FCF9;" d="M74.032,51h-27c-4.938,1.646-8.566,5.574-10.725,10.274C36,57,28.099,52,28.099,52S24,54,23,56
				c0,0,4,1,4,8c0,11.181,6.374,15.342,8.942,16.566c1.479,2.934,3.812,5.263,7.09,6.434h35C92.032,82,89.032,56,74.032,51z"/>
		</g>
		<g>
			<path style="fill:#D7FCF9;" d="M60,44.011C52.731,44.122,46.901,47.204,46.901,51H60V44.011z"/>
		</g>
		<g>
			<path style="fill:#FFFFFF;" d="M60.099,51H47.032c-4.938,1.646-8.566,5.574-10.725,10.273C36,57,28.099,52,28.099,52S24,54,23,56
				c0,0,4,1,4,8c0,11.181,6.374,15.342,8.942,16.566c1.479,2.934,3.812,5.263,7.09,6.434h17.066V51z"/>
		</g>
	</g>
</g>
<g id="Red" style="display:none;">
	<g style="display:inline;">
		<g>
			<path style="fill:#FFFFFF;" d="M60.5,44c1.227,0,2.408,0.092,3.537,0.251C64.632,43.489,65,42.542,65,41.5
				c0-2.485-2.015-4.5-4.5-4.5c-2.485,0-4.5,2.015-4.5,4.5c0,1.042,0.368,1.989,0.963,2.751C58.092,44.092,59.273,44,60.5,44z"/>
		</g>
		<g>
			<path style="fill:#FFD7D4;" d="M60.5,44C53.044,44,47,47.134,47,51h27C74,47.134,67.956,44,60.5,44z"/>
		</g>
		<g>
			<path style="fill:#4A1410;" d="M41,49.457v5.203c1.191-1.117,2.523-2.071,4-2.805v-2.537c0-1.502-1.09-2.804-2.471-4.451
				C40.957,42.989,39,40.653,39,38.317C39,30.888,49.816,27,60.5,27C71.185,27,82,30.888,82,38.317c0,2.336-1.957,4.672-3.529,6.549
				C77.091,46.514,76,47.815,76,49.317v2.508c1.471,0.723,2.81,1.651,4,2.752v-5.121c0.184-0.406,0.962-1.334,1.537-2.022
				C83.421,45.187,86,42.107,86,38.317C86,27.793,72.781,23,60.5,23C48.219,23,35,27.793,35,38.317c0,3.79,2.58,6.869,4.463,9.117
				C40.039,48.122,40.816,49.051,41,49.457z"/>
		</g>
		<g>
			<path style="fill:#FFEFED;" d="M74.032,51h-27c-4.938,1.647-8.566,5.574-10.725,10.274C36,57,28.099,52,28.099,52S24,54,23,56
				c0,0,4,1,4,8c0,11.181,6.374,15.342,8.942,16.566c1.479,2.934,3.812,5.263,7.09,6.434h35C92.032,82,89.032,56,74.032,51z"/>
		</g>
		<g>
			<path style="fill:#FFEFED;" d="M60,44.011C52.731,44.122,46.901,47.204,46.901,51H60V44.011z"/>
		</g>
		<g>
			<path style="fill:#FFFFFF;" d="M60.099,51H47.032c-4.938,1.647-8.566,5.574-10.725,10.273C36,57,28.099,52,28.099,52S24,54,23,56
				c0,0,4,1,4,8c0,11.181,6.374,15.342,8.942,16.566c1.479,2.934,3.812,5.263,7.09,6.434h17.066V51z"/>
		</g>
	</g>
</g>
<g id="R-Red" style="display:none;">
	<circle style="display:inline;fill:#FABBAF;" cx="55" cy="55" r="55"/>
	<g style="display:inline;">
		<g>
			<path style="fill:#FFFFFF;" d="M60.5,44c1.227,0,2.408,0.092,3.537,0.251C64.632,43.489,65,42.542,65,41.5
				c0-2.485-2.015-4.5-4.5-4.5c-2.485,0-4.5,2.015-4.5,4.5c0,1.042,0.368,1.989,0.963,2.751C58.092,44.092,59.273,44,60.5,44z"/>
		</g>
		<g>
			<path style="fill:#FFD7D4;" d="M60.5,44C53.044,44,47,47.134,47,51h27C74,47.134,67.956,44,60.5,44z"/>
		</g>
		<g>
			<path style="fill:#4A1410;" d="M41,49.457v5.203c1.191-1.117,2.523-2.071,4-2.805v-2.537c0-1.502-1.09-2.804-2.471-4.451
				C40.957,42.989,39,40.653,39,38.317C39,30.888,49.816,27,60.5,27C71.185,27,82,30.888,82,38.317c0,2.336-1.957,4.672-3.529,6.549
				C77.091,46.514,76,47.815,76,49.317v2.508c1.471,0.723,2.81,1.651,4,2.752v-5.121c0.184-0.406,0.962-1.334,1.537-2.022
				C83.421,45.187,86,42.107,86,38.317C86,27.793,72.781,23,60.5,23C48.219,23,35,27.793,35,38.317c0,3.79,2.58,6.869,4.463,9.117
				C40.039,48.122,40.816,49.051,41,49.457z"/>
		</g>
		<g>
			<path style="fill:#FFEFED;" d="M74.032,51h-27c-4.938,1.647-8.566,5.574-10.725,10.274C36,57,28.099,52,28.099,52S24,54,23,56
				c0,0,4,1,4,8c0,11.181,6.374,15.342,8.942,16.566c1.479,2.934,3.812,5.263,7.09,6.434h35C92.032,82,89.032,56,74.032,51z"/>
		</g>
		<g>
			<path style="fill:#FFEFED;" d="M60,44.011C52.731,44.122,46.901,47.204,46.901,51H60V44.011z"/>
		</g>
		<g>
			<path style="fill:#FFFFFF;" d="M60.099,51H47.032c-4.938,1.647-8.566,5.574-10.725,10.273C36,57,28.099,52,28.099,52S24,54,23,56
				c0,0,4,1,4,8c0,11.181,6.374,15.342,8.942,16.566c1.479,2.934,3.812,5.263,7.09,6.434h17.066V51z"/>
		</g>
	</g>
</g>
<g id="Yellow" style="display:none;">
	<g style="display:inline;">
		<g>
			<path style="fill:#FFFFFF;" d="M60.5,44c1.227,0,2.408,0.092,3.537,0.251C64.632,43.489,65,42.542,65,41.5
				c0-2.485-2.015-4.5-4.5-4.5S56,39.015,56,41.5c0,1.042,0.368,1.989,0.963,2.751C58.092,44.092,59.273,44,60.5,44z"/>
		</g>
		<g>
			<path style="fill:#FFE9A1;" d="M60.5,44C53.044,44,47,47.134,47,51h27C74,47.134,67.956,44,60.5,44z"/>
		</g>
		<g>
			<path style="fill:#3D320C;" d="M41,49.457v5.203c1.191-1.117,2.523-2.071,4-2.805v-2.537c0-1.502-1.09-2.804-2.471-4.451
				C40.957,42.989,39,40.653,39,38.317C39,30.888,49.816,27,60.5,27C71.185,27,82,30.888,82,38.317c0,2.336-1.957,4.672-3.529,6.549
				C77.091,46.514,76,47.815,76,49.317v2.508c1.471,0.723,2.81,1.651,4,2.752v-5.121c0.184-0.406,0.962-1.334,1.537-2.022
				C83.421,45.187,86,42.107,86,38.317C86,27.793,72.781,23,60.5,23C48.219,23,35,27.793,35,38.317c0,3.79,2.58,6.869,4.463,9.117
				C40.039,48.122,40.816,49.051,41,49.457z"/>
		</g>
		<g>
			<path style="fill:#FFF5D9;" d="M74.032,51h-27c-4.938,1.646-8.566,5.574-10.725,10.274C36,57,28.099,52,28.099,52S24,54,23,56
				c0,0,4,1,4,8c0,11.181,6.374,15.342,8.942,16.566c1.479,2.934,3.812,5.263,7.09,6.434h35C92.032,82,89.032,56,74.032,51z"/>
		</g>
		<g>
			<path style="fill:#FFF5D9;" d="M60,44.011C52.731,44.122,46.901,47.204,46.901,51H60V44.011z"/>
		</g>
		<g>
			<path style="fill:#FFFFFF;" d="M60.099,51H47.032c-4.938,1.646-8.566,5.574-10.725,10.273C36,57,28.099,52,28.099,52S24,54,23,56
				c0,0,4,1,4,8c0,11.181,6.374,15.342,8.942,16.566c1.479,2.934,3.812,5.263,7.09,6.434h17.066V51z"/>
		</g>
	</g>
</g>
<g id="R-Yellow" style="display:none;">
	<circle style="display:inline;fill:#FFD75E;" cx="55" cy="55" r="55"/>
	<g style="display:inline;">
		<g>
			<path style="fill:#FFFFFF;" d="M60.5,44c1.227,0,2.408,0.092,3.537,0.251C64.632,43.489,65,42.542,65,41.5
				c0-2.485-2.015-4.5-4.5-4.5S56,39.015,56,41.5c0,1.042,0.368,1.989,0.963,2.751C58.092,44.092,59.273,44,60.5,44z"/>
		</g>
		<g>
			<path style="fill:#FFE9A1;" d="M60.5,44C53.044,44,47,47.134,47,51h27C74,47.134,67.956,44,60.5,44z"/>
		</g>
		<g>
			<path style="fill:#3D320C;" d="M41,49.457v5.203c1.191-1.117,2.523-2.071,4-2.805v-2.537c0-1.502-1.09-2.804-2.471-4.451
				C40.957,42.989,39,40.653,39,38.317C39,30.888,49.816,27,60.5,27C71.185,27,82,30.888,82,38.317c0,2.336-1.957,4.672-3.529,6.549
				C77.091,46.514,76,47.815,76,49.317v2.508c1.471,0.723,2.81,1.651,4,2.752v-5.121c0.184-0.406,0.962-1.334,1.537-2.022
				C83.421,45.187,86,42.107,86,38.317C86,27.793,72.781,23,60.5,23C48.219,23,35,27.793,35,38.317c0,3.79,2.58,6.869,4.463,9.117
				C40.039,48.122,40.816,49.051,41,49.457z"/>
		</g>
		<g>
			<path style="fill:#FFF5D9;" d="M74.032,51h-27c-4.938,1.646-8.566,5.574-10.725,10.274C36,57,28.099,52,28.099,52S24,54,23,56
				c0,0,4,1,4,8c0,11.181,6.374,15.342,8.942,16.566c1.479,2.934,3.812,5.263,7.09,6.434h35C92.032,82,89.032,56,74.032,51z"/>
		</g>
		<g>
			<path style="fill:#FFF5D9;" d="M60,44.011C52.731,44.122,46.901,47.204,46.901,51H60V44.011z"/>
		</g>
		<g>
			<path style="fill:#FFFFFF;" d="M60.099,51H47.032c-4.938,1.646-8.566,5.574-10.725,10.273C36,57,28.099,52,28.099,52S24,54,23,56
				c0,0,4,1,4,8c0,11.181,6.374,15.342,8.942,16.566c1.479,2.934,3.812,5.263,7.09,6.434h17.066V51z"/>
		</g>
	</g>
</g>
</svg>
