<?xml version="1.0" encoding="iso-8859-1"?>
<!-- Generator: Adobe Illustrator 17.1.0, SVG Export Plug-In . SVG Version: 6.00 Build 0)  -->
<!DOCTYPE svg PUBLIC "-//W3C//DTD SVG 1.0//EN" "http://www.w3.org/TR/2001/REC-SVG-20010904/DTD/svg10.dtd">
<svg version="1.0" xmlns="http://www.w3.org/2000/svg" xmlns:xlink="http://www.w3.org/1999/xlink" x="0px" y="0px" width="110px"
	 height="110px" viewBox="0 0 110 110" style="enable-background:new 0 0 110 110;" xml:space="preserve">
<g id="Artboard">
</g>
<g id="Multicolor">
	<circle style="fill:#25B7D3;" cx="55" cy="55" r="55"/>
	<g>
		<path style="fill:#84462D;" d="M83,49H27V29c0-1.105,0.895-2,2-2h52c1.105,0,2,0.895,2,2V49z"/>
		<path style="fill:#9C6144;" d="M49.234,49l22-22H29c-1.104,0-2,0.896-2,2v20H49.234z"/>
		<path style="fill:#FFFFFF;" d="M83,83c0,1.105-0.895,2-2,2H29c-1.105,0-2-0.895-2-2V49h56V83z"/>
		<path style="fill:#17B198;" d="M71,41c0,1.105-0.895,2-2,2H53c-1.105,0-2-0.895-2-2v-8c0-1.105,0.895-2,2-2h16
			c1.105,0,2,0.895,2,2V41z"/>
		<circle style="fill:#F0F1F1;" cx="77" cy="33" r="2"/>
		<circle style="fill:#F0F1F1;" cx="77" cy="41" r="2"/>
		<path style="fill:#FFFFFF;" d="M39,34c0,0.552-0.448,1-1,1h-6c-0.552,0-1-0.448-1-1v-2c0-0.552,0.448-1,1-1h6c0.552,0,1,0.448,1,1
			V34z"/>
		<path style="fill:#FFFFFF;" d="M39,42c0,0.552-0.448,1-1,1h-6c-0.552,0-1-0.448-1-1v-2c0-0.552,0.448-1,1-1h6c0.552,0,1,0.448,1,1
			V42z"/>
		<path style="fill:#FACB1B;" d="M47,41c0,1.105-0.895,2-2,2s-2-0.895-2-2v-8c0-1.105,0.895-2,2-2s2,0.895,2,2V41z"/>
		<path style="fill:#FA5655;" d="M47,37v-4c0-1.104-0.896-2-2-2s-2,0.896-2,2v4H47z"/>
		<polygon style="fill:#3E3E3F;" points="73.999,49 67.999,49 67.999,75 70,75 70,85 72,85 72,75 73.999,75 		"/>
		<polygon style="fill:#3E3E3F;" points="57.999,49 51.999,49 51.999,75 54,75 54,85 56,85 56,75 57.999,75 		"/>
		<polygon style="fill:#3E3E3F;" points="41.999,49 35.999,49 35.999,75 38,75 38,85 40,85 40,75 41.999,75 		"/>
		<path style="fill:#4AC3AF;" d="M53,31c-1.104,0-2,0.896-2,2v8c0,1.104,0.896,2,2,2h2.234l12-12H53z"/>
	</g>
</g>
</svg>
