<?xml version="1.0" encoding="iso-8859-1"?>
<!-- Generator: Adobe Illustrator 17.1.0, SVG Export Plug-In . SVG Version: 6.00 Build 0)  -->
<!DOCTYPE svg PUBLIC "-//W3C//DTD SVG 1.0//EN" "http://www.w3.org/TR/2001/REC-SVG-20010904/DTD/svg10.dtd">
<svg version="1.0" xmlns="http://www.w3.org/2000/svg" xmlns:xlink="http://www.w3.org/1999/xlink" x="0px" y="0px" width="110px"
	 height="110px" viewBox="0 0 110 110" style="enable-background:new 0 0 110 110;" xml:space="preserve">
<g id="Artboard" style="display:none;">
	
		<rect x="-328.5" y="-930.5" style="display:inline;fill:#808080;stroke:#000000;stroke-miterlimit:10;" width="1392" height="1369"/>
</g>
<g id="R-Multicolor">
	<circle style="fill:#32BEA6;" cx="55" cy="55" r="55"/>
	<g>
		<g>
			<path style="fill:#E2E4E5;" d="M23,82.509c10.94,8.959,28.416,4.233,48.001-15.81L59.627,55.445l2.813-2.843l-4.976-4.924
				L23,82.509z"/>
		</g>
		<g>
			<path style="fill:#84462D;" d="M74.715,28.813l-17.96,18.162l7.108,7.034l13.051-13.201c1.685-1.703,4.188-2.308,6.465-1.563
				l0.535,0.175c3.941-3.983,3.201-8.087,0.602-10.659C81.795,26.069,77.407,26.092,74.715,28.813z M78.212,30.965
				c0.777-0.785,2.043-0.792,2.828-0.015c0.785,0.777,0.792,2.043,0.015,2.828s-2.043,0.792-2.828,0.015S77.435,31.75,78.212,30.965
				z"/>
		</g>
		<g>
			<path style="fill:#FFFFFF;" d="M68.868,64.589c0,0-27.424,29.136-45.868,17.92c16.334,13.349,38.857-6.569,48.001-15.81
				L68.868,64.589z"/>
		</g>
		<g>
			<path style="fill:#9C6144;" d="M74.715,28.813l-17.96,18.162l3.93,3.889l17.329-17.329c-0.56-0.778-0.498-1.866,0.198-2.57
				c0.701-0.709,1.799-0.777,2.584-0.212l2.77-2.77C80.854,26.112,77.113,26.389,74.715,28.813z"/>
		</g>
	</g>
</g>
<g id="Multicolor" style="display:none;">
	<g style="display:inline;">
		<g>
			<path style="fill:#E2E4E5;" d="M23,82.509c10.94,8.959,28.416,4.233,48.001-15.81L59.627,55.445l2.813-2.843l-4.976-4.924
				L23,82.509z"/>
		</g>
		<g>
			<path style="fill:#84462D;" d="M74.715,28.813l-17.96,18.162l7.108,7.034l13.051-13.201c1.685-1.703,4.188-2.308,6.465-1.563
				l0.535,0.175c3.941-3.983,3.201-8.087,0.602-10.659C81.795,26.069,77.407,26.092,74.715,28.813z M78.212,30.965
				c0.777-0.785,2.043-0.792,2.828-0.015c0.785,0.777,0.792,2.043,0.015,2.828s-2.043,0.792-2.828,0.015S77.435,31.75,78.212,30.965
				z"/>
		</g>
		<g>
			<path style="fill:#FFFFFF;" d="M68.868,64.589c0,0-27.424,29.136-45.868,17.92c16.334,13.349,38.857-6.569,48.001-15.81
				L68.868,64.589z"/>
		</g>
		<g>
			<path style="fill:#9C6144;" d="M74.715,28.813l-17.96,18.162l3.93,3.889l17.329-17.329c-0.56-0.778-0.498-1.866,0.198-2.57
				c0.701-0.709,1.799-0.777,2.584-0.212l2.77-2.77C80.854,26.112,77.113,26.389,74.715,28.813z"/>
		</g>
	</g>
</g>
<g id="Blue" style="display:none;">
	<g style="display:inline;">
		<g>
			<path style="fill:#BBE7F2;" d="M23,82.509c10.939,8.959,28.416,4.233,48-15.81L59.627,55.445l2.814-2.843l-4.977-4.924L23,82.509
				z"/>
		</g>
		<g>
			<path style="fill:#0C333D;" d="M74.715,28.812L56.754,46.975l7.108,7.034l13.052-13.201c1.685-1.703,4.188-2.308,6.465-1.562
				l0.535,0.175c3.941-3.984,3.201-8.087,0.602-10.66C81.795,26.069,77.406,26.092,74.715,28.812z M78.212,30.965
				c0.776-0.785,2.044-0.792,2.829-0.015c0.785,0.777,0.791,2.043,0.015,2.828c-0.776,0.785-2.044,0.792-2.829,0.015
				C77.441,33.017,77.436,31.75,78.212,30.965z"/>
		</g>
		<g>
			<path style="fill:#FFFFFF;" d="M68.867,64.589c0,0-27.423,29.137-45.867,17.92c16.334,13.349,38.857-6.569,48-15.81
				L68.867,64.589z"/>
		</g>
		<g>
			<path style="fill:#0F6175;" d="M74.715,28.812L56.754,46.975l3.931,3.889l17.329-17.33c-0.56-0.778-0.498-1.866,0.199-2.57
				c0.701-0.709,1.799-0.777,2.583-0.212l2.771-2.77C80.854,26.112,77.113,26.389,74.715,28.812z"/>
		</g>
	</g>
</g>
<g id="R-Blue" style="display:none;">
	<circle style="display:inline;fill:#81D2EB;" cx="55" cy="55" r="55"/>
	<g style="display:inline;">
		<g>
			<path style="fill:#BBE7F2;" d="M23,82.509c10.939,8.959,28.416,4.233,48-15.81L59.627,55.445l2.814-2.843l-4.977-4.924L23,82.509
				z"/>
		</g>
		<g>
			<path style="fill:#0C333D;" d="M74.715,28.812L56.754,46.975l7.108,7.034l13.052-13.201c1.685-1.703,4.188-2.308,6.465-1.562
				l0.535,0.175c3.941-3.984,3.201-8.087,0.602-10.66C81.795,26.069,77.406,26.092,74.715,28.812z M78.212,30.965
				c0.776-0.785,2.044-0.792,2.829-0.015c0.785,0.777,0.791,2.043,0.015,2.828c-0.776,0.785-2.044,0.792-2.829,0.015
				C77.441,33.017,77.436,31.75,78.212,30.965z"/>
		</g>
		<g>
			<path style="fill:#FFFFFF;" d="M68.867,64.589c0,0-27.423,29.137-45.867,17.92c16.334,13.349,38.857-6.569,48-15.81
				L68.867,64.589z"/>
		</g>
		<g>
			<path style="fill:#0F6175;" d="M74.715,28.812L56.754,46.975l3.931,3.889l17.329-17.33c-0.56-0.778-0.498-1.866,0.199-2.57
				c0.701-0.709,1.799-0.777,2.583-0.212l2.771-2.77C80.854,26.112,77.113,26.389,74.715,28.812z"/>
		</g>
	</g>
</g>
<g id="Green" style="display:none;">
	<g style="display:inline;">
		<g>
			<path style="fill:#AAF0E9;" d="M23,82.509c10.939,8.959,28.416,4.233,48-15.81L59.627,55.445l2.814-2.843l-4.977-4.924L23,82.509
				z"/>
		</g>
		<g>
			<path style="fill:#0A3631;" d="M74.715,28.812L56.754,46.975l7.108,7.034l13.052-13.201c1.684-1.703,4.188-2.308,6.465-1.562
				l0.535,0.175c3.941-3.984,3.201-8.087,0.601-10.66C81.795,26.069,77.406,26.092,74.715,28.812z M78.212,30.965
				c0.776-0.785,2.044-0.792,2.829-0.015c0.785,0.777,0.791,2.043,0.015,2.828c-0.776,0.785-2.044,0.792-2.829,0.015
				C77.441,33.017,77.435,31.75,78.212,30.965z"/>
		</g>
		<g>
			<path style="fill:#FFFFFF;" d="M68.867,64.589c0,0-27.423,29.137-45.867,17.92c16.334,13.349,38.857-6.569,48-15.81
				L68.867,64.589z"/>
		</g>
		<g>
			<path style="fill:#14635B;" d="M74.715,28.812L56.754,46.975l3.931,3.889l17.329-17.33c-0.56-0.778-0.498-1.866,0.199-2.57
				c0.701-0.709,1.799-0.777,2.583-0.212l2.771-2.77C80.854,26.112,77.113,26.389,74.715,28.812z"/>
		</g>
	</g>
</g>
<g id="R-Green" style="display:none;">
	<circle style="display:inline;fill:#77E0C4;" cx="55" cy="55" r="55"/>
	<g style="display:inline;">
		<g>
			<path style="fill:#AAF0E9;" d="M23,82.509c10.939,8.959,28.416,4.233,48-15.81L59.627,55.445l2.814-2.843l-4.977-4.924L23,82.509
				z"/>
		</g>
		<g>
			<path style="fill:#0A3631;" d="M74.715,28.812L56.754,46.975l7.108,7.034l13.052-13.201c1.685-1.703,4.188-2.308,6.465-1.562
				l0.535,0.175c3.941-3.984,3.201-8.087,0.602-10.66C81.795,26.069,77.406,26.092,74.715,28.812z M78.212,30.965
				c0.776-0.785,2.044-0.792,2.829-0.015c0.785,0.777,0.791,2.043,0.015,2.828c-0.776,0.785-2.044,0.792-2.829,0.015
				C77.441,33.017,77.436,31.75,78.212,30.965z"/>
		</g>
		<g>
			<path style="fill:#FFFFFF;" d="M68.867,64.589c0,0-27.423,29.137-45.867,17.92c16.334,13.349,38.857-6.569,48-15.81
				L68.867,64.589z"/>
		</g>
		<g>
			<path style="fill:#14635B;" d="M74.715,28.812L56.754,46.975l3.931,3.889l17.329-17.33c-0.56-0.778-0.498-1.866,0.199-2.57
				c0.701-0.709,1.799-0.777,2.583-0.212l2.771-2.77C80.854,26.112,77.113,26.389,74.715,28.812z"/>
		</g>
	</g>
</g>
<g id="Red" style="display:none;">
	<g style="display:inline;">
		<g>
			<path style="fill:#FFD7D4;" d="M23,82.509c10.939,8.959,28.416,4.233,48-15.81L59.627,55.445l2.814-2.843l-4.977-4.924L23,82.509
				z"/>
		</g>
		<g>
			<path style="fill:#4A1410;" d="M74.715,28.812L56.754,46.975l7.108,7.034l13.052-13.201c1.685-1.703,4.188-2.308,6.465-1.562
				l0.535,0.175c3.941-3.984,3.201-8.087,0.602-10.66C81.795,26.069,77.406,26.092,74.715,28.812z M78.212,30.965
				c0.776-0.785,2.044-0.792,2.829-0.015c0.785,0.777,0.791,2.043,0.015,2.828c-0.776,0.785-2.044,0.792-2.829,0.015
				C77.441,33.017,77.435,31.75,78.212,30.965z"/>
		</g>
		<g>
			<path style="fill:#FFFFFF;" d="M68.867,64.589c0,0-27.423,29.137-45.867,17.92c16.334,13.349,38.857-6.569,48-15.81
				L68.867,64.589z"/>
		</g>
		<g>
			<path style="fill:#7D261E;" d="M74.715,28.812L56.754,46.975l3.931,3.889l17.329-17.33c-0.56-0.778-0.498-1.866,0.199-2.57
				c0.701-0.709,1.799-0.777,2.583-0.212l2.771-2.77C80.853,26.112,77.113,26.389,74.715,28.812z"/>
		</g>
	</g>
</g>
<g id="R-Red" style="display:none;">
	<circle style="display:inline;fill:#FABBAF;" cx="55" cy="55" r="55"/>
	<g style="display:inline;">
		<g>
			<path style="fill:#FFD7D4;" d="M23,82.509c10.939,8.959,28.416,4.233,48-15.81L59.627,55.445l2.814-2.843l-4.977-4.924L23,82.509
				z"/>
		</g>
		<g>
			<path style="fill:#4A1410;" d="M74.715,28.812L56.754,46.975l7.108,7.034l13.052-13.201c1.685-1.703,4.188-2.308,6.465-1.562
				l0.535,0.175c3.941-3.984,3.201-8.087,0.602-10.66C81.795,26.069,77.406,26.092,74.715,28.812z M78.212,30.965
				c0.776-0.785,2.044-0.792,2.829-0.015c0.785,0.777,0.791,2.043,0.015,2.828c-0.776,0.785-2.044,0.792-2.829,0.015
				C77.441,33.017,77.435,31.75,78.212,30.965z"/>
		</g>
		<g>
			<path style="fill:#FFFFFF;" d="M68.867,64.589c0,0-27.423,29.137-45.867,17.92c16.334,13.349,38.857-6.569,48-15.81
				L68.867,64.589z"/>
		</g>
		<g>
			<path style="fill:#7D261E;" d="M74.715,28.812L56.754,46.975l3.931,3.889l17.329-17.33c-0.56-0.778-0.498-1.866,0.199-2.57
				c0.701-0.709,1.799-0.777,2.583-0.212l2.771-2.77C80.853,26.112,77.113,26.389,74.715,28.812z"/>
		</g>
	</g>
</g>
<g id="Yellow" style="display:none;">
	<g style="display:inline;">
		<g>
			<path style="fill:#FFE9A1;" d="M23,82.509c10.939,8.959,28.416,4.233,48-15.81L59.627,55.445l2.814-2.843l-4.977-4.924L23,82.509
				z"/>
		</g>
		<g>
			<path style="fill:#3D320C;" d="M74.715,28.812L56.754,46.975l7.108,7.034l13.052-13.201c1.685-1.703,4.188-2.308,6.465-1.562
				l0.535,0.175c3.941-3.984,3.201-8.087,0.602-10.66C81.795,26.069,77.406,26.092,74.715,28.812z M78.212,30.965
				c0.776-0.785,2.044-0.792,2.829-0.015c0.785,0.777,0.791,2.043,0.015,2.828c-0.776,0.785-2.044,0.792-2.829,0.015
				C77.441,33.017,77.436,31.75,78.212,30.965z"/>
		</g>
		<g>
			<path style="fill:#FFFFFF;" d="M68.867,64.589c0,0-27.423,29.137-45.867,17.92c16.334,13.349,38.857-6.569,48-15.81
				L68.867,64.589z"/>
		</g>
		<g>
			<path style="fill:#66510D;" d="M74.715,28.812L56.754,46.975l3.931,3.889l17.329-17.33c-0.56-0.778-0.498-1.866,0.199-2.57
				c0.701-0.709,1.799-0.777,2.583-0.212l2.771-2.77C80.854,26.112,77.113,26.389,74.715,28.812z"/>
		</g>
	</g>
</g>
<g id="R-Yellow" style="display:none;">
	<circle style="display:inline;fill:#FFD75E;" cx="55" cy="55" r="55"/>
	<g style="display:inline;">
		<g>
			<path style="fill:#FFE9A1;" d="M23,82.509c10.939,8.959,28.416,4.233,48-15.81L59.627,55.445l2.814-2.843l-4.977-4.924L23,82.509
				z"/>
		</g>
		<g>
			<path style="fill:#3D320C;" d="M74.715,28.812L56.754,46.975l7.108,7.034l13.052-13.201c1.684-1.703,4.188-2.308,6.465-1.562
				l0.535,0.175c3.941-3.984,3.201-8.087,0.601-10.66C81.795,26.069,77.406,26.092,74.715,28.812z M78.212,30.965
				c0.776-0.785,2.044-0.792,2.829-0.015c0.785,0.777,0.791,2.043,0.015,2.828c-0.776,0.785-2.044,0.792-2.829,0.015
				C77.441,33.017,77.435,31.75,78.212,30.965z"/>
		</g>
		<g>
			<path style="fill:#FFFFFF;" d="M68.867,64.589c0,0-27.423,29.137-45.867,17.92c16.334,13.349,38.857-6.569,48-15.81
				L68.867,64.589z"/>
		</g>
		<g>
			<path style="fill:#66510D;" d="M74.715,28.812L56.754,46.975l3.931,3.889l17.329-17.33c-0.56-0.778-0.498-1.866,0.199-2.57
				c0.701-0.709,1.799-0.777,2.583-0.212l2.771-2.77C80.854,26.112,77.113,26.389,74.715,28.812z"/>
		</g>
	</g>
</g>
</svg>
