<?xml version="1.0" encoding="iso-8859-1"?>
<!-- Generator: Adobe Illustrator 17.1.0, SVG Export Plug-In . SVG Version: 6.00 Build 0)  -->
<!DOCTYPE svg PUBLIC "-//W3C//DTD SVG 1.0//EN" "http://www.w3.org/TR/2001/REC-SVG-20010904/DTD/svg10.dtd">
<svg version="1.0" xmlns="http://www.w3.org/2000/svg" xmlns:xlink="http://www.w3.org/1999/xlink" x="0px" y="0px" width="110px"
	 height="110px" viewBox="0 0 110 110" style="enable-background:new 0 0 110 110;" xml:space="preserve">
<g id="Artboard">
</g>
<g id="Multicolor">
	<circle style="fill:#FABC3D;" cx="55" cy="55" r="55"/>
	<g>
		<g>
			<path style="fill:#FFFFFF;" d="M47,55c0-1.105-0.895-2-2-2H32.018c-0.64,0-1.241,0.306-1.617,0.824l-7.018,12
				C23.134,66.165,23,66.577,23,67v8c0,1.105,0.895,2,2,2h22V55z"/>
		</g>
		<g>
			<path style="fill:#E2E4E5;" d="M87,75c0,1.105-0.895,2-2,2H47V67h40V75z"/>
		</g>
		<g>
			<circle style="fill:#3E3E3F;" cx="35" cy="76.5" r="6.5"/>
		</g>
		<g>
			<circle style="fill:#CFD3D4;" cx="35" cy="76.5" r="2.5"/>
		</g>
		<g>
			<circle style="fill:#3E3E3F;" cx="72.5" cy="76.5" r="6.5"/>
		</g>
		<g>
			<circle style="fill:#CFD3D4;" cx="72.5" cy="76.5" r="2.5"/>
		</g>
		<g>
			<path style="fill:#FFFFFF;" d="M51.154,31H23v5c0,1.657,1.343,3,3,3h19l26,28h12v-3.189L51.154,31z"/>
		</g>
		<g>
			<g>
				<path style="fill:#21B2D1;" d="M87,67h-4v-3.189L51.154,31H23v-2c0-1.105,0.895-2,2-2h27c0.541,0,1.059,0.219,1.435,0.607l33,34
					C86.797,61.981,87,62.48,87,63V67z"/>
			</g>
		</g>
		<g>
			<path style="fill:#40C9E7;" d="M43,57v8H28l3.171-6.342C31.679,57.642,32.718,57,33.854,57H43z"/>
		</g>
		<g>
			<path style="fill:#FA5655;" d="M34,50c0-1.105,0.895-2,2-2h2c1.105,0,2,0.895,2,2v3h-6V50z"/>
		</g>
		<g>
			<path style="fill:#9CE5F4;" d="M33.854,57c-1.136,0-2.175,0.642-2.683,1.658L28,65h4.092l8-8H33.854z"/>
		</g>
	</g>
</g>
</svg>
