<?xml version="1.0" encoding="iso-8859-1"?>
<!-- Generator: Adobe Illustrator 17.1.0, SVG Export Plug-In . SVG Version: 6.00 Build 0)  -->
<!DOCTYPE svg PUBLIC "-//W3C//DTD SVG 1.0//EN" "http://www.w3.org/TR/2001/REC-SVG-20010904/DTD/svg10.dtd">
<svg version="1.0" xmlns="http://www.w3.org/2000/svg" xmlns:xlink="http://www.w3.org/1999/xlink" x="0px" y="0px" width="110px"
	 height="110px" viewBox="0 0 110 110" style="enable-background:new 0 0 110 110;" xml:space="preserve">
<g id="Artboard">
</g>
<g id="Multicolor">
	<circle style="fill:#FABC3D;" cx="55" cy="55" r="55"/>
	<g>
		<path style="fill:#692E19;" d="M34.415,83.977c-0.683,2.101-2.94,3.25-5.041,2.567c-2.101-0.683-3.25-2.94-2.567-5.041
			l17.314-53.256c0.683-2.101,2.94-3.25,5.041-2.567c2.101,0.683,3.25,2.94,2.567,5.041L34.415,83.977z"/>
		<path style="fill:#692E19;" d="M65.489,84.236c-0.683,2.101-2.94,3.25-5.041,2.567c-2.101-0.683-3.25-2.94-2.567-5.041
			l17.314-53.256c0.683-2.101,2.94-3.25,5.041-2.567c2.101,0.683,3.25,2.94,2.567,5.041L65.489,84.236z"/>
		<path style="fill:#84462D;" d="M74.143,31.742H48c-1.657,0-3,1.343-3,3c0,1.657,1.343,3,3,3h24.192L74.143,31.742z"/>
		<path style="fill:#84462D;" d="M69.592,45.742H43c-1.657,0-3,1.343-3,3c0,1.657,1.343,3,3,3h24.641L69.592,45.742z"/>
		<path style="fill:#84462D;" d="M65,59.865v-0.123H39c-1.657,0-3,1.343-3,3c0,1.657,1.343,3,3,3h24.089L65,59.865z"/>
		<path style="fill:#84462D;" d="M60.814,72.742H35c-1.657,0-3,1.343-3,3c0,1.657,1.343,3,3,3h23.863L60.814,72.742z"/>
		<path style="fill:#9C6144;" d="M32.001,75.729h27.841l0.971-2.988H35C33.347,72.742,32.008,74.078,32.001,75.729z"/>
		<path style="fill:#9C6144;" d="M36,62.742c0,0.017,0.005,0.033,0.005,0.05h28.043L65,59.865v-0.123H39
			C37.343,59.742,36,61.085,36,62.742z"/>
		<path style="fill:#9C6144;" d="M40,48.742c0,0.017,0.005,0.033,0.005,0.05H68.6l0.992-3.05H43C41.343,45.742,40,47.085,40,48.742z
			"/>
		<path style="fill:#9C6144;" d="M45.008,34.667h28.185l0.951-2.925H48C46.369,31.742,45.048,33.045,45.008,34.667z"/>
	</g>
</g>
</svg>
