<?xml version="1.0" encoding="iso-8859-1"?>
<!-- Generator: Adobe Illustrator 17.1.0, SVG Export Plug-In . SVG Version: 6.00 Build 0)  -->
<!DOCTYPE svg PUBLIC "-//W3C//DTD SVG 1.0//EN" "http://www.w3.org/TR/2001/REC-SVG-20010904/DTD/svg10.dtd">
<svg version="1.0" xmlns="http://www.w3.org/2000/svg" xmlns:xlink="http://www.w3.org/1999/xlink" x="0px" y="0px" width="110px"
	 height="110px" viewBox="0 0 110 110" style="enable-background:new 0 0 110 110;" xml:space="preserve">
<g id="Artboard">
</g>
<g id="Multicolor">
	<circle style="fill:#25B7D3;" cx="55" cy="55" r="55"/>
	<g>
		<path style="fill:#3E3E3F;" d="M69.983,27.537C68.658,24.781,65.827,23,62.77,23c-4.411,0-8,3.589-8,8c-4.418,0-8,3.582-8,8v4h16
			v-4c0-3.745-2.576-6.879-6.05-7.751c0.263-1,0.487-6.249,6.05-6.249c2.292,0,4.417,1.336,5.411,3.404
			c0.24,0.498,0.838,0.707,1.335,0.468C70.013,28.632,70.223,28.035,69.983,27.537z"/>
		<path style="fill:#5B5C5F;" d="M46.77,23c-3.057,0-5.888,1.781-7.213,4.537c-0.239,0.498-0.03,1.095,0.468,1.335
			c0.497,0.239,1.095,0.03,1.335-0.468C42.354,26.336,44.478,25,46.77,25c5.557,0,5.787,5.249,6.05,6.249
			c-3.474,0.872-6.05,4.006-6.05,7.751v4h8V31C54.77,26.589,51.181,23,46.77,23z"/>
		<g>
			<circle style="fill:#3E3E3F;" cx="54.77" cy="67" r="20"/>
		</g>
		<g>
			<path style="fill:#5B5C5F;" d="M34.77,67c0,11.046,8.954,20,20,20V47C43.724,47,34.77,55.954,34.77,67z"/>
		</g>
		<g>
			<g>
				<path style="fill:#FA5655;" d="M82.99,67c0,7.657-2.184,13.602-8.26,19.74C65.46,82.92,58.82,70.93,54.82,51
					c-2.71,15.69-7.92,28.99-19.89,35.74C29.9,81.68,26.77,74.7,26.77,67c0-15.621,12.697-28,27.99-28
					C70.22,39,82.99,51.54,82.99,67z"/>
			</g>
		</g>
		<g>
			<path style="fill:#DF2C2C;" d="M60.16,39.522L27.304,72.378c1.085,5.546,3.808,10.511,7.636,14.362
				C46.91,79.99,52.12,66.69,54.83,51c4,19.93,10.64,31.92,19.91,35.74C80.815,80.602,83,74.657,83,67
				C83,53.381,73.088,42.033,60.16,39.522z"/>
		</g>
		<g>
			<circle style="fill:#3E3E3F;" cx="62.77" cy="47" r="4"/>
		</g>
		<g>
			<circle style="fill:#3E3E3F;" cx="62.77" cy="61" r="4"/>
		</g>
		<g>
			<circle style="fill:#3E3E3F;" cx="38.77" cy="71" r="4"/>
		</g>
		<g>
			<path style="fill:#3E3E3F;" d="M34.77,59c0,2.21-1.79,4-4,4c-1.43,0-2.68-0.75-3.38-1.87c0.43-2.05,1.1-4.01,1.95-5.86
				c0.44-0.18,0.93-0.27,1.43-0.27C32.98,55,34.77,56.79,34.77,59z"/>
		</g>
		<g>
			<circle style="fill:#3E3E3F;" cx="46.77" cy="59" r="4"/>
		</g>
		<g>
			<path style="fill:#3E3E3F;" d="M46.77,43c0,2.21-1.79,4-4,4c-1.88,0-3.46-1.3-3.88-3.05c2.13-1.48,4.47-2.66,6.97-3.49
				C46.43,41.15,46.77,42.04,46.77,43z"/>
		</g>
		<g>
			<circle style="fill:#3E3E3F;" cx="74.77" cy="64" r="4"/>
		</g>
		<g>
			<path style="fill:#3E3E3F;" d="M81.34,76.94c-0.87,2.31-2.14,4.56-3.94,6.81c-1.54-0.55-2.63-2.02-2.63-3.75c0-2.21,1.79-4,4-4
				C79.75,76,80.64,76.35,81.34,76.94z"/>
		</g>
	</g>
</g>
</svg>
