<?xml version="1.0" encoding="iso-8859-1"?>
<!-- Generator: Adobe Illustrator 17.1.0, SVG Export Plug-In . SVG Version: 6.00 Build 0)  -->
<!DOCTYPE svg PUBLIC "-//W3C//DTD SVG 1.0//EN" "http://www.w3.org/TR/2001/REC-SVG-20010904/DTD/svg10.dtd">
<svg version="1.0" xmlns="http://www.w3.org/2000/svg" xmlns:xlink="http://www.w3.org/1999/xlink" x="0px" y="0px" width="110px"
	 height="110px" viewBox="0 0 110 110" style="enable-background:new 0 0 110 110;" xml:space="preserve">
<g id="Artboard">
</g>
<g id="Multicolor">
	<circle style="fill:#FABC3D;" cx="55" cy="55" r="55"/>
	<g>
		<g>
			<path style="fill:#059BBF;" d="M51,35v-6.06c0-3.281-2.659-5.94-5.94-5.94H45h-0.06C41.659,23,39,25.659,39,28.94V35L27,59h36
				L51,35z"/>
		</g>
		<g>
			<path style="fill:#059BBF;" d="M79.08,79H73H47.41c-0.26,0-0.52,0.11-0.7,0.29l-7.42,6c-0.28,0.29-0.37,0.72-0.21,1.09
				C39.23,86.76,39.6,87,40,87h38h9v-0.08C87,82.55,83.45,79,79.08,79z"/>
		</g>
		<g>
			<polygon style="fill:#21B2D1;" points="30.53,51.94 27,59 34.82,59 45,59 45,35 39,35 			"/>
		</g>
		<g>
			<path style="fill:#FBE158;" d="M45,59H34.82c2.67,2.49,6.25,4,10.18,4s7.51-1.51,10.18-4H45z"/>
		</g>
		<g>
			<path style="fill:#FBEC9A;" d="M34.82,59c2.67,2.49,6.25,4,10.18,4v-4H34.82z"/>
		</g>
		<g>
			<path style="fill:#DF2C2C;" d="M58,75h-3h-3c-0.552,0-1,0.448-1,1v3h4h4v-3C59,75.448,58.552,75,58,75z"/>
		</g>
		<path style="fill:#0484AB;" d="M76.27,38.352c-8.076-10.118-21.324-10.531-25.359-10.404C50.438,25.14,48.002,23,45.06,23H45
			h-0.06C41.659,23,39,25.659,39,28.94V35h6h6v-1.048c2.952-0.088,14.219,0.135,20.606,8.176c6.001,7.553,6.386,19.96,1.187,36.872
			h6.269C84.305,60.917,83.373,47.252,76.27,38.352z"/>
		<g>
			<path style="fill:#059BBF;" d="M39,28.94V35h6V23h-0.06C41.659,23,39,25.659,39,28.94z"/>
		</g>
	</g>
</g>
</svg>
