<?xml version="1.0" encoding="iso-8859-1"?>
<!-- Generator: Adobe Illustrator 17.1.0, SVG Export Plug-In . SVG Version: 6.00 Build 0)  -->
<!DOCTYPE svg PUBLIC "-//W3C//DTD SVG 1.0//EN" "http://www.w3.org/TR/2001/REC-SVG-20010904/DTD/svg10.dtd">
<svg version="1.0" xmlns="http://www.w3.org/2000/svg" xmlns:xlink="http://www.w3.org/1999/xlink" x="0px" y="0px" width="110px"
	 height="110px" viewBox="0 0 110 110" style="enable-background:new 0 0 110 110;" xml:space="preserve">
<g id="Artboard">
</g>
<g id="Multicolor">
	<circle style="fill:#FABC3D;" cx="55" cy="55" r="55"/>
	<g>
		<path style="fill:#FBEC9A;" d="M73.927,67c0.366,0,0.705,0.105,1,0.277V59h-2v8.277C73.223,67.105,73.561,67,73.927,67z"/>
		<g>
			<path style="fill:#FBE158;" d="M75.928,73c0,1.105-0.895,2-2,2s-2-0.895-2-2v-4c0-1.105,0.895-2,2-2s2,0.895,2,2V73z"/>
		</g>
		<g>
			<path style="fill:#FBE158;" d="M67.06,23.837C66.98,23.354,66.569,23,66.08,23H54.928H43.758c-0.482,0-0.888,0.34-0.977,0.814
				C41.191,32.308,37.319,41.429,31.82,51h23.108h22.72C78.597,52.578,69.591,39.124,67.06,23.837z"/>
		</g>
		<g>
			<path style="fill:#FBEC9A;" d="M31.82,51h23.108V23H43.763c-0.482,0-0.893,0.343-0.982,0.816
				C41.191,32.309,37.319,41.43,31.82,51z"/>
		</g>
		<g>
			<path style="fill:#DF2C2C;" d="M63.134,67.51c-1.317-0.18-2.74-0.309-4.207-0.394V59h-4h-4v8.117
				c-1.467,0.084-2.889,0.214-4.207,0.394c-4.411,0.602-6.998,5.28-5.19,9.348L46.928,87h8h8l5.397-10.142
				C70.132,72.79,67.545,68.112,63.134,67.51z"/>
		</g>
		<g>
			<path style="fill:#FACB1B;" d="M81.823,57.431c-1.587-2.291-2.863-4.263-4.172-6.431l-22.723,0H31.82
				c-1.124,1.955-2.377,4.041-3.911,6.466c-0.195,0.308-0.207,0.698-0.031,1.017C28.055,58.803,28.39,59,28.755,59H81
				c0.372,0,0.713-0.206,0.886-0.536C82.058,58.135,82.034,57.737,81.823,57.431z"/>
		</g>
		<g>
			<path style="fill:#FBE158;" d="M54.928,51H31.82c-1.147,1.995-2.401,4.079-3.911,6.466c-0.195,0.308-0.207,0.698-0.031,1.017
				C28.054,58.803,28.39,59,28.755,59h22.173h4V51z"/>
		</g>
		<g>
			<path style="fill:#FA5655;" d="M50.928,59v8.117c-1.467,0.084-2.889,0.214-4.207,0.394c-4.411,0.602-6.998,5.28-5.19,9.348
				L46.928,87h8V59H50.928z"/>
		</g>
	</g>
</g>
</svg>
