<?xml version="1.0" encoding="iso-8859-1"?>
<!-- Generator: Adobe Illustrator 17.1.0, SVG Export Plug-In . SVG Version: 6.00 Build 0)  -->
<!DOCTYPE svg PUBLIC "-//W3C//DTD SVG 1.0//EN" "http://www.w3.org/TR/2001/REC-SVG-20010904/DTD/svg10.dtd">
<svg version="1.0" xmlns="http://www.w3.org/2000/svg" xmlns:xlink="http://www.w3.org/1999/xlink" x="0px" y="0px" width="110px"
	 height="110px" viewBox="0 0 110 110" style="enable-background:new 0 0 110 110;" xml:space="preserve">
<g id="Artboard">
</g>
<g id="Multicolor">
	<circle style="fill:#25B7D3;" cx="55" cy="55" r="55"/>
	<g>
		<g>
			<path style="fill:#FCF6C2;" d="M68.906,25.815C67.81,24.068,65.884,23,63.82,23H46.322c-2.134,0-4.109,1.136-5.185,2.979
				c-8.183,14.014-8.183,28.028,0,42.042C42.212,69.862,44.191,71,46.322,71h17.225c2.196,0,4.217-1.201,5.27-3.129
				C77.031,52.83,77.061,38.811,68.906,25.815z"/>
		</g>
		<g>
			<path style="fill:#FFFFFF;" d="M55,23h-8.678c-2.134,0-4.109,1.136-5.185,2.979c-8.183,14.014-8.183,28.028,0,42.042
				C42.212,69.862,44.191,71,46.322,71H55V23z"/>
		</g>
		<g>
			<path style="fill:#FBE158;" d="M36,31c0,0.552,0.448,1,1,1h36c0.552,0,1-0.448,1-1s-0.448-1-1-1H37C36.448,30,36,30.448,36,31z"
				/>
		</g>
		<g>
			<path style="fill:#FBE158;" d="M36,63c0,0.552,0.448,1,1,1h36c0.552,0,1-0.448,1-1s-0.448-1-1-1H37C36.448,62,36,62.448,36,63z"
				/>
		</g>
		<g>
			<path style="fill:#FBE158;" d="M34,55c0,0.552,0.448,1,1,1h40c0.552,0,1-0.448,1-1s-0.448-1-1-1H35C34.448,54,34,54.448,34,55z"
				/>
		</g>
		<g>
			<path style="fill:#FBE158;" d="M34,39c0,0.552,0.448,1,1,1h40c0.552,0,1-0.448,1-1s-0.448-1-1-1H35C34.448,38,34,38.448,34,39z"
				/>
		</g>
		<g>
			<path style="fill:#FBE158;" d="M33,47c0,0.552,0.448,1,1,1h42c0.552,0,1-0.448,1-1s-0.448-1-1-1H34C33.448,46,33,46.448,33,47z"
				/>
		</g>
		<path style="fill:#3E3E3F;" d="M57,73.118V71h-4v2.118C42.699,74.341,43.394,85,36.795,85c0,1.156,1.05,1.951,2.205,1.951
			c5.401,0,5.491-8.639,14-9.815v4.742c0,1.384-0.41,2.737-1.177,3.889L51,87h8l-0.823-1.234C57.41,84.615,57,83.261,57,81.877
			v-4.742c8.509,1.176,8.599,9.815,14,9.815c1.155,0,2.205-0.795,2.205-1.951C66.606,85,67.301,74.341,57,73.118z"/>
	</g>
</g>
</svg>
