<?xml version="1.0" encoding="iso-8859-1"?>
<!-- Generator: Adobe Illustrator 17.1.0, SVG Export Plug-In . SVG Version: 6.00 Build 0)  -->
<!DOCTYPE svg PUBLIC "-//W3C//DTD SVG 1.0//EN" "http://www.w3.org/TR/2001/REC-SVG-20010904/DTD/svg10.dtd">
<svg version="1.0" xmlns="http://www.w3.org/2000/svg" xmlns:xlink="http://www.w3.org/1999/xlink" x="0px" y="0px" width="110px"
	 height="110px" viewBox="0 0 110 110" style="enable-background:new 0 0 110 110;" xml:space="preserve">
<g id="Artboard">
</g>
<g id="Multicolor">
	<circle style="fill:#25B7D3;" cx="55" cy="55" r="55"/>
	<g>
		<g>
			<path style="fill:#F0F1F1;" d="M48.003,78c-1.011,0-1.997-0.511-2.563-1.436c-0.864-1.414-0.418-3.26,0.995-4.124l32.1-19.617
				l-23.262-16.37c-1.355-0.953-1.68-2.825-0.727-4.18c0.953-1.354,2.824-1.68,4.18-0.727l27,19c0.826,0.582,1.304,1.54,1.272,2.55
				c-0.033,1.01-0.572,1.936-1.434,2.463l-36,22C49.076,77.858,48.536,78,48.003,78z"/>
		</g>
		<circle style="fill:#DF2C2C;" cx="48" cy="75" r="5"/>
		<circle style="fill:#F0F1F1;" cx="48" cy="75" r="2.5"/>
		<circle style="fill:#DF2C2C;" cx="82" cy="53" r="5"/>
		<circle style="fill:#F0F1F1;" cx="82" cy="53" r="2.5"/>
		<path style="fill:#DF2C2C;" d="M64.367,87c0.921,0,1.723-0.629,1.942-1.523c0.22-0.894-0.199-1.825-1.016-2.25
			C60.119,80.528,54.239,79,48,79s-12.119,1.528-17.293,4.226c-0.817,0.426-1.237,1.355-1.017,2.25
			C29.909,86.371,30.712,87,31.633,87H64.367z"/>
		<path style="fill:#3E3E3F;" d="M60.404,26.712l1.414,1.414c0.121,0.121,0.215,0.257,0.318,0.389l1.804-1.804
			c0.281-0.281,0.439-0.663,0.439-1.061c0-0.398-0.158-0.779-0.439-1.061c-0.586-0.586-1.536-0.586-2.121,0l-1.803,1.804
			C60.146,26.497,60.283,26.591,60.404,26.712z"/>
		<path style="fill:#BF0302;" d="M61.818,28.126l-1.414-1.414c-1.562-1.562-4.095-1.562-5.657,0l-1.99,1.99
			c1.486,0.75,2.881,1.729,4.111,2.96c1.23,1.23,2.21,2.625,2.96,4.111l1.99-1.99C63.38,32.221,63.38,29.688,61.818,28.126z"/>
		<path style="fill:#DF2C2C;" d="M56.868,31.662c0.007,0.007,0.013,0.015,0.02,0.021l4.244-4.243l-0.728-0.728
			c-1.562-1.562-4.095-1.562-5.657,0l-1.99,1.99C54.243,29.452,55.638,30.431,56.868,31.662z"/>
		<path style="fill:#DF2C2C;" d="M58.709,52.08c4.401-6.357,3.626-14.951-1.841-20.418S42.807,25.42,36.45,29.821l-5.92,4.098
			c1.669,5.508,4.676,10.697,9.03,15.051s9.543,7.361,15.051,9.03L58.709,52.08z"/>
		<path style="fill:#FA5655;" d="M56.868,31.662c-5.467-5.467-14.062-6.242-20.418-1.841l-5.92,4.098
			c1.669,5.508,4.676,10.697,9.03,15.051c0.007,0.007,0.015,0.013,0.021,0.02l17.307-17.307
			C56.882,31.677,56.876,31.669,56.868,31.662z"/>
		<path style="fill:#FACB1B;" d="M30.534,33.931c1.67,5.503,4.675,10.688,9.026,15.039s9.536,7.356,15.039,9.026
			c-1.845-5.416-4.921-10.505-9.24-14.824C41.039,38.853,35.95,35.776,30.534,33.931z"/>
		<path style="fill:#FA5655;" d="M48,79L48,79c-6.239,0-12.12,1.528-17.293,4.226c-0.817,0.426-1.237,1.355-1.017,2.25
			S30.712,87,31.633,87H48V79z"/>
	</g>
</g>
</svg>
