<?xml version="1.0" encoding="iso-8859-1"?>
<!-- Generator: Adobe Illustrator 17.1.0, SVG Export Plug-In . SVG Version: 6.00 Build 0)  -->
<!DOCTYPE svg PUBLIC "-//W3C//DTD SVG 1.0//EN" "http://www.w3.org/TR/2001/REC-SVG-20010904/DTD/svg10.dtd">
<svg version="1.0" xmlns="http://www.w3.org/2000/svg" xmlns:xlink="http://www.w3.org/1999/xlink" x="0px" y="0px" width="110px"
	 height="110px" viewBox="0 0 110 110" style="enable-background:new 0 0 110 110;" xml:space="preserve">
<g id="Artboard">
</g>
<g id="Multicolor">
	<circle style="fill:#32BEA6;" cx="55" cy="55" r="55"/>
	<g>
		<g>
			<path style="fill:#FFFFFF;" d="M65.306,30.5l4.203,4.948l2.511-1.679L66.694,27.5H57V24c0-0.552-0.448-1-1-1h-2
				c-0.552,0-1,0.448-1,1v17.446h-9.694l-5.464,6.433l2.511,1.679l4.342-5.112H53V83H43c-0.379,0-0.725,0.214-0.894,0.553l-1,2
				c-0.155,0.31-0.138,0.678,0.044,0.973C41.332,86.821,41.653,87,42,87h26c0.347,0,0.668-0.179,0.851-0.474
				c0.182-0.295,0.199-0.663,0.044-0.973l-1-2C67.725,83.214,67.379,83,67,83H57V30.5H65.306z"/>
		</g>
		<g>
			<path style="fill:#FBE158;" d="M76.966,31.539c-0.419-0.446-1.1-0.524-1.608-0.183l-8.647,5.78
				c-0.509,0.34-0.697,0.998-0.445,1.556l5.224,11.571c0.151,0.335,0.443,0.587,0.797,0.689c0.354,0.101,0.734,0.042,1.04-0.163
				l12.117-8.1c0.306-0.205,0.507-0.533,0.548-0.899s-0.08-0.731-0.332-1L76.966,31.539z"/>
		</g>
		<g>
			<path style="fill:#FBE158;" d="M32.187,45.395c0.419-0.446,1.1-0.524,1.609-0.183l8.648,5.781
				c0.509,0.34,0.697,0.999,0.445,1.557l-5.225,11.572c-0.151,0.336-0.443,0.587-0.797,0.689s-0.735,0.042-1.041-0.163
				l-12.118-8.101c-0.306-0.205-0.507-0.533-0.548-0.899c-0.042-0.366,0.08-0.731,0.332-1L32.187,45.395z"/>
		</g>
		<g>
			<path style="fill:#FBEC9A;" d="M33.796,45.211c-0.509-0.34-1.189-0.263-1.609,0.183l-8.695,9.252
				c-0.252,0.268-0.373,0.634-0.332,1c0.042,0.366,0.242,0.695,0.548,0.899l5.298,3.542l9.444-11.765L33.796,45.211z"/>
		</g>
		<g>
			<path style="fill:#FBEC9A;" d="M79.668,46.55l5.776-3.861c0.306-0.205,0.507-0.533,0.548-0.899s-0.08-0.731-0.332-1l-8.694-9.251
				c-0.419-0.446-1.1-0.524-1.609-0.184l-4.376,2.925L79.668,46.55z"/>
		</g>
	</g>
</g>
</svg>
