<?xml version="1.0" encoding="iso-8859-1"?>
<!-- Generator: Adobe Illustrator 17.1.0, SVG Export Plug-In . SVG Version: 6.00 Build 0)  -->
<!DOCTYPE svg PUBLIC "-//W3C//DTD SVG 1.0//EN" "http://www.w3.org/TR/2001/REC-SVG-20010904/DTD/svg10.dtd">
<svg version="1.0" xmlns="http://www.w3.org/2000/svg" xmlns:xlink="http://www.w3.org/1999/xlink" x="0px" y="0px" width="110px"
	 height="110px" viewBox="0 0 110 110" style="enable-background:new 0 0 110 110;" xml:space="preserve">
<g id="Artboard">
</g>
<g id="Multicolor">
	<circle style="fill:#25B7D3;" cx="55" cy="55" r="55"/>
	<g>
		<rect x="31" y="55" style="fill:#FFFFFF;" width="48" height="24"/>
		<rect x="39" y="39" style="fill:#FFFFFF;" width="32" height="12"/>
		<rect x="23" y="83" style="fill:#FFFFFF;" width="64" height="4"/>
		<rect x="27" y="79" style="fill:#E2E4E5;" width="56" height="4"/>
		<rect x="27" y="51" style="fill:#E2E4E5;" width="56" height="4"/>
		<rect x="35" y="35" style="fill:#E2E4E5;" width="40" height="4"/>
		<path style="fill:#F0F1F1;" d="M70.476,35C68.697,28.103,62.453,23,55,23s-13.697,5.103-15.476,12H70.476z"/>
		<path style="fill:#5B5C5F;" d="M59,71c0-2.209-1.791-4-4-4s-4,1.791-4,4v8h8V71z"/>
		<rect x="63" y="61" style="fill:#40C9E7;" width="4" height="4"/>
		<rect x="63" y="69" style="fill:#40C9E7;" width="4" height="4"/>
		<rect x="71" y="61" style="fill:#40C9E7;" width="4" height="4"/>
		<rect x="71" y="69" style="fill:#40C9E7;" width="4" height="4"/>
		<rect x="43" y="61" style="fill:#40C9E7;" width="4" height="4"/>
		<rect x="43" y="43" style="fill:#40C9E7;" width="4" height="4"/>
		<rect x="53" y="43" style="fill:#40C9E7;" width="4" height="4"/>
		<rect x="63" y="43" style="fill:#40C9E7;" width="4" height="4"/>
		<rect x="43" y="69" style="fill:#40C9E7;" width="4" height="4"/>
		<rect x="35" y="61" style="fill:#40C9E7;" width="4" height="4"/>
		<rect x="35" y="69" style="fill:#40C9E7;" width="4" height="4"/>
		<path style="fill:#FFFFFF;" d="M55,23c-7.453,0-13.697,5.103-15.476,12H55V23z"/>
	</g>
</g>
</svg>
