<?xml version="1.0" encoding="iso-8859-1"?>
<!-- Generator: Adobe Illustrator 17.1.0, SVG Export Plug-In . SVG Version: 6.00 Build 0)  -->
<!DOCTYPE svg PUBLIC "-//W3C//DTD SVG 1.0//EN" "http://www.w3.org/TR/2001/REC-SVG-20010904/DTD/svg10.dtd">
<svg version="1.0" xmlns="http://www.w3.org/2000/svg" xmlns:xlink="http://www.w3.org/1999/xlink" x="0px" y="0px" width="110px"
	 height="110px" viewBox="0 0 110 110" style="enable-background:new 0 0 110 110;" xml:space="preserve">
<g id="Artboard">
</g>
<g id="Multicolor">
	<circle style="fill:#25B7D3;" cx="55" cy="55" r="55"/>
	<g>
		<g>
			<ellipse style="fill:#6FDAF1;" cx="54.905" cy="57.5" rx="16" ry="16.5"/>
		</g>
		<g>
			<path style="fill:#9CE5F4;" d="M38.905,57.5c0,9.113,7.163,16.5,16,16.5V41C46.068,41,38.905,48.387,38.905,57.5z"/>
		</g>
		<g>
			<path style="fill:#BF0302;" d="M81.523,76.883l-5.3-41.516C75.905,32.877,73.772,31,71.263,31h-8.358v-3h-16v3h-8.358
				c-2.509,0-4.642,1.877-4.96,4.367l-5.3,41.516c-0.342,2.677,1.476,5.121,4.138,5.564l2.483,0.414c0,0.02-0.003,0.039-0.003,0.059
				V83h36h4c0-0.046-0.006-0.092-0.007-0.138l2.487-0.415C80.047,82.004,81.865,79.56,81.523,76.883z M76.728,78.502l-2.911,0.485
				C72.442,76.616,69.901,75,66.985,75h-0.08l-3-4h-18l-3,4h-0.08c-2.939,0-5.498,1.604-6.865,3.981l-2.878-0.479
				c-0.532-0.089-0.896-0.578-0.827-1.113l5.3-41.515C37.618,35.375,38.044,35,38.546,35h8.358l-2.293,2.293
				c-0.286,0.286-0.372,0.716-0.217,1.09C44.55,38.756,44.914,39,45.319,39h1.586v4h16v-4h1.586c0.404,0,0.769-0.244,0.924-0.617
				c0.155-0.374,0.069-0.804-0.217-1.09L62.905,35h8.358c0.502,0,0.929,0.375,0.992,0.873l5.3,41.516
				C77.623,77.924,77.26,78.413,76.728,78.502z"/>
		</g>
		<g>
			<rect x="46.905" y="39" style="fill:#DF2C2C;" width="8" height="4"/>
		</g>
		<g>
			<path style="fill:#DF2C2C;" d="M62.905,35v-7h-16v7l-2.293,2.293c-0.286,0.286-0.372,0.716-0.217,1.09
				C44.55,38.756,44.914,39,45.319,39H64.49c0.404,0,0.769-0.244,0.924-0.617c0.155-0.374,0.069-0.804-0.217-1.09L62.905,35z"/>
		</g>
		<g>
			<path style="fill:#3E3E3F;" d="M62.945,23h-16.08c-2.187,0-3.96,1.773-3.96,3.96V27c0,0.552,0.448,1,1,1h22c0.552,0,1-0.448,1-1
				v-0.04C66.905,24.773,65.132,23,62.945,23z"/>
		</g>
		<g>
			<path style="fill:#FA5655;" d="M54.905,27h-8v8l-2.293,2.293c-0.286,0.286-0.372,0.716-0.217,1.09
				C44.55,38.756,44.914,39,45.319,39h9.586V27z"/>
		</g>
		<g>
			<path style="fill:#5B5C5F;" d="M54.905,23h-8.04c-2.187,0-3.96,1.773-3.96,3.96V27c0,0.552,0.448,1,1,1h11V23z"/>
		</g>
		<g>
			<path style="fill:#FACB1B;" d="M49.049,71c0,0-4.832-2.416-4.832-8.457c0-8.457,9.665-7.249,9.665-16.914
				C57.506,51.67,72.905,59,61.131,71C53.882,71,49.049,71,49.049,71z"/>
		</g>
		<g>
			<circle style="fill:#F79392;" cx="50.905" cy="41" r="1"/>
		</g>
		<g>
			<circle style="fill:#F79392;" cx="54.905" cy="41" r="1"/>
		</g>
		<g>
			<path style="fill:#F7B4B4;" d="M53.905,41c0,0.552,0.448,1,1,1v-2C54.352,40,53.905,40.448,53.905,41z"/>
		</g>
		<g>
			<circle style="fill:#F79392;" cx="58.905" cy="41" r="1"/>
		</g>
		<g>
			<path style="fill:#3E3E3F;" d="M78.905,85c0,1.105-0.895,2-2,2h-44c-1.105,0-2-0.895-2-2s0.895-2,2-2h44
				C78.009,83,78.905,83.895,78.905,85z"/>
		</g>
		<g>
			<path style="fill:#F37A10;" d="M51.74,71c0,0-2.618-1.309-2.618-4.581c0-4.581,5.235-5.89,5.235-11.125
				c1.963,3.272,10.47,11.125,3.926,15.705C54.358,71,51.74,71,51.74,71z"/>
		</g>
		<g>
			<path style="fill:#DF2C2C;" d="M66.985,75h-24.16c-4.374,0-7.92,3.546-7.92,7.92V83h36h4C74.905,78.626,71.359,75,66.985,75z"/>
		</g>
		<g>
			<polygon style="fill:#DF2C2C;" points="54.905,71 45.905,71 42.905,75 54.905,75 			"/>
		</g>
		<g>
			<path style="fill:#DF2C2C;" d="M35.96,78.981l-2.878-0.479c-0.532-0.089-0.896-0.578-0.827-1.113l5.3-41.515
				C37.618,35.375,38.044,35,38.546,35h8.358v-4h-8.358c-2.509,0-4.642,1.877-4.96,4.367l-5.3,41.516
				c-0.342,2.677,1.476,5.121,4.138,5.564l2.483,0.414C34.918,81.448,35.301,80.126,35.96,78.981z"/>
		</g>
		<g>
			<path style="fill:#FA5655;" d="M54.905,75h-12.08c-4.374,0-7.92,3.546-7.92,7.92V83h20V75z"/>
		</g>
		<g>
			<path style="fill:#F99134;" d="M54.905,56.108c-0.212-0.294-0.399-0.568-0.547-0.813c0,5.235-5.235,6.544-5.235,11.125
				c0,3.272,2.618,4.581,2.618,4.581s1.19,0,3.164,0V56.108z"/>
		</g>
		<g>
			<path style="fill:#5B5C5F;" d="M54.905,83h-22c-1.105,0-2,0.896-2,2s0.895,2,2,2h22V83z"/>
		</g>
	</g>
</g>
</svg>
