<?xml version="1.0" encoding="iso-8859-1"?>
<!-- Generator: Adobe Illustrator 17.1.0, SVG Export Plug-In . SVG Version: 6.00 Build 0)  -->
<!DOCTYPE svg PUBLIC "-//W3C//DTD SVG 1.0//EN" "http://www.w3.org/TR/2001/REC-SVG-20010904/DTD/svg10.dtd">
<svg version="1.0" xmlns="http://www.w3.org/2000/svg" xmlns:xlink="http://www.w3.org/1999/xlink" x="0px" y="0px" width="110px"
	 height="110px" viewBox="0 0 110 110" style="enable-background:new 0 0 110 110;" xml:space="preserve">
<g id="Artboard">
</g>
<g id="Multicolor">
	<circle style="fill:#32BEA6;" cx="55" cy="55" r="55"/>
	<g>
		<g>
			<polygon style="fill:#F99134;" points="61.18,31 71,67 39,67 48.82,31 			"/>
		</g>
		<g>
			<path style="fill:#E2E4E5;" d="M70.85,85.75C70.55,86.51,69.81,87,69,87H41c-0.81,0-1.55-0.49-1.85-1.25
				c-0.31-0.75-0.13-1.62,0.46-2.18C41.49,81.73,45,79.37,45,77c0-4-6-10-6-10h32C71,67,65,73,65,77c0,2.37,3.51,4.73,5.39,6.57
				C70.98,84.13,71.16,85,70.85,85.75z"/>
		</g>
		<g>
			<polygon style="fill:#F99134;" points="55,31 48.82,31 39,67 55,67 			"/>
		</g>
		<g>
			<path style="fill:#FFFFFF;" d="M55,67H39c0,0,6,6,6,10c0,2.37-3.51,4.73-5.39,6.57c-0.59,0.56-0.77,1.43-0.46,2.18
				C39.45,86.51,40.19,87,41,87h14V67z"/>
		</g>
		<g>
			<path style="fill:#E2E4E5;" d="M61.18,31H48.82l1.577-5.789C50.753,23.906,51.938,23,53.292,23h3.416
				c1.353,0,2.539,0.906,2.894,2.211L61.18,31z"/>
		</g>
		<g>
			<circle style="fill:#FACB1B;" cx="59.5" cy="36.5" r="1.5"/>
		</g>
		<g>
			<circle style="fill:#FBE158;" cx="49" cy="53" r="2"/>
		</g>
		<g>
			<circle style="fill:#FACB1B;" cx="63" cy="59" r="2"/>
		</g>
		<g>
			<circle style="fill:#FACB1B;" cx="55" cy="46" r="4"/>
		</g>
		<g>
			<path style="fill:#FBE158;" d="M52,65c0,0.73-0.2,1.41-0.54,2h-6.92C44.2,66.41,44,65.73,44,65c0-2.21,1.79-4,4-4S52,62.79,52,65
				z"/>
		</g>
		<g>
			<path style="fill:#FFFFFF;" d="M55,23h-1.708c-1.353,0-2.539,0.906-2.894,2.211L48.82,31H55V23z"/>
		</g>
		<g>
			<path style="fill:#FBE158;" d="M51,46c0,2.209,1.791,4,4,4v-8C52.791,42,51,43.791,51,46z"/>
		</g>
	</g>
</g>
</svg>
