<?xml version="1.0" encoding="iso-8859-1"?>
<!-- Generator: Adobe Illustrator 17.1.0, SVG Export Plug-In . SVG Version: 6.00 Build 0)  -->
<!DOCTYPE svg PUBLIC "-//W3C//DTD SVG 1.0//EN" "http://www.w3.org/TR/2001/REC-SVG-20010904/DTD/svg10.dtd">
<svg version="1.0" xmlns="http://www.w3.org/2000/svg" xmlns:xlink="http://www.w3.org/1999/xlink" x="0px" y="0px" width="110px"
	 height="110px" viewBox="0 0 110 110" style="enable-background:new 0 0 110 110;" xml:space="preserve">
<g id="Artboard">
</g>
<g id="Multicolor">
	<g>
		<circle style="fill:#25B7D3;" cx="55" cy="55" r="55"/>
	</g>
	<g>
		<g>
			<rect x="39" y="63" style="fill:#FBE158;" width="16" height="2"/>
		</g>
		<g>
			<path style="fill:#3E3E3F;" d="M25.464,39L33,29.79L40.536,39h1.292l-8.441-10.316c-0.19-0.232-0.584-0.232-0.774,0L24.172,39
				H25.464z"/>
		</g>
		<g>
			<path style="fill:#FACB1B;" d="M43,39c0,5.523-4.477,10-10,10s-10-4.477-10-10H43z"/>
		</g>
		<g>
			<path style="fill:#FBE158;" d="M33,49c-5.523,0-10-4.477-10-10h10V49z"/>
		</g>
		<g>
			<path style="fill:#3E3E3F;" d="M53.464,39L61,29.79L68.536,39h1.292l-8.441-10.316c-0.19-0.232-0.584-0.232-0.774,0L52.172,39
				H53.464z"/>
		</g>
		<g>
			<path style="fill:#FACB1B;" d="M71,39c0,5.523-4.477,10-10,10s-10-4.477-10-10H71z"/>
		</g>
		<g>
			<path style="fill:#FBE158;" d="M61,49c-5.523,0-10-4.477-10-10h10V49z"/>
		</g>
		<g>
			<g>
				<path style="fill:#FACB1B;" d="M58.001,31c-3.583,0-6.603-1.687-8.808-2.918c-0.785-0.438-1.86-1.039-2.225-1.083
					c-0.298,0.044-1.374,0.645-2.159,1.083C42.604,29.313,39.585,31,36.001,31c-5.762,0-9.268-3.439-9.414-3.586
					c-0.781-0.781-0.781-2.047,0-2.828c0.778-0.778,2.038-0.781,2.819-0.009C29.523,24.689,31.962,27,36.001,27
					c2.542,0,4.935-1.336,6.858-2.41c1.59-0.888,2.847-1.59,4.142-1.59s2.552,0.702,4.142,1.59c1.923,1.074,4.316,2.41,6.858,2.41
					c4.052,0,6.494-2.325,6.596-2.424c0.789-0.765,2.051-0.756,2.823,0.026c0.771,0.783,0.772,2.036-0.005,2.812
					C67.269,27.561,63.764,31,58.001,31z"/>
			</g>
		</g>
		<g>
			<path style="fill:#F3B607;" d="M49,54.778V30.607c-0.573,0.382-1.26,0.607-2,0.607s-1.427-0.225-2-0.607v24.171L39,63h16
				L49,54.778z"/>
		</g>
		<g>
			<circle style="fill:#FBE158;" cx="47" cy="27.607" r="3.607"/>
		</g>
		<path style="fill:#F7B4B4;" d="M75.5,55.5C75.5,49.757,70.814,45,65,45c-5.777,0-10.5,4.699-10.5,10.5
			c0,3.561,1.783,6.707,4.5,8.606V67h12v-2.894C73.717,62.207,75.5,59.061,75.5,55.5z"/>
		<path style="fill:#FBC8C8;" d="M54.5,55.5c0,3.561,1.783,6.707,4.5,8.606V67h6V45C59.223,45,54.5,49.699,54.5,55.5z"/>
		<path style="fill:#3E3E3F;" d="M87,87H43l1.099-12.983c0-1.786,1.184-3.355,2.901-3.846L59,67h12l12,3.171
			c1.717,0.491,2.901,2.06,2.901,3.846L87,87z"/>
		<polygon style="fill:#FFFFFF;" points="59,67 71,67 65,87 		"/>
		<polygon style="fill:#DF2C2C;" points="65,67 62,77 65,87 68,77 		"/>
		<path style="fill:#692E19;" d="M75.465,54.905c-1.925,0.385-3.973,0.595-6.09,0.595c-5.442,0-10.43-1.348-14.245-3.588
			C56.6,47.887,60.468,45,65,45C70.582,45,75.168,49.393,75.465,54.905z"/>
		<polygon style="fill:#FA5655;" points="62,77 65,87 65,67 		"/>
		<path style="fill:#84462D;" d="M65,45c-4.532,0-8.4,2.887-9.87,6.913c2.764,1.623,6.148,2.768,9.87,3.281V45z"/>
	</g>
</g>
</svg>
