<?xml version="1.0" encoding="iso-8859-1"?>
<!-- Generator: Adobe Illustrator 17.1.0, SVG Export Plug-In . SVG Version: 6.00 Build 0)  -->
<!DOCTYPE svg PUBLIC "-//W3C//DTD SVG 1.0//EN" "http://www.w3.org/TR/2001/REC-SVG-20010904/DTD/svg10.dtd">
<svg version="1.0" xmlns="http://www.w3.org/2000/svg" xmlns:xlink="http://www.w3.org/1999/xlink" x="0px" y="0px" width="110px"
	 height="110px" viewBox="0 0 110 110" style="enable-background:new 0 0 110 110;" xml:space="preserve">
<g id="Artboard" style="display:none;">
	
		<rect x="-200.5" y="-674.5" style="display:inline;fill:#808080;stroke:#000000;stroke-miterlimit:10;" width="1392" height="1369"/>
</g>
<g id="R-Multicolor">
	<circle style="fill:#25B7D3;" cx="55" cy="55" r="55"/>
	<g>
		<g>
			<circle style="fill:#F3B607;" cx="55" cy="55" r="32"/>
		</g>
		<g>
			<path style="fill:#FACB1B;" d="M32.373,32.373c-12.497,12.497-12.497,32.758,0,45.255l45.255-45.255
				C65.131,19.876,44.869,19.876,32.373,32.373z"/>
		</g>
		<g>
			<circle style="fill:#FBEC9A;" cx="55" cy="55" r="27"/>
		</g>
		<g>
			<path style="fill:#FFFFFF;" d="M35.908,35.908c-10.544,10.544-10.544,27.64,0,38.184l38.184-38.184
				C63.548,25.364,46.452,25.364,35.908,35.908z"/>
		</g>
		<g>
			<g>
				<path style="fill:#FBEC9A;" d="M68.601,35.229c0.488,0.337,0.802,0.874,0.856,1.465c0.054,0.591-0.156,1.177-0.576,1.597
					L56.648,50.524V33.313c0-0.588,0.259-1.146,0.707-1.526s1.042-0.546,1.622-0.449C62.371,31.904,65.661,33.199,68.601,35.229z"/>
			</g>
			<g>
				<path style="fill:#FBE158;" d="M78.662,51.023c0.097,0.58-0.067,1.174-0.447,1.623c-0.381,0.449-0.939,0.707-1.528,0.707H59.476
					L71.708,41.12c0.42-0.42,1.004-0.631,1.595-0.578c0.591,0.053,1.13,0.366,1.467,0.854C76.8,44.338,78.096,47.629,78.662,51.023z
					"/>
			</g>
			<g>
				<path style="fill:#FBE158;" d="M74.77,68.603c-0.337,0.489-0.875,0.802-1.466,0.855c-0.591,0.053-1.176-0.159-1.596-0.579
					L60.183,57.355l16.377,0c0.599,0,1.167,0.269,1.547,0.732c0.38,0.463,0.534,1.074,0.416,1.661
					C77.898,62.869,76.647,65.886,74.77,68.603z"/>
			</g>
			<g>
				<path style="fill:#FBE158;" d="M68.88,71.708c0.42,0.42,0.631,1.004,0.578,1.595c-0.053,0.591-0.366,1.13-0.854,1.467
					c-2.941,2.03-6.232,3.326-9.626,3.893c-0.58,0.097-1.174-0.067-1.623-0.447s-0.707-0.939-0.707-1.528V59.476L68.88,71.708z"/>
			</g>
			<g>
				<path style="fill:#FBE158;" d="M52.645,76.56c0,0.599-0.269,1.167-0.732,1.547c-0.463,0.38-1.074,0.534-1.661,0.416
					c-3.121-0.626-6.138-1.877-8.855-3.754c-0.489-0.337-0.802-0.875-0.855-1.466c-0.053-0.591,0.159-1.176,0.579-1.596
					l11.525-11.525L52.645,76.56z"/>
			</g>
			<g>
				<path style="fill:#FBEC9A;" d="M49.817,57.355L38.292,68.88c-0.42,0.42-1.004,0.631-1.595,0.578
					c-0.591-0.053-1.13-0.366-1.467-0.854c-1.877-2.717-3.128-5.734-3.754-8.855c-0.118-0.588,0.034-1.198,0.415-1.662
					c0.38-0.464,0.949-0.732,1.548-0.732L49.817,57.355z"/>
			</g>
			<g>
				<path style="fill:#FBEC9A;" d="M50.524,53.352H33.313c-0.588,0-1.146-0.259-1.526-0.707c-0.38-0.448-0.546-1.042-0.449-1.622
					c0.566-3.395,1.862-6.686,3.893-9.626c0.337-0.489,0.875-0.802,1.466-0.856c0.591-0.053,1.176,0.159,1.596,0.579L50.524,53.352z
					"/>
			</g>
			<g>
				<path style="fill:#FBEC9A;" d="M52.645,49.817L41.12,38.292c-0.42-0.42-0.631-1.004-0.578-1.595s0.366-1.13,0.854-1.467
					c2.717-1.877,5.734-3.128,8.855-3.754c0.588-0.118,1.198,0.034,1.662,0.415c0.464,0.38,0.732,0.949,0.732,1.548L52.645,49.817z"
					/>
			</g>
		</g>
	</g>
</g>
<g id="Multicolor" style="display:none;">
	<g style="display:inline;">
		<g>
			<circle style="fill:#F3B607;" cx="55" cy="55" r="32"/>
		</g>
		<g>
			<path style="fill:#FACB1B;" d="M32.373,32.373c-12.497,12.497-12.497,32.758,0,45.255l45.255-45.255
				C65.131,19.876,44.869,19.876,32.373,32.373z"/>
		</g>
		<g>
			<circle style="fill:#FBEC9A;" cx="55" cy="55" r="27"/>
		</g>
		<g>
			<path style="fill:#FFFFFF;" d="M35.908,35.908c-10.544,10.544-10.544,27.64,0,38.184l38.184-38.184
				C63.548,25.364,46.452,25.364,35.908,35.908z"/>
		</g>
		<g>
			<g>
				<path style="fill:#FBEC9A;" d="M68.601,35.229c0.488,0.337,0.802,0.874,0.856,1.465c0.054,0.591-0.156,1.177-0.576,1.597
					L56.648,50.524V33.313c0-0.588,0.259-1.146,0.707-1.526s1.042-0.546,1.622-0.449C62.371,31.904,65.661,33.199,68.601,35.229z"/>
			</g>
			<g>
				<path style="fill:#FBE158;" d="M78.662,51.023c0.097,0.58-0.067,1.174-0.447,1.623c-0.381,0.449-0.939,0.707-1.528,0.707H59.476
					L71.708,41.12c0.42-0.42,1.004-0.631,1.595-0.578c0.591,0.053,1.13,0.366,1.467,0.854C76.8,44.338,78.096,47.629,78.662,51.023z
					"/>
			</g>
			<g>
				<path style="fill:#FBE158;" d="M74.77,68.603c-0.337,0.489-0.875,0.802-1.466,0.855c-0.591,0.053-1.176-0.159-1.596-0.579
					L60.183,57.355l16.377,0c0.599,0,1.167,0.269,1.547,0.732c0.38,0.463,0.534,1.074,0.416,1.661
					C77.898,62.869,76.647,65.886,74.77,68.603z"/>
			</g>
			<g>
				<path style="fill:#FBE158;" d="M68.88,71.708c0.42,0.42,0.631,1.004,0.578,1.595c-0.053,0.591-0.366,1.13-0.854,1.467
					c-2.941,2.03-6.232,3.326-9.626,3.893c-0.58,0.097-1.174-0.067-1.623-0.447s-0.707-0.939-0.707-1.528V59.476L68.88,71.708z"/>
			</g>
			<g>
				<path style="fill:#FBE158;" d="M52.645,76.56c0,0.599-0.269,1.167-0.732,1.547c-0.463,0.38-1.074,0.534-1.661,0.416
					c-3.121-0.626-6.138-1.877-8.855-3.754c-0.489-0.337-0.802-0.875-0.855-1.466c-0.053-0.591,0.159-1.176,0.579-1.596
					l11.525-11.525L52.645,76.56z"/>
			</g>
			<g>
				<path style="fill:#FBEC9A;" d="M49.817,57.355L38.292,68.88c-0.42,0.42-1.004,0.631-1.595,0.578
					c-0.591-0.053-1.13-0.366-1.467-0.854c-1.877-2.717-3.128-5.734-3.754-8.855c-0.118-0.588,0.034-1.198,0.415-1.662
					c0.38-0.464,0.949-0.732,1.548-0.732L49.817,57.355z"/>
			</g>
			<g>
				<path style="fill:#FBEC9A;" d="M50.524,53.352H33.313c-0.588,0-1.146-0.259-1.526-0.707c-0.38-0.448-0.546-1.042-0.449-1.622
					c0.566-3.395,1.862-6.686,3.893-9.626c0.337-0.489,0.875-0.802,1.466-0.856c0.591-0.053,1.176,0.159,1.596,0.579L50.524,53.352z
					"/>
			</g>
			<g>
				<path style="fill:#FBEC9A;" d="M52.645,49.817L41.12,38.292c-0.42-0.42-0.631-1.004-0.578-1.595s0.366-1.13,0.854-1.467
					c2.717-1.877,5.734-3.128,8.855-3.754c0.588-0.118,1.198,0.034,1.662,0.415c0.464,0.38,0.732,0.949,0.732,1.548L52.645,49.817z"
					/>
			</g>
		</g>
	</g>
</g>
<g id="Blue" style="display:none;">
	<g style="display:inline;">
		<g>
			<circle style="fill:#0081A1;" cx="55" cy="55" r="32"/>
		</g>
		<g>
			<path style="fill:#009FC7;" d="M32.373,32.373c-12.497,12.497-12.497,32.758,0,45.255l45.254-45.255
				C65.131,19.876,44.869,19.876,32.373,32.373z"/>
		</g>
		<g>
			<circle style="fill:#E1F5FA;" cx="55" cy="55" r="27"/>
		</g>
		<g>
			<path style="fill:#FFFFFF;" d="M35.908,35.908c-10.545,10.544-10.545,27.64,0,38.184l38.184-38.184
				C63.548,25.364,46.452,25.364,35.908,35.908z"/>
		</g>
		<g>
			<g>
				<path style="fill:#BBE7F2;" d="M68.602,35.229c0.488,0.337,0.801,0.874,0.855,1.465c0.054,0.591-0.156,1.177-0.576,1.597
					L56.647,50.524V33.313c0-0.588,0.259-1.146,0.708-1.526c0.447-0.38,1.041-0.546,1.621-0.449
					C62.371,31.904,65.661,33.199,68.602,35.229z"/>
			</g>
			<g>
				<path style="fill:#BBE7F2;" d="M78.662,51.023c0.098,0.58-0.066,1.174-0.447,1.623c-0.381,0.449-0.939,0.707-1.527,0.707H59.476
					l12.232-12.232c0.42-0.419,1.004-0.631,1.595-0.578c0.592,0.053,1.13,0.366,1.467,0.854
					C76.801,44.337,78.096,47.629,78.662,51.023z"/>
			</g>
			<g>
				<path style="fill:#BBE7F2;" d="M74.77,68.604c-0.338,0.488-0.875,0.802-1.466,0.855c-0.591,0.053-1.176-0.159-1.596-0.579
					L60.184,57.355h16.377c0.6,0,1.167,0.269,1.547,0.732c0.38,0.463,0.533,1.073,0.416,1.661
					C77.898,62.869,76.646,65.886,74.77,68.604z"/>
			</g>
			<g>
				<path style="fill:#BBE7F2;" d="M68.879,71.708c0.42,0.42,0.632,1.004,0.578,1.595c-0.053,0.591-0.365,1.13-0.854,1.467
					c-2.941,2.03-6.232,3.326-9.627,3.893c-0.58,0.097-1.174-0.067-1.622-0.447c-0.448-0.38-0.707-0.939-0.707-1.528V59.476
					L68.879,71.708z"/>
			</g>
			<g>
				<path style="fill:#BBE7F2;" d="M52.646,76.561c0,0.599-0.269,1.167-0.733,1.547c-0.463,0.38-1.072,0.534-1.66,0.416
					c-3.121-0.625-6.138-1.876-8.855-3.753c-0.488-0.337-0.802-0.875-0.855-1.466c-0.053-0.591,0.16-1.176,0.58-1.596l11.524-11.524
					V76.561z"/>
			</g>
			<g>
				<path style="fill:#BBE7F2;" d="M49.816,57.354L38.292,68.88c-0.419,0.419-1.004,0.631-1.595,0.578
					c-0.592-0.054-1.13-0.366-1.467-0.854c-1.877-2.718-3.129-5.734-3.754-8.855c-0.117-0.588,0.034-1.198,0.414-1.662
					c0.381-0.464,0.949-0.732,1.549-0.732L49.816,57.354z"/>
			</g>
			<g>
				<path style="fill:#BBE7F2;" d="M50.523,53.353H33.312c-0.588,0-1.146-0.259-1.525-0.707c-0.381-0.449-0.547-1.043-0.449-1.622
					c0.566-3.395,1.861-6.686,3.893-9.626c0.337-0.489,0.875-0.802,1.466-0.855c0.591-0.054,1.176,0.159,1.596,0.579L50.523,53.353z
					"/>
			</g>
			<g>
				<path style="fill:#BBE7F2;" d="M52.646,49.817L41.121,38.292c-0.42-0.419-0.632-1.003-0.578-1.595
					c0.053-0.591,0.365-1.129,0.854-1.467c2.718-1.877,5.734-3.128,8.855-3.754c0.588-0.118,1.197,0.034,1.662,0.414
					c0.463,0.38,0.731,0.949,0.731,1.549V49.817z"/>
			</g>
		</g>
	</g>
</g>
<g id="R-Blue" style="display:none;">
	<circle style="display:inline;fill:#81D2EB;" cx="55" cy="55" r="55"/>
	<g style="display:inline;">
		<g>
			<circle style="fill:#0081A1;" cx="55" cy="55" r="32"/>
		</g>
		<g>
			<path style="fill:#009FC7;" d="M32.373,32.373c-12.497,12.497-12.497,32.758,0,45.255l45.254-45.255
				C65.131,19.876,44.869,19.876,32.373,32.373z"/>
		</g>
		<g>
			<circle style="fill:#E1F5FA;" cx="55" cy="55" r="27"/>
		</g>
		<g>
			<path style="fill:#FFFFFF;" d="M35.908,35.908c-10.545,10.544-10.545,27.64,0,38.184l38.184-38.184
				C63.548,25.364,46.452,25.364,35.908,35.908z"/>
		</g>
		<g>
			<g>
				<path style="fill:#BBE7F2;" d="M68.602,35.229c0.488,0.337,0.801,0.874,0.855,1.465c0.054,0.591-0.156,1.177-0.576,1.597
					L56.647,50.524V33.313c0-0.588,0.259-1.146,0.708-1.526c0.447-0.38,1.041-0.546,1.621-0.449
					C62.371,31.904,65.661,33.199,68.602,35.229z"/>
			</g>
			<g>
				<path style="fill:#BBE7F2;" d="M78.662,51.023c0.098,0.58-0.066,1.174-0.447,1.623c-0.381,0.449-0.939,0.707-1.527,0.707H59.476
					l12.232-12.232c0.42-0.419,1.004-0.631,1.595-0.578c0.592,0.053,1.13,0.366,1.467,0.854
					C76.801,44.337,78.096,47.629,78.662,51.023z"/>
			</g>
			<g>
				<path style="fill:#BBE7F2;" d="M74.77,68.604c-0.338,0.488-0.875,0.802-1.466,0.855c-0.591,0.053-1.176-0.159-1.596-0.579
					L60.184,57.355h16.377c0.6,0,1.167,0.269,1.547,0.732c0.38,0.463,0.533,1.073,0.416,1.661
					C77.898,62.869,76.646,65.886,74.77,68.604z"/>
			</g>
			<g>
				<path style="fill:#BBE7F2;" d="M68.879,71.707c0.42,0.42,0.632,1.004,0.578,1.595c-0.053,0.591-0.365,1.13-0.854,1.467
					c-2.941,2.03-6.232,3.326-9.627,3.893c-0.58,0.097-1.174-0.067-1.622-0.447c-0.448-0.38-0.707-0.939-0.707-1.528V59.476
					L68.879,71.707z"/>
			</g>
			<g>
				<path style="fill:#BBE7F2;" d="M52.646,76.56c0,0.599-0.269,1.167-0.733,1.547c-0.463,0.38-1.072,0.534-1.66,0.416
					c-3.121-0.626-6.138-1.876-8.855-3.753c-0.488-0.337-0.802-0.875-0.855-1.466c-0.053-0.591,0.16-1.176,0.58-1.596l11.524-11.524
					V76.56z"/>
			</g>
			<g>
				<path style="fill:#BBE7F2;" d="M49.816,57.354L38.292,68.88c-0.419,0.419-1.004,0.631-1.595,0.578
					c-0.592-0.054-1.13-0.366-1.467-0.854c-1.877-2.718-3.129-5.734-3.754-8.855c-0.117-0.588,0.034-1.198,0.414-1.662
					c0.381-0.464,0.949-0.732,1.549-0.732L49.816,57.354z"/>
			</g>
			<g>
				<path style="fill:#BBE7F2;" d="M50.523,53.352H33.312c-0.588,0-1.146-0.259-1.525-0.707c-0.381-0.449-0.547-1.043-0.449-1.622
					c0.566-3.395,1.861-6.686,3.893-9.626c0.337-0.489,0.875-0.802,1.466-0.855c0.591-0.054,1.176,0.159,1.596,0.579L50.523,53.352z
					"/>
			</g>
			<g>
				<path style="fill:#BBE7F2;" d="M52.646,49.817L41.121,38.292c-0.42-0.419-0.632-1.003-0.578-1.595
					c0.053-0.591,0.365-1.129,0.854-1.467c2.718-1.877,5.734-3.128,8.855-3.754c0.588-0.118,1.197,0.034,1.662,0.414
					c0.463,0.38,0.731,0.949,0.731,1.549V49.817z"/>
			</g>
		</g>
	</g>
</g>
<g id="Green" style="display:none;">
	<g style="display:inline;">
		<g>
			<circle style="fill:#009687;" cx="55" cy="55" r="32"/>
		</g>
		<g>
			<path style="fill:#00B8A5;" d="M32.373,32.373c-12.497,12.497-12.497,32.758,0,45.255l45.254-45.255
				C65.131,19.876,44.869,19.876,32.373,32.373z"/>
		</g>
		<g>
			<circle style="fill:#D7FCF9;" cx="55" cy="55" r="27"/>
		</g>
		<g>
			<path style="fill:#FFFFFF;" d="M35.908,35.908c-10.545,10.544-10.545,27.64,0,38.184l38.184-38.184
				C63.548,25.364,46.452,25.364,35.908,35.908z"/>
		</g>
		<g>
			<g>
				<path style="fill:#AAF0E9;" d="M68.602,35.229c0.488,0.337,0.801,0.874,0.855,1.465c0.054,0.591-0.156,1.177-0.576,1.597
					L56.647,50.524V33.313c0-0.588,0.259-1.146,0.708-1.526c0.447-0.38,1.041-0.546,1.621-0.449
					C62.371,31.904,65.661,33.199,68.602,35.229z"/>
			</g>
			<g>
				<path style="fill:#AAF0E9;" d="M78.662,51.023c0.098,0.58-0.066,1.174-0.447,1.623c-0.381,0.449-0.939,0.707-1.527,0.707H59.476
					l12.232-12.232c0.42-0.419,1.004-0.631,1.595-0.578c0.592,0.053,1.13,0.366,1.467,0.854
					C76.801,44.337,78.096,47.629,78.662,51.023z"/>
			</g>
			<g>
				<path style="fill:#AAF0E9;" d="M74.769,68.604c-0.338,0.488-0.875,0.802-1.466,0.855c-0.591,0.053-1.176-0.159-1.596-0.579
					L60.184,57.355H76.56c0.6,0,1.167,0.269,1.547,0.732c0.38,0.463,0.533,1.073,0.416,1.661
					C77.898,62.869,76.646,65.886,74.769,68.604z"/>
			</g>
			<g>
				<path style="fill:#AAF0E9;" d="M68.879,71.707c0.42,0.42,0.632,1.004,0.578,1.595c-0.053,0.591-0.365,1.13-0.853,1.467
					c-2.941,2.03-6.232,3.326-9.627,3.893c-0.58,0.097-1.174-0.067-1.622-0.447c-0.448-0.38-0.707-0.939-0.707-1.528V59.476
					L68.879,71.707z"/>
			</g>
			<g>
				<path style="fill:#AAF0E9;" d="M52.645,76.561c0,0.599-0.269,1.167-0.733,1.547c-0.463,0.38-1.072,0.534-1.66,0.416
					c-3.121-0.625-6.138-1.876-8.855-3.753c-0.488-0.337-0.802-0.875-0.855-1.466c-0.053-0.591,0.16-1.176,0.58-1.596l11.524-11.524
					V76.561z"/>
			</g>
			<g>
				<path style="fill:#AAF0E9;" d="M49.816,57.354L38.292,68.88c-0.419,0.419-1.004,0.631-1.595,0.578
					c-0.592-0.054-1.13-0.366-1.467-0.854c-1.877-2.718-3.129-5.734-3.754-8.855c-0.117-0.588,0.034-1.198,0.414-1.662
					c0.381-0.464,0.949-0.732,1.549-0.732L49.816,57.354z"/>
			</g>
			<g>
				<path style="fill:#AAF0E9;" d="M50.523,53.353H33.312c-0.588,0-1.146-0.259-1.525-0.707c-0.381-0.449-0.547-1.043-0.449-1.622
					c0.566-3.395,1.861-6.686,3.893-9.626c0.337-0.489,0.875-0.802,1.466-0.855c0.591-0.054,1.176,0.159,1.596,0.579L50.523,53.353z
					"/>
			</g>
			<g>
				<path style="fill:#AAF0E9;" d="M52.645,49.817L41.121,38.292c-0.42-0.419-0.632-1.003-0.578-1.595
					c0.053-0.591,0.365-1.129,0.854-1.467c2.718-1.877,5.734-3.128,8.855-3.754c0.588-0.118,1.197,0.034,1.662,0.414
					c0.463,0.38,0.731,0.949,0.731,1.549V49.817z"/>
			</g>
		</g>
	</g>
</g>
<g id="R-Green" style="display:none;">
	<circle style="display:inline;fill:#77E0C4;" cx="55" cy="55" r="55"/>
	<g style="display:inline;">
		<g>
			<circle style="fill:#009687;" cx="55" cy="55" r="32"/>
		</g>
		<g>
			<path style="fill:#00B8A5;" d="M32.373,32.373c-12.497,12.497-12.497,32.758,0,45.255l45.254-45.255
				C65.131,19.876,44.869,19.876,32.373,32.373z"/>
		</g>
		<g>
			<circle style="fill:#D7FCF9;" cx="55" cy="55" r="27"/>
		</g>
		<g>
			<path style="fill:#FFFFFF;" d="M35.908,35.908c-10.545,10.544-10.545,27.64,0,38.184l38.184-38.184
				C63.548,25.364,46.452,25.364,35.908,35.908z"/>
		</g>
		<g>
			<g>
				<path style="fill:#AAF0E9;" d="M68.602,35.229c0.488,0.337,0.801,0.874,0.855,1.465c0.054,0.591-0.156,1.177-0.576,1.597
					L56.647,50.524V33.313c0-0.588,0.259-1.146,0.708-1.526c0.447-0.38,1.041-0.546,1.621-0.449
					C62.371,31.904,65.661,33.199,68.602,35.229z"/>
			</g>
			<g>
				<path style="fill:#AAF0E9;" d="M78.662,51.023c0.098,0.58-0.066,1.174-0.447,1.623c-0.381,0.449-0.939,0.707-1.527,0.707H59.476
					l12.232-12.232c0.42-0.419,1.004-0.631,1.595-0.578c0.592,0.053,1.13,0.366,1.467,0.854
					C76.801,44.337,78.096,47.629,78.662,51.023z"/>
			</g>
			<g>
				<path style="fill:#AAF0E9;" d="M74.77,68.604c-0.338,0.488-0.875,0.802-1.466,0.855c-0.591,0.053-1.176-0.159-1.596-0.579
					L60.184,57.355h16.377c0.6,0,1.167,0.269,1.547,0.732c0.38,0.463,0.533,1.073,0.416,1.661
					C77.898,62.869,76.646,65.886,74.77,68.604z"/>
			</g>
			<g>
				<path style="fill:#AAF0E9;" d="M68.879,71.708c0.42,0.42,0.632,1.004,0.578,1.595c-0.053,0.591-0.365,1.13-0.854,1.467
					c-2.941,2.03-6.232,3.326-9.627,3.893c-0.58,0.097-1.174-0.067-1.622-0.447c-0.448-0.38-0.707-0.939-0.707-1.528V59.476
					L68.879,71.708z"/>
			</g>
			<g>
				<path style="fill:#AAF0E9;" d="M52.646,76.561c0,0.599-0.269,1.167-0.733,1.547c-0.463,0.38-1.072,0.534-1.66,0.416
					c-3.121-0.625-6.138-1.876-8.855-3.753c-0.488-0.337-0.802-0.875-0.855-1.466c-0.053-0.591,0.16-1.176,0.58-1.596l11.524-11.524
					V76.561z"/>
			</g>
			<g>
				<path style="fill:#AAF0E9;" d="M49.816,57.354L38.292,68.88c-0.419,0.419-1.004,0.631-1.595,0.578
					c-0.592-0.054-1.13-0.366-1.467-0.854c-1.877-2.718-3.129-5.734-3.754-8.855c-0.117-0.588,0.034-1.198,0.414-1.662
					c0.381-0.464,0.949-0.732,1.549-0.732L49.816,57.354z"/>
			</g>
			<g>
				<path style="fill:#AAF0E9;" d="M50.523,53.353H33.312c-0.588,0-1.146-0.259-1.525-0.707c-0.381-0.449-0.547-1.043-0.449-1.622
					c0.566-3.395,1.861-6.686,3.893-9.626c0.337-0.489,0.875-0.802,1.466-0.855c0.591-0.054,1.176,0.159,1.596,0.579L50.523,53.353z
					"/>
			</g>
			<g>
				<path style="fill:#AAF0E9;" d="M52.646,49.817L41.121,38.292c-0.42-0.419-0.632-1.003-0.578-1.595
					c0.053-0.591,0.365-1.129,0.854-1.467c2.718-1.877,5.734-3.128,8.855-3.754c0.588-0.118,1.197,0.034,1.662,0.414
					c0.463,0.38,0.731,0.949,0.731,1.549V49.817z"/>
			</g>
		</g>
	</g>
</g>
<g id="Red" style="display:none;">
	<g style="display:inline;">
		<g>
			<circle style="fill:#C23023;" cx="55" cy="55" r="32"/>
		</g>
		<g>
			<path style="fill:#E54B44;" d="M32.373,32.373c-12.497,12.497-12.497,32.758,0,45.255l45.254-45.255
				C65.131,19.876,44.869,19.876,32.373,32.373z"/>
		</g>
		<g>
			<circle style="fill:#FFEFED;" cx="55" cy="55" r="27"/>
		</g>
		<g>
			<path style="fill:#FFFFFF;" d="M35.908,35.908c-10.545,10.544-10.545,27.64,0,38.184l38.184-38.184
				C63.548,25.364,46.452,25.364,35.908,35.908z"/>
		</g>
		<g>
			<g>
				<path style="fill:#FFD7D4;" d="M68.602,35.229c0.488,0.337,0.801,0.874,0.855,1.465c0.054,0.591-0.156,1.177-0.576,1.597
					L56.647,50.524V33.313c0-0.588,0.259-1.146,0.708-1.526c0.447-0.38,1.041-0.546,1.621-0.449
					C62.371,31.904,65.661,33.199,68.602,35.229z"/>
			</g>
			<g>
				<path style="fill:#FFD7D4;" d="M78.662,51.023c0.098,0.58-0.066,1.174-0.447,1.623c-0.381,0.449-0.939,0.707-1.527,0.707H59.476
					l12.232-12.232c0.42-0.419,1.004-0.631,1.595-0.578c0.592,0.053,1.13,0.366,1.467,0.854
					C76.801,44.337,78.096,47.629,78.662,51.023z"/>
			</g>
			<g>
				<path style="fill:#FFD7D4;" d="M74.77,68.604c-0.338,0.488-0.875,0.802-1.466,0.855c-0.591,0.053-1.176-0.159-1.596-0.579
					L60.184,57.355h16.377c0.6,0,1.167,0.269,1.547,0.732c0.38,0.463,0.533,1.073,0.416,1.661
					C77.898,62.869,76.646,65.886,74.77,68.604z"/>
			</g>
			<g>
				<path style="fill:#FFD7D4;" d="M68.879,71.707c0.42,0.42,0.632,1.004,0.578,1.595c-0.053,0.591-0.365,1.13-0.854,1.467
					c-2.941,2.03-6.232,3.326-9.627,3.893c-0.58,0.097-1.174-0.067-1.622-0.447c-0.448-0.38-0.707-0.939-0.707-1.528V59.476
					L68.879,71.707z"/>
			</g>
			<g>
				<path style="fill:#FFD7D4;" d="M52.646,76.561c0,0.599-0.269,1.167-0.733,1.547c-0.463,0.38-1.072,0.534-1.66,0.416
					c-3.121-0.625-6.138-1.876-8.855-3.753c-0.488-0.337-0.802-0.875-0.855-1.466c-0.053-0.591,0.16-1.176,0.58-1.596l11.524-11.524
					V76.561z"/>
			</g>
			<g>
				<path style="fill:#FFD7D4;" d="M49.816,57.354L38.292,68.88c-0.419,0.419-1.004,0.631-1.595,0.578
					c-0.592-0.054-1.13-0.366-1.467-0.854c-1.877-2.718-3.129-5.734-3.754-8.855c-0.117-0.588,0.034-1.198,0.414-1.662
					c0.381-0.464,0.949-0.732,1.549-0.732L49.816,57.354z"/>
			</g>
			<g>
				<path style="fill:#FFD7D4;" d="M50.523,53.353H33.312c-0.588,0-1.146-0.259-1.525-0.707c-0.381-0.449-0.547-1.043-0.449-1.622
					c0.566-3.395,1.861-6.686,3.893-9.626c0.337-0.489,0.875-0.802,1.466-0.855c0.591-0.054,1.176,0.159,1.596,0.579L50.523,53.353z
					"/>
			</g>
			<g>
				<path style="fill:#FFD7D4;" d="M52.646,49.817L41.121,38.292c-0.42-0.419-0.632-1.003-0.578-1.595
					c0.053-0.591,0.365-1.129,0.854-1.467c2.718-1.877,5.734-3.128,8.855-3.754c0.588-0.118,1.197,0.034,1.662,0.414
					c0.463,0.38,0.731,0.949,0.731,1.549V49.817z"/>
			</g>
		</g>
	</g>
</g>
<g id="R-Red" style="display:none;">
	<circle style="display:inline;fill:#FABBAF;" cx="55" cy="55" r="55"/>
	<g style="display:inline;">
		<g>
			<circle style="fill:#C23023;" cx="55" cy="55" r="32"/>
		</g>
		<g>
			<path style="fill:#E54B44;" d="M32.373,32.373c-12.497,12.497-12.497,32.758,0,45.255l45.254-45.255
				C65.131,19.876,44.869,19.876,32.373,32.373z"/>
		</g>
		<g>
			<circle style="fill:#FFEFED;" cx="55" cy="55" r="27"/>
		</g>
		<g>
			<path style="fill:#FFFFFF;" d="M35.908,35.908c-10.545,10.544-10.545,27.64,0,38.184l38.184-38.184
				C63.548,25.364,46.452,25.364,35.908,35.908z"/>
		</g>
		<g>
			<g>
				<path style="fill:#FFD7D4;" d="M68.602,35.229c0.488,0.337,0.801,0.874,0.855,1.465c0.054,0.591-0.156,1.177-0.576,1.597
					L56.647,50.524V33.313c0-0.588,0.259-1.146,0.708-1.526c0.447-0.38,1.041-0.546,1.621-0.449
					C62.371,31.904,65.661,33.199,68.602,35.229z"/>
			</g>
			<g>
				<path style="fill:#FFD7D4;" d="M78.662,51.023c0.098,0.58-0.066,1.174-0.447,1.623c-0.381,0.449-0.939,0.707-1.527,0.707H59.476
					l12.232-12.232c0.42-0.419,1.004-0.631,1.595-0.578c0.592,0.053,1.13,0.366,1.467,0.854
					C76.801,44.337,78.096,47.629,78.662,51.023z"/>
			</g>
			<g>
				<path style="fill:#FFD7D4;" d="M74.77,68.604c-0.338,0.488-0.875,0.802-1.466,0.855c-0.591,0.053-1.176-0.159-1.596-0.579
					L60.184,57.355h16.377c0.6,0,1.167,0.269,1.547,0.732c0.38,0.463,0.533,1.073,0.416,1.661
					C77.898,62.869,76.646,65.886,74.77,68.604z"/>
			</g>
			<g>
				<path style="fill:#FFD7D4;" d="M68.879,71.707c0.42,0.42,0.632,1.004,0.578,1.595c-0.053,0.591-0.365,1.13-0.854,1.467
					c-2.941,2.03-6.232,3.326-9.627,3.893c-0.58,0.097-1.174-0.067-1.622-0.447c-0.448-0.38-0.707-0.939-0.707-1.528V59.476
					L68.879,71.707z"/>
			</g>
			<g>
				<path style="fill:#FFD7D4;" d="M52.646,76.561c0,0.599-0.269,1.167-0.733,1.547c-0.463,0.38-1.072,0.534-1.66,0.416
					c-3.121-0.625-6.138-1.876-8.855-3.753c-0.488-0.337-0.802-0.875-0.855-1.466c-0.053-0.591,0.16-1.176,0.58-1.596l11.524-11.524
					V76.561z"/>
			</g>
			<g>
				<path style="fill:#FFD7D4;" d="M49.816,57.354L38.292,68.88c-0.419,0.419-1.004,0.631-1.595,0.578
					c-0.592-0.054-1.13-0.366-1.467-0.854c-1.877-2.718-3.129-5.734-3.754-8.855c-0.117-0.588,0.034-1.198,0.414-1.662
					c0.381-0.464,0.949-0.732,1.549-0.732L49.816,57.354z"/>
			</g>
			<g>
				<path style="fill:#FFD7D4;" d="M50.523,53.353H33.312c-0.588,0-1.146-0.259-1.525-0.707c-0.381-0.449-0.547-1.043-0.449-1.622
					c0.566-3.395,1.861-6.686,3.893-9.626c0.337-0.489,0.875-0.802,1.466-0.855c0.591-0.054,1.176,0.159,1.596,0.579L50.523,53.353z
					"/>
			</g>
			<g>
				<path style="fill:#FFD7D4;" d="M52.646,49.817L41.121,38.292c-0.42-0.419-0.632-1.003-0.578-1.595
					c0.053-0.591,0.365-1.129,0.854-1.467c2.718-1.877,5.734-3.128,8.855-3.754c0.588-0.118,1.197,0.034,1.662,0.414
					c0.463,0.38,0.731,0.949,0.731,1.549V49.817z"/>
			</g>
		</g>
	</g>
</g>
<g id="Yellow" style="display:none;">
	<g style="display:inline;">
		<g>
			<circle style="fill:#E07000;" cx="55" cy="55" r="32"/>
		</g>
		<g>
			<path style="fill:#FA9200;" d="M32.373,32.373c-12.497,12.497-12.497,32.758,0,45.255l45.254-45.255
				C65.131,19.876,44.869,19.876,32.373,32.373z"/>
		</g>
		<g>
			<circle style="fill:#FFF5D9;" cx="55" cy="55" r="27"/>
		</g>
		<g>
			<path style="fill:#FFFFFF;" d="M35.908,35.908c-10.545,10.544-10.545,27.64,0,38.184l38.184-38.184
				C63.548,25.364,46.452,25.364,35.908,35.908z"/>
		</g>
		<g>
			<g>
				<path style="fill:#FFE9A1;" d="M68.602,35.229c0.488,0.337,0.801,0.874,0.855,1.465c0.054,0.591-0.156,1.177-0.576,1.597
					L56.647,50.524V33.313c0-0.588,0.259-1.146,0.708-1.526c0.447-0.38,1.041-0.546,1.621-0.449
					C62.371,31.904,65.661,33.199,68.602,35.229z"/>
			</g>
			<g>
				<path style="fill:#FFE9A1;" d="M78.662,51.023c0.098,0.58-0.066,1.174-0.447,1.623c-0.381,0.449-0.939,0.707-1.527,0.707H59.476
					l12.232-12.232c0.42-0.419,1.004-0.631,1.595-0.578c0.592,0.053,1.13,0.366,1.467,0.854
					C76.801,44.337,78.096,47.629,78.662,51.023z"/>
			</g>
			<g>
				<path style="fill:#FFE9A1;" d="M74.77,68.604c-0.338,0.488-0.875,0.802-1.466,0.855c-0.591,0.053-1.176-0.159-1.596-0.579
					L60.184,57.355h16.377c0.6,0,1.167,0.269,1.547,0.732c0.38,0.463,0.533,1.073,0.416,1.661
					C77.898,62.869,76.646,65.886,74.77,68.604z"/>
			</g>
			<g>
				<path style="fill:#FFE9A1;" d="M68.879,71.708c0.42,0.42,0.632,1.004,0.578,1.595c-0.053,0.591-0.365,1.13-0.854,1.467
					c-2.941,2.03-6.232,3.326-9.627,3.893c-0.58,0.097-1.174-0.067-1.622-0.447c-0.448-0.38-0.707-0.939-0.707-1.528V59.476
					L68.879,71.708z"/>
			</g>
			<g>
				<path style="fill:#FFE9A1;" d="M52.646,76.561c0,0.599-0.269,1.167-0.733,1.547c-0.463,0.38-1.072,0.534-1.66,0.416
					c-3.121-0.625-6.138-1.876-8.855-3.753c-0.488-0.337-0.802-0.875-0.855-1.466c-0.053-0.591,0.16-1.176,0.58-1.596l11.524-11.524
					V76.561z"/>
			</g>
			<g>
				<path style="fill:#FFE9A1;" d="M49.816,57.354L38.292,68.88c-0.419,0.419-1.004,0.631-1.595,0.578
					c-0.592-0.054-1.13-0.366-1.467-0.854c-1.877-2.718-3.129-5.734-3.754-8.855c-0.117-0.588,0.034-1.198,0.414-1.662
					c0.381-0.464,0.949-0.732,1.549-0.732L49.816,57.354z"/>
			</g>
			<g>
				<path style="fill:#FFE9A1;" d="M50.523,53.353H33.312c-0.588,0-1.146-0.259-1.525-0.707c-0.381-0.449-0.547-1.043-0.449-1.622
					c0.566-3.395,1.861-6.686,3.893-9.626c0.337-0.489,0.875-0.802,1.466-0.855c0.591-0.054,1.176,0.159,1.596,0.579L50.523,53.353z
					"/>
			</g>
			<g>
				<path style="fill:#FFE9A1;" d="M52.646,49.817L41.121,38.292c-0.42-0.419-0.632-1.003-0.578-1.595
					c0.053-0.591,0.365-1.129,0.854-1.467c2.718-1.877,5.734-3.128,8.855-3.754c0.588-0.118,1.197,0.034,1.662,0.414
					c0.463,0.38,0.731,0.949,0.731,1.549V49.817z"/>
			</g>
		</g>
	</g>
</g>
<g id="R-Yellow" style="display:none;">
	<circle style="display:inline;fill:#FFD75E;" cx="55" cy="55" r="55"/>
	<g style="display:inline;">
		<g>
			<circle style="fill:#E07000;" cx="55" cy="55" r="32"/>
		</g>
		<g>
			<path style="fill:#FA9200;" d="M32.373,32.373c-12.497,12.497-12.497,32.758,0,45.255l45.254-45.255
				C65.131,19.876,44.869,19.876,32.373,32.373z"/>
		</g>
		<g>
			<circle style="fill:#FFF5D9;" cx="55" cy="55" r="27"/>
		</g>
		<g>
			<path style="fill:#FFFFFF;" d="M35.908,35.908c-10.545,10.544-10.545,27.64,0,38.184l38.184-38.184
				C63.548,25.364,46.452,25.364,35.908,35.908z"/>
		</g>
		<g>
			<g>
				<path style="fill:#FFE9A1;" d="M68.602,35.229c0.488,0.337,0.801,0.874,0.855,1.465c0.054,0.591-0.156,1.177-0.576,1.597
					L56.647,50.524V33.313c0-0.588,0.259-1.146,0.708-1.526c0.447-0.38,1.041-0.546,1.621-0.449
					C62.371,31.904,65.661,33.199,68.602,35.229z"/>
			</g>
			<g>
				<path style="fill:#FFE9A1;" d="M78.662,51.023c0.098,0.58-0.066,1.174-0.447,1.623c-0.381,0.449-0.939,0.707-1.527,0.707H59.476
					l12.232-12.232c0.42-0.419,1.004-0.631,1.595-0.578c0.592,0.053,1.13,0.366,1.467,0.854
					C76.801,44.337,78.096,47.629,78.662,51.023z"/>
			</g>
			<g>
				<path style="fill:#FFE9A1;" d="M74.769,68.604c-0.338,0.488-0.875,0.802-1.466,0.855c-0.591,0.053-1.176-0.159-1.596-0.579
					L60.184,57.355H76.56c0.6,0,1.167,0.269,1.547,0.732c0.38,0.463,0.533,1.073,0.416,1.661
					C77.898,62.869,76.646,65.886,74.769,68.604z"/>
			</g>
			<g>
				<path style="fill:#FFE9A1;" d="M68.879,71.708c0.42,0.42,0.632,1.004,0.578,1.595c-0.053,0.591-0.365,1.13-0.853,1.467
					c-2.941,2.03-6.232,3.326-9.627,3.893c-0.58,0.097-1.174-0.067-1.622-0.447c-0.448-0.38-0.707-0.939-0.707-1.528V59.476
					L68.879,71.708z"/>
			</g>
			<g>
				<path style="fill:#FFE9A1;" d="M52.645,76.561c0,0.599-0.269,1.167-0.733,1.547c-0.463,0.38-1.072,0.534-1.66,0.416
					c-3.121-0.625-6.138-1.876-8.855-3.753c-0.488-0.337-0.802-0.875-0.855-1.466c-0.053-0.591,0.16-1.176,0.58-1.596l11.524-11.524
					V76.561z"/>
			</g>
			<g>
				<path style="fill:#FFE9A1;" d="M49.816,57.354L38.292,68.88c-0.419,0.419-1.004,0.631-1.595,0.578
					c-0.592-0.054-1.13-0.366-1.467-0.854c-1.877-2.718-3.129-5.734-3.754-8.855c-0.117-0.588,0.034-1.198,0.414-1.662
					c0.381-0.464,0.949-0.732,1.549-0.732L49.816,57.354z"/>
			</g>
			<g>
				<path style="fill:#FFE9A1;" d="M50.523,53.353H33.312c-0.588,0-1.146-0.259-1.525-0.707c-0.381-0.449-0.547-1.043-0.449-1.622
					c0.566-3.395,1.861-6.686,3.893-9.626c0.337-0.489,0.875-0.802,1.466-0.855c0.591-0.054,1.176,0.159,1.596,0.579L50.523,53.353z
					"/>
			</g>
			<g>
				<path style="fill:#FFE9A1;" d="M52.645,49.817L41.121,38.292c-0.42-0.419-0.632-1.003-0.578-1.595
					c0.053-0.591,0.365-1.129,0.854-1.467c2.718-1.877,5.734-3.128,8.855-3.754c0.588-0.118,1.197,0.034,1.662,0.414
					c0.463,0.38,0.731,0.949,0.731,1.549V49.817z"/>
			</g>
		</g>
	</g>
</g>
</svg>
