<?xml version="1.0" encoding="iso-8859-1"?>
<!-- Generator: Adobe Illustrator 17.1.0, SVG Export Plug-In . SVG Version: 6.00 Build 0)  -->
<!DOCTYPE svg PUBLIC "-//W3C//DTD SVG 1.0//EN" "http://www.w3.org/TR/2001/REC-SVG-20010904/DTD/svg10.dtd">
<svg version="1.0" xmlns="http://www.w3.org/2000/svg" xmlns:xlink="http://www.w3.org/1999/xlink" x="0px" y="0px" width="110px"
	 height="110px" viewBox="0 0 110 110" style="enable-background:new 0 0 110 110;" xml:space="preserve">
<g id="Artboard">
</g>
<g id="Multicolor">
	<circle style="fill:#32BEA6;" cx="55" cy="55" r="55"/>
	<g>
		<path style="fill:#D4A263;" d="M87,39v36c0,2.21-1.79,4-4,4H39c-2.21,0-4-1.79-4-4V39c0-0.6,0.14-1.18,0.38-1.69
			C36.01,35.94,37.4,35,39,35h44c1.6,0,2.99,0.94,3.62,2.31C86.86,37.82,87,38.4,87,39z"/>
		<path style="fill:#EDBC7C;" d="M86.62,37.31L79,47H43l-7.62-9.69C36.01,35.94,37.4,35,39,35h44C84.6,35,85.99,35.94,86.62,37.31z"
			/>
		<path style="fill:#FBC8C8;" d="M23,56.696c0-0.514,0.132-1.022,0.384-1.469C24.409,53.405,27.649,49,35,49v4.634h16.96
			c1.28,0,2.317,1.037,2.317,2.317c0,1.28-1.037,2.317-2.317,2.317H40.955c-0.32,0-0.579,0.259-0.579,0.579
			c0,0.32,0.259,0.579,0.579,0.579h12.163c1.28,0,2.317,1.037,2.317,2.317c0,1.28-1.037,2.317-2.317,2.317H40.955
			c-0.32,0-0.579,0.259-0.579,0.579s0.259,0.579,0.579,0.579H51.96c1.28,0,2.317,1.037,2.317,2.317c0,1.28-1.037,2.317-2.317,2.317
			h-9.846c-0.32,0-0.579,0.259-0.579,0.579s0.259,0.579,0.579,0.579h6.371c1.28,0,2.317,1.037,2.317,2.317s-1.037,2.317-2.317,2.317
			H30.512c-1.843,0-3.611-0.732-4.915-2.036l-1.719-1.719C23.316,71.325,23,70.562,23,69.767V56.696z"/>
		<path style="fill:#FBD7D7;" d="M35,49c-7.351,0-10.591,4.405-11.616,6.227C23.132,55.674,23,56.182,23,56.696v13.071
			c0,0.796,0.316,1.559,0.879,2.122l0.991,0.991l19.245-19.245H35V49z"/>
		<path style="fill:#8E6134;" d="M66,40h-3.277c-0.346-0.595-0.984-1-1.723-1c-0.738,0-1.376,0.405-1.723,1H56c-0.552,0-1,0.448-1,1
			s0.448,1,1,1h3.277c0.346,0.595,0.984,1,1.723,1c0.739,0,1.376-0.405,1.723-1H66c0.552,0,1-0.448,1-1S66.552,40,66,40z"/>
	</g>
</g>
</svg>
