<?xml version="1.0" encoding="iso-8859-1"?>
<!-- Generator: Adobe Illustrator 17.1.0, SVG Export Plug-In . SVG Version: 6.00 Build 0)  -->
<!DOCTYPE svg PUBLIC "-//W3C//DTD SVG 1.0//EN" "http://www.w3.org/TR/2001/REC-SVG-20010904/DTD/svg10.dtd">
<svg version="1.0" xmlns="http://www.w3.org/2000/svg" xmlns:xlink="http://www.w3.org/1999/xlink" x="0px" y="0px" width="110px"
	 height="110px" viewBox="0 0 110 110" style="enable-background:new 0 0 110 110;" xml:space="preserve">
<g id="Artboard" style="display:none;">
	<rect x="-991" y="-327" style="display:inline;fill:#8C8C8C;" width="1412" height="743"/>
</g>
<g id="R-Multicolor">
	<circle style="fill:#25B7D3;" cx="55" cy="55" r="55"/>
	<g>
		<path style="fill:#FFFFFF;" d="M55,25c-16.568,0-30,13.431-30,30s13.432,30,30,30s30-13.431,30-30S71.568,25,55,25z M55,71
			c-8.836,0-16-7.164-16-16s7.164-16,16-16s16,7.164,16,16S63.836,71,55,71z"/>
		<g>
			<path style="fill:#E2E4E5;" d="M55,33c-12.15,0-22,9.85-22,22s9.85,22,22,22s22-9.85,22-22S67.15,33,55,33z M55,71
				c-8.836,0-16-7.164-16-16s7.164-16,16-16s16,7.164,16,16S63.836,71,55,71z"/>
		</g>
		<path style="fill:#FA5655;" d="M23.933,47.29c0.254-1.033,1.27-1.685,2.316-1.486l13.806,2.626
			c0.557,0.106,1.043,0.444,1.337,0.929c0.168,0.277,0.17,11.005,0.002,11.282c-0.294,0.486-0.781,0.823-1.339,0.929l-13.806,2.626
			c-1.044,0.199-2.062-0.454-2.316-1.486C23.326,60.241,23,57.656,23,55C23,52.344,23.326,49.759,23.933,47.29z"/>
		<path style="fill:#FA5655;" d="M47.29,86.067c-1.033-0.254-1.685-1.27-1.486-2.316l2.626-13.806
			c0.106-0.557,0.444-1.043,0.929-1.337c0.277-0.168,11.005-0.17,11.282-0.002c0.486,0.294,0.823,0.781,0.929,1.339l2.626,13.806
			c0.199,1.044-0.454,2.062-1.486,2.316C60.241,86.674,57.656,87,55,87C52.344,87,49.759,86.674,47.29,86.067z"/>
		<path style="fill:#FA5655;" d="M86.067,62.71c-0.254,1.033-1.27,1.685-2.316,1.486L69.945,61.57
			c-0.557-0.106-1.043-0.444-1.337-0.929c-0.168-0.277-0.17-11.005-0.002-11.282c0.294-0.486,0.781-0.823,1.339-0.929l13.806-2.626
			c1.044-0.199,2.062,0.454,2.316,1.486C86.674,49.759,87,52.344,87,55C87,57.656,86.674,60.241,86.067,62.71z"/>
		<path style="fill:#FA5655;" d="M62.71,23.933c1.033,0.254,1.685,1.27,1.486,2.316L61.57,40.055
			c-0.106,0.557-0.444,1.043-0.929,1.337c-0.277,0.168-11.005,0.17-11.282,0.002c-0.486-0.294-0.823-0.781-0.929-1.339
			l-2.626-13.806c-0.199-1.044,0.454-2.062,1.486-2.316C49.759,23.326,52.344,23,55,23C57.656,23,60.241,23.326,62.71,23.933z"/>
		<g>
			<path style="fill:#DF2C2C;" d="M41.394,60.641c0.168-0.277,0.166-11.005-0.001-11.282c-0.294-0.485-0.78-0.823-1.337-0.929
				l-5.686-1.082C33.485,49.732,33,52.309,33,55s0.485,5.268,1.369,7.651l5.686-1.082C40.612,61.464,41.1,61.127,41.394,60.641z"/>
			<path style="fill:#DF2C2C;" d="M60.641,68.606c-0.277-0.168-11.005-0.166-11.282,0.001c-0.485,0.294-0.823,0.78-0.929,1.337
				l-1.082,5.686C49.732,76.515,52.309,77,55,77s5.268-0.485,7.651-1.369l-1.082-5.686C61.464,69.388,61.127,68.9,60.641,68.606z"/>
			<path style="fill:#DF2C2C;" d="M75.631,47.349l-5.686,1.082c-0.558,0.106-1.045,0.443-1.339,0.929
				c-0.168,0.277-0.166,11.005,0.001,11.282c0.294,0.485,0.78,0.823,1.337,0.929l5.686,1.082C76.515,60.268,77,57.691,77,55
				S76.515,49.732,75.631,47.349z"/>
			<path style="fill:#DF2C2C;" d="M49.359,41.394c0.277,0.168,11.005,0.166,11.282-0.001c0.485-0.294,0.823-0.78,0.929-1.337
				l1.082-5.686C60.268,33.485,57.691,33,55,33s-5.268,0.485-7.651,1.369l1.082,5.686C48.536,40.612,48.873,41.1,49.359,41.394z"/>
		</g>
	</g>
</g>
<g id="Multicolor" style="display:none;">
	<g style="display:inline;">
		<path style="fill:#FFFFFF;" d="M55,25c-16.568,0-30,13.431-30,30s13.432,30,30,30s30-13.431,30-30S71.568,25,55,25z M55,71
			c-8.836,0-16-7.164-16-16s7.164-16,16-16s16,7.164,16,16S63.836,71,55,71z"/>
		<g>
			<path style="fill:#E2E4E5;" d="M55,33c-12.15,0-22,9.85-22,22s9.85,22,22,22s22-9.85,22-22S67.15,33,55,33z M55,71
				c-8.836,0-16-7.164-16-16s7.164-16,16-16s16,7.164,16,16S63.836,71,55,71z"/>
		</g>
		<path style="fill:#FA5655;" d="M23.933,47.29c0.254-1.033,1.27-1.685,2.316-1.486l13.806,2.626
			c0.557,0.106,1.043,0.444,1.337,0.929c0.168,0.277,0.17,11.005,0.002,11.282c-0.294,0.486-0.781,0.823-1.339,0.929l-13.806,2.626
			c-1.044,0.199-2.062-0.454-2.316-1.486C23.326,60.241,23,57.656,23,55C23,52.344,23.326,49.759,23.933,47.29z"/>
		<path style="fill:#FA5655;" d="M47.29,86.067c-1.033-0.254-1.685-1.27-1.486-2.316l2.626-13.806
			c0.106-0.557,0.444-1.043,0.929-1.337c0.277-0.168,11.005-0.17,11.282-0.002c0.486,0.294,0.823,0.781,0.929,1.339l2.626,13.806
			c0.199,1.044-0.454,2.062-1.486,2.316C60.241,86.674,57.656,87,55,87C52.344,87,49.759,86.674,47.29,86.067z"/>
		<path style="fill:#FA5655;" d="M86.067,62.71c-0.254,1.033-1.27,1.685-2.316,1.486L69.945,61.57
			c-0.557-0.106-1.043-0.444-1.337-0.929c-0.168-0.277-0.17-11.005-0.002-11.282c0.294-0.486,0.781-0.823,1.339-0.929l13.806-2.626
			c1.044-0.199,2.062,0.454,2.316,1.486C86.674,49.759,87,52.344,87,55C87,57.656,86.674,60.241,86.067,62.71z"/>
		<path style="fill:#FA5655;" d="M62.71,23.933c1.033,0.254,1.685,1.27,1.486,2.316L61.57,40.055
			c-0.106,0.557-0.444,1.043-0.929,1.337c-0.277,0.168-11.005,0.17-11.282,0.002c-0.486-0.294-0.823-0.781-0.929-1.339
			l-2.626-13.806c-0.199-1.044,0.454-2.062,1.486-2.316C49.759,23.326,52.344,23,55,23C57.656,23,60.241,23.326,62.71,23.933z"/>
		<g>
			<path style="fill:#DF2C2C;" d="M41.394,60.641c0.168-0.277,0.166-11.005-0.001-11.282c-0.294-0.485-0.78-0.823-1.337-0.929
				l-5.686-1.082C33.485,49.732,33,52.309,33,55s0.485,5.268,1.369,7.651l5.686-1.082C40.612,61.464,41.1,61.127,41.394,60.641z"/>
			<path style="fill:#DF2C2C;" d="M60.641,68.606c-0.277-0.168-11.005-0.166-11.282,0.001c-0.485,0.294-0.823,0.78-0.929,1.337
				l-1.082,5.686C49.732,76.515,52.309,77,55,77s5.268-0.485,7.651-1.369l-1.082-5.686C61.464,69.388,61.127,68.9,60.641,68.606z"/>
			<path style="fill:#DF2C2C;" d="M75.631,47.349l-5.686,1.082c-0.558,0.106-1.045,0.443-1.339,0.929
				c-0.168,0.277-0.166,11.005,0.001,11.282c0.294,0.485,0.78,0.823,1.337,0.929l5.686,1.082C76.515,60.268,77,57.691,77,55
				S76.515,49.732,75.631,47.349z"/>
			<path style="fill:#DF2C2C;" d="M49.359,41.394c0.277,0.168,11.005,0.166,11.282-0.001c0.485-0.294,0.823-0.78,0.929-1.337
				l1.082-5.686C60.268,33.485,57.691,33,55,33s-5.268,0.485-7.651,1.369l1.082,5.686C48.536,40.612,48.873,41.1,49.359,41.394z"/>
		</g>
	</g>
</g>
<g id="Blue" style="display:none;">
	<g style="display:inline;">
		<g>
			<path style="fill:#FFFFFF;" d="M55.003,25c-16.568,0-30,13.432-30,30c0,16.569,13.432,30,30,30s30-13.431,30-30
				C85.003,38.431,71.571,25,55.003,25z M55.003,71c-8.836,0-16-7.164-16-16s7.164-16,16-16s16,7.164,16,16S63.839,71,55.003,71z"/>
		</g>
		<g>
			<g>
				<path style="fill:#BBE7F2;" d="M55.003,33c-12.15,0-22,9.85-22,22s9.85,22,22,22s22-9.85,22-22S67.153,33,55.003,33z M55.003,71
					c-8.836,0-16-7.164-16-16s7.164-16,16-16s16,7.164,16,16S63.839,71,55.003,71z"/>
			</g>
		</g>
		<g>
			<path style="fill:#009FC7;" d="M23.936,47.29c0.254-1.033,1.27-1.685,2.315-1.486l13.806,2.626
				c0.558,0.105,1.043,0.443,1.337,0.929c0.168,0.277,0.17,11.005,0.002,11.282c-0.294,0.486-0.782,0.823-1.339,0.929l-13.806,2.625
				c-1.044,0.199-2.062-0.454-2.316-1.485c-0.606-2.47-0.933-5.055-0.933-7.71C23.003,52.345,23.329,49.759,23.936,47.29z"/>
		</g>
		<g>
			<path style="fill:#009FC7;" d="M47.293,86.067c-1.034-0.254-1.685-1.271-1.486-2.316l2.627-13.806
				c0.105-0.557,0.443-1.043,0.929-1.337c0.277-0.167,11.005-0.169,11.282-0.001c0.486,0.294,0.823,0.781,0.929,1.339l2.626,13.806
				c0.199,1.044-0.454,2.062-1.486,2.315C60.244,86.674,57.659,87,55.003,87S49.762,86.674,47.293,86.067z"/>
		</g>
		<g>
			<path style="fill:#009FC7;" d="M86.07,62.71c-0.254,1.033-1.27,1.685-2.315,1.485L69.948,61.57
				c-0.558-0.106-1.043-0.444-1.337-0.93c-0.167-0.276-0.169-11.005-0.002-11.282c0.294-0.485,0.782-0.823,1.339-0.929l13.806-2.626
				c1.044-0.198,2.062,0.454,2.315,1.486c0.607,2.469,0.933,5.054,0.933,7.71S86.677,60.241,86.07,62.71z"/>
		</g>
		<g>
			<path style="fill:#009FC7;" d="M62.713,23.933c1.034,0.254,1.685,1.27,1.486,2.315l-2.626,13.806
				c-0.106,0.558-0.444,1.043-0.93,1.337c-0.277,0.168-11.005,0.17-11.282,0.002c-0.486-0.294-0.823-0.781-0.929-1.339
				l-2.627-13.806c-0.198-1.044,0.454-2.062,1.486-2.316C49.762,23.327,52.347,23,55.003,23S60.244,23.327,62.713,23.933z"/>
		</g>
		<g>
			<g>
				<path style="fill:#0081A1;" d="M41.396,60.641c0.168-0.277,0.166-11.005-0.001-11.282c-0.294-0.486-0.78-0.823-1.337-0.929
					l-5.686-1.082c-0.884,2.383-1.369,4.961-1.369,7.651s0.485,5.268,1.369,7.651l5.686-1.082
					C40.615,61.464,41.102,61.127,41.396,60.641z"/>
			</g>
			<g>
				<path style="fill:#0081A1;" d="M60.644,68.606c-0.277-0.168-11.005-0.166-11.282,0.001c-0.486,0.294-0.823,0.78-0.929,1.337
					l-1.082,5.686C49.735,76.515,52.312,77,55.003,77c2.691,0,5.268-0.485,7.651-1.369l-1.082-5.686
					C61.467,69.388,61.13,68.9,60.644,68.606z"/>
			</g>
			<g>
				<path style="fill:#0081A1;" d="M75.634,47.348l-5.686,1.082c-0.558,0.106-1.045,0.442-1.339,0.929
					c-0.168,0.277-0.166,11.005,0.001,11.282c0.294,0.485,0.78,0.823,1.337,0.929l5.686,1.082c0.884-2.383,1.369-4.961,1.369-7.651
					S76.518,49.732,75.634,47.348z"/>
			</g>
			<g>
				<path style="fill:#0081A1;" d="M49.362,41.393c0.277,0.168,11.005,0.166,11.282-0.001c0.485-0.294,0.823-0.78,0.929-1.337
					l1.082-5.686C60.271,33.485,57.694,33,55.003,33c-2.691,0-5.268,0.485-7.651,1.369l1.082,5.686
					C48.539,40.612,48.875,41.099,49.362,41.393z"/>
			</g>
		</g>
	</g>
</g>
<g id="R-Blue" style="display:none;">
	<g style="display:inline;">
		<circle style="fill:#81D2EB;" cx="55" cy="55" r="55"/>
	</g>
	<g style="display:inline;">
		<g>
			<path style="fill:#FFFFFF;" d="M55,25c-16.568,0-30,13.432-30,30c0,16.569,13.432,30,30,30s30-13.431,30-30
				C85,38.432,71.568,25,55,25z M55,71c-8.836,0-16-7.164-16-16s7.164-16,16-16s16,7.164,16,16S63.836,71,55,71z"/>
		</g>
		<g>
			<g>
				<path style="fill:#BBE7F2;" d="M55,33c-12.15,0-22,9.85-22,22s9.85,22,22,22s22-9.85,22-22S67.15,33,55,33z M55,71
					c-8.836,0-16-7.164-16-16s7.164-16,16-16s16,7.164,16,16S63.836,71,55,71z"/>
			</g>
		</g>
		<g>
			<path style="fill:#009FC7;" d="M23.933,47.29c0.254-1.033,1.27-1.685,2.315-1.486l13.806,2.626
				c0.558,0.105,1.043,0.443,1.337,0.929c0.168,0.277,0.17,11.005,0.002,11.282c-0.294,0.486-0.782,0.823-1.339,0.929l-13.806,2.625
				c-1.044,0.199-2.062-0.454-2.316-1.485C23.326,60.241,23,57.656,23,55C23,52.345,23.326,49.759,23.933,47.29z"/>
		</g>
		<g>
			<path style="fill:#009FC7;" d="M47.29,86.067c-1.034-0.254-1.685-1.271-1.486-2.316l2.627-13.806
				c0.105-0.557,0.443-1.043,0.929-1.337c0.277-0.168,11.005-0.169,11.282-0.002c0.486,0.295,0.823,0.781,0.929,1.339l2.625,13.806
				c0.199,1.044-0.454,2.062-1.486,2.315C60.241,86.674,57.656,87,55,87S49.759,86.674,47.29,86.067z"/>
		</g>
		<g>
			<path style="fill:#009FC7;" d="M86.067,62.71c-0.254,1.033-1.27,1.685-2.315,1.485L69.945,61.57
				c-0.558-0.106-1.043-0.444-1.337-0.93c-0.168-0.276-0.169-11.005-0.002-11.282c0.294-0.485,0.782-0.823,1.339-0.929l13.806-2.626
				c1.044-0.198,2.062,0.454,2.315,1.486C86.674,49.759,87,52.344,87,55S86.674,60.241,86.067,62.71z"/>
		</g>
		<g>
			<path style="fill:#009FC7;" d="M62.71,23.933c1.034,0.254,1.685,1.27,1.486,2.315L61.57,40.055
				c-0.106,0.558-0.444,1.043-0.93,1.337c-0.277,0.168-11.005,0.17-11.282,0.002c-0.486-0.294-0.823-0.781-0.929-1.339
				l-2.627-13.806c-0.198-1.044,0.454-2.062,1.486-2.316C49.759,23.327,52.344,23,55,23S60.241,23.327,62.71,23.933z"/>
		</g>
		<g>
			<g>
				<path style="fill:#0081A1;" d="M41.394,60.641c0.168-0.277,0.166-11.005-0.001-11.282c-0.294-0.486-0.78-0.823-1.337-0.929
					l-5.686-1.082C33.485,49.732,33,52.309,33,55s0.485,5.268,1.369,7.651l5.686-1.082C40.612,61.464,41.1,61.127,41.394,60.641z"/>
			</g>
			<g>
				<path style="fill:#0081A1;" d="M60.641,68.606c-0.277-0.168-11.005-0.166-11.282,0.002c-0.486,0.294-0.823,0.78-0.929,1.337
					l-1.082,5.686C49.732,76.515,52.309,77,55,77c2.691,0,5.268-0.485,7.651-1.369l-1.082-5.686
					C61.464,69.388,61.127,68.9,60.641,68.606z"/>
			</g>
			<g>
				<path style="fill:#0081A1;" d="M75.631,47.349l-5.686,1.082c-0.558,0.106-1.045,0.442-1.339,0.929
					c-0.168,0.277-0.166,11.005,0.002,11.282c0.294,0.485,0.78,0.823,1.337,0.929l5.686,1.082C76.515,60.268,77,57.691,77,55
					S76.515,49.732,75.631,47.349z"/>
			</g>
			<g>
				<path style="fill:#0081A1;" d="M49.359,41.394c0.277,0.168,11.005,0.166,11.282-0.001c0.485-0.294,0.823-0.78,0.929-1.337
					l1.082-5.686C60.268,33.485,57.691,33,55,33c-2.691,0-5.268,0.485-7.651,1.369l1.082,5.686
					C48.536,40.612,48.873,41.1,49.359,41.394z"/>
			</g>
		</g>
	</g>
</g>
<g id="Green" style="display:none;">
	<g style="display:inline;">
		<g>
			<path style="fill:#FFFFFF;" d="M55.003,25c-16.568,0-30,13.432-30,30c0,16.569,13.432,30,30,30s30-13.431,30-30
				C85.003,38.432,71.571,25,55.003,25z M55.003,71c-8.836,0-16-7.164-16-16s7.164-16,16-16s16,7.164,16,16S63.839,71,55.003,71z"/>
		</g>
		<g>
			<g>
				<path style="fill:#AAF0E9;" d="M55.003,33c-12.15,0-22,9.85-22,22s9.85,22,22,22s22-9.85,22-22S67.153,33,55.003,33z M55.003,71
					c-8.836,0-16-7.164-16-16s7.164-16,16-16s16,7.164,16,16S63.839,71,55.003,71z"/>
			</g>
		</g>
		<g>
			<path style="fill:#00B8A5;" d="M23.936,47.29c0.254-1.033,1.27-1.685,2.315-1.486l13.806,2.626
				c0.558,0.105,1.043,0.443,1.337,0.929c0.168,0.277,0.17,11.005,0.002,11.282c-0.294,0.486-0.782,0.823-1.339,0.929l-13.806,2.625
				c-1.044,0.199-2.062-0.454-2.316-1.485c-0.606-2.47-0.933-5.055-0.933-7.71C23.003,52.345,23.329,49.759,23.936,47.29z"/>
		</g>
		<g>
			<path style="fill:#00B8A5;" d="M47.293,86.067c-1.034-0.254-1.685-1.271-1.486-2.316l2.627-13.806
				c0.105-0.557,0.443-1.043,0.929-1.337c0.277-0.168,11.005-0.169,11.282-0.002c0.486,0.295,0.823,0.781,0.929,1.339l2.626,13.806
				c0.199,1.044-0.454,2.062-1.486,2.315C60.244,86.674,57.659,87,55.003,87S49.762,86.674,47.293,86.067z"/>
		</g>
		<g>
			<path style="fill:#00B8A5;" d="M86.07,62.71c-0.254,1.033-1.27,1.685-2.315,1.485L69.948,61.57
				c-0.558-0.106-1.043-0.444-1.337-0.93c-0.167-0.276-0.169-11.005-0.002-11.282c0.294-0.485,0.782-0.823,1.339-0.929l13.806-2.626
				c1.044-0.198,2.062,0.454,2.315,1.486c0.607,2.469,0.933,5.054,0.933,7.71S86.677,60.241,86.07,62.71z"/>
		</g>
		<g>
			<path style="fill:#00B8A5;" d="M62.713,23.933c1.034,0.254,1.685,1.27,1.486,2.315l-2.626,13.806
				c-0.106,0.558-0.444,1.043-0.93,1.337c-0.277,0.168-11.005,0.17-11.282,0.002c-0.486-0.294-0.823-0.781-0.929-1.339
				l-2.627-13.806c-0.198-1.044,0.454-2.062,1.486-2.316C49.762,23.327,52.347,23,55.003,23S60.244,23.327,62.713,23.933z"/>
		</g>
		<g>
			<g>
				<path style="fill:#009687;" d="M41.396,60.641c0.168-0.277,0.166-11.005-0.001-11.282c-0.294-0.486-0.78-0.823-1.337-0.929
					l-5.686-1.082c-0.884,2.383-1.369,4.961-1.369,7.651s0.485,5.268,1.369,7.651l5.686-1.082
					C40.615,61.464,41.102,61.127,41.396,60.641z"/>
			</g>
			<g>
				<path style="fill:#009687;" d="M60.644,68.606c-0.277-0.168-11.005-0.166-11.282,0.002c-0.486,0.294-0.823,0.78-0.929,1.337
					l-1.082,5.686C49.735,76.515,52.312,77,55.003,77c2.691,0,5.268-0.485,7.651-1.369l-1.082-5.686
					C61.467,69.388,61.13,68.9,60.644,68.606z"/>
			</g>
			<g>
				<path style="fill:#009687;" d="M75.634,47.349l-5.686,1.082c-0.558,0.106-1.045,0.442-1.339,0.929
					c-0.168,0.277-0.166,11.005,0.001,11.282c0.294,0.485,0.78,0.823,1.337,0.929l5.686,1.082c0.884-2.383,1.369-4.961,1.369-7.651
					S76.518,49.732,75.634,47.349z"/>
			</g>
			<g>
				<path style="fill:#009687;" d="M49.362,41.394c0.277,0.168,11.005,0.166,11.282-0.001c0.485-0.294,0.823-0.78,0.929-1.337
					l1.082-5.686C60.271,33.485,57.694,33,55.003,33c-2.691,0-5.268,0.485-7.651,1.369l1.082,5.686
					C48.539,40.612,48.875,41.1,49.362,41.394z"/>
			</g>
		</g>
	</g>
</g>
<g id="R-Green" style="display:none;">
	<g style="display:inline;">
		<circle style="fill:#87E0C8;" cx="55" cy="55" r="55"/>
	</g>
	<g style="display:inline;">
		<g>
			<path style="fill:#FFFFFF;" d="M55,25c-16.568,0-30,13.432-30,30c0,16.569,13.432,30,30,30s30-13.431,30-30
				C85,38.432,71.568,25,55,25z M55,71c-8.836,0-16-7.164-16-16s7.164-16,16-16s16,7.164,16,16S63.836,71,55,71z"/>
		</g>
		<g>
			<g>
				<path style="fill:#AAF0E9;" d="M55,33c-12.15,0-22,9.85-22,22s9.85,22,22,22s22-9.85,22-22S67.15,33,55,33z M55,71
					c-8.836,0-16-7.164-16-16s7.164-16,16-16s16,7.164,16,16S63.836,71,55,71z"/>
			</g>
		</g>
		<g>
			<path style="fill:#00B8A5;" d="M23.933,47.29c0.254-1.033,1.27-1.685,2.315-1.486l13.806,2.626
				c0.558,0.105,1.043,0.443,1.337,0.929c0.168,0.277,0.17,11.005,0.002,11.282c-0.294,0.486-0.782,0.823-1.339,0.929l-13.806,2.625
				c-1.044,0.199-2.062-0.454-2.316-1.485C23.326,60.241,23,57.656,23,55C23,52.345,23.326,49.759,23.933,47.29z"/>
		</g>
		<g>
			<path style="fill:#00B8A5;" d="M47.29,86.067c-1.034-0.254-1.685-1.271-1.486-2.316l2.627-13.806
				c0.105-0.557,0.443-1.043,0.929-1.337c0.277-0.168,11.005-0.169,11.282-0.002c0.486,0.295,0.823,0.781,0.929,1.339l2.625,13.806
				c0.199,1.044-0.454,2.062-1.486,2.315C60.241,86.674,57.656,87,55,87S49.759,86.674,47.29,86.067z"/>
		</g>
		<g>
			<path style="fill:#00B8A5;" d="M86.067,62.71c-0.254,1.033-1.27,1.685-2.315,1.485L69.945,61.57
				c-0.558-0.106-1.043-0.444-1.337-0.93c-0.168-0.276-0.169-11.005-0.002-11.282c0.294-0.485,0.782-0.823,1.339-0.929l13.806-2.626
				c1.044-0.198,2.062,0.454,2.315,1.486C86.674,49.759,87,52.344,87,55S86.674,60.241,86.067,62.71z"/>
		</g>
		<g>
			<path style="fill:#00B8A5;" d="M62.71,23.933c1.034,0.254,1.685,1.27,1.486,2.315L61.57,40.055
				c-0.106,0.558-0.444,1.043-0.93,1.337c-0.277,0.168-11.005,0.17-11.282,0.002c-0.486-0.294-0.823-0.781-0.929-1.339
				l-2.627-13.806c-0.198-1.044,0.454-2.062,1.486-2.316C49.759,23.327,52.344,23,55,23S60.241,23.327,62.71,23.933z"/>
		</g>
		<g>
			<g>
				<path style="fill:#009687;" d="M41.394,60.641c0.168-0.277,0.166-11.005-0.001-11.282c-0.294-0.486-0.78-0.823-1.337-0.929
					l-5.686-1.082C33.485,49.732,33,52.309,33,55s0.485,5.268,1.369,7.651l5.686-1.082C40.612,61.464,41.1,61.127,41.394,60.641z"/>
			</g>
			<g>
				<path style="fill:#009687;" d="M60.641,68.606c-0.277-0.168-11.005-0.166-11.282,0.002c-0.486,0.294-0.823,0.78-0.929,1.337
					l-1.082,5.686C49.732,76.515,52.309,77,55,77c2.691,0,5.268-0.485,7.651-1.369l-1.082-5.686
					C61.464,69.388,61.127,68.9,60.641,68.606z"/>
			</g>
			<g>
				<path style="fill:#009687;" d="M75.631,47.349l-5.686,1.082c-0.558,0.106-1.045,0.442-1.339,0.929
					c-0.168,0.277-0.166,11.005,0.002,11.282c0.294,0.485,0.78,0.823,1.337,0.929l5.686,1.082C76.515,60.268,77,57.691,77,55
					S76.515,49.732,75.631,47.349z"/>
			</g>
			<g>
				<path style="fill:#009687;" d="M49.359,41.394c0.277,0.168,11.005,0.166,11.282-0.001c0.485-0.294,0.823-0.78,0.929-1.337
					l1.082-5.686C60.268,33.485,57.691,33,55,33c-2.691,0-5.268,0.485-7.651,1.369l1.082,5.686
					C48.536,40.612,48.873,41.1,49.359,41.394z"/>
			</g>
		</g>
	</g>
</g>
<g id="Red" style="display:none;">
	<g style="display:inline;">
		<g>
			<path style="fill:#FFFFFF;" d="M55,25c-16.568,0-30,13.432-30,30c0,16.569,13.432,30,30,30s30-13.431,30-30
				C85,38.431,71.568,25,55,25z M55,71c-8.836,0-16-7.164-16-16s7.164-16,16-16s16,7.164,16,16S63.836,71,55,71z"/>
		</g>
		<g>
			<g>
				<path style="fill:#FFD7D4;" d="M55,33c-12.15,0-22,9.85-22,22s9.85,22,22,22s22-9.85,22-22S67.15,33,55,33z M55,71
					c-8.836,0-16-7.164-16-16s7.164-16,16-16s16,7.164,16,16S63.836,71,55,71z"/>
			</g>
		</g>
		<g>
			<path style="fill:#E54B44;" d="M23.933,47.29c0.254-1.033,1.27-1.685,2.315-1.486l13.806,2.626
				c0.558,0.105,1.043,0.443,1.337,0.929c0.168,0.277,0.17,11.005,0.002,11.282c-0.294,0.486-0.782,0.823-1.339,0.929l-13.806,2.625
				c-1.044,0.199-2.062-0.454-2.316-1.485C23.326,60.241,23,57.656,23,55C23,52.345,23.326,49.759,23.933,47.29z"/>
		</g>
		<g>
			<path style="fill:#E54B44;" d="M47.29,86.067c-1.034-0.254-1.685-1.271-1.486-2.316l2.627-13.806
				c0.105-0.557,0.443-1.043,0.929-1.337c0.277-0.167,11.005-0.169,11.282-0.001c0.486,0.294,0.823,0.781,0.929,1.339l2.625,13.806
				c0.199,1.044-0.454,2.062-1.486,2.315C60.241,86.674,57.656,87,55,87S49.759,86.674,47.29,86.067z"/>
		</g>
		<g>
			<path style="fill:#E54B44;" d="M86.067,62.71c-0.254,1.033-1.27,1.685-2.315,1.485L69.945,61.57
				c-0.558-0.106-1.043-0.444-1.337-0.93c-0.168-0.276-0.169-11.005-0.002-11.282c0.294-0.485,0.782-0.823,1.339-0.929l13.806-2.626
				c1.044-0.198,2.062,0.454,2.315,1.486C86.674,49.759,87,52.344,87,55S86.674,60.241,86.067,62.71z"/>
		</g>
		<g>
			<path style="fill:#E54B44;" d="M62.71,23.933c1.034,0.254,1.685,1.27,1.486,2.315L61.57,40.055
				c-0.106,0.558-0.444,1.043-0.93,1.337c-0.277,0.168-11.005,0.17-11.282,0.002c-0.486-0.294-0.823-0.781-0.929-1.339
				l-2.627-13.806c-0.198-1.044,0.454-2.062,1.486-2.316C49.759,23.327,52.344,23,55,23S60.241,23.327,62.71,23.933z"/>
		</g>
		<g>
			<g>
				<path style="fill:#C23023;" d="M41.394,60.641c0.168-0.277,0.166-11.005-0.001-11.282c-0.294-0.486-0.78-0.823-1.337-0.929
					l-5.686-1.082C33.485,49.732,33,52.309,33,55s0.485,5.268,1.369,7.651l5.686-1.082C40.612,61.464,41.1,61.127,41.394,60.641z"/>
			</g>
			<g>
				<path style="fill:#C23023;" d="M60.641,68.606c-0.277-0.168-11.005-0.166-11.282,0.001c-0.486,0.294-0.823,0.78-0.929,1.337
					l-1.082,5.686C49.732,76.515,52.309,77,55,77c2.691,0,5.268-0.485,7.651-1.369l-1.082-5.686
					C61.464,69.388,61.127,68.9,60.641,68.606z"/>
			</g>
			<g>
				<path style="fill:#C23023;" d="M75.631,47.348l-5.686,1.082c-0.558,0.106-1.045,0.442-1.339,0.929
					c-0.168,0.277-0.166,11.005,0.002,11.282c0.294,0.485,0.78,0.823,1.337,0.929l5.686,1.082C76.515,60.268,77,57.691,77,55
					S76.515,49.732,75.631,47.348z"/>
			</g>
			<g>
				<path style="fill:#C23023;" d="M49.359,41.393c0.277,0.168,11.005,0.166,11.282-0.001c0.485-0.294,0.823-0.78,0.929-1.337
					l1.082-5.686C60.268,33.485,57.691,33,55,33c-2.691,0-5.268,0.485-7.651,1.369l1.082,5.686
					C48.536,40.612,48.873,41.099,49.359,41.393z"/>
			</g>
		</g>
	</g>
</g>
<g id="R-Red" style="display:none;">
	<g style="display:inline;">
		<circle style="fill:#FABBAF;" cx="55" cy="55" r="55"/>
	</g>
	<g style="display:inline;">
		<g>
			<path style="fill:#FFFFFF;" d="M55,25c-16.568,0-30,13.432-30,30c0,16.569,13.432,30,30,30s30-13.431,30-30
				C85,38.432,71.568,25,55,25z M55,71c-8.836,0-16-7.164-16-16s7.164-16,16-16s16,7.164,16,16S63.836,71,55,71z"/>
		</g>
		<g>
			<g>
				<path style="fill:#FFD7D4;" d="M55,33c-12.15,0-22,9.85-22,22s9.85,22,22,22s22-9.85,22-22S67.15,33,55,33z M55,71
					c-8.836,0-16-7.164-16-16s7.164-16,16-16s16,7.164,16,16S63.836,71,55,71z"/>
			</g>
		</g>
		<g>
			<path style="fill:#E54B44;" d="M23.933,47.29c0.254-1.033,1.27-1.685,2.315-1.486l13.806,2.626
				c0.558,0.105,1.043,0.443,1.337,0.929c0.168,0.277,0.17,11.005,0.002,11.282c-0.294,0.486-0.782,0.823-1.339,0.929l-13.806,2.625
				c-1.044,0.199-2.062-0.454-2.316-1.485C23.326,60.241,23,57.656,23,55C23,52.345,23.326,49.759,23.933,47.29z"/>
		</g>
		<g>
			<path style="fill:#E54B44;" d="M47.29,86.067c-1.034-0.254-1.685-1.271-1.486-2.316l2.627-13.806
				c0.105-0.557,0.443-1.043,0.929-1.337c0.277-0.168,11.005-0.169,11.282-0.002c0.486,0.295,0.823,0.781,0.929,1.339l2.625,13.806
				c0.199,1.044-0.454,2.062-1.486,2.315C60.241,86.674,57.656,87,55,87S49.759,86.674,47.29,86.067z"/>
		</g>
		<g>
			<path style="fill:#E54B44;" d="M86.067,62.71c-0.254,1.033-1.27,1.685-2.315,1.485L69.945,61.57
				c-0.558-0.106-1.043-0.444-1.337-0.93c-0.168-0.276-0.169-11.005-0.002-11.282c0.294-0.485,0.782-0.823,1.339-0.929l13.806-2.626
				c1.044-0.198,2.062,0.454,2.315,1.486C86.674,49.759,87,52.344,87,55S86.674,60.241,86.067,62.71z"/>
		</g>
		<g>
			<path style="fill:#E54B44;" d="M62.71,23.933c1.034,0.254,1.685,1.27,1.486,2.315L61.57,40.055
				c-0.106,0.558-0.444,1.043-0.93,1.337c-0.277,0.168-11.005,0.17-11.282,0.002c-0.486-0.294-0.823-0.781-0.929-1.339
				l-2.627-13.806c-0.198-1.044,0.454-2.062,1.486-2.316C49.759,23.327,52.344,23,55,23S60.241,23.327,62.71,23.933z"/>
		</g>
		<g>
			<g>
				<path style="fill:#C23023;" d="M41.394,60.641c0.168-0.277,0.166-11.005-0.001-11.282c-0.294-0.486-0.78-0.823-1.337-0.929
					l-5.686-1.082C33.485,49.732,33,52.309,33,55s0.485,5.268,1.369,7.651l5.686-1.082C40.612,61.464,41.1,61.127,41.394,60.641z"/>
			</g>
			<g>
				<path style="fill:#C23023;" d="M60.641,68.606c-0.277-0.168-11.005-0.166-11.282,0.002c-0.486,0.294-0.823,0.78-0.929,1.337
					l-1.082,5.686C49.732,76.515,52.309,77,55,77c2.691,0,5.268-0.485,7.651-1.369l-1.082-5.686
					C61.464,69.388,61.127,68.9,60.641,68.606z"/>
			</g>
			<g>
				<path style="fill:#C23023;" d="M75.631,47.349l-5.686,1.082c-0.558,0.106-1.045,0.442-1.339,0.929
					c-0.168,0.277-0.166,11.005,0.002,11.282c0.294,0.485,0.78,0.823,1.337,0.929l5.686,1.082C76.515,60.268,77,57.691,77,55
					S76.515,49.732,75.631,47.349z"/>
			</g>
			<g>
				<path style="fill:#C23023;" d="M49.359,41.394c0.277,0.168,11.005,0.166,11.282-0.001c0.485-0.294,0.823-0.78,0.929-1.337
					l1.082-5.686C60.268,33.485,57.691,33,55,33c-2.691,0-5.268,0.485-7.651,1.369l1.082,5.686
					C48.536,40.612,48.873,41.1,49.359,41.394z"/>
			</g>
		</g>
	</g>
</g>
<g id="Yellow" style="display:none;">
	<g style="display:inline;">
		<g>
			<path style="fill:#FFFFFF;" d="M55.003,25c-16.568,0-30,13.432-30,30c0,16.569,13.432,30,30,30s30-13.431,30-30
				C85.003,38.431,71.571,25,55.003,25z M55.003,71c-8.836,0-16-7.164-16-16s7.164-16,16-16s16,7.164,16,16S63.839,71,55.003,71z"/>
		</g>
		<g>
			<g>
				<path style="fill:#FFE9A1;" d="M55.003,33c-12.15,0-22,9.85-22,22s9.85,22,22,22s22-9.85,22-22S67.153,33,55.003,33z M55.003,71
					c-8.836,0-16-7.164-16-16s7.164-16,16-16s16,7.164,16,16S63.839,71,55.003,71z"/>
			</g>
		</g>
		<g>
			<path style="fill:#FA9200;" d="M23.936,47.29c0.254-1.033,1.27-1.685,2.315-1.486l13.806,2.626
				c0.558,0.105,1.043,0.443,1.337,0.929c0.168,0.277,0.17,11.005,0.002,11.282c-0.294,0.486-0.782,0.823-1.339,0.929l-13.806,2.625
				c-1.044,0.199-2.062-0.454-2.316-1.485c-0.606-2.47-0.933-5.055-0.933-7.71C23.003,52.345,23.329,49.759,23.936,47.29z"/>
		</g>
		<g>
			<path style="fill:#FA9200;" d="M47.293,86.067c-1.034-0.254-1.685-1.271-1.486-2.316l2.627-13.806
				c0.105-0.557,0.443-1.043,0.929-1.337c0.277-0.167,11.005-0.169,11.282-0.001c0.486,0.294,0.823,0.781,0.929,1.339l2.626,13.806
				c0.199,1.044-0.454,2.062-1.486,2.315C60.244,86.674,57.659,87,55.003,87S49.762,86.674,47.293,86.067z"/>
		</g>
		<g>
			<path style="fill:#FA9200;" d="M86.07,62.71c-0.254,1.033-1.27,1.685-2.315,1.485L69.948,61.57
				c-0.558-0.106-1.043-0.444-1.337-0.93c-0.167-0.276-0.169-11.005-0.002-11.282c0.294-0.485,0.782-0.823,1.339-0.929l13.806-2.626
				c1.044-0.198,2.062,0.454,2.315,1.486c0.607,2.469,0.933,5.054,0.933,7.71S86.677,60.241,86.07,62.71z"/>
		</g>
		<g>
			<path style="fill:#FA9200;" d="M62.713,23.933c1.034,0.254,1.685,1.27,1.486,2.315l-2.626,13.806
				c-0.106,0.558-0.444,1.043-0.93,1.337c-0.277,0.169-11.005,0.17-11.282,0.002c-0.486-0.294-0.823-0.781-0.929-1.339
				l-2.627-13.806c-0.198-1.044,0.454-2.062,1.486-2.316C49.762,23.327,52.347,23,55.003,23S60.244,23.327,62.713,23.933z"/>
		</g>
		<g>
			<g>
				<path style="fill:#E07000;" d="M41.396,60.641c0.168-0.277,0.166-11.005-0.001-11.282c-0.294-0.486-0.78-0.823-1.337-0.929
					l-5.686-1.082c-0.884,2.383-1.369,4.961-1.369,7.651s0.485,5.268,1.369,7.651l5.686-1.082
					C40.615,61.464,41.102,61.127,41.396,60.641z"/>
			</g>
			<g>
				<path style="fill:#E07000;" d="M60.644,68.606c-0.277-0.168-11.005-0.166-11.282,0.001c-0.486,0.294-0.823,0.78-0.929,1.337
					l-1.082,5.686C49.735,76.515,52.312,77,55.003,77c2.691,0,5.268-0.485,7.651-1.369l-1.082-5.686
					C61.467,69.388,61.13,68.9,60.644,68.606z"/>
			</g>
			<g>
				<path style="fill:#E07000;" d="M75.634,47.348l-5.686,1.082c-0.558,0.106-1.045,0.442-1.339,0.929
					c-0.168,0.277-0.166,11.005,0.001,11.282c0.294,0.485,0.78,0.823,1.337,0.929l5.686,1.082c0.884-2.383,1.369-4.961,1.369-7.651
					S76.518,49.732,75.634,47.348z"/>
			</g>
			<g>
				<path style="fill:#E07000;" d="M49.362,41.393c0.277,0.168,11.005,0.166,11.282-0.001c0.485-0.294,0.823-0.78,0.929-1.337
					l1.082-5.686C60.271,33.485,57.694,33,55.003,33c-2.691,0-5.268,0.485-7.651,1.369l1.082,5.686
					C48.539,40.612,48.875,41.099,49.362,41.393z"/>
			</g>
		</g>
	</g>
</g>
<g id="R-Yellow" style="display:none;">
	<g style="display:inline;">
		<circle style="fill:#FFD75E;" cx="55" cy="55" r="55"/>
	</g>
	<g style="display:inline;">
		<g>
			<path style="fill:#FFFFFF;" d="M55,25c-16.568,0-30,13.432-30,30c0,16.569,13.432,30,30,30s30-13.431,30-30
				C85,38.432,71.568,25,55,25z M55,71c-8.836,0-16-7.164-16-16s7.164-16,16-16s16,7.164,16,16S63.836,71,55,71z"/>
		</g>
		<g>
			<g>
				<path style="fill:#FFE9A1;" d="M55,33c-12.15,0-22,9.85-22,22s9.85,22,22,22s22-9.85,22-22S67.15,33,55,33z M55,71
					c-8.836,0-16-7.164-16-16s7.164-16,16-16s16,7.164,16,16S63.836,71,55,71z"/>
			</g>
		</g>
		<g>
			<path style="fill:#FA9200;" d="M23.933,47.29c0.254-1.033,1.27-1.685,2.315-1.486l13.806,2.626
				c0.558,0.105,1.043,0.443,1.337,0.929c0.168,0.277,0.17,11.005,0.002,11.282c-0.294,0.486-0.782,0.823-1.339,0.929l-13.806,2.625
				c-1.044,0.199-2.062-0.454-2.316-1.485C23.326,60.241,23,57.656,23,55C23,52.345,23.326,49.759,23.933,47.29z"/>
		</g>
		<g>
			<path style="fill:#FA9200;" d="M47.29,86.067c-1.034-0.254-1.685-1.271-1.486-2.316l2.626-13.806
				c0.105-0.557,0.443-1.043,0.929-1.337c0.277-0.168,11.005-0.169,11.282-0.002c0.486,0.295,0.823,0.781,0.929,1.339l2.625,13.806
				c0.199,1.044-0.454,2.062-1.486,2.315C60.241,86.674,57.656,87,55,87S49.759,86.674,47.29,86.067z"/>
		</g>
		<g>
			<path style="fill:#FA9200;" d="M86.067,62.71c-0.254,1.033-1.27,1.685-2.315,1.485L69.945,61.57
				c-0.558-0.106-1.043-0.444-1.337-0.93c-0.168-0.276-0.169-11.005-0.002-11.282c0.294-0.485,0.782-0.823,1.339-0.929l13.806-2.626
				c1.044-0.198,2.062,0.454,2.315,1.486C86.674,49.759,87,52.344,87,55S86.674,60.241,86.067,62.71z"/>
		</g>
		<g>
			<path style="fill:#FA9200;" d="M62.71,23.933c1.034,0.254,1.685,1.27,1.486,2.315L61.57,40.055
				c-0.106,0.558-0.444,1.043-0.93,1.337c-0.277,0.168-11.005,0.17-11.282,0.002c-0.486-0.294-0.823-0.781-0.929-1.339
				l-2.626-13.806c-0.198-1.044,0.454-2.062,1.486-2.316C49.759,23.327,52.344,23,55,23S60.241,23.327,62.71,23.933z"/>
		</g>
		<g>
			<g>
				<path style="fill:#E07000;" d="M41.394,60.641c0.168-0.277,0.166-11.005-0.001-11.282c-0.294-0.486-0.78-0.823-1.337-0.929
					l-5.686-1.082C33.485,49.732,33,52.309,33,55s0.485,5.268,1.369,7.651l5.686-1.082C40.612,61.464,41.1,61.127,41.394,60.641z"/>
			</g>
			<g>
				<path style="fill:#E07000;" d="M60.641,68.606c-0.277-0.168-11.005-0.166-11.282,0.002c-0.486,0.294-0.823,0.78-0.929,1.337
					l-1.082,5.686C49.732,76.515,52.309,77,55,77s5.268-0.485,7.651-1.369l-1.082-5.686C61.464,69.388,61.127,68.9,60.641,68.606z"
					/>
			</g>
			<g>
				<path style="fill:#E07000;" d="M75.631,47.349l-5.686,1.082c-0.558,0.106-1.045,0.442-1.339,0.929
					c-0.168,0.277-0.166,11.005,0.002,11.282c0.294,0.485,0.78,0.823,1.337,0.929l5.686,1.082C76.515,60.268,77,57.691,77,55
					S76.515,49.732,75.631,47.349z"/>
			</g>
			<g>
				<path style="fill:#E07000;" d="M49.359,41.394c0.277,0.168,11.005,0.166,11.282-0.001c0.485-0.294,0.823-0.78,0.929-1.337
					l1.082-5.686C60.268,33.485,57.691,33,55,33s-5.268,0.485-7.651,1.369l1.082,5.686C48.536,40.612,48.873,41.1,49.359,41.394z"/>
			</g>
		</g>
	</g>
</g>
</svg>
