<?xml version="1.0" encoding="iso-8859-1"?>
<!-- Generator: Adobe Illustrator 17.1.0, SVG Export Plug-In . SVG Version: 6.00 Build 0)  -->
<!DOCTYPE svg PUBLIC "-//W3C//DTD SVG 1.0//EN" "http://www.w3.org/TR/2001/REC-SVG-20010904/DTD/svg10.dtd">
<svg version="1.0" xmlns="http://www.w3.org/2000/svg" xmlns:xlink="http://www.w3.org/1999/xlink" x="0px" y="0px" width="110px"
	 height="110px" viewBox="0 0 110 110" style="enable-background:new 0 0 110 110;" xml:space="preserve">
<g id="Artboard">
</g>
<g id="Multicolor">
	<circle style="fill:#32BEA6;" cx="55" cy="55" r="55"/>
	<g>
		<g>
			<path style="fill:#F37A10;" d="M63,44c3,0,5-2,5-7s-5-8-5-14C57,25,51,44,63,44z"/>
		</g>
		<g>
			<path style="fill:#FBE158;" d="M62.541,44c1.571,0,2.619-1.048,2.619-3.667c0-2.619-2.619-4.19-2.619-7.333
				C59.398,34.048,56.255,44,62.541,44z"/>
		</g>
		<g>
			<path style="fill:#F3F4F4;" d="M77,49c0,2.21-1.79,4-4,4v-8C75.21,45,77,46.79,77,49z"/>
		</g>
		<g>
			<path style="fill:#E2E4E5;" d="M83,81c0,3.314-2.686,6-6,6H49c-3.314,0-6-2.686-6-6V55h34c3.314,0,6,2.686,6,6V81z"/>
		</g>
		<g>
			<path style="fill:#F0F1F1;" d="M23,29c0-3.314,2.686-6,6-6h14v32H29c-3.314,0-6-2.686-6-6V29z"/>
		</g>
		<g>
			<path style="fill:#CFD3D4;" d="M47,55h-4v-6h2c1.105,0,2,0.895,2,2V55z"/>
		</g>
		<g>
			<path style="fill:#E2E4E5;" d="M73,45v10H53V45c0-1.1,0.9-2,2-2h16C72.1,43,73,43.9,73,45z"/>
		</g>
		<g>
			<circle style="fill:#818184;" cx="57" cy="47" r="1.5"/>
		</g>
		<g>
			<circle style="fill:#818184;" cx="60" cy="51.5" r="1.5"/>
		</g>
		<g>
			<circle style="fill:#818184;" cx="66" cy="51.5" r="1.5"/>
		</g>
		<g>
			<circle style="fill:#818184;" cx="69" cy="47" r="1.5"/>
		</g>
		<g>
			<circle style="fill:#818184;" cx="63" cy="47" r="1.5"/>
		</g>
		<g>
			<path style="fill:#F0F1F1;" d="M43,55v26c0,1.842,0.832,3.489,2.139,4.59L75.729,55H43z"/>
		</g>
	</g>
</g>
</svg>
