<?xml version="1.0" encoding="iso-8859-1"?>
<!-- Generator: Adobe Illustrator 17.1.0, SVG Export Plug-In . SVG Version: 6.00 Build 0)  -->
<!DOCTYPE svg PUBLIC "-//W3C//DTD SVG 1.0//EN" "http://www.w3.org/TR/2001/REC-SVG-20010904/DTD/svg10.dtd">
<svg version="1.0" xmlns="http://www.w3.org/2000/svg" xmlns:xlink="http://www.w3.org/1999/xlink" x="0px" y="0px" width="110px"
	 height="110px" viewBox="0 0 110 110" style="enable-background:new 0 0 110 110;" xml:space="preserve">
<g id="Artboard">
</g>
<g id="Multicolor">
	<circle style="fill:#E04F5F;" cx="55" cy="55" r="55"/>
	<g>
		<g>
			<path style="fill:#FACB1B;" d="M76.851,54.843c0.342-0.228,0.495-0.653,0.376-1.047s-0.482-0.663-0.893-0.663H54.867l25.86-24.54
				c0.267-0.267,0.347-0.668,0.202-1.017S80.444,27,80.067,27H55.323c-0.288,0-0.56,0.133-0.737,0.36L28.93,59.094
				c-0.219,0.281-0.258,0.663-0.102,0.983c0.157,0.32,0.482,0.523,0.838,0.523H47.4L25.231,85.185
				c-0.308,0.352-0.308,0.878,0.001,1.23c0.309,0.352,0.83,0.421,1.219,0.161L76.851,54.843z"/>
		</g>
		<g>
			<path style="fill:#FBE158;" d="M55.323,27c-0.288,0-0.56,0.133-0.737,0.36L28.93,59.094c-0.219,0.281-0.258,0.663-0.102,0.983
				S29.31,60.6,29.667,60.6h6.858l33.6-33.6H55.323z"/>
		</g>
	</g>
</g>
</svg>
