<?xml version="1.0" encoding="iso-8859-1"?>
<!-- Generator: Adobe Illustrator 17.1.0, SVG Export Plug-In . SVG Version: 6.00 Build 0)  -->
<!DOCTYPE svg PUBLIC "-//W3C//DTD SVG 1.0//EN" "http://www.w3.org/TR/2001/REC-SVG-20010904/DTD/svg10.dtd">
<svg version="1.0" xmlns="http://www.w3.org/2000/svg" xmlns:xlink="http://www.w3.org/1999/xlink" x="0px" y="0px" width="110px"
	 height="110px" viewBox="0 0 110 110" style="enable-background:new 0 0 110 110;" xml:space="preserve">
<g id="Artboard">
</g>
<g id="Multicolor">
	<circle style="fill:#32BEA6;" cx="55" cy="55" r="55"/>
	<g>
		<g>
			<path style="fill:#F0F1F1;" d="M55,72H39c0,4.558,5.343,11,12,11v4h4h4v-4c6.651,0,12-6.437,12-11H55z"/>
		</g>
		<g>
			<path style="fill:#FFFFFF;" d="M39,72c0,4.558,5.343,11,12,11v4h4v-4V72H39z"/>
		</g>
		<g>
			<g>
				<path style="fill:#F0F1F1;" d="M66.008,38.462L55,40.617l-12.545,2.457c-2.168,0.424-3.581,2.526-3.157,4.694
					s2.526,3.581,4.694,3.157L55,48.77l12.545-2.457c2.168-0.425,3.581-2.526,3.157-4.694S68.176,38.038,66.008,38.462z"/>
			</g>
			<g>
				<path style="fill:#F0F1F1;" d="M66.008,47.462L55,49.617l-12.545,2.457c-2.168,0.424-3.581,2.526-3.157,4.694
					c0.325,1.66,1.635,2.869,3.204,3.158C44.384,61.58,45,63.295,45,68h8c0-3.704-0.356-6.78-1.683-9.51L55,57.769l3.118-0.61
					C56.909,61.165,56.957,65.247,57,68h4h4c-0.173-11.034,3.446-12.99,3.446-12.99c1.638-0.754,2.617-2.543,2.256-4.392
					C70.277,48.451,68.176,47.038,66.008,47.462z"/>
			</g>
			<g>
				<path style="fill:#F0F1F1;" d="M43.992,41.925L55,39.77l12.545-2.457c2.168-0.425,3.581-2.526,3.157-4.694
					s-2.526-3.581-4.694-3.157L55,31.617l-12.545,2.457c-2.168,0.424-3.581,2.526-3.157,4.694S41.824,42.349,43.992,41.925z"/>
			</g>
			<g>
				<path style="fill:#F0F1F1;" d="M43.992,32.925l10.545-1.999c0.162-0.032,0.31-0.09,0.463-0.14
					c1.897-0.616,3.087-2.548,2.694-4.554c-0.289-1.475-1.36-2.583-2.694-3.018c-0.627-0.205-1.307-0.274-2-0.139l-10.545,1.999
					c-2.168,0.424-3.581,2.526-3.157,4.694S41.824,33.349,43.992,32.925z"/>
			</g>
		</g>
		<g>
			<path style="fill:#FFFFFF;" d="M39.298,47.768c0.424,2.168,2.526,3.581,4.694,3.157L55,48.77v-8.152l-12.545,2.457
				C40.287,43.498,38.874,45.6,39.298,47.768z"/>
		</g>
		<g>
			<path style="fill:#FFFFFF;" d="M39.298,38.768c0.424,2.168,2.526,3.581,4.694,3.157L55,39.77v-8.152l-12.545,2.457
				C40.287,34.498,38.874,36.6,39.298,38.768z"/>
		</g>
		<g>
			<path style="fill:#FFFFFF;" d="M53,23.075l-10.545,1.999c-2.168,0.424-3.581,2.526-3.157,4.694s2.526,3.581,4.694,3.157
				l10.545-1.999c0.162-0.032,0.31-0.09,0.463-0.14v-7.572C54.373,23.009,53.693,22.939,53,23.075z"/>
		</g>
		<g>
			<path style="fill:#FFFFFF;" d="M39.298,56.768c0.325,1.66,1.635,2.869,3.204,3.158C44.384,61.58,45,63.295,45,68h8
				c0-3.704-0.356-6.78-1.683-9.51L55,57.769v-8.152l-12.545,2.457C40.287,52.498,38.874,54.6,39.298,56.768z"/>
		</g>
		<g>
			<rect x="55" y="68" style="fill:#CFD3D4;" width="16" height="4"/>
		</g>
		<g>
			<rect x="39" y="68" style="fill:#E2E4E5;" width="16" height="4"/>
		</g>
	</g>
</g>
</svg>
