<?xml version="1.0" encoding="iso-8859-1"?>
<!-- Generator: Adobe Illustrator 17.1.0, SVG Export Plug-In . SVG Version: 6.00 Build 0)  -->
<!DOCTYPE svg PUBLIC "-//W3C//DTD SVG 1.0//EN" "http://www.w3.org/TR/2001/REC-SVG-20010904/DTD/svg10.dtd">
<svg version="1.0" xmlns="http://www.w3.org/2000/svg" xmlns:xlink="http://www.w3.org/1999/xlink" x="0px" y="0px" width="110px"
	 height="110px" viewBox="0 0 110 110" style="enable-background:new 0 0 110 110;" xml:space="preserve">
<g id="Artboard">
</g>
<g id="Multicolor">
	<circle style="fill:#25B7D3;" cx="55" cy="55" r="55"/>
	<g>
		<g>
			<path style="fill:#E2E4E5;" d="M43,67v10c0,0.702,0.127,1.374,0.349,2c0.825,2.329,3.04,4,5.651,4h2v2c0,1.104,0.895,2,2,2h4
				c1.105,0,2-0.896,2-2v-2h2c2.611,0,4.827-1.671,5.651-4C66.873,78.374,67,77.702,67,77V67H43z"/>
		</g>
		<g>
			<path style="fill:#FACB1B;" d="M43,67h24c6.618-4.273,12-11.536,12-20c0-13.255-10.745-24-24-24S31,33.745,31,47
				C31,55.464,36,63,43,67z"/>
		</g>
		<g>
			<rect x="43" y="74" style="fill:#FFFFFF;" width="12" height="3"/>
		</g>
		<g>
			<rect x="43" y="69" style="fill:#FFFFFF;" width="12" height="3"/>
		</g>
		<g>
			<path style="fill:#FFFFFF;" d="M49,83h2h4v-4H43.349C44.173,81.329,46.389,83,49,83z"/>
		</g>
		<g>
			<path style="fill:#E2E4E5;" d="M51,83v2c0,1.104,0.895,2,2,2h2v-4H51z"/>
		</g>
		<g>
			<path style="fill:#B6BCBD;" d="M59,83v2c0,1.104-0.895,2-2,2h-2v-4H59z"/>
		</g>
		<g>
			<rect x="43" y="67" style="fill:#CFD3D4;" width="24" height="2"/>
		</g>
		<g>
			<rect x="43" y="72" style="fill:#CFD3D4;" width="24" height="2"/>
		</g>
		<g>
			<path style="fill:#CFD3D4;" d="M55,77H43c0,0.702,0.127,1.374,0.349,2H55h11.651C66.873,78.374,67,77.702,67,77H55z"/>
		</g>
		<g>
			<path style="fill:#E2E4E5;" d="M43,77c0,0.702,0.127,1.374,0.349,2H55v-2H43L43,77z"/>
		</g>
		<g>
			<rect x="43" y="67" style="fill:#E2E4E5;" width="12" height="2"/>
		</g>
		<g>
			<rect x="43" y="72" style="fill:#E2E4E5;" width="12" height="2"/>
		</g>
		<g>
			<path style="fill:#FBE158;" d="M43,67h12V23c-13.255,0-24,10.745-24,24C31,55.464,36,63,43,67z"/>
		</g>
	</g>
</g>
</svg>
