<?xml version="1.0" encoding="iso-8859-1"?>
<!-- Generator: Adobe Illustrator 17.1.0, SVG Export Plug-In . SVG Version: 6.00 Build 0)  -->
<!DOCTYPE svg PUBLIC "-//W3C//DTD SVG 1.0//EN" "http://www.w3.org/TR/2001/REC-SVG-20010904/DTD/svg10.dtd">
<svg version="1.0" xmlns="http://www.w3.org/2000/svg" xmlns:xlink="http://www.w3.org/1999/xlink" x="0px" y="0px" width="110px"
	 height="110px" viewBox="0 0 110 110" style="enable-background:new 0 0 110 110;" xml:space="preserve">
<g id="Artboard" style="display:none;">
	<rect x="-95" y="-455" style="display:inline;fill:#8C8C8C;" width="1412" height="743"/>
</g>
<g id="R-Multicolor">
	<circle style="fill:#25B7D3;" cx="55" cy="55" r="55"/>
	<g>
		<path style="fill:#E2E4E5;" d="M83.148,28.266l-1.414-1.414c-5.082-5.081-13.303-5.08-18.385,0L50.822,39.379
			c-0.562,0.562-0.879,1.325-0.879,2.121s0.316,1.559,0.879,2.121l4.705,4.706l-7.257,7.257l-4.706-4.705
			c-1.125-1.125-3.118-1.125-4.243,0L26.83,63.371c-5.08,5.081-5.081,13.304,0,18.385l1.415,1.415c5.079,5.08,13.303,5.081,18.385,0
			l12.492-12.493c1.172-1.172,1.172-3.071,0-4.243l-5.194-5.194l7.257-7.257l5.194,5.194c0.562,0.562,1.325,0.879,2.121,0.879
			s1.559-0.316,2.121-0.879l12.527-12.527C88.217,41.582,88.217,33.335,83.148,28.266z M52.757,68.557L42.386,78.928
			c-1.322,1.322-3.08,2.05-4.949,2.05c-1.87,0-3.628-0.728-4.95-2.05l-1.415-1.414c-1.322-1.322-2.05-3.08-2.05-4.95
			c0-1.869,0.728-3.627,2.05-4.949l10.371-10.372l2.584,2.584l-3.672,3.672c-1.562,1.562-1.562,4.095,0,5.657s4.095,1.562,5.657,0
			l3.672-3.672L52.757,68.557z M78.905,42.408L68.5,52.813l-3.073-3.073l3.197-3.197c1.562-1.562,1.562-4.095,0-5.657
			c-1.562-1.562-4.095-1.562-5.657,0l-3.197,3.198L57.187,41.5l10.405-10.405c1.322-1.322,3.08-2.051,4.95-2.051
			s3.627,0.729,4.95,2.051l1.414,1.414C81.635,35.238,81.635,39.679,78.905,42.408z"/>
		<path style="fill:#FFFFFF;" d="M81.712,26.808c-5.082-5.081-13.303-5.08-18.385,0L50.8,39.335
			c-0.562,0.562-0.879,1.325-0.879,2.121s0.316,1.559,0.879,2.121l4.729,4.729l-7.257,7.257l-4.729-4.729
			c-1.125-1.125-3.118-1.125-4.243,0L26.808,63.327c-5.08,5.081-5.081,13.304,0,18.385l0.882,0.882l4.243-4.243L31.05,77.47
			C29.728,76.147,29,74.39,29,72.52c0-1.869,0.728-3.627,2.05-4.949l10.371-10.372l2.607,2.607l-3.696,3.696
			c-1.562,1.562-1.562,4.095,0,5.657c0.133,0.133,0.282,0.239,0.428,0.349l28.191-28.191c-0.11-0.146-0.216-0.294-0.349-0.428
			c-1.562-1.562-4.095-1.562-5.657,0l-3.174,3.174l-2.607-2.607L67.57,31.051C68.892,29.729,70.65,29,72.52,29
			s3.627,0.729,4.95,2.051l0.882,0.882l4.243-4.243L81.712,26.808z"/>
	</g>
</g>
<g id="Multicolor" style="display:none;">
	<g style="display:inline;">
		<path style="fill:#E2E4E5;" d="M83.148,28.266l-1.414-1.414c-5.082-5.081-13.303-5.08-18.385,0L50.822,39.379
			c-0.562,0.562-0.879,1.325-0.879,2.121s0.316,1.559,0.879,2.121l4.705,4.706l-7.257,7.257l-4.706-4.705
			c-1.125-1.125-3.118-1.125-4.243,0L26.83,63.371c-5.08,5.081-5.081,13.304,0,18.385l1.415,1.415c5.079,5.08,13.303,5.081,18.385,0
			l12.492-12.493c1.172-1.172,1.172-3.071,0-4.243l-5.194-5.194l7.257-7.257l5.194,5.194c0.562,0.562,1.325,0.879,2.121,0.879
			s1.559-0.316,2.121-0.879l12.527-12.527C88.217,41.582,88.217,33.335,83.148,28.266z M52.757,68.557L42.386,78.928
			c-1.322,1.322-3.08,2.05-4.949,2.05c-1.87,0-3.628-0.728-4.95-2.05l-1.415-1.414c-1.322-1.322-2.05-3.08-2.05-4.95
			c0-1.869,0.728-3.627,2.05-4.949l10.371-10.372l2.584,2.584l-3.672,3.672c-1.562,1.562-1.562,4.095,0,5.657s4.095,1.562,5.657,0
			l3.672-3.672L52.757,68.557z M78.905,42.408L68.5,52.813l-3.073-3.073l3.197-3.197c1.562-1.562,1.562-4.095,0-5.657
			c-1.562-1.562-4.095-1.562-5.657,0l-3.197,3.198L57.187,41.5l10.405-10.405c1.322-1.322,3.08-2.051,4.95-2.051
			s3.627,0.729,4.95,2.051l1.414,1.414C81.635,35.238,81.635,39.679,78.905,42.408z"/>
		<path style="fill:#FFFFFF;" d="M81.712,26.808c-5.082-5.081-13.303-5.08-18.385,0L50.8,39.335
			c-0.562,0.562-0.879,1.325-0.879,2.121s0.316,1.559,0.879,2.121l4.729,4.729l-7.257,7.257l-4.729-4.729
			c-1.125-1.125-3.118-1.125-4.243,0L26.808,63.327c-5.08,5.081-5.081,13.304,0,18.385l0.882,0.882l4.243-4.243L31.05,77.47
			C29.728,76.147,29,74.39,29,72.52c0-1.869,0.728-3.627,2.05-4.949l10.371-10.372l2.607,2.607l-3.696,3.696
			c-1.562,1.562-1.562,4.095,0,5.657c0.133,0.133,0.282,0.239,0.428,0.349l28.191-28.191c-0.11-0.146-0.216-0.294-0.349-0.428
			c-1.562-1.562-4.095-1.562-5.657,0l-3.174,3.174l-2.607-2.607L67.57,31.051C68.892,29.729,70.65,29,72.52,29
			s3.627,0.729,4.95,2.051l0.882,0.882l4.243-4.243L81.712,26.808z"/>
	</g>
</g>
<g id="Blue" style="display:none;">
	<g style="display:inline;">
		<path style="fill:#E1F5FA;" d="M83.151,28.265l-1.414-1.414c-5.082-5.081-13.303-5.081-18.385,0L50.825,39.379
			c-0.562,0.562-0.879,1.325-0.879,2.121s0.316,1.559,0.879,2.121l4.705,4.706l-7.257,7.257l-4.706-4.705
			c-1.125-1.125-3.118-1.125-4.243,0L26.832,63.371c-5.08,5.082-5.081,13.304,0,18.385l1.414,1.414
			c5.079,5.08,13.303,5.082,18.385,0l12.492-12.493c1.171-1.172,1.171-3.071,0-4.243l-5.194-5.194l7.257-7.257l5.194,5.194
			c0.562,0.562,1.325,0.879,2.121,0.879c0.796,0,1.559-0.316,2.121-0.879l12.527-12.527C88.22,41.581,88.22,33.335,83.151,28.265z
			 M52.76,68.556L42.389,78.928c-1.322,1.322-3.079,2.05-4.949,2.05c-1.87,0-3.628-0.728-4.95-2.05l-1.415-1.414
			c-1.322-1.322-2.051-3.08-2.051-4.95c0-1.869,0.728-3.628,2.051-4.949l10.371-10.372l2.584,2.584l-3.673,3.672
			c-1.562,1.562-1.562,4.095,0,5.657c1.562,1.562,4.095,1.562,5.658,0l3.672-3.672L52.76,68.556z M78.908,42.408L68.503,52.813
			l-3.073-3.073l3.197-3.197c1.562-1.562,1.562-4.095,0-5.657c-1.562-1.562-4.095-1.562-5.657,0l-3.197,3.198L57.189,41.5
			l10.405-10.405c1.322-1.322,3.08-2.051,4.95-2.051s3.627,0.729,4.95,2.051l1.414,1.414C81.638,35.238,81.638,39.679,78.908,42.408
			z"/>
		<g>
			<path style="fill:#FFFFFF;" d="M81.715,26.807c-5.082-5.08-13.303-5.08-18.385,0L50.803,39.335
				c-0.562,0.562-0.879,1.325-0.879,2.121c0,0.796,0.316,1.558,0.879,2.121l4.729,4.729l-7.257,7.257l-4.729-4.729
				c-1.125-1.125-3.117-1.125-4.242,0L26.81,63.327c-5.08,5.081-5.081,13.304,0,18.385l0.882,0.882l4.243-4.243l-0.882-0.882
				c-1.323-1.322-2.05-3.08-2.05-4.95c0-1.869,0.728-3.627,2.05-4.949l10.371-10.372l2.607,2.607l-3.696,3.696
				c-1.562,1.562-1.562,4.095,0,5.657c0.134,0.133,0.282,0.239,0.428,0.349l28.191-28.191c-0.11-0.146-0.216-0.294-0.349-0.428
				c-1.562-1.562-4.095-1.562-5.657,0l-3.174,3.174l-2.607-2.607l10.405-10.405c1.322-1.322,3.08-2.051,4.95-2.051
				c1.87,0,3.627,0.729,4.95,2.051l0.882,0.882l4.243-4.243L81.715,26.807z"/>
		</g>
	</g>
</g>
<g id="R-Blue" style="display:none;">
	<g style="display:inline;">
		<circle style="fill:#81D2EB;" cx="55" cy="55" r="55"/>
	</g>
	<g style="display:inline;">
		<path style="fill:#E1F5FA;" d="M83.148,28.266l-1.414-1.414c-5.082-5.081-13.303-5.081-18.385,0L50.822,39.379
			c-0.562,0.562-0.879,1.325-0.879,2.121s0.316,1.559,0.879,2.121l4.705,4.706l-7.257,7.257l-4.706-4.705
			c-1.125-1.125-3.118-1.125-4.243,0L26.83,63.371c-5.08,5.081-5.081,13.304,0,18.385l1.414,1.415c5.079,5.08,13.303,5.082,18.385,0
			l12.492-12.493c1.171-1.172,1.171-3.071,0-4.243l-5.194-5.194l7.257-7.257l5.194,5.194c0.562,0.562,1.325,0.879,2.121,0.879
			s1.559-0.316,2.121-0.879l12.527-12.527C88.217,41.582,88.217,33.335,83.148,28.266z M52.757,68.557L42.386,78.928
			c-1.322,1.322-3.079,2.05-4.949,2.05c-1.87,0-3.628-0.728-4.95-2.05l-1.415-1.414c-1.322-1.322-2.051-3.08-2.051-4.95
			c0-1.869,0.728-3.628,2.051-4.949l10.371-10.372l2.584,2.584l-3.673,3.672c-1.562,1.562-1.562,4.095,0,5.657
			c1.562,1.562,4.095,1.562,5.658,0l3.672-3.672L52.757,68.557z M78.905,42.408L68.5,52.813l-3.073-3.073l3.197-3.197
			c1.562-1.562,1.562-4.095,0-5.657c-1.562-1.562-4.095-1.562-5.657,0l-3.197,3.198L57.187,41.5l10.405-10.405
			c1.322-1.322,3.08-2.051,4.95-2.051c1.87,0,3.627,0.729,4.95,2.051l1.414,1.414C81.635,35.238,81.635,39.679,78.905,42.408z"/>
		<g>
			<path style="fill:#FFFFFF;" d="M81.712,26.808c-5.082-5.08-13.303-5.08-18.385,0L50.8,39.335
				c-0.562,0.562-0.879,1.325-0.879,2.121c0,0.796,0.316,1.558,0.879,2.121l4.729,4.729l-7.257,7.257l-4.729-4.729
				c-1.125-1.125-3.117-1.125-4.242,0L26.808,63.327c-5.08,5.081-5.081,13.304,0,18.385l0.882,0.882l4.243-4.243L31.05,77.47
				C29.728,76.147,29,74.39,29,72.52c0-1.869,0.728-3.627,2.05-4.949l10.371-10.372l2.607,2.607l-3.696,3.696
				c-1.562,1.562-1.562,4.095,0,5.657c0.134,0.133,0.282,0.239,0.428,0.349l28.191-28.191c-0.11-0.146-0.216-0.294-0.349-0.428
				c-1.562-1.562-4.095-1.562-5.657,0l-3.174,3.174l-2.607-2.607L67.57,31.051C68.892,29.729,70.65,29,72.52,29
				c1.87,0,3.627,0.729,4.95,2.051l0.882,0.882l4.243-4.243L81.712,26.808z"/>
		</g>
	</g>
</g>
<g id="Green" style="display:none;">
	<g style="display:inline;">
		<path style="fill:#D7FCF9;" d="M83.151,28.266l-1.414-1.414c-5.082-5.081-13.303-5.081-18.385,0L50.825,39.379
			c-0.562,0.562-0.879,1.325-0.879,2.121s0.316,1.559,0.879,2.121l4.705,4.706l-7.257,7.257l-4.706-4.705
			c-1.125-1.125-3.118-1.125-4.243,0L26.832,63.371c-5.08,5.081-5.081,13.304,0,18.385l1.414,1.415
			c5.079,5.08,13.303,5.082,18.385,0l12.492-12.493c1.171-1.172,1.171-3.071,0-4.243l-5.194-5.194l7.257-7.257l5.194,5.194
			c0.562,0.562,1.325,0.879,2.121,0.879c0.796,0,1.559-0.316,2.121-0.879l12.527-12.527C88.22,41.582,88.22,33.335,83.151,28.266z
			 M52.76,68.557L42.389,78.928c-1.322,1.322-3.079,2.05-4.949,2.05c-1.87,0-3.628-0.728-4.95-2.05l-1.415-1.414
			c-1.322-1.322-2.051-3.08-2.051-4.95c0-1.869,0.728-3.628,2.051-4.949l10.371-10.372l2.584,2.584l-3.673,3.672
			c-1.562,1.562-1.562,4.095,0,5.657c1.562,1.562,4.095,1.562,5.658,0l3.672-3.672L52.76,68.557z M78.908,42.408L68.503,52.813
			l-3.073-3.073l3.197-3.197c1.562-1.562,1.562-4.095,0-5.657c-1.562-1.562-4.095-1.562-5.657,0l-3.197,3.198L57.189,41.5
			l10.405-10.405c1.322-1.322,3.08-2.051,4.95-2.051s3.627,0.729,4.95,2.051l1.414,1.414C81.638,35.238,81.638,39.679,78.908,42.408
			z"/>
		<g>
			<path style="fill:#FFFFFF;" d="M81.715,26.808c-5.082-5.08-13.303-5.08-18.385,0L50.803,39.335
				c-0.562,0.562-0.879,1.325-0.879,2.121c0,0.796,0.316,1.558,0.879,2.121l4.729,4.729l-7.257,7.257l-4.729-4.729
				c-1.125-1.125-3.117-1.125-4.242,0L26.81,63.327c-5.08,5.081-5.081,13.304,0,18.385l0.882,0.882l4.243-4.243l-0.882-0.882
				c-1.323-1.322-2.05-3.08-2.05-4.95c0-1.869,0.728-3.627,2.05-4.949l10.371-10.372l2.607,2.607l-3.696,3.696
				c-1.562,1.562-1.562,4.095,0,5.657c0.134,0.133,0.282,0.239,0.428,0.349l28.191-28.191c-0.11-0.146-0.216-0.294-0.349-0.428
				c-1.562-1.562-4.095-1.562-5.657,0l-3.174,3.174l-2.607-2.607l10.405-10.405c1.322-1.322,3.08-2.051,4.95-2.051
				c1.87,0,3.627,0.729,4.95,2.051l0.882,0.882l4.243-4.243L81.715,26.808z"/>
		</g>
	</g>
</g>
<g id="R-Green" style="display:none;">
	<g style="display:inline;">
		<circle style="fill:#87E0C8;" cx="55" cy="55" r="55"/>
	</g>
	<g style="display:inline;">
		<path style="fill:#D7FCF9;" d="M83.148,28.266l-1.414-1.414c-5.082-5.081-13.303-5.081-18.385,0L50.822,39.379
			c-0.562,0.562-0.879,1.325-0.879,2.121s0.316,1.559,0.879,2.121l4.705,4.706l-7.257,7.257l-4.706-4.705
			c-1.125-1.125-3.118-1.125-4.243,0L26.83,63.371c-5.08,5.081-5.081,13.304,0,18.385l1.414,1.415c5.079,5.08,13.303,5.082,18.385,0
			l12.492-12.493c1.171-1.172,1.171-3.071,0-4.243l-5.194-5.194l7.257-7.257l5.194,5.194c0.562,0.562,1.325,0.879,2.121,0.879
			s1.559-0.316,2.121-0.879l12.527-12.527C88.217,41.582,88.217,33.335,83.148,28.266z M52.757,68.557L42.386,78.928
			c-1.322,1.322-3.079,2.05-4.949,2.05c-1.87,0-3.628-0.728-4.95-2.05l-1.415-1.414c-1.322-1.322-2.051-3.08-2.051-4.95
			c0-1.869,0.728-3.628,2.051-4.949l10.371-10.372l2.584,2.584l-3.673,3.672c-1.562,1.562-1.562,4.095,0,5.657
			c1.562,1.562,4.095,1.562,5.658,0l3.672-3.672L52.757,68.557z M78.905,42.408L68.5,52.813l-3.073-3.073l3.197-3.197
			c1.562-1.562,1.562-4.095,0-5.657c-1.562-1.562-4.095-1.562-5.657,0l-3.197,3.198L57.187,41.5l10.405-10.405
			c1.322-1.322,3.08-2.051,4.95-2.051c1.87,0,3.627,0.729,4.95,2.051l1.414,1.414C81.635,35.238,81.635,39.679,78.905,42.408z"/>
		<g>
			<path style="fill:#FFFFFF;" d="M81.712,26.808c-5.082-5.08-13.303-5.08-18.385,0L50.8,39.335
				c-0.562,0.562-0.879,1.325-0.879,2.121c0,0.796,0.316,1.558,0.879,2.121l4.729,4.729l-7.257,7.257l-4.729-4.729
				c-1.125-1.125-3.117-1.125-4.242,0L26.808,63.327c-5.08,5.081-5.081,13.304,0,18.385l0.882,0.882l4.243-4.243L31.05,77.47
				C29.728,76.147,29,74.39,29,72.52c0-1.869,0.728-3.627,2.05-4.949l10.371-10.372l2.607,2.607l-3.696,3.696
				c-1.562,1.562-1.562,4.095,0,5.657c0.134,0.133,0.282,0.239,0.428,0.349l28.191-28.191c-0.11-0.146-0.216-0.294-0.349-0.428
				c-1.562-1.562-4.095-1.562-5.657,0l-3.174,3.174l-2.607-2.607L67.57,31.051C68.892,29.729,70.65,29,72.52,29
				c1.87,0,3.627,0.729,4.95,2.051l0.882,0.882l4.243-4.243L81.712,26.808z"/>
		</g>
	</g>
</g>
<g id="Red" style="display:none;">
	<g style="display:inline;">
		<path style="fill:#FFEFED;" d="M83.148,28.265l-1.414-1.414c-5.082-5.081-13.303-5.081-18.385,0L50.822,39.379
			c-0.562,0.562-0.879,1.325-0.879,2.121s0.316,1.559,0.879,2.121l4.705,4.706l-7.257,7.257l-4.706-4.705
			c-1.125-1.125-3.118-1.125-4.243,0L26.83,63.371c-5.08,5.082-5.081,13.304,0,18.385l1.414,1.414c5.079,5.08,13.303,5.082,18.385,0
			l12.492-12.493c1.171-1.172,1.171-3.071,0-4.243l-5.194-5.194l7.257-7.257l5.194,5.194c0.562,0.562,1.325,0.879,2.121,0.879
			s1.559-0.316,2.121-0.879l12.527-12.527C88.217,41.581,88.217,33.335,83.148,28.265z M52.757,68.556L42.386,78.928
			c-1.322,1.322-3.079,2.05-4.949,2.05c-1.87,0-3.628-0.728-4.95-2.05l-1.415-1.414c-1.322-1.322-2.051-3.08-2.051-4.95
			c0-1.869,0.728-3.628,2.051-4.949l10.371-10.372l2.584,2.584l-3.673,3.672c-1.562,1.562-1.562,4.095,0,5.657
			c1.562,1.562,4.095,1.562,5.658,0l3.672-3.672L52.757,68.556z M78.905,42.408L68.5,52.813l-3.073-3.073l3.197-3.197
			c1.562-1.562,1.562-4.095,0-5.657c-1.562-1.562-4.095-1.562-5.657,0l-3.197,3.198L57.187,41.5l10.405-10.405
			c1.322-1.322,3.08-2.051,4.95-2.051c1.87,0,3.627,0.729,4.95,2.051l1.414,1.414C81.635,35.238,81.635,39.679,78.905,42.408z"/>
		<g>
			<path style="fill:#FFFFFF;" d="M81.712,26.807c-5.082-5.08-13.303-5.08-18.385,0L50.8,39.335
				c-0.562,0.562-0.879,1.325-0.879,2.121c0,0.796,0.316,1.558,0.879,2.121l4.729,4.729l-7.257,7.257l-4.729-4.729
				c-1.125-1.125-3.117-1.125-4.242,0L26.808,63.327c-5.08,5.081-5.081,13.304,0,18.385l0.882,0.882l4.243-4.243L31.05,77.47
				c-1.323-1.322-2.05-3.08-2.05-4.95c0-1.869,0.728-3.627,2.05-4.949l10.371-10.372l2.607,2.607l-3.696,3.696
				c-1.562,1.562-1.562,4.095,0,5.657c0.134,0.133,0.282,0.239,0.428,0.349l28.191-28.191c-0.11-0.146-0.216-0.294-0.349-0.428
				c-1.562-1.562-4.095-1.562-5.657,0l-3.174,3.174l-2.607-2.607L67.57,31.051C68.892,29.728,70.65,29,72.52,29
				c1.87,0,3.627,0.729,4.95,2.051l0.882,0.882l4.243-4.243L81.712,26.807z"/>
		</g>
	</g>
</g>
<g id="R-Red" style="display:none;">
	<g style="display:inline;">
		<circle style="fill:#FABBAF;" cx="55" cy="55" r="55"/>
	</g>
	<g style="display:inline;">
		<path style="fill:#FFEFED;" d="M83.148,28.266l-1.414-1.414c-5.082-5.081-13.303-5.081-18.385,0L50.822,39.379
			c-0.562,0.562-0.879,1.325-0.879,2.121s0.316,1.559,0.879,2.121l4.705,4.706l-7.257,7.257l-4.706-4.705
			c-1.125-1.125-3.118-1.125-4.243,0L26.83,63.371c-5.08,5.081-5.081,13.304,0,18.385l1.414,1.415c5.079,5.08,13.303,5.082,18.385,0
			l12.492-12.493c1.171-1.172,1.171-3.071,0-4.243l-5.194-5.194l7.257-7.257l5.194,5.194c0.562,0.562,1.325,0.879,2.121,0.879
			s1.559-0.316,2.121-0.879l12.527-12.527C88.217,41.582,88.217,33.335,83.148,28.266z M52.757,68.557L42.386,78.928
			c-1.322,1.322-3.079,2.05-4.949,2.05c-1.87,0-3.628-0.728-4.95-2.05l-1.415-1.414c-1.322-1.322-2.051-3.08-2.051-4.95
			c0-1.869,0.728-3.628,2.051-4.949l10.371-10.372l2.584,2.584l-3.673,3.672c-1.562,1.562-1.562,4.095,0,5.657
			c1.562,1.562,4.095,1.562,5.658,0l3.672-3.672L52.757,68.557z M78.905,42.408L68.5,52.813l-3.073-3.073l3.197-3.197
			c1.562-1.562,1.562-4.095,0-5.657c-1.562-1.562-4.095-1.562-5.657,0l-3.197,3.198L57.187,41.5l10.405-10.405
			c1.322-1.322,3.08-2.051,4.95-2.051c1.87,0,3.627,0.729,4.95,2.051l1.414,1.414C81.635,35.238,81.635,39.679,78.905,42.408z"/>
		<g>
			<path style="fill:#FFFFFF;" d="M81.712,26.808c-5.082-5.08-13.303-5.08-18.385,0L50.8,39.335
				c-0.562,0.562-0.879,1.325-0.879,2.121c0,0.796,0.316,1.558,0.879,2.121l4.729,4.729l-7.257,7.257l-4.729-4.729
				c-1.125-1.125-3.117-1.125-4.242,0L26.808,63.327c-5.08,5.081-5.081,13.304,0,18.385l0.882,0.882l4.243-4.243L31.05,77.47
				C29.728,76.147,29,74.39,29,72.52c0-1.869,0.728-3.627,2.05-4.949l10.371-10.372l2.607,2.607l-3.696,3.696
				c-1.562,1.562-1.562,4.095,0,5.657c0.134,0.133,0.282,0.239,0.428,0.349l28.191-28.191c-0.11-0.146-0.216-0.294-0.349-0.428
				c-1.562-1.562-4.095-1.562-5.657,0l-3.174,3.174l-2.607-2.607L67.57,31.051C68.892,29.729,70.65,29,72.52,29
				c1.87,0,3.627,0.729,4.95,2.051l0.882,0.882l4.243-4.243L81.712,26.808z"/>
		</g>
	</g>
</g>
<g id="Yellow" style="display:none;">
	<g style="display:inline;">
		<path style="fill:#FFF5D9;" d="M83.151,28.265l-1.414-1.414c-5.082-5.081-13.303-5.081-18.385,0L50.825,39.379
			c-0.562,0.562-0.879,1.325-0.879,2.121c0,0.796,0.316,1.559,0.879,2.121l4.705,4.706l-7.257,7.257l-4.706-4.705
			c-1.125-1.125-3.118-1.125-4.243,0L26.832,63.371c-5.08,5.082-5.081,13.304,0,18.385l1.414,1.414
			c5.079,5.08,13.303,5.082,18.385,0l12.492-12.493c1.171-1.172,1.171-3.071,0-4.243l-5.194-5.194l7.257-7.257l5.194,5.194
			c0.562,0.562,1.325,0.879,2.121,0.879c0.796,0,1.559-0.316,2.121-0.879l12.527-12.527C88.22,41.581,88.22,33.335,83.151,28.265z
			 M52.76,68.556L42.389,78.928c-1.322,1.322-3.079,2.05-4.949,2.05c-1.87,0-3.628-0.728-4.95-2.05l-1.415-1.414
			c-1.322-1.322-2.051-3.08-2.051-4.95c0-1.869,0.728-3.628,2.051-4.949l10.371-10.372l2.584,2.584l-3.673,3.672
			c-1.562,1.562-1.562,4.095,0,5.657c1.562,1.562,4.095,1.562,5.658,0l3.672-3.672L52.76,68.556z M78.908,42.408L68.503,52.813
			l-3.073-3.073l3.197-3.197c1.562-1.562,1.562-4.095,0-5.657c-1.562-1.562-4.095-1.562-5.657,0l-3.197,3.198L57.189,41.5
			l10.405-10.405c1.322-1.322,3.08-2.051,4.95-2.051s3.627,0.729,4.95,2.051l1.414,1.414C81.638,35.238,81.638,39.679,78.908,42.408
			z"/>
		<g>
			<path style="fill:#FFFFFF;" d="M81.715,26.807c-5.082-5.08-13.303-5.08-18.385,0L50.803,39.335
				c-0.562,0.562-0.879,1.325-0.879,2.121c0,0.796,0.316,1.558,0.879,2.121l4.729,4.729l-7.257,7.257l-4.729-4.729
				c-1.125-1.125-3.117-1.125-4.242,0L26.81,63.327c-5.08,5.081-5.081,13.304,0,18.385l0.882,0.882l4.243-4.243l-0.882-0.882
				c-1.323-1.322-2.05-3.08-2.05-4.95c0-1.869,0.728-3.627,2.05-4.949l10.371-10.372l2.607,2.607l-3.696,3.696
				c-1.562,1.562-1.562,4.095,0,5.657c0.134,0.133,0.282,0.239,0.428,0.349l28.191-28.191c-0.11-0.146-0.216-0.294-0.349-0.428
				c-1.562-1.562-4.095-1.562-5.657,0l-3.174,3.174l-2.607-2.607l10.405-10.405c1.322-1.322,3.08-2.051,4.95-2.051
				c1.87,0,3.627,0.729,4.95,2.051l0.882,0.882l4.243-4.243L81.715,26.807z"/>
		</g>
	</g>
</g>
<g id="R-Yellow" style="display:none;">
	<g style="display:inline;">
		<circle style="fill:#FFD75E;" cx="55" cy="55" r="55"/>
	</g>
	<g style="display:inline;">
		<path style="fill:#FFF5D9;" d="M83.148,28.266l-1.414-1.414c-5.082-5.081-13.303-5.081-18.385,0L50.822,39.379
			c-0.562,0.562-0.879,1.325-0.879,2.121s0.316,1.559,0.879,2.121l4.705,4.706l-7.257,7.257l-4.706-4.705
			c-1.125-1.125-3.118-1.125-4.243,0L26.83,63.371c-5.08,5.081-5.081,13.304,0,18.385l1.415,1.415c5.079,5.08,13.303,5.082,18.385,0
			l12.492-12.493c1.171-1.172,1.171-3.071,0-4.243l-5.194-5.194l7.257-7.257l5.194,5.194c0.562,0.562,1.325,0.879,2.121,0.879
			s1.559-0.316,2.121-0.879l12.527-12.527C88.217,41.582,88.217,33.335,83.148,28.266z M52.757,68.557L42.386,78.928
			c-1.322,1.322-3.08,2.05-4.949,2.05c-1.87,0-3.628-0.728-4.95-2.05l-1.415-1.414c-1.322-1.322-2.051-3.08-2.051-4.95
			c0-1.869,0.729-3.628,2.051-4.949l10.371-10.372l2.584,2.584l-3.673,3.672c-1.562,1.562-1.562,4.095,0,5.657
			c1.562,1.562,4.095,1.562,5.658,0l3.672-3.672L52.757,68.557z M78.905,42.408L68.5,52.813l-3.073-3.073l3.197-3.197
			c1.562-1.562,1.562-4.095,0-5.657c-1.562-1.562-4.095-1.562-5.657,0l-3.197,3.198L57.187,41.5l10.405-10.405
			c1.322-1.322,3.08-2.051,4.95-2.051c1.87,0,3.627,0.729,4.95,2.051l1.414,1.414C81.635,35.238,81.635,39.679,78.905,42.408z"/>
		<g>
			<path style="fill:#FFFFFF;" d="M81.712,26.808c-5.082-5.08-13.303-5.08-18.385,0L50.8,39.335
				c-0.562,0.562-0.879,1.325-0.879,2.121c0,0.796,0.316,1.558,0.879,2.121l4.729,4.729l-7.257,7.257l-4.729-4.729
				c-1.125-1.125-3.117-1.125-4.242,0L26.808,63.327c-5.08,5.081-5.081,13.304,0,18.385l0.882,0.882l4.243-4.243L31.05,77.47
				C29.727,76.147,29,74.39,29,72.52c0-1.869,0.727-3.627,2.05-4.949l10.371-10.372l2.607,2.607l-3.696,3.696
				c-1.562,1.562-1.562,4.095,0,5.657c0.134,0.133,0.282,0.239,0.428,0.349l28.191-28.191c-0.11-0.146-0.216-0.294-0.349-0.428
				c-1.562-1.562-4.095-1.562-5.657,0l-3.174,3.174l-2.607-2.607L67.57,31.051C68.892,29.729,70.65,29,72.52,29
				c1.87,0,3.627,0.729,4.95,2.051l0.882,0.882l4.243-4.243L81.712,26.808z"/>
		</g>
	</g>
</g>
</svg>
