<?xml version="1.0" encoding="iso-8859-1"?>
<!-- Generator: Adobe Illustrator 17.1.0, SVG Export Plug-In . SVG Version: 6.00 Build 0)  -->
<!DOCTYPE svg PUBLIC "-//W3C//DTD SVG 1.0//EN" "http://www.w3.org/TR/2001/REC-SVG-20010904/DTD/svg10.dtd">
<svg version="1.0" xmlns="http://www.w3.org/2000/svg" xmlns:xlink="http://www.w3.org/1999/xlink" x="0px" y="0px" width="110px"
	 height="110px" viewBox="0 0 110 110" style="enable-background:new 0 0 110 110;" xml:space="preserve">
<g id="Artboard">
</g>
<g id="Multicolor">
	<circle style="fill:#32BEA6;" cx="55" cy="55" r="55"/>
	<g>
		<g>
			<path style="fill:#3E3E3F;" d="M24.905,63v20c0,2.209,1.791,4,4,4h20c2.209,0,4-1.791,4-4V63H24.905z"/>
		</g>
		<g>
			<path style="fill:#3E3E3F;" d="M80.928,63h-20c-2.209,0-4,1.791-4,4v20h28V67C84.928,64.791,83.137,63,80.928,63z"/>
		</g>
		<g>
			<g>
				<path style="fill:#DF2C2C;" d="M40.774,33.37c-3.941,3.94-8.2,6.07-9.513,4.757c-0.198-0.199-0.309-0.471-0.356-0.793V51h7.5
					h7.5V25.158C45.786,27.076,43.829,30.315,40.774,33.37z"/>
			</g>
		</g>
		<g>
			<path style="fill:#5B5C5F;" d="M60.928,63c-2.209,0-4,1.791-4,4v20h14.167V63H60.928z"/>
		</g>
		<g>
			<polygon style="fill:#FACB1B;" points="38.405,51 29.905,51 29.905,59 38.405,59 47.905,59 47.905,51 			"/>
		</g>
		<g>
			<rect x="29.905" y="51" style="fill:#FBE158;" width="8.5" height="8"/>
		</g>
		<g>
			<polygon style="fill:#F3B607;" points="38.405,59 26.905,59 26.905,63 38.405,63 50.905,63 50.905,59 			"/>
		</g>
		<g>
			<polygon style="fill:#FACB1B;" points="29.905,59 26.905,59 26.905,63 38.405,63 38.405,59 			"/>
		</g>
		<g>
			<path style="fill:#5B5C5F;" d="M24.905,63v20c0,2.209,1.791,4,4,4h9.5V63H24.905z"/>
		</g>
		<g>
			<polygon style="fill:#F3B607;" points="71.048,79.047 56.881,79.047 56.881,83.047 71.048,83.047 84.881,83.047 84.881,79.047 
							"/>
		</g>
		<g>
			<rect x="56.881" y="79.047" style="fill:#FACB1B;" width="14.167" height="4"/>
		</g>
		<g>
			<path style="fill:#FA5655;" d="M31.261,38.126c-0.198-0.199-0.309-0.471-0.356-0.793V51h7.5V35.495
				C35.252,38.019,32.312,39.178,31.261,38.126z"/>
		</g>
		<g>
			
				<ellipse transform="matrix(0.7071 -0.7071 0.7071 0.7071 -10.6682 36.2271)" style="fill:#F79392;" cx="38.396" cy="30.991" rx="10.091" ry="3.364"/>
		</g>
	</g>
</g>
</svg>
