<?xml version="1.0" encoding="iso-8859-1"?>
<!-- Generator: Adobe Illustrator 17.1.0, SVG Export Plug-In . SVG Version: 6.00 Build 0)  -->
<!DOCTYPE svg PUBLIC "-//W3C//DTD SVG 1.0//EN" "http://www.w3.org/TR/2001/REC-SVG-20010904/DTD/svg10.dtd">
<svg version="1.0" xmlns="http://www.w3.org/2000/svg" xmlns:xlink="http://www.w3.org/1999/xlink" x="0px" y="0px" width="110px"
	 height="110px" viewBox="0 0 110 110" style="enable-background:new 0 0 110 110;" xml:space="preserve">
<g id="Artboard">
</g>
<g id="Multicolor">
	<circle style="fill:#FABC3D;" cx="55" cy="55" r="55"/>
	<g>
		<g>
			<path style="fill:#DF2C2C;" d="M64,36c-5,0-5,4-9,4s-4-4-9-4S25,49,23,55c2,6,12,0,21,0c4,0,5,2,11,2c5,0,7-2,11-2c9,0,19,6,21,0
				C85,49,69,36,64,36z"/>
		</g>
		<g>
			<path style="fill:#DF2C2C;" d="M67,60c-3.162,0-6,2-12,2s-8.838-2-12-2c-4,0-9,1-17,1c1,3,10,16,29,16s28-13,29-16
				C76,61,71,60,67,60z"/>
		</g>
		<g>
			<path style="fill:#FA5655;" d="M64,36c-5,0-5,4-9,4s-4-4-9-4S25,49,23,55c2,6,12,0,21,0c3.16,0,4.456,1.245,7.815,1.769
				l18.253-18.253C67.564,36.978,65.369,36,64,36z"/>
		</g>
	</g>
</g>
</svg>
