<?xml version="1.0" encoding="iso-8859-1"?>
<!-- Generator: Adobe Illustrator 17.1.0, SVG Export Plug-In . SVG Version: 6.00 Build 0)  -->
<!DOCTYPE svg PUBLIC "-//W3C//DTD SVG 1.0//EN" "http://www.w3.org/TR/2001/REC-SVG-20010904/DTD/svg10.dtd">
<svg version="1.0" xmlns="http://www.w3.org/2000/svg" xmlns:xlink="http://www.w3.org/1999/xlink" x="0px" y="0px" width="110px"
	 height="110px" viewBox="0 0 110 110" style="enable-background:new 0 0 110 110;" xml:space="preserve">
<g id="Artboard">
</g>
<g id="Multicolor">
	<circle style="fill:#25B7D3;" cx="55" cy="55" r="55"/>
	<g>
		<path style="fill:#9C6144;" d="M27,31c0-3.314,2.686-6,6-6h44c3.314,0,6,2.686,6,6v50c0,3.314-2.686,6-6,6H33
			c-3.314,0-6-2.686-6-6V31z"/>
		<path style="fill:#CFD3D4;" d="M33,35c0-1.105,0.895-2,2-2h40c1.105,0,2,0.895,2,2v42c0,2.209-1.791,4-4,4H37
			c-2.209,0-4-1.791-4-4V35z"/>
		<path style="fill:#FFFFFF;" d="M75,33c1.105,0,2,0.895,2,2v43H35c-1.1,0-2-0.9-2-2V35c0-1.105,0.895-2,2-2H75z"/>
		<path style="fill:#FACB1B;" d="M61,29c0-3.314-2.686-6-6-6s-6,2.686-6,6h-4c-1.105,0-2,0.895-2,2v5c0,1.105,0.895,2,2,2h20
			c1.105,0,2-0.895,2-2v-5c0-1.105-0.895-2-2-2H61z"/>
		<path style="fill:#E2E4E5;" d="M70.833,48c0,0.55-0.45,1-1,1h-15c-0.55,0-1-0.45-1-1l0,0c0-0.55,0.45-1,1-1h15
			C70.383,47,70.833,47.45,70.833,48L70.833,48z"/>
		<path style="fill:#E2E4E5;" d="M64.833,53c0,0.55-0.45,1-1,1h-9c-0.55,0-1-0.45-1-1l0,0c0-0.55,0.45-1,1-1h9
			C64.383,52,64.833,52.45,64.833,53L64.833,53z"/>
		<path style="fill:#E2E4E5;" d="M70.833,61c0,0.55-0.45,1-1,1h-15c-0.55,0-1-0.45-1-1l0,0c0-0.55,0.45-1,1-1h15
			C70.383,60,70.833,60.45,70.833,61L70.833,61z"/>
		<path style="fill:#E2E4E5;" d="M64.833,66c0,0.55-0.45,1-1,1h-9c-0.55,0-1-0.45-1-1l0,0c0-0.55,0.45-1,1-1h9
			C64.383,65,64.833,65.45,64.833,66L64.833,66z"/>
		<g>
			<path style="fill:#17B198;" d="M43.901,55l-3.774-3.774c-0.391-0.39-0.391-1.024,0-1.414c0.391-0.391,1.024-0.391,1.414,0
				l2.226,2.226l4.299-5.159c0.354-0.425,0.984-0.482,1.408-0.128c0.424,0.354,0.482,0.984,0.128,1.408L43.901,55z"/>
		</g>
		<g>
			<path style="fill:#17B198;" d="M43.901,68l-3.774-3.774c-0.391-0.39-0.391-1.024,0-1.414c0.391-0.391,1.024-0.391,1.414,0
				l2.226,2.226l4.299-5.159c0.354-0.425,0.984-0.482,1.408-0.128c0.424,0.354,0.482,0.984,0.128,1.408L43.901,68z"/>
		</g>
		<path style="fill:#FBE158;" d="M65,29h-4c0-3.313-2.686-6-6-6s-6,2.687-6,6h-4c-1.105,0-2,0.896-2,2v2h24v-2
			C67,29.896,66.105,29,65,29z"/>
	</g>
</g>
</svg>
