<?xml version="1.0" encoding="iso-8859-1"?>
<!-- Generator: Adobe Illustrator 17.1.0, SVG Export Plug-In . SVG Version: 6.00 Build 0)  -->
<!DOCTYPE svg PUBLIC "-//W3C//DTD SVG 1.0//EN" "http://www.w3.org/TR/2001/REC-SVG-20010904/DTD/svg10.dtd">
<svg version="1.0" xmlns="http://www.w3.org/2000/svg" xmlns:xlink="http://www.w3.org/1999/xlink" x="0px" y="0px" width="110px"
	 height="110px" viewBox="0 0 110 110" style="enable-background:new 0 0 110 110;" xml:space="preserve">
<g id="Artboard" style="display:none;">
	<rect x="-223" y="-199" style="display:inline;fill:#8C8C8C;" width="1412" height="743"/>
</g>
<g id="R-Multicolor">
	<circle style="fill:#E04F5F;" cx="55" cy="55" r="55"/>
	<g>
		<path style="fill:#FACB1B;" d="M75,51h-4V39c0-8.822-7.178-16-16-16s-16,7.178-16,16v12h-4c-2.209,0-4,1.791-4,4
			c0,10.347,0,17.604,0,28c0,2.204,1.839,4,4,4h40c2.209,0,4-1.791,4-4c0-10.053,0-17.556,0-28C79,52.791,77.209,51,75,51z M47,51
			V39c0-4.411,3.589-8,8-8s8,3.589,8,8v12H47z"/>
		<path style="fill:#FBE158;" d="M55,51H35c-2.209,0-4,1.791-4,4c0,10.347,0,17.604,0,28c0,2.204,1.839,4,4,4h20V51z"/>
		<rect x="31" y="57" style="fill:#F3B607;" width="48" height="4"/>
		<rect x="31" y="67" style="fill:#F3B607;" width="48" height="4"/>
		<rect x="31" y="77" style="fill:#F3B607;" width="48" height="4"/>
		<rect x="31" y="57" style="fill:#FACB1B;" width="24" height="4"/>
		<rect x="31" y="67" style="fill:#FACB1B;" width="24" height="4"/>
		<rect x="31" y="77" style="fill:#FACB1B;" width="24" height="4"/>
		<path style="fill:#9C6144;" d="M59,66c0-2.209-1.791-4-4-4s-4,1.791-4,4c0,1.538,0.878,2.858,2.151,3.527L51,81h8l-2.151-11.473
			C58.122,68.858,59,67.538,59,66z"/>
	</g>
</g>
<g id="Multicolor" style="display:none;">
	<g style="display:inline;">
		<path style="fill:#FACB1B;" d="M75,51h-4V39c0-8.822-7.178-16-16-16s-16,7.178-16,16v12h-4c-2.209,0-4,1.791-4,4
			c0,10.347,0,17.604,0,28c0,2.204,1.839,4,4,4h40c2.209,0,4-1.791,4-4c0-10.053,0-17.556,0-28C79,52.791,77.209,51,75,51z M47,51
			V39c0-4.411,3.589-8,8-8s8,3.589,8,8v12H47z"/>
		<path style="fill:#FBE158;" d="M55,51H35c-2.209,0-4,1.791-4,4c0,10.347,0,17.604,0,28c0,2.204,1.839,4,4,4h20V51z"/>
		<rect x="31" y="57" style="fill:#F3B607;" width="48" height="4"/>
		<rect x="31" y="67" style="fill:#F3B607;" width="48" height="4"/>
		<rect x="31" y="77" style="fill:#F3B607;" width="48" height="4"/>
		<rect x="31" y="57" style="fill:#FACB1B;" width="24" height="4"/>
		<rect x="31" y="67" style="fill:#FACB1B;" width="24" height="4"/>
		<rect x="31" y="77" style="fill:#FACB1B;" width="24" height="4"/>
		<path style="fill:#9C6144;" d="M59,66c0-2.209-1.791-4-4-4s-4,1.791-4,4c0,1.538,0.878,2.858,2.151,3.527L51,81h8l-2.151-11.473
			C58.122,68.858,59,67.538,59,66z"/>
	</g>
</g>
<g id="Blue" style="display:none;">
	<g style="display:inline;">
		<g>
			<path style="fill:#E1F5FA;" d="M75.003,51h-4V39c0-8.822-7.178-16-16-16s-16,7.178-16,16v12h-4c-2.209,0-4,1.791-4,4
				c0,10.347,0,17.605,0,28c0,2.204,1.839,4,4,4h40c2.208,0,4-1.791,4-4c0-10.053,0-17.556,0-28C79.003,52.79,77.211,51,75.003,51z
				 M47.003,51V39c0-4.411,3.589-8,8-8s8,3.589,8,8v12H47.003z"/>
		</g>
		<g>
			<path style="fill:#FFFFFF;" d="M55.003,51h-20c-2.209,0-4,1.791-4,4c0,10.347,0,17.605,0,28c0,2.204,1.839,4,4,4h20V51z"/>
		</g>
		<g>
			<rect x="31.003" y="57" style="fill:#BBE7F2;" width="48" height="4"/>
		</g>
		<g>
			<rect x="31.003" y="67" style="fill:#BBE7F2;" width="48" height="4"/>
		</g>
		<g>
			<rect x="31.003" y="77" style="fill:#BBE7F2;" width="48" height="4"/>
		</g>
		<g>
			<rect x="31.003" y="57" style="fill:#E1F5FA;" width="24" height="4"/>
		</g>
		<g>
			<rect x="31.003" y="67" style="fill:#E1F5FA;" width="24" height="4"/>
		</g>
		<g>
			<rect x="31.003" y="77" style="fill:#E1F5FA;" width="24" height="4"/>
		</g>
		<g>
			<path style="fill:#0F6175;" d="M59.003,66c0-2.209-1.792-4-4-4c-2.209,0-4,1.791-4,4c0,1.538,0.878,2.858,2.151,3.527L51.003,81
				h8l-2.151-11.473C58.125,68.858,59.003,67.538,59.003,66z"/>
		</g>
	</g>
</g>
<g id="R-Blue" style="display:none;">
	<g style="display:inline;">
		<circle style="fill:#81D2EB;" cx="55" cy="55" r="55"/>
	</g>
	<g style="display:inline;">
		<g>
			<path style="fill:#E1F5FA;" d="M75,51h-4V39c0-8.822-7.178-16-16-16s-16,7.178-16,16v12h-4c-2.209,0-4,1.791-4,4
				c0,10.347,0,17.604,0,28c0,2.204,1.839,4,4,4h40c2.209,0,4-1.791,4-4c0-10.053,0-17.556,0-28C79,52.791,77.209,51,75,51z M47,51
				V39c0-4.411,3.589-8,8-8s8,3.589,8,8v12H47z"/>
		</g>
		<g>
			<path style="fill:#FFFFFF;" d="M55,51H35c-2.209,0-4,1.791-4,4c0,10.347,0,17.604,0,28c0,2.204,1.839,4,4,4h20V51z"/>
		</g>
		<g>
			<rect x="31" y="57" style="fill:#BBE7F2;" width="48" height="4"/>
		</g>
		<g>
			<rect x="31" y="67" style="fill:#BBE7F2;" width="48" height="4"/>
		</g>
		<g>
			<rect x="31" y="77" style="fill:#BBE7F2;" width="48" height="4"/>
		</g>
		<g>
			<rect x="31" y="57" style="fill:#E1F5FA;" width="24" height="4"/>
		</g>
		<g>
			<rect x="31" y="67" style="fill:#E1F5FA;" width="24" height="4"/>
		</g>
		<g>
			<rect x="31" y="77" style="fill:#E1F5FA;" width="24" height="4"/>
		</g>
		<g>
			<path style="fill:#0F6175;" d="M59,66c0-2.209-1.792-4-4-4c-2.209,0-4,1.791-4,4c0,1.538,0.878,2.858,2.151,3.527L51,81h8
				l-2.151-11.473C58.122,68.858,59,67.538,59,66z"/>
		</g>
	</g>
</g>
<g id="Green" style="display:none;">
	<g style="display:inline;">
		<g>
			<path style="fill:#D7FCF9;" d="M75.003,51h-4V39c0-8.822-7.178-16-16-16s-16,7.178-16,16v12h-4c-2.209,0-4,1.791-4,4
				c0,10.347,0,17.604,0,28c0,2.204,1.839,4,4,4h40c2.208,0,4-1.791,4-4c0-10.053,0-17.556,0-28C79.003,52.791,77.211,51,75.003,51z
				 M47.003,51V39c0-4.411,3.589-8,8-8s8,3.589,8,8v12H47.003z"/>
		</g>
		<g>
			<path style="fill:#FFFFFF;" d="M55.003,51h-20c-2.209,0-4,1.791-4,4c0,10.347,0,17.604,0,28c0,2.204,1.839,4,4,4h20V51z"/>
		</g>
		<g>
			<rect x="31.003" y="57" style="fill:#AAF0E9;" width="48" height="4"/>
		</g>
		<g>
			<rect x="31.003" y="67" style="fill:#AAF0E9;" width="48" height="4"/>
		</g>
		<g>
			<rect x="31.003" y="77" style="fill:#AAF0E9;" width="48" height="4"/>
		</g>
		<g>
			<rect x="31.003" y="57" style="fill:#D7FCF9;" width="24" height="4"/>
		</g>
		<g>
			<rect x="31.003" y="67" style="fill:#D7FCF9;" width="24" height="4"/>
		</g>
		<g>
			<rect x="31.003" y="77" style="fill:#D7FCF9;" width="24" height="4"/>
		</g>
		<g>
			<path style="fill:#14635B;" d="M59.003,66c0-2.209-1.792-4-4-4c-2.209,0-4,1.791-4,4c0,1.538,0.878,2.858,2.151,3.527L51.003,81
				h8l-2.151-11.473C58.125,68.858,59.003,67.538,59.003,66z"/>
		</g>
	</g>
</g>
<g id="R-Green" style="display:none;">
	<g style="display:inline;">
		<circle style="fill:#87E0C8;" cx="55" cy="55" r="55"/>
	</g>
	<g style="display:inline;">
		<g>
			<path style="fill:#D7FCF9;" d="M75,51h-4V39c0-8.822-7.178-16-16-16s-16,7.178-16,16v12h-4c-2.209,0-4,1.791-4,4
				c0,10.347,0,17.604,0,28c0,2.204,1.839,4,4,4h40c2.209,0,4-1.791,4-4c0-10.053,0-17.556,0-28C79,52.791,77.209,51,75,51z M47,51
				V39c0-4.411,3.589-8,8-8s8,3.589,8,8v12H47z"/>
		</g>
		<g>
			<path style="fill:#FFFFFF;" d="M55,51H35c-2.209,0-4,1.791-4,4c0,10.347,0,17.604,0,28c0,2.204,1.839,4,4,4h20V51z"/>
		</g>
		<g>
			<rect x="31" y="57" style="fill:#AAF0E9;" width="48" height="4"/>
		</g>
		<g>
			<rect x="31" y="67" style="fill:#AAF0E9;" width="48" height="4"/>
		</g>
		<g>
			<rect x="31" y="77" style="fill:#AAF0E9;" width="48" height="4"/>
		</g>
		<g>
			<rect x="31" y="57" style="fill:#D7FCF9;" width="24" height="4"/>
		</g>
		<g>
			<rect x="31" y="67" style="fill:#D7FCF9;" width="24" height="4"/>
		</g>
		<g>
			<rect x="31" y="77" style="fill:#D7FCF9;" width="24" height="4"/>
		</g>
		<g>
			<path style="fill:#14635B;" d="M59,66c0-2.209-1.792-4-4-4c-2.209,0-4,1.791-4,4c0,1.538,0.878,2.858,2.151,3.527L51,81h8
				l-2.151-11.473C58.122,68.858,59,67.538,59,66z"/>
		</g>
	</g>
</g>
<g id="Red" style="display:none;">
	<g style="display:inline;">
		<g>
			<path style="fill:#FFEFED;" d="M75,51h-4V39c0-8.822-7.178-16-16-16s-16,7.178-16,16v12h-4c-2.209,0-4,1.791-4,4
				c0,10.347,0,17.605,0,28c0,2.204,1.839,4,4,4h40c2.209,0,4-1.791,4-4c0-10.053,0-17.556,0-28C79,52.79,77.209,51,75,51z M47,51
				V39c0-4.411,3.589-8,8-8s8,3.589,8,8v12H47z"/>
		</g>
		<g>
			<path style="fill:#FFFFFF;" d="M55,51H35c-2.209,0-4,1.791-4,4c0,10.347,0,17.605,0,28c0,2.204,1.839,4,4,4h20V51z"/>
		</g>
		<g>
			<rect x="31" y="57" style="fill:#FFD7D4;" width="48" height="4"/>
		</g>
		<g>
			<rect x="31" y="67" style="fill:#FFD7D4;" width="48" height="4"/>
		</g>
		<g>
			<rect x="31" y="77" style="fill:#FFD7D4;" width="48" height="4"/>
		</g>
		<g>
			<rect x="31" y="57" style="fill:#FFEFED;" width="24" height="4"/>
		</g>
		<g>
			<rect x="31" y="67" style="fill:#FFEFED;" width="24" height="4"/>
		</g>
		<g>
			<rect x="31" y="77" style="fill:#FFEFED;" width="24" height="4"/>
		</g>
		<g>
			<path style="fill:#7D261E;" d="M59,66c0-2.209-1.792-4-4-4c-2.209,0-4,1.791-4,4c0,1.538,0.878,2.858,2.151,3.527L51,81h8
				l-2.151-11.473C58.122,68.858,59,67.538,59,66z"/>
		</g>
	</g>
</g>
<g id="R-Red" style="display:none;">
	<g style="display:inline;">
		<circle style="fill:#FABBAF;" cx="55" cy="55" r="55"/>
	</g>
	<g style="display:inline;">
		<g>
			<path style="fill:#FFEFED;" d="M75,51h-4V39c0-8.822-7.178-16-16-16s-16,7.178-16,16v12h-4c-2.209,0-4,1.791-4,4
				c0,10.347,0,17.604,0,28c0,2.204,1.839,4,4,4h40c2.209,0,4-1.791,4-4c0-10.053,0-17.556,0-28C79,52.791,77.209,51,75,51z M47,51
				V39c0-4.411,3.589-8,8-8s8,3.589,8,8v12H47z"/>
		</g>
		<g>
			<path style="fill:#FFFFFF;" d="M55,51H35c-2.209,0-4,1.791-4,4c0,10.347,0,17.604,0,28c0,2.204,1.839,4,4,4h20V51z"/>
		</g>
		<g>
			<rect x="31" y="57" style="fill:#FFD7D4;" width="48" height="4"/>
		</g>
		<g>
			<rect x="31" y="67" style="fill:#FFD7D4;" width="48" height="4"/>
		</g>
		<g>
			<rect x="31" y="77" style="fill:#FFD7D4;" width="48" height="4"/>
		</g>
		<g>
			<rect x="31" y="57" style="fill:#FFEFED;" width="24" height="4"/>
		</g>
		<g>
			<rect x="31" y="67" style="fill:#FFEFED;" width="24" height="4"/>
		</g>
		<g>
			<rect x="31" y="77" style="fill:#FFEFED;" width="24" height="4"/>
		</g>
		<g>
			<path style="fill:#7D261E;" d="M59,66c0-2.209-1.792-4-4-4c-2.209,0-4,1.791-4,4c0,1.538,0.878,2.858,2.151,3.527L51,81h8
				l-2.151-11.473C58.122,68.858,59,67.538,59,66z"/>
		</g>
	</g>
</g>
<g id="Yellow" style="display:none;">
	<g style="display:inline;">
		<g>
			<path style="fill:#FFF5D9;" d="M75.003,51h-4V39c0-8.822-7.178-16-16-16s-16,7.178-16,16v12h-4c-2.209,0-4,1.791-4,4
				c0,10.347,0,17.604,0,28c0,2.204,1.839,4,4,4h40c2.208,0,4-1.791,4-4c0-10.053,0-17.556,0-28C79.003,52.79,77.211,51,75.003,51z
				 M47.003,51V39c0-4.411,3.589-8,8-8s8,3.589,8,8v12H47.003z"/>
		</g>
		<g>
			<path style="fill:#FFFFFF;" d="M55.003,51h-20c-2.209,0-4,1.791-4,4c0,10.347,0,17.604,0,28c0,2.204,1.839,4,4,4h20V51z"/>
		</g>
		<g>
			<rect x="31.003" y="57" style="fill:#FFE9A1;" width="48" height="4"/>
		</g>
		<g>
			<rect x="31.003" y="67" style="fill:#FFE9A1;" width="48" height="4"/>
		</g>
		<g>
			<rect x="31.003" y="77" style="fill:#FFE9A1;" width="48" height="4"/>
		</g>
		<g>
			<rect x="31.003" y="57" style="fill:#FFF5D9;" width="24" height="4"/>
		</g>
		<g>
			<rect x="31.003" y="67" style="fill:#FFF5D9;" width="24" height="4"/>
		</g>
		<g>
			<rect x="31.003" y="77" style="fill:#FFF5D9;" width="24" height="4"/>
		</g>
		<g>
			<path style="fill:#66510D;" d="M59.003,66c0-2.209-1.792-4-4-4c-2.209,0-4,1.791-4,4c0,1.538,0.878,2.858,2.151,3.527L51.003,81
				h8l-2.151-11.473C58.125,68.858,59.003,67.538,59.003,66z"/>
		</g>
	</g>
</g>
<g id="R-Yellow" style="display:none;">
	<g style="display:inline;">
		<circle style="fill:#FFD75E;" cx="55" cy="55" r="55"/>
	</g>
	<g style="display:inline;">
		<g>
			<path style="fill:#FFF5D9;" d="M75,51h-4V39c0-8.822-7.178-16-16-16s-16,7.178-16,16v12h-4c-2.209,0-4,1.791-4,4
				c0,10.347,0,17.604,0,28c0,2.204,1.839,4,4,4h40c2.209,0,4-1.791,4-4c0-10.053,0-17.556,0-28C79,52.791,77.209,51,75,51z M47,51
				V39c0-4.411,3.589-8,8-8s8,3.589,8,8v12H47z"/>
		</g>
		<g>
			<path style="fill:#FFFFFF;" d="M55,51H35c-2.209,0-4,1.791-4,4c0,10.347,0,17.604,0,28c0,2.204,1.839,4,4,4h20V51z"/>
		</g>
		<g>
			<rect x="31" y="57" style="fill:#FFE9A1;" width="48" height="4"/>
		</g>
		<g>
			<rect x="31" y="67" style="fill:#FFE9A1;" width="48" height="4"/>
		</g>
		<g>
			<rect x="31" y="77" style="fill:#FFE9A1;" width="48" height="4"/>
		</g>
		<g>
			<rect x="31" y="57" style="fill:#FFF5D9;" width="24" height="4"/>
		</g>
		<g>
			<rect x="31" y="67" style="fill:#FFF5D9;" width="24" height="4"/>
		</g>
		<g>
			<rect x="31" y="77" style="fill:#FFF5D9;" width="24" height="4"/>
		</g>
		<g>
			<path style="fill:#66510D;" d="M59,66c0-2.209-1.792-4-4-4c-2.209,0-4,1.791-4,4c0,1.538,0.878,2.858,2.151,3.527L51,81h8
				l-2.151-11.473C58.122,68.858,59,67.538,59,66z"/>
		</g>
	</g>
</g>
</svg>
