<?xml version="1.0" encoding="iso-8859-1"?>
<!-- Generator: Adobe Illustrator 17.1.0, SVG Export Plug-In . SVG Version: 6.00 Build 0)  -->
<!DOCTYPE svg PUBLIC "-//W3C//DTD SVG 1.0//EN" "http://www.w3.org/TR/2001/REC-SVG-20010904/DTD/svg10.dtd">
<svg version="1.0" xmlns="http://www.w3.org/2000/svg" xmlns:xlink="http://www.w3.org/1999/xlink" x="0px" y="0px" width="110px"
	 height="110px" viewBox="0 0 110 110" style="enable-background:new 0 0 110 110;" xml:space="preserve">
<g id="Artboard">
</g>
<g id="Multicolor">
	<circle style="fill:#FABC3D;" cx="55" cy="55" r="55"/>
	<g>
		<g>
			<path style="fill:#0484AB;" d="M82.368,82.459l-4.909-36C77.189,44.478,75.496,43,73.495,43H44.479c-2,0-3.693,1.478-3.963,3.459
				l-4.909,36c-0.156,1.145,0.19,2.301,0.95,3.171C37.316,86.5,38.414,87,39.57,87h38.835c1.155,0,2.254-0.5,3.013-1.37
				C82.178,84.76,82.524,83.604,82.368,82.459z"/>
		</g>
		<g>
			<path style="fill:#F0F1F1;" d="M63.987,23h-18c-2.463,0-7.43,2.543-16.328,15.891c-0.023,0.035-0.037,0.073-0.058,0.109h4.824
				c7.353-10.554,10.998-12,11.562-12h18c1.104,0,2-0.896,2-2S65.092,23,63.987,23z"/>
		</g>
		<g>
			<path style="fill:#F0F1F1;" d="M63.067,35h-0.08h-4.082h-3.918h-0.08c-4.374,0-7.92,3.546-7.92,7.92V43h11.918h12.082v-0.08
				C70.987,38.546,67.441,35,63.067,35z"/>
		</g>
		<g>
			<path style="fill:#FFFFFF;" d="M54.987,35h-0.08c-4.374,0-7.92,3.546-7.92,7.92V43h11.918v-8H54.987z"/>
		</g>
		<g>
			<polygon style="fill:#CFD3D4;" points="58.905,27 54.987,27 54.987,35 58.905,35 62.987,35 62.987,27 			"/>
		</g>
		<g>
			<rect x="54.987" y="27" style="fill:#E2E4E5;" width="3.918" height="8"/>
		</g>
		<g>
			<path style="fill:#FFFFFF;" d="M58.987,57c-0.028,0-0.055,0.002-0.082,0.003C52.316,57.033,46.987,60.6,46.987,65
				s5.328,7.967,11.918,7.997c0.028,0,0.055,0.003,0.082,0.003c6.627,0,12-3.582,12-8S65.615,57,58.987,57z"/>
		</g>
		<g>
			<path style="fill:#FFFFFF;" d="M29.659,38.891c-0.023,0.035-0.037,0.073-0.058,0.109h4.824c7.353-10.554,10.998-12,11.562-12
				h12.918v-4H45.987C43.524,23,38.557,25.543,29.659,38.891z"/>
		</g>
		<g>
			<path style="fill:#F0F1F1;" d="M31.405,42c0,0-4,6.591-4,8.8c0,2.209,1.791,4,4,4c2.209,0,4-1.791,4-4
				C35.405,48.591,31.405,42,31.405,42z"/>
		</g>
		<g>
			<path style="fill:#FFFFFF;" d="M27.405,50.8c0,2.209,1.791,4,4,4V42C31.405,42,27.405,48.591,27.405,50.8z"/>
		</g>
		<g>
			<path style="fill:#21B2D1;" d="M46.987,65c0-4.4,5.328-7.967,11.918-7.997V43H44.479c-2,0-3.693,1.478-3.963,3.459l-4.909,36
				c-0.156,1.145,0.19,2.301,0.95,3.171C37.316,86.5,38.414,87,39.57,87h19.335V72.997C52.316,72.967,46.987,69.4,46.987,65z"/>
		</g>
	</g>
</g>
</svg>
