<?xml version="1.0" encoding="iso-8859-1"?>
<!-- Generator: Adobe Illustrator 17.1.0, SVG Export Plug-In . SVG Version: 6.00 Build 0)  -->
<!DOCTYPE svg PUBLIC "-//W3C//DTD SVG 1.0//EN" "http://www.w3.org/TR/2001/REC-SVG-20010904/DTD/svg10.dtd">
<svg version="1.0" xmlns="http://www.w3.org/2000/svg" xmlns:xlink="http://www.w3.org/1999/xlink" x="0px" y="0px" width="110px"
	 height="110px" viewBox="0 0 110 110" style="enable-background:new 0 0 110 110;" xml:space="preserve">
<g id="Artboard">
</g>
<g id="Multicolor">
	<circle style="fill:#25B7D3;" cx="55" cy="55" r="55"/>
	<g>
		<g>
			<path style="fill:#DF2C2C;" d="M72.33,37.418c2.353-10.704-12.503-20.897-24.161-9.239c-10.354,10.873-1.953,35.353-1.953,35.353
				s24.481,8.402,35.353-1.953C93.227,49.921,83.034,35.065,72.33,37.418z"/>
		</g>
		<g>
			<path style="fill:#FA5655;" d="M72.33,37.418c2.354-10.703-12.503-20.897-24.161-9.239c-10.354,10.873-1.953,35.353-1.953,35.353
				s0.075,0.025,0.188,0.062l26.228-26.228C72.532,37.386,72.431,37.396,72.33,37.418z"/>
		</g>
		<g>
			<path style="fill:#F8E1C2;" d="M46.216,63.532c0,0-0.397-1.158-0.912-3.079L23.879,81.879c-1.172,1.172-1.172,3.071,0,4.243
				c1.172,1.172,3.071,1.172,4.243,0l21.573-21.573C47.541,63.984,46.216,63.532,46.216,63.532z"/>
		</g>
		<g>
			<path style="fill:#F0F1F1;" d="M68.844,40.904c1.905-8.665-8.781-18.257-18.219-8.82c-8.382,8.802-0.873,27.912-0.873,27.912
				s19.11,7.509,27.912-0.873C87.101,49.686,77.509,38.999,68.844,40.904z M71.929,55.311c-5.817,5.54-18.441,0.568-18.441,0.568
				s-4.968-12.621,0.571-18.438c6.237-6.238,12.554,0.848,11.295,6.575C71.081,42.757,78.167,49.074,71.929,55.311z"/>
		</g>
		<g>
			<path style="fill:#FFFFFF;" d="M50.625,32.084c-8.382,8.802-0.873,27.912-0.873,27.912s0.068,0.027,0.182,0.069l4.016-4.016
				c-0.294-0.104-0.462-0.17-0.462-0.17s-4.968-12.621,0.571-18.438c6.237-6.238,12.554,0.848,11.295,6.575
				c0.246-0.054,0.495-0.089,0.745-0.116l3.049-3.049c-0.101,0.019-0.203,0.031-0.304,0.053
				C70.749,32.24,60.063,22.647,50.625,32.084z"/>
		</g>
	</g>
</g>
</svg>
