<?xml version="1.0" encoding="iso-8859-1"?>
<!-- Generator: Adobe Illustrator 17.1.0, SVG Export Plug-In . SVG Version: 6.00 Build 0)  -->
<!DOCTYPE svg PUBLIC "-//W3C//DTD SVG 1.0//EN" "http://www.w3.org/TR/2001/REC-SVG-20010904/DTD/svg10.dtd">
<svg version="1.0" xmlns="http://www.w3.org/2000/svg" xmlns:xlink="http://www.w3.org/1999/xlink" x="0px" y="0px" width="110px"
	 height="110px" viewBox="0 0 110 110" style="enable-background:new 0 0 110 110;" xml:space="preserve">
<g id="Artboard">
</g>
<g id="Multicolor">
	<circle style="fill:#E04F5F;" cx="55" cy="55" r="55"/>
	<g>
		<g>
			<path style="fill:#21B2D1;" d="M70.868,51.022c8.837,0,16,7.163,16,16v4c0,8.837-7.163,16-16,16h-16l-13.456,0
				c-18.914,0.781-12.75-19.963-12.544-20c0,0-5.229-1.519-5.858-5.882c-0.055-0.382,0.114-0.761,0.435-0.975
				c0.321-0.214,0.736-0.224,1.067-0.026c4.44,2.646,9.039,2.425,13.769-0.164c0.329-0.18,0.732-0.161,1.042,0.05
				c0.31,0.211,0.477,0.578,0.431,0.95c-0.476,3.817-5.886,6.046-5.886,6.046s-3,10,8,10S50.868,51.022,70.868,51.022z"/>
		</g>
		<g>
			<path style="fill:#40C9E7;" d="M70.868,51.022c-20,0-18,26-29,26s-8-10-8-10s5.41-2.229,5.886-6.046
				c0.046-0.373-0.12-0.739-0.431-0.95s-0.713-0.23-1.042-0.05c-4.73,2.589-9.329,2.81-13.769,0.164
				c-0.332-0.197-0.746-0.188-1.067,0.026s-0.49,0.593-0.435,0.975c0.628,4.363,5.858,5.882,5.858,5.882
				c-0.207,0.037-6.37,20.781,12.544,20h3.847l33.754-33.754C76.625,51.851,73.847,51.022,70.868,51.022z"/>
		</g>
		<g>
			<circle style="fill:#FFFFFF;" cx="70" cy="62" r="4"/>
		</g>
		<g>
			<path style="fill:#F79392;" d="M45.247,33.128c-1.406-2.199-5.625-1.414-5.625,2.513c0.087,3.575,5.625,6.283,5.625,6.283
				s5.538-2.708,5.625-6.283C50.872,31.714,46.653,30.929,45.247,33.128z"/>
		</g>
		<g>
			<path style="fill:#F79392;" d="M81.288,32.039c0.372-2.337-2.959-4.347-5.325-1.686c-2.095,2.475,0.026,7.646,0.026,7.646
				s5.383,1.502,7.596-0.868C85.951,34.47,83.566,31.396,81.288,32.039z"/>
		</g>
		<g>
			<path style="fill:#F79392;" d="M59.637,24.263c-1.158-1.076-3.513,0.025-2.917,2.328c0.594,2.083,4.252,2.83,4.252,2.83
				s2.836-2.429,2.344-4.538C62.721,22.58,60.128,22.76,59.637,24.263z"/>
		</g>
		<g>
			<path style="fill:#F79392;" d="M62.032,37.047c-2.577-2.001-7.217,0.691-5.573,5.315c1.6,4.174,9.256,5.044,9.256,5.044
				s5.388-5.508,3.994-9.755C68.065,33.026,62.767,33.868,62.032,37.047z"/>
		</g>
		<g>
			<path style="fill:#3E3E3F;" d="M70.179,60c-0.065,0-0.127,0.013-0.191,0.019c0.118,0.21,0.191,0.449,0.191,0.707
				c0,0.802-0.65,1.452-1.452,1.452c-0.258,0-0.497-0.073-0.707-0.191C68.014,62.051,68,62.113,68,62.178
				c0,1.203,0.975,2.179,2.179,2.179c1.203,0,2.178-0.976,2.178-2.179S71.382,60,70.179,60z"/>
		</g>
	</g>
</g>
</svg>
