<?xml version="1.0" encoding="iso-8859-1"?>
<!-- Generator: Adobe Illustrator 17.1.0, SVG Export Plug-In . SVG Version: 6.00 Build 0)  -->
<!DOCTYPE svg PUBLIC "-//W3C//DTD SVG 1.0//EN" "http://www.w3.org/TR/2001/REC-SVG-20010904/DTD/svg10.dtd">
<svg version="1.0" xmlns="http://www.w3.org/2000/svg" xmlns:xlink="http://www.w3.org/1999/xlink" x="0px" y="0px" width="110px"
	 height="110px" viewBox="0 0 110 110" style="enable-background:new 0 0 110 110;" xml:space="preserve">
<g id="Artboard">
</g>
<g id="Multicolor">
	<circle style="fill:#E04F5F;" cx="55" cy="55" r="55"/>
	<g>
		<circle style="fill:#FACB1B;" cx="55" cy="55" r="32"/>
		<path style="fill:#FBE158;" d="M23,55c0,17.673,14.327,32,32,32V23C37.327,23,23,37.327,23,55z"/>
		<path style="fill:#FA5655;" d="M54.999,80.5c-9.67,0-16.368-6.515-18.814-10.766c-0.426-0.74-0.425-1.65,0.002-2.389
			c0.427-0.739,1.215-1.196,2.069-1.196h33.487c0.853,0,1.642,0.455,2.07,1.193c0.428,0.739,0.43,1.65,0.005,2.39
			C71.371,73.982,64.67,80.5,54.999,80.5z"/>
		<path style="fill:#FA5655;" d="M42.003,41.674c-2.249-3.957-8.997-2.544-8.997,4.522c0.14,6.432,8.997,11.305,8.997,11.305
			S50.86,52.628,51,46.196C51,39.13,44.252,37.717,42.003,41.674z"/>
		<path style="fill:#FA5655;" d="M67.997,41.674C65.748,37.717,59,39.13,59,46.196c0.14,6.432,8.997,11.305,8.997,11.305
			s8.857-4.872,8.997-11.305C76.993,39.13,70.246,37.717,67.997,41.674z"/>
		<path style="fill:#F79392;" d="M45.879,78.466c2.605,1.224,5.621,2.034,9.011,2.034c3.486,0,6.578-0.854,9.232-2.136
			c-1.574-3.457-5.051-5.864-9.097-5.864C50.939,72.5,47.43,74.954,45.879,78.466z"/>
	</g>
</g>
</svg>
