<?xml version="1.0" encoding="iso-8859-1"?>
<!-- Generator: Adobe Illustrator 17.1.0, SVG Export Plug-In . SVG Version: 6.00 Build 0)  -->
<!DOCTYPE svg PUBLIC "-//W3C//DTD SVG 1.0//EN" "http://www.w3.org/TR/2001/REC-SVG-20010904/DTD/svg10.dtd">
<svg version="1.0" xmlns="http://www.w3.org/2000/svg" xmlns:xlink="http://www.w3.org/1999/xlink" x="0px" y="0px" width="110px"
	 height="110px" viewBox="0 0 110 110" style="enable-background:new 0 0 110 110;" xml:space="preserve">
<g id="Artboard">
</g>
<g id="Multicolor">
	<circle style="fill:#25B7D3;" cx="55" cy="55" r="55"/>
	<g>
		<g>
			<rect x="31" y="51" style="fill:#E2E4E5;" width="48" height="8"/>
		</g>
		<g>
			<path style="fill:#FFFFFF;" d="M87,63V47l-4.496,0.562C80.502,47.812,79,49.514,79,51.531v6.938c0,2.017,1.502,3.719,3.504,3.969
				L87,63z"/>
		</g>
		<g>
			<path style="fill:#FFFFFF;" d="M23,47v16l4.496-0.562C29.498,62.188,31,60.486,31,58.469v-6.938c0-2.017-1.502-3.719-3.504-3.969
				L23,47z"/>
		</g>
		<g>
			<rect x="51" y="31" style="fill:#E2E4E5;" width="8" height="48"/>
		</g>
		<g>
			<path style="fill:#CFD3D4;" d="M63,23H47l0.562,4.496C47.812,29.498,49.514,31,51.531,31h6.938c2.017,0,3.719-1.502,3.969-3.504
				L63,23z"/>
		</g>
		<g>
			<path style="fill:#CFD3D4;" d="M47,87h16l-0.562-4.496C62.188,80.502,60.486,79,58.469,79h-6.938
				c-2.017,0-3.719,1.502-3.969,3.504L47,87z"/>
		</g>
		<g>
			<rect x="31" y="51" style="fill:#FFFFFF;" width="48" height="4"/>
		</g>
		<g>
			<rect x="51" y="31" style="fill:#FFFFFF;" width="4" height="48"/>
		</g>
		<g>
			<path style="fill:#E2E4E5;" d="M55,23h-8l0.562,4.496C47.812,29.498,49.514,31,51.531,31H55V23z"/>
		</g>
		<g>
			<path style="fill:#E2E4E5;" d="M55,79h-3.469c-2.017,0-3.719,1.502-3.969,3.504L47,87h8V79z"/>
		</g>
		<circle style="fill:#FFFFFF;" cx="55" cy="55" r="5"/>
		<path style="fill:#CFD3D4;" d="M55,64c-4.962,0-9-4.037-9-9s4.038-9,9-9s9,4.037,9,9S59.962,64,55,64z M55,50
			c-2.757,0-5,2.243-5,5s2.243,5,5,5s5-2.243,5-5S57.757,50,55,50z"/>
	</g>
</g>
</svg>
