<?xml version="1.0" encoding="iso-8859-1"?>
<!-- Generator: Adobe Illustrator 17.1.0, SVG Export Plug-In . SVG Version: 6.00 Build 0)  -->
<!DOCTYPE svg PUBLIC "-//W3C//DTD SVG 1.0//EN" "http://www.w3.org/TR/2001/REC-SVG-20010904/DTD/svg10.dtd">
<svg version="1.0" xmlns="http://www.w3.org/2000/svg" xmlns:xlink="http://www.w3.org/1999/xlink" x="0px" y="0px" width="110px"
	 height="110px" viewBox="0 0 110 110" style="enable-background:new 0 0 110 110;" xml:space="preserve">
<g id="Artboard">
</g>
<g id="Multicolor">
	<circle style="fill:#E04F5F;" cx="55" cy="55" r="55"/>
	<g>
		<path style="fill:#3E3E3F;" d="M64,73.517V38.941h-2v34.841C62.654,73.717,63.323,73.63,64,73.517z"/>
		<path style="fill:#3E3E3F;" d="M55,73.941c0.269,0,0.61,0.007,1,0.015V38.941h-2v35.015C54.39,73.948,54.731,73.941,55,73.941z"/>
		<path style="fill:#3E3E3F;" d="M48,73.782V38.941h-2v34.576C46.677,73.63,47.346,73.717,48,73.782z"/>
		<path style="fill:#FBE158;" d="M79,36H55H31c-3.114-0.737-4.703-1.834-6-3v9c1.298-1.166,2.887-2.264,6-3c0,0,11.914,0,24,0
			s24,0,24,0c2.694,0.636,4.416,1.579,6,3c0-6.464,0-6.028,0-9C83.703,34.166,82.114,35.263,79,36z"/>
		<path style="fill:#FACB1B;" d="M73,34.941c0-4,1-8,8.943-8c1.105,0,1.732,0.072,2-1c0.268-1.071-0.41-1.935-1.515-1.94
			C71,23.941,67,28.941,67,34.941s9,15,9,26c0,14.401-17.185,13-21,13s-21,1.401-21-13c0-11,9-20,9-26s-4-11-15.428-10.94
			c-1.105,0.006-1.783,0.869-1.515,1.94c0.268,1.072,0.895,1,2,1c7.943,0,8.943,4,8.943,8c0,6-12,13.615-12,26
			c0,16,12.471,22.58,30,22c17.529,0.58,30-6,30-22C85,48.556,73,40.941,73,34.941z"/>
		<path style="fill:#FBEC9A;" d="M75,86.941H35v-4c13.333-13.333,26.667-13.333,40,0V86.941z"/>
		<path style="fill:#FBEC9A;" d="M31,36c-3.114-0.737-4.703-1.834-6-3v9c1.298-1.166,2.887-2.264,6-3c0,0,11.914,0,24,0v-3H31z"/>
		<path style="fill:#FBE158;" d="M34,60.941c0-11,9-20,9-26s-4-11-15.428-10.94c-1.105,0.006-1.783,0.869-1.515,1.94
			c0.268,1.072,0.895,1,2,1c7.943,0,8.943,4,8.943,8c0,6-12,13.615-12,26c0,16,12.471,22.58,30,22v-9
			C51.185,73.941,34,75.342,34,60.941z"/>
		<path style="fill:#FCF6C2;" d="M35,86.941h20v-14c-6.667,0-13.333,3.333-20,10V86.941z"/>
	</g>
</g>
</svg>
