<?xml version="1.0" encoding="iso-8859-1"?>
<!-- Generator: Adobe Illustrator 17.1.0, SVG Export Plug-In . SVG Version: 6.00 Build 0)  -->
<!DOCTYPE svg PUBLIC "-//W3C//DTD SVG 1.0//EN" "http://www.w3.org/TR/2001/REC-SVG-20010904/DTD/svg10.dtd">
<svg version="1.0" xmlns="http://www.w3.org/2000/svg" xmlns:xlink="http://www.w3.org/1999/xlink" x="0px" y="0px" width="110px"
	 height="110px" viewBox="0 0 110 110" style="enable-background:new 0 0 110 110;" xml:space="preserve">
<g id="Artboard">
</g>
<g id="Multicolor">
	<circle style="fill:#E04F5F;" cx="55" cy="55" r="55"/>
	<g>
		<g>
			<path style="fill:#3E3E3F;" d="M83,52.25c0-3-12.536-9-28-9c-15.464,0-28,6-28,9c0,1.845,4.748,4.825,12,6.846V83.25
				c5,5,27,5,32,0V59.096C78.252,57.075,83,54.095,83,52.25z"/>
		</g>
		<g>
			<path style="fill:#5B5C5F;" d="M39,83.25c2.5,2.5,9.25,3.75,16,3.75V61.25c-5.951,0-11.464-0.89-16-2.154V83.25z"/>
		</g>
		<g>
			<path style="fill:#E2E4E5;" d="M55,61.25c-5.951,0-11.464-0.89-16-2.154v7.284C43.54,67.4,49.05,68,55,68s11.46-0.6,16-1.62
				v-7.284C66.464,60.36,60.951,61.25,55,61.25z"/>
		</g>
		<g>
			<path style="fill:#FFFFFF;" d="M39,66.38C43.54,67.4,49.05,68,55,68v-6.75c-5.951,0-11.464-0.89-16-2.154V66.38z"/>
		</g>
		<g>
			<path style="fill:#5B5C5F;" d="M27,52.25c0,3,12.536,9,28,9v-18C39.536,43.25,27,49.25,27,52.25z"/>
		</g>
		<g>
			<path style="fill:#9E9FA0;" d="M35,52.25c0,1.676,8.958,5,20,5v-10C47.185,47.25,35,49.8,35,52.25z"/>
		</g>
		<g>
			<path style="fill:#5B5C5F;" d="M75,52.25c0,1.676-8.958,5-20,5v-10C62.815,47.25,75,49.8,75,52.25z"/>
		</g>
		<g>
			<path style="fill:#FFFFFF;" d="M52.47,57.19c-2.39-0.11-4.66-0.36-6.71-0.71c-1.8-1.72-3.73-4.11-5.19-7.27
				c-2.68-5.8-3.77-14.2,0.43-25.96c9.31,9.31,12.33,17.63,12.81,24.01C54.13,51.54,53.31,54.95,52.47,57.19z"/>
		</g>
		<g>
			<path style="fill:#F7B4B4;" d="M49.01,53.688c-1.823,0.687-10.27-4.622-5.135-19C54.659,45.471,50.833,53,49.01,53.688z"/>
		</g>
		<g>
			<path style="fill:#FFFFFF;" d="M69.31,30.94c-7.97,5.64-11.49,11.42-12.85,16.33c-1.12,4.13-0.72,7.64-0.13,9.96
				c2.94-0.07,5.7-0.36,8.15-0.79c2.97-2.13,4.95-4.53,6.28-6.81c2.19-3.76,2.6-7.2,2.66-8.65c0.83,1.93,7.37,2.58,8.14,1.71
				C79.93,35.24,73.84,32.48,69.31,30.94z"/>
		</g>
		<g>
			<path style="fill:#F7B4B4;" d="M71.85,40.16c-5.288,16.777-11.66,13.97-11.66,13.97c-4.69-5.88,6.93-14.57,9.43-16.63
				C69.95,38.59,70.77,39.47,71.85,40.16z"/>
		</g>
	</g>
</g>
</svg>
