<?xml version="1.0" encoding="iso-8859-1"?>
<!-- Generator: Adobe Illustrator 17.1.0, SVG Export Plug-In . SVG Version: 6.00 Build 0)  -->
<!DOCTYPE svg PUBLIC "-//W3C//DTD SVG 1.0//EN" "http://www.w3.org/TR/2001/REC-SVG-20010904/DTD/svg10.dtd">
<svg version="1.0" xmlns="http://www.w3.org/2000/svg" xmlns:xlink="http://www.w3.org/1999/xlink" x="0px" y="0px" width="110px"
	 height="110px" viewBox="0 0 110 110" style="enable-background:new 0 0 110 110;" xml:space="preserve">
<g id="Artboard">
</g>
<g id="Multicolor">
	<circle style="fill:#32BEA6;" cx="55" cy="55" r="55"/>
	<g>
		
			<rect x="40.92" y="40.08" transform="matrix(-0.7071 -0.7071 0.7071 -0.7071 34.0796 144.2757)" style="fill:#3E3E3F;" width="12" height="50"/>
		
			<rect x="64.962" y="32.038" transform="matrix(-0.7071 -0.7071 0.7071 -0.7071 92.1213 120.234)" style="fill:#E2E4E5;" width="12" height="18"/>
		
			<rect x="65.841" y="29.917" transform="matrix(-0.7071 -0.7071 0.7071 -0.7071 89.9999 115.1127)" style="fill:#FFFFFF;" width="6" height="18"/>
		
			<rect x="41.799" y="37.958" transform="matrix(0.7071 0.7071 -0.7071 0.7071 57.6396 -13.2376)" style="fill:#5B5C5F;" width="6" height="50"/>
		<path style="fill:#FBE158;" d="M42.04,33.346C42.017,33.349,42,33.369,42,33.392v0.092c0,0.016,0.012,0.029,0.027,0.031
			c3.143,0.428,5.454,2.736,5.887,5.876c0.003,0.023,0.023,0.04,0.046,0.04h0.092c0.016,0,0.029-0.012,0.031-0.027
			c0.428-3.143,2.736-5.454,5.876-5.888c0.023-0.003,0.04-0.023,0.04-0.046v-0.092c0-0.016-0.012-0.029-0.027-0.031
			c-3.143-0.428-5.454-2.736-5.888-5.876c-0.003-0.023-0.023-0.04-0.046-0.04h-0.065c-0.031,0-0.057,0.023-0.062,0.054
			C47.475,30.614,45.172,32.914,42.04,33.346z"/>
		<path style="fill:#FBE158;" d="M74.04,58.346C74.017,58.349,74,58.369,74,58.392v0.105c0,0.008,0.006,0.014,0.014,0.015
			c3.15,0.423,5.467,2.733,5.901,5.878c0.003,0.023,0.023,0.04,0.046,0.04h0.065c0.031,0,0.058-0.023,0.062-0.054
			c0.435-3.116,2.721-5.409,5.832-5.855C85.966,58.516,86,58.476,86,58.43v-0.051c0-0.016-0.012-0.029-0.027-0.031
			c-3.143-0.428-5.454-2.736-5.888-5.876c-0.003-0.023-0.023-0.04-0.046-0.04h-0.065c-0.031,0-0.058,0.023-0.062,0.054
			C79.475,55.614,77.172,57.914,74.04,58.346z"/>
		<path style="fill:#FBE158;" d="M80.024,27.882C80.01,27.883,80,27.895,80,27.909v0.038c0,0.018,0.013,0.034,0.031,0.036
			c1.833,0.256,3.178,1.61,3.422,3.449h0.093c0.245-1.849,1.604-3.208,3.453-3.453v-0.093c-1.849-0.245-3.208-1.604-3.453-3.453
			h-0.093C83.209,26.273,81.861,27.628,80.024,27.882z"/>
	</g>
</g>
</svg>
