<?xml version="1.0" encoding="iso-8859-1"?>
<!-- Generator: Adobe Illustrator 17.1.0, SVG Export Plug-In . SVG Version: 6.00 Build 0)  -->
<!DOCTYPE svg PUBLIC "-//W3C//DTD SVG 1.0//EN" "http://www.w3.org/TR/2001/REC-SVG-20010904/DTD/svg10.dtd">
<svg version="1.0" xmlns="http://www.w3.org/2000/svg" xmlns:xlink="http://www.w3.org/1999/xlink" x="0px" y="0px" width="110px"
	 height="110px" viewBox="0 0 110 110" style="enable-background:new 0 0 110 110;" xml:space="preserve">
<g id="Artboard">
</g>
<g id="Multicolor">
	<circle style="fill:#E04F5F;" cx="55" cy="55" r="55"/>
	<g>
		<g>
			<path style="fill:#FACB1B;" d="M80,73c0-4-5-6-5-6c-2.016,1.438-6.58,2.69-7.58,2.69c-12.791,2.458-23.86,0-24.86,0
				C39.32,69.07,36.64,68.17,35,67c0,0-5,2-5,6s0,10-4,10c0,1,0,4,4,4c5.333,0,8.333-8,7-8c3,0,4.702-0.8,6-3
				c2.092,2.267,4.468,2.655,7,2c0,0,2,3,5,3s5-3,5-3c2.532,0.655,4.908,0.267,7-2c1.298,2.2,3,3,6,3c-1.333,0,1.667,8,7,8
				c4,0,4-3,4-4C80,83,80,77,80,73z M47,76c-1.104,0-2-0.896-2-2s0.896-2,2-2s2,0.896,2,2S48.104,76,47,76z M55,77
				c-1.104,0-2-0.896-2-2s0.896-2,2-2s2,0.896,2,2S56.104,77,55,77z M63,76c-1.104,0-2-0.896-2-2s0.896-2,2-2s2,0.896,2,2
				S64.104,76,63,76z"/>
		</g>
		<g>
			<path style="fill:#40C9E7;" d="M80,48c0,5.62-1.86,10.82-5,15c-7,5-33,5-40,0c-3.14-4.18-5-9.38-5-15c0-13.81,11.19-25,25-25
				S80,34.19,80,48z"/>
		</g>
		<g>
			<path style="fill:#F3B607;" d="M75,63v4c-2.016,1.438-6.58,2.69-7.58,2.69c-12.791,2.457-23.86,0-24.86,0
				C39.32,69.07,36.64,68.17,35,67v-4C42,68,68,68,75,63z"/>
		</g>
		<g>
			<path style="fill:#6FDAF1;" d="M30,48c0,5.62,1.86,10.82,5,15c3.5,2.5,11.75,3.75,20,3.75V23C41.19,23,30,34.19,30,48z"/>
		</g>
		<g>
			<polygon style="fill:#FFFFFF;" points="45.006,32 46.553,35.135 50.013,35.637 47.509,38.077 48.1,41.523 45.006,39.896 
				41.912,41.523 42.503,38.077 40,35.637 43.459,35.135 			"/>
		</g>
		<g>
			<polygon style="fill:#C9F2F8;" points="65.68,40 66.817,42.304 69.36,42.674 67.52,44.467 67.955,47 65.68,45.804 63.406,47 
				63.84,44.467 62,42.674 64.543,42.304 			"/>
		</g>
		<g>
			<polygon style="fill:#FFFFFF;" points="49.32,48 50.457,50.304 53,50.674 51.16,52.467 51.594,55 49.32,53.804 47.045,55 
				47.48,52.467 45.64,50.674 48.183,50.304 			"/>
		</g>
		<g>
			<path style="fill:#FBE158;" d="M53,75c0-1.104,0.896-2,2-2v-2.221c-6.875-0.05-11.79-1.089-12.44-1.089
				C39.32,69.07,36.64,68.17,35,67c0,0-5,2-5,6s0,10-4,10c0,1,0,4,4,4c5.333,0,8.333-8,7-8c3,0,4.702-0.8,6-3
				c2.092,2.267,4.468,2.655,7,2c0,0,2,3,5,3v-4C53.896,77,53,76.104,53,75z M47,76c-1.104,0-2-0.896-2-2s0.896-2,2-2s2,0.896,2,2
				S48.104,76,47,76z"/>
		</g>
		<g>
			<path style="fill:#F3B607;" d="M35,67c1.64,1.17,4.32,2.07,7.56,2.69c0.65,0,5.564,1.039,12.44,1.089V66.75
				c-8.25,0-16.5-1.25-20-3.75V67z"/>
		</g>
	</g>
</g>
</svg>
