<?xml version="1.0" encoding="iso-8859-1"?>
<!-- Generator: Adobe Illustrator 17.1.0, SVG Export Plug-In . SVG Version: 6.00 Build 0)  -->
<!DOCTYPE svg PUBLIC "-//W3C//DTD SVG 1.0//EN" "http://www.w3.org/TR/2001/REC-SVG-20010904/DTD/svg10.dtd">
<svg version="1.0" xmlns="http://www.w3.org/2000/svg" xmlns:xlink="http://www.w3.org/1999/xlink" x="0px" y="0px" width="110px"
	 height="110px" viewBox="0 0 110 110" style="enable-background:new 0 0 110 110;" xml:space="preserve">
<g id="Artboard">
</g>
<g id="Multicolor">
	<circle style="fill:#25B7D3;" cx="55" cy="55" r="55"/>
	<g>
		<path style="fill:#DF2C2C;" d="M78.63,47.371l-25,25c-4.511,4.511-11.691,4.309-15.96,0.04c-0.01-0.01-0.03-0.03-0.04-0.04
			c-4.42-4.42-4.42-11.58,0-16l25-25l-8-8l-25,25c-8.84,8.84-8.84,23.16,0,32c0.01,0.01,0.03,0.03,0.04,0.04
			c6.147,6.147,15.304,8.17,23.44,5.32c6.932-2.465,8.132-4.972,33.52-30.36L78.63,47.371z"/>
		<path style="fill:#FA5655;" d="M37.63,72.37c0.01,0.01,0.03,0.03,0.04,0.04l-8,8c-0.01-0.01-0.03-0.03-0.04-0.04
			c-8.84-8.84-8.84-23.16,0-32l25-25l8,8l-25,25C33.21,60.79,33.21,67.951,37.63,72.37z"/>
		
			<rect x="48.971" y="25.714" transform="matrix(0.7071 -0.7071 0.7071 0.7071 -6.1823 47.8156)" style="fill:#FFFFFF;" width="11.314" height="11.314"/>
		
			<rect x="72.971" y="49.714" transform="matrix(0.7071 -0.7071 0.7071 0.7071 -16.1234 71.8156)" style="fill:#E2E4E5;" width="11.314" height="11.314"/>
	</g>
</g>
</svg>
