<?xml version="1.0" encoding="iso-8859-1"?>
<!-- Generator: Adobe Illustrator 17.1.0, SVG Export Plug-In . SVG Version: 6.00 Build 0)  -->
<!DOCTYPE svg PUBLIC "-//W3C//DTD SVG 1.0//EN" "http://www.w3.org/TR/2001/REC-SVG-20010904/DTD/svg10.dtd">
<svg version="1.0" xmlns="http://www.w3.org/2000/svg" xmlns:xlink="http://www.w3.org/1999/xlink" x="0px" y="0px" width="110px"
	 height="110px" viewBox="0 0 110 110" style="enable-background:new 0 0 110 110;" xml:space="preserve">
<g id="Artboard">
</g>
<g id="Multicolor">
	<g>
		<circle style="fill:#FABC3D;" cx="55" cy="55" r="55"/>
	</g>
	<g>
		<path style="fill:#3E3E3F;" d="M65.005,65c10.156-2.257,8.946-10.796,9-23c0-9.941-9.059-18-19-18s-19,8.059-19,18
			c0.034,10.368-0.796,20.823,9,23H65.005z"/>
		<path style="fill:#3E3E3F;" d="M83.409,77.663c-0.889-2.311-2.797-4.08-5.168-4.791L65,70H55H45l-13.241,2.872
			c-2.371,0.711-4.279,2.48-5.168,4.791L23,87h32h32L83.409,77.663z"/>
		<g>
			<path style="fill:#FFFFFF;" d="M45,68c-1.104,0-2,0.896-2,2v0.352c0,1.695,0.673,3.321,1.872,4.52
				c2.338,2.338,6.073,2.507,8.612,0.391L55,74l-10-4V68z"/>
			<path style="fill:#FFFFFF;" d="M65,68v2l-10,4l1.516,1.263c2.54,2.117,6.274,1.947,8.612-0.391
				C66.327,73.673,67,72.047,67,70.352V70C67,68.896,66.104,68,65,68z"/>
		</g>
		<polygon style="fill:#FFFFFF;" points="74,81 74,72 71,71 70,81 55,81 40,81 39,71 36,72 36,81 34,87 55,87 76,87 		"/>
		<path style="fill:#F7B4B4;" d="M55.005,69c-0.001,0-0.003-0.001-0.005-0.002V74l10-4v-8.559
			C62.159,65.832,58.287,67.906,55.005,69z"/>
		<path style="fill:#FBC8C8;" d="M45,61.424V70l10,4v-5.002C51.715,67.902,47.84,65.824,45,61.424z"/>
		<path style="fill:#FBC8C8;" d="M66.005,39l-8,5l1-9l-11,10v-5c-6.359,6.063-7.922,8.148-9.921,8.792
			c0.271,2.747,1.326,5.653,4.099,6.133c2.441,9.102,8.218,12.54,12.822,14.075c4.604-1.535,10.38-4.973,12.822-14.075
			c1.98-0.342,3.082-1.925,3.651-3.801C68.013,49.368,66.005,45.542,66.005,39z"/>
		<path style="fill:#FBD7D7;" d="M48.005,45v-5c-6.359,6.063-7.922,8.148-9.921,8.792c0.271,2.747,1.326,5.653,4.099,6.133
			c2.441,9.102,8.218,12.54,12.822,14.075V38.636L48.005,45z"/>
		<g>
			<path style="fill:#3E3E3F;" d="M52.012,47c0-1.104-0.896-2-2-2c-0.002,0-0.004,0-0.006,0c0.001,0.021,0.006,0.041,0.006,0.062
				c0,1.103-0.892,1.996-1.994,2C48.051,48.137,48.928,49,50.012,49C51.116,49,52.012,48.104,52.012,47z"/>
		</g>
		<g>
			<path style="fill:#3E3E3F;" d="M62.005,47c0-1.104-0.896-2-2-2c-0.002,0-0.004,0-0.006,0c0.001,0.021,0.006,0.041,0.006,0.062
				c0,1.103-0.892,1.996-1.994,2C58.045,48.137,58.922,49,60.005,49C61.11,49,62.005,48.104,62.005,47z"/>
		</g>
		<g>
			<path style="fill:#F79392;" d="M50.025,58h10c0,0,0,3-5,3S50.025,58,50.025,58z"/>
		</g>
		<g>
			<path style="fill:#FFFFFF;" d="M67.046,35.081c0.345-0.535,0.551-1.169,0.551-1.853c0-1.893-1.535-3.429-3.429-3.429
				c-0.427,0-0.833,0.088-1.21,0.231c-1.075-9.374-14.79-9.374-15.865,0c-0.378-0.143-0.783-0.231-1.21-0.231
				c-1.893,0-3.429,1.535-3.429,3.429c0,0.684,0.205,1.318,0.551,1.853c-1.675,1.13-3.117,2.423-3.979,3.861
				c0,1.143,0,3.429,0,3.429c3.374-3.374,7.371-4.877,11.53-5.435c1.477-0.198,2.973-0.28,4.47-0.28s2.993,0.081,4.47,0.28
				c4.16,0.558,8.156,2.061,11.53,5.435c0,0,0-2.286,0-3.429C70.163,37.504,68.721,36.211,67.046,35.081z"/>
		</g>
	</g>
</g>
</svg>
