<?xml version="1.0" encoding="iso-8859-1"?>
<!-- Generator: Adobe Illustrator 17.1.0, SVG Export Plug-In . SVG Version: 6.00 Build 0)  -->
<!DOCTYPE svg PUBLIC "-//W3C//DTD SVG 1.0//EN" "http://www.w3.org/TR/2001/REC-SVG-20010904/DTD/svg10.dtd">
<svg version="1.0" xmlns="http://www.w3.org/2000/svg" xmlns:xlink="http://www.w3.org/1999/xlink" x="0px" y="0px" width="110px"
	 height="110px" viewBox="0 0 110 110" style="enable-background:new 0 0 110 110;" xml:space="preserve">
<g id="Artboard">
</g>
<g id="Multicolor">
	<circle style="fill:#FABC3D;" cx="55" cy="55" r="55"/>
	<g>
		<path style="fill:#3E3E3F;" d="M79,37v-2c-6.324-4.746-13.712-7.373-21.217-7.895C57.92,26.763,58,26.392,58,26
			c0-1.657-1.343-3-3-3s-3,1.343-3,3c0,0.392,0.08,0.763,0.217,1.106C44.711,27.627,37.323,30.255,31,35v2l4,6v36
			c-2.209,0-4,1.791-4,4v4h48v-4c0-2.209-1.791-4-4-4V43L79,37z"/>
		<path style="fill:#5B5C5F;" d="M31,35v2l4,6v36c-2.209,0-4,1.791-4,4v4h24V27.003C46.552,27.003,38.104,29.669,31,35z"/>
		<rect x="35" y="43" style="fill:#DF2C2C;" width="40" height="36"/>
		<polygon style="fill:#BF0302;" points="79,37 75,43 35,43 31,37 		"/>
		<polygon style="fill:#DF2C2C;" points="55,37 31,37 35,43 55,43 		"/>
		<rect x="35" y="43" style="fill:#FA5655;" width="20" height="36"/>
		<rect x="31" y="35" style="fill:#FA5655;" width="48" height="2"/>
		<rect x="43" y="46" style="fill:#E2E4E5;" width="24" height="8"/>
		<rect x="43" y="57" style="fill:#BF0302;" width="24" height="18"/>
		<circle style="fill:#E2E4E5;" cx="62" cy="63" r="2"/>
		<rect x="45" y="48" style="fill:#3E3E3F;" width="20" height="4"/>
		<rect x="43" y="57" style="fill:#DF2C2C;" width="12" height="18"/>
		<rect x="31" y="35" style="fill:#F79392;" width="24" height="2"/>
	</g>
</g>
</svg>
