<?xml version="1.0" encoding="iso-8859-1"?>
<!-- Generator: Adobe Illustrator 17.1.0, SVG Export Plug-In . SVG Version: 6.00 Build 0)  -->
<!DOCTYPE svg PUBLIC "-//W3C//DTD SVG 1.0//EN" "http://www.w3.org/TR/2001/REC-SVG-20010904/DTD/svg10.dtd">
<svg version="1.0" xmlns="http://www.w3.org/2000/svg" xmlns:xlink="http://www.w3.org/1999/xlink" x="0px" y="0px" width="110px"
	 height="110px" viewBox="0 0 110 110" style="enable-background:new 0 0 110 110;" xml:space="preserve">
<g id="Artboard">
</g>
<g id="Multicolor">
	<g>
		<circle style="fill:#FABC3D;" cx="55" cy="55" r="55"/>
	</g>
	<g>
		<path style="fill:#AF7653;" d="M83,76c-0.615-1.333-1.698-2.394-3.043-2.982L65,69v-5.967l-5.105,3.996
			c-0.569,0.639-1.384,1.004-2.24,1.004H55V87h32L83,76z"/>
		<path style="fill:#BF8662;" d="M70,45.036c-1,0-1,1.111-1,1.111v-0.111l-1,1c0-18-4-12-13-12s-13-6-13,12l-1-1v6.997l4,10
			l5.105,3.996c0.569,0.639,1.384,1.004,2.24,1.004H55h2.655c0.856,0,1.671-0.365,2.24-1.004L65,63.033l3.207-8.016
			C71.042,54.813,72,50.512,72,47.259C72,46.147,71,45.036,70,45.036z"/>
		<path style="fill:#BF8662;" d="M50.105,67.029L45,63.033V69l-14.957,4.018C28.698,73.606,27.615,74.667,27,76l-4,11h32V68.033
			h-2.655C51.489,68.033,50.674,67.668,50.105,67.029z"/>
		<path style="fill:#CC9978;" d="M42,47.036l-1-1v0.111c0,0,0-1.111-1-1.111s-2,1.111-2,2.223c0,3.253,0.958,7.554,3.793,7.758
			L45,63.033l5.105,3.996c0.569,0.639,1.384,1.004,2.24,1.004H55V35.036C46,35.036,42,29.036,42,47.036z"/>
		<g>
			<path style="fill:#FFFFFF;" d="M55,87v-4.999c-11.319,0-13.822-1.728-15-12.001c-1.114,0.388-4,1-4,1v16H55z"/>
		</g>
		<g>
			<path style="fill:#FFFFFF;" d="M55,87v-4.999c11.319,0,13.822-1.728,15-12.001c1.114,0.388,4,1,4,1v16H55z"/>
		</g>
		<g>
			<path style="fill:#3E3E3F;" d="M52,47.033c0-1.104-0.896-2-2-2c-0.002,0-0.004,0-0.006,0C49.995,45.055,50,45.075,50,45.096
				c0,1.103-0.892,1.996-1.994,2c0.033,1.075,0.91,1.938,1.994,1.938C51.104,49.033,52,48.138,52,47.033z"/>
		</g>
		<g>
			<path style="fill:#3E3E3F;" d="M61.994,47.033c0-1.104-0.896-2-2-2c-0.002,0-0.004,0-0.006,0
				c0.001,0.021,0.006,0.041,0.006,0.062c0,1.103-0.892,1.996-1.994,2c0.033,1.075,0.91,1.938,1.994,1.938
				C61.098,49.033,61.994,48.138,61.994,47.033z"/>
		</g>
		<g>
			<path style="fill:#692E19;" d="M55,29.036c-12,0-15,7-14,17l1,1c0-18,4-12,13-12s13-6,13,12l1-1C70,36.036,67,29.036,55,29.036z"
				/>
		</g>
		<g>
			<path style="fill:#84462D;" d="M41,46.036l1,1c0-18,4-12,13-12v-6C43,29.036,40,36.036,41,46.036z"/>
		</g>
		<g>
			<path style="fill:#84462D;" d="M50,57.036h10c0,0,0,3-5,3S50,57.036,50,57.036z"/>
		</g>
	</g>
</g>
</svg>
