<?xml version="1.0" encoding="iso-8859-1"?>
<!-- Generator: Adobe Illustrator 17.1.0, SVG Export Plug-In . SVG Version: 6.00 Build 0)  -->
<!DOCTYPE svg PUBLIC "-//W3C//DTD SVG 1.0//EN" "http://www.w3.org/TR/2001/REC-SVG-20010904/DTD/svg10.dtd">
<svg version="1.0" xmlns="http://www.w3.org/2000/svg" xmlns:xlink="http://www.w3.org/1999/xlink" x="0px" y="0px" width="110px"
	 height="110px" viewBox="0 0 110 110" style="enable-background:new 0 0 110 110;" xml:space="preserve">
<g id="Artboard">
</g>
<g id="Multicolor">
	<g>
		<circle style="fill:#E04F5F;" cx="55.024" cy="54.976" r="55"/>
	</g>
	<g>
		<path style="fill:#F7B4B4;" d="M65,64v-0.003l-5.105,3.996c-0.569,0.639-1.384,1.004-2.24,1.004H55h-2.655
			c-0.856,0-1.671-0.365-2.24-1.004L45,63.997v3.006l-2,1l12,19.003l9.844-15.589C64.999,68.011,65,65.277,65,64z M55,75.006
			L54.992,75c0.003,0,0.005,0,0.008,0s0.005,0,0.008,0L55,75.006z"/>
		<g>
			<path style="fill:#FACB1B;" d="M23,87.003l4-11c0.615-1.333,1.698-2.394,3.043-2.983L43,68.003l12,19H23z"/>
		</g>
		<path style="fill:#FBC8C8;" d="M55,68.997h-2.655c-0.856,0-1.671-0.365-2.24-1.004L45,63.997V64c0,1.277,0.001,4.011,0.156,7.417
			L55,87.006v-12L54.992,75c0.003,0,0.005,0,0.008,0V68.997z"/>
		<g>
			<path style="fill:#FFFFFF;" d="M45,64c0,3,0,14,2,23c-13,0-14,0-14,0l3-19L45,64z"/>
		</g>
		<g>
			<polygon style="fill:#E2E4E5;" points="42.25,87 40.25,69 39.25,87 			"/>
		</g>
		<path style="fill:#FBC8C8;" d="M42,56l3,7.997l5.105,3.996c0.569,0.639,1.384,1.004,2.24,1.004H55h2.655
			c0.856,0,1.671-0.365,2.24-1.004L65,63.997l3.207-8.017C71.042,55.776,72,51.476,72,48.222c0-1.085-0.954-2.163-1.931-2.213
			C69.387,49.414,68.547,52.856,68,56h-1V43H43v13H42z"/>
		<g>
			<path style="fill:#FACB1B;" d="M87,87.003l-4-11c-0.615-1.333-1.698-2.394-3.043-2.983L67,68.003l-12,19H87z"/>
		</g>
		<g>
			<path style="fill:#FFFFFF;" d="M65,64c0,3,0,14-2,23c13,0,14,0,14,0l-3-19L65,64z"/>
		</g>
		<g>
			<polygon style="fill:#E2E4E5;" points="67.75,87 69.75,69 70.75,87 			"/>
		</g>
		<path style="fill:#FBD7D7;" d="M43,43v13h-1c0,0-1.573-4.98-2.746-9.802C38.557,46.566,38,47.394,38,48.222
			c0,3.253,0.958,7.554,3.793,7.758L45,63.997l5.105,3.996c0.569,0.639,1.384,1.004,2.24,1.004H55V43H43z"/>
		<g>
			<path style="fill:#F79392;" d="M50,57.997h10c0,0,0,3-5,3S50,57.997,50,57.997z"/>
		</g>
		<g>
			<path style="fill:#3E3E3F;" d="M51.994,48.036c0-1.104-0.896-2-2-2c-0.002,0-0.004,0-0.006,0
				c0.001,0.021,0.006,0.041,0.006,0.062c0,1.103-0.892,1.996-1.994,2c0.033,1.075,0.91,1.938,1.994,1.938
				C51.098,50.036,51.994,49.141,51.994,48.036z"/>
		</g>
		<g>
			<path style="fill:#3E3E3F;" d="M61.987,48.036c0-1.104-0.896-2-2-2c-0.002,0-0.004,0-0.006,0
				c0.001,0.021,0.006,0.041,0.006,0.062c0,1.103-0.892,1.996-1.994,2c0.033,1.075,0.91,1.938,1.994,1.938
				C61.092,50.036,61.987,49.141,61.987,48.036z"/>
		</g>
		<g>
			<path style="fill:#3E3E3F;" d="M42,56c0,0-4-12.667-4-17.154C38,27.833,54.611,24,54.611,24v5l5-5v5l4-3C75.945,29,70,44.5,68,56
				h-1V43H43v13H42z"/>
		</g>
		<g>
			<polygon style="fill:#FFFFFF;" points="71,44 38,44 37,38 72,38 			"/>
		</g>
		<g>
			<polygon style="fill:#F1F2F2;" points="55,44 71,44 72,38 55,38 			"/>
		</g>
	</g>
</g>
</svg>
