<?xml version="1.0" encoding="iso-8859-1"?>
<!-- Generator: Adobe Illustrator 17.1.0, SVG Export Plug-In . SVG Version: 6.00 Build 0)  -->
<!DOCTYPE svg PUBLIC "-//W3C//DTD SVG 1.0//EN" "http://www.w3.org/TR/2001/REC-SVG-20010904/DTD/svg10.dtd">
<svg version="1.0" xmlns="http://www.w3.org/2000/svg" xmlns:xlink="http://www.w3.org/1999/xlink" x="0px" y="0px" width="110px"
	 height="110px" viewBox="0 0 110 110" style="enable-background:new 0 0 110 110;" xml:space="preserve">
<g id="Artboard">
</g>
<g id="Multicolor">
	<g>
		<circle style="fill:#E04F5F;" cx="54.976" cy="54.976" r="55"/>
	</g>
	<g>
		<g>
			<path style="fill:#FACB1B;" d="M83,75.997c-0.615-1.333-1.698-2.394-3.043-2.982L65,68.997H55H45l-14.958,4.018
				c-1.345,0.588-2.427,1.649-3.042,2.982L23,87h32h32L83,75.997z"/>
		</g>
		<g>
			<path style="fill:#F7B4B4;" d="M45.032,65.95c0.384,5.75,6,7,10,7c3.94,0,9.437-1.222,9.968-6.752v-3.194l-5.105,3.996
				c-0.569,0.639-1.384,1.004-2.24,1.004H55h-2.655c-0.856,0-1.671-0.365-2.24-1.004L45,63.003v2.951
				C45.011,65.953,45.021,65.95,45.032,65.95z"/>
		</g>
		<g>
			<polygon style="fill:#0484AB;" points="57.032,78.997 58.048,75.973 55.032,73.95 52.015,75.973 53.032,78.997 50.032,86.997 
				55.032,86.997 60.032,86.997 			"/>
		</g>
		<g>
			<path style="fill:#FBC8C8;" d="M45.032,65.95c0.383,5.735,5.97,6.993,9.968,7v-4.952h-2.655c-0.856,0-1.671-0.365-2.24-1.004
				L45,62.997v2.957C45.011,65.953,45.021,65.95,45.032,65.95z"/>
		</g>
		<g>
			<polygon style="fill:#6FDAF1;" points="58.069,81.717 50.314,86.195 50,87 53.779,87 58.924,83.997 			"/>
		</g>
		<path style="fill:#FBC8C8;" d="M69.719,50.95c0.042-2.566,0.286-5.949,0.286-5.949s-1.822,2.532-5.807,2.532
			c0-4.417,0-13.146,0-13.146S61.99,46.533,53.157,46.533c0-2.208,0-7.729,0-7.729s-3.312,7.729-7.729,7.729
			c0-3.312,0-6.625,0-6.625l-4.417,5.521v5.521c0,0-0.009-0.006-0.011-0.008v2.055l4,10l5.105,3.996
			c0.569,0.639,1.384,1.004,2.24,1.004H55h2.655c0.855,0,1.67-0.365,2.24-1.004L65,62.997l3.207-8.016
			c2.172-0.157,3.24-2.717,3.622-5.37C71.345,50.393,70.672,50.95,69.719,50.95z"/>
		<path style="fill:#FBD7D7;" d="M40.979,51c0,0-2.065-1.437-2.932-4.197C38.017,46.941,38,47.082,38,47.223
			c0,3.253,0.958,7.554,3.793,7.758L45,62.997l5.105,3.996c0.569,0.639,1.384,1.004,2.24,1.004H55V46.331
			c-0.59,0.127-1.212,0.203-1.875,0.203c0-2.208,0-7.729,0-7.729s-3.313,7.729-7.729,7.729c0-3.312,0-6.625,0-6.625L41,45.403"/>
		<g>
			<path style="fill:#F79392;" d="M50,57.994h10c0,0,0,3-5,3S50,57.994,50,57.994z"/>
		</g>
		<g>
			<path style="fill:#84462D;" d="M73,44.325c0-10.977-6.69-19.875-17.667-19.875s-17.667,8.898-17.667,19.875
				c0,4.417,3.312,6.625,3.312,6.625v-5.521l4.417-5.521c0,0,0,3.312,0,6.625c4.417,0,7.729-7.729,7.729-7.729s0,5.521,0,7.729
				c8.833,0,11.042-12.146,11.042-12.146s0,8.729,0,13.146C68.581,47.536,70,45,70,44.95c0,1.05-0.243,1.76-0.312,6
				C73,50.95,73,44.325,73,44.325z"/>
		</g>
		<g>
			<path style="fill:#9C6144;" d="M55,46.381V24.517c-10.774,0.182-17.333,8.995-17.333,19.858c0,4.417,3.312,6.625,3.312,6.625
				v-5.521l4.417-5.521c0,0,0,3.312,0,6.625c4.417,0,7.729-7.729,7.729-7.729s0,5.521,0,7.729C53.788,46.583,54.41,46.508,55,46.381
				z"/>
		</g>
		<g>
			<path style="fill:#3E3E3F;" d="M55.177,45.134h-0.963c-3.479-1.124-9.793-1.472-14.182-0.776
				c0.054,1.231,0.428,2.087,0.428,2.087l0.642,0.535c0,0,0.91,4.121,1.338,4.656s1.766,1.98,4.442,1.926
				c2.676-0.053,5.03-0.642,6.261-3.05s0.937-3.211,0.937-3.211l0.615-0.019l0.616,0.019c0,0-0.294,0.803,0.937,3.211
				c1.23,2.408,3.585,2.997,6.261,3.05c2.676,0.054,4.014-1.391,4.441-1.926c0.428-0.535,1.338-4.656,1.338-4.656l0.643-0.535
				c0,0,0.375-0.856,0.428-2.087C64.97,43.663,58.655,44.011,55.177,45.134z"/>
			<g>
				<path style="fill:#5B5C5F;" d="M47.011,45.443c-2.364,0.049-4.549,0.107-4.281,1.712c0.265,1.592,0.531,2.97,0.848,3.411
					l5.11-5.11C48.17,45.435,47.61,45.43,47.011,45.443z"/>
			</g>
			<g>
				<path style="fill:#5B5C5F;" d="M62.431,45.612c-2.569-0.054-4.495,0.161-4.977,1.017s0.054,2.515,0.482,3.532
					c0.056,0.132,0.115,0.268,0.184,0.406l4.525-4.95C62.573,45.615,62.502,45.614,62.431,45.612z"/>
			</g>
		</g>
		<polygon style="fill:#6FDAF1;" points="58.032,75.95 57.274,75.444 52.778,78.195 53.032,78.95 53.023,78.972 53.032,78.997 
			52.158,81.327 57.214,78.408 58.034,75.968 58.034,75.951 		"/>
		<path style="fill:#FFFFFF;" d="M65.032,65.95c-0.384,5.75-6,7-10,7s-9.616-1.25-10-7c-4,0-1,15-1,15l8-5l3-2l3,2l8,5
			C66.032,80.95,69.032,65.95,65.032,65.95z"/>
	</g>
</g>
</svg>
