<?xml version="1.0" encoding="iso-8859-1"?>
<!-- Generator: Adobe Illustrator 17.1.0, SVG Export Plug-In . SVG Version: 6.00 Build 0)  -->
<!DOCTYPE svg PUBLIC "-//W3C//DTD SVG 1.0//EN" "http://www.w3.org/TR/2001/REC-SVG-20010904/DTD/svg10.dtd">
<svg version="1.0" xmlns="http://www.w3.org/2000/svg" xmlns:xlink="http://www.w3.org/1999/xlink" x="0px" y="0px" width="110px"
	 height="110px" viewBox="0 0 110 110" style="enable-background:new 0 0 110 110;" xml:space="preserve">
<g id="Artboard">
</g>
<g id="Multicolor">
	<g>
		<circle style="fill:#32BEA6;" cx="55" cy="55" r="55"/>
	</g>
	<g>
		<path style="fill:#FBC8C8;" d="M70.656,45.196C69.022,46.137,69,47.136,69,48.829V50h-2V38.932
			c-8.189,2.098-19.174,1.677-24.717-3.253c-1.1,2.476-1.276,5.663-1.283,9.357V53l4,10l5.105,3.996
			C50.674,67.635,51.489,68,52.345,68H55h2.655c0.856,0,1.671-0.365,2.24-1.004L65,63l3.193-7.982
			c2.846-0.191,3.807-4.5,3.807-7.759C72,46.395,71.395,45.539,70.656,45.196z"/>
		<path style="fill:#692E19;" d="M75,35.3c-1.943-14.123-34-15.108-34-2.148c0,0.941,0,1.206,0,1.206
			c4.955,6.175,17.126,6.847,26,4.573V50h2v-1.171C69,47.018,69,46,71,45v-7.388C72.588,36.946,73.956,36.168,75,35.3z"/>
		<path style="fill:#FBD7D7;" d="M43,50h-2v-1.171c0-1.693-0.022-2.692-1.656-3.632C38.605,45.539,38,46.395,38,47.259
			c0,3.259,0.961,7.568,3.807,7.759L45,63l5.105,3.996C50.674,67.635,51.489,68,52.345,68H55V40.054
			c-4.597-0.288-8.957-1.458-12-3.771V50z"/>
		<path style="fill:#84462D;" d="M55,24.058c-7.125,0.205-13.5,3.006-13.956,8.473C39.83,33.217,39,34.505,39,36v9
			c2,1,2,2.018,2,3.829V50h2V36.284c3.043,2.313,7.403,3.482,12,3.771V24.058z"/>
		<path style="fill:#FBC8C8;" d="M50.105,66.996L45,63v6l-14.957,4.018C28.698,73.606,27.615,74.667,27,76l-4,11h32V68h-2.655
			C51.489,68,50.674,67.635,50.105,66.996z"/>
		<path style="fill:#F7B4B4;" d="M83,76c-0.615-1.333-1.698-2.394-3.043-2.982L65,69v-6l-5.105,3.996
			C59.326,67.635,58.511,68,57.655,68H55v19h32L83,76z"/>
		<g>
			<path style="fill:#FFFFFF;" d="M55,87v-4.999c-11.319,0-13.822-1.728-15-12.001c-1.114,0.388-4,1-4,1v16H55z"/>
		</g>
		<g>
			<path style="fill:#FFFFFF;" d="M55,87v-4.999c11.319,0,13.822-1.728,15-12.001c1.114,0.388,4,1,4,1v16H55z"/>
		</g>
		<g>
			<path style="fill:#3E3E3F;" d="M52,47.036c0-1.104-0.896-2-2-2c-0.002,0-0.004,0-0.006,0C49.995,45.058,50,45.078,50,45.099
				c0,1.103-0.892,1.996-1.994,2c0.033,1.075,0.91,1.938,1.994,1.938C51.104,49.036,52,48.141,52,47.036z"/>
		</g>
		<g>
			<path style="fill:#3E3E3F;" d="M61.994,47.036c0-1.104-0.896-2-2-2c-0.002,0-0.004,0-0.006,0
				c0.001,0.021,0.006,0.041,0.006,0.062c0,1.103-0.892,1.996-1.994,2c0.033,1.075,0.91,1.938,1.994,1.938
				C61.098,49.036,61.994,48.141,61.994,47.036z"/>
		</g>
		<g>
			<path style="fill:#F79392;" d="M50,57.036h10c0,0,0,3-5,3S50,57.036,50,57.036z"/>
		</g>
	</g>
</g>
</svg>
