<?xml version="1.0" encoding="iso-8859-1"?>
<!-- Generator: Adobe Illustrator 17.1.0, SVG Export Plug-In . SVG Version: 6.00 Build 0)  -->
<!DOCTYPE svg PUBLIC "-//W3C//DTD SVG 1.0//EN" "http://www.w3.org/TR/2001/REC-SVG-20010904/DTD/svg10.dtd">
<svg version="1.0" xmlns="http://www.w3.org/2000/svg" xmlns:xlink="http://www.w3.org/1999/xlink" x="0px" y="0px" width="110px"
	 height="110px" viewBox="0 0 110 110" style="enable-background:new 0 0 110 110;" xml:space="preserve">
<g id="Artboard">
</g>
<g id="Multicolor">
	<g>
		<circle style="fill:#25B7D3;" cx="55" cy="55" r="55"/>
	</g>
	<g>
		<path style="fill:#BF8662;" d="M71.335,45.606c-0.484,0.274-1.041,0.404-1.65,0.289L68,50.95h-1l-0.058-8
			c-2.509,0-4.65-1.557-5.521-3.756c-2.315,1.23-4.912,0.549-6.42-1.316c-1.508,1.865-4.104,2.547-6.42,1.316
			c-0.872,2.199-3.012,3.756-5.521,3.756l-0.059,8h-1l-1-3v4.998l4,10l5.105,3.996c0.569,0.639,1.384,1.004,2.24,1.004H55h2.655
			c0.856,0,1.671-0.366,2.24-1.004L65,62.947l3.207-8.017C71.042,54.726,72,50.425,72,47.172C72,46.598,71.73,46.027,71.335,45.606z
			"/>
		<path style="fill:#CC9978;" d="M54.087,38.744c-0.828,0.634-1.813,1.021-2.855,1.066c-0.875,0.038-1.783-0.155-2.652-0.616
			c-0.872,2.199-3.012,3.756-5.521,3.756l-0.059,8h-1l-1.685-5.054c-0.518,0.098-1.144,0-1.649-0.288l-0.001,0
			C38.269,46.027,38,46.598,38,47.172c0,3.253,0.958,7.554,3.793,7.758L45,62.947l5.105,3.996c0.569,0.639,1.384,1.004,2.24,1.004
			H55V37.877C54.731,38.21,54.417,38.49,54.087,38.744z"/>
		<g>
			<path style="fill:#40C9E7;" d="M83,75.997c-0.615-1.333-1.698-2.394-3.043-2.982L65,68.997H55H45l-14.958,4.018
				c-1.345,0.588-2.427,1.649-3.042,2.982L23,87h32h32L83,75.997z"/>
		</g>
		<path style="fill:#AF7653;" d="M59.895,66.942c-0.569,0.639-1.384,1.004-2.24,1.004H55h-2.655c-0.856,0-1.671-0.366-2.24-1.004
			L45,62.947v0v5.548c0,0,0,7.5,10,7.5s10-7.5,10-7.5v-5.547L59.895,66.942z"/>
		<path style="fill:#BF8662;" d="M52.345,67.947c-0.856,0-1.671-0.366-2.24-1.004L45,62.947v0v5.548c0,0,0,7.5,10,7.5v-8.047H52.345
			z"/>
		<g>
			<polygon style="fill:#3E3E3F;" points="57.032,78.997 58.048,75.973 55.032,73.95 52.015,75.973 53.032,78.997 50.032,86.997 
				55.032,86.997 60.032,86.997 			"/>
		</g>
		<path style="fill:#FFFFFF;" d="M65.032,65.95c-0.384,5.75-6,7-10,7s-9.616-1.25-10-7c-4,0-1,15-1,15l8-5l3-2l3,2l8,5
			C66.032,80.95,69.032,65.95,65.032,65.95z"/>
		<g>
			<polygon style="fill:#5B5C5F;" points="55,86.997 55,73.971 52.015,75.973 53.032,78.997 50.032,86.997 			"/>
		</g>
		<g>
			<path style="fill:#3E3E3F;" d="M52,46.947c0-1.104-0.896-2-2-2c-0.002,0-0.004,0-0.006,0C49.995,44.968,50,44.988,50,45.009
				c0,1.103-0.892,1.996-1.994,2c0.033,1.075,0.91,1.938,1.994,1.938C51.104,48.947,52,48.051,52,46.947z"/>
		</g>
		<g>
			<path style="fill:#3E3E3F;" d="M61.994,46.947c0-1.104-0.896-2-2-2c-0.002,0-0.004,0-0.006,0
				c0.001,0.021,0.006,0.041,0.006,0.062c0,1.103-0.892,1.996-1.994,2c0.033,1.075,0.91,1.938,1.994,1.938
				C61.098,48.947,61.994,48.051,61.994,46.947z"/>
		</g>
		<g>
			<path style="fill:#84462D;" d="M50,56.947h10c0,0,0,3-5,3S50,56.947,50,56.947z"/>
		</g>
		<g>
			<path style="fill:#3E3E3F;" d="M72.112,39.929c2.047-3.615-0.173-8.184-4.3-8.792c-0.611-4.148-5.216-6.36-8.832-4.275
				c-0.913-1.21-2.348-2.004-3.98-2.004s-3.068,0.794-3.98,2.004c-3.618-2.085-8.221,0.129-8.832,4.275
				c-4.134,0.609-6.342,5.185-4.3,8.792C37.343,40.566,37,41.458,37,42.45c0,1.987,1.43,3.802,3.315,3.446L42,50.95h1l0.059-8
				c2.509,0,4.649-1.557,5.521-3.756c2.316,1.231,4.912,0.549,6.42-1.316c1.509,1.866,4.105,2.547,6.42,1.316
				c0.872,2.199,3.012,3.756,5.521,3.756l0.058,8h1l1.685-5.054C71.551,46.249,73,44.461,73,42.45
				C73,41.458,72.657,40.566,72.112,39.929z"/>
		</g>
	</g>
</g>
</svg>
