<?xml version="1.0" encoding="iso-8859-1"?>
<!-- Generator: Adobe Illustrator 17.1.0, SVG Export Plug-In . SVG Version: 6.00 Build 0)  -->
<!DOCTYPE svg PUBLIC "-//W3C//DTD SVG 1.0//EN" "http://www.w3.org/TR/2001/REC-SVG-20010904/DTD/svg10.dtd">
<svg version="1.0" xmlns="http://www.w3.org/2000/svg" xmlns:xlink="http://www.w3.org/1999/xlink" x="0px" y="0px" width="110px"
	 height="110px" viewBox="0 0 110 110" style="enable-background:new 0 0 110 110;" xml:space="preserve">
<g id="Artboard">
</g>
<g id="Multicolor">
	<g>
		<circle style="fill:#32BEA6;" cx="55" cy="55" r="55"/>
	</g>
	<g>
		<path style="fill:#FBC8C8;" d="M70.73,45.189c-1.709,0.949-1.73,1.92-1.73,3.639V50h-2V36.816c-2.441,1.909-5.969,3.22-11,3.22
			c-0.862,0-3.945,0-7,0c-3.343,0-6.134-2.057-6.829-4.805C41.173,38.04,41.007,41.438,41,45v8l4,10l5.105,3.995
			C50.674,67.634,51.489,68,52.345,68H55h2.655c0.856,0,1.671-0.366,2.24-1.005L65,63l3.208-8.02C71.042,54.775,72,50.475,72,47.222
			C72,46.388,71.436,45.553,70.73,45.189z"/>
		<g>
			<path style="fill:#3E3E3F;" d="M83,76c-0.615-1.333-1.698-2.395-3.043-2.983L68,69H55H42l-11.957,4.017
				C28.698,73.605,27.615,74.667,27,76l-4,11h32h32L83,76z"/>
		</g>
		<g>
			<path style="fill:#DF2C2C;" d="M55,79.036c3.857,0,13-1,13-7c0-0.676,0-1.789,0-3.072h-3v3.072c0,0-2,4-10,4s-10-4-10-4v-3.072
				h-3c0,1.283,0,2.396,0,3.072C42,78.036,51.143,79.036,55,79.036z"/>
		</g>
		<g>
			<path style="fill:#DADDDE;" d="M32.895,72.036l-2.852,0.958c-1.345,0.588-2.428,1.65-3.043,2.983l-4,11h11.914L32.895,72.036z"/>
		</g>
		<g>
			<path style="fill:#DADDDE;" d="M77.105,72.059l2.852,0.958C81.302,73.605,82.385,74.667,83,76l4,11H75.086L77.105,72.059z"/>
		</g>
		<path style="fill:#F7B4B4;" d="M57.655,68H55h-2.655c-0.856,0-1.671-0.366-2.24-1.005L45,63v9.036c0,0,2,4,10,4s10-4,10-4V63
			l-5.105,3.995C59.326,67.634,58.511,68,57.655,68z"/>
		<path style="fill:#FBC8C8;" d="M50.105,66.995L45,63v9.036c0,0,2,4,10,4V68h-2.655C51.489,68,50.674,67.635,50.105,66.995z"/>
		<path style="fill:#FBD7D7;" d="M43,37.047V50h-2v-1.172c0-1.706-0.022-2.675-1.693-3.617C38.585,45.564,38,46.409,38,47.258
			c0,3.259,0.961,7.568,3.807,7.76L45,63l5.105,3.995c0.569,0.64,1.384,1.005,2.24,1.005H55V40.036c-1.37,0-3.691,0-6,0
			C46.449,40.036,44.224,38.835,43,37.047z"/>
		<g>
			<path style="fill:#3E3E3F;" d="M52,47.036c0-1.104-0.896-2-2-2c-0.002,0-0.004,0-0.006,0C49.995,45.058,50,45.078,50,45.099
				c0,1.103-0.892,1.996-1.994,2c0.033,1.075,0.91,1.938,1.994,1.938C51.104,49.036,52,48.141,52,47.036z"/>
		</g>
		<g>
			<path style="fill:#3E3E3F;" d="M61.994,47.036c0-1.104-0.896-2-2-2c-0.002,0-0.004,0-0.006,0
				c0.001,0.021,0.006,0.041,0.006,0.062c0,1.103-0.892,1.996-1.994,2c0.033,1.075,0.91,1.938,1.994,1.938
				C61.098,49.036,61.994,48.141,61.994,47.036z"/>
		</g>
		<g>
			<path style="fill:#F79392;" d="M50,58.036h10c0,0,0,3-5,3S50,58.036,50,58.036z"/>
		</g>
		<path style="fill:#692E19;" d="M72,26.036H49c-3.866,0-7,4.471-7,7.861c0,3.391,3.134,6.139,7,6.139c3.055,0,6.138,0,7,0
			c5.031,0,8.559-1.311,11-3.22V50h2v-1.172c0-1.811,0-2.792,2-3.792V36c0-0.999-0.379-1.901-0.984-2.602
			C71.497,30.919,72,28.188,72,26.036z"/>
		<path style="fill:#84462D;" d="M49,26.036c-3.199,0-5.891,3.06-6.727,6.037C40.413,32.416,39,34.04,39,36v9.036
			c2,1,2,1.981,2,3.792V50h2V37.047c1.224,1.788,3.449,2.989,6,2.989c2.309,0,4.63,0,6,0v-14H49z"/>
	</g>
</g>
</svg>
