<?xml version="1.0" encoding="iso-8859-1"?>
<!-- Generator: Adobe Illustrator 17.1.0, SVG Export Plug-In . SVG Version: 6.00 Build 0)  -->
<!DOCTYPE svg PUBLIC "-//W3C//DTD SVG 1.0//EN" "http://www.w3.org/TR/2001/REC-SVG-20010904/DTD/svg10.dtd">
<svg version="1.0" xmlns="http://www.w3.org/2000/svg" xmlns:xlink="http://www.w3.org/1999/xlink" x="0px" y="0px" width="110px"
	 height="110px" viewBox="0 0 110 110" style="enable-background:new 0 0 110 110;" xml:space="preserve">
<g id="Artboard">
</g>
<g id="Multicolor">
	<g>
		<circle style="fill:#FABC3D;" cx="55" cy="55" r="55"/>
	</g>
	<g>
		<g>
			<path style="fill:#F7B4B4;" d="M59.895,66.956c-0.569,0.639-1.384,1.005-2.24,1.005H55h-2.655c-0.856,0-1.671-0.366-2.24-1.005
				L45,62.961v2.545L54.998,80c0,0,0.001,0,0.002,0s0.001,0,0.002,0L65,65.506v-2.545L59.895,66.956z"/>
		</g>
		<path style="fill:#FBC8C8;" d="M52.345,67.964c-0.856,0-1.671-0.365-2.24-1.005L45,62.964v2.542L54.998,80c0,0,0.001,0,0.002,0
			V67.964H52.345z"/>
		<path style="fill:#21B2D1;" d="M39,73.003l-2.006-2.674l-6.951,2.692c-1.345,0.588-2.428,1.649-3.043,2.982l-4,11h22l-9-12
			L39,73.003z"/>
		<g>
			<polygon style="fill:#0484AB;" points="45,64.003 45,67.003 44,71.003 47,87.003 45,87.003 36,75.003 39,73.003 36,69.003 			"/>
		</g>
		<g>
			<path style="fill:#21B2D1;" d="M71,73.003l3,2l-9,12h22l-4-11c-0.615-1.333-1.698-2.394-3.043-2.982l-6.951-2.692L71,73.003z"/>
			<polygon style="fill:#21B2D1;" points="63,87.002 63,87.003 63,87.003 			"/>
		</g>
		<path style="fill:#0484AB;" d="M74,69.003l-9-5v3l1,4l-0.686,3.657c0.119-0.033,0.234-0.079,0.354-0.11L63,87.002v0h2l9-12l-3-2
			L74,69.003z"/>
		<path style="fill:#F1F2F2;" d="M59.264,77.687L55,81.003l-4.264-3.316c-1.677-1.304-3.739-2.382-6.051-3.027L47,87.003h16
			l2.668-12.453C63.355,75.141,61.172,76.202,59.264,77.687z"/>
		<path style="fill:#FFFFFF;" d="M65,65.506L55,80.003L45,65.506l-5,8.497c3.889,0,7.667,1.296,10.736,3.684L55,81.003l4.264-3.316
			c3.07-2.387,6.848-3.684,10.736-3.684L65,65.506z"/>
		<g>
			<rect x="29" y="82" style="fill:#0484AB;" width="10" height="2"/>
		</g>
		<g>
			<rect x="29" y="84" style="fill:#059BBF;" width="10" height="3"/>
		</g>
		<g>
			<rect x="70" y="82" style="fill:#0484AB;" width="10" height="2"/>
		</g>
		<g>
			<rect x="70" y="84" style="fill:#059BBF;" width="10" height="3"/>
		</g>
		<path style="fill:#FBC8C8;" d="M72,47.222C72,46.111,71,45,70,45c-0.348,0-0.694,0-1,0v-0.036C68.982,35.964,67.976,28,55,28
			s-13.982,7.964-14,16.964v8l4,10l5.105,3.995c0.569,0.639,1.384,1.005,2.24,1.005H55h2.655c0.856,0,1.671-0.366,2.24-1.005
			L65,62.964l3.193-7.982C71.039,54.791,72,50.481,72,47.222z"/>
		<path style="fill:#FBD7D7;" d="M41,44.964V45c-0.306,0-0.652,0-1,0c-1,0-2,1.111-2,2.222c0,3.259,0.961,7.568,3.807,7.76
			L45,62.964l5.105,3.995c0.569,0.64,1.384,1.005,2.24,1.005H55V28C42.024,28,41.018,35.964,41,44.964z"/>
		<g>
			<path style="fill:#3E3E3F;" d="M52,47c0-1.104-0.896-2-2-2c-0.002,0-0.004,0-0.006,0C49.995,45.021,50,45.042,50,45.063
				c0,1.103-0.892,1.996-1.994,2C48.04,48.137,48.917,49,50,49C51.104,49,52,48.104,52,47z"/>
		</g>
		<g>
			<path style="fill:#3E3E3F;" d="M61.994,47c0-1.104-0.896-2-2-2c-0.002,0-0.004,0-0.006,0c0.001,0.021,0.006,0.041,0.006,0.062
				c0,1.103-0.892,1.996-1.994,2C58.033,48.137,58.91,49,59.994,49C61.098,49,61.994,48.104,61.994,47z"/>
		</g>
		<path style="fill:#3E3E3F;" d="M69.268,35.391C71.997,31.495,72,27,72,27H55h-6.866c-2.58,0-5.038,1.099-6.759,3.021
			c-1.721,1.922-2.542,4.486-2.256,7.051L41,45l1.016,10.503L45,62.964l5.105,3.995c0.569,0.639,1.384,1.005,2.24,1.005H55h2.655
			c0.856,0,1.671-0.366,2.24-1.005L65,62.964l2.984-7.461L69,45l1.272-7.09c0.175-0.699,0.018-1.441-0.426-2.009
			C69.685,35.693,69.483,35.53,69.268,35.391z M68,45l-2,10v0.031l-3,6h-1l-1.316-3.949c-0.408-1.225-1.555-2.051-2.846-2.051H55
			h-2.838c-1.291,0-2.438,0.826-2.846,2.051L48,61.031h-1l-3-6V55l-2-10V35c0,0,0,6,15,6c5.351,0,8.786-1.784,11-4.076V45z"/>
		<g>
			<path style="fill:#FBC8C8;" d="M52,58h6c0,0,0,3-3,3S52,58,52,58z"/>
		</g>
	</g>
</g>
</svg>
