<?xml version="1.0" encoding="iso-8859-1"?>
<!-- Generator: Adobe Illustrator 17.1.0, SVG Export Plug-In . SVG Version: 6.00 Build 0)  -->
<!DOCTYPE svg PUBLIC "-//W3C//DTD SVG 1.0//EN" "http://www.w3.org/TR/2001/REC-SVG-20010904/DTD/svg10.dtd">
<svg version="1.0" xmlns="http://www.w3.org/2000/svg" xmlns:xlink="http://www.w3.org/1999/xlink" x="0px" y="0px" width="110px"
	 height="110px" viewBox="0 0 110 110" style="enable-background:new 0 0 110 110;" xml:space="preserve">
<g id="Artboard">
</g>
<g id="Multicolor">
	<g>
		<circle style="fill:#32BEA6;" cx="55" cy="55" r="55"/>
	</g>
	<g>
		<g>
			<path style="fill:#3E3E3F;" d="M87,87.089l-4-11c-0.615-1.333-1.698-2.394-3.043-2.983L67,68.089l-12,19H87z"/>
		</g>
		<path style="fill:#AF7653;" d="M65,64.086v-0.003l-5.105,3.996c-0.569,0.639-1.384,1.004-2.24,1.004H55h-2.655
			c-0.856,0-1.671-0.365-2.24-1.004L45,64.083v3.006l-2,1l12,19.003l9.844-15.589C64.999,68.097,65,65.363,65,64.086z M55,75.092
			l-0.008-0.006c0.003,0,0.005,0,0.008,0s0.005,0,0.008,0L55,75.092z"/>
		<g>
			<path style="fill:#FFFFFF;" d="M65,64.086c0,3,0,14-2,23c13,0,14,0,14,0l-3-19L65,64.086z"/>
		</g>
		<g>
			<polygon style="fill:#E2E4E5;" points="67.75,87.086 69.75,69.086 70.75,87.086 			"/>
		</g>
		<g>
			<path style="fill:#3E3E3F;" d="M23,87.089l4-11c0.615-1.333,1.698-2.394,3.043-2.983L43,68.089l12,19H23z"/>
		</g>
		<path style="fill:#BF8662;" d="M55,69.083h-2.655c-0.856,0-1.671-0.365-2.24-1.004L45,64.083v0.003
			c0,1.277,0.001,4.011,0.156,7.417L55,87.092v-12l-0.008-0.006c0.003,0,0.005,0,0.008,0V69.083z"/>
		<g>
			<path style="fill:#FFFFFF;" d="M45,64.086c0,3,0,14,2,23c-13,0-14,0-14,0l3-19L45,64.086z"/>
		</g>
		<g>
			<polygon style="fill:#E2E4E5;" points="42.25,87.086 40.25,69.086 39.25,87.086 			"/>
		</g>
		<path style="fill:#BF8662;" d="M70,46.086c-0.154,0-0.277,0.032-0.388,0.077L68,51h-1v-8c-2.509,0-4.708-1.557-5.58-3.756
			c-2.315,1.23-4.912,3.53-6.42,1.664c-1.508,1.865-4.104-0.433-6.42-1.664C47.708,41.443,45.567,43,43.059,43L43,51h-1l-1-3v6.083
			l4,10l5.105,3.996c0.569,0.639,1.384,1.004,2.24,1.004H55h2.655c0.856,0,1.671-0.365,2.24-1.004L65,64.083l3.207-8.017
			C71.042,55.862,72,51.562,72,48.308C72,47.197,71,46.086,70,46.086z"/>
		<path style="fill:#CC9978;" d="M48.58,39.244C47.708,41.443,45.509,43,43,43v8h-1l-1.612-4.837
			c-0.11-0.045-0.233-0.077-0.388-0.077c-1,0-2,1.111-2,2.222c0,3.253,0.958,7.554,3.793,7.758L45,64.083l5.105,3.996
			c0.569,0.639,1.384,1.004,2.24,1.004H55V40.908C53.492,42.773,50.896,40.475,48.58,39.244z"/>
		<g>
			<path style="fill:#84462D;" d="M50,58.083h10c0,0,0,3-5,3S50,58.083,50,58.083z"/>
		</g>
		<g>
			<path style="fill:#3E3E3F;" d="M51.994,48.122c0-1.104-0.896-2-2-2c-0.002,0-0.004,0-0.006,0
				c0.001,0.021,0.006,0.041,0.006,0.062c0,1.103-0.892,1.996-1.994,2c0.033,1.075,0.91,1.938,1.994,1.938
				C51.098,50.122,51.994,49.227,51.994,48.122z"/>
		</g>
		<g>
			<path style="fill:#3E3E3F;" d="M61.987,48.122c0-1.104-0.896-2-2-2c-0.002,0-0.004,0-0.006,0
				c0.001,0.021,0.006,0.041,0.006,0.062c0,1.103-0.892,1.996-1.994,2c0.033,1.075,0.91,1.938,1.994,1.938
				C61.092,50.122,61.987,49.227,61.987,48.122z"/>
		</g>
		<g>
			<path style="fill:#3E3E3F;" d="M72.112,39.979c2.047-3.615-0.173-8.184-4.3-8.792c-0.611-4.148-5.216-6.36-8.832-4.275
				c-0.913-1.21-2.348-2.004-3.98-2.004s-3.068,0.794-3.98,2.004c-3.618-2.085-8.221,0.129-8.832,4.275
				c-4.134,0.609-6.342,5.185-4.3,8.792C37.343,40.616,37,41.508,37,42.5c0,1.987,1.43,3.802,3.315,3.446L42,51h1v-8
				c2.509,0,4.708-1.557,5.58-3.756c2.316,1.231,4.912,3.529,6.42,1.664c1.509,1.866,4.105-0.434,6.42-1.664
				C62.292,41.443,64.491,43,67,43v8h1l1.685-5.054C71.551,46.299,73,44.511,73,42.5C73,41.508,72.657,40.616,72.112,39.979z"/>
		</g>
		<g>
			<rect x="37" y="39" style="fill:#FA5655;" width="36" height="6"/>
		</g>
		<g>
			<rect x="55" y="39" style="fill:#DF2C2C;" width="18" height="6"/>
		</g>
	</g>
</g>
</svg>
