<?xml version="1.0" encoding="iso-8859-1"?>
<!-- Generator: Adobe Illustrator 17.1.0, SVG Export Plug-In . SVG Version: 6.00 Build 0)  -->
<!DOCTYPE svg PUBLIC "-//W3C//DTD SVG 1.0//EN" "http://www.w3.org/TR/2001/REC-SVG-20010904/DTD/svg10.dtd">
<svg version="1.0" xmlns="http://www.w3.org/2000/svg" xmlns:xlink="http://www.w3.org/1999/xlink" x="0px" y="0px" width="110px"
	 height="110px" viewBox="0 0 110 110" style="enable-background:new 0 0 110 110;" xml:space="preserve">
<g id="Artboard">
</g>
<g id="Multicolor">
	<g>
		<circle style="fill:#E04F5F;" cx="55" cy="55" r="55"/>
	</g>
	<g>
		<g>
			<path style="fill:#F1F2F2;" d="M86,23H63.414c-0.405,0-0.769,0.244-0.924,0.617c-0.155,0.374-0.069,0.804,0.217,1.09l8.714,8.714
				L53.992,50.3C50.837,48.219,47.063,47,43,47c-11.046,0-20,8.954-20,20s8.954,20,20,20s20-8.954,20-20
				c0-4.088-1.232-7.887-3.338-11.054l17.416-16.868l8.214,8.214c0.286,0.286,0.716,0.372,1.09,0.217S87,46.99,87,46.586V24
				C87,23.448,86.552,23,86,23z M43,79c-6.627,0-12-5.373-12-12s5.373-12,12-12s12,5.373,12,12S49.627,79,43,79z"/>
		</g>
		<g>
			<path style="fill:#FFFFFF;" d="M86,23H63.414c-0.405,0-0.769,0.244-0.924,0.617c-0.155,0.374-0.069,0.804,0.217,1.09l8.714,8.714
				L53.992,50.3C50.837,48.219,47.063,47,43,47c-11.046,0-20,8.954-20,20c0,5.517,2.234,10.511,5.846,14.129l5.657-5.657
				C32.339,73.302,31,70.308,31,67c0-6.627,5.373-12,12-12c3.307,0,6.302,1.339,8.473,3.503l35.22-35.22
				C86.513,23.109,86.27,23,86,23z"/>
		</g>
	</g>
</g>
</svg>
