<?xml version="1.0" encoding="iso-8859-1"?>
<!-- Generator: Adobe Illustrator 17.1.0, SVG Export Plug-In . SVG Version: 6.00 Build 0)  -->
<!DOCTYPE svg PUBLIC "-//W3C//DTD SVG 1.0//EN" "http://www.w3.org/TR/2001/REC-SVG-20010904/DTD/svg10.dtd">
<svg version="1.0" xmlns="http://www.w3.org/2000/svg" xmlns:xlink="http://www.w3.org/1999/xlink" x="0px" y="0px" width="110px"
	 height="110px" viewBox="0 0 110 110" style="enable-background:new 0 0 110 110;" xml:space="preserve">
<g id="Artboard">
</g>
<g id="Multicolor">
	<g>
		<circle style="fill:#E04F5F;" cx="55" cy="55" r="55"/>
	</g>
	<g>
		<g>
			<path style="fill:#FFFFFF;" d="M83,76c-0.615-1.333-1.698-2.395-3.043-2.983L68,69H55H42l-11.957,4.017
				C28.698,73.605,27.615,74.667,27,76l-4,11h64L83,76z"/>
		</g>
		<g>
			<polygon style="fill:#40C9E7;" points="24.078,84.036 24.078,84.036 24.441,83.036 			"/>
		</g>
		<g>
			<path style="fill:#40C9E7;" d="M27,76"/>
		</g>
		<g>
			<polygon style="fill:#40C9E7;" points="26.623,77.036 26.623,77.036 27,76 			"/>
		</g>
		<g>
			<rect x="72" y="81.036" style="fill:#6FDAF1;" width="5" height="3"/>
		</g>
		<g>
			<rect x="64" y="81.036" style="fill:#6FDAF1;" width="5" height="3"/>
		</g>
		<g>
			<polygon style="fill:#6FDAF1;" points="29,81.036 25.169,81.036 24.441,83.036 24.078,84.036 29,84.036 			"/>
		</g>
		<g>
			<rect x="56" y="81.036" style="fill:#6FDAF1;" width="5" height="3"/>
		</g>
		<g>
			<rect x="32" y="81.036" style="fill:#6FDAF1;" width="5" height="3"/>
		</g>
		<g>
			<rect x="40" y="81.036" style="fill:#6FDAF1;" width="5" height="3"/>
		</g>
		<g>
			<rect x="48" y="81.036" style="fill:#6FDAF1;" width="5" height="3"/>
		</g>
		<g>
			<polygon style="fill:#6FDAF1;" points="80,81.036 80,84.036 85.922,84.036 84.831,81.036 			"/>
		</g>
		<g>
			<rect x="56" y="74.036" style="fill:#6FDAF1;" width="5" height="3"/>
		</g>
		<g>
			<rect x="72" y="74.036" style="fill:#6FDAF1;" width="5" height="3"/>
		</g>
		<g>
			<path style="fill:#6FDAF1;" d="M29,74.036h-0.516C27.835,74.611,27.317,75.313,27,76l-0.377,1.036H29V74.036z"/>
		</g>
		<g>
			<rect x="32" y="74.036" style="fill:#6FDAF1;" width="5" height="3"/>
		</g>
		<g>
			<path style="fill:#6FDAF1;" d="M80,74.036v3h3.377L83,76c-0.317-0.687-0.835-1.389-1.484-1.964H80z"/>
		</g>
		<g>
			<rect x="64" y="74.036" style="fill:#6FDAF1;" width="5" height="3"/>
		</g>
		<g>
			<rect x="48" y="74.036" style="fill:#6FDAF1;" width="5" height="3"/>
		</g>
		<g>
			<rect x="40" y="74.036" style="fill:#6FDAF1;" width="5" height="3"/>
		</g>
		<g>
			<rect x="29" y="84.036" style="fill:#12B2A0;" width="3" height="2.964"/>
		</g>
		<g>
			<path style="fill:#12B2A0;" d="M32,74.036v-1.677l-1.957,0.658c-0.371,0.162-0.716,0.368-1.043,0.598v0.421H32z"/>
		</g>
		<g>
			<rect x="29" y="77.036" style="fill:#12B2A0;" width="3" height="4"/>
		</g>
		<g>
			<rect x="37" y="77.036" style="fill:#12B2A0;" width="3" height="4"/>
		</g>
		<g>
			<rect x="37" y="84.036" style="fill:#12B2A0;" width="3" height="2.964"/>
		</g>
		<g>
			<polygon style="fill:#12B2A0;" points="40,74.036 40,69.672 37,70.68 37,74.036 			"/>
		</g>
		<g>
			<rect x="45" y="84.036" style="fill:#12B2A0;" width="3" height="2.964"/>
		</g>
		<g>
			<rect x="45" y="77.036" style="fill:#12B2A0;" width="3" height="4"/>
		</g>
		<g>
			<rect x="53" y="84.036" style="fill:#12B2A0;" width="3" height="2.964"/>
		</g>
		<g>
			<rect x="53" y="77.036" style="fill:#12B2A0;" width="3" height="4"/>
		</g>
		<g>
			<rect x="61" y="77.036" style="fill:#12B2A0;" width="3" height="4"/>
		</g>
		<g>
			<rect x="61" y="84.036" style="fill:#12B2A0;" width="3" height="2.964"/>
		</g>
		<g>
			<polygon style="fill:#12B2A0;" points="72,74.036 72,70.344 69,69.336 69,74.036 			"/>
		</g>
		<g>
			<rect x="69" y="77.036" style="fill:#12B2A0;" width="3" height="4"/>
		</g>
		<g>
			<rect x="69" y="84.036" style="fill:#12B2A0;" width="3" height="2.964"/>
		</g>
		<g>
			<rect x="77" y="84.036" style="fill:#12B2A0;" width="3" height="2.964"/>
		</g>
		<g>
			<rect x="77" y="77.036" style="fill:#12B2A0;" width="3" height="4"/>
		</g>
		<g>
			<path style="fill:#12B2A0;" d="M80,74.036v-0.995c-0.015-0.007-0.028-0.018-0.043-0.024L77,72.023v2.013H80z"/>
		</g>
		<g>
			<g>
				<rect x="29" y="81.036" style="fill:#099686;" width="3" height="3"/>
			</g>
			<g>
				<rect x="29" y="74.036" style="fill:#099686;" width="3" height="3"/>
			</g>
			<g>
				<rect x="37" y="81.036" style="fill:#099686;" width="3" height="3"/>
			</g>
			<g>
				<rect x="37" y="74.036" style="fill:#099686;" width="3" height="3"/>
			</g>
			<g>
				<rect x="45" y="81.036" style="fill:#099686;" width="3" height="3"/>
			</g>
			<g>
				<rect x="45" y="74.036" style="fill:#099686;" width="3" height="3"/>
			</g>
			<g>
				<rect x="53" y="81.036" style="fill:#099686;" width="3" height="3"/>
			</g>
			<g>
				<rect x="53" y="74.036" style="fill:#099686;" width="3" height="3"/>
			</g>
			<g>
				<rect x="61" y="81.036" style="fill:#099686;" width="3" height="3"/>
			</g>
			<g>
				<rect x="61" y="74.036" style="fill:#099686;" width="3" height="3"/>
			</g>
			<g>
				<rect x="69" y="81.036" style="fill:#099686;" width="3" height="3"/>
			</g>
			<g>
				<rect x="69" y="74.036" style="fill:#099686;" width="3" height="3"/>
			</g>
			<g>
				<rect x="77" y="81.036" style="fill:#099686;" width="3" height="3"/>
			</g>
			<g>
				<rect x="77" y="74.036" style="fill:#099686;" width="3" height="3"/>
			</g>
		</g>
		<path style="fill:#F7B4B4;" d="M57.655,67.964H55h-2.655c-0.856,0-1.671-0.366-2.24-1.005L45,62.964V72c0,0,2,4,10,4s10-4,10-4
			v-9.036l-5.105,3.995C59.326,67.598,58.511,67.964,57.655,67.964z"/>
		<path style="fill:#FBC8C8;" d="M50.105,66.959L45,62.964V72c0,0,2,4,10,4v-8.036h-2.655
			C51.489,67.964,50.674,67.598,50.105,66.959z"/>
		<path style="fill:#FBC8C8;" d="M70.139,45.019C69.415,48.42,68.546,51.859,68,55h-1V43.708C67,35.45,58.215,37,57,37v-3
			c-4.737,4.737-14-0.875-14,9.708V55h-1c0,0-0.434-1.521-1-3.694v1.658l4,10l5.105,3.995c0.569,0.639,1.384,1.005,2.24,1.005H55
			h2.655c0.856,0,1.671-0.366,2.24-1.005L65,62.964l3.193-7.982C71.039,54.791,72,50.481,72,47.222
			C72,46.163,71.09,45.115,70.139,45.019z"/>
		<path style="fill:#FBD7D7;" d="M43,43.708V55h-1c0,0-1.439-5.048-2.5-9.9c-0.807,0.286-1.5,1.2-1.5,2.123
			c0,3.259,0.961,7.568,3.807,7.76L45,62.964l5.105,3.995c0.569,0.64,1.384,1.005,2.24,1.005H55V35.359
			C50.083,37.556,43,34.49,43,43.708z"/>
		<g>
			<path style="fill:#3E3E3F;" d="M42,55c0,0-3.611-12.667-3.611-17.154C38.389,26.833,55,23,55,23v5l5-5v5l4-3
				c12.333,3,6,18.5,4,30h-1V43.708C67,35.45,58.215,37,57,37v-3c-4.738,4.738-14-0.875-14,9.708V55H42z"/>
		</g>
		<g>
			<polygon style="fill:#3E3E3F;" points="55,62 53,62 55,67 57,62 			"/>
		</g>
		<g>
			<path style="fill:#3E3E3F;" d="M52,47c0-1.104-0.896-2-2-2c-0.002,0-0.004,0-0.006,0C49.995,45.021,50,45.042,50,45.063
				c0,1.103-0.892,1.996-1.994,2C48.04,48.137,48.917,49,50,49C51.104,49,52,48.104,52,47z"/>
		</g>
		<g>
			<path style="fill:#3E3E3F;" d="M61.994,47c0-1.104-0.896-2-2-2c-0.002,0-0.004,0-0.006,0c0.001,0.021,0.006,0.041,0.006,0.062
				c0,1.103-0.892,1.996-1.994,2C58.033,48.137,58.91,49,59.994,49C61.098,49,61.994,48.104,61.994,47z"/>
		</g>
		<g>
			<path style="fill:#F79392;" d="M50,58h10c0,0,0,3-5,3S50,58,50,58z"/>
		</g>
		<path style="fill:#FFFFFF;" d="M65,69v3c0,0-2,4-10,4s-10-4-10-4v-3h-3c0,1.251,0,2.337,0,3c0,6,9.143,7,13,7s13-1,13-7
			c0-0.663,0-1.749,0-3H65z"/>
	</g>
</g>
</svg>
