<?xml version="1.0" encoding="iso-8859-1"?>
<!-- Generator: Adobe Illustrator 17.1.0, SVG Export Plug-In . SVG Version: 6.00 Build 0)  -->
<!DOCTYPE svg PUBLIC "-//W3C//DTD SVG 1.0//EN" "http://www.w3.org/TR/2001/REC-SVG-20010904/DTD/svg10.dtd">
<svg version="1.0" xmlns="http://www.w3.org/2000/svg" xmlns:xlink="http://www.w3.org/1999/xlink" x="0px" y="0px" width="110px"
	 height="110px" viewBox="0 0 110 110" style="enable-background:new 0 0 110 110;" xml:space="preserve">
<g id="Artboard">
</g>
<g id="Multicolor">
	<g>
		<circle style="fill:#32BEA6;" cx="55" cy="55" r="55"/>
	</g>
	<g>
		<g>
			<path style="fill:#3E3E3F;" d="M83,76c-0.615-1.333-1.698-2.395-3.043-2.983L68,69H55H42l-11.957,4.017
				C28.698,73.605,27.615,74.667,27,76l-4,11h32h32L83,76z"/>
		</g>
		<g>
			<path style="fill:#FFFFFF;" d="M55,79.036c3.857,0,13-1,13-7c0-0.676,0-1.789,0-3.072h-3v3.072c0,0-2,4-10,4s-10-4-10-4v-3.072
				h-3c0,1.283,0,2.396,0,3.072C42,78.036,51.143,79.036,55,79.036z"/>
		</g>
		<path style="fill:#F7B4B4;" d="M57.655,68H55h-2.655c-0.856,0-1.671-0.366-2.24-1.005L45,63v9.036c0,0,2,4,10,4s10-4,10-4V63
			l-5.105,3.995C59.326,67.634,58.511,68,57.655,68z"/>
		<path style="fill:#FBC8C8;" d="M50.105,66.995L45,63v9.036c0,0,2,4,10,4V68h-2.655C51.489,68,50.674,67.634,50.105,66.995z"/>
		<path style="fill:#FBC8C8;" d="M72,47.258c0-1.111-1-2.222-2-2.222c-0.348,0-0.694,0-1,0V45c-0.018-9-1.024-16.964-14-16.964
			S41.018,36,41,45v8l4,10l5.105,3.995C50.674,67.634,51.489,68,52.345,68H55h2.655c0.856,0,1.671-0.366,2.24-1.005L65,63
			l3.193-7.982C71.039,54.827,72,50.517,72,47.258z"/>
		<path style="fill:#FBD7D7;" d="M41,45v0.036c-0.306,0-0.652,0-1,0c-1,0-2,1.111-2,2.222c0,3.259,0.961,7.568,3.807,7.76L45,63
			l5.105,3.995c0.569,0.64,1.384,1.005,2.24,1.005H55V28.036C42.024,28.036,41.018,36,41,45z"/>
		<g>
			<path style="fill:#5B5C5F;" d="M47,61.067h1l1.316-3.949c0.408-1.225,1.555-2.051,2.846-2.051H55V68h-2.655
				c-0.856,0-1.671-0.366-2.24-1.005L45,63l-2.984-7.461L41,45.036L47,61.067z"/>
		</g>
		<g>
			<path style="fill:#3E3E3F;" d="M52,47.036c0-1.104-0.896-2-2-2c-0.002,0-0.004,0-0.006,0C49.995,45.058,50,45.078,50,45.099
				c0,1.103-0.892,1.996-1.994,2c0.033,1.075,0.91,1.938,1.994,1.938C51.104,49.036,52,48.141,52,47.036z"/>
		</g>
		<g>
			<path style="fill:#3E3E3F;" d="M61.994,47.036c0-1.104-0.896-2-2-2c-0.002,0-0.004,0-0.006,0
				c0.001,0.021,0.006,0.041,0.006,0.062c0,1.103-0.892,1.996-1.994,2c0.033,1.075,0.91,1.938,1.994,1.938
				C61.098,49.036,61.994,48.141,61.994,47.036z"/>
		</g>
		<g>
			<path style="fill:#5B5C5F;" d="M41.758,36.601C47,31.036,50,37.036,55,37.036v-9C46.352,28.036,43.023,31.576,41.758,36.601z"/>
		</g>
		<g>
			<path style="fill:#3E3E3F;" d="M68.242,36.601C63,31.036,60,37.036,55,37.036v-9C63.648,28.036,66.977,31.576,68.242,36.601z"/>
		</g>
		<g>
			<path style="fill:#3E3E3F;" d="M67,51.036l-4,10.031h-1l-1.316-3.949c-0.408-1.225-1.555-2.051-2.846-2.051H55V68h2.655
				c0.856,0,1.671-0.366,2.24-1.005L65,63l2.984-7.461L69,45.036L67,51.036z"/>
		</g>
		<g>
			<path style="fill:#FBD7D7;" d="M51,58.036h8c0,0,0,3-4,3S51,58.036,51,58.036z"/>
		</g>
	</g>
</g>
</svg>
