<?xml version="1.0" encoding="iso-8859-1"?>
<!-- Generator: Adobe Illustrator 17.1.0, SVG Export Plug-In . SVG Version: 6.00 Build 0)  -->
<!DOCTYPE svg PUBLIC "-//W3C//DTD SVG 1.0//EN" "http://www.w3.org/TR/2001/REC-SVG-20010904/DTD/svg10.dtd">
<svg version="1.0" xmlns="http://www.w3.org/2000/svg" xmlns:xlink="http://www.w3.org/1999/xlink" x="0px" y="0px" width="110px"
	 height="110px" viewBox="0 0 110 110" style="enable-background:new 0 0 110 110;" xml:space="preserve">
<g id="Artboard">
</g>
<g id="Multicolor">
	<g>
		<circle style="fill:#E04F5F;" cx="55" cy="55" r="55"/>
	</g>
	<g>
		<path style="fill:#FBC8C8;" d="M68.053,45.036c0.596-2.878-0.825-6.189-2.918-8.317c-1.611,0.63-3.257,0.247-4.409-0.664
			c-1.267,1.801-3.357,2.981-5.726,2.981s-4.459-1.18-5.726-2.981c-1.408,1.114-3.194,1.256-4.713,0.526
			c-4.279,3.631-2.89,7.168-2.618,8.456c-0.131,0-0.492,0-0.942,0V53l4,10l5.105,3.995C50.674,67.634,51.489,68,52.345,68H55h2.655
			c0.856,0,1.671-0.366,2.24-1.005L65,63l3.193-7.982C71.039,54.827,72,50.517,72,47.258C72,44.652,69.228,45.036,68.053,45.036z"/>
		<g>
			<path style="fill:#059BBF;" d="M83,76c-0.615-1.333-1.698-2.395-3.043-2.983L68,69H55H42l-11.957,4.017
				C28.698,73.605,27.615,74.667,27,76l-4,11h32h32L83,76z"/>
		</g>
		<g>
			<path style="fill:#FFFFFF;" d="M65,68.036v6c0,0-2,4-10,4s-10-4-10-4v-6l-3,1c0,2.057,0,4,0,5c0,6,9.143,7,13,7s13-1,13-7
				c0-1,0-2.943,0-5L65,68.036z"/>
		</g>
		<g>
			<path style="fill:#FACB1B;" d="M77.105,72.059l2.852,0.958C81.302,73.605,82.385,74.667,83,76l4,11H75.086L77.105,72.059z"/>
		</g>
		<g>
			<g>
				<path style="fill:none;" d="M67.324,86.663c-0.322,0-0.649,0.097-0.933,0.337h1.683C67.898,86.78,67.634,86.663,67.324,86.663z"
					/>
			</g>
			<g>
				<polygon style="fill:#FACB1B;" points="64.724,83.994 64.228,83 59.499,83 59.499,84.759 62.292,84.759 61.334,87 63.383,87 
									"/>
			</g>
			<g>
				<path style="fill:#FACB1B;" d="M67.324,86.663c0.31,0,0.574,0.117,0.75,0.337H70c-0.355-1.344-1.708-2.107-3.234-1.547v-0.828
					h2.866V83h-4.346v4h1.105C66.675,86.76,67.002,86.663,67.324,86.663z"/>
			</g>
		</g>
		<path style="fill:#F7B4B4;" d="M57.655,68H55h-2.655c-0.856,0-1.671-0.366-2.24-1.005L45,63v11c0,0,2,4,10,4s10-4,10-4V63
			l-5.105,3.995C59.326,67.634,58.511,68,57.655,68z"/>
		<g>
			<path style="fill:#FACB1B;" d="M32.895,72.059l-2.852,0.958C28.698,73.605,27.615,74.667,27,76l-4,11h11.914L32.895,72.059z"/>
		</g>
		<path style="fill:#FBC8C8;" d="M50.105,66.995L45,63v11c0,0,2,4,10,4V68h-2.655C51.489,68,50.674,67.634,50.105,66.995z"/>
		<path style="fill:#FBD7D7;" d="M49.274,36.055c-1.329,1.05-3.087,1.307-4.713,0.526c-4.412,3.745-2.827,7.456-2.618,8.456
			c-0.131,0-1.594,0-1.942,0c-1,0-2,1.111-2,2.222c0,3.259,0.961,7.568,3.807,7.76L45,63l5.105,3.995
			c0.569,0.64,1.384,1.005,2.24,1.005H55V39.036C52.631,39.036,50.541,37.856,49.274,36.055z"/>
		<g>
			<path style="fill:#84462D;" d="M71.341,43.191c2.2-3.544,0.214-8.033-3.671-8.978c1.615-4.011-2.824-7.763-6.51-5.504
				c-1.184-2.187-3.498-3.673-6.16-3.673s-4.976,1.486-6.16,3.673c-3.678-2.254-8.128,1.485-6.51,5.504
				c-3.883,0.945-5.873,5.433-3.671,8.978C37.694,43.538,37,44.452,37,45.536c0,0.818,0.398,1.537,1.005,1.993
				C38.004,47.439,38,47.347,38,47.258c0-1.111,1-2.222,2-2.222c0.862,0,1.722,0,1.942,0c-0.209-1-1.793-4.711,2.618-8.456
				c1.626,0.781,3.385,0.524,4.713-0.526c1.267,1.801,3.357,2.981,5.726,2.981s4.459-1.18,5.726-2.981
				c1.222,0.966,2.836,1.28,4.409,0.664c2.108,2.145,3.526,5.395,2.918,8.317c1.174,0,3.947-0.384,3.947,2.222
				c0,0.089-0.004,0.181-0.005,0.271C73.594,46.327,73.217,43.866,71.341,43.191z"/>
		</g>
		<path style="fill:#9C6144;" d="M48.84,28.709c-3.678-2.254-8.128,1.485-6.51,5.504c-3.883,0.945-5.873,5.433-3.671,8.978
			C37.694,43.538,37,44.452,37,45.536c0,0.818,0.398,1.537,1.005,1.993C38.004,47.439,38,47.347,38,47.258c0-1.111,1-2.222,2-2.222
			c0.862,0,1.722,0,1.942,0c-0.209-1-1.793-4.711,2.618-8.456c1.626,0.781,3.385,0.524,4.713-0.526
			c1.267,1.801,3.357,2.981,5.726,2.981v-14C52.338,25.036,50.024,26.522,48.84,28.709z"/>
		<g>
			<path style="fill:#3E3E3F;" d="M52,47.036c0-1.104-0.896-2-2-2c-0.002,0-0.004,0-0.006,0C49.995,45.058,50,45.078,50,45.099
				c0,1.103-0.892,1.996-1.994,2c0.033,1.075,0.91,1.938,1.994,1.938C51.104,49.036,52,48.141,52,47.036z"/>
		</g>
		<g>
			<path style="fill:#3E3E3F;" d="M61.994,47.036c0-1.104-0.896-2-2-2c-0.002,0-0.004,0-0.006,0
				c0.001,0.021,0.006,0.041,0.006,0.062c0,1.103-0.892,1.996-1.994,2c0.033,1.075,0.91,1.938,1.994,1.938
				C61.098,49.036,61.994,48.141,61.994,47.036z"/>
		</g>
		<g>
			<path style="fill:#F79392;" d="M50,57.033h10c0,0,0,3-5,3S50,57.033,50,57.033z"/>
		</g>
	</g>
</g>
</svg>
