<?xml version="1.0" encoding="iso-8859-1"?>
<!-- Generator: Adobe Illustrator 17.1.0, SVG Export Plug-In . SVG Version: 6.00 Build 0)  -->
<!DOCTYPE svg PUBLIC "-//W3C//DTD SVG 1.0//EN" "http://www.w3.org/TR/2001/REC-SVG-20010904/DTD/svg10.dtd">
<svg version="1.0" xmlns="http://www.w3.org/2000/svg" xmlns:xlink="http://www.w3.org/1999/xlink" x="0px" y="0px" width="110px"
	 height="110px" viewBox="0 0 110 110" style="enable-background:new 0 0 110 110;" xml:space="preserve">
<g id="Artboard">
</g>
<g id="Multicolor">
	<g>
		<circle style="fill:#25B7D3;" cx="54.976" cy="55.024" r="55"/>
	</g>
	<g>
		<g>
			<polygon style="fill:#FBC8C8;" points="67.672,34.172 67.67,34.177 67.675,34.179 			"/>
			<path style="fill:#FBC8C8;" d="M72,47.214C71.994,44.618,69.227,45,68.054,45c0.607-2.922-0.811-6.172-2.918-8.317
				c-1.573,0.616-3.187,0.302-4.409-0.664C59.46,37.82,57.37,39,55,39s-4.459-1.18-5.726-2.981c-1.328,1.05-3.087,1.307-4.713,0.526
				C40.149,40.289,41.734,44,41.943,45c-0.131,0-0.492,0-0.943,0v7.964l4,10l5.105,3.995c0.569,0.639,1.384,1.005,2.24,1.005H55
				h2.655c0.856,0,1.671-0.366,2.24-1.005L65,62.964l3.193-7.982C71.039,54.791,72,50.481,72,47.222C72,47.22,72,47.216,72,47.214z"
				/>
		</g>
		<g>
			<path style="fill:#F7B4B4;" d="M59.895,66.953c-0.569,0.639-1.384,1.005-2.24,1.005H55h-2.655c-0.856,0-1.671-0.366-2.24-1.005
				L45,62.958v2.545l9.998,14.494c0,0,0.001,0,0.002,0s0.001,0,0.002,0L65,65.503v-2.545L59.895,66.953z"/>
		</g>
		<path style="fill:#FBC8C8;" d="M52.345,67.961c-0.856,0-1.671-0.365-2.24-1.005L45,62.961v2.542l9.998,14.494c0,0,0.001,0,0.002,0
			V67.961H52.345z"/>
		<path style="fill:#3E3E3F;" d="M39,73l-2.006-2.674l-6.951,2.692C28.698,73.606,27.615,74.667,27,76l-4,11h22l-9-12L39,73z"/>
		<g>
			<polygon style="fill:#5B5C5F;" points="45,64 45,67 44,71 47,87 45,87 36,75 39,73 36,69 			"/>
		</g>
		<g>
			<path style="fill:#3E3E3F;" d="M71,73l3,2l-9,12h22l-4-11c-0.615-1.333-1.698-2.394-3.043-2.982l-6.951-2.692L71,73z"/>
			<polygon style="fill:#21B2D1;" points="63,86.999 63,87 63,87 			"/>
		</g>
		<polygon style="fill:#5B5C5F;" points="65.668,74.547 63,87 63,87 65,87 74,75 71,73 74,69 65,64 65,67 66,71 		"/>
		<path style="fill:#FACB1B;" d="M59.264,77.684L55,81l-4.264-3.316c-1.677-1.304-3.739-2.382-6.051-3.027L47,87h16l2.668-12.453
			C63.355,75.138,61.172,76.199,59.264,77.684z"/>
		<path style="fill:#FBE158;" d="M65,65.503L55,80L45,65.503L40,74c3.889,0,7.667,1.296,10.736,3.684L55,81l4.264-3.316
			C62.333,75.296,66.111,74,70,74L65,65.503z"/>
		<g>
			<rect x="29" y="81.997" style="fill:#9E9FA0;" width="10" height="2"/>
		</g>
		<g>
			<rect x="29" y="83.997" style="fill:#5B5C5F;" width="10" height="3"/>
		</g>
		<g>
			<rect x="70" y="81.997" style="fill:#9E9FA0;" width="10" height="2"/>
		</g>
		<g>
			<rect x="70" y="83.997" style="fill:#5B5C5F;" width="10" height="3"/>
		</g>
		<path style="fill:#FBD7D7;" d="M49.274,36.019c-1.328,1.05-3.087,1.307-4.713,0.526C40.149,40.289,41.734,44,41.943,45
			c-0.221,0-1.08,0-1.942,0c-1,0-2,1.111-2,2.222c0,0.089,0.004,0.181,0.005,0.271l0,0c0.052,3.222,1.034,7.3,3.802,7.486L45,62.961
			l5.105,3.995c0.569,0.64,1.384,1.005,2.24,1.005H55V39C52.631,39,50.541,37.82,49.274,36.019z"/>
		<g>
			<path style="fill:#3E3E3F;" d="M52,46.997c0-1.104-0.896-2-2-2c-0.002,0-0.004,0-0.006,0C49.995,45.019,50,45.039,50,45.06
				c0,1.103-0.892,1.996-1.994,2c0.033,1.075,0.91,1.938,1.994,1.938C51.104,48.997,52,48.102,52,46.997z"/>
		</g>
		<g>
			<path style="fill:#3E3E3F;" d="M61.994,46.997c0-1.104-0.896-2-2-2c-0.002,0-0.004,0-0.006,0
				c0.001,0.021,0.006,0.041,0.006,0.062c0,1.103-0.892,1.996-1.994,2c0.033,1.075,0.91,1.938,1.994,1.938
				C61.098,48.997,61.994,48.102,61.994,46.997z"/>
		</g>
		<g>
			<path style="fill:#F79392;" d="M50,56.997h10c0,0,0,3-5,3S50,56.997,50,56.997z"/>
		</g>
		<g>
			<path style="fill:#3E3E3F;" d="M71.341,43.155c2.2-3.544,0.214-8.033-3.671-8.978c1.615-4.011-2.824-7.763-6.51-5.504
				C59.977,26.486,57.662,25,55.001,25s-4.976,1.486-6.16,3.673c-3.678-2.254-8.128,1.485-6.51,5.504
				c-3.883,0.945-5.873,5.433-3.671,8.978c-0.965,0.347-1.659,1.261-1.659,2.345c0,0.818,0.398,1.537,1.005,1.993
				c-0.001-0.09-0.005-0.182-0.005-0.271c0-1.111,1-2.222,2-2.222c0.862,0,1.722,0,1.942,0c-0.209-1-1.793-4.711,2.618-8.456
				c1.626,0.781,3.385,0.524,4.713-0.526C50.541,37.82,52.631,39,55.001,39s4.459-1.18,5.726-2.981
				c1.222,0.966,2.836,1.28,4.409,0.664c2.108,2.145,3.526,5.395,2.918,8.317c1.174,0,3.947-0.384,3.947,2.222
				c0,0.089-0.004,0.181-0.005,0.271C73.594,46.291,73.218,43.829,71.341,43.155z"/>
		</g>
	</g>
</g>
</svg>
