<?xml version="1.0" encoding="iso-8859-1"?>
<!-- Generator: Adobe Illustrator 17.1.0, SVG Export Plug-In . SVG Version: 6.00 Build 0)  -->
<!DOCTYPE svg PUBLIC "-//W3C//DTD SVG 1.0//EN" "http://www.w3.org/TR/2001/REC-SVG-20010904/DTD/svg10.dtd">
<svg version="1.0" xmlns="http://www.w3.org/2000/svg" xmlns:xlink="http://www.w3.org/1999/xlink" x="0px" y="0px" width="110px"
	 height="110px" viewBox="0 0 110 110" style="enable-background:new 0 0 110 110;" xml:space="preserve">
<g id="Artboard">
</g>
<g id="Multicolor">
	<g>
		<circle style="fill:#32BEA6;" cx="55" cy="55" r="55"/>
	</g>
	<g>
		<g>
			<path style="fill:#FBE158;" d="M83,76c-0.615-1.333-1.698-2.395-3.043-2.983L68,69H55H42l-11.957,4.017
				C28.698,73.605,27.615,74.667,27,76l-4,11h32h32L83,76z"/>
		</g>
		<g>
			<path style="fill:#DF2C2C;" d="M55,79.036c3.857,0,13-1,13-7c0-0.676,0-1.789,0-3.072h-3v3.072c0,0-2,4-10,4s-10-4-10-4v-3.072
				h-3c0,1.283,0,2.396,0,3.072C42,78.036,51.143,79.036,55,79.036z"/>
		</g>
		<g>
			<path style="fill:#F3B607;" d="M32.895,72.059l-2.852,0.958C28.698,73.605,27.615,74.667,27,76l-4,11h11.914L32.895,72.059z"/>
		</g>
		<g>
			<path style="fill:#F3B607;" d="M77.105,72.059l2.852,0.958C81.302,73.605,82.385,74.667,83,76l4,11H75.086L77.105,72.059z"/>
		</g>
		<path style="fill:#F4D0A1;" d="M57.655,68H55h-2.655c-0.856,0-1.671-0.366-2.24-1.005L45,63v9.036c0,0,2,4,10,4s10-4,10-4V63
			l-5.105,3.995C59.326,67.634,58.511,68,57.655,68z"/>
		<path style="fill:#F8E1C2;" d="M50.105,66.995L45,63v9.036c0,0,2,4,10,4V68h-2.655C51.489,68,50.674,67.634,50.105,66.995z"/>
		<path style="fill:#F8E1C2;" d="M70.917,45.345c-0.19,1.765-0.82,4.691-2.917,4.691c0-3,0-8,0-8s-1,4-5,4c0-4,0-11,0-11
			s-2,11-10,11c0-2,0-7,0-7s-3,7-7,7c0-3,0-6,0-6l-4,5v5c0,0-0.45-0.303-1-0.901V53l4,10l5.105,3.995
			C50.674,67.634,51.489,68,52.345,68H55h2.655c0.856,0,1.671-0.366,2.24-1.005L65,63l3.193-7.982
			C71.039,54.827,72,50.517,72,47.258C72,46.5,71.53,45.75,70.917,45.345z"/>
		<path style="fill:#FCF1E2;" d="M53,46.036c0-2,0-7,0-7s-3,7-7,7c0-3,0-6,0-6l-4,5v5c0,0-2.365-1.583-2.892-4.743
			C38.482,45.694,38,46.454,38,47.222c0,3.253,0.958,7.553,3.792,7.758L45,63l5.105,3.995c0.569,0.64,1.384,1.005,2.24,1.005H55
			V45.786C54.378,45.945,53.714,46.036,53,46.036z"/>
		<g>
			<path style="fill:#F79392;" d="M50,57.033h10c0,0,0,3-5,3S50,57.033,50,57.033z"/>
		</g>
		<g>
			<path style="fill:#3E3E3F;" d="M71,44.036c0-9.941-6.059-18-16-18s-16,8.059-16,18c0,4,3,6,3,6v-5l4-5c0,0,0,3,0,6c4,0,7-7,7-7
				s0,5,0,7c8,0,10-11,10-11s0,7,0,11c4,0,5-4,5-4s0,5,0,8C71,50.036,71,44.036,71,44.036z"/>
		</g>
		<g>
			<path style="fill:#3E3E3F;" d="M61.007,48.322c1.191,0,2.248,0.266,2.981,0.678c0.071-0.569-0.172-1.154-0.748-1.59
				c-1.03-0.781-2.702-0.781-3.733,0c-0.464,0.352-0.709,0.801-0.753,1.26C59.396,48.451,60.171,48.322,61.007,48.322z"/>
		</g>
		<g>
			<path style="fill:#3E3E3F;" d="M49,48.322c-1.191,0-2.248,0.266-2.981,0.678c-0.071-0.569,0.172-1.154,0.748-1.59
				c1.03-0.781,2.702-0.781,3.733,0c0.464,0.352,0.709,0.801,0.753,1.26C50.611,48.451,49.836,48.322,49,48.322z"/>
		</g>
	</g>
</g>
</svg>
