<?xml version="1.0" encoding="iso-8859-1"?>
<!-- Generator: Adobe Illustrator 17.1.0, SVG Export Plug-In . SVG Version: 6.00 Build 0)  -->
<!DOCTYPE svg PUBLIC "-//W3C//DTD SVG 1.0//EN" "http://www.w3.org/TR/2001/REC-SVG-20010904/DTD/svg10.dtd">
<svg version="1.0" xmlns="http://www.w3.org/2000/svg" xmlns:xlink="http://www.w3.org/1999/xlink" x="0px" y="0px" width="110px"
	 height="110px" viewBox="0 0 110 110" style="enable-background:new 0 0 110 110;" xml:space="preserve">
<g id="Artboard">
</g>
<g id="Multicolor">
	<circle style="fill:#FABC3D;" cx="55" cy="55" r="55"/>
	<g>
		<g>
			<path style="fill:#099686;" d="M60.26,73.83c0,0,7.56,1.58,11.56,8.45c-4.449,1.155-9.996,0.414-14.82-2.83L58,87h-6l1-7.55
				c-4.82,3.25-10.37,3.98-14.82,2.83c2.21-3.79,6.32-7.13,11.62-8.45C39,74,28.07,69.08,23,63.14c5.05-1.57,16.28-0.44,24.32,3.41
				C38.53,61.01,27.33,47.1,27,39c7.81,1.25,19,11,24,23c-4-12-4.26-32.24,4-39c0,0,0,0,0.01,0.01C63.26,29.78,63,50,59,62
				c5.243-12.464,16.501-21.797,24-23c-0.329,8.106-11.488,21.956-21.11,27.57c8.537-3.793,19.97-5.02,25.11-3.43
				C81.94,69.07,71.04,73.98,60.26,73.83z"/>
		</g>
		<path style="fill:#12B2A0;" d="M55,87V23c-8.26,6.76-8,27-4,39c-5-12-16.19-21.75-24-23c0.33,8.1,11.53,22.01,20.32,27.55
			C39.28,62.7,28.05,61.57,23,63.14C28.07,69.08,39,74,49.8,73.83c-5.3,1.32-9.41,4.66-11.62,8.45c4.45,1.15,10,0.42,14.82-2.83
			L52,87H55z"/>
	</g>
</g>
</svg>
