<?xml version="1.0" encoding="iso-8859-1"?>
<!-- Generator: Adobe Illustrator 17.1.0, SVG Export Plug-In . SVG Version: 6.00 Build 0)  -->
<!DOCTYPE svg PUBLIC "-//W3C//DTD SVG 1.0//EN" "http://www.w3.org/TR/2001/REC-SVG-20010904/DTD/svg10.dtd">
<svg version="1.0" xmlns="http://www.w3.org/2000/svg" xmlns:xlink="http://www.w3.org/1999/xlink" x="0px" y="0px" width="110px"
	 height="110px" viewBox="0 0 110 110" style="enable-background:new 0 0 110 110;" xml:space="preserve">
<g id="Artboard">
</g>
<g id="Multicolor">
	<circle style="fill:#25B7D3;" cx="55" cy="55" r="55"/>
	<g>
		<polygon style="fill:#FACB1B;" points="31,55 75,27 87,39 59,83 		"/>
		<path style="fill:#FBE158;" d="M59,83c-7.882-0.036-14.562-0.785-22,2l-9-9c2.785-7.439,3.036-13.118,3-21L59,83z"/>
		<polygon style="fill:#3E3E3F;" points="30.579,78.579 23,87 32,87 35.5,83.5 		"/>
		<polygon style="fill:#FBE158;" points="31,54.958 45.042,69 81.042,33 75,26.958 		"/>
		<path style="fill:#FBEC9A;" d="M31,54.958c0.036,7.882-0.215,13.561-3,21L33.042,81l12-12L31,54.958z"/>
	</g>
</g>
</svg>
