<?xml version="1.0" encoding="iso-8859-1"?>
<!-- Generator: Adobe Illustrator 17.1.0, SVG Export Plug-In . SVG Version: 6.00 Build 0)  -->
<!DOCTYPE svg PUBLIC "-//W3C//DTD SVG 1.0//EN" "http://www.w3.org/TR/2001/REC-SVG-20010904/DTD/svg10.dtd">
<svg version="1.0" xmlns="http://www.w3.org/2000/svg" xmlns:xlink="http://www.w3.org/1999/xlink" x="0px" y="0px" width="110px"
	 height="110px" viewBox="0 0 110 110" style="enable-background:new 0 0 110 110;" xml:space="preserve">
<g id="Artboard">
</g>
<g id="Multicolor">
	<circle style="fill:#32BEA6;" cx="55" cy="55" r="55"/>
	<g>
		<path style="fill:#FA5655;" d="M84.293,43.849L51.059,77.083L36.917,62.941l33.234-33.234c1.563-1.563,4.094-1.563,5.657,0
			l8.485,8.485C85.856,39.755,85.856,42.287,84.293,43.849z"/>
		<path style="fill:#FFFFFF;" d="M51.059,77.083l-2.121,2.121c-1.739,1.739-4.278,2.185-6.435,1.344
			c-1.485-0.58-3.168-0.226-4.292,0.898c-0.502,0.502-1.23,0.651-1.853,0.438c-0.682-0.193-4.05-3.561-4.243-4.243
			c-0.212-0.622-0.064-1.351,0.438-1.853c1.124-1.124,1.478-2.807,0.898-4.292c-0.842-2.157-0.396-4.695,1.343-6.435l2.121-2.121
			L51.059,77.083z"/>
		<path style="fill:#3E3E3F;" d="M36.358,81.885l-5.098,5.098l-5.657-2.828l6.512-6.512c0.078,0.276,0.226,0.523,0.438,0.735
			l3.069,3.069C35.835,81.658,36.082,81.807,36.358,81.885z"/>
		<path style="fill:#F0F1F1;" d="M85.707,36.778c0.391-0.391,0.391-1.024,0-1.414l-7.071-7.071c-0.391-0.391-1.024-0.391-1.414,0
			l-1.414,1.414l8.485,8.485L85.707,36.778z"/>
		<path style="fill:#DF2C2C;" d="M84.293,43.849L51.059,77.083l-7.071-7.071L80.05,33.95l4.243,4.243
			C85.856,39.755,85.856,42.287,84.293,43.849z"/>
		<path style="fill:#F0F1F1;" d="M51.059,77.083l-2.121,2.121c-1.739,1.739-4.278,2.185-6.435,1.344
			c-1.485-0.58-3.168-0.226-4.292,0.898c-0.502,0.502-1.23,0.651-1.853,0.438c-0.276-0.078-0.523-0.226-0.735-0.438l-1.534-1.534
			l9.899-9.899L51.059,77.083z"/>
	</g>
</g>
</svg>
