<?xml version="1.0" encoding="iso-8859-1"?>
<!-- Generator: Adobe Illustrator 17.1.0, SVG Export Plug-In . SVG Version: 6.00 Build 0)  -->
<!DOCTYPE svg PUBLIC "-//W3C//DTD SVG 1.0//EN" "http://www.w3.org/TR/2001/REC-SVG-20010904/DTD/svg10.dtd">
<svg version="1.0" xmlns="http://www.w3.org/2000/svg" xmlns:xlink="http://www.w3.org/1999/xlink" x="0px" y="0px" width="110px"
	 height="110px" viewBox="0 0 110 110" style="enable-background:new 0 0 110 110;" xml:space="preserve">
<g id="Artboard">
</g>
<g id="Multicolor">
	<circle style="fill:#E04F5F;" cx="55" cy="55" r="55"/>
	<g>
		<g>
			<path style="fill:#84462D;" d="M86.945,39h-4v46c0,1.105,0.895,2,2,2c1.105,0,2-0.895,2-2V39z"/>
		</g>
		<g>
			<path style="fill:#FACB1B;" d="M86.944,35c-15,14-15-4-29,2c7-5,1-13-3-14c-4,1-10,9-3,14c-14-6-14,12-29-2c0,0-2,28,18,28
				c6.615,0,11.068-2.161,12.965-3.306c0.636-0.384,1.434-0.385,2.07-0.001C57.875,60.839,62.329,63,68.944,63
				C88.944,63,86.944,35,86.944,35z M40.754,52.665c-5.086-1.287-8.228-6.208-8.228-6.208s5.104-2.834,10.191-1.547
				s8.228,6.208,8.228,6.208S45.84,53.952,40.754,52.665z M69.136,52.665c-5.086,1.288-10.191-1.547-10.191-1.547
				s3.142-4.921,8.229-6.208s10.191,1.547,10.191,1.547S74.222,51.377,69.136,52.665z"/>
		</g>
		<g>
			<path style="fill:#FBE158;" d="M57.944,37c7-5,1-13-3-14c-4,1-10,9-3,14c-14-6-14,12-29-2c0,0-1.882,26.417,16.344,27.927
				L66.126,36.09C63.952,35.505,61.369,35.533,57.944,37z M40.754,52.665c-5.086-1.287-8.228-6.208-8.228-6.208
				s5.104-2.834,10.191-1.547s8.228,6.208,8.228,6.208S45.84,53.952,40.754,52.665z"/>
		</g>
	</g>
</g>
</svg>
