<?xml version="1.0" encoding="iso-8859-1"?>
<!-- Generator: Adobe Illustrator 17.1.0, SVG Export Plug-In . SVG Version: 6.00 Build 0)  -->
<!DOCTYPE svg PUBLIC "-//W3C//DTD SVG 1.0//EN" "http://www.w3.org/TR/2001/REC-SVG-20010904/DTD/svg10.dtd">
<svg version="1.0" xmlns="http://www.w3.org/2000/svg" xmlns:xlink="http://www.w3.org/1999/xlink" x="0px" y="0px" width="110px"
	 height="110px" viewBox="0 0 110 110" style="enable-background:new 0 0 110 110;" xml:space="preserve">
<g id="Artboard">
</g>
<g id="Multicolor">
	<circle style="fill:#FABC3D;" cx="55" cy="55" r="55"/>
	<g>
		<g>
			<path style="fill:#F37A10;" d="M47,85c-11.046,0-20-8.954-20-20c0-13,20-24,20-40c0,0,14,13,5,26c0,0,8-5,8-14
				C69.898,46.898,74.592,85,47,85z"/>
		</g>
		<g>
			<path style="fill:#F37A10;" d="M60,37c0,9-8,14-8,14c9-13-5-26-5-26c0,16-20,27-20,40c0,5.071,1.902,9.687,5.012,13.212
				l32.901-32.901C63.591,41.82,61.892,38.892,60,37z"/>
		</g>
		<g>
			<path style="fill:#FBEC9A;" d="M57,68c0,6.075-4.925,11-11,11s-11-4.925-11-11c0-4.458,2.652-8.297,6.465-10.025
				c-3.59,3.942,0.239,7.598,0.826,7.442c-2.125-3.583,4.333-8.208,2.375-13.417C49.667,52,57,61.925,57,68z"/>
		</g>
		<g>
			<polygon style="fill:#FCF1E2;" points="58.006,66.169 59.187,69.99 87,61.397 87,57.21 			"/>
		</g>
		<g>
			<path style="fill:#FCF6C2;" d="M44.667,52c1.958,5.208-4.5,9.833-2.375,13.417c-0.587,0.156-4.417-3.5-0.826-7.441
				C37.652,59.703,35,63.542,35,68c0,2.069,0.582,3.997,1.575,5.65l16.043-16.043C50.175,54.423,47.137,52,44.667,52z"/>
		</g>
		<g>
			<path style="fill:#DF2C2C;" d="M59.482,70.946l-1.771-5.733c0,0-3.162-0.07-8.894,1.701c-2.826,0.873-4.43,2.46-3.596,5.298
				c0.857,2.918,3.052,3.244,5.958,2.346C56.911,72.787,59.482,70.946,59.482,70.946z"/>
		</g>
	</g>
</g>
</svg>
