<?xml version="1.0" encoding="iso-8859-1"?>
<!-- Generator: Adobe Illustrator 17.1.0, SVG Export Plug-In . SVG Version: 6.00 Build 0)  -->
<!DOCTYPE svg PUBLIC "-//W3C//DTD SVG 1.0//EN" "http://www.w3.org/TR/2001/REC-SVG-20010904/DTD/svg10.dtd">
<svg version="1.0" xmlns="http://www.w3.org/2000/svg" xmlns:xlink="http://www.w3.org/1999/xlink" x="0px" y="0px" width="110px"
	 height="110px" viewBox="0 0 110 110" style="enable-background:new 0 0 110 110;" xml:space="preserve">
<g id="Artboard" style="display:none;">
	
		<rect x="-456.5" y="-802.5" style="display:inline;fill:#808080;stroke:#000000;stroke-miterlimit:10;" width="1392" height="1369"/>
</g>
<g id="R-Multicolor">
	<circle style="fill:#FABC3D;" cx="55" cy="55" r="55"/>
	<g>
		<g>
			<path style="fill:#DF2C2C;" d="M67.2,23H54.859C37.264,23,23,37.264,23,54.859V66.85C23,77.978,32.022,87,43.15,87h0.24
				c1.994,0,3.61-1.616,3.61-3.61l0-4.412C47,70.154,54.153,63,62.978,63H67.2C78.135,63,87,54.135,87,43.2
				C87,31.289,77.704,23,67.2,23z"/>
		</g>
		<g>
			<circle style="fill:#FBD7D7;" cx="37" cy="73" r="5"/>
		</g>
		<g>
			<path style="fill:#F79392;" d="M67,55c-24,0-19,8-32.28,8C31.561,63,29,60.439,29,57.28C29,39.745,42.908,27,58.92,27h6.24
				C73.529,27,81,33.596,81,43.16C81,51.908,75.748,55,67,55z"/>
		</g>
		<g>
			<path style="fill:#FA5655;" d="M67.2,23H54.859C37.264,23,23,37.264,23,54.859V66.85c0,1.901,0.281,3.733,0.773,5.476
				L72.389,23.71C70.732,23.261,68.999,23,67.2,23z"/>
		</g>
		<g>
			<path style="fill:#F7B4B4;" d="M65.16,27h-6.24C42.907,27,29,39.746,29,57.28c0,2.663,1.823,4.895,4.287,5.531L68.69,27.409
				C67.553,27.15,66.375,27,65.16,27z"/>
		</g>
	</g>
</g>
<g id="Multicolor" style="display:none;">
	<g style="display:inline;">
		<g>
			<path style="fill:#DF2C2C;" d="M67.2,23H54.859C37.264,23,23,37.264,23,54.859V66.85C23,77.978,32.022,87,43.15,87h0.24
				c1.994,0,3.61-1.616,3.61-3.61l0-4.412C47,70.154,54.153,63,62.978,63H67.2C78.135,63,87,54.135,87,43.2
				C87,31.289,77.704,23,67.2,23z"/>
		</g>
		<g>
			<circle style="fill:#FBD7D7;" cx="37" cy="73" r="5"/>
		</g>
		<g>
			<path style="fill:#F79392;" d="M67,55c-24,0-19,8-32.28,8C31.561,63,29,60.439,29,57.28C29,39.745,42.908,27,58.92,27h6.24
				C73.529,27,81,33.596,81,43.16C81,51.908,75.748,55,67,55z"/>
		</g>
		<g>
			<path style="fill:#FA5655;" d="M67.2,23H54.859C37.264,23,23,37.264,23,54.859V66.85c0,1.901,0.281,3.733,0.773,5.476
				L72.389,23.71C70.732,23.261,68.999,23,67.2,23z"/>
		</g>
		<g>
			<path style="fill:#F7B4B4;" d="M65.16,27h-6.24C42.907,27,29,39.746,29,57.28c0,2.663,1.823,4.895,4.287,5.531L68.69,27.409
				C67.553,27.15,66.375,27,65.16,27z"/>
		</g>
	</g>
</g>
<g id="Blue" style="display:none;">
	<g style="display:inline;">
		<g>
			<path style="fill:#0081A1;" d="M67.2,23H54.859C37.264,23,23,37.264,23,54.859V66.85C23,77.979,32.021,87,43.15,87h0.24
				C45.384,87,47,85.384,47,83.39v-4.412C47,70.154,54.153,63,62.978,63H67.2C78.135,63,87,54.135,87,43.2
				C87,31.289,77.703,23,67.2,23z"/>
		</g>
		<g>
			<circle style="fill:#E1F5FA;" cx="37" cy="73" r="5"/>
		</g>
		<g>
			<path style="fill:#BBE7F2;" d="M67,55c-24,0-19,8-32.28,8C31.561,63,29,60.439,29,57.281C29,39.746,42.908,27,58.92,27h6.24
				C73.529,27,81,33.596,81,43.16C81,51.908,75.748,55,67,55z"/>
		</g>
		<g>
			<path style="fill:#009FC7;" d="M67.2,23H54.859C37.264,23,23,37.264,23,54.859V66.85c0,1.9,0.281,3.732,0.773,5.476L72.389,23.71
				C70.732,23.261,68.998,23,67.2,23z"/>
		</g>
		<g>
			<path style="fill:#E1F5FA;" d="M65.16,27h-6.24C42.906,27,29,39.746,29,57.28c0,2.664,1.822,4.895,4.287,5.532L68.69,27.409
				C67.554,27.15,66.375,27,65.16,27z"/>
		</g>
	</g>
</g>
<g id="R-Blue" style="display:none;">
	<circle style="display:inline;fill:#81D2EB;" cx="55" cy="55" r="55"/>
	<g style="display:inline;">
		<g>
			<path style="fill:#0081A1;" d="M67.2,23H54.859C37.264,23,23,37.264,23,54.859V66.85C23,77.979,32.021,87,43.15,87h0.24
				C45.384,87,47,85.384,47,83.39v-4.412C47,70.154,54.153,63,62.978,63H67.2C78.135,63,87,54.135,87,43.2
				C87,31.289,77.703,23,67.2,23z"/>
		</g>
		<g>
			<circle style="fill:#E1F5FA;" cx="37" cy="73" r="5"/>
		</g>
		<g>
			<path style="fill:#BBE7F2;" d="M67,55c-24,0-19,8-32.28,8C31.561,63,29,60.439,29,57.281C29,39.746,42.908,27,58.92,27h6.24
				C73.529,27,81,33.596,81,43.16C81,51.908,75.748,55,67,55z"/>
		</g>
		<g>
			<path style="fill:#009FC7;" d="M67.2,23H54.859C37.264,23,23,37.264,23,54.859V66.85c0,1.9,0.281,3.732,0.773,5.476L72.389,23.71
				C70.732,23.261,68.998,23,67.2,23z"/>
		</g>
		<g>
			<path style="fill:#E1F5FA;" d="M65.16,27h-6.24C42.906,27,29,39.746,29,57.28c0,2.664,1.822,4.895,4.287,5.532L68.69,27.409
				C67.554,27.15,66.375,27,65.16,27z"/>
		</g>
	</g>
</g>
<g id="Green" style="display:none;">
	<g style="display:inline;">
		<g>
			<path style="fill:#009687;" d="M67.2,23H54.859C37.264,23,23,37.264,23,54.859V66.85C23,77.979,32.021,87,43.15,87h0.24
				C45.384,87,47,85.384,47,83.39v-4.412C47,70.154,54.153,63,62.977,63H67.2C78.135,63,87,54.135,87,43.2
				C87,31.289,77.703,23,67.2,23z"/>
		</g>
		<g>
			<circle style="fill:#D7FCF9;" cx="37" cy="73" r="5"/>
		</g>
		<g>
			<path style="fill:#AAF0E9;" d="M67,55c-24,0-19,8-32.28,8C31.56,63,29,60.439,29,57.281C29,39.746,42.908,27,58.92,27h6.24
				C73.529,27,81,33.596,81,43.16C81,51.908,75.748,55,67,55z"/>
		</g>
		<g>
			<path style="fill:#00B8A5;" d="M67.2,23H54.859C37.264,23,23,37.264,23,54.859V66.85c0,1.9,0.281,3.732,0.773,5.476L72.389,23.71
				C70.732,23.261,68.998,23,67.2,23z"/>
		</g>
		<g>
			<path style="fill:#D7FCF9;" d="M65.16,27h-6.24C42.906,27,29,39.746,29,57.28c0,2.664,1.822,4.895,4.287,5.532L68.69,27.409
				C67.554,27.15,66.375,27,65.16,27z"/>
		</g>
	</g>
</g>
<g id="R-Green" style="display:none;">
	<circle style="display:inline;fill:#77E0C4;" cx="55" cy="55" r="55"/>
	<g style="display:inline;">
		<g>
			<path style="fill:#009687;" d="M67.2,23H54.859C37.264,23,23,37.264,23,54.859V66.85C23,77.979,32.021,87,43.15,87h0.24
				C45.384,87,47,85.384,47,83.39v-4.412C47,70.154,54.153,63,62.978,63H67.2C78.135,63,87,54.135,87,43.2
				C87,31.289,77.703,23,67.2,23z"/>
		</g>
		<g>
			<circle style="fill:#D7FCF9;" cx="37" cy="73" r="5"/>
		</g>
		<g>
			<path style="fill:#AAF0E9;" d="M67,55c-24,0-19,8-32.28,8C31.56,63,29,60.439,29,57.281C29,39.746,42.908,27,58.92,27h6.24
				C73.529,27,81,33.596,81,43.16C81,51.908,75.748,55,67,55z"/>
		</g>
		<g>
			<path style="fill:#00B8A5;" d="M67.2,23H54.859C37.264,23,23,37.264,23,54.859V66.85c0,1.9,0.281,3.732,0.773,5.476L72.389,23.71
				C70.732,23.261,68.998,23,67.2,23z"/>
		</g>
		<g>
			<path style="fill:#D7FCF9;" d="M65.16,27h-6.24C42.906,27,29,39.746,29,57.28c0,2.664,1.822,4.895,4.287,5.532L68.69,27.409
				C67.554,27.15,66.375,27,65.16,27z"/>
		</g>
	</g>
</g>
<g id="Red" style="display:none;">
	<g style="display:inline;">
		<g>
			<path style="fill:#C23023;" d="M67.2,23H54.859C37.264,23,23,37.264,23,54.859V66.85C23,77.979,32.021,87,43.15,87h0.24
				C45.384,87,47,85.384,47,83.39v-4.412C47,70.154,54.153,63,62.977,63H67.2C78.135,63,87,54.135,87,43.2
				C87,31.289,77.703,23,67.2,23z"/>
		</g>
		<g>
			<circle style="fill:#FFEFED;" cx="37" cy="73" r="5"/>
		</g>
		<g>
			<path style="fill:#FFD7D4;" d="M67,55c-24,0-19,8-32.28,8C31.56,63,29,60.439,29,57.281C29,39.746,42.908,27,58.92,27h6.24
				C73.529,27,81,33.596,81,43.16C81,51.908,75.748,55,67,55z"/>
		</g>
		<g>
			<path style="fill:#E54B44;" d="M67.2,23H54.859C37.264,23,23,37.264,23,54.859V66.85c0,1.9,0.281,3.732,0.773,5.476L72.389,23.71
				C70.732,23.261,68.998,23,67.2,23z"/>
		</g>
		<g>
			<path style="fill:#FFEFED;" d="M65.16,27h-6.24C42.906,27,29,39.746,29,57.28c0,2.664,1.822,4.895,4.287,5.532L68.69,27.409
				C67.554,27.15,66.375,27,65.16,27z"/>
		</g>
	</g>
</g>
<g id="R-Red" style="display:none;">
	<circle style="display:inline;fill:#FABBAF;" cx="55" cy="55" r="55"/>
	<g style="display:inline;">
		<g>
			<path style="fill:#C23023;" d="M67.2,23H54.859C37.264,23,23,37.264,23,54.859V66.85C23,77.979,32.021,87,43.15,87h0.24
				C45.384,87,47,85.384,47,83.39v-4.412C47,70.154,54.153,63,62.977,63H67.2C78.135,63,87,54.135,87,43.2
				C87,31.289,77.703,23,67.2,23z"/>
		</g>
		<g>
			<circle style="fill:#FFEFED;" cx="37" cy="73" r="5"/>
		</g>
		<g>
			<path style="fill:#FFD7D4;" d="M67,55c-24,0-19,8-32.28,8C31.56,63,29,60.439,29,57.281C29,39.746,42.908,27,58.92,27h6.24
				C73.529,27,81,33.596,81,43.16C81,51.908,75.748,55,67,55z"/>
		</g>
		<g>
			<path style="fill:#E54B44;" d="M67.2,23H54.859C37.264,23,23,37.264,23,54.859V66.85c0,1.9,0.281,3.732,0.773,5.476L72.389,23.71
				C70.732,23.261,68.998,23,67.2,23z"/>
		</g>
		<g>
			<path style="fill:#FFEFED;" d="M65.16,27h-6.24C42.906,27,29,39.746,29,57.28c0,2.664,1.822,4.895,4.287,5.532L68.69,27.409
				C67.554,27.15,66.375,27,65.16,27z"/>
		</g>
	</g>
</g>
<g id="Yellow" style="display:none;">
	<g style="display:inline;">
		<g>
			<path style="fill:#E07000;" d="M67.2,23H54.859C37.264,23,23,37.264,23,54.859V66.85C23,77.979,32.021,87,43.15,87h0.24
				C45.384,87,47,85.384,47,83.39v-4.412C47,70.154,54.153,63,62.978,63H67.2C78.135,63,87,54.135,87,43.2
				C87,31.289,77.703,23,67.2,23z"/>
		</g>
		<g>
			<circle style="fill:#FFF5D9;" cx="37" cy="73" r="5"/>
		</g>
		<g>
			<path style="fill:#FFE9A1;" d="M67,55c-24,0-19,8-32.28,8C31.56,63,29,60.439,29,57.281C29,39.746,42.908,27,58.92,27h6.24
				C73.529,27,81,33.596,81,43.16C81,51.908,75.748,55,67,55z"/>
		</g>
		<g>
			<path style="fill:#FA9200;" d="M67.2,23H54.859C37.264,23,23,37.264,23,54.859V66.85c0,1.9,0.281,3.732,0.773,5.476L72.389,23.71
				C70.732,23.261,68.998,23,67.2,23z"/>
		</g>
		<g>
			<path style="fill:#FFF5D9;" d="M65.16,27h-6.24C42.906,27,29,39.746,29,57.28c0,2.664,1.822,4.895,4.287,5.532L68.69,27.409
				C67.554,27.15,66.375,27,65.16,27z"/>
		</g>
	</g>
</g>
<g id="R-Yellow" style="display:none;">
	<circle style="display:inline;fill:#FFD75E;" cx="55" cy="55" r="55"/>
	<g style="display:inline;">
		<g>
			<path style="fill:#E07000;" d="M67.2,23H54.859C37.264,23,23,37.264,23,54.859V66.85C23,77.979,32.021,87,43.15,87h0.24
				C45.384,87,47,85.384,47,83.39v-4.412C47,70.154,54.153,63,62.977,63H67.2C78.135,63,87,54.135,87,43.2
				C87,31.289,77.703,23,67.2,23z"/>
		</g>
		<g>
			<circle style="fill:#FFF5D9;" cx="37" cy="73" r="5"/>
		</g>
		<g>
			<path style="fill:#FFE9A1;" d="M67,55c-24,0-19,8-32.28,8C31.56,63,29,60.439,29,57.281C29,39.746,42.908,27,58.92,27h6.24
				C73.529,27,81,33.596,81,43.16C81,51.908,75.748,55,67,55z"/>
		</g>
		<g>
			<path style="fill:#FA9200;" d="M67.2,23H54.859C37.264,23,23,37.264,23,54.859V66.85c0,1.9,0.281,3.732,0.773,5.476L72.389,23.71
				C70.732,23.261,68.998,23,67.2,23z"/>
		</g>
		<g>
			<path style="fill:#FFF5D9;" d="M65.16,27h-6.24C42.906,27,29,39.746,29,57.28c0,2.664,1.822,4.895,4.287,5.532L68.69,27.409
				C67.554,27.15,66.375,27,65.16,27z"/>
		</g>
	</g>
</g>
</svg>
