<?xml version="1.0" encoding="iso-8859-1"?>
<!-- Generator: Adobe Illustrator 17.1.0, SVG Export Plug-In . SVG Version: 6.00 Build 0)  -->
<!DOCTYPE svg PUBLIC "-//W3C//DTD SVG 1.0//EN" "http://www.w3.org/TR/2001/REC-SVG-20010904/DTD/svg10.dtd">
<svg version="1.0" xmlns="http://www.w3.org/2000/svg" xmlns:xlink="http://www.w3.org/1999/xlink" x="0px" y="0px" width="110px"
	 height="110px" viewBox="0 0 110 110" style="enable-background:new 0 0 110 110;" xml:space="preserve">
<g id="Artboard">
</g>
<g id="Multicolor">
	<circle style="fill:#25B7D3;" cx="55" cy="55" r="55"/>
	<g>
		<path style="fill:#DF2C2C;" d="M83.698,76.301l-8.546-12.736c-0.343,0.152-0.621,0.338-0.786,0.584
			c-0.933,1.393,1.145,5.273-0.036,6.454c-1.182,1.181-5.061-0.897-6.455,0.036c-1.383,0.926-0.94,5.307-2.496,5.952
			c-1.058,0.438-2.715-1.054-4.187-1.907l7.735,11.527c0.381,0.568,1.054,0.867,1.73,0.77c0.677-0.098,1.238-0.574,1.443-1.227
			l1.882-5.976c0.25-0.793,1.016-1.308,1.845-1.238l6.244,0.524c0.681,0.057,1.335-0.281,1.682-0.871S84.079,76.869,83.698,76.301z"
			/>
		<path style="fill:#DF2C2C;" d="M44.249,76.592c-1.556-0.645-1.113-5.027-2.496-5.953c-1.394-0.933-5.273,1.145-6.455-0.036
			c-1.181-1.181,0.897-5.061-0.036-6.454c-0.158-0.236-0.422-0.417-0.747-0.565l-8.534,12.718c-0.381,0.568-0.403,1.304-0.056,1.893
			s1,0.928,1.682,0.871l6.244-0.524c0.829-0.07,1.596,0.445,1.845,1.238l1.882,5.976c0.206,0.652,0.766,1.129,1.443,1.227
			c0.677,0.097,1.35-0.202,1.73-0.77l7.765-11.571C47.024,75.486,45.326,77.039,44.249,76.592z"/>
		<path style="fill:#F3B607;" d="M82.415,51.087c0,1.707-4.217,2.978-4.536,4.591c-0.329,1.662,3.075,4.446,2.441,5.975
			c-0.645,1.556-5.027,1.113-5.953,2.496c-0.933,1.393,1.145,5.273-0.036,6.454c-1.181,1.181-5.061-0.897-6.454,0.036
			c-1.383,0.926-0.94,5.307-2.496,5.952c-1.529,0.634-4.313-2.77-5.975-2.441c-1.613,0.319-2.884,4.536-4.59,4.536
			c-1.707,0-2.978-4.217-4.591-4.536c-1.662-0.329-4.446,3.075-5.975,2.441c-1.556-0.645-1.113-5.027-2.496-5.953
			c-1.393-0.933-5.273,1.145-6.454-0.036c-1.181-1.181,0.897-5.061-0.036-6.454c-0.926-1.383-5.307-0.94-5.952-2.496
			c-0.634-1.529,2.77-4.313,2.441-5.975c-0.319-1.613-4.536-2.884-4.536-4.59c0-1.707,4.217-2.978,4.536-4.591
			c0.329-1.662-3.075-4.446-2.441-5.975c0.645-1.556,5.027-1.113,5.953-2.496c0.933-1.393-1.145-5.273,0.036-6.454
			c1.181-1.181,5.061,0.897,6.454-0.036c1.383-0.926,0.94-5.307,2.496-5.952c1.529-0.634,4.313,2.77,5.975,2.441
			c1.613-0.319,2.884-4.536,4.59-4.536c1.707,0,2.978,4.217,4.591,4.536c1.662,0.329,4.446-3.075,5.975-2.441
			c1.556,0.645,1.113,5.027,2.496,5.953c1.393,0.933,5.273-1.145,6.454,0.036c1.181,1.181-0.897,5.061,0.036,6.454
			c0.926,1.383,5.307,0.94,5.952,2.496c0.634,1.529-2.77,4.313-2.441,5.975C78.198,48.11,82.415,49.381,82.415,51.087z"/>
		<path style="fill:#FACB1B;" d="M74.332,31.572c-1.181-1.181-5.061,0.897-6.455-0.036c-1.383-0.926-0.94-5.308-2.496-5.953
			c-1.529-0.634-4.313,2.77-5.976,2.441c-1.613-0.319-2.884-4.536-4.59-4.536s-2.978,4.217-4.59,4.536
			c-1.662,0.329-4.446-3.075-5.975-2.441c-1.556,0.645-1.113,5.027-2.496,5.952c-1.393,0.933-5.273-1.146-6.454,0.036
			c-1.182,1.181,0.896,5.061-0.036,6.454c-0.926,1.383-5.308,0.94-5.953,2.496c-0.634,1.529,2.77,4.313,2.441,5.975
			c-0.319,1.613-4.537,2.884-4.537,4.591c0,1.707,4.217,2.978,4.536,4.591c0.329,1.662-3.075,4.446-2.441,5.975
			c0.646,1.556,5.027,1.114,5.953,2.496c0.933,1.393-1.146,5.273,0.036,6.454c0.036,0.036,0.082,0.06,0.122,0.09l39-39
			C74.391,31.653,74.367,31.607,74.332,31.572z"/>
		<circle style="fill:#FBE158;" cx="54.815" cy="51.087" r="18.651"/>
		<path style="fill:#FBEC9A;" d="M54.815,32.437c-10.301,0-18.651,8.35-18.651,18.651c0,5.127,2.071,9.768,5.418,13.139
			l26.372-26.372C64.583,34.507,59.941,32.437,54.815,32.437z"/>
		<circle style="fill:#FFFFFF;" cx="54.815" cy="51.087" r="12.167"/>
	</g>
</g>
</svg>
