<?xml version="1.0" encoding="iso-8859-1"?>
<!-- Generator: Adobe Illustrator 17.1.0, SVG Export Plug-In . SVG Version: 6.00 Build 0)  -->
<!DOCTYPE svg PUBLIC "-//W3C//DTD SVG 1.0//EN" "http://www.w3.org/TR/2001/REC-SVG-20010904/DTD/svg10.dtd">
<svg version="1.0" xmlns="http://www.w3.org/2000/svg" xmlns:xlink="http://www.w3.org/1999/xlink" x="0px" y="0px" width="110px"
	 height="110px" viewBox="0 0 110 110" style="enable-background:new 0 0 110 110;" xml:space="preserve">
<g id="Artboard">
</g>
<g id="Multicolor">
	<circle style="fill:#32BEA6;" cx="55" cy="55" r="55"/>
	<g>
		<g>
			<path style="fill:#F0F1F1;" d="M82.255,50.373c5.467-5.467,5.467-14.332,0-19.799l-2.828-2.828
				c-5.467-5.467-14.332-5.467-19.799,0L27.101,60.272c-5.467,5.467-5.467,14.332,0,19.799l2.828,2.828
				c5.467,5.467,14.332,5.467,19.799,0L82.255,50.373z"/>
		</g>
		<g>
			<path style="fill:#FFFFFF;" d="M79.427,27.745c-5.467-5.467-14.332-5.467-19.799,0L27.101,60.272
				c-5.468,5.467-5.468,14.332,0,19.799l1.258,1.257l52.326-52.326L79.427,27.745z"/>
		</g>
		<g>
			<path style="fill:#DF2C2C;" d="M82.255,30.574l-2.828-2.828c-5.467-5.467-14.332-5.467-19.799,0L43.364,44.009l22.627,22.627
				l16.263-16.263C87.722,44.905,87.722,36.041,82.255,30.574z"/>
		</g>
		<g>
			<path style="fill:#FA5655;" d="M79.427,27.745c-5.467-5.467-14.332-5.467-19.799,0L43.364,44.009l11.157,11.157l26.163-26.163
				L79.427,27.745z"/>
		</g>
	</g>
</g>
</svg>
