<?xml version="1.0" encoding="iso-8859-1"?>
<!-- Generator: Adobe Illustrator 17.1.0, SVG Export Plug-In . SVG Version: 6.00 Build 0)  -->
<!DOCTYPE svg PUBLIC "-//W3C//DTD SVG 1.0//EN" "http://www.w3.org/TR/2001/REC-SVG-20010904/DTD/svg10.dtd">
<svg version="1.0" xmlns="http://www.w3.org/2000/svg" xmlns:xlink="http://www.w3.org/1999/xlink" x="0px" y="0px" width="110px"
	 height="110px" viewBox="0 0 110 110" style="enable-background:new 0 0 110 110;" xml:space="preserve">
<g id="Artboard">
</g>
<g id="Multicolor">
	<circle style="fill:#32BEA6;" cx="55" cy="55" r="55"/>
	<g>
		<g>
			<path style="fill:#E2E4E5;" d="M79,27c0-2.209-1.791-4-4-4H35c-2.209,0-4,1.791-4,4v56c0,2.209,1.791,4,4,4h40
				c2.209,0,4-1.791,4-4V27z"/>
		</g>
		<g>
			<path style="fill:#F0F1F1;" d="M79,32.35V27c0-2.209-1.791-4-4-4H35c-2.209,0-4,1.791-4,4v53.35L79,32.35z"/>
		</g>
		<g>
			<path style="fill:#FFFFFF;" d="M52,33c0,2.21-1.79,4-4,4h-8c-2.21,0-4-1.79-4-4s1.79-4,4-4h8C50.21,29,52,30.79,52,33z"/>
		</g>
		<g>
			<path style="fill:#FA5655;" d="M44,29v8h-4c-2.21,0-4-1.79-4-4s1.79-4,4-4H44z"/>
		</g>
		<g>
			<path style="fill:#FFFFFF;" d="M74,33c0,2.21-1.79,4-4,4h-8c-2.21,0-4-1.79-4-4s1.79-4,4-4h8C72.21,29,74,30.79,74,33z"/>
		</g>
		<g>
			<path style="fill:#FA5655;" d="M66,29v8h-4c-2.21,0-4-1.79-4-4s1.79-4,4-4H66z"/>
		</g>
		<g>
			<path style="fill:#FFFFFF;" d="M52,47.667c0,2.21-1.79,4-4,4h-8c-2.21,0-4-1.79-4-4s1.79-4,4-4h8
				C50.21,43.667,52,45.457,52,47.667z"/>
		</g>
		<g>
			<path style="fill:#FA5655;" d="M44,43.667v8h-4c-2.21,0-4-1.79-4-4s1.79-4,4-4H44z"/>
		</g>
		<g>
			<path style="fill:#FFFFFF;" d="M74,47.667c0,2.21-1.79,4-4,4h-8c-2.21,0-4-1.79-4-4s1.79-4,4-4h8
				C72.21,43.667,74,45.457,74,47.667z"/>
		</g>
		<g>
			<path style="fill:#FA5655;" d="M66,43.667v8h-4c-2.21,0-4-1.79-4-4s1.79-4,4-4H66z"/>
		</g>
		<g>
			<path style="fill:#FFFFFF;" d="M52,62.333c0,2.21-1.79,4-4,4h-8c-2.21,0-4-1.79-4-4c0-2.21,1.79-4,4-4h8
				C50.21,58.333,52,60.123,52,62.333z"/>
		</g>
		<g>
			<path style="fill:#FA5655;" d="M44,58.333v8h-4c-2.21,0-4-1.79-4-4c0-2.21,1.79-4,4-4H44z"/>
		</g>
		<g>
			<path style="fill:#FFFFFF;" d="M74,62.333c0,2.21-1.79,4-4,4h-8c-2.21,0-4-1.79-4-4c0-2.21,1.79-4,4-4h8
				C72.21,58.333,74,60.123,74,62.333z"/>
		</g>
		<g>
			<path style="fill:#FA5655;" d="M66,58.333v8h-4c-2.21,0-4-1.79-4-4c0-2.21,1.79-4,4-4H66z"/>
		</g>
		<g>
			<path style="fill:#FFFFFF;" d="M52,77c0,2.21-1.79,4-4,4h-8c-2.21,0-4-1.79-4-4s1.79-4,4-4h8C50.21,73,52,74.79,52,77z"/>
		</g>
		<g>
			<path style="fill:#FA5655;" d="M44,73v8h-4c-2.21,0-4-1.79-4-4s1.79-4,4-4H44z"/>
		</g>
		<g>
			<g>
				<path style="fill:#CFD3D4;" d="M74,77c0,2.21-1.79,4-4,4h-8c-2.21,0-4-1.79-4-4s1.79-4,4-4h8C72.21,73,74,74.79,74,77z"/>
			</g>
		</g>
	</g>
</g>
</svg>
