<?xml version="1.0" encoding="iso-8859-1"?>
<!-- Generator: Adobe Illustrator 17.1.0, SVG Export Plug-In . SVG Version: 6.00 Build 0)  -->
<!DOCTYPE svg PUBLIC "-//W3C//DTD SVG 1.0//EN" "http://www.w3.org/TR/2001/REC-SVG-20010904/DTD/svg10.dtd">
<svg version="1.0" xmlns="http://www.w3.org/2000/svg" xmlns:xlink="http://www.w3.org/1999/xlink" x="0px" y="0px" width="110px"
	 height="110px" viewBox="0 0 110 110" style="enable-background:new 0 0 110 110;" xml:space="preserve">
<g id="Artboard">
</g>
<g id="Multicolor">
	<circle style="fill:#FABC3D;" cx="55" cy="55" r="55"/>
	<g>
		<path style="fill:#0484AB;" d="M43,23L31,35v16h4v4h-4v29c0,1.657,1.343,3,3,3h42c1.657,0,3-1.343,3-3V55h-4V39l4,0V23H43z"/>
		<polygon style="fill:#059BBF;" points="79,23 43,23 31,35 31,51 35,51 35,55 31,55 31,71.513 79,23.513 		"/>
		<path style="fill:#FFFFFF;" d="M69,39c0,0.552-0.448,1-1,1h-2c-0.552,0-1-0.448-1-1V29c0-0.552,0.448-1,1-1h2c0.552,0,1,0.448,1,1
			V39z"/>
		<path style="fill:#FFFFFF;" d="M61,39c0,0.552-0.448,1-1,1h-2c-0.552,0-1-0.448-1-1V29c0-0.552,0.448-1,1-1h2c0.552,0,1,0.448,1,1
			V39z"/>
		<path style="fill:#FFFFFF;" d="M53,39c0,0.552-0.448,1-1,1h-2c-0.552,0-1-0.448-1-1V29c0-0.552,0.448-1,1-1h2c0.552,0,1,0.448,1,1
			V39z"/>
		<path style="fill:#FFFFFF;" d="M45,47c0,0.552-0.448,1-1,1h-2c-0.552,0-1-0.448-1-1V37c0-0.552,0.448-1,1-1h2c0.552,0,1,0.448,1,1
			V47z"/>
		<g>
			<path style="fill:#6FDAF1;" d="M49.901,72.2c0.092,0.149,0.256,0.213,0.405,0.213c0.17,0,0.316-0.082,0.316-0.217
				c0-0.128-0.092-0.242-0.274-0.242h-0.391v-0.508h0.377c0.164,0,0.221-0.203,0.149-0.309c-0.114-0.178-0.423-0.132-0.58,0.046
				l-0.37-0.327c0.206-0.256,0.508-0.409,0.793-0.409c0.309,0,0.622,0.106,0.757,0.441c0.099,0.249,0.078,0.608-0.178,0.768
				c0.256,0.131,0.338,0.395,0.338,0.59c0,0.491-0.452,0.79-0.914,0.79c-0.324,0-0.654-0.139-0.843-0.455L49.901,72.2z"/>
			<path style="fill:#6FDAF1;" d="M51.458,71.02c0.206-0.395,0.547-0.572,0.893-0.572c0.554,0,0.842,0.38,0.842,0.775
				c0,0.235-0.085,0.491-0.313,0.704l-0.554,0.526l0.295-0.061h0.569v0.604h-1.621l-0.16-0.331l1.024-1.152
				c0.338-0.38-0.22-0.743-0.498-0.234L51.458,71.02z"/>
			<path style="fill:#6FDAF1;" d="M55.45,71.229c-0.139-0.338-0.7-0.26-0.7,0.071v0.864c0,0.395,0.736,0.391,0.736,0v-0.092h-0.402
				v-0.534h1.013v0.626c0,0.58-0.483,0.871-0.988,0.871c-0.498,0-0.996-0.292-0.996-0.871v-0.864c0-0.569,0.498-0.854,0.996-0.854
				c0.327,0,0.7,0.135,0.875,0.537L55.45,71.229z"/>
			<path style="fill:#6FDAF1;" d="M56.328,71.311c0-0.579,0.519-0.864,1.042-0.864c0.522,0,1.045,0.288,1.045,0.864v0.86
				c0,0.576-0.519,0.864-1.042,0.864s-1.045-0.288-1.045-0.864V71.311z M56.965,72.171c0,0.185,0.206,0.274,0.409,0.274
				s0.405-0.092,0.405-0.274v-0.86c0-0.195-0.21-0.284-0.416-0.284c-0.199,0-0.398,0.1-0.398,0.284V72.171z"/>
			<path style="fill:#6FDAF1;" d="M59.676,72.204c0.252,0.306,0.807,0.32,0.825,0.05c0.007-0.142-0.224-0.224-0.43-0.252
				c-0.405-0.064-0.775-0.32-0.775-0.8c0-0.494,0.448-0.754,0.91-0.754c0.306,0,0.601,0.085,0.86,0.402l-0.416,0.32
				c-0.263-0.281-0.715-0.27-0.726,0.021c0.007,0.121,0.139,0.192,0.334,0.234c0.448,0.082,0.896,0.238,0.867,0.857
				c-0.021,0.487-0.533,0.754-0.995,0.754c-0.302,0-0.622-0.153-0.857-0.455L59.676,72.204z"/>
			<path style="fill:#6FDAF1;" d="M62.339,70.483c0.504,0,0.978,0.256,0.978,0.843v0.846c0,0.58-0.473,0.832-0.978,0.829h-0.942
				v-2.517H62.339z M62.36,72.403c0.217,0,0.316-0.11,0.316-0.274v-0.786c0-0.164-0.103-0.267-0.316-0.267h-0.323v1.326H62.36z"/>
			<path style="fill:#6FDAF1;" d="M66.139,72.47c-0.21,0.409-0.59,0.565-0.907,0.565c-0.494,0-0.992-0.288-0.992-0.86v-0.868
				c0-0.569,0.498-0.86,1.002-0.86c0.31,0,0.683,0.131,0.885,0.58l-0.519,0.209c-0.17-0.312-0.732-0.242-0.732,0.071v0.868
				c0,0.302,0.569,0.387,0.708,0.039L66.139,72.47z"/>
			<path style="fill:#6FDAF1;" d="M68.485,73h-0.683l-0.164-0.505h-0.672L66.811,73h-0.683l0.878-2.517h0.58L68.485,73z
				 M67.486,71.93l-0.174-0.736h-0.018l-0.185,0.736H67.486z"/>
			<path style="fill:#6FDAF1;" d="M69.406,72.2h-0.114V73h-0.643v-2.517h1.006c0.519,0,0.921,0.238,0.935,0.828
				c0,0.466-0.188,0.729-0.494,0.825L70.782,73h-0.792L69.406,72.2z M69.666,71.652c0.402,0,0.402-0.576,0-0.576h-0.374v0.576
				H69.666z"/>
			<path style="fill:#6FDAF1;" d="M71.884,70.483c0.505,0,0.978,0.256,0.978,0.843v0.846c0,0.58-0.473,0.832-0.978,0.829h-0.942
				v-2.517H71.884z M71.905,72.403c0.217,0,0.316-0.11,0.316-0.274v-0.786c0-0.164-0.103-0.267-0.316-0.267h-0.324v1.326H71.905z"/>
		</g>
		<g>
			<path style="fill:#6FDAF1;" d="M61.538,78.453h-0.234V79h-0.608v-0.547h-0.885l-0.203-0.374l1.173-1.596h0.522v1.454h0.234
				V78.453z M60.742,77.944l0.007-0.643l-0.452,0.643H60.742z"/>
			<path style="fill:#6FDAF1;" d="M62.196,78.214c0.238,0.292,0.65,0.195,0.665-0.1c0.015-0.256-0.139-0.374-0.331-0.374
				c-0.146,0-0.295,0.057-0.409,0.21H61.83v-1.468h1.493v0.558h-0.985v0.285c0.611-0.224,1.145,0.167,1.145,0.775
				c0,0.466-0.292,0.935-0.949,0.935c-0.285,0-0.587-0.135-0.79-0.466L62.196,78.214z"/>
			<path style="fill:#6FDAF1;" d="M64.411,76.483h0.636l0.53,1.23l0.533-1.23h0.636V79h-0.64l0.003-0.725l0.039-0.509l-0.021-0.003
				l-0.331,0.864H65.36l-0.338-0.864l-0.018,0.003l0.043,0.509V79h-0.636V76.483z"/>
			<path style="fill:#6FDAF1;" d="M67.08,77.311c0-0.579,0.519-0.864,1.042-0.864c0.522,0,1.045,0.288,1.045,0.864v0.86
				c0,0.576-0.519,0.864-1.042,0.864s-1.045-0.288-1.045-0.864V77.311z M67.716,78.171c0,0.185,0.206,0.274,0.409,0.274
				s0.405-0.092,0.405-0.274v-0.86c0-0.195-0.21-0.284-0.416-0.284c-0.199,0-0.398,0.1-0.398,0.284V78.171z"/>
			<path style="fill:#6FDAF1;" d="M69.888,79.249l-0.562-0.203l1.049-2.763l0.558,0.196L69.888,79.249z"/>
			<path style="fill:#6FDAF1;" d="M71.478,78.204c0.252,0.306,0.807,0.32,0.825,0.05c0.007-0.142-0.224-0.224-0.43-0.252
				c-0.405-0.064-0.775-0.32-0.775-0.8c0-0.494,0.448-0.754,0.91-0.754c0.306,0,0.601,0.085,0.86,0.402l-0.416,0.32
				c-0.263-0.281-0.715-0.27-0.726,0.021c0.007,0.121,0.139,0.192,0.334,0.234c0.448,0.082,0.896,0.238,0.867,0.857
				c-0.021,0.487-0.533,0.754-0.995,0.754c-0.302,0-0.622-0.153-0.857-0.455L71.478,78.204z"/>
		</g>
	</g>
</g>
</svg>
