<?xml version="1.0" encoding="iso-8859-1"?>
<!-- Generator: Adobe Illustrator 17.1.0, SVG Export Plug-In . SVG Version: 6.00 Build 0)  -->
<!DOCTYPE svg PUBLIC "-//W3C//DTD SVG 1.0//EN" "http://www.w3.org/TR/2001/REC-SVG-20010904/DTD/svg10.dtd">
<svg version="1.0" xmlns="http://www.w3.org/2000/svg" xmlns:xlink="http://www.w3.org/1999/xlink" x="0px" y="0px" width="110px"
	 height="110px" viewBox="0 0 110 110" style="enable-background:new 0 0 110 110;" xml:space="preserve">
<g id="Artboard" style="display:none;">
	
		<rect x="-1224.5" y="-162.5" style="display:inline;fill:#808080;stroke:#000000;stroke-miterlimit:10;" width="1392" height="1369"/>
</g>
<g id="R-Multicolor">
	<circle style="fill:#25B7D3;" cx="55" cy="55" r="55"/>
	<g>
		<g>
			<path style="fill:#DF2C2C;" d="M83,81c0,3.314-2.686,6-6,6H33c-2.209,0-4-1.791-4-4V27c0-2.209,1.791-4,4-4h44
				c3.314,0,6,2.686,6,6V81z"/>
		</g>
		<g>
			<path style="fill:#FA5655;" d="M70.38,23H33c-2.209,0-4,1.791-4,4v37.38L70.38,23z"/>
		</g>
		<path style="fill:#FBE158;" d="M73.986,54.216c3.294-3.294,3.997-7.931,1.57-10.358c-2.427-2.427-7.065-1.724-10.358,1.569
			c-2.701,2.701-3.656,6.304-2.575,8.853l-3.016,3.016l-3.52-3.52c1.387-1.387,1.387-3.636,0-5.022l-8.135-8.135
			c-0.361-0.361-0.947-0.361-1.308,0c-0.34,0.34-0.363,0.884-0.052,1.251l6.069,7.173c0.162,0.191,0.15,0.475-0.027,0.653
			c-0.177,0.177-0.461,0.189-0.653,0.027l-7.173-6.069c-0.367-0.311-0.911-0.288-1.251,0.052l-0.052,0.052
			c-0.34,0.34-0.363,0.884-0.052,1.251l6.069,7.172c0.162,0.192,0.15,0.476-0.027,0.653c-0.177,0.177-0.461,0.189-0.653,0.027
			l-7.173-6.069c-0.367-0.311-0.911-0.288-1.251,0.052c-0.361,0.361-0.361,0.946,0,1.308l8.135,8.135
			c1.387,1.387,3.635,1.387,5.022,0l3.52,3.52l-9.162,9.162c-0.693,0.693-0.693,1.818,0,2.511s1.818,0.693,2.511,0l9.162-9.162
			l9.036,9.036c0.693,0.694,1.818,0.694,2.511,0c0.694-0.693,0.694-1.817,0-2.511l-9.036-9.036l3.016-3.016
			C67.682,57.872,71.285,56.917,73.986,54.216z"/>
		<g>
			<rect x="27" y="23" style="fill:#3E3E3F;" width="8" height="64"/>
		</g>
		<g>
			<polygon style="fill:#5B5C5F;" points="35,58.38 35,23 27,23 27,66.38 			"/>
		</g>
	</g>
</g>
<g id="Multicolor" style="display:none;">
	<g style="display:inline;">
		<g>
			<path style="fill:#DF2C2C;" d="M83,81c0,3.314-2.686,6-6,6H33c-2.209,0-4-1.791-4-4V27c0-2.209,1.791-4,4-4h44
				c3.314,0,6,2.686,6,6V81z"/>
		</g>
		<g>
			<path style="fill:#FA5655;" d="M70.38,23H33c-2.209,0-4,1.791-4,4v37.38L70.38,23z"/>
		</g>
		<path style="fill:#FBE158;" d="M73.986,54.216c3.294-3.294,3.997-7.931,1.57-10.358c-2.427-2.427-7.065-1.724-10.358,1.569
			c-2.701,2.701-3.656,6.304-2.575,8.853l-3.016,3.016l-3.52-3.52c1.387-1.387,1.387-3.636,0-5.022l-8.135-8.135
			c-0.361-0.361-0.947-0.361-1.308,0c-0.34,0.34-0.363,0.884-0.052,1.251l6.069,7.173c0.162,0.191,0.15,0.475-0.027,0.653
			c-0.177,0.177-0.461,0.189-0.653,0.027l-7.173-6.069c-0.367-0.311-0.911-0.288-1.251,0.052l-0.052,0.052
			c-0.34,0.34-0.363,0.884-0.052,1.251l6.069,7.172c0.162,0.192,0.15,0.476-0.027,0.653c-0.177,0.177-0.461,0.189-0.653,0.027
			l-7.173-6.069c-0.367-0.311-0.911-0.288-1.251,0.052c-0.361,0.361-0.361,0.946,0,1.308l8.135,8.135
			c1.387,1.387,3.635,1.387,5.022,0l3.52,3.52l-9.162,9.162c-0.693,0.693-0.693,1.818,0,2.511s1.818,0.693,2.511,0l9.162-9.162
			l9.036,9.036c0.693,0.694,1.818,0.694,2.511,0c0.694-0.693,0.694-1.817,0-2.511l-9.036-9.036l3.016-3.016
			C67.682,57.872,71.285,56.917,73.986,54.216z"/>
		<g>
			<rect x="27" y="23" style="fill:#3E3E3F;" width="8" height="64"/>
		</g>
		<g>
			<polygon style="fill:#5B5C5F;" points="35,58.38 35,23 27,23 27,66.38 			"/>
		</g>
	</g>
</g>
<g id="Blue" style="display:none;">
	<g style="display:inline;">
		<g>
			<path style="fill:#0081A1;" d="M83,81c0,3.314-2.687,6-6,6H33c-2.209,0-4-1.79-4-4V27c0-2.209,1.791-4,4-4h44
				c3.313,0,6,2.687,6,6V81z"/>
		</g>
		<g>
			<path style="fill:#009FC7;" d="M70.38,23H33c-2.209,0-4,1.791-4,4v37.38L70.38,23z"/>
		</g>
		<path style="fill:#FFFFFF;" d="M73.986,54.216c3.293-3.294,3.996-7.931,1.569-10.358c-2.427-2.427-7.065-1.724-10.358,1.569
			c-2.701,2.701-3.656,6.304-2.574,8.853l-3.017,3.016l-3.52-3.52c1.387-1.387,1.387-3.636,0-5.023l-8.136-8.135
			c-0.36-0.361-0.946-0.361-1.308,0c-0.34,0.339-0.362,0.884-0.052,1.251l6.069,7.173c0.161,0.191,0.15,0.475-0.027,0.653
			c-0.177,0.177-0.461,0.189-0.652,0.027l-7.173-6.069c-0.367-0.311-0.911-0.288-1.252,0.052l-0.052,0.052
			c-0.34,0.34-0.362,0.884-0.052,1.251l6.069,7.172c0.162,0.192,0.149,0.476-0.027,0.653c-0.178,0.177-0.461,0.189-0.653,0.027
			l-7.172-6.069c-0.367-0.311-0.911-0.288-1.252,0.052c-0.36,0.361-0.36,0.946,0,1.308l8.135,8.135c1.388,1.387,3.636,1.387,5.024,0
			l3.519,3.52l-9.162,9.162c-0.693,0.693-0.693,1.818,0,2.511c0.693,0.693,1.817,0.693,2.511,0l9.162-9.162l9.036,9.036
			c0.693,0.694,1.817,0.694,2.511,0c0.693-0.693,0.693-1.817,0-2.511l-9.036-9.036l3.017-3.017
			C67.682,57.872,71.285,56.917,73.986,54.216z"/>
		<g>
			<rect x="27" y="23" style="fill:#0C333D;" width="8" height="64"/>
		</g>
		<g>
			<polygon style="fill:#0F6175;" points="35,58.38 35,23 27,23 27,66.38 			"/>
		</g>
	</g>
</g>
<g id="R-Blue" style="display:none;">
	<circle style="display:inline;fill:#81D2EB;" cx="55" cy="55" r="55"/>
	<g style="display:inline;">
		<g>
			<path style="fill:#0081A1;" d="M83,81c0,3.314-2.687,6-6,6H33c-2.209,0-4-1.791-4-4V27c0-2.209,1.791-4,4-4h44
				c3.313,0,6,2.687,6,6V81z"/>
		</g>
		<g>
			<path style="fill:#009FC7;" d="M70.38,23H33c-2.209,0-4,1.791-4,4v37.38L70.38,23z"/>
		</g>
		<path style="fill:#FFFFFF;" d="M73.986,54.216c3.293-3.294,3.996-7.931,1.569-10.358c-2.427-2.427-7.065-1.724-10.358,1.569
			c-2.701,2.701-3.656,6.304-2.574,8.853l-3.017,3.016l-3.52-3.52c1.387-1.387,1.387-3.636,0-5.023l-8.136-8.135
			c-0.36-0.361-0.946-0.361-1.308,0c-0.34,0.339-0.362,0.884-0.052,1.251l6.069,7.173c0.161,0.191,0.15,0.475-0.027,0.653
			c-0.177,0.177-0.461,0.189-0.652,0.027l-7.173-6.069c-0.367-0.311-0.911-0.288-1.252,0.052l-0.052,0.052
			c-0.34,0.34-0.362,0.884-0.052,1.251l6.069,7.172c0.162,0.192,0.149,0.476-0.027,0.653c-0.178,0.177-0.461,0.189-0.653,0.027
			l-7.172-6.069c-0.367-0.311-0.911-0.288-1.252,0.052c-0.36,0.361-0.36,0.946,0,1.308l8.135,8.135c1.388,1.387,3.636,1.387,5.024,0
			l3.519,3.52l-9.162,9.162c-0.693,0.693-0.693,1.818,0,2.511c0.693,0.693,1.817,0.693,2.511,0l9.162-9.162l9.036,9.036
			c0.693,0.694,1.817,0.694,2.511,0c0.693-0.693,0.693-1.817,0-2.511l-9.036-9.036l3.017-3.017
			C67.682,57.872,71.285,56.917,73.986,54.216z"/>
		<g>
			<rect x="27" y="23" style="fill:#0C333D;" width="8" height="64"/>
		</g>
		<g>
			<polygon style="fill:#0F6175;" points="35,58.38 35,23 27,23 27,66.38 			"/>
		</g>
	</g>
</g>
<g id="Green" style="display:none;">
	<g style="display:inline;">
		<g>
			<path style="fill:#009687;" d="M83,81c0,3.314-2.687,6-6,6H33c-2.209,0-4-1.79-4-4V27c0-2.209,1.791-4,4-4h44
				c3.313,0,6,2.687,6,6V81z"/>
		</g>
		<g>
			<path style="fill:#00B8A5;" d="M70.38,23H33c-2.209,0-4,1.791-4,4v37.38L70.38,23z"/>
		</g>
		<path style="fill:#FFFFFF;" d="M73.986,54.216c3.293-3.294,3.996-7.931,1.569-10.358c-2.427-2.427-7.065-1.724-10.358,1.569
			c-2.701,2.701-3.656,6.304-2.574,8.853l-3.017,3.016l-3.52-3.519c1.387-1.387,1.387-3.636,0-5.023l-8.136-8.135
			c-0.36-0.361-0.946-0.361-1.308,0c-0.34,0.339-0.362,0.884-0.052,1.251l6.069,7.173c0.161,0.191,0.15,0.475-0.027,0.653
			c-0.177,0.177-0.461,0.189-0.652,0.027l-7.173-6.069c-0.367-0.311-0.911-0.288-1.252,0.052l-0.052,0.052
			c-0.34,0.34-0.362,0.884-0.052,1.251l6.069,7.172c0.162,0.192,0.149,0.476-0.027,0.653c-0.178,0.177-0.461,0.189-0.653,0.027
			l-7.172-6.069c-0.367-0.311-0.911-0.288-1.252,0.052c-0.36,0.361-0.36,0.946,0,1.308l8.135,8.135c1.388,1.387,3.636,1.387,5.024,0
			l3.519,3.52l-9.162,9.162c-0.693,0.693-0.693,1.818,0,2.511c0.693,0.693,1.817,0.693,2.511,0l9.162-9.162l9.036,9.036
			c0.693,0.694,1.817,0.694,2.511,0c0.693-0.693,0.693-1.817,0-2.511l-9.036-9.036l3.017-3.017
			C67.682,57.872,71.285,56.917,73.986,54.216z"/>
		<g>
			<rect x="27" y="23" style="fill:#0A3631;" width="8" height="64"/>
		</g>
		<g>
			<polygon style="fill:#14635B;" points="35,58.38 35,23 27,23 27,66.38 			"/>
		</g>
	</g>
</g>
<g id="R-Green" style="display:none;">
	<circle style="display:inline;fill:#77E0C4;" cx="55" cy="55" r="55"/>
	<g style="display:inline;">
		<g>
			<path style="fill:#009687;" d="M83,81c0,3.314-2.687,6-6,6H33c-2.209,0-4-1.79-4-4V27c0-2.209,1.791-4,4-4h44
				c3.313,0,6,2.687,6,6V81z"/>
		</g>
		<g>
			<path style="fill:#00B8A5;" d="M70.38,23H33c-2.209,0-4,1.791-4,4v37.38L70.38,23z"/>
		</g>
		<path style="fill:#FFFFFF;" d="M73.986,54.216c3.293-3.294,3.996-7.931,1.569-10.358c-2.427-2.427-7.066-1.724-10.358,1.569
			c-2.701,2.701-3.656,6.304-2.574,8.853l-3.017,3.016l-3.52-3.52c1.387-1.387,1.387-3.636,0-5.023l-8.136-8.135
			c-0.36-0.361-0.946-0.361-1.308,0c-0.34,0.339-0.362,0.884-0.052,1.251l6.069,7.173c0.161,0.191,0.15,0.475-0.027,0.653
			c-0.177,0.177-0.461,0.189-0.652,0.027l-7.173-6.069c-0.367-0.311-0.911-0.288-1.252,0.052l-0.052,0.052
			c-0.34,0.34-0.362,0.884-0.052,1.251l6.069,7.172c0.162,0.192,0.149,0.476-0.027,0.653c-0.178,0.177-0.461,0.189-0.653,0.027
			l-7.172-6.069c-0.367-0.311-0.911-0.288-1.252,0.052c-0.36,0.361-0.36,0.946,0,1.308l8.135,8.135c1.388,1.387,3.636,1.387,5.023,0
			l3.52,3.52l-9.162,9.162c-0.693,0.693-0.693,1.818,0,2.511c0.693,0.693,1.817,0.693,2.511,0l9.162-9.162l9.036,9.036
			c0.693,0.694,1.817,0.694,2.511,0c0.693-0.693,0.693-1.817,0-2.511l-9.036-9.036l3.017-3.017
			C67.682,57.872,71.285,56.917,73.986,54.216z"/>
		<g>
			<rect x="27" y="23" style="fill:#0A3631;" width="8" height="64"/>
		</g>
		<g>
			<polygon style="fill:#14635B;" points="35,58.38 35,23 27,23 27,66.38 			"/>
		</g>
	</g>
</g>
<g id="Red" style="display:none;">
	<g style="display:inline;">
		<g>
			<path style="fill:#C23023;" d="M83,81c0,3.314-2.687,6-6,6H33c-2.209,0-4-1.79-4-4V27c0-2.209,1.791-4,4-4h44
				c3.313,0,6,2.687,6,6V81z"/>
		</g>
		<g>
			<path style="fill:#E54B44;" d="M70.38,23H33c-2.209,0-4,1.791-4,4v37.38L70.38,23z"/>
		</g>
		<path style="fill:#FFFFFF;" d="M73.986,54.216c3.293-3.294,3.996-7.931,1.569-10.358c-2.427-2.427-7.066-1.724-10.358,1.569
			c-2.701,2.701-3.656,6.304-2.574,8.853l-3.017,3.016l-3.52-3.519c1.387-1.387,1.387-3.636,0-5.023l-8.136-8.135
			c-0.36-0.361-0.946-0.361-1.308,0c-0.34,0.339-0.362,0.884-0.052,1.251l6.069,7.173c0.161,0.191,0.15,0.475-0.027,0.653
			c-0.177,0.177-0.461,0.189-0.652,0.027l-7.173-6.069c-0.367-0.311-0.911-0.288-1.252,0.052l-0.052,0.052
			c-0.34,0.34-0.362,0.884-0.052,1.252l6.069,7.172c0.162,0.192,0.149,0.476-0.027,0.653c-0.178,0.177-0.461,0.189-0.653,0.027
			l-7.172-6.069c-0.367-0.311-0.911-0.288-1.252,0.052c-0.36,0.361-0.36,0.946,0,1.308l8.135,8.135c1.388,1.387,3.636,1.387,5.023,0
			l3.52,3.52l-9.162,9.162c-0.693,0.693-0.693,1.818,0,2.511c0.693,0.693,1.817,0.693,2.511,0l9.162-9.162l9.036,9.036
			c0.693,0.694,1.817,0.694,2.511,0c0.693-0.693,0.693-1.817,0-2.511l-9.036-9.036l3.017-3.017
			C67.682,57.872,71.285,56.918,73.986,54.216z"/>
		<g>
			<rect x="27" y="23" style="fill:#4A1410;" width="8" height="64"/>
		</g>
		<g>
			<polygon style="fill:#7D261E;" points="35,58.38 35,23 27,23 27,66.38 			"/>
		</g>
	</g>
</g>
<g id="R-Red" style="display:none;">
	<circle style="display:inline;fill:#FABBAF;" cx="55" cy="55" r="55"/>
	<g style="display:inline;">
		<g>
			<path style="fill:#C23023;" d="M83,81c0,3.314-2.687,6-6,6H33c-2.209,0-4-1.79-4-4V27c0-2.209,1.791-4,4-4h44
				c3.313,0,6,2.687,6,6V81z"/>
		</g>
		<g>
			<path style="fill:#E54B44;" d="M70.38,23H33c-2.209,0-4,1.791-4,4v37.38L70.38,23z"/>
		</g>
		<path style="fill:#FFFFFF;" d="M73.986,54.216c3.293-3.294,3.996-7.931,1.569-10.358c-2.427-2.427-7.066-1.724-10.358,1.569
			c-2.701,2.701-3.656,6.304-2.574,8.853l-3.017,3.016l-3.52-3.519c1.387-1.387,1.387-3.636,0-5.023l-8.136-8.135
			c-0.36-0.361-0.946-0.361-1.308,0c-0.34,0.339-0.362,0.884-0.052,1.251l6.069,7.173c0.161,0.191,0.15,0.475-0.027,0.653
			c-0.177,0.177-0.461,0.189-0.652,0.027l-7.173-6.069c-0.367-0.311-0.911-0.288-1.252,0.052l-0.052,0.052
			c-0.34,0.34-0.362,0.884-0.052,1.252l6.069,7.172c0.162,0.192,0.149,0.476-0.027,0.653c-0.178,0.177-0.461,0.189-0.653,0.027
			l-7.172-6.069c-0.367-0.311-0.911-0.288-1.252,0.052c-0.36,0.361-0.36,0.946,0,1.308l8.135,8.135c1.388,1.387,3.636,1.387,5.023,0
			l3.52,3.52l-9.162,9.162c-0.693,0.693-0.693,1.818,0,2.511c0.693,0.693,1.817,0.693,2.511,0l9.162-9.162l9.036,9.036
			c0.693,0.694,1.817,0.694,2.511,0c0.693-0.693,0.693-1.817,0-2.511l-9.036-9.036l3.017-3.017
			C67.682,57.872,71.285,56.918,73.986,54.216z"/>
		<g>
			<rect x="27" y="23" style="fill:#4A1410;" width="8" height="64"/>
		</g>
		<g>
			<polygon style="fill:#7D261E;" points="35,58.38 35,23 27,23 27,66.38 			"/>
		</g>
	</g>
</g>
<g id="Yellow" style="display:none;">
	<g style="display:inline;">
		<g>
			<path style="fill:#E07000;" d="M83,81c0,3.314-2.687,6-6,6H33c-2.209,0-4-1.79-4-4V27c0-2.209,1.791-4,4-4h44
				c3.313,0,6,2.687,6,6V81z"/>
		</g>
		<g>
			<path style="fill:#FA9200;" d="M70.38,23H33c-2.209,0-4,1.791-4,4v37.38L70.38,23z"/>
		</g>
		<path style="fill:#FFFFFF;" d="M73.986,54.216c3.293-3.294,3.996-7.931,1.569-10.358c-2.427-2.427-7.066-1.724-10.358,1.569
			c-2.701,2.701-3.656,6.304-2.574,8.853l-3.017,3.016l-3.52-3.52c1.387-1.387,1.387-3.636,0-5.023l-8.136-8.135
			c-0.36-0.361-0.946-0.361-1.308,0c-0.34,0.339-0.362,0.884-0.052,1.251l6.069,7.173c0.161,0.191,0.15,0.475-0.027,0.653
			c-0.177,0.177-0.461,0.189-0.652,0.027l-7.173-6.069c-0.367-0.311-0.911-0.288-1.252,0.052l-0.052,0.052
			c-0.34,0.34-0.362,0.884-0.052,1.251l6.069,7.172c0.162,0.192,0.149,0.476-0.027,0.653c-0.178,0.177-0.461,0.189-0.653,0.027
			l-7.172-6.069c-0.367-0.311-0.911-0.288-1.252,0.052c-0.36,0.361-0.36,0.946,0,1.308l8.135,8.135c1.388,1.387,3.636,1.387,5.023,0
			l3.52,3.52l-9.162,9.162c-0.693,0.693-0.693,1.818,0,2.511c0.693,0.693,1.817,0.693,2.511,0l9.162-9.162l9.036,9.036
			c0.693,0.694,1.817,0.694,2.511,0c0.693-0.693,0.693-1.817,0-2.511l-9.036-9.036l3.017-3.017
			C67.682,57.872,71.285,56.917,73.986,54.216z"/>
		<g>
			<rect x="27" y="23" style="fill:#3D320C;" width="8" height="64"/>
		</g>
		<g>
			<polygon style="fill:#66510D;" points="35,58.38 35,23 27,23 27,66.38 			"/>
		</g>
	</g>
</g>
<g id="R-Yellow" style="display:none;">
	<circle style="display:inline;fill:#FFD75E;" cx="55" cy="55" r="55"/>
	<g style="display:inline;">
		<g>
			<path style="fill:#E07000;" d="M83,81c0,3.314-2.687,6-6,6H33c-2.209,0-4-1.79-4-4V27c0-2.209,1.791-4,4-4h44
				c3.313,0,6,2.687,6,6V81z"/>
		</g>
		<g>
			<path style="fill:#FA9200;" d="M70.38,23H33c-2.209,0-4,1.791-4,4v37.38L70.38,23z"/>
		</g>
		<path style="fill:#FFFFFF;" d="M73.986,54.216c3.293-3.294,3.996-7.931,1.569-10.358c-2.427-2.427-7.065-1.724-10.358,1.569
			c-2.701,2.701-3.656,6.304-2.574,8.853l-3.017,3.016l-3.52-3.52c1.387-1.387,1.387-3.636,0-5.023l-8.136-8.135
			c-0.36-0.361-0.946-0.361-1.308,0c-0.34,0.339-0.362,0.884-0.052,1.251l6.069,7.173c0.161,0.191,0.15,0.475-0.027,0.653
			c-0.177,0.177-0.461,0.189-0.652,0.027l-7.173-6.069c-0.367-0.311-0.911-0.288-1.252,0.052l-0.052,0.052
			c-0.34,0.34-0.362,0.884-0.052,1.251l6.069,7.172c0.162,0.192,0.149,0.476-0.027,0.653c-0.178,0.177-0.461,0.189-0.653,0.027
			l-7.172-6.069c-0.367-0.311-0.911-0.288-1.252,0.052c-0.36,0.361-0.36,0.946,0,1.308l8.135,8.135c1.388,1.387,3.636,1.387,5.024,0
			l3.519,3.52l-9.162,9.162c-0.693,0.693-0.693,1.818,0,2.511c0.693,0.693,1.817,0.693,2.511,0l9.162-9.162l9.036,9.036
			c0.693,0.694,1.817,0.694,2.511,0c0.693-0.693,0.693-1.817,0-2.511l-9.036-9.036l3.017-3.017
			C67.682,57.872,71.285,56.917,73.986,54.216z"/>
		<g>
			<rect x="27" y="23" style="fill:#3D320C;" width="8" height="64"/>
		</g>
		<g>
			<polygon style="fill:#66510D;" points="35,58.38 35,23 27,23 27,66.38 			"/>
		</g>
	</g>
</g>
</svg>
