<?xml version="1.0" encoding="iso-8859-1"?>
<!-- Generator: Adobe Illustrator 17.1.0, SVG Export Plug-In . SVG Version: 6.00 Build 0)  -->
<!DOCTYPE svg PUBLIC "-//W3C//DTD SVG 1.0//EN" "http://www.w3.org/TR/2001/REC-SVG-20010904/DTD/svg10.dtd">
<svg version="1.0" xmlns="http://www.w3.org/2000/svg" xmlns:xlink="http://www.w3.org/1999/xlink" x="0px" y="0px" width="110px"
	 height="110px" viewBox="0 0 110 110" style="enable-background:new 0 0 110 110;" xml:space="preserve">
<g id="Artboard">
</g>
<g id="Multicolor">
	<circle style="fill:#25B7D3;" cx="55" cy="55" r="55"/>
	<g>
		<g>
			<polygon style="fill:#FACB1B;" points="76.037,55.589 64.116,59.135 82.239,27.761 50.865,45.884 54.411,33.963 39.026,45.518 
				25.726,64.218 23,75.464 26.378,83.622 34.536,87 45.782,84.274 64.482,70.974 			"/>
		</g>
		<g>
			<polygon style="fill:#FBE158;" points="50.865,45.884 54.411,33.963 39.026,45.518 25.726,64.218 23,75.464 26.353,83.562 
				82.037,27.877 			"/>
		</g>
		<g>
			<polygon style="fill:#FBE158;" points="40.881,33.268 36.808,34.48 43,23.761 32.281,29.953 33.493,25.88 28.236,29.828 
				23.692,36.217 22.761,40.059 23.915,42.846 26.702,44 30.544,43.069 36.933,38.525 			"/>
		</g>
		<g>
			<polygon style="fill:#F99134;" points="30.106,36.717 26.829,35.625 24.206,38.247 25.299,41.525 28.577,42.618 31.199,39.995 
							"/>
		</g>
		<g>
			<polygon style="fill:#FBE158;" points="83.881,76.268 79.808,77.48 86,66.761 75.281,72.953 76.493,68.88 71.236,72.828 
				66.692,79.217 65.761,83.059 66.915,85.846 69.702,87 73.544,86.069 79.933,81.525 			"/>
		</g>
		<g>
			<polygon style="fill:#F99134;" points="73.106,79.717 69.829,78.625 67.206,81.247 68.299,84.525 71.577,85.618 74.199,82.995 
							"/>
		</g>
		<g>
			<polygon style="fill:#F37A10;" points="44.5,65.684 34.906,62.486 27.23,70.162 30.429,79.756 40.023,82.954 47.698,75.278 			
				"/>
		</g>
		<g>
			<polygon style="fill:#F99134;" points="34.906,62.486 27.23,70.162 30.38,79.61 44.354,65.636 			"/>
		</g>
	</g>
</g>
</svg>
