<?xml version="1.0" encoding="iso-8859-1"?>
<!-- Generator: Adobe Illustrator 17.1.0, SVG Export Plug-In . SVG Version: 6.00 Build 0)  -->
<!DOCTYPE svg PUBLIC "-//W3C//DTD SVG 1.0//EN" "http://www.w3.org/TR/2001/REC-SVG-20010904/DTD/svg10.dtd">
<svg version="1.0" xmlns="http://www.w3.org/2000/svg" xmlns:xlink="http://www.w3.org/1999/xlink" x="0px" y="0px" width="110px"
	 height="110px" viewBox="0 0 110 110" style="enable-background:new 0 0 110 110;" xml:space="preserve">
<g id="Artboard">
</g>
<g id="Multicolor">
	<circle style="fill:#32BEA6;" cx="55" cy="55" r="55"/>
	<g>
		<path style="fill:#FFFFFF;" d="M35.208,67.957c-0.41-0.254-0.79-0.568-1.112-0.956c-0.121-0.146-0.213-0.303-0.314-0.457
			C27.11,72.498,26.092,79.319,31.304,87h2.458C28.054,79.458,29.043,73.417,35.208,67.957z"/>
		<path style="fill:#CFD3D4;" d="M42.05,66.71l-2.14,1.32c-1.93,1.132-4.393,0.684-5.814-1.029
			c-1.548-1.866-1.414-4.462,0.164-6.121l1.77-1.72L42.05,66.71z"/>
		<polygon style="fill:#CFD3D4;" points="43.731,65.673 45,79 53,79 54.927,58.766 		"/>
		<rect x="47" y="81" style="fill:#E2E4E5;" width="4" height="6"/>
		<polygon style="fill:#F0F1F1;" points="43.731,65.673 45,79 49,79 49,62.422 		"/>
		<path style="fill:#3E3E3F;" d="M75,23c-6.011,0-10.975,4.425-11.849,10.192l10.808,13.755C81.064,47.563,87,41.959,87,35
			C87,28.373,81.627,23,75,23z"/>
		<polygon style="fill:#E2E4E5;" points="74,47 42.05,66.71 36.03,59.16 63,33 		"/>
		<path style="fill:#5B5C5F;" d="M74.97,23c-6.011,0-10.975,4.425-11.849,10.192l6.023,7.666l16.109-12.02
			C83.155,25.345,79.341,23,74.97,23z"/>
		<polygon style="fill:#FFFFFF;" points="62.97,33 36,59.16 39.213,63.19 66.136,43.102 69.144,40.858 		"/>
		<path style="fill:#F0F1F1;" d="M36.03,59.16l-1.77,1.72c-1.539,1.618-1.763,4.215-0.128,6.147l5.123-3.822L36.03,59.16z"/>
		<path style="fill:#FA5655;" d="M60.319,49.747l-3.242,2.343l-2.343-3.242l3.242-2.343c0.892-0.645,2.148-0.442,2.793,0.449
			C61.413,47.846,61.211,49.103,60.319,49.747z"/>
		<path style="fill:#5B5C5F;" d="M57.078,52.091l-3.242,2.343c-0.892,0.645-2.148,0.442-2.793-0.449
			c-0.645-0.892-0.442-2.148,0.449-2.793l3.242-2.343L57.078,52.091z"/>
		<g>
			<circle style="fill:#B6BCBD;" cx="74.093" cy="30.25" r="1.25"/>
			<circle style="fill:#B6BCBD;" cx="79.75" cy="35.907" r="1.25"/>
			<circle style="fill:#B6BCBD;" cx="68.436" cy="30.25" r="1.25"/>
			<circle style="fill:#B6BCBD;" cx="74.093" cy="35.907" r="1.25"/>
			<circle style="fill:#B6BCBD;" cx="79.75" cy="30.25" r="1.25"/>
			<circle style="fill:#B6BCBD;" cx="79.75" cy="41.564" r="1.25"/>
		</g>
		<rect x="45" y="79" style="fill:#FFFFFF;" width="8" height="2"/>
		<rect x="49" y="79" style="fill:#F0F1F1;" width="4" height="2"/>
	</g>
</g>
</svg>
