<?xml version="1.0" encoding="iso-8859-1"?>
<!-- Generator: Adobe Illustrator 17.1.0, SVG Export Plug-In . SVG Version: 6.00 Build 0)  -->
<!DOCTYPE svg PUBLIC "-//W3C//DTD SVG 1.0//EN" "http://www.w3.org/TR/2001/REC-SVG-20010904/DTD/svg10.dtd">
<svg version="1.0" xmlns="http://www.w3.org/2000/svg" xmlns:xlink="http://www.w3.org/1999/xlink" x="0px" y="0px" width="110px"
	 height="110px" viewBox="0 0 110 110" style="enable-background:new 0 0 110 110;" xml:space="preserve">
<g id="Artboard">
</g>
<g id="Multicolor">
	<circle style="fill:#25B7D3;" cx="55" cy="55" r="55"/>
	<g>
		<path style="fill:#CFD3D4;" d="M41,47v8h2v12c0,6.627,5.373,12,12,12s12-5.373,12-12V55h2v-8H41z"/>
		<path style="fill:#3E3E3F;" d="M67,47H43V35c0-6.627,5.373-12,12-12s12,5.373,12,12V47z"/>
		<path style="fill:#5B5C5F;" d="M55,23c-6.627,0-12,5.373-12,12v12h12V23z"/>
		<path style="fill:#F0F1F1;" d="M43,55h24v12c0,6.627-5.373,12-12,12s-12-5.373-12-12V55z"/>
		<path style="fill:#FFFFFF;" d="M70,53v14c0,7.732-7.268,14-15,14s-15-6.268-15-14V53h-2v14c0,8.836,8.164,16,17,16s17-7.164,17-16
			V53H70z"/>
		<rect x="41" y="47" style="fill:#CFD3D4;" width="28" height="8"/>
		<path style="fill:#B6BCBD;" d="M74,52c0,0.552-0.448,1-1,1h-4v-4h4c0.552,0,1,0.448,1,1V52z"/>
		<path style="fill:#E2E4E5;" d="M41,53h-4c-0.552,0-1-0.448-1-1v-2c0-0.552,0.448-1,1-1h4V53z"/>
		<path style="fill:#F0F1F1;" d="M71,86c0,0.552-0.448,1-1,1H40c-0.552,0-1-0.448-1-1v-2c0-0.552,0.448-1,1-1h30
			c0.552,0,1,0.448,1,1V86z"/>
		<g>
			<circle style="fill:#B6BCBD;" cx="47" cy="43" r="1.25"/>
			<circle style="fill:#B6BCBD;" cx="55" cy="43" r="1.25"/>
			<circle style="fill:#B6BCBD;" cx="63" cy="43" r="1.25"/>
			<circle style="fill:#B6BCBD;" cx="51" cy="39" r="1.25"/>
			<circle style="fill:#B6BCBD;" cx="59" cy="39" r="1.25"/>
			<circle style="fill:#B6BCBD;" cx="47" cy="35" r="1.25"/>
			<circle style="fill:#B6BCBD;" cx="55" cy="35" r="1.25"/>
			<circle style="fill:#B6BCBD;" cx="63" cy="35" r="1.25"/>
			<circle style="fill:#B6BCBD;" cx="51" cy="31" r="1.25"/>
			<circle style="fill:#B6BCBD;" cx="59" cy="31" r="1.25"/>
			<circle style="fill:#B6BCBD;" cx="55" cy="27" r="1.25"/>
		</g>
		<path style="fill:#FFFFFF;" d="M55,55H43v12c0,6.627,5.373,12,12,12V55z"/>
		<rect x="41" y="47" style="fill:#F0F1F1;" width="14" height="8"/>
		<path style="fill:#FFFFFF;" d="M55,83H40c-0.552,0-1,0.448-1,1v2c0,0.552,0.448,1,1,1h15V83z"/>
		<path style="fill:#E2E4E5;" d="M72,67V53h-2v14c0,7.732-7.268,14-15,14v2C63.836,83,72,75.836,72,67z"/>
	</g>
</g>
</svg>
