<?xml version="1.0" encoding="iso-8859-1"?>
<!-- Generator: Adobe Illustrator 17.1.0, SVG Export Plug-In . SVG Version: 6.00 Build 0)  -->
<!DOCTYPE svg PUBLIC "-//W3C//DTD SVG 1.0//EN" "http://www.w3.org/TR/2001/REC-SVG-20010904/DTD/svg10.dtd">
<svg version="1.0" xmlns="http://www.w3.org/2000/svg" xmlns:xlink="http://www.w3.org/1999/xlink" x="0px" y="0px" width="110px"
	 height="110px" viewBox="0 0 110 110" style="enable-background:new 0 0 110 110;" xml:space="preserve">
<g id="Artboard" style="display:none;">
	
		<rect x="-584.5" y="-1186.5" style="display:inline;fill:#808080;stroke:#000000;stroke-miterlimit:10;" width="1392" height="1369"/>
</g>
<g id="R-Multicolor">
	<circle style="fill:#E04F5F;" cx="55" cy="55" r="55"/>
	<g>
		<g>
			<path style="fill:#3E3E3F;" d="M83,39c2.21,0,4,1.79,4,4v36c0,1.48-0.8,2.77-2,3.46C84.41,82.8,83.73,83,83,83H27
				c-2.21,0-4-1.79-4-4V43c0-2.21,1.79-4,4-4H83z"/>
		</g>
		<g>
			<path style="fill:#CFD3D4;" d="M85,82.46V87h-4l-5-4h7C83.73,83,84.41,82.8,85,82.46z"/>
		</g>
		<g>
			<path style="fill:#CFD3D4;" d="M25,82.46V87h4l5-4h-7C26.27,83,25.59,82.8,25,82.46z"/>
		</g>
		<g>
			<path style="fill:#F0F1F1;" d="M83,39c2.21,0,4,1.79,4,4v36c0,1.48-0.8,2.77-2,3.46C84.41,82.8,83.73,83,83,83H69V39H83z"/>
		</g>
		<g>
			<path style="fill:#12B2A0;" d="M83,50c0,0.552-0.448,1-1,1h-8c-0.552,0-1-0.448-1-1v-6c0-0.552,0.448-1,1-1h8
				c0.552,0,1,0.448,1,1V50z"/>
		</g>
		<g>
			<path style="fill:#CFD3D4;" d="M77,58c0,0.552-0.448,1-1,1h-2c-0.552,0-1-0.448-1-1v-2c0-0.552,0.448-1,1-1h2
				c0.552,0,1,0.448,1,1V58z"/>
		</g>
		<g>
			<path style="fill:#CFD3D4;" d="M83,58c0,0.552-0.448,1-1,1h-2c-0.552,0-1-0.448-1-1v-2c0-0.552,0.448-1,1-1h2
				c0.552,0,1,0.448,1,1V58z"/>
		</g>
		<g>
			<path style="fill:#CFD3D4;" d="M77,66c0,0.552-0.448,1-1,1h-2c-0.552,0-1-0.448-1-1v-2c0-0.552,0.448-1,1-1h2
				c0.552,0,1,0.448,1,1V66z"/>
		</g>
		<g>
			<path style="fill:#CFD3D4;" d="M83,66c0,0.552-0.448,1-1,1h-2c-0.552,0-1-0.448-1-1v-2c0-0.552,0.448-1,1-1h2
				c0.552,0,1,0.448,1,1V66z"/>
		</g>
		<g>
			<path style="fill:#CFD3D4;" d="M81,72v4h-6v-4H81 M82,70h-8c-0.552,0-1,0.448-1,1v5c0,1.104,0.896,2,2,2h6c1.104,0,2-0.896,2-2
				v-5C83,70.448,82.552,70,82,70L82,70z"/>
		</g>
		<g>
			<path style="fill:#5B5C5F;" d="M27,39c-2.21,0-4,1.79-4,4v36c0,1.186,0.526,2.24,1.345,2.972L67.317,39H27z"/>
		</g>
		<g>
			<path style="fill:#40C9E7;" d="M63,47c0-1.105-0.895-2-2-2H31c-1.105,0-2,0.895-2,2v28c0,1.105,0.895,2,2,2h30
				c1.105,0,2-0.895,2-2V47z"/>
		</g>
		<g>
			<path style="fill:#6FDAF1;" d="M61,45H31c-1.104,0-2,0.896-2,2v28c0,0.633,0.3,1.191,0.76,1.558l31.528-31.529
				C61.193,45.015,61.099,45,61,45z"/>
		</g>
		<rect x="75" y="72" style="fill:#FFFFFF;" width="6" height="4"/>
	</g>
</g>
<g id="Multicolor" style="display:none;">
	<g style="display:inline;">
		<g>
			<path style="fill:#3E3E3F;" d="M83,39c2.21,0,4,1.79,4,4v36c0,1.48-0.8,2.77-2,3.46C84.41,82.8,83.73,83,83,83H27
				c-2.21,0-4-1.79-4-4V43c0-2.21,1.79-4,4-4H83z"/>
		</g>
		<g>
			<path style="fill:#CFD3D4;" d="M85,82.46V87h-4l-5-4h7C83.73,83,84.41,82.8,85,82.46z"/>
		</g>
		<g>
			<path style="fill:#CFD3D4;" d="M25,82.46V87h4l5-4h-7C26.27,83,25.59,82.8,25,82.46z"/>
		</g>
		<g>
			<path style="fill:#F0F1F1;" d="M83,39c2.21,0,4,1.79,4,4v36c0,1.48-0.8,2.77-2,3.46C84.41,82.8,83.73,83,83,83H69V39H83z"/>
		</g>
		<g>
			<path style="fill:#12B2A0;" d="M83,50c0,0.552-0.448,1-1,1h-8c-0.552,0-1-0.448-1-1v-6c0-0.552,0.448-1,1-1h8
				c0.552,0,1,0.448,1,1V50z"/>
		</g>
		<g>
			<path style="fill:#CFD3D4;" d="M77,58c0,0.552-0.448,1-1,1h-2c-0.552,0-1-0.448-1-1v-2c0-0.552,0.448-1,1-1h2
				c0.552,0,1,0.448,1,1V58z"/>
		</g>
		<g>
			<path style="fill:#CFD3D4;" d="M83,58c0,0.552-0.448,1-1,1h-2c-0.552,0-1-0.448-1-1v-2c0-0.552,0.448-1,1-1h2
				c0.552,0,1,0.448,1,1V58z"/>
		</g>
		<g>
			<path style="fill:#CFD3D4;" d="M77,66c0,0.552-0.448,1-1,1h-2c-0.552,0-1-0.448-1-1v-2c0-0.552,0.448-1,1-1h2
				c0.552,0,1,0.448,1,1V66z"/>
		</g>
		<g>
			<path style="fill:#CFD3D4;" d="M83,66c0,0.552-0.448,1-1,1h-2c-0.552,0-1-0.448-1-1v-2c0-0.552,0.448-1,1-1h2
				c0.552,0,1,0.448,1,1V66z"/>
		</g>
		<g>
			<path style="fill:#CFD3D4;" d="M81,72v4h-6v-4H81 M82,70h-8c-0.552,0-1,0.448-1,1v5c0,1.104,0.896,2,2,2h6c1.104,0,2-0.896,2-2
				v-5C83,70.448,82.552,70,82,70L82,70z"/>
		</g>
		<g>
			<path style="fill:#5B5C5F;" d="M27,39c-2.21,0-4,1.79-4,4v36c0,1.186,0.526,2.24,1.345,2.972L67.317,39H27z"/>
		</g>
		<g>
			<path style="fill:#40C9E7;" d="M63,47c0-1.105-0.895-2-2-2H31c-1.105,0-2,0.895-2,2v28c0,1.105,0.895,2,2,2h30
				c1.105,0,2-0.895,2-2V47z"/>
		</g>
		<g>
			<path style="fill:#6FDAF1;" d="M61,45H31c-1.104,0-2,0.896-2,2v28c0,0.633,0.3,1.191,0.76,1.558l31.528-31.529
				C61.193,45.015,61.099,45,61,45z"/>
		</g>
		<rect x="75" y="72" style="fill:#FFFFFF;" width="6" height="4"/>
	</g>
</g>
<g id="Blue" style="display:none;">
	<g style="display:inline;">
		<g>
			<path style="fill:#0C333D;" d="M83,39c2.21,0,4,1.79,4,4v36c0,1.48-0.8,2.77-2,3.46C84.41,82.8,83.73,83,83,83H27
				c-2.21,0-4-1.79-4-4V43c0-2.21,1.79-4,4-4H83z"/>
		</g>
		<g>
			<path style="fill:#81D2EB;" d="M85,82.46V87h-4l-5-4h7C83.73,83,84.41,82.8,85,82.46z"/>
		</g>
		<g>
			<path style="fill:#81D2EB;" d="M25,82.46V87h4l5-4h-7C26.27,83,25.59,82.8,25,82.46z"/>
		</g>
		<g>
			<path style="fill:#E1F5FA;" d="M83,39c2.21,0,4,1.79,4,4v36c0,1.48-0.8,2.77-2,3.46C84.41,82.8,83.73,83,83,83H69V39H83z"/>
		</g>
		<g>
			<path style="fill:#009FC7;" d="M83,50c0,0.552-0.447,1-1,1h-8c-0.553,0-1-0.448-1-1v-6c0-0.552,0.447-1,1-1h8
				c0.553,0,1,0.448,1,1V50z"/>
		</g>
		<g>
			<path style="fill:#81D2EB;" d="M77,58c0,0.552-0.447,1-1,1h-2c-0.553,0-1-0.448-1-1v-2c0-0.552,0.447-1,1-1h2
				c0.553,0,1,0.448,1,1V58z"/>
		</g>
		<g>
			<path style="fill:#81D2EB;" d="M83,58c0,0.552-0.447,1-1,1h-2c-0.553,0-1-0.448-1-1v-2c0-0.552,0.447-1,1-1h2
				c0.553,0,1,0.448,1,1V58z"/>
		</g>
		<g>
			<path style="fill:#81D2EB;" d="M77,66c0,0.552-0.447,1-1,1h-2c-0.553,0-1-0.448-1-1v-2c0-0.552,0.447-1,1-1h2
				c0.553,0,1,0.448,1,1V66z"/>
		</g>
		<g>
			<path style="fill:#81D2EB;" d="M83,66c0,0.552-0.447,1-1,1h-2c-0.553,0-1-0.448-1-1v-2c0-0.552,0.447-1,1-1h2
				c0.553,0,1,0.448,1,1V66z"/>
		</g>
		<g>
			<path style="fill:#81D2EB;" d="M81,72v4h-6v-4H81 M82,70h-8c-0.553,0-1,0.448-1,1v5c0,1.104,0.896,2,2,2h6c1.104,0,2-0.896,2-2
				v-5C83,70.448,82.553,70,82,70L82,70z"/>
		</g>
		<g>
			<path style="fill:#0F6175;" d="M27,39c-2.21,0-4,1.79-4,4v36c0,1.186,0.525,2.24,1.346,2.972L67.317,39H27z"/>
		</g>
		<g>
			<path style="fill:#53BAD4;" d="M63,47c0-1.104-0.896-2-2-2H31c-1.104,0-2,0.896-2,2v28c0,1.104,0.896,2,2,2h30
				c1.104,0,2-0.896,2-2V47z"/>
		</g>
		<g>
			<path style="fill:#81D2EB;" d="M61,45H31c-1.104,0-2,0.896-2,2v28c0,0.633,0.301,1.191,0.76,1.558l31.528-31.528
				C61.193,45.015,61.099,45,61,45z"/>
		</g>
		<rect x="75" y="72" style="fill:#FFFFFF;" width="6" height="4"/>
	</g>
</g>
<g id="R-Blue" style="display:none;">
	<circle style="display:inline;fill:#81D2EB;" cx="55" cy="55" r="55"/>
	<g style="display:inline;">
		<g>
			<path style="fill:#0C333D;" d="M83,39c2.21,0,4,1.79,4,4v36c0,1.48-0.8,2.77-2,3.46C84.41,82.8,83.73,83,83,83H27
				c-2.21,0-4-1.79-4-4V43c0-2.21,1.79-4,4-4H83z"/>
		</g>
		<g>
			<path style="fill:#81D2EB;" d="M85,82.46V87h-4l-5-4h7C83.73,83,84.41,82.8,85,82.46z"/>
		</g>
		<g>
			<path style="fill:#81D2EB;" d="M25,82.46V87h4l5-4h-7C26.27,83,25.59,82.8,25,82.46z"/>
		</g>
		<g>
			<path style="fill:#E1F5FA;" d="M83,39c2.21,0,4,1.79,4,4v36c0,1.48-0.8,2.77-2,3.46C84.41,82.8,83.73,83,83,83H69V39H83z"/>
		</g>
		<g>
			<path style="fill:#009FC7;" d="M83,50c0,0.552-0.447,1-1,1h-8c-0.553,0-1-0.448-1-1v-6c0-0.552,0.447-1,1-1h8
				c0.553,0,1,0.448,1,1V50z"/>
		</g>
		<g>
			<path style="fill:#81D2EB;" d="M77,58c0,0.552-0.447,1-1,1h-2c-0.553,0-1-0.448-1-1v-2c0-0.552,0.447-1,1-1h2
				c0.553,0,1,0.448,1,1V58z"/>
		</g>
		<g>
			<path style="fill:#81D2EB;" d="M83,58c0,0.552-0.447,1-1,1h-2c-0.553,0-1-0.448-1-1v-2c0-0.552,0.447-1,1-1h2
				c0.553,0,1,0.448,1,1V58z"/>
		</g>
		<g>
			<path style="fill:#81D2EB;" d="M77,66c0,0.552-0.447,1-1,1h-2c-0.553,0-1-0.448-1-1v-2c0-0.552,0.447-1,1-1h2
				c0.553,0,1,0.448,1,1V66z"/>
		</g>
		<g>
			<path style="fill:#81D2EB;" d="M83,66c0,0.552-0.447,1-1,1h-2c-0.553,0-1-0.448-1-1v-2c0-0.552,0.447-1,1-1h2
				c0.553,0,1,0.448,1,1V66z"/>
		</g>
		<g>
			<path style="fill:#81D2EB;" d="M81,72v4h-6v-4H81 M82,70h-8c-0.553,0-1,0.448-1,1v5c0,1.104,0.896,2,2,2h6c1.104,0,2-0.896,2-2
				v-5C83,70.448,82.553,70,82,70L82,70z"/>
		</g>
		<g>
			<path style="fill:#0F6175;" d="M27,39c-2.21,0-4,1.79-4,4v36c0,1.185,0.525,2.24,1.346,2.972L67.317,39H27z"/>
		</g>
		<g>
			<path style="fill:#53BAD4;" d="M63,47c0-1.104-0.896-2-2-2H31c-1.104,0-2,0.896-2,2v28c0,1.104,0.896,2,2,2h30
				c1.104,0,2-0.896,2-2V47z"/>
		</g>
		<g>
			<path style="fill:#81D2EB;" d="M61,45H31c-1.104,0-2,0.896-2,2v28c0,0.633,0.301,1.191,0.76,1.558l31.528-31.528
				C61.193,45.015,61.099,45,61,45z"/>
		</g>
		<rect x="75" y="72" style="fill:#FFFFFF;" width="6" height="4"/>
	</g>
</g>
<g id="Green" style="display:none;">
	<g style="display:inline;">
		<g>
			<path style="fill:#0A3631;" d="M83,39c2.21,0,4,1.79,4,4v36c0,1.48-0.8,2.77-2,3.46C84.41,82.8,83.73,83,83,83H27
				c-2.21,0-4-1.79-4-4V43c0-2.21,1.79-4,4-4H83z"/>
		</g>
		<g>
			<path style="fill:#77E0C4;" d="M85,82.46V87h-4l-5-4h7C83.73,83,84.41,82.8,85,82.46z"/>
		</g>
		<g>
			<path style="fill:#77E0C4;" d="M25,82.46V87h4l5-4h-7C26.269,83,25.59,82.8,25,82.46z"/>
		</g>
		<g>
			<path style="fill:#D7FCF9;" d="M83,39c2.21,0,4,1.79,4,4v36c0,1.48-0.8,2.77-2,3.46C84.41,82.8,83.73,83,83,83H69V39H83z"/>
		</g>
		<g>
			<path style="fill:#00B8A5;" d="M83,50c0,0.552-0.447,1-1,1h-8c-0.553,0-1-0.448-1-1v-6c0-0.552,0.447-1,1-1h8
				c0.553,0,1,0.448,1,1V50z"/>
		</g>
		<g>
			<path style="fill:#77E0C4;" d="M77,58c0,0.552-0.447,1-1,1h-2c-0.553,0-1-0.448-1-1v-2c0-0.552,0.447-1,1-1h2
				c0.553,0,1,0.448,1,1V58z"/>
		</g>
		<g>
			<path style="fill:#77E0C4;" d="M83,58c0,0.552-0.447,1-1,1h-2c-0.553,0-1-0.448-1-1v-2c0-0.552,0.447-1,1-1h2
				c0.553,0,1,0.448,1,1V58z"/>
		</g>
		<g>
			<path style="fill:#77E0C4;" d="M77,66c0,0.552-0.447,1-1,1h-2c-0.553,0-1-0.448-1-1v-2c0-0.552,0.447-1,1-1h2
				c0.553,0,1,0.448,1,1V66z"/>
		</g>
		<g>
			<path style="fill:#77E0C4;" d="M83,66c0,0.552-0.447,1-1,1h-2c-0.553,0-1-0.448-1-1v-2c0-0.552,0.447-1,1-1h2
				c0.553,0,1,0.448,1,1V66z"/>
		</g>
		<g>
			<path style="fill:#77E0C4;" d="M81,72v4h-6v-4H81 M82,70h-8c-0.553,0-1,0.448-1,1v5c0,1.104,0.896,2,2,2h6c1.104,0,2-0.896,2-2
				v-5C83,70.448,82.553,70,82,70L82,70z"/>
		</g>
		<g>
			<path style="fill:#14635B;" d="M27,39c-2.21,0-4,1.79-4,4v36c0,1.186,0.525,2.24,1.346,2.972L67.317,39H27z"/>
		</g>
		<g>
			<path style="fill:#55C9BE;" d="M63,47c0-1.104-0.896-2-2-2H31c-1.104,0-2,0.896-2,2v28c0,1.104,0.896,2,2,2h30
				c1.104,0,2-0.896,2-2V47z"/>
		</g>
		<g>
			<path style="fill:#77E0C4;" d="M61,45H31c-1.104,0-2,0.896-2,2v28c0,0.633,0.301,1.191,0.76,1.558l31.528-31.528
				C61.193,45.015,61.099,45,61,45z"/>
		</g>
		<rect x="75" y="72" style="fill:#FFFFFF;" width="6" height="4"/>
	</g>
</g>
<g id="R-Green" style="display:none;">
	<circle style="display:inline;fill:#77E0C4;" cx="55" cy="55" r="55"/>
	<g style="display:inline;">
		<g>
			<path style="fill:#0A3631;" d="M83,39c2.21,0,4,1.79,4,4v36c0,1.48-0.8,2.77-2,3.46C84.41,82.8,83.73,83,83,83H27
				c-2.21,0-4-1.79-4-4V43c0-2.21,1.79-4,4-4H83z"/>
		</g>
		<g>
			<path style="fill:#77E0C4;" d="M85,82.46V87h-4l-5-4h7C83.73,83,84.41,82.8,85,82.46z"/>
		</g>
		<g>
			<path style="fill:#77E0C4;" d="M25,82.46V87h4l5-4h-7C26.27,83,25.59,82.8,25,82.46z"/>
		</g>
		<g>
			<path style="fill:#D7FCF9;" d="M83,39c2.21,0,4,1.79,4,4v36c0,1.48-0.8,2.77-2,3.46C84.41,82.8,83.73,83,83,83H69V39H83z"/>
		</g>
		<g>
			<path style="fill:#00B8A5;" d="M83,50c0,0.552-0.447,1-1,1h-8c-0.553,0-1-0.448-1-1v-6c0-0.552,0.447-1,1-1h8
				c0.553,0,1,0.448,1,1V50z"/>
		</g>
		<g>
			<path style="fill:#77E0C4;" d="M77,58c0,0.552-0.447,1-1,1h-2c-0.553,0-1-0.448-1-1v-2c0-0.552,0.447-1,1-1h2
				c0.553,0,1,0.448,1,1V58z"/>
		</g>
		<g>
			<path style="fill:#77E0C4;" d="M83,58c0,0.552-0.447,1-1,1h-2c-0.553,0-1-0.448-1-1v-2c0-0.552,0.447-1,1-1h2
				c0.553,0,1,0.448,1,1V58z"/>
		</g>
		<g>
			<path style="fill:#77E0C4;" d="M77,66c0,0.552-0.447,1-1,1h-2c-0.553,0-1-0.448-1-1v-2c0-0.552,0.447-1,1-1h2
				c0.553,0,1,0.448,1,1V66z"/>
		</g>
		<g>
			<path style="fill:#77E0C4;" d="M83,66c0,0.552-0.447,1-1,1h-2c-0.553,0-1-0.448-1-1v-2c0-0.552,0.447-1,1-1h2
				c0.553,0,1,0.448,1,1V66z"/>
		</g>
		<g>
			<path style="fill:#77E0C4;" d="M81,72v4h-6v-4H81 M82,70h-8c-0.553,0-1,0.448-1,1v5c0,1.104,0.896,2,2,2h6c1.104,0,2-0.896,2-2
				v-5C83,70.448,82.553,70,82,70L82,70z"/>
		</g>
		<g>
			<path style="fill:#14635B;" d="M27,39c-2.21,0-4,1.79-4,4v36c0,1.186,0.525,2.24,1.346,2.972L67.317,39H27z"/>
		</g>
		<g>
			<path style="fill:#55C9BE;" d="M63,47c0-1.104-0.896-2-2-2H31c-1.104,0-2,0.896-2,2v28c0,1.104,0.896,2,2,2h30
				c1.104,0,2-0.896,2-2V47z"/>
		</g>
		<g>
			<path style="fill:#77E0C4;" d="M61,45H31c-1.104,0-2,0.896-2,2v28c0,0.633,0.301,1.191,0.76,1.558l31.528-31.528
				C61.193,45.015,61.099,45,61,45z"/>
		</g>
		<rect x="75" y="72" style="fill:#FFFFFF;" width="6" height="4"/>
	</g>
</g>
<g id="Red" style="display:none;">
	<g style="display:inline;">
		<g>
			<path style="fill:#4A1410;" d="M83,39c2.21,0,4,1.79,4,4v36c0,1.48-0.8,2.77-2,3.46C84.41,82.8,83.73,83,83,83H27
				c-2.21,0-4-1.79-4-4V43c0-2.21,1.79-4,4-4H83z"/>
		</g>
		<g>
			<path style="fill:#FABBAF;" d="M85,82.46V87h-4l-5-4h7C83.73,83,84.41,82.8,85,82.46z"/>
		</g>
		<g>
			<path style="fill:#FABBAF;" d="M25,82.46V87h4l5-4h-7C26.269,83,25.59,82.8,25,82.46z"/>
		</g>
		<g>
			<path style="fill:#FFEFED;" d="M83,39c2.21,0,4,1.79,4,4v36c0,1.48-0.8,2.77-2,3.46C84.41,82.8,83.73,83,83,83H69V39H83z"/>
		</g>
		<g>
			<path style="fill:#E54B44;" d="M83,50c0,0.552-0.447,1-1,1h-8c-0.553,0-1-0.448-1-1v-6c0-0.552,0.447-1,1-1h8
				c0.553,0,1,0.448,1,1V50z"/>
		</g>
		<g>
			<path style="fill:#FABBAF;" d="M77,58c0,0.552-0.447,1-1,1h-2c-0.553,0-1-0.448-1-1v-2c0-0.552,0.447-1,1-1h2
				c0.553,0,1,0.448,1,1V58z"/>
		</g>
		<g>
			<path style="fill:#FABBAF;" d="M83,58c0,0.552-0.447,1-1,1h-2c-0.553,0-1-0.448-1-1v-2c0-0.552,0.447-1,1-1h2
				c0.553,0,1,0.448,1,1V58z"/>
		</g>
		<g>
			<path style="fill:#FABBAF;" d="M77,66c0,0.552-0.447,1-1,1h-2c-0.553,0-1-0.448-1-1v-2c0-0.552,0.447-1,1-1h2
				c0.553,0,1,0.448,1,1V66z"/>
		</g>
		<g>
			<path style="fill:#FABBAF;" d="M83,66c0,0.552-0.447,1-1,1h-2c-0.553,0-1-0.448-1-1v-2c0-0.552,0.447-1,1-1h2
				c0.553,0,1,0.448,1,1V66z"/>
		</g>
		<g>
			<path style="fill:#FABBAF;" d="M81,72v4h-6v-4H81 M82,70h-8c-0.553,0-1,0.448-1,1v5c0,1.104,0.896,2,2,2h6c1.104,0,2-0.896,2-2
				v-5C83,70.448,82.553,70,82,70L82,70z"/>
		</g>
		<g>
			<path style="fill:#7D261E;" d="M27,39c-2.21,0-4,1.79-4,4v36c0,1.186,0.525,2.24,1.346,2.972L67.317,39H27z"/>
		</g>
		<g>
			<path style="fill:#E8A099;" d="M63,47c0-1.104-0.896-2-2-2H31c-1.104,0-2,0.896-2,2v28c0,1.104,0.896,2,2,2h30
				c1.104,0,2-0.896,2-2V47z"/>
		</g>
		<g>
			<path style="fill:#FABBAF;" d="M61,45H31c-1.104,0-2,0.896-2,2v28c0,0.633,0.301,1.191,0.76,1.558l31.528-31.528
				C61.193,45.015,61.099,45,61,45z"/>
		</g>
		<rect x="75" y="72" style="fill:#FFFFFF;" width="6" height="4"/>
	</g>
</g>
<g id="R-Red" style="display:none;">
	<circle style="display:inline;fill:#FABBAF;" cx="55" cy="55" r="55"/>
	<g style="display:inline;">
		<g>
			<path style="fill:#4A1410;" d="M83,39c2.21,0,4,1.79,4,4v36c0,1.48-0.8,2.77-2,3.46C84.41,82.8,83.73,83,83,83H27
				c-2.21,0-4-1.79-4-4V43c0-2.21,1.79-4,4-4H83z"/>
		</g>
		<g>
			<path style="fill:#FABBAF;" d="M85,82.46V87h-4l-5-4h7C83.73,83,84.41,82.8,85,82.46z"/>
		</g>
		<g>
			<path style="fill:#FABBAF;" d="M25,82.46V87h4l5-4h-7C26.269,83,25.59,82.8,25,82.46z"/>
		</g>
		<g>
			<path style="fill:#FFEFED;" d="M83,39c2.21,0,4,1.79,4,4v36c0,1.48-0.8,2.77-2,3.46C84.41,82.8,83.73,83,83,83H69V39H83z"/>
		</g>
		<g>
			<path style="fill:#E54B44;" d="M83,50c0,0.552-0.447,1-1,1h-8c-0.553,0-1-0.448-1-1v-6c0-0.552,0.447-1,1-1h8
				c0.553,0,1,0.448,1,1V50z"/>
		</g>
		<g>
			<path style="fill:#FABBAF;" d="M77,58c0,0.552-0.447,1-1,1h-2c-0.553,0-1-0.448-1-1v-2c0-0.552,0.447-1,1-1h2
				c0.553,0,1,0.448,1,1V58z"/>
		</g>
		<g>
			<path style="fill:#FABBAF;" d="M83,58c0,0.552-0.447,1-1,1h-2c-0.553,0-1-0.448-1-1v-2c0-0.552,0.447-1,1-1h2
				c0.553,0,1,0.448,1,1V58z"/>
		</g>
		<g>
			<path style="fill:#FABBAF;" d="M77,66c0,0.552-0.447,1-1,1h-2c-0.553,0-1-0.448-1-1v-2c0-0.552,0.447-1,1-1h2
				c0.553,0,1,0.448,1,1V66z"/>
		</g>
		<g>
			<path style="fill:#FABBAF;" d="M83,66c0,0.552-0.447,1-1,1h-2c-0.553,0-1-0.448-1-1v-2c0-0.552,0.447-1,1-1h2
				c0.553,0,1,0.448,1,1V66z"/>
		</g>
		<g>
			<path style="fill:#FABBAF;" d="M81,72v4h-6v-4H81 M82,70h-8c-0.553,0-1,0.448-1,1v5c0,1.104,0.896,2,2,2h6c1.104,0,2-0.896,2-2
				v-5C83,70.448,82.553,70,82,70L82,70z"/>
		</g>
		<g>
			<path style="fill:#7D261E;" d="M27,39c-2.21,0-4,1.79-4,4v36c0,1.186,0.525,2.24,1.346,2.972L67.317,39H27z"/>
		</g>
		<g>
			<path style="fill:#E8A099;" d="M63,47c0-1.104-0.896-2-2-2H31c-1.104,0-2,0.896-2,2v28c0,1.104,0.896,2,2,2h30
				c1.104,0,2-0.896,2-2V47z"/>
		</g>
		<g>
			<path style="fill:#FABBAF;" d="M61,45H31c-1.104,0-2,0.896-2,2v28c0,0.633,0.301,1.191,0.76,1.558l31.528-31.528
				C61.193,45.015,61.099,45,61,45z"/>
		</g>
		<rect x="75" y="72" style="fill:#FFFFFF;" width="6" height="4"/>
	</g>
</g>
<g id="Yellow" style="display:none;">
	<g style="display:inline;">
		<g>
			<path style="fill:#3D320C;" d="M83,39c2.21,0,4,1.79,4,4v36c0,1.48-0.8,2.77-2,3.46C84.41,82.8,83.73,83,83,83H27
				c-2.21,0-4-1.79-4-4V43c0-2.21,1.79-4,4-4H83z"/>
		</g>
		<g>
			<path style="fill:#FFD75E;" d="M85,82.46V87h-4l-5-4h7C83.73,83,84.41,82.8,85,82.46z"/>
		</g>
		<g>
			<path style="fill:#FFD75E;" d="M25,82.46V87h4l5-4h-7C26.27,83,25.59,82.8,25,82.46z"/>
		</g>
		<g>
			<path style="fill:#FFF5D9;" d="M83,39c2.21,0,4,1.79,4,4v36c0,1.48-0.8,2.77-2,3.46C84.41,82.8,83.73,83,83,83H69V39H83z"/>
		</g>
		<g>
			<path style="fill:#FA9200;" d="M83,50c0,0.552-0.447,1-1,1h-8c-0.553,0-1-0.448-1-1v-6c0-0.552,0.447-1,1-1h8
				c0.553,0,1,0.448,1,1V50z"/>
		</g>
		<g>
			<path style="fill:#FFD75E;" d="M77,58c0,0.552-0.447,1-1,1h-2c-0.553,0-1-0.448-1-1v-2c0-0.552,0.447-1,1-1h2
				c0.553,0,1,0.448,1,1V58z"/>
		</g>
		<g>
			<path style="fill:#FFD75E;" d="M83,58c0,0.552-0.447,1-1,1h-2c-0.553,0-1-0.448-1-1v-2c0-0.552,0.447-1,1-1h2
				c0.553,0,1,0.448,1,1V58z"/>
		</g>
		<g>
			<path style="fill:#FFD75E;" d="M77,66c0,0.552-0.447,1-1,1h-2c-0.553,0-1-0.448-1-1v-2c0-0.552,0.447-1,1-1h2
				c0.553,0,1,0.448,1,1V66z"/>
		</g>
		<g>
			<path style="fill:#FFD75E;" d="M83,66c0,0.552-0.447,1-1,1h-2c-0.553,0-1-0.448-1-1v-2c0-0.552,0.447-1,1-1h2
				c0.553,0,1,0.448,1,1V66z"/>
		</g>
		<g>
			<path style="fill:#FFD75E;" d="M81,72v4h-6v-4H81 M82,70h-8c-0.553,0-1,0.448-1,1v5c0,1.104,0.896,2,2,2h6c1.104,0,2-0.896,2-2
				v-5C83,70.448,82.553,70,82,70L82,70z"/>
		</g>
		<g>
			<path style="fill:#66510D;" d="M27,39c-2.21,0-4,1.79-4,4v36c0,1.186,0.525,2.24,1.346,2.972L67.317,39H27z"/>
		</g>
		<g>
			<path style="fill:#F5C43D;" d="M63,47c0-1.104-0.896-2-2-2H31c-1.104,0-2,0.896-2,2v28c0,1.104,0.896,2,2,2h30
				c1.104,0,2-0.896,2-2V47z"/>
		</g>
		<g>
			<path style="fill:#FFD75E;" d="M61,45H31c-1.104,0-2,0.896-2,2v28c0,0.633,0.301,1.191,0.76,1.558l31.528-31.528
				C61.193,45.015,61.099,45,61,45z"/>
		</g>
		<rect x="75" y="72" style="fill:#FFFFFF;" width="6" height="4"/>
	</g>
</g>
<g id="R-Yellow" style="display:none;">
	<circle style="display:inline;fill:#FFD75E;" cx="55" cy="55" r="55"/>
	<g style="display:inline;">
		<g>
			<path style="fill:#3D320C;" d="M83,39c2.21,0,4,1.79,4,4v36c0,1.48-0.8,2.77-2,3.46C84.41,82.8,83.73,83,83,83H27
				c-2.21,0-4-1.79-4-4V43c0-2.21,1.79-4,4-4H83z"/>
		</g>
		<g>
			<path style="fill:#FFD75E;" d="M85,82.46V87h-4l-5-4h7C83.73,83,84.41,82.8,85,82.46z"/>
		</g>
		<g>
			<path style="fill:#FFD75E;" d="M25,82.46V87h4l5-4h-7C26.269,83,25.59,82.8,25,82.46z"/>
		</g>
		<g>
			<path style="fill:#FFF5D9;" d="M83,39c2.21,0,4,1.79,4,4v36c0,1.48-0.8,2.77-2,3.46C84.41,82.8,83.73,83,83,83H69V39H83z"/>
		</g>
		<g>
			<path style="fill:#FA9200;" d="M83,50c0,0.552-0.447,1-1,1h-8c-0.553,0-1-0.448-1-1v-6c0-0.552,0.447-1,1-1h8
				c0.553,0,1,0.448,1,1V50z"/>
		</g>
		<g>
			<path style="fill:#FFD75E;" d="M77,58c0,0.552-0.447,1-1,1h-2c-0.553,0-1-0.448-1-1v-2c0-0.552,0.447-1,1-1h2
				c0.553,0,1,0.448,1,1V58z"/>
		</g>
		<g>
			<path style="fill:#FFD75E;" d="M83,58c0,0.552-0.447,1-1,1h-2c-0.553,0-1-0.448-1-1v-2c0-0.552,0.447-1,1-1h2
				c0.553,0,1,0.448,1,1V58z"/>
		</g>
		<g>
			<path style="fill:#FFD75E;" d="M77,66c0,0.552-0.447,1-1,1h-2c-0.553,0-1-0.448-1-1v-2c0-0.552,0.447-1,1-1h2
				c0.553,0,1,0.448,1,1V66z"/>
		</g>
		<g>
			<path style="fill:#FFD75E;" d="M83,66c0,0.552-0.447,1-1,1h-2c-0.553,0-1-0.448-1-1v-2c0-0.552,0.447-1,1-1h2
				c0.553,0,1,0.448,1,1V66z"/>
		</g>
		<g>
			<path style="fill:#FFD75E;" d="M81,72v4h-6v-4H81 M82,70h-8c-0.553,0-1,0.448-1,1v5c0,1.104,0.896,2,2,2h6c1.104,0,2-0.896,2-2
				v-5C83,70.448,82.553,70,82,70L82,70z"/>
		</g>
		<g>
			<path style="fill:#66510D;" d="M27,39c-2.21,0-4,1.79-4,4v36c0,1.186,0.525,2.24,1.346,2.972L67.317,39H27z"/>
		</g>
		<g>
			<path style="fill:#F5C43D;" d="M63,47c0-1.104-0.896-2-2-2H31c-1.104,0-2,0.896-2,2v28c0,1.104,0.896,2,2,2h30
				c1.104,0,2-0.896,2-2V47z"/>
		</g>
		<g>
			<path style="fill:#FFD75E;" d="M61,45H31c-1.104,0-2,0.896-2,2v28c0,0.633,0.301,1.191,0.76,1.558l31.528-31.528
				C61.193,45.015,61.099,45,61,45z"/>
		</g>
		<rect x="75" y="72" style="fill:#FFFFFF;" width="6" height="4"/>
	</g>
</g>
</svg>
