<?xml version="1.0" encoding="iso-8859-1"?>
<!-- Generator: Adobe Illustrator 17.1.0, SVG Export Plug-In . SVG Version: 6.00 Build 0)  -->
<!DOCTYPE svg PUBLIC "-//W3C//DTD SVG 1.0//EN" "http://www.w3.org/TR/2001/REC-SVG-20010904/DTD/svg10.dtd">
<svg version="1.0" xmlns="http://www.w3.org/2000/svg" xmlns:xlink="http://www.w3.org/1999/xlink" x="0px" y="0px" width="110px"
	 height="110px" viewBox="0 0 110 110" style="enable-background:new 0 0 110 110;" xml:space="preserve">
<g id="Artboard">
</g>
<g id="Multicolor">
	<circle style="fill:#32BEA6;" cx="55" cy="55" r="55"/>
	<g>
		<path style="fill:#818284;" d="M40.188,45h-0.014c0.588,1.45,1.376,2.798,2.341,4h0.021C41.569,47.797,40.776,46.452,40.188,45z"
			/>
		<path style="fill:#E2E4E5;" d="M62,59H48l2.509,20.07C50.79,81.315,52.698,83,54.96,83h0.08c2.262,0,4.17-1.685,4.451-3.93L62,59z
			"/>
		<polyline style="fill:#FFFFFF;" points="55,59 48,59 50.5,79 55,79 		"/>
		<g>
			<path style="fill:#3E3E3F;" d="M55,87c-0.552,0-1-0.448-1-1v-5c0-0.552,0.448-1,1-1s1,0.448,1,1v5C56,86.552,55.552,87,55,87z"/>
		</g>
		<path style="fill:#CFD3D4;" d="M50.5,79c0.303,2.422,2.281,4,4.46,4c2.43,0,4.255-1.716,4.54-4H50.5z"/>
		<circle style="fill:#3E3E3F;" cx="55" cy="39" r="16"/>
		<polygon style="fill:#CFD3D4;" points="47.25,53.017 47.998,59 61.998,59 62.748,52.996 		"/>
		<path style="fill:#CFD3D4;" d="M42.535,49h24.958c0.966-1.203,1.759-2.548,2.347-4H40.187C40.776,46.452,41.569,47.797,42.535,49z
			"/>
		<polygon style="fill:#E2E4E5;" points="47.289,53.018 47.25,53.018 47.998,59 48,59 55,59 55,55 55,53.006 		"/>
		<path style="fill:#FFFFFF;" d="M42.535,49H55v-4H40.188C40.776,46.452,41.569,47.797,42.535,49z"/>
		<path style="fill:#3E3E3F;" d="M56.25,71.75c0,0.69-0.56,1.25-1.25,1.25s-1.25-0.56-1.25-1.25v-7.5c0-0.69,0.56-1.25,1.25-1.25
			s1.25,0.56,1.25,1.25V71.75z"/>
		<path style="fill:#FA5655;" d="M56.25,68v-3.75c0-0.69-0.56-1.25-1.25-1.25s-1.25,0.56-1.25,1.25V68H56.25z"/>
		<path style="fill:#5B5C5F;" d="M55,45V23c-8.836,0-16,7.164-16,16c0,2.124,0.422,4.146,1.173,6h0.014H55z"/>
		<path style="fill:#5B5C5F;" d="M42.514,49c1.309,1.631,2.931,3.001,4.774,4.018L55,53.006V49H42.535H42.514z"/>
		<path style="fill:#E2E4E5;" d="M50.5,79l0.009,0.07C50.79,81.315,52.698,83,54.96,83H55v-4H50.5z"/>
		<g>
			<circle style="fill:#B6BCBD;" cx="43" cy="39" r="1.25"/>
			<circle style="fill:#B6BCBD;" cx="51" cy="39" r="1.25"/>
			<circle style="fill:#B6BCBD;" cx="59" cy="39" r="1.25"/>
			<circle style="fill:#B6BCBD;" cx="67" cy="39" r="1.25"/>
			<circle style="fill:#B6BCBD;" cx="51" cy="31" r="1.25"/>
			<circle style="fill:#B6BCBD;" cx="59" cy="31" r="1.25"/>
			<circle style="fill:#B6BCBD;" cx="47" cy="35" r="1.25"/>
			<circle style="fill:#B6BCBD;" cx="55" cy="35" r="1.25"/>
			<circle style="fill:#B6BCBD;" cx="55" cy="27" r="1.25"/>
			<circle style="fill:#B6BCBD;" cx="63" cy="35" r="1.25"/>
		</g>
	</g>
</g>
</svg>
