<?xml version="1.0" encoding="iso-8859-1"?>
<!-- Generator: Adobe Illustrator 17.1.0, SVG Export Plug-In . SVG Version: 6.00 Build 0)  -->
<!DOCTYPE svg PUBLIC "-//W3C//DTD SVG 1.0//EN" "http://www.w3.org/TR/2001/REC-SVG-20010904/DTD/svg10.dtd">
<svg version="1.0" xmlns="http://www.w3.org/2000/svg" xmlns:xlink="http://www.w3.org/1999/xlink" x="0px" y="0px" width="110px"
	 height="110px" viewBox="0 0 110 110" style="enable-background:new 0 0 110 110;" xml:space="preserve">
<g id="Artboard">
</g>
<g id="Multicolor">
	<circle style="fill:#25B7D3;" cx="55" cy="55" r="55"/>
	<g>
		<g>
			<path style="fill:#6FDAF1;" d="M40.544,49C39.567,50.241,39,51.789,39,53.427V81c0,3.314,2.686,6,6,6h20c3.314,0,6-2.686,6-6
				V53.427c0-1.638-0.567-3.187-1.544-4.427H40.544z"/>
		</g>
		<g>
			<path style="fill:#C9F2F8;" d="M68,55c0,0.552-0.448,1-1,1h-6c-0.552,0-1-0.448-1-1s0.448-1,1-1h6C67.552,54,68,54.448,68,55z"/>
		</g>
		<g>
			<path style="fill:#C9F2F8;" d="M68,63c0,0.552-0.448,1-1,1h-3c-0.552,0-1-0.448-1-1s0.448-1,1-1h3C67.552,62,68,62.448,68,63z"/>
		</g>
		<g>
			<path style="fill:#C9F2F8;" d="M68,78c0,0.552-0.448,1-1,1h-3c-0.552,0-1-0.448-1-1s0.448-1,1-1h3C67.552,77,68,77.448,68,78z"/>
		</g>
		<g>
			<path style="fill:#C9F2F8;" d="M68,71c0,0.552-0.448,1-1,1h-6c-0.552,0-1-0.448-1-1s0.448-1,1-1h6C67.552,70,68,70.448,68,71z"/>
		</g>
		<g>
			<path style="fill:#FBC8C8;" d="M64.867,37c-0.528-0.528-1.189-1.1-1.904-1.674C60.784,33.574,59,29.85,59,27.054V26.96
				c0-2.187-1.773-3.96-3.96-3.96H55h-0.054C52.767,23,51,24.767,51,26.946v0.094c0,2.802-1.795,6.524-3.988,8.267
				c-0.717,0.57-1.374,1.145-1.879,1.693C42.65,39.697,42,43,42,43h13h13C68,43,67.368,39.5,64.867,37z"/>
		</g>
		<g>
			<path style="fill:#FBD7D7;" d="M51,26.946v0.094c0,2.802-1.795,6.524-3.988,8.267c-0.717,0.57-1.374,1.145-1.879,1.693
				C42.65,39.697,42,43,42,43h13V23h-0.054C52.767,23,51,24.767,51,26.946z"/>
		</g>
		<g>
			<path style="fill:#F79392;" d="M72,43H38c-0.552,0-1,0.448-1,1v4c0,0.552,0.448,1,1,1h17h17c0.552,0,1-0.448,1-1v-4
				C73,43.448,72.552,43,72,43z"/>
		</g>
		<g>
			<path style="fill:#F7B4B4;" d="M42,43h-4c-0.552,0-1,0.448-1,1v4c0,0.552,0.448,1,1,1h17v-6H42z"/>
		</g>
		<g>
			<path style="fill:#9CE5F4;" d="M40.544,49C39.567,50.241,39,51.789,39,53.427V81c0,3.313,2.686,6,6,6h10V49H40.544z"/>
		</g>
	</g>
</g>
</svg>
