<?xml version="1.0" encoding="iso-8859-1"?>
<!-- Generator: Adobe Illustrator 17.1.0, SVG Export Plug-In . SVG Version: 6.00 Build 0)  -->
<!DOCTYPE svg PUBLIC "-//W3C//DTD SVG 1.0//EN" "http://www.w3.org/TR/2001/REC-SVG-20010904/DTD/svg10.dtd">
<svg version="1.0" xmlns="http://www.w3.org/2000/svg" xmlns:xlink="http://www.w3.org/1999/xlink" x="0px" y="0px" width="110px"
	 height="110px" viewBox="0 0 110 110" style="enable-background:new 0 0 110 110;" xml:space="preserve">
<g id="Artboard">
</g>
<g id="Multicolor">
	<circle style="fill:#E04F5F;" cx="55" cy="55" r="55"/>
	<g>
		<g>
			<path style="fill:#3E3E3F;" d="M82.799,51c1.591-7.837-6.194-14.253-13.556-11.264C66.596,34.555,61.218,31,55,31
				c-6.857,0-12.69,4.322-14.967,10.384c-5.997-1.87-12.03,3.242-10.893,9.616H82.799z"/>
		</g>
		<g>
			<path style="fill:#F0F1F1;" d="M84.35,51H47.234H25.65c-1.33,0-2.29,1.27-1.92,2.55l6.44,22.55c0.49,1.72,2.06,2.9,3.85,2.9
				h41.96c1.79,0,3.36-1.18,3.85-2.9l6.44-22.55C86.64,52.27,85.68,51,84.35,51z"/>
		</g>
		<g>
			<polygon style="fill:#CFD3D4;" points="57,55 57,75 76,75 81.72,55 			"/>
		</g>
		<g>
			<path style="fill:#5B5C5F;" d="M47.334,51l16.991-16.991C61.702,32.117,58.483,31,55,31c-6.857,0-12.69,4.322-14.967,10.384
				c-5.997-1.87-12.03,3.242-10.893,9.616H47.334z"/>
		</g>
		<g>
			<polygon style="fill:#CFD3D4;" points="53,55 53,75 34,75 28.28,55 			"/>
		</g>
		<g>
			<circle style="fill:#3E3E3F;" cx="43" cy="79" r="8"/>
		</g>
		<g>
			<circle style="fill:#CFD3D4;" cx="43" cy="79" r="3"/>
		</g>
		<g>
			<circle style="fill:#3E3E3F;" cx="67" cy="79" r="8"/>
		</g>
		<g>
			<circle style="fill:#CFD3D4;" cx="67" cy="79" r="3"/>
		</g>
	</g>
</g>
</svg>
