<?xml version="1.0" encoding="iso-8859-1"?>
<!-- Generator: Adobe Illustrator 17.1.0, SVG Export Plug-In . SVG Version: 6.00 Build 0)  -->
<!DOCTYPE svg PUBLIC "-//W3C//DTD SVG 1.0//EN" "http://www.w3.org/TR/2001/REC-SVG-20010904/DTD/svg10.dtd">
<svg version="1.0" xmlns="http://www.w3.org/2000/svg" xmlns:xlink="http://www.w3.org/1999/xlink" x="0px" y="0px" width="110px"
	 height="110px" viewBox="0 0 110 110" style="enable-background:new 0 0 110 110;" xml:space="preserve">
<g id="Artboard">
</g>
<g id="Multicolor">
	<circle style="fill:#FABC3D;" cx="55" cy="55" r="55"/>
	<g>
		<g>
			<path style="fill:#DF2C2C;" d="M79.446,30.106C74.941,25.711,68.786,23,61.995,23c-13.807,0-25,11.193-25,25
				c0,5.103,1.532,9.845,4.156,13.801L25.279,75.544c-2.925,2.533-3.03,6.834-0.342,9.518c2.718,2.718,6.994,2.558,9.501-0.356
				l13.685-15.907C52.093,71.451,56.863,73,61.995,73c13.807,0,25-11.193,25-25C86.995,40.983,84.101,34.646,79.446,30.106z
				 M29.495,83c-1.405,0-2.5-1.18-2.5-2.5c0-1.381,1.119-2.5,2.5-2.5c0.577,0,1.102,0.203,1.525,0.532
				c0.589,0.457,0.975,1.165,0.975,1.968C31.995,81.881,30.876,83,29.495,83z"/>
		</g>
		<g>
			<path style="fill:#FA5655;" d="M79.447,30.106C74.942,25.711,68.787,23,61.996,23c-13.807,0-25,11.193-25,25
				c0,5.103,1.532,9.845,4.156,13.801L25.28,75.544c-2.827,2.448-3.139,6.693-0.295,9.56l2.806-2.806
				c-0.555-0.531-0.795-1.147-0.795-1.797c0-1.381,1.119-2.5,2.5-2.5c0.577,0,1.102,0.203,1.525,0.532
				c0.1,0.078,0.185,0.172,0.272,0.263l48.418-48.418C79.623,30.287,79.537,30.194,79.447,30.106z"/>
		</g>
		<g>
			<circle style="fill:#6FDAF1;" cx="61.995" cy="48" r="18.75"/>
		</g>
		<g>
			<path style="fill:#9CE5F4;" d="M61.995,29.25c-10.355,0-18.75,8.395-18.75,18.75c0,5.201,2.12,9.905,5.54,13.302L75.297,34.79
				C71.901,31.37,67.197,29.25,61.995,29.25z"/>
		</g>
	</g>
</g>
</svg>
