<?xml version="1.0" encoding="iso-8859-1"?>
<!-- Generator: Adobe Illustrator 17.1.0, SVG Export Plug-In . SVG Version: 6.00 Build 0)  -->
<!DOCTYPE svg PUBLIC "-//W3C//DTD SVG 1.0//EN" "http://www.w3.org/TR/2001/REC-SVG-20010904/DTD/svg10.dtd">
<svg version="1.0" xmlns="http://www.w3.org/2000/svg" xmlns:xlink="http://www.w3.org/1999/xlink" x="0px" y="0px" width="110px"
	 height="110px" viewBox="0 0 110 110" style="enable-background:new 0 0 110 110;" xml:space="preserve">
<g id="Artboard">
</g>
<g id="Multicolor">
	<circle style="fill:#25B7D3;" cx="55" cy="55" r="55"/>
	<g>
		<g>
			<path style="fill:#F0F1F1;" d="M47,55v26H27c-2.209,0-4-1.791-4-4V65.61c0-0.21,0.03-0.41,0.1-0.61c0.05-0.18,0.13-0.35,0.24-0.5
				l7.07-10.61C30.78,53.33,31.4,53,32.07,53H45C46.1,53,47,53.9,47,55z"/>
		</g>
		<g>
			<path style="fill:#CFD3D4;" d="M82.77,55.44c-1.917,4.129-4.521,7.607-7.77,10.467V71h8V54.444L82.77,55.44z"/>
		</g>
		<g>
			<path style="fill:#F0F1F1;" d="M86.89,37.6l-4.12,17.84C79.509,62.464,74.313,67.657,67.21,71c-12.55-1.59-20-8.28-21.21-21.21
				c3.291-7.06,8.473-12.232,15.56-15.56l17.84-4.12c0.34-0.08,0.69,0.03,0.93,0.27l6.29,6.29C86.86,36.91,86.97,37.26,86.89,37.6z"
				/>
		</g>
		<g>
			<path style="fill:#FFFFFF;" d="M80.33,30.38c-0.24-0.24-0.59-0.35-0.93-0.27l-17.84,4.12c-7.087,3.328-12.269,8.5-15.56,15.56
				c0.614,6.564,2.844,11.513,6.526,15.01l31.112-31.112L80.33,30.38z"/>
		</g>
		<g>
			<path style="fill:#FFFFFF;" d="M47,71h37c1.105,0,2,0.895,2,2v2H47V71z"/>
		</g>
		<g>
			<polygon style="fill:#CFD3D4;" points="47,75 86,75 82,81 47,81 			"/>
		</g>
		<g>
			<path style="fill:#40C9E7;" d="M43.056,56.916v8h-19.9c0.05-0.18,0.13-0.35,0.24-0.5l5-7.5H43.056z"/>
		</g>
		<g>
			<rect x="31" y="68.916" style="fill:#CFD3D4;" width="4" height="2"/>
		</g>
		<g>
			<circle style="fill:#3E3E3F;" cx="36" cy="80" r="7"/>
		</g>
		<g>
			<circle style="fill:#CFD3D4;" cx="36" cy="80" r="3"/>
		</g>
		<g>
			<circle style="fill:#3E3E3F;" cx="72" cy="80" r="7"/>
		</g>
		<g>
			<circle style="fill:#CFD3D4;" cx="72" cy="80" r="3"/>
		</g>
		<g>
			<path style="fill:#FACB1B;" d="M56.5,37.14c-3.39,2.37-6.2,5.32-8.43,8.85c6.35,8.78,13.96,16.59,22.56,23.16
				c3.57-2.17,6.56-4.93,8.96-8.27C70.63,54.32,62.81,46.29,56.5,37.14z"/>
		</g>
		<g>
			<path style="fill:#FBE158;" d="M56.5,37.14c-3.39,2.37-6.2,5.32-8.43,8.85c3.233,4.47,6.796,8.686,10.647,12.618l8.481-8.481
				C63.279,46.114,59.694,41.772,56.5,37.14z"/>
		</g>
	</g>
</g>
</svg>
