<?xml version="1.0" encoding="iso-8859-1"?>
<!-- Generator: Adobe Illustrator 17.1.0, SVG Export Plug-In . SVG Version: 6.00 Build 0)  -->
<!DOCTYPE svg PUBLIC "-//W3C//DTD SVG 1.0//EN" "http://www.w3.org/TR/2001/REC-SVG-20010904/DTD/svg10.dtd">
<svg version="1.0" xmlns="http://www.w3.org/2000/svg" xmlns:xlink="http://www.w3.org/1999/xlink" x="0px" y="0px" width="110px"
	 height="110px" viewBox="0 0 110 110" style="enable-background:new 0 0 110 110;" xml:space="preserve">
<g id="Artboard" style="display:none;">
	
		<rect x="-328.5" y="-1186.5" style="display:inline;fill:#808080;stroke:#000000;stroke-miterlimit:10;" width="1392" height="1369"/>
</g>
<g id="R-Multicolor">
	<circle style="fill:#FABC3D;" cx="55" cy="55" r="55"/>
	<g>
		<path style="fill:#DF2C2C;" d="M87,43V33c0-5.52-4.48-10-10-10H33c-0.69,0-1.36,0.07-2,0.2c-4.56,0.93-8,4.97-8,9.8
			c0,4.835,3.437,8.872,8,9.799V67c0,10.66-8,9.232-8,20h62c1.104,0,2-0.896,2-2v-2c0-1.104-0.896-2-2-2H71
			c-11.046,0-20-8.954-20-20V43H87z"/>
		<g>
			<path style="fill:#3E3E3F;" d="M87,43H63c0,2.209,1.791,4,4,4h16C85.209,47,87,45.209,87,43z"/>
		</g>
		<g>
			<circle style="fill:#F79392;" cx="77" cy="37" r="2"/>
		</g>
		<g>
			<circle style="fill:#F79392;" cx="69" cy="37" r="2"/>
		</g>
		<g>
			<path style="fill:#3E3E3F;" d="M47,69c0,3.31-2.69,6-6,6s-6-2.69-6-6c0-2.97,2.16-5.44,5-5.91c0.32-0.06,0.66-0.09,1-0.09
				c0.34,0,0.68,0.03,1,0.09C44.84,63.56,47,66.03,47,69z"/>
		</g>
		<g>
			<path style="fill:#E2E4E5;" d="M38.543,71.457c-0.391-0.391-0.391-1.024,0-1.414l3.75-3.75c0.391-0.391,1.024-0.391,1.414,0
				c0.391,0.391,0.391,1.024,0,1.414l-3.75,3.75C39.567,71.848,38.934,71.848,38.543,71.457z"/>
		</g>
		<g>
			<path style="fill:#E2E4E5;" d="M85.734,60.004c-2.298-4.002-5.146-5.466-8.734-7.244V47h-4v5.76
				c-3.588,1.778-6.437,3.242-8.734,7.243C64.092,60.308,64,60.65,64,61c0,8.646,5.417,14.666,10.515,15.94
				C74.674,76.98,74.837,77,75,77s0.326-0.02,0.485-0.06C80.583,75.666,86,69.646,86,61C86,60.65,85.908,60.307,85.734,60.004z
				 M68.009,61.539c1.31-2.085,2.843-3.158,4.991-4.293v14.578C70.547,70.033,68.169,66.521,68.009,61.539z M77,71.824V57.247
				c2.149,1.134,3.681,2.207,4.991,4.292C81.831,66.521,79.453,70.033,77,71.824z"/>
		</g>
		<g>
			<path style="fill:#FFFFFF;" d="M73,47v5.76c-3.588,1.778-6.437,3.242-8.734,7.243C64.092,60.308,64,60.65,64,61
				c0,8.646,5.417,14.666,10.515,15.94C74.674,76.98,74.837,77,75,77V47H73z M73,71.824c-2.453-1.791-4.831-5.303-4.991-10.285
				c1.31-2.085,2.843-3.158,4.991-4.293V71.824z"/>
		</g>
		<g>
			<path style="fill:#FA5655;" d="M31,23.2c-4.56,0.93-8,4.97-8,9.8c0,5.52,4.48,10,10,10h15.518l20-20H33
				C32.31,23,31.64,23.07,31,23.2z"/>
		</g>
		<g>
			<path style="fill:#BF0302;" d="M35,23v9c0,0.55-0.45,1-1,1h-2c-0.55,0-1-0.45-1-1v-8.8c0.64-0.13,1.31-0.2,2-0.2H35z"/>
		</g>
		<g>
			<path style="fill:#BF0302;" d="M43,23v9c0,0.55-0.45,1-1,1h-2c-0.55,0-1-0.45-1-1v-9H43z"/>
		</g>
		<g>
			<path style="fill:#BF0302;" d="M51,23v9c0,0.55-0.45,1-1,1h-2c-0.55,0-1-0.45-1-1v-9H51z"/>
		</g>
	</g>
</g>
<g id="Multicolor" style="display:none;">
	<g style="display:inline;">
		<path style="fill:#DF2C2C;" d="M87,43V33c0-5.52-4.48-10-10-10H33c-0.69,0-1.36,0.07-2,0.2c-4.56,0.93-8,4.97-8,9.8
			c0,4.835,3.437,8.872,8,9.799V67c0,10.66-8,9.232-8,20h62c1.104,0,2-0.896,2-2v-2c0-1.104-0.896-2-2-2H71
			c-11.046,0-20-8.954-20-20V43H87z"/>
		<g>
			<path style="fill:#3E3E3F;" d="M87,43H63c0,2.209,1.791,4,4,4h16C85.209,47,87,45.209,87,43z"/>
		</g>
		<g>
			<circle style="fill:#F79392;" cx="77" cy="37" r="2"/>
		</g>
		<g>
			<circle style="fill:#F79392;" cx="69" cy="37" r="2"/>
		</g>
		<g>
			<path style="fill:#3E3E3F;" d="M47,69c0,3.31-2.69,6-6,6s-6-2.69-6-6c0-2.97,2.16-5.44,5-5.91c0.32-0.06,0.66-0.09,1-0.09
				c0.34,0,0.68,0.03,1,0.09C44.84,63.56,47,66.03,47,69z"/>
		</g>
		<g>
			<path style="fill:#E2E4E5;" d="M38.543,71.457c-0.391-0.391-0.391-1.024,0-1.414l3.75-3.75c0.391-0.391,1.024-0.391,1.414,0
				c0.391,0.391,0.391,1.024,0,1.414l-3.75,3.75C39.567,71.848,38.934,71.848,38.543,71.457z"/>
		</g>
		<g>
			<path style="fill:#E2E4E5;" d="M85.734,60.004c-2.298-4.002-5.146-5.466-8.734-7.244V47h-4v5.76
				c-3.588,1.778-6.437,3.242-8.734,7.243C64.092,60.308,64,60.65,64,61c0,8.646,5.417,14.666,10.515,15.94
				C74.674,76.98,74.837,77,75,77s0.326-0.02,0.485-0.06C80.583,75.666,86,69.646,86,61C86,60.65,85.908,60.307,85.734,60.004z
				 M68.009,61.539c1.31-2.085,2.843-3.158,4.991-4.293v14.578C70.547,70.033,68.169,66.521,68.009,61.539z M77,71.824V57.247
				c2.149,1.134,3.681,2.207,4.991,4.292C81.831,66.521,79.453,70.033,77,71.824z"/>
		</g>
		<g>
			<path style="fill:#FFFFFF;" d="M73,47v5.76c-3.588,1.778-6.437,3.242-8.734,7.243C64.092,60.308,64,60.65,64,61
				c0,8.646,5.417,14.666,10.515,15.94C74.674,76.98,74.837,77,75,77V47H73z M73,71.824c-2.453-1.791-4.831-5.303-4.991-10.285
				c1.31-2.085,2.843-3.158,4.991-4.293V71.824z"/>
		</g>
		<g>
			<path style="fill:#FA5655;" d="M31,23.2c-4.56,0.93-8,4.97-8,9.8c0,5.52,4.48,10,10,10h15.518l20-20H33
				C32.31,23,31.64,23.07,31,23.2z"/>
		</g>
		<g>
			<path style="fill:#BF0302;" d="M35,23v9c0,0.55-0.45,1-1,1h-2c-0.55,0-1-0.45-1-1v-8.8c0.64-0.13,1.31-0.2,2-0.2H35z"/>
		</g>
		<g>
			<path style="fill:#BF0302;" d="M43,23v9c0,0.55-0.45,1-1,1h-2c-0.55,0-1-0.45-1-1v-9H43z"/>
		</g>
		<g>
			<path style="fill:#BF0302;" d="M51,23v9c0,0.55-0.45,1-1,1h-2c-0.55,0-1-0.45-1-1v-9H51z"/>
		</g>
	</g>
</g>
<g id="Blue" style="display:none;">
	<g style="display:inline;">
		<path style="fill:#0081A1;" d="M87,43V33c0-5.52-4.48-10-10-10H33c-0.689,0-1.359,0.07-2,0.2c-4.56,0.93-8,4.97-8,9.8
			c0,4.835,3.438,8.872,8,9.799V67c0,10.66-8,9.232-8,20h62c1.104,0,2-0.896,2-2v-2c0-1.104-0.896-2-2-2H71
			c-11.046,0-20-8.954-20-20V43H87z"/>
		<g>
			<path style="fill:#0C333D;" d="M87,43H63c0,2.209,1.791,4,4,4h16C85.209,47,87,45.209,87,43z"/>
		</g>
		<g>
			<circle style="fill:#00B7E5;" cx="77" cy="37" r="2"/>
		</g>
		<g>
			<circle style="fill:#00B7E5;" cx="69" cy="37" r="2"/>
		</g>
		<g>
			<path style="fill:#FFFFFF;" d="M47,69c0,3.31-2.689,6-6,6s-6-2.69-6-6c0-2.97,2.16-5.44,5-5.91c0.32-0.06,0.66-0.09,1-0.09
				c0.34,0,0.68,0.03,1,0.09C44.84,63.56,47,66.03,47,69z"/>
		</g>
		<g>
			<path style="fill:#009FC7;" d="M38.543,71.457c-0.391-0.39-0.391-1.023,0-1.414l3.75-3.75c0.391-0.391,1.023-0.391,1.414,0
				c0.391,0.391,0.391,1.024,0,1.414l-3.75,3.75C39.566,71.848,38.934,71.848,38.543,71.457z"/>
		</g>
		<g>
			<path style="fill:#E1F5FA;" d="M85.734,60.004c-2.299-4.002-5.146-5.466-8.734-7.244V47h-4v5.761
				c-3.588,1.777-6.438,3.242-8.734,7.243C64.092,60.308,64,60.65,64,61c0,8.646,5.418,14.666,10.516,15.94
				C74.674,76.98,74.837,77,75,77s0.326-0.02,0.484-0.06C80.582,75.666,86,69.646,86,61C86,60.65,85.908,60.307,85.734,60.004z
				 M68.009,61.539c1.31-2.085,2.843-3.158,4.991-4.292v14.578C70.547,70.033,68.17,66.521,68.009,61.539z M77,71.825V57.247
				c2.148,1.134,3.681,2.207,4.991,4.292C81.83,66.521,79.453,70.033,77,71.825z"/>
		</g>
		<g>
			<path style="fill:#FFFFFF;" d="M73,47v5.761c-3.588,1.777-6.438,3.242-8.734,7.243C64.092,60.308,64,60.65,64,61
				c0,8.646,5.418,14.666,10.516,15.94C74.674,76.98,74.837,77,75,77V47H73z M73,71.825c-2.453-1.791-4.83-5.303-4.991-10.286
				c1.31-2.085,2.843-3.158,4.991-4.292V71.825z"/>
		</g>
		<g>
			<path style="fill:#009FC7;" d="M31,23.2c-4.56,0.93-8,4.97-8,9.8c0,5.52,4.481,10,10,10h15.518l20-20H33
				C32.311,23,31.641,23.07,31,23.2z"/>
		</g>
		<g>
			<path style="fill:#0081A1;" d="M35,23v9c0,0.55-0.449,1-1,1h-2c-0.55,0-1-0.45-1-1v-8.8c0.641-0.129,1.311-0.2,2-0.2H35z"/>
		</g>
		<g>
			<path style="fill:#0081A1;" d="M43,23v9c0,0.55-0.449,1-1,1h-2c-0.55,0-1-0.45-1-1v-9H43z"/>
		</g>
		<g>
			<path style="fill:#0081A1;" d="M51,23v9c0,0.55-0.449,1-1,1h-2c-0.55,0-1-0.45-1-1v-9H51z"/>
		</g>
	</g>
</g>
<g id="R-Blue" style="display:none;">
	<circle style="display:inline;fill:#81D2EB;" cx="55" cy="55" r="55"/>
	<g style="display:inline;">
		<path style="fill:#0081A1;" d="M87,43V33c0-5.52-4.48-10-10-10H33c-0.689,0-1.359,0.07-2,0.2c-4.56,0.93-8,4.97-8,9.8
			c0,4.835,3.438,8.872,8,9.799V67c0,10.66-8,9.232-8,20h62c1.104,0,2-0.896,2-2v-2c0-1.104-0.896-2-2-2H71
			c-11.046,0-20-8.954-20-20V43H87z"/>
		<g>
			<path style="fill:#0C333D;" d="M87,43H63c0,2.209,1.791,4,4,4h16C85.209,47,87,45.209,87,43z"/>
		</g>
		<g>
			<circle style="fill:#00B7E5;" cx="77" cy="37" r="2"/>
		</g>
		<g>
			<circle style="fill:#00B7E5;" cx="69" cy="37" r="2"/>
		</g>
		<g>
			<path style="fill:#FFFFFF;" d="M47,69c0,3.31-2.689,6-6,6s-6-2.69-6-6c0-2.97,2.16-5.44,5-5.91c0.32-0.06,0.66-0.09,1-0.09
				c0.34,0,0.68,0.03,1,0.09C44.84,63.56,47,66.03,47,69z"/>
		</g>
		<g>
			<path style="fill:#009FC7;" d="M38.543,71.457c-0.391-0.39-0.391-1.023,0-1.414l3.75-3.75c0.391-0.391,1.023-0.391,1.414,0
				c0.391,0.391,0.391,1.024,0,1.414l-3.75,3.75C39.566,71.848,38.934,71.848,38.543,71.457z"/>
		</g>
		<g>
			<path style="fill:#E1F5FA;" d="M85.734,60.004c-2.299-4.002-5.146-5.466-8.734-7.244V47h-4v5.761
				c-3.588,1.777-6.438,3.242-8.734,7.243C64.092,60.308,64,60.65,64,61c0,8.647,5.418,14.666,10.516,15.94
				C74.674,76.98,74.837,77,75,77s0.326-0.02,0.484-0.06C80.582,75.666,86,69.646,86,61C86,60.65,85.908,60.307,85.734,60.004z
				 M68.009,61.539c1.31-2.085,2.843-3.158,4.991-4.292v14.578C70.547,70.033,68.17,66.521,68.009,61.539z M77,71.825V57.247
				c2.148,1.134,3.681,2.207,4.991,4.292C81.83,66.521,79.453,70.033,77,71.825z"/>
		</g>
		<g>
			<path style="fill:#FFFFFF;" d="M73,47v5.761c-3.588,1.777-6.438,3.242-8.734,7.243C64.092,60.308,64,60.65,64,61
				c0,8.647,5.418,14.666,10.516,15.94C74.674,76.98,74.837,77,75,77V47H73z M73,71.825c-2.453-1.792-4.83-5.303-4.991-10.286
				c1.31-2.085,2.843-3.158,4.991-4.292V71.825z"/>
		</g>
		<g>
			<path style="fill:#009FC7;" d="M31,23.2c-4.56,0.93-8,4.97-8,9.8c0,5.52,4.481,10,10,10h15.518l20-20H33
				C32.311,23,31.641,23.07,31,23.2z"/>
		</g>
		<g>
			<path style="fill:#0081A1;" d="M35,23v9c0,0.55-0.449,1-1,1h-2c-0.55,0-1-0.45-1-1v-8.8c0.641-0.129,1.311-0.2,2-0.2H35z"/>
		</g>
		<g>
			<path style="fill:#0081A1;" d="M43,23v9c0,0.55-0.449,1-1,1h-2c-0.55,0-1-0.45-1-1v-9H43z"/>
		</g>
		<g>
			<path style="fill:#0081A1;" d="M51,23v9c0,0.55-0.449,1-1,1h-2c-0.55,0-1-0.45-1-1v-9H51z"/>
		</g>
	</g>
</g>
<g id="Green" style="display:none;">
	<g style="display:inline;">
		<path style="fill:#009687;" d="M87,43V33c0-5.52-4.481-10-10-10H33c-0.689,0-1.359,0.07-2,0.2c-4.56,0.93-8,4.97-8,9.8
			c0,4.835,3.438,8.872,8,9.799V67c0,10.66-8,9.232-8,20h62c1.104,0,2-0.896,2-2v-2c0-1.104-0.896-2-2-2H71
			c-11.046,0-20-8.954-20-20V43H87z"/>
		<g>
			<path style="fill:#0A3631;" d="M87,43H63c0,2.209,1.791,4,4,4h16C85.209,47,87,45.209,87,43z"/>
		</g>
		<g>
			<circle style="fill:#00D6C1;" cx="77" cy="37" r="2"/>
		</g>
		<g>
			<circle style="fill:#00D6C1;" cx="69" cy="37" r="2"/>
		</g>
		<g>
			<path style="fill:#FFFFFF;" d="M47,69c0,3.31-2.689,6-6,6s-6-2.69-6-6c0-2.97,2.16-5.44,5-5.91c0.32-0.06,0.66-0.09,1-0.09
				c0.34,0,0.68,0.03,1,0.09C44.84,63.56,47,66.03,47,69z"/>
		</g>
		<g>
			<path style="fill:#00B8A5;" d="M38.543,71.457c-0.391-0.39-0.391-1.023,0-1.414l3.75-3.75c0.391-0.391,1.023-0.391,1.414,0
				c0.391,0.391,0.391,1.024,0,1.414l-3.75,3.75C39.566,71.848,38.934,71.848,38.543,71.457z"/>
		</g>
		<g>
			<path style="fill:#D7FCF9;" d="M85.734,60.004c-2.299-4.002-5.146-5.466-8.734-7.244V47h-4v5.761
				c-3.588,1.777-6.438,3.242-8.734,7.243C64.092,60.308,64,60.65,64,61c0,8.646,5.418,14.666,10.516,15.94
				C74.674,76.98,74.837,77,75,77c0.163,0,0.326-0.02,0.484-0.06C80.582,75.666,86,69.646,86,61
				C86,60.65,85.908,60.307,85.734,60.004z M68.009,61.539c1.311-2.085,2.843-3.158,4.991-4.292v14.578
				C70.547,70.033,68.17,66.521,68.009,61.539z M77,71.825V57.247c2.148,1.134,3.681,2.207,4.991,4.292
				C81.83,66.521,79.453,70.033,77,71.825z"/>
		</g>
		<g>
			<path style="fill:#FFFFFF;" d="M73,47v5.761c-3.588,1.777-6.438,3.242-8.734,7.243C64.092,60.308,64,60.65,64,61
				c0,8.646,5.418,14.666,10.516,15.94C74.674,76.98,74.837,77,75,77V47H73z M73,71.825c-2.453-1.791-4.83-5.303-4.991-10.286
				c1.311-2.085,2.843-3.158,4.991-4.292V71.825z"/>
		</g>
		<g>
			<path style="fill:#00B8A5;" d="M31,23.2c-4.56,0.93-8,4.97-8,9.8c0,5.52,4.481,10,10,10h15.518l20-20H33
				C32.31,23,31.641,23.07,31,23.2z"/>
		</g>
		<g>
			<path style="fill:#009687;" d="M35,23v9c0,0.55-0.449,1-1,1h-2c-0.55,0-1-0.45-1-1v-8.8c0.641-0.129,1.311-0.2,2-0.2H35z"/>
		</g>
		<g>
			<path style="fill:#009687;" d="M43,23v9c0,0.55-0.449,1-1,1h-2c-0.55,0-1-0.45-1-1v-9H43z"/>
		</g>
		<g>
			<path style="fill:#009687;" d="M51,23v9c0,0.55-0.449,1-1,1h-2c-0.55,0-1-0.45-1-1v-9H51z"/>
		</g>
	</g>
</g>
<g id="R-Green" style="display:none;">
	<circle style="display:inline;fill:#77E0C4;" cx="55" cy="55" r="55"/>
	<g style="display:inline;">
		<path style="fill:#009687;" d="M87,43V33c0-5.52-4.48-10-10-10H33c-0.689,0-1.359,0.07-2,0.2c-4.56,0.93-8,4.97-8,9.8
			c0,4.835,3.438,8.872,8,9.799V67c0,10.66-8,9.232-8,20h62c1.104,0,2-0.896,2-2v-2c0-1.104-0.896-2-2-2H71
			c-11.046,0-20-8.954-20-20V43H87z"/>
		<g>
			<path style="fill:#0A3631;" d="M87,43H63c0,2.209,1.791,4,4,4h16C85.209,47,87,45.209,87,43z"/>
		</g>
		<g>
			<circle style="fill:#00D6C1;" cx="77" cy="37" r="2"/>
		</g>
		<g>
			<circle style="fill:#00D6C1;" cx="69" cy="37" r="2"/>
		</g>
		<g>
			<path style="fill:#FFFFFF;" d="M47,69c0,3.31-2.689,6-6,6s-6-2.69-6-6c0-2.97,2.16-5.44,5-5.91c0.32-0.06,0.66-0.09,1-0.09
				s0.68,0.03,1,0.09C44.84,63.56,47,66.03,47,69z"/>
		</g>
		<g>
			<path style="fill:#00B8A5;" d="M38.543,71.457c-0.391-0.39-0.391-1.023,0-1.414l3.75-3.75c0.391-0.391,1.023-0.391,1.414,0
				c0.391,0.391,0.391,1.024,0,1.414l-3.75,3.75C39.566,71.848,38.934,71.848,38.543,71.457z"/>
		</g>
		<g>
			<path style="fill:#D7FCF9;" d="M85.734,60.004c-2.299-4.002-5.146-5.466-8.734-7.244V47h-4v5.761
				c-3.588,1.777-6.438,3.242-8.734,7.243C64.092,60.308,64,60.65,64,61c0,8.646,5.418,14.666,10.516,15.94
				C74.674,76.98,74.837,77,75,77s0.326-0.02,0.484-0.06C80.582,75.666,86,69.646,86,61C86,60.65,85.908,60.307,85.734,60.004z
				 M68.009,61.539c1.311-2.085,2.843-3.158,4.991-4.292v14.578C70.547,70.033,68.17,66.521,68.009,61.539z M77,71.825V57.247
				c2.148,1.134,3.681,2.207,4.991,4.292C81.83,66.521,79.453,70.033,77,71.825z"/>
		</g>
		<g>
			<path style="fill:#FFFFFF;" d="M73,47v5.761c-3.588,1.777-6.438,3.242-8.734,7.243C64.092,60.308,64,60.65,64,61
				c0,8.646,5.418,14.666,10.516,15.94C74.674,76.98,74.837,77,75,77V47H73z M73,71.825c-2.453-1.791-4.83-5.303-4.991-10.286
				c1.311-2.085,2.843-3.158,4.991-4.292V71.825z"/>
		</g>
		<g>
			<path style="fill:#00B8A5;" d="M31,23.2c-4.56,0.93-8,4.97-8,9.8c0,5.52,4.48,10,10,10h15.518l20-20H33
				C32.311,23,31.641,23.07,31,23.2z"/>
		</g>
		<g>
			<path style="fill:#009687;" d="M35,23v9c0,0.55-0.449,1-1,1h-2c-0.55,0-1-0.45-1-1v-8.8c0.641-0.129,1.311-0.2,2-0.2H35z"/>
		</g>
		<g>
			<path style="fill:#009687;" d="M43,23v9c0,0.55-0.449,1-1,1h-2c-0.55,0-1-0.45-1-1v-9H43z"/>
		</g>
		<g>
			<path style="fill:#009687;" d="M51,23v9c0,0.55-0.449,1-1,1h-2c-0.55,0-1-0.45-1-1v-9H51z"/>
		</g>
	</g>
</g>
<g id="Red" style="display:none;">
	<g style="display:inline;">
		<path style="fill:#C23023;" d="M87,43V33c0-5.52-4.481-10-10-10H33c-0.69,0-1.359,0.07-2,0.2c-4.561,0.93-8,4.97-8,9.8
			c0,4.835,3.437,8.872,8,9.799V67c0,10.66-8,9.232-8,20h62c1.104,0,2-0.896,2-2v-2c0-1.104-0.896-2-2-2H71
			c-11.046,0-20-8.954-20-20V43H87z"/>
		<g>
			<path style="fill:#4A1410;" d="M87,43H63c0,2.209,1.791,4,4,4h16C85.209,47,87,45.209,87,43z"/>
		</g>
		<g>
			<circle style="fill:#FF6C5E;" cx="77" cy="37" r="2"/>
		</g>
		<g>
			<circle style="fill:#FF6C5E;" cx="69" cy="37" r="2"/>
		</g>
		<g>
			<path style="fill:#FFFFFF;" d="M47,69c0,3.31-2.69,6-6,6c-3.311,0-6-2.69-6-6c0-2.97,2.16-5.44,5-5.91
				c0.32-0.06,0.66-0.09,1-0.09c0.34,0,0.68,0.03,1,0.09C44.84,63.56,47,66.03,47,69z"/>
		</g>
		<g>
			<path style="fill:#E54B44;" d="M38.543,71.457c-0.391-0.39-0.391-1.023,0-1.414l3.75-3.75c0.391-0.391,1.023-0.391,1.414,0
				c0.391,0.391,0.391,1.024,0,1.414l-3.75,3.75C39.566,71.848,38.934,71.848,38.543,71.457z"/>
		</g>
		<g>
			<path style="fill:#FFEFED;" d="M85.734,60.004c-2.299-4.002-5.146-5.466-8.734-7.244V47h-4v5.761
				c-3.588,1.777-6.438,3.242-8.734,7.243C64.092,60.308,64,60.65,64,61c0,8.646,5.418,14.666,10.516,15.94
				C74.674,76.98,74.837,77,75,77c0.163,0,0.326-0.02,0.484-0.06C80.582,75.666,86,69.646,86,61
				C86,60.65,85.908,60.307,85.734,60.004z M68.009,61.539c1.311-2.085,2.843-3.158,4.991-4.292v14.578
				C70.547,70.033,68.17,66.521,68.009,61.539z M77,71.825V57.247c2.148,1.134,3.681,2.207,4.991,4.292
				C81.83,66.521,79.453,70.033,77,71.825z"/>
		</g>
		<g>
			<path style="fill:#FFFFFF;" d="M73,47v5.761c-3.588,1.777-6.438,3.242-8.734,7.243C64.092,60.308,64,60.65,64,61
				c0,8.646,5.418,14.666,10.516,15.94C74.674,76.98,74.837,77,75,77V47H73z M73,71.825c-2.453-1.791-4.83-5.303-4.991-10.286
				c1.311-2.085,2.843-3.158,4.991-4.292V71.825z"/>
		</g>
		<g>
			<path style="fill:#E54B44;" d="M31,23.2c-4.561,0.93-8,4.97-8,9.8c0,5.52,4.48,10,10,10h15.518l20-20H33
				C32.31,23,31.641,23.07,31,23.2z"/>
		</g>
		<g>
			<path style="fill:#C23023;" d="M35,23v9c0,0.55-0.449,1-1,1h-2c-0.55,0-1-0.45-1-1v-8.8c0.641-0.129,1.31-0.2,2-0.2H35z"/>
		</g>
		<g>
			<path style="fill:#C23023;" d="M43,23v9c0,0.55-0.449,1-1,1h-2c-0.55,0-1-0.45-1-1v-9H43z"/>
		</g>
		<g>
			<path style="fill:#C23023;" d="M51,23v9c0,0.55-0.449,1-1,1h-2c-0.55,0-1-0.45-1-1v-9H51z"/>
		</g>
	</g>
</g>
<g id="R-Red" style="display:none;">
	<circle style="display:inline;fill:#FABBAF;" cx="55" cy="55" r="55"/>
	<g style="display:inline;">
		<path style="fill:#C23023;" d="M87,43V33c0-5.52-4.481-10-10-10H33c-0.69,0-1.359,0.07-2,0.2c-4.561,0.93-8,4.97-8,9.8
			c0,4.835,3.437,8.872,8,9.799V67c0,10.66-8,9.232-8,20h62c1.104,0,2-0.896,2-2v-2c0-1.104-0.896-2-2-2H71
			c-11.046,0-20-8.954-20-20V43H87z"/>
		<g>
			<path style="fill:#4A1410;" d="M87,43H63c0,2.209,1.791,4,4,4h16C85.209,47,87,45.209,87,43z"/>
		</g>
		<g>
			<circle style="fill:#FF6C5E;" cx="77" cy="37" r="2"/>
		</g>
		<g>
			<circle style="fill:#FF6C5E;" cx="69" cy="37" r="2"/>
		</g>
		<g>
			<path style="fill:#FFFFFF;" d="M47,69c0,3.31-2.69,6-6,6c-3.311,0-6-2.69-6-6c0-2.97,2.16-5.44,5-5.91
				c0.32-0.06,0.66-0.09,1-0.09c0.34,0,0.68,0.03,1,0.09C44.84,63.56,47,66.03,47,69z"/>
		</g>
		<g>
			<path style="fill:#E54B44;" d="M38.543,71.457c-0.391-0.39-0.391-1.023,0-1.414l3.75-3.75c0.391-0.391,1.023-0.391,1.414,0
				c0.391,0.391,0.391,1.024,0,1.414l-3.75,3.75C39.566,71.848,38.934,71.848,38.543,71.457z"/>
		</g>
		<g>
			<path style="fill:#FFEFED;" d="M85.734,60.004c-2.299-4.002-5.146-5.466-8.734-7.244V47h-4v5.761
				c-3.588,1.777-6.438,3.242-8.734,7.243C64.092,60.308,64,60.65,64,61c0,8.646,5.418,14.666,10.516,15.94
				C74.674,76.98,74.837,77,75,77c0.163,0,0.326-0.02,0.484-0.06C80.582,75.666,86,69.646,86,61
				C86,60.65,85.908,60.307,85.734,60.004z M68.009,61.539c1.311-2.085,2.843-3.158,4.991-4.292v14.578
				C70.547,70.033,68.17,66.521,68.009,61.539z M77,71.825V57.247c2.148,1.134,3.681,2.207,4.991,4.292
				C81.83,66.521,79.453,70.033,77,71.825z"/>
		</g>
		<g>
			<path style="fill:#FFFFFF;" d="M73,47v5.761c-3.588,1.777-6.438,3.242-8.734,7.243C64.092,60.308,64,60.65,64,61
				c0,8.646,5.418,14.666,10.516,15.94C74.674,76.98,74.837,77,75,77V47H73z M73,71.825c-2.453-1.791-4.83-5.303-4.991-10.286
				c1.311-2.085,2.843-3.158,4.991-4.292V71.825z"/>
		</g>
		<g>
			<path style="fill:#E54B44;" d="M31,23.2c-4.561,0.93-8,4.97-8,9.8c0,5.52,4.48,10,10,10h15.518l20-20H33
				C32.31,23,31.641,23.07,31,23.2z"/>
		</g>
		<g>
			<path style="fill:#C23023;" d="M35,23v9c0,0.55-0.449,1-1,1h-2c-0.55,0-1-0.45-1-1v-8.8c0.641-0.129,1.31-0.2,2-0.2H35z"/>
		</g>
		<g>
			<path style="fill:#C23023;" d="M43,23v9c0,0.55-0.449,1-1,1h-2c-0.55,0-1-0.45-1-1v-9H43z"/>
		</g>
		<g>
			<path style="fill:#C23023;" d="M51,23v9c0,0.55-0.449,1-1,1h-2c-0.55,0-1-0.45-1-1v-9H51z"/>
		</g>
	</g>
</g>
<g id="Yellow" style="display:none;">
	<g style="display:inline;">
		<path style="fill:#E07000;" d="M87,43V33c0-5.52-4.48-10-10-10H33c-0.689,0-1.359,0.07-2,0.2c-4.56,0.93-8,4.97-8,9.8
			c0,4.835,3.438,8.872,8,9.799V67c0,10.66-8,9.232-8,20h62c1.104,0,2-0.896,2-2v-2c0-1.104-0.896-2-2-2H71
			c-11.046,0-20-8.954-20-20V43H87z"/>
		<g>
			<path style="fill:#3D320C;" d="M87,43H63c0,2.209,1.791,4,4,4h16C85.209,47,87,45.209,87,43z"/>
		</g>
		<g>
			<circle style="fill:#FFAA00;" cx="77" cy="37" r="2"/>
		</g>
		<g>
			<circle style="fill:#FFAA00;" cx="69" cy="37" r="2"/>
		</g>
		<g>
			<path style="fill:#FFFFFF;" d="M47,69c0,3.31-2.689,6-6,6s-6-2.69-6-6c0-2.97,2.16-5.44,5-5.91c0.32-0.06,0.66-0.09,1-0.09
				s0.68,0.03,1,0.09C44.84,63.56,47,66.03,47,69z"/>
		</g>
		<g>
			<path style="fill:#FA9200;" d="M38.543,71.457c-0.391-0.39-0.391-1.023,0-1.414l3.75-3.75c0.391-0.391,1.023-0.391,1.414,0
				c0.391,0.391,0.391,1.024,0,1.414l-3.75,3.75C39.566,71.848,38.934,71.848,38.543,71.457z"/>
		</g>
		<g>
			<path style="fill:#FFF5D9;" d="M85.734,60.004c-2.299-4.002-5.146-5.466-8.734-7.244V47h-4v5.761
				c-3.588,1.777-6.438,3.242-8.734,7.243C64.092,60.308,64,60.65,64,61c0,8.646,5.418,14.666,10.516,15.94
				C74.674,76.98,74.837,77,75,77s0.326-0.02,0.484-0.06C80.582,75.666,86,69.646,86,61C86,60.65,85.908,60.307,85.734,60.004z
				 M68.009,61.539c1.311-2.085,2.843-3.158,4.991-4.292v14.578C70.547,70.033,68.17,66.521,68.009,61.539z M77,71.825V57.247
				c2.148,1.134,3.681,2.207,4.991,4.292C81.83,66.521,79.453,70.033,77,71.825z"/>
		</g>
		<g>
			<path style="fill:#FFFFFF;" d="M73,47v5.761c-3.588,1.777-6.438,3.242-8.734,7.243C64.092,60.308,64,60.65,64,61
				c0,8.646,5.418,14.666,10.516,15.94C74.674,76.98,74.837,77,75,77V47H73z M73,71.825c-2.453-1.791-4.83-5.303-4.991-10.286
				c1.311-2.085,2.843-3.158,4.991-4.292V71.825z"/>
		</g>
		<g>
			<path style="fill:#FA9200;" d="M31,23.2c-4.56,0.93-8,4.97-8,9.8c0,5.52,4.48,10,10,10h15.518l20-20H33
				C32.311,23,31.641,23.07,31,23.2z"/>
		</g>
		<g>
			<path style="fill:#E07000;" d="M35,23v9c0,0.55-0.449,1-1,1h-2c-0.55,0-1-0.45-1-1v-8.8c0.641-0.129,1.311-0.2,2-0.2H35z"/>
		</g>
		<g>
			<path style="fill:#E07000;" d="M43,23v9c0,0.55-0.449,1-1,1h-2c-0.55,0-1-0.45-1-1v-9H43z"/>
		</g>
		<g>
			<path style="fill:#E07000;" d="M51,23v9c0,0.55-0.449,1-1,1h-2c-0.55,0-1-0.45-1-1v-9H51z"/>
		</g>
	</g>
</g>
<g id="R-Yellow" style="display:none;">
	<circle style="display:inline;fill:#FFD75E;" cx="55" cy="55" r="55"/>
	<g style="display:inline;">
		<path style="fill:#E07000;" d="M87,43V33c0-5.52-4.481-10-10-10H33c-0.689,0-1.359,0.07-2,0.2c-4.56,0.93-8,4.97-8,9.8
			c0,4.835,3.438,8.872,8,9.799V67c0,10.66-8,9.232-8,20h62c1.104,0,2-0.896,2-2v-2c0-1.104-0.896-2-2-2H71
			c-11.046,0-20-8.954-20-20V43H87z"/>
		<g>
			<path style="fill:#3D320C;" d="M87,43H63c0,2.209,1.791,4,4,4h16C85.209,47,87,45.209,87,43z"/>
		</g>
		<g>
			<circle style="fill:#FFAA00;" cx="77" cy="37" r="2"/>
		</g>
		<g>
			<circle style="fill:#FFAA00;" cx="69" cy="37" r="2"/>
		</g>
		<g>
			<path style="fill:#FFFFFF;" d="M47,69c0,3.31-2.689,6-6,6s-6-2.69-6-6c0-2.97,2.16-5.44,5-5.91c0.32-0.06,0.66-0.09,1-0.09
				c0.34,0,0.68,0.03,1,0.09C44.84,63.56,47,66.03,47,69z"/>
		</g>
		<g>
			<path style="fill:#FA9200;" d="M38.543,71.457c-0.391-0.39-0.391-1.023,0-1.414l3.75-3.75c0.391-0.391,1.023-0.391,1.414,0
				c0.391,0.391,0.391,1.024,0,1.414l-3.75,3.75C39.566,71.848,38.934,71.848,38.543,71.457z"/>
		</g>
		<g>
			<path style="fill:#FFF5D9;" d="M85.734,60.004c-2.299-4.002-5.146-5.466-8.734-7.244V47h-4v5.761
				c-3.588,1.777-6.438,3.242-8.734,7.243C64.092,60.308,64,60.65,64,61c0,8.646,5.418,14.666,10.516,15.94
				C74.674,76.98,74.837,77,75,77c0.163,0,0.326-0.02,0.484-0.06C80.582,75.666,86,69.646,86,61
				C86,60.65,85.908,60.307,85.734,60.004z M68.009,61.539c1.311-2.085,2.843-3.158,4.991-4.292v14.578
				C70.547,70.033,68.17,66.521,68.009,61.539z M77,71.825V57.247c2.148,1.134,3.681,2.207,4.991,4.292
				C81.83,66.521,79.453,70.033,77,71.825z"/>
		</g>
		<g>
			<path style="fill:#FFFFFF;" d="M73,47v5.761c-3.588,1.777-6.438,3.242-8.734,7.243C64.092,60.308,64,60.65,64,61
				c0,8.646,5.418,14.666,10.516,15.94C74.674,76.98,74.837,77,75,77V47H73z M73,71.825c-2.453-1.791-4.83-5.303-4.991-10.286
				c1.311-2.085,2.843-3.158,4.991-4.292V71.825z"/>
		</g>
		<g>
			<path style="fill:#FA9200;" d="M31,23.2c-4.56,0.93-8,4.97-8,9.8c0,5.52,4.481,10,10,10h15.518l20-20H33
				C32.31,23,31.641,23.07,31,23.2z"/>
		</g>
		<g>
			<path style="fill:#E07000;" d="M35,23v9c0,0.55-0.449,1-1,1h-2c-0.55,0-1-0.45-1-1v-8.8c0.641-0.129,1.311-0.2,2-0.2H35z"/>
		</g>
		<g>
			<path style="fill:#E07000;" d="M43,23v9c0,0.55-0.449,1-1,1h-2c-0.55,0-1-0.45-1-1v-9H43z"/>
		</g>
		<g>
			<path style="fill:#E07000;" d="M51,23v9c0,0.55-0.449,1-1,1h-2c-0.55,0-1-0.45-1-1v-9H51z"/>
		</g>
	</g>
</g>
</svg>
