<?xml version="1.0" encoding="iso-8859-1"?>
<!-- Generator: Adobe Illustrator 17.1.0, SVG Export Plug-In . SVG Version: 6.00 Build 0)  -->
<!DOCTYPE svg PUBLIC "-//W3C//DTD SVG 1.0//EN" "http://www.w3.org/TR/2001/REC-SVG-20010904/DTD/svg10.dtd">
<svg version="1.0" xmlns="http://www.w3.org/2000/svg" xmlns:xlink="http://www.w3.org/1999/xlink" x="0px" y="0px" width="110px"
	 height="110px" viewBox="0 0 110 110" style="enable-background:new 0 0 110 110;" xml:space="preserve">
<g id="Artboard">
</g>
<g id="Multicolor">
	<circle style="fill:#25B7D3;" cx="55" cy="55" r="55"/>
	<g>
		<path style="fill:#3E3E3F;" d="M75,79.807c0,2.799-1.936,5.232-4.666,5.851C67.278,86.352,62.435,87,55,87
			s-12.278-0.648-15.334-1.341C36.931,85.038,35,82.612,35,79.807V29c0-3.314,2.686-6,6-6h28c3.314,0,6,2.686,6,6V79.807z"/>
		<rect x="39" y="27.641" style="fill:#17B198;" width="32" height="18"/>
		<circle style="fill:#F0F1F1;" cx="55" cy="54.141" r="4"/>
		<circle style="fill:#F0F1F1;" cx="43" cy="54.141" r="2"/>
		<circle style="fill:#F0F1F1;" cx="67" cy="54.141" r="2"/>
		<g>
			<path style="fill:#818284;" d="M47,66c0,0.552-0.448,1-1,1h-6c-0.552,0-1-0.448-1-1v-2c0-0.552,0.448-1,1-1h6
				c0.552,0,1,0.448,1,1V66z"/>
			<path style="fill:#818284;" d="M59,66c0,0.552-0.448,1-1,1h-6c-0.552,0-1-0.448-1-1v-2c0-0.552,0.448-1,1-1h6
				c0.552,0,1,0.448,1,1V66z"/>
			<path style="fill:#818284;" d="M71,66c0,0.552-0.448,1-1,1h-6c-0.552,0-1-0.448-1-1v-2c0-0.552,0.448-1,1-1h6
				c0.552,0,1,0.448,1,1V66z"/>
			<path style="fill:#818284;" d="M47,74c0,0.552-0.448,1-1,1h-6c-0.552,0-1-0.448-1-1v-2c0-0.552,0.448-1,1-1h6
				c0.552,0,1,0.448,1,1V74z"/>
			<path style="fill:#818284;" d="M59,74c0,0.552-0.448,1-1,1h-6c-0.552,0-1-0.448-1-1v-2c0-0.552,0.448-1,1-1h6
				c0.552,0,1,0.448,1,1V74z"/>
			<path style="fill:#818284;" d="M71,74c0,0.552-0.448,1-1,1h-6c-0.552,0-1-0.448-1-1v-2c0-0.552,0.448-1,1-1h6
				c0.552,0,1,0.448,1,1V74z"/>
			<path style="fill:#818284;" d="M59,82c0,0.552-0.448,1-1,1h-6c-0.552,0-1-0.448-1-1v-2c0-0.552,0.448-1,1-1h6
				c0.552,0,1,0.448,1,1V82z"/>
		</g>
		<polygon style="fill:#4AC3AF;" points="39,27.642 39,45.642 45.158,45.642 63.158,27.642 		"/>
	</g>
</g>
</svg>
