<?xml version="1.0" encoding="iso-8859-1"?>
<!-- Generator: Adobe Illustrator 17.1.0, SVG Export Plug-In . SVG Version: 6.00 Build 0)  -->
<!DOCTYPE svg PUBLIC "-//W3C//DTD SVG 1.0//EN" "http://www.w3.org/TR/2001/REC-SVG-20010904/DTD/svg10.dtd">
<svg version="1.0" xmlns="http://www.w3.org/2000/svg" xmlns:xlink="http://www.w3.org/1999/xlink" x="0px" y="0px" width="110px"
	 height="110px" viewBox="0 0 110 110" style="enable-background:new 0 0 110 110;" xml:space="preserve">
<g id="Artboard">
</g>
<g id="Multicolor">
	<circle style="fill:#E04F5F;" cx="55" cy="55" r="55"/>
	<g>
		<path style="fill:#3E3E3F;" d="M83,76.598c0,1.964-0.962,3.803-2.573,4.926C77.063,83.869,69.642,87,54,87
			c-14.92,0-21.648-2.849-24.649-5.147C27.869,80.717,27,78.954,27,77.085V29c0-3.314,2.686-6,6-6h44c3.314,0,6,2.686,6,6V76.598z"
			/>
		<path style="fill:#17B198;" d="M79,49c0,1.105-0.895,2-2,2H33c-1.105,0-2-0.895-2-2V29c0-1.105,0.895-2,2-2h44
			c1.105,0,2,0.895,2,2V49z"/>
		<circle style="fill:#818284;" cx="75" cy="65.359" r="2"/>
		<circle style="fill:#818284;" cx="35" cy="65.359" r="2"/>
		<circle style="fill:#818284;" cx="51" cy="67.359" r="2"/>
		<circle style="fill:#818284;" cx="59" cy="67.359" r="2"/>
		<circle style="fill:#818284;" cx="43" cy="66.359" r="2"/>
		<circle style="fill:#818284;" cx="67" cy="66.359" r="2"/>
		<circle style="fill:#818284;" cx="39" cy="75.359" r="2"/>
		<circle style="fill:#818284;" cx="71" cy="75.359" r="2"/>
		<circle style="fill:#818284;" cx="47" cy="76.359" r="2"/>
		<circle style="fill:#818284;" cx="63" cy="76.359" r="2"/>
		<circle style="fill:#818284;" cx="55" cy="76.359" r="2"/>
		<path style="fill:#F0F1F1;" d="M61,57c0,1.105-0.895,2-2,2h-8c-1.105,0-2-0.895-2-2s0.895-2,2-2h8C60.105,55,61,55.895,61,57z"/>
		<path style="fill:#4AC3AF;" d="M33,27c-1.104,0-2,0.896-2,2v20c0,1.104,0.896,2,2,2h7.127l24-24H33z"/>
	</g>
</g>
</svg>
