<?xml version="1.0" encoding="iso-8859-1"?>
<!-- Generator: Adobe Illustrator 17.1.0, SVG Export Plug-In . SVG Version: 6.00 Build 0)  -->
<!DOCTYPE svg PUBLIC "-//W3C//DTD SVG 1.0//EN" "http://www.w3.org/TR/2001/REC-SVG-20010904/DTD/svg10.dtd">
<svg version="1.0" xmlns="http://www.w3.org/2000/svg" xmlns:xlink="http://www.w3.org/1999/xlink" x="0px" y="0px" width="110px"
	 height="110px" viewBox="0 0 110 110" style="enable-background:new 0 0 110 110;" xml:space="preserve">
<g id="Artboard">
</g>
<g id="Multicolor">
	<circle style="fill:#25B7D3;" cx="55" cy="55" r="55"/>
	<g>
		<path style="fill:#F4D0A1;" d="M32.333,43C26,47,23,54,23,59c0,3.548,0,14.144,0,20c0,2.209,1.791,4,4,4h8V43H32.333z"/>
		<path style="fill:#EDBC7C;" d="M37.667,43C44,47,47,54,47,59c0,3.548,0,14.144,0,20c0,2.209-1.791,4-4,4h-8V43H37.667z"/>
		<g>
			<path style="fill:#EDBC7C;" d="M41,36c-2-1.333-4-2-6-2v6h3L41,36z"/>
			<path style="fill:#F4D0A1;" d="M29,36l3,4h3v-6C33,34,31,34.667,29,36z"/>
		</g>
		<path style="fill:#EDBC7C;" d="M72.333,43C66,47,63,54,63,59c0,3.548,0,14.144,0,20c0,2.209,1.791,4,4,4h8V43H72.333z"/>
		<path style="fill:#F4D0A1;" d="M77.667,43C84,47,87,54,87,59c0,3.548,0,14.144,0,20c0,2.209-1.791,4-4,4h-8V43H77.667z"/>
		<path style="fill:#F4D0A1;" d="M81,36c-2-1.333-4-2-6-2v6h3L81,36z"/>
		<path style="fill:#EDBC7C;" d="M69,36l3,4h3v-6C73,34,71,34.667,69,36z"/>
		<path style="fill:#F4D0A1;" d="M75,58.999C75,51.268,64,39,60,39H50c-4,0-15,12.268-15,20v24c0,2.209,1.791,4,4,4h32
			c2.209,0,4-1.791,4-4V58.999z"/>
		<path style="fill:#F8E1C2;" d="M50,39c-4,0-15,12.268-15,20v24c0,2.209,1.791,4,4,4h16V39H50z"/>
		<path style="fill:#F4D0A1;" d="M51,35l-4-6c5.333-4,10.667-4,16,0l-4,6H51z"/>
		<circle style="fill:#17B198;" cx="55" cy="65" r="12"/>
		<path style="fill:#F8E1C2;" d="M47,29l4,6h4v-9C52.333,26,49.667,27,47,29z"/>
		<path style="fill:#3E3E3F;" d="M38,40h-6c-0.552,0-1,0.448-1,1v0.158l-3.034,2c-0.148,0.098-0.251,0.25-0.286,0.424
			c-0.035,0.174,0,0.355,0.099,0.502l0.462,0.694c0.117,0.176,0.311,0.286,0.522,0.296c0.211,0.01,0.415-0.08,0.548-0.243
			l1.157-1.411l-0.688,2.751c-0.05,0.199-0.005,0.41,0.121,0.572C30.028,46.905,30.222,47,30.427,47h1.146
			c0.368,0,0.667-0.298,0.667-0.667V43H38c0.552,0,1-0.448,1-1v-1C39,40.448,38.552,40,38,40z"/>
		<path style="fill:#3E3E3F;" d="M82.32,43.583c-0.035-0.174-0.138-0.326-0.286-0.424l-3.034-2V41c0-0.552-0.448-1-1-1h-6
			c-0.552,0-1,0.448-1,1v1c0,0.552,0.448,1,1,1h5.76v3.333c0,0.368,0.298,0.667,0.667,0.667h1.146c0.205,0,0.399-0.095,0.526-0.256
			c0.126-0.162,0.171-0.373,0.121-0.572l-0.688-2.751l1.157,1.411c0.134,0.163,0.337,0.253,0.548,0.243
			c0.211-0.01,0.405-0.12,0.522-0.296l0.462-0.694C82.32,43.938,82.355,43.757,82.32,43.583z"/>
		<path style="fill:#3E3E3F;" d="M66.341,41.875c-0.053-0.261-0.207-0.49-0.429-0.636L61,38v-2c0-0.552-0.448-1-1-1H50
			c-0.552,0-1,0.448-1,1v2c0,0.552,0.448,1,1,1h8v7c0,0.552,0.448,1,1,1h1.719c0.308,0,0.599-0.142,0.788-0.385
			c0.189-0.243,0.257-0.559,0.182-0.858L60,39l3.894,4.748c0.201,0.245,0.506,0.38,0.823,0.365c0.317-0.016,0.607-0.18,0.783-0.444
			l0.694-1.04C66.34,42.406,66.394,42.135,66.341,41.875z"/>
		<path style="fill:#4AC3AF;" d="M55,53c-6.627,0-12,5.373-12,12s5.373,12,12,12V53z"/>
		<g>
			<path style="fill:#FFFFFF;" d="M54.843,57.93c0.397,0,0.711,0.314,0.711,0.711v0.364c0.976,0.116,1.803,0.43,2.564,0.91
				c0.265,0.149,0.496,0.397,0.496,0.794c0,0.513-0.414,0.91-0.926,0.91c-0.166,0-0.331-0.05-0.496-0.149
				c-0.579-0.348-1.141-0.596-1.704-0.728v3.176c2.514,0.628,3.589,1.638,3.589,3.407c0,1.82-1.423,3.027-3.523,3.226v0.992
				c0,0.397-0.314,0.711-0.711,0.711s-0.728-0.314-0.728-0.711v-1.025c-1.241-0.132-2.382-0.579-3.391-1.29
				c-0.281-0.182-0.447-0.447-0.447-0.794c0-0.513,0.397-0.91,0.91-0.91c0.198,0,0.397,0.066,0.546,0.182
				c0.777,0.562,1.538,0.942,2.448,1.108v-3.258c-2.415-0.629-3.54-1.539-3.54-3.407c0-1.77,1.406-2.994,3.474-3.16v-0.347
				C54.115,58.245,54.446,57.93,54.843,57.93z M54.181,63.571v-2.928c-1.059,0.099-1.588,0.662-1.588,1.389
				C52.593,62.727,52.907,63.157,54.181,63.571z M55.488,65.87v3.011c1.059-0.116,1.637-0.645,1.637-1.439
				C57.125,66.713,56.761,66.267,55.488,65.87z"/>
		</g>
	</g>
</g>
</svg>
