<?xml version="1.0" encoding="iso-8859-1"?>
<!-- Generator: Adobe Illustrator 17.1.0, SVG Export Plug-In . SVG Version: 6.00 Build 0)  -->
<!DOCTYPE svg PUBLIC "-//W3C//DTD SVG 1.0//EN" "http://www.w3.org/TR/2001/REC-SVG-20010904/DTD/svg10.dtd">
<svg version="1.0" xmlns="http://www.w3.org/2000/svg" xmlns:xlink="http://www.w3.org/1999/xlink" x="0px" y="0px" width="110px"
	 height="110px" viewBox="0 0 110 110" style="enable-background:new 0 0 110 110;" xml:space="preserve">
<g id="Artboard">
</g>
<g id="Multicolor">
	<circle style="fill:#FABC3D;" cx="55" cy="55" r="55"/>
	<g>
		<path style="fill:#FBE158;" d="M75,41c-6.627,0-12-1.343-12-3v16c0,1.65,5.37,3,12,3s12-1.35,12-3V38C87,39.657,81.627,41,75,41z"
			/>
		<ellipse style="fill:#FCF6C2;" cx="75" cy="38" rx="12" ry="3"/>
		<path style="fill:#F3B607;" d="M63,44.453c2.721,1.526,8.517,1.985,12,1.985s9.279-0.459,12-1.985V42.5
			c0,0.729-4.083,2.438-12,2.438S63,43.229,63,42.5V44.453z"/>
		<path style="fill:#F3B607;" d="M63,50.453c2.721,1.526,8.517,1.985,12,1.985s9.279-0.459,12-1.985V48.5
			c0,0.729-4.083,2.438-12,2.438S63,49.229,63,48.5V50.453z"/>
		<path style="fill:#FBEC9A;" d="M63,54.538c0,0.527,2.146,1.564,6.321,2.099l4.188-4.188c-3.472-0.115-8.147-0.635-10.509-1.959
			V54.538z"/>
		<path style="fill:#FBEC9A;" d="M63,44.491v4.047c0,0.729,4.077,2.435,11.983,2.437l4.737-4.737
			c-1.711,0.169-3.385,0.237-4.72,0.237C71.517,46.475,65.721,46.016,63,44.491z"/>
		<path style="fill:#FBEC9A;" d="M75,41.038c-6.627,0-12-1.343-12-3v4.5c0,0.729,4.083,2.438,12,2.438c2.54,0,4.68-0.177,6.423-0.44
			L87,38.958v-0.92C87,39.695,81.627,41.038,75,41.038z"/>
		<path style="fill:#FACB1B;" d="M63,42.538v1.953c2.721,1.526,8.517,1.985,12,1.985c1.335,0,3.009-0.068,4.72-0.237l1.702-1.702
			c-1.742,0.263-3.883,0.44-6.423,0.44C67.083,44.975,63,43.267,63,42.538z"/>
		<path style="fill:#FACB1B;" d="M63,48.538v1.953c2.362,1.324,7.037,1.844,10.509,1.959l1.474-1.474
			C67.077,50.972,63,49.267,63,48.538z"/>
		<path style="fill:#FBE158;" d="M51,29c-6.627,0-12-1.343-12-3v27c0,1.65,5.37,3,12,3s12-1.35,12-3V26C63,27.657,57.627,29,51,29z"
			/>
		<ellipse style="fill:#FCF6C2;" cx="51" cy="26" rx="12" ry="3"/>
		<path style="fill:#F3B607;" d="M39,32.453c2.721,1.526,8.517,1.985,12,1.985s9.279-0.459,12-1.985V30.5
			c0,0.729-4.083,2.438-12,2.438S39,31.229,39,30.5V32.453z"/>
		<path style="fill:#F3B607;" d="M39,38.453c2.721,1.526,8.517,1.985,12,1.985s9.279-0.459,12-1.985V36.5
			c0,0.729-4.083,2.438-12,2.438S39,37.229,39,36.5V38.453z"/>
		<path style="fill:#F3B607;" d="M39,44.453c2.721,1.526,8.517,1.985,12,1.985s9.279-0.459,12-1.985V42.5
			c0,0.729-4.083,2.438-12,2.438S39,43.229,39,42.5V44.453z"/>
		<path style="fill:#F3B607;" d="M39,49.515c2.721,1.526,8.517,1.985,12,1.985s9.279-0.459,12-1.985v-1.953
			C63,48.292,58.917,50,51,50s-12-1.708-12-2.437V49.515z"/>
		<path style="fill:#FBEC9A;" d="M39,47.548c0,0.305,0.722,0.78,2.128,1.23l2.88-2.881c-1.962-0.31-3.792-0.778-5.008-1.459V47.548z
			"/>
		<path style="fill:#FBEC9A;" d="M39,42.486c0,0.527,2.146,1.564,6.321,2.099l4.188-4.188c-3.472-0.115-8.147-0.635-10.509-1.959
			V42.486z"/>
		<path style="fill:#FBEC9A;" d="M39,32.438v4.047c0,0.729,4.077,2.435,11.983,2.437l4.737-4.737
			c-1.711,0.169-3.385,0.237-4.72,0.237C47.517,34.423,41.721,33.964,39,32.438z"/>
		<path style="fill:#FBEC9A;" d="M51,28.986c-6.627,0-12-1.343-12-3v4.5c0,0.729,4.083,2.438,12,2.438c2.54,0,4.68-0.177,6.423-0.44
			L63,26.906v-0.92C63,27.643,57.627,28.986,51,28.986z"/>
		<path style="fill:#FBE158;" d="M39,49.595V51l0.961-0.961C39.613,49.901,39.286,49.755,39,49.595z"/>
		<path style="fill:#FACB1B;" d="M39,30.486v1.953c2.721,1.526,8.517,1.985,12,1.985c1.335,0,3.009-0.068,4.72-0.237l1.702-1.702
			c-1.742,0.263-3.883,0.44-6.423,0.44C43.083,32.923,39,31.215,39,30.486z"/>
		<path style="fill:#FACB1B;" d="M39,36.486v1.953c2.362,1.324,7.037,1.844,10.509,1.959l1.474-1.474
			C43.077,38.92,39,37.215,39,36.486z"/>
		<path style="fill:#FACB1B;" d="M39,42.486v1.953c1.216,0.682,3.046,1.149,5.008,1.459l1.313-1.313
			C41.146,44.05,39,43.013,39,42.486z"/>
		<path style="fill:#FACB1B;" d="M39,47.642v1.953c0.286,0.16,0.613,0.307,0.961,0.444l1.167-1.167
			C39.722,48.422,39,47.947,39,47.642z"/>
		<g>
			<g>
				<path style="fill:#C2F8F0;" d="M33,48.717C42.859,53,48.511,53,54,53c5.517,0,10.744,0,21,4.874v17.409
					C65.141,71,59.489,71,54,71c-5.517,0-10.744,0-21-4.874V48.717 M30,44v24c24,12,24,0,48,12V56C54,44,54,56,30,44L30,44z"/>
			</g>
			<path style="fill:#17B198;" d="M75,75.283V57.874C64.744,53,59.517,53,54,53c-5.489,0-11.141,0-21-4.283v17.409
				C43.256,71,48.483,71,54,71C59.489,71,65.141,71,75,75.283z"/>
			<circle style="fill:#8CE3D4;" cx="54" cy="62" r="6"/>
			<path style="fill:#FFFFFF;" d="M30,44.494V68c5.159,2.58,9.205,4.046,12.622,4.884l2.521-2.521
				C41.893,69.746,38.06,68.53,33,66.126V48.717C42.859,53,48.511,53,54,53c2.556,0,5.055,0.007,8.015,0.491l2.559-2.56
				c-11.785-2.628-16.101,2.213-34.242-6.771L30,44.494z"/>
			<path style="fill:#4AC3AF;" d="M62.015,53.491C59.055,53.007,56.556,53,54,53c-5.489,0-11.141,0-21-4.283v17.409
				c5.06,2.405,8.893,3.62,12.143,4.237L62.015,53.491z"/>
			<path style="fill:#C2F8F0;" d="M54,56c-3.314,0-6,2.686-6,6c0,1.531,0.578,2.924,1.522,3.984l8.462-8.462
				C56.924,56.578,55.531,56,54,56z"/>
		</g>
		<g>
			<g>
				<path style="fill:#C2F8F0;" d="M26,55.717C35.859,60,41.511,60,47,60c5.517,0,10.744,0,21,4.874v17.409
					C58.141,78,52.489,78,47,78c-5.517,0-10.744,0-21-4.874V55.717 M23,51v24c24,12,24,0,48,12V63C47,51,47,63,23,51L23,51z"/>
			</g>
			<path style="fill:#17B198;" d="M68,82.283V64.874C57.744,60,52.517,60,47,60c-5.489,0-11.141,0-21-4.283v17.409
				C36.256,78,41.483,78,47,78C52.489,78,58.141,78,68,82.283z"/>
			<circle style="fill:#8CE3D4;" cx="47" cy="69" r="6"/>
			<path style="fill:#FFFFFF;" d="M23,51.494V75c5.159,2.58,9.205,4.046,12.622,4.884l2.521-2.521
				C34.893,76.746,31.06,75.53,26,73.126V55.717C35.859,60,41.511,60,47,60c2.556,0,5.055,0.007,8.015,0.491l2.559-2.56
				c-11.785-2.628-16.101,2.213-34.242-6.771L23,51.494z"/>
			<path style="fill:#4AC3AF;" d="M55.015,60.491C52.055,60.007,49.556,60,47,60c-5.489,0-11.141,0-21-4.283v17.409
				c5.06,2.405,8.893,3.62,12.143,4.237L55.015,60.491z"/>
			<path style="fill:#C2F8F0;" d="M47,63c-3.314,0-6,2.686-6,6c0,1.531,0.578,2.924,1.522,3.984l8.462-8.462
				C49.924,63.578,48.531,63,47,63z"/>
		</g>
	</g>
</g>
</svg>
