<?xml version="1.0" encoding="iso-8859-1"?>
<!-- Generator: Adobe Illustrator 17.1.0, SVG Export Plug-In . SVG Version: 6.00 Build 0)  -->
<!DOCTYPE svg PUBLIC "-//W3C//DTD SVG 1.0//EN" "http://www.w3.org/TR/2001/REC-SVG-20010904/DTD/svg10.dtd">
<svg version="1.0" xmlns="http://www.w3.org/2000/svg" xmlns:xlink="http://www.w3.org/1999/xlink" x="0px" y="0px" width="110px"
	 height="110px" viewBox="0 0 110 110" style="enable-background:new 0 0 110 110;" xml:space="preserve">
<g id="Artboard">
</g>
<g id="Multicolor">
	<circle style="fill:#FABC3D;" cx="55" cy="55" r="55"/>
	<g>
		<g>
			<path style="fill:#CFD3D4;" d="M34.15,65l-3.069,10.435c-0.312,1.06,0.295,2.172,1.354,2.483
				c1.057,0.312,2.171-0.293,2.483-1.354L38.32,65H34.15z"/>
		</g>
		<g>
			<path style="fill:#3E3E3F;" d="M33,66c-5.523,0-10,4.477-10,10s4.477,10,10,10s10-4.477,10-10S38.523,66,33,66z M33,82
				c-3.314,0-6-2.687-6-6c0-3.314,2.686-6,6-6s6,2.686,6,6C39,79.313,36.314,82,33,82z"/>
		</g>
		<g>
			<path style="fill:#DF2C2C;" d="M23,57.999l22.436,19.509c0.364,0.316,0.83,0.491,1.312,0.491h14.323
				c1.051,0,1.92-0.812,1.993-1.86C63.837,65.11,71.506,57.106,83,49.999c-12.898,0-19.001,2.547-23.402,5.294
				c0.943-1-5.055-9.231-13.786-9.231c-3.092,0-6.182,1.496-8.812,3.329v-8.948c0-0.671-0.336-1.297-0.895-1.667
				c-0.559-0.371-1.267-0.437-1.885-0.175c-3.507,1.487-6.775,5.543-8.86,10.039C23.89,51.779,23,55.149,23,57.999z"/>
		</g>
		<g>
			<path style="fill:#FA5655;" d="M45.812,46.062c-3.092,0-6.182,1.496-8.812,3.329v-8.948c0-0.67-0.336-1.296-0.896-1.667
				c-0.559-0.371-1.267-0.437-1.885-0.175c-3.507,1.487-6.775,5.542-8.86,10.039C23.89,51.779,23,55.149,23,58l9.364,8.143
				l18.958-18.958C49.659,46.506,47.812,46.062,45.812,46.062z"/>
		</g>
		<g>
			<path style="fill:#3E3E3F;" d="M77,66c-5.523,0-10,4.477-10,10s4.477,10,10,10s10-4.477,10-10S82.523,66,77,66z M77,82
				c-3.314,0-6-2.687-6-6c0-3.314,2.686-6,6-6s6,2.686,6,6C83,79.313,80.314,82,77,82z"/>
		</g>
		<g>
			<path style="fill:#CFD3D4;" d="M64.627,69.108c0.03,0.01,0.061,0.013,0.091,0.025l13,5c1.031,0.396,1.545,1.553,1.149,2.584
				c-0.394,1.024-1.545,1.549-2.584,1.148l-12.769-4.911C63.781,71.629,64.153,70.348,64.627,69.108z"/>
		</g>
		<g>
			<path style="fill:#3E3E3F;" d="M56.455,50.417c2.194-2.064,6.927-5.418,14.545-5.418c11,0,12,5,12,5
				c-12.898,0-19.001,2.547-23.402,5.294C60.062,54.802,58.843,52.566,56.455,50.417z"/>
		</g>
		<g>
			<path style="fill:#FBEC9A;" d="M23,57.999c0,0,4.2-0.6,8-2.13c2.712-1.085,6-2.965,6-5.87c-1.46-1.1-3.72-1.52-6-1.62
				c-2.05-0.1-4.13,0.07-5.64,0.26C23.89,51.779,23,55.149,23,57.999z"/>
		</g>
		<g>
			<path style="fill:#F3B607;" d="M31,48.379v7.49c3.14-1.26,6-3.16,6-5.87C35.54,48.899,33.28,48.479,31,48.379z"/>
		</g>
		<g>
			<path style="fill:#BF0302;" d="M37,49.999v-0.609c2.63-1.833,5.72-3.329,8.812-3.329c8.731,0,14.729,8.231,13.786,9.231
				C54.446,58.509,51.63,61.999,43,61.999c-9,0-12-3.574-12-6c0-0.044,0-0.086,0-0.13C33.712,54.785,37,52.904,37,49.999z"/>
		</g>
		<g>
			<path style="fill:#DF2C2C;" d="M45.812,46.062c-3.092,0-6.182,1.496-8.812,3.329V50c0,2.905-3.288,4.785-6,5.87
				c0,0.044,0,0.085,0,0.13c0,1.795,1.651,4.215,6.152,5.354l14.17-14.17C49.659,46.506,47.812,46.062,45.812,46.062z"/>
		</g>
	</g>
</g>
</svg>
