<?xml version="1.0" encoding="iso-8859-1"?>
<!-- Generator: Adobe Illustrator 17.1.0, SVG Export Plug-In . SVG Version: 6.00 Build 0)  -->
<!DOCTYPE svg PUBLIC "-//W3C//DTD SVG 1.0//EN" "http://www.w3.org/TR/2001/REC-SVG-20010904/DTD/svg10.dtd">
<svg version="1.0" xmlns="http://www.w3.org/2000/svg" xmlns:xlink="http://www.w3.org/1999/xlink" x="0px" y="0px" width="110px"
	 height="110px" viewBox="0 0 110 110" style="enable-background:new 0 0 110 110;" xml:space="preserve">
<g id="Artboard">
</g>
<g id="Multicolor">
	<circle style="fill:#25B7D3;" cx="55" cy="55" r="55"/>
	<g>
		<polygon style="fill:#84462D;" points="35,87 87,87 61.062,35.042 		"/>
		<polygon style="fill:#A97A45;" points="23,87 55,87 39,59 		"/>
		<polygon style="fill:#9C6144;" points="44.35,68.361 47.838,74.467 69.787,52.518 61.062,35.042 		"/>
		<polygon style="fill:#D4A263;" points="44.35,68.361 39,59 23,87 35.305,87 47.838,74.467 		"/>
		<polygon style="fill:#FFFFFF;" points="61.062,47.042 64.034,52.994 67.036,47.008 61.062,35.042 54.964,47.2 57.966,53.214 		"/>
		<polygon style="fill:#FFFFFF;" points="39.009,71 42.437,65 39.009,59 35.58,65 		"/>
		<path style="fill:#F0F1F1;" d="M38.408,31.189C37.325,28.724,34.865,27,32,27c-4.19,0-7.537,3.69-6.92,8
			c-1.29,0-2.078,0.973-2.08,1.998V37c0,0.001,0,0.001,0,0.002C23.001,38.106,23.896,39,25,39c8.8,0,12.126,0,21,0
			c0.552,0,1-0.448,1-1C47,33.626,42.915,30.136,38.408,31.189z"/>
		<path style="fill:#FFFFFF;" d="M32,27c-4.19,0-7.537,3.69-6.92,8c-1.29,0-2.078,0.973-2.08,1.998V37c0,0.001,0,0.001,0,0.002
			C23.001,38.106,23.896,39,25,39c4.736,0-0.763,0,3.716,0l9.003-9.003C36.453,28.192,34.372,27,32,27z"/>
	</g>
</g>
</svg>
