<?xml version="1.0" encoding="iso-8859-1"?>
<!-- Generator: Adobe Illustrator 17.1.0, SVG Export Plug-In . SVG Version: 6.00 Build 0)  -->
<!DOCTYPE svg PUBLIC "-//W3C//DTD SVG 1.0//EN" "http://www.w3.org/TR/2001/REC-SVG-20010904/DTD/svg10.dtd">
<svg version="1.0" xmlns="http://www.w3.org/2000/svg" xmlns:xlink="http://www.w3.org/1999/xlink" x="0px" y="0px" width="110px"
	 height="110px" viewBox="0 0 110 110" style="enable-background:new 0 0 110 110;" xml:space="preserve">
<g id="Artboard">
</g>
<g id="Multicolor">
	<g>
		<circle style="fill:#FABC3D;" cx="55" cy="55" r="55"/>
	</g>
	<g>
		<path style="fill:#692E19;" d="M82,50c1.978,1.318,2,5-1,5c-4,0-8.19-10.265-16-12c-9-2-10,4-10,4s-1-6-10-4
			c-7.81,1.735-12,12-16,12c-3,0-2.978-3.682-1-5c0,0-5,0-5,8s8,13,17,13s15-8,15-8s6,8,15,8s17-5,17-13S82,50,82,50z"/>
	</g>
</g>
</svg>
