<?xml version="1.0" encoding="iso-8859-1"?>
<!-- Generator: Adobe Illustrator 17.1.0, SVG Export Plug-In . SVG Version: 6.00 Build 0)  -->
<!DOCTYPE svg PUBLIC "-//W3C//DTD SVG 1.0//EN" "http://www.w3.org/TR/2001/REC-SVG-20010904/DTD/svg10.dtd">
<svg version="1.0" xmlns="http://www.w3.org/2000/svg" xmlns:xlink="http://www.w3.org/1999/xlink" x="0px" y="0px" width="110px"
	 height="110px" viewBox="0 0 110 110" style="enable-background:new 0 0 110 110;" xml:space="preserve">
<g id="Artboard">
</g>
<g id="Multicolor">
	<circle style="fill:#E04F5F;" cx="55" cy="55" r="55"/>
	<g>
		<path style="fill:#3E3E3F;" d="M24.824,35.434l4.979,6.97L83,34.922L81.886,27l-57.435,8.078l0.007,0.047
			C24.599,35.198,24.729,35.296,24.824,35.434z"/>
		<path style="fill:#3E3E3F;" d="M30.229,43l4.595,6.434c0.21,0.306,0.234,0.703,0.061,1.032S34.371,51,34,51h49v-8H30.229z"/>
		<path style="fill:#3E3E3F;" d="M81,51H25v32c0,2.209,1.791,4,4,4h48c2.209,0,4-1.791,4-4V51z"/>
		<path style="fill:#5B5C5F;" d="M25,51v32c0,1.075,0.43,2.047,1.12,2.766L60.886,51H25z"/>
		<polygon style="fill:#FFFFFF;" points="65,51 75,51 83,43 73,43 		"/>
		<polygon style="fill:#FFFFFF;" points="47,51 57,51 65,43 55,43 		"/>
		<polygon style="fill:#FFFFFF;" points="64.061,29.507 73.964,28.114 83,34.922 73.097,36.315 		"/>
		<polygon style="fill:#FFFFFF;" points="46.237,32.014 56.139,30.621 65.175,37.429 55.273,38.822 		"/>
		<polygon style="fill:#FFFFFF;" points="26.432,34.799 36.334,33.407 45.37,40.214 35.468,41.607 		"/>
		<path style="fill:#FFFFFF;" d="M35,43l-2.783,2.783l2.607,3.65c0.21,0.306,0.234,0.703,0.061,1.032S34.371,51,34,51h3l8-8H35z"/>
		<path style="fill:#3E3E3F;" d="M24.824,35.433c-0.248-0.361-0.702-0.518-1.121-0.388C23.285,35.175,23,35.562,23,36v14
			c0,0.552,0.448,1,1,1h10c0.371,0,0.712-0.206,0.885-0.534c0.173-0.329,0.149-0.726-0.061-1.032L24.824,35.433z"/>
		<g>
			<path style="fill:#FFFFFF;" d="M77,59v-2H29v2h11v9H29v2h48v-2H66v-9H77z M64,68H42v-9h22V68z"/>
			<rect x="29" y="77" style="fill:#FFFFFF;" width="48" height="2"/>
		</g>
	</g>
</g>
</svg>
