<?xml version="1.0" encoding="iso-8859-1"?>
<!-- Generator: Adobe Illustrator 17.1.0, SVG Export Plug-In . SVG Version: 6.00 Build 0)  -->
<!DOCTYPE svg PUBLIC "-//W3C//DTD SVG 1.0//EN" "http://www.w3.org/TR/2001/REC-SVG-20010904/DTD/svg10.dtd">
<svg version="1.0" xmlns="http://www.w3.org/2000/svg" xmlns:xlink="http://www.w3.org/1999/xlink" x="0px" y="0px" width="110px"
	 height="110px" viewBox="0 0 110 110" style="enable-background:new 0 0 110 110;" xml:space="preserve">
<g id="Artboard">
</g>
<g id="Multicolor">
	<circle style="fill:#25B7D3;" cx="55" cy="55" r="55"/>
	<g>
		<polygon style="fill:#DF2C2C;" points="47,55 63,55 75,87 35,87 		"/>
		<polygon style="fill:#FACB1B;" points="54.931,25.571 58.016,35.066 68,35.066 59.923,40.934 63.008,50.429 54.931,44.561 
			46.854,50.429 49.939,40.934 41.862,35.066 51.846,35.066 		"/>
		<path style="fill:#FACB1B;" d="M83.586,83.586C83.211,83.211,82.702,83,82.172,83h-6.343c-0.53,0-1.039,0.211-1.414,0.586L71,87
			h16L83.586,83.586z"/>
		<path style="fill:#FACB1B;" d="M35.586,83.586C35.211,83.211,34.702,83,34.172,83h-6.343c-0.53,0-1.039,0.211-1.414,0.586L23,87
			h16L35.586,83.586z"/>
		<path style="fill:#FFFFFF;" d="M55,65.402c-8.849,0-16.769-4.054-22-10.402v7.134c5.891,5.143,13.585,8.269,22,8.269
			s16.109-3.126,22-8.269V55C71.769,61.348,63.849,65.402,55,65.402z"/>
		<path style="fill:#84462D;" d="M79,48c-0.732,0-1.41-0.211-2-0.555V83h4V47.445C80.41,47.789,79.732,48,79,48z"/>
		<circle style="fill:#FACB1B;" cx="79" cy="44" r="4"/>
		<path style="fill:#84462D;" d="M31,48c-0.732,0-1.41-0.211-2-0.555V83h4V47.445C32.41,47.789,31.732,48,31,48z"/>
		<circle style="fill:#FACB1B;" cx="31" cy="44" r="4"/>
		<path style="fill:#FBEC9A;" d="M27,44c0,2.209,1.791,4,4,4v-8C28.791,40,27,41.791,27,44z"/>
		<path style="fill:#FBEC9A;" d="M31,83h-3.171c-0.531,0-1.04,0.211-1.415,0.586L23,87h8V83z"/>
		<path style="fill:#FBEC9A;" d="M75,44c0,2.209,1.791,4,4,4v-8C76.791,40,75,41.791,75,44z"/>
		<path style="fill:#FBEC9A;" d="M79,83h-3.171c-0.531,0-1.04,0.211-1.415,0.586L71,87h8V83z"/>
		<polygon style="fill:#FBEC9A;" points="55,25.783 54.931,25.571 51.846,35.066 41.862,35.066 49.939,40.934 46.854,50.429 
			54.931,44.561 55,44.611 		"/>
	</g>
</g>
</svg>
