<?xml version="1.0" encoding="iso-8859-1"?>
<!-- Generator: Adobe Illustrator 17.1.0, SVG Export Plug-In . SVG Version: 6.00 Build 0)  -->
<!DOCTYPE svg PUBLIC "-//W3C//DTD SVG 1.0//EN" "http://www.w3.org/TR/2001/REC-SVG-20010904/DTD/svg10.dtd">
<svg version="1.0" xmlns="http://www.w3.org/2000/svg" xmlns:xlink="http://www.w3.org/1999/xlink" x="0px" y="0px" width="110px"
	 height="110px" viewBox="0 0 110 110" style="enable-background:new 0 0 110 110;" xml:space="preserve">
<g id="Artboard">
</g>
<g id="Multicolor">
	<circle style="fill:#E04F5F;" cx="55" cy="55" r="55"/>
	<g>
		<g>
			<circle style="fill:#3E3E3F;" cx="54" cy="51" r="18.667"/>
			<path style="fill:#5B5C5F;" d="M54,32.333c-10.309,0-18.667,8.358-18.667,18.667c0,4.978,1.961,9.489,5.137,12.836l26.366-26.366
				C63.489,34.294,58.978,32.333,54,32.333z"/>
		</g>
		<path style="fill:#3E3E3F;" d="M80.765,42.757C81.567,45.363,82,48.131,82,51c0,3.684-0.719,7.198-2.012,10.42
			C77.889,73.673,67.222,83,54.37,83c-5.06,0-9.79-1.45-13.79-3.96L38,82.13C42.7,85.21,48.33,87,54.37,87c16.57,0,30-13.43,30-30
			C84.37,51.842,83.062,46.994,80.765,42.757z"/>
		<path style="fill:#E2E4E5;" d="M54,23c-15.464,0-28,12.536-28,28s12.536,28,28,28c15.464,0,28-12.536,28-28S69.464,23,54,23z
			 M68,35.833c3.866,0,7,3.134,7,7s-3.134,7-7,7s-7-3.134-7-7S64.134,35.833,68,35.833z M54,27.667c3.866,0,7,3.134,7,7
			s-3.134,7-7,7s-7-3.134-7-7S50.134,27.667,54,27.667z M57.5,51c0,1.933-1.567,3.5-3.5,3.5s-3.5-1.567-3.5-3.5s1.567-3.5,3.5-3.5
			S57.5,49.067,57.5,51z M40,35.833c3.866,0,7,3.134,7,7s-3.134,7-7,7s-7-3.134-7-7S36.134,35.833,40,35.833z M40,66.167
			c-3.866,0-7-3.134-7-7s3.134-7,7-7s7,3.134,7,7S43.866,66.167,40,66.167z M54,74.333c-3.866,0-7-3.134-7-7s3.134-7,7-7
			s7,3.134,7,7S57.866,74.333,54,74.333z M68,66.167c-3.866,0-7-3.134-7-7s3.134-7,7-7s7,3.134,7,7S71.866,66.167,68,66.167z"/>
		<path style="fill:#FFFFFF;" d="M33,59.167c0-3.866,3.134-7,7-7c3.518,0,6.422,2.598,6.917,5.979l4.642-4.643
			C50.907,52.868,50.5,51.982,50.5,51c0-1.933,1.567-3.5,3.5-3.5c0.982,0,1.867,0.407,2.503,1.06l4.596-4.597
			C61.039,43.595,61,43.219,61,42.833c0-3.866,3.134-7,7-7c0.385,0,0.761,0.04,1.13,0.099l4.7-4.7C68.76,26.147,61.748,23,54,23
			c-15.464,0-28,12.536-28,28c0,7.748,3.148,14.76,8.233,19.83l4.746-4.746C35.598,65.588,33,62.685,33,59.167z M54,27.667
			c3.866,0,7,3.134,7,7s-3.134,7-7,7s-7-3.134-7-7S50.134,27.667,54,27.667z M40,35.833c3.866,0,7,3.134,7,7s-3.134,7-7,7
			s-7-3.134-7-7S36.134,35.833,40,35.833z"/>
	</g>
</g>
</svg>
