<?xml version="1.0" encoding="iso-8859-1"?>
<!-- Generator: Adobe Illustrator 17.1.0, SVG Export Plug-In . SVG Version: 6.00 Build 0)  -->
<!DOCTYPE svg PUBLIC "-//W3C//DTD SVG 1.0//EN" "http://www.w3.org/TR/2001/REC-SVG-20010904/DTD/svg10.dtd">
<svg version="1.0" xmlns="http://www.w3.org/2000/svg" xmlns:xlink="http://www.w3.org/1999/xlink" x="0px" y="0px" width="110px"
	 height="110px" viewBox="0 0 110 110" style="enable-background:new 0 0 110 110;" xml:space="preserve">
<g id="Artboard">
</g>
<g id="Multicolor">
	<circle style="fill:#FABC3D;" cx="55" cy="55" r="55"/>
	<g>
		<path style="fill:#0484AB;" d="M87,75c0,2.209-1.791,4-4,4H43c-2.209,0-4-1.791-4-4V51c0-2.209,1.791-4,4-4h40
			c2.209,0,4,1.791,4,4V75z"/>
		<path style="fill:#059BBF;" d="M79,67c0,2.209-1.791,4-4,4H35c-2.209,0-4-1.791-4-4V43c0-2.209,1.791-4,4-4h40
			c2.209,0,4,1.791,4,4V67z"/>
		<path style="fill:#21B2D1;" d="M71,59c0,2.209-1.791,4-4,4H27c-2.209,0-4-1.791-4-4V35c0-2.209,1.791-4,4-4h40
			c2.209,0,4,1.791,4,4V59z"/>
		<path style="fill:#40C9E7;" d="M27,31c-2.209,0-4,1.791-4,4v24c0,1.057,0.418,2.012,1.088,2.727L54.815,31H27z"/>
		<path style="fill:#FFFFFF;" d="M67,31H27c-2.209,0-4,1.791-4,4v4h48v-4C71,32.791,69.209,31,67,31z"/>
		<circle style="fill:#FA5655;" cx="29" cy="35" r="2"/>
		<circle style="fill:#F3B607;" cx="35" cy="35" r="2"/>
		<circle style="fill:#4AC3AF;" cx="41" cy="35" r="2"/>
	</g>
</g>
</svg>
