<?xml version="1.0" encoding="iso-8859-1"?>
<!-- Generator: Adobe Illustrator 17.1.0, SVG Export Plug-In . SVG Version: 6.00 Build 0)  -->
<!DOCTYPE svg PUBLIC "-//W3C//DTD SVG 1.0//EN" "http://www.w3.org/TR/2001/REC-SVG-20010904/DTD/svg10.dtd">
<svg version="1.0" xmlns="http://www.w3.org/2000/svg" xmlns:xlink="http://www.w3.org/1999/xlink" x="0px" y="0px" width="110px"
	 height="110px" viewBox="0 0 110 110" style="enable-background:new 0 0 110 110;" xml:space="preserve">
<g id="Artboard">
</g>
<g id="Multicolor">
	<circle style="fill:#E04F5F;" cx="55" cy="55" r="55"/>
	<g>
		<g>
			<path style="fill:#F7B4B4;" d="M86.97,47.205c0-6.59-5.342-11.932-11.932-11.932c-6.59,0-11.932,5.342-11.932,11.932
				c0,1.971,0.486,3.825,1.332,5.463c-7.097-0.598-12.059,6.633-9.185,12.977c-6.003-5.52-16.01-10.847-16.01-10.847
				S36.661,54.339,41,50c1.844-1.844,2.703-5.79-1.757-6.049c0,0,0-7.593-4.339-7.593S19.833,42.5,24,49
				c4.546,7.091,5.48,3.628,6.565,12.306C31.65,69.984,39.243,83,52.259,83s22.779-15.186,24.948-20.609
				C88.055,58.052,86.97,47.205,86.97,47.205z"/>
		</g>
		<g>
			<path style="fill:#FBC8C8;" d="M75.038,35.273c-6.59,0-11.932,5.342-11.932,11.932c0,1.971,0.486,3.825,1.332,5.463
				c-7.097-0.598-12.059,6.633-9.185,12.977c-6.003-5.52-16.01-10.847-16.01-10.847S36.661,54.339,41,50
				c1.844-1.844,2.703-5.79-1.757-6.049c0,0,0-7.593-4.339-7.593S19.833,42.5,24,49c4.545,7.091,5.48,3.628,6.565,12.306
				c0.808,6.465,5.231,15.335,12.815,19.44l40.979-40.979C82.173,37.031,78.813,35.273,75.038,35.273z"/>
		</g>
		<g>
			<path style="fill:#3E3E3F;" d="M81.899,51.411l-0.434-3.037l-3.037,0.434l0.874,0.655c-0.807,1.03-1.926,1.714-3.179,1.965V46.12
				h1.085c0.597,0,1.085-0.488,1.085-1.085s-0.488-1.085-1.085-1.085h-1.085v-1.085c0-0.597-0.488-1.085-1.085-1.085
				s-1.085,0.488-1.085,1.085v1.085h-1.085c-0.597,0-1.085,0.488-1.085,1.085s0.488,1.085,1.085,1.085h1.085v5.305
				c-1.251-0.256-2.376-0.947-3.175-1.964l0.87-0.652l-3.037-0.434l-0.434,3.037l0.868-0.651c1.435,1.85,3.951,3.264,6.305,3.264
				c2.338,0,4.256-1.415,5.687-3.26L81.899,51.411z"/>
		</g>
	</g>
</g>
</svg>
