<?xml version="1.0" encoding="iso-8859-1"?>
<!-- Generator: Adobe Illustrator 17.1.0, SVG Export Plug-In . SVG Version: 6.00 Build 0)  -->
<!DOCTYPE svg PUBLIC "-//W3C//DTD SVG 1.0//EN" "http://www.w3.org/TR/2001/REC-SVG-20010904/DTD/svg10.dtd">
<svg version="1.0" xmlns="http://www.w3.org/2000/svg" xmlns:xlink="http://www.w3.org/1999/xlink" x="0px" y="0px" width="110px"
	 height="110px" viewBox="0 0 110 110" style="enable-background:new 0 0 110 110;" xml:space="preserve">
<g id="Artboard">
</g>
<g id="Multicolor">
	<circle style="fill:#25B7D3;" cx="55" cy="55" r="55"/>
	<g>
		<path style="fill:#DF2C2C;" d="M59,27h-4h-4c-15.464,0-28,12.536-28,28v8c0,8.837,7.164,16,16,16h16h16c8.836,0,16-7.163,16-16v-8
			C87,39.536,74.464,27,59,27z"/>
		<path style="fill:#FA5655;" d="M51,27c-15.464,0-28,12.536-28,28v8c0,8.836,7.164,16,16,16h16V27H51z"/>
		<path style="fill:#F8E1C2;" d="M35,71c8-11,32-11,40,0v8c0,4.418-3.582,8-8,8H43c-4.418,0-8-3.582-8-8V71z"/>
		<path style="fill:#FCF1E2;" d="M35,71v8c0,4.418,3.582,8,8,8h12V62.75C47,62.75,39,65.5,35,71z"/>
		<path style="fill:#3E3E3F;" d="M61,71c0-1.105,0.895-2,2-2s2,0.895,2,2v9c0,1.105-0.895,2-2,2s-2-0.895-2-2V71z"/>
		<path style="fill:#3E3E3F;" d="M45,71c0-1.105,0.895-2,2-2s2,0.895,2,2v9c0,1.105-0.895,2-2,2s-2-0.895-2-2V71z"/>
		<path style="fill:#FFFFFF;" d="M77.722,34.183c-4.392-3.952-10.04-6.53-16.273-7.07C60.536,28.521,60,30.197,60,32
			c0,4.971,4.029,9,9,9C73.216,41,76.745,38.097,77.722,34.183z"/>
		<path style="fill:#FFFFFF;" d="M76,54c0,4.971,4.029,9,9,9c0.688,0,1.356-0.084,2-0.231V55c0-3.521-0.656-6.888-1.843-9.992
			C85.104,45.007,85.053,45,85,45C80.029,45,76,49.029,76,54z"/>
		<path style="fill:#FFFFFF;" d="M32.278,34.183c4.392-3.952,10.04-6.53,16.273-7.07C49.464,28.521,50,30.197,50,32
			c0,4.971-4.029,9-9,9C36.784,41,33.255,38.097,32.278,34.183z"/>
		<path style="fill:#FFFFFF;" d="M34,54c0,4.971-4.029,9-9,9c-0.688,0-1.356-0.084-2-0.231V55c0-3.521,0.656-6.888,1.843-9.992
			C24.896,45.007,24.947,45,25,45C29.971,45,34,49.029,34,54z"/>
		<path style="fill:#FFFFFF;" d="M66.992,65.022C67.64,63.477,68,61.781,68,60c0-7.18-5.82-13-13-13s-13,5.82-13,13
			c0,1.781,0.36,3.477,1.008,5.022C50.24,62.003,59.76,62.003,66.992,65.022z"/>
		<ellipse style="fill:#FFFFFF;" cx="47" cy="72" rx="1" ry="2"/>
		<ellipse style="fill:#FFFFFF;" cx="63" cy="72" rx="1" ry="2"/>
	</g>
</g>
</svg>
