<?xml version="1.0" encoding="iso-8859-1"?>
<!-- Generator: Adobe Illustrator 17.1.0, SVG Export Plug-In . SVG Version: 6.00 Build 0)  -->
<!DOCTYPE svg PUBLIC "-//W3C//DTD SVG 1.0//EN" "http://www.w3.org/TR/2001/REC-SVG-20010904/DTD/svg10.dtd">
<svg version="1.0" xmlns="http://www.w3.org/2000/svg" xmlns:xlink="http://www.w3.org/1999/xlink" x="0px" y="0px" width="110px"
	 height="110px" viewBox="0 0 110 110" style="enable-background:new 0 0 110 110;" xml:space="preserve">
<g id="Artboard">
</g>
<g id="Multicolor">
	<circle style="fill:#FABC3D;" cx="55" cy="55" r="55"/>
	<g>
		<path style="fill:#3E3E3F;" d="M36.774,30.919l2.253,41.309c-1.545-0.618-3.318-0.97-5.205-0.97
			C27.845,71.258,23,74.782,23,79.129C23,83.476,27.845,87,33.823,87c3.081,0,5.855-0.941,7.826-2.444
			c2.582-1.342,3.981-5.274,3.981-8.379l0.984-37.387l27.548-2.952l0.69,29.681c-1.638-0.724-3.553-1.149-5.61-1.149
			c-5.977,0-10.823,3.524-10.823,7.871s4.845,7.871,10.823,7.871c3.081,0,5.855-0.941,7.826-2.444
			c2.582-1.342,3.981-5.274,3.981-8.379L84,23.048L36.774,30.919z"/>
	</g>
</g>
</svg>
