<?xml version="1.0" encoding="iso-8859-1"?>
<!-- Generator: Adobe Illustrator 17.1.0, SVG Export Plug-In . SVG Version: 6.00 Build 0)  -->
<!DOCTYPE svg PUBLIC "-//W3C//DTD SVG 1.0//EN" "http://www.w3.org/TR/2001/REC-SVG-20010904/DTD/svg10.dtd">
<svg version="1.0" xmlns="http://www.w3.org/2000/svg" xmlns:xlink="http://www.w3.org/1999/xlink" x="0px" y="0px" width="110px"
	 height="110px" viewBox="0 0 110 110" style="enable-background:new 0 0 110 110;" xml:space="preserve">
<g id="Artboard">
</g>
<g id="Multicolor">
	<circle style="fill:#32BEA6;" cx="55" cy="55" r="55"/>
	<g>
		<g>
			<path style="fill:#F0F1F1;" d="M65,81c-14.359,0-26-11.641-26-26s11.641-26,26-26c3.273,0,6.404,0.605,9.289,1.709
				c0.231,0.088,0.492-0.005,0.614-0.22c0.122-0.215,0.069-0.487-0.126-0.64C69.333,25.561,62.467,23,55,23
				c-17.673,0-32,14.327-32,32s14.327,32,32,32c7.467,0,14.334-2.561,19.777-6.849c0.194-0.153,0.247-0.425,0.125-0.64
				c-0.122-0.215-0.383-0.309-0.613-0.22C71.404,80.395,68.273,81,65,81z"/>
		</g>
		<g>
			<polygon style="fill:#FACB1B;" points="70.974,41.049 73.935,50.59 83.515,50.59 75.764,55.791 78.725,64.902 70.974,59.271 
				63.224,64.902 66.184,55.791 58.434,50.59 68.014,50.59 			"/>
		</g>
		<g>
			<path style="fill:#FFFFFF;" d="M39,55c0-14.359,11.641-26,26-26c3.273,0,6.404,0.605,9.289,1.709
				c0.231,0.088,0.492-0.005,0.614-0.22c0.122-0.215,0.069-0.487-0.126-0.64C69.333,25.561,62.467,23,55,23
				c-17.673,0-32,14.327-32,32c0,8.001,2.944,15.311,7.798,20.921l10.418-10.418C39.795,62.29,39,58.739,39,55z"/>
		</g>
	</g>
</g>
</svg>
