<?xml version="1.0" encoding="iso-8859-1"?>
<!-- Generator: Adobe Illustrator 17.1.0, SVG Export Plug-In . SVG Version: 6.00 Build 0)  -->
<!DOCTYPE svg PUBLIC "-//W3C//DTD SVG 1.0//EN" "http://www.w3.org/TR/2001/REC-SVG-20010904/DTD/svg10.dtd">
<svg version="1.0" xmlns="http://www.w3.org/2000/svg" xmlns:xlink="http://www.w3.org/1999/xlink" x="0px" y="0px" width="110px"
	 height="110px" viewBox="0 0 110 110" style="enable-background:new 0 0 110 110;" xml:space="preserve">
<g id="Artboard">
</g>
<g id="Multicolor">
	<circle style="fill:#32BEA6;" cx="55" cy="55" r="55"/>
	<g>
		<g>
			<path style="fill:#3E3E3F;" d="M58.856,24c-2.667-1.333-5.333-1.333-8,0l-3.725,26.073c-0.151,1.059,0.606,2.027,1.671,2.127
				c2.867,0.267,8.307,0.653,12.201,0.147c1.031-0.134,1.746-1.092,1.599-2.121L58.856,24z"/>
		</g>
		<g>
			<path style="fill:#5B5C5F;" d="M54.905,23.003c-1.349-0.008-2.699,0.322-4.048,0.997l-3.725,26.073
				c-0.151,1.059,0.606,2.027,1.671,2.126c1.517,0.142,3.755,0.315,6.102,0.373V23.003z"/>
		</g>
		<g>
			<path style="fill:#F0F1F1;" d="M73.303,54.403c-12.227-4.511-24.544-4.532-36.795-0.036c-0.948,0.348-1.468,1.37-1.223,2.35
				l5.497,21.988l1.114,4.457C42.461,85.417,44.488,87,46.813,87H64.65c2.439,0,4.532-1.737,4.981-4.134l4.918-26.231
				C74.727,55.688,74.207,54.736,73.303,54.403z"/>
		</g>
		<g>
			<path style="fill:#FFFFFF;" d="M54.905,51.015c-6.132-0.009-12.265,1.102-18.396,3.352c-0.948,0.348-1.468,1.37-1.223,2.35
				l5.497,21.988l1.114,4.457C42.461,85.417,44.488,87,46.813,87h8.091V51.015z"/>
		</g>
		<g>
			<path style="fill:#DF2C2C;" d="M70.684,59.442c0.129-0.687-0.249-1.377-0.904-1.619c-8.895-3.282-20.95-3.264-29.845,0
				c-0.688,0.252-1.064,0.994-0.887,1.704l6.419,20.689C45.876,81.852,47.346,83,49.033,83H61.97c1.769,0,3.287-1.26,3.613-2.998
				L70.684,59.442z"/>
		</g>
		<g>
			<path style="fill:#FA5655;" d="M54.905,55.368c-5.253-0.003-10.509,0.817-14.97,2.454c-0.688,0.252-1.064,0.994-0.887,1.704
				l6.42,20.689C45.876,81.852,47.346,83,49.033,83h5.872V55.368z"/>
		</g>
	</g>
</g>
</svg>
