<?xml version="1.0" encoding="iso-8859-1"?>
<!-- Generator: Adobe Illustrator 17.1.0, SVG Export Plug-In . SVG Version: 6.00 Build 0)  -->
<!DOCTYPE svg PUBLIC "-//W3C//DTD SVG 1.0//EN" "http://www.w3.org/TR/2001/REC-SVG-20010904/DTD/svg10.dtd">
<svg version="1.0" xmlns="http://www.w3.org/2000/svg" xmlns:xlink="http://www.w3.org/1999/xlink" x="0px" y="0px" width="110px"
	 height="110px" viewBox="0 0 110 110" style="enable-background:new 0 0 110 110;" xml:space="preserve">
<g id="Artboard">
</g>
<g id="Multicolor">
	<circle style="fill:#32BEA6;" cx="55" cy="55" r="55"/>
	<g>
		<g>
			<path style="fill:#F0F1F1;" d="M83,47c0,0-7,40-28,40S27,47,27,47c10.481-3.272,22.666-9.311,20-20c5.33-2.67,10.67-2.67,16,0
				C60.822,38.125,72.127,43.794,83,47z"/>
		</g>
		<path style="fill:#FFFFFF;" d="M47,27.002c2.667,10.691-9.525,16.729-20,20c0,0,7,40,28,40V25C52.333,25,49.665,25.667,47,27.002z
			"/>
		<g>
			<path style="fill:#FACB1B;" d="M66.64,38.64C65.13,44.99,61.05,50.98,55,55.73c-6.08-4.78-10.17-10.8-11.67-17.19
				c-0.51,0.5-1.08,1-1.7,1.48c1.836,6.619,6.235,12.803,12.625,17.666c0.109-0.251,0.213-0.489,0.302-0.693
				c0.17-0.386,0.716-0.386,0.886,0c0.09,0.204,0.193,0.441,0.302,0.693c6.35-4.833,10.729-10.967,12.584-17.536
				C67.71,39.66,67.15,39.16,66.64,38.64z"/>
		</g>
		<g>
			<path style="fill:#F3B607;" d="M59.843,67.455c0,2.672-2.166,4.839-4.839,4.839s-4.839-2.166-4.839-4.839
				c0-2.119,3.043-9.246,4.303-12.105c0.206-0.467,0.866-0.467,1.072,0C56.8,58.21,59.843,65.336,59.843,67.455z"/>
		</g>
		<g>
			<path style="fill:#FACB1B;" d="M57.77,67.11c0,1.527-1.238,2.765-2.765,2.765s-2.765-1.238-2.765-2.765s2.765-6.912,2.765-6.912
				S57.77,65.583,57.77,67.11z"/>
		</g>
		<path style="fill:#F3B607;" d="M55,55.001c-0.215,0.001-0.429,0.117-0.531,0.349c-1.26,2.859-4.303,9.985-4.303,12.104
			c0,2.671,2.164,4.836,4.834,4.838V55.001z"/>
		<path style="fill:#FBE158;" d="M55,60.207c-0.051,0.099-2.76,5.39-2.76,6.903c0,1.525,1.235,2.762,2.76,2.764V60.207z"/>
	</g>
</g>
</svg>
