<?xml version="1.0" encoding="iso-8859-1"?>
<!-- Generator: Adobe Illustrator 17.1.0, SVG Export Plug-In . SVG Version: 6.00 Build 0)  -->
<!DOCTYPE svg PUBLIC "-//W3C//DTD SVG 1.0//EN" "http://www.w3.org/TR/2001/REC-SVG-20010904/DTD/svg10.dtd">
<svg version="1.0" xmlns="http://www.w3.org/2000/svg" xmlns:xlink="http://www.w3.org/1999/xlink" x="0px" y="0px" width="110px"
	 height="110px" viewBox="0 0 110 110" style="enable-background:new 0 0 110 110;" xml:space="preserve">
<g id="Artboard">
</g>
<g id="Multicolor">
	<circle style="fill:#FABC3D;" cx="55" cy="55" r="55"/>
	<g>
		<g>
			<path style="fill:#40C9E7;" d="M58.696,37.841C57.59,38.419,56.334,38.75,55,38.75s-2.589-0.331-3.696-0.909L43,74.75l12,12
				l12-12L58.696,37.841z"/>
		</g>
		<path style="fill:#059BBF;" d="M76.628,56c-10.349-2.217-13.369-8.25-17.747-17.336l3.83,17.021
			c3.218,2.909,7.24,5.021,12.661,6.183L79,59.777L76.628,56z"/>
		<g>
			<path style="fill:#0484AB;" d="M63,26.75c-2-5-14-5-16,0v4c0,4.418,3.582,8,8,8s8-3.582,8-8V26.75z"/>
		</g>
		<g>
			<path style="fill:#6FDAF1;" d="M51.305,37.841L43,74.75l12,12v-48C53.666,38.75,52.411,38.419,51.305,37.841z"/>
		</g>
		<g>
			<polygon style="fill:#0484AB;" points="66.08,70.67 52.5,84.25 48.84,80.59 64.74,64.69 			"/>
		</g>
		<g>
			<polygon style="fill:#0484AB;" points="63.63,59.78 45.83,77.58 43,74.75 43.48,72.61 62.29,53.8 			"/>
		</g>
		<g>
			<polygon style="fill:#0484AB;" points="61.18,48.89 45.23,64.84 47.35,55.4 59.84,42.91 			"/>
		</g>
		<g>
			<path style="fill:#0484AB;" d="M55,38.75c-1.333,0-2.587-0.331-3.693-0.908L49.1,47.63L58.73,38l-0.036-0.158
				C57.589,38.419,56.334,38.75,55,38.75z"/>
		</g>
		<g>
			<polygon style="fill:#059BBF;" points="55,74.43 48.84,80.59 52.5,84.25 55,81.75 			"/>
		</g>
		<g>
			<polygon style="fill:#059BBF;" points="55,61.09 43.48,72.61 43,74.75 45.83,77.58 55,68.41 			"/>
		</g>
		<g>
			<polygon style="fill:#059BBF;" points="55,47.75 47.35,55.4 45.23,64.84 55,55.07 			"/>
		</g>
		<g>
			<path style="fill:#059BBF;" d="M55,38.75c-1.333,0-2.587-0.331-3.693-0.908L49.1,47.63l5.9-5.9V38.75z"/>
		</g>
	</g>
</g>
</svg>
