<?xml version="1.0" encoding="iso-8859-1"?>
<!-- Generator: Adobe Illustrator 17.1.0, SVG Export Plug-In . SVG Version: 6.00 Build 0)  -->
<!DOCTYPE svg PUBLIC "-//W3C//DTD SVG 1.0//EN" "http://www.w3.org/TR/2001/REC-SVG-20010904/DTD/svg10.dtd">
<svg version="1.0" xmlns="http://www.w3.org/2000/svg" xmlns:xlink="http://www.w3.org/1999/xlink" x="0px" y="0px" width="110px"
	 height="110px" viewBox="0 0 110 110" style="enable-background:new 0 0 110 110;" xml:space="preserve">
<g id="Artboard">
</g>
<g id="Multicolor">
	<circle style="fill:#E04F5F;" cx="55" cy="55" r="55"/>
	<g>
		<g>
			<path style="fill:#E2E4E5;" d="M84.433,25.558c-8.283-8.283-16.26,6.16-16.21,7.73c-12.02,14.64-44.4,52.18-44.4,52.19
				c-0.16,0.19-0.15,0.48,0.03,0.67c0.18,0.18,0.47,0.19,0.67,0.03c0,0,37.63-32.45,52.22-44.44
				C78.087,41.827,92.818,33.942,84.433,25.558z M75.243,37.578c-0.78,0.79-2.05,0.79-2.83,0c-0.78-0.78-0.78-2.04,0-2.82
				c5.522-5.522,2.192-2.171,5.66-5.66c0.78-0.78,2.05-0.78,2.83,0c0.78,0.78,0.78,2.05,0,2.83
				C78.792,34.026,80.088,32.732,75.243,37.578z"/>
		</g>
		<g>
			<g>
				<path style="fill:#3E3E3F;" d="M61.663,33.487l-10.64,10.64c-6.671,6.671-16.755,7.967-27.58-2.82c-0.59-0.59-0.59-1.54,0-2.13
					c0.59-0.58,1.53-0.58,2.12,0c9.268,9.268,17.516,8.654,23.34,2.83l10.64-10.64c3.14-3.14,7.54-4.25,11.58-3.33
					c-0.74,0.94-1.35,1.89-1.82,2.73C66.573,30.497,63.753,31.397,61.663,33.487z"/>
			</g>
			<g>
				<path style="fill:#3E3E3F;" d="M67.993,61.097c-2.74,2.74-4.25,6.38-4.25,10.26c0,6.856,4.132,10.132,7.08,13.08
					c0.58,0.58,0.58,1.54,0,2.12c-0.59,0.59-1.54,0.59-2.13,0c-3.063-3.074-7.95-7.058-7.95-15.2c0-4.68,1.82-9.07,5.13-12.38
					l10.64-10.64c2.08-2.08,2.99-4.91,2.71-7.64c-0.18-1.8-0.87-3.55-2.08-5.02c-0.512-0.614-2.196-2.331-2.82-2.83l2.13-2.12
					c0.584,0.487,2.333,2.236,2.82,2.82c1.36,1.57,2.25,3.41,2.69,5.33c0.91,4.04-0.2,8.45-3.33,11.58L67.993,61.097z"/>
			</g>
		</g>
		<g>
			<path style="fill:#FFFFFF;" d="M68.223,33.288c-12.02,14.64-44.4,52.18-44.4,52.19c-0.156,0.185-0.147,0.463,0.019,0.653
				l48.563-48.563c-0.771-0.781-0.768-2.033,0.008-2.81c5.522-5.522,2.192-2.17,5.66-5.66c0.775-0.775,2.033-0.778,2.814-0.013
				l3.536-3.536C76.144,17.287,68.173,31.719,68.223,33.288z"/>
		</g>
	</g>
</g>
</svg>
