<?xml version="1.0" encoding="iso-8859-1"?>
<!-- Generator: Adobe Illustrator 17.1.0, SVG Export Plug-In . SVG Version: 6.00 Build 0)  -->
<!DOCTYPE svg PUBLIC "-//W3C//DTD SVG 1.0//EN" "http://www.w3.org/TR/2001/REC-SVG-20010904/DTD/svg10.dtd">
<svg version="1.0" xmlns="http://www.w3.org/2000/svg" xmlns:xlink="http://www.w3.org/1999/xlink" x="0px" y="0px" width="110px"
	 height="110px" viewBox="0 0 110 110" style="enable-background:new 0 0 110 110;" xml:space="preserve">
<g id="Artboard" style="display:none;">
	
		<rect x="-584.5" y="-802.5" style="display:inline;fill:#808080;stroke:#000000;stroke-miterlimit:10;" width="1392" height="1369"/>
</g>
<g id="R-Multicolor">
	<circle style="fill:#E04F5F;" cx="55" cy="55" r="55"/>
	<g>
		<path style="fill:#F0F1F1;" d="M86.447,59.393C86.258,59.146,85.964,59,85.653,59H24.197c-0.312,0-0.606,0.146-0.795,0.393
			c-0.189,0.248-0.252,0.569-0.17,0.87C24.371,64.45,29.049,77.893,43.003,83h-0.078v2c0,1.104,0.895,2,2,2h20c1.104,0,2-0.896,2-2
			v-2c0,0,14.734-4.514,19.693-22.737C86.7,59.962,86.636,59.641,86.447,59.393z"/>
		<g>
			<path style="fill:#FFFFFF;" d="M54.197,59h-30c-0.312,0-0.605,0.146-0.795,0.393c-0.189,0.248-0.252,0.569-0.17,0.87
				C28.192,78.486,42.925,83,42.925,83v2c0,1.104,0.895,2,2,2h9.271V59z"/>
		</g>
		<g>
			<path style="fill:#40C9E7;" d="M30.925,63c4,0,4,8,8,8s4-8,8-8s4,8,8,8c4,0,4-8,7.999-8s4,8,8,8s4-8,8-8
				c2.362,0,3.332,2.785,4.551,5.07c1.763-3.294,2.706-6.217,3.141-7.806c0.082-0.301,0.019-0.623-0.17-0.871S85.963,59,85.651,59
				H24.199c-0.312,0-0.606,0.145-0.795,0.393c-0.189,0.248-0.253,0.57-0.17,0.871c0.434,1.59,1.378,4.513,3.141,7.806
				C27.594,65.785,28.563,63,30.925,63z"/>
		</g>
		<g>
			<polygon style="fill:#692E19;" points="26.949,28.043 26.924,30.043 87,32.16 87,28.483 			"/>
		</g>
		<g>
			<polygon style="fill:#692E19;" points="27.144,32.522 26.999,34.517 87,38.643 87,34.985 			"/>
		</g>
		<g>
			<path style="fill:#FFFFFF;" d="M47.197,59h-6c0,0,2-2,2-8s-4-10-4-16c0-3.949,0.866-7.031,1.459-8.677
				C40.941,25.529,41.694,25,42.538,25h1.794c0.631,0,1.224,0.297,1.602,0.802s0.495,1.159,0.317,1.763
				c-0.517,1.757-1.053,4.327-1.053,7.434c0,6,4,10,4,16S47.197,59,47.197,59z"/>
		</g>
		<g>
			<path style="fill:#FFFFFF;" d="M56.197,59h-6c0,0,2-2,2-8s-4-10-4-16c0-3.949,0.866-7.031,1.459-8.677
				C49.941,25.529,50.694,25,51.538,25h1.794c0.631,0,1.224,0.297,1.602,0.802s0.495,1.159,0.317,1.763
				c-0.517,1.757-1.053,4.327-1.053,7.434c0,6,4,10,4,16S56.197,59,56.197,59z"/>
		</g>
		<g>
			<path style="fill:#FFFFFF;" d="M65.197,59h-6c0,0,2-2,2-8s-4-10-4-16c0-3.949,0.866-7.031,1.459-8.677
				C58.941,25.529,59.694,25,60.538,25h1.794c0.631,0,1.224,0.297,1.602,0.802s0.495,1.159,0.317,1.763
				c-0.517,1.757-1.053,4.327-1.053,7.434c0,6,4,10,4,16S65.197,59,65.197,59z"/>
		</g>
		<g>
			<path style="fill:#6FDAF1;" d="M54.197,59H24.199c-0.312,0-0.606,0.146-0.795,0.393c-0.189,0.248-0.252,0.57-0.17,0.871
				c0.434,1.59,1.378,4.513,3.14,7.806c1.22-2.285,2.189-5.07,4.551-5.07c4,0,4,8,8,8s4-8,8-8c3.741,0,3.984,6.993,7.271,7.9V59z"/>
		</g>
	</g>
</g>
<g id="Multicolor" style="display:none;">
	<g style="display:inline;">
		<path style="fill:#F0F1F1;" d="M86.447,59.393C86.258,59.146,85.964,59,85.653,59H24.197c-0.312,0-0.606,0.146-0.795,0.393
			c-0.189,0.248-0.252,0.569-0.17,0.87C24.371,64.45,29.049,77.893,43.003,83h-0.078v2c0,1.104,0.895,2,2,2h20c1.104,0,2-0.896,2-2
			v-2c0,0,14.734-4.514,19.693-22.737C86.7,59.962,86.636,59.641,86.447,59.393z"/>
		<g>
			<path style="fill:#FFFFFF;" d="M54.197,59h-30c-0.312,0-0.605,0.146-0.795,0.393c-0.189,0.248-0.252,0.569-0.17,0.87
				C28.192,78.486,42.925,83,42.925,83v2c0,1.104,0.895,2,2,2h9.271V59z"/>
		</g>
		<g>
			<path style="fill:#40C9E7;" d="M30.925,63c4,0,4,8,8,8s4-8,8-8s4,8,8,8c4,0,4-8,7.999-8s4,8,8,8s4-8,8-8
				c2.362,0,3.332,2.785,4.551,5.07c1.763-3.294,2.706-6.217,3.141-7.806c0.082-0.301,0.019-0.623-0.17-0.871S85.963,59,85.651,59
				H24.199c-0.312,0-0.606,0.145-0.795,0.393c-0.189,0.248-0.253,0.57-0.17,0.871c0.434,1.59,1.378,4.513,3.141,7.806
				C27.594,65.785,28.563,63,30.925,63z"/>
		</g>
		<g>
			<polygon style="fill:#692E19;" points="26.949,28.043 26.924,30.043 87,32.16 87,28.483 			"/>
		</g>
		<g>
			<polygon style="fill:#692E19;" points="27.144,32.522 26.999,34.517 87,38.643 87,34.985 			"/>
		</g>
		<g>
			<path style="fill:#FFFFFF;" d="M47.197,59h-6c0,0,2-2,2-8s-4-10-4-16c0-3.949,0.866-7.031,1.459-8.677
				C40.941,25.529,41.694,25,42.538,25h1.794c0.631,0,1.224,0.297,1.602,0.802s0.495,1.159,0.317,1.763
				c-0.517,1.757-1.053,4.327-1.053,7.434c0,6,4,10,4,16S47.197,59,47.197,59z"/>
		</g>
		<g>
			<path style="fill:#FFFFFF;" d="M56.197,59h-6c0,0,2-2,2-8s-4-10-4-16c0-3.949,0.866-7.031,1.459-8.677
				C49.941,25.529,50.694,25,51.538,25h1.794c0.631,0,1.224,0.297,1.602,0.802s0.495,1.159,0.317,1.763
				c-0.517,1.757-1.053,4.327-1.053,7.434c0,6,4,10,4,16S56.197,59,56.197,59z"/>
		</g>
		<g>
			<path style="fill:#FFFFFF;" d="M65.197,59h-6c0,0,2-2,2-8s-4-10-4-16c0-3.949,0.866-7.031,1.459-8.677
				C58.941,25.529,59.694,25,60.538,25h1.794c0.631,0,1.224,0.297,1.602,0.802s0.495,1.159,0.317,1.763
				c-0.517,1.757-1.053,4.327-1.053,7.434c0,6,4,10,4,16S65.197,59,65.197,59z"/>
		</g>
		<g>
			<path style="fill:#6FDAF1;" d="M54.197,59H24.199c-0.312,0-0.606,0.146-0.795,0.393c-0.189,0.248-0.252,0.57-0.17,0.871
				c0.434,1.59,1.378,4.513,3.14,7.806c1.22-2.285,2.189-5.07,4.551-5.07c4,0,4,8,8,8s4-8,8-8c3.741,0,3.984,6.993,7.271,7.9V59z"/>
		</g>
	</g>
</g>
<g id="Blue" style="display:none;">
	<g style="display:inline;">
		<path style="fill:#E1F5FA;" d="M86.447,59.393C86.258,59.146,85.965,59,85.652,59H24.197c-0.312,0-0.605,0.146-0.795,0.393
			c-0.189,0.248-0.252,0.569-0.17,0.87C24.371,64.45,29.049,77.893,43.004,83h-0.079v2c0,1.104,0.896,2,2,2h20c1.104,0,2-0.896,2-2
			v-2c0,0,14.733-4.514,19.693-22.737C86.7,59.962,86.637,59.641,86.447,59.393z"/>
		<g>
			<path style="fill:#FFFFFF;" d="M54.197,59h-30c-0.312,0-0.605,0.146-0.795,0.393c-0.189,0.248-0.252,0.569-0.17,0.87
				C28.191,78.486,42.926,83,42.926,83v2c0,1.104,0.895,2,2,2h9.271V59z"/>
		</g>
		<g>
			<path style="fill:#0081A1;" d="M30.925,63c4,0,4,8,8,8s4-8,8.001-8c4,0,3.999,8,8,8c4,0,3.999-8,7.999-8c3.999,0,4,8,8,8s4-8,8-8
				c2.362,0,3.331,2.786,4.551,5.07c1.763-3.293,2.706-6.217,3.141-7.806c0.082-0.301,0.02-0.623-0.17-0.871
				C86.257,59.146,85.963,59,85.651,59H24.199c-0.312,0-0.606,0.146-0.795,0.394c-0.19,0.247-0.253,0.57-0.171,0.871
				c0.435,1.589,1.378,4.513,3.141,7.806C27.594,65.785,28.564,63,30.925,63z"/>
		</g>
		<g>
			<polygon style="fill:#0C333D;" points="26.948,28.044 26.924,30.044 87,32.16 87,28.483 			"/>
		</g>
		<g>
			<polygon style="fill:#0C333D;" points="27.145,32.522 26.999,34.517 87,38.643 87,34.985 			"/>
		</g>
		<g>
			<path style="fill:#FFFFFF;" d="M47.197,59h-6c0,0,2-2,2-8s-4-10-4-16c0-3.948,0.865-7.031,1.458-8.677
				C40.941,25.529,41.693,25,42.537,25h1.794c0.631,0,1.225,0.297,1.603,0.803c0.377,0.505,0.494,1.158,0.316,1.763
				c-0.518,1.757-1.053,4.328-1.053,7.434c0,6,4,10,4,16S47.197,59,47.197,59z"/>
		</g>
		<g>
			<path style="fill:#FFFFFF;" d="M56.197,59h-6c0,0,2-2,2-8s-4-10-4-16c0-3.948,0.865-7.031,1.458-8.677
				C49.941,25.529,50.693,25,51.537,25h1.794c0.631,0,1.225,0.297,1.603,0.803c0.377,0.505,0.494,1.158,0.316,1.763
				c-0.518,1.757-1.053,4.328-1.053,7.434c0,6,4,10,4,16S56.197,59,56.197,59z"/>
		</g>
		<g>
			<path style="fill:#FFFFFF;" d="M65.197,59h-6c0,0,2-2,2-8s-4-10-4-16c0-3.948,0.865-7.031,1.458-8.677
				C58.941,25.529,59.693,25,60.537,25h1.794c0.631,0,1.225,0.297,1.603,0.803c0.377,0.505,0.494,1.158,0.316,1.763
				c-0.518,1.757-1.053,4.328-1.053,7.434c0,6,4,10,4,16S65.197,59,65.197,59z"/>
		</g>
		<g>
			<path style="fill:#009FC7;" d="M54.197,59H24.199c-0.312,0-0.606,0.146-0.795,0.393c-0.19,0.248-0.253,0.57-0.17,0.871
				c0.434,1.59,1.377,4.513,3.14,7.806c1.22-2.285,2.19-5.07,4.551-5.07c4,0,4,8,8,8s4-8,8.001-8c3.74,0,3.984,6.993,7.271,7.9V59z"
				/>
		</g>
	</g>
</g>
<g id="R-Blue" style="display:none;">
	<circle style="display:inline;fill:#81D2EB;" cx="55" cy="55" r="55"/>
	<g style="display:inline;">
		<path style="fill:#E1F5FA;" d="M86.447,59.393C86.258,59.145,85.965,59,85.652,59H24.197c-0.312,0-0.605,0.146-0.795,0.393
			c-0.189,0.248-0.252,0.569-0.17,0.87C24.371,64.45,29.049,77.893,43.004,83h-0.079v2c0,1.104,0.896,2,2,2h20c1.104,0,2-0.896,2-2
			v-2c0,0,14.733-4.514,19.693-22.737C86.7,59.962,86.637,59.641,86.447,59.393z"/>
		<g>
			<path style="fill:#FFFFFF;" d="M54.197,59h-30c-0.312,0-0.605,0.146-0.795,0.393c-0.189,0.248-0.252,0.569-0.17,0.87
				C28.191,78.486,42.926,83,42.926,83v2c0,1.104,0.895,2,2,2h9.271V59z"/>
		</g>
		<g>
			<path style="fill:#0081A1;" d="M30.925,63c4,0,4,8,8,8s4-8,8.001-8c4,0,3.999,8,8,8c4,0,3.999-8,7.999-8c3.999,0,4,8,8,8s4-8,8-8
				c2.362,0,3.331,2.786,4.551,5.07c1.763-3.293,2.706-6.217,3.141-7.806c0.082-0.301,0.02-0.623-0.17-0.871
				C86.257,59.145,85.963,59,85.651,59H24.199c-0.312,0-0.606,0.146-0.795,0.394c-0.19,0.247-0.253,0.57-0.171,0.871
				c0.435,1.589,1.378,4.513,3.141,7.806C27.594,65.785,28.564,63,30.925,63z"/>
		</g>
		<g>
			<polygon style="fill:#0C333D;" points="26.948,28.043 26.924,30.043 87,32.16 87,28.483 			"/>
		</g>
		<g>
			<polygon style="fill:#0C333D;" points="27.145,32.522 26.999,34.517 87,38.643 87,34.985 			"/>
		</g>
		<g>
			<path style="fill:#FFFFFF;" d="M47.197,59h-6c0,0,2-2,2-8s-4-10-4-16c0-3.948,0.865-7.031,1.458-8.677
				C40.941,25.529,41.693,25,42.537,25h1.794c0.631,0,1.225,0.297,1.603,0.803c0.377,0.505,0.494,1.158,0.316,1.763
				c-0.518,1.757-1.053,4.328-1.053,7.434c0,6,4,10,4,16S47.197,59,47.197,59z"/>
		</g>
		<g>
			<path style="fill:#FFFFFF;" d="M56.197,59h-6c0,0,2-2,2-8s-4-10-4-16c0-3.948,0.865-7.031,1.458-8.677
				C49.941,25.529,50.693,25,51.537,25h1.794c0.631,0,1.225,0.297,1.603,0.803c0.377,0.505,0.494,1.158,0.316,1.763
				c-0.518,1.757-1.053,4.328-1.053,7.434c0,6,4,10,4,16S56.197,59,56.197,59z"/>
		</g>
		<g>
			<path style="fill:#FFFFFF;" d="M65.197,59h-6c0,0,2-2,2-8s-4-10-4-16c0-3.948,0.865-7.031,1.458-8.677
				C58.941,25.529,59.693,25,60.537,25h1.794c0.631,0,1.225,0.297,1.603,0.803c0.377,0.505,0.494,1.158,0.316,1.763
				c-0.518,1.757-1.053,4.328-1.053,7.434c0,6,4,10,4,16S65.197,59,65.197,59z"/>
		</g>
		<g>
			<path style="fill:#009FC7;" d="M54.197,59H24.199c-0.312,0-0.606,0.146-0.795,0.393c-0.19,0.248-0.253,0.57-0.17,0.871
				c0.434,1.59,1.377,4.513,3.14,7.806c1.22-2.285,2.19-5.07,4.551-5.07c4,0,4,8,8,8s4-8,8.001-8c3.74,0,3.984,6.993,7.271,7.9V59z"
				/>
		</g>
	</g>
</g>
<g id="Green" style="display:none;">
	<g style="display:inline;">
		<path style="fill:#D7FCF9;" d="M86.447,59.393C86.258,59.146,85.965,59,85.652,59H24.197c-0.312,0-0.605,0.146-0.795,0.393
			c-0.189,0.248-0.252,0.569-0.17,0.87C24.371,64.45,29.049,77.893,43.004,83h-0.079v2c0,1.104,0.896,2,2,2h20c1.104,0,2-0.896,2-2
			v-2c0,0,14.733-4.514,19.693-22.737C86.7,59.962,86.637,59.641,86.447,59.393z"/>
		<g>
			<path style="fill:#FFFFFF;" d="M54.197,59h-30c-0.312,0-0.605,0.146-0.795,0.393c-0.189,0.248-0.252,0.569-0.17,0.87
				C28.191,78.486,42.926,83,42.926,83v2c0,1.104,0.895,2,2,2h9.271V59z"/>
		</g>
		<g>
			<path style="fill:#009687;" d="M30.925,63c4,0,4,8,8,8s4-8,8.001-8c4,0,3.999,8,8,8c4,0,3.999-8,7.999-8c3.999,0,4,8,8,8s4-8,8-8
				c2.362,0,3.331,2.786,4.551,5.07c1.763-3.293,2.706-6.217,3.141-7.806c0.082-0.301,0.02-0.623-0.17-0.871
				C86.257,59.146,85.963,59,85.651,59H24.199c-0.312,0-0.606,0.146-0.795,0.394c-0.19,0.247-0.253,0.57-0.171,0.871
				c0.435,1.589,1.378,4.513,3.141,7.806C27.594,65.785,28.563,63,30.925,63z"/>
		</g>
		<g>
			<polygon style="fill:#0A3631;" points="26.948,28.044 26.924,30.044 87,32.16 87,28.483 			"/>
		</g>
		<g>
			<polygon style="fill:#0A3631;" points="27.144,32.522 26.999,34.517 87,38.643 87,34.985 			"/>
		</g>
		<g>
			<path style="fill:#FFFFFF;" d="M47.197,59h-6c0,0,2-2,2-8s-4-10-4-16c0-3.948,0.865-7.031,1.458-8.677
				C40.941,25.529,41.693,25,42.537,25h1.794c0.631,0,1.225,0.297,1.603,0.803c0.377,0.505,0.494,1.158,0.316,1.763
				c-0.518,1.757-1.053,4.328-1.053,7.434c0,6,4,10,4,16S47.197,59,47.197,59z"/>
		</g>
		<g>
			<path style="fill:#FFFFFF;" d="M56.197,59h-6c0,0,2-2,2-8s-4-10-4-16c0-3.948,0.865-7.031,1.458-8.677
				C49.941,25.529,50.693,25,51.537,25h1.794c0.631,0,1.225,0.297,1.603,0.803c0.377,0.505,0.494,1.158,0.316,1.763
				c-0.518,1.757-1.053,4.328-1.053,7.434c0,6,4,10,4,16S56.197,59,56.197,59z"/>
		</g>
		<g>
			<path style="fill:#FFFFFF;" d="M65.197,59h-6c0,0,2-2,2-8s-4-10-4-16c0-3.948,0.865-7.031,1.458-8.677
				C58.941,25.529,59.693,25,60.537,25h1.794c0.631,0,1.225,0.297,1.603,0.803c0.377,0.505,0.494,1.158,0.316,1.763
				c-0.518,1.757-1.053,4.328-1.053,7.434c0,6,4,10,4,16S65.197,59,65.197,59z"/>
		</g>
		<g>
			<path style="fill:#00B8A5;" d="M54.197,59H24.199c-0.312,0-0.606,0.146-0.795,0.393c-0.19,0.248-0.253,0.57-0.17,0.871
				c0.434,1.59,1.377,4.513,3.14,7.806c1.22-2.285,2.19-5.07,4.551-5.07c4,0,4,8,8,8s4-8,8.001-8c3.74,0,3.984,6.993,7.271,7.9V59z"
				/>
		</g>
	</g>
</g>
<g id="R-Green" style="display:none;">
	<circle style="display:inline;fill:#77E0C4;" cx="55" cy="55" r="55"/>
	<g style="display:inline;">
		<path style="fill:#D7FCF9;" d="M86.447,59.393C86.258,59.146,85.965,59,85.652,59H24.197c-0.312,0-0.605,0.146-0.795,0.393
			c-0.189,0.248-0.252,0.569-0.17,0.87C24.371,64.45,29.049,77.893,43.004,83h-0.079v2c0,1.104,0.896,2,2,2h20c1.104,0,2-0.896,2-2
			v-2c0,0,14.733-4.514,19.693-22.737C86.7,59.962,86.637,59.641,86.447,59.393z"/>
		<g>
			<path style="fill:#FFFFFF;" d="M54.197,59h-30c-0.312,0-0.605,0.146-0.795,0.393c-0.189,0.248-0.252,0.569-0.17,0.87
				C28.191,78.486,42.926,83,42.926,83v2c0,1.104,0.895,2,2,2h9.271V59z"/>
		</g>
		<g>
			<path style="fill:#009687;" d="M30.925,63c4,0,4,8,8,8s4-8,8.001-8c4,0,3.999,8,8,8c4,0,3.999-8,7.999-8c3.999,0,4,8,8,8s4-8,8-8
				c2.362,0,3.331,2.786,4.551,5.07c1.763-3.293,2.706-6.217,3.141-7.806c0.082-0.301,0.019-0.623-0.17-0.871
				C86.257,59.146,85.963,59,85.651,59H24.199c-0.312,0-0.605,0.146-0.795,0.394c-0.19,0.247-0.253,0.57-0.171,0.871
				c0.435,1.589,1.378,4.513,3.141,7.806C27.594,65.785,28.563,63,30.925,63z"/>
		</g>
		<g>
			<polygon style="fill:#0A3631;" points="26.948,28.044 26.924,30.044 87,32.16 87,28.483 			"/>
		</g>
		<g>
			<polygon style="fill:#0A3631;" points="27.145,32.522 26.999,34.517 87,38.643 87,34.985 			"/>
		</g>
		<g>
			<path style="fill:#FFFFFF;" d="M47.197,59h-6c0,0,2-2,2-8s-4-10-4-16c0-3.948,0.865-7.031,1.458-8.677
				C40.941,25.529,41.693,25,42.537,25h1.794c0.631,0,1.225,0.297,1.603,0.803c0.377,0.505,0.494,1.158,0.316,1.763
				c-0.518,1.757-1.053,4.328-1.053,7.434c0,6,4,10,4,16S47.197,59,47.197,59z"/>
		</g>
		<g>
			<path style="fill:#FFFFFF;" d="M56.197,59h-6c0,0,2-2,2-8s-4-10-4-16c0-3.948,0.865-7.031,1.458-8.677
				C49.941,25.529,50.693,25,51.537,25h1.794c0.631,0,1.225,0.297,1.603,0.803c0.377,0.505,0.494,1.158,0.316,1.763
				c-0.518,1.757-1.053,4.328-1.053,7.434c0,6,4,10,4,16S56.197,59,56.197,59z"/>
		</g>
		<g>
			<path style="fill:#FFFFFF;" d="M65.197,59h-6c0,0,2-2,2-8s-4-10-4-16c0-3.948,0.865-7.031,1.458-8.677
				C58.941,25.529,59.693,25,60.537,25h1.794c0.631,0,1.225,0.297,1.603,0.803c0.377,0.505,0.494,1.158,0.316,1.763
				c-0.518,1.757-1.053,4.328-1.053,7.434c0,6,4,10,4,16S65.197,59,65.197,59z"/>
		</g>
		<g>
			<path style="fill:#00B8A5;" d="M54.197,59H24.199c-0.312,0-0.605,0.146-0.795,0.393c-0.19,0.248-0.253,0.57-0.17,0.871
				c0.434,1.59,1.377,4.513,3.14,7.806c1.22-2.285,2.189-5.07,4.551-5.07c4,0,4,8,8,8s4-8,8.001-8c3.74,0,3.984,6.993,7.271,7.9V59z
				"/>
		</g>
	</g>
</g>
<g id="Red" style="display:none;">
	<g style="display:inline;">
		<path style="fill:#FFEFED;" d="M86.447,59.393C86.258,59.146,85.965,59,85.652,59H24.197c-0.312,0-0.605,0.146-0.795,0.393
			c-0.189,0.248-0.252,0.569-0.17,0.87C24.371,64.45,29.049,77.893,43.004,83h-0.079v2c0,1.104,0.896,2,2,2h20c1.104,0,2-0.896,2-2
			v-2c0,0,14.733-4.514,19.693-22.737C86.7,59.962,86.637,59.641,86.447,59.393z"/>
		<g>
			<path style="fill:#FFFFFF;" d="M54.197,59h-30c-0.312,0-0.605,0.146-0.795,0.393c-0.189,0.248-0.252,0.569-0.17,0.87
				C28.191,78.486,42.926,83,42.926,83v2c0,1.104,0.895,2,2,2h9.271V59z"/>
		</g>
		<g>
			<path style="fill:#C23023;" d="M30.925,63c4,0,4,8,8,8s4-8,8.001-8c4,0,3.999,8,8,8c4,0,3.999-8,7.999-8c3.999,0,4,8,8,8s4-8,8-8
				c2.362,0,3.331,2.786,4.551,5.07c1.763-3.293,2.706-6.217,3.141-7.806c0.082-0.301,0.02-0.623-0.17-0.871
				C86.257,59.146,85.963,59,85.651,59H24.199c-0.312,0-0.605,0.146-0.795,0.394c-0.19,0.247-0.253,0.57-0.171,0.871
				c0.435,1.589,1.378,4.513,3.141,7.806C27.594,65.785,28.563,63,30.925,63z"/>
		</g>
		<g>
			<polygon style="fill:#4A1410;" points="26.948,28.044 26.924,30.044 87,32.16 87,28.483 			"/>
		</g>
		<g>
			<polygon style="fill:#4A1410;" points="27.144,32.522 26.999,34.517 87,38.643 87,34.985 			"/>
		</g>
		<g>
			<path style="fill:#FFFFFF;" d="M47.197,59h-6c0,0,2-2,2-8s-4-10-4-16c0-3.948,0.865-7.031,1.458-8.677
				C40.941,25.529,41.693,25,42.537,25h1.794c0.631,0,1.225,0.297,1.602,0.803c0.377,0.505,0.494,1.158,0.316,1.763
				c-0.518,1.757-1.053,4.328-1.053,7.434c0,6,4,10,4,16S47.197,59,47.197,59z"/>
		</g>
		<g>
			<path style="fill:#FFFFFF;" d="M56.197,59h-6c0,0,2-2,2-8s-4-10-4-16c0-3.948,0.865-7.031,1.458-8.677
				C49.941,25.529,50.693,25,51.537,25h1.794c0.631,0,1.225,0.297,1.602,0.803c0.377,0.505,0.494,1.158,0.316,1.763
				c-0.518,1.757-1.053,4.328-1.053,7.434c0,6,4,10,4,16S56.197,59,56.197,59z"/>
		</g>
		<g>
			<path style="fill:#FFFFFF;" d="M65.197,59h-6c0,0,2-2,2-8s-4-10-4-16c0-3.948,0.865-7.031,1.458-8.677
				C58.941,25.529,59.693,25,60.537,25h1.794c0.631,0,1.225,0.297,1.602,0.803c0.377,0.505,0.494,1.158,0.316,1.763
				c-0.518,1.757-1.053,4.328-1.053,7.434c0,6,4,10,4,16S65.197,59,65.197,59z"/>
		</g>
		<g>
			<path style="fill:#E54B44;" d="M54.197,59H24.199c-0.312,0-0.605,0.146-0.795,0.393c-0.19,0.248-0.253,0.57-0.17,0.871
				c0.434,1.59,1.377,4.513,3.14,7.806c1.22-2.285,2.189-5.07,4.551-5.07c4,0,4,8,8,8s4-8,8.001-8c3.74,0,3.984,6.993,7.271,7.9V59z
				"/>
		</g>
	</g>
</g>
<g id="R-Red" style="display:none;">
	<circle style="display:inline;fill:#FABBAF;" cx="55" cy="55" r="55"/>
	<g style="display:inline;">
		<path style="fill:#FFEFED;" d="M86.447,59.393C86.258,59.146,85.965,59,85.652,59H24.197c-0.312,0-0.605,0.146-0.795,0.393
			c-0.189,0.248-0.252,0.569-0.17,0.87C24.371,64.45,29.049,77.893,43.004,83h-0.079v2c0,1.104,0.896,2,2,2h20c1.104,0,2-0.896,2-2
			v-2c0,0,14.733-4.514,19.693-22.737C86.7,59.962,86.637,59.641,86.447,59.393z"/>
		<g>
			<path style="fill:#FFFFFF;" d="M54.197,59h-30c-0.312,0-0.605,0.146-0.795,0.393c-0.189,0.248-0.252,0.569-0.17,0.87
				C28.191,78.486,42.926,83,42.926,83v2c0,1.104,0.895,2,2,2h9.271V59z"/>
		</g>
		<g>
			<path style="fill:#C23023;" d="M30.925,63c4,0,4,8,8,8s4-8,8.001-8c4,0,3.999,8,8,8c4,0,3.999-8,7.999-8c3.999,0,4,8,8,8s4-8,8-8
				c2.362,0,3.331,2.786,4.551,5.07c1.763-3.293,2.706-6.217,3.141-7.806c0.082-0.301,0.02-0.623-0.17-0.871
				C86.257,59.146,85.963,59,85.651,59H24.199c-0.312,0-0.605,0.146-0.795,0.394c-0.19,0.247-0.253,0.57-0.171,0.871
				c0.435,1.589,1.378,4.513,3.141,7.806C27.594,65.785,28.563,63,30.925,63z"/>
		</g>
		<g>
			<polygon style="fill:#4A1410;" points="26.948,28.044 26.924,30.044 87,32.16 87,28.483 			"/>
		</g>
		<g>
			<polygon style="fill:#4A1410;" points="27.144,32.522 26.999,34.517 87,38.643 87,34.985 			"/>
		</g>
		<g>
			<path style="fill:#FFFFFF;" d="M47.197,59h-6c0,0,2-2,2-8s-4-10-4-16c0-3.948,0.865-7.031,1.458-8.677
				C40.941,25.529,41.693,25,42.537,25h1.794c0.631,0,1.225,0.297,1.602,0.803c0.377,0.505,0.494,1.158,0.316,1.763
				c-0.518,1.757-1.053,4.328-1.053,7.434c0,6,4,10,4,16S47.197,59,47.197,59z"/>
		</g>
		<g>
			<path style="fill:#FFFFFF;" d="M56.197,59h-6c0,0,2-2,2-8s-4-10-4-16c0-3.948,0.865-7.031,1.458-8.677
				C49.941,25.529,50.693,25,51.537,25h1.794c0.631,0,1.225,0.297,1.602,0.803c0.377,0.505,0.494,1.158,0.316,1.763
				c-0.518,1.757-1.053,4.328-1.053,7.434c0,6,4,10,4,16S56.197,59,56.197,59z"/>
		</g>
		<g>
			<path style="fill:#FFFFFF;" d="M65.197,59h-6c0,0,2-2,2-8s-4-10-4-16c0-3.948,0.865-7.031,1.458-8.677
				C58.941,25.529,59.693,25,60.537,25h1.794c0.631,0,1.225,0.297,1.602,0.803c0.377,0.505,0.494,1.158,0.316,1.763
				c-0.518,1.757-1.053,4.328-1.053,7.434c0,6,4,10,4,16S65.197,59,65.197,59z"/>
		</g>
		<g>
			<path style="fill:#E54B44;" d="M54.197,59H24.199c-0.312,0-0.605,0.146-0.795,0.393c-0.19,0.248-0.253,0.57-0.17,0.871
				c0.434,1.59,1.377,4.513,3.14,7.806c1.22-2.285,2.189-5.07,4.551-5.07c4,0,4,8,8,8s4-8,8.001-8c3.74,0,3.984,6.993,7.271,7.9V59z
				"/>
		</g>
	</g>
</g>
<g id="Yellow" style="display:none;">
	<g style="display:inline;">
		<path style="fill:#FFF5D9;" d="M86.447,59.393C86.258,59.146,85.965,59,85.652,59H24.197c-0.312,0-0.605,0.146-0.795,0.393
			c-0.189,0.248-0.252,0.569-0.17,0.87C24.371,64.45,29.049,77.893,43.004,83h-0.079v2c0,1.104,0.896,2,2,2h20c1.104,0,2-0.896,2-2
			v-2c0,0,14.733-4.514,19.693-22.737C86.7,59.962,86.637,59.641,86.447,59.393z"/>
		<g>
			<path style="fill:#FFFFFF;" d="M54.197,59h-30c-0.312,0-0.605,0.146-0.795,0.393c-0.189,0.248-0.252,0.569-0.17,0.87
				C28.191,78.486,42.926,83,42.926,83v2c0,1.104,0.895,2,2,2h9.271V59z"/>
		</g>
		<g>
			<path style="fill:#E07000;" d="M30.925,63c4,0,4,8,8,8s4-8,8.001-8c4,0,3.999,8,8,8c4,0,3.999-8,7.999-8c3.999,0,4,8,8,8s4-8,8-8
				c2.362,0,3.331,2.786,4.551,5.07c1.763-3.293,2.706-6.217,3.141-7.806c0.082-0.301,0.019-0.623-0.17-0.871
				C86.257,59.146,85.963,59,85.651,59H24.199c-0.312,0-0.605,0.146-0.795,0.394c-0.19,0.247-0.253,0.57-0.171,0.871
				c0.435,1.589,1.378,4.513,3.141,7.806C27.594,65.785,28.563,63,30.925,63z"/>
		</g>
		<g>
			<polygon style="fill:#3D320C;" points="26.948,28.044 26.924,30.044 87,32.16 87,28.483 			"/>
		</g>
		<g>
			<polygon style="fill:#3D320C;" points="27.145,32.522 26.999,34.517 87,38.643 87,34.985 			"/>
		</g>
		<g>
			<path style="fill:#FFFFFF;" d="M47.197,59h-6c0,0,2-2,2-8s-4-10-4-16c0-3.948,0.865-7.031,1.458-8.677
				C40.941,25.529,41.693,25,42.537,25h1.794c0.631,0,1.225,0.297,1.603,0.803c0.377,0.505,0.494,1.158,0.316,1.763
				c-0.518,1.757-1.053,4.328-1.053,7.434c0,6,4,10,4,16S47.197,59,47.197,59z"/>
		</g>
		<g>
			<path style="fill:#FFFFFF;" d="M56.197,59h-6c0,0,2-2,2-8s-4-10-4-16c0-3.948,0.865-7.031,1.458-8.677
				C49.941,25.529,50.693,25,51.537,25h1.794c0.631,0,1.225,0.297,1.603,0.803c0.377,0.505,0.494,1.158,0.316,1.763
				c-0.518,1.757-1.053,4.328-1.053,7.434c0,6,4,10,4,16S56.197,59,56.197,59z"/>
		</g>
		<g>
			<path style="fill:#FFFFFF;" d="M65.197,59h-6c0,0,2-2,2-8s-4-10-4-16c0-3.948,0.865-7.031,1.458-8.677
				C58.941,25.529,59.693,25,60.537,25h1.794c0.631,0,1.225,0.297,1.603,0.803c0.377,0.505,0.494,1.158,0.316,1.763
				c-0.518,1.757-1.053,4.328-1.053,7.434c0,6,4,10,4,16S65.197,59,65.197,59z"/>
		</g>
		<g>
			<path style="fill:#FA9200;" d="M54.197,59H24.199c-0.312,0-0.605,0.146-0.795,0.393c-0.19,0.248-0.253,0.57-0.17,0.871
				c0.434,1.59,1.377,4.513,3.14,7.806c1.22-2.285,2.189-5.07,4.551-5.07c4,0,4,8,8,8s4-8,8.001-8c3.74,0,3.984,6.993,7.271,7.9V59z
				"/>
		</g>
	</g>
</g>
<g id="R-Yellow" style="display:none;">
	<circle style="display:inline;fill:#FFD75E;" cx="55" cy="55" r="55"/>
	<g style="display:inline;">
		<path style="fill:#FFF5D9;" d="M86.447,59.393C86.258,59.146,85.965,59,85.652,59H24.197c-0.312,0-0.605,0.146-0.795,0.393
			c-0.189,0.248-0.252,0.569-0.17,0.87C24.371,64.45,29.049,77.893,43.004,83h-0.079v2c0,1.104,0.896,2,2,2h20c1.104,0,2-0.896,2-2
			v-2c0,0,14.733-4.514,19.693-22.737C86.7,59.962,86.637,59.641,86.447,59.393z"/>
		<g>
			<path style="fill:#FFFFFF;" d="M54.197,59h-30c-0.312,0-0.605,0.146-0.795,0.393c-0.189,0.248-0.252,0.569-0.17,0.87
				C28.191,78.486,42.926,83,42.926,83v2c0,1.104,0.895,2,2,2h9.271V59z"/>
		</g>
		<g>
			<path style="fill:#E07000;" d="M30.925,63c4,0,4,8,8,8s4-8,8.001-8c4,0,3.999,8,8,8c4,0,3.999-8,7.999-8c3.999,0,4,8,8,8s4-8,8-8
				c2.362,0,3.331,2.786,4.551,5.07c1.763-3.293,2.706-6.217,3.141-7.806c0.082-0.301,0.02-0.623-0.17-0.871
				C86.257,59.146,85.963,59,85.651,59H24.199c-0.312,0-0.606,0.146-0.795,0.394c-0.19,0.247-0.253,0.57-0.171,0.871
				c0.435,1.589,1.378,4.513,3.141,7.806C27.594,65.785,28.563,63,30.925,63z"/>
		</g>
		<g>
			<polygon style="fill:#3D320C;" points="26.948,28.044 26.924,30.044 87,32.16 87,28.483 			"/>
		</g>
		<g>
			<polygon style="fill:#3D320C;" points="27.144,32.522 26.999,34.517 87,38.643 87,34.985 			"/>
		</g>
		<g>
			<path style="fill:#FFFFFF;" d="M47.197,59h-6c0,0,2-2,2-8s-4-10-4-16c0-3.948,0.865-7.031,1.458-8.677
				C40.941,25.529,41.693,25,42.537,25h1.794c0.631,0,1.225,0.297,1.603,0.803c0.377,0.505,0.494,1.158,0.316,1.763
				c-0.518,1.757-1.053,4.328-1.053,7.434c0,6,4,10,4,16S47.197,59,47.197,59z"/>
		</g>
		<g>
			<path style="fill:#FFFFFF;" d="M56.197,59h-6c0,0,2-2,2-8s-4-10-4-16c0-3.948,0.865-7.031,1.458-8.677
				C49.941,25.529,50.693,25,51.537,25h1.794c0.631,0,1.225,0.297,1.603,0.803c0.377,0.505,0.494,1.158,0.316,1.763
				c-0.518,1.757-1.053,4.328-1.053,7.434c0,6,4,10,4,16S56.197,59,56.197,59z"/>
		</g>
		<g>
			<path style="fill:#FFFFFF;" d="M65.197,59h-6c0,0,2-2,2-8s-4-10-4-16c0-3.948,0.865-7.031,1.458-8.677
				C58.941,25.529,59.693,25,60.537,25h1.794c0.631,0,1.225,0.297,1.603,0.803c0.377,0.505,0.494,1.158,0.316,1.763
				c-0.518,1.757-1.053,4.328-1.053,7.434c0,6,4,10,4,16S65.197,59,65.197,59z"/>
		</g>
		<g>
			<path style="fill:#FA9200;" d="M54.197,59H24.199c-0.312,0-0.606,0.146-0.795,0.393c-0.19,0.248-0.253,0.57-0.17,0.871
				c0.434,1.59,1.377,4.513,3.14,7.806c1.22-2.285,2.19-5.07,4.551-5.07c4,0,4,8,8,8s4-8,8.001-8c3.74,0,3.984,6.993,7.271,7.9V59z"
				/>
		</g>
	</g>
</g>
</svg>
