<?xml version="1.0" encoding="iso-8859-1"?>
<!-- Generator: Adobe Illustrator 17.1.0, SVG Export Plug-In . SVG Version: 6.00 Build 0)  -->
<!DOCTYPE svg PUBLIC "-//W3C//DTD SVG 1.0//EN" "http://www.w3.org/TR/2001/REC-SVG-20010904/DTD/svg10.dtd">
<svg version="1.0" xmlns="http://www.w3.org/2000/svg" xmlns:xlink="http://www.w3.org/1999/xlink" x="0px" y="0px" width="110px"
	 height="110px" viewBox="0 0 110 110" style="enable-background:new 0 0 110 110;" xml:space="preserve">
<g id="Artboard">
</g>
<g id="Multicolor">
	<circle style="fill:#E04F5F;" cx="55" cy="55" r="55"/>
	<g>
		<path style="fill:#FCF6C2;" d="M83,75l-8,8H27V31c0-2.209,1.791-4,4-4h48c2.209,0,4,1.791,4,4V75z"/>
		<rect x="27" y="48" style="fill:#FBE158;" width="56" height="2"/>
		<rect x="27" y="59" style="fill:#FBE158;" width="56" height="2"/>
		<rect x="27" y="70" style="fill:#FBE158;" width="56" height="2"/>
		<path style="fill:#9C6144;" d="M83,31v8H27v-8c0-2.21,1.79-4,4-4h48C81.21,27,83,28.79,83,31z"/>
		<path style="fill:#FCF6C2;" d="M31,27c-2.21,0-4,1.79-4,4C27,28.791,28.791,27,31,27z"/>
		<path style="fill:#AF7653;" d="M27,31v8h19l12-12H31C28.791,27,27,28.791,27,31z"/>
		<polygon style="fill:#F4D0A1;" points="83,75 75,83 75,75 		"/>
		<rect x="35" y="39" style="fill:#FA5655;" width="2" height="44"/>
	</g>
</g>
</svg>
