<?xml version="1.0" encoding="iso-8859-1"?>
<!-- Generator: Adobe Illustrator 17.1.0, SVG Export Plug-In . SVG Version: 6.00 Build 0)  -->
<!DOCTYPE svg PUBLIC "-//W3C//DTD SVG 1.0//EN" "http://www.w3.org/TR/2001/REC-SVG-20010904/DTD/svg10.dtd">
<svg version="1.0" xmlns="http://www.w3.org/2000/svg" xmlns:xlink="http://www.w3.org/1999/xlink" x="0px" y="0px" width="110px"
	 height="110px" viewBox="0 0 110 110" style="enable-background:new 0 0 110 110;" xml:space="preserve">
<g id="Artboard">
</g>
<g id="Multicolor">
	<circle style="fill:#25B7D3;" cx="55" cy="55" r="55"/>
	<g>
		<g>
			<path style="fill:#E2E4E5;" d="M63.521,59c-0.598,0-1.165,0.268-1.545,0.73s-0.535,1.07-0.42,1.657
				C62.554,66.453,63.944,78.513,57,87c4,0,30,0,30,0c-6.944-8.487-5.554-20.547-4.556-25.613c0.116-0.587-0.038-1.195-0.418-1.657
				C81.645,59.267,81.078,59,80.479,59H63.521z"/>
		</g>
		<g>
			<path style="fill:#FFFFFF;" d="M72,87V59h-8.479c-0.598,0-1.165,0.268-1.545,0.73c-0.38,0.462-0.535,1.07-0.42,1.657
				C62.554,66.453,63.944,78.512,57,87C58.858,87,65.46,87,72,87z"/>
		</g>
		<g>
			<path style="fill:#E2E4E5;" d="M23,87c0,0,10.754-17.923,5.963-33.408c-0.188-0.607-0.076-1.267,0.301-1.778
				C29.641,51.302,30.239,51,30.874,51c8.178,0,17.256,0,24.252,0c0.635,0,1.233,0.302,1.61,0.813
				c0.377,0.511,0.489,1.172,0.301,1.779C52.246,69.077,63,87,63,87H23z"/>
		</g>
		<g>
			<path style="fill:#FFFFFF;" d="M57,23c-4.872,0-8.925,3.485-9.814,8.097c-4.966-0.739-9.268,3.148-9.179,8.042
				C36.281,39.583,35,41.136,35,43c0,2.209,1.791,4,4,4c1.108,0,2.11-0.451,2.835-1.179C43.049,46.564,44.472,47,46,47
				c3.248,0,6.037-1.938,7.291-4.719C54.439,42.74,55.688,43,57,43c5.523,0,10-4.477,10-10S62.523,23,57,23z"/>
		</g>
		<g>
			<path style="fill:#FFFFFF;" d="M78,39c-4.418,0-8,3.582-8,8c-2.209,0-4,1.791-4,4s1.791,4,4,4c1.312,0,2.465-0.64,3.194-1.615
				C74.533,54.394,76.194,55,78,55c4.418,0,8-3.582,8-8S82.418,39,78,39z"/>
		</g>
		<g>
			<path style="fill:#FFFFFF;" d="M43,87V51c-4.029,0-8.181,0-12.126,0c-0.635,0-1.233,0.302-1.61,0.813
				c-0.377,0.511-0.489,1.171-0.301,1.778C33.754,69.077,23,87,23,87H43z"/>
		</g>
	</g>
</g>
</svg>
