<?xml version="1.0" encoding="iso-8859-1"?>
<!-- Generator: Adobe Illustrator 17.1.0, SVG Export Plug-In . SVG Version: 6.00 Build 0)  -->
<!DOCTYPE svg PUBLIC "-//W3C//DTD SVG 1.0//EN" "http://www.w3.org/TR/2001/REC-SVG-20010904/DTD/svg10.dtd">
<svg version="1.0" xmlns="http://www.w3.org/2000/svg" xmlns:xlink="http://www.w3.org/1999/xlink" x="0px" y="0px" width="110px"
	 height="110px" viewBox="0 0 110 110" style="enable-background:new 0 0 110 110;" xml:space="preserve">
<g id="Artboard">
</g>
<g id="Multicolor">
	<g>
		<circle style="fill:#25B7D3;" cx="55" cy="55" r="55"/>
	</g>
	<g>
		<path style="fill:#47C4B7;" d="M83.409,79.663c-0.889-2.311-2.797-4.08-5.168-4.791L65,72H55H45l-13.241,2.872
			c-2.371,0.711-4.279,2.48-5.168,4.791L23,87h32h32L83.409,79.663z"/>
		<path style="fill:#BF8662;" d="M45,63.433V72l10,10V71C51.716,69.905,47.841,67.829,45,63.433z"/>
		<path style="fill:#AF7653;" d="M55,71v11l10-10v-8.567C62.159,67.829,58.284,69.905,55,71z"/>
		<g>
			<polygon style="fill:#C2FCF5;" points="42.535,72.535 55,85 55,82 45,72 			"/>
		</g>
		<g>
			<polygon style="fill:#C2FCF5;" points="67.465,72.535 55,85 55,82 65,72 			"/>
		</g>
		<g>
			<g>
				<path style="fill:#FFFFFF;" d="M79,85c0,0.55-0.45,1-1,1H67c-0.55,0-1-0.45-1-1v-7c0-0.55,0.45-1,1-1h11c0.55,0,1,0.45,1,1V85z"
					/>
			</g>
			<g>
				<rect x="67" y="80" style="fill:#9CE5F4;" width="4" height="5"/>
			</g>
			<path style="fill:#C2FCF5;" d="M78,77h-4v-0.5c0-0.825-0.675-1.5-1.5-1.5S71,75.675,71,76.5V77h-4c-0.55,0-1,0.45-1,1v1h13v-1
				C79,77.45,78.55,77,78,77z"/>
		</g>
		<g>
			<g>
				<rect x="32" y="82" style="fill:#C2FCF5;" width="11" height="2"/>
			</g>
			<g>
				<rect x="34" y="79" style="fill:#DF2C2C;" width="3" height="3"/>
			</g>
			<g>
				<path style="fill:#FA5655;" d="M37,79h-3v-0.5c0-0.825,0.675-1.5,1.5-1.5c0.825,0,1.5,0.675,1.5,1.5V79z"/>
			</g>
			<g>
				<rect x="38" y="80" style="fill:#0484AB;" width="3" height="2"/>
			</g>
			<g>
				<path style="fill:#6FDAF1;" d="M41,80h-3v-0.5c0-0.825,0.675-1.5,1.5-1.5c0.825,0,1.5,0.675,1.5,1.5V80z"/>
			</g>
		</g>
		<path style="fill:#BF8662;" d="M70,47L70,47v0.001c-1,0-1,0-1,0L69,47l0,0l0,0c-0.072-0.037-1.009-11-7-11c-3,0-4.551,1-7,1
			s-4-1-7-1c-5.99,0-6.928,10.963-7,11l0,0l0,0l0,0.001c0,0,0,0-1,0V47l0,0c-1,0-2,1.111-2,2.222c0,3.091,0.864,7.13,4.178,7.703
			C44.62,66.027,50.396,69.465,55,71c4.604-1.535,10.38-4.973,12.822-14.075C71.136,56.353,72,52.313,72,49.222
			C72,48.111,71,47,70,47z"/>
		<path style="fill:#CC9978;" d="M41,47L41,47L41,47l0,0.001c0,0,0,0-1,0V47l0,0c-1,0-2,1.111-2,2.222
			c0,3.091,0.864,7.13,4.178,7.703C44.62,66.027,50.396,69.465,55,71V37c-2.449,0-4-1-7-1C42.01,36,41.072,46.963,41,47z"/>
		<g>
			<path style="fill:#84462D;" d="M50,60h10c0,0,0,3-5,3S50,60,50,60z"/>
		</g>
		<g>
			<path style="fill:#3E3E3F;" d="M52.006,49c0-1.104-0.896-2-2-2c-0.002,0-0.004,0-0.006,0c0.001,0.021,0.006,0.041,0.006,0.062
				c0,1.103-0.892,1.996-1.994,2C48.046,50.137,48.923,51,50.006,51C51.111,51,52.006,50.104,52.006,49z"/>
		</g>
		<g>
			<path style="fill:#3E3E3F;" d="M62,49c0-1.104-0.896-2-2-2c-0.002,0-0.004,0-0.006,0C59.995,47.021,60,47.042,60,47.063
				c0,1.103-0.892,1.996-1.994,2C58.04,50.137,58.917,51,60,51C61.104,51,62,50.104,62,49z"/>
		</g>
		<path style="fill:#3E3E3F;" d="M60.882,30.183C60.958,29.8,61,29.405,61,29c0-3.313-2.687-6-6-6s-6,2.687-6,6
			c0,0.405,0.042,0.8,0.118,1.183C40.003,32.856,40,38.287,40,47.001c1,0,1,0,1,0c0.069,0,1-11.001,7-11.001c3,0,4.551,1,7,1
			s4-1,7-1c6,0,6.931,11.001,7,11.001c0,0,0,0,1,0C70,38.287,69.997,32.856,60.882,30.183z"/>
	</g>
</g>
</svg>
