<?xml version="1.0" encoding="iso-8859-1"?>
<!-- Generator: Adobe Illustrator 17.1.0, SVG Export Plug-In . SVG Version: 6.00 Build 0)  -->
<!DOCTYPE svg PUBLIC "-//W3C//DTD SVG 1.0//EN" "http://www.w3.org/TR/2001/REC-SVG-20010904/DTD/svg10.dtd">
<svg version="1.0" xmlns="http://www.w3.org/2000/svg" xmlns:xlink="http://www.w3.org/1999/xlink" x="0px" y="0px" width="110px"
	 height="110px" viewBox="0 0 110 110" style="enable-background:new 0 0 110 110;" xml:space="preserve">
<g id="Artboard">
</g>
<g id="Multicolor">
	<g>
		<circle style="fill:#FABC3D;" cx="55" cy="55" r="55"/>
	</g>
	<g>
		<path style="fill:#47C4B7;" d="M83.409,77.663c-0.889-2.311-2.797-4.08-5.168-4.791L65,70H55H45l-13.241,2.872
			c-2.371,0.711-4.279,2.48-5.168,4.791L23,87h32h32L83.409,77.663z"/>
		<path style="fill:#F8E1C2;" d="M70,45.188c-0.146,0-0.314,0-0.493,0C68.682,45.904,68.714,48.714,67,53c0-0.226,0-6-1-8.936
			c-1.633-4.793-6.392-4.946-13.229-4.946c-2.902,0-5.246-0.363-7.143-0.972C42.004,43.157,42,52,42,52s-1.092-3.285-1.641-7
			c-0.126,0-0.252,0-0.359,0c-1,0-2,1.111-2,2.222c0,3.091,0.864,7.13,4.178,7.703C44.62,64.027,50.396,67.465,55,69
			c4.57-1.523,10.296-4.923,12.768-13.875C71.128,54.588,72,50.518,72,47.41C72,46.299,71,45.188,70,45.188z"/>
		<path style="fill:#FCF1E2;" d="M52.771,39.118c-2.902,0-5.246-0.363-7.143-0.972C42.004,43.157,42,52,42,52s-1.092-3.285-1.641-7
			c-0.126,0-0.252,0-0.359,0c-1,0-2,1.111-2,2.222c0,3.091,0.864,7.13,4.178,7.703C44.62,64.027,50.396,67.465,55,69V39.131
			C54.283,39.121,53.542,39.118,52.771,39.118z"/>
		<g>
			<circle style="fill:#FFFFFF;" cx="69.629" cy="55.629" r="1.629"/>
		</g>
		<g>
			<circle style="fill:#FFFFFF;" cx="40.371" cy="55.629" r="1.629"/>
		</g>
		<g>
			<path style="fill:#F79392;" d="M50,58h10c0,0,0,3-5,3S50,58,50,58z"/>
		</g>
		<path style="fill:#3E3E3F;" d="M64.937,30.344C62.291,28.224,58.817,27,55,27c-5.116,0-12,4-15-3
			c-1.674,2.318-2.779,8.2,1.476,11.907C37.99,39.958,42,52,42,52s0.004-8.843,3.628-13.854c1.896,0.609,4.241,0.972,7.143,0.972
			c6.837,0,11.596,0.153,13.229,4.946C67,47,67,52.774,67,53c2-5,1.619-7.812,3-7.812C70,40.954,70.687,34.952,64.937,30.344z"/>
		<path style="fill:#F8E1C2;" d="M45,61.433V70l10,10V69C51.716,67.905,47.841,65.829,45,61.433z"/>
		<path style="fill:#F4D0A1;" d="M55,69v11l10-10v-8.567C62.159,65.829,58.284,67.905,55,69z"/>
		<g>
			<polygon style="fill:#C2FCF5;" points="65,70 55,80 55,83 67.465,70.535 			"/>
		</g>
		<g>
			<polygon style="fill:#C2FCF5;" points="45,70 55,80 55,83 42.535,70.535 			"/>
		</g>
		<g>
			<g>
				<path style="fill:#FFFFFF;" d="M78,85c0,0.55-0.45,1-1,1H66c-0.55,0-1-0.45-1-1v-7c0-0.55,0.45-1,1-1h11c0.55,0,1,0.45,1,1V85z"
					/>
			</g>
			<g>
				<rect x="66" y="80" style="fill:#9CE5F4;" width="4" height="5"/>
			</g>
			<path style="fill:#C2FCF5;" d="M77,77h-4v-0.5c0-0.825-0.675-1.5-1.5-1.5S70,75.675,70,76.5V77h-4c-0.55,0-1,0.45-1,1v1h13v-1
				C78,77.45,77.55,77,77,77z"/>
		</g>
		<g>
			<g>
				<rect x="31" y="82" style="fill:#C2FCF5;" width="11" height="2"/>
			</g>
			<g>
				<rect x="33" y="79" style="fill:#DF2C2C;" width="3" height="3"/>
			</g>
			<g>
				<path style="fill:#FA5655;" d="M36,79h-3v-0.5c0-0.825,0.675-1.5,1.5-1.5c0.825,0,1.5,0.675,1.5,1.5V79z"/>
			</g>
			<g>
				<rect x="37" y="80" style="fill:#0484AB;" width="3" height="2"/>
			</g>
			<g>
				<path style="fill:#6FDAF1;" d="M40,80h-3v-0.5c0-0.825,0.675-1.5,1.5-1.5c0.825,0,1.5,0.675,1.5,1.5V80z"/>
			</g>
		</g>
		<g>
			<g>
				<path style="fill:#3E3E3F;" d="M48.964,46.866c1.43,0,2.627,0.277,2.959,1.134c0.004-1-1.003-2.446-2.959-2.446
					c-1.953,0-3.053,1.446-2.959,2.446C46.337,47.144,47.534,46.866,48.964,46.866z"/>
			</g>
		</g>
		<g>
			<g>
				<path style="fill:#3E3E3F;" d="M60.887,46.866c1.43,0,2.627,0.277,2.959,1.134c0.004-1-1.003-2.446-2.959-2.446
					c-1.953,0-3.053,1.446-2.959,2.446C58.26,47.144,59.457,46.866,60.887,46.866z"/>
			</g>
		</g>
	</g>
</g>
</svg>
