<?xml version="1.0" encoding="iso-8859-1"?>
<!-- Generator: Adobe Illustrator 17.1.0, SVG Export Plug-In . SVG Version: 6.00 Build 0)  -->
<!DOCTYPE svg PUBLIC "-//W3C//DTD SVG 1.0//EN" "http://www.w3.org/TR/2001/REC-SVG-20010904/DTD/svg10.dtd">
<svg version="1.0" xmlns="http://www.w3.org/2000/svg" xmlns:xlink="http://www.w3.org/1999/xlink" x="0px" y="0px" width="110px"
	 height="110px" viewBox="0 0 110 110" style="enable-background:new 0 0 110 110;" xml:space="preserve">
<g id="Artboard">
</g>
<g id="Multicolor">
	<circle style="fill:#E04F5F;" cx="55" cy="55" r="55"/>
	<g>
		<g>
			<path style="fill:#F0F1F1;" d="M31,75.5c12,10,36,10,48,0l8-28c0,0-9,8-32,8s-32-8-32-8L31,75.5z"/>
		</g>
		<g>
			<path style="fill:#E2E4E5;" d="M55,55.5c11.12,0,18.959-1.87,24.099-3.802l-6.441-12.881c-1.016-2.033-3.094-3.317-5.367-3.317
				H42.708c-2.273,0-4.35,1.284-5.367,3.317l-6.441,12.881C36.041,53.63,43.88,55.5,55,55.5z"/>
		</g>
		<g>
			<path style="fill:#F0F1F1;" d="M42.708,35.5c-2.273,0-4.35,1.284-5.367,3.317l-6.441,12.881C36.041,53.63,43.88,55.5,55,55.5v-20
				H42.708z"/>
		</g>
		<g>
			<path style="fill:#FFFFFF;" d="M23,47.5l8,28c6,5,15,7.5,24,7.5V55.5C32,55.5,23,47.5,23,47.5z"/>
		</g>
		<g>
			<path style="fill:#FFFFFF;" d="M31,51.5l2.352-11.761c0.086-0.432-0.12-0.87-0.509-1.078c-0.389-0.208-0.867-0.137-1.179,0.175
				L23,47.5c0,0,2.354,2.085,7.711,4.126C30.808,51.585,30.904,51.548,31,51.5z"/>
		</g>
		<g>
			<path style="fill:#FFFFFF;" d="M79,51.5l-2.352-11.761c-0.086-0.432,0.12-0.87,0.509-1.078c0.389-0.208,0.867-0.137,1.179,0.175
				L87,47.5c0,0-2.354,2.085-7.711,4.126C79.193,51.585,79.097,51.548,79,51.5z"/>
		</g>
		<g>
			<path style="fill:#6FDAF1;" d="M55,59.5c17.804,0,27.214-4.792,30.559-6.957L87,47.5c0,0-9,8-32,8s-32-8-32-8l1.441,5.042
				C27.786,54.708,37.196,59.5,55,59.5z"/>
		</g>
		<g>
			<path style="fill:#FA5655;" d="M63,69.5c0-0.276-0.224-0.5-0.5-0.5H57v-5.5c0-0.276-0.224-0.5-0.5-0.5h-3
				c-0.276,0-0.5,0.224-0.5,0.5V69h-5.5c-0.276,0-0.5,0.224-0.5,0.5v3c0,0.276,0.224,0.5,0.5,0.5H53v5.5c0,0.276,0.224,0.5,0.5,0.5
				h3c0.276,0,0.5-0.224,0.5-0.5V73h5.5c0.276,0,0.5-0.224,0.5-0.5V69.5z"/>
		</g>
		<g>
			<path style="fill:#9CE5F4;" d="M23,47.5l1.441,5.042C27.786,54.708,37.196,59.5,55,59.5v-4C32,55.5,23,47.5,23,47.5z"/>
		</g>
	</g>
</g>
</svg>
