<?xml version="1.0" encoding="iso-8859-1"?>
<!-- Generator: Adobe Illustrator 17.1.0, SVG Export Plug-In . SVG Version: 6.00 Build 0)  -->
<!DOCTYPE svg PUBLIC "-//W3C//DTD SVG 1.0//EN" "http://www.w3.org/TR/2001/REC-SVG-20010904/DTD/svg10.dtd">
<svg version="1.0" xmlns="http://www.w3.org/2000/svg" xmlns:xlink="http://www.w3.org/1999/xlink" x="0px" y="0px" width="110px"
	 height="110px" viewBox="0 0 110 110" style="enable-background:new 0 0 110 110;" xml:space="preserve">
<g id="Artboard">
</g>
<g id="Multicolor">
	<circle style="fill:#32BEA6;" cx="55.095" cy="55" r="55"/>
	<g>
		<path style="fill:#3E3E3F;" d="M74.275,55.54c-0.17-0.33-0.51-0.54-0.88-0.54h-36.58c-0.37,0-0.72,0.21-0.89,0.55
			c-0.17,0.33-0.14,0.74,0.09,1.04c3.09,4.23,9.3,5.81,15.09,6.25v3.409c2.667-0.333,5.333-0.332,8,0.002V62.85
			c9.18-0.69,13.34-3.75,15.11-6.28C74.426,56.27,74.455,55.87,74.275,55.54z"/>
		<g>
			<path style="fill:#3E3E3F;" d="M45.095,55c0,0,0-1,0-4c0-4.55-6-7-6-16s6-12,16-12s16,3,16,12s-6,11-6,16c0,2,0,4,0,4"/>
		</g>
		<g>
			<path style="fill:#5B5C5F;" d="M39.095,35c0,9,6,11.45,6,16c0,3,0,4,0,4h10V23C45.095,23,39.095,26,39.095,35z"/>
		</g>
		<g>
			<path style="fill:#E2E4E5;" d="M67.593,82.35C68.13,81.537,69.049,81,70.095,81c0.064,0,0.124,0.015,0.186,0.019l-1.26-2.519
				H41.169l-1.26,2.519C39.972,81.015,40.032,81,40.095,81c1.046,0,1.965,0.537,2.502,1.35l0.425-0.85h24.146L67.593,82.35z"/>
		</g>
		<path style="fill:#3E3E3F;" d="M57.095,71.938c-1.333,0.083-2.667,0.083-4,0V77h4V71.938z"/>
		<g>
			<path style="fill:#CFD3D4;" d="M58,82c0,0.552-0.448,1-1,1h-4c-0.552,0-1-0.448-1-1v-4c0-0.552,0.448-1,1-1h4
				c0.552,0,1,0.448,1,1V82z"/>
		</g>
		<g>
			<path style="fill:#5B5C5F;" d="M39.105,55c0,0,1,5,16,5s16-5,16-5H39.105z"/>
		</g>
		<g>
			<path style="fill:#E2E4E5;" d="M47.095,68v2h-3.18c0.12-0.31,0.18-0.65,0.18-1s-0.06-0.69-0.18-1H47.095z"/>
		</g>
		<g>
			<path style="fill:#3E3E3F;" d="M44.095,69c0,0.35-0.06,0.69-0.18,1c-0.4,1.17-1.51,2-2.82,2c-1.66,0-3-1.34-3-3s1.34-3,3-3
				c1.31,0,2.42,0.83,2.82,2C44.035,68.31,44.095,68.65,44.095,69z"/>
		</g>
		<g>
			<path style="fill:#5B5C5F;" d="M49,55v-2.445C49,43,43.048,41,43.048,35s6.024-8,12.024-8s11.964,2,11.964,8S61,43,61,52.555V55
				H49z"/>
		</g>
		<g>
			<circle style="fill:#3E3E3F;" cx="40.095" cy="84" r="3"/>
		</g>
		<g>
			<path style="fill:#CFD3D4;" d="M47.095,67c5.333-1.333,10.667-1.333,16,0v4c-5.333,1.333-10.667,1.333-16,0V67z"/>
		</g>
		<g>
			<path style="fill:#FFFFFF;" d="M55.095,77h-2c-0.552,0-1,0.448-1,1v4c0,0.552,0.448,1,1,1h2V77z"/>
		</g>
		<g>
			<path style="fill:#FFFFFF;" d="M47.095,67v4c2.667,0.667,5.333,1,8,1v-6C52.429,66,49.762,66.333,47.095,67z"/>
		</g>
		<g>
			<circle style="fill:#3E3E3F;" cx="70.095" cy="84" r="3"/>
		</g>
		<g>
			<path style="fill:#3E3E3F;" d="M80.095,47h-9c0-2.121,1.736-3.857,3.857-3.857h1.286C78.36,43.143,80.095,44.879,80.095,47z"/>
		</g>
		<polygon style="fill:#FFFFFF;" points="72.345,49 70.095,55 73.095,55 75.345,49 		"/>
		<g>
			<polygon style="fill:#E2E4E5;" points="75.377,49 72.314,49 72.095,47 79.095,47 			"/>
		</g>
		<g>
			<path style="fill:#3E3E3F;" d="M30.095,47h9c0-2.121-1.736-3.857-3.857-3.857h-1.286C31.831,43.143,30.095,44.879,30.095,47z"/>
		</g>
		<polygon style="fill:#FFFFFF;" points="37.845,49 34.845,49 37.095,55 40.095,55 		"/>
		<g>
			<polygon style="fill:#E2E4E5;" points="34.814,49 37.877,49 38.095,47 31.095,47 			"/>
		</g>
		<g>
			<path style="fill:#9E9FA0;" d="M43.095,35c0,6,6,8,6,17.555V55h6V27C49.095,27,43.095,29,43.095,35z"/>
		</g>
	</g>
</g>
</svg>
