<?xml version="1.0" encoding="iso-8859-1"?>
<!-- Generator: Adobe Illustrator 17.1.0, SVG Export Plug-In . SVG Version: 6.00 Build 0)  -->
<!DOCTYPE svg PUBLIC "-//W3C//DTD SVG 1.0//EN" "http://www.w3.org/TR/2001/REC-SVG-20010904/DTD/svg10.dtd">
<svg version="1.0" xmlns="http://www.w3.org/2000/svg" xmlns:xlink="http://www.w3.org/1999/xlink" x="0px" y="0px" width="110px"
	 height="110px" viewBox="0 0 110 110" style="enable-background:new 0 0 110 110;" xml:space="preserve">
<g id="Artboard">
</g>
<g id="Multicolor">
	<circle style="fill:#25B7D3;" cx="55" cy="55" r="55"/>
	<g>
		<g>
			<path style="fill:#3E3E3F;" d="M58,39.896V38c0-0.552-0.448-1-1-1h-2h-2c-0.552,0-1,0.448-1,1v1.896L29.266,83h9.514L52,75.446
				V83h3h3v-7.554L71.219,83h9.514L58,39.896z M35.09,80.502l7.316-13.967l8.563,4.894L35.09,80.502z M52,67.411l-7.737-4.421
				L52,48.219V67.411z M58,48.219l7.737,14.771L58,67.411V48.219z M59.031,71.429l8.563-4.894l7.316,13.967L59.031,71.429z"/>
		</g>
		<g>
			<g>
				<path style="fill:#3E3E3F;" d="M59,26.692C59,28.732,55,35,55,35s-4-6.268-4-8.308S52.791,23,55,23S59,24.653,59,26.692z"/>
			</g>
		</g>
		<g>
			<g>
				<path style="fill:#3E3E3F;" d="M41,30c0,5.994,7,1,10,5C51,26.257,41,24.703,41,30z"/>
			</g>
		</g>
		<g>
			<g>
				<path style="fill:#3E3E3F;" d="M69,30c0,5.994-7,1-10,5C59,26.257,69,24.703,69,30z"/>
			</g>
		</g>
		<g>
			<path style="fill:#CFD3D4;" d="M83,83H55H27c-1.105,0-2,0.896-2,2s0.895,2,2,2h28h28c1.105,0,2-0.896,2-2S84.105,83,83,83z"/>
		</g>
		<g>
			<path style="fill:#FFFFFF;" d="M27,83c-1.105,0-2,0.896-2,2s0.895,2,2,2h28v-4H27z"/>
		</g>
		<g>
			<path style="fill:#CFD3D4;" d="M70,59H55H40c-1.105,0-2,0.896-2,2s0.895,2,2,2h15h15c1.105,0,2-0.896,2-2S71.105,59,70,59z"/>
		</g>
		<g>
			<path style="fill:#FFFFFF;" d="M38,61c0,1.104,0.895,2,2,2h15v-4H40C38.895,59,38,59.896,38,61z"/>
		</g>
		<g>
			<path style="fill:#CFD3D4;" d="M60,41h-5h-5c-1.105,0-2,0.896-2,2s0.895,2,2,2h5h5c1.105,0,2-0.896,2-2S61.105,41,60,41z"/>
		</g>
		<g>
			<path style="fill:#FFFFFF;" d="M48,43c0,1.104,0.895,2,2,2h5v-4h-5C48.895,41,48,41.896,48,43z"/>
		</g>
	</g>
</g>
</svg>
