<?xml version="1.0" encoding="iso-8859-1"?>
<!-- Generator: Adobe Illustrator 17.1.0, SVG Export Plug-In . SVG Version: 6.00 Build 0)  -->
<!DOCTYPE svg PUBLIC "-//W3C//DTD SVG 1.0//EN" "http://www.w3.org/TR/2001/REC-SVG-20010904/DTD/svg10.dtd">
<svg version="1.0" xmlns="http://www.w3.org/2000/svg" xmlns:xlink="http://www.w3.org/1999/xlink" x="0px" y="0px" width="110px"
	 height="110px" viewBox="0 0 110 110" style="enable-background:new 0 0 110 110;" xml:space="preserve">
<g id="Artboard">
</g>
<g id="Multicolor">
	<circle style="fill:#FABC3D;" cx="55" cy="55" r="55"/>
	<g>
		<path style="fill:#5B5C5F;" d="M31,47c0-2.209,1.791-4,4-4h28c2.209,0,4,1.791,4,4v32c0,2.209-1.791,4-4,4H35
			c-2.209,0-4-1.791-4-4V47z"/>
		<path style="fill:#818284;" d="M56.869,43H35c-2.209,0-4,1.791-4,4v21.869L56.869,43z"/>
		<path style="fill:#3E3E3F;" d="M35,49c0-1.105,0.895-2,2-2h24c1.105,0,2,0.895,2,2v28c0,1.105-0.895,2-2,2H37
			c-1.105,0-2-0.895-2-2V49z"/>
		<path style="fill:#5B5C5F;" d="M52.869,47H37c-1.104,0-2,0.896-2,2v15.869L52.869,47z"/>
		<path style="fill:#818284;" d="M39,64c0-1.105,0.895-2,2-2h16c1.105,0,2,0.895,2,2v11c0,5.523-4.477,10-10,10s-10-4.477-10-10V64z
			"/>
		<circle style="fill:#CFD3D4;" cx="49" cy="75" r="7"/>
		<path style="fill:#E2E4E5;" d="M49,68c-3.866,0-7,3.134-7,7c0,1.811,0.693,3.455,1.821,4.697l9.876-9.876
			C52.455,68.693,50.81,68,49,68z"/>
		<g>
			<path style="fill:#3E3E3F;" d="M35,43h26.476l-3.047-4H36.644c-0.67,0-1.295,0.335-1.666,0.893l-3.002,4.516
				C32.71,43.553,33.785,43,35,43z"/>
			<path style="fill:#3E3E3F;" d="M31.43,45.23l-0.013,0.02h0.002C31.422,45.243,31.427,45.237,31.43,45.23z"/>
		</g>
		<path style="fill:#3E3E3F;" d="M71,55c-1.384,0-2.719-0.194-4-0.524V75c0,2.209,1.791,4,4,4c2.209,0,4-1.791,4-4V54.476
			C73.719,54.806,72.384,55,71,55z"/>
		<path style="fill:#FFFFFF;" d="M71,23c-8.836,0-16,7.164-16,16s7.164,16,16,16s16-7.164,16-16S79.836,23,71,23z M71,43
			c-2.209,0-4-1.791-4-4s1.791-4,4-4c2.209,0,4,1.791,4,4S73.209,43,71,43z"/>
		<circle style="fill:#FA5655;" cx="40" cy="52" r="2"/>
		<path style="fill:#B6BCBD;" d="M40,49c-1.654,0-3,1.346-3,3s1.346,3,3,3s3-1.346,3-3S41.654,49,40,49z M40,54
			c-1.104,0-2-0.896-2-2s0.896-2,2-2s2,0.896,2,2S41.104,54,40,54z"/>
		<circle style="fill:#0484AB;" cx="49" cy="75" r="4"/>
		<path style="fill:#818284;" d="M49.401,53c0-1.105,1.343-2,3-2c1.268,0,4.108,1.171,5.373,1.721C57.915,52.782,58,52.888,58,53
			s-0.086,0.217-0.227,0.279C56.509,53.829,53.668,55,52.401,55C50.744,55,49.401,54.105,49.401,53z"/>
		<path style="fill:#059BBF;" d="M49,71c-2.209,0-4,1.791-4,4c0,0.981,0.367,1.869,0.954,2.564l5.611-5.611
			C50.869,71.367,49.981,71,49,71z"/>
		<path style="fill:#E2E4E5;" d="M71,35c1.061,0,2.019,0.42,2.735,1.094l8.22-8.734C79.091,24.664,75.244,23,71,23
			s-8.091,1.664-10.955,4.36l8.22,8.734C68.981,35.42,69.939,35,71,35z"/>
		<path style="fill:#E2E4E5;" d="M73.735,41.906C73.019,42.58,72.061,43,71,43c-1.061,0-2.019-0.42-2.735-1.094l-8.22,8.734
			C62.909,53.336,66.756,55,71,55s8.091-1.664,10.955-4.36L73.735,41.906z"/>
		<circle style="fill:#B6BCBD;" cx="71" cy="39" r="4"/>
	</g>
</g>
</svg>
