<?xml version="1.0" encoding="iso-8859-1"?>
<!-- Generator: Adobe Illustrator 17.1.0, SVG Export Plug-In . SVG Version: 6.00 Build 0)  -->
<!DOCTYPE svg PUBLIC "-//W3C//DTD SVG 1.0//EN" "http://www.w3.org/TR/2001/REC-SVG-20010904/DTD/svg10.dtd">
<svg version="1.0" xmlns="http://www.w3.org/2000/svg" xmlns:xlink="http://www.w3.org/1999/xlink" x="0px" y="0px" width="110px"
	 height="110px" viewBox="0 0 110 110" style="enable-background:new 0 0 110 110;" xml:space="preserve">
<g id="Artboard">
</g>
<g id="Multicolor">
	<circle style="fill:#E04F5F;" cx="55" cy="55" r="55"/>
	<g>
		<path style="fill:#FFFFFF;" d="M82,61c0,1.105-0.895,2-2,2H29c-1.105,0-2-0.895-2-2V25c0-1.105,0.895-2,2-2h51
			c1.105,0,2,0.895,2,2V61z"/>
		<rect x="39" y="63" style="fill:#CFD3D4;" width="32" height="4"/>
		<path style="fill:#FFFFFF;" d="M87,83c0,2.209-1.791,4-4,4H27c-2.209,0-4-1.791-4-4V71c0-2.209,1.791-4,4-4h56
			c2.209,0,4,1.791,4,4V83z"/>
		<rect x="31" y="27" style="fill:#17B198;" width="47" height="32"/>
		<path style="fill:#B6BCBD;" d="M40,80c0,0.552-0.448,1-1,1s-1-0.448-1-1v-6c0-0.552,0.448-1,1-1s1,0.448,1,1V80z"/>
		<path style="fill:#B6BCBD;" d="M44,80c0,0.552-0.448,1-1,1s-1-0.448-1-1v-6c0-0.552,0.448-1,1-1s1,0.448,1,1V80z"/>
		<path style="fill:#B6BCBD;" d="M48,80c0,0.552-0.448,1-1,1s-1-0.448-1-1v-6c0-0.552,0.448-1,1-1s1,0.448,1,1V80z"/>
		<path style="fill:#B6BCBD;" d="M52,80c0,0.552-0.448,1-1,1s-1-0.448-1-1v-6c0-0.552,0.448-1,1-1s1,0.448,1,1V80z"/>
		<path style="fill:#E2E4E5;" d="M83,80c0,2.209-1.791,4-4,4H63c-2.209,0-4-1.791-4-4v-6c0-2.209,1.791-4,4-4h16
			c2.209,0,4,1.791,4,4V80z"/>
		<path style="fill:#B6BCBD;" d="M79,74c0,0.552-0.448,1-1,1H64c-0.552,0-1-0.448-1-1s0.448-1,1-1h14C78.552,73,79,73.448,79,74z"/>
		<path style="fill:#B6BCBD;" d="M79,80c0,0.552-0.448,1-1,1H64c-0.552,0-1-0.448-1-1s0.448-1,1-1h14C78.552,79,79,79.448,79,80z"/>
		<polygon style="fill:#4AC3AF;" points="31,57.454 61.455,27 31,27 		"/>
		<path style="fill:#B6BCBD;" d="M31.059,73c-0.552,0-1,0.448-1,1v6c0,0.552,0.448,1,1,1s1-0.448,1-1v-6
			C32.059,73.448,31.611,73,31.059,73z"/>
		<path style="fill:#B6BCBD;" d="M35.059,73c-0.552,0-1,0.448-1,1v6c0,0.552,0.448,1,1,1s1-0.448,1-1v-6
			C36.059,73.448,35.611,73,35.059,73z"/>
	</g>
</g>
</svg>
