<?xml version="1.0" encoding="iso-8859-1"?>
<!-- Generator: Adobe Illustrator 17.1.0, SVG Export Plug-In . SVG Version: 6.00 Build 0)  -->
<!DOCTYPE svg PUBLIC "-//W3C//DTD SVG 1.0//EN" "http://www.w3.org/TR/2001/REC-SVG-20010904/DTD/svg10.dtd">
<svg version="1.0" xmlns="http://www.w3.org/2000/svg" xmlns:xlink="http://www.w3.org/1999/xlink" x="0px" y="0px" width="110px"
	 height="110px" viewBox="0 0 110 110" style="enable-background:new 0 0 110 110;" xml:space="preserve">
<g id="Artboard">
</g>
<g id="Multicolor">
	<circle style="fill:#32BEA6;" cx="55" cy="55" r="55"/>
	<g>
		<g>
			<path style="fill:#DF2C2C;" d="M80.965,54.546c-0.125-1.736-0.956-3.316-2.18-4.583c2.477,0.265,6.209-1.319,6.209-3.95
				c0-3-4.5-3.333-6.667-1.917c-0.636,0.416-1.179,0.958-1.556,1.556l-0.378-9.069C76.171,31.228,71.763,27,66.402,27H43.587
				c-5.361,0-9.768,4.228-9.991,9.584l-0.378,9.069c-0.377-0.598-0.92-1.14-1.556-1.556c-2.167-1.417-6.667-1.083-6.667,1.917
				c0,2.631,3.732,4.215,6.209,3.95c-1.215,1.257-2.043,2.822-2.177,4.543c-6.634,2.823-8.38,12.556-2.032,20.494h56
				C89.465,66.913,87.595,57.344,80.965,54.546z"/>
		</g>
		<g>
			<path style="fill:#FA5655;" d="M43.592,27c-5.361,0-9.768,4.228-9.991,9.584l-0.378,9.068c-0.377-0.598-0.92-1.14-1.556-1.556
				C29.5,42.68,25,43.013,25,46.013c0,2.631,3.732,4.215,6.209,3.95c-1.215,1.257-2.043,2.822-2.177,4.543
				c-4.435,1.887-6.668,6.866-5.776,12.33L63.092,27H43.592z"/>
		</g>
		<g>
			<path style="fill:#3E3E3F;" d="M35,85c0,1.105-0.895,2-2,2h-4c-1.105,0-2-0.895-2-2v-6h8V85z"/>
		</g>
		<g>
			<path style="fill:#3E3E3F;" d="M83,85c0,1.105-0.895,2-2,2h-4c-1.105,0-2-0.895-2-2v-6h8V85z"/>
		</g>
		<g>
			<path style="fill:#E2E4E5;" d="M87,77c0,1.105-0.895,2-2,2H25c-1.105,0-2-0.895-2-2s0.895-2,2-2h60C86.105,75,87,75.895,87,77z"
				/>
		</g>
		<g>
			<path style="fill:#40C9E7;" d="M38,47h34c0.267,0,0.535,0.014,0.802,0.04L72.285,36.7c-0.16-3.193-2.795-5.7-5.993-5.7H43.708
				c-3.197,0-5.833,2.507-5.992,5.7l-0.517,10.34C37.465,47.014,37.733,47,38,47z"/>
		</g>
		<g>
			<path style="fill:#6FDAF1;" d="M43.205,47l16-16H43.708c-3.197,0-5.833,2.507-5.992,5.7L37.2,47H43.205z"/>
		</g>
		<g>
			<path style="fill:#BF0302;" d="M43,57l9-4.5l1.21-0.61c0.26-0.13,0.52-0.22,0.79-0.28c0.66-0.18,1.34-0.18,2,0
				c0.27,0.06,0.53,0.15,0.79,0.28L58,52.5l9,4.5c5.636-3.523,10.467-3.933,13.971-2.454C80.669,50.34,76.265,47,72,47H38
				c-4.252,0-8.642,3.319-8.968,7.506C32.503,53.03,37.312,53.445,43,57z"/>
		</g>
		<g>
			<path style="fill:#B6BCBD;" d="M67,57v18H43V57c10.646-5.323,10.297-5.234,11-5.39c0.66-0.18,1.34-0.18,2,0
				C56.695,51.764,56.25,51.625,67,57z"/>
		</g>
		<g>
			<polygon style="fill:#E2E4E5;" points="48,54.5 48,75 46,75 46,55.5 			"/>
		</g>
		<g>
			<polygon style="fill:#E2E4E5;" points="52,52.5 52,75 50,75 50,53.5 			"/>
		</g>
		<g>
			<path style="fill:#E2E4E5;" d="M56,51.61V75h-2V51.61C54.66,51.43,55.34,51.43,56,51.61z"/>
		</g>
		<g>
			<polygon style="fill:#E2E4E5;" points="60,53.5 60,75 58,75 58,52.5 			"/>
		</g>
		<g>
			<polygon style="fill:#E2E4E5;" points="64,55.5 64,75 62,75 62,54.5 			"/>
		</g>
		<g>
			<circle style="fill:#FACB1B;" cx="74" cy="63" r="4"/>
		</g>
		<g>
			<circle style="fill:#FACB1B;" cx="36" cy="63" r="4"/>
		</g>
		<g>
			<circle style="fill:#FBE158;" cx="79" cy="71" r="2"/>
		</g>
		<g>
			<circle style="fill:#FBE158;" cx="31" cy="71" r="2"/>
		</g>
		<g>
			<path style="fill:#FBE158;" d="M74,59c-2.209,0-4,1.791-4,4c0,1.157,0.499,2.191,1.284,2.921l5.637-5.637
				C76.191,59.499,75.157,59,74,59z"/>
		</g>
		<g>
			<path style="fill:#FBE158;" d="M36,59c-2.209,0-4,1.791-4,4c0,1.157,0.499,2.19,1.284,2.921l5.637-5.637
				C38.191,59.499,37.157,59,36,59z"/>
		</g>
		<g>
			<path style="fill:#DF2C2C;" d="M38,47c-4.252,0-8.642,3.319-8.968,7.506c1.97-0.838,4.373-1.064,7.122-0.455L43.205,47H38z"/>
		</g>
	</g>
</g>
</svg>
