<?xml version="1.0" encoding="iso-8859-1"?>
<!-- Generator: Adobe Illustrator 17.1.0, SVG Export Plug-In . SVG Version: 6.00 Build 0)  -->
<!DOCTYPE svg PUBLIC "-//W3C//DTD SVG 1.0//EN" "http://www.w3.org/TR/2001/REC-SVG-20010904/DTD/svg10.dtd">
<svg version="1.0" xmlns="http://www.w3.org/2000/svg" xmlns:xlink="http://www.w3.org/1999/xlink" x="0px" y="0px" width="110px"
	 height="110px" viewBox="0 0 110 110" style="enable-background:new 0 0 110 110;" xml:space="preserve">
<g id="Artboard">
</g>
<g id="Multicolor">
	<circle style="fill:#E04F5F;" cx="55" cy="55" r="55"/>
	<g>
		<g>
			<path style="fill:#FACB1B;" d="M79,55c0,13.233-10.766,24-24,24S31,68.233,31,55s10.766-24,24-24
				c7.26,0,13.972,3.198,18.555,8.792L68,46h17V27l-6.062,6.775C72.862,26.904,64.265,23,55,23c-17.645,0-32,14.355-32,32
				s14.355,32,32,32s32-14.355,32-32H79z"/>
		</g>
		<path style="fill:#FBE158;" d="M31,55c0-13.233,10.766-24,24-24c3.717,0,7.289,0.844,10.506,2.413l5.899-5.899
			C66.526,24.589,60.9,23,55,23c-17.645,0-32,14.355-32,32c0,5.987,1.656,11.592,4.529,16.389l5.893-5.893
			C31.873,62.324,31,58.762,31,55z"/>
		<g>
			<path style="fill:#FFFFFF;" d="M41.491,50.934c1.465-2.803,3.889-4.066,6.339-4.066c3.939,0,5.985,2.702,5.985,5.505
				c0,1.667-0.606,3.485-2.222,5l-3.939,3.308h6.136v4.293H42.274l-1.137-2.349l7.273-8.182c2.399-2.702-1.565-5.278-3.535-1.667
				L41.491,50.934z"/>
			<path style="fill:#FFFFFF;" d="M68.51,61.111h-1.667V65h-4.318v-3.889h-6.288l-1.439-2.652l8.333-11.339h3.712v10.329h1.667
				V61.111z M62.854,57.5l0.051-4.571L59.697,57.5H62.854z"/>
		</g>
	</g>
</g>
</svg>
