<?xml version="1.0" encoding="iso-8859-1"?>
<!-- Generator: Adobe Illustrator 17.1.0, SVG Export Plug-In . SVG Version: 6.00 Build 0)  -->
<!DOCTYPE svg PUBLIC "-//W3C//DTD SVG 1.0//EN" "http://www.w3.org/TR/2001/REC-SVG-20010904/DTD/svg10.dtd">
<svg version="1.0" xmlns="http://www.w3.org/2000/svg" xmlns:xlink="http://www.w3.org/1999/xlink" x="0px" y="0px" width="110px"
	 height="110px" viewBox="0 0 110 110" style="enable-background:new 0 0 110 110;" xml:space="preserve">
<g id="Artboard" style="display:none;">
	
		<rect x="-200.5" y="-546.5" style="display:inline;fill:#808080;stroke:#000000;stroke-miterlimit:10;" width="1392" height="1369"/>
</g>
<g id="R-Multicolor">
	<circle style="fill:#E04F5F;" cx="55" cy="55" r="55"/>
	<g>
		<g>
			<circle style="fill:#F37A10;" cx="60.37" cy="56" r="25.188"/>
		</g>
		<g>
			<path style="fill:#F99134;" d="M60,30.822C46.26,31.021,35.182,42.213,35.182,56S46.26,80.979,60,81.178V30.822z"/>
		</g>
		<g>
			<path style="fill:#099686;" d="M79.752,39.917c1.498-0.702,2.985-1.737,4.325-3.077c4.292-4.291,2.59-12.95,2.59-12.95
				s-8.659-1.701-12.95,2.59c-1.906,1.905-3.19,4.107-3.782,6.218C73.774,34.275,77.139,36.771,79.752,39.917z"/>
		</g>
		<g>
			<path style="fill:#12B2A0;" d="M60.37,30.812c3.004,0,5.885,0.528,8.557,1.493c-0.399-1.122-0.943-2.251-1.653-3.343
				c-3.307-5.088-12.131-5.221-12.131-5.221s-1.664,3.913-1.577,8.008C55.73,31.144,58.011,30.812,60.37,30.812z"/>
		</g>
		<g>
			<path style="fill:#099686;" d="M60.01,30.822l-4.594-7.069c-0.164-0.008-0.273-0.01-0.273-0.01s-1.664,3.913-1.578,8.008
				C55.619,31.175,57.779,30.853,60.01,30.822z"/>
		</g>
		<g>
			<path style="fill:#12B2A0;" d="M75.216,35.657l11.498-11.498c-0.027-0.162-0.047-0.27-0.047-0.27s-8.659-1.701-12.95,2.59
				c-1.905,1.906-3.189,4.107-3.782,6.218C71.821,33.473,73.592,34.47,75.216,35.657z"/>
		</g>
		<g>
			<g>
				<path style="fill:#FCF6C2;" d="M26.445,69.742l12.53-10.964c-0.469-0.838-0.557-1.815-0.4-2.779H28.303
					c-1.146,2.241-2.153,5.071-2.397,7.75C25.701,66.011,25.917,67.995,26.445,69.742z"/>
			</g>
			<g>
				<path style="fill:#FCF6C2;" d="M40.359,60.141L27.197,71.658c2.088,4.197,6.38,6.584,11.511,7.329l3.32-18.26
					C41.416,60.616,40.851,60.422,40.359,60.141z"/>
			</g>
			<g>
				<path style="fill:#FCF6C2;" d="M47.559,58.945l10.484,12.231c1.409-2.169,2.357-4.68,2.738-7.427
					c0.363-2.624,0.808-5.146,0.203-7.75H48.74C48.589,57.073,48.349,57.986,47.559,58.945z"/>
			</g>
			<g>
				<path style="fill:#FCF6C2;" d="M43.986,60.789L40.64,79.194c0.572,0.037,1.15,0.056,1.735,0.056
					c6.09,0,11.181-2.476,14.489-6.472L46.057,60.17C45.445,60.5,44.747,60.708,43.986,60.789z"/>
			</g>
		</g>
		<g>
			<path style="fill:#F3B607;" d="M63.294,56h-0.011c2.633,13.623-7.82,26.156-21.574,26.156c-6.816,0-12.907-3.103-16.938-7.974
				C28.121,81.876,35.767,87,44.312,87c11.771,0,21.313-9.542,21.313-21.312C65.625,62.198,64.781,58.907,63.294,56z"/>
		</g>
		<g>
			<path style="fill:#FBE158;" d="M63.283,56h-2.299c0.605,2.604,0.161,5.126-0.203,7.75c-0.38,2.746-1.329,5.258-2.738,7.427
				L47.559,58.945c0.79-0.959,1.029-1.872,1.181-2.945H38.574c-0.157,0.964-0.068,1.941,0.4,2.779l-12.53,10.964
				c-1.378-4.568-0.333-9.459,1.859-13.742h-2.972c-2.894,5.656-3.11,12.324-0.56,18.183c4.031,4.87,10.122,7.974,16.938,7.974
				C55.471,82.156,65.915,69.615,63.283,56z M27.197,71.658l13.162-11.517c0.492,0.281,1.057,0.475,1.669,0.586l-3.32,18.26
				C33.577,78.242,29.284,75.854,27.197,71.658z M42.375,79.25c-0.585,0-1.164-0.019-1.735-0.056l3.346-18.405
				c0.761-0.08,1.459-0.288,2.071-0.619l10.807,12.609C53.556,76.774,48.465,79.25,42.375,79.25z"/>
		</g>
	</g>
</g>
<g id="Multicolor" style="display:none;">
	<g style="display:inline;">
		<g>
			<circle style="fill:#F37A10;" cx="60.37" cy="56" r="25.188"/>
		</g>
		<g>
			<path style="fill:#F99134;" d="M60,30.822C46.26,31.021,35.182,42.213,35.182,56S46.26,80.979,60,81.178V30.822z"/>
		</g>
		<g>
			<path style="fill:#099686;" d="M79.752,39.917c1.498-0.702,2.985-1.737,4.325-3.077c4.292-4.291,2.59-12.95,2.59-12.95
				s-8.659-1.701-12.95,2.59c-1.906,1.905-3.19,4.107-3.782,6.218C73.774,34.275,77.139,36.771,79.752,39.917z"/>
		</g>
		<g>
			<path style="fill:#12B2A0;" d="M60.37,30.812c3.004,0,5.885,0.528,8.557,1.493c-0.399-1.122-0.943-2.251-1.653-3.343
				c-3.307-5.088-12.131-5.221-12.131-5.221s-1.664,3.913-1.577,8.008C55.73,31.144,58.011,30.812,60.37,30.812z"/>
		</g>
		<g>
			<path style="fill:#099686;" d="M60.01,30.822l-4.594-7.069c-0.164-0.008-0.273-0.01-0.273-0.01s-1.664,3.913-1.578,8.008
				C55.619,31.175,57.779,30.853,60.01,30.822z"/>
		</g>
		<g>
			<path style="fill:#12B2A0;" d="M75.216,35.657l11.498-11.498c-0.027-0.162-0.047-0.27-0.047-0.27s-8.659-1.701-12.95,2.59
				c-1.905,1.906-3.189,4.107-3.782,6.218C71.821,33.473,73.592,34.47,75.216,35.657z"/>
		</g>
		<g>
			<g>
				<path style="fill:#FCF6C2;" d="M26.445,69.742l12.53-10.964c-0.469-0.838-0.557-1.815-0.4-2.779H28.303
					c-1.146,2.241-2.153,5.071-2.397,7.75C25.701,66.011,25.917,67.995,26.445,69.742z"/>
			</g>
			<g>
				<path style="fill:#FCF6C2;" d="M40.359,60.141L27.197,71.658c2.088,4.197,6.38,6.584,11.511,7.329l3.32-18.26
					C41.416,60.616,40.851,60.422,40.359,60.141z"/>
			</g>
			<g>
				<path style="fill:#FCF6C2;" d="M47.559,58.945l10.484,12.231c1.409-2.169,2.357-4.68,2.738-7.427
					c0.363-2.624,0.808-5.146,0.203-7.75H48.74C48.589,57.073,48.349,57.986,47.559,58.945z"/>
			</g>
			<g>
				<path style="fill:#FCF6C2;" d="M43.986,60.789L40.64,79.194c0.572,0.037,1.15,0.056,1.735,0.056
					c6.09,0,11.181-2.476,14.489-6.472L46.057,60.17C45.445,60.5,44.747,60.708,43.986,60.789z"/>
			</g>
		</g>
		<g>
			<path style="fill:#F3B607;" d="M63.294,56h-0.011c2.633,13.623-7.82,26.156-21.574,26.156c-6.816,0-12.907-3.103-16.938-7.974
				C28.121,81.876,35.767,87,44.312,87c11.771,0,21.313-9.542,21.313-21.312C65.625,62.198,64.781,58.907,63.294,56z"/>
		</g>
		<g>
			<path style="fill:#FBE158;" d="M63.283,56h-2.299c0.605,2.604,0.161,5.126-0.203,7.75c-0.38,2.746-1.329,5.258-2.738,7.427
				L47.559,58.945c0.79-0.959,1.029-1.872,1.181-2.945H38.574c-0.157,0.964-0.068,1.941,0.4,2.779l-12.53,10.964
				c-1.378-4.568-0.333-9.459,1.859-13.742h-2.972c-2.894,5.656-3.11,12.324-0.56,18.183c4.031,4.87,10.122,7.974,16.938,7.974
				C55.471,82.156,65.915,69.615,63.283,56z M27.197,71.658l13.162-11.517c0.492,0.281,1.057,0.475,1.669,0.586l-3.32,18.26
				C33.577,78.242,29.284,75.854,27.197,71.658z M42.375,79.25c-0.585,0-1.164-0.019-1.735-0.056l3.346-18.405
				c0.761-0.08,1.459-0.288,2.071-0.619l10.807,12.609C53.556,76.774,48.465,79.25,42.375,79.25z"/>
		</g>
	</g>
</g>
<g id="Blue" style="display:none;">
	<g style="display:inline;">
		<g>
			<circle style="fill:#0081A1;" cx="60.369" cy="56" r="25.188"/>
		</g>
		<g>
			<path style="fill:#009FC7;" d="M60,30.822C46.26,31.021,35.182,42.213,35.182,56S46.26,80.979,60,81.178V30.822z"/>
		</g>
		<g>
			<path style="fill:#BBE7F2;" d="M79.752,39.917c1.498-0.702,2.985-1.736,4.325-3.076c4.292-4.291,2.59-12.95,2.59-12.95
				s-8.659-1.702-12.95,2.59c-1.905,1.905-3.189,4.107-3.783,6.218C73.774,34.275,77.139,36.771,79.752,39.917z"/>
		</g>
		<g>
			<path style="fill:#E1F5FA;" d="M60.369,30.812c3.005,0,5.885,0.528,8.557,1.494c-0.399-1.123-0.943-2.252-1.652-3.343
				c-3.307-5.089-12.131-5.221-12.131-5.221s-1.664,3.913-1.578,8.008C55.73,31.144,58.011,30.812,60.369,30.812z"/>
		</g>
		<g>
			<path style="fill:#BBE7F2;" d="M60.01,30.822l-4.594-7.069c-0.164-0.008-0.273-0.011-0.273-0.011s-1.664,3.913-1.578,8.008
				C55.619,31.175,57.779,30.853,60.01,30.822z"/>
		</g>
		<g>
			<path style="fill:#E1F5FA;" d="M75.216,35.658L86.713,24.16c-0.025-0.162-0.047-0.27-0.047-0.27s-8.658-1.702-12.949,2.59
				c-1.905,1.906-3.189,4.107-3.783,6.218C71.82,33.473,73.592,34.47,75.216,35.658z"/>
		</g>
		<g>
			<g>
				<path style="fill:#FFFFFF;" d="M26.445,69.742l12.529-10.963c-0.469-0.837-0.559-1.815-0.4-2.779H28.303
					c-1.146,2.241-2.152,5.071-2.396,7.75C25.701,66.011,25.918,67.995,26.445,69.742z"/>
			</g>
			<g>
				<path style="fill:#FFFFFF;" d="M40.359,60.141L27.196,71.658c2.088,4.197,6.38,6.584,11.512,7.329l3.319-18.26
					C41.416,60.616,40.852,60.422,40.359,60.141z"/>
			</g>
			<g>
				<path style="fill:#FFFFFF;" d="M47.559,58.945l10.484,12.232c1.409-2.169,2.357-4.68,2.738-7.427
					c0.363-2.624,0.809-5.146,0.203-7.75H48.74C48.589,57.073,48.349,57.986,47.559,58.945z"/>
			</g>
			<g>
				<path style="fill:#FFFFFF;" d="M43.986,60.789L40.64,79.194c0.571,0.037,1.15,0.056,1.735,0.056
					c6.09,0,11.181-2.476,14.489-6.472L46.057,60.17C45.445,60.5,44.746,60.708,43.986,60.789z"/>
			</g>
		</g>
		<g>
			<path style="fill:#009FC7;" d="M63.294,56h-0.011c2.633,13.623-7.82,26.156-21.574,26.156c-6.816,0-12.907-3.104-16.938-7.974
				C28.121,81.877,35.768,87,44.312,87c11.771,0,21.312-9.541,21.312-21.312C65.625,62.198,64.781,58.907,63.294,56z"/>
		</g>
		<g>
			<path style="fill:#BBE7F2;" d="M63.283,56h-2.299c0.605,2.604,0.16,5.126-0.203,7.75c-0.381,2.747-1.329,5.258-2.738,7.427
				L47.559,58.945c0.79-0.959,1.03-1.873,1.182-2.945H38.574c-0.158,0.964-0.068,1.941,0.4,2.779L26.445,69.742
				c-1.379-4.568-0.334-9.459,1.857-13.742H25.33c-2.893,5.656-3.109,12.324-0.56,18.183c4.031,4.87,10.122,7.974,16.938,7.974
				C55.471,82.156,65.915,69.615,63.283,56z M27.196,71.658l13.163-11.517c0.492,0.281,1.057,0.475,1.668,0.586l-3.319,18.26
				C33.576,78.242,29.284,75.854,27.196,71.658z M42.375,79.25c-0.585,0-1.164-0.019-1.735-0.056l3.347-18.405
				c0.76-0.081,1.459-0.289,2.07-0.619l10.808,12.608C53.556,76.774,48.465,79.25,42.375,79.25z"/>
		</g>
	</g>
</g>
<g id="R-Blue" style="display:none;">
	<circle style="display:inline;fill:#81D2EB;" cx="55" cy="55" r="55"/>
	<g style="display:inline;">
		<g>
			<circle style="fill:#0081A1;" cx="60.369" cy="56" r="25.188"/>
		</g>
		<g>
			<path style="fill:#009FC7;" d="M60,30.822C46.26,31.02,35.182,42.213,35.182,56S46.26,80.979,60,81.178V30.822z"/>
		</g>
		<g>
			<path style="fill:#BBE7F2;" d="M79.752,39.916c1.498-0.702,2.985-1.736,4.325-3.076c4.292-4.291,2.59-12.95,2.59-12.95
				s-8.659-1.702-12.95,2.59c-1.905,1.905-3.189,4.107-3.783,6.218C73.774,34.275,77.139,36.771,79.752,39.916z"/>
		</g>
		<g>
			<path style="fill:#E1F5FA;" d="M60.369,30.812c3.005,0,5.885,0.528,8.557,1.494c-0.399-1.123-0.943-2.252-1.652-3.343
				c-3.307-5.089-12.131-5.221-12.131-5.221s-1.664,3.913-1.578,8.008C55.73,31.144,58.011,30.812,60.369,30.812z"/>
		</g>
		<g>
			<path style="fill:#BBE7F2;" d="M60.01,30.822l-4.594-7.069c-0.164-0.008-0.273-0.011-0.273-0.011s-1.664,3.913-1.578,8.008
				C55.619,31.175,57.779,30.852,60.01,30.822z"/>
		</g>
		<g>
			<path style="fill:#E1F5FA;" d="M75.216,35.658L86.713,24.16c-0.025-0.162-0.047-0.27-0.047-0.27s-8.658-1.702-12.949,2.59
				c-1.905,1.906-3.189,4.107-3.783,6.218C71.82,33.473,73.592,34.47,75.216,35.658z"/>
		</g>
		<g>
			<g>
				<path style="fill:#FFFFFF;" d="M26.445,69.742l12.529-10.963c-0.469-0.837-0.559-1.815-0.4-2.779H28.303
					c-1.146,2.241-2.152,5.071-2.396,7.75C25.701,66.011,25.918,67.995,26.445,69.742z"/>
			</g>
			<g>
				<path style="fill:#FFFFFF;" d="M40.359,60.141L27.196,71.658c2.088,4.197,6.38,6.584,11.512,7.329l3.319-18.26
					C41.416,60.616,40.852,60.422,40.359,60.141z"/>
			</g>
			<g>
				<path style="fill:#FFFFFF;" d="M47.559,58.945l10.484,12.231c1.409-2.169,2.357-4.68,2.738-7.427
					c0.363-2.624,0.809-5.146,0.203-7.75H48.74C48.589,57.073,48.349,57.986,47.559,58.945z"/>
			</g>
			<g>
				<path style="fill:#FFFFFF;" d="M43.986,60.789L40.64,79.194c0.571,0.037,1.15,0.056,1.735,0.056
					c6.09,0,11.181-2.476,14.489-6.472L46.057,60.17C45.445,60.5,44.746,60.708,43.986,60.789z"/>
			</g>
		</g>
		<g>
			<path style="fill:#009FC7;" d="M63.294,56h-0.011c2.633,13.623-7.82,26.156-21.574,26.156c-6.816,0-12.907-3.104-16.938-7.974
				C28.121,81.876,35.768,87,44.312,87c11.771,0,21.312-9.542,21.312-21.312C65.625,62.198,64.781,58.907,63.294,56z"/>
		</g>
		<g>
			<path style="fill:#BBE7F2;" d="M63.283,56h-2.299c0.605,2.604,0.16,5.126-0.203,7.75c-0.381,2.747-1.329,5.258-2.738,7.427
				L47.559,58.945c0.79-0.959,1.03-1.873,1.182-2.945H38.574c-0.158,0.964-0.068,1.941,0.4,2.779L26.445,69.742
				c-1.379-4.568-0.334-9.459,1.857-13.742H25.33c-2.893,5.656-3.109,12.324-0.56,18.183c4.031,4.87,10.122,7.974,16.938,7.974
				C55.471,82.156,65.915,69.615,63.283,56z M27.196,71.658l13.163-11.517c0.492,0.281,1.057,0.475,1.668,0.586l-3.319,18.26
				C33.576,78.242,29.284,75.854,27.196,71.658z M42.375,79.25c-0.585,0-1.164-0.019-1.735-0.056l3.347-18.405
				c0.76-0.081,1.459-0.289,2.07-0.619l10.808,12.608C53.556,76.774,48.465,79.25,42.375,79.25z"/>
		</g>
	</g>
</g>
<g id="Green" style="display:none;">
	<g style="display:inline;">
		<g>
			<circle style="fill:#009687;" cx="60.369" cy="56" r="25.188"/>
		</g>
		<g>
			<path style="fill:#00B8A5;" d="M60,30.822C46.26,31.021,35.182,42.213,35.182,56S46.26,80.979,60,81.178V30.822z"/>
		</g>
		<g>
			<path style="fill:#AAF0E9;" d="M79.752,39.917c1.498-0.702,2.985-1.736,4.325-3.076c4.292-4.291,2.59-12.95,2.59-12.95
				s-8.659-1.702-12.95,2.59c-1.905,1.905-3.189,4.107-3.783,6.218C73.774,34.275,77.139,36.771,79.752,39.917z"/>
		</g>
		<g>
			<path style="fill:#D7FCF9;" d="M60.369,30.812c3.005,0,5.885,0.528,8.557,1.494c-0.398-1.123-0.943-2.252-1.652-3.343
				c-3.307-5.089-12.131-5.221-12.131-5.221s-1.664,3.913-1.578,8.008C55.73,31.144,58.011,30.812,60.369,30.812z"/>
		</g>
		<g>
			<path style="fill:#AAF0E9;" d="M60.01,30.822l-4.594-7.069c-0.164-0.008-0.273-0.011-0.273-0.011s-1.664,3.913-1.578,8.008
				C55.619,31.175,57.779,30.853,60.01,30.822z"/>
		</g>
		<g>
			<path style="fill:#D7FCF9;" d="M75.216,35.658L86.713,24.16c-0.025-0.162-0.047-0.27-0.047-0.27s-8.658-1.702-12.949,2.59
				c-1.905,1.906-3.189,4.107-3.783,6.218C71.82,33.473,73.592,34.47,75.216,35.658z"/>
		</g>
		<g>
			<g>
				<path style="fill:#FFFFFF;" d="M26.445,69.742l12.529-10.963c-0.469-0.837-0.559-1.815-0.4-2.779H28.303
					c-1.146,2.241-2.152,5.071-2.396,7.75C25.701,66.011,25.918,67.995,26.445,69.742z"/>
			</g>
			<g>
				<path style="fill:#FFFFFF;" d="M40.359,60.141L27.196,71.658c2.088,4.197,6.38,6.584,11.512,7.329l3.319-18.26
					C41.416,60.616,40.852,60.422,40.359,60.141z"/>
			</g>
			<g>
				<path style="fill:#FFFFFF;" d="M47.559,58.945l10.484,12.232c1.409-2.169,2.357-4.68,2.738-7.427
					c0.363-2.624,0.809-5.146,0.203-7.75H48.74C48.589,57.073,48.349,57.986,47.559,58.945z"/>
			</g>
			<g>
				<path style="fill:#FFFFFF;" d="M43.986,60.789L40.64,79.194c0.571,0.037,1.15,0.056,1.735,0.056
					c6.09,0,11.181-2.476,14.489-6.472L46.057,60.17C45.445,60.5,44.746,60.708,43.986,60.789z"/>
			</g>
		</g>
		<g>
			<path style="fill:#00B8A5;" d="M63.294,56h-0.011c2.633,13.623-7.82,26.156-21.574,26.156c-6.816,0-12.907-3.104-16.938-7.974
				C28.121,81.877,35.768,87,44.312,87c11.771,0,21.313-9.541,21.313-21.312C65.625,62.198,64.781,58.907,63.294,56z"/>
		</g>
		<g>
			<path style="fill:#AAF0E9;" d="M63.283,56h-2.299c0.605,2.604,0.16,5.126-0.203,7.75c-0.381,2.747-1.329,5.258-2.738,7.427
				L47.559,58.945c0.79-0.959,1.03-1.873,1.182-2.945H38.574c-0.158,0.964-0.068,1.941,0.4,2.779L26.445,69.742
				c-1.379-4.568-0.334-9.459,1.857-13.742H25.33c-2.893,5.656-3.109,12.324-0.56,18.183c4.031,4.87,10.122,7.974,16.938,7.974
				C55.471,82.156,65.915,69.615,63.283,56z M27.196,71.658l13.163-11.517c0.492,0.281,1.057,0.475,1.668,0.586l-3.319,18.26
				C33.576,78.242,29.284,75.854,27.196,71.658z M42.375,79.25c-0.585,0-1.164-0.019-1.735-0.056l3.347-18.405
				c0.76-0.081,1.459-0.289,2.07-0.619l10.808,12.608C53.556,76.774,48.465,79.25,42.375,79.25z"/>
		</g>
	</g>
</g>
<g id="R-Green" style="display:none;">
	<circle style="display:inline;fill:#77E0C4;" cx="55" cy="55" r="55"/>
	<g style="display:inline;">
		<g>
			<circle style="fill:#009687;" cx="60.369" cy="56" r="25.188"/>
		</g>
		<g>
			<path style="fill:#00B8A5;" d="M60,30.822C46.26,31.021,35.182,42.213,35.182,56S46.26,80.979,60,81.178V30.822z"/>
		</g>
		<g>
			<path style="fill:#AAF0E9;" d="M79.752,39.917c1.498-0.702,2.985-1.736,4.325-3.076c4.292-4.291,2.59-12.95,2.59-12.95
				s-8.659-1.702-12.95,2.59c-1.905,1.905-3.189,4.107-3.783,6.218C73.774,34.275,77.139,36.771,79.752,39.917z"/>
		</g>
		<g>
			<path style="fill:#D7FCF9;" d="M60.369,30.812c3.005,0,5.885,0.528,8.557,1.494c-0.398-1.123-0.943-2.252-1.652-3.343
				c-3.307-5.089-12.131-5.221-12.131-5.221s-1.664,3.913-1.578,8.008C55.73,31.144,58.011,30.812,60.369,30.812z"/>
		</g>
		<g>
			<path style="fill:#AAF0E9;" d="M60.01,30.822l-4.594-7.069c-0.164-0.008-0.273-0.011-0.273-0.011s-1.664,3.913-1.578,8.008
				C55.619,31.175,57.779,30.853,60.01,30.822z"/>
		</g>
		<g>
			<path style="fill:#D7FCF9;" d="M75.216,35.658L86.713,24.16c-0.025-0.162-0.047-0.27-0.047-0.27s-8.658-1.702-12.949,2.59
				c-1.905,1.906-3.189,4.107-3.783,6.218C71.82,33.473,73.592,34.47,75.216,35.658z"/>
		</g>
		<g>
			<g>
				<path style="fill:#FFFFFF;" d="M26.445,69.742l12.529-10.963c-0.469-0.837-0.559-1.815-0.4-2.779H28.303
					c-1.146,2.241-2.152,5.071-2.396,7.75C25.701,66.011,25.918,67.995,26.445,69.742z"/>
			</g>
			<g>
				<path style="fill:#FFFFFF;" d="M40.359,60.141L27.196,71.658c2.088,4.197,6.38,6.584,11.512,7.329l3.319-18.26
					C41.416,60.616,40.852,60.422,40.359,60.141z"/>
			</g>
			<g>
				<path style="fill:#FFFFFF;" d="M47.559,58.945l10.484,12.232c1.409-2.169,2.357-4.68,2.738-7.427
					c0.363-2.624,0.809-5.146,0.203-7.75H48.74C48.589,57.073,48.349,57.986,47.559,58.945z"/>
			</g>
			<g>
				<path style="fill:#FFFFFF;" d="M43.986,60.789L40.64,79.194c0.571,0.037,1.15,0.056,1.735,0.056
					c6.09,0,11.181-2.476,14.489-6.472L46.057,60.17C45.445,60.5,44.746,60.708,43.986,60.789z"/>
			</g>
		</g>
		<g>
			<path style="fill:#00B8A5;" d="M63.294,56h-0.011c2.633,13.623-7.82,26.156-21.574,26.156c-6.816,0-12.907-3.104-16.938-7.974
				C28.121,81.877,35.768,87,44.312,87c11.771,0,21.312-9.541,21.312-21.312C65.625,62.198,64.781,58.907,63.294,56z"/>
		</g>
		<g>
			<path style="fill:#AAF0E9;" d="M63.283,56h-2.299c0.605,2.604,0.16,5.126-0.203,7.75c-0.381,2.747-1.329,5.258-2.738,7.427
				L47.559,58.945c0.79-0.959,1.03-1.873,1.182-2.945H38.574c-0.158,0.964-0.068,1.941,0.4,2.779L26.445,69.742
				c-1.379-4.568-0.334-9.459,1.857-13.742H25.33c-2.893,5.656-3.109,12.324-0.56,18.183c4.031,4.87,10.122,7.974,16.938,7.974
				C55.471,82.156,65.915,69.615,63.283,56z M27.196,71.658l13.163-11.517c0.492,0.281,1.057,0.475,1.668,0.586l-3.319,18.26
				C33.576,78.242,29.284,75.854,27.196,71.658z M42.375,79.25c-0.585,0-1.164-0.019-1.735-0.056l3.347-18.405
				c0.76-0.081,1.459-0.289,2.07-0.619l10.808,12.608C53.556,76.774,48.465,79.25,42.375,79.25z"/>
		</g>
	</g>
</g>
<g id="Red" style="display:none;">
	<g style="display:inline;">
		<g>
			<circle style="fill:#C23023;" cx="60.369" cy="56" r="25.188"/>
		</g>
		<g>
			<path style="fill:#E54B44;" d="M60,30.822C46.26,31.021,35.182,42.213,35.182,56S46.26,80.979,60,81.178V30.822z"/>
		</g>
		<g>
			<path style="fill:#FFD7D4;" d="M79.752,39.917c1.498-0.702,2.985-1.736,4.325-3.076c4.292-4.291,2.59-12.95,2.59-12.95
				s-8.659-1.702-12.95,2.59c-1.905,1.905-3.189,4.107-3.783,6.218C73.774,34.275,77.139,36.771,79.752,39.917z"/>
		</g>
		<g>
			<path style="fill:#FFEFED;" d="M60.369,30.812c3.005,0,5.885,0.528,8.557,1.494c-0.398-1.123-0.943-2.251-1.652-3.343
				c-3.307-5.089-12.131-5.221-12.131-5.221s-1.664,3.913-1.578,8.008C55.73,31.144,58.011,30.812,60.369,30.812z"/>
		</g>
		<g>
			<path style="fill:#FFD7D4;" d="M60.01,30.822l-4.594-7.069c-0.164-0.008-0.273-0.011-0.273-0.011s-1.664,3.913-1.578,8.008
				C55.619,31.175,57.779,30.853,60.01,30.822z"/>
		</g>
		<g>
			<path style="fill:#FFEFED;" d="M75.216,35.658L86.713,24.16c-0.025-0.162-0.047-0.27-0.047-0.27s-8.658-1.702-12.949,2.59
				c-1.905,1.906-3.189,4.107-3.783,6.218C71.82,33.473,73.592,34.47,75.216,35.658z"/>
		</g>
		<g>
			<g>
				<path style="fill:#FFFFFF;" d="M26.445,69.742l12.529-10.963c-0.469-0.837-0.559-1.815-0.4-2.779H28.303
					c-1.146,2.241-2.152,5.071-2.396,7.75C25.701,66.011,25.918,67.995,26.445,69.742z"/>
			</g>
			<g>
				<path style="fill:#FFFFFF;" d="M40.359,60.141L27.196,71.658c2.088,4.197,6.38,6.584,11.512,7.329l3.319-18.26
					C41.416,60.616,40.852,60.422,40.359,60.141z"/>
			</g>
			<g>
				<path style="fill:#FFFFFF;" d="M47.559,58.945l10.484,12.232c1.409-2.169,2.357-4.68,2.738-7.427
					c0.363-2.624,0.809-5.146,0.203-7.75H48.74C48.589,57.073,48.349,57.986,47.559,58.945z"/>
			</g>
			<g>
				<path style="fill:#FFFFFF;" d="M43.986,60.789L40.64,79.194c0.571,0.037,1.15,0.056,1.735,0.056
					c6.09,0,11.181-2.476,14.489-6.472L46.057,60.17C45.445,60.5,44.746,60.708,43.986,60.789z"/>
			</g>
		</g>
		<g>
			<path style="fill:#E54B44;" d="M63.294,56h-0.011c2.633,13.623-7.82,26.156-21.574,26.156c-6.816,0-12.907-3.104-16.938-7.974
				C28.121,81.877,35.768,87,44.312,87c11.771,0,21.312-9.541,21.312-21.312C65.625,62.198,64.781,58.907,63.294,56z"/>
		</g>
		<g>
			<path style="fill:#FFD7D4;" d="M63.283,56h-2.299c0.605,2.604,0.16,5.126-0.203,7.75c-0.381,2.747-1.329,5.258-2.738,7.427
				L47.559,58.945c0.79-0.959,1.03-1.873,1.182-2.945H38.574c-0.158,0.964-0.068,1.941,0.4,2.779L26.445,69.742
				c-1.379-4.568-0.334-9.459,1.857-13.742H25.33c-2.893,5.656-3.109,12.324-0.56,18.183c4.031,4.87,10.122,7.974,16.938,7.974
				C55.471,82.156,65.915,69.615,63.283,56z M27.196,71.658l13.163-11.517c0.492,0.281,1.057,0.475,1.668,0.586l-3.319,18.26
				C33.576,78.242,29.284,75.854,27.196,71.658z M42.375,79.25c-0.585,0-1.164-0.019-1.735-0.056l3.347-18.405
				c0.76-0.081,1.459-0.289,2.07-0.619l10.808,12.608C53.556,76.774,48.465,79.25,42.375,79.25z"/>
		</g>
	</g>
</g>
<g id="R-Red" style="display:none;">
	<circle style="display:inline;fill:#FABBAF;" cx="55" cy="55" r="55"/>
	<g style="display:inline;">
		<g>
			<circle style="fill:#C23023;" cx="60.369" cy="56" r="25.188"/>
		</g>
		<g>
			<path style="fill:#E54B44;" d="M60,30.822C46.26,31.021,35.182,42.213,35.182,56S46.26,80.979,60,81.178V30.822z"/>
		</g>
		<g>
			<path style="fill:#FFD7D4;" d="M79.752,39.917c1.498-0.702,2.985-1.736,4.325-3.076c4.292-4.291,2.59-12.95,2.59-12.95
				s-8.659-1.702-12.95,2.59c-1.905,1.905-3.189,4.107-3.783,6.218C73.774,34.275,77.139,36.771,79.752,39.917z"/>
		</g>
		<g>
			<path style="fill:#FFEFED;" d="M60.369,30.812c3.005,0,5.885,0.528,8.557,1.494c-0.398-1.123-0.943-2.251-1.652-3.343
				c-3.307-5.089-12.131-5.221-12.131-5.221s-1.664,3.913-1.578,8.008C55.73,31.144,58.011,30.812,60.369,30.812z"/>
		</g>
		<g>
			<path style="fill:#FFD7D4;" d="M60.01,30.822l-4.594-7.069c-0.164-0.008-0.273-0.011-0.273-0.011s-1.664,3.913-1.578,8.008
				C55.619,31.175,57.779,30.853,60.01,30.822z"/>
		</g>
		<g>
			<path style="fill:#FFEFED;" d="M75.216,35.658L86.713,24.16c-0.025-0.162-0.047-0.27-0.047-0.27s-8.658-1.702-12.949,2.59
				c-1.905,1.906-3.189,4.107-3.783,6.218C71.82,33.473,73.592,34.47,75.216,35.658z"/>
		</g>
		<g>
			<g>
				<path style="fill:#FFFFFF;" d="M26.445,69.742l12.529-10.963c-0.469-0.837-0.559-1.815-0.4-2.779H28.303
					c-1.146,2.241-2.152,5.071-2.396,7.75C25.701,66.011,25.918,67.995,26.445,69.742z"/>
			</g>
			<g>
				<path style="fill:#FFFFFF;" d="M40.359,60.141L27.196,71.658c2.088,4.197,6.38,6.584,11.512,7.329l3.319-18.26
					C41.416,60.616,40.852,60.422,40.359,60.141z"/>
			</g>
			<g>
				<path style="fill:#FFFFFF;" d="M47.559,58.945l10.484,12.232c1.409-2.169,2.357-4.68,2.738-7.427
					c0.363-2.624,0.809-5.146,0.203-7.75H48.74C48.589,57.073,48.349,57.986,47.559,58.945z"/>
			</g>
			<g>
				<path style="fill:#FFFFFF;" d="M43.986,60.789L40.64,79.194c0.571,0.037,1.15,0.056,1.735,0.056
					c6.09,0,11.181-2.476,14.489-6.472L46.057,60.17C45.445,60.5,44.746,60.708,43.986,60.789z"/>
			</g>
		</g>
		<g>
			<path style="fill:#E54B44;" d="M63.294,56h-0.011c2.633,13.623-7.82,26.156-21.574,26.156c-6.816,0-12.907-3.104-16.938-7.974
				C28.121,81.877,35.768,87,44.312,87c11.771,0,21.312-9.541,21.312-21.312C65.625,62.198,64.781,58.907,63.294,56z"/>
		</g>
		<g>
			<path style="fill:#FFD7D4;" d="M63.283,56h-2.299c0.605,2.604,0.16,5.126-0.203,7.75c-0.381,2.747-1.329,5.258-2.738,7.427
				L47.559,58.945c0.79-0.959,1.03-1.873,1.182-2.945H38.574c-0.158,0.964-0.068,1.941,0.4,2.779L26.445,69.742
				c-1.379-4.568-0.334-9.459,1.857-13.742H25.33c-2.893,5.656-3.109,12.324-0.56,18.183c4.031,4.87,10.122,7.974,16.938,7.974
				C55.471,82.156,65.915,69.615,63.283,56z M27.196,71.658l13.163-11.517c0.492,0.281,1.057,0.475,1.668,0.586l-3.319,18.26
				C33.576,78.242,29.284,75.854,27.196,71.658z M42.375,79.25c-0.585,0-1.164-0.019-1.735-0.056l3.347-18.405
				c0.76-0.081,1.459-0.289,2.07-0.619l10.808,12.608C53.556,76.774,48.465,79.25,42.375,79.25z"/>
		</g>
	</g>
</g>
<g id="Yellow" style="display:none;">
	<g style="display:inline;">
		<g>
			<circle style="fill:#E07000;" cx="60.369" cy="56" r="25.188"/>
		</g>
		<g>
			<path style="fill:#FA9200;" d="M60,30.822C46.26,31.021,35.182,42.213,35.182,56S46.26,80.979,60,81.178V30.822z"/>
		</g>
		<g>
			<path style="fill:#FFE9A1;" d="M79.752,39.917c1.498-0.702,2.985-1.736,4.325-3.076c4.292-4.291,2.59-12.95,2.59-12.95
				s-8.659-1.702-12.95,2.59c-1.905,1.905-3.189,4.107-3.783,6.218C73.774,34.275,77.139,36.771,79.752,39.917z"/>
		</g>
		<g>
			<path style="fill:#FFF5D9;" d="M60.369,30.812c3.005,0,5.885,0.528,8.557,1.494c-0.398-1.123-0.943-2.252-1.652-3.343
				c-3.307-5.089-12.131-5.221-12.131-5.221s-1.664,3.913-1.578,8.008C55.73,31.144,58.011,30.812,60.369,30.812z"/>
		</g>
		<g>
			<path style="fill:#FFE9A1;" d="M60.01,30.822l-4.594-7.069c-0.164-0.008-0.273-0.011-0.273-0.011s-1.664,3.913-1.578,8.008
				C55.619,31.175,57.779,30.853,60.01,30.822z"/>
		</g>
		<g>
			<path style="fill:#FFF5D9;" d="M75.216,35.658L86.713,24.16c-0.025-0.162-0.047-0.27-0.047-0.27s-8.658-1.702-12.949,2.59
				c-1.905,1.906-3.189,4.107-3.783,6.218C71.82,33.473,73.592,34.47,75.216,35.658z"/>
		</g>
		<g>
			<g>
				<path style="fill:#FFFFFF;" d="M26.445,69.742l12.529-10.963c-0.469-0.837-0.559-1.815-0.4-2.779H28.303
					c-1.146,2.241-2.152,5.071-2.396,7.75C25.701,66.011,25.918,67.995,26.445,69.742z"/>
			</g>
			<g>
				<path style="fill:#FFFFFF;" d="M40.359,60.141L27.196,71.658c2.088,4.197,6.38,6.584,11.512,7.329l3.319-18.26
					C41.416,60.616,40.852,60.422,40.359,60.141z"/>
			</g>
			<g>
				<path style="fill:#FFFFFF;" d="M47.559,58.945l10.484,12.232c1.409-2.169,2.357-4.68,2.738-7.427
					c0.363-2.624,0.809-5.146,0.203-7.75H48.74C48.589,57.073,48.349,57.986,47.559,58.945z"/>
			</g>
			<g>
				<path style="fill:#FFFFFF;" d="M43.986,60.789L40.64,79.194c0.571,0.037,1.15,0.056,1.735,0.056
					c6.09,0,11.181-2.476,14.489-6.472L46.057,60.17C45.445,60.5,44.746,60.708,43.986,60.789z"/>
			</g>
		</g>
		<g>
			<path style="fill:#FA9200;" d="M63.294,56h-0.011c2.633,13.623-7.82,26.156-21.574,26.156c-6.816,0-12.907-3.104-16.938-7.974
				C28.121,81.877,35.768,87,44.312,87c11.771,0,21.312-9.541,21.312-21.312C65.625,62.198,64.781,58.907,63.294,56z"/>
		</g>
		<g>
			<path style="fill:#FFE9A1;" d="M63.283,56h-2.299c0.605,2.604,0.16,5.126-0.203,7.75c-0.381,2.747-1.329,5.258-2.738,7.427
				L47.559,58.945c0.79-0.959,1.03-1.873,1.182-2.945H38.574c-0.158,0.964-0.068,1.941,0.4,2.779L26.445,69.742
				c-1.379-4.568-0.334-9.459,1.857-13.742H25.33c-2.893,5.656-3.109,12.324-0.56,18.183c4.031,4.87,10.122,7.974,16.938,7.974
				C55.471,82.156,65.915,69.615,63.283,56z M27.196,71.658l13.163-11.517c0.492,0.281,1.057,0.475,1.668,0.586l-3.319,18.26
				C33.576,78.242,29.284,75.854,27.196,71.658z M42.375,79.25c-0.585,0-1.164-0.019-1.735-0.056l3.347-18.405
				c0.76-0.081,1.459-0.289,2.07-0.619l10.808,12.608C53.556,76.774,48.465,79.25,42.375,79.25z"/>
		</g>
	</g>
</g>
<g id="R-Yellow" style="display:none;">
	<circle style="display:inline;fill:#FFD75E;" cx="55" cy="55" r="55"/>
	<g style="display:inline;">
		<g>
			<circle style="fill:#E07000;" cx="60.369" cy="56" r="25.188"/>
		</g>
		<g>
			<path style="fill:#FA9200;" d="M60,30.822C46.26,31.021,35.182,42.213,35.182,56S46.26,80.979,60,81.178V30.822z"/>
		</g>
		<g>
			<path style="fill:#FFE9A1;" d="M79.752,39.917c1.498-0.702,2.985-1.736,4.325-3.076c4.292-4.291,2.59-12.95,2.59-12.95
				s-8.659-1.702-12.95,2.59c-1.905,1.905-3.189,4.107-3.783,6.218C73.774,34.275,77.139,36.771,79.752,39.917z"/>
		</g>
		<g>
			<path style="fill:#FFF5D9;" d="M60.369,30.812c3.005,0,5.885,0.528,8.557,1.494c-0.398-1.123-0.943-2.252-1.652-3.343
				c-3.307-5.089-12.131-5.221-12.131-5.221s-1.664,3.913-1.578,8.008C55.73,31.144,58.011,30.812,60.369,30.812z"/>
		</g>
		<g>
			<path style="fill:#FFE9A1;" d="M60.01,30.822l-4.594-7.069c-0.164-0.008-0.273-0.011-0.273-0.011s-1.664,3.913-1.578,8.008
				C55.619,31.175,57.779,30.853,60.01,30.822z"/>
		</g>
		<g>
			<path style="fill:#FFF5D9;" d="M75.216,35.658L86.713,24.16c-0.025-0.162-0.047-0.27-0.047-0.27s-8.658-1.702-12.949,2.59
				c-1.905,1.906-3.189,4.107-3.783,6.218C71.82,33.473,73.592,34.47,75.216,35.658z"/>
		</g>
		<g>
			<g>
				<path style="fill:#FFFFFF;" d="M26.445,69.742l12.529-10.963c-0.469-0.837-0.559-1.815-0.4-2.779H28.303
					c-1.146,2.241-2.152,5.071-2.396,7.75C25.701,66.011,25.918,67.995,26.445,69.742z"/>
			</g>
			<g>
				<path style="fill:#FFFFFF;" d="M40.359,60.141L27.196,71.658c2.088,4.197,6.38,6.584,11.512,7.329l3.319-18.26
					C41.416,60.616,40.852,60.422,40.359,60.141z"/>
			</g>
			<g>
				<path style="fill:#FFFFFF;" d="M47.559,58.945l10.484,12.232c1.409-2.169,2.357-4.68,2.738-7.427
					c0.363-2.624,0.809-5.146,0.203-7.75H48.74C48.589,57.073,48.349,57.986,47.559,58.945z"/>
			</g>
			<g>
				<path style="fill:#FFFFFF;" d="M43.986,60.789L40.64,79.194c0.571,0.037,1.15,0.056,1.735,0.056
					c6.09,0,11.181-2.476,14.489-6.472L46.057,60.17C45.445,60.5,44.746,60.708,43.986,60.789z"/>
			</g>
		</g>
		<g>
			<path style="fill:#FA9200;" d="M63.294,56h-0.011c2.633,13.623-7.82,26.156-21.574,26.156c-6.816,0-12.907-3.104-16.938-7.974
				C28.121,81.877,35.768,87,44.312,87c11.771,0,21.313-9.541,21.313-21.312C65.625,62.198,64.781,58.907,63.294,56z"/>
		</g>
		<g>
			<path style="fill:#FFE9A1;" d="M63.283,56h-2.299c0.605,2.604,0.16,5.126-0.203,7.75c-0.381,2.747-1.329,5.258-2.738,7.427
				L47.559,58.945c0.79-0.959,1.03-1.873,1.182-2.945H38.574c-0.158,0.964-0.068,1.941,0.4,2.779L26.445,69.742
				c-1.379-4.568-0.334-9.459,1.857-13.742H25.33c-2.893,5.656-3.109,12.324-0.56,18.183c4.031,4.87,10.122,7.974,16.938,7.974
				C55.471,82.156,65.915,69.615,63.283,56z M27.196,71.658l13.163-11.517c0.492,0.281,1.057,0.475,1.668,0.586l-3.319,18.26
				C33.576,78.242,29.284,75.854,27.196,71.658z M42.375,79.25c-0.585,0-1.164-0.019-1.735-0.056l3.347-18.405
				c0.76-0.081,1.459-0.289,2.07-0.619l10.808,12.608C53.556,76.774,48.465,79.25,42.375,79.25z"/>
		</g>
	</g>
</g>
</svg>
