<?xml version="1.0" encoding="iso-8859-1"?>
<!-- Generator: Adobe Illustrator 17.1.0, SVG Export Plug-In . SVG Version: 6.00 Build 0)  -->
<!DOCTYPE svg PUBLIC "-//W3C//DTD SVG 1.0//EN" "http://www.w3.org/TR/2001/REC-SVG-20010904/DTD/svg10.dtd">
<svg version="1.0" xmlns="http://www.w3.org/2000/svg" xmlns:xlink="http://www.w3.org/1999/xlink" x="0px" y="0px" width="110px"
	 height="110px" viewBox="0 0 110 110" style="enable-background:new 0 0 110 110;" xml:space="preserve">
<g id="Artboard">
</g>
<g id="Multicolor">
	<circle style="fill:#FABC3D;" cx="55" cy="55" r="55"/>
	<g>
		<g>
			<rect x="53" y="45" style="fill:#3E3E3F;" width="4" height="42"/>
		</g>
		<g>
			<path style="fill:#FA5655;" d="M55,23L23,44v1c0,3.314,2.686,6,6,6c3.155,0,5.741-2.435,5.982-5.528
				C35.002,45.206,35.224,45,35.491,45h0.018c0.267,0,0.489,0.205,0.51,0.472C36.259,48.565,38.845,51,42,51
				s5.741-2.435,5.982-5.528C48.002,45.206,48.224,45,48.491,45h0.018c0.267,0,0.489,0.205,0.51,0.472
				C49.259,48.565,51.845,51,55,51s5.741-2.435,5.982-5.528C61.002,45.206,61.224,45,61.491,45h0.018
				c0.267,0,0.489,0.205,0.509,0.472C62.259,48.565,64.845,51,68,51s5.741-2.435,5.982-5.528C74.002,45.206,74.224,45,74.491,45
				h0.018c0.267,0,0.489,0.205,0.51,0.472C75.259,48.565,77.845,51,81,51c3.314,0,6-2.686,6-6v-1L55,23z"/>
		</g>
		<g>
			<polygon style="fill:#FFFFFF;" points="55,23 35.491,45 48.491,45 			"/>
		</g>
		<g>
			<polygon style="fill:#FFFFFF;" points="55,23 74.509,45 61.509,45 			"/>
		</g>
		<g>
			<path style="fill:#E2E4E5;" d="M36.018,45.472C36.259,48.565,38.845,51,42,51c3.155,0,5.741-2.435,5.982-5.528
				C48.002,45.206,48.224,45,48.491,45H35.509C35.776,45,35.998,45.205,36.018,45.472z"/>
		</g>
		<g>
			<path style="fill:#DF2C2C;" d="M49.018,45.472C49.259,48.565,51.845,51,55,51c3.155,0,5.741-2.435,5.982-5.528
				C61.002,45.206,61.224,45,61.491,45H48.509C48.776,45,48.998,45.205,49.018,45.472z"/>
		</g>
		<g>
			<path style="fill:#DF2C2C;" d="M29,51c3.155,0,5.741-2.435,5.982-5.528C35.002,45.206,35.224,45,35.491,45H23
				C23,48.314,25.686,51,29,51z"/>
		</g>
		<g>
			<path style="fill:#DF2C2C;" d="M75.018,45.472C75.259,48.565,77.845,51,81,51c3.314,0,6-2.686,6-6H74.509
				C74.776,45,74.998,45.205,75.018,45.472z"/>
		</g>
		<g>
			<path style="fill:#E2E4E5;" d="M62.018,45.472C62.259,48.565,64.845,51,68,51c3.155,0,5.741-2.435,5.982-5.528
				C74.002,45.206,74.224,45,74.491,45H61.509C61.776,45,61.998,45.205,62.018,45.472z"/>
		</g>
		<g>
			<path style="fill:#FFFFFF;" d="M80.051,61.684c-0.524-0.175-1.09,0.109-1.265,0.632L74.558,75H63v11c0,0.552,0.448,1,1,1h2
				c0.552,0,1-0.448,1-1v-7h7v7c0,0.552,0.448,1,1,1h2c0.552,0,1-0.448,1-1v-8.675l4.581-13.744c0.175-0.524-0.109-1.09-0.633-1.265
				L80.051,61.684z"/>
		</g>
		<g>
			<path style="fill:#FFFFFF;" d="M28.949,61.684c0.524-0.175,1.09,0.109,1.265,0.632L34.442,75H46v11c0,0.552-0.448,1-1,1h-2
				c-0.552,0-1-0.448-1-1v-7h-7v7c0,0.552-0.448,1-1,1h-2c-0.552,0-1-0.448-1-1v-8.675l-4.581-13.744
				c-0.175-0.524,0.109-1.09,0.633-1.265L28.949,61.684z"/>
		</g>
	</g>
</g>
</svg>
