<?xml version="1.0" encoding="iso-8859-1"?>
<!-- Generator: Adobe Illustrator 17.1.0, SVG Export Plug-In . SVG Version: 6.00 Build 0)  -->
<!DOCTYPE svg PUBLIC "-//W3C//DTD SVG 1.0//EN" "http://www.w3.org/TR/2001/REC-SVG-20010904/DTD/svg10.dtd">
<svg version="1.0" xmlns="http://www.w3.org/2000/svg" xmlns:xlink="http://www.w3.org/1999/xlink" x="0px" y="0px" width="110px"
	 height="110px" viewBox="0 0 110 110" style="enable-background:new 0 0 110 110;" xml:space="preserve">
<g id="Artboard" style="display:none;">
	
		<rect x="-712.5" y="-930.5" style="display:inline;fill:#808080;stroke:#000000;stroke-miterlimit:10;" width="1392" height="1369"/>
</g>
<g id="R-Multicolor">
	<circle style="fill:#32BEA6;" cx="55" cy="55" r="55"/>
	<g>
		<g>
			<path style="fill:#DF2C2C;" d="M37.111,87c0-16-6-22.333-6-42c0-14,6-22,20-22s17,13,17,24c4-4,9-9,13-5c8,8-12,21-12,45
				C60.111,87,37.111,87,37.111,87z"/>
		</g>
		<g>
			<path style="fill:#FFFFFF;" d="M69.306,83c-0.12,1.3-0.19,2.63-0.19,4h-32c0-1.41-0.05-2.73-0.13-4H69.306z"/>
		</g>
		<g>
			<path style="fill:#FA5655;" d="M51.111,23c-14,0-20,8-20,22c0,8.431,1.103,14.41,2.363,19.752l32.194-32.194
				C63.319,27.059,58.933,23,51.111,23z"/>
		</g>
	</g>
</g>
<g id="Multicolor" style="display:none;">
	<g style="display:inline;">
		<g>
			<path style="fill:#DF2C2C;" d="M37.111,87c0-16-6-22.333-6-42c0-14,6-22,20-22s17,13,17,24c4-4,9-9,13-5c8,8-12,21-12,45
				C60.111,87,37.111,87,37.111,87z"/>
		</g>
		<g>
			<path style="fill:#FFFFFF;" d="M69.306,83c-0.12,1.3-0.19,2.63-0.19,4h-32c0-1.41-0.05-2.73-0.13-4H69.306z"/>
		</g>
		<g>
			<path style="fill:#FA5655;" d="M51.111,23c-14,0-20,8-20,22c0,8.431,1.103,14.41,2.363,19.752l32.194-32.194
				C63.319,27.059,58.933,23,51.111,23z"/>
		</g>
	</g>
</g>
<g id="Blue" style="display:none;">
	<g style="display:inline;">
		<g>
			<path style="fill:#0081A1;" d="M37.111,87c0-16-6-22.333-6-42c0-14,6-22,20-22s17,13,17,24c4-4,9-9,13-5c8,8-12,21-12,45
				C60.111,87,37.111,87,37.111,87z"/>
		</g>
		<g>
			<path style="fill:#FFFFFF;" d="M69.306,83c-0.119,1.3-0.19,2.63-0.19,4h-32c0-1.41-0.049-2.73-0.129-4H69.306z"/>
		</g>
		<g>
			<path style="fill:#009FC7;" d="M51.111,23c-14,0-20,8-20,22c0,8.432,1.104,14.41,2.363,19.752l32.193-32.194
				C63.318,27.059,58.933,23,51.111,23z"/>
		</g>
	</g>
</g>
<g id="R-Blue" style="display:none;">
	<circle style="display:inline;fill:#81D2EB;" cx="55" cy="55" r="55"/>
	<g style="display:inline;">
		<g>
			<path style="fill:#0081A1;" d="M37.111,87c0-16-6-22.333-6-42c0-14,6-22,20-22s17,13,17,24c4-4,9-9,13-5c8,8-12,21-12,45
				C60.111,87,37.111,87,37.111,87z"/>
		</g>
		<g>
			<path style="fill:#FFFFFF;" d="M69.306,83c-0.119,1.3-0.19,2.63-0.19,4h-32c0-1.41-0.049-2.73-0.129-4H69.306z"/>
		</g>
		<g>
			<path style="fill:#009FC7;" d="M51.111,23c-14,0-20,8-20,22c0,8.432,1.104,14.41,2.363,19.752l32.193-32.194
				C63.318,27.059,58.933,23,51.111,23z"/>
		</g>
	</g>
</g>
<g id="Green" style="display:none;">
	<g style="display:inline;">
		<g>
			<path style="fill:#009687;" d="M37.111,87c0-16-6-22.333-6-42c0-14,6-22,20-22s17,13,17,24c4-4,9-9,13-5c8,8-12,21-12,45
				C60.111,87,37.111,87,37.111,87z"/>
		</g>
		<g>
			<path style="fill:#FFFFFF;" d="M69.306,83c-0.119,1.3-0.19,2.63-0.19,4h-32c0-1.41-0.049-2.73-0.129-4H69.306z"/>
		</g>
		<g>
			<path style="fill:#00B8A5;" d="M51.111,23c-14,0-20,8-20,22c0,8.432,1.104,14.41,2.363,19.752l32.193-32.194
				C63.318,27.059,58.933,23,51.111,23z"/>
		</g>
	</g>
</g>
<g id="R-Green" style="display:none;">
	<circle style="display:inline;fill:#77E0C4;" cx="55" cy="55" r="55"/>
	<g style="display:inline;">
		<g>
			<path style="fill:#009687;" d="M37.111,87c0-16-6-22.333-6-42c0-14,6-22,20-22s17,13,17,24c4-4,9-9,13-5c8,8-12,21-12,45
				C60.111,87,37.111,87,37.111,87z"/>
		</g>
		<g>
			<path style="fill:#FFFFFF;" d="M69.306,83c-0.119,1.3-0.191,2.63-0.191,4h-32c0-1.41-0.049-2.73-0.129-4H69.306z"/>
		</g>
		<g>
			<path style="fill:#00B8A5;" d="M51.111,23c-14,0-20,8-20,22c0,8.432,1.104,14.41,2.363,19.752l32.193-32.194
				C63.318,27.059,58.933,23,51.111,23z"/>
		</g>
	</g>
</g>
<g id="Red" style="display:none;">
	<g style="display:inline;">
		<g>
			<path style="fill:#C23023;" d="M37.111,87c0-16-6-22.333-6-42c0-14,6-22,20-22s17,13,17,24c4-4,9-9,13-5c8,8-12,21-12,45
				C60.111,87,37.111,87,37.111,87z"/>
		</g>
		<g>
			<path style="fill:#FFFFFF;" d="M69.306,83c-0.119,1.3-0.191,2.63-0.191,4h-32c0-1.41-0.049-2.73-0.129-4H69.306z"/>
		</g>
		<g>
			<path style="fill:#E54B44;" d="M51.111,23c-14,0-20,8-20,22c0,8.432,1.103,14.41,2.363,19.752l32.193-32.194
				C63.318,27.059,58.933,23,51.111,23z"/>
		</g>
	</g>
</g>
<g id="R-Red" style="display:none;">
	<circle style="display:inline;fill:#FABBAF;" cx="55" cy="55" r="55"/>
	<g style="display:inline;">
		<g>
			<path style="fill:#C23023;" d="M37.111,87c0-16-6-22.333-6-42c0-14,6-22,20-22s17,13,17,24c4-4,9-9,13-5c8,8-12,21-12,45
				C60.111,87,37.111,87,37.111,87z"/>
		</g>
		<g>
			<path style="fill:#FFFFFF;" d="M69.306,83c-0.119,1.3-0.191,2.63-0.191,4h-32c0-1.41-0.049-2.73-0.129-4H69.306z"/>
		</g>
		<g>
			<path style="fill:#E54B44;" d="M51.111,23c-14,0-20,8-20,22c0,8.432,1.103,14.41,2.363,19.752l32.193-32.194
				C63.318,27.059,58.933,23,51.111,23z"/>
		</g>
	</g>
</g>
<g id="Yellow" style="display:none;">
	<g style="display:inline;">
		<g>
			<path style="fill:#E07000;" d="M37.111,87c0-16-6-22.333-6-42c0-14,6-22,20-22s17,13,17,24c4-4,9-9,13-5c8,8-12,21-12,45
				C60.111,87,37.111,87,37.111,87z"/>
		</g>
		<g>
			<path style="fill:#FFFFFF;" d="M69.306,83c-0.119,1.3-0.191,2.63-0.191,4h-32c0-1.41-0.049-2.73-0.129-4H69.306z"/>
		</g>
		<g>
			<path style="fill:#FA9200;" d="M51.111,23c-14,0-20,8-20,22c0,8.432,1.104,14.41,2.363,19.752l32.193-32.194
				C63.318,27.059,58.933,23,51.111,23z"/>
		</g>
	</g>
</g>
<g id="R-Yellow" style="display:none;">
	<circle style="display:inline;fill:#FFD75E;" cx="55" cy="55" r="55"/>
	<g style="display:inline;">
		<g>
			<path style="fill:#E07000;" d="M37.111,87c0-16-6-22.333-6-42c0-14,6-22,20-22s17,13,17,24c4-4,9-9,13-5c8,8-12,21-12,45
				C60.111,87,37.111,87,37.111,87z"/>
		</g>
		<g>
			<path style="fill:#FFFFFF;" d="M69.306,83c-0.119,1.3-0.19,2.63-0.19,4h-32c0-1.41-0.049-2.73-0.129-4H69.306z"/>
		</g>
		<g>
			<path style="fill:#FA9200;" d="M51.111,23c-14,0-20,8-20,22c0,8.432,1.104,14.41,2.363,19.752l32.193-32.194
				C63.318,27.059,58.933,23,51.111,23z"/>
		</g>
	</g>
</g>
</svg>
