<?xml version="1.0" encoding="iso-8859-1"?>
<!-- Generator: Adobe Illustrator 17.1.0, SVG Export Plug-In . SVG Version: 6.00 Build 0)  -->
<!DOCTYPE svg PUBLIC "-//W3C//DTD SVG 1.0//EN" "http://www.w3.org/TR/2001/REC-SVG-20010904/DTD/svg10.dtd">
<svg version="1.0" xmlns="http://www.w3.org/2000/svg" xmlns:xlink="http://www.w3.org/1999/xlink" x="0px" y="0px" width="110px"
	 height="110px" viewBox="0 0 110 110" style="enable-background:new 0 0 110 110;" xml:space="preserve">
<g id="Artboard">
</g>
<g id="Multicolor">
	<circle style="fill:#32BEA6;" cx="55" cy="55" r="55"/>
	<g>
		<g>
			<path style="fill:#FA5655;" d="M82,74.946l-19-20H47l-15.77,21.33c1.03-0.83,2.34-1.33,3.77-1.33H82z"/>
		</g>
		<g>
			<path style="fill:#3E3E3F;" d="M74.98,56.187c-0.546-3.278-2.715-6.553-4.766-9.027c-0.701,1.352-1.829,2.442-3.206,3.099
				c0.148,5.592,0.074,11.499-3.083,21.796c1.056,1.163,2.311,2.38,3.331,2.891C72.773,72.739,76.083,62.808,74.98,56.187z"/>
		</g>
		<g>
			<path style="fill:#3E3E3F;" d="M42.992,50.259c-1.377-0.657-2.505-1.747-3.206-3.099c-2.051,2.474-4.22,5.75-4.766,9.027
				c-1.103,6.621,2.207,16.552,7.724,18.759c1.021-0.51,2.275-1.728,3.331-2.891C42.918,61.759,42.844,55.852,42.992,50.259z"/>
		</g>
		<g>
			<path style="fill:#5B5C5F;" d="M64,50.946c-3.866,0-7-3.134-7-7c0-0.234,0.012-0.466,0.035-0.694
				c-1.361-0.395-2.709-0.395-4.07,0C52.988,43.48,53,43.711,53,43.946c0,3.866-3.134,7-7,7c-1.078,0-2.095-0.251-3.008-0.687
				C42.831,56.356,42.923,62.813,47,74.946h8h8c4.077-12.132,4.169-18.589,4.008-24.687C66.095,50.695,65.078,50.946,64,50.946z"/>
		</g>
		<g>
			<path style="fill:#9E9FA0;" d="M52.965,43.251C52.987,43.48,53,43.711,53,43.946c0,3.866-3.134,7-7,7
				c-1.078,0-2.096-0.251-3.008-0.687C42.831,56.356,42.923,62.813,47,74.946h8v-31.99C54.323,42.956,53.646,43.054,52.965,43.251z"
				/>
		</g>
		<g>
			<polygon style="fill:#DF2C2C;" points="70,32.795 70,38 72,35 74,38 74,31.955 			"/>
		</g>
		<path style="fill:#3E3E3F;" d="M75.316,29.774l-20-6.723c-0.205-0.068-0.427-0.068-0.633,0l-20,6.723
			c-0.429,0.143-0.708,0.556-0.682,1.007s0.352,0.829,0.794,0.921L44,33.66V44h22V33.66l9.204-1.958
			c0.442-0.092,0.769-0.47,0.794-0.921C76.024,30.33,75.745,29.917,75.316,29.774z"/>
		<g>
			<path style="fill:#5B5C5F;" d="M34.684,29.774c-0.429,0.143-0.708,0.556-0.682,1.007s0.352,0.829,0.794,0.921l20,4.256
				c0.067,0.014,0.136,0,0.204,0V23c-0.107,0-0.214,0.017-0.316,0.051L34.684,29.774z"/>
		</g>
		<g>
			<path style="fill:#DF2C2C;" d="M82,74.946v1c0,0.552-0.448,1-1,1H35c-2.178,0-4,1.774-4,4c0,2.21,1.79,4,4,4h46
				c0.552,0,1,0.448,1,1s-0.448,1-1,1H35c-3.31,0-6-2.69-6-6c0-1.88,0.87-3.57,2.23-4.67c1.03-0.83,2.34-1.33,3.77-1.33H82z"/>
		</g>
		<g>
			<path style="fill:#FFFFFF;" d="M79,76.946v8H35c-2.178,0-4-1.775-4-4c0-2.225,1.822-4,4-4H79z"/>
		</g>
		<g>
			<path style="fill:#E2E4E5;" d="M79,77.946v2H31.13c0.2-0.79,0.64-1.48,1.23-2H79z"/>
		</g>
		<g>
			<path style="fill:#E2E4E5;" d="M79,81.946v2H32.36c-0.59-0.52-1.03-1.21-1.23-2H79z"/>
		</g>
		<g>
			<path style="fill:#FACB1B;" d="M67,72.946c-4-2.667-8-2.667-12,0c-4-2.667-8-2.667-12,0c-0.667,2,0,4,2,6l2-4l2,4l2-4l2,4
				c1-1,1.667-2,2-3c0.333,1,1,2,2,3l2-4l2,4l2-4l2,4C67,76.946,67.667,74.946,67,72.946z"/>
		</g>
		<g>
			<path style="fill:#FACB1B;" d="M55.702,49.759c-0.389-0.384-1.015-0.384-1.405,0c-0.645,0.636-1.734,1.483-3.267,1.912
				c-0.357,0.1-0.63,0.39-0.708,0.752c-0.078,0.363,0.051,0.738,0.336,0.977C52.478,54.928,55,56.946,55,56.946
				s2.522-2.018,4.342-3.546c0.284-0.238,0.413-0.614,0.335-0.977s-0.35-0.652-0.707-0.752
				C57.436,51.242,56.347,50.395,55.702,49.759z"/>
		</g>
		<g>
			<path style="fill:#FACB1B;" d="M64,36.946c-2.934,0-5.442,1.806-6.483,4.366c-1.676-0.471-3.358-0.471-5.034,0
				c-1.041-2.56-3.549-4.366-6.483-4.366c-3.866,0-7,3.134-7,7c0,3.866,3.134,7,7,7s7-3.134,7-7c0-0.234-0.012-0.466-0.035-0.694
				c1.361-0.395,2.709-0.395,4.07,0C57.012,43.48,57,43.711,57,43.946c0,3.866,3.134,7,7,7s7-3.134,7-7
				C71,40.08,67.866,36.946,64,36.946z"/>
		</g>
		<g>
			<circle style="fill:#C9F2F8;" cx="46" cy="43.946" r="5"/>
		</g>
		<g>
			<path style="fill:#FFFFFF;" d="M46,38.946c-2.761,0-5,2.239-5,5c0,1.346,0.538,2.562,1.403,3.461l7.058-7.058
				C48.562,39.484,47.346,38.946,46,38.946z"/>
		</g>
		<g>
			<circle style="fill:#C9F2F8;" cx="64" cy="43.946" r="5"/>
		</g>
		<g>
			<path style="fill:#FFFFFF;" d="M64,38.946c-2.761,0-5,2.239-5,5c0,1.346,0.538,2.562,1.403,3.461l7.058-7.058
				C66.562,39.484,65.346,38.946,64,38.946z"/>
		</g>
		<g>
			<path style="fill:#3E3E3F;" d="M46,41.946c-0.687,0-1.293,0.347-1.653,0.875L46,43.775l-1.795,1.036
				c0.323,0.669,1.002,1.134,1.795,1.134c1.104,0,2-0.895,2-2C48,42.841,47.104,41.946,46,41.946z"/>
		</g>
		<g>
			<path style="fill:#3E3E3F;" d="M64,41.946c-0.687,0-1.293,0.347-1.653,0.875L64,43.775l-1.795,1.036
				c0.323,0.669,1.002,1.134,1.795,1.134c1.104,0,2-0.895,2-2C66,42.841,65.104,41.946,64,41.946z"/>
		</g>
		<g>
			<path style="fill:#FBE158;" d="M54.298,49.759c-0.645,0.636-1.734,1.483-3.268,1.912c-0.357,0.1-0.63,0.39-0.708,0.752
				c-0.078,0.362,0.051,0.738,0.335,0.977C52.478,54.928,55,56.946,55,56.946v-7.475C54.746,49.471,54.492,49.567,54.298,49.759z"/>
		</g>
	</g>
</g>
</svg>
