<?xml version="1.0" encoding="iso-8859-1"?>
<!-- Generator: Adobe Illustrator 17.1.0, SVG Export Plug-In . SVG Version: 6.00 Build 0)  -->
<!DOCTYPE svg PUBLIC "-//W3C//DTD SVG 1.0//EN" "http://www.w3.org/TR/2001/REC-SVG-20010904/DTD/svg10.dtd">
<svg version="1.0" xmlns="http://www.w3.org/2000/svg" xmlns:xlink="http://www.w3.org/1999/xlink" x="0px" y="0px" width="110px"
	 height="110px" viewBox="0 0 110 110" style="enable-background:new 0 0 110 110;" xml:space="preserve">
<g id="Artboard">
</g>
<g id="Multicolor">
	<circle style="fill:#E04F5F;" cx="55" cy="55" r="55"/>
	<g>
		<g>
			<path style="fill:#CFD3D4;" d="M29,27c-1.104,0-2,0.896-2,2s0.896,2,2,2h1v4.069C30.328,35.028,30.661,35,31,35h4
				c0.339,0,0.672,0.028,1,0.069V31h18v4.069C54.328,35.028,54.661,35,55,35h4c0.339,0,0.672,0.028,1,0.069V31h3v-4H29z"/>
		</g>
		<g>
			<path style="fill:#FACB1B;" d="M43,43c0-4.418-3.582-8-8-8h-4c-4.418,0-8,3.582-8,8v42c0,1.105,0.895,2,2,2h16
				c1.105,0,2-0.895,2-2V43z"/>
		</g>
		<g>
			<rect x="23" y="47" style="fill:#3E3E3F;" width="20" height="8"/>
		</g>
		<g>
			<path style="fill:#FACB1B;" d="M67,43c0-4.418-3.582-8-8-8h-4c-4.418,0-8,3.582-8,8v42c0,1.105,0.895,2,2,2h16
				c1.105,0,2-0.895,2-2V43z"/>
		</g>
		<g>
			<rect x="47" y="47" style="fill:#3E3E3F;" width="20" height="8"/>
		</g>
		<g>
			<rect x="47" y="67" style="fill:#3E3E3F;" width="20" height="8"/>
		</g>
		<g>
			<rect x="43" y="45" style="fill:#CFD3D4;" width="4" height="12"/>
		</g>
		<g>
			<rect x="43" y="65" style="fill:#CFD3D4;" width="4" height="12"/>
		</g>
		<g>
			<circle style="fill:#E2E4E5;" cx="45" cy="29" r="6"/>
		</g>
		<g>
			<g>
				<path style="fill:#3E3E3F;" d="M79,71c-5.972,0-9-4.037-9-12V35c0-1.403-0.479-1.866-0.637-2.018C67.965,31.633,64.147,32,63,32
					v-6c1.602,0,7.103-0.641,10.528,2.664C74.656,29.751,76,31.733,76,35v24c0,6,1.594,6,3,6V71z"/>
			</g>
		</g>
		<g>
			<path style="fill:#EBEBEC;" d="M80.447,59.724c-0.31-0.155-0.678-0.138-0.973,0.044C79.179,59.95,79,60.271,79,60.618v12.764
				c0,0.347,0.179,0.668,0.474,0.851c0.295,0.182,0.663,0.199,0.973,0.044l6-3C86.786,71.107,87,70.761,87,70.382v-6.764
				c0-0.379-0.214-0.725-0.553-0.894L80.447,59.724z"/>
		</g>
		<g>
			<path style="fill:#FFFFFF;" d="M40.757,24.747c-2.343,2.343-2.343,6.142,0,8.485c1.118,1.118,2.566,1.696,4.03,1.747l0-11.98
				C43.324,23.052,41.875,23.63,40.757,24.747z"/>
		</g>
		<g>
			<path style="fill:#FBE158;" d="M33,35h-2c-4.418,0-8,3.582-8,8v42c0,1.104,0.896,2,2,2h8V35z"/>
		</g>
		<g>
			<rect x="23" y="47" style="fill:#5B5C5F;" width="10" height="8"/>
		</g>
		<g>
			<rect x="23" y="67" style="fill:#3E3E3F;" width="20" height="8"/>
		</g>
		<g>
			<rect x="23" y="67" style="fill:#5B5C5F;" width="10" height="8"/>
		</g>
		<g>
			<path style="fill:#FBE158;" d="M57,35h-2c-4.418,0-8,3.582-8,8v42c0,1.104,0.896,2,2,2h8V35z"/>
		</g>
		<g>
			<rect x="47" y="47" style="fill:#5B5C5F;" width="10" height="8"/>
		</g>
		<g>
			<rect x="47" y="67" style="fill:#5B5C5F;" width="10" height="8"/>
		</g>
		<g>
			<path style="fill:#DF2C2C;" d="M47,30c0,1.105-0.895,2-2,2s-2-0.895-2-2s2-5,2-5S47,28.895,47,30z"/>
		</g>
		<g>
			<path style="fill:#FFFFFF;" d="M86.447,62.724l-6-3c-0.31-0.155-0.678-0.138-0.973,0.044C79.179,59.95,79,60.271,79,60.618V67h8
				v-3.382C87,63.239,86.786,62.893,86.447,62.724z"/>
		</g>
	</g>
</g>
</svg>
