<?xml version="1.0" encoding="iso-8859-1"?>
<!-- Generator: Adobe Illustrator 17.1.0, SVG Export Plug-In . SVG Version: 6.00 Build 0)  -->
<!DOCTYPE svg PUBLIC "-//W3C//DTD SVG 1.0//EN" "http://www.w3.org/TR/2001/REC-SVG-20010904/DTD/svg10.dtd">
<svg version="1.0" xmlns="http://www.w3.org/2000/svg" xmlns:xlink="http://www.w3.org/1999/xlink" x="0px" y="0px" width="110px"
	 height="110px" viewBox="0 0 110 110" style="enable-background:new 0 0 110 110;" xml:space="preserve">
<g id="Artboard">
</g>
<g id="Multicolor">
	<circle style="fill:#E04F5F;" cx="55" cy="55" r="55"/>
	<g>
		<g>
			<path style="fill:#F7B4B4;" d="M83.148,25.541c-3.906-3.344-9.438-3.276-13.188-0.452c-4.326,3.256-4.94,10.437-14.714,16.965
				l-3.034,2.027l13.576,13.576l2.463-3.687c5.739-8.591,12.551-9.929,15.521-12.898C88.101,36.743,87.885,29.606,83.148,25.541z"/>
		</g>
		<g>
			<g>
				<path style="fill:#FFFFFF;" d="M43,87.001c-11.028,0-20-8.972-20-20s8.972-20,20-20s20,8.972,20,20S54.028,87.001,43,87.001z
					 M43,55.001c-6.617,0-12,5.383-12,12s5.383,12,12,12s12-5.383,12-12S49.617,55.001,43,55.001z"/>
			</g>
		</g>
		<g>
			<path style="fill:#FBC8C8;" d="M58.41,50.279l24.739-24.738c-0.103-0.088-0.195-0.183-0.302-0.268
				c-3.711-2.956-9.096-3.037-12.886-0.184c-4.326,3.256-4.94,10.437-14.714,16.965l-3.034,2.027L58.41,50.279z"/>
		</g>
		<g>
			<path style="fill:#F79392;" d="M76.159,68.029L41.816,33.686c-0.755-0.755-1.781-1.177-2.849-1.171
				c-1.068,0.005-2.089,0.438-2.837,1.201l-2.319,2.367c-1.534,1.567-1.521,4.077,0.029,5.627l34.343,34.343
				c0.755,0.755,1.781,1.177,2.849,1.171c1.068-0.005,2.089-0.438,2.837-1.201l2.319-2.367
				C77.723,72.089,77.71,69.579,76.159,68.029z"/>
		</g>
		<g>
			<path style="fill:#F7B4B4;" d="M41.816,33.686c-0.755-0.755-1.781-1.177-2.849-1.171c-1.068,0.005-2.09,0.438-2.837,1.201
				l-2.319,2.367c-1.534,1.567-1.521,4.077,0.029,5.627L50.41,58.279l8-8L41.816,33.686z"/>
		</g>
	</g>
</g>
</svg>
