<?xml version="1.0" encoding="iso-8859-1"?>
<!-- Generator: Adobe Illustrator 17.1.0, SVG Export Plug-In . SVG Version: 6.00 Build 0)  -->
<!DOCTYPE svg PUBLIC "-//W3C//DTD SVG 1.0//EN" "http://www.w3.org/TR/2001/REC-SVG-20010904/DTD/svg10.dtd">
<svg version="1.0" xmlns="http://www.w3.org/2000/svg" xmlns:xlink="http://www.w3.org/1999/xlink" x="0px" y="0px" width="110px"
	 height="110px" viewBox="0 0 110 110" style="enable-background:new 0 0 110 110;" xml:space="preserve">
<g id="Artboard">
</g>
<g id="Multicolor">
	<circle style="fill:#E04F5F;" cx="55" cy="55" r="55"/>
	<g>
		<path style="fill:#FACB1B;" d="M55,55l28.621-14.311C78.367,30.203,67.528,23,55,23c-17.673,0-32,14.327-32,32s14.327,32,32,32
			c12.528,0,23.367-7.203,28.621-17.689L55,55z"/>
		<path style="fill:#FBE158;" d="M55,23c-17.673,0-32,14.327-32,32c0,4.387,0.884,8.566,2.482,12.373l41.877-41.877
			C63.555,23.899,59.385,23,55,23z"/>
		<g>
			<circle style="fill:#FFFFFF;" cx="55.621" cy="36.333" r="7"/>
			<path style="fill:#3E3E3F;" d="M56.465,32.448c-0.732,0-1.409,0.217-1.987,0.578c0.561,0.327,0.956,0.91,0.956,1.607
				c0,1.043-0.845,1.888-1.888,1.888c-0.311,0-0.591-0.093-0.85-0.226C52.735,38.347,54.404,40,56.465,40
				c2.085,0,3.776-1.691,3.776-3.776S58.55,32.448,56.465,32.448z"/>
		</g>
	</g>
</g>
</svg>
