<?xml version="1.0" encoding="iso-8859-1"?>
<!-- Generator: Adobe Illustrator 17.1.0, SVG Export Plug-In . SVG Version: 6.00 Build 0)  -->
<!DOCTYPE svg PUBLIC "-//W3C//DTD SVG 1.0//EN" "http://www.w3.org/TR/2001/REC-SVG-20010904/DTD/svg10.dtd">
<svg version="1.0" xmlns="http://www.w3.org/2000/svg" xmlns:xlink="http://www.w3.org/1999/xlink" x="0px" y="0px" width="110px"
	 height="110px" viewBox="0 0 110 110" style="enable-background:new 0 0 110 110;" xml:space="preserve">
<g id="Artboard">
</g>
<g id="Multicolor">
	<circle style="fill:#25B7D3;" cx="55" cy="55" r="55"/>
	<g>
		<g>
			<path style="fill:#E2E4E5;" d="M82.56,53l-7.21,32.43C75.14,86.35,74.33,87,73.4,87H36.6c-0.93,0-1.74-0.65-1.95-1.57L27.44,53
				H82.56z"/>
		</g>
		<g>
			<path style="fill:#FFFFFF;" d="M56,53H27.44l7.21,32.43C34.86,86.35,35.67,87,36.6,87H56V53z"/>
		</g>
		<g>
			<path style="fill:#CFD3D4;" d="M35,47v-2c0-9.925,8.075-18,18-18s18,8.075,18,18v2h4v-2c0-12.131-9.869-22-22-22s-22,9.869-22,22
				v2H35z"/>
		</g>
		<g>
			<path style="fill:#CFD3D4;" d="M87,49v2c0,1.1-0.9,2-2,2H25c-1.1,0-2-0.9-2-2v-2c0-1.1,0.9-2,2-2h60C86.1,47,87,47.9,87,49z"/>
		</g>
		<g>
			<path style="fill:#3E3E3F;" d="M74.63,72.846L53.761,61.527L53.76,61.53C46.45,75.1,46.36,74.46,40.88,76
				c-0.78,0.22-1.32,2.01-0.32,3.05c6.745,6.933,16.159,9.207,24.79,7.07c1.03-0.26,1.93-0.92,2.47-1.84
				c4.244-7.127,2.568-4.315,6.81-11.43"/>
		</g>
		<g>
			<path style="fill:#84462D;" d="M84.101,39.315c1.049-1.944,0.323-4.371-1.622-5.419c-1.944-1.049-4.371-0.323-5.419,1.622
				L63.768,60.161l7.041,3.798L84.101,39.315z"/>
		</g>
		<g>
			<path style="fill:#FACB1B;" d="M75.72,71.006l-1.09,1.84l-20.87-11.32l1.07-1.98c1.05-1.94,3.47-2.67,5.42-1.62l13.93,7.52
				c0.96,0.51,1.66,1.4,1.95,2.45C76.43,68.946,76.27,70.066,75.72,71.006z"/>
		</g>
		<g>
			<path style="fill:#FA5655;" d="M63,74c-4,0-6,7-11,6c-1.54-0.31-6.22-3.67-10.38,0.08c6.58,6.12,15.57,8.06,23.73,6.04
				c1.03-0.26,1.93-0.92,2.47-1.84l3.37-5.66C68.21,76.68,68,74,63,74z"/>
		</g>
		<g>
			<path style="fill:#E2E4E5;" d="M56,47H25c-1.1,0-2,0.9-2,2v2c0,1.1,0.9,2,2,2h31V47z"/>
		</g>
		<g>
			<path style="fill:#DF2C2C;" d="M35,47c0,0-1,16,4,16s2-12,6-12s1,8,6,8s4-12,4-12H35z"/>
		</g>
	</g>
</g>
</svg>
