<?xml version="1.0" encoding="iso-8859-1"?>
<!-- Generator: Adobe Illustrator 17.1.0, SVG Export Plug-In . SVG Version: 6.00 Build 0)  -->
<!DOCTYPE svg PUBLIC "-//W3C//DTD SVG 1.0//EN" "http://www.w3.org/TR/2001/REC-SVG-20010904/DTD/svg10.dtd">
<svg version="1.0" xmlns="http://www.w3.org/2000/svg" xmlns:xlink="http://www.w3.org/1999/xlink" x="0px" y="0px" width="110px"
	 height="110px" viewBox="0 0 110 110" style="enable-background:new 0 0 110 110;" xml:space="preserve">
<g id="Artboard">
</g>
<g id="Multicolor">
	<circle style="fill:#32BEA6;" cx="55" cy="55" r="55"/>
	<g>
		<g>
			<path style="fill:#E2E4E5;" d="M87,39c0,2.209-1.791,4-4,4H35c-2.209,0-4-1.791-4-4V27c0-2.209,1.791-4,4-4h48
				c2.209,0,4,1.791,4,4V39z"/>
		</g>
		<g>
			<path style="fill:#3E3E3F;" d="M61,59h-4v-2c0-1.103-0.897-2-2-2H29c-3.308,0-6-2.691-6-6V37c0-3.309,2.692-6,6-6h2v4h-2
				c-1.103,0-2,0.897-2,2v12c0,1.103,0.897,2,2,2h26c3.308,0,6,2.691,6,6V59z"/>
		</g>
		<g>
			<path style="fill:#84462D;" d="M59.06,87h-0.12C55.659,87,53,84.341,53,81.06V63c0-2.209,1.791-4,4-4h4c2.209,0,4,1.791,4,4
				v18.06C65,84.341,62.341,87,59.06,87z"/>
		</g>
		<g>
			<path style="fill:#9C6144;" d="M59,59h-2c-2.209,0-4,1.791-4,4v18.06c0,3.281,2.659,5.94,5.94,5.94H59V59z"/>
		</g>
		<g>
			<path style="fill:#FFFFFF;" d="M83,23H35c-2.209,0-4,1.791-4,4v6h56v-6C87,24.791,85.209,23,83,23z"/>
		</g>
	</g>
</g>
</svg>
