<?xml version="1.0" encoding="iso-8859-1"?>
<!-- Generator: Adobe Illustrator 17.1.0, SVG Export Plug-In . SVG Version: 6.00 Build 0)  -->
<!DOCTYPE svg PUBLIC "-//W3C//DTD SVG 1.0//EN" "http://www.w3.org/TR/2001/REC-SVG-20010904/DTD/svg10.dtd">
<svg version="1.0" xmlns="http://www.w3.org/2000/svg" xmlns:xlink="http://www.w3.org/1999/xlink" x="0px" y="0px" width="110px"
	 height="110px" viewBox="0 0 110 110" style="enable-background:new 0 0 110 110;" xml:space="preserve">
<g id="Artboard">
</g>
<g id="Multicolor">
	<circle style="fill:#FABC3D;" cx="55" cy="55" r="55"/>
	<g>
		<polygon style="fill:#F0F1F1;" points="36.795,59.062 36.088,69.669 31.846,73.912 36.088,78.154 40.331,73.912 50.937,73.205 		
			"/>
		<polygon style="fill:#FFFFFF;" points="36.795,59.062 36.088,69.669 31.846,73.912 33.943,76.009 43.842,66.109 		"/>
		<path style="fill:#3E3E3F;" d="M80.636,46.335C53.069,71.34,60.8,64.263,50.938,73.205L36.795,59.062
			c8.952-9.874,2.133-2.428,26.87-29.698L80.636,46.335z"/>
		<path style="fill:#5B5C5F;" d="M63.666,29.364c-24.738,27.271-17.918,19.824-26.87,29.698l7.047,7.047l28.284-28.284
			L63.666,29.364z"/>
		
			<rect x="60.626" y="31.874" transform="matrix(-0.7071 -0.7071 0.7071 -0.7071 102.3804 113.1561)" style="fill:#F0F1F1;" width="28" height="7"/>
		
			<rect x="66.164" y="23.43" transform="matrix(0.7071 -0.7071 0.7071 0.7071 -1.1009 58.1674)" style="fill:#FFFFFF;" width="7" height="13.966"/>
		<path style="fill:#DF2C2C;" d="M31.113,78c0,0-7.113,9,6,9c11,0,34,0,36,0s1-9-7-9C56.98,78,31.113,88,31.113,78z"/>
		
			<rect x="33.088" y="72.912" transform="matrix(-0.7071 -0.7071 0.7071 -0.7071 9.3432 151.6934)" style="fill:#CFD3D4;" width="6" height="2"/>
		
			<rect x="67.969" y="28.218" transform="matrix(0.7071 0.7071 -0.7071 0.7071 41.2139 -40.0642)" style="fill:#F0F1F1;" width="2" height="3"/>
		
			<rect x="70.797" y="31.046" transform="matrix(0.7071 0.7071 -0.7071 0.7071 44.0424 -41.2358)" style="fill:#F0F1F1;" width="2" height="3"/>
		
			<rect x="73.626" y="33.874" transform="matrix(0.7071 0.7071 -0.7071 0.7071 46.8708 -42.4074)" style="fill:#CFD3D4;" width="2" height="3"/>
		
			<rect x="76.454" y="36.703" transform="matrix(0.7071 0.7071 -0.7071 0.7071 49.6992 -43.5789)" style="fill:#CFD3D4;" width="2" height="3"/>
		
			<rect x="79.282" y="39.531" transform="matrix(0.7071 0.7071 -0.7071 0.7071 52.5276 -44.7505)" style="fill:#CFD3D4;" width="2" height="3"/>
		<polygon style="fill:#DF2C2C;" points="58.355,66.48 50.938,73.205 36.795,59.062 43.52,51.645 		"/>
		
			<rect x="34.016" y="71.356" transform="matrix(0.7071 -0.7071 0.7071 0.7071 -41.2491 46.0938)" style="fill:#F0F1F1;" width="2" height="2.966"/>
		<polygon style="fill:#FA5655;" points="43.52,51.645 36.795,59.062 43.842,66.109 50.914,59.038 		"/>
	</g>
</g>
</svg>
