<?xml version="1.0" encoding="iso-8859-1"?>
<!-- Generator: Adobe Illustrator 17.1.0, SVG Export Plug-In . SVG Version: 6.00 Build 0)  -->
<!DOCTYPE svg PUBLIC "-//W3C//DTD SVG 1.0//EN" "http://www.w3.org/TR/2001/REC-SVG-20010904/DTD/svg10.dtd">
<svg version="1.0" xmlns="http://www.w3.org/2000/svg" xmlns:xlink="http://www.w3.org/1999/xlink" x="0px" y="0px" width="110px"
	 height="110px" viewBox="0 0 110 110" style="enable-background:new 0 0 110 110;" xml:space="preserve">
<g id="Artboard">
</g>
<g id="Multicolor">
	<circle style="fill:#25B7D3;" cx="55" cy="55" r="55"/>
	<g>
		<path style="fill:#FFFFFF;" d="M67,64.1c0-2.02,2.13-4.36,4.92-6.99c0.082-0.079,6.162-5.709,6.06-5.76
			C79.78,49.46,85,44.74,85,39.1c0-10.5-13.1-15.77-29-14c-4.3,0.48-8.44,1.61-12.23,3.29c-0.01,0-0.01,0.01-0.02,0.01
			c-5.35,2.35-10.03,5.79-13.59,9.97C25.69,43.63,23,50.09,23,57.11c0,16.57,14.27,30.01,31.88,30.01C66.23,87.12,83,84.1,83,65.1
			C83,61.5,67,69.99,67,64.1z M57.86,53.62c-1.84-2.04-2.29-4.79-1.58-7.34c0.46-1.62,1.39-3.16,2.73-4.37
			c1.09-0.98,2.32-1.64,3.59-2.01c2.98-0.88,6.17-0.13,8.18,2.1c1.57,1.74,2.15,4.05,1.8,6.32c-0.42,2.756-2.178,5.094-4.21,6.34
			C64.91,56.88,60.45,56.51,57.86,53.62z"/>
		<path style="fill:#84462D;" d="M72.58,48.32c-0.42,2.756-2.178,5.094-4.21,6.34l-13.7-9.5l-5.77-3.99l-1.64-1.14l6.07-7.94
			l1.54,1.29l5.35,4.52L72.58,48.32z"/>
		<path style="fill:#84462D;" d="M83.65,61.58c-1.02,1.34-2.91,1.64-4.29,0.69l-7.44-5.16c0.28-0.27,0.58-0.54,0.88-0.82
			c0-0.11,2.93-2.73,4.38-4.1l6.01,5.07C84.47,58.35,84.67,60.25,83.65,61.58z"/>
		<polyline style="fill:#F3B607;" points="40.42,39.371 40.418,39.371 40.417,39.372 		"/>
		<path style="fill:#17B198;" d="M62.36,72.048c-0.289-1.925-1.935-3.406-3.94-3.406c-1.479,0-2.756,0.812-3.448,2.005
			c-2.651,0-4.552,2.097-4.552,4.495c0,2.485,2.015,4.5,4.5,4.5c1.059,0,2.02-0.381,2.788-0.993c0.875,0.573,1.9,0.993,2.712,0.993
			c2.209,0,4-1.791,4-4C64.42,74.143,63.579,72.729,62.36,72.048z"/>
		<path style="fill:#3E3E3F;" d="M54.836,33.348c-0.012-0.01-1.514-1.262-1.523-1.274c0.314-3.94-2.581-7.209-5.451-7.903
			C43.623,23.146,37.974,27.265,33.57,23c-0.775,3.621,1.534,12.794,5.244,15.608c2.881,2.185,5.848,2.614,8.509,1.468
			c0.002,0.002,1.567,1.111,1.569,1.112l5.945-7.838L54.836,33.348z"/>
		<polygon style="fill:#FBE158;" points="60.22,37.9 54.67,45.16 48.9,41.17 54.87,33.38 		"/>
		<path style="fill:#DF2C2C;" d="M42.42,58.641c0-2.209-1.791-4-4-4c-2.224,0-4.171,1.851-3.966,4.336
			c-2.346,0.815-4.034,3.04-4.034,5.664s1.688,4.849,4.034,5.664c-0.204,2.477,1.736,4.336,3.966,4.336c2.209,0,4-1.791,4-4
			c3.313,0,6-2.686,6-6S45.733,58.641,42.42,58.641z"/>
	</g>
</g>
</svg>
