<?xml version="1.0" encoding="iso-8859-1"?>
<!-- Generator: Adobe Illustrator 17.1.0, SVG Export Plug-In . SVG Version: 6.00 Build 0)  -->
<!DOCTYPE svg PUBLIC "-//W3C//DTD SVG 1.0//EN" "http://www.w3.org/TR/2001/REC-SVG-20010904/DTD/svg10.dtd">
<svg version="1.0" xmlns="http://www.w3.org/2000/svg" xmlns:xlink="http://www.w3.org/1999/xlink" x="0px" y="0px" width="110px"
	 height="110px" viewBox="0 0 110 110" style="enable-background:new 0 0 110 110;" xml:space="preserve">
<g id="Artboard" style="display:none;">
	
		<rect x="-968.5" y="-930.5" style="display:inline;fill:#808080;stroke:#000000;stroke-miterlimit:10;" width="1392" height="1369"/>
</g>
<g id="R-Multicolor">
	<circle style="fill:#25B7D3;" cx="55" cy="55" r="55"/>
	<g>
		<g>
			<path style="fill:#3E3E3F;" d="M85.913,50.38l-13-13l-13.29-13.29c-1.449-1.449-3.798-1.449-5.247,0l-26.29,26.29
				c-1.449,1.449-1.449,3.798,0,5.247l10.352,10.352c-3.673,4.342-7.941,7.878-12.935,10.427c-2.972,2.033-3.365,6.267-0.819,8.813
				l0.099,0.099c0.032,0.032,0.068,0.059,0.101,0.09c2.556,2.441,6.705,2.026,8.713-0.909c2.549-4.994,6.085-9.261,10.427-12.934
				l10.352,10.352c1.449,1.449,3.798,1.449,5.247,0l26.29-26.29C87.362,54.178,87.362,51.829,85.913,50.38z M29,83.003
				c-0.478,0-0.912-0.175-1.256-0.455C27.294,82.181,27,81.629,27,81.003c0-1.104,0.896-2,2-2c0.626,0,1.178,0.294,1.545,0.744
				C30.825,80.092,31,80.525,31,81.003C31,82.108,30.104,83.003,29,83.003z"/>
		</g>
		<g>
			<path style="fill:#5B5C5F;" d="M27,81.003c0-1.104,0.896-2,2-2c0.626,0,1.178,0.294,1.545,0.744l15.036-15.036l-9.784-9.784
				c-1.062-1.062-1.062-2.785,0-3.848L55.076,31.8c1.063-1.062,2.785-1.062,3.848,0l9.784,9.784l4.205-4.205l-13.29-13.29
				c-1.449-1.449-3.798-1.449-5.247,0l-26.29,26.29c-1.449,1.449-1.449,3.798,0,5.247l10.352,10.352
				c-3.673,4.342-7.941,7.878-12.935,10.427c-2.972,2.033-3.365,6.267-0.819,8.813l0.099,0.099c0.032,0.032,0.068,0.059,0.101,0.09
				l2.86-2.86C27.294,82.182,27,81.63,27,81.003z"/>
		</g>
		<g>
			<path style="fill:#C7CBCC;" d="M78.203,51.079l-9.495-9.495L58.924,31.8c-1.062-1.062-2.785-1.062-3.848,0L35.797,51.079
				c-1.062,1.062-1.062,2.785,0,3.848l9.784,9.784l9.495,9.495c1.063,1.062,2.785,1.062,3.848,0l19.279-19.279
				C79.266,53.865,79.266,52.142,78.203,51.079z M59.414,69.417c-0.781,0.781-2.047,0.781-2.828,0l-7.855-7.855l-8.145-8.145
				c-0.781-0.781-0.781-2.047,0-2.828c0.781-0.781,2.047-0.781,2.828,0l8.145,8.145l7.855,7.855
				C60.195,67.37,60.195,68.637,59.414,69.417z M66.414,62.417c-0.781,0.781-2.047,0.781-2.828,0l-7.855-7.855l-8.145-8.145
				c-0.781-0.781-0.781-2.047,0-2.828c0.781-0.781,2.047-0.781,2.828,0l8.145,8.145l7.855,7.855
				C67.195,60.37,67.195,61.637,66.414,62.417z M73.414,55.417c-0.781,0.781-2.047,0.781-2.828,0l-7.855-7.855l-8.145-8.145
				c-0.781-0.781-0.781-2.047,0-2.828c0.781-0.781,2.047-0.781,2.828,0l8.145,8.145l7.855,7.855
				C74.195,53.37,74.195,54.637,73.414,55.417z"/>
		</g>
		<g>
			<path style="fill:#CFD3D4;" d="M55.076,31.8L35.797,51.079c-1.062,1.062-1.062,2.785,0,3.848l9.784,9.784l3.149-3.149
				l-8.145-8.145c-0.781-0.781-0.781-2.047,0-2.828c0.781-0.781,2.047-0.781,2.828,0l8.145,8.145l4.172-4.172l-8.145-8.145
				c-0.781-0.781-0.781-2.047,0-2.828c0.781-0.781,2.047-0.781,2.828,0l8.145,8.145l4.172-4.172l-8.145-8.145
				c-0.781-0.781-0.781-2.047,0-2.828c0.781-0.781,2.047-0.781,2.828,0l8.145,8.145l3.149-3.149L58.924,31.8
				C57.861,30.738,56.139,30.738,55.076,31.8z"/>
		</g>
		<g>
			<path style="fill:#9E9FA0;" d="M59.414,66.589l-7.855-7.855l-8.145-8.145c-0.781-0.781-2.047-0.781-2.828,0
				c-0.781,0.781-0.781,2.047,0,2.828l8.145,8.145l7.855,7.855c0.781,0.781,2.047,0.781,2.828,0
				C60.195,68.637,60.195,67.37,59.414,66.589z"/>
		</g>
		<g>
			<path style="fill:#9E9FA0;" d="M66.414,59.589l-7.855-7.855l-8.145-8.145c-0.781-0.781-2.047-0.781-2.828,0
				c-0.781,0.781-0.781,2.047,0,2.828l8.145,8.145l7.855,7.855c0.781,0.781,2.047,0.781,2.828,0
				C67.195,61.637,67.195,60.37,66.414,59.589z"/>
		</g>
		<g>
			<path style="fill:#9E9FA0;" d="M73.414,52.589l-7.855-7.855l-8.145-8.145c-0.781-0.781-2.047-0.781-2.828,0
				c-0.781,0.781-0.781,2.047,0,2.828l8.145,8.145l7.855,7.855c0.781,0.781,2.047,0.781,2.828,0
				C74.195,54.637,74.195,53.37,73.414,52.589z"/>
		</g>
	</g>
</g>
<g id="Multicolor" style="display:none;">
	<g style="display:inline;">
		<g>
			<path style="fill:#3E3E3F;" d="M85.913,50.38l-13-13l-13.29-13.29c-1.449-1.449-3.798-1.449-5.247,0l-26.29,26.29
				c-1.449,1.449-1.449,3.798,0,5.247l10.352,10.352c-3.673,4.342-7.941,7.878-12.935,10.427c-2.972,2.033-3.365,6.267-0.819,8.813
				l0.099,0.099c0.032,0.032,0.068,0.059,0.101,0.09c2.556,2.441,6.705,2.026,8.713-0.909c2.549-4.994,6.085-9.261,10.427-12.934
				l10.352,10.352c1.449,1.449,3.798,1.449,5.247,0l26.29-26.29C87.362,54.178,87.362,51.829,85.913,50.38z M29,83.003
				c-0.478,0-0.912-0.175-1.256-0.455C27.294,82.181,27,81.629,27,81.003c0-1.104,0.896-2,2-2c0.626,0,1.178,0.294,1.545,0.744
				C30.825,80.092,31,80.525,31,81.003C31,82.108,30.104,83.003,29,83.003z"/>
		</g>
		<g>
			<path style="fill:#5B5C5F;" d="M27,81.003c0-1.104,0.896-2,2-2c0.626,0,1.178,0.294,1.545,0.744l15.036-15.036l-9.784-9.784
				c-1.062-1.062-1.062-2.785,0-3.848L55.076,31.8c1.063-1.062,2.785-1.062,3.848,0l9.784,9.784l4.205-4.205l-13.29-13.29
				c-1.449-1.449-3.798-1.449-5.247,0l-26.29,26.29c-1.449,1.449-1.449,3.798,0,5.247l10.352,10.352
				c-3.673,4.342-7.941,7.878-12.935,10.427c-2.972,2.033-3.365,6.267-0.819,8.813l0.099,0.099c0.032,0.032,0.068,0.059,0.101,0.09
				l2.86-2.86C27.294,82.182,27,81.63,27,81.003z"/>
		</g>
		<g>
			<path style="fill:#C7CBCC;" d="M78.203,51.079l-9.495-9.495L58.924,31.8c-1.062-1.062-2.785-1.062-3.848,0L35.797,51.079
				c-1.062,1.062-1.062,2.785,0,3.848l9.784,9.784l9.495,9.495c1.063,1.062,2.785,1.062,3.848,0l19.279-19.279
				C79.266,53.865,79.266,52.142,78.203,51.079z M59.414,69.417c-0.781,0.781-2.047,0.781-2.828,0l-7.855-7.855l-8.145-8.145
				c-0.781-0.781-0.781-2.047,0-2.828c0.781-0.781,2.047-0.781,2.828,0l8.145,8.145l7.855,7.855
				C60.195,67.37,60.195,68.637,59.414,69.417z M66.414,62.417c-0.781,0.781-2.047,0.781-2.828,0l-7.855-7.855l-8.145-8.145
				c-0.781-0.781-0.781-2.047,0-2.828c0.781-0.781,2.047-0.781,2.828,0l8.145,8.145l7.855,7.855
				C67.195,60.37,67.195,61.637,66.414,62.417z M73.414,55.417c-0.781,0.781-2.047,0.781-2.828,0l-7.855-7.855l-8.145-8.145
				c-0.781-0.781-0.781-2.047,0-2.828c0.781-0.781,2.047-0.781,2.828,0l8.145,8.145l7.855,7.855
				C74.195,53.37,74.195,54.637,73.414,55.417z"/>
		</g>
		<g>
			<path style="fill:#CFD3D4;" d="M55.076,31.8L35.797,51.079c-1.062,1.062-1.062,2.785,0,3.848l9.784,9.784l3.149-3.149
				l-8.145-8.145c-0.781-0.781-0.781-2.047,0-2.828c0.781-0.781,2.047-0.781,2.828,0l8.145,8.145l4.172-4.172l-8.145-8.145
				c-0.781-0.781-0.781-2.047,0-2.828c0.781-0.781,2.047-0.781,2.828,0l8.145,8.145l4.172-4.172l-8.145-8.145
				c-0.781-0.781-0.781-2.047,0-2.828c0.781-0.781,2.047-0.781,2.828,0l8.145,8.145l3.149-3.149L58.924,31.8
				C57.861,30.738,56.139,30.738,55.076,31.8z"/>
		</g>
		<g>
			<path style="fill:#9E9FA0;" d="M59.414,66.589l-7.855-7.855l-8.145-8.145c-0.781-0.781-2.047-0.781-2.828,0
				c-0.781,0.781-0.781,2.047,0,2.828l8.145,8.145l7.855,7.855c0.781,0.781,2.047,0.781,2.828,0
				C60.195,68.637,60.195,67.37,59.414,66.589z"/>
		</g>
		<g>
			<path style="fill:#9E9FA0;" d="M66.414,59.589l-7.855-7.855l-8.145-8.145c-0.781-0.781-2.047-0.781-2.828,0
				c-0.781,0.781-0.781,2.047,0,2.828l8.145,8.145l7.855,7.855c0.781,0.781,2.047,0.781,2.828,0
				C67.195,61.637,67.195,60.37,66.414,59.589z"/>
		</g>
		<g>
			<path style="fill:#9E9FA0;" d="M73.414,52.589l-7.855-7.855l-8.145-8.145c-0.781-0.781-2.047-0.781-2.828,0
				c-0.781,0.781-0.781,2.047,0,2.828l8.145,8.145l7.855,7.855c0.781,0.781,2.047,0.781,2.828,0
				C74.195,54.637,74.195,53.37,73.414,52.589z"/>
		</g>
	</g>
</g>
<g id="Blue" style="display:none;">
	<g style="display:inline;">
		<g>
			<path style="fill:#0C333D;" d="M85.913,50.38l-13-13l-13.29-13.29c-1.448-1.449-3.798-1.449-5.246,0l-26.29,26.29
				c-1.449,1.449-1.449,3.798,0,5.247l10.352,10.352c-3.673,4.342-7.94,7.878-12.935,10.428c-2.973,2.033-3.365,6.267-0.819,8.813
				l0.099,0.099c0.033,0.032,0.068,0.059,0.102,0.09c2.555,2.44,6.705,2.026,8.713-0.909c2.549-4.994,6.085-9.261,10.427-12.934
				l10.353,10.352c1.448,1.449,3.798,1.449,5.246,0l26.29-26.29C87.362,54.178,87.362,51.829,85.913,50.38z M29,83.003
				c-0.478,0-0.912-0.175-1.256-0.455C27.294,82.182,27,81.629,27,81.003c0-1.104,0.896-2,2-2c0.626,0,1.178,0.293,1.545,0.744
				C30.824,80.092,31,80.525,31,81.003C31,82.108,30.104,83.003,29,83.003z"/>
		</g>
		<g>
			<path style="fill:#0F6175;" d="M27,81.003c0-1.104,0.896-2,2-2c0.626,0,1.178,0.293,1.545,0.745l15.036-15.037l-9.784-9.784
				c-1.062-1.062-1.062-2.786,0-3.848L55.076,31.8c1.062-1.062,2.785-1.062,3.848,0l9.784,9.784l4.205-4.205L59.623,24.09
				c-1.448-1.45-3.798-1.45-5.246,0l-26.29,26.29c-1.449,1.449-1.449,3.798,0,5.247l10.352,10.352
				c-3.673,4.342-7.94,7.878-12.935,10.427c-2.973,2.033-3.365,6.267-0.819,8.813l0.099,0.099c0.033,0.032,0.068,0.059,0.102,0.089
				l2.859-2.86C27.294,82.182,27,81.629,27,81.003z"/>
		</g>
		<g>
			<path style="fill:#CAEDF5;" d="M78.203,51.08l-9.495-9.495L58.924,31.8c-1.062-1.062-2.785-1.062-3.848,0L35.797,51.08
				c-1.062,1.062-1.062,2.785,0,3.848l9.784,9.784l9.495,9.495c1.062,1.062,2.785,1.062,3.848,0l19.279-19.279
				C79.266,53.865,79.266,52.142,78.203,51.08z M59.414,69.418c-0.781,0.781-2.047,0.781-2.828,0l-7.855-7.856l-8.145-8.145
				c-0.781-0.781-0.781-2.047,0-2.828c0.781-0.781,2.047-0.781,2.828,0l8.145,8.145l7.855,7.855
				C60.195,67.37,60.195,68.637,59.414,69.418z M66.414,62.417c-0.781,0.781-2.047,0.781-2.828,0l-7.855-7.855l-8.145-8.145
				c-0.781-0.781-0.781-2.047,0-2.828c0.781-0.781,2.047-0.781,2.828,0l8.145,8.145l7.855,7.855
				C67.195,60.37,67.195,61.637,66.414,62.417z M73.414,55.417c-0.781,0.781-2.047,0.781-2.828,0l-7.855-7.855l-8.145-8.145
				c-0.781-0.781-0.781-2.047,0-2.828c0.781-0.781,2.047-0.781,2.828,0l8.145,8.145l7.855,7.855
				C74.195,53.37,74.195,54.637,73.414,55.417z"/>
		</g>
		<g>
			<path style="fill:#E1F5FA;" d="M55.076,31.8L35.797,51.08c-1.062,1.062-1.062,2.785,0,3.848l9.784,9.784l3.149-3.149
				l-8.145-8.145c-0.781-0.781-0.781-2.047,0-2.828c0.781-0.782,2.047-0.782,2.828,0l8.145,8.145l4.172-4.172l-8.145-8.145
				c-0.781-0.781-0.781-2.047,0-2.828c0.781-0.782,2.047-0.782,2.828,0l8.145,8.145l4.172-4.172l-8.145-8.145
				c-0.781-0.781-0.781-2.047,0-2.828c0.781-0.782,2.047-0.782,2.828,0l8.145,8.145l3.149-3.149L58.924,31.8
				C57.861,30.738,56.139,30.738,55.076,31.8z"/>
		</g>
		<g>
			<path style="fill:#81D2EB;" d="M59.414,66.589l-7.855-7.855l-8.145-8.145c-0.781-0.781-2.047-0.781-2.828,0
				c-0.781,0.781-0.781,2.047,0,2.828l8.145,8.145l7.855,7.856c0.781,0.781,2.047,0.781,2.828,0
				C60.195,68.637,60.195,67.37,59.414,66.589z"/>
		</g>
		<g>
			<path style="fill:#81D2EB;" d="M66.414,59.589l-7.855-7.855l-8.145-8.145c-0.781-0.781-2.047-0.781-2.828,0
				c-0.781,0.781-0.781,2.047,0,2.828l8.145,8.145l7.855,7.855c0.781,0.781,2.047,0.781,2.828,0
				C67.195,61.637,67.195,60.37,66.414,59.589z"/>
		</g>
		<g>
			<path style="fill:#81D2EB;" d="M73.414,52.589l-7.855-7.855l-8.145-8.145c-0.781-0.781-2.047-0.781-2.828,0
				c-0.781,0.781-0.781,2.047,0,2.828l8.145,8.145l7.855,7.855c0.781,0.781,2.047,0.781,2.828,0
				C74.195,54.637,74.195,53.37,73.414,52.589z"/>
		</g>
	</g>
</g>
<g id="R-Blue" style="display:none;">
	<circle style="display:inline;fill:#81D2EB;" cx="55" cy="55" r="55"/>
	<g style="display:inline;">
		<g>
			<path style="fill:#0C333D;" d="M85.913,50.38l-13-13l-13.29-13.29c-1.448-1.449-3.798-1.449-5.246,0l-26.29,26.29
				c-1.449,1.449-1.449,3.798,0,5.247l10.352,10.352c-3.673,4.342-7.94,7.878-12.935,10.428c-2.973,2.033-3.365,6.267-0.819,8.813
				l0.099,0.099c0.033,0.032,0.068,0.059,0.102,0.09c2.555,2.44,6.705,2.026,8.713-0.909c2.549-4.994,6.085-9.261,10.427-12.934
				l10.353,10.352c1.448,1.449,3.798,1.449,5.246,0l26.29-26.29C87.362,54.178,87.362,51.829,85.913,50.38z M29,83.003
				c-0.478,0-0.912-0.175-1.256-0.455C27.294,82.182,27,81.629,27,81.003c0-1.104,0.896-2,2-2c0.626,0,1.178,0.294,1.545,0.744
				C30.824,80.092,31,80.525,31,81.003C31,82.108,30.104,83.003,29,83.003z"/>
		</g>
		<g>
			<path style="fill:#0F6175;" d="M27,81.003c0-1.104,0.896-2,2-2c0.626,0,1.178,0.294,1.545,0.745l15.036-15.037l-9.784-9.784
				c-1.062-1.062-1.062-2.786,0-3.848L55.076,31.8c1.062-1.062,2.785-1.062,3.848,0l9.784,9.784l4.205-4.205L59.623,24.09
				c-1.448-1.45-3.798-1.45-5.246,0l-26.29,26.29c-1.449,1.449-1.449,3.798,0,5.247l10.352,10.352
				c-3.673,4.342-7.94,7.878-12.935,10.427c-2.973,2.033-3.365,6.267-0.819,8.813l0.099,0.099c0.033,0.032,0.068,0.059,0.102,0.089
				l2.859-2.86C27.294,82.182,27,81.629,27,81.003z"/>
		</g>
		<g>
			<path style="fill:#CAEDF5;" d="M78.203,51.08l-9.495-9.495L58.924,31.8c-1.062-1.062-2.785-1.062-3.848,0L35.797,51.08
				c-1.062,1.062-1.062,2.785,0,3.848l9.784,9.784l9.495,9.495c1.062,1.062,2.785,1.062,3.848,0l19.279-19.279
				C79.266,53.865,79.266,52.142,78.203,51.08z M59.414,69.417c-0.781,0.781-2.047,0.781-2.828,0l-7.855-7.855l-8.145-8.145
				c-0.781-0.781-0.781-2.047,0-2.828c0.781-0.781,2.047-0.781,2.828,0l8.145,8.145l7.855,7.855
				C60.195,67.37,60.195,68.637,59.414,69.417z M66.414,62.417c-0.781,0.781-2.047,0.781-2.828,0l-7.855-7.855l-8.145-8.145
				c-0.781-0.781-0.781-2.047,0-2.828c0.781-0.781,2.047-0.781,2.828,0l8.145,8.145l7.855,7.855
				C67.195,60.37,67.195,61.637,66.414,62.417z M73.414,55.417c-0.781,0.781-2.047,0.781-2.828,0l-7.855-7.855l-8.145-8.145
				c-0.781-0.781-0.781-2.047,0-2.828c0.781-0.781,2.047-0.781,2.828,0l8.145,8.145l7.855,7.855
				C74.195,53.37,74.195,54.637,73.414,55.417z"/>
		</g>
		<g>
			<path style="fill:#E1F5FA;" d="M55.076,31.8L35.797,51.08c-1.062,1.062-1.062,2.785,0,3.848l9.784,9.784l3.149-3.149
				l-8.145-8.145c-0.781-0.781-0.781-2.047,0-2.828c0.781-0.782,2.047-0.782,2.828,0l8.145,8.145l4.172-4.172l-8.145-8.145
				c-0.781-0.781-0.781-2.047,0-2.828c0.781-0.782,2.047-0.782,2.828,0l8.145,8.145l4.172-4.172l-8.145-8.145
				c-0.781-0.781-0.781-2.047,0-2.828c0.781-0.782,2.047-0.782,2.828,0l8.145,8.145l3.149-3.149L58.924,31.8
				C57.861,30.738,56.139,30.738,55.076,31.8z"/>
		</g>
		<g>
			<path style="fill:#81D2EB;" d="M59.414,66.589l-7.855-7.855l-8.145-8.145c-0.781-0.781-2.047-0.781-2.828,0
				c-0.781,0.781-0.781,2.047,0,2.828l8.145,8.145l7.855,7.855c0.781,0.781,2.047,0.781,2.828,0
				C60.195,68.637,60.195,67.37,59.414,66.589z"/>
		</g>
		<g>
			<path style="fill:#81D2EB;" d="M66.414,59.589l-7.855-7.855l-8.145-8.145c-0.781-0.781-2.047-0.781-2.828,0
				c-0.781,0.781-0.781,2.047,0,2.828l8.145,8.145l7.855,7.855c0.781,0.781,2.047,0.781,2.828,0
				C67.195,61.637,67.195,60.37,66.414,59.589z"/>
		</g>
		<g>
			<path style="fill:#81D2EB;" d="M73.414,52.589l-7.855-7.855l-8.145-8.145c-0.781-0.781-2.047-0.781-2.828,0
				c-0.781,0.781-0.781,2.047,0,2.828l8.145,8.145l7.855,7.855c0.781,0.781,2.047,0.781,2.828,0
				C74.195,54.637,74.195,53.37,73.414,52.589z"/>
		</g>
	</g>
</g>
<g id="Green" style="display:none;">
	<g style="display:inline;">
		<g>
			<path style="fill:#0A3631;" d="M85.913,50.38l-13-13.001l-13.29-13.29c-1.448-1.449-3.798-1.449-5.246,0l-26.29,26.29
				c-1.449,1.449-1.449,3.798,0,5.247l10.352,10.352c-3.673,4.342-7.94,7.878-12.935,10.428c-2.973,2.033-3.365,6.267-0.819,8.814
				l0.099,0.099c0.033,0.032,0.068,0.059,0.102,0.09c2.555,2.44,6.705,2.026,8.713-0.909c2.549-4.994,6.085-9.261,10.427-12.934
				l10.353,10.352c1.448,1.449,3.798,1.449,5.246,0l26.29-26.289C87.362,54.178,87.362,51.829,85.913,50.38z M29,83.003
				c-0.478,0-0.912-0.175-1.256-0.455C27.294,82.182,27,81.629,27,81.003c0-1.104,0.896-2,2-2c0.626,0,1.178,0.293,1.545,0.744
				C30.824,80.092,31,80.525,31,81.003C31,82.108,30.104,83.003,29,83.003z"/>
		</g>
		<g>
			<path style="fill:#14635B;" d="M27,81.003c0-1.104,0.896-2,2-2c0.626,0,1.178,0.293,1.545,0.745l15.036-15.037l-9.784-9.784
				c-1.062-1.062-1.062-2.786,0-3.848L55.076,31.8c1.062-1.062,2.785-1.062,3.848,0l9.784,9.784l4.205-4.205L59.623,24.09
				c-1.448-1.45-3.798-1.45-5.246,0l-26.29,26.29c-1.449,1.449-1.449,3.798,0,5.247l10.352,10.352
				c-3.673,4.342-7.94,7.878-12.935,10.427c-2.973,2.033-3.365,6.267-0.819,8.814l0.099,0.099c0.033,0.032,0.068,0.059,0.102,0.089
				l2.859-2.86C27.294,82.182,27,81.629,27,81.003z"/>
		</g>
		<g>
			<path style="fill:#BEF3EE;" d="M78.203,51.08l-9.495-9.495L58.924,31.8c-1.062-1.062-2.785-1.062-3.848,0L35.797,51.08
				c-1.062,1.062-1.062,2.785,0,3.848l9.784,9.784l9.495,9.495c1.062,1.062,2.785,1.062,3.848,0l19.279-19.279
				C79.266,53.865,79.266,52.142,78.203,51.08z M59.414,69.418c-0.781,0.781-2.047,0.781-2.828,0l-7.855-7.856l-8.145-8.145
				c-0.781-0.781-0.781-2.047,0-2.828c0.781-0.781,2.047-0.781,2.828,0l8.145,8.144l7.855,7.856
				C60.195,67.37,60.195,68.637,59.414,69.418z M66.414,62.417c-0.781,0.781-2.047,0.781-2.828,0l-7.855-7.855l-8.145-8.145
				c-0.781-0.781-0.781-2.047,0-2.828c0.781-0.781,2.047-0.781,2.828,0l8.145,8.144l7.856,7.856
				C67.195,60.37,67.195,61.637,66.414,62.417z M73.414,55.417c-0.781,0.781-2.047,0.781-2.828,0l-7.855-7.855l-8.145-8.145
				c-0.781-0.781-0.781-2.047,0-2.828c0.781-0.781,2.047-0.781,2.828,0l8.144,8.144l7.856,7.856
				C74.195,53.37,74.195,54.637,73.414,55.417z"/>
		</g>
		<g>
			<path style="fill:#D7FCF9;" d="M55.076,31.8L35.797,51.08c-1.062,1.062-1.062,2.785,0,3.848l9.784,9.784l3.149-3.149
				l-8.145-8.145c-0.781-0.781-0.781-2.047,0-2.828c0.781-0.782,2.047-0.782,2.828,0l8.145,8.144l4.172-4.172l-8.145-8.145
				c-0.781-0.781-0.781-2.047,0-2.828c0.781-0.782,2.047-0.782,2.828,0l8.145,8.144l4.172-4.172l-8.145-8.145
				c-0.781-0.781-0.781-2.047,0-2.828c0.781-0.782,2.047-0.782,2.828,0l8.144,8.144l3.149-3.149L58.924,31.8
				C57.861,30.738,56.139,30.738,55.076,31.8z"/>
		</g>
		<g>
			<path style="fill:#77E0C4;" d="M59.414,66.589l-7.855-7.856l-8.145-8.144c-0.781-0.781-2.047-0.781-2.828,0
				c-0.781,0.781-0.781,2.047,0,2.828l8.145,8.145l7.855,7.856c0.781,0.781,2.047,0.781,2.828,0
				C60.195,68.637,60.195,67.37,59.414,66.589z"/>
		</g>
		<g>
			<path style="fill:#77E0C4;" d="M66.414,59.589l-7.856-7.856l-8.145-8.144c-0.781-0.781-2.047-0.781-2.828,0
				c-0.781,0.781-0.781,2.047,0,2.828l8.145,8.145l7.855,7.855c0.781,0.781,2.047,0.781,2.828,0
				C67.195,61.637,67.195,60.37,66.414,59.589z"/>
		</g>
		<g>
			<path style="fill:#77E0C4;" d="M73.414,52.589l-7.856-7.856l-8.144-8.144c-0.781-0.781-2.047-0.781-2.828,0
				c-0.781,0.781-0.781,2.047,0,2.828l8.145,8.145l7.855,7.855c0.781,0.781,2.047,0.781,2.828,0
				C74.195,54.637,74.195,53.37,73.414,52.589z"/>
		</g>
	</g>
</g>
<g id="R-Green" style="display:none;">
	<circle style="display:inline;fill:#77E0C4;" cx="55" cy="55" r="55"/>
	<g style="display:inline;">
		<g>
			<path style="fill:#0A3631;" d="M85.913,50.38l-13-13l-13.29-13.29c-1.448-1.449-3.798-1.449-5.246,0l-26.29,26.29
				c-1.449,1.449-1.449,3.798,0,5.247l10.352,10.352c-3.673,4.342-7.941,7.878-12.935,10.428c-2.973,2.033-3.365,6.267-0.819,8.813
				l0.099,0.099c0.033,0.032,0.068,0.059,0.102,0.09c2.555,2.44,6.705,2.026,8.713-0.909c2.549-4.994,6.085-9.261,10.427-12.934
				l10.353,10.352c1.448,1.449,3.798,1.449,5.246,0l26.29-26.29C87.362,54.178,87.362,51.829,85.913,50.38z M29,83.003
				c-0.479,0-0.912-0.175-1.256-0.455C27.294,82.182,27,81.629,27,81.003c0-1.104,0.896-2,2-2c0.626,0,1.178,0.293,1.545,0.744
				C30.824,80.092,31,80.525,31,81.003C31,82.108,30.104,83.003,29,83.003z"/>
		</g>
		<g>
			<path style="fill:#14635B;" d="M27,81.003c0-1.104,0.896-2,2-2c0.626,0,1.178,0.293,1.545,0.745l15.036-15.037l-9.784-9.784
				c-1.062-1.062-1.062-2.786,0-3.848L55.076,31.8c1.062-1.062,2.785-1.062,3.848,0l9.784,9.784l4.205-4.205L59.623,24.09
				c-1.448-1.45-3.798-1.45-5.246,0l-26.29,26.29c-1.449,1.449-1.449,3.798,0,5.247l10.352,10.352
				c-3.673,4.342-7.941,7.878-12.935,10.427c-2.973,2.033-3.365,6.267-0.819,8.813l0.099,0.099c0.033,0.032,0.068,0.059,0.102,0.089
				l2.859-2.86C27.294,82.182,27,81.629,27,81.003z"/>
		</g>
		<g>
			<path style="fill:#BEF3EE;" d="M78.203,51.08l-9.495-9.495L58.924,31.8c-1.062-1.062-2.785-1.062-3.848,0L35.797,51.08
				c-1.062,1.062-1.062,2.785,0,3.848l9.784,9.784l9.495,9.495c1.062,1.062,2.785,1.062,3.848,0l19.279-19.279
				C79.266,53.865,79.266,52.142,78.203,51.08z M59.414,69.418c-0.781,0.781-2.047,0.781-2.828,0l-7.855-7.856l-8.145-8.145
				c-0.781-0.781-0.781-2.047,0-2.828c0.781-0.781,2.047-0.781,2.828,0l8.145,8.145l7.855,7.855
				C60.195,67.37,60.195,68.637,59.414,69.418z M66.414,62.417c-0.781,0.781-2.047,0.781-2.828,0l-7.855-7.855l-8.145-8.145
				c-0.781-0.781-0.781-2.047,0-2.828c0.781-0.781,2.047-0.781,2.828,0l8.145,8.145l7.855,7.855
				C67.195,60.37,67.195,61.637,66.414,62.417z M73.414,55.417c-0.781,0.781-2.047,0.781-2.828,0l-7.855-7.855l-8.145-8.145
				c-0.781-0.781-0.781-2.047,0-2.828c0.781-0.781,2.047-0.781,2.828,0l8.145,8.145l7.855,7.855
				C74.195,53.37,74.195,54.637,73.414,55.417z"/>
		</g>
		<g>
			<path style="fill:#D7FCF9;" d="M55.076,31.8L35.797,51.08c-1.062,1.062-1.062,2.785,0,3.848l9.784,9.784l3.149-3.149
				l-8.145-8.145c-0.781-0.781-0.781-2.047,0-2.828c0.781-0.782,2.047-0.782,2.828,0l8.145,8.145l4.172-4.172l-8.145-8.145
				c-0.781-0.781-0.781-2.047,0-2.828c0.781-0.782,2.047-0.782,2.828,0l8.145,8.145l4.172-4.172l-8.145-8.145
				c-0.781-0.781-0.781-2.047,0-2.828c0.781-0.782,2.047-0.782,2.828,0l8.145,8.145l3.149-3.149L58.924,31.8
				C57.861,30.738,56.139,30.738,55.076,31.8z"/>
		</g>
		<g>
			<path style="fill:#77E0C4;" d="M59.414,66.589l-7.855-7.855l-8.145-8.145c-0.781-0.781-2.047-0.781-2.828,0
				c-0.781,0.781-0.781,2.047,0,2.828l8.145,8.145l7.855,7.856c0.781,0.781,2.047,0.781,2.828,0
				C60.195,68.637,60.195,67.37,59.414,66.589z"/>
		</g>
		<g>
			<path style="fill:#77E0C4;" d="M66.414,59.589l-7.855-7.855l-8.145-8.145c-0.781-0.781-2.047-0.781-2.828,0
				c-0.781,0.781-0.781,2.047,0,2.828l8.145,8.145l7.855,7.855c0.781,0.781,2.047,0.781,2.828,0
				C67.195,61.637,67.195,60.37,66.414,59.589z"/>
		</g>
		<g>
			<path style="fill:#77E0C4;" d="M73.414,52.589l-7.855-7.855l-8.145-8.145c-0.781-0.781-2.047-0.781-2.828,0
				c-0.781,0.781-0.781,2.047,0,2.828l8.145,8.145l7.855,7.855c0.781,0.781,2.047,0.781,2.828,0
				C74.195,54.637,74.195,53.37,73.414,52.589z"/>
		</g>
	</g>
</g>
<g id="Red" style="display:none;">
	<g style="display:inline;">
		<g>
			<path style="fill:#4A1410;" d="M85.913,50.38l-13-13.001l-13.29-13.29c-1.448-1.449-3.798-1.449-5.246,0l-26.29,26.29
				c-1.449,1.449-1.449,3.798,0,5.247l10.352,10.352c-3.673,4.342-7.94,7.878-12.935,10.428c-2.973,2.033-3.365,6.267-0.819,8.814
				l0.099,0.099c0.033,0.032,0.068,0.059,0.102,0.09c2.555,2.44,6.705,2.026,8.713-0.909c2.549-4.994,6.085-9.261,10.427-12.934
				l10.353,10.352c1.448,1.449,3.798,1.449,5.246,0l26.29-26.289C87.362,54.178,87.362,51.829,85.913,50.38z M29,83.003
				c-0.479,0-0.912-0.175-1.256-0.455C27.294,82.182,27,81.629,27,81.003c0-1.104,0.896-2,2-2c0.626,0,1.178,0.293,1.545,0.744
				C30.824,80.092,31,80.525,31,81.003C31,82.108,30.104,83.003,29,83.003z"/>
		</g>
		<g>
			<path style="fill:#7D261E;" d="M27,81.003c0-1.104,0.896-2,2-2c0.626,0,1.178,0.293,1.545,0.745l15.036-15.037l-9.784-9.784
				c-1.062-1.062-1.062-2.786,0-3.848L55.076,31.8c1.062-1.062,2.785-1.062,3.848,0l9.784,9.784l4.205-4.205L59.623,24.09
				c-1.448-1.45-3.798-1.45-5.246,0l-26.29,26.29c-1.449,1.449-1.449,3.798,0,5.247l10.352,10.352
				c-3.673,4.342-7.94,7.878-12.935,10.427c-2.973,2.033-3.365,6.267-0.819,8.814l0.099,0.099c0.033,0.032,0.068,0.059,0.102,0.089
				l2.859-2.86C27.294,82.182,27,81.629,27,81.003z"/>
		</g>
		<g>
			<path style="fill:#FFE0DE;" d="M78.203,51.08l-9.495-9.495L58.924,31.8c-1.062-1.062-2.785-1.062-3.848,0L35.797,51.08
				c-1.062,1.062-1.062,2.785,0,3.848l9.784,9.784l9.495,9.495c1.062,1.062,2.785,1.062,3.848,0l19.279-19.279
				C79.266,53.865,79.266,52.142,78.203,51.08z M59.414,69.418c-0.781,0.781-2.047,0.781-2.828,0l-7.855-7.856l-8.145-8.145
				c-0.781-0.781-0.781-2.047,0-2.828c0.781-0.781,2.047-0.781,2.828,0l8.145,8.144l7.855,7.856
				C60.195,67.37,60.195,68.637,59.414,69.418z M66.414,62.417c-0.781,0.781-2.047,0.781-2.828,0l-7.855-7.855l-8.145-8.145
				c-0.781-0.781-0.781-2.047,0-2.828c0.781-0.781,2.047-0.781,2.828,0l8.145,8.144l7.855,7.856
				C67.195,60.37,67.195,61.637,66.414,62.417z M73.414,55.417c-0.781,0.781-2.047,0.781-2.828,0l-7.855-7.855l-8.145-8.145
				c-0.781-0.781-0.781-2.047,0-2.828c0.781-0.781,2.047-0.781,2.828,0l8.144,8.144l7.855,7.856
				C74.195,53.37,74.195,54.637,73.414,55.417z"/>
		</g>
		<g>
			<path style="fill:#FFEFED;" d="M55.076,31.8L35.797,51.08c-1.062,1.062-1.062,2.785,0,3.848l9.784,9.784l3.149-3.149
				l-8.145-8.145c-0.781-0.781-0.781-2.047,0-2.828c0.781-0.782,2.047-0.782,2.828,0l8.145,8.144l4.172-4.172l-8.145-8.145
				c-0.781-0.781-0.781-2.047,0-2.828c0.781-0.782,2.047-0.782,2.828,0l8.145,8.144l4.172-4.172l-8.145-8.145
				c-0.781-0.781-0.781-2.047,0-2.828c0.781-0.782,2.047-0.782,2.828,0l8.144,8.144l3.149-3.149L58.924,31.8
				C57.861,30.738,56.139,30.738,55.076,31.8z"/>
		</g>
		<g>
			<path style="fill:#FABBAF;" d="M59.414,66.589l-7.855-7.856l-8.145-8.144c-0.781-0.781-2.047-0.781-2.828,0
				c-0.781,0.781-0.781,2.047,0,2.828l8.145,8.145l7.855,7.856c0.781,0.781,2.047,0.781,2.828,0
				C60.195,68.637,60.195,67.37,59.414,66.589z"/>
		</g>
		<g>
			<path style="fill:#FABBAF;" d="M66.414,59.589l-7.855-7.856l-8.145-8.144c-0.781-0.781-2.047-0.781-2.828,0
				c-0.781,0.781-0.781,2.047,0,2.828l8.145,8.145l7.855,7.855c0.781,0.781,2.047,0.781,2.828,0
				C67.195,61.637,67.195,60.37,66.414,59.589z"/>
		</g>
		<g>
			<path style="fill:#FABBAF;" d="M73.414,52.589l-7.855-7.856l-8.144-8.144c-0.781-0.781-2.047-0.781-2.828,0
				c-0.781,0.781-0.781,2.047,0,2.828l8.145,8.145l7.855,7.855c0.781,0.781,2.047,0.781,2.828,0
				C74.195,54.637,74.195,53.37,73.414,52.589z"/>
		</g>
	</g>
</g>
<g id="R-Red" style="display:none;">
	<circle style="display:inline;fill:#FABBAF;" cx="55" cy="55" r="55"/>
	<g style="display:inline;">
		<g>
			<path style="fill:#4A1410;" d="M85.913,50.38l-13-13.001l-13.29-13.29c-1.448-1.449-3.798-1.449-5.246,0l-26.29,26.29
				c-1.449,1.449-1.449,3.798,0,5.247l10.352,10.352c-3.673,4.342-7.94,7.878-12.935,10.428c-2.973,2.033-3.365,6.267-0.819,8.814
				l0.099,0.099c0.033,0.032,0.068,0.059,0.102,0.09c2.555,2.44,6.705,2.026,8.713-0.909c2.549-4.994,6.085-9.261,10.427-12.934
				l10.353,10.352c1.448,1.449,3.798,1.449,5.246,0l26.29-26.289C87.362,54.178,87.362,51.829,85.913,50.38z M29,83.003
				c-0.479,0-0.912-0.175-1.256-0.455C27.294,82.182,27,81.629,27,81.003c0-1.104,0.896-2,2-2c0.626,0,1.178,0.293,1.545,0.744
				C30.824,80.092,31,80.525,31,81.003C31,82.108,30.104,83.003,29,83.003z"/>
		</g>
		<g>
			<path style="fill:#7D261E;" d="M27,81.003c0-1.104,0.896-2,2-2c0.626,0,1.178,0.293,1.545,0.745l15.036-15.037l-9.784-9.784
				c-1.062-1.062-1.062-2.786,0-3.848L55.076,31.8c1.062-1.062,2.785-1.062,3.848,0l9.784,9.784l4.205-4.205L59.623,24.09
				c-1.448-1.45-3.798-1.45-5.246,0l-26.29,26.29c-1.449,1.449-1.449,3.798,0,5.247l10.352,10.352
				c-3.673,4.342-7.94,7.878-12.935,10.427c-2.973,2.033-3.365,6.267-0.819,8.814l0.099,0.099c0.033,0.032,0.068,0.059,0.102,0.089
				l2.859-2.86C27.294,82.182,27,81.629,27,81.003z"/>
		</g>
		<g>
			<path style="fill:#FFE0DE;" d="M78.203,51.08l-9.495-9.495L58.924,31.8c-1.062-1.062-2.785-1.062-3.848,0L35.797,51.08
				c-1.062,1.062-1.062,2.785,0,3.848l9.784,9.784l9.495,9.495c1.062,1.062,2.785,1.062,3.848,0l19.279-19.279
				C79.266,53.865,79.266,52.142,78.203,51.08z M59.414,69.418c-0.781,0.781-2.047,0.781-2.828,0l-7.855-7.856l-8.145-8.145
				c-0.781-0.781-0.781-2.047,0-2.828c0.781-0.781,2.047-0.781,2.828,0l8.145,8.144l7.855,7.856
				C60.195,67.37,60.195,68.637,59.414,69.418z M66.414,62.417c-0.781,0.781-2.047,0.781-2.828,0l-7.855-7.855l-8.145-8.145
				c-0.781-0.781-0.781-2.047,0-2.828c0.781-0.781,2.047-0.781,2.828,0l8.145,8.144l7.855,7.856
				C67.195,60.37,67.195,61.637,66.414,62.417z M73.414,55.417c-0.781,0.781-2.047,0.781-2.828,0l-7.855-7.855l-8.145-8.145
				c-0.781-0.781-0.781-2.047,0-2.828c0.781-0.781,2.047-0.781,2.828,0l8.144,8.144l7.855,7.856
				C74.195,53.37,74.195,54.637,73.414,55.417z"/>
		</g>
		<g>
			<path style="fill:#FFEFED;" d="M55.076,31.8L35.797,51.08c-1.062,1.062-1.062,2.785,0,3.848l9.784,9.784l3.149-3.149
				l-8.145-8.145c-0.781-0.781-0.781-2.047,0-2.828c0.781-0.782,2.047-0.782,2.828,0l8.145,8.144l4.172-4.172l-8.145-8.145
				c-0.781-0.781-0.781-2.047,0-2.828c0.781-0.782,2.047-0.782,2.828,0l8.145,8.144l4.172-4.172l-8.145-8.145
				c-0.781-0.781-0.781-2.047,0-2.828c0.781-0.782,2.047-0.782,2.828,0l8.144,8.144l3.149-3.149L58.924,31.8
				C57.861,30.738,56.139,30.738,55.076,31.8z"/>
		</g>
		<g>
			<path style="fill:#FABBAF;" d="M59.414,66.589l-7.855-7.856l-8.145-8.144c-0.781-0.781-2.047-0.781-2.828,0
				c-0.781,0.781-0.781,2.047,0,2.828l8.145,8.145l7.855,7.856c0.781,0.781,2.047,0.781,2.828,0
				C60.195,68.637,60.195,67.37,59.414,66.589z"/>
		</g>
		<g>
			<path style="fill:#FABBAF;" d="M66.414,59.589l-7.855-7.856l-8.145-8.144c-0.781-0.781-2.047-0.781-2.828,0
				c-0.781,0.781-0.781,2.047,0,2.828l8.145,8.145l7.855,7.855c0.781,0.781,2.047,0.781,2.828,0
				C67.195,61.637,67.195,60.37,66.414,59.589z"/>
		</g>
		<g>
			<path style="fill:#FABBAF;" d="M73.414,52.589l-7.855-7.856l-8.144-8.144c-0.781-0.781-2.047-0.781-2.828,0
				c-0.781,0.781-0.781,2.047,0,2.828l8.145,8.145l7.855,7.855c0.781,0.781,2.047,0.781,2.828,0
				C74.195,54.637,74.195,53.37,73.414,52.589z"/>
		</g>
	</g>
</g>
<g id="Yellow" style="display:none;">
	<g style="display:inline;">
		<g>
			<path style="fill:#3D320C;" d="M85.913,50.38l-13-13l-13.29-13.29c-1.448-1.449-3.798-1.449-5.246,0l-26.29,26.29
				c-1.449,1.449-1.449,3.798,0,5.247l10.352,10.352c-3.673,4.342-7.941,7.878-12.935,10.428c-2.973,2.033-3.365,6.267-0.819,8.813
				l0.099,0.099c0.033,0.032,0.068,0.059,0.102,0.09c2.555,2.44,6.705,2.026,8.713-0.909c2.549-4.994,6.085-9.261,10.427-12.934
				l10.353,10.352c1.448,1.449,3.798,1.449,5.246,0l26.29-26.29C87.362,54.178,87.362,51.829,85.913,50.38z M29,83.003
				c-0.479,0-0.912-0.175-1.256-0.455C27.294,82.182,27,81.629,27,81.003c0-1.104,0.896-2,2-2c0.626,0,1.178,0.293,1.545,0.744
				C30.824,80.092,31,80.525,31,81.003C31,82.108,30.104,83.003,29,83.003z"/>
		</g>
		<g>
			<path style="fill:#66510D;" d="M27,81.003c0-1.104,0.896-2,2-2c0.626,0,1.178,0.293,1.545,0.745l15.036-15.037l-9.784-9.784
				c-1.062-1.062-1.062-2.786,0-3.848L55.076,31.8c1.062-1.062,2.785-1.062,3.848,0l9.784,9.784l4.205-4.205L59.623,24.09
				c-1.448-1.45-3.798-1.45-5.246,0l-26.29,26.29c-1.449,1.449-1.449,3.798,0,5.247l10.352,10.352
				c-3.673,4.342-7.941,7.878-12.935,10.427c-2.973,2.033-3.365,6.267-0.819,8.813l0.099,0.099c0.033,0.032,0.068,0.059,0.102,0.089
				l2.859-2.86C27.294,82.182,27,81.629,27,81.003z"/>
		</g>
		<g>
			<path style="fill:#FFEEB6;" d="M78.203,51.08l-9.495-9.495L58.924,31.8c-1.062-1.062-2.785-1.062-3.848,0L35.797,51.08
				c-1.062,1.062-1.062,2.785,0,3.848l9.784,9.784l9.495,9.495c1.062,1.062,2.785,1.062,3.848,0l19.279-19.279
				C79.266,53.865,79.266,52.142,78.203,51.08z M59.414,69.418c-0.781,0.781-2.047,0.781-2.828,0l-7.855-7.856l-8.145-8.145
				c-0.781-0.781-0.781-2.047,0-2.828c0.781-0.781,2.047-0.781,2.828,0l8.145,8.145l7.855,7.855
				C60.195,67.37,60.195,68.637,59.414,69.418z M66.414,62.417c-0.781,0.781-2.047,0.781-2.828,0l-7.855-7.855l-8.145-8.145
				c-0.781-0.781-0.781-2.047,0-2.828c0.781-0.781,2.047-0.781,2.828,0l8.145,8.145l7.855,7.855
				C67.195,60.37,67.195,61.637,66.414,62.417z M73.414,55.417c-0.781,0.781-2.047,0.781-2.828,0l-7.855-7.855l-8.145-8.145
				c-0.781-0.781-0.781-2.047,0-2.828c0.781-0.781,2.047-0.781,2.828,0l8.145,8.145l7.855,7.855
				C74.195,53.37,74.195,54.637,73.414,55.417z"/>
		</g>
		<g>
			<path style="fill:#FFF5D9;" d="M55.076,31.8L35.797,51.08c-1.062,1.062-1.062,2.785,0,3.848l9.784,9.784l3.149-3.149
				l-8.145-8.145c-0.781-0.781-0.781-2.047,0-2.828c0.781-0.782,2.047-0.782,2.828,0l8.145,8.145l4.172-4.172l-8.145-8.145
				c-0.781-0.781-0.781-2.047,0-2.828c0.781-0.782,2.047-0.782,2.828,0l8.145,8.145l4.172-4.172l-8.145-8.145
				c-0.781-0.781-0.781-2.047,0-2.828c0.781-0.782,2.047-0.782,2.828,0l8.145,8.145l3.149-3.149L58.924,31.8
				C57.861,30.738,56.139,30.738,55.076,31.8z"/>
		</g>
		<g>
			<path style="fill:#FFD75E;" d="M59.414,66.589l-7.855-7.855l-8.145-8.145c-0.781-0.781-2.047-0.781-2.828,0
				c-0.781,0.781-0.781,2.047,0,2.828l8.145,8.145l7.855,7.856c0.781,0.781,2.047,0.781,2.828,0
				C60.195,68.637,60.195,67.37,59.414,66.589z"/>
		</g>
		<g>
			<path style="fill:#FFD75E;" d="M66.414,59.589l-7.855-7.855l-8.145-8.145c-0.781-0.781-2.047-0.781-2.828,0
				c-0.781,0.781-0.781,2.047,0,2.828l8.145,8.145l7.855,7.855c0.781,0.781,2.047,0.781,2.828,0
				C67.195,61.637,67.195,60.37,66.414,59.589z"/>
		</g>
		<g>
			<path style="fill:#FFD75E;" d="M73.414,52.589l-7.855-7.855l-8.145-8.145c-0.781-0.781-2.047-0.781-2.828,0
				c-0.781,0.781-0.781,2.047,0,2.828l8.145,8.145l7.855,7.855c0.781,0.781,2.047,0.781,2.828,0
				C74.195,54.637,74.195,53.37,73.414,52.589z"/>
		</g>
	</g>
</g>
<g id="R-Yellow" style="display:none;">
	<circle style="display:inline;fill:#FFD75E;" cx="55" cy="55" r="55"/>
	<g style="display:inline;">
		<g>
			<path style="fill:#3D320C;" d="M85.913,50.38l-13-13l-13.29-13.29c-1.448-1.449-3.798-1.449-5.246,0l-26.29,26.29
				c-1.449,1.449-1.449,3.798,0,5.247l10.352,10.352c-3.673,4.342-7.94,7.878-12.935,10.428c-2.973,2.033-3.365,6.267-0.819,8.813
				l0.099,0.099c0.033,0.032,0.068,0.059,0.102,0.09c2.555,2.44,6.705,2.026,8.713-0.909c2.549-4.994,6.085-9.261,10.427-12.934
				l10.353,10.352c1.448,1.449,3.798,1.449,5.246,0l26.29-26.29C87.362,54.178,87.362,51.829,85.913,50.38z M29,83.003
				c-0.478,0-0.912-0.175-1.256-0.455C27.294,82.182,27,81.629,27,81.003c0-1.104,0.896-2,2-2c0.626,0,1.178,0.293,1.545,0.744
				C30.824,80.092,31,80.525,31,81.003C31,82.108,30.104,83.003,29,83.003z"/>
		</g>
		<g>
			<path style="fill:#66510D;" d="M27,81.003c0-1.104,0.896-2,2-2c0.626,0,1.178,0.293,1.545,0.745l15.036-15.037l-9.784-9.784
				c-1.062-1.062-1.062-2.786,0-3.848L55.076,31.8c1.062-1.062,2.785-1.062,3.848,0l9.784,9.784l4.205-4.205L59.623,24.09
				c-1.448-1.45-3.798-1.45-5.246,0l-26.29,26.29c-1.449,1.449-1.449,3.798,0,5.247l10.352,10.352
				c-3.673,4.342-7.94,7.878-12.935,10.427c-2.973,2.033-3.365,6.267-0.819,8.813l0.099,0.099c0.033,0.032,0.068,0.059,0.102,0.089
				l2.859-2.86C27.294,82.182,27,81.629,27,81.003z"/>
		</g>
		<g>
			<path style="fill:#FFEEB6;" d="M78.203,51.08l-9.495-9.495L58.924,31.8c-1.062-1.062-2.785-1.062-3.848,0L35.797,51.08
				c-1.062,1.062-1.062,2.785,0,3.848l9.784,9.784l9.495,9.495c1.062,1.062,2.785,1.062,3.848,0l19.279-19.279
				C79.266,53.865,79.266,52.142,78.203,51.08z M59.414,69.418c-0.781,0.781-2.047,0.781-2.828,0l-7.855-7.856l-8.145-8.145
				c-0.781-0.781-0.781-2.047,0-2.828c0.781-0.781,2.047-0.781,2.828,0l8.145,8.145l7.855,7.855
				C60.195,67.37,60.195,68.637,59.414,69.418z M66.414,62.417c-0.781,0.781-2.047,0.781-2.828,0l-7.855-7.855l-8.145-8.145
				c-0.781-0.781-0.781-2.047,0-2.828c0.781-0.781,2.047-0.781,2.828,0l8.145,8.145l7.856,7.855
				C67.195,60.37,67.195,61.637,66.414,62.417z M73.414,55.417c-0.781,0.781-2.047,0.781-2.828,0l-7.855-7.855l-8.145-8.145
				c-0.781-0.781-0.781-2.047,0-2.828c0.781-0.781,2.047-0.781,2.828,0l8.144,8.145l7.856,7.855
				C74.195,53.37,74.195,54.637,73.414,55.417z"/>
		</g>
		<g>
			<path style="fill:#FFF5D9;" d="M55.076,31.8L35.797,51.08c-1.062,1.062-1.062,2.785,0,3.848l9.784,9.784l3.149-3.149
				l-8.145-8.145c-0.781-0.781-0.781-2.047,0-2.828c0.781-0.782,2.047-0.782,2.828,0l8.145,8.145l4.172-4.172l-8.145-8.145
				c-0.781-0.781-0.781-2.047,0-2.828c0.781-0.782,2.047-0.782,2.828,0l8.145,8.145l4.172-4.172l-8.145-8.145
				c-0.781-0.781-0.781-2.047,0-2.828c0.781-0.782,2.047-0.782,2.828,0l8.144,8.145l3.149-3.149L58.924,31.8
				C57.861,30.738,56.139,30.738,55.076,31.8z"/>
		</g>
		<g>
			<path style="fill:#FFD75E;" d="M59.414,66.589l-7.855-7.855l-8.145-8.145c-0.781-0.781-2.047-0.781-2.828,0
				c-0.781,0.781-0.781,2.047,0,2.828l8.145,8.145l7.855,7.856c0.781,0.781,2.047,0.781,2.828,0
				C60.195,68.637,60.195,67.37,59.414,66.589z"/>
		</g>
		<g>
			<path style="fill:#FFD75E;" d="M66.414,59.589l-7.856-7.855l-8.145-8.145c-0.781-0.781-2.047-0.781-2.828,0
				c-0.781,0.781-0.781,2.047,0,2.828l8.145,8.145l7.855,7.855c0.781,0.781,2.047,0.781,2.828,0
				C67.195,61.637,67.195,60.37,66.414,59.589z"/>
		</g>
		<g>
			<path style="fill:#FFD75E;" d="M73.414,52.589l-7.856-7.855l-8.144-8.145c-0.781-0.781-2.047-0.781-2.828,0
				c-0.781,0.781-0.781,2.047,0,2.828l8.145,8.145l7.855,7.855c0.781,0.781,2.047,0.781,2.828,0
				C74.195,54.637,74.195,53.37,73.414,52.589z"/>
		</g>
	</g>
</g>
</svg>
