<?xml version="1.0" encoding="iso-8859-1"?>
<!-- Generator: Adobe Illustrator 17.1.0, SVG Export Plug-In . SVG Version: 6.00 Build 0)  -->
<!DOCTYPE svg PUBLIC "-//W3C//DTD SVG 1.0//EN" "http://www.w3.org/TR/2001/REC-SVG-20010904/DTD/svg10.dtd">
<svg version="1.0" xmlns="http://www.w3.org/2000/svg" xmlns:xlink="http://www.w3.org/1999/xlink" x="0px" y="0px" width="110px"
	 height="110px" viewBox="0 0 110 110" style="enable-background:new 0 0 110 110;" xml:space="preserve">
<g id="Artboard">
</g>
<g id="Multicolor">
	<circle style="fill:#25B7D3;" cx="55" cy="55" r="55"/>
	<g>
		<g>
			<path style="fill:#E2E4E5;" d="M83.88,34.258c-19.253-4.344-38.506-4.344-57.759,0C24.295,34.67,23,36.284,23,38.156v22.18
				c0,1.958,2.085,4.253,4,4.663c14,3,16,14,23,14h5h5c7,0,9-11,23-14c1.915-0.41,4-2.705,4-4.663V38.156
				C87,36.288,85.702,34.669,83.88,34.258z"/>
		</g>
		<path style="fill:#FFFFFF;" d="M83.88,34.258c-19.253-4.344-38.506-4.344-57.759,0C24.295,34.67,23,36.284,23,38.156v10
			c0-1.872,1.295-3.486,3.121-3.898c6.817-1.538,13.634-2.52,20.45-2.969L43,72c0,1.385,0.408,2.673,1.102,3.76
			C45.57,77.74,47.914,79,50.516,79h8.969c2.598,0,4.932-1.249,6.399-3.216C66.587,74.692,67,73.396,67,72l-4.292-30.762
			c7.057,0.425,14.115,1.427,21.172,3.02C85.702,44.669,87,46.288,87,48.156v-10C87,36.288,85.702,34.669,83.88,34.258z"/>
	</g>
</g>
</svg>
