<?xml version="1.0" encoding="iso-8859-1"?>
<!-- Generator: Adobe Illustrator 17.1.0, SVG Export Plug-In . SVG Version: 6.00 Build 0)  -->
<!DOCTYPE svg PUBLIC "-//W3C//DTD SVG 1.0//EN" "http://www.w3.org/TR/2001/REC-SVG-20010904/DTD/svg10.dtd">
<svg version="1.0" xmlns="http://www.w3.org/2000/svg" xmlns:xlink="http://www.w3.org/1999/xlink" x="0px" y="0px" width="110px"
	 height="110px" viewBox="0 0 110 110" style="enable-background:new 0 0 110 110;" xml:space="preserve">
<g id="Artboard">
</g>
<g id="Multicolor">
	<circle style="fill:#32BEA6;" cx="55" cy="55" r="55"/>
	<g>
		<path style="fill:#DF2C2C;" d="M77.855,29.851C77.348,28.159,75.79,27,74.024,27H55H35.976c-1.766,0-3.324,1.159-3.831,2.851
			L27,47h12l2.027-5.404C41.612,40.034,43.105,39,44.772,39h20.456c1.667,0,3.16,1.034,3.745,2.596L71,47h12L77.855,29.851z"/>
		<path style="fill:#BF0302;" d="M79,51H31l-7.692,18.462c-0.514,1.235-0.378,2.644,0.364,3.757C24.414,74.332,25.663,75,27,75h56
			c1.337,0,2.586-0.668,3.328-1.781c0.742-1.113,0.878-2.523,0.364-3.757L79,51z"/>
		<path style="fill:#FA5655;" d="M84.979,65.35L79,51H31l-5.979,14.35c0.715,1.03,1.888,1.65,3.146,1.65h53.667
			C83.091,67,84.264,66.381,84.979,65.35z"/>
		<path style="fill:#BF0302;" d="M71,47h12v10c0,1.105-0.895,2-2,2h-8c-1.105,0-2-0.895-2-2V47z"/>
		<path style="fill:#BF0302;" d="M39,47H27v10c0,1.105,0.895,2,2,2h8c1.105,0,2-0.895,2-2V47z"/>
		<path style="fill:#3E3E3F;" d="M35,59h-4v4c0,1,4,1,4,0V59z"/>
		<path style="fill:#3E3E3F;" d="M79,59h-4v4c0,1,4,1,4,0V59z"/>
		<path style="fill:#FA5655;" d="M77.855,29.851C77.348,28.159,75.79,27,74.024,27H35.976c-1.766,0-3.324,1.159-3.831,2.851L27,47
			h12l2.027-5.404C41.612,40.034,43.104,39,44.772,39h20.456c1.241,0,2.384,0.574,3.129,1.511l9.766-9.766L77.855,29.851z"/>
	</g>
</g>
</svg>
