<?xml version="1.0" encoding="iso-8859-1"?>
<!-- Generator: Adobe Illustrator 17.1.0, SVG Export Plug-In . SVG Version: 6.00 Build 0)  -->
<!DOCTYPE svg PUBLIC "-//W3C//DTD SVG 1.0//EN" "http://www.w3.org/TR/2001/REC-SVG-20010904/DTD/svg10.dtd">
<svg version="1.0" xmlns="http://www.w3.org/2000/svg" xmlns:xlink="http://www.w3.org/1999/xlink" x="0px" y="0px" width="110px"
	 height="110px" viewBox="0 0 110 110" style="enable-background:new 0 0 110 110;" xml:space="preserve">
<g id="Artboard">
</g>
<g id="Multicolor">
	<circle style="fill:#E04F5F;" cx="55" cy="55" r="55"/>
	<g>
		<path style="fill:#F0F1F1;" d="M67,31c-9.941,0-18,8.059-18,18c0,9.941,8.059,18,18,18s18-8.059,18-18C85,39.059,76.941,31,67,31z
			 M67,57c-4.418,0-8-3.582-8-8s3.582-8,8-8s8,3.582,8,8S71.418,57,67,57z"/>
		<path style="fill:#F3B607;" d="M86.951,49c0-1.105-0.895-2-2-2H72.029c-0.664,0-1.285,0.33-1.657,0.88
			C68.104,51.231,64.951,63,48.951,63c-13.167,0-18.207-10.836-19.579-14.673C29.087,47.532,28.333,47,27.488,47H25
			c-0.548,0-1.072,0.225-1.449,0.622c-0.378,0.397-0.575,0.932-0.548,1.479c0.522,10.492,4.928,18.08,10.341,25.117
			C33.722,74.71,34.31,75,34.93,75h44.021c4.418,0,8-3.582,8-8V49z"/>
		<path style="fill:#FFFFFF;" d="M67,31c-6.496,0-11.086,3.757-10.085,3.09L26.839,47h0.649c0.845,0,1.599,0.532,1.883,1.327
			c0.077,0.214,0.167,0.453,0.267,0.708l22.159-9.644C50.035,42.174,49,45.463,49,49c0,4.848,1.926,9.239,5.043,12.476l7.071-7.071
			C59.805,52.98,59,51.086,59,49c0-4.418,3.582-8,8-8c2.086,0,3.98,0.805,5.404,2.114l7.071-7.071C76.239,32.926,71.848,31,67,31z"
			/>
		<path style="fill:#FACB1B;" d="M29.372,48.327C29.087,47.532,28.333,47,27.488,47H25c-0.548,0-1.072,0.225-1.449,0.622
			c-0.378,0.397-0.576,0.932-0.548,1.479c0.521,10.492,4.928,18.08,10.341,25.117C33.722,74.71,34.31,75,34.93,75h5.588l12.25-12.25
			C51.583,62.908,50.317,63,48.951,63C35.784,63,30.744,52.164,29.372,48.327z"/>
	</g>
</g>
</svg>
