<?xml version="1.0" encoding="iso-8859-1"?>
<!-- Generator: Adobe Illustrator 17.1.0, SVG Export Plug-In . SVG Version: 6.00 Build 0)  -->
<!DOCTYPE svg PUBLIC "-//W3C//DTD SVG 1.0//EN" "http://www.w3.org/TR/2001/REC-SVG-20010904/DTD/svg10.dtd">
<svg version="1.0" xmlns="http://www.w3.org/2000/svg" xmlns:xlink="http://www.w3.org/1999/xlink" x="0px" y="0px" width="110px"
	 height="110px" viewBox="0 0 110 110" style="enable-background:new 0 0 110 110;" xml:space="preserve">
<g id="Artboard">
</g>
<g id="Multicolor">
	<circle style="fill:#25B7D3;" cx="55" cy="55" r="55"/>
	<g>
		<path style="fill:#6FDAF1;" d="M79.18,85.199C79.078,86.221,78.218,87,77.19,87H32.81c-1.028,0-1.888-0.779-1.99-1.801L27,48h56
			L79.18,85.199z"/>
		<path style="fill:#9CE5F4;" d="M32.125,86.875L72,48H27l3.82,37.199C30.899,85.982,31.422,86.619,32.125,86.875z"/>
		<path style="fill:#FFFFFF;" d="M87,42v4c0,1.1-0.9,2-2,2H25c-1.1,0-2-0.9-2-2v-4c0-0.21,0.03-0.42,0.1-0.63l3.44-8
			c0.28-0.82,1.04-1.37,1.9-1.37h53.12c0.86,0,1.62,0.55,1.9,1.37l3.44,8C86.97,41.58,87,41.79,87,42z"/>
		<path style="fill:#F0F1F1;" d="M87,42c0,0.41-0.13,0.83-0.38,1.17C86.25,43.69,85.64,44,85,44H25c-1.111,0-2-0.905-2-2
			c0-0.21,0.03-0.42,0.1-0.63l3.44-8c0.28-0.82,1.04-1.37,1.9-1.37h53.12c0.86,0,1.62,0.55,1.9,1.37l3.44,8
			C86.97,41.58,87,41.79,87,42z"/>
		<path style="fill:#5B5C5F;" d="M75,40c0,1.1-0.9,2-2,2H37c-1.1,0-2-0.9-2-2l0,0c0-1.1,0.9-2,2-2h36C74.1,38,75,38.9,75,40L75,40z"
			/>
		<rect x="39" y="23" style="fill:#FFFFFF;" width="32" height="17"/>
		<ellipse style="fill:#FA5655;" cx="81" cy="40.5" rx="2" ry="1.5"/>
		<g>
			<rect x="43" y="48" style="fill:#FFFFFF;" width="4" height="20"/>
		</g>
		<g>
			<path style="fill:#FFFFFF;" d="M52,48h-4c2.667,6.667,2.667,13.333,0,20h4C54.667,61.333,54.667,54.667,52,48z"/>
		</g>
		<g>
			<path style="fill:#FFFFFF;" d="M33.894,67.789l-1.789-3.578C34.877,62.826,39,58.43,39,52v-4h4v4
				C43,59.72,38.28,65.596,33.894,67.789z"/>
		</g>
		<g>
			<rect x="63" y="48" style="fill:#C9F2F8;" width="4" height="20"/>
		</g>
		<polygon style="fill:#FFFFFF;" points="67,52.875 67,48 63,48 63,56.774 		"/>
		<g>
			<path style="fill:#C9F2F8;" d="M58,48h4c-2.667,6.667-2.667,13.333,0,20h-4C55.334,61.333,55.334,54.667,58,48z"/>
		</g>
		<path style="fill:#FFFFFF;" d="M56.521,63.091l3.54-3.451C59.806,55.76,60.448,51.88,62,48h-4
			C55.988,53.03,55.496,58.061,56.521,63.091z"/>
		<g>
			<path style="fill:#C9F2F8;" d="M76.106,67.789l1.789-3.578C75.123,62.826,71,58.43,71,52v-4h-4v4
				C67,59.72,71.72,65.596,76.106,67.789z"/>
		</g>
		<path style="fill:#FFFFFF;" d="M67.032,52.843L71,48.975V48h-4v4C67,52.286,67.02,52.563,67.032,52.843z"/>
	</g>
</g>
</svg>
