<?xml version="1.0" encoding="iso-8859-1"?>
<!-- Generator: Adobe Illustrator 17.1.0, SVG Export Plug-In . SVG Version: 6.00 Build 0)  -->
<!DOCTYPE svg PUBLIC "-//W3C//DTD SVG 1.0//EN" "http://www.w3.org/TR/2001/REC-SVG-20010904/DTD/svg10.dtd">
<svg version="1.0" xmlns="http://www.w3.org/2000/svg" xmlns:xlink="http://www.w3.org/1999/xlink" x="0px" y="0px" width="110px"
	 height="110px" viewBox="0 0 110 110" style="enable-background:new 0 0 110 110;" xml:space="preserve">
<g id="Artboard">
</g>
<g id="Multicolor">
	<circle style="fill:#25B7D3;" cx="55" cy="55" r="55"/>
	<g>
		<path style="fill:#DF2C2C;" d="M55,35L31,83c0,0,4,4,24,4s24-4,24-4L55,35z"/>
		<g>
			<polygon style="fill:#FFFFFF;" points="59.293,43.599 47.221,50.569 42.352,60.309 61.982,48.975 			"/>
		</g>
		<g>
			<polygon style="fill:#FFFFFF;" points="64.961,54.935 36.954,71.105 32.083,80.845 67.649,60.311 			"/>
		</g>
		<g>
			<path style="fill:#FFFFFF;" d="M70.726,66.464L37.667,85.551c2.398,0.52,5.606,0.986,9.843,1.245L73.414,71.84L70.726,66.464z"/>
		</g>
		<g>
			<path style="fill:#FA5655;" d="M55.25,35.5L55,35L31,83c0,0,4,4,24,4c0.085,0,0.165-0.001,0.25-0.001V35.5z"/>
		</g>
		<g>
			<polygon style="fill:#F0F1F1;" points="59.293,43.599 47.221,50.569 42.352,60.309 61.982,48.975 			"/>
		</g>
		<g>
			<polygon style="fill:#FFFFFF;" points="55.25,45.934 47.221,50.569 42.352,60.309 55.25,52.862 			"/>
		</g>
		<g>
			<polygon style="fill:#F0F1F1;" points="64.961,54.935 36.954,71.105 32.083,80.845 67.649,60.311 			"/>
		</g>
		<g>
			<polygon style="fill:#FFFFFF;" points="55.25,60.542 36.954,71.105 32.083,80.845 55.25,67.469 			"/>
		</g>
		<g>
			<path style="fill:#F0F1F1;" d="M70.726,66.464L37.667,85.551c2.398,0.52,5.606,0.986,9.843,1.245L73.414,71.84L70.726,66.464z"/>
		</g>
		<g>
			<path style="fill:#FFFFFF;" d="M55.25,75.399L37.667,85.551c2.398,0.52,5.606,0.986,9.843,1.245l7.74-4.469V75.399z"/>
		</g>
		<g>
			<path style="fill:#F0F1F1;" d="M76.471,77.953l-15.452,8.921C75.82,86.178,79,83.011,79,83.011L76.471,77.953z"/>
		</g>
		<g>
			<path style="fill:#FACB1B;" d="M65,33.858c0-0.292-0.127-0.569-0.349-0.759c-0.221-0.19-0.515-0.274-0.803-0.229l-5.893,0.907
				l4.809-3.526c0.235-0.173,0.383-0.439,0.406-0.73c0.022-0.291-0.084-0.577-0.29-0.783l-1.615-1.615
				c-0.206-0.206-0.492-0.312-0.783-0.29c-0.291,0.022-0.558,0.17-0.73,0.406l-3.527,4.809l0.907-5.894
				c0.044-0.288-0.039-0.582-0.229-0.803S56.434,25,56.142,25h-2.284c-0.292,0-0.569,0.127-0.759,0.349s-0.274,0.515-0.229,0.803
				l0.907,5.893l-3.526-4.808c-0.173-0.235-0.439-0.383-0.73-0.406c-0.291-0.022-0.577,0.084-0.783,0.29l-1.615,1.615
				c-0.206,0.206-0.312,0.492-0.29,0.783c0.022,0.291,0.17,0.558,0.406,0.73l4.809,3.526l-5.894-0.907
				c-0.288-0.044-0.582,0.039-0.803,0.229S45,33.566,45,33.858v2.284c0,0.292,0.127,0.569,0.349,0.759s0.515,0.274,0.803,0.229
				l5.894-0.907l-4.809,3.526c-0.235,0.173-0.383,0.439-0.406,0.73c-0.022,0.291,0.084,0.577,0.29,0.783l1.615,1.615
				c0.206,0.206,0.492,0.312,0.783,0.29c0.291-0.022,0.558-0.17,0.73-0.406l3.526-4.808l-0.907,5.893
				c-0.044,0.288,0.039,0.582,0.229,0.803S53.566,45,53.858,45h2.284c0.292,0,0.569-0.127,0.759-0.349
				c0.19-0.221,0.274-0.515,0.229-0.803l-0.907-5.894l3.527,4.809c0.173,0.235,0.439,0.383,0.73,0.406
				c0.291,0.022,0.577-0.084,0.783-0.29l1.615-1.615c0.206-0.206,0.312-0.492,0.29-0.783c-0.022-0.291-0.17-0.558-0.406-0.73
				l-4.809-3.526l5.893,0.907c0.288,0.044,0.582-0.039,0.803-0.229C64.873,36.711,65,36.434,65,36.142V33.858z"/>
		</g>
	</g>
</g>
</svg>
