<?xml version="1.0" encoding="iso-8859-1"?>
<!-- Generator: Adobe Illustrator 17.1.0, SVG Export Plug-In . SVG Version: 6.00 Build 0)  -->
<!DOCTYPE svg PUBLIC "-//W3C//DTD SVG 1.0//EN" "http://www.w3.org/TR/2001/REC-SVG-20010904/DTD/svg10.dtd">
<svg version="1.0" xmlns="http://www.w3.org/2000/svg" xmlns:xlink="http://www.w3.org/1999/xlink" x="0px" y="0px" width="110px"
	 height="110px" viewBox="0 0 110 110" style="enable-background:new 0 0 110 110;" xml:space="preserve">
<g id="Artboard">
</g>
<g id="Multicolor">
	<circle style="fill:#FABC3D;" cx="55" cy="55" r="55"/>
	<g>
		<g>
			<path style="fill:#FA5655;" d="M35.91,69.809c-2.8-1.024-5.203-2.19-7.262-3.369l-0.586,13.341l9.336-9.469
				C36.901,70.147,36.403,69.99,35.91,69.809z"/>
		</g>
		<g>
			<path style="fill:#059BBF;" d="M42.658,71.763L45.736,85l6.614-11.939C49.113,72.887,45.869,72.473,42.658,71.763z"/>
		</g>
		<g>
			<path style="fill:#099686;" d="M60.39,73.032l5.679,11.906l3.883-13.042C66.837,72.44,63.636,72.838,60.39,73.032z"/>
		</g>
		<g>
			<path style="fill:#DF2C2C;" d="M74.193,71.059l6.876,10.732l2.185-13.155C80.384,69.533,77.349,70.363,74.193,71.059z"/>
		</g>
		<g>
			<g>
				<path style="fill:#84462D;" d="M87,65.289v2.11c-8.88,3.1-19.81,5.77-31.02,5.77c-11.741,0-23.872-3.123-32.98-10.59v-2.69
					c0.14,0.12,0.28,0.25,0.43,0.38c0.01,0.01,0.01,0.01,0.02,0.02C30.16,66.099,49.96,78.449,87,65.289z"/>
			</g>
		</g>
		<g>
			<path style="fill:#DF2C2C;" d="M26.533,36.157l1.761,13.303l7.485-10.876C32.809,38.086,29.725,37.294,26.533,36.157z"/>
		</g>
		<g>
			<path style="fill:#059BBF;" d="M43.85,39.279c-0.483,0-0.977-0.022-1.468-0.037L47,51.249l4.871-12.663
				C49.334,39.023,46.66,39.279,43.85,39.279z"/>
		</g>
		<g>
			<path style="fill:#059BBF;" d="M58.389,36.99l9.572,9.484l-0.739-13.254C64.61,34.628,61.657,35.945,58.389,36.99z"/>
		</g>
		<g>
			<path style="fill:#099686;" d="M78.953,24.753c-1.481,1.414-3.849,3.473-7.004,5.604l10.476,6.537L78.953,24.753z"/>
		</g>
		<g>
			<g>
				<path style="fill:#84462D;" d="M80.45,23.249c-2.2,2.36-15.8,16.03-36.6,16.03c-6.33,0-13.31-1.27-20.85-4.49v-2.19
					c28.5,12.68,48.95-3.87,54.64-9.35H80.45z"/>
			</g>
		</g>
		<g>
			<path style="fill:#099686;" d="M42.228,58.996l6.975,10.794l2.08-12.831C48.223,57.796,45.185,58.47,42.228,58.996z"/>
		</g>
		<g>
			<path style="fill:#059BBF;" d="M58.013,54.86l9.25,9.735l-0.341-13.409C64.019,52.575,61.03,53.799,58.013,54.86z"/>
		</g>
		<g>
			<path style="fill:#FA5655;" d="M70.935,49.124l10.222,8.419l-2.038-13.73C76.556,45.767,73.809,47.538,70.935,49.124z"/>
		</g>
		<g>
			<g>
				<path style="fill:#84462D;" d="M87,33.299v3.16c-15.65,18.22-46.6,24.98-63.55,23.83c-0.15-0.01-0.3-0.02-0.45-0.03v-2
					C29.63,58.339,68.58,57.649,87,33.299z"/>
			</g>
		</g>
		<g>
			<path style="fill:#12B2A0;" d="M78.953,24.753c-1.481,1.414-3.849,3.473-7.004,5.604l3.6,2.246l4.393-4.393L78.953,24.753z"/>
		</g>
		<g>
			<path style="fill:#21B2D1;" d="M67.222,33.219c-2.612,1.409-5.565,2.725-8.833,3.77l3.335,3.305l5.581-5.581L67.222,33.219z"/>
		</g>
		<g>
			<path style="fill:#21B2D1;" d="M43.85,39.279c-0.483,0-0.977-0.022-1.468-0.037l1.814,4.716l4.997-4.997
				C47.468,39.16,45.692,39.279,43.85,39.279z"/>
		</g>
		<g>
			<path style="fill:#FA5655;" d="M26.533,36.157l1.075,8.119l6.09-6.09C31.374,37.697,28.986,37.031,26.533,36.157z"/>
		</g>
		<g>
			<path style="fill:#059BBF;" d="M26.141,60.397l6.099,11.381l2.917-11.792C31.933,60.315,28.897,60.448,26.141,60.397z"/>
		</g>
	</g>
</g>
</svg>
