<?xml version="1.0" encoding="iso-8859-1"?>
<!-- Generator: Adobe Illustrator 17.1.0, SVG Export Plug-In . SVG Version: 6.00 Build 0)  -->
<!DOCTYPE svg PUBLIC "-//W3C//DTD SVG 1.0//EN" "http://www.w3.org/TR/2001/REC-SVG-20010904/DTD/svg10.dtd">
<svg version="1.0" xmlns="http://www.w3.org/2000/svg" xmlns:xlink="http://www.w3.org/1999/xlink" x="0px" y="0px" width="110px"
	 height="110px" viewBox="0 0 110 110" style="enable-background:new 0 0 110 110;" xml:space="preserve">
<g id="Artboard">
</g>
<g id="Multicolor">
	<circle style="fill:#FABC3D;" cx="55" cy="55" r="55"/>
	<g>
		<g>
			<path style="fill:#FFFFFF;" d="M79,76.987c0,1.105-0.895,2-2,2H67v-48h10c1.105,0,2,0.895,2,2V76.987z"/>
		</g>
		<g>
			<rect x="67" y="38" style="fill:#E2E4E5;" width="8" height="12"/>
		</g>
		<g>
			<path style="fill:#B6BCBD;" d="M75,50h-8V39.15c0.32-0.1,0.65-0.15,1-0.15c1.93,0,3.5,1.57,3.5,3.5c0,1.19-0.59,2.23-1.5,2.87
				v0.66C72.29,46.24,75,47.08,75,50z"/>
		</g>
		<g>
			<path style="fill:#0484AB;" d="M67,28.003v54.02c0,1.22-0.55,2.36-1.5,3.12c-0.94,0.76-2.18,1.05-3.37,0.79l-28-6.22
				c-1.83-0.41-3.13-2.03-3.13-3.91v-41.58c0-1.88,1.3-3.5,3.13-3.91l28-6.22c1.19-0.26,2.43,0.03,3.37,0.79
				C66.45,25.643,67,26.783,67,28.003z"/>
		</g>
		<g>
			<rect x="67" y="53.987" style="fill:#E2E4E5;" width="8" height="1"/>
		</g>
		<g>
			<rect x="67" y="57.987" style="fill:#E2E4E5;" width="8" height="1"/>
		</g>
		<g>
			<rect x="67" y="61.987" style="fill:#E2E4E5;" width="5" height="1"/>
		</g>
		<g>
			<rect x="67" y="66" style="fill:#E2E4E5;" width="5" height="1"/>
		</g>
		<g>
			<path style="fill:#059BBF;" d="M65.542,24.898c-0.015-0.013-0.026-0.029-0.042-0.042c-0.94-0.76-2.18-1.05-3.37-0.79l-28,6.22
				c-1.83,0.41-3.13,2.03-3.13,3.91V59.44L65.542,24.898z"/>
		</g>
		<g>
			<g>
				<path style="fill:#FFFFFF;" d="M42.704,48.601c-1.963,0.124-2.945,0.186-4.908,0.311c0.089-2.746,0.948-5.332,2.333-7.613
					c1.72-0.275,2.58-0.414,4.3-0.689C43.393,43.129,42.776,45.808,42.704,48.601z"/>
			</g>
			<g>
				<path style="fill:#FFFFFF;" d="M44.43,57.5c-1.72-0.082-2.58-0.123-4.3-0.205c-1.386-2.125-2.244-4.614-2.333-7.35
					c1.963-0.097,2.945-0.146,4.908-0.243C42.776,52.488,43.393,55.097,44.43,57.5z"/>
			</g>
			<g>
				<path style="fill:#FFFFFF;" d="M47.747,62.897c-2.566-0.516-4.989-2.166-6.822-4.487c1.62,0.1,2.43,0.149,4.05,0.249
					C45.735,60.18,46.674,61.607,47.747,62.897z"/>
			</g>
			<g>
				<path style="fill:#FFFFFF;" d="M44.975,39.389c-1.62,0.282-2.43,0.423-4.05,0.705c1.627-2.244,4.005-4.359,6.813-5.241
					C46.674,36.25,45.735,37.783,44.975,39.389z"/>
			</g>
			<g>
				<path style="fill:#FFFFFF;" d="M48.06,35.97c0,1.153,0,1.729,0,2.882c-0.801,0.14-1.202,0.209-2.003,0.349
					C46.638,38.066,47.309,36.985,48.06,35.97z"/>
			</g>
			<g>
				<path style="fill:#FFFFFF;" d="M48.06,40.028c0,3.294,0,4.94,0,8.234c-1.785,0.113-2.677,0.169-4.461,0.282
					c0.072-2.857,0.742-5.583,1.86-8.1C46.499,40.278,47.019,40.195,48.06,40.028z"/>
			</g>
			<g>
				<path style="fill:#FFFFFF;" d="M48.06,49.438c0,3.294,0,4.941,0,8.235c-1.041-0.049-1.561-0.074-2.602-0.124
					c-1.118-2.391-1.788-5.041-1.86-7.89C45.383,49.57,46.275,49.526,48.06,49.438z"/>
			</g>
			<g>
				<path style="fill:#FFFFFF;" d="M46.057,58.726c0.801,0.049,1.202,0.074,2.003,0.123c0,1.153,0,1.729,0,2.882
					C47.309,60.8,46.638,59.795,46.057,58.726z"/>
			</g>
			<g>
				<path style="fill:#FFFFFF;" d="M50.957,38.348c-0.801,0.14-1.202,0.209-2.003,0.349c0-1.165,0-1.748,0-2.913
					C49.705,36.496,50.375,37.354,50.957,38.348z"/>
			</g>
			<g>
				<path style="fill:#FFFFFF;" d="M48.954,58.904c0.801,0.049,1.202,0.074,2.003,0.123c-0.581,1.06-1.252,1.993-2.003,2.789
					C48.954,60.651,48.954,60.069,48.954,58.904z"/>
			</g>
			<g>
				<path style="fill:#FFFFFF;" d="M53.415,49.174c-0.072,3.205-0.742,6.208-1.86,8.666c-1.041-0.049-1.561-0.074-2.602-0.124
					c0-3.329,0-4.993,0-8.321C50.738,49.306,51.631,49.262,53.415,49.174z"/>
			</g>
			<g>
				<path style="fill:#FFFFFF;" d="M53.415,47.923c-1.785,0.113-2.677,0.169-4.462,0.282c0-3.329,0-4.993,0-8.321
					c1.041-0.167,1.561-0.25,2.602-0.417C52.673,41.799,53.344,44.727,53.415,47.923z"/>
			</g>
			<g>
				<path style="fill:#FFFFFF;" d="M49.267,34.502c2.566-0.331,4.989,0.632,6.822,2.952c-1.62,0.282-2.43,0.423-4.05,0.705
					C51.278,36.691,50.34,35.457,49.267,34.502z"/>
			</g>
			<g>
				<path style="fill:#FFFFFF;" d="M52.038,59.094c1.62,0.1,2.43,0.149,4.05,0.249c-1.743,2.403-4.148,3.762-6.813,3.709
					C50.34,61.987,51.278,60.647,52.038,59.094z"/>
			</g>
			<g>
				<path style="fill:#FFFFFF;" d="M59.218,48.887c-0.089,3.531-0.948,6.766-2.333,9.206c-1.72-0.082-2.58-0.123-4.3-0.205
					c1.037-2.541,1.654-5.56,1.726-8.759C56.273,49.033,57.254,48.984,59.218,48.887z"/>
			</g>
			<g>
				<path style="fill:#FFFFFF;" d="M54.309,47.867c-0.072-3.191-0.688-6.141-1.726-8.564c1.72-0.275,2.58-0.414,4.3-0.689
					c1.386,2.284,2.244,5.421,2.333,8.943C57.254,47.681,56.273,47.743,54.309,47.867z"/>
			</g>
		</g>
		<g>
			<g>
				<path style="fill:#FFFFFF;" d="M36,68.059c0.552,0.041,0.828,0.062,1.38,0.104c0.843,0.063,1.263,0.858,1.263,1.621
					c0,0.77-0.424,1.482-1.258,1.38c-0.205-0.025-0.307-0.038-0.512-0.062c0,0.492,0,0.738,0,1.23
					c-0.349-0.049-0.524-0.074-0.873-0.123C36,70.549,36,69.718,36,68.059z M37.38,70.211c0.526,0.062,0.526-1.006,0-1.049
					c-0.203-0.018-0.304-0.027-0.507-0.046c0,0.417,0,0.625,0,1.041C37.076,70.179,37.177,70.189,37.38,70.211z"/>
				<path style="fill:#FFFFFF;" d="M41.764,73.023c-0.375-0.053-0.562-0.08-0.936-0.132c-0.09-0.372-0.135-0.556-0.224-0.925
					c-0.369-0.047-0.553-0.071-0.922-0.118c-0.086,0.342-0.129,0.511-0.214,0.851c-0.375-0.053-0.562-0.079-0.936-0.132
					c0.482-1.658,0.723-2.504,1.204-4.227c0.318,0.024,0.477,0.036,0.794,0.06C41.024,70.215,41.271,71.14,41.764,73.023z
					 M40.394,70.941c-0.096-0.53-0.144-0.794-0.239-1.321c-0.01-0.001-0.014-0.001-0.024-0.002
					c-0.101,0.508-0.152,0.761-0.254,1.265C40.084,70.906,40.187,70.917,40.394,70.941z"/>
				<path style="fill:#FFFFFF;" d="M42.443,71.671c0.346,0.597,1.11,0.722,1.131,0.227c0.011-0.26-0.312-0.447-0.59-0.534
					c-0.551-0.171-1.063-0.699-1.063-1.566c0-0.891,0.615-1.314,1.248-1.267c0.42,0.031,0.824,0.217,1.18,0.837
					c-0.228,0.22-0.342,0.329-0.57,0.545c-0.361-0.555-0.999-0.566-0.995-0.054c0.002,0.214,0.194,0.377,0.459,0.475
					c0.597,0.22,1.228,0.57,1.19,1.722c-0.03,0.907-0.731,1.306-1.365,1.216c-0.414-0.059-0.853-0.401-1.175-0.988
					C42.112,72.04,42.222,71.918,42.443,71.671z"/>
				<path style="fill:#FFFFFF;" d="M45.311,72.016c0.346,0.62,1.11,0.746,1.131,0.231c0.011-0.271-0.312-0.464-0.59-0.553
					c-0.55-0.176-1.063-0.724-1.063-1.626c0-0.929,0.615-1.371,1.248-1.324c0.42,0.031,0.824,0.223,1.18,0.868
					c-0.228,0.229-0.342,0.343-0.57,0.569c-0.361-0.576-0.999-0.587-0.995-0.053c0.002,0.223,0.194,0.392,0.459,0.492
					c0.597,0.226,1.227,0.588,1.189,1.786c-0.03,0.944-0.731,1.363-1.365,1.273c-0.414-0.059-0.853-0.412-1.175-1.022
					C44.98,72.403,45.09,72.275,45.311,72.016z"/>
				<path style="fill:#FFFFFF;" d="M47.794,68.943c0.552,0.042,0.828,0.062,1.38,0.104c0.844,0.063,1.263,0.996,1.263,1.897
					c0,0.909-0.424,1.759-1.258,1.658c-0.205-0.025-0.307-0.038-0.512-0.062c0,0.583,0,0.875,0,1.458
					c-0.349-0.049-0.524-0.074-0.873-0.124C47.794,71.902,47.794,70.915,47.794,68.943z M49.174,71.473
					c0.526,0.062,0.526-1.201,0-1.242c-0.203-0.019-0.304-0.028-0.507-0.046c0,0.494,0,0.741,0,1.234
					C48.87,71.441,48.971,71.451,49.174,71.473z"/>
				<path style="fill:#FFFFFF;" d="M50.842,70.861c0-1.181,0.712-1.708,1.429-1.656c0.717,0.053,1.434,0.715,1.434,1.933
					c0,0.728,0,1.092,0,1.819c0,1.218-0.712,1.726-1.429,1.624c-0.716-0.102-1.433-0.791-1.433-1.966
					C50.842,71.914,50.842,71.562,50.842,70.861z M51.715,72.72c0,0.381,0.282,0.6,0.56,0.635s0.556-0.123,0.556-0.502
					c0-0.72,0-1.08,0-1.8c0-0.41-0.288-0.621-0.57-0.646c-0.273-0.024-0.546,0.156-0.546,0.538
					C51.715,71.655,51.715,72.01,51.715,72.72z"/>
				<path style="fill:#FFFFFF;" d="M55.323,73.212c-0.062-0.007-0.094-0.011-0.156-0.019c0,0.689,0,1.034,0,1.723
					c-0.353-0.05-0.53-0.075-0.882-0.125c0-2.144,0-3.217,0-5.361c0.552,0.041,0.828,0.062,1.38,0.104
					c0.712,0.053,1.272,0.627,1.282,1.918c0.008,1.017-0.259,1.575-0.678,1.735c0.376,0.799,0.565,1.202,0.941,2.018
					c-0.435-0.062-0.652-0.092-1.087-0.154C55.803,74.308,55.643,73.941,55.323,73.212z M55.679,72.069
					c0.551,0.058,0.551-1.198,0-1.248c-0.205-0.019-0.307-0.028-0.512-0.046c0,0.496,0,0.744,0,1.24
					C55.372,72.036,55.474,72.047,55.679,72.069z"/>
				<path style="fill:#FFFFFF;" d="M59.083,71.145c0,1.729,0,2.595,0,4.324c-0.353-0.05-0.529-0.075-0.882-0.125
					c0-1.712,0-2.568,0-4.28c-0.367-0.033-0.55-0.05-0.917-0.083c0-0.534,0-0.8,0-1.334c1.086,0.082,1.63,0.122,2.716,0.204
					c0,0.551,0,0.826,0,1.378C59.633,71.195,59.45,71.179,59.083,71.145z"/>
			</g>
		</g>
	</g>
</g>
</svg>
