<?xml version="1.0" encoding="iso-8859-1"?>
<!-- Generator: Adobe Illustrator 17.1.0, SVG Export Plug-In . SVG Version: 6.00 Build 0)  -->
<!DOCTYPE svg PUBLIC "-//W3C//DTD SVG 1.0//EN" "http://www.w3.org/TR/2001/REC-SVG-20010904/DTD/svg10.dtd">
<svg version="1.0" xmlns="http://www.w3.org/2000/svg" xmlns:xlink="http://www.w3.org/1999/xlink" x="0px" y="0px" width="110px"
	 height="110px" viewBox="0 0 110 110" style="enable-background:new 0 0 110 110;" xml:space="preserve">
<g id="Artboard">
</g>
<g id="Multicolor">
	<circle style="fill:#E04F5F;" cx="55" cy="55" r="55"/>
	<g>
		<g>
			<path style="fill:#FFFFFF;" d="M87,31c0-4.418-3.582-8-8-8H31c-4.418,0-8,3.582-8,8v48c0,4.418,3.582,8,8,8h48
				c4.418,0,8-3.582,8-8V31z"/>
		</g>
		<g>
			<path style="fill:#099686;" d="M83,31c0-2.209-1.791-4-4-4H31c-2.209,0-4,1.791-4,4v40c0,2.209,1.791,4,4,4h48
				c2.209,0,4-1.791,4-4V31z"/>
		</g>
		<g>
			<path style="fill:#12B2A0;" d="M79,27H31c-2.209,0-4,1.791-4,4v40c0,2.209,1.791,4,4,4h3.603l47.008-47.008
				C80.909,27.382,80.003,27,79,27z"/>
		</g>
		<g>
			<rect x="32" y="79" style="fill:#CFD3D4;" width="3" height="4"/>
		</g>
		<g>
			<rect x="38" y="79" style="fill:#CFD3D4;" width="3" height="4"/>
		</g>
		<g>
			<rect x="44" y="79" style="fill:#CFD3D4;" width="3" height="4"/>
		</g>
		<g>
			<circle style="fill:#FA5655;" cx="65" cy="81" r="2"/>
		</g>
		<g>
			<circle style="fill:#12B2A0;" cx="73" cy="81" r="2"/>
		</g>
		<g>
			<path style="fill:#C2FCF5;" d="M73.998,62.399C73,60.399,69,60.193,69,64.118c0.078,3.573,4.998,6.28,4.998,6.28
				s4.92-2.707,4.998-6.28C78.996,60.193,75,60.399,73.998,62.399z"/>
		</g>
		<g>
			<g>
				<polygon style="fill:#C2FCF5;" points="60.677,64.908 53.657,45.855 47.144,57.951 39.783,46.384 35.937,51 27,51 27,47 
					34.063,47 40.217,39.615 46.856,50.049 54.343,36.145 61.323,55.092 71.046,36.619 76.236,47 83,47 83,51 73.764,51 
					70.954,45.381 				"/>
			</g>
		</g>
	</g>
</g>
</svg>
