<?xml version="1.0" encoding="iso-8859-1"?>
<!-- Generator: Adobe Illustrator 17.1.0, SVG Export Plug-In . SVG Version: 6.00 Build 0)  -->
<!DOCTYPE svg PUBLIC "-//W3C//DTD SVG 1.0//EN" "http://www.w3.org/TR/2001/REC-SVG-20010904/DTD/svg10.dtd">
<svg version="1.0" xmlns="http://www.w3.org/2000/svg" xmlns:xlink="http://www.w3.org/1999/xlink" x="0px" y="0px" width="110px"
	 height="110px" viewBox="0 0 110 110" style="enable-background:new 0 0 110 110;" xml:space="preserve">
<g id="Artboard">
</g>
<g id="Multicolor">
	<circle style="fill:#FABC3D;" cx="55" cy="55" r="55"/>
	<g>
		<g>
			<path style="fill:#F0F1F1;" d="M55,23c-17.673,0-32,14.327-32,32s14.327,32,32,32s32-14.327,32-32S72.673,23,55,23z M79,55
				c0,4.144-1.05,8.042-2.899,11.444L59,49.343V31.338C70.35,33.243,79,43.109,79,55z M71.122,72.779
				c-3.324,3.016-7.5,5.107-12.122,5.883V60.657L71.122,72.779z M51,31.338v18.005L33.899,66.444C32.05,63.042,31,59.144,31,55
				C31,43.109,39.65,33.243,51,31.338z M51,60.657v18.005c-4.622-0.776-8.797-2.867-12.122-5.883L51,60.657z"/>
		</g>
		<g>
			<path style="fill:#FFFFFF;" d="M59,49.343V31.338c5.415,0.909,10.201,3.645,13.741,7.533l5.673-5.673
				C72.572,26.927,64.247,23,55,23c-17.673,0-32,14.327-32,32c0,9.247,3.927,17.572,10.198,23.414l27.437-27.437L59,49.343z
				 M51,49.343L33.899,66.444C32.05,63.042,31,59.144,31,55c0-11.892,8.65-21.757,20-23.662V49.343z"/>
		</g>
	</g>
</g>
</svg>
