<?xml version="1.0" encoding="iso-8859-1"?>
<!-- Generator: Adobe Illustrator 17.1.0, SVG Export Plug-In . SVG Version: 6.00 Build 0)  -->
<!DOCTYPE svg PUBLIC "-//W3C//DTD SVG 1.0//EN" "http://www.w3.org/TR/2001/REC-SVG-20010904/DTD/svg10.dtd">
<svg version="1.0" xmlns="http://www.w3.org/2000/svg" xmlns:xlink="http://www.w3.org/1999/xlink" x="0px" y="0px" width="110px"
	 height="110px" viewBox="0 0 110 110" style="enable-background:new 0 0 110 110;" xml:space="preserve">
<g id="Artboard" style="display:none;">
	
		<rect x="-968.5" y="-546.5" style="display:inline;fill:#808080;stroke:#000000;stroke-miterlimit:10;" width="1392" height="1369"/>
</g>
<g id="R-Multicolor">
	<circle style="fill:#E04F5F;" cx="55" cy="55" r="55"/>
	<g>
		<g>
			<path style="fill:#9C6144;" d="M55,31c1.117,0,2.11,0.109,3,0.315V25c0-1.104-0.895-2-2-2h-2c-1.104,0-2,0.896-2,2v6.348
				C52.905,31.123,53.898,31,55,31z"/>
		</g>
		<g>
			<path style="fill:#F3B607;" d="M81,70c0,13-13,17-26,17s-26-4-26-17s11.074-15.237,13.007-23C44,39,46,31,55,31s10,7,13,16
				C70.846,55.538,81,57,81,70z"/>
		</g>
		<g>
			<path style="fill:#FACB1B;" d="M42.007,47C40.074,54.763,29,57,29,70s13,17,26,17V31C46,31,44,39,42.007,47z"/>
		</g>
		<g>
			<path style="fill:#099686;" d="M74.869,30.948c6.584,5.464,6.975,15.854,6.975,15.854s-10.284,1.531-16.869-3.933
				S58,27.015,58,27.015S68.284,25.484,74.869,30.948z"/>
		</g>
		<g>
			<path style="fill:#12B2A0;" d="M58,27.015c0,0,10.284-1.531,16.869,3.933s6.975,15.854,6.975,15.854L58,27.015z"/>
		</g>
	</g>
</g>
<g id="Multicolor" style="display:none;">
	<g style="display:inline;">
		<g>
			<path style="fill:#9C6144;" d="M55,31c1.117,0,2.11,0.109,3,0.315V25c0-1.104-0.895-2-2-2h-2c-1.104,0-2,0.896-2,2v6.348
				C52.905,31.123,53.898,31,55,31z"/>
		</g>
		<g>
			<path style="fill:#F3B607;" d="M81,70c0,13-13,17-26,17s-26-4-26-17s11.074-15.237,13.007-23C44,39,46,31,55,31s10,7,13,16
				C70.846,55.538,81,57,81,70z"/>
		</g>
		<g>
			<path style="fill:#FACB1B;" d="M42.007,47C40.074,54.763,29,57,29,70s13,17,26,17V31C46,31,44,39,42.007,47z"/>
		</g>
		<g>
			<path style="fill:#099686;" d="M74.869,30.948c6.584,5.464,6.975,15.854,6.975,15.854s-10.284,1.531-16.869-3.933
				S58,27.015,58,27.015S68.284,25.484,74.869,30.948z"/>
		</g>
		<g>
			<path style="fill:#12B2A0;" d="M58,27.015c0,0,10.284-1.531,16.869,3.933s6.975,15.854,6.975,15.854L58,27.015z"/>
		</g>
	</g>
</g>
<g id="Blue" style="display:none;">
	<g style="display:inline;">
		<g>
			<path style="fill:#0C333D;" d="M55,31c1.117,0,2.11,0.109,3,0.315V25c0-1.104-0.896-2-2-2h-2c-1.104,0-2,0.896-2,2v6.348
				C52.904,31.123,53.898,31,55,31z"/>
		</g>
		<g>
			<path style="fill:#0081A1;" d="M81,70c0,13-13,17-26,17s-26-4-26-17s11.074-15.237,13.008-23C44,39,46,31,55,31s10,7,13,16
				C70.846,55.538,81,57,81,70z"/>
		</g>
		<g>
			<path style="fill:#009FC7;" d="M42.008,47C40.074,54.763,29,57,29,70s13,17,26,17V31C46,31,44,39,42.008,47z"/>
		</g>
		<g>
			<path style="fill:#BBE7F2;" d="M74.868,30.948c6.585,5.464,6.976,15.855,6.976,15.855s-10.285,1.531-16.869-3.933
				C58.391,37.406,58,27.015,58,27.015S68.284,25.484,74.868,30.948z"/>
		</g>
		<g>
			<path style="fill:#E1F5FA;" d="M58,27.015c0,0,10.284-1.531,16.868,3.933c6.585,5.464,6.976,15.855,6.976,15.855L58,27.015z"/>
		</g>
	</g>
</g>
<g id="R-Blue" style="display:none;">
	<circle style="display:inline;fill:#81D2EB;" cx="55" cy="55" r="55"/>
	<g style="display:inline;">
		<g>
			<path style="fill:#0C333D;" d="M55,31c1.117,0,2.11,0.109,3,0.315V25c0-1.104-0.896-2-2-2h-2c-1.104,0-2,0.896-2,2v6.348
				C52.904,31.123,53.898,31,55,31z"/>
		</g>
		<g>
			<path style="fill:#0081A1;" d="M81,70c0,13-13,17-26,17s-26-4-26-17s11.074-15.237,13.008-23C44,39,46,31,55,31s10,7,13,16
				C70.846,55.538,81,57,81,70z"/>
		</g>
		<g>
			<path style="fill:#009FC7;" d="M42.008,47C40.074,54.763,29,57,29,70s13,17,26,17V31C46,31,44,39,42.008,47z"/>
		</g>
		<g>
			<path style="fill:#BBE7F2;" d="M74.868,30.948c6.585,5.464,6.976,15.855,6.976,15.855s-10.285,1.531-16.869-3.933
				C58.391,37.406,58,27.015,58,27.015S68.284,25.484,74.868,30.948z"/>
		</g>
		<g>
			<path style="fill:#E1F5FA;" d="M58,27.015c0,0,10.284-1.531,16.868,3.933c6.585,5.464,6.976,15.855,6.976,15.855L58,27.015z"/>
		</g>
	</g>
</g>
<g id="Green" style="display:none;">
	<g style="display:inline;">
		<g>
			<path style="fill:#0A3631;" d="M55,31c1.117,0,2.11,0.109,3,0.315V25c0-1.104-0.896-2-2-2h-2c-1.104,0-2,0.896-2,2v6.348
				C52.904,31.123,53.898,31,55,31z"/>
		</g>
		<g>
			<path style="fill:#009687;" d="M81,70c0,13-13,17-26,17s-26-4-26-17s11.074-15.237,13.008-23C44,39,46,31,55,31s10,7,13,16
				C70.846,55.538,81,57,81,70z"/>
		</g>
		<g>
			<path style="fill:#00B8A5;" d="M42.008,47C40.074,54.763,29,57,29,70s13,17,26,17V31C46,31,44,39,42.008,47z"/>
		</g>
		<g>
			<path style="fill:#AAF0E9;" d="M74.868,30.948c6.585,5.464,6.976,15.855,6.976,15.855s-10.285,1.531-16.869-3.933
				C58.391,37.406,58,27.015,58,27.015S68.284,25.484,74.868,30.948z"/>
		</g>
		<g>
			<path style="fill:#D7FCF9;" d="M58,27.015c0,0,10.284-1.531,16.868,3.933c6.585,5.464,6.976,15.855,6.976,15.855L58,27.015z"/>
		</g>
	</g>
</g>
<g id="R-Green" style="display:none;">
	<circle style="display:inline;fill:#77E0C4;" cx="55" cy="55" r="55"/>
	<g style="display:inline;">
		<g>
			<path style="fill:#0A3631;" d="M55,31c1.117,0,2.11,0.109,3,0.315V25c0-1.104-0.896-2-2-2h-2c-1.104,0-2,0.896-2,2v6.348
				C52.904,31.123,53.898,31,55,31z"/>
		</g>
		<g>
			<path style="fill:#009687;" d="M81,70c0,13-13,17-26,17s-26-4-26-17s11.074-15.237,13.008-23C44,39,46,31,55,31s10,7,13,16
				C70.846,55.538,81,57,81,70z"/>
		</g>
		<g>
			<path style="fill:#00B8A5;" d="M42.008,47C40.074,54.763,29,57,29,70s13,17,26,17V31C46,31,44,39,42.008,47z"/>
		</g>
		<g>
			<path style="fill:#AAF0E9;" d="M74.868,30.948c6.585,5.464,6.975,15.855,6.975,15.855s-10.285,1.531-16.869-3.933
				C58.391,37.406,58,27.015,58,27.015S68.284,25.484,74.868,30.948z"/>
		</g>
		<g>
			<path style="fill:#D7FCF9;" d="M58,27.015c0,0,10.284-1.531,16.868,3.933c6.585,5.464,6.975,15.855,6.975,15.855L58,27.015z"/>
		</g>
	</g>
</g>
<g id="Red" style="display:none;">
	<g style="display:inline;">
		<g>
			<path style="fill:#4A1410;" d="M55,31c1.117,0,2.11,0.109,3,0.315V25c0-1.104-0.896-2-2-2h-2c-1.104,0-2,0.896-2,2v6.348
				C52.904,31.123,53.898,31,55,31z"/>
		</g>
		<g>
			<path style="fill:#C23023;" d="M81,70c0,13-13,17-26,17s-26-4-26-17s11.074-15.237,13.008-23C44,39,46,31,55,31s10,7,13,16
				C70.846,55.538,81,57,81,70z"/>
		</g>
		<g>
			<path style="fill:#E54B44;" d="M42.008,47C40.074,54.763,29,57,29,70s13,17,26,17V31C46,31,44,39,42.008,47z"/>
		</g>
		<g>
			<path style="fill:#FFD7D4;" d="M74.868,30.948c6.585,5.464,6.975,15.855,6.975,15.855s-10.285,1.531-16.869-3.933
				C58.391,37.406,58,27.015,58,27.015S68.284,25.484,74.868,30.948z"/>
		</g>
		<g>
			<path style="fill:#FFEFED;" d="M58,27.015c0,0,10.284-1.531,16.868,3.933c6.585,5.464,6.975,15.855,6.975,15.855L58,27.015z"/>
		</g>
	</g>
</g>
<g id="R-Red" style="display:none;">
	<circle style="display:inline;fill:#FABBAF;" cx="55" cy="55" r="55"/>
	<g style="display:inline;">
		<g>
			<path style="fill:#4A1410;" d="M55,31c1.117,0,2.11,0.109,3,0.315V25c0-1.104-0.896-2-2-2h-2c-1.104,0-2,0.896-2,2v6.348
				C52.904,31.123,53.898,31,55,31z"/>
		</g>
		<g>
			<path style="fill:#C23023;" d="M81,70c0,13-13,17-26,17s-26-4-26-17s11.074-15.237,13.008-23C44,39,46,31,55,31s10,7,13,16
				C70.846,55.538,81,57,81,70z"/>
		</g>
		<g>
			<path style="fill:#E54B44;" d="M42.008,47C40.074,54.763,29,57,29,70s13,17,26,17V31C46,31,44,39,42.008,47z"/>
		</g>
		<g>
			<path style="fill:#FFD7D4;" d="M74.868,30.948c6.585,5.464,6.975,15.855,6.975,15.855s-10.285,1.531-16.869-3.933
				C58.391,37.406,58,27.015,58,27.015S68.284,25.484,74.868,30.948z"/>
		</g>
		<g>
			<path style="fill:#FFEFED;" d="M58,27.015c0,0,10.284-1.531,16.868,3.933c6.585,5.464,6.975,15.855,6.975,15.855L58,27.015z"/>
		</g>
	</g>
</g>
<g id="Yellow" style="display:none;">
	<g style="display:inline;">
		<g>
			<path style="fill:#3D320C;" d="M55,31c1.117,0,2.11,0.109,3,0.315V25c0-1.104-0.896-2-2-2h-2c-1.104,0-2,0.896-2,2v6.348
				C52.904,31.123,53.898,31,55,31z"/>
		</g>
		<g>
			<path style="fill:#E07000;" d="M81,70c0,13-13,17-26,17s-26-4-26-17s11.074-15.237,13.008-23C44,39,46,31,55,31s10,7,13,16
				C70.846,55.538,81,57,81,70z"/>
		</g>
		<g>
			<path style="fill:#FA9200;" d="M42.008,47C40.074,54.763,29,57,29,70s13,17,26,17V31C46,31,44,39,42.008,47z"/>
		</g>
		<g>
			<path style="fill:#FFE9A1;" d="M74.868,30.948c6.585,5.464,6.975,15.855,6.975,15.855s-10.285,1.531-16.869-3.933
				C58.391,37.406,58,27.015,58,27.015S68.284,25.484,74.868,30.948z"/>
		</g>
		<g>
			<path style="fill:#FFF5D9;" d="M58,27.015c0,0,10.284-1.531,16.868,3.933c6.585,5.464,6.975,15.855,6.975,15.855L58,27.015z"/>
		</g>
	</g>
</g>
<g id="R-Yellow" style="display:none;">
	<circle style="display:inline;fill:#FFD75E;" cx="55" cy="55" r="55"/>
	<g style="display:inline;">
		<g>
			<path style="fill:#3D320C;" d="M55,31c1.117,0,2.11,0.109,3,0.315V25c0-1.104-0.896-2-2-2h-2c-1.104,0-2,0.896-2,2v6.348
				C52.904,31.123,53.898,31,55,31z"/>
		</g>
		<g>
			<path style="fill:#E07000;" d="M81,70c0,13-13,17-26,17s-26-4-26-17s11.074-15.237,13.008-23C44,39,46,31,55,31s10,7,13,16
				C70.846,55.538,81,57,81,70z"/>
		</g>
		<g>
			<path style="fill:#FA9200;" d="M42.008,47C40.074,54.763,29,57,29,70s13,17,26,17V31C46,31,44,39,42.008,47z"/>
		</g>
		<g>
			<path style="fill:#FFE9A1;" d="M74.868,30.948c6.585,5.464,6.976,15.855,6.976,15.855s-10.285,1.531-16.869-3.933
				C58.391,37.406,58,27.015,58,27.015S68.284,25.484,74.868,30.948z"/>
		</g>
		<g>
			<path style="fill:#FFF5D9;" d="M58,27.015c0,0,10.284-1.531,16.868,3.933c6.585,5.464,6.976,15.855,6.976,15.855L58,27.015z"/>
		</g>
	</g>
</g>
</svg>
