<?xml version="1.0" encoding="iso-8859-1"?>
<!-- Generator: Adobe Illustrator 17.1.0, SVG Export Plug-In . SVG Version: 6.00 Build 0)  -->
<!DOCTYPE svg PUBLIC "-//W3C//DTD SVG 1.0//EN" "http://www.w3.org/TR/2001/REC-SVG-20010904/DTD/svg10.dtd">
<svg version="1.0" xmlns="http://www.w3.org/2000/svg" xmlns:xlink="http://www.w3.org/1999/xlink" x="0px" y="0px" width="110px"
	 height="110px" viewBox="0 0 110 110" style="enable-background:new 0 0 110 110;" xml:space="preserve">
<g id="Artboard">
</g>
<g id="Multicolor">
	<circle style="fill:#32BEA6;" cx="55" cy="55" r="55"/>
	<g>
		<path style="fill:#DF2C2C;" d="M69.879,24.121c0.391-0.391,1.024-0.391,1.414,0l14.586,14.586c0.391,0.391,0.391,1.024,0,1.414
			L47.293,78.707c-0.391,0.391-1.024,0.391-1.414,0L31.293,64.121c-0.391-0.391-0.391-1.024,0-1.414L69.879,24.121z"/>
		<path style="fill:#FA5655;" d="M46.829,45.368l0.707-0.707c1.562-1.562,1.562-4.095,0-5.657l-0.001-0.001l5.813-5.813
			C54.75,31.788,56.652,31,58.635,31H63l4-4H56.979c-1.983,0-3.885,0.788-5.287,2.19L41.295,39.586l0,0.001l-0.125,0.124
			c-1.562,1.562-1.562,4.095,0,5.657C42.734,46.93,45.267,46.93,46.829,45.368z"/>
		<path style="fill:#BF0302;" d="M74.586,27.414l3.293-3.293c0.391-0.391,1.024-0.391,1.414,0l6.586,6.586
			c0.391,0.391,0.391,1.024,0,1.414l-3.293,3.293L74.586,27.414z"/>
		<polygon style="fill:#E2E4E5;" points="32.586,65.414 26.586,75.414 34.586,83.414 44.586,77.414 		"/>
		<path style="fill:#3E3E3F;" d="M28.586,77.414l-5.293,5.293c-0.391,0.391-0.391,1.024,0,1.414l2.586,2.586
			c0.391,0.391,1.024,0.391,1.414,0l5.293-5.293L28.586,77.414z"/>
		<path style="fill:#DF2C2C;" d="M79.293,24.121c-0.391-0.391-1.024-0.391-1.414,0l-3.293,3.293l4.113,4.113l4-4L79.293,24.121z"/>
		<path style="fill:#FA5655;" d="M71.293,24.121c-0.391-0.391-1.024-0.391-1.414,0L31.293,62.707c-0.391,0.391-0.391,1.024,0,1.414
			l7.405,7.406l40-40L71.293,24.121z"/>
		<polygon style="fill:#FFFFFF;" points="32.586,65.414 26.586,75.414 30.699,79.527 38.699,71.527 		"/>
	</g>
</g>
</svg>
