<?xml version="1.0" encoding="iso-8859-1"?>
<!-- Generator: Adobe Illustrator 17.1.0, SVG Export Plug-In . SVG Version: 6.00 Build 0)  -->
<!DOCTYPE svg PUBLIC "-//W3C//DTD SVG 1.0//EN" "http://www.w3.org/TR/2001/REC-SVG-20010904/DTD/svg10.dtd">
<svg version="1.0" xmlns="http://www.w3.org/2000/svg" xmlns:xlink="http://www.w3.org/1999/xlink" x="0px" y="0px" width="110px"
	 height="110px" viewBox="0 0 110 110" style="enable-background:new 0 0 110 110;" xml:space="preserve">
<g id="Artboard">
</g>
<g id="Multicolor">
	<circle style="fill:#25B7D3;" cx="55" cy="55" r="55"/>
	<g>
		<path style="fill:#FACB1B;" d="M37.804,82.962c-4.211,4.211-14.803,4.037-14.803,4.037s-0.174-10.591,4.037-14.803
			c4.211-4.211,9.42-5.831,13.008-2.243C43.635,73.542,42.015,78.75,37.804,82.962z"/>
		<path style="fill:#FBE158;" d="M27.038,72.196c-4.011,4.01-4.044,13.799-4.038,14.725l17.005-17.005
			C36.418,66.381,31.234,68.001,27.038,72.196z"/>
		<path style="fill:#DF2C2C;" d="M43.193,74.518l-7.743-7.743c6.541-18.052,15.09-29.712,23.314-36.323l20.501,20.501
			C72.596,59.119,60.962,67.68,43.193,74.518z"/>
		<path style="fill:#3E3E3F;" d="M79.265,50.952L58.764,30.452c10.2-8.213,19.917-8.65,24.66-3.907
			C88.193,31.313,87.556,40.816,79.265,50.952z"/>
		<path style="fill:#FA5655;" d="M58.764,30.45C50.54,37.061,41.991,48.721,35.45,66.773l3.83,3.829l29.818-29.819L58.764,30.45z"/>
		<path style="fill:#5B5C5F;" d="M58.764,30.45l10.334,10.334l14.281-14.281C78.62,21.805,68.934,22.262,58.764,30.45z"/>
	</g>
</g>
</svg>
