<?xml version="1.0" encoding="iso-8859-1"?>
<!-- Generator: Adobe Illustrator 17.1.0, SVG Export Plug-In . SVG Version: 6.00 Build 0)  -->
<!DOCTYPE svg PUBLIC "-//W3C//DTD SVG 1.0//EN" "http://www.w3.org/TR/2001/REC-SVG-20010904/DTD/svg10.dtd">
<svg version="1.0" xmlns="http://www.w3.org/2000/svg" xmlns:xlink="http://www.w3.org/1999/xlink" x="0px" y="0px" width="110px"
	 height="110px" viewBox="0 0 110 110" style="enable-background:new 0 0 110 110;" xml:space="preserve">
<g id="Artboard" style="display:none;">
	<rect x="-735" y="-71" style="display:inline;fill:#8C8C8C;" width="1412" height="743"/>
</g>
<g id="R-Multicolor">
	<circle style="fill:#32BEA6;" cx="55" cy="55" r="55"/>
	<g>
		<path style="fill:#F4D0A1;" d="M83.052,46.74L51.419,78.346c0,0-20.667,6.587-20.757,6.614c-0.331-1.324-1.008-2.57-2.033-3.595
			c-1.025-1.025-2.272-1.702-3.595-2.033c0.027-0.09,6.6-20.77,6.6-20.77s31.594-31.594,31.619-31.619L83.052,46.74z"/>
		<path style="fill:#F8E1C2;" d="M63.252,26.941c-0.025,0.025-31.619,31.619-31.619,31.619s-6.573,20.681-6.6,20.771
			c1.296,0.324,2.515,0.985,3.529,1.975L73.09,36.779L63.252,26.941z"/>
		<path style="fill:#F7B4B4;" d="M84.423,45.369l-1.414,1.414L63.21,26.984l1.414-1.414c3.125-3.125,8.188-3.125,11.314,0
			l8.485,8.485C87.549,37.18,87.549,42.243,84.423,45.369z"/>
		<path style="fill:#3E3E3F;" d="M30.662,84.959l-7.024,2.014c-0.175,0.05-0.363,0.001-0.491-0.127
			c-0.129-0.129-0.177-0.317-0.127-0.491l2.014-7.024c1.308,0.346,2.545,1.032,3.571,2.058
			C29.63,82.414,30.316,83.651,30.662,84.959z"/>
		
			<rect x="68.04" y="24.983" transform="matrix(0.7071 -0.7071 0.7071 0.7071 -6.7672 61.6293)" style="fill:#FACB1B;" width="5.94" height="28"/>
		<path style="fill:#059BBF;" d="M78.767,51.025l-27.16,27.16c-0.233,0.233-0.601,0.233-0.834,0
			c-0.219-0.219-0.283-0.552-0.163-0.841c0.629-1.464,0.354-3.21-0.835-4.398c-1.174-1.174-2.885-1.457-4.342-0.863
			c-0.281,0.128-0.681,0.083-0.955-0.191l-0.014-0.014c-0.248-0.248-0.332-0.629-0.191-0.955c0.594-1.457,0.311-3.168-0.863-4.342
			c-1.174-1.174-2.885-1.457-4.342-0.863c-0.325,0.142-0.707,0.057-0.955-0.191c-0.29-0.29-0.335-0.681-0.205-0.968
			c0.594-1.457,0.311-3.168-0.863-4.342c-1.188-1.188-2.934-1.464-4.398-0.835c-0.29,0.12-0.622,0.057-0.841-0.163
			c-0.233-0.233-0.233-0.601,0-0.834l27.16-27.16L78.767,51.025z"/>
		<path style="fill:#21B2D1;" d="M72.403,44.661L44.931,72.133c-0.17-0.028-0.332-0.12-0.453-0.241
			c-0.283-0.283-0.337-0.664-0.205-0.968c0.594-1.457,0.311-3.168-0.863-4.342c-1.174-1.174-2.885-1.457-4.342-0.863
			c-0.305,0.133-0.685,0.079-0.968-0.205c-0.12-0.12-0.212-0.283-0.241-0.453L65.331,37.59L72.403,44.661z"/>
		<path style="fill:#FBC8C8;" d="M75.938,25.569c-3.126-3.125-8.188-3.125-11.313,0l-1.415,1.415l9.837,9.837l7.071-7.071
			L75.938,25.569z"/>
	</g>
</g>
<g id="Multicolor" style="display:none;">
	<g style="display:inline;">
		<path style="fill:#F4D0A1;" d="M83.052,46.74L51.419,78.346c0,0-20.667,6.587-20.757,6.614c-0.331-1.324-1.008-2.57-2.033-3.595
			c-1.025-1.025-2.272-1.702-3.595-2.033c0.027-0.09,6.6-20.77,6.6-20.77s31.594-31.594,31.619-31.619L83.052,46.74z"/>
		<path style="fill:#F8E1C2;" d="M63.252,26.941c-0.025,0.025-31.619,31.619-31.619,31.619s-6.573,20.681-6.6,20.771
			c1.296,0.324,2.515,0.985,3.529,1.975L73.09,36.779L63.252,26.941z"/>
		<path style="fill:#F7B4B4;" d="M84.423,45.369l-1.414,1.414L63.21,26.984l1.414-1.414c3.125-3.125,8.188-3.125,11.314,0
			l8.485,8.485C87.549,37.18,87.549,42.243,84.423,45.369z"/>
		<path style="fill:#3E3E3F;" d="M30.662,84.959l-7.024,2.014c-0.175,0.05-0.363,0.001-0.491-0.127
			c-0.129-0.129-0.177-0.317-0.127-0.491l2.014-7.024c1.308,0.346,2.545,1.032,3.571,2.058
			C29.63,82.414,30.316,83.651,30.662,84.959z"/>
		
			<rect x="68.04" y="24.983" transform="matrix(0.7071 -0.7071 0.7071 0.7071 -6.7672 61.6293)" style="fill:#FACB1B;" width="5.94" height="28"/>
		<path style="fill:#059BBF;" d="M78.767,51.025l-27.16,27.16c-0.233,0.233-0.601,0.233-0.834,0
			c-0.219-0.219-0.283-0.552-0.163-0.841c0.629-1.464,0.354-3.21-0.835-4.398c-1.174-1.174-2.885-1.457-4.342-0.863
			c-0.281,0.128-0.681,0.083-0.955-0.191l-0.014-0.014c-0.248-0.248-0.332-0.629-0.191-0.955c0.594-1.457,0.311-3.168-0.863-4.342
			c-1.174-1.174-2.885-1.457-4.342-0.863c-0.325,0.142-0.707,0.057-0.955-0.191c-0.29-0.29-0.335-0.681-0.205-0.968
			c0.594-1.457,0.311-3.168-0.863-4.342c-1.188-1.188-2.934-1.464-4.398-0.835c-0.29,0.12-0.622,0.057-0.841-0.163
			c-0.233-0.233-0.233-0.601,0-0.834l27.16-27.16L78.767,51.025z"/>
		<path style="fill:#21B2D1;" d="M72.403,44.661L44.931,72.133c-0.17-0.028-0.332-0.12-0.453-0.241
			c-0.283-0.283-0.337-0.664-0.205-0.968c0.594-1.457,0.311-3.168-0.863-4.342c-1.174-1.174-2.885-1.457-4.342-0.863
			c-0.305,0.133-0.685,0.079-0.968-0.205c-0.12-0.12-0.212-0.283-0.241-0.453L65.331,37.59L72.403,44.661z"/>
		<path style="fill:#FBC8C8;" d="M75.938,25.569c-3.126-3.125-8.188-3.125-11.313,0l-1.415,1.415l9.837,9.837l7.071-7.071
			L75.938,25.569z"/>
	</g>
</g>
<g id="Blue" style="display:none;">
	<g style="display:inline;">
		<g>
			<path style="fill:#E1F5FA;" d="M83.055,46.74L51.421,78.346c0,0-20.667,6.587-20.757,6.614c-0.33-1.324-1.007-2.57-2.033-3.595
				c-1.025-1.025-2.272-1.702-3.595-2.033c0.027-0.09,6.6-20.771,6.6-20.771S63.23,26.966,63.255,26.941L83.055,46.74z"/>
		</g>
		<g>
			<path style="fill:#FFFFFF;" d="M63.255,26.941C63.23,26.966,31.636,58.56,31.636,58.56s-6.573,20.681-6.6,20.771
				c1.296,0.324,2.515,0.985,3.529,1.975l44.527-44.527L63.255,26.941z"/>
		</g>
		<g>
			<path style="fill:#E1F5FA;" d="M84.426,45.369l-1.414,1.414L63.213,26.984l1.415-1.414c3.125-3.125,8.188-3.125,11.313,0
				l8.485,8.485C87.552,37.18,87.552,42.243,84.426,45.369z"/>
		</g>
		<g>
			<path style="fill:#0C333D;" d="M30.664,84.959l-7.024,2.014c-0.175,0.05-0.363,0.001-0.491-0.127
				c-0.128-0.128-0.177-0.317-0.127-0.491l2.014-7.024c1.308,0.346,2.545,1.032,3.571,2.058
				C29.633,82.413,30.318,83.651,30.664,84.959z"/>
		</g>
		<g>
			
				<rect x="68.042" y="24.984" transform="matrix(0.7071 -0.7071 0.7071 0.7071 -6.7675 61.6268)" style="fill:#BBE7F2;" width="5.94" height="27.999"/>
		</g>
		<g>
			<path style="fill:#0081A1;" d="M78.769,51.025l-27.16,27.16c-0.234,0.233-0.6,0.233-0.834,0c-0.22-0.219-0.283-0.552-0.163-0.841
				c0.629-1.464,0.354-3.21-0.834-4.398c-1.174-1.174-2.884-1.457-4.341-0.863c-0.281,0.128-0.681,0.083-0.955-0.191l-0.014-0.014
				c-0.248-0.247-0.333-0.629-0.191-0.955c0.594-1.458,0.311-3.168-0.863-4.342c-1.174-1.174-2.885-1.456-4.342-0.863
				c-0.325,0.142-0.707,0.057-0.955-0.191c-0.29-0.289-0.335-0.681-0.204-0.968c0.594-1.457,0.311-3.167-0.863-4.342
				c-1.188-1.188-2.935-1.463-4.399-0.834c-0.289,0.121-0.622,0.057-0.841-0.163c-0.234-0.233-0.234-0.601,0-0.834l27.16-27.16
				L78.769,51.025z"/>
		</g>
		<g>
			<path style="fill:#009FC7;" d="M72.405,44.661L44.934,72.133c-0.17-0.028-0.333-0.12-0.453-0.241
				c-0.283-0.283-0.337-0.664-0.205-0.968c0.594-1.458,0.311-3.168-0.863-4.342c-1.174-1.174-2.885-1.456-4.342-0.863
				c-0.305,0.132-0.685,0.079-0.969-0.205c-0.12-0.12-0.212-0.283-0.24-0.453L65.334,37.59L72.405,44.661z"/>
		</g>
		<g>
			<path style="fill:#FFFFFF;" d="M75.94,25.569c-3.125-3.125-8.188-3.125-11.313,0l-1.415,1.415l9.837,9.837l7.071-7.071
				L75.94,25.569z"/>
		</g>
	</g>
</g>
<g id="R-Blue" style="display:none;">
	<g style="display:inline;">
		<circle style="fill:#81D2EB;" cx="55" cy="55" r="55"/>
	</g>
	<g style="display:inline;">
		<g>
			<path style="fill:#E1F5FA;" d="M83.052,46.74L51.418,78.346c0,0-20.667,6.587-20.757,6.614c-0.33-1.324-1.007-2.57-2.033-3.595
				c-1.025-1.025-2.272-1.702-3.595-2.033c0.027-0.09,6.6-20.771,6.6-20.771s31.594-31.594,31.619-31.619L83.052,46.74z"/>
		</g>
		<g>
			<path style="fill:#FFFFFF;" d="M63.252,26.941c-0.025,0.025-31.619,31.619-31.619,31.619s-6.573,20.681-6.6,20.771
				c1.296,0.324,2.515,0.985,3.529,1.975L73.09,36.779L63.252,26.941z"/>
		</g>
		<g>
			<path style="fill:#E1F5FA;" d="M84.423,45.369l-1.414,1.414L63.21,26.984l1.415-1.414c3.125-3.125,8.188-3.125,11.313,0
				l8.485,8.485C87.549,37.18,87.549,42.243,84.423,45.369z"/>
		</g>
		<g>
			<path style="fill:#0C333D;" d="M30.662,84.96l-7.024,2.014c-0.175,0.05-0.363,0.001-0.491-0.127
				c-0.128-0.128-0.177-0.317-0.127-0.491l2.014-7.024c1.308,0.346,2.545,1.032,3.571,2.058
				C29.63,82.414,30.315,83.651,30.662,84.96z"/>
		</g>
		<g>
			
				<rect x="68.04" y="24.984" transform="matrix(0.7071 -0.7071 0.7071 0.7071 -6.7685 61.6249)" style="fill:#BBE7F2;" width="5.94" height="27.999"/>
		</g>
		<g>
			<path style="fill:#0081A1;" d="M78.767,51.025l-27.16,27.16c-0.234,0.233-0.6,0.233-0.834,0c-0.22-0.219-0.283-0.552-0.163-0.841
				c0.629-1.464,0.354-3.21-0.834-4.398c-1.174-1.174-2.884-1.457-4.341-0.863c-0.281,0.128-0.681,0.083-0.955-0.191l-0.014-0.014
				c-0.248-0.247-0.333-0.629-0.191-0.955c0.594-1.458,0.311-3.168-0.863-4.342c-1.174-1.174-2.885-1.456-4.342-0.863
				c-0.325,0.142-0.707,0.057-0.955-0.191c-0.29-0.289-0.335-0.681-0.204-0.968c0.594-1.457,0.311-3.167-0.863-4.342
				c-1.188-1.188-2.935-1.463-4.399-0.834c-0.289,0.121-0.622,0.057-0.841-0.163c-0.234-0.233-0.234-0.601,0-0.834l27.16-27.16
				L78.767,51.025z"/>
		</g>
		<g>
			<path style="fill:#009FC7;" d="M72.402,44.662L44.932,72.133c-0.17-0.028-0.333-0.12-0.453-0.241
				c-0.283-0.283-0.337-0.664-0.205-0.968c0.594-1.458,0.311-3.168-0.863-4.342c-1.174-1.174-2.885-1.456-4.342-0.863
				c-0.305,0.132-0.685,0.079-0.969-0.205c-0.12-0.12-0.212-0.283-0.24-0.453L65.331,37.59L72.402,44.662z"/>
		</g>
		<g>
			<path style="fill:#FFFFFF;" d="M75.938,25.569c-3.125-3.125-8.188-3.125-11.313,0l-1.415,1.415l9.837,9.837l7.071-7.071
				L75.938,25.569z"/>
		</g>
	</g>
</g>
<g id="Green" style="display:none;">
	<g style="display:inline;">
		<g>
			<path style="fill:#D7FCF9;" d="M83.055,46.74L51.421,78.346c0,0-20.667,6.587-20.757,6.614c-0.33-1.324-1.007-2.57-2.033-3.595
				c-1.025-1.025-2.272-1.702-3.595-2.033c0.027-0.09,6.6-20.771,6.6-20.771S63.23,26.966,63.255,26.941L83.055,46.74z"/>
		</g>
		<g>
			<path style="fill:#FFFFFF;" d="M63.255,26.941c-0.025,0.025-31.619,31.619-31.619,31.619s-6.573,20.681-6.6,20.771
				c1.296,0.324,2.515,0.985,3.529,1.975l44.527-44.527L63.255,26.941z"/>
		</g>
		<g>
			<path style="fill:#D7FCF9;" d="M84.426,45.369l-1.414,1.414L63.213,26.984l1.415-1.414c3.125-3.125,8.188-3.125,11.313,0
				l8.485,8.485C87.552,37.18,87.552,42.243,84.426,45.369z"/>
		</g>
		<g>
			<path style="fill:#0A3631;" d="M30.664,84.96l-7.024,2.014c-0.175,0.05-0.363,0.001-0.491-0.127
				c-0.128-0.128-0.177-0.317-0.127-0.491l2.014-7.024c1.308,0.346,2.545,1.032,3.571,2.058
				C29.633,82.414,30.318,83.651,30.664,84.96z"/>
		</g>
		<g>
			
				<rect x="68.042" y="24.984" transform="matrix(0.7071 -0.7071 0.7071 0.7071 -6.7677 61.6269)" style="fill:#AAF0E9;" width="5.94" height="27.999"/>
		</g>
		<g>
			<path style="fill:#009687;" d="M78.769,51.025l-27.16,27.16c-0.234,0.233-0.6,0.233-0.834,0c-0.22-0.219-0.283-0.552-0.163-0.841
				c0.629-1.464,0.354-3.21-0.834-4.398c-1.174-1.174-2.884-1.457-4.341-0.863c-0.281,0.128-0.681,0.083-0.955-0.191l-0.014-0.014
				c-0.248-0.247-0.333-0.629-0.191-0.955c0.594-1.458,0.311-3.168-0.863-4.342c-1.174-1.174-2.885-1.456-4.342-0.863
				c-0.325,0.142-0.707,0.057-0.955-0.191c-0.29-0.289-0.335-0.681-0.204-0.968c0.594-1.457,0.311-3.167-0.863-4.342
				c-1.188-1.188-2.935-1.463-4.399-0.834c-0.289,0.121-0.622,0.057-0.841-0.163c-0.234-0.233-0.234-0.601,0-0.834l27.16-27.16
				L78.769,51.025z"/>
		</g>
		<g>
			<path style="fill:#00B8A5;" d="M72.405,44.662L44.934,72.133c-0.17-0.028-0.333-0.12-0.453-0.241
				c-0.283-0.283-0.337-0.664-0.205-0.968c0.594-1.458,0.311-3.168-0.863-4.342c-1.174-1.174-2.885-1.456-4.342-0.863
				c-0.305,0.132-0.685,0.079-0.969-0.205c-0.12-0.12-0.212-0.283-0.24-0.453L65.334,37.59L72.405,44.662z"/>
		</g>
		<g>
			<path style="fill:#FFFFFF;" d="M75.94,25.569c-3.125-3.125-8.188-3.125-11.313,0l-1.415,1.415l9.837,9.837l7.071-7.071
				L75.94,25.569z"/>
		</g>
	</g>
</g>
<g id="R-Green" style="display:none;">
	<g style="display:inline;">
		<circle style="fill:#87E0C8;" cx="55" cy="55" r="55"/>
	</g>
	<g style="display:inline;">
		<g>
			<path style="fill:#D7FCF9;" d="M83.052,46.74L51.418,78.346c0,0-20.667,6.587-20.757,6.614c-0.33-1.324-1.007-2.57-2.033-3.595
				c-1.025-1.025-2.272-1.702-3.595-2.033c0.027-0.09,6.6-20.771,6.6-20.771s31.594-31.594,31.619-31.619L83.052,46.74z"/>
		</g>
		<g>
			<path style="fill:#FFFFFF;" d="M63.252,26.941c-0.025,0.025-31.619,31.619-31.619,31.619s-6.573,20.681-6.6,20.771
				c1.296,0.324,2.515,0.985,3.529,1.975L73.09,36.779L63.252,26.941z"/>
		</g>
		<g>
			<path style="fill:#D7FCF9;" d="M84.423,45.369l-1.414,1.414L63.21,26.984l1.415-1.414c3.125-3.125,8.188-3.125,11.313,0
				l8.485,8.485C87.549,37.18,87.549,42.243,84.423,45.369z"/>
		</g>
		<g>
			<path style="fill:#0A3631;" d="M30.662,84.96l-7.024,2.014c-0.175,0.05-0.363,0.001-0.491-0.127
				c-0.128-0.128-0.177-0.317-0.127-0.491l2.014-7.024c1.308,0.346,2.545,1.032,3.571,2.058
				C29.63,82.414,30.315,83.651,30.662,84.96z"/>
		</g>
		<g>
			
				<rect x="68.04" y="24.984" transform="matrix(0.7071 -0.7071 0.7071 0.7071 -6.7685 61.6249)" style="fill:#AAF0E9;" width="5.94" height="27.999"/>
		</g>
		<g>
			<path style="fill:#009687;" d="M78.767,51.025l-27.16,27.16c-0.234,0.233-0.6,0.233-0.834,0c-0.22-0.219-0.283-0.552-0.163-0.841
				c0.629-1.464,0.354-3.21-0.834-4.398c-1.174-1.174-2.884-1.457-4.341-0.863c-0.281,0.128-0.681,0.083-0.955-0.191l-0.014-0.014
				c-0.248-0.247-0.333-0.629-0.191-0.955c0.594-1.458,0.311-3.168-0.863-4.342c-1.174-1.174-2.885-1.456-4.342-0.863
				c-0.325,0.142-0.707,0.057-0.955-0.191c-0.29-0.289-0.335-0.681-0.204-0.968c0.594-1.457,0.311-3.167-0.863-4.342
				c-1.188-1.188-2.935-1.463-4.399-0.834c-0.289,0.121-0.622,0.057-0.841-0.163c-0.234-0.233-0.234-0.601,0-0.834l27.16-27.16
				L78.767,51.025z"/>
		</g>
		<g>
			<path style="fill:#00B8A5;" d="M72.402,44.662L44.932,72.133c-0.17-0.028-0.333-0.12-0.453-0.241
				c-0.283-0.283-0.337-0.664-0.205-0.968c0.594-1.458,0.311-3.168-0.863-4.342c-1.174-1.174-2.885-1.456-4.342-0.863
				c-0.305,0.132-0.685,0.079-0.969-0.205c-0.12-0.12-0.212-0.283-0.24-0.453L65.331,37.59L72.402,44.662z"/>
		</g>
		<g>
			<path style="fill:#FFFFFF;" d="M75.938,25.569c-3.125-3.125-8.188-3.125-11.313,0l-1.415,1.415l9.837,9.837l7.071-7.071
				L75.938,25.569z"/>
		</g>
	</g>
</g>
<g id="Red" style="display:none;">
	<g style="display:inline;">
		<g>
			<path style="fill:#FFEFED;" d="M83.052,46.74L51.418,78.346c0,0-20.667,6.587-20.757,6.614c-0.33-1.324-1.007-2.57-2.033-3.595
				c-1.025-1.025-2.272-1.702-3.595-2.033c0.027-0.09,6.6-20.771,6.6-20.771s31.594-31.594,31.619-31.619L83.052,46.74z"/>
		</g>
		<g>
			<path style="fill:#FFFFFF;" d="M63.252,26.941C63.228,26.966,31.633,58.56,31.633,58.56s-6.573,20.681-6.6,20.771
				c1.296,0.324,2.515,0.985,3.529,1.975L73.09,36.779L63.252,26.941z"/>
		</g>
		<g>
			<path style="fill:#FFEFED;" d="M84.423,45.369l-1.414,1.414L63.21,26.984l1.415-1.414c3.125-3.125,8.188-3.125,11.313,0
				l8.485,8.485C87.549,37.18,87.549,42.243,84.423,45.369z"/>
		</g>
		<g>
			<path style="fill:#4A1410;" d="M30.662,84.959l-7.024,2.014c-0.175,0.05-0.363,0.001-0.491-0.127
				c-0.128-0.128-0.177-0.317-0.127-0.491l2.014-7.024c1.308,0.346,2.545,1.032,3.571,2.058
				C29.63,82.413,30.315,83.651,30.662,84.959z"/>
		</g>
		<g>
			
				<rect x="68.04" y="24.984" transform="matrix(0.7071 -0.7071 0.7071 0.7071 -6.7684 61.6248)" style="fill:#FFD7D4;" width="5.94" height="27.999"/>
		</g>
		<g>
			<path style="fill:#C23023;" d="M78.767,51.025l-27.16,27.16c-0.234,0.233-0.6,0.233-0.834,0c-0.22-0.219-0.283-0.552-0.163-0.841
				c0.629-1.464,0.354-3.21-0.834-4.398c-1.174-1.174-2.884-1.457-4.341-0.863c-0.281,0.128-0.681,0.083-0.955-0.191l-0.014-0.014
				c-0.248-0.247-0.333-0.629-0.191-0.955c0.594-1.458,0.311-3.168-0.863-4.342c-1.174-1.174-2.885-1.456-4.342-0.863
				c-0.325,0.142-0.707,0.057-0.955-0.191c-0.29-0.289-0.335-0.681-0.204-0.968c0.594-1.457,0.311-3.167-0.863-4.342
				c-1.188-1.188-2.935-1.463-4.399-0.834c-0.289,0.121-0.622,0.057-0.841-0.163c-0.234-0.233-0.234-0.601,0-0.834l27.16-27.16
				L78.767,51.025z"/>
		</g>
		<g>
			<path style="fill:#E54B44;" d="M72.402,44.661L44.932,72.133c-0.17-0.028-0.333-0.12-0.453-0.241
				c-0.283-0.283-0.337-0.664-0.205-0.968c0.594-1.458,0.311-3.168-0.863-4.342c-1.174-1.174-2.885-1.456-4.342-0.863
				c-0.305,0.132-0.685,0.079-0.969-0.205c-0.12-0.12-0.212-0.283-0.24-0.453L65.331,37.59L72.402,44.661z"/>
		</g>
		<g>
			<path style="fill:#FFFFFF;" d="M75.938,25.569c-3.125-3.125-8.188-3.125-11.313,0l-1.415,1.415l9.837,9.837l7.071-7.071
				L75.938,25.569z"/>
		</g>
	</g>
</g>
<g id="R-Red" style="display:none;">
	<g style="display:inline;">
		<circle style="fill:#FABBAF;" cx="55" cy="55" r="55"/>
	</g>
	<g style="display:inline;">
		<g>
			<path style="fill:#FFEFED;" d="M83.052,46.74L51.418,78.346c0,0-20.667,6.587-20.757,6.614c-0.33-1.324-1.007-2.57-2.033-3.595
				c-1.025-1.025-2.272-1.702-3.595-2.033c0.027-0.09,6.6-20.771,6.6-20.771s31.594-31.594,31.619-31.619L83.052,46.74z"/>
		</g>
		<g>
			<path style="fill:#FFFFFF;" d="M63.252,26.941c-0.025,0.025-31.619,31.619-31.619,31.619s-6.573,20.681-6.6,20.771
				c1.296,0.324,2.515,0.985,3.529,1.975L73.09,36.779L63.252,26.941z"/>
		</g>
		<g>
			<path style="fill:#FFEFED;" d="M84.423,45.369l-1.414,1.414L63.21,26.984l1.415-1.414c3.125-3.125,8.188-3.125,11.313,0
				l8.485,8.485C87.549,37.18,87.549,42.243,84.423,45.369z"/>
		</g>
		<g>
			<path style="fill:#4A1410;" d="M30.662,84.96l-7.024,2.014c-0.175,0.05-0.363,0.001-0.491-0.127
				c-0.128-0.128-0.177-0.317-0.127-0.491l2.014-7.024c1.308,0.346,2.545,1.032,3.571,2.058
				C29.63,82.414,30.315,83.651,30.662,84.96z"/>
		</g>
		<g>
			
				<rect x="68.04" y="24.984" transform="matrix(0.7071 -0.7071 0.7071 0.7071 -6.7685 61.6249)" style="fill:#FFD7D4;" width="5.94" height="27.999"/>
		</g>
		<g>
			<path style="fill:#C23023;" d="M78.767,51.025l-27.16,27.16c-0.234,0.233-0.6,0.233-0.834,0c-0.22-0.219-0.283-0.552-0.163-0.841
				c0.629-1.464,0.354-3.21-0.834-4.398c-1.174-1.174-2.884-1.457-4.341-0.863c-0.281,0.128-0.681,0.083-0.955-0.191l-0.014-0.014
				c-0.248-0.247-0.333-0.629-0.191-0.955c0.594-1.458,0.311-3.168-0.863-4.342c-1.174-1.174-2.885-1.456-4.342-0.863
				c-0.325,0.142-0.707,0.057-0.955-0.191c-0.29-0.289-0.335-0.681-0.204-0.968c0.594-1.457,0.311-3.167-0.863-4.342
				c-1.188-1.188-2.935-1.463-4.399-0.834c-0.289,0.121-0.622,0.057-0.841-0.163c-0.234-0.233-0.234-0.601,0-0.834l27.16-27.16
				L78.767,51.025z"/>
		</g>
		<g>
			<path style="fill:#E54B44;" d="M72.402,44.662L44.932,72.133c-0.17-0.028-0.333-0.12-0.453-0.241
				c-0.283-0.283-0.337-0.664-0.205-0.968c0.594-1.458,0.311-3.168-0.863-4.342c-1.174-1.174-2.885-1.456-4.342-0.863
				c-0.305,0.132-0.685,0.079-0.969-0.205c-0.12-0.12-0.212-0.283-0.24-0.453L65.331,37.59L72.402,44.662z"/>
		</g>
		<g>
			<path style="fill:#FFFFFF;" d="M75.938,25.569c-3.125-3.125-8.188-3.125-11.313,0l-1.415,1.415l9.837,9.837l7.071-7.071
				L75.938,25.569z"/>
		</g>
	</g>
</g>
<g id="Yellow" style="display:none;">
	<g style="display:inline;">
		<g>
			<path style="fill:#FFF5D9;" d="M83.055,46.74L51.421,78.346c0,0-20.667,6.587-20.757,6.614c-0.33-1.324-1.007-2.57-2.033-3.595
				c-1.025-1.025-2.272-1.702-3.595-2.033c0.027-0.09,6.6-20.771,6.6-20.771S63.23,26.966,63.255,26.941L83.055,46.74z"/>
		</g>
		<g>
			<path style="fill:#FFFFFF;" d="M63.255,26.941C63.23,26.966,31.636,58.56,31.636,58.56s-6.573,20.681-6.6,20.771
				c1.296,0.324,2.515,0.985,3.529,1.975l44.527-44.527L63.255,26.941z"/>
		</g>
		<g>
			<path style="fill:#FFF5D9;" d="M84.426,45.369l-1.414,1.414L63.213,26.984l1.415-1.414c3.125-3.125,8.188-3.125,11.313,0
				l8.485,8.485C87.552,37.18,87.552,42.243,84.426,45.369z"/>
		</g>
		<g>
			<path style="fill:#3D320C;" d="M30.664,84.959l-7.024,2.014c-0.175,0.05-0.363,0.001-0.491-0.127
				c-0.128-0.128-0.177-0.317-0.127-0.491l2.014-7.024c1.308,0.346,2.545,1.032,3.571,2.058
				C29.633,82.413,30.318,83.651,30.664,84.959z"/>
		</g>
		<g>
			
				<rect x="68.042" y="24.984" transform="matrix(0.7071 -0.7071 0.7071 0.7071 -6.7675 61.6268)" style="fill:#FFE9A1;" width="5.94" height="27.999"/>
		</g>
		<g>
			<path style="fill:#E07000;" d="M78.769,51.025l-27.16,27.16c-0.234,0.233-0.6,0.233-0.834,0c-0.22-0.219-0.283-0.552-0.163-0.841
				c0.629-1.464,0.354-3.21-0.834-4.398c-1.174-1.174-2.884-1.457-4.341-0.863c-0.281,0.128-0.681,0.083-0.955-0.191l-0.014-0.014
				c-0.248-0.247-0.333-0.629-0.191-0.955c0.594-1.458,0.311-3.168-0.863-4.342c-1.174-1.174-2.885-1.456-4.342-0.863
				c-0.325,0.142-0.707,0.057-0.955-0.191c-0.29-0.289-0.335-0.681-0.204-0.968c0.594-1.457,0.311-3.167-0.863-4.342
				c-1.188-1.188-2.935-1.463-4.399-0.834c-0.289,0.121-0.622,0.057-0.841-0.163c-0.234-0.233-0.234-0.601,0-0.834l27.16-27.16
				L78.769,51.025z"/>
		</g>
		<g>
			<path style="fill:#FA9200;" d="M72.405,44.661L44.934,72.133c-0.17-0.028-0.333-0.12-0.453-0.241
				c-0.283-0.283-0.337-0.664-0.205-0.968c0.594-1.458,0.311-3.168-0.863-4.342c-1.174-1.174-2.885-1.456-4.342-0.863
				c-0.305,0.132-0.685,0.079-0.969-0.205c-0.12-0.12-0.212-0.283-0.24-0.453L65.334,37.59L72.405,44.661z"/>
		</g>
		<g>
			<path style="fill:#FFFFFF;" d="M75.94,25.569c-3.125-3.125-8.188-3.125-11.313,0l-1.415,1.415l9.837,9.837l7.071-7.071
				L75.94,25.569z"/>
		</g>
	</g>
</g>
<g id="R-Yellow" style="display:none;">
	<g style="display:inline;">
		<circle style="fill:#FFD75E;" cx="55" cy="55" r="55"/>
	</g>
	<g style="display:inline;">
		<g>
			<path style="fill:#FFF5D9;" d="M83.052,46.74L51.418,78.346c0,0-20.667,6.587-20.757,6.614c-0.33-1.324-1.007-2.57-2.033-3.595
				c-1.025-1.025-2.272-1.702-3.595-2.033c0.027-0.09,6.6-20.771,6.6-20.771s31.594-31.594,31.619-31.619L83.052,46.74z"/>
		</g>
		<g>
			<path style="fill:#FFFFFF;" d="M63.252,26.941c-0.025,0.025-31.619,31.619-31.619,31.619s-6.573,20.681-6.6,20.771
				c1.296,0.324,2.515,0.985,3.529,1.975L73.09,36.779L63.252,26.941z"/>
		</g>
		<g>
			<path style="fill:#FFF5D9;" d="M84.423,45.369l-1.414,1.414L63.21,26.984l1.414-1.414c3.125-3.125,8.188-3.125,11.314,0
				l8.485,8.485C87.549,37.18,87.549,42.243,84.423,45.369z"/>
		</g>
		<g>
			<path style="fill:#3D320C;" d="M30.662,84.96l-7.024,2.014c-0.175,0.05-0.363,0.001-0.491-0.127
				c-0.128-0.128-0.177-0.317-0.127-0.491l2.014-7.024c1.308,0.346,2.545,1.032,3.571,2.058
				C29.63,82.414,30.315,83.651,30.662,84.96z"/>
		</g>
		<g>
			
				<rect x="68.04" y="24.984" transform="matrix(0.7071 -0.7071 0.7071 0.7071 -6.7685 61.6249)" style="fill:#FFE9A1;" width="5.94" height="27.999"/>
		</g>
		<g>
			<path style="fill:#E07000;" d="M78.767,51.025l-27.16,27.16c-0.234,0.233-0.6,0.233-0.834,0c-0.22-0.219-0.283-0.552-0.163-0.841
				c0.629-1.464,0.354-3.21-0.835-4.398c-1.174-1.174-2.884-1.457-4.341-0.863c-0.281,0.128-0.681,0.083-0.955-0.191l-0.014-0.014
				c-0.248-0.247-0.333-0.629-0.191-0.955c0.594-1.458,0.311-3.168-0.863-4.342c-1.174-1.174-2.885-1.456-4.342-0.863
				c-0.325,0.142-0.707,0.057-0.955-0.191c-0.29-0.289-0.335-0.681-0.205-0.968c0.594-1.457,0.311-3.167-0.863-4.342
				c-1.189-1.188-2.935-1.463-4.399-0.834c-0.289,0.121-0.622,0.057-0.841-0.163c-0.234-0.233-0.234-0.601,0-0.834l27.16-27.16
				L78.767,51.025z"/>
		</g>
		<g>
			<path style="fill:#FA9200;" d="M72.402,44.662L44.932,72.133c-0.17-0.028-0.333-0.12-0.453-0.241
				c-0.283-0.283-0.337-0.664-0.205-0.968c0.594-1.458,0.311-3.168-0.863-4.342c-1.174-1.174-2.885-1.456-4.342-0.863
				c-0.305,0.132-0.685,0.079-0.969-0.205c-0.12-0.12-0.212-0.283-0.24-0.453L65.331,37.59L72.402,44.662z"/>
		</g>
		<g>
			<path style="fill:#FFFFFF;" d="M75.938,25.569c-3.125-3.125-8.188-3.125-11.313,0l-1.414,1.415l9.837,9.837l7.071-7.071
				L75.938,25.569z"/>
		</g>
	</g>
</g>
</svg>
