<?xml version="1.0" encoding="iso-8859-1"?>
<!-- Generator: Adobe Illustrator 17.1.0, SVG Export Plug-In . SVG Version: 6.00 Build 0)  -->
<!DOCTYPE svg PUBLIC "-//W3C//DTD SVG 1.0//EN" "http://www.w3.org/TR/2001/REC-SVG-20010904/DTD/svg10.dtd">
<svg version="1.0" xmlns="http://www.w3.org/2000/svg" xmlns:xlink="http://www.w3.org/1999/xlink" x="0px" y="0px" width="110px"
	 height="110px" viewBox="0 0 110 110" style="enable-background:new 0 0 110 110;" xml:space="preserve">
<g id="Artboard" style="display:none;">
	<rect x="-479" y="-71" style="display:inline;fill:#8C8C8C;" width="1412" height="743"/>
</g>
<g id="R-Multicolor">
	<circle style="fill:#FABC3D;" cx="55" cy="55" r="55"/>
	<g>
		<path style="fill:#0484AB;" d="M81.657,28.139c-3.124-3.125-8.189-3.125-11.313,0l-1.358-1.358c-2.374-2.374-6.223-2.374-8.597,0
			l-15.5,15.5c-1.16,1.16-1.16,3.04,0,4.2l0.042,0.042c1.16,1.16,3.041,1.16,4.2,0l14.141-14.141
			c0.781-0.781,2.048-0.782,2.83-0.001l-9.74,9.74l-27.03,27.029l11.314,11.314l41.012-41.012
			C84.781,36.328,84.781,31.263,81.657,28.139z"/>
		<path style="fill:#059BBF;" d="M81.641,28.125c-3.125-3.109-8.179-3.105-11.298,0.014L29.331,69.151l5.642,5.642L81.641,28.125z"
			/>
		<polygon style="fill:#F0F1F1;" points="40.645,80.465 29.331,69.151 25.088,79.05 30.745,84.707 		"/>
		<path style="fill:#3E3E3F;" d="M25.088,79.05l5.657,5.657l-4.71,1.637c-1.617,0.622-3.207-0.967-2.585-2.585L25.088,79.05z"/>
		
			<rect x="53.003" y="47.358" transform="matrix(0.7071 0.7071 -0.7071 0.7071 52.3691 -28.8442)" style="fill:#FACB1B;" width="16" height="2.87"/>
		
			<rect x="54.177" y="44.522" transform="matrix(-0.7071 -0.7071 0.7071 -0.7071 66.8031 119.5836)" style="fill:#FBE158;" width="7.979" height="2.87"/>
	</g>
</g>
<g id="Multicolor" style="display:none;">
	<g style="display:inline;">
		<path style="fill:#0484AB;" d="M81.657,28.139c-3.124-3.125-8.189-3.125-11.313,0l-1.358-1.358c-2.374-2.374-6.223-2.374-8.597,0
			l-15.5,15.5c-1.16,1.16-1.16,3.04,0,4.2l0.042,0.042c1.16,1.16,3.041,1.16,4.2,0l14.141-14.141
			c0.781-0.781,2.048-0.782,2.83-0.001l-9.74,9.74l-27.03,27.029l11.314,11.314l41.012-41.012
			C84.781,36.328,84.781,31.263,81.657,28.139z"/>
		<path style="fill:#059BBF;" d="M81.641,28.125c-3.125-3.109-8.179-3.105-11.298,0.014L29.331,69.151l5.642,5.642L81.641,28.125z"
			/>
		<polygon style="fill:#F0F1F1;" points="40.645,80.465 29.331,69.151 25.088,79.05 30.745,84.707 		"/>
		<path style="fill:#3E3E3F;" d="M25.088,79.05l5.657,5.657l-4.71,1.637c-1.617,0.622-3.207-0.967-2.585-2.585L25.088,79.05z"/>
		
			<rect x="53.003" y="47.358" transform="matrix(0.7071 0.7071 -0.7071 0.7071 52.3691 -28.8442)" style="fill:#FACB1B;" width="16" height="2.87"/>
		
			<rect x="54.177" y="44.522" transform="matrix(-0.7071 -0.7071 0.7071 -0.7071 66.8031 119.5836)" style="fill:#FBE158;" width="7.979" height="2.87"/>
	</g>
</g>
<g id="Blue" style="display:none;">
	<g style="display:inline;">
		<g>
			<path style="fill:#0081A1;" d="M81.66,28.139c-3.124-3.125-8.189-3.125-11.313,0l-1.358-1.358c-2.374-2.374-6.223-2.374-8.597,0
				l-15.5,15.5c-1.16,1.16-1.16,3.04,0,4.201l0.043,0.042c1.16,1.16,3.04,1.16,4.2,0l14.141-14.141
				c0.781-0.781,2.048-0.782,2.83-0.001l-9.74,9.74l-27.03,27.029l11.314,11.314L81.66,39.452
				C84.784,36.328,84.784,31.263,81.66,28.139z"/>
		</g>
		<g>
			<path style="fill:#009FC7;" d="M81.643,28.125c-3.125-3.109-8.178-3.105-11.297,0.014L29.334,69.151l5.642,5.642L81.643,28.125z"
				/>
		</g>
		<g>
			<polygon style="fill:#FFFFFF;" points="40.647,80.465 29.333,69.151 25.091,79.051 30.748,84.707 			"/>
		</g>
		<g>
			<path style="fill:#0C333D;" d="M25.091,79.051l5.657,5.657l-4.709,1.637c-1.618,0.622-3.207-0.967-2.585-2.584L25.091,79.051z"/>
		</g>
		<g>
			
				<rect x="53.005" y="47.357" transform="matrix(0.7071 0.7071 -0.7071 0.7071 52.3665 -28.8459)" style="fill:#BBE7F2;" width="16" height="2.87"/>
		</g>
		<g>
			
				<rect x="54.18" y="44.522" transform="matrix(-0.7071 -0.7071 0.7071 -0.7071 66.8049 119.5862)" style="fill:#FFFFFF;" width="7.978" height="2.87"/>
		</g>
	</g>
</g>
<g id="R-Blue" style="display:none;">
	<g style="display:inline;">
		<circle style="fill:#81D2EB;" cx="55" cy="55" r="55"/>
	</g>
	<g style="display:inline;">
		<g>
			<path style="fill:#0081A1;" d="M81.657,28.139c-3.124-3.125-8.189-3.125-11.313,0l-1.358-1.358c-2.374-2.374-6.223-2.374-8.597,0
				l-15.5,15.5c-1.16,1.16-1.16,3.04,0,4.201l0.043,0.042c1.16,1.16,3.04,1.16,4.2,0l14.141-14.141
				c0.781-0.781,2.048-0.782,2.83-0.001l-9.74,9.74l-27.03,27.029l11.314,11.314l41.012-41.012
				C84.781,36.329,84.781,31.263,81.657,28.139z"/>
		</g>
		<g>
			<path style="fill:#009FC7;" d="M81.641,28.125c-3.125-3.109-8.178-3.105-11.297,0.014L29.331,69.151l5.642,5.642L81.641,28.125z"
				/>
		</g>
		<g>
			<polygon style="fill:#FFFFFF;" points="40.645,80.465 29.331,69.151 25.088,79.051 30.745,84.708 			"/>
		</g>
		<g>
			<path style="fill:#0C333D;" d="M25.088,79.051l5.657,5.657l-4.709,1.637c-1.618,0.622-3.207-0.967-2.585-2.584L25.088,79.051z"/>
		</g>
		<g>
			
				<rect x="53.003" y="47.358" transform="matrix(0.7071 0.7071 -0.7071 0.7071 52.3658 -28.8438)" style="fill:#BBE7F2;" width="16" height="2.87"/>
		</g>
		<g>
			
				<rect x="54.178" y="44.522" transform="matrix(-0.7071 -0.7071 0.7071 -0.7071 66.8 119.5845)" style="fill:#FFFFFF;" width="7.978" height="2.87"/>
		</g>
	</g>
</g>
<g id="Green" style="display:none;">
	<g style="display:inline;">
		<g>
			<path style="fill:#009687;" d="M81.66,28.139c-3.124-3.125-8.189-3.125-11.313,0l-1.358-1.358c-2.374-2.374-6.223-2.374-8.597,0
				l-15.5,15.5c-1.16,1.16-1.16,3.04,0,4.201l0.043,0.042c1.16,1.16,3.04,1.16,4.2,0l14.141-14.141
				c0.781-0.781,2.048-0.782,2.83-0.001l-9.74,9.74l-27.03,27.029l11.314,11.314L81.66,39.453
				C84.784,36.329,84.784,31.263,81.66,28.139z"/>
		</g>
		<g>
			<path style="fill:#00B8A5;" d="M81.643,28.125c-3.125-3.109-8.178-3.105-11.297,0.014L29.334,69.151l5.642,5.642L81.643,28.125z"
				/>
		</g>
		<g>
			<polygon style="fill:#FFFFFF;" points="40.647,80.465 29.333,69.151 25.091,79.051 30.748,84.708 			"/>
		</g>
		<g>
			<path style="fill:#0A3631;" d="M25.091,79.051l5.657,5.657l-4.709,1.637c-1.618,0.622-3.207-0.967-2.585-2.584L25.091,79.051z"/>
		</g>
		<g>
			
				<rect x="53.005" y="47.358" transform="matrix(0.7071 0.7071 -0.7071 0.7071 52.3666 -28.8458)" style="fill:#AAF0E9;" width="16" height="2.87"/>
		</g>
		<g>
			
				<rect x="54.18" y="44.522" transform="matrix(-0.7071 -0.7071 0.7071 -0.7071 66.8048 119.5865)" style="fill:#FFFFFF;" width="7.978" height="2.87"/>
		</g>
	</g>
</g>
<g id="R-Green" style="display:none;">
	<g style="display:inline;">
		<circle style="fill:#87E0C8;" cx="55" cy="55" r="55"/>
	</g>
	<g style="display:inline;">
		<g>
			<path style="fill:#009687;" d="M81.657,28.139c-3.124-3.125-8.189-3.125-11.313,0l-1.358-1.358c-2.374-2.374-6.223-2.374-8.597,0
				l-15.5,15.5c-1.16,1.16-1.16,3.04,0,4.201l0.043,0.042c1.16,1.16,3.04,1.16,4.2,0l14.141-14.141
				c0.781-0.781,2.048-0.782,2.83-0.001l-9.74,9.74l-27.03,27.029l11.314,11.314l41.012-41.012
				C84.781,36.329,84.781,31.263,81.657,28.139z"/>
		</g>
		<g>
			<path style="fill:#00B8A5;" d="M81.641,28.125c-3.125-3.109-8.178-3.105-11.297,0.014L29.331,69.151l5.642,5.642L81.641,28.125z"
				/>
		</g>
		<g>
			<polygon style="fill:#FFFFFF;" points="40.645,80.465 29.331,69.151 25.088,79.051 30.745,84.708 			"/>
		</g>
		<g>
			<path style="fill:#0A3631;" d="M25.088,79.051l5.657,5.657l-4.709,1.637c-1.618,0.622-3.207-0.967-2.585-2.584L25.088,79.051z"/>
		</g>
		<g>
			
				<rect x="53.003" y="47.358" transform="matrix(0.7071 0.7071 -0.7071 0.7071 52.3658 -28.8438)" style="fill:#AAF0E9;" width="16" height="2.87"/>
		</g>
		<g>
			
				<rect x="54.178" y="44.522" transform="matrix(-0.7071 -0.7071 0.7071 -0.7071 66.8 119.5845)" style="fill:#FFFFFF;" width="7.978" height="2.87"/>
		</g>
	</g>
</g>
<g id="Red" style="display:none;">
	<g style="display:inline;">
		<g>
			<path style="fill:#C23023;" d="M81.657,28.139c-3.124-3.125-8.189-3.125-11.313,0l-1.358-1.358c-2.374-2.374-6.223-2.374-8.597,0
				l-15.5,15.5c-1.16,1.16-1.16,3.04,0,4.201l0.043,0.042c1.16,1.16,3.04,1.16,4.2,0l14.141-14.141
				c0.781-0.781,2.048-0.782,2.83-0.001l-9.74,9.74l-27.03,27.029l11.314,11.314l41.012-41.012
				C84.781,36.328,84.781,31.263,81.657,28.139z"/>
		</g>
		<g>
			<path style="fill:#E54B44;" d="M81.641,28.125c-3.125-3.109-8.178-3.105-11.297,0.014L29.331,69.151l5.642,5.642L81.641,28.125z"
				/>
		</g>
		<g>
			<polygon style="fill:#FFFFFF;" points="40.645,80.465 29.331,69.151 25.088,79.051 30.745,84.707 			"/>
		</g>
		<g>
			<path style="fill:#4A1410;" d="M25.088,79.051l5.657,5.657l-4.709,1.637c-1.618,0.622-3.207-0.967-2.585-2.584L25.088,79.051z"/>
		</g>
		<g>
			
				<rect x="53.003" y="47.357" transform="matrix(0.7071 0.7071 -0.7071 0.7071 52.3657 -28.8439)" style="fill:#FFD7D4;" width="16" height="2.87"/>
		</g>
		<g>
			
				<rect x="54.178" y="44.522" transform="matrix(-0.7071 -0.7071 0.7071 -0.7071 66.8001 119.5843)" style="fill:#FFFFFF;" width="7.978" height="2.87"/>
		</g>
	</g>
</g>
<g id="R-Red" style="display:none;">
	<g style="display:inline;">
		<circle style="fill:#FABBAF;" cx="55" cy="55" r="55"/>
	</g>
	<g style="display:inline;">
		<g>
			<path style="fill:#C23023;" d="M81.657,28.139c-3.124-3.125-8.189-3.125-11.313,0l-1.358-1.358c-2.374-2.374-6.223-2.374-8.597,0
				l-15.5,15.5c-1.16,1.16-1.16,3.04,0,4.201l0.043,0.042c1.16,1.16,3.04,1.16,4.2,0l14.141-14.141
				c0.781-0.781,2.048-0.782,2.83-0.001l-9.74,9.74l-27.03,27.029l11.314,11.314l41.012-41.012
				C84.781,36.329,84.781,31.263,81.657,28.139z"/>
		</g>
		<g>
			<path style="fill:#E54B44;" d="M81.641,28.125c-3.125-3.109-8.178-3.105-11.297,0.014L29.331,69.151l5.642,5.642L81.641,28.125z"
				/>
		</g>
		<g>
			<polygon style="fill:#FFFFFF;" points="40.645,80.465 29.331,69.151 25.088,79.051 30.745,84.708 			"/>
		</g>
		<g>
			<path style="fill:#4A1410;" d="M25.088,79.051l5.657,5.657l-4.709,1.637c-1.618,0.622-3.207-0.967-2.585-2.584L25.088,79.051z"/>
		</g>
		<g>
			
				<rect x="53.003" y="47.358" transform="matrix(0.7071 0.7071 -0.7071 0.7071 52.3658 -28.8438)" style="fill:#FFD7D4;" width="16" height="2.87"/>
		</g>
		<g>
			
				<rect x="54.178" y="44.522" transform="matrix(-0.7071 -0.7071 0.7071 -0.7071 66.8 119.5845)" style="fill:#FFFFFF;" width="7.978" height="2.87"/>
		</g>
	</g>
</g>
<g id="Yellow" style="display:none;">
	<g style="display:inline;">
		<g>
			<path style="fill:#E07000;" d="M81.66,28.139c-3.124-3.125-8.189-3.125-11.313,0l-1.358-1.358c-2.374-2.374-6.223-2.374-8.597,0
				l-15.5,15.5c-1.16,1.16-1.16,3.04,0,4.201l0.043,0.042c1.16,1.16,3.04,1.16,4.2,0l14.141-14.141
				c0.781-0.781,2.048-0.782,2.83-0.001l-9.74,9.74l-27.03,27.029l11.314,11.314L81.66,39.452
				C84.784,36.328,84.784,31.263,81.66,28.139z"/>
		</g>
		<g>
			<path style="fill:#FA9200;" d="M81.643,28.125c-3.125-3.109-8.178-3.106-11.297,0.014L29.334,69.151l5.642,5.642L81.643,28.125z"
				/>
		</g>
		<g>
			<polygon style="fill:#FFFFFF;" points="40.647,80.465 29.333,69.151 25.091,79.051 30.748,84.707 			"/>
		</g>
		<g>
			<path style="fill:#3D320C;" d="M25.091,79.051l5.657,5.657l-4.709,1.637c-1.618,0.622-3.207-0.967-2.585-2.584L25.091,79.051z"/>
		</g>
		<g>
			
				<rect x="53.005" y="47.357" transform="matrix(0.7071 0.7071 -0.7071 0.7071 52.3665 -28.8459)" style="fill:#FFE9A1;" width="16" height="2.87"/>
		</g>
		<g>
			
				<rect x="54.18" y="44.522" transform="matrix(-0.7071 -0.7071 0.7071 -0.7071 66.8049 119.5862)" style="fill:#FFFFFF;" width="7.978" height="2.87"/>
		</g>
	</g>
</g>
<g id="R-Yellow" style="display:none;">
	<g style="display:inline;">
		<circle style="fill:#FFD75E;" cx="55" cy="55" r="55"/>
	</g>
	<g style="display:inline;">
		<g>
			<path style="fill:#E07000;" d="M81.657,28.139c-3.124-3.125-8.189-3.125-11.313,0l-1.358-1.358c-2.374-2.374-6.223-2.374-8.597,0
				l-15.5,15.5c-1.16,1.16-1.16,3.04,0,4.201l0.042,0.042c1.16,1.16,3.041,1.16,4.2,0l14.141-14.141
				c0.781-0.781,2.048-0.782,2.83-0.001l-9.74,9.74l-27.03,27.029l11.314,11.314l41.012-41.012
				C84.781,36.329,84.781,31.263,81.657,28.139z"/>
		</g>
		<g>
			<path style="fill:#FA9200;" d="M81.641,28.125c-3.125-3.109-8.178-3.105-11.297,0.014L29.331,69.151l5.642,5.642L81.641,28.125z"
				/>
		</g>
		<g>
			<polygon style="fill:#FFFFFF;" points="40.645,80.465 29.331,69.151 25.088,79.051 30.745,84.708 			"/>
		</g>
		<g>
			<path style="fill:#3D320C;" d="M25.088,79.051l5.657,5.657l-4.709,1.637c-1.618,0.622-3.207-0.967-2.585-2.584L25.088,79.051z"/>
		</g>
		<g>
			
				<rect x="53.003" y="47.358" transform="matrix(0.7071 0.7071 -0.7071 0.7071 52.3658 -28.8438)" style="fill:#FFE9A1;" width="16" height="2.87"/>
		</g>
		<g>
			
				<rect x="54.178" y="44.522" transform="matrix(-0.7071 -0.7071 0.7071 -0.7071 66.8 119.5845)" style="fill:#FFFFFF;" width="7.978" height="2.87"/>
		</g>
	</g>
</g>
</svg>
