<?xml version="1.0" encoding="iso-8859-1"?>
<!-- Generator: Adobe Illustrator 17.1.0, SVG Export Plug-In . SVG Version: 6.00 Build 0)  -->
<!DOCTYPE svg PUBLIC "-//W3C//DTD SVG 1.0//EN" "http://www.w3.org/TR/2001/REC-SVG-20010904/DTD/svg10.dtd">
<svg version="1.0" xmlns="http://www.w3.org/2000/svg" xmlns:xlink="http://www.w3.org/1999/xlink" x="0px" y="0px" width="110px"
	 height="110px" viewBox="0 0 110 110" style="enable-background:new 0 0 110 110;" xml:space="preserve">
<g id="Artboard" style="display:none;">
	
		<rect x="-72.5" y="-802.5" style="display:inline;fill:#808080;stroke:#000000;stroke-miterlimit:10;" width="1392" height="1369"/>
</g>
<g id="R-Multicolor">
	<circle style="fill:#25B7D3;" cx="55" cy="55" r="55"/>
	<g>
		<g>
			<path style="fill:#E2E4E5;" d="M61.03,58h16c0.251,0,0.474,0.101,0.649,0.254c0.856-1.104,1.351-2.384,1.351-3.754
				c0-4.142-4.477-7.5-10-7.5s-10,3.358-10,7.5c0,1.37,0.495,2.65,1.351,3.754C60.557,58.101,60.779,58,61.03,58z"/>
			<path style="fill:#E2E4E5;" d="M76.861,62H61.199c-5.107,6.266-7.823,12.722-8.138,22.938c-0.017,0.541,0.187,1.065,0.563,1.454
				S54.519,87,55.06,87H83c0.542,0,1.06-0.22,1.437-0.608c0.376-0.389,0.579-0.913,0.562-1.454
				C84.685,74.722,81.969,68.266,76.861,62z"/>
		</g>
		<g>
			<path style="fill:#FFFFFF;" d="M59.03,54.5c0,1.37,0.495,2.65,1.351,3.754C60.557,58.101,60.779,58,61.03,58h8V47
				C63.507,47,59.03,50.358,59.03,54.5z"/>
			<path style="fill:#FFFFFF;" d="M53.061,84.938c-0.017,0.541,0.187,1.065,0.563,1.454S54.519,87,55.06,87h13.97V62h-7.832
				C56.092,68.266,53.376,74.722,53.061,84.938z"/>
		</g>
		<g>
			<path style="fill:#C9F2F8;" d="M46.656,40H27.405c5.263,14.482-2.375,25.042-2.375,35c0,6.488,0,9.608,0,11c0,0.552,0.448,1,1,1
				h22c0.552,0,1-0.448,1-1c0-1.392,0-4.512,0-11C49.03,64.994,41.393,54.48,46.656,40z"/>
		</g>
		<g>
			<path style="fill:#FFFFFF;" d="M37.03,39h-10c6,15-2,25.813-2,36c0,6.488,0,9.608,0,11c0,0.552,0.448,1,1,1h11V39z"/>
		</g>
		<g>
			<circle style="fill:#E2E4E5;" cx="37.03" cy="25" r="2"/>
		</g>
		<g>
			<circle style="fill:#5B5C5F;" cx="65.03" cy="51" r="1"/>
		</g>
		<g>
			<circle style="fill:#5B5C5F;" cx="69.03" cy="51" r="1"/>
		</g>
		<g>
			<circle style="fill:#5B5C5F;" cx="73.03" cy="51" r="1"/>
		</g>
		<g>
			<path style="fill:#DF2C2C;" d="M78.03,61c0,0.552-0.448,1-1,1h-16c-0.552,0-1-0.448-1-1v-2c0-0.552,0.448-1,1-1h16
				c0.552,0,1,0.448,1,1V61z"/>
		</g>
		<g>
			<path style="fill:#FFFFFF;" d="M35.03,25c0,1.104,0.896,2,2,2v-4C35.926,23,35.03,23.896,35.03,25z"/>
		</g>
		<g>
			<path style="fill:#FA5655;" d="M69.03,58h-8c-0.552,0-1,0.448-1,1v2c0,0.552,0.448,1,1,1h8V58z"/>
		</g>
		<g>
			<path style="fill:#3E3E3F;" d="M27.344,40h19.373c1.448-2,2.313-3.092,2.313-4.854c0-4.418-5.373-8.073-12-8.073
				s-12,3.691-12,8.109C25.03,36.945,25.895,38,27.344,40z"/>
		</g>
		<g>
			<path style="fill:#5B5C5F;" d="M25.03,35.182c0,1.762,0.865,2.818,2.313,4.818h9.687V27.073
				C30.403,27.073,25.03,30.764,25.03,35.182z"/>
		</g>
		<g>
			<path style="fill:#6FDAF1;" d="M44.168,40.767c0.093-0.256,0.12-0.514,0.117-0.767h-14.51c-0.004,0.253,0.023,0.512,0.117,0.769
				c4.13,11.345-1.862,22.929-1.862,30.667L28,81h18l0.03-9.564C46.03,63.661,40.038,52.117,44.168,40.767z"/>
		</g>
		<g>
			<path style="fill:#9CE5F4;" d="M29.775,40c-0.004,0.253,0.023,0.512,0.117,0.769c4.13,11.345-1.862,22.929-1.862,30.667L28,81h9
				l0.03-41H29.775z"/>
		</g>
		<g>
			<path style="fill:#3E3E3F;" d="M43.024,55.192C43.01,55.082,42.918,55,42.808,55H37h-5.808c-0.11,0-0.202,0.082-0.216,0.192
				C30.194,61.298,28,66.721,28,71.482v8.693C28,80.631,28.353,81,28.788,81c11.598,0,5.329-0.003,16.455,0
				c0.435,0,0.787-0.369,0.787-0.824v-8.74C46.03,66.654,43.808,61.287,43.024,55.192z"/>
		</g>
		<g>
			<path style="fill:#5B5C5F;" d="M37,55h-6c-0.76,6.185-3,11.671-3,16.482v8.693C28,80.631,28.353,81,28.788,81H37V55z"/>
		</g>
	</g>
</g>
<g id="Multicolor" style="display:none;">
	<g style="display:inline;">
		<g>
			<path style="fill:#E2E4E5;" d="M61.03,58h16c0.251,0,0.474,0.101,0.649,0.254c0.856-1.104,1.351-2.384,1.351-3.754
				c0-4.142-4.477-7.5-10-7.5s-10,3.358-10,7.5c0,1.37,0.495,2.65,1.351,3.754C60.557,58.101,60.779,58,61.03,58z"/>
			<path style="fill:#E2E4E5;" d="M76.861,62H61.199c-5.107,6.266-7.823,12.722-8.138,22.938c-0.017,0.541,0.187,1.065,0.563,1.454
				S54.519,87,55.06,87H83c0.542,0,1.06-0.22,1.437-0.608c0.376-0.389,0.579-0.913,0.562-1.454
				C84.685,74.722,81.969,68.266,76.861,62z"/>
		</g>
		<g>
			<path style="fill:#FFFFFF;" d="M59.03,54.5c0,1.37,0.495,2.65,1.351,3.754C60.557,58.101,60.779,58,61.03,58h8V47
				C63.507,47,59.03,50.358,59.03,54.5z"/>
			<path style="fill:#FFFFFF;" d="M53.061,84.938c-0.017,0.541,0.187,1.065,0.563,1.454S54.519,87,55.06,87h13.97V62h-7.832
				C56.092,68.266,53.376,74.722,53.061,84.938z"/>
		</g>
		<g>
			<path style="fill:#C9F2F8;" d="M46.656,40H27.405c5.263,14.482-2.375,25.042-2.375,35c0,6.488,0,9.608,0,11c0,0.552,0.448,1,1,1
				h22c0.552,0,1-0.448,1-1c0-1.392,0-4.512,0-11C49.03,64.994,41.393,54.48,46.656,40z"/>
		</g>
		<g>
			<path style="fill:#FFFFFF;" d="M37.03,39h-10c6,15-2,25.813-2,36c0,6.488,0,9.608,0,11c0,0.552,0.448,1,1,1h11V39z"/>
		</g>
		<g>
			<circle style="fill:#E2E4E5;" cx="37.03" cy="25" r="2"/>
		</g>
		<g>
			<circle style="fill:#5B5C5F;" cx="65.03" cy="51" r="1"/>
		</g>
		<g>
			<circle style="fill:#5B5C5F;" cx="69.03" cy="51" r="1"/>
		</g>
		<g>
			<circle style="fill:#5B5C5F;" cx="73.03" cy="51" r="1"/>
		</g>
		<g>
			<path style="fill:#DF2C2C;" d="M78.03,61c0,0.552-0.448,1-1,1h-16c-0.552,0-1-0.448-1-1v-2c0-0.552,0.448-1,1-1h16
				c0.552,0,1,0.448,1,1V61z"/>
		</g>
		<g>
			<path style="fill:#FFFFFF;" d="M35.03,25c0,1.104,0.896,2,2,2v-4C35.926,23,35.03,23.896,35.03,25z"/>
		</g>
		<g>
			<path style="fill:#FA5655;" d="M69.03,58h-8c-0.552,0-1,0.448-1,1v2c0,0.552,0.448,1,1,1h8V58z"/>
		</g>
		<g>
			<path style="fill:#3E3E3F;" d="M27.344,40h19.373c1.448-2,2.313-3.092,2.313-4.854c0-4.418-5.373-8.073-12-8.073
				s-12,3.691-12,8.109C25.03,36.945,25.895,38,27.344,40z"/>
		</g>
		<g>
			<path style="fill:#5B5C5F;" d="M25.03,35.182c0,1.762,0.865,2.818,2.313,4.818h9.687V27.073
				C30.403,27.073,25.03,30.764,25.03,35.182z"/>
		</g>
		<g>
			<path style="fill:#6FDAF1;" d="M44.168,40.767c0.093-0.256,0.12-0.514,0.117-0.767h-14.51c-0.004,0.253,0.023,0.512,0.117,0.769
				c4.13,11.345-1.862,22.929-1.862,30.667L28,81h18l0.03-9.564C46.03,63.661,40.038,52.117,44.168,40.767z"/>
		</g>
		<g>
			<path style="fill:#9CE5F4;" d="M29.775,40c-0.004,0.253,0.023,0.512,0.117,0.769c4.13,11.345-1.862,22.929-1.862,30.667L28,81h9
				l0.03-41H29.775z"/>
		</g>
		<g>
			<path style="fill:#3E3E3F;" d="M43.024,55.192C43.01,55.082,42.918,55,42.808,55H37h-5.808c-0.11,0-0.202,0.082-0.216,0.192
				C30.194,61.298,28,66.721,28,71.482v8.693C28,80.631,28.353,81,28.788,81c11.598,0,5.329-0.003,16.455,0
				c0.435,0,0.787-0.369,0.787-0.824v-8.74C46.03,66.654,43.808,61.287,43.024,55.192z"/>
		</g>
		<g>
			<path style="fill:#5B5C5F;" d="M37,55h-6c-0.76,6.185-3,11.671-3,16.482v8.693C28,80.631,28.353,81,28.788,81H37V55z"/>
		</g>
	</g>
</g>
<g id="Blue" style="display:none;">
	<g style="display:inline;">
		<g>
			<path style="fill:#E1F5FA;" d="M61.03,58h16c0.251,0,0.474,0.101,0.649,0.254c0.855-1.104,1.351-2.384,1.351-3.754
				c0-4.142-4.478-7.5-10-7.5c-5.523,0-10,3.358-10,7.5c0,1.37,0.495,2.65,1.351,3.754C60.557,58.101,60.779,58,61.03,58z"/>
			<path style="fill:#E1F5FA;" d="M76.861,62H61.199c-5.107,6.266-7.823,12.722-8.139,22.938c-0.016,0.54,0.188,1.065,0.564,1.454
				C54.001,86.78,54.519,87,55.061,87H83c0.541,0,1.06-0.22,1.437-0.608c0.376-0.389,0.579-0.913,0.562-1.454
				C84.685,74.722,81.969,68.266,76.861,62z"/>
		</g>
		<g>
			<path style="fill:#FFFFFF;" d="M59.03,54.5c0,1.37,0.495,2.65,1.351,3.754C60.557,58.101,60.779,58,61.03,58h8V47
				C63.508,47,59.03,50.358,59.03,54.5z"/>
			<path style="fill:#FFFFFF;" d="M53.061,84.938c-0.016,0.54,0.188,1.065,0.564,1.454C54.001,86.78,54.519,87,55.061,87h13.97V62
				h-7.831C56.092,68.266,53.376,74.722,53.061,84.938z"/>
		</g>
		<g>
			<path style="fill:#E1F5FA;" d="M46.655,40H27.404c5.264,14.482-2.374,25.042-2.374,35c0,6.488,0,9.608,0,11c0,0.552,0.448,1,1,1
				h22c0.552,0,1-0.448,1-1c0-1.392,0-4.512,0-11C49.03,64.994,41.393,54.48,46.655,40z"/>
		</g>
		<g>
			<path style="fill:#FFFFFF;" d="M37.03,39h-10c6,15-2,25.813-2,36c0,6.488,0,9.608,0,11c0,0.552,0.448,1,1,1h11V39z"/>
		</g>
		<g>
			<circle style="fill:#BBE7F2;" cx="37.03" cy="25" r="2"/>
		</g>
		<g>
			<circle style="fill:#0F6175;" cx="65.03" cy="51" r="1"/>
		</g>
		<g>
			<circle style="fill:#0F6175;" cx="69.03" cy="51" r="1"/>
		</g>
		<g>
			<circle style="fill:#0F6175;" cx="73.03" cy="51" r="1"/>
		</g>
		<g>
			<path style="fill:#0081A1;" d="M78.03,61c0,0.552-0.448,1-1,1h-16c-0.552,0-1-0.448-1-1v-2c0-0.552,0.448-1,1-1h16
				c0.552,0,1,0.448,1,1V61z"/>
		</g>
		<g>
			<path style="fill:#FFFFFF;" d="M35.03,25c0,1.104,0.896,2,2,2v-4C35.926,23,35.03,23.896,35.03,25z"/>
		</g>
		<g>
			<path style="fill:#009FC7;" d="M69.03,58h-8c-0.552,0-1,0.448-1,1v2c0,0.552,0.448,1,1,1h8V58z"/>
		</g>
		<g>
			<path style="fill:#0C333D;" d="M27.344,40h19.373c1.448-2,2.313-3.092,2.313-4.854c0-4.418-5.372-8.073-12-8.073
				c-6.628,0-12,3.691-12,8.109C25.03,36.945,25.896,38,27.344,40z"/>
		</g>
		<g>
			<path style="fill:#0F6175;" d="M25.03,35.183c0,1.762,0.865,2.817,2.313,4.817h9.687V27.073
				C30.402,27.073,25.03,30.764,25.03,35.183z"/>
		</g>
		<g>
			<path style="fill:#BBE7F2;" d="M44.168,40.767c0.094-0.256,0.121-0.514,0.117-0.767h-14.51c-0.004,0.253,0.023,0.512,0.117,0.769
				c4.129,11.345-1.862,22.929-1.862,30.667L28,81h18l0.03-9.564C46.03,63.661,40.037,52.118,44.168,40.767z"/>
		</g>
		<g>
			<path style="fill:#E1F5FA;" d="M29.775,40c-0.004,0.253,0.023,0.512,0.117,0.769c4.129,11.345-1.862,22.929-1.862,30.667L28,81h9
				l0.03-41H29.775z"/>
		</g>
		<g>
			<path style="fill:#0C333D;" d="M43.023,55.192C43.01,55.083,42.918,55,42.809,55H37h-5.809c-0.109,0-0.201,0.083-0.216,0.192
				C30.194,61.299,28,66.721,28,71.482v8.693C28,80.631,28.353,81,28.787,81c11.598,0,5.329-0.003,16.455,0
				c0.436,0,0.788-0.369,0.788-0.824v-8.74C46.03,66.654,43.808,61.287,43.023,55.192z"/>
		</g>
		<g>
			<path style="fill:#0F6175;" d="M37,55h-6c-0.76,6.185-3,11.671-3,16.482v8.693C28,80.631,28.353,81,28.787,81H37V55z"/>
		</g>
	</g>
</g>
<g id="R-Blue" style="display:none;">
	<circle style="display:inline;fill:#81D2EB;" cx="55" cy="55" r="55"/>
	<g style="display:inline;">
		<g>
			<path style="fill:#E1F5FA;" d="M61.03,58h16c0.251,0,0.474,0.101,0.649,0.254c0.855-1.104,1.351-2.384,1.351-3.754
				c0-4.142-4.478-7.5-10-7.5c-5.523,0-10,3.358-10,7.5c0,1.37,0.495,2.65,1.351,3.754C60.557,58.101,60.779,58,61.03,58z"/>
			<path style="fill:#E1F5FA;" d="M76.861,62H61.199c-5.107,6.266-7.823,12.722-8.139,22.938c-0.016,0.54,0.188,1.065,0.564,1.454
				C54.001,86.78,54.519,87,55.061,87H83c0.541,0,1.06-0.22,1.437-0.608c0.376-0.389,0.579-0.913,0.562-1.454
				C84.685,74.722,81.969,68.266,76.861,62z"/>
		</g>
		<g>
			<path style="fill:#FFFFFF;" d="M59.03,54.5c0,1.37,0.495,2.65,1.351,3.754C60.557,58.101,60.779,58,61.03,58h8V47
				C63.508,47,59.03,50.358,59.03,54.5z"/>
			<path style="fill:#FFFFFF;" d="M53.061,84.938c-0.016,0.54,0.188,1.065,0.564,1.454C54.001,86.78,54.519,87,55.061,87h13.97V62
				h-7.831C56.092,68.266,53.376,74.722,53.061,84.938z"/>
		</g>
		<g>
			<path style="fill:#E1F5FA;" d="M46.655,40H27.404c5.264,14.482-2.374,25.042-2.374,35c0,6.488,0,9.608,0,11c0,0.552,0.448,1,1,1
				h22c0.552,0,1-0.448,1-1c0-1.392,0-4.512,0-11C49.03,64.994,41.393,54.48,46.655,40z"/>
		</g>
		<g>
			<path style="fill:#FFFFFF;" d="M37.03,39h-10c6,15-2,25.814-2,36c0,6.488,0,9.608,0,11c0,0.552,0.448,1,1,1h11V39z"/>
		</g>
		<g>
			<circle style="fill:#BBE7F2;" cx="37.03" cy="25" r="2"/>
		</g>
		<g>
			<circle style="fill:#0F6175;" cx="65.03" cy="51" r="1"/>
		</g>
		<g>
			<circle style="fill:#0F6175;" cx="69.03" cy="51" r="1"/>
		</g>
		<g>
			<circle style="fill:#0F6175;" cx="73.03" cy="51" r="1"/>
		</g>
		<g>
			<path style="fill:#0081A1;" d="M78.03,61c0,0.552-0.448,1-1,1h-16c-0.552,0-1-0.448-1-1v-2c0-0.552,0.448-1,1-1h16
				c0.552,0,1,0.448,1,1V61z"/>
		</g>
		<g>
			<path style="fill:#FFFFFF;" d="M35.03,25c0,1.104,0.896,2,2,2v-4C35.926,23,35.03,23.895,35.03,25z"/>
		</g>
		<g>
			<path style="fill:#009FC7;" d="M69.03,58h-8c-0.552,0-1,0.448-1,1v2c0,0.552,0.448,1,1,1h8V58z"/>
		</g>
		<g>
			<path style="fill:#0C333D;" d="M27.344,40h19.373c1.448-2,2.313-3.092,2.313-4.854c0-4.418-5.372-8.073-12-8.073
				c-6.628,0-12,3.691-12,8.109C25.03,36.945,25.896,38,27.344,40z"/>
		</g>
		<g>
			<path style="fill:#0F6175;" d="M25.03,35.183c0,1.762,0.865,2.817,2.313,4.817h9.687V27.073
				C30.402,27.073,25.03,30.764,25.03,35.183z"/>
		</g>
		<g>
			<path style="fill:#BBE7F2;" d="M44.168,40.767c0.094-0.256,0.121-0.514,0.117-0.767h-14.51c-0.004,0.253,0.023,0.512,0.117,0.769
				c4.129,11.345-1.862,22.929-1.862,30.667L28,81h18l0.03-9.565C46.03,63.661,40.037,52.118,44.168,40.767z"/>
		</g>
		<g>
			<path style="fill:#E1F5FA;" d="M29.775,40c-0.004,0.253,0.023,0.512,0.117,0.769c4.129,11.345-1.862,22.929-1.862,30.667L28,81h9
				l0.03-41H29.775z"/>
		</g>
		<g>
			<path style="fill:#0C333D;" d="M43.023,55.192C43.01,55.082,42.918,55,42.809,55H37h-5.809c-0.109,0-0.201,0.083-0.216,0.192
				C30.194,61.299,28,66.721,28,71.482v8.693C28,80.631,28.353,81,28.787,81c11.598,0,5.329-0.003,16.455,0
				c0.436,0,0.788-0.369,0.788-0.824v-8.74C46.03,66.654,43.808,61.287,43.023,55.192z"/>
		</g>
		<g>
			<path style="fill:#0F6175;" d="M37,55h-6c-0.76,6.185-3,11.671-3,16.482v8.693C28,80.631,28.353,81,28.787,81H37V55z"/>
		</g>
	</g>
</g>
<g id="Green" style="display:none;">
	<g style="display:inline;">
		<g>
			<path style="fill:#D7FCF9;" d="M61.03,58h16c0.251,0,0.474,0.101,0.649,0.254c0.855-1.104,1.351-2.384,1.351-3.754
				c0-4.142-4.478-7.5-10-7.5c-5.522,0-10,3.358-10,7.5c0,1.37,0.495,2.65,1.351,3.754C60.557,58.101,60.779,58,61.03,58z"/>
			<path style="fill:#D7FCF9;" d="M76.861,62H61.199c-5.107,6.266-7.823,12.722-8.139,22.938c-0.016,0.54,0.188,1.065,0.564,1.454
				C54.001,86.78,54.519,87,55.06,87H83c0.541,0,1.06-0.22,1.437-0.608c0.376-0.389,0.579-0.913,0.562-1.454
				C84.685,74.722,81.969,68.266,76.861,62z"/>
		</g>
		<g>
			<path style="fill:#FFFFFF;" d="M59.03,54.5c0,1.37,0.495,2.65,1.351,3.754C60.557,58.101,60.779,58,61.03,58h8V47
				C63.508,47,59.03,50.358,59.03,54.5z"/>
			<path style="fill:#FFFFFF;" d="M53.06,84.938c-0.016,0.54,0.188,1.065,0.564,1.454C54.001,86.78,54.519,87,55.06,87h13.97V62
				h-7.831C56.092,68.266,53.376,74.722,53.06,84.938z"/>
		</g>
		<g>
			<path style="fill:#D7FCF9;" d="M46.655,40H27.404c5.264,14.482-2.374,25.042-2.374,35c0,6.488,0,9.608,0,11c0,0.552,0.448,1,1,1
				h22c0.552,0,1-0.448,1-1c0-1.392,0-4.512,0-11C49.03,64.994,41.393,54.48,46.655,40z"/>
		</g>
		<g>
			<path style="fill:#FFFFFF;" d="M37.03,39h-10c6,15-2,25.813-2,36c0,6.488,0,9.608,0,11c0,0.552,0.448,1,1,1h11V39z"/>
		</g>
		<g>
			<circle style="fill:#AAF0E9;" cx="37.03" cy="25" r="2"/>
		</g>
		<g>
			<circle style="fill:#14635B;" cx="65.03" cy="51" r="1"/>
		</g>
		<g>
			<circle style="fill:#14635B;" cx="69.03" cy="51" r="1"/>
		</g>
		<g>
			<circle style="fill:#14635B;" cx="73.03" cy="51" r="1"/>
		</g>
		<g>
			<path style="fill:#009687;" d="M78.03,61c0,0.552-0.448,1-1,1h-16c-0.552,0-1-0.448-1-1v-2c0-0.552,0.448-1,1-1h16
				c0.552,0,1,0.448,1,1V61z"/>
		</g>
		<g>
			<path style="fill:#FFFFFF;" d="M35.03,25c0,1.104,0.896,2,2,2v-4C35.926,23,35.03,23.896,35.03,25z"/>
		</g>
		<g>
			<path style="fill:#00B8A5;" d="M69.03,58h-8c-0.552,0-1,0.448-1,1v2c0,0.552,0.448,1,1,1h8V58z"/>
		</g>
		<g>
			<path style="fill:#0A3631;" d="M27.344,40h19.373c1.448-2,2.313-3.092,2.313-4.854c0-4.418-5.372-8.073-12-8.073
				c-6.628,0-12,3.691-12,8.109C25.03,36.945,25.895,38,27.344,40z"/>
		</g>
		<g>
			<path style="fill:#14635B;" d="M25.03,35.183c0,1.762,0.865,2.817,2.313,4.817h9.687V27.073
				C30.402,27.073,25.03,30.764,25.03,35.183z"/>
		</g>
		<g>
			<path style="fill:#AAF0E9;" d="M44.168,40.767c0.094-0.256,0.121-0.514,0.117-0.767h-14.51c-0.004,0.253,0.023,0.512,0.117,0.769
				c4.129,11.345-1.862,22.929-1.862,30.667L28,81h18l0.03-9.564C46.03,63.661,40.037,52.118,44.168,40.767z"/>
		</g>
		<g>
			<path style="fill:#D7FCF9;" d="M29.775,40c-0.004,0.253,0.023,0.512,0.117,0.769c4.129,11.345-1.862,22.929-1.862,30.667L28,81h9
				l0.03-41H29.775z"/>
		</g>
		<g>
			<path style="fill:#0A3631;" d="M43.023,55.192C43.01,55.083,42.918,55,42.809,55H37h-5.809c-0.109,0-0.201,0.083-0.216,0.192
				C30.194,61.299,28,66.721,28,71.482v8.693C28,80.631,28.352,81,28.787,81c11.598,0,5.329-0.003,16.455,0
				c0.436,0,0.788-0.369,0.788-0.824v-8.74C46.03,66.654,43.808,61.287,43.023,55.192z"/>
		</g>
		<g>
			<path style="fill:#14635B;" d="M37,55h-6c-0.76,6.185-3,11.671-3,16.482v8.693C28,80.631,28.352,81,28.787,81H37V55z"/>
		</g>
	</g>
</g>
<g id="R-Green" style="display:none;">
	<circle style="display:inline;fill:#77E0C4;" cx="55" cy="55" r="55"/>
	<g style="display:inline;">
		<g>
			<path style="fill:#D7FCF9;" d="M61.03,58h16c0.251,0,0.474,0.101,0.649,0.254c0.855-1.104,1.351-2.384,1.351-3.754
				c0-4.142-4.478-7.5-10-7.5c-5.522,0-10,3.358-10,7.5c0,1.37,0.495,2.65,1.351,3.754C60.557,58.101,60.779,58,61.03,58z"/>
			<path style="fill:#D7FCF9;" d="M76.861,62H61.199c-5.107,6.266-7.823,12.722-8.139,22.938c-0.016,0.54,0.188,1.065,0.564,1.454
				C54.001,86.78,54.519,87,55.061,87H83c0.541,0,1.06-0.22,1.437-0.608c0.376-0.389,0.579-0.913,0.562-1.454
				C84.685,74.722,81.969,68.266,76.861,62z"/>
		</g>
		<g>
			<path style="fill:#FFFFFF;" d="M59.03,54.5c0,1.37,0.495,2.65,1.351,3.754C60.557,58.101,60.779,58,61.03,58h8V47
				C63.508,47,59.03,50.358,59.03,54.5z"/>
			<path style="fill:#FFFFFF;" d="M53.061,84.938c-0.016,0.54,0.188,1.065,0.564,1.454C54.001,86.78,54.519,87,55.061,87h13.97V62
				h-7.831C56.092,68.266,53.376,74.722,53.061,84.938z"/>
		</g>
		<g>
			<path style="fill:#D7FCF9;" d="M46.655,40H27.404c5.264,14.482-2.374,25.042-2.374,35c0,6.488,0,9.608,0,11c0,0.552,0.448,1,1,1
				h22c0.552,0,1-0.448,1-1c0-1.392,0-4.512,0-11C49.03,64.994,41.393,54.48,46.655,40z"/>
		</g>
		<g>
			<path style="fill:#FFFFFF;" d="M37.03,39h-10c6,15-2,25.813-2,36c0,6.488,0,9.608,0,11c0,0.552,0.448,1,1,1h11V39z"/>
		</g>
		<g>
			<circle style="fill:#AAF0E9;" cx="37.03" cy="25" r="2"/>
		</g>
		<g>
			<circle style="fill:#14635B;" cx="65.03" cy="51" r="1"/>
		</g>
		<g>
			<circle style="fill:#14635B;" cx="69.03" cy="51" r="1"/>
		</g>
		<g>
			<circle style="fill:#14635B;" cx="73.03" cy="51" r="1"/>
		</g>
		<g>
			<path style="fill:#009687;" d="M78.03,61c0,0.552-0.448,1-1,1h-16c-0.552,0-1-0.448-1-1v-2c0-0.552,0.448-1,1-1h16
				c0.552,0,1,0.448,1,1V61z"/>
		</g>
		<g>
			<path style="fill:#FFFFFF;" d="M35.03,25c0,1.104,0.896,2,2,2v-4C35.926,23,35.03,23.896,35.03,25z"/>
		</g>
		<g>
			<path style="fill:#00B8A5;" d="M69.03,58h-8c-0.552,0-1,0.448-1,1v2c0,0.552,0.448,1,1,1h8V58z"/>
		</g>
		<g>
			<path style="fill:#0A3631;" d="M27.344,40h19.373c1.448-2,2.313-3.092,2.313-4.854c0-4.418-5.372-8.073-12-8.073
				c-6.628,0-12,3.691-12,8.109C25.03,36.945,25.896,38,27.344,40z"/>
		</g>
		<g>
			<path style="fill:#14635B;" d="M25.03,35.183c0,1.762,0.865,2.817,2.313,4.817h9.687V27.073
				C30.402,27.073,25.03,30.764,25.03,35.183z"/>
		</g>
		<g>
			<path style="fill:#AAF0E9;" d="M44.168,40.767c0.094-0.256,0.121-0.514,0.117-0.767h-14.51c-0.004,0.253,0.023,0.512,0.117,0.769
				c4.129,11.345-1.862,22.929-1.862,30.667L28,81h18l0.03-9.564C46.03,63.661,40.037,52.118,44.168,40.767z"/>
		</g>
		<g>
			<path style="fill:#D7FCF9;" d="M29.775,40c-0.004,0.253,0.023,0.512,0.117,0.769c4.129,11.345-1.862,22.929-1.862,30.667L28,81h9
				l0.03-41H29.775z"/>
		</g>
		<g>
			<path style="fill:#0A3631;" d="M43.023,55.192C43.01,55.083,42.918,55,42.809,55H37h-5.809c-0.109,0-0.201,0.083-0.216,0.192
				C30.194,61.299,28,66.721,28,71.482v8.693C28,80.631,28.353,81,28.787,81c11.598,0,5.329-0.003,16.455,0
				c0.436,0,0.788-0.369,0.788-0.824v-8.74C46.03,66.654,43.808,61.287,43.023,55.192z"/>
		</g>
		<g>
			<path style="fill:#14635B;" d="M37,55h-6c-0.76,6.185-3,11.671-3,16.482v8.693C28,80.631,28.353,81,28.787,81H37V55z"/>
		</g>
	</g>
</g>
<g id="Red" style="display:none;">
	<g style="display:inline;">
		<g>
			<path style="fill:#FFEFED;" d="M61.03,58h16c0.251,0,0.474,0.101,0.649,0.254c0.855-1.104,1.351-2.384,1.351-3.754
				c0-4.142-4.478-7.5-10-7.5c-5.522,0-10,3.358-10,7.5c0,1.37,0.495,2.65,1.351,3.754C60.557,58.101,60.779,58,61.03,58z"/>
			<path style="fill:#FFEFED;" d="M76.861,62H61.199c-5.107,6.266-7.823,12.722-8.139,22.938c-0.016,0.54,0.188,1.065,0.564,1.454
				C54.001,86.78,54.519,87,55.061,87H83c0.541,0,1.06-0.22,1.437-0.608c0.376-0.389,0.579-0.913,0.562-1.454
				C84.685,74.722,81.969,68.266,76.861,62z"/>
		</g>
		<g>
			<path style="fill:#FFFFFF;" d="M59.03,54.5c0,1.37,0.495,2.65,1.351,3.754C60.557,58.101,60.779,58,61.03,58h8V47
				C63.508,47,59.03,50.358,59.03,54.5z"/>
			<path style="fill:#FFFFFF;" d="M53.061,84.938c-0.016,0.54,0.188,1.065,0.564,1.454C54.001,86.78,54.519,87,55.061,87h13.97V62
				h-7.831C56.092,68.266,53.376,74.722,53.061,84.938z"/>
		</g>
		<g>
			<path style="fill:#FFEFED;" d="M46.655,40H27.404c5.264,14.482-2.374,25.042-2.374,35c0,6.488,0,9.608,0,11c0,0.552,0.448,1,1,1
				h22c0.552,0,1-0.448,1-1c0-1.392,0-4.512,0-11C49.03,64.994,41.393,54.48,46.655,40z"/>
		</g>
		<g>
			<path style="fill:#FFFFFF;" d="M37.03,39h-10c6,15-2,25.813-2,36c0,6.488,0,9.608,0,11c0,0.552,0.448,1,1,1h11V39z"/>
		</g>
		<g>
			<circle style="fill:#FFD7D4;" cx="37.03" cy="25" r="2"/>
		</g>
		<g>
			<circle style="fill:#7D261E;" cx="65.03" cy="51" r="1"/>
		</g>
		<g>
			<circle style="fill:#7D261E;" cx="69.03" cy="51" r="1"/>
		</g>
		<g>
			<circle style="fill:#7D261E;" cx="73.03" cy="51" r="1"/>
		</g>
		<g>
			<path style="fill:#C23023;" d="M78.03,61c0,0.552-0.448,1-1,1h-16c-0.552,0-1-0.448-1-1v-2c0-0.552,0.448-1,1-1h16
				c0.552,0,1,0.448,1,1V61z"/>
		</g>
		<g>
			<path style="fill:#FFFFFF;" d="M35.03,25c0,1.104,0.896,2,2,2v-4C35.926,23,35.03,23.896,35.03,25z"/>
		</g>
		<g>
			<path style="fill:#E54B44;" d="M69.03,58h-8c-0.552,0-1,0.448-1,1v2c0,0.552,0.448,1,1,1h8V58z"/>
		</g>
		<g>
			<path style="fill:#4A1410;" d="M27.344,40h19.373c1.448-2,2.313-3.092,2.313-4.854c0-4.418-5.372-8.073-12-8.073
				c-6.628,0-12,3.691-12,8.109C25.03,36.945,25.896,38,27.344,40z"/>
		</g>
		<g>
			<path style="fill:#7D261E;" d="M25.03,35.183c0,1.762,0.865,2.817,2.313,4.817h9.687V27.073
				C30.402,27.073,25.03,30.764,25.03,35.183z"/>
		</g>
		<g>
			<path style="fill:#FFD7D4;" d="M44.168,40.767c0.094-0.256,0.121-0.514,0.117-0.767h-14.51c-0.004,0.253,0.023,0.512,0.117,0.769
				c4.129,11.345-1.862,22.929-1.862,30.667L28,81h18l0.03-9.564C46.03,63.661,40.037,52.118,44.168,40.767z"/>
		</g>
		<g>
			<path style="fill:#FFEFED;" d="M29.775,40c-0.004,0.253,0.023,0.512,0.117,0.769c4.129,11.345-1.862,22.929-1.862,30.667L28,81h9
				l0.03-41H29.775z"/>
		</g>
		<g>
			<path style="fill:#4A1410;" d="M43.023,55.192C43.01,55.083,42.918,55,42.809,55H37h-5.809c-0.109,0-0.201,0.083-0.216,0.192
				C30.194,61.299,28,66.721,28,71.482v8.693C28,80.631,28.353,81,28.787,81c11.598,0,5.329-0.003,16.455,0
				c0.436,0,0.788-0.369,0.788-0.824v-8.74C46.03,66.654,43.808,61.287,43.023,55.192z"/>
		</g>
		<g>
			<path style="fill:#7D261E;" d="M37,55h-6c-0.76,6.185-3,11.671-3,16.482v8.693C28,80.631,28.353,81,28.787,81H37V55z"/>
		</g>
	</g>
</g>
<g id="R-Red" style="display:none;">
	<circle style="display:inline;fill:#FABBAF;" cx="55" cy="55" r="55"/>
	<g style="display:inline;">
		<g>
			<path style="fill:#FFEFED;" d="M61.03,58h16c0.251,0,0.474,0.101,0.649,0.254c0.855-1.104,1.351-2.384,1.351-3.754
				c0-4.142-4.478-7.5-10-7.5c-5.522,0-10,3.358-10,7.5c0,1.37,0.495,2.65,1.351,3.754C60.557,58.101,60.779,58,61.03,58z"/>
			<path style="fill:#FFEFED;" d="M76.861,62H61.199c-5.107,6.266-7.823,12.722-8.139,22.938c-0.016,0.54,0.188,1.065,0.564,1.454
				C54.001,86.78,54.519,87,55.061,87H83c0.541,0,1.06-0.22,1.437-0.608c0.376-0.389,0.579-0.913,0.562-1.454
				C84.685,74.722,81.969,68.266,76.861,62z"/>
		</g>
		<g>
			<path style="fill:#FFFFFF;" d="M59.03,54.5c0,1.37,0.495,2.65,1.351,3.754C60.557,58.101,60.779,58,61.03,58h8V47
				C63.508,47,59.03,50.358,59.03,54.5z"/>
			<path style="fill:#FFFFFF;" d="M53.061,84.938c-0.016,0.54,0.188,1.065,0.564,1.454C54.001,86.78,54.519,87,55.061,87h13.97V62
				h-7.831C56.092,68.266,53.376,74.722,53.061,84.938z"/>
		</g>
		<g>
			<path style="fill:#FFEFED;" d="M46.655,40H27.404c5.264,14.482-2.374,25.042-2.374,35c0,6.488,0,9.608,0,11c0,0.552,0.448,1,1,1
				h22c0.552,0,1-0.448,1-1c0-1.392,0-4.512,0-11C49.03,64.994,41.393,54.48,46.655,40z"/>
		</g>
		<g>
			<path style="fill:#FFFFFF;" d="M37.03,39h-10c6,15-2,25.813-2,36c0,6.488,0,9.608,0,11c0,0.552,0.448,1,1,1h11V39z"/>
		</g>
		<g>
			<circle style="fill:#FFD7D4;" cx="37.03" cy="25" r="2"/>
		</g>
		<g>
			<circle style="fill:#7D261E;" cx="65.03" cy="51" r="1"/>
		</g>
		<g>
			<circle style="fill:#7D261E;" cx="69.03" cy="51" r="1"/>
		</g>
		<g>
			<circle style="fill:#7D261E;" cx="73.03" cy="51" r="1"/>
		</g>
		<g>
			<path style="fill:#C23023;" d="M78.03,61c0,0.552-0.448,1-1,1h-16c-0.552,0-1-0.448-1-1v-2c0-0.552,0.448-1,1-1h16
				c0.552,0,1,0.448,1,1V61z"/>
		</g>
		<g>
			<path style="fill:#FFFFFF;" d="M35.03,25c0,1.104,0.896,2,2,2v-4C35.926,23,35.03,23.896,35.03,25z"/>
		</g>
		<g>
			<path style="fill:#E54B44;" d="M69.03,58h-8c-0.552,0-1,0.448-1,1v2c0,0.552,0.448,1,1,1h8V58z"/>
		</g>
		<g>
			<path style="fill:#4A1410;" d="M27.344,40h19.373c1.448-2,2.313-3.092,2.313-4.854c0-4.418-5.372-8.073-12-8.073
				c-6.628,0-12,3.691-12,8.109C25.03,36.945,25.896,38,27.344,40z"/>
		</g>
		<g>
			<path style="fill:#7D261E;" d="M25.03,35.183c0,1.762,0.865,2.817,2.313,4.817h9.687V27.073
				C30.402,27.073,25.03,30.764,25.03,35.183z"/>
		</g>
		<g>
			<path style="fill:#FFD7D4;" d="M44.168,40.767c0.094-0.256,0.121-0.514,0.117-0.767h-14.51c-0.004,0.253,0.023,0.512,0.117,0.769
				c4.129,11.345-1.862,22.929-1.862,30.667L28,81h18l0.03-9.564C46.03,63.661,40.037,52.118,44.168,40.767z"/>
		</g>
		<g>
			<path style="fill:#FFEFED;" d="M29.775,40c-0.004,0.253,0.023,0.512,0.117,0.769c4.129,11.345-1.862,22.929-1.862,30.667L28,81h9
				l0.03-41H29.775z"/>
		</g>
		<g>
			<path style="fill:#4A1410;" d="M43.023,55.192C43.01,55.083,42.918,55,42.809,55H37h-5.809c-0.109,0-0.201,0.083-0.216,0.192
				C30.194,61.299,28,66.721,28,71.482v8.693C28,80.631,28.353,81,28.787,81c11.598,0,5.329-0.003,16.455,0
				c0.436,0,0.788-0.369,0.788-0.824v-8.74C46.03,66.654,43.808,61.287,43.023,55.192z"/>
		</g>
		<g>
			<path style="fill:#7D261E;" d="M37,55h-6c-0.76,6.185-3,11.671-3,16.482v8.693C28,80.631,28.353,81,28.787,81H37V55z"/>
		</g>
	</g>
</g>
<g id="Yellow" style="display:none;">
	<g style="display:inline;">
		<g>
			<path style="fill:#FFF5D9;" d="M61.03,58h16c0.251,0,0.474,0.101,0.649,0.254c0.855-1.104,1.351-2.384,1.351-3.754
				c0-4.142-4.478-7.5-10-7.5c-5.522,0-10,3.358-10,7.5c0,1.37,0.495,2.65,1.351,3.754C60.557,58.101,60.779,58,61.03,58z"/>
			<path style="fill:#FFF5D9;" d="M76.861,62H61.199c-5.107,6.266-7.823,12.722-8.139,22.938c-0.016,0.54,0.188,1.065,0.564,1.454
				C54.001,86.78,54.519,87,55.061,87H83c0.541,0,1.06-0.22,1.437-0.608c0.376-0.389,0.579-0.913,0.562-1.454
				C84.685,74.722,81.969,68.266,76.861,62z"/>
		</g>
		<g>
			<path style="fill:#FFFFFF;" d="M59.03,54.5c0,1.37,0.495,2.65,1.351,3.754C60.557,58.101,60.779,58,61.03,58h8V47
				C63.508,47,59.03,50.358,59.03,54.5z"/>
			<path style="fill:#FFFFFF;" d="M53.061,84.938c-0.016,0.54,0.188,1.065,0.564,1.454C54.001,86.78,54.519,87,55.061,87h13.97V62
				h-7.831C56.092,68.266,53.376,74.722,53.061,84.938z"/>
		</g>
		<g>
			<path style="fill:#FFF5D9;" d="M46.655,40H27.404c5.264,14.482-2.374,25.042-2.374,35c0,6.488,0,9.608,0,11c0,0.552,0.448,1,1,1
				h22c0.552,0,1-0.448,1-1c0-1.392,0-4.512,0-11C49.03,64.994,41.393,54.48,46.655,40z"/>
		</g>
		<g>
			<path style="fill:#FFFFFF;" d="M37.03,39h-10c6,15-2,25.813-2,36c0,6.488,0,9.608,0,11c0,0.552,0.448,1,1,1h11V39z"/>
		</g>
		<g>
			<circle style="fill:#FFE9A1;" cx="37.03" cy="25" r="2"/>
		</g>
		<g>
			<circle style="fill:#66510D;" cx="65.03" cy="51" r="1"/>
		</g>
		<g>
			<circle style="fill:#66510D;" cx="69.03" cy="51" r="1"/>
		</g>
		<g>
			<circle style="fill:#66510D;" cx="73.03" cy="51" r="1"/>
		</g>
		<g>
			<path style="fill:#E07000;" d="M78.03,61c0,0.552-0.448,1-1,1h-16c-0.552,0-1-0.448-1-1v-2c0-0.552,0.448-1,1-1h16
				c0.552,0,1,0.448,1,1V61z"/>
		</g>
		<g>
			<path style="fill:#FFFFFF;" d="M35.03,25c0,1.104,0.896,2,2,2v-4C35.926,23,35.03,23.896,35.03,25z"/>
		</g>
		<g>
			<path style="fill:#FA9200;" d="M69.03,58h-8c-0.552,0-1,0.448-1,1v2c0,0.552,0.448,1,1,1h8V58z"/>
		</g>
		<g>
			<path style="fill:#3D320C;" d="M27.344,40h19.373c1.448-2,2.313-3.092,2.313-4.854c0-4.418-5.372-8.073-12-8.073
				c-6.628,0-12,3.691-12,8.109C25.03,36.945,25.896,38,27.344,40z"/>
		</g>
		<g>
			<path style="fill:#66510D;" d="M25.03,35.183c0,1.762,0.865,2.817,2.313,4.817h9.687V27.073
				C30.402,27.073,25.03,30.764,25.03,35.183z"/>
		</g>
		<g>
			<path style="fill:#FFE9A1;" d="M44.168,40.767c0.094-0.256,0.121-0.514,0.117-0.767h-14.51c-0.004,0.253,0.023,0.512,0.117,0.769
				c4.129,11.345-1.862,22.929-1.862,30.667L28,81h18l0.03-9.564C46.03,63.661,40.037,52.118,44.168,40.767z"/>
		</g>
		<g>
			<path style="fill:#FFF5D9;" d="M29.775,40c-0.004,0.253,0.023,0.512,0.117,0.769c4.129,11.345-1.862,22.929-1.862,30.667L28,81h9
				l0.03-41H29.775z"/>
		</g>
		<g>
			<path style="fill:#3D320C;" d="M43.023,55.192C43.01,55.083,42.918,55,42.809,55H37h-5.809c-0.109,0-0.201,0.083-0.216,0.192
				C30.194,61.299,28,66.721,28,71.482v8.693C28,80.631,28.353,81,28.787,81c11.598,0,5.329-0.003,16.455,0
				c0.436,0,0.788-0.369,0.788-0.824v-8.74C46.03,66.654,43.808,61.287,43.023,55.192z"/>
		</g>
		<g>
			<path style="fill:#66510D;" d="M37,55h-6c-0.76,6.185-3,11.671-3,16.482v8.693C28,80.631,28.353,81,28.787,81H37V55z"/>
		</g>
	</g>
</g>
<g id="R-Yellow" style="display:none;">
	<circle style="display:inline;fill:#FFD75E;" cx="55" cy="55" r="55"/>
	<g style="display:inline;">
		<g>
			<path style="fill:#FFF5D9;" d="M61.03,58h16c0.251,0,0.474,0.101,0.649,0.254c0.855-1.104,1.351-2.384,1.351-3.754
				c0-4.142-4.478-7.5-10-7.5c-5.522,0-10,3.358-10,7.5c0,1.37,0.495,2.65,1.351,3.754C60.557,58.101,60.779,58,61.03,58z"/>
			<path style="fill:#FFF5D9;" d="M76.861,62H61.199c-5.107,6.266-7.823,12.722-8.139,22.938c-0.016,0.54,0.188,1.065,0.564,1.454
				C54.001,86.78,54.519,87,55.06,87H83c0.541,0,1.06-0.22,1.437-0.608c0.376-0.389,0.579-0.913,0.562-1.454
				C84.685,74.722,81.969,68.266,76.861,62z"/>
		</g>
		<g>
			<path style="fill:#FFFFFF;" d="M59.03,54.5c0,1.37,0.495,2.65,1.351,3.754C60.557,58.101,60.779,58,61.03,58h8V47
				C63.508,47,59.03,50.358,59.03,54.5z"/>
			<path style="fill:#FFFFFF;" d="M53.06,84.938c-0.016,0.54,0.188,1.065,0.564,1.454C54.001,86.78,54.519,87,55.06,87h13.97V62
				h-7.831C56.092,68.266,53.376,74.722,53.06,84.938z"/>
		</g>
		<g>
			<path style="fill:#FFF5D9;" d="M46.655,40H27.404c5.264,14.482-2.374,25.042-2.374,35c0,6.488,0,9.608,0,11c0,0.552,0.448,1,1,1
				h22c0.552,0,1-0.448,1-1c0-1.392,0-4.512,0-11C49.03,64.994,41.393,54.48,46.655,40z"/>
		</g>
		<g>
			<path style="fill:#FFFFFF;" d="M37.03,39h-10c6,15-2,25.813-2,36c0,6.488,0,9.608,0,11c0,0.552,0.448,1,1,1h11V39z"/>
		</g>
		<g>
			<circle style="fill:#FFE9A1;" cx="37.03" cy="25" r="2"/>
		</g>
		<g>
			<circle style="fill:#66510D;" cx="65.03" cy="51" r="1"/>
		</g>
		<g>
			<circle style="fill:#66510D;" cx="69.03" cy="51" r="1"/>
		</g>
		<g>
			<circle style="fill:#66510D;" cx="73.03" cy="51" r="1"/>
		</g>
		<g>
			<path style="fill:#E07000;" d="M78.03,61c0,0.552-0.448,1-1,1h-16c-0.552,0-1-0.448-1-1v-2c0-0.552,0.448-1,1-1h16
				c0.552,0,1,0.448,1,1V61z"/>
		</g>
		<g>
			<path style="fill:#FFFFFF;" d="M35.03,25c0,1.104,0.896,2,2,2v-4C35.926,23,35.03,23.896,35.03,25z"/>
		</g>
		<g>
			<path style="fill:#FA9200;" d="M69.03,58h-8c-0.552,0-1,0.448-1,1v2c0,0.552,0.448,1,1,1h8V58z"/>
		</g>
		<g>
			<path style="fill:#3D320C;" d="M27.344,40h19.373c1.448-2,2.313-3.092,2.313-4.854c0-4.418-5.372-8.073-12-8.073
				c-6.628,0-12,3.691-12,8.109C25.03,36.945,25.895,38,27.344,40z"/>
		</g>
		<g>
			<path style="fill:#66510D;" d="M25.03,35.183c0,1.762,0.865,2.817,2.313,4.817h9.687V27.073
				C30.402,27.073,25.03,30.764,25.03,35.183z"/>
		</g>
		<g>
			<path style="fill:#FFE9A1;" d="M44.168,40.767c0.094-0.256,0.121-0.514,0.117-0.767h-14.51c-0.004,0.253,0.023,0.512,0.117,0.769
				c4.129,11.345-1.862,22.929-1.862,30.667L28,81h18l0.03-9.564C46.03,63.661,40.037,52.118,44.168,40.767z"/>
		</g>
		<g>
			<path style="fill:#FFF5D9;" d="M29.775,40c-0.004,0.253,0.023,0.512,0.117,0.769c4.129,11.345-1.862,22.929-1.862,30.667L28,81h9
				l0.03-41H29.775z"/>
		</g>
		<g>
			<path style="fill:#3D320C;" d="M43.023,55.192C43.01,55.083,42.918,55,42.809,55H37h-5.809c-0.109,0-0.201,0.083-0.216,0.192
				C30.194,61.299,28,66.721,28,71.482v8.693C28,80.631,28.352,81,28.787,81c11.598,0,5.329-0.003,16.455,0
				c0.436,0,0.788-0.369,0.788-0.824v-8.74C46.03,66.654,43.808,61.287,43.023,55.192z"/>
		</g>
		<g>
			<path style="fill:#66510D;" d="M37,55h-6c-0.76,6.185-3,11.671-3,16.482v8.693C28,80.631,28.352,81,28.787,81H37V55z"/>
		</g>
	</g>
</g>
</svg>
