<?xml version="1.0" encoding="iso-8859-1"?>
<!-- Generator: Adobe Illustrator 17.1.0, SVG Export Plug-In . SVG Version: 6.00 Build 0)  -->
<!DOCTYPE svg PUBLIC "-//W3C//DTD SVG 1.0//EN" "http://www.w3.org/TR/2001/REC-SVG-20010904/DTD/svg10.dtd">
<svg version="1.0" xmlns="http://www.w3.org/2000/svg" xmlns:xlink="http://www.w3.org/1999/xlink" x="0px" y="0px" width="110px"
	 height="110px" viewBox="0 0 110 110" style="enable-background:new 0 0 110 110;" xml:space="preserve">
<g id="Artboard">
</g>
<g id="Multicolor">
	<circle style="fill:#25B7D3;" cx="55" cy="55" r="55"/>
	<g>
		<g>
			<path style="fill:#FBE158;" d="M40,51c-7.168,0-13-5.832-13-13s5.832-13,13-13s13,5.832,13,13S47.168,51,40,51z M40,31
				c-3.86,0-7,3.14-7,7s3.14,7,7,7s7-3.14,7-7S43.86,31,40,31z"/>
		</g>
		<g>
			<path style="fill:#FBE158;" d="M72,83c-7.168,0-13-5.832-13-13s5.832-13,13-13s13,5.832,13,13S79.168,83,72,83z M72,63
				c-3.86,0-7,3.14-7,7s3.14,7,7,7s7-3.14,7-7S75.86,63,72,63z"/>
		</g>
		<g>
			<path style="fill:#FBE158;" d="M30.247,72.597c-0.329,0.329-0.329,0.863,0,1.192l5.55,5.55c0.329,0.329,0.863,0.329,1.192,0
				L76.248,40.08c0.329-0.329,0.863-0.329,1.192,0l4.707,4.707c0.241,0.241,0.603,0.313,0.918,0.183
				c0.315-0.13,0.52-0.438,0.52-0.779V26.843c0-0.465-0.377-0.843-0.843-0.843H65.395c-0.341,0-0.648,0.205-0.779,0.52
				c-0.13,0.315-0.058,0.677,0.183,0.918l4.707,4.707c0.329,0.329,0.329,0.863,0,1.192L30.247,72.597z"/>
		</g>
	</g>
</g>
</svg>
