<?xml version="1.0" encoding="iso-8859-1"?>
<!-- Generator: Adobe Illustrator 17.1.0, SVG Export Plug-In . SVG Version: 6.00 Build 0)  -->
<!DOCTYPE svg PUBLIC "-//W3C//DTD SVG 1.0//EN" "http://www.w3.org/TR/2001/REC-SVG-20010904/DTD/svg10.dtd">
<svg version="1.0" xmlns="http://www.w3.org/2000/svg" xmlns:xlink="http://www.w3.org/1999/xlink" x="0px" y="0px" width="110px"
	 height="110px" viewBox="0 0 110 110" style="enable-background:new 0 0 110 110;" xml:space="preserve">
<g id="Artboard">
</g>
<g id="Multicolor">
	<circle style="fill:#25B7D3;" cx="55" cy="55" r="55"/>
	<g>
		<g>
			<rect x="46.905" y="27" style="fill:#FACB1B;" width="8" height="8"/>
		</g>
		<g>
			<rect x="46.905" y="27" style="fill:#FBE158;" width="4" height="8"/>
		</g>
		<g>
			<path style="fill:#F3B607;" d="M68.905,83h-2l-5.994-5.994C57.989,78.271,54.634,79,50.905,79c-3.364,0-6.838-0.635-9.998-2.001
				L34.905,83h-2c-1.105,0-2,0.896-2,2s0.895,2,2,2h18h18c1.105,0,2-0.896,2-2S70.009,83,68.905,83z"/>
		</g>
		<g>
			<path style="fill:#F0F1F1;" d="M50.905,39c-13.112,0-22,8.849-22,20c0,11.15,8.887,20,22,20c13.255,0,22-8.954,22-20
				S64.159,39,50.905,39z"/>
		</g>
		<g>
			<rect x="54.905" y="30" style="fill:#FCF6C2;" width="8" height="2"/>
		</g>
		<g>
			<path style="fill:#3E3E3F;" d="M82.905,31c0,4.418-6.477,8-12,8c-5.523,0-8-3.582-8-8s2.477-8,8-8
				C76.427,23,82.905,26.582,82.905,31z"/>
		</g>
		<g>
			<path style="fill:#5B5C5F;" d="M70.985,23c-5.523,0-8,3.582-8,8c0,2.095,0.565,3.997,1.74,5.423l12.179-12.18
				C75.033,23.46,72.951,23,70.985,23z"/>
		</g>
		<g>
			<path style="fill:#F3B607;" d="M49.53,31c0-1.312-1.063-2.375-2.375-2.375c-0.086,0-0.167,0.017-0.25,0.025v4.699
				c0.083,0.009,0.164,0.025,0.25,0.025C48.466,33.375,49.53,32.312,49.53,31z"/>
		</g>
		<g>
			<path style="fill:#FFFFFF;" d="M28.905,59c0,11.15,8.887,20,22,20V39C37.793,39,28.905,47.849,28.905,59z"/>
		</g>
		<g>
			<rect x="42.905" y="35" style="fill:#F3B607;" width="16" height="5"/>
		</g>
		<g>
			<rect x="42.905" y="35" style="fill:#FACB1B;" width="8" height="5"/>
		</g>
		<g>
			<path style="fill:#FACB1B;" d="M40.906,76.999L34.905,83h-2c-1.105,0-2,0.896-2,2s0.895,2,2,2h18v-8
				C47.541,79,44.067,78.365,40.906,76.999z"/>
		</g>
	</g>
</g>
</svg>
