<?xml version="1.0" encoding="iso-8859-1"?>
<!-- Generator: Adobe Illustrator 17.1.0, SVG Export Plug-In . SVG Version: 6.00 Build 0)  -->
<!DOCTYPE svg PUBLIC "-//W3C//DTD SVG 1.0//EN" "http://www.w3.org/TR/2001/REC-SVG-20010904/DTD/svg10.dtd">
<svg version="1.0" xmlns="http://www.w3.org/2000/svg" xmlns:xlink="http://www.w3.org/1999/xlink" x="0px" y="0px" width="110px"
	 height="110px" viewBox="0 0 110 110" style="enable-background:new 0 0 110 110;" xml:space="preserve">
<g id="Artboard">
</g>
<g id="Multicolor">
	<circle style="fill:#25B7D3;" cx="55" cy="55" r="55"/>
	<g>
		<g>
			<rect x="23" y="37" style="fill:#CFD3D4;" width="10" height="8"/>
		</g>
		<g>
			<rect x="23" y="65" style="fill:#CFD3D4;" width="10" height="8"/>
		</g>
		<g>
			<path style="fill:#FFFFFF;" d="M87,83c0,2.209-1.791,4-4,4H37c-2.209,0-4-1.791-4-4V27c0-2.209,1.791-4,4-4h46
				c2.209,0,4,1.791,4,4V83z"/>
		</g>
		<g>
			<path style="fill:#12B2A0;" d="M76,42c0-0.552-0.448-1-1-1h-8c-0.552,0-1-0.448-1-1v-8c0-0.552-0.448-1-1-1H55
				c-0.552,0-1,0.448-1,1v8c0,0.552-0.448,1-1,1h-8c-0.552,0-1,0.448-1,1v10c0,0.552,0.448,1,1,1h8c0.552,0,1,0.448,1,1v8
				c0,0.552,0.448,1,1,1h10c0.552,0,1-0.448,1-1v-8c0-0.552,0.448-1,1-1h8c0.552,0,1-0.448,1-1V42z"/>
		</g>
		<g>
			<g>
				<path style="fill:#12B2A0;" d="M43.433,69.223c1.961,0,3.797,0.994,3.797,3.273v3.287c0,2.251-1.837,3.231-3.797,3.218h-3.659
					v-9.777H43.433z M43.516,76.68c0.842,0,1.229-0.428,1.229-1.063v-3.052c0-0.635-0.401-1.036-1.229-1.036h-1.257v5.151H43.516z"
					/>
			</g>
			<g>
				<path style="fill:#12B2A0;" d="M51.497,75.893h-0.442V79h-2.5v-9.777h3.908c2.016,0,3.577,0.925,3.632,3.218
					c0,1.809-0.732,2.831-1.919,3.204L56.841,79h-3.079L51.497,75.893z M52.505,73.766c1.56,0,1.56-2.237,0-2.237h-1.45v2.237
					H52.505z"/>
			</g>
			<g>
				<path style="fill:#12B2A0;" d="M59.851,75.727c0,1.574,2.789,1.574,2.803,0v-6.504h2.5v6.504c-0.014,4.584-7.816,4.584-7.802,0
					v-6.504h2.5V75.727z"/>
			</g>
			<g>
				<path style="fill:#12B2A0;" d="M71.575,72.123c-0.539-1.312-2.72-1.008-2.72,0.276v3.356c0,1.533,2.859,1.519,2.859,0v-0.359
					h-1.56v-2.071h3.936v2.43c0,2.251-1.878,3.383-3.839,3.383c-1.933,0-3.867-1.132-3.867-3.383v-3.356
					c0-2.209,1.933-3.314,3.867-3.314c1.27,0,2.72,0.525,3.397,2.085L71.575,72.123z"/>
			</g>
			<g>
				<path style="fill:#12B2A0;" d="M76.325,75.907c0.98,1.188,3.135,1.243,3.204,0.193c0.028-0.552-0.87-0.87-1.671-0.98
					c-1.574-0.249-3.01-1.243-3.01-3.107c0-1.919,1.74-2.927,3.535-2.927c1.188,0,2.334,0.332,3.342,1.561l-1.616,1.243
					c-1.022-1.091-2.776-1.049-2.817,0.083c0.028,0.469,0.538,0.746,1.298,0.911c1.74,0.318,3.48,0.925,3.37,3.328
					c-0.083,1.892-2.071,2.928-3.867,2.928c-1.174,0-2.417-0.594-3.328-1.768L76.325,75.907z"/>
			</g>
		</g>
		<g>
			<path style="fill:#E2E4E5;" d="M28,46c0,1.105-0.895,2-2,2h-3V34h3c1.105,0,2,0.895,2,2V46z"/>
		</g>
		<g>
			<path style="fill:#E2E4E5;" d="M28,74c0,1.105-0.895,2-2,2h-3V62h3c1.105,0,2,0.895,2,2V74z"/>
		</g>
		<g>
			<path style="fill:#47C4B7;" d="M66,40v-8c0-0.552-0.448-1-1-1H55c-0.552,0-1,0.448-1,1v8c0,0.552-0.448,1-1,1h-8
				c-0.552,0-1,0.448-1,1v10c0,0.552,0.448,1,1,1h8c0.175,0,0.332,0.057,0.475,0.137l12.662-12.662C66.057,40.332,66,40.175,66,40z"
				/>
		</g>
	</g>
</g>
</svg>
