<?xml version="1.0" encoding="iso-8859-1"?>
<!-- Generator: Adobe Illustrator 17.1.0, SVG Export Plug-In . SVG Version: 6.00 Build 0)  -->
<!DOCTYPE svg PUBLIC "-//W3C//DTD SVG 1.0//EN" "http://www.w3.org/TR/2001/REC-SVG-20010904/DTD/svg10.dtd">
<svg version="1.0" xmlns="http://www.w3.org/2000/svg" xmlns:xlink="http://www.w3.org/1999/xlink" x="0px" y="0px" width="110px"
	 height="110px" viewBox="0 0 110 110" style="enable-background:new 0 0 110 110;" xml:space="preserve">
<g id="Artboard">
</g>
<g id="Multicolor">
	<circle style="fill:#32BEA6;" cx="55" cy="54.966" r="55"/>
	<g>
		<path style="fill:#F0F1F1;" d="M60,63h-4c0-1.107,0.893-2,2-2C59.107,61,60,61.893,60,63z"/>
		<path style="fill:#3E3E3F;" d="M68,63c1.105,0,2,0.895,2,2v1H46v-1c0-1.105,0.895-2,2-2H68z"/>
		<path style="fill:#FACB1B;" d="M31,26.067v38.708c34.098-22.43,49.085-11.71,49.153-3.788c0.055,6.391-3.495,8.339-6.153,8.877
			v6.043c6.352-0.854,12.228-6.099,12.152-14.972C85.973,39.896,66.58,49.899,31,26.067z"/>
		<path style="fill:#84462D;" d="M74,68c0-1.105-0.895-2-2-2H44c-1.105,0-2,0.895-2,2v14h32V68z"/>
		<path style="fill:#692E19;" d="M81.413,87c-1.188-2.931-4.057-5-7.413-5H42c-3.356,0-6.226,2.069-7.413,5H81.413z"/>
		<rect x="27" y="23" style="fill:#F3B607;" width="4" height="44"/>
		<rect x="27" y="23" style="fill:#FBEC9A;" width="4" height="22"/>
		<path style="fill:#FBE158;" d="M73.168,45C63.85,41.756,49.654,38.562,31,26.067V45H73.168z"/>
	</g>
</g>
</svg>
