<?xml version="1.0" encoding="iso-8859-1"?>
<!-- Generator: Adobe Illustrator 17.1.0, SVG Export Plug-In . SVG Version: 6.00 Build 0)  -->
<!DOCTYPE svg PUBLIC "-//W3C//DTD SVG 1.0//EN" "http://www.w3.org/TR/2001/REC-SVG-20010904/DTD/svg10.dtd">
<svg version="1.0" xmlns="http://www.w3.org/2000/svg" xmlns:xlink="http://www.w3.org/1999/xlink" x="0px" y="0px" width="110px"
	 height="110px" viewBox="0 0 110 110" style="enable-background:new 0 0 110 110;" xml:space="preserve">
<g id="Artboard">
</g>
<g id="Multicolor">
	<circle style="fill:#FABC3D;" cx="55" cy="55" r="55"/>
	<g>
		<path style="fill:#DF2C2C;" d="M67.035,55L65.41,41.188c-1.309-0.63-2.741-1.164-4.375-1.545V47h-6h-6v-7.357
			c-1.634,0.382-3.066,0.915-4.375,1.545L43.035,55c-7,1-16,7.15-16,15v9c0,4.42,3.58,8,8,8h20h20c4.42,0,8-3.58,8-8v-9
			C83.035,62.15,74.035,56,67.035,55z"/>
		<path style="fill:#FA5655;" d="M55,47h-5.965v-7.357c-1.634,0.382-3.066,0.915-4.375,1.545L43.035,55c-7,1-16,7.15-16,15v9
			c0,4.42,3.58,8,8,8H55V47z"/>
		<path style="fill:#DF2C2C;" d="M55.035,27c-19.264,0-32.857,12.58-31.919,15.797C26.035,53,26.035,56,39.41,51.292
			c1.194-0.42,1.873-1.683,1.541-2.905C40.173,45.527,40.035,44,40.035,44c3.834-2.71,7.843-5,15-5c6.44,0,10.407,1.754,15,5
			c0,0-0.138,1.527-0.916,4.388c-0.332,1.221,0.347,2.484,1.541,2.905C84.035,56,84.035,53,86.954,42.797
			C87.893,39.58,74.299,27,55.035,27z"/>
		<circle style="fill:#FFFFFF;" cx="55.035" cy="71" r="12"/>
		<circle style="fill:#5B5C5F;" cx="59.035" cy="65" r="2"/>
		<circle style="fill:#5B5C5F;" cx="51.071" cy="65" r="2"/>
		<circle style="fill:#5B5C5F;" cx="48.071" cy="71" r="2"/>
		<circle style="fill:#5B5C5F;" cx="51.071" cy="77" r="2"/>
		<circle style="fill:#5B5C5F;" cx="59.035" cy="77" r="2"/>
		<path style="fill:#E2E4E5;" d="M68.487,66c1.112,0,2.013,0.901,2.013,2.013v2.362c0,1.45-1.175,2.625-2.625,2.625H63.5
			c-1.933,0-3.5-3.5-3.5-3.5C66.063,66.875,68.487,66,68.487,66z"/>
		<path style="fill:#FA5655;" d="M55,27.001c-19.245,0.015-32.821,12.581-31.884,15.796C26.035,53,26.035,56,39.41,51.292
			c1.194-0.42,1.873-1.683,1.541-2.905C40.173,45.527,40.035,44,40.035,44c3.828-2.705,7.831-4.992,14.965-4.999V27.001z"/>
	</g>
</g>
</svg>
