<?xml version="1.0" encoding="iso-8859-1"?>
<!-- Generator: Adobe Illustrator 17.1.0, SVG Export Plug-In . SVG Version: 6.00 Build 0)  -->
<!DOCTYPE svg PUBLIC "-//W3C//DTD SVG 1.0//EN" "http://www.w3.org/TR/2001/REC-SVG-20010904/DTD/svg10.dtd">
<svg version="1.0" xmlns="http://www.w3.org/2000/svg" xmlns:xlink="http://www.w3.org/1999/xlink" x="0px" y="0px" width="110px"
	 height="110px" viewBox="0 0 110 110" style="enable-background:new 0 0 110 110;" xml:space="preserve">
<g id="Artboard">
</g>
<g id="Multicolor">
	<circle style="fill:#25B7D3;" cx="55" cy="55" r="55"/>
	<g>
		<path style="fill:#FFFFFF;" d="M67.436,68.906c2.271,2.803,2.582,6.277-0.536,9.394c-2.693,2.693-7.066,2.692-9.759,0
			C44.046,65.205,36.055,53.141,27.02,62.18c-4.169,4.17-3.842,10.399-0.12,14.121l9.06,9.06c0.584,0.584,1.533,0.588,2.122,0
			c0.587-0.587,0.585-1.537,0-2.121l-9.06-9.06c-2.553-2.553-2.871-6.888,0.12-9.879c2.694-2.693,7.066-2.692,9.759,0l16.12,16.12
			c3.853,3.853,10.126,3.875,14.003-0.002c3.58-3.679,3.863-7.79,2.098-11.29C69.862,69.117,68.634,69.041,67.436,68.906z"/>
		<path style="fill:#3E3E3F;" d="M70.7,48.87c-4.9,0.64-8.68,4.84-8.68,9.91c0,0.084,0.014,0.165,0.016,0.249
			c-7.024-2.847-12.406-8.922-14.288-16.38c0.525,0.085,1.062,0.131,1.611,0.131c4.47,0,8.24-2.92,9.53-6.96L47.28,23
			c-6.66,1.415-8.26,7.23-8.26,13.78c0,16.747,12.59,32.359,32.484,32.359c4.73,0,9.206-3.649,10.246-8.059L70.7,48.87z"/>
		<g>
			<path style="fill:#FFFFFF;" d="M65.387,51.31l14.106,14.106c1.081-1.217,1.871-2.699,2.257-4.336L70.7,48.87
				C68.672,49.135,66.843,50.016,65.387,51.31z"/>
			<path style="fill:#FFFFFF;" d="M41.169,27.092l13.896,13.896c1.785-1.243,3.148-3.048,3.825-5.168L47.28,23
				C44.753,23.537,42.596,25.041,41.169,27.092z"/>
		</g>
	</g>
</g>
</svg>
