<?xml version="1.0" encoding="iso-8859-1"?>
<!-- Generator: Adobe Illustrator 17.1.0, SVG Export Plug-In . SVG Version: 6.00 Build 0)  -->
<!DOCTYPE svg PUBLIC "-//W3C//DTD SVG 1.0//EN" "http://www.w3.org/TR/2001/REC-SVG-20010904/DTD/svg10.dtd">
<svg version="1.0" xmlns="http://www.w3.org/2000/svg" xmlns:xlink="http://www.w3.org/1999/xlink" x="0px" y="0px" width="110px"
	 height="110px" viewBox="0 0 110 110" style="enable-background:new 0 0 110 110;" xml:space="preserve">
<g id="Artboard">
</g>
<g id="Multicolor">
	<circle style="fill:#E04F5F;" cx="55" cy="55" r="55"/>
	<g>
		<polygon style="fill:#FFFFFF;" points="85,48.09 68,57.39 68,52.83 83.08,44.58 		"/>
		<polygon style="fill:#FFFFFF;" points="85,63.51 68,72.81 68,68.25 83.08,60 		"/>
		<path style="fill:#FFFFFF;" d="M68,39v39c0,0.55-0.45,1-1,1H29c-0.55,0-1-0.45-1-1V39H68z"/>
		<path style="fill:#F0F1F1;" d="M68,39v39c0,0.55-0.45,1-1,1H29c-0.55,0-1-0.45-1-1V39H68z"/>
		<rect x="28" y="37" style="fill:#F0F1F1;" width="40" height="2"/>
		<path style="fill:#FFFFFF;" d="M36,31h-2c-3.314,0-6,2.686-6,6h8V31z"/>
		<polygon style="fill:#F0F1F1;" points="36,36.598 61.488,26.73 60.044,23 36,32.309 		"/>
		<rect x="32" y="47" style="fill:#E2E4E5;" width="32" height="12"/>
		<circle style="fill:#3E3E3F;" cx="32" cy="83.5" r="3.5"/>
		<path style="fill:#CFD3D4;" d="M34,79h-4v3c0,0.552,0.448,1,1,1h2c0.552,0,1-0.448,1-1V79z"/>
		<circle style="fill:#3E3E3F;" cx="64" cy="83.5" r="3.5"/>
		<path style="fill:#CFD3D4;" d="M66,79h-4v3c0,0.552,0.448,1,1,1h2c0.552,0,1-0.448,1-1V79z"/>
		<path style="fill:#FFFFFF;" d="M68,39H28v39c0,0.297,0.138,0.558,0.346,0.741L68,39.087V39z"/>
		<polygon style="fill:#F0F1F1;" points="32,47 32,59 48.087,59 60.087,47 		"/>
		<rect x="61" y="41" style="fill:#B6BCBD;" width="2" height="4"/>
		<rect x="57" y="41" style="fill:#B6BCBD;" width="2" height="4"/>
		<rect x="53" y="41" style="fill:#B6BCBD;" width="2" height="4"/>
		<rect x="32" y="42" style="fill:#FA5655;" width="3" height="2"/>
		<rect x="37" y="42" style="fill:#17B198;" width="3" height="2"/>
		<path style="fill:#B6BCBD;" d="M40,51h16c0,0,0,4-8,4S40,51,40,51z"/>
		<rect x="32" y="63" style="fill:#E2E4E5;" width="32" height="12"/>
		<path style="fill:#B6BCBD;" d="M40,67h16c0,0,0,4-8,4S40,67,40,67z"/>
		<polygon style="fill:#F0F1F1;" points="32,63 32,75 32.087,75 44.087,63 		"/>
	</g>
</g>
</svg>
