<?xml version="1.0" encoding="iso-8859-1"?>
<!-- Generator: Adobe Illustrator 17.1.0, SVG Export Plug-In . SVG Version: 6.00 Build 0)  -->
<!DOCTYPE svg PUBLIC "-//W3C//DTD SVG 1.0//EN" "http://www.w3.org/TR/2001/REC-SVG-20010904/DTD/svg10.dtd">
<svg version="1.0" xmlns="http://www.w3.org/2000/svg" xmlns:xlink="http://www.w3.org/1999/xlink" x="0px" y="0px" width="110px"
	 height="110px" viewBox="0 0 110 110" style="enable-background:new 0 0 110 110;" xml:space="preserve">
<g id="Artboard" style="display:none;">
	
		<rect x="-456.5" y="-418.5" style="display:inline;fill:#808080;stroke:#000000;stroke-miterlimit:10;" width="1392" height="1369"/>
</g>
<g id="R-Multicolor">
	<circle style="fill:#25B7D3;" cx="55" cy="55" r="55"/>
	<g>
		<g>
			<path style="fill:#F8E1C2;" d="M26.949,64.154c2.85,0.95,5.495,0.062,8.296-0.879C37.113,62.648,39.044,62,41,62
				c2.408,0,4.393,0.958,6.312,1.884C49.469,64.924,51.699,66,55,66s5.531-1.076,7.687-2.116C64.607,62.958,66.592,62,69,62
				c1.956,0,3.887,0.648,5.755,1.275c2.802,0.94,5.447,1.828,8.297,0.879c0.458-0.153,0.924-0.177,1.372-0.113
				C78.549,53.864,67.577,47,54.982,47c-12.598,0-23.572,6.867-29.445,17.049C25.997,63.976,26.477,63.997,26.949,64.154z"/>
		</g>
		<g>
			<path style="fill:#FCF1E2;" d="M54.982,47c-12.598,0-23.572,6.867-29.445,17.049c0.459-0.073,0.94-0.052,1.412,0.105
				c2.85,0.95,5.495,0.062,8.296-0.879C37.113,62.648,39.044,62,41,62c2.408,0,4.393,0.958,6.312,1.884
				C49.469,64.924,51.699,66,55,66V47C54.994,47,54.988,47,54.982,47z"/>
		</g>
		<g>
			<path style="fill:#8E6134;" d="M72.845,68.963C71.37,68.468,69.976,68,69,68c-1.036,0-2.214,0.568-3.705,1.288
				C62.79,70.496,59.672,72,55,72s-7.79-1.504-10.295-2.712C43.214,68.568,42.036,68,41,68c-0.976,0-2.37,0.468-3.845,0.963
				c-2.357,0.791-5.13,1.715-8.271,1.584l2.205,11.575C31.628,84.953,34.102,87,36.983,87h35.296c2.778,0,5.193-1.907,5.837-4.61
				l2.818-11.834C77.868,70.644,75.156,69.739,72.845,68.963z"/>
		</g>
		<g>
			<g>
				<path style="fill:#D4A263;" d="M55,72c-4.672,0-7.79-1.504-10.295-2.712C43.214,68.568,42.036,68,41,68
					c-0.976,0-2.37,0.468-3.845,0.963c-3.275,1.099-7.35,2.467-12.104,0.883c-1.572-0.524-2.421-2.223-1.897-3.795
					c0.524-1.572,2.223-2.422,3.795-1.897c2.85,0.95,5.495,0.062,8.297-0.879C37.113,62.648,39.044,62,41,62
					c2.408,0,4.393,0.958,6.312,1.884C49.469,64.924,51.699,66,55,66s5.531-1.076,7.687-2.116C64.607,62.958,66.592,62,69,62
					c1.956,0,3.887,0.648,5.755,1.275c2.802,0.94,5.447,1.828,8.297,0.879c1.571-0.525,3.271,0.325,3.795,1.897
					c0.524,1.572-0.325,3.271-1.897,3.795c-4.755,1.585-8.829,0.216-12.104-0.883C71.37,68.468,69.976,68,69,68
					c-1.036,0-2.214,0.568-3.705,1.288C62.79,70.496,59.672,72,55,72z"/>
			</g>
		</g>
		<g>
			<path style="fill:#EDBC7C;" d="M57,55.5c0,1.381-0.895,2.5-2,2.5s-2-1.119-2-2.5s2-4.5,2-4.5S57,54.119,57,55.5z"/>
		</g>
		<g>
			<path style="fill:#EDBC7C;" d="M67.229,54.681c0.516,1.281,0.103,2.654-0.922,3.066c-1.025,0.412-2.273-0.291-2.789-1.572
				c-0.516-1.281,0.175-4.921,0.175-4.921S66.713,53.4,67.229,54.681z"/>
		</g>
		<g>
			<path style="fill:#EDBC7C;" d="M42.771,54.681c-0.516,1.281-0.103,2.654,0.922,3.066c1.025,0.412,2.273-0.291,2.789-1.572
				c0.516-1.281-0.175-4.921-0.175-4.921S43.287,53.4,42.771,54.681z"/>
		</g>
		<g>
			<path style="fill:#FFFFFF;" d="M54,23c0,0,3,2,3,6s-3,10-1,14c-3,0-6-4-6-8S54,28,54,23z"/>
		</g>
		<g>
			<path style="fill:#FFFFFF;" d="M63.775,32c0,0,1.65,1.1,1.65,3.3s-1.65,5.5-0.55,7.7c-1.65,0-3.3-2.2-3.3-4.4
				C61.575,36.4,63.775,34.75,63.775,32z"/>
		</g>
		<g>
			<path style="fill:#FFFFFF;" d="M43.2,32c0,0,1.65,1.1,1.65,3.3S43.2,40.8,44.3,43c-1.65,0-3.3-2.2-3.3-4.4
				C41,36.4,43.2,34.75,43.2,32z"/>
		</g>
		<g>
			<path style="fill:#EDBC7C;" d="M47.312,63.884C45.393,62.958,43.408,62,41,62c-1.956,0-3.887,0.648-5.755,1.275
				c-2.801,0.94-5.446,1.829-8.296,0.879c-1.572-0.525-3.271,0.325-3.794,1.897c-0.524,1.572,0.325,3.271,1.897,3.794
				c4.753,1.585,8.829,0.217,12.104-0.882C38.63,68.468,40.024,68,41,68c1.036,0,2.214,0.568,3.705,1.288
				C47.21,70.496,50.328,72,55,72v-6C51.699,66,49.469,64.924,47.312,63.884z"/>
		</g>
		<g>
			<path style="fill:#A97A45;" d="M55,72c-4.672,0-7.79-1.504-10.295-2.712C43.214,68.568,42.036,68,41,68
				c-0.976,0-2.37,0.468-3.845,0.963c-2.357,0.791-5.13,1.715-8.271,1.584l2.205,11.575C31.628,84.953,34.102,87,36.983,87H55V72z"
				/>
		</g>
	</g>
</g>
<g id="Multicolor" style="display:none;">
	<g style="display:inline;">
		<g>
			<path style="fill:#F8E1C2;" d="M26.949,64.154c2.85,0.95,5.495,0.062,8.296-0.879C37.113,62.648,39.044,62,41,62
				c2.408,0,4.393,0.958,6.312,1.884C49.469,64.924,51.699,66,55,66s5.531-1.076,7.687-2.116C64.607,62.958,66.592,62,69,62
				c1.956,0,3.887,0.648,5.755,1.275c2.802,0.94,5.447,1.828,8.297,0.879c0.458-0.153,0.924-0.177,1.372-0.113
				C78.549,53.864,67.577,47,54.982,47c-12.598,0-23.572,6.867-29.445,17.049C25.997,63.976,26.477,63.997,26.949,64.154z"/>
		</g>
		<g>
			<path style="fill:#FCF1E2;" d="M54.982,47c-12.598,0-23.572,6.867-29.445,17.049c0.459-0.073,0.94-0.052,1.412,0.105
				c2.85,0.95,5.495,0.062,8.296-0.879C37.113,62.648,39.044,62,41,62c2.408,0,4.393,0.958,6.312,1.884
				C49.469,64.924,51.699,66,55,66V47C54.994,47,54.988,47,54.982,47z"/>
		</g>
		<g>
			<path style="fill:#8E6134;" d="M72.845,68.963C71.37,68.468,69.976,68,69,68c-1.036,0-2.214,0.568-3.705,1.288
				C62.79,70.496,59.672,72,55,72s-7.79-1.504-10.295-2.712C43.214,68.568,42.036,68,41,68c-0.976,0-2.37,0.468-3.845,0.963
				c-2.357,0.791-5.13,1.715-8.271,1.584l2.205,11.575C31.628,84.953,34.102,87,36.983,87h35.296c2.778,0,5.193-1.907,5.837-4.61
				l2.818-11.834C77.868,70.644,75.156,69.739,72.845,68.963z"/>
		</g>
		<g>
			<g>
				<path style="fill:#D4A263;" d="M55,72c-4.672,0-7.79-1.504-10.295-2.712C43.214,68.568,42.036,68,41,68
					c-0.976,0-2.37,0.468-3.845,0.963c-3.275,1.099-7.35,2.467-12.104,0.883c-1.572-0.524-2.421-2.223-1.897-3.795
					c0.524-1.572,2.223-2.422,3.795-1.897c2.85,0.95,5.495,0.062,8.297-0.879C37.113,62.648,39.044,62,41,62
					c2.408,0,4.393,0.958,6.312,1.884C49.469,64.924,51.699,66,55,66s5.531-1.076,7.687-2.116C64.607,62.958,66.592,62,69,62
					c1.956,0,3.887,0.648,5.755,1.275c2.802,0.94,5.447,1.828,8.297,0.879c1.571-0.525,3.271,0.325,3.795,1.897
					c0.524,1.572-0.325,3.271-1.897,3.795c-4.755,1.585-8.829,0.216-12.104-0.883C71.37,68.468,69.976,68,69,68
					c-1.036,0-2.214,0.568-3.705,1.288C62.79,70.496,59.672,72,55,72z"/>
			</g>
		</g>
		<g>
			<path style="fill:#EDBC7C;" d="M57,55.5c0,1.381-0.895,2.5-2,2.5s-2-1.119-2-2.5s2-4.5,2-4.5S57,54.119,57,55.5z"/>
		</g>
		<g>
			<path style="fill:#EDBC7C;" d="M67.229,54.681c0.516,1.281,0.103,2.654-0.922,3.066c-1.025,0.412-2.273-0.291-2.789-1.572
				c-0.516-1.281,0.175-4.921,0.175-4.921S66.713,53.4,67.229,54.681z"/>
		</g>
		<g>
			<path style="fill:#EDBC7C;" d="M42.771,54.681c-0.516,1.281-0.103,2.654,0.922,3.066c1.025,0.412,2.273-0.291,2.789-1.572
				c0.516-1.281-0.175-4.921-0.175-4.921S43.287,53.4,42.771,54.681z"/>
		</g>
		<g>
			<path style="fill:#FFFFFF;" d="M54,23c0,0,3,2,3,6s-3,10-1,14c-3,0-6-4-6-8S54,28,54,23z"/>
		</g>
		<g>
			<path style="fill:#FFFFFF;" d="M63.775,32c0,0,1.65,1.1,1.65,3.3s-1.65,5.5-0.55,7.7c-1.65,0-3.3-2.2-3.3-4.4
				C61.575,36.4,63.775,34.75,63.775,32z"/>
		</g>
		<g>
			<path style="fill:#FFFFFF;" d="M43.2,32c0,0,1.65,1.1,1.65,3.3S43.2,40.8,44.3,43c-1.65,0-3.3-2.2-3.3-4.4
				C41,36.4,43.2,34.75,43.2,32z"/>
		</g>
		<g>
			<path style="fill:#EDBC7C;" d="M47.312,63.884C45.393,62.958,43.408,62,41,62c-1.956,0-3.887,0.648-5.755,1.275
				c-2.801,0.94-5.446,1.829-8.296,0.879c-1.572-0.525-3.271,0.325-3.794,1.897c-0.524,1.572,0.325,3.271,1.897,3.794
				c4.753,1.585,8.829,0.217,12.104-0.882C38.63,68.468,40.024,68,41,68c1.036,0,2.214,0.568,3.705,1.288
				C47.21,70.496,50.328,72,55,72v-6C51.699,66,49.469,64.924,47.312,63.884z"/>
		</g>
		<g>
			<path style="fill:#A97A45;" d="M55,72c-4.672,0-7.79-1.504-10.295-2.712C43.214,68.568,42.036,68,41,68
				c-0.976,0-2.37,0.468-3.845,0.963c-2.357,0.791-5.13,1.715-8.271,1.584l2.205,11.575C31.628,84.953,34.102,87,36.983,87H55V72z"
				/>
		</g>
	</g>
</g>
<g id="Blue" style="display:none;">
	<g style="display:inline;">
		<g>
			<path style="fill:#E1F5FA;" d="M26.949,64.154c2.85,0.949,5.494,0.062,8.296-0.879C37.113,62.648,39.044,62,41,62
				c2.408,0,4.393,0.958,6.312,1.884C49.469,64.924,51.699,66,55,66s5.531-1.076,7.688-2.116C64.607,62.958,66.592,62,69,62
				c1.956,0,3.887,0.648,5.755,1.275c2.802,0.94,5.447,1.828,8.296,0.879c0.459-0.153,0.925-0.177,1.372-0.113
				C78.549,53.864,67.577,47,54.982,47c-12.599,0-23.572,6.867-29.445,17.049C25.996,63.976,26.477,63.997,26.949,64.154z"/>
		</g>
		<g>
			<path style="fill:#FFFFFF;" d="M54.982,47c-12.599,0-23.572,6.867-29.445,17.049c0.459-0.073,0.94-0.052,1.412,0.105
				c2.85,0.949,5.494,0.062,8.296-0.879C37.113,62.648,39.044,62,41,62c2.408,0,4.393,0.958,6.312,1.884
				C49.469,64.924,51.699,66,55,66V47C54.994,47,54.988,47,54.982,47z"/>
		</g>
		<g>
			<path style="fill:#0F6175;" d="M72.846,68.963C71.369,68.468,69.976,68,69,68c-1.036,0-2.214,0.568-3.705,1.288
				C62.79,70.496,59.672,72,55,72s-7.79-1.504-10.295-2.712C43.214,68.568,42.036,68,41,68c-0.976,0-2.369,0.468-3.846,0.963
				c-2.356,0.791-5.13,1.715-8.27,1.584l2.204,11.575C31.628,84.953,34.102,87,36.982,87h35.297c2.777,0,5.193-1.907,5.836-4.61
				l2.818-11.834C77.867,70.644,75.156,69.739,72.846,68.963z"/>
		</g>
		<g>
			<g>
				<path style="fill:#BBE7F2;" d="M55,72c-4.672,0-7.79-1.504-10.295-2.712C43.214,68.568,42.036,68,41,68
					c-0.976,0-2.369,0.468-3.846,0.963c-3.274,1.099-7.35,2.467-12.104,0.883c-1.571-0.524-2.421-2.224-1.896-3.795
					c0.523-1.572,2.223-2.422,3.795-1.897c2.85,0.949,5.494,0.062,8.297-0.879C37.113,62.648,39.045,62,41,62
					c2.408,0,4.393,0.958,6.312,1.884C49.469,64.924,51.699,66,55,66s5.531-1.076,7.688-2.116C64.607,62.958,66.592,62,69,62
					c1.956,0,3.887,0.648,5.755,1.275c2.802,0.94,5.447,1.828,8.296,0.879c1.572-0.525,3.271,0.325,3.795,1.897
					c0.524,1.571-0.325,3.271-1.896,3.795c-4.755,1.585-8.829,0.216-12.104-0.883C71.369,68.468,69.976,68,69,68
					c-1.036,0-2.214,0.568-3.705,1.288C62.79,70.496,59.672,72,55,72z"/>
			</g>
		</g>
		<g>
			<path style="fill:#53BAD4;" d="M57,55.5c0,1.381-0.896,2.5-2,2.5s-2-1.119-2-2.5c0-1.38,2-4.5,2-4.5S57,54.12,57,55.5z"/>
		</g>
		<g>
			<path style="fill:#53BAD4;" d="M67.229,54.681c0.516,1.281,0.104,2.653-0.922,3.066c-1.024,0.413-2.273-0.292-2.789-1.572
				s0.176-4.921,0.176-4.921S66.713,53.4,67.229,54.681z"/>
		</g>
		<g>
			<path style="fill:#53BAD4;" d="M42.771,54.681c-0.516,1.281-0.104,2.653,0.922,3.066c1.024,0.413,2.273-0.292,2.789-1.572
				c0.516-1.281-0.176-4.921-0.176-4.921S43.287,53.4,42.771,54.681z"/>
		</g>
		<g>
			<path style="fill:#FFFFFF;" d="M54,23c0,0,3,2,3,6s-3,10-1,14c-3,0-6-4-6-8S54,28,54,23z"/>
		</g>
		<g>
			<path style="fill:#FFFFFF;" d="M63.775,32c0,0,1.649,1.1,1.649,3.3c0,2.2-1.649,5.5-0.55,7.7c-1.65,0-3.301-2.2-3.301-4.4
				C61.574,36.4,63.775,34.75,63.775,32z"/>
		</g>
		<g>
			<path style="fill:#FFFFFF;" d="M43.199,32c0,0,1.65,1.1,1.65,3.3c0,2.2-1.65,5.5-0.55,7.7c-1.649,0-3.3-2.2-3.3-4.4
				C41,36.4,43.199,34.75,43.199,32z"/>
		</g>
		<g>
			<path style="fill:#E1F5FA;" d="M47.312,63.884C45.393,62.958,43.408,62,41,62c-1.956,0-3.887,0.648-5.755,1.275
				c-2.802,0.94-5.446,1.828-8.296,0.879c-1.572-0.525-3.272,0.325-3.795,1.897c-0.524,1.571,0.325,3.271,1.896,3.794
				c4.754,1.585,8.829,0.217,12.104-0.882C38.631,68.468,40.024,68,41,68c1.036,0,2.214,0.568,3.705,1.288
				C47.21,70.496,50.328,72,55,72v-6C51.699,66,49.469,64.924,47.312,63.884z"/>
		</g>
		<g>
			<path style="fill:#33899E;" d="M55,72c-4.672,0-7.79-1.504-10.295-2.712C43.214,68.568,42.036,68,41,68
				c-0.976,0-2.369,0.468-3.846,0.963c-2.356,0.791-5.13,1.715-8.27,1.584l2.204,11.575C31.628,84.953,34.102,87,36.982,87H55V72z"
				/>
		</g>
	</g>
</g>
<g id="R-Blue" style="display:none;">
	<circle style="display:inline;fill:#81D2EB;" cx="55" cy="55" r="55"/>
	<g style="display:inline;">
		<g>
			<path style="fill:#E1F5FA;" d="M26.949,64.154c2.85,0.949,5.494,0.062,8.296-0.879C37.113,62.648,39.044,62,41,62
				c2.408,0,4.393,0.958,6.312,1.884C49.469,64.924,51.699,66,55,66s5.531-1.076,7.688-2.116C64.607,62.957,66.592,62,69,62
				c1.956,0,3.887,0.648,5.755,1.275c2.802,0.94,5.447,1.828,8.296,0.879c0.459-0.153,0.925-0.177,1.372-0.113
				C78.549,53.864,67.577,47,54.982,47c-12.599,0-23.572,6.867-29.445,17.049C25.996,63.976,26.477,63.997,26.949,64.154z"/>
		</g>
		<g>
			<path style="fill:#FFFFFF;" d="M54.982,47c-12.599,0-23.572,6.867-29.445,17.049c0.459-0.073,0.94-0.052,1.412,0.105
				c2.85,0.949,5.494,0.062,8.296-0.879C37.113,62.648,39.044,62,41,62c2.408,0,4.393,0.958,6.312,1.884
				C49.469,64.924,51.699,66,55,66V47C54.994,47,54.988,47,54.982,47z"/>
		</g>
		<g>
			<path style="fill:#0F6175;" d="M72.846,68.963C71.369,68.468,69.976,68,69,68c-1.036,0-2.214,0.568-3.705,1.288
				C62.79,70.496,59.672,72,55,72s-7.79-1.504-10.295-2.712C43.214,68.568,42.036,68,41,68c-0.976,0-2.369,0.468-3.846,0.963
				c-2.356,0.791-5.13,1.715-8.27,1.584l2.204,11.575C31.628,84.953,34.102,87,36.982,87h35.297c2.777,0,5.193-1.907,5.836-4.61
				l2.818-11.834C77.867,70.644,75.156,69.739,72.846,68.963z"/>
		</g>
		<g>
			<g>
				<path style="fill:#BBE7F2;" d="M55,72c-4.672,0-7.79-1.504-10.295-2.712C43.214,68.568,42.036,68,41,68
					c-0.976,0-2.369,0.468-3.846,0.963c-3.274,1.099-7.35,2.467-12.104,0.883c-1.571-0.524-2.421-2.224-1.896-3.795
					c0.523-1.572,2.223-2.422,3.795-1.897c2.85,0.949,5.494,0.062,8.297-0.879C37.113,62.648,39.045,62,41,62
					c2.408,0,4.393,0.958,6.312,1.884C49.469,64.924,51.699,66,55,66s5.531-1.076,7.688-2.116C64.607,62.957,66.592,62,69,62
					c1.956,0,3.887,0.648,5.755,1.275c2.802,0.94,5.447,1.828,8.296,0.879c1.572-0.525,3.271,0.325,3.795,1.897
					c0.524,1.571-0.325,3.271-1.896,3.795c-4.755,1.584-8.829,0.216-12.104-0.883C71.369,68.468,69.976,68,69,68
					c-1.036,0-2.214,0.568-3.705,1.288C62.79,70.496,59.672,72,55,72z"/>
			</g>
		</g>
		<g>
			<path style="fill:#53BAD4;" d="M57,55.5c0,1.381-0.896,2.5-2,2.5s-2-1.119-2-2.5c0-1.38,2-4.5,2-4.5S57,54.12,57,55.5z"/>
		</g>
		<g>
			<path style="fill:#53BAD4;" d="M67.229,54.681c0.516,1.281,0.104,2.653-0.922,3.066c-1.024,0.413-2.273-0.292-2.789-1.572
				s0.176-4.921,0.176-4.921S66.713,53.4,67.229,54.681z"/>
		</g>
		<g>
			<path style="fill:#53BAD4;" d="M42.771,54.681c-0.516,1.281-0.104,2.653,0.922,3.066c1.024,0.413,2.273-0.292,2.789-1.572
				c0.516-1.281-0.176-4.921-0.176-4.921S43.287,53.4,42.771,54.681z"/>
		</g>
		<g>
			<path style="fill:#FFFFFF;" d="M54,23c0,0,3,2,3,6s-3,10-1,14c-3,0-6-4-6-8S54,28,54,23z"/>
		</g>
		<g>
			<path style="fill:#FFFFFF;" d="M63.775,32c0,0,1.649,1.1,1.649,3.3c0,2.2-1.649,5.5-0.55,7.7c-1.65,0-3.301-2.2-3.301-4.4
				C61.574,36.4,63.775,34.75,63.775,32z"/>
		</g>
		<g>
			<path style="fill:#FFFFFF;" d="M43.199,32c0,0,1.65,1.1,1.65,3.3c0,2.2-1.65,5.5-0.55,7.7c-1.649,0-3.3-2.2-3.3-4.4
				C41,36.4,43.199,34.75,43.199,32z"/>
		</g>
		<g>
			<path style="fill:#E1F5FA;" d="M47.312,63.884C45.393,62.957,43.408,62,41,62c-1.956,0-3.887,0.648-5.755,1.275
				c-2.802,0.94-5.446,1.828-8.296,0.879c-1.572-0.525-3.272,0.325-3.795,1.897c-0.524,1.571,0.325,3.271,1.896,3.794
				c4.754,1.585,8.829,0.217,12.104-0.882C38.631,68.468,40.024,68,41,68c1.036,0,2.214,0.568,3.705,1.288
				C47.21,70.496,50.328,72,55,72v-6C51.699,66,49.469,64.924,47.312,63.884z"/>
		</g>
		<g>
			<path style="fill:#33899E;" d="M55,72c-4.672,0-7.79-1.504-10.295-2.712C43.214,68.568,42.036,68,41,68
				c-0.976,0-2.369,0.468-3.846,0.963c-2.356,0.791-5.13,1.715-8.27,1.584l2.204,11.575C31.628,84.953,34.102,87,36.982,87H55V72z"
				/>
		</g>
	</g>
</g>
<g id="Green" style="display:none;">
	<g style="display:inline;">
		<g>
			<path style="fill:#D7FCF9;" d="M26.949,64.154c2.85,0.949,5.494,0.062,8.296-0.879C37.113,62.648,39.044,62,41,62
				c2.408,0,4.393,0.958,6.312,1.884C49.469,64.924,51.699,66,55,66s5.531-1.076,7.688-2.116C64.607,62.958,66.592,62,69,62
				c1.956,0,3.887,0.648,5.755,1.275c2.802,0.94,5.447,1.828,8.296,0.879c0.459-0.153,0.925-0.177,1.372-0.113
				C78.549,53.864,67.577,47,54.982,47c-12.599,0-23.572,6.867-29.445,17.049C25.996,63.976,26.477,63.997,26.949,64.154z"/>
		</g>
		<g>
			<path style="fill:#FFFFFF;" d="M54.982,47c-12.599,0-23.572,6.867-29.445,17.049c0.459-0.073,0.94-0.052,1.412,0.105
				c2.85,0.949,5.494,0.062,8.296-0.879C37.113,62.648,39.044,62,41,62c2.408,0,4.393,0.958,6.312,1.884
				C49.469,64.924,51.699,66,55,66V47C54.994,47,54.988,47,54.982,47z"/>
		</g>
		<g>
			<path style="fill:#14635B;" d="M72.846,68.963C71.369,68.468,69.976,68,69,68c-1.036,0-2.214,0.568-3.705,1.288
				C62.79,70.496,59.672,72,55,72s-7.79-1.504-10.295-2.712C43.214,68.568,42.036,68,41,68c-0.976,0-2.369,0.468-3.846,0.963
				c-2.356,0.791-5.13,1.715-8.27,1.584l2.204,11.575C31.628,84.953,34.102,87,36.982,87h35.297c2.777,0,5.193-1.907,5.836-4.61
				l2.818-11.834C77.867,70.644,75.156,69.739,72.846,68.963z"/>
		</g>
		<g>
			<g>
				<path style="fill:#AAF0E9;" d="M55,72c-4.672,0-7.79-1.504-10.295-2.712C43.214,68.568,42.036,68,41,68
					c-0.976,0-2.369,0.468-3.846,0.963c-3.274,1.099-7.35,2.467-12.104,0.883c-1.571-0.524-2.421-2.224-1.896-3.795
					c0.523-1.572,2.223-2.422,3.795-1.897c2.85,0.949,5.494,0.062,8.297-0.879C37.113,62.648,39.045,62,41,62
					c2.408,0,4.393,0.958,6.312,1.884C49.469,64.924,51.699,66,55,66s5.531-1.076,7.688-2.116C64.607,62.958,66.592,62,69,62
					c1.956,0,3.887,0.648,5.755,1.275c2.802,0.94,5.447,1.828,8.296,0.879c1.572-0.525,3.271,0.325,3.795,1.897
					c0.524,1.571-0.325,3.271-1.896,3.795c-4.755,1.585-8.829,0.216-12.104-0.883C71.369,68.468,69.976,68,69,68
					c-1.036,0-2.214,0.568-3.705,1.288C62.79,70.496,59.672,72,55,72z"/>
			</g>
		</g>
		<g>
			<path style="fill:#55C9BE;" d="M57,55.5c0,1.381-0.896,2.5-2,2.5s-2-1.119-2-2.5c0-1.38,2-4.5,2-4.5S57,54.12,57,55.5z"/>
		</g>
		<g>
			<path style="fill:#55C9BE;" d="M67.229,54.681c0.516,1.281,0.103,2.653-0.922,3.066c-1.024,0.413-2.273-0.292-2.789-1.572
				c-0.516-1.281,0.176-4.921,0.176-4.921S66.713,53.4,67.229,54.681z"/>
		</g>
		<g>
			<path style="fill:#55C9BE;" d="M42.771,54.681c-0.516,1.281-0.104,2.653,0.922,3.066c1.024,0.413,2.273-0.292,2.789-1.572
				c0.516-1.281-0.176-4.921-0.176-4.921S43.287,53.4,42.771,54.681z"/>
		</g>
		<g>
			<path style="fill:#FFFFFF;" d="M54,23c0,0,3,2,3,6s-3,10-1,14c-3,0-6-4-6-8S54,28,54,23z"/>
		</g>
		<g>
			<path style="fill:#FFFFFF;" d="M63.775,32c0,0,1.649,1.1,1.649,3.3c0,2.2-1.649,5.5-0.55,7.7c-1.65,0-3.301-2.2-3.301-4.4
				C61.574,36.4,63.775,34.75,63.775,32z"/>
		</g>
		<g>
			<path style="fill:#FFFFFF;" d="M43.199,32c0,0,1.65,1.1,1.65,3.3c0,2.2-1.65,5.5-0.55,7.7c-1.649,0-3.3-2.2-3.3-4.4
				C41,36.4,43.199,34.75,43.199,32z"/>
		</g>
		<g>
			<path style="fill:#D7FCF9;" d="M47.312,63.884C45.393,62.958,43.408,62,41,62c-1.956,0-3.887,0.648-5.755,1.275
				c-2.802,0.94-5.446,1.828-8.296,0.879c-1.572-0.525-3.272,0.325-3.795,1.897c-0.524,1.571,0.325,3.271,1.896,3.794
				c4.754,1.585,8.829,0.217,12.104-0.882C38.631,68.468,40.024,68,41,68c1.036,0,2.214,0.568,3.705,1.288
				C47.21,70.496,50.328,72,55,72v-6C51.699,66,49.469,64.924,47.312,63.884z"/>
		</g>
		<g>
			<path style="fill:#3E948B;" d="M55,72c-4.672,0-7.79-1.504-10.295-2.712C43.214,68.568,42.036,68,41,68
				c-0.976,0-2.369,0.468-3.846,0.963c-2.356,0.791-5.13,1.715-8.27,1.584l2.204,11.575C31.628,84.953,34.102,87,36.982,87H55V72z"
				/>
		</g>
	</g>
</g>
<g id="R-Green" style="display:none;">
	<circle style="display:inline;fill:#77E0C4;" cx="55" cy="55" r="55"/>
	<g style="display:inline;">
		<g>
			<path style="fill:#D7FCF9;" d="M26.949,64.154c2.85,0.949,5.494,0.062,8.296-0.879C37.113,62.648,39.044,62,41,62
				c2.408,0,4.393,0.958,6.312,1.884C49.469,64.924,51.699,66,55,66s5.531-1.076,7.688-2.116C64.607,62.958,66.592,62,69,62
				c1.956,0,3.887,0.648,5.755,1.275c2.802,0.94,5.447,1.828,8.296,0.879c0.459-0.153,0.925-0.177,1.372-0.113
				C78.549,53.864,67.577,47,54.982,47c-12.599,0-23.572,6.867-29.445,17.049C25.996,63.976,26.477,63.997,26.949,64.154z"/>
		</g>
		<g>
			<path style="fill:#FFFFFF;" d="M54.982,47c-12.599,0-23.572,6.867-29.445,17.049c0.459-0.073,0.94-0.052,1.412,0.105
				c2.85,0.949,5.494,0.062,8.296-0.879C37.113,62.648,39.044,62,41,62c2.408,0,4.393,0.958,6.312,1.884
				C49.469,64.924,51.699,66,55,66V47C54.994,47,54.988,47,54.982,47z"/>
		</g>
		<g>
			<path style="fill:#14635B;" d="M72.846,68.963C71.369,68.468,69.976,68,69,68c-1.036,0-2.214,0.568-3.705,1.288
				C62.79,70.496,59.672,72,55,72s-7.79-1.504-10.295-2.712C43.214,68.568,42.036,68,41,68c-0.976,0-2.369,0.468-3.846,0.963
				c-2.356,0.791-5.13,1.715-8.27,1.584l2.204,11.575C31.628,84.953,34.102,87,36.982,87h35.297c2.777,0,5.193-1.907,5.836-4.61
				l2.818-11.834C77.867,70.644,75.156,69.739,72.846,68.963z"/>
		</g>
		<g>
			<g>
				<path style="fill:#AAF0E9;" d="M55,72c-4.672,0-7.79-1.504-10.295-2.712C43.214,68.568,42.036,68,41,68
					c-0.976,0-2.369,0.468-3.846,0.963c-3.274,1.099-7.35,2.467-12.104,0.883c-1.571-0.524-2.421-2.224-1.896-3.795
					c0.523-1.572,2.223-2.422,3.795-1.897c2.85,0.949,5.494,0.062,8.297-0.879C37.113,62.648,39.045,62,41,62
					c2.408,0,4.393,0.958,6.312,1.884C49.469,64.924,51.699,66,55,66s5.531-1.076,7.688-2.116C64.607,62.958,66.592,62,69,62
					c1.956,0,3.887,0.648,5.755,1.275c2.802,0.94,5.447,1.828,8.296,0.879c1.572-0.525,3.272,0.325,3.795,1.897
					c0.524,1.571-0.325,3.271-1.896,3.795c-4.755,1.585-8.829,0.216-12.104-0.883C71.369,68.468,69.976,68,69,68
					c-1.036,0-2.214,0.568-3.705,1.288C62.79,70.496,59.672,72,55,72z"/>
			</g>
		</g>
		<g>
			<path style="fill:#55C9BE;" d="M57,55.5c0,1.381-0.896,2.5-2,2.5s-2-1.119-2-2.5c0-1.38,2-4.5,2-4.5S57,54.12,57,55.5z"/>
		</g>
		<g>
			<path style="fill:#55C9BE;" d="M67.229,54.681c0.516,1.281,0.104,2.653-0.922,3.066c-1.024,0.413-2.273-0.292-2.789-1.572
				s0.176-4.921,0.176-4.921S66.713,53.4,67.229,54.681z"/>
		</g>
		<g>
			<path style="fill:#55C9BE;" d="M42.771,54.681c-0.516,1.281-0.104,2.653,0.922,3.066c1.024,0.413,2.273-0.292,2.789-1.572
				c0.516-1.281-0.176-4.921-0.176-4.921S43.287,53.4,42.771,54.681z"/>
		</g>
		<g>
			<path style="fill:#FFFFFF;" d="M54,23c0,0,3,2,3,6s-3,10-1,14c-3,0-6-4-6-8S54,28,54,23z"/>
		</g>
		<g>
			<path style="fill:#FFFFFF;" d="M63.775,32c0,0,1.649,1.1,1.649,3.3c0,2.2-1.649,5.5-0.55,7.7c-1.65,0-3.301-2.2-3.301-4.4
				C61.574,36.4,63.775,34.75,63.775,32z"/>
		</g>
		<g>
			<path style="fill:#FFFFFF;" d="M43.199,32c0,0,1.65,1.1,1.65,3.3c0,2.2-1.65,5.5-0.55,7.7c-1.649,0-3.3-2.2-3.3-4.4
				C41,36.4,43.199,34.75,43.199,32z"/>
		</g>
		<g>
			<path style="fill:#D7FCF9;" d="M47.312,63.884C45.393,62.958,43.408,62,41,62c-1.956,0-3.887,0.648-5.755,1.275
				c-2.802,0.94-5.446,1.828-8.296,0.879c-1.572-0.525-3.271,0.325-3.795,1.897c-0.524,1.571,0.325,3.271,1.896,3.794
				c4.754,1.585,8.829,0.217,12.104-0.882C38.631,68.468,40.024,68,41,68c1.036,0,2.214,0.568,3.705,1.288
				C47.21,70.496,50.328,72,55,72v-6C51.699,66,49.469,64.924,47.312,63.884z"/>
		</g>
		<g>
			<path style="fill:#3E948B;" d="M55,72c-4.672,0-7.79-1.504-10.295-2.712C43.214,68.568,42.036,68,41,68
				c-0.976,0-2.369,0.468-3.846,0.963c-2.356,0.791-5.13,1.715-8.27,1.584l2.204,11.575C31.628,84.953,34.102,87,36.982,87H55V72z"
				/>
		</g>
	</g>
</g>
<g id="Red" style="display:none;">
	<g style="display:inline;">
		<g>
			<path style="fill:#FFEFED;" d="M26.949,64.154c2.85,0.949,5.494,0.062,8.296-0.879C37.113,62.648,39.044,62,41,62
				c2.408,0,4.393,0.958,6.312,1.884C49.469,64.924,51.699,66,55,66c3.301,0,5.531-1.076,7.687-2.116C64.607,62.958,66.592,62,69,62
				c1.956,0,3.887,0.648,5.755,1.275c2.802,0.94,5.447,1.828,8.296,0.879c0.459-0.153,0.925-0.177,1.372-0.113
				C78.549,53.864,67.577,47,54.982,47c-12.599,0-23.572,6.867-29.445,17.049C25.996,63.976,26.477,63.997,26.949,64.154z"/>
		</g>
		<g>
			<path style="fill:#FFFFFF;" d="M54.982,47c-12.599,0-23.572,6.867-29.445,17.049c0.459-0.073,0.94-0.052,1.412,0.105
				c2.85,0.949,5.494,0.062,8.296-0.879C37.113,62.648,39.044,62,41,62c2.408,0,4.393,0.958,6.312,1.884
				C49.469,64.924,51.699,66,55,66V47C54.994,47,54.988,47,54.982,47z"/>
		</g>
		<g>
			<path style="fill:#7D261E;" d="M72.846,68.963C71.369,68.468,69.976,68,69,68c-1.036,0-2.214,0.568-3.705,1.288
				C62.79,70.496,59.672,72,55,72c-4.672,0-7.79-1.504-10.295-2.712C43.214,68.568,42.036,68,41,68
				c-0.976,0-2.369,0.468-3.846,0.963c-2.356,0.791-5.13,1.715-8.269,1.584l2.204,11.575C31.628,84.953,34.102,87,36.982,87h35.297
				c2.777,0,5.193-1.907,5.836-4.61l2.818-11.834C77.867,70.644,75.156,69.739,72.846,68.963z"/>
		</g>
		<g>
			<g>
				<path style="fill:#FFD7D4;" d="M55,72c-4.672,0-7.79-1.504-10.295-2.712C43.214,68.568,42.036,68,41,68
					c-0.976,0-2.369,0.468-3.846,0.963c-3.274,1.099-7.35,2.467-12.103,0.883c-1.571-0.524-2.421-2.224-1.896-3.795
					c0.523-1.572,2.223-2.422,3.795-1.897c2.85,0.949,5.494,0.062,8.297-0.879C37.113,62.648,39.045,62,41,62
					c2.408,0,4.393,0.958,6.312,1.884C49.469,64.924,51.699,66,55,66c3.301,0,5.531-1.076,7.687-2.116
					C64.607,62.958,66.592,62,69,62c1.956,0,3.887,0.648,5.755,1.275c2.802,0.94,5.447,1.828,8.296,0.879
					c1.572-0.525,3.271,0.325,3.795,1.897c0.524,1.571-0.325,3.271-1.896,3.795c-4.755,1.585-8.829,0.216-12.104-0.883
					C71.369,68.468,69.976,68,69,68c-1.036,0-2.214,0.568-3.705,1.288C62.79,70.496,59.672,72,55,72z"/>
			</g>
		</g>
		<g>
			<path style="fill:#E8A099;" d="M57,55.5c0,1.381-0.896,2.5-2,2.5c-1.105,0-2-1.119-2-2.5c0-1.38,2-4.5,2-4.5S57,54.12,57,55.5z"
				/>
		</g>
		<g>
			<path style="fill:#E8A099;" d="M67.228,54.681c0.516,1.281,0.104,2.653-0.922,3.066c-1.024,0.413-2.273-0.292-2.789-1.572
				c-0.516-1.281,0.176-4.921,0.176-4.921S66.713,53.4,67.228,54.681z"/>
		</g>
		<g>
			<path style="fill:#E8A099;" d="M42.771,54.681c-0.516,1.281-0.103,2.653,0.922,3.066c1.024,0.413,2.273-0.292,2.789-1.572
				c0.516-1.281-0.176-4.921-0.176-4.921S43.287,53.4,42.771,54.681z"/>
		</g>
		<g>
			<path style="fill:#FFFFFF;" d="M54,23c0,0,3,2,3,6s-3,10-1,14c-3,0-6-4-6-8S54,28,54,23z"/>
		</g>
		<g>
			<path style="fill:#FFFFFF;" d="M63.775,32c0,0,1.649,1.1,1.649,3.3c0,2.2-1.649,5.5-0.55,7.7c-1.65,0-3.301-2.2-3.301-4.4
				C61.574,36.4,63.775,34.75,63.775,32z"/>
		</g>
		<g>
			<path style="fill:#FFFFFF;" d="M43.199,32c0,0,1.65,1.1,1.65,3.3c0,2.2-1.65,5.5-0.55,7.7c-1.649,0-3.3-2.2-3.3-4.4
				C41,36.4,43.199,34.75,43.199,32z"/>
		</g>
		<g>
			<path style="fill:#FFEFED;" d="M47.312,63.884C45.393,62.958,43.408,62,41,62c-1.956,0-3.887,0.648-5.755,1.275
				c-2.802,0.94-5.446,1.828-8.296,0.879c-1.572-0.525-3.271,0.325-3.795,1.897c-0.524,1.571,0.325,3.271,1.896,3.794
				c4.754,1.585,8.829,0.217,12.103-0.882C38.631,68.468,40.024,68,41,68c1.036,0,2.214,0.568,3.705,1.288
				C47.21,70.496,50.328,72,55,72v-6C51.699,66,49.469,64.924,47.312,63.884z"/>
		</g>
		<g>
			<path style="fill:#B84E44;" d="M55,72c-4.672,0-7.79-1.504-10.295-2.712C43.214,68.568,42.036,68,41,68
				c-0.976,0-2.369,0.468-3.846,0.963c-2.356,0.791-5.13,1.715-8.269,1.584l2.204,11.575C31.628,84.953,34.102,87,36.982,87H55V72z"
				/>
		</g>
	</g>
</g>
<g id="R-Red" style="display:none;">
	<circle style="display:inline;fill:#FABBAF;" cx="55" cy="55" r="55"/>
	<g style="display:inline;">
		<g>
			<path style="fill:#FFEFED;" d="M26.949,64.154c2.85,0.949,5.494,0.062,8.296-0.879C37.113,62.648,39.044,62,41,62
				c2.408,0,4.393,0.958,6.312,1.884C49.469,64.924,51.699,66,55,66c3.301,0,5.531-1.076,7.687-2.116C64.607,62.958,66.592,62,69,62
				c1.956,0,3.887,0.648,5.755,1.275c2.802,0.94,5.447,1.828,8.296,0.879c0.459-0.153,0.925-0.177,1.372-0.113
				C78.549,53.864,67.577,47,54.982,47c-12.599,0-23.572,6.867-29.445,17.049C25.996,63.976,26.477,63.997,26.949,64.154z"/>
		</g>
		<g>
			<path style="fill:#FFFFFF;" d="M54.982,47c-12.599,0-23.572,6.867-29.445,17.049c0.459-0.073,0.94-0.052,1.412,0.105
				c2.85,0.949,5.494,0.062,8.296-0.879C37.113,62.648,39.044,62,41,62c2.408,0,4.393,0.958,6.312,1.884
				C49.469,64.924,51.699,66,55,66V47C54.994,47,54.988,47,54.982,47z"/>
		</g>
		<g>
			<path style="fill:#7D261E;" d="M72.846,68.963C71.369,68.468,69.976,68,69,68c-1.036,0-2.214,0.568-3.705,1.288
				C62.79,70.496,59.672,72,55,72c-4.672,0-7.79-1.504-10.295-2.712C43.214,68.568,42.036,68,41,68
				c-0.976,0-2.369,0.468-3.846,0.963c-2.356,0.791-5.13,1.715-8.269,1.584l2.204,11.575C31.628,84.953,34.102,87,36.982,87h35.297
				c2.777,0,5.193-1.907,5.836-4.61l2.818-11.834C77.867,70.644,75.156,69.739,72.846,68.963z"/>
		</g>
		<g>
			<g>
				<path style="fill:#FFD7D4;" d="M55,72c-4.672,0-7.79-1.504-10.295-2.712C43.214,68.568,42.036,68,41,68
					c-0.976,0-2.369,0.468-3.846,0.963c-3.274,1.099-7.35,2.467-12.103,0.883c-1.571-0.524-2.421-2.224-1.896-3.795
					c0.523-1.572,2.223-2.422,3.795-1.897c2.85,0.949,5.494,0.062,8.297-0.879C37.113,62.648,39.045,62,41,62
					c2.408,0,4.393,0.958,6.312,1.884C49.469,64.924,51.699,66,55,66c3.301,0,5.531-1.076,7.687-2.116
					C64.607,62.958,66.592,62,69,62c1.956,0,3.887,0.648,5.755,1.275c2.802,0.94,5.447,1.828,8.296,0.879
					c1.572-0.525,3.271,0.325,3.795,1.897c0.524,1.571-0.325,3.271-1.896,3.795c-4.755,1.585-8.829,0.216-12.104-0.883
					C71.369,68.468,69.976,68,69,68c-1.036,0-2.214,0.568-3.705,1.288C62.79,70.496,59.672,72,55,72z"/>
			</g>
		</g>
		<g>
			<path style="fill:#E8A099;" d="M57,55.5c0,1.381-0.896,2.5-2,2.5c-1.105,0-2-1.119-2-2.5c0-1.38,2-4.5,2-4.5S57,54.12,57,55.5z"
				/>
		</g>
		<g>
			<path style="fill:#E8A099;" d="M67.228,54.681c0.516,1.281,0.104,2.653-0.922,3.066c-1.024,0.413-2.273-0.292-2.789-1.572
				c-0.516-1.281,0.176-4.921,0.176-4.921S66.713,53.4,67.228,54.681z"/>
		</g>
		<g>
			<path style="fill:#E8A099;" d="M42.771,54.681c-0.516,1.281-0.103,2.653,0.922,3.066c1.024,0.413,2.273-0.292,2.789-1.572
				c0.516-1.281-0.176-4.921-0.176-4.921S43.287,53.4,42.771,54.681z"/>
		</g>
		<g>
			<path style="fill:#FFFFFF;" d="M54,23c0,0,3,2,3,6s-3,10-1,14c-3,0-6-4-6-8S54,28,54,23z"/>
		</g>
		<g>
			<path style="fill:#FFFFFF;" d="M63.775,32c0,0,1.649,1.1,1.649,3.3c0,2.2-1.649,5.5-0.55,7.7c-1.65,0-3.301-2.2-3.301-4.4
				C61.574,36.4,63.775,34.75,63.775,32z"/>
		</g>
		<g>
			<path style="fill:#FFFFFF;" d="M43.199,32c0,0,1.65,1.1,1.65,3.3c0,2.2-1.65,5.5-0.55,7.7c-1.649,0-3.3-2.2-3.3-4.4
				C41,36.4,43.199,34.75,43.199,32z"/>
		</g>
		<g>
			<path style="fill:#FFEFED;" d="M47.312,63.884C45.393,62.958,43.408,62,41,62c-1.956,0-3.887,0.648-5.755,1.275
				c-2.802,0.94-5.446,1.828-8.296,0.879c-1.572-0.525-3.271,0.325-3.795,1.897c-0.524,1.571,0.325,3.271,1.896,3.794
				c4.754,1.585,8.829,0.217,12.103-0.882C38.631,68.468,40.024,68,41,68c1.036,0,2.214,0.568,3.705,1.288
				C47.21,70.496,50.328,72,55,72v-6C51.699,66,49.469,64.924,47.312,63.884z"/>
		</g>
		<g>
			<path style="fill:#B84E44;" d="M55,72c-4.672,0-7.79-1.504-10.295-2.712C43.214,68.568,42.036,68,41,68
				c-0.976,0-2.369,0.468-3.846,0.963c-2.356,0.791-5.13,1.715-8.269,1.584l2.204,11.575C31.628,84.953,34.102,87,36.982,87H55V72z"
				/>
		</g>
	</g>
</g>
<g id="Yellow" style="display:none;">
	<g style="display:inline;">
		<g>
			<path style="fill:#FFF5D9;" d="M26.949,64.154c2.85,0.949,5.494,0.062,8.296-0.879C37.113,62.648,39.044,62,41,62
				c2.408,0,4.393,0.958,6.312,1.884C49.469,64.924,51.699,66,55,66s5.531-1.076,7.688-2.116C64.607,62.958,66.592,62,69,62
				c1.956,0,3.887,0.648,5.755,1.275c2.802,0.94,5.447,1.828,8.296,0.879c0.459-0.153,0.925-0.177,1.372-0.113
				C78.549,53.864,67.577,47,54.982,47c-12.599,0-23.572,6.867-29.445,17.049C25.996,63.976,26.477,63.997,26.949,64.154z"/>
		</g>
		<g>
			<path style="fill:#FFFFFF;" d="M54.982,47c-12.599,0-23.572,6.867-29.445,17.049c0.459-0.073,0.94-0.052,1.412,0.105
				c2.85,0.949,5.494,0.062,8.296-0.879C37.113,62.648,39.044,62,41,62c2.408,0,4.393,0.958,6.312,1.884
				C49.469,64.924,51.699,66,55,66V47C54.994,47,54.988,47,54.982,47z"/>
		</g>
		<g>
			<path style="fill:#66510D;" d="M72.846,68.963C71.369,68.468,69.976,68,69,68c-1.036,0-2.214,0.568-3.705,1.288
				C62.79,70.496,59.672,72,55,72s-7.79-1.504-10.295-2.712C43.214,68.568,42.036,68,41,68c-0.976,0-2.369,0.468-3.846,0.963
				c-2.356,0.791-5.13,1.715-8.27,1.584l2.204,11.575C31.628,84.953,34.102,87,36.982,87h35.297c2.777,0,5.193-1.907,5.836-4.61
				l2.818-11.834C77.867,70.644,75.156,69.739,72.846,68.963z"/>
		</g>
		<g>
			<g>
				<path style="fill:#FFE9A1;" d="M55,72c-4.672,0-7.79-1.504-10.295-2.712C43.214,68.568,42.036,68,41,68
					c-0.976,0-2.369,0.468-3.846,0.963c-3.274,1.099-7.35,2.467-12.104,0.883c-1.571-0.524-2.421-2.224-1.896-3.795
					c0.523-1.572,2.223-2.422,3.795-1.897c2.85,0.949,5.494,0.062,8.297-0.879C37.113,62.648,39.045,62,41,62
					c2.408,0,4.393,0.958,6.312,1.884C49.469,64.924,51.699,66,55,66s5.531-1.076,7.688-2.116C64.607,62.958,66.592,62,69,62
					c1.956,0,3.887,0.648,5.755,1.275c2.802,0.94,5.447,1.828,8.296,0.879c1.572-0.525,3.272,0.325,3.795,1.897
					c0.524,1.571-0.325,3.271-1.896,3.795c-4.755,1.585-8.829,0.216-12.104-0.883C71.369,68.468,69.976,68,69,68
					c-1.036,0-2.214,0.568-3.705,1.288C62.79,70.496,59.672,72,55,72z"/>
			</g>
		</g>
		<g>
			<path style="fill:#F5C43D;" d="M57,55.5c0,1.381-0.896,2.5-2,2.5s-2-1.119-2-2.5c0-1.38,2-4.5,2-4.5S57,54.12,57,55.5z"/>
		</g>
		<g>
			<path style="fill:#F5C43D;" d="M67.229,54.681c0.516,1.281,0.104,2.653-0.922,3.066c-1.024,0.413-2.273-0.292-2.789-1.572
				s0.176-4.921,0.176-4.921S66.713,53.4,67.229,54.681z"/>
		</g>
		<g>
			<path style="fill:#F5C43D;" d="M42.771,54.681c-0.516,1.281-0.104,2.653,0.922,3.066c1.024,0.413,2.273-0.292,2.789-1.572
				c0.516-1.281-0.176-4.921-0.176-4.921S43.287,53.4,42.771,54.681z"/>
		</g>
		<g>
			<path style="fill:#FFFFFF;" d="M54,23c0,0,3,2,3,6s-3,10-1,14c-3,0-6-4-6-8S54,28,54,23z"/>
		</g>
		<g>
			<path style="fill:#FFFFFF;" d="M63.775,32c0,0,1.649,1.1,1.649,3.3c0,2.2-1.649,5.5-0.55,7.7c-1.65,0-3.301-2.2-3.301-4.4
				C61.574,36.4,63.775,34.75,63.775,32z"/>
		</g>
		<g>
			<path style="fill:#FFFFFF;" d="M43.199,32c0,0,1.65,1.1,1.65,3.3c0,2.2-1.65,5.5-0.55,7.7c-1.649,0-3.3-2.2-3.3-4.4
				C41,36.4,43.199,34.75,43.199,32z"/>
		</g>
		<g>
			<path style="fill:#FFF5D9;" d="M47.312,63.884C45.393,62.958,43.408,62,41,62c-1.956,0-3.887,0.648-5.755,1.275
				c-2.802,0.94-5.446,1.828-8.296,0.879c-1.572-0.525-3.271,0.325-3.795,1.897c-0.524,1.571,0.325,3.271,1.896,3.794
				c4.754,1.585,8.829,0.217,12.104-0.882C38.631,68.468,40.024,68,41,68c1.036,0,2.214,0.568,3.705,1.288
				C47.21,70.496,50.328,72,55,72v-6C51.699,66,49.469,64.924,47.312,63.884z"/>
		</g>
		<g>
			<path style="fill:#947615;" d="M55,72c-4.672,0-7.79-1.504-10.295-2.712C43.214,68.568,42.036,68,41,68
				c-0.976,0-2.369,0.468-3.846,0.963c-2.356,0.791-5.13,1.715-8.27,1.584l2.204,11.575C31.628,84.953,34.102,87,36.982,87H55V72z"
				/>
		</g>
	</g>
</g>
<g id="R-Yellow" style="display:none;">
	<circle style="display:inline;fill:#FFD75E;" cx="55" cy="55" r="55"/>
	<g style="display:inline;">
		<g>
			<path style="fill:#FFF5D9;" d="M26.949,64.154c2.85,0.949,5.494,0.062,8.296-0.879C37.113,62.648,39.044,62,41,62
				c2.408,0,4.393,0.958,6.312,1.884C49.469,64.924,51.699,66,55,66s5.531-1.076,7.688-2.116C64.607,62.958,66.592,62,69,62
				c1.956,0,3.887,0.648,5.755,1.275c2.802,0.94,5.447,1.828,8.296,0.879c0.459-0.153,0.925-0.177,1.372-0.113
				C78.549,53.864,67.577,47,54.982,47c-12.599,0-23.572,6.867-29.445,17.049C25.996,63.976,26.477,63.997,26.949,64.154z"/>
		</g>
		<g>
			<path style="fill:#FFFFFF;" d="M54.982,47c-12.599,0-23.572,6.867-29.445,17.049c0.459-0.073,0.94-0.052,1.412,0.105
				c2.85,0.949,5.494,0.062,8.296-0.879C37.113,62.648,39.044,62,41,62c2.408,0,4.393,0.958,6.312,1.884
				C49.469,64.924,51.699,66,55,66V47C54.994,47,54.988,47,54.982,47z"/>
		</g>
		<g>
			<path style="fill:#66510D;" d="M72.846,68.963C71.369,68.468,69.976,68,69,68c-1.036,0-2.214,0.568-3.705,1.288
				C62.79,70.496,59.672,72,55,72s-7.79-1.504-10.295-2.712C43.214,68.568,42.036,68,41,68c-0.976,0-2.369,0.468-3.846,0.963
				c-2.356,0.791-5.13,1.715-8.27,1.584l2.204,11.575C31.628,84.953,34.102,87,36.982,87h35.297c2.777,0,5.193-1.907,5.836-4.61
				l2.818-11.834C77.867,70.644,75.156,69.739,72.846,68.963z"/>
		</g>
		<g>
			<g>
				<path style="fill:#FFE9A1;" d="M55,72c-4.672,0-7.79-1.504-10.295-2.712C43.214,68.568,42.036,68,41,68
					c-0.976,0-2.369,0.468-3.846,0.963c-3.274,1.099-7.35,2.467-12.104,0.883c-1.571-0.524-2.421-2.224-1.896-3.795
					c0.523-1.572,2.223-2.422,3.795-1.897c2.85,0.949,5.494,0.062,8.297-0.879C37.113,62.648,39.045,62,41,62
					c2.408,0,4.393,0.958,6.312,1.884C49.469,64.924,51.699,66,55,66s5.531-1.076,7.688-2.116C64.607,62.958,66.592,62,69,62
					c1.956,0,3.887,0.648,5.755,1.275c2.802,0.94,5.447,1.828,8.296,0.879c1.572-0.525,3.271,0.325,3.795,1.897
					c0.524,1.571-0.325,3.271-1.896,3.795c-4.755,1.585-8.829,0.216-12.104-0.883C71.369,68.468,69.976,68,69,68
					c-1.036,0-2.214,0.568-3.705,1.288C62.79,70.496,59.672,72,55,72z"/>
			</g>
		</g>
		<g>
			<path style="fill:#F5C43D;" d="M57,55.5c0,1.381-0.896,2.5-2,2.5s-2-1.119-2-2.5c0-1.38,2-4.5,2-4.5S57,54.12,57,55.5z"/>
		</g>
		<g>
			<path style="fill:#F5C43D;" d="M67.229,54.681c0.516,1.281,0.103,2.653-0.922,3.066c-1.024,0.413-2.273-0.292-2.789-1.572
				c-0.516-1.281,0.176-4.921,0.176-4.921S66.713,53.4,67.229,54.681z"/>
		</g>
		<g>
			<path style="fill:#F5C43D;" d="M42.771,54.681c-0.516,1.281-0.104,2.653,0.922,3.066c1.024,0.413,2.273-0.292,2.789-1.572
				c0.516-1.281-0.176-4.921-0.176-4.921S43.287,53.4,42.771,54.681z"/>
		</g>
		<g>
			<path style="fill:#FFFFFF;" d="M54,23c0,0,3,2,3,6s-3,10-1,14c-3,0-6-4-6-8S54,28,54,23z"/>
		</g>
		<g>
			<path style="fill:#FFFFFF;" d="M63.775,32c0,0,1.649,1.1,1.649,3.3c0,2.2-1.649,5.5-0.55,7.7c-1.65,0-3.301-2.2-3.301-4.4
				C61.574,36.4,63.775,34.75,63.775,32z"/>
		</g>
		<g>
			<path style="fill:#FFFFFF;" d="M43.199,32c0,0,1.65,1.1,1.65,3.3c0,2.2-1.65,5.5-0.55,7.7c-1.649,0-3.3-2.2-3.3-4.4
				C41,36.4,43.199,34.75,43.199,32z"/>
		</g>
		<g>
			<path style="fill:#FFF5D9;" d="M47.312,63.884C45.393,62.958,43.408,62,41,62c-1.956,0-3.887,0.648-5.755,1.275
				c-2.802,0.94-5.446,1.828-8.296,0.879c-1.572-0.525-3.272,0.325-3.795,1.897c-0.524,1.571,0.325,3.271,1.896,3.794
				c4.754,1.585,8.829,0.217,12.104-0.882C38.631,68.468,40.024,68,41,68c1.036,0,2.214,0.568,3.705,1.288
				C47.21,70.496,50.328,72,55,72v-6C51.699,66,49.469,64.924,47.312,63.884z"/>
		</g>
		<g>
			<path style="fill:#947615;" d="M55,72c-4.672,0-7.79-1.504-10.295-2.712C43.214,68.568,42.036,68,41,68
				c-0.976,0-2.369,0.468-3.846,0.963c-2.356,0.791-5.13,1.715-8.27,1.584l2.204,11.575C31.628,84.953,34.102,87,36.982,87H55V72z"
				/>
		</g>
	</g>
</g>
</svg>
