<?xml version="1.0" encoding="iso-8859-1"?>
<!-- Generator: Adobe Illustrator 17.1.0, SVG Export Plug-In . SVG Version: 6.00 Build 0)  -->
<!DOCTYPE svg PUBLIC "-//W3C//DTD SVG 1.0//EN" "http://www.w3.org/TR/2001/REC-SVG-20010904/DTD/svg10.dtd">
<svg version="1.0" xmlns="http://www.w3.org/2000/svg" xmlns:xlink="http://www.w3.org/1999/xlink" x="0px" y="0px" width="110px"
	 height="110px" viewBox="0 0 110 110" style="enable-background:new 0 0 110 110;" xml:space="preserve">
<g id="Artboard">
</g>
<g id="Multicolor">
	<g>
		<circle style="fill:#25B7D3;" cx="55" cy="55" r="55"/>
	</g>
	<g>
		<path style="fill:#F7B4B4;" d="M57.655,68H55h-2.655c-0.856,0-1.671-0.365-2.24-1.004L45,63v4.5c0,0,0,7.5,10,7.5s10-7.5,10-7.5
			V63l-5.105,3.996C59.326,67.635,58.511,68,57.655,68z"/>
		<path style="fill:#FBC8C8;" d="M50.105,66.993L45,62.997v4.5c0,0,0,7.5,10,7.5v-7h-2.655
			C51.489,67.997,50.674,67.632,50.105,66.993z"/>
		<path style="fill:#FFFFFF;" d="M45.625,67.312L55,87l9.375-19.688L55.015,72C55.015,72,45.674,67.336,45.625,67.312z"/>
		<g>
			<polygon style="fill:#3E3E3F;" points="59,87 56.201,76.8 58,75.002 54.981,71.978 51.983,74.976 53.801,76.793 51,87 			"/>
		</g>
		<g>
			<polygon style="fill:#5B5C5F;" points="55,87 55,71.997 54.981,71.978 51.983,74.976 53.801,76.793 51,87 			"/>
		</g>
		<g>
			<path style="fill:#0484AB;" d="M23,87l4-11c0.615-1.333,1.698-2.394,3.043-2.983L43,68l12,19H23z"/>
		</g>
		<g>
			<path style="fill:#0484AB;" d="M87,87l-4-11c-0.615-1.333-1.698-2.394-3.043-2.983L67,68L55,87H87z"/>
		</g>
		<g>
			<g>
				<polygon style="fill:#3E3E3F;" points="26.089,74.068 26.824,78 29.67,76.896 28.934,72.963 				"/>
			</g>
			<g>
				<polygon style="fill:#3E3E3F;" points="31.78,71.858 32.515,75.791 35.361,74.687 34.625,70.754 				"/>
			</g>
			<g>
				<polygon style="fill:#3E3E3F;" points="41.264,68.175 37.47,69.649 38.206,73.582 42,72.11 				"/>
			</g>
			<g>
				<polygon style="fill:#F3B607;" points="28.934,72.963 29.67,76.896 32.515,75.791 31.78,71.858 				"/>
			</g>
			<g>
				<polygon style="fill:#F3B607;" points="34.625,70.754 35.361,74.687 38.206,73.582 37.47,69.649 				"/>
			</g>
		</g>
		<g>
			<g>
				<polygon style="fill:#3E3E3F;" points="84,74.068 83.265,78 80.419,76.896 81.155,72.963 				"/>
			</g>
			<g>
				<polygon style="fill:#3E3E3F;" points="78.309,71.858 77.574,75.791 74.728,74.687 75.464,70.754 				"/>
			</g>
			<g>
				<polygon style="fill:#3E3E3F;" points="68.825,68.175 72.618,69.649 71.883,73.582 68.089,72.11 				"/>
			</g>
			<g>
				<polygon style="fill:#F3B607;" points="81.155,72.963 80.419,76.896 77.574,75.791 78.309,71.858 				"/>
			</g>
			<g>
				<polygon style="fill:#F3B607;" points="75.464,70.754 74.728,74.687 71.883,73.582 72.618,69.649 				"/>
			</g>
		</g>
		<g>
			<path style="fill:#F3B607;" d="M76.264,83.104C78.519,82.121,83,81,83,81h-7l-1-2l-1,2h-7c0,0,4.481,1.121,6.736,2.104L75,85
				L76.264,83.104z"/>
		</g>
		<path style="fill:#FBC8C8;" d="M70,45c-1,0-1,1.111-1,1.111v-3.114c-0.004-2.236-0.07-4.286-0.365-6.106
			C66.796,36.016,62.812,35,55,35c-7.813,0-11.796,1.016-13.635,1.891c-0.295,1.82-0.361,3.87-0.365,6.106v10l4,10l5.105,3.996
			c0.569,0.639,1.384,1.004,2.24,1.004H55h2.655c0.856,0,1.671-0.365,2.24-1.004L65,62.997l3.207-8.017
			C71.042,54.776,72,50.476,72,47.222C72,46.111,71,45,70,45z"/>
		<path style="fill:#FBD7D7;" d="M41,42.997v3.114c0,0,0-1.111-1-1.111s-2,1.111-2,2.222c0,3.253,0.958,7.554,3.793,7.758L45,62.997
			l5.105,3.996c0.569,0.639,1.384,1.004,2.24,1.004H55V35c-7.813,0-11.796,1.016-13.635,1.891C41.07,38.711,41.004,40.761,41,42.997
			z"/>
		<g>
			<path style="fill:#3E3E3F;" d="M52,46.997c0-1.104-0.896-2-2-2c-0.002,0-0.004,0-0.006,0C49.995,45.019,50,45.039,50,45.06
				c0,1.103-0.892,1.996-1.994,2c0.033,1.075,0.91,1.938,1.994,1.938C51.104,48.997,52,48.102,52,46.997z"/>
		</g>
		<g>
			<path style="fill:#3E3E3F;" d="M61.994,46.997c0-1.104-0.896-2-2-2c-0.002,0-0.004,0-0.006,0
				c0.001,0.021,0.006,0.041,0.006,0.062c0,1.103-0.892,1.996-1.994,2c0.033,1.075,0.91,1.938,1.994,1.938
				C61.098,48.997,61.994,48.102,61.994,46.997z"/>
		</g>
		<g>
			<path style="fill:#F79392;" d="M50,56.997h10c0,0,0,3-5,3S50,56.997,50,56.997z"/>
		</g>
		<g>
			<path style="fill:#84462D;" d="M40,40c0,2.156,0,1.873,0,3c0,0,1,7,2,9c0,0,0,0,1,0c0-1.383,0-8.587,0-12H40z"/>
		</g>
		<g>
			<path style="fill:#84462D;" d="M70,40c0,2.156,0,1.873,0,3c0,0-1,7-2,9c0,0,0,0-1,0c0-1.383,0-8.587,0-12H70z"/>
		</g>
		<g>
			<path style="fill:#FFFFFF;" d="M55,23c-2,0-20,4-20,10c0,2,5,5,5,5c0-0.602,3-3,15-3s15,2.398,15,3c0,0,5-3,5-5
				C75,27,57,23,55,23z"/>
		</g>
		<g>
			<path style="fill:#F3B607;" d="M55,34c-11,0-15,3-15,4c0,0,0,0.878,0,2c3-3,15-3,15-3s12,0,15,3c0-1.122,0-2,0-2
				C70,37,66,34,55,34z"/>
		</g>
		<g>
			<path style="fill:#F3B607;" d="M56.264,30.104C58.519,29.121,63,28,63,28h-7l-1-2l-1,2h-7c0,0,4.481,1.121,6.736,2.104L55,32
				L56.264,30.104z"/>
		</g>
		<g>
			<path style="fill:#3E3E3F;" d="M55,37.031c0,0-13,0-15,3c2.997,5.722,14.628,4.697,15,4.969c0.372-0.271,12.003,0.753,15-4.969
				C68,37.031,55,37.031,55,37.031z"/>
		</g>
		<g>
			<path style="fill:#5B5C5F;" d="M40,40.031c2.997,5.722,14.628,4.697,15,4.969v-7.969C55,37.031,42,37.031,40,40.031z"/>
		</g>
		<g>
			<polygon style="fill:#6FDAF1;" points="55,87 45,66 41,68 39.667,78.667 46,78.667 43.667,82.667 51,87 			"/>
		</g>
		<g>
			<polygon style="fill:#6FDAF1;" points="55,87 65,66 69,68 70.333,78.667 64,78.667 66.333,82.667 59,87 			"/>
		</g>
	</g>
</g>
</svg>
