<?xml version="1.0" encoding="iso-8859-1"?>
<!-- Generator: Adobe Illustrator 17.1.0, SVG Export Plug-In . SVG Version: 6.00 Build 0)  -->
<!DOCTYPE svg PUBLIC "-//W3C//DTD SVG 1.0//EN" "http://www.w3.org/TR/2001/REC-SVG-20010904/DTD/svg10.dtd">
<svg version="1.0" xmlns="http://www.w3.org/2000/svg" xmlns:xlink="http://www.w3.org/1999/xlink" x="0px" y="0px" width="110px"
	 height="110px" viewBox="0 0 110 110" style="enable-background:new 0 0 110 110;" xml:space="preserve">
<g id="Artboard" style="display:none;">
	<rect x="-1247" y="-199" style="display:inline;fill:#8C8C8C;" width="1412" height="743"/>
</g>
<g id="R-Multicolor">
	<circle style="fill:#25B7D3;" cx="55" cy="55" r="55"/>
	<g>
		<path style="fill:#E2E4E5;" d="M69.67,47.04L36.22,80.49L22.93,87l6.22-13.58l33.61-33.61C63.96,43.07,66.48,45.7,69.67,47.04z"/>
		<path style="fill:#FFFFFF;" d="M65.63,44.3L22.93,87l6.22-13.58l33.61-33.61C63.39,41.51,64.37,43.04,65.63,44.3z"/>
		<path style="fill:#DF2C2C;" d="M87,35.5c0,11.257-13.673,16.627-21.37,8.8C63.33,42,62,38.856,62,35.5C62,28.6,67.6,23,74.5,23
			S87,28.6,87,35.5z"/>
		<path style="fill:#FA5655;" d="M74.5,23C67.6,23,62,28.6,62,35.5c0,3.351,1.327,6.496,3.63,8.8
			c0.008,0.008,0.017,0.015,0.025,0.023l17.671-17.671C81.064,24.396,77.944,23,74.5,23z"/>
	</g>
</g>
<g id="Multicolor" style="display:none;">
	<g style="display:inline;">
		<path style="fill:#E2E4E5;" d="M69.67,47.04L36.22,80.49L22.93,87l6.22-13.58l33.61-33.61C63.96,43.07,66.48,45.7,69.67,47.04z"/>
		<path style="fill:#FFFFFF;" d="M65.63,44.3L22.93,87l6.22-13.58l33.61-33.61C63.39,41.51,64.37,43.04,65.63,44.3z"/>
		<path style="fill:#DF2C2C;" d="M87,35.5c0,11.257-13.673,16.627-21.37,8.8C63.33,42,62,38.856,62,35.5C62,28.6,67.6,23,74.5,23
			S87,28.6,87,35.5z"/>
		<path style="fill:#FA5655;" d="M74.5,23C67.6,23,62,28.6,62,35.5c0,3.351,1.327,6.496,3.63,8.8
			c0.008,0.008,0.017,0.015,0.025,0.023l17.671-17.671C81.064,24.396,77.944,23,74.5,23z"/>
	</g>
</g>
<g id="Blue" style="display:none;">
	<g style="display:inline;">
		<g>
			<path style="fill:#E1F5FA;" d="M69.673,47.04l-33.45,33.45L22.933,87l6.22-13.58l33.61-33.61
				C63.963,43.07,66.483,45.7,69.673,47.04z"/>
		</g>
		<g>
			<path style="fill:#FFFFFF;" d="M65.633,44.3L22.933,87l6.22-13.58l33.61-33.61C63.393,41.51,64.373,43.04,65.633,44.3z"/>
		</g>
		<g>
			<path style="fill:#0081A1;" d="M87.003,35.5c0,11.257-13.673,16.627-21.37,8.8c-2.3-2.3-3.63-5.444-3.63-8.8
				c0-6.9,5.6-12.5,12.5-12.5C81.403,23,87.003,28.6,87.003,35.5z"/>
		</g>
		<g>
			<path style="fill:#009FC7;" d="M74.503,23c-6.9,0-12.5,5.6-12.5,12.5c0,3.352,1.327,6.497,3.63,8.8
				c0.008,0.008,0.017,0.015,0.025,0.023l17.671-17.671C81.067,24.395,77.947,23,74.503,23z"/>
		</g>
	</g>
</g>
<g id="R-Blue" style="display:none;">
	<g style="display:inline;">
		<circle style="fill:#81D2EB;" cx="55" cy="55" r="55"/>
	</g>
	<g style="display:inline;">
		<g>
			<path style="fill:#E1F5FA;" d="M69.67,47.04L36.22,80.49L22.93,87l6.22-13.58l33.61-33.61C63.96,43.07,66.48,45.7,69.67,47.04z"
				/>
		</g>
		<g>
			<path style="fill:#FFFFFF;" d="M65.63,44.3L22.93,87l6.22-13.58l33.61-33.61C63.39,41.51,64.37,43.04,65.63,44.3z"/>
		</g>
		<g>
			<path style="fill:#0081A1;" d="M87,35.5c0,11.257-13.673,16.627-21.37,8.8C63.33,42,62,38.855,62,35.5C62,28.6,67.6,23,74.5,23
				S87,28.6,87,35.5z"/>
		</g>
		<g>
			<path style="fill:#009FC7;" d="M74.5,23C67.6,23,62,28.6,62,35.5c0,3.352,1.327,6.497,3.63,8.8
				c0.008,0.008,0.017,0.015,0.025,0.023l17.671-17.671C81.064,24.396,77.944,23,74.5,23z"/>
		</g>
	</g>
</g>
<g id="Green" style="display:none;">
	<g style="display:inline;">
		<g>
			<path style="fill:#D7FCF9;" d="M69.673,47.04l-33.45,33.45L22.933,87l6.22-13.58l33.61-33.61
				C63.963,43.07,66.483,45.7,69.673,47.04z"/>
		</g>
		<g>
			<path style="fill:#FFFFFF;" d="M65.633,44.3L22.933,87l6.22-13.58l33.61-33.61C63.393,41.51,64.373,43.04,65.633,44.3z"/>
		</g>
		<g>
			<path style="fill:#009687;" d="M87.003,35.5c0,11.257-13.673,16.627-21.37,8.8c-2.3-2.3-3.63-5.444-3.63-8.8
				c0-6.9,5.6-12.5,12.5-12.5C81.403,23,87.003,28.6,87.003,35.5z"/>
		</g>
		<g>
			<path style="fill:#00B8A5;" d="M74.503,23c-6.9,0-12.5,5.6-12.5,12.5c0,3.352,1.327,6.497,3.63,8.8
				c0.008,0.008,0.017,0.015,0.025,0.023l17.671-17.671C81.067,24.396,77.947,23,74.503,23z"/>
		</g>
	</g>
</g>
<g id="R-Green" style="display:none;">
	<g style="display:inline;">
		<circle style="fill:#87E0C8;" cx="55" cy="55" r="55"/>
	</g>
	<g style="display:inline;">
		<g>
			<path style="fill:#D7FCF9;" d="M69.67,47.04L36.22,80.49L22.93,87l6.22-13.58l33.61-33.61C63.96,43.07,66.48,45.7,69.67,47.04z"
				/>
		</g>
		<g>
			<path style="fill:#FFFFFF;" d="M65.63,44.3L22.93,87l6.22-13.58l33.61-33.61C63.39,41.51,64.37,43.04,65.63,44.3z"/>
		</g>
		<g>
			<path style="fill:#009687;" d="M87,35.5c0,11.257-13.673,16.627-21.37,8.8C63.33,42,62,38.855,62,35.5C62,28.6,67.6,23,74.5,23
				S87,28.6,87,35.5z"/>
		</g>
		<g>
			<path style="fill:#00B8A5;" d="M74.5,23C67.6,23,62,28.6,62,35.5c0,3.352,1.327,6.497,3.63,8.8
				c0.008,0.008,0.017,0.015,0.025,0.023l17.671-17.671C81.064,24.396,77.944,23,74.5,23z"/>
		</g>
	</g>
</g>
<g id="Red" style="display:none;">
	<g style="display:inline;">
		<g>
			<path style="fill:#FFEFED;" d="M69.67,47.04L36.22,80.49L22.93,87l6.22-13.58l33.61-33.61C63.96,43.07,66.48,45.7,69.67,47.04z"
				/>
		</g>
		<g>
			<path style="fill:#FFFFFF;" d="M65.63,44.3L22.93,87l6.22-13.58l33.61-33.61C63.39,41.51,64.37,43.04,65.63,44.3z"/>
		</g>
		<g>
			<path style="fill:#C23023;" d="M87,35.5c0,11.257-13.673,16.627-21.37,8.8c-2.3-2.3-3.63-5.444-3.63-8.8C62,28.6,67.6,23,74.5,23
				S87,28.6,87,35.5z"/>
		</g>
		<g>
			<path style="fill:#E54B44;" d="M74.5,23C67.6,23,62,28.6,62,35.5c0,3.352,1.327,6.497,3.63,8.8
				c0.008,0.008,0.017,0.015,0.025,0.023l17.671-17.671C81.064,24.395,77.944,23,74.5,23z"/>
		</g>
	</g>
</g>
<g id="R-Red" style="display:none;">
	<g style="display:inline;">
		<circle style="fill:#FABBAF;" cx="55" cy="55" r="55"/>
	</g>
	<g style="display:inline;">
		<g>
			<path style="fill:#FFEFED;" d="M69.67,47.04L36.22,80.49L22.93,87l6.22-13.58l33.61-33.61C63.96,43.07,66.48,45.7,69.67,47.04z"
				/>
		</g>
		<g>
			<path style="fill:#FFFFFF;" d="M65.63,44.3L22.93,87l6.22-13.58l33.61-33.61C63.39,41.51,64.37,43.04,65.63,44.3z"/>
		</g>
		<g>
			<path style="fill:#C23023;" d="M87,35.5c0,11.257-13.673,16.627-21.37,8.8C63.33,42,62,38.855,62,35.5C62,28.6,67.6,23,74.5,23
				S87,28.6,87,35.5z"/>
		</g>
		<g>
			<path style="fill:#E54B44;" d="M74.5,23C67.6,23,62,28.6,62,35.5c0,3.352,1.327,6.497,3.63,8.8
				c0.008,0.008,0.017,0.015,0.025,0.023l17.671-17.671C81.064,24.396,77.944,23,74.5,23z"/>
		</g>
	</g>
</g>
<g id="Yellow" style="display:none;">
	<g style="display:inline;">
		<g>
			<path style="fill:#FFF5D9;" d="M69.673,47.04l-33.45,33.45L22.933,87l6.22-13.58l33.61-33.61
				C63.963,43.07,66.483,45.7,69.673,47.04z"/>
		</g>
		<g>
			<path style="fill:#FFFFFF;" d="M65.633,44.3L22.933,87l6.22-13.58l33.61-33.61C63.393,41.51,64.373,43.04,65.633,44.3z"/>
		</g>
		<g>
			<path style="fill:#E07000;" d="M87.003,35.5c0,11.257-13.673,16.627-21.37,8.8c-2.3-2.3-3.63-5.444-3.63-8.8
				c0-6.9,5.6-12.5,12.5-12.5C81.403,23,87.003,28.6,87.003,35.5z"/>
		</g>
		<g>
			<path style="fill:#FA9200;" d="M74.503,23c-6.9,0-12.5,5.6-12.5,12.5c0,3.352,1.327,6.497,3.63,8.8
				c0.008,0.008,0.017,0.015,0.025,0.023l17.671-17.671C81.067,24.395,77.947,23,74.503,23z"/>
		</g>
	</g>
</g>
<g id="R-Yellow" style="display:none;">
	<g style="display:inline;">
		<circle style="fill:#FFD75E;" cx="55" cy="55" r="55"/>
	</g>
	<g style="display:inline;">
		<g>
			<path style="fill:#FFF5D9;" d="M69.67,47.04L36.22,80.49L22.93,87l6.22-13.58l33.61-33.61C63.96,43.07,66.48,45.7,69.67,47.04z"
				/>
		</g>
		<g>
			<path style="fill:#FFFFFF;" d="M65.63,44.3L22.93,87l6.22-13.58l33.61-33.61C63.39,41.51,64.37,43.04,65.63,44.3z"/>
		</g>
		<g>
			<path style="fill:#E07000;" d="M87,35.5c0,11.257-13.673,16.627-21.37,8.8C63.33,42,62,38.855,62,35.5C62,28.6,67.6,23,74.5,23
				S87,28.6,87,35.5z"/>
		</g>
		<g>
			<path style="fill:#FA9200;" d="M74.5,23C67.6,23,62,28.6,62,35.5c0,3.352,1.327,6.497,3.63,8.8
				c0.008,0.008,0.017,0.015,0.025,0.023l17.671-17.671C81.064,24.396,77.944,23,74.5,23z"/>
		</g>
	</g>
</g>
</svg>
