<?xml version="1.0" encoding="iso-8859-1"?>
<!-- Generator: Adobe Illustrator 17.1.0, SVG Export Plug-In . SVG Version: 6.00 Build 0)  -->
<!DOCTYPE svg PUBLIC "-//W3C//DTD SVG 1.0//EN" "http://www.w3.org/TR/2001/REC-SVG-20010904/DTD/svg10.dtd">
<svg version="1.0" xmlns="http://www.w3.org/2000/svg" xmlns:xlink="http://www.w3.org/1999/xlink" x="0px" y="0px" width="110px"
	 height="110px" viewBox="0 0 110 110" style="enable-background:new 0 0 110 110;" xml:space="preserve">
<g id="Artboard" style="display:none;">
	<rect x="-1119" y="-199" style="display:inline;fill:#8C8C8C;" width="1412" height="743"/>
</g>
<g id="R-Multicolor">
	<circle style="fill:#FABC3D;" cx="55" cy="55" r="55"/>
	<g>
		<polygon style="fill:#E2E4E5;" points="48.13,73.13 23,87 37.18,62.18 		"/>
		<polygon style="fill:#DF2C2C;" points="87,44 67,24 62,29 64,31 47,48 31,48 27,52 42.627,67.627 59,84 63,80 63,64 80,47 82,49 
					"/>
		
			<rect x="70.964" y="22.358" transform="matrix(-0.7071 0.7071 -0.7071 -0.7071 152.9888 9.6299)" style="fill:#BF0302;" width="7.071" height="28.284"/>
		<polygon style="fill:#FA5655;" points="47,48 31,48 46.627,63.627 71.627,38.627 64,31 		"/>
		<polygon style="fill:#BF0302;" points="46.627,63.627 31,48 27,52 42.627,67.627 59,84 63,80 		"/>
		<polygon style="fill:#FFFFFF;" points="37.182,62.182 23,87 23.478,86.777 42.627,67.627 		"/>
		<polygon style="fill:#DF2C2C;" points="31,48 27,52 42.627,67.627 44.874,65.381 46.627,63.627 		"/>
		<polygon style="fill:#DF2C2C;" points="67,24 62,29 64,31 71.627,38.627 74.627,35.627 76.627,33.627 		"/>
	</g>
</g>
<g id="Multicolor" style="display:none;">
	<g style="display:inline;">
		<polygon style="fill:#E2E4E5;" points="48.13,73.13 23,87 37.18,62.18 		"/>
		<polygon style="fill:#DF2C2C;" points="87,44 67,24 62,29 64,31 47,48 31,48 27,52 42.627,67.627 59,84 63,80 63,64 80,47 82,49 
					"/>
		
			<rect x="70.964" y="22.358" transform="matrix(-0.7071 0.7071 -0.7071 -0.7071 152.9888 9.6299)" style="fill:#BF0302;" width="7.071" height="28.284"/>
		<polygon style="fill:#FA5655;" points="47,48 31,48 46.627,63.627 71.627,38.627 64,31 		"/>
		<polygon style="fill:#BF0302;" points="46.627,63.627 31,48 27,52 42.627,67.627 59,84 63,80 		"/>
		<polygon style="fill:#FFFFFF;" points="37.182,62.182 23,87 23.478,86.777 42.627,67.627 		"/>
		<polygon style="fill:#DF2C2C;" points="31,48 27,52 42.627,67.627 44.874,65.381 46.627,63.627 		"/>
		<polygon style="fill:#DF2C2C;" points="67,24 62,29 64,31 71.627,38.627 74.627,35.627 76.627,33.627 		"/>
	</g>
</g>
<g id="Blue" style="display:none;">
	<g style="display:inline;">
		<g>
			<polygon style="fill:#E1F5FA;" points="48.133,73.13 23.003,87 37.183,62.18 			"/>
		</g>
		<g>
			<polygon style="fill:#0081A1;" points="87.003,44 67.003,24 62.003,29 64.003,31 47.003,48 31.003,48 27.003,52 42.63,67.627 
				59.003,84 63.003,80 63.003,64 80.003,47 82.003,49 			"/>
		</g>
		<g>
			
				<rect x="70.967" y="22.358" transform="matrix(-0.7071 0.7071 -0.7071 -0.7071 152.9935 9.6277)" style="fill:#BBE7F2;" width="7.071" height="28.284"/>
		</g>
		<g>
			<polygon style="fill:#009FC7;" points="47.003,48 31.003,48 46.63,63.627 71.63,38.627 64.003,31 			"/>
		</g>
		<g>
			<polygon style="fill:#BBE7F2;" points="46.63,63.627 31.003,48 27.003,52 42.63,67.627 59.003,84 63.003,80 			"/>
		</g>
		<g>
			<polygon style="fill:#FFFFFF;" points="37.184,62.181 23.003,87 23.48,86.777 42.63,67.627 			"/>
		</g>
		<g>
			<polygon style="fill:#E1F5FA;" points="31.003,48 27.003,52 42.63,67.627 44.876,65.381 46.63,63.627 			"/>
		</g>
		<g>
			<polygon style="fill:#E1F5FA;" points="67.003,24 62.003,29 64.003,31 71.63,38.627 74.63,35.627 76.63,33.627 			"/>
		</g>
	</g>
</g>
<g id="R-Blue" style="display:none;">
	<g style="display:inline;">
		<circle style="fill:#81D2EB;" cx="55" cy="55" r="55"/>
	</g>
	<g style="display:inline;">
		<g>
			<polygon style="fill:#E1F5FA;" points="48.13,73.13 23,87 37.18,62.18 			"/>
		</g>
		<g>
			<polygon style="fill:#0081A1;" points="87,44 67,24 62,29 64,31 47,48 31,48 27,52 42.627,67.627 59,84 63,80 63,64 80,47 82,49 
							"/>
		</g>
		<g>
			
				<rect x="70.964" y="22.358" transform="matrix(-0.7071 0.7071 -0.7071 -0.7071 152.9888 9.6299)" style="fill:#BBE7F2;" width="7.071" height="28.284"/>
		</g>
		<g>
			<polygon style="fill:#009FC7;" points="47,48 31,48 46.627,63.627 71.627,38.627 64,31 			"/>
		</g>
		<g>
			<polygon style="fill:#BBE7F2;" points="46.627,63.627 31,48 27,52 42.627,67.627 59,84 63,80 			"/>
		</g>
		<g>
			<polygon style="fill:#FFFFFF;" points="37.182,62.182 23,87 23.478,86.777 42.627,67.627 			"/>
		</g>
		<g>
			<polygon style="fill:#E1F5FA;" points="31,48 27,52 42.627,67.627 44.874,65.381 46.627,63.627 			"/>
		</g>
		<g>
			<polygon style="fill:#E1F5FA;" points="67,24 62,29 64,31 71.627,38.627 74.627,35.627 76.627,33.627 			"/>
		</g>
	</g>
</g>
<g id="Green" style="display:none;">
	<g style="display:inline;">
		<g>
			<polygon style="fill:#D7FCF9;" points="48.133,73.13 23.003,87 37.183,62.18 			"/>
		</g>
		<g>
			<polygon style="fill:#009687;" points="87.003,44 67.003,24 62.003,29 64.003,31 47.003,48 31.003,48 27.003,52 42.63,67.627 
				59.003,84 63.003,80 63.003,64 80.003,47 82.003,49 			"/>
		</g>
		<g>
			
				<rect x="70.967" y="22.358" transform="matrix(-0.7071 0.7071 -0.7071 -0.7071 152.9937 9.628)" style="fill:#AAF0E9;" width="7.071" height="28.284"/>
		</g>
		<g>
			<polygon style="fill:#00B8A5;" points="47.003,48 31.003,48 46.63,63.627 71.63,38.627 64.003,31 			"/>
		</g>
		<g>
			<polygon style="fill:#AAF0E9;" points="46.63,63.627 31.003,48 27.003,52 42.63,67.627 59.003,84 63.003,80 			"/>
		</g>
		<g>
			<polygon style="fill:#FFFFFF;" points="37.184,62.182 23.003,87 23.48,86.777 42.63,67.627 			"/>
		</g>
		<g>
			<polygon style="fill:#D7FCF9;" points="31.003,48 27.003,52 42.63,67.627 44.876,65.381 46.63,63.627 			"/>
		</g>
		<g>
			<polygon style="fill:#D7FCF9;" points="67.003,24 62.003,29 64.003,31 71.63,38.627 74.63,35.627 76.63,33.627 			"/>
		</g>
	</g>
</g>
<g id="R-Green" style="display:none;">
	<g style="display:inline;">
		<circle style="fill:#87E0C8;" cx="55" cy="55" r="55"/>
	</g>
	<g style="display:inline;">
		<g>
			<polygon style="fill:#D7FCF9;" points="48.13,73.13 23,87 37.18,62.18 			"/>
		</g>
		<g>
			<polygon style="fill:#009687;" points="87,44 67,24 62,29 64,31 47,48 31,48 27,52 42.627,67.627 59,84 63,80 63,64 80,47 82,49 
							"/>
		</g>
		<g>
			
				<rect x="70.964" y="22.358" transform="matrix(-0.7071 0.7071 -0.7071 -0.7071 152.9888 9.6299)" style="fill:#AAF0E9;" width="7.071" height="28.284"/>
		</g>
		<g>
			<polygon style="fill:#00B8A5;" points="47,48 31,48 46.627,63.627 71.627,38.627 64,31 			"/>
		</g>
		<g>
			<polygon style="fill:#AAF0E9;" points="46.627,63.627 31,48 27,52 42.627,67.627 59,84 63,80 			"/>
		</g>
		<g>
			<polygon style="fill:#FFFFFF;" points="37.182,62.182 23,87 23.478,86.777 42.627,67.627 			"/>
		</g>
		<g>
			<polygon style="fill:#D7FCF9;" points="31,48 27,52 42.627,67.627 44.874,65.381 46.627,63.627 			"/>
		</g>
		<g>
			<polygon style="fill:#D7FCF9;" points="67,24 62,29 64,31 71.627,38.627 74.627,35.627 76.627,33.627 			"/>
		</g>
	</g>
</g>
<g id="Red" style="display:none;">
	<g style="display:inline;">
		<g>
			<polygon style="fill:#FFEFED;" points="48.13,73.13 23,87 37.18,62.18 			"/>
		</g>
		<g>
			<polygon style="fill:#C23023;" points="87,44 67,24 62,29 64,31 47,48 31,48 27,52 42.627,67.627 59,84 63,80 63,64 80,47 82,49 
							"/>
		</g>
		<g>
			
				<rect x="70.964" y="22.358" transform="matrix(-0.7071 0.7071 -0.7071 -0.7071 152.9887 9.6297)" style="fill:#FFD7D4;" width="7.071" height="28.284"/>
		</g>
		<g>
			<polygon style="fill:#E54B44;" points="47,48 31,48 46.627,63.627 71.627,38.627 64,31 			"/>
		</g>
		<g>
			<polygon style="fill:#FFD7D4;" points="46.627,63.627 31,48 27,52 42.627,67.627 59,84 63,80 			"/>
		</g>
		<g>
			<polygon style="fill:#FFFFFF;" points="37.182,62.181 23,87 23.478,86.777 42.627,67.627 			"/>
		</g>
		<g>
			<polygon style="fill:#FFEFED;" points="31,48 27,52 42.627,67.627 44.874,65.381 46.627,63.627 			"/>
		</g>
		<g>
			<polygon style="fill:#FFEFED;" points="67,24 62,29 64,31 71.627,38.627 74.627,35.627 76.627,33.627 			"/>
		</g>
	</g>
</g>
<g id="R-Red" style="display:none;">
	<g style="display:inline;">
		<circle style="fill:#FABBAF;" cx="55" cy="55" r="55"/>
	</g>
	<g style="display:inline;">
		<g>
			<polygon style="fill:#FFEFED;" points="48.13,73.13 23,87 37.18,62.18 			"/>
		</g>
		<g>
			<polygon style="fill:#C23023;" points="87,44 67,24 62,29 64,31 47,48 31,48 27,52 42.627,67.627 59,84 63,80 63,64 80,47 82,49 
							"/>
		</g>
		<g>
			
				<rect x="70.964" y="22.358" transform="matrix(-0.7071 0.7071 -0.7071 -0.7071 152.9888 9.6299)" style="fill:#FFD7D4;" width="7.071" height="28.284"/>
		</g>
		<g>
			<polygon style="fill:#E54B44;" points="47,48 31,48 46.627,63.627 71.627,38.627 64,31 			"/>
		</g>
		<g>
			<polygon style="fill:#FFD7D4;" points="46.627,63.627 31,48 27,52 42.627,67.627 59,84 63,80 			"/>
		</g>
		<g>
			<polygon style="fill:#FFFFFF;" points="37.182,62.182 23,87 23.478,86.777 42.627,67.627 			"/>
		</g>
		<g>
			<polygon style="fill:#FFEFED;" points="31,48 27,52 42.627,67.627 44.874,65.381 46.627,63.627 			"/>
		</g>
		<g>
			<polygon style="fill:#FFEFED;" points="67,24 62,29 64,31 71.627,38.627 74.627,35.627 76.627,33.627 			"/>
		</g>
	</g>
</g>
<g id="Yellow" style="display:none;">
	<g style="display:inline;">
		<g>
			<polygon style="fill:#FFF5D9;" points="48.133,73.13 23.003,87 37.183,62.18 			"/>
		</g>
		<g>
			<polygon style="fill:#E07000;" points="87.003,44 67.003,24 62.003,29 64.003,31 47.003,48 31.003,48 27.003,52 42.63,67.627 
				59.003,84 63.003,80 63.003,64 80.003,47 82.003,49 			"/>
		</g>
		<g>
			
				<rect x="70.967" y="22.358" transform="matrix(-0.7071 0.7071 -0.7071 -0.7071 152.9935 9.6277)" style="fill:#FFE9A1;" width="7.071" height="28.284"/>
		</g>
		<g>
			<polygon style="fill:#FA9200;" points="47.003,48 31.003,48 46.63,63.627 71.63,38.627 64.003,31 			"/>
		</g>
		<g>
			<polygon style="fill:#FFE9A1;" points="46.63,63.627 31.003,48 27.003,52 42.63,67.627 59.003,84 63.003,80 			"/>
		</g>
		<g>
			<polygon style="fill:#FFFFFF;" points="37.184,62.181 23.003,87 23.48,86.777 42.63,67.627 			"/>
		</g>
		<g>
			<polygon style="fill:#FFF5D9;" points="31.003,48 27.003,52 42.63,67.627 44.876,65.381 46.63,63.627 			"/>
		</g>
		<g>
			<polygon style="fill:#FFF5D9;" points="67.003,24 62.003,29 64.003,31 71.63,38.627 74.63,35.627 76.63,33.627 			"/>
		</g>
	</g>
</g>
<g id="R-Yellow" style="display:none;">
	<g style="display:inline;">
		<circle style="fill:#FFD75E;" cx="55" cy="55" r="55"/>
	</g>
	<g style="display:inline;">
		<g>
			<polygon style="fill:#FFF5D9;" points="48.13,73.13 23,87 37.18,62.18 			"/>
		</g>
		<g>
			<polygon style="fill:#E07000;" points="87,44 67,24 62,29 64,31 47,48 31,48 27,52 42.627,67.627 59,84 63,80 63,64 80,47 82,49 
							"/>
		</g>
		<g>
			
				<rect x="70.964" y="22.358" transform="matrix(-0.7071 0.7071 -0.7071 -0.7071 152.9888 9.6299)" style="fill:#FFE9A1;" width="7.071" height="28.284"/>
		</g>
		<g>
			<polygon style="fill:#FA9200;" points="47,48 31,48 46.627,63.627 71.627,38.627 64,31 			"/>
		</g>
		<g>
			<polygon style="fill:#FFE9A1;" points="46.627,63.627 31,48 27,52 42.627,67.627 59,84 63,80 			"/>
		</g>
		<g>
			<polygon style="fill:#FFFFFF;" points="37.182,62.182 23,87 23.477,86.777 42.627,67.627 			"/>
		</g>
		<g>
			<polygon style="fill:#FFF5D9;" points="31,48 27,52 42.627,67.627 44.874,65.381 46.627,63.627 			"/>
		</g>
		<g>
			<polygon style="fill:#FFF5D9;" points="67,24 62,29 64,31 71.627,38.627 74.627,35.627 76.627,33.627 			"/>
		</g>
	</g>
</g>
</svg>
