<?xml version="1.0" encoding="iso-8859-1"?>
<!-- Generator: Adobe Illustrator 17.1.0, SVG Export Plug-In . SVG Version: 6.00 Build 0)  -->
<!DOCTYPE svg PUBLIC "-//W3C//DTD SVG 1.0//EN" "http://www.w3.org/TR/2001/REC-SVG-20010904/DTD/svg10.dtd">
<svg version="1.0" xmlns="http://www.w3.org/2000/svg" xmlns:xlink="http://www.w3.org/1999/xlink" x="0px" y="0px" width="110px"
	 height="110px" viewBox="0 0 110 110" style="enable-background:new 0 0 110 110;" xml:space="preserve">
<g id="Artboard">
</g>
<g id="Multicolor">
	<circle style="fill:#FABC3D;" cx="55" cy="55" r="55"/>
	<g>
		<g>
			<path style="fill:#84462D;" d="M61,85c0,1.105-0.895,2-2,2h-8c-1.105,0-2-0.895-2-2v-6h12V85z"/>
		</g>
		<g>
			<path style="fill:#0C7367;" d="M23.586,75.586c-0.572,0.572-0.743,1.432-0.434,2.18C23.462,78.513,24.191,79,25,79h59.578
				c0.837,0,1.585-0.521,1.876-1.306c0.291-0.785,0.062-1.667-0.573-2.212C78.511,71.348,72.435,66.7,69,61h9.578
				c0.837,0,1.585-0.521,1.876-1.306c0.291-0.785,0.062-1.667-0.573-2.212C72.778,53.956,67.045,49.223,63,43h10
				c0.868,0,1.637-0.56,1.903-1.386c0.266-0.826,0.054-1.875-0.735-2.237C69,37,61.089,30.1,57.95,24.713
				C57.333,23.655,56.196,23,54.971,23c-1.193,0-2.294,0.634-2.893,1.666C48.911,30.114,41,37,35.697,39.483
				c-0.757,0.355-0.862,1.427-0.571,2.212C35.416,42.479,36.164,43,37,43h10c-4.069,6.412-10.052,11.114-17.414,14.586
				c-0.572,0.572-0.743,1.432-0.434,2.18C29.462,60.513,30.191,61,31,61h10C37.553,66.867,31.2,71.495,23.586,75.586z"/>
		</g>
		<g>
			<path style="fill:#099686;" d="M55,23.002c-0.01,0-0.02-0.002-0.029-0.002c-1.193,0-2.293,0.634-2.893,1.666
				C48.912,30.114,41,37,35.697,39.483c-0.757,0.354-0.862,1.427-0.571,2.211S36.164,43,37,43h10
				c-4.069,6.412-10.052,11.114-17.414,14.586c-0.572,0.572-0.743,1.432-0.434,2.18C29.462,60.513,30.191,61,31,61h10
				c-3.447,5.867-9.8,10.495-17.414,14.586c-0.572,0.572-0.743,1.432-0.434,2.18C23.462,78.513,24.191,79,25,79h30V23.002z"/>
		</g>
		<g>
			<path style="fill:#9C6144;" d="M55,79h-6v6c0,1.104,0.896,2,2,2h4V79z"/>
		</g>
	</g>
</g>
</svg>
