<?xml version="1.0" encoding="iso-8859-1"?>
<!-- Generator: Adobe Illustrator 17.1.0, SVG Export Plug-In . SVG Version: 6.00 Build 0)  -->
<!DOCTYPE svg PUBLIC "-//W3C//DTD SVG 1.0//EN" "http://www.w3.org/TR/2001/REC-SVG-20010904/DTD/svg10.dtd">
<svg version="1.0" xmlns="http://www.w3.org/2000/svg" xmlns:xlink="http://www.w3.org/1999/xlink" x="0px" y="0px" width="110px"
	 height="110px" viewBox="0 0 110 110" style="enable-background:new 0 0 110 110;" xml:space="preserve">
<g id="Artboard">
</g>
<g id="Multicolor">
	<circle style="fill:#32BEA6;" cx="55" cy="55" r="55"/>
	<g>
		<g>
			<path style="fill:#9C6144;" d="M85.08,23.39c-3.92,0.71-7.18,2.38-9.95,4.67C63.781,37.374,60.8,57.39,56,63
				c-0.307-0.922-0.186-4.097-1.913-5.835C53.398,56.472,52.425,56,51,56H27.58C25.05,56,23,58.05,23,60.58v5.94
				c0,12.661,6.603,20.47,19.27,20.47c31.398,0,23.2-37.534,37.66-55.4c1.66-2.08,3.66-3.95,6.1-5.51
				C87.5,25.14,86.8,23.08,85.08,23.39z"/>
		</g>
		<g>
			<path style="fill:#AF7653;" d="M39.829,56H27.58C25.05,56,23,58.05,23,60.58v5.94c0,11.316,5.343,19.382,16.829,20.361V56z"/>
		</g>
		<g>
			<path style="fill:#692E19;" d="M85.08,23.39c-3.92,0.71-7.18,2.38-9.95,4.67c-0.69,0.566-1.349,1.176-1.98,1.818l4.691,4.69
				c0.632-1.031,1.32-2.028,2.089-2.979c1.66-2.08,3.66-3.95,6.1-5.51C87.5,25.14,86.8,23.08,85.08,23.39z"/>
		</g>
		<g>
			<path style="fill:#FFFFFF;" d="M55.538,23c-1.582,0-2.901,1.067-3.314,2.517c-3.084-0.91-5.916,1.432-5.916,4.406
				c0,2.549,2.066,4.616,4.615,4.616s4.615-2.066,4.615-4.616c1.912,0,3.462-1.55,3.462-3.461S57.45,23,55.538,23z"/>
		</g>
		<g>
			<path style="fill:#FFFFFF;" d="M48,42.808c0-2.672-2.026-4.847-4.621-5.135c0-0.02,0.006-0.038,0.006-0.058
				c0-2.549-2.066-4.615-4.615-4.615c-2.175,0-3.986,1.509-4.475,3.534c-3.303-0.457-5.91,2.111-5.91,5.12
				c0,2.084,1.235,3.868,3.007,4.695c0.574,2.915,3.142,5.113,6.224,5.113c2.484,0,4.629-1.431,5.671-3.51
				C45.926,47.707,48,45.511,48,42.808z"/>
		</g>
		<g>
			<path style="fill:#692E19;" d="M53.766,57c-0.12,1.098-4.706,2-13.266,2S25,58.105,25,57s6.94-2.087,15.5-2
				C49.12,55.087,53.871,56.048,53.766,57z"/>
		</g>
	</g>
</g>
</svg>
