<?xml version="1.0" encoding="iso-8859-1"?>
<!-- Generator: Adobe Illustrator 17.1.0, SVG Export Plug-In . SVG Version: 6.00 Build 0)  -->
<!DOCTYPE svg PUBLIC "-//W3C//DTD SVG 1.0//EN" "http://www.w3.org/TR/2001/REC-SVG-20010904/DTD/svg10.dtd">
<svg version="1.0" xmlns="http://www.w3.org/2000/svg" xmlns:xlink="http://www.w3.org/1999/xlink" x="0px" y="0px" width="110px"
	 height="110px" viewBox="0 0 110 110" style="enable-background:new 0 0 110 110;" xml:space="preserve">
<g id="Artboard">
</g>
<g id="Multicolor">
	<circle style="fill:#32BEA6;" cx="55" cy="55" r="55"/>
	<g>
		<g>
			<path style="fill:#3E3E3F;" d="M31,75c0,0,9-8,20-8c10.855,0,16.841,8.549,35.258,2c0.162-0.057,0.282-0.194,0.32-0.361
				c0.038-0.167-0.013-0.342-0.134-0.464L83,65.731l3.646-4.646c0.195-0.195,0.195-0.512,0-0.707L83,57.731l3.646-4.646
				c0.195-0.195,0.195-0.512,0-0.707L83,49.731l3.646-4.646c0.195-0.195,0.195-0.512,0-0.707L83,41.731l3.592-4.592
				c0.102-0.102,0.155-0.244,0.145-0.389c-0.01-0.145-0.083-0.278-0.199-0.365L83,34.731l2.488-4.11
				c0.146-0.183,0.146-0.443-0.001-0.625c-0.147-0.183-0.4-0.239-0.611-0.136C70.134,37.101,61.506,27,51,27c-10,0-20,8-20,8V75z"/>
		</g>
		<g>
			<path style="fill:#5B5C5F;" d="M71.009,32.219C63.706,31.149,57.738,27,51,27c-10,0-20,8-20,8v37.228L71.009,32.219z"/>
		</g>
		<g>
			<path style="fill:#692E19;" d="M31,31c0-2.209-1.791-4-4-4s-4,1.791-4,4v56h8V31z"/>
		</g>
		<path style="fill:#FFFFFF;" d="M72.131,44.841c0.272-0.439,0.387-0.975,0.313-1.487c-0.217-1.5-1.388-2.335-2.59-2.334
			c0.467-1.109,0.147-2.513-1.156-3.292c-0.444-0.265-0.982-0.365-1.493-0.283c-1.907,0.306-2.713,2.157-2.06,3.62l-2.432,1.618
			c-1.517-1.361-3.515-2.195-5.713-2.195s-4.196,0.834-5.713,2.195l-2.432-1.618c0.653-1.464-0.153-3.314-2.06-3.62
			c-0.51-0.082-1.049,0.018-1.493,0.283c-1.303,0.779-1.623,2.183-1.156,3.292c-1.203-0.001-2.373,0.835-2.59,2.336
			c-0.074,0.512,0.042,1.047,0.314,1.487c1.019,1.643,3.039,1.673,4.137,0.504l2.653,1.765c-0.146,0.626-0.23,1.275-0.23,1.946
			c0,0.985,0.175,1.927,0.482,2.806l-2.391,1.59c-0.968-1.03-2.652-1.129-3.735-0.013c-0.66,0.679-0.888,1.684-0.577,2.579
			c0.397,1.138,1.412,1.762,2.451,1.761c-0.467,1.109-0.147,2.513,1.155,3.292c0.443,0.265,0.982,0.365,1.492,0.284
			c1.908-0.305,2.715-2.157,2.062-3.62l2.489-1.656v1.548c0,0.947,0.767,1.714,1.714,1.714h6.856c0.947,0,1.714-0.767,1.714-1.714
			v-1.548l2.489,1.656c-0.654,1.464,0.153,3.315,2.062,3.62c0.51,0.082,1.049-0.019,1.492-0.284
			c1.302-0.779,1.621-2.183,1.155-3.292c1.202,0.002,2.372-0.834,2.59-2.334c0.074-0.512-0.041-1.048-0.314-1.488
			c-1.019-1.643-3.039-1.673-4.137-0.504l-2.391-1.59c0.307-0.879,0.482-1.821,0.482-2.806c0-0.67-0.085-1.32-0.23-1.946
			l2.654-1.765C69.091,46.515,71.112,46.486,72.131,44.841z"/>
		<g>
			<circle style="fill:#3E3E3F;" cx="60.428" cy="47.343" r="1.714"/>
		</g>
		<g>
			<path style="fill:#84462D;" d="M27,27c-2.209,0-4,1.791-4,4v56h4V27z"/>
		</g>
		<g>
			<circle style="fill:#3E3E3F;" cx="53.572" cy="47.343" r="1.714"/>
		</g>
	</g>
</g>
</svg>
