<?xml version="1.0" encoding="iso-8859-1"?>
<!-- Generator: Adobe Illustrator 17.1.0, SVG Export Plug-In . SVG Version: 6.00 Build 0)  -->
<!DOCTYPE svg PUBLIC "-//W3C//DTD SVG 1.0//EN" "http://www.w3.org/TR/2001/REC-SVG-20010904/DTD/svg10.dtd">
<svg version="1.0" xmlns="http://www.w3.org/2000/svg" xmlns:xlink="http://www.w3.org/1999/xlink" x="0px" y="0px" width="110px"
	 height="110px" viewBox="0 0 110 110" style="enable-background:new 0 0 110 110;" xml:space="preserve">
<g id="Artboard" style="display:none;">
	
		<rect x="-584.5" y="-418.5" style="display:inline;fill:#808080;stroke:#000000;stroke-miterlimit:10;" width="1392" height="1369"/>
</g>
<g id="R-Multicolor">
	<circle style="fill:#32BEA6;" cx="55" cy="55" r="55"/>
	<g>
		<g>
			<path style="fill:#9C6144;" d="M55.204,55c-0.392,0-0.748-0.229-0.911-0.587c-0.162-0.357-0.1-0.776,0.158-1.072L67.49,38.44
				l3.95-4.51C66.51,29.62,60.06,27,53,27c-15.46,0-28,12.54-28,28s12.54,28,28,28s28-12.54,28-28H55.204z"/>
		</g>
		<g>
			<path style="fill:#AF7653;" d="M25,55c0,5.248,1.448,10.157,3.962,14.356l38.394-38.394C63.156,28.449,58.247,27,53,27
				C37.54,27,25,39.54,25,55z"/>
		</g>
		<g>
			<path style="fill:#FBEC9A;" d="M75,55c0,12.15-9.85,22-22,22c-12.15,0-22-9.85-22-22s9.85-22,22-22c5.55,0,10.62,2.05,14.49,5.44
				l-0.89,1.02l-3.9,4.46l-8.248,9.421c-0.258,0.295-0.32,0.714-0.158,1.072C54.456,54.77,54.812,55,55.204,55H75z"/>
		</g>
		<g>
			<path style="fill:#FCF6C2;" d="M31,55c0,3.579,0.86,6.955,2.376,9.941L62.94,35.377C59.953,33.863,56.579,33,53,33
				C40.85,33,31,42.85,31,55z"/>
		</g>
		<g>
			<path style="fill:#FCF6C2;" d="M79.643,52H62.204c-0.392,0-0.748-0.229-0.911-0.587c-0.162-0.357-0.1-0.776,0.158-1.072
				l11.486-13.127C77.045,40.821,79.643,46.107,79.643,52z"/>
		</g>
		<g>
			<path style="fill:#9C6144;" d="M85,52h-5.357c0-5.893-2.598-11.179-6.705-14.786l3.527-4.027C81.696,37.777,85,44.5,85,52z"/>
		</g>
		<g>
			<circle style="fill:#3E3E3F;" cx="59" cy="37" r="2"/>
		</g>
		<g>
			<circle style="fill:#DF2C2C;" cx="48" cy="44" r="4"/>
		</g>
		<g>
			<circle style="fill:#3E3E3F;" cx="39" cy="49" r="2"/>
		</g>
		<g>
			<circle style="fill:#3E3E3F;" cx="48" cy="55" r="2"/>
		</g>
		<g>
			<circle style="fill:#3E3E3F;" cx="51" cy="69" r="2"/>
		</g>
		<g>
			<circle style="fill:#3E3E3F;" cx="67" cy="61" r="2"/>
		</g>
		<g>
			<circle style="fill:#DF2C2C;" cx="61" cy="69" r="4"/>
		</g>
		<g>
			<circle style="fill:#DF2C2C;" cx="41" cy="63" r="4"/>
		</g>
		<g>
			<path style="fill:#DF2C2C;" d="M71,43.54c0,1.66-1.34,3-3,3c-0.93,0-1.76-0.42-2.3-1.08L69.6,41C70.44,41.53,71,42.47,71,43.54z"
				/>
		</g>
		<g>
			<path style="fill:#DF2C2C;" d="M66.6,39.46l-3.9,4.46C62.26,43.4,62,42.73,62,42c0-1.66,1.34-3,3-3
				C65.59,39,66.14,39.17,66.6,39.46z"/>
		</g>
		<g>
			<circle style="fill:#3E3E3F;" cx="77" cy="48" r="2"/>
		</g>
		<g>
			<path style="fill:#3E3E3F;" d="M61,37c0-1.104-0.896-2-2-2s-2,0.896-2,2s0.896,2,2,2c0.121,0,0.238-0.015,0.353-0.036
				l1.612-1.612C60.985,37.238,61,37.121,61,37z"/>
		</g>
	</g>
</g>
<g id="Multicolor" style="display:none;">
	<g style="display:inline;">
		<g>
			<path style="fill:#9C6144;" d="M55.204,55c-0.392,0-0.748-0.229-0.911-0.587c-0.162-0.357-0.1-0.776,0.158-1.072L67.49,38.44
				l3.95-4.51C66.51,29.62,60.06,27,53,27c-15.46,0-28,12.54-28,28s12.54,28,28,28s28-12.54,28-28H55.204z"/>
		</g>
		<g>
			<path style="fill:#AF7653;" d="M25,55c0,5.248,1.448,10.157,3.962,14.356l38.394-38.394C63.156,28.449,58.247,27,53,27
				C37.54,27,25,39.54,25,55z"/>
		</g>
		<g>
			<path style="fill:#FBEC9A;" d="M75,55c0,12.15-9.85,22-22,22c-12.15,0-22-9.85-22-22s9.85-22,22-22c5.55,0,10.62,2.05,14.49,5.44
				l-0.89,1.02l-3.9,4.46l-8.248,9.421c-0.258,0.295-0.32,0.714-0.158,1.072C54.456,54.77,54.812,55,55.204,55H75z"/>
		</g>
		<g>
			<path style="fill:#FCF6C2;" d="M31,55c0,3.579,0.86,6.955,2.376,9.941L62.94,35.377C59.953,33.863,56.579,33,53,33
				C40.85,33,31,42.85,31,55z"/>
		</g>
		<g>
			<path style="fill:#FCF6C2;" d="M79.643,52H62.204c-0.392,0-0.748-0.229-0.911-0.587c-0.162-0.357-0.1-0.776,0.158-1.072
				l11.486-13.127C77.045,40.821,79.643,46.107,79.643,52z"/>
		</g>
		<g>
			<path style="fill:#9C6144;" d="M85,52h-5.357c0-5.893-2.598-11.179-6.705-14.786l3.527-4.027C81.696,37.777,85,44.5,85,52z"/>
		</g>
		<g>
			<circle style="fill:#3E3E3F;" cx="59" cy="37" r="2"/>
		</g>
		<g>
			<circle style="fill:#DF2C2C;" cx="48" cy="44" r="4"/>
		</g>
		<g>
			<circle style="fill:#3E3E3F;" cx="39" cy="49" r="2"/>
		</g>
		<g>
			<circle style="fill:#3E3E3F;" cx="48" cy="55" r="2"/>
		</g>
		<g>
			<circle style="fill:#3E3E3F;" cx="51" cy="69" r="2"/>
		</g>
		<g>
			<circle style="fill:#3E3E3F;" cx="67" cy="61" r="2"/>
		</g>
		<g>
			<circle style="fill:#DF2C2C;" cx="61" cy="69" r="4"/>
		</g>
		<g>
			<circle style="fill:#DF2C2C;" cx="41" cy="63" r="4"/>
		</g>
		<g>
			<path style="fill:#DF2C2C;" d="M71,43.54c0,1.66-1.34,3-3,3c-0.93,0-1.76-0.42-2.3-1.08L69.6,41C70.44,41.53,71,42.47,71,43.54z"
				/>
		</g>
		<g>
			<path style="fill:#DF2C2C;" d="M66.6,39.46l-3.9,4.46C62.26,43.4,62,42.73,62,42c0-1.66,1.34-3,3-3
				C65.59,39,66.14,39.17,66.6,39.46z"/>
		</g>
		<g>
			<circle style="fill:#3E3E3F;" cx="77" cy="48" r="2"/>
		</g>
		<g>
			<path style="fill:#3E3E3F;" d="M61,37c0-1.104-0.896-2-2-2s-2,0.896-2,2s0.896,2,2,2c0.121,0,0.238-0.015,0.353-0.036
				l1.612-1.612C60.985,37.238,61,37.121,61,37z"/>
		</g>
	</g>
</g>
<g id="Blue" style="display:none;">
	<g style="display:inline;">
		<g>
			<path style="fill:#BBE7F2;" d="M55.204,55c-0.393,0-0.749-0.229-0.911-0.586c-0.162-0.357-0.1-0.777,0.158-1.072L67.49,38.44
				l3.949-4.51C66.51,29.62,60.061,27,53,27c-15.46,0-28,12.54-28,28s12.54,28,28,28s28-12.54,28-28H55.204z"/>
		</g>
		<g>
			<path style="fill:#E1F5FA;" d="M25,55c0,5.248,1.448,10.157,3.962,14.356l38.394-38.394C63.156,28.45,58.247,27,53,27
				C37.54,27,25,39.54,25,55z"/>
		</g>
		<g>
			<path style="fill:#E1F5FA;" d="M75,55c0,12.15-9.85,22-22,22s-22-9.85-22-22s9.85-22,22-22c5.55,0,10.62,2.05,14.49,5.44
				L66.6,39.46L62.7,43.92l-8.248,9.421c-0.259,0.295-0.32,0.714-0.158,1.072C54.456,54.771,54.812,55,55.205,55H75z"/>
		</g>
		<g>
			<path style="fill:#FFFFFF;" d="M31,55c0,3.579,0.859,6.955,2.376,9.941l29.563-29.564C59.953,33.863,56.579,33,53,33
				C40.85,33,31,42.85,31,55z"/>
		</g>
		<g>
			<path style="fill:#E1F5FA;" d="M79.643,52H62.204c-0.393,0-0.749-0.229-0.911-0.586c-0.162-0.357-0.1-0.777,0.158-1.072
				l11.486-13.127C77.045,40.822,79.643,46.107,79.643,52z"/>
		</g>
		<g>
			<path style="fill:#BBE7F2;" d="M85,52h-5.357c0-5.893-2.598-11.178-6.705-14.786l3.526-4.027C81.696,37.777,85,44.5,85,52z"/>
		</g>
		<g>
			<circle style="fill:#0C333D;" cx="59" cy="37" r="2"/>
		</g>
		<g>
			<circle style="fill:#009FC7;" cx="48" cy="44" r="4"/>
		</g>
		<g>
			<circle style="fill:#0F6175;" cx="39" cy="49" r="2"/>
		</g>
		<g>
			<circle style="fill:#33899E;" cx="48" cy="55" r="2"/>
		</g>
		<g>
			<circle style="fill:#0F6175;" cx="51" cy="69" r="2"/>
		</g>
		<g>
			<circle style="fill:#33899E;" cx="67" cy="61" r="2"/>
		</g>
		<g>
			<circle style="fill:#009FC7;" cx="61" cy="69" r="4"/>
		</g>
		<g>
			<circle style="fill:#009FC7;" cx="41" cy="63" r="4"/>
		</g>
		<g>
			<path style="fill:#009FC7;" d="M71,43.54c0,1.66-1.34,3-3,3c-0.93,0-1.76-0.42-2.3-1.08L69.6,41C70.439,41.53,71,42.47,71,43.54z
				"/>
		</g>
		<g>
			<path style="fill:#33899E;" d="M66.6,39.46L62.7,43.92C62.26,43.4,62,42.73,62,42c0-1.66,1.34-3,3-3
				C65.59,39,66.141,39.17,66.6,39.46z"/>
		</g>
		<g>
			<circle style="fill:#0F6175;" cx="77" cy="48" r="2"/>
		</g>
		<g>
			<path style="fill:#0F6175;" d="M61,37c0-1.104-0.896-2-2-2s-2,0.896-2,2s0.896,2,2,2c0.121,0,0.238-0.015,0.353-0.036
				l1.612-1.611C60.984,37.238,61,37.121,61,37z"/>
		</g>
	</g>
</g>
<g id="R-Blue" style="display:none;">
	<circle style="display:inline;fill:#81D2EB;" cx="55" cy="55" r="55"/>
	<g style="display:inline;">
		<g>
			<path style="fill:#BBE7F2;" d="M55.204,55c-0.393,0-0.749-0.229-0.911-0.586c-0.162-0.357-0.1-0.777,0.158-1.072L67.49,38.44
				l3.949-4.51C66.51,29.62,60.061,27,53,27c-15.46,0-28,12.54-28,28s12.54,28,28,28s28-12.54,28-28H55.204z"/>
		</g>
		<g>
			<path style="fill:#E1F5FA;" d="M25,55c0,5.248,1.448,10.157,3.962,14.356l38.394-38.394C63.156,28.45,58.247,27,53,27
				C37.54,27,25,39.54,25,55z"/>
		</g>
		<g>
			<path style="fill:#E1F5FA;" d="M75,55c0,12.15-9.85,22-22,22s-22-9.85-22-22s9.85-22,22-22c5.55,0,10.62,2.05,14.49,5.44
				L66.6,39.46L62.7,43.92l-8.248,9.421c-0.259,0.295-0.32,0.714-0.158,1.072C54.456,54.77,54.812,55,55.205,55H75z"/>
		</g>
		<g>
			<path style="fill:#FFFFFF;" d="M31,55c0,3.579,0.859,6.955,2.376,9.941l29.563-29.564C59.953,33.863,56.579,33,53,33
				C40.85,33,31,42.85,31,55z"/>
		</g>
		<g>
			<path style="fill:#E1F5FA;" d="M79.643,52H62.204c-0.393,0-0.749-0.229-0.911-0.586c-0.162-0.357-0.1-0.777,0.158-1.072
				l11.486-13.127C77.045,40.822,79.643,46.107,79.643,52z"/>
		</g>
		<g>
			<path style="fill:#BBE7F2;" d="M85,52h-5.357c0-5.893-2.598-11.178-6.705-14.786l3.526-4.027C81.696,37.777,85,44.5,85,52z"/>
		</g>
		<g>
			<circle style="fill:#0C333D;" cx="59" cy="37" r="2"/>
		</g>
		<g>
			<circle style="fill:#009FC7;" cx="48" cy="44" r="4"/>
		</g>
		<g>
			<circle style="fill:#0F6175;" cx="39" cy="49" r="2"/>
		</g>
		<g>
			<circle style="fill:#33899E;" cx="48" cy="55" r="2"/>
		</g>
		<g>
			<circle style="fill:#0F6175;" cx="51" cy="69" r="2"/>
		</g>
		<g>
			<circle style="fill:#33899E;" cx="67" cy="61" r="2"/>
		</g>
		<g>
			<circle style="fill:#009FC7;" cx="61" cy="69" r="4"/>
		</g>
		<g>
			<circle style="fill:#009FC7;" cx="41" cy="63" r="4"/>
		</g>
		<g>
			<path style="fill:#009FC7;" d="M71,43.54c0,1.66-1.34,3-3,3c-0.93,0-1.76-0.42-2.3-1.08L69.6,41C70.439,41.53,71,42.47,71,43.54z
				"/>
		</g>
		<g>
			<path style="fill:#33899E;" d="M66.6,39.46L62.7,43.92C62.26,43.4,62,42.73,62,42c0-1.66,1.34-3,3-3
				C65.59,39,66.141,39.17,66.6,39.46z"/>
		</g>
		<g>
			<circle style="fill:#0F6175;" cx="77" cy="48" r="2"/>
		</g>
		<g>
			<path style="fill:#0F6175;" d="M61,37c0-1.104-0.896-2-2-2s-2,0.896-2,2s0.896,2,2,2c0.121,0,0.238-0.015,0.353-0.036
				l1.612-1.611C60.984,37.238,61,37.121,61,37z"/>
		</g>
	</g>
</g>
<g id="Green" style="display:none;">
	<g style="display:inline;">
		<g>
			<path style="fill:#AAF0E9;" d="M55.204,55c-0.393,0-0.749-0.229-0.911-0.586c-0.162-0.357-0.1-0.777,0.158-1.072L67.49,38.44
				l3.949-4.51C66.51,29.62,60.06,27,53,27c-15.46,0-28,12.54-28,28s12.54,28,28,28s28-12.54,28-28H55.204z"/>
		</g>
		<g>
			<path style="fill:#D7FCF9;" d="M25,55c0,5.248,1.448,10.157,3.962,14.356l38.394-38.394C63.156,28.45,58.247,27,53,27
				C37.54,27,25,39.54,25,55z"/>
		</g>
		<g>
			<path style="fill:#D7FCF9;" d="M75,55c0,12.15-9.85,22-22,22s-22-9.85-22-22s9.85-22,22-22c5.55,0,10.62,2.05,14.49,5.44
				L66.6,39.46L62.7,43.92l-8.248,9.421c-0.259,0.295-0.32,0.714-0.158,1.072C54.456,54.771,54.812,55,55.205,55H75z"/>
		</g>
		<g>
			<path style="fill:#FFFFFF;" d="M31,55c0,3.579,0.859,6.955,2.376,9.941l29.563-29.564C59.953,33.863,56.579,33,53,33
				C40.85,33,31,42.85,31,55z"/>
		</g>
		<g>
			<path style="fill:#D7FCF9;" d="M79.643,52H62.204c-0.393,0-0.749-0.229-0.911-0.586c-0.162-0.357-0.1-0.777,0.158-1.072
				l11.486-13.127C77.045,40.822,79.643,46.107,79.643,52z"/>
		</g>
		<g>
			<path style="fill:#AAF0E9;" d="M85,52h-5.357c0-5.893-2.598-11.178-6.705-14.786l3.526-4.027C81.696,37.777,85,44.5,85,52z"/>
		</g>
		<g>
			<circle style="fill:#0A3631;" cx="59" cy="37" r="2"/>
		</g>
		<g>
			<circle style="fill:#00B8A5;" cx="48" cy="44" r="4"/>
		</g>
		<g>
			<circle style="fill:#14635B;" cx="39" cy="49" r="2"/>
		</g>
		<g>
			<circle style="fill:#3E948B;" cx="48" cy="55" r="2"/>
		</g>
		<g>
			<circle style="fill:#14635B;" cx="51" cy="69" r="2"/>
		</g>
		<g>
			<circle style="fill:#3E948B;" cx="67" cy="61" r="2"/>
		</g>
		<g>
			<circle style="fill:#00B8A5;" cx="61" cy="69" r="4"/>
		</g>
		<g>
			<circle style="fill:#00B8A5;" cx="41" cy="63" r="4"/>
		</g>
		<g>
			<path style="fill:#00B8A5;" d="M71,43.54c0,1.66-1.34,3-3,3c-0.93,0-1.76-0.42-2.3-1.08L69.6,41C70.439,41.53,71,42.47,71,43.54z
				"/>
		</g>
		<g>
			<path style="fill:#3E948B;" d="M66.6,39.46L62.7,43.92C62.26,43.4,62,42.73,62,42c0-1.66,1.34-3,3-3
				C65.59,39,66.141,39.17,66.6,39.46z"/>
		</g>
		<g>
			<circle style="fill:#14635B;" cx="77" cy="48" r="2"/>
		</g>
		<g>
			<path style="fill:#14635B;" d="M61,37c0-1.104-0.896-2-2-2s-2,0.896-2,2s0.896,2,2,2c0.121,0,0.238-0.015,0.353-0.036
				l1.612-1.611C60.984,37.238,61,37.121,61,37z"/>
		</g>
	</g>
</g>
<g id="R-Green" style="display:none;">
	<circle style="display:inline;fill:#77E0C4;" cx="55" cy="55" r="55"/>
	<g style="display:inline;">
		<g>
			<path style="fill:#AAF0E9;" d="M55.204,55c-0.393,0-0.749-0.229-0.911-0.586c-0.162-0.357-0.1-0.777,0.158-1.072L67.49,38.44
				l3.949-4.51C66.51,29.62,60.061,27,53,27c-15.46,0-28,12.54-28,28s12.54,28,28,28s28-12.54,28-28H55.204z"/>
		</g>
		<g>
			<path style="fill:#D7FCF9;" d="M25,55c0,5.248,1.448,10.157,3.962,14.356l38.394-38.394C63.156,28.45,58.247,27,53,27
				C37.54,27,25,39.54,25,55z"/>
		</g>
		<g>
			<path style="fill:#D7FCF9;" d="M75,55c0,12.15-9.85,22-22,22s-22-9.85-22-22s9.85-22,22-22c5.55,0,10.62,2.05,14.49,5.44
				L66.6,39.46L62.7,43.92l-8.248,9.421c-0.259,0.295-0.32,0.714-0.158,1.072C54.456,54.771,54.812,55,55.205,55H75z"/>
		</g>
		<g>
			<path style="fill:#FFFFFF;" d="M31,55c0,3.579,0.859,6.955,2.376,9.941l29.563-29.564C59.953,33.863,56.579,33,53,33
				C40.85,33,31,42.85,31,55z"/>
		</g>
		<g>
			<path style="fill:#D7FCF9;" d="M79.643,52H62.204c-0.393,0-0.749-0.229-0.911-0.586c-0.162-0.357-0.1-0.777,0.158-1.072
				l11.486-13.127C77.045,40.822,79.643,46.107,79.643,52z"/>
		</g>
		<g>
			<path style="fill:#AAF0E9;" d="M85,52h-5.357c0-5.893-2.598-11.178-6.705-14.786l3.526-4.027C81.696,37.777,85,44.5,85,52z"/>
		</g>
		<g>
			<circle style="fill:#0A3631;" cx="59" cy="37" r="2"/>
		</g>
		<g>
			<circle style="fill:#00B8A5;" cx="48" cy="44" r="4"/>
		</g>
		<g>
			<circle style="fill:#14635B;" cx="39" cy="49" r="2"/>
		</g>
		<g>
			<circle style="fill:#3E948B;" cx="48" cy="55" r="2"/>
		</g>
		<g>
			<circle style="fill:#14635B;" cx="51" cy="69" r="2"/>
		</g>
		<g>
			<circle style="fill:#3E948B;" cx="67" cy="61" r="2"/>
		</g>
		<g>
			<circle style="fill:#00B8A5;" cx="61" cy="69" r="4"/>
		</g>
		<g>
			<circle style="fill:#00B8A5;" cx="41" cy="63" r="4"/>
		</g>
		<g>
			<path style="fill:#00B8A5;" d="M71,43.54c0,1.66-1.34,3-3,3c-0.93,0-1.76-0.42-2.3-1.08L69.6,41C70.439,41.53,71,42.47,71,43.54z
				"/>
		</g>
		<g>
			<path style="fill:#3E948B;" d="M66.6,39.46L62.7,43.92C62.26,43.4,62,42.73,62,42c0-1.66,1.34-3,3-3
				C65.59,39,66.141,39.17,66.6,39.46z"/>
		</g>
		<g>
			<circle style="fill:#14635B;" cx="77" cy="48" r="2"/>
		</g>
		<g>
			<path style="fill:#14635B;" d="M61,37c0-1.104-0.896-2-2-2s-2,0.896-2,2s0.896,2,2,2c0.121,0,0.238-0.015,0.353-0.036
				l1.612-1.611C60.984,37.238,61,37.121,61,37z"/>
		</g>
	</g>
</g>
<g id="Red" style="display:none;">
	<g style="display:inline;">
		<g>
			<path style="fill:#FFD7D4;" d="M55.204,55c-0.393,0-0.749-0.229-0.911-0.586c-0.162-0.357-0.1-0.777,0.158-1.072L67.49,38.44
				l3.949-4.51C66.51,29.62,60.06,27,53,27c-15.46,0-28,12.54-28,28s12.54,28,28,28s28-12.54,28-28H55.204z"/>
		</g>
		<g>
			<path style="fill:#FFEFED;" d="M25,55c0,5.248,1.448,10.157,3.962,14.356l38.394-38.394C63.156,28.45,58.247,27,53,27
				C37.54,27,25,39.54,25,55z"/>
		</g>
		<g>
			<path style="fill:#FFEFED;" d="M75,55c0,12.15-9.85,22-22,22c-12.15,0-22-9.85-22-22s9.85-22,22-22c5.55,0,10.62,2.05,14.49,5.44
				L66.6,39.46L62.7,43.92l-8.248,9.421c-0.259,0.295-0.32,0.714-0.158,1.072C54.456,54.771,54.812,55,55.205,55H75z"/>
		</g>
		<g>
			<path style="fill:#FFFFFF;" d="M31,55c0,3.579,0.859,6.955,2.376,9.941l29.563-29.564C59.953,33.863,56.579,33,53,33
				C40.85,33,31,42.85,31,55z"/>
		</g>
		<g>
			<path style="fill:#FFEFED;" d="M79.643,52H62.204c-0.393,0-0.749-0.229-0.911-0.586c-0.162-0.357-0.1-0.777,0.158-1.072
				l11.486-13.127C77.045,40.822,79.643,46.107,79.643,52z"/>
		</g>
		<g>
			<path style="fill:#FFD7D4;" d="M85,52h-5.357c0-5.893-2.598-11.178-6.705-14.786l3.526-4.027C81.696,37.777,85,44.5,85,52z"/>
		</g>
		<g>
			<circle style="fill:#4A1410;" cx="59" cy="37" r="2"/>
		</g>
		<g>
			<circle style="fill:#E54B44;" cx="48" cy="44" r="4"/>
		</g>
		<g>
			<circle style="fill:#7D261E;" cx="39" cy="49" r="2"/>
		</g>
		<g>
			<circle style="fill:#B84E44;" cx="48" cy="55" r="2"/>
		</g>
		<g>
			<circle style="fill:#7D261E;" cx="51" cy="69" r="2"/>
		</g>
		<g>
			<circle style="fill:#B84E44;" cx="67" cy="61" r="2"/>
		</g>
		<g>
			<circle style="fill:#E54B44;" cx="61" cy="69" r="4"/>
		</g>
		<g>
			<circle style="fill:#E54B44;" cx="41" cy="63" r="4"/>
		</g>
		<g>
			<path style="fill:#E54B44;" d="M71,43.54c0,1.66-1.34,3-3,3c-0.93,0-1.76-0.42-2.3-1.08L69.6,41C70.439,41.53,71,42.47,71,43.54z
				"/>
		</g>
		<g>
			<path style="fill:#B84E44;" d="M66.6,39.46L62.7,43.92C62.26,43.4,62,42.73,62,42c0-1.66,1.34-3,3-3
				C65.59,39,66.141,39.17,66.6,39.46z"/>
		</g>
		<g>
			<circle style="fill:#7D261E;" cx="77" cy="48" r="2"/>
		</g>
		<g>
			<path style="fill:#7D261E;" d="M61,37c0-1.104-0.896-2-2-2s-2,0.896-2,2s0.896,2,2,2c0.121,0,0.238-0.015,0.352-0.036
				l1.612-1.611C60.984,37.238,61,37.121,61,37z"/>
		</g>
	</g>
</g>
<g id="R-Red" style="display:none;">
	<circle style="display:inline;fill:#FABBAF;" cx="55" cy="55" r="55"/>
	<g style="display:inline;">
		<g>
			<path style="fill:#FFD7D4;" d="M55.204,55c-0.393,0-0.749-0.229-0.911-0.586c-0.162-0.357-0.1-0.777,0.158-1.072L67.49,38.44
				l3.949-4.51C66.51,29.62,60.06,27,53,27c-15.46,0-28,12.54-28,28s12.54,28,28,28s28-12.54,28-28H55.204z"/>
		</g>
		<g>
			<path style="fill:#FFEFED;" d="M25,55c0,5.248,1.448,10.157,3.962,14.356l38.394-38.394C63.156,28.45,58.247,27,53,27
				C37.54,27,25,39.54,25,55z"/>
		</g>
		<g>
			<path style="fill:#FFEFED;" d="M75,55c0,12.15-9.85,22-22,22c-12.15,0-22-9.85-22-22s9.85-22,22-22c5.55,0,10.62,2.05,14.49,5.44
				L66.6,39.46L62.7,43.92l-8.248,9.421c-0.259,0.295-0.32,0.714-0.158,1.072C54.456,54.771,54.812,55,55.205,55H75z"/>
		</g>
		<g>
			<path style="fill:#FFFFFF;" d="M31,55c0,3.579,0.859,6.955,2.376,9.941l29.563-29.564C59.953,33.863,56.579,33,53,33
				C40.85,33,31,42.85,31,55z"/>
		</g>
		<g>
			<path style="fill:#FFEFED;" d="M79.643,52H62.204c-0.393,0-0.749-0.229-0.911-0.586c-0.162-0.357-0.1-0.777,0.158-1.072
				l11.486-13.127C77.045,40.822,79.643,46.107,79.643,52z"/>
		</g>
		<g>
			<path style="fill:#FFD7D4;" d="M85,52h-5.357c0-5.893-2.598-11.178-6.705-14.786l3.526-4.027C81.696,37.777,85,44.5,85,52z"/>
		</g>
		<g>
			<circle style="fill:#4A1410;" cx="59" cy="37" r="2"/>
		</g>
		<g>
			<circle style="fill:#E54B44;" cx="48" cy="44" r="4"/>
		</g>
		<g>
			<circle style="fill:#7D261E;" cx="39" cy="49" r="2"/>
		</g>
		<g>
			<circle style="fill:#B84E44;" cx="48" cy="55" r="2"/>
		</g>
		<g>
			<circle style="fill:#7D261E;" cx="51" cy="69" r="2"/>
		</g>
		<g>
			<circle style="fill:#B84E44;" cx="67" cy="61" r="2"/>
		</g>
		<g>
			<circle style="fill:#E54B44;" cx="61" cy="69" r="4"/>
		</g>
		<g>
			<circle style="fill:#E54B44;" cx="41" cy="63" r="4"/>
		</g>
		<g>
			<path style="fill:#E54B44;" d="M71,43.54c0,1.66-1.34,3-3,3c-0.93,0-1.76-0.42-2.3-1.08L69.6,41C70.439,41.53,71,42.47,71,43.54z
				"/>
		</g>
		<g>
			<path style="fill:#B84E44;" d="M66.6,39.46L62.7,43.92C62.26,43.4,62,42.73,62,42c0-1.66,1.34-3,3-3
				C65.59,39,66.141,39.17,66.6,39.46z"/>
		</g>
		<g>
			<circle style="fill:#7D261E;" cx="77" cy="48" r="2"/>
		</g>
		<g>
			<path style="fill:#7D261E;" d="M61,37c0-1.104-0.896-2-2-2s-2,0.896-2,2s0.896,2,2,2c0.121,0,0.238-0.015,0.353-0.036
				l1.612-1.611C60.984,37.238,61,37.121,61,37z"/>
		</g>
	</g>
</g>
<g id="Yellow" style="display:none;">
	<g style="display:inline;">
		<g>
			<path style="fill:#FFE9A1;" d="M55.204,55c-0.393,0-0.749-0.229-0.911-0.586c-0.162-0.357-0.1-0.777,0.158-1.072L67.49,38.44
				l3.949-4.51C66.51,29.62,60.061,27,53,27c-15.46,0-28,12.54-28,28s12.54,28,28,28s28-12.54,28-28H55.204z"/>
		</g>
		<g>
			<path style="fill:#FFF5D9;" d="M25,55c0,5.248,1.448,10.157,3.962,14.356l38.394-38.394C63.156,28.45,58.247,27,53,27
				C37.54,27,25,39.54,25,55z"/>
		</g>
		<g>
			<path style="fill:#FFF5D9;" d="M75,55c0,12.15-9.85,22-22,22s-22-9.85-22-22s9.85-22,22-22c5.55,0,10.62,2.05,14.49,5.44
				L66.6,39.46L62.7,43.92l-8.248,9.421c-0.259,0.295-0.32,0.714-0.158,1.072C54.456,54.771,54.812,55,55.205,55H75z"/>
		</g>
		<g>
			<path style="fill:#FFFFFF;" d="M31,55c0,3.579,0.859,6.955,2.376,9.941l29.563-29.564C59.953,33.863,56.579,33,53,33
				C40.85,33,31,42.85,31,55z"/>
		</g>
		<g>
			<path style="fill:#FFF5D9;" d="M79.643,52H62.204c-0.393,0-0.749-0.229-0.911-0.586c-0.162-0.357-0.1-0.777,0.158-1.072
				l11.486-13.127C77.045,40.822,79.643,46.107,79.643,52z"/>
		</g>
		<g>
			<path style="fill:#FFE9A1;" d="M85,52h-5.357c0-5.893-2.598-11.178-6.705-14.786l3.526-4.027C81.696,37.777,85,44.5,85,52z"/>
		</g>
		<g>
			<circle style="fill:#3D320C;" cx="59" cy="37" r="2"/>
		</g>
		<g>
			<circle style="fill:#FA9200;" cx="48" cy="44" r="4"/>
		</g>
		<g>
			<circle style="fill:#66510D;" cx="39" cy="49" r="2"/>
		</g>
		<g>
			<circle style="fill:#947615;" cx="48" cy="55" r="2"/>
		</g>
		<g>
			<circle style="fill:#66510D;" cx="51" cy="69" r="2"/>
		</g>
		<g>
			<circle style="fill:#947615;" cx="67" cy="61" r="2"/>
		</g>
		<g>
			<circle style="fill:#FA9200;" cx="61" cy="69" r="4"/>
		</g>
		<g>
			<circle style="fill:#FA9200;" cx="41" cy="63" r="4"/>
		</g>
		<g>
			<path style="fill:#FA9200;" d="M71,43.54c0,1.66-1.34,3-3,3c-0.93,0-1.76-0.42-2.3-1.08L69.6,41C70.439,41.53,71,42.47,71,43.54z
				"/>
		</g>
		<g>
			<path style="fill:#947615;" d="M66.6,39.46L62.7,43.92C62.26,43.4,62,42.73,62,42c0-1.66,1.34-3,3-3
				C65.59,39,66.141,39.17,66.6,39.46z"/>
		</g>
		<g>
			<circle style="fill:#66510D;" cx="77" cy="48" r="2"/>
		</g>
		<g>
			<path style="fill:#66510D;" d="M61,37c0-1.104-0.896-2-2-2s-2,0.896-2,2s0.896,2,2,2c0.121,0,0.238-0.015,0.353-0.036
				l1.612-1.611C60.984,37.238,61,37.121,61,37z"/>
		</g>
	</g>
</g>
<g id="R-Yellow" style="display:none;">
	<circle style="display:inline;fill:#FFD75E;" cx="55" cy="55" r="55"/>
	<g style="display:inline;">
		<g>
			<path style="fill:#FFE9A1;" d="M55.204,55c-0.393,0-0.749-0.229-0.911-0.586c-0.162-0.357-0.1-0.777,0.158-1.072L67.49,38.44
				l3.949-4.51C66.51,29.62,60.06,27,53,27c-15.46,0-28,12.54-28,28s12.54,28,28,28s28-12.54,28-28H55.204z"/>
		</g>
		<g>
			<path style="fill:#FFF5D9;" d="M25,55c0,5.248,1.448,10.157,3.962,14.356l38.394-38.394C63.156,28.45,58.247,27,53,27
				C37.54,27,25,39.54,25,55z"/>
		</g>
		<g>
			<path style="fill:#FFF5D9;" d="M75,55c0,12.15-9.85,22-22,22s-22-9.85-22-22s9.85-22,22-22c5.55,0,10.62,2.05,14.49,5.44
				L66.6,39.46L62.7,43.92l-8.248,9.421c-0.259,0.295-0.32,0.714-0.158,1.072C54.456,54.771,54.812,55,55.205,55H75z"/>
		</g>
		<g>
			<path style="fill:#FFFFFF;" d="M31,55c0,3.579,0.859,6.955,2.376,9.941l29.563-29.564C59.953,33.863,56.579,33,53,33
				C40.85,33,31,42.85,31,55z"/>
		</g>
		<g>
			<path style="fill:#FFF5D9;" d="M79.643,52H62.204c-0.393,0-0.749-0.229-0.911-0.586c-0.162-0.357-0.1-0.777,0.158-1.072
				l11.486-13.127C77.045,40.822,79.643,46.107,79.643,52z"/>
		</g>
		<g>
			<path style="fill:#FFE9A1;" d="M85,52h-5.357c0-5.893-2.598-11.178-6.705-14.786l3.526-4.027C81.696,37.777,85,44.5,85,52z"/>
		</g>
		<g>
			<circle style="fill:#3D320C;" cx="59" cy="37" r="2"/>
		</g>
		<g>
			<circle style="fill:#FA9200;" cx="48" cy="44" r="4"/>
		</g>
		<g>
			<circle style="fill:#66510D;" cx="39" cy="49" r="2"/>
		</g>
		<g>
			<circle style="fill:#947615;" cx="48" cy="55" r="2"/>
		</g>
		<g>
			<circle style="fill:#66510D;" cx="51" cy="69" r="2"/>
		</g>
		<g>
			<circle style="fill:#947615;" cx="67" cy="61" r="2"/>
		</g>
		<g>
			<circle style="fill:#FA9200;" cx="61" cy="69" r="4"/>
		</g>
		<g>
			<circle style="fill:#FA9200;" cx="41" cy="63" r="4"/>
		</g>
		<g>
			<path style="fill:#FA9200;" d="M71,43.54c0,1.66-1.34,3-3,3c-0.93,0-1.76-0.42-2.3-1.08L69.6,41C70.439,41.53,71,42.47,71,43.54z
				"/>
		</g>
		<g>
			<path style="fill:#947615;" d="M66.6,39.46L62.7,43.92C62.26,43.4,62,42.73,62,42c0-1.66,1.34-3,3-3
				C65.59,39,66.141,39.17,66.6,39.46z"/>
		</g>
		<g>
			<circle style="fill:#66510D;" cx="77" cy="48" r="2"/>
		</g>
		<g>
			<path style="fill:#66510D;" d="M61,37c0-1.104-0.896-2-2-2s-2,0.896-2,2s0.896,2,2,2c0.121,0,0.238-0.015,0.353-0.036
				l1.612-1.611C60.984,37.238,61,37.121,61,37z"/>
		</g>
	</g>
</g>
</svg>
