<?xml version="1.0" encoding="iso-8859-1"?>
<!-- Generator: Adobe Illustrator 17.1.0, SVG Export Plug-In . SVG Version: 6.00 Build 0)  -->
<!DOCTYPE svg PUBLIC "-//W3C//DTD SVG 1.0//EN" "http://www.w3.org/TR/2001/REC-SVG-20010904/DTD/svg10.dtd">
<svg version="1.0" xmlns="http://www.w3.org/2000/svg" xmlns:xlink="http://www.w3.org/1999/xlink" x="0px" y="0px" width="110px"
	 height="110px" viewBox="0 0 110 110" style="enable-background:new 0 0 110 110;" xml:space="preserve">
<g id="Artboard">
</g>
<g id="Multicolor">
	<circle style="fill:#25B7D3;" cx="55" cy="55" r="55"/>
	<g>
		<path style="fill:#CFD3D4;" d="M67.421,68.941c0.666,1.645,2.249,2.815,4.133,2.815c2.485,0,4.5-2.015,4.5-4.5
			c0-0.815-0.233-1.568-0.613-2.227L67.421,68.941z"/>
		<path style="fill:#CFD3D4;" d="M77.237,64.153c0.602,0.814,1.559,1.347,2.651,1.347c1.837,0,3.326-1.489,3.326-3.326
			c0-0.304-0.054-0.593-0.13-0.873L77.237,64.153z"/>
		<path style="fill:#CFD3D4;" d="M34.361,64.932c-0.414,0.68-0.665,1.469-0.665,2.324c0,2.485,2.015,4.5,4.5,4.5
			c1.923,0,3.536-1.218,4.175-2.916L34.361,64.932z"/>
		<path style="fill:#CFD3D4;" d="M26.699,61.195c-0.097,0.311-0.163,0.636-0.163,0.979c0,1.837,1.489,3.326,3.326,3.326
			c1.132,0,2.115-0.574,2.711-1.439L26.699,61.195z"/>
		<g>
			<path style="fill:#F0F1F1;" d="M24.699,60.219c-1.15-0.561-1.761-1.842-1.473-3.089S24.624,55,25.904,55h58.192
				c1.28,0,2.39,0.883,2.678,2.13c0.288,1.247-0.323,2.528-1.473,3.089L56.205,74.412c-0.761,0.371-1.65,0.371-2.41,0L24.699,60.219
				z"/>
		</g>
		<g>
			<g>
				<path style="fill:#E2E4E5;" d="M53.148,35.637c0.101-0.248,0.26-0.454,0.441-0.637H40.606c-0.881,0-1.659,0.577-1.914,1.42
					c-0.255,0.844,0.071,1.755,0.805,2.244l10.154,6.769C50.936,41.517,52.182,38.007,53.148,35.637z"/>
			</g>
			<g>
				<path style="fill:#E2E4E5;" d="M71.309,36.42C71.053,35.577,70.276,35,69.394,35H56.411c0.181,0.183,0.34,0.389,0.441,0.636
					c0.965,2.37,2.211,5.881,3.498,9.797l10.154-6.769C71.237,38.175,71.564,37.264,71.309,36.42z"/>
			</g>
		</g>
		<g>
			<path style="fill:#FFFFFF;" d="M57.584,37.51C57.418,31.106,56.326,26.156,55,26.156s-2.418,4.95-2.584,11.354
				C48.889,46.838,43,66.357,43,71c0,6.627,5.373,12,12,12s12-5.373,12-12C67,66.357,61.111,46.838,57.584,37.51z"/>
		</g>
		<g>
			<path style="fill:#40C9E7;" d="M55,72.2c-3,0-6-0.4-9-1.2c1.606,5.891,5.221,8.91,9,8.604c3.779,0.306,7.394-2.713,9-8.604
				C61,71.8,58,72.2,55,72.2z"/>
		</g>
		<g>
			<path style="fill:#9CE5F4;" d="M46,71c1.606,5.891,5.221,8.91,9,8.604V72.2C52,72.2,49,71.8,46,71z"/>
		</g>
	</g>
</g>
</svg>
