<?xml version="1.0" encoding="iso-8859-1"?>
<!-- Generator: Adobe Illustrator 17.1.0, SVG Export Plug-In . SVG Version: 6.00 Build 0)  -->
<!DOCTYPE svg PUBLIC "-//W3C//DTD SVG 1.0//EN" "http://www.w3.org/TR/2001/REC-SVG-20010904/DTD/svg10.dtd">
<svg version="1.0" xmlns="http://www.w3.org/2000/svg" xmlns:xlink="http://www.w3.org/1999/xlink" x="0px" y="0px" width="110px"
	 height="110px" viewBox="0 0 110 110" style="enable-background:new 0 0 110 110;" xml:space="preserve">
<g id="Artboard">
</g>
<g id="Multicolor">
	<circle style="fill:#E04F5F;" cx="55" cy="55" r="55"/>
	<g>
		<g>
			
				<rect x="25.18" y="39.82" transform="matrix(-0.7071 0.7071 -0.7071 -0.7071 132.962 54.565)" style="fill:#FACB1B;" width="60" height="30"/>
		</g>
		<g>
			
				<rect x="19.819" y="42.04" transform="matrix(0.7071 -0.7071 0.7071 0.7071 -20.381 49.7138)" style="fill:#FBE158;" width="60" height="14.837"/>
		</g>
		<g>
			
				<rect x="31.624" y="55.376" transform="matrix(-0.7071 0.7071 -0.7071 -0.7071 117.4056 92.1214)" style="fill:#21B2D1;" width="16" height="30"/>
		</g>
		<g>
			
				<rect x="26.263" y="57.597" transform="matrix(0.7071 -0.7071 0.7071 0.7071 -35.9373 43.2701)" style="fill:#40C9E7;" width="16" height="14.837"/>
		</g>
		<g>
			<path style="fill:#5B5C5F;" d="M69.91,31.366c-0.783-0.779-2.049-0.776-2.828,0.008l-3.264,3.282
				c-1.871-0.756-7.039-1.022-7.776,0.728c-0.176,0.418-0.049,0.902,0.31,1.179l3.94,1.638l-2.639,2.654l-4.505,1.16
				c-0.381,0.165-0.621,0.548-0.603,0.962c0.018,0.415,0.291,0.775,0.685,0.905l3.725,0.509l0.529,3.722
				c0.132,0.394,0.494,0.664,0.909,0.68c0.415,0.016,0.797-0.226,0.959-0.608l1.137-4.511l2.639-2.654l1.695,3.968
				c0.279,0.357,0.764,0.482,1.181,0.304c1.746-0.747,1.417-5.95,0.65-7.816l3.264-3.282C70.696,33.411,70.693,32.145,69.91,31.366z
				"/>
		</g>
		<g>
			<g>
				<path style="fill:#3E3E3F;" d="M54.343,68.787l-0.245-2.231l-2.105-0.22c-0.11-0.014-0.229-0.047-0.311-0.129
					c-0.165-0.163-0.164-0.412,0.003-0.58c0.123-0.125,0.244-0.149,0.411-0.126l1.964,0.263l-0.264-1.934
					c-0.028-0.182-0.005-0.321,0.124-0.451c0.129-0.129,0.373-0.164,0.537-0.001c0.085,0.086,0.12,0.186,0.134,0.316l0.236,2.108
					l2.219,0.238c0.111,0.014,0.224,0.043,0.312,0.129c0.164,0.163,0.164,0.411-0.003,0.579c-0.125,0.125-0.244,0.15-0.412,0.126
					l-2.075-0.268l0.274,2.04c0.024,0.187,0.006,0.321-0.123,0.451c-0.135,0.134-0.374,0.164-0.541-0.003
					C54.397,69.012,54.362,68.911,54.343,68.787z"/>
			</g>
			<g>
				<path style="fill:#3E3E3F;" d="M57.77,65.638c-0.1,0.005-0.229-0.028-0.32-0.119c-0.159-0.158-0.159-0.407-0.003-0.565
					c0.077-0.077,0.154-0.105,0.25-0.116c0.33,0.004,0.579-0.063,0.803-0.289c0.324-0.327,0.329-0.753-0.123-1.202l-1.931-1.92
					c-0.163-0.163-0.159-0.426,0.003-0.589c0.163-0.163,0.427-0.169,0.59-0.006l1.95,1.94c0.399,0.396,0.577,0.813,0.578,1.206
					c0.001,0.393-0.18,0.777-0.515,1.113C58.647,65.497,58.192,65.637,57.77,65.638z"/>
			</g>
			<g>
				<path style="fill:#3E3E3F;" d="M61.726,60.797l-1.495,1.503c-0.158,0.159-0.403,0.174-0.565,0.011
					c-0.116-0.115-0.169-0.254-0.183-0.441l-0.302-3.444c-0.02-0.23-0.005-0.378,0.167-0.551c0.158-0.159,0.412-0.165,0.57-0.007
					l1.888,1.878l0.258-0.259c0.139-0.139,0.353-0.135,0.488-0.001c0.135,0.134,0.135,0.345-0.003,0.484L62.29,60.23l0.5,0.497
					c0.158,0.158,0.154,0.402-0.004,0.56c-0.158,0.159-0.402,0.165-0.56,0.007L61.726,60.797z M61.241,60.314l-1.331-1.323
					l0.232,2.427L61.241,60.314z"/>
			</g>
			<g>
				<path style="fill:#3E3E3F;" d="M63.899,59.276l-1.121-3.715l-1.448,1.456c-0.143,0.144-0.373,0.145-0.517,0.001
					c-0.145-0.143-0.145-0.374-0.002-0.518l1.878-1.888c0.162-0.164,0.363-0.173,0.531-0.006c0.087,0.086,0.159,0.225,0.203,0.364
					l1.256,4.021c0.063,0.206,0.035,0.359-0.085,0.479c-0.158,0.159-0.397,0.208-0.566,0.04
					C63.981,59.463,63.922,59.357,63.899,59.276z"/>
			</g>
		</g>
		<g>
			<g>
				<path style="fill:#FFFFFF;" d="M31.059,67.423l2.231-0.245l0.22-2.105c0.014-0.11,0.047-0.229,0.129-0.311
					c0.163-0.165,0.412-0.164,0.58,0.003c0.125,0.123,0.149,0.244,0.126,0.411l-0.263,1.964l1.934-0.264
					c0.182-0.028,0.321-0.005,0.451,0.124c0.129,0.129,0.164,0.373,0.001,0.537c-0.086,0.085-0.186,0.12-0.316,0.134l-2.108,0.236
					l-0.238,2.219c-0.014,0.111-0.043,0.224-0.129,0.312c-0.163,0.164-0.411,0.164-0.579-0.003c-0.125-0.125-0.15-0.244-0.126-0.412
					l0.268-2.075l-2.04,0.274c-0.187,0.024-0.321,0.006-0.451-0.123c-0.134-0.135-0.164-0.374,0.003-0.541
					C30.834,67.477,30.935,67.442,31.059,67.423z"/>
			</g>
			<g>
				<path style="fill:#FFFFFF;" d="M34.208,70.85c-0.005-0.1,0.028-0.229,0.119-0.32c0.158-0.159,0.407-0.159,0.565-0.003
					c0.077,0.077,0.105,0.154,0.116,0.25c-0.004,0.33,0.063,0.579,0.289,0.803c0.327,0.324,0.753,0.329,1.202-0.123l1.92-1.931
					c0.163-0.163,0.426-0.159,0.589,0.003c0.163,0.163,0.169,0.427,0.006,0.59l-1.94,1.95c-0.396,0.399-0.813,0.577-1.206,0.578
					c-0.393,0.001-0.777-0.18-1.113-0.515C34.349,71.727,34.209,71.272,34.208,70.85z"/>
			</g>
			<g>
				<path style="fill:#FFFFFF;" d="M39.049,74.806l-1.503-1.495c-0.159-0.158-0.174-0.403-0.011-0.565
					c0.115-0.116,0.254-0.169,0.441-0.183l3.444-0.302c0.23-0.02,0.378-0.005,0.551,0.167c0.159,0.158,0.165,0.412,0.007,0.57
					l-1.878,1.888l0.259,0.258c0.139,0.139,0.135,0.353,0.001,0.488c-0.134,0.135-0.345,0.135-0.484-0.003l-0.259-0.258l-0.497,0.5
					c-0.158,0.158-0.402,0.154-0.56-0.004c-0.159-0.158-0.165-0.402-0.007-0.56L39.049,74.806z M39.532,74.322l1.323-1.331
					l-2.427,0.232L39.532,74.322z"/>
			</g>
			<g>
				<path style="fill:#FFFFFF;" d="M40.57,76.979l3.715-1.121l-1.456-1.448c-0.144-0.143-0.145-0.373-0.001-0.517
					c0.143-0.145,0.374-0.145,0.518-0.002l1.888,1.878c0.164,0.162,0.173,0.363,0.006,0.531c-0.086,0.087-0.225,0.159-0.364,0.203
					l-4.021,1.256c-0.206,0.063-0.359,0.035-0.479-0.085c-0.159-0.158-0.208-0.397-0.04-0.566
					C40.383,77.061,40.489,77.003,40.57,76.979z"/>
			</g>
		</g>
		<g>
			<g>
				
					<rect x="41.452" y="53.234" transform="matrix(0.7071 -0.7071 0.7071 0.7071 -27.3295 46.4889)" style="fill:#5B5C5F;" width="2" height="6"/>
			</g>
			<g>
				
					<rect x="47.109" y="47.577" transform="matrix(0.7071 -0.7071 0.7071 0.7071 -21.6726 48.832)" style="fill:#5B5C5F;" width="2" height="6"/>
			</g>
			<g>
				
					<rect x="51.498" y="43.688" transform="matrix(0.7071 -0.7071 0.7071 0.7071 -17.7836 50.4429)" style="fill:#5B5C5F;" width="1" height="6"/>
			</g>
			<g>
				
					<rect x="45.841" y="49.345" transform="matrix(0.7071 -0.7071 0.7071 0.7071 -23.4404 48.0998)" style="fill:#5B5C5F;" width="1" height="6"/>
			</g>
			<g>
				
					<rect x="43.574" y="51.113" transform="matrix(0.7071 -0.7071 0.7071 0.7071 -25.2082 47.3675)" style="fill:#5B5C5F;" width="2" height="6"/>
			</g>
			<g>
				
					<rect x="49.23" y="45.456" transform="matrix(0.7071 -0.7071 0.7071 0.7071 -19.5513 49.7107)" style="fill:#5B5C5F;" width="2" height="6"/>
			</g>
		</g>
		<g>
			
				<rect x="63.151" y="45.335" transform="matrix(0.7071 -0.7071 0.7071 0.7071 -11.631 64.5894)" style="fill:#FFFFFF;" width="18" height="2"/>
		</g>
		<g>
			
				<rect x="65.979" y="48.163" transform="matrix(0.7071 -0.7071 0.7071 0.7071 -12.8026 67.4178)" style="fill:#FFFFFF;" width="18" height="2"/>
		</g>
		<g>
			
				<rect x="41.099" y="56.694" transform="matrix(0.7071 -0.7071 0.7071 0.7071 -35.1831 49.449)" style="fill:#FFFFFF;" width="2" height="21"/>
		</g>
	</g>
</g>
</svg>
