<?xml version="1.0" encoding="iso-8859-1"?>
<!-- Generator: Adobe Illustrator 17.1.0, SVG Export Plug-In . SVG Version: 6.00 Build 0)  -->
<!DOCTYPE svg PUBLIC "-//W3C//DTD SVG 1.0//EN" "http://www.w3.org/TR/2001/REC-SVG-20010904/DTD/svg10.dtd">
<svg version="1.0" xmlns="http://www.w3.org/2000/svg" xmlns:xlink="http://www.w3.org/1999/xlink" x="0px" y="0px" width="110px"
	 height="110px" viewBox="0 0 110 110" style="enable-background:new 0 0 110 110;" xml:space="preserve">
<g id="Artboard">
</g>
<g id="Multicolor">
	<circle style="fill:#32BEA6;" cx="55" cy="55" r="55"/>
	<g>
		<g>
			<g>
				<path style="fill:#EDBC7C;" d="M27.101,27.101c5.467-5.467,14.332-5.467,19.799,0l36,36c5.467,5.468,5.467,14.332,0,19.799
					c-5.467,5.467-14.332,5.467-19.799,0l-36-36C21.633,41.432,21.633,32.568,27.101,27.101z"/>
			</g>
		</g>
		<g>
			<path style="fill:#F4D0A1;" d="M82.899,63.101l-36-36c-5.467-5.467-14.332-5.467-19.799,0c-0.126,0.126-0.235,0.263-0.355,0.393
				l55.761,55.761c0.13-0.12,0.267-0.229,0.393-0.355C88.367,77.432,88.367,68.568,82.899,63.101z"/>
		</g>
		<g>
			<g>
				<path style="fill:#F8E1C2;" d="M82.9,27.101c5.467,5.467,5.467,14.332,0,19.799l-36,36c-5.468,5.467-14.332,5.467-19.799,0
					c-5.467-5.467-5.467-14.332,0-19.799l36-36C68.568,21.633,77.432,21.633,82.9,27.101z"/>
			</g>
		</g>
		<g>
			<path style="fill:#FCF1E2;" d="M63.101,27.101l-36,36c-5.248,5.248-5.444,13.616-0.618,19.115l55.733-55.733
				C76.613,21.567,68.272,21.929,63.101,27.101z"/>
		</g>
		<g>
			<g>
				<circle style="fill:#A97A45;" cx="78.295" cy="77.995" r="1.389"/>
			</g>
			<g>
				<circle style="fill:#A97A45;" cx="77.313" cy="71.121" r="1.389"/>
			</g>
			<g>
				<circle style="fill:#A97A45;" cx="75.349" cy="65.228" r="1.389"/>
			</g>
			<g>
				<circle style="fill:#A97A45;" cx="70.439" cy="70.139" r="1.389"/>
			</g>
			<g>
				<circle style="fill:#A97A45;" cx="71.421" cy="77.013" r="1.389"/>
			</g>
			<g>
				<circle style="fill:#A97A45;" cx="65.528" cy="75.049" r="1.389"/>
			</g>
			<g>
				<circle style="fill:#A97A45;" cx="33.039" cy="32.739" r="1.389"/>
			</g>
			<g>
				<circle style="fill:#A97A45;" cx="34.021" cy="39.614" r="1.389"/>
			</g>
			<g>
				<circle style="fill:#A97A45;" cx="35.985" cy="45.506" r="1.389"/>
			</g>
			<g>
				<circle style="fill:#A97A45;" cx="40.896" cy="40.596" r="1.389"/>
			</g>
			<g>
				<circle style="fill:#A97A45;" cx="39.914" cy="33.721" r="1.389"/>
			</g>
			<g>
				<circle style="fill:#A97A45;" cx="45.806" cy="35.685" r="1.389"/>
			</g>
		</g>
		<g>
			<g>
				<circle style="fill:#D4A263;" cx="31.389" cy="77.611" r="1.389"/>
			</g>
			<g>
				<circle style="fill:#D4A263;" cx="38.264" cy="76.629" r="1.389"/>
			</g>
			<g>
				<circle style="fill:#D4A263;" cx="44.156" cy="74.665" r="1.389"/>
			</g>
			<g>
				<circle style="fill:#D4A263;" cx="39.246" cy="69.754" r="1.389"/>
			</g>
			<g>
				<circle style="fill:#D4A263;" cx="32.371" cy="70.736" r="1.389"/>
			</g>
			<g>
				<circle style="fill:#D4A263;" cx="34.335" cy="64.844" r="1.389"/>
			</g>
			<g>
				<circle style="fill:#D4A263;" cx="76.645" cy="32.355" r="1.389"/>
			</g>
			<g>
				<circle style="fill:#D4A263;" cx="69.771" cy="33.337" r="1.389"/>
			</g>
			<g>
				<circle style="fill:#D4A263;" cx="63.878" cy="35.301" r="1.389"/>
			</g>
			<g>
				<circle style="fill:#D4A263;" cx="68.789" cy="40.212" r="1.389"/>
			</g>
			<g>
				<circle style="fill:#D4A263;" cx="75.663" cy="39.23" r="1.389"/>
			</g>
			<g>
				<circle style="fill:#D4A263;" cx="73.699" cy="45.122" r="1.389"/>
			</g>
		</g>
		<g>
			<path style="fill:#FCF1E2;" d="M51.267,70.869c-0.375,0.377-0.885,0.59-1.418,0.59s-1.043-0.212-1.418-0.589l-9.891-9.936
				c-0.776-0.78-0.777-2.041-0.001-2.821l19.11-19.219c0.375-0.377,0.885-0.59,1.418-0.59c0.532,0,1.043,0.212,1.418,0.589
				l9.891,9.936c0.776,0.78,0.777,2.041,0.001,2.821L51.267,70.869z"/>
		</g>
		<g>
			<path style="fill:#FFFFFF;" d="M60.485,38.892c-0.375-0.377-0.886-0.589-1.418-0.589c-0.532,0-1.042,0.212-1.418,0.59
				L38.54,58.112c-0.776,0.78-0.776,2.041,0.001,2.821l4.602,4.623l21.993-21.993L60.485,38.892z"/>
		</g>
	</g>
</g>
</svg>
