<?xml version="1.0" encoding="iso-8859-1"?>
<!-- Generator: Adobe Illustrator 17.1.0, SVG Export Plug-In . SVG Version: 6.00 Build 0)  -->
<!DOCTYPE svg PUBLIC "-//W3C//DTD SVG 1.0//EN" "http://www.w3.org/TR/2001/REC-SVG-20010904/DTD/svg10.dtd">
<svg version="1.0" xmlns="http://www.w3.org/2000/svg" xmlns:xlink="http://www.w3.org/1999/xlink" x="0px" y="0px" width="110px"
	 height="110px" viewBox="0 0 110 110" style="enable-background:new 0 0 110 110;" xml:space="preserve">
<g id="Artboard">
</g>
<g id="Multicolor">
	<circle style="fill:#25B7D3;" cx="55" cy="55" r="55"/>
	<g>
		<g>
			<path style="fill:#FA5655;" d="M72.194,54.892c-4.405,0.516-8.994-0.905-12.374-4.285c-7.566-5.035-20.683,3.585-33.962,14.163
				c-1.223-1.223-1.068-4.335,0.021-5.678c6.357-7.87,19.849-18.929,29.656-20.86c3.132-0.615,5.862-0.191,7.821,1.768l7.071,7.071
				C72.385,49.03,72.81,51.76,72.194,54.892z"/>
		</g>
		<g>
			<path style="fill:#E2E4E5;" d="M82.941,31.729l-7.565,7.565c0.802,4.423-4.931,7.797-8.485,4.243
				c-3.371-3.371-0.534-9.168,4.262-8.466c-0.03-0.03,7.515-7.554,7.546-7.584c-7.601-5.033-17.927-2.129-21.806,6.052
				c-2.666,5.565-1.69,12.452,2.927,17.07c5.865,5.865,15.368,5.845,21.213,0C86.162,45.479,86.797,37.552,82.941,31.729z"/>
		</g>
		<g>
			<path style="fill:#F0F1F1;" d="M71.153,35.07c-0.03-0.03,7.515-7.554,7.545-7.584c-7.6-5.033-17.927-2.129-21.806,6.052
				c-2.66,5.553-1.693,12.422,2.899,17.039l7.072-7.072C63.541,40.129,66.372,34.371,71.153,35.07z"/>
		</g>
		<g>
			<path style="fill:#FA5655;" d="M63.356,40.001c-1.959-1.958-4.688-2.383-7.821-1.768c-9.807,1.93-23.299,12.989-29.656,20.859
				c-1.089,1.344-1.244,4.455-0.021,5.678c13.258-10.562,26.354-19.168,33.925-14.185l7.079-7.079L63.356,40.001z"/>
		</g>
		<g>
			<path style="fill:#DF2C2C;" d="M51.335,84.548c-1.344,1.089-4.455,1.244-5.678,0.021C56.235,71.29,64.855,58.173,59.82,50.607
				c-3.748-3.748-5.115-9.051-4.045-13.831c0.163-0.714,0.693-1.287,1.393-1.492c0.7-0.205,1.464-0.007,1.98,0.509l11.278,11.278
				c1.959,1.959,2.383,4.688,1.768,7.821C70.264,64.7,59.205,78.191,51.335,84.548z"/>
		</g>
		<g>
			<path style="fill:#FA5655;" d="M57.168,35.284c-0.7,0.205-1.23,0.778-1.393,1.492c-1.068,4.768,0.29,10.054,4.016,13.801
				l7.07-7.07l-7.713-7.713C58.632,35.277,57.868,35.079,57.168,35.284z"/>
		</g>
		<g>
			<circle style="fill:#F0F1F1;" cx="63.709" cy="46.718" r="2.5"/>
		</g>
	</g>
</g>
</svg>
