<?xml version="1.0" encoding="iso-8859-1"?>
<!-- Generator: Adobe Illustrator 17.1.0, SVG Export Plug-In . SVG Version: 6.00 Build 0)  -->
<!DOCTYPE svg PUBLIC "-//W3C//DTD SVG 1.0//EN" "http://www.w3.org/TR/2001/REC-SVG-20010904/DTD/svg10.dtd">
<svg version="1.0" xmlns="http://www.w3.org/2000/svg" xmlns:xlink="http://www.w3.org/1999/xlink" x="0px" y="0px" width="110px"
	 height="110px" viewBox="0 0 110 110" style="enable-background:new 0 0 110 110;" xml:space="preserve">
<g id="Artboard">
</g>
<g id="Multicolor">
	<circle style="fill:#32BEA6;" cx="55" cy="55" r="55"/>
	<g>
		<path style="fill:#FFFFFF;" d="M35,27c0-2.209,1.791-4,4-4h32c2.209,0,4,1.791,4,4v44c0,2.209-1.791,4-4,4H39
			c-2.209,0-4-1.791-4-4V27z"/>
		<circle style="fill:#E2E4E5;" cx="45" cy="41" r="6"/>
		<path style="fill:#5B5C5F;" d="M44,43.5c0,0.276-0.224,0.5-0.5,0.5h-1c-0.276,0-0.5-0.224-0.5-0.5v-5c0-0.276,0.224-0.5,0.5-0.5h1
			c0.276,0,0.5,0.224,0.5,0.5V43.5z"/>
		<path style="fill:#5B5C5F;" d="M48,43.5c0,0.276-0.224,0.5-0.5,0.5h-1c-0.276,0-0.5-0.224-0.5-0.5v-5c0-0.276,0.224-0.5,0.5-0.5h1
			c0.276,0,0.5,0.224,0.5,0.5V43.5z"/>
		<circle style="fill:#E2E4E5;" cx="65" cy="41" r="6"/>
		<path style="fill:#5B5C5F;" d="M64,43.5c0,0.276-0.224,0.5-0.5,0.5h-1c-0.276,0-0.5-0.224-0.5-0.5v-5c0-0.276,0.224-0.5,0.5-0.5h1
			c0.276,0,0.5,0.224,0.5,0.5V43.5z"/>
		<path style="fill:#5B5C5F;" d="M68,43.5c0,0.276-0.224,0.5-0.5,0.5h-1c-0.276,0-0.5-0.224-0.5-0.5v-5c0-0.276,0.224-0.5,0.5-0.5h1
			c0.276,0,0.5,0.224,0.5,0.5V43.5z"/>
		<circle style="fill:#E2E4E5;" cx="65" cy="65" r="6"/>
		<path style="fill:#5B5C5F;" d="M64,67.5c0,0.276-0.224,0.5-0.5,0.5h-1c-0.276,0-0.5-0.224-0.5-0.5v-5c0-0.276,0.224-0.5,0.5-0.5h1
			c0.276,0,0.5,0.224,0.5,0.5V67.5z"/>
		<path style="fill:#5B5C5F;" d="M68,67.5c0,0.276-0.224,0.5-0.5,0.5h-1c-0.276,0-0.5-0.224-0.5-0.5v-5c0-0.276,0.224-0.5,0.5-0.5h1
			c0.276,0,0.5,0.224,0.5,0.5V67.5z"/>
		<circle style="fill:#E2E4E5;" cx="45" cy="65" r="6"/>
		<path style="fill:#5B5C5F;" d="M44,67.5c0,0.276-0.224,0.5-0.5,0.5h-1c-0.276,0-0.5-0.224-0.5-0.5v-5c0-0.276,0.224-0.5,0.5-0.5h1
			c0.276,0,0.5,0.224,0.5,0.5V67.5z"/>
		<path style="fill:#5B5C5F;" d="M48,67.5c0,0.276-0.224,0.5-0.5,0.5h-1c-0.276,0-0.5-0.224-0.5-0.5v-5c0-0.276,0.224-0.5,0.5-0.5h1
			c0.276,0,0.5,0.224,0.5,0.5V67.5z"/>
		<rect x="39" y="27" style="fill:#5B5C5F;" width="12" height="4"/>
		<rect x="39" y="27" style="fill:#FA5655;" width="6" height="4"/>
		<rect x="59" y="27" style="fill:#5B5C5F;" width="12" height="4"/>
		<rect x="65" y="27" style="fill:#17B198;" width="6" height="4"/>
		<rect x="59" y="51" style="fill:#5B5C5F;" width="12" height="4"/>
		<rect x="65" y="51" style="fill:#17B198;" width="6" height="4"/>
		<rect x="39" y="51" style="fill:#5B5C5F;" width="12" height="4"/>
		<rect x="45" y="51" style="fill:#17B198;" width="6" height="4"/>
		<g>
			<path style="fill:#F0F1F1;" d="M29,87h-4c0-3.649,1.735-8,10-8h12c6,0,6-2.125,6-4h4c0,1.979,0,8-10,8H35
				C29.464,83,29,85.065,29,87z"/>
		</g>
	</g>
</g>
</svg>
