<?xml version="1.0" encoding="iso-8859-1"?>
<!-- Generator: Adobe Illustrator 17.1.0, SVG Export Plug-In . SVG Version: 6.00 Build 0)  -->
<!DOCTYPE svg PUBLIC "-//W3C//DTD SVG 1.0//EN" "http://www.w3.org/TR/2001/REC-SVG-20010904/DTD/svg10.dtd">
<svg version="1.0" xmlns="http://www.w3.org/2000/svg" xmlns:xlink="http://www.w3.org/1999/xlink" x="0px" y="0px" width="110px"
	 height="110px" viewBox="0 0 110 110" style="enable-background:new 0 0 110 110;" xml:space="preserve">
<g id="Artboard">
</g>
<g id="Multicolor">
	<circle style="fill:#FABC3D;" cx="55" cy="55" r="55"/>
	<g>
		<g>
			<path style="fill:#F0F1F1;" d="M87,31c0-4.418-3.582-8-8-8H31c-4.418,0-8,3.582-8,8v48c0,4.418,3.582,8,8,8h48
				c4.418,0,8-3.582,8-8V31z"/>
		</g>
		<g>
			<path style="fill:#FFFFFF;" d="M79,23H31c-4.418,0-8,3.582-8,8v48c0,2.266,0.946,4.308,2.461,5.764l59.303-59.303
				C83.308,23.946,81.266,23,79,23z"/>
		</g>
		<g>
			<circle style="fill:#E2E4E5;" cx="55" cy="55" r="24"/>
		</g>
		<g>
			<path style="fill:#F0F1F1;" d="M55,31c-13.255,0-24,10.745-24,24c0,6.685,2.735,12.729,7.144,17.08L72.08,38.145
				C67.728,33.735,61.685,31,55,31z"/>
		</g>
		<g>
			<path style="fill:#5B5C5F;" d="M67,65c0,0.552-0.448,1-1,1h-2c-0.552,0-1-0.448-1-1V55c0-0.552,0.448-1,1-1h2
				c0.552,0,1,0.448,1,1V65z"/>
		</g>
		<g>
			<path style="fill:#5B5C5F;" d="M57,51c0,0.552-0.448,1-1,1h-2c-0.552,0-1-0.448-1-1V41c0-0.552,0.448-1,1-1h2
				c0.552,0,1,0.448,1,1V51z"/>
		</g>
		<g>
			<path style="fill:#5B5C5F;" d="M47,65c0,0.552-0.448,1-1,1h-2c-0.552,0-1-0.448-1-1V55c0-0.552,0.448-1,1-1h2
				c0.552,0,1,0.448,1,1V65z"/>
		</g>
	</g>
</g>
</svg>
