<?xml version="1.0" encoding="iso-8859-1"?>
<!-- Generator: Adobe Illustrator 17.1.0, SVG Export Plug-In . SVG Version: 6.00 Build 0)  -->
<!DOCTYPE svg PUBLIC "-//W3C//DTD SVG 1.0//EN" "http://www.w3.org/TR/2001/REC-SVG-20010904/DTD/svg10.dtd">
<svg version="1.0" xmlns="http://www.w3.org/2000/svg" xmlns:xlink="http://www.w3.org/1999/xlink" x="0px" y="0px" width="110px"
	 height="110px" viewBox="0 0 110 110" style="enable-background:new 0 0 110 110;" xml:space="preserve">
<g id="Artboard">
</g>
<g id="Multicolor">
	<circle style="fill:#E04F5F;" cx="55" cy="55" r="55"/>
	<g>
		<path style="fill:#F0F1F1;" d="M85.828,58.251L51.887,24.31c-1.562-1.562-4.095-1.562-5.657,0c-1.562,1.562-1.562,4.095,0,5.657
			l2.829,2.829l-5.657,5.657c-6.332,6.332-7.528,15.853-3.593,23.393l-4.892,4.892c-0.781,0.781-0.781,2.048,0,2.829L24.31,80.171
			c-1.562,1.562-1.562,4.095,0,5.657c1.562,1.562,4.095,1.562,5.657,0l10.607-10.607c0.781,0.781,2.047,0.781,2.828,0l4.892-4.892
			c7.54,3.935,17.06,2.739,23.393-3.593l5.657-5.657l2.828,2.829c1.562,1.562,4.095,1.562,5.657,0S87.391,59.813,85.828,58.251z"/>
		<path style="fill:#E2E4E5;" d="M43.402,66.736c-1.478-1.478-2.675-3.131-3.593-4.892l-4.892,4.892
			c-0.781,0.781-0.781,2.048,0,2.829l5.657,5.657c0.781,0.781,2.047,0.781,2.828,0l4.892-4.892
			C46.534,69.411,44.88,68.215,43.402,66.736z"/>
		<path style="fill:#F0F1F1;" d="M39.809,61.849l-4.892,4.892c-0.781,0.781-0.781,2.047,0,2.828l3.168,3.168l5.674-5.674
			c-0.117-0.111-0.242-0.208-0.357-0.322C41.924,65.263,40.728,63.61,39.809,61.849z"/>
		<path style="fill:#E2E4E5;" d="M85.828,63.908c-1.562,1.562-4.095,1.562-5.657,0L46.23,29.967c-1.562-1.562-1.562-4.095,0-5.657
			c1.562-1.562,4.095-1.562,5.657,0l33.941,33.941C87.391,59.813,87.391,62.346,85.828,63.908z"/>
		<path style="fill:#FFFFFF;" d="M49.059,32.8l-5.657,5.657c-6.332,6.332-7.528,15.853-3.593,23.393
			c0.919,1.76,2.115,3.414,3.593,4.892c0.115,0.114,0.24,0.211,0.357,0.322l0.69-0.69l19.092-19.092L49.059,32.8z"/>
		<path style="fill:#F0F1F1;" d="M46.23,24.315c-1.562,1.562-1.562,4.095,0,5.657l2.829,2.828l14.482,14.482l5.657-5.657
			l-17.31-17.31C50.325,22.753,47.793,22.753,46.23,24.315z"/>
		<path style="fill:#FFFFFF;" d="M34.917,69.57L24.31,80.177c-1.562,1.562-1.562,4.095,0,5.657c0.116,0.116,0.247,0.207,0.374,0.305
			l13.401-13.401L34.917,69.57z"/>
		<path style="fill:#3E3E3F;" d="M73.1,24.352l-0.042-0.042c-1.16-1.16-3.04-1.16-4.2,0l-8.485,8.485l4.243,4.243l8.485-8.485
			C74.26,27.393,74.26,25.512,73.1,24.352z"/>
		<path style="fill:#3E3E3F;" d="M85.828,37.08l-0.042-0.042c-1.16-1.16-3.04-1.16-4.2,0L73.1,45.523l4.243,4.243l8.485-8.485
			C86.988,40.121,86.988,38.24,85.828,37.08z"/>
	</g>
</g>
</svg>
