<?xml version="1.0" encoding="iso-8859-1"?>
<!-- Generator: Adobe Illustrator 17.1.0, SVG Export Plug-In . SVG Version: 6.00 Build 0)  -->
<!DOCTYPE svg PUBLIC "-//W3C//DTD SVG 1.0//EN" "http://www.w3.org/TR/2001/REC-SVG-20010904/DTD/svg10.dtd">
<svg version="1.0" xmlns="http://www.w3.org/2000/svg" xmlns:xlink="http://www.w3.org/1999/xlink" x="0px" y="0px" width="110px"
	 height="110px" viewBox="0 0 110 110" style="enable-background:new 0 0 110 110;" xml:space="preserve">
<g id="Artboard">
</g>
<g id="Multicolor">
	<circle style="fill:#25B7D3;" cx="55" cy="55" r="55"/>
	<g>
		<g>
			<path style="fill:#F0F1F1;" d="M33,63h13l4.48-4.48C54.71,54.29,54.94,47.5,51,43l-1.25,1.31L31.95,63l-0.062,0.065
				C32.253,63.025,32.624,63,33,63z"/>
		</g>
		<g>
			<path style="fill:#CFD3D4;" d="M47.67,57.52L42.19,63H31.95l17.8-18.69C51.95,48.6,51.23,53.96,47.67,57.52z"/>
		</g>
		<g>
			<path style="fill:#E2E4E5;" d="M77,63c3.277,0,6.176,1.583,8,4.018V30.58C79.22,32.3,75,37.66,75,44v19H77z"/>
		</g>
		<g>
			<path style="fill:#F0F1F1;" d="M75,63V44c0-6.34,4.22-11.7,10-13.42V27c-7.73,0-14,6.27-14,14v22H75z"/>
		</g>
		<g>
			<path style="fill:#DF2C2C;" d="M87,73c0,5.523-4.477,10-10,10H33c-5.523,0-10-4.477-10-10s4.477-10,10-10h44
				C82.523,63,87,67.477,87,73z"/>
		</g>
		<g>
			<circle style="fill:#3E3E3F;" cx="77" cy="73" r="2"/>
		</g>
		<g>
			<path style="fill:#F0F1F1;" d="M83,56c0,0.552-0.448,1-1,1s-1-0.448-1-1V44c0-0.552,0.448-1,1-1s1,0.448,1,1V56z"/>
		</g>
		<g>
			<path style="fill:#FFFFFF;" d="M75,52.941V44c0-6.34,4.22-11.7,10-13.42V27c-7.73,0-14,6.27-14,14v15.941L75,52.941z"/>
		</g>
		<g>
			<path style="fill:#F0F1F1;" d="M85,42.941V30.58C79.22,32.3,75,37.66,75,44v8.941L85,42.941z"/>
		</g>
		<g>
			<path style="fill:#F0F1F1;" d="M33,63h2.186c0.59-3.15,2.378-5.382,5.899-6.692c0.505-0.188,0.77-0.742,0.6-1.253l-0.33-0.99
				c-0.089-0.267-0.285-0.483-0.542-0.597c-0.256-0.115-0.549-0.117-0.807-0.005C36.123,55.154,32,55.446,32,49c0-7,5-5,5-5l5-7
				l-3-4c-6.627,0-12,5.373-12,12v20.014C28.673,63.755,30.746,63,33,63z"/>
		</g>
		<g>
			<polygon style="fill:#FFFFFF;" points="61,71 57,71 57,67 53,67 53,71 49,71 49,75 53,75 53,79 57,79 57,75 61,75 			"/>
		</g>
		<g>
			<circle style="fill:#3E3E3F;" cx="33" cy="73" r="2"/>
		</g>
		<g>
			<path style="fill:#FFFFFF;" d="M83,44.941V44c0-0.552-0.448-1-1-1s-1,0.448-1,1v2.941L83,44.941z"/>
		</g>
	</g>
</g>
</svg>
