<?xml version="1.0" encoding="iso-8859-1"?>
<!-- Generator: Adobe Illustrator 17.1.0, SVG Export Plug-In . SVG Version: 6.00 Build 0)  -->
<!DOCTYPE svg PUBLIC "-//W3C//DTD SVG 1.0//EN" "http://www.w3.org/TR/2001/REC-SVG-20010904/DTD/svg10.dtd">
<svg version="1.0" xmlns="http://www.w3.org/2000/svg" xmlns:xlink="http://www.w3.org/1999/xlink" x="0px" y="0px" width="110px"
	 height="110px" viewBox="0 0 110 110" style="enable-background:new 0 0 110 110;" xml:space="preserve">
<g id="Artboard">
</g>
<g id="Multicolor">
	<circle style="fill:#E04F5F;" cx="55" cy="55" r="55"/>
	<g>
		<polygon style="fill:#FFFFFF;" points="25,72 29,68 45,68 45,72 		"/>
		<polygon style="fill:#FFFFFF;" points="45,63.585 48,59.585 62,59.585 65,63.585 		"/>
		<polygon style="fill:#FFFFFF;" points="85,72 81,68 65,68 65,72 		"/>
		<polygon style="fill:#CFD3D4;" points="65,72 65,63.585 45,63.585 45,72 25,72 25,87 85,87 85,72 		"/>
		<g>
			<path style="fill:#5B5C5F;" d="M54.135,71.869c-0.225,0.058-0.755,0.216-0.971,0.216c-0.432,0-0.804-0.359-0.804-0.792
				c0-0.372,0.24-0.684,0.612-0.792c0.464-0.134,1.568-0.503,2.051-0.503h0.024c0.503,0,0.912,0.408,0.912,0.911v6.765
				c0,0.503-0.408,0.911-0.912,0.911c-0.504,0-0.912-0.408-0.912-0.911V71.869z"/>
		</g>
		<g>
			<path style="fill:#5B5C5F;" d="M32.996,82.177l2.387-1.955c1.043-0.852,1.451-1.319,1.451-2.015c0-0.708-0.468-1.091-1.127-1.091
				c-0.528,0-0.899,0.228-1.367,0.732c-0.12,0.132-0.336,0.264-0.624,0.264c-0.468,0-0.839-0.372-0.839-0.839
				c0-0.204,0.084-0.42,0.216-0.576c0.672-0.78,1.463-1.235,2.734-1.235c1.739,0,2.891,1.019,2.891,2.59v0.024
				c0,1.403-0.72,2.099-2.207,3.25l-1.368,1.055h2.927c0.443,0,0.803,0.36,0.803,0.804s-0.36,0.792-0.803,0.792h-4.558
				c-0.576,0-0.996-0.324-0.996-0.875C32.516,82.74,32.684,82.428,32.996,82.177z"/>
		</g>
		<g>
			<path style="fill:#5B5C5F;" d="M71.947,83.041c-0.167-0.144-0.312-0.396-0.312-0.66c0-0.48,0.408-0.888,0.887-0.888
				c0.264,0,0.444,0.108,0.588,0.228c0.48,0.408,0.983,0.624,1.643,0.624c0.696,0,1.188-0.396,1.188-1.02v-0.024
				c0-0.684-0.612-1.067-1.643-1.067H74.01c-0.432,0-0.792-0.36-0.792-0.792c0-0.252,0.108-0.468,0.396-0.755l1.631-1.644h-2.579
				c-0.432,0-0.792-0.359-0.792-0.792c0-0.432,0.36-0.792,0.792-0.792h4.09c0.54,0,0.936,0.312,0.936,0.815
				c0,0.456-0.216,0.708-0.552,1.032l-1.643,1.571c1.139,0.192,2.255,0.792,2.255,2.351v0.024c0,1.583-1.151,2.747-3.022,2.747
				C73.531,84,72.631,83.628,71.947,83.041z"/>
		</g>
		<path style="fill:#84462D;" d="M55,54c-5.523,0-10,0.896-10,2v5c0,1.104,4.477,2,10,2s10-0.896,10-2v-5C65,54.896,60.523,54,55,54
			z"/>
		<g>
			<path style="fill:#FFFFFF;" d="M40.932,45.089C40.971,45.083,41,45.05,41,45.01v-0.02c0-0.04-0.029-0.073-0.068-0.079
				c-2.228-0.334-3.508-1.615-3.843-3.843C37.083,41.029,37.05,41,37.01,41h-0.02c-0.04,0-0.073,0.029-0.079,0.068
				c-0.334,2.227-1.615,3.508-3.843,3.843C33.029,44.917,33,44.95,33,44.99v0.02c0,0.04,0.029,0.073,0.068,0.079
				c2.228,0.334,3.508,1.615,3.843,3.843C36.917,48.971,36.95,49,36.99,49h0.029c0.035,0,0.064-0.025,0.069-0.06
				C37.42,46.708,38.701,45.424,40.932,45.089z"/>
		</g>
		<g>
			<path style="fill:#FFFFFF;" d="M80.872,50.667C80.946,50.656,81,50.593,81,50.519v-0.038c0-0.074-0.054-0.137-0.128-0.148
				c-4.177-0.627-6.578-3.029-7.205-7.205C73.656,43.054,73.593,43,73.519,43h-0.038c-0.074,0-0.137,0.054-0.148,0.128
				c-0.627,4.176-3.028,6.578-7.205,7.205C66.054,50.344,66,50.407,66,50.481v0.038c0,0.074,0.054,0.137,0.128,0.148
				c4.177,0.627,6.578,3.029,7.205,7.205C73.344,57.946,73.407,58,73.481,58h0.054c0.065,0,0.12-0.048,0.13-0.112
				C74.288,53.702,76.69,51.295,80.872,50.667z"/>
		</g>
		<path style="fill:#9C6144;" d="M45,56v5c0,1.104,4.477,2,10,2v-9C49.477,54,45,54.896,45,56z"/>
		<ellipse style="fill:#AF7653;" cx="55" cy="56" rx="10" ry="2"/>
		<path style="fill:#F3B607;" d="M74.625,26.455c-0.285-0.314-0.674-0.493-1.098-0.493H67v3.01h4.706
			c-0.535,1.994-1.837,5.155-5.242,5.869c-0.342,1.098-0.839,2.126-1.464,3.062V38c7.022,0,9.645-6.795,9.992-10.389
			C75.033,27.189,74.91,26.769,74.625,26.455z"/>
		<path style="fill:#FACB1B;" d="M55,27c-6.627,0-12-0.896-12-2v6.304c0,5.511,3.752,10.128,8.839,11.473
			c2.105,4.264,0.286,9.138-3.103,9.904c-0.483,0.11-0.936,0.58-0.936,1.169v1.86c1.834,0.376,4.393,0.611,7.229,0.611
			c2.805,0,5.341-0.229,7.171-0.598V53.85c0-0.594-0.45-1.059-0.936-1.169c-3.386-0.764-5.205-5.631-3.109-9.893
			c2.743-0.724,5.179-2.417,6.817-4.842C66.25,36.05,67,33.764,67,31.304V25C67,26.104,61.627,27,55,27z"/>
		<path style="fill:#F99134;" d="M55,23c-6.693,0-12,0.913-12,2c0,1.104,5.373,2,12,2s12-0.896,12-2C67,23.341,57.071,23,55,23z"/>
		<path style="fill:#F3B607;" d="M43.546,34.842c-3.412-0.709-4.717-3.875-5.252-5.871H43v-3.01h-6.527
			c-0.424,0-0.812,0.179-1.098,0.493c-0.285,0.314-0.408,0.734-0.367,1.156C35.355,31.205,37.978,38,45,38v-0.108
			C44.376,36.961,43.888,35.935,43.546,34.842z"/>
		<path style="fill:#FBE158;" d="M43,25v6.304c0,5.511,3.752,10.128,8.839,11.473c2.105,4.264,0.286,9.138-3.103,9.904
			c-0.483,0.11-0.936,0.58-0.936,1.169v1.86c1.828,0.375,4.376,0.609,7.2,0.611V27C48.373,27,43,26.104,43,25z"/>
	</g>
</g>
</svg>
