<?xml version="1.0" encoding="iso-8859-1"?>
<!-- Generator: Adobe Illustrator 17.1.0, SVG Export Plug-In . SVG Version: 6.00 Build 0)  -->
<!DOCTYPE svg PUBLIC "-//W3C//DTD SVG 1.0//EN" "http://www.w3.org/TR/2001/REC-SVG-20010904/DTD/svg10.dtd">
<svg version="1.0" xmlns="http://www.w3.org/2000/svg" xmlns:xlink="http://www.w3.org/1999/xlink" x="0px" y="0px" width="110px"
	 height="110px" viewBox="0 0 110 110" style="enable-background:new 0 0 110 110;" xml:space="preserve">
<g id="Artboard">
</g>
<g id="Multicolor">
	<circle style="fill:#32BEA6;" cx="55" cy="55" r="55"/>
	<g>
		<g>
			<path style="fill:#3E3E3F;" d="M35.881,84.671c1.137,1.47,2.892,2.329,4.75,2.329h28.488c1.856,0,3.614-0.861,4.75-2.329
				c3.138-4.056,5.006-9.145,5.006-14.671c0-9.209-5.188-17.203-12.8-21.226c-1.965-1.039-3.2-3.085-3.2-5.308V31h-16v12.466
				c0,2.225-1.233,4.268-3.2,5.308c-7.612,4.023-12.8,12.017-12.8,21.226C30.875,75.526,32.743,80.615,35.881,84.671z"/>
		</g>
		<g>
			<path style="fill:#5B5C5F;" d="M54.875,31h-8v12.466c0,2.225-1.233,4.268-3.2,5.308c-7.612,4.023-12.8,12.017-12.8,21.226
				c0,5.526,1.868,10.615,5.006,14.671c1.137,1.47,2.892,2.329,4.75,2.329h14.244V31z"/>
		</g>
		<g>
			<path style="fill:#E9EAEB;" d="M41.875,27c0,2.209,1.791,4,4,4h18c2.209,0,4-1.791,4-4s-1.791-4-4-4h-18
				C43.666,23,41.875,24.791,41.875,27z"/>
		</g>
		<g>
			<path style="fill:#FFFFFF;" d="M67.734,72.871c-0.975-0.716-2.296-0.621-3.158,0.162L61.8,70.994
				c1.007-1.736,1.352-3.808,0.834-5.911l1.773-1.302c0.849,0.941,2.283,1.115,3.327,0.348c1.113-0.817,1.352-2.382,0.535-3.495
				c-0.369-0.503-0.893-0.817-1.457-0.946c0.045-0.577-0.098-1.171-0.467-1.674c-0.817-1.113-2.382-1.352-3.495-0.535
				c-0.975,0.716-1.279,2.005-0.791,3.062l-1.353,0.994C59.248,59.979,57.178,59,54.875,59c-2.329,0-4.418,1.001-5.88,2.589
				l-1.426-1.047c0.489-1.057,0.184-2.346-0.791-3.062c-1.113-0.817-2.677-0.578-3.495,0.535c-0.369,0.503-0.512,1.097-0.467,1.674
				c-0.564,0.129-1.088,0.443-1.457,0.946c-0.817,1.113-0.578,2.677,0.535,3.495c1.044,0.767,2.477,0.593,3.327-0.348l1.875,1.377
				c-0.483,2.043-0.154,4.054,0.821,5.771l-2.864,2.104c-0.862-0.782-2.183-0.878-3.158-0.162c-1.113,0.817-1.352,2.382-0.535,3.495
				c0.369,0.503,0.893,0.817,1.457,0.946c-0.045,0.577,0.098,1.171,0.467,1.674c0.817,1.113,2.382,1.352,3.495,0.535
				c1.044-0.767,1.307-2.186,0.663-3.278c0.245-0.18,3.195-2.459,3.433-2.321V77c0,1.104,0.896,2,2,2h4c1.104,0,2-0.896,2-2v-3.079
				c0.133-0.077,3.189,2.23,3.313,2.321c-0.644,1.092-0.381,2.512,0.663,3.278c1.113,0.817,2.677,0.578,3.495-0.535
				c0.369-0.503,0.512-1.097,0.467-1.674c0.564-0.129,1.088-0.443,1.457-0.946C69.087,75.253,68.847,73.688,67.734,72.871z"/>
		</g>
		<g>
			<circle style="fill:#3E3E3F;" cx="51.875" cy="66" r="2"/>
		</g>
		<g>
			<circle style="fill:#3E3E3F;" cx="57.875" cy="66" r="2"/>
		</g>
		<g>
			<path style="fill:#FFFFFF;" d="M54.875,23h-9c-2.209,0-4,1.791-4,4s1.791,4,4,4h9V23z"/>
		</g>
	</g>
</g>
</svg>
