<?xml version="1.0" encoding="iso-8859-1"?>
<!-- Generator: Adobe Illustrator 17.1.0, SVG Export Plug-In . SVG Version: 6.00 Build 0)  -->
<!DOCTYPE svg PUBLIC "-//W3C//DTD SVG 1.0//EN" "http://www.w3.org/TR/2001/REC-SVG-20010904/DTD/svg10.dtd">
<svg version="1.0" xmlns="http://www.w3.org/2000/svg" xmlns:xlink="http://www.w3.org/1999/xlink" x="0px" y="0px" width="110px"
	 height="110px" viewBox="0 0 110 110" style="enable-background:new 0 0 110 110;" xml:space="preserve">
<g id="Artboard">
</g>
<g id="Multicolor">
	<g>
		<circle style="fill:#32BEA6;" cx="55" cy="55" r="55"/>
	</g>
	<g>
		<g>
			<path style="fill:#FFFFFF;" d="M23,87l4-11.003c0.615-1.333,1.698-2.394,3.043-2.983L45,68.997h10V87H23z"/>
		</g>
		<g>
			<path style="fill:#FFFFFF;" d="M87,87l-4-11.003c-0.615-1.333-1.698-2.394-3.043-2.983L65,68.997H55V87H87z"/>
		</g>
		<path style="fill:#F7B4B4;" d="M57.655,68H55h-2.655c-0.856,0-1.671-0.365-2.24-1.004L45,63v4.5c0,0,0,7.5,10,7.5s10-7.5,10-7.5
			V63l-5.105,3.996C59.326,67.635,58.511,68,57.655,68z"/>
		<path style="fill:#FBC8C8;" d="M50.105,66.993L45,62.997v4.5c0,0,0,7.5,10,7.5v-7h-2.655
			C51.489,67.997,50.674,67.632,50.105,66.993z"/>
		<path style="fill:#FBC8C8;" d="M70,45c-1,0-1,1.111-1,1.111v-3.114c-0.004-2.236-0.07-4.286-0.365-6.106
			C66.796,36.016,62.812,35,55,35s-11.796,1.016-13.635,1.891c-0.295,1.82-0.361,3.87-0.365,6.106v10l4,10l5.105,3.996
			c0.569,0.639,1.384,1.004,2.24,1.004H55h2.655c0.856,0,1.671-0.365,2.24-1.004L65,62.997l3.207-8.017
			C71.042,54.776,72,50.476,72,47.222C72,46.111,71,45,70,45z"/>
		<path style="fill:#FBD7D7;" d="M41,42.997v3.114c0,0,0-1.111-1-1.111s-2,1.111-2,2.222c0,3.253,0.958,7.554,3.793,7.758L45,62.997
			l5.105,3.996c0.569,0.639,1.384,1.004,2.24,1.004H55V35c-7.813,0-11.796,1.016-13.635,1.891C41.07,38.711,41.004,40.761,41,42.997
			z"/>
		<g>
			<path style="fill:#3E3E3F;" d="M52,46.997c0-1.104-0.896-2-2-2c-0.002,0-0.004,0-0.006,0C49.995,45.019,50,45.039,50,45.06
				c0,1.103-0.892,1.996-1.994,2c0.033,1.075,0.91,1.938,1.994,1.938C51.104,48.997,52,48.102,52,46.997z"/>
		</g>
		<g>
			<path style="fill:#3E3E3F;" d="M61.994,46.997c0-1.104-0.896-2-2-2c-0.002,0-0.004,0-0.006,0
				c0.001,0.021,0.006,0.041,0.006,0.062c0,1.103-0.892,1.996-1.994,2c0.033,1.075,0.91,1.938,1.994,1.938
				C61.098,48.997,61.994,48.102,61.994,46.997z"/>
		</g>
		<g>
			<path style="fill:#F79392;" d="M50,56.997h10c0,0,0,3-5,3S50,56.997,50,56.997z"/>
		</g>
		<g>
			<path style="fill:#84462D;" d="M40,39c0,2.156,0,2.873,0,4c0,0,1,7,2,9c0,0,0,0,1,0c0-1.383,0-9.587,0-13H40z"/>
		</g>
		<g>
			<path style="fill:#84462D;" d="M70,39c0,2.156,0,2.873,0,4c0,0-1,7-2,9c0,0,0,0-1,0c0-1.383,0-9.587,0-13H70z"/>
		</g>
		<g>
			<polygon style="fill:#3E3E3F;" points="59,86.997 56,78.997 58,75.999 54.981,72.975 51.983,75.973 54,78.997 51,86.997 			"/>
		</g>
		<g>
			<polygon style="fill:#5B5C5F;" points="55,86.997 55,72.994 54.981,72.975 51.983,75.973 54,78.997 51,86.997 			"/>
		</g>
		<g>
			<polygon style="fill:#E2E4E5;" points="67,68.997 65,66.997 55,72.997 62,79.997 			"/>
		</g>
		<g>
			<polygon style="fill:#E2E4E5;" points="43,69.997 45,66.997 55,72.997 48,79.997 			"/>
		</g>
		<g>
			<path style="fill:#3E3E3F;" d="M55,23c-5,0-20,2-20,8c0,5,5,5,5,5c0-0.602,0-1,0-1c0.59-0.037,3-5,15-5s14.41,4.963,15,5
				c0,0,0,0.398,0,1c0,0,5,0,5-5C75,25,60,23,55,23z"/>
		</g>
		<g>
			<path style="fill:#FFFFFF;" d="M55,30c-11,0-15,4-15,5c0,0,0,2.878,0,4c3-3,15-3,15-3s12,0,15,3c0-1.122,0-4,0-4
				C70,34,66,30,55,30z"/>
		</g>
		<g>
			<g>
				<path style="fill:#3E3E3F;" d="M76,87l-2-16c-2.884-0.812-5.604-1.695-7-2.003l-5,11H48l-5-10c-1.396,0.308-4,1.003-7,0.964
					L34,87H76z"/>
			</g>
			<g>
				<polygon style="fill:#5B5C5F;" points="68.082,87 66.367,84 44,84 42.286,87 				"/>
			</g>
			<g>
				<path style="fill:#5B5C5F;" d="M34.367,69.18l0.074,0.978c0.062,0.818,0.455,1.574,1.089,2.094s1.453,0.758,2.267,0.658
					l3.703-0.453c0.879-0.107,1.666-0.598,2.149-1.34s0.615-1.66,0.358-2.507l-0.262-0.867L34.367,69.18z"/>
			</g>
			<g>
				<path style="fill:#5B5C5F;" d="M76,69.18l-0.074,0.978c-0.062,0.818-0.455,1.574-1.089,2.094s-1.453,0.758-2.267,0.658
					l-3.703-0.453c-0.879-0.107-1.666-0.598-2.149-1.34c-0.484-0.742-0.615-1.66-0.358-2.507l0.262-0.867L76,69.18z"/>
			</g>
		</g>
		<g>
			<g>
				<path style="fill:#3E3E3F;" d="M82.5,81.333c0,0.552-0.448,1-1,1h-8c-0.552,0-1-0.448-1-1v-13c0-0.552,0.448-1,1-1h8
					c0.552,0,1,0.448,1,1V81.333z"/>
			</g>
			<g>
				<g>
					<path style="fill:#3E3E3F;" d="M80.5,67.333h-2v-2c0-0.552,0.448-1,1-1s1,0.448,1,1V67.333z"/>
				</g>
				<g>
					<path style="fill:#5B5C5F;" d="M73.132,82.259c-0.369-0.147-0.632-0.504-0.632-0.926v-13c0-0.552,0.448-1,1-1h8
						c0.13,0,0.254,0.029,0.368,0.074L73.132,82.259z"/>
				</g>
				<g>
					<rect x="74.5" y="69.333" style="fill:#6FDAF1;" width="6" height="4"/>
				</g>
			</g>
		</g>
		<g>
			<path style="fill:#3E3E3F;" d="M55,36.031c0,0-13,0-15,3c2.997,5.722,14.628,4.697,15,4.969c0.372-0.271,12.003,0.753,15-4.969
				C68,36.031,55,36.031,55,36.031z"/>
		</g>
		<g>
			<path style="fill:#5B5C5F;" d="M40,39.031c2.997,5.722,14.628,4.697,15,4.969v-7.969C55,36.031,42,36.031,40,39.031z"/>
		</g>
		<g>
			<path style="fill:#FACB1B;" d="M57,31h-1c0.552-0.552,0.552-1.448,0-2l-1-1l-1,1c-0.552,0.552-0.552,1.448,0,2h-1
				c-0.55,0-1,0.45-1,1v4c0,0.55,0.45,1,1,1h4c0.55,0,1-0.45,1-1v-4C58,31.45,57.55,31,57,31z"/>
		</g>
		<g>
			<path style="fill:#F3B607;" d="M57,34c0,1.105-0.895,2-2,2l0,0c-1.105,0-2-0.895-2-2l0,0c0-1.105,0.895-2,2-2l0,0
				C56.105,32,57,32.895,57,34L57,34z"/>
		</g>
	</g>
</g>
</svg>
