<?xml version="1.0" encoding="iso-8859-1"?>
<!-- Generator: Adobe Illustrator 17.1.0, SVG Export Plug-In . SVG Version: 6.00 Build 0)  -->
<!DOCTYPE svg PUBLIC "-//W3C//DTD SVG 1.0//EN" "http://www.w3.org/TR/2001/REC-SVG-20010904/DTD/svg10.dtd">
<svg version="1.0" xmlns="http://www.w3.org/2000/svg" xmlns:xlink="http://www.w3.org/1999/xlink" x="0px" y="0px" width="110px"
	 height="110px" viewBox="0 0 110 110" style="enable-background:new 0 0 110 110;" xml:space="preserve">
<g id="Artboard">
</g>
<g id="Multicolor">
	<circle style="fill:#FABC3D;" cx="55" cy="55" r="55"/>
	<g>
		<g>
			<path style="fill:#FFFFFF;" d="M70.614,34.227L68.11,29.21C67.43,27.86,66.04,27,64.53,27H45.47c-1.51,0-2.9,0.86-3.58,2.21
				l-2.504,5.017C49.795,32.602,60.205,32.602,70.614,34.227z"/>
		</g>
		<g>
			<path style="fill:#E2E4E5;" d="M86.771,49.013c0,3.333-6,5-7.833,3.333c-1.833-1.667-0.728-4.011,1.167-5.25
				C82.271,45.679,86.771,46.013,86.771,49.013z"/>
		</g>
		<g>
			<path style="fill:#F0F1F1;" d="M23.229,49.013c0,3.333,6,5,7.833,3.333c1.833-1.667,0.728-4.011-1.167-5.25
				C27.729,45.679,23.229,46.013,23.229,49.013z"/>
		</g>
		<g>
			<path style="fill:#F0F1F1;" d="M86.716,63.988C85.901,59.659,83.329,55.329,79,51l-3.06-12.238c-0.582-2.33-2.5-4.09-4.871-4.471
				c-10.713-1.721-21.425-1.721-32.138,0c-2.371,0.381-4.289,2.141-4.871,4.471L31,51c-4.329,4.329-6.901,8.659-7.716,12.988
				C23.108,64.286,23,64.629,23,65v4c0,1.104,0.896,2,2,2h60c1.105,0,2-0.896,2-2v-4C87,64.629,86.892,64.286,86.716,63.988z"/>
		</g>
		<g>
			<path style="fill:#FA5655;" d="M51,33.08V27h-5.53c-1.51,0-2.9,0.86-3.58,2.21l-2.504,5.017
				C43.257,33.623,47.129,33.235,51,33.08z"/>
		</g>
		<g>
			<path style="fill:#059BBF;" d="M70.614,34.227L68.11,29.21C67.43,27.86,66.04,27,64.53,27H59v6.08
				C62.871,33.235,66.743,33.623,70.614,34.227z"/>
		</g>
		<g>
			<path style="fill:#3E3E3F;" d="M80.528,79H75v6c0,1.104,0.896,2,2,2h4c1.105,0,2-0.896,2-2v-6.862
				C82.307,78.684,81.443,79,80.528,79z"/>
		</g>
		<g>
			<path style="fill:#3E3E3F;" d="M29.472,79c-0.915,0-1.779-0.316-2.472-0.862V85c0,1.104,0.896,2,2,2h4c1.105,0,2-0.896,2-2v-6
				H29.472z"/>
		</g>
		<g>
			<path style="fill:#F0F1F1;" d="M84.106,76.789C83.428,78.144,82.043,79,80.528,79H29.472c-1.515,0-2.9-0.856-3.578-2.211
				l-2.171-4.342c-0.155-0.31-0.138-0.678,0.044-0.973C23.95,71.179,24.271,71,24.618,71h60.764c0.347,0,0.668,0.179,0.851,0.474
				c0.182,0.295,0.199,0.663,0.044,0.973L84.106,76.789z"/>
		</g>
		<g>
			<path style="fill:#F37A10;" d="M83,63h2c1.105,0,2,0.895,2,2v4c0,1.105-0.895,2-2,2h-2V63z"/>
		</g>
		<g>
			<path style="fill:#B6BCBD;" d="M74.708,63H35.292c2.273,0,4.35,1.284,5.367,3.317L43,71h24l2.342-4.683
				C70.358,64.284,72.436,63,74.708,63z"/>
		</g>
		<g>
			<path style="fill:#F0F1F1;" d="M74.708,63H35.292c1.73,0,3.344,0.748,4.466,2h30.484C71.364,63.748,72.978,63,74.708,63z"/>
		</g>
		<g>
			<polygon style="fill:#E2E4E5;" points="69,67 41,67 42,69 68,69 			"/>
		</g>
		<g>
			<path style="fill:#FACB1B;" d="M83,63h-8.292c-2.273,0-4.35,1.284-5.367,3.317L67,71h16V63z"/>
		</g>
		<g>
			<path style="fill:#FBE158;" d="M74.708,63c-2.273,0-4.35,1.284-5.367,3.317L67,71h5.09l8-8H74.708z"/>
		</g>
		<g>
			<path style="fill:#FFFFFF;" d="M38.931,34.291c-2.371,0.381-4.289,2.141-4.871,4.471L31,51
				c-4.329,4.329-6.901,8.659-7.716,12.988C23.108,64.286,23,64.629,23,65v4c0,0.377,0.111,0.726,0.292,1.027L60.169,33.15
				C53.089,32.784,46.01,33.153,38.931,34.291z"/>
		</g>
		<g>
			<path style="fill:#F37A10;" d="M27,71h-2c-1.105,0-2-0.895-2-2v-4c0-1.105,0.895-2,2-2h2V71z"/>
		</g>
		<g>
			<path style="fill:#FACB1B;" d="M27,63h8.292c2.273,0,4.35,1.284,5.367,3.317L43,71H27V63z"/>
		</g>
		<g>
			<path style="fill:#FBE158;" d="M27,63v8h0.705l7.973-7.973C35.549,63.019,35.422,63,35.292,63H27z"/>
		</g>
		<g>
			<path style="fill:#40C9E7;" d="M35,51l2.404-9.616c0.373-1.492,1.569-2.638,3.075-2.949c9.275-1.914,19.767-1.914,29.042,0
				c1.505,0.31,2.702,1.458,3.075,2.949L75,51H35z"/>
		</g>
		<g>
			<path style="fill:#6FDAF1;" d="M40.479,38.435c-1.506,0.311-2.702,1.457-3.075,2.949L35,51h7.319l13.969-13.969
				C50.919,36.941,45.52,37.395,40.479,38.435z"/>
		</g>
	</g>
</g>
</svg>
