<?xml version="1.0" encoding="iso-8859-1"?>
<!-- Generator: Adobe Illustrator 17.1.0, SVG Export Plug-In . SVG Version: 6.00 Build 0)  -->
<!DOCTYPE svg PUBLIC "-//W3C//DTD SVG 1.0//EN" "http://www.w3.org/TR/2001/REC-SVG-20010904/DTD/svg10.dtd">
<svg version="1.0" xmlns="http://www.w3.org/2000/svg" xmlns:xlink="http://www.w3.org/1999/xlink" x="0px" y="0px" width="110px"
	 height="110px" viewBox="0 0 110 110" style="enable-background:new 0 0 110 110;" xml:space="preserve">
<g id="Artboard">
</g>
<g id="Multicolor">
	<circle style="fill:#E04F5F;" cx="55" cy="55" r="55"/>
	<g>
		<g>
			<path style="fill:#0484AB;" d="M82,63l-9-13.7c-0.66-1.41-2.07-2.3-3.62-2.3H47.56c-1.51,0-2.9,0.86-3.58,2.21L35.88,61
				c-0.4,0.81-1.07,1.46-1.88,1.84c-0.41,0.17-8.38,2.99-8.76,3.16C24.07,66.55,24,68.11,24,69c0,0.084,0.006,2.914,0.004,4.277
				l0.001,0C23.416,73.619,23,74.247,23,75v4c0,1.1,0.9,2,2,2h11h46c2.21,0,4-1.79,4-4V67C86,64.79,84.21,63,82,63z"/>
		</g>
		<g>
			<path style="fill:#059BBF;" d="M47.56,47c-1.51,0-2.9,0.86-3.58,2.21L35.88,61c-0.4,0.81-1.07,1.46-1.88,1.84
				c-0.41,0.17-8.38,2.99-8.76,3.16C24.07,66.55,24,68.11,24,69c0,0.084,0.006,2.914,0.004,4.277l0.001,0
				C23.416,73.619,23,74.247,23,75v4c0,1.098,0.896,1.995,1.992,1.999L58.991,47H47.56z"/>
		</g>
		<g>
			<path style="fill:#FBE158;" d="M30,69c1.105,0,2,0.895,2,2v3h-8c0.01-0.05,0-4.89,0-5H30z"/>
		</g>
		<g>
			<rect x="82" y="69" style="fill:#F3B607;" width="4" height="4"/>
		</g>
		<g>
			<path style="fill:#FBE158;" d="M58,44h-9l1.368-4.103C50.715,38.854,51.9,38,53,38h1c1.1,0,2.285,0.854,2.632,1.897L58,44z"/>
		</g>
		<g>
			<rect x="48" y="44" style="fill:#FFFFFF;" width="11" height="3"/>
		</g>
		<g>
			<path style="fill:#F99134;" d="M30,69h-2v4h4v-2C32,69.896,31.105,69,30,69z"/>
		</g>
		<g>
			<rect x="40" y="61" style="fill:#F0F1F1;" width="37" height="20"/>
		</g>
		<path style="fill:#E2E4E5;" d="M85,73H72c3.866,0,7,3.134,7,7c0,0.34-0.032,0.672-0.08,1H85c1.1,0,2-0.9,2-2v-4
			C87,73.871,86.081,73,85,73z"/>
		<g>
			<circle style="fill:#3E3E3F;" cx="72" cy="80" r="7"/>
		</g>
		<g>
			<circle style="fill:#FFFFFF;" cx="72" cy="80" r="3"/>
		</g>
		<g>
			<polygon style="fill:#F3B607;" points="55.929,64.452 57.362,68.863 62,68.863 58.248,71.589 59.681,76 55.929,73.274 52.176,76 
				53.61,71.589 49.857,68.863 54.495,68.863 			"/>
		</g>
		<path style="fill:#E2E4E5;" d="M29,80c0-3.866,3.134-7,7-7H25c-1.081,0-2,0.871-2,2v4c0,1.1,0.9,2,2,2h4.08
			C29.032,80.672,29,80.34,29,80z"/>
		<g>
			<circle style="fill:#3E3E3F;" cx="36" cy="80" r="7"/>
		</g>
		<g>
			<circle style="fill:#FFFFFF;" cx="36" cy="80" r="3"/>
		</g>
		<g>
			<polygon style="fill:#FFFFFF;" points="40,65.991 44.991,61 40,61 			"/>
		</g>
		<path style="fill:#40C9E7;" d="M56,61V50h-8.434c-0.736,0-1.412,0.404-1.761,1.052l-5.566,9c-0.159,0.296-0.234,0.623-0.234,0.948
			H56z"/>
		<path style="fill:#6FDAF1;" d="M44.991,61l11-11h-8.425c-0.736,0-1.412,0.404-1.761,1.052l-5.566,9
			c-0.16,0.296-0.234,0.623-0.234,0.948H44.991z"/>
		<path style="fill:#40C9E7;" d="M76.995,61c0-0.364-0.094-0.728-0.292-1.048l-5.912-9C70.427,50.36,69.783,50,69.088,50H60v11
			H76.995z"/>
	</g>
</g>
</svg>
