<?xml version="1.0" encoding="iso-8859-1"?>
<!-- Generator: Adobe Illustrator 17.1.0, SVG Export Plug-In . SVG Version: 6.00 Build 0)  -->
<!DOCTYPE svg PUBLIC "-//W3C//DTD SVG 1.0//EN" "http://www.w3.org/TR/2001/REC-SVG-20010904/DTD/svg10.dtd">
<svg version="1.0" xmlns="http://www.w3.org/2000/svg" xmlns:xlink="http://www.w3.org/1999/xlink" x="0px" y="0px" width="110px"
	 height="110px" viewBox="0 0 110 110" style="enable-background:new 0 0 110 110;" xml:space="preserve">
<g id="Artboard">
</g>
<g id="Multicolor">
	<g>
		<circle style="fill:#25B7D3;" cx="55" cy="55" r="55"/>
	</g>
	<g>
		<path style="fill:#0484AB;" d="M83,75.997c-0.615-1.333-1.698-2.394-3.043-2.983L65,68.997H55H45l-14.957,4.017
			c-1.345,0.589-2.428,1.65-3.043,2.983L23,87h32h32L83,75.997z"/>
		<path style="fill:#FBC8C8;" d="M70,45c-1,0-1,1.111-1,1.111V45c-0.006-3.106-0.131-5.854-0.824-8.122L55,36l-13.176,0.878
			C41.131,39.146,41.006,41.894,41,45v7.997l4,10l5.105,3.996c0.569,0.639,1.384,1.004,2.24,1.004H55h2.655
			c0.856,0,1.671-0.365,2.24-1.004L65,62.997l3.207-8.017C71.042,54.776,72,50.476,72,47.222C72,46.111,71,45,70,45z"/>
		<path style="fill:#FBD7D7;" d="M41,45v1.111c0,0,0-1.111-1-1.111s-2,1.111-2,2.222c0,3.253,0.958,7.554,3.793,7.758L45,62.997
			l5.105,3.996c0.569,0.639,1.384,1.004,2.24,1.004H55V36l-13.176,0.878C41.131,39.146,41.006,41.894,41,45z"/>
		<path style="fill:#F7B4B4;" d="M57.655,67.997H55h-2.655c-0.856,0-1.671-0.365-2.24-1.004L45,62.997v4.5c0,0,0,7.5,10,7.5
			s10-7.5,10-7.5v-4.5l-5.105,3.996C59.326,67.632,58.511,67.997,57.655,67.997z"/>
		<path style="fill:#FBC8C8;" d="M50.105,66.993L45,62.997v4.5c0,0,0,7.5,10,7.5v-7h-2.655
			C51.489,67.997,50.674,67.632,50.105,66.993z"/>
		<g>
			<path style="fill:#3E3E3F;" d="M52,46.997c0-1.104-0.896-2-2-2c-0.002,0-0.004,0-0.006,0C49.995,45.019,50,45.039,50,45.06
				c0,1.103-0.892,1.996-1.994,2c0.033,1.075,0.91,1.938,1.994,1.938C51.104,48.997,52,48.102,52,46.997z"/>
		</g>
		<g>
			<path style="fill:#3E3E3F;" d="M61.994,46.997c0-1.104-0.896-2-2-2c-0.002,0-0.004,0-0.006,0
				c0.001,0.021,0.006,0.041,0.006,0.062c0,1.103-0.892,1.996-1.994,2c0.033,1.075,0.91,1.938,1.994,1.938
				C61.098,48.997,61.994,48.102,61.994,46.997z"/>
		</g>
		<g>
			<polygon style="fill:#3E3E3F;" points="59,86.997 56,78.997 58,75.999 54.981,72.975 51.983,75.973 54,78.997 51,86.997 			"/>
		</g>
		<g>
			<polygon style="fill:#5B5C5F;" points="55,86.997 55,72.994 54.981,72.975 51.983,75.973 54,78.997 51,86.997 			"/>
		</g>
		<g>
			<polygon style="fill:#6FDAF1;" points="67,68.997 65,66.997 55,72.997 62,79.997 			"/>
		</g>
		<g>
			<polygon style="fill:#6FDAF1;" points="43,69.997 45,66.997 55,72.997 48,79.997 			"/>
		</g>
		<path style="fill:#F3B607;" d="M66,76v2h1c0,0,0,1,0,3s3,3,3,3s3-1,3-3s0-3,0-3h1v-2H66z"/>
		<g>
			<polygon style="fill:#0484AB;" points="71,28 55,23 39,28 35,32 40,37 55,36 70,37 75,32 			"/>
		</g>
		<polygon style="fill:#059BBF;" points="39,28 35,32 40,37 55,36 55,23 		"/>
		<g>
			<path style="fill:#F3B607;" d="M55,34c-12,0-15,3-15,3s0,1,0,3c3-3,15-3,15-3s12,0,15,3c0-2,0-3,0-3S67,34,55,34z"/>
		</g>
		<g>
			<polygon style="fill:#FACB1B;" points="55,26 52,27 52,31 55,33 			"/>
		</g>
		<g>
			<polygon style="fill:#F3B607;" points="55,26 58,27 58,31 55,33 			"/>
		</g>
		<path style="fill:#84462D;" d="M67,42.872c0,3.289,0,6.536,0,8.165l-4,10.031h-1l-1.316-3.949
			c-0.408-1.225-1.555-2.051-2.846-2.051H55h-2.838c-1.291,0-2.438,0.826-2.846,2.051L48,61.067h-1l-3-6v-0.031l-1-3.333
			c0-1.219,0-4.998,0-8.831c-1.274-0.69-2.344-1.619-3-2.872c0,1.382,0,2.553,0,3c0,0,0.726,5.067,1.558,7.809l0.235,4.172L45,63
			l5.105,3.995C50.674,67.634,51.489,68,52.345,68H55h2.655c0.856,0,1.671-0.366,2.24-1.005L65,63l3.207-8.02l0.193-4.029
			C69.25,48.246,70,43,70,43c0-0.447,0-1.618,0-3C69.344,41.252,68.274,42.181,67,42.872z"/>
		<path style="fill:#9C6144;" d="M52.162,55.067c-1.291,0-2.438,0.826-2.846,2.051L48,61.067h-1l-3-6v-0.031l-1-3.333
			c0-1.219,0-4.998,0-8.831c-1.274-0.69-2.344-1.619-3-2.872c0,1.382,0,2.553,0,3c0,0,0.726,5.067,1.558,7.809l0.235,4.172L45,63
			l5.105,3.995C50.674,67.634,51.489,68,52.345,68H55V55.067H52.162z"/>
		<g>
			<path style="fill:#3E3E3F;" d="M55,37c0,0-13,0-15,3c2.997,5.722,14.628,4.697,15,4.969c0.372-0.271,12.003,0.753,15-4.969
				C68,37,55,37,55,37z"/>
		</g>
		<g>
			<path style="fill:#5B5C5F;" d="M40,40c2.997,5.722,14.628,4.697,15,4.969V37C55,37,42,37,40,40z"/>
		</g>
		<path style="fill:#FACB1B;" d="M40,37c0,0,0,1,0,3c3-3,15-3,15-3v-3C43,34,40,37,40,37z"/>
		<g>
			<path style="fill:#FBC8C8;" d="M51,57h8.316c0,0,0,3-4.158,3S51,57,51,57z"/>
		</g>
	</g>
</g>
</svg>
