<?xml version="1.0" encoding="iso-8859-1"?>
<!-- Generator: Adobe Illustrator 17.1.0, SVG Export Plug-In . SVG Version: 6.00 Build 0)  -->
<!DOCTYPE svg PUBLIC "-//W3C//DTD SVG 1.0//EN" "http://www.w3.org/TR/2001/REC-SVG-20010904/DTD/svg10.dtd">
<svg version="1.0" xmlns="http://www.w3.org/2000/svg" xmlns:xlink="http://www.w3.org/1999/xlink" x="0px" y="0px" width="110px"
	 height="110px" viewBox="0 0 110 110" style="enable-background:new 0 0 110 110;" xml:space="preserve">
<g id="Artboard">
</g>
<g id="Multicolor">
	<g>
		<circle style="fill:#FABC3D;" cx="55" cy="55" r="55"/>
	</g>
	<g>
		<path style="fill:#BF8662;" d="M70,45c-1,0-1,1.111-1,1.111V45c-0.004-2.193-0.069-4.207-0.35-6H41.35
			c-0.28,1.793-0.345,3.807-0.35,6v7.997l4,10l5.105,3.996c0.569,0.639,1.384,1.004,2.24,1.004H55h2.655
			c0.856,0,1.671-0.365,2.24-1.004L65,62.997l3.207-8.017C71.042,54.776,72,50.476,72,47.222C72,46.111,71,45,70,45z"/>
		<path style="fill:#CC9978;" d="M41.35,39c-0.28,1.793-0.345,3.807-0.35,6v1.111c0,0,0-1.111-1-1.111s-2,1.111-2,2.222
			c0,3.253,0.958,7.554,3.793,7.758L45,62.997l5.105,3.996c0.569,0.639,1.384,1.004,2.24,1.004H55V39H41.35z"/>
		<path style="fill:#FFFFFF;" d="M83,75.997c-0.615-1.333-1.698-2.394-3.043-2.983L65,68.997H55H45l-14.957,4.017
			c-1.345,0.589-2.428,1.65-3.043,2.983L23,87h32h32L83,75.997z"/>
		<path style="fill:#9C6144;" d="M57.655,67.997H55h-2.655c-0.856,0-1.671-0.365-2.24-1.004L45,62.997v4.5c0,0,0,7.5,10,7.5
			s10-7.5,10-7.5v-4.5l-5.105,3.996C59.326,67.632,58.511,67.997,57.655,67.997z"/>
		<path style="fill:#BF8662;" d="M50.105,66.993L45,62.997v4.5c0,0,0,7.5,10,7.5v-7h-2.655
			C51.489,67.997,50.674,67.632,50.105,66.993z"/>
		<g>
			<path style="fill:#3E3E3F;" d="M52,46.997c0-1.104-0.896-2-2-2c-0.002,0-0.004,0-0.006,0C49.995,45.019,50,45.039,50,45.06
				c0,1.103-0.892,1.996-1.994,2c0.033,1.075,0.91,1.938,1.994,1.938C51.104,48.997,52,48.102,52,46.997z"/>
		</g>
		<g>
			<path style="fill:#3E3E3F;" d="M61.994,46.997c0-1.104-0.896-2-2-2c-0.002,0-0.004,0-0.006,0
				c0.001,0.021,0.006,0.041,0.006,0.062c0,1.103-0.892,1.996-1.994,2c0.033,1.075,0.91,1.938,1.994,1.938
				C61.098,48.997,61.994,48.102,61.994,46.997z"/>
		</g>
		<g>
			<path style="fill:#84462D;" d="M50,56.997h10c0,0,0,3-5,3S50,56.997,50,56.997z"/>
		</g>
		<g>
			<polygon style="fill:#3E3E3F;" points="59,86.997 56,78.997 58,75.999 54.981,72.975 51.983,75.973 54,78.997 51,86.997 			"/>
		</g>
		<g>
			<polygon style="fill:#5B5C5F;" points="55,86.997 55,72.994 54.981,72.975 51.983,75.973 54,78.997 51,86.997 			"/>
		</g>
		<g>
			<polygon style="fill:#E2E4E5;" points="67,68.997 65,66.997 55,72.997 62,79.997 			"/>
		</g>
		<g>
			<polygon style="fill:#E2E4E5;" points="43,69.997 45,66.997 55,72.997 48,79.997 			"/>
		</g>
		<path style="fill:#F3B607;" d="M66,76v2h1c0,0,0,1,0,3s3,3,3,3s3-1,3-3s0-3,0-3h1v-2H66z"/>
		<g>
			<polygon style="fill:#FFFFFF;" points="71,28 55,23 39,28 35,32 40,37 55,36 70,37 75,32 			"/>
		</g>
		<g>
			<path style="fill:#F3B607;" d="M55,34c-12,0-15,3-15,3s0,1,0,3c3-3,15-3,15-3s12,0,15,3c0-2,0-3,0-3S67,34,55,34z"/>
		</g>
		<g>
			<polygon style="fill:#FACB1B;" points="55,26 52,27 52,31 55,33 			"/>
		</g>
		<g>
			<polygon style="fill:#F3B607;" points="55,26 58,27 58,31 55,33 			"/>
		</g>
		<path style="fill:#84462D;" d="M40.871,41.233C40.789,42.728,40.832,44.317,41,46l1,1c0-1.788,0.041-3.33,0.121-4.673
			C41.659,42.005,41.239,41.642,40.871,41.233z"/>
		<path style="fill:#84462D;" d="M67.879,42.327C67.959,43.67,68,45.212,68,47l1-1c0.168-1.683,0.211-3.272,0.129-4.767
			C68.761,41.642,68.341,42.005,67.879,42.327z"/>
		<g>
			<path style="fill:#3E3E3F;" d="M55,37c0,0-13,0-15,3c2.997,5.722,14.628,4.697,15,4.969c0.372-0.271,12.003,0.753,15-4.969
				C68,37,55,37,55,37z"/>
		</g>
		<g>
			<path style="fill:#5B5C5F;" d="M40,40c2.997,5.722,14.628,4.697,15,4.969V37C55,37,42,37,40,40z"/>
		</g>
		<path style="fill:#FACB1B;" d="M40,37c0,0,0,1,0,3c3-3,15-3,15-3v-3C43,34,40,37,40,37z"/>
	</g>
</g>
</svg>
