<?xml version="1.0" encoding="iso-8859-1"?>
<!-- Generator: Adobe Illustrator 17.1.0, SVG Export Plug-In . SVG Version: 6.00 Build 0)  -->
<!DOCTYPE svg PUBLIC "-//W3C//DTD SVG 1.0//EN" "http://www.w3.org/TR/2001/REC-SVG-20010904/DTD/svg10.dtd">
<svg version="1.0" xmlns="http://www.w3.org/2000/svg" xmlns:xlink="http://www.w3.org/1999/xlink" x="0px" y="0px" width="110px"
	 height="110px" viewBox="0 0 110 110" style="enable-background:new 0 0 110 110;" xml:space="preserve">
<g id="Artboard">
</g>
<g id="Multicolor">
	<circle style="fill:#FABC3D;" cx="55" cy="55" r="55"/>
	<g>
		<g>
			<path style="fill:#FFFFFF;" d="M75,25c-4.411,0-8,3.589-8,8v8H51v-8c0-2.206,1.794-4,4-4s4,1.794,4,4v3c0,0.552,0.448,1,1,1h2
				c0.552,0,1-0.448,1-1v-3c0-4.411-3.589-8-8-8s-8,3.589-8,8v30h4v-4h16v4h4V33c0-2.206,1.794-4,4-4s4,1.794,4,4v3
				c0,0.552,0.448,1,1,1h2c0.552,0,1-0.448,1-1v-3C83,28.589,79.411,25,75,25z M67,53H51v-6h16V53z"/>
		</g>
		<g>
			<path style="fill:#C9F2F8;" d="M87,70V59.409c0-0.143-0.061-0.28-0.168-0.375c-0.107-0.095-0.25-0.14-0.392-0.122
				c-4.262,0.521-8.466-1.273-11.051-4.724C75.299,54.07,75.16,54,75.013,54h-0.01c-0.157,0-0.306,0.074-0.4,0.2
				C72.412,57.116,68.931,59,65,59c-3.936,0-7.422-1.889-9.612-4.812C55.299,54.07,55.16,54,55.013,54h-0.01
				c-0.157,0-0.306,0.074-0.4,0.2C52.412,57.116,48.931,59,45,59c-3.936,0-7.422-1.889-9.612-4.812C35.299,54.07,35.16,54,35.013,54
				h-0.01c-0.157,0-0.306,0.074-0.4,0.2c-2.591,3.449-6.792,5.231-11.042,4.712c-0.142-0.017-0.285,0.028-0.392,0.123
				C23.061,59.129,23,59.265,23,59.409V70H87z"/>
		</g>
		<g>
			<path style="fill:#9CE5F4;" d="M87,78V67.409c0-0.143-0.061-0.28-0.168-0.375c-0.107-0.095-0.25-0.14-0.392-0.122
				c-4.262,0.521-8.466-1.273-11.051-4.724C75.299,62.07,75.16,62,75.013,62h-0.01c-0.157,0-0.306,0.074-0.4,0.2
				C72.412,65.116,68.931,67,65,67c-3.936,0-7.422-1.889-9.612-4.812C55.299,62.07,55.16,62,55.013,62h-0.01
				c-0.157,0-0.306,0.074-0.4,0.2C52.412,65.116,48.931,67,45,67c-3.936,0-7.422-1.889-9.612-4.812C35.299,62.07,35.16,62,35.013,62
				h-0.01c-0.157,0-0.306,0.074-0.4,0.2c-2.591,3.449-6.792,5.231-11.042,4.712c-0.142-0.017-0.285,0.028-0.392,0.123
				C23.061,67.129,23,67.265,23,67.409V78H87z"/>
		</g>
		<g>
			<path style="fill:#6FDAF1;" d="M87,87V76.409c0-0.143-0.061-0.28-0.168-0.375c-0.107-0.095-0.25-0.14-0.392-0.122
				c-4.262,0.521-8.466-1.273-11.051-4.724C75.299,71.07,75.16,71,75.013,71h-0.01c-0.157,0-0.306,0.074-0.4,0.2
				C72.412,74.116,68.931,76,65,76c-3.936,0-7.422-1.889-9.612-4.812C55.299,71.07,55.16,71,55.013,71h-0.01
				c-0.157,0-0.306,0.074-0.4,0.2C52.412,74.116,48.931,76,45,76c-3.936,0-7.422-1.889-9.612-4.812C35.299,71.07,35.16,71,35.013,71
				h-0.01c-0.157,0-0.306,0.074-0.4,0.2c-2.591,3.449-6.792,5.231-11.042,4.712c-0.142-0.017-0.285,0.028-0.392,0.123
				C23.061,76.129,23,76.265,23,76.409V87H87z"/>
		</g>
	</g>
</g>
</svg>
