<?xml version="1.0" encoding="iso-8859-1"?>
<!-- Generator: Adobe Illustrator 17.1.0, SVG Export Plug-In . SVG Version: 6.00 Build 0)  -->
<!DOCTYPE svg PUBLIC "-//W3C//DTD SVG 1.0//EN" "http://www.w3.org/TR/2001/REC-SVG-20010904/DTD/svg10.dtd">
<svg version="1.0" xmlns="http://www.w3.org/2000/svg" xmlns:xlink="http://www.w3.org/1999/xlink" x="0px" y="0px" width="110px"
	 height="110px" viewBox="0 0 110 110" style="enable-background:new 0 0 110 110;" xml:space="preserve">
<g id="Artboard">
</g>
<g id="Multicolor">
	<circle style="fill:#25B7D3;" cx="55" cy="55" r="55"/>
	<g>
		<g>
			<path style="fill:#84462D;" d="M31,65c0,4.418,3.582,8,8,8h32c4.418,0,8-3.582,8-8s-3.582-8-8-8H39C34.582,57,31,60.582,31,65z"
				/>
		</g>
		<g>
			<path style="fill:#AF7653;" d="M44,57c0,0,0-10,12-16c0,9,12,8,12,16C62,57,44,57,44,57z"/>
		</g>
		<g>
			<path style="fill:#E2E4E5;" d="M67.2,32c0,0,1.65,1.1,1.65,3.3S67.2,40.8,68.3,43c-1.65,0-3.3-2.2-3.3-4.4
				C65,36.4,67.2,34.75,67.2,32z"/>
		</g>
		<g>
			<path style="fill:#E2E4E5;" d="M39.35,32c0,0,1.65,1.1,1.65,3.3s-1.65,5.5-0.55,7.7c-1.65,0-3.3-2.2-3.3-4.4
				C37.15,36.4,39.35,34.75,39.35,32z"/>
		</g>
		<g>
			<path style="fill:#E2E4E5;" d="M54.35,24c0,0,1.65,1.1,1.65,3.3s-1.65,5.5-0.55,7.7c-1.65,0-3.3-2.2-3.3-4.4
				S54.35,26.75,54.35,24z"/>
		</g>
		<g>
			<path style="fill:#692E19;" d="M44,57c0,0,0-10,12-16c0,9,12,8,12,16C62,57,44,57,44,57z"/>
		</g>
		<g>
			<path style="fill:#9C6144;" d="M56,57H39c-4.418,0-8,3.582-8,8s3.582,8,8,8h17V57z"/>
		</g>
		<g>
			<path style="fill:#692E19;" d="M23,79c0,4.418,3.582,8,8,8h48c4.418,0,8-3.582,8-8s-3.582-8-8-8H31C26.582,71,23,74.582,23,79z"
				/>
		</g>
		<g>
			<path style="fill:#84462D;" d="M56,71H31c-4.418,0-8,3.582-8,8s3.582,8,8,8h25V71z"/>
		</g>
	</g>
</g>
</svg>
