<?xml version="1.0" encoding="iso-8859-1"?>
<!-- Generator: Adobe Illustrator 17.1.0, SVG Export Plug-In . SVG Version: 6.00 Build 0)  -->
<!DOCTYPE svg PUBLIC "-//W3C//DTD SVG 1.0//EN" "http://www.w3.org/TR/2001/REC-SVG-20010904/DTD/svg10.dtd">
<svg version="1.0" xmlns="http://www.w3.org/2000/svg" xmlns:xlink="http://www.w3.org/1999/xlink" x="0px" y="0px" width="110px"
	 height="110px" viewBox="0 0 110 110" style="enable-background:new 0 0 110 110;" xml:space="preserve">
<g id="Artboard" style="display:none;">
	
		<rect x="-840.5" y="-418.5" style="display:inline;fill:#808080;stroke:#000000;stroke-miterlimit:10;" width="1392" height="1369"/>
</g>
<g id="R-Multicolor">
	<circle style="fill:#25B7D3;" cx="55" cy="55" r="55"/>
	<g>
		<g>
			<path style="fill:#DF2C2C;" d="M86,47l-0.57,2.55l-7.9,35.11C77.22,86.03,76,87,74.6,87H35.4c-1.4,0-2.62-0.97-2.93-2.34
				l-7.9-35.11L24,47c0-3.31,2.69-6,6-6s6,2.69,6,6c0-3.31,2.69-6,6-6s6,2.69,6,6c0-3.87,3.13-7,7-7s7,3.13,7,7c0-3.31,2.69-6,6-6
				s6,2.69,6,6c0-3.31,2.69-6,6-6S86,43.69,86,47z"/>
		</g>
		<g>
			<path style="fill:#FACB1B;" d="M30,41c3.31,0,6,2.69,6,6c0-3.31,2.69-6,6-6s6,2.69,6,6c0-3.87,3.13-7,7-7s7,3.13,7,7
				c0-3.31,2.69-6,6-6s6,2.69,6,6c0-3.31,2.69-6,6-6c2.018,0,3.802,1.003,4.89,2.534c0.754-4.352-2.602-8.201-6.89-8.201
				c-1.235,0-2.394,0.323-3.401,0.884C73.574,28.733,68.068,23,61.435,23C56,23,51.318,26.833,49.251,32.337
				c-1.273-1.041-2.793-1.492-4.217-1.095c-1.506,0.424-2.615,1.698-3.121,3.368c-1.355-0.767-2.971-0.903-4.353-0.205
				c-1.438,0.712-2.3,2.163-2.451,3.806c-3.682-0.631-7.404,0.79-8.956,4.19C27.195,41.527,28.536,41,30,41z"/>
		</g>
		<g>
			<path style="fill:#FFFFFF;" d="M48,47c0-3.314-2.686-6-6-6s-6,2.686-6,6l0.265,1.764L42,87h8L48,47z"/>
		</g>
		<g>
			<path style="fill:#FFFFFF;" d="M62,47c0-3.314,2.686-6,6-6s6,2.686,6,6l-0.265,1.764L68,87h-8L62,47z"/>
		</g>
		<g>
			<path style="fill:#FBE158;" d="M61.436,23C56,23,51.318,26.833,49.251,32.337c-1.273-1.041-2.793-1.492-4.217-1.095
				c-1.506,0.424-2.615,1.698-3.122,3.368c-1.355-0.767-2.971-0.903-4.353-0.205c-1.438,0.712-2.3,2.163-2.451,3.806
				c-3.691-0.632-7.407,0.797-8.956,4.19C27.195,41.527,28.536,41,30,41c3.31,0,6,2.69,6,6c0-3.31,2.69-6,6-6
				c2.47,0,4.593,1.499,5.512,3.633L67.445,24.7C65.638,23.619,63.599,23,61.436,23z"/>
		</g>
	</g>
</g>
<g id="Multicolor" style="display:none;">
	<g style="display:inline;">
		<g>
			<path style="fill:#DF2C2C;" d="M86,47l-0.57,2.55l-7.9,35.11C77.22,86.03,76,87,74.6,87H35.4c-1.4,0-2.62-0.97-2.93-2.34
				l-7.9-35.11L24,47c0-3.31,2.69-6,6-6s6,2.69,6,6c0-3.31,2.69-6,6-6s6,2.69,6,6c0-3.87,3.13-7,7-7s7,3.13,7,7c0-3.31,2.69-6,6-6
				s6,2.69,6,6c0-3.31,2.69-6,6-6S86,43.69,86,47z"/>
		</g>
		<g>
			<path style="fill:#FACB1B;" d="M30,41c3.31,0,6,2.69,6,6c0-3.31,2.69-6,6-6s6,2.69,6,6c0-3.87,3.13-7,7-7s7,3.13,7,7
				c0-3.31,2.69-6,6-6s6,2.69,6,6c0-3.31,2.69-6,6-6c2.018,0,3.802,1.003,4.89,2.534c0.754-4.352-2.602-8.201-6.89-8.201
				c-1.235,0-2.394,0.323-3.401,0.884C73.574,28.733,68.068,23,61.435,23C56,23,51.318,26.833,49.251,32.337
				c-1.273-1.041-2.793-1.492-4.217-1.095c-1.506,0.424-2.615,1.698-3.121,3.368c-1.355-0.767-2.971-0.903-4.353-0.205
				c-1.438,0.712-2.3,2.163-2.451,3.806c-3.682-0.631-7.404,0.79-8.956,4.19C27.195,41.527,28.536,41,30,41z"/>
		</g>
		<g>
			<path style="fill:#FFFFFF;" d="M48,47c0-3.314-2.686-6-6-6s-6,2.686-6,6l0.265,1.764L42,87h8L48,47z"/>
		</g>
		<g>
			<path style="fill:#FFFFFF;" d="M62,47c0-3.314,2.686-6,6-6s6,2.686,6,6l-0.265,1.764L68,87h-8L62,47z"/>
		</g>
		<g>
			<path style="fill:#FBE158;" d="M61.436,23C56,23,51.318,26.833,49.251,32.337c-1.273-1.041-2.793-1.492-4.217-1.095
				c-1.506,0.424-2.615,1.698-3.122,3.368c-1.355-0.767-2.971-0.903-4.353-0.205c-1.438,0.712-2.3,2.163-2.451,3.806
				c-3.691-0.632-7.407,0.797-8.956,4.19C27.195,41.527,28.536,41,30,41c3.31,0,6,2.69,6,6c0-3.31,2.69-6,6-6
				c2.47,0,4.593,1.499,5.512,3.633L67.445,24.7C65.638,23.619,63.599,23,61.436,23z"/>
		</g>
	</g>
</g>
<g id="Blue" style="display:none;">
	<g style="display:inline;">
		<g>
			<path style="fill:#0081A1;" d="M86,47l-0.57,2.55L77.53,84.66C77.22,86.03,76,87,74.6,87H35.4c-1.4,0-2.62-0.97-2.931-2.34
				L24.57,49.55L24,47c0-3.31,2.69-6,6-6s6,2.69,6,6c0-3.31,2.689-6,6-6s6,2.69,6,6c0-3.87,3.13-7,7-7s7,3.13,7,7
				c0-3.31,2.689-6,6-6s6,2.69,6,6c0-3.31,2.689-6,6-6S86,43.69,86,47z"/>
		</g>
		<g>
			<path style="fill:#BBE7F2;" d="M30,41c3.311,0,6,2.69,6,6c0-3.31,2.689-6,6-6s6,2.69,6,6c0-3.87,3.13-7,7-7s7,3.13,7,7
				c0-3.31,2.689-6,6-6s6,2.69,6,6c0-3.31,2.689-6,6-6c2.019,0,3.802,1.003,4.89,2.534c0.754-4.352-2.602-8.202-6.89-8.202
				c-1.235,0-2.394,0.323-3.401,0.884C73.574,28.733,68.068,23,61.436,23C56,23,51.318,26.833,49.251,32.337
				c-1.273-1.04-2.792-1.492-4.216-1.095c-1.506,0.424-2.615,1.698-3.122,3.368c-1.355-0.767-2.971-0.903-4.354-0.205
				c-1.438,0.711-2.3,2.163-2.45,3.806c-3.682-0.631-7.404,0.79-8.957,4.19C27.195,41.527,28.536,41,30,41z"/>
		</g>
		<g>
			<path style="fill:#FFFFFF;" d="M48,47c0-3.313-2.687-6-6-6s-6,2.687-6,6l0.265,1.764L42,87h8L48,47z"/>
		</g>
		<g>
			<path style="fill:#FFFFFF;" d="M62,47c0-3.313,2.687-6,6-6s6,2.687,6,6l-0.265,1.764L68,87h-8L62,47z"/>
		</g>
		<g>
			<path style="fill:#E1F5FA;" d="M61.436,23C56,23,51.318,26.833,49.251,32.337c-1.273-1.04-2.792-1.492-4.216-1.095
				c-1.506,0.424-2.615,1.698-3.122,3.368c-1.355-0.767-2.971-0.903-4.354-0.205c-1.438,0.712-2.3,2.163-2.45,3.806
				c-3.691-0.632-7.407,0.797-8.957,4.19C27.195,41.527,28.536,41,30,41c3.311,0,6,2.69,6,6c0-3.31,2.689-6,6-6
				c2.47,0,4.593,1.499,5.512,3.633L67.445,24.7C65.639,23.619,63.6,23,61.436,23z"/>
		</g>
	</g>
</g>
<g id="R-Blue" style="display:none;">
	<circle style="display:inline;fill:#81D2EB;" cx="55" cy="55" r="55"/>
	<g style="display:inline;">
		<g>
			<path style="fill:#0081A1;" d="M86,47l-0.57,2.55L77.53,84.66C77.22,86.03,76,87,74.6,87H35.4c-1.4,0-2.62-0.97-2.931-2.34
				L24.57,49.55L24,47c0-3.31,2.69-6,6-6s6,2.69,6,6c0-3.31,2.689-6,6-6s6,2.69,6,6c0-3.87,3.13-7,7-7s7,3.13,7,7
				c0-3.31,2.689-6,6-6s6,2.69,6,6c0-3.31,2.689-6,6-6S86,43.69,86,47z"/>
		</g>
		<g>
			<path style="fill:#BBE7F2;" d="M30,41c3.311,0,6,2.69,6,6c0-3.31,2.689-6,6-6s6,2.69,6,6c0-3.87,3.13-7,7-7s7,3.13,7,7
				c0-3.31,2.689-6,6-6s6,2.69,6,6c0-3.31,2.689-6,6-6c2.019,0,3.802,1.003,4.89,2.534c0.754-4.352-2.602-8.202-6.89-8.202
				c-1.235,0-2.394,0.323-3.401,0.884C73.574,28.733,68.068,23,61.436,23C56,23,51.318,26.833,49.251,32.337
				c-1.273-1.04-2.792-1.492-4.216-1.095c-1.506,0.424-2.615,1.698-3.122,3.368c-1.355-0.767-2.971-0.903-4.354-0.205
				c-1.438,0.711-2.3,2.163-2.45,3.806c-3.682-0.631-7.404,0.79-8.957,4.19C27.195,41.527,28.536,41,30,41z"/>
		</g>
		<g>
			<path style="fill:#FFFFFF;" d="M48,47c0-3.313-2.687-6-6-6s-6,2.687-6,6l0.265,1.764L42,87h8L48,47z"/>
		</g>
		<g>
			<path style="fill:#FFFFFF;" d="M62,47c0-3.313,2.687-6,6-6s6,2.687,6,6l-0.265,1.764L68,87h-8L62,47z"/>
		</g>
		<g>
			<path style="fill:#E1F5FA;" d="M61.436,23C56,23,51.318,26.833,49.251,32.337c-1.273-1.04-2.792-1.492-4.216-1.095
				c-1.506,0.424-2.615,1.698-3.122,3.368c-1.355-0.767-2.971-0.903-4.354-0.205c-1.438,0.712-2.3,2.163-2.45,3.806
				c-3.691-0.632-7.407,0.797-8.957,4.19C27.195,41.527,28.536,41,30,41c3.311,0,6,2.69,6,6c0-3.31,2.689-6,6-6
				c2.47,0,4.593,1.499,5.512,3.633L67.445,24.7C65.639,23.619,63.6,23,61.436,23z"/>
		</g>
	</g>
</g>
<g id="Green" style="display:none;">
	<g style="display:inline;">
		<g>
			<path style="fill:#009687;" d="M86,47l-0.57,2.55L77.53,84.66C77.22,86.03,76,87,74.6,87H35.4c-1.4,0-2.62-0.97-2.931-2.34
				L24.57,49.55L24,47c0-3.31,2.69-6,6-6s6,2.69,6,6c0-3.31,2.689-6,6-6s6,2.69,6,6c0-3.87,3.13-7,7-7s7,3.13,7,7c0-3.31,2.69-6,6-6
				c3.31,0,6,2.69,6,6c0-3.31,2.689-6,6-6C83.31,41,86,43.69,86,47z"/>
		</g>
		<g>
			<path style="fill:#AAF0E9;" d="M30,41c3.311,0,6,2.69,6,6c0-3.31,2.689-6,6-6s6,2.69,6,6c0-3.87,3.13-7,7-7s7,3.13,7,7
				c0-3.31,2.69-6,6-6c3.31,0,6,2.69,6,6c0-3.31,2.689-6,6-6c2.019,0,3.802,1.003,4.89,2.534c0.754-4.352-2.602-8.202-6.89-8.202
				c-1.235,0-2.394,0.323-3.401,0.884C73.574,28.733,68.068,23,61.435,23C56,23,51.318,26.833,49.251,32.337
				c-1.273-1.04-2.792-1.492-4.216-1.095c-1.506,0.424-2.615,1.698-3.122,3.368c-1.355-0.767-2.971-0.903-4.354-0.205
				c-1.438,0.711-2.3,2.163-2.45,3.806c-3.682-0.631-7.404,0.79-8.957,4.19C27.195,41.527,28.536,41,30,41z"/>
		</g>
		<g>
			<path style="fill:#FFFFFF;" d="M48,47c0-3.313-2.687-6-6-6s-6,2.687-6,6l0.265,1.764L42,87h8L48,47z"/>
		</g>
		<g>
			<path style="fill:#FFFFFF;" d="M62,47c0-3.313,2.687-6,6-6s6,2.687,6,6l-0.265,1.764L68,87h-8L62,47z"/>
		</g>
		<g>
			<path style="fill:#D7FCF9;" d="M61.435,23C56,23,51.318,26.833,49.251,32.337c-1.273-1.04-2.792-1.492-4.216-1.095
				c-1.506,0.424-2.615,1.698-3.122,3.368c-1.355-0.767-2.971-0.903-4.354-0.205c-1.438,0.712-2.3,2.163-2.45,3.806
				c-3.691-0.632-7.407,0.797-8.957,4.19C27.195,41.527,28.536,41,30,41c3.311,0,6,2.69,6,6c0-3.31,2.689-6,6-6
				c2.47,0,4.593,1.499,5.512,3.633L67.445,24.7C65.639,23.619,63.6,23,61.435,23z"/>
		</g>
	</g>
</g>
<g id="R-Green" style="display:none;">
	<circle style="display:inline;fill:#77E0C4;" cx="55" cy="55" r="55"/>
	<g style="display:inline;">
		<g>
			<path style="fill:#009687;" d="M86,47l-0.57,2.55L77.53,84.66C77.22,86.03,76,87,74.6,87H35.4c-1.4,0-2.62-0.97-2.931-2.34
				L24.57,49.55L24,47c0-3.31,2.69-6,6-6s6,2.69,6,6c0-3.31,2.689-6,6-6s6,2.69,6,6c0-3.87,3.13-7,7-7s7,3.13,7,7
				c0-3.31,2.689-6,6-6s6,2.69,6,6c0-3.31,2.689-6,6-6S86,43.69,86,47z"/>
		</g>
		<g>
			<path style="fill:#AAF0E9;" d="M30,41c3.311,0,6,2.69,6,6c0-3.31,2.689-6,6-6s6,2.69,6,6c0-3.87,3.13-7,7-7s7,3.13,7,7
				c0-3.31,2.689-6,6-6s6,2.69,6,6c0-3.31,2.689-6,6-6c2.019,0,3.802,1.003,4.89,2.534c0.754-4.352-2.602-8.202-6.89-8.202
				c-1.235,0-2.394,0.323-3.401,0.884C73.574,28.733,68.068,23,61.436,23C56,23,51.318,26.833,49.251,32.337
				c-1.273-1.04-2.792-1.492-4.216-1.095c-1.506,0.424-2.615,1.698-3.122,3.368c-1.356-0.767-2.971-0.903-4.354-0.205
				c-1.438,0.711-2.3,2.163-2.45,3.806c-3.682-0.631-7.404,0.79-8.957,4.19C27.195,41.527,28.536,41,30,41z"/>
		</g>
		<g>
			<path style="fill:#FFFFFF;" d="M48,47c0-3.313-2.687-6-6-6s-6,2.687-6,6l0.265,1.764L42,87h8L48,47z"/>
		</g>
		<g>
			<path style="fill:#FFFFFF;" d="M62,47c0-3.313,2.687-6,6-6s6,2.687,6,6l-0.265,1.764L68,87h-8L62,47z"/>
		</g>
		<g>
			<path style="fill:#D7FCF9;" d="M61.436,23C56,23,51.318,26.833,49.251,32.337c-1.273-1.04-2.792-1.492-4.216-1.095
				c-1.506,0.424-2.615,1.698-3.122,3.368c-1.356-0.767-2.971-0.903-4.354-0.205c-1.438,0.712-2.3,2.163-2.45,3.806
				c-3.691-0.632-7.407,0.797-8.957,4.19C27.195,41.527,28.536,41,30,41c3.311,0,6,2.69,6,6c0-3.31,2.689-6,6-6
				c2.47,0,4.593,1.499,5.512,3.633L67.445,24.7C65.639,23.619,63.6,23,61.436,23z"/>
		</g>
	</g>
</g>
<g id="Red" style="display:none;">
	<g style="display:inline;">
		<g>
			<path style="fill:#C23023;" d="M86,47l-0.57,2.55L77.53,84.66C77.22,86.03,76,87,74.6,87H35.4c-1.4,0-2.62-0.97-2.931-2.34
				L24.57,49.55L24,47c0-3.31,2.689-6,6-6c3.31,0,6,2.69,6,6c0-3.31,2.689-6,6-6c3.31,0,6,2.69,6,6c0-3.87,3.13-7,7-7
				c3.87,0,7,3.13,7,7c0-3.31,2.689-6,6-6c3.31,0,6,2.69,6,6c0-3.31,2.689-6,6-6C83.31,41,86,43.69,86,47z"/>
		</g>
		<g>
			<path style="fill:#FFD7D4;" d="M30,41c3.31,0,6,2.69,6,6c0-3.31,2.689-6,6-6c3.31,0,6,2.69,6,6c0-3.87,3.13-7,7-7
				c3.87,0,7,3.13,7,7c0-3.31,2.689-6,6-6c3.31,0,6,2.69,6,6c0-3.31,2.689-6,6-6c2.019,0,3.802,1.003,4.89,2.534
				c0.754-4.352-2.601-8.202-6.89-8.202c-1.235,0-2.394,0.323-3.401,0.884C73.574,28.733,68.068,23,61.435,23
				C56,23,51.318,26.833,49.251,32.337c-1.273-1.04-2.792-1.492-4.216-1.095c-1.506,0.424-2.615,1.698-3.122,3.368
				c-1.356-0.767-2.971-0.903-4.353-0.205c-1.438,0.711-2.3,2.163-2.45,3.806c-3.682-0.631-7.404,0.79-8.957,4.19
				C27.195,41.527,28.536,41,30,41z"/>
		</g>
		<g>
			<path style="fill:#FFFFFF;" d="M48,47c0-3.313-2.687-6-6-6c-3.314,0-6,2.687-6,6l0.265,1.764L42,87h8L48,47z"/>
		</g>
		<g>
			<path style="fill:#FFFFFF;" d="M62,47c0-3.313,2.686-6,6-6c3.313,0,6,2.687,6,6l-0.265,1.764L68,87h-8L62,47z"/>
		</g>
		<g>
			<path style="fill:#FFEFED;" d="M61.435,23C56,23,51.318,26.833,49.251,32.337c-1.273-1.04-2.792-1.492-4.216-1.095
				c-1.506,0.424-2.615,1.698-3.122,3.368c-1.356-0.767-2.971-0.903-4.353-0.205c-1.438,0.712-2.3,2.163-2.45,3.806
				c-3.691-0.632-7.407,0.797-8.957,4.19C27.195,41.527,28.536,41,30,41c3.31,0,6,2.69,6,6c0-3.31,2.689-6,6-6
				c2.47,0,4.593,1.499,5.512,3.633L67.445,24.7C65.639,23.619,63.6,23,61.435,23z"/>
		</g>
	</g>
</g>
<g id="R-Red" style="display:none;">
	<circle style="display:inline;fill:#FABBAF;" cx="55" cy="55" r="55"/>
	<g style="display:inline;">
		<g>
			<path style="fill:#C23023;" d="M86,47l-0.57,2.55L77.53,84.66C77.22,86.03,76,87,74.6,87H35.4c-1.4,0-2.62-0.97-2.931-2.34
				L24.57,49.55L24,47c0-3.31,2.689-6,6-6c3.31,0,6,2.69,6,6c0-3.31,2.689-6,6-6c3.31,0,6,2.69,6,6c0-3.87,3.13-7,7-7
				c3.87,0,7,3.13,7,7c0-3.31,2.689-6,6-6c3.31,0,6,2.69,6,6c0-3.31,2.689-6,6-6C83.31,41,86,43.69,86,47z"/>
		</g>
		<g>
			<path style="fill:#FFD7D4;" d="M30,41c3.31,0,6,2.69,6,6c0-3.31,2.689-6,6-6c3.31,0,6,2.69,6,6c0-3.87,3.13-7,7-7
				c3.87,0,7,3.13,7,7c0-3.31,2.689-6,6-6c3.31,0,6,2.69,6,6c0-3.31,2.689-6,6-6c2.019,0,3.802,1.003,4.89,2.534
				c0.754-4.352-2.601-8.202-6.89-8.202c-1.235,0-2.394,0.323-3.401,0.884C73.574,28.733,68.068,23,61.435,23
				C56,23,51.318,26.833,49.251,32.337c-1.273-1.04-2.792-1.492-4.216-1.095c-1.506,0.424-2.615,1.698-3.122,3.368
				c-1.356-0.767-2.971-0.903-4.353-0.205c-1.438,0.711-2.3,2.163-2.45,3.806c-3.682-0.631-7.404,0.79-8.957,4.19
				C27.195,41.527,28.536,41,30,41z"/>
		</g>
		<g>
			<path style="fill:#FFFFFF;" d="M48,47c0-3.313-2.687-6-6-6c-3.314,0-6,2.687-6,6l0.265,1.764L42,87h8L48,47z"/>
		</g>
		<g>
			<path style="fill:#FFFFFF;" d="M62,47c0-3.313,2.686-6,6-6c3.313,0,6,2.687,6,6l-0.265,1.764L68,87h-8L62,47z"/>
		</g>
		<g>
			<path style="fill:#FFEFED;" d="M61.435,23C56,23,51.318,26.833,49.251,32.337c-1.273-1.04-2.792-1.492-4.216-1.095
				c-1.506,0.424-2.615,1.698-3.122,3.368c-1.356-0.767-2.971-0.903-4.353-0.205c-1.438,0.712-2.3,2.163-2.45,3.806
				c-3.691-0.632-7.407,0.797-8.957,4.19C27.195,41.527,28.536,41,30,41c3.31,0,6,2.69,6,6c0-3.31,2.689-6,6-6
				c2.47,0,4.593,1.499,5.512,3.633L67.445,24.7C65.639,23.619,63.6,23,61.435,23z"/>
		</g>
	</g>
</g>
<g id="Yellow" style="display:none;">
	<g style="display:inline;">
		<g>
			<path style="fill:#E07000;" d="M86,47l-0.57,2.55L77.53,84.66C77.22,86.03,76,87,74.6,87H35.4c-1.4,0-2.62-0.97-2.931-2.34
				L24.57,49.55L24,47c0-3.31,2.69-6,6-6s6,2.69,6,6c0-3.31,2.689-6,6-6s6,2.69,6,6c0-3.87,3.13-7,7-7s7,3.13,7,7
				c0-3.31,2.689-6,6-6s6,2.69,6,6c0-3.31,2.689-6,6-6S86,43.69,86,47z"/>
		</g>
		<g>
			<path style="fill:#FFE9A1;" d="M30,41c3.311,0,6,2.69,6,6c0-3.31,2.689-6,6-6s6,2.69,6,6c0-3.87,3.13-7,7-7s7,3.13,7,7
				c0-3.31,2.689-6,6-6s6,2.69,6,6c0-3.31,2.689-6,6-6c2.019,0,3.802,1.003,4.89,2.534c0.754-4.352-2.602-8.202-6.89-8.202
				c-1.235,0-2.394,0.323-3.401,0.884C73.574,28.733,68.068,23,61.436,23C56,23,51.318,26.833,49.251,32.337
				c-1.273-1.04-2.792-1.492-4.216-1.095c-1.506,0.424-2.615,1.698-3.122,3.368c-1.356-0.767-2.971-0.903-4.354-0.205
				c-1.438,0.711-2.3,2.163-2.45,3.806c-3.682-0.631-7.404,0.79-8.957,4.19C27.195,41.527,28.536,41,30,41z"/>
		</g>
		<g>
			<path style="fill:#FFFFFF;" d="M48,47c0-3.313-2.687-6-6-6s-6,2.687-6,6l0.265,1.764L42,87h8L48,47z"/>
		</g>
		<g>
			<path style="fill:#FFFFFF;" d="M62,47c0-3.313,2.687-6,6-6s6,2.687,6,6l-0.265,1.764L68,87h-8L62,47z"/>
		</g>
		<g>
			<path style="fill:#FFF5D9;" d="M61.436,23C56,23,51.318,26.833,49.251,32.337c-1.273-1.04-2.792-1.492-4.216-1.095
				c-1.506,0.424-2.615,1.698-3.122,3.368c-1.356-0.767-2.971-0.903-4.354-0.205c-1.438,0.712-2.3,2.163-2.45,3.806
				c-3.691-0.632-7.407,0.797-8.957,4.19C27.195,41.527,28.536,41,30,41c3.311,0,6,2.69,6,6c0-3.31,2.689-6,6-6
				c2.47,0,4.593,1.499,5.512,3.633L67.445,24.7C65.639,23.619,63.6,23,61.436,23z"/>
		</g>
	</g>
</g>
<g id="R-Yellow" style="display:none;">
	<circle style="display:inline;fill:#FFD75E;" cx="55" cy="55" r="55"/>
	<g style="display:inline;">
		<g>
			<path style="fill:#E07000;" d="M86,47l-0.57,2.55L77.53,84.66C77.22,86.03,76,87,74.6,87H35.4c-1.4,0-2.62-0.97-2.931-2.34
				L24.57,49.55L24,47c0-3.31,2.69-6,6-6s6,2.69,6,6c0-3.31,2.689-6,6-6s6,2.69,6,6c0-3.87,3.13-7,7-7s7,3.13,7,7c0-3.31,2.69-6,6-6
				c3.31,0,6,2.69,6,6c0-3.31,2.689-6,6-6C83.31,41,86,43.69,86,47z"/>
		</g>
		<g>
			<path style="fill:#FFE9A1;" d="M30,41c3.311,0,6,2.69,6,6c0-3.31,2.689-6,6-6s6,2.69,6,6c0-3.87,3.13-7,7-7s7,3.13,7,7
				c0-3.31,2.69-6,6-6c3.31,0,6,2.69,6,6c0-3.31,2.689-6,6-6c2.019,0,3.802,1.003,4.89,2.534c0.754-4.352-2.602-8.202-6.89-8.202
				c-1.235,0-2.394,0.323-3.401,0.884C73.574,28.733,68.068,23,61.435,23C56,23,51.318,26.833,49.251,32.337
				c-1.273-1.04-2.792-1.492-4.216-1.095c-1.506,0.424-2.615,1.698-3.122,3.368c-1.355-0.767-2.971-0.903-4.354-0.205
				c-1.438,0.711-2.3,2.163-2.45,3.806c-3.682-0.631-7.404,0.79-8.957,4.19C27.195,41.527,28.536,41,30,41z"/>
		</g>
		<g>
			<path style="fill:#FFFFFF;" d="M48,47c0-3.313-2.687-6-6-6s-6,2.687-6,6l0.265,1.764L42,87h8L48,47z"/>
		</g>
		<g>
			<path style="fill:#FFFFFF;" d="M62,47c0-3.313,2.687-6,6-6s6,2.687,6,6l-0.265,1.764L68,87h-8L62,47z"/>
		</g>
		<g>
			<path style="fill:#FFF5D9;" d="M61.435,23C56,23,51.318,26.833,49.251,32.337c-1.273-1.04-2.792-1.492-4.216-1.095
				c-1.506,0.424-2.615,1.698-3.122,3.368c-1.355-0.767-2.971-0.903-4.354-0.205c-1.438,0.712-2.3,2.163-2.45,3.806
				c-3.691-0.632-7.407,0.797-8.957,4.19C27.195,41.527,28.536,41,30,41c3.311,0,6,2.69,6,6c0-3.31,2.689-6,6-6
				c2.47,0,4.593,1.499,5.512,3.633L67.445,24.7C65.639,23.619,63.6,23,61.435,23z"/>
		</g>
	</g>
</g>
</svg>
