<?xml version="1.0" encoding="iso-8859-1"?>
<!-- Generator: Adobe Illustrator 17.1.0, SVG Export Plug-In . SVG Version: 6.00 Build 0)  -->
<!DOCTYPE svg PUBLIC "-//W3C//DTD SVG 1.0//EN" "http://www.w3.org/TR/2001/REC-SVG-20010904/DTD/svg10.dtd">
<svg version="1.0" xmlns="http://www.w3.org/2000/svg" xmlns:xlink="http://www.w3.org/1999/xlink" x="0px" y="0px" width="110px"
	 height="110px" viewBox="0 0 110 110" style="enable-background:new 0 0 110 110;" xml:space="preserve">
<g id="Artboard">
</g>
<g id="Multicolor">
	<circle style="fill:#32BEA6;" cx="55" cy="55" r="55"/>
	<g>
		<g>
			<path style="fill:#40C9E7;" d="M72.165,39.372c0.378-1.038-0.157-2.186-1.195-2.563L35.262,23.812
				c-1.038-0.378-2.186,0.157-2.563,1.195l-9.577,26.311c-0.378,1.038,0.157,2.186,1.195,2.563l35.708,12.997
				c1.038,0.378,2.186-0.157,2.563-1.195L72.165,39.372z"/>
		</g>
		<g>
			<path style="fill:#6FDAF1;" d="M35.262,23.812c-1.038-0.378-2.186,0.157-2.563,1.195l-9.577,26.311
				c-0.378,1.038,0.157,2.186,1.195,2.563l1.174,0.427l24.966-24.967L35.262,23.812z"/>
		</g>
		<g>
			<path style="fill:#F8E1C2;" d="M52.507,64.143l-7.518-2.736c-7.224-2.629-16.701-6.079-20.673-7.525
				c-1.038-0.378-1.573-1.525-1.195-2.563l3.42-9.397c0,0,8.238,2.424,15.52,6.596C48.855,52.395,54.819,57.79,52.507,64.143z"/>
		</g>
		<g>
			<path style="fill:#21B2D1;" d="M52.507,64.143l-11.276-4.104c-4.698-1.71-1.793-3.845-2.988-6.409
				c-1.195-2.563-6.578-2.394-5.552-5.213c0.537-1.475,6.067-2.049,9.371,0.101C48.855,52.395,54.819,57.79,52.507,64.143z"/>
		</g>
		<g>
			<path style="fill:#0C7367;" d="M42.868,32.095c-0.695-6.04-6.735-5.345-6.735-5.345c2.245,1.782,3.638,3.253,3.415,4.994
				C39.437,32,37.437,28,32.699,30.884C35.437,31,37.994,32.109,38.437,33c-0.248,0.094-0.945,0.518-1.189,0.645
				c-4.446,2.319-6.39,9.508-6.473,9.818l2.808,1.022c0.468-1.758,2.324-6.757,5.052-8.18c0.39-0.203,0.78-0.312,1.177-0.356
				c1.277,0.889,2.491,2.651,1.088,6.039c2.48-0.648,4.312-3.777,3.664-6.257c0.78,0.158,4.187,1.398,5.017,3.988
				C50.533,34.884,46.912,32.362,42.868,32.095z"/>
		</g>
		<g>
			<circle style="fill:#FACB1B;" cx="62.595" cy="42.274" r="4"/>
		</g>
		<g>
			<path style="fill:#F0F1F1;" d="M79.206,48.183c-0.266-1.072-1.351-1.725-2.423-1.459l-36.88,9.16
				c-1.072,0.266-1.725,1.351-1.459,2.423l6.749,27.174c0.266,1.072,1.351,1.725,2.423,1.459l36.88-9.16
				c1.072-0.266,1.725-1.351,1.459-2.423L79.206,48.183z"/>
		</g>
		<g>
			<path style="fill:#CFD3D4;" d="M67.052,65.627c0.133,0.536,0.676,0.863,1.212,0.729l9.705-2.41
				c0.536-0.133,0.863-0.676,0.729-1.212s-0.676-0.863-1.212-0.729l-9.705,2.41C67.246,64.549,66.919,65.091,67.052,65.627z"/>
		</g>
		<g>
			<path style="fill:#CFD3D4;" d="M68.257,70.48c0.133,0.536,0.676,0.863,1.212,0.729l9.705-2.41
				c0.536-0.133,0.863-0.676,0.729-1.212c-0.133-0.536-0.676-0.863-1.212-0.729l-9.705,2.41
				C68.451,69.401,68.124,69.944,68.257,70.48z"/>
		</g>
		<g>
			<path style="fill:#CFD3D4;" d="M73.345,74.368c0.133,0.536,0.676,0.863,1.212,0.729l5.823-1.446
				c0.536-0.133,0.863-0.676,0.729-1.212c-0.133-0.536-0.676-0.863-1.212-0.729l-5.823,1.446
				C73.538,73.29,73.212,73.832,73.345,74.368z"/>
		</g>
		<g>
			
				<rect x="68.888" y="51.935" transform="matrix(0.9705 -0.241 0.241 0.9705 -11.3337 19.2188)" style="fill:#F99134;" width="8" height="8"/>
		</g>
		<g>
			<path style="fill:#FFFFFF;" d="M39.903,55.884c-1.072,0.266-1.725,1.351-1.459,2.423l4.188,16.86L69.188,48.61L39.903,55.884z"/>
		</g>
		<g>
			<path style="fill:#CFD3D4;" d="M60.278,54.945c-0.133-0.536-0.676-0.863-1.212-0.729c-0.536,0.133-0.863,0.676-0.729,1.212
				l5.785,23.292c0.133,0.536,0.676,0.863,1.212,0.729c0.536-0.133,0.863-0.676,0.729-1.212L60.278,54.945z"/>
		</g>
		<path style="fill:#099686;" d="M42.868,32.094c-0.695-6.04-6.735-5.345-6.735-5.345c2.245,1.781,3.638,3.253,3.415,4.993
			C39.437,32,37.437,28,32.699,30.884C35.437,31,37.994,32.109,38.437,33c-0.248,0.094-0.945,0.518-1.189,0.645
			c-4.255,2.22-6.213,8.884-6.447,9.725c0.848,0.313,1.79,0.677,2.791,1.085c0.48-1.782,2.33-6.734,5.043-8.149
			c0.39-0.203,0.78-0.312,1.178-0.356c0.707,0.492,1.393,1.254,1.627,2.41l5.213-5.213C45.545,32.539,44.233,32.185,42.868,32.094z"
			/>
		<g>
			<path style="fill:#FCF1E2;" d="M23.121,51.318c-0.378,1.038,0.158,2.186,1.195,2.563c0.347,0.126,0.748,0.272,1.174,0.427
				l9.341-9.341c-4.61-1.961-8.289-3.047-8.289-3.047L23.121,51.318z"/>
		</g>
	</g>
</g>
</svg>
