<?xml version="1.0" encoding="iso-8859-1"?>
<!-- Generator: Adobe Illustrator 17.1.0, SVG Export Plug-In . SVG Version: 6.00 Build 0)  -->
<!DOCTYPE svg PUBLIC "-//W3C//DTD SVG 1.0//EN" "http://www.w3.org/TR/2001/REC-SVG-20010904/DTD/svg10.dtd">
<svg version="1.0" xmlns="http://www.w3.org/2000/svg" xmlns:xlink="http://www.w3.org/1999/xlink" x="0px" y="0px" width="110px"
	 height="110px" viewBox="0 0 110 110" style="enable-background:new 0 0 110 110;" xml:space="preserve">
<g id="Artboard">
</g>
<g id="Multicolor">
	<circle style="fill:#25B7D3;" cx="55" cy="55" r="55"/>
	<g>
		<polygon style="fill:#FBEC9A;" points="83.56,63.675 74.103,23.629 22.838,35.735 34.944,87 74.991,77.543 		"/>
		<polygon style="fill:#FBE158;" points="83.553,63.658 75.161,77.238 72.567,66.253 		"/>
		<path style="fill:#F3B607;" d="M66.835,46.758c0.129,0.535-0.203,1.078-0.738,1.206l-29.166,7.025
			c-0.535,0.129-1.078-0.203-1.206-0.738l0,0c-0.129-0.535,0.203-1.078,0.738-1.206l29.166-7.025
			C66.164,45.891,66.707,46.223,66.835,46.758L66.835,46.758z"/>
		<path style="fill:#F3B607;" d="M68.709,54.535c0.129,0.535-0.203,1.078-0.738,1.206l-29.166,7.025
			c-0.535,0.129-1.078-0.203-1.206-0.738l0,0c-0.129-0.535,0.203-1.078,0.738-1.206l29.166-7.025
			C68.037,53.668,68.58,54.001,68.709,54.535L68.709,54.535z"/>
		<path style="fill:#F3B607;" d="M62.804,64.186c0.129,0.535-0.203,1.078-0.738,1.206l-21.388,5.151
			c-0.535,0.129-1.078-0.203-1.206-0.738l0,0c-0.129-0.535,0.203-1.078,0.738-1.206l21.388-5.151
			C62.133,63.319,62.675,63.651,62.804,64.186L62.804,64.186z"/>
		<path style="fill:#B6BCBD;" d="M50.939,34.952c-0.702,0-1.374-0.127-2-0.349v8.349c0,1.104,0.896,2,2,2c1.105,0,2-0.896,2-2
			v-8.349C52.312,34.825,51.642,34.952,50.939,34.952z"/>
		<circle style="fill:#DF2C2C;" cx="50.939" cy="28.952" r="6"/>
		<path style="fill:#FA5655;" d="M50.939,22.952c-3.313,0-6,2.687-6,6c0,1.497,0.552,2.863,1.458,3.914l8.456-8.456
			C53.802,23.504,52.436,22.952,50.939,22.952z"/>
	</g>
</g>
</svg>
