<?xml version="1.0" encoding="iso-8859-1"?>
<!-- Generator: Adobe Illustrator 17.1.0, SVG Export Plug-In . SVG Version: 6.00 Build 0)  -->
<!DOCTYPE svg PUBLIC "-//W3C//DTD SVG 1.0//EN" "http://www.w3.org/TR/2001/REC-SVG-20010904/DTD/svg10.dtd">
<svg version="1.0" xmlns="http://www.w3.org/2000/svg" xmlns:xlink="http://www.w3.org/1999/xlink" x="0px" y="0px" width="110px"
	 height="110px" viewBox="0 0 110 110" style="enable-background:new 0 0 110 110;" xml:space="preserve">
<g id="Artboard" style="display:none;">
	
		<rect x="-200.5" y="-930.5" style="display:inline;fill:#808080;stroke:#000000;stroke-miterlimit:10;" width="1392" height="1369"/>
</g>
<g id="R-Multicolor">
	<circle style="fill:#FABC3D;" cx="55" cy="55" r="55"/>
	<g>
		<g>
			<polygon style="fill:#3E3E3F;" points="85,55 83,59 79,59 79,63 87,63 87,59 87,55 			"/>
		</g>
		<g>
			<polygon style="fill:#3E3E3F;" points="25,55 27,59 31,59 31,63 23,63 23,59 23,55 			"/>
		</g>
		<g>
			<path style="fill:#FFFFFF;" d="M81.291,52.121c0.432,0.04,0.844-0.192,1.034-0.583c0.189-0.391,0.117-0.858-0.183-1.173
				c-4.727-4.963-12.782-8.728-19.844-10.223c0.17-0.393,0.299-0.811,0.341-1.261c0.213-2.292-1.473-4.322-3.765-4.534
				c-2.292-0.213-4.322,1.473-4.534,3.765c-0.041,0.438,0.008,0.86,0.096,1.268c-7.315,0.118-15.752,2.375-21.379,6.433
				c-0.352,0.254-0.51,0.7-0.396,1.119c0.114,0.419,0.477,0.723,0.909,0.763L81.291,52.121z"/>
		</g>
		<g>
			<path style="fill:#FFFFFF;" d="M28.839,23.25c7.684,11.765-6.714,14.724,0,24.5C15.883,37.83,28.839,31.926,28.839,23.25z"/>
		</g>
		<g>
			<path style="fill:#FFFFFF;" d="M34.125,31.623c5.071,6.007-3.875,7.892-0.875,12.839C27.177,39.812,34.125,35.69,34.125,31.623z"
				/>
		</g>
		<g>
			<path style="fill:#E2E4E5;" d="M30.97,59c0,0,0.015,21.616,0.015,22c0,3.314,2.686,6,6,6h36c3.314,0,6-2.686,6-6
				c0-0.384,0.015-22,0.015-22H30.97z"/>
		</g>
		<g>
			<path style="fill:#CFD3D4;" d="M81,57c0,1.105-0.895,2-2,2H31c-1.105,0-2-0.895-2-2v-1c0-1.105,0.895-2,2-2h48
				c1.105,0,2,0.895,2,2V57z"/>
		</g>
		<g>
			<path style="fill:#E2E4E5;" d="M55,54H31c-1.104,0-2,0.896-2,2v1c0,1.104,0.896,2,2,2h24V54z"/>
		</g>
		<g>
			<path style="fill:#FFFFFF;" d="M55,59H30.985c0,0,0.015,21.616,0.015,22c0,3.314,2.686,6,6,6h18V59z"/>
		</g>
	</g>
</g>
<g id="Multicolor" style="display:none;">
	<g style="display:inline;">
		<g>
			<polygon style="fill:#3E3E3F;" points="85,55 83,59 79,59 79,63 87,63 87,59 87,55 			"/>
		</g>
		<g>
			<polygon style="fill:#3E3E3F;" points="25,55 27,59 31,59 31,63 23,63 23,59 23,55 			"/>
		</g>
		<g>
			<path style="fill:#FFFFFF;" d="M81.291,52.121c0.432,0.04,0.844-0.192,1.034-0.583c0.189-0.391,0.117-0.858-0.183-1.173
				c-4.727-4.963-12.782-8.728-19.844-10.223c0.17-0.393,0.299-0.811,0.341-1.261c0.213-2.292-1.473-4.322-3.765-4.534
				c-2.292-0.213-4.322,1.473-4.534,3.765c-0.041,0.438,0.008,0.86,0.096,1.268c-7.315,0.118-15.752,2.375-21.379,6.433
				c-0.352,0.254-0.51,0.7-0.396,1.119c0.114,0.419,0.477,0.723,0.909,0.763L81.291,52.121z"/>
		</g>
		<g>
			<path style="fill:#FFFFFF;" d="M28.839,23.25c7.684,11.765-6.714,14.724,0,24.5C15.883,37.83,28.839,31.926,28.839,23.25z"/>
		</g>
		<g>
			<path style="fill:#FFFFFF;" d="M34.125,31.623c5.071,6.007-3.875,7.892-0.875,12.839C27.177,39.812,34.125,35.69,34.125,31.623z"
				/>
		</g>
		<g>
			<path style="fill:#E2E4E5;" d="M30.97,59c0,0,0.015,21.616,0.015,22c0,3.314,2.686,6,6,6h36c3.314,0,6-2.686,6-6
				c0-0.384,0.015-22,0.015-22H30.97z"/>
		</g>
		<g>
			<path style="fill:#CFD3D4;" d="M81,57c0,1.105-0.895,2-2,2H31c-1.105,0-2-0.895-2-2v-1c0-1.105,0.895-2,2-2h48
				c1.105,0,2,0.895,2,2V57z"/>
		</g>
		<g>
			<path style="fill:#E2E4E5;" d="M55,54H31c-1.104,0-2,0.896-2,2v1c0,1.104,0.896,2,2,2h24V54z"/>
		</g>
		<g>
			<path style="fill:#FFFFFF;" d="M55,59H30.985c0,0,0.015,21.616,0.015,22c0,3.314,2.686,6,6,6h18V59z"/>
		</g>
	</g>
</g>
<g id="Blue" style="display:none;">
	<g style="display:inline;">
		<g>
			<polygon style="fill:#0C333D;" points="85,55 83,59 79,59 79,63 87,63 87,59 87,55 			"/>
		</g>
		<g>
			<polygon style="fill:#0C333D;" points="25,55 27,59 31,59 31,63 23,63 23,59 23,55 			"/>
		</g>
		<g>
			<path style="fill:#FFFFFF;" d="M81.291,52.121c0.432,0.04,0.844-0.192,1.033-0.583c0.189-0.391,0.117-0.858-0.183-1.173
				c-4.728-4.963-12.782-8.728-19.844-10.223c0.169-0.394,0.3-0.811,0.341-1.261c0.213-2.292-1.473-4.322-3.765-4.535
				c-2.292-0.212-4.321,1.473-4.534,3.765c-0.041,0.438,0.008,0.86,0.097,1.268c-7.315,0.118-15.753,2.374-21.379,6.433
				c-0.353,0.254-0.511,0.7-0.396,1.12c0.114,0.419,0.477,0.723,0.909,0.763L81.291,52.121z"/>
		</g>
		<g>
			<path style="fill:#FFFFFF;" d="M28.84,23.25c7.684,11.766-6.715,14.724,0,24.5C15.883,37.831,28.84,31.927,28.84,23.25z"/>
		</g>
		<g>
			<path style="fill:#FFFFFF;" d="M34.125,31.623c5.071,6.007-3.875,7.892-0.875,12.839C27.177,39.812,34.125,35.69,34.125,31.623z"
				/>
		</g>
		<g>
			<path style="fill:#BBE7F2;" d="M30.97,59c0,0,0.015,21.616,0.015,22c0,3.314,2.687,6,6,6h36c3.314,0,6-2.686,6-6
				c0-0.384,0.016-22,0.016-22H30.97z"/>
		</g>
		<g>
			<path style="fill:#81D2EB;" d="M81,57c0,1.104-0.896,2-2,2H31c-1.104,0-2-0.896-2-2v-1c0-1.104,0.896-2,2-2h48
				c1.104,0,2,0.896,2,2V57z"/>
		</g>
		<g>
			<path style="fill:#BBE7F2;" d="M55,54H31c-1.104,0-2,0.896-2,2v1c0,1.104,0.896,2,2,2h24V54z"/>
		</g>
		<g>
			<path style="fill:#FFFFFF;" d="M55,59H30.984c0,0,0.016,21.616,0.016,22c0,3.314,2.687,6,6,6h18V59z"/>
		</g>
	</g>
</g>
<g id="R-Blue" style="display:none;">
	<circle style="display:inline;fill:#81D2EB;" cx="55" cy="55" r="55"/>
	<g style="display:inline;">
		<g>
			<polygon style="fill:#0C333D;" points="85,55 83,59 79,59 79,63 87,63 87,59 87,55 			"/>
		</g>
		<g>
			<polygon style="fill:#0C333D;" points="25,55 27,59 31,59 31,63 23,63 23,59 23,55 			"/>
		</g>
		<g>
			<path style="fill:#FFFFFF;" d="M81.291,52.121c0.432,0.04,0.844-0.192,1.033-0.583c0.189-0.391,0.117-0.858-0.183-1.173
				c-4.728-4.963-12.782-8.728-19.844-10.223c0.169-0.394,0.3-0.811,0.341-1.261c0.213-2.292-1.473-4.322-3.765-4.535
				c-2.292-0.212-4.321,1.473-4.534,3.765c-0.041,0.438,0.008,0.86,0.097,1.268c-7.315,0.118-15.753,2.374-21.379,6.433
				c-0.353,0.254-0.511,0.7-0.396,1.12c0.114,0.419,0.477,0.723,0.909,0.763L81.291,52.121z"/>
		</g>
		<g>
			<path style="fill:#FFFFFF;" d="M28.84,23.25c7.684,11.766-6.715,14.724,0,24.5C15.883,37.831,28.84,31.927,28.84,23.25z"/>
		</g>
		<g>
			<path style="fill:#FFFFFF;" d="M34.125,31.623c5.071,6.007-3.875,7.892-0.875,12.839C27.177,39.811,34.125,35.69,34.125,31.623z"
				/>
		</g>
		<g>
			<path style="fill:#BBE7F2;" d="M30.97,59c0,0,0.015,21.616,0.015,22c0,3.314,2.687,6,6,6h36c3.314,0,6-2.686,6-6
				c0-0.384,0.016-22,0.016-22H30.97z"/>
		</g>
		<g>
			<path style="fill:#81D2EB;" d="M81,57c0,1.104-0.896,2-2,2H31c-1.104,0-2-0.896-2-2v-1c0-1.104,0.896-2,2-2h48
				c1.104,0,2,0.896,2,2V57z"/>
		</g>
		<g>
			<path style="fill:#BBE7F2;" d="M55,54H31c-1.104,0-2,0.896-2,2v1c0,1.104,0.896,2,2,2h24V54z"/>
		</g>
		<g>
			<path style="fill:#FFFFFF;" d="M55,59H30.984c0,0,0.016,21.616,0.016,22c0,3.314,2.687,6,6,6h18V59z"/>
		</g>
	</g>
</g>
<g id="Green" style="display:none;">
	<g style="display:inline;">
		<g>
			<polygon style="fill:#0A3631;" points="85,55 83,59 79,59 79,63 87,63 87,59 87,55 			"/>
		</g>
		<g>
			<polygon style="fill:#0A3631;" points="25,55 27,59 31,59 31,63 23,63 23,59 23,55 			"/>
		</g>
		<g>
			<path style="fill:#FFFFFF;" d="M81.291,52.121c0.432,0.04,0.844-0.192,1.033-0.583c0.189-0.391,0.117-0.858-0.183-1.173
				c-4.727-4.963-12.782-8.728-19.844-10.223c0.169-0.394,0.3-0.811,0.341-1.261c0.213-2.292-1.473-4.322-3.765-4.535
				c-2.292-0.212-4.321,1.473-4.534,3.765c-0.041,0.438,0.008,0.86,0.097,1.268c-7.315,0.118-15.753,2.375-21.379,6.433
				c-0.353,0.254-0.511,0.7-0.396,1.12c0.114,0.419,0.477,0.723,0.909,0.763L81.291,52.121z"/>
		</g>
		<g>
			<path style="fill:#FFFFFF;" d="M28.84,23.25c7.684,11.766-6.715,14.724,0,24.5C15.883,37.831,28.84,31.927,28.84,23.25z"/>
		</g>
		<g>
			<path style="fill:#FFFFFF;" d="M34.125,31.623c5.071,6.007-3.875,7.892-0.875,12.839C27.177,39.812,34.125,35.69,34.125,31.623z"
				/>
		</g>
		<g>
			<path style="fill:#AAF0E9;" d="M30.97,59c0,0,0.015,21.616,0.015,22c0,3.314,2.687,6,6,6h36c3.314,0,6-2.686,6-6
				c0-0.384,0.016-22,0.016-22H30.97z"/>
		</g>
		<g>
			<path style="fill:#77E0C4;" d="M81,57c0,1.104-0.896,2-2,2H31c-1.104,0-2-0.896-2-2v-1c0-1.104,0.896-2,2-2h48
				c1.104,0,2,0.896,2,2V57z"/>
		</g>
		<g>
			<path style="fill:#AAF0E9;" d="M55,54H31c-1.104,0-2,0.896-2,2v1c0,1.104,0.896,2,2,2h24V54z"/>
		</g>
		<g>
			<path style="fill:#FFFFFF;" d="M55,59H30.984c0,0,0.016,21.616,0.016,22c0,3.314,2.687,6,6,6h18V59z"/>
		</g>
	</g>
</g>
<g id="R-Green" style="display:none;">
	<circle style="display:inline;fill:#77E0C4;" cx="55" cy="55" r="55"/>
	<g style="display:inline;">
		<g>
			<polygon style="fill:#0A3631;" points="85,55 83,59 79,59 79,63 87,63 87,59 87,55 			"/>
		</g>
		<g>
			<polygon style="fill:#0A3631;" points="25,55 27,59 31,59 31,63 23,63 23,59 23,55 			"/>
		</g>
		<g>
			<path style="fill:#FFFFFF;" d="M81.291,52.121c0.432,0.04,0.844-0.192,1.033-0.583c0.189-0.391,0.117-0.858-0.183-1.173
				c-4.728-4.963-12.782-8.728-19.844-10.223c0.169-0.394,0.3-0.811,0.341-1.261c0.213-2.292-1.473-4.322-3.765-4.535
				c-2.292-0.212-4.321,1.473-4.534,3.765c-0.041,0.438,0.008,0.86,0.097,1.268c-7.315,0.118-15.753,2.374-21.379,6.433
				c-0.352,0.254-0.511,0.7-0.395,1.12c0.114,0.419,0.477,0.723,0.909,0.763L81.291,52.121z"/>
		</g>
		<g>
			<path style="fill:#FFFFFF;" d="M28.84,23.25c7.684,11.766-6.715,14.724,0,24.5C15.883,37.831,28.84,31.927,28.84,23.25z"/>
		</g>
		<g>
			<path style="fill:#FFFFFF;" d="M34.125,31.623c5.071,6.007-3.875,7.892-0.875,12.839C27.177,39.812,34.125,35.69,34.125,31.623z"
				/>
		</g>
		<g>
			<path style="fill:#AAF0E9;" d="M30.97,59c0,0,0.015,21.616,0.015,22c0,3.314,2.686,6,6,6h36c3.314,0,6-2.686,6-6
				c0-0.384,0.016-22,0.016-22H30.97z"/>
		</g>
		<g>
			<path style="fill:#77E0C4;" d="M81,57c0,1.104-0.896,2-2,2H31c-1.104,0-2-0.896-2-2v-1c0-1.104,0.896-2,2-2h48
				c1.104,0,2,0.896,2,2V57z"/>
		</g>
		<g>
			<path style="fill:#AAF0E9;" d="M55,54H31c-1.104,0-2,0.896-2,2v1c0,1.104,0.896,2,2,2h24V54z"/>
		</g>
		<g>
			<path style="fill:#FFFFFF;" d="M55,59H30.984c0,0,0.016,21.616,0.016,22c0,3.314,2.687,6,6,6h18V59z"/>
		</g>
	</g>
</g>
<g id="Red" style="display:none;">
	<g style="display:inline;">
		<g>
			<polygon style="fill:#4A1410;" points="85,55 83,59 79,59 79,63 87,63 87,59 87,55 			"/>
		</g>
		<g>
			<polygon style="fill:#4A1410;" points="25,55 27,59 31,59 31,63 23,63 23,59 23,55 			"/>
		</g>
		<g>
			<path style="fill:#FFFFFF;" d="M81.291,52.121c0.432,0.04,0.844-0.192,1.033-0.583c0.189-0.391,0.117-0.858-0.183-1.173
				c-4.728-4.963-12.782-8.728-19.844-10.223c0.169-0.394,0.3-0.811,0.341-1.261c0.213-2.292-1.473-4.322-3.765-4.535
				c-2.292-0.212-4.321,1.473-4.534,3.765c-0.041,0.438,0.008,0.86,0.097,1.268c-7.315,0.118-15.753,2.375-21.379,6.433
				c-0.352,0.254-0.511,0.7-0.395,1.12c0.114,0.419,0.477,0.723,0.909,0.763L81.291,52.121z"/>
		</g>
		<g>
			<path style="fill:#FFFFFF;" d="M28.84,23.25c7.684,11.766-6.715,14.724,0,24.5C15.883,37.831,28.84,31.927,28.84,23.25z"/>
		</g>
		<g>
			<path style="fill:#FFFFFF;" d="M34.125,31.623c5.071,6.007-3.875,7.892-0.875,12.839C27.177,39.812,34.125,35.69,34.125,31.623z"
				/>
		</g>
		<g>
			<path style="fill:#FFD7D4;" d="M30.97,59c0,0,0.015,21.616,0.015,22c0,3.314,2.686,6,6,6h36c3.314,0,6-2.686,6-6
				c0-0.384,0.016-22,0.016-22H30.97z"/>
		</g>
		<g>
			<path style="fill:#FABBAF;" d="M81,57c0,1.104-0.896,2-2,2H31c-1.104,0-2-0.896-2-2v-1c0-1.104,0.896-2,2-2h48
				c1.104,0,2,0.896,2,2V57z"/>
		</g>
		<g>
			<path style="fill:#FFD7D4;" d="M55,54H31c-1.104,0-2,0.896-2,2v1c0,1.104,0.896,2,2,2h24V54z"/>
		</g>
		<g>
			<path style="fill:#FFFFFF;" d="M55,59H30.984c0,0,0.016,21.616,0.016,22c0,3.314,2.687,6,6,6h18V59z"/>
		</g>
	</g>
</g>
<g id="R-Red" style="display:none;">
	<circle style="display:inline;fill:#FABBAF;" cx="55" cy="55" r="55"/>
	<g style="display:inline;">
		<g>
			<polygon style="fill:#4A1410;" points="85,55 83,59 79,59 79,63 87,63 87,59 87,55 			"/>
		</g>
		<g>
			<polygon style="fill:#4A1410;" points="25,55 27,59 31,59 31,63 23,63 23,59 23,55 			"/>
		</g>
		<g>
			<path style="fill:#FFFFFF;" d="M81.291,52.121c0.432,0.04,0.844-0.192,1.033-0.583c0.189-0.391,0.117-0.858-0.183-1.173
				c-4.728-4.963-12.782-8.728-19.844-10.223c0.169-0.394,0.3-0.811,0.341-1.261c0.213-2.292-1.473-4.322-3.765-4.535
				c-2.292-0.212-4.321,1.473-4.534,3.765c-0.041,0.438,0.008,0.86,0.097,1.268c-7.315,0.118-15.753,2.375-21.379,6.433
				c-0.352,0.254-0.511,0.7-0.395,1.12c0.114,0.419,0.477,0.723,0.909,0.763L81.291,52.121z"/>
		</g>
		<g>
			<path style="fill:#FFFFFF;" d="M28.84,23.25c7.684,11.766-6.715,14.724,0,24.5C15.883,37.831,28.84,31.927,28.84,23.25z"/>
		</g>
		<g>
			<path style="fill:#FFFFFF;" d="M34.125,31.623c5.071,6.007-3.875,7.892-0.875,12.839C27.177,39.812,34.125,35.69,34.125,31.623z"
				/>
		</g>
		<g>
			<path style="fill:#FFD7D4;" d="M30.97,59c0,0,0.015,21.616,0.015,22c0,3.314,2.686,6,6,6h36c3.314,0,6-2.686,6-6
				c0-0.384,0.016-22,0.016-22H30.97z"/>
		</g>
		<g>
			<path style="fill:#FABBAF;" d="M81,57c0,1.104-0.896,2-2,2H31c-1.104,0-2-0.896-2-2v-1c0-1.104,0.896-2,2-2h48
				c1.104,0,2,0.896,2,2V57z"/>
		</g>
		<g>
			<path style="fill:#FFD7D4;" d="M55,54H31c-1.104,0-2,0.896-2,2v1c0,1.104,0.896,2,2,2h24V54z"/>
		</g>
		<g>
			<path style="fill:#FFFFFF;" d="M55,59H30.984c0,0,0.016,21.616,0.016,22c0,3.314,2.687,6,6,6h18V59z"/>
		</g>
	</g>
</g>
<g id="Yellow" style="display:none;">
	<g style="display:inline;">
		<g>
			<polygon style="fill:#3D320C;" points="85,55 83,59 79,59 79,63 87,63 87,59 87,55 			"/>
		</g>
		<g>
			<polygon style="fill:#3D320C;" points="25,55 27,59 31,59 31,63 23,63 23,59 23,55 			"/>
		</g>
		<g>
			<path style="fill:#FFFFFF;" d="M81.291,52.121c0.432,0.04,0.844-0.192,1.033-0.583c0.189-0.391,0.117-0.858-0.183-1.173
				c-4.728-4.963-12.782-8.728-19.844-10.223c0.169-0.394,0.3-0.811,0.341-1.261c0.213-2.292-1.473-4.322-3.765-4.535
				c-2.292-0.212-4.321,1.473-4.534,3.765c-0.041,0.438,0.008,0.86,0.097,1.268c-7.315,0.118-15.753,2.374-21.379,6.433
				c-0.352,0.254-0.511,0.7-0.395,1.12c0.114,0.419,0.477,0.723,0.909,0.763L81.291,52.121z"/>
		</g>
		<g>
			<path style="fill:#FFFFFF;" d="M28.84,23.25c7.684,11.766-6.715,14.724,0,24.5C15.883,37.831,28.84,31.927,28.84,23.25z"/>
		</g>
		<g>
			<path style="fill:#FFFFFF;" d="M34.125,31.623c5.071,6.007-3.875,7.892-0.875,12.839C27.177,39.812,34.125,35.69,34.125,31.623z"
				/>
		</g>
		<g>
			<path style="fill:#FFE9A1;" d="M30.97,59c0,0,0.015,21.616,0.015,22c0,3.314,2.686,6,6,6h36c3.314,0,6-2.686,6-6
				c0-0.384,0.016-22,0.016-22H30.97z"/>
		</g>
		<g>
			<path style="fill:#FFD75E;" d="M81,57c0,1.104-0.896,2-2,2H31c-1.104,0-2-0.896-2-2v-1c0-1.104,0.896-2,2-2h48
				c1.104,0,2,0.896,2,2V57z"/>
		</g>
		<g>
			<path style="fill:#FFE9A1;" d="M55,54H31c-1.104,0-2,0.896-2,2v1c0,1.104,0.896,2,2,2h24V54z"/>
		</g>
		<g>
			<path style="fill:#FFFFFF;" d="M55,59H30.984c0,0,0.016,21.616,0.016,22c0,3.314,2.687,6,6,6h18V59z"/>
		</g>
	</g>
</g>
<g id="R-Yellow" style="display:none;">
	<circle style="display:inline;fill:#FFD75E;" cx="55" cy="55" r="55"/>
	<g style="display:inline;">
		<g>
			<polygon style="fill:#3D320C;" points="85,55 83,59 79,59 79,63 87,63 87,59 87,55 			"/>
		</g>
		<g>
			<polygon style="fill:#3D320C;" points="25,55 27,59 31,59 31,63 23,63 23,59 23,55 			"/>
		</g>
		<g>
			<path style="fill:#FFFFFF;" d="M81.291,52.121c0.432,0.04,0.844-0.192,1.033-0.583c0.189-0.391,0.117-0.858-0.183-1.173
				c-4.727-4.963-12.782-8.728-19.844-10.223c0.169-0.394,0.3-0.811,0.341-1.261c0.213-2.292-1.473-4.322-3.765-4.535
				c-2.292-0.212-4.321,1.473-4.534,3.765c-0.041,0.438,0.008,0.86,0.097,1.268c-7.315,0.118-15.753,2.374-21.379,6.433
				c-0.353,0.254-0.511,0.7-0.396,1.12c0.114,0.419,0.477,0.723,0.909,0.763L81.291,52.121z"/>
		</g>
		<g>
			<path style="fill:#FFFFFF;" d="M28.84,23.25c7.684,11.766-6.715,14.724,0,24.5C15.883,37.831,28.84,31.927,28.84,23.25z"/>
		</g>
		<g>
			<path style="fill:#FFFFFF;" d="M34.125,31.623c5.071,6.007-3.875,7.892-0.875,12.839C27.177,39.812,34.125,35.69,34.125,31.623z"
				/>
		</g>
		<g>
			<path style="fill:#FFE9A1;" d="M30.97,59c0,0,0.015,21.616,0.015,22c0,3.314,2.687,6,6,6h36c3.314,0,6-2.686,6-6
				c0-0.384,0.016-22,0.016-22H30.97z"/>
		</g>
		<g>
			<path style="fill:#FFD75E;" d="M81,57c0,1.104-0.896,2-2,2H31c-1.104,0-2-0.896-2-2v-1c0-1.104,0.896-2,2-2h48
				c1.104,0,2,0.896,2,2V57z"/>
		</g>
		<g>
			<path style="fill:#FFE9A1;" d="M55,54H31c-1.104,0-2,0.896-2,2v1c0,1.104,0.896,2,2,2h24V54z"/>
		</g>
		<g>
			<path style="fill:#FFFFFF;" d="M55,59H30.984c0,0,0.016,21.616,0.016,22c0,3.314,2.687,6,6,6h18V59z"/>
		</g>
	</g>
</g>
</svg>
