<?xml version="1.0" encoding="iso-8859-1"?>
<!-- Generator: Adobe Illustrator 17.1.0, SVG Export Plug-In . SVG Version: 6.00 Build 0)  -->
<!DOCTYPE svg PUBLIC "-//W3C//DTD SVG 1.0//EN" "http://www.w3.org/TR/2001/REC-SVG-20010904/DTD/svg10.dtd">
<svg version="1.0" xmlns="http://www.w3.org/2000/svg" xmlns:xlink="http://www.w3.org/1999/xlink" x="0px" y="0px" width="110px"
	 height="110px" viewBox="0 0 110 110" style="enable-background:new 0 0 110 110;" xml:space="preserve">
<g id="Artboard" style="display:none;">
	
		<rect x="-200.5" y="-802.5" style="display:inline;fill:#808080;stroke:#000000;stroke-miterlimit:10;" width="1392" height="1369"/>
</g>
<g id="R-Multicolor">
	<circle style="fill:#E04F5F;" cx="55" cy="55" r="55"/>
	<g>
		<rect x="33" y="83" style="fill:#CFD3D4;" width="40" height="4"/>
		<g>
			<path style="fill:#E2E4E5;" d="M25,75c0,4.418,3.582,8,8,8h40c4.418,0,8-3.582,8-8V63H25V75z"/>
		</g>
		<g>
			<path style="fill:#FFFFFF;" d="M58.152,41.598C54.133,44.524,46.493,51.534,45.678,63h13.875
				c-0.01-3.665,0.364-11.37,3.441-14.578L58.152,41.598z"/>
		</g>
		<g>
			
				<rect x="59.834" y="26.689" transform="matrix(0.5787 0.8155 -0.8155 0.5787 60.5644 -40.8632)" style="fill:#FBE158;" width="20" height="23"/>
		</g>
		<g>
			
				<rect x="59.426" y="33.479" transform="matrix(0.5787 0.8155 -0.8155 0.5787 60.6286 -40.4088)" style="fill:#FACB1B;" width="20" height="10"/>
		</g>
		<g>
			<path style="fill:#FFFFFF;" d="M52,63H25v12c0,4.418,3.582,8,8,8h19V63z"/>
		</g>
		<rect x="33" y="83" style="fill:#F0F1F1;" width="19" height="4"/>
	</g>
</g>
<g id="Multicolor" style="display:none;">
	<g style="display:inline;">
		<rect x="33" y="83" style="fill:#CFD3D4;" width="40" height="4"/>
		<g>
			<path style="fill:#E2E4E5;" d="M25,75c0,4.418,3.582,8,8,8h40c4.418,0,8-3.582,8-8V63H25V75z"/>
		</g>
		<g>
			<path style="fill:#FFFFFF;" d="M58.152,41.598C54.133,44.524,46.493,51.534,45.678,63h13.875
				c-0.01-3.665,0.364-11.37,3.441-14.578L58.152,41.598z"/>
		</g>
		<g>
			
				<rect x="59.834" y="26.689" transform="matrix(0.5787 0.8155 -0.8155 0.5787 60.5644 -40.8632)" style="fill:#FBE158;" width="20" height="23"/>
		</g>
		<g>
			
				<rect x="59.426" y="33.479" transform="matrix(0.5787 0.8155 -0.8155 0.5787 60.6286 -40.4088)" style="fill:#FACB1B;" width="20" height="10"/>
		</g>
		<g>
			<path style="fill:#FFFFFF;" d="M52,63H25v12c0,4.418,3.582,8,8,8h19V63z"/>
		</g>
		<rect x="33" y="83" style="fill:#F0F1F1;" width="19" height="4"/>
	</g>
</g>
<g id="Blue" style="display:none;">
	<g style="display:inline;">
		<rect x="33" y="83" style="fill:#BBE7F2;" width="40" height="4"/>
		<g>
			<path style="fill:#E1F5FA;" d="M25,75c0,4.419,3.582,8,8,8h40c4.418,0,8-3.581,8-8V63H25V75z"/>
		</g>
		<g>
			<path style="fill:#FFFFFF;" d="M58.151,41.598C54.133,44.524,46.492,51.534,45.678,63h13.875
				c-0.01-3.665,0.364-11.37,3.441-14.578L58.151,41.598z"/>
		</g>
		<g>
			
				<rect x="59.834" y="26.689" transform="matrix(0.5787 0.8155 -0.8155 0.5787 60.5648 -40.8631)" style="fill:#0081A1;" width="20" height="23.001"/>
		</g>
		<g>
			
				<rect x="59.426" y="33.479" transform="matrix(0.5787 0.8155 -0.8155 0.5787 60.6291 -40.4086)" style="fill:#009FC7;" width="20" height="10"/>
		</g>
		<g>
			<path style="fill:#FFFFFF;" d="M52,63H25v12c0,4.419,3.582,8,8,8h19V63z"/>
		</g>
		<rect x="33" y="83" style="fill:#E1F5FA;" width="19" height="4"/>
	</g>
</g>
<g id="R-Blue" style="display:none;">
	<circle style="display:inline;fill:#81D2EB;" cx="55" cy="55" r="55"/>
	<g style="display:inline;">
		<rect x="33" y="83" style="fill:#BBE7F2;" width="40" height="4"/>
		<g>
			<path style="fill:#E1F5FA;" d="M25,75c0,4.418,3.582,8,8,8h40c4.418,0,8-3.582,8-8V63H25V75z"/>
		</g>
		<g>
			<path style="fill:#FFFFFF;" d="M58.151,41.598C54.133,44.524,46.492,51.534,45.678,63h13.875
				c-0.01-3.665,0.364-11.37,3.441-14.578L58.151,41.598z"/>
		</g>
		<g>
			
				<rect x="59.834" y="26.689" transform="matrix(0.5787 0.8155 -0.8155 0.5787 60.5648 -40.8631)" style="fill:#0081A1;" width="20" height="23.001"/>
		</g>
		<g>
			
				<rect x="59.426" y="33.479" transform="matrix(0.5787 0.8155 -0.8155 0.5787 60.6291 -40.4086)" style="fill:#009FC7;" width="20" height="10"/>
		</g>
		<g>
			<path style="fill:#FFFFFF;" d="M52,63H25v12c0,4.418,3.582,8,8,8h19V63z"/>
		</g>
		<rect x="33" y="83" style="fill:#E1F5FA;" width="19" height="4"/>
	</g>
</g>
<g id="Green" style="display:none;">
	<g style="display:inline;">
		<rect x="33" y="83" style="fill:#AAF0E9;" width="40" height="4"/>
		<g>
			<path style="fill:#D7FCF9;" d="M25,75c0,4.419,3.582,8,8,8h40c4.418,0,8-3.581,8-8V63H25V75z"/>
		</g>
		<g>
			<path style="fill:#FFFFFF;" d="M58.151,41.598C54.133,44.524,46.492,51.534,45.678,63h13.875
				c-0.01-3.665,0.364-11.37,3.441-14.578L58.151,41.598z"/>
		</g>
		<g>
			
				<rect x="59.834" y="26.689" transform="matrix(0.5787 0.8155 -0.8155 0.5787 60.5648 -40.8631)" style="fill:#009687;" width="20" height="23.001"/>
		</g>
		<g>
			
				<rect x="59.426" y="33.479" transform="matrix(0.5787 0.8155 -0.8155 0.5787 60.6291 -40.4086)" style="fill:#00B8A5;" width="20" height="10"/>
		</g>
		<g>
			<path style="fill:#FFFFFF;" d="M52,63H25v12c0,4.419,3.582,8,8,8h19V63z"/>
		</g>
		<rect x="33" y="83" style="fill:#D7FCF9;" width="19" height="4"/>
	</g>
</g>
<g id="R-Green" style="display:none;">
	<circle style="display:inline;fill:#77E0C4;" cx="55" cy="55" r="55"/>
	<g style="display:inline;">
		<rect x="33" y="83" style="fill:#AAF0E9;" width="40" height="4"/>
		<g>
			<path style="fill:#D7FCF9;" d="M25,75c0,4.419,3.582,8,8,8h40c4.418,0,8-3.581,8-8V63H25V75z"/>
		</g>
		<g>
			<path style="fill:#FFFFFF;" d="M58.151,41.598C54.133,44.524,46.492,51.534,45.678,63h13.875
				c-0.01-3.665,0.364-11.37,3.441-14.578L58.151,41.598z"/>
		</g>
		<g>
			
				<rect x="59.834" y="26.689" transform="matrix(0.5787 0.8155 -0.8155 0.5787 60.5648 -40.8631)" style="fill:#009687;" width="20" height="23.001"/>
		</g>
		<g>
			
				<rect x="59.426" y="33.479" transform="matrix(0.5787 0.8155 -0.8155 0.5787 60.6291 -40.4086)" style="fill:#00B8A5;" width="20" height="10"/>
		</g>
		<g>
			<path style="fill:#FFFFFF;" d="M52,63H25v12c0,4.419,3.582,8,8,8h19V63z"/>
		</g>
		<rect x="33" y="83" style="fill:#D7FCF9;" width="19" height="4"/>
	</g>
</g>
<g id="Red" style="display:none;">
	<g style="display:inline;">
		<rect x="33" y="83" style="fill:#FFD7D4;" width="40" height="4"/>
		<g>
			<path style="fill:#FFEFED;" d="M25,75c0,4.419,3.582,8,8,8h40c4.418,0,8-3.581,8-8V63H25V75z"/>
		</g>
		<g>
			<path style="fill:#FFFFFF;" d="M58.151,41.598C54.133,44.524,46.492,51.534,45.678,63h13.875
				c-0.01-3.665,0.364-11.37,3.441-14.578L58.151,41.598z"/>
		</g>
		<g>
			
				<rect x="59.834" y="26.689" transform="matrix(0.5787 0.8155 -0.8155 0.5787 60.5648 -40.8631)" style="fill:#C23023;" width="20" height="23.001"/>
		</g>
		<g>
			
				<rect x="59.426" y="33.479" transform="matrix(0.5787 0.8155 -0.8155 0.5787 60.6291 -40.4086)" style="fill:#E54B44;" width="20" height="10"/>
		</g>
		<g>
			<path style="fill:#FFFFFF;" d="M52,63H25v12c0,4.419,3.582,8,8,8h19V63z"/>
		</g>
		<rect x="33" y="83" style="fill:#FFEFED;" width="19" height="4"/>
	</g>
</g>
<g id="R-Red" style="display:none;">
	<circle style="display:inline;fill:#FABBAF;" cx="55" cy="55" r="55"/>
	<g style="display:inline;">
		<rect x="33" y="83" style="fill:#FFD7D4;" width="40" height="4"/>
		<g>
			<path style="fill:#FFEFED;" d="M25,75c0,4.419,3.582,8,8,8h40c4.418,0,8-3.581,8-8V63H25V75z"/>
		</g>
		<g>
			<path style="fill:#FFFFFF;" d="M58.151,41.598C54.133,44.524,46.492,51.534,45.678,63h13.875
				c-0.01-3.665,0.364-11.37,3.441-14.578L58.151,41.598z"/>
		</g>
		<g>
			
				<rect x="59.834" y="26.689" transform="matrix(0.5787 0.8155 -0.8155 0.5787 60.5648 -40.8631)" style="fill:#C23023;" width="20" height="23.001"/>
		</g>
		<g>
			
				<rect x="59.426" y="33.479" transform="matrix(0.5787 0.8155 -0.8155 0.5787 60.6291 -40.4086)" style="fill:#E54B44;" width="20" height="10"/>
		</g>
		<g>
			<path style="fill:#FFFFFF;" d="M52,63H25v12c0,4.419,3.582,8,8,8h19V63z"/>
		</g>
		<rect x="33" y="83" style="fill:#FFEFED;" width="19" height="4"/>
	</g>
</g>
<g id="Yellow" style="display:none;">
	<g style="display:inline;">
		<rect x="33" y="83" style="fill:#FFE9A1;" width="40" height="4"/>
		<g>
			<path style="fill:#FFF5D9;" d="M25,75c0,4.419,3.582,8,8,8h40c4.418,0,8-3.581,8-8V63H25V75z"/>
		</g>
		<g>
			<path style="fill:#FFFFFF;" d="M58.151,41.598C54.133,44.524,46.492,51.534,45.678,63h13.875
				c-0.01-3.665,0.364-11.37,3.441-14.578L58.151,41.598z"/>
		</g>
		<g>
			
				<rect x="59.834" y="26.689" transform="matrix(0.5787 0.8155 -0.8155 0.5787 60.5648 -40.8631)" style="fill:#E07000;" width="20" height="23.001"/>
		</g>
		<g>
			
				<rect x="59.426" y="33.479" transform="matrix(0.5787 0.8155 -0.8155 0.5787 60.6291 -40.4086)" style="fill:#FA9200;" width="20" height="10"/>
		</g>
		<g>
			<path style="fill:#FFFFFF;" d="M52,63H25v12c0,4.419,3.582,8,8,8h19V63z"/>
		</g>
		<rect x="33" y="83" style="fill:#FFF5D9;" width="19" height="4"/>
	</g>
</g>
<g id="R-Yellow" style="display:none;">
	<circle style="display:inline;fill:#FFD75E;" cx="55" cy="55" r="55"/>
	<g style="display:inline;">
		<rect x="33" y="83" style="fill:#FFE9A1;" width="40" height="4"/>
		<g>
			<path style="fill:#FFF5D9;" d="M25,75c0,4.419,3.582,8,8,8h40c4.418,0,8-3.581,8-8V63H25V75z"/>
		</g>
		<g>
			<path style="fill:#FFFFFF;" d="M58.151,41.598C54.133,44.524,46.492,51.534,45.678,63h13.875
				c-0.01-3.665,0.364-11.37,3.441-14.578L58.151,41.598z"/>
		</g>
		<g>
			
				<rect x="59.834" y="26.689" transform="matrix(0.5787 0.8155 -0.8155 0.5787 60.5648 -40.8631)" style="fill:#E07000;" width="20" height="23.001"/>
		</g>
		<g>
			
				<rect x="59.426" y="33.479" transform="matrix(0.5787 0.8155 -0.8155 0.5787 60.6291 -40.4086)" style="fill:#FA9200;" width="20" height="10"/>
		</g>
		<g>
			<path style="fill:#FFFFFF;" d="M52,63H25v12c0,4.419,3.582,8,8,8h19V63z"/>
		</g>
		<rect x="33" y="83" style="fill:#FFF5D9;" width="19" height="4"/>
	</g>
</g>
</svg>
