<?xml version="1.0" encoding="iso-8859-1"?>
<!-- Generator: Adobe Illustrator 17.1.0, SVG Export Plug-In . SVG Version: 6.00 Build 0)  -->
<!DOCTYPE svg PUBLIC "-//W3C//DTD SVG 1.0//EN" "http://www.w3.org/TR/2001/REC-SVG-20010904/DTD/svg10.dtd">
<svg version="1.0" xmlns="http://www.w3.org/2000/svg" xmlns:xlink="http://www.w3.org/1999/xlink" x="0px" y="0px" width="110px"
	 height="110px" viewBox="0 0 110 110" style="enable-background:new 0 0 110 110;" xml:space="preserve">
<g id="Artboard">
</g>
<g id="Multicolor">
	<circle style="fill:#25B7D3;" cx="55" cy="55" r="55"/>
	<g>
		<rect x="23" y="43" style="fill:#CFD3D4;" width="64" height="40"/>
		<polygon style="fill:#FFFFFF;" points="79,31 87,43 23,43 31,31 		"/>
		<polygon style="fill:#FFFFFF;" points="63,53 67,59 79,59 83,53 79,47 67,47 		"/>
		<circle style="fill:#5B5C5F;" cx="70" cy="51" r="2"/>
		<rect x="71" y="55" style="fill:#5B5C5F;" width="4" height="2"/>
		<circle style="fill:#5B5C5F;" cx="76" cy="51" r="2"/>
		<polygon style="fill:#FFFFFF;" points="63,73 67,79 79,79 83,73 79,67 67,67 		"/>
		<circle style="fill:#5B5C5F;" cx="70" cy="71" r="2"/>
		<rect x="71" y="75" style="fill:#5B5C5F;" width="4" height="2"/>
		<circle style="fill:#5B5C5F;" cx="76" cy="71" r="2"/>
		<circle style="fill:#5B5C5F;" cx="43" cy="63" r="12"/>
		<path style="fill:#FFFFFF;" d="M43,47c-8.837,0-16,7.163-16,16s7.163,16,16,16s16-7.163,16-16S51.837,47,43,47z M55,63
			c0,2.767-0.946,5.308-2.52,7.338l-4.308-4.308C48.695,65.14,49,64.107,49,63s-0.305-2.14-0.828-3.03l4.308-4.308
			C54.054,57.692,55,60.233,55,63z M49.539,52.946L45.1,57.385C44.445,57.14,43.74,57,43,57s-1.445,0.14-2.1,0.385l-4.439-4.439
			C38.343,51.719,40.586,51,43,51S47.657,51.719,49.539,52.946z M31,63c0-2.767,0.946-5.308,2.52-7.338l4.308,4.308
			C37.305,60.86,37,61.893,37,63s0.305,2.14,0.828,3.03l-4.308,4.308C31.946,68.308,31,65.767,31,63z M36.461,73.054l4.439-4.439
			C41.555,68.86,42.26,69,43,69s1.445-0.14,2.1-0.385l4.439,4.439C47.657,74.281,45.414,75,43,75S38.343,74.281,36.461,73.054z"/>
	</g>
</g>
</svg>
