<?xml version="1.0" encoding="iso-8859-1"?>
<!-- Generator: Adobe Illustrator 17.1.0, SVG Export Plug-In . SVG Version: 6.00 Build 0)  -->
<!DOCTYPE svg PUBLIC "-//W3C//DTD SVG 1.0//EN" "http://www.w3.org/TR/2001/REC-SVG-20010904/DTD/svg10.dtd">
<svg version="1.0" xmlns="http://www.w3.org/2000/svg" xmlns:xlink="http://www.w3.org/1999/xlink" x="0px" y="0px" width="110px"
	 height="110px" viewBox="0 0 110 110" style="enable-background:new 0 0 110 110;" xml:space="preserve">
<g id="Artboard">
</g>
<g id="Multicolor">
	<circle style="fill:#32BEA6;" cx="55" cy="55" r="55"/>
	<g>
		<path style="fill:#FACB1B;" d="M72.971,39.029C68.627,34.686,62.627,31.999,56,31.999c-3.298,0-6.44,0.666-9.301,1.87
			c-2.785-1.861-9.533-1.87-14.699-1.87c0,5,1.187,8.812,3.531,11.468c-1.672,2.726-2.813,5.812-3.284,9.114L24,47.999l2,8l-2,8
			l8.247-4.582c0.808,5.666,3.591,10.696,7.635,14.363L36,75.999c3.793,4.456,7.805,4.972,11.98,2.622
			c2.509,0.889,5.207,1.378,8.02,1.378c6.627,0,12.627-2.686,16.971-7.029L56,55.999L72.971,39.029z"/>
		<path style="fill:#FBE158;" d="M56,31.999c-3.298,0-6.44,0.666-9.301,1.87c-2.785-1.861-9.533-1.87-14.699-1.87
			c0,5,1.187,8.812,3.531,11.468c-1.672,2.726-2.813,5.812-3.284,9.114L24,47.999l2,8l-2,8l8.247-4.582
			c0.238,1.667,0.665,3.269,1.226,4.807l30.772-30.772C61.674,32.513,58.897,31.999,56,31.999z"/>
		<path style="fill:#DF2C2C;" d="M78.766,50.01c-1.418-1.152-3.803-2.01-5.766-2.01l1.525,3.05c-1.058,0.631-1.857,1.504-2.25,2.515
			L68,50.999l1,4l-1,4l4.275-2.565c0.532,1.369,1.807,2.487,3.464,3.086L75,60.999c1.391,0,2.225-0.409,2.654-1.047
			C81.604,60.348,85,57.984,85,54.999C85,52.307,82.231,50.118,78.766,50.01z"/>
		<g>
			<circle style="fill:#FFFFFF;" cx="56.5" cy="41.5" r="5.5"/>
			<path style="fill:#3E3E3F;" d="M57.164,38.447c-0.575,0-1.107,0.171-1.561,0.454c0.441,0.257,0.751,0.715,0.751,1.263
				c0,1.043-1.093,1.849-2.151,1.306c0.03,1.612,1.341,2.912,2.961,2.912c1.638,0,2.967-1.328,2.967-2.967
				S58.802,38.447,57.164,38.447z"/>
		</g>
		<g>
			<circle style="fill:#FFFFFF;" cx="80.5" cy="53.5" r="2.5"/>
			<path style="fill:#3E3E3F;" d="M80.802,52.112c-0.261,0-0.503,0.078-0.71,0.206c0.2,0.117,0.341,0.325,0.341,0.574
				c0,0.372-0.302,0.674-0.674,0.674c-0.111,0-0.211-0.033-0.304-0.081c0.014,0.733,0.61,1.323,1.346,1.323
				c0.745,0,1.349-0.604,1.349-1.349S81.546,52.112,80.802,52.112z"/>
		</g>
	</g>
</g>
</svg>
