<?xml version="1.0" encoding="iso-8859-1"?>
<!-- Generator: Adobe Illustrator 17.1.0, SVG Export Plug-In . SVG Version: 6.00 Build 0)  -->
<!DOCTYPE svg PUBLIC "-//W3C//DTD SVG 1.0//EN" "http://www.w3.org/TR/2001/REC-SVG-20010904/DTD/svg10.dtd">
<svg version="1.0" xmlns="http://www.w3.org/2000/svg" xmlns:xlink="http://www.w3.org/1999/xlink" x="0px" y="0px" width="110px"
	 height="110px" viewBox="0 0 110 110" style="enable-background:new 0 0 110 110;" xml:space="preserve">
<g id="Artboard">
</g>
<g id="Multicolor">
	<circle style="fill:#32BEA6;" cx="55" cy="55" r="55"/>
	<g>
		<g>
			<path style="fill:#BF0302;" d="M81,43H29c-1.105,0-2,0.896-2,2v8c0,1.104,0.895,2,2,2h4v28c0,2.209,1.791,4,4,4h36
				c2.209,0,4-1.791,4-4V55h4c1.105,0,2-0.896,2-2v-8C83,43.895,82.105,43,81,43z"/>
		</g>
		<g>
			<path style="fill:#DF2C2C;" d="M83,53c0,1.105-0.895,2-2,2H29c-1.105,0-2-0.895-2-2v-8c0-1.105,0.895-2,2-2h52
				c1.105,0,2,0.895,2,2V53z"/>
		</g>
		<g>
			<path style="fill:#FA5655;" d="M29,43c-1.105,0-2,0.896-2,2v8c0,1.104,0.895,2,2,2h35.305l12-12H29z"/>
		</g>
		<g>
			<path style="fill:#DF2C2C;" d="M33,55v28c0,0.927,0.328,1.77,0.857,2.448L64.305,55H33z"/>
		</g>
		<g>
			<rect x="51" y="43" style="fill:#F3B607;" width="8" height="44"/>
		</g>
		<g>
			<polygon style="fill:#FACB1B;" points="59,60.305 59,55 51,55 51,68.305 			"/>
		</g>
		<g>
			<path style="fill:#F3B607;" d="M74,27c0,4.04-8.23,8.46-18.93,9C59.92,30.92,64.83,24.86,74,27z"/>
		</g>
		<g>
			<path style="fill:#F3B607;" d="M36,27c0,4.04,8.23,8.46,18.93,9C50.08,30.92,45.17,24.86,36,27z"/>
		</g>
		<g>
			<path style="fill:#F3B607;" d="M59,42.726v3.319C67.174,52.653,74.03,60.827,77,70l4-5l6,2
				C82.643,54.406,73.113,46.493,59,42.726z"/>
		</g>
		<g>
			<path style="fill:#FBE158;" d="M55.07,36c-0.064,0.096-0.076,0.096-0.14,0C44.23,35.46,36,31.04,36,27v13
				c0.853,2.558,5.355,2.934,14.096,2.989C36.486,46.851,27.262,54.681,23,67l6-2l4,5c2.97-9.173,9.826-17.347,18-23.955V55h8
				v-8.933c2.628,2.128,5.13,4.405,7.401,6.837l5.067-5.067c-3.393-2.022-7.243-3.63-11.525-4.848
				C68.658,42.932,73.149,42.554,74,40V27C74,31.04,65.77,35.46,55.07,36z"/>
		</g>
	</g>
</g>
</svg>
