<?xml version="1.0" encoding="iso-8859-1"?>
<!-- Generator: Adobe Illustrator 17.1.0, SVG Export Plug-In . SVG Version: 6.00 Build 0)  -->
<!DOCTYPE svg PUBLIC "-//W3C//DTD SVG 1.0//EN" "http://www.w3.org/TR/2001/REC-SVG-20010904/DTD/svg10.dtd">
<svg version="1.0" xmlns="http://www.w3.org/2000/svg" xmlns:xlink="http://www.w3.org/1999/xlink" x="0px" y="0px" width="110px"
	 height="110px" viewBox="0 0 110 110" style="enable-background:new 0 0 110 110;" xml:space="preserve">
<g id="Artboard" style="display:none;">
	
		<rect x="-712.5" y="-418.5" style="display:inline;fill:#808080;stroke:#000000;stroke-miterlimit:10;" width="1392" height="1369"/>
</g>
<g id="R-Multicolor">
	<circle style="fill:#FABC3D;" cx="55" cy="55" r="55"/>
	<g>
		<g>
			<g>
				<path style="fill:#84462D;" d="M54.115,83c-16.462,0.001-31.97-10.702-31.061-30.463c0.595-12.96,10.208-23.112,21.884-23.112
					c3.377,0,6.725,0.666,9.843,1.894c3.208-1.234,6.709-1.894,10.329-1.894c5.521,0,10.824,2.276,14.933,6.41
					C84.502,40.321,87.037,46.504,87,52.8C86.888,71.393,71.55,83,54.115,83z M43.451,39.702c-5.474,0.877-9.938,6.507-10.25,13.301
					c-1.247,27.139,43.481,25.956,43.639-0.264c0.022-3.611-1.437-7.161-4.002-9.742c-1.935-1.947-4.307-3.12-6.763-3.365
					c4.329,5.477,6.08,12.423,3.858,18.876c-0.914,2.652-3.806,4.061-6.456,3.149c-2.653-0.914-4.062-3.804-3.149-6.456
					c1.25-3.628-0.584-7.004-1.789-8.692c-1.036-1.452-2.322-2.717-3.778-3.755c-1.39,0.988-2.599,2.188-3.567,3.568
					c-1.17,1.668-2.929,5.03-1.562,8.801c0.956,2.637-0.407,5.55-3.045,6.506c-2.639,0.956-5.551-0.408-6.506-3.045
					C37.865,52.472,39.005,45.526,43.451,39.702z"/>
			</g>
		</g>
		<g>
			<path style="fill:#9C6144;" d="M65.11,29.425c-3.621,0-7.121,0.66-10.329,1.894c-3.118-1.228-6.466-1.894-9.843-1.894
				c-11.676,0-21.289,10.152-21.884,23.112c-0.462,10.048,3.335,18.475,10.724,24.019l7.289-7.289
				c-3.864-2.466-8.279-7.267-7.865-16.263c0.312-6.793,4.775-12.424,10.25-13.301c-4.495,5.891-5.561,12.839-3.371,18.882
				c0.955,2.637,3.867,4.001,6.506,3.045c2.637-0.956,4.001-3.869,3.045-6.506c-1.366-3.771,0.392-7.133,1.562-8.801
				c0.968-1.381,2.178-2.58,3.568-3.568c1.456,1.038,2.743,2.302,3.778,3.755c0.587,0.823,1.322,2.049,1.778,3.508l7.635-7.635
				c-0.579-0.985-1.144-1.823-1.877-2.75c1.23,0.123,2.438,0.478,3.581,1.046l7.377-7.377C73.483,30.789,69.364,29.425,65.11,29.425
				z"/>
		</g>
		<g>
			<g>
				
					<ellipse transform="matrix(0.9997 0.0264 -0.0264 0.9997 0.94 -1.1002)" style="fill:#D4A263;" cx="42.09" cy="35.012" rx="1.016" ry="1.524"/>
			</g>
		</g>
		<g>
			<g>
				
					<ellipse transform="matrix(0.8602 -0.51 0.51 0.8602 -14.3767 22.8375)" style="fill:#D4A263;" cx="34.464" cy="37.64" rx="1.016" ry="1.524"/>
			</g>
		</g>
		<g>
			<g>
				
					<ellipse transform="matrix(0.4565 -0.8897 0.8897 0.4565 -23.3047 50.9249)" style="fill:#D4A263;" cx="30.032" cy="44.538" rx="1.016" ry="1.524"/>
			</g>
		</g>
		<g>
			<g>
				
					<ellipse transform="matrix(-0.1155 -0.9933 0.9933 -0.1155 -19.8935 85.4217)" style="fill:#D4A263;" cx="28.085" cy="51.568" rx="1.016" ry="1.524"/>
			</g>
		</g>
		<g>
			<g>
				
					<ellipse transform="matrix(-0.9997 0.0264 -0.0264 -0.9997 136.7664 68.2162)" style="fill:#D4A263;" cx="67.932" cy="35.012" rx="1.016" ry="1.524"/>
			</g>
		</g>
		<g>
			<g>
				
					<ellipse transform="matrix(-0.8602 -0.51 0.51 -0.8602 121.3588 108.5495)" style="fill:#D4A263;" cx="75.558" cy="37.64" rx="1.016" ry="1.524"/>
			</g>
		</g>
		<g>
			<g>
				
					<ellipse transform="matrix(-0.4565 -0.8897 0.8897 -0.4565 76.8829 136.0399)" style="fill:#D4A263;" cx="79.991" cy="44.538" rx="1.016" ry="1.524"/>
			</g>
		</g>
		<g>
			<g>
				
					<ellipse transform="matrix(0.1155 -0.9933 0.9933 0.1155 21.2502 127.0004)" style="fill:#D4A263;" cx="81.938" cy="51.568" rx="1.016" ry="1.524"/>
			</g>
		</g>
	</g>
</g>
<g id="Multicolor" style="display:none;">
	<g style="display:inline;">
		<g>
			<g>
				<path style="fill:#84462D;" d="M54.115,83c-16.462,0.001-31.97-10.702-31.061-30.463c0.595-12.96,10.208-23.112,21.884-23.112
					c3.377,0,6.725,0.666,9.843,1.894c3.208-1.234,6.709-1.894,10.329-1.894c5.521,0,10.824,2.276,14.933,6.41
					C84.502,40.321,87.037,46.504,87,52.8C86.888,71.393,71.55,83,54.115,83z M43.451,39.702c-5.474,0.877-9.938,6.507-10.25,13.301
					c-1.247,27.139,43.481,25.956,43.639-0.264c0.022-3.611-1.437-7.161-4.002-9.742c-1.935-1.947-4.307-3.12-6.763-3.365
					c4.329,5.477,6.08,12.423,3.858,18.876c-0.914,2.652-3.806,4.061-6.456,3.149c-2.653-0.914-4.062-3.804-3.149-6.456
					c1.25-3.628-0.584-7.004-1.789-8.692c-1.036-1.452-2.322-2.717-3.778-3.755c-1.39,0.988-2.599,2.188-3.567,3.568
					c-1.17,1.668-2.929,5.03-1.562,8.801c0.956,2.637-0.407,5.55-3.045,6.506c-2.639,0.956-5.551-0.408-6.506-3.045
					C37.865,52.472,39.005,45.526,43.451,39.702z"/>
			</g>
		</g>
		<g>
			<path style="fill:#9C6144;" d="M65.11,29.425c-3.621,0-7.121,0.66-10.329,1.894c-3.118-1.228-6.466-1.894-9.843-1.894
				c-11.676,0-21.289,10.152-21.884,23.112c-0.462,10.048,3.335,18.475,10.724,24.019l7.289-7.289
				c-3.864-2.466-8.279-7.267-7.865-16.263c0.312-6.793,4.775-12.424,10.25-13.301c-4.495,5.891-5.561,12.839-3.371,18.882
				c0.955,2.637,3.867,4.001,6.506,3.045c2.637-0.956,4.001-3.869,3.045-6.506c-1.366-3.771,0.392-7.133,1.562-8.801
				c0.968-1.381,2.178-2.58,3.568-3.568c1.456,1.038,2.743,2.302,3.778,3.755c0.587,0.823,1.322,2.049,1.778,3.508l7.635-7.635
				c-0.579-0.985-1.144-1.823-1.877-2.75c1.23,0.123,2.438,0.478,3.581,1.046l7.377-7.377C73.483,30.789,69.364,29.425,65.11,29.425
				z"/>
		</g>
		<g>
			<g>
				
					<ellipse transform="matrix(0.9997 0.0264 -0.0264 0.9997 0.94 -1.1002)" style="fill:#D4A263;" cx="42.09" cy="35.012" rx="1.016" ry="1.524"/>
			</g>
		</g>
		<g>
			<g>
				
					<ellipse transform="matrix(0.8602 -0.51 0.51 0.8602 -14.3767 22.8375)" style="fill:#D4A263;" cx="34.464" cy="37.64" rx="1.016" ry="1.524"/>
			</g>
		</g>
		<g>
			<g>
				
					<ellipse transform="matrix(0.4565 -0.8897 0.8897 0.4565 -23.3047 50.9249)" style="fill:#D4A263;" cx="30.032" cy="44.538" rx="1.016" ry="1.524"/>
			</g>
		</g>
		<g>
			<g>
				
					<ellipse transform="matrix(-0.1155 -0.9933 0.9933 -0.1155 -19.8935 85.4217)" style="fill:#D4A263;" cx="28.085" cy="51.568" rx="1.016" ry="1.524"/>
			</g>
		</g>
		<g>
			<g>
				
					<ellipse transform="matrix(-0.9997 0.0264 -0.0264 -0.9997 136.7664 68.2162)" style="fill:#D4A263;" cx="67.932" cy="35.012" rx="1.016" ry="1.524"/>
			</g>
		</g>
		<g>
			<g>
				
					<ellipse transform="matrix(-0.8602 -0.51 0.51 -0.8602 121.3588 108.5495)" style="fill:#D4A263;" cx="75.558" cy="37.64" rx="1.016" ry="1.524"/>
			</g>
		</g>
		<g>
			<g>
				
					<ellipse transform="matrix(-0.4565 -0.8897 0.8897 -0.4565 76.8829 136.0399)" style="fill:#D4A263;" cx="79.991" cy="44.538" rx="1.016" ry="1.524"/>
			</g>
		</g>
		<g>
			<g>
				
					<ellipse transform="matrix(0.1155 -0.9933 0.9933 0.1155 21.2502 127.0004)" style="fill:#D4A263;" cx="81.938" cy="51.568" rx="1.016" ry="1.524"/>
			</g>
		</g>
	</g>
</g>
<g id="Blue" style="display:none;">
	<g style="display:inline;">
		<g>
			<g>
				<path style="fill:#0081A1;" d="M54.115,83c-16.462,0.002-31.97-10.702-31.061-30.463c0.596-12.96,10.208-23.112,21.884-23.112
					c3.377,0,6.725,0.666,9.844,1.894c3.208-1.234,6.708-1.894,10.329-1.894c5.521,0,10.824,2.276,14.933,6.411
					c4.459,4.485,6.994,10.669,6.957,16.965C86.888,71.394,71.551,83,54.115,83z M43.451,39.702
					c-5.475,0.877-9.938,6.508-10.249,13.301c-1.247,27.139,43.481,25.956,43.639-0.264c0.021-3.61-1.437-7.161-4.003-9.742
					c-1.935-1.947-4.307-3.12-6.763-3.365c4.329,5.478,6.079,12.423,3.857,18.876c-0.914,2.652-3.806,4.061-6.456,3.149
					c-2.653-0.914-4.062-3.804-3.15-6.457c1.25-3.628-0.584-7.003-1.788-8.692c-1.036-1.452-2.322-2.718-3.778-3.755
					c-1.39,0.988-2.6,2.188-3.567,3.568c-1.171,1.668-2.929,5.03-1.562,8.801c0.956,2.637-0.407,5.55-3.045,6.506
					c-2.639,0.957-5.551-0.408-6.506-3.044C37.865,52.472,39.005,45.526,43.451,39.702z"/>
			</g>
		</g>
		<g>
			<path style="fill:#009FC7;" d="M65.11,29.425c-3.621,0-7.122,0.66-10.329,1.894c-3.119-1.228-6.467-1.894-9.844-1.894
				c-11.676,0-21.288,10.152-21.884,23.112c-0.462,10.048,3.335,18.475,10.724,24.019l7.289-7.289
				c-3.863-2.466-8.278-7.268-7.864-16.264c0.312-6.793,4.775-12.424,10.249-13.301c-4.495,5.891-5.561,12.839-3.371,18.882
				c0.955,2.637,3.867,4.001,6.506,3.044c2.638-0.956,4.001-3.869,3.045-6.506c-1.366-3.771,0.392-7.132,1.562-8.801
				c0.968-1.381,2.178-2.58,3.567-3.568c1.456,1.037,2.742,2.303,3.778,3.755c0.587,0.823,1.321,2.049,1.777,3.508l7.635-7.635
				c-0.579-0.985-1.144-1.823-1.876-2.75c1.229,0.123,2.438,0.478,3.58,1.046l7.377-7.377C73.483,30.789,69.364,29.425,65.11,29.425
				z"/>
		</g>
		<g>
			<g>
				
					<ellipse transform="matrix(0.9997 0.0264 -0.0264 0.9997 0.94 -1.1001)" style="fill:#BBE7F2;" cx="42.09" cy="35.012" rx="1.016" ry="1.523"/>
			</g>
		</g>
		<g>
			<g>
				
					<ellipse transform="matrix(0.8602 -0.5099 0.5099 0.8602 -14.3757 22.8344)" style="fill:#BBE7F2;" cx="34.464" cy="37.64" rx="1.015" ry="1.524"/>
			</g>
		</g>
		<g>
			<g>
				
					<ellipse transform="matrix(0.4566 -0.8897 0.8897 0.4566 -23.3052 50.9212)" style="fill:#BBE7F2;" cx="30.032" cy="44.539" rx="1.016" ry="1.523"/>
			</g>
		</g>
		<g>
			<g>
				
					<ellipse transform="matrix(-0.1154 -0.9933 0.9933 -0.1154 -19.899 85.4139)" style="fill:#BBE7F2;" cx="28.085" cy="51.568" rx="1.016" ry="1.524"/>
			</g>
		</g>
		<g>
			<g>
				
					<ellipse transform="matrix(-0.9997 0.0264 -0.0264 -0.9997 136.7668 68.2169)" style="fill:#BBE7F2;" cx="67.933" cy="35.012" rx="1.016" ry="1.523"/>
			</g>
		</g>
		<g>
			<g>
				
					<ellipse transform="matrix(-0.8603 -0.5097 0.5097 -0.8603 121.3797 108.5362)" style="fill:#BBE7F2;" cx="75.559" cy="37.64" rx="1.016" ry="1.524"/>
			</g>
		</g>
		<g>
			<g>
				
					<ellipse transform="matrix(-0.4566 -0.8897 0.8897 -0.4566 76.8944 136.041)" style="fill:#BBE7F2;" cx="79.991" cy="44.539" rx="1.016" ry="1.524"/>
			</g>
		</g>
		<g>
			<g>
				
					<ellipse transform="matrix(0.1154 -0.9933 0.9933 0.1154 21.2584 127.007)" style="fill:#BBE7F2;" cx="81.938" cy="51.568" rx="1.016" ry="1.524"/>
			</g>
		</g>
	</g>
</g>
<g id="R-Blue" style="display:none;">
	<circle style="display:inline;fill:#81D2EB;" cx="55" cy="55" r="55"/>
	<g style="display:inline;">
		<g>
			<g>
				<path style="fill:#0081A1;" d="M54.115,83c-16.462,0.001-31.97-10.702-31.061-30.463c0.596-12.96,10.208-23.112,21.884-23.112
					c3.377,0,6.725,0.666,9.844,1.894c3.208-1.234,6.708-1.894,10.329-1.894c5.521,0,10.824,2.276,14.933,6.411
					c4.459,4.485,6.994,10.669,6.957,16.965C86.888,71.394,71.551,83,54.115,83z M43.451,39.702
					c-5.475,0.877-9.938,6.508-10.249,13.301c-1.247,27.139,43.481,25.956,43.639-0.264c0.021-3.61-1.437-7.161-4.003-9.742
					c-1.935-1.947-4.307-3.12-6.763-3.365c4.329,5.478,6.079,12.423,3.857,18.876c-0.914,2.652-3.806,4.061-6.456,3.149
					c-2.653-0.914-4.062-3.804-3.15-6.457c1.25-3.628-0.584-7.003-1.788-8.692c-1.036-1.452-2.322-2.718-3.778-3.755
					c-1.39,0.988-2.6,2.188-3.567,3.568c-1.171,1.668-2.929,5.03-1.562,8.801c0.956,2.637-0.407,5.55-3.045,6.506
					c-2.639,0.957-5.551-0.408-6.506-3.044C37.865,52.472,39.005,45.526,43.451,39.702z"/>
			</g>
		</g>
		<g>
			<path style="fill:#009FC7;" d="M65.11,29.425c-3.621,0-7.122,0.66-10.329,1.894c-3.119-1.228-6.467-1.894-9.844-1.894
				c-11.676,0-21.288,10.152-21.884,23.112c-0.462,10.048,3.335,18.475,10.724,24.019l7.289-7.289
				c-3.863-2.466-8.278-7.268-7.864-16.264c0.312-6.793,4.775-12.424,10.249-13.301c-4.495,5.891-5.561,12.839-3.371,18.882
				c0.955,2.637,3.867,4.001,6.506,3.044c2.638-0.956,4.001-3.869,3.045-6.506c-1.366-3.771,0.392-7.132,1.562-8.801
				c0.968-1.381,2.178-2.58,3.567-3.568c1.456,1.037,2.742,2.303,3.778,3.755c0.587,0.823,1.321,2.049,1.777,3.508l7.635-7.635
				c-0.579-0.985-1.144-1.823-1.876-2.75c1.229,0.123,2.438,0.478,3.58,1.046l7.377-7.377C73.483,30.789,69.364,29.425,65.11,29.425
				z"/>
		</g>
		<g>
			<g>
				
					<ellipse transform="matrix(0.9997 0.0264 -0.0264 0.9997 0.94 -1.1001)" style="fill:#BBE7F2;" cx="42.09" cy="35.012" rx="1.016" ry="1.523"/>
			</g>
		</g>
		<g>
			<g>
				
					<ellipse transform="matrix(0.8602 -0.5099 0.5099 0.8602 -14.3757 22.8344)" style="fill:#BBE7F2;" cx="34.464" cy="37.64" rx="1.015" ry="1.524"/>
			</g>
		</g>
		<g>
			<g>
				
					<ellipse transform="matrix(0.4566 -0.8897 0.8897 0.4566 -23.3052 50.9212)" style="fill:#BBE7F2;" cx="30.032" cy="44.539" rx="1.016" ry="1.523"/>
			</g>
		</g>
		<g>
			<g>
				
					<ellipse transform="matrix(-0.1154 -0.9933 0.9933 -0.1154 -19.899 85.4139)" style="fill:#BBE7F2;" cx="28.085" cy="51.568" rx="1.016" ry="1.524"/>
			</g>
		</g>
		<g>
			<g>
				
					<ellipse transform="matrix(-0.9997 0.0264 -0.0264 -0.9997 136.7668 68.2169)" style="fill:#BBE7F2;" cx="67.933" cy="35.012" rx="1.016" ry="1.523"/>
			</g>
		</g>
		<g>
			<g>
				
					<ellipse transform="matrix(-0.8603 -0.5097 0.5097 -0.8603 121.3797 108.5362)" style="fill:#BBE7F2;" cx="75.559" cy="37.64" rx="1.016" ry="1.524"/>
			</g>
		</g>
		<g>
			<g>
				
					<ellipse transform="matrix(-0.4566 -0.8897 0.8897 -0.4566 76.8944 136.041)" style="fill:#BBE7F2;" cx="79.991" cy="44.539" rx="1.016" ry="1.524"/>
			</g>
		</g>
		<g>
			<g>
				
					<ellipse transform="matrix(0.1154 -0.9933 0.9933 0.1154 21.2584 127.007)" style="fill:#BBE7F2;" cx="81.938" cy="51.568" rx="1.016" ry="1.524"/>
			</g>
		</g>
	</g>
</g>
<g id="Green" style="display:none;">
	<g style="display:inline;">
		<g>
			<g>
				<path style="fill:#009687;" d="M54.115,83c-16.462,0.002-31.97-10.702-31.061-30.463c0.596-12.96,10.208-23.112,21.884-23.112
					c3.377,0,6.725,0.666,9.844,1.894c3.208-1.234,6.708-1.894,10.329-1.894c5.521,0,10.824,2.276,14.933,6.411
					c4.459,4.485,6.994,10.669,6.957,16.965C86.888,71.394,71.551,83,54.115,83z M43.451,39.702
					c-5.475,0.877-9.938,6.508-10.249,13.301c-1.247,27.139,43.48,25.956,43.639-0.264c0.021-3.61-1.437-7.161-4.003-9.742
					c-1.935-1.947-4.307-3.12-6.763-3.365c4.329,5.478,6.079,12.423,3.857,18.876c-0.914,2.652-3.806,4.061-6.456,3.149
					c-2.653-0.914-4.062-3.804-3.15-6.457c1.25-3.628-0.584-7.003-1.788-8.692c-1.036-1.452-2.322-2.718-3.778-3.755
					c-1.39,0.988-2.6,2.188-3.567,3.568c-1.171,1.668-2.929,5.03-1.562,8.801c0.956,2.637-0.407,5.55-3.045,6.506
					c-2.639,0.957-5.551-0.408-6.506-3.044C37.865,52.472,39.005,45.526,43.451,39.702z"/>
			</g>
		</g>
		<g>
			<path style="fill:#00B8A5;" d="M65.11,29.425c-3.621,0-7.122,0.66-10.329,1.894c-3.119-1.228-6.467-1.894-9.844-1.894
				c-11.676,0-21.288,10.152-21.884,23.112c-0.462,10.048,3.335,18.475,10.724,24.019l7.289-7.289
				c-3.863-2.466-8.278-7.268-7.864-16.264c0.312-6.793,4.775-12.424,10.249-13.301c-4.495,5.891-5.561,12.839-3.371,18.882
				c0.955,2.637,3.867,4.001,6.506,3.044c2.638-0.956,4.001-3.869,3.045-6.506c-1.366-3.771,0.392-7.132,1.562-8.801
				c0.968-1.381,2.178-2.58,3.567-3.568c1.456,1.037,2.742,2.303,3.778,3.755c0.587,0.823,1.321,2.049,1.777,3.508l7.635-7.635
				c-0.579-0.985-1.144-1.823-1.876-2.75c1.229,0.123,2.438,0.478,3.58,1.046l7.377-7.377C73.483,30.789,69.364,29.425,65.11,29.425
				z"/>
		</g>
		<g>
			<g>
				
					<ellipse transform="matrix(0.9997 0.0264 -0.0264 0.9997 0.94 -1.1001)" style="fill:#AAF0E9;" cx="42.09" cy="35.012" rx="1.016" ry="1.523"/>
			</g>
		</g>
		<g>
			<g>
				
					<ellipse transform="matrix(0.8602 -0.5099 0.5099 0.8602 -14.3757 22.8344)" style="fill:#AAF0E9;" cx="34.464" cy="37.64" rx="1.015" ry="1.524"/>
			</g>
		</g>
		<g>
			<g>
				
					<ellipse transform="matrix(0.4566 -0.8897 0.8897 0.4566 -23.3052 50.9212)" style="fill:#AAF0E9;" cx="30.032" cy="44.539" rx="1.016" ry="1.523"/>
			</g>
		</g>
		<g>
			<g>
				
					<ellipse transform="matrix(-0.1154 -0.9933 0.9933 -0.1154 -19.899 85.4139)" style="fill:#AAF0E9;" cx="28.085" cy="51.568" rx="1.016" ry="1.524"/>
			</g>
		</g>
		<g>
			<g>
				
					<ellipse transform="matrix(-0.9997 0.0264 -0.0264 -0.9997 136.7668 68.2169)" style="fill:#AAF0E9;" cx="67.933" cy="35.012" rx="1.016" ry="1.523"/>
			</g>
		</g>
		<g>
			<g>
				
					<ellipse transform="matrix(-0.8603 -0.5097 0.5097 -0.8603 121.3797 108.5362)" style="fill:#AAF0E9;" cx="75.559" cy="37.64" rx="1.016" ry="1.524"/>
			</g>
		</g>
		<g>
			<g>
				
					<ellipse transform="matrix(-0.4566 -0.8897 0.8897 -0.4566 76.8944 136.041)" style="fill:#AAF0E9;" cx="79.991" cy="44.539" rx="1.016" ry="1.524"/>
			</g>
		</g>
		<g>
			<g>
				
					<ellipse transform="matrix(0.1154 -0.9933 0.9933 0.1154 21.2584 127.007)" style="fill:#AAF0E9;" cx="81.938" cy="51.568" rx="1.016" ry="1.524"/>
			</g>
		</g>
	</g>
</g>
<g id="R-Green" style="display:none;">
	<circle style="display:inline;fill:#77E0C4;" cx="55" cy="55" r="55"/>
	<g style="display:inline;">
		<g>
			<g>
				<path style="fill:#009687;" d="M54.115,83c-16.462,0.002-31.97-10.702-31.062-30.463c0.596-12.96,10.208-23.112,21.884-23.112
					c3.377,0,6.725,0.666,9.844,1.894c3.208-1.234,6.708-1.894,10.329-1.894c5.521,0,10.824,2.276,14.933,6.411
					c4.459,4.485,6.994,10.669,6.957,16.965C86.888,71.394,71.551,83,54.115,83z M43.451,39.702
					c-5.475,0.877-9.938,6.508-10.249,13.301c-1.247,27.139,43.481,25.956,43.639-0.264c0.021-3.61-1.437-7.161-4.003-9.742
					c-1.935-1.947-4.307-3.12-6.763-3.365c4.329,5.478,6.079,12.423,3.857,18.876c-0.914,2.652-3.806,4.061-6.456,3.149
					c-2.653-0.914-4.062-3.804-3.15-6.457c1.25-3.628-0.584-7.003-1.788-8.692c-1.036-1.452-2.322-2.718-3.778-3.755
					c-1.39,0.988-2.6,2.188-3.567,3.568c-1.171,1.668-2.929,5.03-1.562,8.801c0.956,2.637-0.407,5.55-3.045,6.506
					c-2.639,0.957-5.551-0.408-6.506-3.044C37.865,52.472,39.005,45.526,43.451,39.702z"/>
			</g>
		</g>
		<g>
			<path style="fill:#00B8A5;" d="M65.11,29.425c-3.621,0-7.122,0.66-10.329,1.894c-3.119-1.228-6.467-1.894-9.844-1.894
				c-11.676,0-21.288,10.152-21.884,23.112c-0.462,10.048,3.335,18.475,10.724,24.019l7.289-7.289
				c-3.863-2.466-8.278-7.268-7.864-16.264c0.312-6.793,4.775-12.424,10.249-13.301c-4.495,5.891-5.561,12.839-3.371,18.882
				c0.955,2.637,3.867,4.001,6.506,3.044c2.638-0.956,4.001-3.869,3.045-6.506c-1.366-3.771,0.392-7.132,1.562-8.801
				c0.968-1.381,2.178-2.58,3.567-3.568c1.456,1.037,2.742,2.303,3.778,3.755c0.587,0.823,1.321,2.049,1.777,3.508l7.635-7.635
				c-0.579-0.985-1.144-1.823-1.876-2.75c1.229,0.123,2.438,0.478,3.58,1.046l7.377-7.377C73.483,30.789,69.364,29.425,65.11,29.425
				z"/>
		</g>
		<g>
			<g>
				
					<ellipse transform="matrix(0.9997 0.0264 -0.0264 0.9997 0.94 -1.1001)" style="fill:#AAF0E9;" cx="42.09" cy="35.012" rx="1.016" ry="1.523"/>
			</g>
		</g>
		<g>
			<g>
				
					<ellipse transform="matrix(0.8602 -0.5099 0.5099 0.8602 -14.3757 22.8344)" style="fill:#AAF0E9;" cx="34.464" cy="37.64" rx="1.015" ry="1.524"/>
			</g>
		</g>
		<g>
			<g>
				
					<ellipse transform="matrix(0.4566 -0.8897 0.8897 0.4566 -23.3052 50.9212)" style="fill:#AAF0E9;" cx="30.032" cy="44.539" rx="1.016" ry="1.523"/>
			</g>
		</g>
		<g>
			<g>
				
					<ellipse transform="matrix(-0.1154 -0.9933 0.9933 -0.1154 -19.899 85.4139)" style="fill:#AAF0E9;" cx="28.085" cy="51.568" rx="1.016" ry="1.524"/>
			</g>
		</g>
		<g>
			<g>
				
					<ellipse transform="matrix(-0.9997 0.0264 -0.0264 -0.9997 136.7668 68.2169)" style="fill:#AAF0E9;" cx="67.933" cy="35.012" rx="1.016" ry="1.523"/>
			</g>
		</g>
		<g>
			<g>
				
					<ellipse transform="matrix(-0.8603 -0.5097 0.5097 -0.8603 121.3797 108.5362)" style="fill:#AAF0E9;" cx="75.559" cy="37.64" rx="1.016" ry="1.524"/>
			</g>
		</g>
		<g>
			<g>
				
					<ellipse transform="matrix(-0.4566 -0.8897 0.8897 -0.4566 76.8944 136.041)" style="fill:#AAF0E9;" cx="79.991" cy="44.539" rx="1.016" ry="1.524"/>
			</g>
		</g>
		<g>
			<g>
				
					<ellipse transform="matrix(0.1154 -0.9933 0.9933 0.1154 21.2584 127.007)" style="fill:#AAF0E9;" cx="81.938" cy="51.568" rx="1.016" ry="1.524"/>
			</g>
		</g>
	</g>
</g>
<g id="Red" style="display:none;">
	<g style="display:inline;">
		<g>
			<g>
				<path style="fill:#C23023;" d="M54.115,83c-16.462,0.002-31.97-10.702-31.062-30.463c0.596-12.96,10.208-23.112,21.884-23.112
					c3.377,0,6.725,0.666,9.844,1.894c3.208-1.234,6.708-1.894,10.329-1.894c5.521,0,10.824,2.276,14.933,6.411
					c4.459,4.485,6.994,10.669,6.957,16.965C86.888,71.394,71.551,83,54.115,83z M43.451,39.702
					c-5.475,0.877-9.938,6.508-10.249,13.301c-1.247,27.139,43.48,25.956,43.639-0.264c0.022-3.61-1.437-7.161-4.003-9.742
					c-1.935-1.947-4.307-3.12-6.763-3.365c4.329,5.478,6.079,12.423,3.857,18.876c-0.914,2.652-3.806,4.061-6.456,3.149
					c-2.653-0.914-4.062-3.804-3.149-6.457c1.25-3.628-0.584-7.003-1.788-8.692c-1.036-1.452-2.322-2.718-3.778-3.755
					c-1.39,0.988-2.6,2.188-3.567,3.568c-1.171,1.668-2.929,5.03-1.562,8.801c0.956,2.637-0.407,5.55-3.045,6.506
					c-2.639,0.957-5.551-0.408-6.506-3.044C37.865,52.472,39.005,45.526,43.451,39.702z"/>
			</g>
		</g>
		<g>
			<path style="fill:#E54B44;" d="M65.11,29.425c-3.621,0-7.122,0.66-10.329,1.894c-3.119-1.228-6.467-1.894-9.844-1.894
				c-11.676,0-21.288,10.152-21.884,23.112c-0.462,10.048,3.335,18.475,10.724,24.019l7.289-7.289
				c-3.863-2.466-8.278-7.268-7.864-16.264c0.312-6.793,4.775-12.424,10.249-13.301c-4.495,5.891-5.561,12.839-3.371,18.882
				c0.955,2.637,3.867,4.001,6.506,3.044c2.638-0.956,4.001-3.869,3.045-6.506c-1.366-3.771,0.392-7.132,1.562-8.801
				c0.968-1.381,2.178-2.58,3.567-3.568c1.456,1.037,2.742,2.303,3.778,3.755c0.587,0.823,1.321,2.049,1.777,3.508l7.635-7.635
				c-0.579-0.985-1.144-1.823-1.876-2.75c1.229,0.123,2.438,0.478,3.58,1.046l7.377-7.377C73.483,30.789,69.364,29.425,65.11,29.425
				z"/>
		</g>
		<g>
			<g>
				
					<ellipse transform="matrix(0.9997 0.0264 -0.0264 0.9997 0.94 -1.1001)" style="fill:#FFD7D4;" cx="42.09" cy="35.012" rx="1.016" ry="1.523"/>
			</g>
		</g>
		<g>
			<g>
				
					<ellipse transform="matrix(0.8602 -0.5099 0.5099 0.8602 -14.3757 22.8344)" style="fill:#FFD7D4;" cx="34.464" cy="37.64" rx="1.015" ry="1.524"/>
			</g>
		</g>
		<g>
			<g>
				
					<ellipse transform="matrix(0.4566 -0.8897 0.8897 0.4566 -23.3052 50.9211)" style="fill:#FFD7D4;" cx="30.032" cy="44.539" rx="1.016" ry="1.523"/>
			</g>
		</g>
		<g>
			<g>
				
					<ellipse transform="matrix(-0.1154 -0.9933 0.9933 -0.1154 -19.8991 85.4139)" style="fill:#FFD7D4;" cx="28.085" cy="51.568" rx="1.016" ry="1.524"/>
			</g>
		</g>
		<g>
			<g>
				
					<ellipse transform="matrix(-0.9997 0.0264 -0.0264 -0.9997 136.7668 68.2169)" style="fill:#FFD7D4;" cx="67.933" cy="35.012" rx="1.016" ry="1.523"/>
			</g>
		</g>
		<g>
			<g>
				
					<ellipse transform="matrix(-0.8603 -0.5097 0.5097 -0.8603 121.3794 108.5364)" style="fill:#FFD7D4;" cx="75.559" cy="37.64" rx="1.016" ry="1.524"/>
			</g>
		</g>
		<g>
			<g>
				
					<ellipse transform="matrix(-0.4566 -0.8896 0.8896 -0.4566 76.8949 136.041)" style="fill:#FFD7D4;" cx="79.991" cy="44.539" rx="1.016" ry="1.524"/>
			</g>
		</g>
		<g>
			<g>
				
					<ellipse transform="matrix(0.1154 -0.9933 0.9933 0.1154 21.2584 127.007)" style="fill:#FFD7D4;" cx="81.938" cy="51.568" rx="1.016" ry="1.524"/>
			</g>
		</g>
	</g>
</g>
<g id="R-Red" style="display:none;">
	<circle style="display:inline;fill:#FABBAF;" cx="55" cy="55" r="55"/>
	<g style="display:inline;">
		<g>
			<g>
				<path style="fill:#C23023;" d="M54.115,83c-16.462,0.002-31.97-10.702-31.062-30.463c0.596-12.96,10.208-23.112,21.884-23.112
					c3.377,0,6.725,0.666,9.844,1.894c3.208-1.234,6.708-1.894,10.329-1.894c5.521,0,10.824,2.276,14.933,6.411
					c4.459,4.485,6.994,10.669,6.957,16.965C86.888,71.394,71.551,83,54.115,83z M43.451,39.702
					c-5.475,0.877-9.938,6.508-10.249,13.301c-1.247,27.139,43.48,25.956,43.639-0.264c0.022-3.61-1.437-7.161-4.003-9.742
					c-1.935-1.947-4.307-3.12-6.763-3.365c4.329,5.478,6.079,12.423,3.857,18.876c-0.914,2.652-3.806,4.061-6.456,3.149
					c-2.653-0.914-4.062-3.804-3.149-6.457c1.25-3.628-0.584-7.003-1.788-8.692c-1.036-1.452-2.322-2.718-3.778-3.755
					c-1.39,0.988-2.6,2.188-3.567,3.568c-1.171,1.668-2.929,5.03-1.562,8.801c0.956,2.637-0.407,5.55-3.045,6.506
					c-2.639,0.957-5.551-0.408-6.506-3.044C37.865,52.472,39.005,45.526,43.451,39.702z"/>
			</g>
		</g>
		<g>
			<path style="fill:#E54B44;" d="M65.11,29.425c-3.621,0-7.122,0.66-10.329,1.894c-3.119-1.228-6.467-1.894-9.844-1.894
				c-11.676,0-21.288,10.152-21.884,23.112c-0.462,10.048,3.335,18.475,10.724,24.019l7.289-7.289
				c-3.863-2.466-8.278-7.268-7.864-16.264c0.312-6.793,4.775-12.424,10.249-13.301c-4.495,5.891-5.561,12.839-3.371,18.882
				c0.955,2.637,3.867,4.001,6.506,3.044c2.638-0.956,4.001-3.869,3.045-6.506c-1.366-3.771,0.392-7.132,1.562-8.801
				c0.968-1.381,2.178-2.58,3.567-3.568c1.456,1.037,2.742,2.303,3.778,3.755c0.587,0.823,1.321,2.049,1.777,3.508l7.635-7.635
				c-0.579-0.985-1.144-1.823-1.876-2.75c1.229,0.123,2.438,0.478,3.58,1.046l7.377-7.377C73.483,30.789,69.364,29.425,65.11,29.425
				z"/>
		</g>
		<g>
			<g>
				
					<ellipse transform="matrix(0.9997 0.0264 -0.0264 0.9997 0.94 -1.1001)" style="fill:#FFD7D4;" cx="42.09" cy="35.012" rx="1.016" ry="1.523"/>
			</g>
		</g>
		<g>
			<g>
				
					<ellipse transform="matrix(0.8602 -0.5099 0.5099 0.8602 -14.3757 22.8344)" style="fill:#FFD7D4;" cx="34.464" cy="37.64" rx="1.015" ry="1.524"/>
			</g>
		</g>
		<g>
			<g>
				
					<ellipse transform="matrix(0.4566 -0.8897 0.8897 0.4566 -23.3052 50.9211)" style="fill:#FFD7D4;" cx="30.032" cy="44.539" rx="1.016" ry="1.523"/>
			</g>
		</g>
		<g>
			<g>
				
					<ellipse transform="matrix(-0.1154 -0.9933 0.9933 -0.1154 -19.8991 85.4139)" style="fill:#FFD7D4;" cx="28.085" cy="51.568" rx="1.016" ry="1.524"/>
			</g>
		</g>
		<g>
			<g>
				
					<ellipse transform="matrix(-0.9997 0.0264 -0.0264 -0.9997 136.7668 68.2169)" style="fill:#FFD7D4;" cx="67.933" cy="35.012" rx="1.016" ry="1.523"/>
			</g>
		</g>
		<g>
			<g>
				
					<ellipse transform="matrix(-0.8603 -0.5097 0.5097 -0.8603 121.3794 108.5364)" style="fill:#FFD7D4;" cx="75.559" cy="37.64" rx="1.016" ry="1.524"/>
			</g>
		</g>
		<g>
			<g>
				
					<ellipse transform="matrix(-0.4566 -0.8896 0.8896 -0.4566 76.8949 136.041)" style="fill:#FFD7D4;" cx="79.991" cy="44.539" rx="1.016" ry="1.524"/>
			</g>
		</g>
		<g>
			<g>
				
					<ellipse transform="matrix(0.1154 -0.9933 0.9933 0.1154 21.2584 127.007)" style="fill:#FFD7D4;" cx="81.938" cy="51.568" rx="1.016" ry="1.524"/>
			</g>
		</g>
	</g>
</g>
<g id="Yellow" style="display:none;">
	<g style="display:inline;">
		<g>
			<g>
				<path style="fill:#E07000;" d="M54.115,83c-16.462,0.002-31.97-10.702-31.062-30.463c0.596-12.96,10.208-23.112,21.884-23.112
					c3.377,0,6.725,0.666,9.844,1.894c3.208-1.234,6.708-1.894,10.329-1.894c5.521,0,10.824,2.276,14.933,6.411
					c4.459,4.485,6.994,10.669,6.957,16.965C86.888,71.394,71.551,83,54.115,83z M43.451,39.702
					c-5.475,0.877-9.938,6.508-10.249,13.301c-1.247,27.139,43.481,25.956,43.639-0.264c0.021-3.61-1.437-7.161-4.003-9.742
					c-1.935-1.947-4.307-3.12-6.763-3.365c4.329,5.478,6.079,12.423,3.857,18.876c-0.914,2.652-3.806,4.061-6.456,3.149
					c-2.653-0.914-4.062-3.804-3.15-6.457c1.25-3.628-0.584-7.003-1.788-8.692c-1.036-1.452-2.322-2.718-3.778-3.755
					c-1.39,0.988-2.6,2.188-3.567,3.568c-1.171,1.668-2.929,5.03-1.562,8.801c0.956,2.637-0.407,5.55-3.045,6.506
					c-2.639,0.957-5.551-0.408-6.506-3.044C37.865,52.472,39.005,45.526,43.451,39.702z"/>
			</g>
		</g>
		<g>
			<path style="fill:#FA9200;" d="M65.11,29.425c-3.621,0-7.122,0.66-10.329,1.894c-3.119-1.228-6.467-1.894-9.844-1.894
				c-11.676,0-21.288,10.152-21.884,23.112c-0.462,10.048,3.335,18.475,10.724,24.019l7.289-7.289
				c-3.863-2.466-8.278-7.268-7.864-16.264c0.312-6.793,4.775-12.424,10.249-13.301c-4.495,5.891-5.561,12.839-3.371,18.882
				c0.955,2.637,3.867,4.001,6.506,3.044c2.638-0.956,4.001-3.869,3.045-6.506c-1.366-3.771,0.392-7.132,1.562-8.801
				c0.968-1.381,2.178-2.58,3.567-3.568c1.456,1.037,2.742,2.303,3.778,3.755c0.587,0.823,1.321,2.049,1.777,3.508l7.635-7.635
				c-0.579-0.985-1.144-1.823-1.876-2.75c1.229,0.123,2.438,0.478,3.58,1.046l7.377-7.377C73.483,30.789,69.364,29.425,65.11,29.425
				z"/>
		</g>
		<g>
			<g>
				
					<ellipse transform="matrix(0.9997 0.0264 -0.0264 0.9997 0.94 -1.1001)" style="fill:#FFE9A1;" cx="42.09" cy="35.012" rx="1.016" ry="1.523"/>
			</g>
		</g>
		<g>
			<g>
				
					<ellipse transform="matrix(0.8602 -0.5099 0.5099 0.8602 -14.3757 22.8344)" style="fill:#FFE9A1;" cx="34.464" cy="37.64" rx="1.015" ry="1.524"/>
			</g>
		</g>
		<g>
			<g>
				
					<ellipse transform="matrix(0.4566 -0.8897 0.8897 0.4566 -23.3052 50.9212)" style="fill:#FFE9A1;" cx="30.032" cy="44.539" rx="1.016" ry="1.523"/>
			</g>
		</g>
		<g>
			<g>
				
					<ellipse transform="matrix(-0.1154 -0.9933 0.9933 -0.1154 -19.899 85.4139)" style="fill:#FFE9A1;" cx="28.085" cy="51.568" rx="1.016" ry="1.524"/>
			</g>
		</g>
		<g>
			<g>
				
					<ellipse transform="matrix(-0.9997 0.0264 -0.0264 -0.9997 136.7668 68.2169)" style="fill:#FFE9A1;" cx="67.933" cy="35.012" rx="1.016" ry="1.523"/>
			</g>
		</g>
		<g>
			<g>
				
					<ellipse transform="matrix(-0.8603 -0.5097 0.5097 -0.8603 121.3797 108.5362)" style="fill:#FFE9A1;" cx="75.559" cy="37.64" rx="1.016" ry="1.524"/>
			</g>
		</g>
		<g>
			<g>
				
					<ellipse transform="matrix(-0.4566 -0.8897 0.8897 -0.4566 76.8944 136.041)" style="fill:#FFE9A1;" cx="79.991" cy="44.539" rx="1.016" ry="1.524"/>
			</g>
		</g>
		<g>
			<g>
				
					<ellipse transform="matrix(0.1154 -0.9933 0.9933 0.1154 21.2584 127.007)" style="fill:#FFE9A1;" cx="81.938" cy="51.568" rx="1.016" ry="1.524"/>
			</g>
		</g>
	</g>
</g>
<g id="R-Yellow" style="display:none;">
	<circle style="display:inline;fill:#FFD75E;" cx="55" cy="55" r="55"/>
	<g style="display:inline;">
		<g>
			<g>
				<path style="fill:#E07000;" d="M54.115,83c-16.462,0.002-31.97-10.702-31.061-30.463c0.596-12.96,10.208-23.112,21.884-23.112
					c3.377,0,6.725,0.666,9.844,1.894c3.208-1.234,6.708-1.894,10.329-1.894c5.521,0,10.824,2.276,14.933,6.411
					c4.459,4.485,6.994,10.669,6.957,16.965C86.888,71.394,71.551,83,54.115,83z M43.451,39.702
					c-5.475,0.877-9.938,6.508-10.249,13.301c-1.247,27.139,43.48,25.956,43.639-0.264c0.021-3.61-1.437-7.161-4.003-9.742
					c-1.935-1.947-4.307-3.12-6.763-3.365c4.329,5.478,6.079,12.423,3.857,18.876c-0.914,2.652-3.806,4.061-6.456,3.149
					c-2.653-0.914-4.062-3.804-3.15-6.457c1.25-3.628-0.584-7.003-1.788-8.692c-1.036-1.452-2.322-2.718-3.778-3.755
					c-1.39,0.988-2.6,2.188-3.567,3.568c-1.171,1.668-2.929,5.03-1.562,8.801c0.956,2.637-0.407,5.55-3.045,6.506
					c-2.639,0.957-5.551-0.408-6.506-3.044C37.865,52.472,39.005,45.526,43.451,39.702z"/>
			</g>
		</g>
		<g>
			<path style="fill:#FA9200;" d="M65.11,29.425c-3.621,0-7.122,0.66-10.329,1.894c-3.119-1.228-6.467-1.894-9.844-1.894
				c-11.676,0-21.288,10.152-21.884,23.112c-0.462,10.048,3.335,18.475,10.724,24.019l7.289-7.289
				c-3.863-2.466-8.278-7.268-7.864-16.264c0.312-6.793,4.775-12.424,10.249-13.301c-4.495,5.891-5.561,12.839-3.371,18.882
				c0.955,2.637,3.867,4.001,6.506,3.044c2.638-0.956,4.001-3.869,3.045-6.506c-1.366-3.771,0.392-7.132,1.562-8.801
				c0.968-1.381,2.178-2.58,3.567-3.568c1.456,1.037,2.742,2.303,3.778,3.755c0.587,0.823,1.321,2.049,1.777,3.508l7.635-7.635
				c-0.579-0.985-1.144-1.823-1.876-2.75c1.229,0.123,2.438,0.478,3.58,1.046l7.377-7.377C73.483,30.789,69.364,29.425,65.11,29.425
				z"/>
		</g>
		<g>
			<g>
				
					<ellipse transform="matrix(0.9997 0.0264 -0.0264 0.9997 0.94 -1.1001)" style="fill:#FFE9A1;" cx="42.09" cy="35.012" rx="1.016" ry="1.523"/>
			</g>
		</g>
		<g>
			<g>
				
					<ellipse transform="matrix(0.8602 -0.5099 0.5099 0.8602 -14.3757 22.8344)" style="fill:#FFE9A1;" cx="34.464" cy="37.64" rx="1.015" ry="1.524"/>
			</g>
		</g>
		<g>
			<g>
				
					<ellipse transform="matrix(0.4566 -0.8897 0.8897 0.4566 -23.3052 50.9212)" style="fill:#FFE9A1;" cx="30.032" cy="44.539" rx="1.016" ry="1.523"/>
			</g>
		</g>
		<g>
			<g>
				
					<ellipse transform="matrix(-0.1154 -0.9933 0.9933 -0.1154 -19.899 85.4139)" style="fill:#FFE9A1;" cx="28.085" cy="51.568" rx="1.016" ry="1.524"/>
			</g>
		</g>
		<g>
			<g>
				
					<ellipse transform="matrix(-0.9997 0.0264 -0.0264 -0.9997 136.7668 68.2169)" style="fill:#FFE9A1;" cx="67.933" cy="35.012" rx="1.016" ry="1.523"/>
			</g>
		</g>
		<g>
			<g>
				
					<ellipse transform="matrix(-0.8603 -0.5097 0.5097 -0.8603 121.3797 108.5362)" style="fill:#FFE9A1;" cx="75.559" cy="37.64" rx="1.016" ry="1.524"/>
			</g>
		</g>
		<g>
			<g>
				
					<ellipse transform="matrix(-0.4566 -0.8897 0.8897 -0.4566 76.8944 136.041)" style="fill:#FFE9A1;" cx="79.991" cy="44.539" rx="1.016" ry="1.524"/>
			</g>
		</g>
		<g>
			<g>
				
					<ellipse transform="matrix(0.1154 -0.9933 0.9933 0.1154 21.2584 127.007)" style="fill:#FFE9A1;" cx="81.938" cy="51.568" rx="1.016" ry="1.524"/>
			</g>
		</g>
	</g>
</g>
</svg>
