<?xml version="1.0" encoding="iso-8859-1"?>
<!-- Generator: Adobe Illustrator 17.1.0, SVG Export Plug-In . SVG Version: 6.00 Build 0)  -->
<!DOCTYPE svg PUBLIC "-//W3C//DTD SVG 1.0//EN" "http://www.w3.org/TR/2001/REC-SVG-20010904/DTD/svg10.dtd">
<svg version="1.0" xmlns="http://www.w3.org/2000/svg" xmlns:xlink="http://www.w3.org/1999/xlink" x="0px" y="0px" width="110px"
	 height="110px" viewBox="0 0 110 110" style="enable-background:new 0 0 110 110;" xml:space="preserve">
<g id="Artboard">
</g>
<g id="Multicolor">
	<circle style="fill:#FABC3D;" cx="55" cy="55" r="55"/>
	<g>
		<path style="fill:#0484AB;" d="M87,75c0,2.209-1.791,4-4,4H27c-2.209,0-4-1.791-4-4V51c0-4.418,3.582-8,8-8h48
			c4.418,0,8,3.582,8,8V75z"/>
		<rect x="35" y="31" style="fill:#0484AB;" width="40" height="12"/>
		<polygon style="fill:#FFFFFF;" points="71,31 63,23 39,23 39,43 71,43 		"/>
		<path style="fill:#6FDAF1;" d="M83,51c0-4.418-3.582-8-8-8H35c-4.418,0-8,3.582-8,8v28h56V51z"/>
		<rect x="27" y="55" style="fill:#40C9E7;" width="56" height="24"/>
		<path style="fill:#0484AB;" d="M75,71c0-2.209-1.791-4-4-4H39c-2.209,0-4,1.791-4,4v8h40V71z"/>
		<path style="fill:#FFFFFF;" d="M75,87H35c0-4,1.515-9.59,4-16h32C73.486,77.41,75,83,75,87z"/>
		<path style="fill:#059BBF;" d="M67.04,59H42.96C40.773,59,39,57.227,39,55.04V55h32v0.04C71,57.227,69.227,59,67.04,59z"/>
		<rect x="43" y="80" style="fill:#E2E4E5;" width="24" height="2"/>
		<rect x="45" y="75" style="fill:#E2E4E5;" width="20" height="2"/>
		<circle style="fill:#17B198;" cx="78" cy="50" r="1"/>
		<circle style="fill:#FA5655;" cx="74" cy="50" r="1"/>
		<path style="fill:#9CE5F4;" d="M43.556,55l12-12H35c-4.418,0-8,3.582-8,8v4H43.556z"/>
		<polygon style="fill:#E2E4E5;" points="63,23 63,31 71,31 		"/>
	</g>
</g>
</svg>
