<?xml version="1.0" encoding="iso-8859-1"?>
<!-- Generator: Adobe Illustrator 17.1.0, SVG Export Plug-In . SVG Version: 6.00 Build 0)  -->
<!DOCTYPE svg PUBLIC "-//W3C//DTD SVG 1.0//EN" "http://www.w3.org/TR/2001/REC-SVG-20010904/DTD/svg10.dtd">
<svg version="1.0" xmlns="http://www.w3.org/2000/svg" xmlns:xlink="http://www.w3.org/1999/xlink" x="0px" y="0px" width="110px"
	 height="110px" viewBox="0 0 110 110" style="enable-background:new 0 0 110 110;" xml:space="preserve">
<g id="Artboard">
</g>
<g id="Multicolor">
	<circle style="fill:#25B7D3;" cx="55" cy="55" r="55"/>
	<g>
		<path style="fill:#FACB1B;" d="M86.986,30.289c0.081-0.842-0.197-1.679-0.765-2.305C85.653,27.357,84.846,27,84,27h-9v-4H55H35v4
			h-9c-0.846,0-1.652,0.357-2.221,0.983c-0.568,0.626-0.846,1.463-0.765,2.305C24.529,45.96,34.512,50.318,49.741,54.34
			c3.494,7.103,0.462,15.214-5.181,16.488C43.647,71.034,43,71.841,43,72.777V75h12h12v-2.223c0-0.936-0.647-1.743-1.56-1.949
			c-5.643-1.274-8.675-9.385-5.181-16.488C75.488,50.318,85.471,45.96,86.986,30.289z M75,35.2V33h5.346
			c-0.372,1.363-0.935,3.003-1.772,4.623c-1.432,2.771-3.232,4.745-5.435,5.95C74.328,41.028,75,38.193,75,35.2z M31.426,37.623
			c-0.837-1.62-1.4-3.259-1.772-4.623H35v2.2c0,2.993,0.672,5.828,1.861,8.372C34.658,42.367,32.859,40.393,31.426,37.623z"/>
		<path style="fill:#84462D;" d="M75,85c0,1.105-0.895,2-2,2H37c-1.105,0-2-0.895-2-2v-8c0-1.105,0.895-2,2-2h36
			c1.105,0,2,0.895,2,2V85z"/>
		<rect x="46" y="79" style="fill:#F0F1F1;" width="18" height="4"/>
		<path style="fill:#9C6144;" d="M46,83v-4h9v-4H37c-1.104,0-2,0.896-2,2v8c0,1.104,0.896,2,2,2h18v-4H46z"/>
		<path style="fill:#FBE158;" d="M49.741,54.34c3.494,7.103,0.462,15.214-5.181,16.488C43.647,71.034,43,71.841,43,72.777V75h12V23
			H35v4h-9c-0.846,0-1.652,0.357-2.221,0.983c-0.568,0.626-0.846,1.463-0.765,2.305C24.529,45.96,34.512,50.318,49.741,54.34z
			 M36.861,43.572c-2.203-1.205-4.002-3.179-5.435-5.95c-0.837-1.62-1.4-3.259-1.772-4.623H35v2.2
			C35,38.193,35.673,41.028,36.861,43.572z"/>
		<g>
			<path style="fill:#FFFFFF;" d="M79.915,63.111C79.964,63.104,80,63.062,80,63.013v-0.025c0-0.05-0.036-0.091-0.085-0.099
				c-2.785-0.418-4.386-2.019-4.803-4.803C75.104,58.036,75.062,58,75.013,58h-0.025c-0.05,0-0.091,0.036-0.099,0.085
				c-0.418,2.784-2.019,4.386-4.803,4.803C70.036,62.896,70,62.938,70,62.987v0.025c0,0.05,0.036,0.091,0.085,0.099
				c2.785,0.418,4.386,2.019,4.803,4.803C74.896,67.964,74.938,68,74.988,68h0.036c0.043,0,0.08-0.032,0.087-0.075
				C75.525,65.135,77.127,63.53,79.915,63.111z"/>
		</g>
		<g>
			<path style="fill:#FFFFFF;" d="M39.864,60.178C39.942,60.167,40,60.099,40,60.02V59.98c0-0.079-0.058-0.146-0.136-0.158
				c-4.456-0.669-7.017-3.231-7.685-7.686C32.167,52.058,32.099,52,32.02,52h-0.04c-0.079,0-0.146,0.058-0.158,0.136
				c-0.669,4.455-3.23,7.017-7.686,7.685C24.058,59.833,24,59.901,24,59.98v0.04c0,0.079,0.058,0.146,0.136,0.158
				c4.456,0.669,7.017,3.231,7.685,7.686C31.833,67.942,31.901,68,31.98,68h0.057c0.069,0,0.128-0.051,0.138-0.119
				C32.84,63.416,35.403,60.848,39.864,60.178z"/>
		</g>
	</g>
</g>
</svg>
