<?xml version="1.0" encoding="iso-8859-1"?>
<!-- Generator: Adobe Illustrator 17.1.0, SVG Export Plug-In . SVG Version: 6.00 Build 0)  -->
<!DOCTYPE svg PUBLIC "-//W3C//DTD SVG 1.0//EN" "http://www.w3.org/TR/2001/REC-SVG-20010904/DTD/svg10.dtd">
<svg version="1.0" xmlns="http://www.w3.org/2000/svg" xmlns:xlink="http://www.w3.org/1999/xlink" x="0px" y="0px" width="110px"
	 height="110px" viewBox="0 0 110 110" style="enable-background:new 0 0 110 110;" xml:space="preserve">
<g id="Artboard">
</g>
<g id="Multicolor">
	<circle style="fill:#E04F5F;" cx="55" cy="55" r="55"/>
	<g>
		<path style="fill:#FFFFFF;" d="M87,37c0,1.105-0.895,2-2,2H25c-1.105,0-2-0.895-2-2v-8c0-3.314,2.686-6,6-6h52
			c3.314,0,6,2.686,6,6V37z"/>
		<rect x="31" y="23" style="fill:#3E3E3F;" width="48" height="8"/>
		<rect x="70" y="33" style="fill:#4AC3AF;" width="9" height="3"/>
		<circle style="fill:#FA5655;" cx="32.5" cy="34.5" r="1.5"/>
		<circle style="fill:#17B198;" cx="37.5" cy="34.5" r="1.5"/>
		<path style="fill:#E2E4E5;" d="M31.665,79c0,1.322,2.623,4.393,4.4,6.322c0.269,0.292,0.34,0.715,0.18,1.079S35.727,87,35.33,87
			h-5.665H24c-0.397,0-0.757-0.235-0.916-0.599c-0.159-0.364-0.088-0.787,0.181-1.079c1.777-1.929,4.4-5,4.4-6.322c0-2,0-40,0-40h4
			C31.665,39,31.665,77,31.665,79z"/>
		<path style="fill:#E2E4E5;" d="M82.335,79c0,1.322,2.623,4.393,4.4,6.322c0.269,0.292,0.34,0.715,0.18,1.079
			C86.756,86.765,86.397,87,86,87h-5.665H74.67c-0.397,0-0.757-0.235-0.916-0.599c-0.159-0.364-0.088-0.787,0.181-1.079
			c1.777-1.929,4.4-5,4.4-6.322c0-2,0-40,0-40h4C82.335,39,82.335,77,82.335,79z"/>
		<polygon style="fill:#F0F1F1;" points="75,39 75,69 67,77 35,77 35,39 		"/>
		<polygon style="fill:#CFD3D4;" points="67,77 67,69 75,69 		"/>
		<path style="fill:#3E3E3F;" d="M23.265,85.322c-0.269,0.292-0.34,0.716-0.181,1.079C23.244,86.765,23.603,87,24,87h5.665h5.665
			c0.397,0,0.756-0.235,0.916-0.599c0.16-0.364,0.089-0.787-0.18-1.079c-1.777-1.929-4.4-5-4.4-6.322h-4
			C27.665,80.322,25.042,83.393,23.265,85.322z"/>
		<path style="fill:#3E3E3F;" d="M73.754,86.401C73.914,86.765,74.273,87,74.67,87h5.665H86c0.397,0,0.756-0.235,0.916-0.599
			c0.16-0.364,0.089-0.787-0.18-1.079c-1.777-1.929-4.4-5-4.4-6.322h-4c0,1.322-2.623,4.393-4.4,6.322
			C73.666,85.615,73.595,86.038,73.754,86.401z"/>
		<path style="fill:#21B2D1;" d="M68,61c0,0.552-0.448,1-1,1H57c-0.552,0-1-0.448-1-1s0.448-1,1-1h10C67.552,60,68,60.448,68,61z"/>
		<path style="fill:#21B2D1;" d="M63,69c0,0.552-0.448,1-1,1h-5c-0.552,0-1-0.448-1-1s0.448-1,1-1h5C62.552,68,63,68.448,63,69z"/>
		<path style="fill:#FA5655;" d="M39,42v14h14V42H39z M44.586,49L41,52.586v-7.172L44.586,49z M42.414,44h7.172L46,47.586L42.414,44
			z M46,50.414L49.586,54h-7.172L46,50.414z M47.414,49L51,45.414v7.172L47.414,49z"/>
		<path style="fill:#FACB1B;" d="M39,58v14h14V58H39z M44.586,65L41,68.586v-7.172L44.586,65z M42.414,60h7.172L46,63.586L42.414,60
			z M46,66.414L49.586,70h-7.172L46,66.414z M47.414,65L51,61.414v7.172L47.414,65z"/>
		<path style="fill:#21B2D1;" d="M68,45c0,0.552-0.448,1-1,1H57c-0.552,0-1-0.448-1-1s0.448-1,1-1h10C67.552,44,68,44.448,68,45z"/>
		<path style="fill:#21B2D1;" d="M68,53c0,0.552-0.448,1-1,1H57c-0.552,0-1-0.448-1-1s0.448-1,1-1h10C67.552,52,68,52.448,68,53z"/>
		<polygon style="fill:#5B5C5F;" points="57,23 31,23 31,31 49,31 		"/>
	</g>
</g>
</svg>
