<?xml version="1.0" encoding="iso-8859-1"?>
<!-- Generator: Adobe Illustrator 17.1.0, SVG Export Plug-In . SVG Version: 6.00 Build 0)  -->
<!DOCTYPE svg PUBLIC "-//W3C//DTD SVG 1.0//EN" "http://www.w3.org/TR/2001/REC-SVG-20010904/DTD/svg10.dtd">
<svg version="1.0" xmlns="http://www.w3.org/2000/svg" xmlns:xlink="http://www.w3.org/1999/xlink" x="0px" y="0px" width="110px"
	 height="110px" viewBox="0 0 110 110" style="enable-background:new 0 0 110 110;" xml:space="preserve">
<g id="Artboard">
</g>
<g id="Multicolor">
	<circle style="fill:#25B7D3;" cx="55" cy="55" r="55"/>
	<g>
		<path style="fill:#F0F1F1;" d="M83,35c0-4.418-3.582-8-8-8H35c-4.418,0-8,3.582-8,8v18c0,1.105,0.895,2,2,2h52
			c1.105,0,2-0.895,2-2V35z"/>
		<path style="fill:#FFFFFF;" d="M27,35v18c0,1.104,0.896,2,2,2h12.861l28-28H35C30.582,27,27,30.582,27,35z"/>
		<polygon style="fill:#9C6144;" points="87,63 79,67 31,67 23,63 23,59 87,59 		"/>
		<path style="fill:#84462D;" d="M79,67h-8v14c0,1.105,0.895,2,2,2h4c1.105,0,2-0.895,2-2V67z"/>
		<path style="fill:#84462D;" d="M39,67h-8v14c0,1.105,0.895,2,2,2h4c1.105,0,2-0.895,2-2V67z"/>
		<polygon style="fill:#3E3E3F;" points="79,55 67,55 70,59 76,59 		"/>
		<polygon style="fill:#3E3E3F;" points="43,55 31,55 34,59 40,59 		"/>
		<circle style="fill:#3E3E3F;" cx="67" cy="41" r="10"/>
		<circle style="fill:#21B2D1;" cx="67" cy="41" r="6"/>
		<rect x="33" y="34" style="fill:#CFD3D4;" width="14" height="2"/>
		<rect x="33" y="40" style="fill:#CFD3D4;" width="14" height="2"/>
		<rect x="33" y="46" style="fill:#CFD3D4;" width="14" height="2"/>
		<path style="fill:#6FDAF1;" d="M67,35c-3.314,0-6,2.687-6,6c0,1.629,0.652,3.104,1.706,4.186l8.48-8.48
			C70.104,35.651,68.629,35,67,35z"/>
	</g>
</g>
</svg>
