<?xml version="1.0" encoding="iso-8859-1"?>
<!-- Generator: Adobe Illustrator 17.1.0, SVG Export Plug-In . SVG Version: 6.00 Build 0)  -->
<!DOCTYPE svg PUBLIC "-//W3C//DTD SVG 1.0//EN" "http://www.w3.org/TR/2001/REC-SVG-20010904/DTD/svg10.dtd">
<svg version="1.0" xmlns="http://www.w3.org/2000/svg" xmlns:xlink="http://www.w3.org/1999/xlink" x="0px" y="0px" width="110px"
	 height="110px" viewBox="0 0 110 110" style="enable-background:new 0 0 110 110;" xml:space="preserve">
<g id="Artboard">
</g>
<g id="Multicolor">
	<circle style="fill:#25B7D3;" cx="55" cy="55" r="55"/>
	<g>
		<g>
			<path style="fill:#F0F1F1;" d="M83,39H27c-2.209,0-4,1.791-4,4v12c0,2.209,1.791,4,4,4h56c2.209,0,4-1.791,4-4V43
				C87,40.791,85.209,39,83,39z"/>
		</g>
		<g>
			<path style="fill:#F0F1F1;" d="M75,74.71c-1.04-1.18-2.43-2.05-4-2.46C70.36,72.09,69.69,72,69,72H55h-3H41
				c-0.69,0-1.36,0.09-2,0.25c-1.57,0.41-2.96,1.28-4,2.46c-1.24,1.41-2,3.26-2,5.29c0,1.31,0.83,2.42,2,2.82
				c0.31,0.12,0.65,0.18,1,0.18h16h3h19c0.35,0,0.69-0.06,1-0.18c1.17-0.4,2-1.51,2-2.82C77,77.97,76.24,76.12,75,74.71z"/>
		</g>
		<path style="fill:#FA5655;" d="M71,72.25V83h3c0.35,0,0.69-0.06,1-0.18v-8.11C73.96,73.53,72.57,72.66,71,72.25z"/>
		<g>
			<g>
				<rect x="63" y="72" style="fill:#FA5655;" width="4" height="11"/>
			</g>
		</g>
		<path style="fill:#FA5655;" d="M35,74.71v8.11c0.31,0.12,0.65,0.18,1,0.18h3V72.25C37.43,72.66,36.04,73.53,35,74.71z"/>
		<g>
			<g>
				<rect x="43" y="72" style="fill:#FA5655;" width="4" height="11"/>
			</g>
		</g>
		<g>
			<g>
				<rect x="37" y="39" style="fill:#FA5655;" width="4" height="20"/>
			</g>
		</g>
		<g>
			<g>
				<rect x="29" y="39" style="fill:#FA5655;" width="4" height="20"/>
			</g>
		</g>
		<g>
			<g>
				<rect x="69" y="39" style="fill:#FA5655;" width="4" height="20"/>
			</g>
		</g>
		<g>
			<g>
				<rect x="77" y="39" style="fill:#FA5655;" width="4" height="20"/>
			</g>
		</g>
		<g>
			<g>
				<path style="fill:#E2E4E5;" d="M52.47,87c-0.878,0-1.652-0.572-1.911-1.412c-7.833-25.428-6.745-40.794-3.004-53.166
					C47.81,31.578,48.587,31,49.468,31h11.043c0.89,0,1.672,0.588,1.92,1.443c3.634,12.518,5.183,27.984-2.977,53.173
					C59.188,86.44,58.419,87,57.553,87H52.47z"/>
			</g>
		</g>
		<g>
			<g>
				<path style="fill:#3E3E3F;" d="M75,27c0,1.105-0.895,2-2,2s-17-2-17-2s15.895-2,17-2S75,25.895,75,27z"/>
			</g>
		</g>
		<g>
			<g>
				<path style="fill:#3E3E3F;" d="M35,27c0,1.105,0.895,2,2,2s17-2,17-2s-15.895-2-17-2S35,25.895,35,27z"/>
			</g>
		</g>
		<g>
			<g>
				<path style="fill:#CFD3D4;" d="M49.468,31c0,0,2.532-8,5.532-8s5.512,8,5.512,8H49.468z"/>
			</g>
		</g>
		<g>
			<path style="fill:#F0F1F1;" d="M55,23c-3,0-5.532,8-5.532,8H55V23z"/>
		</g>
		<g>
			<path style="fill:#FFFFFF;" d="M55,31h-5.532c-0.881,0-1.659,0.578-1.914,1.422c-3.74,12.373-4.829,27.738,3.004,53.167
				C50.818,86.428,51.592,87,52.47,87H55V31z"/>
		</g>
		<g>
			<ellipse style="fill:#40C9E7;" cx="54.875" cy="54.846" rx="7" ry="11.846"/>
		</g>
		<g>
			<path style="fill:#6FDAF1;" d="M55,43.011C54.958,43.009,54.917,43,54.875,43c-3.866,0-7,5.304-7,11.846s3.134,11.846,7,11.846
				c0.042,0,0.083-0.01,0.125-0.011V43.011z"/>
		</g>
	</g>
</g>
</svg>
