<?xml version="1.0" encoding="iso-8859-1"?>
<!-- Generator: Adobe Illustrator 17.1.0, SVG Export Plug-In . SVG Version: 6.00 Build 0)  -->
<!DOCTYPE svg PUBLIC "-//W3C//DTD SVG 1.0//EN" "http://www.w3.org/TR/2001/REC-SVG-20010904/DTD/svg10.dtd">
<svg version="1.0" xmlns="http://www.w3.org/2000/svg" xmlns:xlink="http://www.w3.org/1999/xlink" x="0px" y="0px" width="110px"
	 height="110px" viewBox="0 0 110 110" style="enable-background:new 0 0 110 110;" xml:space="preserve">
<g id="Artboard">
</g>
<g id="Multicolor">
	<g>
		<circle style="fill:#FABC3D;" cx="55" cy="55" r="55"/>
	</g>
	<g>
		<path style="fill:#F7B4B4;" d="M87,87l-3.591-9.337c-0.889-2.311-2.797-4.079-5.168-4.791L65,69.715v-8.283
			c-2.841,4.396-6.716,6.473-10,7.568c-3.284-1.094-7.159-3.171-10-7.568V72c0,0,2,4,10,4v11H87z"/>
		<path style="fill:#FBC8C8;" d="M45,61.432v8.283l-13.241,3.157c-2.371,0.711-4.279,2.48-5.168,4.791L23,87h32V69
			C51.716,67.906,47.841,65.829,45,61.432z"/>
		<path style="fill:#FBC8C8;" d="M70,45c-0.277,0-0.633,0-1,0c0-0.007,0-0.014,0-0.021C68.982,35.971,67.976,28,55,28
			s-13.982,7.971-14,16.979c0,0.007,0,0.014,0,0.021c-0.368,0-0.723,0-1,0c-1,0-2,1.111-2,2.222c0,3.091,0.864,7.13,4.178,7.703
			C44.62,64.027,50.396,67.466,55,69c4.604-1.534,10.38-4.973,12.822-14.075C71.136,54.353,72,50.313,72,47.222
			C72,46.111,71,45,70,45z"/>
		<path style="fill:#FBD7D7;" d="M41,44.979c0,0.007,0,0.014,0,0.021c-0.368,0-0.723,0-1,0c-1,0-2,1.111-2,2.222
			c0,3.091,0.864,7.13,4.178,7.703C44.62,64.027,50.396,67.466,55,69V28C42.024,28,41.018,35.971,41,44.979z"/>
		<g>
			<g>
				<path style="fill:#3E3E3F;" d="M55,70c-8,0-10-4-10-4v5c0,0,2,4,10,4s10-4,10-4v-5C65,66,63,70,55,70z"/>
			</g>
		</g>
		<g>
			<circle style="fill:#F1F2F2;" cx="48" cy="71" r="1"/>
		</g>
		<g>
			<circle style="fill:#F1F2F2;" cx="53" cy="72.5" r="1"/>
		</g>
		<g>
			<circle style="fill:#F1F2F2;" cx="57" cy="72.5" r="1"/>
		</g>
		<g>
			<circle style="fill:#F1F2F2;" cx="62" cy="71" r="1"/>
		</g>
		<path style="fill:#3E3E3F;" d="M74.741,72.038L70,70.907c0,9.711-5.787,13.228-15,13c-9.213,0.228-15-3.289-15-13l-4.741,1.13
			C36.713,77.853,38.616,82.179,35,87h20h20C71.384,82.179,73.287,77.853,74.741,72.038z"/>
		<g>
			<path style="fill:#3E3E3F;" d="M52,47c0-1.104-0.896-2-2-2c-0.002,0-0.004,0-0.006,0C49.995,45.021,50,45.042,50,45.063
				c0,1.103-0.892,1.996-1.994,2C48.04,48.137,48.917,49,50,49C51.104,49,52,48.104,52,47z"/>
		</g>
		<g>
			<path style="fill:#3E3E3F;" d="M61.994,47c0-1.104-0.896-2-2-2c-0.002,0-0.004,0-0.006,0c0.001,0.021,0.006,0.041,0.006,0.062
				c0,1.103-0.892,1.996-1.994,2C58.033,48.137,58.91,49,59.994,49C61.098,49,61.994,48.104,61.994,47z"/>
		</g>
		<g>
			<path style="fill:#F79392;" d="M50,58h10c0,0,0,3-5,3S50,58,50,58z"/>
		</g>
		<polygon style="fill:#3E3E3F;" points="68,34 66,25 63,29 59,24 57.154,26.769 55,23 52.846,26.769 51,24 47,29 44,25 42,34 
			37,29 40,45 41,44.979 45,54 44,42 47,45 48,40 55,37 62,40 63,45 66,42 65,54 69,44.979 70,45 73,29 		"/>
		<g>
			<circle style="fill:#3E3E3F;" cx="69.5" cy="54.5" r="1.5"/>
		</g>
	</g>
</g>
</svg>
