<?xml version="1.0" encoding="iso-8859-1"?>
<!-- Generator: Adobe Illustrator 17.1.0, SVG Export Plug-In . SVG Version: 6.00 Build 0)  -->
<!DOCTYPE svg PUBLIC "-//W3C//DTD SVG 1.0//EN" "http://www.w3.org/TR/2001/REC-SVG-20010904/DTD/svg10.dtd">
<svg version="1.0" xmlns="http://www.w3.org/2000/svg" xmlns:xlink="http://www.w3.org/1999/xlink" x="0px" y="0px" width="110px"
	 height="110px" viewBox="0 0 110 110" style="enable-background:new 0 0 110 110;" xml:space="preserve">
<g id="Artboard">
</g>
<g id="Multicolor">
	<g>
		<circle style="fill:#25B7D3;" cx="55" cy="55" r="55"/>
	</g>
	<g>
		<path style="fill:#F7B4B4;" d="M57.655,67.961H55h-2.655c-0.856,0-1.671-0.365-2.24-1.004L45,62.961v4.536C45,67.497,45,82,55,82
			s10-14.503,10-14.503v-4.536l-5.105,3.996C59.326,67.595,58.511,67.961,57.655,67.961z"/>
		<path style="fill:#FBC8C8;" d="M50.105,66.956L45,62.961v4.536C45,67.497,45,82,55,82V67.961h-2.655
			C51.489,67.961,50.674,67.595,50.105,66.956z"/>
		<g>
			<path style="fill:#3E3E3F;" d="M23,87l4-11c0.615-1.333,1.698-2.394,3.043-2.983L43,68l4,19H23z"/>
		</g>
		<g>
			<path style="fill:#3E3E3F;" d="M87,87l-4-11c-0.615-1.333-1.698-2.394-3.043-2.983L67,68l-4,19H87z"/>
		</g>
		<g>
			<polygon style="fill:#B5BBBD;" points="45,63 43,67.742 49,87 44,87 35,79 39.625,72.25 34,69.625 44.156,60.844 			"/>
		</g>
		<g>
			<polygon style="fill:#B5BBBD;" points="65,63 67,67.742 61,87 66,87 75,79 70.375,72.25 76,69.625 65.812,60.813 			"/>
		</g>
		<g>
			<polygon style="fill:#3E3E3F;" points="65,67 65,63 72,69 66.812,71.688 71.5,78.875 61,87 			"/>
		</g>
		<path style="fill:#FBC8C8;" d="M72,47.219c0-1.111-1-2.222-2-2.222c-0.348,0-0.694,0-1,0v-0.036c-0.018-9-1.024-16.964-14-16.964
			s-13.982,7.964-14,16.964v8l4,10l5.105,3.996c0.569,0.639,1.384,1.004,2.24,1.004H55h2.655c0.856,0,1.671-0.365,2.24-1.004
			L65,62.961l3.193-7.982C71.039,54.788,72,50.478,72,47.219z"/>
		<path style="fill:#FBD7D7;" d="M41,44.961v0.036c-0.306,0-0.652,0-1,0c-1,0-2,1.111-2,2.222c0,3.259,0.961,7.568,3.807,7.76
			L45,62.961l5.105,3.996c0.569,0.639,1.384,1.004,2.24,1.004H55V27.997C42.024,27.997,41.018,35.961,41,44.961z"/>
		<g>
			<path style="fill:#3E3E3F;" d="M52,46.997c0-1.104-0.896-2-2-2c-0.002,0-0.004,0-0.006,0C49.995,45.019,50,45.039,50,45.06
				c0,1.103-0.892,1.996-1.994,2c0.033,1.075,0.91,1.938,1.994,1.938C51.104,48.997,52,48.102,52,46.997z"/>
		</g>
		<g>
			<path style="fill:#3E3E3F;" d="M61.994,46.997c0-1.104-0.896-2-2-2c-0.002,0-0.004,0-0.006,0
				c0.001,0.021,0.006,0.041,0.006,0.062c0,1.103-0.892,1.996-1.994,2c0.033,1.075,0.91,1.938,1.994,1.938
				C61.098,48.997,61.994,48.102,61.994,46.997z"/>
		</g>
		<g>
			<path style="fill:#F79392;" d="M50,57h10c0,0,0,3-5,3S50,57,50,57z"/>
		</g>
		<g>
			<polygon style="fill:#FA5655;" points="59,33 51,33 52,23 58,23 			"/>
		</g>
		<g>
			<g>
				<path style="fill:#E2E4E5;" d="M29.144,75.473c-0.4,0.508-0.867,0.932-1.377,1.274L26,73L29.144,75.473z"/>
			</g>
			<g>
				<path style="fill:#FFFFFF;" d="M30.057,73.835c-0.212,0.576-0.514,1.13-0.914,1.638L26,73L30.057,73.835z"/>
			</g>
		</g>
		<g>
			<g>
				<path style="fill:#E2E4E5;" d="M32.807,72.637C32.219,72.907,31.61,73.069,31,73.14L31.143,69L32.807,72.637z"/>
			</g>
			<g>
				<path style="fill:#FFFFFF;" d="M34.369,71.598c-0.452,0.415-0.974,0.77-1.562,1.039L31.143,69L34.369,71.598z"/>
			</g>
		</g>
		<g>
			<g>
				<path style="fill:#E2E4E5;" d="M80.856,75.473c0.4,0.508,0.867,0.932,1.377,1.274L84,73L80.856,75.473z"/>
			</g>
			<g>
				<path style="fill:#FFFFFF;" d="M79.943,73.835c0.212,0.576,0.514,1.13,0.914,1.638L84,73L79.943,73.835z"/>
			</g>
		</g>
		<g>
			<g>
				<path style="fill:#E2E4E5;" d="M77.193,72.637c0.588,0.269,1.197,0.432,1.807,0.503L78.857,69L77.193,72.637z"/>
			</g>
			<g>
				<path style="fill:#FFFFFF;" d="M75.631,71.598c0.452,0.415,0.974,0.77,1.562,1.039L78.857,69L75.631,71.598z"/>
			</g>
		</g>
		<g>
			<circle style="fill:#FACB1B;" cx="71.938" cy="79.938" r="3.938"/>
		</g>
		<g>
			<circle style="fill:#3E3E3F;" cx="70.5" cy="53.5" r="1.5"/>
		</g>
		<g>
			<path style="fill:#F1F2F2;" d="M55,81c-4.622,0-7.104-2.991-8.441-6.207L49,87h12l2.441-12.207C62.104,78.009,59.622,81,55,81z"
				/>
		</g>
		<g>
			<polygon style="fill:#3E3E3F;" points="45,67 45,63 38,69 43.187,71.688 38.5,78.875 49,87 			"/>
		</g>
	</g>
</g>
</svg>
