<?xml version="1.0" encoding="iso-8859-1"?>
<!-- Generator: Adobe Illustrator 17.1.0, SVG Export Plug-In . SVG Version: 6.00 Build 0)  -->
<!DOCTYPE svg PUBLIC "-//W3C//DTD SVG 1.0//EN" "http://www.w3.org/TR/2001/REC-SVG-20010904/DTD/svg10.dtd">
<svg version="1.0" xmlns="http://www.w3.org/2000/svg" xmlns:xlink="http://www.w3.org/1999/xlink" x="0px" y="0px" width="110px"
	 height="110px" viewBox="0 0 110 110" style="enable-background:new 0 0 110 110;" xml:space="preserve">
<g id="Artboard">
</g>
<g id="Multicolor">
	<circle style="fill:#25B7D3;" cx="55" cy="55" r="55"/>
	<g>
		<path style="fill:#FACB1B;" d="M43,47l3.71-7.446C46.88,39.214,47.227,39,47.605,39h14.789c0.379,0,0.726,0.214,0.895,0.554L67,47
			c2.96,0,5.761,0.66,8.289,1.814l-7.706-12.843C67.221,35.369,66.57,35,65.868,35H44.132c-0.703,0-1.354,0.369-1.715,0.971
			l-7.706,12.843C37.239,47.66,40.04,47,43,47z"/>
		<path style="fill:#DF2C2C;" d="M67,47l-3.71-7.446C63.12,39.214,62.773,39,62.395,39H47.605c-0.379,0-0.726,0.214-0.895,0.554
			L43,47c-11.046,0-20,8.954-20,20s8.954,20,20,20h24c11.046,0,20-8.954,20-20S78.046,47,67,47z"/>
		<path style="fill:#FA5655;" d="M67,47l-3.71-7.446C63.12,39.214,62.773,39,62.395,39H47.605c-0.379,0-0.726,0.214-0.895,0.554
			L43,47c-11.046,0-20,8.954-20,20c0,6.743,3.347,12.693,8.459,16.316l36.278-36.279C67.491,47.028,67.249,47,67,47z"/>
		<circle style="fill:#FBE158;" cx="51" cy="31" r="4"/>
		<circle style="fill:#FBE158;" cx="59" cy="31" r="4"/>
		<path style="fill:#F79392;" d="M49,78c0,0.552-0.448,1-1,1s-1-0.448-1-1V56c0-0.552,0.448-1,1-1s1,0.448,1,1V78z"/>
		<path style="fill:#F79392;" d="M57,78c0,0.552-0.448,1-1,1s-1-0.448-1-1V56c0-0.552,0.448-1,1-1s1,0.448,1,1V78z"/>
		<path style="fill:#F79392;" d="M65,78c0,0.552-0.448,1-1,1s-1-0.448-1-1V56c0-0.552,0.448-1,1-1s1,0.448,1,1V78z"/>
	</g>
</g>
</svg>
