<?xml version="1.0" encoding="iso-8859-1"?>
<!-- Generator: Adobe Illustrator 17.1.0, SVG Export Plug-In . SVG Version: 6.00 Build 0)  -->
<!DOCTYPE svg PUBLIC "-//W3C//DTD SVG 1.0//EN" "http://www.w3.org/TR/2001/REC-SVG-20010904/DTD/svg10.dtd">
<svg version="1.0" xmlns="http://www.w3.org/2000/svg" xmlns:xlink="http://www.w3.org/1999/xlink" x="0px" y="0px" width="110px"
	 height="110px" viewBox="0 0 110 110" style="enable-background:new 0 0 110 110;" xml:space="preserve">
<g id="Artboard">
</g>
<g id="Multicolor">
	<circle style="fill:#FABC3D;" cx="55" cy="55" r="55"/>
	<g>
		<path style="fill:#3E3E3F;" d="M31,87c2.209,0,4-1.791,4-4h-8C27,85.209,28.791,87,31,87z"/>
		<path style="fill:#3E3E3F;" d="M79,87c2.209,0,4-1.791,4-4h-8C75,85.209,76.791,87,79,87z"/>
		<path style="fill:#3E3E3F;" d="M38.223,39l6.259-7.302C44.861,31.255,45.416,31,46,31h18c0.614,0,1.194,0.282,1.573,0.764
			L71.258,39h5.087l-8.828-11.236C67.138,27.282,66.558,27,65.944,27H44.16c-0.584,0-1.139,0.255-1.519,0.698L32.955,39H38.223z"/>
		<path style="fill:#F0F1F1;" d="M87,79c0,2.209-1.791,4-4,4H27c-2.209,0-4-1.791-4-4V43c0-2.209,1.791-4,4-4h56
			c2.209,0,4,1.791,4,4V79z"/>
		<circle style="fill:#E2E4E5;" cx="72" cy="66" r="11"/>
		<path style="fill:#FFFFFF;" d="M72,55c-6.075,0-11,4.925-11,11c0,2.881,1.116,5.495,2.929,7.456l15.527-15.527
			C77.495,56.116,74.881,55,72,55z"/>
		<path style="fill:#FFFFFF;" d="M27,39c-2.209,0-4,1.791-4,4v36c0,1.144,0.486,2.169,1.256,2.898L67.154,39H27z"/>
		<path style="fill:#3E3E3F;" d="M75,67c0,1.657-1.343,3-3,3s-3-1.343-3-3s3-8,3-8S75,65.343,75,67z"/>
		<rect x="28" y="44.75" style="fill:#40C9E7;" width="26" height="6"/>
		<circle style="fill:#FFFFFF;" cx="77" cy="48" r="2"/>
		<path style="fill:#CFD3D4;" d="M77,52c-2.206,0-4-1.794-4-4s1.794-4,4-4s4,1.794,4,4S79.206,52,77,52z M77,46
			c-1.103,0-2,0.897-2,2s0.897,2,2,2s2-0.897,2-2S78.103,46,77,46z"/>
		<circle style="fill:#FFFFFF;" cx="67" cy="48" r="2"/>
		<path style="fill:#CFD3D4;" d="M67,52c-2.206,0-4-1.794-4-4s1.794-4,4-4s4,1.794,4,4S69.206,52,67,52z M67,46
			c-1.103,0-2,0.897-2,2s0.897,2,2,2s2-0.897,2-2S68.103,46,67,46z"/>
		<path style="fill:#818284;" d="M54,57c0,0.552-0.448,1-1,1H29c-0.552,0-1-0.448-1-1s0.448-1,1-1h24C53.552,56,54,56.448,54,57z"/>
		<path style="fill:#818284;" d="M54,63c0,0.552-0.448,1-1,1H29c-0.552,0-1-0.448-1-1s0.448-1,1-1h24C53.552,62,54,62.448,54,63z"/>
		<path style="fill:#818284;" d="M54,69c0,0.552-0.448,1-1,1H29c-0.552,0-1-0.448-1-1s0.448-1,1-1h24C53.552,68,54,68.448,54,69z"/>
		<path style="fill:#818284;" d="M54,75c0,0.552-0.448,1-1,1H29c-0.552,0-1-0.448-1-1s0.448-1,1-1h24C53.552,74,54,74.448,54,75z"/>
	</g>
</g>
</svg>
