<?xml version="1.0" encoding="iso-8859-1"?>
<!-- Generator: Adobe Illustrator 17.1.0, SVG Export Plug-In . SVG Version: 6.00 Build 0)  -->
<!DOCTYPE svg PUBLIC "-//W3C//DTD SVG 1.0//EN" "http://www.w3.org/TR/2001/REC-SVG-20010904/DTD/svg10.dtd">
<svg version="1.0" xmlns="http://www.w3.org/2000/svg" xmlns:xlink="http://www.w3.org/1999/xlink" x="0px" y="0px" width="110px"
	 height="110px" viewBox="0 0 110 110" style="enable-background:new 0 0 110 110;" xml:space="preserve">
<g id="Artboard">
</g>
<g id="Multicolor">
	<circle style="fill:#E04F5F;" cx="55" cy="55" r="55"/>
	<g>
		<g>
			<path style="fill:#F3B607;" d="M23,67h8c0,0,1-6,8-6s8,6,8,6h12c0,0,1-6,8-6s8,6,8,6h10c1.105,0,2-0.895,2-2V53
				c0-1.105-0.895-2-2-2H61V41c0-1.105-0.895-2-2-2H47c-0.63,0-1.222,0.296-1.6,0.8L37,51h-8c-3.314,0-6,2.686-6,6V67z"/>
		</g>
		<g>
			<path style="fill:#FACB1B;" d="M59,39H47c-0.629,0-1.222,0.296-1.6,0.8L37,51h-8c-3.313,0-6,2.686-6,6v10h8c0,0,1-6,8-6
				c0.331,0,0.636,0.025,0.94,0.051l20.877-20.877C60.502,39.483,59.809,39,59,39z"/>
		</g>
		<path style="fill:#3E3E3F;" d="M39,69h2.826l2.666-6.192c-0.882-0.744-2.073-1.359-3.65-1.638L37.471,69H39z"/>
		<path style="fill:#3E3E3F;" d="M68.529,69l-3.371-7.83c-1.577,0.279-2.768,0.895-3.65,1.638L64.174,69H68.529z"/>
		<g>
			<path style="fill:#F0F1F1;" d="M39,69h44v8H31l-4.586-4.586c-0.572-0.572-0.743-1.432-0.434-2.18
				C26.29,69.487,27.02,69,27.828,69H31H39z"/>
		</g>
		<g>
			<circle style="fill:#3E3E3F;" cx="39" cy="79" r="8"/>
		</g>
		<g>
			<circle style="fill:#EBEBEC;" cx="39" cy="79" r="3"/>
		</g>
		<g>
			<circle style="fill:#3E3E3F;" cx="67" cy="79" r="8"/>
		</g>
		<g>
			<circle style="fill:#EBEBEC;" cx="67" cy="79" r="3"/>
		</g>
		<g>
			<polygon style="fill:#40C9E7;" points="57,43 57,51 41,51 47,43 			"/>
		</g>
		<g>
			<path style="fill:#F37A10;" d="M23,59h6.586c0.404,0,0.769,0.244,0.924,0.617c0.155,0.374,0.069,0.804-0.217,1.09l-2,2
				C28.105,62.895,27.851,63,27.586,63H23V59z"/>
		</g>
		<g>
			<path style="fill:#FFFFFF;" d="M77.233,31.161c0.267,0.635,0.753,1.148,1.356,1.472C77.056,34.257,74,39.002,74,51h-2
				C72,38.345,75.316,33.123,77.233,31.161z"/>
		</g>
		<g>
			<circle style="fill:#3E3E3F;" cx="80" cy="30" r="3"/>
		</g>
		<g>
			<polygon style="fill:#6FDAF1;" points="57,43 47,43 41,51 49.991,51 57,43.991 			"/>
		</g>
	</g>
</g>
</svg>
