<?xml version="1.0" encoding="iso-8859-1"?>
<!-- Generator: Adobe Illustrator 17.1.0, SVG Export Plug-In . SVG Version: 6.00 Build 0)  -->
<!DOCTYPE svg PUBLIC "-//W3C//DTD SVG 1.0//EN" "http://www.w3.org/TR/2001/REC-SVG-20010904/DTD/svg10.dtd">
<svg version="1.0" xmlns="http://www.w3.org/2000/svg" xmlns:xlink="http://www.w3.org/1999/xlink" x="0px" y="0px" width="110px"
	 height="110px" viewBox="0 0 110 110" style="enable-background:new 0 0 110 110;" xml:space="preserve">
<g id="Artboard">
</g>
<g id="Multicolor">
	<circle style="fill:#E04F5F;" cx="55" cy="55" r="55"/>
	<g>
		<path style="fill:#3E3E3F;" d="M23,83c0,2.209,1.791,4,4,4h56c2.209,0,4-1.791,4-4V47c0-2.209-1.791-4-4-4H27
			c-2.209,0-4,1.791-4,4V83z"/>
		<path style="fill:#5B5C5F;" d="M27,43c-2.209,0-4,1.791-4,4v36c0,0.981,0.367,1.869,0.954,2.564L66.519,43H27z"/>
		<rect x="29" y="49" style="fill:#4AC3AF;" width="52" height="6"/>
		<g>
			<path style="fill:#F0F1F1;" d="M77,70c-2.757,0-5-2.243-5-5s2.243-5,5-5s5,2.243,5,5S79.757,70,77,70z M77,62
				c-1.654,0-3,1.346-3,3s1.346,3,3,3s3-1.346,3-3S78.654,62,77,62z"/>
		</g>
		<g>
			<path style="fill:#F0F1F1;" d="M77,82c-2.757,0-5-2.243-5-5s2.243-5,5-5s5,2.243,5,5S79.757,82,77,82z M77,74
				c-1.654,0-3,1.346-3,3s1.346,3,3,3s3-1.346,3-3S78.654,74,77,74z"/>
		</g>
		<rect x="61" y="49" style="fill:#FFFFFF;" width="7" height="6"/>
		<path style="fill:#E2E4E5;" d="M41.411,27.974c-0.8-0.301-1.793,0.064-2.208,0.811s-0.124,1.66,0.647,2.029L65.31,43h16.008
			L41.411,27.974z"/>
		<rect x="63" y="49" style="fill:#FA5655;" width="3" height="6"/>
		<rect x="29" y="63" style="fill:#B6BCBD;" width="37" height="2"/>
		<rect x="29" y="68" style="fill:#B6BCBD;" width="37" height="2"/>
		<rect x="29" y="73" style="fill:#B6BCBD;" width="37" height="2"/>
		<rect x="29" y="78" style="fill:#B6BCBD;" width="37" height="2"/>
		<polygon style="fill:#8CE3D4;" points="29,49 29,55 54.519,55 60.519,49 		"/>
	</g>
</g>
</svg>
