<?xml version="1.0" encoding="iso-8859-1"?>
<!-- Generator: Adobe Illustrator 17.1.0, SVG Export Plug-In . SVG Version: 6.00 Build 0)  -->
<!DOCTYPE svg PUBLIC "-//W3C//DTD SVG 1.0//EN" "http://www.w3.org/TR/2001/REC-SVG-20010904/DTD/svg10.dtd">
<svg version="1.0" xmlns="http://www.w3.org/2000/svg" xmlns:xlink="http://www.w3.org/1999/xlink" x="0px" y="0px" width="110px"
	 height="110px" viewBox="0 0 110 110" style="enable-background:new 0 0 110 110;" xml:space="preserve">
<g id="Artboard">
</g>
<g id="Multicolor">
	<circle style="fill:#25B7D3;" cx="55" cy="55" r="55"/>
	<g>
		<path style="fill:#F0F1F1;" d="M87,79c0,2.209-1.791,4-4,4H27c-2.209,0-4-1.791-4-4V38c0-2.209,1.791-4,4-4h56
			c2.209,0,4,1.791,4,4V79z"/>
		<g>
			<path style="fill:#84462D;" d="M87,38H23c0-2.21,1.79-4,4-4h56C85.21,34,87,35.79,87,38z"/>
			<path style="fill:#84462D;" d="M23,79h64c0,2.21-1.79,4-4,4H27C24.79,83,23,81.21,23,79z"/>
		</g>
		<polygon style="fill:#FFFFFF;" points="23,79 27.747,79 68.747,38 23,38 		"/>
		<path style="fill:#9C6144;" d="M23,38h45.747l4-4H27C24.791,34,23,35.791,23,38z"/>
		<path style="fill:#9C6144;" d="M24.581,82.166L27.747,79H23C23,80.295,23.626,81.435,24.581,82.166z"/>
		<rect x="67" y="63" style="fill:#E2E4E5;" width="4" height="8"/>
		<polygon style="fill:#9C6144;" points="31,83 39,83 36,87 34,87 		"/>
		<polygon style="fill:#9C6144;" points="71,83 79,83 76,87 74,87 		"/>
		<rect x="59" y="51" style="fill:#40C9E7;" width="23" height="7"/>
		<rect x="59" y="63" style="fill:#E2E4E5;" width="4" height="8"/>
		<rect x="59" y="63" style="fill:#FFFFFF;" width="4" height="4"/>
		<rect x="67" y="63" style="fill:#FFFFFF;" width="4" height="4"/>
		<circle style="fill:#E2E4E5;" cx="78" cy="67" r="4"/>
		<path style="fill:#FFFFFF;" d="M78,63c-2.209,0-4,1.791-4,4c0,1.123,0.465,2.134,1.21,2.86l5.65-5.65
			C80.134,63.466,79.123,63,78,63z"/>
		<path style="fill:#3E3E3F;" d="M27,58.5c0,2.644,0.763,5.107,2.077,7.188c0.119,0.188,0.348,0.275,0.562,0.213
			C29.853,65.84,30,65.644,30,65.421V51.579c0-0.223-0.147-0.418-0.361-0.48c-0.214-0.062-0.443,0.025-0.562,0.213
			C27.763,53.393,27,55.856,27,58.5z"/>
		<path style="fill:#3E3E3F;" d="M33.482,46.969C33.183,47.151,33,47.476,33,47.826v21.349c0,0.35,0.183,0.675,0.482,0.856
			c0.351,0.212,0.712,0.408,1.083,0.587c0.31,0.15,0.675,0.13,0.967-0.053S36,70.061,36,69.717V47.283
			c0-0.344-0.177-0.664-0.468-0.847c-0.291-0.183-0.657-0.204-0.966-0.054C34.194,46.561,33.833,46.757,33.482,46.969z"/>
		<g>
			<path style="fill:#3E3E3F;" d="M47.518,46.969c-0.351-0.212-0.712-0.408-1.083-0.587c-0.31-0.149-0.675-0.129-0.967,0.054
				C45.176,46.618,45,46.938,45,47.283v14.464v7.97l0,0c0,0.151,0.039,0.294,0.102,0.426c0.08,0.169,0.203,0.318,0.366,0.42
				c0.219,0.137,0.479,0.183,0.726,0.134c0.083-0.016,0.164-0.043,0.241-0.08c0.156-0.076,0.304-0.167,0.457-0.248
				c0.209-0.112,0.423-0.217,0.626-0.34C47.817,69.85,48,69.524,48,69.174l0,0V58.747V47.826C48,47.476,47.817,47.15,47.518,46.969z
				"/>
			<path style="fill:#3E3E3F;" d="M53.945,57.341c-0.009-0.104-0.022-0.205-0.033-0.308c-0.032-0.295-0.073-0.588-0.125-0.878
				c-0.016-0.089-0.031-0.179-0.048-0.267c-0.152-0.771-0.367-1.517-0.644-2.234l0-0.001l0,0c-0.317-0.821-0.708-1.605-1.172-2.34
				c-0.119-0.188-0.348-0.275-0.562-0.213S51,51.356,51,51.579v4.168v9.674l0,0c0,0.022,0.017,0.039,0.02,0.06
				c0.026,0.195,0.148,0.365,0.341,0.42c0.214,0.062,0.443-0.025,0.562-0.213c0.986-1.561,1.661-3.337,1.938-5.243
				C53.952,59.811,54,59.161,54,58.5C54,58.109,53.978,57.723,53.945,57.341z"/>
			<path style="fill:#3E3E3F;" d="M41.045,45.012C40.865,45.004,40.683,45,40.5,45s-0.364,0.004-0.544,0.012
				C39.421,45.036,39,45.476,39,46.011v21.736v3.242c0,0.535,0.42,0.975,0.955,0.999C40.135,71.996,40.317,72,40.5,72
				s0.365-0.004,0.545-0.012C41.58,71.964,42,71.524,42,70.989v-6.242V46.011C42,45.477,41.58,45.036,41.045,45.012z"/>
		</g>
	</g>
</g>
</svg>
