<?xml version="1.0" encoding="iso-8859-1"?>
<!-- Generator: Adobe Illustrator 17.1.0, SVG Export Plug-In . SVG Version: 6.00 Build 0)  -->
<!DOCTYPE svg PUBLIC "-//W3C//DTD SVG 1.0//EN" "http://www.w3.org/TR/2001/REC-SVG-20010904/DTD/svg10.dtd">
<svg version="1.0" xmlns="http://www.w3.org/2000/svg" xmlns:xlink="http://www.w3.org/1999/xlink" x="0px" y="0px" width="110px"
	 height="110px" viewBox="0 0 110 110" style="enable-background:new 0 0 110 110;" xml:space="preserve">
<g id="Artboard">
</g>
<g id="Multicolor">
	<g>
		<circle style="fill:#25B7D3;" cx="55" cy="55" r="55"/>
	</g>
	<g>
		<path style="fill:#FBC8C8;" d="M50.105,66.996L45,63v6l-14.957,4.017C28.698,73.606,27.615,74.667,27,76l-4,11h32V68h-2.655
			C51.489,68,50.674,67.635,50.105,66.996z"/>
		<path style="fill:#F7B4B4;" d="M83,76c-0.615-1.333-1.698-2.394-3.043-2.983L65,69v-6l-5.105,3.996
			C59.326,67.635,58.511,68,57.655,68H55v19h32L83,76z"/>
		<path style="fill:#FBC8C8;" d="M72,47.259c0-1.111-1-2.222-2-2.222s-1,1.111-1,1.111v-1.111c-0.018-9-1.024-15-14-15
			s-13.982,6-14,15V53l4,10l5.105,3.996C50.674,67.635,51.489,68,52.345,68H55h2.655c0.856,0,1.671-0.365,2.24-1.004L65,63
			l3.193-7.982C71.039,54.827,72,50.518,72,47.259z"/>
		<path style="fill:#FBD7D7;" d="M41,45.036v1.111c0,0,0-1.111-1-1.111s-2,1.111-2,2.222c0,3.259,0.961,7.568,3.807,7.76L45,63
			l5.105,3.996C50.674,67.635,51.489,68,52.345,68H55V30.036C42.024,30.036,41.018,36.036,41,45.036z"/>
		<path style="fill:#FFFFFF;" d="M74,71c0,0-2.886-0.612-4-1c-1.178,10.274-3.681,12.001-15,12.001S41.178,80.274,40,70
			c-1.114,0.388-4,1-4,1l-2,16h21h21L74,71z"/>
		<g>
			<path style="fill:none;" d="M25.506,77.564c0.007-0.008,0.014-0.015,0.02-0.023c-0.005,0.001-0.008,0.001-0.013,0.001
				C25.51,77.55,25.509,77.556,25.506,77.564z"/>
		</g>
		<g>
			<g>
				<path style="fill:#9C6144;" d="M27.314,83.686c-0.884-0.135-1.304-0.212-2.047-0.369c-0.02-0.357-0.03-0.542-0.047-0.917
					c0.697-0.924,1.11-1.469,2.068-2.551c0.044-1.171,0.09-1.753,0.315-2.808c-0.302-0.486-0.432-0.721-0.567-1.075
					C27.023,75.977,27.012,75.99,27,76l-3.04,8.359c1.101,0.489,1.837,0.708,3.397,1.082C27.352,84.779,27.338,84.422,27.314,83.686
					z"/>
			</g>
			<g>
				<path style="fill:#9C6144;" d="M29.482,75.633c-0.508,0.573-0.771,0.846-1.274,1.389c-0.122,0.66-0.163,1.007-0.22,1.713
					c0.766,0.019,1.172,0.027,1.963,0.014c0.029-0.535,0.046-0.802,0.094-1.326c0.161-0.009,0.24-0.014,0.399-0.026
					c-0.067,0.876-0.088,1.325-0.117,2.226c-0.335,0.003-0.506,0.001-0.842-0.004c-0.032,0.801-0.037,1.207-0.044,2.014
					c0.337,0.019,0.507,0.026,0.845,0.038c-0.01,0.958-0.009,1.439-0.011,2.379c-0.165-0.015-0.247-0.023-0.411-0.04
					c-0.001-0.572-0.001-0.863,0-1.446c-0.82-0.052-1.231-0.088-2.011-0.169c0.013,0.763,0.025,1.143,0.042,1.867
					c0.44,0.608,0.659,0.912,1.095,1.532c0.829,0.163,1.26,0.237,2.132,0.374c0.481-0.52,0.723-0.804,1.197-1.404
					c0-1.177,0-1.764,0-2.941c-0.406-0.477-0.61-0.711-1.018-1.179c0.421-0.5,0.63-0.759,1.018-1.304c0-1.095,0-1.643,0-2.736
					c-0.393-0.546-0.587-0.814-0.935-1.311C30.66,75.472,30.258,75.53,29.482,75.633z"/>
			</g>
		</g>
		<g>
			<path style="fill:#3E3E3F;" d="M62.004,59.036c-0.088-2.437,0.462-5-7-5s-6.912,2.563-7,5c-0.126,3.507,3,5,7,8
				C59.004,64.036,62.13,62.543,62.004,59.036z M55.004,62.036c-4.996,0.029-4.828-4.992-4.996-5.032H55h0.008H60
				C59.832,57.045,60,62.065,55.004,62.036z"/>
		</g>
		<g>
			<path style="fill:#3E3E3F;" d="M61.934,44.503H48.067c-1.192,0-6.067,0.379-6.067,3.467s1.246,6.067,4.333,6.067
				c2.851,0,6.583-2.384,6.902-6.385c0.432-0.338,1.054-0.548,1.764-0.548c0.002,0,0.003,0,0.005,0
				c0.709,0.001,1.332,0.212,1.761,0.551c0.32,4,4.052,6.383,6.902,6.383c3.088,0,4.333-2.979,4.333-6.067
				S63.125,44.503,61.934,44.503z M53.215,46.645c-0.126-0.558-0.484-0.969-0.96-1.275h5.49c-0.473,0.303-0.828,0.712-0.957,1.263
				c-0.508-0.253-1.118-0.396-1.784-0.397C54.337,46.255,53.725,46.396,53.215,46.645z"/>
			<g>
				<g>
					<path style="fill:#5B5C5F;" d="M51.533,46.568c-1.008-0.306-2.228-0.332-2.764-0.332c-0.989,0-5.036,0.273-5.036,2.498
						c0,1.387,0.402,2.744,1.327,3.569L51.533,46.568z"/>
				</g>
			</g>
			<g>
				<g>
					<path style="fill:#5B5C5F;" d="M58.467,46.568c1.008-0.306,2.228-0.332,2.764-0.332c0.989,0,5.036,0.273,5.036,2.498
						c0,1.387-0.402,2.744-1.327,3.569L58.467,46.568z"/>
				</g>
			</g>
		</g>
		<g>
			<g>
				<path style="fill:#3E3E3F;" d="M65.852,37.143l8.463,3.17c2.304,1.004,2.237,2.473-0.149,3.263l-6.033,1.999
					c-8.674,2.767-19.858,1.557-26.723-3.213L65.852,37.143z"/>
			</g>
			<g>
				<path style="fill:#DF2C2C;" d="M39.004,33.037c-0.177-1.744,11.131-7.056,13.837-7.331s13.95,2.744,14.127,4.488l1.728,8.027
					c0.177,1.744-6.343,3.835-14.563,4.671c-8.22,0.836-15.028,0.1-15.205-1.644L39.004,33.037z"/>
			</g>
			<g>
				<path style="fill:#F3B607;" d="M59.528,32.317c0,0,2.798,0.627,2.981,2.431c0.183,1.804-2.248,4.785-2.248,4.785
					s-2.981-2.431-3.165-4.235S59.528,32.317,59.528,32.317z"/>
			</g>
		</g>
	</g>
</g>
</svg>
