<?xml version="1.0" encoding="iso-8859-1"?>
<!-- Generator: Adobe Illustrator 17.1.0, SVG Export Plug-In . SVG Version: 6.00 Build 0)  -->
<!DOCTYPE svg PUBLIC "-//W3C//DTD SVG 1.0//EN" "http://www.w3.org/TR/2001/REC-SVG-20010904/DTD/svg10.dtd">
<svg version="1.0" xmlns="http://www.w3.org/2000/svg" xmlns:xlink="http://www.w3.org/1999/xlink" x="0px" y="0px" width="110px"
	 height="110px" viewBox="0 0 110 110" style="enable-background:new 0 0 110 110;" xml:space="preserve">
<g id="Artboard">
</g>
<g id="Multicolor">
	<circle style="fill:#FABC3D;" cx="55" cy="55" r="55"/>
	<g>
		<g>
			<path style="fill:#3E3E3F;" d="M55,23c-17.673,0-32,14.327-32,32s14.327,32,32,32s32-14.327,32-32S72.673,23,55,23z M55,59
				c-2.209,0-4-1.791-4-4s1.791-4,4-4s4,1.791,4,4S57.209,59,55,59z"/>
		</g>
		<g>
			<path style="fill:#5B5C5F;" d="M55,23c-17.673,0-32,14.327-32,32c0,8.713,3.487,16.608,9.136,22.379l19.816-19.816
				C51.367,56.867,51,55.98,51,55c0-2.209,1.791-4,4-4c0.98,0,1.867,0.366,2.562,0.952l19.816-19.816C71.608,26.487,63.713,23,55,23
				z"/>
		</g>
		<g>
			<path style="fill:#EBEBEC;" d="M55,43c-6.627,0-12,5.373-12,12s5.373,12,12,12s12-5.373,12-12S61.627,43,55,43z M55,59
				c-2.209,0-4-1.791-4-4s1.791-4,4-4s4,1.791,4,4S57.209,59,55,59z"/>
		</g>
		<g>
			<path style="fill:#EBEBEC;" d="M78,29v25.375l-6.442,10.749c0.268,0.097,0.521,0.247,0.735,0.461l2.121,2.121
				c0.058,0.058,0.102,0.123,0.152,0.186L82,55.625V29H78z"/>
		</g>
		<g>
			<path style="fill:#FFFFFF;" d="M69.464,65.586c0.781-0.781,2.047-0.781,2.828,0l2.121,2.121c0.781,0.781,0.781,2.047,0,2.828
				l-9.899,9.899c-0.781,0.781-2.047,0.781-2.828,0l-2.121-2.121c-0.781-0.781-0.781-2.047,0-2.828L69.464,65.586z"/>
		</g>
		<g>
			<path style="fill:#FFFFFF;" d="M55,43c-6.627,0-12,5.373-12,12c0,3.19,1.253,6.082,3.283,8.231l5.669-5.669
				C51.367,56.867,51,55.98,51,55c0-2.209,1.791-4,4-4c0.98,0,1.867,0.366,2.562,0.952l5.668-5.668C61.082,44.253,58.19,43,55,43z"
				/>
		</g>
	</g>
</g>
</svg>
