<?xml version="1.0" encoding="iso-8859-1"?>
<!-- Generator: Adobe Illustrator 17.1.0, SVG Export Plug-In . SVG Version: 6.00 Build 0)  -->
<!DOCTYPE svg PUBLIC "-//W3C//DTD SVG 1.0//EN" "http://www.w3.org/TR/2001/REC-SVG-20010904/DTD/svg10.dtd">
<svg version="1.0" xmlns="http://www.w3.org/2000/svg" xmlns:xlink="http://www.w3.org/1999/xlink" x="0px" y="0px" width="110px"
	 height="110px" viewBox="0 0 110 110" style="enable-background:new 0 0 110 110;" xml:space="preserve">
<g id="Artboard">
</g>
<g id="Multicolor">
	<circle style="fill:#25B7D3;" cx="55" cy="55" r="55"/>
	<g>
		<path style="fill:#3E3E3F;" d="M41,85c0,1.1-0.9,2-2,2h-2c-1.1,0-2-0.9-2-2v-2h6V85z"/>
		<path style="fill:#3E3E3F;" d="M75,85c0,1.1-0.9,2-2,2h-2c-1.1,0-2-0.9-2-2v-2h6V85z"/>
		<path style="fill:#F0F1F1;" d="M79,79c0,2.209-1.791,4-4,4H35c-2.209,0-4-1.791-4-4V49l8-4h28l12,4V79z"/>
		<path style="fill:#E2E4E5;" d="M38,27c-8.284,0-15,6.716-15,15s6.716,15,15,15s15-6.716,15-15S46.284,27,38,27z"/>
		<path style="fill:#3E3E3F;" d="M38,27c-8.284,0-15,6.716-15,15s6.716,15,15,15s15-6.716,15-15S46.284,27,38,27z M42.762,31.166
			l-3.809,7.619h-1.905l-3.809-7.619C36.413,29.897,39.587,29.897,42.762,31.166z M30.915,51.5
			c-2.699-2.187-4.272-5.001-4.719-8.446l8.644-0.397l0.944,1.689L30.915,51.5z M38,43.071c-0.592,0-1.071-0.48-1.071-1.071
			s0.48-1.071,1.071-1.071s1.071,0.48,1.071,1.071S38.592,43.071,38,43.071z M45.085,51.5l-4.87-7.154l0.944-1.689l8.644,0.397
			C49.356,46.498,47.784,49.313,45.085,51.5z"/>
		<circle style="fill:#B6BCBD;" cx="71.5" cy="72.5" r="3.5"/>
		<circle style="fill:#B6BCBD;" cx="62.5" cy="72.5" r="3.5"/>
		<rect x="35" y="71" style="fill:#DF2C2C;" width="4" height="4"/>
		<rect x="43" y="71" style="fill:#F37A10;" width="4" height="4"/>
		<rect x="51" y="71" style="fill:#17B198;" width="4" height="4"/>
		<path style="fill:#3E3E3F;" d="M62.53,62c-1.73,2.42-4.56,4-7.75,4c-3.2,0-6.03-1.58-7.75-4H62.53z"/>
		<path style="fill:#818284;" d="M59.309,56.043C58.898,54.823,57.754,54,56.466,54H56h-2h-0.466c-1.288,0-2.432,0.822-2.843,2.043
			c-1.298,3.854-6.392,4.105-9.712,4.025c-0.52-0.013-1.023,0.185-1.396,0.549C39.211,60.981,39,61.479,39,62h32
			c0-0.521-0.21-1.019-0.583-1.383s-0.876-0.561-1.396-0.548C65.701,60.149,60.607,59.898,59.309,56.043z"/>
		<path style="fill:#5B5C5F;" d="M23,42c0,4.129,1.67,7.868,4.37,10.58l2.269-2.268c-1.916-1.99-3.071-4.405-3.442-7.259
			l8.644-0.397l0.879,1.574l1.502-1.503c-0.179-0.191-0.294-0.445-0.294-0.728c0-0.592,0.48-1.071,1.071-1.071
			c0.283,0,0.536,0.115,0.728,0.293l9.853-9.853C45.868,28.67,42.129,27,38,27C29.716,27,23,33.716,23,42z M38.952,38.786h-1.905
			l-3.809-7.619c3.175-1.269,6.349-1.269,9.524,0L38.952,38.786z"/>
		<path style="fill:#E2E4E5;" d="M72,27c-8.284,0-15,6.716-15,15s6.716,15,15,15s15-6.716,15-15S80.284,27,72,27z"/>
		<path style="fill:#3E3E3F;" d="M72,27c-8.284,0-15,6.716-15,15s6.716,15,15,15s15-6.716,15-15S80.284,27,72,27z M76.762,31.166
			l-3.809,7.619h-1.905l-3.809-7.619C70.413,29.897,73.587,29.897,76.762,31.166z M64.915,51.5
			c-2.699-2.187-4.272-5.001-4.719-8.446l8.644-0.397l0.944,1.689L64.915,51.5z M72,43.071c-0.592,0-1.071-0.48-1.071-1.071
			s0.48-1.071,1.071-1.071s1.071,0.48,1.071,1.071S72.592,43.071,72,43.071z M79.085,51.5l-4.87-7.154l0.944-1.689l8.644,0.397
			C83.356,46.498,81.784,49.313,79.085,51.5z"/>
		<path style="fill:#5B5C5F;" d="M57,42c0,4.129,1.67,7.868,4.37,10.58l2.269-2.268c-1.916-1.99-3.071-4.405-3.442-7.259
			l8.644-0.397l0.879,1.574l1.502-1.503c-0.179-0.191-0.294-0.445-0.294-0.728c0-0.592,0.48-1.071,1.071-1.071
			c0.283,0,0.536,0.115,0.728,0.293l9.853-9.853C79.868,28.67,76.129,27,72,27C63.716,27,57,33.716,57,42z M72.952,38.786h-1.905
			l-3.809-7.619c3.175-1.269,6.349-1.269,9.524,0L72.952,38.786z"/>
		<path style="fill:#CFD3D4;" d="M62.5,69c-1.933,0-3.5,1.567-3.5,3.5c0,0.851,0.316,1.621,0.821,2.227l4.906-4.906
			C64.12,69.316,63.351,69,62.5,69z"/>
		<path style="fill:#CFD3D4;" d="M71.5,69c-1.933,0-3.5,1.567-3.5,3.5c0,0.851,0.316,1.621,0.821,2.227l4.906-4.906
			C73.12,69.316,72.351,69,71.5,69z"/>
		<rect x="35" y="71" style="fill:#FA5655;" width="4" height="2"/>
		<rect x="43" y="71" style="fill:#F3B607;" width="4" height="2"/>
		<rect x="51" y="71" style="fill:#4AC3AF;" width="4" height="2"/>
	</g>
</g>
</svg>
