<?xml version="1.0" encoding="iso-8859-1"?>
<!-- Generator: Adobe Illustrator 17.1.0, SVG Export Plug-In . SVG Version: 6.00 Build 0)  -->
<!DOCTYPE svg PUBLIC "-//W3C//DTD SVG 1.0//EN" "http://www.w3.org/TR/2001/REC-SVG-20010904/DTD/svg10.dtd">
<svg version="1.0" xmlns="http://www.w3.org/2000/svg" xmlns:xlink="http://www.w3.org/1999/xlink" x="0px" y="0px" width="110px"
	 height="110px" viewBox="0 0 110 110" style="enable-background:new 0 0 110 110;" xml:space="preserve">
<g id="Artboard">
</g>
<g id="Multicolor">
	<circle style="fill:#32BEA6;" cx="55" cy="55" r="55"/>
	<g>
		<g>
			<path style="fill:#FFFFFF;" d="M71,27H28c-0.552,0-1,0.448-1,1v54c0,0.552,0.448,1,1,1h43V27z"/>
		</g>
		<g>
			<rect x="71" y="23" style="fill:#E2E4E5;" width="4" height="64"/>
		</g>
		<g>
			<rect x="31" y="31" style="fill:#3E3E3F;" width="40" height="48"/>
		</g>
		<path style="fill:#FFFFFF;" d="M87,41c0-3.309-2.691-6-6-6h-2v-3.858c0-2.652-1.053-5.196-2.929-7.071L75,23v64l1.071-1.071
			C77.947,84.054,79,81.51,79,78.858V55h2c3.309,0,6-2.691,6-6V41z M83,49c0,1.103-0.897,2-2,2h-2V39h2c1.103,0,2,0.897,2,2V49z"/>
		<g>
			<rect x="31" y="42" style="fill:#CFD3D4;" width="40" height="2"/>
		</g>
		<g>
			<path style="fill:#21B2D1;" d="M47,37c0-1.105-0.895-2-2-2h-8c-1.105,0-2,0.895-2,2v3c0,1.105,0.895,2,2,2h8c1.105,0,2-0.895,2-2
				V37z"/>
		</g>
		<g>
			<path style="fill:#F3B607;" d="M65.976,36.433c0.149-0.31,0.128-0.675-0.055-0.966S65.418,35,65.074,35H52.926
				c-0.344,0-0.663,0.177-0.846,0.467s-0.204,0.656-0.055,0.965c0.634,1.319,0.634,2.816,0,4.134
				c-0.149,0.31-0.128,0.675,0.055,0.966C52.262,41.824,52.582,42,52.926,42h12.148c0.344,0,0.663-0.177,0.846-0.467
				c0.183-0.291,0.204-0.656,0.055-0.965C65.341,39.249,65.341,37.751,65.976,36.433z"/>
		</g>
		<g>
			<polygon style="fill:#F37A10;" points="47,55 45,55 45,51 41,51 41,55 39,55 35,59 35,79 51,79 51,59 			"/>
		</g>
		<g>
			<path style="fill:#FACB1B;" d="M47,50c0,0.552-0.448,1-1,1h-6c-0.552,0-1-0.448-1-1v-2c0-0.552,0.448-1,1-1h6
				c0.552,0,1,0.448,1,1V50z"/>
		</g>
		<g>
			<path style="fill:#6FDAF1;" d="M61.5,53.254V51h-3v2.254C56.477,53.895,55,55.765,55,58v20c0,0.552,0.448,1,1,1h8
				c0.552,0,1-0.448,1-1V58C65,55.765,63.523,53.895,61.5,53.254z"/>
		</g>
		<g>
			<path style="fill:#059BBF;" d="M63,48c0-0.552-0.448-1-1-1h-4c-0.552,0-1,0.448-1,1v2c0,0.552,0.448,1,1,1h4c0.552,0,1-0.448,1-1
				V48z"/>
		</g>
		<g>
			<path style="fill:#21B2D1;" d="M60,47h-2c-0.552,0-1,0.448-1,1v2c0,0.552,0.448,1,1,1h2V47z"/>
		</g>
		<g>
			<path style="fill:#9CE5F4;" d="M60,51h-1.5v2.254C56.477,53.895,55,55.765,55,58v20c0,0.552,0.448,1,1,1h4V51z"/>
		</g>
		<g>
			<path style="fill:#40C9E7;" d="M45,35h-8c-1.104,0-2,0.896-2,2v1.438h12V37C47,35.896,46.104,35,45,35z"/>
		</g>
		<g>
			<rect x="55" y="59" style="fill:#40C9E7;" width="10" height="4"/>
		</g>
		<g>
			<rect x="55" y="67" style="fill:#40C9E7;" width="10" height="4"/>
		</g>
		<g>
			<path style="fill:#40C9E7;" d="M65,78c0,0.552-0.448,1-1,1h-8c-0.552,0-1-0.448-1-1v-3h10V78z"/>
		</g>
		<g>
			<rect x="55" y="59" style="fill:#6FDAF1;" width="5" height="4"/>
		</g>
		<g>
			<rect x="55" y="67" style="fill:#6FDAF1;" width="5" height="4"/>
		</g>
		<g>
			<path style="fill:#6FDAF1;" d="M60,75h-5v3c0,0.552,0.448,1,1,1h4V75z"/>
		</g>
		<g>
			<path style="fill:#FBE158;" d="M43,47h-3c-0.552,0-1,0.448-1,1v2c0,0.552,0.448,1,1,1h3V47z"/>
		</g>
		<g>
			<polygon style="fill:#F99134;" points="43,51 41,51 41,55 39,55 35,59 35,79 43,79 			"/>
		</g>
		<g>
			<polygon style="fill:#FACB1B;" points="41,60 39,62 39,71 41,73 45,73 47,71 47,62 45,60 			"/>
		</g>
		<g>
			<path style="fill:#FBE158;" d="M65.074,35H52.926c-0.344,0-0.663,0.177-0.846,0.467c-0.183,0.291-0.204,0.656-0.055,0.966
				c0.392,0.815,0.54,1.699,0.447,2.567h13.056c-0.093-0.868,0.055-1.751,0.448-2.567c0.149-0.31,0.128-0.675-0.055-0.966
				C65.738,35.176,65.418,35,65.074,35z"/>
		</g>
		<g>
			<circle style="fill:#FBEC9A;" cx="59" cy="38.75" r="1.75"/>
		</g>
	</g>
</g>
</svg>
