<?xml version="1.0" encoding="iso-8859-1"?>
<!-- Generator: Adobe Illustrator 17.1.0, SVG Export Plug-In . SVG Version: 6.00 Build 0)  -->
<!DOCTYPE svg PUBLIC "-//W3C//DTD SVG 1.0//EN" "http://www.w3.org/TR/2001/REC-SVG-20010904/DTD/svg10.dtd">
<svg version="1.0" xmlns="http://www.w3.org/2000/svg" xmlns:xlink="http://www.w3.org/1999/xlink" x="0px" y="0px" width="110px"
	 height="110px" viewBox="0 0 110 110" style="enable-background:new 0 0 110 110;" xml:space="preserve">
<g id="Artboard" style="display:none;">
	
		<rect x="-968.5" y="-1058.5" style="display:inline;fill:#808080;stroke:#000000;stroke-miterlimit:10;" width="1392" height="1369"/>
</g>
<g id="R-Multicolor">
	<circle style="fill:#25B7D3;" cx="55" cy="55" r="55"/>
	<g>
		<g>
			<path style="fill:#F0F1F1;" d="M79,27c0-2.209-1.791-4-4-4H35c-2.209,0-4,1.791-4,4v52c0,2.209,1.791,4,4,4h40
				c2.209,0,4-1.791,4-4V27z"/>
		</g>
		<g>
			<path style="fill:#FFFFFF;" d="M35,83h20V23H35c-2.209,0-4,1.791-4,4v52C31,81.209,32.791,83,35,83z"/>
		</g>
		<g>
			<path style="fill:#3E3E3F;" d="M43.586,86.414C43.211,86.789,42.702,87,42.172,87H37c-1.105,0-2-0.895-2-2v-2h12L43.586,86.414z"
				/>
		</g>
		<g>
			<path style="fill:#3E3E3F;" d="M66.414,86.414C66.789,86.789,67.298,87,67.828,87L73,87c1.105,0,2-0.895,2-2v-2l-12,0
				L66.414,86.414z"/>
		</g>
		<g>
			<rect x="31" y="46" style="fill:#E2E4E5;" width="48" height="2"/>
		</g>
		<g>
			<rect x="31" y="46" style="fill:#F0F1F1;" width="24" height="2"/>
		</g>
		<g>
			<path style="fill:#3E3E3F;" d="M39,39c0,1.105-0.895,2-2,2s-2-0.895-2-2v-7c0-1.105,0.895-2,2-2s2,0.895,2,2V39z"/>
		</g>
		<g>
			<path style="fill:#3E3E3F;" d="M39,64c0,1.105-0.895,2-2,2s-2-0.895-2-2v-9c0-1.105,0.895-2,2-2s2,0.895,2,2V64z"/>
		</g>
	</g>
</g>
<g id="Multicolor" style="display:none;">
	<g style="display:inline;">
		<g>
			<path style="fill:#F0F1F1;" d="M79,27c0-2.209-1.791-4-4-4H35c-2.209,0-4,1.791-4,4v52c0,2.209,1.791,4,4,4h40
				c2.209,0,4-1.791,4-4V27z"/>
		</g>
		<g>
			<path style="fill:#FFFFFF;" d="M35,83h20V23H35c-2.209,0-4,1.791-4,4v52C31,81.209,32.791,83,35,83z"/>
		</g>
		<g>
			<path style="fill:#3E3E3F;" d="M43.586,86.414C43.211,86.789,42.702,87,42.172,87H37c-1.105,0-2-0.895-2-2v-2h12L43.586,86.414z"
				/>
		</g>
		<g>
			<path style="fill:#3E3E3F;" d="M66.414,86.414C66.789,86.789,67.298,87,67.828,87L73,87c1.105,0,2-0.895,2-2v-2l-12,0
				L66.414,86.414z"/>
		</g>
		<g>
			<rect x="31" y="46" style="fill:#E2E4E5;" width="48" height="2"/>
		</g>
		<g>
			<rect x="31" y="46" style="fill:#F0F1F1;" width="24" height="2"/>
		</g>
		<g>
			<path style="fill:#3E3E3F;" d="M39,39c0,1.105-0.895,2-2,2s-2-0.895-2-2v-7c0-1.105,0.895-2,2-2s2,0.895,2,2V39z"/>
		</g>
		<g>
			<path style="fill:#3E3E3F;" d="M39,64c0,1.105-0.895,2-2,2s-2-0.895-2-2v-9c0-1.105,0.895-2,2-2s2,0.895,2,2V64z"/>
		</g>
	</g>
</g>
<g id="Blue" style="display:none;">
	<g style="display:inline;">
		<g>
			<path style="fill:#E1F5FA;" d="M79,27c0-2.209-1.791-4-4-4H35c-2.209,0-4,1.791-4,4v52c0,2.209,1.791,4,4,4h40
				c2.209,0,4-1.791,4-4V27z"/>
		</g>
		<g>
			<path style="fill:#FFFFFF;" d="M35,83h20V23H35c-2.209,0-4,1.791-4,4v52C31,81.209,32.791,83,35,83z"/>
		</g>
		<g>
			<path style="fill:#0C333D;" d="M43.586,86.415C43.211,86.79,42.702,87,42.172,87H37c-1.104,0-2-0.896-2-2v-2h12L43.586,86.415z"
				/>
		</g>
		<g>
			<path style="fill:#0C333D;" d="M66.414,86.415C66.789,86.79,67.298,87,67.828,87H73c1.104,0,2-0.896,2-2v-2H63L66.414,86.415z"/>
		</g>
		<g>
			<rect x="31" y="46" style="fill:#BBE7F2;" width="48" height="2"/>
		</g>
		<g>
			<rect x="31" y="46" style="fill:#E1F5FA;" width="24" height="2"/>
		</g>
		<g>
			<path style="fill:#009FC7;" d="M39,39c0,1.104-0.896,2-2,2s-2-0.896-2-2v-7c0-1.104,0.896-2,2-2s2,0.896,2,2V39z"/>
		</g>
		<g>
			<path style="fill:#009FC7;" d="M39,64c0,1.104-0.896,2-2,2s-2-0.896-2-2v-9c0-1.104,0.896-2,2-2s2,0.896,2,2V64z"/>
		</g>
	</g>
</g>
<g id="R-Blue" style="display:none;">
	<circle style="display:inline;fill:#81D2EB;" cx="55" cy="55" r="55"/>
	<g style="display:inline;">
		<g>
			<path style="fill:#E1F5FA;" d="M79,27c0-2.209-1.791-4-4-4H35c-2.209,0-4,1.791-4,4v52c0,2.209,1.791,4,4,4h40
				c2.209,0,4-1.791,4-4V27z"/>
		</g>
		<g>
			<path style="fill:#FFFFFF;" d="M35,83h20V23H35c-2.209,0-4,1.791-4,4v52C31,81.209,32.791,83,35,83z"/>
		</g>
		<g>
			<path style="fill:#0C333D;" d="M43.586,86.415C43.211,86.79,42.702,87,42.172,87H37c-1.104,0-2-0.896-2-2v-2h12L43.586,86.415z"
				/>
		</g>
		<g>
			<path style="fill:#0C333D;" d="M66.414,86.415C66.789,86.79,67.298,87,67.828,87H73c1.104,0,2-0.896,2-2v-2H63L66.414,86.415z"/>
		</g>
		<g>
			<rect x="31" y="46" style="fill:#BBE7F2;" width="48" height="2"/>
		</g>
		<g>
			<rect x="31" y="46" style="fill:#E1F5FA;" width="24" height="2"/>
		</g>
		<g>
			<path style="fill:#009FC7;" d="M39,39c0,1.104-0.896,2-2,2s-2-0.896-2-2v-7c0-1.104,0.896-2,2-2s2,0.896,2,2V39z"/>
		</g>
		<g>
			<path style="fill:#009FC7;" d="M39,64c0,1.105-0.896,2-2,2s-2-0.896-2-2v-9c0-1.104,0.896-2,2-2s2,0.896,2,2V64z"/>
		</g>
	</g>
</g>
<g id="Green" style="display:none;">
	<g style="display:inline;">
		<g>
			<path style="fill:#D7FCF9;" d="M79,27c0-2.209-1.791-4-4-4H35c-2.209,0-4,1.791-4,4v52c0,2.209,1.791,4,4,4h40
				c2.209,0,4-1.791,4-4V27z"/>
		</g>
		<g>
			<path style="fill:#FFFFFF;" d="M35,83h20V23H35c-2.209,0-4,1.791-4,4v52C31,81.209,32.791,83,35,83z"/>
		</g>
		<g>
			<path style="fill:#0A3631;" d="M43.586,86.415C43.211,86.79,42.702,87,42.172,87H37c-1.104,0-2-0.896-2-2v-2h12L43.586,86.415z"
				/>
		</g>
		<g>
			<path style="fill:#0A3631;" d="M66.414,86.415C66.789,86.79,67.298,87,67.828,87H73c1.104,0,2-0.896,2-2v-2H63L66.414,86.415z"/>
		</g>
		<g>
			<rect x="31" y="46" style="fill:#AAF0E9;" width="48" height="2"/>
		</g>
		<g>
			<rect x="31" y="46" style="fill:#D7FCF9;" width="24" height="2"/>
		</g>
		<g>
			<path style="fill:#00B8A5;" d="M39,39c0,1.104-0.896,2-2,2s-2-0.896-2-2v-7c0-1.104,0.896-2,2-2s2,0.896,2,2V39z"/>
		</g>
		<g>
			<path style="fill:#00B8A5;" d="M39,64c0,1.104-0.896,2-2,2s-2-0.896-2-2v-9c0-1.104,0.896-2,2-2s2,0.896,2,2V64z"/>
		</g>
	</g>
</g>
<g id="R-Green" style="display:none;">
	<circle style="display:inline;fill:#77E0C4;" cx="55" cy="55" r="55"/>
	<g style="display:inline;">
		<g>
			<path style="fill:#D7FCF9;" d="M79,27c0-2.209-1.791-4-4-4H35c-2.209,0-4,1.791-4,4v52c0,2.209,1.791,4,4,4h40
				c2.209,0,4-1.791,4-4V27z"/>
		</g>
		<g>
			<path style="fill:#FFFFFF;" d="M35,83h20V23H35c-2.209,0-4,1.791-4,4v52C31,81.209,32.791,83,35,83z"/>
		</g>
		<g>
			<path style="fill:#0A3631;" d="M43.586,86.415C43.211,86.79,42.702,87,42.172,87H37c-1.104,0-2-0.896-2-2v-2h12L43.586,86.415z"
				/>
		</g>
		<g>
			<path style="fill:#0A3631;" d="M66.414,86.415C66.789,86.79,67.298,87,67.828,87H73c1.104,0,2-0.896,2-2v-2H63L66.414,86.415z"/>
		</g>
		<g>
			<rect x="31" y="46" style="fill:#AAF0E9;" width="48" height="2"/>
		</g>
		<g>
			<rect x="31" y="46" style="fill:#D7FCF9;" width="24" height="2"/>
		</g>
		<g>
			<path style="fill:#00B8A5;" d="M39,39c0,1.104-0.896,2-2,2s-2-0.896-2-2v-7c0-1.104,0.896-2,2-2s2,0.896,2,2V39z"/>
		</g>
		<g>
			<path style="fill:#00B8A5;" d="M39,64c0,1.104-0.896,2-2,2s-2-0.896-2-2v-9c0-1.104,0.896-2,2-2s2,0.896,2,2V64z"/>
		</g>
	</g>
</g>
<g id="Red" style="display:none;">
	<g style="display:inline;">
		<g>
			<path style="fill:#FFEFED;" d="M79,27c0-2.209-1.791-4-4-4H35c-2.209,0-4,1.791-4,4v52c0,2.209,1.791,4,4,4h40
				c2.209,0,4-1.791,4-4V27z"/>
		</g>
		<g>
			<path style="fill:#FFFFFF;" d="M35,83h20V23H35c-2.209,0-4,1.791-4,4v52C31,81.209,32.791,83,35,83z"/>
		</g>
		<g>
			<path style="fill:#4A1410;" d="M43.586,86.415C43.211,86.79,42.702,87,42.172,87H37c-1.104,0-2-0.896-2-2v-2h12L43.586,86.415z"
				/>
		</g>
		<g>
			<path style="fill:#4A1410;" d="M66.414,86.415C66.789,86.79,67.298,87,67.828,87H73c1.104,0,2-0.896,2-2v-2H63L66.414,86.415z"/>
		</g>
		<g>
			<rect x="31" y="46" style="fill:#FFD7D4;" width="48" height="2"/>
		</g>
		<g>
			<rect x="31" y="46" style="fill:#FFEFED;" width="24" height="2"/>
		</g>
		<g>
			<path style="fill:#E54B44;" d="M39,39c0,1.104-0.896,2-2,2c-1.104,0-2-0.896-2-2v-7c0-1.104,0.896-2,2-2c1.104,0,2,0.896,2,2V39z
				"/>
		</g>
		<g>
			<path style="fill:#E54B44;" d="M39,64c0,1.104-0.896,2-2,2c-1.104,0-2-0.896-2-2v-9c0-1.104,0.896-2,2-2c1.104,0,2,0.896,2,2V64z
				"/>
		</g>
	</g>
</g>
<g id="R-Red" style="display:none;">
	<circle style="display:inline;fill:#FABBAF;" cx="55" cy="55" r="55"/>
	<g style="display:inline;">
		<g>
			<path style="fill:#FFEFED;" d="M79,27c0-2.209-1.791-4-4-4H35c-2.209,0-4,1.791-4,4v52c0,2.209,1.791,4,4,4h40
				c2.209,0,4-1.791,4-4V27z"/>
		</g>
		<g>
			<path style="fill:#FFFFFF;" d="M35,83h20V23H35c-2.209,0-4,1.791-4,4v52C31,81.209,32.791,83,35,83z"/>
		</g>
		<g>
			<path style="fill:#4A1410;" d="M43.586,86.415C43.211,86.79,42.702,87,42.172,87H37c-1.104,0-2-0.896-2-2v-2h12L43.586,86.415z"
				/>
		</g>
		<g>
			<path style="fill:#4A1410;" d="M66.414,86.415C66.789,86.79,67.298,87,67.828,87H73c1.104,0,2-0.896,2-2v-2H63L66.414,86.415z"/>
		</g>
		<g>
			<rect x="31" y="46" style="fill:#FFD7D4;" width="48" height="2"/>
		</g>
		<g>
			<rect x="31" y="46" style="fill:#FFEFED;" width="24" height="2"/>
		</g>
		<g>
			<path style="fill:#E54B44;" d="M39,39c0,1.104-0.896,2-2,2c-1.104,0-2-0.896-2-2v-7c0-1.104,0.896-2,2-2c1.104,0,2,0.896,2,2V39z
				"/>
		</g>
		<g>
			<path style="fill:#E54B44;" d="M39,64c0,1.104-0.896,2-2,2c-1.104,0-2-0.896-2-2v-9c0-1.104,0.896-2,2-2c1.104,0,2,0.896,2,2V64z
				"/>
		</g>
	</g>
</g>
<g id="Yellow" style="display:none;">
	<g style="display:inline;">
		<g>
			<path style="fill:#FFF5D9;" d="M79,27c0-2.209-1.791-4-4-4H35c-2.209,0-4,1.791-4,4v52c0,2.209,1.791,4,4,4h40
				c2.209,0,4-1.791,4-4V27z"/>
		</g>
		<g>
			<path style="fill:#FFFFFF;" d="M35,83h20V23H35c-2.209,0-4,1.791-4,4v52C31,81.209,32.791,83,35,83z"/>
		</g>
		<g>
			<path style="fill:#3D320C;" d="M43.586,86.415C43.211,86.79,42.702,87,42.172,87H37c-1.104,0-2-0.896-2-2v-2h12L43.586,86.415z"
				/>
		</g>
		<g>
			<path style="fill:#3D320C;" d="M66.414,86.415C66.789,86.79,67.298,87,67.828,87H73c1.104,0,2-0.896,2-2v-2H63L66.414,86.415z"/>
		</g>
		<g>
			<rect x="31" y="46" style="fill:#FFE9A1;" width="48" height="2"/>
		</g>
		<g>
			<rect x="31" y="46" style="fill:#FFF5D9;" width="24" height="2"/>
		</g>
		<g>
			<path style="fill:#FA9200;" d="M39,39c0,1.104-0.896,2-2,2s-2-0.896-2-2v-7c0-1.104,0.896-2,2-2s2,0.896,2,2V39z"/>
		</g>
		<g>
			<path style="fill:#FA9200;" d="M39,64c0,1.104-0.896,2-2,2s-2-0.896-2-2v-9c0-1.104,0.896-2,2-2s2,0.896,2,2V64z"/>
		</g>
	</g>
</g>
<g id="R-Yellow" style="display:none;">
	<circle style="display:inline;fill:#FFD75E;" cx="55" cy="55" r="55"/>
	<g style="display:inline;">
		<g>
			<path style="fill:#FFF5D9;" d="M79,27c0-2.209-1.791-4-4-4H35c-2.209,0-4,1.791-4,4v52c0,2.209,1.791,4,4,4h40
				c2.209,0,4-1.791,4-4V27z"/>
		</g>
		<g>
			<path style="fill:#FFFFFF;" d="M35,83h20V23H35c-2.209,0-4,1.791-4,4v52C31,81.209,32.791,83,35,83z"/>
		</g>
		<g>
			<path style="fill:#3D320C;" d="M43.586,86.415C43.211,86.79,42.702,87,42.172,87H37c-1.104,0-2-0.896-2-2v-2h12L43.586,86.415z"
				/>
		</g>
		<g>
			<path style="fill:#3D320C;" d="M66.414,86.415C66.789,86.79,67.298,87,67.828,87H73c1.104,0,2-0.896,2-2v-2H63L66.414,86.415z"/>
		</g>
		<g>
			<rect x="31" y="46" style="fill:#FFE9A1;" width="48" height="2"/>
		</g>
		<g>
			<rect x="31" y="46" style="fill:#FFF5D9;" width="24" height="2"/>
		</g>
		<g>
			<path style="fill:#FA9200;" d="M39,39c0,1.104-0.896,2-2,2s-2-0.896-2-2v-7c0-1.104,0.896-2,2-2s2,0.896,2,2V39z"/>
		</g>
		<g>
			<path style="fill:#FA9200;" d="M39,64c0,1.104-0.896,2-2,2s-2-0.896-2-2v-9c0-1.104,0.896-2,2-2s2,0.896,2,2V64z"/>
		</g>
	</g>
</g>
</svg>
