<?xml version="1.0" encoding="iso-8859-1"?>
<!-- Generator: Adobe Illustrator 17.1.0, SVG Export Plug-In . SVG Version: 6.00 Build 0)  -->
<!DOCTYPE svg PUBLIC "-//W3C//DTD SVG 1.0//EN" "http://www.w3.org/TR/2001/REC-SVG-20010904/DTD/svg10.dtd">
<svg version="1.0" xmlns="http://www.w3.org/2000/svg" xmlns:xlink="http://www.w3.org/1999/xlink" x="0px" y="0px" width="110px"
	 height="110px" viewBox="0 0 110 110" style="enable-background:new 0 0 110 110;" xml:space="preserve">
<g id="Artboard">
</g>
<g id="Multicolor">
	<circle style="fill:#E04F5F;" cx="55" cy="55" r="55"/>
	<g>
		<g>
			<path style="fill:#692E19;" d="M85.695,42.062c-0.06,0.46-0.43,0.82-0.89,0.87c-2.31,0.24-7.35-0.15-11-0.93l-5.94,2.97
				c-1.24-1.33-2.74-2.41-4.46-3.22l6.4-2.75l5.5-7.2c0.12-0.19,0.32-0.32,0.55-0.35c0.23-0.02,0.46,0.06,0.62,0.22
				c0.2,0.2,0.27,0.5,0.18,0.77l-1.85,5.56c4.45-4.49,7.68-8.75,9.03-12.64c0.2-0.28,0.54-0.44,0.9-0.42
				c0.35,0.03,0.66,0.24,0.82,0.56c0.5,1-0.16,6.67-7.75,13.5l7.25,2C85.485,41.162,85.755,41.602,85.695,42.062z"/>
		</g>
		<g>
			<path style="fill:#692E19;" d="M24.115,42.062c0.06,0.46,0.43,0.82,0.89,0.87c2.31,0.24,7.35-0.15,11-0.93l5.94,2.97
				c1.24-1.33,2.74-2.41,4.46-3.22l-6.4-2.75l-5.5-7.2c-0.12-0.19-0.32-0.32-0.55-0.35c-0.23-0.02-0.46,0.06-0.62,0.22
				c-0.2,0.2-0.27,0.5-0.18,0.77l1.85,5.56c-4.45-4.49-7.68-8.75-9.03-12.64c-0.2-0.28-0.54-0.44-0.9-0.42
				c-0.35,0.03-0.66,0.24-0.82,0.56c-0.5,1,0.16,6.67,7.75,13.5l-7.25,2C24.325,41.162,24.055,41.602,24.115,42.062z"/>
		</g>
		<path style="fill:#D4A263;" d="M84.445,47.232c-0.07-0.15-0.21-0.26-0.37-0.29c-2.62-0.41-4.6-2.94-8.27-2.94
			c-2.356,0-4.952,1.609-6.517,2.783C66.41,42.438,61.329,40,54.905,40c-9.99,0-17,5.9-17,16.26c0,4.66,1.4,8.94,3.73,12.32
			l-1.54,6.93c-1.269,5.708,2.751,8.779,8.1,10.45c2.81-0.66,5.21-6.13,6.17-9.13c0.14,0.07,0.29,0.12,0.44,0.17
			c0.15-0.05,0.3-0.1,0.44-0.16c0.96,3.01,3.37,8.51,6.18,9.13c2.447-0.964,9.896-2.97,8.23-10.47l-1.52-6.85
			c2.35-3.39,3.77-7.7,3.77-12.39c0-1.19-0.102-2.32-0.284-3.396c6.876,0.912,10.931-2,12.804-5.172
			C84.515,47.552,84.524,47.382,84.445,47.232z"/>
		<g>
			<path style="fill:#EDBC7C;" d="M61.425,85.97c-2.157,0.672-4.338,1.03-6.56,1.03c-2.113,0-4.294-0.302-6.67-1.04
				c2.81-0.66,5.21-6.13,6.17-9.13c0.14,0.07,0.29,0.12,0.44,0.17c0.15-0.05,0.3-0.1,0.44-0.16
				C56.205,79.85,58.615,85.35,61.425,85.97z"/>
		</g>
		<g>
			<path style="fill:#3E3E3F;" d="M65.303,53.004c-0.828,0-1.5-0.672-1.5-1.5c0-0.602,0.357-1.118,0.869-1.357
				c-0.277-0.084-0.565-0.143-0.869-0.143c-1.657,0-3,1.343-3,3s1.343,3,3,3s3-1.343,3-3c0-0.305-0.059-0.593-0.143-0.869
				C66.421,52.647,65.905,53.004,65.303,53.004z"/>
		</g>
		<g>
			<path style="fill:#F4D0A1;" d="M54.905,76.963c-0.034,0.012-0.066,0.025-0.1,0.037c-0.15-0.05-0.3-0.1-0.44-0.17
				c-0.96,3-3.36,8.47-6.17,9.13c2.376,0.738,4.557,1.04,6.67,1.04c0.013,0,0.027-0.001,0.04-0.001V76.963z"/>
		</g>
		<path style="fill:#EDBC7C;" d="M40.545,46.733c-1.529-1.174-4.081-2.731-6.541-2.731c-3.67,0-5.65,2.53-8.271,2.94
			c-0.16,0.03-0.3,0.14-0.37,0.29c-0.08,0.15-0.07,0.32,0.02,0.46c1.88,3.184,5.88,6.099,12.806,5.153
			c-0.182,1.079-0.286,2.214-0.286,3.415c0,4.66,1.4,8.94,3.73,12.32l-1.54,6.93c-1.269,5.708,2.751,8.779,8.1,10.45
			c2.81-0.66,5.21-6.13,6.17-9.13c0.14,0.07,0.29,0.12,0.44,0.17c0.034-0.011,0.066-0.025,0.1-0.037V40
			C48.581,40,43.459,42.37,40.545,46.733z"/>
		<g>
			<path style="fill:#3E3E3F;" d="M47.303,53.004c-0.828,0-1.5-0.672-1.5-1.5c0-0.602,0.357-1.118,0.869-1.357
				c-0.277-0.084-0.565-0.143-0.869-0.143c-1.657,0-3,1.343-3,3s1.343,3,3,3s3-1.343,3-3c0-0.305-0.059-0.593-0.143-0.869
				C48.421,52.647,47.905,53.004,47.303,53.004z"/>
		</g>
		<g>
			<path style="fill:#3E3E3F;" d="M61.345,72.082c-1.41,2.21-3.45,3.8-6.1,4.76c-0.14,0.06-0.29,0.11-0.44,0.16
				c-0.15-0.05-0.3-0.1-0.44-0.17c-2.65-0.95-4.69-2.54-6.11-4.75c-0.39-0.61-0.42-1.39-0.07-2.04c0.35-0.64,1.02-1.04,1.76-1.04
				h9.72c0.73,0,1.4,0.4,1.75,1.04C61.775,70.692,61.745,71.471,61.345,72.082z"/>
		</g>
		<g>
			<path style="fill:#5B5C5F;" d="M49.945,69.001c-0.74,0-1.41,0.4-1.76,1.04c-0.35,0.65-0.32,1.43,0.07,2.04
				c1.42,2.21,3.46,3.8,6.109,4.75c0,0,0-0.001,0-0.001c0.14,0.07,0.29,0.12,0.44,0.17c0.034-0.011,0.066-0.025,0.1-0.037v-7.962
				H49.945z"/>
		</g>
	</g>
</g>
</svg>
