<?xml version="1.0" encoding="iso-8859-1"?>
<!-- Generator: Adobe Illustrator 17.1.0, SVG Export Plug-In . SVG Version: 6.00 Build 0)  -->
<!DOCTYPE svg PUBLIC "-//W3C//DTD SVG 1.0//EN" "http://www.w3.org/TR/2001/REC-SVG-20010904/DTD/svg10.dtd">
<svg version="1.0" xmlns="http://www.w3.org/2000/svg" xmlns:xlink="http://www.w3.org/1999/xlink" x="0px" y="0px" width="110px"
	 height="110px" viewBox="0 0 110 110" style="enable-background:new 0 0 110 110;" xml:space="preserve">
<g id="Artboard">
</g>
<g id="Multicolor">
	<circle style="fill:#E04F5F;" cx="55" cy="55" r="55"/>
	<g>
		<path style="fill:#F0F1F1;" d="M76.56,31.51l-3.57,51.77C72.84,85.37,71.1,87,69,87H41c-2.1,0-3.84-1.63-3.99-3.72l-3.57-51.76
			c-0.11-1.58,0.72-3.07,2.12-3.81c2.73-1.45,7.03-2.57,9.76-3.34c6.35-1.82,12.69-1.82,19.04,0c2.73,0.77,7.35,1.89,10.08,3.34
			C75.84,28.45,76.67,29.94,76.56,31.51z"/>
		<path style="fill:#3E3E3F;" d="M64.52,24.37C61.74,26.04,58.48,27,55,27s-6.74-0.96-9.52-2.63
			C51.83,22.55,58.17,22.55,64.52,24.37z"/>
		<path style="fill:#FFFFFF;" d="M55,23.011c-3.226-0.016-6.452,0.434-9.68,1.359c-2.73,0.77-7.03,1.89-9.76,3.34
			c-1.4,0.74-2.23,2.23-2.12,3.81l3.57,51.76C37.16,85.37,38.9,87,41,87h14V23.011z"/>
		<path style="fill:#5B5C5F;" d="M45.48,24.37C48.26,26.04,51.52,27,55,27v-3.995C51.828,23.005,48.655,23.46,45.48,24.37z"/>
		<circle style="fill:#17B198;" cx="67" cy="33" r="2"/>
		<circle style="fill:#DF2C2C;" cx="43" cy="33" r="2"/>
		<circle style="fill:#FFFFFF;" cx="55" cy="71.01" r="9"/>
		<path style="fill:#E2E4E5;" d="M54.84,81.005c-5.514,0-10-4.486-10-10s4.486-10,10-10s10,4.486,10,10S60.354,81.005,54.84,81.005z
			 M54.84,63.005c-4.411,0-8,3.589-8,8s3.589,8,8,8s8-3.589,8-8S59.251,63.005,54.84,63.005z"/>
		<path style="fill:#3E3E3F;" d="M61.2,70.23c0-0.428-0.347-0.775-0.775-0.775h-3.1c-0.428,0-0.775-0.347-0.775-0.775v-3.1
			c0-0.428-0.347-0.775-0.775-0.775h-1.55c-0.428,0-0.775,0.347-0.775,0.775v3.1c0,0.428-0.347,0.775-0.775,0.775h-3.1
			c-0.428,0-0.775,0.347-0.775,0.775v1.55c0,0.428,0.347,0.775,0.775,0.775h3.1c0.428,0,0.775,0.347,0.775,0.775v3.1
			c0,0.428,0.347,0.775,0.775,0.775h1.55c0.428,0,0.775-0.347,0.775-0.775v-3.1c0-0.428,0.347-0.775,0.775-0.775h3.1
			c0.428,0,0.775-0.347,0.775-0.775V70.23z"/>
		<circle style="fill:#FFFFFF;" cx="44" cy="43.005" r="2"/>
		<path style="fill:#CFD3D4;" d="M44,47.005c-2.206,0-4-1.794-4-4s1.794-4,4-4s4,1.794,4,4S46.206,47.005,44,47.005z M44,41.005
			c-1.103,0-2,0.897-2,2s0.897,2,2,2s2-0.897,2-2S45.103,41.005,44,41.005z"/>
		<circle style="fill:#FFFFFF;" cx="55" cy="43.005" r="2"/>
		<path style="fill:#CFD3D4;" d="M55,47.005c-2.206,0-4-1.794-4-4s1.794-4,4-4s4,1.794,4,4S57.206,47.005,55,47.005z M55,41.005
			c-1.103,0-2,0.897-2,2s0.897,2,2,2s2-0.897,2-2S56.103,41.005,55,41.005z"/>
		<circle style="fill:#FFFFFF;" cx="66" cy="43.005" r="2"/>
		<path style="fill:#CFD3D4;" d="M66,47.005c-2.206,0-4-1.794-4-4s1.794-4,4-4s4,1.794,4,4S68.206,47.005,66,47.005z M66,41.005
			c-1.103,0-2,0.897-2,2s0.897,2,2,2s2-0.897,2-2S67.103,41.005,66,41.005z"/>
		<circle style="fill:#FFFFFF;" cx="44" cy="53.005" r="2"/>
		<path style="fill:#CFD3D4;" d="M44,57.005c-2.206,0-4-1.794-4-4s1.794-4,4-4s4,1.794,4,4S46.206,57.005,44,57.005z M44,51.005
			c-1.103,0-2,0.897-2,2s0.897,2,2,2s2-0.897,2-2S45.103,51.005,44,51.005z"/>
		<circle style="fill:#FFFFFF;" cx="55" cy="53.005" r="2"/>
		<path style="fill:#CFD3D4;" d="M55,57.005c-2.206,0-4-1.794-4-4s1.794-4,4-4s4,1.794,4,4S57.206,57.005,55,57.005z M55,51.005
			c-1.103,0-2,0.897-2,2s0.897,2,2,2s2-0.897,2-2S56.103,51.005,55,51.005z"/>
		<circle style="fill:#FFFFFF;" cx="66" cy="53.005" r="2"/>
		<path style="fill:#CFD3D4;" d="M66,57.005c-2.206,0-4-1.794-4-4s1.794-4,4-4s4,1.794,4,4S68.206,57.005,66,57.005z M66,51.005
			c-1.103,0-2,0.897-2,2s0.897,2,2,2s2-0.897,2-2S67.103,51.005,66,51.005z"/>
	</g>
</g>
</svg>
