<?xml version="1.0" encoding="iso-8859-1"?>
<!-- Generator: Adobe Illustrator 17.1.0, SVG Export Plug-In . SVG Version: 6.00 Build 0)  -->
<!DOCTYPE svg PUBLIC "-//W3C//DTD SVG 1.0//EN" "http://www.w3.org/TR/2001/REC-SVG-20010904/DTD/svg10.dtd">
<svg version="1.0" xmlns="http://www.w3.org/2000/svg" xmlns:xlink="http://www.w3.org/1999/xlink" x="0px" y="0px" width="110px"
	 height="110px" viewBox="0 0 110 110" style="enable-background:new 0 0 110 110;" xml:space="preserve">
<g id="Artboard">
</g>
<g id="Multicolor">
	<circle style="fill:#32BEA6;" cx="55" cy="55" r="55"/>
	<g>
		<path style="fill:#FFFFFF;" d="M71,49.93c0,0.669-0.334,1.293-0.891,1.664L59,63h-8L39.891,51.594
			C39.334,51.223,39,50.598,39,49.93V27c0-2.209,1.791-4,4-4h24c2.209,0,4,1.791,4,4V49.93z"/>
		<polygon style="fill:#DF2C2C;" points="63,23 47,23 47,58.893 51,63 59,63 63,58.893 		"/>
		<polygon style="fill:#FA5655;" points="55,23 47,23 47,58.893 51,63 55,63 		"/>
		<path style="fill:#FACB1B;" d="M54.103,50.015c0.168-0.341,0.516-0.557,0.897-0.557s0.728,0.216,0.897,0.557l5.309,10.757
			c0.146,0.295,0.427,0.5,0.753,0.547l11.871,1.725c0.377,0.055,0.69,0.319,0.807,0.681s0.02,0.759-0.253,1.025l-8.59,8.373
			c-0.236,0.23-0.343,0.561-0.288,0.885l2.028,11.823c0.064,0.375-0.09,0.754-0.398,0.978c-0.308,0.224-0.716,0.253-1.053,0.076
			l-10.618-5.582c-0.291-0.153-0.639-0.153-0.931,0l-10.618,5.582c-0.337,0.177-0.745,0.148-1.053-0.076
			c-0.308-0.224-0.462-0.603-0.398-0.978l2.028-11.823c0.056-0.324-0.052-0.655-0.288-0.885l-8.59-8.373
			c-0.273-0.266-0.371-0.663-0.253-1.025c0.118-0.362,0.431-0.626,0.807-0.681l11.871-1.725c0.326-0.047,0.607-0.252,0.753-0.547
			L54.103,50.015z"/>
		<path style="fill:#FBE158;" d="M43.166,81.748l20.221-20.221l-1.429-0.208c-0.326-0.047-0.607-0.252-0.753-0.547l-5.309-10.757
			c-0.168-0.341-0.516-0.557-0.897-0.557c-0.38,0-0.728,0.216-0.896,0.557l-5.309,10.757c-0.146,0.295-0.427,0.5-0.753,0.547
			l-11.871,1.725c-0.377,0.055-0.69,0.319-0.808,0.68c-0.118,0.362-0.02,0.76,0.253,1.025l8.59,8.373
			c0.235,0.23,0.343,0.561,0.288,0.885L43.166,81.748z"/>
	</g>
</g>
</svg>
