<?xml version="1.0" encoding="iso-8859-1"?>
<!-- Generator: Adobe Illustrator 17.1.0, SVG Export Plug-In . SVG Version: 6.00 Build 0)  -->
<!DOCTYPE svg PUBLIC "-//W3C//DTD SVG 1.0//EN" "http://www.w3.org/TR/2001/REC-SVG-20010904/DTD/svg10.dtd">
<svg version="1.0" xmlns="http://www.w3.org/2000/svg" xmlns:xlink="http://www.w3.org/1999/xlink" x="0px" y="0px" width="110px"
	 height="110px" viewBox="0 0 110 110" style="enable-background:new 0 0 110 110;" xml:space="preserve">
<g id="Artboard">
</g>
<g id="Multicolor">
	<circle style="fill:#32BEA6;" cx="55" cy="55" r="55"/>
	<g>
		<path style="fill:#FACB1B;" d="M55,43c-12.15,0-22,9.85-22,22s9.85,22,22,22s22-9.85,22-22S67.15,43,55,43z M55,79
			c-7.732,0-14-6.268-14-14s6.268-14,14-14s14,6.268,14,14S62.732,79,55,79z"/>
		<path style="fill:#FBE158;" d="M41,65c0-7.732,6.268-14,14-14v-8c-12.15,0-22,9.85-22,22s9.85,22,22,22v-8
			C47.268,79,41,72.732,41,65z"/>
		<path style="fill:#FFFFFF;" d="M62.876,43.124L71,35l-6-10H45l-6,10l8.124,8.124C52.375,44.275,57.625,44.275,62.876,43.124z"/>
		<polyline style="fill:#9CE5F4;" points="45,25 49,35 55,25 		"/>
		<polyline style="fill:#9CE5F4;" points="55,25 62,35 65,25 		"/>
		<path style="fill:#6FDAF1;" d="M52.333,43.889L49,35H39l8.124,8.124C48.86,43.505,50.597,43.76,52.333,43.889z"/>
		<path style="fill:#9CE5F4;" d="M58.129,43.848L62,35H49l3.333,8.889C54.265,44.032,56.197,44.016,58.129,43.848z"/>
		<path style="fill:#6FDAF1;" d="M62.876,43.124L71,35h-9l-3.871,8.848C59.711,43.71,61.294,43.471,62.876,43.124z"/>
		<path style="fill:#FFFFFF;" d="M84.911,30.013c-2.863,0.403-4.495,2.035-4.897,4.897c-0.017,0.119-0.181,0.119-0.198,0
			c-0.402-2.862-2.035-4.495-4.897-4.897c-0.119-0.017-0.119-0.181,0-0.198c2.863-0.403,4.495-2.035,4.897-4.897
			c0.017-0.119,0.181-0.119,0.198,0c0.402,2.862,2.035,4.495,4.897,4.897C85.03,29.833,85.03,29.997,84.911,30.013z"/>
		<path style="fill:#FFFFFF;" d="M36.081,43.013c-2.863,0.403-4.495,2.035-4.897,4.897c-0.017,0.119-0.181,0.119-0.198,0
			c-0.402-2.862-2.035-4.495-4.897-4.897c-0.119-0.017-0.119-0.181,0-0.198c2.863-0.403,4.495-2.035,4.897-4.897
			c0.017-0.119,0.181-0.119,0.198,0c0.402,2.862,2.035,4.495,4.897,4.897C36.201,42.833,36.201,42.997,36.081,43.013z"/>
		<path style="fill:#F3B607;" d="M63.476,43c-5.651,1.333-11.301,1.333-16.952,0c-1.871,0-2.717,2.339-1.28,3.536l6.235,5.196
			C52.462,52.551,53.701,53,54.98,53h0.04c1.279,0,2.518-0.449,3.501-1.268l6.235-5.196C66.193,45.339,65.347,43,63.476,43z"/>
	</g>
</g>
</svg>
