<?xml version="1.0" encoding="iso-8859-1"?>
<!-- Generator: Adobe Illustrator 17.1.0, SVG Export Plug-In . SVG Version: 6.00 Build 0)  -->
<!DOCTYPE svg PUBLIC "-//W3C//DTD SVG 1.0//EN" "http://www.w3.org/TR/2001/REC-SVG-20010904/DTD/svg10.dtd">
<svg version="1.0" xmlns="http://www.w3.org/2000/svg" xmlns:xlink="http://www.w3.org/1999/xlink" x="0px" y="0px" width="110px"
	 height="110px" viewBox="0 0 110 110" style="enable-background:new 0 0 110 110;" xml:space="preserve">
<g id="Artboard">
</g>
<g id="Multicolor">
	<circle style="fill:#E04F5F;" cx="55" cy="55" r="55"/>
	<g>
		<path style="fill:#FACB1B;" d="M55,43c-12.15,0-22,9.85-22,22s9.85,22,22,22s22-9.85,22-22S67.15,43,55,43z M55,79
			c-7.732,0-14-6.268-14-14s6.268-14,14-14s14,6.268,14,14S62.732,79,55,79z"/>
		<path style="fill:#FBE158;" d="M41,65c0-7.732,6.268-14,14-14v-8c-12.15,0-22,9.85-22,22s9.85,22,22,22v-8
			C47.268,79,41,72.732,41,65z"/>
		<circle style="fill:#F0F1F1;" cx="55" cy="35" r="12"/>
		<path style="fill:#FFFFFF;" d="M43,35c0,6.627,5.373,12,12,12V23C48.373,23,43,28.373,43,35z"/>
		<path style="fill:#F3B607;" d="M63.476,43c-5.651,1.333-11.301,1.333-16.952,0c-1.871,0-2.717,2.339-1.28,3.536l6.235,5.196
			C52.462,52.551,53.701,53,54.98,53h0.04c1.279,0,2.518-0.449,3.501-1.268l6.235-5.196C66.193,45.339,65.347,43,63.476,43z"/>
	</g>
</g>
</svg>
