<?xml version="1.0" encoding="iso-8859-1"?>
<!-- Generator: Adobe Illustrator 17.1.0, SVG Export Plug-In . SVG Version: 6.00 Build 0)  -->
<!DOCTYPE svg PUBLIC "-//W3C//DTD SVG 1.0//EN" "http://www.w3.org/TR/2001/REC-SVG-20010904/DTD/svg10.dtd">
<svg version="1.0" xmlns="http://www.w3.org/2000/svg" xmlns:xlink="http://www.w3.org/1999/xlink" x="0px" y="0px" width="110px"
	 height="110px" viewBox="0 0 110 110" style="enable-background:new 0 0 110 110;" xml:space="preserve">
<g id="Artboard">
</g>
<g id="Multicolor">
	<circle style="fill:#E04F5F;" cx="55" cy="55" r="55"/>
	<g>
		<g>
			<polygon style="fill:#3E3E3F;" points="23,87 43,23 67,23 87,87 			"/>
		</g>
		<g>
			<polygon style="fill:#FFFFFF;" points="29,87 47,23 48,23 34,87 			"/>
		</g>
		<g>
			<polygon style="fill:#FFFFFF;" points="81,87 63,23 62,23 76,87 			"/>
		</g>
		<g>
			<g>
				<polygon style="fill:#FFFFFF;" points="51.2,83 58.8,83 58.25,72 51.75,72 				"/>
			</g>
			<g>
				<polygon style="fill:#FFFFFF;" points="52.05,66 57.95,66 57.45,56 52.55,56 				"/>
			</g>
			<g>
				<polygon style="fill:#FFFFFF;" points="56,27 54,27 53.65,34 56.35,34 				"/>
			</g>
			<g>
				<polygon style="fill:#FFFFFF;" points="53.35,40 52.85,50 57.15,50 56.65,40 				"/>
			</g>
		</g>
	</g>
</g>
</svg>
