<?xml version="1.0" encoding="iso-8859-1"?>
<!-- Generator: Adobe Illustrator 17.1.0, SVG Export Plug-In . SVG Version: 6.00 Build 0)  -->
<!DOCTYPE svg PUBLIC "-//W3C//DTD SVG 1.0//EN" "http://www.w3.org/TR/2001/REC-SVG-20010904/DTD/svg10.dtd">
<svg version="1.0" xmlns="http://www.w3.org/2000/svg" xmlns:xlink="http://www.w3.org/1999/xlink" x="0px" y="0px" width="110px"
	 height="110px" viewBox="0 0 110 110" style="enable-background:new 0 0 110 110;" xml:space="preserve">
<g id="Artboard">
</g>
<g id="Multicolor">
	<g>
		<circle style="fill:#E04F5F;" cx="55" cy="55" r="55"/>
	</g>
	<g>
		<path style="fill:#9C6144;" d="M57.655,68H55h-2.655c-0.856,0-1.671-0.366-2.24-1.005L45,63v4.494c0,0,0,7.5,10,7.5s10-7.5,10-7.5
			V63l-5.105,3.995C59.326,67.634,58.511,68,57.655,68z"/>
		<path style="fill:#BF8662;" d="M50.105,66.995L45,63v4.494c0,0,0,7.5,10,7.5V68h-2.655C51.489,68,50.674,67.634,50.105,66.995z"/>
		<g>
			<polygon style="fill:#FFFFFF;" points="67,67.997 65,66.997 55,75 45,66.997 43,67.997 55,87 			"/>
		</g>
		<g>
			<path style="fill:#F37A10;" d="M23,86.997l4-11c0.615-1.333,1.698-2.394,3.043-2.983L43,67.997l12,19H23z"/>
		</g>
		<g>
			<polygon style="fill:#FACB1B;" points="36.138,70.654 40.421,86.997 45.557,86.997 40.8,68.849 			"/>
		</g>
		<g>
			<path style="fill:#FFFFFF;" d="M32.895,72.059l-2.852,0.958C28.698,73.605,27.615,74.667,27,76l-4,11h11.914L32.895,72.059z"/>
		</g>
		<g>
			<path style="fill:#F37A10;" d="M87,86.997l-4-11c-0.615-1.333-1.698-2.394-3.043-2.983L67,67.997l-12,19H87z"/>
		</g>
		<g>
			<polygon style="fill:#FACB1B;" points="73.862,70.654 69.579,86.997 64.443,86.997 69.2,68.849 			"/>
		</g>
		<g>
			<path style="fill:#FFFFFF;" d="M77.105,72.059l2.852,0.958C81.302,73.605,82.385,74.667,83,76l4,11H75.086L77.105,72.059z"/>
		</g>
		<path style="fill:#BF8662;" d="M70,45.036c-1,0-1,1.111-1,1.111v-1.111c-0.006-3.226-0.144-6.063-0.91-8.38
			C66.053,35.844,62.118,35,55,35s-11.053,0.844-13.09,1.656c-0.766,2.317-0.903,5.154-0.91,8.38V53l4,10l5.105,3.995
			C50.674,67.634,51.489,68,52.345,68H55h2.655c0.856,0,1.671-0.366,2.24-1.005L65,63l3.193-7.982
			C71.039,54.827,72,50.517,72,47.258C72,46.147,71,45.036,70,45.036z"/>
		<path style="fill:#CC9978;" d="M41,45v1.111c0,0,0-1.111-1-1.111s-2,1.111-2,2.222c0,3.259,0.961,7.568,3.807,7.76L45,62.964
			l5.105,3.995c0.569,0.64,1.384,1.005,2.24,1.005H55V35c-7.134,0-11.071,0.848-13.104,1.661C41.142,38.971,41.006,41.793,41,45z"/>
		<g>
			<path style="fill:#3E3E3F;" d="M52,46.997c0-1.104-0.896-2-2-2c-0.002,0-0.004,0-0.006,0C49.995,45.019,50,45.039,50,45.06
				c0,1.103-0.892,1.996-1.994,2c0.033,1.075,0.91,1.938,1.994,1.938C51.104,48.997,52,48.102,52,46.997z"/>
		</g>
		<g>
			<path style="fill:#3E3E3F;" d="M61.994,46.997c0-1.104-0.896-2-2-2c-0.002,0-0.004,0-0.006,0
				c0.001,0.021,0.006,0.041,0.006,0.062c0,1.103-0.892,1.996-1.994,2c0.033,1.075,0.91,1.938,1.994,1.938
				C61.098,48.997,61.994,48.102,61.994,46.997z"/>
		</g>
		<path style="fill:#3E3E3F;" d="M68,45l-2,10v0.031l-3,6h-1l-1.316-3.949c-0.408-1.225-1.555-2.051-2.846-2.051H55h-2.838
			c-1.291,0-2.438,0.826-2.846,2.051L48,61.031h-1l-3-6V55l-2-10h-1l1.016,10.503L45,62.964l5.105,3.995
			c0.569,0.639,1.384,1.005,2.24,1.005H55h2.655c0.856,0,1.671-0.366,2.24-1.005L65,62.964l2.984-7.461L69,45H68z"/>
		<g>
			<g>
				<path style="fill:#FACB1B;" d="M40,41c0,0-1-15,15-15c0,8,0,15,0,15H40z"/>
			</g>
			<g>
				<path style="fill:#F3B607;" d="M70,41c0,0,1-15-15-15c0,8,0,15,0,15H70z"/>
			</g>
			<path style="fill:#FBE158;" d="M58,31v-6c0-1.104-0.896-2-2-2h-2c-1.104,0-2,0.896-2,2v6c0.067,1.766-1.921,7.722-7,8
				c4.853,0,6.506,0,7,0h0.189h5.621H58c0.494,0,2.146,0,7,0C59.921,38.722,57.933,32.766,58,31z"/>
			<g>
				<path style="fill:#F3B607;" d="M73,41.248c0,0.454-0.305,0.849-0.744,0.966C70.313,42.73,64.561,44,55,44
					s-15.313-1.27-17.256-1.786C37.306,42.098,37,41.701,37,41.248V41c0-1.105,0.895-2,2-2h32c1.105,0,2,0.895,2,2V41.248z"/>
			</g>
			<path style="fill:#FACB1B;" d="M39,39c-1.104,0-2,0.896-2,2v0.249c0,0.453,0.306,0.85,0.744,0.966C39.687,42.73,45.439,44,55,44
				v-5H39z"/>
		</g>
		<g>
			<path style="fill:#BF8662;" d="M52,57h6c0,0,0,3-3,3S52,57,52,57z"/>
		</g>
	</g>
</g>
</svg>
