<?xml version="1.0" encoding="iso-8859-1"?>
<!-- Generator: Adobe Illustrator 17.1.0, SVG Export Plug-In . SVG Version: 6.00 Build 0)  -->
<!DOCTYPE svg PUBLIC "-//W3C//DTD SVG 1.0//EN" "http://www.w3.org/TR/2001/REC-SVG-20010904/DTD/svg10.dtd">
<svg version="1.0" xmlns="http://www.w3.org/2000/svg" xmlns:xlink="http://www.w3.org/1999/xlink" x="0px" y="0px" width="110px"
	 height="110px" viewBox="0 0 110 110" style="enable-background:new 0 0 110 110;" xml:space="preserve">
<g id="Artboard" style="display:none;">
	<rect x="-1247" y="-327" style="display:inline;fill:#8C8C8C;" width="1412" height="743"/>
</g>
<g id="R-Multicolor">
	<circle style="fill:#25B7D3;" cx="55" cy="55" r="55"/>
	<g>
		<path style="fill:#84462D;" d="M79,35v52h-8V35l2.57-4.28C74.01,30.91,74.5,31,75,31s0.99-0.09,1.43-0.28L79,35z"/>
		<path style="fill:#FACB1B;" d="M79,27c0,2.262-1.858,4-4,4c-2.119,0-4-1.717-4-4c0-2.21,1.79-4,4-4S79,24.79,79,27z"/>
		<path style="fill:#84462D;" d="M39,35v52h-8V35l2.57-4.28C34.01,30.91,34.5,31,35,31s0.99-0.09,1.43-0.28L39,35z"/>
		<rect x="23" y="35" style="fill:#FFFFFF;" width="64" height="12"/>
		<polygon style="fill:#DF2C2C;" points="23,47 35,35 23,35 		"/>
		<polygon style="fill:#DF2C2C;" points="34,47 46,35 58,35 46,47 		"/>
		<polygon style="fill:#DF2C2C;" points="57,47 69,35 81,35 69,47 		"/>
		<polygon style="fill:#DF2C2C;" points="87,39 87,47 79,47 		"/>
		<rect x="23" y="55" style="fill:#FFFFFF;" width="64" height="12"/>
		<path style="fill:#FACB1B;" d="M39,27c0,2.262-1.858,4-4,4c-2.119,0-4-1.717-4-4c0-2.21,1.79-4,4-4S39,24.79,39,27z"/>
		<polygon style="fill:#DF2C2C;" points="23,67 35,55 23,55 		"/>
		<polygon style="fill:#DF2C2C;" points="34,67 46,55 58,55 46,67 		"/>
		<polygon style="fill:#DF2C2C;" points="57,67 69,55 81,55 69,67 		"/>
		<polygon style="fill:#DF2C2C;" points="87,59 87,67 79,67 		"/>
		<rect x="31" y="67" style="fill:#84462D;" width="8" height="20"/>
		<path style="fill:#FBE158;" d="M35,23c-2.21,0-4,1.79-4,4c0,1.12,0.456,2.099,1.167,2.811l5.649-5.649
			C37.094,23.444,36.099,23,35,23z"/>
		<path style="fill:#FBE158;" d="M75,23c-2.21,0-4,1.79-4,4c0,1.12,0.456,2.099,1.167,2.811l5.649-5.649
			C77.094,23.444,76.099,23,75,23z"/>
	</g>
</g>
<g id="Multicolor" style="display:none;">
	<g style="display:inline;">
		<path style="fill:#84462D;" d="M79,35v52h-8V35l2.57-4.28C74.01,30.91,74.5,31,75,31s0.99-0.09,1.43-0.28L79,35z"/>
		<path style="fill:#FACB1B;" d="M79,27c0,2.262-1.858,4-4,4c-2.119,0-4-1.717-4-4c0-2.21,1.79-4,4-4S79,24.79,79,27z"/>
		<path style="fill:#84462D;" d="M39,35v52h-8V35l2.57-4.28C34.01,30.91,34.5,31,35,31s0.99-0.09,1.43-0.28L39,35z"/>
		<rect x="23" y="35" style="fill:#FFFFFF;" width="64" height="12"/>
		<polygon style="fill:#DF2C2C;" points="23,47 35,35 23,35 		"/>
		<polygon style="fill:#DF2C2C;" points="34,47 46,35 58,35 46,47 		"/>
		<polygon style="fill:#DF2C2C;" points="57,47 69,35 81,35 69,47 		"/>
		<polygon style="fill:#DF2C2C;" points="87,39 87,47 79,47 		"/>
		<rect x="23" y="55" style="fill:#FFFFFF;" width="64" height="12"/>
		<path style="fill:#FACB1B;" d="M39,27c0,2.262-1.858,4-4,4c-2.119,0-4-1.717-4-4c0-2.21,1.79-4,4-4S39,24.79,39,27z"/>
		<polygon style="fill:#DF2C2C;" points="23,67 35,55 23,55 		"/>
		<polygon style="fill:#DF2C2C;" points="34,67 46,55 58,55 46,67 		"/>
		<polygon style="fill:#DF2C2C;" points="57,67 69,55 81,55 69,67 		"/>
		<polygon style="fill:#DF2C2C;" points="87,59 87,67 79,67 		"/>
		<rect x="31" y="67" style="fill:#84462D;" width="8" height="20"/>
		<path style="fill:#FBE158;" d="M35,23c-2.21,0-4,1.79-4,4c0,1.12,0.456,2.099,1.167,2.811l5.649-5.649
			C37.094,23.444,36.099,23,35,23z"/>
		<path style="fill:#FBE158;" d="M75,23c-2.21,0-4,1.79-4,4c0,1.12,0.456,2.099,1.167,2.811l5.649-5.649
			C77.094,23.444,76.099,23,75,23z"/>
	</g>
</g>
<g id="Blue" style="display:none;">
	<g style="display:inline;">
		<g>
			<path style="fill:#0C333D;" d="M79.003,35v52h-8V35l2.57-4.28c0.44,0.191,0.93,0.28,1.43,0.28s0.99-0.09,1.43-0.28L79.003,35z"/>
		</g>
		<g>
			<path style="fill:#BBE7F2;" d="M79.003,27c0,2.262-1.858,4-4,4c-2.119,0-4-1.717-4-4c0-2.21,1.79-4,4-4
				C77.213,23,79.003,24.79,79.003,27z"/>
		</g>
		<g>
			<path style="fill:#0C333D;" d="M39.003,35v52h-8V35l2.57-4.28c0.44,0.191,0.93,0.28,1.43,0.28s0.99-0.09,1.43-0.28L39.003,35z"/>
		</g>
		<g>
			<rect x="23.003" y="35" style="fill:#FFFFFF;" width="64" height="12"/>
		</g>
		<g>
			<polygon style="fill:#009FC7;" points="23.003,47 35.003,35 23.003,35 			"/>
		</g>
		<g>
			<polygon style="fill:#009FC7;" points="34.003,47 46.003,35 58.003,35 46.003,47 			"/>
		</g>
		<g>
			<polygon style="fill:#009FC7;" points="57.003,47 69.003,35 81.003,35 69.003,47 			"/>
		</g>
		<g>
			<polygon style="fill:#009FC7;" points="87.003,39 87.003,47 79.003,47 			"/>
		</g>
		<g>
			<rect x="23.003" y="55" style="fill:#FFFFFF;" width="64" height="12"/>
		</g>
		<g>
			<path style="fill:#BBE7F2;" d="M39.003,27c0,2.262-1.858,4-4,4c-2.119,0-4-1.717-4-4c0-2.21,1.79-4,4-4S39.003,24.79,39.003,27z"
				/>
		</g>
		<g>
			<polygon style="fill:#009FC7;" points="23.003,67 35.003,55 23.003,55 			"/>
		</g>
		<g>
			<polygon style="fill:#009FC7;" points="34.003,67 46.003,55 58.003,55 46.003,67 			"/>
		</g>
		<g>
			<polygon style="fill:#009FC7;" points="57.003,67 69.003,55 81.003,55 69.003,67 			"/>
		</g>
		<g>
			<polygon style="fill:#009FC7;" points="87.003,59 87.003,67 79.003,67 			"/>
		</g>
		<g>
			<rect x="31.003" y="67" style="fill:#0C333D;" width="8" height="20"/>
		</g>
		<g>
			<path style="fill:#FFFFFF;" d="M35.003,23c-2.21,0-4,1.79-4,4c0,1.12,0.456,2.099,1.167,2.81l5.649-5.649
				C37.097,23.444,36.102,23,35.003,23z"/>
		</g>
		<g>
			<path style="fill:#FFFFFF;" d="M75.003,23c-2.21,0-4,1.79-4,4c0,1.12,0.456,2.099,1.167,2.81l5.649-5.649
				C77.097,23.444,76.102,23,75.003,23z"/>
		</g>
	</g>
</g>
<g id="R-Blue" style="display:none;">
	<g style="display:inline;">
		<circle style="fill:#81D2EB;" cx="55" cy="55" r="55"/>
	</g>
	<g style="display:inline;">
		<g>
			<path style="fill:#0C333D;" d="M79,35v52h-8V35l2.57-4.28C74.01,30.91,74.5,31,75,31s0.99-0.09,1.43-0.28L79,35z"/>
		</g>
		<g>
			<path style="fill:#BBE7F2;" d="M79,27c0,2.262-1.858,4-4,4c-2.119,0-4-1.717-4-4c0-2.21,1.79-4,4-4S79,24.79,79,27z"/>
		</g>
		<g>
			<path style="fill:#0C333D;" d="M39,35v52h-8V35l2.57-4.28C34.01,30.91,34.5,31,35,31s0.99-0.09,1.43-0.28L39,35z"/>
		</g>
		<g>
			<rect x="23" y="35" style="fill:#FFFFFF;" width="64" height="12"/>
		</g>
		<g>
			<polygon style="fill:#009FC7;" points="23,47 35,35 23,35 			"/>
		</g>
		<g>
			<polygon style="fill:#009FC7;" points="34,47 46,35 58,35 46,47 			"/>
		</g>
		<g>
			<polygon style="fill:#009FC7;" points="57,47 69,35 81,35 69,47 			"/>
		</g>
		<g>
			<polygon style="fill:#009FC7;" points="87,39 87,47 79,47 			"/>
		</g>
		<g>
			<rect x="23" y="55" style="fill:#FFFFFF;" width="64" height="12"/>
		</g>
		<g>
			<path style="fill:#BBE7F2;" d="M39,27c0,2.262-1.858,4-4,4c-2.119,0-4-1.717-4-4c0-2.21,1.79-4,4-4S39,24.79,39,27z"/>
		</g>
		<g>
			<polygon style="fill:#009FC7;" points="23,67 35,55 23,55 			"/>
		</g>
		<g>
			<polygon style="fill:#009FC7;" points="34,67 46,55 58,55 46,67 			"/>
		</g>
		<g>
			<polygon style="fill:#009FC7;" points="57,67 69,55 81,55 69,67 			"/>
		</g>
		<g>
			<polygon style="fill:#009FC7;" points="87,59 87,67 79,67 			"/>
		</g>
		<g>
			<rect x="31" y="67" style="fill:#0C333D;" width="8" height="20"/>
		</g>
		<g>
			<path style="fill:#FFFFFF;" d="M35,23c-2.21,0-4,1.79-4,4c0,1.12,0.456,2.099,1.167,2.81l5.649-5.649
				C37.094,23.444,36.099,23,35,23z"/>
		</g>
		<g>
			<path style="fill:#FFFFFF;" d="M75,23c-2.21,0-4,1.79-4,4c0,1.12,0.456,2.099,1.167,2.81l5.649-5.649
				C77.094,23.444,76.099,23,75,23z"/>
		</g>
	</g>
</g>
<g id="Green" style="display:none;">
	<g style="display:inline;">
		<g>
			<path style="fill:#0A3631;" d="M79.003,35v52h-8V35l2.57-4.28c0.44,0.191,0.93,0.28,1.43,0.28s0.99-0.09,1.43-0.28L79.003,35z"/>
		</g>
		<g>
			<path style="fill:#AAF0E9;" d="M79.003,27c0,2.262-1.858,4-4,4c-2.119,0-4-1.717-4-4c0-2.21,1.79-4,4-4
				C77.213,23,79.003,24.79,79.003,27z"/>
		</g>
		<g>
			<path style="fill:#0A3631;" d="M39.003,35v52h-8V35l2.57-4.28c0.44,0.191,0.93,0.28,1.43,0.28s0.99-0.09,1.43-0.28L39.003,35z"/>
		</g>
		<g>
			<rect x="23.003" y="35" style="fill:#FFFFFF;" width="64" height="12"/>
		</g>
		<g>
			<polygon style="fill:#00B8A5;" points="23.003,47 35.003,35 23.003,35 			"/>
		</g>
		<g>
			<polygon style="fill:#00B8A5;" points="34.003,47 46.003,35 58.003,35 46.003,47 			"/>
		</g>
		<g>
			<polygon style="fill:#00B8A5;" points="57.003,47 69.003,35 81.003,35 69.003,47 			"/>
		</g>
		<g>
			<polygon style="fill:#00B8A5;" points="87.003,39 87.003,47 79.003,47 			"/>
		</g>
		<g>
			<rect x="23.003" y="55" style="fill:#FFFFFF;" width="64" height="12"/>
		</g>
		<g>
			<path style="fill:#AAF0E9;" d="M39.003,27c0,2.262-1.858,4-4,4c-2.119,0-4-1.717-4-4c0-2.21,1.79-4,4-4S39.003,24.79,39.003,27z"
				/>
		</g>
		<g>
			<polygon style="fill:#00B8A5;" points="23.003,67 35.003,55 23.003,55 			"/>
		</g>
		<g>
			<polygon style="fill:#00B8A5;" points="34.003,67 46.003,55 58.003,55 46.003,67 			"/>
		</g>
		<g>
			<polygon style="fill:#00B8A5;" points="57.003,67 69.003,55 81.003,55 69.003,67 			"/>
		</g>
		<g>
			<polygon style="fill:#00B8A5;" points="87.003,59 87.003,67 79.003,67 			"/>
		</g>
		<g>
			<rect x="31.003" y="67" style="fill:#0A3631;" width="8" height="20"/>
		</g>
		<g>
			<path style="fill:#FFFFFF;" d="M35.003,23c-2.21,0-4,1.79-4,4c0,1.12,0.456,2.099,1.167,2.81l5.649-5.649
				C37.097,23.444,36.102,23,35.003,23z"/>
		</g>
		<g>
			<path style="fill:#FFFFFF;" d="M75.003,23c-2.21,0-4,1.79-4,4c0,1.12,0.456,2.099,1.167,2.81l5.649-5.649
				C77.097,23.444,76.102,23,75.003,23z"/>
		</g>
	</g>
</g>
<g id="R-Green" style="display:none;">
	<g style="display:inline;">
		<circle style="fill:#87E0C8;" cx="55" cy="55" r="55"/>
	</g>
	<g style="display:inline;">
		<g>
			<path style="fill:#0A3631;" d="M79,35v52h-8V35l2.57-4.28C74.01,30.91,74.5,31,75,31s0.99-0.09,1.43-0.28L79,35z"/>
		</g>
		<g>
			<path style="fill:#AAF0E9;" d="M79,27c0,2.262-1.858,4-4,4c-2.119,0-4-1.717-4-4c0-2.21,1.79-4,4-4S79,24.79,79,27z"/>
		</g>
		<g>
			<path style="fill:#0A3631;" d="M39,35v52h-8V35l2.57-4.28C34.01,30.91,34.5,31,35,31s0.99-0.09,1.43-0.28L39,35z"/>
		</g>
		<g>
			<rect x="23" y="35" style="fill:#FFFFFF;" width="64" height="12"/>
		</g>
		<g>
			<polygon style="fill:#00B8A5;" points="23,47 35,35 23,35 			"/>
		</g>
		<g>
			<polygon style="fill:#00B8A5;" points="34,47 46,35 58,35 46,47 			"/>
		</g>
		<g>
			<polygon style="fill:#00B8A5;" points="57,47 69,35 81,35 69,47 			"/>
		</g>
		<g>
			<polygon style="fill:#00B8A5;" points="87,39 87,47 79,47 			"/>
		</g>
		<g>
			<rect x="23" y="55" style="fill:#FFFFFF;" width="64" height="12"/>
		</g>
		<g>
			<path style="fill:#AAF0E9;" d="M39,27c0,2.262-1.858,4-4,4c-2.119,0-4-1.717-4-4c0-2.21,1.79-4,4-4S39,24.79,39,27z"/>
		</g>
		<g>
			<polygon style="fill:#00B8A5;" points="23,67 35,55 23,55 			"/>
		</g>
		<g>
			<polygon style="fill:#00B8A5;" points="34,67 46,55 58,55 46,67 			"/>
		</g>
		<g>
			<polygon style="fill:#00B8A5;" points="57,67 69,55 81,55 69,67 			"/>
		</g>
		<g>
			<polygon style="fill:#00B8A5;" points="87,59 87,67 79,67 			"/>
		</g>
		<g>
			<rect x="31" y="67" style="fill:#0A3631;" width="8" height="20"/>
		</g>
		<g>
			<path style="fill:#FFFFFF;" d="M35,23c-2.21,0-4,1.79-4,4c0,1.12,0.456,2.099,1.167,2.81l5.649-5.649
				C37.094,23.444,36.099,23,35,23z"/>
		</g>
		<g>
			<path style="fill:#FFFFFF;" d="M75,23c-2.21,0-4,1.79-4,4c0,1.12,0.456,2.099,1.167,2.81l5.649-5.649
				C77.094,23.444,76.099,23,75,23z"/>
		</g>
	</g>
</g>
<g id="Red" style="display:none;">
	<g style="display:inline;">
		<g>
			<path style="fill:#4A1410;" d="M79,35v52h-8V35l2.57-4.28C74.01,30.91,74.5,31,75,31s0.99-0.09,1.43-0.28L79,35z"/>
		</g>
		<g>
			<path style="fill:#FFD7D4;" d="M79,27c0,2.262-1.858,4-4,4c-2.119,0-4-1.717-4-4c0-2.21,1.79-4,4-4S79,24.79,79,27z"/>
		</g>
		<g>
			<path style="fill:#4A1410;" d="M39,35v52h-8V35l2.57-4.28C34.01,30.91,34.5,31,35,31s0.99-0.09,1.43-0.28L39,35z"/>
		</g>
		<g>
			<rect x="23" y="35" style="fill:#FFFFFF;" width="64" height="12"/>
		</g>
		<g>
			<polygon style="fill:#E54B44;" points="23,47 35,35 23,35 			"/>
		</g>
		<g>
			<polygon style="fill:#E54B44;" points="34,47 46,35 58,35 46,47 			"/>
		</g>
		<g>
			<polygon style="fill:#E54B44;" points="57,47 69,35 81,35 69,47 			"/>
		</g>
		<g>
			<polygon style="fill:#E54B44;" points="87,39 87,47 79,47 			"/>
		</g>
		<g>
			<rect x="23" y="55" style="fill:#FFFFFF;" width="64" height="12"/>
		</g>
		<g>
			<path style="fill:#FFD7D4;" d="M39,27c0,2.262-1.858,4-4,4c-2.119,0-4-1.717-4-4c0-2.21,1.79-4,4-4S39,24.79,39,27z"/>
		</g>
		<g>
			<polygon style="fill:#E54B44;" points="23,67 35,55 23,55 			"/>
		</g>
		<g>
			<polygon style="fill:#E54B44;" points="34,67 46,55 58,55 46,67 			"/>
		</g>
		<g>
			<polygon style="fill:#E54B44;" points="57,67 69,55 81,55 69,67 			"/>
		</g>
		<g>
			<polygon style="fill:#E54B44;" points="87,59 87,67 79,67 			"/>
		</g>
		<g>
			<rect x="31" y="67" style="fill:#4A1410;" width="8" height="20"/>
		</g>
		<g>
			<path style="fill:#FFFFFF;" d="M35,23c-2.21,0-4,1.79-4,4c0,1.12,0.456,2.099,1.167,2.81l5.649-5.649
				C37.094,23.444,36.099,23,35,23z"/>
		</g>
		<g>
			<path style="fill:#FFFFFF;" d="M75,23c-2.21,0-4,1.79-4,4c0,1.12,0.456,2.099,1.167,2.81l5.649-5.649
				C77.094,23.444,76.099,23,75,23z"/>
		</g>
	</g>
</g>
<g id="R-Red" style="display:none;">
	<g style="display:inline;">
		<circle style="fill:#FABBAF;" cx="55" cy="55" r="55"/>
	</g>
	<g style="display:inline;">
		<g>
			<path style="fill:#4A1410;" d="M79,35v52h-8V35l2.57-4.28C74.01,30.91,74.5,31,75,31s0.99-0.09,1.43-0.28L79,35z"/>
		</g>
		<g>
			<path style="fill:#FFD7D4;" d="M79,27c0,2.262-1.858,4-4,4c-2.119,0-4-1.717-4-4c0-2.21,1.79-4,4-4S79,24.79,79,27z"/>
		</g>
		<g>
			<path style="fill:#4A1410;" d="M39,35v52h-8V35l2.57-4.28C34.01,30.91,34.5,31,35,31s0.99-0.09,1.43-0.28L39,35z"/>
		</g>
		<g>
			<rect x="23" y="35" style="fill:#FFFFFF;" width="64" height="12"/>
		</g>
		<g>
			<polygon style="fill:#E54B44;" points="23,47 35,35 23,35 			"/>
		</g>
		<g>
			<polygon style="fill:#E54B44;" points="34,47 46,35 58,35 46,47 			"/>
		</g>
		<g>
			<polygon style="fill:#E54B44;" points="57,47 69,35 81,35 69,47 			"/>
		</g>
		<g>
			<polygon style="fill:#E54B44;" points="87,39 87,47 79,47 			"/>
		</g>
		<g>
			<rect x="23" y="55" style="fill:#FFFFFF;" width="64" height="12"/>
		</g>
		<g>
			<path style="fill:#FFD7D4;" d="M39,27c0,2.262-1.858,4-4,4c-2.119,0-4-1.717-4-4c0-2.21,1.79-4,4-4S39,24.79,39,27z"/>
		</g>
		<g>
			<polygon style="fill:#E54B44;" points="23,67 35,55 23,55 			"/>
		</g>
		<g>
			<polygon style="fill:#E54B44;" points="34,67 46,55 58,55 46,67 			"/>
		</g>
		<g>
			<polygon style="fill:#E54B44;" points="57,67 69,55 81,55 69,67 			"/>
		</g>
		<g>
			<polygon style="fill:#E54B44;" points="87,59 87,67 79,67 			"/>
		</g>
		<g>
			<rect x="31" y="67" style="fill:#4A1410;" width="8" height="20"/>
		</g>
		<g>
			<path style="fill:#FFFFFF;" d="M35,23c-2.21,0-4,1.79-4,4c0,1.12,0.456,2.099,1.167,2.81l5.649-5.649
				C37.094,23.444,36.099,23,35,23z"/>
		</g>
		<g>
			<path style="fill:#FFFFFF;" d="M75,23c-2.21,0-4,1.79-4,4c0,1.12,0.456,2.099,1.167,2.81l5.649-5.649
				C77.094,23.444,76.099,23,75,23z"/>
		</g>
	</g>
</g>
<g id="Yellow" style="display:none;">
	<g style="display:inline;">
		<g>
			<path style="fill:#3D320C;" d="M79.003,35v52h-8V35l2.57-4.28c0.44,0.191,0.93,0.28,1.43,0.28s0.99-0.09,1.43-0.28L79.003,35z"/>
		</g>
		<g>
			<path style="fill:#FFE9A1;" d="M79.003,27c0,2.262-1.858,4-4,4c-2.119,0-4-1.717-4-4c0-2.21,1.79-4,4-4
				C77.213,23,79.003,24.79,79.003,27z"/>
		</g>
		<g>
			<path style="fill:#3D320C;" d="M39.003,35v52h-8V35l2.57-4.28c0.44,0.191,0.93,0.28,1.43,0.28s0.99-0.09,1.43-0.28L39.003,35z"/>
		</g>
		<g>
			<rect x="23.003" y="35" style="fill:#FFFFFF;" width="64" height="12"/>
		</g>
		<g>
			<polygon style="fill:#FA9200;" points="23.003,47 35.003,35 23.003,35 			"/>
		</g>
		<g>
			<polygon style="fill:#FA9200;" points="34.003,47 46.003,35 58.003,35 46.003,47 			"/>
		</g>
		<g>
			<polygon style="fill:#FA9200;" points="57.003,47 69.003,35 81.003,35 69.003,47 			"/>
		</g>
		<g>
			<polygon style="fill:#FA9200;" points="87.003,39 87.003,47 79.003,47 			"/>
		</g>
		<g>
			<rect x="23.003" y="55" style="fill:#FFFFFF;" width="64" height="12"/>
		</g>
		<g>
			<path style="fill:#FFE9A1;" d="M39.003,27c0,2.262-1.858,4-4,4c-2.119,0-4-1.717-4-4c0-2.21,1.79-4,4-4S39.003,24.79,39.003,27z"
				/>
		</g>
		<g>
			<polygon style="fill:#FA9200;" points="23.003,67 35.003,55 23.003,55 			"/>
		</g>
		<g>
			<polygon style="fill:#FA9200;" points="34.003,67 46.003,55 58.003,55 46.003,67 			"/>
		</g>
		<g>
			<polygon style="fill:#FA9200;" points="57.003,67 69.003,55 81.003,55 69.003,67 			"/>
		</g>
		<g>
			<polygon style="fill:#FA9200;" points="87.003,59 87.003,67 79.003,67 			"/>
		</g>
		<g>
			<rect x="31.003" y="67" style="fill:#3D320C;" width="8" height="20"/>
		</g>
		<g>
			<path style="fill:#FFFFFF;" d="M35.003,23c-2.21,0-4,1.79-4,4c0,1.12,0.456,2.099,1.167,2.81l5.649-5.649
				C37.097,23.444,36.102,23,35.003,23z"/>
		</g>
		<g>
			<path style="fill:#FFFFFF;" d="M75.003,23c-2.21,0-4,1.79-4,4c0,1.12,0.456,2.099,1.167,2.81l5.649-5.649
				C77.097,23.444,76.102,23,75.003,23z"/>
		</g>
	</g>
</g>
<g id="R-Yellow" style="display:none;">
	<g style="display:inline;">
		<circle style="fill:#FFD75E;" cx="55" cy="55" r="55"/>
	</g>
	<g style="display:inline;">
		<g>
			<path style="fill:#3D320C;" d="M79,35v52h-8V35l2.57-4.28C74.01,30.91,74.5,31,75,31s0.99-0.09,1.43-0.28L79,35z"/>
		</g>
		<g>
			<path style="fill:#FFE9A1;" d="M79,27c0,2.262-1.858,4-4,4c-2.119,0-4-1.717-4-4c0-2.21,1.79-4,4-4S79,24.79,79,27z"/>
		</g>
		<g>
			<path style="fill:#3D320C;" d="M39,35v52h-8V35l2.57-4.28C34.01,30.91,34.5,31,35,31s0.99-0.09,1.43-0.28L39,35z"/>
		</g>
		<g>
			<rect x="23" y="35" style="fill:#FFFFFF;" width="64" height="12"/>
		</g>
		<g>
			<polygon style="fill:#FA9200;" points="23,47 35,35 23,35 			"/>
		</g>
		<g>
			<polygon style="fill:#FA9200;" points="34,47 46,35 58,35 46,47 			"/>
		</g>
		<g>
			<polygon style="fill:#FA9200;" points="57,47 69,35 81,35 69,47 			"/>
		</g>
		<g>
			<polygon style="fill:#FA9200;" points="87,39 87,47 79,47 			"/>
		</g>
		<g>
			<rect x="23" y="55" style="fill:#FFFFFF;" width="64" height="12"/>
		</g>
		<g>
			<path style="fill:#FFE9A1;" d="M39,27c0,2.262-1.858,4-4,4c-2.119,0-4-1.717-4-4c0-2.21,1.79-4,4-4S39,24.79,39,27z"/>
		</g>
		<g>
			<polygon style="fill:#FA9200;" points="23,67 35,55 23,55 			"/>
		</g>
		<g>
			<polygon style="fill:#FA9200;" points="34,67 46,55 58,55 46,67 			"/>
		</g>
		<g>
			<polygon style="fill:#FA9200;" points="57,67 69,55 81,55 69,67 			"/>
		</g>
		<g>
			<polygon style="fill:#FA9200;" points="87,59 87,67 79,67 			"/>
		</g>
		<g>
			<rect x="31" y="67" style="fill:#3D320C;" width="8" height="20"/>
		</g>
		<g>
			<path style="fill:#FFFFFF;" d="M35,23c-2.21,0-4,1.79-4,4c0,1.12,0.456,2.099,1.167,2.81l5.649-5.649
				C37.094,23.444,36.099,23,35,23z"/>
		</g>
		<g>
			<path style="fill:#FFFFFF;" d="M75,23c-2.21,0-4,1.79-4,4c0,1.12,0.456,2.099,1.167,2.81l5.649-5.649
				C77.094,23.444,76.099,23,75,23z"/>
		</g>
	</g>
</g>
</svg>
