<?xml version="1.0" encoding="iso-8859-1"?>
<!-- Generator: Adobe Illustrator 17.1.0, SVG Export Plug-In . SVG Version: 6.00 Build 0)  -->
<!DOCTYPE svg PUBLIC "-//W3C//DTD SVG 1.0//EN" "http://www.w3.org/TR/2001/REC-SVG-20010904/DTD/svg10.dtd">
<svg version="1.0" xmlns="http://www.w3.org/2000/svg" xmlns:xlink="http://www.w3.org/1999/xlink" x="0px" y="0px" width="110px"
	 height="110px" viewBox="0 0 110 110" style="enable-background:new 0 0 110 110;" xml:space="preserve">
<g id="Artboard">
</g>
<g id="Multicolor">
	<circle style="fill:#32BEA6;" cx="55" cy="55" r="55"/>
	<g>
		<g>
			<path style="fill:#3E3E3F;" d="M65,25c0-1.105-0.895-2-2-2H47c-1.105,0-2,0.895-2,2l-2,14h24L65,25z"/>
		</g>
		<g>
			<path style="fill:#DF2C2C;" d="M71,63c0,2.209-1.791,4-4,4H43c-2.209,0-4-1.791-4-4V39h32V63z"/>
		</g>
		<g>
			<path style="fill:#5B5C5F;" d="M55,23h-8c-1.104,0-2,0.896-2,2l-2,14h12V23z"/>
		</g>
		<g>
			<path style="fill:#FA5655;" d="M55,39H39v24c0,2.209,1.791,4,4,4h12V39z"/>
		</g>
		<g>
			<circle style="fill:#FFFFFF;" cx="51" cy="29" r="2"/>
		</g>
		<g>
			<circle style="fill:#FFFFFF;" cx="59" cy="29" r="2"/>
		</g>
		<g>
			<path style="fill:#CFD3D4;" d="M61,35.5c0,0.828-0.672,1.5-1.5,1.5h-9c-0.828,0-1.5-0.672-1.5-1.5s0.672-1.5,1.5-1.5h9
				C60.328,34,61,34.672,61,35.5z"/>
		</g>
		<g>
			<path style="fill:#3E3E3F;" d="M81,63c0,2.209-1.791,4-4,4h-2c-2.209,0-4-1.791-4-4V43v-4h6c2.209,0,4,1.791,4,4V63z"/>
		</g>
		<g>
			<polygon style="fill:#DF2C2C;" points="74,71 74,75 70,75 70,71 74,67 78,67 82,71 82,75 78,75 78,71 			"/>
		</g>
		<g>
			<path style="fill:#3E3E3F;" d="M29,63c0,2.209,1.791,4,4,4h2c2.209,0,4-1.791,4-4V43v-4h-6c-2.209,0-4,1.791-4,4V63z"/>
		</g>
		<g>
			<polygon style="fill:#DF2C2C;" points="36,71 36,75 40,75 40,71 36,67 32,67 28,71 28,75 32,75 32,71 			"/>
		</g>
		<g>
			<rect x="43" y="67" style="fill:#3E3E3F;" width="10" height="12"/>
		</g>
		<g>
			<rect x="57" y="67" style="fill:#3E3E3F;" width="10" height="12"/>
		</g>
		<g>
			<rect x="43" y="71" style="fill:#CFD3D4;" width="10" height="4"/>
		</g>
		<g>
			<rect x="57" y="71" style="fill:#CFD3D4;" width="10" height="4"/>
		</g>
		<g>
			<path style="fill:#DF2C2C;" d="M41,81c0-1.105,0.895-2,2-2h10c0.552,0,1,0.448,1,1v6c0,0.552-0.448,1-1,1H43
				c-1.105,0-2-0.895-2-2V81z"/>
		</g>
		<g>
			<path style="fill:#DF2C2C;" d="M69,81c0-1.105-0.895-2-2-2H57c-0.552,0-1,0.448-1,1v6c0,0.552,0.448,1,1,1h10
				c1.105,0,2-0.895,2-2V81z"/>
		</g>
		<g>
			<circle style="fill:#CFD3D4;" cx="65" cy="61" r="2"/>
		</g>
		<g>
			<circle style="fill:#CFD3D4;" cx="45" cy="45" r="2"/>
		</g>
		<g>
			<circle style="fill:#CFD3D4;" cx="45" cy="61" r="2"/>
		</g>
		<g>
			<circle style="fill:#CFD3D4;" cx="65" cy="45" r="2"/>
		</g>
	</g>
</g>
</svg>
