<?xml version="1.0" encoding="iso-8859-1"?>
<!-- Generator: Adobe Illustrator 17.1.0, SVG Export Plug-In . SVG Version: 6.00 Build 0)  -->
<!DOCTYPE svg PUBLIC "-//W3C//DTD SVG 1.0//EN" "http://www.w3.org/TR/2001/REC-SVG-20010904/DTD/svg10.dtd">
<svg version="1.0" xmlns="http://www.w3.org/2000/svg" xmlns:xlink="http://www.w3.org/1999/xlink" x="0px" y="0px" width="110px"
	 height="110px" viewBox="0 0 110 110" style="enable-background:new 0 0 110 110;" xml:space="preserve">
<g id="Artboard">
</g>
<g id="Multicolor">
	<circle style="fill:#32BEA6;" cx="55" cy="55" r="55"/>
	<g>
		<g>
			<path style="fill:#3E3E3F;" d="M80,75c0,9-11.641,12-26,12s-26-7-26-12c0-7,11.641-12,26-12S80,68.373,80,75z"/>
		</g>
		<g>
			<path style="fill:#5B5C5F;" d="M54,63c-14.359,0-26,5-26,12c0,3.268,4.975,7.39,12.43,9.854l21.313-21.313
				C59.298,63.189,56.697,63,54,63z"/>
		</g>
		<g>
			<path style="fill:#F0F1F1;" d="M83,55c0,9-12.574,13-25,13s-20-5.82-20-13s10.074-13,22.5-13S83,47.82,83,55z"/>
		</g>
		<g>
			<path style="fill:#FFFFFF;" d="M60.5,42C48.074,42,38,47.82,38,55c0,3.936,2.288,7.455,6.392,9.839l22.331-22.331
				C64.746,42.18,62.66,42,60.5,42z"/>
		</g>
		<g>
			<path style="fill:#3E3E3F;" d="M77,37c0,5.523-8.283,10-18.5,10C52,47,40,43,40,35c0-5.523,8.283-8,18.5-8S77,31.477,77,37z"/>
		</g>
		<g>
			<path style="fill:#5B5C5F;" d="M58.5,27C48.283,27,40,29.477,40,35c0,3.22,1.945,5.79,4.692,7.714l15.663-15.663
				C59.745,27.018,59.126,27,58.5,27z"/>
		</g>
	</g>
</g>
</svg>
