<?xml version="1.0" encoding="iso-8859-1"?>
<!-- Generator: Adobe Illustrator 17.1.0, SVG Export Plug-In . SVG Version: 6.00 Build 0)  -->
<!DOCTYPE svg PUBLIC "-//W3C//DTD SVG 1.0//EN" "http://www.w3.org/TR/2001/REC-SVG-20010904/DTD/svg10.dtd">
<svg version="1.0" xmlns="http://www.w3.org/2000/svg" xmlns:xlink="http://www.w3.org/1999/xlink" x="0px" y="0px" width="110px"
	 height="110px" viewBox="0 0 110 110" style="enable-background:new 0 0 110 110;" xml:space="preserve">
<g id="Artboard" style="display:none;">
	
		<rect x="-328.5" y="-1058.5" style="display:inline;fill:#808080;stroke:#000000;stroke-miterlimit:10;" width="1392" height="1369"/>
</g>
<g id="R-Multicolor">
	<circle style="fill:#E04F5F;" cx="55" cy="55" r="55"/>
	<g>
		<g>
			<path style="fill:#A97A45;" d="M26.882,76.652c-3.293,1.265-4.34,5.606-1.74,8.206c2.598,2.598,6.941,1.555,8.206-1.741
				c1.555-4.05,6.807-5.874,10.179-2.502L29.385,66.473C32.739,69.828,30.948,75.092,26.882,76.652z"/>
		</g>
		<g>
			<path style="fill:#A97A45;" d="M82.798,33.667c3.293-1.265,4.34-5.606,1.74-8.206c-2.598-2.598-6.941-1.555-8.206,1.741
				c-1.555,4.05-6.807,5.874-10.179,2.502l14.142,14.142C76.941,40.491,78.732,35.226,82.798,33.667z"/>
		</g>
		<g>
			
				<rect x="40.44" y="29.252" transform="matrix(0.7071 0.7071 -0.7071 0.7071 55.1583 -22.6607)" style="fill:#D4A263;" width="28.986" height="52"/>
		</g>
		<g>
			<path style="fill:#D4A263;" d="M29.385,66.473c3.355,3.355,1.564,8.619-2.502,10.179c-3.287,1.263-4.335,5.588-1.755,8.19
				l11.313-11.313L29.385,66.473z"/>
		</g>
		<g>
			<path style="fill:#D4A263;" d="M76.333,27.201c-1.555,4.05-6.807,5.874-10.179,2.502l7.056,7.056l11.313-11.312
				C81.923,22.868,77.596,23.913,76.333,27.201z"/>
		</g>
		<g>
			
				<rect x="23.755" y="42.903" transform="matrix(0.7071 -0.7071 0.7071 0.7071 -20.8345 49.8484)" style="fill:#F4D0A1;" width="52" height="14.34"/>
		</g>
	</g>
</g>
<g id="Multicolor" style="display:none;">
	<g style="display:inline;">
		<g>
			<path style="fill:#A97A45;" d="M26.882,76.652c-3.293,1.265-4.34,5.606-1.74,8.206c2.598,2.598,6.941,1.555,8.206-1.741
				c1.555-4.05,6.807-5.874,10.179-2.502L29.385,66.473C32.739,69.828,30.948,75.092,26.882,76.652z"/>
		</g>
		<g>
			<path style="fill:#A97A45;" d="M82.798,33.667c3.293-1.265,4.34-5.606,1.74-8.206c-2.598-2.598-6.941-1.555-8.206,1.741
				c-1.555,4.05-6.807,5.874-10.179,2.502l14.142,14.142C76.941,40.491,78.732,35.226,82.798,33.667z"/>
		</g>
		<g>
			
				<rect x="40.44" y="29.252" transform="matrix(0.7071 0.7071 -0.7071 0.7071 55.1583 -22.6607)" style="fill:#D4A263;" width="28.986" height="52"/>
		</g>
		<g>
			<path style="fill:#D4A263;" d="M29.385,66.473c3.355,3.355,1.564,8.619-2.502,10.179c-3.287,1.263-4.335,5.588-1.755,8.19
				l11.313-11.313L29.385,66.473z"/>
		</g>
		<g>
			<path style="fill:#D4A263;" d="M76.333,27.201c-1.555,4.05-6.807,5.874-10.179,2.502l7.056,7.056l11.313-11.312
				C81.923,22.868,77.596,23.913,76.333,27.201z"/>
		</g>
		<g>
			
				<rect x="23.755" y="42.903" transform="matrix(0.7071 -0.7071 0.7071 0.7071 -20.8345 49.8484)" style="fill:#F4D0A1;" width="52" height="14.34"/>
		</g>
	</g>
</g>
<g id="Blue" style="display:none;">
	<g style="display:inline;">
		<g>
			<path style="fill:#0C333D;" d="M26.883,76.652c-3.294,1.265-4.341,5.606-1.741,8.205c2.598,2.597,6.941,1.555,8.206-1.741
				c1.555-4.05,6.807-5.873,10.18-2.501L29.385,66.473C32.739,69.828,30.949,75.092,26.883,76.652z"/>
		</g>
		<g>
			<path style="fill:#0C333D;" d="M82.799,33.667c3.293-1.266,4.34-5.606,1.74-8.206c-2.598-2.598-6.941-1.554-8.206,1.741
				c-1.555,4.05-6.807,5.874-10.179,2.502l14.143,14.142C76.941,40.491,78.732,35.227,82.799,33.667z"/>
		</g>
		<g>
			
				<rect x="40.441" y="29.252" transform="matrix(0.7071 0.7071 -0.7071 0.7071 55.1587 -22.661)" style="fill:#E1F5FA;" width="28.986" height="52"/>
		</g>
		<g>
			<path style="fill:#0F6175;" d="M29.385,66.473c3.354,3.354,1.564,8.619-2.502,10.179c-3.287,1.263-4.335,5.588-1.755,8.19
				L36.44,73.529L29.385,66.473z"/>
		</g>
		<g>
			<path style="fill:#0F6175;" d="M76.333,27.202c-1.555,4.05-6.808,5.873-10.179,2.502l7.056,7.055l11.312-11.312
				C81.924,22.869,77.596,23.913,76.333,27.202z"/>
		</g>
		<g>
			
				<rect x="23.755" y="42.904" transform="matrix(0.7071 -0.7071 0.7071 0.7071 -20.8346 49.8488)" style="fill:#FFFFFF;" width="52" height="14.34"/>
		</g>
	</g>
</g>
<g id="R-Blue" style="display:none;">
	<circle style="display:inline;fill:#81D2EB;" cx="55" cy="55" r="55"/>
	<g style="display:inline;">
		<g>
			<path style="fill:#0C333D;" d="M26.883,76.652c-3.294,1.265-4.341,5.606-1.741,8.206c2.598,2.597,6.941,1.555,8.206-1.741
				c1.555-4.05,6.807-5.874,10.18-2.502L29.385,66.473C32.739,69.828,30.949,75.092,26.883,76.652z"/>
		</g>
		<g>
			<path style="fill:#0C333D;" d="M82.799,33.666c3.293-1.266,4.34-5.606,1.74-8.206c-2.598-2.598-6.941-1.554-8.206,1.741
				c-1.555,4.05-6.807,5.874-10.179,2.502l14.143,14.142C76.941,40.491,78.732,35.227,82.799,33.666z"/>
		</g>
		<g>
			
				<rect x="40.441" y="29.252" transform="matrix(0.7071 0.7071 -0.7071 0.7071 55.1587 -22.661)" style="fill:#E1F5FA;" width="28.986" height="52"/>
		</g>
		<g>
			<path style="fill:#0F6175;" d="M29.385,66.473c3.354,3.354,1.564,8.619-2.502,10.179c-3.287,1.263-4.335,5.588-1.755,8.19
				L36.44,73.529L29.385,66.473z"/>
		</g>
		<g>
			<path style="fill:#0F6175;" d="M76.333,27.202c-1.555,4.05-6.808,5.873-10.179,2.502l7.056,7.055l11.312-11.312
				C81.924,22.869,77.596,23.913,76.333,27.202z"/>
		</g>
		<g>
			
				<rect x="23.755" y="42.904" transform="matrix(0.7071 -0.7071 0.7071 0.7071 -20.8346 49.8488)" style="fill:#FFFFFF;" width="52" height="14.34"/>
		</g>
	</g>
</g>
<g id="Green" style="display:none;">
	<g style="display:inline;">
		<g>
			<path style="fill:#0A3631;" d="M26.883,76.652c-3.294,1.265-4.341,5.606-1.741,8.205c2.598,2.597,6.941,1.555,8.206-1.741
				c1.555-4.05,6.807-5.873,10.18-2.502L29.385,66.473C32.739,69.828,30.949,75.092,26.883,76.652z"/>
		</g>
		<g>
			<path style="fill:#0A3631;" d="M82.799,33.667c3.293-1.266,4.34-5.606,1.74-8.206c-2.598-2.598-6.941-1.554-8.206,1.741
				c-1.555,4.05-6.807,5.874-10.179,2.502l14.143,14.142C76.941,40.491,78.732,35.227,82.799,33.667z"/>
		</g>
		<g>
			
				<rect x="40.441" y="29.252" transform="matrix(0.7071 0.7071 -0.7071 0.7071 55.1587 -22.661)" style="fill:#D7FCF9;" width="28.986" height="52"/>
		</g>
		<g>
			<path style="fill:#14635B;" d="M29.385,66.473c3.354,3.354,1.564,8.619-2.502,10.179c-3.287,1.263-4.335,5.588-1.755,8.19
				L36.44,73.529L29.385,66.473z"/>
		</g>
		<g>
			<path style="fill:#14635B;" d="M76.333,27.202c-1.555,4.05-6.808,5.873-10.179,2.502l7.056,7.055l11.312-11.312
				C81.924,22.869,77.596,23.913,76.333,27.202z"/>
		</g>
		<g>
			
				<rect x="23.755" y="42.904" transform="matrix(0.7071 -0.7071 0.7071 0.7071 -20.8346 49.8488)" style="fill:#FFFFFF;" width="52" height="14.34"/>
		</g>
	</g>
</g>
<g id="R-Green" style="display:none;">
	<circle style="display:inline;fill:#77E0C4;" cx="55" cy="55" r="55"/>
	<g style="display:inline;">
		<g>
			<path style="fill:#0A3631;" d="M26.883,76.652c-3.294,1.265-4.341,5.606-1.741,8.205c2.598,2.597,6.941,1.555,8.206-1.741
				c1.555-4.05,6.807-5.873,10.18-2.501L29.385,66.473C32.739,69.828,30.949,75.092,26.883,76.652z"/>
		</g>
		<g>
			<path style="fill:#0A3631;" d="M82.799,33.667c3.293-1.266,4.34-5.606,1.74-8.206c-2.598-2.598-6.941-1.554-8.206,1.741
				c-1.555,4.05-6.807,5.874-10.179,2.502l14.143,14.142C76.941,40.491,78.732,35.227,82.799,33.667z"/>
		</g>
		<g>
			
				<rect x="40.441" y="29.252" transform="matrix(0.7071 0.7071 -0.7071 0.7071 55.1587 -22.661)" style="fill:#D7FCF9;" width="28.986" height="52"/>
		</g>
		<g>
			<path style="fill:#14635B;" d="M29.385,66.473c3.354,3.354,1.564,8.619-2.502,10.179c-3.287,1.263-4.335,5.588-1.755,8.19
				L36.44,73.529L29.385,66.473z"/>
		</g>
		<g>
			<path style="fill:#14635B;" d="M76.333,27.202c-1.555,4.05-6.808,5.873-10.179,2.502l7.056,7.055l11.312-11.312
				C81.924,22.869,77.596,23.913,76.333,27.202z"/>
		</g>
		<g>
			
				<rect x="23.755" y="42.904" transform="matrix(0.7071 -0.7071 0.7071 0.7071 -20.8346 49.8488)" style="fill:#FFFFFF;" width="52" height="14.34"/>
		</g>
	</g>
</g>
<g id="Red" style="display:none;">
	<g style="display:inline;">
		<g>
			<path style="fill:#4A1410;" d="M26.883,76.652c-3.294,1.265-4.341,5.606-1.741,8.205c2.598,2.597,6.941,1.555,8.206-1.741
				c1.555-4.05,6.807-5.873,10.18-2.502L29.385,66.473C32.739,69.828,30.949,75.092,26.883,76.652z"/>
		</g>
		<g>
			<path style="fill:#4A1410;" d="M82.799,33.667c3.293-1.266,4.34-5.606,1.74-8.206c-2.598-2.598-6.941-1.554-8.206,1.741
				c-1.555,4.05-6.807,5.874-10.179,2.502l14.143,14.142C76.941,40.491,78.732,35.227,82.799,33.667z"/>
		</g>
		<g>
			
				<rect x="40.441" y="29.252" transform="matrix(0.7071 0.7071 -0.7071 0.7071 55.1587 -22.661)" style="fill:#FFEFED;" width="28.986" height="52"/>
		</g>
		<g>
			<path style="fill:#7D261E;" d="M29.385,66.473c3.354,3.354,1.564,8.619-2.502,10.179c-3.287,1.263-4.335,5.588-1.755,8.19
				L36.44,73.529L29.385,66.473z"/>
		</g>
		<g>
			<path style="fill:#7D261E;" d="M76.333,27.202c-1.555,4.05-6.808,5.873-10.179,2.502l7.056,7.055l11.312-11.312
				C81.924,22.869,77.596,23.913,76.333,27.202z"/>
		</g>
		<g>
			
				<rect x="23.755" y="42.904" transform="matrix(0.7071 -0.7071 0.7071 0.7071 -20.8346 49.8488)" style="fill:#FFFFFF;" width="52" height="14.34"/>
		</g>
	</g>
</g>
<g id="R-Red" style="display:none;">
	<circle style="display:inline;fill:#FABBAF;" cx="55" cy="55" r="55"/>
	<g style="display:inline;">
		<g>
			<path style="fill:#4A1410;" d="M26.883,76.652c-3.294,1.265-4.341,5.606-1.741,8.205c2.598,2.597,6.941,1.555,8.206-1.741
				c1.555-4.05,6.807-5.873,10.18-2.502L29.385,66.473C32.739,69.828,30.949,75.092,26.883,76.652z"/>
		</g>
		<g>
			<path style="fill:#4A1410;" d="M82.799,33.667c3.293-1.266,4.34-5.606,1.74-8.206c-2.598-2.598-6.941-1.554-8.206,1.741
				c-1.555,4.05-6.807,5.874-10.179,2.502l14.143,14.142C76.941,40.491,78.732,35.227,82.799,33.667z"/>
		</g>
		<g>
			
				<rect x="40.441" y="29.252" transform="matrix(0.7071 0.7071 -0.7071 0.7071 55.1587 -22.661)" style="fill:#FFEFED;" width="28.986" height="52"/>
		</g>
		<g>
			<path style="fill:#7D261E;" d="M29.385,66.473c3.354,3.354,1.564,8.619-2.502,10.179c-3.287,1.263-4.335,5.588-1.755,8.19
				L36.44,73.529L29.385,66.473z"/>
		</g>
		<g>
			<path style="fill:#7D261E;" d="M76.333,27.202c-1.555,4.05-6.808,5.873-10.179,2.502l7.056,7.055l11.312-11.312
				C81.924,22.869,77.596,23.913,76.333,27.202z"/>
		</g>
		<g>
			
				<rect x="23.755" y="42.904" transform="matrix(0.7071 -0.7071 0.7071 0.7071 -20.8346 49.8488)" style="fill:#FFFFFF;" width="52" height="14.34"/>
		</g>
	</g>
</g>
<g id="Yellow" style="display:none;">
	<g style="display:inline;">
		<g>
			<path style="fill:#3D320C;" d="M26.883,76.652c-3.294,1.265-4.341,5.606-1.741,8.205c2.598,2.597,6.941,1.555,8.206-1.741
				c1.555-4.05,6.807-5.873,10.18-2.501L29.385,66.473C32.739,69.828,30.949,75.092,26.883,76.652z"/>
		</g>
		<g>
			<path style="fill:#3D320C;" d="M82.799,33.667c3.293-1.266,4.34-5.606,1.74-8.206c-2.598-2.598-6.941-1.554-8.206,1.741
				c-1.555,4.05-6.807,5.874-10.179,2.502l14.143,14.142C76.941,40.491,78.732,35.227,82.799,33.667z"/>
		</g>
		<g>
			
				<rect x="40.441" y="29.252" transform="matrix(0.7071 0.7071 -0.7071 0.7071 55.1587 -22.661)" style="fill:#FFF5D9;" width="28.986" height="52"/>
		</g>
		<g>
			<path style="fill:#66510D;" d="M29.385,66.473c3.354,3.354,1.564,8.619-2.502,10.179c-3.287,1.263-4.335,5.588-1.755,8.19
				L36.44,73.529L29.385,66.473z"/>
		</g>
		<g>
			<path style="fill:#66510D;" d="M76.333,27.202c-1.555,4.05-6.808,5.873-10.179,2.502l7.056,7.055l11.312-11.312
				C81.924,22.869,77.596,23.913,76.333,27.202z"/>
		</g>
		<g>
			
				<rect x="23.755" y="42.904" transform="matrix(0.7071 -0.7071 0.7071 0.7071 -20.8346 49.8488)" style="fill:#FFFFFF;" width="52" height="14.34"/>
		</g>
	</g>
</g>
<g id="R-Yellow" style="display:none;">
	<circle style="display:inline;fill:#FFD75E;" cx="55" cy="55" r="55"/>
	<g style="display:inline;">
		<g>
			<path style="fill:#3D320C;" d="M26.883,76.652c-3.294,1.265-4.341,5.606-1.741,8.205c2.598,2.597,6.941,1.555,8.206-1.741
				c1.555-4.05,6.807-5.873,10.18-2.501L29.385,66.473C32.739,69.828,30.949,75.092,26.883,76.652z"/>
		</g>
		<g>
			<path style="fill:#3D320C;" d="M82.799,33.667c3.293-1.266,4.34-5.606,1.74-8.206c-2.598-2.598-6.941-1.554-8.206,1.741
				c-1.555,4.05-6.807,5.874-10.179,2.502l14.143,14.142C76.941,40.491,78.732,35.227,82.799,33.667z"/>
		</g>
		<g>
			
				<rect x="40.441" y="29.252" transform="matrix(0.7071 0.7071 -0.7071 0.7071 55.1587 -22.661)" style="fill:#FFF5D9;" width="28.986" height="52"/>
		</g>
		<g>
			<path style="fill:#66510D;" d="M29.385,66.473c3.354,3.354,1.564,8.619-2.502,10.179c-3.287,1.263-4.335,5.588-1.755,8.19
				L36.44,73.529L29.385,66.473z"/>
		</g>
		<g>
			<path style="fill:#66510D;" d="M76.333,27.202c-1.555,4.05-6.808,5.873-10.179,2.502l7.056,7.055l11.312-11.312
				C81.924,22.869,77.596,23.913,76.333,27.202z"/>
		</g>
		<g>
			
				<rect x="23.755" y="42.904" transform="matrix(0.7071 -0.7071 0.7071 0.7071 -20.8346 49.8488)" style="fill:#FFFFFF;" width="52" height="14.34"/>
		</g>
	</g>
</g>
</svg>
