<?xml version="1.0" encoding="iso-8859-1"?>
<!-- Generator: Adobe Illustrator 17.1.0, SVG Export Plug-In . SVG Version: 6.00 Build 0)  -->
<!DOCTYPE svg PUBLIC "-//W3C//DTD SVG 1.0//EN" "http://www.w3.org/TR/2001/REC-SVG-20010904/DTD/svg10.dtd">
<svg version="1.0" xmlns="http://www.w3.org/2000/svg" xmlns:xlink="http://www.w3.org/1999/xlink" x="0px" y="0px" width="110px"
	 height="110px" viewBox="0 0 110 110" style="enable-background:new 0 0 110 110;" xml:space="preserve">
<g id="Artboard">
</g>
<g id="Multicolor">
	<circle style="fill:#32BEA6;" cx="55" cy="55" r="55"/>
	<g>
		<g>
			<path style="fill:#F0F1F1;" d="M78.701,57.819l-14.705-7.672c-2.35-1.226-3.618-3.842-3.119-6.446
				c0.885-4.625,2.946-14.367,3.946-18.367H35V67h48v-2.088C83,61.931,81.343,59.198,78.701,57.819z"/>
		</g>
		<g>
			<path style="fill:#DF2C2C;" d="M35,67h17.82C45.104,58.609,43,43.409,43,40.062c0-4,4-4,4-4h15.447l2.375-10.728H35V67z"/>
		</g>
		<g>
			<path style="fill:#F37A10;" d="M81.164,59.821C76.518,61.26,71.392,62.063,66,62.063c-12.801,0-24.115-4.502-31-11.394V67h48
				v-2.088C83,63.02,82.328,61.23,81.164,59.821z"/>
		</g>
		<path style="fill:#FFFFFF;" d="M57.981,36.063H47c0,0-4,0-4,4c0,1.45,0.396,5.127,1.472,9.509L57.981,36.063z"/>
		<g>
			<path style="fill:#FA5655;" d="M64.822,25.334H35v33.709l9.472-9.472C43.396,45.189,43,41.513,43,40.062c0-4,4-4,4-4h10.981
				l5.736-5.736L64.822,25.334z"/>
		</g>
		<g>
			<path style="fill:#DF2C2C;" d="M83,68c0,1.65-1.35,3-3,3H38c-1.65,0-3-1.35-3-3v-1h48V68z"/>
		</g>
		<g>
			<path style="fill:#F99134;" d="M39.588,54.456c-1.685-1.16-3.226-2.425-4.588-3.788v8.375L39.588,54.456z"/>
		</g>
		<g>
			<circle style="fill:#3E3E3F;" cx="77" cy="81" r="6"/>
		</g>
		<g>
			<circle style="fill:#3E3E3F;" cx="65" cy="81" r="6"/>
		</g>
		<g>
			<circle style="fill:#3E3E3F;" cx="53" cy="81" r="6"/>
		</g>
		<g>
			<circle style="fill:#3E3E3F;" cx="41" cy="81" r="6"/>
		</g>
		<g>
			<path style="fill:#F0F1F1;" d="M75,71v4l2.379,2.379c0.398,0.398,0.621,0.937,0.621,1.5C78,80.05,77.05,81,75.879,81H42.121
				C40.95,81,40,80.05,40,78.879c0-0.563,0.223-1.102,0.621-1.5L43,75v-4h8c0,2.209,1.791,4,4,4h8c2.209,0,4-1.791,4-4H75z"/>
		</g>
		<g>
			<path style="fill:#DF2C2C;" d="M56.686,57.033l7.05-7.05C63,48,62,44,61.371,41.035L51.029,51.376
				c-1.562,1.562-1.562,4.095,0,5.657C52.592,58.595,55.124,58.595,56.686,57.033z"/>
		</g>
		<g>
			<circle style="fill:#F99134;" cx="54" cy="54.062" r="2"/>
		</g>
		<g>
			<polygon style="fill:#F99134;" points="59.937,29.334 60.822,25.334 31,25.334 31,29.334 			"/>
		</g>
	</g>
</g>
</svg>
