<?xml version="1.0" encoding="iso-8859-1"?>
<!-- Generator: Adobe Illustrator 17.1.0, SVG Export Plug-In . SVG Version: 6.00 Build 0)  -->
<!DOCTYPE svg PUBLIC "-//W3C//DTD SVG 1.0//EN" "http://www.w3.org/TR/2001/REC-SVG-20010904/DTD/svg10.dtd">
<svg version="1.0" xmlns="http://www.w3.org/2000/svg" xmlns:xlink="http://www.w3.org/1999/xlink" x="0px" y="0px" width="110px"
	 height="110px" viewBox="0 0 110 110" style="enable-background:new 0 0 110 110;" xml:space="preserve">
<g id="Artboard">
</g>
<g id="Multicolor">
	<g>
		<circle style="fill:#32BEA6;" cx="55" cy="55" r="55"/>
	</g>
	<g>
		<g>
			<path style="fill:#3E3E3F;" d="M87,53c0-4.106-2.479-7.626-6.017-9.166C80.897,42.809,80.048,42,79,42c-1.104,0-2,0.896-2,2
				v18.203c0,1.104,0.896,2,2,2V79c0,2.206-1.794,4-4,4H35c-2.206,0-4-1.794-4-4V64.203c1.104,0,2-0.896,2-2V44c0-1.104-0.896-2-2-2
				c-1.048,0-1.897,0.809-1.983,1.834C25.479,45.374,23,48.894,23,53c0,3.264,1.576,6.159,4,7.984V79c0,4.411,3.589,8,8,8h40
				c4.411,0,8-3.589,8-8V60.984C85.424,59.159,87,56.264,87,53z"/>
		</g>
		<g>
			<rect x="35" y="23" style="fill:#FFFFFF;" width="40" height="55"/>
		</g>
		<g>
			<path style="fill:#E2E4E5;" d="M67,30.5c0,0.276-0.224,0.5-0.5,0.5h-11c-0.276,0-0.5-0.224-0.5-0.5s0.224-0.5,0.5-0.5h11
				C66.776,30,67,30.224,67,30.5z"/>
		</g>
		<g>
			<path style="fill:#E2E4E5;" d="M67,34.5c0,0.276-0.224,0.5-0.5,0.5h-11c-0.276,0-0.5-0.224-0.5-0.5s0.224-0.5,0.5-0.5h11
				C66.776,34,67,34.224,67,34.5z"/>
		</g>
		<g>
			<path style="fill:#E2E4E5;" d="M67,38.5c0,0.276-0.224,0.5-0.5,0.5h-11c-0.276,0-0.5-0.224-0.5-0.5s0.224-0.5,0.5-0.5h11
				C66.776,38,67,38.224,67,38.5z"/>
		</g>
		<g>
			<rect x="40" y="28.083" style="fill:#9CE5F4;" width="11" height="11.917"/>
		</g>
		<g>
			<path style="fill:#0484AB;" d="M46.949,36.445c0.531-0.615,0.842-1.353,0.842-3.32c0-1.012-0.917-2.292-2.292-2.292
				s-2.292,1.279-2.292,2.292c0,1.957,0.428,2.69,0.959,3.306c-1.548,0.217-2.97,0.8-4.167,1.655V40h11v-1.913
				C49.833,37.253,48.453,36.675,46.949,36.445z"/>
		</g>
		<g>
			<g>
				<path style="fill:#C9F2F8;" d="M40,38.087c1.197-0.855,2.618-1.438,4.167-1.655c-0.531-0.617-0.959-1.349-0.959-3.306
					c0-1.012,0.917-2.292,2.292-2.292c1.138,0,1.96,0.876,2.21,1.752L51,28.083H40V38.087z"/>
			</g>
			<g>
				<path style="fill:#059BBF;" d="M45.5,30.833c-1.375,0-2.292,1.279-2.292,2.292c0,1.957,0.428,2.69,0.959,3.306
					c-1.548,0.217-2.97,0.8-4.167,1.655V40h2.292l5.419-7.415C47.46,31.709,46.638,30.833,45.5,30.833z"/>
			</g>
		</g>
		<g>
			<path style="fill:#3E3E3F;" d="M79,42c-1.104,0-2,0.896-2,2v7H33v-7c0-1.104-0.896-2-2-2s-2,0.896-2,2v18.203
				c0,1.104,0.896,2,2,2s2-0.896,2-2V55h44v7.203c0,1.104,0.896,2,2,2s2-0.896,2-2V44C81,42.896,80.104,42,79,42z"/>
		</g>
		<g>
			<path style="fill:#DF2C2C;" d="M29,44c0-0.057,0.012-0.11,0.017-0.166C25.479,45.374,23,48.894,23,53
				c0,4.093,2.476,7.604,6,9.151V44z"/>
		</g>
		<g>
			<path style="fill:#FA5655;" d="M29.017,43.833C25.479,45.374,23,48.894,23,53h6v-9C29,43.943,29.012,43.89,29.017,43.833z"/>
		</g>
		<g>
			<path style="fill:#DF2C2C;" d="M81,44c0-0.057-0.012-0.11-0.017-0.166C84.521,45.374,87,48.894,87,53
				c0,4.093-2.476,7.604-6,9.151V44z"/>
		</g>
		<g>
			<path style="fill:#FA5655;" d="M80.983,43.833C84.521,45.374,87,48.894,87,53h-6v-9C81,43.943,80.988,43.89,80.983,43.833z"/>
		</g>
		<g>
			<path style="fill:#5B5C5F;" d="M31,42c-1.104,0-2,0.896-2,2v9h4v-9C33,42.896,32.104,42,31,42z"/>
		</g>
		<g>
			<path style="fill:#5B5C5F;" d="M79,42c1.104,0,2,0.896,2,2v9h-4v-9C77,42.896,77.896,42,79,42z"/>
		</g>
		<g>
			<path style="fill:#B5BBBD;" d="M49,59c0,1.105-0.895,2-2,2s-2-0.895-2-2V47c0-1.105,0.895-2,2-2s2,0.895,2,2V59z"/>
		</g>
		<g>
			<path style="fill:#B5BBBD;" d="M65,59c0,1.105-0.895,2-2,2s-2-0.895-2-2V47c0-1.105,0.895-2,2-2s2,0.895,2,2V59z"/>
		</g>
		<g>
			<path style="fill:#E2E4E5;" d="M47,45c-1.104,0-2,0.896-2,2v6h4v-6C49,45.896,48.104,45,47,45z"/>
		</g>
		<g>
			<path style="fill:#E2E4E5;" d="M63,45c-1.104,0-2,0.896-2,2v6h4v-6C65,45.896,64.104,45,63,45z"/>
		</g>
	</g>
</g>
</svg>
