<?xml version="1.0" encoding="iso-8859-1"?>
<!-- Generator: Adobe Illustrator 17.1.0, SVG Export Plug-In . SVG Version: 6.00 Build 0)  -->
<!DOCTYPE svg PUBLIC "-//W3C//DTD SVG 1.0//EN" "http://www.w3.org/TR/2001/REC-SVG-20010904/DTD/svg10.dtd">
<svg version="1.0" xmlns="http://www.w3.org/2000/svg" xmlns:xlink="http://www.w3.org/1999/xlink" x="0px" y="0px" width="110px"
	 height="110px" viewBox="0 0 110 110" style="enable-background:new 0 0 110 110;" xml:space="preserve">
<g id="Artboard">
</g>
<g id="Multicolor">
	<circle style="fill:#32BEA6;" cx="55" cy="55" r="55"/>
	<g>
		<g>
			<path style="fill:#FACB1B;" d="M62.794,41.495l-2.447-4.965c-0.175-0.354-0.45-0.649-0.792-0.847L45.028,27.27
				c-0.342-0.198-0.734-0.291-1.129-0.266l-5.524,0.349c-0.667,0.042-1.27,0.415-1.605,0.994l-4.941,8.532
				c-0.335,0.579-0.359,1.287-0.063,1.886l2.447,4.965c0.175,0.354,0.45,0.649,0.792,0.847l2.073,1.2h0l-3.508,6.057l2.095,2.369
				l-2.005,3.461l-2.596-1.504l-2.005,3.461l1.594,3.234l-3.598,0.227l-4.009,6.923l0.818,8.563l9.566-2.549l14.216-24.124
				l1.89,1.094c0.342,0.198,0.734,0.291,1.128,0.266l5.524-0.349c0.667-0.042,1.27-0.415,1.605-0.994l4.941-8.531
				C63.066,42.803,63.09,42.095,62.794,41.495z M53.474,41.406L43.09,35.392c1.107-1.912,3.554-2.564,5.466-1.457l3.461,2.004
				C53.929,37.047,54.581,39.495,53.474,41.406z"/>
		</g>
		<g>
			<path style="fill:#FBE158;" d="M45.028,27.27c-0.342-0.198-0.734-0.291-1.129-0.266l-5.524,0.349
				c-0.667,0.042-1.27,0.415-1.605,0.994l-4.941,8.532c-0.335,0.579-0.359,1.287-0.063,1.886l2.447,4.965
				c0.175,0.354,0.45,0.649,0.792,0.847l2.073,1.2h0l0,0l-1.225,2.115l-2.283,3.942l0,0l0,0l2.095,2.369l-2.005,3.461l-2.596-1.504
				l-2.005,3.462l1.594,3.234l-3.598,0.227l-4.009,6.923l0.818,8.563l17.541-30.287L39,46.89l8.781-8.781l-4.691-2.717
				c1.107-1.912,3.554-2.564,5.466-1.457l2.152,1.246l2.927-2.927L45.028,27.27z"/>
		</g>
		<g>
			<path style="fill:#DF2C2C;" d="M73.848,36.77l-1.934,0.508c-1.124-4.275-5.496-6.827-9.771-5.704
				c-4.275,1.124-6.827,5.496-5.704,9.771l-1.934,0.508c-2.137,0.562-3.414,2.748-2.852,4.885l8.134,30.949
				c0.562,2.137,2.748,3.414,4.885,2.852l1.934-0.508c1.124,4.275,5.496,6.827,9.771,5.704c4.275-1.124,6.827-5.496,5.704-9.771
				l1.934-0.508c2.137-0.562,3.414-2.748,2.852-4.885l-8.134-30.949C78.171,37.484,75.985,36.208,73.848,36.77z M63.16,35.443
				c2.137-0.562,4.324,0.714,4.885,2.852c0.236,0.899,0.145,1.813-0.211,2.62c-0.46,1.082-1.413,1.943-2.641,2.266
				s-2.481,0.042-3.414-0.674c-0.707-0.528-1.235-1.278-1.472-2.177C59.746,38.191,61.022,36.005,63.16,35.443z"/>
		</g>
		<g>
			<path style="fill:#FFFFFF;" d="M75.373,42.573l7.117,27.08c1.251,4.758-18.092,9.842-19.343,5.084l-7.117-27.08
				c-0.493-1.876,2.217-3.798,5.75-5.151c0.933,0.716,2.185,0.997,3.414,0.674s2.181-1.183,2.641-2.266
				C71.575,40.355,74.88,40.696,75.373,42.573z"/>
		</g>
		<g>
			<path style="fill:#3E3E3F;" d="M65,38c0,1.105-0.895,2-2,2H53c-1.105,0-2-0.895-2-2s0.895-2,2-2h10C64.105,36,65,36.895,65,38z"
				/>
		</g>
	</g>
</g>
</svg>
