<?xml version="1.0" encoding="iso-8859-1"?>
<!-- Generator: Adobe Illustrator 17.1.0, SVG Export Plug-In . SVG Version: 6.00 Build 0)  -->
<!DOCTYPE svg PUBLIC "-//W3C//DTD SVG 1.0//EN" "http://www.w3.org/TR/2001/REC-SVG-20010904/DTD/svg10.dtd">
<svg version="1.0" xmlns="http://www.w3.org/2000/svg" xmlns:xlink="http://www.w3.org/1999/xlink" x="0px" y="0px" width="110px"
	 height="110px" viewBox="0 0 110 110" style="enable-background:new 0 0 110 110;" xml:space="preserve">
<g id="Artboard">
</g>
<g id="Multicolor">
	<circle style="fill:#E04F5F;" cx="55" cy="55" r="55"/>
	<g>
		
			<rect x="46.251" y="32.749" transform="matrix(0.7071 0.7071 -0.7071 0.7071 55.6533 -26.8615)" style="fill:#059BBF;" width="28" height="42"/>
		
			<rect x="66.515" y="35.485" transform="matrix(0.7071 0.7071 -0.7071 0.7071 48.9167 -43.1249)" style="fill:#FFFFFF;" width="20" height="4"/>
		<path style="fill:#FFFFFF;" d="M53.18,76.376L37.624,60.82L24.896,73.548c-0.781,0.781-0.781,2.047,0,2.828l7.071,7.071
			c3.905,3.905,10.237,3.905,14.142,0L53.18,76.376z"/>
		<path style="fill:#FFFFFF;" d="M51,87c0,0,13-3.541,23-3.541c8,0,12.334,2.243,13,3.541H51z"/>
		
			<rect x="34.421" y="41.75" transform="matrix(0.7071 -0.7071 0.7071 0.7071 -18.358 53.516)" style="fill:#40C9E7;" width="42" height="14.337"/>
	</g>
</g>
</svg>
