<?xml version="1.0" encoding="iso-8859-1"?>
<!-- Generator: Adobe Illustrator 17.1.0, SVG Export Plug-In . SVG Version: 6.00 Build 0)  -->
<!DOCTYPE svg PUBLIC "-//W3C//DTD SVG 1.0//EN" "http://www.w3.org/TR/2001/REC-SVG-20010904/DTD/svg10.dtd">
<svg version="1.0" xmlns="http://www.w3.org/2000/svg" xmlns:xlink="http://www.w3.org/1999/xlink" x="0px" y="0px" width="110px"
	 height="110px" viewBox="0 0 110 110" style="enable-background:new 0 0 110 110;" xml:space="preserve">
<g id="Artboard">
</g>
<g id="Multicolor">
	<circle style="fill:#FABC3D;" cx="55" cy="55" r="55"/>
	<g>
		<path style="fill:#DF2C2C;" d="M85.632,66.544L63,59V47.356c3.331-2.458,5.5-6.399,5.5-10.856C68.5,29.044,62.456,23,55,23
			s-13.5,6.044-13.5,13.5c0,4.457,2.169,8.398,5.5,10.856V59l-22.632,7.544C23.551,66.816,23,67.581,23,68.442V77
			c0,1.104,0.896,2,2,2h60c1.104,0,2-0.896,2-2v-8.558C87,67.581,86.449,66.816,85.632,66.544z"/>
		<path style="fill:#3E3E3F;" d="M83,85c0,1.105-0.895,2-2,2H29c-1.105,0-2-0.895-2-2v-6h56V85z"/>
		<path style="fill:#FA5655;" d="M56,23.05C55.668,23.026,55.337,23,55,23c-7.456,0-13.5,6.044-13.5,13.5
			c0,4.457,2.169,8.398,5.5,10.856V59l-22.632,7.544C23.551,66.816,23,67.581,23,68.441V77c0,1.104,0.896,2,2,2h31V23.05z"/>
	</g>
</g>
</svg>
