<?xml version="1.0" encoding="iso-8859-1"?>
<!-- Generator: Adobe Illustrator 17.1.0, SVG Export Plug-In . SVG Version: 6.00 Build 0)  -->
<!DOCTYPE svg PUBLIC "-//W3C//DTD SVG 1.0//EN" "http://www.w3.org/TR/2001/REC-SVG-20010904/DTD/svg10.dtd">
<svg version="1.0" xmlns="http://www.w3.org/2000/svg" xmlns:xlink="http://www.w3.org/1999/xlink" x="0px" y="0px" width="110px"
	 height="110px" viewBox="0 0 110 110" style="enable-background:new 0 0 110 110;" xml:space="preserve">
<g id="Artboard">
</g>
<g id="Multicolor">
	<circle style="fill:#FABC3D;" cx="55" cy="55" r="55"/>
	<g>
		<path style="fill:#FFFFFF;" d="M51,87c0,0,13-3.541,23-3.541c8,0,12.334,2.243,13,3.541H51z"/>
		<path style="fill:#21B2D1;" d="M59.698,27.674c2.343-2.343,6.142-2.343,8.485,0l14.142,14.142c2.343,2.343,2.343,6.142,0,8.485
			L65.355,67.272L42.728,44.645L59.698,27.674z"/>
		<path style="fill:#FA5655;" d="M42.728,44.645l22.627,22.627L48.385,84.243c-2.343,2.343-6.142,2.343-8.485,0L25.757,70.101
			c-2.343-2.343-2.343-6.142,0-8.485L42.728,44.645z"/>
		<path style="fill:#F79392;" d="M42.728,44.645L25.757,61.615c-2.343,2.343-2.343,6.142,0,8.485l7.047,7.047l21.213-21.213
			L42.728,44.645z"/>
		<path style="fill:#40C9E7;" d="M68.184,27.674c-2.343-2.343-6.142-2.343-8.485,0l-16.97,16.97l11.29,11.29l21.213-21.213
			L68.184,27.674z"/>
	</g>
</g>
</svg>
