<?xml version="1.0" encoding="iso-8859-1"?>
<!-- Generator: Adobe Illustrator 17.1.0, SVG Export Plug-In . SVG Version: 6.00 Build 0)  -->
<!DOCTYPE svg PUBLIC "-//W3C//DTD SVG 1.0//EN" "http://www.w3.org/TR/2001/REC-SVG-20010904/DTD/svg10.dtd">
<svg version="1.0" xmlns="http://www.w3.org/2000/svg" xmlns:xlink="http://www.w3.org/1999/xlink" x="0px" y="0px" width="110px"
	 height="110px" viewBox="0 0 110 110" style="enable-background:new 0 0 110 110;" xml:space="preserve">
<g id="Artboard">
</g>
<g id="Multicolor">
	<circle style="fill:#E04F5F;" cx="55" cy="55" r="55"/>
	<g>
		<g>
			<path style="fill:#F0F1F1;" d="M82.997,39.349C82.997,39.35,82.997,39.35,82.997,39.349l0-2.349c0-1.104-0.895-2-2-2H63.826
				c-0.53,0-1.039,0.211-1.414,0.586L58.997,39h-14c-1.26,0-2.44,0.59-3.2,1.6l-6,8c-0.91,1.21-1.06,2.83-0.38,4.19
				c0.68,1.35,2.06,2.21,3.58,2.21h4l-9,12h-5c-2.21,0-4,1.79-4,4v8c-1.104,0-2,0.896-2,2s0.896,2,2,2h6h1h23h26c3.31,0,6-2.69,6-6
				V45C86.997,42.392,85.324,40.175,82.997,39.349z"/>
		</g>
		<g>
			<path style="fill:#FFFFFF;" d="M63.826,35c-0.53,0-1.039,0.211-1.414,0.586L58.997,39h-14c-1.26,0-2.44,0.59-3.2,1.6l-6,8
				c-0.91,1.21-1.06,2.83-0.38,4.19c0.68,1.35,2.06,2.21,3.58,2.21h4l-9,12h-5c-2.21,0-4,1.79-4,4v8c-1.104,0-2,0.896-2,2
				s0.896,2,2,2h1.994l48-48H63.826z"/>
		</g>
		<g>
			<path style="fill:#E2E4E5;" d="M87,45v32c0,3.31-2.69,6-6,6H55V59c0-2.21-1.79-4-4-4H39c-1.52,0-2.9-0.86-3.58-2.21
				c-0.68-1.36-0.53-2.98,0.38-4.19l6-8c0.76-1.01,1.94-1.6,3.2-1.6h36C84.31,39,87,41.69,87,45z"/>
		</g>
		<g>
			<path style="fill:#F0F1F1;" d="M45,39c-1.26,0-2.44,0.59-3.2,1.6l-6,8c-0.91,1.21-1.06,2.83-0.38,4.19C36.1,54.14,37.48,55,39,55
				h12c1.103,0,2.101,0.446,2.824,1.167L70.991,39H45z"/>
		</g>
		<g>
			<circle style="fill:#3E3E3F;" cx="76" cy="81" r="6"/>
		</g>
		<g>
			<path style="fill:#40C9E7;" d="M82.997,65c0,1.105-0.895,2-2,2h-20c-1.105,0-2-0.895-2-2v-8c0-1.105,0.895-2,2-2h20
				c1.105,0,2,0.895,2,2V65z"/>
		</g>
		<g>
			<circle style="fill:#E2E4E5;" cx="76" cy="81" r="2"/>
		</g>
		<g>
			<rect x="58.997" y="43" style="fill:#B6BCBD;" width="24" height="8"/>
		</g>
		<g>
			<path style="fill:#CFD3D4;" d="M41.197,49.4c-0.227,0.303-0.264,0.708-0.094,1.047C41.272,50.786,41.618,51,41.997,51h13v-8h-8.5
				c-0.315,0-0.611,0.148-0.8,0.4L41.197,49.4z"/>
		</g>
		<g>
			<circle style="fill:#3E3E3F;" cx="36.997" cy="81" r="6"/>
		</g>
		<g>
			<path style="fill:#CFD3D4;" d="M30.997,81c0-0.702,0.127-1.374,0.349-2h-6.349c-1.104,0-2,0.896-2,2s0.896,2,2,2h6.349
				C31.124,82.374,30.997,81.702,30.997,81z"/>
		</g>
		<g>
			<polygon style="fill:#40C9E7;" points="44.997,58 38.997,67 51.997,67 51.997,58 			"/>
		</g>
		<g>
			<circle style="fill:#E2E4E5;" cx="36.997" cy="81" r="2"/>
		</g>
		<g>
			<path style="fill:#FACB1B;" d="M29.997,71c0.552,0,1,0.448,1,1v2c0,0.552-0.448,1-1,1h-5v-4H29.997z"/>
		</g>
		<g>
			<polygon style="fill:#FBE158;" points="24.997,71 24.997,75 25.11,75 29.11,71 			"/>
		</g>
		<g>
			<path style="fill:#FA5655;" d="M29.997,75c0.552,0,1,0.448,1,1s-0.448,1-1,1h-5v-2H29.997z"/>
		</g>
		<g>
			<polygon style="fill:#CFD3D4;" points="66.991,43 58.997,43 58.997,50.994 			"/>
		</g>
		<g>
			<polygon style="fill:#9CE5F4;" points="44.997,58 38.997,67 42.991,67 51.991,58 			"/>
		</g>
	</g>
</g>
</svg>
