<?xml version="1.0" encoding="iso-8859-1"?>
<!-- Generator: Adobe Illustrator 17.1.0, SVG Export Plug-In . SVG Version: 6.00 Build 0)  -->
<!DOCTYPE svg PUBLIC "-//W3C//DTD SVG 1.0//EN" "http://www.w3.org/TR/2001/REC-SVG-20010904/DTD/svg10.dtd">
<svg version="1.0" xmlns="http://www.w3.org/2000/svg" xmlns:xlink="http://www.w3.org/1999/xlink" x="0px" y="0px" width="110px"
	 height="110px" viewBox="0 0 110 110" style="enable-background:new 0 0 110 110;" xml:space="preserve">
<g id="Artboard">
</g>
<g id="Multicolor">
	<circle style="fill:#25B7D3;" cx="55" cy="55" r="55"/>
	<g>
		<g>
			<path style="fill:#E2E4E5;" d="M27,41h56v31c0,1.65-1.35,3-3,3H30c-1.65,0-3-1.35-3-3V41z"/>
		</g>
		<g>
			<path style="fill:#F0F1F1;" d="M24,39c0,1.105,0.895,2,2,2h58c1.105,0,2-0.895,2-2V25c0-1.105-0.895-2-2-2H26
				c-1.105,0-2,0.895-2,2V39z"/>
		</g>
		<g>
			<path style="fill:#FFFFFF;" d="M26,23c-1.104,0-2,0.896-2,2v14c0,1.104,0.896,2,2,2h27.603l18-18H26z"/>
		</g>
		<g>
			<rect x="32" y="57" style="fill:#F0F1F1;" width="46" height="14"/>
		</g>
		<g>
			<path style="fill:#FFFFFF;" d="M30.515,77.248C30.641,78.249,31.491,79,32.5,79h45c1.009,0,1.859-0.751,1.985-1.752l0.5-4
				c0.071-0.569-0.106-1.142-0.485-1.572C79.12,71.246,78.574,71,78,71H32c-0.574,0-1.12,0.246-1.499,0.676
				c-0.38,0.43-0.556,1.002-0.485,1.572L30.515,77.248z"/>
		</g>
		<g>
			<path style="fill:#3E3E3F;" d="M32,79h8v6c0,1.105-0.895,2-2,2h-4c-1.105,0-2-0.895-2-2V79z"/>
		</g>
		<g>
			<path style="fill:#3E3E3F;" d="M70,79h8v6c0,1.105-0.895,2-2,2h-4c-1.105,0-2-0.895-2-2V79z"/>
		</g>
		<g>
			<path style="fill:#F3B607;" d="M78,63h-4c-2.209,0-4,1.791-4,4h8V63z"/>
		</g>
		<g>
			<rect x="70" y="67" style="fill:#FACB1B;" width="8" height="4"/>
		</g>
		<g>
			<path style="fill:#F3B607;" d="M32,63h4c2.209,0,4,1.791,4,4h-8V63z"/>
		</g>
		<g>
			<rect x="32" y="67" style="fill:#FACB1B;" width="8" height="4"/>
		</g>
		<g>
			<path style="fill:#6FDAF1;" d="M38,36c0,0.552-0.448,1-1,1h-8c-0.552,0-1-0.448-1-1v-8c0-0.552,0.448-1,1-1h8
				c0.552,0,1,0.448,1,1V36z"/>
		</g>
		<g>
			<path style="fill:#40C9E7;" d="M82,36c0,0.552-0.448,1-1,1h-8c-0.552,0-1-0.448-1-1v-8c0-0.552,0.448-1,1-1h8
				c0.552,0,1,0.448,1,1V36z"/>
		</g>
		<g>
			<path style="fill:#40C9E7;" d="M68,36c0,0.552-0.448,1-1,1H43c-0.552,0-1-0.448-1-1v-8c0-0.552,0.448-1,1-1h24
				c0.552,0,1,0.448,1,1V36z"/>
		</g>
		<g>
			<polygon style="fill:#40C9E7;" points="78,57 32,57 36,41 74,41 			"/>
		</g>
		<g>
			<polygon style="fill:#FFFFFF;" points="37.603,57 32,57 32,62.603 			"/>
		</g>
		<g>
			<polygon style="fill:#6FDAF1;" points="32,57 37.603,57 53.603,41 36,41 			"/>
		</g>
		<g>
			<path style="fill:#6FDAF1;" d="M67,27H43c-0.552,0-1,0.448-1,1v8c0,0.552,0.448,1,1,1h14.603l9.867-9.867
				C67.328,27.056,67.173,27,67,27z"/>
		</g>
	</g>
</g>
</svg>
