<?xml version="1.0" encoding="iso-8859-1"?>
<!-- Generator: Adobe Illustrator 17.1.0, SVG Export Plug-In . SVG Version: 6.00 Build 0)  -->
<!DOCTYPE svg PUBLIC "-//W3C//DTD SVG 1.0//EN" "http://www.w3.org/TR/2001/REC-SVG-20010904/DTD/svg10.dtd">
<svg version="1.0" xmlns="http://www.w3.org/2000/svg" xmlns:xlink="http://www.w3.org/1999/xlink" x="0px" y="0px" width="110px"
	 height="110px" viewBox="0 0 110 110" style="enable-background:new 0 0 110 110;" xml:space="preserve">
<g id="Artboard">
</g>
<g id="Multicolor">
	<circle style="fill:#32BEA6;" cx="55" cy="55" r="55"/>
	<g>
		<path style="fill:#B6BCBD;" d="M87,83c0,2.209-1.791,4-4,4H27c-2.209,0-4-1.791-4-4V31c0-2.209,1.791-4,4-4h56
			c2.209,0,4,1.791,4,4V83z"/>
		<path style="fill:#E2E4E5;" d="M79,79c0,1.105-0.895,2-2,2H33c-1.105,0-2-0.895-2-2V35c0-1.105,0.895-2,2-2h44
			c1.105,0,2,0.895,2,2V79z"/>
		<path style="fill:#CFD3D4;" d="M83,27H27c-2.209,0-4,1.791-4,4v52c0,2.209,1.791,4,4,4h0.646l58.474-58.474
			C85.388,27.603,84.27,27,83,27z"/>
		<path style="fill:#F0F1F1;" d="M79,35c0-1.104-0.896-2-2-2H33c-1.104,0-2,0.896-2,2v44c0,1.104,0.896,2,2,2h0.646L79,35.647V35z"
			/>
		<circle style="fill:#059BBF;" cx="59" cy="55" r="8"/>
		<path style="fill:#21B2D1;" d="M59,47c-4.418,0-8,3.582-8,8c0,2.374,1.04,4.5,2.682,5.965l11.283-11.283
			C63.5,48.04,61.374,47,59,47z"/>
		<path style="fill:#F0F1F1;" d="M59,43c-6.551,0-12,5.299-12,12c0,6.63,5.37,12,12,12s12-5.37,12-12C71,48.307,65.559,43,59,43z
			 M64.994,60.286l-3.553-3.552c0.257-0.361,0.432-0.779,0.509-1.234h5.025C66.861,57.332,66.135,58.993,64.994,60.286z
			 M51.025,55.5h5.025c0.077,0.455,0.252,0.873,0.509,1.234l-3.553,3.552C51.865,58.993,51.139,57.332,51.025,55.5z M53.006,49.714
			l3.553,3.552c-0.257,0.361-0.432,0.779-0.509,1.234h-5.025C51.139,52.668,51.865,51.007,53.006,49.714z M57.266,57.441
			c0.361,0.257,0.779,0.432,1.234,0.509v5.025c-1.832-0.113-3.493-0.84-4.786-1.981L57.266,57.441z M59.5,57.95
			c0.455-0.077,0.873-0.252,1.234-0.509l3.553,3.553c-1.293,1.141-2.955,1.868-4.787,1.981V57.95z M64.994,49.714
			c1.141,1.293,1.868,2.955,1.981,4.786H61.95c-0.077-0.455-0.252-0.873-0.509-1.234L64.994,49.714z M64.287,49.006l-3.553,3.553
			c-0.361-0.257-0.779-0.432-1.234-0.509v-5.025C61.332,47.139,62.994,47.865,64.287,49.006z M58.5,47.025v5.025
			c-0.455,0.077-0.873,0.252-1.234,0.509l-3.553-3.553C55.007,47.865,56.668,47.139,58.5,47.025z"/>
		<path style="fill:#CFD3D4;" d="M83,51c0,1.105-0.895,2-2,2h-4c-1.105,0-2-0.895-2-2v-8c0-1.105,0.895-2,2-2h4c1.105,0,2,0.895,2,2
			V51z"/>
		<path style="fill:#FFFFFF;" d="M79,41h-2c-1.104,0-2,0.896-2,2v8c0,1.104,0.896,2,2,2h2V41z"/>
		<path style="fill:#CFD3D4;" d="M83,71c0,1.105-0.895,2-2,2h-4c-1.105,0-2-0.895-2-2v-8c0-1.105,0.895-2,2-2h4c1.105,0,2,0.895,2,2
			V71z"/>
		<path style="fill:#FFFFFF;" d="M79,61h-2c-1.104,0-2,0.896-2,2v8c0,1.104,0.896,2,2,2h2V61z"/>
		<circle style="fill:#B6BCBD;" cx="39" cy="72" r="4"/>
		<circle style="fill:#B6BCBD;" cx="39" cy="44" r="4"/>
		<path style="fill:#CFD3D4;" d="M41,72c0,1.105-0.895,2-2,2s-2-0.895-2-2V44c0-1.105,0.895-2,2-2s2,0.895,2,2V72z"/>
		<path style="fill:#FFFFFF;" d="M59,43c-6.551,0-12,5.299-12,12c0,3.48,1.488,6.603,3.853,8.794l16.945-16.945
			C65.431,44.298,62.212,43,59,43z M53.006,60.286c-1.141-1.293-1.868-2.955-1.981-4.786h5.025c0.077,0.455,0.252,0.873,0.509,1.234
			L53.006,60.286z M56.05,54.5h-5.025c0.113-1.832,0.84-3.493,1.981-4.786l3.553,3.552C56.302,53.627,56.127,54.045,56.05,54.5z
			 M58.5,52.05c-0.455,0.077-0.873,0.252-1.234,0.509l-3.553-3.553c1.293-1.141,2.955-1.868,4.787-1.981V52.05z M60.734,52.559
			c-0.361-0.257-0.779-0.432-1.234-0.509v-5.025c1.832,0.113,3.494,0.84,4.787,1.981L60.734,52.559z"/>
		<path style="fill:#FFFFFF;" d="M37,44v28c0,1.104,0.896,2,2,2V42C37.896,42,37,42.896,37,44z"/>
	</g>
</g>
</svg>
