<?xml version="1.0" encoding="iso-8859-1"?>
<!-- Generator: Adobe Illustrator 17.1.0, SVG Export Plug-In . SVG Version: 6.00 Build 0)  -->
<!DOCTYPE svg PUBLIC "-//W3C//DTD SVG 1.0//EN" "http://www.w3.org/TR/2001/REC-SVG-20010904/DTD/svg10.dtd">
<svg version="1.0" xmlns="http://www.w3.org/2000/svg" xmlns:xlink="http://www.w3.org/1999/xlink" x="0px" y="0px" width="110px"
	 height="110px" viewBox="0 0 110 110" style="enable-background:new 0 0 110 110;" xml:space="preserve">
<g id="Artboard">
</g>
<g id="Multicolor">
	<circle style="fill:#FABC3D;" cx="55" cy="55" r="55"/>
	<g>
		<g>
			<path style="fill:#F37A10;" d="M85.286,55.879C86.272,56.02,87,56.862,87,57.858V85c0,1.105-0.895,2-2,2H25c-1.105,0-2-0.895-2-2
				V57.858c0-0.994,0.73-1.839,1.715-1.98C30.532,55.047,35,50.048,35,44V28c0-2.209,1.791-4,4-4h4.969
				c1.651,0,2.991,1.334,2.999,2.985C47.006,34.2,47.824,50,55,50s7.995-15.8,8.032-23.015C63.04,25.334,64.381,24,66.031,24H71
				c2.209,0,4,1.791,4,4v16C75,50.048,79.469,55.047,85.286,55.879z"/>
		</g>
		<g>
			<path style="fill:#F99134;" d="M55,50c-7.176,0-7.995-15.8-8.032-23.015C46.96,25.333,45.62,24,43.969,24H39
				c-2.209,0-4,1.791-4,4v16c0,6.048-4.468,11.047-10.285,11.879C23.731,56.019,23,56.864,23,57.858V85c0,1.104,0.896,2,2,2h30V50z"
				/>
		</g>
		<g>
			<rect x="23" y="76" style="fill:#E2E4E5;" width="64" height="6"/>
		</g>
		<g>
			<rect x="23" y="64" style="fill:#E2E4E5;" width="64" height="6"/>
		</g>
		<path style="fill:#3E3E3F;" d="M51,70h8c0.551,0,1-0.449,1-1v-4c0-0.551-0.449-1-1-1h-8c-0.551,0-1,0.449-1,1v4
			C50,69.551,50.449,70,51,70z"/>
		<path style="fill:#FFFFFF;" d="M59,72h-8c-1.654,0-3-1.346-3-3v-4c0-1.654,1.346-3,3-3h8c1.654,0,3,1.346,3,3v4
			C62,70.654,60.655,72,59,72z M51,64c-0.551,0-1,0.449-1,1v4c0,0.551,0.449,1,1,1h8c0.551,0,1-0.449,1-1v-4c0-0.551-0.449-1-1-1H51
			z"/>
		<path style="fill:#3E3E3F;" d="M51,82h8c0.551,0,1-0.449,1-1v-4c0-0.551-0.449-1-1-1h-8c-0.551,0-1,0.449-1,1v4
			C50,81.551,50.449,82,51,82z"/>
		<path style="fill:#FFFFFF;" d="M59,84h-8c-1.654,0-3-1.346-3-3v-4c0-1.654,1.346-3,3-3h8c1.654,0,3,1.346,3,3v4
			C62,82.654,60.655,84,59,84z M51,76c-0.551,0-1,0.449-1,1v4c0,0.551,0.449,1,1,1h8c0.551,0,1-0.449,1-1v-4c0-0.551-0.449-1-1-1H51
			z"/>
		<g>
			<rect x="71" y="61" style="fill:#3E3E3F;" width="4" height="24"/>
		</g>
		<g>
			<rect x="35" y="61" style="fill:#3E3E3F;" width="4" height="24"/>
		</g>
	</g>
</g>
</svg>
