<?xml version="1.0" encoding="iso-8859-1"?>
<!-- Generator: Adobe Illustrator 17.1.0, SVG Export Plug-In . SVG Version: 6.00 Build 0)  -->
<!DOCTYPE svg PUBLIC "-//W3C//DTD SVG 1.0//EN" "http://www.w3.org/TR/2001/REC-SVG-20010904/DTD/svg10.dtd">
<svg version="1.0" xmlns="http://www.w3.org/2000/svg" xmlns:xlink="http://www.w3.org/1999/xlink" x="0px" y="0px" width="110px"
	 height="110px" viewBox="0 0 110 110" style="enable-background:new 0 0 110 110;" xml:space="preserve">
<g id="Artboard">
</g>
<g id="Multicolor">
	<circle style="fill:#FABC3D;" cx="55" cy="55" r="55"/>
	<g>
		<g>
			<path style="fill:#E2E4E5;" d="M87,81c0,1.105-0.895,2-2,2H25c-1.105,0-2-0.895-2-2V37c0-1.105,0.895-2,2-2h60
				c1.105,0,2,0.895,2,2V81z"/>
		</g>
		<g>
			<path style="fill:#FFFFFF;" d="M25,35c-1.104,0-2,0.896-2,2v44c0,0.559,0.23,1.062,0.599,1.425L71.024,35H25z"/>
		</g>
		<g>
			<rect x="27" y="39" style="fill:#3E3E3F;" width="56" height="40"/>
		</g>
		<g>
			<polygon style="fill:#5B5C5F;" points="27,39 27,79 27.024,79 67.024,39 			"/>
		</g>
		<g>
			<path style="fill:#CFD3D4;" d="M67,67H35c-5.333-6.667-5.333-13.333,0-20h32C72.333,53.667,72.333,60.333,67,67z"/>
		</g>
		<g>
			<rect x="35" y="47" style="fill:#E2E4E5;" width="32" height="20"/>
		</g>
		<g>
			<polygon style="fill:#FFFFFF;" points="35,47 35,67 39.024,67 59.024,47 			"/>
		</g>
		<g>
			<polygon style="fill:#3E3E3F;" points="27,83 27,87 31,87 35,83 			"/>
		</g>
		<g>
			<polygon style="fill:#3E3E3F;" points="83,83 83,87 79,87 75,83 			"/>
		</g>
		<g>
			<rect x="52" y="51" style="fill:#3E3E3F;" width="3" height="3"/>
		</g>
		<g>
			<rect x="56" y="51" style="fill:#3E3E3F;" width="3" height="3"/>
		</g>
		<g>
			<rect x="60" y="51" style="fill:#3E3E3F;" width="3" height="3"/>
		</g>
		<g>
			<rect x="52" y="56" style="fill:#3E3E3F;" width="3" height="3"/>
		</g>
		<g>
			<rect x="56" y="56" style="fill:#3E3E3F;" width="3" height="3"/>
		</g>
		<g>
			<rect x="60" y="56" style="fill:#3E3E3F;" width="3" height="3"/>
		</g>
		<g>
			<circle style="fill:#3E3E3F;" cx="43" cy="55" r="4"/>
		</g>
		<g>
			<path style="fill:#FFFFFF;" d="M42,57h2l-0.738-4.426c-0.049-0.296-0.475-0.296-0.525,0L42,57z"/>
		</g>
	</g>
</g>
</svg>
