<?xml version="1.0" encoding="iso-8859-1"?>
<!-- Generator: Adobe Illustrator 17.1.0, SVG Export Plug-In . SVG Version: 6.00 Build 0)  -->
<!DOCTYPE svg PUBLIC "-//W3C//DTD SVG 1.0//EN" "http://www.w3.org/TR/2001/REC-SVG-20010904/DTD/svg10.dtd">
<svg version="1.0" xmlns="http://www.w3.org/2000/svg" xmlns:xlink="http://www.w3.org/1999/xlink" x="0px" y="0px" width="110px"
	 height="110px" viewBox="0 0 110 110" style="enable-background:new 0 0 110 110;" xml:space="preserve">
<g id="Artboard">
</g>
<g id="Multicolor">
	<circle style="fill:#FABC3D;" cx="55" cy="55" r="55"/>
	<g>
		<path style="fill:#40C9E7;" d="M55,47.355c-7.456,0.137-23.932,1.122-28.585,6.907c0,0,0.361,15.57,3.42,17.099
			c3.42,1.71,17.099,1.71,17.099,1.71c3.404,0,3.025-8.612,8.066-8.612c5.04,0,4.665,8.612,8.066,8.612c0,0,13.679,0,17.099-1.71
			c3.059-1.53,3.42-17.099,3.42-17.099C78.932,48.477,62.453,47.492,55,47.355z"/>
		<path style="fill:#FFFFFF;" d="M86.25,52.12c-5.377-6.686-22.616-8.282-31.25-8.184c-8.633-0.098-25.873,1.498-31.25,8.184
			l-0.783,0.973l0.029,1.249c0.408,17.628,4.097,19.472,5.309,20.079c3.843,1.922,15.23,2.071,18.629,2.071
			c3.67,0,5.305-3.337,6.386-5.545c0.787-1.606,1.071-2.996,1.68-3.06c0.608,0.064,0.893,1.454,1.68,3.06
			c1.082,2.208,2.716,5.545,6.386,5.545c3.398,0,14.785-0.149,18.629-2.071c1.212-0.606,4.901-2.45,5.309-20.079l0.029-1.249
			L86.25,52.12z M80.165,71.362c-3.42,1.71-17.099,1.71-17.099,1.71c-3.401,0-3.026-8.612-8.066-8.612
			c-5.041,0-4.662,8.612-8.066,8.612c0,0-13.679,0-17.099-1.71c-3.059-1.53-3.42-17.099-3.42-17.099
			c4.653-5.786,21.129-6.77,28.585-6.907c7.453,0.136,23.932,1.121,28.585,6.907C83.585,54.263,83.224,69.832,80.165,71.362z"/>
		<path style="fill:#6FDAF1;" d="M55,47.355c-7.456,0.137-23.932,1.122-28.585,6.907c0,0,0.361,15.57,3.42,17.099
			c0.821,0.411,2.237,0.722,3.91,0.959l24.847-24.847C57.259,47.411,56.04,47.375,55,47.355z"/>
	</g>
</g>
</svg>
