<?xml version="1.0" encoding="iso-8859-1"?>
<!-- Generator: Adobe Illustrator 17.1.0, SVG Export Plug-In . SVG Version: 6.00 Build 0)  -->
<!DOCTYPE svg PUBLIC "-//W3C//DTD SVG 1.0//EN" "http://www.w3.org/TR/2001/REC-SVG-20010904/DTD/svg10.dtd">
<svg version="1.0" xmlns="http://www.w3.org/2000/svg" xmlns:xlink="http://www.w3.org/1999/xlink" x="0px" y="0px" width="110px"
	 height="110px" viewBox="0 0 110 110" style="enable-background:new 0 0 110 110;" xml:space="preserve">
<g id="Artboard">
</g>
<g id="Multicolor">
	<circle style="fill:#E04F5F;" cx="55" cy="55" r="55"/>
	<g>
		<g>
			<polygon style="fill:#3E3E3F;" points="79.023,70.537 70.537,79.023 78.515,87 87,87 87,78.515 			"/>
		</g>
		<g>
			<path style="fill:#E2E4E5;" d="M62.466,81.706c1.488,1.488,3.9,1.488,5.387,0l13.853-13.853c1.488-1.488,1.488-3.9,0-5.387
				l-5.387-5.387c-1.488-1.488-3.9-1.488-5.387,0L57.079,70.932c-1.488,1.488-1.488,3.9,0,5.387L62.466,81.706z"/>
		</g>
		<g>
			<path style="fill:#FFFFFF;" d="M78.82,65.352c-0.744-0.744-1.95-0.744-2.694,0L65.352,76.127c-0.744,0.744-0.744,1.95,0,2.694
				l2.694,2.694l13.468-13.468L78.82,65.352z"/>
		</g>
		<g>
			<path style="fill:#FFFFFF;" d="M64.39,53.616c-1.488-1.488-3.9-1.488-5.387,0l-5.387,5.387c-1.488,1.488-1.488,3.9,0,5.387
				l5.002,5.002l10.774-10.774L64.39,53.616z"/>
		</g>
		<g>
			<polygon style="fill:#3E3E3F;" points="38.681,30.196 31.485,23 23,23 23,31.485 30.196,38.681 			"/>
		</g>
		<g>
			<path style="fill:#FFFFFF;" d="M55.724,38.731c0.354,0.354,0.553,0.834,0.553,1.334l-0.284,9.394c0,0.5-0.199,0.98-0.553,1.334
				l-4.374,4.374c-0.354,0.354-0.834,0.553-1.334,0.553l-9.11,0c-0.5,0-0.98-0.199-1.334-0.553L27.833,43.713
				c-0.737-0.737-0.737-1.931,0-2.668l13.768-13.768c0.737-0.737,1.931-0.737,2.668,0L55.724,38.731z"/>
		</g>
		<g>
			<polygon style="fill:#3E3E3F;" points="34.029,43.932 44.429,33.413 51.9,40.884 41.441,51.344 			"/>
		</g>
		<g>
			<polygon style="fill:#FBE158;" points="82.971,39.971 82.971,28.657 80.142,31.485 71.657,23 66,28.657 74.485,37.142 
				71.657,39.971 			"/>
		</g>
		<g>
			<polygon style="fill:#FBE158;" points="27.029,70 27.029,81.314 29.858,78.485 38.343,86.971 44,81.314 35.515,72.828 38.343,70 
							"/>
		</g>
		<g>
			
				<rect x="59.243" y="56.757" transform="matrix(0.7071 0.7071 -0.7071 0.7071 60.8995 -25.5097)" style="fill:#CFD3D4;" width="4" height="8"/>
		</g>
	</g>
</g>
</svg>
