<?xml version="1.0" encoding="iso-8859-1"?>
<!-- Generator: Adobe Illustrator 17.1.0, SVG Export Plug-In . SVG Version: 6.00 Build 0)  -->
<!DOCTYPE svg PUBLIC "-//W3C//DTD SVG 1.0//EN" "http://www.w3.org/TR/2001/REC-SVG-20010904/DTD/svg10.dtd">
<svg version="1.0" xmlns="http://www.w3.org/2000/svg" xmlns:xlink="http://www.w3.org/1999/xlink" x="0px" y="0px" width="110px"
	 height="110px" viewBox="0 0 110 110" style="enable-background:new 0 0 110 110;" xml:space="preserve">
<g id="Artboard">
</g>
<g id="Multicolor">
	<circle style="fill:#25B7D3;" cx="55" cy="55" r="55"/>
	<g>
		<path style="fill:#E2E4E5;" d="M46.786,32.933l20.395,6.166l-7.114,7.115l2.828,2.828l7.115-7.115l6.166,20.396l4.493,4.493
			c-8.979-29.718-8.594-28.86-9.052-29.315c-0.46-0.47,0.372-0.088-29.324-9.061L46.786,32.933z"/>
		<path style="fill:#CFD3D4;" d="M50.249,68.008L39.856,80h3.971l3.686-4.253L50.55,80h5.116l3.038-4.253L62.39,80h3.971
			l-9.194-10.608L50.249,68.008z M53.108,78.419l-3.574-5.004l3.574-4.125l3.574,4.125L53.108,78.419z"/>
		<g>
			<path style="fill:#F0F1F1;" d="M82.599,68.745c0.274,0.274,0.365,0.683,0.233,1.048c-0.132,0.365-0.463,0.62-0.85,0.655
				l-13.43,1.221l-21.213-4.243l-5.657-5.657l-4.243-21.213l1.221-13.43c0.035-0.386,0.291-0.718,0.655-0.85
				c0.365-0.132,0.773-0.041,1.048,0.233L82.599,68.745z"/>
		</g>
		<rect x="37.108" y="80" style="fill:#F0F1F1;" width="32" height="4"/>
		<path style="fill:#3E3E3F;" d="M37.108,78c0-0.552-0.448-1-1-1h-4c-0.552,0-1,0.448-1,1v8c0,0.552,0.448,1,1,1h4
			c0.552,0,1-0.448,1-1V78z"/>
		<path style="fill:#3E3E3F;" d="M75.108,78c0-0.552-0.448-1-1-1h-4c-0.552,0-1,0.448-1,1v8c0,0.552,0.448,1,1,1h4
			c0.552,0,1-0.448,1-1V78z"/>
		<path style="fill:#F0F1F1;" d="M66.617,41.449c-0.947-0.947-1.152-2.407-0.501-3.578l2.437-4.386l7.071,7.071l-4.386,2.437
			c-1.171,0.65-2.631,0.446-3.578-0.501L66.617,41.449z"/>
		<path style="fill:#E2E4E5;" d="M47.339,67.426c-1.563,1.563-4.094,1.563-5.657,0s-1.563-4.094,0-5.657L47.339,67.426z"/>
		<path style="fill:#3E3E3F;" d="M67.138,32.071l9.899,9.899l-0.243-5.657c0-2.209-1.791-4-4-4L67.138,32.071z"/>
		<path style="fill:#FFFFFF;" d="M41.682,61.77c-1.555,1.555-1.56,4.066-0.021,5.631l2.826-2.826L41.682,61.77z"/>
		<path style="fill:#FFFFFF;" d="M40.363,26.51c-0.274-0.274-0.683-0.365-1.047-0.233s-0.621,0.463-0.656,0.85l-1.221,13.43
			l4.243,21.213l2.805,2.805l16.97-16.971L40.363,26.51z"/>
		<path style="fill:#FFFFFF;" d="M68.552,33.485l-2.437,4.386c-0.65,1.171-0.446,2.631,0.501,3.578l0.498,0.498l4.95-4.95
			L68.552,33.485z"/>
		<path style="fill:#5B5C5F;" d="M67.138,32.071l4.926,4.926l3.533-3.533c-0.722-0.71-1.71-1.15-2.802-1.15L67.138,32.071z"/>
	</g>
</g>
</svg>
