<?xml version="1.0" encoding="iso-8859-1"?>
<!-- Generator: Adobe Illustrator 17.1.0, SVG Export Plug-In . SVG Version: 6.00 Build 0)  -->
<!DOCTYPE svg PUBLIC "-//W3C//DTD SVG 1.0//EN" "http://www.w3.org/TR/2001/REC-SVG-20010904/DTD/svg10.dtd">
<svg version="1.0" xmlns="http://www.w3.org/2000/svg" xmlns:xlink="http://www.w3.org/1999/xlink" x="0px" y="0px" width="110px"
	 height="110px" viewBox="0 0 110 110" style="enable-background:new 0 0 110 110;" xml:space="preserve">
<g id="Artboard">
</g>
<g id="Multicolor">
	<circle style="fill:#25B7D3;" cx="55" cy="55" r="55"/>
	<g>
		<polygon style="fill:#5B5C5F;" points="75.121,43.647 87,35.728 74.272,23 66.353,34.879 		"/>
		
			<rect x="58.908" y="38.092" transform="matrix(-0.7071 -0.7071 0.7071 -0.7071 86.1632 119.8737)" style="fill:#5B5C5F;" width="18" height="8"/>
		<path style="fill:#F0F1F1;" d="M74.62,86.289c-0.781,0.781-2.047,0.781-2.828,0L57.65,72.147c-0.781-0.781-0.781-2.047,0-2.828
			l9.899-9.899c0.781-0.781,2.047-0.781,2.828,0L84.52,73.561c0.781,0.781,0.781,2.047,0,2.828L74.62,86.289z"/>
		
			<rect x="60.398" y="60.952" transform="matrix(-0.7071 -0.7071 0.7071 -0.7071 61.1528 151.2334)" style="fill:#3E3E3F;" width="3" height="4"/>
		
			<rect x="45.549" y="46.102" transform="matrix(-0.7071 -0.7071 0.7071 -0.7071 46.3036 115.3841)" style="fill:#3E3E3F;" width="3" height="4"/>
		<path style="fill:#5B5C5F;" d="M29.164,84.129c1.657,0,3-1.343,3-3c0-0.464-0.114-0.897-0.302-1.289l9.766-6.046l-5.129-5.129
			l-6.045,9.766c-0.392-0.188-0.826-0.302-1.29-0.302c-1.657,0-3,1.343-3,3C26.164,82.786,27.507,84.129,29.164,84.129z"/>
		<path style="fill:#FBE158;" d="M27.621,59.788L50.92,83.086c3.969-4.214,5.29-9.998,3.992-15.269l16.532-16.532L58.716,38.556
			L41.745,55.527l0.032,0.032C36.818,54.696,31.54,56.097,27.621,59.788z"/>
		<path style="fill:#F0F1F1;" d="M40.683,52.435c-0.781,0.781-2.047,0.781-2.828,0L23.712,38.293c-0.781-0.781-0.781-2.047,0-2.828
			l9.899-9.899c0.781-0.781,2.047-0.781,2.828,0l14.142,14.142c0.781,0.781,0.781,2.047,0,2.828L40.683,52.435z"/>
		<path style="fill:#3E3E3F;" d="M29.164,84.129c1.657,0,3-1.343,3-3c0-0.464-0.114-0.897-0.302-1.289l9.766-6.046l-2.646-2.646
			L26.97,83.162C27.518,83.753,28.294,84.129,29.164,84.129z"/>
		<path style="fill:#FACB1B;" d="M50.92,83.086c3.968-4.214,5.29-9.998,3.992-15.27l16.532-16.532l-6.298-6.298L38.982,71.149
			L50.92,83.086z"/>
		
			<rect x="67.123" y="40.853" transform="matrix(-0.7071 0.7071 -0.7071 -0.7071 153.4513 27.0517)" style="fill:#3E3E3F;" width="8" height="8.907"/>
		<polygon style="fill:#3E3E3F;" points="75.121,43.647 87,35.728 80.702,29.43 70.802,39.329 		"/>
		<path style="fill:#FFFFFF;" d="M45.656,47.462l4.926-4.926c0.781-0.781,0.781-2.047,0-2.829L36.44,25.565
			c-0.781-0.781-2.047-0.781-2.828,0l-4.927,4.926L45.656,47.462z"/>
		<path style="fill:#FFFFFF;" d="M79.614,81.295l4.926-4.926c0.781-0.781,0.781-2.047,0-2.829L70.399,59.398
			c-0.781-0.781-2.047-0.781-2.828,0l-4.927,4.926L79.614,81.295z"/>
	</g>
</g>
</svg>
