<?xml version="1.0" encoding="iso-8859-1"?>
<!-- Generator: Adobe Illustrator 17.1.0, SVG Export Plug-In . SVG Version: 6.00 Build 0)  -->
<!DOCTYPE svg PUBLIC "-//W3C//DTD SVG 1.0//EN" "http://www.w3.org/TR/2001/REC-SVG-20010904/DTD/svg10.dtd">
<svg version="1.0" xmlns="http://www.w3.org/2000/svg" xmlns:xlink="http://www.w3.org/1999/xlink" x="0px" y="0px" width="110px"
	 height="110px" viewBox="0 0 110 110" style="enable-background:new 0 0 110 110;" xml:space="preserve">
<g id="Artboard" style="display:none;">
	
		<rect x="-968.5" y="-418.5" style="display:inline;fill:#808080;stroke:#000000;stroke-miterlimit:10;" width="1392" height="1369"/>
</g>
<g id="R-Multicolor">
	<circle style="fill:#FABC3D;" cx="55" cy="55" r="55"/>
	<g>
		<g>
			<path style="fill:#F0F1F1;" d="M45.484,81.491L65.99,60.985c3.124-3.124,3.124-8.19,0-11.314l-0.707-0.707l21.719-21.719v-4.243
				H82.76L61.041,44.722l-0.707-0.707c-3.124-3.124-8.189-3.124-11.313,0L28.514,64.521c-0.781,0.781-0.781,2.047,0,2.829
				c0.781,0.781,2.047,0.781,2.828,0L44.07,54.621l4.242,4.243L35.585,71.592c-0.781,0.781-0.781,2.047,0,2.828
				c0.781,0.781,2.047,0.781,2.828,0l12.728-12.728l4.243,4.243L42.656,78.663c-0.781,0.781-0.781,2.047,0,2.828
				C43.437,82.272,44.703,82.272,45.484,81.491z"/>
		</g>
		<g>
			<path style="fill:#CFD3D4;" d="M42.656,78.663c-0.781,0.781-0.781,2.047,0,2.828c0.781,0.781,2.047,0.781,2.828,0L65.99,60.985
				c3.124-3.124,3.124-8.19,0-11.314l-0.707-0.707l21.719-21.719v-4.243H86.78L35.485,74.298c0.034,0.04,0.062,0.084,0.1,0.122
				c0.781,0.781,2.047,0.781,2.828,0l12.728-12.728l4.243,4.243L42.656,78.663z"/>
		</g>
		<g>
			<g>
				<path style="fill:#FA5655;" d="M28.51,23.707c4.581-1.929,9.858,0.221,11.788,4.802c7.781,18.479,24.508,35.338,40.678,40.998
					c4.691,1.642,7.163,6.776,5.521,11.468c-1.642,4.691-6.776,7.164-11.468,5.521c-24.182-8.463-43.2-31.714-51.322-51.002
					C21.778,30.908,23.933,25.635,28.51,23.707z"/>
			</g>
		</g>
		<g>
			<path style="fill:#DF2C2C;" d="M31.003,46.002c0,0-0.08-4.1,2-8c2.08-3.9,5.529-6.118,5.529-6.118s0.08,4.1-2,8
				C34.452,43.785,31.003,46.002,31.003,46.002z"/>
		</g>
		<g>
			<path style="fill:#F79392;" d="M31.003,46.002l7.529-14.118c0,0,0.08,4.1-2,8C34.452,43.785,31.003,46.002,31.003,46.002z"/>
		</g>
		<g>
			<path style="fill:#DF2C2C;" d="M41.943,61.002c0,0,0.177-4.097,2.498-7.859c2.32-3.762,5.902-5.759,5.902-5.759
				s-0.177,4.097-2.498,7.859C45.524,59.005,41.943,61.002,41.943,61.002z"/>
		</g>
		<g>
			<path style="fill:#F79392;" d="M41.943,61.002l8.4-13.618c0,0-0.177,4.097-2.498,7.859
				C45.524,59.005,41.943,61.002,41.943,61.002z"/>
		</g>
		<g>
			<path style="fill:#DF2C2C;" d="M56.648,75.066c0,0-0.713-4.038,0.739-8.213c1.452-4.175,4.517-6.899,4.517-6.899
				s0.713,4.038-0.739,8.213C59.712,72.341,56.648,75.066,56.648,75.066z"/>
		</g>
		<g>
			<path style="fill:#F79392;" d="M56.648,75.066l5.255-15.112c0,0,0.713,4.038-0.739,8.213
				C59.712,72.341,56.648,75.066,56.648,75.066z"/>
		</g>
		<g>
			<path style="fill:#DF2C2C;" d="M72.896,85.002c0,0-1.16-3.933-0.185-8.244c0.976-4.311,3.716-7.361,3.716-7.361
				s1.16,3.933,0.185,8.244C75.637,81.952,72.896,85.002,72.896,85.002z"/>
		</g>
		<g>
			<path style="fill:#F79392;" d="M72.896,85.002l3.532-15.605c0,0,1.16,3.933,0.185,8.244
				C75.637,81.952,72.896,85.002,72.896,85.002z"/>
		</g>
	</g>
</g>
<g id="Multicolor" style="display:none;">
	<g style="display:inline;">
		<g>
			<path style="fill:#F0F1F1;" d="M45.484,81.491L65.99,60.985c3.124-3.124,3.124-8.19,0-11.314l-0.707-0.707l21.719-21.719v-4.243
				H82.76L61.041,44.722l-0.707-0.707c-3.124-3.124-8.189-3.124-11.313,0L28.514,64.521c-0.781,0.781-0.781,2.047,0,2.829
				c0.781,0.781,2.047,0.781,2.828,0L44.07,54.621l4.242,4.243L35.585,71.592c-0.781,0.781-0.781,2.047,0,2.828
				c0.781,0.781,2.047,0.781,2.828,0l12.728-12.728l4.243,4.243L42.656,78.663c-0.781,0.781-0.781,2.047,0,2.828
				C43.437,82.272,44.703,82.272,45.484,81.491z"/>
		</g>
		<g>
			<path style="fill:#CFD3D4;" d="M42.656,78.663c-0.781,0.781-0.781,2.047,0,2.828c0.781,0.781,2.047,0.781,2.828,0L65.99,60.985
				c3.124-3.124,3.124-8.19,0-11.314l-0.707-0.707l21.719-21.719v-4.243H86.78L35.485,74.298c0.034,0.04,0.062,0.084,0.1,0.122
				c0.781,0.781,2.047,0.781,2.828,0l12.728-12.728l4.243,4.243L42.656,78.663z"/>
		</g>
		<g>
			<g>
				<path style="fill:#FA5655;" d="M28.51,23.707c4.581-1.929,9.858,0.221,11.788,4.802c7.781,18.479,24.508,35.338,40.678,40.998
					c4.691,1.642,7.163,6.776,5.521,11.468c-1.642,4.691-6.776,7.164-11.468,5.521c-24.182-8.463-43.2-31.714-51.322-51.002
					C21.778,30.908,23.933,25.635,28.51,23.707z"/>
			</g>
		</g>
		<g>
			<path style="fill:#DF2C2C;" d="M31.003,46.002c0,0-0.08-4.1,2-8c2.08-3.9,5.529-6.118,5.529-6.118s0.08,4.1-2,8
				C34.452,43.785,31.003,46.002,31.003,46.002z"/>
		</g>
		<g>
			<path style="fill:#F79392;" d="M31.003,46.002l7.529-14.118c0,0,0.08,4.1-2,8C34.452,43.785,31.003,46.002,31.003,46.002z"/>
		</g>
		<g>
			<path style="fill:#DF2C2C;" d="M41.943,61.002c0,0,0.177-4.097,2.498-7.859c2.32-3.762,5.902-5.759,5.902-5.759
				s-0.177,4.097-2.498,7.859C45.524,59.005,41.943,61.002,41.943,61.002z"/>
		</g>
		<g>
			<path style="fill:#F79392;" d="M41.943,61.002l8.4-13.618c0,0-0.177,4.097-2.498,7.859
				C45.524,59.005,41.943,61.002,41.943,61.002z"/>
		</g>
		<g>
			<path style="fill:#DF2C2C;" d="M56.648,75.066c0,0-0.713-4.038,0.739-8.213c1.452-4.175,4.517-6.899,4.517-6.899
				s0.713,4.038-0.739,8.213C59.712,72.341,56.648,75.066,56.648,75.066z"/>
		</g>
		<g>
			<path style="fill:#F79392;" d="M56.648,75.066l5.255-15.112c0,0,0.713,4.038-0.739,8.213
				C59.712,72.341,56.648,75.066,56.648,75.066z"/>
		</g>
		<g>
			<path style="fill:#DF2C2C;" d="M72.896,85.002c0,0-1.16-3.933-0.185-8.244c0.976-4.311,3.716-7.361,3.716-7.361
				s1.16,3.933,0.185,8.244C75.637,81.952,72.896,85.002,72.896,85.002z"/>
		</g>
		<g>
			<path style="fill:#F79392;" d="M72.896,85.002l3.532-15.605c0,0,1.16,3.933,0.185,8.244
				C75.637,81.952,72.896,85.002,72.896,85.002z"/>
		</g>
	</g>
</g>
<g id="Blue" style="display:none;">
	<g style="display:inline;">
		<g>
			<path style="fill:#FFFFFF;" d="M45.484,81.491L65.99,60.985c3.124-3.125,3.124-8.189,0-11.313l-0.707-0.708l21.719-21.72v-4.242
				H82.76L61.041,44.722l-0.707-0.707c-3.125-3.124-8.19-3.124-11.314,0L28.514,64.521c-0.781,0.781-0.781,2.047,0,2.829
				c0.781,0.781,2.047,0.781,2.828,0L44.07,54.621l4.242,4.243L35.585,71.592c-0.781,0.781-0.781,2.047,0,2.829
				c0.78,0.781,2.047,0.781,2.828,0l12.728-12.728l4.243,4.243L42.656,78.663c-0.781,0.781-0.781,2.047,0,2.828
				C43.438,82.272,44.703,82.272,45.484,81.491z"/>
		</g>
		<g>
			<path style="fill:#E1F5FA;" d="M42.656,78.663c-0.781,0.781-0.781,2.047,0,2.828c0.781,0.781,2.047,0.781,2.828,0L65.99,60.985
				c3.124-3.125,3.124-8.189,0-11.313l-0.707-0.708l21.719-21.72v-4.242H86.78L35.484,74.298c0.035,0.04,0.062,0.084,0.101,0.123
				c0.78,0.781,2.047,0.781,2.828,0l12.728-12.728l4.243,4.243L42.656,78.663z"/>
		</g>
		<g>
			<g>
				<path style="fill:#009FC7;" d="M28.51,23.708c4.581-1.929,9.858,0.221,11.788,4.802c7.78,18.479,24.508,35.338,40.678,40.998
					c4.691,1.642,7.163,6.776,5.521,11.468c-1.642,4.691-6.776,7.164-11.468,5.521c-24.182-8.463-43.2-31.713-51.322-51.002
					C21.777,30.909,23.934,25.635,28.51,23.708z"/>
			</g>
		</g>
		<g>
			<path style="fill:#0081A1;" d="M31.003,46.002c0,0-0.08-4.1,2-8c2.08-3.9,5.529-6.118,5.529-6.118s0.08,4.1-2,8
				C34.452,43.785,31.003,46.002,31.003,46.002z"/>
		</g>
		<g>
			<path style="fill:#00B7E5;" d="M31.003,46.002l7.529-14.118c0,0,0.08,4.1-2,8C34.452,43.785,31.003,46.002,31.003,46.002z"/>
		</g>
		<g>
			<path style="fill:#0081A1;" d="M41.942,61.002c0,0,0.178-4.097,2.498-7.859c2.32-3.762,5.902-5.759,5.902-5.759
				s-0.178,4.097-2.498,7.859C45.524,59.005,41.942,61.002,41.942,61.002z"/>
		</g>
		<g>
			<path style="fill:#00B7E5;" d="M41.942,61.002l8.4-13.618c0,0-0.178,4.097-2.498,7.859
				C45.524,59.005,41.942,61.002,41.942,61.002z"/>
		</g>
		<g>
			<path style="fill:#0081A1;" d="M56.647,75.066c0,0-0.713-4.039,0.738-8.213c1.452-4.175,4.517-6.899,4.517-6.899
				s0.714,4.038-0.738,8.213C59.713,72.341,56.647,75.066,56.647,75.066z"/>
		</g>
		<g>
			<path style="fill:#00B7E5;" d="M56.647,75.066l5.255-15.112c0,0,0.714,4.038-0.738,8.213
				C59.713,72.341,56.647,75.066,56.647,75.066z"/>
		</g>
		<g>
			<path style="fill:#0081A1;" d="M72.896,85.002c0,0-1.16-3.933-0.185-8.244c0.976-4.311,3.717-7.361,3.717-7.361
				s1.16,3.934,0.185,8.244C75.637,81.952,72.896,85.002,72.896,85.002z"/>
		</g>
		<g>
			<path style="fill:#00B7E5;" d="M72.896,85.002l3.532-15.605c0,0,1.16,3.934,0.185,8.244
				C75.637,81.952,72.896,85.002,72.896,85.002z"/>
		</g>
	</g>
</g>
<g id="R-Blue" style="display:none;">
	<circle style="display:inline;fill:#81D2EB;" cx="55" cy="55" r="55"/>
	<g style="display:inline;">
		<g>
			<path style="fill:#FFFFFF;" d="M45.484,81.491L65.99,60.985c3.124-3.125,3.124-8.189,0-11.313l-0.707-0.708l21.719-21.72v-4.242
				H82.76L61.041,44.722l-0.707-0.707c-3.125-3.124-8.19-3.124-11.314,0L28.514,64.521c-0.781,0.781-0.781,2.047,0,2.829
				c0.781,0.781,2.047,0.781,2.828,0L44.07,54.621l4.242,4.243L35.585,71.592c-0.781,0.781-0.781,2.047,0,2.829
				c0.78,0.781,2.047,0.781,2.828,0l12.728-12.728l4.243,4.243L42.656,78.663c-0.781,0.781-0.781,2.047,0,2.828
				C43.438,82.272,44.703,82.272,45.484,81.491z"/>
		</g>
		<g>
			<path style="fill:#E1F5FA;" d="M42.656,78.663c-0.781,0.781-0.781,2.047,0,2.828c0.781,0.781,2.047,0.781,2.828,0L65.99,60.985
				c3.124-3.125,3.124-8.189,0-11.313l-0.707-0.708l21.719-21.72v-4.242H86.78L35.484,74.298c0.035,0.04,0.062,0.084,0.101,0.122
				c0.78,0.781,2.047,0.781,2.828,0l12.728-12.728l4.243,4.243L42.656,78.663z"/>
		</g>
		<g>
			<g>
				<path style="fill:#009FC7;" d="M28.51,23.707c4.581-1.929,9.858,0.221,11.788,4.802c7.78,18.479,24.508,35.338,40.678,40.998
					c4.691,1.642,7.163,6.776,5.521,11.468c-1.642,4.691-6.776,7.164-11.468,5.521c-24.182-8.463-43.2-31.713-51.322-51.002
					C21.777,30.909,23.934,25.635,28.51,23.707z"/>
			</g>
		</g>
		<g>
			<path style="fill:#0081A1;" d="M31.003,46.002c0,0-0.08-4.1,2-8c2.08-3.9,5.529-6.118,5.529-6.118s0.08,4.1-2,8
				C34.452,43.785,31.003,46.002,31.003,46.002z"/>
		</g>
		<g>
			<path style="fill:#00B7E5;" d="M31.003,46.002l7.529-14.118c0,0,0.08,4.1-2,8C34.452,43.785,31.003,46.002,31.003,46.002z"/>
		</g>
		<g>
			<path style="fill:#0081A1;" d="M41.942,61.002c0,0,0.178-4.097,2.498-7.859c2.32-3.762,5.902-5.759,5.902-5.759
				s-0.178,4.097-2.498,7.859C45.524,59.005,41.942,61.002,41.942,61.002z"/>
		</g>
		<g>
			<path style="fill:#00B7E5;" d="M41.942,61.002l8.4-13.618c0,0-0.178,4.097-2.498,7.859
				C45.524,59.005,41.942,61.002,41.942,61.002z"/>
		</g>
		<g>
			<path style="fill:#0081A1;" d="M56.647,75.066c0,0-0.713-4.039,0.738-8.213c1.452-4.175,4.517-6.899,4.517-6.899
				s0.714,4.038-0.738,8.213C59.713,72.341,56.647,75.066,56.647,75.066z"/>
		</g>
		<g>
			<path style="fill:#00B7E5;" d="M56.647,75.066l5.255-15.112c0,0,0.714,4.038-0.738,8.213
				C59.713,72.341,56.647,75.066,56.647,75.066z"/>
		</g>
		<g>
			<path style="fill:#0081A1;" d="M72.896,85.002c0,0-1.16-3.933-0.185-8.244c0.976-4.311,3.717-7.361,3.717-7.361
				s1.16,3.934,0.185,8.244C75.637,81.952,72.896,85.002,72.896,85.002z"/>
		</g>
		<g>
			<path style="fill:#00B7E5;" d="M72.896,85.002l3.532-15.605c0,0,1.16,3.934,0.185,8.244
				C75.637,81.952,72.896,85.002,72.896,85.002z"/>
		</g>
	</g>
</g>
<g id="Green" style="display:none;">
	<g style="display:inline;">
		<g>
			<path style="fill:#FFFFFF;" d="M45.484,81.491L65.99,60.985c3.124-3.125,3.124-8.19,0-11.313l-0.707-0.708l21.719-21.72v-4.242
				H82.76L61.041,44.722l-0.707-0.707c-3.125-3.124-8.19-3.124-11.314,0L28.514,64.521c-0.781,0.781-0.781,2.047,0,2.829
				c0.781,0.781,2.047,0.781,2.828,0L44.07,54.621l4.242,4.243L35.585,71.592c-0.781,0.781-0.781,2.047,0,2.829
				c0.78,0.781,2.047,0.781,2.828,0l12.728-12.728l4.243,4.243L42.656,78.663c-0.781,0.781-0.781,2.047,0,2.828
				C43.437,82.272,44.703,82.272,45.484,81.491z"/>
		</g>
		<g>
			<path style="fill:#D7FCF9;" d="M42.656,78.663c-0.781,0.781-0.781,2.047,0,2.828c0.781,0.781,2.047,0.781,2.828,0L65.99,60.985
				c3.124-3.125,3.124-8.19,0-11.313l-0.707-0.708l21.719-21.72v-4.242H86.78L35.484,74.298c0.035,0.04,0.062,0.084,0.101,0.123
				c0.78,0.781,2.047,0.781,2.828,0l12.728-12.728l4.243,4.243L42.656,78.663z"/>
		</g>
		<g>
			<g>
				<path style="fill:#00B8A5;" d="M28.51,23.708c4.581-1.929,9.858,0.221,11.788,4.802c7.78,18.479,24.508,35.338,40.678,40.998
					c4.691,1.642,7.163,6.776,5.521,11.468c-1.642,4.691-6.776,7.164-11.468,5.521c-24.182-8.463-43.2-31.713-51.322-51.002
					C21.777,30.909,23.934,25.635,28.51,23.708z"/>
			</g>
		</g>
		<g>
			<path style="fill:#009687;" d="M31.003,46.002c0,0-0.08-4.1,2-8c2.08-3.9,5.529-6.118,5.529-6.118s0.08,4.1-2,8
				C34.452,43.785,31.003,46.002,31.003,46.002z"/>
		</g>
		<g>
			<path style="fill:#00D6C1;" d="M31.003,46.002l7.529-14.118c0,0,0.08,4.1-2,8C34.452,43.785,31.003,46.002,31.003,46.002z"/>
		</g>
		<g>
			<path style="fill:#009687;" d="M41.942,61.002c0,0,0.178-4.097,2.498-7.859c2.32-3.762,5.902-5.759,5.902-5.759
				s-0.178,4.097-2.498,7.859C45.524,59.005,41.942,61.002,41.942,61.002z"/>
		</g>
		<g>
			<path style="fill:#00D6C1;" d="M41.942,61.002l8.4-13.618c0,0-0.178,4.097-2.498,7.859
				C45.524,59.005,41.942,61.002,41.942,61.002z"/>
		</g>
		<g>
			<path style="fill:#009687;" d="M56.647,75.066c0,0-0.713-4.039,0.738-8.213c1.452-4.175,4.517-6.899,4.517-6.899
				s0.714,4.038-0.738,8.213C59.713,72.341,56.647,75.066,56.647,75.066z"/>
		</g>
		<g>
			<path style="fill:#00D6C1;" d="M56.647,75.066l5.255-15.112c0,0,0.714,4.038-0.738,8.213
				C59.713,72.341,56.647,75.066,56.647,75.066z"/>
		</g>
		<g>
			<path style="fill:#009687;" d="M72.896,85.002c0,0-1.16-3.933-0.185-8.244c0.976-4.311,3.717-7.361,3.717-7.361
				s1.16,3.934,0.185,8.244C75.637,81.952,72.896,85.002,72.896,85.002z"/>
		</g>
		<g>
			<path style="fill:#00D6C1;" d="M72.896,85.002l3.532-15.605c0,0,1.16,3.934,0.185,8.244
				C75.637,81.952,72.896,85.002,72.896,85.002z"/>
		</g>
	</g>
</g>
<g id="R-Green" style="display:none;">
	<circle style="display:inline;fill:#77E0C4;" cx="55" cy="55" r="55"/>
	<g style="display:inline;">
		<g>
			<path style="fill:#FFFFFF;" d="M45.484,81.491L65.99,60.985c3.124-3.125,3.124-8.189,0-11.313l-0.707-0.708l21.719-21.72v-4.242
				H82.76L61.041,44.722l-0.707-0.707c-3.125-3.124-8.19-3.124-11.314,0L28.514,64.521c-0.781,0.781-0.781,2.047,0,2.829
				c0.781,0.781,2.047,0.781,2.828,0L44.07,54.621l4.242,4.243L35.585,71.592c-0.781,0.781-0.781,2.047,0,2.829
				c0.78,0.781,2.047,0.781,2.828,0l12.727-12.728l4.243,4.243L42.656,78.663c-0.781,0.781-0.781,2.047,0,2.828
				C43.438,82.272,44.703,82.272,45.484,81.491z"/>
		</g>
		<g>
			<path style="fill:#D7FCF9;" d="M42.656,78.663c-0.781,0.781-0.781,2.047,0,2.828c0.781,0.781,2.047,0.781,2.828,0L65.99,60.985
				c3.124-3.125,3.124-8.189,0-11.313l-0.707-0.708l21.719-21.72v-4.242H86.78L35.484,74.298c0.035,0.04,0.062,0.084,0.101,0.123
				c0.78,0.781,2.047,0.781,2.828,0l12.727-12.728l4.243,4.243L42.656,78.663z"/>
		</g>
		<g>
			<g>
				<path style="fill:#00B8A5;" d="M28.51,23.708c4.581-1.929,9.858,0.221,11.788,4.802c7.78,18.479,24.508,35.338,40.678,40.998
					c4.691,1.642,7.163,6.776,5.521,11.468c-1.642,4.691-6.776,7.164-11.468,5.521c-24.182-8.463-43.2-31.713-51.322-51.002
					C21.777,30.909,23.934,25.635,28.51,23.708z"/>
			</g>
		</g>
		<g>
			<path style="fill:#009687;" d="M31.003,46.002c0,0-0.08-4.1,2-8c2.08-3.9,5.529-6.118,5.529-6.118s0.08,4.1-2,8
				C34.452,43.785,31.003,46.002,31.003,46.002z"/>
		</g>
		<g>
			<path style="fill:#00D6C1;" d="M31.003,46.002l7.529-14.118c0,0,0.08,4.1-2,8C34.452,43.785,31.003,46.002,31.003,46.002z"/>
		</g>
		<g>
			<path style="fill:#009687;" d="M41.942,61.002c0,0,0.178-4.097,2.498-7.859c2.32-3.762,5.902-5.759,5.902-5.759
				s-0.178,4.097-2.498,7.859C45.524,59.005,41.942,61.002,41.942,61.002z"/>
		</g>
		<g>
			<path style="fill:#00D6C1;" d="M41.942,61.002l8.4-13.618c0,0-0.178,4.097-2.498,7.859
				C45.524,59.005,41.942,61.002,41.942,61.002z"/>
		</g>
		<g>
			<path style="fill:#009687;" d="M56.647,75.066c0,0-0.713-4.039,0.738-8.213c1.452-4.175,4.517-6.899,4.517-6.899
				s0.714,4.038-0.738,8.213C59.713,72.341,56.647,75.066,56.647,75.066z"/>
		</g>
		<g>
			<path style="fill:#00D6C1;" d="M56.647,75.066l5.255-15.112c0,0,0.714,4.038-0.738,8.213
				C59.713,72.341,56.647,75.066,56.647,75.066z"/>
		</g>
		<g>
			<path style="fill:#009687;" d="M72.896,85.002c0,0-1.16-3.933-0.185-8.244c0.976-4.311,3.717-7.361,3.717-7.361
				s1.16,3.934,0.185,8.244C75.637,81.952,72.896,85.002,72.896,85.002z"/>
		</g>
		<g>
			<path style="fill:#00D6C1;" d="M72.896,85.002l3.532-15.605c0,0,1.16,3.934,0.185,8.244
				C75.637,81.952,72.896,85.002,72.896,85.002z"/>
		</g>
	</g>
</g>
<g id="Red" style="display:none;">
	<g style="display:inline;">
		<g>
			<path style="fill:#FFFFFF;" d="M45.484,81.491L65.99,60.985c3.124-3.125,3.124-8.19,0-11.313l-0.707-0.708l21.719-21.72v-4.242
				H82.76L61.041,44.722l-0.707-0.707c-3.125-3.124-8.19-3.124-11.315,0L28.514,64.521c-0.781,0.781-0.781,2.047,0,2.829
				c0.781,0.781,2.047,0.781,2.828,0L44.07,54.621l4.242,4.243L35.585,71.592c-0.781,0.781-0.781,2.047,0,2.829
				c0.78,0.781,2.047,0.781,2.828,0l12.728-12.728l4.243,4.243L42.656,78.663c-0.781,0.781-0.781,2.047,0,2.828
				C43.437,82.272,44.703,82.272,45.484,81.491z"/>
		</g>
		<g>
			<path style="fill:#FFEFED;" d="M42.656,78.663c-0.781,0.781-0.781,2.047,0,2.828c0.781,0.781,2.047,0.781,2.828,0L65.99,60.985
				c3.124-3.125,3.124-8.19,0-11.313l-0.707-0.708l21.719-21.72v-4.242H86.78L35.484,74.298c0.035,0.04,0.062,0.084,0.101,0.123
				c0.78,0.781,2.047,0.781,2.828,0l12.728-12.728l4.243,4.243L42.656,78.663z"/>
		</g>
		<g>
			<g>
				<path style="fill:#E54B44;" d="M28.51,23.708c4.581-1.929,9.858,0.221,11.788,4.802c7.78,18.479,24.508,35.338,40.678,40.998
					c4.691,1.642,7.163,6.776,5.522,11.468c-1.642,4.691-6.776,7.164-11.468,5.521c-24.182-8.463-43.2-31.713-51.322-51.002
					C21.777,30.909,23.934,25.635,28.51,23.708z"/>
			</g>
		</g>
		<g>
			<path style="fill:#C23023;" d="M31.003,46.002c0,0-0.08-4.1,2-8c2.08-3.9,5.529-6.118,5.529-6.118s0.08,4.1-2,8
				C34.452,43.785,31.003,46.002,31.003,46.002z"/>
		</g>
		<g>
			<path style="fill:#FF6C5E;" d="M31.003,46.002l7.529-14.118c0,0,0.08,4.1-2,8C34.452,43.785,31.003,46.002,31.003,46.002z"/>
		</g>
		<g>
			<path style="fill:#C23023;" d="M41.942,61.002c0,0,0.178-4.097,2.498-7.859c2.32-3.762,5.902-5.759,5.902-5.759
				s-0.178,4.097-2.498,7.859C45.524,59.005,41.942,61.002,41.942,61.002z"/>
		</g>
		<g>
			<path style="fill:#FF6C5E;" d="M41.942,61.002l8.4-13.618c0,0-0.178,4.097-2.498,7.859
				C45.524,59.005,41.942,61.002,41.942,61.002z"/>
		</g>
		<g>
			<path style="fill:#C23023;" d="M56.647,75.066c0,0-0.713-4.039,0.738-8.213c1.452-4.175,4.517-6.899,4.517-6.899
				s0.714,4.038-0.738,8.213C59.713,72.341,56.647,75.066,56.647,75.066z"/>
		</g>
		<g>
			<path style="fill:#FF6C5E;" d="M56.647,75.066l5.255-15.112c0,0,0.714,4.038-0.738,8.213
				C59.713,72.341,56.647,75.066,56.647,75.066z"/>
		</g>
		<g>
			<path style="fill:#C23023;" d="M72.896,85.002c0,0-1.16-3.933-0.185-8.244c0.976-4.311,3.717-7.361,3.717-7.361
				s1.16,3.934,0.185,8.244C75.637,81.952,72.896,85.002,72.896,85.002z"/>
		</g>
		<g>
			<path style="fill:#FF6C5E;" d="M72.896,85.002l3.532-15.605c0,0,1.16,3.934,0.185,8.244
				C75.637,81.952,72.896,85.002,72.896,85.002z"/>
		</g>
	</g>
</g>
<g id="R-Red" style="display:none;">
	<circle style="display:inline;fill:#FABBAF;" cx="55" cy="55" r="55"/>
	<g style="display:inline;">
		<g>
			<path style="fill:#FFFFFF;" d="M45.484,81.491L65.99,60.985c3.124-3.125,3.124-8.19,0-11.313l-0.707-0.708l21.719-21.72v-4.242
				H82.76L61.041,44.722l-0.707-0.707c-3.125-3.124-8.19-3.124-11.315,0L28.514,64.521c-0.781,0.781-0.781,2.047,0,2.829
				c0.781,0.781,2.047,0.781,2.828,0L44.07,54.621l4.242,4.243L35.585,71.592c-0.781,0.781-0.781,2.047,0,2.829
				c0.78,0.781,2.047,0.781,2.828,0l12.728-12.728l4.243,4.243L42.656,78.663c-0.781,0.781-0.781,2.047,0,2.828
				C43.437,82.272,44.703,82.272,45.484,81.491z"/>
		</g>
		<g>
			<path style="fill:#FFEFED;" d="M42.656,78.663c-0.781,0.781-0.781,2.047,0,2.828c0.781,0.781,2.047,0.781,2.828,0L65.99,60.985
				c3.124-3.125,3.124-8.19,0-11.313l-0.707-0.708l21.719-21.72v-4.242H86.78L35.484,74.298c0.035,0.04,0.062,0.084,0.101,0.123
				c0.78,0.781,2.047,0.781,2.828,0l12.728-12.728l4.243,4.243L42.656,78.663z"/>
		</g>
		<g>
			<g>
				<path style="fill:#E54B44;" d="M28.51,23.708c4.581-1.929,9.858,0.221,11.788,4.802c7.78,18.479,24.508,35.338,40.678,40.998
					c4.691,1.642,7.163,6.776,5.522,11.468c-1.642,4.691-6.776,7.164-11.468,5.521c-24.182-8.463-43.2-31.713-51.322-51.002
					C21.777,30.909,23.934,25.635,28.51,23.708z"/>
			</g>
		</g>
		<g>
			<path style="fill:#C23023;" d="M31.003,46.002c0,0-0.08-4.1,2-8c2.08-3.9,5.529-6.118,5.529-6.118s0.08,4.1-2,8
				C34.452,43.785,31.003,46.002,31.003,46.002z"/>
		</g>
		<g>
			<path style="fill:#FF6C5E;" d="M31.003,46.002l7.529-14.118c0,0,0.08,4.1-2,8C34.452,43.785,31.003,46.002,31.003,46.002z"/>
		</g>
		<g>
			<path style="fill:#C23023;" d="M41.942,61.002c0,0,0.178-4.097,2.498-7.859c2.32-3.762,5.902-5.759,5.902-5.759
				s-0.178,4.097-2.498,7.859C45.524,59.005,41.942,61.002,41.942,61.002z"/>
		</g>
		<g>
			<path style="fill:#FF6C5E;" d="M41.942,61.002l8.4-13.618c0,0-0.178,4.097-2.498,7.859
				C45.524,59.005,41.942,61.002,41.942,61.002z"/>
		</g>
		<g>
			<path style="fill:#C23023;" d="M56.647,75.066c0,0-0.713-4.039,0.738-8.213c1.452-4.175,4.517-6.899,4.517-6.899
				s0.714,4.038-0.738,8.213C59.713,72.341,56.647,75.066,56.647,75.066z"/>
		</g>
		<g>
			<path style="fill:#FF6C5E;" d="M56.647,75.066l5.255-15.112c0,0,0.714,4.038-0.738,8.213
				C59.713,72.341,56.647,75.066,56.647,75.066z"/>
		</g>
		<g>
			<path style="fill:#C23023;" d="M72.896,85.002c0,0-1.16-3.933-0.185-8.244c0.976-4.311,3.717-7.361,3.717-7.361
				s1.16,3.934,0.185,8.244C75.637,81.952,72.896,85.002,72.896,85.002z"/>
		</g>
		<g>
			<path style="fill:#FF6C5E;" d="M72.896,85.002l3.532-15.605c0,0,1.16,3.934,0.185,8.244
				C75.637,81.952,72.896,85.002,72.896,85.002z"/>
		</g>
	</g>
</g>
<g id="Yellow" style="display:none;">
	<g style="display:inline;">
		<g>
			<path style="fill:#FFFFFF;" d="M45.484,81.491L65.99,60.985c3.124-3.125,3.124-8.189,0-11.313l-0.707-0.708l21.719-21.72v-4.242
				H82.76L61.041,44.722l-0.707-0.707c-3.125-3.124-8.19-3.124-11.314,0L28.514,64.521c-0.781,0.781-0.781,2.047,0,2.829
				c0.781,0.781,2.047,0.781,2.828,0L44.07,54.621l4.242,4.243L35.585,71.592c-0.781,0.781-0.781,2.047,0,2.829
				c0.78,0.781,2.047,0.781,2.828,0l12.727-12.728l4.243,4.243L42.656,78.663c-0.781,0.781-0.781,2.047,0,2.828
				C43.438,82.272,44.703,82.272,45.484,81.491z"/>
		</g>
		<g>
			<path style="fill:#FFF5D9;" d="M42.656,78.663c-0.781,0.781-0.781,2.047,0,2.828c0.781,0.781,2.047,0.781,2.828,0L65.99,60.985
				c3.124-3.125,3.124-8.189,0-11.313l-0.707-0.708l21.719-21.72v-4.242H86.78L35.484,74.298c0.035,0.04,0.062,0.084,0.101,0.123
				c0.78,0.781,2.047,0.781,2.828,0l12.727-12.728l4.243,4.243L42.656,78.663z"/>
		</g>
		<g>
			<g>
				<path style="fill:#FA9200;" d="M28.51,23.708c4.581-1.929,9.858,0.221,11.788,4.802c7.78,18.479,24.508,35.338,40.678,40.998
					c4.691,1.642,7.163,6.776,5.521,11.468c-1.642,4.691-6.776,7.164-11.468,5.521c-24.182-8.463-43.2-31.713-51.322-51.002
					C21.777,30.909,23.934,25.635,28.51,23.708z"/>
			</g>
		</g>
		<g>
			<path style="fill:#E07000;" d="M31.003,46.002c0,0-0.08-4.1,2-8c2.08-3.9,5.529-6.118,5.529-6.118s0.08,4.1-2,8
				C34.452,43.785,31.003,46.002,31.003,46.002z"/>
		</g>
		<g>
			<path style="fill:#FFAA00;" d="M31.003,46.002l7.529-14.118c0,0,0.08,4.1-2,8C34.452,43.785,31.003,46.002,31.003,46.002z"/>
		</g>
		<g>
			<path style="fill:#E07000;" d="M41.942,61.002c0,0,0.178-4.097,2.498-7.859c2.32-3.762,5.902-5.759,5.902-5.759
				s-0.178,4.097-2.498,7.859C45.524,59.005,41.942,61.002,41.942,61.002z"/>
		</g>
		<g>
			<path style="fill:#FFAA00;" d="M41.942,61.002l8.4-13.618c0,0-0.178,4.097-2.498,7.859
				C45.524,59.005,41.942,61.002,41.942,61.002z"/>
		</g>
		<g>
			<path style="fill:#E07000;" d="M56.647,75.066c0,0-0.713-4.039,0.738-8.213c1.452-4.175,4.517-6.899,4.517-6.899
				s0.714,4.038-0.738,8.213C59.713,72.341,56.647,75.066,56.647,75.066z"/>
		</g>
		<g>
			<path style="fill:#FFAA00;" d="M56.647,75.066l5.255-15.112c0,0,0.714,4.038-0.738,8.213
				C59.713,72.341,56.647,75.066,56.647,75.066z"/>
		</g>
		<g>
			<path style="fill:#E07000;" d="M72.896,85.002c0,0-1.16-3.933-0.185-8.244c0.976-4.311,3.717-7.361,3.717-7.361
				s1.16,3.934,0.185,8.244C75.637,81.952,72.896,85.002,72.896,85.002z"/>
		</g>
		<g>
			<path style="fill:#FFAA00;" d="M72.896,85.002l3.532-15.605c0,0,1.16,3.934,0.185,8.244
				C75.637,81.952,72.896,85.002,72.896,85.002z"/>
		</g>
	</g>
</g>
<g id="R-Yellow" style="display:none;">
	<circle style="display:inline;fill:#FFD75E;" cx="55" cy="55" r="55"/>
	<g style="display:inline;">
		<g>
			<path style="fill:#FFFFFF;" d="M45.484,81.491L65.99,60.985c3.124-3.125,3.124-8.189,0-11.313l-0.707-0.708l21.719-21.72v-4.242
				H82.76L61.041,44.722l-0.707-0.707c-3.125-3.124-8.19-3.124-11.314,0L28.514,64.521c-0.781,0.781-0.781,2.047,0,2.829
				c0.781,0.781,2.047,0.781,2.828,0L44.07,54.621l4.242,4.243L35.585,71.592c-0.781,0.781-0.781,2.047,0,2.829
				c0.78,0.781,2.047,0.781,2.828,0l12.728-12.728l4.243,4.243L42.656,78.663c-0.781,0.781-0.781,2.047,0,2.828
				C43.437,82.272,44.703,82.272,45.484,81.491z"/>
		</g>
		<g>
			<path style="fill:#FFF5D9;" d="M42.656,78.663c-0.781,0.781-0.781,2.047,0,2.828c0.781,0.781,2.047,0.781,2.828,0L65.99,60.985
				c3.124-3.125,3.124-8.189,0-11.313l-0.707-0.708l21.719-21.72v-4.242H86.78L35.484,74.298c0.035,0.04,0.062,0.084,0.101,0.123
				c0.78,0.781,2.047,0.781,2.828,0l12.728-12.728l4.243,4.243L42.656,78.663z"/>
		</g>
		<g>
			<g>
				<path style="fill:#FA9200;" d="M28.51,23.708c4.581-1.929,9.858,0.221,11.788,4.802c7.78,18.479,24.508,35.338,40.678,40.998
					c4.691,1.642,7.163,6.776,5.521,11.468c-1.642,4.691-6.776,7.164-11.468,5.521c-24.182-8.463-43.2-31.713-51.322-51.002
					C21.777,30.909,23.934,25.635,28.51,23.708z"/>
			</g>
		</g>
		<g>
			<path style="fill:#E07000;" d="M31.003,46.002c0,0-0.08-4.1,2-8c2.08-3.9,5.529-6.118,5.529-6.118s0.08,4.1-2,8
				C34.452,43.785,31.003,46.002,31.003,46.002z"/>
		</g>
		<g>
			<path style="fill:#FFAA00;" d="M31.003,46.002l7.529-14.118c0,0,0.08,4.1-2,8C34.452,43.785,31.003,46.002,31.003,46.002z"/>
		</g>
		<g>
			<path style="fill:#E07000;" d="M41.942,61.002c0,0,0.178-4.097,2.498-7.859c2.32-3.762,5.902-5.759,5.902-5.759
				s-0.178,4.097-2.498,7.859C45.524,59.005,41.942,61.002,41.942,61.002z"/>
		</g>
		<g>
			<path style="fill:#FFAA00;" d="M41.942,61.002l8.4-13.618c0,0-0.178,4.097-2.498,7.859
				C45.524,59.005,41.942,61.002,41.942,61.002z"/>
		</g>
		<g>
			<path style="fill:#E07000;" d="M56.647,75.066c0,0-0.713-4.039,0.738-8.213c1.452-4.175,4.517-6.899,4.517-6.899
				s0.714,4.038-0.738,8.213C59.713,72.341,56.647,75.066,56.647,75.066z"/>
		</g>
		<g>
			<path style="fill:#FFAA00;" d="M56.647,75.066l5.255-15.112c0,0,0.714,4.038-0.738,8.213
				C59.713,72.341,56.647,75.066,56.647,75.066z"/>
		</g>
		<g>
			<path style="fill:#E07000;" d="M72.896,85.002c0,0-1.16-3.933-0.185-8.244c0.976-4.311,3.717-7.361,3.717-7.361
				s1.16,3.934,0.185,8.244C75.637,81.952,72.896,85.002,72.896,85.002z"/>
		</g>
		<g>
			<path style="fill:#FFAA00;" d="M72.896,85.002l3.532-15.605c0,0,1.16,3.934,0.185,8.244
				C75.637,81.952,72.896,85.002,72.896,85.002z"/>
		</g>
	</g>
</g>
</svg>
