<?xml version="1.0" encoding="iso-8859-1"?>
<!-- Generator: Adobe Illustrator 17.1.0, SVG Export Plug-In . SVG Version: 6.00 Build 0)  -->
<!DOCTYPE svg PUBLIC "-//W3C//DTD SVG 1.0//EN" "http://www.w3.org/TR/2001/REC-SVG-20010904/DTD/svg10.dtd">
<svg version="1.0" xmlns="http://www.w3.org/2000/svg" xmlns:xlink="http://www.w3.org/1999/xlink" x="0px" y="0px" width="110px"
	 height="110px" viewBox="0 0 110 110" style="enable-background:new 0 0 110 110;" xml:space="preserve">
<g id="Artboard">
</g>
<g id="Multicolor">
	<circle style="fill:#25B7D3;" cx="55" cy="55" r="55"/>
	<g>
		<g>
			<path style="fill:#E2E4E5;" d="M82.458,31.198l4.417-0.011l-0.301-4.301c-2.44-2.44-1.303-1.303-3.699-3.699l-47,35l6.66,9.65
				l5.877,8.517l2.876-0.18l-0.795-4.731l4.792-0.302l-0.792-4.736l4.791-0.299l-0.792-4.736l4.79-0.299l-0.792-4.735l4.789-0.297
				l-0.792-4.735l4.789-0.297l-0.796-4.73l4.789-0.298l-0.793-4.732l4.786-0.294l-0.798-4.728l4.787-0.294L82.458,31.198z"/>
		</g>
		<g>
			<polygon style="fill:#FFFFFF;" points="82.875,23.187 35.875,58.187 42.535,67.838 85.03,25.343 			"/>
		</g>
		<g>
			<path style="fill:#84462D;" d="M48.488,75.949c-0.118-0.355-3.402-10.25-3.552-10.575c-0.099-0.215-0.223-0.418-0.392-0.586
				l-6.252-6.252c-0.781-0.781-2.047-0.781-2.828,0L23.586,70.414c-0.781,0.781-0.781,2.047,0,2.829l1.586,1.585
				c0.552,0.552,1.448,0.552,2,0s1.448-0.552,2,0l3.155,3.155l2.845,2.845c0.552,0.552,0.552,1.448,0,2s-0.552,1.448,0,2
				l1.586,1.586c0.781,0.781,2.047,0.781,2.828,0l8.419-8.419C48.541,77.459,48.728,76.667,48.488,75.949z M41.985,78.441
				c-1.831,0.611-3.815-0.378-4.427-2.213c-0.3-0.9-0.715-1.626-1.257-2.219c-0.642-0.701-1.465-1.212-2.529-1.567
				c-1.834-0.611-2.825-2.593-2.214-4.427c0.611-1.833,2.593-2.826,4.427-2.213c2.091,0.697,3.853,1.805,5.26,3.264
				c1.306,1.354,2.307,3.01,2.954,4.95C44.811,75.848,43.819,77.83,41.985,78.441z"/>
		</g>
		<g>
			<path style="fill:#9C6144;" d="M33.772,72.441c-1.834-0.611-2.825-2.593-2.214-4.427c0.611-1.833,2.593-2.826,4.427-2.213
				c2.091,0.697,3.853,1.805,5.26,3.264l3.691-3.691c-0.099-0.215-0.223-0.418-0.392-0.586l-6.252-6.252
				c-0.781-0.781-2.047-0.781-2.828,0L23.586,70.414c-0.781,0.781-0.781,2.047,0,2.829l1.586,1.585c0.552,0.552,1.448,0.552,2,0
				s1.448-0.552,2,0l3.155,3.155l3.974-3.975C35.66,73.308,34.836,72.796,33.772,72.441z"/>
		</g>
	</g>
</g>
</svg>
