<?xml version="1.0" encoding="iso-8859-1"?>
<!-- Generator: Adobe Illustrator 17.1.0, SVG Export Plug-In . SVG Version: 6.00 Build 0)  -->
<!DOCTYPE svg PUBLIC "-//W3C//DTD SVG 1.0//EN" "http://www.w3.org/TR/2001/REC-SVG-20010904/DTD/svg10.dtd">
<svg version="1.0" xmlns="http://www.w3.org/2000/svg" xmlns:xlink="http://www.w3.org/1999/xlink" x="0px" y="0px" width="110px"
	 height="110px" viewBox="0 0 110 110" style="enable-background:new 0 0 110 110;" xml:space="preserve">
<g id="Artboard" style="display:none;">
	
		<rect x="-584.5" y="-930.5" style="display:inline;fill:#808080;stroke:#000000;stroke-miterlimit:10;" width="1392" height="1369"/>
</g>
<g id="R-Multicolor">
	<circle style="fill:#FABC3D;" cx="55" cy="55" r="55"/>
	<g>
		<g>
			<path style="fill:#DF2C2C;" d="M85.75,84.188l-14.222-32C71.207,51.465,70.491,51,69.7,51H65v-5.52
				c-1.311,0.399-2.648,0.71-4,0.955V51H49v-4.565c-1.352-0.244-2.689-0.556-4-0.955V51h-4.7c-0.791,0-1.507,0.465-1.828,1.188
				l-14.222,32c-0.275,0.619-0.218,1.334,0.151,1.902s1,0.91,1.677,0.91h57.845c0.677,0,1.308-0.343,1.677-0.91
				S86.025,84.806,85.75,84.188z"/>
		</g>
		<g>
			<path style="fill:#FA5655;" d="M55,51H40.3c-0.791,0-1.507,0.465-1.828,1.188l-14.222,32c-0.275,0.619-0.218,1.334,0.151,1.902
				s1,0.91,1.677,0.91H55V51z"/>
		</g>
		<g>
			<path style="fill:#3E3E3F;" d="M25,23c-0.649,0-1.258,0.315-1.633,0.845s-0.469,1.209-0.253,1.822C27.507,38.096,41.067,47,55,47
				s27.493-8.904,31.886-21.333c0.216-0.612,0.122-1.291-0.253-1.821S85.649,23,85,23H25z"/>
		</g>
		<g>
			<path style="fill:#5B5C5F;" d="M25,23c-0.649,0-1.258,0.315-1.633,0.845c-0.375,0.53-0.469,1.209-0.252,1.822
				C27.507,38.096,41.067,47,55,47V23H25z"/>
		</g>
		<g>
			<path style="fill:#F0F1F1;" d="M69,69c0,7.708-6.248,14-14,14c-7.708,0-14-6.248-14-14c0-7.766,6.306-14,14-14
				C62.701,55,69,61.241,69,69z"/>
		</g>
		<g>
			<path style="fill:#FFFFFF;" d="M41,69c0,7.708,6.248,14,14,14V55C47.299,55,41,61.241,41,69z"/>
		</g>
		<g>
			<path style="fill:#3E3E3F;" d="M58,69.667c0-0.962-1.671-6.986-2.519-9.981c-0.061-0.215-0.257-0.364-0.481-0.364
				c-0.224,0-0.421,0.148-0.481,0.363C53.671,62.68,52,68.705,52,69.667C52,70.955,53.343,72,55,72C56.657,72,58,70.955,58,69.667z"
				/>
		</g>
	</g>
</g>
<g id="Multicolor" style="display:none;">
	<g style="display:inline;">
		<g>
			<path style="fill:#DF2C2C;" d="M85.75,84.188l-14.222-32C71.207,51.465,70.491,51,69.7,51H65v-5.52
				c-1.311,0.399-2.648,0.71-4,0.955V51H49v-4.565c-1.352-0.244-2.689-0.556-4-0.955V51h-4.7c-0.791,0-1.507,0.465-1.828,1.188
				l-14.222,32c-0.275,0.619-0.218,1.334,0.151,1.902s1,0.91,1.677,0.91h57.845c0.677,0,1.308-0.343,1.677-0.91
				S86.025,84.806,85.75,84.188z"/>
		</g>
		<g>
			<path style="fill:#FA5655;" d="M55,51H40.3c-0.791,0-1.507,0.465-1.828,1.188l-14.222,32c-0.275,0.619-0.218,1.334,0.151,1.902
				s1,0.91,1.677,0.91H55V51z"/>
		</g>
		<g>
			<path style="fill:#3E3E3F;" d="M25,23c-0.649,0-1.258,0.315-1.633,0.845s-0.469,1.209-0.253,1.822C27.507,38.096,41.067,47,55,47
				s27.493-8.904,31.886-21.333c0.216-0.612,0.122-1.291-0.253-1.821S85.649,23,85,23H25z"/>
		</g>
		<g>
			<path style="fill:#5B5C5F;" d="M25,23c-0.649,0-1.258,0.315-1.633,0.845c-0.375,0.53-0.469,1.209-0.252,1.822
				C27.507,38.096,41.067,47,55,47V23H25z"/>
		</g>
		<g>
			<path style="fill:#F0F1F1;" d="M69,69c0,7.708-6.248,14-14,14c-7.708,0-14-6.248-14-14c0-7.766,6.306-14,14-14
				C62.701,55,69,61.241,69,69z"/>
		</g>
		<g>
			<path style="fill:#FFFFFF;" d="M41,69c0,7.708,6.248,14,14,14V55C47.299,55,41,61.241,41,69z"/>
		</g>
		<g>
			<path style="fill:#3E3E3F;" d="M58,69.667c0-0.962-1.671-6.986-2.519-9.981c-0.061-0.215-0.257-0.364-0.481-0.364
				c-0.224,0-0.421,0.148-0.481,0.363C53.671,62.68,52,68.705,52,69.667C52,70.955,53.343,72,55,72C56.657,72,58,70.955,58,69.667z"
				/>
		</g>
	</g>
</g>
<g id="Blue" style="display:none;">
	<g style="display:inline;">
		<g>
			<path style="fill:#0081A1;" d="M85.75,84.188l-14.223-32C71.207,51.465,70.49,51,69.7,51H65v-5.52
				c-1.311,0.399-2.648,0.71-4,0.955V51H49v-4.564c-1.352-0.245-2.689-0.556-4-0.955V51h-4.7c-0.79,0-1.507,0.465-1.827,1.188
				l-14.223,32c-0.275,0.619-0.219,1.334,0.15,1.902c0.369,0.568,1,0.91,1.678,0.91h57.845c0.677,0,1.308-0.342,1.677-0.91
				C85.969,85.522,86.025,84.807,85.75,84.188z"/>
		</g>
		<g>
			<path style="fill:#009FC7;" d="M55,51H40.3c-0.79,0-1.507,0.465-1.827,1.188l-14.223,32c-0.275,0.619-0.219,1.334,0.15,1.902
				c0.369,0.568,1,0.91,1.678,0.91H55V51z"/>
		</g>
		<g>
			<path style="fill:#0081A1;" d="M25,23c-0.649,0-1.258,0.315-1.633,0.846c-0.375,0.53-0.47,1.209-0.253,1.821
				C27.508,38.096,41.067,47,55,47s27.492-8.904,31.886-21.333c0.216-0.612,0.122-1.291-0.253-1.821C86.258,23.316,85.649,23,85,23
				H25z"/>
		</g>
		<g>
			<path style="fill:#009FC7;" d="M25,23c-0.649,0-1.258,0.315-1.633,0.846s-0.469,1.209-0.253,1.821C27.508,38.096,41.067,47,55,47
				V23H25z"/>
		</g>
		<g>
			<path style="fill:#E1F5FA;" d="M69,69c0,7.708-6.248,14-14,14c-7.708,0-14-6.248-14-14c0-7.766,6.306-14,14-14
				C62.701,55,69,61.241,69,69z"/>
		</g>
		<g>
			<path style="fill:#FFFFFF;" d="M41,69c0,7.708,6.248,14,14,14V55C47.299,55,41,61.241,41,69z"/>
		</g>
		<g>
			<path style="fill:#0C333D;" d="M58,69.667c0-0.962-1.671-6.986-2.519-9.981c-0.062-0.215-0.258-0.364-0.481-0.364
				c-0.224,0-0.42,0.148-0.481,0.364C53.671,62.68,52,68.705,52,69.667C52,70.956,53.343,72,55,72S58,70.956,58,69.667z"/>
		</g>
	</g>
</g>
<g id="R-Blue" style="display:none;">
	<circle style="display:inline;fill:#81D2EB;" cx="55" cy="55" r="55"/>
	<g style="display:inline;">
		<g>
			<path style="fill:#0081A1;" d="M85.75,84.188l-14.223-32C71.207,51.465,70.49,51,69.7,51H65v-5.52
				c-1.311,0.399-2.648,0.71-4,0.955V51H49v-4.564c-1.352-0.245-2.689-0.556-4-0.955V51h-4.7c-0.79,0-1.507,0.465-1.827,1.188
				l-14.223,32c-0.275,0.619-0.219,1.335,0.15,1.902c0.369,0.568,1,0.91,1.678,0.91h57.845c0.677,0,1.308-0.342,1.677-0.91
				C85.969,85.522,86.025,84.807,85.75,84.188z"/>
		</g>
		<g>
			<path style="fill:#009FC7;" d="M55,51H40.3c-0.79,0-1.507,0.465-1.827,1.188l-14.223,32c-0.275,0.619-0.219,1.335,0.15,1.902
				c0.369,0.568,1,0.91,1.678,0.91H55V51z"/>
		</g>
		<g>
			<path style="fill:#0081A1;" d="M25,23c-0.649,0-1.258,0.315-1.633,0.846c-0.375,0.53-0.47,1.209-0.253,1.821
				C27.508,38.096,41.067,47,55,47s27.492-8.904,31.886-21.333c0.216-0.612,0.122-1.291-0.253-1.821C86.258,23.316,85.649,23,85,23
				H25z"/>
		</g>
		<g>
			<path style="fill:#009FC7;" d="M25,23c-0.649,0-1.258,0.315-1.633,0.846s-0.469,1.209-0.253,1.821C27.508,38.096,41.067,47,55,47
				V23H25z"/>
		</g>
		<g>
			<path style="fill:#E1F5FA;" d="M69,69c0,7.708-6.248,14-14,14c-7.708,0-14-6.248-14-14c0-7.766,6.306-14,14-14
				C62.701,55,69,61.241,69,69z"/>
		</g>
		<g>
			<path style="fill:#FFFFFF;" d="M41,69c0,7.708,6.248,14,14,14V55C47.299,55,41,61.241,41,69z"/>
		</g>
		<g>
			<path style="fill:#0C333D;" d="M58,69.667c0-0.962-1.671-6.986-2.519-9.981c-0.062-0.215-0.258-0.364-0.481-0.364
				c-0.224,0-0.42,0.148-0.481,0.364C53.671,62.68,52,68.705,52,69.667C52,70.956,53.343,72,55,72S58,70.956,58,69.667z"/>
		</g>
	</g>
</g>
<g id="Green" style="display:none;">
	<g style="display:inline;">
		<g>
			<path style="fill:#009687;" d="M85.75,84.188l-14.223-32C71.207,51.465,70.49,51,69.7,51H65v-5.52
				c-1.311,0.399-2.648,0.71-4,0.955V51H49v-4.564c-1.352-0.245-2.689-0.556-4-0.955V51h-4.7c-0.79,0-1.507,0.465-1.827,1.188
				l-14.223,32c-0.275,0.619-0.219,1.334,0.15,1.902c0.369,0.568,1,0.91,1.678,0.91h57.845c0.677,0,1.308-0.342,1.677-0.91
				C85.969,85.522,86.025,84.807,85.75,84.188z"/>
		</g>
		<g>
			<path style="fill:#00B8A5;" d="M55,51H40.3c-0.79,0-1.507,0.465-1.827,1.188l-14.223,32c-0.275,0.619-0.219,1.334,0.15,1.902
				c0.369,0.568,1,0.91,1.678,0.91H55V51z"/>
		</g>
		<g>
			<path style="fill:#009687;" d="M25,23c-0.649,0-1.258,0.315-1.633,0.846c-0.375,0.53-0.47,1.209-0.253,1.821
				C27.508,38.096,41.067,47,55,47s27.492-8.904,31.886-21.333c0.216-0.612,0.122-1.291-0.253-1.821C86.258,23.316,85.649,23,85,23
				H25z"/>
		</g>
		<g>
			<path style="fill:#00B8A5;" d="M25,23c-0.649,0-1.258,0.315-1.633,0.846s-0.469,1.21-0.253,1.821C27.508,38.096,41.067,47,55,47
				V23H25z"/>
		</g>
		<g>
			<path style="fill:#D7FCF9;" d="M69,69c0,7.708-6.248,14-14,14c-7.708,0-14-6.248-14-14c0-7.766,6.306-14,14-14
				C62.701,55,69,61.241,69,69z"/>
		</g>
		<g>
			<path style="fill:#FFFFFF;" d="M41,69c0,7.708,6.248,14,14,14V55C47.299,55,41,61.241,41,69z"/>
		</g>
		<g>
			<path style="fill:#0A3631;" d="M58,69.667c0-0.962-1.671-6.986-2.519-9.981c-0.062-0.215-0.258-0.364-0.481-0.364
				c-0.224,0-0.42,0.148-0.481,0.364C53.671,62.68,52,68.705,52,69.667C52,70.956,53.343,72,55,72S58,70.956,58,69.667z"/>
		</g>
	</g>
</g>
<g id="R-Green" style="display:none;">
	<circle style="display:inline;fill:#77E0C4;" cx="55" cy="55" r="55"/>
	<g style="display:inline;">
		<g>
			<path style="fill:#009687;" d="M85.75,84.188l-14.223-32C71.207,51.465,70.49,51,69.7,51H65v-5.52
				c-1.311,0.399-2.648,0.71-4,0.955V51H49v-4.564c-1.352-0.245-2.689-0.556-4-0.955V51h-4.7c-0.79,0-1.507,0.465-1.827,1.188
				l-14.223,32c-0.275,0.619-0.219,1.334,0.15,1.902c0.369,0.568,1,0.91,1.678,0.91h57.845c0.677,0,1.308-0.342,1.677-0.91
				C85.969,85.522,86.025,84.807,85.75,84.188z"/>
		</g>
		<g>
			<path style="fill:#00B8A5;" d="M55,51H40.3c-0.79,0-1.507,0.465-1.827,1.188l-14.223,32c-0.275,0.619-0.219,1.334,0.15,1.902
				c0.369,0.568,1,0.91,1.678,0.91H55V51z"/>
		</g>
		<g>
			<path style="fill:#009687;" d="M25,23c-0.649,0-1.258,0.315-1.633,0.846c-0.375,0.53-0.47,1.209-0.253,1.821
				C27.508,38.096,41.067,47,55,47s27.492-8.904,31.886-21.333c0.216-0.612,0.122-1.291-0.253-1.821C86.258,23.316,85.649,23,85,23
				H25z"/>
		</g>
		<g>
			<path style="fill:#00B8A5;" d="M25,23c-0.649,0-1.258,0.315-1.633,0.846s-0.469,1.209-0.253,1.821C27.508,38.096,41.067,47,55,47
				V23H25z"/>
		</g>
		<g>
			<path style="fill:#D7FCF9;" d="M69,69c0,7.708-6.248,14-14,14c-7.708,0-14-6.248-14-14c0-7.766,6.306-14,14-14
				C62.701,55,69,61.241,69,69z"/>
		</g>
		<g>
			<path style="fill:#FFFFFF;" d="M41,69c0,7.708,6.248,14,14,14V55C47.299,55,41,61.241,41,69z"/>
		</g>
		<g>
			<path style="fill:#0A3631;" d="M58,69.667c0-0.962-1.671-6.986-2.519-9.981c-0.062-0.215-0.258-0.364-0.481-0.364
				c-0.224,0-0.42,0.148-0.481,0.364C53.671,62.68,52,68.705,52,69.667C52,70.956,53.343,72,55,72S58,70.956,58,69.667z"/>
		</g>
	</g>
</g>
<g id="Red" style="display:none;">
	<g style="display:inline;">
		<g>
			<path style="fill:#C23023;" d="M85.75,84.188l-14.223-32C71.207,51.465,70.49,51,69.7,51H65v-5.52
				c-1.311,0.399-2.648,0.71-4,0.955V51H49v-4.564c-1.352-0.245-2.69-0.556-4-0.955V51h-4.7c-0.79,0-1.507,0.465-1.827,1.188
				l-14.223,32c-0.275,0.619-0.219,1.334,0.15,1.902c0.369,0.568,1,0.91,1.678,0.91h57.845c0.677,0,1.308-0.342,1.677-0.91
				C85.969,85.522,86.025,84.807,85.75,84.188z"/>
		</g>
		<g>
			<path style="fill:#E54B44;" d="M55,51H40.3c-0.79,0-1.507,0.465-1.827,1.188l-14.223,32c-0.275,0.619-0.219,1.334,0.15,1.902
				c0.369,0.568,1,0.91,1.678,0.91H55V51z"/>
		</g>
		<g>
			<path style="fill:#C23023;" d="M25,23c-0.649,0-1.258,0.315-1.633,0.846c-0.375,0.53-0.47,1.209-0.253,1.821
				C27.508,38.096,41.067,47,55,47c13.933,0,27.492-8.904,31.886-21.333c0.216-0.612,0.122-1.291-0.253-1.821
				C86.258,23.316,85.649,23,85,23H25z"/>
		</g>
		<g>
			<path style="fill:#E54B44;" d="M25,23c-0.649,0-1.258,0.315-1.633,0.846s-0.469,1.21-0.253,1.821C27.508,38.096,41.067,47,55,47
				V23H25z"/>
		</g>
		<g>
			<path style="fill:#FFEFED;" d="M69,69c0,7.708-6.248,14-14,14c-7.708,0-14-6.248-14-14c0-7.766,6.306-14,14-14
				C62.701,55,69,61.241,69,69z"/>
		</g>
		<g>
			<path style="fill:#FFFFFF;" d="M41,69c0,7.708,6.248,14,14,14V55C47.299,55,41,61.241,41,69z"/>
		</g>
		<g>
			<path style="fill:#4A1410;" d="M58,69.667c0-0.962-1.671-6.986-2.519-9.981c-0.062-0.215-0.258-0.364-0.481-0.364
				c-0.224,0-0.42,0.148-0.481,0.364C53.671,62.68,52,68.705,52,69.667C52,70.956,53.343,72,55,72C56.657,72,58,70.956,58,69.667z"
				/>
		</g>
	</g>
</g>
<g id="R-Red" style="display:none;">
	<circle style="display:inline;fill:#FABBAF;" cx="55" cy="55" r="55"/>
	<g style="display:inline;">
		<g>
			<path style="fill:#C23023;" d="M85.75,84.188l-14.223-32C71.207,51.465,70.49,51,69.7,51H65v-5.52
				c-1.311,0.399-2.648,0.71-4,0.955V51H49v-4.564c-1.352-0.245-2.69-0.556-4-0.955V51h-4.7c-0.79,0-1.507,0.465-1.827,1.188
				l-14.223,32c-0.275,0.619-0.219,1.334,0.15,1.902c0.369,0.568,1,0.91,1.678,0.91h57.845c0.677,0,1.308-0.342,1.677-0.91
				C85.969,85.522,86.025,84.807,85.75,84.188z"/>
		</g>
		<g>
			<path style="fill:#E54B44;" d="M55,51H40.3c-0.79,0-1.507,0.465-1.827,1.188l-14.223,32c-0.275,0.619-0.219,1.334,0.15,1.902
				c0.369,0.568,1,0.91,1.678,0.91H55V51z"/>
		</g>
		<g>
			<path style="fill:#C23023;" d="M25,23c-0.649,0-1.258,0.315-1.633,0.846c-0.375,0.53-0.47,1.209-0.253,1.821
				C27.508,38.096,41.067,47,55,47c13.933,0,27.492-8.904,31.886-21.333c0.216-0.612,0.122-1.291-0.253-1.821
				C86.258,23.316,85.649,23,85,23H25z"/>
		</g>
		<g>
			<path style="fill:#E54B44;" d="M25,23c-0.649,0-1.258,0.315-1.633,0.846s-0.469,1.21-0.253,1.821C27.508,38.096,41.067,47,55,47
				V23H25z"/>
		</g>
		<g>
			<path style="fill:#FFEFED;" d="M69,69c0,7.708-6.248,14-14,14c-7.708,0-14-6.248-14-14c0-7.766,6.306-14,14-14
				C62.701,55,69,61.241,69,69z"/>
		</g>
		<g>
			<path style="fill:#FFFFFF;" d="M41,69c0,7.708,6.248,14,14,14V55C47.299,55,41,61.241,41,69z"/>
		</g>
		<g>
			<path style="fill:#4A1410;" d="M58,69.667c0-0.962-1.671-6.986-2.519-9.981c-0.062-0.215-0.258-0.364-0.481-0.364
				c-0.224,0-0.42,0.148-0.481,0.364C53.671,62.68,52,68.705,52,69.667C52,70.956,53.343,72,55,72C56.657,72,58,70.956,58,69.667z"
				/>
		</g>
	</g>
</g>
<g id="Yellow" style="display:none;">
	<g style="display:inline;">
		<g>
			<path style="fill:#E07000;" d="M85.75,84.188l-14.223-32C71.207,51.465,70.49,51,69.7,51H65v-5.52
				c-1.311,0.399-2.648,0.71-4,0.955V51H49v-4.564c-1.352-0.245-2.689-0.556-4-0.955V51h-4.7c-0.79,0-1.507,0.465-1.827,1.188
				l-14.223,32c-0.275,0.619-0.219,1.334,0.15,1.902c0.369,0.568,1,0.91,1.678,0.91h57.845c0.677,0,1.308-0.342,1.677-0.91
				C85.969,85.522,86.025,84.807,85.75,84.188z"/>
		</g>
		<g>
			<path style="fill:#FA9200;" d="M55,51H40.3c-0.79,0-1.507,0.465-1.827,1.188l-14.223,32c-0.275,0.619-0.219,1.334,0.15,1.902
				c0.369,0.568,1,0.91,1.678,0.91H55V51z"/>
		</g>
		<g>
			<path style="fill:#E07000;" d="M25,23c-0.649,0-1.258,0.315-1.633,0.846c-0.375,0.53-0.47,1.209-0.253,1.821
				C27.508,38.096,41.067,47,55,47s27.492-8.904,31.886-21.333c0.216-0.612,0.122-1.291-0.253-1.821C86.258,23.316,85.649,23,85,23
				H25z"/>
		</g>
		<g>
			<path style="fill:#FA9200;" d="M25,23c-0.649,0-1.258,0.315-1.633,0.846s-0.469,1.209-0.253,1.821C27.508,38.096,41.067,47,55,47
				V23H25z"/>
		</g>
		<g>
			<path style="fill:#FFF5D9;" d="M69,69c0,7.708-6.248,14-14,14c-7.708,0-14-6.248-14-14c0-7.766,6.306-14,14-14
				C62.701,55,69,61.241,69,69z"/>
		</g>
		<g>
			<path style="fill:#FFFFFF;" d="M41,69c0,7.708,6.248,14,14,14V55C47.299,55,41,61.241,41,69z"/>
		</g>
		<g>
			<path style="fill:#3D320C;" d="M58,69.667c0-0.962-1.671-6.986-2.519-9.981c-0.062-0.215-0.258-0.364-0.481-0.364
				c-0.224,0-0.42,0.148-0.481,0.364C53.671,62.68,52,68.705,52,69.667C52,70.956,53.343,72,55,72S58,70.956,58,69.667z"/>
		</g>
	</g>
</g>
<g id="R-Yellow" style="display:none;">
	<circle style="display:inline;fill:#FFD75E;" cx="55" cy="55" r="55"/>
	<g style="display:inline;">
		<g>
			<path style="fill:#E07000;" d="M85.75,84.188l-14.223-32C71.207,51.465,70.49,51,69.7,51H65v-5.52
				c-1.311,0.399-2.648,0.71-4,0.955V51H49v-4.564c-1.352-0.245-2.689-0.556-4-0.955V51h-4.7c-0.79,0-1.507,0.465-1.827,1.188
				l-14.223,32c-0.275,0.619-0.219,1.334,0.15,1.902c0.369,0.568,1,0.91,1.678,0.91h57.845c0.677,0,1.308-0.342,1.677-0.91
				C85.969,85.522,86.025,84.807,85.75,84.188z"/>
		</g>
		<g>
			<path style="fill:#FA9200;" d="M55,51H40.3c-0.79,0-1.507,0.465-1.827,1.188l-14.223,32c-0.275,0.619-0.219,1.334,0.15,1.902
				c0.369,0.568,1,0.91,1.678,0.91H55V51z"/>
		</g>
		<g>
			<path style="fill:#E07000;" d="M25,23c-0.649,0-1.258,0.315-1.633,0.846c-0.375,0.53-0.47,1.209-0.253,1.821
				C27.508,38.096,41.067,47,55,47s27.492-8.904,31.886-21.333c0.216-0.612,0.122-1.291-0.253-1.821C86.258,23.316,85.649,23,85,23
				H25z"/>
		</g>
		<g>
			<path style="fill:#FA9200;" d="M25,23c-0.649,0-1.258,0.315-1.633,0.846s-0.469,1.209-0.253,1.821C27.508,38.096,41.067,47,55,47
				V23H25z"/>
		</g>
		<g>
			<path style="fill:#FFF5D9;" d="M69,69c0,7.708-6.248,14-14,14c-7.708,0-14-6.248-14-14c0-7.766,6.306-14,14-14
				C62.701,55,69,61.241,69,69z"/>
		</g>
		<g>
			<path style="fill:#FFFFFF;" d="M41,69c0,7.708,6.248,14,14,14V55C47.299,55,41,61.241,41,69z"/>
		</g>
		<g>
			<path style="fill:#3D320C;" d="M58,69.667c0-0.962-1.671-6.986-2.519-9.981c-0.062-0.215-0.258-0.364-0.481-0.364
				c-0.224,0-0.42,0.148-0.481,0.364C53.671,62.68,52,68.705,52,69.667C52,70.956,53.343,72,55,72S58,70.956,58,69.667z"/>
		</g>
	</g>
</g>
</svg>
