<?xml version="1.0" encoding="iso-8859-1"?>
<!-- Generator: Adobe Illustrator 17.1.0, SVG Export Plug-In . SVG Version: 6.00 Build 0)  -->
<!DOCTYPE svg PUBLIC "-//W3C//DTD SVG 1.0//EN" "http://www.w3.org/TR/2001/REC-SVG-20010904/DTD/svg10.dtd">
<svg version="1.0" xmlns="http://www.w3.org/2000/svg" xmlns:xlink="http://www.w3.org/1999/xlink" x="0px" y="0px" width="110px"
	 height="110px" viewBox="0 0 110 110" style="enable-background:new 0 0 110 110;" xml:space="preserve">
<g id="Artboard">
</g>
<g id="Multicolor">
	<circle style="fill:#E04F5F;" cx="55" cy="55" r="55"/>
	<g>
		<path style="fill:#3E3E3F;" d="M85.684,33.049c-20.775-13.399-41.775-13.399-61.551,0c-0.679,0.46-1.187,1.127-1.129,1.946
			l3.771,50.148C26.851,86.189,27.721,87,28.771,87h52.276c1.049,0,1.92-0.811,1.995-1.857l3.771-50.148
			C86.871,34.177,86.373,33.494,85.684,33.049z"/>
		<g>
			<path style="fill:#5B5C5F;" d="M24.133,33.05c-0.679,0.46-1.187,1.127-1.129,1.945l2.867,38.614L72.95,26.53
				C56.389,20.218,39.873,22.385,24.133,33.05z"/>
		</g>
		<g>
			<path style="fill:#F0F1F1;" d="M26.909,35.65l4,47.35h22V47.65h4V83h22l4-47.35C64.242,24.984,45.575,24.984,26.909,35.65z"/>
		</g>
		<g>
			<path style="fill:#FFFFFF;" d="M26.909,35.65l2.84,34.082l39.867-39.867C55.38,25.592,41.144,27.515,26.909,35.65z"/>
		</g>
		<g>
			<path style="fill:#40C9E7;" d="M74.558,32.57L69.149,47c-0.14,0.39-0.52,0.65-0.93,0.65h-26.62c-0.41,0-0.79-0.26-0.93-0.65
				l-5.41-14.43c-0.2-0.51,0.06-1.09,0.58-1.28c12.71-4.85,25.43-4.85,38.14,0C74.498,31.48,74.759,32.06,74.558,32.57z"/>
		</g>
		<g>
			<path style="fill:#6FDAF1;" d="M35.839,31.29c-0.52,0.19-0.78,0.77-0.58,1.28L40.668,47c0.14,0.39,0.521,0.65,0.93,0.65H51.83
				l17.816-17.816C58.379,26.512,47.105,26.991,35.839,31.29z"/>
		</g>
		<g>
			<path style="fill:#FA5655;" d="M54.909,39.65c0.96,0,1.887,0.126,2.78,0.341l-2.78-8.341l-2.775,8.325
				C53.024,39.764,53.953,39.65,54.909,39.65z"/>
		</g>
		<g>
			<path style="fill:#3E3E3F;" d="M66.218,47.65h-22.62c1.64-4.66,6.08-8,11.31-8S64.578,42.99,66.218,47.65z"/>
		</g>
		<g>
			<path style="fill:#5B5C5F;" d="M43.598,47.65h8.232l7.247-7.247c-1.299-0.481-2.701-0.753-4.169-0.753
				C49.679,39.65,45.239,42.99,43.598,47.65z"/>
		</g>
	</g>
</g>
</svg>
