<?xml version="1.0" encoding="iso-8859-1"?>
<!-- Generator: Adobe Illustrator 17.1.0, SVG Export Plug-In . SVG Version: 6.00 Build 0)  -->
<!DOCTYPE svg PUBLIC "-//W3C//DTD SVG 1.0//EN" "http://www.w3.org/TR/2001/REC-SVG-20010904/DTD/svg10.dtd">
<svg version="1.0" xmlns="http://www.w3.org/2000/svg" xmlns:xlink="http://www.w3.org/1999/xlink" x="0px" y="0px" width="110px"
	 height="110px" viewBox="0 0 110 110" style="enable-background:new 0 0 110 110;" xml:space="preserve">
<g id="Artboard">
</g>
<g id="Multicolor">
	<circle style="fill:#32BEA6;" cx="55" cy="55" r="55"/>
	<g>
		<path style="fill:#E2E4E5;" d="M23,75h64c-0.565,6.783-6.235,12-13.042,12H36.042C29.235,87,23.565,81.783,23,75z"/>
		<path style="fill:#B6BCBD;" d="M43,75c0,0,2,6,12,6s12-6,12-6H43z"/>
		<circle style="fill:#FA5655;" cx="76" cy="81" r="2"/>
		<polygon style="fill:#FFFFFF;" points="23,75 35,51 75,51 87,75 		"/>
		<polygon style="fill:#6FDAF1;" points="72.667,55 37.333,55 29.333,71 80.667,71 		"/>
		<path style="fill:#E2E4E5;" d="M83,23H27c-2.209,0-4,1.791-4,4l12,24h40l12-24C87,24.791,85.209,23,83,23z"/>
		<path style="fill:#FFFFFF;" d="M87,27c0-2.209-1.791-4-4-4H27c-2.209,0-4,1.791-4,4H87z"/>
		<polygon style="fill:#9CE5F4;" points="29.333,71 42.303,71 58.303,55 37.333,55 		"/>
	</g>
</g>
</svg>
