<?xml version="1.0" encoding="iso-8859-1"?>
<!-- Generator: Adobe Illustrator 17.1.0, SVG Export Plug-In . SVG Version: 6.00 Build 0)  -->
<!DOCTYPE svg PUBLIC "-//W3C//DTD SVG 1.0//EN" "http://www.w3.org/TR/2001/REC-SVG-20010904/DTD/svg10.dtd">
<svg version="1.0" xmlns="http://www.w3.org/2000/svg" xmlns:xlink="http://www.w3.org/1999/xlink" x="0px" y="0px" width="110px"
	 height="110px" viewBox="0 0 110 110" style="enable-background:new 0 0 110 110;" xml:space="preserve">
<g id="Artboard">
</g>
<g id="Multicolor">
	<circle style="fill:#32BEA6;" cx="55" cy="55" r="55"/>
	<g>
		<g>
			<path style="fill:#84462D;" d="M65,35v4c0,5.52-4.48,10-10,10s-10-4.48-10-10v-4H65z"/>
		</g>
		<g>
			<path style="fill:#9C6144;" d="M45,35v4c0,5.52,4.48,10,10,10V35H45z"/>
		</g>
		<g>
			<rect x="51" y="75" style="fill:#692E19;" width="8" height="12"/>
		</g>
		<g>
			<rect x="51" y="75" style="fill:#84462D;" width="4" height="12"/>
		</g>
		<g>
			<path style="fill:#FACB1B;" d="M37,47c-1.105,0-2,0.895-2,2v8c0,1.105,0.895,2,2,2h6c1.105,0,2,0.895,2,2v12c0,1.105,0.895,2,2,2
				h16c1.105,0,2-0.895,2-2V61c0-1.105,0.895-2,2-2h6c1.105,0,2-0.895,2-2v-8c0-1.105-0.895-2-2-2H37z"/>
		</g>
		<g>
			<path style="fill:#84462D;" d="M35,55h-6c-1.105,0-2-0.895-2-2s0.895-2,2-2h6V55z"/>
		</g>
		<g>
			<path style="fill:#84462D;" d="M83,53c0,1.105-0.895,2-2,2h-6v-4h6C82.105,51,83,51.895,83,53z"/>
		</g>
		<g>
			<path style="fill:#F8E1C2;" d="M71,33c0,1.1-0.9,2-2,2H41c-1.1,0-2-0.9-2-2s0.9-2,2-2h6c0,0,0-8,8-8s8,8,8,8h6
				C70.1,31,71,31.9,71,33z"/>
		</g>
		<g>
			<polygon style="fill:#0C7367;" points="23,87 27,79 31,87 35,79 39,87 43,79 47,87 51,79 55,87 59,79 63,87 67,79 71,87 75,79 
				79,87 83,79 87,87 			"/>
		</g>
		<g>
			<path style="fill:#FBE158;" d="M55,47H37c-1.104,0-2,0.896-2,2v8c0,1.104,0.896,2,2,2h6c1.104,0,2,0.896,2,2v12
				c0,1.104,0.896,2,2,2h8V47z"/>
		</g>
		<g>
			<path style="fill:#FCF1E2;" d="M55,23c-8,0-8,8-8,8h-6c-1.1,0-2,0.9-2,2s0.9,2,2,2h14V23z"/>
		</g>
	</g>
</g>
</svg>
