<?xml version="1.0" encoding="iso-8859-1"?>
<!-- Generator: Adobe Illustrator 17.1.0, SVG Export Plug-In . SVG Version: 6.00 Build 0)  -->
<!DOCTYPE svg PUBLIC "-//W3C//DTD SVG 1.0//EN" "http://www.w3.org/TR/2001/REC-SVG-20010904/DTD/svg10.dtd">
<svg version="1.0" xmlns="http://www.w3.org/2000/svg" xmlns:xlink="http://www.w3.org/1999/xlink" x="0px" y="0px" width="110px"
	 height="110px" viewBox="0 0 110 110" style="enable-background:new 0 0 110 110;" xml:space="preserve">
<g id="Artboard">
</g>
<g id="Multicolor">
	<circle style="fill:#32BEA6;" cx="55" cy="55" r="55"/>
	<g>
		<g>
			<path style="fill:#FACB1B;" d="M42,41c-2.209,0-4,1.791-4,4v10c-13,3-14,6-14,10v10h15h43c2.209,0,4-1.791,4-4V45
				c0-2.209-1.791-4-4-4H42z"/>
		</g>
		<g>
			<path style="fill:#FBE158;" d="M42,41c-2.209,0-4,1.791-4,4v10c-13,3-14,6-14,10v10h2.042l34-34H42z"/>
		</g>
		<g>
			<path style="fill:#CFD3D4;" d="M85,72H30h-3h-2c-1.104,0-2,0.896-2,2s0.896,2,2,2h2h3h55c1.105,0,2-0.896,2-2S86.105,72,85,72z"
				/>
		</g>
		<g>
			<path style="fill:#F0F1F1;" d="M27,72h-2c-1.104,0-2,0.896-2,2s0.896,2,2,2h0.042l4-4H27z"/>
		</g>
		<g>
			<rect x="56" y="60" style="fill:#5B5C5F;" width="30" height="2"/>
		</g>
		<g>
			<rect x="56" y="65" style="fill:#5B5C5F;" width="30" height="2"/>
		</g>
		<g>
			<circle style="fill:#3E3E3F;" cx="33.5" cy="73.5" r="5.5"/>
		</g>
		<g>
			<circle style="fill:#F0F1F1;" cx="33.5" cy="73.5" r="2.2"/>
		</g>
		<g>
			<path style="fill:#F99134;" d="M29,68c1.105,0,2-0.895,2-2s-0.895-2-2-2h-4.91C24.035,64.326,24,64.659,24,65v3H29z"/>
		</g>
		<g>
			<path style="fill:#40C9E7;" d="M63,55c0,1.105-0.895,2-2,2h-4c-1.105,0-2-0.895-2-2v-5c0-1.105,0.895-2,2-2h4
				c1.105,0,2,0.895,2,2V55z"/>
		</g>
		<g>
			<path style="fill:#40C9E7;" d="M73,55c0,1.105-0.895,2-2,2h-4c-1.105,0-2-0.895-2-2v-5c0-1.105,0.895-2,2-2h4
				c1.105,0,2,0.895,2,2V55z"/>
		</g>
		<g>
			<path style="fill:#40C9E7;" d="M83,55c0,1.105-0.895,2-2,2h-4c-1.105,0-2-0.895-2-2v-5c0-1.105,0.895-2,2-2h4
				c1.105,0,2,0.895,2,2V55z"/>
		</g>
		<g>
			<circle style="fill:#3E3E3F;" cx="74.5" cy="73.5" r="5.5"/>
		</g>
		<g>
			<circle style="fill:#F0F1F1;" cx="74.5" cy="73.5" r="2.2"/>
		</g>
		<g>
			<rect x="43" y="44" style="fill:#F37A10;" width="4" height="2"/>
		</g>
		<g>
			<rect x="77" y="44" style="fill:#F37A10;" width="4" height="2"/>
		</g>
		<g>
			<path style="fill:#40C9E7;" d="M53,72H42V50c0-1.1,0.9-2,2-2h7c1.1,0,2,0.9,2,2V72z"/>
		</g>
		<g>
			<path style="fill:#9CE5F4;" d="M52.431,48.61C52.067,48.235,51.561,48,51,48h-7c-1.1,0-2,0.9-2,2v9.042L52.431,48.61z"/>
		</g>
	</g>
</g>
</svg>
