<?xml version="1.0" encoding="iso-8859-1"?>
<!-- Generator: Adobe Illustrator 17.1.0, SVG Export Plug-In . SVG Version: 6.00 Build 0)  -->
<!DOCTYPE svg PUBLIC "-//W3C//DTD SVG 1.0//EN" "http://www.w3.org/TR/2001/REC-SVG-20010904/DTD/svg10.dtd">
<svg version="1.0" xmlns="http://www.w3.org/2000/svg" xmlns:xlink="http://www.w3.org/1999/xlink" x="0px" y="0px" width="110px"
	 height="110px" viewBox="0 0 110 110" style="enable-background:new 0 0 110 110;" xml:space="preserve">
<g id="Artboard">
</g>
<g id="Multicolor">
	<circle style="fill:#25B7D3;" cx="55" cy="55" r="55"/>
	<g>
		<g>
			<path style="fill:#DF2C2C;" d="M24.869,55c-0.369,0-0.708-0.203-0.882-0.528s-0.155-0.72,0.05-1.027l6.37-9.555
				C30.777,43.334,31.402,43,32.07,43H77.93c0.669,0,1.293,0.334,1.664,0.891l6.37,9.555c0.205,0.307,0.224,0.701,0.05,1.027
				S85.5,55,85.131,55H24.869z"/>
		</g>
		<g>
			<polygon style="fill:#F0F1F1;" points="67,55 67,44.5 55,35.5 43,44.78 43,55 27,55 27,83 83,83 83,55 			"/>
		</g>
		<g>
			<rect x="67" y="59" style="fill:#40C9E7;" width="12" height="8"/>
		</g>
		<g>
			<rect x="67" y="71" style="fill:#40C9E7;" width="12" height="8"/>
		</g>
		<g>
			<polygon style="fill:#FACB1B;" points="72,28 56,32 56,24 			"/>
		</g>
		<g>
			<polygon style="fill:#FBE158;" points="56,24 56,32 58.778,31.306 64.067,26.017 			"/>
		</g>
		<g>
			<path style="fill:#FFFFFF;" d="M87,87H23v-2c0-1.105,0.895-2,2-2h60c1.105,0,2,0.895,2,2V87z"/>
		</g>
		<g>
			<path style="fill:#84462D;" d="M63,75c0-4.418-3.582-8-8-8s-8,3.582-8,8v8h16V75z"/>
		</g>
		<g>
			<circle style="fill:#D4A263;" cx="57" cy="77" r="1"/>
		</g>
		<g>
			<circle style="fill:#D4A263;" cx="53" cy="77" r="1"/>
		</g>
		<g>
			<polygon style="fill:#FFFFFF;" points="55,35.5 43,44.78 43,55 27,55 27,83 34.083,83 67,50.083 67,44.5 			"/>
		</g>
		<g>
			<path style="fill:#84462D;" d="M55,33l1,0.75V24c0-0.552-0.448-1-1-1s-1,0.448-1,1v9.771L55,33z"/>
		</g>
		<g>
			<g>
				<path style="fill:#FA5655;" d="M67.4,44.8L55,35.5l-12.575,9.725c-0.442,0.333-1.068,0.242-1.4-0.2
					c-0.331-0.442-0.242-1.069,0.2-1.4L55,33l13.6,10.2c0.442,0.331,0.531,0.958,0.2,1.4C68.466,45.045,67.839,45.13,67.4,44.8z"/>
			</g>
		</g>
		<g>
			<circle style="fill:#9CE5F4;" cx="55" cy="49" r="6"/>
		</g>
		<g>
			<g>
				<path style="fill:#40C9E7;" d="M57,51h-3v-5c0-0.552,0.448-1,1-1s1,0.448,1,1v3h1c0.552,0,1,0.448,1,1S57.552,51,57,51z"/>
			</g>
		</g>
		<g>
			<rect x="31" y="59" style="fill:#6FDAF1;" width="12" height="8"/>
		</g>
		<g>
			<rect x="31" y="71" style="fill:#40C9E7;" width="12" height="8"/>
		</g>
		<g>
			<polygon style="fill:#6FDAF1;" points="43,74.083 43,71 31,71 31,79 38.083,79 			"/>
		</g>
	</g>
</g>
</svg>
