<?xml version="1.0" encoding="iso-8859-1"?>
<!-- Generator: Adobe Illustrator 17.1.0, SVG Export Plug-In . SVG Version: 6.00 Build 0)  -->
<!DOCTYPE svg PUBLIC "-//W3C//DTD SVG 1.0//EN" "http://www.w3.org/TR/2001/REC-SVG-20010904/DTD/svg10.dtd">
<svg version="1.0" xmlns="http://www.w3.org/2000/svg" xmlns:xlink="http://www.w3.org/1999/xlink" x="0px" y="0px" width="110px"
	 height="110px" viewBox="0 0 110 110" style="enable-background:new 0 0 110 110;" xml:space="preserve">
<g id="Artboard">
</g>
<g id="Multicolor">
	<circle style="fill:#E04F5F;" cx="55" cy="55" r="55"/>
	<g>
		<g>
			<path style="fill:#FBE158;" d="M79,61V31c0-10.667-48-10.667-48,0v30c-2.209,0-4,1.791-4,4v6c0,1.104,0.896,2,2,2h52
				c1.104,0,2-0.896,2-2v-6C83,62.791,81.209,61,79,61z"/>
		</g>
		<g>
			<path style="fill:#F3B607;" d="M31,31v30h4l0-8c0-5.333,40-5.333,40,0l0,8h4V31C79,20.333,31,20.333,31,31z"/>
		</g>
		<g>
			<path style="fill:#FBE158;" d="M31,31v30h4l0-8c0-2.587,9.415-3.919,19.109-3.996l22.039-22.039C65.83,20.569,31,21.913,31,31z"
				/>
		</g>
		<g>
			<path style="fill:#FBE158;" d="M83,71c0,1.105-0.895,2-2,2H29c-1.105,0-2-0.895-2-2v-6c0-2.209,1.791-4,4-4h4l0-8
				c0-5.333,40-5.333,40,0l0,8h4c2.209,0,4,1.791,4,4V71z"/>
		</g>
		<g>
			<path style="fill:#CFD3D4;" d="M83,71c0-1.105-0.895-2-2-2H29c-1.105,0-2,0.895-2,2v4c0,1.105,0.895,2,2,2h52
				c1.105,0,2-0.895,2-2V71z"/>
		</g>
		<g>
			<path style="fill:#3E3E3F;" d="M37,85c0,1.105-0.895,2-2,2h-4c-1.105,0-2-0.895-2-2v-8h8V85z"/>
		</g>
		<g>
			<path style="fill:#3E3E3F;" d="M81,85c0,1.105-0.895,2-2,2h-4c-1.105,0-2-0.895-2-2v-8h8V85z"/>
		</g>
		<g>
			<path style="fill:#E2E4E5;" d="M71,57c0-2.209-1.791-4-4-4H43c-2.209,0-4,1.791-4,4v12h32V57z"/>
		</g>
		<g>
			<path style="fill:#9E9FA0;" d="M67,61c0,0.552-0.448,1-1,1H44c-0.552,0-1-0.448-1-1s0.448-1,1-1h22C66.552,60,67,60.448,67,61z"
				/>
		</g>
		<g>
			<path style="fill:#9E9FA0;" d="M67,65c0,0.552-0.448,1-1,1H44c-0.552,0-1-0.448-1-1s0.448-1,1-1h22C66.552,64,67,64.448,67,65z"
				/>
		</g>
		<g>
			<circle style="fill:#40C9E7;" cx="77" cy="65" r="3"/>
		</g>
		<g>
			<rect x="79" y="35" style="fill:#3E3E3F;" width="2" height="2"/>
		</g>
		<g>
			<path style="fill:#F3B607;" d="M87,45c0,1.105-0.895,2-2,2h-2c-1.105,0-2-0.895-2-2V35h4c1.105,0,2,0.895,2,2V45z"/>
		</g>
		<g>
			<polygon style="fill:#3E3E3F;" points="79,53 79,51 83,47 85,47 			"/>
		</g>
		<g>
			<rect x="29" y="35" style="fill:#3E3E3F;" width="2" height="2"/>
		</g>
		<g>
			<path style="fill:#FACB1B;" d="M23,45c0,1.105,0.895,2,2,2h2c1.105,0,2-0.895,2-2V35h-4c-1.105,0-2,0.895-2,2V45z"/>
		</g>
		<g>
			<polygon style="fill:#3E3E3F;" points="31,53 31,51 27,47 25,47 			"/>
		</g>
		<g>
			<circle style="fill:#F37A10;" cx="67" cy="28" r="2"/>
		</g>
		<g>
			<circle style="fill:#F37A10;" cx="43" cy="28" r="2"/>
		</g>
		<g>
			<circle style="fill:#FA5655;" cx="72" cy="29" r="1"/>
		</g>
		<g>
			<circle style="fill:#FA5655;" cx="38" cy="29" r="1"/>
		</g>
		<g>
			<path style="fill:#FBE158;" d="M81,33.5c0,0.828-0.672,1.5-1.5,1.5h-49c-0.828,0-1.5-0.672-1.5-1.5s0.672-1.5,1.5-1.5h49
				C80.328,32,81,32.672,81,33.5z"/>
		</g>
		<g>
			<path style="fill:#6FDAF1;" d="M77,62c-1.657,0-3,1.343-3,3c0,0.751,0.286,1.43,0.742,1.956l4.214-4.214
				C78.43,62.286,77.751,62,77,62z"/>
		</g>
		<g>
			<rect x="56" y="35" style="fill:#40C9E7;" width="20" height="11"/>
		</g>
		<g>
			<rect x="34" y="35" style="fill:#6FDAF1;" width="20" height="11"/>
		</g>
		<g>
			<path style="fill:#FBEC9A;" d="M35,53l0,8h-4c-2.209,0-4,1.791-4,4v6c0,1.104,0.896,2,2,2h1.113l23.996-23.996
				C44.415,49.081,35,50.413,35,53z"/>
		</g>
		<g>
			<path style="fill:#E2E4E5;" d="M29,69c-1.104,0-2,0.896-2,2v4c0,0.323,0.083,0.624,0.219,0.893L34.113,69H29z"/>
		</g>
		<g>
			<path style="fill:#F0F1F1;" d="M50.113,53H43c-2.209,0-4,1.791-4,4v7.113L50.113,53z"/>
		</g>
		<g>
			<path style="fill:#FBEC9A;" d="M30.5,32c-0.828,0-1.5,0.672-1.5,1.5c0,0.829,0.672,1.5,1.5,1.5h37.613l3-3H30.5z"/>
		</g>
		<g>
			<polygon style="fill:#6FDAF1;" points="56,35 56,46 57.113,46 68.113,35 			"/>
		</g>
		<g>
			<path style="fill:#9E9FA0;" d="M67,57c0,0.552-0.448,1-1,1H44c-0.552,0-1-0.448-1-1s0.448-1,1-1h22C66.552,56,67,56.448,67,57z"
				/>
		</g>
		<g>
			<circle style="fill:#40C9E7;" cx="33" cy="65" r="3"/>
		</g>
		<g>
			<path style="fill:#6FDAF1;" d="M33,62c-1.657,0-3,1.343-3,3c0,0.751,0.286,1.43,0.742,1.956l4.214-4.214
				C34.43,62.286,33.751,62,33,62z"/>
		</g>
	</g>
</g>
</svg>
