<?xml version="1.0" encoding="iso-8859-1"?>
<!-- Generator: Adobe Illustrator 17.1.0, SVG Export Plug-In . SVG Version: 6.00 Build 0)  -->
<!DOCTYPE svg PUBLIC "-//W3C//DTD SVG 1.0//EN" "http://www.w3.org/TR/2001/REC-SVG-20010904/DTD/svg10.dtd">
<svg version="1.0" xmlns="http://www.w3.org/2000/svg" xmlns:xlink="http://www.w3.org/1999/xlink" x="0px" y="0px" width="110px"
	 height="110px" viewBox="0 0 110 110" style="enable-background:new 0 0 110 110;" xml:space="preserve">
<g id="Artboard">
</g>
<g id="Multicolor">
	<circle style="fill:#25B7D3;" cx="55" cy="55" r="55"/>
	<g>
		<g>
			<path style="fill:#C9F2F8;" d="M43,55.524V48h2v-4H33v4h2v7.524C28.103,57.303,23,63.547,23,71c0,8.836,7.164,16,16,16
				s16-7.164,16-16C55,63.547,49.897,57.303,43,55.524z"/>
		</g>
		<g>
			<path style="fill:#FFFFFF;" d="M33,44v4h2v7.524C28.103,57.303,23,63.547,23,71c0,8.836,7.164,16,16,16V44H33z"/>
		</g>
		<g>
			<circle style="fill:#FFFFFF;" cx="31.882" cy="34.937" r="3"/>
		</g>
		<g>
			<circle style="fill:#FFFFFF;" cx="37.382" cy="39.437" r="1.5"/>
		</g>
		<g>
			<circle style="fill:#FFFFFF;" cx="40.882" cy="34.937" r="2"/>
		</g>
		<g>
			<path style="fill:#6FDAF1;" d="M27.05,72C27.56,78.158,32.71,83,39,83s11.44-4.842,11.95-11H27.05z"/>
		</g>
		<g>
			<path style="fill:#9CE5F4;" d="M27.05,72C27.56,78.158,32.71,83,39,83V72H27.05z"/>
		</g>
		<g>
			<path style="fill:#FFFFFF;" d="M67.637,64.5c-3.951,0-5.74-6.26-6.561-10.143c-3.797,0.906-10.238,2.061-11.963-1.574
				c-1.45-3.058,1.959-6.554,4.473-8.783c-2.522-2.237-5.923-5.724-4.473-8.783c1.712-3.608,8.094-2.498,11.963-1.574
				c0.82-3.882,2.61-10.143,6.561-10.143c3.951,0,5.74,6.26,6.561,10.143c2.579-0.616,10.09-2.372,11.963,1.574
				c1.45,3.058-1.959,6.554-4.473,8.783c2.508,2.224,5.926,5.718,4.473,8.783c-1.725,3.637-8.19,2.475-11.963,1.574
				C73.378,58.24,71.588,64.5,67.637,64.5z M63.975,53.523c0.399,1.941,1.708,7.589,3.662,7.986
				c1.954-0.397,3.263-6.045,3.662-7.986c-1.161-0.387-1.893-0.639-3.662-1.347C65.931,52.858,65.198,53.115,63.975,53.523z
				 M74.959,48.632c-0.105,1.282-0.163,1.762-0.283,2.762c1.885,0.466,7.642,1.69,8.786,0.1c0.434-1.633-2.913-4.521-4.205-5.604
				C77.836,46.888,76.801,47.566,74.959,48.632z M51.822,51.516c1.177,1.553,6.881,0.347,8.776-0.122
				c-0.12-1-0.178-1.479-0.283-2.762c-1.859-1.076-2.904-1.761-4.296-2.741C54.717,46.983,51.377,49.867,51.822,51.516z
				 M63.208,41.199c-0.042,0.976-0.071,1.788-0.071,2.801c0,1.019,0.029,1.819,0.071,2.802c0.864,0.456,1.583,0.829,2.501,1.264
				c0.655,0.311,1.272,0.581,1.928,0.867c0.656-0.286,1.273-0.556,1.928-0.867c0.939-0.445,1.634-0.808,2.501-1.264
				c0.042-0.982,0.071-1.782,0.071-2.802c0-1.01-0.029-1.819-0.071-2.802c-1.944-1.024-2.748-1.4-4.429-2.131
				C65.761,39.884,64.949,40.28,63.208,41.199z M51.812,36.506c-0.432,1.627,2.922,4.529,4.205,5.604
				c1.245-0.874,2.298-1.585,4.297-2.741c0.105-1.282,0.163-1.762,0.283-2.762C58.714,36.14,52.957,34.916,51.812,36.506z
				 M74.676,36.606c0.12,1,0.176,1.456,0.283,2.762c1.859,1.076,2.904,1.761,4.296,2.741c1.302-1.092,4.643-3.976,4.197-5.625
				C82.273,34.928,76.577,36.136,74.676,36.606z M63.975,34.477c1.138,0.38,1.87,0.63,3.662,1.348
				c1.806-0.723,2.537-0.972,3.661-1.348c-0.396-1.926-1.724-7.633-3.67-7.986C65.696,26.847,64.369,32.554,63.975,34.477z"/>
		</g>
	</g>
</g>
</svg>
