<?xml version="1.0" encoding="iso-8859-1"?>
<!-- Generator: Adobe Illustrator 17.1.0, SVG Export Plug-In . SVG Version: 6.00 Build 0)  -->
<!DOCTYPE svg PUBLIC "-//W3C//DTD SVG 1.0//EN" "http://www.w3.org/TR/2001/REC-SVG-20010904/DTD/svg10.dtd">
<svg version="1.0" xmlns="http://www.w3.org/2000/svg" xmlns:xlink="http://www.w3.org/1999/xlink" x="0px" y="0px" width="110px"
	 height="110px" viewBox="0 0 110 110" style="enable-background:new 0 0 110 110;" xml:space="preserve">
<g id="Artboard">
</g>
<g id="Multicolor">
	<g>
		<circle style="fill:#25B7D3;" cx="55" cy="55" r="55"/>
	</g>
	<g>
		<g>
			<path style="fill:#FFFFFF;" d="M55,70H45l-13.241,2.872c-2.371,0.711-4.279,2.48-5.168,4.791L23,87h32V70z"/>
		</g>
		<g>
			<path style="fill:#FFFFFF;" d="M55,70h10l13.241,2.872c2.371,0.711,4.279,2.48,5.168,4.791L87,87H55V70z"/>
		</g>
		<g>
			<polygon style="fill:#F1F2F2;" points="45,70 45,67 41,68 35,75 42,75 39,81 48,87 53,87 			"/>
		</g>
		<g>
			<polygon style="fill:#F1F2F2;" points="65,70 65,67 69,68 75,75 68,75 71,81 62,87 57,87 			"/>
		</g>
		<path style="fill:#BF8662;" d="M45,62.433V70l8,17h2V70C51.716,68.905,47.841,66.829,45,62.433z"/>
		<path style="fill:#AF7653;" d="M55,70v17h2l8-17v-7.567C62.159,66.829,58.284,68.905,55,70z"/>
		<g>
			<g>
				<rect x="28" y="83" style="fill:#E2E4E5;" width="11" height="2"/>
			</g>
			<g>
				<rect x="30" y="80" style="fill:#DF2C2C;" width="3" height="3"/>
			</g>
			<g>
				<path style="fill:#FA5655;" d="M33,80h-3v-0.5c0-0.825,0.675-1.5,1.5-1.5s1.5,0.675,1.5,1.5V80z"/>
			</g>
			<g>
				<rect x="34" y="81" style="fill:#F37A10;" width="3" height="2"/>
			</g>
			<g>
				<path style="fill:#F3B607;" d="M37,81h-3v-0.5c0-0.825,0.675-1.5,1.5-1.5c0.825,0,1.5,0.675,1.5,1.5V81z"/>
			</g>
		</g>
		<path style="fill:#BF8662;" d="M70,46c-0.277,0-0.633,0-1,0v-0.001C65.999,34.001,56,44,50,34v5c0,0-5.999-1-9,6.999V46
			c-0.368,0-0.723,0-1,0c-1,0-2,1.111-2,2.222c0,3.091,0.864,7.13,4.178,7.703C44.62,65.027,50.396,68.465,55,70
			c4.604-1.535,10.38-4.973,12.822-14.075C71.136,55.353,72,51.313,72,48.222C72,47.111,71,46,70,46z"/>
		<path style="fill:#CC9978;" d="M50,34v5c0,0-5.999-1-9,6.999V46c-0.368,0-0.723,0-1,0c-1,0-2,1.111-2,2.222
			c0,3.091,0.864,7.13,4.178,7.703C44.62,65.027,50.396,68.465,55,70V38.375C53.2,37.711,51.479,36.464,50,34z"/>
		<g>
			<path style="fill:#84462D;" d="M50,59h10c0,0,0,3-5,3S50,59,50,59z"/>
		</g>
		<path style="fill:#3E3E3F;" d="M72,39c0-1.657-1.343-3-3-3c-0.293,0-0.572,0.056-0.84,0.134c-0.271-0.744-0.601-1.433-0.995-2.066
			C67.68,33.529,68,32.804,68,32c0-1.657-1.343-3-3-3c-0.988,0-1.857,0.484-2.404,1.221c-1.305-0.567-2.831-0.966-4.599-1.195
			C57.998,29.018,58,29.009,58,29c0-1.657-1.343-3-3-3c-1.606,0-2.907,1.266-2.985,2.854c-0.174,0.009-0.343,0.014-0.521,0.024
			c-1.575,0.095-3.011,0.47-4.295,1.094C46.65,29.378,45.872,29,45,29c-1.657,0-3,1.343-3,3c0,0.822,0.332,1.566,0.868,2.108
			c-0.357,0.629-0.674,1.311-0.94,2.053C41.634,36.065,41.326,36,41,36c-1.657,0-3,1.343-3,3c0,1.617,1.282,2.926,2.885,2.988
			C40.837,43.238,40.87,44.572,41,46c3-8,9-7,9-7v-5c6,10,16,0,19,12c0.119-1.424,0.164-2.76,0.133-4.014
			C70.727,41.916,72,40.611,72,39z"/>
		<g>
			<g>
				<path style="fill:#3E3E3F;" d="M55,45.129c-2.625-1.367-14-1.77-14,0.383c0,6.483,5.438,7.354,7.41,7.477
					c1.562,0.098,3.081-0.001,4.003-0.879c1.025-0.976,1.709-3.173,1.953-3.808C54.609,47.667,55,47.667,55,47.667
					s0.391,0,0.634,0.635c0.244,0.635,0.928,2.831,1.953,3.808c0.922,0.878,2.441,0.976,4.003,0.879
					c1.972-0.123,7.41-0.994,7.41-7.477C69,43.359,57.625,43.761,55,45.129z"/>
			</g>
			<g>
				<g>
					<path style="fill:#F8E1C2;" d="M50.5,51.667c0.712-0.141,2.63-2.291,2.5-4.833c-0.098-1.904-8.391-1.461-9.123-1.168
						C41.389,46.969,43.75,53,50.5,51.667z"/>
				</g>
			</g>
			<g>
				<g>
					<path style="fill:#F8E1C2;" d="M59.5,51.667c-0.712-0.141-2.63-2.291-2.5-4.833c0.098-1.904,8.391-1.461,9.123-1.168
						C68.611,46.969,66.25,53,59.5,51.667z"/>
				</g>
			</g>
			<g>
				<path style="fill:#FCF1E2;" d="M43.876,45.666c-1.489,0.78-1.228,3.246,0.658,4.821l5.007-5.008
					C47.137,45.286,44.292,45.5,43.876,45.666z"/>
			</g>
			<g>
				<path style="fill:#FCF1E2;" d="M57,46.833c-0.098,1.916,0.966,3.607,1.802,4.385l5.751-5.751
					C61.941,45.295,57.075,45.376,57,46.833z"/>
			</g>
		</g>
	</g>
</g>
</svg>
