<?xml version="1.0" encoding="iso-8859-1"?>
<!-- Generator: Adobe Illustrator 17.1.0, SVG Export Plug-In . SVG Version: 6.00 Build 0)  -->
<!DOCTYPE svg PUBLIC "-//W3C//DTD SVG 1.0//EN" "http://www.w3.org/TR/2001/REC-SVG-20010904/DTD/svg10.dtd">
<svg version="1.0" xmlns="http://www.w3.org/2000/svg" xmlns:xlink="http://www.w3.org/1999/xlink" x="0px" y="0px" width="110px"
	 height="110px" viewBox="0 0 110 110" style="enable-background:new 0 0 110 110;" xml:space="preserve">
<g id="Artboard">
</g>
<g id="Multicolor">
	<g>
		<circle style="fill:#32BEA6;" cx="55" cy="55" r="55"/>
	</g>
	<g>
		<path style="fill:#3E3E3F;" d="M55,24c-4.596,0-8.126,0.638-10.853,1.614c-2.768,0.991-4.703,2.331-6.047,3.723
			C35.005,32.542,35,36,35,36l2,38h12V39.173c3.438,1.309,7.875,2.027,12,2.415V74h12l2-38C75,36,75,24,55,24z"/>
		<g>
			<path style="fill:#FFFFFF;" d="M55,70H45l-13.241,2.872c-2.371,0.711-4.279,2.48-5.168,4.791L23,87h32V70z"/>
		</g>
		<g>
			<path style="fill:#FFFFFF;" d="M55,70h10l13.241,2.872c2.371,0.711,4.279,2.48,5.168,4.791L87,87H55V70z"/>
		</g>
		<g>
			<polygon style="fill:#F1F2F2;" points="45,70 45,67 41,68 35,75 42,75 39,81 48,87 53,87 			"/>
		</g>
		<g>
			<polygon style="fill:#F1F2F2;" points="65,70 65,67 69,68 75,75 68,75 71,81 62,87 57,87 			"/>
		</g>
		<g>
			<g>
				<rect x="28" y="83" style="fill:#E2E4E5;" width="11" height="2"/>
			</g>
			<g>
				<rect x="30" y="80" style="fill:#DF2C2C;" width="3" height="3"/>
			</g>
			<g>
				<path style="fill:#FA5655;" d="M33,80h-3v-0.5c0-0.825,0.675-1.5,1.5-1.5s1.5,0.675,1.5,1.5V80z"/>
			</g>
			<g>
				<rect x="34" y="81" style="fill:#F37A10;" width="3" height="2"/>
			</g>
			<g>
				<path style="fill:#F3B607;" d="M37,81h-3v-0.5c0-0.825,0.675-1.5,1.5-1.5c0.825,0,1.5,0.675,1.5,1.5V81z"/>
			</g>
		</g>
		<path style="fill:#F8E1C2;" d="M45,61.433V70l8,17h2V69C51.716,67.905,47.841,65.829,45,61.433z"/>
		<path style="fill:#F4D0A1;" d="M55,69v18h2l8-17v-8.567C62.159,65.829,58.284,67.905,55,69z"/>
		<path style="fill:#F8E1C2;" d="M70,45c-0.277,0-0.633,0-1,0c0-0.007,0-0.014,0-0.021c-0.002-1.006-0.018-1.998-0.06-2.968
			c-8.076-0.134-25.427-1.291-25.91-8.7c-1.771,3.1-2.021,7.258-2.03,11.668c0,0.007,0,0.014,0,0.021c-0.368,0-0.723,0-1,0
			c-1,0-2,1.111-2,2.222c0,3.091,0.864,7.13,4.178,7.703C44.62,64.027,50.396,67.465,55,69c4.604-1.535,10.38-4.973,12.822-14.075
			C71.136,54.353,72,50.313,72,47.222C72,46.111,71,45,70,45z"/>
		<path style="fill:#FCF1E2;" d="M43.03,33.311c-1.771,3.1-2.021,7.258-2.03,11.668c0,0.007,0,0.014,0,0.021c-0.368,0-0.723,0-1,0
			c-1,0-2,1.111-2,2.222c0,3.091,0.864,7.13,4.178,7.703C44.62,64.027,50.396,67.465,55,69V40.774
			C48.782,39.624,43.299,37.434,43.03,33.311z"/>
		<g>
			<path style="fill:#F79392;" d="M50,58h10c0,0,0,3-5,3S50,58,50,58z"/>
		</g>
		<g>
			<g>
				<path style="fill:#3E3E3F;" d="M49.041,46.866c1.43,0,2.627,0.277,2.959,1.134c0.004-1-1.003-2.446-2.959-2.446
					c-1.953,0-3.053,1.446-2.959,2.446C46.414,47.144,47.611,46.866,49.041,46.866z"/>
			</g>
		</g>
		<g>
			<g>
				<path style="fill:#3E3E3F;" d="M60.964,46.866c1.43,0,2.627,0.277,2.959,1.134c0.004-1-1.003-2.446-2.959-2.446
					c-1.953,0-3.053,1.446-2.959,2.446C58.337,47.144,59.534,46.866,60.964,46.866z"/>
			</g>
		</g>
	</g>
</g>
</svg>
