<?xml version="1.0" encoding="iso-8859-1"?>
<!-- Generator: Adobe Illustrator 17.1.0, SVG Export Plug-In . SVG Version: 6.00 Build 0)  -->
<!DOCTYPE svg PUBLIC "-//W3C//DTD SVG 1.0//EN" "http://www.w3.org/TR/2001/REC-SVG-20010904/DTD/svg10.dtd">
<svg version="1.0" xmlns="http://www.w3.org/2000/svg" xmlns:xlink="http://www.w3.org/1999/xlink" x="0px" y="0px" width="110px"
	 height="110px" viewBox="0 0 110 110" style="enable-background:new 0 0 110 110;" xml:space="preserve">
<g id="Artboard">
</g>
<g id="Multicolor">
	<g>
		<circle style="fill:#E04F5F;" cx="55" cy="55" r="55"/>
	</g>
	<g>
		<path style="fill:#FFFFFF;" d="M83,75.997c-0.615-1.333-1.698-2.394-3.043-2.982L65,68.997H55H45l-14.957,4.018
			c-1.345,0.588-2.428,1.649-3.043,2.982L23,87h32h32L83,75.997z"/>
		<path style="fill:#F4D0A1;" d="M64.864,62.003l-5.105,3.996c-0.569,0.639-1.384,1.004-2.24,1.004h-2.655h-2.655
			c-0.856,0-1.671-0.365-2.24-1.004L45,62.109V67.5c0,0,0,7.5,10,7.5s10-7.5,10-7.5v-5.836L64.864,62.003z"/>
		<path style="fill:#F8E1C2;" d="M54.864,67.003h-2.655c-0.856,0-1.671-0.365-2.24-1.004L45,62.109V67.5c0,0,0,7.5,10,7.5v-7.997
			H54.864z"/>
		<path style="fill:#F8E1C2;" d="M70.202,44.051c-1.361,1.955-2.308,1.955-2.308,1.955V33.439c-0.022-0.064-0.044-0.129-0.068-0.193
			l-25.932,6.751v9c0.057-0.006-0.402-0.292-1.029-1.1v4.105l4,10l5.105,3.996c0.569,0.639,1.384,1.004,2.24,1.004h2.655h2.655
			c0.855,0,1.67-0.365,2.24-1.004l5.105-3.996l3.207-8.017c2.835-0.205,3.793-4.505,3.793-7.758
			C71.864,45.243,71.077,44.261,70.202,44.051z"/>
		<path style="fill:#FCF1E2;" d="M41.893,39.997v9c0.045-0.005-0.239-0.198-0.669-0.674l-0.36-3.206c0,0,0-1.111-1-1.111
			s-2,1.111-2,2.222c0,3.253,0.958,7.554,3.793,7.758l3.207,8.017l5.105,3.996c0.569,0.639,1.384,1.004,2.24,1.004h2.655H55V36.585
			L41.893,39.997z"/>
		<g>
			<path style="fill:#F79392;" d="M49.864,56.003h10c0,0,0,3-5,3S49.864,56.003,49.864,56.003z"/>
		</g>
		<path style="fill:#3E3E3F;" d="M70.069,31.245c0.546-1.14,0.871-2.706-0.176-4.277c-4.097-6.144-33.077-6.967-32,11
			c0.538,8.97,4.155,11.012,4,11.029v-9l26-6.769v12.777c0,0,3,0,6-11.029C74.549,32.565,72.042,31.617,70.069,31.245z"/>
		<g>
			<polygon style="fill:#DF2C2C;" points="59,86.997 56,78.997 58,75.999 54.981,72.975 51.983,75.973 54,78.997 51,86.997 			"/>
		</g>
		<g>
			<polygon style="fill:#FA5655;" points="55,86.997 55,72.994 54.981,72.975 51.983,75.973 54,78.997 51,86.997 			"/>
		</g>
		<g>
			<polygon style="fill:#FFFFFF;" points="67,68.997 65,66.997 55,72.997 62,79.997 			"/>
		</g>
		<g>
			<polygon style="fill:#FFFFFF;" points="43,69.997 45,66.997 55,72.997 48,79.997 			"/>
		</g>
		<g>
			<g>
				<rect x="31" y="83" style="fill:#E2E4E5;" width="13" height="2"/>
			</g>
			<g>
				<rect x="34" y="80" style="fill:#DF2C2C;" width="3" height="3"/>
			</g>
			<g>
				<path style="fill:#FA5655;" d="M37,80h-3v-0.5c0-0.825,0.675-1.5,1.5-1.5c0.825,0,1.5,0.675,1.5,1.5V80z"/>
			</g>
			<g>
				<rect x="38" y="81" style="fill:#F37A10;" width="3" height="2"/>
			</g>
			<g>
				<path style="fill:#F3B607;" d="M41,81h-3v-0.5c0-0.825,0.675-1.5,1.5-1.5c0.825,0,1.5,0.675,1.5,1.5V81z"/>
			</g>
		</g>
		<g>
			<g>
				<path style="fill:#3E3E3F;" d="M68.964,44.666c-2.014-1.45-14.461-0.463-14.461-0.463s-12.527-0.987-14.542,0.463
					c0,0-0.081,1.893,0,2.9c1.933,0.967,0.644,2.578,1.933,2.9c1.611,0.403,8.419,0.967,9.667,0c1.317-1.02,1.933-3.867,2.9-3.867
					c0.967,0,1.584,2.847,2.9,3.867c1.249,0.967,8.056,0.403,9.667,0c1.29-0.322,0-1.933,1.934-2.9
					C69.045,46.559,68.964,44.666,68.964,44.666z"/>
			</g>
			<g>
				<path style="fill:#9CE5F4;" d="M42.783,49.245c-0.929-1.857-0.623-4.164,0.233-4.28c0.856-0.117,6.849-0.778,9.184,0.35
					c0.931,0.45-0.271,4.367-1.634,4.514C47.686,50.14,43.289,50.257,42.783,49.245z"/>
			</g>
			<g>
				<path style="fill:#9CE5F4;" d="M66.487,49.325c0.929-1.857,0.623-4.164-0.233-4.28s-6.849-0.778-9.184,0.35
					c-0.931,0.45,0.271,4.367,1.634,4.514C61.584,50.22,65.981,50.336,66.487,49.325z"/>
			</g>
			<g>
				<path style="fill:#C9F2F8;" d="M43.017,44.961c-0.856,0.117-1.162,2.423-0.233,4.281c0.064,0.128,0.192,0.238,0.371,0.332
					l4.295-4.908C45.4,44.683,43.474,44.899,43.017,44.961z"/>
			</g>
			<g>
				<path style="fill:#C9F2F8;" d="M57.07,45.392c-0.864,0.418,0.111,3.822,1.347,4.424l4.416-5.047
					C60.786,44.691,58.365,44.766,57.07,45.392z"/>
			</g>
		</g>
	</g>
</g>
</svg>
