<?xml version="1.0" encoding="iso-8859-1"?>
<!-- Generator: Adobe Illustrator 17.1.0, SVG Export Plug-In . SVG Version: 6.00 Build 0)  -->
<!DOCTYPE svg PUBLIC "-//W3C//DTD SVG 1.0//EN" "http://www.w3.org/TR/2001/REC-SVG-20010904/DTD/svg10.dtd">
<svg version="1.0" xmlns="http://www.w3.org/2000/svg" xmlns:xlink="http://www.w3.org/1999/xlink" x="0px" y="0px" width="110px"
	 height="110px" viewBox="0 0 110 110" style="enable-background:new 0 0 110 110;" xml:space="preserve">
<g id="Artboard">
</g>
<g id="Multicolor">
	<circle style="fill:#E04F5F;" cx="55" cy="55" r="55"/>
	<g>
		<path style="fill:#3E3E3F;" d="M69.16,57.949C70.953,54.383,72,50.104,72,45.5C72,33.073,64.389,23,55,23S38,33.073,38,45.5
			c0,4.663,1.072,8.995,2.907,12.587C36.368,63.115,29.931,73.475,27,83c18.667,5.333,37.333,5.333,56,0
			C79.608,71.325,73.451,62.333,69.16,57.949z"/>
		<path style="fill:#F0F1F1;" d="M67.717,43.88C67.072,35.837,62.968,28,55,28s-12.072,7.837-12.717,15.88
			c-0.146,1.816,0.138,4.036,1.717,4.944C53,54,46,67,55,67s2-13,11-18.176C67.579,47.916,67.862,45.696,67.717,43.88z"/>
		<path style="fill:#FFFFFF;" d="M42.283,43.88c-0.146,1.816,0.137,4.036,1.717,4.944C53,54,46,67,55,67V28
			C47.032,28,42.928,35.837,42.283,43.88z"/>
		<path style="fill:#3E3E3F;" d="M55,63c-2.558,0-5.765-17,0-17C60.726,46,57.582,63,55,63z"/>
		<path style="fill:#3E3E3F;" d="M60.319,34.868c-0.428-0.924-1.421-1.446-2.425-1.274C56.813,33.779,56,34.592,56,36.241
			C56,39.974,59.026,43,62.759,43c0.948,0,1.783-0.622,2.055-1.529c0.272-0.908-0.084-1.886-0.875-2.407
			C62.381,38.037,61.116,36.589,60.319,34.868z"/>
		<path style="fill:#3E3E3F;" d="M49.681,34.868c0.428-0.924,1.421-1.446,2.425-1.274C53.187,33.779,54,34.592,54,36.241
			C54,39.974,50.974,43,47.241,43c-0.948,0-1.783-0.622-2.055-1.529c-0.272-0.908,0.084-1.886,0.875-2.407
			C47.619,38.037,48.884,36.589,49.681,34.868z"/>
	</g>
</g>
</svg>
