<?xml version="1.0" encoding="iso-8859-1"?>
<!-- Generator: Adobe Illustrator 17.1.0, SVG Export Plug-In . SVG Version: 6.00 Build 0)  -->
<!DOCTYPE svg PUBLIC "-//W3C//DTD SVG 1.0//EN" "http://www.w3.org/TR/2001/REC-SVG-20010904/DTD/svg10.dtd">
<svg version="1.0" xmlns="http://www.w3.org/2000/svg" xmlns:xlink="http://www.w3.org/1999/xlink" x="0px" y="0px" width="110px"
	 height="110px" viewBox="0 0 110 110" style="enable-background:new 0 0 110 110;" xml:space="preserve">
<g id="Artboard">
</g>
<g id="Multicolor">
	<circle style="fill:#E04F5F;" cx="55" cy="55" r="55"/>
	<g>
		<g>
			<polygon style="fill:#E2E4E5;" points="66.13,58.01 59.06,59.42 33.61,84.88 23,87 25.12,76.39 50.58,50.94 51.99,43.87 			"/>
		</g>
		<g>
			<polygon style="fill:#FFFFFF;" points="59.015,50.895 51.99,43.87 50.58,50.94 25.12,76.39 23.023,86.887 			"/>
		</g>
		<g>
			
				<rect x="54.011" y="38.988" transform="matrix(0.7071 0.7071 -0.7071 0.7071 51.2666 -31.7928)" style="fill:#B6BCBD;" width="20" height="14"/>
		</g>
		<g>
			<path style="fill:#E2E4E5;" d="M81.857,51.661c-1.252,0.177-2.517-0.24-3.408-1.131L59.47,31.551
				c-0.891-0.891-1.308-2.157-1.131-3.408c0.184-1.245,0.94-2.34,2.058-2.935c7.05-3.823,15.714-2.473,21.291,3.104
				c5.648,5.648,6.877,14.317,3.104,21.291C84.197,50.721,83.101,51.477,81.857,51.661z"/>
		</g>
		<g>
			<polygon style="fill:#B6BCBD;" points="39.49,79 35.49,83 23.8,83 24.6,79 			"/>
		</g>
		<g>
			<polygon style="fill:#B6BCBD;" points="47.48,71 43.49,75 26.51,75 30.51,71 			"/>
		</g>
		<g>
			<polygon style="fill:#B6BCBD;" points="55.48,63 51.48,67 34.51,67 38.52,63 			"/>
		</g>
		<g>
			<path style="fill:#B6BCBD;" d="M84.183,31.445l-3.748,3.748l-5.657-5.657l3.741-3.741c1.124,0.7,2.192,1.542,3.168,2.517
				C82.656,29.281,83.49,30.328,84.183,31.445z"/>
		</g>
		<g>
			
				<rect x="53.453" y="37.462" transform="matrix(0.7071 -0.7071 0.7071 0.7071 -12.296 55.1758)" style="fill:#E2E4E5;" width="14" height="9.937"/>
		</g>
		<g>
			<path style="fill:#FFFFFF;" d="M60.396,25.208c-1.118,0.594-1.874,1.69-2.058,2.935c-0.177,1.251,0.241,2.518,1.131,3.408
				l9.445,9.445L81.64,28.27C76.062,22.73,67.427,21.396,60.396,25.208z"/>
		</g>
		<g>
			<polygon style="fill:#F0F1F1;" points="38.52,63 34.51,67 42.909,67 46.909,63 			"/>
		</g>
		<g>
			<polygon style="fill:#F0F1F1;" points="30.51,71 26.51,75 34.909,75 38.909,71 			"/>
		</g>
		<g>
			<polygon style="fill:#F0F1F1;" points="24.6,79 23.8,83 26.909,83 30.909,79 			"/>
		</g>
		<g>
			<path style="fill:#E2E4E5;" d="M78.519,25.795l-3.741,3.741l2.798,2.798l4.063-4.063C80.676,27.313,79.626,26.484,78.519,25.795z
				"/>
		</g>
	</g>
</g>
</svg>
