<?xml version="1.0" encoding="iso-8859-1"?>
<!-- Generator: Adobe Illustrator 17.1.0, SVG Export Plug-In . SVG Version: 6.00 Build 0)  -->
<!DOCTYPE svg PUBLIC "-//W3C//DTD SVG 1.0//EN" "http://www.w3.org/TR/2001/REC-SVG-20010904/DTD/svg10.dtd">
<svg version="1.0" xmlns="http://www.w3.org/2000/svg" xmlns:xlink="http://www.w3.org/1999/xlink" x="0px" y="0px" width="110px"
	 height="110px" viewBox="0 0 110 110" style="enable-background:new 0 0 110 110;" xml:space="preserve">
<g id="Artboard">
</g>
<g id="Multicolor">
	<circle style="fill:#E04F5F;" cx="55" cy="55" r="55"/>
	<g>
		<g>
			<path style="fill:#FACB1B;" d="M57.583,58.203c-3.715-3.715-2.237-2.237-5.95-5.95c-0.215-0.215-0.515-0.32-0.817-0.287
				s-0.573,0.201-0.735,0.458c-1.331,2.095-4.023,2.829-7.449,2.829L23.586,74.299c-0.588,0.588-0.751,1.478-0.409,2.236
				c2.101,4.668,5.406,8.711,10.234,10.358c0.722,0.246,1.522,0.06,2.061-0.479l19.161-19.161c0-4.486,0.708-6.378,2.718-7.461
				c0.278-0.15,0.469-0.423,0.515-0.736C57.911,58.744,57.807,58.427,57.583,58.203z"/>
		</g>
		<g>
			<path style="fill:#CFD3D4;" d="M84.494,25.114l-1.861-1.861l-3.771,1.886l-6.44,3.22c-0.984,0.492-1.789,1.794-1.789,2.895v4
				l-18,18l1.861,1.861l2.139,2.139l18-18h4c1.1,0,2.402-0.805,2.894-1.789l3.22-6.439l1.886-3.771L84.494,25.114z"/>
		</g>
		<path style="fill:#F3B607;" d="M54.632,55.252L27.164,82.721c1.715,1.857,3.779,3.33,6.247,4.172
			c0.722,0.246,1.522,0.06,2.061-0.479l19.161-19.161c0-4.486,0.708-6.378,2.718-7.461c0.278-0.15,0.469-0.423,0.515-0.736
			c0.046-0.312-0.059-0.629-0.282-0.853C55.753,56.373,55.183,55.804,54.632,55.252z"/>
		<polygon style="fill:#E2E4E5;" points="82.632,23.253 78.861,25.139 84.747,31.024 86.632,27.253 		"/>
		<path style="fill:#E2E4E5;" d="M84.494,25.114l-1.861-1.861l-3.771,1.886l-6.44,3.22c-0.984,0.492-1.789,1.794-1.789,2.895v4
			l-18,18l1.861,1.861l0.138,0.138l30-30L84.494,25.114z"/>
		<polygon style="fill:#F0F1F1;" points="82.632,23.253 78.861,25.139 81.803,28.081 84.632,25.253 		"/>
	</g>
</g>
</svg>
