<?xml version="1.0" encoding="iso-8859-1"?>
<!-- Generator: Adobe Illustrator 17.1.0, SVG Export Plug-In . SVG Version: 6.00 Build 0)  -->
<!DOCTYPE svg PUBLIC "-//W3C//DTD SVG 1.0//EN" "http://www.w3.org/TR/2001/REC-SVG-20010904/DTD/svg10.dtd">
<svg version="1.0" xmlns="http://www.w3.org/2000/svg" xmlns:xlink="http://www.w3.org/1999/xlink" x="0px" y="0px" width="110px"
	 height="110px" viewBox="0 0 110 110" style="enable-background:new 0 0 110 110;" xml:space="preserve">
<g id="Artboard">
</g>
<g id="Multicolor">
	<circle style="fill:#32BEA6;" cx="55" cy="55" r="55"/>
	<g>
		<path style="fill:#E2E4E5;" d="M87,29c0-3.314-2.687-6-6-6s-6,2.686-6,6v6h12V29z"/>
		<path style="fill:#FFFFFF;" d="M81,23c-4,0-6,4-6,6v52c0,3.31-2.69,6-6,6H31V29c0-3.31,2.69-6,6-6H81z"/>
		<g>
			<path style="fill:#E2E4E5;" d="M63,81v-6H23v6c0,3.313,2.687,6,6,6h40C65.687,87,63,84.313,63,81z"/>
		</g>
		<path style="fill:#E2E4E5;" d="M56,41c0,0.552-0.448,1-1,1H40c-0.552,0-1-0.448-1-1s0.448-1,1-1h15C55.552,40,56,40.448,56,41z"/>
		<path style="fill:#E2E4E5;" d="M67,49c0,0.552-0.448,1-1,1H40c-0.552,0-1-0.448-1-1s0.448-1,1-1h26C66.552,48,67,48.448,67,49z"/>
		<path style="fill:#E2E4E5;" d="M67,57c0,0.552-0.448,1-1,1H40c-0.552,0-1-0.448-1-1s0.448-1,1-1h26C66.552,56,67,56.448,67,57z"/>
		<path style="fill:#E2E4E5;" d="M67,65c0,0.552-0.448,1-1,1H40c-0.552,0-1-0.448-1-1s0.448-1,1-1h26C66.552,64,67,64.448,67,65z"/>
	</g>
</g>
</svg>
