<?xml version="1.0" encoding="iso-8859-1"?>
<!-- Generator: Adobe Illustrator 17.1.0, SVG Export Plug-In . SVG Version: 6.00 Build 0)  -->
<!DOCTYPE svg PUBLIC "-//W3C//DTD SVG 1.0//EN" "http://www.w3.org/TR/2001/REC-SVG-20010904/DTD/svg10.dtd">
<svg version="1.0" xmlns="http://www.w3.org/2000/svg" xmlns:xlink="http://www.w3.org/1999/xlink" x="0px" y="0px" width="110px"
	 height="110px" viewBox="0 0 110 110" style="enable-background:new 0 0 110 110;" xml:space="preserve">
<g id="Artboard">
</g>
<g id="Multicolor">
	<circle style="fill:#25B7D3;" cx="55" cy="55" r="55"/>
	<g>
		<g>
			<path style="fill:#FBE158;" d="M34.262,54.597c0.111-0.135,0.235-0.256,0.341-0.397c0.094-0.126,0.243-0.2,0.4-0.2h0.01
				c0.148,0,0.287,0.07,0.375,0.188C37.578,57.111,41.064,59,45,59c3.931,0,7.412-1.884,9.603-4.8c0.094-0.126,0.243-0.2,0.4-0.2
				h0.01c0.148,0,0.287,0.07,0.375,0.188C57.578,57.111,61.064,59,65,59c3.931,0,7.412-1.884,9.603-4.8
				c0.094-0.126,0.243-0.2,0.4-0.2h0.01c0.148,0,0.287,0.07,0.375,0.188c0.109,0.145,0.236,0.27,0.351,0.409L81.88,50l-6.285-4.704
				l3.627-6.963l-7.708-1.5l0.247-7.848l-7.597,1.981l-3.183-7.177L55,28.88l-5.98-5.092l-3.183,7.177l-7.597-1.981l0.247,7.848
				l-7.708,1.5l3.627,6.963L28.12,50L34.262,54.597z"/>
		</g>
		<g>
			<path style="fill:#F3B607;" d="M45,59c3.931,0,7.412-1.884,9.603-4.8c0.094-0.126,0.243-0.2,0.4-0.2h0.01
				c0.148,0,0.287,0.07,0.375,0.188C57.578,57.111,61.064,59,65,59c2.428,0,4.682-0.722,6.569-1.959C72.489,54.878,73,52.499,73,50
				c0-9.941-8.059-18-18-18s-18,8.059-18,18c0,2.499,0.511,4.877,1.431,7.04C40.318,58.277,42.572,59,45,59z"/>
		</g>
		<g>
			<path style="fill:#C9F2F8;" d="M87,70V59.409c0-0.143-0.061-0.28-0.168-0.375c-0.107-0.095-0.25-0.14-0.392-0.122
				c-4.262,0.521-8.466-1.273-11.051-4.724C75.299,54.07,75.16,54,75.013,54h-0.01c-0.157,0-0.306,0.074-0.4,0.2
				C72.412,57.116,68.931,59,65,59c-3.936,0-7.422-1.889-9.612-4.812C55.299,54.07,55.16,54,55.013,54h-0.01
				c-0.157,0-0.306,0.074-0.4,0.2C52.412,57.116,48.931,59,45,59c-3.936,0-7.422-1.889-9.612-4.812C35.299,54.07,35.16,54,35.013,54
				h-0.01c-0.157,0-0.306,0.074-0.4,0.2c-2.591,3.449-6.792,5.231-11.042,4.712c-0.142-0.017-0.285,0.028-0.392,0.123
				C23.061,59.129,23,59.265,23,59.409V70H87z"/>
		</g>
		<g>
			<path style="fill:#9CE5F4;" d="M87,78V67.409c0-0.143-0.061-0.28-0.168-0.375c-0.107-0.095-0.25-0.14-0.392-0.122
				c-4.262,0.521-8.466-1.273-11.051-4.724C75.299,62.07,75.16,62,75.013,62h-0.01c-0.157,0-0.306,0.074-0.4,0.2
				C72.412,65.116,68.931,67,65,67c-3.936,0-7.422-1.889-9.612-4.812C55.299,62.07,55.16,62,55.013,62h-0.01
				c-0.157,0-0.306,0.074-0.4,0.2C52.412,65.116,48.931,67,45,67c-3.936,0-7.422-1.889-9.612-4.812C35.299,62.07,35.16,62,35.013,62
				h-0.01c-0.157,0-0.306,0.074-0.4,0.2c-2.591,3.449-6.792,5.231-11.042,4.712c-0.142-0.017-0.285,0.028-0.392,0.123
				C23.061,67.129,23,67.265,23,67.409V78H87z"/>
		</g>
		<g>
			<path style="fill:#6FDAF1;" d="M87,87V76.409c0-0.143-0.061-0.28-0.168-0.375c-0.107-0.095-0.25-0.14-0.392-0.122
				c-4.262,0.521-8.466-1.273-11.051-4.724C75.299,71.07,75.16,71,75.013,71h-0.01c-0.157,0-0.306,0.074-0.4,0.2
				C72.412,74.116,68.931,76,65,76c-3.936,0-7.422-1.889-9.612-4.812C55.299,71.07,55.16,71,55.013,71h-0.01
				c-0.157,0-0.306,0.074-0.4,0.2C52.412,74.116,48.931,76,45,76c-3.936,0-7.422-1.889-9.612-4.812C35.299,71.07,35.16,71,35.013,71
				h-0.01c-0.157,0-0.306,0.074-0.4,0.2c-2.591,3.449-6.792,5.231-11.042,4.712c-0.142-0.017-0.285,0.028-0.392,0.123
				C23.061,76.129,23,76.265,23,76.409V87H87z"/>
		</g>
		<g>
			<path style="fill:#FACB1B;" d="M55,32c-9.941,0-18,8.059-18,18c0,2.499,0.511,4.877,1.431,7.04
				c1.306,0.856,2.791,1.458,4.385,1.752l23.09-23.09C62.877,33.39,59.105,32,55,32z"/>
		</g>
	</g>
</g>
</svg>
