<?xml version="1.0" encoding="iso-8859-1"?>
<!-- Generator: Adobe Illustrator 17.1.0, SVG Export Plug-In . SVG Version: 6.00 Build 0)  -->
<!DOCTYPE svg PUBLIC "-//W3C//DTD SVG 1.0//EN" "http://www.w3.org/TR/2001/REC-SVG-20010904/DTD/svg10.dtd">
<svg version="1.0" xmlns="http://www.w3.org/2000/svg" xmlns:xlink="http://www.w3.org/1999/xlink" x="0px" y="0px" width="110px"
	 height="110px" viewBox="0 0 110 110" style="enable-background:new 0 0 110 110;" xml:space="preserve">
<g id="Artboard">
</g>
<g id="Multicolor">
	<circle style="fill:#E04F5F;" cx="55" cy="55" r="55"/>
	<g>
		<g>
			<rect x="51" y="35" style="fill:#F3B607;" width="8" height="5"/>
		</g>
		<g>
			<rect x="53" y="32" style="fill:#F3B607;" width="4" height="3"/>
		</g>
		<g>
			<rect x="23" y="79" style="fill:#F3B607;" width="64" height="4"/>
		</g>
		<g>
			<path style="fill:#F3B607;" d="M23,79c4-2,5-4,5-8h54c0,4,2,6,5,8H23z"/>
		</g>
		<g>
			<path style="fill:#FACB1B;" d="M27.241,69.947c-0.015,0.274,0.084,0.542,0.273,0.742S27.965,71,28.24,71h53.929
				c0.274,0,0.537-0.113,0.726-0.312s0.288-0.467,0.274-0.741C82.873,64.418,80.159,39,55.205,39S27.536,64.418,27.241,69.947z"/>
		</g>
		<g>
			<path style="fill:#F3B607;" d="M55.205,71H28c0,4-1,6-5,8h32.205V71z"/>
		</g>
		<g>
			<rect x="23" y="79" style="fill:#FACB1B;" width="32.205" height="4"/>
		</g>
		<g>
			<path style="fill:#FBE158;" d="M55.205,39C30.25,39,27.536,64.417,27.241,69.947c-0.015,0.274,0.084,0.542,0.273,0.742
				C27.703,70.888,27.965,71,28.24,71h26.965V39z"/>
		</g>
		<g>
			<path style="fill:#FBE158;" d="M48.91,30.554c-0.17,0.3-0.168,0.667,0.006,0.965C49.089,31.816,49.407,32,49.752,32h10.442
				c0.357,0,0.687-0.191,0.866-0.5c0.179-0.309,0.179-0.691,0-1C59.85,28.408,57.59,27,55,27C52.388,27,50.112,28.432,48.91,30.554z
				"/>
		</g>
	</g>
</g>
</svg>
