<?xml version="1.0" encoding="iso-8859-1"?>
<!-- Generator: Adobe Illustrator 17.1.0, SVG Export Plug-In . SVG Version: 6.00 Build 0)  -->
<!DOCTYPE svg PUBLIC "-//W3C//DTD SVG 1.0//EN" "http://www.w3.org/TR/2001/REC-SVG-20010904/DTD/svg10.dtd">
<svg version="1.0" xmlns="http://www.w3.org/2000/svg" xmlns:xlink="http://www.w3.org/1999/xlink" x="0px" y="0px" width="110px"
	 height="110px" viewBox="0 0 110 110" style="enable-background:new 0 0 110 110;" xml:space="preserve">
<g id="Artboard" style="display:none;">
	<rect x="-95" y="-583" style="display:inline;fill:#8C8C8C;" width="1412" height="743"/>
</g>
<g id="R-Multicolor">
	<circle style="fill:#25B7D3;" cx="55" cy="55" r="55"/>
	<g>
		<path style="fill:#E2E4E5;" d="M85,51h-6.34c-0.61-3.65-2.04-7.01-4.1-9.9l4.48-4.48c0.78-0.79,0.78-2.05,0-2.83l-2.83-2.83
			c-0.78-0.78-2.04-0.78-2.83,0l-4.48,4.48c-2.89-2.06-6.25-3.49-9.9-4.1V25c0-1.1-0.9-2-2-2h-4c-1.1,0-2,0.9-2,2v6.34
			c-3.65,0.61-7.01,2.04-9.9,4.1l-4.48-4.48c-0.79-0.78-2.05-0.78-2.83,0l-2.83,2.83c-0.78,0.78-0.78,2.04,0,2.83l4.48,4.48
			c-2.06,2.89-3.49,6.25-4.1,9.9H25c-1.1,0-2,0.9-2,2v4c0,1.1,0.9,2,2,2h6.34c0.61,3.65,2.04,7.01,4.1,9.9l-4.48,4.48
			c-0.78,0.79-0.78,2.05,0,2.83l2.83,2.83c0.78,0.78,2.04,0.78,2.83,0l4.48-4.48c2.89,2.06,6.25,3.49,9.9,4.1V85c0,1.1,0.9,2,2,2h4
			c1.1,0,2-0.9,2-2v-6.34c3.65-0.61,7.01-2.04,9.9-4.1l4.48,4.48c0.79,0.78,2.05,0.78,2.83,0l2.83-2.83c0.78-0.78,0.78-2.04,0-2.83
			l-4.48-4.48c2.06-2.89,3.49-6.25,4.1-9.9H85c1.1,0,2-0.9,2-2v-4C87,51.9,86.1,51,85,51z M55,73c-9.916,0-18-8.079-18-18
			c0-9.838,7.991-18,18-18c9.853,0,18,8.018,18,18C73,64.838,65.009,73,55,73z"/>
		<path style="fill:#FFFFFF;" d="M73.38,30.96l-4.48,4.48c-2.89-2.06-6.25-3.49-9.9-4.1V25c0-1.1-0.9-2-2-2h-4c-1.1,0-2,0.9-2,2
			v6.34c-3.65,0.61-7.01,2.04-9.9,4.1l-4.48-4.48c-0.79-0.78-2.05-0.78-2.83,0l-2.83,2.83c-0.78,0.78-0.78,2.04,0,2.83l4.48,4.48
			c-2.06,2.89-3.49,6.25-4.1,9.9H25c-1.1,0-2,0.9-2,2v4c0,1.1,0.9,2,2,2h6.34c0.61,3.65,2.04,7.01,4.1,9.9l-4.48,4.48
			c-0.78,0.79-0.78,2.05,0,2.83l1.386,1.386l9.907-9.907C39.01,64.431,37,59.945,37,55c0-9.838,7.991-18,18-18
			c4.924,0,9.421,2.003,12.689,5.252l9.906-9.906L76.21,30.96C75.43,30.18,74.17,30.18,73.38,30.96z"/>
		<path style="fill:#CFD3D4;" d="M55,37c-9.941,0-18,8.059-18,18s8.059,18,18,18c9.941,0,18-8.059,18-18S64.941,37,55,37z M55,67
			c-6.627,0-12-5.373-12-12s5.373-12,12-12s12,5.373,12,12S61.627,67,55,67z"/>
		<path style="fill:#E2E4E5;" d="M55,37c-9.941,0-18,8.059-18,18c0,4.956,2.004,9.442,5.244,12.697l4.243-4.243
			C44.333,61.285,43,58.299,43,55c0-6.627,5.373-12,12-12c3.299,0,6.285,1.333,8.455,3.487l4.243-4.243
			C64.442,39.004,59.956,37,55,37z"/>
		<path style="fill:#E2E4E5;" d="M55,43c-6.627,0-12,5.373-12,12s5.373,12,12,12s12-5.373,12-12S61.627,43,55,43z M55,63
			c-4.418,0-8-3.582-8-8s3.582-8,8-8s8,3.582,8,8S59.418,63,55,63z"/>
		<path style="fill:#FFFFFF;" d="M55,43c-6.627,0-12,5.373-12,12c0,3.299,1.333,6.285,3.487,8.455l2.828-2.829
			C47.885,59.181,47,57.194,47,55c0-4.418,3.582-8,8-8c2.194,0,4.181,0.885,5.626,2.315l2.829-2.828C61.285,44.333,58.299,43,55,43z
			"/>
	</g>
</g>
<g id="Multicolor" style="display:none;">
	<g style="display:inline;">
		<path style="fill:#E2E4E5;" d="M85,51h-6.34c-0.61-3.65-2.04-7.01-4.1-9.9l4.48-4.48c0.78-0.79,0.78-2.05,0-2.83l-2.83-2.83
			c-0.78-0.78-2.04-0.78-2.83,0l-4.48,4.48c-2.89-2.06-6.25-3.49-9.9-4.1V25c0-1.1-0.9-2-2-2h-4c-1.1,0-2,0.9-2,2v6.34
			c-3.65,0.61-7.01,2.04-9.9,4.1l-4.48-4.48c-0.79-0.78-2.05-0.78-2.83,0l-2.83,2.83c-0.78,0.78-0.78,2.04,0,2.83l4.48,4.48
			c-2.06,2.89-3.49,6.25-4.1,9.9H25c-1.1,0-2,0.9-2,2v4c0,1.1,0.9,2,2,2h6.34c0.61,3.65,2.04,7.01,4.1,9.9l-4.48,4.48
			c-0.78,0.79-0.78,2.05,0,2.83l2.83,2.83c0.78,0.78,2.04,0.78,2.83,0l4.48-4.48c2.89,2.06,6.25,3.49,9.9,4.1V85c0,1.1,0.9,2,2,2h4
			c1.1,0,2-0.9,2-2v-6.34c3.65-0.61,7.01-2.04,9.9-4.1l4.48,4.48c0.79,0.78,2.05,0.78,2.83,0l2.83-2.83c0.78-0.78,0.78-2.04,0-2.83
			l-4.48-4.48c2.06-2.89,3.49-6.25,4.1-9.9H85c1.1,0,2-0.9,2-2v-4C87,51.9,86.1,51,85,51z M55,73c-9.916,0-18-8.079-18-18
			c0-9.838,7.991-18,18-18c9.853,0,18,8.018,18,18C73,64.838,65.009,73,55,73z"/>
		<path style="fill:#FFFFFF;" d="M73.38,30.96l-4.48,4.48c-2.89-2.06-6.25-3.49-9.9-4.1V25c0-1.1-0.9-2-2-2h-4c-1.1,0-2,0.9-2,2
			v6.34c-3.65,0.61-7.01,2.04-9.9,4.1l-4.48-4.48c-0.79-0.78-2.05-0.78-2.83,0l-2.83,2.83c-0.78,0.78-0.78,2.04,0,2.83l4.48,4.48
			c-2.06,2.89-3.49,6.25-4.1,9.9H25c-1.1,0-2,0.9-2,2v4c0,1.1,0.9,2,2,2h6.34c0.61,3.65,2.04,7.01,4.1,9.9l-4.48,4.48
			c-0.78,0.79-0.78,2.05,0,2.83l1.386,1.386l9.907-9.907C39.01,64.431,37,59.945,37,55c0-9.838,7.991-18,18-18
			c4.924,0,9.421,2.003,12.689,5.252l9.906-9.906L76.21,30.96C75.43,30.18,74.17,30.18,73.38,30.96z"/>
		<path style="fill:#CFD3D4;" d="M55,37c-9.941,0-18,8.059-18,18s8.059,18,18,18c9.941,0,18-8.059,18-18S64.941,37,55,37z M55,67
			c-6.627,0-12-5.373-12-12s5.373-12,12-12s12,5.373,12,12S61.627,67,55,67z"/>
		<path style="fill:#E2E4E5;" d="M55,37c-9.941,0-18,8.059-18,18c0,4.956,2.004,9.442,5.244,12.697l4.243-4.243
			C44.333,61.285,43,58.299,43,55c0-6.627,5.373-12,12-12c3.299,0,6.285,1.333,8.455,3.487l4.243-4.243
			C64.442,39.004,59.956,37,55,37z"/>
		<path style="fill:#E2E4E5;" d="M55,43c-6.627,0-12,5.373-12,12s5.373,12,12,12s12-5.373,12-12S61.627,43,55,43z M55,63
			c-4.418,0-8-3.582-8-8s3.582-8,8-8s8,3.582,8,8S59.418,63,55,63z"/>
		<path style="fill:#FFFFFF;" d="M55,43c-6.627,0-12,5.373-12,12c0,3.299,1.333,6.285,3.487,8.455l2.828-2.829
			C47.885,59.181,47,57.194,47,55c0-4.418,3.582-8,8-8c2.194,0,4.181,0.885,5.626,2.315l2.829-2.828C61.285,44.333,58.299,43,55,43z
			"/>
	</g>
</g>
<g id="Blue" style="display:none;">
	<g style="display:inline;">
		<g>
			<path style="fill:#E1F5FA;" d="M85.003,51h-6.34c-0.61-3.65-2.04-7.01-4.1-9.9l4.48-4.48c0.78-0.79,0.78-2.05,0-2.83l-2.83-2.83
				c-0.78-0.78-2.04-0.78-2.83,0l-4.48,4.48c-2.89-2.06-6.25-3.49-9.9-4.1V25c0-1.1-0.9-2-2-2h-4c-1.1,0-2,0.9-2,2v6.34
				c-3.65,0.61-7.01,2.04-9.9,4.1l-4.48-4.48c-0.79-0.78-2.05-0.78-2.83,0l-2.83,2.83c-0.78,0.78-0.78,2.04,0,2.83l4.48,4.48
				c-2.06,2.89-3.49,6.25-4.1,9.9h-6.34c-1.1,0-2,0.9-2,2v4c0,1.1,0.9,2,2,2h6.34c0.61,3.65,2.04,7.01,4.1,9.9l-4.48,4.48
				c-0.78,0.79-0.78,2.05,0,2.83l2.83,2.83c0.78,0.78,2.04,0.78,2.83,0l4.48-4.48c2.89,2.06,6.25,3.49,9.9,4.1V85c0,1.1,0.9,2,2,2h4
				c1.1,0,2-0.9,2-2v-6.34c3.65-0.61,7.01-2.04,9.9-4.1l4.48,4.48c0.79,0.78,2.05,0.78,2.83,0l2.83-2.83c0.78-0.78,0.78-2.04,0-2.83
				l-4.48-4.48c2.06-2.89,3.49-6.25,4.1-9.9h6.34c1.1,0,2-0.9,2-2v-4C87.003,51.9,86.103,51,85.003,51z M55.003,73
				c-9.916,0-18-8.079-18-18c0-9.838,7.991-18,18-18c9.853,0,18,8.019,18,18C73.003,64.838,65.012,73,55.003,73z"/>
		</g>
		<g>
			<path style="fill:#FFFFFF;" d="M73.383,30.96l-4.48,4.48c-2.89-2.06-6.25-3.49-9.9-4.1V25c0-1.1-0.9-2-2-2h-4c-1.1,0-2,0.9-2,2
				v6.34c-3.65,0.61-7.01,2.04-9.9,4.1l-4.48-4.48c-0.79-0.78-2.05-0.78-2.83,0l-2.83,2.83c-0.78,0.78-0.78,2.04,0,2.83l4.48,4.48
				c-2.06,2.89-3.49,6.25-4.1,9.9h-6.34c-1.1,0-2,0.9-2,2v4c0,1.1,0.9,2,2,2h6.34c0.61,3.65,2.04,7.01,4.1,9.9l-4.48,4.48
				c-0.78,0.79-0.78,2.05,0,2.83l1.386,1.386l9.907-9.907c-3.243-3.257-5.252-7.744-5.252-12.689c0-9.838,7.991-18,18-18
				c4.924,0,9.421,2.003,12.69,5.252l9.906-9.906l-1.386-1.386C75.433,30.18,74.173,30.18,73.383,30.96z"/>
		</g>
		<g>
			<path style="fill:#009FC7;" d="M55.003,37c-9.941,0-18,8.059-18,18s8.059,18,18,18c9.941,0,18-8.059,18-18S64.944,37,55.003,37z
				 M55.003,67c-6.627,0-12-5.373-12-12s5.373-12,12-12s12,5.373,12,12S61.63,67,55.003,67z"/>
		</g>
		<g>
			<path style="fill:#00B7E5;" d="M55.003,37c-9.941,0-18,8.059-18,18c0,4.956,2.004,9.442,5.244,12.697l4.243-4.243
				c-2.154-2.169-3.487-5.156-3.487-8.455c0-6.627,5.373-12,12-12c3.299,0,6.285,1.333,8.455,3.487l4.243-4.243
				C64.445,39.004,59.958,37,55.003,37z"/>
		</g>
		<g>
			<path style="fill:#BBE7F2;" d="M55.003,43c-6.627,0-12,5.373-12,12s5.373,12,12,12s12-5.373,12-12S61.63,43,55.003,43z
				 M55.003,63c-4.418,0-8-3.582-8-8s3.582-8,8-8s8,3.582,8,8S59.421,63,55.003,63z"/>
		</g>
		<g>
			<path style="fill:#FFFFFF;" d="M55.003,43c-6.627,0-12,5.373-12,12c0,3.299,1.333,6.285,3.487,8.455l2.828-2.829
				c-1.43-1.445-2.315-3.432-2.315-5.626c0-4.418,3.582-8,8-8c2.194,0,4.181,0.885,5.625,2.315l2.829-2.828
				C61.288,44.332,58.302,43,55.003,43z"/>
		</g>
	</g>
</g>
<g id="R-Blue" style="display:none;">
	<g style="display:inline;">
		<circle style="fill:#81D2EB;" cx="55" cy="55" r="55"/>
	</g>
	<g style="display:inline;">
		<g>
			<path style="fill:#E1F5FA;" d="M85,51h-6.34c-0.61-3.65-2.04-7.01-4.1-9.9l4.48-4.48c0.78-0.79,0.78-2.05,0-2.83l-2.83-2.83
				c-0.78-0.78-2.04-0.78-2.83,0l-4.48,4.48c-2.89-2.06-6.25-3.49-9.9-4.1V25c0-1.1-0.9-2-2-2h-4c-1.1,0-2,0.9-2,2v6.34
				c-3.65,0.61-7.01,2.04-9.9,4.1l-4.48-4.48c-0.79-0.78-2.05-0.78-2.83,0l-2.83,2.83c-0.78,0.78-0.78,2.04,0,2.83l4.48,4.48
				c-2.06,2.89-3.49,6.25-4.1,9.9H25c-1.1,0-2,0.9-2,2v4c0,1.1,0.9,2,2,2h6.34c0.61,3.65,2.04,7.01,4.1,9.9l-4.48,4.48
				c-0.78,0.79-0.78,2.05,0,2.83l2.83,2.83c0.78,0.78,2.04,0.78,2.83,0l4.48-4.48c2.89,2.06,6.25,3.49,9.9,4.1V85c0,1.1,0.9,2,2,2h4
				c1.1,0,2-0.9,2-2v-6.34c3.65-0.61,7.01-2.04,9.9-4.1l4.48,4.48c0.79,0.78,2.05,0.78,2.83,0l2.83-2.83c0.78-0.78,0.78-2.04,0-2.83
				l-4.48-4.48c2.06-2.89,3.49-6.25,4.1-9.9H85c1.1,0,2-0.9,2-2v-4C87,51.9,86.1,51,85,51z M55,73c-9.916,0-18-8.079-18-18
				c0-9.838,7.991-18,18-18c9.853,0,18,8.019,18,18C73,64.838,65.009,73,55,73z"/>
		</g>
		<g>
			<path style="fill:#FFFFFF;" d="M73.38,30.96l-4.48,4.48c-2.89-2.06-6.25-3.49-9.9-4.1V25c0-1.1-0.9-2-2-2h-4c-1.1,0-2,0.9-2,2
				v6.34c-3.65,0.61-7.01,2.04-9.9,4.1l-4.48-4.48c-0.79-0.78-2.05-0.78-2.83,0l-2.83,2.83c-0.78,0.78-0.78,2.04,0,2.83l4.48,4.48
				c-2.06,2.89-3.49,6.25-4.1,9.9H25c-1.1,0-2,0.9-2,2v4c0,1.1,0.9,2,2,2h6.34c0.61,3.65,2.04,7.01,4.1,9.9l-4.48,4.48
				c-0.78,0.79-0.78,2.05,0,2.83l1.386,1.386l9.907-9.907C39.01,64.431,37,59.945,37,55c0-9.838,7.991-18,18-18
				c4.924,0,9.421,2.003,12.689,5.252l9.906-9.906L76.21,30.96C75.43,30.18,74.17,30.18,73.38,30.96z"/>
		</g>
		<g>
			<path style="fill:#009FC7;" d="M55,37c-9.941,0-18,8.059-18,18s8.059,18,18,18c9.941,0,18-8.059,18-18S64.941,37,55,37z M55,67
				c-6.627,0-12-5.373-12-12s5.373-12,12-12s12,5.373,12,12S61.627,67,55,67z"/>
		</g>
		<g>
			<path style="fill:#00B7E5;" d="M55,37c-9.941,0-18,8.059-18,18c0,4.956,2.004,9.442,5.244,12.697l4.243-4.243
				C44.333,61.285,43,58.299,43,55c0-6.627,5.373-12,12-12c3.299,0,6.285,1.333,8.455,3.487l4.243-4.243
				C64.442,39.004,59.956,37,55,37z"/>
		</g>
		<g>
			<path style="fill:#BBE7F2;" d="M55,43c-6.627,0-12,5.373-12,12s5.373,12,12,12s12-5.373,12-12S61.627,43,55,43z M55,63
				c-4.418,0-8-3.582-8-8s3.582-8,8-8s8,3.582,8,8S59.418,63,55,63z"/>
		</g>
		<g>
			<path style="fill:#FFFFFF;" d="M55,43c-6.627,0-12,5.373-12,12c0,3.299,1.333,6.285,3.487,8.455l2.828-2.829
				C47.885,59.181,47,57.194,47,55c0-4.418,3.582-8,8-8c2.194,0,4.181,0.885,5.625,2.315l2.829-2.828C61.285,44.333,58.299,43,55,43
				z"/>
		</g>
	</g>
</g>
<g id="Green" style="display:none;">
	<g style="display:inline;">
		<g>
			<path style="fill:#D7FCF9;" d="M85.003,51h-6.34c-0.61-3.65-2.04-7.01-4.1-9.9l4.48-4.48c0.78-0.79,0.78-2.05,0-2.83l-2.83-2.83
				c-0.78-0.78-2.04-0.78-2.83,0l-4.48,4.48c-2.89-2.06-6.25-3.49-9.9-4.1V25c0-1.1-0.9-2-2-2h-4c-1.1,0-2,0.9-2,2v6.34
				c-3.65,0.61-7.01,2.04-9.9,4.1l-4.48-4.48c-0.79-0.78-2.05-0.78-2.83,0l-2.83,2.83c-0.78,0.78-0.78,2.04,0,2.83l4.48,4.48
				c-2.06,2.89-3.49,6.25-4.1,9.9h-6.34c-1.1,0-2,0.9-2,2v4c0,1.1,0.9,2,2,2h6.34c0.61,3.65,2.04,7.01,4.1,9.9l-4.48,4.48
				c-0.78,0.79-0.78,2.05,0,2.83l2.83,2.83c0.78,0.78,2.04,0.78,2.83,0l4.48-4.48c2.89,2.06,6.25,3.49,9.9,4.1V85c0,1.1,0.9,2,2,2h4
				c1.1,0,2-0.9,2-2v-6.34c3.65-0.61,7.01-2.04,9.9-4.1l4.48,4.48c0.79,0.78,2.05,0.78,2.83,0l2.83-2.83c0.78-0.78,0.78-2.04,0-2.83
				l-4.48-4.48c2.06-2.89,3.49-6.25,4.1-9.9h6.34c1.1,0,2-0.9,2-2v-4C87.003,51.9,86.103,51,85.003,51z M55.003,73
				c-9.916,0-18-8.079-18-18c0-9.838,7.991-18,18-18c9.853,0,18,8.019,18,18C73.003,64.838,65.012,73,55.003,73z"/>
		</g>
		<g>
			<path style="fill:#FFFFFF;" d="M73.383,30.96l-4.48,4.48c-2.89-2.06-6.25-3.49-9.9-4.1V25c0-1.1-0.9-2-2-2h-4c-1.1,0-2,0.9-2,2
				v6.34c-3.65,0.61-7.01,2.04-9.9,4.1l-4.48-4.48c-0.79-0.78-2.05-0.78-2.83,0l-2.83,2.83c-0.78,0.78-0.78,2.04,0,2.83l4.48,4.48
				c-2.06,2.89-3.49,6.25-4.1,9.9h-6.34c-1.1,0-2,0.9-2,2v4c0,1.1,0.9,2,2,2h6.34c0.61,3.65,2.04,7.01,4.1,9.9l-4.48,4.48
				c-0.78,0.79-0.78,2.05,0,2.83l1.386,1.386l9.907-9.907c-3.243-3.257-5.252-7.744-5.252-12.688c0-9.838,7.991-18,18-18
				c4.924,0,9.421,2.003,12.69,5.252l9.906-9.906l-1.386-1.386C75.433,30.18,74.173,30.18,73.383,30.96z"/>
		</g>
		<g>
			<path style="fill:#00B8A5;" d="M55.003,37c-9.941,0-18,8.059-18,18s8.059,18,18,18c9.941,0,18-8.059,18-18S64.944,37,55.003,37z
				 M55.003,67c-6.627,0-12-5.373-12-12s5.373-12,12-12s12,5.373,12,12S61.63,67,55.003,67z"/>
		</g>
		<g>
			<path style="fill:#00D6C1;" d="M55.003,37c-9.941,0-18,8.059-18,18c0,4.956,2.004,9.442,5.244,12.697l4.243-4.243
				c-2.154-2.169-3.487-5.156-3.487-8.455c0-6.627,5.373-12,12-12c3.299,0,6.285,1.333,8.455,3.487l4.243-4.243
				C64.445,39.004,59.958,37,55.003,37z"/>
		</g>
		<g>
			<path style="fill:#AAF0E9;" d="M55.003,43c-6.627,0-12,5.373-12,12s5.373,12,12,12s12-5.373,12-12S61.63,43,55.003,43z
				 M55.003,63c-4.418,0-8-3.582-8-8s3.582-8,8-8s8,3.582,8,8S59.421,63,55.003,63z"/>
		</g>
		<g>
			<path style="fill:#FFFFFF;" d="M55.003,43c-6.627,0-12,5.373-12,12c0,3.299,1.333,6.285,3.487,8.455l2.828-2.829
				c-1.43-1.445-2.315-3.432-2.315-5.626c0-4.418,3.582-8,8-8c2.194,0,4.181,0.885,5.625,2.315l2.829-2.828
				C61.288,44.333,58.302,43,55.003,43z"/>
		</g>
	</g>
</g>
<g id="R-Green" style="display:none;">
	<g style="display:inline;">
		<circle style="fill:#87E0C8;" cx="55" cy="55" r="55"/>
	</g>
	<g style="display:inline;">
		<g>
			<path style="fill:#D7FCF9;" d="M85,51h-6.34c-0.61-3.65-2.04-7.01-4.1-9.9l4.48-4.48c0.78-0.79,0.78-2.05,0-2.83l-2.83-2.83
				c-0.78-0.78-2.04-0.78-2.83,0l-4.48,4.48c-2.89-2.06-6.25-3.49-9.9-4.1V25c0-1.1-0.9-2-2-2h-4c-1.1,0-2,0.9-2,2v6.34
				c-3.65,0.61-7.01,2.04-9.9,4.1l-4.48-4.48c-0.79-0.78-2.05-0.78-2.83,0l-2.83,2.83c-0.78,0.78-0.78,2.04,0,2.83l4.48,4.48
				c-2.06,2.89-3.49,6.25-4.1,9.9H25c-1.1,0-2,0.9-2,2v4c0,1.1,0.9,2,2,2h6.34c0.61,3.65,2.04,7.01,4.1,9.9l-4.48,4.48
				c-0.78,0.79-0.78,2.05,0,2.83l2.83,2.83c0.78,0.78,2.04,0.78,2.83,0l4.48-4.48c2.89,2.06,6.25,3.49,9.9,4.1V85c0,1.1,0.9,2,2,2h4
				c1.1,0,2-0.9,2-2v-6.34c3.65-0.61,7.01-2.04,9.9-4.1l4.48,4.48c0.79,0.78,2.05,0.78,2.83,0l2.83-2.83c0.78-0.78,0.78-2.04,0-2.83
				l-4.48-4.48c2.06-2.89,3.49-6.25,4.1-9.9H85c1.1,0,2-0.9,2-2v-4C87,51.9,86.1,51,85,51z M55,73c-9.916,0-18-8.079-18-18
				c0-9.838,7.991-18,18-18c9.853,0,18,8.019,18,18C73,64.838,65.009,73,55,73z"/>
		</g>
		<g>
			<path style="fill:#FFFFFF;" d="M73.38,30.96l-4.48,4.48c-2.89-2.06-6.25-3.49-9.9-4.1V25c0-1.1-0.9-2-2-2h-4c-1.1,0-2,0.9-2,2
				v6.34c-3.65,0.61-7.01,2.04-9.9,4.1l-4.48-4.48c-0.79-0.78-2.05-0.78-2.83,0l-2.83,2.83c-0.78,0.78-0.78,2.04,0,2.83l4.48,4.48
				c-2.06,2.89-3.49,6.25-4.1,9.9H25c-1.1,0-2,0.9-2,2v4c0,1.1,0.9,2,2,2h6.34c0.61,3.65,2.04,7.01,4.1,9.9l-4.48,4.48
				c-0.78,0.79-0.78,2.05,0,2.83l1.386,1.386l9.907-9.907C39.01,64.431,37,59.945,37,55c0-9.838,7.991-18,18-18
				c4.924,0,9.421,2.003,12.689,5.252l9.906-9.906L76.21,30.96C75.43,30.18,74.17,30.18,73.38,30.96z"/>
		</g>
		<g>
			<path style="fill:#00B8A5;" d="M55,37c-9.941,0-18,8.059-18,18s8.059,18,18,18c9.941,0,18-8.059,18-18S64.941,37,55,37z M55,67
				c-6.627,0-12-5.373-12-12s5.373-12,12-12s12,5.373,12,12S61.627,67,55,67z"/>
		</g>
		<g>
			<path style="fill:#00D6C1;" d="M55,37c-9.941,0-18,8.059-18,18c0,4.956,2.004,9.442,5.244,12.697l4.243-4.243
				C44.333,61.285,43,58.299,43,55c0-6.627,5.373-12,12-12c3.299,0,6.285,1.333,8.455,3.487l4.243-4.243
				C64.442,39.004,59.956,37,55,37z"/>
		</g>
		<g>
			<path style="fill:#AAF0E9;" d="M55,43c-6.627,0-12,5.373-12,12s5.373,12,12,12s12-5.373,12-12S61.627,43,55,43z M55,63
				c-4.418,0-8-3.582-8-8s3.582-8,8-8s8,3.582,8,8S59.418,63,55,63z"/>
		</g>
		<g>
			<path style="fill:#FFFFFF;" d="M55,43c-6.627,0-12,5.373-12,12c0,3.299,1.333,6.285,3.487,8.455l2.828-2.829
				C47.885,59.181,47,57.194,47,55c0-4.418,3.582-8,8-8c2.194,0,4.181,0.885,5.625,2.315l2.829-2.828C61.285,44.333,58.299,43,55,43
				z"/>
		</g>
	</g>
</g>
<g id="Red" style="display:none;">
	<g style="display:inline;">
		<g>
			<path style="fill:#FFEFED;" d="M85,51h-6.34c-0.61-3.65-2.04-7.01-4.1-9.9l4.48-4.48c0.78-0.79,0.78-2.05,0-2.83l-2.83-2.83
				c-0.78-0.78-2.04-0.78-2.83,0l-4.48,4.48c-2.89-2.06-6.25-3.49-9.9-4.1V25c0-1.1-0.9-2-2-2h-4c-1.1,0-2,0.9-2,2v6.34
				c-3.65,0.61-7.01,2.04-9.9,4.1l-4.48-4.48c-0.79-0.78-2.05-0.78-2.83,0l-2.83,2.83c-0.78,0.78-0.78,2.04,0,2.83l4.48,4.48
				c-2.06,2.89-3.49,6.25-4.1,9.9H25c-1.1,0-2,0.9-2,2v4c0,1.1,0.9,2,2,2h6.34c0.61,3.65,2.04,7.01,4.1,9.9l-4.48,4.48
				c-0.78,0.79-0.78,2.05,0,2.83l2.83,2.83c0.78,0.78,2.04,0.78,2.83,0l4.48-4.48c2.89,2.06,6.25,3.49,9.9,4.1V85c0,1.1,0.9,2,2,2h4
				c1.1,0,2-0.9,2-2v-6.34c3.65-0.61,7.01-2.04,9.9-4.1l4.48,4.48c0.79,0.78,2.05,0.78,2.83,0l2.83-2.83c0.78-0.78,0.78-2.04,0-2.83
				l-4.48-4.48c2.06-2.89,3.49-6.25,4.1-9.9H85c1.1,0,2-0.9,2-2v-4C87,51.9,86.1,51,85,51z M55,73c-9.916,0-18-8.079-18-18
				c0-9.838,7.991-18,18-18c9.853,0,18,8.019,18,18C73,64.838,65.009,73,55,73z"/>
		</g>
		<g>
			<path style="fill:#FFFFFF;" d="M73.38,30.96l-4.48,4.48c-2.89-2.06-6.25-3.49-9.9-4.1V25c0-1.1-0.9-2-2-2h-4c-1.1,0-2,0.9-2,2
				v6.34c-3.65,0.61-7.01,2.04-9.9,4.1l-4.48-4.48c-0.79-0.78-2.05-0.78-2.83,0l-2.83,2.83c-0.78,0.78-0.78,2.04,0,2.83l4.48,4.48
				c-2.06,2.89-3.49,6.25-4.1,9.9H25c-1.1,0-2,0.9-2,2v4c0,1.1,0.9,2,2,2h6.34c0.61,3.65,2.04,7.01,4.1,9.9l-4.48,4.48
				c-0.78,0.79-0.78,2.05,0,2.83l1.386,1.386l9.907-9.907C39.01,64.431,37,59.945,37,55c0-9.838,7.991-18,18-18
				c4.924,0,9.421,2.003,12.689,5.252l9.906-9.906L76.21,30.96C75.43,30.18,74.17,30.18,73.38,30.96z"/>
		</g>
		<g>
			<path style="fill:#E54B44;" d="M55,37c-9.941,0-18,8.059-18,18s8.059,18,18,18c9.941,0,18-8.059,18-18S64.941,37,55,37z M55,67
				c-6.627,0-12-5.373-12-12s5.373-12,12-12s12,5.373,12,12S61.627,67,55,67z"/>
		</g>
		<g>
			<path style="fill:#FF6C5E;" d="M55,37c-9.941,0-18,8.059-18,18c0,4.956,2.004,9.442,5.244,12.697l4.243-4.243
				C44.333,61.285,43,58.299,43,55c0-6.627,5.373-12,12-12c3.299,0,6.285,1.333,8.455,3.487l4.243-4.243
				C64.442,39.004,59.956,37,55,37z"/>
		</g>
		<g>
			<path style="fill:#FFD7D4;" d="M55,43c-6.627,0-12,5.373-12,12s5.373,12,12,12s12-5.373,12-12S61.627,43,55,43z M55,63
				c-4.418,0-8-3.582-8-8s3.582-8,8-8s8,3.582,8,8S59.418,63,55,63z"/>
		</g>
		<g>
			<path style="fill:#FFFFFF;" d="M55,43c-6.627,0-12,5.373-12,12c0,3.299,1.333,6.285,3.487,8.455l2.828-2.829
				C47.885,59.181,47,57.194,47,55c0-4.418,3.582-8,8-8c2.194,0,4.181,0.885,5.625,2.315l2.829-2.828C61.285,44.332,58.299,43,55,43
				z"/>
		</g>
	</g>
</g>
<g id="R-Red" style="display:none;">
	<g style="display:inline;">
		<circle style="fill:#FABBAF;" cx="55" cy="55" r="55"/>
	</g>
	<g style="display:inline;">
		<g>
			<path style="fill:#FFEFED;" d="M85,51h-6.34c-0.61-3.65-2.04-7.01-4.1-9.9l4.48-4.48c0.78-0.79,0.78-2.05,0-2.83l-2.83-2.83
				c-0.78-0.78-2.04-0.78-2.83,0l-4.48,4.48c-2.89-2.06-6.25-3.49-9.9-4.1V25c0-1.1-0.9-2-2-2h-4c-1.1,0-2,0.9-2,2v6.34
				c-3.65,0.61-7.01,2.04-9.9,4.1l-4.48-4.48c-0.79-0.78-2.05-0.78-2.83,0l-2.83,2.83c-0.78,0.78-0.78,2.04,0,2.83l4.48,4.48
				c-2.06,2.89-3.49,6.25-4.1,9.9H25c-1.1,0-2,0.9-2,2v4c0,1.1,0.9,2,2,2h6.34c0.61,3.65,2.04,7.01,4.1,9.9l-4.48,4.48
				c-0.78,0.79-0.78,2.05,0,2.83l2.83,2.83c0.78,0.78,2.04,0.78,2.83,0l4.48-4.48c2.89,2.06,6.25,3.49,9.9,4.1V85c0,1.1,0.9,2,2,2h4
				c1.1,0,2-0.9,2-2v-6.34c3.65-0.61,7.01-2.04,9.9-4.1l4.48,4.48c0.79,0.78,2.05,0.78,2.83,0l2.83-2.83c0.78-0.78,0.78-2.04,0-2.83
				l-4.48-4.48c2.06-2.89,3.49-6.25,4.1-9.9H85c1.1,0,2-0.9,2-2v-4C87,51.9,86.1,51,85,51z M55,73c-9.916,0-18-8.079-18-18
				c0-9.838,7.991-18,18-18c9.853,0,18,8.019,18,18C73,64.838,65.009,73,55,73z"/>
		</g>
		<g>
			<path style="fill:#FFFFFF;" d="M73.38,30.96l-4.48,4.48c-2.89-2.06-6.25-3.49-9.9-4.1V25c0-1.1-0.9-2-2-2h-4c-1.1,0-2,0.9-2,2
				v6.34c-3.65,0.61-7.01,2.04-9.9,4.1l-4.48-4.48c-0.79-0.78-2.05-0.78-2.83,0l-2.83,2.83c-0.78,0.78-0.78,2.04,0,2.83l4.48,4.48
				c-2.06,2.89-3.49,6.25-4.1,9.9H25c-1.1,0-2,0.9-2,2v4c0,1.1,0.9,2,2,2h6.34c0.61,3.65,2.04,7.01,4.1,9.9l-4.48,4.48
				c-0.78,0.79-0.78,2.05,0,2.83l1.386,1.386l9.907-9.907C39.01,64.431,37,59.945,37,55c0-9.838,7.991-18,18-18
				c4.924,0,9.421,2.003,12.689,5.252l9.906-9.906L76.21,30.96C75.43,30.18,74.17,30.18,73.38,30.96z"/>
		</g>
		<g>
			<path style="fill:#E54B44;" d="M55,37c-9.941,0-18,8.059-18,18s8.059,18,18,18c9.941,0,18-8.059,18-18S64.941,37,55,37z M55,67
				c-6.627,0-12-5.373-12-12s5.373-12,12-12s12,5.373,12,12S61.627,67,55,67z"/>
		</g>
		<g>
			<path style="fill:#FF6C5E;" d="M55,37c-9.941,0-18,8.059-18,18c0,4.956,2.004,9.442,5.244,12.697l4.243-4.243
				C44.333,61.285,43,58.299,43,55c0-6.627,5.373-12,12-12c3.299,0,6.285,1.333,8.455,3.487l4.243-4.243
				C64.442,39.004,59.956,37,55,37z"/>
		</g>
		<g>
			<path style="fill:#FFD7D4;" d="M55,43c-6.627,0-12,5.373-12,12s5.373,12,12,12s12-5.373,12-12S61.627,43,55,43z M55,63
				c-4.418,0-8-3.582-8-8s3.582-8,8-8s8,3.582,8,8S59.418,63,55,63z"/>
		</g>
		<g>
			<path style="fill:#FFFFFF;" d="M55,43c-6.627,0-12,5.373-12,12c0,3.299,1.333,6.285,3.487,8.455l2.828-2.829
				C47.885,59.181,47,57.194,47,55c0-4.418,3.582-8,8-8c2.194,0,4.181,0.885,5.625,2.315l2.829-2.828C61.285,44.333,58.299,43,55,43
				z"/>
		</g>
	</g>
</g>
<g id="Yellow" style="display:none;">
	<g style="display:inline;">
		<g>
			<path style="fill:#FFF5D9;" d="M85.003,51h-6.34c-0.61-3.65-2.04-7.01-4.1-9.9l4.48-4.48c0.78-0.79,0.78-2.05,0-2.83l-2.83-2.83
				c-0.78-0.78-2.04-0.78-2.83,0l-4.48,4.48c-2.89-2.06-6.25-3.49-9.9-4.1V25c0-1.1-0.9-2-2-2h-4c-1.1,0-2,0.9-2,2v6.34
				c-3.65,0.61-7.01,2.04-9.9,4.1l-4.48-4.48c-0.79-0.78-2.05-0.78-2.83,0l-2.83,2.83c-0.78,0.78-0.78,2.04,0,2.83l4.48,4.48
				c-2.06,2.89-3.49,6.25-4.1,9.9h-6.34c-1.1,0-2,0.9-2,2v4c0,1.1,0.9,2,2,2h6.34c0.61,3.65,2.04,7.01,4.1,9.9l-4.48,4.48
				c-0.78,0.79-0.78,2.05,0,2.83l2.83,2.83c0.78,0.78,2.04,0.78,2.83,0l4.48-4.48c2.89,2.06,6.25,3.49,9.9,4.1V85c0,1.1,0.9,2,2,2h4
				c1.1,0,2-0.9,2-2v-6.34c3.65-0.61,7.01-2.04,9.9-4.1l4.48,4.48c0.79,0.78,2.05,0.78,2.83,0l2.83-2.83c0.78-0.78,0.78-2.04,0-2.83
				l-4.48-4.48c2.06-2.89,3.49-6.25,4.1-9.9h6.34c1.1,0,2-0.9,2-2v-4C87.003,51.9,86.103,51,85.003,51z M55.003,73
				c-9.916,0-18-8.079-18-18c0-9.838,7.991-18,18-18c9.853,0,18,8.019,18,18C73.003,64.838,65.012,73,55.003,73z"/>
		</g>
		<g>
			<path style="fill:#FFFFFF;" d="M73.383,30.96l-4.48,4.48c-2.89-2.06-6.25-3.49-9.9-4.1V25c0-1.1-0.9-2-2-2h-4c-1.1,0-2,0.9-2,2
				v6.34c-3.65,0.61-7.01,2.04-9.9,4.1l-4.48-4.48c-0.79-0.78-2.05-0.78-2.83,0l-2.83,2.83c-0.78,0.78-0.78,2.04,0,2.83l4.48,4.48
				c-2.06,2.89-3.49,6.25-4.1,9.9h-6.34c-1.1,0-2,0.9-2,2v4c0,1.1,0.9,2,2,2h6.34c0.61,3.65,2.04,7.01,4.1,9.9l-4.48,4.48
				c-0.78,0.79-0.78,2.05,0,2.83l1.386,1.386l9.907-9.907c-3.243-3.257-5.252-7.744-5.252-12.689c0-9.838,7.991-18,18-18
				c4.924,0,9.421,2.003,12.69,5.252l9.906-9.906l-1.386-1.386C75.433,30.18,74.173,30.18,73.383,30.96z"/>
		</g>
		<g>
			<path style="fill:#FA9200;" d="M55.003,37c-9.941,0-18,8.059-18,18s8.059,18,18,18c9.941,0,18-8.059,18-18S64.944,37,55.003,37z
				 M55.003,67c-6.627,0-12-5.373-12-12s5.373-12,12-12s12,5.373,12,12S61.63,67,55.003,67z"/>
		</g>
		<g>
			<path style="fill:#FFAA00;" d="M55.003,37c-9.941,0-18,8.059-18,18c0,4.956,2.004,9.442,5.244,12.697l4.243-4.243
				c-2.154-2.169-3.487-5.156-3.487-8.455c0-6.627,5.373-12,12-12c3.299,0,6.285,1.333,8.455,3.487l4.243-4.243
				C64.445,39.004,59.958,37,55.003,37z"/>
		</g>
		<g>
			<path style="fill:#FFE9A1;" d="M55.003,43c-6.627,0-12,5.373-12,12s5.373,12,12,12s12-5.373,12-12S61.63,43,55.003,43z
				 M55.003,63c-4.418,0-8-3.582-8-8s3.582-8,8-8s8,3.582,8,8S59.421,63,55.003,63z"/>
		</g>
		<g>
			<path style="fill:#FFFFFF;" d="M55.003,43c-6.627,0-12,5.373-12,12c0,3.299,1.333,6.285,3.487,8.455l2.828-2.829
				c-1.43-1.445-2.315-3.432-2.315-5.626c0-4.418,3.582-8,8-8c2.194,0,4.181,0.885,5.625,2.315l2.829-2.828
				C61.288,44.332,58.302,43,55.003,43z"/>
		</g>
	</g>
</g>
<g id="R-Yellow" style="display:none;">
	<g style="display:inline;">
		<circle style="fill:#FFD75E;" cx="55" cy="55" r="55"/>
	</g>
	<g style="display:inline;">
		<g>
			<path style="fill:#FFF5D9;" d="M85,51h-6.34c-0.61-3.65-2.04-7.01-4.1-9.9l4.48-4.48c0.78-0.79,0.78-2.05,0-2.83l-2.83-2.83
				c-0.78-0.78-2.04-0.78-2.83,0l-4.48,4.48c-2.89-2.06-6.25-3.49-9.9-4.1V25c0-1.1-0.9-2-2-2h-4c-1.1,0-2,0.9-2,2v6.34
				c-3.65,0.61-7.01,2.04-9.9,4.1l-4.48-4.48c-0.79-0.78-2.05-0.78-2.83,0l-2.83,2.83c-0.78,0.78-0.78,2.04,0,2.83l4.48,4.48
				c-2.06,2.89-3.49,6.25-4.1,9.9H25c-1.1,0-2,0.9-2,2v4c0,1.1,0.9,2,2,2h6.34c0.61,3.65,2.04,7.01,4.1,9.9l-4.48,4.48
				c-0.78,0.79-0.78,2.05,0,2.83l2.83,2.83c0.78,0.78,2.04,0.78,2.83,0l4.48-4.48c2.89,2.06,6.25,3.49,9.9,4.1V85c0,1.1,0.9,2,2,2h4
				c1.1,0,2-0.9,2-2v-6.34c3.65-0.61,7.01-2.04,9.9-4.1l4.48,4.48c0.79,0.78,2.05,0.78,2.83,0l2.83-2.83c0.78-0.78,0.78-2.04,0-2.83
				l-4.48-4.48c2.06-2.89,3.49-6.25,4.1-9.9H85c1.1,0,2-0.9,2-2v-4C87,51.9,86.1,51,85,51z M55,73c-9.916,0-18-8.079-18-18
				c0-9.838,7.991-18,18-18c9.853,0,18,8.019,18,18C73,64.838,65.009,73,55,73z"/>
		</g>
		<g>
			<path style="fill:#FFFFFF;" d="M73.38,30.96l-4.48,4.48c-2.89-2.06-6.25-3.49-9.9-4.1V25c0-1.1-0.9-2-2-2h-4c-1.1,0-2,0.9-2,2
				v6.34c-3.65,0.61-7.01,2.04-9.9,4.1l-4.48-4.48c-0.79-0.78-2.05-0.78-2.83,0l-2.83,2.83c-0.78,0.78-0.78,2.04,0,2.83l4.48,4.48
				c-2.06,2.89-3.49,6.25-4.1,9.9H25c-1.1,0-2,0.9-2,2v4c0,1.1,0.9,2,2,2h6.34c0.61,3.65,2.04,7.01,4.1,9.9l-4.48,4.48
				c-0.78,0.79-0.78,2.05,0,2.83l1.386,1.386l9.907-9.907C39.01,64.431,37,59.945,37,55c0-9.838,7.991-18,18-18
				c4.924,0,9.421,2.003,12.689,5.252l9.906-9.906L76.21,30.96C75.43,30.18,74.17,30.18,73.38,30.96z"/>
		</g>
		<g>
			<path style="fill:#FA9200;" d="M55,37c-9.941,0-18,8.059-18,18s8.059,18,18,18c9.941,0,18-8.059,18-18S64.941,37,55,37z M55,67
				c-6.627,0-12-5.373-12-12s5.373-12,12-12s12,5.373,12,12S61.627,67,55,67z"/>
		</g>
		<g>
			<path style="fill:#FFAA00;" d="M55,37c-9.941,0-18,8.059-18,18c0,4.956,2.004,9.442,5.244,12.697l4.243-4.243
				C44.333,61.285,43,58.299,43,55c0-6.627,5.373-12,12-12c3.299,0,6.285,1.333,8.455,3.487l4.243-4.243
				C64.442,39.004,59.956,37,55,37z"/>
		</g>
		<g>
			<path style="fill:#FFE9A1;" d="M55,43c-6.627,0-12,5.373-12,12s5.373,12,12,12s12-5.373,12-12S61.627,43,55,43z M55,63
				c-4.418,0-8-3.582-8-8s3.582-8,8-8s8,3.582,8,8S59.418,63,55,63z"/>
		</g>
		<g>
			<path style="fill:#FFFFFF;" d="M55,43c-6.627,0-12,5.373-12,12c0,3.299,1.333,6.285,3.487,8.455l2.828-2.829
				C47.885,59.181,47,57.194,47,55c0-4.418,3.582-8,8-8c2.194,0,4.181,0.885,5.625,2.315l2.829-2.828C61.285,44.333,58.299,43,55,43
				z"/>
		</g>
	</g>
</g>
</svg>
