<?xml version="1.0" encoding="iso-8859-1"?>
<!-- Generator: Adobe Illustrator 17.1.0, SVG Export Plug-In . SVG Version: 6.00 Build 0)  -->
<!DOCTYPE svg PUBLIC "-//W3C//DTD SVG 1.0//EN" "http://www.w3.org/TR/2001/REC-SVG-20010904/DTD/svg10.dtd">
<svg version="1.0" xmlns="http://www.w3.org/2000/svg" xmlns:xlink="http://www.w3.org/1999/xlink" x="0px" y="0px" width="110px"
	 height="110px" viewBox="0 0 110 110" style="enable-background:new 0 0 110 110;" xml:space="preserve">
<g id="Artboard">
</g>
<g id="Multicolor">
	<circle style="fill:#FABC3D;" cx="55" cy="55" r="55"/>
	<g>
		<g>
			<path style="fill:#DF2C2C;" d="M28,47c-1.105,0-2-0.895-2-2V25c0-1.105,0.895-2,2-2h4c1.105,0,2,0.895,2,2v2c0,0,4-4,12-4
				s10,4,18,4s14-4,14-4l5,6c0,0-15.654,40.516-16.919,56.161C65.997,86.199,65.131,87,64.09,87c-4.613,0-13.93,0-18.05,0
				c-0.549,0-1.073-0.225-1.451-0.623c-0.378-0.398-0.575-0.934-0.546-1.482C44.391,78.15,47.175,56.493,68,39c-2,2-5,4-10,4
				s-11-4-15-4c-3.607,0-8.028,1.627-8.861,6.347C33.97,46.302,33.141,47,32.172,47C30.85,47,29.243,47,28,47z"/>
		</g>
		<g>
			<path style="fill:#FA5655;" d="M46,23c-8,0-12,4-12,4v-2c0-1.104-0.895-2-2-2h-4c-1.105,0-2,0.896-2,2v20c0,1.104,0.895,2,2,2
				c1.243,0,2.85,0,4.172,0c0.969,0,1.799-0.698,1.967-1.653C34.972,40.627,39.393,39,43,39c3.975,0,9.925,3.947,14.907,3.996
				l19.83-19.83C76.503,23.918,71.024,27,64,27C56,27,54,23,46,23z"/>
		</g>
	</g>
</g>
</svg>
