<?xml version="1.0" encoding="iso-8859-1"?>
<!-- Generator: Adobe Illustrator 17.1.0, SVG Export Plug-In . SVG Version: 6.00 Build 0)  -->
<!DOCTYPE svg PUBLIC "-//W3C//DTD SVG 1.0//EN" "http://www.w3.org/TR/2001/REC-SVG-20010904/DTD/svg10.dtd">
<svg version="1.0" xmlns="http://www.w3.org/2000/svg" xmlns:xlink="http://www.w3.org/1999/xlink" x="0px" y="0px" width="110px"
	 height="110px" viewBox="0 0 110 110" style="enable-background:new 0 0 110 110;" xml:space="preserve">
<g id="Artboard">
</g>
<g id="Multicolor">
	<circle style="fill:#FABC3D;" cx="55" cy="55" r="55"/>
	<g>
		<g>
			<path style="fill:#3E3E3F;" d="M72.6,29.2c-0.303-0.227-0.708-0.264-1.047-0.094C71.214,29.275,71,29.621,71,30v9H55H39v-9
				c0-0.379-0.214-0.725-0.553-0.894c-0.339-0.169-0.744-0.133-1.047,0.094l-2,1.5c-0.252,0.189-0.4,0.485-0.4,0.8V43
				c13.442,8.377,6,22,6,32c0,6.867,6.6,12,14,12c7.456,0,14-5.169,14-12c0-10-7.702-21.932,6-32V31.5c0-0.315-0.148-0.611-0.4-0.8
				L72.6,29.2z"/>
		</g>
		<g>
			<path style="fill:#5B5C5F;" d="M39,39v-9c0-0.379-0.214-0.725-0.553-0.895S37.703,28.973,37.4,29.2l-2,1.5
				c-0.251,0.189-0.4,0.485-0.4,0.8V43c13.441,8.377,6,22,6,32c0,6.867,6.601,12,14,12V39H39z"/>
		</g>
		<g>
			<rect x="39" y="32" style="fill:#CFD3D4;" width="32" height="7"/>
		</g>
		<g>
			<path style="fill:#F0F1F1;" d="M69,24.5c0-0.828-0.672-1.5-1.5-1.5S66,23.672,66,24.5V39h3V24.5z"/>
		</g>
		<g>
			<path style="fill:#F0F1F1;" d="M64,24.5c0-0.828-0.672-1.5-1.5-1.5S61,23.672,61,24.5V39h3V24.5z"/>
		</g>
		<g>
			<path style="fill:#F0F1F1;" d="M59,24.5c0-0.828-0.672-1.5-1.5-1.5S56,23.672,56,24.5V39h3V24.5z"/>
		</g>
		<g>
			<path style="fill:#F0F1F1;" d="M54,24.5c0-0.828-0.672-1.5-1.5-1.5S51,23.672,51,24.5V39h3V24.5z"/>
		</g>
		<g>
			<path style="fill:#F0F1F1;" d="M49,24.5c0-0.828-0.672-1.5-1.5-1.5S46,23.672,46,24.5V39h3V24.5z"/>
		</g>
		<g>
			<path style="fill:#F0F1F1;" d="M44,24.5c0-0.828-0.672-1.5-1.5-1.5S41,23.672,41,24.5V39h3V24.5z"/>
		</g>
		<g>
			<path style="fill:#F0F1F1;" d="M63,55c0-4.418-3.582-8-8-8s-8,3.582-8,8v29.815C49.31,86.197,52.089,87,55,87
				c2.922,0,5.697-0.803,8-2.18V55z"/>
		</g>
		<g>
			<path style="fill:#FFFFFF;" d="M47,55v29.815C49.31,86.197,52.089,87,55,87V47C50.582,47,47,50.582,47,55z"/>
		</g>
		<g>
			<path style="fill:#12B2A0;" d="M57,57c0-1.105-0.895-2-2-2s-2,0.895-2,2v8c0,1.105,0.895,2,2,2s2-0.895,2-2V57z"/>
		</g>
	</g>
</g>
</svg>
