<?xml version="1.0" encoding="iso-8859-1"?>
<!-- Generator: Adobe Illustrator 17.1.0, SVG Export Plug-In . SVG Version: 6.00 Build 0)  -->
<!DOCTYPE svg PUBLIC "-//W3C//DTD SVG 1.0//EN" "http://www.w3.org/TR/2001/REC-SVG-20010904/DTD/svg10.dtd">
<svg version="1.0" xmlns="http://www.w3.org/2000/svg" xmlns:xlink="http://www.w3.org/1999/xlink" x="0px" y="0px" width="110px"
	 height="110px" viewBox="0 0 110 110" style="enable-background:new 0 0 110 110;" xml:space="preserve">
<g id="Artboard">
</g>
<g id="Multicolor">
	<circle style="fill:#25B7D3;" cx="55" cy="55" r="55"/>
	<g>
		<g>
			<path style="fill:#DF2C2C;" d="M31,39c0,1.376,0.052,14.709,0.052,16C31.052,67,41,82,55,87c14-5,24-20,24-32
				c0-2.511,0-13.173,0-16c-5,0-8-3-8-8c-5.333-1.333-10.667-4-16-8c-5.333,4-10.667,6.667-16,8C39,36,36,39,31,39z"/>
		</g>
		<g>
			<path style="fill:#FACB1B;" d="M55,29.118c3.793,2.514,7.633,4.439,11.475,5.752c1.04,4.002,3.73,6.954,7.525,8.308V55
				c0,9.17-7.563,21.66-19,26.626C43.595,76.668,36.052,64.178,36.052,55c0-0.637-0.035-10.588-0.039-11.826
				c3.788-1.355,6.474-4.305,7.512-8.303C47.367,33.557,51.207,31.633,55,29.118 M55,23c-5.333,4-10.667,6.667-16,8c0,5-3,8-8,8
				c0,1.376,0.052,14.708,0.052,16C31.052,67,41,82,55,87c14-5,24-20,24-32c0-2.511,0-13.173,0-16c-5,0-8-3-8-8
				C65.667,29.667,60.333,27,55,23L55,23z"/>
		</g>
		<g>
			<path style="fill:#E2E4E5;" d="M43.38,35.32c-1.028,3.452-3.315,6.067-6.497,7.483l29.824,29.824
				c2.257-2.717,4.059-5.694,5.302-8.678L43.38,35.32z"/>
		</g>
		<g>
			<path style="fill:#FA5655;" d="M43.38,35.32L55,46.94V29.118c-3.793,2.514-7.633,4.439-11.475,5.752
				C43.484,35.026,43.425,35.168,43.38,35.32z"/>
		</g>
		<g>
			<path style="fill:#FA5655;" d="M36.883,42.803c-0.287,0.128-0.569,0.262-0.871,0.37c0.004,1.239,0.009,2.631,0.014,4.015
				c0.013,3.615,0.025,7.174,0.025,7.811c0,9.178,7.543,21.668,18.948,26.626V60.92L36.883,42.803z"/>
		</g>
		<g>
			<path style="fill:#FFFFFF;" d="M55,46.94L43.38,35.32c-1.028,3.452-3.315,6.067-6.497,7.483L55,60.92V46.94z"/>
		</g>
		<g>
			<path style="fill:#FBE158;" d="M43.38,35.32c0.045-0.152,0.104-0.295,0.145-0.45c3.842-1.313,7.682-3.238,11.475-5.752V23
				c-5.333,4-10.667,6.667-16,8c0,5-3,8-8,8c0,1.373,0.052,14.714,0.052,16C31.052,67,41,82,55,87v-5.374
				C43.594,76.668,36.052,64.178,36.052,55c0-0.637-0.035-10.588-0.039-11.826c0.301-0.108,0.584-0.243,0.871-0.37
				C40.065,41.387,42.353,38.772,43.38,35.32z"/>
		</g>
	</g>
</g>
</svg>
