<?xml version="1.0" encoding="iso-8859-1"?>
<!-- Generator: Adobe Illustrator 17.1.0, SVG Export Plug-In . SVG Version: 6.00 Build 0)  -->
<!DOCTYPE svg PUBLIC "-//W3C//DTD SVG 1.0//EN" "http://www.w3.org/TR/2001/REC-SVG-20010904/DTD/svg10.dtd">
<svg version="1.0" xmlns="http://www.w3.org/2000/svg" xmlns:xlink="http://www.w3.org/1999/xlink" x="0px" y="0px" width="110px"
	 height="110px" viewBox="0 0 110 110" style="enable-background:new 0 0 110 110;" xml:space="preserve">
<g id="Artboard">
</g>
<g id="Multicolor">
	<circle style="fill:#32BEA6;" cx="55" cy="55" r="55"/>
	<g>
		<g>
			<path style="fill:#CFD3D4;" d="M31,35c0,0,0,4,0,16c0,16,11,31,24,36c13-5,24-20,24-36c0-12,0-16,0-16c-14.105,0-24-12-24-12
				S45.069,35,31,35z"/>
		</g>
		<g>
			<path style="fill:#FFFFFF;" d="M31,35c0,0,0,4,0,16c0,16,11,31,24,36V23C55,23,45.069,35,31,35z"/>
		</g>
		<g>
			<path style="fill:#0484AB;" d="M75,38c0,0,0,3.26,0,13v0.5c0,2.51-0.33,5.03-0.93,7.5C71.86,68.09,65.95,76.45,59,80.92
				c-1.3,0.84-2.64,1.54-4,2.08c-1.36-0.54-2.7-1.24-4-2.08C44.05,76.45,38.14,68.09,35.93,59c-0.6-2.47-0.93-4.99-0.93-7.5V51
				c0-9.73,0-13,0-13c6.7,0,12.41-3.43,16-6.28c2.53-2.01,4-3.72,4-3.72s1.47,1.72,4,3.73C62.58,34.57,68.29,38,75,38z"/>
		</g>
		<g>
			<path style="fill:#059BBF;" d="M51,31.72C47.41,34.57,41.7,38,35,38c0,0,0,3.27,0,13v0.5c0,2.51,0.33,5.03,0.93,7.5
				c2.21,9.09,8.12,17.45,15.07,21.92c1.3,0.84,2.64,1.54,4,2.08V28C55,28,53.53,29.71,51,31.72z"/>
		</g>
		<g>
			<path style="fill:#E2E4E5;" d="M59,51V31.73C56.47,29.72,55,28,55,28s-1.47,1.71-4,3.72V51H35v0.5c0,2.51,0.33,5.03,0.93,7.5H51
				v21.92c1.3,0.84,2.64,1.54,4,2.08c1.36-0.54,2.7-1.24,4-2.08V59h15.07c0.6-2.47,0.93-4.99,0.93-7.5V51H59z"/>
		</g>
		<g>
			<path style="fill:#FFFFFF;" d="M51,31.72V51H35v0.5c0,2.51,0.33,5.03,0.93,7.5H51v21.92c1.3,0.84,2.64,1.54,4,2.08V59v-8V28
				C55,28,53.53,29.71,51,31.72z"/>
		</g>
	</g>
</g>
</svg>
