<?xml version="1.0" encoding="iso-8859-1"?>
<!-- Generator: Adobe Illustrator 17.1.0, SVG Export Plug-In . SVG Version: 6.00 Build 0)  -->
<!DOCTYPE svg PUBLIC "-//W3C//DTD SVG 1.0//EN" "http://www.w3.org/TR/2001/REC-SVG-20010904/DTD/svg10.dtd">
<svg version="1.0" xmlns="http://www.w3.org/2000/svg" xmlns:xlink="http://www.w3.org/1999/xlink" x="0px" y="0px" width="110px"
	 height="110px" viewBox="0 0 110 110" style="enable-background:new 0 0 110 110;" xml:space="preserve">
<g id="Artboard">
</g>
<g id="Multicolor">
	<circle style="fill:#25B7D3;" cx="55" cy="55" r="55"/>
	<g>
		<g>
			<path style="fill:#E2E4E5;" d="M73.116,52.102l-2.151-11.471C70.788,39.686,69.962,39,69,39H55H41
				c-0.962,0-1.788,0.686-1.966,1.631l-2.151,11.471C31.685,53.674,27.104,55,27.104,55c0.431,2.723,1.095,5.4,1.896,8.016
				C31.759,72.038,40.118,80.308,43,87h12h12c2.882-6.692,11.241-14.962,14-23.984c0.8-2.616,1.464-5.293,1.896-8.016
				C82.896,55,78.315,53.674,73.116,52.102z"/>
		</g>
		<g>
			<path style="fill:#E2E4E5;" d="M61,35V25c0-1.104-0.896-2-2-2h-8c-1.104,0-2,0.896-2,2v10c-1.104,0-2,0.896-2,2v2h16v-2
				C63,35.896,62.104,35,61,35z"/>
		</g>
		<g>
			<path style="fill:#3E3E3F;" d="M55,56.244c-4.114,0.194-19.443,4.108-26,6.772C31.759,72.038,40.118,80.308,43,87h12h12
				c2.882-6.692,11.241-14.962,14-23.984C74.443,60.352,59.114,56.438,55,56.244z"/>
		</g>
		<g>
			<path style="fill:#5B5C5F;" d="M55,56.244V87H43c-2.882-6.692-11.241-14.962-14-23.984C35.557,60.352,50.886,56.438,55,56.244z"
				/>
		</g>
		<g>
			<path style="fill:#0484AB;" d="M46.726,49.019c3.437-1.11,6.478-1.913,8.274-2c1.796,0.086,4.837,0.89,8.274,2
				c2.817,0.934,6.46,2.061,9.843,3.083l-2.151-11.471C70.788,39.686,69.962,39,69,39H55H41c-0.962,0-1.788,0.686-1.966,1.631
				l-2.151,11.471C40.266,51.079,43.909,49.953,46.726,49.019z"/>
		</g>
		<g>
			<path style="fill:#FFFFFF;" d="M55,35h-6c-1.104,0-2,0.896-2,2v2h8V35z"/>
		</g>
		<g>
			<path style="fill:#FFFFFF;" d="M55,23h-4c-1.104,0-2,0.896-2,2v1h6V23z"/>
		</g>
		<g>
			<rect x="49" y="29" style="fill:#FFFFFF;" width="6" height="3"/>
		</g>
		<g>
			<polygon style="fill:#DF2C2C;" points="55,26 49,26 49,29 55,29 61,29 61,26 			"/>
		</g>
		<g>
			<rect x="49" y="26" style="fill:#FA5655;" width="6" height="3"/>
		</g>
		<g>
			<polygon style="fill:#DF2C2C;" points="55,32 49,32 49,35 55,35 61,35 61,32 			"/>
		</g>
		<g>
			<rect x="49" y="32" style="fill:#FA5655;" width="6" height="3"/>
		</g>
		<g>
			<path style="fill:#9CE5F4;" d="M78,79c-3.276,0-5.176,1.583-7,4.018C69.176,80.583,66.276,79,63,79s-6.176,1.583-8,4.018
				C53.176,80.583,50.276,79,47,79s-6.176,1.583-8,4.018C37.176,80.583,35.276,79,32,79c-4.838,0-8.073,3.436-9,8h64
				C86.073,82.436,82.838,79,78,79z"/>
		</g>
		<g>
			<path style="fill:#059BBF;" d="M46.726,49.019c3.437-1.11,6.478-1.913,8.274-2V39H41c-0.962,0-1.788,0.686-1.966,1.631
				l-2.151,11.471C40.266,51.079,43.909,49.953,46.726,49.019z"/>
		</g>
		<g>
			<rect x="45" y="42" style="fill:#9CE5F4;" width="4" height="4"/>
		</g>
		<g>
			<rect x="53" y="42" style="fill:#9CE5F4;" width="4" height="4"/>
		</g>
		<g>
			<rect x="61" y="42" style="fill:#9CE5F4;" width="4" height="4"/>
		</g>
		<g>
			<path style="fill:#FFFFFF;" d="M46.726,49.019c3.437-1.11,6.478-1.913,8.274-2v9.225c-4.114,0.194-19.443,4.108-26,6.772
				C28.2,60.4,27.536,57.723,27.104,55C27.104,55,39.58,51.388,46.726,49.019z"/>
		</g>
	</g>
</g>
</svg>
