<?xml version="1.0" encoding="iso-8859-1"?>
<!-- Generator: Adobe Illustrator 17.1.0, SVG Export Plug-In . SVG Version: 6.00 Build 0)  -->
<!DOCTYPE svg PUBLIC "-//W3C//DTD SVG 1.0//EN" "http://www.w3.org/TR/2001/REC-SVG-20010904/DTD/svg10.dtd">
<svg version="1.0" xmlns="http://www.w3.org/2000/svg" xmlns:xlink="http://www.w3.org/1999/xlink" x="0px" y="0px" width="110px"
	 height="110px" viewBox="0 0 110 110" style="enable-background:new 0 0 110 110;" xml:space="preserve">
<g id="Artboard">
</g>
<g id="Multicolor">
	<circle style="fill:#E04F5F;" cx="55" cy="55" r="55"/>
	<g>
		<g>
			<path style="fill:#FFFFFF;" d="M81.412,38.155L68,31.002l-1-4c-8-2.67-16-2.67-24,0l-1,4l-13.412,7.153
				C27.611,38.677,27,39.694,27,40.802v39.2c0,1.657,1.343,3,3,3h50c1.657,0,3-1.343,3-3v-39.2
				C83,39.694,82.39,38.677,81.412,38.155z"/>
		</g>
		<g>
			<polygon style="fill:#DF2C2C;" points="60,41.113 55,39.002 50,41.113 53.88,48 51,56 47,83.002 63,83.002 59,56 56.121,48 			
				"/>
		</g>
		<g>
			<path style="fill:#F0F1F1;" d="M67,27.002c-8-2.67-16-2.67-24,0l12,11L67,27.002z"/>
		</g>
		<g>
			<polygon style="fill:#FA5655;" points="47,83.002 55,83.002 55,39.002 50,41.113 53.88,48 51,56 			"/>
		</g>
	</g>
</g>
</svg>
