<?xml version="1.0" encoding="iso-8859-1"?>
<!-- Generator: Adobe Illustrator 17.1.0, SVG Export Plug-In . SVG Version: 6.00 Build 0)  -->
<!DOCTYPE svg PUBLIC "-//W3C//DTD SVG 1.0//EN" "http://www.w3.org/TR/2001/REC-SVG-20010904/DTD/svg10.dtd">
<svg version="1.0" xmlns="http://www.w3.org/2000/svg" xmlns:xlink="http://www.w3.org/1999/xlink" x="0px" y="0px" width="110px"
	 height="110px" viewBox="0 0 110 110" style="enable-background:new 0 0 110 110;" xml:space="preserve">
<g id="Artboard" style="display:none;">
	
		<rect x="-1096.5" y="-162.5" style="display:inline;fill:#808080;stroke:#000000;stroke-miterlimit:10;" width="1392" height="1369"/>
</g>
<g id="R-Multicolor">
	<circle style="fill:#32BEA6;" cx="55" cy="55" r="55"/>
	<g>
		<g>
			<path style="fill:#FFFFFF;" d="M87,39c0-2.209-1.791-4-4-4H39.922c-1.907,0-3.548,1.346-3.922,3.216L31,55l-5.789,2.894
				C23.856,58.572,23,59.957,23,61.472V71c0,2.209,1.791,4,4,4h56c2.209,0,4-1.791,4-4V39z"/>
		</g>
		<g>
			<path style="fill:#CFD3D4;" d="M23,71c0,2.209,1.791,4,4,4h56c2.209,0,4-1.791,4-4H23z"/>
		</g>
		<g>
			<circle style="fill:#3E3E3F;" cx="37" cy="73" r="6"/>
		</g>
		<g>
			<circle style="fill:#CFD3D4;" cx="37" cy="73" r="2"/>
		</g>
		<g>
			<circle style="fill:#3E3E3F;" cx="73" cy="73" r="6"/>
		</g>
		<g>
			<circle style="fill:#CFD3D4;" cx="73" cy="73" r="2"/>
		</g>
		<g>
			<path style="fill:#40C9E7;" d="M35.518,50.581c-0.127,0.591,0.021,1.207,0.4,1.676C36.298,52.727,36.87,53,37.474,53H45
				c1.105,0,2-0.895,2-2v-8c0-1.105-0.895-2-2-2h-5.383c-0.943,0-1.758,0.659-1.956,1.581L35.518,50.581z"/>
		</g>
		<g>
			<path style="fill:#CFD3D4;" d="M66.414,31.586C66.789,31.211,67.298,31,67.828,31H81c1.105,0,2,0.895,2,2v2H63L66.414,31.586z"/>
		</g>
		<g>
			<rect x="52" y="47" style="fill:#3E3E3F;" width="30" height="16"/>
		</g>
		<g>
			<path style="fill:#AF7653;" d="M84,61c0,1.105-0.895,2-2,2H52c-1.105,0-2-0.895-2-2s0.895-2,2-2h30C83.105,59,84,59.895,84,61z"
				/>
		</g>
		<g>
			<polygon style="fill:#FA5655;" points="52,47 56,39 78,39 82,47 			"/>
		</g>
		<g>
			<path style="fill:#DF2C2C;" d="M52,47c0,2.209,1.791,4,4,4h2c2.209,0,4-1.791,4-4H52z"/>
		</g>
		<g>
			<path style="fill:#E2E4E5;" d="M62,47c0,2.209,1.791,4,4,4h2c2.209,0,4-1.791,4-4H62z"/>
		</g>
		<g>
			<path style="fill:#DF2C2C;" d="M72,47c0,2.209,1.791,4,4,4h2c2.209,0,4-1.791,4-4H72z"/>
		</g>
		<g>
			<polygon style="fill:#FFFFFF;" points="62,47 63,39 71,39 72,47 			"/>
		</g>
		<g>
			<path style="fill:#9CE5F4;" d="M45,41h-5.383c-0.943,0-1.758,0.659-1.956,1.581l-2.143,8c-0.105,0.491-0.011,0.995,0.239,1.423
				l10.526-10.526C45.935,41.184,45.491,41,45,41z"/>
		</g>
	</g>
</g>
<g id="Multicolor" style="display:none;">
	<g style="display:inline;">
		<g>
			<path style="fill:#FFFFFF;" d="M87,39c0-2.209-1.791-4-4-4H39.922c-1.907,0-3.548,1.346-3.922,3.216L31,55l-5.789,2.894
				C23.856,58.572,23,59.957,23,61.472V71c0,2.209,1.791,4,4,4h56c2.209,0,4-1.791,4-4V39z"/>
		</g>
		<g>
			<path style="fill:#CFD3D4;" d="M23,71c0,2.209,1.791,4,4,4h56c2.209,0,4-1.791,4-4H23z"/>
		</g>
		<g>
			<circle style="fill:#3E3E3F;" cx="37" cy="73" r="6"/>
		</g>
		<g>
			<circle style="fill:#CFD3D4;" cx="37" cy="73" r="2"/>
		</g>
		<g>
			<circle style="fill:#3E3E3F;" cx="73" cy="73" r="6"/>
		</g>
		<g>
			<circle style="fill:#CFD3D4;" cx="73" cy="73" r="2"/>
		</g>
		<g>
			<path style="fill:#40C9E7;" d="M35.518,50.581c-0.127,0.591,0.021,1.207,0.4,1.676C36.298,52.727,36.87,53,37.474,53H45
				c1.105,0,2-0.895,2-2v-8c0-1.105-0.895-2-2-2h-5.383c-0.943,0-1.758,0.659-1.956,1.581L35.518,50.581z"/>
		</g>
		<g>
			<path style="fill:#CFD3D4;" d="M66.414,31.586C66.789,31.211,67.298,31,67.828,31H81c1.105,0,2,0.895,2,2v2H63L66.414,31.586z"/>
		</g>
		<g>
			<rect x="52" y="47" style="fill:#3E3E3F;" width="30" height="16"/>
		</g>
		<g>
			<path style="fill:#AF7653;" d="M84,61c0,1.105-0.895,2-2,2H52c-1.105,0-2-0.895-2-2s0.895-2,2-2h30C83.105,59,84,59.895,84,61z"
				/>
		</g>
		<g>
			<polygon style="fill:#FA5655;" points="52,47 56,39 78,39 82,47 			"/>
		</g>
		<g>
			<path style="fill:#DF2C2C;" d="M52,47c0,2.209,1.791,4,4,4h2c2.209,0,4-1.791,4-4H52z"/>
		</g>
		<g>
			<path style="fill:#E2E4E5;" d="M62,47c0,2.209,1.791,4,4,4h2c2.209,0,4-1.791,4-4H62z"/>
		</g>
		<g>
			<path style="fill:#DF2C2C;" d="M72,47c0,2.209,1.791,4,4,4h2c2.209,0,4-1.791,4-4H72z"/>
		</g>
		<g>
			<polygon style="fill:#FFFFFF;" points="62,47 63,39 71,39 72,47 			"/>
		</g>
		<g>
			<path style="fill:#9CE5F4;" d="M45,41h-5.383c-0.943,0-1.758,0.659-1.956,1.581l-2.143,8c-0.105,0.491-0.011,0.995,0.239,1.423
				l10.526-10.526C45.935,41.184,45.491,41,45,41z"/>
		</g>
	</g>
</g>
<g id="Blue" style="display:none;">
	<g style="display:inline;">
		<g>
			<path style="fill:#FFFFFF;" d="M87,39c0-2.209-1.791-4-4-4H39.922c-1.906,0-3.548,1.346-3.922,3.216L31,55l-5.789,2.895
				C23.856,58.572,23,59.957,23,61.472V71c0,2.21,1.791,4,4,4h56c2.209,0,4-1.79,4-4V39z"/>
		</g>
		<g>
			<path style="fill:#BBE7F2;" d="M23,71c0,2.21,1.791,4,4,4h56c2.209,0,4-1.79,4-4H23z"/>
		</g>
		<g>
			<circle style="fill:#0C333D;" cx="37" cy="73" r="6"/>
		</g>
		<g>
			<circle style="fill:#BBE7F2;" cx="37" cy="73" r="2"/>
		</g>
		<g>
			<circle style="fill:#0C333D;" cx="73" cy="73" r="6"/>
		</g>
		<g>
			<circle style="fill:#BBE7F2;" cx="73" cy="73" r="2"/>
		</g>
		<g>
			<path style="fill:#81D2EB;" d="M35.519,50.581c-0.127,0.591,0.021,1.207,0.4,1.676C36.299,52.727,36.87,53,37.474,53H45
				c1.104,0,2-0.895,2-2v-8c0-1.104-0.896-2-2-2h-5.383c-0.943,0-1.758,0.659-1.956,1.581L35.519,50.581z"/>
		</g>
		<g>
			<path style="fill:#81D2EB;" d="M66.414,31.586C66.789,31.211,67.298,31,67.828,31H81c1.104,0,2,0.896,2,2v2H63L66.414,31.586z"/>
		</g>
		<g>
			<rect x="52" y="47" style="fill:#0C333D;" width="30" height="16"/>
		</g>
		<g>
			<path style="fill:#BBE7F2;" d="M84,61c0,1.105-0.896,2-2,2H52c-1.104,0-2-0.895-2-2c0-1.104,0.896-2,2-2h30
				C83.104,59,84,59.896,84,61z"/>
		</g>
		<g>
			<polygon style="fill:#009FC7;" points="52,47 56,39 78,39 82,47 			"/>
		</g>
		<g>
			<path style="fill:#0081A1;" d="M52,47c0,2.209,1.791,4,4,4h2c2.209,0,4-1.791,4-4H52z"/>
		</g>
		<g>
			<path style="fill:#BBE7F2;" d="M62,47c0,2.209,1.791,4,4,4h2c2.209,0,4-1.791,4-4H62z"/>
		</g>
		<g>
			<path style="fill:#0081A1;" d="M72,47c0,2.209,1.791,4,4,4h2c2.209,0,4-1.791,4-4H72z"/>
		</g>
		<g>
			<polygon style="fill:#FFFFFF;" points="62,47 63,39 71,39 72,47 			"/>
		</g>
		<g>
			<path style="fill:#BBE7F2;" d="M45,41h-5.383c-0.943,0-1.758,0.659-1.956,1.581l-2.143,8c-0.105,0.491-0.012,0.995,0.238,1.423
				l10.526-10.526C45.936,41.184,45.491,41,45,41z"/>
		</g>
	</g>
</g>
<g id="R-Blue" style="display:none;">
	<circle style="display:inline;fill:#81D2EB;" cx="55" cy="55" r="55"/>
	<g style="display:inline;">
		<g>
			<path style="fill:#FFFFFF;" d="M87,39c0-2.209-1.791-4-4-4H39.922c-1.906,0-3.548,1.346-3.922,3.216L31,55l-5.789,2.895
				C23.856,58.572,23,59.956,23,61.472V71c0,2.209,1.791,4,4,4h56c2.209,0,4-1.791,4-4V39z"/>
		</g>
		<g>
			<path style="fill:#BBE7F2;" d="M23,71c0,2.209,1.791,4,4,4h56c2.209,0,4-1.791,4-4H23z"/>
		</g>
		<g>
			<circle style="fill:#0C333D;" cx="37" cy="73" r="6"/>
		</g>
		<g>
			<circle style="fill:#BBE7F2;" cx="37" cy="73" r="2"/>
		</g>
		<g>
			<circle style="fill:#0C333D;" cx="73" cy="73" r="6"/>
		</g>
		<g>
			<circle style="fill:#BBE7F2;" cx="73" cy="73" r="2"/>
		</g>
		<g>
			<path style="fill:#81D2EB;" d="M35.519,50.581c-0.127,0.591,0.021,1.207,0.4,1.676C36.299,52.727,36.87,53,37.474,53H45
				c1.104,0,2-0.895,2-2v-8c0-1.104-0.896-2-2-2h-5.383c-0.943,0-1.758,0.659-1.956,1.581L35.519,50.581z"/>
		</g>
		<g>
			<path style="fill:#81D2EB;" d="M66.414,31.586C66.789,31.211,67.298,31,67.828,31H81c1.104,0,2,0.896,2,2v2H63L66.414,31.586z"/>
		</g>
		<g>
			<rect x="52" y="47" style="fill:#0C333D;" width="30" height="16"/>
		</g>
		<g>
			<path style="fill:#BBE7F2;" d="M84,61c0,1.105-0.896,2-2,2H52c-1.104,0-2-0.895-2-2c0-1.104,0.896-2,2-2h30
				C83.104,59,84,59.895,84,61z"/>
		</g>
		<g>
			<polygon style="fill:#009FC7;" points="52,47 56,39 78,39 82,47 			"/>
		</g>
		<g>
			<path style="fill:#0081A1;" d="M52,47c0,2.209,1.791,4,4,4h2c2.209,0,4-1.791,4-4H52z"/>
		</g>
		<g>
			<path style="fill:#BBE7F2;" d="M62,47c0,2.209,1.791,4,4,4h2c2.209,0,4-1.791,4-4H62z"/>
		</g>
		<g>
			<path style="fill:#0081A1;" d="M72,47c0,2.209,1.791,4,4,4h2c2.209,0,4-1.791,4-4H72z"/>
		</g>
		<g>
			<polygon style="fill:#FFFFFF;" points="62,47 63,39 71,39 72,47 			"/>
		</g>
		<g>
			<path style="fill:#BBE7F2;" d="M45,41h-5.383c-0.943,0-1.758,0.659-1.956,1.581l-2.143,8c-0.105,0.491-0.012,0.995,0.238,1.423
				l10.526-10.526C45.936,41.184,45.491,41,45,41z"/>
		</g>
	</g>
</g>
<g id="Green" style="display:none;">
	<g style="display:inline;">
		<g>
			<path style="fill:#FFFFFF;" d="M87,39c0-2.209-1.791-4-4-4H39.922c-1.906,0-3.548,1.346-3.922,3.216L31,55l-5.789,2.895
				C23.855,58.572,23,59.957,23,61.472V71c0,2.21,1.791,4,4,4h56c2.209,0,4-1.79,4-4V39z"/>
		</g>
		<g>
			<path style="fill:#AAF0E9;" d="M23,71c0,2.21,1.791,4,4,4h56c2.209,0,4-1.79,4-4H23z"/>
		</g>
		<g>
			<circle style="fill:#0A3631;" cx="37" cy="73" r="6"/>
		</g>
		<g>
			<circle style="fill:#AAF0E9;" cx="37" cy="73" r="2"/>
		</g>
		<g>
			<circle style="fill:#0A3631;" cx="73" cy="73" r="6"/>
		</g>
		<g>
			<circle style="fill:#AAF0E9;" cx="73" cy="73" r="2"/>
		</g>
		<g>
			<path style="fill:#77E0C4;" d="M35.519,50.581c-0.127,0.591,0.021,1.207,0.4,1.676C36.299,52.727,36.87,53,37.474,53H45
				c1.104,0,2-0.895,2-2v-8c0-1.104-0.896-2-2-2h-5.383c-0.943,0-1.758,0.659-1.956,1.581L35.519,50.581z"/>
		</g>
		<g>
			<path style="fill:#77E0C4;" d="M66.414,31.586C66.789,31.211,67.298,31,67.828,31H81c1.104,0,2,0.896,2,2v2H63L66.414,31.586z"/>
		</g>
		<g>
			<rect x="52" y="47" style="fill:#0A3631;" width="30" height="16"/>
		</g>
		<g>
			<path style="fill:#AAF0E9;" d="M84,61c0,1.105-0.896,2-2,2H52c-1.104,0-2-0.895-2-2c0-1.104,0.896-2,2-2h30
				C83.104,59,84,59.896,84,61z"/>
		</g>
		<g>
			<polygon style="fill:#00B8A5;" points="52,47 56,39 78,39 82,47 			"/>
		</g>
		<g>
			<path style="fill:#009687;" d="M52,47c0,2.209,1.791,4,4,4h2c2.209,0,4-1.791,4-4H52z"/>
		</g>
		<g>
			<path style="fill:#AAF0E9;" d="M62,47c0,2.209,1.791,4,4,4h2c2.209,0,4-1.791,4-4H62z"/>
		</g>
		<g>
			<path style="fill:#009687;" d="M72,47c0,2.209,1.791,4,4,4h2c2.209,0,4-1.791,4-4H72z"/>
		</g>
		<g>
			<polygon style="fill:#FFFFFF;" points="62,47 63,39 71,39 72,47 			"/>
		</g>
		<g>
			<path style="fill:#AAF0E9;" d="M45,41h-5.383c-0.943,0-1.758,0.659-1.956,1.581l-2.143,8c-0.105,0.491-0.012,0.995,0.238,1.423
				l10.526-10.526C45.935,41.184,45.491,41,45,41z"/>
		</g>
	</g>
</g>
<g id="R-Green" style="display:none;">
	<circle style="display:inline;fill:#77E0C4;" cx="55" cy="55" r="55"/>
	<g style="display:inline;">
		<g>
			<path style="fill:#FFFFFF;" d="M87,39c0-2.209-1.791-4-4-4H39.922c-1.906,0-3.548,1.346-3.922,3.216L31,55l-5.789,2.895
				C23.855,58.572,23,59.957,23,61.472V71c0,2.21,1.791,4,4,4h56c2.209,0,4-1.79,4-4V39z"/>
		</g>
		<g>
			<path style="fill:#AAF0E9;" d="M23,71c0,2.21,1.791,4,4,4h56c2.209,0,4-1.79,4-4H23z"/>
		</g>
		<g>
			<circle style="fill:#0A3631;" cx="37" cy="73" r="6"/>
		</g>
		<g>
			<circle style="fill:#AAF0E9;" cx="37" cy="73" r="2"/>
		</g>
		<g>
			<circle style="fill:#0A3631;" cx="73" cy="73" r="6"/>
		</g>
		<g>
			<circle style="fill:#AAF0E9;" cx="73" cy="73" r="2"/>
		</g>
		<g>
			<path style="fill:#77E0C4;" d="M35.519,50.581c-0.127,0.591,0.021,1.207,0.4,1.676C36.299,52.727,36.87,53,37.474,53H45
				c1.104,0,2-0.895,2-2v-8c0-1.104-0.896-2-2-2h-5.383c-0.943,0-1.758,0.659-1.956,1.581L35.519,50.581z"/>
		</g>
		<g>
			<path style="fill:#77E0C4;" d="M66.414,31.586C66.789,31.211,67.298,31,67.828,31H81c1.104,0,2,0.896,2,2v2H63L66.414,31.586z"/>
		</g>
		<g>
			<rect x="52" y="47" style="fill:#0A3631;" width="30" height="16"/>
		</g>
		<g>
			<path style="fill:#AAF0E9;" d="M84,61c0,1.105-0.896,2-2,2H52c-1.104,0-2-0.895-2-2c0-1.104,0.896-2,2-2h30
				C83.104,59,84,59.896,84,61z"/>
		</g>
		<g>
			<polygon style="fill:#00B8A5;" points="52,47 56,39 78,39 82,47 			"/>
		</g>
		<g>
			<path style="fill:#009687;" d="M52,47c0,2.209,1.791,4,4,4h2c2.209,0,4-1.791,4-4H52z"/>
		</g>
		<g>
			<path style="fill:#AAF0E9;" d="M62,47c0,2.209,1.791,4,4,4h2c2.209,0,4-1.791,4-4H62z"/>
		</g>
		<g>
			<path style="fill:#009687;" d="M72,47c0,2.209,1.791,4,4,4h2c2.209,0,4-1.791,4-4H72z"/>
		</g>
		<g>
			<polygon style="fill:#FFFFFF;" points="62,47 63,39 71,39 72,47 			"/>
		</g>
		<g>
			<path style="fill:#AAF0E9;" d="M45,41h-5.383c-0.943,0-1.758,0.659-1.956,1.581l-2.142,8c-0.105,0.491-0.012,0.995,0.238,1.423
				l10.526-10.526C45.936,41.184,45.491,41,45,41z"/>
		</g>
	</g>
</g>
<g id="Red" style="display:none;">
	<g style="display:inline;">
		<g>
			<path style="fill:#FFFFFF;" d="M87,39c0-2.209-1.791-4-4-4H39.922c-1.906,0-3.548,1.346-3.922,3.216L31,55l-5.789,2.895
				C23.855,58.572,23,59.957,23,61.472V71c0,2.21,1.791,4,4,4h56c2.209,0,4-1.79,4-4V39z"/>
		</g>
		<g>
			<path style="fill:#FFD7D4;" d="M23,71c0,2.21,1.791,4,4,4h56c2.209,0,4-1.79,4-4H23z"/>
		</g>
		<g>
			<circle style="fill:#4A1410;" cx="37" cy="73" r="6"/>
		</g>
		<g>
			<circle style="fill:#FFD7D4;" cx="37" cy="73" r="2"/>
		</g>
		<g>
			<circle style="fill:#4A1410;" cx="73" cy="73" r="6"/>
		</g>
		<g>
			<circle style="fill:#FFD7D4;" cx="73" cy="73" r="2"/>
		</g>
		<g>
			<path style="fill:#FABBAF;" d="M35.519,50.581c-0.127,0.591,0.02,1.207,0.4,1.676C36.299,52.727,36.87,53,37.474,53H45
				c1.104,0,2-0.895,2-2v-8c0-1.104-0.896-2-2-2h-5.383c-0.943,0-1.758,0.659-1.956,1.581L35.519,50.581z"/>
		</g>
		<g>
			<path style="fill:#FABBAF;" d="M66.414,31.586C66.789,31.211,67.298,31,67.828,31H81c1.104,0,2,0.896,2,2v2H63L66.414,31.586z"/>
		</g>
		<g>
			<rect x="52" y="47" style="fill:#4A1410;" width="30" height="16"/>
		</g>
		<g>
			<path style="fill:#FFD7D4;" d="M84,61c0,1.105-0.896,2-2,2H52c-1.104,0-2-0.895-2-2c0-1.104,0.896-2,2-2h30
				C83.104,59,84,59.896,84,61z"/>
		</g>
		<g>
			<polygon style="fill:#E54B44;" points="52,47 56,39 78,39 82,47 			"/>
		</g>
		<g>
			<path style="fill:#C23023;" d="M52,47c0,2.21,1.791,4,4,4h2c2.209,0,4-1.79,4-4H52z"/>
		</g>
		<g>
			<path style="fill:#FFD7D4;" d="M62,47c0,2.21,1.791,4,4,4h2c2.209,0,4-1.79,4-4H62z"/>
		</g>
		<g>
			<path style="fill:#C23023;" d="M72,47c0,2.21,1.791,4,4,4h2c2.209,0,4-1.79,4-4H72z"/>
		</g>
		<g>
			<polygon style="fill:#FFFFFF;" points="62,47 63,39 71,39 72,47 			"/>
		</g>
		<g>
			<path style="fill:#FFD7D4;" d="M45,41h-5.383c-0.943,0-1.758,0.659-1.956,1.581l-2.142,8c-0.106,0.491-0.012,0.995,0.238,1.423
				l10.526-10.526C45.935,41.184,45.491,41,45,41z"/>
		</g>
	</g>
</g>
<g id="R-Red" style="display:none;">
	<circle style="display:inline;fill:#FABBAF;" cx="55" cy="55" r="55"/>
	<g style="display:inline;">
		<g>
			<path style="fill:#FFFFFF;" d="M87,39c0-2.209-1.791-4-4-4H39.922c-1.906,0-3.548,1.346-3.922,3.216L31,55l-5.789,2.895
				C23.855,58.572,23,59.957,23,61.472V71c0,2.21,1.791,4,4,4h56c2.209,0,4-1.79,4-4V39z"/>
		</g>
		<g>
			<path style="fill:#FFD7D4;" d="M23,71c0,2.21,1.791,4,4,4h56c2.209,0,4-1.79,4-4H23z"/>
		</g>
		<g>
			<circle style="fill:#4A1410;" cx="37" cy="73" r="6"/>
		</g>
		<g>
			<circle style="fill:#FFD7D4;" cx="37" cy="73" r="2"/>
		</g>
		<g>
			<circle style="fill:#4A1410;" cx="73" cy="73" r="6"/>
		</g>
		<g>
			<circle style="fill:#FFD7D4;" cx="73" cy="73" r="2"/>
		</g>
		<g>
			<path style="fill:#FABBAF;" d="M35.519,50.581c-0.127,0.591,0.02,1.207,0.4,1.676C36.299,52.727,36.87,53,37.474,53H45
				c1.104,0,2-0.895,2-2v-8c0-1.104-0.896-2-2-2h-5.383c-0.943,0-1.758,0.659-1.956,1.581L35.519,50.581z"/>
		</g>
		<g>
			<path style="fill:#FABBAF;" d="M66.414,31.586C66.789,31.211,67.298,31,67.828,31H81c1.104,0,2,0.896,2,2v2H63L66.414,31.586z"/>
		</g>
		<g>
			<rect x="52" y="47" style="fill:#4A1410;" width="30" height="16"/>
		</g>
		<g>
			<path style="fill:#FFD7D4;" d="M84,61c0,1.105-0.896,2-2,2H52c-1.104,0-2-0.895-2-2c0-1.104,0.896-2,2-2h30
				C83.104,59,84,59.896,84,61z"/>
		</g>
		<g>
			<polygon style="fill:#E54B44;" points="52,47 56,39 78,39 82,47 			"/>
		</g>
		<g>
			<path style="fill:#C23023;" d="M52,47c0,2.21,1.791,4,4,4h2c2.209,0,4-1.79,4-4H52z"/>
		</g>
		<g>
			<path style="fill:#FFD7D4;" d="M62,47c0,2.21,1.791,4,4,4h2c2.209,0,4-1.79,4-4H62z"/>
		</g>
		<g>
			<path style="fill:#C23023;" d="M72,47c0,2.21,1.791,4,4,4h2c2.209,0,4-1.79,4-4H72z"/>
		</g>
		<g>
			<polygon style="fill:#FFFFFF;" points="62,47 63,39 71,39 72,47 			"/>
		</g>
		<g>
			<path style="fill:#FFD7D4;" d="M45,41h-5.383c-0.943,0-1.758,0.659-1.956,1.581l-2.142,8c-0.106,0.491-0.012,0.995,0.238,1.423
				l10.526-10.526C45.935,41.184,45.491,41,45,41z"/>
		</g>
	</g>
</g>
<g id="Yellow" style="display:none;">
	<g style="display:inline;">
		<g>
			<path style="fill:#FFFFFF;" d="M87,39c0-2.209-1.791-4-4-4H39.922c-1.906,0-3.548,1.346-3.922,3.216L31,55l-5.789,2.895
				C23.855,58.572,23,59.957,23,61.472V71c0,2.21,1.791,4,4,4h56c2.209,0,4-1.79,4-4V39z"/>
		</g>
		<g>
			<path style="fill:#FFE9A1;" d="M23,71c0,2.21,1.791,4,4,4h56c2.209,0,4-1.79,4-4H23z"/>
		</g>
		<g>
			<circle style="fill:#3D320C;" cx="37" cy="73" r="6"/>
		</g>
		<g>
			<circle style="fill:#FFE9A1;" cx="37" cy="73" r="2"/>
		</g>
		<g>
			<circle style="fill:#3D320C;" cx="73" cy="73" r="6"/>
		</g>
		<g>
			<circle style="fill:#FFE9A1;" cx="73" cy="73" r="2"/>
		</g>
		<g>
			<path style="fill:#FFD75E;" d="M35.519,50.581c-0.127,0.591,0.021,1.207,0.4,1.676C36.299,52.727,36.87,53,37.474,53H45
				c1.104,0,2-0.895,2-2v-8c0-1.104-0.896-2-2-2h-5.383c-0.943,0-1.758,0.659-1.956,1.581L35.519,50.581z"/>
		</g>
		<g>
			<path style="fill:#FFD75E;" d="M66.414,31.586C66.789,31.211,67.298,31,67.828,31H81c1.104,0,2,0.896,2,2v2H63L66.414,31.586z"/>
		</g>
		<g>
			<rect x="52" y="47" style="fill:#3D320C;" width="30" height="16"/>
		</g>
		<g>
			<path style="fill:#FFE9A1;" d="M84,61c0,1.105-0.896,2-2,2H52c-1.104,0-2-0.895-2-2c0-1.104,0.896-2,2-2h30
				C83.104,59,84,59.896,84,61z"/>
		</g>
		<g>
			<polygon style="fill:#FA9200;" points="52,47 56,39 78,39 82,47 			"/>
		</g>
		<g>
			<path style="fill:#E07000;" d="M52,47c0,2.209,1.791,4,4,4h2c2.209,0,4-1.791,4-4H52z"/>
		</g>
		<g>
			<path style="fill:#FFE9A1;" d="M62,47c0,2.209,1.791,4,4,4h2c2.209,0,4-1.791,4-4H62z"/>
		</g>
		<g>
			<path style="fill:#E07000;" d="M72,47c0,2.209,1.791,4,4,4h2c2.209,0,4-1.791,4-4H72z"/>
		</g>
		<g>
			<polygon style="fill:#FFFFFF;" points="62,47 63,39 71,39 72,47 			"/>
		</g>
		<g>
			<path style="fill:#FFE9A1;" d="M45,41h-5.383c-0.943,0-1.758,0.659-1.956,1.581l-2.142,8c-0.105,0.491-0.012,0.995,0.238,1.423
				l10.526-10.526C45.936,41.184,45.491,41,45,41z"/>
		</g>
	</g>
</g>
<g id="R-Yellow" style="display:none;">
	<circle style="display:inline;fill:#FFD75E;" cx="55" cy="55" r="55"/>
	<g style="display:inline;">
		<g>
			<path style="fill:#FFFFFF;" d="M87,39c0-2.209-1.791-4-4-4H39.922c-1.906,0-3.548,1.346-3.922,3.216L31,55l-5.789,2.895
				C23.855,58.572,23,59.957,23,61.472V71c0,2.21,1.791,4,4,4h56c2.209,0,4-1.79,4-4V39z"/>
		</g>
		<g>
			<path style="fill:#FFE9A1;" d="M23,71c0,2.21,1.791,4,4,4h56c2.209,0,4-1.79,4-4H23z"/>
		</g>
		<g>
			<circle style="fill:#3D320C;" cx="37" cy="73" r="6"/>
		</g>
		<g>
			<circle style="fill:#FFE9A1;" cx="37" cy="73" r="2"/>
		</g>
		<g>
			<circle style="fill:#3D320C;" cx="73" cy="73" r="6"/>
		</g>
		<g>
			<circle style="fill:#FFE9A1;" cx="73" cy="73" r="2"/>
		</g>
		<g>
			<path style="fill:#FFD75E;" d="M35.519,50.581c-0.127,0.591,0.021,1.207,0.4,1.676C36.299,52.727,36.87,53,37.474,53H45
				c1.104,0,2-0.895,2-2v-8c0-1.104-0.896-2-2-2h-5.383c-0.943,0-1.758,0.659-1.956,1.581L35.519,50.581z"/>
		</g>
		<g>
			<path style="fill:#FFD75E;" d="M66.414,31.586C66.789,31.211,67.298,31,67.828,31H81c1.104,0,2,0.896,2,2v2H63L66.414,31.586z"/>
		</g>
		<g>
			<rect x="52" y="47" style="fill:#3D320C;" width="30" height="16"/>
		</g>
		<g>
			<path style="fill:#FFE9A1;" d="M84,61c0,1.105-0.896,2-2,2H52c-1.104,0-2-0.895-2-2c0-1.104,0.896-2,2-2h30
				C83.104,59,84,59.896,84,61z"/>
		</g>
		<g>
			<polygon style="fill:#FA9200;" points="52,47 56,39 78,39 82,47 			"/>
		</g>
		<g>
			<path style="fill:#E07000;" d="M52,47c0,2.209,1.791,4,4,4h2c2.209,0,4-1.791,4-4H52z"/>
		</g>
		<g>
			<path style="fill:#FFE9A1;" d="M62,47c0,2.209,1.791,4,4,4h2c2.209,0,4-1.791,4-4H62z"/>
		</g>
		<g>
			<path style="fill:#E07000;" d="M72,47c0,2.209,1.791,4,4,4h2c2.209,0,4-1.791,4-4H72z"/>
		</g>
		<g>
			<polygon style="fill:#FFFFFF;" points="62,47 63,39 71,39 72,47 			"/>
		</g>
		<g>
			<path style="fill:#FFE9A1;" d="M45,41h-5.383c-0.943,0-1.758,0.659-1.956,1.581l-2.143,8c-0.105,0.491-0.012,0.995,0.238,1.423
				l10.526-10.526C45.935,41.184,45.491,41,45,41z"/>
		</g>
	</g>
</g>
</svg>
