<?xml version="1.0" encoding="iso-8859-1"?>
<!-- Generator: Adobe Illustrator 17.1.0, SVG Export Plug-In . SVG Version: 6.00 Build 0)  -->
<!DOCTYPE svg PUBLIC "-//W3C//DTD SVG 1.0//EN" "http://www.w3.org/TR/2001/REC-SVG-20010904/DTD/svg10.dtd">
<svg version="1.0" xmlns="http://www.w3.org/2000/svg" xmlns:xlink="http://www.w3.org/1999/xlink" x="0px" y="0px" width="110px"
	 height="110px" viewBox="0 0 110 110" style="enable-background:new 0 0 110 110;" xml:space="preserve">
<g id="Artboard">
</g>
<g id="Multicolor">
	<circle style="fill:#FABC3D;" cx="55" cy="55" r="55"/>
	<g>
		<rect x="23" y="23" style="fill:#FFFFFF;" width="64" height="64"/>
		<rect x="27" y="27" style="fill:#40C9E7;" width="56" height="16"/>
		<rect x="27" y="47" style="fill:#40C9E7;" width="56" height="16"/>
		<rect x="29" y="71" style="fill:#40C9E7;" width="12" height="12"/>
		<rect x="69" y="71" style="fill:#40C9E7;" width="12" height="12"/>
		<path style="fill:#40C9E7;" d="M63,74c0-3.314-2.686-6-6-6h-4c-3.314,0-6,2.686-6,6v13h16V74z"/>
		<polygon style="fill:#6FDAF1;" points="27,27 27,43 56.809,43 72.809,27 		"/>
		<polygon style="fill:#6FDAF1;" points="27,47 27,63 36.809,63 52.809,47 		"/>
		<path style="fill:#DF2C2C;" d="M30,72.5c0,1.381-1.119,2.5-2.5,2.5S25,73.881,25,72.5V71h5V72.5z"/>
		<path style="fill:#CFD3D4;" d="M35,72.5c0,1.381-1.119,2.5-2.5,2.5c-1.381,0-2.5-1.119-2.5-2.5V71h5V72.5z"/>
		<path style="fill:#DF2C2C;" d="M40,72.5c0,1.381-1.119,2.5-2.5,2.5S35,73.881,35,72.5V71h5V72.5z"/>
		<path style="fill:#CFD3D4;" d="M45,72.5c0,1.381-1.119,2.5-2.5,2.5S40,73.881,40,72.5V71h5V72.5z"/>
		<path style="fill:#DF2C2C;" d="M80,72.5c0,1.381,1.119,2.5,2.5,2.5s2.5-1.119,2.5-2.5V71h-5V72.5z"/>
		<path style="fill:#CFD3D4;" d="M75,72.5c0,1.381,1.119,2.5,2.5,2.5s2.5-1.119,2.5-2.5V71h-5V72.5z"/>
		<path style="fill:#DF2C2C;" d="M70,72.5c0,1.381,1.119,2.5,2.5,2.5s2.5-1.119,2.5-2.5V71h-5V72.5z"/>
		<path style="fill:#CFD3D4;" d="M65,72.5c0,1.381,1.119,2.5,2.5,2.5s2.5-1.119,2.5-2.5V71h-5V72.5z"/>
		<polygon style="fill:#FA5655;" points="25,71 27,67 43,67 45,71 		"/>
		<polygon style="fill:#FA5655;" points="30,71 30,67 27,67 25,71 		"/>
		<polygon style="fill:#FFFFFF;" points="40,71 40,67 43,67 45,71 		"/>
		<rect x="30" y="67" style="fill:#FFFFFF;" width="5" height="4"/>
		<polygon style="fill:#FA5655;" points="85,71 83,67 67,67 65,71 		"/>
		<polygon style="fill:#FA5655;" points="80,71 80,67 83,67 85,71 		"/>
		<polygon style="fill:#FFFFFF;" points="70,71 70,67 67,67 65,71 		"/>
		<rect x="75" y="67" style="fill:#FFFFFF;" width="5" height="4"/>
		<rect x="40" y="27" style="fill:#FFFFFF;" width="2" height="16"/>
		<rect x="54" y="27" style="fill:#FFFFFF;" width="2" height="16"/>
		<rect x="68" y="27" style="fill:#FFFFFF;" width="2" height="16"/>
		<rect x="40" y="47" style="fill:#FFFFFF;" width="2" height="16"/>
		<rect x="54" y="47" style="fill:#FFFFFF;" width="2" height="16"/>
		<rect x="54" y="68" style="fill:#FFFFFF;" width="2" height="19"/>
		<rect x="68" y="47" style="fill:#FFFFFF;" width="2" height="16"/>
	</g>
</g>
</svg>
