<?xml version="1.0" encoding="iso-8859-1"?>
<!-- Generator: Adobe Illustrator 17.1.0, SVG Export Plug-In . SVG Version: 6.00 Build 0)  -->
<!DOCTYPE svg PUBLIC "-//W3C//DTD SVG 1.0//EN" "http://www.w3.org/TR/2001/REC-SVG-20010904/DTD/svg10.dtd">
<svg version="1.0" xmlns="http://www.w3.org/2000/svg" xmlns:xlink="http://www.w3.org/1999/xlink" x="0px" y="0px" width="110px"
	 height="110px" viewBox="0 0 110 110" style="enable-background:new 0 0 110 110;" xml:space="preserve">
<g id="Artboard">
</g>
<g id="Multicolor">
	<circle style="fill:#FABC3D;" cx="55" cy="55" r="55"/>
	<g>
		<polygon style="fill:#9C6144;" points="39,27 23,87 29,87 30,83 54.5,83 54,87 59,87 71,27 		"/>
		<polygon style="fill:#84462D;" points="61.786,83 78,83 79,87 84,87 72,31 		"/>
		<polygon style="fill:#AF7653;" points="59,87 61,87 72,31 84,87 86,87 73,27 71,27 		"/>
		<polygon style="fill:#0D9681;" points="42,31 29,79 56,79 66,31 		"/>
		<circle style="fill:#F3B607;" cx="79" cy="56" r="2"/>
		<path style="fill:#F0F1F1;" d="M79,58c-0.438,0-0.84-0.145-1.169-0.384C77.227,60.44,75.05,61.75,73,61.75
			s-4.227-1.31-4.831-4.134C67.84,57.855,67.438,58,67,58c-0.299,0-0.581-0.07-0.835-0.188c0.29,1.571,0.966,2.92,2.003,3.958
			c1.277,1.277,2.993,1.98,4.832,1.98c3.039,0,6.111-2.033,6.838-5.939C79.583,57.929,79.3,58,79,58z"/>
		<circle style="fill:#F3B607;" cx="67" cy="56" r="2"/>
		<polygon style="fill:#AF7653;" points="71.239,27 39,27 27.277,70.962 		"/>
		<polygon style="fill:#17B198;" points="65.674,32.565 66,31 42,31 32.625,65.614 		"/>
		<path style="fill:#FFFFFF;" d="M53,38.5c0,0.276-0.224,0.5-0.5,0.5h-9c-0.276,0-0.5-0.224-0.5-0.5s0.224-0.5,0.5-0.5h9
			C52.776,38,53,38.224,53,38.5z"/>
		<path style="fill:#FFFFFF;" d="M52,42.5c0,0.276-0.224,0.5-0.5,0.5h-9c-0.276,0-0.5-0.224-0.5-0.5s0.224-0.5,0.5-0.5h9
			C51.776,42,52,42.224,52,42.5z"/>
		<path style="fill:#FFFFFF;" d="M48,46.5c0,0.276-0.224,0.5-0.5,0.5h-6c-0.276,0-0.5-0.224-0.5-0.5s0.224-0.5,0.5-0.5h6
			C47.776,46,48,46.224,48,46.5z"/>
		<path style="fill:#FFFFFF;" d="M57,55.5c0,0.276-0.224,0.5-0.5,0.5h-11c-0.276,0-0.5-0.224-0.5-0.5s0.224-0.5,0.5-0.5h11
			C56.776,55,57,55.224,57,55.5z"/>
		<path style="fill:#FFFFFF;" d="M56,59.5c0,0.276-0.224,0.5-0.5,0.5h-14c-0.276,0-0.5-0.224-0.5-0.5s0.224-0.5,0.5-0.5h14
			C55.776,59,56,59.224,56,59.5z"/>
		<path style="fill:#FFFFFF;" d="M55,63.5c0,0.276-0.224,0.5-0.5,0.5h-17c-0.276,0-0.5-0.224-0.5-0.5s0.224-0.5,0.5-0.5h17
			C54.776,63,55,63.224,55,63.5z"/>
		<g>
			<g>
				<path style="fill:#FFFFFF;" d="M58.67,37c0.297,0,0.478,0.235,0.409,0.531c-0.013,0.057-0.02,0.085-0.033,0.142
					c0.539,0.082,1.004,0.244,1.391,0.49c0.172,0.11,0.309,0.306,0.244,0.612c-0.082,0.388-0.46,0.683-0.86,0.683
					c-0.126,0-0.247-0.032-0.348-0.092c-0.259-0.154-0.526-0.275-0.792-0.347c-0.145,0.62-0.217,0.93-0.361,1.55
					c1.521,0.418,2.092,1.05,1.854,2.192c-0.238,1.142-1.345,1.876-2.781,2.019c-0.05,0.216-0.075,0.324-0.125,0.541
					c-0.069,0.296-0.382,0.53-0.708,0.53c-0.327,0-0.528-0.234-0.456-0.53c0.054-0.22,0.081-0.33,0.134-0.551
					c-0.768-0.092-1.453-0.345-2.002-0.714c-0.196-0.131-0.284-0.336-0.209-0.612c0.107-0.397,0.515-0.693,0.94-0.693
					c0.141,0,0.281,0.053,0.391,0.133c0.379,0.277,0.777,0.469,1.258,0.571c0.158-0.648,0.237-0.973,0.396-1.621
					c-1.458-0.397-2.064-0.958-1.738-2.172c0.301-1.122,1.374-1.876,2.706-2.009c0.012-0.049,0.018-0.073,0.03-0.122
					C58.08,37.235,58.373,37,58.67,37z M57.383,40.304c0.134-0.551,0.201-0.826,0.335-1.376c-0.52,0.071-0.801,0.316-0.884,0.642
					C56.756,39.885,56.849,40.1,57.383,40.304z M57.966,42.088c-0.132,0.567-0.198,0.85-0.331,1.417
					c0.533-0.071,0.847-0.295,0.929-0.662C58.64,42.506,58.505,42.282,57.966,42.088z"/>
			</g>
		</g>
	</g>
</g>
</svg>
