<?xml version="1.0" encoding="iso-8859-1"?>
<!-- Generator: Adobe Illustrator 17.1.0, SVG Export Plug-In . SVG Version: 6.00 Build 0)  -->
<!DOCTYPE svg PUBLIC "-//W3C//DTD SVG 1.0//EN" "http://www.w3.org/TR/2001/REC-SVG-20010904/DTD/svg10.dtd">
<svg version="1.0" xmlns="http://www.w3.org/2000/svg" xmlns:xlink="http://www.w3.org/1999/xlink" x="0px" y="0px" width="110px"
	 height="110px" viewBox="0 0 110 110" style="enable-background:new 0 0 110 110;" xml:space="preserve">
<g id="Artboard">
</g>
<g id="Multicolor">
	<circle style="fill:#FABC3D;" cx="55" cy="55" r="55"/>
	<g>
		<path style="fill:#059BBF;" d="M87,87c0-28-8-56-8-56H31c0,0-8,28-8,56c6,0,24,0,24,0c-0.222-0.089,4-29,4-29h8
			c0,0,4.222,28.911,4,29C63,87,81,87,87,87z"/>
		<g>
			<polygon style="fill:#FFFFFF;" points="78,23 32,23 31,31 79,31 			"/>
		</g>
		<g>
			<rect x="38" y="23" style="fill:#CFD3D4;" width="3" height="8"/>
		</g>
		<g>
			<rect x="69" y="23" style="fill:#CFD3D4;" width="3" height="8"/>
		</g>
		<g>
			<rect x="51" y="31" style="fill:#0484AB;" width="8" height="27"/>
		</g>
		<g>
			<rect x="48" y="23" style="fill:#F3B607;" width="14" height="9"/>
		</g>
		<g>
			<path style="fill:#0484AB;" d="M28.125,42.925C28.577,42.975,29.036,43,29.5,43c6.661,0,12.181-5.186,13.286-12H31
				C31,31,29.687,35.597,28.125,42.925z"/>
		</g>
		<g>
			<path style="fill:#0484AB;" d="M81.875,42.925C81.423,42.975,80.964,43,80.5,43c-6.661,0-12.181-5.186-13.286-12H79
				C79,31,80.313,35.597,81.875,42.925z"/>
		</g>
		<g>
			<polygon style="fill:#FACB1B;" points="48,23 48,32 48.142,32 57.142,23 			"/>
		</g>
	</g>
</g>
</svg>
