<?xml version="1.0" encoding="iso-8859-1"?>
<!-- Generator: Adobe Illustrator 17.1.0, SVG Export Plug-In . SVG Version: 6.00 Build 0)  -->
<!DOCTYPE svg PUBLIC "-//W3C//DTD SVG 1.0//EN" "http://www.w3.org/TR/2001/REC-SVG-20010904/DTD/svg10.dtd">
<svg version="1.0" xmlns="http://www.w3.org/2000/svg" xmlns:xlink="http://www.w3.org/1999/xlink" x="0px" y="0px" width="110px"
	 height="110px" viewBox="0 0 110 110" style="enable-background:new 0 0 110 110;" xml:space="preserve">
<g id="Artboard">
</g>
<g id="Multicolor">
	<circle style="fill:#32BEA6;" cx="55" cy="55" r="55"/>
	<g>
		<g>
			<path style="fill:#E2E4E5;" d="M60.109,72.518L37.482,49.891c0,0-22.627,22.627-11.314,33.941S60.109,72.518,60.109,72.518z"/>
		</g>
		<g>
			<path style="fill:#FFFFFF;" d="M37.482,49.891c0,0-22.627,22.627-11.314,33.941c0.018,0.018,0.037,0.031,0.055,0.049
				l22.624-22.624L37.482,49.891z"/>
		</g>
		<g>
			<path style="fill:#84462D;" d="M72.463,25.247l-3.869,10.502L45.892,58.451c-0.22,0.22-0.385,0.487-0.483,0.782l-2.754,5.582
				c-0.24,0.719-0.052,1.511,0.483,2.047c0.536,0.536,1.328,0.723,2.047,0.483l5.582-2.754c0.295-0.098,0.562-0.264,0.782-0.483
				l22.702-22.702l10.502-3.869c0.64-0.236,1.116-0.781,1.262-1.448c0.146-0.666-0.057-1.361-0.539-1.843l-9.722-9.722
				c-0.482-0.482-1.177-0.686-1.843-0.539C73.245,24.131,72.699,24.607,72.463,25.247z M74.642,30.334
				c0.174-0.522,0.634-0.63,1.023-0.242l4.243,4.243c0.389,0.389,0.28,0.849-0.242,1.023l-6.588,2.196
				c-0.522,0.174-0.806-0.111-0.632-0.632L74.642,30.334z"/>
		</g>
		<g>
			<path style="fill:#9C6144;" d="M75.754,24.524c-0.482-0.482-1.177-0.686-1.843-0.539c-0.666,0.146-1.212,0.622-1.448,1.262
				l-3.869,10.502L45.892,58.451c-0.22,0.22-0.385,0.487-0.483,0.782l-2.754,5.582c-0.24,0.719-0.052,1.511,0.483,2.046
				c0.018,0.018,0.041,0.028,0.059,0.045L72.574,37.53c-0.163-0.101-0.228-0.308-0.128-0.609l2.196-6.588
				c0.174-0.521,0.634-0.63,1.023-0.242l2.173,2.174l2.828-2.829L75.754,24.524z"/>
		</g>
	</g>
</g>
</svg>
