<?xml version="1.0" encoding="iso-8859-1"?>
<!-- Generator: Adobe Illustrator 17.1.0, SVG Export Plug-In . SVG Version: 6.00 Build 0)  -->
<!DOCTYPE svg PUBLIC "-//W3C//DTD SVG 1.0//EN" "http://www.w3.org/TR/2001/REC-SVG-20010904/DTD/svg10.dtd">
<svg version="1.0" xmlns="http://www.w3.org/2000/svg" xmlns:xlink="http://www.w3.org/1999/xlink" x="0px" y="0px" width="110px"
	 height="110px" viewBox="0 0 110 110" style="enable-background:new 0 0 110 110;" xml:space="preserve">
<g id="Artboard">
</g>
<g id="Multicolor">
	<circle style="fill:#FABC3D;" cx="55" cy="55" r="55"/>
	<g>
		<g>
			<path style="fill:#F0F1F1;" d="M50.245,64.64c1.032,1.032,2.433,1.613,3.893,1.613h5.505L66,59.896v-5.505
				c0-1.46-0.58-2.86-1.613-3.893l-5.326-5.326c-1.562-1.562-4.095-1.562-5.657,0l-8.485,8.485c-1.562,1.562-1.562,4.095,0,5.657
				L50.245,64.64z"/>
		</g>
		<g>
			<path style="fill:#3E3E3F;" d="M71.204,58c4.577,0,14.183,9.219,15.774,24.588c0.117,1.127-0.25,2.251-1.01,3.093
				c-0.76,0.841-1.84,1.32-2.974,1.32c-8.975,0-29.014,0-41.368,0c-1.666,0-3.158-1.033-3.744-2.593
				c-0.586-1.56-0.143-3.319,1.11-4.417C48.794,71.407,65.085,58,71.204,58z"/>
		</g>
		<g>
			<path style="fill:#5B5C5F;" d="M26.204,87h38c11.227,0-14-21-22-21S16.623,87,26.204,87z"/>
		</g>
		<g>
			<path style="fill:#84462D;" d="M36.304,24.5c0-0.607-0.365-1.154-0.926-1.386c-0.56-0.232-1.205-0.104-1.634,0.325l-9.899,9.899
				c-0.429,0.429-0.558,1.074-0.325,1.634c0.232,0.561,0.779,0.926,1.386,0.926h8.571l16.885,16.885l2.974,1.487
				c0.385,0.192,0.85,0.117,1.154-0.187s0.38-0.769,0.187-1.154l-1.487-2.974L36.304,33.071V24.5z M33.304,32.9h-4.778l4.778-4.778
				V32.9z"/>
		</g>
		<g>
			<path style="fill:#9E9FA0;" d="M26.204,87h5.593L49.91,68.887C46.861,67.144,44.065,66,42.204,66C34.204,66,16.623,87,26.204,87z
				"/>
		</g>
	</g>
</g>
</svg>
