<?xml version="1.0" encoding="iso-8859-1"?>
<!-- Generator: Adobe Illustrator 17.1.0, SVG Export Plug-In . SVG Version: 6.00 Build 0)  -->
<!DOCTYPE svg PUBLIC "-//W3C//DTD SVG 1.0//EN" "http://www.w3.org/TR/2001/REC-SVG-20010904/DTD/svg10.dtd">
<svg version="1.0" xmlns="http://www.w3.org/2000/svg" xmlns:xlink="http://www.w3.org/1999/xlink" x="0px" y="0px" width="110px"
	 height="110px" viewBox="0 0 110 110" style="enable-background:new 0 0 110 110;" xml:space="preserve">
<g id="Artboard">
</g>
<g id="Multicolor">
	<circle style="fill:#25B7D3;" cx="55" cy="55" r="55"/>
	<g>
		<g>
			<g>
				<path style="fill:#FFFFFF;" d="M83,87h-4V39c0-4.411-3.589-8-8-8H57c-4.411,0-8,3.589-8,8v4h-4v-4c0-6.617,5.383-12,12-12h14
					c6.617,0,12,5.383,12,12V87z"/>
			</g>
		</g>
		<g>
			<path style="fill:#3E3E3F;" d="M54.6,44.198C54.281,43.47,53.562,43,52.768,43H41.384c-0.795,0-1.514,0.47-1.832,1.198l-5.25,12
				c-0.271,0.618-0.211,1.331,0.159,1.896C34.829,58.66,35.459,59,36.134,59h21.884c0.675,0,1.304-0.34,1.674-0.905
				c0.369-0.565,0.429-1.278,0.159-1.896L54.6,44.198z"/>
		</g>
		<g>
			<path style="fill:#C9F2F8;" d="M49.476,70.6c0,1.325-1.075,2.4-2.4,2.4c-1.325,0-2.4-1.075-2.4-2.4s2.4-5.6,2.4-5.6
				S49.476,69.275,49.476,70.6z"/>
		</g>
		<g>
			<path style="fill:#C9F2F8;" d="M49.476,84.6c0,1.325-1.075,2.4-2.4,2.4c-1.325,0-2.4-1.075-2.4-2.4s2.4-5.6,2.4-5.6
				S49.476,83.275,49.476,84.6z"/>
		</g>
		<g>
			<path style="fill:#C9F2F8;" d="M40.364,69.339c-0.464,1.242-1.847,1.872-3.088,1.408c-1.242-0.464-1.872-1.847-1.408-3.088
				c0.464-1.242,4.208-4.406,4.208-4.406S40.828,68.097,40.364,69.339z"/>
		</g>
		<g>
			<path style="fill:#C9F2F8;" d="M53.787,69.339c0.464,1.242,1.847,1.872,3.088,1.408c1.242-0.464,1.872-1.847,1.408-3.088
				c-0.464-1.242-4.208-4.406-4.208-4.406S53.324,68.097,53.787,69.339z"/>
		</g>
		<g>
			<path style="fill:#C9F2F8;" d="M54.427,84.086c0.464,1.242,1.847,1.872,3.088,1.408c1.242-0.464,1.872-1.847,1.408-3.088
				C58.459,81.164,54.715,78,54.715,78S53.963,82.844,54.427,84.086z"/>
		</g>
		<g>
			<path style="fill:#C9F2F8;" d="M64.55,81.093c0.529,1.215,1.944,1.771,3.159,1.242c1.215-0.529,1.771-1.944,1.242-3.159
				S64.514,75,64.514,75S64.021,79.877,64.55,81.093z"/>
		</g>
		<g>
			<path style="fill:#C9F2F8;" d="M29.601,81.093c-0.529,1.215-1.944,1.771-3.159,1.242c-1.215-0.529-1.771-1.944-1.242-3.159
				C25.73,77.96,29.637,75,29.637,75S30.13,79.877,29.601,81.093z"/>
		</g>
		<g>
			<path style="fill:#C9F2F8;" d="M39.724,84.086c-0.464,1.242-1.847,1.872-3.088,1.408s-1.872-1.847-1.408-3.088
				S39.436,78,39.436,78S40.188,82.844,39.724,84.086z"/>
		</g>
		<g>
			<path style="fill:#5B5C5F;" d="M47.076,43h-5.692c-0.795,0-1.514,0.47-1.832,1.198l-5.25,12
				c-0.271,0.619-0.211,1.332,0.159,1.896C34.829,58.66,35.459,59,36.134,59h10.942V43z"/>
		</g>
	</g>
</g>
</svg>
