<?xml version="1.0" encoding="iso-8859-1"?>
<!-- Generator: Adobe Illustrator 17.1.0, SVG Export Plug-In . SVG Version: 6.00 Build 0)  -->
<!DOCTYPE svg PUBLIC "-//W3C//DTD SVG 1.0//EN" "http://www.w3.org/TR/2001/REC-SVG-20010904/DTD/svg10.dtd">
<svg version="1.0" xmlns="http://www.w3.org/2000/svg" xmlns:xlink="http://www.w3.org/1999/xlink" x="0px" y="0px" width="110px"
	 height="110px" viewBox="0 0 110 110" style="enable-background:new 0 0 110 110;" xml:space="preserve">
<g id="Artboard">
</g>
<g id="Multicolor">
	<circle style="fill:#32BEA6;" cx="55" cy="55" r="55"/>
	<g>
		<g>
			<path style="fill:#CFD3D4;" d="M67,55.236c0-4.797,3.757-8.707,8.487-8.974l10.171-20.343c0.192-0.385,0.117-0.85-0.187-1.154
				c-0.304-0.304-0.769-0.38-1.154-0.187L63.974,34.749c-0.267,4.73-4.177,8.487-8.974,8.487s-8.707-3.757-8.974-8.487
				L25.683,24.578c-0.385-0.192-0.85-0.117-1.154,0.187c-0.304,0.304-0.38,0.769-0.187,1.154l10.171,20.343
				C39.243,46.529,43,50.439,43,55.236s-3.757,8.707-8.487,8.974L24.342,84.553c-0.192,0.385-0.117,0.85,0.187,1.154
				s0.769,0.38,1.154,0.187l20.343-10.171c0.267-4.73,4.177-8.487,8.974-8.487s8.707,3.757,8.974,8.487l20.343,10.171
				c0.385,0.192,0.85,0.117,1.154-0.187s0.38-0.769,0.187-1.154L75.487,64.21C70.757,63.943,67,60.033,67,55.236z M55,61.236
				c-3.314,0-6-2.686-6-6s2.686-6,6-6s6,2.686,6,6S58.314,61.236,55,61.236z"/>
		</g>
		<g>
			<path style="fill:#F0F1F1;" d="M84.317,24.578L63.974,34.749c-0.268,4.73-4.177,8.487-8.974,8.487s-8.707-3.757-8.974-8.487
				L25.683,24.578c-0.385-0.192-0.85-0.117-1.154,0.188c-0.304,0.304-0.379,0.769-0.187,1.154l10.171,20.343
				C39.244,46.529,43,50.439,43,55.236s-3.756,8.707-8.487,8.974L24.342,84.553c-0.157,0.314-0.127,0.677,0.051,0.966l26.21-26.21
				C49.611,58.239,49,56.81,49,55.236c0-3.314,2.687-6,6-6c1.574,0,3.002,0.611,4.073,1.603l26.21-26.21
				C84.993,24.45,84.631,24.421,84.317,24.578z"/>
		</g>
	</g>
</g>
</svg>
