<?xml version="1.0" encoding="iso-8859-1"?>
<!-- Generator: Adobe Illustrator 17.1.0, SVG Export Plug-In . SVG Version: 6.00 Build 0)  -->
<!DOCTYPE svg PUBLIC "-//W3C//DTD SVG 1.0//EN" "http://www.w3.org/TR/2001/REC-SVG-20010904/DTD/svg10.dtd">
<svg version="1.0" xmlns="http://www.w3.org/2000/svg" xmlns:xlink="http://www.w3.org/1999/xlink" x="0px" y="0px" width="110px"
	 height="110px" viewBox="0 0 110 110" style="enable-background:new 0 0 110 110;" xml:space="preserve">
<g id="Artboard">
</g>
<g id="Multicolor">
	<circle style="fill:#25B7D3;" cx="55" cy="55" r="55"/>
	<g>
		<g>
			<path style="fill:#FFFFFF;" d="M44.23,80.247L30.677,65.539l-4.486,4.134c-4.021,3.705-4.277,9.968-0.572,13.989l0.136,0.147
				c3.705,4.021,9.968,4.277,13.989,0.572L44.23,80.247z"/>
		</g>
		<g>
			<polygon style="fill:#FFFFFF;" points="48.524,62.691 48.582,61.279 36.776,72.157 38.131,73.628 49.937,62.749 			"/>
		</g>
		<g>
			<polygon style="fill:#FFFFFF;" points="65,37 76.965,37.035 76.996,48.738 57.003,63.038 48.524,62.691 48.871,54.213 			"/>
		</g>
		<g>
			<polygon style="fill:#E2E4E5;" points="76.965,37.035 76.996,48.738 57.003,63.038 48.524,62.691 			"/>
		</g>
		<g>
			
				<rect x="25.983" y="72.248" transform="matrix(0.6776 0.7354 -0.7354 0.6776 66.2007 -2.5271)" style="fill:#FA5655;" width="20" height="4"/>
		</g>
		<g>
			<polygon style="fill:#FFFFFF;" points="54.221,68.873 54.914,67.419 39.408,75.013 40.822,76.548 55.62,69.3 			"/>
		</g>
		<g>
			<polygon style="fill:#FFFFFF;" points="86,62 63.639,71.745 54.221,68.873 57.003,63.038 77,48.741 87,55 			"/>
		</g>
		<g>
			<polygon style="fill:#FFFFFF;" points="63.64,71.715 60.733,70.838 42.785,78.679 44.219,80.235 63.69,71.729 63.682,71.709 			
				"/>
		</g>
		<g>
			<polygon style="fill:#E2E4E5;" points="87,55 87,68 63.64,71.715 54.221,68.873 			"/>
		</g>
		<g>
			<polygon style="fill:#FFFFFF;" points="40.727,46.963 40.753,46.878 40.746,46.875 30.695,65.558 32.129,67.114 41.375,49.929 
							"/>
		</g>
		<g>
			<polygon style="fill:#FFFFFF;" points="42.807,56.487 42.504,55.1 34.075,69.226 35.488,70.76 44.358,55.896 			"/>
		</g>
		<g>
			<polygon style="fill:#FFFFFF;" points="48.94,54.15 42.807,56.487 40.727,46.963 48,23 63,23 65,37 			"/>
		</g>
		<g>
			<polygon style="fill:#E2E4E5;" points="63,23 65,37 49.069,54.259 42.807,56.487 			"/>
		</g>
	</g>
</g>
</svg>
