<?xml version="1.0" encoding="iso-8859-1"?>
<!-- Generator: Adobe Illustrator 17.1.0, SVG Export Plug-In . SVG Version: 6.00 Build 0)  -->
<!DOCTYPE svg PUBLIC "-//W3C//DTD SVG 1.0//EN" "http://www.w3.org/TR/2001/REC-SVG-20010904/DTD/svg10.dtd">
<svg version="1.0" xmlns="http://www.w3.org/2000/svg" xmlns:xlink="http://www.w3.org/1999/xlink" x="0px" y="0px" width="110px"
	 height="110px" viewBox="0 0 110 110" style="enable-background:new 0 0 110 110;" xml:space="preserve">
<g id="Artboard">
</g>
<g id="Multicolor">
	<circle style="fill:#25B7D3;" cx="55" cy="55" r="55"/>
	<g>
		<path style="fill:#F0F1F1;" d="M79,83c0,2.209-1.791,4-4,4H35c-2.209,0-4-1.791-4-4V27c0-2.209,1.791-4,4-4h30
			c1.259,0,2.445,0.593,3.2,1.6l10,13.333c0.519,0.692,0.8,1.535,0.8,2.4V83z"/>
		<path style="fill:#FFFFFF;" d="M78.2,37.933L68.2,24.6C67.444,23.593,66.259,23,65,23H35c-2.209,0-4,1.791-4,4v56
			c0,0.981,0.367,1.869,0.954,2.564l46.738-46.738C78.563,38.512,78.406,38.208,78.2,37.933z"/>
		<path style="fill:#F3B607;" d="M73,73c0,3.314-2.686,6-6,6H43c-3.314,0-6-2.686-6-6V57c0-3.314,2.686-6,6-6h24
			c3.314,0,6,2.686,6,6V73z"/>
		<path style="fill:#FACB1B;" d="M43,51c-3.313,0-6,2.686-6,6v16c0,2.045,1.025,3.848,2.587,4.932L66.519,51H43z"/>
		<path style="fill:#FBE158;" d="M47,51v5h-9.91C37.035,56.326,37,56.658,37,57v2h10v5H37v3h10v5H37v1c0,0.702,0.127,1.374,0.349,2
			H47v4h2V51H47z"/>
		<path style="fill:#FBE158;" d="M63,56v-5h-2v28h2v-4h9.651C72.873,74.374,73,73.702,73,73v-1H63v-5h10v-3H63v-5h10v-2
			c0-0.342-0.035-0.674-0.09-1H63z"/>
		<polygon style="fill:#FBEC9A;" points="61,51 61,56.518 63,54.518 63,51 		"/>
		<g>
			<path style="fill:#FBEC9A;" d="M37,72v1c0,0.702,0.127,1.374,0.349,2h5.17l3-3H37z"/>
			<path style="fill:#FBEC9A;" d="M49,68.518V51h-2v5h-9.91C37.035,56.326,37,56.658,37,57v2h10v5H37v3h10v3.518L49,68.518z"/>
		</g>
	</g>
</g>
</svg>
