<?xml version="1.0" encoding="iso-8859-1"?>
<!-- Generator: Adobe Illustrator 17.1.0, SVG Export Plug-In . SVG Version: 6.00 Build 0)  -->
<!DOCTYPE svg PUBLIC "-//W3C//DTD SVG 1.0//EN" "http://www.w3.org/TR/2001/REC-SVG-20010904/DTD/svg10.dtd">
<svg version="1.0" xmlns="http://www.w3.org/2000/svg" xmlns:xlink="http://www.w3.org/1999/xlink" x="0px" y="0px" width="110px"
	 height="110px" viewBox="0 0 110 110" style="enable-background:new 0 0 110 110;" xml:space="preserve">
<g id="Artboard">
</g>
<g id="Multicolor">
	<circle style="fill:#FABC3D;" cx="55" cy="55" r="55"/>
	<g>
		<g>
			<path style="fill:#3E3E3F;" d="M42.37,71.9c-0.41,1.8-2.02,3.1-3.9,3.1H29c-1.105,0-2-0.895-2-2v-6
				C36.2,67,38.79,69.64,42.37,71.9z"/>
		</g>
		<g>
			<path style="fill:#0484AB;" d="M71,55c8.84,0,16,7.16,16,16c0,1.5-0.83,2.81-2.05,3.49C84.37,74.81,83.71,75,83,75H55
				c-6.8,0-9.99-1.44-12.63-3.1C38.79,69.64,36.2,67,27,67c0-5,4-7,4-12c0-4.221,0-29.552,0-29.552h24V43c0,6.63,5.37,12,12,12H71z"
				/>
		</g>
		<g>
			<path style="fill:#059BBF;" d="M55,43V25.448h-1.726H31c0,0,0,25.33,0,29.552c0,5-4,7-4,12c3.095,0,5.43,0.303,7.318,0.786
				l21.22-21.22C55.189,45.439,55,44.242,55,43z"/>
		</g>
		<g>
			<path style="fill:#FFFFFF;" d="M87,79v2c0,3.31-2.69,6-6,6H25c-1.1,0-2-0.9-2-2v-2c0-1.1,0.9-2,2-2c2.21,0,4-1.79,4-4v-2h4v2
				c0,2.21,1.79,4,4,4h24c2.21,0,4-1.79,4-4v-2h4v2c0,2.21,1.79,4,4,4h4c2.21,0,4-1.79,4-4v-2h2c0.71,0,1.37-0.19,1.95-0.51
				C86.21,75.59,87,77.2,87,79z"/>
		</g>
		<g>
			<path style="fill:#5B5C5F;" d="M27,67v6c0,0.579,0.25,1.096,0.643,1.461l6.676-6.676C32.43,67.303,30.095,67,27,67z"/>
		</g>
		<g>
			<polygon style="fill:#3E3E3F;" points="39,41 55,41 55,35 39,35 35,38 			"/>
		</g>
		<g>
			<path style="fill:#F0F1F1;" d="M79,57.14V59c0,2.21-1.79,4-4,4H59c-6.63,0-12-5.37-12-12V41h8v2c0,6.618,5.341,12,12,12h4
				C73.905,55,76.677,55.791,79,57.14z"/>
		</g>
		<g>
			<path style="fill:#5B5C5F;" d="M61.15,53.48l-2.34,3.73c-0.59,0.93-1.82,1.22-2.76,0.63c-0.93-0.59-1.22-1.82-0.63-2.76
				l2.59-4.12C58.91,51.97,59.97,52.82,61.15,53.48z"/>
		</g>
		<g>
			<path style="fill:#5B5C5F;" d="M67.74,55l-0.5,3.51c-0.15,1.09-1.17,1.85-2.26,1.69c-1.09-0.15-1.85-1.17-1.7-2.26l0.49-3.38
				C64.79,54.85,65.88,55,67,55H67.74z"/>
		</g>
		<g>
			<path style="fill:#5B5C5F;" d="M75,55.51V59c0,1.1-0.9,2-2,2c-1.1,0-2-0.9-2-2v-4C72.38,55,73.72,55.17,75,55.51z"/>
		</g>
		<g>
			<path style="fill:#FFFFFF;" d="M55,43v-2h-8v10c0,1.242,0.189,2.439,0.538,3.566l8-8C55.215,45.522,55,44.18,55,43z"/>
		</g>
		<g>
			<path style="fill:#5B5C5F;" d="M56.73,49.22l-4.32,1.69c-1.03,0.4-2.19-0.11-2.59-1.14c-0.4-1.03,0.11-2.19,1.14-2.59l4.3-1.68
				C55.54,46.84,56.04,48.09,56.73,49.22z"/>
		</g>
		<g>
			<path style="fill:#F0F1F1;" d="M42,33c-0.552,0-1,0.448-1,1v8c0,0.552,0.448,1,1,1h8c0.552,0,1-0.448,1-1v-8c0-0.552-0.448-1-1-1
				H42z M49,40c0,0.552-0.448,1-1,1h-4c-0.552,0-1-0.448-1-1v-4c0-0.552,0.448-1,1-1h4c0.552,0,1,0.448,1,1V40z"/>
		</g>
	</g>
</g>
</svg>
