<?xml version="1.0" encoding="iso-8859-1"?>
<!-- Generator: Adobe Illustrator 17.1.0, SVG Export Plug-In . SVG Version: 6.00 Build 0)  -->
<!DOCTYPE svg PUBLIC "-//W3C//DTD SVG 1.0//EN" "http://www.w3.org/TR/2001/REC-SVG-20010904/DTD/svg10.dtd">
<svg version="1.0" xmlns="http://www.w3.org/2000/svg" xmlns:xlink="http://www.w3.org/1999/xlink" x="0px" y="0px" width="110px"
	 height="110px" viewBox="0 0 110 110" style="enable-background:new 0 0 110 110;" xml:space="preserve">
<g id="Artboard">
</g>
<g id="Multicolor">
	<circle style="fill:#FABC3D;" cx="55" cy="55" r="55"/>
	<g>
		<g>
			<path style="fill:#059BBF;" d="M55,47.667C55,42.88,58.88,39,63.666,39h14.667C83.12,39,87,42.88,87,47.667v35
				C87,85.06,85.06,87,82.667,87H59.333C56.94,87,55,85.06,55,82.667V47.667z"/>
		</g>
		<g>
			<path style="fill:#21B2D1;" d="M71.334,39h-7.667C58.88,39,55,42.88,55,47.667v35C55,85.06,56.94,87,59.333,87h12V39z"/>
		</g>
		<g>
			<path style="fill:#FFFFFF;" d="M63,71c0,1.1,0.9,2,2,2h12c1.1,0,2-0.9,2-2V51c0-1.1-0.9-2-2-2H65c-1.1,0-2,0.9-2,2V71z"/>
		</g>
		<g>
			<rect x="69.333" y="27" style="fill:#E2E4E5;" width="4" height="12"/>
		</g>
		<g>
			<polygon style="fill:#FFFFFF;" points="60.333,23 54.334,31 59.333,31 62.333,27 81,27 81,23 			"/>
		</g>
		<g>
			<path style="fill:#F0F1F1;" d="M55.967,66.274c-1.274-2.753-4.811-3.93-8.507-3.095C46.871,59.09,44.178,56,40.94,56
				c-3.317,0-6.057,3.244-6.555,7.48c-4.065-1.348-8.182-0.225-9.58,2.794c-1.477,3.191,0.625,7.326,4.709,9.474
				c-2.45,3.397-2.644,7.555-0.264,9.801c2.726,2.573,7.757,1.647,11.136-2.139c3.393,3.802,8.423,4.7,11.136,2.139
				c2.379-2.246,2.186-6.404-0.264-9.801C55.342,73.6,57.444,69.464,55.967,66.274z"/>
		</g>
		<g>
			<path style="fill:#FFFFFF;" d="M47.46,63.179C46.871,59.09,44.178,56,40.94,56c-3.316,0-6.057,3.244-6.555,7.48
				c-4.065-1.348-8.182-0.226-9.58,2.794c-1.477,3.19,0.625,7.326,4.709,9.474c-2.095,2.905-2.534,6.362-1.131,8.708L49.91,62.93
				C49.116,62.918,48.295,62.99,47.46,63.179z"/>
		</g>
		<g>
			<circle style="fill:#FACB1B;" cx="40.94" cy="72.607" r="6.643"/>
		</g>
		<g>
			<path style="fill:#FBE158;" d="M40.94,65.964c-3.669,0-6.643,2.974-6.643,6.643c0,1.654,0.608,3.164,1.609,4.327l9.361-9.36
				C44.104,66.573,42.594,65.964,40.94,65.964z"/>
		</g>
	</g>
</g>
</svg>
