<?xml version="1.0" encoding="iso-8859-1"?>
<!-- Generator: Adobe Illustrator 17.1.0, SVG Export Plug-In . SVG Version: 6.00 Build 0)  -->
<!DOCTYPE svg PUBLIC "-//W3C//DTD SVG 1.0//EN" "http://www.w3.org/TR/2001/REC-SVG-20010904/DTD/svg10.dtd">
<svg version="1.0" xmlns="http://www.w3.org/2000/svg" xmlns:xlink="http://www.w3.org/1999/xlink" x="0px" y="0px" width="110px"
	 height="110px" viewBox="0 0 110 110" style="enable-background:new 0 0 110 110;" xml:space="preserve">
<g id="Artboard" style="display:none;">
	<rect x="-1119" y="-71" style="display:inline;fill:#8C8C8C;" width="1412" height="743"/>
</g>
<g id="R-Multicolor">
	<circle style="fill:#E04F5F;" cx="55" cy="55" r="55"/>
	<g>
		<path style="fill:#F0F1F1;" d="M83,50.72C83,35.819,71.106,23,55,23c-16.104,0-28,12.817-28,27.72V65c0,3.31,2.69,6,6,6h4
			c1.1,0,2,0.9,2,2c0,13.919,0-7.903,0,8.5c0,3.038,2.462,5.5,5.5,5.5c2.455,0,4.564-1.632,5.256-3.895
			c0.044-0.143,0.333-0.15,0.369,0.01C50.633,85.34,52.622,87,55,87s4.367-1.66,4.875-3.885c0.037-0.16,0.346-0.155,0.382-0.036
			C60.967,85.438,63.131,87,65.5,87c3.038,0,5.5-2.462,5.5-5.5c0-5.468,0-3.138,0-8.5c0-1.1,0.9-2,2-2h4c3.31,0,6-2.69,6-6V50.72z"
			/>
		<path style="fill:#FFFFFF;" d="M27,50.72V65c0,3.31,2.69,6,6,6h4c1.1,0,2,0.9,2,2c0,0.807,0,7,0,8.5c0,3.038,2.462,5.5,5.5,5.5
			c2.456,0,4.564-1.632,5.256-3.896c0.043-0.141,0.332-0.151,0.369,0.011C50.633,85.34,52.622,87,55,87V23
			C38.896,23,27,35.817,27,50.72z"/>
		<path style="fill:#3E3E3F;" d="M53,60v8h-3.788C44.688,68,47.83,61.922,53,60z"/>
		<path style="fill:#3E3E3F;" d="M57,60v8h3.788C65.312,68,62.17,61.922,57,60z"/>
		<path style="fill:#3E3E3F;" d="M48.571,55h-9.443c-2.919,0-5.419-2.063-6.027-4.919c-3.61-16.965,14.852-14.771,17.86,2.035
			C51.229,53.614,50.092,55,48.571,55z"/>
		<path style="fill:#3E3E3F;" d="M61.429,55h9.443c2.919,0,5.419-2.063,6.027-4.919c3.61-16.965-14.852-14.771-17.86,2.035
			C58.771,53.614,59.908,55,61.429,55z"/>
	</g>
</g>
<g id="Multicolor" style="display:none;">
	<g style="display:inline;">
		<path style="fill:#F0F1F1;" d="M83,50.72C83,35.819,71.106,23,55,23c-16.104,0-28,12.817-28,27.72V65c0,3.31,2.69,6,6,6h4
			c1.1,0,2,0.9,2,2c0,13.919,0-7.903,0,8.5c0,3.038,2.462,5.5,5.5,5.5c2.455,0,4.564-1.632,5.256-3.895
			c0.044-0.143,0.333-0.15,0.369,0.01C50.633,85.34,52.622,87,55,87s4.367-1.66,4.875-3.885c0.037-0.16,0.346-0.155,0.382-0.036
			C60.967,85.438,63.131,87,65.5,87c3.038,0,5.5-2.462,5.5-5.5c0-5.468,0-3.138,0-8.5c0-1.1,0.9-2,2-2h4c3.31,0,6-2.69,6-6V50.72z"
			/>
		<path style="fill:#FFFFFF;" d="M27,50.72V65c0,3.31,2.69,6,6,6h4c1.1,0,2,0.9,2,2c0,0.807,0,7,0,8.5c0,3.038,2.462,5.5,5.5,5.5
			c2.456,0,4.564-1.632,5.256-3.896c0.043-0.141,0.332-0.151,0.369,0.011C50.633,85.34,52.622,87,55,87V23
			C38.896,23,27,35.817,27,50.72z"/>
		<path style="fill:#3E3E3F;" d="M53,60v8h-3.788C44.688,68,47.83,61.922,53,60z"/>
		<path style="fill:#3E3E3F;" d="M57,60v8h3.788C65.312,68,62.17,61.922,57,60z"/>
		<path style="fill:#3E3E3F;" d="M48.571,55h-9.443c-2.919,0-5.419-2.063-6.027-4.919c-3.61-16.965,14.852-14.771,17.86,2.035
			C51.229,53.614,50.092,55,48.571,55z"/>
		<path style="fill:#3E3E3F;" d="M61.429,55h9.443c2.919,0,5.419-2.063,6.027-4.919c3.61-16.965-14.852-14.771-17.86,2.035
			C58.771,53.614,59.908,55,61.429,55z"/>
	</g>
</g>
<g id="Blue" style="display:none;">
	<g style="display:inline;">
		<g>
			<path style="fill:#E1F5FA;" d="M83.003,50.72c0-14.901-11.894-27.72-28-27.72c-16.104,0-28,12.817-28,27.72V65c0,3.31,2.69,6,6,6
				h4c1.1,0,2,0.9,2,2c0,13.919,0-7.903,0,8.5c0,3.038,2.462,5.5,5.5,5.5c2.456,0,4.564-1.632,5.256-3.895
				c0.043-0.143,0.333-0.15,0.369,0.01C50.636,85.34,52.625,87,55.003,87s4.367-1.66,4.875-3.885
				c0.037-0.16,0.346-0.155,0.381-0.037C60.97,85.438,63.134,87,65.503,87c3.038,0,5.5-2.462,5.5-5.5c0-5.468,0-3.138,0-8.5
				c0-1.1,0.9-2,2-2h4c3.31,0,6-2.69,6-6V50.72z"/>
		</g>
		<g>
			<path style="fill:#FFFFFF;" d="M27.003,50.72V65c0,3.31,2.69,6,6,6h4c1.1,0,2,0.9,2,2c0,0.807,0,7,0,8.5
				c0,3.038,2.462,5.5,5.5,5.5c2.456,0,4.565-1.632,5.256-3.895c0.043-0.142,0.332-0.151,0.369,0.011
				C50.636,85.34,52.625,87,55.003,87V23C38.898,23,27.003,35.817,27.003,50.72z"/>
		</g>
		<g>
			<path style="fill:#0C333D;" d="M53.003,60v8h-3.788C44.691,68,47.833,61.922,53.003,60z"/>
		</g>
		<g>
			<path style="fill:#0C333D;" d="M57.003,60v8h3.788C65.315,68,62.173,61.922,57.003,60z"/>
		</g>
		<g>
			<path style="fill:#0C333D;" d="M48.574,55H39.13c-2.92,0-5.419-2.063-6.027-4.918c-3.61-16.965,14.852-14.771,17.86,2.035
				C51.231,53.614,50.095,55,48.574,55z"/>
		</g>
		<g>
			<path style="fill:#0C333D;" d="M61.432,55h9.443c2.919,0,5.419-2.063,6.027-4.918c3.61-16.965-14.852-14.771-17.86,2.035
				C58.774,53.614,59.911,55,61.432,55z"/>
		</g>
	</g>
</g>
<g id="R-Blue" style="display:none;">
	<g style="display:inline;">
		<circle style="fill:#81D2EB;" cx="55" cy="55" r="55"/>
	</g>
	<g style="display:inline;">
		<g>
			<path style="fill:#E1F5FA;" d="M83,50.72C83,35.819,71.106,23,55,23c-16.104,0-28,12.817-28,27.72V65c0,3.31,2.69,6,6,6h4
				c1.1,0,2,0.9,2,2c0,13.919,0-7.903,0,8.5c0,3.038,2.462,5.5,5.5,5.5c2.456,0,4.564-1.632,5.256-3.895
				c0.043-0.143,0.333-0.15,0.369,0.01C50.633,85.34,52.622,87,55,87s4.367-1.66,4.875-3.885c0.037-0.16,0.346-0.155,0.381-0.037
				C60.967,85.438,63.131,87,65.5,87c3.038,0,5.5-2.462,5.5-5.5c0-5.468,0-3.138,0-8.5c0-1.1,0.9-2,2-2h4c3.31,0,6-2.69,6-6V50.72z"
				/>
		</g>
		<g>
			<path style="fill:#FFFFFF;" d="M27,50.72V65c0,3.31,2.69,6,6,6h4c1.1,0,2,0.9,2,2c0,0.807,0,7,0,8.5c0,3.038,2.462,5.5,5.5,5.5
				c2.456,0,4.565-1.632,5.256-3.896c0.043-0.142,0.332-0.151,0.369,0.011C50.633,85.34,52.622,87,55,87V23
				C38.896,23,27,35.817,27,50.72z"/>
		</g>
		<g>
			<path style="fill:#0C333D;" d="M53,60v8h-3.788C44.688,68,47.83,61.922,53,60z"/>
		</g>
		<g>
			<path style="fill:#0C333D;" d="M57,60v8h3.788C65.312,68,62.17,61.922,57,60z"/>
		</g>
		<g>
			<path style="fill:#0C333D;" d="M48.571,55h-9.443c-2.92,0-5.419-2.063-6.027-4.918c-3.61-16.965,14.852-14.771,17.86,2.035
				C51.229,53.614,50.092,55,48.571,55z"/>
		</g>
		<g>
			<path style="fill:#0C333D;" d="M61.429,55h9.443c2.919,0,5.419-2.063,6.027-4.918c3.61-16.965-14.852-14.771-17.86,2.035
				C58.771,53.614,59.908,55,61.429,55z"/>
		</g>
	</g>
</g>
<g id="Green" style="display:none;">
	<g style="display:inline;">
		<g>
			<path style="fill:#D7FCF9;" d="M83.003,50.72c0-14.901-11.894-27.72-28-27.72c-16.104,0-28,12.817-28,27.72V65c0,3.31,2.69,6,6,6
				h4c1.1,0,2,0.9,2,2c0,13.919,0-7.903,0,8.5c0,3.038,2.462,5.5,5.5,5.5c2.456,0,4.564-1.632,5.256-3.895
				c0.043-0.143,0.333-0.15,0.369,0.01C50.636,85.34,52.625,87,55.003,87s4.367-1.66,4.875-3.885
				c0.037-0.16,0.346-0.155,0.381-0.037C60.97,85.438,63.134,87,65.503,87c3.038,0,5.5-2.462,5.5-5.5c0-5.468,0-3.138,0-8.5
				c0-1.1,0.9-2,2-2h4c3.31,0,6-2.69,6-6V50.72z"/>
		</g>
		<g>
			<path style="fill:#FFFFFF;" d="M27.003,50.72V65c0,3.31,2.69,6,6,6h4c1.1,0,2,0.9,2,2c0,0.807,0,7,0,8.5
				c0,3.038,2.462,5.5,5.5,5.5c2.456,0,4.565-1.632,5.256-3.896c0.043-0.142,0.332-0.151,0.369,0.011
				C50.636,85.34,52.625,87,55.003,87V23C38.898,23,27.003,35.817,27.003,50.72z"/>
		</g>
		<g>
			<path style="fill:#0A3631;" d="M53.003,60v8h-3.788C44.691,68,47.833,61.922,53.003,60z"/>
		</g>
		<g>
			<path style="fill:#0A3631;" d="M57.003,60v8h3.788C65.315,68,62.173,61.922,57.003,60z"/>
		</g>
		<g>
			<path style="fill:#0A3631;" d="M48.574,55H39.13c-2.92,0-5.419-2.063-6.027-4.918c-3.61-16.965,14.852-14.771,17.86,2.035
				C51.231,53.614,50.095,55,48.574,55z"/>
		</g>
		<g>
			<path style="fill:#0A3631;" d="M61.432,55h9.443c2.919,0,5.419-2.063,6.027-4.918c3.61-16.965-14.852-14.771-17.86,2.035
				C58.774,53.614,59.911,55,61.432,55z"/>
		</g>
	</g>
</g>
<g id="R-Green" style="display:none;">
	<g style="display:inline;">
		<circle style="fill:#87E0C8;" cx="55" cy="55" r="55"/>
	</g>
	<g style="display:inline;">
		<g>
			<path style="fill:#D7FCF9;" d="M83,50.72C83,35.819,71.106,23,55,23c-16.104,0-28,12.817-28,27.72V65c0,3.31,2.69,6,6,6h4
				c1.1,0,2,0.9,2,2c0,13.919,0-7.903,0,8.5c0,3.038,2.462,5.5,5.5,5.5c2.456,0,4.564-1.632,5.256-3.895
				c0.043-0.143,0.333-0.15,0.369,0.01C50.633,85.34,52.622,87,55,87s4.367-1.66,4.875-3.885c0.037-0.16,0.346-0.155,0.381-0.037
				C60.967,85.438,63.131,87,65.5,87c3.038,0,5.5-2.462,5.5-5.5c0-5.468,0-3.138,0-8.5c0-1.1,0.9-2,2-2h4c3.31,0,6-2.69,6-6V50.72z"
				/>
		</g>
		<g>
			<path style="fill:#FFFFFF;" d="M27,50.72V65c0,3.31,2.69,6,6,6h4c1.1,0,2,0.9,2,2c0,0.807,0,7,0,8.5c0,3.038,2.462,5.5,5.5,5.5
				c2.456,0,4.565-1.632,5.256-3.896c0.043-0.142,0.332-0.151,0.369,0.011C50.633,85.34,52.622,87,55,87V23
				C38.896,23,27,35.817,27,50.72z"/>
		</g>
		<g>
			<path style="fill:#0A3631;" d="M53,60v8h-3.788C44.688,68,47.83,61.922,53,60z"/>
		</g>
		<g>
			<path style="fill:#0A3631;" d="M57,60v8h3.788C65.312,68,62.17,61.922,57,60z"/>
		</g>
		<g>
			<path style="fill:#0A3631;" d="M48.571,55h-9.443c-2.92,0-5.419-2.063-6.027-4.918c-3.61-16.965,14.852-14.771,17.86,2.035
				C51.229,53.614,50.092,55,48.571,55z"/>
		</g>
		<g>
			<path style="fill:#0A3631;" d="M61.429,55h9.443c2.919,0,5.419-2.063,6.027-4.918c3.61-16.965-14.852-14.771-17.86,2.035
				C58.771,53.614,59.908,55,61.429,55z"/>
		</g>
	</g>
</g>
<g id="Red" style="display:none;">
	<g style="display:inline;">
		<g>
			<path style="fill:#FFEFED;" d="M83,50.72C83,35.819,71.106,23,55,23c-16.104,0-28,12.817-28,27.72V65c0,3.31,2.69,6,6,6h4
				c1.1,0,2,0.9,2,2c0,13.919,0-7.903,0,8.5c0,3.038,2.462,5.5,5.5,5.5c2.456,0,4.564-1.632,5.256-3.895
				c0.043-0.143,0.333-0.15,0.369,0.01C50.633,85.34,52.622,87,55,87s4.367-1.66,4.875-3.885c0.037-0.16,0.346-0.155,0.381-0.037
				C60.967,85.438,63.131,87,65.5,87c3.038,0,5.5-2.462,5.5-5.5c0-5.468,0-3.138,0-8.5c0-1.1,0.9-2,2-2h4c3.31,0,6-2.69,6-6V50.72z"
				/>
		</g>
		<g>
			<path style="fill:#FFFFFF;" d="M27,50.72V65c0,3.31,2.69,6,6,6h4c1.1,0,2,0.9,2,2c0,0.807,0,7,0,8.5c0,3.038,2.462,5.5,5.5,5.5
				c2.456,0,4.565-1.632,5.256-3.895c0.043-0.142,0.332-0.151,0.369,0.011C50.633,85.34,52.622,87,55,87V23
				C38.896,23,27,35.817,27,50.72z"/>
		</g>
		<g>
			<path style="fill:#4A1410;" d="M53,60v8h-3.788C44.688,68,47.83,61.922,53,60z"/>
		</g>
		<g>
			<path style="fill:#4A1410;" d="M57,60v8h3.788C65.312,68,62.17,61.922,57,60z"/>
		</g>
		<g>
			<path style="fill:#4A1410;" d="M48.571,55h-9.443c-2.92,0-5.419-2.063-6.027-4.918c-3.61-16.965,14.852-14.771,17.86,2.035
				C51.229,53.614,50.092,55,48.571,55z"/>
		</g>
		<g>
			<path style="fill:#4A1410;" d="M61.429,55h9.443c2.919,0,5.419-2.063,6.027-4.918c3.61-16.965-14.852-14.771-17.86,2.035
				C58.771,53.614,59.908,55,61.429,55z"/>
		</g>
	</g>
</g>
<g id="R-Red" style="display:none;">
	<g style="display:inline;">
		<circle style="fill:#FABBAF;" cx="55" cy="55" r="55"/>
	</g>
	<g style="display:inline;">
		<g>
			<path style="fill:#FFEFED;" d="M83,50.72C83,35.819,71.106,23,55,23c-16.104,0-28,12.817-28,27.72V65c0,3.31,2.69,6,6,6h4
				c1.1,0,2,0.9,2,2c0,13.919,0-7.903,0,8.5c0,3.038,2.462,5.5,5.5,5.5c2.456,0,4.564-1.632,5.256-3.895
				c0.043-0.143,0.333-0.15,0.369,0.01C50.633,85.34,52.622,87,55,87s4.367-1.66,4.875-3.885c0.037-0.16,0.346-0.155,0.381-0.037
				C60.967,85.438,63.131,87,65.5,87c3.038,0,5.5-2.462,5.5-5.5c0-5.468,0-3.138,0-8.5c0-1.1,0.9-2,2-2h4c3.31,0,6-2.69,6-6V50.72z"
				/>
		</g>
		<g>
			<path style="fill:#FFFFFF;" d="M27,50.72V65c0,3.31,2.69,6,6,6h4c1.1,0,2,0.9,2,2c0,0.807,0,7,0,8.5c0,3.038,2.462,5.5,5.5,5.5
				c2.456,0,4.565-1.632,5.256-3.896c0.043-0.142,0.332-0.151,0.369,0.011C50.633,85.34,52.622,87,55,87V23
				C38.896,23,27,35.817,27,50.72z"/>
		</g>
		<g>
			<path style="fill:#4A1410;" d="M53,60v8h-3.788C44.688,68,47.83,61.922,53,60z"/>
		</g>
		<g>
			<path style="fill:#4A1410;" d="M57,60v8h3.788C65.312,68,62.17,61.922,57,60z"/>
		</g>
		<g>
			<path style="fill:#4A1410;" d="M48.571,55h-9.443c-2.92,0-5.419-2.063-6.027-4.918c-3.61-16.965,14.852-14.771,17.86,2.035
				C51.229,53.614,50.092,55,48.571,55z"/>
		</g>
		<g>
			<path style="fill:#4A1410;" d="M61.429,55h9.443c2.919,0,5.419-2.063,6.027-4.918c3.61-16.965-14.852-14.771-17.86,2.035
				C58.771,53.614,59.908,55,61.429,55z"/>
		</g>
	</g>
</g>
<g id="Yellow" style="display:none;">
	<g style="display:inline;">
		<g>
			<path style="fill:#FFF5D9;" d="M83.003,50.72c0-14.901-11.894-27.72-28-27.72c-16.104,0-28,12.817-28,27.72V65c0,3.31,2.69,6,6,6
				h4c1.1,0,2,0.9,2,2c0,13.919,0-7.903,0,8.5c0,3.038,2.462,5.5,5.5,5.5c2.456,0,4.564-1.632,5.256-3.895
				c0.043-0.143,0.333-0.15,0.369,0.01C50.636,85.34,52.625,87,55.003,87s4.367-1.66,4.875-3.885
				c0.037-0.16,0.346-0.155,0.381-0.037C60.97,85.438,63.134,87,65.503,87c3.038,0,5.5-2.462,5.5-5.5c0-5.468,0-3.138,0-8.5
				c0-1.1,0.9-2,2-2h4c3.31,0,6-2.69,6-6V50.72z"/>
		</g>
		<g>
			<path style="fill:#FFFFFF;" d="M27.003,50.72V65c0,3.31,2.69,6,6,6h4c1.1,0,2,0.9,2,2c0,0.807,0,7,0,8.5
				c0,3.038,2.462,5.5,5.5,5.5c2.456,0,4.565-1.632,5.256-3.896c0.043-0.142,0.332-0.151,0.369,0.011
				C50.636,85.34,52.625,87,55.003,87V23C38.898,23,27.003,35.817,27.003,50.72z"/>
		</g>
		<g>
			<path style="fill:#3D320C;" d="M53.003,60v8h-3.788C44.691,68,47.833,61.922,53.003,60z"/>
		</g>
		<g>
			<path style="fill:#3D320C;" d="M57.003,60v8h3.788C65.315,68,62.173,61.922,57.003,60z"/>
		</g>
		<g>
			<path style="fill:#3D320C;" d="M48.574,55H39.13c-2.92,0-5.419-2.063-6.027-4.918c-3.61-16.965,14.852-14.771,17.86,2.035
				C51.231,53.614,50.095,55,48.574,55z"/>
		</g>
		<g>
			<path style="fill:#3D320C;" d="M61.432,55h9.443c2.919,0,5.419-2.063,6.027-4.918c3.61-16.965-14.852-14.771-17.86,2.035
				C58.774,53.614,59.911,55,61.432,55z"/>
		</g>
	</g>
</g>
<g id="R-Yellow" style="display:none;">
	<g style="display:inline;">
		<circle style="fill:#FFD75E;" cx="55" cy="55" r="55"/>
	</g>
	<g style="display:inline;">
		<g>
			<path style="fill:#FFF5D9;" d="M83,50.72C83,35.819,71.106,23,55,23c-16.104,0-28,12.817-28,27.72V65c0,3.31,2.69,6,6,6h4
				c1.1,0,2,0.9,2,2c0,13.919,0-7.903,0,8.5c0,3.038,2.462,5.5,5.5,5.5c2.456,0,4.564-1.632,5.256-3.895
				c0.044-0.143,0.333-0.15,0.369,0.01C50.633,85.34,52.622,87,55,87s4.367-1.66,4.875-3.885c0.037-0.16,0.346-0.155,0.381-0.037
				C60.967,85.438,63.131,87,65.5,87c3.038,0,5.5-2.462,5.5-5.5c0-5.468,0-3.138,0-8.5c0-1.1,0.9-2,2-2h4c3.31,0,6-2.69,6-6V50.72z"
				/>
		</g>
		<g>
			<path style="fill:#FFFFFF;" d="M27,50.72V65c0,3.31,2.69,6,6,6h4c1.1,0,2,0.9,2,2c0,0.807,0,7,0,8.5c0,3.038,2.462,5.5,5.5,5.5
				c2.456,0,4.564-1.632,5.256-3.896c0.044-0.142,0.332-0.151,0.369,0.011C50.633,85.34,52.622,87,55,87V23
				C38.896,23,27,35.817,27,50.72z"/>
		</g>
		<g>
			<path style="fill:#3D320C;" d="M53,60v8h-3.788C44.688,68,47.83,61.922,53,60z"/>
		</g>
		<g>
			<path style="fill:#3D320C;" d="M57,60v8h3.788C65.312,68,62.17,61.922,57,60z"/>
		</g>
		<g>
			<path style="fill:#3D320C;" d="M48.571,55h-9.443c-2.92,0-5.419-2.063-6.027-4.918c-3.61-16.965,14.852-14.771,17.86,2.035
				C51.229,53.614,50.092,55,48.571,55z"/>
		</g>
		<g>
			<path style="fill:#3D320C;" d="M61.429,55h9.443c2.919,0,5.419-2.063,6.027-4.918c3.61-16.965-14.852-14.771-17.86,2.035
				C58.771,53.614,59.908,55,61.429,55z"/>
		</g>
	</g>
</g>
</svg>
