<?xml version="1.0" encoding="iso-8859-1"?>
<!-- Generator: Adobe Illustrator 17.1.0, SVG Export Plug-In . SVG Version: 6.00 Build 0)  -->
<!DOCTYPE svg PUBLIC "-//W3C//DTD SVG 1.0//EN" "http://www.w3.org/TR/2001/REC-SVG-20010904/DTD/svg10.dtd">
<svg version="1.0" xmlns="http://www.w3.org/2000/svg" xmlns:xlink="http://www.w3.org/1999/xlink" x="0px" y="0px" width="110px"
	 height="110px" viewBox="0 0 110 110" style="enable-background:new 0 0 110 110;" xml:space="preserve">
<g id="Artboard">
</g>
<g id="Multicolor">
	<circle style="fill:#E04F5F;" cx="55" cy="55" r="55"/>
	<g>
		<path style="fill:#FFFFFF;" d="M77.444,71.788l-7.956-7.956C71.693,59.711,73,55.179,73,51.545c0-2.703-0.733-5.083-2.009-7.101
			l6.454-6.454c2.152,2.097,5.592,2.085,7.723-0.045c2.148-2.148,2.148-5.63,0-7.778c-1.09-1.09-2.523-1.621-3.951-1.605
			c0.016-1.428-0.515-2.861-1.605-3.951c-2.148-2.148-5.63-2.148-7.778,0c-2.131,2.131-2.142,5.571-0.045,7.723l-6.835,6.835
			C62.103,37.759,58.685,37,55.006,37c-3.746,0-7.224,0.784-10.105,2.244l-6.911-6.911c2.096-2.152,2.085-5.592-0.045-7.723
			c-2.148-2.148-5.63-2.148-7.778,0c-1.09,1.09-1.621,2.523-1.605,3.951c-1.428-0.016-2.861,0.516-3.951,1.605
			c-2.148,2.147-2.148,5.63,0,7.778c2.131,2.131,5.571,2.142,7.723,0.045l6.601,6.601c-1.22,1.988-1.923,4.315-1.923,6.954
			c0,3.589,1.279,8.052,3.433,12.132l-8.111,8.11c-2.152-2.096-5.592-2.085-7.723,0.045c-2.148,2.148-2.148,5.63,0,7.778
			c1.09,1.089,2.523,1.621,3.951,1.605c-0.016,1.428,0.515,2.861,1.605,3.951c2.148,2.148,5.63,2.148,7.778,0
			c2.131-2.131,2.142-5.571,0.045-7.723l4.419-4.419v2.156c0,1.004,0.806,1.818,1.799,1.818H45c1.104,0,2-0.896,2-2v-3h2v3
			c0,1.104,0.896,2,2,2h1c1.104,0,2-0.896,2-2v-3h2v3c0,1.104,0.896,2,2,2h1c1.104,0,2-0.896,2-2v-3h2v3c0,1.104,0.896,2,2,2h0.802
			c0.994,0,1.8-0.814,1.8-1.818v-1.923l4.186,4.186c-2.096,2.152-2.085,5.592,0.045,7.723c2.148,2.148,5.63,2.148,7.778,0
			c1.09-1.09,1.621-2.522,1.605-3.951c1.428,0.016,2.861-0.516,3.951-1.605c2.148-2.148,2.148-5.63,0-7.778
			C83.036,69.703,79.596,69.691,77.444,71.788z"/>
		<g>
			<path style="fill:#3E3E3F;" d="M57.483,61.829c0.153,0.31,0.136,0.677-0.047,0.971c-0.182,0.294-0.504,0.473-0.85,0.473h-3.977
				c-0.346,0-0.667-0.179-0.85-0.473c-0.182-0.294-0.2-0.661-0.047-0.971l1.988-4.018c0.169-0.341,0.516-0.556,0.896-0.556
				c0.38,0,0.728,0.216,0.896,0.556L57.483,61.829z"/>
		</g>
		<g>
			<circle style="fill:#3E3E3F;" cx="47.5" cy="50.5" r="4.5"/>
		</g>
		<g>
			<circle style="fill:#3E3E3F;" cx="62.5" cy="50.5" r="4.5"/>
		</g>
	</g>
</g>
</svg>
