<?xml version="1.0" encoding="iso-8859-1"?>
<!-- Generator: Adobe Illustrator 17.1.0, SVG Export Plug-In . SVG Version: 6.00 Build 0)  -->
<!DOCTYPE svg PUBLIC "-//W3C//DTD SVG 1.0//EN" "http://www.w3.org/TR/2001/REC-SVG-20010904/DTD/svg10.dtd">
<svg version="1.0" xmlns="http://www.w3.org/2000/svg" xmlns:xlink="http://www.w3.org/1999/xlink" x="0px" y="0px" width="110px"
	 height="110px" viewBox="0 0 110 110" style="enable-background:new 0 0 110 110;" xml:space="preserve">
<g id="Artboard">
</g>
<g id="Multicolor">
	<circle style="fill:#FABC3D;" cx="55" cy="55" r="55"/>
	<g>
		<g>
			<path style="fill:#0484AB;" d="M55,41v46h8v-4h16l0,4h8V41H55z M79,59H63v-8c0-4.4,3.6-8,8-8c4.4,0,8,3.6,8,8V59z"/>
		</g>
		<g>
			<polygon style="fill:#DF2C2C;" points="55,58.678 28.303,76 23,76 23,87 35,87 35,86.985 35.01,87 55,74.03 			"/>
		</g>
		<g>
			<polygon style="fill:#DF2C2C;" points="87,37 55,37 71,23 			"/>
		</g>
		<g>
			<rect x="63" y="65" style="fill:#C9F2F8;" width="16" height="12"/>
		</g>
		<g>
			<rect x="55" y="37" style="fill:#F0F1F1;" width="32" height="4"/>
		</g>
		<g>
			<polygon style="fill:#FFFFFF;" points="28.303,71.846 23,71.846 23,76 28.303,76 55,58.678 55,54.523 			"/>
		</g>
		<rect x="55" y="37" style="fill:#FFFFFF;" width="16" height="4"/>
		<polygon style="fill:#FA5655;" points="71,23 55,37 71,37 		"/>
	</g>
</g>
</svg>
