<?xml version="1.0" encoding="iso-8859-1"?>
<!-- Generator: Adobe Illustrator 17.1.0, SVG Export Plug-In . SVG Version: 6.00 Build 0)  -->
<!DOCTYPE svg PUBLIC "-//W3C//DTD SVG 1.0//EN" "http://www.w3.org/TR/2001/REC-SVG-20010904/DTD/svg10.dtd">
<svg version="1.0" xmlns="http://www.w3.org/2000/svg" xmlns:xlink="http://www.w3.org/1999/xlink" x="0px" y="0px" width="110px"
	 height="110px" viewBox="0 0 110 110" style="enable-background:new 0 0 110 110;" xml:space="preserve">
<g id="Artboard">
</g>
<g id="Multicolor">
	<circle style="fill:#FABC3D;" cx="55" cy="55" r="55"/>
	<g>
		<g>
			<path style="fill:#059BBF;" d="M83,40.125c0-10-9.027-16.519-13.301-17c-22.199-2.5-10.699,33-9.698,54.415
				c0.567,5.447,5.159,9.585,10.635,9.585c5.775,0,10.507-4.586,10.687-10.358L83,40.125z"/>
		</g>
		<g>
			<path style="fill:#21B2D1;" d="M69.699,23.125C56.068,21.59,55.147,34.388,56.696,49.45l21.321-21.321
				C75.212,25.147,71.853,23.368,69.699,23.125z"/>
		</g>
		<g>
			<path style="fill:#059BBF;" d="M27,40.125c0-10,9.027-16.519,13.301-17c22.199-2.5,10.699,33,9.698,54.415
				c-0.567,5.447-5.159,9.585-10.635,9.585c-5.775,0-10.507-4.586-10.687-10.358L27,40.125z"/>
		</g>
		<g>
			<path style="fill:#21B2D1;" d="M40.301,23.125c-4.274,0.481-13.301,7-13.301,17l0.745,16.276l25.12-25.12
				C51.301,25.657,47.659,22.297,40.301,23.125z"/>
		</g>
		<g>
			<path style="fill:#E2E4E5;" d="M52.166,59.261l-0.38,0.75c-0.48,1-1.68,1.41-2.67,0.93c-1-0.48-1.42-1.67-0.94-2.67
				c0,0,2.66-5.31,2.76-5.43C51.556,54.991,51.996,57.151,52.166,59.261z"/>
		</g>
		<path style="fill:#FFFFFF;" d="M39.42,33.585c0-0.094,0.021-0.182,0.028-0.274c-3.094,2.599-8.481,8.045-12.108,16.964
			c-0.22,0.53-0.2,1.13,0.06,1.65l2.6,5.2c0.17-2.18,0.67-4.26,1.41-6.2c2.401-6.446,7.224-11.44,10.194-14.074
			C40.337,36.319,39.42,35.068,39.42,33.585z"/>
		<path style="fill:#FFFFFF;" d="M54.82,52.415c-2.062-8.334-6.064-14.688-8.425-18.015c-0.319,1.333-1.391,2.377-2.729,2.653
			c2.497,4.102,5.563,9.861,7.264,15.772c0.62,2.15,1.06,4.31,1.23,6.42v0.03l2.6-5.21C55.01,53.545,54.96,52.975,54.82,52.415z"/>
		<g>
			<path style="fill:#3E3E3F;" d="M46.5,33.585c0,1.956-1.609,3.54-3.54,3.54c-1.914,0-3.54-1.565-3.54-3.54
				c0-2.021,1.684-3.54,3.512-3.54C45.067,30.045,46.5,31.815,46.5,33.585z"/>
		</g>
		<g>
			<path style="fill:#E2E4E5;" d="M30,57.125c0.17-2.18,0.67-4.26,1.41-6.2c0.01,0.02,2.5,5.1,2.5,5.1c0.47,1,0.04,2.19-0.96,2.66
				c-1,0.48-2.19,0.05-2.66-0.95L30,57.125z"/>
		</g>
		<g>
			<path style="fill:#E2E4E5;" d="M57.834,59.261l0.38,0.75c0.48,1,1.68,1.41,2.67,0.93c1-0.48,1.42-1.67,0.94-2.67
				c0,0-2.66-5.31-2.76-5.43C58.444,54.991,58.004,57.151,57.834,59.261z"/>
		</g>
		<path style="fill:#FFFFFF;" d="M82.66,50.275c-3.665-9.011-9.123-14.474-12.201-17.04c0.187,1.657-0.751,3.023-2.082,3.6
			c2.968,2.629,7.806,7.631,10.212,14.09c0.74,1.94,1.24,4.02,1.41,6.2l2.6-5.2C82.86,51.405,82.88,50.805,82.66,50.275z"/>
		<path style="fill:#FFFFFF;" d="M63.597,34.411c-2.361,3.33-6.357,9.679-8.417,18.004c-0.14,0.56-0.19,1.13,0.06,1.65l2.6,5.21
			v-0.03c0.17-2.11,0.61-4.27,1.23-6.42c1.7-5.909,4.765-11.666,7.261-15.768C64.988,36.792,63.909,35.749,63.597,34.411z"/>
		<g>
			<path style="fill:#3E3E3F;" d="M63.5,33.625c0,1.934,1.591,3.5,3.5,3.5c1.892,0,3.5-1.548,3.5-3.5c0-1.998-1.665-3.5-3.472-3.5
				C64.917,30.125,63.5,31.875,63.5,33.625z"/>
		</g>
		<g>
			<path style="fill:#E2E4E5;" d="M80,57.125c-0.17-2.18-0.67-4.26-1.41-6.2c-0.01,0.02-2.5,5.1-2.5,5.1
				c-0.47,1-0.04,2.19,0.96,2.66c1,0.48,2.19,0.05,2.66-0.95L80,57.125z"/>
		</g>
	</g>
</g>
</svg>
