<?xml version="1.0" encoding="iso-8859-1"?>
<!-- Generator: Adobe Illustrator 17.1.0, SVG Export Plug-In . SVG Version: 6.00 Build 0)  -->
<!DOCTYPE svg PUBLIC "-//W3C//DTD SVG 1.0//EN" "http://www.w3.org/TR/2001/REC-SVG-20010904/DTD/svg10.dtd">
<svg version="1.0" xmlns="http://www.w3.org/2000/svg" xmlns:xlink="http://www.w3.org/1999/xlink" x="0px" y="0px" width="110px"
	 height="110px" viewBox="0 0 110 110" style="enable-background:new 0 0 110 110;" xml:space="preserve">
<g id="Artboard">
</g>
<g id="Multicolor">
	<circle style="fill:#32BEA6;" cx="55" cy="54.98" r="55"/>
	<g>
		<path style="fill:#F0F1F1;" d="M86,66.982h-7.349c0.222,0.626,0.349,1.298,0.349,2s-0.127,1.374-0.349,2H86c0.552,0,1-0.448,1-1
			v-2C87,67.429,86.552,66.982,86,66.982z"/>
		<path style="fill:#FFFFFF;" d="M75,63.33v11.303c2.329-0.825,4-3.04,4-5.651S77.329,64.155,75,63.33z"/>
		<polyline style="fill:#FACB1B;" points="23,42.982 23,86.982 75,86.982 75,42.982 		"/>
		<path style="fill:#DF2C2C;" d="M63.08,30.982c0,0-4.626-8-14.08-8s-14.08,8-14.08,8c-6.92-3-11.92,3.63-11.92,8h26h26
			C75,34.612,70,27.982,63.08,30.982z"/>
		<rect x="23" y="38.982" style="fill:#FBE158;" width="52" height="4"/>
		<polygon style="fill:#FBE158;" points="23,42.982 23,70.836 50.854,42.982 		"/>
		<rect x="59" y="48.982" style="fill:#FFFFFF;" width="12" height="16"/>
		<rect x="23" y="70.982" style="fill:#F3B607;" width="52" height="16"/>
		<path style="fill:#FFFFFF;" d="M83,53.982c-0.732,0-1.41-0.211-2-0.555v13.555h4V53.427C84.41,53.77,83.732,53.982,83,53.982z"/>
		<circle style="fill:#DF2C2C;" cx="83" cy="49.982" r="4"/>
		<rect x="27" y="48.982" style="fill:#FFFFFF;" width="12" height="16"/>
		<rect x="43" y="48.982" style="fill:#FFFFFF;" width="12" height="16"/>
		<path style="fill:#A97A45;" d="M57.49,77.982H40.51c2.02-2.44,5.07-4,8.49-4S55.47,75.542,57.49,77.982z"/>
		<path style="fill:#FCF6C2;" d="M64.325,76.107c-0.55-0.681-1.381-1.125-2.325-1.125c-1.657,0-3,1.343-3,3h8
			C67,76.642,65.68,75.62,64.325,76.107z"/>
		<path style="fill:#FCF6C2;" d="M36,74.982c-0.943,0-1.775,0.444-2.325,1.125C32.326,75.622,31,76.637,31,77.982h8
			C39,76.325,37.657,74.982,36,74.982z"/>
		<path style="fill:#FBE158;" d="M71,77.982v0.04c0,2.19-6.334,6.46-22.167,6.46S27,80.212,27,78.022v-0.04H71z"/>
		<path style="fill:#FA5655;" d="M49,22.982c-9.454,0-14.08,8-14.08,8c-6.92-3-11.92,3.63-11.92,8h31.854l8.14-8.14
			C62.353,29.818,57.748,22.982,49,22.982z"/>
		<polygon style="fill:#FBE158;" points="48.88,25.71 50.268,29.982 54.76,29.982 51.126,32.641 52.514,36.923 48.88,34.288 
			45.246,36.93 46.634,32.64 43,29.982 47.492,29.982 		"/>
		<g>
			<path style="fill:#DF2C2C;" d="M61.281,55.489c-0.155,0-0.281-0.126-0.281-0.281v-2.807c0-0.155,0.126-0.281,0.281-0.281h0.561
				c0.155,0,0.281,0.126,0.281,0.281v0.281c0,0,0.561-0.561,1.684-0.561s1.404,0.561,2.526,0.561c1.123,0,1.965-0.561,1.965-0.561
				L69,52.962c0,0-2.197,5.687-2.375,7.882c-0.012,0.146-0.133,0.258-0.279,0.258c-0.647,0-1.955,0-2.533,0
				c-0.077,0-0.151-0.032-0.204-0.087c-0.053-0.056-0.081-0.131-0.077-0.208c0.049-0.947,0.44-3.986,3.363-6.441
				c-0.281,0.281-0.702,0.561-1.404,0.561c-0.702,0-1.544-0.561-2.105-0.561c-0.506,0-1.127,0.228-1.244,0.891
				c-0.024,0.134-0.14,0.232-0.276,0.232C61.681,55.489,61.455,55.489,61.281,55.489z"/>
		</g>
		<g>
			<path style="fill:#DF2C2C;" d="M45.281,55.489c-0.155,0-0.281-0.126-0.281-0.281v-2.807c0-0.155,0.126-0.281,0.281-0.281h0.561
				c0.155,0,0.281,0.126,0.281,0.281v0.281c0,0,0.561-0.561,1.684-0.561s1.404,0.561,2.526,0.561s1.965-0.561,1.965-0.561L53,52.962
				c0,0-2.197,5.687-2.375,7.882c-0.012,0.146-0.133,0.258-0.279,0.258c-0.647,0-1.955,0-2.533,0c-0.077,0-0.151-0.032-0.204-0.087
				c-0.053-0.056-0.081-0.131-0.077-0.208c0.049-0.947,0.44-3.986,3.363-6.441c-0.281,0.281-0.702,0.561-1.404,0.561
				c-0.702,0-1.544-0.561-2.105-0.561c-0.506,0-1.127,0.228-1.244,0.891c-0.024,0.134-0.14,0.232-0.276,0.232
				C45.681,55.489,45.455,55.489,45.281,55.489z"/>
		</g>
		<g>
			<path style="fill:#DF2C2C;" d="M29.281,55.489c-0.155,0-0.281-0.126-0.281-0.281v-2.807c0-0.155,0.126-0.281,0.281-0.281h0.561
				c0.155,0,0.281,0.126,0.281,0.281v0.281c0,0,0.561-0.561,1.684-0.561c1.123,0,1.404,0.561,2.526,0.561s1.965-0.561,1.965-0.561
				L37,52.962c0,0-2.197,5.687-2.375,7.882c-0.012,0.146-0.133,0.258-0.279,0.258c-0.647,0-1.955,0-2.533,0
				c-0.077,0-0.151-0.032-0.204-0.087c-0.053-0.056-0.081-0.131-0.077-0.208c0.049-0.947,0.44-3.986,3.363-6.441
				c-0.281,0.281-0.702,0.561-1.404,0.561c-0.702,0-1.544-0.561-2.105-0.561c-0.506,0-1.127,0.228-1.244,0.891
				c-0.024,0.134-0.14,0.232-0.276,0.232C29.681,55.489,29.455,55.489,29.281,55.489z"/>
		</g>
		<polygon style="fill:#FBEC9A;" points="23,38.982 23,42.982 50.854,42.982 54.854,38.982 		"/>
	</g>
</g>
</svg>
