<?xml version="1.0" encoding="iso-8859-1"?>
<!-- Generator: Adobe Illustrator 17.1.0, SVG Export Plug-In . SVG Version: 6.00 Build 0)  -->
<!DOCTYPE svg PUBLIC "-//W3C//DTD SVG 1.0//EN" "http://www.w3.org/TR/2001/REC-SVG-20010904/DTD/svg10.dtd">
<svg version="1.0" xmlns="http://www.w3.org/2000/svg" xmlns:xlink="http://www.w3.org/1999/xlink" x="0px" y="0px" width="110px"
	 height="110px" viewBox="0 0 110 110" style="enable-background:new 0 0 110 110;" xml:space="preserve">
<g id="Artboard">
</g>
<g id="Multicolor">
	<circle style="fill:#32BEA6;" cx="55" cy="55" r="55"/>
	<g>
		<path style="fill:#FFFFFF;" d="M75,79.405C75,87,65.618,87,59.363,87h-8.726C44.382,87,35,87,35,79.405v-48.81
			C35,23,44.382,23,50.637,23h8.726C65.618,23,75,23,75,30.595V79.405z"/>
		<polygon style="fill:#3E3E3F;" points="72,79 38,79 38,31 72,30.941 		"/>
		<polygon style="fill:#5B5C5F;" points="38,79 38,31 72,30.941 		"/>
		<circle style="fill:#3E3E3F;" cx="66.437" cy="27.747" r="1.284"/>
		<path style="fill:#CFD3D4;" d="M59,83.099c0,0.552-0.448,1-1,1h-6c-0.552,0-1-0.448-1-1c0-0.552,0.448-1,1-1h6
			C58.552,82.099,59,82.546,59,83.099z"/>
		<rect x="51" y="26.125" style="fill:#CFD3D4;" width="8" height="2"/>
	</g>
</g>
</svg>
