<?xml version="1.0" encoding="iso-8859-1"?>
<!-- Generator: Adobe Illustrator 17.1.0, SVG Export Plug-In . SVG Version: 6.00 Build 0)  -->
<!DOCTYPE svg PUBLIC "-//W3C//DTD SVG 1.0//EN" "http://www.w3.org/TR/2001/REC-SVG-20010904/DTD/svg10.dtd">
<svg version="1.0" xmlns="http://www.w3.org/2000/svg" xmlns:xlink="http://www.w3.org/1999/xlink" x="0px" y="0px" width="110px"
	 height="110px" viewBox="0 0 110 110" style="enable-background:new 0 0 110 110;" xml:space="preserve">
<g id="Artboard">
</g>
<g id="Multicolor">
	<circle style="fill:#E04F5F;" cx="55" cy="55" r="55"/>
	<g>
		<g>
			<path style="fill:#059BBF;" d="M23,48.88V35.05c0-3.31,2.69-6,6-6h47c4.01,0,8.74,2.63,10.4,6.28c-1.38,3.72-5.03,6.9-10.4,7.67
				c-4.07,0.58-4.15-0.16-8.48,0.92c-2.37,0.72-5.11,2.12-7.3,3.29c-7.72,4.19-8.49,5.38-10.57,5.7c-2.24,0.31-3.96-1.15-6-2.62
				c-1.88-1.38-4.04-2.76-7.12-2.76c-4.82,0-6.97,1.83-7.88,3.15C28.07,51.51,27.13,52,26.12,52C24.4,52,23,50.6,23,48.88z"/>
		</g>
		<g>
			<path style="fill:#21B2D1;" d="M29,29.05c-3.31,0-6,2.69-6,6v13.83C23,50.6,24.4,52,26.12,52c1.01,0,1.95-0.49,2.53-1.32
				c0.91-1.32,3.06-3.149,7.88-3.149c2.578,0,4.508,0.969,6.172,2.094L63.276,29.05H29z"/>
		</g>
		<g>
			<path style="fill:#059BBF;" d="M87,61.12v13.83c0,3.31-2.69,6-6,6H34c-4.01,0-8.74-2.63-10.4-6.28c1.38-3.72,5.03-6.9,10.4-7.67
				c4.07-0.58,4.15,0.16,8.48-0.92c2.37-0.72,5.11-2.12,7.3-3.29c7.72-4.19,8.49-5.38,10.57-5.7c2.24-0.31,3.96,1.15,6,2.62
				c1.88,1.38,4.04,2.76,7.12,2.76c4.82,0,6.97-1.83,7.88-3.15c0.58-0.83,1.52-1.32,2.53-1.32C85.6,58,87,59.4,87,61.12z"/>
		</g>
		<g>
			<path style="fill:#21B2D1;" d="M60.35,57.09c-2.08,0.32-2.85,1.51-10.57,5.7c-2.19,1.17-4.93,2.57-7.3,3.29
				C38.15,67.16,38.07,66.42,34,67c-5.37,0.77-9.02,3.95-10.4,7.67c1.66,3.65,6.39,6.28,10.4,6.28h13.002l20.463-20.463
				c-0.383-0.253-0.757-0.514-1.115-0.777C64.31,58.24,62.59,56.78,60.35,57.09z"/>
		</g>
		<g>
			<path style="fill:#FFFFFF;" d="M87,74.95V81c0,3.31-2.69,6-6,6H34c-4.95,0-11-4-11-9c0-1.12,0.21-2.25,0.6-3.33
				c1.66,3.65,6.39,6.28,10.4,6.28h47C84.31,80.95,87,78.26,87,74.95z"/>
		</g>
		<g>
			<path style="fill:#FACB1B;" d="M51.5,80.95h-4.09c-1.04-4.89-2.58-9.59-4.56-14.04c1.17,1.61,3.2,2.36,5.13,1.92
				C49.48,72.72,50.66,76.77,51.5,80.95z"/>
		</g>
		<g>
			<path style="fill:#FACB1B;" d="M59.65,80.95h-4.08c-0.9-4.75-2.23-9.35-3.94-13.76l3.6-1.78C57.18,70.38,58.67,75.58,59.65,80.95
				z"/>
		</g>
		<g>
			<path style="fill:#FACB1B;" d="M62.42,61.85l-3.6,1.78c2.2,5.52,3.85,11.32,4.88,17.32c1.419-0.371,2.66-0.932,3.769-1.629
				C66.362,73.272,64.669,67.42,62.42,61.85z"/>
		</g>
		<g>
			<path style="fill:#0484AB;" d="M87,63v11.95c0,3.31-2.69,6-6,6H63.7C75,78,75,63,87,63z"/>
		</g>
		<g>
			<path style="fill:#FFFFFF;" d="M23,35.05V29c0-3.31,2.69-6,6-6h47c4.95,0,11,4,11,9c0,1.12-0.21,2.25-0.6,3.33
				c-1.66-3.65-6.39-6.28-10.4-6.28H29C25.69,29.05,23,31.74,23,35.05z"/>
		</g>
		<g>
			<path style="fill:#EBEBEC;" d="M43.65,50.29c0.887-0.78,17.488-8.934,18.37-9.12c2.114-0.482,4.468,0.436,5.61,2.72
				c-4.642,1.16-15.43,8.085-16.43,8.54c-0.55,0.25-1.06,0.41-1.55,0.48C47.41,53.22,45.69,51.76,43.65,50.29z"/>
		</g>
		<g>
			<path style="fill:#CFD3D4;" d="M62.144,48.015c0.354,0.749,1.248,1.069,1.997,0.716s1.069-1.248,0.716-1.997l-1.281-2.713
				c-0.354-0.749-1.248-1.069-1.997-0.716s-1.069,1.248-0.716,1.997L62.144,48.015z"/>
		</g>
		<g>
			<path style="fill:#CFD3D4;" d="M56.718,50.578c0.354,0.749,1.248,1.069,1.997,0.716s1.069-1.248,0.716-1.997l-1.281-2.713
				c-0.354-0.749-1.248-1.069-1.997-0.716s-1.069,1.248-0.716,1.997L56.718,50.578z"/>
		</g>
		<g>
			<path style="fill:#CFD3D4;" d="M51.293,53.14c0.354,0.749,1.248,1.069,1.997,0.716c0.749-0.354,1.069-1.248,0.716-1.997
				l-1.281-2.713c-0.354-0.749-1.248-1.069-1.997-0.716c-0.749,0.354-1.069,1.248-0.716,1.997L51.293,53.14z"/>
		</g>
		<g>
			<path style="fill:#FACB1B;" d="M58.5,29.05h4.09c1.04,4.89,2.58,9.59,4.56,14.04c-1.17-1.61-3.2-2.36-5.13-1.92
				C60.52,37.28,59.34,33.23,58.5,29.05z"/>
		</g>
		<g>
			<path style="fill:#FACB1B;" d="M50.35,29.05h4.08c0.9,4.75,2.23,9.35,3.94,13.76l-3.6,1.78C52.82,39.62,51.33,34.42,50.35,29.05z
				"/>
		</g>
		<g>
			<path style="fill:#FBE158;" d="M54.43,29.05h-4.08c0.643,3.525,1.527,6.968,2.596,10.33l3.191-3.191
				C55.462,33.852,54.889,31.471,54.43,29.05z"/>
		</g>
		<g>
			<path style="fill:#FBE158;" d="M62.59,29.05H58.5c0.263,1.307,0.57,2.597,0.899,3.877l3.324-3.324
				C62.682,29.417,62.63,29.236,62.59,29.05z"/>
		</g>
		<g>
			<path style="fill:#FBE158;" d="M62.42,61.85l-3.6,1.78c0.527,1.323,1.021,2.663,1.484,4.018l3.118-3.118
				C63.094,63.634,62.776,62.732,62.42,61.85z"/>
		</g>
		<g>
			<path style="fill:#FBE158;" d="M55.23,65.41l-3.6,1.78c0.865,2.231,1.632,4.512,2.296,6.836l3.194-3.194
				C56.543,69,55.927,67.186,55.23,65.41z"/>
		</g>
		<g>
			<path style="fill:#FBE158;" d="M47.98,68.83c-1.93,0.44-3.96-0.31-5.13-1.92c1.935,4.349,3.442,8.94,4.481,13.711l3.329-3.329
				C49.927,74.4,49.038,71.573,47.98,68.83z"/>
		</g>
		<g>
			<path style="fill:#FFFFFF;" d="M66.35,59.71c-0.887,0.78-17.488,8.934-18.37,9.12c-2.114,0.482-4.468-0.436-5.61-2.72
				c4.642-1.16,15.43-8.085,16.43-8.54c0.55-0.25,1.06-0.41,1.55-0.48C62.59,56.78,64.31,58.24,66.35,59.71z"/>
		</g>
		<g>
			<path style="fill:#CFD3D4;" d="M47.857,61.985c-0.354-0.749-1.248-1.069-1.997-0.716s-1.069,1.248-0.716,1.997l1.281,2.713
				c0.354,0.749,1.248,1.069,1.997,0.716s1.069-1.248,0.716-1.997L47.857,61.985z"/>
		</g>
		<g>
			<path style="fill:#CFD3D4;" d="M53.282,59.422c-0.354-0.749-1.248-1.069-1.997-0.716s-1.069,1.248-0.716,1.997l1.281,2.713
				c0.354,0.749,1.248,1.069,1.997,0.716s1.069-1.248,0.716-1.997L53.282,59.422z"/>
		</g>
		<g>
			<path style="fill:#CFD3D4;" d="M58.707,56.86c-0.354-0.749-1.248-1.069-1.997-0.716c-0.749,0.354-1.069,1.248-0.716,1.997
				l1.281,2.713c0.354,0.749,1.248,1.069,1.997,0.716c0.749-0.354,1.069-1.248,0.716-1.997L58.707,56.86z"/>
		</g>
		<g>
			<path style="fill:#FACB1B;" d="M46.3,29.05c-1.419,0.371-2.66,0.932-3.769,1.629c1.107,6.049,2.801,11.9,5.049,17.471l3.6-1.78
				C48.98,40.85,47.33,35.05,46.3,29.05z"/>
		</g>
		<g>
			<path style="fill:#0484AB;" d="M23,47V35.05c0-3.31,2.69-6,6-6h17.3C35,32,35,47,23,47z"/>
		</g>
		<g>
			<path style="fill:#FBE158;" d="M46.3,29.05h-4.06l0,0H46.3c-1.413,0.369-2.649,0.926-3.754,1.619
				c0.946,5.168,2.303,10.197,4.087,15.024l3.135-3.135C48.265,38.198,47.096,33.685,46.3,29.05z"/>
		</g>
	</g>
</g>
</svg>
