<?xml version="1.0" encoding="iso-8859-1"?>
<!-- Generator: Adobe Illustrator 17.1.0, SVG Export Plug-In . SVG Version: 6.00 Build 0)  -->
<!DOCTYPE svg PUBLIC "-//W3C//DTD SVG 1.0//EN" "http://www.w3.org/TR/2001/REC-SVG-20010904/DTD/svg10.dtd">
<svg version="1.0" xmlns="http://www.w3.org/2000/svg" xmlns:xlink="http://www.w3.org/1999/xlink" x="0px" y="0px" width="110px"
	 height="110px" viewBox="0 0 110 110" style="enable-background:new 0 0 110 110;" xml:space="preserve">
<g id="Artboard">
</g>
<g id="Multicolor">
	<circle style="fill:#32BEA6;" cx="55" cy="55" r="55"/>
	<g>
		<g>
			<path style="fill:#0484AB;" d="M85.81,69.42C80.55,71.15,67.92,75,59,75H25v-5c0-5.04,2-8.81,2-14c0-5.243,0-13.29,0-17
				c0-1.104,0.895-2,2-2h18c1.105,0,2,0.895,2,2v5.11C49,56.75,59.25,67,71.89,67H81C82.97,67,84.72,67.95,85.81,69.42z"/>
		</g>
		<g>
			<path style="fill:#059BBF;" d="M49,44.11V39c0-1.104-0.895-2-2-2H29c-1.104,0-2,0.896-2,2c0,3.71,0,11.757,0,17
				c0,5.19-2,8.96-2,14v5h6.073l20.45-20.45C49.914,51.419,49,47.872,49,44.11z"/>
		</g>
		<g>
			<path style="fill:#21B2D1;" d="M76.41,72.2c-0.19,0.046-6.154,0.03-6.35,0.03C55.22,72.23,43,60.19,43,45.34V37h4
				c1.105,0,2,0.895,2,2v5.1C49,56.724,59.242,67,71.89,67h2.28C75.16,68.59,75.93,70.34,76.41,72.2z"/>
		</g>
		<g>
			<path style="fill:#40C9E7;" d="M49,44.1V39c0-1.104-0.895-2-2-2h-4v8.34c0,5.065,1.424,9.802,3.886,13.847l4.642-4.642
				C49.913,51.411,49,47.856,49,44.1z"/>
		</g>
		<g>
			<path style="fill:#E2E4E5;" d="M86.99,73.34c-0.14,2.46-1.83,4.47-4.06,5.27C75.581,80.71,66.793,83,59,83H25c-1.1,0-2-0.9-2-2
				v-4c0-1.1,0.9-2,2-2h34c8.92,0,21.55-3.85,26.81-5.58C86.78,70.704,87.154,72.506,86.99,73.34z"/>
		</g>
		<g>
			<circle style="fill:#FFFFFF;" cx="45" cy="71" r="1"/>
		</g>
		<g>
			<circle style="fill:#FFFFFF;" cx="52" cy="71" r="1"/>
		</g>
		<g>
			<path style="fill:#FFFFFF;" d="M85.861,69.42c-2.16,0.71-5.55,1.77-9.42,2.79c-0.48-1.86-1.25-3.62-2.24-5.21h6.85
				C83.021,67,84.771,67.95,85.861,69.42z"/>
		</g>
		<g>
			<circle style="fill:#0484AB;" cx="45" cy="43" r="1.5"/>
		</g>
		<g>
			<circle style="fill:#0484AB;" cx="46.969" cy="51.661" r="1.5"/>
		</g>
		<g>
			<circle style="fill:#0484AB;" cx="50.749" cy="59.742" r="1.5"/>
		</g>
		<g>
			<circle style="fill:#0484AB;" cx="57.062" cy="65.255" r="1.5"/>
		</g>
		<g>
			<circle style="fill:#0484AB;" cx="64.168" cy="68.177" r="1.5"/>
		</g>
		<g>
			<circle style="fill:#FA5655;" cx="35" cy="53" r="6"/>
		</g>
		<g>
			<polygon style="fill:#FFFFFF;" points="36.26,51.388 38.959,51.771 37.013,53.681 37.483,56.367 35.065,55.106 32.656,56.383 
				33.108,53.694 31.149,51.797 33.846,51.396 35.045,48.946 			"/>
		</g>
		<g>
			<path style="fill:#FFFFFF;" d="M50,43.5c0,0.276-0.224,0.5-0.5,0.5H46c-0.55,0-1-0.45-1-1s0.45-1,1-1h3.5
				c0.276,0,0.5,0.224,0.5,0.5V43.5z"/>
		</g>
		<g>
			<path style="fill:#FFFFFF;" d="M50.859,50.532c0.077,0.245-0.044,0.507-0.279,0.609l-2.27,0.978
				c-0.495,0.243-1.097,0.036-1.339-0.459s-0.035-1.099,0.46-1.341l2.472-1.079c0.134-0.059,0.288-0.055,0.42,0.009
				c0.132,0.064,0.229,0.183,0.265,0.325C50.67,49.897,50.76,50.216,50.859,50.532z"/>
		</g>
		<g>
			<path style="fill:#FFFFFF;" d="M54.332,57.42c0.162,0.211,0.13,0.511-0.072,0.684l-2.216,1.895
				c-0.426,0.349-1.055,0.287-1.404-0.139c-0.349-0.426-0.287-1.055,0.139-1.404l2.246-1.917c0.108-0.092,0.25-0.134,0.39-0.115
				c0.141,0.018,0.267,0.096,0.347,0.212C53.946,56.901,54.135,57.163,54.332,57.42z"/>
		</g>
		<g>
			<path style="fill:#FFFFFF;" d="M59.404,62.24c0.217,0.15,0.28,0.441,0.145,0.667l-1.14,1.914
				c-0.252,0.489-0.859,0.684-1.348,0.433s-0.685-0.855-0.434-1.345l1.235-2.113c0.072-0.124,0.195-0.211,0.336-0.238
				c0.141-0.028,0.287,0.006,0.401,0.094C58.862,61.856,59.13,62.052,59.404,62.24z"/>
		</g>
		<g>
			<path style="fill:#FFFFFF;" d="M65.476,65.283c0.127,0.038,0.235,0.124,0.298,0.241c0.063,0.117,0.078,0.254,0.04,0.381
				l-0.451,1.521c-0.123,0.536-0.662,0.875-1.198,0.754c-0.536-0.121-0.875-0.659-0.753-1.195l0.485-1.676
				c0.038-0.133,0.13-0.244,0.254-0.307c0.123-0.063,0.267-0.072,0.397-0.025C64.854,65.089,65.163,65.191,65.476,65.283z"/>
		</g>
		<g>
			<path style="fill:#FFFFFF;" d="M25,75c-1.1,0-2,0.9-2,2v4c0,0.568,0.243,1.081,0.627,1.445L31.073,75H25z"/>
		</g>
	</g>
</g>
</svg>
