<?xml version="1.0" encoding="iso-8859-1"?>
<!-- Generator: Adobe Illustrator 17.1.0, SVG Export Plug-In . SVG Version: 6.00 Build 0)  -->
<!DOCTYPE svg PUBLIC "-//W3C//DTD SVG 1.0//EN" "http://www.w3.org/TR/2001/REC-SVG-20010904/DTD/svg10.dtd">
<svg version="1.0" xmlns="http://www.w3.org/2000/svg" xmlns:xlink="http://www.w3.org/1999/xlink" x="0px" y="0px" width="110px"
	 height="110px" viewBox="0 0 110 110" style="enable-background:new 0 0 110 110;" xml:space="preserve">
<g id="Artboard">
</g>
<g id="Multicolor">
	<circle style="fill:#32BEA6;" cx="55" cy="55" r="55"/>
	<g>
		<g>
			<g>
				<g>
					<path style="fill:#FFFFFF;" d="M80.243,87H29.682c-2.26,0-4.438-1.252-5.684-3.269c-1.217-1.968-1.329-4.478-0.293-6.551
						l25.293-49.484c1.133-2.266,3.421-3.683,5.965-3.683c2.549,0,4.839,1.413,5.977,3.688l25.269,49.41
						c1.055,2.11,0.944,4.642-0.28,6.623C84.683,85.749,82.504,87,80.243,87z M54.963,28.013c-1.019,0-1.937,0.57-2.395,1.488
						L27.275,78.985C26.343,80.848,27.854,83,29.682,83h50.561c1.815,0,3.366-2.141,2.396-4.085L57.37,29.506
						C56.907,28.579,55.987,28.013,54.963,28.013z"/>
				</g>
			</g>
		</g>
		<g>
			<circle style="fill:#3E3E3F;" cx="70.963" cy="75" r="8"/>
		</g>
		<g>
			<circle style="fill:#21B2D1;" cx="54.963" cy="75" r="8"/>
		</g>
		<g>
			<circle style="fill:#099686;" cx="46.963" cy="59" r="8"/>
		</g>
		<g>
			<circle style="fill:#F37A10;" cx="54.963" cy="43" r="8"/>
		</g>
		<g>
			<circle style="fill:#FA5655;" cx="62.963" cy="59" r="8"/>
		</g>
		<g>
			<circle style="fill:#FA5655;" cx="38.963" cy="75" r="8"/>
		</g>
		<g>
			<circle style="fill:#FFFFFF;" cx="46.963" cy="59" r="4"/>
		</g>
		<g>
			<circle style="fill:#FFFFFF;" cx="62.963" cy="59" r="4"/>
		</g>
		<g>
			<circle style="fill:#FFFFFF;" cx="38.963" cy="75" r="4"/>
		</g>
		<g>
			<circle style="fill:#FFFFFF;" cx="70.963" cy="75" r="4"/>
		</g>
		<g>
			<circle style="fill:#FFFFFF;" cx="54.963" cy="43" r="4"/>
		</g>
		<g>
			<circle style="fill:#FFFFFF;" cx="54.963" cy="75" r="4"/>
		</g>
	</g>
</g>
</svg>
