<?xml version="1.0" encoding="iso-8859-1"?>
<!-- Generator: Adobe Illustrator 17.1.0, SVG Export Plug-In . SVG Version: 6.00 Build 0)  -->
<!DOCTYPE svg PUBLIC "-//W3C//DTD SVG 1.0//EN" "http://www.w3.org/TR/2001/REC-SVG-20010904/DTD/svg10.dtd">
<svg version="1.0" xmlns="http://www.w3.org/2000/svg" xmlns:xlink="http://www.w3.org/1999/xlink" x="0px" y="0px" width="110px"
	 height="110px" viewBox="0 0 110 110" style="enable-background:new 0 0 110 110;" xml:space="preserve">
<g id="Artboard">
</g>
<g id="Multicolor">
	<circle style="fill:#32BEA6;" cx="55" cy="55" r="55"/>
	<g>
		<g>
			<g>
				<path style="fill:#0484AB;" d="M84.943,43.48V67.7c0,2.4-0.76,4.67-2.2,6.59C73.813,86.18,54.993,87,50.013,87
					c-0.57,0-5.07-0.02-5.07-0.02c-1.66,0-3-1.34-3-3c0-1.66,1.34-3,3-3h4.12c0.2,0.01,20.66,0.66,28.88-10.29
					c0.65-0.87,1-1.9,1-2.99V43.48c0-2.06-1.29-3.94-3.21-4.67c-0.05-0.02-18.02-8.09-18.02-8.09c-1.51-0.68-2.19-2.46-1.51-3.97
					s2.46-2.19,3.97-1.51l17.8,8C82.143,34.88,84.943,38.99,84.943,43.48z"/>
			</g>
		</g>
		<g>
			<g>
				<path style="fill:#FACB1B;" d="M71.873,49.02c-8.33-4.8-15.61-7.04-22.93-7.04s-14.6,2.24-22.93,7.04
					c-1.93,1.11-3.08,3.18-3.01,5.41c0.13,3.53,0.44,8.05,1.76,11.63c0.87,2.34,3.13,3.92,5.63,3.92h7.28c2.6,0,4.89-1.66,5.7-4.13
					c0.86-2.6,2.69-3.87,5.6-3.87c2.92,0,4.75,1.27,5.6,3.87c0.81,2.47,3.1,4.13,5.7,4.13h7.22c2.5,0,4.76-1.58,5.63-3.92
					c1.32-3.59,1.63-8.1,1.76-11.63C74.953,52.2,73.803,50.13,71.873,49.02z M67.493,65.98h-7.22c-0.86,0-1.63-0.55-1.9-1.38
					c-1.4-4.27-4.74-6.62-9.4-6.62c-4.66,0-7.99,2.35-9.4,6.62c-0.27,0.83-1.03,1.38-1.9,1.38h-7.28c-0.83,0-1.59-0.53-1.87-1.31
					c-1.13-3.05-1.4-7.15-1.52-10.38c-0.02-0.74,0.36-1.44,1-1.81c7.7-4.43,14.35-6.5,20.94-6.5c6.59,0,13.24,2.07,20.94,6.5
					c0.64,0.37,1.02,1.07,1,1.81c-0.12,3.23-0.39,7.33-1.52,10.38C69.083,65.45,68.323,65.98,67.493,65.98z"/>
			</g>
		</g>
		<g>
			<path style="fill:#F3B607;" d="M54.943,73.98c0-1.105-0.895-2-2-2h-8c-1.105,0-2,0.895-2,2s0.895,2,2,2h8
				C54.048,75.98,54.943,75.085,54.943,73.98z"/>
		</g>
		<g>
			<rect x="45.943" y="75.98" style="fill:#FACB1B;" width="6" height="5"/>
		</g>
		<g>
			<rect x="78.943" y="43.98" style="fill:#FACB1B;" width="6" height="6"/>
		</g>
		<g>
			<path style="fill:#40C9E7;" d="M70.883,54.29c-0.12,3.23-0.39,7.33-1.52,10.38c-0.28,0.78-1.04,1.31-1.87,1.31h-7.22
				c-0.86,0-1.63-0.55-1.9-1.38c-1.4-4.27-4.74-6.62-9.4-6.62c-4.66,0-7.99,2.35-9.4,6.62c-0.27,0.83-1.03,1.38-1.9,1.38h-7.28
				c-0.83,0-1.59-0.53-1.87-1.31c-1.13-3.05-1.4-7.15-1.52-10.38c-0.02-0.74,0.36-1.44,1-1.81c7.7-4.43,14.35-6.5,20.94-6.5
				c6.59,0,13.24,2.07,20.94,6.5C70.523,52.85,70.903,53.55,70.883,54.29z"/>
		</g>
		<g>
			<path style="fill:#FACB1B;" d="M67.553,28.56l-2.67,5.38l-7.17-3.22c-1.51-0.68-2.19-2.46-1.51-3.97s2.46-2.19,3.97-1.51
				L67.553,28.56z"/>
		</g>
		<g>
			<path style="fill:#FACB1B;" d="M48.943,71.98h-4c-1.104,0-2,0.896-2,2s0.896,2,2,2h4V71.98z"/>
		</g>
		<g>
			<rect x="45.943" y="75.98" style="fill:#FBE158;" width="3" height="5"/>
		</g>
		<g>
			<path style="fill:#FBE158;" d="M26.013,49.02c-1.93,1.11-3.08,3.18-3.01,5.41c0.13,3.53,0.44,8.05,1.76,11.63
				c0.788,2.119,2.718,3.601,4.931,3.865l3.945-3.945h-3.246c-0.83,0-1.59-0.53-1.87-1.31c-1.13-3.05-1.4-7.15-1.52-10.38
				c-0.02-0.74,0.36-1.44,1-1.81c7.7-4.43,14.35-6.5,20.94-6.5c1.451,0,2.907,0.119,4.374,0.322l3.455-3.455
				c-2.637-0.579-5.231-0.867-7.829-0.867C41.623,41.98,34.343,44.22,26.013,49.02z"/>
		</g>
		<g>
			<path style="fill:#6FDAF1;" d="M48.943,45.98c-6.59,0-13.24,2.07-20.94,6.5c-0.64,0.37-1.02,1.07-1,1.81
				c0.12,3.23,0.39,7.33,1.52,10.38c0.28,0.78,1.04,1.31,1.87,1.31h3.246l19.678-19.678C51.85,46.099,50.394,45.98,48.943,45.98z"/>
		</g>
	</g>
</g>
</svg>
