<?xml version="1.0" encoding="iso-8859-1"?>
<!-- Generator: Adobe Illustrator 17.1.0, SVG Export Plug-In . SVG Version: 6.00 Build 0)  -->
<!DOCTYPE svg PUBLIC "-//W3C//DTD SVG 1.0//EN" "http://www.w3.org/TR/2001/REC-SVG-20010904/DTD/svg10.dtd">
<svg version="1.0" xmlns="http://www.w3.org/2000/svg" xmlns:xlink="http://www.w3.org/1999/xlink" x="0px" y="0px" width="110px"
	 height="110px" viewBox="0 0 110 110" style="enable-background:new 0 0 110 110;" xml:space="preserve">
<g id="Artboard">
</g>
<g id="Multicolor">
	<circle style="fill:#FABC3D;" cx="55" cy="55" r="55"/>
	<g>
		<g>
			<path style="fill:#3E3E3F;" d="M83,43c0,2.28-3.33,4.33-8.67,5.79c-1.66-2.27-3.72-4.23-6.07-5.79c-8.84-1.33-17.68-1.33-26.52,0
				c-2.35,1.56-4.41,3.52-6.07,5.79C30.33,47.33,27,45.28,27,43c0-4.42,12.54-8,28-8C70.46,35,83,38.58,83,43z"/>
		</g>
		<g>
			<path style="fill:#3E3E3F;" d="M38.264,36.585C42.934,35.59,48.726,35,55,35s12.066,0.59,16.736,1.585l2.81-9.224
				c0.088-0.263,0.061-0.55-0.071-0.793c-0.132-0.244-0.359-0.421-0.627-0.491C68.875,24.785,62.256,24,55,24
				s-13.875,0.785-18.848,2.078c-0.268,0.07-0.496,0.247-0.628,0.49c-0.132,0.244-0.158,0.531-0.07,0.794L38.264,36.585z"/>
		</g>
		<g>
			<path style="fill:#F0F1F1;" d="M79,63c0,13.25-10.75,24-24,24S31,76.25,31,63c0-8.251,4.199-15.658,10.74-20
				c8.84-1.33,17.68-1.33,26.52,0C74.792,47.336,79,54.737,79,63z"/>
		</g>
		<g>
			<path style="fill:#5B5C5F;" d="M55.798,24.011C55.531,24.009,55.269,24,55,24c-7.256,0-13.875,0.785-18.848,2.078
				c-0.268,0.07-0.496,0.247-0.628,0.49c-0.132,0.244-0.158,0.531-0.07,0.794l2.81,9.224C42.934,35.59,48.726,35,55,35
				c0.269,0,0.531,0.007,0.798,0.009V24.011z"/>
		</g>
		<g>
			<path style="fill:#FFFFFF;" d="M55.798,42.018C51.112,41.975,46.426,42.295,41.74,43C35.199,47.342,31,54.749,31,63
				c0,13.25,10.75,24,24,24c0.268,0,0.533-0.011,0.798-0.02V42.018z"/>
		</g>
		<g>
			<path style="fill:#3E3E3F;" d="M68.5,55c-0.828,0-1.5-0.672-1.5-1.5c0-0.602,0.357-1.118,0.869-1.357
				C67.593,52.059,67.304,52,67,52c-1.657,0-3,1.343-3,3s1.343,3,3,3s3-1.343,3-3c0-0.305-0.059-0.593-0.143-0.869
				C69.618,54.643,69.102,55,68.5,55z"/>
		</g>
		<g>
			<path style="fill:#3E3E3F;" d="M44.5,55c-0.828,0-1.5-0.672-1.5-1.5c0-0.602,0.357-1.118,0.869-1.357
				C43.593,52.059,43.304,52,43,52c-1.657,0-3,1.343-3,3s1.343,3,3,3s3-1.343,3-3c0-0.305-0.059-0.593-0.143-0.869
				C45.618,54.643,45.102,55,44.5,55z"/>
		</g>
		<g>
			<path style="fill:#F37A10;" d="M55.472,58.373c-0.414-0.083-0.836,0.104-1.054,0.466c-2.133,3.556-2.159,7.111-0.078,10.667
				c0.25,0.428,0.774,0.606,1.234,0.422l18.596-5.019c0.411-0.164,0.665-0.579,0.624-1.02s-0.366-0.802-0.8-0.889L55.472,58.373z"/>
		</g>
		<g>
			<path style="fill:#3E3E3F;" d="M69.24,72c0-1.104-0.895-2-2-2c-1.105,0-2,0.896-2,2c0,0.659,0.323,1.239,0.815,1.604
				C64.407,76.77,59.413,78.23,55,78.23c-4.463,0-9.518-1.496-11.106-4.739c0.413-0.366,0.679-0.896,0.679-1.491
				c0-1.104-0.895-2-2-2s-2,0.896-2,2c0,0.963,0.681,1.767,1.588,1.957C43.924,78.113,49.665,80,55,80
				c5.364,0,11.139-1.907,12.868-6.111C68.663,73.625,69.24,72.883,69.24,72z"/>
		</g>
		<g>
			<path style="fill:#BF0302;" d="M55,35c6.282,0,12.082,0.591,16.755,1.59c0.208-0.684,0.541-1.782,1.149-3.776
				c-4.892-1.194-11.232-1.918-18.173-1.918c-6.701,0-12.853,0.672-17.672,1.793c0.734,2.409,1.005,3.309,1.19,3.9
				C42.92,35.591,48.719,35,55,35z"/>
		</g>
		<g>
			<path style="fill:#F99134;" d="M73.994,63l-18.523-4.627c-0.414-0.083-0.836,0.104-1.054,0.466
				c-1.032,1.72-1.56,3.441-1.605,5.161h21.974c0.001-0.037,0.011-0.073,0.008-0.111C74.754,63.448,74.428,63.087,73.994,63z"/>
		</g>
		<g>
			<path style="fill:#DF2C2C;" d="M55.798,30.91c-0.357-0.004-0.708-0.014-1.068-0.014c-6.702,0-12.853,0.672-17.672,1.793
				c0.734,2.409,1.005,3.309,1.189,3.9C42.919,35.591,48.719,35,55,35c0.269,0,0.531,0.007,0.798,0.009V30.91z"/>
		</g>
	</g>
</g>
</svg>
