<?xml version="1.0" encoding="iso-8859-1"?>
<!-- Generator: Adobe Illustrator 17.1.0, SVG Export Plug-In . SVG Version: 6.00 Build 0)  -->
<!DOCTYPE svg PUBLIC "-//W3C//DTD SVG 1.0//EN" "http://www.w3.org/TR/2001/REC-SVG-20010904/DTD/svg10.dtd">
<svg version="1.0" xmlns="http://www.w3.org/2000/svg" xmlns:xlink="http://www.w3.org/1999/xlink" x="0px" y="0px" width="110px"
	 height="110px" viewBox="0 0 110 110" style="enable-background:new 0 0 110 110;" xml:space="preserve">
<g id="Artboard">
</g>
<g id="Multicolor">
	<circle style="fill:#FABC3D;" cx="55" cy="55" r="55"/>
	<g>
		<g>
			<path style="fill:#E2E4E5;" d="M59.026,46.293C63.67,44.636,67,40.213,67,35c0-6.627-5.373-12-12-12s-12,5.373-12,12
				c0,5.213,3.33,9.636,7.974,11.293C39.637,47.93,31,56.351,31,66.5C31,77.822,41.745,87,55,87s24-9.178,24-20.5
				C79,56.351,70.363,47.93,59.026,46.293z"/>
		</g>
		<g>
			<path style="fill:#9CE5F4;" d="M55,47c1.415,0,2.766-0.257,4.026-0.707C57.717,46.104,56.373,46,55,46V47z"/>
		</g>
		<g>
			<circle style="fill:#5B5C5F;" cx="60" cy="30" r="2"/>
		</g>
		<g>
			<path style="fill:#F37A10;" d="M75.019,38.134L57,41c-2.667-2.667-2.667-5.333,0-8l18.019,2.866
				C75.581,35.943,76,36.423,76,36.99v0.02C76,37.577,75.581,38.057,75.019,38.134z"/>
		</g>
		<g>
			<path style="fill:#F99134;" d="M76,36.99c0-0.567-0.419-1.047-0.981-1.124L57,33c-1.333,1.333-2,2.667-2,4h21V36.99z"/>
		</g>
		<g>
			<path style="fill:#FFFFFF;" d="M43,35c0,5.213,3.33,9.636,7.974,11.293c0.009-0.001,0.018,0.002,0.026,0.001v0.007
				c-0.009-0.003-0.018-0.005-0.026-0.008C39.637,47.93,31,56.351,31,66.5C31,77.822,41.745,87,55,87V55v-5v-3v-4V23
				C48.373,23,43,28.373,43,35z"/>
		</g>
		<g>
			<circle style="fill:#5B5C5F;" cx="52" cy="30" r="2"/>
		</g>
		<g>
			<path style="fill:#DF2C2C;" d="M62,67h10c-1.305-8.718-1.766-17.052-3.669-21.224C67.912,44.475,66.61,43,65,43
				c0,0.04-0.472,0-0.472,0H45.472c-1.515,0-2.9,0.856-3.578,2.211c-0.62,1.24-0.554,2.712,0.175,3.892
				C42.798,50.282,44.086,51,45.472,51h19.056C65.471,51,63.927,67,62,67z"/>
		</g>
		<g>
			<path style="fill:#FA5655;" d="M55,43h-9.528c-1.515,0-2.9,0.856-3.578,2.211c-0.62,1.24-0.554,2.712,0.175,3.892
				C42.798,50.282,44.086,51,45.472,51H55V43z"/>
		</g>
		<g>
			<circle style="fill:#3E3E3F;" cx="55" cy="61" r="2"/>
		</g>
		<g>
			<circle style="fill:#3E3E3F;" cx="55" cy="69" r="2"/>
		</g>
		<g>
			<circle style="fill:#3E3E3F;" cx="55" cy="77" r="2"/>
		</g>
		<g>
			<path style="fill:#5B5C5F;" d="M53,61c0,1.104,0.895,2,2,2v-4C53.895,59,53,59.896,53,61z"/>
		</g>
		<g>
			<path style="fill:#5B5C5F;" d="M53,69c0,1.104,0.895,2,2,2v-4C53.895,67,53,67.896,53,69z"/>
		</g>
		<g>
			<path style="fill:#5B5C5F;" d="M53,77c0,1.104,0.895,2,2,2v-4C53.895,75,53,75.896,53,77z"/>
		</g>
	</g>
</g>
</svg>
