<?xml version="1.0" encoding="iso-8859-1"?>
<!-- Generator: Adobe Illustrator 17.1.0, SVG Export Plug-In . SVG Version: 6.00 Build 0)  -->
<!DOCTYPE svg PUBLIC "-//W3C//DTD SVG 1.0//EN" "http://www.w3.org/TR/2001/REC-SVG-20010904/DTD/svg10.dtd">
<svg version="1.0" xmlns="http://www.w3.org/2000/svg" xmlns:xlink="http://www.w3.org/1999/xlink" x="0px" y="0px" width="110px"
	 height="110px" viewBox="0 0 110 110" style="enable-background:new 0 0 110 110;" xml:space="preserve">
<g id="Artboard">
</g>
<g id="Multicolor">
	<circle style="fill:#25B7D3;" cx="55" cy="55" r="55"/>
	<g>
		<g>
			<path style="fill:#6FDAF1;" d="M33.828,74.235C34.106,74.092,34.411,74,34.735,74h40.538c0.321,0,0.624,0.091,0.9,0.232
				C82.042,68.366,85,60.751,85,53c0-16.57-13.43-30-30-30S25,36.43,25,53C25,60.913,28.076,68.49,33.828,74.235z"/>
		</g>
		<g>
			<path style="fill:#9CE5F4;" d="M25,53c0,7.913,3.076,15.49,8.828,21.235C34.106,74.092,34.411,74,34.735,74H55V23
				C38.43,23,25,36.43,25,53z"/>
		</g>
		<g>
			<path style="fill:#9E9FA0;" d="M70.146,40.955c-0.186-0.52-0.758-0.791-1.278-0.606l-0.942,0.336
				c-1.278-0.606-2.286-3.431-1.68-4.709l-5.651,2.016c1.278,0.606,2.286,3.431,1.68,4.709l-0.942,0.336
				c-0.52,0.186-0.791,0.758-0.606,1.278c0.186,0.52,0.758,0.791,1.278,0.606l7.535-2.688
				C70.061,42.047,70.332,41.475,70.146,40.955z"/>
		</g>
		<g>
			<path style="fill:#FFFFFF;" d="M69.393,51.365C70.939,50.515,72,48.89,72,47c0-2.761-2.239-5-5-5s-5,2.239-5,5
				c0,1.89,1.061,3.515,2.607,4.365C61.358,52.382,59,55.415,59,59c0,4.418,3.582,8,8,8s8-3.582,8-8
				C75,55.415,72.642,52.382,69.393,51.365z"/>
		</g>
		<g>
			<circle style="fill:#5B5C5F;" cx="69" cy="46" r="1"/>
		</g>
		<g>
			<circle style="fill:#5B5C5F;" cx="65" cy="46" r="1"/>
		</g>
		<g>
			<g>
				<path style="fill:#5B5C5F;" d="M70.146,40.955c0.186,0.52-0.086,1.092-0.606,1.278l-7.535,2.689
					c-0.52,0.186-1.092-0.086-1.278-0.606c-0.186-0.52,0.086-1.092,0.606-1.278l7.535-2.689
					C69.388,40.163,69.961,40.435,70.146,40.955z"/>
			</g>
			<g>
				<path style="fill:#3E3E3F;" d="M66.246,35.976l-5.651,2.016c1.278,0.606,2.286,3.431,1.68,4.709l5.651-2.016
					C66.649,40.079,65.64,37.254,66.246,35.976z"/>
			</g>
		</g>
		<g>
			<circle style="fill:#FFFFFF;" cx="62" cy="30" r="1"/>
		</g>
		<g>
			<circle style="fill:#FFFFFF;" cx="49" cy="37" r="1"/>
		</g>
		<g>
			<circle style="fill:#FFFFFF;" cx="57" cy="34" r="1"/>
		</g>
		<g>
			<circle style="fill:#FFFFFF;" cx="68" cy="36" r="1"/>
		</g>
		<g>
			<circle style="fill:#FFFFFF;" cx="71" cy="31" r="1"/>
		</g>
		<g>
			<circle style="fill:#FFFFFF;" cx="80" cy="44" r="1"/>
		</g>
		<g>
			<circle style="fill:#FFFFFF;" cx="78" cy="61" r="1"/>
		</g>
		<g>
			<circle style="fill:#FFFFFF;" cx="81" cy="54" r="1"/>
		</g>
		<g>
			<circle style="fill:#FFFFFF;" cx="75" cy="50" r="1"/>
		</g>
		<g>
			<circle style="fill:#FFFFFF;" cx="58" cy="50" r="1"/>
		</g>
		<g>
			<circle style="fill:#FFFFFF;" cx="35" cy="40" r="1"/>
		</g>
		<g>
			<circle style="fill:#FFFFFF;" cx="31" cy="44" r="1"/>
		</g>
		<g>
			<circle style="fill:#FFFFFF;" cx="32" cy="51" r="1"/>
		</g>
		<g>
			<circle style="fill:#FFFFFF;" cx="30" cy="61" r="1"/>
		</g>
		<g>
			<circle style="fill:#FFFFFF;" cx="55" cy="27" r="1"/>
		</g>
		<g>
			<circle style="fill:#FFFFFF;" cx="74" cy="39" r="1"/>
		</g>
		<g>
			<circle style="fill:#FFFFFF;" cx="46" cy="30" r="1"/>
		</g>
		<g>
			<circle style="fill:#FFFFFF;" cx="38" cy="34" r="1"/>
		</g>
		<g>
			<circle style="fill:#FFFFFF;" cx="40" cy="43" r="1"/>
		</g>
		<g>
			<circle style="fill:#FFFFFF;" cx="55" cy="42" r="1"/>
		</g>
		<g>
			<path style="fill:#9C6144;" d="M45.034,60.691c-0.644,0.332-1.328,0.645-2.034,0.932v5.288c1.295-0.222,2.629-0.407,4-0.55
				v-4.766C46.318,61.316,45.657,61.013,45.034,60.691z"/>
		</g>
		<g>
			<path style="fill:#099686;" d="M59.068,61.008c-3.881,3.392-9.774,1.881-14.034-0.317C40.779,62.889,34.881,64.4,31,61.008
				c3.74-0.391,7.006-2.245,9.378-5.039c-2.625,1.63-5.832,1.304-8.127-0.696c3.204-0.332,6.225-2.005,8.365-4.85
				c-1.991,0.705-4.053,0.216-5.563-1.106c4.542-0.868,8.63-5.083,9.982-9.149c1.317,3.964,5.399,8.277,9.982,9.149
				c-1.52,1.326-3.581,1.806-5.563,1.106c2.071,2.762,5.056,4.504,8.365,4.85c-2.198,1.954-5.444,2.364-8.127,0.696
				C52.044,58.735,55.296,60.616,59.068,61.008z"/>
		</g>
		<g>
			<path style="fill:#E2E4E5;" d="M34.735,74h40.538c0.321,0,0.624,0.091,0.9,0.232c0.865-0.865,1.683-1.777,2.437-2.742
				C72.94,68.15,64.03,66,54,66c-9.23,0-17.52,1.82-23.2,4.72c0.916,1.251,1.933,2.422,3.028,3.515
				C34.106,74.092,34.411,74,34.735,74z"/>
		</g>
		<g>
			<path style="fill:#F3B607;" d="M80.11,81.21c0.62,1.24,0.55,2.71-0.18,3.89c-0.73,1.18-2.02,1.9-3.4,1.9H33.47
				c-1.38,0-2.67-0.72-3.4-1.9s-0.8-2.65-0.18-3.89l3.057-6.105C33.286,74.428,33.978,74,34.735,74h40.538
				c0.758,0,1.451,0.428,1.789,1.107L80.11,81.21z"/>
		</g>
		<g>
			<path style="fill:#FACB1B;" d="M55,74H34.735c-0.757,0-1.449,0.427-1.788,1.104L29.89,81.21c-0.62,1.24-0.55,2.71,0.18,3.89
				c0.73,1.18,2.02,1.9,3.4,1.9H55V74z"/>
		</g>
		<g>
			<path style="fill:#FFFFFF;" d="M55,66.013C54.667,66.009,54.336,66,54,66c-9.23,0-17.52,1.82-23.2,4.72
				c0.916,1.251,1.933,2.422,3.028,3.515C34.106,74.092,34.411,74,34.735,74H55V66.013z"/>
		</g>
		<g>
			<path style="fill:#12B2A0;" d="M55,59.94c-2.053-0.891-3.854-2.26-5.31-3.97c1.571,0.977,3.438,1.31,5.31,0.811v-2.179
				c-2.164-0.801-4.086-2.229-5.548-4.177c1.976,0.698,4.03,0.223,5.548-1.094v-0.016c-4.576-0.879-8.65-5.186-9.966-9.145
				c-1.352,4.066-5.44,8.281-9.982,9.149c1.511,1.321,3.572,1.81,5.563,1.105c-2.14,2.845-5.161,4.518-8.365,4.85
				c2.295,2,5.502,2.326,8.127,0.696c-2.373,2.795-5.638,4.648-9.378,5.039c3.881,3.392,9.779,1.881,14.034-0.317
				C47.977,62.21,51.7,63.398,55,62.871V59.94z"/>
		</g>
		<g>
			<path style="fill:#F37A10;" d="M71.249,48.814l-4.612,0.734c-0.683-0.683-0.683-1.365,0-2.048l4.612,0.734
				c0.144,0.02,0.251,0.142,0.251,0.288v0.005C71.5,48.672,71.393,48.794,71.249,48.814z"/>
		</g>
	</g>
</g>
</svg>
