<?xml version="1.0" encoding="iso-8859-1"?>
<!-- Generator: Adobe Illustrator 17.1.0, SVG Export Plug-In . SVG Version: 6.00 Build 0)  -->
<!DOCTYPE svg PUBLIC "-//W3C//DTD SVG 1.0//EN" "http://www.w3.org/TR/2001/REC-SVG-20010904/DTD/svg10.dtd">
<svg version="1.0" xmlns="http://www.w3.org/2000/svg" xmlns:xlink="http://www.w3.org/1999/xlink" x="0px" y="0px" width="110px"
	 height="110px" viewBox="0 0 110 110" style="enable-background:new 0 0 110 110;" xml:space="preserve">
<g id="Artboard">
</g>
<g id="Multicolor">
	<circle style="fill:#25B7D3;" cx="55" cy="55" r="55"/>
	<g>
		<g>
			<g>
				<circle style="fill:#F0F1F1;" cx="55" cy="55" r="32"/>
			</g>
		</g>
		<g>
			<path style="fill:#FFFFFF;" d="M32.373,32.373c-12.497,12.497-12.497,32.758,0,45.255l45.255-45.255
				C65.131,19.876,44.869,19.876,32.373,32.373z"/>
		</g>
		<g>
			<path style="fill:#3E3E3F;" d="M86.212,62.085l-1.557-1.918L80.88,42.089l0.156-5.7c-1.011-1.407-2.143-2.75-3.408-4.016
				c-1.909-1.909-3.995-3.528-6.222-4.851c-0.056,0.036-3.02,1.924-4.858,3.096l-16.584-1.522l-4.085-4.784
				c-4.731,1.407-9.2,3.925-12.99,7.559l0.057,6.756l-5.298,16.278l-4.559,2.492c0.311,4.172,1.443,8.302,3.387,12.113l0.007,0.007
				l5.092,2.969l12.646,11.407l0.576,1.449c11.297,3.775,24.035,1.081,32.831-7.715C81.977,73.278,84.943,67.705,86.212,62.085z
				 M79.299,44.305l3.17,15.178c-1.489,1.826-4.628,5.667-6.042,7.4l-11.003-3.468l-2.306-10.328l0.051,0.041l8.683-10.587
				L79.299,44.305z M70.264,41.325L61.623,51.86l-10.491-0.888l-6.295-11.965l-0.127,0.067l5.323-7.964l15.618,1.434L70.264,41.325z
				 M29.578,55.437l4.714-14.482c2.245-0.244,6.741-0.736,8.803-0.962l6.372,12.11l-4.222,9.884l-11.298,1.578L29.578,55.437z
				 M45.199,82.081L33.647,71.661l0.689-6.132l11.545-1.612l7.933,6.663l-1.017,10.413C50.996,81.251,47.322,81.775,45.199,82.081z
				 M63.311,85.453l-8.532-4.164l1.035-10.598l8.843-5.42l11.165,3.519l0.927,8.641L63.311,85.453z"/>
		</g>
		<g>
			<path style="fill:#5B5C5F;" d="M36.114,73.886l-2.467-2.225l0.689-6.132l11.545-1.612l0.109,0.092l12.421-12.421l-7.28-0.616
				l-6.295-11.965l-0.127,0.067l5.323-7.964l15.618,1.434l4.066,7.74l7.911-7.911c-1.909-1.909-3.995-3.528-6.222-4.851
				c-0.056,0.036-3.02,1.924-4.858,3.096l-16.584-1.522l-4.085-4.784c-4.731,1.407-9.2,3.925-12.99,7.559l0.057,6.756l-5.298,16.278
				l-4.559,2.492c0.311,4.172,1.443,8.302,3.387,12.113l0.007,0.007l5.092,2.969l3.123,2.817L36.114,73.886z M29.578,55.437
				l4.714-14.482c2.245-0.244,6.741-0.736,8.803-0.962l6.372,12.11l-4.222,9.884l-11.298,1.578L29.578,55.437z"/>
		</g>
	</g>
</g>
</svg>
