<?xml version="1.0" encoding="iso-8859-1"?>
<!-- Generator: Adobe Illustrator 17.1.0, SVG Export Plug-In . SVG Version: 6.00 Build 0)  -->
<!DOCTYPE svg PUBLIC "-//W3C//DTD SVG 1.0//EN" "http://www.w3.org/TR/2001/REC-SVG-20010904/DTD/svg10.dtd">
<svg version="1.0" xmlns="http://www.w3.org/2000/svg" xmlns:xlink="http://www.w3.org/1999/xlink" x="0px" y="0px" width="110px"
	 height="110px" viewBox="0 0 110 110" style="enable-background:new 0 0 110 110;" xml:space="preserve">
<g id="Artboard">
</g>
<g id="Multicolor">
	<circle style="fill:#FABC3D;" cx="55" cy="55" r="55"/>
	<g>
		<g>
			<path style="fill:#3E3E3F;" d="M28.981,27c0,0,47,0,50,0s8,2,8,8c0,0.62-0.09,1.2-0.27,1.74c-1.7,5.34-11.39,7.22-23.32,12.55
				c-2.372,1.045-5.013,2.35-7.41,3.71c-6.97,3.915-7.994-6-16-6c-8,0-9,7-12,7C18.976,49.008,23.974,27,28.981,27z"/>
		</g>
		<g>
			<path style="fill:#3E3E3F;" d="M81,83c0,0-47,0-50,0s-8-2-8-8c0-0.62,0.09-1.2,0.27-1.74c1.7-5.34,11.39-7.22,23.32-12.55
				c2.372-1.045,5.013-2.35,7.41-3.71c6.97-3.915,7.994,6,16,6c8,0,9-7,12-7C91.005,60.992,86.007,83,81,83z"/>
		</g>
		<g>
			<path style="fill:#059BBF;" d="M66.342,75.412c0.681,0.521,0.954,1.419,0.678,2.231C66.745,78.454,65.982,79,65.125,79
				C54.561,79,33.247,79,31,79c-2.59,0-6.66-1.49-7.73-5.74c1.702-5.337,11.393-7.223,23.32-12.55
				C53.568,65.699,61.468,71.681,66.342,75.412z"/>
		</g>
		<g>
			<path style="fill:#059BBF;" d="M86.95,69.09C83.37,70.95,79.31,72,75,72c-9.99,0-18.66-5.63-23.01-13.9
				c0.67-0.35,1.34-0.72,2.01-1.1c4.45-2.5,6.48,0.64,9.45,3.24C65.13,61.71,67.11,63,70,63c8,0,9-7,12-7
				C85.95,58.19,87.2,63.65,86.95,69.09z"/>
		</g>
		<g>
			<path style="fill:#0484AB;" d="M54,57c-0.67,0.38-1.34,0.75-2.01,1.1c1.814,3.45,4.39,6.431,7.49,8.745l5.452-5.452
				c-0.524-0.356-1.017-0.746-1.482-1.153C60.48,57.64,58.45,54.5,54,57z"/>
		</g>
		<g>
			<path style="fill:#0484AB;" d="M46.59,60.71c-11.927,5.327-21.618,7.213-23.32,12.55C24.34,77.51,28.41,79,31,79
				c1.25,0,8.405,0,16.326,0l10.237-10.237C54.02,66.11,50.184,63.279,46.59,60.71z"/>
		</g>
		<g>
			<path style="fill:#F37A10;" d="M30.19,82.949L31,87h4l1-4c-2.662,0-4.483,0-5,0C30.744,83,30.47,82.979,30.19,82.949z"/>
		</g>
		<g>
			<polygon style="fill:#F37A10;" points="44,83 38,83 39,87 43,87 			"/>
		</g>
		<g>
			<polygon style="fill:#F37A10;" points="52,83 46,83 47,87 51,87 			"/>
		</g>
		<g>
			<polygon style="fill:#F37A10;" points="72,83 64,83 65,87 71,87 			"/>
		</g>
		<g>
			<polygon style="fill:#F37A10;" points="81,83 73,83 74,87 80,87 			"/>
		</g>
		<g>
			<path style="fill:#FFFFFF;" d="M63.45,60.24l-21.66,9.88c-0.965,0.44-2.066,0.479-3.06,0.108s-1.8-1.122-2.24-2.088l-1.29-2.83
				c5.37-2.1,11.99-4.48,18.8-8.31C58.45,54.5,60.48,57.64,63.45,60.24z"/>
		</g>
		<g>
			<path style="fill:#3E3E3F;" d="M41.866,62.129c-0.354-0.749-1.248-1.069-1.997-0.716c-0.749,0.354-1.069,1.248-0.716,1.997
				l1.281,2.713c0.354,0.749,1.248,1.069,1.997,0.716s1.069-1.248,0.716-1.997L41.866,62.129z"/>
		</g>
		<g>
			<path style="fill:#3E3E3F;" d="M47.291,59.566c-0.354-0.749-1.248-1.069-1.997-0.716s-1.069,1.248-0.716,1.997l1.281,2.713
				c0.354,0.749,1.248,1.069,1.997,0.716s1.069-1.248,0.716-1.997L47.291,59.566z"/>
		</g>
		<g>
			<path style="fill:#3E3E3F;" d="M52.716,57.003c-0.354-0.749-1.248-1.069-1.997-0.716s-1.069,1.248-0.716,1.997l1.281,2.713
				c0.354,0.749,1.248,1.069,1.997,0.716s1.069-1.248,0.716-1.997L52.716,57.003z"/>
		</g>
		<g>
			<path style="fill:#F37A10;" d="M79.791,27.051L78.981,23h-4l-1,4c2.662,0,4.483,0,5,0C79.237,27,79.51,27.021,79.791,27.051z"/>
		</g>
		<g>
			<path style="fill:#059BBF;" d="M43.639,34.588c-0.681-0.521-0.954-1.419-0.678-2.231C43.237,31.546,43.999,31,44.857,31
				c10.563,0,31.878,0,34.124,0c2.59,0,6.66,1.49,7.73,5.74c-1.702,5.337-11.393,7.223-23.32,12.55
				C56.413,44.301,48.514,38.319,43.639,34.588z"/>
		</g>
		<g>
			<polygon style="fill:#F37A10;" points="65.981,27 71.981,27 70.981,23 66.981,23 			"/>
		</g>
		<g>
			<polygon style="fill:#F37A10;" points="57.981,27 63.981,27 62.981,23 58.981,23 			"/>
		</g>
		<g>
			<polygon style="fill:#F37A10;" points="37.981,27 45.981,27 44.981,23 38.981,23 			"/>
		</g>
		<g>
			<polygon style="fill:#F37A10;" points="28.981,27 36.981,27 35.981,23 29.981,23 			"/>
		</g>
		<g>
			<path style="fill:#059BBF;" d="M23.04,40.91C26.62,39.05,30.68,38,34.99,38c9.99,0,18.66,5.63,23.01,13.9
				c-0.67,0.35-1.34,0.72-2.01,1.1c-4.45,2.5-6.48-0.64-9.45-3.24C44.86,48.29,42.88,47,39.99,47c-8,0-9,7-12,7
				C24.04,51.81,22.79,46.35,23.04,40.91z"/>
		</g>
		<g>
			<path style="fill:#FFFFFF;" d="M46.531,49.76l21.66-9.88c0.965-0.44,2.066-0.479,3.06-0.108c0.994,0.371,1.8,1.122,2.24,2.088
				l1.29,2.83c-5.37,2.1-11.99,4.48-18.8,8.31C51.531,55.5,49.501,52.36,46.531,49.76z"/>
		</g>
		<g>
			<path style="fill:#3E3E3F;" d="M68.116,47.871c0.354,0.749,1.248,1.069,1.997,0.716c0.749-0.354,1.069-1.248,0.716-1.997
				l-1.281-2.713c-0.354-0.749-1.248-1.069-1.997-0.716c-0.749,0.354-1.069,1.248-0.716,1.997L68.116,47.871z"/>
		</g>
		<g>
			<path style="fill:#3E3E3F;" d="M62.69,50.434c0.354,0.749,1.248,1.069,1.997,0.716c0.749-0.354,1.069-1.248,0.716-1.997
				l-1.281-2.713c-0.354-0.749-1.248-1.069-1.997-0.716s-1.069,1.248-0.716,1.997L62.69,50.434z"/>
		</g>
		<g>
			<path style="fill:#3E3E3F;" d="M57.265,52.997c0.354,0.749,1.248,1.069,1.997,0.716s1.069-1.248,0.716-1.997l-1.281-2.713
				c-0.354-0.749-1.248-1.069-1.997-0.716s-1.069,1.248-0.716,1.997L57.265,52.997z"/>
		</g>
		<g>
			<path style="fill:#0484AB;" d="M34.99,38c-4.31,0-8.37,1.05-11.95,2.91c-0.25,5.44,1,10.9,4.95,13.09c3,0,4-7,12-7
				c1.682,0,3.051,0.444,4.237,1.1l5.506-5.506C45.543,39.701,40.468,38,34.99,38z"/>
		</g>
		<g>
			<path style="fill:#0484AB;" d="M44.856,31c-0.857,0-1.62,0.545-1.895,1.357c-0.276,0.812-0.003,1.709,0.678,2.231
				c2.184,1.671,4.976,3.796,8.019,6.079L61.326,31C55.402,31,49.215,31,44.856,31z"/>
		</g>
	</g>
</g>
</svg>
