<?xml version="1.0" encoding="iso-8859-1"?>
<!-- Generator: Adobe Illustrator 17.1.0, SVG Export Plug-In . SVG Version: 6.00 Build 0)  -->
<!DOCTYPE svg PUBLIC "-//W3C//DTD SVG 1.0//EN" "http://www.w3.org/TR/2001/REC-SVG-20010904/DTD/svg10.dtd">
<svg version="1.0" xmlns="http://www.w3.org/2000/svg" xmlns:xlink="http://www.w3.org/1999/xlink" x="0px" y="0px" width="110px"
	 height="110px" viewBox="0 0 110 110" style="enable-background:new 0 0 110 110;" xml:space="preserve">
<g id="Artboard">
</g>
<g id="Multicolor">
	<circle style="fill:#E04F5F;" cx="55" cy="55" r="55"/>
	<g>
		<g>
			<g>
				<path style="fill:#12B2A0;" d="M87,77c0,1.105-0.895,2-2,2H25c-1.105,0-2-0.895-2-2V33c0-1.105,0.895-2,2-2h60
					c1.105,0,2,0.895,2,2V77z"/>
			</g>
		</g>
		<g>
			<path style="fill:#47C4B7;" d="M25,31c-1.104,0-2,0.896-2,2v44c0,0.617,0.286,1.163,0.725,1.529L71.255,31H25z"/>
		</g>
		<g>
			<g>
				<polygon style="fill:#FFFFFF;" points="87,67 71,67 71,43 87,43 87,45 73,45 73,65 87,65 				"/>
			</g>
		</g>
		<g>
			<g>
				<polygon style="fill:#FFFFFF;" points="39,67 23,67 23,65 37,65 37,45 23,45 23,43 39,43 				"/>
			</g>
		</g>
		<path style="fill:#FFFFFF;" d="M65,55c0-5.177-3.954-9.446-9-9.949V31h-2v14.051c-5.046,0.503-9,4.772-9,9.949
			s3.954,9.446,9,9.949V79h2V64.949C61.046,64.446,65,60.177,65,55z M47,55c0-4.072,3.06-7.436,7-7.931v15.861
			C50.06,62.436,47,59.072,47,55z M56,62.931V47.069c3.94,0.495,7,3.859,7,7.931S59.94,62.436,56,62.931z"/>
	</g>
</g>
</svg>
