<?xml version="1.0" encoding="iso-8859-1"?>
<!-- Generator: Adobe Illustrator 17.1.0, SVG Export Plug-In . SVG Version: 6.00 Build 0)  -->
<!DOCTYPE svg PUBLIC "-//W3C//DTD SVG 1.0//EN" "http://www.w3.org/TR/2001/REC-SVG-20010904/DTD/svg10.dtd">
<svg version="1.0" xmlns="http://www.w3.org/2000/svg" xmlns:xlink="http://www.w3.org/1999/xlink" x="0px" y="0px" width="110px"
	 height="110px" viewBox="0 0 110 110" style="enable-background:new 0 0 110 110;" xml:space="preserve">
<g id="Artboard">
</g>
<g id="Multicolor">
	<circle style="fill:#E04F5F;" cx="55" cy="55" r="55"/>
	<g>
		<g>
			<path style="fill:#E2E4E5;" d="M87,41c0,1.105-0.895,2-2,2H65c-1.105,0-2-0.895-2-2v-8c0-1.105,0.895-2,2-2h20
				c1.105,0,2,0.895,2,2V41z"/>
		</g>
		<g>
			<path style="fill:#FFFFFF;" d="M85,55V43H65v20.565l-7.218,7.218c-3.71,3.71-3.71,9.725,0,13.435s9.725,3.71,13.435,0
				l12.208-12.208c3.152-3.152,4.323-7.778,3.051-12.05L85,55z"/>
		</g>
		<g>
			<path style="fill:#F0F1F1;" d="M79,68c0,2.363,0.824,4.53,2.194,6.241l2.232-2.232c3.152-3.152,4.323-7.778,3.051-12.05
				l-0.45-1.51C81.956,59.715,79,63.512,79,68z"/>
		</g>
		<g>
			<path style="fill:#F0F1F1;" d="M59,74c-1.257,0-2.455,0.242-3.563,0.665c-1.018,3.264-0.24,6.967,2.346,9.552
				c2.983,2.983,7.455,3.562,11.022,1.748C68.931,85.33,69,84.673,69,84C69,78.477,64.523,74,59,74z"/>
		</g>
		<g>
			<path style="fill:#E2E4E5;" d="M55,41c0,1.105-0.895,2-2,2H33c-1.105,0-2-0.895-2-2v-8c0-1.105,0.895-2,2-2h20
				c1.105,0,2,0.895,2,2V41z"/>
		</g>
		<g>
			<path style="fill:#FFFFFF;" d="M53,55V43H33v20.565l-7.218,7.218c-3.71,3.71-3.71,9.725,0,13.435s9.725,3.71,13.435,0
				l12.208-12.208c3.152-3.152,4.323-7.778,3.051-12.05L53,55z"/>
		</g>
		<g>
			<path style="fill:#F0F1F1;" d="M47,68c0,2.363,0.824,4.53,2.194,6.241l2.232-2.232c3.152-3.152,4.323-7.778,3.051-12.05
				l-0.45-1.51C49.956,59.715,47,63.512,47,68z"/>
		</g>
		<g>
			<path style="fill:#F0F1F1;" d="M27,74c-1.257,0-2.455,0.242-3.563,0.665c-1.018,3.264-0.24,6.967,2.346,9.552
				c2.983,2.983,7.455,3.562,11.022,1.748C36.931,85.33,37,84.673,37,84C37,78.477,32.523,74,27,74z"/>
		</g>
	</g>
</g>
</svg>
