<?xml version="1.0" encoding="iso-8859-1"?>
<!-- Generator: Adobe Illustrator 17.1.0, SVG Export Plug-In . SVG Version: 6.00 Build 0)  -->
<!DOCTYPE svg PUBLIC "-//W3C//DTD SVG 1.0//EN" "http://www.w3.org/TR/2001/REC-SVG-20010904/DTD/svg10.dtd">
<svg version="1.0" xmlns="http://www.w3.org/2000/svg" xmlns:xlink="http://www.w3.org/1999/xlink" x="0px" y="0px" width="110px"
	 height="110px" viewBox="0 0 110 110" style="enable-background:new 0 0 110 110;" xml:space="preserve">
<g id="Artboard">
</g>
<g id="Multicolor">
	<circle style="fill:#25B7D3;" cx="55" cy="55" r="55"/>
	<g>
		<g>
			<circle style="fill:#F3B607;" cx="54.119" cy="27" r="2"/>
		</g>
		<g>
			<circle style="fill:#FACB1B;" cx="57.999" cy="33.997" r="7"/>
		</g>
		<g>
			<path style="fill:#E2E4E5;" d="M72.43,30.87c-0.57-0.38-1.23-0.6-1.91-0.63c0.52-1.86,0.84-4.07,0.25-4.92
				C70.66,25.16,70.48,25,70,25c-0.48,0-0.66,0.16-0.77,0.32c-0.59,0.86-0.26,3.1,0.27,4.98c-0.37,0.06-0.73,0.19-1.08,0.37
				l-0.79,0.41c-0.56-1.88-1.26-5.14-0.04-6.9C67.96,23.64,68.69,23,70,23s2.04,0.64,2.41,1.18C73.58,25.87,72.98,28.96,72.43,30.87
				z"/>
		</g>
		<g>
			<path style="fill:#FFFFFF;" d="M50.76,39.81l-3.65,1.89l-1.72-3.27c-1.94-3.69-6.52-5.12-10.21-3.18S30.06,41.77,32,45.46
				l-3.66,1.91c-2.99-5.7-0.78-12.78,4.92-15.77c5.71-3,12.79-0.79,15.78,4.92L50.76,39.81z"/>
		</g>
		<g>
			<path style="fill:#FA5655;" d="M33.315,36.64c-1.363,1.367-2.145,3.221-2.182,5.135c-1.109,1.141-2.369,2.143-3.785,2.995
				c-0.733-2.907-0.288-5.966,1.138-8.515C30.061,36.592,31.681,36.721,33.315,36.64z"/>
		</g>
		<g>
			<path style="fill:#FA5655;" d="M45.386,38.443l-0.006-0.012c-1.009-1.924-2.732-3.225-4.68-3.771
				c-0.509-0.159-2.177-3.311-2.607-4.377c2.329-0.119,4.64,0.469,6.631,1.66c1.108,0.661,2.121,1.527,2.971,2.556
				C46.754,35.722,45.986,37.041,45.386,38.443z"/>
		</g>
		<g>
			<path style="fill:#DF2C2C;" d="M50.844,53.278l5.516,10.657c1.523,2.943,0.122,6.063-2.821,7.587
				c-3.924,2.031-5.05,6.672-3.428,10.782C54.63,93.746,91.958,81,84.333,65.5c-1.49-2.913-11.907-22.736-12.175-23.254
				L50.844,53.278z"/>
		</g>
		<g>
			<path style="fill:#F0F1F1;" d="M73.94,41.33L49.07,54.2c-1.96,1.01-4.38,0.25-5.39-1.72l-1.84-3.55
				c-1.02-1.96-0.25-4.37,1.71-5.39c1.306-0.676,23.577-12.199,24.87-12.87c1.276-0.655,2.836-0.582,4.01,0.2
				c1.172,0.74,1.349,1.449,3.22,5.07C76.66,37.9,75.9,40.31,73.94,41.33z"/>
		</g>
		<g>
			<path style="fill:#FFFFFF;" d="M68.42,30.67L43.55,43.54c-1.96,1.02-2.73,3.43-1.71,5.39l1.84,3.55
				c0.457,0.891,1.208,1.518,2.069,1.862L69.841,30.25C69.359,30.301,68.877,30.432,68.42,30.67z"/>
		</g>
		<g>
			<path style="fill:#FBE158;" d="M54.604,27.875c-3.378,1.873-4.599,6.128-2.732,9.508l9.508-9.508
				C59.341,26.751,56.791,26.663,54.604,27.875z"/>
		</g>
	</g>
</g>
</svg>
