<?xml version="1.0" encoding="iso-8859-1"?>
<!-- Generator: Adobe Illustrator 17.1.0, SVG Export Plug-In . SVG Version: 6.00 Build 0)  -->
<!DOCTYPE svg PUBLIC "-//W3C//DTD SVG 1.0//EN" "http://www.w3.org/TR/2001/REC-SVG-20010904/DTD/svg10.dtd">
<svg version="1.0" xmlns="http://www.w3.org/2000/svg" xmlns:xlink="http://www.w3.org/1999/xlink" x="0px" y="0px" width="110px"
	 height="110px" viewBox="0 0 110 110" style="enable-background:new 0 0 110 110;" xml:space="preserve">
<g id="Artboard">
</g>
<g id="Multicolor">
	<circle style="fill:#32BEA6;" cx="55" cy="55" r="55"/>
	<g>
		<path style="fill:#FFFFFF;" d="M83,39h-2L71,66v5H27v10c0,1.104,0.896,2,2,2h54c2.209,0,4-1.791,4-4V43C87,40.791,85.209,39,83,39
			z"/>
		<g>
			<polygon style="fill:#3E3E3F;" points="39,83 37,87 33,87 31,83 			"/>
		</g>
		<g>
			<polygon style="fill:#3E3E3F;" points="83,83 81,87 77,87 75,83 			"/>
		</g>
		<g>
			<path style="fill:#3E3E3F;" d="M71,67c0,2.209-1.791,4-4,4H27c-2.209,0-4-1.791-4-4v-4c0-2.209,1.791-4,4-4h40
				c2.209,0,4,1.791,4,4V67z"/>
		</g>
		<g>
			<path style="fill:#FFFFFF;" d="M52.292,53.002l5.751-14.931c1.01-2.622,6.181-2.137,6.181-2.137s4.161,3.108,3.151,5.731
				l-5.751,14.931c-1.01,2.622-6.181,2.137-6.181,2.137S51.282,55.624,52.292,53.002z"/>
		</g>
		<g>
			<path style="fill:#3E3E3F;" d="M80.684,28.58c2.067,0.76,3.118,3.052,2.348,5.119L74.27,57.184
				c-0.77,2.067-3.07,3.127-5.136,2.367l-3.742-1.376c-2.067-0.76-3.118-3.052-2.348-5.119l8.761-23.484
				c0.77-2.067,3.07-3.127,5.136-2.367L80.684,28.58z"/>
		</g>
		<g>
			<path style="fill:#5B5C5F;" d="M67,59H27c-2.209,0-4,1.791-4,4v2h48v-2C71,60.791,69.209,59,67,59z"/>
		</g>
	</g>
</g>
</svg>
