<?xml version="1.0" encoding="iso-8859-1"?>
<!-- Generator: Adobe Illustrator 17.1.0, SVG Export Plug-In . SVG Version: 6.00 Build 0)  -->
<!DOCTYPE svg PUBLIC "-//W3C//DTD SVG 1.0//EN" "http://www.w3.org/TR/2001/REC-SVG-20010904/DTD/svg10.dtd">
<svg version="1.0" xmlns="http://www.w3.org/2000/svg" xmlns:xlink="http://www.w3.org/1999/xlink" x="0px" y="0px" width="110px"
	 height="110px" viewBox="0 0 110 110" style="enable-background:new 0 0 110 110;" xml:space="preserve">
<g id="Artboard">
</g>
<g id="Multicolor">
	<circle style="fill:#25B7D3;" cx="55" cy="55" r="55"/>
	<g>
		<path style="fill:#3E3E3F;" d="M78.405,46h-6v-9c0-2.209-1.791-4-4-4h-27c-2.209,0-4,1.791-4,4v9h-6c-1.104,0-2,0.896-2,2v28
			c0,0.552,0.448,1,1,1h10h29h10c0.552,0,1-0.448,1-1V48C80.405,46.896,79.509,46,78.405,46z M40.405,66v-3h29v3H40.405z"/>
		<g>
			<polygon style="fill:#E2E4E5;" points="38.405,77 31.405,77 33.405,83 38.405,83 			"/>
		</g>
		<g>
			<polygon style="fill:#E2E4E5;" points="79,77 72,77 72,83 77,83 			"/>
		</g>
		<g>
			<rect x="40.405" y="57" style="fill:#5B5C5F;" width="29" height="9"/>
		</g>
	</g>
</g>
</svg>
