<?xml version="1.0" encoding="iso-8859-1"?>
<!-- Generator: Adobe Illustrator 17.1.0, SVG Export Plug-In . SVG Version: 6.00 Build 0)  -->
<!DOCTYPE svg PUBLIC "-//W3C//DTD SVG 1.0//EN" "http://www.w3.org/TR/2001/REC-SVG-20010904/DTD/svg10.dtd">
<svg version="1.0" xmlns="http://www.w3.org/2000/svg" xmlns:xlink="http://www.w3.org/1999/xlink" x="0px" y="0px" width="110px"
	 height="110px" viewBox="0 0 110 110" style="enable-background:new 0 0 110 110;" xml:space="preserve">
<g id="Artboard">
</g>
<g id="Multicolor">
	<circle style="fill:#FABC3D;" cx="55" cy="55" r="55"/>
	<g>
		<path style="fill:#BF0302;" d="M83.116,62.609C85.384,61.752,87,59.568,87,57c0-2.611-1.671-4.827-4-5.651V41c0-3.314-2.686-6-6-6
			H61c-3.314,0-6,2.686-6,6c0-3.314-2.686-6-6-6H33c-3.314,0-6,2.686-6,6v10.349c-2.329,0.825-4,3.04-4,5.651
			c0,2.568,1.616,4.752,3.884,5.609l-2.979,15.643c-0.223,1.171,0.088,2.38,0.848,3.299c0.76,0.918,1.89,1.45,3.082,1.45h54.332
			c1.192,0,2.322-0.531,3.082-1.45c0.76-0.918,1.071-2.128,0.847-3.299L83.116,62.609z"/>
		<g>
			<path style="fill:#DF2C2C;" d="M55,59c-6.667-2.667-13.333-2.667-20,0v8h20h20v-8C68.333,56.333,61.667,56.333,55,59z"/>
		</g>
	</g>
</g>
</svg>
