<?xml version="1.0" encoding="iso-8859-1"?>
<!-- Generator: Adobe Illustrator 17.1.0, SVG Export Plug-In . SVG Version: 6.00 Build 0)  -->
<!DOCTYPE svg PUBLIC "-//W3C//DTD SVG 1.0//EN" "http://www.w3.org/TR/2001/REC-SVG-20010904/DTD/svg10.dtd">
<svg version="1.0" xmlns="http://www.w3.org/2000/svg" xmlns:xlink="http://www.w3.org/1999/xlink" x="0px" y="0px" width="110px"
	 height="110px" viewBox="0 0 110 110" style="enable-background:new 0 0 110 110;" xml:space="preserve">
<g id="Artboard">
</g>
<g id="Multicolor">
	<circle style="fill:#32BEA6;" cx="55" cy="55" r="55"/>
	<g>
		<path style="fill:#3E3E3F;" d="M85,49h-6v-9c0-2.209-1.791-4-4-4H35c-2.209,0-4,1.791-4,4v9h-6c-1.104,0-2,0.896-2,2v25
			c0,0.552,0.448,1,1,1h62c0.552,0,1-0.448,1-1V51C87,49.896,86.104,49,85,49z"/>
		<g>
			<polygon style="fill:#E2E4E5;" points="32,77 25,77 27,83 32,83 			"/>
		</g>
		<g>
			<polygon style="fill:#E2E4E5;" points="85,77 78,77 78,83 83,83 			"/>
		</g>
		<g>
			<rect x="34" y="58" style="fill:#5B5C5F;" width="42" height="10"/>
		</g>
		<g>
			<rect x="54" y="36" style="fill:#5B5C5F;" width="2" height="22"/>
		</g>
	</g>
</g>
</svg>
