<?xml version="1.0" encoding="iso-8859-1"?>
<!-- Generator: Adobe Illustrator 17.1.0, SVG Export Plug-In . SVG Version: 6.00 Build 0)  -->
<!DOCTYPE svg PUBLIC "-//W3C//DTD SVG 1.0//EN" "http://www.w3.org/TR/2001/REC-SVG-20010904/DTD/svg10.dtd">
<svg version="1.0" xmlns="http://www.w3.org/2000/svg" xmlns:xlink="http://www.w3.org/1999/xlink" x="0px" y="0px" width="110px"
	 height="110px" viewBox="0 0 110 110" style="enable-background:new 0 0 110 110;" xml:space="preserve">
<g id="Artboard">
</g>
<g id="Multicolor">
	<g>
		<circle style="fill:#E04F5F;" cx="55" cy="55" r="55"/>
	</g>
	<g>
		<g>
			<polygon style="fill:#E2E4E5;" points="67,67.997 65,66.997 45,66.997 43,67.997 55,87 			"/>
		</g>
		<path style="fill:#F7B4B4;" d="M57.655,68H55h-2.655c-0.856,0-1.671-0.365-2.24-1.004L45,63v4.5c0,0,0,7.5,10,7.5s10-7.5,10-7.5
			V63l-5.105,3.996C59.326,67.635,58.511,68,57.655,68z"/>
		<path style="fill:#FBC8C8;" d="M50.105,66.993L45,62.997v4.5c0,0,0,7.5,10,7.5v-7h-2.655
			C51.489,67.997,50.674,67.632,50.105,66.993z"/>
		<path style="fill:#FBC8C8;" d="M70,45c-1,0-1,1.111-1,1.111v-3.114c-0.004-2.236-0.07-4.286-0.365-6.106
			C66.796,36.016,62.812,35,55,35c-7.813,0-11.796,1.016-13.635,1.891c-0.295,1.82-0.361,3.87-0.365,6.106v10l4,10l5.105,3.996
			c0.569,0.639,1.384,1.004,2.24,1.004H55h2.655c0.856,0,1.671-0.365,2.24-1.004L65,62.997l3.207-8.017
			C71.042,54.776,72,50.476,72,47.222C72,46.111,71,45,70,45z"/>
		<path style="fill:#FBD7D7;" d="M41,42.997v3.114c0,0,0-1.111-1-1.111s-2,1.111-2,2.222c0,3.253,0.958,7.554,3.793,7.758L45,62.997
			l5.105,3.996c0.569,0.639,1.384,1.004,2.24,1.004H55V35c-7.813,0-11.796,1.016-13.635,1.891C41.07,38.711,41.004,40.761,41,42.997
			z"/>
		<g>
			<path style="fill:#3E3E3F;" d="M52,46.997c0-1.104-0.896-2-2-2c-0.002,0-0.004,0-0.006,0C49.995,45.019,50,45.039,50,45.06
				c0,1.103-0.892,1.996-1.994,2c0.033,1.075,0.91,1.938,1.994,1.938C51.104,48.997,52,48.102,52,46.997z"/>
		</g>
		<g>
			<path style="fill:#3E3E3F;" d="M61.994,46.997c0-1.104-0.896-2-2-2c-0.002,0-0.004,0-0.006,0
				c0.001,0.021,0.006,0.041,0.006,0.062c0,1.103-0.892,1.996-1.994,2c0.033,1.075,0.91,1.938,1.994,1.938
				C61.098,48.997,61.994,48.102,61.994,46.997z"/>
		</g>
		<g>
			<path style="fill:#84462D;" d="M40,39c0,2.156,0,2.873,0,4c0,0,1,7,2,9c0,0,0,0,1,0c0-1.383,0-9.587,0-13H40z"/>
		</g>
		<g>
			<path style="fill:#84462D;" d="M70,39c0,2.156,0,2.873,0,4c0,0-1,7-2,9c0,0,0,0-1,0c0-1.383,0-9.587,0-13H70z"/>
		</g>
		<g>
			<polygon style="fill:#3E3E3F;" points="59,87 56.201,76.8 58,75.002 54.981,71.978 51.983,74.976 53.801,76.793 51,87 			"/>
		</g>
		<g>
			<polygon style="fill:#5B5C5F;" points="55,87 55,71.997 54.981,71.978 51.983,74.976 53.801,76.793 51,87 			"/>
		</g>
		<g>
			<path style="fill:#0C7367;" d="M23,87l4-11c0.615-1.333,1.698-2.394,3.043-2.983L43,68l12,19H23z"/>
		</g>
		<g>
			<path style="fill:#0C7367;" d="M87,87l-4-11c-0.615-1.333-1.698-2.394-3.043-2.983L67,68L55,87H87z"/>
		</g>
		<g>
			<g>
				<polygon style="fill:#3E3E3F;" points="26.089,74.068 26.824,78 29.67,76.896 28.934,72.963 				"/>
			</g>
			<g>
				<polygon style="fill:#3E3E3F;" points="31.78,71.858 32.515,75.791 35.361,74.687 34.625,70.754 				"/>
			</g>
			<g>
				<polygon style="fill:#3E3E3F;" points="41.264,68.175 37.47,69.649 38.206,73.582 42,72.11 				"/>
			</g>
			<g>
				<polygon style="fill:#F3B607;" points="28.934,72.963 29.67,76.896 32.515,75.791 31.78,71.858 				"/>
			</g>
			<g>
				<polygon style="fill:#F3B607;" points="34.625,70.754 35.361,74.687 38.206,73.582 37.47,69.649 				"/>
			</g>
		</g>
		<g>
			<g>
				<polygon style="fill:#3E3E3F;" points="84,74.068 83.265,78 80.419,76.896 81.155,72.963 				"/>
			</g>
			<g>
				<polygon style="fill:#3E3E3F;" points="78.309,71.858 77.574,75.791 74.728,74.687 75.464,70.754 				"/>
			</g>
			<g>
				<polygon style="fill:#3E3E3F;" points="68.825,68.175 72.618,69.649 71.883,73.582 68.089,72.11 				"/>
			</g>
			<g>
				<polygon style="fill:#F3B607;" points="81.155,72.963 80.419,76.896 77.574,75.791 78.309,71.858 				"/>
			</g>
			<g>
				<polygon style="fill:#F3B607;" points="75.464,70.754 74.728,74.687 71.883,73.582 72.618,69.649 				"/>
			</g>
		</g>
		<polygon style="fill:#FFFFFF;" points="50.159,76.834 54.985,71.981 45.625,67.312 		"/>
		<g>
			<polygon style="fill:#099686;" points="55,87 45,66 41,68 39.667,78.667 46,78.667 43.667,82.667 51,87 			"/>
		</g>
		<polygon style="fill:#FFFFFF;" points="64.375,67.312 55.015,71.981 59.841,76.834 		"/>
		<g>
			<polygon style="fill:#099686;" points="55,87 65,66 69,68 70.333,78.667 64,78.667 66.333,82.667 59,87 			"/>
		</g>
		<g>
			<g>
				<path style="fill:#3E3E3F;" d="M55,45c0.013-0.012,0.012-0.022,0-0.031C54.988,44.978,54.987,44.988,55,45z"/>
			</g>
			<g>
				<path style="fill:#3E3E3F;" d="M70,40c-2-3-15-3-15-3s-13,0-15,3c2.997,5.722,14.628,4.697,15,4.969
					C55.372,44.697,67.003,45.722,70,40z"/>
			</g>
		</g>
		<g>
			<path style="fill:#0C7367;" d="M55,23c-5,0-20,3-20,9c0,5,5,5,5,5c0-0.602,0-1,0-1c0.59-0.037,3-5,15-5s14.41,4.963,15,5
				c0,0,0,0.398,0,1c0,0,5,0,5-5C75,26,60,23,55,23z"/>
		</g>
		<g>
			<path style="fill:#F3B607;" d="M55,31c-11,0-15,4-15,5c0,0,0,2.878,0,4c3-3,15-3,15-3s12,0,15,3c0-1.122,0-4,0-4
				C70,35,66,31,55,31z"/>
		</g>
		<path style="fill:#84462D;" d="M55,55c-1.778-3-6.222-1-8,2c2.667,0,8,0,8,0s5.333,0,8,0C61.222,54,56.778,52,55,55z"/>
		<g>
			<polygon style="fill:#099686;" points="29,82 41,82 41,84 35,86 29,84 			"/>
		</g>
		<g>
			<polygon style="fill:#099686;" points="69,82 81,82 81,84 75,86 69,84 			"/>
		</g>
		<g>
			<path style="fill:#3E3E3F;" d="M55,37c0,0-13,0-15,3c2.997,5.722,14.628,4.697,15,4.969c0.372-0.271,12.003,0.753,15-4.969
				C68,37,55,37,55,37z"/>
		</g>
		<g>
			<path style="fill:#5B5C5F;" d="M40,40c2.997,5.722,14.628,4.697,15,4.969V37C55,37,42,37,40,40z"/>
		</g>
		<path style="fill:#FACB1B;" d="M40,36c0,0,0,2.878,0,4c3-3,15-3,15-3v-6C44,31,40,35,40,36z"/>
		<path style="fill:#099686;" d="M35,32c0,5,5,5,5,5c0-0.602,0-1,0-1c0.59-0.037,3-5,15-5v-8C50,23,35,26,35,32z"/>
	</g>
</g>
</svg>
