<?xml version="1.0" encoding="iso-8859-1"?>
<!-- Generator: Adobe Illustrator 17.1.0, SVG Export Plug-In . SVG Version: 6.00 Build 0)  -->
<!DOCTYPE svg PUBLIC "-//W3C//DTD SVG 1.0//EN" "http://www.w3.org/TR/2001/REC-SVG-20010904/DTD/svg10.dtd">
<svg version="1.0" xmlns="http://www.w3.org/2000/svg" xmlns:xlink="http://www.w3.org/1999/xlink" x="0px" y="0px" width="110px"
	 height="110px" viewBox="0 0 110 110" style="enable-background:new 0 0 110 110;" xml:space="preserve">
<g id="Artboard">
</g>
<g id="Multicolor">
	<circle style="fill:#25B7D3;" cx="55" cy="55" r="55"/>
	<g>
		<g>
			<path style="fill:#FFFFFF;" d="M79.09,31C83.47,31.08,87,36.61,87,41v42c0,2.21-1.79,4-4,4H27c-2.21,0-4-1.79-4-4V41
				c0-4.4,3.55-9.96,7.95-10H79.09z"/>
		</g>
		<g>
			<path style="fill:#F79392;" d="M77,74c0,3-1.343,5-3,5s-3-2-3-5s3-7,3-7S77,71,77,74z"/>
		</g>
		<g>
			<path style="fill:#47C4B7;" d="M74,79c0,0,2-7,9-7C83,76,80,79,74,79z"/>
		</g>
		<g>
			<path style="fill:#47C4B7;" d="M74,79c0,0-2-7-9-7C65,76,68,79,74,79z"/>
		</g>
		<g>
			<path style="fill:#E2E4E5;" d="M37.784,25.23c0.122,0.048,0.236,0.105,0.336,0.18c1.233,0.95,0.645,2.364,0.98,5.59
				c1.209,12.758,7.472,24.7,15.853,33.147c0.015-0.016,0.032-0.031,0.047-0.047C67.11,51.83,70.19,38.49,70.9,31
				c0.392-3.792-0.192-4.687,0.98-5.59c0.101-0.076,0.218-0.135,0.342-0.184C60.745,22.263,49.261,22.269,37.784,25.23z"/>
		</g>
		<path style="fill:#F79392;" d="M79.08,28.51c-0.07-1.479-5.47-4.4-7.2-3.1c-1.172,0.904-0.586,1.796-0.98,5.59
			c-0.711,7.5-3.798,20.864-15.947,33.147C46.572,55.701,40.31,43.758,39.1,31c-0.394-3.799,0.193-4.686-0.98-5.59
			c-1.73-1.3-7.13,1.62-7.2,3.1c-0.595,12.874,5.687,29.43,19.437,42.334C50.764,71.226,51,71.756,51,72.313L51,87h8V71.437
			C73.416,57.971,79.683,41.574,79.08,28.51z"/>
	</g>
</g>
</svg>
