<?xml version="1.0" encoding="iso-8859-1"?>
<!-- Generator: Adobe Illustrator 17.1.0, SVG Export Plug-In . SVG Version: 6.00 Build 0)  -->
<!DOCTYPE svg PUBLIC "-//W3C//DTD SVG 1.0//EN" "http://www.w3.org/TR/2001/REC-SVG-20010904/DTD/svg10.dtd">
<svg version="1.0" xmlns="http://www.w3.org/2000/svg" xmlns:xlink="http://www.w3.org/1999/xlink" x="0px" y="0px" width="110px"
	 height="110px" viewBox="0 0 110 110" style="enable-background:new 0 0 110 110;" xml:space="preserve">
<g id="Artboard">
</g>
<g id="Multicolor">
	<circle style="fill:#32BEA6;" cx="55" cy="55" r="55"/>
	<g>
		<path style="fill:#107665;" d="M61.885,39c0.685,0,1.323-0.351,1.69-0.93C64.869,36.027,61.299,23,55,23
			c-6.289,0-9.866,13.03-8.574,15.07C46.793,38.648,47.43,39,48.115,39H61.885z"/>
		<path style="fill:#107665;" d="M38.722,51c0.685,0,1.323-0.351,1.69-0.93C41.705,48.027,38.135,35,31.836,35
			c-6.289,0-9.866,13.03-8.574,15.07c0.366,0.579,1.003,0.93,1.688,0.93H38.722z"/>
		<path style="fill:#107665;" d="M85.047,51c0.685,0,1.323-0.351,1.69-0.93C88.03,48.027,84.461,35,78.162,35
			c-6.289,0-9.866,13.03-8.574,15.07c0.366,0.579,1.003,0.93,1.688,0.93H85.047z"/>
		<path style="fill:#0D9681;" d="M32,35.01C31.945,35.009,31.892,35,31.836,35c-6.289,0-9.865,13.03-8.574,15.07
			c0.367,0.579,1.003,0.93,1.688,0.93H32V35.01z"/>
		<path style="fill:#0D9681;" d="M55.164,23.01C55.109,23.009,55.056,23,55,23c-6.289,0-9.865,13.03-8.574,15.07
			C46.793,38.648,47.43,39,48.115,39h7.049V23.01z"/>
		<path style="fill:#0D9681;" d="M78.325,35.01C78.271,35.009,78.217,35,78.161,35c-6.289,0-9.865,13.03-8.574,15.07
			c0.367,0.579,1.003,0.93,1.688,0.93h7.049V35.01z"/>
		<path style="fill:#0D9681;" d="M50.889,42.768L53.149,39h-3.499l-1.937,3.228c-0.354,0.59-0.261,1.346,0.226,1.833l4,4
			C52.232,48.354,52.616,48.5,53,48.5s0.768-0.146,1.061-0.439c0.586-0.585,0.586-1.536,0-2.121L50.889,42.768z"/>
		<path style="fill:#0D9681;" d="M59.111,42.768L56.851,39h3.499l1.937,3.228c0.354,0.59,0.261,1.346-0.226,1.833l-4,4
			C57.768,48.354,57.384,48.5,57,48.5s-0.768-0.146-1.061-0.439c-0.586-0.585-0.586-1.536,0-2.121L59.111,42.768z"/>
		<circle style="fill:#8CE3D4;" cx="52.5" cy="32" r="1.5"/>
		<circle style="fill:#8CE3D4;" cx="57.5" cy="32" r="1.5"/>
		<path style="fill:#0D9681;" d="M27.725,54.768L29.986,51h-3.499l-1.937,3.228c-0.354,0.59-0.261,1.346,0.226,1.833l4,4
			c0.293,0.293,0.677,0.439,1.061,0.439s0.768-0.146,1.061-0.439c0.586-0.585,0.586-1.536,0-2.121L27.725,54.768z"/>
		<path style="fill:#0D9681;" d="M35.947,54.768L33.687,51h3.499l1.937,3.228c0.354,0.59,0.261,1.346-0.226,1.833l-4,4
			c-0.293,0.293-0.677,0.439-1.061,0.439s-0.768-0.146-1.061-0.439c-0.586-0.585-0.586-1.536,0-2.121L35.947,54.768z"/>
		<circle style="fill:#8CE3D4;" cx="29.336" cy="44" r="1.5"/>
		<circle style="fill:#8CE3D4;" cx="34.336" cy="44" r="1.5"/>
		<path style="fill:#0D9681;" d="M74.05,54.768L76.311,51h-3.499l-1.937,3.228c-0.354,0.59-0.261,1.346,0.226,1.833l4,4
			c0.293,0.293,0.677,0.439,1.061,0.439s0.768-0.146,1.061-0.439c0.586-0.585,0.586-1.536,0-2.121L74.05,54.768z"/>
		<path style="fill:#0D9681;" d="M82.273,54.768L80.012,51h3.499l1.937,3.228c0.354,0.59,0.261,1.346-0.226,1.833l-4,4
			c-0.293,0.293-0.677,0.439-1.061,0.439s-0.768-0.146-1.061-0.439c-0.586-0.585-0.586-1.536,0-2.121L82.273,54.768z"/>
		<circle style="fill:#8CE3D4;" cx="75.662" cy="44" r="1.5"/>
		<circle style="fill:#8CE3D4;" cx="80.662" cy="44" r="1.5"/>
		<path style="fill:#8CE3D4;" d="M43,87v-4c0-4.418,3.582-8,8-8h8c4.418,0,8,3.582,8,8v4H43z"/>
		<path style="fill:#107665;" d="M51,75c0,0,2-8,4-8s4,8,4,8H51z"/>
		<path style="fill:#0D9681;" d="M55,67c-2,0-4,8-4,8h4V67z"/>
		<path style="fill:#C2F8F0;" d="M55,75h-4c-4.418,0-8,3.582-8,8v4h12V75z"/>
		<rect x="54" y="53" style="fill:#C2F8F0;" width="2" height="4"/>
		<rect x="54" y="60" style="fill:#C2F8F0;" width="2" height="4"/>
	</g>
</g>
</svg>
