<?xml version="1.0" encoding="iso-8859-1"?>
<!-- Generator: Adobe Illustrator 17.1.0, SVG Export Plug-In . SVG Version: 6.00 Build 0)  -->
<!DOCTYPE svg PUBLIC "-//W3C//DTD SVG 1.0//EN" "http://www.w3.org/TR/2001/REC-SVG-20010904/DTD/svg10.dtd">
<svg version="1.0" xmlns="http://www.w3.org/2000/svg" xmlns:xlink="http://www.w3.org/1999/xlink" x="0px" y="0px" width="110px"
	 height="110px" viewBox="0 0 110 110" style="enable-background:new 0 0 110 110;" xml:space="preserve">
<g id="Artboard">
</g>
<g id="Multicolor">
	<circle style="fill:#E04F5F;" cx="55" cy="55" r="55"/>
	<g>
		<g>
			<path style="fill:#E2E4E5;" d="M85.448,24.239C71.67,21.315,59.709,27.626,49.551,38.75C33.441,38.75,23,52.922,23,58.75h9
				l2.036,2.715c-0.382,0.713-0.76,1.43-1.134,2.153c-0.65,1.231-1.287,2.489-1.902,3.755L42.378,78.75
				c1.273-0.608,2.545-1.23,3.79-1.866c0.647-0.329,1.288-0.664,1.927-1L50.917,78v9c5.685,0,20-10.188,20-26.585
				C82.114,50.188,88.388,38.092,85.448,24.239z"/>
		</g>
		<g>
			<path style="fill:#F0F1F1;" d="M46.168,76.883c-1.245,0.636-2.517,1.258-3.79,1.867L31.001,67.373
				c0.615-1.266,1.252-2.524,1.902-3.755c12.82-24.798,30.321-44.095,52.545-39.379C90.164,46.463,71.171,64.17,46.168,76.883z"/>
		</g>
		<path style="fill:#FFFFFF;" d="M49.558,38.743c-5.752,6.297-10.925,14.135-15.521,22.722l0,0c-0.04,0.074-0.941,1.779-1.134,2.153
			c-0.65,1.23-1.287,2.489-1.902,3.754l5.604,5.604l48.753-48.753C71.169,21.249,59.217,28.167,49.558,38.743z"/>
		<g>
			<circle style="fill:#40C9E7;" cx="73.427" cy="36.26" r="8"/>
		</g>
		<g>
			<path style="fill:#3E3E3F;" d="M46.168,76.883c-1.245,0.636-2.517,1.258-3.79,1.867L31.001,67.373
				c0.615-1.266,1.252-2.524,1.902-3.755L46.168,76.883z"/>
		</g>
		<g>
			<path style="fill:#FACB1B;" d="M41.17,77.529c0,2.85-1.64,4.82-4.3,6.08c0.32-1.2,0.3-2.54,0.3-4.08
				c-4.51,5.688-8.421,6.04-12.025,6c0-5.199,2.308-9.072,6-12c-1.59,0-2.948-0.03-4.188,0.33c1.26-2.75,3.246-4.33,6.206-4.33
				L41.17,77.529z"/>
		</g>
		<g>
			<path style="fill:#818184;" d="M39.49,70.17L36.66,73l-5.66-5.66c0.62-1.26,1.25-2.52,1.9-3.75L39.49,70.17z"/>
		</g>
		<g>
			<path style="fill:#6FDAF1;" d="M79.001,30.57v0.01l-11.27,11.31c-3.12-3.13-3.14-8.189-0.02-11.32
				C70.83,27.45,76.001,27.45,79.001,30.57z"/>
		</g>
	</g>
</g>
</svg>
