<?xml version="1.0" encoding="iso-8859-1"?>
<!-- Generator: Adobe Illustrator 17.1.0, SVG Export Plug-In . SVG Version: 6.00 Build 0)  -->
<!DOCTYPE svg PUBLIC "-//W3C//DTD SVG 1.0//EN" "http://www.w3.org/TR/2001/REC-SVG-20010904/DTD/svg10.dtd">
<svg version="1.0" xmlns="http://www.w3.org/2000/svg" xmlns:xlink="http://www.w3.org/1999/xlink" x="0px" y="0px" width="110px"
	 height="110px" viewBox="0 0 110 110" style="enable-background:new 0 0 110 110;" xml:space="preserve">
<g id="Artboard">
</g>
<g id="Multicolor">
	<circle style="fill:#32BEA6;" cx="55" cy="55" r="55"/>
	<g>
		<g>
			<path style="fill:#3E3E3F;" d="M67,42c0-2.517-5.272-19-12-19c-6.829,0-12,16.817-12,19v41h24V42z"/>
		</g>
		<g>
			<path style="fill:#5B5C5F;" d="M55,23c-6.829,0-12,16.817-12,19v41h12V23z"/>
		</g>
		<g>
			<path style="fill:#E2E4E5;" d="M43,39.574c0-0.375-0.105-0.742-0.304-1.06l-3-6.514c-0.365-0.585-1.006-0.94-1.696-0.94
				s-1.331,0.355-1.696,0.94l-3,6.514C33.105,38.831,33,39.199,33,39.574V83h10V39.574z"/>
		</g>
		<g>
			<path style="fill:#FFFFFF;" d="M37.87,31.077c-0.638,0.042-1.224,0.376-1.566,0.923l-3,6.514C33.105,38.832,33,39.199,33,39.574
				V83h4.87V31.077z"/>
		</g>
		<g>
			<path style="fill:#E2E4E5;" d="M77,39.574c0-0.375-0.105-0.742-0.304-1.06l-3-6.514c-0.365-0.585-1.006-0.94-1.696-0.94
				s-1.331,0.355-1.696,0.94l-3,6.514C67.105,38.831,67,39.199,67,39.574V83h10V39.574z"/>
		</g>
		<g>
			<path style="fill:#FFFFFF;" d="M71.87,31.077c-0.638,0.042-1.224,0.376-1.566,0.923l-3,6.514C67.105,38.832,67,39.199,67,39.574
				V83h4.87V31.077z"/>
		</g>
		<g>
			<path style="fill:#F0F1F1;" d="M80.103,74.417c-6.984-4.624-12.608-10.372-17.164-17.002C61.679,55.582,61,53.408,61,51.184
				V41.55c0-0.36-0.1-0.71-0.29-1.03L58.12,35l-1.41-3c-0.36-0.6-1.01-0.97-1.71-0.97l0,0c-0.7,0-1.35,0.37-1.71,0.97l-1.41,3
				l-2.59,5.52C49.106,40.829,49,41.178,49,41.55l0,0v9.634c0,2.233-0.674,4.391-1.939,6.231
				c-4.556,6.631-10.181,12.378-17.164,17.002C29.338,74.787,29,75.415,29,76.086V81c0,1.104,0.896,2,2,2h2h18h4h4h20
				c1.104,0,2-0.896,2-2v-4.914C81,75.415,80.662,74.787,80.103,74.417z"/>
		</g>
		<g>
			<path style="fill:#3E3E3F;" d="M64.38,84.51c-0.205-0.807,0.064,0.269-1.62-6.48C62.31,76.25,60.71,75,58.88,75h-2.024
				c-0.436-1.185-1.032-2-1.856-2c-0.827,0-1.424,0.816-1.859,2H51.12c-1.83,0-3.43,1.25-3.88,3.03
				c-1.684,6.749-1.414,5.673-1.62,6.48c-0.15,0.6-0.01,1.24,0.37,1.72c0.37,0.49,0.96,0.77,1.57,0.77h14.88
				c0.61,0,1.2-0.28,1.57-0.77C64.39,85.75,64.53,85.11,64.38,84.51z"/>
		</g>
		<g>
			<path style="fill:#FFFFFF;" d="M53.29,32l-1.41,3l-2.59,5.52C49.106,40.829,49,41.178,49,41.55v9.634
				c0,2.233-0.674,4.391-1.938,6.231c-4.556,6.631-10.181,12.378-17.164,17.002C29.338,74.787,29,75.415,29,76.086V81
				c0,1.104,0.896,2,2,2h20h4V31.03C54.3,31.03,53.65,31.4,53.29,32z"/>
		</g>
		<g>
			<path style="fill:#5B5C5F;" d="M55,73c-0.827,0-1.424,0.816-1.859,2H51.12c-1.83,0-3.43,1.25-3.88,3.03
				c-1.684,6.749-1.414,5.673-1.62,6.48c-0.15,0.6-0.01,1.24,0.37,1.72c0.37,0.49,0.96,0.77,1.57,0.77H55V73z"/>
		</g>
		<g>
			<path style="fill:#40C9E7;" d="M55,37c-2.209,0-4,1.791-4,4h8C59,38.791,57.209,37,55,37z"/>
		</g>
		<g>
			<path style="fill:#9CE5F4;" d="M55,37c-2.209,0-4,1.791-4,4h4V37z"/>
		</g>
		<g>
			<path style="fill:#5B5C5F;" d="M58.12,35h-6.24l1.41-3c0.36-0.6,1.01-0.97,1.71-0.97s1.35,0.37,1.71,0.97L58.12,35z"/>
		</g>
		<g>
			<path style="fill:#9E9FA0;" d="M55,31.03c-0.7,0-1.35,0.37-1.71,0.97l-1.41,3H55V31.03z"/>
		</g>
		<g>
			<path style="fill:#9E9FA0;" d="M64.01,86.23C63.64,86.72,63.05,87,62.44,87H47.56c-0.61,0-1.2-0.28-1.57-0.77
				c-0.38-0.48-0.52-1.12-0.37-1.72L45.75,84h18.5l0.13,0.51C64.53,85.11,64.39,85.75,64.01,86.23z"/>
		</g>
	</g>
</g>
</svg>
