<?xml version="1.0" encoding="iso-8859-1"?>
<!-- Generator: Adobe Illustrator 17.1.0, SVG Export Plug-In . SVG Version: 6.00 Build 0)  -->
<!DOCTYPE svg PUBLIC "-//W3C//DTD SVG 1.0//EN" "http://www.w3.org/TR/2001/REC-SVG-20010904/DTD/svg10.dtd">
<svg version="1.0" xmlns="http://www.w3.org/2000/svg" xmlns:xlink="http://www.w3.org/1999/xlink" x="0px" y="0px" width="110px"
	 height="110px" viewBox="0 0 110 110" style="enable-background:new 0 0 110 110;" xml:space="preserve">
<g id="Artboard">
</g>
<g id="Multicolor">
	<circle style="fill:#E04F5F;" cx="55" cy="55" r="55"/>
	<g>
		<g>
			<path style="fill:#F0F1F1;" d="M79,27c0-2.209-1.791-4-4-4H35c-2.209,0-4,1.791-4,4v56c0,2.209,1.791,4,4,4h40
				c2.209,0,4-1.791,4-4V27z"/>
		</g>
		<g>
			<path style="fill:#FFFFFF;" d="M78,24.346C77.268,23.526,76.214,23,75.027,23h-40c-2.209,0-4,1.791-4,4v44.319L78,24.346z"/>
		</g>
		<g>
			<path style="fill:#3E3E3F;" d="M55.02,35.014C55.033,38.359,39.087,46.706,39,56.682c-0.083,9.477,10.922,10.785,14.702,5.994
				c0.15,4.94-1.046,9.045-3.159,12.324l8.894-0.005c-2.159-3.668-3.072-7.757-3.031-12.061c3.951,4.765,14.784,3.807,14.551-6.269
				C70.734,47.021,55.033,38.401,55.02,35.014z"/>
		</g>
		<g>
			<path style="fill:#5B5C5F;" d="M55.02,35.014C55.033,38.359,39.087,46.706,39,56.682c-0.019,2.153,0.539,3.88,1.45,5.214
				l20.359-20.359C57.673,38.676,55.025,36.404,55.02,35.014z"/>
		</g>
	</g>
</g>
</svg>
