<?xml version="1.0" encoding="iso-8859-1"?>
<!-- Generator: Adobe Illustrator 17.1.0, SVG Export Plug-In . SVG Version: 6.00 Build 0)  -->
<!DOCTYPE svg PUBLIC "-//W3C//DTD SVG 1.0//EN" "http://www.w3.org/TR/2001/REC-SVG-20010904/DTD/svg10.dtd">
<svg version="1.0" xmlns="http://www.w3.org/2000/svg" xmlns:xlink="http://www.w3.org/1999/xlink" x="0px" y="0px" width="110px"
	 height="110px" viewBox="0 0 110 110" style="enable-background:new 0 0 110 110;" xml:space="preserve">
<g id="Artboard">
</g>
<g id="Multicolor">
	<g>
		<circle style="fill:#FABC3D;" cx="55" cy="55" r="55"/>
	</g>
	<g>
		<g>
			<path style="fill:#FFFFFF;" d="M39.703,42.034c-0.683-1.418-2.464-2.144-4.004-1.403l-4.506,2.167l0.479,0.997
				c-6.261,3.095-6.4,8.394-6.383,9.168V67h4l-0.002-14.146c-0.004-0.141-0.023-3.385,4.117-5.459l0.389,0.81l4.506-2.167
				C39.725,45.351,40.433,43.553,39.703,42.034z"/>
		</g>
		<g>
			<path style="fill:#84462D;" d="M79,71H31l3.839,15.196C34.933,86.664,35.343,87,35.82,87h38.36c0.477,0,0.887-0.336,0.981-0.804
				L79,71z"/>
		</g>
		<g>
			<path style="fill:#AF7653;" d="M87,70c0,0.552-0.448,1-1,1H24c-0.552,0-1-0.448-1-1v-2c0-0.552,0.448-1,1-1h62
				c0.552,0,1,0.448,1,1V70z"/>
		</g>
		<g>
			<path style="fill:#5B5C5F;" d="M38.3,46.038c1.493-0.718,2.121-2.511,1.403-4.004s-2.511-2.121-4.004-1.403l-4.506,2.167
				l2.601,5.407L38.3,46.038z"/>
		</g>
		<g>
			<path style="fill:#3E3E3F;" d="M77,67H33l1.099-12.983c0-1.786,1.184-3.355,2.901-3.846L49,47h12l12,3.171
				c1.717,0.491,2.901,2.06,2.901,3.846L77,67z"/>
		</g>
		<g>
			<polygon style="fill:#FFFFFF;" points="49,47 61,47 55,67 			"/>
		</g>
		<g>
			<path style="fill:#F7B4B4;" d="M65.5,35.5C65.5,29.757,60.814,25,55,25c-5.778,0-10.5,4.699-10.5,10.5
				c0,3.561,1.783,6.707,4.5,8.606V47h12v-2.894C63.717,42.207,65.5,39.061,65.5,35.5z"/>
		</g>
		<g>
			<polygon style="fill:#DF2C2C;" points="55,47 52,57 55,67 58,57 			"/>
		</g>
		<g>
			<path style="fill:#3E3E3F;" d="M33.794,48.205l4.506-2.167c1.493-0.718,2.121-2.511,1.403-4.004
				c-0.045-0.093-0.105-0.172-0.158-0.259l-7.185,3.448L33.794,48.205z"/>
		</g>
		<polygon style="fill:#FA5655;" points="52,57 55,67 55,47 		"/>
		<path style="fill:#FBC8C8;" d="M44.5,35.5c0,3.561,1.783,6.707,4.5,8.606V47h6V25C49.222,25,44.5,29.699,44.5,35.5z"/>
		<g>
			<path style="fill:#692E19;" d="M65.465,34.905c-1.925,0.385-3.973,0.595-6.09,0.595c-5.442,0-10.43-1.348-14.245-3.588
				C46.6,27.887,50.468,25,55,25C60.582,25,65.168,29.393,65.465,34.905z"/>
		</g>
		<path style="fill:#84462D;" d="M55,25c-4.532,0-8.4,2.887-9.87,6.912c2.764,1.623,6.148,2.768,9.87,3.281V25z"/>
	</g>
</g>
</svg>
