<?xml version="1.0" encoding="iso-8859-1"?>
<!-- Generator: Adobe Illustrator 17.1.0, SVG Export Plug-In . SVG Version: 6.00 Build 0)  -->
<!DOCTYPE svg PUBLIC "-//W3C//DTD SVG 1.0//EN" "http://www.w3.org/TR/2001/REC-SVG-20010904/DTD/svg10.dtd">
<svg version="1.0" xmlns="http://www.w3.org/2000/svg" xmlns:xlink="http://www.w3.org/1999/xlink" x="0px" y="0px" width="110px"
	 height="110px" viewBox="0 0 110 110" style="enable-background:new 0 0 110 110;" xml:space="preserve">
<g id="Artboard">
</g>
<g id="Multicolor">
	<circle style="fill:#25B7D3;" cx="55" cy="55" r="55"/>
	<g>
		<path style="fill:#3E3E3F;" d="M26.966,83.585c0,1.886,1.529,3.415,3.415,3.415h49.205C81.471,87,83,85.471,83,83.585V26.415
			C83,24.529,81.471,23,79.585,23H30.38c-1.886,0-3.415,1.529-3.415,3.415V83.585z"/>
		<path style="fill:#5B5C5F;" d="M83,26.415C83,24.529,81.471,23,79.585,23H30.38c-1.886,0-3.415,1.529-3.415,3.415v57.171
			c0,1.003,0.441,1.896,1.129,2.521L83,31.64V26.415z"/>
		<circle style="fill:#3E3E3F;" cx="54.983" cy="48.215" r="18.5"/>
		<circle style="fill:#818284;" cx="38.173" cy="76.233" r="5.603"/>
		<circle style="fill:#818284;" cx="71.793" cy="76.233" r="5.603"/>
		<circle style="fill:#3E3E3F;" cx="38.173" cy="76.233" r="2.802"/>
		<circle style="fill:#3E3E3F;" cx="71.793" cy="76.233" r="2.802"/>
		<path style="fill:#818284;" d="M54.983,27.203c-11.586,0-21.013,9.426-21.013,21.013s9.426,21.013,21.013,21.013
			s21.013-9.427,21.013-21.013S66.569,27.203,54.983,27.203z M73.194,48.215c0,0.898-0.087,1.775-0.213,2.639h-4.804v-5.278h4.804
			C73.107,46.44,73.194,47.317,73.194,48.215z M36.771,48.215c0-0.898,0.087-1.775,0.214-2.639h4.804v5.278h-4.804
			C36.859,49.99,36.771,49.114,36.771,48.215z M44.956,50.854v-5.278h4.222v5.278H44.956z M49.177,54.021v4.222h-4.222v-4.222
			H49.177z M44.956,42.41v-4.222h4.222v4.222H44.956z M41.789,38.188v4.222h-4.052c0.507-1.504,1.198-2.922,2.059-4.222H41.789z
			 M41.789,54.021v4.222h-1.993c-0.861-1.3-1.551-2.718-2.059-4.222H41.789z M44.956,61.409h4.222v4.052
			c-1.503-0.507-2.922-1.198-4.222-2.059V61.409z M44.956,35.021v-1.992c1.3-0.861,2.718-1.552,4.222-2.06v4.052H44.956z
			 M52.344,42.41v-4.222h5.277v4.222H52.344z M57.621,45.576v5.278h-5.277v-5.278H57.621z M52.344,54.021h5.277v4.222h-5.277V54.021
			z M70.169,38.188c0.861,1.3,1.552,2.718,2.059,4.222h-4.052v-4.222H70.169z M60.788,50.854v-5.278h4.222v5.278H60.788z
			 M65.01,54.021v4.222h-4.222v-4.222H65.01z M60.788,42.41v-4.222h4.222v4.222H60.788z M60.788,35.021v-4.052
			c1.503,0.508,2.922,1.198,4.222,2.06v1.993H60.788z M65.01,61.409v1.994c-1.3,0.861-2.719,1.552-4.222,2.059v-4.053H65.01z
			 M68.176,58.242v-4.222h4.053c-0.508,1.503-1.198,2.922-2.06,4.222H68.176z M57.621,30.218v4.804h-5.277v-4.804
			c0.864-0.126,1.741-0.213,2.639-0.213S56.757,30.091,57.621,30.218z M52.344,66.213v-4.804h5.277v4.804
			c-0.864,0.126-1.74,0.214-2.638,0.214S53.208,66.339,52.344,66.213z"/>
		<g>
			<path style="fill:#CFD3D4;" d="M54.983,69.228c-11.586,0-21.013-9.426-21.013-21.013s9.426-21.013,21.013-21.013
				s21.013,9.426,21.013,21.013S66.569,69.228,54.983,69.228z M54.983,30.004c-10.042,0-18.211,8.17-18.211,18.211
				s8.169,18.211,18.211,18.211s18.211-8.169,18.211-18.211S65.024,30.004,54.983,30.004z"/>
		</g>
	</g>
</g>
</svg>
