<?xml version="1.0" encoding="iso-8859-1"?>
<!-- Generator: Adobe Illustrator 17.1.0, SVG Export Plug-In . SVG Version: 6.00 Build 0)  -->
<!DOCTYPE svg PUBLIC "-//W3C//DTD SVG 1.0//EN" "http://www.w3.org/TR/2001/REC-SVG-20010904/DTD/svg10.dtd">
<svg version="1.0" xmlns="http://www.w3.org/2000/svg" xmlns:xlink="http://www.w3.org/1999/xlink" x="0px" y="0px" width="110px"
	 height="110px" viewBox="0 0 110 110" style="enable-background:new 0 0 110 110;" xml:space="preserve">
<g id="Artboard">
</g>
<g id="Multicolor">
	<circle style="fill:#32BEA6;" cx="55" cy="55" r="55"/>
	<g>
		<path style="fill:#EDBC7C;" d="M79,83c0,2.209-1.791,4-4,4H35c-2.209,0-4-1.791-4-4V27c0-2.209,1.791-4,4-4h40
			c2.209,0,4,1.791,4,4V83z"/>
		<path style="fill:#F4D0A1;" d="M78.131,24.538C77.398,23.608,76.275,23,75,23H35c-2.209,0-4,1.791-4,4v44.669L78.131,24.538z"/>
		<circle style="fill:#E2E4E5;" cx="55" cy="59" r="16"/>
		<path style="fill:#FFFFFF;" d="M55,43c-8.836,0-16,7.164-16,16c0,1.425,0.204,2.8,0.554,4.115l19.561-19.561
			C57.8,43.204,56.425,43,55,43z"/>
		<circle style="fill:#3E3E3F;" cx="55" cy="59" r="14"/>
		<path style="fill:#5B5C5F;" d="M55,45c-7.732,0-14,6.268-14,14c0,0.835,0.086,1.648,0.227,2.442l16.216-16.216
			C56.648,45.086,55.835,45,55,45z"/>
		<circle style="fill:#B6BCBD;" cx="55" cy="59" r="4"/>
		<circle style="fill:#FFFFFF;" cx="55" cy="33" r="6"/>
		<circle style="fill:#3E3E3F;" cx="55" cy="33" r="4"/>
		<path style="fill:#A97A45;" d="M71,81c0,1.105-0.895,2-2,2H41c-1.105,0-2-0.895-2-2s0.895-2,2-2h28C70.105,79,71,79.895,71,81z"/>
	</g>
</g>
</svg>
