<?xml version="1.0" encoding="iso-8859-1"?>
<!-- Generator: Adobe Illustrator 17.1.0, SVG Export Plug-In . SVG Version: 6.00 Build 0)  -->
<!DOCTYPE svg PUBLIC "-//W3C//DTD SVG 1.0//EN" "http://www.w3.org/TR/2001/REC-SVG-20010904/DTD/svg10.dtd">
<svg version="1.0" xmlns="http://www.w3.org/2000/svg" xmlns:xlink="http://www.w3.org/1999/xlink" x="0px" y="0px" width="110px"
	 height="110px" viewBox="0 0 110 110" style="enable-background:new 0 0 110 110;" xml:space="preserve">
<g id="Artboard">
</g>
<g id="Multicolor">
	<circle style="fill:#FABC3D;" cx="55" cy="55" r="55"/>
	<g>
		<path style="fill:#3E3E3F;" d="M85,33c0-4.418-3.582-8-8-8H33c-4.418,0-8,3.582-8,8v44c0,4.418,3.582,8,8,8h44
			c4.418,0,8-3.582,8-8V33z"/>
		<path style="fill:#818284;" d="M23,35c0-6.627,5.373-12,12-12v12H23z"/>
		<path style="fill:#818284;" d="M87,35c0-6.627-5.373-12-12-12v12H87z"/>
		<circle style="fill:#E2E4E5;" cx="47" cy="32" r="2"/>
		<circle style="fill:#E2E4E5;" cx="55" cy="32" r="2"/>
		<circle style="fill:#E2E4E5;" cx="63" cy="32" r="2"/>
		<rect x="32" y="38.3" style="fill:#5B5C5F;" width="46" height="39.7"/>
		<path style="fill:#818284;" d="M87,75c0,6.627-5.373,12-12,12V75H87z"/>
		<polygon style="fill:#818284;" points="32,77.92 71.62,38.3 32,38.3 		"/>
		<circle style="fill:#3E3E3F;" cx="55" cy="58" r="14"/>
		<circle style="fill:#CFD3D4;" cx="55" cy="58" r="6"/>
		<path style="fill:#818284;" d="M35,87c-6.627,0-12-5.373-12-12h12V87z"/>
	</g>
</g>
</svg>
