<?xml version="1.0" encoding="iso-8859-1"?>
<!-- Generator: Adobe Illustrator 17.1.0, SVG Export Plug-In . SVG Version: 6.00 Build 0)  -->
<!DOCTYPE svg PUBLIC "-//W3C//DTD SVG 1.0//EN" "http://www.w3.org/TR/2001/REC-SVG-20010904/DTD/svg10.dtd">
<svg version="1.0" xmlns="http://www.w3.org/2000/svg" xmlns:xlink="http://www.w3.org/1999/xlink" x="0px" y="0px" width="110px"
	 height="110px" viewBox="0 0 110 110" style="enable-background:new 0 0 110 110;" xml:space="preserve">
<g id="Artboard">
</g>
<g id="Multicolor">
	<circle style="fill:#E04F5F;" cx="55" cy="55" r="55"/>
	<g>
		<g>
			<polygon style="fill:#FFFFFF;" points="81,87 87,87 75,67 69,67 75.6,78 34.4,78 41,67 35,67 23,87 29,87 32,82 78,82 			"/>
		</g>
		<g>
			<path style="fill:#CFD3D4;" d="M55.24,23H55h-0.24C41.638,23,31,33.638,31,46.76C31,72,42,80,55,80s24-8,24-33.24
				C79,33.638,68.362,23,55.24,23z"/>
		</g>
		<g>
			<path style="fill:#E2E4E5;" d="M55,23h-0.24C41.638,23,31,33.638,31,46.76C31,72,42,80,55,80V23z"/>
		</g>
		<g>
			<path style="fill:#E2E4E5;" d="M55,23c-10.945,0-19.606,6.973-22.708,16.147C32.294,51.9,42.354,69.786,55,69.001
				c12.646,0.785,22.706-17.1,22.708-29.854C74.609,29.98,65.953,23,55,23z"/>
		</g>
		<g>
			<path style="fill:#FFFFFF;" d="M55,23h-0.202c-10.458,0-19.332,6.76-22.507,16.147C32.294,51.9,42.354,69.786,55,69.001V23z"/>
		</g>
		<g>
			<ellipse style="fill:#3E3E3F;" cx="55" cy="70" rx="14" ry="11"/>
		</g>
		<g>
			<path style="fill:#5B5C5F;" d="M55,58.974v10.001c4.354,0.27,8.4-1.673,11.836-4.857C64.357,61.031,59.989,58.974,55,58.974z"/>
		</g>
		<g>
			<path style="fill:#40C9E7;" d="M69.748,37.339C68.611,35.864,66.856,35,64.994,35H55h-9.994c-1.861,0-3.617,0.864-4.753,2.339
				s-1.527,3.394-1.052,5.194c0.424,1.607,0.948,3.193,1.569,4.721C41.687,49.518,43.888,51,46.331,51H55h8.669
				c2.443,0,4.644-1.482,5.562-3.746c0.62-1.529,1.145-3.114,1.569-4.721C71.275,40.733,70.884,38.813,69.748,37.339z"/>
		</g>
		<g>
			<path style="fill:#6FDAF1;" d="M45.006,35c-1.861,0-3.617,0.864-4.753,2.339c-1.136,1.474-1.527,3.394-1.052,5.194
				c0.424,1.607,0.949,3.193,1.569,4.721C41.687,49.518,43.888,51,46.331,51H55V35H45.006z"/>
		</g>
		<g>
			<path style="fill:#9E9FA0;" d="M55,69.001V59c-4.989,0-9.357,2.057-11.836,5.144C46.6,67.328,50.646,69.271,55,69.001z"/>
		</g>
	</g>
</g>
</svg>
