<?xml version="1.0" encoding="iso-8859-1"?>
<!-- Generator: Adobe Illustrator 17.1.0, SVG Export Plug-In . SVG Version: 6.00 Build 0)  -->
<!DOCTYPE svg PUBLIC "-//W3C//DTD SVG 1.0//EN" "http://www.w3.org/TR/2001/REC-SVG-20010904/DTD/svg10.dtd">
<svg version="1.0" xmlns="http://www.w3.org/2000/svg" xmlns:xlink="http://www.w3.org/1999/xlink" x="0px" y="0px" width="110px"
	 height="110px" viewBox="0 0 110 110" style="enable-background:new 0 0 110 110;" xml:space="preserve">
<g id="Artboard">
</g>
<g id="Multicolor">
	<circle style="fill:#E04F5F;" cx="55" cy="55" r="55"/>
	<g>
		<polygon style="fill:#FACB1B;" points="47,33 87,43 87,33 87,23 		"/>
		<polygon style="fill:#FBE158;" points="47,33 87,23 87,33 		"/>
		<path style="fill:#0484AB;" d="M59,83c0,2.209-1.791,4-4,4H27c-2.209,0-4-1.791-4-4V48c0-2.209,1.791-4,4-4h28
			c2.209,0,4,1.791,4,4V83z"/>
		<path style="fill:#21B2D1;" d="M41,44H27c-2.209,0-4,1.791-4,4v35c0,2.209,1.791,4,4,4h14V44z"/>
		<polygon style="fill:#CFD3D4;" points="47,38 35,38 29,44 53,44 		"/>
		<polygon style="fill:#FFFFFF;" points="41,38 35,38 29,44 41,44 		"/>
		<rect x="36" y="28" style="fill:#3E3E3F;" width="10" height="10"/>
		<path style="fill:#CFD3D4;" d="M46,30v6c-1.66,0-3-1.34-3-3S44.34,30,46,30z"/>
		<rect x="46" y="58" style="fill:#FFFFFF;" width="13" height="16"/>
	</g>
</g>
</svg>
