<?xml version="1.0" encoding="iso-8859-1"?>
<!-- Generator: Adobe Illustrator 17.1.0, SVG Export Plug-In . SVG Version: 6.00 Build 0)  -->
<!DOCTYPE svg PUBLIC "-//W3C//DTD SVG 1.0//EN" "http://www.w3.org/TR/2001/REC-SVG-20010904/DTD/svg10.dtd">
<svg version="1.0" xmlns="http://www.w3.org/2000/svg" xmlns:xlink="http://www.w3.org/1999/xlink" x="0px" y="0px" width="110px"
	 height="110px" viewBox="0 0 110 110" style="enable-background:new 0 0 110 110;" xml:space="preserve">
<g id="Artboard">
</g>
<g id="Multicolor">
	<circle style="fill:#32BEA6;" cx="55" cy="55" r="55"/>
	<g>
		<g>
			<path style="fill:#FFFFFF;" d="M65.531,82.33c0.2,1.16-0.13,2.35-0.89,3.25c-0.76,0.9-1.88,1.42-3.06,1.42h-23.58
				c-1.08,0-2.12-0.44-2.88-1.22c-0.75-0.78-1.15-1.84-1.12-2.92c0.21-5.9,0.79-11.47,1.72-16.73c1.35-7.68,3.44-14.7,6.2-21.13h8
				c-2.69,6.99,2.15,12.83,7.19,19.85C60.682,69.81,64.342,75.36,65.531,82.33z"/>
		</g>
		<g>
			<rect x="41" y="43" style="fill:#E2E4E5;" width="10" height="2"/>
		</g>
		<g>
			<rect x="62" y="31" style="fill:#FA5655;" width="2" height="5"/>
		</g>
		<g>
			<path style="fill:#FFFFFF;" d="M57.934,39.98l3.657-2.681C61.848,37.111,62,36.812,62,36.493V31c0-0.552-0.448-1-1-1H43.922
				c-3.8,1.852-6.77,6.513-9.292,11.553c-0.155,0.31-0.138,0.678,0.044,0.973C34.856,42.821,35.178,43,35.524,43h17.983
				c0,0,4.2,4.752,9.268,6.958l1-1C60.119,45.282,58.424,42.922,57.934,39.98z"/>
		</g>
		<g>
			<path style="fill:#6FDAF1;" d="M61.297,80.423c0.154,0.894-0.1,1.811-0.686,2.504c-0.586,0.693-1.449,1.094-2.358,1.094h-18.17
				c-0.832,0-1.634-0.339-2.219-0.94c-0.578-0.601-0.886-1.418-0.863-2.25c0.162-4.546,0.609-8.838,1.325-12.892
				c1.063-0.424,2.697-0.871,4.777-0.871c3.853,0,4.623,1.541,7.706,1.541c1.618,0,3.028-0.855,3.999-1.657
				C57.56,70.776,60.38,75.052,61.297,80.423z"/>
		</g>
		<g>
			<path style="fill:#FFFFFF;" d="M77.474,36C76.078,36,68,33.474,68,33.474s8.078-2.526,9.474-2.526
				c1.395,0,2.526,1.131,2.526,2.526C80,34.869,78.869,36,77.474,36z"/>
		</g>
		<g>
			<path style="fill:#FFFFFF;" d="M77.214,27.649C76.07,28.447,68,31,68,31s5.178-6.696,6.322-7.494
				c1.144-0.799,2.719-0.519,3.518,0.625S78.358,26.85,77.214,27.649z"/>
		</g>
		<g>
			<path style="fill:#FFFFFF;" d="M77.214,39.351C76.07,38.553,68,36,68,36s5.178,6.696,6.322,7.494s2.719,0.519,3.518-0.625
				C78.638,41.725,78.358,40.15,77.214,39.351z"/>
		</g>
		<g>
			<path style="fill:#9CE5F4;" d="M37.031,80.266l11.882-11.882c-1.733-0.428-2.883-1.315-5.808-1.315
				c-2.081,0-3.714,0.447-4.777,0.871C37.64,71.823,37.208,75.931,37.031,80.266z"/>
		</g>
	</g>
</g>
</svg>
