<?xml version="1.0" encoding="iso-8859-1"?>
<!-- Generator: Adobe Illustrator 17.1.0, SVG Export Plug-In . SVG Version: 6.00 Build 0)  -->
<!DOCTYPE svg PUBLIC "-//W3C//DTD SVG 1.0//EN" "http://www.w3.org/TR/2001/REC-SVG-20010904/DTD/svg10.dtd">
<svg version="1.0" xmlns="http://www.w3.org/2000/svg" xmlns:xlink="http://www.w3.org/1999/xlink" x="0px" y="0px" width="110px"
	 height="110px" viewBox="0 0 110 110" style="enable-background:new 0 0 110 110;" xml:space="preserve">
<g id="Artboard">
</g>
<g id="Multicolor">
	<circle style="fill:#FABC3D;" cx="55" cy="55" r="55"/>
	<g>
		<path style="fill:#F37A10;" d="M55.182,47c-12.05,0-21.818,3.867-21.818,8.636v4.545c0,1.809,1.407,3.487,3.808,4.875
			c-0.003-0.002-0.007-0.003-0.01-0.005c0.706,3.388,3.463,16.621,3.565,17.095C41.843,85.954,50.991,87,55.182,87
			c7.371,0,13.645-2.088,14.455-4.854c0.103-0.474,2.859-13.707,3.565-17.095c-0.002,0.001-0.005,0.002-0.007,0.004
			C75.594,63.667,77,61.99,77,60.182v-4.545C77,50.867,67.231,47,55.182,47z"/>
		<g>
			<path style="fill:#099686;" d="M72.255,36.665c-4.54,5.24-10.24,7.72-12.75,5.55c-0.01-0.01-0.03-0.02-0.04-0.04
				c-2.44-2.19-0.79-8.17,3.72-13.37c4.44-5.12,12.4-5.53,12.74-5.55h0.01C75.935,23.255,76.795,31.425,72.255,36.665z"/>
		</g>
		<g>
			<path style="fill:#12B2A0;" d="M75.925,23.255l-16.46,18.92c-2.44-2.19-0.79-8.17,3.72-13.37
				C67.625,23.685,75.585,23.275,75.925,23.255z"/>
		</g>
		<g>
			<path style="fill:#099686;" d="M37.892,44.678c5.776,2.956,11.59,3.11,13.008,0.347c0.005-0.012,0.019-0.028,0.021-0.049
				c1.35-2.755-2.178-7.366-7.913-10.297c-5.647-2.887-12.697-0.453-12.999-0.351L30,34.332C30,34.332,32.117,41.722,37.892,44.678z
				"/>
		</g>
		<g>
			<path style="fill:#12B2A0;" d="M30.009,34.329l20.912,10.648c1.35-2.755-2.178-7.366-7.913-10.297
				C37.361,31.793,30.311,34.227,30.009,34.329z"/>
		</g>
		<path style="fill:#F99134;" d="M33.364,55.636v4.545c0,1.808,1.405,3.485,3.803,4.872c-0.001-0.001-0.003-0.002-0.005-0.003
			c0.706,3.388,3.463,16.621,3.565,17.095C41.843,85.954,50.991,87,55.182,87V68.818V47C43.132,47,33.364,50.867,33.364,55.636z"/>
		<g>
			<path style="fill:#12B2A0;" d="M57.877,25.499c-0.016-0.007-0.033-0.027-0.049-0.027C57.845,25.472,57.861,25.492,57.877,25.499
				L57.877,25.499z"/>
		</g>
		<g>
			<ellipse style="fill:#84462D;" cx="55.182" cy="55.182" rx="18.182" ry="5.455"/>
		</g>
		<g>
			<path style="fill:#099686;" d="M54.877,25.499c-0.016-0.007-0.033-0.027-0.049-0.027c-1.271,0-2.999,21.255-3.693,30.528h3.742
				h3.644C57.836,46.845,56.143,26.027,54.877,25.499z"/>
		</g>
	</g>
</g>
</svg>
