<?xml version="1.0" encoding="iso-8859-1"?>
<!-- Generator: Adobe Illustrator 17.1.0, SVG Export Plug-In . SVG Version: 6.00 Build 0)  -->
<!DOCTYPE svg PUBLIC "-//W3C//DTD SVG 1.0//EN" "http://www.w3.org/TR/2001/REC-SVG-20010904/DTD/svg10.dtd">
<svg version="1.0" xmlns="http://www.w3.org/2000/svg" xmlns:xlink="http://www.w3.org/1999/xlink" x="0px" y="0px" width="110px"
	 height="110px" viewBox="0 0 110 110" style="enable-background:new 0 0 110 110;" xml:space="preserve">
<g id="Artboard">
</g>
<g id="Multicolor">
	<circle style="fill:#FABC3D;" cx="55" cy="55" r="55"/>
	<g>
		<g>
			<path style="fill:#099686;" d="M80.001,47.8c-7.127,8.226-16.076,12.12-20.016,8.713c-0.016-0.016-0.047-0.031-0.063-0.063
				c-3.83-3.438-1.24-12.826,5.84-20.989c6.97-8.038,19.466-8.681,20-8.713h0.016C85.778,26.748,87.128,39.573,80.001,47.8z"/>
		</g>
		<g>
			<path style="fill:#12B2A0;" d="M85.762,26.748L59.922,56.45c-3.83-3.438-1.24-12.826,5.84-20.989
				C72.733,27.423,85.229,26.779,85.762,26.748z"/>
		</g>
		<g>
			<path style="fill:#099686;" d="M36.4,62.474c6.283,3.215,12.608,3.383,14.15,0.378c0.006-0.013,0.021-0.03,0.023-0.053
				c1.468-2.997-2.369-8.012-8.608-11.201c-6.142-3.14-13.812-0.492-14.14-0.382l-0.009,0.004
				C27.815,51.22,30.118,59.259,36.4,62.474z"/>
		</g>
		<g>
			<path style="fill:#12B2A0;" d="M27.825,51.216l22.748,11.583c1.468-2.997-2.369-8.012-8.608-11.201
				C35.822,48.458,28.153,51.106,27.825,51.216z"/>
		</g>
		<g>
			<path style="fill:#099686;" d="M55.027,75.356c1.359,0,2.648,0.142,3.828,0.388c-0.573-11.784-2.465-48.388-3.828-48.388
				s-3.255,36.604-3.828,48.388C52.378,75.497,53.667,75.356,55.027,75.356z"/>
		</g>
		<g>
			<path style="fill:#84462D;" d="M76.596,83.152c-0.893-4.03-4.482-7.046-8.781-7.046c-2.688,0-3.531,0.963-4.795,1.11h-0.01
				c-1.812-1.275-4.784-2.11-8.151-2.11s-6.339,0.834-8.151,2.11c-0.008,0-0.009,0-0.009,0c-1.501-0.176-2.181-1.11-4.885-1.11
				c-4.301,0-7.892,3.019-8.783,7.052c-3.01,0.255-5.437,1.857-6.032,3.948c6.332,0-11.927,0,23.584,0c12.92,0,21.29,0,32.135,0
				C82.118,84.995,79.649,83.383,76.596,83.152z"/>
		</g>
		<g>
			<path style="fill:#9C6144;" d="M54.86,75.106c-3.367,0-6.339,0.834-8.151,2.11c-0.008,0-0.009,0-0.009,0
				c-1.501-0.176-2.181-1.11-4.885-1.11c-4.301,0-7.892,3.019-8.783,7.052c-3.01,0.255-5.437,1.857-6.032,3.948
				c22.53,0,14.085,0,16.373,0l11.985-11.985C55.191,75.117,55.028,75.106,54.86,75.106z"/>
		</g>
	</g>
</g>
</svg>
