<?xml version="1.0" encoding="iso-8859-1"?>
<!-- Generator: Adobe Illustrator 17.1.0, SVG Export Plug-In . SVG Version: 6.00 Build 0)  -->
<!DOCTYPE svg PUBLIC "-//W3C//DTD SVG 1.0//EN" "http://www.w3.org/TR/2001/REC-SVG-20010904/DTD/svg10.dtd">
<svg version="1.0" xmlns="http://www.w3.org/2000/svg" xmlns:xlink="http://www.w3.org/1999/xlink" x="0px" y="0px" width="110px"
	 height="110px" viewBox="0 0 110 110" style="enable-background:new 0 0 110 110;" xml:space="preserve">
<g id="Artboard">
</g>
<g id="Multicolor">
	<g>
		<circle style="fill:#32BEA6;" cx="55" cy="55" r="55"/>
	</g>
	<g>
		<path style="fill:#FBC8C8;" d="M70,45.003c-1,0-1,1.111-1,1.111v-1.111c0-0.001,0-0.002,0-0.003H41c0,0.001,0,0.002,0,0.003V53
			l4,10l5.105,3.996C50.674,67.635,51.489,68,52.345,68H55h2.655c0.856,0,1.671-0.365,2.24-1.004L65,63l3.207-8.017
			C71.042,54.779,72,50.479,72,47.225C72,46.114,71,45.003,70,45.003z"/>
		<path style="fill:#FBD7D7;" d="M41,45c0,0.001,0,0.002,0,0.003v1.111c0,0,0-1.111-1-1.111s-2,1.111-2,2.222
			c0,3.254,0.958,7.554,3.793,7.758L45,63l5.105,3.996C50.674,67.635,51.489,68,52.345,68H55V45H41z"/>
		<g>
			<path style="fill:#3E3E3F;" d="M30.043,73.021c-1.345,0.588-2.428,1.649-3.043,2.982l-4,11h32l-12-19L30.043,73.021z"/>
			<path style="fill:#3E3E3F;" d="M83,76.003c-0.615-1.333-1.698-2.394-3.043-2.982L67,68.003l-12,19h32L83,76.003z"/>
		</g>
		<polygon style="fill:#E2E4E5;" points="45.475,67 55,87.003 64.525,67 		"/>
		<path style="fill:#F7B4B4;" d="M57.655,68H55h-2.655c-0.856,0-1.671-0.365-2.24-1.004L45,63v4.5c0,0,0,7.5,10,7.5s10-7.5,10-7.5
			V63l-5.105,3.996C59.326,67.635,58.511,68,57.655,68z"/>
		<path style="fill:#FBC8C8;" d="M50.105,66.996L45,63v4.5c0,0,0,7.5,10,7.5v-7h-2.655C51.489,68,50.674,67.635,50.105,66.996z"/>
		<g>
			<polygon style="fill:#3E3E3F;" points="59,87.003 56.201,76.803 58,75.005 54.981,71.981 51.983,74.979 53.801,76.796 51,87.003 
							"/>
		</g>
		<polygon style="fill:#FFFFFF;" points="50.159,76.837 54.985,71.984 45.625,67.314 		"/>
		<g>
			<path style="fill:#5B5C5F;" d="M45,58.003v8l10,21h-5l-16-11l4-5l-11-3C26.748,68.055,33,56.003,45,58.003z"/>
		</g>
		<polygon style="fill:#FFFFFF;" points="64.375,67.314 55.015,71.984 59.841,76.837 		"/>
		<g>
			<path style="fill:#5B5C5F;" d="M65,58.003v8l-10,21h5l16-11l-4-5l11-3C83.252,68.055,77,56.003,65,58.003z"/>
		</g>
		<g>
			<path style="fill:#3E3E3F;" d="M70,39.003l-5.156-14.84c-0.44-0.953-1.541-1.405-2.522-1.033
				c-1.472,0.558-3.913,1.203-7.322,1.203s-5.85-0.646-7.322-1.203c-0.983-0.372-2.082,0.079-2.522,1.033L40,39.003l-6,2v4h42v-4
				L70,39.003z"/>
		</g>
		<g>
			<polygon style="fill:#F1F2F2;" points="41.39,35.003 40,39.003 70,39.003 68.61,35.003 			"/>
		</g>
		<polygon style="fill:#FFFFFF;" points="55,35.003 41.39,35.003 40,39.003 55,39.003 		"/>
		<polygon style="fill:#692E19;" points="65.984,45 65.984,55 62.984,61 61.984,61 59.984,55 54.984,55 49.984,55 47.984,61 
			46.984,61 43.984,55 43.984,45 42,45 42,57 42.984,63.997 50.984,69 54.984,69 58.984,69 66.984,63.997 67.969,57 67.969,45 		"/>
		<polygon style="fill:#84462D;" points="47.984,61.003 46.984,61.003 43.984,55.003 43.984,45 42,45 42,57.003 42.984,64 
			50.984,69.003 54.984,69.003 54.984,55.003 49.984,55.003 		"/>
		<g>
			<path style="fill:#FBC8C8;" d="M51,58.003h8c0,0,0,3-4,3S51,58.003,51,58.003z"/>
		</g>
		<g>
			<path style="fill:#3E3E3F;" d="M68.963,46.821c-2.083-1.5-14.958-0.479-14.958-0.479s-12.958-1.021-15.042,0.479
				c0,0-0.083,1.958,0,3c2,1,0.666,2.667,2,3c1.667,0.417,8.708,1,10,0c1.362-1.055,2-4,3-4s1.638,2.945,3,4
				c1.292,1,8.333,0.417,10,0c1.334-0.333,0-2,2-3C69.046,48.78,68.963,46.821,68.963,46.821z"/>
			<g>
				<path style="fill:#5B5C5F;" d="M42.123,47.127c-0.886,0.121-1.202,2.507-0.241,4.428c0.066,0.133,0.199,0.247,0.383,0.344
					l4.442-5.077C44.588,46.839,42.596,47.063,42.123,47.127z"/>
			</g>
			<g>
				<path style="fill:#5B5C5F;" d="M56.659,47.492c-0.894,0.433,0.115,3.953,1.393,4.576l4.567-5.22
					C60.503,46.767,58,46.844,56.659,47.492z"/>
			</g>
		</g>
	</g>
</g>
</svg>
