<?xml version="1.0" encoding="iso-8859-1"?>
<!-- Generator: Adobe Illustrator 17.1.0, SVG Export Plug-In . SVG Version: 6.00 Build 0)  -->
<!DOCTYPE svg PUBLIC "-//W3C//DTD SVG 1.0//EN" "http://www.w3.org/TR/2001/REC-SVG-20010904/DTD/svg10.dtd">
<svg version="1.0" xmlns="http://www.w3.org/2000/svg" xmlns:xlink="http://www.w3.org/1999/xlink" x="0px" y="0px" width="110px"
	 height="110px" viewBox="0 0 110 110" style="enable-background:new 0 0 110 110;" xml:space="preserve">
<g id="Artboard" style="display:none;">
	
		<rect x="-840.5" y="-1058.5" style="display:inline;fill:#808080;stroke:#000000;stroke-miterlimit:10;" width="1392" height="1369"/>
</g>
<g id="R-Multicolor">
	<circle style="fill:#32BEA6;" cx="55" cy="55" r="55"/>
	<g>
		<g>
			<path style="fill:#F0F1F1;" d="M84.941,51H25.059C23.922,51,23,51.922,23,53.059v0.031c0,1.021,0.748,1.889,1.758,2.037
				C30.552,55.978,35,69.97,35,76v5c0,1.104,0.896,2,2,2h36c1.104,0,2-0.896,2-2v-5c0-6.03,4.447-20.021,10.24-20.872
				C86.25,54.98,87,54.114,87,53.092v-0.033C87,51.922,86.078,51,84.941,51z"/>
		</g>
		<g>
			<path style="fill:#FFFFFF;" d="M55,51H25.059C23.922,51,23,51.922,23,53.059v0.031c0,1.021,0.748,1.889,1.758,2.037
				C30.552,55.978,35,69.97,35,76v5c0,1.104,0.896,2,2,2h18V51z"/>
		</g>
		<g>
			<path style="fill:#FBEC9A;" d="M55,31.013C55.69,31.28,70.258,37.074,70.934,51H55V31.013z"/>
		</g>
		<g>
			<path style="fill:#FACB1B;" d="M35,81c0,1.104,0.896,2,2,2h36c1.104,0,2-0.896,2-2v-5H35V81z"/>
		</g>
		<g>
			<path style="fill:#FBE158;" d="M55,76H35v5c0,1.104,0.896,2,2,2h18V76z"/>
		</g>
		<g>
			<path style="fill:#FCF6C2;" d="M55,31.013C54.31,31.28,39.742,37.074,39.066,51H55V31.013z"/>
		</g>
		<path style="fill:#FACB1B;" d="M65,50.979c-0.146-7.997-3.783-15.09-9.364-19.699c-0.002-0.001-0.004-0.002-0.006-0.002
			c-0.343-0.151-0.559-0.237-0.63-0.265c-0.072,0.028-0.287,0.113-0.63,0.265c-0.002,0-0.004,0.001-0.006,0.002
			C48.783,35.889,45.146,42.982,45,50.979L52.01,51c-0.922-7.304-0.226-13.897,2.99-19.41c3.216,5.513,3.912,12.106,2.99,19.41
			L65,50.979z"/>
	</g>
</g>
<g id="Multicolor" style="display:none;">
	<g style="display:inline;">
		<g>
			<path style="fill:#F0F1F1;" d="M84.941,51H25.059C23.922,51,23,51.922,23,53.059v0.031c0,1.021,0.748,1.889,1.758,2.037
				C30.552,55.978,35,69.97,35,76v5c0,1.104,0.896,2,2,2h36c1.104,0,2-0.896,2-2v-5c0-6.03,4.447-20.021,10.24-20.872
				C86.25,54.98,87,54.114,87,53.092v-0.033C87,51.922,86.078,51,84.941,51z"/>
		</g>
		<g>
			<path style="fill:#FFFFFF;" d="M55,51H25.059C23.922,51,23,51.922,23,53.059v0.031c0,1.021,0.748,1.889,1.758,2.037
				C30.552,55.978,35,69.97,35,76v5c0,1.104,0.896,2,2,2h18V51z"/>
		</g>
		<g>
			<path style="fill:#FBEC9A;" d="M55,31.013C55.69,31.28,70.258,37.074,70.934,51H55V31.013z"/>
		</g>
		<g>
			<path style="fill:#FACB1B;" d="M35,81c0,1.104,0.896,2,2,2h36c1.104,0,2-0.896,2-2v-5H35V81z"/>
		</g>
		<g>
			<path style="fill:#FBE158;" d="M55,76H35v5c0,1.104,0.896,2,2,2h18V76z"/>
		</g>
		<g>
			<path style="fill:#FCF6C2;" d="M55,31.013C54.31,31.28,39.742,37.074,39.066,51H55V31.013z"/>
		</g>
		<path style="fill:#FACB1B;" d="M65,50.979c-0.146-7.997-3.783-15.09-9.364-19.699c-0.002-0.001-0.004-0.002-0.006-0.002
			c-0.343-0.151-0.559-0.237-0.63-0.265c-0.072,0.028-0.287,0.113-0.63,0.265c-0.002,0-0.004,0.001-0.006,0.002
			C48.783,35.889,45.146,42.982,45,50.979L52.01,51c-0.922-7.304-0.226-13.897,2.99-19.41c3.216,5.513,3.912,12.106,2.99,19.41
			L65,50.979z"/>
	</g>
</g>
<g id="Blue" style="display:none;">
	<g style="display:inline;">
		<g>
			<path style="fill:#E1F5FA;" d="M84.941,51H25.06C23.922,51,23,51.922,23,53.059v0.032c0,1.021,0.748,1.889,1.758,2.037
				C30.552,55.978,35,69.97,35,76v5c0,1.104,0.896,2,2,2h36c1.104,0,2-0.896,2-2v-5c0-6.029,4.447-20.021,10.24-20.872
				C86.25,54.98,87,54.114,87,53.092v-0.033C87,51.922,86.078,51,84.941,51z"/>
		</g>
		<g>
			<path style="fill:#FFFFFF;" d="M55,51H25.06C23.922,51,23,51.922,23,53.059v0.032c0,1.021,0.748,1.889,1.758,2.037
				C30.552,55.978,35,69.97,35,76v5c0,1.104,0.896,2,2,2h18V51z"/>
		</g>
		<g>
			<path style="fill:#BBE7F2;" d="M55,31.013C55.689,31.28,70.258,37.074,70.934,51H55V31.013z"/>
		</g>
		<g>
			<path style="fill:#0081A1;" d="M35,81c0,1.104,0.896,2,2,2h36c1.104,0,2-0.896,2-2v-5H35V81z"/>
		</g>
		<g>
			<path style="fill:#009FC7;" d="M55,76H35v5c0,1.104,0.896,2,2,2h18V76z"/>
		</g>
		<g>
			<path style="fill:#E1F5FA;" d="M55,31.013C54.311,31.28,39.742,37.074,39.066,51H55V31.013z"/>
		</g>
		<path style="fill:#81D2EB;" d="M65,50.979c-0.146-7.997-3.783-15.09-9.363-19.699c0,0-0.004-0.002-0.006-0.003
			c-0.344-0.151-0.56-0.237-0.631-0.265c-0.071,0.028-0.287,0.113-0.631,0.265c-0.002,0-0.004,0.002-0.004,0.002
			c-5.582,4.61-9.22,11.704-9.365,19.7L52.01,51c-0.922-7.304-0.226-13.897,2.99-19.41c3.216,5.512,3.912,12.106,2.99,19.41
			L65,50.979z"/>
	</g>
</g>
<g id="R-Blue" style="display:none;">
	<circle style="display:inline;fill:#81D2EB;" cx="55" cy="55" r="55"/>
	<g style="display:inline;">
		<g>
			<path style="fill:#E1F5FA;" d="M84.941,51H25.06C23.922,51,23,51.922,23,53.059v0.032c0,1.021,0.748,1.889,1.758,2.037
				C30.552,55.977,35,69.97,35,76v5c0,1.104,0.896,2,2,2h36c1.104,0,2-0.896,2-2v-5c0-6.029,4.447-20.021,10.24-20.872
				C86.25,54.98,87,54.114,87,53.092v-0.033C87,51.922,86.078,51,84.941,51z"/>
		</g>
		<g>
			<path style="fill:#FFFFFF;" d="M55,51H25.06C23.922,51,23,51.922,23,53.059v0.032c0,1.021,0.748,1.889,1.758,2.037
				C30.552,55.977,35,69.97,35,76v5c0,1.104,0.896,2,2,2h18V51z"/>
		</g>
		<g>
			<path style="fill:#BBE7F2;" d="M55,31.013C55.689,31.28,70.258,37.074,70.934,51H55V31.013z"/>
		</g>
		<g>
			<path style="fill:#0081A1;" d="M35,81c0,1.104,0.896,2,2,2h36c1.104,0,2-0.896,2-2v-5H35V81z"/>
		</g>
		<g>
			<path style="fill:#009FC7;" d="M55,76H35v5c0,1.104,0.896,2,2,2h18V76z"/>
		</g>
		<g>
			<path style="fill:#E1F5FA;" d="M55,31.013C54.311,31.28,39.742,37.074,39.066,51H55V31.013z"/>
		</g>
		<path style="fill:#81D2EB;" d="M65,50.979c-0.146-7.997-3.783-15.09-9.363-19.699c0,0-0.004-0.002-0.006-0.003
			c-0.344-0.151-0.56-0.237-0.631-0.265c-0.071,0.028-0.287,0.113-0.631,0.265c-0.002,0-0.004,0.002-0.004,0.002
			c-5.582,4.61-9.22,11.704-9.365,19.7L52.01,51c-0.922-7.304-0.226-13.897,2.99-19.41c3.216,5.512,3.912,12.106,2.99,19.41
			L65,50.979z"/>
	</g>
</g>
<g id="Green" style="display:none;">
	<g style="display:inline;">
		<g>
			<path style="fill:#D7FCF9;" d="M84.941,51H25.06C23.922,51,23,51.922,23,53.059v0.032c0,1.021,0.748,1.889,1.758,2.037
				C30.552,55.978,35,69.97,35,76v5c0,1.104,0.896,2,2,2h36c1.104,0,2-0.896,2-2v-5c0-6.029,4.447-20.021,10.24-20.872
				C86.25,54.98,87,54.114,87,53.092v-0.033C87,51.922,86.078,51,84.941,51z"/>
		</g>
		<g>
			<path style="fill:#FFFFFF;" d="M55,51H25.06C23.922,51,23,51.922,23,53.059v0.032c0,1.021,0.748,1.889,1.758,2.037
				C30.552,55.978,35,69.97,35,76v5c0,1.104,0.896,2,2,2h18V51z"/>
		</g>
		<g>
			<path style="fill:#AAF0E9;" d="M55,31.013C55.689,31.28,70.258,37.074,70.934,51H55V31.013z"/>
		</g>
		<g>
			<path style="fill:#009687;" d="M35,81c0,1.104,0.896,2,2,2h36c1.104,0,2-0.896,2-2v-5H35V81z"/>
		</g>
		<g>
			<path style="fill:#00B8A5;" d="M55,76H35v5c0,1.104,0.896,2,2,2h18V76z"/>
		</g>
		<g>
			<path style="fill:#D7FCF9;" d="M55,31.013C54.31,31.28,39.742,37.074,39.066,51H55V31.013z"/>
		</g>
		<path style="fill:#77E0C4;" d="M65,50.979c-0.146-7.997-3.783-15.09-9.363-19.699c0,0-0.004-0.002-0.006-0.003
			c-0.344-0.151-0.56-0.237-0.631-0.265c-0.071,0.028-0.287,0.113-0.631,0.265c-0.002,0-0.004,0.002-0.004,0.002
			c-5.582,4.61-9.22,11.704-9.365,19.7L52.01,51c-0.922-7.304-0.226-13.897,2.99-19.41c3.216,5.512,3.912,12.106,2.99,19.41
			L65,50.979z"/>
	</g>
</g>
<g id="R-Green" style="display:none;">
	<circle style="display:inline;fill:#77E0C4;" cx="55" cy="55" r="55"/>
	<g style="display:inline;">
		<g>
			<path style="fill:#D7FCF9;" d="M84.941,51H25.06C23.922,51,23,51.922,23,53.059v0.032c0,1.021,0.748,1.889,1.758,2.037
				C30.552,55.978,35,69.97,35,76v5c0,1.104,0.896,2,2,2h36c1.104,0,2-0.896,2-2v-5c0-6.029,4.447-20.021,10.24-20.872
				C86.25,54.98,87,54.114,87,53.092v-0.033C87,51.922,86.078,51,84.941,51z"/>
		</g>
		<g>
			<path style="fill:#FFFFFF;" d="M55,51H25.06C23.922,51,23,51.922,23,53.059v0.032c0,1.021,0.748,1.889,1.758,2.037
				C30.552,55.978,35,69.97,35,76v5c0,1.104,0.896,2,2,2h18V51z"/>
		</g>
		<g>
			<path style="fill:#AAF0E9;" d="M55,31.013C55.689,31.28,70.258,37.074,70.934,51H55V31.013z"/>
		</g>
		<g>
			<path style="fill:#009687;" d="M35,81c0,1.104,0.896,2,2,2h36c1.104,0,2-0.896,2-2v-5H35V81z"/>
		</g>
		<g>
			<path style="fill:#00B8A5;" d="M55,76H35v5c0,1.104,0.896,2,2,2h18V76z"/>
		</g>
		<g>
			<path style="fill:#D7FCF9;" d="M55,31.013C54.311,31.28,39.742,37.074,39.066,51H55V31.013z"/>
		</g>
		<path style="fill:#77E0C4;" d="M65,50.979c-0.146-7.997-3.783-15.09-9.363-19.699c0,0-0.004-0.002-0.006-0.003
			c-0.344-0.151-0.56-0.237-0.631-0.265c-0.071,0.028-0.287,0.113-0.631,0.265c-0.002,0-0.004,0.002-0.004,0.002
			c-5.582,4.61-9.22,11.704-9.365,19.7L52.01,51c-0.922-7.304-0.226-13.897,2.99-19.41c3.216,5.512,3.912,12.106,2.99,19.41
			L65,50.979z"/>
	</g>
</g>
<g id="Red" style="display:none;">
	<g style="display:inline;">
		<g>
			<path style="fill:#FFEFED;" d="M84.941,51H25.06C23.922,51,23,51.922,23,53.059v0.032c0,1.021,0.748,1.889,1.758,2.037
				C30.552,55.978,35,69.97,35,76v5c0,1.104,0.896,2,2,2h36c1.104,0,2-0.896,2-2v-5c0-6.029,4.447-20.021,10.24-20.872
				C86.25,54.98,87,54.114,87,53.092v-0.033C87,51.922,86.078,51,84.941,51z"/>
		</g>
		<g>
			<path style="fill:#FFFFFF;" d="M55,51H25.06C23.922,51,23,51.922,23,53.059v0.032c0,1.021,0.748,1.889,1.758,2.037
				C30.552,55.978,35,69.97,35,76v5c0,1.104,0.896,2,2,2h18V51z"/>
		</g>
		<g>
			<path style="fill:#FFD7D4;" d="M55,31.013C55.689,31.28,70.258,37.074,70.934,51H55V31.013z"/>
		</g>
		<g>
			<path style="fill:#C23023;" d="M35,81c0,1.104,0.896,2,2,2h36c1.104,0,2-0.896,2-2v-5H35V81z"/>
		</g>
		<g>
			<path style="fill:#E54B44;" d="M55,76H35v5c0,1.104,0.896,2,2,2h18V76z"/>
		</g>
		<g>
			<path style="fill:#FFEFED;" d="M55,31.013C54.31,31.28,39.742,37.074,39.066,51H55V31.013z"/>
		</g>
		<path style="fill:#FABBAF;" d="M65,50.979c-0.146-7.997-3.783-15.09-9.363-19.699c0,0-0.004-0.002-0.006-0.003
			c-0.344-0.151-0.56-0.237-0.631-0.265c-0.071,0.028-0.287,0.113-0.631,0.265c-0.002,0-0.004,0.001-0.004,0.001
			c-5.582,4.61-9.22,11.704-9.365,19.7L52.01,51c-0.922-7.304-0.226-13.897,2.99-19.41c3.216,5.512,3.912,12.106,2.99,19.41
			L65,50.979z"/>
	</g>
</g>
<g id="R-Red" style="display:none;">
	<circle style="display:inline;fill:#FABBAF;" cx="55" cy="55" r="55"/>
	<g style="display:inline;">
		<g>
			<path style="fill:#FFEFED;" d="M84.941,51H25.06C23.922,51,23,51.922,23,53.059v0.032c0,1.021,0.748,1.889,1.758,2.037
				C30.552,55.978,35,69.97,35,76v5c0,1.104,0.896,2,2,2h36c1.104,0,2-0.896,2-2v-5c0-6.029,4.447-20.021,10.24-20.872
				C86.25,54.98,87,54.114,87,53.092v-0.033C87,51.922,86.078,51,84.941,51z"/>
		</g>
		<g>
			<path style="fill:#FFFFFF;" d="M55,51H25.06C23.922,51,23,51.922,23,53.059v0.032c0,1.021,0.748,1.889,1.758,2.037
				C30.552,55.978,35,69.97,35,76v5c0,1.104,0.896,2,2,2h18V51z"/>
		</g>
		<g>
			<path style="fill:#FFD7D4;" d="M55,31.013C55.689,31.28,70.258,37.074,70.934,51H55V31.013z"/>
		</g>
		<g>
			<path style="fill:#C23023;" d="M35,81c0,1.104,0.896,2,2,2h36c1.104,0,2-0.896,2-2v-5H35V81z"/>
		</g>
		<g>
			<path style="fill:#E54B44;" d="M55,76H35v5c0,1.104,0.896,2,2,2h18V76z"/>
		</g>
		<g>
			<path style="fill:#FFEFED;" d="M55,31.013C54.31,31.28,39.742,37.074,39.066,51H55V31.013z"/>
		</g>
		<path style="fill:#FABBAF;" d="M65,50.979c-0.146-7.997-3.783-15.09-9.363-19.699c0,0-0.004-0.002-0.006-0.003
			c-0.344-0.151-0.56-0.237-0.631-0.265c-0.071,0.028-0.287,0.113-0.631,0.265c-0.002,0-0.004,0.001-0.004,0.001
			c-5.582,4.61-9.22,11.704-9.365,19.7L52.01,51c-0.922-7.304-0.226-13.897,2.99-19.41c3.216,5.512,3.912,12.106,2.99,19.41
			L65,50.979z"/>
	</g>
</g>
<g id="Yellow" style="display:none;">
	<g style="display:inline;">
		<g>
			<path style="fill:#FFF5D9;" d="M84.941,51H25.06C23.922,51,23,51.922,23,53.059v0.032c0,1.021,0.748,1.889,1.758,2.037
				C30.552,55.978,35,69.97,35,76v5c0,1.104,0.896,2,2,2h36c1.104,0,2-0.896,2-2v-5c0-6.029,4.447-20.021,10.24-20.872
				C86.25,54.98,87,54.114,87,53.092v-0.033C87,51.922,86.078,51,84.941,51z"/>
		</g>
		<g>
			<path style="fill:#FFFFFF;" d="M55,51H25.06C23.922,51,23,51.922,23,53.059v0.032c0,1.021,0.748,1.889,1.758,2.037
				C30.552,55.978,35,69.97,35,76v5c0,1.104,0.896,2,2,2h18V51z"/>
		</g>
		<g>
			<path style="fill:#FFE9A1;" d="M55,31.013C55.689,31.28,70.258,37.074,70.934,51H55V31.013z"/>
		</g>
		<g>
			<path style="fill:#E07000;" d="M35,81c0,1.104,0.896,2,2,2h36c1.104,0,2-0.896,2-2v-5H35V81z"/>
		</g>
		<g>
			<path style="fill:#FA9200;" d="M55,76H35v5c0,1.104,0.896,2,2,2h18V76z"/>
		</g>
		<g>
			<path style="fill:#FFF5D9;" d="M55,31.013C54.311,31.28,39.742,37.074,39.066,51H55V31.013z"/>
		</g>
		<path style="fill:#FFD75E;" d="M65,50.979c-0.146-7.997-3.783-15.09-9.363-19.699c0,0-0.004-0.002-0.006-0.003
			c-0.344-0.151-0.56-0.237-0.631-0.265c-0.071,0.028-0.287,0.113-0.631,0.265c-0.002,0-0.004,0.002-0.004,0.002
			c-5.582,4.61-9.22,11.704-9.365,19.7L52.01,51c-0.922-7.304-0.226-13.897,2.99-19.41c3.216,5.512,3.912,12.106,2.99,19.41
			L65,50.979z"/>
	</g>
</g>
<g id="R-Yellow" style="display:none;">
	<circle style="display:inline;fill:#FFD75E;" cx="55" cy="55" r="55"/>
	<g style="display:inline;">
		<g>
			<path style="fill:#FFF5D9;" d="M84.941,51H25.06C23.922,51,23,51.922,23,53.059v0.032c0,1.021,0.748,1.889,1.758,2.037
				C30.552,55.978,35,69.97,35,76v5c0,1.104,0.896,2,2,2h36c1.104,0,2-0.896,2-2v-5c0-6.029,4.447-20.021,10.24-20.872
				C86.25,54.98,87,54.114,87,53.092v-0.033C87,51.922,86.078,51,84.941,51z"/>
		</g>
		<g>
			<path style="fill:#FFFFFF;" d="M55,51H25.06C23.922,51,23,51.922,23,53.059v0.032c0,1.021,0.748,1.889,1.758,2.037
				C30.552,55.978,35,69.97,35,76v5c0,1.104,0.896,2,2,2h18V51z"/>
		</g>
		<g>
			<path style="fill:#FFE9A1;" d="M55,31.013C55.689,31.28,70.258,37.074,70.934,51H55V31.013z"/>
		</g>
		<g>
			<path style="fill:#E07000;" d="M35,81c0,1.104,0.896,2,2,2h36c1.104,0,2-0.896,2-2v-5H35V81z"/>
		</g>
		<g>
			<path style="fill:#FA9200;" d="M55,76H35v5c0,1.104,0.896,2,2,2h18V76z"/>
		</g>
		<g>
			<path style="fill:#FFF5D9;" d="M55,31.013C54.31,31.28,39.742,37.074,39.066,51H55V31.013z"/>
		</g>
		<path style="fill:#FFD75E;" d="M65,50.979c-0.146-7.997-3.783-15.09-9.363-19.699c0,0-0.004-0.002-0.006-0.003
			c-0.344-0.151-0.56-0.237-0.631-0.265c-0.071,0.028-0.287,0.113-0.631,0.265c-0.002,0-0.004,0.002-0.004,0.002
			c-5.582,4.61-9.22,11.704-9.365,19.7L52.01,51c-0.922-7.304-0.226-13.897,2.99-19.41c3.216,5.512,3.912,12.106,2.99,19.41
			L65,50.979z"/>
	</g>
</g>
</svg>
