<?xml version="1.0" encoding="iso-8859-1"?>
<!-- Generator: Adobe Illustrator 17.1.0, SVG Export Plug-In . SVG Version: 6.00 Build 0)  -->
<!DOCTYPE svg PUBLIC "-//W3C//DTD SVG 1.0//EN" "http://www.w3.org/TR/2001/REC-SVG-20010904/DTD/svg10.dtd">
<svg version="1.0" xmlns="http://www.w3.org/2000/svg" xmlns:xlink="http://www.w3.org/1999/xlink" x="0px" y="0px" width="110px"
	 height="110px" viewBox="0 0 110 110" style="enable-background:new 0 0 110 110;" xml:space="preserve">
<g id="Artboard">
</g>
<g id="Multicolor">
	<circle style="fill:#25B7D3;" cx="55" cy="55" r="55"/>
	<g>
		<g>
			<path style="fill:#F0F1F1;" d="M62.501,62.501c4.919-4.919,11.561-1.106,19.227-8.773c7.029-7.029,7.029-18.426,0-25.456
				c-7.029-7.029-18.426-7.029-25.456,0C48.503,36.041,51.919,42.081,47,47c-6.5,6.5-11,3-16,8c-6.083,6.083-3,12-5.808,15.205
				c-3.83,4.371-1.936,7.125,2.808,2.705c3.632-3.384,3.469-9.378,7-12.91c3.302-3.302,9.187-3.025,13.429-5.853
				c-4.243,4.243-6.293,5.203-8.777,7.687c-5.328,5.328-3.743,12.165-14.037,16.844c-3.383,1.538-1.842,3.743,1.872,3.743
				c14.037-2.807,12.612-8.869,17.78-14.037c2.214-2.214,5.99-4.338,10.233-7.167c-3.536,3.536-2.586,9.869-6,13.283
				c-3.531,3.531-9.526,3.368-12.91,7c-4.42,4.745-1.667,6.638,2.705,2.808c3.205-2.808,9.122,0.274,15.205-5.808
				C59.501,73.501,56.001,69.001,62.501,62.501z"/>
		</g>
		<g>
			<path style="fill:#FFFFFF;" d="M56.272,28.272C48.503,36.041,51.919,42.081,47,47c-6.5,6.5-11,3-16,8
				c-6.083,6.083-3,12-5.808,15.205c-3.83,4.371-1.937,7.125,2.808,2.705c3.632-3.384,3.469-9.378,7-12.91
				c3.302-3.302,9.187-3.025,13.429-5.853c-4.243,4.242-6.293,5.203-8.777,7.687c-5.328,5.328-3.743,12.165-14.037,16.844
				c-3.222,1.465-1.973,3.53,1.361,3.724l54.425-54.425C74.351,21.259,63.197,21.347,56.272,28.272z"/>
		</g>
		<g>
			<path style="fill:#FFFFFF;" d="M61.5,41c-3.033,0-5.5-2.467-5.5-5.5s2.467-5.5,5.5-5.5c3.033,0,5.5,2.467,5.5,5.5
				S64.533,41,61.5,41z"/>
		</g>
		<g>
			<path style="fill:#E2E4E5;" d="M61.5,30c3.038,0,5.5,2.462,5.5,5.5S64.538,41,61.5,41S56,38.538,56,35.5S58.462,30,61.5,30
				 M61.5,28c-4.136,0-7.5,3.364-7.5,7.5s3.364,7.5,7.5,7.5s7.5-3.364,7.5-7.5S65.636,28,61.5,28L61.5,28z"/>
		</g>
		<g>
			<path style="fill:#3E3E3F;" d="M62.164,32.447c-0.575,0-1.107,0.171-1.561,0.454c0.441,0.257,0.751,0.715,0.751,1.263
				c0,0.819-0.664,1.483-1.483,1.483c-0.244,0-0.465-0.073-0.668-0.177c0.03,1.612,1.341,2.912,2.961,2.912
				c1.638,0,2.967-1.328,2.967-2.967S63.802,32.447,62.164,32.447z"/>
		</g>
		<g>
			<path style="fill:#FFFFFF;" d="M74.5,53c-3.033,0-5.5-2.467-5.5-5.5s2.467-5.5,5.5-5.5s5.5,2.467,5.5,5.5S77.533,53,74.5,53z"/>
		</g>
		<g>
			<path style="fill:#E2E4E5;" d="M74.5,42c3.038,0,5.5,2.462,5.5,5.5S77.538,53,74.5,53S69,50.538,69,47.5S71.462,42,74.5,42
				 M74.5,40c-4.136,0-7.5,3.364-7.5,7.5s3.364,7.5,7.5,7.5s7.5-3.364,7.5-7.5S78.636,40,74.5,40L74.5,40z"/>
		</g>
		<g>
			<path style="fill:#3E3E3F;" d="M75.164,44.447c-0.575,0-1.107,0.171-1.561,0.454c0.441,0.257,0.751,0.715,0.751,1.263
				c0,0.819-0.664,1.483-1.483,1.483c-0.244,0-0.465-0.073-0.668-0.177c0.03,1.612,1.341,2.912,2.961,2.912
				c1.638,0,2.967-1.328,2.967-2.967S76.802,44.447,75.164,44.447z"/>
		</g>
	</g>
</g>
</svg>
