<?xml version="1.0" encoding="iso-8859-1"?>
<!-- Generator: Adobe Illustrator 17.1.0, SVG Export Plug-In . SVG Version: 6.00 Build 0)  -->
<!DOCTYPE svg PUBLIC "-//W3C//DTD SVG 1.0//EN" "http://www.w3.org/TR/2001/REC-SVG-20010904/DTD/svg10.dtd">
<svg version="1.0" xmlns="http://www.w3.org/2000/svg" xmlns:xlink="http://www.w3.org/1999/xlink" x="0px" y="0px" width="110px"
	 height="110px" viewBox="0 0 110 110" style="enable-background:new 0 0 110 110;" xml:space="preserve">
<g id="Artboard">
</g>
<g id="Multicolor">
	<circle style="fill:#FABC3D;" cx="55" cy="55" r="55"/>
	<g>
		<g>
			<path style="fill:#0484AB;" d="M25,81c0,3.314,2.686,6,6,6h48c3.314,0,6-2.686,6-6s-2.686-6-6-6H31C27.686,75,25,77.686,25,81z"
				/>
		</g>
		<g>
			<path style="fill:#F37A10;" d="M29,69c0,3.314,2.686,6,6,6h40c3.314,0,6-2.686,6-6s-2.686-6-6-6H35C31.686,63,29,65.686,29,69z"
				/>
		</g>
		<g>
			<path style="fill:#099686;" d="M33,57c0,3.314,2.686,6,6,6h32c3.314,0,6-2.686,6-6s-2.686-6-6-6H39C35.686,51,33,53.686,33,57z"
				/>
		</g>
		<g>
			<path style="fill:#DF2C2C;" d="M37,45c0,3.314,2.686,6,6,6h24c3.314,0,6-2.686,6-6s-2.686-6-6-6H43C39.686,39,37,41.686,37,45z"
				/>
		</g>
		<g>
			<path style="fill:#FFFFFF;" d="M51,25c0-1.105,0.895-2,2-2h4c1.105,0,2,0.895,2,2v14h-8V25z"/>
		</g>
		<g>
			<path style="fill:#FA5655;" d="M55,39H43c-3.313,0-6,2.686-6,6s2.687,6,6,6h12V39z"/>
		</g>
		<g>
			<path style="fill:#12B2A0;" d="M55,51H39c-3.313,0-6,2.686-6,6s2.687,6,6,6h16V51z"/>
		</g>
		<g>
			<path style="fill:#F99134;" d="M55,63H35c-3.313,0-6,2.686-6,6s2.687,6,6,6h20V63z"/>
		</g>
		<g>
			<path style="fill:#059BBF;" d="M55,75H31c-3.313,0-6,2.686-6,6s2.687,6,6,6h24V75z"/>
		</g>
	</g>
</g>
</svg>
