<?xml version="1.0" encoding="iso-8859-1"?>
<!-- Generator: Adobe Illustrator 17.1.0, SVG Export Plug-In . SVG Version: 6.00 Build 0)  -->
<!DOCTYPE svg PUBLIC "-//W3C//DTD SVG 1.0//EN" "http://www.w3.org/TR/2001/REC-SVG-20010904/DTD/svg10.dtd">
<svg version="1.0" xmlns="http://www.w3.org/2000/svg" xmlns:xlink="http://www.w3.org/1999/xlink" x="0px" y="0px" width="110px"
	 height="110px" viewBox="0 0 110 110" style="enable-background:new 0 0 110 110;" xml:space="preserve">
<g id="Artboard">
</g>
<g id="Multicolor">
	<circle style="fill:#E04F5F;" cx="55" cy="55" r="55"/>
	<g>
		<path style="fill:#F0F1F1;" d="M87,40.142c0-1.999-1.704-3.616-3.834-3.699v-0.031c2.13-0.083,3.834-1.7,3.834-3.699
			c0-1.998-1.704-3.616-3.834-3.699c0-0.026-0.004-0.02,0.025-0.02c2.814-0.195,4.604-2.964,3.449-5.636
			c-2.627-1.141-5.404,0.607-5.632,3.391h-0.031c-0.122-2.09-1.719-3.75-3.691-3.75s-3.569,1.66-3.691,3.75h-0.047
			c-0.122-2.09-1.719-3.75-3.691-3.75s-3.569,1.66-3.691,3.75h-0.047c-0.122-2.09-1.719-3.75-3.691-3.75s-3.569,1.66-3.691,3.75
			H58.69c-0.122-2.09-1.719-3.75-3.69-3.75c-1.971,0-3.569,1.66-3.69,3.75h-0.047c-0.122-2.09-1.719-3.75-3.691-3.75
			s-3.569,1.66-3.691,3.75h-0.047c-0.122-2.09-1.719-3.75-3.691-3.75s-3.569,1.66-3.691,3.75h-0.047
			c-0.122-2.09-1.719-3.75-3.691-3.75s-3.569,1.66-3.691,3.75h-0.031c-0.229-2.784-3.005-4.532-5.632-3.391
			c-1.156,2.672,0.635,5.441,3.449,5.636c0.029,0,0.025-0.006,0.025,0.02C24.704,29.097,23,30.715,23,32.713
			c0,1.999,1.704,3.616,3.834,3.699v0.031c-2.13,0.083-3.834,1.7-3.834,3.699s1.704,3.616,3.834,3.699v0.031
			c-2.13,0.083-3.834,1.7-3.834,3.699s1.704,3.616,3.834,3.699v0.031C24.704,51.383,23,53.001,23,55s1.704,3.616,3.834,3.699v0.031
			C24.704,58.812,23,60.43,23,62.428s1.704,3.616,3.834,3.699v0.031c-2.13,0.083-3.834,1.7-3.834,3.699s1.704,3.616,3.834,3.699
			v0.031c-2.13,0.083-3.834,1.7-3.834,3.699c0,1.998,1.704,3.616,3.834,3.699v0.02c-2.648,0.065-4.673,2.876-3.474,5.636
			c2.632,1.139,5.436-0.604,5.632-3.39h0.032c0.122,2.09,1.719,3.75,3.691,3.75s3.569-1.66,3.691-3.75h0.047
			c0.122,2.09,1.719,3.75,3.691,3.75s3.569-1.66,3.691-3.75h0.047C44.002,85.34,45.6,87,47.572,87s3.569-1.66,3.691-3.75h0.047
			C51.431,85.34,53.029,87,55,87c1.971,0,3.569-1.66,3.69-3.75h0.047c0.122,2.09,1.719,3.75,3.691,3.75s3.569-1.66,3.691-3.75h0.047
			c0.122,2.09,1.719,3.75,3.691,3.75s3.569-1.66,3.691-3.75h0.047c0.122,2.09,1.719,3.75,3.691,3.75s3.569-1.66,3.691-3.75h0.032
			c0.196,2.786,3,4.529,5.632,3.39c1.199-2.76-0.826-5.57-3.474-5.636v-0.02C85.296,80.902,87,79.284,87,77.286
			c0-1.999-1.704-3.616-3.834-3.699v-0.031c2.13-0.083,3.834-1.7,3.834-3.699s-1.704-3.616-3.834-3.699v-0.031
			c2.13-0.083,3.834-1.7,3.834-3.699s-1.704-3.616-3.834-3.699v-0.031C85.296,58.616,87,56.998,87,55s-1.704-3.616-3.834-3.699
			V51.27c2.13-0.083,3.834-1.7,3.834-3.699s-1.704-3.616-3.834-3.699v-0.031C85.296,43.758,87,42.141,87,40.142z"/>
		<path style="fill:#FFFFFF;" d="M81.007,26.75h-0.031c-0.122-2.09-1.719-3.75-3.691-3.75s-3.569,1.66-3.691,3.75h-0.047
			c-0.122-2.09-1.719-3.75-3.691-3.75s-3.569,1.66-3.691,3.75h-0.047c-0.122-2.09-1.719-3.75-3.691-3.75s-3.569,1.66-3.691,3.75
			H58.69c-0.122-2.09-1.719-3.75-3.69-3.75c-1.971,0-3.569,1.66-3.69,3.75h-0.047c-0.122-2.09-1.719-3.75-3.691-3.75
			s-3.569,1.66-3.691,3.75h-0.047c-0.122-2.09-1.719-3.75-3.691-3.75s-3.569,1.66-3.691,3.75h-0.047
			c-0.122-2.09-1.719-3.75-3.691-3.75s-3.569,1.66-3.691,3.75h-0.031c-0.229-2.784-3.005-4.532-5.632-3.391
			c-1.156,2.672,0.635,5.441,3.449,5.636c0.029,0,0.025-0.006,0.025,0.02C24.704,29.097,23,30.715,23,32.713
			c0,1.999,1.704,3.616,3.834,3.699v0.031c-2.13,0.083-3.834,1.7-3.834,3.699s1.704,3.616,3.834,3.699v0.031
			c-2.13,0.083-3.834,1.7-3.834,3.699s1.704,3.616,3.834,3.699v0.031C24.704,51.383,23,53.001,23,55s1.704,3.616,3.834,3.699v0.031
			C24.704,58.812,23,60.43,23,62.428s1.704,3.616,3.834,3.699v0.031c-2.13,0.083-3.834,1.7-3.834,3.699s1.704,3.616,3.834,3.699
			v0.031c-2.13,0.083-3.834,1.7-3.834,3.699c0,1.998,1.704,3.616,3.834,3.699v0.02c-2.648,0.065-4.673,2.876-3.474,5.636
			c0.007,0.003,0.015,0.005,0.022,0.008l63.266-63.266c-0.003-0.008-0.005-0.016-0.008-0.023
			C84.012,22.218,81.236,23.966,81.007,26.75z"/>
		<rect x="31" y="31" style="fill:#21B2D1;" width="48" height="48"/>
		<polygon style="fill:#059BBF;" points="79,78.999 31,78.999 79,30.999 		"/>
		<path style="fill:#FFFFFF;" d="M70.221,46.249c0.479-0.532,0.778-1.228,0.778-2c0-1.657-1.343-3-3-3s-3,1.343-3,3
			c0-4.418-3.582-8-8-8h-4c-4.418,0-8,3.582-8,8l-3.638,7.276c-0.078,0.155-0.069,0.339,0.022,0.486
			c0.091,0.147,0.252,0.237,0.425,0.237H45v4c0,1.104,0.896,2,2,2h2v6c-7,4-10,12-10,12h26c0-10-5-10-5-17s5-7,5-7
			c0,1.657,1.343,3,3,3s3-1.343,3-3c0-0.772-0.3-1.468-0.778-2c0.479-0.532,0.778-1.228,0.778-2S70.7,46.78,70.221,46.249z"/>
		<path style="fill:#F0F1F1;" d="M49,64.249c-7,4-10,12-10,12h26c0-10-5-10-5-17s5-7,5-7c0,1.657,1.343,3,3,3s3-1.343,3-3
			c0-0.772-0.3-1.468-0.778-2c0.479-0.532,0.778-1.228,0.778-2s-0.3-1.468-0.778-2c0.479-0.532,0.778-1.228,0.778-2
			c0-1.426-0.998-2.614-2.331-2.919L49,60.999V64.249z"/>
	</g>
</g>
</svg>
