<?xml version="1.0" encoding="iso-8859-1"?>
<!-- Generator: Adobe Illustrator 17.1.0, SVG Export Plug-In . SVG Version: 6.00 Build 0)  -->
<!DOCTYPE svg PUBLIC "-//W3C//DTD SVG 1.0//EN" "http://www.w3.org/TR/2001/REC-SVG-20010904/DTD/svg10.dtd">
<svg version="1.0" xmlns="http://www.w3.org/2000/svg" xmlns:xlink="http://www.w3.org/1999/xlink" x="0px" y="0px" width="110px"
	 height="110px" viewBox="0 0 110 110" style="enable-background:new 0 0 110 110;" xml:space="preserve">
<g id="Artboard">
</g>
<g id="Multicolor">
	<circle style="fill:#25B7D3;" cx="55" cy="55" r="55"/>
	<g>
		<path style="fill:#FA5655;" d="M75,59.836c1.671,0,3.261,0.343,4.706,0.959L51.753,32.134c-3.47-3.558-9.168-3.63-12.727-0.159
			l-3.58,3.491L64.79,65.552C66.902,62.126,70.678,59.836,75,59.836z"/>
		<path style="fill:#F0F1F1;" d="M36.569,36.617l-5.444,5.325l22.582,23.153c1.196-0.588,3.869-2.259,5.293-2.259
			c1.488,0,2.887,0.369,4.124,1.009L36.569,36.617z"/>
		<polygon style="fill:#CFD3D4;" points="38.506,38.603 33.107,44.001 34.762,45.656 40.14,40.278 		"/>
		<g>
			<path style="fill:#818284;" d="M54.063,61.529l-15.73-16.081c-0.386-0.395-0.379-1.028,0.016-1.414
				c0.395-0.386,1.028-0.379,1.414,0.016l15.73,16.081c0.386,0.395,0.379,1.028-0.016,1.414
				C55.082,61.931,54.449,61.924,54.063,61.529z"/>
		</g>
		<rect x="23" y="77.418" style="fill:#F0F1F1;" width="64" height="5.582"/>
		<path style="fill:#DF2C2C;" d="M79.705,60.795L51.753,32.134c-3.223-3.304-8.363-3.596-11.931-0.843L69.15,61.362c0,0,0,0,0,0
			C65.482,63.414,63,67.332,63,71.836H27c-2.209,0-4,3.373-4,5.582h64c0-1,0-3,0-5.582C87,66.877,83.995,62.624,79.705,60.795z"/>
		<polygon style="fill:#FFFFFF;" points="65.402,77.418 23,77.418 23,83 59.821,83 		"/>
		<path style="fill:#FA5655;" d="M63,71.836H27c-2.209,0-4,3.373-4,5.582h42.402l15.826-15.826
			c-1.817-1.107-3.944-1.756-6.229-1.756C68.37,59.836,63,65.206,63,71.836z"/>
		<g>
			<path style="fill:#F3B607;" d="M75,63.836c-2.209,0-4,1.791-4,4c0,2.209,1.791,4,4,4s4-1.791,4-4
				C79,65.627,77.209,63.836,75,63.836z"/>
		</g>
		<g>
			<path style="fill:#FACB1B;" d="M77.82,65c-0.723-0.719-1.719-1.165-2.82-1.165c-2.209,0-4,1.791-4,4
				c0,1.101,0.445,2.097,1.165,2.82L77.82,65z"/>
		</g>
	</g>
</g>
</svg>
