<?xml version="1.0" encoding="iso-8859-1"?>
<!-- Generator: Adobe Illustrator 17.1.0, SVG Export Plug-In . SVG Version: 6.00 Build 0)  -->
<!DOCTYPE svg PUBLIC "-//W3C//DTD SVG 1.0//EN" "http://www.w3.org/TR/2001/REC-SVG-20010904/DTD/svg10.dtd">
<svg version="1.0" xmlns="http://www.w3.org/2000/svg" xmlns:xlink="http://www.w3.org/1999/xlink" x="0px" y="0px" width="110px"
	 height="110px" viewBox="0 0 110 110" style="enable-background:new 0 0 110 110;" xml:space="preserve">
<g id="Artboard">
</g>
<g id="Multicolor">
	<circle style="fill:#25B7D3;" cx="55" cy="55" r="55"/>
	<g>
		<g>
			<circle style="fill:#F37A10;" cx="54.757" cy="55" r="20"/>
		</g>
		<g>
			<path style="fill:#F0F1F1;" d="M74.631,52.568c-3.04,3.87-6.58,7.86-10.52,11.79c-3.93,3.93-7.91,7.47-11.77,10.51
				c-12.68,9.99-24.05,14.67-27.96,10.75c-3.9-3.89,0.72-15.16,10.6-27.77c0.21,1.46,0.57,2.88,1.08,4.22
				c-3.68,5.61-5.18,10.05-3.53,11.7c1.52,1.52,5.38,0.37,10.35-2.68c4.54-2.78,9.99-7.16,15.4-12.57s9.79-10.86,12.57-15.4
				c3.05-4.96,4.2-8.83,2.68-10.35c-1.65-1.65-6.09-0.15-11.69,3.53c-1.34-0.5-2.76-0.87-4.22-1.08
				c12.6-9.88,23.86-14.49,27.76-10.6C89.291,28.538,84.611,39.898,74.631,52.568z"/>
		</g>
		<g>
			<g>
				<path style="fill:#FFFFFF;" d="M57.621,35.218c1.46,0.21,2.88,0.58,4.22,1.08c5.6-3.68,10.04-5.18,11.69-3.53
					c0.187,0.187,0.333,0.41,0.44,0.666l9.8-9.8C78.904,21.854,68.795,26.456,57.621,35.218z"/>
			</g>
			<g>
				<path style="fill:#FFFFFF;" d="M32.531,73.768c-1.65-1.65-0.15-6.09,3.53-11.7c-0.51-1.34-0.87-2.76-1.08-4.22
					c-8.762,11.183-13.373,21.301-11.587,26.163l9.803-9.803C32.941,74.101,32.718,73.955,32.531,73.768z"/>
			</g>
		</g>
		<g>
			<path style="fill:#F99134;" d="M54.757,35c-11.046,0-20,8.954-20,20c0,4.924,1.787,9.425,4.738,12.91l28.172-28.172
				C64.183,36.787,59.681,35,54.757,35z"/>
		</g>
	</g>
</g>
</svg>
