<?xml version="1.0" encoding="iso-8859-1"?>
<!-- Generator: Adobe Illustrator 17.1.0, SVG Export Plug-In . SVG Version: 6.00 Build 0)  -->
<!DOCTYPE svg PUBLIC "-//W3C//DTD SVG 1.0//EN" "http://www.w3.org/TR/2001/REC-SVG-20010904/DTD/svg10.dtd">
<svg version="1.0" xmlns="http://www.w3.org/2000/svg" xmlns:xlink="http://www.w3.org/1999/xlink" x="0px" y="0px" width="110px"
	 height="110px" viewBox="0 0 110 110" style="enable-background:new 0 0 110 110;" xml:space="preserve">
<g id="Artboard" style="display:none;">
	<rect x="-991" y="-583" style="display:inline;fill:#8C8C8C;" width="1412" height="743"/>
</g>
<g id="R-Multicolor">
	<circle style="fill:#32BEA6;" cx="55" cy="55" r="55"/>
	<g>
		<path style="fill:#84462D;" d="M33,25c0-1.105-0.895-2-2-2h-4c-1.105,0-2,0.895-2,2v60c0,1.105,0.895,2,2,2h4c1.105,0,2-0.895,2-2
			V25z"/>
		<path style="fill:#9C6144;" d="M29,23h-2c-1.104,0-2,0.896-2,2v60c0,1.104,0.896,2,2,2h2V23z"/>
		<path style="fill:#84462D;" d="M85,25c0-1.105-0.895-2-2-2h-4c-1.105,0-2,0.895-2,2v60c0,1.105,0.895,2,2,2h4c1.105,0,2-0.895,2-2
			V25z"/>
		<path style="fill:#9C6144;" d="M81,23h-2c-1.104,0-2,0.896-2,2v60c0,1.104,0.896,2,2,2h2V23z"/>
		<rect x="25" y="31" style="fill:#FFFFFF;" width="60" height="36"/>
		<g>
			<rect x="25" y="31" style="fill:#3E3E3F;" width="12" height="12"/>
			<rect x="49" y="31" style="fill:#3E3E3F;" width="12" height="12"/>
			<rect x="73" y="31" style="fill:#3E3E3F;" width="12" height="12"/>
			<rect x="37" y="43" style="fill:#3E3E3F;" width="12" height="12"/>
			<rect x="61" y="43" style="fill:#3E3E3F;" width="12" height="12"/>
			<rect x="25" y="55" style="fill:#3E3E3F;" width="12" height="12"/>
			<rect x="49" y="55" style="fill:#3E3E3F;" width="12" height="12"/>
			<rect x="73" y="55" style="fill:#3E3E3F;" width="12" height="12"/>
		</g>
	</g>
</g>
<g id="Multicolor" style="display:none;">
	<g style="display:inline;">
		<path style="fill:#84462D;" d="M33,25c0-1.105-0.895-2-2-2h-4c-1.105,0-2,0.895-2,2v60c0,1.105,0.895,2,2,2h4c1.105,0,2-0.895,2-2
			V25z"/>
		<path style="fill:#9C6144;" d="M29,23h-2c-1.104,0-2,0.896-2,2v60c0,1.104,0.896,2,2,2h2V23z"/>
		<path style="fill:#84462D;" d="M85,25c0-1.105-0.895-2-2-2h-4c-1.105,0-2,0.895-2,2v60c0,1.105,0.895,2,2,2h4c1.105,0,2-0.895,2-2
			V25z"/>
		<path style="fill:#9C6144;" d="M81,23h-2c-1.104,0-2,0.896-2,2v60c0,1.104,0.896,2,2,2h2V23z"/>
		<rect x="25" y="31" style="fill:#FFFFFF;" width="60" height="36"/>
		<g>
			<rect x="25" y="31" style="fill:#3E3E3F;" width="12" height="12"/>
			<rect x="49" y="31" style="fill:#3E3E3F;" width="12" height="12"/>
			<rect x="73" y="31" style="fill:#3E3E3F;" width="12" height="12"/>
			<rect x="37" y="43" style="fill:#3E3E3F;" width="12" height="12"/>
			<rect x="61" y="43" style="fill:#3E3E3F;" width="12" height="12"/>
			<rect x="25" y="55" style="fill:#3E3E3F;" width="12" height="12"/>
			<rect x="49" y="55" style="fill:#3E3E3F;" width="12" height="12"/>
			<rect x="73" y="55" style="fill:#3E3E3F;" width="12" height="12"/>
		</g>
	</g>
</g>
<g id="Blue" style="display:none;">
	<g style="display:inline;">
		<g>
			<path style="fill:#0F6175;" d="M33.003,25c0-1.104-0.896-2-2-2h-4c-1.104,0-2,0.896-2,2v60c0,1.105,0.896,2,2,2h4
				c1.104,0,2-0.895,2-2V25z"/>
		</g>
		<g>
			<path style="fill:#33899E;" d="M29.003,23h-2c-1.104,0-2,0.896-2,2v60c0,1.105,0.896,2,2,2h2V23z"/>
		</g>
		<g>
			<path style="fill:#0F6175;" d="M85.003,25c0-1.104-0.896-2-2-2h-4c-1.104,0-2,0.896-2,2v60c0,1.105,0.896,2,2,2h4
				c1.104,0,2-0.895,2-2V25z"/>
		</g>
		<g>
			<path style="fill:#33899E;" d="M81.003,23h-2c-1.104,0-2,0.896-2,2v60c0,1.105,0.896,2,2,2h2V23z"/>
		</g>
		<g>
			<rect x="25.003" y="31" style="fill:#FFFFFF;" width="60" height="36"/>
		</g>
		<g>
			<g>
				<rect x="25.003" y="31" style="fill:#0C333D;" width="12" height="12"/>
			</g>
			<g>
				<rect x="49.003" y="31" style="fill:#0C333D;" width="12" height="12"/>
			</g>
			<g>
				<rect x="73.003" y="31" style="fill:#0C333D;" width="12" height="12"/>
			</g>
			<g>
				<rect x="37.003" y="43" style="fill:#0C333D;" width="12" height="12"/>
			</g>
			<g>
				<rect x="61.003" y="43" style="fill:#0C333D;" width="12" height="12"/>
			</g>
			<g>
				<rect x="25.003" y="55" style="fill:#0C333D;" width="12" height="12"/>
			</g>
			<g>
				<rect x="49.003" y="55" style="fill:#0C333D;" width="12" height="12"/>
			</g>
			<g>
				<rect x="73.003" y="55" style="fill:#0C333D;" width="12" height="12"/>
			</g>
		</g>
	</g>
</g>
<g id="R-Blue" style="display:none;">
	<g style="display:inline;">
		<circle style="fill:#81D2EB;" cx="55" cy="55" r="55"/>
	</g>
	<g style="display:inline;">
		<g>
			<path style="fill:#0F6175;" d="M33,25c0-1.104-0.896-2-2-2h-4c-1.104,0-2,0.896-2,2v60c0,1.104,0.896,2,2,2h4
				c1.104,0,2-0.896,2-2V25z"/>
		</g>
		<g>
			<path style="fill:#33899E;" d="M29,23h-2c-1.104,0-2,0.896-2,2v60c0,1.104,0.896,2,2,2h2V23z"/>
		</g>
		<g>
			<path style="fill:#0F6175;" d="M85,25c0-1.104-0.896-2-2-2h-4c-1.104,0-2,0.896-2,2v60c0,1.104,0.896,2,2,2h4
				c1.104,0,2-0.896,2-2V25z"/>
		</g>
		<g>
			<path style="fill:#33899E;" d="M81,23h-2c-1.104,0-2,0.896-2,2v60c0,1.104,0.896,2,2,2h2V23z"/>
		</g>
		<g>
			<rect x="25" y="31" style="fill:#FFFFFF;" width="60" height="36"/>
		</g>
		<g>
			<g>
				<rect x="25" y="31" style="fill:#0C333D;" width="12" height="12"/>
			</g>
			<g>
				<rect x="49" y="31" style="fill:#0C333D;" width="12" height="12"/>
			</g>
			<g>
				<rect x="73" y="31" style="fill:#0C333D;" width="12" height="12"/>
			</g>
			<g>
				<rect x="37" y="43" style="fill:#0C333D;" width="12" height="12"/>
			</g>
			<g>
				<rect x="61" y="43" style="fill:#0C333D;" width="12" height="12"/>
			</g>
			<g>
				<rect x="25" y="55" style="fill:#0C333D;" width="12" height="12"/>
			</g>
			<g>
				<rect x="49" y="55" style="fill:#0C333D;" width="12" height="12"/>
			</g>
			<g>
				<rect x="73" y="55" style="fill:#0C333D;" width="12" height="12"/>
			</g>
		</g>
	</g>
</g>
<g id="Green" style="display:none;">
	<g style="display:inline;">
		<g>
			<path style="fill:#14635B;" d="M33.003,25c0-1.104-0.896-2-2-2h-4c-1.104,0-2,0.896-2,2v60c0,1.104,0.896,2,2,2h4
				c1.104,0,2-0.896,2-2V25z"/>
		</g>
		<g>
			<path style="fill:#3E948B;" d="M29.003,23h-2c-1.104,0-2,0.896-2,2v60c0,1.104,0.896,2,2,2h2V23z"/>
		</g>
		<g>
			<path style="fill:#14635B;" d="M85.003,25c0-1.104-0.896-2-2-2h-4c-1.104,0-2,0.896-2,2v60c0,1.104,0.896,2,2,2h4
				c1.104,0,2-0.896,2-2V25z"/>
		</g>
		<g>
			<path style="fill:#3E948B;" d="M81.003,23h-2c-1.104,0-2,0.896-2,2v60c0,1.104,0.896,2,2,2h2V23z"/>
		</g>
		<g>
			<rect x="25.003" y="31" style="fill:#FFFFFF;" width="60" height="36"/>
		</g>
		<g>
			<g>
				<rect x="25.003" y="31" style="fill:#0A3631;" width="12" height="12"/>
			</g>
			<g>
				<rect x="49.003" y="31" style="fill:#0A3631;" width="12" height="12"/>
			</g>
			<g>
				<rect x="73.003" y="31" style="fill:#0A3631;" width="12" height="12"/>
			</g>
			<g>
				<rect x="37.003" y="43" style="fill:#0A3631;" width="12" height="12"/>
			</g>
			<g>
				<rect x="61.003" y="43" style="fill:#0A3631;" width="12" height="12"/>
			</g>
			<g>
				<rect x="25.003" y="55" style="fill:#0A3631;" width="12" height="12"/>
			</g>
			<g>
				<rect x="49.003" y="55" style="fill:#0A3631;" width="12" height="12"/>
			</g>
			<g>
				<rect x="73.003" y="55" style="fill:#0A3631;" width="12" height="12"/>
			</g>
		</g>
	</g>
</g>
<g id="R-Green" style="display:none;">
	<g style="display:inline;">
		<circle style="fill:#87E0C8;" cx="55" cy="55" r="55"/>
	</g>
	<g style="display:inline;">
		<g>
			<path style="fill:#14635B;" d="M33,25c0-1.104-0.896-2-2-2h-4c-1.104,0-2,0.896-2,2v60c0,1.104,0.896,2,2,2h4
				c1.104,0,2-0.896,2-2V25z"/>
		</g>
		<g>
			<path style="fill:#3E948B;" d="M29,23h-2c-1.104,0-2,0.896-2,2v60c0,1.104,0.896,2,2,2h2V23z"/>
		</g>
		<g>
			<path style="fill:#14635B;" d="M85,25c0-1.104-0.896-2-2-2h-4c-1.104,0-2,0.896-2,2v60c0,1.104,0.896,2,2,2h4
				c1.104,0,2-0.896,2-2V25z"/>
		</g>
		<g>
			<path style="fill:#3E948B;" d="M81,23h-2c-1.104,0-2,0.896-2,2v60c0,1.104,0.896,2,2,2h2V23z"/>
		</g>
		<g>
			<rect x="25" y="31" style="fill:#FFFFFF;" width="60" height="36"/>
		</g>
		<g>
			<g>
				<rect x="25" y="31" style="fill:#0A3631;" width="12" height="12"/>
			</g>
			<g>
				<rect x="49" y="31" style="fill:#0A3631;" width="12" height="12"/>
			</g>
			<g>
				<rect x="73" y="31" style="fill:#0A3631;" width="12" height="12"/>
			</g>
			<g>
				<rect x="37" y="43" style="fill:#0A3631;" width="12" height="12"/>
			</g>
			<g>
				<rect x="61" y="43" style="fill:#0A3631;" width="12" height="12"/>
			</g>
			<g>
				<rect x="25" y="55" style="fill:#0A3631;" width="12" height="12"/>
			</g>
			<g>
				<rect x="49" y="55" style="fill:#0A3631;" width="12" height="12"/>
			</g>
			<g>
				<rect x="73" y="55" style="fill:#0A3631;" width="12" height="12"/>
			</g>
		</g>
	</g>
</g>
<g id="Red" style="display:none;">
	<g style="display:inline;">
		<g>
			<path style="fill:#7D261E;" d="M33,25c0-1.104-0.896-2-2-2h-4c-1.104,0-2,0.896-2,2v60c0,1.105,0.896,2,2,2h4
				c1.104,0,2-0.895,2-2V25z"/>
		</g>
		<g>
			<path style="fill:#B84E44;" d="M29,23h-2c-1.104,0-2,0.896-2,2v60c0,1.105,0.896,2,2,2h2V23z"/>
		</g>
		<g>
			<path style="fill:#7D261E;" d="M85,25c0-1.104-0.896-2-2-2h-4c-1.104,0-2,0.896-2,2v60c0,1.105,0.896,2,2,2h4
				c1.104,0,2-0.895,2-2V25z"/>
		</g>
		<g>
			<path style="fill:#B84E44;" d="M81,23h-2c-1.104,0-2,0.896-2,2v60c0,1.105,0.896,2,2,2h2V23z"/>
		</g>
		<g>
			<rect x="25" y="31" style="fill:#FFFFFF;" width="60" height="36"/>
		</g>
		<g>
			<g>
				<rect x="25" y="31" style="fill:#4A1410;" width="12" height="12"/>
			</g>
			<g>
				<rect x="49" y="31" style="fill:#4A1410;" width="12" height="12"/>
			</g>
			<g>
				<rect x="73" y="31" style="fill:#4A1410;" width="12" height="12"/>
			</g>
			<g>
				<rect x="37" y="43" style="fill:#4A1410;" width="12" height="12"/>
			</g>
			<g>
				<rect x="61" y="43" style="fill:#4A1410;" width="12" height="12"/>
			</g>
			<g>
				<rect x="25" y="55" style="fill:#4A1410;" width="12" height="12"/>
			</g>
			<g>
				<rect x="49" y="55" style="fill:#4A1410;" width="12" height="12"/>
			</g>
			<g>
				<rect x="73" y="55" style="fill:#4A1410;" width="12" height="12"/>
			</g>
		</g>
	</g>
</g>
<g id="R-Red" style="display:none;">
	<g style="display:inline;">
		<circle style="fill:#FABBAF;" cx="55" cy="55" r="55"/>
	</g>
	<g style="display:inline;">
		<g>
			<path style="fill:#7D261E;" d="M33,25c0-1.104-0.896-2-2-2h-4c-1.104,0-2,0.896-2,2v60c0,1.104,0.896,2,2,2h4
				c1.104,0,2-0.896,2-2V25z"/>
		</g>
		<g>
			<path style="fill:#B84E44;" d="M29,23h-2c-1.104,0-2,0.896-2,2v60c0,1.104,0.896,2,2,2h2V23z"/>
		</g>
		<g>
			<path style="fill:#7D261E;" d="M85,25c0-1.104-0.896-2-2-2h-4c-1.104,0-2,0.896-2,2v60c0,1.104,0.896,2,2,2h4
				c1.104,0,2-0.896,2-2V25z"/>
		</g>
		<g>
			<path style="fill:#B84E44;" d="M81,23h-2c-1.104,0-2,0.896-2,2v60c0,1.104,0.896,2,2,2h2V23z"/>
		</g>
		<g>
			<rect x="25" y="31" style="fill:#FFFFFF;" width="60" height="36"/>
		</g>
		<g>
			<g>
				<rect x="25" y="31" style="fill:#4A1410;" width="12" height="12"/>
			</g>
			<g>
				<rect x="49" y="31" style="fill:#4A1410;" width="12" height="12"/>
			</g>
			<g>
				<rect x="73" y="31" style="fill:#4A1410;" width="12" height="12"/>
			</g>
			<g>
				<rect x="37" y="43" style="fill:#4A1410;" width="12" height="12"/>
			</g>
			<g>
				<rect x="61" y="43" style="fill:#4A1410;" width="12" height="12"/>
			</g>
			<g>
				<rect x="25" y="55" style="fill:#4A1410;" width="12" height="12"/>
			</g>
			<g>
				<rect x="49" y="55" style="fill:#4A1410;" width="12" height="12"/>
			</g>
			<g>
				<rect x="73" y="55" style="fill:#4A1410;" width="12" height="12"/>
			</g>
		</g>
	</g>
</g>
<g id="Yellow" style="display:none;">
	<g style="display:inline;">
		<g>
			<path style="fill:#66510D;" d="M33.003,25c0-1.104-0.896-2-2-2h-4c-1.104,0-2,0.896-2,2v60c0,1.104,0.896,2,2,2h4
				c1.104,0,2-0.896,2-2V25z"/>
		</g>
		<g>
			<path style="fill:#947615;" d="M29.003,23h-2c-1.104,0-2,0.896-2,2v60c0,1.104,0.896,2,2,2h2V23z"/>
		</g>
		<g>
			<path style="fill:#66510D;" d="M85.003,25c0-1.104-0.896-2-2-2h-4c-1.104,0-2,0.896-2,2v60c0,1.104,0.896,2,2,2h4
				c1.104,0,2-0.896,2-2V25z"/>
		</g>
		<g>
			<path style="fill:#947615;" d="M81.003,23h-2c-1.104,0-2,0.896-2,2v60c0,1.104,0.896,2,2,2h2V23z"/>
		</g>
		<g>
			<rect x="25.003" y="31" style="fill:#FFFFFF;" width="60" height="36"/>
		</g>
		<g>
			<g>
				<rect x="25.003" y="31" style="fill:#3D320C;" width="12" height="12"/>
			</g>
			<g>
				<rect x="49.003" y="31" style="fill:#3D320C;" width="12" height="12"/>
			</g>
			<g>
				<rect x="73.003" y="31" style="fill:#3D320C;" width="12" height="12"/>
			</g>
			<g>
				<rect x="37.003" y="43" style="fill:#3D320C;" width="12" height="12"/>
			</g>
			<g>
				<rect x="61.003" y="43" style="fill:#3D320C;" width="12" height="12"/>
			</g>
			<g>
				<rect x="25.003" y="55" style="fill:#3D320C;" width="12" height="12"/>
			</g>
			<g>
				<rect x="49.003" y="55" style="fill:#3D320C;" width="12" height="12"/>
			</g>
			<g>
				<rect x="73.003" y="55" style="fill:#3D320C;" width="12" height="12"/>
			</g>
		</g>
	</g>
</g>
<g id="R-Yellow" style="display:none;">
	<g style="display:inline;">
		<circle style="fill:#FFD75E;" cx="55" cy="55" r="55"/>
	</g>
	<g style="display:inline;">
		<g>
			<path style="fill:#66510D;" d="M33,25c0-1.104-0.896-2-2-2h-4c-1.104,0-2,0.896-2,2v60c0,1.104,0.896,2,2,2h4
				c1.104,0,2-0.896,2-2V25z"/>
		</g>
		<g>
			<path style="fill:#947615;" d="M29,23h-2c-1.104,0-2,0.896-2,2v60c0,1.104,0.896,2,2,2h2V23z"/>
		</g>
		<g>
			<path style="fill:#66510D;" d="M85,25c0-1.104-0.896-2-2-2h-4c-1.104,0-2,0.896-2,2v60c0,1.104,0.896,2,2,2h4
				c1.104,0,2-0.896,2-2V25z"/>
		</g>
		<g>
			<path style="fill:#947615;" d="M81,23h-2c-1.104,0-2,0.896-2,2v60c0,1.104,0.896,2,2,2h2V23z"/>
		</g>
		<g>
			<rect x="25" y="31" style="fill:#FFFFFF;" width="60" height="36"/>
		</g>
		<g>
			<g>
				<rect x="25" y="31" style="fill:#3D320C;" width="12" height="12"/>
			</g>
			<g>
				<rect x="49" y="31" style="fill:#3D320C;" width="12" height="12"/>
			</g>
			<g>
				<rect x="73" y="31" style="fill:#3D320C;" width="12" height="12"/>
			</g>
			<g>
				<rect x="37" y="43" style="fill:#3D320C;" width="12" height="12"/>
			</g>
			<g>
				<rect x="61" y="43" style="fill:#3D320C;" width="12" height="12"/>
			</g>
			<g>
				<rect x="25" y="55" style="fill:#3D320C;" width="12" height="12"/>
			</g>
			<g>
				<rect x="49" y="55" style="fill:#3D320C;" width="12" height="12"/>
			</g>
			<g>
				<rect x="73" y="55" style="fill:#3D320C;" width="12" height="12"/>
			</g>
		</g>
	</g>
</g>
</svg>
