<?xml version="1.0" encoding="iso-8859-1"?>
<!-- Generator: Adobe Illustrator 17.1.0, SVG Export Plug-In . SVG Version: 6.00 Build 0)  -->
<!DOCTYPE svg PUBLIC "-//W3C//DTD SVG 1.0//EN" "http://www.w3.org/TR/2001/REC-SVG-20010904/DTD/svg10.dtd">
<svg version="1.0" xmlns="http://www.w3.org/2000/svg" xmlns:xlink="http://www.w3.org/1999/xlink" x="0px" y="0px" width="110px"
	 height="110px" viewBox="0 0 110 110" style="enable-background:new 0 0 110 110;" xml:space="preserve">
<g id="Artboard">
</g>
<g id="Multicolor">
	<circle style="fill:#E04F5F;" cx="55" cy="55" r="55"/>
	<g>
		<g>
			<path style="fill:#FACB1B;" d="M81.303,66.07L73,55l8.303-11.07C83.831,44.375,86,42.424,86,40c0-2.209-1.791-4-4-4
				c-1.862,0-3.413,1.278-3.859,3H63l-4.807-9.614C58.693,28.719,59,27.898,59,27c0-2.209-1.791-4-4-4s-4,1.791-4,4
				c0,0.898,0.307,1.719,0.807,2.386L47,39H31.859c-0.446-1.722-1.997-3-3.859-3c-2.209,0-4,1.791-4,4
				c0,2.42,2.165,4.376,4.697,3.93L37,55l-8.303,11.07C26.169,65.625,24,67.576,24,70c0,2.209,1.791,4,4,4
				c1.862,0,3.413-1.278,3.859-3H47l4.807,9.614C51.307,81.281,51,82.102,51,83c0,2.209,1.791,4,4,4s4-1.791,4-4
				c0-0.898-0.307-1.719-0.807-2.386L63,71h15.141c0.446,1.722,1.997,3,3.859,3c2.209,0,4-1.791,4-4
				C86,67.58,83.835,65.624,81.303,66.07z"/>
		</g>
		<g>
			<path style="fill:#FBE158;" d="M63,39l-4.807-9.614C58.693,28.719,59,27.898,59,27c0-2.209-1.791-4-4-4s-4,1.791-4,4
				c0,0.898,0.307,1.719,0.807,2.386L47,39H31.859c-0.446-1.722-1.997-3-3.859-3c-2.209,0-4,1.791-4,4
				c0,2.42,2.165,4.375,4.697,3.93L37,55l-8.303,11.07C26.169,65.625,24,67.576,24,70c0,2.209,1.791,4,4,4
				c1.862,0,3.413-1.278,3.859-3h7.119l32-32H63z"/>
		</g>
		<g>
			<circle style="fill:#FBE158;" cx="55" cy="55" r="14"/>
		</g>
		<g>
			<path style="fill:#FBEC9A;" d="M55,41c-7.732,0-14,6.268-14,14c0,3.86,1.563,7.355,4.09,9.888L64.888,45.09
				C62.355,42.563,58.86,41,55,41z"/>
		</g>
		<g>
			<circle style="fill:#F3B607;" cx="55" cy="55" r="11"/>
		</g>
		<g>
			<path style="fill:#FACB1B;" d="M55,44c-6.075,0-11,4.925-11,11c0,3.032,1.227,5.777,3.211,7.767l15.555-15.555
				C60.777,45.227,58.032,44,55,44z"/>
		</g>
	</g>
</g>
</svg>
