<?xml version="1.0" encoding="iso-8859-1"?>
<!-- Generator: Adobe Illustrator 17.1.0, SVG Export Plug-In . SVG Version: 6.00 Build 0)  -->
<!DOCTYPE svg PUBLIC "-//W3C//DTD SVG 1.0//EN" "http://www.w3.org/TR/2001/REC-SVG-20010904/DTD/svg10.dtd">
<svg version="1.0" xmlns="http://www.w3.org/2000/svg" xmlns:xlink="http://www.w3.org/1999/xlink" x="0px" y="0px" width="110px"
	 height="110px" viewBox="0 0 110 110" style="enable-background:new 0 0 110 110;" xml:space="preserve">
<g id="Artboard">
</g>
<g id="Multicolor">
	<circle style="fill:#FABC3D;" cx="55" cy="55" r="55"/>
	<g>
		<path style="fill:#3E3E3F;" d="M55,23c-17.673,0-32,14.327-32,32c0,17.673,14.327,32,32,32s32-14.327,32-32
			C87,37.327,72.673,23,55,23z M47.787,79.958c-9.596-2.77-16.9-10.901-18.457-20.953C36.475,56.836,50.89,59.551,47.787,79.958z
			 M31.001,54c0-0.829,0.672-1.5,1.5-1.5h1c0.828,0,1.5,0.671,1.5,1.5s-0.672,1.5-1.5,1.5h-1C31.672,55.5,31.001,54.829,31.001,54z
			 M37.001,54c0-0.829,0.672-1.5,1.5-1.5h1c0.828,0,1.5,0.671,1.5,1.5s-0.672,1.5-1.5,1.5h-1C37.672,55.5,37.001,54.829,37.001,54z
			 M46.235,46.154c-3.328,2.496-11.991,4.354-16.804,4.148C31.644,38.187,42.246,29,55,29c12.76,0,23.365,9.194,25.571,21.317
			c-4.777,0.253-13.443-1.641-16.807-4.164H46.235z M79.001,54c0,0.829-0.672,1.5-1.5,1.5h-1c-0.828,0-1.5-0.671-1.5-1.5
			s0.672-1.5,1.5-1.5h1C78.329,52.5,79.001,53.171,79.001,54z M73.003,54c0,0.829-0.672,1.5-1.5,1.5h-1c-0.828,0-1.5-0.671-1.5-1.5
			s0.672-1.5,1.5-1.5h1C72.332,52.5,73.003,53.171,73.003,54z M62.211,79.958C59.029,59.285,73.27,56.284,80.686,58.886
			C79.169,68.993,71.846,77.179,62.211,79.958z"/>
		<g>
			<path style="fill:#F0F1F1;" d="M64.957,61.729c-0.614,1.877-2.118,3.34-4.013,3.896c-4.063,1.194-8.127,1.165-12.19-0.087
				c-1.762-0.543-3.176-1.866-3.836-3.587c-1.279-3.331-2.157-7.062-2.194-12.41c-0.011-1.598,0.616-3.135,1.743-4.269
				s2.659-1.773,4.257-1.773h12.551c1.63,0,3.19,0.664,4.321,1.837c1.131,1.173,1.74,2.757,1.679,4.386
				C67.117,53.903,66.259,57.747,64.957,61.729z"/>
		</g>
		<g>
			<path style="fill:#FFFFFF;" d="M61.273,43.5H48.723c-1.598,0-3.131,0.639-4.257,1.773c-1.126,1.134-1.754,2.671-1.742,4.269
				c0.037,5.347,0.915,9.078,2.194,12.409c0.295,0.769,0.748,1.453,1.308,2.029L65.22,44.986C64.13,44.034,62.731,43.5,61.273,43.5z
				"/>
		</g>
		<g>
			<circle style="fill:#3E3E3F;" cx="55" cy="55" r="6"/>
		</g>
		<g>
			<path style="fill:#5B5C5F;" d="M55,49c-3.313,0-6,2.686-6,6c0,1.709,0.718,3.248,1.865,4.34l8.475-8.475
				C58.248,49.718,56.709,49,55,49z"/>
		</g>
		<g>
			<path style="fill:#5B5C5F;" d="M55,23c-17.673,0-32,14.327-32,32c0,8.967,3.693,17.067,9.634,22.877l4.243-4.243
				C32.021,68.911,29,62.31,29,55c0-14.359,11.641-26,26-26c7.31,0,13.911,3.021,18.634,7.877l4.243-4.243
				C72.067,26.692,63.967,23,55,23z"/>
		</g>
	</g>
</g>
</svg>
