<?xml version="1.0" encoding="iso-8859-1"?>
<!-- Generator: Adobe Illustrator 17.1.0, SVG Export Plug-In . SVG Version: 6.00 Build 0)  -->
<!DOCTYPE svg PUBLIC "-//W3C//DTD SVG 1.0//EN" "http://www.w3.org/TR/2001/REC-SVG-20010904/DTD/svg10.dtd">
<svg version="1.0" xmlns="http://www.w3.org/2000/svg" xmlns:xlink="http://www.w3.org/1999/xlink" x="0px" y="0px" width="110px"
	 height="110px" viewBox="0 0 110 110" style="enable-background:new 0 0 110 110;" xml:space="preserve">
<g id="Artboard">
</g>
<g id="Multicolor">
	<circle style="fill:#25B7D3;" cx="55" cy="55" r="55"/>
	<g>
		<g>
			<path style="fill:#3E3E3F;" d="M72.203,46.042c-1.242-0.671-2.279-1.666-3.016-2.865c-2.468,3.878-2.324,10.246-2.223,28.9
				c0.014,2.647-1.006,5.139-2.874,7.016C62.253,80.941,59.862,82,56.862,82C51.424,82,47,77.576,47,72.138V61.858
				c7.174-0.966,9.182-6.789,10.539-13.528c0.209-1.038-0.433-2.054-1.461-2.311l-0.039-0.01c-1.094-0.273-2.196,0.417-2.42,1.522
				C52.4,53.59,51.152,58,45,58c-6.227,0-7.333-4.356-8.611-10.48c-0.229-1.1-1.328-1.785-2.418-1.513l-0.039,0.01
				c-1.032,0.258-1.675,1.282-1.458,2.323C33.495,53.232,34.87,60.798,43,61.862v10.275C43,79.781,49.219,86,56.862,86
				c4.087,0,7.48-1.489,10.064-4.086c2.624-2.637,4.058-6.138,4.038-9.858C70.871,55.032,70.815,49.062,72.203,46.042z"/>
		</g>
		<g>
			<circle style="fill:#E2E4E5;" cx="76" cy="39" r="8"/>
		</g>
		<g>
			<path style="fill:#FFFFFF;" d="M81.68,33.374l-3.773,3.773c-0.466-0.507-1.16-0.814-1.907-0.814
				c-1.467,0-2.667,1.187-2.667,2.667c0,0.747,0.307,1.427,0.813,1.907l-3.773,3.773C68.907,43.226,68,41.213,68,39
				c0-4.426,3.587-8,8-8C78.227,31,80.24,31.907,81.68,33.374z"/>
		</g>
		<g>
			<circle style="fill:#3E3E3F;" cx="76" cy="39" r="2.667"/>
		</g>
		<g>
			<path style="fill:#F0F1F1;" d="M36,27.631v-2.322c-0.917,0.325-1.634,0.904-2.292,1.74c-3.744,4.749-1.405,16.743-0.782,19.587
				c0.257-0.293,0.6-0.517,1.006-0.618l0.039-0.01c0.289-0.072,0.577-0.073,0.851-0.021c-0.946-4.378-2.331-14.164,0.457-17.699
				C35.487,28.022,35.736,27.813,36,27.631z"/>
		</g>
		<g>
			<path style="fill:#3E3E3F;" d="M36,28c2.538,2.03,5,0.231,5-1.94c0-2.458-2.547-4.023-5-2.06V28z"/>
		</g>
		<g>
			<path style="fill:#F0F1F1;" d="M56.292,27.048c-0.659-0.835-1.375-1.415-2.292-1.74v2.322c0.264,0.182,0.513,0.391,0.722,0.656
				c2.787,3.534,1.393,13.332,0.447,17.707c0.28-0.056,0.575-0.058,0.871,0.016l0.039,0.01c0.402,0.101,0.741,0.319,0.997,0.607
				C57.702,43.769,60.033,31.792,56.292,27.048z"/>
		</g>
		<g>
			<path style="fill:#3E3E3F;" d="M54,28c-2.538,2.03-5,0.231-5-1.94c0-2.458,2.547-4.023,5-2.06V28z"/>
		</g>
	</g>
</g>
</svg>
