<?xml version="1.0" encoding="iso-8859-1"?>
<!-- Generator: Adobe Illustrator 17.1.0, SVG Export Plug-In . SVG Version: 6.00 Build 0)  -->
<!DOCTYPE svg PUBLIC "-//W3C//DTD SVG 1.0//EN" "http://www.w3.org/TR/2001/REC-SVG-20010904/DTD/svg10.dtd">
<svg version="1.0" xmlns="http://www.w3.org/2000/svg" xmlns:xlink="http://www.w3.org/1999/xlink" x="0px" y="0px" width="110px"
	 height="110px" viewBox="0 0 110 110" style="enable-background:new 0 0 110 110;" xml:space="preserve">
<g id="Artboard">
</g>
<g id="Multicolor">
	<circle style="fill:#FABC3D;" cx="55" cy="55" r="55"/>
	<g>
		<rect x="27" y="51" style="fill:#CFD3D4;" width="56" height="32"/>
		<rect x="50" y="55" style="fill:#3E3E3F;" width="29" height="28"/>
		<rect x="25" y="55" style="fill:#DF2C2C;" width="28" height="28"/>
		<path style="fill:#F0F1F1;" d="M87,87H23v-2c0-1.105,0.895-2,2-2h60c1.105,0,2,0.895,2,2V87z"/>
		<path style="fill:#F0F1F1;" d="M24,51c-0.43,0-0.813-0.275-0.949-0.684c-0.136-0.408,0.004-0.858,0.349-1.116l30.4-21.3
			c0.711-0.533,1.689-0.533,2.4,0l30.4,21.3c0.344,0.258,0.485,0.708,0.349,1.116C86.813,50.725,86.43,51,86,51H24z"/>
		<rect x="29" y="53" style="fill:#818284;" width="52" height="2"/>
		<rect x="55" y="75" style="fill:#F4D0A1;" width="12" height="8"/>
		<rect x="59" y="67" style="fill:#F4D0A1;" width="12" height="8"/>
		<rect x="67" y="75" style="fill:#F4D0A1;" width="12" height="8"/>
		<path style="fill:#FFFFFF;" d="M63.689,33.147L56.2,27.9c-0.711-0.533-1.689-0.533-2.4,0L23.4,49.2
			c-0.344,0.258-0.485,0.708-0.349,1.116C23.187,50.725,23.57,51,24,51h21.837L63.689,33.147z"/>
		<polygon style="fill:#F8E1C2;" points="55,75 55,83 56.036,83 64.036,75 		"/>
		<polygon style="fill:#F8E1C2;" points="70.647,67 59,67 59,75 62.648,75 		"/>
		<polygon style="fill:#F8E1C2;" points="78.647,75 67,75 67,83 70.648,83 		"/>
		<rect x="29" y="60" style="fill:#F79392;" width="2" height="20"/>
		<rect x="35" y="60" style="fill:#F79392;" width="2" height="20"/>
		<rect x="41" y="60" style="fill:#F79392;" width="2" height="20"/>
		<rect x="47" y="60" style="fill:#F79392;" width="2" height="20"/>
		<path style="fill:#DF2C2C;" d="M49.079,45.353c-0.216-0.156-0.372-0.396-0.372-0.708c0-0.479,0.396-0.887,0.875-0.887
			c0.216,0,0.36,0.06,0.504,0.168c0.516,0.372,1.007,0.54,1.595,0.54c0.78,0,1.355-0.42,1.355-1.164v-0.024
			c0-0.719-0.611-1.139-1.487-1.139c-0.707,0-1.02,0.216-1.271,0.216c-0.264,0-0.468-0.108-0.839-0.372
			c-0.252-0.18-0.36-0.432-0.336-0.744l0.168-2.843c0.024-0.443,0.372-0.792,0.815-0.792h3.646c0.444,0,0.815,0.372,0.815,0.815
			c0,0.444-0.372,0.804-0.815,0.804h-2.831l-0.096,1.451c0.336-0.084,0.636-0.144,1.104-0.144c1.655,0,2.938,0.792,2.938,2.687
			v0.024c0,1.775-1.283,2.902-3.13,2.902C50.555,46.144,49.751,45.832,49.079,45.353z"/>
		<path style="fill:#DF2C2C;" d="M56.843,44.669l3.119-5.469h-3.214c-0.444,0-0.804-0.348-0.804-0.792s0.36-0.804,0.804-0.804h4.558
			c0.516,0,0.839,0.3,0.839,0.828c0,0.276-0.108,0.612-0.264,0.899l-3.37,6.117c-0.24,0.444-0.528,0.624-0.888,0.624
			c-0.492,0-0.948-0.3-0.948-0.827C56.675,45.088,56.747,44.836,56.843,44.669z"/>
	</g>
</g>
</svg>
