<?xml version="1.0" encoding="iso-8859-1"?>
<!-- Generator: Adobe Illustrator 17.1.0, SVG Export Plug-In . SVG Version: 6.00 Build 0)  -->
<!DOCTYPE svg PUBLIC "-//W3C//DTD SVG 1.0//EN" "http://www.w3.org/TR/2001/REC-SVG-20010904/DTD/svg10.dtd">
<svg version="1.0" xmlns="http://www.w3.org/2000/svg" xmlns:xlink="http://www.w3.org/1999/xlink" x="0px" y="0px" width="110px"
	 height="110px" viewBox="0 0 110 110" style="enable-background:new 0 0 110 110;" xml:space="preserve">
<g id="Artboard" style="display:none;">
	
		<rect x="-1096.5" y="-1058.5" style="display:inline;fill:#808080;stroke:#000000;stroke-miterlimit:10;" width="1392" height="1369"/>
</g>
<g id="R-Multicolor">
	<circle style="fill:#E04F5F;" cx="55" cy="55" r="55"/>
	<g>
		<g>
			<path style="fill:#3E3E3F;" d="M23,43v40c0,2.209,1.791,4,4,4h56c2.209,0,4-1.791,4-4V43H23z"/>
		</g>
		<g>
			<path style="fill:#5B5C5F;" d="M83,27H27c-2.209,0-4,1.791-4,4v52c0,1.632,0.98,3.03,2.381,3.652l59.281-59.281
				C84.154,27.138,83.595,27,83,27z"/>
		</g>
		<g>
			<path style="fill:#F0F1F1;" d="M83,27H27c-2.209,0-4,1.791-4,4v12h64V31C87,28.791,85.209,27,83,27z"/>
		</g>
		<g>
			<rect x="31" y="57" style="fill:#40C9E7;" width="48" height="24"/>
		</g>
		<g>
			<path style="fill:#FFFFFF;" d="M27,27c-2.209,0-4,1.791-4,4v12h46.033l15.629-15.629C84.154,27.138,83.595,27,83,27H27z"/>
		</g>
		<g>
			<circle style="fill:#3E3E3F;" cx="79" cy="35" r="4"/>
		</g>
		<g>
			<path style="fill:#5B5C5F;" d="M79,31c-2.209,0-4,1.791-4,4c0,0.595,0.138,1.154,0.371,1.662l5.291-5.291
				C80.154,31.138,79.595,31,79,31z"/>
		</g>
		<g>
			<circle style="fill:#5B5C5F;" cx="31" cy="35" r="4"/>
		</g>
		<g>
			<rect x="39" y="31" style="fill:#40C9E7;" width="32" height="4"/>
		</g>
		<g>
			<circle style="fill:#FA5655;" cx="40" cy="40" r="1"/>
		</g>
		<g>
			<circle style="fill:#F37A10;" cx="44" cy="40" r="1"/>
		</g>
		<g>
			<path style="fill:#F0F1F1;" d="M81,50c0,1.1-0.9,2-2,2H31c-1.1,0-2-0.9-2-2l0,0c0-1.1,0.9-2,2-2h48C80.1,48,81,48.9,81,50L81,50z
				"/>
		</g>
		<g>
			<path style="fill:#FFFFFF;" d="M31,48c-1.1,0-2,0.9-2,2s0.9,2,2,2h29.033l4-4H31z"/>
		</g>
		<g>
			<path style="fill:#C7CBCC;" d="M80,36h-2v-5c0-0.552,0.448-1,1-1s1,0.448,1,1V36z"/>
		</g>
		<g>
			<path style="fill:#DADDDE;" d="M80,32.033V31c0-0.552-0.448-1-1-1s-1,0.448-1,1v3.033L80,32.033z"/>
		</g>
		<g>
			<path style="fill:#E9EAEB;" d="M32,34.642L30.532,36l-3.396-3.671c-0.375-0.405-0.35-1.038,0.055-1.413
				c0.195-0.18,0.453-0.276,0.718-0.265s0.515,0.125,0.695,0.32L32,34.642z"/>
		</g>
		<g>
			<polygon style="fill:#6CD5ED;" points="31,57 31,81 31.033,81 55.033,57 			"/>
		</g>
	</g>
</g>
<g id="Multicolor" style="display:none;">
	<g style="display:inline;">
		<g>
			<path style="fill:#3E3E3F;" d="M23,43v40c0,2.209,1.791,4,4,4h56c2.209,0,4-1.791,4-4V43H23z"/>
		</g>
		<g>
			<path style="fill:#5B5C5F;" d="M83,27H27c-2.209,0-4,1.791-4,4v52c0,1.632,0.98,3.03,2.381,3.652l59.281-59.281
				C84.154,27.138,83.595,27,83,27z"/>
		</g>
		<g>
			<path style="fill:#F0F1F1;" d="M83,27H27c-2.209,0-4,1.791-4,4v12h64V31C87,28.791,85.209,27,83,27z"/>
		</g>
		<g>
			<rect x="31" y="57" style="fill:#40C9E7;" width="48" height="24"/>
		</g>
		<g>
			<path style="fill:#FFFFFF;" d="M27,27c-2.209,0-4,1.791-4,4v12h46.033l15.629-15.629C84.154,27.138,83.595,27,83,27H27z"/>
		</g>
		<g>
			<circle style="fill:#3E3E3F;" cx="79" cy="35" r="4"/>
		</g>
		<g>
			<path style="fill:#5B5C5F;" d="M79,31c-2.209,0-4,1.791-4,4c0,0.595,0.138,1.154,0.371,1.662l5.291-5.291
				C80.154,31.138,79.595,31,79,31z"/>
		</g>
		<g>
			<circle style="fill:#5B5C5F;" cx="31" cy="35" r="4"/>
		</g>
		<g>
			<rect x="39" y="31" style="fill:#40C9E7;" width="32" height="4"/>
		</g>
		<g>
			<circle style="fill:#FA5655;" cx="40" cy="40" r="1"/>
		</g>
		<g>
			<circle style="fill:#F37A10;" cx="44" cy="40" r="1"/>
		</g>
		<g>
			<path style="fill:#F0F1F1;" d="M81,50c0,1.1-0.9,2-2,2H31c-1.1,0-2-0.9-2-2l0,0c0-1.1,0.9-2,2-2h48C80.1,48,81,48.9,81,50L81,50z
				"/>
		</g>
		<g>
			<path style="fill:#FFFFFF;" d="M31,48c-1.1,0-2,0.9-2,2s0.9,2,2,2h29.033l4-4H31z"/>
		</g>
		<g>
			<path style="fill:#C7CBCC;" d="M80,36h-2v-5c0-0.552,0.448-1,1-1s1,0.448,1,1V36z"/>
		</g>
		<g>
			<path style="fill:#DADDDE;" d="M80,32.033V31c0-0.552-0.448-1-1-1s-1,0.448-1,1v3.033L80,32.033z"/>
		</g>
		<g>
			<path style="fill:#E9EAEB;" d="M32,34.642L30.532,36l-3.396-3.671c-0.375-0.405-0.35-1.038,0.055-1.413
				c0.195-0.18,0.453-0.276,0.718-0.265s0.515,0.125,0.695,0.32L32,34.642z"/>
		</g>
		<g>
			<polygon style="fill:#6CD5ED;" points="31,57 31,81 31.033,81 55.033,57 			"/>
		</g>
	</g>
</g>
<g id="Blue" style="display:none;">
	<g style="display:inline;">
		<g>
			<path style="fill:#0C333D;" d="M23,43v40c0,2.21,1.791,4,4,4h56c2.209,0,4-1.79,4-4V43H23z"/>
		</g>
		<g>
			<path style="fill:#0F6175;" d="M83,27H27c-2.209,0-4,1.791-4,4v52c0,1.632,0.981,3.03,2.381,3.652l59.281-59.281
				C84.154,27.138,83.595,27,83,27z"/>
		</g>
		<g>
			<path style="fill:#E1F5FA;" d="M83,27H27c-2.209,0-4,1.791-4,4v12h64V31C87,28.791,85.209,27,83,27z"/>
		</g>
		<g>
			<rect x="31" y="57" style="fill:#53BAD4;" width="48" height="24"/>
		</g>
		<g>
			<path style="fill:#FFFFFF;" d="M27,27c-2.209,0-4,1.791-4,4v12h46.033l15.629-15.629C84.154,27.138,83.595,27,83,27H27z"/>
		</g>
		<g>
			<circle style="fill:#0C333D;" cx="79" cy="35" r="4"/>
		</g>
		<g>
			<path style="fill:#0F6175;" d="M79,31c-2.209,0-4,1.791-4,4c0,0.595,0.139,1.154,0.371,1.662l5.291-5.291
				C80.154,31.138,79.595,31,79,31z"/>
		</g>
		<g>
			<circle style="fill:#0F6175;" cx="31" cy="35" r="4"/>
		</g>
		<g>
			<rect x="39" y="31" style="fill:#00B7E5;" width="32" height="4"/>
		</g>
		<g>
			<circle style="fill:#00B7E5;" cx="40" cy="40" r="1"/>
		</g>
		<g>
			<circle style="fill:#00B7E5;" cx="44" cy="40" r="1"/>
		</g>
		<g>
			<path style="fill:#E1F5FA;" d="M81,50c0,1.1-0.9,2-2,2H31c-1.1,0-2-0.9-2-2l0,0c0-1.1,0.9-2,2-2h48C80.1,48,81,48.9,81,50L81,50z
				"/>
		</g>
		<g>
			<path style="fill:#FFFFFF;" d="M31,48c-1.1,0-2,0.9-2,2c0,1.1,0.9,2,2,2h29.033l4-4H31z"/>
		</g>
		<g>
			<path style="fill:#CAEDF5;" d="M80,36h-2v-5c0-0.552,0.447-1,1-1c0.553,0,1,0.448,1,1V36z"/>
		</g>
		<g>
			<path style="fill:#E8F7FB;" d="M80,32.033V31c0-0.552-0.447-1-1-1c-0.553,0-1,0.448-1,1v3.033L80,32.033z"/>
		</g>
		<g>
			<path style="fill:#CAEDF5;" d="M32,34.642L30.532,36l-3.396-3.671c-0.375-0.405-0.351-1.038,0.055-1.413
				c0.194-0.18,0.453-0.275,0.718-0.265c0.266,0.01,0.516,0.125,0.695,0.32L32,34.642z"/>
		</g>
		<g>
			<polygon style="fill:#7ACADE;" points="31,57 31,81 31.033,81 55.033,57 			"/>
		</g>
	</g>
</g>
<g id="R-Blue" style="display:none;">
	<circle style="display:inline;fill:#81D2EB;" cx="55" cy="55" r="55"/>
	<g style="display:inline;">
		<g>
			<path style="fill:#0C333D;" d="M23,43v40c0,2.209,1.791,4,4,4h56c2.209,0,4-1.791,4-4V43H23z"/>
		</g>
		<g>
			<path style="fill:#0F6175;" d="M83,27H27c-2.209,0-4,1.791-4,4v52c0,1.632,0.981,3.03,2.381,3.652l59.281-59.281
				C84.154,27.138,83.595,27,83,27z"/>
		</g>
		<g>
			<path style="fill:#E1F5FA;" d="M83,27H27c-2.209,0-4,1.791-4,4v12h64V31C87,28.791,85.209,27,83,27z"/>
		</g>
		<g>
			<rect x="31" y="57" style="fill:#53BAD4;" width="48" height="24"/>
		</g>
		<g>
			<path style="fill:#FFFFFF;" d="M27,27c-2.209,0-4,1.791-4,4v12h46.033l15.629-15.629C84.154,27.138,83.595,27,83,27H27z"/>
		</g>
		<g>
			<circle style="fill:#0C333D;" cx="79" cy="35" r="4"/>
		</g>
		<g>
			<path style="fill:#0F6175;" d="M79,31c-2.209,0-4,1.791-4,4c0,0.595,0.139,1.154,0.371,1.662l5.291-5.291
				C80.154,31.138,79.595,31,79,31z"/>
		</g>
		<g>
			<circle style="fill:#0F6175;" cx="31" cy="35" r="4"/>
		</g>
		<g>
			<rect x="39" y="31" style="fill:#00B7E5;" width="32" height="4"/>
		</g>
		<g>
			<circle style="fill:#00B7E5;" cx="40" cy="40" r="1"/>
		</g>
		<g>
			<circle style="fill:#00B7E5;" cx="44" cy="40" r="1"/>
		</g>
		<g>
			<path style="fill:#E1F5FA;" d="M81,50c0,1.1-0.9,2-2,2H31c-1.1,0-2-0.9-2-2l0,0c0-1.1,0.9-2,2-2h48C80.1,48,81,48.9,81,50L81,50z
				"/>
		</g>
		<g>
			<path style="fill:#FFFFFF;" d="M31,48c-1.1,0-2,0.9-2,2c0,1.1,0.9,2,2,2h29.033l4-4H31z"/>
		</g>
		<g>
			<path style="fill:#CAEDF5;" d="M80,36h-2v-5c0-0.552,0.447-1,1-1c0.553,0,1,0.448,1,1V36z"/>
		</g>
		<g>
			<path style="fill:#E8F7FB;" d="M80,32.033V31c0-0.552-0.447-1-1-1c-0.553,0-1,0.448-1,1v3.033L80,32.033z"/>
		</g>
		<g>
			<path style="fill:#CAEDF5;" d="M32,34.642L30.532,36l-3.396-3.671c-0.375-0.405-0.351-1.038,0.055-1.413
				c0.194-0.18,0.453-0.275,0.718-0.265c0.266,0.01,0.516,0.125,0.695,0.32L32,34.642z"/>
		</g>
		<g>
			<polygon style="fill:#7ACADE;" points="31,57 31,81 31.033,81 55.033,57 			"/>
		</g>
	</g>
</g>
<g id="Green" style="display:none;">
	<g style="display:inline;">
		<g>
			<path style="fill:#0A3631;" d="M23,43v40c0,2.21,1.791,4,4,4h56c2.209,0,4-1.79,4-4V43H23z"/>
		</g>
		<g>
			<path style="fill:#14635B;" d="M83,27H27c-2.209,0-4,1.791-4,4v52c0,1.632,0.981,3.03,2.381,3.652l59.281-59.281
				C84.154,27.138,83.595,27,83,27z"/>
		</g>
		<g>
			<path style="fill:#D7FCF9;" d="M83,27H27c-2.209,0-4,1.791-4,4v12h64V31C87,28.791,85.209,27,83,27z"/>
		</g>
		<g>
			<rect x="31" y="57" style="fill:#55C9BE;" width="48" height="24"/>
		</g>
		<g>
			<path style="fill:#FFFFFF;" d="M27,27c-2.209,0-4,1.791-4,4v12h46.033l15.629-15.629C84.154,27.138,83.595,27,83,27H27z"/>
		</g>
		<g>
			<circle style="fill:#0A3631;" cx="79" cy="35" r="4"/>
		</g>
		<g>
			<path style="fill:#14635B;" d="M79,31c-2.209,0-4,1.791-4,4c0,0.595,0.139,1.154,0.371,1.662l5.291-5.29
				C80.154,31.138,79.595,31,79,31z"/>
		</g>
		<g>
			<circle style="fill:#14635B;" cx="31" cy="35" r="4"/>
		</g>
		<g>
			<rect x="39" y="31" style="fill:#00D6C1;" width="32" height="4"/>
		</g>
		<g>
			<circle style="fill:#00D6C1;" cx="40" cy="40" r="1"/>
		</g>
		<g>
			<circle style="fill:#00D6C1;" cx="44" cy="40" r="1"/>
		</g>
		<g>
			<path style="fill:#D7FCF9;" d="M81,50c0,1.1-0.9,2-2,2H31c-1.1,0-2-0.9-2-2l0,0c0-1.1,0.9-2,2-2h48C80.1,48,81,48.9,81,50L81,50z
				"/>
		</g>
		<g>
			<path style="fill:#FFFFFF;" d="M31,48c-1.1,0-2,0.9-2,2s0.9,2,2,2h29.033l4-4H31z"/>
		</g>
		<g>
			<path style="fill:#BEF3EE;" d="M80,36h-2v-5c0-0.552,0.447-1,1-1c0.553,0,1,0.448,1,1V36z"/>
		</g>
		<g>
			<path style="fill:#E0FDFA;" d="M80,32.033V31c0-0.552-0.447-1-1-1c-0.553,0-1,0.448-1,1v3.033L80,32.033z"/>
		</g>
		<g>
			<path style="fill:#BEF3EE;" d="M32,34.642L30.532,36l-3.396-3.671c-0.375-0.405-0.351-1.038,0.055-1.413
				c0.194-0.18,0.453-0.275,0.718-0.265c0.266,0.01,0.516,0.125,0.695,0.32L32,34.642z"/>
		</g>
		<g>
			<polygon style="fill:#7CD6CD;" points="31,57 31,81 31.033,81 55.033,57 			"/>
		</g>
	</g>
</g>
<g id="R-Green" style="display:none;">
	<circle style="display:inline;fill:#77E0C4;" cx="55" cy="55" r="55"/>
	<g style="display:inline;">
		<g>
			<path style="fill:#0A3631;" d="M23,43v40c0,2.21,1.791,4,4,4h56c2.209,0,4-1.79,4-4V43H23z"/>
		</g>
		<g>
			<path style="fill:#14635B;" d="M83,27H27c-2.209,0-4,1.791-4,4v52c0,1.632,0.98,3.03,2.381,3.652l59.281-59.281
				C84.154,27.138,83.595,27,83,27z"/>
		</g>
		<g>
			<path style="fill:#D7FCF9;" d="M83,27H27c-2.209,0-4,1.791-4,4v12h64V31C87,28.791,85.209,27,83,27z"/>
		</g>
		<g>
			<rect x="31" y="57" style="fill:#55C9BE;" width="48" height="24"/>
		</g>
		<g>
			<path style="fill:#FFFFFF;" d="M27,27c-2.209,0-4,1.791-4,4v12h46.033l15.629-15.629C84.154,27.138,83.595,27,83,27H27z"/>
		</g>
		<g>
			<circle style="fill:#0A3631;" cx="79" cy="35" r="4"/>
		</g>
		<g>
			<path style="fill:#14635B;" d="M79,31c-2.209,0-4,1.791-4,4c0,0.595,0.139,1.154,0.371,1.662l5.291-5.291
				C80.154,31.138,79.595,31,79,31z"/>
		</g>
		<g>
			<circle style="fill:#14635B;" cx="31" cy="35" r="4"/>
		</g>
		<g>
			<rect x="39" y="31" style="fill:#00D6C1;" width="32" height="4"/>
		</g>
		<g>
			<circle style="fill:#00D6C1;" cx="40" cy="40" r="1"/>
		</g>
		<g>
			<circle style="fill:#00D6C1;" cx="44" cy="40" r="1"/>
		</g>
		<g>
			<path style="fill:#D7FCF9;" d="M81,50c0,1.1-0.9,2-2,2H31c-1.1,0-2-0.9-2-2l0,0c0-1.1,0.9-2,2-2h48C80.1,48,81,48.9,81,50L81,50z
				"/>
		</g>
		<g>
			<path style="fill:#FFFFFF;" d="M31,48c-1.1,0-2,0.9-2,2c0,1.1,0.9,2,2,2h29.033l4-4H31z"/>
		</g>
		<g>
			<path style="fill:#BEF3EE;" d="M80,36h-2v-5c0-0.552,0.447-1,1-1s1,0.448,1,1V36z"/>
		</g>
		<g>
			<path style="fill:#E0FDFA;" d="M80,32.033V31c0-0.552-0.447-1-1-1s-1,0.448-1,1v3.033L80,32.033z"/>
		</g>
		<g>
			<path style="fill:#BEF3EE;" d="M32,34.642L30.532,36l-3.396-3.671c-0.375-0.405-0.351-1.038,0.055-1.413
				c0.194-0.18,0.453-0.275,0.718-0.265c0.266,0.01,0.516,0.125,0.695,0.32L32,34.642z"/>
		</g>
		<g>
			<polygon style="fill:#7CD6CD;" points="31,57 31,81 31.033,81 55.033,57 			"/>
		</g>
	</g>
</g>
<g id="Red" style="display:none;">
	<g style="display:inline;">
		<g>
			<path style="fill:#4A1410;" d="M23,43v40c0,2.21,1.791,4,4,4h56c2.209,0,4-1.79,4-4V43H23z"/>
		</g>
		<g>
			<path style="fill:#7D261E;" d="M83,27H27c-2.209,0-4,1.791-4,4v52c0,1.632,0.98,3.03,2.381,3.652l59.281-59.281
				C84.154,27.138,83.595,27,83,27z"/>
		</g>
		<g>
			<path style="fill:#FFEFED;" d="M83,27H27c-2.209,0-4,1.791-4,4v12h64V31C87,28.791,85.209,27,83,27z"/>
		</g>
		<g>
			<rect x="31" y="57" style="fill:#E8A099;" width="48" height="24"/>
		</g>
		<g>
			<path style="fill:#FFFFFF;" d="M27,27c-2.209,0-4,1.791-4,4v12h46.033l15.629-15.629C84.154,27.138,83.595,27,83,27H27z"/>
		</g>
		<g>
			<circle style="fill:#4A1410;" cx="79" cy="35" r="4"/>
		</g>
		<g>
			<path style="fill:#7D261E;" d="M79,31c-2.209,0-4,1.791-4,4c0,0.595,0.139,1.154,0.371,1.662l5.291-5.29
				C80.154,31.138,79.595,31,79,31z"/>
		</g>
		<g>
			<circle style="fill:#7D261E;" cx="31" cy="35" r="4"/>
		</g>
		<g>
			<rect x="39" y="31" style="fill:#FF6C5E;" width="32" height="4"/>
		</g>
		<g>
			<circle style="fill:#FF6C5E;" cx="40" cy="40" r="1"/>
		</g>
		<g>
			<circle style="fill:#FF6C5E;" cx="44" cy="40" r="1"/>
		</g>
		<g>
			<path style="fill:#FFEFED;" d="M81,50c0,1.1-0.9,2-2,2H31c-1.1,0-2-0.9-2-2l0,0c0-1.1,0.9-2,2-2h48C80.1,48,81,48.9,81,50L81,50z
				"/>
		</g>
		<g>
			<path style="fill:#FFFFFF;" d="M31,48c-1.1,0-2,0.9-2,2s0.9,2,2,2h29.033l4-4H31z"/>
		</g>
		<g>
			<path style="fill:#FFE0DE;" d="M80,36h-2v-5c0-0.552,0.447-1,1-1c0.553,0,1,0.448,1,1V36z"/>
		</g>
		<g>
			<path style="fill:#FFF2F1;" d="M80,32.033V31c0-0.552-0.447-1-1-1c-0.553,0-1,0.448-1,1v3.033L80,32.033z"/>
		</g>
		<g>
			<path style="fill:#FFE0DE;" d="M32,34.642L30.532,36l-3.396-3.671c-0.375-0.405-0.351-1.038,0.055-1.413
				c0.194-0.18,0.453-0.275,0.718-0.265c0.266,0.01,0.516,0.125,0.695,0.32L32,34.642z"/>
		</g>
		<g>
			<polygon style="fill:#EDB6B1;" points="31,57 31,81 31.033,81 55.033,57 			"/>
		</g>
	</g>
</g>
<g id="R-Red" style="display:none;">
	<circle style="display:inline;fill:#FABBAF;" cx="55" cy="55" r="55"/>
	<g style="display:inline;">
		<g>
			<path style="fill:#4A1410;" d="M23,43v40c0,2.21,1.791,4,4,4h56c2.209,0,4-1.79,4-4V43H23z"/>
		</g>
		<g>
			<path style="fill:#7D261E;" d="M83,27H27c-2.209,0-4,1.791-4,4v52c0,1.632,0.98,3.03,2.381,3.652l59.281-59.281
				C84.154,27.138,83.595,27,83,27z"/>
		</g>
		<g>
			<path style="fill:#FFEFED;" d="M83,27H27c-2.209,0-4,1.791-4,4v12h64V31C87,28.791,85.209,27,83,27z"/>
		</g>
		<g>
			<rect x="31" y="57" style="fill:#E8A099;" width="48" height="24"/>
		</g>
		<g>
			<path style="fill:#FFFFFF;" d="M27,27c-2.209,0-4,1.791-4,4v12h46.033l15.629-15.629C84.154,27.138,83.595,27,83,27H27z"/>
		</g>
		<g>
			<circle style="fill:#4A1410;" cx="79" cy="35" r="4"/>
		</g>
		<g>
			<path style="fill:#7D261E;" d="M79,31c-2.209,0-4,1.791-4,4c0,0.595,0.139,1.154,0.371,1.662l5.291-5.29
				C80.154,31.138,79.595,31,79,31z"/>
		</g>
		<g>
			<circle style="fill:#7D261E;" cx="31" cy="35" r="4"/>
		</g>
		<g>
			<rect x="39" y="31" style="fill:#FF6C5E;" width="32" height="4"/>
		</g>
		<g>
			<circle style="fill:#FF6C5E;" cx="40" cy="40" r="1"/>
		</g>
		<g>
			<circle style="fill:#FF6C5E;" cx="44" cy="40" r="1"/>
		</g>
		<g>
			<path style="fill:#FFEFED;" d="M81,50c0,1.1-0.9,2-2,2H31c-1.1,0-2-0.9-2-2l0,0c0-1.1,0.9-2,2-2h48C80.1,48,81,48.9,81,50L81,50z
				"/>
		</g>
		<g>
			<path style="fill:#FFFFFF;" d="M31,48c-1.1,0-2,0.9-2,2s0.9,2,2,2h29.033l4-4H31z"/>
		</g>
		<g>
			<path style="fill:#FFE0DE;" d="M80,36h-2v-5c0-0.552,0.447-1,1-1c0.553,0,1,0.448,1,1V36z"/>
		</g>
		<g>
			<path style="fill:#FFF2F1;" d="M80,32.033V31c0-0.552-0.447-1-1-1c-0.553,0-1,0.448-1,1v3.033L80,32.033z"/>
		</g>
		<g>
			<path style="fill:#FFE0DE;" d="M32,34.642L30.532,36l-3.396-3.671c-0.375-0.405-0.351-1.038,0.055-1.413
				c0.194-0.18,0.453-0.275,0.718-0.265c0.266,0.01,0.516,0.125,0.695,0.32L32,34.642z"/>
		</g>
		<g>
			<polygon style="fill:#EDB6B1;" points="31,57 31,81 31.033,81 55.033,57 			"/>
		</g>
	</g>
</g>
<g id="Yellow" style="display:none;">
	<g style="display:inline;">
		<g>
			<path style="fill:#3D320C;" d="M23,43v40c0,2.21,1.791,4,4,4h56c2.209,0,4-1.79,4-4V43H23z"/>
		</g>
		<g>
			<path style="fill:#66510D;" d="M83,27H27c-2.209,0-4,1.791-4,4v52c0,1.632,0.98,3.03,2.381,3.652l59.281-59.281
				C84.154,27.138,83.595,27,83,27z"/>
		</g>
		<g>
			<path style="fill:#FFF5D9;" d="M83,27H27c-2.209,0-4,1.791-4,4v12h64V31C87,28.791,85.209,27,83,27z"/>
		</g>
		<g>
			<rect x="31" y="57" style="fill:#F5C43D;" width="48" height="24"/>
		</g>
		<g>
			<path style="fill:#FFFFFF;" d="M27,27c-2.209,0-4,1.791-4,4v12h46.033l15.629-15.629C84.154,27.138,83.595,27,83,27H27z"/>
		</g>
		<g>
			<circle style="fill:#3D320C;" cx="79" cy="35" r="4"/>
		</g>
		<g>
			<path style="fill:#66510D;" d="M79,31c-2.209,0-4,1.791-4,4c0,0.595,0.139,1.154,0.371,1.662l5.291-5.291
				C80.154,31.138,79.595,31,79,31z"/>
		</g>
		<g>
			<circle style="fill:#66510D;" cx="31" cy="35" r="4"/>
		</g>
		<g>
			<rect x="39" y="31" style="fill:#FFAA00;" width="32" height="4"/>
		</g>
		<g>
			<circle style="fill:#FFAA00;" cx="40" cy="40" r="1"/>
		</g>
		<g>
			<circle style="fill:#FFAA00;" cx="44" cy="40" r="1"/>
		</g>
		<g>
			<path style="fill:#FFF5D9;" d="M81,50c0,1.1-0.9,2-2,2H31c-1.1,0-2-0.9-2-2l0,0c0-1.1,0.9-2,2-2h48C80.1,48,81,48.9,81,50L81,50z
				"/>
		</g>
		<g>
			<path style="fill:#FFFFFF;" d="M31,48c-1.1,0-2,0.9-2,2c0,1.1,0.9,2,2,2h29.033l4-4H31z"/>
		</g>
		<g>
			<path style="fill:#FFEEB6;" d="M80,36h-2v-5c0-0.552,0.447-1,1-1s1,0.448,1,1V36z"/>
		</g>
		<g>
			<path style="fill:#FFF7E2;" d="M80,32.033V31c0-0.552-0.447-1-1-1s-1,0.448-1,1v3.033L80,32.033z"/>
		</g>
		<g>
			<path style="fill:#FFEEB6;" d="M32,34.642L30.532,36l-3.396-3.671c-0.375-0.405-0.351-1.038,0.055-1.413
				c0.194-0.18,0.453-0.275,0.718-0.265c0.266,0.01,0.516,0.125,0.695,0.32L32,34.642z"/>
		</g>
		<g>
			<polygon style="fill:#F7D16A;" points="31,57 31,81 31.033,81 55.033,57 			"/>
		</g>
	</g>
</g>
<g id="R-Yellow" style="display:none;">
	<circle style="display:inline;fill:#FFD75E;" cx="55" cy="55" r="55"/>
	<g style="display:inline;">
		<g>
			<path style="fill:#3D320C;" d="M23,43v40c0,2.21,1.791,4,4,4h56c2.209,0,4-1.79,4-4V43H23z"/>
		</g>
		<g>
			<path style="fill:#66510D;" d="M83,27H27c-2.209,0-4,1.791-4,4v52c0,1.632,0.981,3.03,2.381,3.652l59.281-59.281
				C84.154,27.138,83.595,27,83,27z"/>
		</g>
		<g>
			<path style="fill:#FFF5D9;" d="M83,27H27c-2.209,0-4,1.791-4,4v12h64V31C87,28.791,85.209,27,83,27z"/>
		</g>
		<g>
			<rect x="31" y="57" style="fill:#F5C43D;" width="48" height="24"/>
		</g>
		<g>
			<path style="fill:#FFFFFF;" d="M27,27c-2.209,0-4,1.791-4,4v12h46.033l15.629-15.629C84.154,27.138,83.595,27,83,27H27z"/>
		</g>
		<g>
			<circle style="fill:#3D320C;" cx="79" cy="35" r="4"/>
		</g>
		<g>
			<path style="fill:#66510D;" d="M79,31c-2.209,0-4,1.791-4,4c0,0.595,0.139,1.154,0.371,1.662l5.291-5.291
				C80.154,31.138,79.595,31,79,31z"/>
		</g>
		<g>
			<circle style="fill:#66510D;" cx="31" cy="35" r="4"/>
		</g>
		<g>
			<rect x="39" y="31" style="fill:#FFAA00;" width="32" height="4"/>
		</g>
		<g>
			<circle style="fill:#FFAA00;" cx="40" cy="40" r="1"/>
		</g>
		<g>
			<circle style="fill:#FFAA00;" cx="44" cy="40" r="1"/>
		</g>
		<g>
			<path style="fill:#FFF5D9;" d="M81,50c0,1.1-0.9,2-2,2H31c-1.1,0-2-0.9-2-2l0,0c0-1.1,0.9-2,2-2h48C80.1,48,81,48.9,81,50L81,50z
				"/>
		</g>
		<g>
			<path style="fill:#FFFFFF;" d="M31,48c-1.1,0-2,0.9-2,2c0,1.1,0.9,2,2,2h29.033l4-4H31z"/>
		</g>
		<g>
			<path style="fill:#FFEEB6;" d="M80,36h-2v-5c0-0.552,0.447-1,1-1c0.553,0,1,0.448,1,1V36z"/>
		</g>
		<g>
			<path style="fill:#FFF7E2;" d="M80,32.033V31c0-0.552-0.447-1-1-1c-0.553,0-1,0.448-1,1v3.033L80,32.033z"/>
		</g>
		<g>
			<path style="fill:#FFEEB6;" d="M32,34.642L30.532,36l-3.396-3.671c-0.375-0.405-0.351-1.038,0.055-1.413
				c0.194-0.18,0.453-0.275,0.718-0.265c0.266,0.01,0.516,0.125,0.695,0.32L32,34.642z"/>
		</g>
		<g>
			<polygon style="fill:#F7D16A;" points="31,57 31,81 31.033,81 55.033,57 			"/>
		</g>
	</g>
</g>
</svg>
