<?xml version="1.0" encoding="iso-8859-1"?>
<!-- Generator: Adobe Illustrator 17.1.0, SVG Export Plug-In . SVG Version: 6.00 Build 0)  -->
<!DOCTYPE svg PUBLIC "-//W3C//DTD SVG 1.0//EN" "http://www.w3.org/TR/2001/REC-SVG-20010904/DTD/svg10.dtd">
<svg version="1.0" xmlns="http://www.w3.org/2000/svg" xmlns:xlink="http://www.w3.org/1999/xlink" x="0px" y="0px" width="110px"
	 height="110px" viewBox="0 0 110 110" style="enable-background:new 0 0 110 110;" xml:space="preserve">
<g id="Artboard" style="display:none;">
	
		<rect x="-1224.5" y="-546.5" style="display:inline;fill:#808080;stroke:#000000;stroke-miterlimit:10;" width="1392" height="1369"/>
</g>
<g id="R-Multicolor">
	<circle style="fill:#32BEA6;" cx="55" cy="55" r="55"/>
	<g>
		<g>
			<path style="fill:#DF2C2C;" d="M82,52c0,14.912-16,35-27,35S28,66.912,28,52s12.088-17,27-17S82,37.088,82,52z"/>
		</g>
		<g>
			<path style="fill:#0C7367;" d="M55,35c5.975,0,11.494,0.338,15.967,1.699c1.658-2.743,2.286-6.094,1.94-9.689
				c-4.95-0.152-9.616,1.477-12.505,5.443c-0.445-3.542-2.394-6.786-5.402-9.435c-3.092,2.723-5.052,6.079-5.422,9.736
				c-2.877-4.195-7.612-5.9-12.699-5.744c-0.348,3.618,0.291,6.989,1.974,9.742C43.356,35.344,48.945,35,55,35z"/>
		</g>
		<g>
			<path style="fill:#099686;" d="M49.578,32.754c-2.877-4.194-7.612-5.9-12.699-5.744c-0.348,3.618,0.291,6.989,1.974,9.742
				C43.356,35.345,48.945,35,55,35V23.018C51.908,25.741,49.948,29.097,49.578,32.754z"/>
		</g>
		<g>
			<path style="fill:#FA5655;" d="M28,52c0,14.912,16,35,27,35V35C40.088,35,28,37.088,28,52z"/>
		</g>
		<g>
			<path style="fill:#EBEBEC;" d="M68,49.333c0-1.565,1.269-2.833,2.833-2.833c1.565,0,2.833,1.269,2.833,2.833
				c0,1.565-2.833,5.667-2.833,5.667S68,50.898,68,49.333z"/>
		</g>
		<g>
			<path style="fill:#EBEBEC;" d="M64,63.833C64,62.269,65.269,61,66.833,61c1.565,0,2.833,1.269,2.833,2.833
				c0,1.565-2.833,5.667-2.833,5.667S64,65.398,64,63.833z"/>
		</g>
		<g>
			<path style="fill:#EBEBEC;" d="M40,63.833C40,62.269,41.269,61,42.833,61c1.565,0,2.833,1.269,2.833,2.833
				c0,1.565-2.833,5.667-2.833,5.667S40,65.398,40,63.833z"/>
		</g>
		<g>
			<path style="fill:#EBEBEC;" d="M52.167,59.333c0-1.565,1.269-2.833,2.833-2.833s2.833,1.269,2.833,2.833
				C57.833,60.898,55,65,55,65S52.167,60.898,52.167,59.333z"/>
		</g>
		<g>
			<path style="fill:#FFFFFF;" d="M52.167,45.333c0-1.565,1.269-2.833,2.833-2.833s2.833,1.269,2.833,2.833
				C57.833,46.898,55,51,55,51S52.167,46.898,52.167,45.333z"/>
		</g>
		<g>
			<path style="fill:#FFFFFF;" d="M36.333,49.333c0-1.565,1.269-2.833,2.833-2.833c1.565,0,2.833,1.269,2.833,2.833
				C42,50.898,39.167,55,39.167,55S36.333,50.898,36.333,49.333z"/>
		</g>
		<g>
			<path style="fill:#EBEBEC;" d="M52.167,74.833C52.167,73.269,53.435,72,55,72s2.833,1.269,2.833,2.833
				C57.833,76.398,55,80.5,55,80.5S52.167,76.398,52.167,74.833z"/>
		</g>
	</g>
</g>
<g id="Multicolor" style="display:none;">
	<g style="display:inline;">
		<g>
			<path style="fill:#DF2C2C;" d="M82,52c0,14.912-16,35-27,35S28,66.912,28,52s12.088-17,27-17S82,37.088,82,52z"/>
		</g>
		<g>
			<path style="fill:#0C7367;" d="M55,35c5.975,0,11.494,0.338,15.967,1.699c1.658-2.743,2.286-6.094,1.94-9.689
				c-4.95-0.152-9.616,1.477-12.505,5.443c-0.445-3.542-2.394-6.786-5.402-9.435c-3.092,2.723-5.052,6.079-5.422,9.736
				c-2.877-4.195-7.612-5.9-12.699-5.744c-0.348,3.618,0.291,6.989,1.974,9.742C43.356,35.344,48.945,35,55,35z"/>
		</g>
		<g>
			<path style="fill:#099686;" d="M49.578,32.754c-2.877-4.194-7.612-5.9-12.699-5.744c-0.348,3.618,0.291,6.989,1.974,9.742
				C43.356,35.345,48.945,35,55,35V23.018C51.908,25.741,49.948,29.097,49.578,32.754z"/>
		</g>
		<g>
			<path style="fill:#FA5655;" d="M28,52c0,14.912,16,35,27,35V35C40.088,35,28,37.088,28,52z"/>
		</g>
		<g>
			<path style="fill:#EBEBEC;" d="M68,49.333c0-1.565,1.269-2.833,2.833-2.833c1.565,0,2.833,1.269,2.833,2.833
				c0,1.565-2.833,5.667-2.833,5.667S68,50.898,68,49.333z"/>
		</g>
		<g>
			<path style="fill:#EBEBEC;" d="M64,63.833C64,62.269,65.269,61,66.833,61c1.565,0,2.833,1.269,2.833,2.833
				c0,1.565-2.833,5.667-2.833,5.667S64,65.398,64,63.833z"/>
		</g>
		<g>
			<path style="fill:#EBEBEC;" d="M40,63.833C40,62.269,41.269,61,42.833,61c1.565,0,2.833,1.269,2.833,2.833
				c0,1.565-2.833,5.667-2.833,5.667S40,65.398,40,63.833z"/>
		</g>
		<g>
			<path style="fill:#EBEBEC;" d="M52.167,59.333c0-1.565,1.269-2.833,2.833-2.833s2.833,1.269,2.833,2.833
				C57.833,60.898,55,65,55,65S52.167,60.898,52.167,59.333z"/>
		</g>
		<g>
			<path style="fill:#FFFFFF;" d="M52.167,45.333c0-1.565,1.269-2.833,2.833-2.833s2.833,1.269,2.833,2.833
				C57.833,46.898,55,51,55,51S52.167,46.898,52.167,45.333z"/>
		</g>
		<g>
			<path style="fill:#FFFFFF;" d="M36.333,49.333c0-1.565,1.269-2.833,2.833-2.833c1.565,0,2.833,1.269,2.833,2.833
				C42,50.898,39.167,55,39.167,55S36.333,50.898,36.333,49.333z"/>
		</g>
		<g>
			<path style="fill:#EBEBEC;" d="M52.167,74.833C52.167,73.269,53.435,72,55,72s2.833,1.269,2.833,2.833
				C57.833,76.398,55,80.5,55,80.5S52.167,76.398,52.167,74.833z"/>
		</g>
	</g>
</g>
<g id="Blue" style="display:none;">
	<g style="display:inline;">
		<g>
			<path style="fill:#0081A1;" d="M82,52c0,14.912-16,35-27,35S28,66.912,28,52s12.088-17,27-17S82,37.088,82,52z"/>
		</g>
		<g>
			<path style="fill:#BBE7F2;" d="M55,35c5.975,0,11.494,0.338,15.967,1.699c1.658-2.743,2.286-6.094,1.939-9.689
				c-4.949-0.151-9.615,1.477-12.505,5.443c-0.445-3.542-2.394-6.786-5.401-9.435c-3.092,2.723-5.052,6.079-5.422,9.736
				c-2.877-4.195-7.613-5.901-12.699-5.745c-0.348,3.618,0.291,6.989,1.974,9.742C43.356,35.345,48.945,35,55,35z"/>
		</g>
		<g>
			<path style="fill:#E1F5FA;" d="M49.578,32.754c-2.877-4.194-7.613-5.9-12.699-5.744c-0.348,3.618,0.291,6.989,1.974,9.742
				C43.356,35.345,48.945,35,55,35V23.018C51.908,25.741,49.948,29.097,49.578,32.754z"/>
		</g>
		<g>
			<path style="fill:#009FC7;" d="M28,52c0,14.912,16,35,27,35V35C40.088,35,28,37.088,28,52z"/>
		</g>
		<g>
			<path style="fill:#E1F5FA;" d="M68,49.333c0-1.565,1.269-2.833,2.833-2.833c1.565,0,2.834,1.269,2.834,2.833S70.833,55,70.833,55
				S68,50.898,68,49.333z"/>
		</g>
		<g>
			<path style="fill:#E1F5FA;" d="M64,63.833C64,62.269,65.269,61,66.833,61c1.565,0,2.834,1.269,2.834,2.833
				S66.833,69.5,66.833,69.5S64,65.398,64,63.833z"/>
		</g>
		<g>
			<path style="fill:#E1F5FA;" d="M40,63.833C40,62.269,41.269,61,42.833,61c1.565,0,2.834,1.269,2.834,2.833
				S42.833,69.5,42.833,69.5S40,65.398,40,63.833z"/>
		</g>
		<g>
			<path style="fill:#E1F5FA;" d="M52.167,59.333c0-1.565,1.269-2.833,2.833-2.833s2.833,1.269,2.833,2.833S55,65,55,65
				S52.167,60.898,52.167,59.333z"/>
		</g>
		<g>
			<path style="fill:#E1F5FA;" d="M52.167,45.333c0-1.565,1.269-2.833,2.833-2.833s2.833,1.269,2.833,2.833S55,51,55,51
				S52.167,46.898,52.167,45.333z"/>
		</g>
		<g>
			<path style="fill:#E1F5FA;" d="M36.333,49.333c0-1.565,1.269-2.833,2.834-2.833c1.564,0,2.833,1.269,2.833,2.833
				S39.167,55,39.167,55S36.333,50.898,36.333,49.333z"/>
		</g>
		<g>
			<path style="fill:#E1F5FA;" d="M52.167,74.834C52.167,73.269,53.436,72,55,72s2.833,1.269,2.833,2.834
				C57.833,76.398,55,80.5,55,80.5S52.167,76.398,52.167,74.834z"/>
		</g>
	</g>
</g>
<g id="R-Blue" style="display:none;">
	<circle style="display:inline;fill:#81D2EB;" cx="55" cy="55" r="55"/>
	<g style="display:inline;">
		<g>
			<path style="fill:#0081A1;" d="M82,52c0,14.912-16,35-27,35S28,66.912,28,52s12.088-17,27-17S82,37.088,82,52z"/>
		</g>
		<g>
			<path style="fill:#BBE7F2;" d="M55,35c5.975,0,11.494,0.338,15.967,1.699c1.658-2.743,2.286-6.094,1.939-9.689
				c-4.949-0.151-9.615,1.477-12.505,5.443c-0.445-3.542-2.394-6.786-5.401-9.435c-3.092,2.723-5.052,6.079-5.422,9.736
				c-2.877-4.195-7.613-5.901-12.699-5.745c-0.348,3.618,0.291,6.989,1.974,9.742C43.356,35.345,48.945,35,55,35z"/>
		</g>
		<g>
			<path style="fill:#E1F5FA;" d="M49.578,32.754c-2.877-4.194-7.613-5.9-12.699-5.744c-0.348,3.618,0.291,6.989,1.974,9.742
				C43.356,35.345,48.945,35,55,35V23.018C51.908,25.741,49.948,29.097,49.578,32.754z"/>
		</g>
		<g>
			<path style="fill:#009FC7;" d="M28,52c0,14.912,16,35,27,35V35C40.088,35,28,37.088,28,52z"/>
		</g>
		<g>
			<path style="fill:#E1F5FA;" d="M68,49.333c0-1.565,1.269-2.833,2.833-2.833c1.565,0,2.834,1.269,2.834,2.833S70.833,55,70.833,55
				S68,50.898,68,49.333z"/>
		</g>
		<g>
			<path style="fill:#E1F5FA;" d="M64,63.833C64,62.269,65.269,61,66.833,61c1.565,0,2.834,1.269,2.834,2.833
				c0,1.565-2.834,5.667-2.834,5.667S64,65.398,64,63.833z"/>
		</g>
		<g>
			<path style="fill:#E1F5FA;" d="M40,63.833C40,62.269,41.269,61,42.833,61c1.565,0,2.834,1.269,2.834,2.833
				c0,1.565-2.834,5.667-2.834,5.667S40,65.398,40,63.833z"/>
		</g>
		<g>
			<path style="fill:#E1F5FA;" d="M52.167,59.333c0-1.565,1.269-2.833,2.833-2.833s2.833,1.269,2.833,2.833S55,65,55,65
				S52.167,60.898,52.167,59.333z"/>
		</g>
		<g>
			<path style="fill:#E1F5FA;" d="M52.167,45.333c0-1.565,1.269-2.833,2.833-2.833s2.833,1.269,2.833,2.833S55,51,55,51
				S52.167,46.898,52.167,45.333z"/>
		</g>
		<g>
			<path style="fill:#E1F5FA;" d="M36.333,49.333c0-1.565,1.269-2.833,2.834-2.833c1.564,0,2.833,1.269,2.833,2.833
				S39.167,55,39.167,55S36.333,50.898,36.333,49.333z"/>
		</g>
		<g>
			<path style="fill:#E1F5FA;" d="M52.167,74.833C52.167,73.269,53.436,72,55,72s2.833,1.269,2.833,2.833
				C57.833,76.398,55,80.5,55,80.5S52.167,76.398,52.167,74.833z"/>
		</g>
	</g>
</g>
<g id="Green" style="display:none;">
	<g style="display:inline;">
		<g>
			<path style="fill:#009687;" d="M82,52c0,14.912-16,35-27,35S28,66.912,28,52s12.088-17,27-17S82,37.088,82,52z"/>
		</g>
		<g>
			<path style="fill:#AAF0E9;" d="M55,35c5.975,0,11.494,0.338,15.967,1.699c1.658-2.743,2.286-6.094,1.939-9.689
				c-4.949-0.151-9.615,1.477-12.505,5.443c-0.445-3.541-2.394-6.786-5.401-9.435c-3.092,2.723-5.052,6.079-5.422,9.736
				c-2.877-4.195-7.613-5.901-12.699-5.745c-0.348,3.618,0.291,6.989,1.974,9.742C43.356,35.345,48.945,35,55,35z"/>
		</g>
		<g>
			<path style="fill:#D7FCF9;" d="M49.578,32.754c-2.877-4.194-7.613-5.9-12.699-5.744c-0.348,3.618,0.291,6.989,1.974,9.742
				C43.356,35.345,48.945,35,55,35V23.018C51.908,25.741,49.948,29.097,49.578,32.754z"/>
		</g>
		<g>
			<path style="fill:#00B8A5;" d="M28,52c0,14.912,16,35,27,35V35C40.088,35,28,37.088,28,52z"/>
		</g>
		<g>
			<path style="fill:#D7FCF9;" d="M68,49.333c0-1.565,1.269-2.833,2.833-2.833c1.565,0,2.834,1.269,2.834,2.833S70.833,55,70.833,55
				S68,50.898,68,49.333z"/>
		</g>
		<g>
			<path style="fill:#D7FCF9;" d="M64,63.833C64,62.269,65.269,61,66.833,61c1.565,0,2.834,1.269,2.834,2.833
				S66.833,69.5,66.833,69.5S64,65.398,64,63.833z"/>
		</g>
		<g>
			<path style="fill:#D7FCF9;" d="M40,63.833C40,62.269,41.269,61,42.833,61c1.565,0,2.834,1.269,2.834,2.833
				S42.833,69.5,42.833,69.5S40,65.398,40,63.833z"/>
		</g>
		<g>
			<path style="fill:#D7FCF9;" d="M52.167,59.333c0-1.565,1.269-2.833,2.833-2.833s2.833,1.269,2.833,2.833S55,65,55,65
				S52.167,60.898,52.167,59.333z"/>
		</g>
		<g>
			<path style="fill:#D7FCF9;" d="M52.167,45.333c0-1.565,1.269-2.833,2.833-2.833s2.833,1.269,2.833,2.833S55,51,55,51
				S52.167,46.898,52.167,45.333z"/>
		</g>
		<g>
			<path style="fill:#D7FCF9;" d="M36.333,49.333c0-1.565,1.269-2.833,2.834-2.833c1.564,0,2.833,1.269,2.833,2.833
				S39.167,55,39.167,55S36.333,50.898,36.333,49.333z"/>
		</g>
		<g>
			<path style="fill:#D7FCF9;" d="M52.167,74.834C52.167,73.269,53.435,72,55,72s2.833,1.269,2.833,2.834
				C57.833,76.398,55,80.5,55,80.5S52.167,76.398,52.167,74.834z"/>
		</g>
	</g>
</g>
<g id="R-Green" style="display:none;">
	<circle style="display:inline;fill:#77E0C4;" cx="55" cy="55" r="55"/>
	<g style="display:inline;">
		<g>
			<path style="fill:#009687;" d="M82,52c0,14.912-16,35-27,35S28,66.912,28,52s12.088-17,27-17S82,37.088,82,52z"/>
		</g>
		<g>
			<path style="fill:#AAF0E9;" d="M55,35c5.975,0,11.494,0.338,15.967,1.699c1.658-2.743,2.286-6.094,1.939-9.689
				c-4.949-0.151-9.615,1.477-12.505,5.443c-0.445-3.542-2.394-6.786-5.401-9.435c-3.092,2.723-5.052,6.079-5.422,9.736
				c-2.877-4.195-7.613-5.901-12.699-5.745c-0.348,3.618,0.291,6.989,1.974,9.742C43.356,35.345,48.945,35,55,35z"/>
		</g>
		<g>
			<path style="fill:#D7FCF9;" d="M49.578,32.754c-2.877-4.194-7.613-5.9-12.699-5.744c-0.348,3.618,0.291,6.989,1.974,9.742
				C43.356,35.345,48.945,35,55,35V23.018C51.908,25.741,49.948,29.097,49.578,32.754z"/>
		</g>
		<g>
			<path style="fill:#00B8A5;" d="M28,52c0,14.912,16,35,27,35V35C40.088,35,28,37.088,28,52z"/>
		</g>
		<g>
			<path style="fill:#D7FCF9;" d="M68,49.333c0-1.565,1.269-2.833,2.833-2.833c1.565,0,2.834,1.269,2.834,2.833S70.833,55,70.833,55
				S68,50.898,68,49.333z"/>
		</g>
		<g>
			<path style="fill:#D7FCF9;" d="M64,63.833C64,62.269,65.269,61,66.833,61c1.565,0,2.834,1.269,2.834,2.833
				S66.833,69.5,66.833,69.5S64,65.398,64,63.833z"/>
		</g>
		<g>
			<path style="fill:#D7FCF9;" d="M40,63.833C40,62.269,41.269,61,42.833,61c1.565,0,2.834,1.269,2.834,2.833
				S42.833,69.5,42.833,69.5S40,65.398,40,63.833z"/>
		</g>
		<g>
			<path style="fill:#D7FCF9;" d="M52.167,59.333c0-1.565,1.269-2.833,2.833-2.833s2.833,1.269,2.833,2.833S55,65,55,65
				S52.167,60.898,52.167,59.333z"/>
		</g>
		<g>
			<path style="fill:#D7FCF9;" d="M52.167,45.333c0-1.565,1.269-2.833,2.833-2.833s2.833,1.269,2.833,2.833S55,51,55,51
				S52.167,46.898,52.167,45.333z"/>
		</g>
		<g>
			<path style="fill:#D7FCF9;" d="M36.333,49.333c0-1.565,1.269-2.833,2.834-2.833c1.564,0,2.833,1.269,2.833,2.833
				S39.167,55,39.167,55S36.333,50.898,36.333,49.333z"/>
		</g>
		<g>
			<path style="fill:#D7FCF9;" d="M52.167,74.834C52.167,73.269,53.436,72,55,72s2.833,1.269,2.833,2.834
				C57.833,76.398,55,80.5,55,80.5S52.167,76.398,52.167,74.834z"/>
		</g>
	</g>
</g>
<g id="Red" style="display:none;">
	<g style="display:inline;">
		<g>
			<path style="fill:#C23023;" d="M82,52c0,14.912-16,35-27,35S28,66.912,28,52s12.088-17,27-17S82,37.088,82,52z"/>
		</g>
		<g>
			<path style="fill:#FFD7D4;" d="M55,35c5.975,0,11.494,0.338,15.967,1.699c1.658-2.743,2.286-6.094,1.939-9.689
				c-4.949-0.151-9.615,1.477-12.505,5.443c-0.445-3.541-2.394-6.786-5.401-9.435c-3.092,2.723-5.052,6.079-5.422,9.736
				c-2.877-4.195-7.613-5.901-12.699-5.745c-0.348,3.618,0.291,6.989,1.974,9.742C43.356,35.345,48.945,35,55,35z"/>
		</g>
		<g>
			<path style="fill:#FFEFED;" d="M49.578,32.754c-2.877-4.194-7.613-5.9-12.699-5.744c-0.348,3.618,0.291,6.989,1.974,9.742
				C43.356,35.345,48.945,35,55,35V23.018C51.908,25.741,49.948,29.097,49.578,32.754z"/>
		</g>
		<g>
			<path style="fill:#E54B44;" d="M28,52c0,14.912,16,35,27,35V35C40.088,35,28,37.088,28,52z"/>
		</g>
		<g>
			<path style="fill:#FFEFED;" d="M68,49.333c0-1.565,1.269-2.833,2.833-2.833c1.565,0,2.834,1.269,2.834,2.833S70.833,55,70.833,55
				S68,50.898,68,49.333z"/>
		</g>
		<g>
			<path style="fill:#FFEFED;" d="M64,63.833C64,62.269,65.269,61,66.833,61c1.565,0,2.834,1.269,2.834,2.833
				S66.833,69.5,66.833,69.5S64,65.398,64,63.833z"/>
		</g>
		<g>
			<path style="fill:#FFEFED;" d="M40,63.833C40,62.269,41.269,61,42.833,61c1.565,0,2.834,1.269,2.834,2.833
				S42.833,69.5,42.833,69.5S40,65.398,40,63.833z"/>
		</g>
		<g>
			<path style="fill:#FFEFED;" d="M52.167,59.333c0-1.565,1.269-2.833,2.833-2.833s2.833,1.269,2.833,2.833S55,65,55,65
				S52.167,60.898,52.167,59.333z"/>
		</g>
		<g>
			<path style="fill:#FFEFED;" d="M52.167,45.333c0-1.565,1.269-2.833,2.833-2.833s2.833,1.269,2.833,2.833S55,51,55,51
				S52.167,46.898,52.167,45.333z"/>
		</g>
		<g>
			<path style="fill:#FFEFED;" d="M36.333,49.333c0-1.565,1.269-2.833,2.834-2.833c1.564,0,2.833,1.269,2.833,2.833
				S39.167,55,39.167,55S36.333,50.898,36.333,49.333z"/>
		</g>
		<g>
			<path style="fill:#FFEFED;" d="M52.167,74.834C52.167,73.269,53.436,72,55,72s2.833,1.269,2.833,2.834
				C57.833,76.398,55,80.5,55,80.5S52.167,76.398,52.167,74.834z"/>
		</g>
	</g>
</g>
<g id="R-Red" style="display:none;">
	<circle style="display:inline;fill:#FABBAF;" cx="55" cy="55" r="55"/>
	<g style="display:inline;">
		<g>
			<path style="fill:#C23023;" d="M82,52c0,14.912-16,35-27,35S28,66.912,28,52s12.088-17,27-17S82,37.088,82,52z"/>
		</g>
		<g>
			<path style="fill:#FFD7D4;" d="M55,35c5.975,0,11.494,0.338,15.967,1.699c1.658-2.743,2.286-6.094,1.939-9.689
				c-4.949-0.151-9.615,1.477-12.505,5.443c-0.445-3.541-2.394-6.786-5.401-9.435c-3.092,2.723-5.052,6.079-5.422,9.736
				c-2.877-4.195-7.613-5.901-12.699-5.745c-0.348,3.618,0.291,6.989,1.974,9.742C43.356,35.345,48.945,35,55,35z"/>
		</g>
		<g>
			<path style="fill:#FFEFED;" d="M49.578,32.754c-2.877-4.194-7.613-5.9-12.699-5.744c-0.348,3.618,0.291,6.989,1.974,9.742
				C43.356,35.345,48.945,35,55,35V23.018C51.908,25.741,49.948,29.097,49.578,32.754z"/>
		</g>
		<g>
			<path style="fill:#E54B44;" d="M28,52c0,14.912,16,35,27,35V35C40.088,35,28,37.088,28,52z"/>
		</g>
		<g>
			<path style="fill:#FFEFED;" d="M68,49.333c0-1.565,1.269-2.833,2.833-2.833c1.565,0,2.834,1.269,2.834,2.833S70.833,55,70.833,55
				S68,50.898,68,49.333z"/>
		</g>
		<g>
			<path style="fill:#FFEFED;" d="M64,63.833C64,62.269,65.269,61,66.833,61c1.565,0,2.834,1.269,2.834,2.833
				S66.833,69.5,66.833,69.5S64,65.398,64,63.833z"/>
		</g>
		<g>
			<path style="fill:#FFEFED;" d="M40,63.833C40,62.269,41.269,61,42.833,61c1.565,0,2.834,1.269,2.834,2.833
				S42.833,69.5,42.833,69.5S40,65.398,40,63.833z"/>
		</g>
		<g>
			<path style="fill:#FFEFED;" d="M52.167,59.333c0-1.565,1.269-2.833,2.833-2.833s2.833,1.269,2.833,2.833S55,65,55,65
				S52.167,60.898,52.167,59.333z"/>
		</g>
		<g>
			<path style="fill:#FFEFED;" d="M52.167,45.333c0-1.565,1.269-2.833,2.833-2.833s2.833,1.269,2.833,2.833S55,51,55,51
				S52.167,46.898,52.167,45.333z"/>
		</g>
		<g>
			<path style="fill:#FFEFED;" d="M36.333,49.333c0-1.565,1.269-2.833,2.834-2.833c1.564,0,2.833,1.269,2.833,2.833
				S39.167,55,39.167,55S36.333,50.898,36.333,49.333z"/>
		</g>
		<g>
			<path style="fill:#FFEFED;" d="M52.167,74.834C52.167,73.269,53.436,72,55,72s2.833,1.269,2.833,2.834
				C57.833,76.398,55,80.5,55,80.5S52.167,76.398,52.167,74.834z"/>
		</g>
	</g>
</g>
<g id="Yellow" style="display:none;">
	<g style="display:inline;">
		<g>
			<path style="fill:#E07000;" d="M82,52c0,14.912-16,35-27,35S28,66.912,28,52s12.088-17,27-17S82,37.088,82,52z"/>
		</g>
		<g>
			<path style="fill:#FFE9A1;" d="M55,35c5.975,0,11.494,0.338,15.967,1.699c1.658-2.743,2.286-6.094,1.939-9.689
				c-4.949-0.151-9.615,1.477-12.505,5.443c-0.445-3.542-2.394-6.786-5.401-9.435c-3.092,2.723-5.052,6.079-5.422,9.736
				c-2.877-4.195-7.613-5.901-12.699-5.745c-0.348,3.618,0.291,6.989,1.974,9.742C43.356,35.345,48.945,35,55,35z"/>
		</g>
		<g>
			<path style="fill:#FFF5D9;" d="M49.578,32.754c-2.877-4.194-7.613-5.9-12.699-5.744c-0.348,3.618,0.291,6.989,1.974,9.742
				C43.356,35.345,48.945,35,55,35V23.018C51.908,25.741,49.948,29.097,49.578,32.754z"/>
		</g>
		<g>
			<path style="fill:#FA9200;" d="M28,52c0,14.912,16,35,27,35V35C40.088,35,28,37.088,28,52z"/>
		</g>
		<g>
			<path style="fill:#FFF5D9;" d="M68,49.333c0-1.565,1.269-2.833,2.833-2.833c1.565,0,2.834,1.269,2.834,2.833S70.833,55,70.833,55
				S68,50.898,68,49.333z"/>
		</g>
		<g>
			<path style="fill:#FFF5D9;" d="M64,63.833C64,62.269,65.269,61,66.833,61c1.565,0,2.834,1.269,2.834,2.833
				S66.833,69.5,66.833,69.5S64,65.398,64,63.833z"/>
		</g>
		<g>
			<path style="fill:#FFF5D9;" d="M40,63.833C40,62.269,41.269,61,42.833,61c1.565,0,2.834,1.269,2.834,2.833
				S42.833,69.5,42.833,69.5S40,65.398,40,63.833z"/>
		</g>
		<g>
			<path style="fill:#FFF5D9;" d="M52.167,59.333c0-1.565,1.269-2.833,2.833-2.833s2.833,1.269,2.833,2.833S55,65,55,65
				S52.167,60.898,52.167,59.333z"/>
		</g>
		<g>
			<path style="fill:#FFF5D9;" d="M52.167,45.333c0-1.565,1.269-2.833,2.833-2.833s2.833,1.269,2.833,2.833S55,51,55,51
				S52.167,46.898,52.167,45.333z"/>
		</g>
		<g>
			<path style="fill:#FFF5D9;" d="M36.333,49.333c0-1.565,1.269-2.833,2.834-2.833c1.564,0,2.833,1.269,2.833,2.833
				S39.167,55,39.167,55S36.333,50.898,36.333,49.333z"/>
		</g>
		<g>
			<path style="fill:#FFF5D9;" d="M52.167,74.834C52.167,73.269,53.436,72,55,72s2.833,1.269,2.833,2.834
				C57.833,76.398,55,80.5,55,80.5S52.167,76.398,52.167,74.834z"/>
		</g>
	</g>
</g>
<g id="R-Yellow" style="display:none;">
	<circle style="display:inline;fill:#FFD75E;" cx="55" cy="55" r="55"/>
	<g style="display:inline;">
		<g>
			<path style="fill:#E07000;" d="M82,52c0,14.912-16,35-27,35S28,66.912,28,52s12.088-17,27-17S82,37.088,82,52z"/>
		</g>
		<g>
			<path style="fill:#FFE9A1;" d="M55,35c5.975,0,11.494,0.338,15.967,1.699c1.658-2.743,2.286-6.094,1.939-9.689
				c-4.949-0.151-9.615,1.477-12.505,5.443c-0.445-3.542-2.394-6.786-5.401-9.435c-3.092,2.723-5.052,6.079-5.422,9.736
				c-2.877-4.195-7.613-5.901-12.699-5.745c-0.348,3.618,0.291,6.989,1.974,9.742C43.356,35.345,48.945,35,55,35z"/>
		</g>
		<g>
			<path style="fill:#FFF5D9;" d="M49.578,32.754c-2.877-4.194-7.613-5.9-12.699-5.744c-0.348,3.618,0.291,6.989,1.974,9.742
				C43.356,35.345,48.945,35,55,35V23.018C51.908,25.741,49.948,29.097,49.578,32.754z"/>
		</g>
		<g>
			<path style="fill:#FA9200;" d="M28,52c0,14.912,16,35,27,35V35C40.088,35,28,37.088,28,52z"/>
		</g>
		<g>
			<path style="fill:#FFF5D9;" d="M68,49.333c0-1.565,1.269-2.833,2.833-2.833c1.565,0,2.834,1.269,2.834,2.833S70.833,55,70.833,55
				S68,50.898,68,49.333z"/>
		</g>
		<g>
			<path style="fill:#FFF5D9;" d="M64,63.833C64,62.269,65.269,61,66.833,61c1.565,0,2.834,1.269,2.834,2.833
				S66.833,69.5,66.833,69.5S64,65.398,64,63.833z"/>
		</g>
		<g>
			<path style="fill:#FFF5D9;" d="M40,63.833C40,62.269,41.269,61,42.833,61c1.565,0,2.834,1.269,2.834,2.833
				S42.833,69.5,42.833,69.5S40,65.398,40,63.833z"/>
		</g>
		<g>
			<path style="fill:#FFF5D9;" d="M52.167,59.333c0-1.565,1.269-2.833,2.833-2.833s2.833,1.269,2.833,2.833S55,65,55,65
				S52.167,60.898,52.167,59.333z"/>
		</g>
		<g>
			<path style="fill:#FFF5D9;" d="M52.167,45.333c0-1.565,1.269-2.833,2.833-2.833s2.833,1.269,2.833,2.833S55,51,55,51
				S52.167,46.898,52.167,45.333z"/>
		</g>
		<g>
			<path style="fill:#FFF5D9;" d="M36.333,49.333c0-1.565,1.269-2.833,2.834-2.833c1.564,0,2.833,1.269,2.833,2.833
				S39.167,55,39.167,55S36.333,50.898,36.333,49.333z"/>
		</g>
		<g>
			<path style="fill:#FFF5D9;" d="M52.167,74.834C52.167,73.269,53.435,72,55,72s2.833,1.269,2.833,2.834
				C57.833,76.398,55,80.5,55,80.5S52.167,76.398,52.167,74.834z"/>
		</g>
	</g>
</g>
</svg>
