<?xml version="1.0" encoding="iso-8859-1"?>
<!-- Generator: Adobe Illustrator 17.1.0, SVG Export Plug-In . SVG Version: 6.00 Build 0)  -->
<!DOCTYPE svg PUBLIC "-//W3C//DTD SVG 1.0//EN" "http://www.w3.org/TR/2001/REC-SVG-20010904/DTD/svg10.dtd">
<svg version="1.0" xmlns="http://www.w3.org/2000/svg" xmlns:xlink="http://www.w3.org/1999/xlink" x="0px" y="0px" width="110px"
	 height="110px" viewBox="0 0 110 110" style="enable-background:new 0 0 110 110;" xml:space="preserve">
<g id="Artboard">
</g>
<g id="Multicolor">
	<g>
		<circle style="fill:#25B7D3;" cx="55" cy="55" r="55"/>
	</g>
	<g>
		<g>
			<polygon style="fill:#84462D;" points="41,54 39,83 46,83 46,54 			"/>
		</g>
		<g>
			<polygon style="fill:#84462D;" points="69,54 71,83 64,83 64,54 			"/>
		</g>
		<path style="fill:#3E3E3F;" d="M83.409,77.663c-0.889-2.311-2.797-4.08-5.168-4.791L65,70H55H45l-13.241,2.872
			c-2.371,0.711-4.279,2.48-5.168,4.791L23,87h32h32L83.409,77.663z"/>
		<path style="fill:#AF7653;" d="M55,69v18h2l8-17v-8.567C62.159,65.829,58.284,67.905,55,69z"/>
		<path style="fill:#BF8662;" d="M45,61.433V70l8,17h2V69C51.716,67.905,47.841,65.829,45,61.433z"/>
		<g>
			<polyline style="fill:#E2E4E5;" points="45,70 55,87 53,87 39,71 45,70 			"/>
		</g>
		<g>
			<polyline style="fill:#E2E4E5;" points="65,70 55,87 57,87 71,71 65,70 			"/>
		</g>
		<path style="fill:#BF8662;" d="M70,45c-0.277,0-0.633,0-1,0c0-0.007,0-0.014,0-0.021c-0.002-1.03-0.019-2.045-0.063-3.037
			C64.898,38.001,55,38,55,38s-9.898,0.001-13.937,3.942c-0.044,0.992-0.061,2.007-0.063,3.037c0,0.007,0,0.014,0,0.021
			c-0.368,0-0.723,0-1,0c-1,0-2,1.111-2,2.222c0,3.091,0.864,7.13,4.178,7.703C44.62,64.027,50.396,67.465,55,69
			c4.604-1.535,10.38-4.973,12.822-14.075C71.136,54.353,72,50.313,72,47.222C72,46.111,71,45,70,45z"/>
		<path style="fill:#CC9978;" d="M41,44.979c0,0.007,0,0.014,0,0.021c-0.368,0-0.723,0-1,0c-1,0-2,1.111-2,2.222
			c0,3.091,0.864,7.13,4.178,7.703C44.62,64.027,50.396,67.465,55,69V38c0,0-9.898,0.001-13.937,3.942
			C41.019,42.934,41.002,43.949,41,44.979z"/>
		<g>
			<path style="fill:#84462D;" d="M50,58h10c0,0,0,3-5,3S50,58,50,58z"/>
		</g>
		<g>
			<path style="fill:#3E3E3F;" d="M52.006,47c0-1.104-0.896-2-2-2c-0.002,0-0.004,0-0.006,0c0.001,0.021,0.006,0.041,0.006,0.062
				c0,1.103-0.892,1.996-1.994,2C48.046,48.137,48.923,49,50.006,49C51.111,49,52.006,48.104,52.006,47z"/>
		</g>
		<g>
			<path style="fill:#3E3E3F;" d="M62,47c0-1.104-0.896-2-2-2c-0.002,0-0.004,0-0.006,0C59.995,45.021,60,45.042,60,45.063
				c0,1.103-0.892,1.996-1.994,2C58.04,48.137,58.917,49,60,49C61.104,49,62,48.104,62,47z"/>
		</g>
		<g>
			<path style="fill:#84462D;" d="M54.975,38c0,0-4.015,0.001-7.975,1.02C51.562,42.651,58.811,45,66.975,45
				c0.674,0,1.339-0.021,2-0.052V42C64.975,38,54.975,38,54.975,38z"/>
		</g>
		<g>
			<path style="fill:#FA5655;" d="M34.491,53.445v-19.62c-0.697-0.249-1.368-0.493-2-0.728v20.348c-2.61,1.72-1,6.85-1,9.555
				c0.995,0,1.544,0,1.842,0c0.064,0,0.116,0,0.158,0c0.13,0,0.168,0,0.158,0c0.297,0,0.847,0,1.842,0
				C35.491,60.295,37.102,55.165,34.491,53.445z"/>
			<path style="fill:#3E3E3F;" d="M82,31c0-1-25-8-27-8s-27,7-27,8c0,0.625,7.432,3.207,13,5.053c0,1.724,0,3.768,0,5.947
				c4-4,14-4,14-4s10,0,14,4c0-2.18,0-4.223,0-5.947C74.568,34.207,82,31.625,82,31z"/>
		</g>
	</g>
</g>
</svg>
