<?xml version="1.0" encoding="iso-8859-1"?>
<!-- Generator: Adobe Illustrator 17.1.0, SVG Export Plug-In . SVG Version: 6.00 Build 0)  -->
<!DOCTYPE svg PUBLIC "-//W3C//DTD SVG 1.0//EN" "http://www.w3.org/TR/2001/REC-SVG-20010904/DTD/svg10.dtd">
<svg version="1.0" xmlns="http://www.w3.org/2000/svg" xmlns:xlink="http://www.w3.org/1999/xlink" x="0px" y="0px" width="110px"
	 height="110px" viewBox="0 0 110 110" style="enable-background:new 0 0 110 110;" xml:space="preserve">
<g id="Artboard">
</g>
<g id="Multicolor">
	<g>
		<circle style="fill:#32BEA6;" cx="55" cy="55" r="55"/>
	</g>
	<g>
		<g>
			<polygon style="fill:#E2E4E5;" points="67,67.997 65,66.997 45,66.997 43,67.997 55,87 			"/>
		</g>
		<path style="fill:#F7B4B4;" d="M57.655,67.997H55h-2.655c-0.856,0-1.671-0.365-2.24-1.004L45,62.997v4.5c0,0,0,7.5,10,7.5
			s10-7.5,10-7.5v-4.5l-5.105,3.996C59.326,67.632,58.511,67.997,57.655,67.997z"/>
		<path style="fill:#FBC8C8;" d="M50.105,66.993L45,62.997v4.5c0,0,0,7.5,10,7.5v-7h-2.655
			C51.489,67.997,50.674,67.632,50.105,66.993z"/>
		<g>
			<polygon style="fill:#FFFFFF;" points="66.965,68.059 67,68 65,67 55.015,71.981 60.808,77.807 			"/>
		</g>
		<g>
			<polygon style="fill:#DF2C2C;" points="59,87 56.201,76.8 58,75.002 54.981,71.978 51.983,74.976 53.801,76.793 51,87 			"/>
		</g>
		<g>
			<polygon style="fill:#FA5655;" points="55,87 55,71.997 54.981,71.978 51.983,74.976 53.801,76.793 51,87 			"/>
		</g>
		<g>
			<polygon style="fill:#FFFFFF;" points="43.035,68.059 43,68 45,67 54.985,71.981 49.192,77.807 			"/>
		</g>
		<g>
			<path style="fill:#3E3E3F;" d="M23,87l4-11c0.615-1.333,1.698-2.394,3.043-2.983L43,68l12,19H23z"/>
		</g>
		<g>
			<path style="fill:#3E3E3F;" d="M87,87l-4-11c-0.615-1.333-1.698-2.394-3.043-2.983L67,68L55,87H87z"/>
		</g>
		<g>
			<polygon style="fill:#9E9FA0;" points="55,87 43,68 34,71 51,87 			"/>
		</g>
		<g>
			<polygon style="fill:#9E9FA0;" points="55,87 67,68 76,71 59,87 			"/>
		</g>
		<path style="fill:#FBC8C8;" d="M70,45c-1,0-1,1.111-1,1.111V45c-0.003-1.458-0.033-2.836-0.135-4.125C64.783,37.002,55,37,55,37
			s-9.783,0.002-13.865,3.875C41.033,42.164,41.003,43.542,41,45v7.997l4,10l5.105,3.996c0.569,0.639,1.384,1.004,2.24,1.004H55
			h2.655c0.856,0,1.671-0.365,2.24-1.004L65,62.997l3.207-8.017C71.042,54.776,72,50.476,72,47.222C72,46.111,71,45,70,45z"/>
		<path style="fill:#FBD7D7;" d="M41,45v1.111c0,0,0-1.111-1-1.111s-2,1.111-2,2.222c0,3.253,0.958,7.554,3.793,7.758L45,62.997
			l5.105,3.996c0.569,0.639,1.384,1.004,2.24,1.004H55V37c0,0-9.783,0.002-13.865,3.875C41.033,42.164,41.003,43.542,41,45z"/>
		<g>
			<path style="fill:#F79392;" d="M50,56.997h10c0,0,0,3-5,3S50,56.997,50,56.997z"/>
		</g>
		<g>
			<path style="fill:#3E3E3F;" d="M52.006,47c0-1.104-0.896-2-2-2c-0.002,0-0.004,0-0.006,0c0.001,0.021,0.006,0.041,0.006,0.062
				c0,1.103-0.892,1.996-1.994,2C48.046,48.137,48.923,49,50.006,49C51.111,49,52.006,48.104,52.006,47z"/>
		</g>
		<g>
			<path style="fill:#3E3E3F;" d="M62,47c0-1.104-0.896-2-2-2c-0.002,0-0.004,0-0.006,0C59.995,45.021,60,45.042,60,45.063
				c0,1.103-0.892,1.996-1.994,2C58.04,48.137,58.917,49,60,49C61.104,49,62,48.104,62,47z"/>
		</g>
		<g>
			<path style="fill:#84462D;" d="M55,37c0,0-9.802,0.002-13.877,3.887C41.05,41.479,41,42.081,41,42.7v3.366L42.867,47
				c0,0,1.633-9.333,8.4-9.333C49.867,40.367,51,43,51,43l12.263-4.905C59.212,37.001,55,37,55,37z"/>
			<path style="fill:#84462D;" d="M64.582,38.494L67.133,47L69,46.066V42.7c0-0.619-0.05-1.221-0.123-1.813
				C67.766,39.827,66.231,39.054,64.582,38.494z"/>
		</g>
		<g>
			<path style="fill:#FA5655;" d="M34.491,52.445v-19.62c-0.697-0.249-1.368-0.493-2-0.728v20.348c-2.61,1.72-1,6.85-1,9.555
				c0.995,0,1.544,0,1.842,0c0.064,0,0.116,0,0.158,0c0.13,0,0.168,0,0.158,0c0.297,0,0.847,0,1.842,0
				C35.491,59.295,37.102,54.165,34.491,52.445z"/>
			<path style="fill:#3E3E3F;" d="M82,30c0-1-25-8-27-8s-27,7-27,8c0,0.625,7.432,3.207,13,5.053c0,1.724,0,3.768,0,5.947
				c4-4,14-4,14-4s10,0,14,4c0-2.18,0-4.223,0-5.947C74.568,33.207,82,30.625,82,30z"/>
		</g>
	</g>
</g>
</svg>
