<?xml version="1.0" encoding="iso-8859-1"?>
<!-- Generator: Adobe Illustrator 17.1.0, SVG Export Plug-In . SVG Version: 6.00 Build 0)  -->
<!DOCTYPE svg PUBLIC "-//W3C//DTD SVG 1.0//EN" "http://www.w3.org/TR/2001/REC-SVG-20010904/DTD/svg10.dtd">
<svg version="1.0" xmlns="http://www.w3.org/2000/svg" xmlns:xlink="http://www.w3.org/1999/xlink" x="0px" y="0px" width="110px"
	 height="110px" viewBox="0 0 110 110" style="enable-background:new 0 0 110 110;" xml:space="preserve">
<g id="Artboard">
</g>
<g id="Multicolor">
	<circle style="fill:#25B7D3;" cx="55" cy="55" r="55"/>
	<g>
		<g>
			<path style="fill:#FACB1B;" d="M60.638,51C59.282,45.269,54.145,41,48,41h-9c-2.209,0-4,1.791-4,4v6.524
				C28.101,53.302,23,59.544,23,67c0,8.879,7.201,16,16,16h22c6.033,0,20-8.017,20-16C81,59.234,67.488,51,60.638,51z"/>
		</g>
		<g>
			<path style="fill:#FBE158;" d="M48,41h-9c-2.209,0-4,1.791-4,4v6.524C28.101,53.302,23,59.544,23,67
				c0,4.257,1.667,8.1,4.361,10.958l31.325-31.325C56.344,43.235,52.44,41,48,41z"/>
		</g>
		<g>
			<circle style="fill:#9CE5F4;" cx="72.5" cy="27.5" r="3.5"/>
		</g>
		<g>
			<circle style="fill:#9CE5F4;" cx="63.5" cy="31.5" r="2.5"/>
		</g>
		<g>
			<circle style="fill:#9CE5F4;" cx="56.5" cy="35.5" r="1.5"/>
		</g>
		<g>
			<path style="fill:#3E3E3F;" d="M44,36c0-0.552-0.448-1-1-1h-2c-0.552,0-1,0.448-1,1v5h4V36z"/>
		</g>
		<g>
			<path style="fill:#3E3E3F;" d="M48,41c1.034,0,2.036,0.13,3,0.359V32c0-0.552-0.448-1-1-1h-2c-0.552,0-1,0.448-1,1v9H48z"/>
		</g>
		<g>
			<g>
				<path style="fill:#3E3E3F;" d="M83,53c-1.784,0-3.231,1.447-3.231,3.231C79.769,58.015,83,67,83,67s3.231-8.985,3.231-10.769
					C86.231,54.447,84.784,53,83,53z"/>
			</g>
			<g>
				<path style="fill:#3E3E3F;" d="M79.769,77.769C79.769,79.553,81.216,81,83,81s3.231-1.447,3.231-3.231
					C86.231,75.985,83,67,83,67S79.769,75.985,79.769,77.769z"/>
			</g>
		</g>
		<g>
			<path style="fill:#E2E4E5;" d="M82,64h-1.63c0.404,0.996,0.63,2.001,0.63,3c0,1.005-0.222,2.01-0.621,3H82c1.657,0,3-1.343,3-3
				S83.657,64,82,64z"/>
		</g>
		<g>
			<path style="fill:#F3B607;" d="M39,51h21.638C59.282,45.269,54.145,41,48,41h-9c-2.209,0-4,1.791-4,4v6.524
				C36.281,51.194,37.616,51,39,51z"/>
		</g>
		<g>
			<path style="fill:#FACB1B;" d="M48,41h-9c-2.209,0-4,1.791-4,4v6.524C36.281,51.194,37.616,51,39,51h15.456l4.286-4.286
				C56.407,43.27,52.475,41,48,41z"/>
		</g>
		<g>
			<circle style="fill:#40C9E7;" cx="35" cy="63" r="4"/>
		</g>
		<g>
			<circle style="fill:#40C9E7;" cx="49" cy="63" r="4"/>
		</g>
		<g>
			<circle style="fill:#40C9E7;" cx="63" cy="63" r="4"/>
		</g>
		<g>
			<path style="fill:#FBE158;" d="M79.91,71c-0.73,1.39-1.79,2.74-3.05,4H25.14c-0.72-1.24-1.27-2.58-1.64-4H79.91z"/>
		</g>
		<g>
			<path style="fill:#FBEC9A;" d="M23.5,71c0.37,1.42,0.92,2.76,1.64,4h5.219l4-4H23.5z"/>
		</g>
	</g>
</g>
</svg>
