<?xml version="1.0" encoding="iso-8859-1"?>
<!-- Generator: Adobe Illustrator 17.1.0, SVG Export Plug-In . SVG Version: 6.00 Build 0)  -->
<!DOCTYPE svg PUBLIC "-//W3C//DTD SVG 1.0//EN" "http://www.w3.org/TR/2001/REC-SVG-20010904/DTD/svg10.dtd">
<svg version="1.0" xmlns="http://www.w3.org/2000/svg" xmlns:xlink="http://www.w3.org/1999/xlink" x="0px" y="0px" width="110px"
	 height="110px" viewBox="0 0 110 110" style="enable-background:new 0 0 110 110;" xml:space="preserve">
<g id="Artboard">
</g>
<g id="Multicolor">
	<circle style="fill:#E04F5F;" cx="55" cy="55" r="55"/>
	<g>
		<g>
			<path style="fill:#3E3E3F;" d="M43,87c2.209,0,4-1.791,4-4h-8C39,85.209,40.791,87,43,87z"/>
		</g>
		<g>
			<path style="fill:#FACB1B;" d="M75,79c0,2.209-1.791,4-4,4H39c-2.209,0-4-1.791-4-4V44c0-2.209,1.791-4,4-4h32
				c2.209,0,4,1.791,4,4V79z"/>
		</g>
		<g>
			<path style="fill:#FBE158;" d="M73.273,40.713C72.627,40.266,71.846,40,71,40H39c-2.209,0-4,1.791-4,4v34.986L73.273,40.713z"/>
		</g>
		<g>
			<rect x="46" y="29" style="fill:#E2E4E5;" width="3" height="11"/>
		</g>
		<g>
			<rect x="61" y="29" style="fill:#E2E4E5;" width="3" height="11"/>
		</g>
		<g>
			<path style="fill:#CFD3D4;" d="M43,85c1.105,0,2-0.896,2-2h-4C41,84.104,41.895,85,43,85z"/>
		</g>
		<g>
			<path style="fill:#3E3E3F;" d="M67,87c2.209,0,4-1.791,4-4h-8C63,85.209,64.791,87,67,87z"/>
		</g>
		<g>
			<path style="fill:#CFD3D4;" d="M67,85c1.105,0,2-0.896,2-2h-4C65,84.104,65.895,85,67,85z"/>
		</g>
		<g>
			<path style="fill:#3E3E3F;" d="M46,29c0-3.314,2.686-6,6-6h6c3.314,0,6,2.686,6,6H46z"/>
		</g>
		<g>
			<path style="fill:#F3B607;" d="M44,77c0,0.55-0.45,1-1,1s-1-0.45-1-1V46c0-0.55,0.45-1,1-1s1,0.45,1,1V77z"/>
		</g>
		<g>
			<path style="fill:#F3B607;" d="M52,77c0,0.55-0.45,1-1,1s-1-0.45-1-1V46c0-0.55,0.45-1,1-1s1,0.45,1,1V77z"/>
		</g>
		<g>
			<path style="fill:#F3B607;" d="M60,77c0,0.55-0.45,1-1,1s-1-0.45-1-1V46c0-0.55,0.45-1,1-1s1,0.45,1,1V77z"/>
		</g>
		<g>
			<path style="fill:#F3B607;" d="M68,77c0,0.55-0.45,1-1,1s-1-0.45-1-1V46c0-0.55,0.45-1,1-1s1,0.45,1,1V77z"/>
		</g>
		<g>
			<g>
				<path style="fill:#FACB1B;" d="M43,45c-0.55,0-1,0.45-1,1v25.987l2-2V46C44,45.45,43.55,45,43,45z"/>
			</g>
			<g>
				<path style="fill:#FACB1B;" d="M51,45c-0.55,0-1,0.45-1,1v17.986l2-2V46C52,45.45,51.55,45,51,45z"/>
			</g>
			<g>
				<path style="fill:#FACB1B;" d="M59,45c-0.55,0-1,0.45-1,1v9.986l2-2V46C60,45.45,59.55,45,59,45z"/>
			</g>
			<g>
				<path style="fill:#FACB1B;" d="M67,45c-0.55,0-1,0.45-1,1v1.986l1.998-1.998C67.991,45.444,67.546,45,67,45z"/>
			</g>
		</g>
	</g>
</g>
</svg>
