<?xml version="1.0" encoding="iso-8859-1"?>
<!-- Generator: Adobe Illustrator 17.1.0, SVG Export Plug-In . SVG Version: 6.00 Build 0)  -->
<!DOCTYPE svg PUBLIC "-//W3C//DTD SVG 1.0//EN" "http://www.w3.org/TR/2001/REC-SVG-20010904/DTD/svg10.dtd">
<svg version="1.0" xmlns="http://www.w3.org/2000/svg" xmlns:xlink="http://www.w3.org/1999/xlink" x="0px" y="0px" width="110px"
	 height="110px" viewBox="0 0 110 110" style="enable-background:new 0 0 110 110;" xml:space="preserve">
<g id="Artboard">
</g>
<g id="Multicolor">
	<circle style="fill:#25B7D3;" cx="55" cy="55" r="55"/>
	<g>
		<g>
			<path style="fill:#84462D;" d="M87,83c0,2.209-1.791,4-4,4H27c-2.209,0-4-1.791-4-4V43c0-2.209,1.791-4,4-4h56
				c2.209,0,4,1.791,4,4V83z"/>
		</g>
		<g>
			<path style="fill:#9C6144;" d="M27,39c-2.209,0-4,1.791-4,4v40c0,1.042,0.408,1.982,1.06,2.693L70.754,39H27z"/>
		</g>
		<g>
			<path style="fill:#FACB1B;" d="M33,39h-6c-2.209,0-4,1.791-4,4v6h10V39z"/>
		</g>
		<g>
			<circle style="fill:#84462D;" cx="28" cy="44" r="1"/>
		</g>
		<g>
			<path style="fill:#F3B607;" d="M77,39h6c2.209,0,4,1.791,4,4v6H77V39z"/>
		</g>
		<g>
			<circle style="fill:#84462D;" cx="82" cy="44" r="1"/>
		</g>
		<g>
			<path style="fill:#F3B607;" d="M33,87h-6c-2.209,0-4-1.791-4-4v-6h10V87z"/>
		</g>
		<g>
			<path style="fill:#F3B607;" d="M77,87h6c2.209,0,4-1.791,4-4v-6H77V87z"/>
		</g>
		<g>
			<circle style="fill:#84462D;" cx="82" cy="82" r="1"/>
		</g>
		<g>
			<rect x="61" y="37" style="fill:#FACB1B;" width="8" height="2"/>
		</g>
		<g>
			<path style="fill:#FACB1B;" d="M23,77v6c0,1.042,0.408,1.982,1.06,2.693L32.754,77H23z"/>
		</g>
		<g>
			<circle style="fill:#84462D;" cx="28" cy="82" r="1"/>
		</g>
		<g>
			<path style="fill:#3E3E3F;" d="M63,27H47c-2.209,0-4,1.791-4,4v6h4v-2c0-2.209,1.791-4,4-4h8c2.209,0,4,1.791,4,4v2h4v-6
				C67,28.791,65.209,27,63,27z"/>
		</g>
		<g>
			<rect x="41" y="37" style="fill:#FACB1B;" width="8" height="2"/>
		</g>
	</g>
</g>
</svg>
