<?xml version="1.0" encoding="iso-8859-1"?>
<!-- Generator: Adobe Illustrator 17.1.0, SVG Export Plug-In . SVG Version: 6.00 Build 0)  -->
<!DOCTYPE svg PUBLIC "-//W3C//DTD SVG 1.0//EN" "http://www.w3.org/TR/2001/REC-SVG-20010904/DTD/svg10.dtd">
<svg version="1.0" xmlns="http://www.w3.org/2000/svg" xmlns:xlink="http://www.w3.org/1999/xlink" x="0px" y="0px" width="110px"
	 height="110px" viewBox="0 0 110 110" style="enable-background:new 0 0 110 110;" xml:space="preserve">
<g id="Artboard">
</g>
<g id="Multicolor">
	<circle style="fill:#25B7D3;" cx="55" cy="55" r="55"/>
	<g>
		<g>
			<path style="fill:#3E3E3F;" d="M67,29L55,63L43,29c0,0-20,4.04-20,17.9V78c0,0.552,0.448,1,1,1h10c0.552,0,1-0.448,1-1V45l4,16
				l-3.84,17.281c-0.095,0.428,0.099,0.868,0.48,1.085l12.442,7.11c0.239,0.136,0.523,0.168,0.786,0.089
				c0.263-0.08,0.482-0.264,0.605-0.51l4.633-9.266c0.169-0.339,0.516-0.553,0.894-0.553s0.725,0.214,0.894,0.553l4.633,9.266
				c0.123,0.246,0.342,0.43,0.605,0.51c0.263,0.08,0.547,0.047,0.786-0.089l12.442-7.11c0.38-0.218,0.575-0.657,0.48-1.085L71,61
				l4-16v33c0,0.552,0.448,1,1,1h10c0.552,0,1-0.448,1-1V46.9C87,33.04,67,29,67,29z"/>
		</g>
		<g>
			<polygon style="fill:#F0F1F1;" points="63.35,39.35 55,63 46.65,39.35 55,31 			"/>
		</g>
		<g>
			<polygon style="fill:#F0F1F1;" points="47,25 55,31 63,25 			"/>
		</g>
		<g>
			<polygon style="fill:#FFFFFF;" points="67,29 63.35,39.35 55,31 63,25 			"/>
		</g>
		<g>
			<circle style="fill:#FFFFFF;" cx="51" cy="67" r="2"/>
		</g>
		<g>
			<circle style="fill:#FFFFFF;" cx="59" cy="67" r="2"/>
		</g>
		<g>
			<path style="fill:#DF2C2C;" d="M56.878,38.512C56.315,38.813,55.683,39,55,39s-1.315-0.187-1.877-0.488L50.32,49.73L55,63
				l4.68-13.27L56.878,38.512z"/>
		</g>
		<g>
			<polygon style="fill:#FFFFFF;" points="55,31 46.65,39.35 43,29 47,25 			"/>
		</g>
		<path style="fill:#FA5655;" d="M55,31l-4,4c0,1.527,0.865,2.838,2.123,3.512L50.32,49.73L55,63V39c2.209,0,4-1.791,4-4L55,31z"/>
	</g>
</g>
</svg>
