<?xml version="1.0" encoding="iso-8859-1"?>
<!-- Generator: Adobe Illustrator 17.1.0, SVG Export Plug-In . SVG Version: 6.00 Build 0)  -->
<!DOCTYPE svg PUBLIC "-//W3C//DTD SVG 1.0//EN" "http://www.w3.org/TR/2001/REC-SVG-20010904/DTD/svg10.dtd">
<svg version="1.0" xmlns="http://www.w3.org/2000/svg" xmlns:xlink="http://www.w3.org/1999/xlink" x="0px" y="0px" width="110px"
	 height="110px" viewBox="0 0 110 110" style="enable-background:new 0 0 110 110;" xml:space="preserve">
<g id="Artboard">
</g>
<g id="Multicolor">
	<circle style="fill:#25B7D3;" cx="55" cy="55" r="55"/>
	<g>
		<g>
			<path style="fill:#3E3E3F;" d="M80.6,47.533c-4.267,0-12.8,0-25.6,0s-21.333,0-25.6,0S23,51.8,23,58.2S27.267,71,35.8,71
				C48.6,71,48.6,58.2,55,58.2S61.4,71,74.2,71C82.734,71,87,64.6,87,58.2S84.867,47.533,80.6,47.533z"/>
		</g>
		<g>
			<path style="fill:#5B5C5F;" d="M29.4,47.533c-4.267,0-6.4,4.267-6.4,10.667c0,2.883,0.875,5.761,2.607,8.059l18.726-18.726
				C37.349,47.533,32.338,47.533,29.4,47.533z"/>
		</g>
		<g>
			<path style="fill:#FBE158;" d="M65.667,45.4H44.334c-1.173,0-2.133,0.96-2.133,2.133l1.581,3.161
				c0.339,0.678,1.031,1.106,1.789,1.106H55h9.431c0.758,0,1.45-0.428,1.789-1.106l1.581-3.161C67.8,46.36,66.84,45.4,65.667,45.4z"
				/>
		</g>
	</g>
</g>
</svg>
