<?xml version="1.0" encoding="iso-8859-1"?>
<!-- Generator: Adobe Illustrator 17.1.0, SVG Export Plug-In . SVG Version: 6.00 Build 0)  -->
<!DOCTYPE svg PUBLIC "-//W3C//DTD SVG 1.0//EN" "http://www.w3.org/TR/2001/REC-SVG-20010904/DTD/svg10.dtd">
<svg version="1.0" xmlns="http://www.w3.org/2000/svg" xmlns:xlink="http://www.w3.org/1999/xlink" x="0px" y="0px" width="110px"
	 height="110px" viewBox="0 0 110 110" style="enable-background:new 0 0 110 110;" xml:space="preserve">
<g id="Artboard">
</g>
<g id="Multicolor">
	<circle style="fill:#FABC3D;" cx="55" cy="55" r="55"/>
	<g>
		<path style="fill:#3E3E3F;" d="M55.878,48.531H54.07c-7.621-2.462-21.456-3.224-31.07-1.7c0.117,2.697,0.938,4.573,0.938,4.573
			l1.407,1.172c0,0,1.993,9.028,2.931,10.2c0.938,1.173,3.869,4.338,9.731,4.221s11.021-1.407,13.718-6.683
			c2.697-5.276,2.052-7.035,2.052-7.035L55,53.237l1.171,0.042c0,0-0.645,1.759,2.052,7.035c2.697,5.276,7.855,6.566,13.718,6.683
			c5.862,0.117,8.793-3.048,9.731-4.221c0.938-1.172,2.931-10.2,2.931-10.2l1.407-1.172c0,0,0.821-1.876,0.938-4.573
			C77.334,45.307,63.499,46.069,55.878,48.531z"/>
		<g>
			<path style="fill:#9E9FA0;" d="M38.291,49.207c-5.179,0.108-9.966,0.234-9.38,3.752c0.582,3.487,1.163,6.507,1.859,7.473
				l11.196-11.196C40.829,49.188,39.603,49.179,38.291,49.207z"/>
		</g>
		<g>
			<path style="fill:#9E9FA0;" d="M71.771,49.208c-5.628-0.117-9.849,0.352-10.904,2.228c-1.055,1.876,0.117,5.51,1.055,7.738
				c0.122,0.289,0.252,0.588,0.402,0.888l9.914-10.844C72.083,49.216,71.928,49.212,71.771,49.208z"/>
		</g>
	</g>
</g>
</svg>
