<?xml version="1.0" encoding="iso-8859-1"?>
<!-- Generator: Adobe Illustrator 17.1.0, SVG Export Plug-In . SVG Version: 6.00 Build 0)  -->
<!DOCTYPE svg PUBLIC "-//W3C//DTD SVG 1.0//EN" "http://www.w3.org/TR/2001/REC-SVG-20010904/DTD/svg10.dtd">
<svg version="1.0" xmlns="http://www.w3.org/2000/svg" xmlns:xlink="http://www.w3.org/1999/xlink" x="0px" y="0px" width="110px"
	 height="110px" viewBox="0 0 110 110" style="enable-background:new 0 0 110 110;" xml:space="preserve">
<g id="Artboard">
</g>
<g id="Multicolor">
	<circle style="fill:#32BEA6;" cx="55" cy="55" r="55"/>
	<g>
		<path style="fill:#3E3E3F;" d="M71.25,43c-5.906,0-11.812,3.938-11.812,3.938H55.5h-3.938c0,0-5.906-3.938-11.812-3.938
			C29.906,43,24,46.938,24,46.938v1.969h1.969c0,11.812,3.938,17.719,14.192,17.719c10.253,0,12.386-9.844,12.386-12.575
			c0-2.73,2.953-3.175,2.953-3.175s2.953,0.445,2.953,3.175c0,2.731,2.133,12.575,12.386,12.575
			c10.254,0,14.192-5.906,14.192-17.719H87v-1.969C87,46.938,81.094,43,71.25,43z"/>
		<g>
			<path style="fill:#9E9FA0;" d="M39.75,46.938c-5.437,0-9.844,2.438-9.844,7.875c0,2.199,0.73,4.223,1.949,5.862l12.885-12.885
				C43.276,47.219,41.574,46.938,39.75,46.938z"/>
		</g>
		<g>
			<path style="fill:#9E9FA0;" d="M71.441,46.938c-5.437,0-9.844,2.438-9.844,7.875c0,2.199,0.73,4.223,1.949,5.862l12.885-12.885
				C74.967,47.219,73.265,46.938,71.441,46.938z"/>
		</g>
	</g>
</g>
</svg>
