<?xml version="1.0" encoding="iso-8859-1"?>
<!-- Generator: Adobe Illustrator 17.1.0, SVG Export Plug-In . SVG Version: 6.00 Build 0)  -->
<!DOCTYPE svg PUBLIC "-//W3C//DTD SVG 1.0//EN" "http://www.w3.org/TR/2001/REC-SVG-20010904/DTD/svg10.dtd">
<svg version="1.0" xmlns="http://www.w3.org/2000/svg" xmlns:xlink="http://www.w3.org/1999/xlink" x="0px" y="0px" width="110px"
	 height="110px" viewBox="0 0 110 110" style="enable-background:new 0 0 110 110;" xml:space="preserve">
<g id="Artboard" style="display:none;">
	
		<rect x="-1096.5" y="-802.5" style="display:inline;fill:#808080;stroke:#000000;stroke-miterlimit:10;" width="1392" height="1369"/>
</g>
<g id="R-Multicolor">
	<circle style="fill:#25B7D3;" cx="55" cy="55" r="55"/>
	<g>
		<g>
			<path style="fill:#FFFFFF;" d="M81,72c0-6.627-5.373-12-12-12H41c-6.627,0-12,5.373-12,12s5.373,12,12,12h28
				C75.627,84,81,78.627,81,72z"/>
		</g>
		<g>
			<path style="fill:#FA5655;" d="M55,66c9.906,0,18.756,4.222,24.623,10.85c1.169,1.32,3.016,1.774,4.65,1.143S87,75.775,87,74
				c0-16.569-14.327-30-32-30S23,57.431,23,74c0,1.776,1.078,3.369,2.712,4.004c1.633,0.635,3.483,0.182,4.652-1.139
				C36.231,70.228,45.087,66,55,66z"/>
		</g>
		<g>
			<path style="fill:#F79392;" d="M55,44c-17.673,0-32,13.431-32,30c0,1.164,0.469,2.243,1.248,3.031l32.953-32.953
				C56.473,44.032,55.74,44,55,44z"/>
		</g>
		<g>
			<path style="fill:#F7B4B4;" d="M30.126,55.134c2.642,5.4,4.315,11.282,4.813,17.466c0.31-0.227,0.629-0.445,0.948-0.662
				c-0.577-6.237-2.325-12.166-5.04-17.606C30.603,54.596,30.36,54.862,30.126,55.134z"/>
		</g>
		<g>
			<path style="fill:#F7B4B4;" d="M44.033,67.818c0.333-0.114,0.67-0.22,1.009-0.324c0.211-5.624-1.152-13.373-4.251-20.374
				c-0.303,0.141-0.605,0.284-0.902,0.433C42.857,54.274,44.216,61.527,44.033,67.818z"/>
		</g>
		<g>
			<path style="fill:#F7B4B4;" d="M79.791,55.134c-2.642,5.4-4.315,11.282-4.813,17.466c-0.31-0.227-0.629-0.445-0.948-0.662
				c0.577-6.237,2.325-12.166,5.04-17.606C79.314,54.596,79.556,54.862,79.791,55.134z"/>
		</g>
		<g>
			<path style="fill:#F7B4B4;" d="M65.884,67.818c-0.333-0.114-0.67-0.22-1.009-0.324c-0.211-5.624,1.152-13.373,4.251-20.374
				c0.303,0.141,0.605,0.284,0.902,0.433C67.059,54.274,65.701,61.527,65.884,67.818z"/>
		</g>
		<g>
			<path style="fill:#3E3E3F;" d="M60,44v40c0,1.1-1.12,2-2.5,2h-5c-1.38,0-2.5-0.9-2.5-2V44c0-1.1,1.12-2,2.5-2h5
				C58.88,42,60,42.9,60,44z"/>
		</g>
	</g>
</g>
<g id="Multicolor" style="display:none;">
	<g style="display:inline;">
		<g>
			<path style="fill:#FFFFFF;" d="M81,72c0-6.627-5.373-12-12-12H41c-6.627,0-12,5.373-12,12s5.373,12,12,12h28
				C75.627,84,81,78.627,81,72z"/>
		</g>
		<g>
			<path style="fill:#FA5655;" d="M55,66c9.906,0,18.756,4.222,24.623,10.85c1.169,1.32,3.016,1.774,4.65,1.143S87,75.775,87,74
				c0-16.569-14.327-30-32-30S23,57.431,23,74c0,1.776,1.078,3.369,2.712,4.004c1.633,0.635,3.483,0.182,4.652-1.139
				C36.231,70.228,45.087,66,55,66z"/>
		</g>
		<g>
			<path style="fill:#F79392;" d="M55,44c-17.673,0-32,13.431-32,30c0,1.164,0.469,2.243,1.248,3.031l32.953-32.953
				C56.473,44.032,55.74,44,55,44z"/>
		</g>
		<g>
			<path style="fill:#F7B4B4;" d="M30.126,55.134c2.642,5.4,4.315,11.282,4.813,17.466c0.31-0.227,0.629-0.445,0.948-0.662
				c-0.577-6.237-2.325-12.166-5.04-17.606C30.603,54.596,30.36,54.862,30.126,55.134z"/>
		</g>
		<g>
			<path style="fill:#F7B4B4;" d="M44.033,67.818c0.333-0.114,0.67-0.22,1.009-0.324c0.211-5.624-1.152-13.373-4.251-20.374
				c-0.303,0.141-0.605,0.284-0.902,0.433C42.857,54.274,44.216,61.527,44.033,67.818z"/>
		</g>
		<g>
			<path style="fill:#F7B4B4;" d="M79.791,55.134c-2.642,5.4-4.315,11.282-4.813,17.466c-0.31-0.227-0.629-0.445-0.948-0.662
				c0.577-6.237,2.325-12.166,5.04-17.606C79.314,54.596,79.556,54.862,79.791,55.134z"/>
		</g>
		<g>
			<path style="fill:#F7B4B4;" d="M65.884,67.818c-0.333-0.114-0.67-0.22-1.009-0.324c-0.211-5.624,1.152-13.373,4.251-20.374
				c0.303,0.141,0.605,0.284,0.902,0.433C67.059,54.274,65.701,61.527,65.884,67.818z"/>
		</g>
		<g>
			<path style="fill:#3E3E3F;" d="M60,44v40c0,1.1-1.12,2-2.5,2h-5c-1.38,0-2.5-0.9-2.5-2V44c0-1.1,1.12-2,2.5-2h5
				C58.88,42,60,42.9,60,44z"/>
		</g>
	</g>
</g>
<g id="Blue" style="display:none;">
	<g style="display:inline;">
		<g>
			<path style="fill:#FFFFFF;" d="M81,72c0-6.627-5.373-12-12-12H41c-6.627,0-12,5.373-12,12s5.373,12,12,12h28
				C75.627,84,81,78.627,81,72z"/>
		</g>
		<g>
			<path style="fill:#0081A1;" d="M55,66c9.906,0,18.756,4.222,24.623,10.85c1.169,1.32,3.017,1.774,4.65,1.143
				C85.907,77.362,87,75.775,87,74c0-16.568-14.327-30-32-30S23,57.432,23,74c0,1.776,1.078,3.369,2.712,4.004
				c1.633,0.635,3.483,0.182,4.651-1.14C36.23,70.229,45.087,66,55,66z"/>
		</g>
		<g>
			<path style="fill:#009FC7;" d="M55,44c-17.673,0-32,13.431-32,30c0,1.164,0.469,2.243,1.248,3.031l32.953-32.953
				C56.473,44.032,55.74,44,55,44z"/>
		</g>
		<g>
			<path style="fill:#81D2EB;" d="M30.126,55.134c2.642,5.4,4.315,11.282,4.813,17.466c0.311-0.228,0.629-0.445,0.948-0.662
				c-0.577-6.237-2.325-12.167-5.04-17.606C30.603,54.596,30.36,54.862,30.126,55.134z"/>
		</g>
		<g>
			<path style="fill:#81D2EB;" d="M44.033,67.818c0.332-0.114,0.67-0.22,1.008-0.324c0.212-5.625-1.151-13.373-4.25-20.374
				c-0.304,0.141-0.605,0.284-0.902,0.433C42.857,54.274,44.216,61.527,44.033,67.818z"/>
		</g>
		<g>
			<path style="fill:#81D2EB;" d="M79.791,55.134c-2.643,5.4-4.315,11.282-4.813,17.466c-0.311-0.228-0.629-0.445-0.948-0.662
				c0.576-6.237,2.324-12.167,5.04-17.606C79.314,54.596,79.557,54.862,79.791,55.134z"/>
		</g>
		<g>
			<path style="fill:#81D2EB;" d="M65.884,67.818c-0.333-0.114-0.671-0.22-1.009-0.324c-0.211-5.625,1.152-13.373,4.251-20.374
				c0.304,0.141,0.605,0.284,0.902,0.433C67.06,54.274,65.701,61.527,65.884,67.818z"/>
		</g>
		<g>
			<path style="fill:#0C333D;" d="M60,44v40c0,1.1-1.12,2-2.5,2h-5c-1.38,0-2.5-0.9-2.5-2V44c0-1.1,1.12-2,2.5-2h5
				C58.88,42,60,42.9,60,44z"/>
		</g>
	</g>
</g>
<g id="R-Blue" style="display:none;">
	<circle style="display:inline;fill:#81D2EB;" cx="55" cy="55" r="55"/>
	<g style="display:inline;">
		<g>
			<path style="fill:#FFFFFF;" d="M81,72c0-6.627-5.373-12-12-12H41c-6.627,0-12,5.373-12,12c0,6.627,5.373,12,12,12h28
				C75.627,84,81,78.627,81,72z"/>
		</g>
		<g>
			<path style="fill:#0081A1;" d="M55,66c9.906,0,18.756,4.222,24.623,10.85c1.169,1.32,3.017,1.774,4.65,1.143
				C85.907,77.362,87,75.775,87,74c0-16.568-14.327-30-32-30S23,57.432,23,74c0,1.776,1.078,3.369,2.712,4.004
				c1.633,0.635,3.483,0.182,4.651-1.14C36.23,70.229,45.087,66,55,66z"/>
		</g>
		<g>
			<path style="fill:#009FC7;" d="M55,44c-17.673,0-32,13.431-32,30c0,1.164,0.469,2.243,1.248,3.031l32.953-32.953
				C56.473,44.032,55.74,44,55,44z"/>
		</g>
		<g>
			<path style="fill:#81D2EB;" d="M30.126,55.134c2.642,5.4,4.315,11.282,4.813,17.466c0.311-0.228,0.629-0.445,0.948-0.662
				c-0.577-6.237-2.325-12.167-5.04-17.606C30.603,54.596,30.36,54.862,30.126,55.134z"/>
		</g>
		<g>
			<path style="fill:#81D2EB;" d="M44.033,67.818c0.332-0.114,0.67-0.22,1.008-0.324c0.212-5.625-1.151-13.373-4.25-20.374
				c-0.304,0.141-0.605,0.284-0.902,0.433C42.857,54.274,44.216,61.527,44.033,67.818z"/>
		</g>
		<g>
			<path style="fill:#81D2EB;" d="M79.791,55.134c-2.643,5.4-4.315,11.282-4.813,17.466c-0.311-0.228-0.629-0.445-0.948-0.662
				c0.576-6.237,2.324-12.167,5.04-17.606C79.314,54.596,79.557,54.862,79.791,55.134z"/>
		</g>
		<g>
			<path style="fill:#81D2EB;" d="M65.884,67.818c-0.333-0.114-0.671-0.22-1.009-0.324c-0.211-5.625,1.152-13.373,4.251-20.374
				c0.304,0.141,0.605,0.284,0.902,0.433C67.06,54.274,65.701,61.527,65.884,67.818z"/>
		</g>
		<g>
			<path style="fill:#0C333D;" d="M60,44v40c0,1.1-1.12,2-2.5,2h-5c-1.38,0-2.5-0.9-2.5-2V44c0-1.1,1.12-2,2.5-2h5
				C58.88,42,60,42.9,60,44z"/>
		</g>
	</g>
</g>
<g id="Green" style="display:none;">
	<g style="display:inline;">
		<g>
			<path style="fill:#FFFFFF;" d="M81,72c0-6.627-5.373-12-12-12H41c-6.627,0-12,5.373-12,12s5.373,12,12,12h28
				C75.627,84,81,78.627,81,72z"/>
		</g>
		<g>
			<path style="fill:#009687;" d="M55,66c9.906,0,18.756,4.222,24.623,10.85c1.169,1.32,3.017,1.774,4.65,1.143
				C85.907,77.362,87,75.775,87,74c0-16.568-14.327-30-32-30S23,57.432,23,74c0,1.776,1.078,3.369,2.712,4.004
				c1.633,0.635,3.483,0.182,4.651-1.14C36.23,70.229,45.087,66,55,66z"/>
		</g>
		<g>
			<path style="fill:#00B8A5;" d="M55,44c-17.673,0-32,13.431-32,30c0,1.164,0.469,2.243,1.248,3.031l32.953-32.953
				C56.473,44.032,55.74,44,55,44z"/>
		</g>
		<g>
			<path style="fill:#77E0C4;" d="M30.126,55.134c2.642,5.4,4.315,11.282,4.813,17.466c0.311-0.228,0.629-0.445,0.948-0.662
				c-0.577-6.237-2.325-12.167-5.04-17.606C30.602,54.596,30.36,54.862,30.126,55.134z"/>
		</g>
		<g>
			<path style="fill:#77E0C4;" d="M44.033,67.818c0.332-0.114,0.67-0.22,1.008-0.324c0.212-5.625-1.151-13.373-4.25-20.374
				c-0.304,0.141-0.605,0.284-0.902,0.433C42.857,54.274,44.216,61.527,44.033,67.818z"/>
		</g>
		<g>
			<path style="fill:#77E0C4;" d="M79.791,55.134c-2.643,5.4-4.315,11.282-4.814,17.466c-0.31-0.228-0.629-0.445-0.948-0.662
				c0.576-6.237,2.324-12.167,5.04-17.606C79.314,54.596,79.557,54.862,79.791,55.134z"/>
		</g>
		<g>
			<path style="fill:#77E0C4;" d="M65.884,67.818c-0.333-0.114-0.671-0.22-1.009-0.324c-0.211-5.625,1.152-13.373,4.251-20.374
				c0.304,0.141,0.605,0.284,0.902,0.433C67.06,54.274,65.701,61.527,65.884,67.818z"/>
		</g>
		<g>
			<path style="fill:#0A3631;" d="M60,44v40c0,1.1-1.12,2-2.5,2h-5c-1.38,0-2.5-0.9-2.5-2V44c0-1.1,1.12-2,2.5-2h5
				C58.88,42,60,42.9,60,44z"/>
		</g>
	</g>
</g>
<g id="R-Green" style="display:none;">
	<circle style="display:inline;fill:#77E0C4;" cx="55" cy="55" r="55"/>
	<g style="display:inline;">
		<g>
			<path style="fill:#FFFFFF;" d="M81,72c0-6.627-5.373-12-12-12H41c-6.627,0-12,5.373-12,12s5.373,12,12,12h28
				C75.627,84,81,78.627,81,72z"/>
		</g>
		<g>
			<path style="fill:#009687;" d="M55,66c9.906,0,18.756,4.222,24.623,10.85c1.169,1.32,3.017,1.774,4.65,1.143
				C85.907,77.362,87,75.775,87,74c0-16.568-14.327-30-32-30S23,57.432,23,74c0,1.776,1.078,3.369,2.712,4.004
				c1.633,0.635,3.483,0.182,4.651-1.14C36.23,70.229,45.087,66,55,66z"/>
		</g>
		<g>
			<path style="fill:#00B8A5;" d="M55,44c-17.673,0-32,13.431-32,30c0,1.164,0.469,2.243,1.248,3.031l32.953-32.953
				C56.473,44.032,55.74,44,55,44z"/>
		</g>
		<g>
			<path style="fill:#77E0C4;" d="M30.126,55.134c2.642,5.4,4.315,11.282,4.813,17.466c0.311-0.228,0.629-0.445,0.948-0.662
				c-0.577-6.237-2.325-12.167-5.04-17.606C30.603,54.596,30.36,54.862,30.126,55.134z"/>
		</g>
		<g>
			<path style="fill:#77E0C4;" d="M44.033,67.818c0.332-0.114,0.67-0.22,1.008-0.324c0.212-5.625-1.151-13.373-4.25-20.374
				c-0.304,0.141-0.605,0.284-0.902,0.433C42.857,54.274,44.216,61.527,44.033,67.818z"/>
		</g>
		<g>
			<path style="fill:#77E0C4;" d="M79.791,55.134c-2.643,5.4-4.315,11.282-4.813,17.466c-0.311-0.228-0.629-0.445-0.948-0.662
				c0.576-6.237,2.324-12.167,5.04-17.606C79.314,54.596,79.557,54.862,79.791,55.134z"/>
		</g>
		<g>
			<path style="fill:#77E0C4;" d="M65.884,67.818c-0.333-0.114-0.671-0.22-1.009-0.324c-0.211-5.625,1.152-13.373,4.251-20.374
				c0.304,0.141,0.605,0.284,0.902,0.433C67.06,54.274,65.701,61.527,65.884,67.818z"/>
		</g>
		<g>
			<path style="fill:#0A3631;" d="M60,44v40c0,1.1-1.12,2-2.5,2h-5c-1.38,0-2.5-0.9-2.5-2V44c0-1.1,1.12-2,2.5-2h5
				C58.88,42,60,42.9,60,44z"/>
		</g>
	</g>
</g>
<g id="Red" style="display:none;">
	<g style="display:inline;">
		<g>
			<path style="fill:#FFFFFF;" d="M81,72c0-6.627-5.373-12-12-12H41c-6.627,0-12,5.373-12,12s5.373,12,12,12h28
				C75.627,84,81,78.627,81,72z"/>
		</g>
		<g>
			<path style="fill:#C23023;" d="M55,66c9.906,0,18.756,4.222,24.623,10.85c1.169,1.32,3.017,1.774,4.65,1.143
				C85.907,77.362,87,75.775,87,74c0-16.568-14.327-30-32-30c-17.673,0-32,13.432-32,30c0,1.776,1.078,3.369,2.712,4.004
				c1.633,0.635,3.483,0.182,4.651-1.14C36.23,70.229,45.087,66,55,66z"/>
		</g>
		<g>
			<path style="fill:#E54B44;" d="M55,44c-17.673,0-32,13.431-32,30c0,1.164,0.469,2.243,1.248,3.031l32.953-32.953
				C56.473,44.032,55.74,44,55,44z"/>
		</g>
		<g>
			<path style="fill:#FABBAF;" d="M30.126,55.134c2.642,5.4,4.315,11.282,4.813,17.466c0.311-0.228,0.629-0.445,0.948-0.662
				c-0.577-6.237-2.325-12.167-5.04-17.606C30.603,54.596,30.36,54.862,30.126,55.134z"/>
		</g>
		<g>
			<path style="fill:#FABBAF;" d="M44.033,67.818c0.332-0.114,0.67-0.22,1.008-0.324c0.212-5.625-1.151-13.373-4.25-20.374
				c-0.304,0.141-0.606,0.284-0.902,0.433C42.857,54.274,44.216,61.527,44.033,67.818z"/>
		</g>
		<g>
			<path style="fill:#FABBAF;" d="M79.791,55.134c-2.643,5.4-4.315,11.282-4.813,17.466c-0.311-0.228-0.629-0.445-0.948-0.662
				c0.576-6.237,2.324-12.167,5.04-17.606C79.314,54.596,79.557,54.862,79.791,55.134z"/>
		</g>
		<g>
			<path style="fill:#FABBAF;" d="M65.884,67.818c-0.333-0.114-0.671-0.22-1.009-0.324c-0.211-5.625,1.152-13.373,4.251-20.374
				c0.304,0.141,0.605,0.284,0.902,0.433C67.06,54.274,65.701,61.527,65.884,67.818z"/>
		</g>
		<g>
			<path style="fill:#4A1410;" d="M60,44v40c0,1.1-1.12,2-2.5,2h-5c-1.38,0-2.5-0.9-2.5-2V44c0-1.1,1.12-2,2.5-2h5
				C58.88,42,60,42.9,60,44z"/>
		</g>
	</g>
</g>
<g id="R-Red" style="display:none;">
	<circle style="display:inline;fill:#FABBAF;" cx="55" cy="55" r="55"/>
	<g style="display:inline;">
		<g>
			<path style="fill:#FFFFFF;" d="M81,72c0-6.627-5.373-12-12-12H41c-6.627,0-12,5.373-12,12s5.373,12,12,12h28
				C75.627,84,81,78.627,81,72z"/>
		</g>
		<g>
			<path style="fill:#C23023;" d="M55,66c9.906,0,18.756,4.222,24.623,10.85c1.169,1.32,3.017,1.774,4.65,1.143
				C85.907,77.362,87,75.775,87,74c0-16.568-14.327-30-32-30c-17.673,0-32,13.432-32,30c0,1.776,1.078,3.369,2.712,4.004
				c1.633,0.635,3.483,0.182,4.651-1.14C36.23,70.229,45.087,66,55,66z"/>
		</g>
		<g>
			<path style="fill:#E54B44;" d="M55,44c-17.673,0-32,13.431-32,30c0,1.164,0.469,2.243,1.248,3.031l32.953-32.953
				C56.473,44.032,55.74,44,55,44z"/>
		</g>
		<g>
			<path style="fill:#FABBAF;" d="M30.126,55.134c2.642,5.4,4.315,11.282,4.813,17.466c0.311-0.228,0.629-0.445,0.948-0.662
				c-0.577-6.237-2.325-12.167-5.04-17.606C30.603,54.596,30.36,54.862,30.126,55.134z"/>
		</g>
		<g>
			<path style="fill:#FABBAF;" d="M44.033,67.818c0.332-0.114,0.67-0.22,1.008-0.324c0.212-5.625-1.151-13.373-4.25-20.374
				c-0.304,0.141-0.606,0.284-0.902,0.433C42.857,54.274,44.216,61.527,44.033,67.818z"/>
		</g>
		<g>
			<path style="fill:#FABBAF;" d="M79.791,55.134c-2.643,5.4-4.315,11.282-4.813,17.466c-0.311-0.228-0.629-0.445-0.948-0.662
				c0.576-6.237,2.324-12.167,5.04-17.606C79.314,54.596,79.557,54.862,79.791,55.134z"/>
		</g>
		<g>
			<path style="fill:#FABBAF;" d="M65.884,67.818c-0.333-0.114-0.671-0.22-1.009-0.324c-0.211-5.625,1.152-13.373,4.251-20.374
				c0.304,0.141,0.605,0.284,0.902,0.433C67.06,54.274,65.701,61.527,65.884,67.818z"/>
		</g>
		<g>
			<path style="fill:#4A1410;" d="M60,44v40c0,1.1-1.12,2-2.5,2h-5c-1.38,0-2.5-0.9-2.5-2V44c0-1.1,1.12-2,2.5-2h5
				C58.88,42,60,42.9,60,44z"/>
		</g>
	</g>
</g>
<g id="Yellow" style="display:none;">
	<g style="display:inline;">
		<g>
			<path style="fill:#FFFFFF;" d="M81,72c0-6.627-5.373-12-12-12H41c-6.627,0-12,5.373-12,12s5.373,12,12,12h28
				C75.627,84,81,78.627,81,72z"/>
		</g>
		<g>
			<path style="fill:#E07000;" d="M55,66c9.906,0,18.756,4.222,24.623,10.85c1.169,1.32,3.017,1.774,4.65,1.143
				C85.907,77.362,87,75.775,87,74c0-16.568-14.327-30-32-30S23,57.432,23,74c0,1.776,1.078,3.369,2.712,4.004
				c1.633,0.635,3.483,0.182,4.651-1.14C36.23,70.229,45.087,66,55,66z"/>
		</g>
		<g>
			<path style="fill:#FA9200;" d="M55,44c-17.673,0-32,13.431-32,30c0,1.164,0.469,2.243,1.248,3.031l32.953-32.953
				C56.473,44.032,55.74,44,55,44z"/>
		</g>
		<g>
			<path style="fill:#FFD75E;" d="M30.126,55.134c2.642,5.4,4.315,11.282,4.813,17.466c0.311-0.228,0.629-0.445,0.948-0.662
				c-0.577-6.237-2.325-12.167-5.04-17.606C30.603,54.596,30.36,54.862,30.126,55.134z"/>
		</g>
		<g>
			<path style="fill:#FFD75E;" d="M44.033,67.818c0.332-0.114,0.67-0.22,1.008-0.324c0.212-5.625-1.151-13.373-4.25-20.374
				c-0.304,0.141-0.605,0.284-0.902,0.433C42.857,54.274,44.216,61.527,44.033,67.818z"/>
		</g>
		<g>
			<path style="fill:#FFD75E;" d="M79.791,55.134c-2.643,5.4-4.315,11.282-4.813,17.466c-0.311-0.228-0.629-0.445-0.948-0.662
				c0.576-6.237,2.324-12.167,5.04-17.606C79.314,54.596,79.557,54.862,79.791,55.134z"/>
		</g>
		<g>
			<path style="fill:#FFD75E;" d="M65.884,67.818c-0.333-0.114-0.671-0.22-1.009-0.324c-0.211-5.625,1.152-13.373,4.251-20.374
				c0.304,0.141,0.605,0.284,0.902,0.433C67.06,54.274,65.701,61.527,65.884,67.818z"/>
		</g>
		<g>
			<path style="fill:#3D320C;" d="M60,44v40c0,1.1-1.12,2-2.5,2h-5c-1.38,0-2.5-0.9-2.5-2V44c0-1.1,1.12-2,2.5-2h5
				C58.88,42,60,42.9,60,44z"/>
		</g>
	</g>
</g>
<g id="R-Yellow" style="display:none;">
	<circle style="display:inline;fill:#FFD75E;" cx="55" cy="55" r="55"/>
	<g style="display:inline;">
		<g>
			<path style="fill:#FFFFFF;" d="M81,72c0-6.627-5.373-12-12-12H41c-6.627,0-12,5.373-12,12s5.373,12,12,12h28
				C75.627,84,81,78.627,81,72z"/>
		</g>
		<g>
			<path style="fill:#E07000;" d="M55,66c9.906,0,18.756,4.222,24.623,10.85c1.169,1.32,3.017,1.774,4.65,1.143
				C85.907,77.362,87,75.775,87,74c0-16.568-14.327-30-32-30S23,57.432,23,74c0,1.776,1.078,3.369,2.712,4.004
				c1.633,0.635,3.483,0.182,4.651-1.14C36.23,70.229,45.087,66,55,66z"/>
		</g>
		<g>
			<path style="fill:#FA9200;" d="M55,44c-17.673,0-32,13.431-32,30c0,1.164,0.469,2.243,1.248,3.031l32.953-32.953
				C56.473,44.032,55.74,44,55,44z"/>
		</g>
		<g>
			<path style="fill:#FFD75E;" d="M30.126,55.134c2.642,5.4,4.315,11.282,4.813,17.466c0.311-0.228,0.629-0.445,0.948-0.662
				c-0.577-6.237-2.325-12.167-5.04-17.606C30.602,54.596,30.36,54.862,30.126,55.134z"/>
		</g>
		<g>
			<path style="fill:#FFD75E;" d="M44.033,67.818c0.332-0.114,0.67-0.22,1.008-0.324c0.212-5.625-1.151-13.373-4.25-20.374
				c-0.304,0.141-0.605,0.284-0.902,0.433C42.857,54.274,44.216,61.527,44.033,67.818z"/>
		</g>
		<g>
			<path style="fill:#FFD75E;" d="M79.791,55.134c-2.643,5.4-4.315,11.282-4.814,17.466c-0.31-0.228-0.629-0.445-0.948-0.662
				c0.576-6.237,2.324-12.167,5.04-17.606C79.314,54.596,79.557,54.862,79.791,55.134z"/>
		</g>
		<g>
			<path style="fill:#FFD75E;" d="M65.884,67.818c-0.333-0.114-0.671-0.22-1.009-0.324c-0.211-5.625,1.152-13.373,4.251-20.374
				c0.304,0.141,0.605,0.284,0.902,0.433C67.06,54.274,65.701,61.527,65.884,67.818z"/>
		</g>
		<g>
			<path style="fill:#3D320C;" d="M60,44v40c0,1.1-1.12,2-2.5,2h-5c-1.38,0-2.5-0.9-2.5-2V44c0-1.1,1.12-2,2.5-2h5
				C58.88,42,60,42.9,60,44z"/>
		</g>
	</g>
</g>
</svg>
