<?xml version="1.0" encoding="iso-8859-1"?>
<!-- Generator: Adobe Illustrator 17.1.0, SVG Export Plug-In . SVG Version: 6.00 Build 0)  -->
<!DOCTYPE svg PUBLIC "-//W3C//DTD SVG 1.0//EN" "http://www.w3.org/TR/2001/REC-SVG-20010904/DTD/svg10.dtd">
<svg version="1.0" xmlns="http://www.w3.org/2000/svg" xmlns:xlink="http://www.w3.org/1999/xlink" x="0px" y="0px" width="110px"
	 height="110px" viewBox="0 0 110 110" style="enable-background:new 0 0 110 110;" xml:space="preserve">
<g id="Artboard">
</g>
<g id="Multicolor">
	<circle style="fill:#25B7D3;" cx="54.8" cy="55" r="55"/>
	<g>
		<g>
			<path style="fill:#E2E4E5;" d="M86.38,23.62L84.26,41.3L47.38,69.98c-3.07-1.86-5.52-4.3-7.38-7.34l28.7-36.9L86.38,23.62z"/>
		</g>
		<g>
			<path style="fill:#F3B607;" d="M34.79,79.45C35.83,83.32,32.89,87,29,87c-3.31,0-6-2.69-6-6c0-3.9,3.69-6.83,7.55-5.79l6.43-6.44
				c0.62,0.77,1.27,1.5,1.97,2.2c0.72,0.72,1.48,1.4,2.29,2.04L34.79,79.45z"/>
		</g>
		<g>
			<path style="fill:#FACB1B;" d="M58.04,75.92l-2.12,2.12l-0.01-0.01c-0.74,0.73-1.82,1.07-2.9,0.77
				c-5.335-1.445-10.183-3.954-14.06-7.83c-3.886-3.887-6.384-8.718-7.84-14.07c-0.29-1.07,0.05-2.16,0.78-2.9h-0.01L34,51.87
				c1.17-1.17,3.07-1.17,4.24,0c1.17,1.18,1.17,3.08,0,4.25l-0.85,0.84c2.53,7.78,7.74,12.99,15.56,15.56l0.85-0.85
				c1.17-1.17,3.07-1.17,4.24,0C59.21,72.85,59.21,74.74,58.04,75.92z"/>
		</g>
		<g>
			<path style="fill:#FFFFFF;" d="M68.7,25.74L40,62.64c0.924,1.51,1.994,2.872,3.213,4.088l43.1-43.1L68.7,25.74z"/>
		</g>
		<g>
			<path style="fill:#FBE158;" d="M37.39,56.96l0.85-0.84c1.17-1.17,1.17-3.07,0-4.25c-1.17-1.17-3.07-1.17-4.24,0L31.88,54h0.01
				c-0.73,0.74-1.07,1.83-0.78,2.9c1.456,5.352,3.954,10.183,7.84,14.07c0.004,0.003,0.007,0.006,0.011,0.01l4.257-4.257
				C40.606,64.122,38.66,60.865,37.39,56.96z"/>
		</g>
		<g>
			<path style="fill:#FACB1B;" d="M38.95,70.97c-0.7-0.7-1.35-1.43-1.97-2.2l-6.43,6.44C26.69,74.17,23,77.1,23,81
				c0,1.64,0.662,3.127,1.731,4.21l14.23-14.23C38.957,70.977,38.953,70.974,38.95,70.97z"/>
		</g>
	</g>
</g>
</svg>
