<?xml version="1.0" encoding="iso-8859-1"?>
<!-- Generator: Adobe Illustrator 17.1.0, SVG Export Plug-In . SVG Version: 6.00 Build 0)  -->
<!DOCTYPE svg PUBLIC "-//W3C//DTD SVG 1.0//EN" "http://www.w3.org/TR/2001/REC-SVG-20010904/DTD/svg10.dtd">
<svg version="1.0" xmlns="http://www.w3.org/2000/svg" xmlns:xlink="http://www.w3.org/1999/xlink" x="0px" y="0px" width="110px"
	 height="110px" viewBox="0 0 110 110" style="enable-background:new 0 0 110 110;" xml:space="preserve">
<g id="Artboard">
</g>
<g id="Multicolor">
	<circle style="fill:#25B7D3;" cx="55" cy="54.848" r="55"/>
	<g>
		<path style="fill:#F0F1F1;" d="M87,56.848c0-5.885-3.635-10.913-8.778-12.983C74.146,33.898,67.562,29.848,59.5,29.848
			c-7.579,0-14.148,4.319-17.369,10.637c-5.125-2.183-10.902,1.442-11.116,7.055C26.35,49.185,23,53.62,23,58.848
			c0,6.627,5.373,12,12,12h40C75,70.848,87,68.622,87,56.848z"/>
		<path style="fill:#FFFFFF;" d="M59.5,29.848c-7.579,0-14.148,4.319-17.369,10.637c-0.962-0.41-2.02-0.637-3.131-0.637
			c-4.314,0-7.821,3.417-7.984,7.692C26.35,49.185,23,53.62,23,58.848c0,6.293,4.847,11.446,11.011,11.95l37.095-37.096
			C67.775,31.044,63.856,29.848,59.5,29.848z"/>
		<g>
			<path style="fill:#21B2D1;" d="M51.057,52.966l-2.131-0.026l-0.004-0.047c0-5.034,4.094-9.127,9.127-9.127
				c2.226,0,4.242,0.833,5.828,2.161l2.316-3.381c-2.245-1.771-5.069-2.836-8.144-2.836c-7.269,0-13.184,5.914-13.184,13.184
				l-1.97-0.024c-0.91-0.013-1.264,0.613-0.784,1.388l3.888,6.278c0.48,0.775,1.28,0.783,1.777,0.019l4.033-6.181
				C52.306,53.609,51.968,52.977,51.057,52.966z"/>
			<path style="fill:#21B2D1;" d="M74.092,50.633l-3.888-6.278c-0.479-0.775-1.28-0.783-1.776-0.019l-4.033,6.181
				c-0.497,0.764-0.159,1.397,0.751,1.408l2.131,0.026l0.004,0.047c0,5.034-4.095,9.127-9.127,9.127
				c-2.227,0-4.242-0.831-5.827-2.161l-2.317,3.381c2.245,1.771,5.069,2.836,8.144,2.836c7.27,0,13.184-5.914,13.184-13.184
				l1.971,0.024C74.218,52.034,74.571,51.408,74.092,50.633z"/>
		</g>
	</g>
</g>
</svg>
