<?xml version="1.0" encoding="iso-8859-1"?>
<!-- Generator: Adobe Illustrator 17.1.0, SVG Export Plug-In . SVG Version: 6.00 Build 0)  -->
<!DOCTYPE svg PUBLIC "-//W3C//DTD SVG 1.0//EN" "http://www.w3.org/TR/2001/REC-SVG-20010904/DTD/svg10.dtd">
<svg version="1.0" xmlns="http://www.w3.org/2000/svg" xmlns:xlink="http://www.w3.org/1999/xlink" x="0px" y="0px" width="110px"
	 height="110px" viewBox="0 0 110 110" style="enable-background:new 0 0 110 110;" xml:space="preserve">
<g id="Artboard">
</g>
<g id="Multicolor">
	<circle style="fill:#25B7D3;" cx="55" cy="55" r="55"/>
	<g>
		<g>
			<path style="fill:#F0F1F1;" d="M81.586,36.728L70.272,25.414l2.121-2.121c0.391-0.391,1.024-0.391,1.414,0l9.899,9.899
				c0.391,0.391,0.391,1.024,0,1.414L81.586,36.728z"/>
		</g>
		<g>
			
				<rect x="69.101" y="29.899" transform="matrix(0.7071 0.7071 -0.7071 0.7071 45.3812 -41.7609)" style="fill:#E2E4E5;" width="8" height="8"/>
		</g>
		<g>
			
				<rect x="54.858" y="36.142" transform="matrix(0.7071 0.7071 -0.7071 0.7071 47.1386 -37.5183)" style="fill:#9CE5F4;" width="28" height="4"/>
		</g>
		<g>
			
				<rect x="46.13" y="34.87" transform="matrix(0.7071 0.7071 -0.7071 0.7071 52.4106 -24.7904)" style="fill:#6FDAF1;" width="20" height="32"/>
		</g>
		<g>
			
				<rect x="39.402" y="61.598" transform="matrix(0.7071 0.7071 -0.7071 0.7071 57.6827 -12.0624)" style="fill:#E2E4E5;" width="8" height="4"/>
		</g>
		<g>
			<polygon style="fill:#FFFFFF;" points="22.896,86.933 22.896,81.276 40.574,63.598 43.402,66.426 			"/>
		</g>
		<g>
			<path style="fill:#FFFFFF;" d="M70.272,25.414l2.828,2.828l2.828,2.828l2.828-2.828l-4.95-4.95c-0.391-0.391-1.024-0.391-1.414,0
				L70.272,25.414z"/>
		</g>
		<g>
			
				<rect x="67.686" y="30.485" transform="matrix(0.7071 -0.7071 0.7071 0.7071 -1.9741 60.2046)" style="fill:#F0F1F1;" width="8" height="4"/>
		</g>
		<g>
			<polygon style="fill:#C9F2F8;" points="60.373,26.828 57.544,29.657 60.373,32.485 67.444,39.556 70.272,36.728 67.444,33.899 
							"/>
		</g>
		<g>
			<polygon style="fill:#9CE5F4;" points="37.745,55.113 41.988,59.355 44.816,62.184 67.444,39.556 60.373,32.485 			"/>
		</g>
		<g>
			<polygon style="fill:#F0F1F1;" points="39.159,62.184 40.574,63.598 41.988,65.012 44.816,62.184 41.988,59.355 			"/>
		</g>
		<g>
			<g>
				
					<rect x="54.544" y="38.556" transform="matrix(0.7071 0.7071 -0.7071 0.7071 44.8249 -29.1041)" style="fill:#C9F2F8;" width="6" height="2"/>
			</g>
			<g>
				
					<rect x="50.302" y="42.799" transform="matrix(0.7071 0.7071 -0.7071 0.7071 46.5822 -24.8614)" style="fill:#C9F2F8;" width="6" height="2"/>
			</g>
			<g>
				
					<rect x="46.059" y="47.042" transform="matrix(0.7071 0.7071 -0.7071 0.7071 48.3396 -20.6188)" style="fill:#C9F2F8;" width="6" height="2"/>
			</g>
			<g>
				
					<rect x="41.816" y="51.284" transform="matrix(0.7071 0.7071 -0.7071 0.7071 50.0969 -16.3762)" style="fill:#C9F2F8;" width="6" height="2"/>
			</g>
		</g>
	</g>
</g>
</svg>
