<?xml version="1.0" encoding="iso-8859-1"?>
<!-- Generator: Adobe Illustrator 17.1.0, SVG Export Plug-In . SVG Version: 6.00 Build 0)  -->
<!DOCTYPE svg PUBLIC "-//W3C//DTD SVG 1.0//EN" "http://www.w3.org/TR/2001/REC-SVG-20010904/DTD/svg10.dtd">
<svg version="1.0" xmlns="http://www.w3.org/2000/svg" xmlns:xlink="http://www.w3.org/1999/xlink" x="0px" y="0px" width="110px"
	 height="110px" viewBox="0 0 110 110" style="enable-background:new 0 0 110 110;" xml:space="preserve">
<g id="Artboard">
</g>
<g id="Multicolor">
	<circle style="fill:#E04F5F;" cx="55" cy="55" r="55"/>
	<g>
		<g>
			<path style="fill:#EDBC7C;" d="M65.905,80c-2-3-3.834-5.007-11-5c-7.166-0.007-9,2-11,5c-1.132,1.698-3.29,5-6.906,5
				c0,0.544,0.236,1.062,0.646,1.418s0.951,0.429,1.495,0.442c9.758,0.232,4.962-7.846,15.765-7.861
				c10.802,0.015,6.007,8.093,15.765,7.861c0.544-0.013,1.084-0.085,1.495-0.442S72.81,85.544,72.81,85
				C69.195,85,67.037,81.698,65.905,80z"/>
		</g>
		<g>
			<path style="fill:#EDBC7C;" d="M79.405,52c0,2.209-1.791,4-4,4h-41c-2.209,0-4-1.791-4-4H79.405z"/>
		</g>
		<g>
			<path style="fill:#FFFFFF;" d="M63.605,46.2c0,4.35-3.9,5.8-8.7,5.8s-8.7-1.45-8.7-5.8s3.9-5.8,8.7-5.8S63.605,41.85,63.605,46.2
				z"/>
		</g>
		<g>
			<path style="fill:#D4A263;" d="M75.405,59c0,0.552-0.448,1-1,1h-39c-0.552,0-1-0.448-1-1v-3h41V59z"/>
		</g>
		<g>
			<path style="fill:#D4A263;" d="M52.905,65.75V86c0,0.552,0.448,1,1,1h2c0.552,0,1-0.448,1-1V65.75
				C55.571,66.083,54.238,66.083,52.905,65.75z"/>
		</g>
		<g>
			<path style="fill:#EDBC7C;" d="M58.905,60h-8v5c2.667,1.333,5.333,1.333,8,0V60z"/>
		</g>
		<g>
			<polygon style="fill:#FACB1B;" points="40.905,41.667 68.905,41.667 61.127,23 48.682,23 			"/>
		</g>
		<g>
			<polygon style="fill:#FBE158;" points="54.905,23 48.682,23 40.905,41.667 54.905,41.667 			"/>
		</g>
	</g>
</g>
</svg>
