<?xml version="1.0" encoding="iso-8859-1"?>
<!-- Generator: Adobe Illustrator 17.1.0, SVG Export Plug-In . SVG Version: 6.00 Build 0)  -->
<!DOCTYPE svg PUBLIC "-//W3C//DTD SVG 1.0//EN" "http://www.w3.org/TR/2001/REC-SVG-20010904/DTD/svg10.dtd">
<svg version="1.0" xmlns="http://www.w3.org/2000/svg" xmlns:xlink="http://www.w3.org/1999/xlink" x="0px" y="0px" width="110px"
	 height="110px" viewBox="0 0 110 110" style="enable-background:new 0 0 110 110;" xml:space="preserve">
<g id="Artboard" style="display:none;">
	
		<rect x="-200.5" y="-1058.5" style="display:inline;fill:#808080;stroke:#000000;stroke-miterlimit:10;" width="1392" height="1369"/>
</g>
<g id="R-Multicolor">
	<circle style="fill:#32BEA6;" cx="55" cy="55" r="55"/>
	<g>
		<g>
			<circle style="fill:#FFFFFF;" cx="55" cy="58" r="20"/>
		</g>
		<g>
			<circle style="fill:#E2E4E5;" cx="55" cy="58" r="16"/>
		</g>
		<g>
			<path style="fill:#E2E4E5;" d="M77,43.18c0-6.852,3.871-13.116,10-16.18v31H77V43.18z"/>
		</g>
		<g>
			<path style="fill:#FFFFFF;" d="M79,44.18c0-6.072,3.044-11.676,8-15.008V27c-6.129,3.064-10,9.328-10,16.18V58h2V44.18z"/>
		</g>
		<g>
			<path style="fill:#F0F1F1;" d="M34,31c-0.552,0-1,0.448-1,1v4.5c0,0.828-0.672,1.5-1.5,1.5c-0.828,0-1.5-0.672-1.5-1.5V32
				c0-0.552-0.448-1-1-1s-1,0.448-1,1v4.5c0,0.828-0.672,1.5-1.5,1.5c-0.828,0-1.5-0.672-1.5-1.5V32c0-0.552-0.448-1-1-1
				s-1,0.448-1,1v10c0,2.573,1.623,4.762,3.899,5.614l-1.65,26.394C25.114,76.172,26.835,78,29,78c2.168,0,3.886-1.831,3.75-3.992
				l-1.65-26.394C33.377,46.762,35,44.573,35,42V32C35,31.448,34.552,31,34,31z"/>
		</g>
		<g>
			<path style="fill:#84462D;" d="M80,58v16.5c0,1.933,1.567,3.5,3.5,3.5s3.5-1.567,3.5-3.5V58H80z M83.5,76c-0.552,0-1-0.448-1-1
				s0.448-1,1-1s1,0.448,1,1S84.052,76,83.5,76z"/>
		</g>
		<g>
			<path style="fill:#9C6144;" d="M80,74.5c0,1.933,1.567,3.5,3.5,3.5c0.011,0,0.021-0.003,0.031-0.003v-2.003
				C83.52,75.994,83.511,76,83.5,76c-0.552,0-1-0.448-1-1s0.448-1,1-1c0.011,0,0.02,0.006,0.031,0.006V58H80V74.5z"/>
		</g>
		<g>
			<path style="fill:#FFFFFF;" d="M55,38c-11.046,0-20,8.954-20,20c0,5.472,2.202,10.426,5.762,14.037l28.275-28.275
				C65.426,40.202,60.472,38,55,38z"/>
		</g>
		<g>
			<path style="fill:#F0F1F1;" d="M55,42c-8.836,0-16,7.164-16,16c0,4.367,1.754,8.321,4.591,11.208l22.618-22.618
				C63.322,43.754,59.367,42,55,42z"/>
		</g>
		<g>
			<path style="fill:#FFFFFF;" d="M28.986,31.003C28.441,31.011,28,31.453,28,32v4.5c0,0.829-0.671,1.5-1.5,1.5
				c-0.828,0-1.5-0.671-1.5-1.5V32c0-0.552-0.447-1-1-1c-0.552,0-1,0.448-1,1v10c0,2.574,1.624,4.762,3.899,5.614L25.25,74.008
				c-0.135,2.151,1.567,3.983,3.736,3.991V31.003z"/>
		</g>
	</g>
</g>
<g id="Multicolor" style="display:none;">
	<g style="display:inline;">
		<g>
			<circle style="fill:#FFFFFF;" cx="55" cy="58" r="20"/>
		</g>
		<g>
			<circle style="fill:#E2E4E5;" cx="55" cy="58" r="16"/>
		</g>
		<g>
			<path style="fill:#E2E4E5;" d="M77,43.18c0-6.852,3.871-13.116,10-16.18v31H77V43.18z"/>
		</g>
		<g>
			<path style="fill:#FFFFFF;" d="M79,44.18c0-6.072,3.044-11.676,8-15.008V27c-6.129,3.064-10,9.328-10,16.18V58h2V44.18z"/>
		</g>
		<g>
			<path style="fill:#F0F1F1;" d="M34,31c-0.552,0-1,0.448-1,1v4.5c0,0.828-0.672,1.5-1.5,1.5c-0.828,0-1.5-0.672-1.5-1.5V32
				c0-0.552-0.448-1-1-1s-1,0.448-1,1v4.5c0,0.828-0.672,1.5-1.5,1.5c-0.828,0-1.5-0.672-1.5-1.5V32c0-0.552-0.448-1-1-1
				s-1,0.448-1,1v10c0,2.573,1.623,4.762,3.899,5.614l-1.65,26.394C25.114,76.172,26.835,78,29,78c2.168,0,3.886-1.831,3.75-3.992
				l-1.65-26.394C33.377,46.762,35,44.573,35,42V32C35,31.448,34.552,31,34,31z"/>
		</g>
		<g>
			<path style="fill:#84462D;" d="M80,58v16.5c0,1.933,1.567,3.5,3.5,3.5s3.5-1.567,3.5-3.5V58H80z M83.5,76c-0.552,0-1-0.448-1-1
				s0.448-1,1-1s1,0.448,1,1S84.052,76,83.5,76z"/>
		</g>
		<g>
			<path style="fill:#9C6144;" d="M80,74.5c0,1.933,1.567,3.5,3.5,3.5c0.011,0,0.021-0.003,0.031-0.003v-2.003
				C83.52,75.994,83.511,76,83.5,76c-0.552,0-1-0.448-1-1s0.448-1,1-1c0.011,0,0.02,0.006,0.031,0.006V58H80V74.5z"/>
		</g>
		<g>
			<path style="fill:#FFFFFF;" d="M55,38c-11.046,0-20,8.954-20,20c0,5.472,2.202,10.426,5.762,14.037l28.275-28.275
				C65.426,40.202,60.472,38,55,38z"/>
		</g>
		<g>
			<path style="fill:#F0F1F1;" d="M55,42c-8.836,0-16,7.164-16,16c0,4.367,1.754,8.321,4.591,11.208l22.618-22.618
				C63.322,43.754,59.367,42,55,42z"/>
		</g>
		<g>
			<path style="fill:#FFFFFF;" d="M28.986,31.003C28.441,31.011,28,31.453,28,32v4.5c0,0.829-0.671,1.5-1.5,1.5
				c-0.828,0-1.5-0.671-1.5-1.5V32c0-0.552-0.447-1-1-1c-0.552,0-1,0.448-1,1v10c0,2.574,1.624,4.762,3.899,5.614L25.25,74.008
				c-0.135,2.151,1.567,3.983,3.736,3.991V31.003z"/>
		</g>
	</g>
</g>
<g id="Blue" style="display:none;">
	<g style="display:inline;">
		<g>
			<circle style="fill:#FFFFFF;" cx="55" cy="58" r="20"/>
		</g>
		<g>
			<circle style="fill:#BBE7F2;" cx="55" cy="58" r="16"/>
		</g>
		<g>
			<path style="fill:#E1F5FA;" d="M77,43.181C77,36.329,80.871,30.065,87,27v31H77V43.181z"/>
		</g>
		<g>
			<path style="fill:#FFFFFF;" d="M79,44.181c0-6.072,3.044-11.676,8-15.008V27c-6.129,3.065-10,9.329-10,16.181V58h2V44.181z"/>
		</g>
		<g>
			<path style="fill:#E1F5FA;" d="M34,31c-0.553,0-1,0.448-1,1v4.5c0,0.829-0.672,1.5-1.5,1.5c-0.828,0-1.5-0.671-1.5-1.5V32
				c0-0.552-0.447-1-1-1s-1,0.448-1,1v4.5c0,0.829-0.672,1.5-1.5,1.5S25,37.329,25,36.5V32c0-0.552-0.447-1-1-1s-1,0.448-1,1v10
				c0,2.574,1.623,4.762,3.899,5.614L25.25,74.008C25.114,76.172,26.835,78,29,78c2.168,0,3.886-1.831,3.75-3.992l-1.649-26.393
				C33.377,46.762,35,44.574,35,42V32C35,31.448,34.553,31,34,31z"/>
		</g>
		<g>
			<path style="fill:#0C333D;" d="M80,58v16.5c0,1.933,1.566,3.5,3.5,3.5s3.5-1.567,3.5-3.5V58H80z M83.5,76c-0.553,0-1-0.448-1-1
				s0.447-1,1-1c0.553,0,1,0.448,1,1S84.053,76,83.5,76z"/>
		</g>
		<g>
			<path style="fill:#0F6175;" d="M80,74.5c0,1.933,1.566,3.5,3.5,3.5c0.011,0,0.021-0.003,0.031-0.003v-2.003
				c-0.011,0-0.02,0.006-0.031,0.006c-0.553,0-1-0.448-1-1s0.447-1,1-1c0.012,0,0.021,0.006,0.031,0.006V58H80V74.5z"/>
		</g>
		<g>
			<path style="fill:#FFFFFF;" d="M55,38c-11.045,0-20,8.955-20,20c0,5.472,2.202,10.426,5.762,14.037l28.275-28.275
				C65.426,40.202,60.472,38,55,38z"/>
		</g>
		<g>
			<path style="fill:#E1F5FA;" d="M55,42c-8.836,0-16,7.164-16,16c0,4.367,1.754,8.321,4.591,11.209l22.618-22.618
				C63.321,43.754,59.367,42,55,42z"/>
		</g>
		<g>
			<path style="fill:#FFFFFF;" d="M28.986,31.003C28.441,31.011,28,31.453,28,32v4.5c0,0.829-0.672,1.5-1.5,1.5S25,37.329,25,36.5
				V32c0-0.552-0.447-1-1-1c-0.552,0-1,0.448-1,1v10c0,2.574,1.623,4.762,3.899,5.614L25.25,74.008
				c-0.135,2.151,1.567,3.982,3.736,3.991V31.003z"/>
		</g>
	</g>
</g>
<g id="R-Blue" style="display:none;">
	<circle style="display:inline;fill:#81D2EB;" cx="55" cy="55" r="55"/>
	<g style="display:inline;">
		<g>
			<circle style="fill:#FFFFFF;" cx="55" cy="58" r="20"/>
		</g>
		<g>
			<circle style="fill:#BBE7F2;" cx="55" cy="58" r="16"/>
		</g>
		<g>
			<path style="fill:#E1F5FA;" d="M77,43.181C77,36.329,80.871,30.064,87,27v31H77V43.181z"/>
		</g>
		<g>
			<path style="fill:#FFFFFF;" d="M79,44.181c0-6.072,3.044-11.676,8-15.008V27c-6.129,3.065-10,9.329-10,16.181V58h2V44.181z"/>
		</g>
		<g>
			<path style="fill:#E1F5FA;" d="M34,31c-0.553,0-1,0.448-1,1v4.5c0,0.829-0.672,1.5-1.5,1.5c-0.828,0-1.5-0.671-1.5-1.5V32
				c0-0.552-0.447-1-1-1s-1,0.448-1,1v4.5c0,0.829-0.672,1.5-1.5,1.5S25,37.329,25,36.5V32c0-0.552-0.447-1-1-1s-1,0.448-1,1v10
				c0,2.574,1.623,4.762,3.899,5.614L25.25,74.008C25.114,76.172,26.835,78,29,78c2.168,0,3.886-1.831,3.75-3.992l-1.649-26.394
				C33.377,46.762,35,44.574,35,42V32C35,31.448,34.553,31,34,31z"/>
		</g>
		<g>
			<path style="fill:#0C333D;" d="M80,58v16.5c0,1.933,1.566,3.5,3.5,3.5s3.5-1.567,3.5-3.5V58H80z M83.5,76c-0.553,0-1-0.448-1-1
				s0.447-1,1-1c0.553,0,1,0.448,1,1S84.053,76,83.5,76z"/>
		</g>
		<g>
			<path style="fill:#0F6175;" d="M80,74.5c0,1.933,1.566,3.5,3.5,3.5c0.011,0,0.021-0.003,0.031-0.003v-2.003
				c-0.011,0-0.02,0.006-0.031,0.006c-0.553,0-1-0.448-1-1s0.447-1,1-1c0.012,0,0.021,0.006,0.031,0.006V58H80V74.5z"/>
		</g>
		<g>
			<path style="fill:#FFFFFF;" d="M55,38c-11.045,0-20,8.955-20,20c0,5.472,2.202,10.426,5.762,14.037l28.275-28.275
				C65.426,40.202,60.472,38,55,38z"/>
		</g>
		<g>
			<path style="fill:#E1F5FA;" d="M55,42c-8.836,0-16,7.164-16,16c0,4.367,1.754,8.321,4.591,11.208l22.618-22.618
				C63.321,43.754,59.367,42,55,42z"/>
		</g>
		<g>
			<path style="fill:#FFFFFF;" d="M28.986,31.003C28.441,31.011,28,31.453,28,32v4.5c0,0.829-0.672,1.5-1.5,1.5S25,37.329,25,36.5
				V32c0-0.552-0.447-1-1-1c-0.552,0-1,0.448-1,1v10c0,2.574,1.623,4.762,3.899,5.614L25.25,74.008
				c-0.135,2.151,1.567,3.982,3.736,3.991V31.003z"/>
		</g>
	</g>
</g>
<g id="Green" style="display:none;">
	<g style="display:inline;">
		<g>
			<circle style="fill:#FFFFFF;" cx="55" cy="58" r="20"/>
		</g>
		<g>
			<circle style="fill:#AAF0E9;" cx="55" cy="58" r="16"/>
		</g>
		<g>
			<path style="fill:#D7FCF9;" d="M77,43.181C77,36.329,80.871,30.065,87,27v31H77V43.181z"/>
		</g>
		<g>
			<path style="fill:#FFFFFF;" d="M79,44.181c0-6.072,3.044-11.676,8-15.008V27c-6.129,3.065-10,9.329-10,16.181V58h2V44.181z"/>
		</g>
		<g>
			<path style="fill:#D7FCF9;" d="M34,31c-0.553,0-1,0.448-1,1v4.5c0,0.829-0.672,1.5-1.5,1.5c-0.828,0-1.5-0.671-1.5-1.5V32
				c0-0.552-0.447-1-1-1s-1,0.448-1,1v4.5c0,0.829-0.672,1.5-1.5,1.5S25,37.329,25,36.5V32c0-0.552-0.447-1-1-1s-1,0.448-1,1v10
				c0,2.574,1.623,4.762,3.899,5.614L25.25,74.008C25.114,76.172,26.835,78,29,78c2.168,0,3.886-1.831,3.75-3.992l-1.649-26.393
				C33.377,46.762,35,44.574,35,42V32C35,31.448,34.553,31,34,31z"/>
		</g>
		<g>
			<path style="fill:#0A3631;" d="M80,58v16.5c0,1.933,1.566,3.5,3.5,3.5c1.934,0,3.5-1.567,3.5-3.5V58H80z M83.5,76
				c-0.553,0-1-0.448-1-1s0.447-1,1-1c0.553,0,1,0.448,1,1S84.053,76,83.5,76z"/>
		</g>
		<g>
			<path style="fill:#14635B;" d="M80,74.5c0,1.933,1.566,3.5,3.5,3.5c0.011,0,0.021-0.003,0.031-0.003v-2.003
				c-0.011,0-0.02,0.006-0.031,0.006c-0.553,0-1-0.448-1-1s0.447-1,1-1c0.012,0,0.021,0.006,0.031,0.006V58H80V74.5z"/>
		</g>
		<g>
			<path style="fill:#FFFFFF;" d="M55,38c-11.045,0-20,8.955-20,20c0,5.472,2.202,10.426,5.762,14.037l28.275-28.275
				C65.426,40.202,60.472,38,55,38z"/>
		</g>
		<g>
			<path style="fill:#D7FCF9;" d="M55,42c-8.836,0-16,7.164-16,16c0,4.367,1.754,8.321,4.591,11.209l22.618-22.618
				C63.321,43.754,59.367,42,55,42z"/>
		</g>
		<g>
			<path style="fill:#FFFFFF;" d="M28.986,31.003C28.441,31.011,28,31.453,28,32v4.5c0,0.829-0.672,1.5-1.5,1.5S25,37.329,25,36.5
				V32c0-0.552-0.447-1-1-1c-0.552,0-1,0.448-1,1v10c0,2.574,1.623,4.762,3.899,5.614L25.25,74.008
				c-0.135,2.151,1.567,3.982,3.736,3.991V31.003z"/>
		</g>
	</g>
</g>
<g id="R-Green" style="display:none;">
	<circle style="display:inline;fill:#77E0C4;" cx="55" cy="55" r="55"/>
	<g style="display:inline;">
		<g>
			<circle style="fill:#FFFFFF;" cx="55" cy="58" r="20"/>
		</g>
		<g>
			<circle style="fill:#AAF0E9;" cx="55" cy="58" r="16"/>
		</g>
		<g>
			<path style="fill:#D7FCF9;" d="M77,43.181C77,36.329,80.871,30.065,87,27v31H77V43.181z"/>
		</g>
		<g>
			<path style="fill:#FFFFFF;" d="M79,44.181c0-6.072,3.044-11.676,8-15.008V27c-6.129,3.065-10,9.329-10,16.181V58h2V44.181z"/>
		</g>
		<g>
			<path style="fill:#D7FCF9;" d="M34,31c-0.553,0-1,0.448-1,1v4.5c0,0.829-0.672,1.5-1.5,1.5c-0.828,0-1.5-0.671-1.5-1.5V32
				c0-0.552-0.447-1-1-1s-1,0.448-1,1v4.5c0,0.829-0.672,1.5-1.5,1.5S25,37.329,25,36.5V32c0-0.552-0.447-1-1-1s-1,0.448-1,1v10
				c0,2.574,1.623,4.762,3.899,5.614L25.25,74.008C25.114,76.172,26.835,78,29,78c2.168,0,3.886-1.831,3.75-3.992l-1.649-26.393
				C33.377,46.762,35,44.574,35,42V32C35,31.448,34.553,31,34,31z"/>
		</g>
		<g>
			<path style="fill:#0A3631;" d="M80,58v16.5c0,1.933,1.566,3.5,3.5,3.5s3.5-1.567,3.5-3.5V58H80z M83.5,76c-0.553,0-1-0.448-1-1
				s0.447-1,1-1s1,0.448,1,1S84.053,76,83.5,76z"/>
		</g>
		<g>
			<path style="fill:#14635B;" d="M80,74.5c0,1.933,1.566,3.5,3.5,3.5c0.011,0,0.021-0.003,0.031-0.003v-2.003
				C83.521,75.994,83.512,76,83.5,76c-0.553,0-1-0.448-1-1s0.447-1,1-1c0.012,0,0.021,0.006,0.031,0.006V58H80V74.5z"/>
		</g>
		<g>
			<path style="fill:#FFFFFF;" d="M55,38c-11.045,0-20,8.955-20,20c0,5.472,2.202,10.426,5.762,14.037l28.275-28.275
				C65.426,40.202,60.472,38,55,38z"/>
		</g>
		<g>
			<path style="fill:#D7FCF9;" d="M55,42c-8.836,0-16,7.164-16,16c0,4.367,1.754,8.321,4.591,11.209l22.618-22.618
				C63.321,43.754,59.367,42,55,42z"/>
		</g>
		<g>
			<path style="fill:#FFFFFF;" d="M28.986,31.003C28.441,31.011,28,31.453,28,32v4.5c0,0.829-0.672,1.5-1.5,1.5S25,37.329,25,36.5
				V32c0-0.552-0.447-1-1-1c-0.552,0-1,0.448-1,1v10c0,2.574,1.623,4.762,3.899,5.614L25.25,74.008
				c-0.135,2.151,1.567,3.982,3.736,3.991V31.003z"/>
		</g>
	</g>
</g>
<g id="Red" style="display:none;">
	<g style="display:inline;">
		<g>
			<circle style="fill:#FFFFFF;" cx="55" cy="58" r="20"/>
		</g>
		<g>
			<circle style="fill:#FFD7D4;" cx="55" cy="58" r="16"/>
		</g>
		<g>
			<path style="fill:#FFEFED;" d="M77,43.181C77,36.329,80.871,30.065,87,27v31H77V43.181z"/>
		</g>
		<g>
			<path style="fill:#FFFFFF;" d="M79,44.181c0-6.072,3.044-11.676,8-15.008V27c-6.129,3.065-10,9.329-10,16.181V58h2V44.181z"/>
		</g>
		<g>
			<path style="fill:#FFEFED;" d="M34,31c-0.553,0-1,0.448-1,1v4.5c0,0.829-0.672,1.5-1.5,1.5c-0.828,0-1.5-0.671-1.5-1.5V32
				c0-0.552-0.447-1-1-1s-1,0.448-1,1v4.5c0,0.829-0.672,1.5-1.5,1.5S25,37.329,25,36.5V32c0-0.552-0.447-1-1-1s-1,0.448-1,1v10
				c0,2.574,1.623,4.762,3.899,5.614L25.25,74.008C25.114,76.172,26.835,78,29,78c2.168,0,3.886-1.831,3.75-3.992l-1.649-26.393
				C33.377,46.762,35,44.574,35,42V32C35,31.448,34.553,31,34,31z"/>
		</g>
		<g>
			<path style="fill:#4A1410;" d="M80,58v16.5c0,1.933,1.566,3.5,3.5,3.5s3.5-1.567,3.5-3.5V58H80z M83.5,76c-0.553,0-1-0.448-1-1
				s0.447-1,1-1s1,0.448,1,1S84.053,76,83.5,76z"/>
		</g>
		<g>
			<path style="fill:#7D261E;" d="M80,74.5c0,1.933,1.566,3.5,3.5,3.5c0.011,0,0.021-0.003,0.031-0.003v-2.003
				C83.521,75.994,83.512,76,83.5,76c-0.553,0-1-0.448-1-1s0.447-1,1-1c0.012,0,0.021,0.006,0.031,0.006V58H80V74.5z"/>
		</g>
		<g>
			<path style="fill:#FFFFFF;" d="M55,38c-11.045,0-20,8.955-20,20c0,5.472,2.202,10.426,5.762,14.037l28.275-28.275
				C65.426,40.202,60.472,38,55,38z"/>
		</g>
		<g>
			<path style="fill:#FFEFED;" d="M55,42c-8.836,0-16,7.164-16,16c0,4.367,1.754,8.321,4.591,11.209l22.618-22.618
				C63.321,43.754,59.367,42,55,42z"/>
		</g>
		<g>
			<path style="fill:#FFFFFF;" d="M28.986,31.003C28.441,31.011,28,31.453,28,32v4.5c0,0.829-0.672,1.5-1.5,1.5S25,37.329,25,36.5
				V32c0-0.552-0.447-1-1-1c-0.552,0-1,0.448-1,1v10c0,2.574,1.623,4.762,3.899,5.614L25.25,74.008
				c-0.135,2.151,1.567,3.982,3.736,3.991V31.003z"/>
		</g>
	</g>
</g>
<g id="R-Red" style="display:none;">
	<circle style="display:inline;fill:#FABBAF;" cx="55" cy="55" r="55"/>
	<g style="display:inline;">
		<g>
			<circle style="fill:#FFFFFF;" cx="55" cy="58" r="20"/>
		</g>
		<g>
			<circle style="fill:#FFD7D4;" cx="55" cy="58" r="16"/>
		</g>
		<g>
			<path style="fill:#FFEFED;" d="M77,43.181C77,36.329,80.871,30.065,87,27v31H77V43.181z"/>
		</g>
		<g>
			<path style="fill:#FFFFFF;" d="M79,44.181c0-6.072,3.044-11.676,8-15.008V27c-6.129,3.065-10,9.329-10,16.181V58h2V44.181z"/>
		</g>
		<g>
			<path style="fill:#FFEFED;" d="M34,31c-0.553,0-1,0.448-1,1v4.5c0,0.829-0.672,1.5-1.5,1.5c-0.828,0-1.5-0.671-1.5-1.5V32
				c0-0.552-0.447-1-1-1s-1,0.448-1,1v4.5c0,0.829-0.672,1.5-1.5,1.5S25,37.329,25,36.5V32c0-0.552-0.447-1-1-1s-1,0.448-1,1v10
				c0,2.574,1.623,4.762,3.899,5.614L25.25,74.008C25.114,76.172,26.835,78,29,78c2.168,0,3.886-1.831,3.75-3.992l-1.649-26.393
				C33.377,46.762,35,44.574,35,42V32C35,31.448,34.553,31,34,31z"/>
		</g>
		<g>
			<path style="fill:#4A1410;" d="M80,58v16.5c0,1.933,1.566,3.5,3.5,3.5s3.5-1.567,3.5-3.5V58H80z M83.5,76c-0.553,0-1-0.448-1-1
				s0.447-1,1-1s1,0.448,1,1S84.053,76,83.5,76z"/>
		</g>
		<g>
			<path style="fill:#7D261E;" d="M80,74.5c0,1.933,1.566,3.5,3.5,3.5c0.011,0,0.021-0.003,0.031-0.003v-2.003
				C83.521,75.994,83.512,76,83.5,76c-0.553,0-1-0.448-1-1s0.447-1,1-1c0.012,0,0.021,0.006,0.031,0.006V58H80V74.5z"/>
		</g>
		<g>
			<path style="fill:#FFFFFF;" d="M55,38c-11.045,0-20,8.955-20,20c0,5.472,2.202,10.426,5.762,14.037l28.275-28.275
				C65.426,40.202,60.472,38,55,38z"/>
		</g>
		<g>
			<path style="fill:#FFEFED;" d="M55,42c-8.836,0-16,7.164-16,16c0,4.367,1.754,8.321,4.591,11.209l22.618-22.618
				C63.321,43.754,59.367,42,55,42z"/>
		</g>
		<g>
			<path style="fill:#FFFFFF;" d="M28.986,31.003C28.441,31.011,28,31.453,28,32v4.5c0,0.829-0.672,1.5-1.5,1.5S25,37.329,25,36.5
				V32c0-0.552-0.447-1-1-1c-0.552,0-1,0.448-1,1v10c0,2.574,1.623,4.762,3.899,5.614L25.25,74.008
				c-0.135,2.151,1.567,3.982,3.736,3.991V31.003z"/>
		</g>
	</g>
</g>
<g id="Yellow" style="display:none;">
	<g style="display:inline;">
		<g>
			<circle style="fill:#FFFFFF;" cx="55" cy="58" r="20"/>
		</g>
		<g>
			<circle style="fill:#FFE9A1;" cx="55" cy="58" r="16"/>
		</g>
		<g>
			<path style="fill:#FFF5D9;" d="M77,43.181C77,36.329,80.871,30.065,87,27v31H77V43.181z"/>
		</g>
		<g>
			<path style="fill:#FFFFFF;" d="M79,44.181c0-6.072,3.044-11.676,8-15.008V27c-6.129,3.065-10,9.329-10,16.181V58h2V44.181z"/>
		</g>
		<g>
			<path style="fill:#FFF5D9;" d="M34,31c-0.553,0-1,0.448-1,1v4.5c0,0.829-0.672,1.5-1.5,1.5c-0.828,0-1.5-0.671-1.5-1.5V32
				c0-0.552-0.447-1-1-1s-1,0.448-1,1v4.5c0,0.829-0.672,1.5-1.5,1.5S25,37.329,25,36.5V32c0-0.552-0.447-1-1-1s-1,0.448-1,1v10
				c0,2.574,1.623,4.762,3.899,5.614L25.25,74.008C25.114,76.172,26.835,78,29,78c2.168,0,3.886-1.831,3.75-3.992l-1.649-26.393
				C33.377,46.762,35,44.574,35,42V32C35,31.448,34.553,31,34,31z"/>
		</g>
		<g>
			<path style="fill:#3D320C;" d="M80,58v16.5c0,1.933,1.566,3.5,3.5,3.5s3.5-1.567,3.5-3.5V58H80z M83.5,76c-0.553,0-1-0.448-1-1
				s0.447-1,1-1s1,0.448,1,1S84.053,76,83.5,76z"/>
		</g>
		<g>
			<path style="fill:#66510D;" d="M80,74.5c0,1.933,1.566,3.5,3.5,3.5c0.011,0,0.021-0.003,0.031-0.003v-2.003
				C83.521,75.994,83.512,76,83.5,76c-0.553,0-1-0.448-1-1s0.447-1,1-1c0.012,0,0.021,0.006,0.031,0.006V58H80V74.5z"/>
		</g>
		<g>
			<path style="fill:#FFFFFF;" d="M55,38c-11.045,0-20,8.955-20,20c0,5.472,2.202,10.426,5.762,14.037l28.275-28.275
				C65.426,40.202,60.472,38,55,38z"/>
		</g>
		<g>
			<path style="fill:#FFF5D9;" d="M55,42c-8.836,0-16,7.164-16,16c0,4.367,1.754,8.321,4.591,11.209l22.618-22.618
				C63.321,43.754,59.367,42,55,42z"/>
		</g>
		<g>
			<path style="fill:#FFFFFF;" d="M28.986,31.003C28.441,31.011,28,31.453,28,32v4.5c0,0.829-0.672,1.5-1.5,1.5S25,37.329,25,36.5
				V32c0-0.552-0.447-1-1-1c-0.552,0-1,0.448-1,1v10c0,2.574,1.623,4.762,3.899,5.614L25.25,74.008
				c-0.135,2.151,1.567,3.982,3.736,3.991V31.003z"/>
		</g>
	</g>
</g>
<g id="R-Yellow" style="display:none;">
	<circle style="display:inline;fill:#FFD75E;" cx="55" cy="55" r="55"/>
	<g style="display:inline;">
		<g>
			<circle style="fill:#FFFFFF;" cx="55" cy="58" r="20"/>
		</g>
		<g>
			<circle style="fill:#FFE9A1;" cx="55" cy="58" r="16"/>
		</g>
		<g>
			<path style="fill:#FFF5D9;" d="M77,43.181C77,36.329,80.871,30.065,87,27v31H77V43.181z"/>
		</g>
		<g>
			<path style="fill:#FFFFFF;" d="M79,44.181c0-6.072,3.044-11.676,8-15.008V27c-6.129,3.065-10,9.329-10,16.181V58h2V44.181z"/>
		</g>
		<g>
			<path style="fill:#FFF5D9;" d="M34,31c-0.553,0-1,0.448-1,1v4.5c0,0.829-0.672,1.5-1.5,1.5c-0.828,0-1.5-0.671-1.5-1.5V32
				c0-0.552-0.447-1-1-1s-1,0.448-1,1v4.5c0,0.829-0.672,1.5-1.5,1.5S25,37.329,25,36.5V32c0-0.552-0.447-1-1-1s-1,0.448-1,1v10
				c0,2.574,1.623,4.762,3.899,5.614L25.25,74.008C25.114,76.172,26.835,78,29,78c2.168,0,3.886-1.831,3.75-3.992l-1.649-26.393
				C33.377,46.762,35,44.574,35,42V32C35,31.448,34.553,31,34,31z"/>
		</g>
		<g>
			<path style="fill:#3D320C;" d="M80,58v16.5c0,1.933,1.566,3.5,3.5,3.5c1.934,0,3.5-1.567,3.5-3.5V58H80z M83.5,76
				c-0.553,0-1-0.448-1-1s0.447-1,1-1c0.553,0,1,0.448,1,1S84.053,76,83.5,76z"/>
		</g>
		<g>
			<path style="fill:#66510D;" d="M80,74.5c0,1.933,1.566,3.5,3.5,3.5c0.011,0,0.021-0.003,0.031-0.003v-2.003
				c-0.011,0-0.02,0.006-0.031,0.006c-0.553,0-1-0.448-1-1s0.447-1,1-1c0.012,0,0.021,0.006,0.031,0.006V58H80V74.5z"/>
		</g>
		<g>
			<path style="fill:#FFFFFF;" d="M55,38c-11.045,0-20,8.955-20,20c0,5.472,2.202,10.426,5.762,14.037l28.275-28.275
				C65.426,40.202,60.472,38,55,38z"/>
		</g>
		<g>
			<path style="fill:#FFF5D9;" d="M55,42c-8.836,0-16,7.164-16,16c0,4.367,1.754,8.321,4.591,11.209l22.618-22.618
				C63.321,43.754,59.367,42,55,42z"/>
		</g>
		<g>
			<path style="fill:#FFFFFF;" d="M28.986,31.003C28.441,31.011,28,31.453,28,32v4.5c0,0.829-0.672,1.5-1.5,1.5S25,37.329,25,36.5
				V32c0-0.552-0.447-1-1-1c-0.552,0-1,0.448-1,1v10c0,2.574,1.623,4.762,3.899,5.614L25.25,74.008
				c-0.135,2.151,1.567,3.982,3.736,3.991V31.003z"/>
		</g>
	</g>
</g>
</svg>
