<?xml version="1.0" encoding="iso-8859-1"?>
<!-- Generator: Adobe Illustrator 17.1.0, SVG Export Plug-In . SVG Version: 6.00 Build 0)  -->
<!DOCTYPE svg PUBLIC "-//W3C//DTD SVG 1.0//EN" "http://www.w3.org/TR/2001/REC-SVG-20010904/DTD/svg10.dtd">
<svg version="1.0" xmlns="http://www.w3.org/2000/svg" xmlns:xlink="http://www.w3.org/1999/xlink" x="0px" y="0px" width="110px"
	 height="110px" viewBox="0 0 110 110" style="enable-background:new 0 0 110 110;" xml:space="preserve">
<g id="Artboard">
</g>
<g id="Multicolor">
	<circle style="fill:#FABC3D;" cx="55" cy="55" r="55"/>
	<g>
		<g>
			<path style="fill:#DF2C2C;" d="M79.97,63.932c-5.07,5.07-11.844,7.389-18.477,6.979L39.05,48.468
				c-0.438-7.029,2.199-14.22,7.913-19.368c8.973-8.068,22.854-8.146,31.891-0.156C89.332,38.193,89.7,54.202,79.97,63.932z"/>
		</g>
		<g>
			<path style="fill:#FA5655;" d="M78.853,28.944c-9.037-7.99-22.918-7.912-31.891,0.156c-5.714,5.148-8.351,12.339-7.913,19.368
				l11.175,11.175L79.92,29.949C79.576,29.607,79.222,29.27,78.853,28.944z"/>
		</g>
		<g>
			<path style="fill:#84462D;" d="M61.423,70.841c-5.423-2.281-9.999-3.818-13.817,0L33.029,85.417
				c-1.562,1.562-4.095,1.562-5.657,0l-2.828-2.828c-1.562-1.562-1.562-4.095,0-5.657l14.577-14.577
				c3.818-3.818,1.879-8.796,0-13.817L61.423,70.841z"/>
		</g>
		<g>
			<path style="fill:#9C6144;" d="M39.12,48.539c1.88,5.021,3.818,9.999,0,13.817L24.544,76.932c-1.562,1.562-1.562,4.095,0,5.657
				l1.356,1.355l24.313-24.313L39.12,48.539z"/>
		</g>
		<g>
			<circle style="fill:#FFFFFF;" cx="42" cy="34" r="8"/>
		</g>
	</g>
</g>
</svg>
