<?xml version="1.0" encoding="iso-8859-1"?>
<!-- Generator: Adobe Illustrator 17.1.0, SVG Export Plug-In . SVG Version: 6.00 Build 0)  -->
<!DOCTYPE svg PUBLIC "-//W3C//DTD SVG 1.0//EN" "http://www.w3.org/TR/2001/REC-SVG-20010904/DTD/svg10.dtd">
<svg version="1.0" xmlns="http://www.w3.org/2000/svg" xmlns:xlink="http://www.w3.org/1999/xlink" x="0px" y="0px" width="110px"
	 height="110px" viewBox="0 0 110 110" style="enable-background:new 0 0 110 110;" xml:space="preserve">
<g id="Artboard">
</g>
<g id="Multicolor">
	<circle style="fill:#25B7D3;" cx="55" cy="55" r="55"/>
	<g>
		<path style="fill:#FFFFFF;" d="M31,27c0-2.209,1.791-4,4-4h40c2.209,0,4,1.791,4,4v56c0,2.209-1.791,4-4,4H35
			c-2.209,0-4-1.791-4-4V27z"/>
		<rect x="39" y="31" style="fill:#3E3E3F;" width="32" height="38"/>
		<circle style="fill:#CFD3D4;" cx="43" cy="75" r="2"/>
		<circle style="fill:#CFD3D4;" cx="43" cy="81" r="2"/>
		<circle style="fill:#CFD3D4;" cx="51" cy="75" r="2"/>
		<circle style="fill:#CFD3D4;" cx="51" cy="81" r="2"/>
		<circle style="fill:#CFD3D4;" cx="59" cy="75" r="2"/>
		<circle style="fill:#CFD3D4;" cx="59" cy="81" r="2"/>
		<circle style="fill:#CFD3D4;" cx="67" cy="75" r="2"/>
		<circle style="fill:#CFD3D4;" cx="67" cy="81" r="2"/>
		<path style="fill:#E2E4E5;" d="M35,50.96v12.08c0,2.19-1.77,3.96-3.96,3.96H31V47h0.04C33.23,47,35,48.77,35,50.96z"/>
		<path style="fill:#B6BCBD;" d="M35,50.96V55h-4v-8h0.04C33.23,47,35,48.77,35,50.96z"/>
		<path style="fill:#E2E4E5;" d="M75,50.96v12.08c0,2.19,1.77,3.96,3.96,3.96H79V47h-0.04C76.77,47,75,48.77,75,50.96z"/>
		<path style="fill:#B6BCBD;" d="M75,50.96V55h4v-8h-0.04C76.77,47,75,48.77,75,50.96z"/>
		<polygon style="fill:#5B5C5F;" points="39,63.477 71,31.477 71,31 39,31 		"/>
	</g>
</g>
</svg>
