<?xml version="1.0" encoding="iso-8859-1"?>
<!-- Generator: Adobe Illustrator 17.1.0, SVG Export Plug-In . SVG Version: 6.00 Build 0)  -->
<!DOCTYPE svg PUBLIC "-//W3C//DTD SVG 1.0//EN" "http://www.w3.org/TR/2001/REC-SVG-20010904/DTD/svg10.dtd">
<svg version="1.0" xmlns="http://www.w3.org/2000/svg" xmlns:xlink="http://www.w3.org/1999/xlink" x="0px" y="0px" width="110px"
	 height="110px" viewBox="0 0 110 110" style="enable-background:new 0 0 110 110;" xml:space="preserve">
<g id="Artboard">
</g>
<g id="Multicolor">
	<circle style="fill:#25B7D3;" cx="54.786" cy="55" r="55"/>
	<g>
		<path style="fill:#DF2C2C;" d="M83,60c0,17.673-12.536,27-28,27s-28-9.327-28-27s12.536-37,28-37S83,42.327,83,60z"/>
		<path style="fill:#FA5655;" d="M27,60c0,17.673,12.536,27,28,27V23C39.536,23,27,42.327,27,60z"/>
		<path style="fill:#3E3E3F;" d="M71,67c0,1.105-0.895,2-2,2H41c-1.105,0-2-0.895-2-2V40c0-1.105,0.895-2,2-2h28
			c1.105,0,2,0.895,2,2V67z"/>
		<circle style="fill:#F99134;" cx="46.5" cy="76.5" r="2.5"/>
		<path style="fill:#FFFFFF;" d="M46.5,81c-2.481,0-4.5-2.019-4.5-4.5s2.019-4.5,4.5-4.5s4.5,2.019,4.5,4.5S48.981,81,46.5,81z
			 M46.5,74c-1.378,0-2.5,1.122-2.5,2.5s1.122,2.5,2.5,2.5s2.5-1.122,2.5-2.5S47.878,74,46.5,74z"/>
		<circle style="fill:#F99134;" cx="63.5" cy="76.5" r="2.5"/>
		<path style="fill:#FFFFFF;" d="M63.5,81c-2.481,0-4.5-2.019-4.5-4.5s2.019-4.5,4.5-4.5s4.5,2.019,4.5,4.5S65.981,81,63.5,81z
			 M63.5,74c-1.378,0-2.5,1.122-2.5,2.5s1.122,2.5,2.5,2.5s2.5-1.122,2.5-2.5S64.878,74,63.5,74z"/>
		<path style="fill:#FBC8C8;" d="M63.001,51.215c0.033-0.059,0.072-0.11,0.104-0.17c1.299-2.437,1.168-5.044-0.294-5.823
			c-1.462-0.78-3.701,0.563-5,3c-0.017,0.032-0.027,0.064-0.044,0.096C59.887,48.805,61.712,49.838,63.001,51.215z"/>
		<path style="fill:#FBC8C8;" d="M46.999,51.215c-0.033-0.059-0.072-0.11-0.104-0.17c-1.299-2.437-1.168-5.044,0.294-5.823
			c1.462-0.78,3.701,0.563,5,3c0.017,0.032,0.027,0.064,0.044,0.096C50.113,48.805,48.288,49.838,46.999,51.215z"/>
		<ellipse style="fill:#FFFFFF;" cx="55" cy="56" rx="10" ry="8"/>
		<circle style="fill:#21B2D1;" cx="52" cy="56" r="2"/>
		<circle style="fill:#21B2D1;" cx="58" cy="56" r="2"/>
	</g>
</g>
</svg>
