<?xml version="1.0" encoding="iso-8859-1"?>
<!-- Generator: Adobe Illustrator 17.1.0, SVG Export Plug-In . SVG Version: 6.00 Build 0)  -->
<!DOCTYPE svg PUBLIC "-//W3C//DTD SVG 1.0//EN" "http://www.w3.org/TR/2001/REC-SVG-20010904/DTD/svg10.dtd">
<svg version="1.0" xmlns="http://www.w3.org/2000/svg" xmlns:xlink="http://www.w3.org/1999/xlink" x="0px" y="0px" width="110px"
	 height="110px" viewBox="0 0 110 110" style="enable-background:new 0 0 110 110;" xml:space="preserve">
<g id="Artboard">
</g>
<g id="Multicolor">
	<circle style="fill:#FABC3D;" cx="55" cy="55" r="55"/>
	<g>
		<g>
			<path style="fill:#3E3E3F;" d="M26.412,29.277c-0.436-0.339-1.064-0.26-1.403,0.177l-1.227,1.58
				c-0.339,0.436-0.26,1.064,0.177,1.403l22.116,17.173l2.453-3.159L26.412,29.277z"/>
		</g>
		<g>
			<polygon style="fill:#5B5C5F;" points="54.781,48.773 49.754,44.87 44.848,51.189 50.127,55.288 			"/>
		</g>
		<g>
			<path style="fill:#099686;" d="M46,61.067l9.402-13.162c0.375-0.526,0.982-0.838,1.627-0.838h15.942
				c0.646,0,1.252,0.312,1.627,0.838L84,61.067H46z"/>
		</g>
		<g>
			<path style="fill:#0C7367;" d="M71,45.067c0-0.552-0.448-1-1-1H60c-0.552,0-1,0.448-1,1v2h12V45.067z"/>
		</g>
		<g>
			<path style="fill:#099686;" d="M65,44.067h-5c-0.552,0-1,0.448-1,1v2h6V44.067z"/>
		</g>
		<g>
			<path style="fill:#12B2A0;" d="M65,47.067h-7.971c-0.646,0-1.252,0.312-1.627,0.837L46,61.067h19V47.067z"/>
		</g>
		<g>
			<path style="fill:#3E3E3F;" d="M87,77c0,5.523-4.477,10-10,10H33c-5.523,0-10-4.477-10-10s4.477-10,10-10h44
				C82.523,67,87,71.477,87,77z"/>
		</g>
		<g>
			<rect x="33" y="71.067" style="fill:#9E9FA0;" width="44" height="12"/>
		</g>
		<g>
			<path style="fill:#0C7367;" d="M83,57.067H70.657c-1.061,0-2.078,0.421-2.828,1.171l-1.657,1.657
				c-0.75,0.75-1.768,1.171-2.828,1.171H37.141c-1.337,0-2.586,0.668-3.328,1.781l-2.141,3.211c-0.23,0.345-0.4,0.723-0.513,1.118
				C31.756,67.065,32.37,67,33,67h44c4.226,0,7.831,2.625,9.295,6.33C86.738,72.685,87,71.908,87,71.067v-10
				C87,58.858,85.209,57.067,83,57.067z"/>
		</g>
		<g>
			<circle style="fill:#C7CBCC;" cx="33" cy="77.067" r="6"/>
		</g>
		<g>
			<circle style="fill:#5B5C5F;" cx="33" cy="77.067" r="2"/>
		</g>
		<g>
			<circle style="fill:#C7CBCC;" cx="55" cy="77.067" r="6"/>
		</g>
		<g>
			<circle style="fill:#3E3E3F;" cx="55" cy="77.067" r="2"/>
		</g>
		<g>
			<circle style="fill:#C7CBCC;" cx="77" cy="77.067" r="6"/>
		</g>
		<g>
			<circle style="fill:#3E3E3F;" cx="77" cy="77.067" r="2"/>
		</g>
	</g>
</g>
</svg>
