<?xml version="1.0" encoding="iso-8859-1"?>
<!-- Generator: Adobe Illustrator 17.1.0, SVG Export Plug-In . SVG Version: 6.00 Build 0)  -->
<!DOCTYPE svg PUBLIC "-//W3C//DTD SVG 1.0//EN" "http://www.w3.org/TR/2001/REC-SVG-20010904/DTD/svg10.dtd">
<svg version="1.0" xmlns="http://www.w3.org/2000/svg" xmlns:xlink="http://www.w3.org/1999/xlink" x="0px" y="0px" width="110px"
	 height="110px" viewBox="0 0 110 110" style="enable-background:new 0 0 110 110;" xml:space="preserve">
<g id="Artboard">
</g>
<g id="Multicolor">
	<circle style="fill:#E04F5F;" cx="55" cy="55" r="55"/>
	<g>
		<g>
			<path style="fill:#FBE158;" d="M31,62c0,0.552-0.448,1-1,1h-6c-0.552,0-1-0.448-1-1V40c0-0.552,0.448-1,1-1h6
				c0.552,0,1,0.448,1,1V62z"/>
		</g>
		<g>
			<path style="fill:#FBE158;" d="M62,35.952C62,37.636,60.636,39,58.952,39H39c-1.683,0-3.048-1.364-3.048-3.048
				s1.364-3.048,3.048-3.048h19.952C60.636,32.905,62,34.269,62,35.952z"/>
		</g>
		<g>
			<rect x="44" y="31" style="fill:#F3B607;" width="10" height="1.875"/>
		</g>
		<g>
			<path style="fill:#FACB1B;" d="M39,39v2c0,1.105-0.895,2-2,2h-6v16h24c7,0,8,1,8,4h16c0-10.432-7.987-18.999-18.18-19.918
				c-1.03-0.093-1.82-0.956-1.82-1.99V39H39z"/>
		</g>
		<g>
			<path style="fill:#9CE5F4;" d="M77,81c0,3.314-2.686,6-6,6s-6-2.686-6-6s6-11,6-11S77,77.686,77,81z"/>
		</g>
		<path style="fill:#FACB1B;" d="M63.062,23c-1.457,0-2.726,0.806-3.406,2H57.89c-0.248-0.697-0.907-1.2-1.689-1.2H41.8
			c-0.782,0-1.441,0.503-1.689,1.2h-1.767c-0.681-1.194-1.95-2-3.406-2C32.763,23,31,24.791,31,27s1.763,4,3.937,4
			c1.457,0,2.726-0.806,3.406-2H40c0,1.295,0.838,2,1.8,2h14.4c0.961,0,1.8-0.705,1.8-2h1.656c0.681,1.194,1.95,2,3.406,2
			C65.237,31,67,29.209,67,27S65.237,23,63.062,23z"/>
		<g>
			<rect x="61" y="63" style="fill:#FBE158;" width="20" height="4"/>
		</g>
		<g>
			<path style="fill:#C9F2F8;" d="M71,70c0,0-6,7.687-6,11s2.687,6,6,6V70z"/>
		</g>
		<g>
			<path style="fill:#FBEC9A;" d="M31,40c0-0.552-0.448-1-1-1h-6c-0.552,0-1,0.448-1,1v22c0,0.552,0.448,1,1,1h1.475L31,57.475V40z"
				/>
		</g>
		<g>
			<path style="fill:#FBEC9A;" d="M39,32.905c-1.683,0-3.047,1.365-3.047,3.048S37.317,39,39,39h10.475l6.095-6.095H39z"/>
		</g>
		<g>
			<path style="fill:#FBE158;" d="M49.475,39H39v2c0,1.104-0.896,2-2,2h-6v14.475L49.475,39z"/>
		</g>
	</g>
</g>
</svg>
