<?xml version="1.0" encoding="iso-8859-1"?>
<!-- Generator: Adobe Illustrator 17.1.0, SVG Export Plug-In . SVG Version: 6.00 Build 0)  -->
<!DOCTYPE svg PUBLIC "-//W3C//DTD SVG 1.0//EN" "http://www.w3.org/TR/2001/REC-SVG-20010904/DTD/svg10.dtd">
<svg version="1.0" xmlns="http://www.w3.org/2000/svg" xmlns:xlink="http://www.w3.org/1999/xlink" x="0px" y="0px" width="110px"
	 height="110px" viewBox="0 0 110 110" style="enable-background:new 0 0 110 110;" xml:space="preserve">
<g id="Artboard">
</g>
<g id="Multicolor">
	<circle style="fill:#32BEA6;" cx="55" cy="55" r="55"/>
	<g>
		<circle style="fill:#DF2C2C;" cx="55" cy="59" r="28"/>
		<path style="fill:#FA5655;" d="M55,31c-15.464,0-28,12.536-28,28c0,7.596,3.029,14.481,7.94,19.525L74.525,38.94
			C69.481,34.029,62.596,31,55,31z"/>
		<circle style="fill:#F0F1F1;" cx="55" cy="59" r="20"/>
		<path style="fill:#FFFFFF;" d="M55,39c-11.046,0-20,8.954-20,20c0,5.387,2.14,10.266,5.603,13.862l28.259-28.259
			C65.266,41.14,60.387,39,55,39z"/>
		<circle style="fill:#DF2C2C;" cx="55" cy="59" r="12"/>
		<path style="fill:#FA5655;" d="M55,47c-6.627,0-12,5.373-12,12c0,3.177,1.244,6.058,3.26,8.205L63.205,50.26
			C61.058,48.244,58.177,47,55,47z"/>
		<circle style="fill:#F0F1F1;" cx="55" cy="59" r="4"/>
		<polygon style="fill:#F3B607;" points="56.645,38.494 54.524,59 75.03,56.879 69.373,51.222 86.344,34.251 79.272,27.18 
			62.302,44.151 		"/>
		<path style="fill:#FFFFFF;" d="M55,55c-2.209,0-4,1.791-4,4c0,0.968,0.358,1.843,0.93,2.535l5.606-5.605
			C56.843,55.358,55.968,55,55,55z"/>
		<polygon style="fill:#FBE158;" points="54.531,58.934 82.779,30.686 79.273,27.18 62.302,44.151 56.645,38.494 		"/>
	</g>
</g>
</svg>
