<?xml version="1.0" encoding="iso-8859-1"?>
<!-- Generator: Adobe Illustrator 17.1.0, SVG Export Plug-In . SVG Version: 6.00 Build 0)  -->
<!DOCTYPE svg PUBLIC "-//W3C//DTD SVG 1.0//EN" "http://www.w3.org/TR/2001/REC-SVG-20010904/DTD/svg10.dtd">
<svg version="1.0" xmlns="http://www.w3.org/2000/svg" xmlns:xlink="http://www.w3.org/1999/xlink" x="0px" y="0px" width="110px"
	 height="110px" viewBox="0 0 110 110" style="enable-background:new 0 0 110 110;" xml:space="preserve">
<g id="Artboard">
</g>
<g id="Multicolor">
	<circle style="fill:#E04F5F;" cx="55" cy="55" r="55"/>
	<g>
		<g>
			<path style="fill:#F3B607;" d="M77.503,50.765l-1.825-10.04c-0.424-2.333-2.186-4.2-4.49-4.76c-10.791-2.62-21.582-2.62-32.374,0
				c-2.305,0.56-4.066,2.426-4.49,4.76l-1.825,10.04C30.067,48.403,25,48.902,25,52.013c0,3.322,6.258,5.275,8.156,2.995
				C36.397,55.092,39,57.739,39,61v14h32V61c0-3.261,2.603-5.908,5.844-5.992C78.74,57.286,85,55.338,85,52.013
				C85,48.901,79.933,48.403,77.503,50.765z"/>
		</g>
		<g>
			<path style="fill:#3E3E3F;" d="M66.509,35H67l-2.027-5.405C64.388,28.034,62.895,27,61.228,27H48.772
				c-1.667,0-3.16,1.034-3.745,2.595L43,35h0.491C51.164,33.675,58.836,33.675,66.509,35z"/>
		</g>
		<g>
			<path style="fill:#3E3E3F;" d="M35,85c0,1.105-0.895,2-2,2h-4c-1.105,0-2-0.895-2-2v-6h8V85z"/>
		</g>
		<g>
			<path style="fill:#3E3E3F;" d="M83,85c0,1.105-0.895,2-2,2h-4c-1.105,0-2-0.895-2-2v-6h8V85z"/>
		</g>
		<g>
			<path style="fill:#E2E4E5;" d="M87,77c0,1.105-0.895,2-2,2H25c-1.105,0-2-0.895-2-2s0.895-2,2-2h60C86.105,75,87,75.895,87,77z"
				/>
		</g>
		<g>
			<path style="fill:#FACB1B;" d="M85,61c0-3.314-2.686-6-6-6h-2c-3.314,0-6,2.686-6,6v14h14V61z"/>
		</g>
		<g>
			<circle style="fill:#21B2D1;" cx="78" cy="62" r="4"/>
		</g>
		<g>
			<circle style="fill:#40C9E7;" cx="78" cy="71" r="2"/>
		</g>
		<g>
			<path style="fill:#40C9E7;" d="M78,58c-2.209,0-4,1.791-4,4c0,1.157,0.499,2.19,1.284,2.921l5.637-5.637
				C80.191,58.499,79.157,58,78,58z"/>
		</g>
		<path style="fill:#FACB1B;" d="M63.083,34.49c-8.09-0.981-16.18-0.489-24.27,1.475c-2.305,0.56-4.066,2.426-4.49,4.76
			l-1.825,10.04C30.067,48.403,25,48.902,25,52.013c0,1.663,1.568,2.982,3.372,3.6C26.377,56.587,25,58.63,25,61v14h14V61
			c0-0.724-0.135-1.415-0.37-2.057L63.083,34.49z"/>
		<g>
			<circle style="fill:#21B2D1;" cx="32" cy="62" r="4"/>
		</g>
		<g>
			<circle style="fill:#40C9E7;" cx="32" cy="71" r="2"/>
		</g>
		<g>
			<path style="fill:#40C9E7;" d="M32,58c-2.209,0-4,1.791-4,4c0,1.157,0.499,2.19,1.284,2.921l5.637-5.637
				C34.191,58.499,33.157,58,32,58z"/>
		</g>
		<g>
			<path style="fill:#40C9E7;" d="M74.386,55.317l-1.994-11.966c-0.248-1.488-1.316-2.713-2.756-3.162
				c-9.342-2.918-19.93-2.918-29.272,0c-1.441,0.45-2.507,1.673-2.756,3.162l-1.994,11.966
				C46.547,50.911,63.453,50.911,74.386,55.317z"/>
		</g>
		<g>
			<path style="fill:#CFD3D4;" d="M39,75c0,0-2-12,16-12s16,12,16,12H39z"/>
		</g>
		<g>
			<path style="fill:#FBE158;" d="M55.066,63c-18,0-16,12-16,12h32C71.066,75,73.066,63,55.066,63z"/>
		</g>
		<g>
			<path style="fill:#B6BCBD;" d="M69.33,75H40.67C40.325,73.129,40.579,65,55,65C67.272,65,70.029,71.208,69.33,75z"/>
		</g>
		<g>
			<g>
				<path style="fill:#E2E4E5;" d="M40.7,73h28.6c-0.08-0.6-0.25-1.29-0.56-2H41.26C40.95,71.71,40.78,72.4,40.7,73z"/>
			</g>
			<g>
				<path style="fill:#E2E4E5;" d="M66.41,68c-0.43-0.36-0.93-0.69-1.5-1H45.09c-0.57,0.31-1.07,0.64-1.5,1
					c-0.402,0.321-0.749,0.657-1.049,1h24.918C67.159,68.657,66.812,68.321,66.41,68z"/>
			</g>
		</g>
		<g>
			<path style="fill:#6FDAF1;" d="M40.364,40.188c-1.441,0.45-2.507,1.673-2.756,3.163l-1.994,11.966
				c2.723-1.097,5.818-1.921,9.097-2.472l14.651-14.65C52.957,37.644,46.4,38.303,40.364,40.188z"/>
		</g>
		<g>
			<g>
				<path style="fill:#FACB1B;" d="M51.33,29.45v3.05h-1.024v-3.05h-1.064v-0.962h3.152v0.962H51.33z"/>
			</g>
			<g>
				<path style="fill:#FACB1B;" d="M55.763,32.5h-1.086l-0.26-0.804h-1.07L53.098,32.5h-1.086l1.398-4.006h0.922L55.763,32.5z
					 M54.172,30.797l-0.277-1.171h-0.028l-0.294,1.171H54.172z"/>
			</g>
			<g>
				<path style="fill:#FACB1B;" d="M58.266,28.494h1.177l-1.121,2.009l1.121,1.997h-1.177l-0.702-1.364L56.879,32.5h-1.183
					l1.126-1.997l-1.126-2.009h1.183l0.685,1.369L58.266,28.494z"/>
			</g>
			<g>
				<path style="fill:#FACB1B;" d="M60.758,32.5h-1.013v-4.006h1.013V32.5z"/>
			</g>
		</g>
	</g>
</g>
</svg>
