<?xml version="1.0" encoding="iso-8859-1"?>
<!-- Generator: Adobe Illustrator 17.1.0, SVG Export Plug-In . SVG Version: 6.00 Build 0)  -->
<!DOCTYPE svg PUBLIC "-//W3C//DTD SVG 1.0//EN" "http://www.w3.org/TR/2001/REC-SVG-20010904/DTD/svg10.dtd">
<svg version="1.0" xmlns="http://www.w3.org/2000/svg" xmlns:xlink="http://www.w3.org/1999/xlink" x="0px" y="0px" width="110px"
	 height="110px" viewBox="0 0 110 110" style="enable-background:new 0 0 110 110;" xml:space="preserve">
<g id="Artboard">
</g>
<g id="Multicolor">
	<circle style="fill:#E04F5F;" cx="55" cy="55" r="55"/>
	<g>
		<g>
			<path style="fill:#FACB1B;" d="M27,73c0.133-0.029-2.481-10.363-3.583-14.398C22.459,55.097,24,53,31,53h6.93
				c0.669,0,1.293-0.334,1.664-0.891l6.813-10.219C46.777,41.334,47.402,41,48.07,41h14.281c7.554,0,14.26,4.834,16.649,12h6
				c1.105,0,2,0.895,2,2l-2,16c0,1.105-0.895,2-2,2H27z"/>
		</g>
		<g>
			<path style="fill:#FBE158;" d="M48.07,41c-0.669,0-1.293,0.334-1.664,0.891l-6.812,10.219C39.223,52.666,38.598,53,37.93,53H31
				c-7,0-8.541,2.097-7.583,5.602c0.879,3.219,2.719,10.441,3.361,13.248L57.627,41H48.07z"/>
		</g>
		<path style="fill:#CFD3D4;" d="M30,72c0-1.075,0.25-2.09,0.683-3H25c-1.104,0-2,0.896-2,2s0.896,2,2,2h5.08
			C30.032,72.672,30,72.34,30,72z"/>
		<g>
			<circle style="fill:#3E3E3F;" cx="37" cy="72" r="7"/>
		</g>
		<g>
			<circle style="fill:#CFD3D4;" cx="37" cy="72" r="3"/>
		</g>
		<g>
			<circle style="fill:#3E3E3F;" cx="73" cy="72" r="7"/>
		</g>
		<g>
			<circle style="fill:#CFD3D4;" cx="73" cy="72" r="3"/>
		</g>
		<g>
			<path style="fill:#40C9E7;" d="M69,45.87v7.128C69,52.999,69.001,53,69.002,53H75l-0.02-0.08
				c-0.807-3.229-3.068-5.786-5.978-7.051C69.001,45.868,69,45.869,69,45.87z"/>
		</g>
		<g>
			<polygon style="fill:#40C9E7;" points="64.991,45 57.002,45 57,45.002 57,52.998 57.002,53 64.998,53 65,52.998 65,45.009 			"/>
		</g>
		<g>
			<polygon style="fill:#40C9E7;" points="47.999,45.001 43.002,52.997 43.003,53 52.998,53 53,52.998 53,45.002 52.998,45 
				48.001,45 			"/>
		</g>
		<g>
			<rect x="35" y="57" style="fill:#3E3E3F;" width="44" height="4"/>
		</g>
		<g>
			<rect x="39" y="57" style="fill:#FFFFFF;" width="4" height="4"/>
		</g>
		<g>
			<rect x="47" y="57" style="fill:#FFFFFF;" width="4" height="4"/>
		</g>
		<g>
			<rect x="55" y="57" style="fill:#FFFFFF;" width="4" height="4"/>
		</g>
		<g>
			<rect x="63" y="57" style="fill:#FFFFFF;" width="4" height="4"/>
		</g>
		<g>
			<rect x="71" y="57" style="fill:#FFFFFF;" width="4" height="4"/>
		</g>
		<g>
			<path style="fill:#F99134;" d="M27,57c-1.1,0-1.753,0.865-1.451,1.923l0.901,3.154C26.753,63.135,27.9,64,29,64h1v-7H27z"/>
		</g>
		<g>
			<path style="fill:#F0F1F1;" d="M23,71c0,1.104,0.896,2,2,2h0.627l4-4H25C23.896,69,23,69.896,23,71z"/>
		</g>
		<g>
			<polygon style="fill:#9CE5F4;" points="53,45.002 52.998,45 48.001,45 48,45.001 43.002,52.998 43.003,53 45.627,53 53,45.627 
							"/>
		</g>
	</g>
</g>
</svg>
