<?xml version="1.0" encoding="iso-8859-1"?>
<!-- Generator: Adobe Illustrator 17.1.0, SVG Export Plug-In . SVG Version: 6.00 Build 0)  -->
<!DOCTYPE svg PUBLIC "-//W3C//DTD SVG 1.0//EN" "http://www.w3.org/TR/2001/REC-SVG-20010904/DTD/svg10.dtd">
<svg version="1.0" xmlns="http://www.w3.org/2000/svg" xmlns:xlink="http://www.w3.org/1999/xlink" x="0px" y="0px" width="110px"
	 height="110px" viewBox="0 0 110 110" style="enable-background:new 0 0 110 110;" xml:space="preserve">
<g id="Artboard" style="display:none;">
	
		<rect x="-584.5" y="-162.5" style="display:inline;fill:#808080;stroke:#000000;stroke-miterlimit:10;" width="1392" height="1369"/>
</g>
<g id="R-Multicolor">
	<circle style="fill:#E04F5F;" cx="55" cy="55" r="55"/>
	<g>
		<g>
			<path style="fill:#F0F1F1;" d="M79,55c-1.48,0-2.83,0.33-4,0.79V55c0-2.21,0.21-4-2-4H55H37c-2.21,0-2,1.79-2,4v8
				c0,16,8.936,19.907,20,20c7.607-0.063,14.208-1.931,17.591-8.292C82.153,73.672,87,69.748,87,63C87,57.92,84.08,55,79,55z
				 M74.178,70.461C74.71,68.327,75,65.86,75,63v-2.76c1.01-0.62,2.42-1.24,4-1.24c2.88,0,4,1.12,4,4
				C83,64.618,82.974,68.948,74.178,70.461z"/>
		</g>
		<g>
			<path style="fill:#FFFFFF;" d="M37,51c-2.21,0-2,1.79-2,4v8c0,16,8.936,19.907,20,20V51H37z"/>
		</g>
		<g>
			<path style="fill:#FFFFFF;" d="M63,39c0-4-7-11-4-16c-2,1-4,4-4,8s7,11,4,16C62,45,63,43,63,39z"/>
		</g>
		<g>
			<path style="fill:#FFFFFF;" d="M53,41.667C53,39,48.333,34.333,50.333,31c-1.333,0.667-2.667,2.667-2.667,5.333
				c0,2.667,4.667,7.333,2.667,10.667C52.333,45.667,53,44.333,53,41.667z"/>
		</g>
		<g>
			<rect x="51" y="50" style="fill:#5B5C5F;" width="2" height="9"/>
		</g>
		<g>
			<polygon style="fill:#FACB1B;" points="48,59 56,59 59,62 59,75 45,75 45,62 			"/>
		</g>
		<g>
			<path style="fill:#E2E4E5;" d="M23,79c0,4.418,14.327,8,32,8s32-3.582,32-8H23z"/>
		</g>
		<path style="fill:#F0F1F1;" d="M23,79c0,4.418,14.327,8,32,8v-8H23z"/>
	</g>
</g>
<g id="Multicolor" style="display:none;">
	<g style="display:inline;">
		<g>
			<path style="fill:#F0F1F1;" d="M79,55c-1.48,0-2.83,0.33-4,0.79V55c0-2.21,0.21-4-2-4H55H37c-2.21,0-2,1.79-2,4v8
				c0,16,8.936,19.907,20,20c7.607-0.063,14.208-1.931,17.591-8.292C82.153,73.672,87,69.748,87,63C87,57.92,84.08,55,79,55z
				 M74.178,70.461C74.71,68.327,75,65.86,75,63v-2.76c1.01-0.62,2.42-1.24,4-1.24c2.88,0,4,1.12,4,4
				C83,64.618,82.974,68.948,74.178,70.461z"/>
		</g>
		<g>
			<path style="fill:#FFFFFF;" d="M37,51c-2.21,0-2,1.79-2,4v8c0,16,8.936,19.907,20,20V51H37z"/>
		</g>
		<g>
			<path style="fill:#FFFFFF;" d="M63,39c0-4-7-11-4-16c-2,1-4,4-4,8s7,11,4,16C62,45,63,43,63,39z"/>
		</g>
		<g>
			<path style="fill:#FFFFFF;" d="M53,41.667C53,39,48.333,34.333,50.333,31c-1.333,0.667-2.667,2.667-2.667,5.333
				c0,2.667,4.667,7.333,2.667,10.667C52.333,45.667,53,44.333,53,41.667z"/>
		</g>
		<g>
			<rect x="51" y="50" style="fill:#5B5C5F;" width="2" height="9"/>
		</g>
		<g>
			<polygon style="fill:#FACB1B;" points="48,59 56,59 59,62 59,75 45,75 45,62 			"/>
		</g>
		<g>
			<path style="fill:#E2E4E5;" d="M23,79c0,4.418,14.327,8,32,8s32-3.582,32-8H23z"/>
		</g>
		<path style="fill:#F0F1F1;" d="M23,79c0,4.418,14.327,8,32,8v-8H23z"/>
	</g>
</g>
<g id="Blue" style="display:none;">
	<g style="display:inline;">
		<g>
			<path style="fill:#E1F5FA;" d="M79,55c-1.48,0-2.83,0.33-4,0.79V55c0-2.21,0.21-4-2-4H55H37c-2.21,0-2,1.79-2,4v8
				c0,16,8.936,19.908,20,20c7.607-0.063,14.208-1.931,17.591-8.291C82.152,73.672,87,69.748,87,63C87,57.92,84.08,55,79,55z
				 M74.178,70.461C74.71,68.327,75,65.86,75,63v-2.76c1.01-0.62,2.42-1.24,4-1.24c2.88,0,4,1.12,4,4
				C83,64.619,82.975,68.948,74.178,70.461z"/>
		</g>
		<g>
			<path style="fill:#FFFFFF;" d="M37,51c-2.21,0-2,1.79-2,4v8c0,16,8.936,19.907,20,20V51H37z"/>
		</g>
		<g>
			<path style="fill:#FFFFFF;" d="M63,39c0-4-7-11-4-16c-2,1-4,4-4,8s7,11,4,16C62,45,63,43,63,39z"/>
		</g>
		<g>
			<path style="fill:#FFFFFF;" d="M53,41.667C53,39,48.333,34.333,50.333,31c-1.333,0.667-2.666,2.667-2.666,5.333
				S52.333,43.667,50.333,47C52.333,45.667,53,44.333,53,41.667z"/>
		</g>
		<g>
			<rect x="51" y="50" style="fill:#0F6175;" width="2" height="9"/>
		</g>
		<g>
			<polygon style="fill:#00B7E5;" points="48,59 56,59 59,62 59,75 45,75 45,62 			"/>
		</g>
		<g>
			<path style="fill:#BBE7F2;" d="M23,79c0,4.419,14.327,8,32,8s32-3.581,32-8H23z"/>
		</g>
		<path style="fill:#E1F5FA;" d="M23,79c0,4.419,14.327,8,32,8v-8H23z"/>
	</g>
</g>
<g id="R-Blue" style="display:none;">
	<circle style="display:inline;fill:#81D2EB;" cx="55" cy="55" r="55"/>
	<g style="display:inline;">
		<g>
			<path style="fill:#E1F5FA;" d="M79,55c-1.48,0-2.83,0.33-4,0.79V55c0-2.21,0.21-4-2-4H55H37c-2.21,0-2,1.79-2,4v8
				c0,16,8.936,19.908,20,20c7.607-0.064,14.208-1.931,17.591-8.292C82.152,73.672,87,69.748,87,63C87,57.92,84.08,55,79,55z
				 M74.178,70.461C74.71,68.327,75,65.86,75,63v-2.76c1.01-0.62,2.42-1.24,4-1.24c2.88,0,4,1.12,4,4
				C83,64.619,82.975,68.948,74.178,70.461z"/>
		</g>
		<g>
			<path style="fill:#FFFFFF;" d="M37,51c-2.21,0-2,1.79-2,4v8c0,16,8.936,19.907,20,20V51H37z"/>
		</g>
		<g>
			<path style="fill:#FFFFFF;" d="M63,39c0-4-7-11-4-16c-2,1-4,4-4,8s7,11,4,16C62,45,63,43,63,39z"/>
		</g>
		<g>
			<path style="fill:#FFFFFF;" d="M53,41.667C53,39,48.333,34.333,50.333,31c-1.333,0.667-2.666,2.667-2.666,5.333
				S52.333,43.667,50.333,47C52.333,45.667,53,44.333,53,41.667z"/>
		</g>
		<g>
			<rect x="51" y="50" style="fill:#0F6175;" width="2" height="9"/>
		</g>
		<g>
			<polygon style="fill:#00B7E5;" points="48,59 56,59 59,62 59,75 45,75 45,62 			"/>
		</g>
		<g>
			<path style="fill:#BBE7F2;" d="M23,79c0,4.418,14.327,8,32,8s32-3.582,32-8H23z"/>
		</g>
		<path style="fill:#E1F5FA;" d="M23,79c0,4.418,14.327,8,32,8v-8H23z"/>
	</g>
</g>
<g id="Green" style="display:none;">
	<g style="display:inline;">
		<g>
			<path style="fill:#D7FCF9;" d="M79,55c-1.481,0-2.83,0.33-4,0.79V55c0-2.21,0.21-4-2-4H55H37c-2.21,0-2,1.79-2,4v8
				c0,16,8.936,19.908,20,20c7.607-0.063,14.208-1.931,17.591-8.291C82.152,73.672,87,69.748,87,63C87,57.92,84.08,55,79,55z
				 M74.178,70.461C74.71,68.327,75,65.86,75,63v-2.76c1.01-0.62,2.42-1.24,4-1.24c2.88,0,4,1.12,4,4
				C83,64.619,82.975,68.948,74.178,70.461z"/>
		</g>
		<g>
			<path style="fill:#FFFFFF;" d="M37,51c-2.21,0-2,1.79-2,4v8c0,16,8.936,19.907,20,20V51H37z"/>
		</g>
		<g>
			<path style="fill:#FFFFFF;" d="M63,39c0-4-7-11-4-16c-2,1-4,4-4,8s7,11,4,16C62,45,63,43,63,39z"/>
		</g>
		<g>
			<path style="fill:#FFFFFF;" d="M53,41.667C53,39,48.333,34.333,50.333,31c-1.333,0.667-2.666,2.667-2.666,5.333
				S52.333,43.667,50.333,47C52.333,45.667,53,44.333,53,41.667z"/>
		</g>
		<g>
			<rect x="51" y="50" style="fill:#14635B;" width="2" height="9"/>
		</g>
		<g>
			<polygon style="fill:#00D6C1;" points="48,59 56,59 59,62 59,75 45,75 45,62 			"/>
		</g>
		<g>
			<path style="fill:#AAF0E9;" d="M23,79c0,4.419,14.327,8,32,8s32-3.581,32-8H23z"/>
		</g>
		<path style="fill:#D7FCF9;" d="M23,79c0,4.419,14.327,8,32,8v-8H23z"/>
	</g>
</g>
<g id="R-Green" style="display:none;">
	<circle style="display:inline;fill:#77E0C4;" cx="55" cy="55" r="55"/>
	<g style="display:inline;">
		<g>
			<path style="fill:#D7FCF9;" d="M79,55c-1.48,0-2.83,0.33-4,0.79V55c0-2.21,0.21-4-2-4H55H37c-2.21,0-2,1.79-2,4v8
				c0,16,8.936,19.908,20,20c7.607-0.063,14.208-1.931,17.591-8.291C82.152,73.672,87,69.748,87,63C87,57.92,84.08,55,79,55z
				 M74.178,70.461C74.71,68.327,75,65.86,75,63v-2.76c1.01-0.62,2.42-1.24,4-1.24c2.88,0,4,1.12,4,4
				C83,64.619,82.975,68.948,74.178,70.461z"/>
		</g>
		<g>
			<path style="fill:#FFFFFF;" d="M37,51c-2.21,0-2,1.79-2,4v8c0,16,8.936,19.907,20,20V51H37z"/>
		</g>
		<g>
			<path style="fill:#FFFFFF;" d="M63,39c0-4-7-11-4-16c-2,1-4,4-4,8s7,11,4,16C62,45,63,43,63,39z"/>
		</g>
		<g>
			<path style="fill:#FFFFFF;" d="M53,41.667C53,39,48.333,34.333,50.333,31c-1.333,0.667-2.666,2.667-2.666,5.333
				S52.333,43.667,50.333,47C52.333,45.667,53,44.333,53,41.667z"/>
		</g>
		<g>
			<rect x="51" y="50" style="fill:#14635B;" width="2" height="9"/>
		</g>
		<g>
			<polygon style="fill:#00D6C1;" points="48,59 56,59 59,62 59,75 45,75 45,62 			"/>
		</g>
		<g>
			<path style="fill:#AAF0E9;" d="M23,79c0,4.419,14.327,8,32,8s32-3.581,32-8H23z"/>
		</g>
		<path style="fill:#D7FCF9;" d="M23,79c0,4.419,14.327,8,32,8v-8H23z"/>
	</g>
</g>
<g id="Red" style="display:none;">
	<g style="display:inline;">
		<g>
			<path style="fill:#FFEFED;" d="M79,55c-1.481,0-2.83,0.33-4,0.79V55c0-2.21,0.21-4-2-4H55H37c-2.21,0-2,1.79-2,4v8
				c0,16,8.935,19.908,20,20c7.607-0.063,14.208-1.931,17.591-8.291C82.152,73.672,87,69.748,87,63C87,57.92,84.08,55,79,55z
				 M74.178,70.461C74.71,68.327,75,65.86,75,63v-2.76c1.01-0.62,2.42-1.24,4-1.24c2.88,0,4,1.12,4,4
				C83,64.619,82.975,68.948,74.178,70.461z"/>
		</g>
		<g>
			<path style="fill:#FFFFFF;" d="M37,51c-2.21,0-2,1.79-2,4v8c0,16,8.935,19.907,20,20V51H37z"/>
		</g>
		<g>
			<path style="fill:#FFFFFF;" d="M63,39c0-4-7-11-4-16c-2,1-4,4-4,8s7,11,4,16C62,45,63,43,63,39z"/>
		</g>
		<g>
			<path style="fill:#FFFFFF;" d="M53,41.667C53,39,48.333,34.334,50.333,31c-1.333,0.667-2.666,2.667-2.666,5.334
				c0,2.666,4.666,7.333,2.666,10.666C52.333,45.667,53,44.334,53,41.667z"/>
		</g>
		<g>
			<rect x="51" y="50" style="fill:#7D261E;" width="2" height="9"/>
		</g>
		<g>
			<polygon style="fill:#FF6C5E;" points="48,59 56,59 59,62 59,75 45,75 45,62 			"/>
		</g>
		<g>
			<path style="fill:#FFD7D4;" d="M23,79c0,4.419,14.327,8,32,8c17.673,0,32-3.581,32-8H23z"/>
		</g>
		<path style="fill:#FFEFED;" d="M23,79c0,4.419,14.327,8,32,8v-8H23z"/>
	</g>
</g>
<g id="R-Red" style="display:none;">
	<circle style="display:inline;fill:#FABBAF;" cx="55" cy="55" r="55"/>
	<g style="display:inline;">
		<g>
			<path style="fill:#FFEFED;" d="M79,55c-1.481,0-2.83,0.33-4,0.79V55c0-2.21,0.21-4-2-4H55H37c-2.21,0-2,1.79-2,4v8
				c0,16,8.935,19.908,20,20c7.607-0.063,14.208-1.931,17.591-8.291C82.152,73.672,87,69.748,87,63C87,57.92,84.08,55,79,55z
				 M74.178,70.461C74.71,68.327,75,65.86,75,63v-2.76c1.01-0.62,2.42-1.24,4-1.24c2.88,0,4,1.12,4,4
				C83,64.619,82.975,68.948,74.178,70.461z"/>
		</g>
		<g>
			<path style="fill:#FFFFFF;" d="M37,51c-2.21,0-2,1.79-2,4v8c0,16,8.935,19.907,20,20V51H37z"/>
		</g>
		<g>
			<path style="fill:#FFFFFF;" d="M63,39c0-4-7-11-4-16c-2,1-4,4-4,8s7,11,4,16C62,45,63,43,63,39z"/>
		</g>
		<g>
			<path style="fill:#FFFFFF;" d="M53,41.667C53,39,48.333,34.334,50.333,31c-1.333,0.667-2.666,2.667-2.666,5.334
				c0,2.666,4.666,7.333,2.666,10.666C52.333,45.667,53,44.334,53,41.667z"/>
		</g>
		<g>
			<rect x="51" y="50" style="fill:#7D261E;" width="2" height="9"/>
		</g>
		<g>
			<polygon style="fill:#FF6C5E;" points="48,59 56,59 59,62 59,75 45,75 45,62 			"/>
		</g>
		<g>
			<path style="fill:#FFD7D4;" d="M23,79c0,4.419,14.327,8,32,8c17.673,0,32-3.581,32-8H23z"/>
		</g>
		<path style="fill:#FFEFED;" d="M23,79c0,4.419,14.327,8,32,8v-8H23z"/>
	</g>
</g>
<g id="Yellow" style="display:none;">
	<g style="display:inline;">
		<g>
			<path style="fill:#FFF5D9;" d="M79,55c-1.48,0-2.83,0.33-4,0.79V55c0-2.21,0.21-4-2-4H55H37c-2.21,0-2,1.79-2,4v8
				c0,16,8.936,19.908,20,20c7.607-0.063,14.208-1.931,17.591-8.291C82.152,73.672,87,69.748,87,63C87,57.92,84.08,55,79,55z
				 M74.178,70.461C74.71,68.327,75,65.86,75,63v-2.76c1.01-0.62,2.42-1.24,4-1.24c2.88,0,4,1.12,4,4
				C83,64.619,82.975,68.948,74.178,70.461z"/>
		</g>
		<g>
			<path style="fill:#FFFFFF;" d="M37,51c-2.21,0-2,1.79-2,4v8c0,16,8.936,19.907,20,20V51H37z"/>
		</g>
		<g>
			<path style="fill:#FFFFFF;" d="M63,39c0-4-7-11-4-16c-2,1-4,4-4,8s7,11,4,16C62,45,63,43,63,39z"/>
		</g>
		<g>
			<path style="fill:#FFFFFF;" d="M53,41.667C53,39,48.333,34.333,50.333,31c-1.333,0.667-2.666,2.667-2.666,5.333
				S52.333,43.667,50.333,47C52.333,45.667,53,44.333,53,41.667z"/>
		</g>
		<g>
			<rect x="51" y="50" style="fill:#66510D;" width="2" height="9"/>
		</g>
		<g>
			<polygon style="fill:#FFAA00;" points="48,59 56,59 59,62 59,75 45,75 45,62 			"/>
		</g>
		<g>
			<path style="fill:#FFE9A1;" d="M23,79c0,4.419,14.327,8,32,8s32-3.581,32-8H23z"/>
		</g>
		<path style="fill:#FFF5D9;" d="M23,79c0,4.419,14.327,8,32,8v-8H23z"/>
	</g>
</g>
<g id="R-Yellow" style="display:none;">
	<circle style="display:inline;fill:#FFD75E;" cx="55" cy="55" r="55"/>
	<g style="display:inline;">
		<g>
			<path style="fill:#FFF5D9;" d="M79,55c-1.481,0-2.83,0.33-4,0.79V55c0-2.21,0.21-4-2-4H55H37c-2.21,0-2,1.79-2,4v8
				c0,16,8.936,19.908,20,20c7.607-0.063,14.208-1.931,17.591-8.291C82.152,73.672,87,69.748,87,63C87,57.92,84.08,55,79,55z
				 M74.178,70.461C74.71,68.327,75,65.86,75,63v-2.76c1.01-0.62,2.42-1.24,4-1.24c2.88,0,4,1.12,4,4
				C83,64.619,82.975,68.948,74.178,70.461z"/>
		</g>
		<g>
			<path style="fill:#FFFFFF;" d="M37,51c-2.21,0-2,1.79-2,4v8c0,16,8.936,19.907,20,20V51H37z"/>
		</g>
		<g>
			<path style="fill:#FFFFFF;" d="M63,39c0-4-7-11-4-16c-2,1-4,4-4,8s7,11,4,16C62,45,63,43,63,39z"/>
		</g>
		<g>
			<path style="fill:#FFFFFF;" d="M53,41.667C53,39,48.333,34.333,50.333,31c-1.333,0.667-2.666,2.667-2.666,5.333
				S52.333,43.667,50.333,47C52.333,45.667,53,44.333,53,41.667z"/>
		</g>
		<g>
			<rect x="51" y="50" style="fill:#66510D;" width="2" height="9"/>
		</g>
		<g>
			<polygon style="fill:#FFAA00;" points="48,59 56,59 59,62 59,75 45,75 45,62 			"/>
		</g>
		<g>
			<path style="fill:#FFE9A1;" d="M23,79c0,4.419,14.327,8,32,8s32-3.581,32-8H23z"/>
		</g>
		<path style="fill:#FFF5D9;" d="M23,79c0,4.419,14.327,8,32,8v-8H23z"/>
	</g>
</g>
</svg>
