<?xml version="1.0" encoding="iso-8859-1"?>
<!-- Generator: Adobe Illustrator 17.1.0, SVG Export Plug-In . SVG Version: 6.00 Build 0)  -->
<!DOCTYPE svg PUBLIC "-//W3C//DTD SVG 1.0//EN" "http://www.w3.org/TR/2001/REC-SVG-20010904/DTD/svg10.dtd">
<svg version="1.0" xmlns="http://www.w3.org/2000/svg" xmlns:xlink="http://www.w3.org/1999/xlink" x="0px" y="0px" width="110px"
	 height="110px" viewBox="0 0 110 110" style="enable-background:new 0 0 110 110;" xml:space="preserve">
<g id="Artboard">
</g>
<g id="Multicolor">
	<g>
		<circle style="fill:#FABC3D;" cx="55" cy="55" r="55"/>
	</g>
	<g>
		<path style="fill:#3E3E3F;" d="M83,76c-0.615-1.333-1.698-2.394-3.043-2.982L67,68h-4.421H47.421H43l-12.957,5.018
			C28.698,73.606,27.615,74.667,27,76l-4,11h17h15h16h16L83,76z"/>
		<g>
			<polygon style="fill:#E2E4E5;" points="67,67.997 65,66.997 45,66.997 43,67.997 55,87 			"/>
		</g>
		<path style="fill:#F7B4B4;" d="M57.655,68H55h-2.655c-0.856,0-1.671-0.365-2.24-1.004L45,63v4.5c0,0,0,7.5,10,7.5s10-7.5,10-7.5
			V63l-5.105,3.996C59.326,67.635,58.511,68,57.655,68z"/>
		<path style="fill:#FBC8C8;" d="M50.105,66.996L45,63v4.5c0,0,0,7.5,10,7.5v-7h-2.655C51.489,68,50.674,67.635,50.105,66.996z"/>
		<g>
			<polygon style="fill:#FFFFFF;" points="66.965,68.059 67,68 65,67 55.015,71.981 60.808,77.807 			"/>
		</g>
		<g>
			<polygon style="fill:#DF2C2C;" points="59,87 56.201,76.8 58,75.002 54.981,71.978 51.983,74.976 53.801,76.793 51,87 			"/>
		</g>
		<g>
			<polygon style="fill:#FA5655;" points="55,87 55,71.997 54.981,71.978 51.983,74.976 53.801,76.793 51,87 			"/>
		</g>
		<g>
			<polygon style="fill:#FFFFFF;" points="43.035,68.059 43,68 45,67 54.985,71.981 49.192,77.807 			"/>
		</g>
		<g>
			<polygon style="fill:#FACB1B;" points="55,87 43,68 34,71 51,87 			"/>
		</g>
		<g>
			<polygon style="fill:#FACB1B;" points="55,87 67,68 76,71 59,87 			"/>
		</g>
		<path style="fill:#FBC8C8;" d="M70,45.003c-1,0-1,1.111-1,1.111v-1.111c-0.002-1.066-0.019-2.088-0.067-3.065
			C64.891,38.002,55,38,55,38s-9.891,0.002-13.933,3.938c-0.048,0.977-0.065,2-0.067,3.065V53l4,10l5.105,3.996
			C50.674,67.635,51.489,68,52.345,68H55h2.655c0.856,0,1.671-0.365,2.24-1.004L65,63l3.207-8.017
			C71.042,54.779,72,50.479,72,47.225C72,46.114,71,45.003,70,45.003z"/>
		<path style="fill:#FBD7D7;" d="M41,45.003v1.111c0,0,0-1.111-1-1.111s-2,1.111-2,2.222c0,3.253,0.958,7.554,3.793,7.758L45,63
			l5.105,3.996C50.674,67.635,51.489,68,52.345,68H55V38c0,0-9.891,0.002-13.933,3.938C41.019,42.915,41.002,43.937,41,45.003z"/>
		<g>
			<path style="fill:#F79392;" d="M50,57h10c0,0,0,3-5,3S50,57,50,57z"/>
		</g>
		<path style="fill:#FA5655;" d="M34.491,53.445v-19.62c-0.697-0.249-1.368-0.493-2-0.728v20.348c-2.61,1.72-1,6.85-1,9.555
			c0.995,0,1.544,0,1.842,0c0.064,0,0.116,0,0.158,0c0.13,0,0.168,0,0.158,0c0.297,0,0.847,0,1.842,0
			C35.491,60.295,37.102,55.165,34.491,53.445z"/>
		<path style="fill:#3E3E3F;" d="M55,23c-2,0-27,7-27,8c0,0.625,7.432,3.207,13,5.053c0,1.724,0,3.768,0,5.947c4-4,14-4,14-4
			s10,0,14,4c0-2.18,0-4.223,0-5.947c5.568-1.846,13-4.427,13-5.053C82,30,57,23,55,23z"/>
		<path style="fill:#FFFFFF;" d="M68.988,44.042c-0.011-0.723-0.03-1.431-0.064-2.113c-1.021-0.991-2.412-1.732-3.924-2.286v4.007
			C66.579,43.693,68.007,43.81,68.988,44.042z"/>
		<path style="fill:#FFFFFF;" d="M45,43.653v-4.01c-1.512,0.554-2.902,1.295-3.924,2.286c-0.035,0.688-0.053,1.402-0.064,2.131
			C41.978,43.82,43.409,43.699,45,43.653z"/>
		<g>
			<path style="fill:#3E3E3F;" d="M70.037,44.448c-2.083-1.5-14.958-0.479-14.958-0.479s-12.958-1.021-15.042,0.479
				c0,0-0.083,1.958,0,3c2,1,0.666,2.667,2,3c1.667,0.417,8.708,1,10,0c1.362-1.055,2-4,3-4s1.638,2.945,3,4
				c1.292,1,8.333,0.417,10,0c1.334-0.333,0-2,2-3C70.121,46.406,70.037,44.448,70.037,44.448z"/>
		</g>
		<g>
			<path style="fill:#C9F2F8;" d="M42.956,49.185c-0.961-1.921-0.644-4.307,0.242-4.428c0.886-0.121,7.084-0.805,9.499,0.362
				c0.963,0.465-0.281,4.517-1.691,4.669C48.027,50.11,43.479,50.231,42.956,49.185z"/>
		</g>
		<g>
			<path style="fill:#C9F2F8;" d="M67.474,49.267c0.961-1.921,0.644-4.307-0.242-4.428c-0.886-0.121-7.084-0.805-9.499,0.362
				c-0.963,0.465,0.281,4.517,1.691,4.669C62.403,50.193,66.951,50.314,67.474,49.267z"/>
		</g>
		<g>
			<path style="fill:#FFFFFF;" d="M43.197,44.754c-0.886,0.121-1.202,2.507-0.241,4.428c0.066,0.133,0.199,0.247,0.383,0.344
				l4.442-5.077C45.662,44.466,43.67,44.689,43.197,44.754z"/>
		</g>
		<g>
			<path style="fill:#FFFFFF;" d="M57.733,45.191c-0.894,0.433,0.115,3.953,1.393,4.576l4.567-5.22
				C61.578,44.467,59.074,44.544,57.733,45.191z"/>
		</g>
		<path style="fill:#FFFFFF;" d="M55,55c-2-3-7-1-9,2c3,0,9,0,9,0s6,0,9,0C62,54,57,52,55,55z"/>
	</g>
</g>
</svg>
