<?xml version="1.0" encoding="iso-8859-1"?>
<!-- Generator: Adobe Illustrator 17.1.0, SVG Export Plug-In . SVG Version: 6.00 Build 0)  -->
<!DOCTYPE svg PUBLIC "-//W3C//DTD SVG 1.0//EN" "http://www.w3.org/TR/2001/REC-SVG-20010904/DTD/svg10.dtd">
<svg version="1.0" xmlns="http://www.w3.org/2000/svg" xmlns:xlink="http://www.w3.org/1999/xlink" x="0px" y="0px" width="110px"
	 height="110px" viewBox="0 0 110 110" style="enable-background:new 0 0 110 110;" xml:space="preserve">
<g id="Artboard">
</g>
<g id="Multicolor">
	<circle style="fill:#25B7D3;" cx="55" cy="55" r="55"/>
	<g>
		<g>
			<circle style="fill:#FACB1B;" cx="55" cy="55" r="32"/>
		</g>
		<path style="fill:#FBE158;" d="M23,55c0,17.673,14.327,32,32,32V23C37.327,23,23,37.327,23,55z"/>
		<path style="fill:#FA5655;" d="M54.999,77.851c-9.67,0-16.368-6.515-18.814-10.766c-0.426-0.74-0.425-1.65,0.002-2.389
			c0.427-0.739,1.215-1.196,2.069-1.196h33.487c0.853,0,1.642,0.455,2.07,1.193c0.428,0.739,0.43,1.65,0.005,2.39
			C71.371,71.334,64.67,77.851,54.999,77.851z"/>
		<path style="fill:#F79392;" d="M63,74.5c0,4.374-3.546,7.92-7.92,7.92c-4.786,0-8.08-3.739-8.08-7.92v-9h16V74.5z"/>
		<path style="fill:#FA5655;" d="M56,65.5h-2v7.12c0,0.486,0.443,0.88,0.99,0.88h0.02c0.547,0,0.99-0.394,0.99-0.88V65.5z"/>
		<g>
			<path style="fill:#9C6144;" d="M49.5,51c-0.828,0-1.5-0.672-1.5-1.5c0-3.584-2.916-6.5-6.5-6.5S35,45.916,35,49.5
				c0,0.828-0.672,1.5-1.5,1.5S32,50.328,32,49.5c0-5.238,4.262-9.5,9.5-9.5s9.5,4.262,9.5,9.5C51,50.328,50.328,51,49.5,51z"/>
		</g>
		<g>
			<path style="fill:#9C6144;" d="M76.5,51c-0.828,0-1.5-0.672-1.5-1.5c0-3.584-2.916-6.5-6.5-6.5S62,45.916,62,49.5
				c0,0.828-0.672,1.5-1.5,1.5S59,50.328,59,49.5c0-5.238,4.262-9.5,9.5-9.5s9.5,4.262,9.5,9.5C78,50.328,77.328,51,76.5,51z"/>
		</g>
	</g>
</g>
</svg>
