<?xml version="1.0" encoding="iso-8859-1"?>
<!-- Generator: Adobe Illustrator 17.1.0, SVG Export Plug-In . SVG Version: 6.00 Build 0)  -->
<!DOCTYPE svg PUBLIC "-//W3C//DTD SVG 1.0//EN" "http://www.w3.org/TR/2001/REC-SVG-20010904/DTD/svg10.dtd">
<svg version="1.0" xmlns="http://www.w3.org/2000/svg" xmlns:xlink="http://www.w3.org/1999/xlink" x="0px" y="0px" width="110px"
	 height="110px" viewBox="0 0 110 110" style="enable-background:new 0 0 110 110;" xml:space="preserve">
<g id="Artboard">
</g>
<g id="Multicolor">
	<circle style="fill:#32BEA6;" cx="55" cy="55" r="55"/>
	<g>
		<g>
			<path style="fill:#84462D;" d="M74.979,68c-1.455-0.727-1-4.082-1-4.082c7.24-5.924,17.385-11.615,11-18
				c-4.482-4.482-8.946,1.001-15.552,5.703c2.222-2.994,3.552-6.688,3.552-10.703c0-1.447-0.189-2.846-0.511-4.194
				c2.592-0.663,4.511-3.007,4.511-5.806c0-3.314-2.686-6-6-6c-1.826,0-3.458,0.818-4.558,2.104
				c-3.11-2.564-7.096-4.104-11.442-4.104s-8.332,1.54-11.442,4.104c-1.1-1.287-2.732-2.104-4.558-2.104c-3.314,0-6,2.686-6,6
				c0,2.799,1.919,5.143,4.511,5.806c-0.322,1.348-0.511,2.747-0.511,4.194c0,4.014,1.33,7.709,3.552,10.703
				c-6.606-4.701-11.07-10.185-15.552-5.703c-6.385,6.385,3.76,12.076,11,18c0,0,0.455,3.354-1,4.082c-8,4-10,5.642-10,11.5
				c0,4.142,3.358,7.5,7.5,7.5c1.579,0,8.826-1.543,11.5-6c1.5,2.5,6.25,3.75,11,3.75s9.5-1.25,11-3.75c2.585,4.308,9.705,6,11.5,6
				c4.142,0,7.5-3.358,7.5-7.5C84.979,73.666,82.979,72,74.979,68z"/>
		</g>
		<g>
			<path style="fill:#9C6144;" d="M43.537,27.023c-1.1-1.287-2.732-2.104-4.558-2.104c-3.314,0-6,2.686-6,6
				c0,2.799,1.919,5.143,4.511,5.806c-0.322,1.348-0.511,2.747-0.511,4.194c0,4.014,1.33,7.709,3.552,10.703
				c-6.606-4.701-11.07-10.185-15.552-5.703c-6.385,6.385,3.76,12.076,11,18c0,0,0.455,3.354-1,4.082c-8,4-10,5.642-10,11.5
				c0,4.142,3.358,7.5,7.5,7.5c1.579,0,8.826-1.543,11.5-6c1.5,2.5,6.25,3.75,11,3.75V22.918
				C50.633,22.918,46.648,24.459,43.537,27.023z"/>
		</g>
		<g>
			<path style="fill:#FACB1B;" d="M69.529,51.568c-3.92,3.34-9,5.35-14.55,5.35s-10.63-2.01-14.55-5.35
				c1.749,3.83,4.962,6.843,8.926,8.331l-6.376,10.019l5-2l1,5l6-9.75l6,9.75l1-5l5,2l-6.376-10.019
				C64.567,58.411,67.781,55.398,69.529,51.568z"/>
		</g>
		<g>
			<path style="fill:#F4D0A1;" d="M70.979,27.918c-0.99,0-1.86,0.485-2.406,1.224c1.216,1.403,2.229,2.987,2.968,4.719
				c1.388-0.263,2.439-1.479,2.439-2.943C73.979,29.261,72.636,27.918,70.979,27.918z"/>
		</g>
		<g>
			<path style="fill:#F8E1C2;" d="M41.386,29.143c-0.546-0.739-1.417-1.224-2.406-1.224c-1.657,0-3,1.343-3,3
				c0,1.464,1.051,2.68,2.439,2.943C39.157,32.129,40.169,30.546,41.386,29.143z"/>
		</g>
		<g>
			<circle style="fill:#F8E1C2;" cx="46" cy="36" r="2"/>
		</g>
		<g>
			<circle style="fill:#F4D0A1;" cx="64" cy="36" r="2"/>
		</g>
		<g>
			<path style="fill:#F8E1C2;" d="M65.979,44.918c0,4.418-4,10-11,10s-11-5.582-11-10s6.029-6,11-6S65.979,40.5,65.979,44.918z"/>
		</g>
		<g>
			<circle style="fill:#F8E1C2;" cx="77.479" cy="79.5" r="7.5"/>
		</g>
		<g>
			<circle style="fill:#FCF1E2;" cx="32.479" cy="79.5" r="7.5"/>
		</g>
		<g>
			<path style="fill:#FACB1B;" d="M60.603,59.899c-1.843,0.692-3.77,1.019-5.624,1.019c-1.853,0-3.781-0.327-5.624-1.019
				l-6.376,10.019l5-2l1,5l6-9.75l6,9.75l1-5l5,2L60.603,59.899z"/>
		</g>
		<g>
			<path style="fill:#FBE158;" d="M40.429,51.568c1.749,3.83,4.962,6.843,8.926,8.331l-6.376,10.019l5-2l1,5l6-9.75v-6.25
				C49.429,56.918,44.349,54.908,40.429,51.568z"/>
		</g>
		<g>
			<path style="fill:#FBE158;" d="M49.355,59.899l-6.376,10.019l5-2l1,5l6-9.75v-2.25C53.126,60.918,51.199,60.591,49.355,59.899z"
				/>
		</g>
		<g>
			<path style="fill:#FCF1E2;" d="M43.979,44.918c0,4.418,4,10,11,10v-16C50.008,38.918,43.979,40.5,43.979,44.918z"/>
		</g>
		<g>
			<path style="fill:#84462D;" d="M58.979,44.918c0-1.105-1.791-2-4-2s-4,0.895-4,2c0,1.02,1.527,4.411,3.5,4.927V54.9
				c0.17,0.02,0.33,0.02,0.5,0.02s0.33,0,0.5-0.02v-5.054C57.452,49.33,58.979,45.938,58.979,44.918z"/>
		</g>
		<g>
			<path style="fill:#9C6144;" d="M50.979,44.918c0,1.02,1.527,4.411,3.5,4.927V54.9c0.17,0.02,0.33,0.02,0.5,0.02V42.918
				C52.77,42.918,50.979,43.814,50.979,44.918z"/>
		</g>
	</g>
</g>
</svg>
