<?xml version="1.0" encoding="iso-8859-1"?>
<!-- Generator: Adobe Illustrator 17.1.0, SVG Export Plug-In . SVG Version: 6.00 Build 0)  -->
<!DOCTYPE svg PUBLIC "-//W3C//DTD SVG 1.0//EN" "http://www.w3.org/TR/2001/REC-SVG-20010904/DTD/svg10.dtd">
<svg version="1.0" xmlns="http://www.w3.org/2000/svg" xmlns:xlink="http://www.w3.org/1999/xlink" x="0px" y="0px" width="110px"
	 height="110px" viewBox="0 0 110 110" style="enable-background:new 0 0 110 110;" xml:space="preserve">
<g id="Artboard">
</g>
<g id="Multicolor">
	<circle style="fill:#FABC3D;" cx="55" cy="55" r="55"/>
	<g>
		<path style="fill:#DF2C2C;" d="M62.979,71.299c2.406-1.52,4.372-3.669,5.675-6.213c0.239,0.837,0.832,1.537,2.292,1.537
			c3.662,0,9.765-17.088,6.103-19.529c-1.748-1.165-5.14,1.634-7.725,4.654c-2.03-5.331-6.702-8.425-11.804-9.286v-4.337
			c2.843-1.006,4.882-3.71,4.882-6.898c0-4.045-3.279-7.323-7.323-7.323c-4.044,0-7.323,3.279-7.323,7.323
			c0,3.187,2.04,5.891,4.882,6.898v4.2c-7.257,0.771-13.98,5.955-13.98,15.563c0,5.652,2.964,10.601,7.413,13.411
			C38.796,73.433,33.065,74.64,28.536,87h52.059C76.393,74.522,70.259,73.434,62.979,71.299z M50.756,31.227
			c0-2.384,1.939-4.323,4.323-4.323c2.384,0,4.323,1.939,4.323,4.323c0,2.384-1.939,4.323-4.323,4.323
			C52.696,35.551,50.756,33.611,50.756,31.227z"/>
		<path style="fill:#FA5655;" d="M40.084,50.902c-2.459-2.667-5.392-4.863-6.975-3.807c-3.662,2.441,2.441,19.529,6.103,19.529
			c0.819,0,1.363-0.223,1.728-0.563c1.281,2.118,3.039,3.917,5.131,5.239C38.796,73.433,33.065,74.64,28.536,87H55V42.231
			C48.94,42.077,42.789,44.966,40.084,50.902z"/>
		<rect x="45.28" y="79.858" style="fill:#FFFFFF;" width="18.571" height="7.142"/>
		<circle style="fill:#FBC8C8;" cx="54.525" cy="59.108" r="12.206"/>
		<path style="fill:#FBD7D7;" d="M55,46.927c-0.159-0.006-0.314-0.024-0.475-0.024c-6.741,0-12.206,5.465-12.206,12.206
			s5.465,12.206,12.206,12.206c0.16,0,0.316-0.018,0.475-0.024V46.927z"/>
		<path style="fill:#FA5655;" d="M59.962,64.793c0,1.011-2.186,3.051-4.882,3.051s-4.882-2.04-4.882-3.051
			c2.441-0.61,2.441-0.61,4.882-1.831C57.521,64.182,57.521,64.182,59.962,64.793z"/>
		<path style="fill:#3E3E3F;" d="M49.643,53.006c-0.473,0-0.911,0.14-1.284,0.373c0.363,0.212,0.618,0.589,0.618,1.039
			c0,0.674-0.547,1.221-1.221,1.221c-0.201,0-0.382-0.06-0.549-0.146c0.025,1.327,1.104,2.396,2.436,2.396
			c1.348,0,2.441-1.093,2.441-2.441C52.084,54.099,50.991,53.006,49.643,53.006z"/>
		<path style="fill:#3E3E3F;" d="M59.408,53.006c-0.473,0-0.911,0.14-1.284,0.373c0.363,0.212,0.618,0.589,0.618,1.039
			c0,0.674-0.547,1.221-1.221,1.221c-0.201,0-0.382-0.06-0.549-0.146c0.025,1.327,1.104,2.396,2.436,2.396
			c1.348,0,2.441-1.093,2.441-2.441C61.849,54.099,60.756,53.006,59.408,53.006z"/>
		<path style="fill:#FBD7D7;" d="M34.33,50.756c2.441,1.221,4.882,7.323,4.882,12.206C36.771,64.182,31.889,51.977,34.33,50.756z"/>
		<path style="fill:#FBD7D7;" d="M75.829,50.756c-2.441,1.221-4.882,7.323-4.882,12.206C73.388,64.182,78.27,51.977,75.829,50.756z"
			/>
	</g>
</g>
</svg>
