<?xml version="1.0" encoding="iso-8859-1"?>
<!-- Generator: Adobe Illustrator 17.1.0, SVG Export Plug-In . SVG Version: 6.00 Build 0)  -->
<!DOCTYPE svg PUBLIC "-//W3C//DTD SVG 1.0//EN" "http://www.w3.org/TR/2001/REC-SVG-20010904/DTD/svg10.dtd">
<svg version="1.0" xmlns="http://www.w3.org/2000/svg" xmlns:xlink="http://www.w3.org/1999/xlink" x="0px" y="0px" width="110px"
	 height="110px" viewBox="0 0 110 110" style="enable-background:new 0 0 110 110;" xml:space="preserve">
<g id="Artboard">
</g>
<g id="Multicolor">
	<circle style="fill:#FABC3D;" cx="55" cy="55" r="55"/>
	<g>
		<path style="fill:#84462D;" d="M87,79c0,2.209-1.791,4-4,4H27c-2.209,0-4-1.791-4-4V40c0-2.209,1.791-5,4-5h56
			c2.209,0,4,2.791,4,5V79z"/>
		<path style="fill:#3E3E3F;" d="M53.053,35l5.822-10.515c0.267-0.483,0.093-1.092-0.391-1.359
			c-0.483-0.267-1.092-0.093-1.359,0.391L50.767,35H53.053z"/>
		<path style="fill:#3E3E3F;" d="M44.947,35h2.286l-6.358-11.484c-0.267-0.483-0.876-0.658-1.359-0.391
			c-0.483,0.268-0.658,0.876-0.391,1.359L44.947,35z"/>
		<path style="fill:#9C6144;" d="M27,35c-2.209,0-4,2.791-4,5v39c0,0.578,0.128,1.123,0.348,1.619L68.967,35H27z"/>
		<path style="fill:#F0F1F1;" d="M83,44c0-2.209-1.791-4-4-4h-8v39h8c2.209,0,4-1.791,4-4V44z"/>
		<path style="fill:#21B2D1;" d="M65,75c-12,2.667-24,2.667-36,0c-2.667-9.333-2.667-21.667,0-31c12.924-2.766,24.857-2.568,36,0
			C67.667,53.333,67.667,65.666,65,75z"/>
		<circle style="fill:#5B5C5F;" cx="77" cy="47" r="4"/>
		<circle style="fill:#5B5C5F;" cx="77.001" cy="56.818" r="4"/>
		<path style="fill:#CFD3D4;" d="M76.907,59.036c-0.081,0.184-0.297,0.268-0.481,0.186l-0.668-0.295
			c-0.184-0.081-0.268-0.297-0.186-0.481l1.77-4.006c0.081-0.184,0.297-0.268,0.481-0.186l0.668,0.295
			c0.184,0.081,0.268,0.297,0.186,0.481L76.907,59.036z"/>
		<path style="fill:#CFD3D4;" d="M79.309,46.239c0.202-0.001,0.366,0.161,0.368,0.362l0.005,0.73
			c0.001,0.202-0.161,0.366-0.362,0.368l-4.38,0.031c-0.202,0.001-0.366-0.161-0.368-0.362l-0.005-0.73
			c-0.001-0.202,0.161-0.366,0.362-0.368L79.309,46.239z"/>
		<path style="fill:#5B5C5F;" d="M75,74c0,0.552-0.448,1-1,1s-1-0.448-1-1v-9c0-0.552,0.448-1,1-1s1,0.448,1,1V74z"/>
		<path style="fill:#5B5C5F;" d="M78,74c0,0.552-0.448,1-1,1s-1-0.448-1-1v-9c0-0.552,0.448-1,1-1s1,0.448,1,1V74z"/>
		<path style="fill:#5B5C5F;" d="M81,74c0,0.552-0.448,1-1,1s-1-0.448-1-1v-9c0-0.552,0.448-1,1-1s1,0.448,1,1V74z"/>
		<path style="fill:#40C9E7;" d="M29,44.001c-2.662,9.318-2.666,21.625-0.012,30.953L60.79,43.151
			C50.863,41.43,40.311,41.58,29,44.001z"/>
	</g>
</g>
</svg>
