<?xml version="1.0" encoding="iso-8859-1"?>
<!-- Generator: Adobe Illustrator 17.1.0, SVG Export Plug-In . SVG Version: 6.00 Build 0)  -->
<!DOCTYPE svg PUBLIC "-//W3C//DTD SVG 1.0//EN" "http://www.w3.org/TR/2001/REC-SVG-20010904/DTD/svg10.dtd">
<svg version="1.0" xmlns="http://www.w3.org/2000/svg" xmlns:xlink="http://www.w3.org/1999/xlink" x="0px" y="0px" width="110px"
	 height="110px" viewBox="0 0 110 110" style="enable-background:new 0 0 110 110;" xml:space="preserve">
<g id="Artboard">
</g>
<g id="Multicolor">
	<circle style="fill:#E04F5F;" cx="55" cy="55" r="55"/>
	<g>
		<g>
			<path style="fill:#FACB1B;" d="M87,55c0,17.664-14.324,32-32,32c-17.67,0-32-14.33-32-32s14.33-32,32-32S87,37.33,87,55z"/>
		</g>
		<g>
			<path style="fill:#FBE158;" d="M55,23c-17.67,0-32,14.33-32,32c0,8.664,3.451,16.519,9.045,22.281l45.236-45.237
				C71.519,26.45,63.664,23,55,23z"/>
		</g>
		<g>
			<path style="fill:#FFFFFF;" d="M87,55c0,1.35-0.08,2.69-0.25,4C68.16,59.08,59.08,68.16,59,86.75C57.69,86.92,56.35,87,55,87
				C55,65.77,65.77,55,87,55z"/>
		</g>
		<g>
			<path style="fill:#FFFFFF;" d="M23,55c0-1.35,0.08-2.69,0.25-4C41.84,50.92,50.92,41.84,51,23.25c1.31-0.17,2.65-0.25,4-0.25
				C55,44.23,44.23,55,23,55z"/>
		</g>
	</g>
</g>
</svg>
