<?xml version="1.0" encoding="iso-8859-1"?>
<!-- Generator: Adobe Illustrator 17.1.0, SVG Export Plug-In . SVG Version: 6.00 Build 0)  -->
<!DOCTYPE svg PUBLIC "-//W3C//DTD SVG 1.0//EN" "http://www.w3.org/TR/2001/REC-SVG-20010904/DTD/svg10.dtd">
<svg version="1.0" xmlns="http://www.w3.org/2000/svg" xmlns:xlink="http://www.w3.org/1999/xlink" x="0px" y="0px" width="110px"
	 height="110px" viewBox="0 0 110 110" style="enable-background:new 0 0 110 110;" xml:space="preserve">
<g id="Artboard">
</g>
<g id="Multicolor">
	<circle style="fill:#32BEA6;" cx="55" cy="55" r="55"/>
	<g>
		<g>
			<path style="fill:#EDBC7C;" d="M23,87c0,0,8-8,8-40l22.891-15.26c0.672-0.448,1.547-0.448,2.219,0L79,47c0,32,8,40,8,40H75l4-8
				L55,59L31,79l4,8H23z"/>
		</g>
		<g>
			<path style="fill:#F4D0A1;" d="M56.109,31.74c-0.672-0.448-1.547-0.448-2.219,0L31,47c0,9.439-0.698,16.776-1.68,22.449
				l33.342-33.342L56.109,31.74z"/>
		</g>
		<g>
			<path style="fill:#A97A45;" d="M75,87H35c12.75-10.79,19.72-27.34,19.99-27.98v-0.01C55,59,55,59,55,59l0.01,0.01v0.01
				C55.28,59.66,62.25,76.21,75,87z"/>
		</g>
		<g>
			<path style="fill:#84462D;" d="M56.157,31.772l0.588,0.392C56.855,32.236,57,32.158,57,32.028V23.23
				c0-0.127-0.103-0.23-0.23-0.23h-3.54C53.103,23,53,23.103,53,23.23v8.798c0,0.131,0.145,0.208,0.254,0.136l0.588-0.392
				C54.543,31.304,55.457,31.304,56.157,31.772z"/>
		</g>
		<g>
			<polygon style="fill:#84462D;" points="55,59 53,60.667 53,87 57,87 57,60.667 			"/>
		</g>
		<g>
			<path style="fill:#F4D0A1;" d="M54.99,59.01v0.01C54.72,59.66,47.75,76.21,35,87c-3-6-4-8-4-8L54.99,59.01z"/>
		</g>
		<g>
			<path style="fill:#F4D0A1;" d="M79,79c0,0-1,2-4,8C62.25,76.21,55.28,59.66,55.01,59.02v-0.01L79,79z"/>
		</g>
		<g>
			<path style="fill:#E2E4E5;" d="M31,47l3.106,6.211c0.169,0.339,0.516,0.553,0.894,0.553s0.725-0.214,0.894-0.553L39,47
				l3.106,6.211c0.169,0.339,0.516,0.553,0.894,0.553s0.725-0.214,0.894-0.553L47,47l3.106,6.211
				c0.169,0.339,0.516,0.553,0.894,0.553s0.725-0.214,0.894-0.553L55,47l3.106,6.211c0.169,0.339,0.516,0.553,0.894,0.553
				s0.725-0.214,0.894-0.553L63,47l3.106,6.211c0.169,0.339,0.516,0.553,0.894,0.553s0.725-0.214,0.894-0.553L71,47l3.106,6.211
				c0.169,0.339,0.516,0.553,0.894,0.553s0.725-0.214,0.894-0.553L79,47H31z"/>
		</g>
		<g>
			<polygon style="fill:#DF2C2C;" points="57,23 71,27 57,32 			"/>
		</g>
		<g>
			<g>
				<path style="fill:#FFFFFF;" d="M42.106,53.211c0.169,0.339,0.516,0.553,0.894,0.553s0.725-0.214,0.894-0.553L47,47h-8
					L42.106,53.211z"/>
			</g>
			<g>
				<path style="fill:#FFFFFF;" d="M34.106,53.211c0.169,0.339,0.516,0.553,0.894,0.553s0.725-0.214,0.894-0.553L39,47h-8
					L34.106,53.211z"/>
			</g>
			<g>
				<polygon style="fill:#FFFFFF;" points="47,47 48.59,50.18 51.77,47 				"/>
			</g>
		</g>
	</g>
</g>
</svg>
