<?xml version="1.0" encoding="iso-8859-1"?>
<!-- Generator: Adobe Illustrator 17.1.0, SVG Export Plug-In . SVG Version: 6.00 Build 0)  -->
<!DOCTYPE svg PUBLIC "-//W3C//DTD SVG 1.0//EN" "http://www.w3.org/TR/2001/REC-SVG-20010904/DTD/svg10.dtd">
<svg version="1.0" xmlns="http://www.w3.org/2000/svg" xmlns:xlink="http://www.w3.org/1999/xlink" x="0px" y="0px" width="110px"
	 height="110px" viewBox="0 0 110 110" style="enable-background:new 0 0 110 110;" xml:space="preserve">
<g id="Artboard">
</g>
<g id="Multicolor">
	<circle style="fill:#32BEA6;" cx="55" cy="55" r="55"/>
	<g>
		<g>
			<path style="fill:#40C9E7;" d="M85.832,85.445c0.205,0.307,0.224,0.701,0.05,1.027S85.369,87,85,87H24.737
				c-0.369,0-0.708-0.203-0.882-0.528s-0.155-0.72,0.05-1.027l30.131-45.197c0.185-0.278,0.498-0.445,0.832-0.445
				s0.647,0.167,0.832,0.445L85.832,85.445z"/>
		</g>
		<g>
			<path style="fill:#6FDAF1;" d="M55.701,40.248c-0.185-0.278-0.498-0.445-0.832-0.445s-0.647,0.167-0.832,0.445L23.905,85.445
				c-0.205,0.307-0.224,0.701-0.05,1.027C24.029,86.797,24.368,87,24.737,87h4.901l34.338-34.338L55.701,40.248z"/>
		</g>
		<g>
			<path style="fill:#3E3E3F;" d="M46.869,87c0,0,10-10,8-36c2,5,4,18,17,23c-2,2-2,11,1,13C65.869,87,46.869,87,46.869,87z"/>
		</g>
		<g>
			<path style="fill:#FFFFFF;" d="M77.009,72.22l-5.758,3.074c-0.117,0.063-0.254,0.076-0.381,0.037
				c-0.127-0.039-0.233-0.126-0.296-0.244l-0.471-0.887c-0.129-0.244-0.037-0.546,0.207-0.676l5.589-2.975L77.009,72.22z"/>
		</g>
		<g>
			<path style="fill:#FACB1B;" d="M30.869,37c0-3.161,1.838-5.886,4.5-7.186C34.31,29.298,33.126,29,31.869,29c-4.418,0-8,3.582-8,8
				s3.582,8,8,8c1.257,0,2.442-0.298,3.5-0.814C32.707,42.886,30.869,40.161,30.869,37z"/>
		</g>
	</g>
</g>
</svg>
