<?xml version="1.0" encoding="iso-8859-1"?>
<!-- Generator: Adobe Illustrator 17.1.0, SVG Export Plug-In . SVG Version: 6.00 Build 0)  -->
<!DOCTYPE svg PUBLIC "-//W3C//DTD SVG 1.0//EN" "http://www.w3.org/TR/2001/REC-SVG-20010904/DTD/svg10.dtd">
<svg version="1.0" xmlns="http://www.w3.org/2000/svg" xmlns:xlink="http://www.w3.org/1999/xlink" x="0px" y="0px" width="110px"
	 height="110px" viewBox="0 0 110 110" style="enable-background:new 0 0 110 110;" xml:space="preserve">
<g id="Artboard">
</g>
<g id="Multicolor">
	<circle style="fill:#25B7D3;" cx="55" cy="55" r="55"/>
	<g>
		<path style="fill:#FFFFFF;" d="M79,81c0,3.314-2.686,6-6,6H37c-3.314,0-6-2.686-6-6V29c0-3.314,2.686-6,6-6h36
			c3.314,0,6,2.686,6,6V81z"/>
		<rect x="39" y="29" style="fill:#3E3E3F;" width="32" height="30"/>
		<polygon style="fill:#5B5C5F;" points="39,29 39,59 40.869,59 70.869,29 		"/>
		<circle style="fill:#CFD3D4;" cx="65" cy="69" r="4"/>
		<circle style="fill:#4AC3AF;" cx="45" cy="65" r="2"/>
		<circle style="fill:#40C9E7;" cx="45" cy="73" r="2"/>
		<circle style="fill:#FACB1B;" cx="41" cy="69" r="2"/>
		<circle style="fill:#F79392;" cx="49" cy="69" r="2"/>
		<path style="fill:#CFD3D4;" d="M48,81c0,0.552-0.448,1-1,1h-6c-0.552,0-1-0.448-1-1s0.448-1,1-1h6C47.552,80,48,80.448,48,81z"/>
		<path style="fill:#CFD3D4;" d="M69,81c0,0.552-0.448,1-1,1h-6c-0.552,0-1-0.448-1-1s0.448-1,1-1h6C68.552,80,69,80.448,69,81z"/>
		<polygon style="fill:#FBE158;" points="51,59 43,59 43,51 47,51 47,55 51,55 		"/>
		<polygon style="fill:#21B2D1;" points="47,42 51,42 51,46 55,46 55,54 51,54 51,50 47,50 		"/>
		<rect x="55" y="51" style="fill:#F99134;" width="8" height="8"/>
		<rect x="63" y="47" style="fill:#4AC3AF;" width="4" height="12"/>
		<polygon style="fill:#FA5655;" points="63,34 63,42 55,42 55,38 59,38 59,34 		"/>
	</g>
</g>
</svg>
