<?xml version="1.0" encoding="iso-8859-1"?>
<!-- Generator: Adobe Illustrator 17.1.0, SVG Export Plug-In . SVG Version: 6.00 Build 0)  -->
<!DOCTYPE svg PUBLIC "-//W3C//DTD SVG 1.0//EN" "http://www.w3.org/TR/2001/REC-SVG-20010904/DTD/svg10.dtd">
<svg version="1.0" xmlns="http://www.w3.org/2000/svg" xmlns:xlink="http://www.w3.org/1999/xlink" x="0px" y="0px" width="110px"
	 height="110px" viewBox="0 0 110 110" style="enable-background:new 0 0 110 110;" xml:space="preserve">
<g id="Artboard">
</g>
<g id="Multicolor">
	<circle style="fill:#25B7D3;" cx="55" cy="55" r="55"/>
	<g>
		<g>
			<path style="fill:#3E3E3F;" d="M87,25c0-1.105-0.895-2-2-2H25c-1.105,0-2,0.895-2,2v60c0,1.105,0.895,2,2,2h60
				c1.105,0,2-0.895,2-2V25z"/>
		</g>
		<g>
			<path style="fill:#3E3E3F;" d="M87,85c0,1.105-0.895,2-2,2H25c-1.105,0-2-0.895-2-2V71h64V85z"/>
		</g>
		<g>
			<path style="fill:#DF2C2C;" d="M55.064,23c0,0-3,30,32,30c0-7.311,0-22.542,0-28c0-1.105-0.895-2-2-2H55.064z"/>
		</g>
		<g>
			<path style="fill:#DF2C2C;" d="M31.05,79h-0.1C28.216,79,26,81.216,26,83.95V87h10v-3.05C36,81.216,33.784,79,31.05,79z"/>
		</g>
		<g>
			<path style="fill:#DF2C2C;" d="M43.05,79h-0.1C40.216,79,38,81.216,38,83.95V87h10v-3.05C48,81.216,45.784,79,43.05,79z"/>
		</g>
		<g>
			<path style="fill:#DF2C2C;" d="M55.05,79h-0.1C52.216,79,50,81.216,50,83.95V87h10v-3.05C60,81.216,57.784,79,55.05,79z"/>
		</g>
		<g>
			<path style="fill:#DF2C2C;" d="M67.05,79h-0.1C64.216,79,62,81.216,62,83.95V87h10v-3.05C72,81.216,69.784,79,67.05,79z"/>
		</g>
		<g>
			<path style="fill:#DF2C2C;" d="M79.05,79h-0.1C76.216,79,74,81.216,74,83.95V87h10v-3.05C84,81.216,81.784,79,79.05,79z"/>
		</g>
		<g>
			<path style="fill:#FA5655;" d="M55,23H25c-1.105,0-2,0.895-2,2c0,5.458,0,20.689,0,28C58,53,55,23,55,23z"/>
		</g>
		<g>
			<path style="fill:#FA5655;" d="M55,23c0,0-0.937,9.41,4.384,17.689L77.074,23H55z"/>
		</g>
		<g>
			<rect x="23" y="70" style="fill:#9C6144;" width="64" height="5"/>
		</g>
		<path style="fill:#DF2C2C;" d="M87,70c0-2.63,0-9.77,0-13c-14.228,0-17.947,9.802-18.782,13H87z"/>
		<g>
			<path style="fill:#FACB1B;" d="M87,59H77c-1.105,0-2-0.895-2-2v-3c0-1.105,0.895-2,2-2h10V59z"/>
		</g>
		<path style="fill:#DF2C2C;" d="M41.782,70C40.947,66.802,37.228,57,23,57c0,3.23,0,10.37,0,13H41.782z"/>
		<g>
			<path style="fill:#FBE158;" d="M23,59h10c1.105,0,2-0.895,2-2v-3c0-1.105-0.895-2-2-2H23V59z"/>
		</g>
		<path style="fill:#FA5655;" d="M30.074,70l7.512-7.512C34.786,59.559,30.266,57,23,57c0,3.23,0,10.37,0,13H30.074z"/>
	</g>
</g>
</svg>
