<?xml version="1.0" encoding="iso-8859-1"?>
<!-- Generator: Adobe Illustrator 17.1.0, SVG Export Plug-In . SVG Version: 6.00 Build 0)  -->
<!DOCTYPE svg PUBLIC "-//W3C//DTD SVG 1.0//EN" "http://www.w3.org/TR/2001/REC-SVG-20010904/DTD/svg10.dtd">
<svg version="1.0" xmlns="http://www.w3.org/2000/svg" xmlns:xlink="http://www.w3.org/1999/xlink" x="0px" y="0px" width="110px"
	 height="110px" viewBox="0 0 110 110" style="enable-background:new 0 0 110 110;" xml:space="preserve">
<g id="Artboard">
</g>
<g id="Multicolor">
	<circle style="fill:#32BEA6;" cx="55" cy="55" r="55"/>
	<g>
		<g>
			<path style="fill:#E2E4E5;" d="M84.54,25.581l-0.12-0.12c-3.281-3.281-8.6-3.281-11.88,0L42.622,55.378
				c-1.153-0.264-2.349-0.417-3.583-0.417c-8.837,0-16,7.164-16,16s7.163,16,16,16c8.837,0,16-7.164,16-16
				c0-1.233-0.153-2.429-0.417-3.583L84.54,37.461C87.82,34.18,87.82,28.861,84.54,25.581z"/>
		</g>
		<g>
			<path style="fill:#FA5655;" d="M81.02,29.02l-0.04-0.04c-1.094-1.093-2.866-1.093-3.96,0L42.288,63.712
				C41.284,63.259,40.173,63,39,63c-4.418,0-8,3.582-8,8s3.582,8,8,8s8-3.582,8-8c0-1.173-0.259-2.284-0.712-3.288L81.02,32.98
				C82.114,31.887,82.114,30.113,81.02,29.02z"/>
		</g>
		<g>
			<path style="fill:#CFD3D4;" d="M59,63l-2-2c-0.552-0.552-0.552-1.448,0-2c0.552-0.552,1.448-0.552,2,0l2,2L59,63z"/>
		</g>
		<g>
			<path style="fill:#CFD3D4;" d="M65.5,56.5l-2-2c-0.552-0.552-0.552-1.448,0-2c0.552-0.552,1.448-0.552,2,0l2,2L65.5,56.5z"/>
		</g>
		<g>
			<path style="fill:#CFD3D4;" d="M72,50l-2-2c-0.552-0.552-0.552-1.448,0-2s1.448-0.552,2,0l2,2L72,50z"/>
		</g>
		<g>
			<path style="fill:#CFD3D4;" d="M78.5,43.5l-2-2c-0.552-0.552-0.552-1.448,0-2s1.448-0.552,2,0l2,2L78.5,43.5z"/>
		</g>
		<g>
			<path style="fill:#FFFFFF;" d="M84.48,25.56L81.04,29c-0.01-0.01-0.01-0.01-0.02-0.02l-0.04-0.04c-1.09-1.09-2.87-1.09-3.96,0
				L42.29,63.67c-1.01-0.45-2.12-0.71-3.29-0.71c-4.42,0-8,3.58-8,8c0,2.23,0.91,4.25,2.38,5.7l-5.65,5.65
				C24.81,79.42,23,75.4,23,70.96c0-8.84,7.16-16,16-16c1.23,0,2.44,0.14,3.59,0.41L72.5,25.46c3.28-3.28,8.6-3.28,11.88,0
				L84.48,25.56z"/>
		</g>
	</g>
</g>
</svg>
