<?xml version="1.0" encoding="iso-8859-1"?>
<!-- Generator: Adobe Illustrator 17.1.0, SVG Export Plug-In . SVG Version: 6.00 Build 0)  -->
<!DOCTYPE svg PUBLIC "-//W3C//DTD SVG 1.0//EN" "http://www.w3.org/TR/2001/REC-SVG-20010904/DTD/svg10.dtd">
<svg version="1.0" xmlns="http://www.w3.org/2000/svg" xmlns:xlink="http://www.w3.org/1999/xlink" x="0px" y="0px" width="110px"
	 height="110px" viewBox="0 0 110 110" style="enable-background:new 0 0 110 110;" xml:space="preserve">
<g id="Artboard">
</g>
<g id="Multicolor">
	<g>
		<circle style="fill:#E04F5F;" cx="55" cy="55" r="55"/>
	</g>
	<g>
		<path style="fill:#3E3E3F;" d="M83,71c-3.661-2.441-16-5-16-5h-2l-10,8l-10-8h-2c0,0-12.339,2.559-16,5c-3,2-4,16-4,16h32h32
			C87,87,86,73,83,71z"/>
		<polygon style="fill:#3E3E3F;" points="71,60 65,57 45,57 39,60 55,74 		"/>
		<path style="fill:#5B5C5F;" d="M73.658,65.317L71,60L55,74L39,60l-2.658,5.317c-0.741,1.482-0.141,3.284,1.341,4.025L55,78
			l17.317-8.658C73.799,68.601,74.399,66.799,73.658,65.317z"/>
		<g>
			<path style="fill:#B5BBBD;" d="M51,82h-2l-1-8.5c0-0.828,0.672-1.5,1.5-1.5s1.5,0.672,1.5,1.5V82z"/>
		</g>
		<g>
			<path style="fill:#B5BBBD;" d="M59,82h2l1-8.5c0-0.828-0.672-1.5-1.5-1.5S59,72.672,59,73.5V82z"/>
		</g>
		<g>
			<path style="fill:#3E3E3F;" d="M55,23c-10,0-16,7-16,11s0.01,10.07,1,17c1,7,12,15,15,15s14-8,15-15c0.99-6.93,1-13,1-17
				S65,23,55,23z"/>
		</g>
		<g>
			<path style="fill:#5B5C5F;" d="M39,34c0,4,0.01,10.07,1,17c1,7,12,15,15,15V23C45,23,39,30,39,34z"/>
		</g>
		<g>
			<path style="fill:#FBD7D7;" d="M44,43c0-4,10-3,10,1C54,47,44,51,44,43z"/>
		</g>
		<g>
			<path style="fill:#FBD7D7;" d="M66,43c0-4-10-3-10,1C56,47,66,51,66,43z"/>
		</g>
		<g>
			<path style="fill:#3E3E3F;" d="M52.006,44c0-1.104-0.896-2-2-2c-0.002,0-0.004,0-0.006,0c0.001,0.021,0.006,0.041,0.006,0.062
				c0,1.103-0.892,1.996-1.994,2C48.046,45.137,48.923,46,50.006,46C51.111,46,52.006,45.104,52.006,44z"/>
		</g>
		<g>
			<path style="fill:#3E3E3F;" d="M62,44c0-1.104-0.896-2-2-2c-0.002,0-0.004,0-0.006,0C59.995,42.021,60,42.042,60,42.063
				c0,1.103-0.892,1.996-1.994,2C58.04,45.137,58.917,46,60,46C61.104,46,62,45.104,62,44z"/>
		</g>
		<g>
			<path style="fill:#FBD7D7;" d="M55,53c-3,0-6,0-6,2s4,3,6,3s6-1,6-3S58,53,55,53z"/>
		</g>
	</g>
</g>
</svg>
