<?xml version="1.0" encoding="iso-8859-1"?>
<!-- Generator: Adobe Illustrator 17.1.0, SVG Export Plug-In . SVG Version: 6.00 Build 0)  -->
<!DOCTYPE svg PUBLIC "-//W3C//DTD SVG 1.0//EN" "http://www.w3.org/TR/2001/REC-SVG-20010904/DTD/svg10.dtd">
<svg version="1.0" xmlns="http://www.w3.org/2000/svg" xmlns:xlink="http://www.w3.org/1999/xlink" x="0px" y="0px" width="110px"
	 height="110px" viewBox="0 0 110 110" style="enable-background:new 0 0 110 110;" xml:space="preserve">
<g id="Artboard">
</g>
<g id="Multicolor">
	<circle style="fill:#25B7D3;" cx="55" cy="55" r="55"/>
	<g>
		<path style="fill:#DF2C2C;" d="M55.794,37.551c0.417-2.137,0.584-4.994-0.591-7.553c0,0,0.594-1.603,2.198-1.009
			c-1.112-2.421-3.453-2.839-4.62-2.891c-1.675-2.02-3.565-3.201-5.121-3.091l0.121,2.415l-1.753-1.666
			c-1.677,1.693-1.586,5.936,0.357,10.21c-0.209,0.533-0.813,2.464,0.716,3.944c-0.019-1.173,1.154-1.192,1.154-1.192
			s1.256,1.411,3.5,2.687c-0.528,1.739-0.949,4.198,0.207,6.716c1.585-4.276,4.516-5.621,8.791-4.036
			C59.596,39.568,57.457,38.284,55.794,37.551z"/>
		<path style="fill:#9CE5F4;" d="M68.398,46.746C69.914,46.189,71,44.748,71,43.04V43H39v0.04c0,1.708,1.086,3.149,2.602,3.706
			C35.206,50.698,31,57.398,31,65c0,12.15,10.745,22,24,22s24-9.85,24-22C79,57.398,74.794,50.698,68.398,46.746z"/>
		<path style="fill:#21B2D1;" d="M63.724,50.334c0.512,1.7-1.023,3.666-1.023,3.666s-0.519-1.521-1.752-2.478
			c-1.317-1.022-1.179-3.355-0.102-3.679S63.212,48.634,63.724,50.334z"/>
		<path style="fill:#21B2D1;" d="M75.563,58.728c-1.649,2.764-3.785,4.885-5.563,4.885c-2.52,0-4-13.613-6-2.613
			c-0.144,0.791-1.728,0.757-2,0c-3.36-9.366-6.915-8.443-5.865-6.387c1.629,3.19,0.174,5.98-1.634,7.833
			c0.413-0.423-0.698,1.672-2.246-0.049c-1.059-1.177-3.549-2.785-9.255-2.785c-3.87,0-6.81,0.74-8.909,1.582
			C34.04,61.791,34,62.391,34,63c0,11.598,9.402,21,21,21s21-9.402,21-21C76,61.536,75.848,60.107,75.563,58.728z"/>
		<path style="fill:#C9F2F8;" d="M34,63c0-0.609,0.04-1.209,0.091-1.805c2.099-0.842,5.039-1.582,8.909-1.582
			c5.706,0,8.196,1.608,9.255,2.785c1.548,1.721,2.659-0.375,2.246,0.049c0.171-0.175,0.337-0.361,0.499-0.553V43H39v0.04
			c0,1.708,1.086,3.149,2.602,3.706C35.206,50.697,31,57.398,31,65c0,12.15,10.745,22,24,22v-3C43.402,84,34,74.598,34,63z"/>
		<path style="fill:#21B2D1;" d="M52.255,62.397c-1.059-1.177-3.549-2.785-9.255-2.785c-3.87,0-6.81,0.74-8.909,1.582
			C34.04,61.791,34,62.391,34,63c0,11.598,9.402,21,21,21V61.894c-0.162,0.191-0.328,0.377-0.499,0.553
			C54.914,62.023,53.803,64.118,52.255,62.397z"/>
		<path style="fill:#21B2D1;" d="M52.255,62.397c-1.059-1.177-3.549-2.785-9.255-2.785c-3.87,0-6.81,0.74-8.909,1.582
			C34.04,61.791,34,62.391,34,63c0,11.598,9.402,21,21,21V61.894c-0.162,0.191-0.328,0.377-0.499,0.553
			C54.914,62.023,53.803,64.118,52.255,62.397z"/>
		<path style="fill:#21B2D1;" d="M52.255,62.397c-1.059-1.177-3.549-2.785-9.255-2.785c-3.87,0-6.81,0.74-8.909,1.582
			C34.04,61.791,34,62.391,34,63c0,11.598,9.402,21,21,21V61.894c-0.162,0.191-0.328,0.377-0.499,0.553
			C54.914,62.023,53.803,64.118,52.255,62.397z"/>
		<g>
			<path style="fill:#40C9E7;" d="M54.501,62.446c0.413-0.423-0.698,1.672-2.246-0.049c-1.059-1.177-3.549-2.785-9.255-2.785
				c-3.87,0-6.81,0.74-8.909,1.582C34.04,61.791,34,62.391,34,63c0,11.598,9.402,21,21,21V61.894
				C54.838,62.085,54.672,62.271,54.501,62.446z"/>
		</g>
		<g>
			<circle style="fill:#FFFFFF;" cx="51" cy="27" r="2"/>
			<path style="fill:#3E3E3F;" d="M51.241,25.89c-0.209,0-0.402,0.062-0.568,0.165c0.16,0.094,0.273,0.26,0.273,0.459
				c0,0.298-0.242,0.539-0.539,0.539c-0.089,0-0.169-0.027-0.243-0.065c0.011,0.586,0.488,1.059,1.077,1.059
				c0.596,0,1.079-0.483,1.079-1.079C52.32,26.373,51.837,25.89,51.241,25.89z"/>
		</g>
	</g>
</g>
</svg>
