<?xml version="1.0" encoding="iso-8859-1"?>
<!-- Generator: Adobe Illustrator 17.1.0, SVG Export Plug-In . SVG Version: 6.00 Build 0)  -->
<!DOCTYPE svg PUBLIC "-//W3C//DTD SVG 1.0//EN" "http://www.w3.org/TR/2001/REC-SVG-20010904/DTD/svg10.dtd">
<svg version="1.0" xmlns="http://www.w3.org/2000/svg" xmlns:xlink="http://www.w3.org/1999/xlink" x="0px" y="0px" width="110px"
	 height="110px" viewBox="0 0 110 110" style="enable-background:new 0 0 110 110;" xml:space="preserve">
<g id="Artboard">
</g>
<g id="Multicolor">
	<circle style="fill:#32BEA6;" cx="55" cy="55" r="55"/>
	<g>
		<g>
			<path style="fill:#DF2C2C;" d="M63,23L23,63l0.04,0.04c2.187,2.187,2.187,5.733,0,7.92L23,71l16,16l0.04-0.04
				c2.187-2.187,5.733-2.187,7.92,0L47,87l40-40l-0.04-0.04c-2.187-2.187-2.187-5.733,0-7.92L87,39L71,23l-0.04,0.04
				c-2.187,2.187-5.733,2.187-7.92,0L63,23z"/>
		</g>
		<g>
			<path style="fill:#F3B607;" d="M31.828,67.828c-1.562-1.562-1.562-4.095,0-5.657l30.343-30.343c1.562-1.562,4.095-1.562,5.657,0
				l10.343,10.343c1.562,1.562,1.562,4.095,0,5.657L47.828,78.172c-1.562,1.562-4.095,1.562-5.657,0L31.828,67.828z"/>
		</g>
		<g>
			<path style="fill:#DF2C2C;" d="M66.414,34.414c-0.781-0.781-2.047-0.781-2.828,0L34.414,63.586c-0.781,0.781-0.781,2.047,0,2.828
				l9.172,9.172c0.781,0.781,2.047,0.781,2.828,0l29.172-29.172c0.781-0.781,0.781-2.047,0-2.828L66.414,34.414z"/>
		</g>
		<g>
			<path style="fill:#FA5655;" d="M79.25,31.25l-6,6l-5.42-5.42c-1.56-1.56-4.09-1.56-5.66,0L31.83,62.17
				c-1.56,1.56-1.56,4.1,0,5.66l5.42,5.42l-6,6L23,71l0.04-0.04c2.19-2.19,2.19-5.73,0-7.92L23,63l40-40l0.04,0.04
				c2.19,2.19,5.73,2.19,7.92,0L71,23L79.25,31.25z"/>
		</g>
		<g>
			<path style="fill:#FACB1B;" d="M73.25,37.25l-2,2l-4.83-4.84c-0.78-0.78-2.05-0.78-2.83,0L34.42,63.59
				c-0.78,0.78-0.78,2.04,0,2.82l4.83,4.84l-2,2l-5.42-5.42c-1.56-1.56-1.56-4.1,0-5.66l30.34-30.34c1.57-1.56,4.1-1.56,5.66,0
				L73.25,37.25z"/>
		</g>
		<g>
			<path style="fill:#FA5655;" d="M71.25,39.25l-32,32l-4.83-4.84c-0.78-0.78-0.78-2.04,0-2.82l29.17-29.18
				c0.78-0.78,2.05-0.78,2.83,0L71.25,39.25z"/>
		</g>
		<g>
			<polygon style="fill:#FACB1B;" points="41.81,62.81 44.556,64.209 46.736,62.029 46.254,65.074 49,66.473 45.955,66.955 
				45.473,70 44.074,67.254 41.029,67.736 43.209,65.556 			"/>
		</g>
		<g>
			<polygon style="fill:#FACB1B;" points="63.795,40.824 66.541,42.224 68.721,40.044 68.239,43.089 70.985,44.488 67.941,44.97 
				67.459,48.015 66.059,45.268 63.015,45.75 65.194,43.571 			"/>
		</g>
		<g>
			<path style="fill:#FACB1B;" d="M47.778,58.621l-0.645,0.645l-0.87-0.87l2.205-2.205l0.87,0.87l-0.645,0.645l4.379,4.379
				L52.157,63L47.778,58.621z"/>
		</g>
		<g>
			<path style="fill:#FACB1B;" d="M48.865,55.794l0.915-0.915l5.249,5.249l-0.915,0.915L48.865,55.794z"/>
		</g>
		<g>
			<path style="fill:#FACB1B;" d="M52.959,57.129l-0.18-0.18c-1.845-1.845-1.89-3.254-1.035-4.109
				c0.255-0.255,0.435-0.375,0.72-0.48l0.945,0.945c-0.3,0.075-0.51,0.165-0.683,0.338c-0.405,0.405-0.337,1.057,0.975,2.369
				l0.195,0.195c1.387,1.387,1.965,1.38,2.385,0.96c0.143-0.143,0.27-0.375,0.345-0.675l0.899,0.899
				c-0.09,0.33-0.254,0.57-0.517,0.833C56.168,59.064,54.789,58.959,52.959,57.129z"/>
		</g>
		<g>
			<path style="fill:#FACB1B;" d="M52.854,51.806l0.915-0.915l2.197,2.197l-1.455-2.939l1.035-1.035l1.334,3.105l3.929,2.129
				l-1.02,1.02l-2.557-1.417l0.375,0.779l1.41,1.41l-0.915,0.915L52.854,51.806z"/>
		</g>
		<g>
			<path style="fill:#FACB1B;" d="M55.875,48.784l2.01-2.01l0.869,0.87l-1.095,1.095l1.305,1.305l0.967-0.968l0.87,0.87
				l-0.968,0.968l1.335,1.335l1.117-1.117l0.87,0.87l-2.032,2.032L55.875,48.784z"/>
		</g>
		<g>
			<path style="fill:#FACB1B;" d="M59.706,46.693l-0.645,0.645l-0.87-0.87l2.205-2.205l0.87,0.87l-0.645,0.645L65,50.157
				l-0.915,0.915L59.706,46.693z"/>
		</g>
		<polygon style="fill:#FBE158;" points="66.542,42.224 63.795,40.824 65.194,43.571 63.015,45.75 65.147,45.413 68.383,42.177 
			68.721,40.044 		"/>
		<polygon style="fill:#FBE158;" points="60.621,45.778 61.266,45.133 60.396,44.263 58.191,46.468 59.061,47.338 59.706,46.693 
			61.787,48.773 62.701,47.859 		"/>
		<polygon style="fill:#FBE158;" points="58.964,50.045 57.659,48.74 58.754,47.645 57.885,46.775 55.875,48.784 58.825,51.735 
			60.708,49.853 59.932,49.077 		"/>
		<polygon style="fill:#FBE158;" points="56.88,52.219 55.546,49.114 54.511,50.149 55.966,53.088 53.769,50.891 52.854,51.806 
			55.804,54.756 57.828,52.732 		"/>
		<path style="fill:#FBE158;" d="M53.701,56.012c-1.312-1.312-1.379-1.964-0.975-2.369c0.172-0.172,0.383-0.262,0.683-0.338
			l-0.945-0.945c-0.285,0.105-0.465,0.225-0.72,0.48c-0.855,0.855-0.81,2.265,1.035,4.109l0.18,0.18
			c0.085,0.085,0.164,0.148,0.247,0.225l0.925-0.925c-0.078-0.074-0.15-0.137-0.234-0.222L53.701,56.012z"/>
		
			<rect x="50.151" y="54.726" transform="matrix(0.7071 -0.7071 0.7071 0.7071 -25.2939 52.5592)" style="fill:#FBE158;" width="1.293" height="4.172"/>
		<polygon style="fill:#FBE158;" points="48.693,57.706 49.338,57.061 48.468,56.191 46.264,58.396 47.133,59.265 47.778,58.621 
			49.859,60.701 50.773,59.786 		"/>
		<polygon style="fill:#FBE158;" points="44.527,64.18 41.78,62.78 43.18,65.527 41,67.707 43.133,67.369 46.369,64.133 46.707,62 
					"/>
	</g>
</g>
</svg>
