<?xml version="1.0" encoding="iso-8859-1"?>
<!-- Generator: Adobe Illustrator 17.1.0, SVG Export Plug-In . SVG Version: 6.00 Build 0)  -->
<!DOCTYPE svg PUBLIC "-//W3C//DTD SVG 1.0//EN" "http://www.w3.org/TR/2001/REC-SVG-20010904/DTD/svg10.dtd">
<svg version="1.0" xmlns="http://www.w3.org/2000/svg" xmlns:xlink="http://www.w3.org/1999/xlink" x="0px" y="0px" width="110px"
	 height="110px" viewBox="0 0 110 110" style="enable-background:new 0 0 110 110;" xml:space="preserve">
<g id="Artboard">
</g>
<g id="Multicolor">
	<circle style="fill:#FABC3D;" cx="55" cy="55" r="55"/>
	<g>
		<g>
			<path style="fill:#BF0302;" d="M46,42c0-4-12-4-12,0v39c0,4,12,4,12,0V42z"/>
		</g>
		<g>
			<path style="fill:#BF0302;" d="M62,42c0-4,12-4,12,0v39c0,4-12,4-12,0V42z"/>
		</g>
		<g>
			<path style="fill:#DF2C2C;" d="M54,42c0-4-12-4-12,0v42c0,4,12,4,12,0V42z"/>
		</g>
		<g>
			<path style="fill:#DF2C2C;" d="M54,42c0-4,12-4,12,0v42c0,4-12,4-12,0V42z"/>
		</g>
		<g>
			<path style="fill:#3E3E3F;" d="M70,23c-6.351,0-11.165,1.881-14.308,5.592c-3.014,3.558-3.753,7.974-3.849,11.044
				C53.121,40.134,54,40.919,54,42c0-0.988,0.734-1.73,1.836-2.23c0.072-2.424,0.628-5.899,2.908-8.592
				C61.092,28.406,64.879,27,70,27c1.104,0,2-0.896,2-2S71.104,23,70,23z"/>
		</g>
		<g>
			<path style="fill:#3E3E3F;" d="M76,53c0,1.105-0.895,2-2,2H34c-1.105,0-2-0.895-2-2v-4c0-1.105,0.895-2,2-2h40
				c1.105,0,2,0.895,2,2V53z"/>
		</g>
		<g>
			<path style="fill:#3E3E3F;" d="M76,77c0,1.105-0.895,2-2,2H34c-1.105,0-2-0.895-2-2v-4c0-1.105,0.895-2,2-2h40
				c1.105,0,2,0.895,2,2V77z"/>
		</g>
		<g>
			<path style="fill:#5B5C5F;" d="M54,47H34c-1.104,0-2,0.896-2,2v4c0,1.104,0.896,2,2,2h20V47z"/>
		</g>
		<g>
			<path style="fill:#5B5C5F;" d="M54,71H34c-1.104,0-2,0.896-2,2v4c0,1.104,0.896,2,2,2h20V71z"/>
		</g>
		<g>
			<circle style="fill:#F0F1F1;" cx="54" cy="63" r="12"/>
		</g>
		<g>
			<path style="fill:#FFFFFF;" d="M45.515,54.517c-4.686,4.686-4.686,12.284,0,16.971c2.329,2.329,5.377,3.498,8.43,3.512l0-23.995
				C50.892,51.019,47.844,52.188,45.515,54.517z"/>
		</g>
		<g>
			<path style="fill:#3E3E3F;" d="M55.778,61.667c0.736,0.982,0.537,2.375-0.444,3.111s-2.375,0.537-3.111-0.444
				C51.486,63.351,50,57.667,50,57.667S55.041,60.685,55.778,61.667z"/>
		</g>
	</g>
</g>
</svg>
