<?xml version="1.0" encoding="iso-8859-1"?>
<!-- Generator: Adobe Illustrator 17.1.0, SVG Export Plug-In . SVG Version: 6.00 Build 0)  -->
<!DOCTYPE svg PUBLIC "-//W3C//DTD SVG 1.0//EN" "http://www.w3.org/TR/2001/REC-SVG-20010904/DTD/svg10.dtd">
<svg version="1.0" xmlns="http://www.w3.org/2000/svg" xmlns:xlink="http://www.w3.org/1999/xlink" x="0px" y="0px" width="110px"
	 height="110px" viewBox="0 0 110 110" style="enable-background:new 0 0 110 110;" xml:space="preserve">
<g id="Artboard">
</g>
<g id="Multicolor">
	<circle style="fill:#25B7D3;" cx="55" cy="55" r="55"/>
	<g>
		<path style="fill:#9CE5F4;" d="M35,35.685c0,1.695-1.069,3.206-2.667,3.771C29.226,40.554,27,43.517,27,47v32c0,4.418,3.582,8,8,8
			h20V33H35V35.685z"/>
		<path style="fill:#9CE5F4;" d="M77.667,39.456C76.069,38.89,75,37.38,75,35.684V33H35v2.684c0,1.696-1.069,3.206-2.667,3.771
			C29.226,40.554,27,43.517,27,47v32c0,4.418,3.582,8,8,8h20h20c4.418,0,8-3.582,8-8V47C83,43.517,80.774,40.554,77.667,39.456z"/>
		<path style="fill:#40C9E7;" d="M41,40.684c0,1.696-1.069,3.206-2.667,3.771C35.226,45.554,33,48.517,33,52v23c0,3.314,2.686,6,6,6
			h16V33H41V40.684z"/>
		<path style="fill:#21B2D1;" d="M71.667,44.456C70.069,43.89,69,42.38,69,40.684V33H55H41v7.684c0,1.696-1.069,3.206-2.667,3.771
			C35.226,45.554,33,48.517,33,52v23c0,3.314,2.686,6,6,6h16h16c3.314,0,6-2.686,6-6V52C77,48.517,74.774,45.554,71.667,44.456z"/>
		<g>
			<circle style="fill:#FACB1B;" cx="71.5" cy="75.5" r="5.5"/>
		</g>
		<g>
			<path style="fill:#8E6134;" d="M71.766,72.479c0.175,0,0.313,0.138,0.313,0.312v0.16c0.43,0.051,0.793,0.189,1.128,0.4
				c0.116,0.065,0.218,0.175,0.218,0.35c0,0.226-0.182,0.4-0.408,0.4c-0.073,0-0.146-0.022-0.218-0.066
				c-0.255-0.153-0.502-0.262-0.75-0.32v1.397c1.106,0.276,1.579,0.72,1.579,1.499c0,0.801-0.626,1.332-1.55,1.419v0.437
				c0,0.175-0.138,0.313-0.313,0.313s-0.32-0.138-0.32-0.313v-0.451c-0.546-0.058-1.048-0.255-1.492-0.568
				c-0.124-0.08-0.196-0.196-0.196-0.349c0-0.226,0.175-0.4,0.4-0.4c0.087,0,0.175,0.029,0.24,0.08
				c0.342,0.248,0.677,0.415,1.077,0.488v-1.434c-1.062-0.276-1.558-0.677-1.558-1.499c0-0.779,0.619-1.317,1.528-1.39v-0.153
				C71.445,72.617,71.591,72.479,71.766,72.479z M71.475,74.96v-1.289c-0.466,0.044-0.699,0.291-0.699,0.611
				C70.776,74.589,70.914,74.778,71.475,74.96z M72.05,75.972v1.324c0.466-0.051,0.72-0.284,0.72-0.633
				C72.77,76.343,72.61,76.146,72.05,75.972z"/>
		</g>
		<g>
			<path style="fill:#8CE3D4;" d="M50.615,80.451c-0.237,0.485-0.822,0.686-1.307,0.45l-15.809-7.715
				c-0.485-0.237-0.686-0.822-0.45-1.307l16.286-33.374c0.237-0.485,0.822-0.686,1.307-0.45l15.809,7.715
				c0.485,0.237,0.686,0.822,0.45,1.307L50.615,80.451z"/>
		</g>
		<g>
			<path style="fill:#4AC3AF;" d="M52.42,41.098l10.539,5.143c-0.471,0.966-0.067,2.142,0.899,2.614L50.144,76.959
				c-0.966-0.471-2.142-0.067-2.614,0.899l-10.539-5.143c0.471-0.966,0.067-2.142-0.899-2.614l13.715-28.105
				C50.772,42.468,51.948,42.064,52.42,41.098z"/>
		</g>
		<g>
			<circle style="fill:#17B198;" cx="49.975" cy="59.478" r="5.864"/>
		</g>
		<g>
			<path style="fill:#C2F8F0;" d="M46.217,57.543c0.105-0.214,0.357-0.302,0.571-0.197l0.196,0.096
				c0.319-0.496,0.708-0.86,1.167-1.144c0.149-0.104,0.345-0.163,0.559-0.059c0.277,0.135,0.383,0.462,0.248,0.739
				c-0.043,0.089-0.114,0.166-0.211,0.229c-0.34,0.221-0.622,0.46-0.841,0.729l1.714,0.836c1.001-1.191,1.829-1.506,2.785-1.04
				c0.982,0.479,1.259,1.565,0.813,2.751l0.536,0.262c0.214,0.104,0.301,0.356,0.196,0.571c-0.104,0.214-0.361,0.31-0.575,0.205
				l-0.554-0.27c-0.398,0.635-0.94,1.133-1.589,1.49c-0.172,0.104-0.359,0.124-0.546,0.032c-0.277-0.135-0.387-0.454-0.251-0.731
				c0.052-0.107,0.14-0.197,0.242-0.246c0.508-0.271,0.914-0.583,1.243-1.03l-1.759-0.858c-0.975,1.138-1.762,1.505-2.771,1.013
				c-0.955-0.466-1.246-1.547-0.79-2.707l-0.188-0.092C46.195,58.018,46.112,57.757,46.217,57.543z M49.086,59.385l-1.58-0.771
				c-0.225,0.598-0.061,1.031,0.332,1.223C48.213,60.02,48.528,59.964,49.086,59.385z M50.672,59.286l1.625,0.792
				c0.216-0.602,0.083-1.053-0.346-1.263C51.558,58.624,51.221,58.703,50.672,59.286z"/>
		</g>
		<g>
			<path style="fill:#8CE3D4;" d="M75.908,68.17c0.228,0.489,0.017,1.071-0.472,1.299l-15.94,7.439
				c-0.489,0.228-1.071,0.017-1.299-0.472L42.492,42.784c-0.228-0.489-0.017-1.071,0.472-1.299l15.94-7.439
				c0.489-0.228,1.071-0.017,1.299,0.472L75.908,68.17z"/>
		</g>
		<g>
			<path style="fill:#17B198;" d="M46.448,42.016l10.627-4.959c0.455,0.974,1.624,1.399,2.598,0.945L72.897,66.34
				c-0.974,0.455-1.399,1.623-0.945,2.598l-10.627,4.959c-0.455-0.974-1.624-1.399-2.598-0.945L45.503,44.614
				C46.477,44.159,46.902,42.991,46.448,42.016z"/>
		</g>
		<g>
			<circle style="fill:#4AC3AF;" cx="59.2" cy="55.477" r="5.864"/>
		</g>
		<g>
			<path style="fill:#C2F8F0;" d="M55.302,57.176c-0.101-0.216-0.01-0.467,0.206-0.568l0.198-0.092
				c-0.185-0.56-0.224-1.09-0.156-1.626c0.013-0.182,0.09-0.371,0.306-0.472c0.279-0.13,0.6-0.006,0.73,0.273
				c0.042,0.09,0.057,0.192,0.045,0.308c-0.042,0.403-0.034,0.772,0.037,1.112l1.729-0.807c-0.297-1.528-0.021-2.369,0.942-2.819
				c0.99-0.462,2.009,0.005,2.65,1.098l0.541-0.252c0.216-0.101,0.467-0.01,0.567,0.207c0.101,0.216,0.014,0.476-0.202,0.577
				l-0.559,0.261c0.243,0.708,0.29,1.443,0.159,2.173c-0.027,0.199-0.129,0.356-0.318,0.444c-0.279,0.13-0.596,0.015-0.726-0.264
				c-0.05-0.108-0.065-0.233-0.04-0.344c0.108-0.566,0.122-1.076-0.019-1.613L59.62,55.6c0.271,1.474,0.062,2.317-0.956,2.792
				c-0.963,0.449-1.986-0.005-2.601-1.088l-0.189,0.088C55.658,57.493,55.403,57.392,55.302,57.176z M58.54,56.103l-1.593,0.744
				c0.323,0.551,0.763,0.696,1.159,0.511C58.484,57.183,58.638,56.902,58.54,56.103z M59.459,54.809l1.638-0.764
				c-0.332-0.547-0.767-0.727-1.199-0.526C59.502,53.704,59.352,54.015,59.459,54.809z"/>
		</g>
		<path style="fill:#DF2C2C;" d="M73,23H37c-2.209,0-4,1.791-4,4v2v2c0,1.104,0.896,2,2,2h40c1.104,0,2-0.896,2-2v-2v-2
			C77,24.791,75.209,23,73,23z"/>
		<path style="fill:#C2F8F0;" d="M45.503,44.6c0.974-0.455,1.399-1.624,0.945-2.598L55,38.011v-2.157l-12.036,5.617
			c-0.489,0.228-0.701,0.81-0.472,1.299L55,69.572V64.95L45.503,44.6z"/>
		<path style="fill:#4AC3AF;" d="M45.503,44.621L55,64.971v-5.402c-0.446-0.458-0.828-0.993-1.114-1.605
			c-1.059-2.27-0.535-4.868,1.114-6.564V38.032l-8.552,3.991C46.902,42.997,46.477,44.166,45.503,44.621z"/>
		<path style="fill:#8CE3D4;" d="M53.886,58.088c0.286,0.612,0.668,1.147,1.114,1.605v-8.169
			C53.352,53.22,52.827,55.818,53.886,58.088z"/>
		<path style="fill:#FA5655;" d="M55,23H37c-2.209,0-4,1.791-4,4v2v2c0,1.104,0.896,2,2,2h20V23z"/>
		<g>
			<circle style="fill:#FBE158;" cx="63" cy="74" r="7"/>
		</g>
		<g>
			<path style="fill:#A97A45;" d="M63.338,70.155c0.222,0,0.398,0.176,0.398,0.398v0.204c0.547,0.065,1.01,0.241,1.436,0.509
				c0.148,0.083,0.278,0.222,0.278,0.445c0,0.287-0.232,0.509-0.519,0.509c-0.092,0-0.185-0.028-0.278-0.083
				c-0.324-0.194-0.639-0.333-0.954-0.407v1.778c1.408,0.352,2.01,0.917,2.01,1.908c0,1.019-0.797,1.695-1.973,1.806v0.556
				c0,0.222-0.176,0.398-0.398,0.398c-0.223,0-0.408-0.176-0.408-0.398v-0.574c-0.695-0.074-1.333-0.324-1.898-0.722
				c-0.158-0.102-0.25-0.25-0.25-0.445c0-0.287,0.223-0.509,0.51-0.509c0.111,0,0.222,0.037,0.306,0.102
				c0.435,0.315,0.861,0.528,1.371,0.621v-1.825c-1.352-0.352-1.982-0.861-1.982-1.908c0-0.991,0.787-1.676,1.945-1.769v-0.194
				C62.931,70.331,63.116,70.155,63.338,70.155z M62.968,73.313v-1.639c-0.593,0.056-0.889,0.37-0.889,0.778
				C62.079,72.841,62.254,73.082,62.968,73.313z M63.699,74.601v1.686c0.593-0.065,0.917-0.361,0.917-0.806
				C64.616,75.073,64.413,74.823,63.699,74.601z"/>
		</g>
		<g>
			<circle style="fill:#FBE158;" cx="38.5" cy="75.5" r="5.5"/>
		</g>
		<g>
			<path style="fill:#A97A45;" d="M38.766,72.479c0.175,0,0.313,0.138,0.313,0.312v0.16c0.43,0.051,0.793,0.189,1.128,0.4
				c0.116,0.065,0.218,0.175,0.218,0.35c0,0.226-0.182,0.4-0.408,0.4c-0.073,0-0.146-0.022-0.218-0.066
				c-0.255-0.153-0.502-0.262-0.75-0.32v1.397c1.106,0.276,1.579,0.72,1.579,1.499c0,0.801-0.626,1.332-1.55,1.419v0.437
				c0,0.175-0.138,0.313-0.313,0.313s-0.32-0.138-0.32-0.313v-0.451c-0.546-0.058-1.048-0.255-1.492-0.568
				c-0.124-0.08-0.196-0.196-0.196-0.349c0-0.226,0.175-0.4,0.4-0.4c0.087,0,0.175,0.029,0.24,0.08
				c0.342,0.248,0.677,0.415,1.077,0.488v-1.434c-1.062-0.276-1.558-0.677-1.558-1.499c0-0.779,0.619-1.317,1.528-1.39v-0.153
				C38.445,72.617,38.591,72.479,38.766,72.479z M38.475,74.96v-1.289c-0.466,0.044-0.699,0.291-0.699,0.611
				C37.776,74.589,37.914,74.778,38.475,74.96z M39.05,75.972v1.324c0.466-0.051,0.72-0.284,0.72-0.633
				C39.77,76.343,39.61,76.146,39.05,75.972z"/>
		</g>
	</g>
</g>
</svg>
