<?xml version="1.0" encoding="iso-8859-1"?>
<!-- Generator: Adobe Illustrator 17.1.0, SVG Export Plug-In . SVG Version: 6.00 Build 0)  -->
<!DOCTYPE svg PUBLIC "-//W3C//DTD SVG 1.0//EN" "http://www.w3.org/TR/2001/REC-SVG-20010904/DTD/svg10.dtd">
<svg version="1.0" xmlns="http://www.w3.org/2000/svg" xmlns:xlink="http://www.w3.org/1999/xlink" x="0px" y="0px" width="110px"
	 height="110px" viewBox="0 0 110 110" style="enable-background:new 0 0 110 110;" xml:space="preserve">
<g id="Artboard">
</g>
<g id="Multicolor">
	<circle style="fill:#25B7D3;" cx="55" cy="55" r="55"/>
	<g>
		<g>
			<circle style="fill:#3E3E3F;" cx="55" cy="55" r="32"/>
		</g>
		<g>
			<path style="fill:#5B5C5F;" d="M32.373,32.373c-12.497,12.497-12.497,32.758,0,45.255l45.255-45.255
				C65.131,19.876,44.869,19.876,32.373,32.373z"/>
		</g>
		<g>
			<circle style="fill:#5B5C5F;" cx="55" cy="55" r="16"/>
		</g>
		<g>
			<circle style="fill:#CFD3D4;" cx="55" cy="55" r="3"/>
		</g>
		<g>
			<path style="fill:#E2E4E5;" d="M69.142,40.858c-7.81-7.81-20.474-7.81-28.284,0s-7.81,20.474,0,28.284s20.474,7.81,28.284,0
				S76.953,48.668,69.142,40.858z M70.692,58.117c-3.56-0.938-6.92-2.325-10.081-4.156c2.295-2.84,4.934-5.335,7.919-7.484
				C70.746,49.989,71.473,54.169,70.692,58.117z M63.523,41.47c-2.149,2.985-4.645,5.624-7.484,7.919
				c-1.831-3.161-3.218-6.521-4.156-10.081C55.831,38.527,60.011,39.254,63.523,41.47z M45.421,42.206
				c2.017,3.074,3.587,6.347,4.713,9.819c-3.605,0.581-7.236,0.675-10.893,0.281C39.905,48.398,41.958,44.804,45.421,42.206z
				 M39.616,59.377c3.913-0.856,7.857-1.125,11.832-0.825c0.3,3.975,0.031,7.919-0.825,11.832c-2.539-0.72-4.937-2.072-6.936-4.071
				C41.687,64.315,40.335,61.917,39.616,59.377z M57.695,70.759c-0.394-3.657-0.3-7.288,0.281-10.893
				c3.471,1.126,6.744,2.696,9.819,4.713C65.204,68.03,61.617,70.092,57.695,70.759z"/>
		</g>
		<g>
			<path style="fill:#FFFFFF;" d="M39.616,59.377c3.913-0.856,7.857-1.125,11.832-0.825l17.695-17.695
				c-7.81-7.81-20.474-7.81-28.284,0s-7.81,20.474,0,28.284l2.828-2.828C41.687,64.315,40.335,61.917,39.616,59.377z M63.523,41.47
				c-2.149,2.985-4.645,5.624-7.484,7.919c-1.831-3.161-3.218-6.521-4.156-10.081C55.831,38.527,60.011,39.254,63.523,41.47z
				 M39.241,52.305c0.664-3.908,2.718-7.501,6.18-10.099c2.017,3.074,3.587,6.347,4.713,9.819
				C46.529,52.605,42.898,52.699,39.241,52.305z"/>
		</g>
		<g>
			<circle style="fill:#5B5C5F;" cx="55" cy="55" r="3"/>
		</g>
	</g>
</g>
</svg>
