<?xml version="1.0" encoding="iso-8859-1"?>
<!-- Generator: Adobe Illustrator 17.1.0, SVG Export Plug-In . SVG Version: 6.00 Build 0)  -->
<!DOCTYPE svg PUBLIC "-//W3C//DTD SVG 1.0//EN" "http://www.w3.org/TR/2001/REC-SVG-20010904/DTD/svg10.dtd">
<svg version="1.0" xmlns="http://www.w3.org/2000/svg" xmlns:xlink="http://www.w3.org/1999/xlink" x="0px" y="0px" width="110px"
	 height="110px" viewBox="0 0 110 110" style="enable-background:new 0 0 110 110;" xml:space="preserve">
<g id="Artboard" style="display:none;">
	
		<rect x="-72.5" y="-1186.5" style="display:inline;fill:#808080;stroke:#000000;stroke-miterlimit:10;" width="1392" height="1369"/>
</g>
<g id="R-Multicolor">
	<circle style="fill:#32BEA6;" cx="55" cy="55" r="55"/>
	<g>
		<g>
			<path style="fill:#A97A45;" d="M37,47.507c12-6,24-6,36,0v-1.639c0-2.582,3.826-6.833,3.826-9.415
				c0-8.723-10.905-13.087-21.812-13.087c-10.915,0-21.833,4.368-21.833,13.109c0,2.564,3.818,6.795,3.818,9.359V47.507z"/>
		</g>
		<g>
			<path style="fill:#F0F1F1;" d="M79,52.082c0-0.682-0.348-1.317-0.922-1.685c-15.385-9.863-30.771-9.863-46.156,0
				C31.349,50.765,31,51.401,31,52.082V83c0,2.209,1.791,4,4,4h40c2.209,0,4-1.791,4-4V52.082z"/>
		</g>
		<g>
			<path style="fill:#3E3E3F;" d="M31,73h-2c-1.105,0-2-0.895-2-2v-8c0-1.105,0.895-2,2-2h2V73z"/>
		</g>
		<g>
			<path style="fill:#5B5C5F;" d="M27,63v4h4v-6h-2C27.896,61,27,61.896,27,63z"/>
		</g>
		<g>
			<path style="fill:#F8E1C2;" d="M40,46.132c10-4.167,20-4.167,30,0c0-2.262,0.892-3.931,2.296-6.438
				c0.667-1.191,4.446-6.065-3.697-10.409c-3.478-1.855-8.429-2.919-13.584-2.919c-5.16,0-10.116,1.065-13.597,2.923
				c-7.757,4.14-4.65,8.724-3.711,10.396C39.228,42.393,40,43.927,40,46.132z"/>
		</g>
		<g>
			<path style="fill:#FFFFFF;" d="M31,52.082V83c0,2.209,1.791,4,4,4h20V43c-7.692,0-15.385,2.466-23.078,7.397
				C31.349,50.765,31,51.401,31,52.082z"/>
		</g>
	</g>
</g>
<g id="Multicolor" style="display:none;">
	<g style="display:inline;">
		<g>
			<path style="fill:#A97A45;" d="M37,47.507c12-6,24-6,36,0v-1.639c0-2.582,3.826-6.833,3.826-9.415
				c0-8.723-10.905-13.087-21.812-13.087c-10.915,0-21.833,4.368-21.833,13.109c0,2.564,3.818,6.795,3.818,9.359V47.507z"/>
		</g>
		<g>
			<path style="fill:#F0F1F1;" d="M79,52.082c0-0.682-0.348-1.317-0.922-1.685c-15.385-9.863-30.771-9.863-46.156,0
				C31.349,50.765,31,51.401,31,52.082V83c0,2.209,1.791,4,4,4h40c2.209,0,4-1.791,4-4V52.082z"/>
		</g>
		<g>
			<path style="fill:#3E3E3F;" d="M31,73h-2c-1.105,0-2-0.895-2-2v-8c0-1.105,0.895-2,2-2h2V73z"/>
		</g>
		<g>
			<path style="fill:#5B5C5F;" d="M27,63v4h4v-6h-2C27.896,61,27,61.896,27,63z"/>
		</g>
		<g>
			<path style="fill:#F8E1C2;" d="M40,46.132c10-4.167,20-4.167,30,0c0-2.262,0.892-3.931,2.296-6.438
				c0.667-1.191,4.446-6.065-3.697-10.409c-3.478-1.855-8.429-2.919-13.584-2.919c-5.16,0-10.116,1.065-13.597,2.923
				c-7.757,4.14-4.65,8.724-3.711,10.396C39.228,42.393,40,43.927,40,46.132z"/>
		</g>
		<g>
			<path style="fill:#FFFFFF;" d="M31,52.082V83c0,2.209,1.791,4,4,4h20V43c-7.692,0-15.385,2.466-23.078,7.397
				C31.349,50.765,31,51.401,31,52.082z"/>
		</g>
	</g>
</g>
<g id="Blue" style="display:none;">
	<g style="display:inline;">
		<g>
			<path style="fill:#0081A1;" d="M37,47.507c12-6,24-6,36,0v-1.639c0-2.583,3.826-6.833,3.826-9.415
				c0-8.723-10.904-13.087-21.812-13.087c-10.914,0-21.832,4.369-21.832,13.109c0,2.563,3.818,6.795,3.818,9.359V47.507z"/>
		</g>
		<g>
			<path style="fill:#E1F5FA;" d="M79,52.082c0-0.681-0.348-1.316-0.922-1.684c-15.386-9.863-30.771-9.863-46.156,0
				C31.349,50.765,31,51.401,31,52.082V83c0,2.209,1.791,4,4,4h40c2.209,0,4-1.791,4-4V52.082z"/>
		</g>
		<g>
			<path style="fill:#0C333D;" d="M31,73h-2c-1.104,0-2-0.896-2-2v-8c0-1.104,0.896-2,2-2h2V73z"/>
		</g>
		<g>
			<path style="fill:#0F6175;" d="M27,63v4h4v-6h-2C27.896,61,27,61.896,27,63z"/>
		</g>
		<g>
			<path style="fill:#BBE7F2;" d="M40,46.132c10-4.167,20-4.167,30,0c0-2.262,0.893-3.931,2.296-6.438
				c0.667-1.19,4.446-6.065-3.697-10.409c-3.478-1.855-8.429-2.92-13.585-2.92c-5.159,0-10.115,1.066-13.596,2.924
				c-7.758,4.139-4.65,8.724-3.711,10.396C39.229,42.393,40,43.928,40,46.132z"/>
		</g>
		<g>
			<path style="fill:#FFFFFF;" d="M31,52.082V83c0,2.209,1.791,4,4,4h20V43c-7.692,0-15.385,2.466-23.078,7.397
				C31.349,50.765,31,51.401,31,52.082z"/>
		</g>
	</g>
</g>
<g id="R-Blue" style="display:none;">
	<circle style="display:inline;fill:#81D2EB;" cx="55" cy="55" r="55"/>
	<g style="display:inline;">
		<g>
			<path style="fill:#0081A1;" d="M37,47.507c12-6,24-6,36,0v-1.639c0-2.583,3.826-6.833,3.826-9.415
				c0-8.723-10.904-13.087-21.812-13.087c-10.914,0-21.832,4.369-21.832,13.109c0,2.563,3.818,6.795,3.818,9.359V47.507z"/>
		</g>
		<g>
			<path style="fill:#E1F5FA;" d="M79,52.081c0-0.681-0.348-1.316-0.922-1.684c-15.386-9.863-30.771-9.863-46.156,0
				C31.349,50.765,31,51.401,31,52.081V83c0,2.209,1.791,4,4,4h40c2.209,0,4-1.791,4-4V52.081z"/>
		</g>
		<g>
			<path style="fill:#0C333D;" d="M31,73h-2c-1.104,0-2-0.896-2-2v-8c0-1.104,0.896-2,2-2h2V73z"/>
		</g>
		<g>
			<path style="fill:#0F6175;" d="M27,63v4h4v-6h-2C27.896,61,27,61.895,27,63z"/>
		</g>
		<g>
			<path style="fill:#BBE7F2;" d="M40,46.132c10-4.167,20-4.167,30,0c0-2.262,0.893-3.931,2.296-6.438
				c0.667-1.19,4.446-6.065-3.697-10.409c-3.478-1.855-8.429-2.92-13.585-2.92c-5.159,0-10.115,1.066-13.596,2.924
				c-7.758,4.139-4.65,8.724-3.711,10.396C39.229,42.393,40,43.928,40,46.132z"/>
		</g>
		<g>
			<path style="fill:#FFFFFF;" d="M31,52.081V83c0,2.209,1.791,4,4,4h20V43c-7.692,0-15.385,2.466-23.078,7.397
				C31.349,50.765,31,51.401,31,52.081z"/>
		</g>
	</g>
</g>
<g id="Green" style="display:none;">
	<g style="display:inline;">
		<g>
			<path style="fill:#009687;" d="M37,47.507c12-6,24-6,36,0v-1.639c0-2.583,3.826-6.833,3.826-9.415
				c0-8.723-10.904-13.087-21.812-13.087c-10.914,0-21.832,4.369-21.832,13.109c0,2.563,3.818,6.795,3.818,9.359V47.507z"/>
		</g>
		<g>
			<path style="fill:#D7FCF9;" d="M79,52.082c0-0.681-0.348-1.316-0.922-1.684c-15.386-9.863-30.77-9.863-46.156,0
				C31.349,50.765,31,51.401,31,52.082V83c0,2.209,1.791,4,4,4h40c2.209,0,4-1.791,4-4V52.082z"/>
		</g>
		<g>
			<path style="fill:#0A3631;" d="M31,73h-2c-1.104,0-2-0.896-2-2v-8c0-1.104,0.896-2,2-2h2V73z"/>
		</g>
		<g>
			<path style="fill:#14635B;" d="M27,63v4h4v-6h-2C27.895,61,27,61.896,27,63z"/>
		</g>
		<g>
			<path style="fill:#AAF0E9;" d="M40,46.132c10-4.167,20-4.167,30,0c0-2.262,0.893-3.931,2.296-6.438
				c0.667-1.19,4.446-6.065-3.697-10.409c-3.478-1.855-8.429-2.92-13.585-2.92c-5.159,0-10.115,1.066-13.596,2.924
				c-7.758,4.139-4.65,8.724-3.711,10.396C39.228,42.393,40,43.928,40,46.132z"/>
		</g>
		<g>
			<path style="fill:#FFFFFF;" d="M31,52.082V83c0,2.209,1.791,4,4,4h20V43c-7.692,0-15.385,2.466-23.078,7.397
				C31.349,50.765,31,51.401,31,52.082z"/>
		</g>
	</g>
</g>
<g id="R-Green" style="display:none;">
	<circle style="display:inline;fill:#77E0C4;" cx="55" cy="55" r="55"/>
	<g style="display:inline;">
		<g>
			<path style="fill:#009687;" d="M37,47.507c12-6,24-6,36,0v-1.639c0-2.583,3.826-6.833,3.826-9.415
				c0-8.723-10.904-13.087-21.813-13.087c-10.914,0-21.832,4.369-21.832,13.109c0,2.563,3.818,6.795,3.818,9.359V47.507z"/>
		</g>
		<g>
			<path style="fill:#D7FCF9;" d="M79,52.082c0-0.681-0.348-1.316-0.922-1.684c-15.386-9.863-30.771-9.863-46.156,0
				C31.349,50.765,31,51.401,31,52.082V83c0,2.209,1.791,4,4,4h40c2.209,0,4-1.791,4-4V52.082z"/>
		</g>
		<g>
			<path style="fill:#0A3631;" d="M31,73h-2c-1.104,0-2-0.896-2-2v-8c0-1.104,0.896-2,2-2h2V73z"/>
		</g>
		<g>
			<path style="fill:#14635B;" d="M27,63v4h4v-6h-2C27.896,61,27,61.896,27,63z"/>
		</g>
		<g>
			<path style="fill:#AAF0E9;" d="M40,46.132c10-4.167,20-4.167,30,0c0-2.262,0.893-3.931,2.296-6.438
				c0.667-1.19,4.446-6.065-3.697-10.409c-3.478-1.855-8.429-2.92-13.585-2.92c-5.159,0-10.115,1.066-13.596,2.924
				c-7.758,4.139-4.65,8.724-3.711,10.396C39.229,42.393,40,43.928,40,46.132z"/>
		</g>
		<g>
			<path style="fill:#FFFFFF;" d="M31,52.082V83c0,2.209,1.791,4,4,4h20V43c-7.692,0-15.385,2.466-23.078,7.397
				C31.349,50.765,31,51.401,31,52.082z"/>
		</g>
	</g>
</g>
<g id="Red" style="display:none;">
	<g style="display:inline;">
		<g>
			<path style="fill:#C23023;" d="M37,47.507c12-6,24-6,36,0v-1.639c0-2.583,3.826-6.833,3.826-9.415
				c0-8.723-10.904-13.087-21.813-13.087c-10.914,0-21.832,4.369-21.832,13.109c0,2.563,3.818,6.795,3.818,9.359V47.507z"/>
		</g>
		<g>
			<path style="fill:#FFEFED;" d="M79,52.082c0-0.681-0.348-1.316-0.922-1.684c-15.386-9.863-30.771-9.863-46.156,0
				C31.349,50.765,31,51.401,31,52.082V83c0,2.209,1.791,4,4,4h40c2.209,0,4-1.791,4-4V52.082z"/>
		</g>
		<g>
			<path style="fill:#4A1410;" d="M31,73h-2c-1.104,0-2-0.896-2-2v-8c0-1.104,0.896-2,2-2h2V73z"/>
		</g>
		<g>
			<path style="fill:#7D261E;" d="M27,63v4h4v-6h-2C27.896,61,27,61.896,27,63z"/>
		</g>
		<g>
			<path style="fill:#FFD7D4;" d="M40,46.132c10-4.167,20-4.167,30,0c0-2.262,0.893-3.931,2.296-6.438
				c0.667-1.19,4.446-6.065-3.697-10.409c-3.478-1.855-8.429-2.92-13.585-2.92c-5.159,0-10.115,1.066-13.596,2.924
				c-7.758,4.139-4.65,8.724-3.711,10.396C39.229,42.393,40,43.928,40,46.132z"/>
		</g>
		<g>
			<path style="fill:#FFFFFF;" d="M31,52.082V83c0,2.209,1.791,4,4,4h20V43c-7.692,0-15.385,2.466-23.078,7.397
				C31.349,50.765,31,51.401,31,52.082z"/>
		</g>
	</g>
</g>
<g id="R-Red" style="display:none;">
	<circle style="display:inline;fill:#FABBAF;" cx="55" cy="55" r="55"/>
	<g style="display:inline;">
		<g>
			<path style="fill:#C23023;" d="M37,47.507c12-6,24-6,36,0v-1.639c0-2.583,3.826-6.833,3.826-9.415
				c0-8.723-10.904-13.087-21.813-13.087c-10.914,0-21.832,4.369-21.832,13.109c0,2.563,3.818,6.795,3.818,9.359V47.507z"/>
		</g>
		<g>
			<path style="fill:#FFEFED;" d="M79,52.082c0-0.681-0.348-1.316-0.922-1.684c-15.386-9.863-30.771-9.863-46.156,0
				C31.349,50.765,31,51.401,31,52.082V83c0,2.209,1.791,4,4,4h40c2.209,0,4-1.791,4-4V52.082z"/>
		</g>
		<g>
			<path style="fill:#4A1410;" d="M31,73h-2c-1.104,0-2-0.896-2-2v-8c0-1.104,0.896-2,2-2h2V73z"/>
		</g>
		<g>
			<path style="fill:#7D261E;" d="M27,63v4h4v-6h-2C27.896,61,27,61.896,27,63z"/>
		</g>
		<g>
			<path style="fill:#FFD7D4;" d="M40,46.132c10-4.167,20-4.167,30,0c0-2.262,0.893-3.931,2.296-6.438
				c0.667-1.19,4.446-6.065-3.697-10.409c-3.478-1.855-8.429-2.92-13.585-2.92c-5.159,0-10.115,1.066-13.596,2.924
				c-7.758,4.139-4.65,8.724-3.711,10.396C39.229,42.393,40,43.928,40,46.132z"/>
		</g>
		<g>
			<path style="fill:#FFFFFF;" d="M31,52.082V83c0,2.209,1.791,4,4,4h20V43c-7.692,0-15.385,2.466-23.078,7.397
				C31.349,50.765,31,51.401,31,52.082z"/>
		</g>
	</g>
</g>
<g id="Yellow" style="display:none;">
	<g style="display:inline;">
		<g>
			<path style="fill:#E07000;" d="M37,47.507c12-6,24-6,36,0v-1.639c0-2.583,3.826-6.833,3.826-9.415
				c0-8.723-10.904-13.087-21.813-13.087c-10.914,0-21.832,4.369-21.832,13.109c0,2.563,3.818,6.795,3.818,9.359V47.507z"/>
		</g>
		<g>
			<path style="fill:#FFF5D9;" d="M79,52.082c0-0.681-0.348-1.316-0.922-1.684c-15.386-9.863-30.771-9.863-46.156,0
				C31.349,50.765,31,51.401,31,52.082V83c0,2.209,1.791,4,4,4h40c2.209,0,4-1.791,4-4V52.082z"/>
		</g>
		<g>
			<path style="fill:#3D320C;" d="M31,73h-2c-1.104,0-2-0.896-2-2v-8c0-1.104,0.896-2,2-2h2V73z"/>
		</g>
		<g>
			<path style="fill:#66510D;" d="M27,63v4h4v-6h-2C27.896,61,27,61.896,27,63z"/>
		</g>
		<g>
			<path style="fill:#FFE9A1;" d="M40,46.132c10-4.167,20-4.167,30,0c0-2.262,0.893-3.931,2.296-6.438
				c0.667-1.19,4.446-6.065-3.697-10.409c-3.478-1.855-8.429-2.92-13.585-2.92c-5.159,0-10.115,1.066-13.596,2.924
				c-7.758,4.139-4.65,8.724-3.711,10.396C39.229,42.393,40,43.928,40,46.132z"/>
		</g>
		<g>
			<path style="fill:#FFFFFF;" d="M31,52.082V83c0,2.209,1.791,4,4,4h20V43c-7.692,0-15.385,2.466-23.078,7.397
				C31.349,50.765,31,51.401,31,52.082z"/>
		</g>
	</g>
</g>
<g id="R-Yellow" style="display:none;">
	<circle style="display:inline;fill:#FFD75E;" cx="55" cy="55" r="55"/>
	<g style="display:inline;">
		<g>
			<path style="fill:#E07000;" d="M37,47.507c12-6,24-6,36,0v-1.639c0-2.583,3.826-6.833,3.826-9.415
				c0-8.723-10.904-13.087-21.812-13.087c-10.914,0-21.832,4.369-21.832,13.109c0,2.563,3.818,6.795,3.818,9.359V47.507z"/>
		</g>
		<g>
			<path style="fill:#FFF5D9;" d="M79,52.082c0-0.681-0.348-1.316-0.922-1.684c-15.386-9.863-30.77-9.863-46.156,0
				C31.349,50.765,31,51.401,31,52.082V83c0,2.209,1.791,4,4,4h40c2.209,0,4-1.791,4-4V52.082z"/>
		</g>
		<g>
			<path style="fill:#3D320C;" d="M31,73h-2c-1.104,0-2-0.896-2-2v-8c0-1.104,0.896-2,2-2h2V73z"/>
		</g>
		<g>
			<path style="fill:#66510D;" d="M27,63v4h4v-6h-2C27.895,61,27,61.896,27,63z"/>
		</g>
		<g>
			<path style="fill:#FFE9A1;" d="M40,46.132c10-4.167,20-4.167,30,0c0-2.262,0.893-3.931,2.296-6.438
				c0.667-1.19,4.446-6.065-3.697-10.409c-3.478-1.855-8.429-2.92-13.585-2.92c-5.159,0-10.115,1.066-13.596,2.924
				c-7.758,4.139-4.65,8.724-3.711,10.396C39.228,42.393,40,43.928,40,46.132z"/>
		</g>
		<g>
			<path style="fill:#FFFFFF;" d="M31,52.082V83c0,2.209,1.791,4,4,4h20V43c-7.692,0-15.385,2.466-23.078,7.397
				C31.349,50.765,31,51.401,31,52.082z"/>
		</g>
	</g>
</g>
</svg>
