<?xml version="1.0" encoding="iso-8859-1"?>
<!-- Generator: Adobe Illustrator 17.1.0, SVG Export Plug-In . SVG Version: 6.00 Build 0)  -->
<!DOCTYPE svg PUBLIC "-//W3C//DTD SVG 1.0//EN" "http://www.w3.org/TR/2001/REC-SVG-20010904/DTD/svg10.dtd">
<svg version="1.0" xmlns="http://www.w3.org/2000/svg" xmlns:xlink="http://www.w3.org/1999/xlink" x="0px" y="0px" width="110px"
	 height="110px" viewBox="0 0 110 110" style="enable-background:new 0 0 110 110;" xml:space="preserve">
<g id="Artboard">
</g>
<g id="Multicolor">
	<circle style="fill:#25B7D3;" cx="55" cy="55" r="55"/>
	<g>
		<g>
			<path style="fill:#FBD7D7;" d="M43,29c-11.046,0-20,3.582-20,8v36c0,4.418,8.954,8,20,8c11.046,0,20-3.582,20-8V37
				C63,32.582,54.046,29,43,29z M43,33c4.418,0,8,1.791,8,4s-3.582,4-8,4s-8-1.791-8-4S38.582,33,43,33z"/>
		</g>
		<g>
			<polygon style="fill:#FBD7D7;" points="83,43 87,37 63,37 63,73 87,73 83,67 87,63 83,59 87,55 83,51 87,47 			"/>
		</g>
		<g>
			<path style="fill:#F79392;" d="M43,45v36c11.046,0,20-3.582,20-8V37C63,41.418,54.046,45,43,45z"/>
		</g>
		<g>
			<path style="fill:#FBC8C8;" d="M43,29v4c4.418,0,8,1.791,8,4s-3.582,4-8,4v4c11.046,0,20-3.582,20-8S54.046,29,43,29z"/>
		</g>
		<g>
			<path style="fill:#F7B4B4;" d="M23,37v36c0,4.418,8.954,8,20,8V45C31.954,45,23,41.418,23,37z"/>
		</g>
		<g>
			<ellipse style="fill:#F79392;" cx="43" cy="37" rx="8" ry="4"/>
		</g>
	</g>
</g>
</svg>
