<?xml version="1.0" encoding="iso-8859-1"?>
<!-- Generator: Adobe Illustrator 17.1.0, SVG Export Plug-In . SVG Version: 6.00 Build 0)  -->
<!DOCTYPE svg PUBLIC "-//W3C//DTD SVG 1.0//EN" "http://www.w3.org/TR/2001/REC-SVG-20010904/DTD/svg10.dtd">
<svg version="1.0" xmlns="http://www.w3.org/2000/svg" xmlns:xlink="http://www.w3.org/1999/xlink" x="0px" y="0px" width="110px"
	 height="110px" viewBox="0 0 110 110" style="enable-background:new 0 0 110 110;" xml:space="preserve">
<g id="Artboard">
</g>
<g id="Multicolor">
	<circle style="fill:#25B7D3;" cx="55" cy="55" r="55"/>
	<g>
		<g>
			<path style="fill:#F0F1F1;" d="M76.664,43.001l-3.33,0.001c-3.569,0.001-6.518,1.919-7.699,2.563C64.185,46.354,63,48.35,63,50
				v14c0,1.65,1.35,3,3,3h2v14c0,1.104,0.896,2,2,2h10c1.104,0,2-0.896,2-2V67h2c1.65,0,3-1.35,3-3V50
				c0-1.65-1.185-3.646-2.634-4.436C83.078,44.862,80.201,43,76.664,43.001z"/>
		</g>
		<g>
			<path style="fill:#FFFFFF;" d="M57,33c0-1.105-0.895-2-2-2s-2,0.895-2,2v44c0,1.105,0.895,2,2,2s2-0.895,2-2V33z"/>
		</g>
		<g>
			<path style="fill:#F0F1F1;" d="M42,34c0,3.817-3.1,7-7,7c-3.984,0-7-3.261-7-7c0-3.868,3.133-7,7-7C38.868,27,42,30.132,42,34z"
				/>
		</g>
		<g>
			<path style="fill:#F0F1F1;" d="M82,34c0,3.817-3.1,7-7,7c-3.984,0-7-3.261-7-7c0-3.868,3.133-7,7-7C78.868,27,82,30.132,82,34z"
				/>
		</g>
		<g>
			<path style="fill:#F0F1F1;" d="M47,67l-7.051-21.154C39.427,44.281,37.65,43,36,43h-2c-1.65,0-3.427,1.281-3.949,2.846L23,67
				h6.202l1.489,14.761C30.87,82.48,31.695,83,32.655,83h4.69c0.96,0,1.785-0.52,1.965-1.239L40.798,67H47z"/>
		</g>
		<g>
			<path style="fill:#FFFFFF;" d="M68,34c0,3.739,3.016,7,7,7V27C71.133,27,68,30.132,68,34z"/>
		</g>
		<g>
			<path style="fill:#FFFFFF;" d="M75,43.001l-1.667,0c-3.567,0-6.518,1.919-7.699,2.562C64.185,46.354,63,48.35,63,50v14
				c0,1.65,1.35,3,3,3h2v14c0,1.104,0.896,2,2,2h5V43.001z"/>
		</g>
		<g>
			<path style="fill:#FFFFFF;" d="M28,34c0,3.739,3.016,7,7,7V27C31.133,27,28,30.132,28,34z"/>
		</g>
		<g>
			<path style="fill:#FFFFFF;" d="M35,43h-1c-1.65,0-3.427,1.281-3.949,2.846L23,67h6.202l1.489,14.761
				C30.87,82.48,31.695,83,32.655,83H35V43z"/>
		</g>
	</g>
</g>
</svg>
