<?xml version="1.0" encoding="iso-8859-1"?>
<!-- Generator: Adobe Illustrator 17.1.0, SVG Export Plug-In . SVG Version: 6.00 Build 0)  -->
<!DOCTYPE svg PUBLIC "-//W3C//DTD SVG 1.0//EN" "http://www.w3.org/TR/2001/REC-SVG-20010904/DTD/svg10.dtd">
<svg version="1.0" xmlns="http://www.w3.org/2000/svg" xmlns:xlink="http://www.w3.org/1999/xlink" x="0px" y="0px" width="110px"
	 height="110px" viewBox="0 0 110 110" style="enable-background:new 0 0 110 110;" xml:space="preserve">
<g id="Artboard">
</g>
<g id="Multicolor">
	<circle style="fill:#32BEA6;" cx="55" cy="55" r="55"/>
	<g>
		<g>
			<path style="fill:#FA5655;" d="M23,61c0,1.105,0.895,2,2,2h60c1.105,0,2-0.895,2-2V45H23V61z"/>
		</g>
		<g>
			<path style="fill:#BF0302;" d="M85,81c0,1.105-0.895,2-2,2H27c-1.105,0-2-0.895-2-2V63h60V81z"/>
		</g>
		<g>
			<path style="fill:#FFFFFF;" d="M60,62c0,0.552-0.448,1-1,1h-8c-0.552,0-1-0.448-1-1v-4c0-0.552,0.448-1,1-1h8
				c0.552,0,1,0.448,1,1V62z"/>
		</g>
		<g>
			<path style="fill:#CFD3D4;" d="M51,63h8v4c0,2.209-1.791,4-4,4s-4-1.791-4-4V63z"/>
		</g>
		<g>
			<rect x="54" y="65" style="fill:#3E3E3F;" width="2" height="3"/>
		</g>
		<g>
			<rect x="41" y="42" style="fill:#F0F1F1;" width="8" height="3"/>
		</g>
		<g>
			<rect x="61" y="42" style="fill:#F0F1F1;" width="8" height="3"/>
		</g>
		<path style="fill:#3E3E3F;" d="M65,31H45c-1.104,0-2,0.896-2,2v9h4v-7h16v7h4v-9C67,31.896,66.104,31,65,31z"/>
	</g>
</g>
</svg>
