<?xml version="1.0" encoding="iso-8859-1"?>
<!-- Generator: Adobe Illustrator 17.1.0, SVG Export Plug-In . SVG Version: 6.00 Build 0)  -->
<!DOCTYPE svg PUBLIC "-//W3C//DTD SVG 1.0//EN" "http://www.w3.org/TR/2001/REC-SVG-20010904/DTD/svg10.dtd">
<svg version="1.0" xmlns="http://www.w3.org/2000/svg" xmlns:xlink="http://www.w3.org/1999/xlink" x="0px" y="0px" width="110px"
	 height="110px" viewBox="0 0 110 110" style="enable-background:new 0 0 110 110;" xml:space="preserve">
<g id="Artboard">
</g>
<g id="Multicolor">
	<circle style="fill:#E04F5F;" cx="55" cy="55" r="55"/>
	<g>
		<g>
			<path style="fill:#F0F1F1;" d="M79,39.094C79,30.094,73.18,23,66,23c-4.639,0-8.699,2.438-11,6.094
				C52.699,25.438,48.639,23,44,23c-7.18,0-13,7.094-13,16.094c0,9.735,3.125,15.947,7.115,19.928
				C36.145,63.668,35,69.179,35,75.094c0,3.1,0.313,6.092,0.898,8.909c0.253,1.218,1.326,2.091,2.57,2.091
				c1.399,0,2.57-1.047,2.722-2.438C42.277,73.689,48.047,66.094,55,66.094c6.971,0,12.754,7.635,13.819,17.641
				c0.143,1.342,1.275,2.359,2.624,2.359c1.299,0,2.418-0.916,2.679-2.188C74.694,81.117,75,78.159,75,75.094
				c0-5.915-1.145-11.426-3.115-16.072C75.875,55.041,79,48.829,79,39.094z"/>
		</g>
		<g>
			<path style="fill:#FFFFFF;" d="M44,23c-7.18,0-13,7.094-13,16.094c0,9.735,3.125,15.947,7.115,19.928
				C36.146,63.668,35,69.179,35,75.094c0,3.1,0.313,6.092,0.897,8.909c0.253,1.218,1.326,2.091,2.57,2.091
				c1.398,0,2.57-1.047,2.722-2.438C42.276,73.689,48.047,66.094,55,66.094v-37C52.699,25.438,48.639,23,44,23z"/>
		</g>
		<g>
			<path style="fill:#FA5655;" d="M65,42.094h-6v-6c0-1.105-0.895-2-2-2h-4c-1.104,0-2,0.895-2,2v6h-6c-1.104,0-2,0.895-2,2v4
				c0,1.104,0.896,2,2,2h6v6c0,1.104,0.896,2,2,2h4c1.105,0,2-0.896,2-2v-6h6c1.105,0,2-0.896,2-2v-4
				C67,42.989,66.105,42.094,65,42.094z"/>
		</g>
	</g>
</g>
</svg>
