<?xml version="1.0" encoding="iso-8859-1"?>
<!-- Generator: Adobe Illustrator 17.1.0, SVG Export Plug-In . SVG Version: 6.00 Build 0)  -->
<!DOCTYPE svg PUBLIC "-//W3C//DTD SVG 1.0//EN" "http://www.w3.org/TR/2001/REC-SVG-20010904/DTD/svg10.dtd">
<svg version="1.0" xmlns="http://www.w3.org/2000/svg" xmlns:xlink="http://www.w3.org/1999/xlink" x="0px" y="0px" width="110px"
	 height="110px" viewBox="0 0 110 110" style="enable-background:new 0 0 110 110;" xml:space="preserve">
<g id="Artboard">
</g>
<g id="Multicolor">
	<circle style="fill:#25B7D3;" cx="55" cy="55" r="55"/>
	<g>
		<g>
			<path style="fill:#FFFFFF;" d="M77.976,29.749c-0.79-1.023-2.149-1.31-3.02-0.638c-0.871,0.672-0.936,2.06-0.146,3.083
				c-0.79-1.023-2.149-1.31-3.02-0.638c-0.871,0.672-0.936,2.06-0.146,3.083c-0.79-1.023-2.149-1.311-3.02-0.638
				c-0.871,0.672-0.936,2.06-0.146,3.083c-0.79-1.023-2.149-1.31-3.02-0.638c-0.871,0.672-0.936,2.06-0.146,3.083
				c-0.79-1.023-2.149-1.311-3.02-0.638c-0.871,0.673-0.936,2.06-0.146,3.083c-0.79-1.023-2.149-1.31-3.02-0.638
				c-0.871,0.672-0.936,2.06-0.146,3.083l3.398,4.399l17.11-17.11L77.976,29.749z"/>
		</g>
		<g>
			<path style="fill:#0484AB;" d="M80,27.171c0,0-8.976-5.949-15.631-1.551C57.35,30.26,58.74,36.394,50.756,39.935
				c0,0,4.687,3.419,12.451-1.713C70.922,33.124,70.407,28.457,80,27.171z"/>
		</g>
		<path style="fill:#FBE158;" d="M77.914,26.022c-0.157-0.076-0.32-0.153-0.491-0.23c-1.461-0.587-5.844-1.911-10.493,0.941
			c-4.834,2.966-4.417,5.657-9.624,7.46c-0.532,0.836-1.119,1.646-1.825,2.418c1.969,0.367,4.758,0.223,8.065-1.807
			C70.149,30.753,69.301,26.415,77.914,26.022z"/>
		<g>
			<path style="fill:#FFFFFF;" d="M62.63,49.142c0.301-0.105,0.468-0.153,0.468-0.153l0.487-0.374L80.58,35.567
				c0.421-0.323,0.887-0.544,1.369-0.676l-3.972-5.142c-0.79-1.023-2.149-1.31-3.02-0.638c-0.871,0.672-0.936,2.06-0.146,3.083
				c-0.79-1.023-2.149-1.31-3.02-0.638c-0.871,0.672-0.936,2.06-0.146,3.083c-0.79-1.023-2.149-1.311-3.02-0.638
				c-0.871,0.672-0.936,2.06-0.146,3.083c-0.79-1.023-2.149-1.31-3.02-0.638c-0.871,0.672-0.936,2.06-0.146,3.083
				c-0.79-1.023-2.149-1.311-3.02-0.638c-0.871,0.673-0.936,2.06-0.146,3.083c-0.79-1.023-2.149-1.31-3.02-0.638
				c-0.871,0.672-0.936,2.06-0.146,3.083L62.63,49.142z"/>
		</g>
		<g>
			<path style="fill:#DF2C2C;" d="M86.181,36.361l-0.049-0.063c-1.332-1.735-3.818-2.062-5.553-0.73L63.584,48.615l-0.487,0.374
				c0,0-5.184,1.458-13.116,7.548C43.234,61.717,27.776,78.802,23.787,83.5c-0.642,0.757-0.668,1.856-0.063,2.644l0.024,0.032
				c0.371,0.482,0.906,0.759,1.462,0.814c0.561,0.056,1.143-0.111,1.602-0.518c5.015-4.451,21.499-18.566,28.042-23.589
				c7.932-6.09,13.116-7.548,13.116-7.548l17.482-13.422C87.186,40.581,87.513,38.095,86.181,36.361z"/>
		</g>
		<path style="fill:#FA5655;" d="M86.017,36.174c-1.354-1.617-3.748-1.904-5.437-0.607L63.584,48.615l-0.487,0.374
			c0,0-5.184,1.458-13.116,7.548C43.234,61.718,27.776,78.802,23.787,83.5c-0.13,0.153-0.227,0.322-0.307,0.497L86.017,36.174z"/>
	</g>
</g>
</svg>
