<?xml version="1.0" encoding="iso-8859-1"?>
<!-- Generator: Adobe Illustrator 17.1.0, SVG Export Plug-In . SVG Version: 6.00 Build 0)  -->
<!DOCTYPE svg PUBLIC "-//W3C//DTD SVG 1.0//EN" "http://www.w3.org/TR/2001/REC-SVG-20010904/DTD/svg10.dtd">
<svg version="1.0" xmlns="http://www.w3.org/2000/svg" xmlns:xlink="http://www.w3.org/1999/xlink" x="0px" y="0px" width="110px"
	 height="110px" viewBox="0 0 110 110" style="enable-background:new 0 0 110 110;" xml:space="preserve">
<g id="Artboard">
</g>
<g id="Multicolor">
	<circle style="fill:#E04F5F;" cx="55" cy="55" r="55"/>
	<g>
		<path style="fill:#FACB1B;" d="M69.375,36.062C78.14,37,80.124,59.81,55.126,59.81C29.803,59.81,33.14,39,39.689,34.874
			c0,4.75,7.125,7.125,7.125,11.874c4.75-7.125-10.687-9.499,0-23.749c1.187,8.312,7.125,5.937,9.499,14.249
			c1.187-7.125-3.562-7.125-2.375-11.874c2.375,3.562,14.249,0,14.249,17.811C70.562,40.811,69.375,36.062,69.375,36.062z"/>
		<path style="fill:#DF2C2C;" d="M50.376,56.248c0,0-5.937-7.125,4.75-15.437c1.187,5.937,8.312,4.632,8.312,10.687
			c0,3.562-1.187,4.75-1.187,4.75H50.376z"/>
		<path style="fill:#FA5655;" d="M55.126,40.812c-6.818,5.302-6.868,10.118-6.012,12.913l8.79-8.79
			C56.633,44.015,55.531,42.839,55.126,40.812z"/>
		<path style="fill:#CFD3D4;" d="M42.717,63l9.461,22.044C52.463,86.185,53.639,87,55,87s2.537-0.815,2.822-1.956L67.283,63H42.717z
			"/>
		<path style="fill:#F0F1F1;" d="M72,61c0,1.105-0.895,2-2,2H40c-1.105,0-2-0.895-2-2v-4c0-1.105,0.895-2,2-2h30
			c1.105,0,2,0.895,2,2V61z"/>
		<path style="fill:#E2E4E5;" d="M42.717,63l9.461,22.044C52.463,86.185,53.639,87,55,87V63H42.717z"/>
		<path style="fill:#FFFFFF;" d="M40,55c-1.104,0-2,0.896-2,2v4c0,1.104,0.896,2,2,2h2.717H55v-4v-4H40z"/>
	</g>
</g>
</svg>
