<?xml version="1.0" encoding="iso-8859-1"?>
<!-- Generator: Adobe Illustrator 17.1.0, SVG Export Plug-In . SVG Version: 6.00 Build 0)  -->
<!DOCTYPE svg PUBLIC "-//W3C//DTD SVG 1.0//EN" "http://www.w3.org/TR/2001/REC-SVG-20010904/DTD/svg10.dtd">
<svg version="1.0" xmlns="http://www.w3.org/2000/svg" xmlns:xlink="http://www.w3.org/1999/xlink" x="0px" y="0px" width="110px"
	 height="110px" viewBox="0 0 110 110" style="enable-background:new 0 0 110 110;" xml:space="preserve">
<g id="Artboard">
</g>
<g id="Multicolor">
	<circle style="fill:#E04F5F;" cx="55" cy="55" r="55"/>
	<g>
		<g>
			<path style="fill:#F3B607;" d="M45,53c1.105,0,2,0.895,2,2v26H25c-1.105,0-2-0.895-2-2V67.531c0-0.348,0.091-0.69,0.264-0.992
				l7.161-12.531C30.78,53.385,31.443,53,32.161,53H45z"/>
		</g>
		<g>
			<rect x="47" y="67" style="fill:#FACB1B;" width="36" height="10"/>
		</g>
		<g>
			<path style="fill:#FACB1B;" d="M46.512,53.705C46.146,53.277,45.608,53,45,53H32.161c-0.718,0-1.38,0.385-1.736,1.008
				l-7.161,12.531C23.091,66.841,23,67.183,23,67.531v9.686L46.512,53.705z"/>
		</g>
		<g>
			<path style="fill:#3E3E3F;" d="M75.564,53.909c0.763,0,1.382,0.619,1.382,1.382c0,2.286,1.86,4.145,4.145,4.145
				c2.286,0,4.145-1.86,4.145-4.145s-1.86-4.145-4.145-4.145c-0.763,0-1.382-0.619-1.382-1.382V47h2.764v1.521
				c3.15,0.642,5.527,3.434,5.527,6.77c0,3.809-3.1,6.909-6.909,6.909c-3.809,0-6.909-3.1-6.909-6.909
				C74.182,54.528,74.801,53.909,75.564,53.909z"/>
		</g>
		<g>
			<rect x="79" y="27" style="fill:#CFD3D4;" width="4" height="20"/>
		</g>
		<g>
			<polygon style="fill:#40C9E7;" points="43,57 43,65 29,65 33,57 			"/>
		</g>
		<g>
			<path style="fill:#F3B607;" d="M47,81h38c1.105,0,2-0.895,2-2v-0.062c0-1.105-0.895-2-2-2H47V81z"/>
		</g>
		<g>
			<circle style="fill:#3E3E3F;" cx="73" cy="80" r="7"/>
		</g>
		<g>
			<circle style="fill:#F0F1F1;" cx="73" cy="80" r="3"/>
		</g>
		<g>
			<circle style="fill:#3E3E3F;" cx="36" cy="80" r="7"/>
		</g>
		<g>
			<circle style="fill:#F0F1F1;" cx="36" cy="80" r="3"/>
		</g>
		<g>
			<path style="fill:#F0F1F1;" d="M47,67l25.706-36.723C73.968,28.475,76.8,27,79,27h4L64,67H47z"/>
		</g>
		<g>
			<polygon style="fill:#CFD3D4;" points="52,67 76,30 79,30 60,67 			"/>
		</g>
		<g>
			<rect x="36" y="68" style="fill:#F3B607;" width="7" height="2"/>
		</g>
		<g>
			<polygon style="fill:#6FDAF1;" points="43,57 33,57 29,65 35.217,65 43,57.217 			"/>
		</g>
		<g>
			<path style="fill:#F37A10;" d="M41,50c0-1.105-0.895-2-2-2h-2c-1.105,0-2,0.895-2,2v3h6V50z"/>
		</g>
		<g>
			<path style="fill:#F99134;" d="M38,48h-1c-1.104,0-2,0.896-2,2v3h3V48z"/>
		</g>
	</g>
</g>
</svg>
