<?xml version="1.0" encoding="iso-8859-1"?>
<!-- Generator: Adobe Illustrator 17.1.0, SVG Export Plug-In . SVG Version: 6.00 Build 0)  -->
<!DOCTYPE svg PUBLIC "-//W3C//DTD SVG 1.0//EN" "http://www.w3.org/TR/2001/REC-SVG-20010904/DTD/svg10.dtd">
<svg version="1.0" xmlns="http://www.w3.org/2000/svg" xmlns:xlink="http://www.w3.org/1999/xlink" x="0px" y="0px" width="110px"
	 height="110px" viewBox="0 0 110 110" style="enable-background:new 0 0 110 110;" xml:space="preserve">
<g id="Artboard">
</g>
<g id="Multicolor">
	<circle style="fill:#E04F5F;" cx="55" cy="55" r="55"/>
	<g>
		<rect x="35" y="71" style="fill:#F0F1F1;" width="40" height="16"/>
		<rect x="39" y="43" style="fill:#FFFFFF;" width="32" height="28"/>
		<rect x="43" y="35" style="fill:#F0F1F1;" width="24" height="8"/>
		<rect x="47" y="31" style="fill:#FFFFFF;" width="16" height="4"/>
		<polygon style="fill:#3E3E3F;" points="47,31 55,23 63,31 		"/>
		<g>
			<rect x="46" y="37" style="fill:#40C9E7;" width="2" height="4"/>
			<rect x="42" y="47" style="fill:#40C9E7;" width="2" height="4"/>
			<rect x="46" y="47" style="fill:#40C9E7;" width="2" height="4"/>
			<rect x="50" y="47" style="fill:#40C9E7;" width="2" height="4"/>
			<rect x="54" y="47" style="fill:#40C9E7;" width="2" height="4"/>
			<rect x="58" y="47" style="fill:#40C9E7;" width="2" height="4"/>
			<rect x="62" y="47" style="fill:#40C9E7;" width="2" height="4"/>
			<rect x="66" y="47" style="fill:#40C9E7;" width="2" height="4"/>
			<rect x="42" y="55" style="fill:#40C9E7;" width="2" height="4"/>
			<rect x="46" y="55" style="fill:#40C9E7;" width="2" height="4"/>
			<rect x="50" y="55" style="fill:#40C9E7;" width="2" height="4"/>
			<rect x="54" y="55" style="fill:#40C9E7;" width="2" height="4"/>
			<rect x="58" y="55" style="fill:#40C9E7;" width="2" height="4"/>
			<rect x="62" y="55" style="fill:#40C9E7;" width="2" height="4"/>
			<rect x="66" y="55" style="fill:#40C9E7;" width="2" height="4"/>
			<rect x="42" y="63" style="fill:#40C9E7;" width="2" height="4"/>
			<rect x="46" y="63" style="fill:#40C9E7;" width="2" height="4"/>
			<rect x="50" y="63" style="fill:#40C9E7;" width="2" height="4"/>
			<rect x="54" y="63" style="fill:#40C9E7;" width="2" height="4"/>
			<rect x="58" y="63" style="fill:#40C9E7;" width="2" height="4"/>
			<rect x="62" y="63" style="fill:#40C9E7;" width="2" height="4"/>
			<rect x="66" y="63" style="fill:#40C9E7;" width="2" height="4"/>
			<rect x="38" y="75" style="fill:#40C9E7;" width="2" height="9"/>
			<rect x="42" y="75" style="fill:#40C9E7;" width="2" height="9"/>
			<rect x="46" y="75" style="fill:#40C9E7;" width="2" height="9"/>
			<rect x="50" y="75" style="fill:#40C9E7;" width="2" height="9"/>
			<rect x="54" y="75" style="fill:#40C9E7;" width="2" height="9"/>
			<rect x="58" y="75" style="fill:#40C9E7;" width="2" height="9"/>
			<rect x="62" y="75" style="fill:#40C9E7;" width="2" height="9"/>
			<rect x="66" y="75" style="fill:#40C9E7;" width="2" height="9"/>
			<rect x="70" y="75" style="fill:#40C9E7;" width="2" height="9"/>
			<rect x="50" y="37" style="fill:#40C9E7;" width="2" height="4"/>
			<rect x="54" y="37" style="fill:#40C9E7;" width="2" height="4"/>
			<rect x="58" y="37" style="fill:#40C9E7;" width="2" height="4"/>
			<rect x="62" y="37" style="fill:#40C9E7;" width="2" height="4"/>
		</g>
		<polygon style="fill:#5B5C5F;" points="55,23 47,31 55,31 		"/>
	</g>
</g>
</svg>
