<?xml version="1.0" encoding="iso-8859-1"?>
<!-- Generator: Adobe Illustrator 17.1.0, SVG Export Plug-In . SVG Version: 6.00 Build 0)  -->
<!DOCTYPE svg PUBLIC "-//W3C//DTD SVG 1.0//EN" "http://www.w3.org/TR/2001/REC-SVG-20010904/DTD/svg10.dtd">
<svg version="1.0" xmlns="http://www.w3.org/2000/svg" xmlns:xlink="http://www.w3.org/1999/xlink" x="0px" y="0px" width="110px"
	 height="110px" viewBox="0 0 110 110" style="enable-background:new 0 0 110 110;" xml:space="preserve">
<g id="Artboard">
</g>
<g id="Multicolor">
	<circle style="fill:#25B7D3;" cx="55" cy="55" r="55"/>
	<g>
		<g>
			<polygon style="fill:#E2E4E5;" points="59,59 43,59 43,67 23,67 23,87 59,87 			"/>
		</g>
		<g>
			<polygon style="fill:#FFFFFF;" points="43,59 43,67 23,67 23,87 26.598,87 54.598,59 			"/>
		</g>
		<g>
			<polygon style="fill:#FA5655;" points="71,35 67,24 63,35 63,87 71,87 			"/>
		</g>
		<g>
			<polygon style="fill:#DF2C2C;" points="71,87 71,35 67,24 67,87 			"/>
		</g>
		<g>
			<rect x="43" y="55" style="fill:#CFD3D4;" width="4" height="4"/>
		</g>
		<g>
			<rect x="55" y="51" style="fill:#CFD3D4;" width="4" height="8"/>
		</g>
		<g>
			<polygon style="fill:#3E3E3F;" points="38,35 66.871,25.101 82.544,35 86.29,35 67.129,22.899 31.833,35 			"/>
		</g>
		<g>
			<polygon style="fill:#DF2C2C;" points="27,39 87,39 87,35 31,35 			"/>
		</g>
		<g>
			<rect x="79" y="39" style="fill:#3E3E3F;" width="8" height="4"/>
		</g>
		<g>
			<rect x="34" y="39" style="fill:#3E3E3F;" width="2" height="8"/>
		</g>
		<g>
			<path style="fill:#F0F1F1;" d="M37.871,58h-0.02c-0.416,0-0.822,0.237-0.953,0.632C36.633,59.426,35.882,60,35,60
				c-1.309,0-2.328-1.263-1.902-2.635C33.338,56.594,34.127,56,35.132,56C35.611,56,36,55.611,36,55.132V50.75L39,47h-8l3,3.75
				v3.376c-2.015,0.521-3.419,2.576-2.886,4.838c0.337,1.433,1.504,2.594,2.938,2.925c2.165,0.501,4.136-0.769,4.751-2.648
				C39.004,58.628,38.517,58,37.871,58z"/>
		</g>
		<g>
			<rect x="48" y="62" style="fill:#6FDAF1;" width="5" height="5"/>
		</g>
		<g>
			<rect x="48" y="70" style="fill:#6FDAF1;" width="5" height="5"/>
		</g>
		<g>
			<rect x="48" y="78" style="fill:#6FDAF1;" width="5" height="5"/>
		</g>
		<g>
			<rect x="39" y="70" style="fill:#6FDAF1;" width="5" height="5"/>
		</g>
		<g>
			<rect x="39" y="78" style="fill:#6FDAF1;" width="5" height="5"/>
		</g>
		<g>
			<rect x="29" y="70" style="fill:#6FDAF1;" width="5" height="5"/>
		</g>
		<g>
			<rect x="29" y="78" style="fill:#6FDAF1;" width="5" height="5"/>
		</g>
		<g>
			<polygon style="fill:#FACB1B;" points="73,45 61,45 60,32 74,32 			"/>
		</g>
		<g>
			<rect x="63" y="35" style="fill:#40C9E7;" width="8" height="5"/>
		</g>
		<g>
			<polygon style="fill:#6FDAF1;" points="63,40 66.021,40 71,35.021 71,35 63,35 			"/>
		</g>
	</g>
</g>
</svg>
