<?xml version="1.0" encoding="iso-8859-1"?>
<!-- Generator: Adobe Illustrator 17.1.0, SVG Export Plug-In . SVG Version: 6.00 Build 0)  -->
<!DOCTYPE svg PUBLIC "-//W3C//DTD SVG 1.0//EN" "http://www.w3.org/TR/2001/REC-SVG-20010904/DTD/svg10.dtd">
<svg version="1.0" xmlns="http://www.w3.org/2000/svg" xmlns:xlink="http://www.w3.org/1999/xlink" x="0px" y="0px" width="110px"
	 height="110px" viewBox="0 0 110 110" style="enable-background:new 0 0 110 110;" xml:space="preserve">
<g id="Artboard">
</g>
<g id="Multicolor">
	<circle style="fill:#FABC3D;" cx="55" cy="55" r="55"/>
	<g>
		<rect x="39" y="23" style="fill:#40C9E7;" width="32" height="48"/>
		<rect x="23" y="83" style="fill:#F0F1F1;" width="64" height="4"/>
		<rect x="41" y="75" style="fill:#FFFFFF;" width="28" height="8"/>
		<rect x="45" y="77" style="fill:#40C9E7;" width="4" height="6"/>
		<rect x="53" y="77" style="fill:#40C9E7;" width="4" height="6"/>
		<rect x="61" y="77" style="fill:#40C9E7;" width="4" height="6"/>
		<path style="fill:#84462D;" d="M29,78c-0.342,0-0.674-0.023-1-0.06V83h2v-5.06C29.674,77.977,29.342,78,29,78z"/>
		<path style="fill:#0D9681;" d="M31.952,70.52C31.721,69.093,30.492,68,29,68s-2.721,1.093-2.952,2.52
			C24.229,71.207,23,72.507,23,74c0,2.209,2.686,4,6,4s6-1.791,6-4C35,72.507,33.771,71.207,31.952,70.52z"/>
		<path style="fill:#84462D;" d="M82,79c-0.347,0-0.679-0.058-1-0.141V83h2v-4.141C82.679,78.942,82.347,79,82,79z"/>
		<path style="fill:#0D9681;" d="M86,75c0,2.209-1.791,4-4,4s-4-1.791-4-4s4-14,4-14S86,72.791,86,75z"/>
		<rect x="37" y="71" style="fill:#FA5655;" width="36" height="4"/>
		<path style="fill:#9CE5F4;" d="M71,32v-2h-7v-7h-2v7h-6v-7h-2v7h-6v-7h-2v7h-7v2h7v6h-7v2h7v6h-7v2h7v6h-7v2h7v6h-7v2h7v7h2v-7h6
			v7h2v-7h6v7h2v-7h7v-2h-7v-6h7v-2h-7v-6h7v-2h-7v-6h7v-2h-7v-6H71z M48,32h6v6h-6V32z M48,40h6v6h-6V40z M48,48h6v6h-6V48z M48,62
			v-6h6v6H48z M62,62h-6v-6h6V62z M62,54h-6v-6h6V54z M62,46h-6v-6h6V46z M62,38h-6v-6h6V38z"/>
	</g>
</g>
</svg>
