<?xml version="1.0" encoding="iso-8859-1"?>
<!-- Generator: Adobe Illustrator 17.1.0, SVG Export Plug-In . SVG Version: 6.00 Build 0)  -->
<!DOCTYPE svg PUBLIC "-//W3C//DTD SVG 1.0//EN" "http://www.w3.org/TR/2001/REC-SVG-20010904/DTD/svg10.dtd">
<svg version="1.0" xmlns="http://www.w3.org/2000/svg" xmlns:xlink="http://www.w3.org/1999/xlink" x="0px" y="0px" width="110px"
	 height="110px" viewBox="0 0 110 110" style="enable-background:new 0 0 110 110;" xml:space="preserve">
<g id="Artboard">
</g>
<g id="Multicolor">
	<circle style="fill:#E04F5F;" cx="55" cy="55" r="55"/>
	<g>
		<rect x="55" y="23" style="fill:#FACB1B;" width="8" height="6"/>
		<polygon style="fill:#FFFFFF;" points="87,83 23,83 25,79 85,79 		"/>
		<polygon style="fill:#FFFFFF;" points="23,55 87,55 85,59 25,59 		"/>
		<rect x="43" y="36" style="fill:#40C9E7;" width="24" height="31"/>
		<g>
			<rect x="54.5" y="23" style="fill:#84462D;" width="1" height="9"/>
		</g>
		<rect x="27" y="59" style="fill:#21B2D1;" width="16" height="8"/>
		<rect x="67" y="59" style="fill:#21B2D1;" width="16" height="8"/>
		<g>
			<rect x="67" y="71" style="fill:#21B2D1;" width="16" height="8"/>
		</g>
		<rect x="27" y="71" style="fill:#21B2D1;" width="16" height="8"/>
		<polygon style="fill:#FFFFFF;" points="23,67 87,67 85,71 25,71 		"/>
		<rect x="41" y="32" style="fill:#FFFFFF;" width="28" height="4"/>
		<polygon style="fill:#FFFFFF;" points="72,87 38,87 41,83 69,83 		"/>
		<polygon style="fill:#40C9E7;" points="82.999,62 76,62 76,59 74,59 74,62 66.999,62 66.999,64 74,64 74,67 76,67 76,64 
			82.999,64 		"/>
		<polygon style="fill:#40C9E7;" points="43,74 36.001,74 36.001,71 34.001,71 34.001,74 27,74 27,76 34.001,76 34.001,79 
			36.001,79 36.001,76 43,76 		"/>
		<polygon style="fill:#40C9E7;" points="82.999,74 76,74 76,71 74,71 74,74 66.999,74 66.999,76 74,76 74,79 76,79 76,76 
			82.999,76 		"/>
		<path style="fill:#9CE5F4;" d="M67,44v-2h-7v-6h-2v6h-6v-6h-2v6h-7v2h7v6h-7v2h7v6h-7v2h7v7h2v-7h6v7h2v-7h7v-2h-7v-6h7v-2h-7v-6
			H67z M58,58h-6v-6h6V58z M58,50h-6v-6h6V50z"/>
		<polygon style="fill:#40C9E7;" points="43,62 36.001,62 36.001,59 34.001,59 34.001,62 27,62 27,64 34.001,64 34.001,67 
			36.001,67 36.001,64 43,64 		"/>
		<rect x="43" y="71" style="fill:#40C9E7;" width="24" height="12"/>
		<polygon style="fill:#9CE5F4;" points="50,83 52,83 52,78 58,78 58,83 60,83 60,78 67,78 67,76 60,76 60,71 58,71 58,76 52,76 
			52,71 50,71 50,76 43,76 43,78 50,78 		"/>
	</g>
</g>
</svg>
