<?xml version="1.0" encoding="iso-8859-1"?>
<!-- Generator: Adobe Illustrator 17.1.0, SVG Export Plug-In . SVG Version: 6.00 Build 0)  -->
<!DOCTYPE svg PUBLIC "-//W3C//DTD SVG 1.0//EN" "http://www.w3.org/TR/2001/REC-SVG-20010904/DTD/svg10.dtd">
<svg version="1.0" xmlns="http://www.w3.org/2000/svg" xmlns:xlink="http://www.w3.org/1999/xlink" x="0px" y="0px" width="110px"
	 height="110px" viewBox="0 0 110 110" style="enable-background:new 0 0 110 110;" xml:space="preserve">
<g id="Artboard">
</g>
<g id="Multicolor">
	<circle style="fill:#FABC3D;" cx="55" cy="55" r="55"/>
	<g>
		<g>
			<path style="fill:#3E3E3F;" d="M84.991,52.548L56.995,35.889l-0.026-4.276l-1.319-0.478c-0.169-0.062-1.655-0.642-1.655-2.11
				c0-1.79,3.555-3.419,5.211-0.105c0.494,0.988,1.695,1.387,2.684,0.895c0.988-0.494,1.388-1.696,0.895-2.684
				c-1.573-3.145-4.641-4.693-7.815-3.943c-2.928,0.691-4.974,3.092-4.974,5.838c0,2.629,1.544,4.327,3,5.24v1.621L25.31,52.321
				l-0.311,0.228c-1.844,1.646-2.491,4.305-1.61,6.615c0.881,2.31,3.134,3.861,5.606,3.861h52c2.472,0,4.725-1.552,5.606-3.861
				C87.483,56.853,86.835,54.195,84.991,52.548z M82.864,57.737c-0.294,0.77-1.044,1.287-1.869,1.287h-52
				c-0.824,0-1.575-0.517-1.869-1.287c-0.274-0.72-0.104-1.541,0.421-2.093L54.995,39.35l27.447,16.294
				C82.968,56.196,83.138,57.018,82.864,57.737z"/>
		</g>
		<g>
			<path style="fill:#F0F1F1;" d="M77.005,57.024c0-1.105-0.895-2-2-2H35c-1.105,0-2,0.895-2,2v26h44.005V57.024z"/>
		</g>
		<g>
			<rect x="33" y="83.024" style="fill:#E2E4E5;" width="44" height="4"/>
		</g>
		<g>
			<rect x="36" y="83.024" style="fill:#FFFFFF;" width="2" height="4"/>
		</g>
		<g>
			<rect x="42" y="83.024" style="fill:#FFFFFF;" width="2" height="4"/>
		</g>
		<g>
			<rect x="48" y="83.024" style="fill:#FFFFFF;" width="2" height="4"/>
		</g>
		<g>
			<rect x="54" y="83.024" style="fill:#FFFFFF;" width="2" height="4"/>
		</g>
		<g>
			<rect x="60" y="83.024" style="fill:#FFFFFF;" width="2" height="4"/>
		</g>
		<g>
			<rect x="66" y="83.024" style="fill:#FFFFFF;" width="2" height="4"/>
		</g>
		<g>
			<rect x="72" y="83.024" style="fill:#FFFFFF;" width="2" height="4"/>
		</g>
		<g>
			<path style="fill:#FFFFFF;" d="M33,57.024v26h3.957l28-28H35C33.896,55.024,33,55.92,33,57.024z"/>
		</g>
	</g>
</g>
</svg>
