<?xml version="1.0" encoding="iso-8859-1"?>
<!-- Generator: Adobe Illustrator 17.1.0, SVG Export Plug-In . SVG Version: 6.00 Build 0)  -->
<!DOCTYPE svg PUBLIC "-//W3C//DTD SVG 1.0//EN" "http://www.w3.org/TR/2001/REC-SVG-20010904/DTD/svg10.dtd">
<svg version="1.0" xmlns="http://www.w3.org/2000/svg" xmlns:xlink="http://www.w3.org/1999/xlink" x="0px" y="0px" width="110px"
	 height="110px" viewBox="0 0 110 110" style="enable-background:new 0 0 110 110;" xml:space="preserve">
<g id="Artboard">
</g>
<g id="Multicolor">
	<circle style="fill:#FABC3D;" cx="55" cy="55" r="55"/>
	<g>
		<g>
			<path style="fill:#DF2C2C;" d="M69,35c0-1.105,0.895-2,2-2h1c1.105,0,2,0.895,2,2v6c0,1.105-0.895,2-2,2h-1c-1.105,0-2-0.895-2-2
				V35z"/>
		</g>
		<g>
			<path style="fill:#DF2C2C;" d="M37,35c0-1.105-0.895-2-2-2h-1c-1.105,0-2,0.895-2,2v6c0,1.105,0.895,2,2,2h1c1.105,0,2-0.895,2-2
				V35z"/>
		</g>
		<polygon style="fill:#CFD3D4;" points="65.8,35 66,37 69,37 69,35 		"/>
		<polygon style="fill:#CFD3D4;" points="40.2,35 37,35 37,37 40,37 		"/>
		<g>
			<path style="fill:#DF2C2C;" d="M40.82,28.801C40.922,27.779,41.782,27,42.81,27h20.38c1.028,0,1.888,0.779,1.99,1.801L67,47v28
				H39V47L40.82,28.801z"/>
		</g>
		<g>
			<rect x="39" y="47" style="fill:#DF2C2C;" width="28" height="28"/>
		</g>
		<g>
			<rect x="43" y="75" style="fill:#9E9FA0;" width="20" height="4"/>
		</g>
		<g>
			<path style="fill:#3E3E3F;" d="M83,49c0-1.105-0.895-2-2-2H69c-1.105,0-2,0.895-2,2v24c0,1.105,0.895,2,2,2h12
				c1.105,0,2-0.895,2-2V49z"/>
		</g>
		<g>
			<path style="fill:#5B5C5F;" d="M75,60l8-4.8v-4.532c0-0.043-0.01-0.083-0.013-0.125L75,55.336l-7.987-4.793
				C67.01,50.585,67,50.625,67,50.668V55.2L75,60z"/>
		</g>
		<g>
			<polygon style="fill:#5B5C5F;" points="67,62.536 67,67.2 75,72 83,67.2 83,62.536 75,67.336 			"/>
		</g>
		<g>
			<path style="fill:#3E3E3F;" d="M39,49c0-1.105-0.895-2-2-2H25c-1.105,0-2,0.895-2,2v24c0,1.105,0.895,2,2,2h12
				c1.105,0,2-0.895,2-2V49z"/>
		</g>
		<g>
			<path style="fill:#5B5C5F;" d="M31,60l8-4.8v-4.532c0-0.043-0.01-0.083-0.013-0.125L31,55.336l-7.987-4.793
				C23.01,50.585,23,50.625,23,50.668V55.2L31,60z"/>
		</g>
		<g>
			<polygon style="fill:#5B5C5F;" points="23,62.536 23,67.2 31,72 39,67.2 39,62.536 31,67.336 			"/>
		</g>
		<g>
			<polygon style="fill:#40C9E7;" points="62,31 44,31 43,47 63,47 			"/>
		</g>
		<g>
			<path style="fill:#3E3E3F;" d="M71,71c0-1.105-0.895-2-2-2h-4c-1.105,0-2,0.895-2,2v14c0,1.105,0.895,2,2,2h4
				c1.105,0,2-0.895,2-2V71z"/>
		</g>
		<g>
			<path style="fill:#3E3E3F;" d="M43,71c0-1.105-0.895-2-2-2h-4c-1.105,0-2,0.895-2,2v14c0,1.105,0.895,2,2,2h4
				c1.105,0,2-0.895,2-2V71z"/>
		</g>
		<g>
			<path style="fill:#FA5655;" d="M43,53c0-1.105,0.895-2,2-2h16c1.105,0,2,0.895,2,2l-2,26c0,1.105-0.895,2-2,2H47
				c-1.105,0-2-0.895-2-2L43,53z"/>
		</g>
		<g>
			<path style="fill:#E2E4E5;" d="M58.221,71.012C58.099,72.106,57.1,73,56,73h-6c-1.1,0-2.099-0.894-2.221-1.988l-1.558-14.024
				C46.099,55.894,46.9,55,48,55h10c1.1,0,1.901,0.894,1.779,1.988L58.221,71.012z"/>
		</g>
		<g>
			<g>
				<polygon style="fill:#9E9FA0;" points="48.333,58 48.556,60 57.444,60 57.667,58 				"/>
			</g>
			<g>
				<polygon style="fill:#9E9FA0;" points="49,64 57,64 57.222,62 48.778,62 				"/>
			</g>
			<g>
				<polygon style="fill:#9E9FA0;" points="49.444,68 56.556,68 56.778,66 49.222,66 				"/>
			</g>
		</g>
		<g>
			<path style="fill:#FA5655;" d="M62.581,27H42.81c-1.028,0-1.888,0.778-1.99,1.801L39,47v3.581L62.581,27z"/>
		</g>
		<g>
			<polygon style="fill:#6FDAF1;" points="58.581,31 44,31 43.028,46.553 			"/>
		</g>
	</g>
</g>
</svg>
