<?xml version="1.0" encoding="iso-8859-1"?>
<!-- Generator: Adobe Illustrator 17.1.0, SVG Export Plug-In . SVG Version: 6.00 Build 0)  -->
<!DOCTYPE svg PUBLIC "-//W3C//DTD SVG 1.0//EN" "http://www.w3.org/TR/2001/REC-SVG-20010904/DTD/svg10.dtd">
<svg version="1.0" xmlns="http://www.w3.org/2000/svg" xmlns:xlink="http://www.w3.org/1999/xlink" x="0px" y="0px" width="110px"
	 height="110px" viewBox="0 0 110 110" style="enable-background:new 0 0 110 110;" xml:space="preserve">
<g id="Artboard">
</g>
<g id="Multicolor">
	<circle style="fill:#25B7D3;" cx="55" cy="55" r="55"/>
	<g>
		<g>
			<path style="fill:#F3B607;" d="M87,37c0-2.209-1.791-4-4-4H67.599c-1.581,0-3.013,0.931-3.655,2.375L57,51H34
				c-2.926,0-9,3.776-9,8v20h53.125C83.027,79,87,75.026,87,70.125V37z M82,49c0,1.105-0.895,2-2,2H64.912
				c-0.659,0-1.276-0.325-1.649-0.868s-0.455-1.235-0.218-1.85l3.461-9C66.804,38.51,67.546,38,68.374,38H80c1.105,0,2,0.895,2,2V49
				z"/>
		</g>
		<g>
			<path style="fill:#FACB1B;" d="M63.944,35.375L57,51H34c-2.926,0-9,3.776-9,8v20h10.673l28.262-28.262
				c-0.263-0.148-0.495-0.35-0.671-0.606c-0.373-0.543-0.455-1.235-0.218-1.85l3.461-9C66.804,38.51,67.546,38,68.374,38h8.299l5-5
				H67.599C66.019,33,64.586,33.931,63.944,35.375z"/>
		</g>
		<g>
			<path style="fill:#FACB1B;" d="M83,33H67.599c-1.581,0-3.013,0.931-3.655,2.375L57,51H34c-2.926,0-9,3.776-9,8h62V37
				C87,34.791,85.209,33,83,33z M82,49c0,1.104-0.895,2-2,2H64.912c-0.659,0-1.276-0.325-1.649-0.868
				c-0.373-0.543-0.455-1.235-0.218-1.85l3.461-9C66.804,38.51,67.546,38,68.374,38H80c1.105,0,2,0.896,2,2V49z"/>
		</g>
		<g>
			<path style="fill:#FBE158;" d="M63.944,35.375L57,51H34c-2.926,0-9,3.776-9,8h30.673l8.262-8.262
				c-0.263-0.148-0.495-0.35-0.671-0.606c-0.373-0.543-0.455-1.235-0.218-1.85l3.461-9C66.804,38.51,67.546,38,68.374,38h8.299l5-5
				H67.599C66.019,33,64.586,33.931,63.944,35.375z"/>
		</g>
		<g>
			<circle style="fill:#3E3E3F;" cx="31.5" cy="78.5" r="8.5"/>
		</g>
		<g>
			<circle style="fill:#3E3E3F;" cx="71" cy="71" r="16"/>
		</g>
		<g>
			<circle style="fill:#F0F1F1;" cx="71" cy="71" r="8"/>
		</g>
		<g>
			<circle style="fill:#F0F1F1;" cx="31.5" cy="78.5" r="4.25"/>
		</g>
		<g>
			<rect x="33" y="65" style="fill:#F3B607;" width="10" height="2"/>
		</g>
		<g>
			<path style="fill:#FFFFFF;" d="M46,37h-4v-8c0-1.104,0.896-2,2-2h6v4h-4V37z"/>
		</g>
		<g>
			<path style="fill:#5B5C5F;" d="M49,39c0-1.105-0.895-2-2-2h-6c-1.105,0-2,0.895-2,2v12h10V39z"/>
		</g>
		<g>
			<rect x="33" y="61" style="fill:#F3B607;" width="10" height="2"/>
		</g>
	</g>
</g>
</svg>
