<?xml version="1.0" encoding="iso-8859-1"?>
<!-- Generator: Adobe Illustrator 17.1.0, SVG Export Plug-In . SVG Version: 6.00 Build 0)  -->
<!DOCTYPE svg PUBLIC "-//W3C//DTD SVG 1.0//EN" "http://www.w3.org/TR/2001/REC-SVG-20010904/DTD/svg10.dtd">
<svg version="1.0" xmlns="http://www.w3.org/2000/svg" xmlns:xlink="http://www.w3.org/1999/xlink" x="0px" y="0px" width="110px"
	 height="110px" viewBox="0 0 110 110" style="enable-background:new 0 0 110 110;" xml:space="preserve">
<g id="Artboard" style="display:none;">
	<rect x="-1119" y="-327" style="display:inline;fill:#8C8C8C;" width="1412" height="743"/>
</g>
<g id="R-Multicolor">
	<circle style="fill:#32BEA6;" cx="55" cy="55" r="55"/>
	<g>
		<path style="fill:#F37A10;" d="M75,70L59.434,24.412C59.176,23.573,58.401,23,57.522,23h-5.045c-0.878,0-1.654,0.573-1.912,1.412
			L35,70L23,80v7h64v-7L75,70z"/>
		<polygon style="fill:#E2E4E5;" points="38.415,60 35,70 75,70 71.585,60 		"/>
		<polygon style="fill:#E2E4E5;" points="41.829,50 68.171,50 64.757,40 45.243,40 		"/>
		<rect x="23" y="80" style="fill:#F99134;" width="32" height="7"/>
		<polygon style="fill:#FFFFFF;" points="55,60 38.415,60 35,70 55,70 		"/>
		<polygon style="fill:#F99134;" points="55,50 41.829,50 38.415,60 55,60 		"/>
		<polygon style="fill:#FFFFFF;" points="55,40 45.243,40 41.829,50 55,50 		"/>
		<polygon style="fill:#F99134;" points="55,30 48.658,30 45.243,40 55,40 		"/>
		<polygon style="fill:#F99134;" points="35,70 23,80 55,80 55,70 		"/>
		<polygon style="fill:#F37A10;" points="75,70 87,80 55,80 55,70 		"/>
		<path style="fill:#E2E4E5;" d="M59.434,24.412C59.176,23.573,58.401,23,57.522,23h-5.045c-0.878,0-1.654,0.573-1.912,1.412
			L48.658,30h12.685L59.434,24.412z"/>
		<path style="fill:#FFFFFF;" d="M50.566,24.412L48.658,30H55v-7h-2.522C51.599,23,50.824,23.573,50.566,24.412z"/>
	</g>
</g>
<g id="Multicolor" style="display:none;">
	<g style="display:inline;">
		<path style="fill:#F37A10;" d="M75,70L59.434,24.412C59.176,23.573,58.401,23,57.522,23h-5.045c-0.878,0-1.654,0.573-1.912,1.412
			L35,70L23,80v7h64v-7L75,70z"/>
		<polygon style="fill:#E2E4E5;" points="38.415,60 35,70 75,70 71.585,60 		"/>
		<polygon style="fill:#E2E4E5;" points="41.829,50 68.171,50 64.757,40 45.243,40 		"/>
		<rect x="23" y="80" style="fill:#F99134;" width="32" height="7"/>
		<polygon style="fill:#FFFFFF;" points="55,60 38.415,60 35,70 55,70 		"/>
		<polygon style="fill:#F99134;" points="55,50 41.829,50 38.415,60 55,60 		"/>
		<polygon style="fill:#FFFFFF;" points="55,40 45.243,40 41.829,50 55,50 		"/>
		<polygon style="fill:#F99134;" points="55,30 48.658,30 45.243,40 55,40 		"/>
		<polygon style="fill:#F99134;" points="35,70 23,80 55,80 55,70 		"/>
		<polygon style="fill:#F37A10;" points="75,70 87,80 55,80 55,70 		"/>
		<path style="fill:#E2E4E5;" d="M59.434,24.412C59.176,23.573,58.401,23,57.522,23h-5.045c-0.878,0-1.654,0.573-1.912,1.412
			L48.658,30h12.685L59.434,24.412z"/>
		<path style="fill:#FFFFFF;" d="M50.566,24.412L48.658,30H55v-7h-2.522C51.599,23,50.824,23.573,50.566,24.412z"/>
	</g>
</g>
<g id="Blue" style="display:none;">
	<g style="display:inline;">
		<g>
			<path style="fill:#0081A1;" d="M75.003,70L59.437,24.412C59.179,23.573,58.404,23,57.525,23H52.48
				c-0.878,0-1.654,0.573-1.912,1.412L35.003,70l-12,10v7h64v-7L75.003,70z"/>
		</g>
		<g>
			<polygon style="fill:#E1F5FA;" points="38.417,60 35.003,70 75.003,70 71.588,60 			"/>
		</g>
		<g>
			<polygon style="fill:#E1F5FA;" points="41.832,50 68.174,50 64.76,40 45.246,40 			"/>
		</g>
		<g>
			<rect x="23.003" y="80" style="fill:#009FC7;" width="32" height="7"/>
		</g>
		<g>
			<polygon style="fill:#FFFFFF;" points="55.003,60 38.417,60 35.003,70 55.003,70 			"/>
		</g>
		<g>
			<polygon style="fill:#009FC7;" points="55.003,50 41.832,50 38.417,60 55.003,60 			"/>
		</g>
		<g>
			<polygon style="fill:#FFFFFF;" points="55.003,40 45.246,40 41.832,50 55.003,50 			"/>
		</g>
		<g>
			<polygon style="fill:#009FC7;" points="55.003,30 48.661,30 45.246,40 55.003,40 			"/>
		</g>
		<g>
			<polygon style="fill:#009FC7;" points="35.003,70 23.003,80 55.003,80 55.003,70 			"/>
		</g>
		<g>
			<polygon style="fill:#0081A1;" points="75.003,70 87.003,80 55.003,80 55.003,70 			"/>
		</g>
		<g>
			<path style="fill:#E1F5FA;" d="M59.437,24.412C59.179,23.573,58.404,23,57.525,23H52.48c-0.878,0-1.654,0.573-1.912,1.412
				L48.661,30h12.685L59.437,24.412z"/>
		</g>
		<g>
			<path style="fill:#FFFFFF;" d="M50.569,24.412L48.661,30h6.342v-7H52.48C51.602,23,50.827,23.573,50.569,24.412z"/>
		</g>
	</g>
</g>
<g id="R-Blue" style="display:none;">
	<g style="display:inline;">
		<circle style="fill:#81D2EB;" cx="55" cy="55" r="55"/>
	</g>
	<g style="display:inline;">
		<g>
			<path style="fill:#0081A1;" d="M75,70L59.434,24.412C59.176,23.573,58.401,23,57.522,23h-5.045c-0.878,0-1.654,0.573-1.912,1.412
				L35,70L23,80v7h64v-7L75,70z"/>
		</g>
		<g>
			<polygon style="fill:#E1F5FA;" points="38.415,60 35,70 75,70 71.585,60 			"/>
		</g>
		<g>
			<polygon style="fill:#E1F5FA;" points="41.829,50 68.171,50 64.757,40 45.243,40 			"/>
		</g>
		<g>
			<rect x="23" y="80" style="fill:#009FC7;" width="32" height="7"/>
		</g>
		<g>
			<polygon style="fill:#FFFFFF;" points="55,60 38.415,60 35,70 55,70 			"/>
		</g>
		<g>
			<polygon style="fill:#009FC7;" points="55,50 41.829,50 38.415,60 55,60 			"/>
		</g>
		<g>
			<polygon style="fill:#FFFFFF;" points="55,40 45.243,40 41.829,50 55,50 			"/>
		</g>
		<g>
			<polygon style="fill:#009FC7;" points="55,30 48.658,30 45.243,40 55,40 			"/>
		</g>
		<g>
			<polygon style="fill:#009FC7;" points="35,70 23,80 55,80 55,70 			"/>
		</g>
		<g>
			<polygon style="fill:#0081A1;" points="75,70 87,80 55,80 55,70 			"/>
		</g>
		<g>
			<path style="fill:#E1F5FA;" d="M59.434,24.412C59.176,23.573,58.401,23,57.522,23h-5.045c-0.878,0-1.654,0.573-1.912,1.412
				L48.658,30h12.685L59.434,24.412z"/>
		</g>
		<g>
			<path style="fill:#FFFFFF;" d="M50.566,24.412L48.658,30H55v-7h-2.522C51.599,23,50.824,23.573,50.566,24.412z"/>
		</g>
	</g>
</g>
<g id="Green" style="display:none;">
	<g style="display:inline;">
		<g>
			<path style="fill:#009687;" d="M75.003,70L59.437,24.412C59.179,23.573,58.404,23,57.525,23H52.48
				c-0.878,0-1.654,0.573-1.912,1.412L35.003,70l-12,10v7h64v-7L75.003,70z"/>
		</g>
		<g>
			<polygon style="fill:#D7FCF9;" points="38.417,60 35.003,70 75.003,70 71.588,60 			"/>
		</g>
		<g>
			<polygon style="fill:#D7FCF9;" points="41.832,50 68.174,50 64.76,40 45.246,40 			"/>
		</g>
		<g>
			<rect x="23.003" y="80" style="fill:#00B8A5;" width="32" height="7"/>
		</g>
		<g>
			<polygon style="fill:#FFFFFF;" points="55.003,60 38.417,60 35.003,70 55.003,70 			"/>
		</g>
		<g>
			<polygon style="fill:#00B8A5;" points="55.003,50 41.832,50 38.417,60 55.003,60 			"/>
		</g>
		<g>
			<polygon style="fill:#FFFFFF;" points="55.003,40 45.246,40 41.832,50 55.003,50 			"/>
		</g>
		<g>
			<polygon style="fill:#00B8A5;" points="55.003,30 48.661,30 45.246,40 55.003,40 			"/>
		</g>
		<g>
			<polygon style="fill:#00B8A5;" points="35.003,70 23.003,80 55.003,80 55.003,70 			"/>
		</g>
		<g>
			<polygon style="fill:#009687;" points="75.003,70 87.003,80 55.003,80 55.003,70 			"/>
		</g>
		<g>
			<path style="fill:#D7FCF9;" d="M59.437,24.412C59.179,23.573,58.404,23,57.525,23H52.48c-0.878,0-1.654,0.573-1.912,1.412
				L48.661,30h12.685L59.437,24.412z"/>
		</g>
		<g>
			<path style="fill:#FFFFFF;" d="M50.569,24.412L48.661,30h6.342v-7H52.48C51.602,23,50.827,23.573,50.569,24.412z"/>
		</g>
	</g>
</g>
<g id="R-Green" style="display:none;">
	<g style="display:inline;">
		<circle style="fill:#87E0C8;" cx="55" cy="55" r="55"/>
	</g>
	<g style="display:inline;">
		<g>
			<path style="fill:#009687;" d="M75,70L59.434,24.412C59.176,23.573,58.401,23,57.522,23h-5.045c-0.878,0-1.654,0.573-1.912,1.412
				L35,70L23,80v7h64v-7L75,70z"/>
		</g>
		<g>
			<polygon style="fill:#D7FCF9;" points="38.415,60 35,70 75,70 71.585,60 			"/>
		</g>
		<g>
			<polygon style="fill:#D7FCF9;" points="41.829,50 68.171,50 64.757,40 45.243,40 			"/>
		</g>
		<g>
			<rect x="23" y="80" style="fill:#00B8A5;" width="32" height="7"/>
		</g>
		<g>
			<polygon style="fill:#FFFFFF;" points="55,60 38.415,60 35,70 55,70 			"/>
		</g>
		<g>
			<polygon style="fill:#00B8A5;" points="55,50 41.829,50 38.415,60 55,60 			"/>
		</g>
		<g>
			<polygon style="fill:#FFFFFF;" points="55,40 45.243,40 41.829,50 55,50 			"/>
		</g>
		<g>
			<polygon style="fill:#00B8A5;" points="55,30 48.658,30 45.243,40 55,40 			"/>
		</g>
		<g>
			<polygon style="fill:#00B8A5;" points="35,70 23,80 55,80 55,70 			"/>
		</g>
		<g>
			<polygon style="fill:#009687;" points="75,70 87,80 55,80 55,70 			"/>
		</g>
		<g>
			<path style="fill:#D7FCF9;" d="M59.434,24.412C59.176,23.573,58.401,23,57.522,23h-5.045c-0.878,0-1.654,0.573-1.912,1.412
				L48.658,30h12.685L59.434,24.412z"/>
		</g>
		<g>
			<path style="fill:#FFFFFF;" d="M50.566,24.412L48.658,30H55v-7h-2.522C51.599,23,50.824,23.573,50.566,24.412z"/>
		</g>
	</g>
</g>
<g id="Red" style="display:none;">
	<g style="display:inline;">
		<g>
			<path style="fill:#C23023;" d="M75,70L59.434,24.412C59.176,23.573,58.401,23,57.522,23h-5.045c-0.878,0-1.654,0.573-1.912,1.412
				L35,70L23,80v7h64v-7L75,70z"/>
		</g>
		<g>
			<polygon style="fill:#FFEFED;" points="38.415,60 35,70 75,70 71.585,60 			"/>
		</g>
		<g>
			<polygon style="fill:#FFEFED;" points="41.829,50 68.171,50 64.757,40 45.243,40 			"/>
		</g>
		<g>
			<rect x="23" y="80" style="fill:#E54B44;" width="32" height="7"/>
		</g>
		<g>
			<polygon style="fill:#FFFFFF;" points="55,60 38.415,60 35,70 55,70 			"/>
		</g>
		<g>
			<polygon style="fill:#E54B44;" points="55,50 41.829,50 38.415,60 55,60 			"/>
		</g>
		<g>
			<polygon style="fill:#FFFFFF;" points="55,40 45.243,40 41.829,50 55,50 			"/>
		</g>
		<g>
			<polygon style="fill:#E54B44;" points="55,30 48.658,30 45.243,40 55,40 			"/>
		</g>
		<g>
			<polygon style="fill:#E54B44;" points="35,70 23,80 55,80 55,70 			"/>
		</g>
		<g>
			<polygon style="fill:#C23023;" points="75,70 87,80 55,80 55,70 			"/>
		</g>
		<g>
			<path style="fill:#FFEFED;" d="M59.434,24.412C59.176,23.573,58.401,23,57.522,23h-5.045c-0.878,0-1.654,0.573-1.912,1.412
				L48.658,30h12.685L59.434,24.412z"/>
		</g>
		<g>
			<path style="fill:#FFFFFF;" d="M50.566,24.412L48.658,30H55v-7h-2.522C51.599,23,50.824,23.573,50.566,24.412z"/>
		</g>
	</g>
</g>
<g id="R-Red" style="display:none;">
	<g style="display:inline;">
		<circle style="fill:#FABBAF;" cx="55" cy="55" r="55"/>
	</g>
	<g style="display:inline;">
		<g>
			<path style="fill:#C23023;" d="M75,70L59.434,24.412C59.176,23.573,58.401,23,57.522,23h-5.045c-0.878,0-1.654,0.573-1.912,1.412
				L35,70L23,80v7h64v-7L75,70z"/>
		</g>
		<g>
			<polygon style="fill:#FFEFED;" points="38.415,60 35,70 75,70 71.585,60 			"/>
		</g>
		<g>
			<polygon style="fill:#FFEFED;" points="41.829,50 68.171,50 64.757,40 45.243,40 			"/>
		</g>
		<g>
			<rect x="23" y="80" style="fill:#E54B44;" width="32" height="7"/>
		</g>
		<g>
			<polygon style="fill:#FFFFFF;" points="55,60 38.415,60 35,70 55,70 			"/>
		</g>
		<g>
			<polygon style="fill:#E54B44;" points="55,50 41.829,50 38.415,60 55,60 			"/>
		</g>
		<g>
			<polygon style="fill:#FFFFFF;" points="55,40 45.243,40 41.829,50 55,50 			"/>
		</g>
		<g>
			<polygon style="fill:#E54B44;" points="55,30 48.658,30 45.243,40 55,40 			"/>
		</g>
		<g>
			<polygon style="fill:#E54B44;" points="35,70 23,80 55,80 55,70 			"/>
		</g>
		<g>
			<polygon style="fill:#C23023;" points="75,70 87,80 55,80 55,70 			"/>
		</g>
		<g>
			<path style="fill:#FFEFED;" d="M59.434,24.412C59.176,23.573,58.401,23,57.522,23h-5.045c-0.878,0-1.654,0.573-1.912,1.412
				L48.658,30h12.685L59.434,24.412z"/>
		</g>
		<g>
			<path style="fill:#FFFFFF;" d="M50.566,24.412L48.658,30H55v-7h-2.522C51.599,23,50.824,23.573,50.566,24.412z"/>
		</g>
	</g>
</g>
<g id="Yellow" style="display:none;">
	<g style="display:inline;">
		<g>
			<path style="fill:#E07000;" d="M75.003,70L59.437,24.412C59.179,23.573,58.404,23,57.525,23H52.48
				c-0.878,0-1.654,0.573-1.912,1.412L35.003,70l-12,10v7h64v-7L75.003,70z"/>
		</g>
		<g>
			<polygon style="fill:#FFF5D9;" points="38.417,60 35.003,70 75.003,70 71.588,60 			"/>
		</g>
		<g>
			<polygon style="fill:#FFF5D9;" points="41.832,50 68.174,50 64.76,40 45.246,40 			"/>
		</g>
		<g>
			<rect x="23.003" y="80" style="fill:#FA9200;" width="32" height="7"/>
		</g>
		<g>
			<polygon style="fill:#FFFFFF;" points="55.003,60 38.417,60 35.003,70 55.003,70 			"/>
		</g>
		<g>
			<polygon style="fill:#FA9200;" points="55.003,50 41.832,50 38.417,60 55.003,60 			"/>
		</g>
		<g>
			<polygon style="fill:#FFFFFF;" points="55.003,40 45.246,40 41.832,50 55.003,50 			"/>
		</g>
		<g>
			<polygon style="fill:#FA9200;" points="55.003,30 48.661,30 45.246,40 55.003,40 			"/>
		</g>
		<g>
			<polygon style="fill:#FA9200;" points="35.003,70 23.003,80 55.003,80 55.003,70 			"/>
		</g>
		<g>
			<polygon style="fill:#E07000;" points="75.003,70 87.003,80 55.003,80 55.003,70 			"/>
		</g>
		<g>
			<path style="fill:#FFF5D9;" d="M59.437,24.412C59.179,23.573,58.404,23,57.525,23H52.48c-0.878,0-1.654,0.573-1.912,1.412
				L48.661,30h12.685L59.437,24.412z"/>
		</g>
		<g>
			<path style="fill:#FFFFFF;" d="M50.569,24.412L48.661,30h6.342v-7H52.48C51.602,23,50.827,23.573,50.569,24.412z"/>
		</g>
	</g>
</g>
<g id="R-Yellow" style="display:none;">
	<g style="display:inline;">
		<circle style="fill:#FFD75E;" cx="55" cy="55" r="55"/>
	</g>
	<g style="display:inline;">
		<g>
			<path style="fill:#E07000;" d="M75,70L59.434,24.412C59.176,23.573,58.401,23,57.522,23h-5.045c-0.878,0-1.654,0.573-1.912,1.412
				L35,70L23,80v7h64v-7L75,70z"/>
		</g>
		<g>
			<polygon style="fill:#FFF5D9;" points="38.415,60 35,70 75,70 71.585,60 			"/>
		</g>
		<g>
			<polygon style="fill:#FFF5D9;" points="41.829,50 68.171,50 64.757,40 45.243,40 			"/>
		</g>
		<g>
			<rect x="23" y="80" style="fill:#FA9200;" width="32" height="7"/>
		</g>
		<g>
			<polygon style="fill:#FFFFFF;" points="55,60 38.415,60 35,70 55,70 			"/>
		</g>
		<g>
			<polygon style="fill:#FA9200;" points="55,50 41.829,50 38.415,60 55,60 			"/>
		</g>
		<g>
			<polygon style="fill:#FFFFFF;" points="55,40 45.243,40 41.829,50 55,50 			"/>
		</g>
		<g>
			<polygon style="fill:#FA9200;" points="55,30 48.658,30 45.243,40 55,40 			"/>
		</g>
		<g>
			<polygon style="fill:#FA9200;" points="35,70 23,80 55,80 55,70 			"/>
		</g>
		<g>
			<polygon style="fill:#E07000;" points="75,70 87,80 55,80 55,70 			"/>
		</g>
		<g>
			<path style="fill:#FFF5D9;" d="M59.434,24.412C59.176,23.573,58.401,23,57.522,23h-5.045c-0.878,0-1.654,0.573-1.912,1.412
				L48.658,30h12.685L59.434,24.412z"/>
		</g>
		<g>
			<path style="fill:#FFFFFF;" d="M50.566,24.412L48.658,30H55v-7h-2.522C51.599,23,50.824,23.573,50.566,24.412z"/>
		</g>
	</g>
</g>
</svg>
