<?xml version="1.0" encoding="iso-8859-1"?>
<!-- Generator: Adobe Illustrator 17.1.0, SVG Export Plug-In . SVG Version: 6.00 Build 0)  -->
<!DOCTYPE svg PUBLIC "-//W3C//DTD SVG 1.0//EN" "http://www.w3.org/TR/2001/REC-SVG-20010904/DTD/svg10.dtd">
<svg version="1.0" xmlns="http://www.w3.org/2000/svg" xmlns:xlink="http://www.w3.org/1999/xlink" x="0px" y="0px" width="110px"
	 height="110px" viewBox="0 0 110 110" style="enable-background:new 0 0 110 110;" xml:space="preserve">
<g id="Artboard">
</g>
<g id="Multicolor">
	<circle style="fill:#25B7D3;" cx="55" cy="55" r="55"/>
	<g>
		<g>
			<circle style="fill:#5B5C5F;" cx="41" cy="82" r="3"/>
		</g>
		<g>
			<path style="fill:#E2E4E5;" d="M41,79c1.654,0,3,1.346,3,3s-1.346,3-3,3s-3-1.346-3-3S39.346,79,41,79 M41,77
				c-2.761,0-5,2.239-5,5s2.239,5,5,5s5-2.239,5-5S43.761,77,41,77L41,77z"/>
		</g>
		<g>
			<circle style="fill:#5B5C5F;" cx="29" cy="82" r="3"/>
		</g>
		<g>
			<path style="fill:#E2E4E5;" d="M29,79c1.654,0,3,1.346,3,3s-1.346,3-3,3s-3-1.346-3-3S27.346,79,29,79 M29,77
				c-2.761,0-5,2.239-5,5s2.239,5,5,5s5-2.239,5-5S31.761,77,29,77L29,77z"/>
		</g>
		<g>
			<polygon style="fill:#5B5C5F;" points="30,71 23,78 63,78 63,71 			"/>
		</g>
		<g>
			<rect x="23" y="78" style="fill:#C7CBCC;" width="40" height="3"/>
		</g>
		<g>
			<path style="fill:#DF2C2C;" d="M30,51v20l-6-3.406c-0.556-0.371-0.891-0.995-0.891-1.664V56.07c0-0.669,0.334-1.293,0.891-1.664
				L30,51z"/>
		</g>
		<g>
			<rect x="30" y="51" style="fill:#3E3E3F;" width="33" height="20"/>
		</g>
		<g>
			<path style="fill:#DF2C2C;" d="M63,38.818V77h24V38.818C87,36.709,85.209,35,83,35H67C64.791,35,63,36.709,63,38.818z M67,39h16
				v11.273H67V39z"/>
		</g>
		<g>
			<rect x="35" y="41" style="fill:#F0F1F1;" width="10" height="10"/>
		</g>
		<g>
			<path style="fill:#FFFFFF;" d="M49,39c0,1.105-0.895,2-2,2H33c-1.105,0-2-0.895-2-2v-2c0-1.105,0.895-2,2-2h14
				c1.105,0,2,0.895,2,2V39z"/>
		</g>
		<g>
			<path style="fill:#F0F1F1;" d="M40,35h7c1.104,0,2,0.896,2,2v2c0,1.104-0.896,2-2,2h-7V35z"/>
		</g>
		<g>
			<rect x="40" y="41" style="fill:#E2E4E5;" width="5" height="10"/>
		</g>
		<g>
			<path style="fill:#FA5655;" d="M24,54.406L30,51v10h-6.891v-4.93C23.109,55.402,23.444,54.777,24,54.406z"/>
		</g>
		<g>
			<rect x="30" y="51" style="fill:#5B5C5F;" width="33" height="10"/>
		</g>
		<g>
			<path style="fill:#F0F1F1;" d="M57.05,31c0.715,0,1.338-0.491,1.504-1.187c0.45-1.88-0.709-3.769-2.589-4.219
				c-0.947-0.227-1.896-0.043-2.662,0.433c-0.599-1.411-1.822-2.535-3.426-2.919c-2.313-0.554-4.628,0.604-5.639,2.65
				c-0.757-0.758-1.722-1.328-2.84-1.595c-3.223-0.771-6.461,1.215-7.232,4.438c-0.139,0.579-0.004,1.19,0.365,1.658
				S35.462,31,36.058,31H57.05z"/>
		</g>
		<g>
			<circle style="fill:#E9EAEB;" cx="77" cy="77" r="10"/>
		</g>
		<g>
			<circle style="fill:#5B5C5F;" cx="77" cy="77" r="6"/>
		</g>
		<g>
			<circle style="fill:#E9EAEB;" cx="57" cy="77" r="10"/>
		</g>
		<g>
			<circle style="fill:#5B5C5F;" cx="57" cy="77" r="6"/>
		</g>
		<g>
			<circle style="fill:#C7CBCC;" cx="57" cy="77" r="2"/>
		</g>
		<g>
			<circle style="fill:#C7CBCC;" cx="77" cy="77" r="2"/>
		</g>
		<g>
			<rect x="67" y="39" style="fill:#40C9E7;" width="16" height="12"/>
		</g>
		<g>
			<polygon style="fill:#9CE5F4;" points="67,39 67,51 70.77,51 82.77,39 			"/>
		</g>
		<g>
			<path style="fill:#FA5655;" d="M67,35c-2.209,0-4,1.791-4,4v19.77L70.77,51H67V39h15.77l2.933-2.933C84.99,35.41,84.046,35,83,35
				H67z"/>
		</g>
	</g>
</g>
</svg>
