<?xml version="1.0" encoding="iso-8859-1"?>
<!-- Generator: Adobe Illustrator 17.1.0, SVG Export Plug-In . SVG Version: 6.00 Build 0)  -->
<!DOCTYPE svg PUBLIC "-//W3C//DTD SVG 1.0//EN" "http://www.w3.org/TR/2001/REC-SVG-20010904/DTD/svg10.dtd">
<svg version="1.0" xmlns="http://www.w3.org/2000/svg" xmlns:xlink="http://www.w3.org/1999/xlink" x="0px" y="0px" width="110px"
	 height="110px" viewBox="0 0 110 110" style="enable-background:new 0 0 110 110;" xml:space="preserve">
<g id="Artboard">
</g>
<g id="Multicolor">
	<circle style="fill:#FABC3D;" cx="55" cy="55" r="55"/>
	<g>
		<path style="fill:#84462D;" d="M45.538,52c0.382-4.474,4.141-8,8.712-8c4.572,0,8.33,3.526,8.712,8h3
			c-0.39-6.129-5.486-11-11.712-11c-6.226,0-11.322,4.871-11.712,11H45.538z"/>
		<g>
			<path style="fill:#0484AB;" d="M27,83h56c5.448-11.469,5.218-21.754,0-31H27C21.781,61.245,21.551,71.531,27,83z"/>
		</g>
		<g>
			<path style="fill:#059BBF;" d="M27,52c-4.654,8.246-5.327,17.322-1.555,27.325L52.769,52H27z"/>
		</g>
		<g>
			<path style="fill:#3E3E3F;" d="M85,39h-2.5L81,36h-4l-1.5,3H69c-1.105,0-2,0.896-2,2v9c0,1.104,0.895,2,2,2h16
				c1.105,0,2-0.896,2-2v-9C87,39.896,86.104,39,85,39z"/>
		</g>
		<g>
			<path style="fill:#FCF1E2;" d="M63.283,33.403L40.8,41.799c0,0,0.206-1.935,0.68-4.524c0.256-1.43,0.6-3.053,1.027-4.653
				c1.019-3.732,2.52-7.345,4.637-8.136s5.619,0.955,8.835,3.106c1.372,0.929,2.695,1.929,3.826,2.841
				C61.859,32.078,63.283,33.403,63.283,33.403z"/>
		</g>
		<g>
			<path style="fill:#9C6144;" d="M59.804,30.433L41.48,37.275c0.256-1.43,0.6-3.053,1.027-4.653l13.471-5.03
				C57.35,28.521,58.674,29.521,59.804,30.433z"/>
		</g>
		<g>
			<circle style="fill:#F0F1F1;" cx="78" cy="45" r="5"/>
		</g>
		<g>
			<circle style="fill:#40C9E7;" cx="78" cy="45" r="3"/>
		</g>
		<g>
			<path style="fill:#21B2D1;" d="M45,66c0-4.801,0.518-9.482,1.483-14h-4.09C41.483,56.528,41,61.208,41,66
				c0,5.945,0.74,11.72,2.124,17.243C43.235,83.687,43.634,84,44.093,84h2.078c0.31,0,0.602-0.143,0.791-0.388
				s0.255-0.564,0.177-0.863C45.752,77.392,45,71.784,45,66z"/>
		</g>
		<g>
			<path style="fill:#21B2D1;" d="M64,66c0-4.801-0.518-9.482-1.483-14h4.09C67.516,56.528,68,61.208,68,66
				c0,5.945-0.74,11.72-2.124,17.243C65.764,83.687,65.365,84,64.906,84h-2.078c-0.31,0-0.602-0.143-0.791-0.388
				c-0.189-0.245-0.255-0.564-0.177-0.863C63.247,77.392,64,71.784,64,66z"/>
		</g>
		<g>
			<rect x="71" y="38" style="fill:#F0F1F1;" width="3" height="1"/>
		</g>
		<g>
			<path style="fill:#FCF1E2;" d="M81.083,26.757c0.245,0.656,0.386,1.319,0.428,1.975c0.205,3.008-1.558,5.919-4.537,7.031
				L32.006,52.555c-2.979,1.112-6.219,0.07-8.035-2.337c-0.398-0.524-0.726-1.116-0.971-1.772L81.083,26.757z"/>
		</g>
		<g>
			<path style="fill:#40C9E7;" d="M42.392,52c-0.764,3.803-1.207,7.719-1.335,11.712l4.279-4.279
				c0.249-2.52,0.627-5.002,1.146-7.433H42.392z"/>
		</g>
		<g>
			<path style="fill:#9C6144;" d="M81.083,26.757c0.245,0.656,0.386,1.319,0.428,1.975L23.971,50.218
				c-0.398-0.524-0.726-1.116-0.971-1.772L81.083,26.757z"/>
		</g>
		<g>
			<polygon style="fill:#FFFFFF;" points="55.155,62.747 48.379,67 42,56.836 43.261,51.322 48.775,52.583 			"/>
		</g>
	</g>
</g>
</svg>
