<?xml version="1.0" encoding="iso-8859-1"?>
<!-- Generator: Adobe Illustrator 17.1.0, SVG Export Plug-In . SVG Version: 6.00 Build 0)  -->
<!DOCTYPE svg PUBLIC "-//W3C//DTD SVG 1.0//EN" "http://www.w3.org/TR/2001/REC-SVG-20010904/DTD/svg10.dtd">
<svg version="1.0" xmlns="http://www.w3.org/2000/svg" xmlns:xlink="http://www.w3.org/1999/xlink" x="0px" y="0px" width="110px"
	 height="110px" viewBox="0 0 110 110" style="enable-background:new 0 0 110 110;" xml:space="preserve">
<g id="Artboard">
</g>
<g id="Multicolor">
	<circle style="fill:#FABC3D;" cx="55" cy="55" r="55"/>
	<g>
		<path style="fill:#84462D;" d="M69.258,82.89C62.224,81.974,63,75.567,63,71V59.763L75.392,51h-6.928L63,54.863V51H47v20
			c0,0.305-0.017,0.62-0.046,0.94L40.014,65h-6.339L46,76.803c-1.592,2.955-0.987,5.532-5.257,6.086
			C39.747,83.019,39,83.867,39,84.871V87h32v-2.13C71,83.864,70.255,83.019,69.258,82.89z"/>
		<path style="fill:#0D9681;" d="M44.115,65c3.206-4.592-0.055-11-5.74-11c-2.442,0-4.59,1.252-5.842,3.148
			c-3.229-0.769-6.158,1.695-6.158,4.852c0,1.131,0.39,2.162,1.022,3H44.115z"/>
		<path style="fill:#107665;" d="M76.325,51c0.002-0.006,0.005-0.011,0.008-0.017C82.252,50.806,87,45.963,87,40
			c0-7.424-7.212-12.706-14.277-10.503C69.067,25.513,63.833,23,58,23c-6.007,0-11.382,2.661-15.048,6.854
			c-10.445-3.659-21.088,4.863-19.859,15.822C23.434,48.715,25.998,51,29.056,51H76.325z"/>
		<path style="fill:#0D9681;" d="M55,23.231c-4.782,0.723-9.005,3.143-12.048,6.623c-10.445-3.659-21.088,4.864-19.859,15.822
			C23.434,48.715,25.998,51,29.056,51H55V23.231z"/>
		<path style="fill:#9C6144;" d="M47,51v20c0,0.305-0.017,0.62-0.046,0.94L40.014,65h-6.339L46,76.803
			c-1.592,2.955-0.987,5.532-5.257,6.086C39.747,83.019,39,83.867,39,84.871V87h16V51H47z"/>
		<circle style="fill:#692E19;" cx="55" cy="67" r="4"/>
		<path style="fill:#84462D;" d="M51,67c0,2.209,1.791,4,4,4v-8C52.791,63,51,64.791,51,67z"/>
	</g>
</g>
</svg>
