<?xml version="1.0" encoding="iso-8859-1"?>
<!-- Generator: Adobe Illustrator 17.1.0, SVG Export Plug-In . SVG Version: 6.00 Build 0)  -->
<!DOCTYPE svg PUBLIC "-//W3C//DTD SVG 1.0//EN" "http://www.w3.org/TR/2001/REC-SVG-20010904/DTD/svg10.dtd">
<svg version="1.0" xmlns="http://www.w3.org/2000/svg" xmlns:xlink="http://www.w3.org/1999/xlink" x="0px" y="0px" width="110px"
	 height="110px" viewBox="0 0 110 110" style="enable-background:new 0 0 110 110;" xml:space="preserve">
<g id="Artboard">
</g>
<g id="Multicolor">
	<circle style="fill:#E04F5F;" cx="55" cy="55" r="55"/>
	<g>
		<path style="fill:#0484AB;" d="M25.493,71.044h56.73l1.763-5.05h-39v-23H34.533c-1.039,0-2.003,0.539-2.547,1.424l-6.548,10.949
			c-0.29,0.471-0.444,1.014-0.444,1.567v14.16C25.155,71.062,25.322,71.044,25.493,71.044z"/>
		<path style="fill:#CFD3D4;" d="M25.493,71.044c-1.377,0-2.493,1.116-2.493,2.493c0,1.376,1.116,2.493,2.493,2.493h57.493v-4.985
			H25.493z"/>
		<circle style="fill:#3E3E3F;" cx="33.968" cy="76.029" r="6.98"/>
		<circle style="fill:#CFD3D4;" cx="33.968" cy="76.029" r="2.792"/>
		<circle style="fill:#3E3E3F;" cx="71.857" cy="76.029" r="6.98"/>
		<circle style="fill:#CFD3D4;" cx="71.857" cy="76.029" r="2.792"/>
		<path style="fill:#FBE158;" d="M86.979,64c0,1.101-0.893,1.994-1.244,1.994h-40.75v-35c0-1.101,0.893-1.994,1.994-1.994h37.889
			c1.101,0,1.994,0.893,1.994,1.994L86.979,64z"/>
		<rect x="34.965" y="59.079" style="fill:#21B2D1;" width="5.982" height="1.994"/>
		<path style="fill:#059BBF;" d="M44.708,43.126l-10.175-0.132c-1.039,0-2.003,0.539-2.547,1.424l-6.548,10.949
			c-0.29,0.471-0.444,1.014-0.444,1.567v5.905L44.708,43.126z"/>
		<polygon style="fill:#40C9E7;" points="40.985,46.994 40.985,54.994 28.985,54.994 33.985,46.994 		"/>
		<polygon style="fill:#6FDAF1;" points="33.985,46.994 28.985,54.994 32.84,54.994 40.839,46.994 		"/>
		<path style="fill:#F3B607;" d="M82,37c0,0.552-0.448,1-1,1H52c-0.552,0-1-0.448-1-1s0.448-1,1-1h29C81.552,36,82,36.448,82,37z"/>
		<path style="fill:#F3B607;" d="M82,44c0,0.552-0.448,1-1,1H52c-0.552,0-1-0.448-1-1s0.448-1,1-1h29C81.552,43,82,43.448,82,44z"/>
		<path style="fill:#F3B607;" d="M82,51c0,0.552-0.448,1-1,1H52c-0.552,0-1-0.448-1-1s0.448-1,1-1h29C81.552,50,82,50.448,82,51z"/>
		<path style="fill:#F3B607;" d="M82,58c0,0.552-0.448,1-1,1H52c-0.552,0-1-0.448-1-1s0.448-1,1-1h29C81.552,57,82,57.448,82,58z"/>
	</g>
</g>
</svg>
