<?xml version="1.0" encoding="iso-8859-1"?>
<!-- Generator: Adobe Illustrator 17.1.0, SVG Export Plug-In . SVG Version: 6.00 Build 0)  -->
<!DOCTYPE svg PUBLIC "-//W3C//DTD SVG 1.0//EN" "http://www.w3.org/TR/2001/REC-SVG-20010904/DTD/svg10.dtd">
<svg version="1.0" xmlns="http://www.w3.org/2000/svg" xmlns:xlink="http://www.w3.org/1999/xlink" x="0px" y="0px" width="110px"
	 height="110px" viewBox="0 0 110 110" style="enable-background:new 0 0 110 110;" xml:space="preserve">
<g id="Artboard">
</g>
<g id="Multicolor">
	<circle style="fill:#32BEA6;" cx="55" cy="55" r="55"/>
	<g>
		<path style="fill:#FACB1B;" d="M43,67V49.095C43,48.543,42.552,48,42,48h-4.975c-2.365,0-4.427,1.705-5.001,4L29,59
			c0,0-4,3.417-4,5.236V67v6h60v-6H43z"/>
		<path style="fill:#FBE158;" d="M43,51.058v-1.962C43,48.543,42.552,48,42,48h-4.975c-2.365,0-4.427,1.705-5.001,4L29,59
			c0,0-4,3.417-4,5.236V67v2.058L43,51.058z"/>
		<path style="fill:#F3B607;" d="M85,74c0,1.657-1.343,3-3,3H25c-1.105,0-2-0.895-2-2s0.895-2,2-2h60V74z"/>
		<path style="fill:#F37A10;" d="M29,73h-4v-6h2c1.105,0,2,0.895,2,2V73z"/>
		<rect x="35" y="63" style="fill:#F3B607;" width="6" height="2"/>
		<g>
			<circle style="fill:#3E3E3F;" cx="76" cy="76" r="7"/>
			<circle style="fill:#CFD3D4;" cx="76" cy="76" r="2.8"/>
		</g>
		<polygon style="fill:#0484AB;" points="79,59 75,63 71,59 67,63 63,59 59,63 55,59 51,63 47,59 43,63 43,67 87,67 87,59 83,63 		
			"/>
		<path style="fill:#059BBF;" d="M45,34h40c1.104,0,2,0.896,2,2v2v21l-4,4l-4-4l-4,4l-4-4l-4,4l-4-4l-4,4l-4-4l-4,4l-4-4l-4,4V36
			C43,34.896,43.896,34,45,34z"/>
		<circle style="fill:#3E3E3F;" cx="35" cy="76" r="7"/>
		<circle style="fill:#CFD3D4;" cx="35" cy="76" r="2.8"/>
		<path style="fill:#40C9E7;" d="M31,59h10v-9h-4.491C35,50,34.245,51.141,34,52L31,59z"/>
		<path style="fill:#6FDAF1;" d="M41,50h-4.491C35,50,34.245,51.142,34,52l-3,7h4.057L41,53.058V50z"/>
		<path style="fill:#21B2D1;" d="M60.208,34H45c-1.104,0-2,0.896-2,2v15.208L60.208,34z"/>
	</g>
</g>
</svg>
