<?xml version="1.0" encoding="iso-8859-1"?>
<!-- Generator: Adobe Illustrator 17.1.0, SVG Export Plug-In . SVG Version: 6.00 Build 0)  -->
<!DOCTYPE svg PUBLIC "-//W3C//DTD SVG 1.0//EN" "http://www.w3.org/TR/2001/REC-SVG-20010904/DTD/svg10.dtd">
<svg version="1.0" xmlns="http://www.w3.org/2000/svg" xmlns:xlink="http://www.w3.org/1999/xlink" x="0px" y="0px" width="110px"
	 height="110px" viewBox="0 0 110 110" style="enable-background:new 0 0 110 110;" xml:space="preserve">
<g id="Artboard">
</g>
<g id="Multicolor">
	<circle style="fill:#FABC3D;" cx="55" cy="55" r="55"/>
	<g>
		<path style="fill:#DF2C2C;" d="M64,42l-10,4c-3.226,0-7.235,0-9.345,0c-3.463,0-6.633,1.957-8.182,5.054
			c-0.316,0.631-0.282,1.38,0.089,1.98c0.371,0.6,1.026,0.965,1.731,0.965H41l-8,12h-4c-2.209,0-4,1.791-4,4v8h53V42H64z"/>
		<g>
			<path style="fill:#F0F1F1;" d="M55,78H25c-1.105,0-2,0.895-2,2v1c0,1.105,0.895,2,2,2h30h32v-5H55z"/>
		</g>
		<g>
			<circle style="fill:#3E3E3F;" cx="34" cy="81" r="6"/>
		</g>
		<g>
			<circle style="fill:#EBEBEC;" cx="34" cy="81" r="3"/>
		</g>
		<g>
			<g>
				<path style="fill:#FFFFFF;" d="M57,66h-4V36c0-1.104,0.896-2,2-2h5v4h-3V66z"/>
			</g>
		</g>
		<g>
			<circle style="fill:#3E3E3F;" cx="78.2" cy="81" r="6"/>
		</g>
		<g>
			<circle style="fill:#EBEBEC;" cx="78.2" cy="81" r="3"/>
		</g>
		<g>
			<path style="fill:#DADDDE;" d="M51,68c0-1.105,0.895-2,2-2h4c1.105,0,2,0.895,2,2v10h-8V68z"/>
		</g>
		<g>
			<rect x="61" y="56" style="fill:#6FDAF1;" width="6" height="6"/>
		</g>
		<g>
			<rect x="69" y="56" style="fill:#6FDAF1;" width="6" height="6"/>
		</g>
		<g>
			<circle style="fill:#3E3E3F;" cx="63.8" cy="81" r="6"/>
		</g>
		<g>
			<circle style="fill:#EBEBEC;" cx="63.8" cy="81" r="3"/>
		</g>
		<g>
			<path style="fill:#FFFFFF;" d="M25,78c-1.104,0-2,0.896-2,2v1c0,0.664,0.327,1.247,0.824,1.611L28.435,78H25z"/>
		</g>
		<g>
			<path style="fill:#FA5655;" d="M41,54l-8,12h-4c-2.209,0-4,1.791-4,4v8h3.435l24-24H41z"/>
		</g>
		<g>
			<polygon style="fill:#40C9E7;" points="50,56 50,66 38,66 44,56 			"/>
		</g>
		<g>
			<polygon style="fill:#6FDAF1;" points="50,56 44,56 38,66 40.435,66 50,56.435 			"/>
		</g>
	</g>
</g>
</svg>
