<?xml version="1.0" encoding="iso-8859-1"?>
<!-- Generator: Adobe Illustrator 17.1.0, SVG Export Plug-In . SVG Version: 6.00 Build 0)  -->
<!DOCTYPE svg PUBLIC "-//W3C//DTD SVG 1.0//EN" "http://www.w3.org/TR/2001/REC-SVG-20010904/DTD/svg10.dtd">
<svg version="1.0" xmlns="http://www.w3.org/2000/svg" xmlns:xlink="http://www.w3.org/1999/xlink" x="0px" y="0px" width="110px"
	 height="110px" viewBox="0 0 110 110" style="enable-background:new 0 0 110 110;" xml:space="preserve">
<g id="Artboard">
</g>
<g id="Multicolor">
	<circle style="fill:#32BEA6;" cx="55" cy="55" r="55"/>
	<g>
		<g>
			<path style="fill:#DF2C2C;" d="M39,31v14h-4V29c0-3.31,2.69-6,6-6h28c3.31,0,6,2.69,6,6v16h-4V31H39z"/>
		</g>
		<g>
			<path style="fill:#BF0302;" d="M75,55V45V29c0-3.31-2.69-6-6-6H41c-3.31,0-6,2.69-6,6v16v10c-2.61,0-4.55,0.66-6,1.7
				c-0.9,0.64-1.61,1.43-2.17,2.3c-1.21,1.88-1.7,4.12-1.86,6C24.75,67.26,25,69,25,69h60C85,69,87,55,75,55z M71,31v12H39V31H71z"
				/>
		</g>
		<g>
			<path style="fill:#DF2C2C;" d="M39,43V31h16.673l8-8H41c-3.31,0-6,2.689-6,6v16h4V43z"/>
		</g>
		<g>
			<rect x="39" y="31" style="fill:#40C9E7;" width="32" height="12"/>
		</g>
		<g>
			<path style="fill:#E2E4E5;" d="M75,45c0-1.105,0.895-2,2-2h4c1.105,0,2,0.895,2,2v14h-8V45z"/>
		</g>
		<g>
			<g>
				<path style="fill:#FFFFFF;" d="M77,43h4V31h6v-4h-8c-1.104,0-2,0.896-2,2V43z"/>
			</g>
		</g>
		<g>
			<path style="fill:#E2E4E5;" d="M35,45c0-1.105-0.895-2-2-2h-4c-1.105,0-2,0.895-2,2v14h8V45z"/>
		</g>
		<g>
			<path style="fill:#F0F1F1;" d="M87,77c0,1.105-0.895,2-2,2H25c-1.105,0-2-0.895-2-2v-6c0-1.105,0.895-2,2-2h60
				c1.105,0,2,0.895,2,2V77z"/>
		</g>
		<g>
			<path style="fill:#DF2C2C;" d="M85,69H25c0,0-0.25-1.74-0.03-4c0.515-6.048,3.731-10,10.03-10V45c0-1.1,0.9-2,2-2h36
				c1.1,0,2,0.9,2,2v10C87,55,85,69,85,69z"/>
		</g>
		<g>
			<path style="fill:#FBE158;" d="M75,59v6h10.03c-0.16-1.88-0.65-4.12-1.86-6H75z"/>
		</g>
		<g>
			<path style="fill:#F3B607;" d="M81,59v6h4.03c-0.16-1.88-0.65-4.12-1.86-6H81z"/>
		</g>
		<g>
			<g>
				<path style="fill:#FFFFFF;" d="M33,43h-4V31h-6v-4h8c1.104,0,2,0.896,2,2V43z"/>
			</g>
		</g>
		<g>
			<path style="fill:#3E3E3F;" d="M37,79H27v6c0,1.105,0.895,2,2,2h6c1.105,0,2-0.895,2-2V79z"/>
		</g>
		<g>
			<path style="fill:#3E3E3F;" d="M83,79H73v6c0,1.105,0.895,2,2,2h6c1.105,0,2-0.895,2-2V79z"/>
		</g>
		<g>
			<path style="fill:#FFFFFF;" d="M85,69H25c-1.104,0-2,0.896-2,2v3h64v-3C87,69.896,86.104,69,85,69z"/>
		</g>
		<g>
			<polygon style="fill:#6FDAF1;" points="39,31 39,43 43.673,43 55.673,31 			"/>
		</g>
		<g>
			<path style="fill:#FBE158;" d="M35,59v6H24.97c0.16-1.88,0.65-4.12,1.86-6H35z"/>
		</g>
		<g>
			<path style="fill:#F3B607;" d="M29.03,59v6H25c0.16-1.88,0.65-4.12,1.86-6H29.03z"/>
		</g>
		<g>
			<polygon style="fill:#E2E4E5;" points="70,69 40,69 40,52 46,47 64,47 70,52 			"/>
		</g>
		<g>
			<path style="fill:#9E9FA0;" d="M48,65c0,0.552-0.448,1-1,1s-1-0.448-1-1v-9c0-0.552,0.448-1,1-1s1,0.448,1,1V65z"/>
		</g>
		<g>
			<path style="fill:#9E9FA0;" d="M52,65c0,0.552-0.448,1-1,1s-1-0.448-1-1V52c0-0.552,0.448-1,1-1s1,0.448,1,1V65z"/>
		</g>
		<g>
			<path style="fill:#9E9FA0;" d="M56,65c0,0.552-0.448,1-1,1s-1-0.448-1-1V52c0-0.552,0.448-1,1-1s1,0.448,1,1V65z"/>
		</g>
		<g>
			<path style="fill:#9E9FA0;" d="M60,65c0,0.552-0.448,1-1,1s-1-0.448-1-1V52c0-0.552,0.448-1,1-1s1,0.448,1,1V65z"/>
		</g>
		<g>
			<path style="fill:#9E9FA0;" d="M64,65c0,0.552-0.448,1-1,1s-1-0.448-1-1v-9c0-0.552,0.448-1,1-1s1,0.448,1,1V65z"/>
		</g>
		<g>
			<path style="fill:#FA5655;" d="M43.645,43H37c-1.1,0-2,0.9-2,2v6.645L43.645,43z"/>
		</g>
	</g>
</g>
</svg>
