<?xml version="1.0" encoding="iso-8859-1"?>
<!-- Generator: Adobe Illustrator 17.1.0, SVG Export Plug-In . SVG Version: 6.00 Build 0)  -->
<!DOCTYPE svg PUBLIC "-//W3C//DTD SVG 1.0//EN" "http://www.w3.org/TR/2001/REC-SVG-20010904/DTD/svg10.dtd">
<svg version="1.0" xmlns="http://www.w3.org/2000/svg" xmlns:xlink="http://www.w3.org/1999/xlink" x="0px" y="0px" width="110px"
	 height="110px" viewBox="0 0 110 110" style="enable-background:new 0 0 110 110;" xml:space="preserve">
<g id="Artboard">
</g>
<g id="Multicolor">
	<circle style="fill:#E04F5F;" cx="55" cy="55" r="55"/>
	<g>
		<rect x="58" y="42" style="fill:#F99134;" width="2" height="2"/>
		<rect x="50" y="42" style="fill:#F99134;" width="2" height="2"/>
		<rect x="42" y="42" style="fill:#F99134;" width="2" height="2"/>
		<rect x="41" y="40" style="fill:#FBE158;" width="4" height="2"/>
		<rect x="49" y="40" style="fill:#FBE158;" width="4" height="2"/>
		<rect x="57" y="40" style="fill:#FBE158;" width="4" height="2"/>
		<path style="fill:#F3B607;" d="M83,33c-1.396,0-2.49,2.701-4,6.254C76.564,44.982,73.617,49,67,49H29.18
			c-0.731-1.723-1.881-3-3.18-3h-3v14h3c1.299,0,2.449-1.277,3.18-3h4.584C33.277,58.242,33,59.588,33,61c0,6.065,4.935,11,11,11h14
			c6.065,0,11-4.935,11-11c0-1.392-0.27-2.718-0.744-3.944c5.715,0.497,8.244,4.441,10.744,9.69C80.693,70.3,81.765,73,83,73
			c1.657,0,4-10.059,4-20S84.657,33,83,33z M58,68H44c-3.86,0-7-3.14-7-7c0-1.487,0.47-2.865,1.264-4h25.473
			C64.53,58.135,65,59.513,65,61C65,64.86,61.86,68,58,68z"/>
		<path style="fill:#FBE158;" d="M83,33c-1.396,0-2.49,2.701-4,6.254C76.564,44.982,73.617,49,67,49h-6v-4c0-0.552-0.448-1-1-1h-2
			c-0.552,0-1,0.448-1,1v4h-4v-4c0-0.552-0.448-1-1-1h-2c-0.552,0-1,0.448-1,1v4h-4v-4c0-0.552-0.448-1-1-1h-2c-0.552,0-1,0.448-1,1
			v4H29.18c-0.731-1.723-1.881-3-3.18-3h-3v7h64C87,43.059,84.657,33,83,33z"/>
		<path style="fill:#FACB1B;" d="M61,73c0,1.105-0.895,2-2,2s-2-0.895-2-2V57h4V73z"/>
		<path style="fill:#FACB1B;" d="M53,73c0,1.105-0.895,2-2,2s-2-0.895-2-2V57h4V73z"/>
		<path style="fill:#FACB1B;" d="M45,73c0,1.105-0.895,2-2,2s-2-0.895-2-2V57h4V73z"/>
	</g>
</g>
</svg>
