<?xml version="1.0" encoding="iso-8859-1"?>
<!-- Generator: Adobe Illustrator 17.1.0, SVG Export Plug-In . SVG Version: 6.00 Build 0)  -->
<!DOCTYPE svg PUBLIC "-//W3C//DTD SVG 1.0//EN" "http://www.w3.org/TR/2001/REC-SVG-20010904/DTD/svg10.dtd">
<svg version="1.0" xmlns="http://www.w3.org/2000/svg" xmlns:xlink="http://www.w3.org/1999/xlink" x="0px" y="0px" width="110px"
	 height="110px" viewBox="0 0 110 110" style="enable-background:new 0 0 110 110;" xml:space="preserve">
<g id="Artboard">
</g>
<g id="Multicolor">
	<circle style="fill:#FABC3D;" cx="55" cy="55" r="55"/>
	<g>
		<g>
			<path style="fill:#3E3E3F;" d="M65,69h12v14c0,2.209-1.791,4-4,4h-4c-2.209,0-4-1.791-4-4V69z"/>
		</g>
		<g>
			<path style="fill:#3E3E3F;" d="M45,69H33v14c0,2.209,1.791,4,4,4h4c2.209,0,4-1.791,4-4V69z"/>
		</g>
		<g>
			<path style="fill:#5B5C5F;" d="M39,69h-6v14c0,2.209,1.791,4,4,4h2V69z"/>
		</g>
		<g>
			<path style="fill:#5B5C5F;" d="M71,69h-6v14c0,2.209,1.791,4,4,4h2V69z"/>
		</g>
		<g>
			<polygon style="fill:#6FDAF1;" points="37,51 47.723,51 65.723,33 41,33 			"/>
		</g>
		<g>
			<path style="fill:#F0F1F1;" d="M77,44c0-0.552,0.448-1,1-1h3c0.552,0,1,0.448,1,1v6c0,0.552-0.448,1-1,1h-4V44z"/>
		</g>
		<g>
			<path style="fill:#BF0302;" d="M75,63h-2v10h6v-6C79,64.791,77.209,63,75,63z"/>
		</g>
		<g>
			<path style="fill:#BF0302;" d="M37,63h-2c-2.209,0-4,1.791-4,4v6h6V63z"/>
		</g>
		<g>
			<path style="fill:#DF2C2C;" d="M37,51h36v24c0,2.209-1.791,4-4,4H41c-2.209,0-4-1.791-4-4V51z"/>
		</g>
		<g>
			<polygon style="fill:#3E3E3F;" points="72.556,49 73,51 77,51 77,49 			"/>
		</g>
		<g>
			<path style="fill:#F0F1F1;" d="M33,44c0-0.552-0.448-1-1-1h-3c-0.552,0-1,0.448-1,1v6c0,0.552,0.448,1,1,1h4V44z"/>
		</g>
		<g>
			<polygon style="fill:#3E3E3F;" points="37.444,49 37,51 33,51 33,49 			"/>
		</g>
		<g>
			<circle style="fill:#FACB1B;" cx="71" cy="63.125" r="4"/>
		</g>
		<path style="fill:#40C9E7;" d="M55,33c-5.239,0-10.302,1.031-14.649,2.922L37,51h36l-3.35-15.075C65.301,34.034,60.232,33,55,33z"
			/>
		<path style="fill:#FA5655;" d="M55,29c4.627,0,9.161,0.733,13.278,2.108l-2.779-3.914c-0.94-1.324-2.465-2.109-4.088-2.105
			l-12.845,0.03c-1.611,0.004-3.121,0.783-4.057,2.094l-2.779,3.89C45.843,29.73,50.372,29,55,29z"/>
		<g>
			<g>
				<path style="fill:#E2E4E5;" d="M34.098,37.049c-0.574-0.943-0.276-2.174,0.667-2.749C40.373,30.882,47.56,29,55,29
					c7.334,0,14.44,1.834,20.013,5.165c0.948,0.567,1.257,1.795,0.69,2.743c-0.567,0.947-1.796,1.258-2.743,0.69
					C68,34.633,61.621,33,55,33c-6.717,0-13.164,1.675-18.153,4.716C35.908,38.288,34.675,37.995,34.098,37.049z"/>
			</g>
		</g>
		<g>
			<polygon style="fill:#FA5655;" points="47.723,51 37,51 37,61.723 			"/>
		</g>
		<g>
			<path style="fill:#FFFFFF;" d="M55,29c-7.44,0-14.627,1.882-20.235,5.3c-0.943,0.575-1.241,1.806-0.667,2.749
				c0.577,0.946,1.811,1.239,2.749,0.667C41.836,34.675,48.283,33,55,33c3.291,0,6.521,0.405,9.548,1.175l3.224-3.224
				C63.789,29.682,59.439,29,55,29z"/>
		</g>
		<g>
			<circle style="fill:#FACB1B;" cx="39" cy="63.125" r="4"/>
		</g>
		<g>
			<path style="fill:#3E3E3F;" d="M49,69h12v14c0,2.209-1.791,4-4,4h-4c-2.209,0-4-1.791-4-4V69z"/>
		</g>
		<g>
			<path style="fill:#5B5C5F;" d="M55,69h-6v14c0,2.209,1.791,4,4,4h2V69z"/>
		</g>
		<g>
			<path style="fill:#FA5655;" d="M64,67c0,0-4.029,4-9,4s-9-4-9-4s2-6,9-6S64,67,64,67z"/>
		</g>
		<g>
			<circle style="fill:#FACB1B;" cx="55" cy="55" r="6"/>
		</g>
	</g>
</g>
</svg>
