<?xml version="1.0" encoding="iso-8859-1"?>
<!-- Generator: Adobe Illustrator 17.1.0, SVG Export Plug-In . SVG Version: 6.00 Build 0)  -->
<!DOCTYPE svg PUBLIC "-//W3C//DTD SVG 1.0//EN" "http://www.w3.org/TR/2001/REC-SVG-20010904/DTD/svg10.dtd">
<svg version="1.0" xmlns="http://www.w3.org/2000/svg" xmlns:xlink="http://www.w3.org/1999/xlink" x="0px" y="0px" width="110px"
	 height="110px" viewBox="0 0 110 110" style="enable-background:new 0 0 110 110;" xml:space="preserve">
<g id="Artboard">
</g>
<g id="Multicolor">
	<circle style="fill:#32BEA6;" cx="55" cy="55" r="55"/>
	<g>
		<rect x="31" y="51" style="fill:#5B5C5F;" width="48" height="4"/>
		<rect x="27" y="35" style="fill:#3E3E3F;" width="56" height="16"/>
		<path style="fill:#818284;" d="M23,39v8c0,2.209,1.791,4,4,4V35C24.791,35,23,36.791,23,39z"/>
		<polygon style="fill:#FFFFFF;" points="75,31 67,23 35,23 35,63 75,63 		"/>
		<path style="fill:#818284;" d="M87,43c0,1.105-0.895,2-2,2h-2v-4h2C86.105,41,87,41.895,87,43z"/>
		<polygon style="fill:#E2E4E5;" points="67,23 67,31 75,31 		"/>
		<path style="fill:#F37A10;" d="M82.977,55H63.973c-0.4,0-0.77,0.24-0.92,0.62c-0.16,0.37-0.07,0.8,0.21,1.09l4.3,2.88
			c0.57,0.57,0.74,1.43,0.43,2.18c-0.31,0.74-1.04,1.23-1.85,1.23h-22.34c-0.81,0-1.54-0.49-1.85-1.23
			c-0.31-0.75-0.14-1.61,0.43-2.18l4.3-2.88c0.28-0.29,0.37-0.72,0.21-1.09c-0.15-0.38-0.52-0.62-0.92-0.62H26.977c0,0-1,32,10,32
			c10,0,18,0,18,0s8,0,18,0C83.977,87,82.977,55,82.977,55z"/>
		<path style="fill:#F99134;" d="M43.803,63c-0.81,0-1.54-0.49-1.85-1.23c-0.31-0.75-0.14-1.61,0.43-2.18l4.3-2.88
			c0.28-0.29,0.37-0.72,0.21-1.09c-0.15-0.38-0.52-0.62-0.92-0.62H26.977c0,0-0.785,25.359,6.81,30.915L56.702,63H43.803z"/>
		<path style="fill:#84462D;" d="M79.979,67H54.976H30c0,0-0.919,18,8.903,18c8.929,0,16.073,0,16.073,0s7.144,0,16.073,0
			C80.872,85,79.979,67,79.979,67z"/>
		<g>
			<circle style="fill:#FBEC9A;" cx="37" cy="73" r="2"/>
			<circle style="fill:#FBEC9A;" cx="41" cy="81" r="2"/>
			<circle style="fill:#FBEC9A;" cx="50.333" cy="81" r="2"/>
			<circle style="fill:#FBEC9A;" cx="59.667" cy="81" r="2"/>
			<circle style="fill:#FBEC9A;" cx="69" cy="81" r="2"/>
			<circle style="fill:#FBEC9A;" cx="46" cy="73" r="2"/>
			<circle style="fill:#FBEC9A;" cx="55" cy="73" r="2"/>
			<circle style="fill:#FBEC9A;" cx="64" cy="73" r="2"/>
			<circle style="fill:#FBEC9A;" cx="73" cy="73" r="2"/>
		</g>
	</g>
</g>
</svg>
