<?xml version="1.0" encoding="iso-8859-1"?>
<!-- Generator: Adobe Illustrator 17.1.0, SVG Export Plug-In . SVG Version: 6.00 Build 0)  -->
<!DOCTYPE svg PUBLIC "-//W3C//DTD SVG 1.0//EN" "http://www.w3.org/TR/2001/REC-SVG-20010904/DTD/svg10.dtd">
<svg version="1.0" xmlns="http://www.w3.org/2000/svg" xmlns:xlink="http://www.w3.org/1999/xlink" x="0px" y="0px" width="110px"
	 height="110px" viewBox="0 0 110 110" style="enable-background:new 0 0 110 110;" xml:space="preserve">
<g id="Artboard">
</g>
<g id="Multicolor">
	<circle style="fill:#E04F5F;" cx="55" cy="55" r="55"/>
	<g>
		<g>
			<path style="fill:#FBEC9A;" d="M55,56c-1.609,0-3.189-0.068-4.735-0.191L31,87h24h24L59.735,55.809
				C58.189,55.932,56.609,56,55,56z"/>
		</g>
		<g>
			<path style="fill:#CFD3D4;" d="M87,44c0,4-14.327,12-32,12s-32-8-32-12s14.327-12,32-12S87,40,87,44z"/>
		</g>
		<g>
			<path style="fill:#E2E4E5;" d="M23,44c0,4,14.327,12,32,12V32C37.327,32,23,40,23,44z"/>
		</g>
		<g>
			<path style="fill:#3E3E3F;" d="M86.982,44.17C86.987,44.113,87,44.055,87,44c0-4-14.327-12-32-12c-17.673,0-32,8-32,12
				c0,0.055,0.013,0.113,0.018,0.17C25.999,45.626,35.739,49.5,55,49.5S84.001,45.626,86.982,44.17z"/>
		</g>
		<g>
			<path style="fill:#F37A10;" d="M61.857,71.485c-0.284-0.474-0.898-0.627-1.372-0.343L57,73.234v-0.012
				c0.73-0.658,1.146-1.658,0.953-2.757c-0.213-1.212-1.204-2.208-2.416-2.419C53.644,67.718,52,69.167,52,71
				c0,0.885,0.39,1.672,1,2.222v0.012l-3.486-2.091c-0.473-0.284-1.088-0.131-1.372,0.343s-0.131,1.088,0.343,1.372L53,75.566v3.02
				l-3.707,3.707c-0.391,0.391-0.391,1.023,0,1.414c0.39,0.391,1.024,0.391,1.414,0l3.297-3.297c0.263-0.263,0.619-0.41,0.99-0.41
				h0.012c0.371,0,0.728,0.148,0.99,0.41l3.297,3.297c0.39,0.391,1.024,0.391,1.414,0c0.391-0.391,0.391-1.023,0-1.414L57,78.586
				v-3.02l4.514-2.708C61.988,72.573,62.142,71.959,61.857,71.485z"/>
		</g>
		<g>
			<path style="fill:#5B5C5F;" d="M23,44c0,0.055,0.013,0.113,0.018,0.17C25.999,45.626,35.739,49.5,55,49.5V32
				C37.327,32,23,40,23,44z"/>
		</g>
		<g>
			<circle style="fill:#FACB1B;" cx="34" cy="42" r="2"/>
		</g>
		<g>
			<circle style="fill:#FACB1B;" cx="44" cy="44" r="2"/>
		</g>
		<g>
			<circle style="fill:#F3B607;" cx="76" cy="42" r="2"/>
		</g>
		<g>
			<circle style="fill:#F3B607;" cx="66" cy="44" r="2"/>
		</g>
		<g>
			<g>
				<path style="fill:#40C9E7;" d="M55,23c-6.713,0-12.235,5.089-12.925,11.619C45.573,37.946,49.792,39,55,39
					c4.746,0,9.593-0.698,12.974-3.517C67.701,28.545,62.005,23,55,23z"/>
			</g>
		</g>
		<g>
			<path style="fill:#6FDAF1;" d="M42.075,34.619C45.573,37.946,49.792,39,55,39V23C48.287,23,42.765,28.089,42.075,34.619z"/>
		</g>
	</g>
</g>
</svg>
