<?xml version="1.0" encoding="iso-8859-1"?>
<!-- Generator: Adobe Illustrator 17.1.0, SVG Export Plug-In . SVG Version: 6.00 Build 0)  -->
<!DOCTYPE svg PUBLIC "-//W3C//DTD SVG 1.0//EN" "http://www.w3.org/TR/2001/REC-SVG-20010904/DTD/svg10.dtd">
<svg version="1.0" xmlns="http://www.w3.org/2000/svg" xmlns:xlink="http://www.w3.org/1999/xlink" x="0px" y="0px" width="110px"
	 height="110px" viewBox="0 0 110 110" style="enable-background:new 0 0 110 110;" xml:space="preserve">
<g id="Artboard">
</g>
<g id="Multicolor">
	<circle style="fill:#32BEA6;" cx="55" cy="55" r="55"/>
	<g>
		<g>
			<path style="fill:#F0F1F1;" d="M68.674,72.406c-1.019-0.955-1.469-2.378-1.181-3.746l3.369-16.003
				c0.074-0.353,0.334-0.64,0.678-0.748C73.641,51.245,77,47.062,77,42c0-4.1-2.469-7.619-6-9.163V23h-4v9c-8.796,0-12,8-12,8
				s-3.204-8-12-8v-9h-4v9.837C35.47,34.381,33,37.9,33,42c0,5.062,3.36,9.245,5.461,9.908c0.344,0.109,0.603,0.395,0.678,0.748
				l3.369,16.003c0.288,1.367-0.162,2.791-1.181,3.746C37.431,76.056,35,81.245,35,87h8h12h12h8
				C75,81.245,72.569,76.056,68.674,72.406z"/>
		</g>
		<g>
			<path style="fill:#FFFFFF;" d="M43,32v-9h-4v9.837C35.47,34.381,33,37.9,33,42c0,5.062,3.36,9.245,5.46,9.908
				c0.344,0.109,0.604,0.395,0.678,0.749l3.369,16.003c0.288,1.367-0.162,2.791-1.181,3.746C37.431,76.056,35,81.245,35,87h8h12V40
				C55,40,51.796,32,43,32z"/>
		</g>
	</g>
</g>
</svg>
