<?xml version="1.0" encoding="iso-8859-1"?>
<!-- Generator: Adobe Illustrator 17.1.0, SVG Export Plug-In . SVG Version: 6.00 Build 0)  -->
<!DOCTYPE svg PUBLIC "-//W3C//DTD SVG 1.0//EN" "http://www.w3.org/TR/2001/REC-SVG-20010904/DTD/svg10.dtd">
<svg version="1.0" xmlns="http://www.w3.org/2000/svg" xmlns:xlink="http://www.w3.org/1999/xlink" x="0px" y="0px" width="110px"
	 height="110px" viewBox="0 0 110 110" style="enable-background:new 0 0 110 110;" xml:space="preserve">
<g id="Artboard">
</g>
<g id="Multicolor">
	<circle style="fill:#25B7D3;" cx="55" cy="55" r="55"/>
	<g>
		<g>
			<path style="fill:#9CE5F4;" d="M80.806,48.154c-14.019,7.139-22.902,18.105-26.14,22.598C57.758,75.699,63.237,79,69.5,79
				C79.165,79,87,71.165,87,61.5C87,56.148,84.591,51.364,80.806,48.154z"/>
		</g>
		<g>
			<path style="fill:#9CE5F4;" d="M29.195,48.154c14.019,7.139,22.902,18.105,26.14,22.598C52.243,75.699,46.764,79,40.5,79
				C30.835,79,23,71.165,23,61.5C23,56.148,25.409,51.364,29.195,48.154z"/>
		</g>
		<path style="fill:#FFFFFF;" d="M79,46.833V30.5c0-0.828-0.672-1.5-1.5-1.5S76,29.672,76,30.5v16.849
			c-9.891,5.742-16.913,13.015-21,18.021c-4.087-5.006-11.109-12.279-21-18.021V30.5c0-0.828-0.672-1.5-1.5-1.5S31,29.672,31,30.5
			v16.333c-0.626,0.406-1.236,0.835-1.81,1.317C39.566,53.435,48.815,61.827,55,70.3c6.208-8.505,15.455-16.875,25.81-22.15
			C80.236,47.668,79.626,47.24,79,46.833z"/>
	</g>
</g>
</svg>
