<?xml version="1.0" encoding="iso-8859-1"?>
<!-- Generator: Adobe Illustrator 17.1.0, SVG Export Plug-In . SVG Version: 6.00 Build 0)  -->
<!DOCTYPE svg PUBLIC "-//W3C//DTD SVG 1.0//EN" "http://www.w3.org/TR/2001/REC-SVG-20010904/DTD/svg10.dtd">
<svg version="1.0" xmlns="http://www.w3.org/2000/svg" xmlns:xlink="http://www.w3.org/1999/xlink" x="0px" y="0px" width="110px"
	 height="110px" viewBox="0 0 110 110" style="enable-background:new 0 0 110 110;" xml:space="preserve">
<g id="Artboard">
</g>
<g id="Multicolor">
	<circle style="fill:#25B7D3;" cx="55" cy="55" r="55"/>
	<g>
		<path style="fill:#692E19;" d="M54,32h-4.098c-4.772,0-9.064,2.906-10.837,7.337L34,52l-5,2.743
			c-1.898,0.759-3.143,2.598-3.143,4.643V61v10H54h33V32H54z"/>
		<path style="fill:#84462D;" d="M52,32h-2.098c-4.772,0-9.064,2.906-10.836,7.337L34,52l-5,2.743
			c-1.898,0.759-3.143,2.598-3.143,4.643V61v6.006L52,40.863V32z"/>
		<polygon style="fill:#40C9E7;" points="38,52 52,52 52,40 43,40 		"/>
		<path style="fill:#D4A263;" d="M54,71V54h33v-2H54V32h-2v20v19H25.857H25.5c-1.381,0-2.5,1.119-2.5,2.5s1.119,2.5,2.5,2.5h58.645
			C85.722,76,87,74.657,87,73v-2H54z"/>
		<g>
			<path style="fill:#F3B607;" d="M70,47.546l-5-3v-7l0.677-0.677c2.387-2.387,6.258-2.387,8.646,0L75,37.546v7L70,47.546z"/>
			<path style="fill:#FACB1B;" d="M65.677,36.781L65,37.458v7l0.146,0.088l8.4-8.4C71.157,34.435,67.823,34.635,65.677,36.781z"/>
		</g>
		<path style="fill:#3E3E3F;" d="M39.686,73.871c1.678,5.678-3.646,10.762-9.356,8.635c-1.761-0.656-3.179-2.074-3.836-3.836
			c-2.128-5.709,2.956-11.034,8.635-9.356C37.308,69.958,39.042,71.692,39.686,73.871z"/>
		<circle style="fill:#CFD3D4;" cx="33" cy="76" r="2.8"/>
		<polygon style="fill:#6FDAF1;" points="52,40 43,40 38,52 40.863,52 52,40.863 		"/>
		<circle style="fill:#3E3E3F;" cx="74" cy="76" r="7"/>
		<circle style="fill:#CFD3D4;" cx="74" cy="76" r="2.8"/>
	</g>
</g>
</svg>
