<?xml version="1.0" encoding="iso-8859-1"?>
<!-- Generator: Adobe Illustrator 17.1.0, SVG Export Plug-In . SVG Version: 6.00 Build 0)  -->
<!DOCTYPE svg PUBLIC "-//W3C//DTD SVG 1.0//EN" "http://www.w3.org/TR/2001/REC-SVG-20010904/DTD/svg10.dtd">
<svg version="1.0" xmlns="http://www.w3.org/2000/svg" xmlns:xlink="http://www.w3.org/1999/xlink" x="0px" y="0px" width="110px"
	 height="110px" viewBox="0 0 110 110" style="enable-background:new 0 0 110 110;" xml:space="preserve">
<g id="Artboard">
</g>
<g id="Multicolor">
	<g>
		<circle style="fill:#32BEA6;" cx="55" cy="55" r="55"/>
	</g>
	<g>
		<g>
			<path style="fill:#0484AB;" d="M30.043,73.018c-1.345,0.588-2.428,1.65-3.043,2.983l-4,11h32l-12-19L30.043,73.018z"/>
			<path style="fill:#0484AB;" d="M83,76.001c-0.615-1.333-1.698-2.394-3.043-2.983L67,68.001l-12,19h32L83,76.001z"/>
		</g>
		<g>
			<polygon style="fill:#F3B607;" points="41,64.001 45,62.001 45,67.004 43.979,68.083 			"/>
		</g>
		<g>
			<polygon style="fill:#F3B607;" points="69,64.001 65,62.001 65,67.004 66.062,68 			"/>
		</g>
		<path style="fill:#F7B4B4;" d="M65,63l-5.105,3.996C59.326,67.634,58.511,68,57.655,68H55h-2.655c-0.856,0-1.671-0.365-2.24-1.004
			L45,63v4.004l-1.306,0.653L55,83.001l11.306-15.344L65,67.004V63z M55,75.007l-0.008-0.006c0.003,0,0.005,0,0.008,0
			s0.005,0,0.008,0L55,75.007z"/>
		<path style="fill:#FBC8C8;" d="M50.105,66.995L45,63v4.003l-1.306,0.653L55,83v-7.994L54.992,75c0.003,0,0.005,0,0.008,0v-7
			h-2.655C51.489,68,50.674,67.634,50.105,66.995z"/>
		<g>
			<path style="fill:#FBC8C8;" d="M55,28.036C42.024,28.036,41.018,36,41,45v8l4,10l5.105,3.996C50.674,67.634,51.489,68,52.345,68
				H55h2.655c0.856,0,1.671-0.365,2.24-1.004L65,63l4-10v-8C68.982,36,67.976,28.036,55,28.036z"/>
		</g>
		<g>
			<path style="fill:#FBD7D7;" d="M41,45v8l4,10l5.105,3.996C50.674,67.635,51.489,68,52.345,68H55V28.037
				C42.024,28.037,41.018,36,41,45z"/>
		</g>
		<g>
			<path style="fill:#3E3E3F;" d="M51.994,47.034c0-1.104-0.896-2-2-2c-0.002,0-0.004,0-0.006,0
				c0.001,0.021,0.006,0.041,0.006,0.062c0,1.103-0.892,1.996-1.994,2c0.033,1.075,0.91,1.938,1.994,1.938
				C51.098,49.034,51.994,48.138,51.994,47.034z"/>
		</g>
		<g>
			<path style="fill:#3E3E3F;" d="M61.987,47.034c0-1.104-0.896-2-2-2c-0.002,0-0.004,0-0.006,0
				c0.001,0.021,0.006,0.041,0.006,0.062c0,1.103-0.892,1.996-1.994,2c0.033,1.075,0.91,1.938,1.994,1.938
				C61.092,49.034,61.987,48.138,61.987,47.034z"/>
		</g>
		<g>
			<path style="fill:#F79392;" d="M49.994,57.034h10c0,0,0,3-5,3S49.994,57.034,49.994,57.034z"/>
		</g>
		<g>
			<polygon style="fill:#FACB1B;" points="35.5,87.001 44,76.001 41,73.001 32.8,87.001 			"/>
		</g>
		<g>
			<polygon style="fill:#FBE158;" points="55,83.001 41,64.001 37,69.001 55,87.001 			"/>
		</g>
		<g>
			<path style="fill:#FFFFFF;" d="M50,87.001h-1l-1-7.5c0-0.828,0.672-1.5,1.5-1.5s1.5,0.672,1.5,1.5L50,87.001z"/>
		</g>
		<g>
			<polygon style="fill:#FACB1B;" points="74.5,87.001 66,76.001 69,73.001 77.2,87.001 			"/>
		</g>
		<g>
			<polygon style="fill:#FBE158;" points="55,83.001 69,64.001 73,69.001 55,87.001 			"/>
		</g>
		<g>
			<path style="fill:#FFFFFF;" d="M60,87.001h1l1-7.5c0-0.828-0.672-1.5-1.5-1.5s-1.5,0.672-1.5,1.5L60,87.001z"/>
		</g>
		<g>
			<path style="fill:#0484AB;" d="M55.011,24.001c-17,0-16,16-16,16l16-1l16,1C71.011,40.001,72.011,24.001,55.011,24.001z"/>
		</g>
		<g>
			<path style="fill:#059BBF;" d="M55.038,37.358c0,0,0-0.001,0-0.001c-0.009,0-0.018,0-0.027,0v5c5.7,0.007,8.585,1.965,10,2.644
				c3.429,1.645,6-3,6-6C71.204,39.067,64.346,37.431,55.038,37.358z"/>
		</g>
		<g>
			<path style="fill:#059BBF;" d="M39.011,40.001l16-1v-15C38.011,24.001,39.011,40.001,39.011,40.001z"/>
		</g>
		<g>
			<path style="fill:#21B2D1;" d="M54.984,37.358c0,0,0-0.001,0-0.001c0.009,0,0.018,0,0.027,0v5c-5.7,0.007-8.585,1.965-10,2.644
				c-3.429,1.645-6-3-6-6C38.818,39.067,45.676,37.431,54.984,37.358z"/>
		</g>
		<path style="fill:#3E3E3F;" d="M67.902,27.747c-2.727-2.856-6.706-4.455-11.832-4.754l0-0.057
			c-0.345-0.002-0.669,0.02-1.004,0.029c-0.336-0.009-0.66-0.031-1.004-0.029v0.057c-5.126,0.299-9.105,1.898-11.832,4.754
			c-4.687,4.909-4.321,12.115-4.183,14.827l0.02,0.405l1.998-0.088l-0.021-0.419c-0.126-2.477-0.46-9.058,3.632-13.345
			c2.514-2.633,6.344-4.018,11.389-4.163c5.045,0.146,8.875,1.53,11.389,4.163c4.092,4.287,3.758,10.868,3.632,13.345l-0.02,0.419
			l1.998,0.088l0.02-0.405C72.222,39.861,72.588,32.656,67.902,27.747z"/>
		<g>
			<g>
				<path style="fill:#FFFFFF;" d="M64,87.001h-1c0-6.881,2.506-9.925,5.159-13.147C71.366,69.959,75,65.546,75,53.001h1
					c0,12.904-3.755,17.464-7.069,21.488C66.285,77.703,64,80.478,64,87.001z"/>
			</g>
		</g>
		<g>
			<path style="fill:#3E3E3F;" d="M42,54.001c0,1.1-0.9,2-2,2h-2c-1.1,0-2-0.9-2-2v-10c0-1.1,0.9-2,2-2h2c1.1,0,2,0.9,2,2V54.001z"
				/>
		</g>
		<g>
			<path style="fill:#E2E4E5;" d="M36,44.001c-2.308,0.618-4,2.62-4,5c0,2.38,1.692,4.382,4,5V44.001z"/>
		</g>
		<g>
			<path style="fill:#5B5C5F;" d="M40,42.001h-2c-1.1,0-2,0.9-2,2v5h6v-5C42,42.901,41.1,42.001,40,42.001z"/>
		</g>
		<g>
			<path style="fill:#FFFFFF;" d="M36,44.001c-2.308,0.618-4,2.62-4,5h4V44.001z"/>
		</g>
		<g>
			<path style="fill:#3E3E3F;" d="M68,54.001c0,1.1,0.9,2,2,2h2c1.1,0,2-0.9,2-2v-10c0-1.1-0.9-2-2-2h-2c-1.1,0-2,0.9-2,2V54.001z"
				/>
		</g>
		<g>
			<path style="fill:#5B5C5F;" d="M70,42.001h2c1.1,0,2,0.9,2,2v5h-6v-5C68,42.901,68.9,42.001,70,42.001z"/>
		</g>
		<g>
			<path style="fill:#E2E4E5;" d="M74,44.001c2.308,0.618,4,2.62,4,5c0,2.38-1.692,4.382-4,5V44.001z"/>
		</g>
		<g>
			<path style="fill:#FFFFFF;" d="M74,44.001c2.308,0.618,4,2.62,4,5h-4V44.001z"/>
		</g>
	</g>
</g>
</svg>
