<?xml version="1.0" encoding="iso-8859-1"?>
<!-- Generator: Adobe Illustrator 17.1.0, SVG Export Plug-In . SVG Version: 6.00 Build 0)  -->
<!DOCTYPE svg PUBLIC "-//W3C//DTD SVG 1.0//EN" "http://www.w3.org/TR/2001/REC-SVG-20010904/DTD/svg10.dtd">
<svg version="1.0" xmlns="http://www.w3.org/2000/svg" xmlns:xlink="http://www.w3.org/1999/xlink" x="0px" y="0px" width="110px"
	 height="110px" viewBox="0 0 110 110" style="enable-background:new 0 0 110 110;" xml:space="preserve">
<g id="Artboard">
</g>
<g id="Multicolor">
	<g>
		<circle style="fill:#25B7D3;" cx="55" cy="55" r="55"/>
	</g>
	<g>
		<g>
			<polygon style="fill:#F3B607;" points="69,63.994 65,61.994 65,66.997 66.062,67.993 			"/>
		</g>
		<path style="fill:#AF7653;" d="M65,63l-5.105,3.996C59.326,67.635,58.511,68,57.655,68H55h-2.655c-0.856,0-1.671-0.365-2.24-1.004
			L45,63v3.997l-1.306,0.653L55,82.994L66.306,67.65L65,66.997V63z M55,75l-0.008-0.006c0.003,0,0.005,0,0.008,0s0.005,0,0.008,0
			L55,75z"/>
		<g>
			<path style="fill:#3E3E3F;" d="M30.043,73.011c-1.345,0.588-2.428,1.65-3.043,2.983l-4,11h32l-12-19L30.043,73.011z"/>
			<path style="fill:#3E3E3F;" d="M83,75.994c-0.615-1.333-1.698-2.394-3.043-2.983L67,67.994l-12,19h32L83,75.994z"/>
		</g>
		<g>
			<polygon style="fill:#F3B607;" points="41,63.994 45,61.994 45,66.997 43.979,68.077 			"/>
		</g>
		<path style="fill:#BF8662;" d="M50.105,66.989L45,62.993v4.003l-1.306,0.653L55,82.993v-7.994l-0.008-0.006
			c0.003,0,0.005,0,0.008,0v-7h-2.655C51.489,67.993,50.674,67.628,50.105,66.989z"/>
		<g>
			<polygon style="fill:#FACB1B;" points="35.5,86.994 44,75.994 41,72.994 32.8,86.994 			"/>
		</g>
		<g>
			<polygon style="fill:#FBE158;" points="55,82.994 41,63.994 37,68.994 55,86.994 			"/>
		</g>
		<g>
			<path style="fill:#FFFFFF;" d="M50,86.994h-1l-1-7.5c0-0.828,0.672-1.5,1.5-1.5s1.5,0.672,1.5,1.5L50,86.994z"/>
		</g>
		<g>
			<polygon style="fill:#FACB1B;" points="74.5,86.994 66,75.994 69,72.994 77.2,86.994 			"/>
		</g>
		<g>
			<polygon style="fill:#FBE158;" points="55,82.994 69,63.994 73,68.994 55,86.994 			"/>
		</g>
		<g>
			<path style="fill:#FFFFFF;" d="M60,86.994h1l1-7.5c0-0.828-0.672-1.5-1.5-1.5s-1.5,0.672-1.5,1.5L60,86.994z"/>
		</g>
		<path style="fill:#BF8662;" d="M70,45.03c-0.348,0-0.694,0-1,0V45l-3,1c0-8.494-0.446-11.418-1.862-12.141
			c-0.129-0.039-0.256-0.078-0.377-0.133C62.123,33.333,59.399,35,55,35s-7.123-1.667-8.761-1.274
			c-0.121,0.055-0.248,0.094-0.376,0.133C44.447,34.582,44,37.506,44,46l-3-0.944v7.938l4,10l5.105,3.996
			c0.569,0.639,1.384,1.004,2.24,1.004H55h2.655c0.856,0,1.671-0.365,2.24-1.004L65,62.994l3.193-7.982
			C71.039,54.821,72,50.511,72,47.252C72,46.141,71,45.03,70,45.03z"/>
		<path style="fill:#CC9978;" d="M46.239,33.726c-0.121,0.055-0.248,0.094-0.376,0.133C44.447,34.582,44,37.506,44,46l-3.083-0.97
			c-0.286,0-0.599,0-0.917,0c-1,0-2,1.111-2,2.222c0,3.259,0.961,7.568,3.807,7.76L45,62.994l5.105,3.996
			c0.569,0.639,1.384,1.004,2.24,1.004H55V35C50.601,35,47.877,33.333,46.239,33.726z"/>
		<path style="fill:#3E3E3F;" d="M69,35c-0.36,0-0.701,0.074-1.021,0.19c-0.267-0.702-0.605-1.348-0.99-1.96
			C67.605,32.681,68,31.89,68,31c0-1.657-1.343-3-3-3c-1.06,0-1.986,0.553-2.52,1.382c-1.274-0.567-2.774-0.96-4.5-1.177
			C57.984,28.136,58,28.071,58,28c0-1.657-1.343-3-3-3s-3,1.343-3,3c0,0.056,0.013,0.107,0.017,0.162
			c-1.752,0.19-3.289,0.548-4.588,1.089C46.884,28.496,46.002,28,45,28c-1.657,0-3,1.343-3,3c0,0.777,0.303,1.478,0.787,2.01
			c-0.427,0.643-0.789,1.335-1.08,2.082C41.479,35.038,41.245,35,41,35c-1.657,0-3,1.343-3,3c0,1.541,1.166,2.796,2.662,2.966
			c-0.032,1.28,0.019,2.623,0.16,4.034L44,46c0-8.494,0.447-11.418,1.863-12.141c0.128-0.039,0.256-0.078,0.376-0.133
			C47.877,33.333,50.601,35,55,35s7.123-1.667,8.761-1.274c0.121,0.055,0.248,0.094,0.377,0.133C65.554,34.582,66,37.506,66,46l3-1
			c0.14-1.399,0.013-2.731-0.018-4.002C68.988,40.998,68.994,41,69,41c1.657,0,3-1.343,3-3S70.657,35,69,35z"/>
		<g>
			<path style="fill:#3E3E3F;" d="M51.994,47.027c0-1.104-0.896-2-2-2c-0.002,0-0.004,0-0.006,0
				c0.001,0.021,0.006,0.041,0.006,0.062c0,1.103-0.892,1.996-1.994,2c0.033,1.075,0.91,1.938,1.994,1.938
				C51.098,49.027,51.994,48.132,51.994,47.027z"/>
		</g>
		<g>
			<path style="fill:#3E3E3F;" d="M61.987,47.027c0-1.104-0.896-2-2-2c-0.002,0-0.004,0-0.006,0
				c0.001,0.021,0.006,0.041,0.006,0.062c0,1.103-0.892,1.996-1.994,2c0.033,1.075,0.91,1.938,1.994,1.938
				C61.092,49.027,61.987,48.132,61.987,47.027z"/>
		</g>
		<g>
			<path style="fill:#84462D;" d="M49.994,57.027h10c0,0,0,3-5,3S49.994,57.027,49.994,57.027z"/>
		</g>
	</g>
</g>
</svg>
