<?xml version="1.0" encoding="iso-8859-1"?>
<!-- Generator: Adobe Illustrator 17.1.0, SVG Export Plug-In . SVG Version: 6.00 Build 0)  -->
<!DOCTYPE svg PUBLIC "-//W3C//DTD SVG 1.0//EN" "http://www.w3.org/TR/2001/REC-SVG-20010904/DTD/svg10.dtd">
<svg version="1.0" xmlns="http://www.w3.org/2000/svg" xmlns:xlink="http://www.w3.org/1999/xlink" x="0px" y="0px" width="110px"
	 height="110px" viewBox="0 0 110 110" style="enable-background:new 0 0 110 110;" xml:space="preserve">
<g id="Artboard">
</g>
<g id="Multicolor">
	<g>
		<circle style="fill:#FABC3D;" cx="55" cy="55" r="55"/>
	</g>
	<g>
		<g>
			<polygon style="fill:#0484AB;" points="69,63.994 65,61.994 65,66.997 66.062,67.993 			"/>
		</g>
		<path style="fill:#F7B4B4;" d="M65,63l-5.105,3.996C59.326,67.635,58.511,68,57.655,68H55h-2.655c-0.856,0-1.671-0.365-2.24-1.004
			L45,63v3.997l-1.306,0.653L55,82.994L66.306,67.65L65,66.997V63z M55,75l-0.008-0.006c0.003,0,0.005,0,0.008,0s0.005,0,0.008,0
			L55,75z"/>
		<g>
			<path style="fill:#059BBF;" d="M30.043,73.011c-1.345,0.588-2.428,1.65-3.043,2.983l-4,11h32l-12-19L30.043,73.011z"/>
			<path style="fill:#059BBF;" d="M83,75.994c-0.615-1.333-1.698-2.394-3.043-2.983L67,67.994l-12,19h32L83,75.994z"/>
		</g>
		<g>
			<polygon style="fill:#0484AB;" points="41,63.994 45,61.994 45,66.997 43.979,68.077 			"/>
		</g>
		<path style="fill:#FBC8C8;" d="M50.105,66.989L45,62.993v4.003l-1.306,0.653L55,82.993v-7.994l-0.008-0.006
			c0.003,0,0.005,0,0.008,0v-7h-2.655C51.489,67.993,50.674,67.628,50.105,66.989z"/>
		<g>
			<polygon style="fill:#40C9E7;" points="35.5,86.994 44,75.994 41,72.994 32.8,86.994 			"/>
		</g>
		<g>
			<polygon style="fill:#6FDAF1;" points="55,82.994 41,63.994 37,68.994 55,86.994 			"/>
		</g>
		<g>
			<path style="fill:#FFFFFF;" d="M50,86.994h-1l-1-7.5c0-0.828,0.672-1.5,1.5-1.5s1.5,0.672,1.5,1.5L50,86.994z"/>
		</g>
		<g>
			<polygon style="fill:#40C9E7;" points="74.5,86.994 66,75.994 69,72.994 77.2,86.994 			"/>
		</g>
		<g>
			<polygon style="fill:#6FDAF1;" points="55,82.994 69,63.994 73,68.994 55,86.994 			"/>
		</g>
		<g>
			<path style="fill:#FFFFFF;" d="M60,86.994h1l1-7.5c0-0.828-0.672-1.5-1.5-1.5s-1.5,0.672-1.5,1.5L60,86.994z"/>
		</g>
		<path style="fill:#FBC8C8;" d="M72,47.259c0-1.111-1-2.222-2-2.222s-1,1.111-1,1.111v-1.111c-0.018-9-1.024-15-14-15
			s-13.982,6-14,15V53l4,10l5.105,3.996C50.674,67.635,51.489,68,52.345,68H55h2.655c0.856,0,1.671-0.365,2.24-1.004L65,63
			l3.193-7.982C71.039,54.827,72,50.518,72,47.259z"/>
		<path style="fill:#FBD7D7;" d="M41,45.036v1.111c0,0,0-1.111-1-1.111s-2,1.111-2,2.222c0,3.259,0.961,7.568,3.807,7.76L45,63
			l5.105,3.996C50.674,67.635,51.489,68,52.345,68H55V30.036C42.024,30.036,41.018,36.036,41,45.036z"/>
		<g>
			<path style="fill:#3E3E3F;" d="M52,47.036c0-1.104-0.896-2-2-2c-0.002,0-0.004,0-0.006,0C49.995,45.058,50,45.078,50,45.099
				c0,1.103-0.892,1.996-1.994,2c0.033,1.075,0.91,1.938,1.994,1.938C51.104,49.036,52,48.141,52,47.036z"/>
		</g>
		<g>
			<path style="fill:#3E3E3F;" d="M61.994,47.036c0-1.104-0.896-2-2-2c-0.002,0-0.004,0-0.006,0
				c0.001,0.021,0.006,0.041,0.006,0.062c0,1.103-0.892,1.996-1.994,2c0.033,1.075,0.91,1.938,1.994,1.938
				C61.098,49.036,61.994,48.141,61.994,47.036z"/>
		</g>
		<g>
			<path style="fill:#F79392;" d="M50,57.036h10c0,0,0,3-5,3S50,57.036,50,57.036z"/>
		</g>
		<path style="fill:#84462D;" d="M61.033,26.036c-2,2-3,3-6-2c-3,5-4,4-6,2c-9,7-8,8.072-8,20.997l2,0.003c0-7.619,1-9,4.5-12
			c1.137,1.515,3.711,2.911,7.5,3c3.789-0.089,6.363-1.485,7.5-3c3.5,3,4.5,4.381,4.5,12l2-0.003
			C69.033,34.108,70.033,33.036,61.033,26.036z"/>
		<g>
			<path style="fill:#9C6144;" d="M55.033,24.036c-3,5-4,4-6,2c-9,7-8,8.072-8,20.997l2,0.003c0-7.619,1-9,4.5-12
				c1.137,1.515,3.711,2.911,7.5,3V24.036z"/>
		</g>
	</g>
</g>
</svg>
