<?xml version="1.0" encoding="iso-8859-1"?>
<!-- Generator: Adobe Illustrator 17.1.0, SVG Export Plug-In . SVG Version: 6.00 Build 0)  -->
<!DOCTYPE svg PUBLIC "-//W3C//DTD SVG 1.0//EN" "http://www.w3.org/TR/2001/REC-SVG-20010904/DTD/svg10.dtd">
<svg version="1.0" xmlns="http://www.w3.org/2000/svg" xmlns:xlink="http://www.w3.org/1999/xlink" x="0px" y="0px" width="110px"
	 height="110px" viewBox="0 0 110 110" style="enable-background:new 0 0 110 110;" xml:space="preserve">
<g id="Artboard">
</g>
<g id="Multicolor">
	<g>
		<circle style="fill:#FABC3D;" cx="55" cy="55" r="55"/>
	</g>
	<g>
		<g>
			<polygon style="fill:#CFD3D4;" points="69,63.994 65,61.994 65,66.997 66,67.994 			"/>
		</g>
		<g>
			<polygon style="fill:#F4D0A1;" points="54.99,86.984 55,87 55.01,86.984 55,86.994 			"/>
			<path style="fill:#F4D0A1;" d="M55,82.994L66.306,67.65L65,66.997v-4.003l-5.105,3.996c-0.569,0.639-1.384,1.004-2.24,1.004H55
				h-2.655c-0.856,0-1.671-0.365-2.24-1.004L45,62.994v4.003l-1.306,0.653L55,82.994z M55,74.994c0.002,0,0.005,0,0.008,0L55,75
				l-0.008-0.006C54.995,74.994,54.998,74.994,55,74.994z"/>
		</g>
		<g>
			<path style="fill:#3E3E3F;" d="M23,86.994l4-11c0.615-1.333,1.698-2.394,3.043-2.983L43,67.994l12,19H23z"/>
		</g>
		<g>
			<path style="fill:#3E3E3F;" d="M87,86.994l-4-11c-0.615-1.333-1.698-2.394-3.043-2.983L67,67.994l-12,19H87z"/>
		</g>
		<path style="fill:#F8E1C2;" d="M72,47.252c0-1.111-1-2.222-2-2.222c-0.348,0-0.694,0-1,0v-0.036c-0.018-9-1.024-16.964-14-16.964
			s-13.982,7.964-14,16.964v8l4,10l5.105,3.996c0.569,0.639,1.384,1.004,2.24,1.004H55h2.655c0.856,0,1.671-0.365,2.24-1.004
			L65,62.994l3.193-7.982C71.039,54.821,72,50.511,72,47.252z"/>
		<g>
			<polygon style="fill:#CFD3D4;" points="41,63.994 45,61.994 45,66.997 44,67.994 			"/>
		</g>
		<path style="fill:#FCF1E2;" d="M41,44.994v0.036c-0.306,0-0.652,0-1,0c-1,0-2,1.111-2,2.222c0,3.259,0.961,7.568,3.807,7.76
			L45,62.994l5.105,3.996c0.569,0.639,1.384,1.004,2.24,1.004H55V28.03C42.024,28.03,41.018,35.994,41,44.994z"/>
		<g>
			<path style="fill:#F79392;" d="M49.994,57.027h10c0,0,0,3-5,3S49.994,57.027,49.994,57.027z"/>
		</g>
		<g>
			<polygon style="fill:#F3B607;" points="35.5,86.994 44,75.994 41,72.994 32.8,86.994 			"/>
		</g>
		<g>
			<polygon style="fill:#F3B607;" points="74.5,86.994 66,75.994 69,72.994 77.2,86.994 			"/>
		</g>
		<g>
			<polygon style="fill:#FFFFFF;" points="55,82.994 69,63.994 73,68.994 55,86.994 			"/>
		</g>
		<g>
			<path style="fill:#3E3E3F;" d="M42.101,54c0,0-3.611-12.667-3.611-17.154C38.49,25.833,55.101,22,55.101,22v5l5-5v5l4-3
				c12.333,3,6,18.5,4,30h-1V42.708c0-8.258-8.785-6.708-10-6.708v-3C52.364,37.738,43,32.125,43,42.708V54H42.101z"/>
		</g>
		<g>
			<path style="fill:#3E3E3F;" d="M61.007,46.322c1.191,0,2.248,0.266,2.981,0.678c0.071-0.569-0.172-1.154-0.748-1.59
				c-1.03-0.781-2.702-0.781-3.733,0c-0.464,0.352-0.709,0.801-0.753,1.26C59.396,46.451,60.171,46.322,61.007,46.322z"/>
		</g>
		<g>
			<path style="fill:#3E3E3F;" d="M49,46.322c-1.191,0-2.248,0.266-2.981,0.678c-0.071-0.569,0.172-1.154,0.748-1.59
				c1.03-0.781,2.702-0.781,3.733,0c0.464,0.352,0.709,0.801,0.753,1.26C50.611,46.451,49.836,46.322,49,46.322z"/>
		</g>
		<g>
			<path style="fill:#F8E1C2;" d="M55,67.994h-2.655c-0.856,0-1.671-0.365-2.24-1.004L45,62.994v4.003l-1.306,0.653L55,82.994V75
				l-0.008-0.006c0.003,0,0.005,0,0.008,0V67.994z"/>
			<polygon style="fill:#F8E1C2;" points="55,87 55,86.994 54.99,86.984 			"/>
		</g>
		<g>
			<polygon style="fill:#FFFFFF;" points="55,82.994 41,63.994 37,68.994 55,86.994 			"/>
		</g>
	</g>
</g>
</svg>
