<?xml version="1.0" encoding="iso-8859-1"?>
<!-- Generator: Adobe Illustrator 17.1.0, SVG Export Plug-In . SVG Version: 6.00 Build 0)  -->
<!DOCTYPE svg PUBLIC "-//W3C//DTD SVG 1.0//EN" "http://www.w3.org/TR/2001/REC-SVG-20010904/DTD/svg10.dtd">
<svg version="1.0" xmlns="http://www.w3.org/2000/svg" xmlns:xlink="http://www.w3.org/1999/xlink" x="0px" y="0px" width="110px"
	 height="110px" viewBox="0 0 110 110" style="enable-background:new 0 0 110 110;" xml:space="preserve">
<g id="Artboard">
</g>
<g id="Multicolor">
	<g>
		<circle style="fill:#25B7D3;" cx="55" cy="55" r="55"/>
	</g>
	<path style="fill:#FFFFFF;" d="M83.409,77.663c-0.889-2.311-2.797-4.08-5.168-4.791L62,69l-7,1l-7-1l-16.241,3.872
		c-2.371,0.711-4.279,2.48-5.168,4.791L23,87h32h32L83.409,77.663z"/>
	<g>
		<path style="fill:#E2E4E5;" d="M66.789,72.895L67,72.472V72v-1.808l-2-0.477V72c0,0-2,4-10,4s-10-4-10-4v-2.285l-2,0.477V72v0.472
			l0.211,0.422C43.473,73.417,46.023,78,55,78S66.527,73.417,66.789,72.895z"/>
	</g>
	<path style="fill:#F7B4B4;" d="M55,69c-3.284-1.095-7.159-3.171-10-7.568V72c0,0,2,4,10,4s10-4,10-4V61.432
		C62.159,65.829,58.284,67.905,55,69z"/>
	<path style="fill:#FBC8C8;" d="M45,61.432V72c0,0,2,4,10,4v-7C51.716,67.905,47.841,65.829,45,61.432z"/>
	<g>
		<path style="fill:#FA5655;" d="M39,52.377c0.5,19.686,6.036,17.168,7.25,25.061C46.875,81.5,44,85.652,40,82.99
			c1.388,5.544,15.625,3.828,15.625-8.178C55.625,65.813,43,63,43,56.37c0-3.37,0-3.993,0-3.993H39z"/>
	</g>
	<path style="fill:#DF2C2C;" d="M70.422,53.289c-0.624,0.832-1.466,1.44-2.601,1.636C66.739,58.96,65,61.878,63,64.014v5.224
		l12.373,2.95C73.012,69.043,70.485,63.329,70.422,53.289z"/>
	<path style="fill:#FBC8C8;" d="M70.795,45.231c-0.004,0.06-0.008,0.119-0.013,0.179c-6.921,0-11.985-5.404-11.941-14.882
		c-0.727,8.012-5.357,14.923-19.892,14.923c0-0.019,0-0.036-0.001-0.055C38.401,45.818,38,46.519,38,47.222
		c0,3.091,0.864,7.13,4.178,7.703C44.62,64.027,50.396,67.465,55,69c4.604-1.535,10.38-4.973,12.822-14.075
		C71.136,54.353,72,50.313,72,47.222C72,46.414,71.469,45.611,70.795,45.231z"/>
	<path style="fill:#FBD7D7;" d="M38.949,45.452c0-0.019,0-0.036-0.001-0.055C38.401,45.818,38,46.519,38,47.222
		c0,3.091,0.864,7.13,4.178,7.703C44.62,64.027,50.396,67.465,55,69V40.077C52.007,43.33,46.999,45.452,38.949,45.452z"/>
	<path style="fill:#DF2C2C;" d="M58.949,28.077c-16-4-20.294,3.444-20,17.375c14.534,0,19.166-6.911,19.892-14.923
		c-0.044,9.478,5.02,14.882,11.941,14.882C71.615,34.827,70.532,26.077,58.949,28.077z"/>
	<g>
		<path style="fill:#3E3E3F;" d="M52,47c0-1.104-0.896-2-2-2c-0.002,0-0.004,0-0.006,0C49.995,45.021,50,45.042,50,45.063
			c0,1.103-0.892,1.996-1.994,2C48.04,48.137,48.917,49,50,49C51.104,49,52,48.104,52,47z"/>
	</g>
	<g>
		<path style="fill:#3E3E3F;" d="M61.994,47c0-1.104-0.896-2-2-2c-0.002,0-0.004,0-0.006,0c0.001,0.021,0.006,0.041,0.006,0.062
			c0,1.103-0.892,1.996-1.994,2C58.033,48.137,58.91,49,59.994,49C61.098,49,61.994,48.104,61.994,47z"/>
	</g>
	<g>
		<path style="fill:#F79392;" d="M50,58h10c0,0,0,3-5,3S50,58,50,58z"/>
	</g>
	<path style="fill:#FA5655;" d="M55,27.284c-12.766-1.848-16.319,5.457-16.051,18.163c8.049,0,13.058-2.122,16.051-5.375V27.284z"/>
</g>
</svg>
