<?xml version="1.0" encoding="iso-8859-1"?>
<!-- Generator: Adobe Illustrator 17.1.0, SVG Export Plug-In . SVG Version: 6.00 Build 0)  -->
<!DOCTYPE svg PUBLIC "-//W3C//DTD SVG 1.0//EN" "http://www.w3.org/TR/2001/REC-SVG-20010904/DTD/svg10.dtd">
<svg version="1.0" xmlns="http://www.w3.org/2000/svg" xmlns:xlink="http://www.w3.org/1999/xlink" x="0px" y="0px" width="110px"
	 height="110px" viewBox="0 0 110 110" style="enable-background:new 0 0 110 110;" xml:space="preserve">
<g id="Artboard">
</g>
<g id="Multicolor">
	<circle style="fill:#FABC3D;" cx="55" cy="55" r="55"/>
	<g>
		<g>
			<path style="fill:#E2E4E5;" d="M56.737,23.6c-0.378-0.402-0.906-0.6-1.459-0.6H55h-0.278c-0.553,0-1.081,0.198-1.459,0.6
				c-6.567,6.996-15.902,11.369-26.254,11.369V59c0,18.311,12.075,20.455,26.804,27.565c0.349,0.274,0.768,0.409,1.188,0.419
				c0.42-0.01,0.838-0.146,1.188-0.419C70.916,79.455,82.991,77.311,82.991,59V34.969C72.639,34.969,63.304,30.596,56.737,23.6z"/>
		</g>
		<g>
			<path style="fill:#0484AB;" d="M27.018,34.969V43H83v-8.031c-10.352,0-19.687-4.373-26.254-11.369
				c-0.378-0.402-0.906-0.6-1.459-0.6h-0.278H54.73c-0.553,0-1.081,0.198-1.459,0.6C46.705,30.596,37.37,34.969,27.018,34.969z"/>
		</g>
		<g>
			<path style="fill:#FFFFFF;" d="M54.722,23c-0.553,0-1.081,0.198-1.459,0.6c-6.567,6.996-15.902,11.369-26.254,11.369V59
				c0,18.311,12.075,20.455,26.804,27.565c0.349,0.274,0.768,0.409,1.188,0.419V23H54.722z"/>
		</g>
		<g>
			<path style="fill:#059BBF;" d="M55,23h-0.27c-0.553,0-1.081,0.198-1.459,0.6c-6.567,6.996-15.902,11.369-26.254,11.369V43H55V23z
				"/>
		</g>
		<g>
			<path style="fill:#FA5655;" d="M35.01,43v34.06c-4.93-3.72-7.99-8.84-7.99-18.06V43H35.01z"/>
		</g>
		<g>
			<path style="fill:#FA5655;" d="M51.01,43v42.24c-2.82-1.29-5.51-2.43-8-3.6V43H51.01z"/>
		</g>
		<g>
			<path style="fill:#DF2C2C;" d="M67.01,43v38.64c-2.49,1.17-5.18,2.31-8,3.6V43H67.01z"/>
		</g>
		<g>
			<path style="fill:#DF2C2C;" d="M83,43v16c0,9.22-3.06,14.34-7.99,18.06V43H83z"/>
		</g>
		<g>
			<polygon style="fill:#E2E4E5;" points="57.26,31.61 54.991,27 52.712,31.605 47.628,32.339 51.303,35.929 50.43,40.992 
				54.98,38.605 59.525,41 58.661,35.936 62.344,32.353 			"/>
		</g>
		<g>
			<polygon style="fill:#FFFFFF;" points="71.821,36.976 70.849,35 69.872,36.974 67.693,37.288 69.268,38.827 68.894,40.996 
				70.844,39.974 72.792,41 72.422,38.83 74,37.294 			"/>
		</g>
		<g>
			<polygon style="fill:#FFFFFF;" points="40.128,36.976 39.155,35 38.179,36.974 36,37.288 37.575,38.827 37.201,40.996 
				39.151,39.974 41.099,41 40.729,38.83 42.307,37.294 			"/>
		</g>
		<g>
			<polygon style="fill:#FFFFFF;" points="55,27.019 54.991,27 52.712,31.605 47.628,32.339 51.303,35.929 50.43,40.992 
				54.98,38.605 55,38.616 			"/>
		</g>
	</g>
</g>
</svg>
