<?xml version="1.0" encoding="iso-8859-1"?>
<!-- Generator: Adobe Illustrator 17.1.0, SVG Export Plug-In . SVG Version: 6.00 Build 0)  -->
<!DOCTYPE svg PUBLIC "-//W3C//DTD SVG 1.0//EN" "http://www.w3.org/TR/2001/REC-SVG-20010904/DTD/svg10.dtd">
<svg version="1.0" xmlns="http://www.w3.org/2000/svg" xmlns:xlink="http://www.w3.org/1999/xlink" x="0px" y="0px" width="110px"
	 height="110px" viewBox="0 0 110 110" style="enable-background:new 0 0 110 110;" xml:space="preserve">
<g id="Artboard">
</g>
<g id="Multicolor">
	<circle style="fill:#32BEA6;" cx="55" cy="55" r="55"/>
	<g>
		
			<rect x="66.515" y="26.52" transform="matrix(0.7071 0.7071 -0.7071 0.7071 46.7195 -42.7802)" style="fill:#F0F1F1;" width="16.971" height="16.971"/>
		
			<rect x="63.505" y="27.767" transform="matrix(0.7071 -0.7071 0.7071 0.7071 -1.5389 60.2764)" style="fill:#FFFFFF;" width="16.971" height="8.459"/>
		<path style="fill:#0484AB;" d="M79,51.005l-20-20L23.591,66.414c-0.382,0.382-0.593,0.901-0.586,1.441
			C23.191,81.915,28.09,86.814,42.15,87c0.539,0.007,1.059-0.204,1.441-0.586L79,51.005z M31,77.005c0-1.104,0.896-2,2-2
			s2,0.896,2,2s-0.896,2-2,2S31,78.11,31,77.005z"/>
		<path style="fill:#059BBF;" d="M59,31.005L23.591,66.414c-0.382,0.382-0.593,0.901-0.585,1.441
			c0.092,7.002,1.356,11.729,4.336,14.737l4.211-4.212C31.212,78.021,31,77.539,31,77.005c0-1.104,0.896-2,2-2
			c0.534,0,1.016,0.212,1.375,0.553l34.589-34.589L59,31.005z"/>
		
			<rect x="71.879" y="28.884" transform="matrix(0.7071 0.7071 -0.7071 0.7071 43.5982 -43.2446)" style="fill:#818284;" width="4.243" height="4.243"/>
		
			<rect x="76.879" y="33.884" transform="matrix(0.7071 0.7071 -0.7071 0.7071 48.5982 -45.3157)" style="fill:#5B5C5F;" width="4.243" height="4.243"/>
		<path style="fill:#F0F1F1;" d="M63,59.005l-12-12L40.414,57.591c-0.781,0.781-0.781,2.047,0,2.828l9.172,9.172
			c0.781,0.781,2.047,0.781,2.828,0L63,59.005z"/>
		<path style="fill:#FFFFFF;" d="M51,47.005L40.414,57.591c-0.781,0.781-0.781,2.047,0,2.828l4.567,4.567l12-12L51,47.005z"/>
	</g>
</g>
</svg>
