<?xml version="1.0" encoding="iso-8859-1"?>
<!-- Generator: Adobe Illustrator 17.1.0, SVG Export Plug-In . SVG Version: 6.00 Build 0)  -->
<!DOCTYPE svg PUBLIC "-//W3C//DTD SVG 1.0//EN" "http://www.w3.org/TR/2001/REC-SVG-20010904/DTD/svg10.dtd">
<svg version="1.0" xmlns="http://www.w3.org/2000/svg" xmlns:xlink="http://www.w3.org/1999/xlink" x="0px" y="0px" width="110px"
	 height="110px" viewBox="0 0 110 110" style="enable-background:new 0 0 110 110;" xml:space="preserve">
<g id="Artboard">
</g>
<g id="Multicolor">
	<circle style="fill:#32BEA6;" cx="55" cy="55" r="55"/>
	<g>
		<g>
			<g>
				<path style="fill:#DF2C2C;" d="M63.877,69.035L62.82,52.127C62.359,44.748,56.241,39,48.848,39h-3.695
					c-7.393,0-13.512,5.748-13.973,13.127l-1.057,16.908c-0.291,4.659,1.356,9.231,4.553,12.633C37.872,85.07,42.332,87,47,87
					s9.128-1.93,12.325-5.332C62.521,78.266,64.168,73.694,63.877,69.035z M55.105,48.987C54.749,49.613,54.085,50,53.365,50h-12.73
					c-0.72,0-1.385-0.385-1.741-1.012c-0.356-0.626-0.346-1.396,0.023-2.014c1.43-2.389,4.04-3.974,7.005-3.974h2.156
					c2.964,0,5.575,1.585,7.005,3.974C55.452,47.592,55.46,48.361,55.105,48.987z"/>
			</g>
		</g>
		<g>
			<path style="fill:#FA5655;" d="M40.635,50c-0.72,0-1.385-0.385-1.741-1.012s-0.347-1.396,0.023-2.014
				C40.348,44.585,42.958,43,45.922,43H47v-4h-1.848c-7.393,0-13.512,5.748-13.973,13.127l-1.057,16.908
				c-0.292,4.659,1.356,9.231,4.552,12.633C37.872,85.07,42.332,87,47,87V50H40.635z"/>
		</g>
		<g>
			<g>
				<path style="fill:#F0F1F1;" d="M63.159,75H30.841c0.748,2.462,2.036,4.754,3.834,6.668C37.872,85.07,42.332,87,47,87
					s9.128-1.93,12.325-5.332C61.123,79.754,62.411,77.462,63.159,75z"/>
			</g>
		</g>
		<g>
			<g>
				<circle style="fill:#3E3E3F;" cx="47" cy="61" r="6"/>
			</g>
		</g>
		<g>
			<path style="fill:#FFFFFF;" d="M30.841,75c0.748,2.462,2.036,4.754,3.834,6.668C37.872,85.07,42.332,87,47,87V75H30.841z"/>
		</g>
		<g>
			<path style="fill:#F0F1F1;" d="M49,23c-12.54,0-23,7.878-23,22c0,15.453,11.597,20.283,19.34,18.935
				c1.644-0.015,2.972-1.35,2.972-2.997c0-1.657-1.343-3-3-3C35.642,57.938,32,54.13,32,45c0-11.81,9.158-16,17-16
				c9.485,0,18,1.224,18,16v22h6V45C73,23,56.182,23,49,23z"/>
		</g>
		<path style="fill:#3E3E3F;" d="M86.612,84.671l-0.776-4.657C85.354,77.121,82.85,75,79.917,75H74v-8h-8v8h-5.917
			c-2.933,0-5.437,2.121-5.918,5.014l-0.776,4.657c-0.097,0.58,0.067,1.173,0.447,1.622S54.773,87,55.361,87h29.278
			c0.588,0,1.146-0.259,1.526-0.707S86.708,85.251,86.612,84.671z"/>
		<g>
			<g>
				<rect x="75" y="75" style="fill:#5B5C5F;" width="4" height="8"/>
			</g>
		</g>
		<g>
			<g>
				<rect x="61" y="75" style="fill:#5B5C5F;" width="4" height="8"/>
			</g>
		</g>
	</g>
</g>
</svg>
