<?xml version="1.0" encoding="iso-8859-1"?>
<!-- Generator: Adobe Illustrator 17.1.0, SVG Export Plug-In . SVG Version: 6.00 Build 0)  -->
<!DOCTYPE svg PUBLIC "-//W3C//DTD SVG 1.0//EN" "http://www.w3.org/TR/2001/REC-SVG-20010904/DTD/svg10.dtd">
<svg version="1.0" xmlns="http://www.w3.org/2000/svg" xmlns:xlink="http://www.w3.org/1999/xlink" x="0px" y="0px" width="110px"
	 height="110px" viewBox="0 0 110 110" style="enable-background:new 0 0 110 110;" xml:space="preserve">
<g id="Artboard">
</g>
<g id="Multicolor">
	<circle style="fill:#32BEA6;" cx="55" cy="55" r="55"/>
	<g>
		<g>
			<path style="fill:#CFD3D4;" d="M71,27c-8,0-8-4-16-4s-8,4-16,4h-4v8c8,0,8,7,20,7s12-7,20-7v-8H71z"/>
		</g>
		<g>
			<path style="fill:#E2E4E5;" d="M39,27h-4v8c8,0,8,7,20,7V23C47,23,47,27,39,27z"/>
		</g>
		<g>
			<path style="fill:#F0F1F1;" d="M37,47.658c0-1.155,0.499-2.253,1.368-3.012c8.229-7.194,25.034-7.194,33.263,0
				C72.5,45.405,73,46.505,73,47.658V71c0,4.418-3.582,8-8,8H45c-4.418,0-8-3.582-8-8V47.658z"/>
		</g>
		<g>
			<path style="fill:#FFFFFF;" d="M37,47.658V71c0,4.418,3.582,8,8,8h10V39.25c-6.259,0-12.517,1.799-16.632,5.396
				C37.499,45.406,37,46.504,37,47.658z"/>
		</g>
		<g>
			<path style="fill:#3E3E3F;" d="M75,33h10c1.105,0,2-0.895,2-2c0-1.105-0.895-2-2-2H75V33z"/>
		</g>
		<g>
			<path style="fill:#3E3E3F;" d="M23,31c0,1.105,0.895,2,2,2h10v-4H25C23.895,29,23,29.895,23,31z"/>
		</g>
		<g>
			<path style="fill:#CFD3D4;" d="M47,67c0-4.418,3.582-8,8-8s8,3.582,8,8v4H47V67z"/>
		</g>
		<g>
			<path style="fill:#3E3E3F;" d="M49,71h12v10c0,3.314-2.686,6-6,6s-6-2.686-6-6V71z"/>
		</g>
		<g>
			<circle style="fill:#40C9E7;" cx="55" cy="31.5" r="5.5"/>
		</g>
		<g>
			<path style="fill:#5B5C5F;" d="M49,71v10c0,3.313,2.686,6,6,6V71H49z"/>
		</g>
		<g>
			<path style="fill:#E2E4E5;" d="M55,59c-4.418,0-8,3.582-8,8v4h8V59z"/>
		</g>
		<g>
			<path style="fill:#9CE5F4;" d="M49.5,31.5c0,3.038,2.462,5.5,5.5,5.5V26C51.962,26,49.5,28.462,49.5,31.5z"/>
		</g>
	</g>
</g>
</svg>
