<?xml version="1.0" encoding="iso-8859-1"?>
<!-- Generator: Adobe Illustrator 17.1.0, SVG Export Plug-In . SVG Version: 6.00 Build 0)  -->
<!DOCTYPE svg PUBLIC "-//W3C//DTD SVG 1.0//EN" "http://www.w3.org/TR/2001/REC-SVG-20010904/DTD/svg10.dtd">
<svg version="1.0" xmlns="http://www.w3.org/2000/svg" xmlns:xlink="http://www.w3.org/1999/xlink" x="0px" y="0px" width="110px"
	 height="110px" viewBox="0 0 110 110" style="enable-background:new 0 0 110 110;" xml:space="preserve">
<g id="Artboard">
</g>
<g id="Multicolor">
	<circle style="fill:#25B7D3;" cx="55" cy="55" r="55"/>
	<g>
		<path style="fill:#3E3E3F;" d="M71,43v24c0,2.21-1.79,4-4,4H27c-2.21,0-4-1.79-4-4V43c0-2.21,1.79-4,4-4h40
			C69.21,39,71,40.79,71,43z"/>
		<path style="fill:#F0F1F1;" d="M59,47H35c-4.418,0-8,3.582-8,8s3.582,8,8,8s8-3.582,8-8c0-1.062-0.211-2.073-0.587-3h9.174
			C51.211,52.927,51,53.938,51,55c0,4.418,3.582,8,8,8s8-3.582,8-8S63.418,47,59,47z"/>
		<rect x="71" y="47" style="fill:#E2E4E5;" width="4" height="16"/>
		<path style="fill:#F0F1F1;" d="M83.891,39.336c0.614-0.409,1.403-0.447,2.053-0.099S87,40.262,87,41v28
			c0,0.738-0.406,1.415-1.056,1.763s-1.439,0.31-2.053-0.099L75,63V47L83.891,39.336z"/>
		<polygon style="fill:#E2E4E5;" points="47.14,39 36.92,39 29.22,33.41 32.74,28.55 		"/>
		<path style="fill:#3E3E3F;" d="M30.459,23.191c-0.447-0.324-1.072-0.225-1.397,0.222l-5.872,8.095
			c-0.324,0.447-0.225,1.072,0.222,1.397l3.238,2.349c0.447,0.324,1.072,0.225,1.397-0.222l5.872-8.095
			c0.324-0.447,0.225-1.072-0.222-1.397L30.459,23.191z"/>
		<circle style="fill:#3E3E3F;" cx="35" cy="55" r="4"/>
		<circle style="fill:#3E3E3F;" cx="59" cy="55" r="4"/>
		<polygon style="fill:#CFD3D4;" points="58,71 36,71 38,78 56,78 		"/>
		<path style="fill:#FFFFFF;" d="M85.944,39.237c-0.65-0.348-1.439-0.31-2.053,0.099L75,47v8h12V41
			C87,40.262,86.594,39.585,85.944,39.237z"/>
		<rect x="43" y="78" style="fill:#E2E4E5;" width="8" height="9"/>
		<rect x="43" y="78" style="fill:#FFFFFF;" width="4" height="9"/>
		<polygon style="fill:#F0F1F1;" points="47,78 47,71 36,71 38,78 		"/>
	</g>
</g>
</svg>
