<?xml version="1.0" encoding="iso-8859-1"?>
<!-- Generator: Adobe Illustrator 17.1.0, SVG Export Plug-In . SVG Version: 6.00 Build 0)  -->
<!DOCTYPE svg PUBLIC "-//W3C//DTD SVG 1.0//EN" "http://www.w3.org/TR/2001/REC-SVG-20010904/DTD/svg10.dtd">
<svg version="1.0" xmlns="http://www.w3.org/2000/svg" xmlns:xlink="http://www.w3.org/1999/xlink" x="0px" y="0px" width="110px"
	 height="110px" viewBox="0 0 110 110" style="enable-background:new 0 0 110 110;" xml:space="preserve">
<g id="Artboard">
</g>
<g id="Multicolor">
	<circle style="fill:#32BEA6;" cx="55" cy="55" r="55"/>
	<g>
		<path style="fill:#CFD3D4;" d="M31,35h-8v16h8c2-3,2.633-4.189,8-4v-8C34,39,33,38,31,35z"/>
		<path style="fill:#E2E4E5;" d="M39,43v-4c-5,0-6-1-8-4h-8v8H39z"/>
		<path style="fill:#FFFFFF;" d="M75,59c0,2.209-1.791,4-4,4H39V27h36V59z"/>
		<rect x="23" y="35" style="fill:#F0F1F1;" width="8" height="16"/>
		<path style="fill:#3E3E3F;" d="M82.04,25.48c-1.999,1-4.203,1.52-6.438,1.52H75v7c2.614,0,5.175,0.735,7.392,2.12l1.548,0.968
			c0.617,0.385,1.394,0.406,2.03,0.053S87,36.119,87,35.392v-9.155c0-0.693-0.359-1.337-0.949-1.701
			c-0.59-0.364-1.326-0.398-1.946-0.088L82.04,25.48z"/>
		<circle style="fill:#3E3E3F;" cx="53" cy="35" r="4"/>
		<circle style="fill:#B6BCBD;" cx="49" cy="57" r="2"/>
		<rect x="59" y="55" style="fill:#CFD3D4;" width="12" height="2"/>
		<path style="fill:#3E3E3F;" d="M39,63v2v2c0,1.105,0.895,2,2,2h2v16c0,1.104,0.896,2,2,2h2c2.209,0,4-1.791,4-4v-6.08
			c0-4.254,3.396-7.92,8-7.92c2.299,0,4-1.829,4-3.96V65v-2H39z"/>
		<rect x="41" y="65" style="fill:#FA5655;" width="2" height="2"/>
		<rect x="23" y="35" style="fill:#FFFFFF;" width="8" height="8"/>
	</g>
</g>
</svg>
