<?xml version="1.0" encoding="iso-8859-1"?>
<!-- Generator: Adobe Illustrator 17.1.0, SVG Export Plug-In . SVG Version: 6.00 Build 0)  -->
<!DOCTYPE svg PUBLIC "-//W3C//DTD SVG 1.0//EN" "http://www.w3.org/TR/2001/REC-SVG-20010904/DTD/svg10.dtd">
<svg version="1.0" xmlns="http://www.w3.org/2000/svg" xmlns:xlink="http://www.w3.org/1999/xlink" x="0px" y="0px" width="110px"
	 height="110px" viewBox="0 0 110 110" style="enable-background:new 0 0 110 110;" xml:space="preserve">
<g id="Artboard">
</g>
<g id="Multicolor">
	<circle style="fill:#32BEA6;" cx="55" cy="55" r="55"/>
	<g>
		<path style="fill:#3E3E3F;" d="M85,77c0,1.105-0.895,2-2,2H27c-1.105,0-2-0.895-2-2V39h60V77z"/>
		<path style="fill:#5B5C5F;" d="M25,39v38c0,0.463,0.164,0.884,0.428,1.224L64.652,39H25z"/>
		<path style="fill:#5B5C5F;" d="M25,39v38c0,0.386,0.115,0.744,0.304,1.05L64.354,39H25z"/>
		<path style="fill:#FFFFFF;" d="M45.001,47v24h-10c-7.75-3.87-7.99-19-0.74-23.58c0.24-0.15,0.49-0.29,0.74-0.42H45.001z"/>
		<path style="fill:#FFFFFF;" d="M75,46H65v24h10C83,66,83,50,75,46z"/>
		<path style="fill:#3E3E3F;" d="M72,46v6.355C70.349,50.312,67.826,49,65,49v6c1.654,0,3,1.346,3,3s-1.346,3-3,3v6
			c4.963,0,9-4.037,9-9V46H72z"/>
		<path style="fill:#3E3E3F;" d="M45,55v-6c-2.826,0-5.349,1.312-7,3.355V47h-2v11c0,4.963,4.037,9,9,9v-6c-1.654,0-3-1.346-3-3
			S43.346,55,45,55z"/>
		<path style="fill:#5B5C5F;" d="M42,58c0-1.654,1.346-3,3-3v-6c-2.826,0-5.349,1.312-7,3.355V47h-2v11
			c0,2.647,1.156,5.023,2.98,6.671l4.256-4.256C42.491,59.869,42,58.993,42,58z"/>
		<path style="fill:#FFFFFF;" d="M45,55c-1.657,0-3,1.343-3,3s1.343,3,3,3V55z"/>
		<path style="fill:#FFFFFF;" d="M65,55c1.657,0,3,1.343,3,3s-1.343,3-3,3V55z"/>
		<rect x="23" y="31" style="fill:#3E3E3F;" width="64" height="11"/>
		<rect x="23" y="37" style="fill:#818284;" width="64" height="5"/>
	</g>
</g>
</svg>
