<?xml version="1.0" encoding="iso-8859-1"?>
<!-- Generator: Adobe Illustrator 17.1.0, SVG Export Plug-In . SVG Version: 6.00 Build 0)  -->
<!DOCTYPE svg PUBLIC "-//W3C//DTD SVG 1.0//EN" "http://www.w3.org/TR/2001/REC-SVG-20010904/DTD/svg10.dtd">
<svg version="1.0" xmlns="http://www.w3.org/2000/svg" xmlns:xlink="http://www.w3.org/1999/xlink" x="0px" y="0px" width="110px"
	 height="110px" viewBox="0 0 110 110" style="enable-background:new 0 0 110 110;" xml:space="preserve">
<g id="Artboard">
</g>
<g id="Multicolor">
	<circle style="fill:#FABC3D;" cx="55" cy="55" r="55"/>
	<g>
		<path style="fill:#9C6144;" d="M29.554,80.446c-8.443-8.443-7.394-22.068,0.827-29.055c3.748,2.701,8.947,2.31,12.254-0.997
			c2.19-2.19,3.143-5.229,2.673-8.188c5.863-7.412,17.026-8.175,23.844-1.358c6.822,6.822,6.049,17.985-1.358,23.844
			c-2.964-0.471-6.001,0.486-8.188,2.673c-3.307,3.307-3.699,8.506-0.997,12.254C51.636,87.822,38.016,88.907,29.554,80.446z"/>
		<path style="fill:#AF7653;" d="M69.152,40.848c-6.818-6.817-17.98-6.054-23.844,1.358c0.47,2.959-0.482,5.998-2.673,8.188
			c-3.307,3.308-8.506,3.699-12.254,0.997c-8.221,6.987-9.27,20.612-0.827,29.055c0.037,0.037,0.077,0.066,0.114,0.102
			l39.586-39.586C69.218,40.925,69.189,40.884,69.152,40.848z"/>
		<path style="fill:#9C6144;" d="M83.294,33.777c0.259-0.259,0.573-0.424,0.903-0.511l-2.317-2.317l-1.415,1.414l2.317,2.318
			C82.871,34.35,83.036,34.036,83.294,33.777z"/>
		<circle style="fill:#FBEC9A;" cx="84.709" cy="35.191" r="2"/>
		<path style="fill:#9C6144;" d="M79.052,38.02c0.259-0.259,0.573-0.424,0.903-0.511l-2.317-2.317l-1.415,1.414l2.318,2.318
			C78.628,38.592,78.793,38.278,79.052,38.02z"/>
		<circle style="fill:#FBEC9A;" cx="80.466" cy="39.434" r="2"/>
		<path style="fill:#AF7653;" d="M76.734,25.802c-0.087,0.331-0.252,0.645-0.511,0.903c-0.259,0.259-0.573,0.424-0.903,0.511
			l2.318,2.317l1.414-1.414L76.734,25.802z"/>
		<circle style="fill:#FBEC9A;" cx="74.809" cy="25.291" r="2"/>
		<path style="fill:#AF7653;" d="M72.492,30.045c-0.087,0.33-0.252,0.645-0.511,0.903c-0.259,0.259-0.573,0.424-0.903,0.511
			l2.318,2.318l1.414-1.415L72.492,30.045z"/>
		<circle style="fill:#FBEC9A;" cx="70.566" cy="29.534" r="2"/>
		<path style="fill:#692E19;" d="M23.19,86.81c-0.707-0.707,0-1.414,12.021-17.678l5.657,5.657
			C24.605,86.81,23.897,87.517,23.19,86.81z"/>
		<path style="fill:#692E19;" d="M83.232,23.812c0.826-0.754,2.1-0.726,2.891,0.066s0.82,2.065,0.066,2.891l-28.35,31.05
			l-5.657-5.657L83.232,23.812z"/>
		<g>
			<path style="fill:#84462D;" d="M50.245,78.123c-0.231,0.354-1.026,0.524-1.385,0.291c-1.459-0.944,0.105-2.992,2.908-6.311
				c2.176-2.575,4.231-5.008,3.915-7.16c-0.128-0.866-0.613-1.579-1.444-2.119c-1.291-0.841-3.285-0.453-4.151,0.878
				c-0.298,0.459-0.174,1.063,0.293,1.384c0.449,0.291,1.092,0.153,1.383-0.293c0.23-0.354,1.029-0.523,1.383-0.292
				c1.446,0.944-0.055,2.936-2.907,6.312c-2.176,2.575-4.231,5.006-3.914,7.16c0.091,0.619,0.371,1.166,0.831,1.626
				c1.538,1.542,3.853,1.012,4.764-0.385c0.298-0.458,0.174-1.062-0.291-1.382C51.181,77.538,50.536,77.676,50.245,78.123z"/>
			<path style="fill:#84462D;" d="M47.176,55.761c-0.54-0.83-1.253-1.316-2.119-1.444c-2.131-0.311-4.578,1.733-7.163,3.917
				c-3.145,2.656-5.333,4.416-6.309,2.904c-0.245-0.375-0.084-1.139,0.292-1.383c0.452-0.294,0.605-0.906,0.285-1.395
				c-0.301-0.437-0.936-0.569-1.376-0.281c-1.377,0.897-1.949,3.2-0.385,4.764c0.587,0.586,1.3,0.864,2.078,0.864h0
				c2.037,0,4.306-1.917,6.709-3.948c3.632-3.068,5.407-4.29,6.311-2.906c0.247,0.378,0.088,1.136-0.292,1.384
				c-0.461,0.3-0.592,0.92-0.286,1.394c0.3,0.438,0.933,0.57,1.377,0.282C47.606,59.06,48.027,57.068,47.176,55.761z"/>
		</g>
		<path style="fill:#84462D;" d="M86.123,23.878c-0.791-0.792-2.064-0.82-2.891-0.066l-31.05,28.35l2.937,2.937L86.22,23.996
			C86.187,23.957,86.16,23.914,86.123,23.878z"/>
		<path style="fill:#84462D;" d="M35.211,69.132C23.19,85.396,22.483,86.103,23.19,86.81c0.038,0.038,0.076,0.071,0.117,0.099
			l14.84-14.84L35.211,69.132z"/>
	</g>
</g>
</svg>
