<?xml version="1.0" encoding="iso-8859-1"?>
<!-- Generator: Adobe Illustrator 17.1.0, SVG Export Plug-In . SVG Version: 6.00 Build 0)  -->
<!DOCTYPE svg PUBLIC "-//W3C//DTD SVG 1.0//EN" "http://www.w3.org/TR/2001/REC-SVG-20010904/DTD/svg10.dtd">
<svg version="1.0" xmlns="http://www.w3.org/2000/svg" xmlns:xlink="http://www.w3.org/1999/xlink" x="0px" y="0px" width="110px"
	 height="110px" viewBox="0 0 110 110" style="enable-background:new 0 0 110 110;" xml:space="preserve">
<g id="Artboard">
</g>
<g id="Multicolor">
	<circle style="fill:#E04F5F;" cx="55" cy="55" r="55"/>
	<g>
		<path style="fill:#0484AB;" d="M87,73c0,3.314-2.686,6-6,6H29c-3.314,0-6-2.686-6-6V37c0-3.314,2.686-6,6-6h52
			c3.314,0,6,2.686,6,6V73z"/>
		<path style="fill:#059BBF;" d="M29,31c-3.314,0-6,2.687-6,6v36c0,1.534,0.581,2.929,1.528,3.99L70.518,31H29z"/>
		<rect x="23" y="43" style="fill:#F0F1F1;" width="64" height="24"/>
		<path style="fill:#FACB1B;" d="M87,73v-6H23v6c0,3.313,2.686,6,6,6h52C84.313,79,87,76.313,87,73z"/>
		<path style="fill:#FBE158;" d="M23,67v6c0,1.534,0.581,2.929,1.528,3.99l9.99-9.99H23z"/>
		<polygon style="fill:#FFFFFF;" points="23,43 23,67 34.518,67 58.518,43 		"/>
		<g>
			<path style="fill:#0484AB;" d="M49.562,60.652c-0.247,0.93-0.873,1.462-1.632,1.462c-0.968,0-1.5-0.703-1.177-1.898l2.733-10.155
				c0.247-0.931,0.873-1.462,1.632-1.462c0.968,0,1.5,0.702,1.177,1.898L49.562,60.652z"/>
			<path style="fill:#0484AB;" d="M60.794,58.241c0-0.645-0.475-1.024-2.259-1.746c-1.728-0.702-3.265-1.633-3.265-3.588
				c0-2.714,2.43-4.385,5.277-4.385c2.069,0,3.189,0.589,4.043,1.178c0.398,0.284,0.683,0.626,0.683,1.215
				c0,0.815-0.645,1.423-1.442,1.423c-0.304,0-0.588-0.075-0.797-0.246c-0.873-0.684-1.632-1.007-2.714-1.007
				c-1.234,0-1.936,0.684-1.936,1.348c0,0.703,0.531,1.007,2.334,1.747c1.822,0.74,3.189,1.651,3.189,3.587
				c0,2.791-2.486,4.423-5.277,4.423c-1.575,0-3.55-0.341-4.916-1.519c-0.323-0.266-0.57-0.702-0.57-1.215
				c0-0.835,0.607-1.48,1.424-1.48c0.398,0,0.74,0.209,0.93,0.361c1.12,0.93,1.955,1.29,3.265,1.29
				C59.939,59.627,60.794,59.077,60.794,58.241z"/>
			<path style="fill:#0484AB;" d="M79,60.709c0,0.76-0.626,1.405-1.5,1.405c-0.816,0-1.329-0.494-1.424-1.158l-0.304-1.937h-5.884
				l-1.519,2.184c-0.361,0.512-0.873,0.911-1.48,0.911c-0.759,0-1.196-0.456-1.196-1.14c0-0.812,0.23-0.811,7.726-11.332
				c0.576-0.83,1.259-1.139,2.107-1.139c0.987,0,1.442,0.531,1.594,1.386C77.188,50.269,79,60.324,79,60.709z M75.355,56.438
				l-0.684-4.385l-2.999,4.385H75.355z"/>
			<path style="fill:#0484AB;" d="M44.996,48.599c-0.646,0-1.139,0.342-1.519,0.931l-5.562,8.446l-0.968-8.029
				c-0.102-0.897-0.737-1.348-1.538-1.348c-1.145,0-0.621,0-2.91,0c-0.829,0-1.5,0.672-1.5,1.5s0.671,1.5,1.5,1.5h1.575l1.373,9.319
				c0.154,1.009,0.659,1.291,1.5,1.291c0.797,0,1.424-0.418,1.936-1.177l7.175-10.517c0.133-0.189,0.266-0.569,0.266-0.835
				C46.325,48.94,45.755,48.599,44.996,48.599z"/>
		</g>
	</g>
</g>
</svg>
