<?xml version="1.0" encoding="iso-8859-1"?>
<!-- Generator: Adobe Illustrator 17.1.0, SVG Export Plug-In . SVG Version: 6.00 Build 0)  -->
<!DOCTYPE svg PUBLIC "-//W3C//DTD SVG 1.0//EN" "http://www.w3.org/TR/2001/REC-SVG-20010904/DTD/svg10.dtd">
<svg version="1.0" xmlns="http://www.w3.org/2000/svg" xmlns:xlink="http://www.w3.org/1999/xlink" x="0px" y="0px" width="110px"
	 height="110px" viewBox="0 0 110 110" style="enable-background:new 0 0 110 110;" xml:space="preserve">
<g id="Artboard">
</g>
<g id="Multicolor">
	<circle style="fill:#E04F5F;" cx="55" cy="55" r="55"/>
	<g>
		<g>
			<circle style="fill:#F0F1F1;" cx="55" cy="54.992" r="32"/>
		</g>
		<g>
			<path style="fill:#FFFFFF;" d="M55,22.992c-17.673,0-32,14.327-32,32c0,8.605,3.403,16.412,8.929,22.163l45.233-45.233
				C71.412,26.396,63.606,22.992,55,22.992z"/>
		</g>
		<g>
			<path style="fill:#B6BCBD;" d="M71.13,48.35c6.75,3.7,11.73,9.63,14.19,16.83c0.53-1.58,0.94-3.21,1.22-4.88
				c-3-6.15-7.81-11.2-13.97-14.58c-5.56-3.05-11.73-4.439-17.98-4.07c0.21-3.07,0.89-6.05,1.99-8.86
				c6.14-0.63,12.23,0.61,17.69,3.6c5.14,2.82,9.29,6.96,12.08,12.05c-0.71-3.44-1.96-6.68-3.68-9.62
				c-0.01-0.01-0.01-0.01-0.01-0.02c-2.06-1.95-4.39-3.65-6.95-5.05c-5.47-3-11.54-4.39-17.7-4.08c1.12-2.13,2.5-4.14,4.13-5.97
				c-1.12-0.26-2.26-0.45-3.42-0.58c-4.65,5.85-7.22,13.12-7.22,20.78c0,3.7,0.59,7.32,1.78,10.78c-2,2.25-4.32,4.19-6.91,5.76
				c-3.19-4.92-4.87-10.508-4.87-16.448c0-7.7,2.8-14.807,7.95-20.427C47.79,23.855,46.17,24,44.6,25h-0.01
				c-3.96,5-6.09,12.055-6.09,19.085c0,6.45,1.8,12.435,5.23,17.805c-2.75,1.33-5.64,2.23-8.59,2.69C31.45,59.4,29.5,53.3,29.5,46.9
				c0-5.87,1.64-11.48,4.76-16.37c-2.62,2.229-4.87,4.87-6.66,7.82c0,0-0.01,0-0.01,0.01c-0.72,2.75-1.09,5.62-1.09,8.54
				c0,6.46,1.8,12.64,5.24,18.01c-2.45,0.1-4.91-0.09-7.33-0.59c0.34,1.11,0.74,2.2,1.2,3.26c1.62,0.24,3.25,0.36,4.88,0.36
				c5.8,0,11.56-1.51,16.73-4.5c3.2-1.85,6.04-4.18,8.45-6.93c2.95,0.6,5.79,1.64,8.46,3.1c-2.45,5.16-6.26,9.48-11.14,12.59
				c-6.48,4.14-14.05,5.66-21.54,4.37c1.14,1.23,2.36,2.37,3.67,3.41c0.52,0.03,1.03,0.04,1.55,0.04c6.3,0,12.47-1.8,17.94-5.29
				c5.26-3.36,9.39-8,12.08-13.55c2.58,1.74,4.85,3.85,6.74,6.24c0.001,0.001,0.001,0.002,0.002,0.002
				c-0.001,0.001-0.001,0.003-0.002,0.004c-2.43,5.46-6.36,10.037-11.45,13.287c-4.94,3.16-10.56,4.813-16.35,4.813
				c2.96,0.91,6.11,1.427,9.37,1.427c0.29,0,0.57,0.045,0.86,0.045c0,0,0,0,0.01,0c2.69-1,5.28-2.155,7.72-3.715
				c5.09-3.25,9.13-7.765,11.82-13.065c1.26,2.01,2.28,4.18,3.04,6.46c0.78-0.84,1.53-1.73,2.21-2.66
				c-2.74-6.96-7.75-12.82-14.38-16.65c-3.2-1.85-6.64-3.14-10.22-3.84c-0.96-2.86-1.48-5.83-1.54-8.87
				C60.29,44.28,66,45.54,71.13,48.35z M55.03,54.87l-0.02,0.07l-0.05-0.04L55.03,54.87z"/>
		</g>
	</g>
</g>
</svg>
