<?xml version="1.0" encoding="iso-8859-1"?>
<!-- Generator: Adobe Illustrator 17.1.0, SVG Export Plug-In . SVG Version: 6.00 Build 0)  -->
<!DOCTYPE svg PUBLIC "-//W3C//DTD SVG 1.0//EN" "http://www.w3.org/TR/2001/REC-SVG-20010904/DTD/svg10.dtd">
<svg version="1.0" xmlns="http://www.w3.org/2000/svg" xmlns:xlink="http://www.w3.org/1999/xlink" x="0px" y="0px" width="110px"
	 height="110px" viewBox="0 0 110 110" style="enable-background:new 0 0 110 110;" xml:space="preserve">
<g id="Artboard">
</g>
<g id="Multicolor">
	<circle style="fill:#E04F5F;" cx="55" cy="55" r="55"/>
	<g>
		<g>
			<path style="fill:#F0F1F1;" d="M31,28c0-2.761,2.239-5,5-5h38c2.761,0,5,2.239,5,5v53c0,3.314-2.686,6-6,6H37
				c-3.314,0-6-2.686-6-6V28z"/>
		</g>
		<g>
			<path style="fill:#FFFFFF;" d="M55,23H36c-2.761,0-5,2.239-5,5v53c0,3.313,2.686,6,6,6h18V23z"/>
		</g>
		<g>
			<path style="fill:#40C9E7;" d="M73,51c0,2.209-1.791,4-4,4H41c-2.209,0-4-1.791-4-4V33c0-2.209,1.791-4,4-4h28
				c2.209,0,4,1.791,4,4V51z"/>
		</g>
		<g>
			<path style="fill:#9CE5F4;" d="M55,29H41c-2.209,0-4,1.791-4,4v18c0,2.209,1.791,4,4,4h14V29z"/>
		</g>
		<g>
			<circle style="fill:#FFFFFF;" cx="55" cy="73" r="7"/>
		</g>
		<g>
			<path style="fill:#CFD3D4;" d="M55,82c-4.962,0-9-4.037-9-9s4.038-9,9-9s9,4.037,9,9S59.962,82,55,82z M55,66c-3.86,0-7,3.14-7,7
				s3.14,7,7,7s7-3.14,7-7S58.86,66,55,66z"/>
		</g>
		<g>
			<circle style="fill:#12B2A0;" cx="40" cy="64" r="3"/>
		</g>
		<g>
			<path style="fill:#F0F1F1;" d="M40,61c1.657,0,3,1.343,3,3s-1.343,3-3,3s-3-1.343-3-3S38.343,61,40,61 M40,59
				c-2.757,0-5,2.243-5,5s2.243,5,5,5s5-2.243,5-5S42.757,59,40,59L40,59z"/>
		</g>
		<g>
			<circle style="fill:#FA5655;" cx="69" cy="64" r="3"/>
		</g>
		<g>
			<path style="fill:#E2E4E5;" d="M69,61c1.657,0,3,1.343,3,3s-1.343,3-3,3s-3-1.343-3-3S67.343,61,69,61 M69,59
				c-2.757,0-5,2.243-5,5s2.243,5,5,5s5-2.243,5-5S71.757,59,69,59L69,59z"/>
		</g>
		<path style="fill:#3E3E3F;" d="M56.38,51.027l-7.422-16.731c-0.255-0.561-1.101-0.254-0.938,0.34l5.154,18.037
			C53.789,51.562,55.024,50.863,56.38,51.027z"/>
		<g>
			<path style="fill:#FFFFFF;" d="M60,55h-8l1.106-2.211C53.654,51.693,54.774,51,56,51s2.346,0.693,2.894,1.789L60,55z"/>
		</g>
	</g>
</g>
</svg>
