<?xml version="1.0" encoding="iso-8859-1"?>
<!-- Generator: Adobe Illustrator 17.1.0, SVG Export Plug-In . SVG Version: 6.00 Build 0)  -->
<!DOCTYPE svg PUBLIC "-//W3C//DTD SVG 1.0//EN" "http://www.w3.org/TR/2001/REC-SVG-20010904/DTD/svg10.dtd">
<svg version="1.0" xmlns="http://www.w3.org/2000/svg" xmlns:xlink="http://www.w3.org/1999/xlink" x="0px" y="0px" width="110px"
	 height="110px" viewBox="0 0 110 110" style="enable-background:new 0 0 110 110;" xml:space="preserve">
<g id="Artboard">
</g>
<g id="Multicolor">
	<circle style="fill:#FABC3D;" cx="55" cy="55" r="55"/>
	<g>
		<circle style="fill:#3E3E3F;" cx="54.996" cy="54.996" r="28"/>
		<path style="fill:#5B5C5F;" d="M74.81,35.22c-6.181-6.182-15.151-9.392-24.431-7.841c-15.252,2.55-25.55,16.981-23,32.233
			c1.001,5.992,3.842,11.213,7.841,15.197L74.81,35.22z"/>
		<circle style="fill:#DF2C2C;" cx="54.996" cy="54.996" r="12"/>
		<path style="fill:#FA5655;" d="M53.017,43.16c-6.537,1.093-10.95,7.278-9.857,13.814c0.43,2.574,1.658,4.81,3.377,6.518
			l16.956-16.956C60.844,43.879,56.999,42.494,53.017,43.16z"/>
		<circle style="fill:#FFFFFF;" cx="54.996" cy="54.996" r="1.562"/>
	</g>
</g>
</svg>
