<?xml version="1.0" encoding="iso-8859-1"?>
<!-- Generator: Adobe Illustrator 17.1.0, SVG Export Plug-In . SVG Version: 6.00 Build 0)  -->
<!DOCTYPE svg PUBLIC "-//W3C//DTD SVG 1.0//EN" "http://www.w3.org/TR/2001/REC-SVG-20010904/DTD/svg10.dtd">
<svg version="1.0" xmlns="http://www.w3.org/2000/svg" xmlns:xlink="http://www.w3.org/1999/xlink" x="0px" y="0px" width="110px"
	 height="110px" viewBox="0 0 110 110" style="enable-background:new 0 0 110 110;" xml:space="preserve">
<g id="Artboard">
</g>
<g id="Multicolor">
	<circle style="fill:#32BEA6;" cx="55" cy="55" r="55"/>
	<g>
		<g>
			<path style="fill:#3E3E3F;" d="M75,31.4L67,29c-2.67,9.33-6.67,17.33-12,24c-5.33-6.67-9.33-14.67-12-24l-8,2.4V45l4,16
				l-3.84,17.281c-0.095,0.428,0.1,0.868,0.48,1.085l12.594,7.196c0.438,0.25,0.994,0.135,1.296-0.268l4.67-6.227
				c0.189-0.252,0.485-0.4,0.8-0.4s0.611,0.148,0.8,0.4l4.67,6.227c0.303,0.403,0.858,0.518,1.296,0.268l12.594-7.196
				c0.381-0.217,0.575-0.657,0.48-1.085L71,61l4-16V31.4z"/>
		</g>
		<g>
			<path style="fill:#FFFFFF;" d="M67,29c-2.67,9.33-6.67,17.33-12,24c-5.33-6.67-9.33-14.67-12-24l4-4l8,6l8-6L67,29z"/>
		</g>
		<g>
			<path style="fill:#FFFFFF;" d="M87,46.9V78c0,0.552-0.448,1-1,1H76c-0.552,0-1-0.448-1-1V31.4C82.945,33.784,87,40.237,87,46.9z"
				/>
		</g>
		<g>
			<path style="fill:#FFFFFF;" d="M23,46.9V78c0,0.552,0.448,1,1,1h10c0.552,0,1-0.448,1-1V31.4C27.055,33.784,23,40.237,23,46.9z"
				/>
		</g>
		<g>
			<path style="fill:#5B5C5F;" d="M43,29l-8,2.4V45l4,16l-3.84,17.281c-0.095,0.428,0.099,0.868,0.48,1.085l12.594,7.196
				c0.438,0.25,0.994,0.135,1.296-0.268l4.67-6.227c0.189-0.252,0.485-0.4,0.8-0.4V53C49.67,46.33,45.67,38.33,43,29z"/>
		</g>
		<g>
			<circle style="fill:#EBEBEC;" cx="51" cy="58" r="2"/>
		</g>
		<g>
			<circle style="fill:#EBEBEC;" cx="59" cy="58" r="2"/>
		</g>
		<g>
			<circle style="fill:#EBEBEC;" cx="51" cy="67" r="2"/>
		</g>
		<g>
			<circle style="fill:#EBEBEC;" cx="59" cy="67" r="2"/>
		</g>
		<g>
			<path style="fill:#FA5655;" d="M55,37.326l-4.907,1.636c-0.259,0.086-0.537,0.026-0.752-0.163C49.126,38.609,49,38.314,49,38
				v-3.349c0-0.314,0.126-0.609,0.341-0.798c0.215-0.189,0.493-0.249,0.752-0.163L55,35.326V37.326z"/>
		</g>
		<g>
			<path style="fill:#FA5655;" d="M55,37.326l4.907,1.636c0.259,0.086,0.537,0.026,0.752-0.163C60.874,38.609,61,38.314,61,38
				v-3.349c0-0.314-0.126-0.609-0.341-0.798c-0.215-0.189-0.493-0.249-0.752-0.163L55,35.326V37.326z"/>
		</g>
	</g>
</g>
</svg>
