<?xml version="1.0" encoding="iso-8859-1"?>
<!-- Generator: Adobe Illustrator 17.1.0, SVG Export Plug-In . SVG Version: 6.00 Build 0)  -->
<!DOCTYPE svg PUBLIC "-//W3C//DTD SVG 1.0//EN" "http://www.w3.org/TR/2001/REC-SVG-20010904/DTD/svg10.dtd">
<svg version="1.0" xmlns="http://www.w3.org/2000/svg" xmlns:xlink="http://www.w3.org/1999/xlink" x="0px" y="0px" width="110px"
	 height="110px" viewBox="0 0 110 110" style="enable-background:new 0 0 110 110;" xml:space="preserve">
<g id="Artboard">
</g>
<g id="Multicolor">
	<g>
		<circle style="fill:#FABC3D;" cx="55" cy="55" r="55"/>
	</g>
	<g>
		<path style="fill:#3E3E3F;" d="M65,65c10.156-2.257,8.946-10.796,9-23c0-9.941-9.059-18-19-18s-19,8.059-19,18
			c0.034,10.368-0.796,20.823,9,23H65z"/>
		<path style="fill:#FFFFFF;" d="M83.242,77.663c-0.889-2.311-2.797-4.08-5.168-4.791L65,68l-10,5.019l-10-5.021l-13.241,4.875
			c-2.371,0.711-4.279,2.48-5.168,4.791L23,87h31.833H55h31.833L83.242,77.663z"/>
		<g>
			<polygon style="fill:#DF2C2C;" points="59,87 56,79 58,76.002 54.981,72.978 51.983,75.976 54,79 51,87 			"/>
		</g>
		<g>
			<polygon style="fill:#3E3E3F;" points="76.833,72.416 76.833,87 54.833,87 66.958,68.729 			"/>
		</g>
		<path style="fill:#AF7653;" d="M55,69v4l10-5v-6.567C62.159,65.829,58.284,67.905,55,69z"/>
		<path style="fill:#BF8662;" d="M45,61.433V68l10,5v-4C51.716,67.905,47.841,65.829,45,61.433z"/>
		<path style="fill:#BF8662;" d="M66,39l-8,5l1-9L48,45v-5c-6.359,6.063-7.922,8.148-9.921,8.792
			c0.271,2.747,1.326,5.653,4.099,6.133C44.62,64.027,50.396,67.465,55,69c4.604-1.535,10.38-4.973,12.822-14.075
			c1.98-0.342,3.082-1.925,3.651-3.801C68.008,49.368,66,45.542,66,39z"/>
		<path style="fill:#CC9978;" d="M48,45v-5c-6.359,6.063-7.922,8.148-9.921,8.792c0.271,2.747,1.326,5.653,4.099,6.133
			C44.62,64.027,50.396,67.465,55,69V38.636L48,45z"/>
		<g>
			<path style="fill:#84462D;" d="M50,58h10c0,0,0,3-5,3S50,58,50,58z"/>
		</g>
		<g>
			<path style="fill:#3E3E3F;" d="M52.006,47c0-1.104-0.896-2-2-2c-0.002,0-0.004,0-0.006,0c0.001,0.021,0.006,0.041,0.006,0.062
				c0,1.103-0.892,1.996-1.994,2C48.046,48.137,48.923,49,50.006,49C51.111,49,52.006,48.104,52.006,47z"/>
		</g>
		<g>
			<path style="fill:#3E3E3F;" d="M62,47c0-1.104-0.896-2-2-2c-0.002,0-0.004,0-0.006,0C59.995,45.021,60,45.042,60,45.063
				c0,1.103-0.892,1.996-1.994,2C58.04,48.137,58.917,49,60,49C61.104,49,62,48.104,62,47z"/>
		</g>
		<polygon style="fill:#FA5655;" points="55,87 55,72.997 54.981,72.978 51.983,75.976 54,79 51,87 		"/>
		<g>
			<polygon style="fill:#3E3E3F;" points="33,72.416 33,87 55,87 42.882,68.777 			"/>
		</g>
	</g>
</g>
</svg>
