<?xml version="1.0" encoding="iso-8859-1"?>
<!-- Generator: Adobe Illustrator 17.1.0, SVG Export Plug-In . SVG Version: 6.00 Build 0)  -->
<!DOCTYPE svg PUBLIC "-//W3C//DTD SVG 1.0//EN" "http://www.w3.org/TR/2001/REC-SVG-20010904/DTD/svg10.dtd">
<svg version="1.0" xmlns="http://www.w3.org/2000/svg" xmlns:xlink="http://www.w3.org/1999/xlink" x="0px" y="0px" width="110px"
	 height="110px" viewBox="0 0 110 110" style="enable-background:new 0 0 110 110;" xml:space="preserve">
<g id="Artboard">
</g>
<g id="Multicolor">
	<g>
		<circle style="fill:#25B7D3;" cx="55" cy="55" r="55"/>
	</g>
	<g>
		<path style="fill:#F7B4B4;" d="M57.655,67.997H55h-2.655c-0.856,0-1.671-0.365-2.24-1.004L45,62.997V67.5c0,0,0,7.5,10,7.5
			s10-7.5,10-7.5v-4.503l-5.105,3.996C59.326,67.632,58.511,67.997,57.655,67.997z"/>
		<path style="fill:#FBC8C8;" d="M50.105,66.993L45,62.997V67.5c0,0,0,7.5,10,7.5v-7.003h-2.655
			C51.489,67.997,50.674,67.632,50.105,66.993z"/>
		<g>
			<polygon style="fill:#FFFFFF;" points="43,68 45,67 54.985,71.981 49,78 			"/>
		</g>
		<g>
			<polygon style="fill:#FFFFFF;" points="67,68 65,67 55.015,71.981 61,78 			"/>
		</g>
		<g>
			<path style="fill:#FFFFFF;" d="M23,87.003l4-11c0.615-1.333,1.698-2.394,3.043-2.983L43,68.003l12,19H23z"/>
		</g>
		<g>
			<path style="fill:#FFFFFF;" d="M87,87.003l-4-11c-0.615-1.333-1.698-2.394-3.043-2.983L67,68.003l-12,19H87z"/>
		</g>
		<g>
			<polygon style="fill:#3E3E3F;" points="33,87.003 55,87.003 43,68.003 33,71.875 			"/>
		</g>
		<g>
			<polygon style="fill:#3E3E3F;" points="77,87.003 55,87.003 67,68.003 77,71.875 			"/>
		</g>
		<path style="fill:#F1F2F2;" d="M57.27,77.941C56.72,78.584,55.913,79,55,79s-1.72-0.416-2.27-1.059l-2.683,1.219L55,87.003
			l4.953-7.843L57.27,77.941z"/>
		<path style="fill:#FBC8C8;" d="M70,45c-1,0-1,1.111-1,1.111v-3.114c-0.003-1.647-0.041-3.193-0.178-4.622
			c-8.553,2.738-21.336,2.574-27.076-3.224c-0.623,2.214-0.74,4.864-0.746,7.845v10l4,10l5.105,3.996
			c0.569,0.639,1.384,1.004,2.24,1.004H55h2.655c0.856,0,1.671-0.365,2.24-1.004L65,62.997l3.207-8.017
			C71.042,54.776,72,50.476,72,47.222C72,46.111,71,45,70,45z"/>
		<path style="fill:#FBD7D7;" d="M41.746,35.152c-0.623,2.214-0.74,4.864-0.746,7.845v3.114c0,0,0-1.111-1-1.111s-2,1.111-2,2.222
			c0,3.253,0.958,7.554,3.793,7.758L45,62.997l5.105,3.996c0.569,0.639,1.384,1.004,2.24,1.004H55V40.018
			C49.727,39.688,44.763,38.199,41.746,35.152z"/>
		<g>
			<path style="fill:#3E3E3F;" d="M52,46.997c0-1.104-0.896-2-2-2c-0.002,0-0.004,0-0.006,0C49.995,45.019,50,45.039,50,45.06
				c0,1.103-0.892,1.996-1.994,2c0.033,1.075,0.91,1.938,1.994,1.938C51.104,48.997,52,48.102,52,46.997z"/>
		</g>
		<g>
			<path style="fill:#3E3E3F;" d="M61.994,46.997c0-1.104-0.896-2-2-2c-0.002,0-0.004,0-0.006,0
				c0.001,0.021,0.006,0.041,0.006,0.062c0,1.103-0.892,1.996-1.994,2c0.033,1.075,0.91,1.938,1.994,1.938
				C61.098,48.997,61.994,48.102,61.994,46.997z"/>
		</g>
		<g>
			<path style="fill:#F79392;" d="M50,56.997h10c0,0,0,3-5,3S50,56.997,50,56.997z"/>
		</g>
		<path style="fill:#3E3E3F;" d="M55,54.694c-5-5-6,4-13,0c5,6,13,2,13,2s8,4,13-2C61,58.694,60,49.694,55,54.694z"/>
		<path style="fill:#3E3E3F;" d="M75,35.264c-1.911-13.888-32.921-15.061-33.951-2.772C39.832,33.178,39,34.467,39,35.964V45
			c2,1,2,1.981,2,3.792v1.172h2V36.242c5.734,4.365,16.153,4.664,24,2.653v11.069h2v-1.172C69,46.981,69,46,71,45v-7.424
			C72.588,36.909,73.956,36.131,75,35.264z"/>
		<path style="fill:#DF2C2C;" d="M64,71l-6.73,3.059C56.72,73.416,55.913,73,55,73s-1.72,0.416-2.27,1.059L46,71v10l6.73-3.059
			C53.28,78.584,54.087,79,55,79s1.72-0.416,2.27-1.059L64,81V71z"/>
	</g>
</g>
</svg>
