<?xml version="1.0" encoding="iso-8859-1"?>
<!-- Generator: Adobe Illustrator 17.1.0, SVG Export Plug-In . SVG Version: 6.00 Build 0)  -->
<!DOCTYPE svg PUBLIC "-//W3C//DTD SVG 1.0//EN" "http://www.w3.org/TR/2001/REC-SVG-20010904/DTD/svg10.dtd">
<svg version="1.0" xmlns="http://www.w3.org/2000/svg" xmlns:xlink="http://www.w3.org/1999/xlink" x="0px" y="0px" width="110px"
	 height="110px" viewBox="0 0 110 110" style="enable-background:new 0 0 110 110;" xml:space="preserve">
<g id="Artboard">
</g>
<g id="Multicolor">
	<circle style="fill:#32BEA6;" cx="55" cy="55" r="55"/>
	<g>
		<g>
			<path style="fill:#9C6144;" d="M83.586,46.213c-0.781,0.781-2.047,0.781-2.828,0L63.787,29.243c-0.781-0.781-0.781-2.047,0-2.828
				l2.828-2.828c0.781-0.781,2.047-0.781,2.828,0l16.971,16.971c0.781,0.781,0.781,2.047,0,2.828L83.586,46.213z"/>
		</g>
		<g>
			<path style="fill:#F0F1F1;" d="M76.868,42.324L66.262,52.931l-9.192-9.192l10.607-10.607l-3.536-3.536L41.542,52.195
				L40.834,65.63L30.647,75.817l3.536,3.536L44.37,69.166l13.435-0.707L80.404,45.86L76.868,42.324z M45.923,64.077l0.511-9.703
				l6.393-6.393l9.192,9.192l-6.393,6.393L45.923,64.077z"/>
		</g>
		<g>
			<path style="fill:#3E3E3F;" d="M30.647,75.817l-5.966,2.335c-0.563,0.22-0.996,0.684-1.178,1.26
				c-0.182,0.577-0.095,1.206,0.24,1.71c1.367,2.057,3.078,3.769,5.136,5.136c0.504,0.335,1.133,0.423,1.71,0.241
				c0.577-0.182,1.04-0.616,1.261-1.18l2.335-5.966L30.647,75.817z"/>
		</g>
		<g>
			<path style="fill:#5B5C5F;" d="M30.647,75.817l-5.966,2.334c-0.563,0.22-0.997,0.684-1.179,1.26s-0.095,1.206,0.24,1.71
				c0.711,1.071,1.521,2.043,2.42,2.927l6.359-6.358L30.647,75.817z"/>
		</g>
		<g>
			<path style="fill:#AF7653;" d="M69.444,23.586c-0.781-0.781-2.047-0.781-2.829,0l-2.829,2.828c-0.781,0.781-0.781,2.047,0,2.829
				l8.591,8.591l5.657-5.657L69.444,23.586z"/>
		</g>
		<g>
			<polygon style="fill:#FFFFFF;" points="67.676,33.132 64.141,29.596 41.542,52.195 40.834,65.63 30.647,75.817 32.521,77.691 
				46.147,64.065 45.923,64.077 46.434,54.374 52.827,47.981 57.529,52.683 61.771,48.44 57.069,43.738 			"/>
		</g>
	</g>
</g>
</svg>
