<?xml version="1.0" encoding="iso-8859-1"?>
<!-- Generator: Adobe Illustrator 17.1.0, SVG Export Plug-In . SVG Version: 6.00 Build 0)  -->
<!DOCTYPE svg PUBLIC "-//W3C//DTD SVG 1.0//EN" "http://www.w3.org/TR/2001/REC-SVG-20010904/DTD/svg10.dtd">
<svg version="1.0" xmlns="http://www.w3.org/2000/svg" xmlns:xlink="http://www.w3.org/1999/xlink" x="0px" y="0px" width="110px"
	 height="110px" viewBox="0 0 110 110" style="enable-background:new 0 0 110 110;" xml:space="preserve">
<g id="Artboard">
</g>
<g id="Multicolor">
	<circle style="fill:#E04F5F;" cx="55" cy="55" r="55"/>
	<g>
		<path style="fill:#FACB1B;" d="M35,43c0-2.209,1.791-4,4-4h32c2.209,0,4,1.791,4,4v18.298c0,0.454-0.155,0.895-0.438,1.249
			l-3.123,3.904C71.155,66.807,71,67.247,71,67.702V83c0,2.209-1.791,4-4,4H43c-2.209,0-4-1.791-4-4V67.702
			c0-0.454-0.155-0.895-0.438-1.249l-3.123-3.904C35.155,62.193,35,61.753,35,61.298V43z"/>
		<path style="fill:#FBE158;" d="M67.92,39H39c-2.209,0-4,1.791-4,4v18.298c0,0.454,0.155,0.895,0.438,1.25l3.124,3.904
			C38.845,66.807,39,67.248,39,67.702v0.219L67.92,39z"/>
		<rect x="41" y="43" style="fill:#0D9681;" width="28" height="12"/>
		<polygon style="fill:#3E3E3F;" points="41,55 45,87 65,87 69,55 		"/>
		<polygon style="fill:#17B198;" points="41,43 41,55 51.92,55 63.92,43 		"/>
		<path style="fill:#3E3E3F;" d="M39,39h5.882l-1.778-15.117C43.045,23.379,42.618,23,42.111,23h-2.222
			c-0.507,0-0.934,0.379-0.993,0.883l-1.84,15.641C37.634,39.2,38.291,39,39,39z"/>
		<path style="fill:#3E3E3F;" d="M71,35c0-1.105-0.895-2-2-2h-4c-1.105,0-2,0.895-2,2v4h8V35z"/>
		<circle style="fill:#B6BCBD;" cx="55" cy="62" r="4"/>
		<circle style="fill:#B6BCBD;" cx="63" cy="60" r="2"/>
		<path style="fill:#B6BCBD;" d="M63,70c0,1.105-0.895,2-2,2H49c-1.105,0-2-0.895-2-2s0.895-2,2-2h12C62.105,68,63,68.895,63,70z"/>
		<path style="fill:#B6BCBD;" d="M63,76c0,1.105-0.895,2-2,2H49c-1.105,0-2-0.895-2-2s0.895-2,2-2h12C62.105,74,63,74.895,63,76z"/>
		<path style="fill:#B6BCBD;" d="M59,82c0,1.105-0.895,2-2,2h-4c-1.105,0-2-0.895-2-2s0.895-2,2-2h4C58.105,80,59,80.895,59,82z"/>
		<path style="fill:#5B5C5F;" d="M67,33h-2c-1.104,0-2,0.896-2,2v4h4V33z"/>
		<polygon style="fill:#5B5C5F;" points="41,55 42.213,64.707 51.92,55 		"/>
		<circle style="fill:#B6BCBD;" cx="47" cy="60" r="2"/>
	</g>
</g>
</svg>
