<?xml version="1.0" encoding="iso-8859-1"?>
<!-- Generator: Adobe Illustrator 17.1.0, SVG Export Plug-In . SVG Version: 6.00 Build 0)  -->
<!DOCTYPE svg PUBLIC "-//W3C//DTD SVG 1.0//EN" "http://www.w3.org/TR/2001/REC-SVG-20010904/DTD/svg10.dtd">
<svg version="1.0" xmlns="http://www.w3.org/2000/svg" xmlns:xlink="http://www.w3.org/1999/xlink" x="0px" y="0px" width="110px"
	 height="110px" viewBox="0 0 110 110" style="enable-background:new 0 0 110 110;" xml:space="preserve">
<g id="Artboard">
</g>
<g id="Multicolor">
	<circle style="fill:#FABC3D;" cx="55" cy="55" r="55"/>
	<g>
		<path style="fill:#059BBF;" d="M73,43c0-1.105-0.895-2-2-2H42c-1.105,0-2,0.895-2,2v42c0,1.105,0.895,2,2,2h29
			c1.105,0,2-0.895,2-2V43z"/>
		<path style="fill:#FFFFFF;" d="M65,61c0-5.523-4.477-10-10-10s-10,4.477-10,10v26h20V61z"/>
		<path style="fill:#3E3E3F;" d="M23,54.69V67v4c0,1.1,0.9,2,2,2h2v-6h-1V54.69c0-38.236,58-38.274,58,0V67h-1v6h2c1.1,0,2-0.9,2-2
			v-4V54.69C87,12.456,23,12.426,23,54.69z"/>
		<path style="fill:#DF2C2C;" d="M35,77c0,1.105-0.895,2-2,2h-4c-1.105,0-2-0.895-2-2V57c0-1.105,0.895-2,2-2h4c1.105,0,2,0.895,2,2
			V77z"/>
		<path style="fill:#DF2C2C;" d="M83,77c0,1.105-0.895,2-2,2h-4c-1.105,0-2-0.895-2-2V57c0-1.105,0.895-2,2-2h4c1.105,0,2,0.895,2,2
			V77z"/>
		<rect x="37" y="47" style="fill:#3E3E3F;" width="3" height="8"/>
		<rect x="37" y="56" style="fill:#3E3E3F;" width="3" height="8"/>
		<rect x="37" y="65" style="fill:#3E3E3F;" width="3" height="8"/>
		<path style="fill:#0484AB;" d="M57,41l11.28,9.4c0.456,0.38,0.72,0.943,0.72,1.536V87h2c1.1,0,2-0.9,2-2V43c0-1.1-0.9-2-2-2H57z"
			/>
		<path style="fill:#FA5655;" d="M35,67V57c0-1.104-0.896-2-2-2h-4c-1.104,0-2,0.896-2,2v10H35z"/>
		<path style="fill:#FA5655;" d="M83,67V57c0-1.104-0.896-2-2-2h-4c-1.104,0-2,0.896-2,2v10H83z"/>
		<path style="fill:#3E3E3F;" d="M55,73c-3.29,0-5.958,2.648-5.997,5.93c0-0.014-0.003-0.026-0.003-0.04V70v-8.89
			c0-0.014,0.003-0.026,0.003-0.04C49.042,64.352,51.71,67,55,67c3.314,0,6-2.687,6-6s-2.686-6-6-6c-4,0-8,3-8,8.11V70v6.89
			C47,82,51,85,55,85c3.314,0,6-2.687,6-6S58.314,73,55,73z M55,59c1.104,0,2,0.896,2,2s-0.896,2-2,2s-2-0.896-2-2S53.896,59,55,59z
			 M55,81c-1.104,0-2-0.896-2-2s0.896-2,2-2s2,0.896,2,2S56.104,81,55,81z"/>
	</g>
</g>
</svg>
