<?xml version="1.0" encoding="iso-8859-1"?>
<!-- Generator: Adobe Illustrator 17.1.0, SVG Export Plug-In . SVG Version: 6.00 Build 0)  -->
<!DOCTYPE svg PUBLIC "-//W3C//DTD SVG 1.0//EN" "http://www.w3.org/TR/2001/REC-SVG-20010904/DTD/svg10.dtd">
<svg version="1.0" xmlns="http://www.w3.org/2000/svg" xmlns:xlink="http://www.w3.org/1999/xlink" x="0px" y="0px" width="110px"
	 height="110px" viewBox="0 0 110 110" style="enable-background:new 0 0 110 110;" xml:space="preserve">
<g id="Artboard">
</g>
<g id="Multicolor">
	<circle style="fill:#25B7D3;" cx="55" cy="55" r="55"/>
	<g>
		<path style="fill:#D4A263;" d="M35,74.5c0,1.105,0.895,2,2,2h36c1.105,0,2-0.895,2-2V49c0-1.105-0.895-2-2-2H37
			c-1.105,0-2,0.895-2,2V74.5z"/>
		<path style="fill:#EDBC7C;" d="M55,47H37c-1.104,0-2,0.896-2,2v25.5c0,1.104,0.896,2,2,2h18V47z"/>
		<path style="fill:#FFFFFF;" d="M37,47c-1.105,0-2,0.895-2,2v7h40v-7c0-1.105-0.895-2-2-2H37z"/>
		<path style="fill:#E2E4E5;" d="M73,47H55v9h20v-7C75,47.896,74.104,47,73,47z"/>
		<polygon style="fill:#D4A263;" points="56,27 55,27 54,27 51,47 55,47 59,47 		"/>
		<polygon style="fill:#EDBC7C;" points="54,27 51,47 55,47 55,27 		"/>
		<path style="fill:#818284;" d="M56.34,25.481l0.345-2.031c0.165,0.033,2.824,0.566,14.779,2.959
			c4.989,0.999,8.359,6.057,7.361,11.046C77.949,41.827,74.082,45,69.629,45C64.324,45,54.01,39.201,56.34,25.481z"/>
		<path style="fill:#FFFFFF;" d="M58.315,25.816c0.215,0.043,8.863,1.775,12.76,2.555s6.593,4.692,5.792,8.692
			C76.164,40.573,73.081,43,69.633,43C65.512,43,56.202,38.259,58.315,25.816z"/>
		<path style="fill:#818284;" d="M53.66,25.481l-0.345-2.031c-0.165,0.033-2.824,0.566-14.779,2.959
			c-4.989,0.999-8.359,6.057-7.361,11.046C32.051,41.827,35.918,45,40.371,45C45.676,45,55.99,39.201,53.66,25.481z"/>
		<path style="fill:#FFFFFF;" d="M51.685,25.816c-0.215,0.043-8.863,1.775-12.76,2.555s-6.593,4.692-5.792,8.692
			C33.836,40.573,36.919,43,40.367,43C44.488,43,53.798,38.259,51.685,25.816z"/>
		<rect x="39" y="66" style="fill:#8E6134;" width="12" height="4"/>
		<rect x="63" y="49" style="fill:#4AC3AF;" width="6" height="5"/>
		<path style="fill:#3E3E3F;" d="M75,85c0,1.105,0.895,2,2,2h8c1.105,0,2-0.895,2-2V65c0-1.105-0.895-2-2-2h-8c-1.105,0-2,0.895-2,2
			V85z"/>
		<rect x="75" y="65" style="fill:#5B5C5F;" width="12" height="4"/>
		<rect x="75" y="73" style="fill:#5B5C5F;" width="12" height="4"/>
		<rect x="75" y="81" style="fill:#5B5C5F;" width="12" height="4"/>
		<path style="fill:#3E3E3F;" d="M23,85c0,1.105,0.895,2,2,2h8c1.105,0,2-0.895,2-2V65c0-1.105-0.895-2-2-2h-8c-1.105,0-2,0.895-2,2
			V85z"/>
		<rect x="23" y="65" style="fill:#5B5C5F;" width="12" height="4"/>
		<rect x="23" y="73" style="fill:#5B5C5F;" width="12" height="4"/>
		<rect x="23" y="81" style="fill:#5B5C5F;" width="12" height="4"/>
		<circle style="fill:#DF2C2C;" cx="67.375" cy="67.625" r="2.625"/>
		<circle style="fill:#3E3E3F;" cx="64.979" cy="33.092" r="5.482"/>
		<circle style="fill:#FFFFFF;" cx="65.238" cy="32.496" r="1.762"/>
		<circle style="fill:#3E3E3F;" cx="45.021" cy="33.092" r="5.482"/>
		<circle style="fill:#FFFFFF;" cx="44.762" cy="32.496" r="1.762"/>
	</g>
</g>
</svg>
