<?xml version="1.0" encoding="iso-8859-1"?>
<!-- Generator: Adobe Illustrator 17.1.0, SVG Export Plug-In . SVG Version: 6.00 Build 0)  -->
<!DOCTYPE svg PUBLIC "-//W3C//DTD SVG 1.0//EN" "http://www.w3.org/TR/2001/REC-SVG-20010904/DTD/svg10.dtd">
<svg version="1.0" xmlns="http://www.w3.org/2000/svg" xmlns:xlink="http://www.w3.org/1999/xlink" x="0px" y="0px" width="110px"
	 height="110px" viewBox="0 0 110 110" style="enable-background:new 0 0 110 110;" xml:space="preserve">
<g id="Artboard">
</g>
<g id="Multicolor">
	<circle style="fill:#FABC3D;" cx="55" cy="55" r="55"/>
	<g>
		<path style="fill:#84462D;" d="M87,67c0,2.209-1.791,4-4,4H27c-2.209,0-4-1.791-4-4V27c0-2.209,1.791-4,4-4h56
			c2.209,0,4,1.791,4,4V67z"/>
		<path style="fill:#9C6144;" d="M79,35H47v-2h30C78.105,33,79,33.895,79,35z"/>
		<path style="fill:#9C6144;" d="M79,47H63v-2h14C78.105,45,79,45.895,79,47z"/>
		<path style="fill:#9C6144;" d="M77,68h-4v-1h4V68z M69,68h-4v-1h4V68z"/>
		<g>
			<polygon style="fill:#9C6144;" points="83.5,68 81,68 81,67 82.5,67 82.5,65.5 83.5,65.5 			"/>
		</g>
		<g>
			<path style="fill:#9C6144;" d="M83.5,61.5h-1v-4h1V61.5z M83.5,53.5h-1v-4h1V53.5z M83.5,45.5h-1v-4h1V45.5z M83.5,37.5h-1v-4h1
				V37.5z"/>
		</g>
		<g>
			<polygon style="fill:#9C6144;" points="83.5,29.5 82.5,29.5 82.5,28 81,28 81,27 83.5,27 			"/>
		</g>
		<g>
			<path style="fill:#9C6144;" d="M77,28h-4v-1h4V28z M69,28h-4v-1h4V28z M61,28h-4v-1h4V28z M53,28h-4v-1h4V28z M45,28h-4v-1h4V28z
				 M37,28h-4v-1h4V28z"/>
		</g>
		<path style="fill:#9C6144;" d="M63,41.708c0-1.636-0.996-3.106-2.514-3.714L25.743,24.097c-0.616-0.246-1.314-0.171-1.864,0.201
			C23.329,24.67,23,25.29,23,25.954v42.338c0,1.636,0.996,3.106,2.514,3.714l32,14.708c1.232,0.493,2.629,0.342,3.728-0.402
			C62.342,85.568,63,84.327,63,83V41.708z"/>
		<path style="fill:#F4D0A1;" d="M43,72c0-0.321,0.155-0.623,0.415-0.811s0.596-0.239,0.901-0.137l10,3.949
			C54.725,75.136,55,75.518,55,75.949V78c0,0.321-0.155,0.623-0.415,0.811s-0.596,0.239-0.901,0.137l-10-3.949
			C43.275,74.864,43,74.482,43,74.051V72z"/>
		<path style="fill:#AF7653;" d="M25.743,24.097c-0.616-0.247-1.314-0.171-1.864,0.201C23.329,24.67,23,25.291,23,25.954v42.338
			c0,0.57,0.127,1.117,0.35,1.618l33.407-33.407L25.743,24.097z"/>
	</g>
</g>
</svg>
