<?xml version="1.0" encoding="iso-8859-1"?>
<!-- Generator: Adobe Illustrator 17.1.0, SVG Export Plug-In . SVG Version: 6.00 Build 0)  -->
<!DOCTYPE svg PUBLIC "-//W3C//DTD SVG 1.0//EN" "http://www.w3.org/TR/2001/REC-SVG-20010904/DTD/svg10.dtd">
<svg version="1.0" xmlns="http://www.w3.org/2000/svg" xmlns:xlink="http://www.w3.org/1999/xlink" x="0px" y="0px" width="110px"
	 height="110px" viewBox="0 0 110 110" style="enable-background:new 0 0 110 110;" xml:space="preserve">
<g id="Artboard">
</g>
<g id="Multicolor">
	<circle style="fill:#25B7D3;" cx="55" cy="55" r="55"/>
	<g>
		<g>
			<path style="fill:#F0F1F1;" d="M83,27v56c0,2.21-1.79,4-4,4H31c-2.21,0-4-1.79-4-4V27c0-2.21,1.79-4,4-4h48
				C81.21,23,83,24.79,83,27z"/>
		</g>
		<g>
			<path style="fill:#FFFFFF;" d="M83,27c0-2.21-1.79-4-4-4H31c-2.21,0-4,1.79-4,4v56c0,1.263,0.596,2.375,1.51,3.108L83,31.618V27z
				"/>
		</g>
		<g>
			<circle style="fill:#CFD3D4;" cx="55" cy="61" r="18"/>
		</g>
		<g>
			<rect x="27" y="27" style="fill:#3E3E3F;" width="56" height="12"/>
		</g>
		<g>
			<path style="fill:#E2E4E5;" d="M55,43c-9.941,0-18,8.059-18,18c0,4.619,1.754,8.817,4.614,12.004l25.39-25.39
				C63.817,44.754,59.619,43,55,43z"/>
		</g>
		<g>
			<polygon style="fill:#5B5C5F;" points="83,27 27,27 27,39 75.618,39 83,31.618 			"/>
		</g>
		<g>
			<rect x="51" y="31" style="fill:#FBE158;" width="2" height="4"/>
		</g>
		<g>
			<rect x="55" y="31" style="fill:#F99134;" width="2" height="4"/>
		</g>
		<g>
			<rect x="59" y="31" style="fill:#F37A10;" width="2" height="4"/>
		</g>
		<g>
			<circle style="fill:#CFD3D4;" cx="77" cy="33" r="3"/>
		</g>
		<g>
			<polygon style="fill:#9E9FA0;" points="31,31 45,31 43,35 33,35 			"/>
		</g>
		<g>
			<path style="fill:#3E3E3F;" d="M69,61c0,1.92-0.39,3.74-1.09,5.41c-0.52,1.25-1.22,2.4-2.06,3.43C63.28,72.99,59.38,75,55,75
				c-4.46,0-8.44-2.09-11-5.35c-0.83-1.05-1.5-2.21-2-3.47c-0.65-1.6-1-3.35-1-5.18c0-7.05,5.22-12.89,12-13.86
				c0.65-0.09,1.32-0.14,2-0.14s1.35,0.05,2,0.14C63.78,48.11,69,53.95,69,61z"/>
		</g>
		<g>
			<path style="fill:#5B5C5F;" d="M55,47c-7.766,0-14,6.306-14,14c0,3.313,1.146,6.505,3.453,9.165l19.722-19.722
				C61.657,48.252,58.462,47,55,47z"/>
		</g>
		<g>
			<path style="fill:#FFFFFF;" d="M59,61.07l-0.007-0.004C58.994,61.043,59,61.022,59,61c0-1.477-0.809-2.752-2-3.445V47.14
				C56.35,47.05,55.68,47,55,47s-1.35,0.05-2,0.14v10.415c-1.188,0.691-1.995,1.962-1.999,3.435L51,60.99l-9,5.19
				c0.5,1.26,1.17,2.42,2,3.47l9-5.19l0.013-0.008c1.224,0.707,2.63,0.741,3.907,0.036L56.94,64.5l8.91,5.34
				c0.84-1.03,1.54-2.18,2.06-3.43L59,61.07z"/>
		</g>
	</g>
</g>
</svg>
