<?xml version="1.0" encoding="iso-8859-1"?>
<!-- Generator: Adobe Illustrator 17.1.0, SVG Export Plug-In . SVG Version: 6.00 Build 0)  -->
<!DOCTYPE svg PUBLIC "-//W3C//DTD SVG 1.0//EN" "http://www.w3.org/TR/2001/REC-SVG-20010904/DTD/svg10.dtd">
<svg version="1.0" xmlns="http://www.w3.org/2000/svg" xmlns:xlink="http://www.w3.org/1999/xlink" x="0px" y="0px" width="110px"
	 height="110px" viewBox="0 0 110 110" style="enable-background:new 0 0 110 110;" xml:space="preserve">
<g id="Artboard">
</g>
<g id="Multicolor">
	<circle style="fill:#32BEA6;" cx="55" cy="55" r="55"/>
	<g>
		<path style="fill:#CFD3D4;" d="M79,53v4c0,1.1-0.9,2-2,2h-2.4c0.26-1.29,0.4-2.63,0.4-4s-0.14-2.71-0.4-4H77
			C78.1,51,79,51.9,79,53z"/>
		<path style="fill:#F0F1F1;" d="M69.039,30.917C68.995,29.846,68.114,29,67.042,29H42.958c-1.073,0-1.952,0.845-1.997,1.917
			C40.446,43.327,35,46.743,35,55c0,8.257,5.446,11.673,5.961,24.083C41.005,80.154,41.886,81,42.958,81h24.084
			c1.073,0,1.952-0.845,1.997-1.917C69.554,66.673,75,63.257,75,55C75,46.744,69.554,43.327,69.039,30.917z"/>
		<path style="fill:#FFFFFF;" d="M63,27v9.67C60.469,35.554,57.746,35,55,35c-2.743,0-5.467,0.553-8,1.67V27c0-2.21,1.79-4,4-4h8
			C61.21,23,63,24.79,63,27z"/>
		<path style="fill:#E2E4E5;" d="M63,27v9.67c-1.27-0.56-2.61-0.99-4-1.27V23C61.21,23,63,24.79,63,27z"/>
		<path style="fill:#E2E4E5;" d="M51,23v12.4c-1.39,0.28-2.73,0.71-4,1.27V27C47,24.79,48.79,23,51,23z"/>
		<path style="fill:#FFFFFF;" d="M47,83v-9.67c2.531,1.116,5.254,1.67,8,1.67c2.743,0,5.467-0.553,8-1.67V83c0,2.21-1.79,4-4,4h-8
			C48.79,87,47,85.21,47,83z"/>
		<path style="fill:#E2E4E5;" d="M47,83v-9.67c1.27,0.56,2.61,0.99,4,1.27V87C48.79,87,47,85.21,47,83z"/>
		<path style="fill:#E2E4E5;" d="M59,87V74.6c1.39-0.28,2.73-0.71,4-1.27V83C63,85.21,61.21,87,59,87z"/>
		<path style="fill:#3E3E3F;" d="M75,55c0,11.036-8.937,20-20,20c-11.05,0-20-8.95-20-20c0-11.07,8.98-20,20-20
			C66.02,35,75,43.925,75,55z"/>
		<circle style="fill:#6FDAF1;" cx="55" cy="55" r="16"/>
		<circle style="fill:#FFFFFF;" cx="67" cy="55" r="2"/>
		<circle style="fill:#FFFFFF;" cx="55" cy="67" r="2"/>
		<path style="fill:#C9F2F8;" d="M55,39c-8.836,0-16,7.164-16,16c0,4.403,1.78,8.39,4.658,11.283l22.625-22.625
			C63.39,40.78,59.403,39,55,39z"/>
		<circle style="fill:#FFFFFF;" cx="55" cy="43" r="2"/>
		<circle style="fill:#FFFFFF;" cx="43" cy="55" r="2"/>
		<g>
			<path style="fill:#FA5655;" d="M56.293,57.707l-6-6c-0.391-0.391-0.391-1.023,0-1.414s1.023-0.391,1.414,0l6,6
				c0.391,0.391,0.391,1.023,0,1.414C57.316,58.098,56.684,58.098,56.293,57.707z"/>
		</g>
		<g>
			<path style="fill:#3E3E3F;" d="M52.293,57.707c-0.391-0.391-0.391-1.023,0-1.414l10-10c0.391-0.391,1.023-0.391,1.414,0
				s0.391,1.023,0,1.414l-10,10C53.316,58.098,52.684,58.098,52.293,57.707z"/>
		</g>
		<path style="fill:#CFD3D4;" d="M77,51h-2.4c0.26,1.29,0.4,2.63,0.4,4h4v-2C79,51.9,78.1,51,77,51z"/>
	</g>
</g>
</svg>
