<?xml version="1.0" encoding="iso-8859-1"?>
<!-- Generator: Adobe Illustrator 17.1.0, SVG Export Plug-In . SVG Version: 6.00 Build 0)  -->
<!DOCTYPE svg PUBLIC "-//W3C//DTD SVG 1.0//EN" "http://www.w3.org/TR/2001/REC-SVG-20010904/DTD/svg10.dtd">
<svg version="1.0" xmlns="http://www.w3.org/2000/svg" xmlns:xlink="http://www.w3.org/1999/xlink" x="0px" y="0px" width="110px"
	 height="110px" viewBox="0 0 110 110" style="enable-background:new 0 0 110 110;" xml:space="preserve">
<g id="Artboard" style="display:none;">
	
		<rect x="-72.5" y="-674.5" style="display:inline;fill:#808080;stroke:#000000;stroke-miterlimit:10;" width="1392" height="1369"/>
</g>
<g id="R-Multicolor">
	<circle style="fill:#FABC3D;" cx="55" cy="55" r="55"/>
	<g>
		<g>
			<path style="fill:#099686;" d="M73.903,23.944c0.464-0.464,1.1-0.715,1.756-0.693c0.656,0.022,1.274,0.315,1.706,0.809
				c13.064,14.906,12.488,37.609-1.73,51.826c-14.218,14.218-36.92,14.795-51.826,1.73c-0.493-0.432-0.785-1.05-0.807-1.706
				c-0.022-0.656,0.228-1.293,0.692-1.757L73.903,23.944z"/>
		</g>
		<g>
			<path style="fill:#12B2A0;" d="M77.366,24.059c-0.433-0.494-1.05-0.787-1.707-0.809c-0.656-0.022-1.292,0.229-1.756,0.693
				l-50.21,50.209c-0.464,0.464-0.714,1.101-0.692,1.757c0.022,0.656,0.314,1.273,0.807,1.706c2.819,2.471,5.918,4.452,9.185,5.947
				l50.319-50.319C81.817,29.977,79.836,26.878,77.366,24.059z"/>
		</g>
		<g>
			<path style="fill:#F0F1F1;" d="M72.972,24.861c13.148,13.148,13.148,34.463,0,47.61s-34.463,13.148-47.61,0L72.972,24.861z"/>
		</g>
		<g>
			<path style="fill:#FFFFFF;" d="M72.972,24.861l-47.61,47.61c3.324,3.324,7.171,5.804,11.275,7.448L80.42,36.136
				C78.777,32.032,76.296,28.185,72.972,24.861z"/>
		</g>
		<g>
			<path style="fill:#DF2C2C;" d="M69.603,28.243c11.491,11.491,11.491,30.12,0,41.61s-30.12,11.491-41.61,0L69.603,28.243z"/>
		</g>
		<g>
			<path style="fill:#FA5655;" d="M69.603,28.243l-41.611,41.61c3.366,3.366,7.346,5.738,11.578,7.132l37.165-37.165
				C75.341,35.589,72.969,31.609,69.603,28.243z"/>
		</g>
		<g>
			<path style="fill:#84462D;" d="M45.572,66.854c0.499,1.211-0.079,2.598-1.29,3.097s-2.598-0.079-3.097-1.29
				s0.387-5.29,0.387-5.29S45.073,65.642,45.572,66.854z"/>
		</g>
		<g>
			<path style="fill:#84462D;" d="M66.603,45.823c1.211,0.499,2.598-0.079,3.097-1.29s-0.079-2.598-1.29-3.097
				s-5.29,0.387-5.29,0.387S65.392,45.324,66.603,45.823z"/>
		</g>
		<g>
			<path style="fill:#84462D;" d="M57.185,54.08c0.926,0.926,0.926,2.428,0,3.355s-2.428,0.926-3.355,0s-1.677-5.032-1.677-5.032
				S56.258,53.154,57.185,54.08z"/>
		</g>
		<g>
			<path style="fill:#692E19;" d="M57.807,66.505c0.956,0.896,1.004,2.397,0.108,3.353c-0.896,0.956-2.397,1.004-3.353,0.108
				c-0.956-0.896-1.839-4.975-1.839-4.975S56.851,65.609,57.807,66.505z"/>
		</g>
		<g>
			<path style="fill:#692E19;" d="M66.227,58.104c0.886,0.965,2.387,1.029,3.352,0.143c0.965-0.886,1.029-2.387,0.143-3.352
				c-0.886-0.965-4.956-1.891-4.956-1.891S65.341,57.138,66.227,58.104z"/>
		</g>
	</g>
</g>
<g id="Multicolor" style="display:none;">
	<g style="display:inline;">
		<g>
			<path style="fill:#099686;" d="M73.903,23.944c0.464-0.464,1.1-0.715,1.756-0.693c0.656,0.022,1.274,0.315,1.706,0.809
				c13.064,14.906,12.488,37.609-1.73,51.826c-14.218,14.218-36.92,14.795-51.826,1.73c-0.493-0.432-0.785-1.05-0.807-1.706
				c-0.022-0.656,0.228-1.293,0.692-1.757L73.903,23.944z"/>
		</g>
		<g>
			<path style="fill:#12B2A0;" d="M77.366,24.059c-0.433-0.494-1.05-0.787-1.707-0.809c-0.656-0.022-1.292,0.229-1.756,0.693
				l-50.21,50.209c-0.464,0.464-0.714,1.101-0.692,1.757c0.022,0.656,0.314,1.273,0.807,1.706c2.819,2.471,5.918,4.452,9.185,5.947
				l50.319-50.319C81.817,29.977,79.836,26.878,77.366,24.059z"/>
		</g>
		<g>
			<path style="fill:#F0F1F1;" d="M72.972,24.861c13.148,13.148,13.148,34.463,0,47.61s-34.463,13.148-47.61,0L72.972,24.861z"/>
		</g>
		<g>
			<path style="fill:#FFFFFF;" d="M72.972,24.861l-47.61,47.61c3.324,3.324,7.171,5.804,11.275,7.448L80.42,36.136
				C78.777,32.032,76.296,28.185,72.972,24.861z"/>
		</g>
		<g>
			<path style="fill:#DF2C2C;" d="M69.603,28.243c11.491,11.491,11.491,30.12,0,41.61s-30.12,11.491-41.61,0L69.603,28.243z"/>
		</g>
		<g>
			<path style="fill:#FA5655;" d="M69.603,28.243l-41.611,41.61c3.366,3.366,7.346,5.738,11.578,7.132l37.165-37.165
				C75.341,35.589,72.969,31.609,69.603,28.243z"/>
		</g>
		<g>
			<path style="fill:#84462D;" d="M45.572,66.854c0.499,1.211-0.079,2.598-1.29,3.097s-2.598-0.079-3.097-1.29
				s0.387-5.29,0.387-5.29S45.073,65.642,45.572,66.854z"/>
		</g>
		<g>
			<path style="fill:#84462D;" d="M66.603,45.823c1.211,0.499,2.598-0.079,3.097-1.29s-0.079-2.598-1.29-3.097
				s-5.29,0.387-5.29,0.387S65.392,45.324,66.603,45.823z"/>
		</g>
		<g>
			<path style="fill:#84462D;" d="M57.185,54.08c0.926,0.926,0.926,2.428,0,3.355s-2.428,0.926-3.355,0s-1.677-5.032-1.677-5.032
				S56.258,53.154,57.185,54.08z"/>
		</g>
		<g>
			<path style="fill:#692E19;" d="M57.807,66.505c0.956,0.896,1.004,2.397,0.108,3.353c-0.896,0.956-2.397,1.004-3.353,0.108
				c-0.956-0.896-1.839-4.975-1.839-4.975S56.851,65.609,57.807,66.505z"/>
		</g>
		<g>
			<path style="fill:#692E19;" d="M66.227,58.104c0.886,0.965,2.387,1.029,3.352,0.143c0.965-0.886,1.029-2.387,0.143-3.352
				c-0.886-0.965-4.956-1.891-4.956-1.891S65.341,57.138,66.227,58.104z"/>
		</g>
	</g>
</g>
<g id="Blue" style="display:none;">
	<g style="display:inline;">
		<g>
			<path style="fill:#0F6175;" d="M73.902,23.944c0.465-0.464,1.101-0.715,1.757-0.693c0.656,0.022,1.273,0.315,1.706,0.809
				c13.064,14.907,12.488,37.609-1.73,51.827c-14.218,14.218-36.92,14.795-51.826,1.73c-0.493-0.433-0.785-1.05-0.807-1.706
				c-0.023-0.656,0.226-1.293,0.691-1.757L73.902,23.944z"/>
		</g>
		<g>
			<path style="fill:#33899E;" d="M77.365,24.059c-0.432-0.494-1.05-0.787-1.706-0.809c-0.656-0.022-1.292,0.229-1.757,0.693
				L23.693,74.153c-0.465,0.464-0.714,1.101-0.691,1.757c0.021,0.656,0.313,1.273,0.807,1.705c2.819,2.471,5.918,4.452,9.185,5.947
				l50.319-50.319C81.817,29.977,79.836,26.878,77.365,24.059z"/>
		</g>
		<g>
			<path style="fill:#E1F5FA;" d="M72.973,24.861c13.147,13.148,13.147,34.463,0,47.61c-13.149,13.148-34.463,13.148-47.611,0
				L72.973,24.861z"/>
		</g>
		<g>
			<path style="fill:#FFFFFF;" d="M72.973,24.861l-47.61,47.61c3.323,3.324,7.171,5.805,11.274,7.448L80.42,36.136
				C78.777,32.032,76.297,28.185,72.973,24.861z"/>
		</g>
		<g>
			<path style="fill:#0081A1;" d="M69.604,28.243c11.49,11.491,11.49,30.12,0,41.611c-11.491,11.491-30.12,11.491-41.611,0
				L69.604,28.243z"/>
		</g>
		<g>
			<path style="fill:#009FC7;" d="M69.604,28.243l-41.611,41.61c3.366,3.366,7.346,5.738,11.578,7.132l37.164-37.165
				C75.341,35.589,72.969,31.609,69.604,28.243z"/>
		</g>
		<g>
			<path style="fill:#BBE7F2;" d="M45.572,66.854c0.499,1.211-0.078,2.598-1.29,3.097c-1.212,0.499-2.599-0.079-3.097-1.29
				c-0.499-1.212,0.387-5.29,0.387-5.29S45.074,65.643,45.572,66.854z"/>
		</g>
		<g>
			<path style="fill:#BBE7F2;" d="M66.604,45.823c1.211,0.499,2.598-0.079,3.096-1.29c0.5-1.211-0.078-2.598-1.289-3.097
				c-1.212-0.499-5.291,0.387-5.291,0.387S65.392,45.324,66.604,45.823z"/>
		</g>
		<g>
			<path style="fill:#BBE7F2;" d="M57.185,54.081c0.927,0.926,0.927,2.428,0,3.354c-0.927,0.926-2.429,0.926-3.354,0
				c-0.927-0.926-1.678-5.032-1.678-5.032S56.258,53.154,57.185,54.081z"/>
		</g>
		<g>
			<path style="fill:#BBE7F2;" d="M57.807,66.505c0.955,0.896,1.004,2.397,0.108,3.353c-0.896,0.956-2.397,1.004-3.353,0.108
				c-0.957-0.896-1.84-4.975-1.84-4.975S56.852,65.609,57.807,66.505z"/>
		</g>
		<g>
			<path style="fill:#BBE7F2;" d="M66.227,58.104c0.887,0.965,2.387,1.029,3.352,0.144c0.965-0.886,1.029-2.387,0.144-3.352
				c-0.886-0.965-4.956-1.891-4.956-1.891S65.342,57.139,66.227,58.104z"/>
		</g>
	</g>
</g>
<g id="R-Blue" style="display:none;">
	<circle style="display:inline;fill:#81D2EB;" cx="55" cy="55" r="55"/>
	<g style="display:inline;">
		<g>
			<path style="fill:#0F6175;" d="M73.902,23.944c0.465-0.464,1.101-0.715,1.757-0.693c0.656,0.022,1.273,0.315,1.706,0.809
				c13.064,14.907,12.488,37.609-1.73,51.827c-14.218,14.218-36.92,14.795-51.826,1.73c-0.493-0.433-0.785-1.05-0.807-1.706
				c-0.023-0.656,0.226-1.293,0.691-1.757L73.902,23.944z"/>
		</g>
		<g>
			<path style="fill:#33899E;" d="M77.365,24.059c-0.432-0.494-1.05-0.787-1.706-0.809c-0.656-0.022-1.292,0.229-1.757,0.693
				l-50.209,50.21c-0.465,0.464-0.714,1.101-0.691,1.757c0.021,0.656,0.313,1.273,0.807,1.706c2.819,2.471,5.918,4.452,9.185,5.947
				l50.319-50.319C81.817,29.977,79.836,26.878,77.365,24.059z"/>
		</g>
		<g>
			<path style="fill:#E1F5FA;" d="M72.973,24.861c13.147,13.148,13.147,34.463,0,47.61c-13.149,13.148-34.463,13.148-47.611,0
				L72.973,24.861z"/>
		</g>
		<g>
			<path style="fill:#FFFFFF;" d="M72.973,24.861l-47.61,47.61c3.323,3.324,7.171,5.805,11.274,7.448L80.42,36.136
				C78.777,32.032,76.297,28.185,72.973,24.861z"/>
		</g>
		<g>
			<path style="fill:#0081A1;" d="M69.604,28.243c11.49,11.491,11.49,30.12,0,41.611c-11.491,11.491-30.12,11.491-41.611,0
				L69.604,28.243z"/>
		</g>
		<g>
			<path style="fill:#009FC7;" d="M69.604,28.243l-41.611,41.61c3.366,3.366,7.346,5.738,11.578,7.132l37.164-37.165
				C75.341,35.589,72.969,31.609,69.604,28.243z"/>
		</g>
		<g>
			<path style="fill:#BBE7F2;" d="M45.572,66.854c0.499,1.211-0.078,2.598-1.29,3.097c-1.212,0.498-2.599-0.079-3.097-1.291
				c-0.499-1.211,0.387-5.29,0.387-5.29S45.074,65.643,45.572,66.854z"/>
		</g>
		<g>
			<path style="fill:#BBE7F2;" d="M66.604,45.823c1.211,0.499,2.598-0.079,3.096-1.29c0.5-1.211-0.078-2.598-1.289-3.097
				c-1.212-0.499-5.291,0.387-5.291,0.387S65.392,45.324,66.604,45.823z"/>
		</g>
		<g>
			<path style="fill:#BBE7F2;" d="M57.185,54.081c0.927,0.926,0.927,2.428,0,3.354c-0.927,0.926-2.429,0.926-3.354,0
				c-0.927-0.926-1.678-5.032-1.678-5.032S56.258,53.154,57.185,54.081z"/>
		</g>
		<g>
			<path style="fill:#BBE7F2;" d="M57.807,66.505c0.955,0.896,1.004,2.397,0.108,3.353c-0.896,0.956-2.397,1.004-3.353,0.108
				c-0.957-0.896-1.84-4.975-1.84-4.975S56.852,65.609,57.807,66.505z"/>
		</g>
		<g>
			<path style="fill:#BBE7F2;" d="M66.227,58.103c0.887,0.965,2.387,1.029,3.352,0.144c0.965-0.886,1.029-2.387,0.144-3.352
				c-0.886-0.965-4.956-1.891-4.956-1.891S65.342,57.139,66.227,58.103z"/>
		</g>
	</g>
</g>
<g id="Green" style="display:none;">
	<g style="display:inline;">
		<g>
			<path style="fill:#14635B;" d="M73.902,23.944c0.465-0.464,1.101-0.715,1.757-0.693c0.656,0.021,1.273,0.315,1.706,0.809
				c13.064,14.907,12.488,37.609-1.73,51.827c-14.218,14.218-36.92,14.795-51.826,1.731c-0.493-0.433-0.785-1.05-0.807-1.706
				c-0.023-0.656,0.226-1.293,0.691-1.757L73.902,23.944z"/>
		</g>
		<g>
			<path style="fill:#3E948B;" d="M77.365,24.059c-0.432-0.494-1.05-0.787-1.706-0.809c-0.656-0.022-1.292,0.229-1.757,0.693
				L23.693,74.153c-0.465,0.464-0.714,1.101-0.691,1.757c0.021,0.656,0.313,1.273,0.807,1.705c2.819,2.471,5.918,4.452,9.185,5.947
				l50.319-50.319C81.817,29.977,79.836,26.878,77.365,24.059z"/>
		</g>
		<g>
			<path style="fill:#D7FCF9;" d="M72.973,24.861c13.147,13.148,13.147,34.463,0,47.61c-13.148,13.148-34.463,13.148-47.611,0
				L72.973,24.861z"/>
		</g>
		<g>
			<path style="fill:#FFFFFF;" d="M72.973,24.861l-47.61,47.61c3.323,3.324,7.171,5.805,11.274,7.448L80.42,36.136
				C78.777,32.032,76.297,28.185,72.973,24.861z"/>
		</g>
		<g>
			<path style="fill:#009687;" d="M69.604,28.243c11.49,11.491,11.49,30.12,0,41.611c-11.491,11.491-30.12,11.491-41.611,0
				L69.604,28.243z"/>
		</g>
		<g>
			<path style="fill:#00B8A5;" d="M69.604,28.243l-41.611,41.61c3.366,3.366,7.346,5.738,11.578,7.132l37.164-37.165
				C75.341,35.589,72.969,31.609,69.604,28.243z"/>
		</g>
		<g>
			<path style="fill:#AAF0E9;" d="M45.572,66.854c0.499,1.211-0.078,2.598-1.29,3.097c-1.212,0.499-2.599-0.079-3.097-1.29
				c-0.499-1.212,0.387-5.29,0.387-5.29S45.074,65.643,45.572,66.854z"/>
		</g>
		<g>
			<path style="fill:#AAF0E9;" d="M66.604,45.823c1.211,0.499,2.598-0.079,3.096-1.29c0.5-1.211-0.078-2.598-1.289-3.097
				c-1.212-0.499-5.291,0.387-5.291,0.387S65.392,45.324,66.604,45.823z"/>
		</g>
		<g>
			<path style="fill:#AAF0E9;" d="M57.185,54.081c0.927,0.926,0.927,2.428,0,3.354c-0.927,0.926-2.429,0.926-3.354,0
				c-0.927-0.926-1.678-5.032-1.678-5.032S56.258,53.154,57.185,54.081z"/>
		</g>
		<g>
			<path style="fill:#AAF0E9;" d="M57.807,66.505c0.955,0.896,1.004,2.397,0.108,3.353c-0.896,0.956-2.397,1.004-3.353,0.108
				c-0.957-0.896-1.84-4.975-1.84-4.975S56.852,65.609,57.807,66.505z"/>
		</g>
		<g>
			<path style="fill:#AAF0E9;" d="M66.227,58.104c0.887,0.965,2.387,1.029,3.351,0.144c0.965-0.886,1.029-2.387,0.144-3.352
				c-0.886-0.965-4.956-1.891-4.956-1.891S65.342,57.139,66.227,58.104z"/>
		</g>
	</g>
</g>
<g id="R-Green" style="display:none;">
	<circle style="display:inline;fill:#77E0C4;" cx="55" cy="55" r="55"/>
	<g style="display:inline;">
		<g>
			<path style="fill:#14635B;" d="M73.902,23.944c0.465-0.464,1.101-0.715,1.757-0.693c0.656,0.022,1.273,0.315,1.706,0.809
				c13.065,14.907,12.488,37.609-1.73,51.827c-14.218,14.218-36.92,14.795-51.826,1.73c-0.493-0.433-0.785-1.05-0.807-1.706
				c-0.023-0.656,0.226-1.293,0.691-1.757L73.902,23.944z"/>
		</g>
		<g>
			<path style="fill:#3E948B;" d="M77.365,24.059c-0.432-0.494-1.05-0.787-1.706-0.809c-0.656-0.022-1.292,0.229-1.757,0.693
				L23.693,74.153c-0.465,0.464-0.714,1.101-0.691,1.757c0.021,0.656,0.313,1.273,0.807,1.705c2.819,2.471,5.918,4.452,9.185,5.947
				l50.319-50.319C81.817,29.977,79.836,26.878,77.365,24.059z"/>
		</g>
		<g>
			<path style="fill:#D7FCF9;" d="M72.973,24.861c13.147,13.148,13.147,34.463,0,47.61c-13.149,13.148-34.463,13.148-47.611,0
				L72.973,24.861z"/>
		</g>
		<g>
			<path style="fill:#FFFFFF;" d="M72.973,24.861l-47.61,47.61c3.323,3.324,7.171,5.805,11.274,7.448L80.42,36.136
				C78.777,32.032,76.297,28.185,72.973,24.861z"/>
		</g>
		<g>
			<path style="fill:#009687;" d="M69.604,28.243c11.49,11.491,11.49,30.12,0,41.611c-11.491,11.491-30.12,11.491-41.611,0
				L69.604,28.243z"/>
		</g>
		<g>
			<path style="fill:#00B8A5;" d="M69.604,28.243l-41.611,41.61c3.366,3.366,7.346,5.738,11.578,7.132l37.164-37.165
				C75.341,35.589,72.969,31.609,69.604,28.243z"/>
		</g>
		<g>
			<path style="fill:#AAF0E9;" d="M45.572,66.854c0.499,1.211-0.078,2.598-1.29,3.097c-1.212,0.499-2.599-0.079-3.097-1.29
				c-0.499-1.212,0.387-5.29,0.387-5.29S45.074,65.643,45.572,66.854z"/>
		</g>
		<g>
			<path style="fill:#AAF0E9;" d="M66.604,45.823c1.211,0.499,2.598-0.079,3.096-1.29c0.5-1.211-0.078-2.598-1.289-3.097
				c-1.212-0.499-5.291,0.387-5.291,0.387S65.392,45.324,66.604,45.823z"/>
		</g>
		<g>
			<path style="fill:#AAF0E9;" d="M57.185,54.081c0.927,0.926,0.927,2.428,0,3.354c-0.927,0.926-2.429,0.926-3.354,0
				c-0.927-0.926-1.678-5.032-1.678-5.032S56.258,53.154,57.185,54.081z"/>
		</g>
		<g>
			<path style="fill:#AAF0E9;" d="M57.807,66.505c0.955,0.896,1.004,2.397,0.108,3.353c-0.896,0.956-2.397,1.004-3.353,0.108
				c-0.957-0.896-1.84-4.975-1.84-4.975S56.852,65.609,57.807,66.505z"/>
		</g>
		<g>
			<path style="fill:#AAF0E9;" d="M66.227,58.104c0.887,0.965,2.387,1.029,3.352,0.144c0.965-0.886,1.029-2.387,0.144-3.352
				c-0.886-0.965-4.956-1.891-4.956-1.891S65.342,57.139,66.227,58.104z"/>
		</g>
	</g>
</g>
<g id="Red" style="display:none;">
	<g style="display:inline;">
		<g>
			<path style="fill:#7D261E;" d="M73.902,23.944c0.465-0.464,1.101-0.715,1.757-0.693c0.656,0.021,1.273,0.315,1.706,0.809
				c13.065,14.907,12.488,37.609-1.73,51.827c-14.218,14.218-36.92,14.795-51.826,1.731c-0.493-0.433-0.785-1.05-0.807-1.706
				c-0.023-0.656,0.226-1.293,0.691-1.757L73.902,23.944z"/>
		</g>
		<g>
			<path style="fill:#B84E44;" d="M77.365,24.059c-0.432-0.494-1.05-0.787-1.706-0.809c-0.656-0.022-1.292,0.229-1.757,0.693
				L23.693,74.153c-0.465,0.464-0.714,1.101-0.691,1.757c0.021,0.656,0.313,1.273,0.807,1.705c2.819,2.471,5.918,4.452,9.185,5.947
				l50.319-50.319C81.817,29.977,79.836,26.878,77.365,24.059z"/>
		</g>
		<g>
			<path style="fill:#FFEFED;" d="M72.973,24.861c13.147,13.148,13.147,34.463,0,47.61c-13.149,13.148-34.463,13.148-47.611,0
				L72.973,24.861z"/>
		</g>
		<g>
			<path style="fill:#FFFFFF;" d="M72.973,24.861l-47.61,47.61c3.323,3.324,7.171,5.805,11.274,7.448L80.42,36.136
				C78.777,32.032,76.297,28.185,72.973,24.861z"/>
		</g>
		<g>
			<path style="fill:#C23023;" d="M69.604,28.243c11.49,11.491,11.49,30.12,0,41.611c-11.491,11.491-30.12,11.491-41.611,0
				L69.604,28.243z"/>
		</g>
		<g>
			<path style="fill:#E54B44;" d="M69.604,28.243l-41.611,41.61c3.366,3.366,7.346,5.738,11.578,7.132l37.164-37.165
				C75.341,35.589,72.969,31.609,69.604,28.243z"/>
		</g>
		<g>
			<path style="fill:#FFD7D4;" d="M45.572,66.854c0.499,1.211-0.078,2.598-1.29,3.097c-1.212,0.499-2.599-0.079-3.097-1.29
				c-0.499-1.212,0.387-5.29,0.387-5.29S45.074,65.643,45.572,66.854z"/>
		</g>
		<g>
			<path style="fill:#FFD7D4;" d="M66.604,45.823c1.211,0.499,2.598-0.079,3.096-1.29c0.5-1.211-0.078-2.598-1.289-3.097
				c-1.212-0.499-5.291,0.387-5.291,0.387S65.392,45.324,66.604,45.823z"/>
		</g>
		<g>
			<path style="fill:#FFD7D4;" d="M57.185,54.081c0.927,0.926,0.927,2.428,0,3.354c-0.927,0.926-2.429,0.926-3.354,0
				c-0.927-0.926-1.678-5.032-1.678-5.032S56.258,53.154,57.185,54.081z"/>
		</g>
		<g>
			<path style="fill:#FFD7D4;" d="M57.807,66.505c0.955,0.896,1.004,2.397,0.108,3.353c-0.896,0.956-2.397,1.004-3.353,0.108
				c-0.957-0.896-1.84-4.975-1.84-4.975S56.852,65.609,57.807,66.505z"/>
		</g>
		<g>
			<path style="fill:#FFD7D4;" d="M66.227,58.104c0.887,0.965,2.387,1.029,3.352,0.144c0.965-0.886,1.029-2.387,0.144-3.352
				c-0.886-0.965-4.956-1.891-4.956-1.891S65.342,57.139,66.227,58.104z"/>
		</g>
	</g>
</g>
<g id="R-Red" style="display:none;">
	<circle style="display:inline;fill:#FABBAF;" cx="55" cy="55" r="55"/>
	<g style="display:inline;">
		<g>
			<path style="fill:#7D261E;" d="M73.902,23.944c0.465-0.464,1.101-0.715,1.757-0.693c0.656,0.021,1.273,0.315,1.706,0.809
				c13.065,14.907,12.488,37.609-1.73,51.827c-14.218,14.218-36.92,14.795-51.826,1.731c-0.493-0.433-0.785-1.05-0.807-1.706
				c-0.023-0.656,0.226-1.293,0.691-1.757L73.902,23.944z"/>
		</g>
		<g>
			<path style="fill:#B84E44;" d="M77.365,24.059c-0.432-0.494-1.05-0.787-1.706-0.809c-0.656-0.022-1.292,0.229-1.757,0.693
				L23.693,74.153c-0.465,0.464-0.714,1.101-0.691,1.757c0.021,0.656,0.313,1.273,0.807,1.705c2.819,2.471,5.918,4.452,9.185,5.947
				l50.319-50.319C81.817,29.977,79.836,26.878,77.365,24.059z"/>
		</g>
		<g>
			<path style="fill:#FFEFED;" d="M72.973,24.861c13.147,13.148,13.147,34.463,0,47.61c-13.149,13.148-34.463,13.148-47.611,0
				L72.973,24.861z"/>
		</g>
		<g>
			<path style="fill:#FFFFFF;" d="M72.973,24.861l-47.61,47.61c3.323,3.324,7.171,5.805,11.274,7.448L80.42,36.136
				C78.777,32.032,76.297,28.185,72.973,24.861z"/>
		</g>
		<g>
			<path style="fill:#C23023;" d="M69.604,28.243c11.49,11.491,11.49,30.12,0,41.611c-11.491,11.491-30.12,11.491-41.611,0
				L69.604,28.243z"/>
		</g>
		<g>
			<path style="fill:#E54B44;" d="M69.604,28.243l-41.611,41.61c3.366,3.366,7.346,5.738,11.578,7.132l37.164-37.165
				C75.341,35.589,72.969,31.609,69.604,28.243z"/>
		</g>
		<g>
			<path style="fill:#FFD7D4;" d="M45.572,66.854c0.499,1.211-0.078,2.598-1.29,3.097c-1.212,0.499-2.599-0.079-3.097-1.29
				c-0.499-1.212,0.387-5.29,0.387-5.29S45.074,65.643,45.572,66.854z"/>
		</g>
		<g>
			<path style="fill:#FFD7D4;" d="M66.604,45.823c1.211,0.499,2.598-0.079,3.096-1.29c0.5-1.211-0.078-2.598-1.289-3.097
				c-1.212-0.499-5.291,0.387-5.291,0.387S65.392,45.324,66.604,45.823z"/>
		</g>
		<g>
			<path style="fill:#FFD7D4;" d="M57.185,54.081c0.927,0.926,0.927,2.428,0,3.354c-0.927,0.926-2.429,0.926-3.354,0
				c-0.927-0.926-1.678-5.032-1.678-5.032S56.258,53.154,57.185,54.081z"/>
		</g>
		<g>
			<path style="fill:#FFD7D4;" d="M57.807,66.505c0.955,0.896,1.004,2.397,0.108,3.353c-0.896,0.956-2.397,1.004-3.353,0.108
				c-0.957-0.896-1.84-4.975-1.84-4.975S56.852,65.609,57.807,66.505z"/>
		</g>
		<g>
			<path style="fill:#FFD7D4;" d="M66.227,58.104c0.887,0.965,2.387,1.029,3.352,0.144c0.965-0.886,1.029-2.387,0.144-3.352
				c-0.886-0.965-4.956-1.891-4.956-1.891S65.342,57.139,66.227,58.104z"/>
		</g>
	</g>
</g>
<g id="Yellow" style="display:none;">
	<g style="display:inline;">
		<g>
			<path style="fill:#66510D;" d="M73.902,23.944c0.465-0.464,1.101-0.715,1.757-0.693c0.656,0.022,1.273,0.315,1.706,0.809
				c13.065,14.907,12.488,37.609-1.73,51.827c-14.218,14.218-36.92,14.795-51.826,1.73c-0.493-0.433-0.785-1.05-0.807-1.706
				c-0.023-0.656,0.226-1.293,0.691-1.757L73.902,23.944z"/>
		</g>
		<g>
			<path style="fill:#947615;" d="M77.365,24.059c-0.432-0.494-1.05-0.787-1.706-0.809c-0.656-0.022-1.292,0.229-1.757,0.693
				L23.693,74.153c-0.465,0.464-0.714,1.101-0.691,1.757c0.021,0.656,0.313,1.273,0.807,1.705c2.819,2.471,5.918,4.452,9.185,5.947
				l50.319-50.319C81.817,29.977,79.836,26.878,77.365,24.059z"/>
		</g>
		<g>
			<path style="fill:#FFF5D9;" d="M72.973,24.861c13.147,13.148,13.147,34.463,0,47.61c-13.149,13.148-34.463,13.148-47.611,0
				L72.973,24.861z"/>
		</g>
		<g>
			<path style="fill:#FFFFFF;" d="M72.973,24.861l-47.61,47.61c3.323,3.324,7.171,5.805,11.274,7.448L80.42,36.136
				C78.777,32.032,76.297,28.185,72.973,24.861z"/>
		</g>
		<g>
			<path style="fill:#E07000;" d="M69.604,28.243c11.49,11.491,11.49,30.12,0,41.611c-11.491,11.491-30.12,11.491-41.611,0
				L69.604,28.243z"/>
		</g>
		<g>
			<path style="fill:#FA9200;" d="M69.604,28.243l-41.611,41.61c3.366,3.366,7.346,5.738,11.578,7.132l37.164-37.165
				C75.341,35.589,72.969,31.609,69.604,28.243z"/>
		</g>
		<g>
			<path style="fill:#FFE9A1;" d="M45.572,66.854c0.499,1.211-0.078,2.598-1.29,3.097c-1.212,0.499-2.599-0.079-3.097-1.29
				c-0.499-1.212,0.387-5.29,0.387-5.29S45.074,65.643,45.572,66.854z"/>
		</g>
		<g>
			<path style="fill:#FFE9A1;" d="M66.604,45.823c1.211,0.499,2.598-0.079,3.096-1.29c0.5-1.211-0.078-2.598-1.289-3.097
				c-1.212-0.499-5.291,0.387-5.291,0.387S65.392,45.324,66.604,45.823z"/>
		</g>
		<g>
			<path style="fill:#FFE9A1;" d="M57.185,54.081c0.927,0.926,0.927,2.428,0,3.354c-0.927,0.926-2.429,0.926-3.354,0
				c-0.927-0.926-1.678-5.032-1.678-5.032S56.258,53.154,57.185,54.081z"/>
		</g>
		<g>
			<path style="fill:#FFE9A1;" d="M57.807,66.505c0.955,0.896,1.004,2.397,0.108,3.353c-0.896,0.956-2.397,1.004-3.353,0.108
				c-0.957-0.896-1.84-4.975-1.84-4.975S56.852,65.609,57.807,66.505z"/>
		</g>
		<g>
			<path style="fill:#FFE9A1;" d="M66.227,58.104c0.887,0.965,2.387,1.029,3.352,0.144c0.965-0.886,1.029-2.387,0.144-3.352
				c-0.886-0.965-4.956-1.891-4.956-1.891S65.342,57.139,66.227,58.104z"/>
		</g>
	</g>
</g>
<g id="R-Yellow" style="display:none;">
	<circle style="display:inline;fill:#FFD75E;" cx="55" cy="55" r="55"/>
	<g style="display:inline;">
		<g>
			<path style="fill:#66510D;" d="M73.902,23.944c0.465-0.464,1.101-0.715,1.757-0.693c0.656,0.022,1.273,0.315,1.706,0.809
				c13.064,14.907,12.488,37.609-1.73,51.827c-14.218,14.218-36.92,14.795-51.826,1.73c-0.493-0.433-0.785-1.05-0.807-1.706
				c-0.023-0.656,0.226-1.293,0.691-1.757L73.902,23.944z"/>
		</g>
		<g>
			<path style="fill:#947615;" d="M77.365,24.059c-0.432-0.494-1.05-0.787-1.706-0.809c-0.656-0.022-1.292,0.229-1.757,0.693
				L23.693,74.153c-0.465,0.464-0.714,1.101-0.691,1.757c0.021,0.656,0.313,1.273,0.807,1.705c2.819,2.471,5.918,4.452,9.185,5.947
				l50.319-50.319C81.817,29.977,79.836,26.878,77.365,24.059z"/>
		</g>
		<g>
			<path style="fill:#FFF5D9;" d="M72.973,24.861c13.147,13.148,13.147,34.463,0,47.61c-13.148,13.148-34.463,13.148-47.611,0
				L72.973,24.861z"/>
		</g>
		<g>
			<path style="fill:#FFFFFF;" d="M72.973,24.861l-47.61,47.61c3.323,3.324,7.171,5.805,11.274,7.448L80.42,36.136
				C78.777,32.032,76.297,28.185,72.973,24.861z"/>
		</g>
		<g>
			<path style="fill:#E07000;" d="M69.604,28.243c11.49,11.491,11.49,30.12,0,41.611c-11.491,11.491-30.12,11.491-41.611,0
				L69.604,28.243z"/>
		</g>
		<g>
			<path style="fill:#FA9200;" d="M69.604,28.243l-41.611,41.61c3.366,3.366,7.346,5.738,11.578,7.132l37.164-37.165
				C75.341,35.589,72.969,31.609,69.604,28.243z"/>
		</g>
		<g>
			<path style="fill:#FFE9A1;" d="M45.572,66.854c0.499,1.211-0.078,2.598-1.29,3.097c-1.212,0.499-2.599-0.079-3.097-1.29
				c-0.499-1.212,0.387-5.29,0.387-5.29S45.074,65.643,45.572,66.854z"/>
		</g>
		<g>
			<path style="fill:#FFE9A1;" d="M66.604,45.823c1.211,0.499,2.598-0.079,3.096-1.29c0.5-1.211-0.078-2.598-1.289-3.097
				c-1.212-0.499-5.291,0.387-5.291,0.387S65.392,45.324,66.604,45.823z"/>
		</g>
		<g>
			<path style="fill:#FFE9A1;" d="M57.185,54.081c0.927,0.926,0.927,2.428,0,3.354c-0.927,0.926-2.429,0.926-3.354,0
				c-0.927-0.926-1.678-5.032-1.678-5.032S56.258,53.154,57.185,54.081z"/>
		</g>
		<g>
			<path style="fill:#FFE9A1;" d="M57.807,66.505c0.955,0.896,1.004,2.397,0.108,3.353c-0.896,0.956-2.397,1.004-3.353,0.108
				c-0.957-0.896-1.84-4.975-1.84-4.975S56.852,65.609,57.807,66.505z"/>
		</g>
		<g>
			<path style="fill:#FFE9A1;" d="M66.227,58.104c0.887,0.965,2.387,1.029,3.351,0.144c0.965-0.886,1.029-2.387,0.144-3.352
				c-0.886-0.965-4.956-1.891-4.956-1.891S65.342,57.139,66.227,58.104z"/>
		</g>
	</g>
</g>
</svg>
