<?xml version="1.0" encoding="iso-8859-1"?>
<!-- Generator: Adobe Illustrator 17.1.0, SVG Export Plug-In . SVG Version: 6.00 Build 0)  -->
<!DOCTYPE svg PUBLIC "-//W3C//DTD SVG 1.0//EN" "http://www.w3.org/TR/2001/REC-SVG-20010904/DTD/svg10.dtd">
<svg version="1.0" xmlns="http://www.w3.org/2000/svg" xmlns:xlink="http://www.w3.org/1999/xlink" x="0px" y="0px" width="110px"
	 height="110px" viewBox="0 0 110 110" style="enable-background:new 0 0 110 110;" xml:space="preserve">
<g id="Artboard" style="display:none;">
	
		<rect x="-1096.5" y="-34.5" style="display:inline;fill:#808080;stroke:#000000;stroke-miterlimit:10;" width="1392" height="1369"/>
</g>
<g id="R-Multicolor">
	<circle style="fill:#25B7D3;" cx="55" cy="55" r="55"/>
	<g>
		<g>
			<path style="fill:#C9F2F8;" d="M70.73,55.27c0.08-0.08,0.15-0.17,0.19-0.27c0.06-0.12,0.09-0.25,0.1-0.39
				c0.142-2.883,0.559-20.897-11.113-24.837C59.634,29.913,59.329,30,59,30h-8c-0.328,0-0.634-0.087-0.907-0.227
				C38.421,33.712,38.838,51.727,38.98,54.61c0.01,0.14,0.04,0.27,0.1,0.39c0.04,0.1,0.11,0.19,0.19,0.27l1.02,1.02
				c0.39,0.39,0.39,1.03,0,1.42l-1,1c-0.08,0.08-0.15,0.18-0.19,0.29c-0.07,0.13-0.1,0.27-0.1,0.41v11.18c0,0.26,0.11,0.52,0.29,0.7
				l1,1c0.39,0.39,0.39,1.03,0,1.42l-1,1c-0.18,0.18-0.29,0.44-0.29,0.7V83c0,2.21,1.79,4,4,4h24c2.21,0,4-1.79,4-4v-7.59
				c0-0.26-0.11-0.52-0.29-0.7l-1-1c-0.39-0.39-0.39-1.03,0-1.42l1-1c0.18-0.18,0.29-0.44,0.29-0.7V59.41c0-0.14-0.03-0.28-0.1-0.41
				c-0.04-0.11-0.11-0.21-0.19-0.29l-1-1c-0.39-0.39-0.39-1.03,0-1.42L70.73,55.27z"/>
		</g>
		<g>
			<path style="fill:#FFFFFF;" d="M55,30h-4c-0.328,0-0.634-0.087-0.907-0.227C38.422,33.712,38.838,51.727,38.98,54.61
				c0.01,0.14,0.04,0.27,0.1,0.39c0.04,0.1,0.11,0.19,0.19,0.27l1.02,1.02c0.39,0.39,0.39,1.03,0,1.42l-1,1
				c-0.08,0.08-0.15,0.18-0.19,0.29c-0.07,0.13-0.1,0.27-0.1,0.41v11.18c0,0.26,0.11,0.52,0.29,0.7l1,1c0.39,0.39,0.39,1.03,0,1.42
				l-1,1c-0.18,0.18-0.29,0.44-0.29,0.7V83c0,2.21,1.79,4,4,4h12V30z"/>
		</g>
		<g>
			<path style="fill:#40C9E7;" d="M61,25c0-1.105-0.895-2-2-2h-8c-1.105,0-2,0.895-2,2v3c0,1.105,0.895,2,2,2h8c1.105,0,2-0.895,2-2
				V25z"/>
		</g>
		<g>
			<path style="fill:#9CE5F4;" d="M70.71,58.71c0.08,0.08,0.15,0.18,0.19,0.29H39.1c0.04-0.11,0.11-0.21,0.19-0.29l1-1
				c0.39-0.39,0.39-1.03,0-1.42l-1.02-1.02c-0.08-0.08-0.15-0.17-0.19-0.27h31.84c-0.04,0.1-0.11,0.19-0.19,0.27l-1.02,1.02
				c-0.39,0.39-0.39,1.03,0,1.42L70.71,58.71z"/>
		</g>
		<g>
			<path style="fill:#C9F2F8;" d="M39.29,58.71c-0.08,0.08-0.15,0.18-0.19,0.29H55v-4H39.08c0.04,0.1,0.11,0.19,0.19,0.27l1.02,1.02
				c0.39,0.39,0.39,1.03,0,1.42L39.29,58.71z"/>
		</g>
		<g>
			<path style="fill:#9CE5F4;" d="M70.71,74.71c0.08,0.08,0.15,0.18,0.19,0.29H39.1c0.04-0.11,0.11-0.21,0.19-0.29l1-1
				c0.39-0.39,0.39-1.03,0-1.42l-1.02-1.02c-0.08-0.08-0.15-0.17-0.19-0.27h31.84c-0.04,0.1-0.11,0.19-0.19,0.27l-1.02,1.02
				c-0.39,0.39-0.39,1.03,0,1.42L70.71,74.71z"/>
		</g>
		<g>
			<path style="fill:#C9F2F8;" d="M39.29,74.71c-0.08,0.08-0.15,0.18-0.19,0.29H55v-4H39.08c0.04,0.1,0.11,0.19,0.19,0.27l1.02,1.02
				c0.39,0.39,0.39,1.03,0,1.42L39.29,74.71z"/>
		</g>
		<g>
			<path style="fill:#6FDAF1;" d="M55,23h-4c-1.104,0-2,0.896-2,2v3c0,1.104,0.896,2,2,2h4V23z"/>
		</g>
	</g>
</g>
<g id="Multicolor" style="display:none;">
	<g style="display:inline;">
		<g>
			<path style="fill:#C9F2F8;" d="M70.73,55.27c0.08-0.08,0.15-0.17,0.19-0.27c0.06-0.12,0.09-0.25,0.1-0.39
				c0.142-2.883,0.559-20.897-11.113-24.837C59.634,29.913,59.329,30,59,30h-8c-0.328,0-0.634-0.087-0.907-0.227
				C38.421,33.712,38.838,51.727,38.98,54.61c0.01,0.14,0.04,0.27,0.1,0.39c0.04,0.1,0.11,0.19,0.19,0.27l1.02,1.02
				c0.39,0.39,0.39,1.03,0,1.42l-1,1c-0.08,0.08-0.15,0.18-0.19,0.29c-0.07,0.13-0.1,0.27-0.1,0.41v11.18c0,0.26,0.11,0.52,0.29,0.7
				l1,1c0.39,0.39,0.39,1.03,0,1.42l-1,1c-0.18,0.18-0.29,0.44-0.29,0.7V83c0,2.21,1.79,4,4,4h24c2.21,0,4-1.79,4-4v-7.59
				c0-0.26-0.11-0.52-0.29-0.7l-1-1c-0.39-0.39-0.39-1.03,0-1.42l1-1c0.18-0.18,0.29-0.44,0.29-0.7V59.41c0-0.14-0.03-0.28-0.1-0.41
				c-0.04-0.11-0.11-0.21-0.19-0.29l-1-1c-0.39-0.39-0.39-1.03,0-1.42L70.73,55.27z"/>
		</g>
		<g>
			<path style="fill:#FFFFFF;" d="M55,30h-4c-0.328,0-0.634-0.087-0.907-0.227C38.422,33.712,38.838,51.727,38.98,54.61
				c0.01,0.14,0.04,0.27,0.1,0.39c0.04,0.1,0.11,0.19,0.19,0.27l1.02,1.02c0.39,0.39,0.39,1.03,0,1.42l-1,1
				c-0.08,0.08-0.15,0.18-0.19,0.29c-0.07,0.13-0.1,0.27-0.1,0.41v11.18c0,0.26,0.11,0.52,0.29,0.7l1,1c0.39,0.39,0.39,1.03,0,1.42
				l-1,1c-0.18,0.18-0.29,0.44-0.29,0.7V83c0,2.21,1.79,4,4,4h12V30z"/>
		</g>
		<g>
			<path style="fill:#40C9E7;" d="M61,25c0-1.105-0.895-2-2-2h-8c-1.105,0-2,0.895-2,2v3c0,1.105,0.895,2,2,2h8c1.105,0,2-0.895,2-2
				V25z"/>
		</g>
		<g>
			<path style="fill:#9CE5F4;" d="M70.71,58.71c0.08,0.08,0.15,0.18,0.19,0.29H39.1c0.04-0.11,0.11-0.21,0.19-0.29l1-1
				c0.39-0.39,0.39-1.03,0-1.42l-1.02-1.02c-0.08-0.08-0.15-0.17-0.19-0.27h31.84c-0.04,0.1-0.11,0.19-0.19,0.27l-1.02,1.02
				c-0.39,0.39-0.39,1.03,0,1.42L70.71,58.71z"/>
		</g>
		<g>
			<path style="fill:#C9F2F8;" d="M39.29,58.71c-0.08,0.08-0.15,0.18-0.19,0.29H55v-4H39.08c0.04,0.1,0.11,0.19,0.19,0.27l1.02,1.02
				c0.39,0.39,0.39,1.03,0,1.42L39.29,58.71z"/>
		</g>
		<g>
			<path style="fill:#9CE5F4;" d="M70.71,74.71c0.08,0.08,0.15,0.18,0.19,0.29H39.1c0.04-0.11,0.11-0.21,0.19-0.29l1-1
				c0.39-0.39,0.39-1.03,0-1.42l-1.02-1.02c-0.08-0.08-0.15-0.17-0.19-0.27h31.84c-0.04,0.1-0.11,0.19-0.19,0.27l-1.02,1.02
				c-0.39,0.39-0.39,1.03,0,1.42L70.71,74.71z"/>
		</g>
		<g>
			<path style="fill:#C9F2F8;" d="M39.29,74.71c-0.08,0.08-0.15,0.18-0.19,0.29H55v-4H39.08c0.04,0.1,0.11,0.19,0.19,0.27l1.02,1.02
				c0.39,0.39,0.39,1.03,0,1.42L39.29,74.71z"/>
		</g>
		<g>
			<path style="fill:#6FDAF1;" d="M55,23h-4c-1.104,0-2,0.896-2,2v3c0,1.104,0.896,2,2,2h4V23z"/>
		</g>
	</g>
</g>
<g id="Blue" style="display:none;">
	<g style="display:inline;">
		<g>
			<path style="fill:#E1F5FA;" d="M70.73,55.27c0.08-0.08,0.149-0.17,0.189-0.27c0.061-0.12,0.09-0.25,0.1-0.39
				c0.143-2.883,0.559-20.897-11.112-24.837C59.634,29.913,59.328,30,59,30h-8c-0.328,0-0.634-0.087-0.907-0.227
				C38.422,33.712,38.838,51.727,38.98,54.61c0.01,0.14,0.039,0.27,0.1,0.39c0.04,0.1,0.11,0.19,0.189,0.27l1.021,1.02
				c0.39,0.39,0.39,1.03,0,1.42l-1,1c-0.08,0.08-0.149,0.18-0.19,0.29c-0.069,0.13-0.1,0.27-0.1,0.41v11.18
				c0,0.26,0.11,0.52,0.29,0.7l1,1c0.39,0.39,0.39,1.03,0,1.42l-1,1c-0.18,0.18-0.29,0.44-0.29,0.7V83c0,2.21,1.79,4,4,4h24
				c2.21,0,4-1.79,4-4v-7.59c0-0.26-0.109-0.52-0.29-0.7l-1-1c-0.39-0.39-0.39-1.03,0-1.42l1-1c0.181-0.18,0.29-0.44,0.29-0.7V59.41
				c0-0.14-0.03-0.28-0.1-0.41c-0.04-0.11-0.11-0.21-0.19-0.29l-1-1c-0.39-0.39-0.39-1.03,0-1.42L70.73,55.27z"/>
		</g>
		<g>
			<path style="fill:#FFFFFF;" d="M55,30h-4c-0.328,0-0.634-0.087-0.907-0.227C38.422,33.712,38.838,51.727,38.98,54.61
				c0.01,0.14,0.039,0.27,0.1,0.39c0.04,0.1,0.11,0.19,0.189,0.27l1.021,1.02c0.39,0.39,0.39,1.03,0,1.42l-1,1
				c-0.08,0.08-0.149,0.18-0.19,0.29c-0.069,0.13-0.1,0.27-0.1,0.41v11.18c0,0.26,0.11,0.52,0.29,0.7l1,1
				c0.39,0.39,0.39,1.03,0,1.42l-1,1c-0.18,0.18-0.29,0.44-0.29,0.7V83c0,2.21,1.79,4,4,4h12V30z"/>
		</g>
		<g>
			<path style="fill:#0081A1;" d="M61,25c0-1.104-0.896-2-2-2h-8c-1.104,0-2,0.896-2,2v3c0,1.105,0.896,2,2,2h8c1.104,0,2-0.895,2-2
				V25z"/>
		</g>
		<g>
			<path style="fill:#BBE7F2;" d="M70.71,58.71c0.08,0.08,0.15,0.18,0.19,0.29H39.1c0.041-0.11,0.11-0.21,0.19-0.29l1-1
				c0.39-0.39,0.39-1.03,0-1.42l-1.021-1.02C39.19,55.19,39.12,55.1,39.08,55h31.84c-0.04,0.1-0.109,0.19-0.189,0.27l-1.021,1.02
				c-0.39,0.39-0.39,1.03,0,1.42L70.71,58.71z"/>
		</g>
		<g>
			<path style="fill:#E1F5FA;" d="M39.29,58.71c-0.08,0.08-0.149,0.18-0.19,0.29H55v-4H39.08c0.04,0.1,0.109,0.19,0.189,0.27
				l1.021,1.02c0.39,0.39,0.39,1.03,0,1.42L39.29,58.71z"/>
		</g>
		<g>
			<path style="fill:#BBE7F2;" d="M70.71,74.71c0.08,0.08,0.15,0.18,0.19,0.29H39.1c0.041-0.11,0.11-0.21,0.19-0.29l1-1
				c0.39-0.39,0.39-1.03,0-1.42l-1.021-1.02C39.19,71.19,39.12,71.1,39.08,71h31.84c-0.04,0.1-0.109,0.19-0.189,0.27l-1.021,1.02
				c-0.39,0.39-0.39,1.03,0,1.42L70.71,74.71z"/>
		</g>
		<g>
			<path style="fill:#E1F5FA;" d="M39.29,74.71c-0.08,0.08-0.149,0.18-0.19,0.29H55v-4H39.08c0.04,0.1,0.109,0.19,0.189,0.27
				l1.021,1.02c0.39,0.39,0.39,1.03,0,1.42L39.29,74.71z"/>
		</g>
		<g>
			<path style="fill:#009FC7;" d="M55,23h-4c-1.104,0-2,0.896-2,2v3c0,1.104,0.896,2,2,2h4V23z"/>
		</g>
	</g>
</g>
<g id="R-Blue" style="display:none;">
	<circle style="display:inline;fill:#81D2EB;" cx="55" cy="55" r="55"/>
	<g style="display:inline;">
		<g>
			<path style="fill:#E1F5FA;" d="M70.73,55.27c0.08-0.08,0.149-0.17,0.189-0.27c0.061-0.12,0.09-0.25,0.1-0.39
				c0.143-2.883,0.559-20.897-11.112-24.837C59.634,29.913,59.328,30,59,30h-8c-0.328,0-0.634-0.087-0.907-0.227
				C38.422,33.712,38.838,51.727,38.98,54.61c0.01,0.14,0.039,0.27,0.1,0.39c0.04,0.1,0.11,0.19,0.189,0.27l1.021,1.02
				c0.39,0.39,0.39,1.03,0,1.42l-1,1c-0.08,0.08-0.149,0.18-0.19,0.29c-0.069,0.13-0.1,0.27-0.1,0.41v11.18
				c0,0.26,0.11,0.52,0.29,0.7l1,1c0.39,0.39,0.39,1.03,0,1.42l-1,1c-0.18,0.18-0.29,0.44-0.29,0.7V83c0,2.21,1.79,4,4,4h24
				c2.21,0,4-1.79,4-4v-7.59c0-0.26-0.109-0.52-0.29-0.7l-1-1c-0.39-0.39-0.39-1.03,0-1.42l1-1c0.181-0.18,0.29-0.44,0.29-0.7V59.41
				c0-0.14-0.03-0.28-0.1-0.41c-0.04-0.11-0.11-0.21-0.19-0.29l-1-1c-0.39-0.39-0.39-1.03,0-1.42L70.73,55.27z"/>
		</g>
		<g>
			<path style="fill:#FFFFFF;" d="M55,30h-4c-0.328,0-0.634-0.087-0.907-0.227C38.422,33.712,38.838,51.727,38.98,54.61
				c0.01,0.14,0.039,0.27,0.1,0.39c0.04,0.1,0.11,0.19,0.189,0.27l1.021,1.02c0.39,0.39,0.39,1.03,0,1.42l-1,1
				c-0.08,0.08-0.149,0.18-0.19,0.29c-0.069,0.13-0.1,0.27-0.1,0.41v11.18c0,0.26,0.11,0.52,0.29,0.7l1,1
				c0.39,0.39,0.39,1.03,0,1.42l-1,1c-0.18,0.18-0.29,0.44-0.29,0.7V83c0,2.21,1.79,4,4,4h12V30z"/>
		</g>
		<g>
			<path style="fill:#0081A1;" d="M61,25c0-1.104-0.896-2-2-2h-8c-1.104,0-2,0.896-2,2v3c0,1.105,0.896,2,2,2h8c1.104,0,2-0.895,2-2
				V25z"/>
		</g>
		<g>
			<path style="fill:#BBE7F2;" d="M70.71,58.71c0.08,0.08,0.15,0.18,0.19,0.29H39.1c0.041-0.11,0.11-0.21,0.19-0.29l1-1
				c0.39-0.39,0.39-1.03,0-1.42l-1.021-1.02C39.19,55.19,39.12,55.1,39.08,55h31.84c-0.04,0.1-0.109,0.19-0.189,0.27l-1.021,1.02
				c-0.39,0.39-0.39,1.03,0,1.42L70.71,58.71z"/>
		</g>
		<g>
			<path style="fill:#E1F5FA;" d="M39.29,58.71c-0.08,0.08-0.149,0.18-0.19,0.29H55v-4H39.08c0.04,0.1,0.109,0.19,0.189,0.27
				l1.021,1.02c0.39,0.39,0.39,1.03,0,1.42L39.29,58.71z"/>
		</g>
		<g>
			<path style="fill:#BBE7F2;" d="M70.71,74.71c0.08,0.08,0.15,0.18,0.19,0.29H39.1c0.041-0.11,0.11-0.21,0.19-0.29l1-1
				c0.39-0.39,0.39-1.03,0-1.42l-1.021-1.02C39.19,71.19,39.12,71.1,39.08,71h31.84c-0.04,0.1-0.109,0.19-0.189,0.27l-1.021,1.02
				c-0.39,0.39-0.39,1.03,0,1.42L70.71,74.71z"/>
		</g>
		<g>
			<path style="fill:#E1F5FA;" d="M39.29,74.71c-0.08,0.08-0.149,0.18-0.19,0.29H55v-4H39.08c0.04,0.1,0.109,0.19,0.189,0.27
				l1.021,1.02c0.39,0.39,0.39,1.03,0,1.42L39.29,74.71z"/>
		</g>
		<g>
			<path style="fill:#009FC7;" d="M55,23h-4c-1.104,0-2,0.896-2,2v3c0,1.104,0.896,2,2,2h4V23z"/>
		</g>
	</g>
</g>
<g id="Green" style="display:none;">
	<g style="display:inline;">
		<g>
			<path style="fill:#D7FCF9;" d="M70.73,55.27c0.08-0.08,0.149-0.17,0.189-0.27c0.061-0.12,0.09-0.25,0.1-0.39
				c0.143-2.883,0.559-20.898-11.112-24.837C59.634,29.913,59.328,30,59,30h-8c-0.328,0-0.634-0.087-0.907-0.227
				C38.422,33.712,38.838,51.727,38.98,54.61c0.01,0.14,0.039,0.27,0.1,0.39c0.04,0.1,0.11,0.19,0.189,0.27l1.021,1.02
				c0.39,0.39,0.39,1.03,0,1.42l-1,1c-0.08,0.08-0.149,0.18-0.19,0.29c-0.069,0.13-0.1,0.27-0.1,0.41v11.18
				c0,0.26,0.11,0.52,0.29,0.7l1,1c0.39,0.39,0.39,1.03,0,1.42l-1,1c-0.18,0.18-0.29,0.44-0.29,0.7V83c0,2.21,1.79,4,4,4h24
				c2.21,0,4-1.79,4-4v-7.59c0-0.26-0.109-0.52-0.29-0.7l-1-1c-0.39-0.39-0.39-1.03,0-1.42l1-1c0.181-0.18,0.29-0.44,0.29-0.7V59.41
				c0-0.14-0.03-0.28-0.1-0.41c-0.04-0.11-0.11-0.21-0.19-0.29l-1-1c-0.39-0.39-0.39-1.03,0-1.42L70.73,55.27z"/>
		</g>
		<g>
			<path style="fill:#FFFFFF;" d="M55,30h-4c-0.328,0-0.634-0.087-0.907-0.227C38.422,33.712,38.838,51.727,38.98,54.61
				c0.01,0.14,0.039,0.27,0.1,0.39c0.04,0.1,0.11,0.19,0.189,0.27l1.021,1.02c0.39,0.39,0.39,1.03,0,1.42l-1,1
				c-0.08,0.08-0.149,0.18-0.19,0.29c-0.069,0.13-0.1,0.27-0.1,0.41v11.18c0,0.26,0.11,0.52,0.29,0.7l1,1
				c0.39,0.39,0.39,1.03,0,1.42l-1,1c-0.18,0.18-0.29,0.44-0.29,0.7V83c0,2.21,1.79,4,4,4h12V30z"/>
		</g>
		<g>
			<path style="fill:#009687;" d="M61,25c0-1.104-0.896-2-2-2h-8c-1.104,0-2,0.896-2,2v3c0,1.105,0.896,2,2,2h8c1.104,0,2-0.895,2-2
				V25z"/>
		</g>
		<g>
			<path style="fill:#AAF0E9;" d="M70.71,58.71c0.08,0.08,0.15,0.18,0.19,0.29H39.1c0.041-0.11,0.11-0.21,0.19-0.29l1-1
				c0.39-0.39,0.39-1.03,0-1.42l-1.021-1.02C39.19,55.19,39.12,55.1,39.08,55h31.84c-0.04,0.1-0.109,0.19-0.189,0.27l-1.021,1.02
				c-0.39,0.39-0.39,1.03,0,1.42L70.71,58.71z"/>
		</g>
		<g>
			<path style="fill:#D7FCF9;" d="M39.29,58.71c-0.08,0.08-0.149,0.18-0.19,0.29H55v-4H39.08c0.04,0.1,0.109,0.19,0.189,0.27
				l1.021,1.02c0.39,0.39,0.39,1.03,0,1.42L39.29,58.71z"/>
		</g>
		<g>
			<path style="fill:#AAF0E9;" d="M70.71,74.71c0.08,0.08,0.15,0.18,0.19,0.29H39.1c0.041-0.11,0.11-0.21,0.19-0.29l1-1
				c0.39-0.39,0.39-1.03,0-1.42l-1.021-1.02C39.19,71.19,39.12,71.1,39.08,71h31.84c-0.04,0.1-0.109,0.19-0.189,0.27l-1.021,1.02
				c-0.39,0.39-0.39,1.03,0,1.42L70.71,74.71z"/>
		</g>
		<g>
			<path style="fill:#D7FCF9;" d="M39.29,74.71c-0.08,0.08-0.149,0.18-0.19,0.29H55v-4H39.08c0.04,0.1,0.109,0.19,0.189,0.27
				l1.021,1.02c0.39,0.39,0.39,1.03,0,1.42L39.29,74.71z"/>
		</g>
		<g>
			<path style="fill:#00B8A5;" d="M55,23h-4c-1.104,0-2,0.896-2,2v3c0,1.104,0.896,2,2,2h4V23z"/>
		</g>
	</g>
</g>
<g id="R-Green" style="display:none;">
	<circle style="display:inline;fill:#77E0C4;" cx="55" cy="55" r="55"/>
	<g style="display:inline;">
		<g>
			<path style="fill:#D7FCF9;" d="M70.73,55.27c0.08-0.08,0.149-0.17,0.189-0.27c0.061-0.12,0.09-0.25,0.1-0.39
				c0.143-2.883,0.559-20.897-11.112-24.837C59.634,29.913,59.328,30,59,30h-8c-0.328,0-0.634-0.087-0.907-0.227
				C38.422,33.712,38.838,51.727,38.98,54.61c0.01,0.14,0.039,0.27,0.1,0.39c0.04,0.1,0.11,0.19,0.189,0.27l1.021,1.02
				c0.39,0.39,0.39,1.03,0,1.42l-1,1c-0.08,0.08-0.149,0.18-0.19,0.29c-0.069,0.13-0.1,0.27-0.1,0.41v11.18
				c0,0.26,0.11,0.52,0.29,0.7l1,1c0.39,0.39,0.39,1.03,0,1.42l-1,1c-0.18,0.18-0.29,0.44-0.29,0.7V83c0,2.21,1.79,4,4,4h24
				c2.21,0,4-1.79,4-4v-7.59c0-0.26-0.109-0.52-0.29-0.7l-1-1c-0.39-0.39-0.39-1.03,0-1.42l1-1c0.181-0.18,0.29-0.44,0.29-0.7V59.41
				c0-0.14-0.03-0.28-0.1-0.41c-0.04-0.11-0.11-0.21-0.19-0.29l-1-1c-0.39-0.39-0.39-1.03,0-1.42L70.73,55.27z"/>
		</g>
		<g>
			<path style="fill:#FFFFFF;" d="M55,30h-4c-0.328,0-0.634-0.087-0.907-0.227C38.422,33.712,38.838,51.727,38.98,54.61
				c0.01,0.14,0.039,0.27,0.1,0.39c0.04,0.1,0.11,0.19,0.189,0.27l1.021,1.02c0.39,0.39,0.39,1.03,0,1.42l-1,1
				c-0.08,0.08-0.149,0.18-0.19,0.29c-0.069,0.13-0.1,0.27-0.1,0.41v11.18c0,0.26,0.11,0.52,0.29,0.7l1,1
				c0.39,0.39,0.39,1.03,0,1.42l-1,1c-0.18,0.18-0.29,0.44-0.29,0.7V83c0,2.21,1.79,4,4,4h12V30z"/>
		</g>
		<g>
			<path style="fill:#009687;" d="M61,25c0-1.104-0.896-2-2-2h-8c-1.104,0-2,0.896-2,2v3c0,1.105,0.896,2,2,2h8c1.104,0,2-0.895,2-2
				V25z"/>
		</g>
		<g>
			<path style="fill:#AAF0E9;" d="M70.71,58.71c0.08,0.08,0.15,0.18,0.19,0.29H39.1c0.041-0.11,0.11-0.21,0.19-0.29l1-1
				c0.39-0.39,0.39-1.03,0-1.42l-1.021-1.02C39.19,55.19,39.12,55.1,39.08,55h31.84c-0.04,0.1-0.109,0.19-0.189,0.27l-1.021,1.02
				c-0.39,0.39-0.39,1.03,0,1.42L70.71,58.71z"/>
		</g>
		<g>
			<path style="fill:#D7FCF9;" d="M39.29,58.71c-0.08,0.08-0.149,0.18-0.19,0.29H55v-4H39.08c0.04,0.1,0.109,0.19,0.189,0.27
				l1.021,1.02c0.39,0.39,0.39,1.03,0,1.42L39.29,58.71z"/>
		</g>
		<g>
			<path style="fill:#AAF0E9;" d="M70.71,74.71c0.08,0.08,0.15,0.18,0.19,0.29H39.1c0.041-0.11,0.11-0.21,0.19-0.29l1-1
				c0.39-0.39,0.39-1.03,0-1.42l-1.021-1.02C39.19,71.19,39.12,71.1,39.08,71h31.84c-0.04,0.1-0.109,0.19-0.189,0.27l-1.021,1.02
				c-0.39,0.39-0.39,1.03,0,1.42L70.71,74.71z"/>
		</g>
		<g>
			<path style="fill:#D7FCF9;" d="M39.29,74.71c-0.08,0.08-0.149,0.18-0.19,0.29H55v-4H39.08c0.04,0.1,0.109,0.19,0.189,0.27
				l1.021,1.02c0.39,0.39,0.39,1.03,0,1.42L39.29,74.71z"/>
		</g>
		<g>
			<path style="fill:#00B8A5;" d="M55,23h-4c-1.104,0-2,0.896-2,2v3c0,1.104,0.896,2,2,2h4V23z"/>
		</g>
	</g>
</g>
<g id="Red" style="display:none;">
	<g style="display:inline;">
		<g>
			<path style="fill:#FFEFED;" d="M70.73,55.27c0.08-0.08,0.149-0.17,0.189-0.27c0.061-0.12,0.09-0.25,0.1-0.39
				c0.143-2.883,0.559-20.898-11.112-24.837C59.634,29.913,59.328,30,59,30h-8c-0.328,0-0.634-0.087-0.907-0.227
				C38.422,33.712,38.838,51.727,38.98,54.61c0.01,0.14,0.039,0.27,0.1,0.39c0.04,0.1,0.11,0.19,0.189,0.27l1.021,1.02
				c0.39,0.39,0.39,1.03,0,1.42l-1,1c-0.08,0.08-0.149,0.18-0.19,0.29c-0.069,0.13-0.1,0.27-0.1,0.41v11.18
				c0,0.26,0.11,0.52,0.29,0.7l1,1c0.39,0.39,0.39,1.03,0,1.42l-1,1c-0.18,0.18-0.29,0.44-0.29,0.7V83c0,2.21,1.79,4,4,4h24
				c2.21,0,4-1.79,4-4v-7.59c0-0.26-0.109-0.52-0.29-0.7l-1-1c-0.39-0.39-0.39-1.03,0-1.42l1-1c0.181-0.18,0.29-0.44,0.29-0.7V59.41
				c0-0.14-0.03-0.28-0.1-0.41c-0.04-0.11-0.11-0.21-0.19-0.29l-1-1c-0.39-0.39-0.39-1.03,0-1.42L70.73,55.27z"/>
		</g>
		<g>
			<path style="fill:#FFFFFF;" d="M55,30h-4c-0.328,0-0.634-0.087-0.907-0.227C38.422,33.712,38.838,51.727,38.98,54.61
				c0.01,0.14,0.039,0.27,0.1,0.39c0.04,0.1,0.11,0.19,0.189,0.27l1.021,1.02c0.39,0.39,0.39,1.03,0,1.42l-1,1
				c-0.08,0.08-0.149,0.18-0.19,0.29c-0.069,0.13-0.1,0.27-0.1,0.41v11.18c0,0.26,0.11,0.52,0.29,0.7l1,1
				c0.39,0.39,0.39,1.03,0,1.42l-1,1c-0.18,0.18-0.29,0.44-0.29,0.7V83c0,2.21,1.79,4,4,4h12V30z"/>
		</g>
		<g>
			<path style="fill:#C23023;" d="M61,25c0-1.104-0.896-2-2-2h-8c-1.104,0-2,0.896-2,2v3c0,1.105,0.896,2,2,2h8c1.104,0,2-0.895,2-2
				V25z"/>
		</g>
		<g>
			<path style="fill:#FFD7D4;" d="M70.71,58.71c0.08,0.08,0.15,0.18,0.19,0.29H39.1c0.041-0.11,0.11-0.21,0.19-0.29l1-1
				c0.39-0.39,0.39-1.03,0-1.42l-1.021-1.02C39.19,55.19,39.12,55.1,39.08,55h31.84c-0.04,0.1-0.109,0.19-0.189,0.27l-1.02,1.02
				c-0.39,0.39-0.39,1.03,0,1.42L70.71,58.71z"/>
		</g>
		<g>
			<path style="fill:#FFEFED;" d="M39.29,58.71c-0.08,0.08-0.149,0.18-0.19,0.29H55v-4H39.08c0.04,0.1,0.109,0.19,0.189,0.27
				l1.021,1.02c0.39,0.39,0.39,1.03,0,1.42L39.29,58.71z"/>
		</g>
		<g>
			<path style="fill:#FFD7D4;" d="M70.71,74.71c0.08,0.08,0.15,0.18,0.19,0.29H39.1c0.041-0.11,0.11-0.21,0.19-0.29l1-1
				c0.39-0.39,0.39-1.03,0-1.42l-1.021-1.02C39.19,71.19,39.12,71.1,39.08,71h31.84c-0.04,0.1-0.109,0.19-0.189,0.27l-1.02,1.02
				c-0.39,0.39-0.39,1.03,0,1.42L70.71,74.71z"/>
		</g>
		<g>
			<path style="fill:#FFEFED;" d="M39.29,74.71c-0.08,0.08-0.149,0.18-0.19,0.29H55v-4H39.08c0.04,0.1,0.109,0.19,0.189,0.27
				l1.021,1.02c0.39,0.39,0.39,1.03,0,1.42L39.29,74.71z"/>
		</g>
		<g>
			<path style="fill:#E54B44;" d="M55,23h-4c-1.104,0-2,0.896-2,2v3c0,1.104,0.896,2,2,2h4V23z"/>
		</g>
	</g>
</g>
<g id="R-Red" style="display:none;">
	<circle style="display:inline;fill:#FABBAF;" cx="55" cy="55" r="55"/>
	<g style="display:inline;">
		<g>
			<path style="fill:#FFEFED;" d="M70.73,55.27c0.08-0.08,0.149-0.17,0.189-0.27c0.061-0.12,0.09-0.25,0.1-0.39
				c0.143-2.883,0.559-20.898-11.112-24.837C59.634,29.913,59.328,30,59,30h-8c-0.328,0-0.634-0.087-0.907-0.227
				C38.422,33.712,38.838,51.727,38.98,54.61c0.01,0.14,0.039,0.27,0.1,0.39c0.04,0.1,0.11,0.19,0.189,0.27l1.021,1.02
				c0.39,0.39,0.39,1.03,0,1.42l-1,1c-0.08,0.08-0.149,0.18-0.19,0.29c-0.069,0.13-0.1,0.27-0.1,0.41v11.18
				c0,0.26,0.11,0.52,0.29,0.7l1,1c0.39,0.39,0.39,1.03,0,1.42l-1,1c-0.18,0.18-0.29,0.44-0.29,0.7V83c0,2.21,1.79,4,4,4h24
				c2.21,0,4-1.79,4-4v-7.59c0-0.26-0.109-0.52-0.29-0.7l-1-1c-0.39-0.39-0.39-1.03,0-1.42l1-1c0.181-0.18,0.29-0.44,0.29-0.7V59.41
				c0-0.14-0.03-0.28-0.1-0.41c-0.04-0.11-0.11-0.21-0.19-0.29l-1-1c-0.39-0.39-0.39-1.03,0-1.42L70.73,55.27z"/>
		</g>
		<g>
			<path style="fill:#FFFFFF;" d="M55,30h-4c-0.328,0-0.634-0.087-0.907-0.227C38.422,33.712,38.838,51.727,38.98,54.61
				c0.01,0.14,0.039,0.27,0.1,0.39c0.04,0.1,0.11,0.19,0.189,0.27l1.021,1.02c0.39,0.39,0.39,1.03,0,1.42l-1,1
				c-0.08,0.08-0.149,0.18-0.19,0.29c-0.069,0.13-0.1,0.27-0.1,0.41v11.18c0,0.26,0.11,0.52,0.29,0.7l1,1
				c0.39,0.39,0.39,1.03,0,1.42l-1,1c-0.18,0.18-0.29,0.44-0.29,0.7V83c0,2.21,1.79,4,4,4h12V30z"/>
		</g>
		<g>
			<path style="fill:#C23023;" d="M61,25c0-1.104-0.896-2-2-2h-8c-1.104,0-2,0.896-2,2v3c0,1.105,0.896,2,2,2h8c1.104,0,2-0.895,2-2
				V25z"/>
		</g>
		<g>
			<path style="fill:#FFD7D4;" d="M70.71,58.71c0.08,0.08,0.15,0.18,0.19,0.29H39.1c0.041-0.11,0.11-0.21,0.19-0.29l1-1
				c0.39-0.39,0.39-1.03,0-1.42l-1.021-1.02C39.19,55.19,39.12,55.1,39.08,55h31.84c-0.04,0.1-0.109,0.19-0.189,0.27l-1.02,1.02
				c-0.39,0.39-0.39,1.03,0,1.42L70.71,58.71z"/>
		</g>
		<g>
			<path style="fill:#FFEFED;" d="M39.29,58.71c-0.08,0.08-0.149,0.18-0.19,0.29H55v-4H39.08c0.04,0.1,0.109,0.19,0.189,0.27
				l1.021,1.02c0.39,0.39,0.39,1.03,0,1.42L39.29,58.71z"/>
		</g>
		<g>
			<path style="fill:#FFD7D4;" d="M70.71,74.71c0.08,0.08,0.15,0.18,0.19,0.29H39.1c0.041-0.11,0.11-0.21,0.19-0.29l1-1
				c0.39-0.39,0.39-1.03,0-1.42l-1.021-1.02C39.19,71.19,39.12,71.1,39.08,71h31.84c-0.04,0.1-0.109,0.19-0.189,0.27l-1.02,1.02
				c-0.39,0.39-0.39,1.03,0,1.42L70.71,74.71z"/>
		</g>
		<g>
			<path style="fill:#FFEFED;" d="M39.29,74.71c-0.08,0.08-0.149,0.18-0.19,0.29H55v-4H39.08c0.04,0.1,0.109,0.19,0.189,0.27
				l1.021,1.02c0.39,0.39,0.39,1.03,0,1.42L39.29,74.71z"/>
		</g>
		<g>
			<path style="fill:#E54B44;" d="M55,23h-4c-1.104,0-2,0.896-2,2v3c0,1.104,0.896,2,2,2h4V23z"/>
		</g>
	</g>
</g>
<g id="Yellow" style="display:none;">
	<g style="display:inline;">
		<g>
			<path style="fill:#FFF5D9;" d="M70.73,55.27c0.08-0.08,0.149-0.17,0.189-0.27c0.061-0.12,0.09-0.25,0.1-0.39
				c0.143-2.883,0.559-20.897-11.112-24.837C59.634,29.913,59.328,30,59,30h-8c-0.328,0-0.634-0.087-0.907-0.227
				C38.422,33.712,38.838,51.727,38.98,54.61c0.01,0.14,0.039,0.27,0.1,0.39c0.04,0.1,0.11,0.19,0.189,0.27l1.021,1.02
				c0.39,0.39,0.39,1.03,0,1.42l-1,1c-0.08,0.08-0.149,0.18-0.19,0.29c-0.069,0.13-0.1,0.27-0.1,0.41v11.18
				c0,0.26,0.11,0.52,0.29,0.7l1,1c0.39,0.39,0.39,1.03,0,1.42l-1,1c-0.18,0.18-0.29,0.44-0.29,0.7V83c0,2.21,1.79,4,4,4h24
				c2.21,0,4-1.79,4-4v-7.59c0-0.26-0.109-0.52-0.29-0.7l-1-1c-0.39-0.39-0.39-1.03,0-1.42l1-1c0.181-0.18,0.29-0.44,0.29-0.7V59.41
				c0-0.14-0.03-0.28-0.1-0.41c-0.04-0.11-0.11-0.21-0.19-0.29l-1-1c-0.39-0.39-0.39-1.03,0-1.42L70.73,55.27z"/>
		</g>
		<g>
			<path style="fill:#FFFFFF;" d="M55,30h-4c-0.328,0-0.634-0.087-0.907-0.227C38.422,33.712,38.838,51.727,38.98,54.61
				c0.01,0.14,0.039,0.27,0.1,0.39c0.04,0.1,0.11,0.19,0.189,0.27l1.021,1.02c0.39,0.39,0.39,1.03,0,1.42l-1,1
				c-0.08,0.08-0.149,0.18-0.19,0.29c-0.069,0.13-0.1,0.27-0.1,0.41v11.18c0,0.26,0.11,0.52,0.29,0.7l1,1
				c0.39,0.39,0.39,1.03,0,1.42l-1,1c-0.18,0.18-0.29,0.44-0.29,0.7V83c0,2.21,1.79,4,4,4h12V30z"/>
		</g>
		<g>
			<path style="fill:#E07000;" d="M61,25c0-1.104-0.896-2-2-2h-8c-1.104,0-2,0.896-2,2v3c0,1.105,0.896,2,2,2h8c1.104,0,2-0.895,2-2
				V25z"/>
		</g>
		<g>
			<path style="fill:#FFE9A1;" d="M70.71,58.71c0.08,0.08,0.15,0.18,0.19,0.29H39.1c0.041-0.11,0.11-0.21,0.19-0.29l1-1
				c0.39-0.39,0.39-1.03,0-1.42l-1.021-1.02C39.19,55.19,39.12,55.1,39.08,55h31.84c-0.04,0.1-0.109,0.19-0.189,0.27l-1.021,1.02
				c-0.39,0.39-0.39,1.03,0,1.42L70.71,58.71z"/>
		</g>
		<g>
			<path style="fill:#FFF5D9;" d="M39.29,58.71c-0.08,0.08-0.149,0.18-0.19,0.29H55v-4H39.08c0.04,0.1,0.109,0.19,0.189,0.27
				l1.021,1.02c0.39,0.39,0.39,1.03,0,1.42L39.29,58.71z"/>
		</g>
		<g>
			<path style="fill:#FFE9A1;" d="M70.71,74.71c0.08,0.08,0.15,0.18,0.19,0.29H39.1c0.041-0.11,0.11-0.21,0.19-0.29l1-1
				c0.39-0.39,0.39-1.03,0-1.42l-1.021-1.02C39.19,71.19,39.12,71.1,39.08,71h31.84c-0.04,0.1-0.109,0.19-0.189,0.27l-1.021,1.02
				c-0.39,0.39-0.39,1.03,0,1.42L70.71,74.71z"/>
		</g>
		<g>
			<path style="fill:#FFF5D9;" d="M39.29,74.71c-0.08,0.08-0.149,0.18-0.19,0.29H55v-4H39.08c0.04,0.1,0.109,0.19,0.189,0.27
				l1.021,1.02c0.39,0.39,0.39,1.03,0,1.42L39.29,74.71z"/>
		</g>
		<g>
			<path style="fill:#FA9200;" d="M55,23h-4c-1.104,0-2,0.896-2,2v3c0,1.104,0.896,2,2,2h4V23z"/>
		</g>
	</g>
</g>
<g id="R-Yellow" style="display:none;">
	<circle style="display:inline;fill:#FFD75E;" cx="55" cy="55" r="55"/>
	<g style="display:inline;">
		<g>
			<path style="fill:#FFF5D9;" d="M70.73,55.27c0.08-0.08,0.149-0.17,0.189-0.27c0.061-0.12,0.09-0.25,0.1-0.39
				c0.143-2.883,0.559-20.897-11.112-24.837C59.634,29.913,59.328,30,59,30h-8c-0.328,0-0.634-0.087-0.907-0.227
				C38.422,33.712,38.838,51.727,38.98,54.61c0.01,0.14,0.039,0.27,0.1,0.39c0.04,0.1,0.11,0.19,0.189,0.27l1.021,1.02
				c0.39,0.39,0.39,1.03,0,1.42l-1,1c-0.08,0.08-0.149,0.18-0.19,0.29c-0.069,0.13-0.1,0.27-0.1,0.41v11.18
				c0,0.26,0.11,0.52,0.29,0.7l1,1c0.39,0.39,0.39,1.03,0,1.42l-1,1c-0.18,0.18-0.29,0.44-0.29,0.7V83c0,2.21,1.79,4,4,4h24
				c2.21,0,4-1.79,4-4v-7.59c0-0.26-0.109-0.52-0.29-0.7l-1-1c-0.39-0.39-0.39-1.03,0-1.42l1-1c0.181-0.18,0.29-0.44,0.29-0.7V59.41
				c0-0.14-0.03-0.28-0.1-0.41c-0.04-0.11-0.11-0.21-0.19-0.29l-1-1c-0.39-0.39-0.39-1.03,0-1.42L70.73,55.27z"/>
		</g>
		<g>
			<path style="fill:#FFFFFF;" d="M55,30h-4c-0.328,0-0.634-0.087-0.907-0.227C38.422,33.712,38.838,51.727,38.98,54.61
				c0.01,0.14,0.039,0.27,0.1,0.39c0.04,0.1,0.11,0.19,0.189,0.27l1.021,1.02c0.39,0.39,0.39,1.03,0,1.42l-1,1
				c-0.08,0.08-0.149,0.18-0.19,0.29c-0.069,0.13-0.1,0.27-0.1,0.41v11.18c0,0.26,0.11,0.52,0.29,0.7l1,1
				c0.39,0.39,0.39,1.03,0,1.42l-1,1c-0.18,0.18-0.29,0.44-0.29,0.7V83c0,2.21,1.79,4,4,4h12V30z"/>
		</g>
		<g>
			<path style="fill:#E07000;" d="M61,25c0-1.104-0.896-2-2-2h-8c-1.104,0-2,0.896-2,2v3c0,1.105,0.896,2,2,2h8c1.104,0,2-0.895,2-2
				V25z"/>
		</g>
		<g>
			<path style="fill:#FFE9A1;" d="M70.71,58.71c0.08,0.08,0.15,0.18,0.19,0.29H39.1c0.041-0.11,0.11-0.21,0.19-0.29l1-1
				c0.39-0.39,0.39-1.03,0-1.42l-1.021-1.02C39.19,55.19,39.12,55.1,39.08,55h31.84c-0.04,0.1-0.109,0.19-0.189,0.27l-1.021,1.02
				c-0.39,0.39-0.39,1.03,0,1.42L70.71,58.71z"/>
		</g>
		<g>
			<path style="fill:#FFF5D9;" d="M39.29,58.71c-0.08,0.08-0.149,0.18-0.19,0.29H55v-4H39.08c0.04,0.1,0.109,0.19,0.189,0.27
				l1.021,1.02c0.39,0.39,0.39,1.03,0,1.42L39.29,58.71z"/>
		</g>
		<g>
			<path style="fill:#FFE9A1;" d="M70.71,74.71c0.08,0.08,0.15,0.18,0.19,0.29H39.1c0.041-0.11,0.11-0.21,0.19-0.29l1-1
				c0.39-0.39,0.39-1.03,0-1.42l-1.021-1.02C39.19,71.19,39.12,71.1,39.08,71h31.84c-0.04,0.1-0.109,0.19-0.189,0.27l-1.021,1.02
				c-0.39,0.39-0.39,1.03,0,1.42L70.71,74.71z"/>
		</g>
		<g>
			<path style="fill:#FFF5D9;" d="M39.29,74.71c-0.08,0.08-0.149,0.18-0.19,0.29H55v-4H39.08c0.04,0.1,0.109,0.19,0.189,0.27
				l1.021,1.02c0.39,0.39,0.39,1.03,0,1.42L39.29,74.71z"/>
		</g>
		<g>
			<path style="fill:#FA9200;" d="M55,23h-4c-1.104,0-2,0.896-2,2v3c0,1.104,0.896,2,2,2h4V23z"/>
		</g>
	</g>
</g>
</svg>
