<?xml version="1.0" encoding="iso-8859-1"?>
<!-- Generator: Adobe Illustrator 17.1.0, SVG Export Plug-In . SVG Version: 6.00 Build 0)  -->
<!DOCTYPE svg PUBLIC "-//W3C//DTD SVG 1.0//EN" "http://www.w3.org/TR/2001/REC-SVG-20010904/DTD/svg10.dtd">
<svg version="1.0" xmlns="http://www.w3.org/2000/svg" xmlns:xlink="http://www.w3.org/1999/xlink" x="0px" y="0px" width="110px"
	 height="110px" viewBox="0 0 110 110" style="enable-background:new 0 0 110 110;" xml:space="preserve">
<g id="Artboard">
</g>
<g id="Multicolor">
	<circle style="fill:#E04F5F;" cx="55" cy="55" r="55"/>
	<g>
		<path style="fill:#3E3E3F;" d="M42.945,78.122L41.331,87h4.065l1.416-7.79C45.524,78.938,44.168,78.581,42.945,78.122z"/>
		<g>
			<path style="fill:#FACB1B;" d="M60,42c-8.233,7.442-8.708,23.599-8.19,34.71c0.01,0.3,0.02,0.6,0.04,0.91
				c0.04,0.6-0.2,1.18-0.65,1.58c-0.44,0.41-1.04,0.59-1.64,0.5C46,79.18,39.71,77.85,39,75c-1-12,8-35,8-35L60,42z"/>
		</g>
		<g>
			<path style="fill:#3E3E3F;" d="M51.81,76.71C46,76,44,73,44,68s2-20,13.17-22.7C52.91,51.66,51.13,62.12,51.81,76.71z"/>
		</g>
		<g>
			<path style="fill:#FACB1B;" d="M61,43c0,3.314,2.686,6,6,6h14V26H67c-3.314,0-6,2.686-6,6V43z"/>
		</g>
		<g>
			<path style="fill:#FBE158;" d="M61,32v5.521h20V26H67C63.686,26,61,28.686,61,32z"/>
		</g>
		<g>
			<path style="fill:#FACB1B;" d="M87,50c0,1.105-0.895,2-2,2h-2c-1.105,0-2-0.895-2-2V25c0-1.105,0.895-2,2-2h2
				c1.105,0,2,0.895,2,2V50z"/>
		</g>
		<g>
			<path style="fill:#3E3E3F;" d="M61,32c0-0.298,0.029-0.589,0.071-0.876L47,33v8l14,1.867V32z"/>
		</g>
		<g>
			<path style="fill:#FACB1B;" d="M47,33c0-1.105-0.895-2-2-2h-9.645c-0.671,0-1.298,0.337-1.668,0.897
				c-0.37,0.56-0.436,1.269-0.172,1.887C34.26,35.532,36,39.019,36,42c0,6-13,16-13,24s4,11,6,11c3,0,0.827-7.067,4-15
				c4-10,14-16,14-21C47,39.021,47,35.302,47,33z"/>
		</g>
		<g>
			<path style="fill:#FBE158;" d="M47,39.024c0-1.954,0-4.357,0-6.025c0-1.104-0.895-2-2-2h-9.645c-0.671,0-1.298,0.337-1.668,0.897
				c-0.37,0.56-0.436,1.269-0.172,1.887C34.26,35.532,36,39.019,36,42c0,5.08-9.315,13.025-12.174,20.198L47,39.024z"/>
		</g>
		<g>
			<circle style="fill:#3E3E3F;" cx="42" cy="37" r="2"/>
		</g>
		<g>
			<rect x="75" y="26" style="fill:#3E3E3F;" width="6" height="23"/>
		</g>
		<g>
			<rect x="75" y="26" style="fill:#5B5C5F;" width="6" height="11.521"/>
		</g>
		<g>
			<path style="fill:#FBE158;" d="M84,23h-1c-1.104,0-2,0.896-2,2v25c0,1.104,0.896,2,2,2h1V23z"/>
		</g>
	</g>
</g>
</svg>
