<?xml version="1.0" encoding="iso-8859-1"?>
<!-- Generator: Adobe Illustrator 17.1.0, SVG Export Plug-In . SVG Version: 6.00 Build 0)  -->
<!DOCTYPE svg PUBLIC "-//W3C//DTD SVG 1.0//EN" "http://www.w3.org/TR/2001/REC-SVG-20010904/DTD/svg10.dtd">
<svg version="1.0" xmlns="http://www.w3.org/2000/svg" xmlns:xlink="http://www.w3.org/1999/xlink" x="0px" y="0px" width="110px"
	 height="110px" viewBox="0 0 110 110" style="enable-background:new 0 0 110 110;" xml:space="preserve">
<g id="Artboard" style="display:none;">
	
		<rect x="-968.5" y="-34.5" style="display:inline;fill:#808080;stroke:#000000;stroke-miterlimit:10;" width="1392" height="1369"/>
</g>
<g id="R-Multicolor">
	<circle style="fill:#FABC3D;" cx="55" cy="55" r="55"/>
	<g>
		<g>
			<path style="fill:#C9F2F8;" d="M73,47c0-5.034,4.658-14.996,6.471-18.073C80.738,26.778,80.026,23,74.026,23
				c-5,0-10.496,4.567-13.468,6.8c-1.041,0.782-2.299,1.2-3.601,1.2H39c-1.22,0-2.372,0.557-3.131,1.511
				c-0.759,0.954-1.044,2.204-0.769,3.393c0.234,1.009,0.475,2.109,0.704,3.229C28.063,39.983,23,45.332,23,53v10
				c0,5.295,4,5.292,4,0c0-15.035,4.139-15.942,9.877-15.996C36.874,52.007,31,67.002,31,75c0,6.59,6.187,12,9.088,12h29.823
				C72.833,87,79,81.582,79,75C79,67,73,53,73,47z"/>
		</g>
		<g>
			<path style="fill:#FFFFFF;" d="M55,31H39c-1.22,0-2.372,0.557-3.131,1.511c-0.759,0.954-1.044,2.204-0.769,3.393
				c0.234,1.009,0.475,2.109,0.704,3.229C28.063,39.983,23,45.332,23,53v10c0,5.295,4,5.292,4,0c0-15.035,4.139-15.942,9.877-15.996
				C36.874,52.007,31,67.002,31,75c0,6.59,6.187,12,9.088,12H55V31z"/>
		</g>
		<g>
			<path style="fill:#40C9E7;" d="M38.15,60c-1.275,4.631-2.65,9.758-2.65,13.25c0,4.993,3.835,8.068,5.614,9.226
				C41.642,82.82,42.253,83,42.884,83h24.232c0.628,0,1.244-0.182,1.771-0.524c1.779-1.158,5.614-4.233,5.614-9.226
				c0-3.576-1.471-8.618-2.798-13.25H38.15z"/>
		</g>
		<g>
			<path style="fill:#6FDAF1;" d="M55,60H38.15c-1.275,4.631-2.65,9.758-2.65,13.25c0,4.993,3.835,8.068,5.614,9.226
				C41.642,82.82,42.253,83,42.884,83H55V60z"/>
		</g>
	</g>
</g>
<g id="Multicolor" style="display:none;">
	<g style="display:inline;">
		<g>
			<path style="fill:#C9F2F8;" d="M73,47c0-5.034,4.658-14.996,6.471-18.073C80.738,26.778,80.026,23,74.026,23
				c-5,0-10.496,4.567-13.468,6.8c-1.041,0.782-2.299,1.2-3.601,1.2H39c-1.22,0-2.372,0.557-3.131,1.511
				c-0.759,0.954-1.044,2.204-0.769,3.393c0.234,1.009,0.475,2.109,0.704,3.229C28.063,39.983,23,45.332,23,53v10
				c0,5.295,4,5.292,4,0c0-15.035,4.139-15.942,9.877-15.996C36.874,52.007,31,67.002,31,75c0,6.59,6.187,12,9.088,12h29.823
				C72.833,87,79,81.582,79,75C79,67,73,53,73,47z"/>
		</g>
		<g>
			<path style="fill:#FFFFFF;" d="M55,31H39c-1.22,0-2.372,0.557-3.131,1.511c-0.759,0.954-1.044,2.204-0.769,3.393
				c0.234,1.009,0.475,2.109,0.704,3.229C28.063,39.983,23,45.332,23,53v10c0,5.295,4,5.292,4,0c0-15.035,4.139-15.942,9.877-15.996
				C36.874,52.007,31,67.002,31,75c0,6.59,6.187,12,9.088,12H55V31z"/>
		</g>
		<g>
			<path style="fill:#40C9E7;" d="M38.15,60c-1.275,4.631-2.65,9.758-2.65,13.25c0,4.993,3.835,8.068,5.614,9.226
				C41.642,82.82,42.253,83,42.884,83h24.232c0.628,0,1.244-0.182,1.771-0.524c1.779-1.158,5.614-4.233,5.614-9.226
				c0-3.576-1.471-8.618-2.798-13.25H38.15z"/>
		</g>
		<g>
			<path style="fill:#6FDAF1;" d="M55,60H38.15c-1.275,4.631-2.65,9.758-2.65,13.25c0,4.993,3.835,8.068,5.614,9.226
				C41.642,82.82,42.253,83,42.884,83H55V60z"/>
		</g>
	</g>
</g>
<g id="Blue" style="display:none;">
	<g style="display:inline;">
		<g>
			<path style="fill:#E1F5FA;" d="M73,47c0-5.034,4.658-14.996,6.471-18.073C80.738,26.778,80.026,23,74.026,23
				c-5,0-10.496,4.567-13.468,6.8c-1.041,0.782-2.299,1.2-3.601,1.2H39c-1.22,0-2.372,0.557-3.131,1.511
				c-0.76,0.955-1.045,2.205-0.77,3.393c0.234,1.009,0.475,2.109,0.704,3.229C28.062,39.983,23,45.332,23,53v10c0,5.295,4,5.292,4,0
				c0-15.035,4.14-15.941,9.877-15.996C36.874,52.007,31,67.002,31,75c0,6.59,6.188,12,9.088,12h29.824C72.833,87,79,81.581,79,75
				C79,67,73,53,73,47z"/>
		</g>
		<g>
			<path style="fill:#FFFFFF;" d="M55,31H39c-1.22,0-2.372,0.557-3.131,1.511c-0.76,0.955-1.045,2.205-0.77,3.393
				c0.234,1.009,0.475,2.109,0.704,3.229C28.062,39.983,23,45.332,23,53v10c0,5.295,4,5.292,4,0c0-15.035,4.14-15.941,9.877-15.996
				C36.874,52.007,31,67.002,31,75c0,6.59,6.188,12,9.088,12H55V31z"/>
		</g>
		<g>
			<path style="fill:#009FC7;" d="M38.15,60c-1.275,4.631-2.65,9.758-2.65,13.25c0,4.993,3.835,8.068,5.613,9.226
				C41.643,82.82,42.254,83,42.885,83h24.23c0.629,0,1.245-0.182,1.771-0.524c1.778-1.158,5.613-4.233,5.613-9.226
				c0-3.576-1.471-8.618-2.798-13.25H38.15z"/>
		</g>
		<g>
			<path style="fill:#00B7E5;" d="M55,60H38.15c-1.275,4.631-2.65,9.758-2.65,13.25c0,4.993,3.835,8.068,5.613,9.226
				C41.643,82.82,42.254,83,42.885,83H55V60z"/>
		</g>
	</g>
</g>
<g id="R-Blue" style="display:none;">
	<circle style="display:inline;fill:#81D2EB;" cx="55" cy="55" r="55"/>
	<g style="display:inline;">
		<g>
			<path style="fill:#E1F5FA;" d="M73,47c0-5.034,4.658-14.996,6.471-18.073C80.738,26.778,80.026,23,74.026,23
				c-5,0-10.496,4.567-13.468,6.8c-1.041,0.782-2.299,1.2-3.601,1.2H39c-1.22,0-2.372,0.557-3.131,1.511
				c-0.76,0.955-1.045,2.205-0.77,3.393c0.234,1.009,0.475,2.109,0.704,3.229C28.062,39.983,23,45.331,23,53v10c0,5.295,4,5.292,4,0
				c0-15.035,4.14-15.941,9.877-15.996C36.874,52.007,31,67.002,31,75c0,6.59,6.188,12,9.088,12h29.824C72.833,87,79,81.581,79,75
				C79,67,73,53,73,47z"/>
		</g>
		<g>
			<path style="fill:#FFFFFF;" d="M55,31H39c-1.22,0-2.372,0.557-3.131,1.511c-0.76,0.955-1.045,2.205-0.77,3.393
				c0.234,1.009,0.475,2.109,0.704,3.229C28.062,39.983,23,45.331,23,53v10c0,5.295,4,5.292,4,0c0-15.035,4.14-15.941,9.877-15.996
				C36.874,52.007,31,67.002,31,75c0,6.59,6.188,12,9.088,12H55V31z"/>
		</g>
		<g>
			<path style="fill:#009FC7;" d="M38.15,60c-1.275,4.631-2.65,9.758-2.65,13.25c0,4.993,3.835,8.068,5.613,9.226
				C41.643,82.82,42.254,83,42.885,83h24.23c0.629,0,1.245-0.182,1.771-0.524c1.778-1.158,5.613-4.233,5.613-9.226
				c0-3.576-1.471-8.618-2.798-13.25H38.15z"/>
		</g>
		<g>
			<path style="fill:#00B7E5;" d="M55,60H38.15c-1.275,4.631-2.65,9.758-2.65,13.25c0,4.993,3.835,8.068,5.613,9.226
				C41.643,82.82,42.254,83,42.885,83H55V60z"/>
		</g>
	</g>
</g>
<g id="Green" style="display:none;">
	<g style="display:inline;">
		<g>
			<path style="fill:#D7FCF9;" d="M73,47c0-5.034,4.658-14.996,6.471-18.073C80.738,26.778,80.026,23,74.026,23
				c-5,0-10.496,4.567-13.468,6.8c-1.041,0.782-2.299,1.2-3.601,1.2H39c-1.22,0-2.372,0.557-3.131,1.511
				c-0.76,0.955-1.045,2.205-0.77,3.393c0.234,1.009,0.475,2.109,0.704,3.229C28.062,39.983,23,45.332,23,53v10c0,5.295,4,5.292,4,0
				c0-15.035,4.14-15.941,9.877-15.996C36.874,52.007,31,67.002,31,75c0,6.59,6.188,12,9.088,12h29.824C72.833,87,79,81.581,79,75
				C79,67,73,53,73,47z"/>
		</g>
		<g>
			<path style="fill:#FFFFFF;" d="M55,31H39c-1.22,0-2.372,0.557-3.131,1.511c-0.76,0.955-1.045,2.205-0.77,3.393
				c0.234,1.009,0.475,2.109,0.704,3.229C28.062,39.983,23,45.332,23,53v10c0,5.295,4,5.292,4,0c0-15.035,4.14-15.941,9.877-15.996
				C36.874,52.007,31,67.002,31,75c0,6.59,6.188,12,9.088,12H55V31z"/>
		</g>
		<g>
			<path style="fill:#00B8A5;" d="M38.15,60c-1.275,4.631-2.65,9.758-2.65,13.25c0,4.993,3.835,8.068,5.613,9.226
				C41.643,82.82,42.254,83,42.885,83h24.23c0.629,0,1.245-0.182,1.771-0.524c1.778-1.158,5.613-4.233,5.613-9.226
				c0-3.576-1.471-8.618-2.798-13.25H38.15z"/>
		</g>
		<g>
			<path style="fill:#00D6C1;" d="M55,60H38.15c-1.275,4.631-2.65,9.758-2.65,13.25c0,4.993,3.835,8.068,5.613,9.226
				C41.643,82.82,42.254,83,42.885,83H55V60z"/>
		</g>
	</g>
</g>
<g id="R-Green" style="display:none;">
	<circle style="display:inline;fill:#77E0C4;" cx="55" cy="55" r="55"/>
	<g style="display:inline;">
		<g>
			<path style="fill:#D7FCF9;" d="M73,47c0-5.034,4.658-14.996,6.471-18.073C80.738,26.778,80.026,23,74.026,23
				c-5,0-10.496,4.567-13.468,6.8c-1.041,0.782-2.299,1.2-3.601,1.2H39c-1.22,0-2.372,0.557-3.131,1.511
				c-0.76,0.955-1.045,2.205-0.769,3.393c0.234,1.009,0.475,2.109,0.704,3.229C28.062,39.983,23,45.332,23,53v10
				c0,5.295,4,5.292,4,0c0-15.035,4.14-15.941,9.877-15.996C36.874,52.007,31,67.002,31,75c0,6.59,6.188,12,9.088,12h29.824
				C72.833,87,79,81.581,79,75C79,67,73,53,73,47z"/>
		</g>
		<g>
			<path style="fill:#FFFFFF;" d="M55,31H39c-1.22,0-2.372,0.557-3.131,1.511c-0.76,0.955-1.045,2.205-0.769,3.393
				c0.234,1.009,0.475,2.109,0.704,3.229C28.062,39.983,23,45.332,23,53v10c0,5.295,4,5.292,4,0c0-15.035,4.14-15.941,9.877-15.996
				C36.874,52.007,31,67.002,31,75c0,6.59,6.188,12,9.088,12H55V31z"/>
		</g>
		<g>
			<path style="fill:#00B8A5;" d="M38.15,60c-1.275,4.631-2.65,9.758-2.65,13.25c0,4.993,3.835,8.068,5.613,9.226
				C41.643,82.82,42.254,83,42.885,83h24.23c0.629,0,1.245-0.182,1.772-0.524c1.778-1.158,5.613-4.233,5.613-9.226
				c0-3.576-1.471-8.618-2.798-13.25H38.15z"/>
		</g>
		<g>
			<path style="fill:#00D6C1;" d="M55,60H38.15c-1.275,4.631-2.65,9.758-2.65,13.25c0,4.993,3.835,8.068,5.613,9.226
				C41.643,82.82,42.254,83,42.885,83H55V60z"/>
		</g>
	</g>
</g>
<g id="Red" style="display:none;">
	<g style="display:inline;">
		<g>
			<path style="fill:#FFEFED;" d="M73,47c0-5.034,4.658-14.996,6.471-18.073C80.738,26.778,80.026,23,74.026,23
				c-5,0-10.496,4.567-13.468,6.8c-1.041,0.782-2.299,1.2-3.601,1.2H39c-1.22,0-2.372,0.557-3.131,1.511
				c-0.76,0.955-1.045,2.205-0.769,3.393c0.234,1.009,0.475,2.109,0.704,3.229C28.062,39.983,23,45.332,23,53v10
				c0,5.295,4,5.292,4,0c0-15.035,4.14-15.941,9.877-15.996C36.874,52.007,31,67.002,31,75c0,6.59,6.187,12,9.088,12h29.824
				C72.833,87,79,81.581,79,75C79,67,73,53,73,47z"/>
		</g>
		<g>
			<path style="fill:#FFFFFF;" d="M55,31H39c-1.22,0-2.372,0.557-3.131,1.511c-0.76,0.955-1.045,2.205-0.769,3.393
				c0.234,1.009,0.475,2.109,0.704,3.229C28.062,39.983,23,45.332,23,53v10c0,5.295,4,5.292,4,0c0-15.035,4.14-15.941,9.877-15.996
				C36.874,52.007,31,67.002,31,75c0,6.59,6.187,12,9.088,12H55V31z"/>
		</g>
		<g>
			<path style="fill:#E54B44;" d="M38.15,60c-1.275,4.631-2.65,9.758-2.65,13.25c0,4.993,3.835,8.068,5.613,9.226
				C41.643,82.82,42.254,83,42.885,83h24.23c0.629,0,1.245-0.182,1.772-0.524c1.778-1.158,5.613-4.233,5.613-9.226
				c0-3.576-1.471-8.618-2.798-13.25H38.15z"/>
		</g>
		<g>
			<path style="fill:#FF6C5E;" d="M55,60H38.15c-1.275,4.631-2.65,9.758-2.65,13.25c0,4.993,3.835,8.068,5.613,9.226
				C41.643,82.82,42.254,83,42.885,83H55V60z"/>
		</g>
	</g>
</g>
<g id="R-Red" style="display:none;">
	<circle style="display:inline;fill:#FABBAF;" cx="55" cy="55" r="55"/>
	<g style="display:inline;">
		<g>
			<path style="fill:#FFEFED;" d="M73,47c0-5.034,4.658-14.996,6.471-18.073C80.738,26.778,80.026,23,74.026,23
				c-5,0-10.496,4.567-13.468,6.8c-1.041,0.782-2.299,1.2-3.601,1.2H39c-1.22,0-2.372,0.557-3.131,1.511
				c-0.76,0.955-1.045,2.205-0.769,3.393c0.234,1.009,0.475,2.109,0.704,3.229C28.062,39.983,23,45.332,23,53v10
				c0,5.295,4,5.292,4,0c0-15.035,4.14-15.941,9.877-15.996C36.874,52.007,31,67.002,31,75c0,6.59,6.187,12,9.088,12h29.824
				C72.833,87,79,81.581,79,75C79,67,73,53,73,47z"/>
		</g>
		<g>
			<path style="fill:#FFFFFF;" d="M55,31H39c-1.22,0-2.372,0.557-3.131,1.511c-0.76,0.955-1.045,2.205-0.769,3.393
				c0.234,1.009,0.475,2.109,0.704,3.229C28.062,39.983,23,45.332,23,53v10c0,5.295,4,5.292,4,0c0-15.035,4.14-15.941,9.877-15.996
				C36.874,52.007,31,67.002,31,75c0,6.59,6.187,12,9.088,12H55V31z"/>
		</g>
		<g>
			<path style="fill:#E54B44;" d="M38.15,60c-1.275,4.631-2.65,9.758-2.65,13.25c0,4.993,3.835,8.068,5.613,9.226
				C41.643,82.82,42.254,83,42.885,83h24.23c0.629,0,1.245-0.182,1.772-0.524c1.778-1.158,5.613-4.233,5.613-9.226
				c0-3.576-1.471-8.618-2.798-13.25H38.15z"/>
		</g>
		<g>
			<path style="fill:#FF6C5E;" d="M55,60H38.15c-1.275,4.631-2.65,9.758-2.65,13.25c0,4.993,3.835,8.068,5.613,9.226
				C41.643,82.82,42.254,83,42.885,83H55V60z"/>
		</g>
	</g>
</g>
<g id="Yellow" style="display:none;">
	<g style="display:inline;">
		<g>
			<path style="fill:#FFF5D9;" d="M73,47c0-5.034,4.658-14.996,6.471-18.073C80.738,26.778,80.026,23,74.026,23
				c-5,0-10.496,4.567-13.468,6.8c-1.041,0.782-2.299,1.2-3.601,1.2H39c-1.22,0-2.372,0.557-3.131,1.511
				c-0.76,0.955-1.045,2.205-0.769,3.393c0.234,1.009,0.475,2.109,0.704,3.229C28.062,39.983,23,45.332,23,53v10
				c0,5.295,4,5.292,4,0c0-15.035,4.14-15.941,9.877-15.996C36.874,52.007,31,67.002,31,75c0,6.59,6.188,12,9.088,12h29.824
				C72.833,87,79,81.581,79,75C79,67,73,53,73,47z"/>
		</g>
		<g>
			<path style="fill:#FFFFFF;" d="M55,31H39c-1.22,0-2.372,0.557-3.131,1.511c-0.76,0.955-1.045,2.205-0.769,3.393
				c0.234,1.009,0.475,2.109,0.704,3.229C28.062,39.983,23,45.332,23,53v10c0,5.295,4,5.292,4,0c0-15.035,4.14-15.941,9.877-15.996
				C36.874,52.007,31,67.002,31,75c0,6.59,6.188,12,9.088,12H55V31z"/>
		</g>
		<g>
			<path style="fill:#FA9200;" d="M38.15,60c-1.275,4.631-2.65,9.758-2.65,13.25c0,4.993,3.835,8.068,5.613,9.226
				C41.643,82.82,42.254,83,42.885,83h24.23c0.629,0,1.245-0.182,1.772-0.524c1.778-1.158,5.613-4.233,5.613-9.226
				c0-3.576-1.471-8.618-2.798-13.25H38.15z"/>
		</g>
		<g>
			<path style="fill:#FFAA00;" d="M55,60H38.15c-1.275,4.631-2.65,9.758-2.65,13.25c0,4.993,3.835,8.068,5.613,9.226
				C41.643,82.82,42.254,83,42.885,83H55V60z"/>
		</g>
	</g>
</g>
<g id="R-Yellow" style="display:none;">
	<circle style="display:inline;fill:#FFD75E;" cx="55" cy="55" r="55"/>
	<g style="display:inline;">
		<g>
			<path style="fill:#FFF5D9;" d="M73,47c0-5.034,4.658-14.996,6.471-18.073C80.738,26.778,80.026,23,74.026,23
				c-5,0-10.496,4.567-13.468,6.8c-1.041,0.782-2.299,1.2-3.601,1.2H39c-1.22,0-2.372,0.557-3.131,1.511
				c-0.76,0.955-1.045,2.205-0.77,3.393c0.234,1.009,0.475,2.109,0.704,3.229C28.062,39.983,23,45.332,23,53v10c0,5.295,4,5.292,4,0
				c0-15.035,4.14-15.941,9.877-15.996C36.874,52.007,31,67.002,31,75c0,6.59,6.188,12,9.088,12h29.824C72.833,87,79,81.581,79,75
				C79,67,73,53,73,47z"/>
		</g>
		<g>
			<path style="fill:#FFFFFF;" d="M55,31H39c-1.22,0-2.372,0.557-3.131,1.511c-0.76,0.955-1.045,2.205-0.77,3.393
				c0.234,1.009,0.475,2.109,0.704,3.229C28.062,39.983,23,45.332,23,53v10c0,5.295,4,5.292,4,0c0-15.035,4.14-15.941,9.877-15.996
				C36.874,52.007,31,67.002,31,75c0,6.59,6.188,12,9.088,12H55V31z"/>
		</g>
		<g>
			<path style="fill:#FA9200;" d="M38.15,60c-1.275,4.631-2.65,9.758-2.65,13.25c0,4.993,3.835,8.068,5.613,9.226
				C41.643,82.82,42.254,83,42.885,83h24.23c0.629,0,1.245-0.182,1.771-0.524c1.778-1.158,5.613-4.233,5.613-9.226
				c0-3.576-1.471-8.618-2.798-13.25H38.15z"/>
		</g>
		<g>
			<path style="fill:#FFAA00;" d="M55,60H38.15c-1.275,4.631-2.65,9.758-2.65,13.25c0,4.993,3.835,8.068,5.613,9.226
				C41.643,82.82,42.254,83,42.885,83H55V60z"/>
		</g>
	</g>
</g>
</svg>
