<?xml version="1.0" encoding="iso-8859-1"?>
<!-- Generator: Adobe Illustrator 17.1.0, SVG Export Plug-In . SVG Version: 6.00 Build 0)  -->
<!DOCTYPE svg PUBLIC "-//W3C//DTD SVG 1.0//EN" "http://www.w3.org/TR/2001/REC-SVG-20010904/DTD/svg10.dtd">
<svg version="1.0" xmlns="http://www.w3.org/2000/svg" xmlns:xlink="http://www.w3.org/1999/xlink" x="0px" y="0px" width="110px"
	 height="110px" viewBox="0 0 110 110" style="enable-background:new 0 0 110 110;" xml:space="preserve">
<g id="Artboard">
</g>
<g id="Multicolor">
	<circle style="fill:#25B7D3;" cx="55" cy="55" r="55"/>
	<g>
		<g>
			<path style="fill:#C9F2F8;" d="M23,87c0-24,21-50,39-33c-6-1-20,9-11,21c1-6,9-11,14-8c-2,1-6,9,4,11c1-6,7-9,11-7
				c-2,2-3,10,7,12c0,3,0,4,0,4S30,87,23,87z"/>
		</g>
		<g>
			<circle style="fill:#FACB1B;" cx="77" cy="37" r="10"/>
		</g>
		<g>
			<path style="fill:#FBE158;" d="M77,27c-5.523,0-10,4.477-10,10c0,2.449,0.883,4.69,2.345,6.428l14.083-14.083
				C81.69,27.883,79.449,27,77,27z"/>
		</g>
	</g>
</g>
</svg>
