<?xml version="1.0" encoding="iso-8859-1"?>
<!-- Generator: Adobe Illustrator 17.1.0, SVG Export Plug-In . SVG Version: 6.00 Build 0)  -->
<!DOCTYPE svg PUBLIC "-//W3C//DTD SVG 1.0//EN" "http://www.w3.org/TR/2001/REC-SVG-20010904/DTD/svg10.dtd">
<svg version="1.0" xmlns="http://www.w3.org/2000/svg" xmlns:xlink="http://www.w3.org/1999/xlink" x="0px" y="0px" width="110px"
	 height="110px" viewBox="0 0 110 110" style="enable-background:new 0 0 110 110;" xml:space="preserve">
<g id="Artboard">
</g>
<g id="Multicolor">
	<circle style="fill:#32BEA6;" cx="55" cy="55" r="55"/>
	<g>
		<path style="fill:#F0F1F1;" d="M86.495,83.671c-1.693-4.202-5.581-8.903-10.688-13.941C80.277,64.768,83,58.202,83,51
			c0-11.7-7.18-21.72-17.37-25.91C62.35,23.74,58.76,23,55,23c-3.79,0-7.4,0.75-10.7,2.12C34.15,29.32,27,39.33,27,51
			c0,7.202,2.723,13.768,7.193,18.73c-6.983,6.891-9.288,10.739-11.005,14.424c-0.3,0.644-0.263,1.416,0.244,2.067
			C23.805,86.701,24.375,87,25,87l0,0h18.178H85c0.788,0,1.502-0.462,1.824-1.181C87.147,85.101,87.018,84.26,86.495,83.671z"/>
		<path style="fill:#FFFFFF;" d="M55,23c-3.79,0-7.4,0.75-10.7,2.12C34.15,29.32,27,39.33,27,51c0,7.202,2.723,13.768,7.193,18.73
			c-6.983,6.891-9.288,10.739-11.005,14.424c-0.3,0.644-0.263,1.416,0.244,2.067C23.805,86.701,24.375,87,25,87h18.178H55V23z"/>
		<path style="fill:#CFD3D4;" d="M83,51c0,15.46-12.54,28-28,28S27,66.46,27,51c0-15.461,12.544-28,28-28C70.458,23,83,35.542,83,51
			z"/>
		<path style="fill:#FFFFFF;" d="M66.963,35H67c-2.16-3.16-2.49-6.48-1.37-9.91C62.35,23.74,58.76,23,55,23
			c-3.79,0-7.4,0.75-10.7,2.12c1.3,4.02,0.73,7.25-1.3,9.88h0.037C38.166,38.648,35,44.447,35,51c0,11.046,8.954,20,20,20
			s20-8.954,20-20C75,44.447,71.834,38.648,66.963,35z"/>
		<path style="fill:#E2E4E5;" d="M44.3,25.12C34.15,29.32,27,39.33,27,51c0,15.46,12.54,28,28,28V23C51.21,23,47.6,23.75,44.3,25.12
			z"/>
		<path style="fill:#FFFFFF;" d="M44.3,25.12c1.3,4.02,0.73,7.25-1.3,9.88h0.037C38.166,38.648,35,44.447,35,51
			c0,11.046,8.954,20,20,20V23C51.21,23,47.6,23.75,44.3,25.12z"/>
		<circle style="fill:#40C9E7;" cx="55" cy="51" r="12"/>
		<circle style="fill:#FA5655;" cx="55" cy="31" r="3"/>
	</g>
</g>
</svg>
