<?xml version="1.0" encoding="iso-8859-1"?>
<!-- Generator: Adobe Illustrator 17.1.0, SVG Export Plug-In . SVG Version: 6.00 Build 0)  -->
<!DOCTYPE svg PUBLIC "-//W3C//DTD SVG 1.0//EN" "http://www.w3.org/TR/2001/REC-SVG-20010904/DTD/svg10.dtd">
<svg version="1.0" xmlns="http://www.w3.org/2000/svg" xmlns:xlink="http://www.w3.org/1999/xlink" x="0px" y="0px" width="110px"
	 height="110px" viewBox="0 0 110 110" style="enable-background:new 0 0 110 110;" xml:space="preserve">
<g id="Artboard">
</g>
<g id="Multicolor">
	<circle style="fill:#25B7D3;" cx="55" cy="55" r="55"/>
	<g>
		<g>
			<path style="fill:#3E3E3F;" d="M42,37c0.721,0,5.753,2.259,9,4c1.3,0.697,2.111,2.054,2.111,3.529L52,63h-4l-2,24H30l-2-24h-4
				l-1-17.545c0-1.423,0.756-2.738,1.985-3.455L34,37H42z"/>
		</g>
		<g>
			<path style="fill:#5B5C5F;" d="M37.875,37H34l-9.016,5C23.756,42.716,23,44.032,23,45.455L24,63h4l2,24h7.875V37z"/>
		</g>
		<g>
			<path style="fill:#FFFFFF;" d="M42,37h-8l-2.595,1.513L38,55l6.739-16.848C43.35,37.474,42.28,37,42,37z"/>
		</g>
		<g>
			<circle style="fill:#FBC8C8;" cx="38" cy="31" r="8"/>
		</g>
		<g>
			<path style="fill:#FBD7D7;" d="M37.875,23.006C33.515,23.074,30,26.624,30,31s3.515,7.926,7.875,7.994V23.006z"/>
		</g>
		<g>
			<path style="fill:#FFFFFF;" d="M53,43h32v-4c0-8.837-7.163-16-16-16s-16,7.163-16,16V43z"/>
		</g>
		<g>
			<path style="fill:#FBD7D7;" d="M24,63v1.448c0,1.314,1.065,2.379,2.378,2.379c1.314,0,2.378-1.065,2.378-2.379V63H24z"/>
		</g>
		<g>
			<path style="fill:#FBC8C8;" d="M47,63v1.448c0,1.314,1.065,2.379,2.378,2.379c1.314,0,2.379-1.065,2.379-2.379V63H47z"/>
		</g>
		<g>
			<polygon style="fill:#F3B607;" points="37,42 35.462,48.654 38,55 40.538,48.654 39,42 			"/>
		</g>
		<g>
			<path style="fill:#FACB1B;" d="M38,39c-0.818,0-1.606-0.124-2.35-0.352L37,42h2l1.35-3.352C39.606,38.876,38.818,39,38,39z"/>
		</g>
		<path style="fill:#FBC8C8;" d="M82.921,46.196c0-1.368-0.699-2.641-1.853-3.375l-7.918-5.039c2.262-1.414,3.771-3.918,3.771-6.782
			c0-4.418-3.582-8-8-8c-4.418,0-8,3.582-8,8c0,2.864,1.51,5.369,3.771,6.782l-7.919,5.039c-1.154,0.734-1.853,2.007-1.853,3.375
			L53,64c0,1.104,0.896,2,2,2s2-0.896,2-2l1.921-13h20l2,13c0,1.104,0.896,2,2,2s2-0.896,2-2L82.921,46.196z"/>
		<g>
			<path style="fill:#F0F1F1;" d="M74.956,60c0-4,4-6,4-9s-1.259-5-4.02-5c-2.581,0-4.617,0.799-5.99,1.572
				C67.574,46.799,65.537,46,62.956,46c-2.761,0-4.02,2-4.02,5s4.02,5,4.02,9s-19.123,27-9,27c2.668,0,29.332,0,32,0
				C90.956,87,74.956,64,74.956,60z"/>
		</g>
		<g>
			<path style="fill:#84462D;" d="M72.994,31.998c0-0.551-0.447-0.998-0.998-0.998c-0.001,0-0.002,0-0.003,0
				c0,0.01,0.003,0.02,0.003,0.031c0,0.55-0.445,0.996-0.995,0.998c0.017,0.537,0.454,0.967,0.995,0.967
				C72.547,32.996,72.994,32.549,72.994,31.998z"/>
		</g>
		<g>
			<path style="fill:#84462D;" d="M36.006,29.998c0-0.551-0.447-0.998-0.998-0.998c-0.001,0-0.002,0-0.003,0
				c0,0.01,0.003,0.02,0.003,0.031c0,0.55-0.445,0.996-0.995,0.998c0.017,0.537,0.454,0.967,0.995,0.967
				C35.559,30.996,36.006,30.549,36.006,29.998z"/>
		</g>
		<g>
			<path style="fill:#84462D;" d="M42,29.998C42,29.447,41.553,29,41.002,29c-0.001,0-0.002,0-0.003,0
				c0,0.01,0.003,0.02,0.003,0.031c0,0.55-0.445,0.996-0.995,0.998c0.017,0.537,0.454,0.967,0.995,0.967
				C41.553,30.996,42,30.549,42,29.998z"/>
		</g>
		<g>
			<path style="fill:#F79392;" d="M35.006,33h6c0,0,0,2.52-3,2.52S35.006,33,35.006,33z"/>
		</g>
		<g>
			<path style="fill:#84462D;" d="M44.95,27.047C43.573,24.632,40.979,23,38,23c-2.545,0-4.809,1.193-6.273,3.045
				C35.369,28.414,40.733,28.441,44.95,27.047z"/>
		</g>
		<g>
			<path style="fill:#FBD7D7;" d="M68.921,39c-1.555,0-3.001-0.451-4.229-1.218l-7.918,5.04c-1.154,0.734-1.853,2.007-1.853,3.375
				L53,64c0,1.104,0.896,2,2,2s2-0.896,2-2l1.921-13h10V39z"/>
		</g>
		<g>
			<path style="fill:#FFFFFF;" d="M69,47.567c-0.003,0.001-0.007,0.003-0.01,0.005C67.618,46.799,65.581,46,63,46
				c-2.761,0-4.021,2-4.021,5S63,56,63,60s-19.123,27-9,27c2.668,0,8.852,0,12.979,0c0.758,0,1.436,0,2.021,0V47.567z"/>
		</g>
		<g>
			<path style="fill:#FBD7D7;" d="M60.922,31c0,4.418,3.582,8,8,8V23C64.503,23,60.922,26.582,60.922,31z"/>
		</g>
		<g>
			<path style="fill:#AF7653;" d="M69,26.953C70.15,28.781,72.18,30,74.5,30c2.199,0,4.139-1.095,5.316-2.766
				C76.966,24.613,73.176,23,69,23s-7.966,1.613-10.816,4.234C59.361,28.905,61.301,30,63.5,30C65.82,30,67.85,28.781,69,26.953z"/>
		</g>
		<g>
			<path style="fill:#84462D;" d="M67,31.998C67,31.447,66.553,31,66.002,31c-0.001,0-0.002,0-0.003,0
				c0,0.01,0.003,0.02,0.003,0.031c0,0.55-0.445,0.996-0.995,0.998c0.017,0.537,0.454,0.967,0.995,0.967
				C66.553,32.996,67,32.549,67,31.998z"/>
		</g>
		<g>
			<path style="fill:#F79392;" d="M66,35h6c0,0,0,2.52-3,2.52S66,35,66,35z"/>
		</g>
	</g>
</g>
</svg>
