<?xml version="1.0" encoding="iso-8859-1"?>
<!-- Generator: Adobe Illustrator 17.1.0, SVG Export Plug-In . SVG Version: 6.00 Build 0)  -->
<!DOCTYPE svg PUBLIC "-//W3C//DTD SVG 1.0//EN" "http://www.w3.org/TR/2001/REC-SVG-20010904/DTD/svg10.dtd">
<svg version="1.0" xmlns="http://www.w3.org/2000/svg" xmlns:xlink="http://www.w3.org/1999/xlink" x="0px" y="0px" width="110px"
	 height="110px" viewBox="0 0 110 110" style="enable-background:new 0 0 110 110;" xml:space="preserve">
<g id="Artboard">
</g>
<g id="Multicolor">
	<circle style="fill:#32BEA6;" cx="54.879" cy="55" r="55"/>
	<g>
		<g>
			<path style="fill:#F79392;" d="M87,67v16c0,2.21-1.79,4-4,4H27c-2.21,0-4-1.79-4-4V67c0-2.21,1.79-4,4-4h56
				C85.21,63,87,64.79,87,67z"/>
		</g>
		<g>
			<path style="fill:#40C9E7;" d="M71,47c2.21,0,4,1.79,4,4v12H35V51c0-2.21,1.79-4,4-4H71z"/>
		</g>
		<g>
			<polygon style="fill:#3E3E3F;" points="51,30 55,32 55,40 53,40 53,47 45,47 45,40 43,40 43,32 47,30 			"/>
		</g>
		<g>
			<polygon style="fill:#5B5C5F;" points="48.996,47 48.996,30 47,30 43,32 43,40 45,40 45,47 			"/>
		</g>
		<g>
			<path style="fill:#F0F1F1;" d="M67,47c-1.15-1.922-3-5.737-3-8c0-1.81,1.21-3.61,1.79-4.76c0.384-0.769,0.232-1.697-0.38-2.31
				l-1.5-1.201C64.583,30.011,65,29.053,65,28c0-2.21-1.79-4-4-4s-4,1.79-4,4c0,1.053,0.417,2.011,1.09,2.729l-1.5,1.201
				c-0.61,0.61-0.76,1.54-0.38,2.31C56.79,35.39,58,37.19,58,39c0,3-3,8-3,8H67z"/>
		</g>
		<g>
			<path style="fill:#FFFFFF;" d="M60.871,47V24.013C58.722,24.083,57,25.834,57,28c0,1.054,0.417,2.011,1.09,2.729l-1.5,1.201
				c-0.61,0.61-0.76,1.54-0.38,2.311C56.79,35.39,58,37.19,58,39c0,3-3,8-3,8H60.871z"/>
		</g>
		<g>
			<path style="fill:#C9F2F8;" d="M71,47c2.21,0,4,1.79,4,4v4c0,0,0,4-4,4s-3-7-7-7s-4,7-9,7s-5-7-9-7s-3,7-7,7s-4-4-4-4v-4
				c0-2.21,1.79-4,4-4H71z"/>
		</g>
		<g>
			<path style="fill:#FBC8C8;" d="M87,67v4H23v-4c0-2.21,1.79-4,4-4h56C85.21,63,87,64.79,87,67z"/>
		</g>
		<g>
			<path style="fill:#FBC8C8;" d="M23,83v-4h64v4c0,2.21-1.79,4-4,4H27C24.79,87,23,85.21,23,83z"/>
		</g>
		<g>
			<path style="fill:#FBC8C8;" d="M53,28c0,2.181-1.771,4-4,4c-2.277,0-4-1.864-4-4c0-2.21,1.79-4,4-4C51.21,24,53,25.79,53,28z"/>
		</g>
		<g>
			<path style="fill:#FBC8C8;" d="M65,28c0,2.192-1.776,4-4,4c-2.222,0-4-1.807-4-4c0-2.21,1.79-4,4-4C63.21,24,65,25.79,65,28z"/>
		</g>
		<g>
			<path style="fill:#FFFFFF;" d="M51.53,31.1L49,35.625L46.47,31.1C47.16,31.66,48.04,32,49,32C49.96,32,50.84,31.66,51.53,31.1z"
				/>
		</g>
		<g>
			<path style="fill:#FBD7D7;" d="M48.996,24C46.788,24.002,45,25.792,45,28c0,2.135,1.722,3.997,3.996,4V24z"/>
		</g>
		<g>
			<path style="fill:#FBD7D7;" d="M60.871,24.013C58.722,24.083,57,25.834,57,28c0,2.149,1.711,3.917,3.871,3.987V24.013z"/>
		</g>
		<path style="fill:#F7B4B4;" d="M55,63H27c-2.21,0-4,1.79-4,4v16c0,2.21,1.79,4,4,4h28V63z"/>
		<path style="fill:#FBD7D7;" d="M55,79H23v4c0,2.21,1.79,4,4,4h28V79z"/>
		<path style="fill:#FBD7D7;" d="M55,63H27c-2.21,0-4,1.79-4,4v4h32V63z"/>
		<path style="fill:#9CE5F4;" d="M55,47H39c-2.21,0-4,1.79-4,4v12h20V47z"/>
		<path style="fill:#FFFFFF;" d="M39,47c-2.21,0-4,1.79-4,4v4c0,0,0,4,4,4s3-7,7-7s4,7,9,7V47H39z"/>
	</g>
</g>
</svg>
