<?xml version="1.0" encoding="iso-8859-1"?>
<!-- Generator: Adobe Illustrator 17.1.0, SVG Export Plug-In . SVG Version: 6.00 Build 0)  -->
<!DOCTYPE svg PUBLIC "-//W3C//DTD SVG 1.0//EN" "http://www.w3.org/TR/2001/REC-SVG-20010904/DTD/svg10.dtd">
<svg version="1.0" xmlns="http://www.w3.org/2000/svg" xmlns:xlink="http://www.w3.org/1999/xlink" x="0px" y="0px" width="110px"
	 height="110px" viewBox="0 0 110 110" style="enable-background:new 0 0 110 110;" xml:space="preserve">
<g id="Artboard" style="display:none;">
	
		<rect x="-584.5" y="-674.5" style="display:inline;fill:#808080;stroke:#000000;stroke-miterlimit:10;" width="1392" height="1369"/>
</g>
<g id="R-Multicolor">
	<circle style="fill:#E04F5F;" cx="55" cy="55" r="55"/>
	<g>
		<g>
			<path style="fill:#FACB1B;" d="M41.934,77.553c-0.62,0.31-1.356,0.277-1.946-0.088s-0.949-1.008-0.949-1.701v-1.528
				c0-0.758,0.428-1.45,1.106-1.789l8-4c0.62-0.31,1.356-0.277,1.946,0.088s0.949,1.008,0.949,1.701v1.528
				c0,0.758-0.428,1.45-1.106,1.789L41.934,77.553z"/>
		</g>
		<g>
			<path style="fill:#FACB1B;" d="M41.934,67.553c-0.62,0.31-1.356,0.277-1.946-0.088s-0.949-1.008-0.949-1.701v-1.528
				c0-0.758,0.428-1.45,1.106-1.789l8-4c0.62-0.31,1.356-0.277,1.946,0.088s0.949,1.008,0.949,1.701v1.528
				c0,0.758-0.428,1.45-1.106,1.789L41.934,67.553z"/>
		</g>
		<g>
			<path style="fill:#FACB1B;" d="M41.934,57.553c-0.62,0.31-1.356,0.277-1.946-0.088s-0.949-1.008-0.949-1.701v-1.528
				c0-0.758,0.428-1.45,1.106-1.789l8-4c0.62-0.31,1.356-0.277,1.946,0.088s0.949,1.008,0.949,1.701v1.528
				c0,0.758-0.428,1.45-1.106,1.789L41.934,57.553z"/>
		</g>
		<g>
			<path style="fill:#FACB1B;" d="M43.48,47.167c-0.929,0.509-2.057,0.49-2.969-0.05s-1.472-1.52-1.472-2.579
				c0-0.925,0.468-1.786,1.245-2.289c4.173-2.705,6.164-6.065,6.682-9.722c0.062-0.441,0.409-0.787,0.85-0.85
				c0.441-0.062,0.87,0.174,1.053,0.58C52.263,39.795,48.274,44.543,43.48,47.167z"/>
		</g>
		<g>
			<path style="fill:#FBEC9A;" d="M32.145,77.553c0.62,0.31,1.356,0.277,1.946-0.088s0.949-1.008,0.949-1.701v-1.528
				c0-0.758-0.428-1.45-1.106-1.789l-8-4c-0.62-0.31-1.356-0.277-1.946,0.088c-0.59,0.364-0.949,1.008-0.949,1.701v1.528
				c0,0.758,0.428,1.45,1.106,1.789L32.145,77.553z"/>
		</g>
		<g>
			<path style="fill:#FBEC9A;" d="M32.145,67.553c0.62,0.31,1.356,0.277,1.946-0.088s0.949-1.008,0.949-1.701v-1.528
				c0-0.758-0.428-1.45-1.106-1.789l-8-4c-0.62-0.31-1.356-0.277-1.946,0.088c-0.59,0.364-0.949,1.008-0.949,1.701v1.528
				c0,0.758,0.428,1.45,1.106,1.789L32.145,67.553z"/>
		</g>
		<g>
			<path style="fill:#FBEC9A;" d="M32.145,57.553c0.62,0.31,1.356,0.277,1.946-0.088s0.949-1.008,0.949-1.701v-1.528
				c0-0.758-0.428-1.45-1.106-1.789l-8-4c-0.62-0.31-1.356-0.277-1.946,0.088c-0.59,0.364-0.949,1.008-0.949,1.701v1.528
				c0,0.758,0.428,1.45,1.106,1.789L32.145,57.553z"/>
		</g>
		<g>
			<path style="fill:#FBEC9A;" d="M30.598,47.167c0.929,0.509,2.057,0.49,2.969-0.05c0.911-0.539,1.472-1.52,1.472-2.579
				c0-0.925-0.468-1.786-1.245-2.289c-4.173-2.705-6.164-6.065-6.682-9.722c-0.062-0.441-0.409-0.787-0.85-0.85
				c-0.441-0.062-0.87,0.174-1.053,0.58C21.815,39.795,25.804,44.543,30.598,47.167z"/>
		</g>
		<g>
			<path style="fill:#FACB1B;" d="M42.706,34.333c0,3.13-2.537,5.667-5.667,5.667c-3.13,0-5.667-2.537-5.667-5.667
				c0-3.13,5.667-11.333,5.667-11.333S42.706,31.204,42.706,34.333z"/>
		</g>
		<g>
			<path style="fill:#FACB1B;" d="M77.934,77.553c-0.62,0.31-1.356,0.277-1.946-0.088c-0.59-0.364-0.949-1.008-0.949-1.701v-1.528
				c0-0.758,0.428-1.45,1.106-1.789l8-4c0.62-0.31,1.356-0.277,1.946,0.088c0.59,0.364,0.949,1.008,0.949,1.701v1.528
				c0,0.758-0.428,1.45-1.106,1.789L77.934,77.553z"/>
		</g>
		<g>
			<path style="fill:#FACB1B;" d="M77.934,67.553c-0.62,0.31-1.356,0.277-1.946-0.088c-0.59-0.364-0.949-1.008-0.949-1.701v-1.528
				c0-0.758,0.428-1.45,1.106-1.789l8-4c0.62-0.31,1.356-0.277,1.946,0.088c0.59,0.364,0.949,1.008,0.949,1.701v1.528
				c0,0.758-0.428,1.45-1.106,1.789L77.934,67.553z"/>
		</g>
		<g>
			<path style="fill:#FACB1B;" d="M77.934,57.553c-0.62,0.31-1.356,0.277-1.946-0.088c-0.59-0.364-0.949-1.008-0.949-1.701v-1.528
				c0-0.758,0.428-1.45,1.106-1.789l8-4c0.62-0.31,1.356-0.277,1.946,0.088c0.59,0.364,0.949,1.008,0.949,1.701v1.528
				c0,0.758-0.428,1.45-1.106,1.789L77.934,57.553z"/>
		</g>
		<g>
			<path style="fill:#FACB1B;" d="M79.48,47.167c-0.929,0.509-2.057,0.49-2.969-0.05s-1.472-1.52-1.472-2.579
				c0-0.925,0.468-1.786,1.245-2.289c4.173-2.705,6.164-6.065,6.682-9.722c0.062-0.441,0.409-0.787,0.85-0.85
				c0.441-0.062,0.87,0.174,1.053,0.58C88.263,39.795,84.274,44.543,79.48,47.167z"/>
		</g>
		<g>
			<path style="fill:#FBEC9A;" d="M68.145,77.553c0.62,0.31,1.356,0.277,1.946-0.088c0.59-0.364,0.949-1.008,0.949-1.701v-1.528
				c0-0.758-0.428-1.45-1.106-1.789l-8-4c-0.62-0.31-1.356-0.277-1.946,0.088s-0.949,1.008-0.949,1.701v1.528
				c0,0.758,0.428,1.45,1.106,1.789L68.145,77.553z"/>
		</g>
		<g>
			<path style="fill:#FBEC9A;" d="M68.145,67.553c0.62,0.31,1.356,0.277,1.946-0.088c0.59-0.364,0.949-1.008,0.949-1.701v-1.528
				c0-0.758-0.428-1.45-1.106-1.789l-8-4c-0.62-0.31-1.356-0.277-1.946,0.088s-0.949,1.008-0.949,1.701v1.528
				c0,0.758,0.428,1.45,1.106,1.789L68.145,67.553z"/>
		</g>
		<g>
			<path style="fill:#FBEC9A;" d="M68.145,57.553c0.62,0.31,1.356,0.277,1.946-0.088c0.59-0.364,0.949-1.008,0.949-1.701v-1.528
				c0-0.758-0.428-1.45-1.106-1.789l-8-4c-0.62-0.31-1.356-0.277-1.946,0.088s-0.949,1.008-0.949,1.701v1.528
				c0,0.758,0.428,1.45,1.106,1.789L68.145,57.553z"/>
		</g>
		<g>
			<path style="fill:#FBEC9A;" d="M66.598,47.167c0.929,0.509,2.057,0.49,2.969-0.05c0.911-0.539,1.472-1.52,1.472-2.579
				c0-0.925-0.468-1.786-1.245-2.289c-4.173-2.705-6.164-6.065-6.682-9.722c-0.062-0.441-0.409-0.787-0.85-0.85
				c-0.441-0.062-0.87,0.174-1.053,0.58C57.815,39.795,61.804,44.543,66.598,47.167z"/>
		</g>
		<g>
			<path style="fill:#FACB1B;" d="M78.706,34.333c0,3.13-2.537,5.667-5.667,5.667c-3.13,0-5.667-2.537-5.667-5.667
				c0-3.13,5.667-11.333,5.667-11.333S78.706,31.204,78.706,34.333z"/>
		</g>
		<g>
			<path style="fill:#FBEC9A;" d="M31.373,34.333c0,3.129,2.537,5.667,5.667,5.667V23C37.039,23,31.373,31.204,31.373,34.333z"/>
		</g>
		<g>
			<path style="fill:#FBEC9A;" d="M67.373,34.333c0,3.129,2.537,5.667,5.667,5.667V23C73.039,23,67.373,31.204,67.373,34.333z"/>
		</g>
		<g>
			<path style="fill:#FBEC9A;" d="M39,85c0,1.105-0.895,2-2,2s-2-0.895-2-2v-4c0-1.105,0.895-2,2-2s2,0.895,2,2V85z"/>
		</g>
		<g>
			<path style="fill:#FBEC9A;" d="M75,85c0,1.105-0.895,2-2,2s-2-0.895-2-2v-4c0-1.105,0.895-2,2-2s2,0.895,2,2V85z"/>
		</g>
	</g>
</g>
<g id="Multicolor" style="display:none;">
	<g style="display:inline;">
		<g>
			<path style="fill:#FACB1B;" d="M41.934,77.553c-0.62,0.31-1.356,0.277-1.946-0.088s-0.949-1.008-0.949-1.701v-1.528
				c0-0.758,0.428-1.45,1.106-1.789l8-4c0.62-0.31,1.356-0.277,1.946,0.088s0.949,1.008,0.949,1.701v1.528
				c0,0.758-0.428,1.45-1.106,1.789L41.934,77.553z"/>
		</g>
		<g>
			<path style="fill:#FACB1B;" d="M41.934,67.553c-0.62,0.31-1.356,0.277-1.946-0.088s-0.949-1.008-0.949-1.701v-1.528
				c0-0.758,0.428-1.45,1.106-1.789l8-4c0.62-0.31,1.356-0.277,1.946,0.088s0.949,1.008,0.949,1.701v1.528
				c0,0.758-0.428,1.45-1.106,1.789L41.934,67.553z"/>
		</g>
		<g>
			<path style="fill:#FACB1B;" d="M41.934,57.553c-0.62,0.31-1.356,0.277-1.946-0.088s-0.949-1.008-0.949-1.701v-1.528
				c0-0.758,0.428-1.45,1.106-1.789l8-4c0.62-0.31,1.356-0.277,1.946,0.088s0.949,1.008,0.949,1.701v1.528
				c0,0.758-0.428,1.45-1.106,1.789L41.934,57.553z"/>
		</g>
		<g>
			<path style="fill:#FACB1B;" d="M43.48,47.167c-0.929,0.509-2.057,0.49-2.969-0.05s-1.472-1.52-1.472-2.579
				c0-0.925,0.468-1.786,1.245-2.289c4.173-2.705,6.164-6.065,6.682-9.722c0.062-0.441,0.409-0.787,0.85-0.85
				c0.441-0.062,0.87,0.174,1.053,0.58C52.263,39.795,48.274,44.543,43.48,47.167z"/>
		</g>
		<g>
			<path style="fill:#FBEC9A;" d="M32.145,77.553c0.62,0.31,1.356,0.277,1.946-0.088s0.949-1.008,0.949-1.701v-1.528
				c0-0.758-0.428-1.45-1.106-1.789l-8-4c-0.62-0.31-1.356-0.277-1.946,0.088c-0.59,0.364-0.949,1.008-0.949,1.701v1.528
				c0,0.758,0.428,1.45,1.106,1.789L32.145,77.553z"/>
		</g>
		<g>
			<path style="fill:#FBEC9A;" d="M32.145,67.553c0.62,0.31,1.356,0.277,1.946-0.088s0.949-1.008,0.949-1.701v-1.528
				c0-0.758-0.428-1.45-1.106-1.789l-8-4c-0.62-0.31-1.356-0.277-1.946,0.088c-0.59,0.364-0.949,1.008-0.949,1.701v1.528
				c0,0.758,0.428,1.45,1.106,1.789L32.145,67.553z"/>
		</g>
		<g>
			<path style="fill:#FBEC9A;" d="M32.145,57.553c0.62,0.31,1.356,0.277,1.946-0.088s0.949-1.008,0.949-1.701v-1.528
				c0-0.758-0.428-1.45-1.106-1.789l-8-4c-0.62-0.31-1.356-0.277-1.946,0.088c-0.59,0.364-0.949,1.008-0.949,1.701v1.528
				c0,0.758,0.428,1.45,1.106,1.789L32.145,57.553z"/>
		</g>
		<g>
			<path style="fill:#FBEC9A;" d="M30.598,47.167c0.929,0.509,2.057,0.49,2.969-0.05c0.911-0.539,1.472-1.52,1.472-2.579
				c0-0.925-0.468-1.786-1.245-2.289c-4.173-2.705-6.164-6.065-6.682-9.722c-0.062-0.441-0.409-0.787-0.85-0.85
				c-0.441-0.062-0.87,0.174-1.053,0.58C21.815,39.795,25.804,44.543,30.598,47.167z"/>
		</g>
		<g>
			<path style="fill:#FACB1B;" d="M42.706,34.333c0,3.13-2.537,5.667-5.667,5.667c-3.13,0-5.667-2.537-5.667-5.667
				c0-3.13,5.667-11.333,5.667-11.333S42.706,31.204,42.706,34.333z"/>
		</g>
		<g>
			<path style="fill:#FACB1B;" d="M77.934,77.553c-0.62,0.31-1.356,0.277-1.946-0.088c-0.59-0.364-0.949-1.008-0.949-1.701v-1.528
				c0-0.758,0.428-1.45,1.106-1.789l8-4c0.62-0.31,1.356-0.277,1.946,0.088c0.59,0.364,0.949,1.008,0.949,1.701v1.528
				c0,0.758-0.428,1.45-1.106,1.789L77.934,77.553z"/>
		</g>
		<g>
			<path style="fill:#FACB1B;" d="M77.934,67.553c-0.62,0.31-1.356,0.277-1.946-0.088c-0.59-0.364-0.949-1.008-0.949-1.701v-1.528
				c0-0.758,0.428-1.45,1.106-1.789l8-4c0.62-0.31,1.356-0.277,1.946,0.088c0.59,0.364,0.949,1.008,0.949,1.701v1.528
				c0,0.758-0.428,1.45-1.106,1.789L77.934,67.553z"/>
		</g>
		<g>
			<path style="fill:#FACB1B;" d="M77.934,57.553c-0.62,0.31-1.356,0.277-1.946-0.088c-0.59-0.364-0.949-1.008-0.949-1.701v-1.528
				c0-0.758,0.428-1.45,1.106-1.789l8-4c0.62-0.31,1.356-0.277,1.946,0.088c0.59,0.364,0.949,1.008,0.949,1.701v1.528
				c0,0.758-0.428,1.45-1.106,1.789L77.934,57.553z"/>
		</g>
		<g>
			<path style="fill:#FACB1B;" d="M79.48,47.167c-0.929,0.509-2.057,0.49-2.969-0.05s-1.472-1.52-1.472-2.579
				c0-0.925,0.468-1.786,1.245-2.289c4.173-2.705,6.164-6.065,6.682-9.722c0.062-0.441,0.409-0.787,0.85-0.85
				c0.441-0.062,0.87,0.174,1.053,0.58C88.263,39.795,84.274,44.543,79.48,47.167z"/>
		</g>
		<g>
			<path style="fill:#FBEC9A;" d="M68.145,77.553c0.62,0.31,1.356,0.277,1.946-0.088c0.59-0.364,0.949-1.008,0.949-1.701v-1.528
				c0-0.758-0.428-1.45-1.106-1.789l-8-4c-0.62-0.31-1.356-0.277-1.946,0.088s-0.949,1.008-0.949,1.701v1.528
				c0,0.758,0.428,1.45,1.106,1.789L68.145,77.553z"/>
		</g>
		<g>
			<path style="fill:#FBEC9A;" d="M68.145,67.553c0.62,0.31,1.356,0.277,1.946-0.088c0.59-0.364,0.949-1.008,0.949-1.701v-1.528
				c0-0.758-0.428-1.45-1.106-1.789l-8-4c-0.62-0.31-1.356-0.277-1.946,0.088s-0.949,1.008-0.949,1.701v1.528
				c0,0.758,0.428,1.45,1.106,1.789L68.145,67.553z"/>
		</g>
		<g>
			<path style="fill:#FBEC9A;" d="M68.145,57.553c0.62,0.31,1.356,0.277,1.946-0.088c0.59-0.364,0.949-1.008,0.949-1.701v-1.528
				c0-0.758-0.428-1.45-1.106-1.789l-8-4c-0.62-0.31-1.356-0.277-1.946,0.088s-0.949,1.008-0.949,1.701v1.528
				c0,0.758,0.428,1.45,1.106,1.789L68.145,57.553z"/>
		</g>
		<g>
			<path style="fill:#FBEC9A;" d="M66.598,47.167c0.929,0.509,2.057,0.49,2.969-0.05c0.911-0.539,1.472-1.52,1.472-2.579
				c0-0.925-0.468-1.786-1.245-2.289c-4.173-2.705-6.164-6.065-6.682-9.722c-0.062-0.441-0.409-0.787-0.85-0.85
				c-0.441-0.062-0.87,0.174-1.053,0.58C57.815,39.795,61.804,44.543,66.598,47.167z"/>
		</g>
		<g>
			<path style="fill:#FACB1B;" d="M78.706,34.333c0,3.13-2.537,5.667-5.667,5.667c-3.13,0-5.667-2.537-5.667-5.667
				c0-3.13,5.667-11.333,5.667-11.333S78.706,31.204,78.706,34.333z"/>
		</g>
		<g>
			<path style="fill:#FBEC9A;" d="M31.373,34.333c0,3.129,2.537,5.667,5.667,5.667V23C37.039,23,31.373,31.204,31.373,34.333z"/>
		</g>
		<g>
			<path style="fill:#FBEC9A;" d="M67.373,34.333c0,3.129,2.537,5.667,5.667,5.667V23C73.039,23,67.373,31.204,67.373,34.333z"/>
		</g>
		<g>
			<path style="fill:#FBEC9A;" d="M39,85c0,1.105-0.895,2-2,2s-2-0.895-2-2v-4c0-1.105,0.895-2,2-2s2,0.895,2,2V85z"/>
		</g>
		<g>
			<path style="fill:#FBEC9A;" d="M75,85c0,1.105-0.895,2-2,2s-2-0.895-2-2v-4c0-1.105,0.895-2,2-2s2,0.895,2,2V85z"/>
		</g>
	</g>
</g>
<g id="Blue" style="display:none;">
	<g style="display:inline;">
		<g>
			<path style="fill:#BBE7F2;" d="M41.934,77.553c-0.62,0.31-1.357,0.277-1.945-0.087c-0.591-0.364-0.949-1.008-0.949-1.701v-1.528
				c0-0.758,0.428-1.451,1.105-1.789l8-4c0.62-0.31,1.356-0.277,1.946,0.088c0.589,0.364,0.948,1.008,0.948,1.701v1.528
				c0,0.757-0.428,1.45-1.105,1.789L41.934,77.553z"/>
		</g>
		<g>
			<path style="fill:#BBE7F2;" d="M41.934,67.553c-0.62,0.31-1.357,0.277-1.945-0.087c-0.591-0.364-0.949-1.008-0.949-1.701v-1.528
				c0-0.758,0.428-1.451,1.105-1.789l8-4c0.62-0.31,1.356-0.277,1.946,0.088c0.589,0.364,0.948,1.008,0.948,1.701v1.528
				c0,0.757-0.428,1.45-1.105,1.788L41.934,67.553z"/>
		</g>
		<g>
			<path style="fill:#BBE7F2;" d="M41.934,57.553c-0.62,0.31-1.357,0.277-1.945-0.087c-0.591-0.364-0.949-1.008-0.949-1.701v-1.528
				c0-0.758,0.428-1.451,1.105-1.789l8-4c0.62-0.31,1.356-0.277,1.946,0.088c0.589,0.364,0.948,1.008,0.948,1.701v1.528
				c0,0.757-0.428,1.45-1.105,1.788L41.934,57.553z"/>
		</g>
		<g>
			<path style="fill:#BBE7F2;" d="M43.48,47.167c-0.93,0.508-2.058,0.489-2.969-0.05c-0.912-0.54-1.473-1.52-1.473-2.579
				c0-0.925,0.469-1.786,1.244-2.289c4.173-2.705,6.164-6.065,6.683-9.722c0.062-0.441,0.409-0.787,0.85-0.85
				c0.441-0.062,0.87,0.174,1.053,0.58C52.264,39.795,48.274,44.543,43.48,47.167z"/>
		</g>
		<g>
			<path style="fill:#BBE7F2;" d="M42.706,34.333c0,3.129-2.537,5.667-5.667,5.667c-3.13,0-5.666-2.537-5.666-5.667
				c0-3.13,5.666-11.333,5.666-11.333S42.706,31.204,42.706,34.333z"/>
		</g>
		<g>
			<path style="fill:#BBE7F2;" d="M77.934,77.553c-0.62,0.31-1.356,0.277-1.945-0.087c-0.591-0.364-0.949-1.008-0.949-1.701v-1.528
				c0-0.758,0.428-1.451,1.105-1.789l8-4c0.62-0.31,1.356-0.277,1.946,0.088c0.589,0.364,0.948,1.008,0.948,1.701v1.528
				c0,0.757-0.428,1.45-1.105,1.789L77.934,77.553z"/>
		</g>
		<g>
			<path style="fill:#BBE7F2;" d="M77.934,67.553c-0.62,0.31-1.356,0.277-1.945-0.087c-0.591-0.364-0.949-1.008-0.949-1.701v-1.528
				c0-0.758,0.428-1.451,1.105-1.789l8-4c0.62-0.31,1.356-0.277,1.946,0.088c0.589,0.364,0.948,1.008,0.948,1.701v1.528
				c0,0.757-0.428,1.45-1.105,1.788L77.934,67.553z"/>
		</g>
		<g>
			<path style="fill:#BBE7F2;" d="M77.934,57.553c-0.62,0.31-1.356,0.277-1.945-0.087c-0.591-0.364-0.949-1.008-0.949-1.701v-1.528
				c0-0.758,0.428-1.451,1.105-1.789l8-4c0.62-0.31,1.356-0.277,1.946,0.088c0.589,0.364,0.948,1.008,0.948,1.701v1.528
				c0,0.757-0.428,1.45-1.105,1.788L77.934,57.553z"/>
		</g>
		<g>
			<path style="fill:#BBE7F2;" d="M79.48,47.167c-0.93,0.508-2.058,0.489-2.969-0.05c-0.912-0.54-1.473-1.52-1.473-2.579
				c0-0.925,0.469-1.786,1.244-2.289c4.173-2.705,6.164-6.065,6.683-9.722c0.062-0.441,0.409-0.787,0.85-0.85
				c0.44-0.062,0.87,0.174,1.053,0.58C88.264,39.795,84.274,44.543,79.48,47.167z"/>
		</g>
		<g>
			<path style="fill:#BBE7F2;" d="M78.706,34.333c0,3.129-2.537,5.667-5.667,5.667c-3.13,0-5.666-2.537-5.666-5.667
				c0-3.13,5.666-11.333,5.666-11.333S78.706,31.204,78.706,34.333z"/>
		</g>
		<g>
			<g>
				<g>
					<path style="fill:#FFFFFF;" d="M32.145,77.553c0.62,0.31,1.356,0.277,1.946-0.087c0.589-0.364,0.948-1.008,0.948-1.701v-1.528
						c0-0.758-0.428-1.451-1.105-1.789l-8-4c-0.62-0.31-1.357-0.277-1.945,0.088c-0.591,0.364-0.949,1.008-0.949,1.701v1.528
						c0,0.757,0.428,1.45,1.105,1.789L32.145,77.553z"/>
				</g>
				<g>
					<path style="fill:#FFFFFF;" d="M32.145,67.553c0.62,0.31,1.356,0.277,1.946-0.087c0.589-0.364,0.948-1.008,0.948-1.701v-1.528
						c0-0.758-0.428-1.451-1.105-1.789l-8-4c-0.62-0.31-1.357-0.277-1.945,0.088c-0.591,0.364-0.949,1.008-0.949,1.701v1.528
						c0,0.757,0.428,1.45,1.105,1.788L32.145,67.553z"/>
				</g>
				<g>
					<path style="fill:#FFFFFF;" d="M32.145,57.553c0.62,0.31,1.356,0.277,1.946-0.087c0.589-0.364,0.948-1.008,0.948-1.701v-1.528
						c0-0.758-0.428-1.451-1.105-1.789l-8-4c-0.62-0.31-1.357-0.277-1.945,0.088c-0.591,0.364-0.949,1.008-0.949,1.701v1.528
						c0,0.757,0.428,1.45,1.105,1.788L32.145,57.553z"/>
				</g>
				<g>
					<path style="fill:#FFFFFF;" d="M30.598,47.167c0.93,0.508,2.058,0.489,2.969-0.05c0.912-0.54,1.473-1.52,1.473-2.579
						c0-0.925-0.469-1.786-1.244-2.29c-4.173-2.705-6.164-6.065-6.683-9.722c-0.062-0.441-0.409-0.787-0.85-0.85
						c-0.44-0.062-0.87,0.174-1.053,0.58C21.815,39.795,25.805,44.543,30.598,47.167z"/>
				</g>
				<g>
					<path style="fill:#FFFFFF;" d="M68.145,77.553c0.62,0.31,1.356,0.277,1.946-0.087c0.589-0.364,0.948-1.008,0.948-1.701v-1.528
						c0-0.758-0.428-1.451-1.105-1.789l-8-4c-0.62-0.31-1.357-0.277-1.945,0.088c-0.591,0.364-0.949,1.008-0.949,1.701v1.528
						c0,0.757,0.428,1.45,1.105,1.789L68.145,77.553z"/>
				</g>
				<g>
					<path style="fill:#FFFFFF;" d="M68.145,67.553c0.62,0.31,1.356,0.277,1.946-0.087c0.589-0.364,0.948-1.008,0.948-1.701v-1.528
						c0-0.758-0.428-1.451-1.105-1.789l-8-4c-0.62-0.31-1.357-0.277-1.945,0.088c-0.591,0.364-0.949,1.008-0.949,1.701v1.528
						c0,0.757,0.428,1.45,1.105,1.788L68.145,67.553z"/>
				</g>
				<g>
					<path style="fill:#FFFFFF;" d="M68.145,57.553c0.62,0.31,1.356,0.277,1.946-0.087c0.589-0.364,0.948-1.008,0.948-1.701v-1.528
						c0-0.758-0.428-1.451-1.105-1.789l-8-4c-0.62-0.31-1.357-0.277-1.945,0.088c-0.591,0.364-0.949,1.008-0.949,1.701v1.528
						c0,0.757,0.428,1.45,1.105,1.788L68.145,57.553z"/>
				</g>
				<g>
					<path style="fill:#FFFFFF;" d="M66.598,47.167c0.93,0.508,2.058,0.489,2.969-0.05c0.912-0.54,1.473-1.52,1.473-2.579
						c0-0.925-0.469-1.786-1.244-2.29c-4.173-2.705-6.164-6.065-6.683-9.722c-0.062-0.441-0.409-0.787-0.85-0.85
						c-0.44-0.062-0.87,0.174-1.053,0.58C57.814,39.795,61.805,44.543,66.598,47.167z"/>
				</g>
			</g>
			<g>
				<path style="fill:#FFFFFF;" d="M31.373,34.333c0,3.129,2.536,5.667,5.666,5.667V23C37.039,23,31.373,31.204,31.373,34.333z"/>
			</g>
			<g>
				<path style="fill:#FFFFFF;" d="M67.373,34.333c0,3.129,2.536,5.667,5.666,5.667V23C73.039,23,67.373,31.204,67.373,34.333z"/>
			</g>
		</g>
		<g>
			<path style="fill:#BBE7F2;" d="M39,85c0,1.104-0.896,2-2,2s-2-0.896-2-2v-4c0-1.104,0.896-2,2-2s2,0.896,2,2V85z"/>
		</g>
		<g>
			<path style="fill:#BBE7F2;" d="M75,85c0,1.104-0.896,2-2,2s-2-0.896-2-2v-4c0-1.104,0.896-2,2-2s2,0.896,2,2V85z"/>
		</g>
	</g>
</g>
<g id="R-Blue" style="display:none;">
	<circle style="display:inline;fill:#81D2EB;" cx="55" cy="55" r="55"/>
	<g style="display:inline;">
		<g>
			<path style="fill:#BBE7F2;" d="M41.934,77.553c-0.62,0.31-1.357,0.277-1.945-0.087c-0.591-0.364-0.949-1.008-0.949-1.701v-1.528
				c0-0.758,0.428-1.451,1.105-1.789l8-4c0.62-0.31,1.356-0.277,1.946,0.088c0.589,0.364,0.948,1.008,0.948,1.701v1.528
				c0,0.757-0.428,1.45-1.105,1.788L41.934,77.553z"/>
		</g>
		<g>
			<path style="fill:#BBE7F2;" d="M41.934,67.553c-0.62,0.31-1.357,0.277-1.945-0.087c-0.591-0.364-0.949-1.008-0.949-1.701v-1.528
				c0-0.758,0.428-1.451,1.105-1.789l8-4c0.62-0.31,1.356-0.277,1.946,0.088c0.589,0.364,0.948,1.008,0.948,1.701v1.528
				c0,0.757-0.428,1.45-1.105,1.788L41.934,67.553z"/>
		</g>
		<g>
			<path style="fill:#BBE7F2;" d="M41.934,57.553c-0.62,0.31-1.357,0.277-1.945-0.087c-0.591-0.364-0.949-1.008-0.949-1.701v-1.528
				c0-0.758,0.428-1.451,1.105-1.789l8-4c0.62-0.31,1.356-0.277,1.946,0.088c0.589,0.364,0.948,1.008,0.948,1.701v1.528
				c0,0.757-0.428,1.45-1.105,1.788L41.934,57.553z"/>
		</g>
		<g>
			<path style="fill:#BBE7F2;" d="M43.48,47.167c-0.93,0.508-2.058,0.489-2.969-0.05c-0.912-0.54-1.473-1.52-1.473-2.579
				c0-0.925,0.469-1.786,1.244-2.289c4.173-2.705,6.164-6.065,6.683-9.722c0.062-0.441,0.409-0.787,0.85-0.85
				c0.441-0.062,0.87,0.174,1.053,0.58C52.264,39.795,48.274,44.543,43.48,47.167z"/>
		</g>
		<g>
			<path style="fill:#BBE7F2;" d="M42.706,34.333c0,3.129-2.537,5.667-5.667,5.667c-3.13,0-5.666-2.537-5.666-5.667
				c0-3.13,5.666-11.333,5.666-11.333S42.706,31.204,42.706,34.333z"/>
		</g>
		<g>
			<path style="fill:#BBE7F2;" d="M77.934,77.553c-0.62,0.31-1.356,0.277-1.945-0.087c-0.591-0.364-0.949-1.008-0.949-1.701v-1.528
				c0-0.758,0.428-1.451,1.105-1.789l8-4c0.62-0.31,1.356-0.277,1.946,0.088c0.589,0.364,0.948,1.008,0.948,1.701v1.528
				c0,0.757-0.428,1.45-1.105,1.788L77.934,77.553z"/>
		</g>
		<g>
			<path style="fill:#BBE7F2;" d="M77.934,67.553c-0.62,0.31-1.356,0.277-1.945-0.087c-0.591-0.364-0.949-1.008-0.949-1.701v-1.528
				c0-0.758,0.428-1.451,1.105-1.789l8-4c0.62-0.31,1.356-0.277,1.946,0.088c0.589,0.364,0.948,1.008,0.948,1.701v1.528
				c0,0.757-0.428,1.45-1.105,1.788L77.934,67.553z"/>
		</g>
		<g>
			<path style="fill:#BBE7F2;" d="M77.934,57.553c-0.62,0.31-1.356,0.277-1.945-0.087c-0.591-0.364-0.949-1.008-0.949-1.701v-1.528
				c0-0.758,0.428-1.451,1.105-1.789l8-4c0.62-0.31,1.356-0.277,1.946,0.088c0.589,0.364,0.948,1.008,0.948,1.701v1.528
				c0,0.757-0.428,1.45-1.105,1.788L77.934,57.553z"/>
		</g>
		<g>
			<path style="fill:#BBE7F2;" d="M79.48,47.167c-0.93,0.508-2.058,0.489-2.969-0.05c-0.912-0.54-1.473-1.52-1.473-2.579
				c0-0.925,0.469-1.786,1.244-2.289c4.173-2.705,6.164-6.065,6.683-9.722c0.062-0.441,0.409-0.787,0.85-0.85
				c0.44-0.062,0.87,0.174,1.053,0.58C88.264,39.795,84.274,44.543,79.48,47.167z"/>
		</g>
		<g>
			<path style="fill:#BBE7F2;" d="M78.706,34.333c0,3.129-2.537,5.667-5.667,5.667c-3.13,0-5.666-2.537-5.666-5.667
				c0-3.13,5.666-11.333,5.666-11.333S78.706,31.204,78.706,34.333z"/>
		</g>
		<g>
			<g>
				<g>
					<path style="fill:#FFFFFF;" d="M32.145,77.553c0.62,0.31,1.356,0.277,1.946-0.087c0.589-0.364,0.948-1.008,0.948-1.701v-1.528
						c0-0.758-0.428-1.451-1.105-1.789l-8-4c-0.62-0.31-1.357-0.277-1.945,0.088c-0.591,0.364-0.949,1.008-0.949,1.701v1.528
						c0,0.757,0.428,1.45,1.105,1.788L32.145,77.553z"/>
				</g>
				<g>
					<path style="fill:#FFFFFF;" d="M32.145,67.553c0.62,0.31,1.356,0.277,1.946-0.087c0.589-0.364,0.948-1.008,0.948-1.701v-1.528
						c0-0.758-0.428-1.451-1.105-1.789l-8-4c-0.62-0.31-1.357-0.277-1.945,0.088c-0.591,0.364-0.949,1.008-0.949,1.701v1.528
						c0,0.757,0.428,1.45,1.105,1.788L32.145,67.553z"/>
				</g>
				<g>
					<path style="fill:#FFFFFF;" d="M32.145,57.553c0.62,0.31,1.356,0.277,1.946-0.087c0.589-0.364,0.948-1.008,0.948-1.701v-1.528
						c0-0.758-0.428-1.451-1.105-1.789l-8-4c-0.62-0.31-1.357-0.277-1.945,0.088c-0.591,0.364-0.949,1.008-0.949,1.701v1.528
						c0,0.757,0.428,1.45,1.105,1.788L32.145,57.553z"/>
				</g>
				<g>
					<path style="fill:#FFFFFF;" d="M30.598,47.167c0.93,0.508,2.058,0.489,2.969-0.05c0.912-0.54,1.473-1.52,1.473-2.579
						c0-0.925-0.469-1.786-1.244-2.29c-4.173-2.705-6.164-6.065-6.683-9.722c-0.062-0.441-0.409-0.787-0.85-0.85
						c-0.44-0.062-0.87,0.174-1.053,0.58C21.815,39.795,25.805,44.543,30.598,47.167z"/>
				</g>
				<g>
					<path style="fill:#FFFFFF;" d="M68.145,77.553c0.62,0.31,1.356,0.277,1.946-0.087c0.589-0.364,0.948-1.008,0.948-1.701v-1.528
						c0-0.758-0.428-1.451-1.105-1.789l-8-4c-0.62-0.31-1.357-0.277-1.945,0.088c-0.591,0.364-0.949,1.008-0.949,1.701v1.528
						c0,0.757,0.428,1.45,1.105,1.788L68.145,77.553z"/>
				</g>
				<g>
					<path style="fill:#FFFFFF;" d="M68.145,67.553c0.62,0.31,1.356,0.277,1.946-0.087c0.589-0.364,0.948-1.008,0.948-1.701v-1.528
						c0-0.758-0.428-1.451-1.105-1.789l-8-4c-0.62-0.31-1.357-0.277-1.945,0.088c-0.591,0.364-0.949,1.008-0.949,1.701v1.528
						c0,0.757,0.428,1.45,1.105,1.788L68.145,67.553z"/>
				</g>
				<g>
					<path style="fill:#FFFFFF;" d="M68.145,57.553c0.62,0.31,1.356,0.277,1.946-0.087c0.589-0.364,0.948-1.008,0.948-1.701v-1.528
						c0-0.758-0.428-1.451-1.105-1.789l-8-4c-0.62-0.31-1.357-0.277-1.945,0.088c-0.591,0.364-0.949,1.008-0.949,1.701v1.528
						c0,0.757,0.428,1.45,1.105,1.788L68.145,57.553z"/>
				</g>
				<g>
					<path style="fill:#FFFFFF;" d="M66.598,47.167c0.93,0.508,2.058,0.489,2.969-0.05c0.912-0.54,1.473-1.52,1.473-2.579
						c0-0.925-0.469-1.786-1.244-2.29c-4.173-2.705-6.164-6.065-6.683-9.722c-0.062-0.441-0.409-0.787-0.85-0.85
						c-0.44-0.062-0.87,0.174-1.053,0.58C57.814,39.795,61.805,44.543,66.598,47.167z"/>
				</g>
			</g>
			<g>
				<path style="fill:#FFFFFF;" d="M31.373,34.333c0,3.129,2.536,5.667,5.666,5.667V23C37.039,23,31.373,31.204,31.373,34.333z"/>
			</g>
			<g>
				<path style="fill:#FFFFFF;" d="M67.373,34.333c0,3.129,2.536,5.667,5.666,5.667V23C73.039,23,67.373,31.204,67.373,34.333z"/>
			</g>
		</g>
		<g>
			<path style="fill:#BBE7F2;" d="M39,85c0,1.104-0.896,2-2,2s-2-0.896-2-2v-4c0-1.104,0.896-2,2-2s2,0.896,2,2V85z"/>
		</g>
		<g>
			<path style="fill:#BBE7F2;" d="M75,85c0,1.104-0.896,2-2,2s-2-0.896-2-2v-4c0-1.104,0.896-2,2-2s2,0.896,2,2V85z"/>
		</g>
	</g>
</g>
<g id="Green" style="display:none;">
	<g style="display:inline;">
		<g>
			<path style="fill:#AAF0E9;" d="M41.934,77.553c-0.62,0.31-1.357,0.277-1.945-0.087c-0.591-0.364-0.949-1.008-0.949-1.701v-1.528
				c0-0.758,0.428-1.451,1.105-1.789l8-4c0.62-0.31,1.356-0.277,1.946,0.088c0.589,0.364,0.948,1.008,0.948,1.701v1.528
				c0,0.757-0.428,1.45-1.105,1.788L41.934,77.553z"/>
		</g>
		<g>
			<path style="fill:#AAF0E9;" d="M41.934,67.553c-0.62,0.31-1.357,0.277-1.945-0.087c-0.591-0.364-0.949-1.008-0.949-1.701v-1.528
				c0-0.758,0.428-1.451,1.105-1.789l8-4c0.62-0.31,1.356-0.277,1.946,0.088c0.589,0.364,0.948,1.008,0.948,1.701v1.528
				c0,0.757-0.428,1.45-1.105,1.789L41.934,67.553z"/>
		</g>
		<g>
			<path style="fill:#AAF0E9;" d="M41.934,57.553c-0.62,0.31-1.357,0.277-1.945-0.087c-0.591-0.364-0.949-1.008-0.949-1.701v-1.528
				c0-0.758,0.428-1.451,1.105-1.789l8-4c0.62-0.31,1.356-0.277,1.946,0.088c0.589,0.364,0.948,1.008,0.948,1.701v1.528
				c0,0.757-0.428,1.45-1.105,1.789L41.934,57.553z"/>
		</g>
		<g>
			<path style="fill:#AAF0E9;" d="M43.48,47.167c-0.93,0.508-2.058,0.489-2.969-0.05c-0.912-0.54-1.473-1.52-1.473-2.579
				c0-0.925,0.469-1.786,1.244-2.289c4.173-2.705,6.164-6.065,6.683-9.722c0.062-0.441,0.409-0.787,0.85-0.85
				c0.441-0.062,0.87,0.174,1.053,0.58C52.264,39.795,48.274,44.543,43.48,47.167z"/>
		</g>
		<g>
			<path style="fill:#AAF0E9;" d="M42.706,34.333c0,3.129-2.537,5.667-5.667,5.667c-3.13,0-5.666-2.537-5.666-5.667
				c0-3.13,5.666-11.333,5.666-11.333S42.706,31.204,42.706,34.333z"/>
		</g>
		<g>
			<path style="fill:#AAF0E9;" d="M77.934,77.553c-0.62,0.31-1.356,0.277-1.945-0.087c-0.591-0.364-0.949-1.008-0.949-1.701v-1.528
				c0-0.758,0.428-1.451,1.105-1.789l8-4c0.62-0.31,1.357-0.277,1.946,0.088c0.589,0.364,0.948,1.008,0.948,1.701v1.528
				c0,0.757-0.428,1.45-1.106,1.788L77.934,77.553z"/>
		</g>
		<g>
			<path style="fill:#AAF0E9;" d="M77.934,67.553c-0.62,0.31-1.356,0.277-1.945-0.087c-0.591-0.364-0.949-1.008-0.949-1.701v-1.528
				c0-0.758,0.428-1.451,1.105-1.789l8-4c0.62-0.31,1.357-0.277,1.946,0.088c0.589,0.364,0.948,1.008,0.948,1.701v1.528
				c0,0.757-0.428,1.45-1.106,1.789L77.934,67.553z"/>
		</g>
		<g>
			<path style="fill:#AAF0E9;" d="M77.934,57.553c-0.62,0.31-1.356,0.277-1.945-0.087c-0.591-0.364-0.949-1.008-0.949-1.701v-1.528
				c0-0.758,0.428-1.451,1.105-1.789l8-4c0.62-0.31,1.357-0.277,1.946,0.088c0.589,0.364,0.948,1.008,0.948,1.701v1.528
				c0,0.757-0.428,1.45-1.106,1.789L77.934,57.553z"/>
		</g>
		<g>
			<path style="fill:#AAF0E9;" d="M79.48,47.167c-0.93,0.508-2.058,0.489-2.969-0.05c-0.912-0.54-1.473-1.52-1.473-2.579
				c0-0.925,0.469-1.786,1.244-2.289c4.173-2.705,6.164-6.065,6.683-9.722c0.062-0.441,0.409-0.787,0.85-0.85
				c0.44-0.062,0.87,0.174,1.053,0.58C88.264,39.795,84.274,44.543,79.48,47.167z"/>
		</g>
		<g>
			<path style="fill:#AAF0E9;" d="M78.706,34.333c0,3.129-2.537,5.667-5.667,5.667c-3.13,0-5.666-2.537-5.666-5.667
				c0-3.13,5.666-11.333,5.666-11.333S78.706,31.204,78.706,34.333z"/>
		</g>
		<g>
			<g>
				<g>
					<path style="fill:#FFFFFF;" d="M32.144,77.553c0.62,0.31,1.356,0.277,1.946-0.087c0.589-0.364,0.948-1.008,0.948-1.701v-1.528
						c0-0.758-0.428-1.451-1.105-1.789l-8-4c-0.62-0.31-1.357-0.277-1.945,0.088c-0.591,0.364-0.949,1.008-0.949,1.701v1.528
						c0,0.757,0.428,1.45,1.105,1.788L32.144,77.553z"/>
				</g>
				<g>
					<path style="fill:#FFFFFF;" d="M32.144,67.553c0.62,0.31,1.356,0.277,1.946-0.087c0.589-0.364,0.948-1.008,0.948-1.701v-1.528
						c0-0.758-0.428-1.451-1.105-1.789l-8-4c-0.62-0.31-1.357-0.277-1.945,0.088c-0.591,0.364-0.949,1.008-0.949,1.701v1.528
						c0,0.757,0.428,1.45,1.105,1.789L32.144,67.553z"/>
				</g>
				<g>
					<path style="fill:#FFFFFF;" d="M32.144,57.553c0.62,0.31,1.356,0.277,1.946-0.087c0.589-0.364,0.948-1.008,0.948-1.701v-1.528
						c0-0.758-0.428-1.451-1.105-1.789l-8-4c-0.62-0.31-1.357-0.277-1.945,0.088c-0.591,0.364-0.949,1.008-0.949,1.701v1.528
						c0,0.757,0.428,1.45,1.105,1.789L32.144,57.553z"/>
				</g>
				<g>
					<path style="fill:#FFFFFF;" d="M30.598,47.167c0.93,0.508,2.058,0.489,2.969-0.05c0.912-0.54,1.473-1.52,1.473-2.579
						c0-0.925-0.469-1.786-1.244-2.29c-4.173-2.705-6.164-6.065-6.683-9.722c-0.062-0.441-0.409-0.787-0.85-0.85
						c-0.44-0.062-0.87,0.174-1.053,0.58C21.814,39.795,25.805,44.543,30.598,47.167z"/>
				</g>
				<g>
					<path style="fill:#FFFFFF;" d="M68.144,77.553c0.62,0.31,1.357,0.277,1.946-0.087c0.589-0.364,0.948-1.008,0.948-1.701v-1.528
						c0-0.758-0.428-1.451-1.106-1.789l-8-4c-0.62-0.31-1.357-0.277-1.945,0.088c-0.591,0.364-0.949,1.008-0.949,1.701v1.528
						c0,0.757,0.428,1.45,1.105,1.788L68.144,77.553z"/>
				</g>
				<g>
					<path style="fill:#FFFFFF;" d="M68.144,67.553c0.62,0.31,1.357,0.277,1.946-0.087c0.589-0.364,0.948-1.008,0.948-1.701v-1.528
						c0-0.758-0.428-1.451-1.106-1.789l-8-4c-0.62-0.31-1.357-0.277-1.945,0.088c-0.591,0.364-0.949,1.008-0.949,1.701v1.528
						c0,0.757,0.428,1.45,1.105,1.789L68.144,67.553z"/>
				</g>
				<g>
					<path style="fill:#FFFFFF;" d="M68.144,57.553c0.62,0.31,1.357,0.277,1.946-0.087c0.589-0.364,0.948-1.008,0.948-1.701v-1.528
						c0-0.758-0.428-1.451-1.106-1.789l-8-4c-0.62-0.31-1.357-0.277-1.945,0.088c-0.591,0.364-0.949,1.008-0.949,1.701v1.528
						c0,0.757,0.428,1.45,1.105,1.789L68.144,57.553z"/>
				</g>
				<g>
					<path style="fill:#FFFFFF;" d="M66.598,47.167c0.93,0.508,2.058,0.489,2.969-0.05c0.912-0.54,1.473-1.52,1.473-2.579
						c0-0.925-0.469-1.786-1.244-2.29c-4.173-2.705-6.164-6.065-6.683-9.722c-0.062-0.441-0.409-0.787-0.85-0.85
						c-0.44-0.062-0.87,0.174-1.053,0.58C57.814,39.795,61.805,44.543,66.598,47.167z"/>
				</g>
			</g>
			<g>
				<path style="fill:#FFFFFF;" d="M31.373,34.333c0,3.129,2.536,5.667,5.666,5.667V23C37.039,23,31.373,31.204,31.373,34.333z"/>
			</g>
			<g>
				<path style="fill:#FFFFFF;" d="M67.373,34.333c0,3.129,2.536,5.667,5.666,5.667V23C73.039,23,67.373,31.204,67.373,34.333z"/>
			</g>
		</g>
		<g>
			<path style="fill:#AAF0E9;" d="M39,85c0,1.104-0.896,2-2,2s-2-0.896-2-2v-4c0-1.104,0.896-2,2-2s2,0.896,2,2V85z"/>
		</g>
		<g>
			<path style="fill:#AAF0E9;" d="M75,85c0,1.104-0.896,2-2,2s-2-0.896-2-2v-4c0-1.104,0.896-2,2-2s2,0.896,2,2V85z"/>
		</g>
	</g>
</g>
<g id="R-Green" style="display:none;">
	<circle style="display:inline;fill:#77E0C4;" cx="55" cy="55" r="55"/>
	<g style="display:inline;">
		<g>
			<path style="fill:#AAF0E9;" d="M41.934,77.553c-0.62,0.31-1.357,0.277-1.945-0.087c-0.591-0.364-0.949-1.008-0.949-1.701v-1.528
				c0-0.758,0.428-1.451,1.105-1.789l8-4c0.62-0.31,1.356-0.277,1.946,0.088c0.589,0.364,0.948,1.008,0.948,1.701v1.528
				c0,0.757-0.428,1.45-1.105,1.789L41.934,77.553z"/>
		</g>
		<g>
			<path style="fill:#AAF0E9;" d="M41.934,67.553c-0.62,0.31-1.357,0.277-1.945-0.087c-0.591-0.364-0.949-1.008-0.949-1.701v-1.528
				c0-0.758,0.428-1.451,1.105-1.789l8-4c0.62-0.31,1.356-0.277,1.946,0.088c0.589,0.364,0.948,1.008,0.948,1.701v1.528
				c0,0.757-0.428,1.45-1.105,1.788L41.934,67.553z"/>
		</g>
		<g>
			<path style="fill:#AAF0E9;" d="M41.934,57.553c-0.62,0.31-1.357,0.277-1.945-0.087c-0.591-0.364-0.949-1.008-0.949-1.701v-1.528
				c0-0.758,0.428-1.451,1.105-1.789l8-4c0.62-0.31,1.356-0.277,1.946,0.088c0.589,0.364,0.948,1.008,0.948,1.701v1.528
				c0,0.757-0.428,1.45-1.105,1.788L41.934,57.553z"/>
		</g>
		<g>
			<path style="fill:#AAF0E9;" d="M43.48,47.167c-0.93,0.508-2.058,0.489-2.969-0.05c-0.912-0.54-1.473-1.52-1.473-2.579
				c0-0.925,0.469-1.786,1.244-2.289c4.173-2.705,6.164-6.065,6.683-9.722c0.062-0.441,0.409-0.787,0.85-0.85
				c0.441-0.062,0.87,0.174,1.053,0.58C52.264,39.795,48.274,44.543,43.48,47.167z"/>
		</g>
		<g>
			<path style="fill:#AAF0E9;" d="M42.706,34.333c0,3.129-2.537,5.667-5.667,5.667c-3.13,0-5.666-2.537-5.666-5.667
				c0-3.13,5.666-11.333,5.666-11.333S42.706,31.204,42.706,34.333z"/>
		</g>
		<g>
			<path style="fill:#AAF0E9;" d="M77.934,77.553c-0.62,0.31-1.356,0.277-1.945-0.087c-0.591-0.364-0.949-1.008-0.949-1.701v-1.528
				c0-0.758,0.428-1.451,1.105-1.789l8-4c0.62-0.31,1.356-0.277,1.946,0.088c0.589,0.364,0.948,1.008,0.948,1.701v1.528
				c0,0.757-0.428,1.45-1.105,1.789L77.934,77.553z"/>
		</g>
		<g>
			<path style="fill:#AAF0E9;" d="M77.934,67.553c-0.62,0.31-1.356,0.277-1.945-0.087c-0.591-0.364-0.949-1.008-0.949-1.701v-1.528
				c0-0.758,0.428-1.451,1.105-1.789l8-4c0.62-0.31,1.356-0.277,1.946,0.088c0.589,0.364,0.948,1.008,0.948,1.701v1.528
				c0,0.757-0.428,1.45-1.105,1.788L77.934,67.553z"/>
		</g>
		<g>
			<path style="fill:#AAF0E9;" d="M77.934,57.553c-0.62,0.31-1.356,0.277-1.945-0.087c-0.591-0.364-0.949-1.008-0.949-1.701v-1.528
				c0-0.758,0.428-1.451,1.105-1.789l8-4c0.62-0.31,1.356-0.277,1.946,0.088c0.589,0.364,0.948,1.008,0.948,1.701v1.528
				c0,0.757-0.428,1.45-1.105,1.788L77.934,57.553z"/>
		</g>
		<g>
			<path style="fill:#AAF0E9;" d="M79.48,47.167c-0.93,0.508-2.058,0.489-2.969-0.05c-0.912-0.54-1.473-1.52-1.473-2.579
				c0-0.925,0.469-1.786,1.244-2.289c4.173-2.705,6.164-6.065,6.683-9.722c0.062-0.441,0.409-0.787,0.85-0.85
				c0.44-0.062,0.87,0.174,1.053,0.58C88.264,39.795,84.274,44.543,79.48,47.167z"/>
		</g>
		<g>
			<path style="fill:#AAF0E9;" d="M78.706,34.333c0,3.129-2.537,5.667-5.667,5.667c-3.13,0-5.666-2.537-5.666-5.667
				c0-3.13,5.666-11.333,5.666-11.333S78.706,31.204,78.706,34.333z"/>
		</g>
		<g>
			<g>
				<g>
					<path style="fill:#FFFFFF;" d="M32.145,77.553c0.62,0.31,1.356,0.277,1.946-0.087c0.589-0.364,0.948-1.008,0.948-1.701v-1.528
						c0-0.758-0.428-1.451-1.105-1.789l-8-4c-0.62-0.31-1.356-0.277-1.945,0.088c-0.591,0.364-0.949,1.008-0.949,1.701v1.528
						c0,0.757,0.428,1.45,1.105,1.789L32.145,77.553z"/>
				</g>
				<g>
					<path style="fill:#FFFFFF;" d="M32.145,67.553c0.62,0.31,1.356,0.277,1.946-0.087c0.589-0.364,0.948-1.008,0.948-1.701v-1.528
						c0-0.758-0.428-1.451-1.105-1.789l-8-4c-0.62-0.31-1.356-0.277-1.945,0.088c-0.591,0.364-0.949,1.008-0.949,1.701v1.528
						c0,0.757,0.428,1.45,1.105,1.788L32.145,67.553z"/>
				</g>
				<g>
					<path style="fill:#FFFFFF;" d="M32.145,57.553c0.62,0.31,1.356,0.277,1.946-0.087c0.589-0.364,0.948-1.008,0.948-1.701v-1.528
						c0-0.758-0.428-1.451-1.105-1.789l-8-4c-0.62-0.31-1.356-0.277-1.945,0.088c-0.591,0.364-0.949,1.008-0.949,1.701v1.528
						c0,0.757,0.428,1.45,1.105,1.788L32.145,57.553z"/>
				</g>
				<g>
					<path style="fill:#FFFFFF;" d="M30.598,47.167c0.93,0.508,2.058,0.489,2.969-0.05c0.912-0.54,1.473-1.52,1.473-2.579
						c0-0.925-0.469-1.786-1.244-2.29c-4.173-2.705-6.164-6.065-6.683-9.722c-0.062-0.441-0.409-0.787-0.85-0.85
						c-0.44-0.062-0.87,0.174-1.053,0.58C21.815,39.795,25.805,44.543,30.598,47.167z"/>
				</g>
				<g>
					<path style="fill:#FFFFFF;" d="M68.145,77.553c0.62,0.31,1.356,0.277,1.946-0.087c0.589-0.364,0.948-1.008,0.948-1.701v-1.528
						c0-0.758-0.428-1.451-1.105-1.789l-8-4c-0.62-0.31-1.357-0.277-1.945,0.088c-0.591,0.364-0.949,1.008-0.949,1.701v1.528
						c0,0.757,0.428,1.45,1.105,1.789L68.145,77.553z"/>
				</g>
				<g>
					<path style="fill:#FFFFFF;" d="M68.145,67.553c0.62,0.31,1.356,0.277,1.946-0.087c0.589-0.364,0.948-1.008,0.948-1.701v-1.528
						c0-0.758-0.428-1.451-1.105-1.789l-8-4c-0.62-0.31-1.357-0.277-1.945,0.088c-0.591,0.364-0.949,1.008-0.949,1.701v1.528
						c0,0.757,0.428,1.45,1.105,1.788L68.145,67.553z"/>
				</g>
				<g>
					<path style="fill:#FFFFFF;" d="M68.145,57.553c0.62,0.31,1.356,0.277,1.946-0.087c0.589-0.364,0.948-1.008,0.948-1.701v-1.528
						c0-0.758-0.428-1.451-1.105-1.789l-8-4c-0.62-0.31-1.357-0.277-1.945,0.088c-0.591,0.364-0.949,1.008-0.949,1.701v1.528
						c0,0.757,0.428,1.45,1.105,1.788L68.145,57.553z"/>
				</g>
				<g>
					<path style="fill:#FFFFFF;" d="M66.598,47.167c0.93,0.508,2.058,0.489,2.969-0.05c0.912-0.54,1.473-1.52,1.473-2.579
						c0-0.925-0.469-1.786-1.244-2.29c-4.173-2.705-6.164-6.065-6.683-9.722c-0.062-0.441-0.409-0.787-0.85-0.85
						s-0.87,0.174-1.053,0.58C57.814,39.795,61.805,44.543,66.598,47.167z"/>
				</g>
			</g>
			<g>
				<path style="fill:#FFFFFF;" d="M31.373,34.333c0,3.129,2.536,5.667,5.666,5.667V23C37.039,23,31.373,31.204,31.373,34.333z"/>
			</g>
			<g>
				<path style="fill:#FFFFFF;" d="M67.373,34.333c0,3.129,2.536,5.667,5.666,5.667V23C73.039,23,67.373,31.204,67.373,34.333z"/>
			</g>
		</g>
		<g>
			<path style="fill:#AAF0E9;" d="M39,85c0,1.104-0.896,2-2,2s-2-0.896-2-2v-4c0-1.104,0.896-2,2-2s2,0.896,2,2V85z"/>
		</g>
		<g>
			<path style="fill:#AAF0E9;" d="M75,85c0,1.104-0.896,2-2,2s-2-0.896-2-2v-4c0-1.104,0.896-2,2-2s2,0.896,2,2V85z"/>
		</g>
	</g>
</g>
<g id="Red" style="display:none;">
	<g style="display:inline;">
		<g>
			<path style="fill:#FFD7D4;" d="M41.934,77.553c-0.62,0.31-1.356,0.277-1.945-0.087c-0.591-0.364-0.949-1.008-0.949-1.701v-1.528
				c0-0.758,0.428-1.451,1.105-1.789l8-4c0.62-0.31,1.357-0.277,1.946,0.088c0.589,0.364,0.948,1.008,0.948,1.701v1.528
				c0,0.757-0.428,1.45-1.105,1.788L41.934,77.553z"/>
		</g>
		<g>
			<path style="fill:#FFD7D4;" d="M41.934,67.553c-0.62,0.31-1.356,0.277-1.945-0.087c-0.591-0.364-0.949-1.008-0.949-1.701v-1.528
				c0-0.758,0.428-1.451,1.105-1.789l8-4c0.62-0.31,1.357-0.277,1.946,0.088c0.589,0.364,0.948,1.008,0.948,1.701v1.528
				c0,0.757-0.428,1.45-1.105,1.789L41.934,67.553z"/>
		</g>
		<g>
			<path style="fill:#FFD7D4;" d="M41.934,57.553c-0.62,0.31-1.356,0.277-1.945-0.087c-0.591-0.364-0.949-1.008-0.949-1.701v-1.528
				c0-0.758,0.428-1.451,1.105-1.789l8-4c0.62-0.31,1.357-0.277,1.946,0.088c0.589,0.364,0.948,1.008,0.948,1.701v1.528
				c0,0.757-0.428,1.45-1.105,1.789L41.934,57.553z"/>
		</g>
		<g>
			<path style="fill:#FFD7D4;" d="M43.48,47.167c-0.93,0.508-2.058,0.489-2.969-0.05c-0.912-0.54-1.473-1.52-1.473-2.579
				c0-0.925,0.469-1.786,1.244-2.289c4.173-2.705,6.164-6.065,6.683-9.722c0.062-0.441,0.409-0.787,0.85-0.85
				c0.44-0.062,0.87,0.174,1.053,0.58C52.264,39.795,48.274,44.543,43.48,47.167z"/>
		</g>
		<g>
			<path style="fill:#FFD7D4;" d="M42.706,34.333c0,3.129-2.537,5.667-5.667,5.667c-3.13,0-5.666-2.537-5.666-5.667
				c0-3.13,5.666-11.333,5.666-11.333S42.706,31.204,42.706,34.333z"/>
		</g>
		<g>
			<path style="fill:#FFD7D4;" d="M77.934,77.553c-0.62,0.31-1.356,0.277-1.945-0.087c-0.591-0.364-0.949-1.008-0.949-1.701v-1.528
				c0-0.758,0.428-1.451,1.105-1.789l8-4c0.62-0.31,1.357-0.277,1.946,0.088c0.589,0.364,0.948,1.008,0.948,1.701v1.528
				c0,0.757-0.428,1.45-1.106,1.788L77.934,77.553z"/>
		</g>
		<g>
			<path style="fill:#FFD7D4;" d="M77.934,67.553c-0.62,0.31-1.356,0.277-1.945-0.087c-0.591-0.364-0.949-1.008-0.949-1.701v-1.528
				c0-0.758,0.428-1.451,1.105-1.789l8-4c0.62-0.31,1.357-0.277,1.946,0.088c0.589,0.364,0.948,1.008,0.948,1.701v1.528
				c0,0.757-0.428,1.45-1.106,1.789L77.934,67.553z"/>
		</g>
		<g>
			<path style="fill:#FFD7D4;" d="M77.934,57.553c-0.62,0.31-1.356,0.277-1.945-0.087c-0.591-0.364-0.949-1.008-0.949-1.701v-1.528
				c0-0.758,0.428-1.451,1.105-1.789l8-4c0.62-0.31,1.357-0.277,1.946,0.088c0.589,0.364,0.948,1.008,0.948,1.701v1.528
				c0,0.757-0.428,1.45-1.106,1.789L77.934,57.553z"/>
		</g>
		<g>
			<path style="fill:#FFD7D4;" d="M79.48,47.167c-0.93,0.508-2.058,0.489-2.969-0.05c-0.912-0.54-1.473-1.52-1.473-2.579
				c0-0.925,0.469-1.786,1.244-2.289c4.173-2.705,6.164-6.065,6.683-9.722c0.062-0.441,0.409-0.787,0.85-0.85
				c0.44-0.062,0.87,0.174,1.053,0.58C88.264,39.795,84.274,44.543,79.48,47.167z"/>
		</g>
		<g>
			<path style="fill:#FFD7D4;" d="M78.706,34.333c0,3.129-2.537,5.667-5.667,5.667c-3.13,0-5.666-2.537-5.666-5.667
				c0-3.13,5.666-11.333,5.666-11.333S78.706,31.204,78.706,34.333z"/>
		</g>
		<g>
			<g>
				<g>
					<path style="fill:#FFFFFF;" d="M32.144,77.553c0.62,0.31,1.357,0.277,1.946-0.087c0.589-0.364,0.948-1.008,0.948-1.701v-1.528
						c0-0.758-0.428-1.451-1.105-1.789l-8-4c-0.62-0.31-1.357-0.277-1.945,0.088c-0.591,0.364-0.949,1.008-0.949,1.701v1.528
						c0,0.757,0.428,1.45,1.105,1.788L32.144,77.553z"/>
				</g>
				<g>
					<path style="fill:#FFFFFF;" d="M32.144,67.553c0.62,0.31,1.357,0.277,1.946-0.087c0.589-0.364,0.948-1.008,0.948-1.701v-1.528
						c0-0.758-0.428-1.451-1.105-1.789l-8-4c-0.62-0.31-1.357-0.277-1.945,0.088c-0.591,0.364-0.949,1.008-0.949,1.701v1.528
						c0,0.757,0.428,1.45,1.105,1.789L32.144,67.553z"/>
				</g>
				<g>
					<path style="fill:#FFFFFF;" d="M32.144,57.553c0.62,0.31,1.357,0.277,1.946-0.087c0.589-0.364,0.948-1.008,0.948-1.701v-1.528
						c0-0.758-0.428-1.451-1.105-1.789l-8-4c-0.62-0.31-1.357-0.277-1.945,0.088c-0.591,0.364-0.949,1.008-0.949,1.701v1.528
						c0,0.757,0.428,1.45,1.105,1.789L32.144,57.553z"/>
				</g>
				<g>
					<path style="fill:#FFFFFF;" d="M30.598,47.167c0.93,0.508,2.058,0.489,2.969-0.05c0.912-0.54,1.473-1.52,1.473-2.579
						c0-0.925-0.469-1.786-1.244-2.29c-4.173-2.705-6.164-6.065-6.683-9.722c-0.062-0.441-0.409-0.787-0.85-0.85
						c-0.44-0.062-0.87,0.174-1.053,0.58C21.814,39.795,25.805,44.543,30.598,47.167z"/>
				</g>
				<g>
					<path style="fill:#FFFFFF;" d="M68.144,77.553c0.62,0.31,1.357,0.277,1.946-0.087c0.589-0.364,0.948-1.008,0.948-1.701v-1.528
						c0-0.758-0.428-1.451-1.106-1.789l-8-4c-0.62-0.31-1.356-0.277-1.945,0.088c-0.591,0.364-0.949,1.008-0.949,1.701v1.528
						c0,0.757,0.428,1.45,1.105,1.788L68.144,77.553z"/>
				</g>
				<g>
					<path style="fill:#FFFFFF;" d="M68.144,67.553c0.62,0.31,1.357,0.277,1.946-0.087c0.589-0.364,0.948-1.008,0.948-1.701v-1.528
						c0-0.758-0.428-1.451-1.106-1.789l-8-4c-0.62-0.31-1.356-0.277-1.945,0.088c-0.591,0.364-0.949,1.008-0.949,1.701v1.528
						c0,0.757,0.428,1.45,1.105,1.789L68.144,67.553z"/>
				</g>
				<g>
					<path style="fill:#FFFFFF;" d="M68.144,57.553c0.62,0.31,1.357,0.277,1.946-0.087c0.589-0.364,0.948-1.008,0.948-1.701v-1.528
						c0-0.758-0.428-1.451-1.106-1.789l-8-4c-0.62-0.31-1.356-0.277-1.945,0.088c-0.591,0.364-0.949,1.008-0.949,1.701v1.528
						c0,0.757,0.428,1.45,1.105,1.789L68.144,57.553z"/>
				</g>
				<g>
					<path style="fill:#FFFFFF;" d="M66.598,47.167c0.93,0.508,2.058,0.489,2.969-0.05c0.912-0.54,1.473-1.52,1.473-2.579
						c0-0.925-0.469-1.786-1.244-2.29c-4.173-2.705-6.164-6.065-6.683-9.722c-0.062-0.441-0.409-0.787-0.85-0.85
						c-0.44-0.062-0.87,0.174-1.053,0.58C57.814,39.795,61.805,44.543,66.598,47.167z"/>
				</g>
			</g>
			<g>
				<path style="fill:#FFFFFF;" d="M31.373,34.333c0,3.129,2.536,5.667,5.666,5.667V23C37.039,23,31.373,31.204,31.373,34.333z"/>
			</g>
			<g>
				<path style="fill:#FFFFFF;" d="M67.373,34.333c0,3.129,2.536,5.667,5.666,5.667V23C73.039,23,67.373,31.204,67.373,34.333z"/>
			</g>
		</g>
		<g>
			<path style="fill:#FFD7D4;" d="M39,85c0,1.104-0.896,2-2,2s-2-0.896-2-2v-4c0-1.104,0.896-2,2-2s2,0.896,2,2V85z"/>
		</g>
		<g>
			<path style="fill:#FFD7D4;" d="M75,85c0,1.104-0.896,2-2,2s-2-0.896-2-2v-4c0-1.104,0.896-2,2-2s2,0.896,2,2V85z"/>
		</g>
	</g>
</g>
<g id="R-Red" style="display:none;">
	<circle style="display:inline;fill:#FABBAF;" cx="55" cy="55" r="55"/>
	<g style="display:inline;">
		<g>
			<path style="fill:#FFD7D4;" d="M41.934,77.553c-0.62,0.31-1.356,0.277-1.945-0.087c-0.591-0.364-0.949-1.008-0.949-1.701v-1.528
				c0-0.758,0.428-1.451,1.105-1.789l8-4c0.62-0.31,1.357-0.277,1.946,0.088c0.589,0.364,0.948,1.008,0.948,1.701v1.528
				c0,0.757-0.428,1.45-1.105,1.788L41.934,77.553z"/>
		</g>
		<g>
			<path style="fill:#FFD7D4;" d="M41.934,67.553c-0.62,0.31-1.356,0.277-1.945-0.087c-0.591-0.364-0.949-1.008-0.949-1.701v-1.528
				c0-0.758,0.428-1.451,1.105-1.789l8-4c0.62-0.31,1.357-0.277,1.946,0.088c0.589,0.364,0.948,1.008,0.948,1.701v1.528
				c0,0.757-0.428,1.45-1.105,1.789L41.934,67.553z"/>
		</g>
		<g>
			<path style="fill:#FFD7D4;" d="M41.934,57.553c-0.62,0.31-1.356,0.277-1.945-0.087c-0.591-0.364-0.949-1.008-0.949-1.701v-1.528
				c0-0.758,0.428-1.451,1.105-1.789l8-4c0.62-0.31,1.357-0.277,1.946,0.088c0.589,0.364,0.948,1.008,0.948,1.701v1.528
				c0,0.757-0.428,1.45-1.105,1.789L41.934,57.553z"/>
		</g>
		<g>
			<path style="fill:#FFD7D4;" d="M43.48,47.167c-0.93,0.508-2.058,0.489-2.969-0.05c-0.912-0.54-1.473-1.52-1.473-2.579
				c0-0.925,0.469-1.786,1.244-2.289c4.173-2.705,6.164-6.065,6.683-9.722c0.062-0.441,0.409-0.787,0.85-0.85
				c0.44-0.062,0.87,0.174,1.053,0.58C52.264,39.795,48.274,44.543,43.48,47.167z"/>
		</g>
		<g>
			<path style="fill:#FFD7D4;" d="M42.706,34.333c0,3.129-2.537,5.667-5.667,5.667c-3.13,0-5.666-2.537-5.666-5.667
				c0-3.13,5.666-11.333,5.666-11.333S42.706,31.204,42.706,34.333z"/>
		</g>
		<g>
			<path style="fill:#FFD7D4;" d="M77.934,77.553c-0.62,0.31-1.356,0.277-1.945-0.087c-0.591-0.364-0.949-1.008-0.949-1.701v-1.528
				c0-0.758,0.428-1.451,1.105-1.789l8-4c0.62-0.31,1.357-0.277,1.946,0.088c0.589,0.364,0.948,1.008,0.948,1.701v1.528
				c0,0.757-0.428,1.45-1.106,1.788L77.934,77.553z"/>
		</g>
		<g>
			<path style="fill:#FFD7D4;" d="M77.934,67.553c-0.62,0.31-1.356,0.277-1.945-0.087c-0.591-0.364-0.949-1.008-0.949-1.701v-1.528
				c0-0.758,0.428-1.451,1.105-1.789l8-4c0.62-0.31,1.357-0.277,1.946,0.088c0.589,0.364,0.948,1.008,0.948,1.701v1.528
				c0,0.757-0.428,1.45-1.106,1.789L77.934,67.553z"/>
		</g>
		<g>
			<path style="fill:#FFD7D4;" d="M77.934,57.553c-0.62,0.31-1.356,0.277-1.945-0.087c-0.591-0.364-0.949-1.008-0.949-1.701v-1.528
				c0-0.758,0.428-1.451,1.105-1.789l8-4c0.62-0.31,1.357-0.277,1.946,0.088c0.589,0.364,0.948,1.008,0.948,1.701v1.528
				c0,0.757-0.428,1.45-1.106,1.789L77.934,57.553z"/>
		</g>
		<g>
			<path style="fill:#FFD7D4;" d="M79.48,47.167c-0.93,0.508-2.058,0.489-2.969-0.05c-0.912-0.54-1.473-1.52-1.473-2.579
				c0-0.925,0.469-1.786,1.244-2.289c4.173-2.705,6.164-6.065,6.683-9.722c0.062-0.441,0.409-0.787,0.85-0.85
				c0.44-0.062,0.87,0.174,1.053,0.58C88.264,39.795,84.274,44.543,79.48,47.167z"/>
		</g>
		<g>
			<path style="fill:#FFD7D4;" d="M78.706,34.333c0,3.129-2.537,5.667-5.667,5.667c-3.13,0-5.666-2.537-5.666-5.667
				c0-3.13,5.666-11.333,5.666-11.333S78.706,31.204,78.706,34.333z"/>
		</g>
		<g>
			<g>
				<g>
					<path style="fill:#FFFFFF;" d="M32.144,77.553c0.62,0.31,1.357,0.277,1.946-0.087c0.589-0.364,0.948-1.008,0.948-1.701v-1.528
						c0-0.758-0.428-1.451-1.105-1.789l-8-4c-0.62-0.31-1.357-0.277-1.945,0.088c-0.591,0.364-0.949,1.008-0.949,1.701v1.528
						c0,0.757,0.428,1.45,1.105,1.788L32.144,77.553z"/>
				</g>
				<g>
					<path style="fill:#FFFFFF;" d="M32.144,67.553c0.62,0.31,1.357,0.277,1.946-0.087c0.589-0.364,0.948-1.008,0.948-1.701v-1.528
						c0-0.758-0.428-1.451-1.105-1.789l-8-4c-0.62-0.31-1.357-0.277-1.945,0.088c-0.591,0.364-0.949,1.008-0.949,1.701v1.528
						c0,0.757,0.428,1.45,1.105,1.789L32.144,67.553z"/>
				</g>
				<g>
					<path style="fill:#FFFFFF;" d="M32.144,57.553c0.62,0.31,1.357,0.277,1.946-0.087c0.589-0.364,0.948-1.008,0.948-1.701v-1.528
						c0-0.758-0.428-1.451-1.105-1.789l-8-4c-0.62-0.31-1.357-0.277-1.945,0.088c-0.591,0.364-0.949,1.008-0.949,1.701v1.528
						c0,0.757,0.428,1.45,1.105,1.789L32.144,57.553z"/>
				</g>
				<g>
					<path style="fill:#FFFFFF;" d="M30.598,47.167c0.93,0.508,2.058,0.489,2.969-0.05c0.912-0.54,1.473-1.52,1.473-2.579
						c0-0.925-0.469-1.786-1.244-2.29c-4.173-2.705-6.164-6.065-6.683-9.722c-0.062-0.441-0.409-0.787-0.85-0.85
						c-0.44-0.062-0.87,0.174-1.053,0.58C21.814,39.795,25.805,44.543,30.598,47.167z"/>
				</g>
				<g>
					<path style="fill:#FFFFFF;" d="M68.144,77.553c0.62,0.31,1.357,0.277,1.946-0.087c0.589-0.364,0.948-1.008,0.948-1.701v-1.528
						c0-0.758-0.428-1.451-1.106-1.789l-8-4c-0.62-0.31-1.356-0.277-1.945,0.088c-0.591,0.364-0.949,1.008-0.949,1.701v1.528
						c0,0.757,0.428,1.45,1.105,1.788L68.144,77.553z"/>
				</g>
				<g>
					<path style="fill:#FFFFFF;" d="M68.144,67.553c0.62,0.31,1.357,0.277,1.946-0.087c0.589-0.364,0.948-1.008,0.948-1.701v-1.528
						c0-0.758-0.428-1.451-1.106-1.789l-8-4c-0.62-0.31-1.356-0.277-1.945,0.088c-0.591,0.364-0.949,1.008-0.949,1.701v1.528
						c0,0.757,0.428,1.45,1.105,1.789L68.144,67.553z"/>
				</g>
				<g>
					<path style="fill:#FFFFFF;" d="M68.144,57.553c0.62,0.31,1.357,0.277,1.946-0.087c0.589-0.364,0.948-1.008,0.948-1.701v-1.528
						c0-0.758-0.428-1.451-1.106-1.789l-8-4c-0.62-0.31-1.356-0.277-1.945,0.088c-0.591,0.364-0.949,1.008-0.949,1.701v1.528
						c0,0.757,0.428,1.45,1.105,1.789L68.144,57.553z"/>
				</g>
				<g>
					<path style="fill:#FFFFFF;" d="M66.598,47.167c0.93,0.508,2.058,0.489,2.969-0.05c0.912-0.54,1.473-1.52,1.473-2.579
						c0-0.925-0.469-1.786-1.244-2.29c-4.173-2.705-6.164-6.065-6.683-9.722c-0.062-0.441-0.409-0.787-0.85-0.85
						c-0.44-0.062-0.87,0.174-1.053,0.58C57.814,39.795,61.805,44.543,66.598,47.167z"/>
				</g>
			</g>
			<g>
				<path style="fill:#FFFFFF;" d="M31.373,34.333c0,3.129,2.536,5.667,5.666,5.667V23C37.039,23,31.373,31.204,31.373,34.333z"/>
			</g>
			<g>
				<path style="fill:#FFFFFF;" d="M67.373,34.333c0,3.129,2.536,5.667,5.666,5.667V23C73.039,23,67.373,31.204,67.373,34.333z"/>
			</g>
		</g>
		<g>
			<path style="fill:#FFD7D4;" d="M39,85c0,1.104-0.896,2-2,2s-2-0.896-2-2v-4c0-1.104,0.896-2,2-2s2,0.896,2,2V85z"/>
		</g>
		<g>
			<path style="fill:#FFD7D4;" d="M75,85c0,1.104-0.896,2-2,2s-2-0.896-2-2v-4c0-1.104,0.896-2,2-2s2,0.896,2,2V85z"/>
		</g>
	</g>
</g>
<g id="Yellow" style="display:none;">
	<g style="display:inline;">
		<g>
			<path style="fill:#FFE9A1;" d="M41.934,77.553c-0.62,0.31-1.357,0.277-1.945-0.087c-0.591-0.364-0.949-1.008-0.949-1.701v-1.528
				c0-0.758,0.428-1.451,1.105-1.789l8-4c0.62-0.31,1.356-0.277,1.946,0.088c0.589,0.364,0.948,1.008,0.948,1.701v1.528
				c0,0.757-0.428,1.45-1.105,1.789L41.934,77.553z"/>
		</g>
		<g>
			<path style="fill:#FFE9A1;" d="M41.934,67.553c-0.62,0.31-1.357,0.277-1.945-0.087c-0.591-0.364-0.949-1.008-0.949-1.701v-1.528
				c0-0.758,0.428-1.451,1.105-1.789l8-4c0.62-0.31,1.356-0.277,1.946,0.088c0.589,0.364,0.948,1.008,0.948,1.701v1.528
				c0,0.757-0.428,1.45-1.105,1.788L41.934,67.553z"/>
		</g>
		<g>
			<path style="fill:#FFE9A1;" d="M41.934,57.553c-0.62,0.31-1.357,0.277-1.945-0.087c-0.591-0.364-0.949-1.008-0.949-1.701v-1.528
				c0-0.758,0.428-1.451,1.105-1.789l8-4c0.62-0.31,1.356-0.277,1.946,0.088c0.589,0.364,0.948,1.008,0.948,1.701v1.528
				c0,0.757-0.428,1.45-1.105,1.788L41.934,57.553z"/>
		</g>
		<g>
			<path style="fill:#FFE9A1;" d="M43.48,47.167c-0.93,0.508-2.058,0.489-2.969-0.05c-0.912-0.54-1.473-1.52-1.473-2.579
				c0-0.925,0.469-1.786,1.244-2.289c4.173-2.705,6.164-6.065,6.683-9.722c0.062-0.441,0.409-0.787,0.85-0.85
				c0.441-0.062,0.87,0.174,1.053,0.58C52.264,39.795,48.274,44.543,43.48,47.167z"/>
		</g>
		<g>
			<path style="fill:#FFE9A1;" d="M42.706,34.333c0,3.129-2.537,5.667-5.667,5.667c-3.13,0-5.666-2.537-5.666-5.667
				c0-3.13,5.666-11.333,5.666-11.333S42.706,31.204,42.706,34.333z"/>
		</g>
		<g>
			<path style="fill:#FFE9A1;" d="M77.934,77.553c-0.62,0.31-1.356,0.277-1.945-0.087c-0.591-0.364-0.949-1.008-0.949-1.701v-1.528
				c0-0.758,0.428-1.451,1.105-1.789l8-4c0.62-0.31,1.356-0.277,1.946,0.088c0.589,0.364,0.948,1.008,0.948,1.701v1.528
				c0,0.757-0.428,1.45-1.105,1.789L77.934,77.553z"/>
		</g>
		<g>
			<path style="fill:#FFE9A1;" d="M77.934,67.553c-0.62,0.31-1.356,0.277-1.945-0.087c-0.591-0.364-0.949-1.008-0.949-1.701v-1.528
				c0-0.758,0.428-1.451,1.105-1.789l8-4c0.62-0.31,1.356-0.277,1.946,0.088c0.589,0.364,0.948,1.008,0.948,1.701v1.528
				c0,0.757-0.428,1.45-1.105,1.788L77.934,67.553z"/>
		</g>
		<g>
			<path style="fill:#FFE9A1;" d="M77.934,57.553c-0.62,0.31-1.356,0.277-1.945-0.087c-0.591-0.364-0.949-1.008-0.949-1.701v-1.528
				c0-0.758,0.428-1.451,1.105-1.789l8-4c0.62-0.31,1.356-0.277,1.946,0.088c0.589,0.364,0.948,1.008,0.948,1.701v1.528
				c0,0.757-0.428,1.45-1.105,1.788L77.934,57.553z"/>
		</g>
		<g>
			<path style="fill:#FFE9A1;" d="M79.48,47.167c-0.93,0.508-2.058,0.489-2.969-0.05c-0.912-0.54-1.473-1.52-1.473-2.579
				c0-0.925,0.469-1.786,1.244-2.289c4.173-2.705,6.164-6.065,6.683-9.722c0.062-0.441,0.409-0.787,0.85-0.85
				c0.44-0.062,0.87,0.174,1.053,0.58C88.264,39.795,84.274,44.543,79.48,47.167z"/>
		</g>
		<g>
			<path style="fill:#FFE9A1;" d="M78.706,34.333c0,3.129-2.537,5.667-5.667,5.667c-3.13,0-5.666-2.537-5.666-5.667
				c0-3.13,5.666-11.333,5.666-11.333S78.706,31.204,78.706,34.333z"/>
		</g>
		<g>
			<g>
				<g>
					<path style="fill:#FFFFFF;" d="M32.145,77.553c0.62,0.31,1.356,0.277,1.946-0.087c0.589-0.364,0.948-1.008,0.948-1.701v-1.528
						c0-0.758-0.428-1.451-1.105-1.789l-8-4c-0.62-0.31-1.356-0.277-1.945,0.088c-0.591,0.364-0.949,1.008-0.949,1.701v1.528
						c0,0.757,0.428,1.45,1.105,1.789L32.145,77.553z"/>
				</g>
				<g>
					<path style="fill:#FFFFFF;" d="M32.145,67.553c0.62,0.31,1.356,0.277,1.946-0.087c0.589-0.364,0.948-1.008,0.948-1.701v-1.528
						c0-0.758-0.428-1.451-1.105-1.789l-8-4c-0.62-0.31-1.356-0.277-1.945,0.088c-0.591,0.364-0.949,1.008-0.949,1.701v1.528
						c0,0.757,0.428,1.45,1.105,1.788L32.145,67.553z"/>
				</g>
				<g>
					<path style="fill:#FFFFFF;" d="M32.145,57.553c0.62,0.31,1.356,0.277,1.946-0.087c0.589-0.364,0.948-1.008,0.948-1.701v-1.528
						c0-0.758-0.428-1.451-1.105-1.789l-8-4c-0.62-0.31-1.356-0.277-1.945,0.088c-0.591,0.364-0.949,1.008-0.949,1.701v1.528
						c0,0.757,0.428,1.45,1.105,1.788L32.145,57.553z"/>
				</g>
				<g>
					<path style="fill:#FFFFFF;" d="M30.598,47.167c0.93,0.508,2.058,0.489,2.969-0.05c0.912-0.54,1.473-1.52,1.473-2.579
						c0-0.925-0.469-1.786-1.244-2.29c-4.173-2.705-6.164-6.065-6.683-9.722c-0.062-0.441-0.409-0.787-0.85-0.85
						c-0.44-0.062-0.87,0.174-1.053,0.58C21.815,39.795,25.805,44.543,30.598,47.167z"/>
				</g>
				<g>
					<path style="fill:#FFFFFF;" d="M68.145,77.553c0.62,0.31,1.356,0.277,1.946-0.087c0.589-0.364,0.948-1.008,0.948-1.701v-1.528
						c0-0.758-0.428-1.451-1.105-1.789l-8-4c-0.62-0.31-1.357-0.277-1.945,0.088c-0.591,0.364-0.949,1.008-0.949,1.701v1.528
						c0,0.757,0.428,1.45,1.105,1.789L68.145,77.553z"/>
				</g>
				<g>
					<path style="fill:#FFFFFF;" d="M68.145,67.553c0.62,0.31,1.356,0.277,1.946-0.087c0.589-0.364,0.948-1.008,0.948-1.701v-1.528
						c0-0.758-0.428-1.451-1.105-1.789l-8-4c-0.62-0.31-1.357-0.277-1.945,0.088c-0.591,0.364-0.949,1.008-0.949,1.701v1.528
						c0,0.757,0.428,1.45,1.105,1.788L68.145,67.553z"/>
				</g>
				<g>
					<path style="fill:#FFFFFF;" d="M68.145,57.553c0.62,0.31,1.356,0.277,1.946-0.087c0.589-0.364,0.948-1.008,0.948-1.701v-1.528
						c0-0.758-0.428-1.451-1.105-1.789l-8-4c-0.62-0.31-1.357-0.277-1.945,0.088c-0.591,0.364-0.949,1.008-0.949,1.701v1.528
						c0,0.757,0.428,1.45,1.105,1.788L68.145,57.553z"/>
				</g>
				<g>
					<path style="fill:#FFFFFF;" d="M66.598,47.167c0.93,0.508,2.058,0.489,2.969-0.05c0.912-0.54,1.473-1.52,1.473-2.579
						c0-0.925-0.469-1.786-1.244-2.29c-4.173-2.705-6.164-6.065-6.683-9.722c-0.062-0.441-0.409-0.787-0.85-0.85
						s-0.87,0.174-1.053,0.58C57.814,39.795,61.805,44.543,66.598,47.167z"/>
				</g>
			</g>
			<g>
				<path style="fill:#FFFFFF;" d="M31.373,34.333c0,3.129,2.536,5.667,5.666,5.667V23C37.039,23,31.373,31.204,31.373,34.333z"/>
			</g>
			<g>
				<path style="fill:#FFFFFF;" d="M67.373,34.333c0,3.129,2.536,5.667,5.666,5.667V23C73.039,23,67.373,31.204,67.373,34.333z"/>
			</g>
		</g>
		<g>
			<path style="fill:#FFE9A1;" d="M39,85c0,1.104-0.896,2-2,2s-2-0.896-2-2v-4c0-1.104,0.896-2,2-2s2,0.896,2,2V85z"/>
		</g>
		<g>
			<path style="fill:#FFE9A1;" d="M75,85c0,1.104-0.896,2-2,2s-2-0.896-2-2v-4c0-1.104,0.896-2,2-2s2,0.896,2,2V85z"/>
		</g>
	</g>
</g>
<g id="R-Yellow" style="display:none;">
	<circle style="display:inline;fill:#FFD75E;" cx="55" cy="55" r="55"/>
	<g style="display:inline;">
		<g>
			<path style="fill:#FFE9A1;" d="M41.934,77.553c-0.62,0.31-1.357,0.277-1.945-0.087c-0.591-0.364-0.949-1.008-0.949-1.701v-1.528
				c0-0.758,0.428-1.451,1.105-1.789l8-4c0.62-0.31,1.356-0.277,1.946,0.088c0.589,0.364,0.948,1.008,0.948,1.701v1.528
				c0,0.757-0.428,1.45-1.105,1.789L41.934,77.553z"/>
		</g>
		<g>
			<path style="fill:#FFE9A1;" d="M41.934,67.553c-0.62,0.31-1.357,0.277-1.945-0.087c-0.591-0.364-0.949-1.008-0.949-1.701v-1.528
				c0-0.758,0.428-1.451,1.105-1.789l8-4c0.62-0.31,1.356-0.277,1.946,0.088c0.589,0.364,0.948,1.008,0.948,1.701v1.528
				c0,0.757-0.428,1.45-1.105,1.788L41.934,67.553z"/>
		</g>
		<g>
			<path style="fill:#FFE9A1;" d="M41.934,57.553c-0.62,0.31-1.357,0.277-1.945-0.087c-0.591-0.364-0.949-1.008-0.949-1.701v-1.528
				c0-0.758,0.428-1.451,1.105-1.789l8-4c0.62-0.31,1.356-0.277,1.946,0.088c0.589,0.364,0.948,1.008,0.948,1.701v1.528
				c0,0.757-0.428,1.45-1.105,1.788L41.934,57.553z"/>
		</g>
		<g>
			<path style="fill:#FFE9A1;" d="M43.48,47.167c-0.93,0.508-2.058,0.489-2.969-0.05c-0.912-0.54-1.473-1.52-1.473-2.579
				c0-0.925,0.469-1.786,1.244-2.289c4.173-2.705,6.164-6.065,6.683-9.722c0.062-0.441,0.409-0.787,0.85-0.85
				c0.441-0.062,0.87,0.174,1.053,0.58C52.264,39.795,48.274,44.543,43.48,47.167z"/>
		</g>
		<g>
			<path style="fill:#FFE9A1;" d="M42.706,34.333c0,3.129-2.537,5.667-5.667,5.667c-3.13,0-5.666-2.537-5.666-5.667
				c0-3.13,5.666-11.333,5.666-11.333S42.706,31.204,42.706,34.333z"/>
		</g>
		<g>
			<path style="fill:#FFE9A1;" d="M77.934,77.553c-0.62,0.31-1.356,0.277-1.945-0.087c-0.591-0.364-0.949-1.008-0.949-1.701v-1.528
				c0-0.758,0.428-1.451,1.105-1.789l8-4c0.62-0.31,1.357-0.277,1.946,0.088c0.589,0.364,0.948,1.008,0.948,1.701v1.528
				c0,0.757-0.428,1.45-1.106,1.789L77.934,77.553z"/>
		</g>
		<g>
			<path style="fill:#FFE9A1;" d="M77.934,67.553c-0.62,0.31-1.356,0.277-1.945-0.087c-0.591-0.364-0.949-1.008-0.949-1.701v-1.528
				c0-0.758,0.428-1.451,1.105-1.789l8-4c0.62-0.31,1.357-0.277,1.946,0.088c0.589,0.364,0.948,1.008,0.948,1.701v1.528
				c0,0.757-0.428,1.45-1.106,1.788L77.934,67.553z"/>
		</g>
		<g>
			<path style="fill:#FFE9A1;" d="M77.934,57.553c-0.62,0.31-1.356,0.277-1.945-0.087c-0.591-0.364-0.949-1.008-0.949-1.701v-1.528
				c0-0.758,0.428-1.451,1.105-1.789l8-4c0.62-0.31,1.357-0.277,1.946,0.088c0.589,0.364,0.948,1.008,0.948,1.701v1.528
				c0,0.757-0.428,1.45-1.106,1.788L77.934,57.553z"/>
		</g>
		<g>
			<path style="fill:#FFE9A1;" d="M79.48,47.167c-0.93,0.508-2.058,0.489-2.969-0.05c-0.912-0.54-1.473-1.52-1.473-2.579
				c0-0.925,0.469-1.786,1.244-2.289c4.173-2.705,6.164-6.065,6.683-9.722c0.062-0.441,0.409-0.787,0.85-0.85
				c0.44-0.062,0.87,0.174,1.053,0.58C88.264,39.795,84.274,44.543,79.48,47.167z"/>
		</g>
		<g>
			<path style="fill:#FFE9A1;" d="M78.706,34.333c0,3.129-2.537,5.667-5.667,5.667c-3.13,0-5.666-2.537-5.666-5.667
				c0-3.13,5.666-11.333,5.666-11.333S78.706,31.204,78.706,34.333z"/>
		</g>
		<g>
			<g>
				<g>
					<path style="fill:#FFFFFF;" d="M32.144,77.553c0.62,0.31,1.356,0.277,1.946-0.087c0.589-0.364,0.948-1.008,0.948-1.701v-1.528
						c0-0.758-0.428-1.451-1.105-1.789l-8-4c-0.62-0.31-1.357-0.277-1.945,0.088c-0.591,0.364-0.949,1.008-0.949,1.701v1.528
						c0,0.757,0.428,1.45,1.105,1.789L32.144,77.553z"/>
				</g>
				<g>
					<path style="fill:#FFFFFF;" d="M32.144,67.553c0.62,0.31,1.356,0.277,1.946-0.087c0.589-0.364,0.948-1.008,0.948-1.701v-1.528
						c0-0.758-0.428-1.451-1.105-1.789l-8-4c-0.62-0.31-1.357-0.277-1.945,0.088c-0.591,0.364-0.949,1.008-0.949,1.701v1.528
						c0,0.757,0.428,1.45,1.105,1.788L32.144,67.553z"/>
				</g>
				<g>
					<path style="fill:#FFFFFF;" d="M32.144,57.553c0.62,0.31,1.356,0.277,1.946-0.087c0.589-0.364,0.948-1.008,0.948-1.701v-1.528
						c0-0.758-0.428-1.451-1.105-1.789l-8-4c-0.62-0.31-1.357-0.277-1.945,0.088c-0.591,0.364-0.949,1.008-0.949,1.701v1.528
						c0,0.757,0.428,1.45,1.105,1.788L32.144,57.553z"/>
				</g>
				<g>
					<path style="fill:#FFFFFF;" d="M30.598,47.167c0.93,0.508,2.058,0.489,2.969-0.05c0.912-0.54,1.473-1.52,1.473-2.579
						c0-0.925-0.469-1.786-1.244-2.29c-4.173-2.705-6.164-6.065-6.683-9.722c-0.062-0.441-0.409-0.787-0.85-0.85
						c-0.44-0.062-0.87,0.174-1.053,0.58C21.814,39.795,25.805,44.543,30.598,47.167z"/>
				</g>
				<g>
					<path style="fill:#FFFFFF;" d="M68.144,77.553c0.62,0.31,1.357,0.277,1.946-0.087c0.589-0.364,0.948-1.008,0.948-1.701v-1.528
						c0-0.758-0.428-1.451-1.106-1.789l-8-4c-0.62-0.31-1.357-0.277-1.945,0.088c-0.591,0.364-0.949,1.008-0.949,1.701v1.528
						c0,0.757,0.428,1.45,1.105,1.789L68.144,77.553z"/>
				</g>
				<g>
					<path style="fill:#FFFFFF;" d="M68.144,67.553c0.62,0.31,1.357,0.277,1.946-0.087c0.589-0.364,0.948-1.008,0.948-1.701v-1.528
						c0-0.758-0.428-1.451-1.106-1.789l-8-4c-0.62-0.31-1.357-0.277-1.945,0.088c-0.591,0.364-0.949,1.008-0.949,1.701v1.528
						c0,0.757,0.428,1.45,1.105,1.788L68.144,67.553z"/>
				</g>
				<g>
					<path style="fill:#FFFFFF;" d="M68.144,57.553c0.62,0.31,1.357,0.277,1.946-0.087c0.589-0.364,0.948-1.008,0.948-1.701v-1.528
						c0-0.758-0.428-1.451-1.106-1.789l-8-4c-0.62-0.31-1.357-0.277-1.945,0.088c-0.591,0.364-0.949,1.008-0.949,1.701v1.528
						c0,0.757,0.428,1.45,1.105,1.788L68.144,57.553z"/>
				</g>
				<g>
					<path style="fill:#FFFFFF;" d="M66.598,47.167c0.93,0.508,2.058,0.489,2.969-0.05c0.912-0.54,1.473-1.52,1.473-2.579
						c0-0.925-0.469-1.786-1.244-2.29c-4.173-2.705-6.164-6.065-6.683-9.722c-0.062-0.441-0.409-0.787-0.85-0.85
						c-0.44-0.062-0.87,0.174-1.053,0.58C57.814,39.795,61.805,44.543,66.598,47.167z"/>
				</g>
			</g>
			<g>
				<path style="fill:#FFFFFF;" d="M31.373,34.333c0,3.129,2.536,5.667,5.666,5.667V23C37.039,23,31.373,31.204,31.373,34.333z"/>
			</g>
			<g>
				<path style="fill:#FFFFFF;" d="M67.373,34.333c0,3.129,2.536,5.667,5.666,5.667V23C73.039,23,67.373,31.204,67.373,34.333z"/>
			</g>
		</g>
		<g>
			<path style="fill:#FFE9A1;" d="M39,85c0,1.104-0.896,2-2,2s-2-0.896-2-2v-4c0-1.104,0.896-2,2-2s2,0.896,2,2V85z"/>
		</g>
		<g>
			<path style="fill:#FFE9A1;" d="M75,85c0,1.104-0.896,2-2,2s-2-0.896-2-2v-4c0-1.104,0.896-2,2-2s2,0.896,2,2V85z"/>
		</g>
	</g>
</g>
</svg>
