<?xml version="1.0" encoding="iso-8859-1"?>
<!-- Generator: Adobe Illustrator 17.1.0, SVG Export Plug-In . SVG Version: 6.00 Build 0)  -->
<!DOCTYPE svg PUBLIC "-//W3C//DTD SVG 1.0//EN" "http://www.w3.org/TR/2001/REC-SVG-20010904/DTD/svg10.dtd">
<svg version="1.0" xmlns="http://www.w3.org/2000/svg" xmlns:xlink="http://www.w3.org/1999/xlink" x="0px" y="0px" width="110px"
	 height="110px" viewBox="0 0 110 110" style="enable-background:new 0 0 110 110;" xml:space="preserve">
<g id="Artboard">
</g>
<g id="Multicolor">
	<circle style="fill:#FABC3D;" cx="55" cy="55" r="55"/>
	<g>
		<g>
			<path style="fill:#3E3E3F;" d="M45,51c0,0,8-10,13-10s13,10,13,10H45z"/>
		</g>
		<g>
			<path style="fill:#FFFFFF;" d="M23.285,54.029c-0.371-0.618-0.38-1.387-0.025-2.014S24.279,51,25,51h46L39,77l-4-6L23.285,54.029
				z"/>
		</g>
		<path style="fill:#E2E4E5;" d="M84,51H70.055L45.414,68.248c1,1.505,1.586,3.309,1.586,5.252c0,0.338-0.019,0.671-0.053,0.999
			l2.073-1.451l10.643,8.403c1.364,1.076,3.044,1.631,4.732,1.631c1.13,0,2.264-0.249,3.31-0.755C70.313,81.062,72,78.371,72,75.471
			V57h12c1.657,0,3-1.343,3-3S85.657,51,84,51z M66,75.471c0,0.616-0.358,1.187-0.913,1.456c-0.553,0.27-1.224,0.196-1.708-0.186
			l-9.228-7.286L66,61.162V75.471z"/>
		<g>
			<circle style="fill:#3E3E3F;" cx="37.5" cy="73.5" r="9.5"/>
		</g>
		<g>
			<circle style="fill:#EBEBEC;" cx="37.5" cy="73.5" r="2.714"/>
		</g>
		<g>
			<path style="fill:#5B5C5F;" d="M27,51c0,0,9-16,14-16s14,16,14,16H27z"/>
		</g>
	</g>
</g>
</svg>
