<?xml version="1.0" encoding="iso-8859-1"?>
<!-- Generator: Adobe Illustrator 17.1.0, SVG Export Plug-In . SVG Version: 6.00 Build 0)  -->
<!DOCTYPE svg PUBLIC "-//W3C//DTD SVG 1.0//EN" "http://www.w3.org/TR/2001/REC-SVG-20010904/DTD/svg10.dtd">
<svg version="1.0" xmlns="http://www.w3.org/2000/svg" xmlns:xlink="http://www.w3.org/1999/xlink" x="0px" y="0px" width="110px"
	 height="110px" viewBox="0 0 110 110" style="enable-background:new 0 0 110 110;" xml:space="preserve">
<g id="Artboard" style="display:none;">
	
		<rect x="-712.5" y="-34.5" style="display:inline;fill:#808080;stroke:#000000;stroke-miterlimit:10;" width="1392" height="1369"/>
</g>
<g id="R-Multicolor">
	<circle style="fill:#32BEA6;" cx="55" cy="55" r="55"/>
	<g>
		<g>
			<path style="fill:#F37A10;" d="M66.992,44.328L60,39c1.133-3.399,0.576-6.799-0.434-10.198C59.403,28.917,59.215,29,59,29h-8
				c-0.248,0-0.468-0.1-0.643-0.25C49.349,31.847,49.007,35.318,50,39l-6.992,5.328C40.504,45.997,39,48.808,39,51.817V83
				c0,2.209,1.791,4,4,4h24c2.209,0,4-1.791,4-4V51.817C71,48.808,69.496,45.997,66.992,44.328z"/>
		</g>
		<g>
			<path style="fill:#F99134;" d="M64.772,42.636L60,39c1.133-3.399,0.576-6.799-0.434-10.198C59.403,28.917,59.215,29,59,29h-8
				c-0.248,0-0.468-0.1-0.643-0.25C49.349,31.847,49.007,35.318,50,39l-6.992,5.328C40.504,45.997,39,48.808,39,51.817v16.591
				L64.772,42.636z"/>
		</g>
		<g>
			<rect x="39" y="51" style="fill:#3E3E3F;" width="32" height="27"/>
		</g>
		<g>
			<path style="fill:#3E3E3F;" d="M60,24c0-0.552-0.448-1-1-1h-8c-0.552,0-1,0.448-1,1v4c0,0.552,0.448,1,1,1h8c0.552,0,1-0.448,1-1
				V24z"/>
		</g>
		<g>
			<rect x="39" y="78" style="fill:#FFFFFF;" width="32" height="2"/>
		</g>
		<g>
			<path style="fill:#5B5C5F;" d="M55,23h-4c-0.552,0-1,0.448-1,1v4c0,0.552,0.448,1,1,1h4V23z"/>
		</g>
		<g>
			<path style="fill:#F37A10;" d="M39.051,51C39.026,51.271,39,51.542,39,51.817v16.591L56.408,51H39.051z"/>
		</g>
		<g>
			<path style="fill:#5B5C5F;" d="M39.051,51C39.026,51.271,39,51.542,39,51.817v16.591L56.408,51H39.051z"/>
		</g>
		<g>
			<g>
				<path style="fill:#FFFFFF;" d="M52.45,56.176c0.515-0.05,0.773-0.07,1.29-0.098c0.126,2.318,0.189,3.478,0.314,5.796
					c-0.417,0.023-0.625,0.038-1.04,0.079C52.788,59.642,52.675,58.486,52.45,56.176z"/>
			</g>
			<g>
				<path style="fill:#FFFFFF;" d="M54.55,61.653c-0.014-0.421-0.021-0.632-0.035-1.053c0.393,0.194,0.694,0.308,0.987,0.31
					c0.31,0.002,0.581-0.131,0.591-0.487c0-0.007,0-0.01,0-0.016c0.008-0.265-0.068-0.473-0.611-1.022
					c-0.776-0.783-1.143-1.134-1.169-1.838c0-0.007,0-0.01-0.001-0.016c-0.034-0.928,0.718-1.553,1.747-1.529
					c0.52,0.012,0.825,0.087,1.134,0.23c-0.026,0.42-0.039,0.631-0.064,1.051c-0.375-0.206-0.609-0.298-0.938-0.308
					c-0.349-0.01-0.648,0.171-0.65,0.487c0,0.007,0,0.01,0,0.016c-0.002,0.274,0.109,0.368,0.657,0.94
					c0.909,0.948,1.05,1.332,1.002,1.994c0,0.007-0.001,0.01-0.001,0.016c-0.065,0.91-0.765,1.462-1.584,1.454
					C55.207,61.877,54.856,61.784,54.55,61.653z"/>
			</g>
			<g>
				<path style="fill:#FFFFFF;" d="M57.962,56.147c0.516,0.045,0.773,0.072,1.287,0.139c-0.126,0.964-0.188,1.445-0.314,2.409
					c0.509-0.914,0.78-1.365,1.354-2.255c0.578,0.096,0.867,0.151,1.441,0.276c-0.699,0.853-1.03,1.29-1.651,2.178
					c0.233,1.4,0.32,2.101,0.438,3.498c-0.457-0.099-0.686-0.143-1.146-0.221c-0.112-0.91-0.179-1.365-0.339-2.275
					c-0.135,0.239-0.202,0.359-0.332,0.599c-0.081,0.618-0.121,0.927-0.202,1.546c-0.415-0.054-0.622-0.076-1.038-0.113
					C57.661,59.616,57.761,58.459,57.962,56.147z"/>
			</g>
			<g>
				<path style="fill:#FFFFFF;" d="M62.186,56.819c1.112,0.259,1.665,0.416,2.754,0.782c-0.123,0.365-0.184,0.547-0.307,0.912
					c-0.575-0.193-0.864-0.282-1.445-0.445c-0.155,0.556-0.233,0.834-0.388,1.389c0.488,0.136,0.731,0.211,1.215,0.37
					c-0.121,0.365-0.181,0.548-0.301,0.914c-0.466-0.154-0.701-0.225-1.172-0.357c-0.159,0.569-0.238,0.853-0.397,1.422
					c0.514,0.144,0.77,0.223,1.278,0.394c-0.123,0.364-0.185,0.547-0.308,0.911c-0.889-0.3-1.339-0.428-2.247-0.64
					C61.395,60.21,61.659,59.08,62.186,56.819z"/>
			</g>
			<g>
				<path style="fill:#FFFFFF;" d="M65.209,61.445c0.063-1.49,0.062-2.242-0.005-3.753c0.511,0.177,0.765,0.272,1.27,0.473
					c-0.057,0.912-0.096,1.367-0.193,2.27c0.588-0.694,0.891-1.036,1.515-1.706c0.485,0.221,0.726,0.337,1.204,0.58
					c-1.143,0.996-1.688,1.516-2.72,2.593c-0.377,0.834-0.565,1.251-0.942,2.086c-0.389-0.175-0.585-0.259-0.979-0.416
					C64.699,62.72,64.869,62.294,65.209,61.445z"/>
			</g>
			<g>
				<path style="fill:#FFFFFF;" d="M41,59.219c0.485-0.247,0.73-0.365,1.223-0.589c0.789,1.204,1.173,1.813,1.915,3.042
					c-0.351-1.398-0.512-2.103-0.803-3.52c0.452-0.184,0.679-0.271,1.136-0.435c0.724,1.252,1.072,1.884,1.74,3.161
					c-0.266-1.411-0.387-2.121-0.602-3.545c0.499-0.157,0.749-0.23,1.253-0.365c0.165,2.366,0.292,3.543,0.629,5.875
					c-0.422,0.13-0.632,0.201-1.05,0.351c-0.655-1.227-0.996-1.835-1.703-3.039c0.278,1.368,0.431,2.048,0.763,3.399
					c-0.412,0.168-0.617,0.257-1.023,0.445C43.165,62.042,42.468,61.084,41,59.219z"/>
			</g>
			<g>
				<path style="fill:#FFFFFF;" d="M48.014,56.947c0.505-0.127,0.759-0.186,1.267-0.291c0.195,0.942,0.292,1.413,0.487,2.355
					c0.407-0.084,0.61-0.122,1.019-0.191c-0.159-0.948-0.239-1.423-0.398-2.371c0.511-0.086,0.768-0.123,1.282-0.187
					c0.285,2.304,0.428,3.456,0.714,5.76c-0.414,0.051-0.621,0.081-1.034,0.151c-0.162-0.962-0.242-1.442-0.404-2.404
					c-0.395,0.066-0.591,0.103-0.984,0.184c0.198,0.955,0.296,1.432,0.494,2.387c-0.411,0.085-0.615,0.132-1.022,0.235
					C48.866,60.324,48.582,59.198,48.014,56.947z"/>
			</g>
		</g>
		<g>
			<rect x="39" y="51" style="fill:#FFFFFF;" width="32" height="2"/>
		</g>
		<g>
			<polygon style="fill:#FFFFFF;" points="50.358,65.71 51.705,68.439 54.716,68.877 52.537,71.001 53.052,74 50.358,72.584 
				47.665,74 48.179,71.001 46,68.877 49.011,68.439 			"/>
		</g>
		<g>
			<polygon style="fill:#FFFFFF;" points="60.642,65.71 61.989,68.439 65,68.877 62.821,71.001 63.335,74 60.642,72.584 57.948,74 
				58.463,71.001 56.284,68.877 59.295,68.439 			"/>
		</g>
	</g>
</g>
<g id="Multicolor" style="display:none;">
	<g style="display:inline;">
		<g>
			<path style="fill:#F37A10;" d="M66.992,44.328L60,39c1.133-3.399,0.576-6.799-0.434-10.198C59.403,28.917,59.215,29,59,29h-8
				c-0.248,0-0.468-0.1-0.643-0.25C49.349,31.847,49.007,35.318,50,39l-6.992,5.328C40.504,45.997,39,48.808,39,51.817V83
				c0,2.209,1.791,4,4,4h24c2.209,0,4-1.791,4-4V51.817C71,48.808,69.496,45.997,66.992,44.328z"/>
		</g>
		<g>
			<path style="fill:#F99134;" d="M64.772,42.636L60,39c1.133-3.399,0.576-6.799-0.434-10.198C59.403,28.917,59.215,29,59,29h-8
				c-0.248,0-0.468-0.1-0.643-0.25C49.349,31.847,49.007,35.318,50,39l-6.992,5.328C40.504,45.997,39,48.808,39,51.817v16.591
				L64.772,42.636z"/>
		</g>
		<g>
			<rect x="39" y="51" style="fill:#3E3E3F;" width="32" height="27"/>
		</g>
		<g>
			<path style="fill:#3E3E3F;" d="M60,24c0-0.552-0.448-1-1-1h-8c-0.552,0-1,0.448-1,1v4c0,0.552,0.448,1,1,1h8c0.552,0,1-0.448,1-1
				V24z"/>
		</g>
		<g>
			<rect x="39" y="78" style="fill:#FFFFFF;" width="32" height="2"/>
		</g>
		<g>
			<path style="fill:#5B5C5F;" d="M55,23h-4c-0.552,0-1,0.448-1,1v4c0,0.552,0.448,1,1,1h4V23z"/>
		</g>
		<g>
			<path style="fill:#F37A10;" d="M39.051,51C39.026,51.271,39,51.542,39,51.817v16.591L56.408,51H39.051z"/>
		</g>
		<g>
			<path style="fill:#5B5C5F;" d="M39.051,51C39.026,51.271,39,51.542,39,51.817v16.591L56.408,51H39.051z"/>
		</g>
		<g>
			<g>
				<path style="fill:#FFFFFF;" d="M52.45,56.176c0.515-0.05,0.773-0.07,1.29-0.098c0.126,2.318,0.189,3.478,0.314,5.796
					c-0.417,0.023-0.625,0.038-1.04,0.079C52.788,59.642,52.675,58.486,52.45,56.176z"/>
			</g>
			<g>
				<path style="fill:#FFFFFF;" d="M54.55,61.653c-0.014-0.421-0.021-0.632-0.035-1.053c0.393,0.194,0.694,0.308,0.987,0.31
					c0.31,0.002,0.581-0.131,0.591-0.487c0-0.007,0-0.01,0-0.016c0.008-0.265-0.068-0.473-0.611-1.022
					c-0.776-0.783-1.143-1.134-1.169-1.838c0-0.007,0-0.01-0.001-0.016c-0.034-0.928,0.718-1.553,1.747-1.529
					c0.52,0.012,0.825,0.087,1.134,0.23c-0.026,0.42-0.039,0.631-0.064,1.051c-0.375-0.206-0.609-0.298-0.938-0.308
					c-0.349-0.01-0.648,0.171-0.65,0.487c0,0.007,0,0.01,0,0.016c-0.002,0.274,0.109,0.368,0.657,0.94
					c0.909,0.948,1.05,1.332,1.002,1.994c0,0.007-0.001,0.01-0.001,0.016c-0.065,0.91-0.765,1.462-1.584,1.454
					C55.207,61.877,54.856,61.784,54.55,61.653z"/>
			</g>
			<g>
				<path style="fill:#FFFFFF;" d="M57.962,56.147c0.516,0.045,0.773,0.072,1.287,0.139c-0.126,0.964-0.188,1.445-0.314,2.409
					c0.509-0.914,0.78-1.365,1.354-2.255c0.578,0.096,0.867,0.151,1.441,0.276c-0.699,0.853-1.03,1.29-1.651,2.178
					c0.233,1.4,0.32,2.101,0.438,3.498c-0.457-0.099-0.686-0.143-1.146-0.221c-0.112-0.91-0.179-1.365-0.339-2.275
					c-0.135,0.239-0.202,0.359-0.332,0.599c-0.081,0.618-0.121,0.927-0.202,1.546c-0.415-0.054-0.622-0.076-1.038-0.113
					C57.661,59.616,57.761,58.459,57.962,56.147z"/>
			</g>
			<g>
				<path style="fill:#FFFFFF;" d="M62.186,56.819c1.112,0.259,1.665,0.416,2.754,0.782c-0.123,0.365-0.184,0.547-0.307,0.912
					c-0.575-0.193-0.864-0.282-1.445-0.445c-0.155,0.556-0.233,0.834-0.388,1.389c0.488,0.136,0.731,0.211,1.215,0.37
					c-0.121,0.365-0.181,0.548-0.301,0.914c-0.466-0.154-0.701-0.225-1.172-0.357c-0.159,0.569-0.238,0.853-0.397,1.422
					c0.514,0.144,0.77,0.223,1.278,0.394c-0.123,0.364-0.185,0.547-0.308,0.911c-0.889-0.3-1.339-0.428-2.247-0.64
					C61.395,60.21,61.659,59.08,62.186,56.819z"/>
			</g>
			<g>
				<path style="fill:#FFFFFF;" d="M65.209,61.445c0.063-1.49,0.062-2.242-0.005-3.753c0.511,0.177,0.765,0.272,1.27,0.473
					c-0.057,0.912-0.096,1.367-0.193,2.27c0.588-0.694,0.891-1.036,1.515-1.706c0.485,0.221,0.726,0.337,1.204,0.58
					c-1.143,0.996-1.688,1.516-2.72,2.593c-0.377,0.834-0.565,1.251-0.942,2.086c-0.389-0.175-0.585-0.259-0.979-0.416
					C64.699,62.72,64.869,62.294,65.209,61.445z"/>
			</g>
			<g>
				<path style="fill:#FFFFFF;" d="M41,59.219c0.485-0.247,0.73-0.365,1.223-0.589c0.789,1.204,1.173,1.813,1.915,3.042
					c-0.351-1.398-0.512-2.103-0.803-3.52c0.452-0.184,0.679-0.271,1.136-0.435c0.724,1.252,1.072,1.884,1.74,3.161
					c-0.266-1.411-0.387-2.121-0.602-3.545c0.499-0.157,0.749-0.23,1.253-0.365c0.165,2.366,0.292,3.543,0.629,5.875
					c-0.422,0.13-0.632,0.201-1.05,0.351c-0.655-1.227-0.996-1.835-1.703-3.039c0.278,1.368,0.431,2.048,0.763,3.399
					c-0.412,0.168-0.617,0.257-1.023,0.445C43.165,62.042,42.468,61.084,41,59.219z"/>
			</g>
			<g>
				<path style="fill:#FFFFFF;" d="M48.014,56.947c0.505-0.127,0.759-0.186,1.267-0.291c0.195,0.942,0.292,1.413,0.487,2.355
					c0.407-0.084,0.61-0.122,1.019-0.191c-0.159-0.948-0.239-1.423-0.398-2.371c0.511-0.086,0.768-0.123,1.282-0.187
					c0.285,2.304,0.428,3.456,0.714,5.76c-0.414,0.051-0.621,0.081-1.034,0.151c-0.162-0.962-0.242-1.442-0.404-2.404
					c-0.395,0.066-0.591,0.103-0.984,0.184c0.198,0.955,0.296,1.432,0.494,2.387c-0.411,0.085-0.615,0.132-1.022,0.235
					C48.866,60.324,48.582,59.198,48.014,56.947z"/>
			</g>
		</g>
		<g>
			<rect x="39" y="51" style="fill:#FFFFFF;" width="32" height="2"/>
		</g>
		<g>
			<polygon style="fill:#FFFFFF;" points="50.358,65.71 51.705,68.439 54.716,68.877 52.537,71.001 53.052,74 50.358,72.584 
				47.665,74 48.179,71.001 46,68.877 49.011,68.439 			"/>
		</g>
		<g>
			<polygon style="fill:#FFFFFF;" points="60.642,65.71 61.989,68.439 65,68.877 62.821,71.001 63.335,74 60.642,72.584 57.948,74 
				58.463,71.001 56.284,68.877 59.295,68.439 			"/>
		</g>
	</g>
</g>
<g id="Blue" style="display:none;">
	<g style="display:inline;">
		<g>
			<path style="fill:#0081A1;" d="M66.992,44.328L60,39c1.133-3.399,0.576-6.798-0.434-10.198C59.403,28.918,59.215,29,59,29h-8
				c-0.248,0-0.469-0.1-0.643-0.25C49.35,31.847,49.007,35.318,50,39l-6.992,5.328C40.504,45.998,39,48.808,39,51.817V83
				c0,2.21,1.791,4,4,4h24c2.209,0,4-1.79,4-4V51.817C71,48.808,69.496,45.998,66.992,44.328z"/>
		</g>
		<g>
			<path style="fill:#009FC7;" d="M64.771,42.636L60,39c1.133-3.399,0.576-6.798-0.434-10.198C59.403,28.918,59.215,29,59,29h-8
				c-0.248,0-0.469-0.1-0.643-0.25C49.35,31.847,49.007,35.318,50,39l-6.992,5.328C40.504,45.998,39,48.808,39,51.817v16.591
				L64.771,42.636z"/>
		</g>
		<g>
			<rect x="39" y="51" style="fill:#0C333D;" width="32" height="27"/>
		</g>
		<g>
			<path style="fill:#0C333D;" d="M60,24c0-0.552-0.447-1-1-1h-8c-0.553,0-1,0.448-1,1v4c0,0.552,0.447,1,1,1h8c0.553,0,1-0.448,1-1
				V24z"/>
		</g>
		<g>
			<rect x="39" y="78" style="fill:#FFFFFF;" width="32" height="2"/>
		</g>
		<g>
			<path style="fill:#0F6175;" d="M55,23h-4c-0.553,0-1,0.448-1,1v4c0,0.552,0.447,1,1,1h4V23z"/>
		</g>
		<g>
			<path style="fill:#0F6175;" d="M39.051,51C39.026,51.271,39,51.542,39,51.817v16.591L56.408,51H39.051z"/>
		</g>
		<g>
			<path style="fill:#0F6175;" d="M39.051,51C39.026,51.271,39,51.542,39,51.817v16.591L56.408,51H39.051z"/>
		</g>
		<g>
			<g>
				<path style="fill:#FFFFFF;" d="M52.45,56.176c0.515-0.05,0.773-0.069,1.289-0.098c0.126,2.318,0.188,3.478,0.314,5.795
					c-0.417,0.023-0.625,0.039-1.04,0.08C52.788,59.642,52.676,58.486,52.45,56.176z"/>
			</g>
			<g>
				<path style="fill:#FFFFFF;" d="M54.551,61.653c-0.015-0.421-0.021-0.631-0.035-1.052c0.393,0.194,0.693,0.308,0.986,0.31
					c0.311,0.001,0.58-0.131,0.591-0.488c0-0.006,0-0.01,0.001-0.016c0.007-0.266-0.068-0.474-0.611-1.022
					c-0.776-0.783-1.143-1.134-1.17-1.838c0-0.006,0-0.01,0-0.016c-0.035-0.928,0.718-1.553,1.746-1.529
					c0.52,0.012,0.826,0.087,1.135,0.23c-0.026,0.42-0.039,0.631-0.064,1.051c-0.375-0.205-0.609-0.298-0.939-0.307
					c-0.349-0.01-0.647,0.171-0.649,0.487c0,0.006,0,0.01,0,0.016c-0.002,0.274,0.108,0.368,0.657,0.94
					c0.909,0.948,1.05,1.332,1.003,1.994c-0.001,0.007-0.001,0.01-0.002,0.016c-0.064,0.91-0.765,1.462-1.584,1.454
					C55.207,61.877,54.856,61.784,54.551,61.653z"/>
			</g>
			<g>
				<path style="fill:#FFFFFF;" d="M57.962,56.147c0.516,0.044,0.773,0.072,1.286,0.139c-0.125,0.964-0.188,1.445-0.313,2.409
					c0.509-0.913,0.779-1.365,1.354-2.254c0.579,0.096,0.867,0.151,1.441,0.276c-0.699,0.853-1.029,1.29-1.651,2.178
					c0.232,1.4,0.32,2.101,0.438,3.498c-0.457-0.1-0.687-0.144-1.146-0.221c-0.112-0.91-0.18-1.365-0.339-2.275
					c-0.136,0.239-0.202,0.358-0.333,0.599c-0.08,0.619-0.121,0.928-0.201,1.546c-0.415-0.054-0.622-0.076-1.038-0.113
					C57.661,59.616,57.762,58.459,57.962,56.147z"/>
			</g>
			<g>
				<path style="fill:#FFFFFF;" d="M62.186,56.819c1.113,0.259,1.665,0.416,2.755,0.783c-0.122,0.364-0.184,0.547-0.307,0.911
					c-0.574-0.193-0.864-0.282-1.445-0.445c-0.155,0.556-0.233,0.834-0.388,1.39c0.488,0.137,0.73,0.21,1.214,0.37
					c-0.12,0.366-0.181,0.548-0.301,0.914c-0.467-0.154-0.701-0.225-1.173-0.357c-0.158,0.568-0.238,0.853-0.396,1.421
					c0.514,0.144,0.77,0.223,1.277,0.394c-0.123,0.365-0.184,0.547-0.307,0.911c-0.89-0.3-1.34-0.428-2.247-0.639
					C61.396,60.21,61.659,59.08,62.186,56.819z"/>
			</g>
			<g>
				<path style="fill:#FFFFFF;" d="M65.209,61.445c0.062-1.49,0.062-2.242-0.005-3.753c0.512,0.177,0.766,0.272,1.271,0.473
					c-0.057,0.912-0.096,1.366-0.193,2.27c0.588-0.694,0.891-1.036,1.515-1.707c0.485,0.221,0.727,0.337,1.204,0.58
					c-1.144,0.996-1.688,1.516-2.721,2.593c-0.377,0.834-0.564,1.251-0.941,2.086c-0.389-0.176-0.584-0.259-0.979-0.417
					C64.699,62.72,64.869,62.294,65.209,61.445z"/>
			</g>
			<g>
				<path style="fill:#FFFFFF;" d="M41,59.219c0.485-0.247,0.729-0.365,1.223-0.589c0.789,1.204,1.173,1.812,1.916,3.042
					c-0.352-1.399-0.513-2.103-0.804-3.52c0.452-0.184,0.679-0.271,1.136-0.435c0.725,1.251,1.072,1.884,1.74,3.161
					c-0.266-1.411-0.387-2.121-0.601-3.544c0.498-0.157,0.749-0.23,1.252-0.365c0.166,2.366,0.293,3.542,0.629,5.875
					c-0.422,0.13-0.632,0.201-1.049,0.351c-0.655-1.227-0.996-1.835-1.703-3.038c0.277,1.367,0.431,2.048,0.763,3.399
					c-0.413,0.168-0.617,0.257-1.023,0.444C43.165,62.042,42.468,61.084,41,59.219z"/>
			</g>
			<g>
				<path style="fill:#FFFFFF;" d="M48.014,56.948c0.505-0.128,0.759-0.186,1.267-0.291c0.194,0.942,0.292,1.413,0.486,2.354
					c0.407-0.084,0.611-0.122,1.02-0.191c-0.159-0.948-0.238-1.423-0.398-2.371c0.512-0.086,0.767-0.123,1.282-0.187
					c0.285,2.304,0.428,3.456,0.714,5.76c-0.415,0.052-0.621,0.082-1.034,0.151c-0.162-0.962-0.242-1.442-0.403-2.404
					c-0.396,0.066-0.592,0.103-0.984,0.184c0.197,0.955,0.297,1.432,0.494,2.387c-0.411,0.085-0.615,0.132-1.022,0.234
					C48.866,60.324,48.582,59.198,48.014,56.948z"/>
			</g>
		</g>
		<g>
			<rect x="39" y="51" style="fill:#FFFFFF;" width="32" height="2"/>
		</g>
		<g>
			<polygon style="fill:#FFFFFF;" points="50.358,65.71 51.705,68.439 54.717,68.877 52.537,71.001 53.052,74 50.358,72.584 
				47.665,74 48.18,71.001 46,68.877 49.012,68.439 			"/>
		</g>
		<g>
			<polygon style="fill:#FFFFFF;" points="60.642,65.71 61.988,68.439 65,68.877 62.82,71.001 63.335,74 60.642,72.584 57.948,74 
				58.463,71.001 56.283,68.877 59.295,68.439 			"/>
		</g>
	</g>
</g>
<g id="R-Blue" style="display:none;">
	<circle style="display:inline;fill:#81D2EB;" cx="55" cy="55" r="55"/>
	<g style="display:inline;">
		<g>
			<path style="fill:#0081A1;" d="M66.992,44.328L60,39c1.133-3.399,0.576-6.798-0.434-10.198C59.403,28.917,59.215,29,59,29h-8
				c-0.248,0-0.469-0.1-0.643-0.25C49.35,31.847,49.007,35.318,50,39l-6.992,5.328C40.504,45.998,39,48.808,39,51.817V83
				c0,2.209,1.791,4,4,4h24c2.209,0,4-1.791,4-4V51.817C71,48.808,69.496,45.998,66.992,44.328z"/>
		</g>
		<g>
			<path style="fill:#009FC7;" d="M64.771,42.636L60,39c1.133-3.399,0.576-6.798-0.434-10.198C59.403,28.917,59.215,29,59,29h-8
				c-0.248,0-0.469-0.1-0.643-0.25C49.35,31.847,49.007,35.318,50,39l-6.992,5.328C40.504,45.998,39,48.808,39,51.817v16.591
				L64.771,42.636z"/>
		</g>
		<g>
			<rect x="39" y="51" style="fill:#0C333D;" width="32" height="27"/>
		</g>
		<g>
			<path style="fill:#0C333D;" d="M60,24c0-0.552-0.447-1-1-1h-8c-0.553,0-1,0.448-1,1v4c0,0.552,0.447,1,1,1h8c0.553,0,1-0.448,1-1
				V24z"/>
		</g>
		<g>
			<rect x="39" y="78" style="fill:#FFFFFF;" width="32" height="2"/>
		</g>
		<g>
			<path style="fill:#0F6175;" d="M55,23h-4c-0.553,0-1,0.448-1,1v4c0,0.552,0.447,1,1,1h4V23z"/>
		</g>
		<g>
			<path style="fill:#0F6175;" d="M39.051,51C39.026,51.27,39,51.542,39,51.817v16.591L56.408,51H39.051z"/>
		</g>
		<g>
			<path style="fill:#0F6175;" d="M39.051,51C39.026,51.27,39,51.542,39,51.817v16.591L56.408,51H39.051z"/>
		</g>
		<g>
			<g>
				<path style="fill:#FFFFFF;" d="M52.45,56.176c0.515-0.05,0.773-0.069,1.289-0.098c0.126,2.318,0.188,3.478,0.314,5.795
					c-0.417,0.023-0.625,0.039-1.04,0.08C52.788,59.642,52.676,58.486,52.45,56.176z"/>
			</g>
			<g>
				<path style="fill:#FFFFFF;" d="M54.551,61.653c-0.015-0.421-0.021-0.631-0.035-1.052c0.393,0.194,0.693,0.308,0.986,0.31
					c0.311,0.001,0.58-0.131,0.591-0.488c0-0.006,0-0.01,0.001-0.016c0.007-0.266-0.068-0.474-0.611-1.022
					c-0.776-0.783-1.143-1.134-1.17-1.838c0-0.006,0-0.01,0-0.016c-0.035-0.928,0.718-1.553,1.746-1.529
					c0.52,0.012,0.826,0.087,1.135,0.23c-0.026,0.42-0.039,0.631-0.064,1.051c-0.375-0.205-0.609-0.298-0.939-0.307
					c-0.349-0.01-0.647,0.171-0.649,0.487c0,0.006,0,0.01,0,0.016c-0.002,0.274,0.108,0.368,0.657,0.94
					c0.909,0.948,1.05,1.332,1.003,1.994c-0.001,0.007-0.001,0.01-0.002,0.016c-0.064,0.91-0.765,1.462-1.584,1.454
					C55.207,61.877,54.856,61.784,54.551,61.653z"/>
			</g>
			<g>
				<path style="fill:#FFFFFF;" d="M57.962,56.147c0.516,0.044,0.773,0.072,1.286,0.139c-0.125,0.964-0.188,1.445-0.313,2.409
					c0.509-0.913,0.779-1.365,1.354-2.254c0.579,0.096,0.867,0.151,1.441,0.276c-0.699,0.853-1.029,1.29-1.651,2.178
					c0.232,1.4,0.32,2.101,0.438,3.498c-0.457-0.1-0.687-0.144-1.146-0.221c-0.112-0.91-0.18-1.365-0.339-2.275
					c-0.136,0.239-0.202,0.358-0.333,0.599c-0.08,0.619-0.121,0.928-0.201,1.546c-0.415-0.054-0.622-0.076-1.038-0.113
					C57.661,59.616,57.762,58.459,57.962,56.147z"/>
			</g>
			<g>
				<path style="fill:#FFFFFF;" d="M62.186,56.819c1.113,0.259,1.665,0.416,2.755,0.783c-0.122,0.364-0.184,0.547-0.307,0.911
					c-0.574-0.193-0.864-0.282-1.445-0.445c-0.155,0.556-0.233,0.834-0.388,1.39c0.488,0.137,0.73,0.21,1.214,0.37
					c-0.12,0.366-0.181,0.548-0.301,0.914c-0.467-0.154-0.701-0.225-1.173-0.357c-0.158,0.568-0.238,0.853-0.396,1.421
					c0.514,0.144,0.77,0.223,1.277,0.394c-0.123,0.365-0.184,0.547-0.307,0.911c-0.89-0.3-1.34-0.428-2.247-0.639
					C61.396,60.21,61.659,59.08,62.186,56.819z"/>
			</g>
			<g>
				<path style="fill:#FFFFFF;" d="M65.209,61.445c0.062-1.49,0.062-2.242-0.005-3.753c0.512,0.177,0.766,0.272,1.271,0.473
					c-0.057,0.912-0.096,1.366-0.193,2.27c0.588-0.694,0.891-1.036,1.515-1.707c0.485,0.221,0.727,0.337,1.204,0.58
					c-1.144,0.996-1.688,1.516-2.721,2.593c-0.377,0.834-0.564,1.251-0.941,2.086c-0.389-0.176-0.584-0.259-0.979-0.417
					C64.699,62.72,64.869,62.294,65.209,61.445z"/>
			</g>
			<g>
				<path style="fill:#FFFFFF;" d="M41,59.219c0.485-0.247,0.729-0.365,1.223-0.589c0.789,1.204,1.173,1.812,1.916,3.042
					c-0.352-1.399-0.513-2.103-0.804-3.52c0.452-0.184,0.679-0.271,1.136-0.435c0.725,1.251,1.072,1.884,1.74,3.161
					c-0.266-1.411-0.387-2.121-0.601-3.544c0.498-0.157,0.749-0.23,1.252-0.365c0.166,2.366,0.293,3.542,0.629,5.875
					c-0.422,0.13-0.632,0.201-1.049,0.351c-0.655-1.227-0.996-1.835-1.703-3.038c0.277,1.367,0.431,2.048,0.763,3.399
					c-0.413,0.168-0.617,0.257-1.023,0.444C43.165,62.041,42.468,61.084,41,59.219z"/>
			</g>
			<g>
				<path style="fill:#FFFFFF;" d="M48.014,56.948c0.505-0.128,0.759-0.186,1.267-0.291c0.194,0.942,0.292,1.413,0.486,2.354
					c0.407-0.084,0.611-0.122,1.02-0.191c-0.159-0.948-0.238-1.423-0.398-2.371c0.512-0.086,0.767-0.123,1.282-0.187
					c0.285,2.304,0.428,3.456,0.714,5.76c-0.415,0.052-0.621,0.082-1.034,0.151c-0.162-0.962-0.242-1.442-0.403-2.404
					c-0.396,0.066-0.592,0.103-0.984,0.184c0.197,0.955,0.297,1.432,0.494,2.387c-0.411,0.085-0.615,0.132-1.022,0.234
					C48.866,60.324,48.582,59.198,48.014,56.948z"/>
			</g>
		</g>
		<g>
			<rect x="39" y="51" style="fill:#FFFFFF;" width="32" height="2"/>
		</g>
		<g>
			<polygon style="fill:#FFFFFF;" points="50.358,65.71 51.705,68.439 54.717,68.877 52.537,71.001 53.052,74 50.358,72.584 
				47.665,74 48.18,71.001 46,68.877 49.012,68.439 			"/>
		</g>
		<g>
			<polygon style="fill:#FFFFFF;" points="60.642,65.71 61.988,68.439 65,68.877 62.82,71.001 63.335,74 60.642,72.584 57.948,74 
				58.463,71.001 56.283,68.877 59.295,68.439 			"/>
		</g>
	</g>
</g>
<g id="Green" style="display:none;">
	<g style="display:inline;">
		<g>
			<path style="fill:#009687;" d="M66.992,44.328L60,39c1.133-3.399,0.576-6.798-0.434-10.198C59.403,28.917,59.215,29,59,29h-8
				c-0.248,0-0.469-0.1-0.643-0.25C49.35,31.847,49.007,35.318,50,39l-6.992,5.328C40.504,45.998,39,48.808,39,51.817V83
				c0,2.21,1.791,4,4,4h24c2.209,0,4-1.79,4-4V51.817C71,48.808,69.496,45.998,66.992,44.328z"/>
		</g>
		<g>
			<path style="fill:#00B8A5;" d="M64.771,42.636L60,39c1.133-3.399,0.576-6.798-0.434-10.198C59.403,28.917,59.215,29,59,29h-8
				c-0.248,0-0.469-0.1-0.643-0.25C49.35,31.847,49.007,35.318,50,39l-6.992,5.328C40.504,45.998,39,48.808,39,51.817v16.591
				L64.771,42.636z"/>
		</g>
		<g>
			<rect x="39" y="51" style="fill:#0A3631;" width="32" height="27"/>
		</g>
		<g>
			<path style="fill:#0A3631;" d="M60,24c0-0.552-0.447-1-1-1h-8c-0.553,0-1,0.448-1,1v4c0,0.552,0.447,1,1,1h8c0.553,0,1-0.448,1-1
				V24z"/>
		</g>
		<g>
			<rect x="39" y="78" style="fill:#FFFFFF;" width="32" height="2"/>
		</g>
		<g>
			<path style="fill:#14635B;" d="M55,23h-4c-0.553,0-1,0.448-1,1v4c0,0.552,0.447,1,1,1h4V23z"/>
		</g>
		<g>
			<path style="fill:#14635B;" d="M39.051,51C39.026,51.271,39,51.542,39,51.817v16.591L56.408,51H39.051z"/>
		</g>
		<g>
			<path style="fill:#14635B;" d="M39.051,51C39.026,51.271,39,51.542,39,51.817v16.591L56.408,51H39.051z"/>
		</g>
		<g>
			<g>
				<path style="fill:#FFFFFF;" d="M52.45,56.176c0.515-0.05,0.773-0.069,1.289-0.098c0.126,2.318,0.188,3.478,0.314,5.795
					c-0.417,0.023-0.625,0.039-1.04,0.08C52.788,59.642,52.676,58.486,52.45,56.176z"/>
			</g>
			<g>
				<path style="fill:#FFFFFF;" d="M54.551,61.653c-0.015-0.421-0.021-0.631-0.035-1.052c0.393,0.194,0.693,0.308,0.986,0.31
					c0.311,0.001,0.58-0.131,0.591-0.488c0-0.006,0-0.01,0.001-0.016c0.007-0.266-0.068-0.474-0.611-1.022
					c-0.776-0.783-1.143-1.134-1.17-1.838c0-0.006,0-0.01,0-0.016c-0.035-0.928,0.718-1.553,1.746-1.529
					c0.52,0.012,0.826,0.087,1.135,0.23c-0.026,0.42-0.039,0.631-0.064,1.051c-0.375-0.205-0.609-0.298-0.939-0.307
					c-0.349-0.01-0.647,0.171-0.649,0.487c0,0.006,0,0.01,0,0.016c-0.002,0.274,0.108,0.368,0.657,0.94
					c0.909,0.948,1.05,1.332,1.003,1.994c-0.001,0.007-0.001,0.01-0.002,0.016c-0.064,0.91-0.765,1.462-1.584,1.454
					C55.207,61.877,54.856,61.784,54.551,61.653z"/>
			</g>
			<g>
				<path style="fill:#FFFFFF;" d="M57.962,56.147c0.516,0.044,0.773,0.072,1.286,0.139c-0.125,0.964-0.188,1.445-0.313,2.409
					c0.509-0.913,0.779-1.365,1.354-2.254c0.579,0.096,0.867,0.151,1.441,0.276c-0.699,0.853-1.029,1.29-1.651,2.178
					c0.232,1.4,0.32,2.101,0.438,3.498c-0.457-0.1-0.687-0.144-1.146-0.221c-0.112-0.91-0.18-1.365-0.339-2.275
					c-0.136,0.239-0.202,0.358-0.333,0.599c-0.08,0.619-0.121,0.928-0.201,1.546c-0.415-0.054-0.622-0.076-1.038-0.113
					C57.661,59.616,57.762,58.459,57.962,56.147z"/>
			</g>
			<g>
				<path style="fill:#FFFFFF;" d="M62.185,56.819c1.113,0.259,1.665,0.416,2.755,0.783c-0.122,0.364-0.184,0.547-0.307,0.911
					c-0.574-0.193-0.864-0.282-1.445-0.445c-0.155,0.556-0.233,0.834-0.388,1.39c0.488,0.137,0.73,0.21,1.214,0.37
					c-0.12,0.366-0.181,0.548-0.301,0.914c-0.467-0.154-0.701-0.225-1.173-0.357c-0.158,0.568-0.238,0.853-0.396,1.421
					c0.514,0.144,0.77,0.223,1.277,0.394c-0.123,0.365-0.184,0.547-0.307,0.911c-0.89-0.3-1.34-0.428-2.247-0.639
					C61.395,60.21,61.659,59.08,62.185,56.819z"/>
			</g>
			<g>
				<path style="fill:#FFFFFF;" d="M65.209,61.445c0.062-1.49,0.062-2.242-0.005-3.753c0.512,0.177,0.766,0.272,1.271,0.473
					c-0.057,0.912-0.096,1.366-0.193,2.27c0.588-0.694,0.891-1.036,1.515-1.707c0.485,0.221,0.727,0.337,1.204,0.58
					c-1.144,0.996-1.688,1.516-2.721,2.593c-0.377,0.835-0.564,1.252-0.941,2.086c-0.389-0.176-0.584-0.259-0.979-0.417
					C64.699,62.72,64.869,62.294,65.209,61.445z"/>
			</g>
			<g>
				<path style="fill:#FFFFFF;" d="M41,59.219c0.485-0.247,0.729-0.365,1.223-0.589c0.789,1.204,1.173,1.812,1.916,3.042
					c-0.352-1.399-0.513-2.103-0.804-3.52c0.452-0.184,0.679-0.271,1.136-0.435c0.725,1.251,1.072,1.884,1.74,3.161
					c-0.266-1.411-0.387-2.121-0.601-3.544c0.498-0.157,0.749-0.23,1.252-0.365c0.166,2.366,0.293,3.542,0.629,5.875
					c-0.422,0.13-0.632,0.201-1.049,0.351c-0.655-1.227-0.996-1.835-1.703-3.038c0.277,1.367,0.431,2.048,0.763,3.399
					c-0.413,0.168-0.617,0.257-1.023,0.444C43.165,62.042,42.468,61.084,41,59.219z"/>
			</g>
			<g>
				<path style="fill:#FFFFFF;" d="M48.014,56.948c0.505-0.128,0.759-0.186,1.267-0.291c0.194,0.942,0.292,1.413,0.486,2.354
					c0.407-0.084,0.611-0.122,1.02-0.191c-0.159-0.948-0.238-1.423-0.398-2.371c0.512-0.086,0.767-0.123,1.282-0.187
					c0.285,2.304,0.428,3.456,0.714,5.76c-0.415,0.052-0.621,0.082-1.034,0.151c-0.162-0.962-0.242-1.442-0.403-2.404
					c-0.396,0.066-0.592,0.103-0.984,0.184c0.197,0.955,0.297,1.432,0.494,2.387c-0.411,0.085-0.615,0.132-1.022,0.234
					C48.866,60.324,48.582,59.198,48.014,56.948z"/>
			</g>
		</g>
		<g>
			<rect x="39" y="51" style="fill:#FFFFFF;" width="32" height="2"/>
		</g>
		<g>
			<polygon style="fill:#FFFFFF;" points="50.358,65.71 51.705,68.439 54.717,68.877 52.537,71.001 53.052,74 50.358,72.584 
				47.665,74 48.18,71.001 46,68.877 49.012,68.439 			"/>
		</g>
		<g>
			<polygon style="fill:#FFFFFF;" points="60.642,65.71 61.988,68.439 65,68.877 62.82,71.001 63.335,74 60.642,72.584 57.948,74 
				58.463,71.001 56.283,68.877 59.295,68.439 			"/>
		</g>
	</g>
</g>
<g id="R-Green" style="display:none;">
	<circle style="display:inline;fill:#77E0C4;" cx="55" cy="55" r="55"/>
	<g style="display:inline;">
		<g>
			<path style="fill:#009687;" d="M66.992,44.328L60,39c1.133-3.399,0.576-6.798-0.434-10.198C59.403,28.918,59.215,29,59,29h-8
				c-0.248,0-0.469-0.1-0.643-0.25C49.35,31.847,49.007,35.318,50,39l-6.992,5.328C40.504,45.998,39,48.808,39,51.817V83
				c0,2.21,1.791,4,4,4h24c2.209,0,4-1.79,4-4V51.817C71,48.808,69.496,45.998,66.992,44.328z"/>
		</g>
		<g>
			<path style="fill:#00B8A5;" d="M64.771,42.636L60,39c1.133-3.399,0.576-6.798-0.434-10.198C59.403,28.918,59.215,29,59,29h-8
				c-0.248,0-0.469-0.1-0.643-0.25C49.35,31.847,49.007,35.318,50,39l-6.992,5.328C40.504,45.998,39,48.808,39,51.817v16.591
				L64.771,42.636z"/>
		</g>
		<g>
			<rect x="39" y="51" style="fill:#0A3631;" width="32" height="27"/>
		</g>
		<g>
			<path style="fill:#0A3631;" d="M60,24c0-0.552-0.447-1-1-1h-8c-0.553,0-1,0.448-1,1v4c0,0.552,0.447,1,1,1h8c0.553,0,1-0.448,1-1
				V24z"/>
		</g>
		<g>
			<rect x="39" y="78" style="fill:#FFFFFF;" width="32" height="2"/>
		</g>
		<g>
			<path style="fill:#14635B;" d="M55,23h-4c-0.553,0-1,0.448-1,1v4c0,0.552,0.447,1,1,1h4V23z"/>
		</g>
		<g>
			<path style="fill:#14635B;" d="M39.051,51C39.026,51.271,39,51.542,39,51.817v16.591L56.408,51H39.051z"/>
		</g>
		<g>
			<path style="fill:#14635B;" d="M39.051,51C39.026,51.271,39,51.542,39,51.817v16.591L56.408,51H39.051z"/>
		</g>
		<g>
			<g>
				<path style="fill:#FFFFFF;" d="M52.45,56.176c0.515-0.05,0.772-0.069,1.289-0.098c0.126,2.318,0.188,3.478,0.314,5.795
					c-0.417,0.023-0.625,0.039-1.04,0.08C52.788,59.642,52.676,58.486,52.45,56.176z"/>
			</g>
			<g>
				<path style="fill:#FFFFFF;" d="M54.551,61.653c-0.015-0.421-0.021-0.631-0.035-1.052c0.393,0.194,0.693,0.308,0.986,0.31
					c0.311,0.001,0.58-0.131,0.591-0.488c0-0.006,0-0.01,0.001-0.016c0.007-0.266-0.068-0.474-0.611-1.022
					c-0.776-0.783-1.143-1.134-1.17-1.838c0-0.006,0-0.01,0-0.016c-0.035-0.928,0.718-1.553,1.746-1.529
					c0.519,0.012,0.826,0.087,1.135,0.23c-0.026,0.42-0.039,0.631-0.065,1.051c-0.375-0.205-0.609-0.298-0.938-0.307
					c-0.349-0.01-0.647,0.171-0.649,0.487c0,0.006,0,0.01,0,0.016c-0.002,0.274,0.108,0.368,0.657,0.94
					c0.909,0.948,1.05,1.332,1.003,1.994c-0.001,0.007-0.001,0.01-0.002,0.016c-0.064,0.91-0.765,1.462-1.584,1.454
					C55.207,61.877,54.856,61.784,54.551,61.653z"/>
			</g>
			<g>
				<path style="fill:#FFFFFF;" d="M57.962,56.147c0.516,0.044,0.773,0.072,1.286,0.139c-0.125,0.964-0.188,1.445-0.313,2.409
					c0.509-0.913,0.779-1.365,1.354-2.254c0.579,0.096,0.867,0.151,1.441,0.276c-0.699,0.853-1.029,1.29-1.651,2.178
					c0.232,1.4,0.32,2.101,0.439,3.498c-0.457-0.1-0.687-0.144-1.146-0.221c-0.112-0.91-0.18-1.365-0.339-2.275
					c-0.136,0.239-0.202,0.358-0.333,0.599c-0.08,0.619-0.121,0.928-0.201,1.546c-0.415-0.054-0.622-0.076-1.038-0.113
					C57.661,59.616,57.762,58.459,57.962,56.147z"/>
			</g>
			<g>
				<path style="fill:#FFFFFF;" d="M62.186,56.819c1.113,0.259,1.665,0.416,2.755,0.783c-0.122,0.364-0.184,0.547-0.307,0.911
					c-0.574-0.193-0.864-0.282-1.445-0.445c-0.155,0.556-0.233,0.834-0.388,1.39c0.488,0.137,0.73,0.21,1.214,0.37
					c-0.12,0.366-0.181,0.548-0.301,0.914c-0.467-0.154-0.701-0.225-1.173-0.357c-0.158,0.568-0.238,0.853-0.396,1.421
					c0.514,0.144,0.77,0.223,1.277,0.394c-0.123,0.365-0.184,0.547-0.307,0.911c-0.89-0.3-1.34-0.428-2.247-0.639
					C61.396,60.21,61.659,59.08,62.186,56.819z"/>
			</g>
			<g>
				<path style="fill:#FFFFFF;" d="M65.209,61.445c0.062-1.49,0.062-2.242-0.005-3.753c0.512,0.177,0.766,0.272,1.271,0.473
					c-0.057,0.912-0.096,1.366-0.193,2.27c0.588-0.694,0.891-1.036,1.515-1.707c0.485,0.221,0.727,0.337,1.204,0.58
					c-1.144,0.996-1.688,1.516-2.721,2.593c-0.377,0.834-0.564,1.251-0.941,2.086c-0.389-0.176-0.584-0.259-0.979-0.417
					C64.699,62.72,64.869,62.294,65.209,61.445z"/>
			</g>
			<g>
				<path style="fill:#FFFFFF;" d="M41,59.219c0.485-0.247,0.729-0.365,1.223-0.589c0.789,1.204,1.173,1.812,1.916,3.042
					c-0.352-1.399-0.513-2.103-0.804-3.52c0.452-0.184,0.679-0.271,1.136-0.435c0.725,1.251,1.072,1.884,1.74,3.161
					c-0.266-1.411-0.387-2.121-0.601-3.544c0.498-0.157,0.749-0.23,1.252-0.365c0.166,2.366,0.293,3.542,0.629,5.875
					c-0.422,0.13-0.632,0.201-1.049,0.351c-0.655-1.227-0.996-1.835-1.703-3.038c0.277,1.367,0.431,2.048,0.763,3.399
					c-0.413,0.168-0.617,0.257-1.023,0.444C43.165,62.042,42.468,61.084,41,59.219z"/>
			</g>
			<g>
				<path style="fill:#FFFFFF;" d="M48.014,56.948c0.505-0.128,0.759-0.186,1.268-0.291c0.194,0.942,0.292,1.413,0.486,2.354
					c0.407-0.084,0.611-0.122,1.02-0.191c-0.159-0.948-0.238-1.423-0.398-2.371c0.512-0.086,0.768-0.123,1.282-0.187
					c0.285,2.304,0.428,3.456,0.714,5.76c-0.415,0.052-0.621,0.082-1.034,0.151c-0.162-0.962-0.242-1.442-0.403-2.404
					c-0.396,0.066-0.592,0.103-0.984,0.184c0.197,0.955,0.297,1.432,0.494,2.387c-0.411,0.085-0.615,0.132-1.022,0.234
					C48.866,60.324,48.582,59.198,48.014,56.948z"/>
			</g>
		</g>
		<g>
			<rect x="39" y="51" style="fill:#FFFFFF;" width="32" height="2"/>
		</g>
		<g>
			<polygon style="fill:#FFFFFF;" points="50.358,65.71 51.705,68.439 54.717,68.877 52.537,71.001 53.052,74 50.358,72.584 
				47.665,74 48.18,71.001 46,68.877 49.012,68.439 			"/>
		</g>
		<g>
			<polygon style="fill:#FFFFFF;" points="60.642,65.71 61.988,68.439 65,68.877 62.82,71.001 63.335,74 60.642,72.584 57.948,74 
				58.463,71.001 56.283,68.877 59.295,68.439 			"/>
		</g>
	</g>
</g>
<g id="Red" style="display:none;">
	<g style="display:inline;">
		<g>
			<path style="fill:#C23023;" d="M66.992,44.328L60,39c1.133-3.399,0.576-6.798-0.434-10.198C59.403,28.918,59.215,29,59,29h-8
				c-0.248,0-0.469-0.1-0.643-0.249C49.35,31.847,49.007,35.318,50,39l-6.992,5.328C40.504,45.998,39,48.808,39,51.817V83
				c0,2.21,1.791,4,4,4h24c2.209,0,4-1.79,4-4V51.817C71,48.808,69.496,45.998,66.992,44.328z"/>
		</g>
		<g>
			<path style="fill:#E54B44;" d="M64.771,42.636L60,39c1.133-3.399,0.576-6.798-0.434-10.198C59.403,28.918,59.215,29,59,29h-8
				c-0.248,0-0.469-0.1-0.643-0.249C49.35,31.847,49.007,35.318,50,39l-6.992,5.328C40.504,45.998,39,48.808,39,51.817v16.591
				L64.771,42.636z"/>
		</g>
		<g>
			<rect x="39" y="51" style="fill:#4A1410;" width="32" height="27"/>
		</g>
		<g>
			<path style="fill:#4A1410;" d="M60,24c0-0.552-0.447-1-1-1h-8c-0.553,0-1,0.448-1,1v4c0,0.552,0.447,1,1,1h8c0.553,0,1-0.448,1-1
				V24z"/>
		</g>
		<g>
			<rect x="39" y="78" style="fill:#FFFFFF;" width="32" height="2"/>
		</g>
		<g>
			<path style="fill:#7D261E;" d="M55,23h-4c-0.553,0-1,0.448-1,1v4c0,0.552,0.447,1,1,1h4V23z"/>
		</g>
		<g>
			<path style="fill:#7D261E;" d="M39.051,51C39.026,51.271,39,51.542,39,51.817v16.591L56.408,51H39.051z"/>
		</g>
		<g>
			<path style="fill:#7D261E;" d="M39.051,51C39.026,51.271,39,51.542,39,51.817v16.591L56.408,51H39.051z"/>
		</g>
		<g>
			<g>
				<path style="fill:#FFFFFF;" d="M52.45,56.176c0.515-0.05,0.772-0.069,1.289-0.098c0.126,2.318,0.188,3.478,0.314,5.795
					c-0.417,0.023-0.625,0.039-1.04,0.08C52.788,59.642,52.676,58.486,52.45,56.176z"/>
			</g>
			<g>
				<path style="fill:#FFFFFF;" d="M54.551,61.653c-0.015-0.421-0.022-0.631-0.035-1.052c0.393,0.194,0.693,0.308,0.986,0.31
					c0.31,0.001,0.58-0.131,0.591-0.488c0-0.006,0-0.01,0.001-0.016c0.007-0.266-0.068-0.474-0.611-1.022
					c-0.776-0.783-1.143-1.134-1.17-1.838c0-0.006,0-0.01,0-0.016c-0.035-0.928,0.718-1.553,1.746-1.529
					c0.52,0.012,0.826,0.087,1.135,0.23c-0.026,0.42-0.039,0.631-0.064,1.051c-0.375-0.205-0.609-0.298-0.938-0.307
					c-0.349-0.01-0.647,0.171-0.649,0.487c0,0.006,0,0.01,0,0.016c-0.002,0.274,0.108,0.368,0.657,0.94
					c0.909,0.948,1.05,1.332,1.003,1.994c-0.001,0.007-0.001,0.01-0.002,0.016c-0.064,0.91-0.765,1.462-1.584,1.454
					C55.207,61.877,54.856,61.784,54.551,61.653z"/>
			</g>
			<g>
				<path style="fill:#FFFFFF;" d="M57.962,56.147c0.516,0.044,0.773,0.072,1.286,0.139c-0.125,0.964-0.188,1.445-0.313,2.409
					c0.509-0.913,0.779-1.365,1.353-2.254c0.579,0.096,0.867,0.151,1.441,0.276c-0.699,0.852-1.029,1.29-1.651,2.178
					c0.232,1.4,0.32,2.101,0.439,3.498c-0.457-0.1-0.687-0.144-1.146-0.221c-0.112-0.91-0.18-1.365-0.339-2.275
					c-0.136,0.239-0.202,0.358-0.333,0.599c-0.08,0.619-0.121,0.928-0.201,1.546c-0.415-0.054-0.622-0.076-1.038-0.113
					C57.661,59.616,57.762,58.46,57.962,56.147z"/>
			</g>
			<g>
				<path style="fill:#FFFFFF;" d="M62.185,56.819c1.113,0.259,1.665,0.416,2.755,0.783c-0.122,0.364-0.184,0.547-0.307,0.911
					c-0.574-0.193-0.864-0.282-1.445-0.445c-0.155,0.556-0.233,0.834-0.388,1.39c0.488,0.137,0.73,0.21,1.214,0.37
					c-0.12,0.366-0.181,0.548-0.301,0.914c-0.467-0.154-0.701-0.225-1.173-0.357c-0.158,0.568-0.238,0.853-0.397,1.421
					c0.514,0.144,0.77,0.223,1.277,0.394c-0.123,0.365-0.184,0.547-0.307,0.911c-0.89-0.3-1.34-0.428-2.247-0.639
					C61.396,60.21,61.659,59.08,62.185,56.819z"/>
			</g>
			<g>
				<path style="fill:#FFFFFF;" d="M65.209,61.445c0.062-1.49,0.062-2.242-0.005-3.753c0.512,0.177,0.766,0.272,1.27,0.473
					c-0.057,0.912-0.096,1.366-0.193,2.269c0.588-0.694,0.891-1.036,1.515-1.707c0.485,0.221,0.727,0.337,1.204,0.58
					c-1.144,0.996-1.688,1.516-2.721,2.593c-0.377,0.834-0.564,1.251-0.941,2.086c-0.389-0.176-0.584-0.259-0.978-0.417
					C64.699,62.72,64.869,62.294,65.209,61.445z"/>
			</g>
			<g>
				<path style="fill:#FFFFFF;" d="M41,59.219c0.485-0.247,0.729-0.365,1.223-0.589c0.789,1.204,1.173,1.812,1.916,3.042
					c-0.352-1.398-0.513-2.103-0.804-3.52c0.452-0.184,0.679-0.271,1.136-0.435c0.725,1.251,1.072,1.884,1.74,3.161
					c-0.266-1.411-0.387-2.121-0.601-3.544c0.498-0.157,0.749-0.23,1.252-0.365c0.166,2.366,0.293,3.543,0.629,5.876
					c-0.422,0.13-0.632,0.201-1.049,0.351c-0.655-1.227-0.996-1.835-1.703-3.038c0.277,1.367,0.431,2.048,0.763,3.399
					c-0.413,0.168-0.617,0.257-1.023,0.444C43.165,62.042,42.468,61.084,41,59.219z"/>
			</g>
			<g>
				<path style="fill:#FFFFFF;" d="M48.014,56.948c0.505-0.128,0.759-0.186,1.268-0.291c0.194,0.942,0.292,1.413,0.486,2.354
					c0.407-0.084,0.611-0.122,1.019-0.191c-0.159-0.948-0.238-1.423-0.398-2.371c0.512-0.086,0.768-0.123,1.282-0.187
					c0.285,2.304,0.428,3.456,0.714,5.76c-0.415,0.052-0.621,0.081-1.034,0.151c-0.162-0.962-0.242-1.442-0.403-2.404
					c-0.395,0.066-0.592,0.103-0.984,0.184c0.197,0.955,0.297,1.432,0.494,2.387c-0.411,0.085-0.615,0.132-1.022,0.234
					C48.866,60.324,48.582,59.198,48.014,56.948z"/>
			</g>
		</g>
		<g>
			<rect x="39" y="51" style="fill:#FFFFFF;" width="32" height="2"/>
		</g>
		<g>
			<polygon style="fill:#FFFFFF;" points="50.358,65.71 51.705,68.439 54.717,68.877 52.537,71.001 53.052,74 50.358,72.584 
				47.665,74 48.18,71.001 46,68.877 49.012,68.439 			"/>
		</g>
		<g>
			<polygon style="fill:#FFFFFF;" points="60.642,65.71 61.988,68.439 65,68.877 62.82,71.001 63.335,74 60.642,72.584 57.948,74 
				58.463,71.001 56.283,68.877 59.295,68.439 			"/>
		</g>
	</g>
</g>
<g id="R-Red" style="display:none;">
	<circle style="display:inline;fill:#FABBAF;" cx="55" cy="55" r="55"/>
	<g style="display:inline;">
		<g>
			<path style="fill:#C23023;" d="M66.992,44.328L60,39c1.133-3.399,0.576-6.798-0.434-10.198C59.403,28.918,59.215,29,59,29h-8
				c-0.248,0-0.469-0.1-0.643-0.249C49.35,31.847,49.007,35.318,50,39l-6.992,5.328C40.504,45.998,39,48.808,39,51.817V83
				c0,2.21,1.791,4,4,4h24c2.209,0,4-1.79,4-4V51.817C71,48.808,69.496,45.998,66.992,44.328z"/>
		</g>
		<g>
			<path style="fill:#E54B44;" d="M64.771,42.636L60,39c1.133-3.399,0.576-6.798-0.434-10.198C59.403,28.918,59.215,29,59,29h-8
				c-0.248,0-0.469-0.1-0.643-0.249C49.35,31.847,49.007,35.318,50,39l-6.992,5.328C40.504,45.998,39,48.808,39,51.817v16.591
				L64.771,42.636z"/>
		</g>
		<g>
			<rect x="39" y="51" style="fill:#4A1410;" width="32" height="27"/>
		</g>
		<g>
			<path style="fill:#4A1410;" d="M60,24c0-0.552-0.447-1-1-1h-8c-0.553,0-1,0.448-1,1v4c0,0.552,0.447,1,1,1h8c0.553,0,1-0.448,1-1
				V24z"/>
		</g>
		<g>
			<rect x="39" y="78" style="fill:#FFFFFF;" width="32" height="2"/>
		</g>
		<g>
			<path style="fill:#7D261E;" d="M55,23h-4c-0.553,0-1,0.448-1,1v4c0,0.552,0.447,1,1,1h4V23z"/>
		</g>
		<g>
			<path style="fill:#7D261E;" d="M39.051,51C39.026,51.271,39,51.542,39,51.817v16.591L56.408,51H39.051z"/>
		</g>
		<g>
			<path style="fill:#7D261E;" d="M39.051,51C39.026,51.271,39,51.542,39,51.817v16.591L56.408,51H39.051z"/>
		</g>
		<g>
			<g>
				<path style="fill:#FFFFFF;" d="M52.45,56.176c0.515-0.05,0.772-0.069,1.289-0.098c0.126,2.318,0.188,3.478,0.314,5.795
					c-0.417,0.023-0.625,0.039-1.04,0.08C52.788,59.642,52.676,58.486,52.45,56.176z"/>
			</g>
			<g>
				<path style="fill:#FFFFFF;" d="M54.551,61.653c-0.015-0.421-0.022-0.631-0.035-1.052c0.393,0.194,0.693,0.308,0.986,0.31
					c0.31,0.001,0.58-0.131,0.591-0.488c0-0.006,0-0.01,0.001-0.016c0.007-0.266-0.068-0.474-0.611-1.022
					c-0.776-0.783-1.143-1.134-1.17-1.838c0-0.006,0-0.01,0-0.016c-0.035-0.928,0.718-1.553,1.746-1.529
					c0.52,0.012,0.826,0.087,1.135,0.23c-0.026,0.42-0.039,0.631-0.064,1.051c-0.375-0.205-0.609-0.298-0.938-0.307
					c-0.349-0.01-0.647,0.171-0.649,0.487c0,0.006,0,0.01,0,0.016c-0.002,0.274,0.108,0.368,0.657,0.94
					c0.909,0.948,1.05,1.332,1.003,1.994c-0.001,0.007-0.001,0.01-0.002,0.016c-0.064,0.91-0.765,1.462-1.584,1.454
					C55.207,61.877,54.856,61.784,54.551,61.653z"/>
			</g>
			<g>
				<path style="fill:#FFFFFF;" d="M57.962,56.147c0.516,0.044,0.773,0.072,1.286,0.139c-0.125,0.964-0.188,1.445-0.313,2.409
					c0.509-0.913,0.779-1.365,1.353-2.254c0.579,0.096,0.867,0.151,1.441,0.276c-0.699,0.852-1.029,1.29-1.651,2.178
					c0.232,1.4,0.32,2.101,0.439,3.498c-0.457-0.1-0.687-0.144-1.146-0.221c-0.112-0.91-0.18-1.365-0.339-2.275
					c-0.136,0.239-0.202,0.358-0.333,0.599c-0.08,0.619-0.121,0.928-0.201,1.546c-0.415-0.054-0.622-0.076-1.038-0.113
					C57.661,59.616,57.762,58.46,57.962,56.147z"/>
			</g>
			<g>
				<path style="fill:#FFFFFF;" d="M62.185,56.819c1.113,0.259,1.665,0.416,2.755,0.783c-0.122,0.364-0.184,0.547-0.307,0.911
					c-0.574-0.193-0.864-0.282-1.445-0.445c-0.155,0.556-0.233,0.834-0.388,1.39c0.488,0.137,0.73,0.21,1.214,0.37
					c-0.12,0.366-0.181,0.548-0.301,0.914c-0.467-0.154-0.701-0.225-1.173-0.357c-0.158,0.568-0.238,0.853-0.397,1.421
					c0.514,0.144,0.77,0.223,1.277,0.394c-0.123,0.365-0.184,0.547-0.307,0.911c-0.89-0.3-1.34-0.428-2.247-0.639
					C61.396,60.21,61.659,59.08,62.185,56.819z"/>
			</g>
			<g>
				<path style="fill:#FFFFFF;" d="M65.209,61.445c0.062-1.49,0.062-2.242-0.005-3.753c0.512,0.177,0.766,0.272,1.27,0.473
					c-0.057,0.912-0.096,1.366-0.193,2.269c0.588-0.694,0.891-1.036,1.515-1.707c0.485,0.221,0.727,0.337,1.204,0.58
					c-1.144,0.996-1.688,1.516-2.721,2.593c-0.377,0.834-0.564,1.251-0.941,2.086c-0.389-0.176-0.584-0.259-0.978-0.417
					C64.699,62.72,64.869,62.294,65.209,61.445z"/>
			</g>
			<g>
				<path style="fill:#FFFFFF;" d="M41,59.219c0.485-0.247,0.729-0.365,1.223-0.589c0.789,1.204,1.173,1.812,1.916,3.042
					c-0.352-1.398-0.513-2.103-0.804-3.52c0.452-0.184,0.679-0.271,1.136-0.435c0.725,1.251,1.072,1.884,1.74,3.161
					c-0.266-1.411-0.387-2.121-0.601-3.544c0.498-0.157,0.749-0.23,1.252-0.365c0.166,2.366,0.293,3.543,0.629,5.876
					c-0.422,0.13-0.632,0.201-1.049,0.351c-0.655-1.227-0.996-1.835-1.703-3.038c0.277,1.367,0.431,2.048,0.763,3.399
					c-0.413,0.168-0.617,0.257-1.023,0.444C43.165,62.042,42.468,61.084,41,59.219z"/>
			</g>
			<g>
				<path style="fill:#FFFFFF;" d="M48.014,56.948c0.505-0.128,0.759-0.186,1.268-0.291c0.194,0.942,0.292,1.413,0.486,2.354
					c0.407-0.084,0.611-0.122,1.019-0.191c-0.159-0.948-0.238-1.423-0.398-2.371c0.512-0.086,0.768-0.123,1.282-0.187
					c0.285,2.304,0.428,3.456,0.714,5.76c-0.415,0.052-0.621,0.081-1.034,0.151c-0.162-0.962-0.242-1.442-0.403-2.404
					c-0.395,0.066-0.592,0.103-0.984,0.184c0.197,0.955,0.297,1.432,0.494,2.387c-0.411,0.085-0.615,0.132-1.022,0.234
					C48.866,60.324,48.582,59.198,48.014,56.948z"/>
			</g>
		</g>
		<g>
			<rect x="39" y="51" style="fill:#FFFFFF;" width="32" height="2"/>
		</g>
		<g>
			<polygon style="fill:#FFFFFF;" points="50.358,65.71 51.705,68.439 54.717,68.877 52.537,71.001 53.052,74 50.358,72.584 
				47.665,74 48.18,71.001 46,68.877 49.012,68.439 			"/>
		</g>
		<g>
			<polygon style="fill:#FFFFFF;" points="60.642,65.71 61.988,68.439 65,68.877 62.82,71.001 63.335,74 60.642,72.584 57.948,74 
				58.463,71.001 56.283,68.877 59.295,68.439 			"/>
		</g>
	</g>
</g>
<g id="Yellow" style="display:none;">
	<g style="display:inline;">
		<g>
			<path style="fill:#E07000;" d="M66.992,44.328L60,39c1.133-3.399,0.576-6.798-0.434-10.198C59.403,28.918,59.215,29,59,29h-8
				c-0.248,0-0.469-0.1-0.643-0.25C49.35,31.847,49.007,35.318,50,39l-6.992,5.328C40.504,45.998,39,48.808,39,51.817V83
				c0,2.21,1.791,4,4,4h24c2.209,0,4-1.79,4-4V51.817C71,48.808,69.496,45.998,66.992,44.328z"/>
		</g>
		<g>
			<path style="fill:#FA9200;" d="M64.771,42.636L60,39c1.133-3.399,0.576-6.798-0.434-10.198C59.403,28.918,59.215,29,59,29h-8
				c-0.248,0-0.469-0.1-0.643-0.25C49.35,31.847,49.007,35.318,50,39l-6.992,5.328C40.504,45.998,39,48.808,39,51.817v16.591
				L64.771,42.636z"/>
		</g>
		<g>
			<rect x="39" y="51" style="fill:#3D320C;" width="32" height="27"/>
		</g>
		<g>
			<path style="fill:#3D320C;" d="M60,24c0-0.552-0.447-1-1-1h-8c-0.553,0-1,0.448-1,1v4c0,0.552,0.447,1,1,1h8c0.553,0,1-0.448,1-1
				V24z"/>
		</g>
		<g>
			<rect x="39" y="78" style="fill:#FFFFFF;" width="32" height="2"/>
		</g>
		<g>
			<path style="fill:#66510D;" d="M55,23h-4c-0.553,0-1,0.448-1,1v4c0,0.552,0.447,1,1,1h4V23z"/>
		</g>
		<g>
			<path style="fill:#66510D;" d="M39.051,51C39.026,51.271,39,51.542,39,51.817v16.591L56.408,51H39.051z"/>
		</g>
		<g>
			<path style="fill:#66510D;" d="M39.051,51C39.026,51.271,39,51.542,39,51.817v16.591L56.408,51H39.051z"/>
		</g>
		<g>
			<g>
				<path style="fill:#FFFFFF;" d="M52.45,56.176c0.515-0.05,0.772-0.069,1.289-0.098c0.126,2.318,0.188,3.478,0.314,5.795
					c-0.417,0.023-0.625,0.039-1.04,0.08C52.788,59.642,52.676,58.486,52.45,56.176z"/>
			</g>
			<g>
				<path style="fill:#FFFFFF;" d="M54.551,61.653c-0.015-0.421-0.021-0.631-0.035-1.052c0.393,0.194,0.693,0.308,0.986,0.31
					c0.311,0.001,0.58-0.131,0.591-0.488c0-0.006,0-0.01,0.001-0.016c0.007-0.266-0.068-0.474-0.611-1.022
					c-0.776-0.783-1.143-1.134-1.17-1.838c0-0.006,0-0.01,0-0.016c-0.035-0.928,0.718-1.553,1.746-1.529
					c0.519,0.012,0.826,0.087,1.135,0.23c-0.026,0.42-0.039,0.631-0.065,1.051c-0.375-0.205-0.609-0.298-0.938-0.307
					c-0.349-0.01-0.647,0.171-0.649,0.487c0,0.006,0,0.01,0,0.016c-0.002,0.274,0.108,0.368,0.657,0.94
					c0.909,0.948,1.05,1.332,1.003,1.994c-0.001,0.007-0.001,0.01-0.002,0.016c-0.064,0.91-0.765,1.462-1.584,1.454
					C55.207,61.877,54.856,61.784,54.551,61.653z"/>
			</g>
			<g>
				<path style="fill:#FFFFFF;" d="M57.962,56.147c0.516,0.044,0.773,0.072,1.286,0.139c-0.125,0.964-0.188,1.445-0.313,2.409
					c0.509-0.913,0.779-1.365,1.354-2.254c0.579,0.096,0.867,0.151,1.441,0.276c-0.699,0.853-1.029,1.29-1.651,2.178
					c0.232,1.4,0.32,2.101,0.439,3.498c-0.457-0.1-0.687-0.144-1.146-0.221c-0.112-0.91-0.18-1.365-0.339-2.275
					c-0.136,0.239-0.202,0.358-0.333,0.599c-0.08,0.619-0.121,0.928-0.201,1.546c-0.415-0.054-0.622-0.076-1.038-0.113
					C57.661,59.616,57.762,58.459,57.962,56.147z"/>
			</g>
			<g>
				<path style="fill:#FFFFFF;" d="M62.186,56.819c1.113,0.259,1.665,0.416,2.755,0.783c-0.122,0.364-0.184,0.547-0.307,0.911
					c-0.574-0.193-0.864-0.282-1.445-0.445c-0.155,0.556-0.233,0.834-0.388,1.39c0.488,0.137,0.73,0.21,1.214,0.37
					c-0.12,0.366-0.181,0.548-0.301,0.914c-0.467-0.154-0.701-0.225-1.173-0.357c-0.158,0.568-0.238,0.853-0.396,1.421
					c0.514,0.144,0.77,0.223,1.277,0.394c-0.123,0.365-0.184,0.547-0.307,0.911c-0.89-0.3-1.34-0.428-2.247-0.639
					C61.396,60.21,61.659,59.08,62.186,56.819z"/>
			</g>
			<g>
				<path style="fill:#FFFFFF;" d="M65.209,61.445c0.062-1.49,0.062-2.242-0.005-3.753c0.512,0.177,0.766,0.272,1.271,0.473
					c-0.057,0.912-0.096,1.366-0.193,2.27c0.588-0.694,0.891-1.036,1.515-1.707c0.485,0.221,0.727,0.337,1.204,0.58
					c-1.144,0.996-1.688,1.516-2.721,2.593c-0.377,0.834-0.564,1.251-0.941,2.086c-0.389-0.176-0.584-0.259-0.979-0.417
					C64.699,62.72,64.869,62.294,65.209,61.445z"/>
			</g>
			<g>
				<path style="fill:#FFFFFF;" d="M41,59.219c0.485-0.247,0.729-0.365,1.223-0.589c0.789,1.204,1.173,1.812,1.916,3.042
					c-0.352-1.399-0.513-2.103-0.804-3.52c0.452-0.184,0.679-0.271,1.136-0.435c0.725,1.251,1.072,1.884,1.74,3.161
					c-0.266-1.411-0.387-2.121-0.601-3.544c0.498-0.157,0.749-0.23,1.252-0.365c0.166,2.366,0.293,3.542,0.629,5.875
					c-0.422,0.13-0.632,0.201-1.049,0.351c-0.655-1.227-0.996-1.835-1.703-3.038c0.277,1.367,0.431,2.048,0.763,3.399
					c-0.413,0.168-0.617,0.257-1.023,0.444C43.165,62.042,42.468,61.084,41,59.219z"/>
			</g>
			<g>
				<path style="fill:#FFFFFF;" d="M48.014,56.948c0.505-0.128,0.759-0.186,1.268-0.291c0.194,0.942,0.292,1.413,0.486,2.354
					c0.407-0.084,0.611-0.122,1.02-0.191c-0.159-0.948-0.238-1.423-0.398-2.371c0.512-0.086,0.768-0.123,1.282-0.187
					c0.285,2.304,0.428,3.456,0.714,5.76c-0.415,0.052-0.621,0.082-1.034,0.151c-0.162-0.962-0.242-1.442-0.403-2.404
					c-0.396,0.066-0.592,0.103-0.984,0.184c0.197,0.955,0.297,1.432,0.494,2.387c-0.411,0.085-0.615,0.132-1.022,0.234
					C48.866,60.324,48.582,59.198,48.014,56.948z"/>
			</g>
		</g>
		<g>
			<rect x="39" y="51" style="fill:#FFFFFF;" width="32" height="2"/>
		</g>
		<g>
			<polygon style="fill:#FFFFFF;" points="50.358,65.71 51.705,68.439 54.717,68.877 52.537,71.001 53.052,74 50.358,72.584 
				47.665,74 48.18,71.001 46,68.877 49.012,68.439 			"/>
		</g>
		<g>
			<polygon style="fill:#FFFFFF;" points="60.642,65.71 61.988,68.439 65,68.877 62.82,71.001 63.335,74 60.642,72.584 57.948,74 
				58.463,71.001 56.283,68.877 59.295,68.439 			"/>
		</g>
	</g>
</g>
<g id="R-Yellow" style="display:none;">
	<circle style="display:inline;fill:#FFD75E;" cx="55" cy="55" r="55"/>
	<g style="display:inline;">
		<g>
			<path style="fill:#E07000;" d="M66.992,44.328L60,39c1.133-3.399,0.576-6.798-0.434-10.198C59.403,28.918,59.215,29,59,29h-8
				c-0.248,0-0.469-0.1-0.643-0.25C49.35,31.847,49.007,35.318,50,39l-6.992,5.328C40.504,45.998,39,48.808,39,51.817V83
				c0,2.21,1.791,4,4,4h24c2.209,0,4-1.79,4-4V51.817C71,48.808,69.496,45.998,66.992,44.328z"/>
		</g>
		<g>
			<path style="fill:#FA9200;" d="M64.771,42.636L60,39c1.133-3.399,0.576-6.798-0.434-10.198C59.403,28.918,59.215,29,59,29h-8
				c-0.248,0-0.469-0.1-0.643-0.25C49.35,31.847,49.007,35.318,50,39l-6.992,5.328C40.504,45.998,39,48.808,39,51.817v16.591
				L64.771,42.636z"/>
		</g>
		<g>
			<rect x="39" y="51" style="fill:#3D320C;" width="32" height="27"/>
		</g>
		<g>
			<path style="fill:#3D320C;" d="M60,24c0-0.552-0.447-1-1-1h-8c-0.553,0-1,0.448-1,1v4c0,0.552,0.447,1,1,1h8c0.553,0,1-0.448,1-1
				V24z"/>
		</g>
		<g>
			<rect x="39" y="78" style="fill:#FFFFFF;" width="32" height="2"/>
		</g>
		<g>
			<path style="fill:#66510D;" d="M55,23h-4c-0.553,0-1,0.448-1,1v4c0,0.552,0.447,1,1,1h4V23z"/>
		</g>
		<g>
			<path style="fill:#66510D;" d="M39.051,51C39.026,51.271,39,51.542,39,51.817v16.591L56.408,51H39.051z"/>
		</g>
		<g>
			<path style="fill:#66510D;" d="M39.051,51C39.026,51.271,39,51.542,39,51.817v16.591L56.408,51H39.051z"/>
		</g>
		<g>
			<g>
				<path style="fill:#FFFFFF;" d="M52.45,56.176c0.515-0.05,0.773-0.069,1.289-0.098c0.126,2.318,0.188,3.478,0.314,5.795
					c-0.417,0.023-0.625,0.039-1.04,0.08C52.788,59.642,52.676,58.486,52.45,56.176z"/>
			</g>
			<g>
				<path style="fill:#FFFFFF;" d="M54.551,61.653c-0.015-0.421-0.021-0.631-0.035-1.052c0.393,0.194,0.693,0.308,0.986,0.31
					c0.311,0.001,0.58-0.131,0.591-0.488c0-0.006,0-0.01,0.001-0.016c0.007-0.266-0.068-0.474-0.611-1.022
					c-0.776-0.783-1.143-1.134-1.17-1.838c0-0.006,0-0.01,0-0.016c-0.035-0.928,0.718-1.553,1.746-1.529
					c0.52,0.012,0.826,0.087,1.135,0.23c-0.026,0.42-0.039,0.631-0.064,1.051c-0.375-0.205-0.609-0.298-0.939-0.307
					c-0.349-0.01-0.647,0.171-0.649,0.487c0,0.006,0,0.01,0,0.016c-0.002,0.274,0.108,0.368,0.657,0.94
					c0.909,0.948,1.05,1.332,1.003,1.994c-0.001,0.007-0.001,0.01-0.002,0.016c-0.064,0.91-0.765,1.462-1.584,1.454
					C55.207,61.877,54.856,61.784,54.551,61.653z"/>
			</g>
			<g>
				<path style="fill:#FFFFFF;" d="M57.962,56.147c0.516,0.044,0.773,0.072,1.286,0.139c-0.125,0.964-0.188,1.445-0.313,2.409
					c0.509-0.913,0.779-1.365,1.354-2.254c0.579,0.096,0.867,0.151,1.441,0.276c-0.699,0.853-1.029,1.29-1.651,2.178
					c0.232,1.4,0.32,2.101,0.438,3.498c-0.457-0.1-0.687-0.144-1.146-0.221c-0.112-0.91-0.18-1.365-0.339-2.275
					c-0.136,0.239-0.202,0.358-0.333,0.599c-0.08,0.619-0.121,0.928-0.201,1.546c-0.415-0.054-0.622-0.076-1.038-0.113
					C57.661,59.616,57.762,58.459,57.962,56.147z"/>
			</g>
			<g>
				<path style="fill:#FFFFFF;" d="M62.185,56.819c1.113,0.259,1.665,0.416,2.755,0.783c-0.122,0.364-0.184,0.547-0.307,0.911
					c-0.574-0.193-0.864-0.282-1.445-0.445c-0.155,0.556-0.233,0.834-0.388,1.39c0.488,0.137,0.73,0.21,1.214,0.37
					c-0.12,0.366-0.181,0.548-0.301,0.914c-0.467-0.154-0.701-0.225-1.173-0.357c-0.158,0.568-0.238,0.853-0.396,1.421
					c0.514,0.144,0.77,0.223,1.277,0.394c-0.123,0.365-0.184,0.547-0.307,0.911c-0.89-0.3-1.34-0.428-2.247-0.639
					C61.395,60.21,61.659,59.08,62.185,56.819z"/>
			</g>
			<g>
				<path style="fill:#FFFFFF;" d="M65.209,61.445c0.062-1.49,0.062-2.242-0.005-3.753c0.512,0.177,0.766,0.272,1.271,0.473
					c-0.057,0.912-0.096,1.366-0.193,2.27c0.588-0.694,0.891-1.036,1.515-1.707c0.485,0.221,0.727,0.337,1.204,0.58
					c-1.144,0.996-1.688,1.516-2.721,2.593c-0.377,0.834-0.564,1.251-0.941,2.086c-0.389-0.176-0.584-0.259-0.979-0.417
					C64.699,62.72,64.869,62.294,65.209,61.445z"/>
			</g>
			<g>
				<path style="fill:#FFFFFF;" d="M41,59.219c0.485-0.247,0.729-0.365,1.223-0.589c0.789,1.204,1.173,1.812,1.916,3.042
					c-0.352-1.399-0.513-2.103-0.804-3.52c0.452-0.184,0.679-0.271,1.136-0.435c0.725,1.251,1.072,1.884,1.74,3.161
					c-0.266-1.411-0.387-2.121-0.601-3.544c0.498-0.157,0.749-0.23,1.252-0.365c0.166,2.366,0.293,3.542,0.629,5.875
					c-0.422,0.13-0.632,0.201-1.049,0.351c-0.655-1.227-0.996-1.835-1.703-3.038c0.277,1.367,0.431,2.048,0.763,3.399
					c-0.413,0.168-0.617,0.257-1.023,0.444C43.165,62.042,42.468,61.084,41,59.219z"/>
			</g>
			<g>
				<path style="fill:#FFFFFF;" d="M48.014,56.948c0.505-0.128,0.759-0.186,1.267-0.291c0.194,0.942,0.292,1.413,0.486,2.354
					c0.407-0.084,0.611-0.122,1.02-0.191c-0.159-0.948-0.238-1.423-0.398-2.371c0.512-0.086,0.767-0.123,1.282-0.187
					c0.285,2.304,0.428,3.456,0.714,5.76c-0.415,0.052-0.621,0.082-1.034,0.151c-0.162-0.962-0.242-1.442-0.403-2.404
					c-0.396,0.066-0.592,0.103-0.984,0.184c0.197,0.955,0.297,1.432,0.494,2.387c-0.411,0.085-0.615,0.132-1.022,0.234
					C48.866,60.324,48.582,59.198,48.014,56.948z"/>
			</g>
		</g>
		<g>
			<rect x="39" y="51" style="fill:#FFFFFF;" width="32" height="2"/>
		</g>
		<g>
			<polygon style="fill:#FFFFFF;" points="50.358,65.71 51.705,68.439 54.717,68.877 52.537,71.001 53.052,74 50.358,72.584 
				47.665,74 48.18,71.001 46,68.877 49.012,68.439 			"/>
		</g>
		<g>
			<polygon style="fill:#FFFFFF;" points="60.642,65.71 61.988,68.439 65,68.877 62.82,71.001 63.335,74 60.642,72.584 57.948,74 
				58.463,71.001 56.283,68.877 59.295,68.439 			"/>
		</g>
	</g>
</g>
</svg>
