<?xml version="1.0" encoding="iso-8859-1"?>
<!-- Generator: Adobe Illustrator 17.1.0, SVG Export Plug-In . SVG Version: 6.00 Build 0)  -->
<!DOCTYPE svg PUBLIC "-//W3C//DTD SVG 1.0//EN" "http://www.w3.org/TR/2001/REC-SVG-20010904/DTD/svg10.dtd">
<svg version="1.0" xmlns="http://www.w3.org/2000/svg" xmlns:xlink="http://www.w3.org/1999/xlink" x="0px" y="0px" width="110px"
	 height="110px" viewBox="0 0 110 110" style="enable-background:new 0 0 110 110;" xml:space="preserve">
<g id="Artboard" style="display:none;">
	
		<rect x="-1224.5" y="-34.5" style="display:inline;fill:#808080;stroke:#000000;stroke-miterlimit:10;" width="1392" height="1369"/>
</g>
<g id="R-Multicolor">
	<circle style="fill:#32BEA6;" cx="55" cy="55" r="55"/>
	<g>
		<g>
			<path style="fill:#9CE5F4;" d="M62.101,58.846c0.366-2.927-0.912-5.828-3.319-7.531c-2.409-1.704-5.258-2.881-8.163-3.601
				c-1.782-0.442-3.037-2.042-3.037-3.878c0-1.31,0-2.956,0-4.836h-10v4.84c0,1.838-1.25,3.433-3.034,3.877
				c-2.921,0.727-5.762,1.896-8.164,3.594c-2.412,1.705-3.688,4.602-3.322,7.532c0.459,3.674,1.352,10.817,3.082,24.652
				c0.25,2,1.949,3.504,3.964,3.504H55.05c2.017,0,3.719-1.502,3.969-3.504L62.101,58.846z"/>
		</g>
		<g>
			<path style="fill:#F99134;" d="M27.812,61l2.292,18.371C30.292,80.873,31.568,82,33.081,82h19.646
				c1.513,0,2.789-1.127,2.977-2.628L58,61H27.812z"/>
		</g>
		<g>
			<path style="fill:#3E3E3F;" d="M35.812,27c0-1.105,0.895-2,2-2h10c1.105,0,2,0.895,2,2v10c0,1.105-0.895,2-2,2h-10
				c-1.105,0-2-0.895-2-2V27z"/>
		</g>
		<g>
			<path style="fill:#3E3E3F;" d="M32.582,57c8-6.667,12-6.667,20,0l-2,18c-5.333,2.667-10.667,2.667-16,0L32.582,57z"/>
		</g>
		<g>
			<polygon style="fill:#FACB1B;" points="46.892,58 47.723,59.684 49.582,59.954 48.237,61.265 48.554,63.117 46.892,62.243 
				45.229,63.117 45.547,61.265 44.202,59.954 46.06,59.684 			"/>
		</g>
		<g>
			<path style="fill:#9CE5F4;" d="M87,63v20c0,2.21-1.79,4-4,4H63c-2.21,0-4-1.79-4-4V63c0-2.21,1.79-4,4-4h20
				C85.21,59,87,60.79,87,63z"/>
		</g>
		<g>
			<path style="fill:#C9F2F8;" d="M73,59H63c-2.21,0-4,1.79-4,4v20c0,2.21,1.79,4,4,4h10V59z"/>
		</g>
		<g>
			
				<rect x="63.657" y="69.343" transform="matrix(0.7133 0.7008 -0.7008 0.7133 70.7951 -26.3904)" style="fill:#FFFFFF;" width="8" height="8"/>
		</g>
		<g>
			<path style="fill:#F99134;" d="M84.021,73H62v8c0,1.105,0.895,2,2,2h18.021c1.105,0,2-0.895,2-2V73z"/>
		</g>
		<g>
			<polygon style="fill:#FACB1B;" points="73.313,73.293 73.015,73 62.386,73 62,73.394 67.707,79 			"/>
		</g>
		<g>
			
				<rect x="73.716" y="67.284" transform="matrix(0.913 -0.4079 0.4079 0.913 -22.3181 37.9023)" style="fill:#FFFFFF;" width="8" height="8"/>
		</g>
		<g>
			<polygon style="fill:#FACB1B;" points="75.696,76.567 83,73.304 82.864,73 74.102,73 			"/>
		</g>
		<g>
			<polygon style="fill:#FBE158;" points="39.502,58 40.333,59.684 42.192,59.954 40.847,61.265 41.164,63.117 39.502,62.243 
				37.839,63.117 38.157,61.265 36.812,59.954 38.671,59.684 			"/>
		</g>
		<g>
			<path style="fill:#5B5C5F;" d="M43,25h-5.188c-1.105,0-2,0.896-2,2v10c0,1.104,0.895,2,2,2H43V25z"/>
		</g>
	</g>
</g>
<g id="Multicolor" style="display:none;">
	<g style="display:inline;">
		<g>
			<path style="fill:#9CE5F4;" d="M62.101,58.846c0.366-2.927-0.912-5.828-3.319-7.531c-2.409-1.704-5.258-2.881-8.163-3.601
				c-1.782-0.442-3.037-2.042-3.037-3.878c0-1.31,0-2.956,0-4.836h-10v4.84c0,1.838-1.25,3.433-3.034,3.877
				c-2.921,0.727-5.762,1.896-8.164,3.594c-2.412,1.705-3.688,4.602-3.322,7.532c0.459,3.674,1.352,10.817,3.082,24.652
				c0.25,2,1.949,3.504,3.964,3.504H55.05c2.017,0,3.719-1.502,3.969-3.504L62.101,58.846z"/>
		</g>
		<g>
			<path style="fill:#F99134;" d="M27.812,61l2.292,18.371C30.292,80.873,31.568,82,33.081,82h19.646
				c1.513,0,2.789-1.127,2.977-2.628L58,61H27.812z"/>
		</g>
		<g>
			<path style="fill:#3E3E3F;" d="M35.812,27c0-1.105,0.895-2,2-2h10c1.105,0,2,0.895,2,2v10c0,1.105-0.895,2-2,2h-10
				c-1.105,0-2-0.895-2-2V27z"/>
		</g>
		<g>
			<path style="fill:#3E3E3F;" d="M32.582,57c8-6.667,12-6.667,20,0l-2,18c-5.333,2.667-10.667,2.667-16,0L32.582,57z"/>
		</g>
		<g>
			<polygon style="fill:#FACB1B;" points="46.892,58 47.723,59.684 49.582,59.954 48.237,61.265 48.554,63.117 46.892,62.243 
				45.229,63.117 45.547,61.265 44.202,59.954 46.06,59.684 			"/>
		</g>
		<g>
			<path style="fill:#9CE5F4;" d="M87,63v20c0,2.21-1.79,4-4,4H63c-2.21,0-4-1.79-4-4V63c0-2.21,1.79-4,4-4h20
				C85.21,59,87,60.79,87,63z"/>
		</g>
		<g>
			<path style="fill:#C9F2F8;" d="M73,59H63c-2.21,0-4,1.79-4,4v20c0,2.21,1.79,4,4,4h10V59z"/>
		</g>
		<g>
			
				<rect x="63.657" y="69.343" transform="matrix(0.7133 0.7008 -0.7008 0.7133 70.7951 -26.3904)" style="fill:#FFFFFF;" width="8" height="8"/>
		</g>
		<g>
			<path style="fill:#F99134;" d="M84.021,73H62v8c0,1.105,0.895,2,2,2h18.021c1.105,0,2-0.895,2-2V73z"/>
		</g>
		<g>
			<polygon style="fill:#FACB1B;" points="73.313,73.293 73.015,73 62.386,73 62,73.394 67.707,79 			"/>
		</g>
		<g>
			
				<rect x="73.716" y="67.284" transform="matrix(0.913 -0.4079 0.4079 0.913 -22.3181 37.9023)" style="fill:#FFFFFF;" width="8" height="8"/>
		</g>
		<g>
			<polygon style="fill:#FACB1B;" points="75.696,76.567 83,73.304 82.864,73 74.102,73 			"/>
		</g>
		<g>
			<polygon style="fill:#FBE158;" points="39.502,58 40.333,59.684 42.192,59.954 40.847,61.265 41.164,63.117 39.502,62.243 
				37.839,63.117 38.157,61.265 36.812,59.954 38.671,59.684 			"/>
		</g>
		<g>
			<path style="fill:#5B5C5F;" d="M43,25h-5.188c-1.105,0-2,0.896-2,2v10c0,1.104,0.895,2,2,2H43V25z"/>
		</g>
	</g>
</g>
<g id="Blue" style="display:none;">
	<g style="display:inline;">
		<g>
			<path style="fill:#BBE7F2;" d="M62.101,58.846c0.366-2.926-0.911-5.827-3.319-7.53c-2.409-1.704-5.258-2.881-8.162-3.601
				c-1.782-0.441-3.037-2.042-3.037-3.878c0-1.309,0-2.955,0-4.836h-10v4.84c0,1.838-1.251,3.433-3.034,3.877
				c-2.921,0.727-5.762,1.896-8.164,3.594c-2.412,1.705-3.688,4.603-3.322,7.533c0.46,3.674,1.353,10.817,3.082,24.652
				c0.25,2,1.948,3.504,3.964,3.504h24.943c2.017,0,3.719-1.502,3.969-3.504L62.101,58.846z"/>
		</g>
		<g>
			<path style="fill:#00B7E5;" d="M27.812,61l2.292,18.372C30.291,80.873,31.568,82,33.081,82h19.646
				c1.514,0,2.789-1.127,2.977-2.628L58,61H27.812z"/>
		</g>
		<g>
			<path style="fill:#0C333D;" d="M35.812,27c0-1.104,0.895-2,2-2h10c1.104,0,2,0.896,2,2v10c0,1.105-0.896,2-2,2h-10
				c-1.105,0-2-0.895-2-2V27z"/>
		</g>
		<g>
			<path style="fill:#0C333D;" d="M32.582,57c8-6.667,12-6.667,20,0l-2,18c-5.334,2.667-10.667,2.667-16,0L32.582,57z"/>
		</g>
		<g>
			<polygon style="fill:#FFFFFF;" points="46.892,58 47.723,59.685 49.582,59.955 48.236,61.266 48.554,63.117 46.892,62.243 
				45.229,63.117 45.547,61.266 44.201,59.955 46.061,59.685 			"/>
		</g>
		<g>
			<path style="fill:#BBE7F2;" d="M87,63v20c0,2.21-1.79,4-4,4H63c-2.21,0-4-1.79-4-4V63c0-2.21,1.79-4,4-4h20
				C85.21,59,87,60.79,87,63z"/>
		</g>
		<g>
			<path style="fill:#E1F5FA;" d="M73,59H63c-2.21,0-4,1.79-4,4v20c0,2.21,1.79,4,4,4h10V59z"/>
		</g>
		<g>
			
				<rect x="63.657" y="69.344" transform="matrix(0.7134 0.7008 -0.7008 0.7134 70.7912 -26.3905)" style="fill:#FFFFFF;" width="8" height="8"/>
		</g>
		<g>
			<path style="fill:#009FC7;" d="M84.021,73H62v8c0,1.105,0.896,2,2,2h18.021c1.104,0,2-0.895,2-2V73z"/>
		</g>
		<g>
			<polygon style="fill:#00B7E5;" points="73.313,73.294 73.015,73 62.387,73 62,73.394 67.707,79 			"/>
		</g>
		<g>
			
				<rect x="73.716" y="67.284" transform="matrix(0.913 -0.4079 0.4079 0.913 -22.3185 37.9035)" style="fill:#FFFFFF;" width="8.001" height="8"/>
		</g>
		<g>
			<polygon style="fill:#00B7E5;" points="75.695,76.567 83,73.304 82.864,73 74.102,73 			"/>
		</g>
		<g>
			<polygon style="fill:#FFFFFF;" points="39.502,58 40.333,59.685 42.191,59.955 40.847,61.266 41.164,63.117 39.502,62.243 
				37.84,63.117 38.157,61.266 36.812,59.955 38.671,59.685 			"/>
		</g>
		<g>
			<path style="fill:#0F6175;" d="M43,25h-5.188c-1.104,0-2,0.896-2,2v10c0,1.104,0.896,2,2,2H43V25z"/>
		</g>
	</g>
</g>
<g id="R-Blue" style="display:none;">
	<circle style="display:inline;fill:#81D2EB;" cx="55" cy="55" r="55"/>
	<g style="display:inline;">
		<g>
			<path style="fill:#BBE7F2;" d="M62.101,58.846c0.366-2.926-0.911-5.827-3.319-7.53c-2.409-1.704-5.258-2.881-8.162-3.601
				c-1.782-0.441-3.037-2.042-3.037-3.878c0-1.309,0-2.955,0-4.836h-10v4.84c0,1.838-1.251,3.433-3.034,3.877
				c-2.921,0.727-5.762,1.896-8.164,3.594c-2.412,1.705-3.688,4.603-3.322,7.533c0.46,3.674,1.353,10.816,3.082,24.652
				c0.25,2,1.948,3.504,3.964,3.504h24.943c2.017,0,3.719-1.502,3.969-3.504L62.101,58.846z"/>
		</g>
		<g>
			<path style="fill:#00B7E5;" d="M27.812,61l2.292,18.372C30.291,80.873,31.568,82,33.081,82h19.646
				c1.514,0,2.789-1.127,2.977-2.628L58,61H27.812z"/>
		</g>
		<g>
			<path style="fill:#0C333D;" d="M35.812,27c0-1.104,0.895-2,2-2h10c1.104,0,2,0.896,2,2v10c0,1.105-0.896,2-2,2h-10
				c-1.105,0-2-0.895-2-2V27z"/>
		</g>
		<g>
			<path style="fill:#0C333D;" d="M32.582,57c8-6.667,12-6.667,20,0l-2,18c-5.334,2.667-10.667,2.667-16,0L32.582,57z"/>
		</g>
		<g>
			<polygon style="fill:#FFFFFF;" points="46.892,58 47.723,59.685 49.582,59.955 48.236,61.266 48.554,63.117 46.892,62.243 
				45.229,63.117 45.547,61.266 44.201,59.955 46.061,59.685 			"/>
		</g>
		<g>
			<path style="fill:#BBE7F2;" d="M87,63v20c0,2.21-1.79,4-4,4H63c-2.21,0-4-1.79-4-4V63c0-2.21,1.79-4,4-4h20
				C85.21,59,87,60.79,87,63z"/>
		</g>
		<g>
			<path style="fill:#E1F5FA;" d="M73,59H63c-2.21,0-4,1.79-4,4v20c0,2.21,1.79,4,4,4h10V59z"/>
		</g>
		<g>
			
				<rect x="63.657" y="69.344" transform="matrix(0.7134 0.7008 -0.7008 0.7134 70.7912 -26.3905)" style="fill:#FFFFFF;" width="8" height="8"/>
		</g>
		<g>
			<path style="fill:#009FC7;" d="M84.021,73H62v8c0,1.105,0.896,2,2,2h18.021c1.104,0,2-0.895,2-2V73z"/>
		</g>
		<g>
			<polygon style="fill:#00B7E5;" points="73.313,73.293 73.015,73 62.387,73 62,73.394 67.707,79 			"/>
		</g>
		<g>
			
				<rect x="73.716" y="67.284" transform="matrix(0.913 -0.4079 0.4079 0.913 -22.3185 37.9035)" style="fill:#FFFFFF;" width="8.001" height="8"/>
		</g>
		<g>
			<polygon style="fill:#00B7E5;" points="75.695,76.567 83,73.304 82.864,73 74.102,73 			"/>
		</g>
		<g>
			<polygon style="fill:#FFFFFF;" points="39.502,58 40.333,59.685 42.191,59.955 40.847,61.266 41.164,63.117 39.502,62.243 
				37.84,63.117 38.157,61.266 36.812,59.955 38.671,59.685 			"/>
		</g>
		<g>
			<path style="fill:#0F6175;" d="M43,25h-5.188c-1.104,0-2,0.896-2,2v10c0,1.104,0.896,2,2,2H43V25z"/>
		</g>
	</g>
</g>
<g id="Green" style="display:none;">
	<g style="display:inline;">
		<g>
			<path style="fill:#AAF0E9;" d="M62.101,58.846c0.366-2.926-0.911-5.827-3.319-7.53c-2.409-1.704-5.258-2.881-8.162-3.601
				c-1.782-0.441-3.037-2.042-3.037-3.878c0-1.309,0-2.955,0-4.836h-10v4.84c0,1.838-1.251,3.433-3.034,3.877
				c-2.921,0.727-5.762,1.896-8.164,3.594c-2.412,1.705-3.688,4.603-3.322,7.533c0.46,3.674,1.353,10.817,3.082,24.652
				c0.25,2,1.948,3.504,3.964,3.504h24.943c2.017,0,3.719-1.502,3.969-3.504L62.101,58.846z"/>
		</g>
		<g>
			<path style="fill:#00D6C1;" d="M27.812,61l2.292,18.372C30.291,80.873,31.568,82,33.081,82h19.646
				c1.514,0,2.789-1.127,2.977-2.628L58,61H27.812z"/>
		</g>
		<g>
			<path style="fill:#0A3631;" d="M35.812,27c0-1.104,0.895-2,2-2h10c1.104,0,2,0.896,2,2v10c0,1.105-0.896,2-2,2h-10
				c-1.105,0-2-0.895-2-2V27z"/>
		</g>
		<g>
			<path style="fill:#0A3631;" d="M32.582,57c8-6.667,12-6.667,20,0l-2,18c-5.334,2.667-10.667,2.667-16,0L32.582,57z"/>
		</g>
		<g>
			<polygon style="fill:#FFFFFF;" points="46.892,58 47.723,59.685 49.582,59.955 48.236,61.266 48.554,63.117 46.892,62.243 
				45.228,63.117 45.547,61.266 44.201,59.955 46.06,59.685 			"/>
		</g>
		<g>
			<path style="fill:#AAF0E9;" d="M87,63v20c0,2.21-1.79,4-4,4H63c-2.21,0-4-1.79-4-4V63c0-2.21,1.79-4,4-4h20
				C85.21,59,87,60.79,87,63z"/>
		</g>
		<g>
			<path style="fill:#D7FCF9;" d="M73,59H63c-2.21,0-4,1.79-4,4v20c0,2.21,1.79,4,4,4h10V59z"/>
		</g>
		<g>
			
				<rect x="63.657" y="69.344" transform="matrix(0.7134 0.7008 -0.7008 0.7134 70.7912 -26.3905)" style="fill:#FFFFFF;" width="8" height="8"/>
		</g>
		<g>
			<path style="fill:#00B8A5;" d="M84.021,73H62v8c0,1.105,0.896,2,2,2h18.022c1.104,0,2-0.895,2-2V73z"/>
		</g>
		<g>
			<polygon style="fill:#00D6C1;" points="73.313,73.294 73.015,73 62.387,73 62,73.394 67.707,79 			"/>
		</g>
		<g>
			
				<rect x="73.716" y="67.284" transform="matrix(0.913 -0.4079 0.4079 0.913 -22.3185 37.9035)" style="fill:#FFFFFF;" width="8.001" height="8"/>
		</g>
		<g>
			<polygon style="fill:#00D6C1;" points="75.695,76.567 83,73.304 82.864,73 74.102,73 			"/>
		</g>
		<g>
			<polygon style="fill:#FFFFFF;" points="39.502,58 40.333,59.685 42.191,59.955 40.847,61.266 41.164,63.117 39.502,62.243 
				37.84,63.117 38.157,61.266 36.812,59.955 38.671,59.685 			"/>
		</g>
		<g>
			<path style="fill:#14635B;" d="M43,25h-5.188c-1.104,0-2,0.896-2,2v10c0,1.104,0.896,2,2,2H43V25z"/>
		</g>
	</g>
</g>
<g id="R-Green" style="display:none;">
	<circle style="display:inline;fill:#77E0C4;" cx="55" cy="55" r="55"/>
	<g style="display:inline;">
		<g>
			<path style="fill:#AAF0E9;" d="M62.101,58.846c0.366-2.926-0.911-5.827-3.319-7.53c-2.409-1.704-5.258-2.881-8.162-3.601
				c-1.782-0.441-3.037-2.042-3.037-3.878c0-1.309,0-2.955,0-4.836h-10v4.84c0,1.838-1.251,3.433-3.034,3.877
				c-2.921,0.727-5.762,1.896-8.164,3.594c-2.412,1.705-3.689,4.603-3.322,7.533c0.46,3.674,1.353,10.817,3.082,24.652
				c0.25,2,1.948,3.504,3.964,3.504h24.943c2.017,0,3.719-1.502,3.969-3.504L62.101,58.846z"/>
		</g>
		<g>
			<path style="fill:#00D6C1;" d="M27.812,61l2.292,18.372C30.291,80.873,31.568,82,33.081,82h19.646
				c1.514,0,2.789-1.127,2.976-2.628L58,61H27.812z"/>
		</g>
		<g>
			<path style="fill:#0A3631;" d="M35.812,27c0-1.104,0.895-2,2-2h10c1.104,0,2,0.896,2,2v10c0,1.105-0.896,2-2,2h-10
				c-1.105,0-2-0.895-2-2V27z"/>
		</g>
		<g>
			<path style="fill:#0A3631;" d="M32.582,57c8-6.667,12-6.667,20,0l-2,18c-5.334,2.667-10.667,2.667-16,0L32.582,57z"/>
		</g>
		<g>
			<polygon style="fill:#FFFFFF;" points="46.892,58 47.723,59.685 49.582,59.955 48.236,61.266 48.554,63.117 46.892,62.243 
				45.229,63.117 45.547,61.266 44.201,59.955 46.061,59.685 			"/>
		</g>
		<g>
			<path style="fill:#AAF0E9;" d="M87,63v20c0,2.21-1.79,4-4,4H63c-2.21,0-4-1.79-4-4V63c0-2.21,1.79-4,4-4h20
				C85.21,59,87,60.79,87,63z"/>
		</g>
		<g>
			<path style="fill:#D7FCF9;" d="M73,59H63c-2.21,0-4,1.79-4,4v20c0,2.21,1.79,4,4,4h10V59z"/>
		</g>
		<g>
			
				<rect x="63.657" y="69.344" transform="matrix(0.7134 0.7008 -0.7008 0.7134 70.7912 -26.3905)" style="fill:#FFFFFF;" width="8" height="8"/>
		</g>
		<g>
			<path style="fill:#00B8A5;" d="M84.021,73H62v8c0,1.105,0.896,2,2,2h18.021c1.104,0,2-0.895,2-2V73z"/>
		</g>
		<g>
			<polygon style="fill:#00D6C1;" points="73.313,73.294 73.015,73 62.387,73 62,73.394 67.707,79 			"/>
		</g>
		<g>
			
				<rect x="73.716" y="67.284" transform="matrix(0.913 -0.4079 0.4079 0.913 -22.3185 37.9035)" style="fill:#FFFFFF;" width="8.001" height="8"/>
		</g>
		<g>
			<polygon style="fill:#00D6C1;" points="75.695,76.567 83,73.304 82.864,73 74.102,73 			"/>
		</g>
		<g>
			<polygon style="fill:#FFFFFF;" points="39.502,58 40.333,59.685 42.191,59.955 40.847,61.266 41.164,63.117 39.502,62.243 
				37.84,63.117 38.157,61.266 36.812,59.955 38.671,59.685 			"/>
		</g>
		<g>
			<path style="fill:#14635B;" d="M43,25h-5.188c-1.104,0-2,0.896-2,2v10c0,1.104,0.896,2,2,2H43V25z"/>
		</g>
	</g>
</g>
<g id="Red" style="display:none;">
	<g style="display:inline;">
		<g>
			<path style="fill:#FFD7D4;" d="M62.101,58.846c0.366-2.926-0.911-5.827-3.319-7.53c-2.409-1.704-5.258-2.881-8.162-3.601
				c-1.782-0.441-3.037-2.042-3.037-3.878c0-1.309,0-2.955,0-4.836h-10v4.84c0,1.838-1.251,3.433-3.034,3.877
				c-2.921,0.727-5.762,1.896-8.164,3.594c-2.412,1.705-3.688,4.603-3.322,7.533c0.46,3.674,1.353,10.817,3.082,24.652
				c0.25,2,1.948,3.504,3.964,3.504h24.943c2.017,0,3.719-1.502,3.969-3.504L62.101,58.846z"/>
		</g>
		<g>
			<path style="fill:#FF6C5E;" d="M27.812,61l2.292,18.372C30.291,80.873,31.568,82,33.081,82h19.646
				c1.514,0,2.789-1.126,2.976-2.628L58,61H27.812z"/>
		</g>
		<g>
			<path style="fill:#4A1410;" d="M35.812,27c0-1.104,0.895-2,2-2h10c1.104,0,2,0.896,2,2v10c0,1.105-0.896,2-2,2h-10
				c-1.105,0-2-0.895-2-2V27z"/>
		</g>
		<g>
			<path style="fill:#4A1410;" d="M32.582,57c8-6.666,12-6.666,20,0l-2,18c-5.334,2.667-10.667,2.667-16,0L32.582,57z"/>
		</g>
		<g>
			<polygon style="fill:#FFFFFF;" points="46.892,58 47.723,59.685 49.582,59.955 48.236,61.266 48.554,63.117 46.892,62.243 
				45.229,63.117 45.547,61.266 44.201,59.955 46.061,59.685 			"/>
		</g>
		<g>
			<path style="fill:#FFD7D4;" d="M87,63v20c0,2.21-1.79,4-4,4H63c-2.21,0-4-1.79-4-4V63c0-2.21,1.79-4,4-4h20
				C85.21,59,87,60.79,87,63z"/>
		</g>
		<g>
			<path style="fill:#FFEFED;" d="M73,59H63c-2.21,0-4,1.79-4,4v20c0,2.21,1.79,4,4,4h10V59z"/>
		</g>
		<g>
			
				<rect x="63.657" y="69.344" transform="matrix(0.7134 0.7008 -0.7008 0.7134 70.7912 -26.3905)" style="fill:#FFFFFF;" width="8" height="8"/>
		</g>
		<g>
			<path style="fill:#E54B44;" d="M84.021,73H62v8c0,1.105,0.896,2,2,2h18.021c1.104,0,2-0.895,2-2V73z"/>
		</g>
		<g>
			<polygon style="fill:#FF6C5E;" points="73.313,73.294 73.015,73 62.387,73 62,73.394 67.707,79 			"/>
		</g>
		<g>
			
				<rect x="73.716" y="67.284" transform="matrix(0.913 -0.4079 0.4079 0.913 -22.3186 37.9035)" style="fill:#FFFFFF;" width="8.001" height="8"/>
		</g>
		<g>
			<polygon style="fill:#FF6C5E;" points="75.695,76.567 83,73.304 82.864,73 74.102,73 			"/>
		</g>
		<g>
			<polygon style="fill:#FFFFFF;" points="39.502,58 40.333,59.685 42.191,59.955 40.847,61.266 41.164,63.117 39.502,62.243 
				37.84,63.117 38.157,61.266 36.812,59.955 38.671,59.685 			"/>
		</g>
		<g>
			<path style="fill:#7D261E;" d="M43,25h-5.188c-1.104,0-2,0.896-2,2v10c0,1.104,0.896,2,2,2H43V25z"/>
		</g>
	</g>
</g>
<g id="R-Red" style="display:none;">
	<circle style="display:inline;fill:#FABBAF;" cx="55" cy="55" r="55"/>
	<g style="display:inline;">
		<g>
			<path style="fill:#FFD7D4;" d="M62.101,58.846c0.366-2.926-0.911-5.827-3.319-7.53c-2.409-1.704-5.258-2.881-8.162-3.601
				c-1.782-0.441-3.037-2.042-3.037-3.878c0-1.309,0-2.955,0-4.836h-10v4.84c0,1.838-1.251,3.433-3.034,3.877
				c-2.921,0.727-5.762,1.896-8.164,3.594c-2.412,1.705-3.688,4.603-3.322,7.533c0.46,3.674,1.353,10.817,3.082,24.652
				c0.25,2,1.948,3.504,3.964,3.504h24.943c2.017,0,3.719-1.502,3.969-3.504L62.101,58.846z"/>
		</g>
		<g>
			<path style="fill:#FF6C5E;" d="M27.812,61l2.292,18.372C30.291,80.873,31.568,82,33.081,82h19.646
				c1.514,0,2.789-1.126,2.976-2.628L58,61H27.812z"/>
		</g>
		<g>
			<path style="fill:#4A1410;" d="M35.812,27c0-1.104,0.895-2,2-2h10c1.104,0,2,0.896,2,2v10c0,1.105-0.896,2-2,2h-10
				c-1.105,0-2-0.895-2-2V27z"/>
		</g>
		<g>
			<path style="fill:#4A1410;" d="M32.582,57c8-6.666,12-6.666,20,0l-2,18c-5.334,2.667-10.667,2.667-16,0L32.582,57z"/>
		</g>
		<g>
			<polygon style="fill:#FFFFFF;" points="46.892,58 47.723,59.685 49.582,59.955 48.236,61.266 48.554,63.117 46.892,62.243 
				45.229,63.117 45.547,61.266 44.201,59.955 46.061,59.685 			"/>
		</g>
		<g>
			<path style="fill:#FFD7D4;" d="M87,63v20c0,2.21-1.79,4-4,4H63c-2.21,0-4-1.79-4-4V63c0-2.21,1.79-4,4-4h20
				C85.21,59,87,60.79,87,63z"/>
		</g>
		<g>
			<path style="fill:#FFEFED;" d="M73,59H63c-2.21,0-4,1.79-4,4v20c0,2.21,1.79,4,4,4h10V59z"/>
		</g>
		<g>
			
				<rect x="63.657" y="69.344" transform="matrix(0.7134 0.7008 -0.7008 0.7134 70.7912 -26.3905)" style="fill:#FFFFFF;" width="8" height="8"/>
		</g>
		<g>
			<path style="fill:#E54B44;" d="M84.021,73H62v8c0,1.105,0.896,2,2,2h18.021c1.104,0,2-0.895,2-2V73z"/>
		</g>
		<g>
			<polygon style="fill:#FF6C5E;" points="73.313,73.294 73.015,73 62.387,73 62,73.394 67.707,79 			"/>
		</g>
		<g>
			
				<rect x="73.716" y="67.284" transform="matrix(0.913 -0.4079 0.4079 0.913 -22.3186 37.9035)" style="fill:#FFFFFF;" width="8.001" height="8"/>
		</g>
		<g>
			<polygon style="fill:#FF6C5E;" points="75.695,76.567 83,73.304 82.864,73 74.102,73 			"/>
		</g>
		<g>
			<polygon style="fill:#FFFFFF;" points="39.502,58 40.333,59.685 42.191,59.955 40.847,61.266 41.164,63.117 39.502,62.243 
				37.84,63.117 38.157,61.266 36.812,59.955 38.671,59.685 			"/>
		</g>
		<g>
			<path style="fill:#7D261E;" d="M43,25h-5.188c-1.104,0-2,0.896-2,2v10c0,1.104,0.896,2,2,2H43V25z"/>
		</g>
	</g>
</g>
<g id="Yellow" style="display:none;">
	<g style="display:inline;">
		<g>
			<path style="fill:#FFE9A1;" d="M62.101,58.846c0.366-2.926-0.911-5.827-3.319-7.53c-2.409-1.704-5.258-2.881-8.162-3.601
				c-1.782-0.441-3.037-2.042-3.037-3.878c0-1.309,0-2.955,0-4.836h-10v4.84c0,1.838-1.251,3.433-3.034,3.877
				c-2.921,0.727-5.762,1.896-8.164,3.594c-2.412,1.705-3.689,4.603-3.322,7.533c0.46,3.674,1.353,10.817,3.082,24.652
				c0.25,2,1.948,3.504,3.964,3.504h24.943c2.017,0,3.719-1.502,3.969-3.504L62.101,58.846z"/>
		</g>
		<g>
			<path style="fill:#FFAA00;" d="M27.812,61l2.292,18.372C30.291,80.873,31.568,82,33.081,82h19.646
				c1.514,0,2.789-1.127,2.976-2.628L58,61H27.812z"/>
		</g>
		<g>
			<path style="fill:#3D320C;" d="M35.812,27c0-1.104,0.895-2,2-2h10c1.104,0,2,0.896,2,2v10c0,1.105-0.896,2-2,2h-10
				c-1.105,0-2-0.895-2-2V27z"/>
		</g>
		<g>
			<path style="fill:#3D320C;" d="M32.582,57c8-6.667,12-6.667,20,0l-2,18c-5.334,2.667-10.667,2.667-16,0L32.582,57z"/>
		</g>
		<g>
			<polygon style="fill:#FFFFFF;" points="46.892,58 47.723,59.685 49.582,59.955 48.236,61.266 48.554,63.117 46.892,62.243 
				45.229,63.117 45.547,61.266 44.201,59.955 46.061,59.685 			"/>
		</g>
		<g>
			<path style="fill:#FFE9A1;" d="M87,63v20c0,2.21-1.79,4-4,4H63c-2.21,0-4-1.79-4-4V63c0-2.21,1.79-4,4-4h20
				C85.21,59,87,60.79,87,63z"/>
		</g>
		<g>
			<path style="fill:#FFF5D9;" d="M73,59H63c-2.21,0-4,1.79-4,4v20c0,2.21,1.79,4,4,4h10V59z"/>
		</g>
		<g>
			
				<rect x="63.657" y="69.344" transform="matrix(0.7134 0.7008 -0.7008 0.7134 70.7912 -26.3905)" style="fill:#FFFFFF;" width="8" height="8"/>
		</g>
		<g>
			<path style="fill:#FA9200;" d="M84.021,73H62v8c0,1.105,0.896,2,2,2h18.021c1.104,0,2-0.895,2-2V73z"/>
		</g>
		<g>
			<polygon style="fill:#FFAA00;" points="73.313,73.294 73.015,73 62.387,73 62,73.394 67.707,79 			"/>
		</g>
		<g>
			
				<rect x="73.716" y="67.284" transform="matrix(0.913 -0.4079 0.4079 0.913 -22.3185 37.9035)" style="fill:#FFFFFF;" width="8.001" height="8"/>
		</g>
		<g>
			<polygon style="fill:#FFAA00;" points="75.695,76.567 83,73.304 82.864,73 74.102,73 			"/>
		</g>
		<g>
			<polygon style="fill:#FFFFFF;" points="39.502,58 40.333,59.685 42.191,59.955 40.847,61.266 41.164,63.117 39.502,62.243 
				37.84,63.117 38.157,61.266 36.812,59.955 38.671,59.685 			"/>
		</g>
		<g>
			<path style="fill:#66510D;" d="M43,25h-5.188c-1.104,0-2,0.896-2,2v10c0,1.104,0.896,2,2,2H43V25z"/>
		</g>
	</g>
</g>
<g id="R-Yellow" style="display:none;">
	<circle style="display:inline;fill:#FFD75E;" cx="55" cy="55" r="55"/>
	<g style="display:inline;">
		<g>
			<path style="fill:#FFE9A1;" d="M62.101,58.846c0.366-2.926-0.911-5.827-3.319-7.53c-2.409-1.704-5.258-2.881-8.162-3.601
				c-1.782-0.441-3.037-2.042-3.037-3.878c0-1.309,0-2.955,0-4.836h-10v4.84c0,1.838-1.251,3.433-3.034,3.877
				c-2.921,0.727-5.762,1.896-8.164,3.594c-2.412,1.705-3.688,4.603-3.322,7.533c0.46,3.674,1.353,10.817,3.082,24.652
				c0.25,2,1.948,3.504,3.964,3.504h24.943c2.017,0,3.719-1.502,3.969-3.504L62.101,58.846z"/>
		</g>
		<g>
			<path style="fill:#FFAA00;" d="M27.812,61l2.292,18.372C30.291,80.873,31.568,82,33.081,82h19.646
				c1.514,0,2.789-1.127,2.977-2.628L58,61H27.812z"/>
		</g>
		<g>
			<path style="fill:#3D320C;" d="M35.812,27c0-1.104,0.895-2,2-2h10c1.104,0,2,0.896,2,2v10c0,1.105-0.896,2-2,2h-10
				c-1.105,0-2-0.895-2-2V27z"/>
		</g>
		<g>
			<path style="fill:#3D320C;" d="M32.582,57c8-6.667,12-6.667,20,0l-2,18c-5.334,2.667-10.667,2.667-16,0L32.582,57z"/>
		</g>
		<g>
			<polygon style="fill:#FFFFFF;" points="46.892,58 47.723,59.685 49.582,59.955 48.236,61.266 48.554,63.117 46.892,62.243 
				45.228,63.117 45.547,61.266 44.201,59.955 46.06,59.685 			"/>
		</g>
		<g>
			<path style="fill:#FFE9A1;" d="M87,63v20c0,2.21-1.79,4-4,4H63c-2.21,0-4-1.79-4-4V63c0-2.21,1.79-4,4-4h20
				C85.21,59,87,60.79,87,63z"/>
		</g>
		<g>
			<path style="fill:#FFF5D9;" d="M73,59H63c-2.21,0-4,1.79-4,4v20c0,2.21,1.79,4,4,4h10V59z"/>
		</g>
		<g>
			
				<rect x="63.657" y="69.344" transform="matrix(0.7134 0.7008 -0.7008 0.7134 70.7912 -26.3905)" style="fill:#FFFFFF;" width="8" height="8"/>
		</g>
		<g>
			<path style="fill:#FA9200;" d="M84.021,73H62v8c0,1.105,0.896,2,2,2h18.022c1.104,0,2-0.895,2-2V73z"/>
		</g>
		<g>
			<polygon style="fill:#FFAA00;" points="73.313,73.294 73.015,73 62.387,73 62,73.394 67.707,79 			"/>
		</g>
		<g>
			
				<rect x="73.716" y="67.284" transform="matrix(0.913 -0.4079 0.4079 0.913 -22.3185 37.9035)" style="fill:#FFFFFF;" width="8.001" height="8"/>
		</g>
		<g>
			<polygon style="fill:#FFAA00;" points="75.695,76.567 83,73.304 82.864,73 74.102,73 			"/>
		</g>
		<g>
			<polygon style="fill:#FFFFFF;" points="39.502,58 40.333,59.685 42.191,59.955 40.847,61.266 41.164,63.117 39.502,62.243 
				37.84,63.117 38.157,61.266 36.812,59.955 38.671,59.685 			"/>
		</g>
		<g>
			<path style="fill:#66510D;" d="M43,25h-5.188c-1.104,0-2,0.896-2,2v10c0,1.104,0.896,2,2,2H43V25z"/>
		</g>
	</g>
</g>
</svg>
