<?xml version="1.0" encoding="iso-8859-1"?>
<!-- Generator: Adobe Illustrator 17.1.0, SVG Export Plug-In . SVG Version: 6.00 Build 0)  -->
<!DOCTYPE svg PUBLIC "-//W3C//DTD SVG 1.0//EN" "http://www.w3.org/TR/2001/REC-SVG-20010904/DTD/svg10.dtd">
<svg version="1.0" xmlns="http://www.w3.org/2000/svg" xmlns:xlink="http://www.w3.org/1999/xlink" x="0px" y="0px" width="110px"
	 height="110px" viewBox="0 0 110 110" style="enable-background:new 0 0 110 110;" xml:space="preserve">
<g id="Artboard" style="display:none;">
	
		<rect x="-1096.5" y="-930.5" style="display:inline;fill:#808080;stroke:#000000;stroke-miterlimit:10;" width="1392" height="1369"/>
</g>
<g id="R-Multicolor">
	<circle style="fill:#FABC3D;" cx="55" cy="55" r="55"/>
	<g>
		<g>
			<path style="fill:#3E3E3F;" d="M82.186,27.819C71.445,17.078,57.517,26.352,50,35c-6.314,7.257-7.913,17.456-7.047,24.047L39,63
				l0,0L24.64,77.36c-2.078,2.078-2.326,5.587,0.08,8c2.187,2.187,5.733,2.187,7.92,0L51,66.979c6.6,1.246,16.722,0.488,24-5.979
				C83.252,53.653,92.92,38.553,82.186,27.819z M28,84c-1.104,0-2-0.896-2-2s0.896-2,2-2s2,0.896,2,2S29.105,84,28,84z
				 M79.298,33.238c-1.16,4.205-3.89,11.627-9.719,17.456c-5.824,5.825-13.249,8.557-17.454,9.718L79.298,33.238z M49.569,57.895
				c1.154-4.202,3.882-11.652,9.721-17.49c5.843-5.843,13.291-8.57,17.492-9.723L49.569,57.895z M52.657,36.657
				c5.848-6.696,16.037-14.467,24.643-9.652c-10.42,0.347-28.574,13.279-30.505,32.131C45.296,54.045,46.3,43.948,52.657,36.657z
				 M73.326,57.326c-7.291,6.357-17.388,7.361-22.479,5.862C69.682,61.26,82.632,43.1,82.978,32.683
				C87.793,41.289,80.023,51.478,73.326,57.326z"/>
		</g>
		<g>
			
				<rect x="39.343" y="62.171" transform="matrix(-0.7071 -0.7071 0.7071 -0.7071 30.8582 142.7815)" style="fill:#CFD3D4;" width="11.314" height="5.657"/>
		</g>
		<g>
			<path style="fill:#5B5C5F;" d="M43.195,67.2l-13.6,13.6c-0.36-0.49-0.94-0.8-1.6-0.8c-1.1,0-2,0.89-2,2c0,0.65,0.32,1.23,0.8,1.6
				l-1.91,1.91c-0.06-0.04-0.12-0.1-0.17-0.15l-0.08-0.08c-2.18-2.19-2.18-5.74,0-7.92L38.995,63L43.195,67.2z"/>
		</g>
		<g>
			
				<rect x="40.267" y="60.13" transform="matrix(0.7071 -0.7071 0.7071 0.7071 -31.9959 48.9543)" style="fill:#FFFFFF;" width="5.657" height="5.939"/>
		</g>
	</g>
</g>
<g id="Multicolor" style="display:none;">
	<g style="display:inline;">
		<g>
			<path style="fill:#3E3E3F;" d="M82.186,27.819C71.445,17.078,57.517,26.352,50,35c-6.314,7.257-7.913,17.456-7.047,24.047L39,63
				l0,0L24.64,77.36c-2.078,2.078-2.326,5.587,0.08,8c2.187,2.187,5.733,2.187,7.92,0L51,66.979c6.6,1.246,16.722,0.488,24-5.979
				C83.252,53.653,92.92,38.553,82.186,27.819z M28,84c-1.104,0-2-0.896-2-2s0.896-2,2-2s2,0.896,2,2S29.105,84,28,84z
				 M79.298,33.238c-1.16,4.205-3.89,11.627-9.719,17.456c-5.824,5.825-13.249,8.557-17.454,9.718L79.298,33.238z M49.569,57.895
				c1.154-4.202,3.882-11.652,9.721-17.49c5.843-5.843,13.291-8.57,17.492-9.723L49.569,57.895z M52.657,36.657
				c5.848-6.696,16.037-14.467,24.643-9.652c-10.42,0.347-28.574,13.279-30.505,32.131C45.296,54.045,46.3,43.948,52.657,36.657z
				 M73.326,57.326c-7.291,6.357-17.388,7.361-22.479,5.862C69.682,61.26,82.632,43.1,82.978,32.683
				C87.793,41.289,80.023,51.478,73.326,57.326z"/>
		</g>
		<g>
			
				<rect x="39.343" y="62.171" transform="matrix(-0.7071 -0.7071 0.7071 -0.7071 30.8582 142.7815)" style="fill:#CFD3D4;" width="11.314" height="5.657"/>
		</g>
		<g>
			<path style="fill:#5B5C5F;" d="M43.195,67.2l-13.6,13.6c-0.36-0.49-0.94-0.8-1.6-0.8c-1.1,0-2,0.89-2,2c0,0.65,0.32,1.23,0.8,1.6
				l-1.91,1.91c-0.06-0.04-0.12-0.1-0.17-0.15l-0.08-0.08c-2.18-2.19-2.18-5.74,0-7.92L38.995,63L43.195,67.2z"/>
		</g>
		<g>
			
				<rect x="40.267" y="60.13" transform="matrix(0.7071 -0.7071 0.7071 0.7071 -31.9959 48.9543)" style="fill:#FFFFFF;" width="5.657" height="5.939"/>
		</g>
	</g>
</g>
<g id="Blue" style="display:none;">
	<g style="display:inline;">
		<g>
			<path style="fill:#0C333D;" d="M82.186,27.819C71.445,17.078,57.517,26.352,50,35c-6.314,7.257-7.913,17.456-7.047,24.047L39,63
				l0,0L24.641,77.36c-2.079,2.078-2.326,5.587,0.08,8c2.186,2.187,5.732,2.187,7.92,0L51,66.979c6.6,1.246,16.722,0.488,24-5.979
				C83.252,53.653,92.92,38.553,82.186,27.819z M28,84c-1.104,0-2-0.896-2-2s0.896-2,2-2s2,0.896,2,2S29.104,84,28,84z
				 M79.298,33.238c-1.16,4.205-3.891,11.627-9.72,17.456c-5.824,5.825-13.248,8.557-17.454,9.717L79.298,33.238z M49.568,57.896
				c1.154-4.202,3.883-11.652,9.722-17.49c5.843-5.843,13.291-8.57,17.491-9.723L49.568,57.896z M52.657,36.657
				c5.848-6.696,16.037-14.467,24.643-9.652c-10.42,0.347-28.574,13.279-30.505,32.131C45.297,54.045,46.3,43.948,52.657,36.657z
				 M73.326,57.326c-7.291,6.358-17.388,7.361-22.479,5.862c18.835-1.928,31.785-20.087,32.132-30.504
				C87.793,41.289,80.022,51.479,73.326,57.326z"/>
		</g>
		<g>
			
				<rect x="39.343" y="62.172" transform="matrix(-0.7071 -0.7071 0.7071 -0.7071 30.8579 142.7818)" style="fill:#E1F5FA;" width="11.314" height="5.657"/>
		</g>
		<g>
			<path style="fill:#0F6175;" d="M43.195,67.2l-13.6,13.6c-0.36-0.49-0.94-0.8-1.601-0.8c-1.101,0-2,0.89-2,2
				c0,0.65,0.32,1.23,0.8,1.6l-1.91,1.91c-0.06-0.04-0.119-0.1-0.17-0.15l-0.08-0.08c-2.18-2.19-2.18-5.74,0-7.92L38.995,63
				L43.195,67.2z"/>
		</g>
		<g>
			
				<rect x="40.267" y="60.13" transform="matrix(0.7071 -0.7071 0.7071 0.7071 -31.996 48.9544)" style="fill:#FFFFFF;" width="5.657" height="5.94"/>
		</g>
	</g>
</g>
<g id="R-Blue" style="display:none;">
	<circle style="display:inline;fill:#81D2EB;" cx="55" cy="55" r="55"/>
	<g style="display:inline;">
		<g>
			<path style="fill:#0C333D;" d="M82.186,27.819C71.445,17.078,57.517,26.352,50,35c-6.314,7.257-7.913,17.456-7.047,24.047L39,63
				l0,0L24.641,77.36c-2.079,2.078-2.326,5.587,0.08,8c2.186,2.187,5.732,2.187,7.92,0L51,66.979c6.6,1.246,16.722,0.488,24-5.98
				C83.252,53.653,92.92,38.553,82.186,27.819z M28,84c-1.104,0-2-0.896-2-2s0.896-2,2-2s2,0.896,2,2S29.104,84,28,84z
				 M79.298,33.238c-1.16,4.205-3.891,11.627-9.72,17.456c-5.824,5.825-13.248,8.557-17.454,9.717L79.298,33.238z M49.568,57.895
				c1.154-4.202,3.883-11.652,9.722-17.49c5.843-5.843,13.291-8.57,17.491-9.723L49.568,57.895z M52.657,36.657
				c5.848-6.696,16.037-14.467,24.643-9.652c-10.42,0.347-28.574,13.279-30.505,32.131C45.297,54.045,46.3,43.948,52.657,36.657z
				 M73.326,57.326c-7.291,6.358-17.388,7.361-22.479,5.862c18.835-1.928,31.785-20.087,32.132-30.504
				C87.793,41.289,80.022,51.478,73.326,57.326z"/>
		</g>
		<g>
			
				<rect x="39.343" y="62.172" transform="matrix(-0.7071 -0.7071 0.7071 -0.7071 30.8579 142.7818)" style="fill:#E1F5FA;" width="11.314" height="5.657"/>
		</g>
		<g>
			<path style="fill:#0F6175;" d="M43.195,67.2l-13.6,13.6c-0.36-0.49-0.94-0.8-1.601-0.8c-1.101,0-2,0.89-2,2
				c0,0.65,0.32,1.23,0.8,1.6l-1.91,1.91c-0.06-0.04-0.119-0.1-0.17-0.15l-0.08-0.08c-2.18-2.19-2.18-5.74,0-7.92L38.995,63
				L43.195,67.2z"/>
		</g>
		<g>
			
				<rect x="40.267" y="60.13" transform="matrix(0.7071 -0.7071 0.7071 0.7071 -31.996 48.9544)" style="fill:#FFFFFF;" width="5.657" height="5.94"/>
		</g>
	</g>
</g>
<g id="Green" style="display:none;">
	<g style="display:inline;">
		<g>
			<path style="fill:#0A3631;" d="M82.185,27.819C71.445,17.078,57.517,26.352,50,35c-6.314,7.257-7.913,17.456-7.047,24.047L39,63
				l0,0L24.641,77.36c-2.079,2.078-2.326,5.587,0.08,8c2.186,2.187,5.732,2.187,7.92,0L51,66.979c6.6,1.246,16.722,0.488,24-5.979
				C83.252,53.653,92.92,38.553,82.185,27.819z M28,84c-1.104,0-2-0.896-2-2s0.896-2,2-2s2,0.896,2,2S29.104,84,28,84z
				 M79.298,33.238c-1.16,4.205-3.891,11.627-9.72,17.456c-5.824,5.825-13.248,8.557-17.454,9.717L79.298,33.238z M49.568,57.896
				c1.154-4.202,3.883-11.652,9.722-17.49c5.843-5.843,13.291-8.57,17.491-9.723L49.568,57.896z M52.657,36.657
				c5.848-6.696,16.037-14.467,24.643-9.652c-10.42,0.347-28.574,13.279-30.505,32.131C45.297,54.045,46.3,43.948,52.657,36.657z
				 M73.326,57.326c-7.291,6.358-17.388,7.361-22.479,5.862c18.835-1.928,31.785-20.087,32.132-30.504
				C87.793,41.289,80.022,51.479,73.326,57.326z"/>
		</g>
		<g>
			
				<rect x="39.343" y="62.172" transform="matrix(-0.7071 -0.7071 0.7071 -0.7071 30.8579 142.7818)" style="fill:#D7FCF9;" width="11.314" height="5.657"/>
		</g>
		<g>
			<path style="fill:#14635B;" d="M43.195,67.2l-13.6,13.6c-0.36-0.49-0.94-0.8-1.601-0.8c-1.101,0-2,0.89-2,2
				c0,0.65,0.32,1.23,0.8,1.6l-1.91,1.91c-0.06-0.04-0.119-0.1-0.17-0.15l-0.08-0.08c-2.18-2.19-2.18-5.74,0-7.92L38.995,63
				L43.195,67.2z"/>
		</g>
		<g>
			
				<rect x="40.267" y="60.13" transform="matrix(0.7071 -0.7071 0.7071 0.7071 -31.996 48.9544)" style="fill:#FFFFFF;" width="5.657" height="5.94"/>
		</g>
	</g>
</g>
<g id="R-Green" style="display:none;">
	<circle style="display:inline;fill:#77E0C4;" cx="55" cy="55" r="55"/>
	<g style="display:inline;">
		<g>
			<path style="fill:#0A3631;" d="M82.186,27.819C71.445,17.078,57.517,26.352,50,35c-6.314,7.257-7.913,17.456-7.047,24.047L39,63
				l0,0L24.641,77.36c-2.079,2.078-2.326,5.587,0.08,8c2.187,2.187,5.732,2.187,7.92,0L51,66.979c6.6,1.246,16.722,0.488,24-5.979
				C83.252,53.653,92.92,38.553,82.186,27.819z M28,84c-1.104,0-2-0.896-2-2s0.896-2,2-2s2,0.896,2,2S29.104,84,28,84z
				 M79.298,33.238c-1.16,4.205-3.891,11.627-9.72,17.456c-5.824,5.825-13.248,8.557-17.454,9.717L79.298,33.238z M49.568,57.896
				c1.154-4.202,3.883-11.652,9.722-17.49c5.843-5.843,13.291-8.57,17.491-9.723L49.568,57.896z M52.657,36.657
				c5.848-6.696,16.037-14.467,24.643-9.652c-10.42,0.347-28.574,13.279-30.505,32.131C45.297,54.045,46.3,43.948,52.657,36.657z
				 M73.326,57.326c-7.291,6.358-17.388,7.361-22.48,5.862c18.835-1.928,31.785-20.087,32.132-30.504
				C87.793,41.289,80.022,51.479,73.326,57.326z"/>
		</g>
		<g>
			
				<rect x="39.343" y="62.172" transform="matrix(-0.7071 -0.7071 0.7071 -0.7071 30.8579 142.7818)" style="fill:#D7FCF9;" width="11.314" height="5.657"/>
		</g>
		<g>
			<path style="fill:#14635B;" d="M43.195,67.2l-13.6,13.6c-0.36-0.49-0.94-0.8-1.601-0.8c-1.101,0-2,0.89-2,2
				c0,0.65,0.32,1.23,0.8,1.6l-1.91,1.91c-0.06-0.04-0.119-0.1-0.17-0.15l-0.08-0.08c-2.18-2.19-2.18-5.74,0-7.92L38.995,63
				L43.195,67.2z"/>
		</g>
		<g>
			
				<rect x="40.267" y="60.13" transform="matrix(0.7071 -0.7071 0.7071 0.7071 -31.996 48.9544)" style="fill:#FFFFFF;" width="5.657" height="5.94"/>
		</g>
	</g>
</g>
<g id="Red" style="display:none;">
	<g style="display:inline;">
		<g>
			<path style="fill:#4A1410;" d="M82.185,27.819C71.445,17.078,57.517,26.352,50,35c-6.315,7.257-7.913,17.456-7.047,24.047L39,63
				l0,0L24.641,77.36c-2.079,2.078-2.326,5.587,0.08,8c2.187,2.187,5.732,2.187,7.92,0L51,66.979c6.6,1.246,16.722,0.488,24-5.979
				C83.252,53.653,92.92,38.553,82.185,27.819z M28,84c-1.104,0-2-0.896-2-2s0.896-2,2-2c1.104,0,2,0.896,2,2S29.104,84,28,84z
				 M79.298,33.238c-1.16,4.205-3.891,11.627-9.72,17.456c-5.824,5.825-13.248,8.557-17.454,9.717L79.298,33.238z M49.568,57.896
				c1.154-4.202,3.883-11.652,9.722-17.49c5.843-5.843,13.291-8.57,17.491-9.723L49.568,57.896z M52.657,36.657
				c5.848-6.696,16.037-14.467,24.643-9.652c-10.42,0.347-28.574,13.279-30.505,32.131C45.297,54.045,46.3,43.948,52.657,36.657z
				 M73.326,57.326c-7.291,6.358-17.388,7.361-22.48,5.862c18.835-1.928,31.785-20.087,32.132-30.504
				C87.793,41.289,80.022,51.479,73.326,57.326z"/>
		</g>
		<g>
			
				<rect x="39.343" y="62.172" transform="matrix(-0.7071 -0.7071 0.7071 -0.7071 30.8579 142.7818)" style="fill:#FFEFED;" width="11.314" height="5.657"/>
		</g>
		<g>
			<path style="fill:#7D261E;" d="M43.195,67.2l-13.6,13.6c-0.36-0.49-0.94-0.8-1.601-0.8c-1.101,0-2,0.89-2,2
				c0,0.65,0.32,1.23,0.8,1.6l-1.91,1.91c-0.06-0.04-0.119-0.1-0.17-0.15l-0.08-0.08c-2.18-2.19-2.18-5.74,0-7.92L38.995,63
				L43.195,67.2z"/>
		</g>
		<g>
			
				<rect x="40.267" y="60.13" transform="matrix(0.7071 -0.7071 0.7071 0.7071 -31.996 48.9544)" style="fill:#FFFFFF;" width="5.657" height="5.94"/>
		</g>
	</g>
</g>
<g id="R-Red" style="display:none;">
	<circle style="display:inline;fill:#FABBAF;" cx="55" cy="55" r="55"/>
	<g style="display:inline;">
		<g>
			<path style="fill:#4A1410;" d="M82.185,27.819C71.445,17.078,57.517,26.352,50,35c-6.315,7.257-7.913,17.456-7.047,24.047L39,63
				l0,0L24.641,77.36c-2.079,2.078-2.326,5.587,0.08,8c2.187,2.187,5.732,2.187,7.92,0L51,66.979c6.6,1.246,16.722,0.488,24-5.979
				C83.252,53.653,92.92,38.553,82.185,27.819z M28,84c-1.104,0-2-0.896-2-2s0.896-2,2-2c1.104,0,2,0.896,2,2S29.104,84,28,84z
				 M79.298,33.238c-1.16,4.205-3.891,11.627-9.72,17.456c-5.824,5.825-13.248,8.557-17.454,9.717L79.298,33.238z M49.568,57.896
				c1.154-4.202,3.883-11.652,9.722-17.49c5.843-5.843,13.291-8.57,17.491-9.723L49.568,57.896z M52.657,36.657
				c5.848-6.696,16.037-14.467,24.643-9.652c-10.42,0.347-28.574,13.279-30.505,32.131C45.297,54.045,46.3,43.948,52.657,36.657z
				 M73.326,57.326c-7.291,6.358-17.388,7.361-22.48,5.862c18.835-1.928,31.785-20.087,32.132-30.504
				C87.793,41.289,80.022,51.479,73.326,57.326z"/>
		</g>
		<g>
			
				<rect x="39.343" y="62.172" transform="matrix(-0.7071 -0.7071 0.7071 -0.7071 30.8579 142.7818)" style="fill:#FFEFED;" width="11.314" height="5.657"/>
		</g>
		<g>
			<path style="fill:#7D261E;" d="M43.195,67.2l-13.6,13.6c-0.36-0.49-0.94-0.8-1.601-0.8c-1.101,0-2,0.89-2,2
				c0,0.65,0.32,1.23,0.8,1.6l-1.91,1.91c-0.06-0.04-0.119-0.1-0.17-0.15l-0.08-0.08c-2.18-2.19-2.18-5.74,0-7.92L38.995,63
				L43.195,67.2z"/>
		</g>
		<g>
			
				<rect x="40.267" y="60.13" transform="matrix(0.7071 -0.7071 0.7071 0.7071 -31.996 48.9544)" style="fill:#FFFFFF;" width="5.657" height="5.94"/>
		</g>
	</g>
</g>
<g id="Yellow" style="display:none;">
	<g style="display:inline;">
		<g>
			<path style="fill:#3D320C;" d="M82.186,27.819C71.445,17.078,57.517,26.352,50,35c-6.314,7.257-7.913,17.456-7.047,24.047L39,63
				l0,0L24.641,77.36c-2.079,2.078-2.326,5.587,0.08,8c2.187,2.187,5.732,2.187,7.92,0L51,66.979c6.6,1.246,16.722,0.488,24-5.979
				C83.252,53.653,92.92,38.553,82.186,27.819z M28,84c-1.104,0-2-0.896-2-2s0.896-2,2-2s2,0.896,2,2S29.104,84,28,84z
				 M79.298,33.238c-1.16,4.205-3.891,11.627-9.72,17.456c-5.824,5.825-13.248,8.557-17.454,9.717L79.298,33.238z M49.568,57.896
				c1.154-4.202,3.883-11.652,9.722-17.49c5.843-5.843,13.291-8.57,17.491-9.723L49.568,57.896z M52.657,36.657
				c5.848-6.696,16.037-14.467,24.643-9.652c-10.42,0.347-28.574,13.279-30.505,32.131C45.297,54.045,46.3,43.948,52.657,36.657z
				 M73.326,57.326c-7.291,6.358-17.388,7.361-22.48,5.862c18.835-1.928,31.785-20.087,32.132-30.504
				C87.793,41.289,80.022,51.479,73.326,57.326z"/>
		</g>
		<g>
			
				<rect x="39.343" y="62.172" transform="matrix(-0.7071 -0.7071 0.7071 -0.7071 30.8579 142.7818)" style="fill:#FFF5D9;" width="11.314" height="5.657"/>
		</g>
		<g>
			<path style="fill:#66510D;" d="M43.195,67.2l-13.6,13.6c-0.36-0.49-0.94-0.8-1.601-0.8c-1.101,0-2,0.89-2,2
				c0,0.65,0.32,1.23,0.8,1.6l-1.91,1.91c-0.06-0.04-0.119-0.1-0.17-0.15l-0.08-0.08c-2.18-2.19-2.18-5.74,0-7.92L38.995,63
				L43.195,67.2z"/>
		</g>
		<g>
			
				<rect x="40.267" y="60.13" transform="matrix(0.7071 -0.7071 0.7071 0.7071 -31.996 48.9544)" style="fill:#FFFFFF;" width="5.657" height="5.94"/>
		</g>
	</g>
</g>
<g id="R-Yellow" style="display:none;">
	<circle style="display:inline;fill:#FFD75E;" cx="55" cy="55" r="55"/>
	<g style="display:inline;">
		<g>
			<path style="fill:#3D320C;" d="M82.185,27.819C71.445,17.078,57.517,26.352,50,35c-6.314,7.257-7.913,17.456-7.047,24.047L39,63
				l0,0L24.641,77.36c-2.079,2.078-2.326,5.587,0.08,8c2.186,2.187,5.732,2.187,7.92,0L51,66.979c6.6,1.246,16.722,0.488,24-5.979
				C83.252,53.653,92.92,38.553,82.185,27.819z M28,84c-1.104,0-2-0.896-2-2s0.896-2,2-2s2,0.896,2,2S29.104,84,28,84z
				 M79.298,33.238c-1.16,4.205-3.891,11.627-9.72,17.456c-5.824,5.825-13.248,8.557-17.454,9.717L79.298,33.238z M49.568,57.896
				c1.154-4.202,3.883-11.652,9.722-17.49c5.843-5.843,13.291-8.57,17.491-9.723L49.568,57.896z M52.657,36.657
				c5.848-6.696,16.037-14.467,24.643-9.652c-10.42,0.347-28.574,13.279-30.505,32.131C45.297,54.045,46.3,43.948,52.657,36.657z
				 M73.326,57.326c-7.291,6.358-17.388,7.361-22.479,5.862c18.835-1.928,31.785-20.087,32.132-30.504
				C87.793,41.289,80.022,51.479,73.326,57.326z"/>
		</g>
		<g>
			
				<rect x="39.343" y="62.172" transform="matrix(-0.7071 -0.7071 0.7071 -0.7071 30.8579 142.7818)" style="fill:#FFF5D9;" width="11.314" height="5.657"/>
		</g>
		<g>
			<path style="fill:#66510D;" d="M43.195,67.2l-13.6,13.6c-0.36-0.49-0.94-0.8-1.601-0.8c-1.101,0-2,0.89-2,2
				c0,0.65,0.32,1.23,0.8,1.6l-1.91,1.91c-0.06-0.04-0.119-0.1-0.17-0.15l-0.08-0.08c-2.18-2.19-2.18-5.74,0-7.92L38.995,63
				L43.195,67.2z"/>
		</g>
		<g>
			
				<rect x="40.267" y="60.13" transform="matrix(0.7071 -0.7071 0.7071 0.7071 -31.996 48.9544)" style="fill:#FFFFFF;" width="5.657" height="5.94"/>
		</g>
	</g>
</g>
</svg>
