<?xml version="1.0" encoding="iso-8859-1"?>
<!-- Generator: Adobe Illustrator 17.1.0, SVG Export Plug-In . SVG Version: 6.00 Build 0)  -->
<!DOCTYPE svg PUBLIC "-//W3C//DTD SVG 1.0//EN" "http://www.w3.org/TR/2001/REC-SVG-20010904/DTD/svg10.dtd">
<svg version="1.0" xmlns="http://www.w3.org/2000/svg" xmlns:xlink="http://www.w3.org/1999/xlink" x="0px" y="0px" width="110px"
	 height="110px" viewBox="0 0 110 110" style="enable-background:new 0 0 110 110;" xml:space="preserve">
<g id="Artboard">
</g>
<g id="Multicolor">
	<circle style="fill:#E04F5F;" cx="55" cy="55" r="55"/>
	<g>
		<path style="fill:#FFFFFF;" d="M87,72.66V83c0,2.21-1.79,4-4,4H27c-2.21,0-4-1.79-4-4V72.66c0-0.58,0.13-1.15,0.36-1.66
			c0.2-0.43,0.47-0.83,0.81-1.17l5.66-5.66C30.58,63.42,31.6,63,32.66,63h44.68c1.06,0,2.08,0.42,2.83,1.17l5.66,5.66
			c0.34,0.34,0.61,0.74,0.81,1.17C86.87,71.51,87,72.08,87,72.66z"/>
		<path style="fill:#3E3E3F;" d="M57,46c0-1.105-0.895-2-2-2s-2,0.895-2,2v17h4V46z"/>
		<g>
			<path style="fill:#FACB1B;" d="M45.549,50.641c-0.618,0.552-1.566,0.499-2.118-0.119C41.219,48.046,40,44.853,40,41.53
				c0-3.286,1.195-6.453,3.364-8.917c0.548-0.622,1.495-0.682,2.117-0.135c0.622,0.547,0.682,1.495,0.135,2.117
				C43.929,36.511,43,38.974,43,41.53c0,2.584,0.948,5.068,2.668,6.993C46.219,49.14,46.168,50.088,45.549,50.641z"/>
		</g>
		<g>
			<path style="fill:#FACB1B;" d="M39.844,30.6C36.766,33.388,35,37.368,35,41.519c0,4.142,1.759,8.115,4.827,10.903
				c0.613,0.557,0.659,1.506,0.101,2.119c-0.557,0.613-1.506,0.658-2.119,0.101C34.117,51.287,32,46.504,32,41.519
				c0-4.996,2.125-9.786,5.83-13.142c0.614-0.556,1.562-0.509,2.119,0.105C40.504,29.094,40.46,30.042,39.844,30.6z"/>
		</g>
		<g>
			<path style="fill:#FACB1B;" d="M64.451,50.641c0.618,0.552,1.566,0.499,2.118-0.119C68.781,48.046,70,44.853,70,41.53
				c0-3.286-1.195-6.453-3.364-8.917c-0.548-0.622-1.495-0.682-2.117-0.135c-0.622,0.547-0.682,1.495-0.135,2.117
				C66.071,36.511,67,38.974,67,41.53c0,2.584-0.948,5.068-2.668,6.993C63.781,49.14,63.832,50.088,64.451,50.641z"/>
		</g>
		<g>
			<path style="fill:#FACB1B;" d="M70.156,30.6C73.234,33.388,75,37.368,75,41.519c0,4.142-1.759,8.115-4.827,10.903
				c-0.613,0.557-0.659,1.506-0.101,2.119c0.557,0.613,1.506,0.658,2.119,0.101C75.883,51.287,78,46.504,78,41.519
				c0-4.996-2.125-9.786-5.83-13.142c-0.614-0.556-1.562-0.509-2.119,0.105C69.496,29.094,69.54,30.042,70.156,30.6z"/>
		</g>
		<path style="fill:#3E3E3F;" d="M87,72.648v10.34H23v-10.34c0-0.58,0.13-1.15,0.36-1.66h63.28C86.87,71.498,87,72.068,87,72.648z"
			/>
		<rect x="59" y="77" style="fill:#F37A10;" width="4" height="2"/>
		<rect x="67" y="77" style="fill:#FBE158;" width="4" height="2"/>
		<rect x="75" y="77" style="fill:#4AC3AF;" width="4" height="2"/>
		<path style="fill:#5B5C5F;" d="M56,70.988H23.475c-0.23,0.51-0.36,1.08-0.36,1.66v10.34H44L56,70.988z"/>
	</g>
</g>
</svg>
