<?xml version="1.0" encoding="iso-8859-1"?>
<!-- Generator: Adobe Illustrator 17.1.0, SVG Export Plug-In . SVG Version: 6.00 Build 0)  -->
<!DOCTYPE svg PUBLIC "-//W3C//DTD SVG 1.0//EN" "http://www.w3.org/TR/2001/REC-SVG-20010904/DTD/svg10.dtd">
<svg version="1.0" xmlns="http://www.w3.org/2000/svg" xmlns:xlink="http://www.w3.org/1999/xlink" x="0px" y="0px" width="110px"
	 height="110px" viewBox="0 0 110 110" style="enable-background:new 0 0 110 110;" xml:space="preserve">
<g id="Artboard">
</g>
<g id="Multicolor">
	<circle style="fill:#FABC3D;" cx="55" cy="55" r="55"/>
	<g>
		<g>
			<rect x="52" y="50" style="fill:#FFFFFF;" width="6" height="37"/>
		</g>
		<g>
			<path style="fill:#FA5655;" d="M67,59c0,0-0.01,0.01-0.02,0.03L59.1,66.9c-2.47,2.47-5.75,3.91-9.2,4.08
				C49.67,71,49.44,71,49.2,71H31l24-24L67,59z"/>
		</g>
		<g>
			<path style="fill:#DF2C2C;" d="M67,59c0,0-0.01,0.01-0.02,0.03L59.1,66.9c-2.687,2.687-6.273,4.1-9.9,4.1c0,0,5.8-2,5.8-9
				c0-10,0-15,0-15L67,59z"/>
		</g>
		<g>
			<path style="fill:#FBE158;" d="M43,59c0,0-0.01-0.01-0.03-0.02L35.1,51.1c-2.47-2.47-3.91-5.75-4.08-9.2
				C31,41.67,31,41.44,31,41.2V23l24,24L43,59z"/>
		</g>
		<g>
			<path style="fill:#F99134;" d="M43,59c0,0-0.01-0.01-0.03-0.02L35.1,51.1c-2.687-2.687-4.1-6.273-4.1-9.9c0,0,2,5.8,9,5.8
				c10,0,15,0,15,0L43,59z"/>
		</g>
		<g>
			<path style="fill:#47C4B7;" d="M43,35c0,0,0.01-0.01,0.02-0.03l7.88-7.87c2.47-2.47,5.75-3.91,9.2-4.08
				C60.33,23,60.56,23,60.8,23H79L55,47L43,35z"/>
		</g>
		<g>
			<path style="fill:#099686;" d="M43,35c0,0,0.01-0.01,0.02-0.03l7.88-7.87c2.687-2.687,6.273-4.1,9.9-4.1c0,0-5.8,2-5.8,9
				c0,10,0,15,0,15L43,35z"/>
		</g>
		<g>
			<path style="fill:#6FDAF1;" d="M67,35c0,0,0.01,0.01,0.03,0.02l7.87,7.88c2.47,2.47,3.91,5.75,4.08,9.2
				C79,52.33,79,52.56,79,52.8V71L55,47L67,35z"/>
		</g>
		<g>
			<path style="fill:#21B2D1;" d="M67,35c0,0,0.01,0.01,0.03,0.02l7.87,7.88c2.687,2.687,4.1,6.273,4.1,9.9c0,0-2-5.8-9-5.8
				c-10,0-15,0-15,0L67,35z"/>
		</g>
		<g>
			<circle style="fill:#E2E4E5;" cx="55" cy="47" r="4"/>
		</g>
		<g>
			<path style="fill:#FFFFFF;" d="M55,43c-2.209,0-4,1.791-4,4c0,1.082,0.434,2.06,1.132,2.78l5.648-5.648
				C57.06,43.434,56.082,43,55,43z"/>
		</g>
	</g>
</g>
</svg>
