<?xml version="1.0" encoding="iso-8859-1"?>
<!-- Generator: Adobe Illustrator 17.1.0, SVG Export Plug-In . SVG Version: 6.00 Build 0)  -->
<!DOCTYPE svg PUBLIC "-//W3C//DTD SVG 1.0//EN" "http://www.w3.org/TR/2001/REC-SVG-20010904/DTD/svg10.dtd">
<svg version="1.0" xmlns="http://www.w3.org/2000/svg" xmlns:xlink="http://www.w3.org/1999/xlink" x="0px" y="0px" width="110px"
	 height="110px" viewBox="0 0 110 110" style="enable-background:new 0 0 110 110;" xml:space="preserve">
<g id="Artboard">
</g>
<g id="Multicolor">
	<circle style="fill:#FABC3D;" cx="55" cy="55" r="55"/>
	<g>
		<path style="fill:#FFFFFF;" d="M35,28c0-2.209,1.791-4,4-4h32c2.209,0,4,1.791,4,4v56c0,2.209-1.791,4-4,4H39
			c-2.209,0-4-1.791-4-4V28z"/>
		<path style="fill:#3E3E3F;" d="M39,82c0,1.105,0.895,2,2,2h28c1.105,0,2-0.895,2-2V30c0-1.105-0.895-2-2-2H41
			c-1.105,0-2,0.895-2,2V82z"/>
		<polygon style="fill:#5B5C5F;" points="47,28 51,32 59,32 63,28 		"/>
		<rect x="43" y="36" style="fill:#FBE158;" width="8" height="8"/>
		<rect x="51" y="36" style="fill:#4AC3AF;" width="8" height="8"/>
		<rect x="59" y="36" style="fill:#F99134;" width="8" height="8"/>
		<rect x="43" y="44" style="fill:#40C9E7;" width="12" height="8"/>
		<rect x="55" y="44" style="fill:#FA5655;" width="12" height="8"/>
		<rect x="43" y="52" style="fill:#4AC3AF;" width="12" height="12"/>
		<rect x="55" y="52" style="fill:#F99134;" width="6" height="6"/>
		<rect x="55" y="58" style="fill:#FBE158;" width="6" height="6"/>
		<rect x="61" y="52" style="fill:#40C9E7;" width="6" height="6"/>
		<rect x="61" y="58" style="fill:#F99134;" width="6" height="6"/>
		<rect x="43" y="64" style="fill:#FA5655;" width="24" height="8"/>
		<rect x="53" y="76" style="fill:#B6BCBD;" width="4" height="4"/>
	</g>
</g>
</svg>
