<?xml version="1.0" encoding="iso-8859-1"?>
<!-- Generator: Adobe Illustrator 17.1.0, SVG Export Plug-In . SVG Version: 6.00 Build 0)  -->
<!DOCTYPE svg PUBLIC "-//W3C//DTD SVG 1.0//EN" "http://www.w3.org/TR/2001/REC-SVG-20010904/DTD/svg10.dtd">
<svg version="1.0" xmlns="http://www.w3.org/2000/svg" xmlns:xlink="http://www.w3.org/1999/xlink" x="0px" y="0px" width="110px"
	 height="110px" viewBox="0 0 110 110" style="enable-background:new 0 0 110 110;" xml:space="preserve">
<g id="Artboard">
</g>
<g id="Multicolor">
	<circle style="fill:#25B7D3;" cx="55" cy="55" r="55"/>
	<g>
		<path style="fill:#F0F1F1;" d="M73,29c7,0,8,6,8,6l3.646,2.431c0.347,0.232,0.514,0.654,0.419,1.061
			c-0.095,0.406-0.433,0.71-0.847,0.763C81.09,39.655,76.393,40.645,76,43c-2,12-1,25-18,25c-19,0-13-20-20-20s-5,11-5,11
			c-2-2-3-11-3-10c-2,3-2,13-2,13c-2-2-5-6-5-13s6-14,14-14s10,8,16,8S64,29,73,29z"/>
		<path style="fill:#FFFFFF;" d="M73,29c-9,0-14,14-20,14s-8-8-16-8s-14,7-14,14s3,11,5,13c0,0,0-10,2-13c0-1,1,8,3,10
			c0,0-2-11,5-11c4.73,0,3.533,9.129,8.117,15.051L78.418,30.75C77.221,29.768,75.497,29,73,29z"/>
		<path style="fill:#DF2C2C;" d="M73,29c1.738,0,3.104,0.371,4.179,0.927L78,25l-4,2l-2-4l-2,4l-5-1l2.994,4.491
			C69.527,29.578,71.181,29,73,29z"/>
		<path style="fill:#DF2C2C;" d="M79.107,40.386C77.481,40.978,76.197,41.817,76,43c-0.33,1.982-0.579,3.962-0.84,5.89
			c0.681,0.68,1.529,1.11,2.469,1.11c2.209,0,4-2.239,4-5C81.628,42.896,80.579,41.123,79.107,40.386z"/>
		<path style="fill:#F3B607;" d="M58,68c-1.082,0-2.073-0.073-3-0.195V87h4V67.976C58.67,67.986,58.345,68,58,68z"/>
		<circle style="fill:#8E6134;" cx="74" cy="35" r="2"/>
		<path style="fill:#FACB1B;" d="M78.28,69.734c-0.596-0.497-1.426-0.604-2.129-0.275S75,70.494,75,71.27V75H39l-4-4H23l5,6l-5,6h12
			l4-4h36v3.73c0,0.776,0.449,1.482,1.152,1.811s1.532,0.222,2.129-0.275L87,77L78.28,69.734z"/>
		<path style="fill:#FBE158;" d="M76.152,69.459C75.449,69.788,75,70.494,75,71.27V75H39l-4-4H23l5,6h59l-8.72-7.266
			C77.684,69.237,76.854,69.13,76.152,69.459z"/>
	</g>
</g>
</svg>
