<?xml version="1.0" encoding="iso-8859-1"?>
<!-- Generator: Adobe Illustrator 17.1.0, SVG Export Plug-In . SVG Version: 6.00 Build 0)  -->
<!DOCTYPE svg PUBLIC "-//W3C//DTD SVG 1.0//EN" "http://www.w3.org/TR/2001/REC-SVG-20010904/DTD/svg10.dtd">
<svg version="1.0" xmlns="http://www.w3.org/2000/svg" xmlns:xlink="http://www.w3.org/1999/xlink" x="0px" y="0px" width="110px"
	 height="110px" viewBox="0 0 110 110" style="enable-background:new 0 0 110 110;" xml:space="preserve">
<g id="Artboard" style="display:none;">
	
		<rect x="-1224.5" y="-930.5" style="display:inline;fill:#808080;stroke:#000000;stroke-miterlimit:10;" width="1392" height="1369"/>
</g>
<g id="R-Multicolor">
	<circle style="fill:#32BEA6;" cx="55" cy="55" r="55"/>
	<g>
		<g>
			<path style="fill:#FFFFFF;" d="M86.811,85.414c-1.766-2.444-7.101-8.42-7.779-9.066c2.691-4.111,4.333-7.411,2.291-9.446
				c-2.304-2.296-5.999,0.216-10.677,3.397c-1.352,0.919-3.334,2.267-4.754,3.018c0.747-1.423,2.087-3.41,3.002-4.765
				c3.164-4.688,5.663-8.392,3.359-10.687c-2.303-2.295-5.997,0.219-10.674,3.4c-1.399,0.952-3.474,2.363-4.901,3.096
				c0.455-0.968,1.349-2.514,3.012-4.979c0.537-0.795,0.433-1.859-0.246-2.535l-8.474-8.444c-0.971,0.918-1.909,1.86-2.823,2.834
				l7.311,7.284c-2.696,4.115-4.344,7.417-2.302,9.451c2.303,2.295,5.997-0.219,10.674-3.4c1.35-0.918,3.329-2.264,4.748-3.017
				c-0.747,1.422-2.086,3.406-2.999,4.76c-3.164,4.688-5.663,8.393-3.359,10.688c2.304,2.295,5.999-0.216,10.676-3.396
				c1.402-0.954,3.483-2.368,4.911-3.1c-0.452,0.969-1.346,2.518-3.013,4.99c-0.413,0.613-0.455,1.403-0.109,2.056
				c0.135,0.254,0.319,0.47,0.537,0.64c0.372,0.342,7.148,6.32,10.177,8.605c0.395,0.298,0.949,0.263,1.302-0.083
				S87.1,85.815,86.811,85.414z"/>
		</g>
		<g>
			<path style="fill:#E2E4E5;" d="M35.074,46.641c4.313-3.454,7.851-7.008,11.288-11.339l-0.515-0.513
				c-1.565-1.559-4.098-1.555-5.657,0.01l-5.646,5.667c-1.559,1.565-1.555,4.098,0.01,5.657L35.074,46.641z"/>
		</g>
		<g>
			<g>
				<path style="fill:#84462D;" d="M67.184,36.327c-15.068,9.456-21.655,16.067-31.056,31.169
					c-5.66-1.875-10.855-7.051-12.751-12.705c15.068-9.456,21.656-16.067,31.056-31.169C60.093,25.498,65.288,30.674,67.184,36.327z
					"/>
			</g>
		</g>
		<g>
			<path style="fill:#9C6144;" d="M54.433,23.623c-9.4,15.102-15.988,21.714-31.056,31.169c0.913,2.722,2.596,5.33,4.723,7.516
				l33.93-33.93C59.823,26.23,57.185,24.534,54.433,23.623z"/>
		</g>
	</g>
</g>
<g id="Multicolor" style="display:none;">
	<g style="display:inline;">
		<g>
			<path style="fill:#FFFFFF;" d="M86.811,85.414c-1.766-2.444-7.101-8.42-7.779-9.066c2.691-4.111,4.333-7.411,2.291-9.446
				c-2.304-2.296-5.999,0.216-10.677,3.397c-1.352,0.919-3.334,2.267-4.754,3.018c0.747-1.423,2.087-3.41,3.002-4.765
				c3.164-4.688,5.663-8.392,3.359-10.687c-2.303-2.295-5.997,0.219-10.674,3.4c-1.399,0.952-3.474,2.363-4.901,3.096
				c0.455-0.968,1.349-2.514,3.012-4.979c0.537-0.795,0.433-1.859-0.246-2.535l-8.474-8.444c-0.971,0.918-1.909,1.86-2.823,2.834
				l7.311,7.284c-2.696,4.115-4.344,7.417-2.302,9.451c2.303,2.295,5.997-0.219,10.674-3.4c1.35-0.918,3.329-2.264,4.748-3.017
				c-0.747,1.422-2.086,3.406-2.999,4.76c-3.164,4.688-5.663,8.393-3.359,10.688c2.304,2.295,5.999-0.216,10.676-3.396
				c1.402-0.954,3.483-2.368,4.911-3.1c-0.452,0.969-1.346,2.518-3.013,4.99c-0.413,0.613-0.455,1.403-0.109,2.056
				c0.135,0.254,0.319,0.47,0.537,0.64c0.372,0.342,7.148,6.32,10.177,8.605c0.395,0.298,0.949,0.263,1.302-0.083
				S87.1,85.815,86.811,85.414z"/>
		</g>
		<g>
			<path style="fill:#E2E4E5;" d="M35.074,46.641c4.313-3.454,7.851-7.008,11.288-11.339l-0.515-0.513
				c-1.565-1.559-4.098-1.555-5.657,0.01l-5.646,5.667c-1.559,1.565-1.555,4.098,0.01,5.657L35.074,46.641z"/>
		</g>
		<g>
			<g>
				<path style="fill:#84462D;" d="M67.184,36.327c-15.068,9.456-21.655,16.067-31.056,31.169
					c-5.66-1.875-10.855-7.051-12.751-12.705c15.068-9.456,21.656-16.067,31.056-31.169C60.093,25.498,65.288,30.674,67.184,36.327z
					"/>
			</g>
		</g>
		<g>
			<path style="fill:#9C6144;" d="M54.433,23.623c-9.4,15.102-15.988,21.714-31.056,31.169c0.913,2.722,2.596,5.33,4.723,7.516
				l33.93-33.93C59.823,26.23,57.185,24.534,54.433,23.623z"/>
		</g>
	</g>
</g>
<g id="Blue" style="display:none;">
	<g style="display:inline;">
		<g>
			<path style="fill:#FFFFFF;" d="M86.811,85.415c-1.766-2.444-7.102-8.421-7.779-9.066c2.691-4.111,4.333-7.411,2.291-9.446
				c-2.305-2.296-5.999,0.216-10.677,3.396c-1.352,0.919-3.334,2.267-4.754,3.019c0.747-1.423,2.087-3.41,3.002-4.765
				c3.163-4.689,5.662-8.392,3.358-10.687c-2.303-2.295-5.996,0.219-10.674,3.4c-1.398,0.952-3.473,2.362-4.9,3.096
				c0.455-0.967,1.349-2.514,3.012-4.979c0.537-0.794,0.434-1.858-0.246-2.535l-8.475-8.444c-0.971,0.917-1.908,1.86-2.823,2.833
				l7.312,7.285c-2.695,4.114-4.344,7.417-2.303,9.451c2.304,2.295,5.997-0.219,10.674-3.4c1.351-0.918,3.328-2.264,4.748-3.017
				c-0.746,1.422-2.086,3.406-2.999,4.76c-3.164,4.688-5.663,8.393-3.358,10.688c2.304,2.295,5.998-0.216,10.676-3.396
				c1.402-0.954,3.482-2.369,4.91-3.1c-0.452,0.969-1.346,2.519-3.013,4.99c-0.413,0.612-0.455,1.403-0.108,2.056
				c0.135,0.254,0.318,0.47,0.537,0.64c0.372,0.342,7.148,6.32,10.177,8.605c0.395,0.298,0.948,0.263,1.302-0.084
				C87.053,86.369,87.101,85.815,86.811,85.415z"/>
		</g>
		<g>
			<path style="fill:#E1F5FA;" d="M35.074,46.642c4.312-3.454,7.85-7.008,11.287-11.34l-0.515-0.512
				c-1.566-1.56-4.097-1.555-5.656,0.01l-5.646,5.667c-1.559,1.565-1.556,4.098,0.01,5.657L35.074,46.642z"/>
		</g>
		<g>
			<g>
				<path style="fill:#0C333D;" d="M67.185,36.328c-15.068,9.456-21.655,16.067-31.056,31.169
					c-5.661-1.876-10.856-7.051-12.752-12.705c15.068-9.456,21.656-16.068,31.057-31.169C60.094,25.498,65.288,30.674,67.185,36.328
					z"/>
			</g>
		</g>
		<g>
			<path style="fill:#0F6175;" d="M54.434,23.623c-9.4,15.102-15.988,21.713-31.057,31.169c0.913,2.722,2.596,5.33,4.723,7.516
				l33.93-33.93C59.823,26.231,57.186,24.535,54.434,23.623z"/>
		</g>
	</g>
</g>
<g id="R-Blue" style="display:none;">
	<circle style="display:inline;fill:#81D2EB;" cx="55" cy="55" r="55"/>
	<g style="display:inline;">
		<g>
			<path style="fill:#FFFFFF;" d="M86.811,85.415c-1.766-2.444-7.102-8.421-7.779-9.066c2.691-4.111,4.333-7.411,2.291-9.446
				c-2.305-2.296-5.999,0.216-10.677,3.396c-1.352,0.919-3.334,2.267-4.754,3.019c0.747-1.423,2.087-3.41,3.002-4.765
				c3.163-4.689,5.662-8.392,3.358-10.687c-2.303-2.295-5.996,0.219-10.674,3.4c-1.398,0.952-3.473,2.362-4.9,3.096
				c0.455-0.967,1.349-2.514,3.012-4.979c0.537-0.794,0.434-1.858-0.246-2.535l-8.475-8.444c-0.971,0.917-1.908,1.86-2.823,2.833
				l7.312,7.285c-2.695,4.114-4.344,7.417-2.303,9.451c2.304,2.294,5.997-0.219,10.674-3.4c1.351-0.919,3.328-2.264,4.748-3.017
				c-0.746,1.422-2.086,3.406-2.999,4.76c-3.164,4.688-5.663,8.393-3.358,10.688c2.304,2.295,5.998-0.216,10.676-3.396
				c1.402-0.954,3.482-2.369,4.91-3.1c-0.452,0.969-1.346,2.519-3.013,4.99c-0.413,0.612-0.455,1.403-0.108,2.056
				c0.135,0.254,0.318,0.47,0.537,0.64c0.372,0.342,7.148,6.32,10.177,8.605c0.395,0.298,0.948,0.263,1.302-0.083
				C87.053,86.369,87.101,85.815,86.811,85.415z"/>
		</g>
		<g>
			<path style="fill:#E1F5FA;" d="M35.074,46.642c4.312-3.454,7.85-7.008,11.287-11.34l-0.515-0.512
				c-1.566-1.56-4.097-1.555-5.656,0.01l-5.646,5.667c-1.559,1.565-1.556,4.098,0.01,5.657L35.074,46.642z"/>
		</g>
		<g>
			<g>
				<path style="fill:#0C333D;" d="M67.185,36.328c-15.068,9.456-21.655,16.067-31.056,31.169
					c-5.661-1.875-10.856-7.051-12.752-12.705c15.068-9.456,21.656-16.068,31.057-31.169C60.094,25.498,65.288,30.674,67.185,36.328
					z"/>
			</g>
		</g>
		<g>
			<path style="fill:#0F6175;" d="M54.434,23.623c-9.4,15.102-15.988,21.713-31.057,31.169c0.913,2.722,2.596,5.33,4.723,7.516
				l33.93-33.93C59.823,26.23,57.186,24.535,54.434,23.623z"/>
		</g>
	</g>
</g>
<g id="Green" style="display:none;">
	<g style="display:inline;">
		<g>
			<path style="fill:#FFFFFF;" d="M86.81,85.415c-1.766-2.444-7.101-8.42-7.779-9.066c2.691-4.111,4.333-7.411,2.291-9.446
				c-2.305-2.296-5.999,0.216-10.677,3.396c-1.352,0.918-3.334,2.267-4.754,3.019c0.747-1.423,2.087-3.41,3.002-4.765
				c3.163-4.689,5.662-8.392,3.358-10.687c-2.303-2.295-5.996,0.219-10.674,3.4c-1.398,0.952-3.473,2.362-4.9,3.096
				c0.455-0.967,1.349-2.514,3.012-4.979c0.537-0.794,0.434-1.858-0.246-2.535l-8.475-8.444c-0.971,0.917-1.908,1.86-2.823,2.833
				l7.312,7.285c-2.695,4.114-4.344,7.417-2.303,9.451c2.304,2.295,5.997-0.219,10.674-3.4c1.351-0.918,3.328-2.264,4.748-3.017
				c-0.746,1.422-2.086,3.406-2.999,4.76c-3.164,4.688-5.663,8.393-3.358,10.688c2.304,2.295,5.998-0.216,10.676-3.396
				c1.402-0.954,3.483-2.369,4.91-3.1c-0.452,0.969-1.346,2.519-3.013,4.99c-0.413,0.612-0.455,1.403-0.108,2.056
				c0.135,0.254,0.318,0.47,0.537,0.64c0.372,0.342,7.148,6.32,10.177,8.605c0.395,0.298,0.948,0.263,1.302-0.084
				C87.053,86.369,87.101,85.815,86.81,85.415z"/>
		</g>
		<g>
			<path style="fill:#D7FCF9;" d="M35.074,46.642c4.312-3.454,7.85-7.008,11.287-11.34l-0.515-0.512
				c-1.566-1.56-4.097-1.555-5.656,0.01l-5.646,5.667c-1.559,1.565-1.556,4.098,0.01,5.657L35.074,46.642z"/>
		</g>
		<g>
			<g>
				<path style="fill:#0A3631;" d="M67.185,36.328c-15.068,9.456-21.655,16.067-31.056,31.17
					c-5.661-1.876-10.856-7.051-12.752-12.705c15.068-9.456,21.656-16.068,31.057-31.17C60.094,25.498,65.288,30.674,67.185,36.328z
					"/>
			</g>
		</g>
		<g>
			<path style="fill:#14635B;" d="M54.434,23.623c-9.4,15.102-15.988,21.713-31.057,31.17c0.913,2.722,2.596,5.33,4.723,7.516
				l33.93-33.93C59.823,26.23,57.185,24.535,54.434,23.623z"/>
		</g>
	</g>
</g>
<g id="R-Green" style="display:none;">
	<circle style="display:inline;fill:#77E0C4;" cx="55" cy="55" r="55"/>
	<g style="display:inline;">
		<g>
			<path style="fill:#FFFFFF;" d="M86.811,85.415c-1.766-2.444-7.102-8.421-7.779-9.066c2.692-4.111,4.333-7.411,2.291-9.446
				c-2.305-2.296-5.999,0.216-10.677,3.396c-1.352,0.919-3.334,2.267-4.754,3.019c0.747-1.423,2.087-3.41,3.002-4.765
				c3.163-4.689,5.662-8.392,3.358-10.687c-2.303-2.295-5.996,0.219-10.674,3.4c-1.398,0.952-3.473,2.362-4.9,3.096
				c0.455-0.967,1.349-2.514,3.012-4.979c0.537-0.794,0.434-1.858-0.246-2.535l-8.475-8.444c-0.971,0.917-1.908,1.86-2.823,2.833
				l7.312,7.285c-2.695,4.114-4.344,7.417-2.303,9.451c2.304,2.295,5.997-0.219,10.674-3.4c1.351-0.918,3.328-2.264,4.748-3.017
				c-0.746,1.422-2.086,3.406-2.999,4.76c-3.164,4.688-5.663,8.393-3.358,10.688c2.304,2.295,5.998-0.216,10.676-3.396
				c1.402-0.954,3.482-2.369,4.91-3.1c-0.452,0.969-1.346,2.519-3.013,4.99c-0.413,0.612-0.455,1.403-0.108,2.056
				c0.135,0.254,0.318,0.47,0.537,0.64c0.372,0.342,7.148,6.32,10.177,8.605c0.395,0.298,0.948,0.263,1.302-0.084
				C87.053,86.369,87.101,85.815,86.811,85.415z"/>
		</g>
		<g>
			<path style="fill:#D7FCF9;" d="M35.074,46.642c4.312-3.454,7.85-7.008,11.287-11.34l-0.515-0.512
				c-1.565-1.56-4.097-1.555-5.656,0.01l-5.646,5.667c-1.559,1.565-1.556,4.098,0.01,5.657L35.074,46.642z"/>
		</g>
		<g>
			<g>
				<path style="fill:#0A3631;" d="M67.185,36.328c-15.068,9.456-21.655,16.067-31.056,31.169
					c-5.661-1.876-10.855-7.051-12.752-12.705c15.068-9.456,21.656-16.068,31.057-31.169C60.094,25.498,65.288,30.674,67.185,36.328
					z"/>
			</g>
		</g>
		<g>
			<path style="fill:#14635B;" d="M54.434,23.623c-9.4,15.102-15.988,21.713-31.057,31.169c0.913,2.722,2.596,5.33,4.723,7.516
				l33.93-33.93C59.823,26.231,57.186,24.535,54.434,23.623z"/>
		</g>
	</g>
</g>
<g id="Red" style="display:none;">
	<g style="display:inline;">
		<g>
			<path style="fill:#FFFFFF;" d="M86.811,85.415c-1.766-2.444-7.102-8.42-7.779-9.066c2.692-4.111,4.333-7.411,2.291-9.446
				c-2.305-2.296-5.999,0.216-10.677,3.396c-1.352,0.918-3.334,2.267-4.754,3.019c0.747-1.423,2.087-3.41,3.002-4.765
				c3.163-4.689,5.662-8.392,3.358-10.687c-2.303-2.295-5.996,0.219-10.674,3.4c-1.398,0.952-3.473,2.362-4.9,3.096
				c0.455-0.967,1.349-2.514,3.012-4.979c0.537-0.794,0.434-1.858-0.246-2.535l-8.475-8.444c-0.971,0.917-1.908,1.86-2.823,2.833
				l7.312,7.285c-2.695,4.114-4.344,7.417-2.303,9.451c2.304,2.295,5.997-0.219,10.674-3.4c1.351-0.918,3.328-2.264,4.748-3.017
				c-0.746,1.422-2.086,3.406-2.999,4.76c-3.164,4.688-5.663,8.393-3.358,10.688c2.304,2.295,5.998-0.216,10.676-3.396
				c1.402-0.954,3.482-2.369,4.91-3.1c-0.452,0.969-1.346,2.519-3.013,4.99c-0.413,0.612-0.455,1.403-0.108,2.056
				c0.135,0.254,0.318,0.47,0.537,0.64c0.372,0.342,7.148,6.32,10.177,8.605c0.395,0.298,0.948,0.263,1.302-0.084
				C87.053,86.369,87.101,85.815,86.811,85.415z"/>
		</g>
		<g>
			<path style="fill:#FFEFED;" d="M35.074,46.642c4.312-3.454,7.85-7.008,11.287-11.34l-0.515-0.512
				c-1.565-1.56-4.097-1.555-5.656,0.01l-5.646,5.667c-1.559,1.565-1.556,4.098,0.01,5.657L35.074,46.642z"/>
		</g>
		<g>
			<g>
				<path style="fill:#4A1410;" d="M67.185,36.328c-15.068,9.456-21.655,16.067-31.056,31.17
					c-5.661-1.876-10.856-7.051-12.752-12.705c15.068-9.456,21.656-16.068,31.057-31.17C60.094,25.498,65.288,30.674,67.185,36.328z
					"/>
			</g>
		</g>
		<g>
			<path style="fill:#7D261E;" d="M54.434,23.623c-9.4,15.102-15.988,21.713-31.057,31.17c0.913,2.722,2.596,5.33,4.723,7.516
				l33.93-33.93C59.823,26.23,57.186,24.535,54.434,23.623z"/>
		</g>
	</g>
</g>
<g id="R-Red" style="display:none;">
	<circle style="display:inline;fill:#FABBAF;" cx="55" cy="55" r="55"/>
	<g style="display:inline;">
		<g>
			<path style="fill:#FFFFFF;" d="M86.811,85.415c-1.766-2.444-7.102-8.42-7.779-9.066c2.692-4.111,4.333-7.411,2.291-9.446
				c-2.305-2.296-5.999,0.216-10.677,3.396c-1.352,0.918-3.334,2.267-4.754,3.019c0.747-1.423,2.087-3.41,3.002-4.765
				c3.163-4.689,5.662-8.392,3.358-10.687c-2.303-2.295-5.996,0.219-10.674,3.4c-1.398,0.952-3.473,2.362-4.9,3.096
				c0.455-0.967,1.349-2.514,3.012-4.979c0.537-0.794,0.434-1.858-0.246-2.535l-8.475-8.444c-0.971,0.917-1.908,1.86-2.823,2.833
				l7.312,7.285c-2.695,4.114-4.344,7.417-2.303,9.451c2.304,2.295,5.997-0.219,10.674-3.4c1.351-0.918,3.328-2.264,4.748-3.017
				c-0.746,1.422-2.086,3.406-2.999,4.76c-3.164,4.688-5.663,8.393-3.358,10.688c2.304,2.295,5.998-0.216,10.676-3.396
				c1.402-0.954,3.482-2.369,4.91-3.1c-0.452,0.969-1.346,2.519-3.013,4.99c-0.413,0.612-0.455,1.403-0.108,2.056
				c0.135,0.254,0.318,0.47,0.537,0.64c0.372,0.342,7.148,6.32,10.177,8.605c0.395,0.298,0.948,0.263,1.302-0.084
				C87.053,86.369,87.101,85.815,86.811,85.415z"/>
		</g>
		<g>
			<path style="fill:#FFEFED;" d="M35.074,46.642c4.312-3.454,7.85-7.008,11.287-11.34l-0.515-0.512
				c-1.565-1.56-4.097-1.555-5.656,0.01l-5.646,5.667c-1.559,1.565-1.556,4.098,0.01,5.657L35.074,46.642z"/>
		</g>
		<g>
			<g>
				<path style="fill:#4A1410;" d="M67.185,36.328c-15.068,9.456-21.655,16.067-31.056,31.17
					c-5.661-1.876-10.856-7.051-12.752-12.705c15.068-9.456,21.656-16.068,31.057-31.17C60.094,25.498,65.288,30.674,67.185,36.328z
					"/>
			</g>
		</g>
		<g>
			<path style="fill:#7D261E;" d="M54.434,23.623c-9.4,15.102-15.988,21.713-31.057,31.17c0.913,2.722,2.596,5.33,4.723,7.516
				l33.93-33.93C59.823,26.23,57.186,24.535,54.434,23.623z"/>
		</g>
	</g>
</g>
<g id="Yellow" style="display:none;">
	<g style="display:inline;">
		<g>
			<path style="fill:#FFFFFF;" d="M86.811,85.415c-1.766-2.444-7.102-8.421-7.779-9.066c2.692-4.111,4.333-7.411,2.291-9.446
				c-2.305-2.296-5.999,0.216-10.677,3.396c-1.352,0.919-3.334,2.267-4.754,3.019c0.747-1.423,2.087-3.41,3.002-4.765
				c3.163-4.689,5.662-8.392,3.358-10.687c-2.303-2.295-5.996,0.219-10.674,3.4c-1.398,0.952-3.473,2.362-4.9,3.096
				c0.455-0.967,1.349-2.514,3.012-4.979c0.537-0.794,0.434-1.858-0.246-2.535l-8.475-8.444c-0.971,0.917-1.908,1.86-2.823,2.833
				l7.312,7.285c-2.695,4.114-4.344,7.417-2.303,9.451c2.304,2.295,5.997-0.219,10.674-3.4c1.351-0.918,3.328-2.264,4.748-3.017
				c-0.746,1.422-2.086,3.406-2.999,4.76c-3.164,4.688-5.663,8.393-3.358,10.688c2.304,2.295,5.998-0.216,10.676-3.396
				c1.402-0.954,3.482-2.369,4.91-3.1c-0.452,0.969-1.346,2.519-3.013,4.99c-0.413,0.612-0.455,1.403-0.108,2.056
				c0.135,0.254,0.318,0.47,0.537,0.64c0.372,0.342,7.148,6.32,10.177,8.605c0.395,0.298,0.948,0.263,1.302-0.084
				C87.053,86.369,87.101,85.815,86.811,85.415z"/>
		</g>
		<g>
			<path style="fill:#FFF5D9;" d="M35.074,46.642c4.312-3.454,7.85-7.008,11.287-11.34l-0.515-0.512
				c-1.565-1.56-4.097-1.555-5.656,0.01l-5.646,5.667c-1.559,1.565-1.556,4.098,0.01,5.657L35.074,46.642z"/>
		</g>
		<g>
			<g>
				<path style="fill:#3D320C;" d="M67.185,36.328c-15.068,9.456-21.655,16.067-31.056,31.169
					c-5.661-1.876-10.855-7.051-12.752-12.705c15.068-9.456,21.656-16.068,31.057-31.169C60.094,25.498,65.288,30.674,67.185,36.328
					z"/>
			</g>
		</g>
		<g>
			<path style="fill:#66510D;" d="M54.434,23.623c-9.4,15.102-15.988,21.713-31.057,31.169c0.913,2.722,2.596,5.33,4.723,7.516
				l33.93-33.93C59.823,26.231,57.186,24.535,54.434,23.623z"/>
		</g>
	</g>
</g>
<g id="R-Yellow" style="display:none;">
	<circle style="display:inline;fill:#FFD75E;" cx="55" cy="55" r="55"/>
	<g style="display:inline;">
		<g>
			<path style="fill:#FFFFFF;" d="M86.81,85.415c-1.766-2.444-7.101-8.421-7.779-9.066c2.691-4.111,4.333-7.411,2.291-9.446
				c-2.305-2.296-5.999,0.216-10.677,3.396c-1.352,0.919-3.334,2.267-4.754,3.019c0.747-1.423,2.087-3.41,3.002-4.765
				c3.163-4.689,5.662-8.392,3.358-10.687c-2.303-2.295-5.996,0.219-10.674,3.4c-1.398,0.952-3.473,2.362-4.9,3.096
				c0.455-0.967,1.349-2.514,3.012-4.979c0.537-0.794,0.434-1.858-0.246-2.535l-8.475-8.444c-0.971,0.917-1.908,1.86-2.823,2.833
				l7.312,7.285c-2.695,4.114-4.344,7.417-2.303,9.451c2.304,2.295,5.997-0.219,10.674-3.4c1.351-0.918,3.328-2.264,4.748-3.017
				c-0.746,1.422-2.086,3.406-2.999,4.76c-3.164,4.688-5.663,8.393-3.358,10.688c2.304,2.295,5.998-0.216,10.676-3.396
				c1.402-0.954,3.483-2.369,4.91-3.1c-0.452,0.969-1.346,2.519-3.013,4.99c-0.413,0.612-0.455,1.403-0.108,2.056
				c0.135,0.254,0.318,0.47,0.537,0.64c0.372,0.342,7.148,6.32,10.177,8.605c0.395,0.298,0.948,0.263,1.302-0.084
				C87.053,86.369,87.101,85.815,86.81,85.415z"/>
		</g>
		<g>
			<path style="fill:#FFF5D9;" d="M35.074,46.642c4.312-3.454,7.85-7.008,11.287-11.34l-0.515-0.512
				c-1.566-1.56-4.097-1.555-5.656,0.01l-5.646,5.667c-1.559,1.565-1.556,4.098,0.01,5.657L35.074,46.642z"/>
		</g>
		<g>
			<g>
				<path style="fill:#3D320C;" d="M67.185,36.328c-15.068,9.456-21.655,16.067-31.056,31.169
					c-5.661-1.876-10.856-7.051-12.752-12.705c15.068-9.456,21.656-16.068,31.057-31.169C60.094,25.498,65.288,30.674,67.185,36.328
					z"/>
			</g>
		</g>
		<g>
			<path style="fill:#66510D;" d="M54.434,23.623c-9.4,15.102-15.988,21.713-31.057,31.169c0.913,2.722,2.596,5.33,4.723,7.516
				l33.93-33.93C59.823,26.231,57.185,24.535,54.434,23.623z"/>
		</g>
	</g>
</g>
</svg>
