<?xml version="1.0" encoding="iso-8859-1"?>
<!-- Generator: Adobe Illustrator 17.1.0, SVG Export Plug-In . SVG Version: 6.00 Build 0)  -->
<!DOCTYPE svg PUBLIC "-//W3C//DTD SVG 1.0//EN" "http://www.w3.org/TR/2001/REC-SVG-20010904/DTD/svg10.dtd">
<svg version="1.0" xmlns="http://www.w3.org/2000/svg" xmlns:xlink="http://www.w3.org/1999/xlink" x="0px" y="0px" width="110px"
	 height="110px" viewBox="0 0 110 110" style="enable-background:new 0 0 110 110;" xml:space="preserve">
<g id="Artboard" style="display:none;">
	<rect x="-72.5" y="-34.5" style="display:inline;fill:#808080;stroke:#000000;stroke-miterlimit:10;" width="1392" height="1369"/>
</g>
<g id="R-Multicolor">
	<circle style="fill:#25B7D3;" cx="55" cy="55" r="55"/>
	<g>
		<path style="fill:#C9F2F8;" d="M58.007,79.073c-0.005-5.234-0.016-20.045,0.05-20.325C57.051,58.912,56.027,59,54.992,59
			c-1.023,0-2.036-0.087-3.031-0.248c0.064,0.282,0.054,15.087,0.049,20.32C44.608,79.424,39.009,81.047,39.009,83
			c0,2.209,7.163,4,16,4c8.836,0,16-1.791,16-4C71.009,81.047,65.409,79.424,58.007,79.073z"/>
		<g>
			<path style="fill:#C9F2F8;" d="M73.512,35.638c1.33,5.653,0.003,11.603-3.602,16.155C66.304,56.346,60.816,59,55.009,59
				s-11.295-2.654-14.901-7.207c-3.605-4.552-4.932-10.503-3.602-16.155L39.009,25h32L73.512,35.638z"/>
		</g>
		<g>
			<path style="fill:#FFFFFF;" d="M39.009,25l-2.503,10.638c-1.33,5.653-0.003,11.603,3.602,16.156S49.201,59,55.009,59V25H39.009z"
				/>
		</g>
		<g>
			<path style="fill:#DF2C2C;" d="M36.225,43c0.509,3.175,1.819,6.209,3.866,8.793C43.697,56.346,49.185,59,54.992,59
				s11.295-2.654,14.901-7.207c2.046-2.584,3.356-5.619,3.866-8.793H36.225z"/>
		</g>
		<path style="fill:#FFFFFF;" d="M55,59c-1.026-0.001-2.042-0.088-3.039-0.25c0.064,0.282,0.055,15.09,0.05,20.323
			C44.608,79.424,39.009,81.047,39.009,83c0,2.209,7.163,4,16,4V59C55.006,59,55.003,59,55,59z"/>
		<g>
			<path style="fill:#FA5655;" d="M40.108,51.793C43.711,56.344,49.196,58.997,55,59c0.003,0,0.006,0,0.008,0V43H36.242
				C36.751,46.175,38.061,49.209,40.108,51.793z"/>
		</g>
	</g>
</g>
<g id="Multicolor" style="display:none;">
	<g style="display:inline;">
		<path style="fill:#C9F2F8;" d="M58.007,79.073c-0.005-5.234-0.016-20.045,0.05-20.325C57.051,58.912,56.027,59,54.992,59
			c-1.023,0-2.036-0.087-3.031-0.248c0.064,0.282,0.054,15.087,0.049,20.32C44.608,79.424,39.009,81.047,39.009,83
			c0,2.209,7.163,4,16,4c8.836,0,16-1.791,16-4C71.009,81.047,65.409,79.424,58.007,79.073z"/>
		<g>
			<path style="fill:#C9F2F8;" d="M73.512,35.638c1.33,5.653,0.003,11.603-3.602,16.155C66.304,56.346,60.816,59,55.009,59
				s-11.295-2.654-14.901-7.207c-3.605-4.552-4.932-10.503-3.602-16.155L39.009,25h32L73.512,35.638z"/>
		</g>
		<g>
			<path style="fill:#FFFFFF;" d="M39.009,25l-2.503,10.638c-1.33,5.653-0.003,11.603,3.602,16.156S49.201,59,55.009,59V25H39.009z"
				/>
		</g>
		<g>
			<path style="fill:#DF2C2C;" d="M36.225,43c0.509,3.175,1.819,6.209,3.866,8.793C43.697,56.346,49.185,59,54.992,59
				s11.295-2.654,14.901-7.207c2.046-2.584,3.356-5.619,3.866-8.793H36.225z"/>
		</g>
		<path style="fill:#FFFFFF;" d="M55,59c-1.026-0.001-2.042-0.088-3.039-0.25c0.064,0.282,0.055,15.09,0.05,20.323
			C44.608,79.424,39.009,81.047,39.009,83c0,2.209,7.163,4,16,4V59C55.006,59,55.003,59,55,59z"/>
		<g>
			<path style="fill:#FA5655;" d="M40.108,51.793C43.711,56.344,49.196,58.997,55,59c0.003,0,0.006,0,0.008,0V43H36.242
				C36.751,46.175,38.061,49.209,40.108,51.793z"/>
		</g>
	</g>
</g>
<g id="Blue" style="display:none;">
	<g style="display:inline;">
		<path style="fill:#E1F5FA;" d="M58.007,79.073c-0.005-5.234-0.016-20.045,0.05-20.325C57.051,58.912,56.027,59,54.992,59
			c-1.023,0-2.036-0.087-3.031-0.248c0.065,0.282,0.055,15.087,0.049,20.32C44.608,79.424,39.009,81.047,39.009,83
			c0,2.209,7.163,4,16,4s16-1.791,16-4C71.009,81.047,65.408,79.424,58.007,79.073z"/>
		<g>
			<path style="fill:#E1F5FA;" d="M73.512,35.638c1.33,5.653,0.003,11.604-3.603,16.156C66.304,56.346,60.815,59,55.008,59
				c-5.807,0-11.295-2.654-14.9-7.207c-3.605-4.552-4.932-10.503-3.601-16.156L39.008,25h32L73.512,35.638z"/>
		</g>
		<g>
			<path style="fill:#FFFFFF;" d="M39.008,25l-2.502,10.638c-1.33,5.652-0.004,11.603,3.601,16.155
				C43.713,56.346,49.201,59,55.008,59V25H39.008z"/>
		</g>
		<g>
			<path style="fill:#0081A1;" d="M36.225,43c0.51,3.175,1.82,6.209,3.866,8.793C43.696,56.346,49.185,59,54.992,59
				c5.807,0,11.295-2.654,14.9-7.207c2.047-2.584,3.356-5.619,3.865-8.793H36.225z"/>
		</g>
		<path style="fill:#FFFFFF;" d="M55,59c-1.026-0.001-2.041-0.088-3.039-0.25c0.065,0.282,0.055,15.09,0.05,20.323
			C44.608,79.424,39.009,81.047,39.009,83c0,2.209,7.163,4,16,4V59C55.006,59,55.003,59,55,59z"/>
		<g>
			<path style="fill:#009FC7;" d="M40.107,51.793C43.711,56.344,49.196,58.997,55,59c0.003,0,0.006,0,0.008,0V43H36.242
				C36.751,46.175,38.062,49.209,40.107,51.793z"/>
		</g>
	</g>
</g>
<g id="R-Blue" style="display:none;">
	<circle style="display:inline;fill:#81D2EB;" cx="55" cy="55" r="55"/>
	<g style="display:inline;">
		<path style="fill:#E1F5FA;" d="M58.007,79.073c-0.005-5.234-0.016-20.045,0.05-20.325C57.051,58.912,56.027,59,54.992,59
			c-1.023,0-2.036-0.087-3.031-0.248c0.065,0.282,0.055,15.087,0.049,20.32C44.608,79.424,39.009,81.047,39.009,83
			c0,2.208,7.163,4,16,4s16-1.792,16-4C71.009,81.047,65.408,79.424,58.007,79.073z"/>
		<g>
			<path style="fill:#E1F5FA;" d="M73.512,35.638c1.33,5.653,0.003,11.604-3.603,16.156C66.304,56.346,60.815,59,55.008,59
				c-5.807,0-11.295-2.654-14.9-7.207c-3.605-4.552-4.932-10.503-3.601-16.156L39.008,25h32L73.512,35.638z"/>
		</g>
		<g>
			<path style="fill:#FFFFFF;" d="M39.008,25l-2.502,10.638c-1.33,5.652-0.004,11.603,3.601,16.155
				C43.713,56.346,49.201,59,55.008,59V25H39.008z"/>
		</g>
		<g>
			<path style="fill:#0081A1;" d="M36.225,43c0.51,3.175,1.82,6.209,3.866,8.793C43.696,56.346,49.185,59,54.992,59
				c5.807,0,11.295-2.654,14.9-7.207c2.047-2.584,3.356-5.619,3.865-8.793H36.225z"/>
		</g>
		<path style="fill:#FFFFFF;" d="M55,59c-1.026-0.001-2.041-0.088-3.039-0.25c0.065,0.282,0.055,15.09,0.05,20.323
			C44.608,79.424,39.009,81.047,39.009,83c0,2.208,7.163,4,16,4V58.999C55.006,58.999,55.003,59,55,59z"/>
		<g>
			<path style="fill:#009FC7;" d="M40.107,51.793C43.711,56.344,49.196,58.997,55,59c0.003,0,0.006,0,0.008,0V43H36.242
				C36.751,46.175,38.062,49.209,40.107,51.793z"/>
		</g>
	</g>
</g>
<g id="Green" style="display:none;">
	<g style="display:inline;">
		<path style="fill:#D7FCF9;" d="M58.007,79.073c-0.005-5.234-0.016-20.045,0.05-20.325C57.051,58.912,56.027,59,54.992,59
			c-1.023,0-2.036-0.087-3.031-0.248c0.065,0.282,0.055,15.087,0.049,20.32C44.608,79.424,39.009,81.047,39.009,83
			c0,2.209,7.163,4,16,4s16-1.791,16-4C71.009,81.047,65.408,79.424,58.007,79.073z"/>
		<g>
			<path style="fill:#D7FCF9;" d="M73.512,35.638c1.33,5.653,0.003,11.604-3.603,16.156C66.304,56.346,60.815,59,55.008,59
				c-5.807,0-11.295-2.654-14.9-7.207c-3.605-4.552-4.932-10.503-3.601-16.156L39.008,25h32L73.512,35.638z"/>
		</g>
		<g>
			<path style="fill:#FFFFFF;" d="M39.008,25l-2.502,10.638c-1.33,5.652-0.004,11.603,3.601,16.155
				C43.713,56.346,49.201,59,55.008,59V25H39.008z"/>
		</g>
		<g>
			<path style="fill:#009687;" d="M36.225,43c0.51,3.175,1.82,6.209,3.866,8.793C43.696,56.346,49.185,59,54.992,59
				c5.807,0,11.295-2.654,14.9-7.207c2.047-2.584,3.356-5.619,3.865-8.793H36.225z"/>
		</g>
		<path style="fill:#FFFFFF;" d="M55,59c-1.026-0.001-2.041-0.088-3.039-0.25c0.065,0.282,0.055,15.09,0.05,20.323
			C44.608,79.424,39.009,81.047,39.009,83c0,2.209,7.163,4,16,4V59C55.006,59,55.003,59,55,59z"/>
		<g>
			<path style="fill:#00B8A5;" d="M40.107,51.793C43.711,56.344,49.196,58.997,55,59c0.003,0,0.006,0,0.008,0V43H36.242
				C36.751,46.175,38.061,49.209,40.107,51.793z"/>
		</g>
	</g>
</g>
<g id="R-Green" style="display:none;">
	<circle style="display:inline;fill:#77E0C4;" cx="55" cy="55" r="55"/>
	<g style="display:inline;">
		<path style="fill:#D7FCF9;" d="M58.007,79.073c-0.005-5.234-0.016-20.045,0.05-20.325C57.051,58.912,56.027,59,54.992,59
			c-1.023,0-2.036-0.087-3.031-0.248c0.064,0.282,0.055,15.087,0.049,20.32C44.608,79.424,39.009,81.047,39.009,83
			c0,2.209,7.163,4,16,4s16-1.791,16-4C71.009,81.047,65.408,79.424,58.007,79.073z"/>
		<g>
			<path style="fill:#D7FCF9;" d="M73.512,35.638c1.33,5.653,0.003,11.604-3.603,16.156C66.304,56.346,60.815,59,55.008,59
				c-5.807,0-11.295-2.654-14.9-7.207c-3.605-4.552-4.932-10.503-3.601-16.156L39.008,25h32L73.512,35.638z"/>
		</g>
		<g>
			<path style="fill:#FFFFFF;" d="M39.008,25l-2.502,10.638c-1.33,5.652-0.004,11.603,3.601,16.155
				C43.713,56.346,49.201,59,55.008,59V25H39.008z"/>
		</g>
		<g>
			<path style="fill:#009687;" d="M36.225,43c0.51,3.175,1.82,6.209,3.866,8.793C43.696,56.346,49.185,59,54.992,59
				c5.807,0,11.295-2.654,14.9-7.207c2.047-2.584,3.356-5.619,3.865-8.793H36.225z"/>
		</g>
		<path style="fill:#FFFFFF;" d="M55,59c-1.026-0.001-2.041-0.088-3.039-0.25c0.064,0.282,0.055,15.09,0.05,20.323
			C44.608,79.424,39.009,81.047,39.009,83c0,2.209,7.163,4,16,4V59C55.006,59,55.003,59,55,59z"/>
		<g>
			<path style="fill:#00B8A5;" d="M40.107,51.793C43.711,56.344,49.196,58.997,55,59c0.003,0,0.006,0,0.008,0V43H36.242
				C36.751,46.175,38.062,49.209,40.107,51.793z"/>
		</g>
	</g>
</g>
<g id="Red" style="display:none;">
	<g style="display:inline;">
		<path style="fill:#FFEFED;" d="M58.007,79.073c-0.005-5.234-0.016-20.045,0.05-20.325C57.051,58.912,56.027,59,54.992,59
			c-1.023,0-2.036-0.087-3.031-0.248c0.064,0.282,0.055,15.087,0.049,20.32C44.608,79.424,39.009,81.047,39.009,83
			c0,2.209,7.163,4,16,4s16-1.791,16-4C71.009,81.047,65.408,79.424,58.007,79.073z"/>
		<g>
			<path style="fill:#FFEFED;" d="M73.512,35.638c1.33,5.653,0.003,11.604-3.603,16.156C66.304,56.346,60.815,59,55.008,59
				c-5.807,0-11.295-2.654-14.9-7.206c-3.605-4.552-4.932-10.503-3.601-16.156L39.008,25h32L73.512,35.638z"/>
		</g>
		<g>
			<path style="fill:#FFFFFF;" d="M39.008,25l-2.502,10.638c-1.33,5.652-0.004,11.603,3.601,16.155
				C43.713,56.346,49.201,59,55.008,59V25H39.008z"/>
		</g>
		<g>
			<path style="fill:#C23023;" d="M36.225,43c0.51,3.175,1.82,6.21,3.866,8.794C43.696,56.346,49.185,59,54.992,59
				c5.807,0,11.295-2.654,14.9-7.206c2.047-2.584,3.356-5.619,3.865-8.794H36.225z"/>
		</g>
		<path style="fill:#FFFFFF;" d="M55,59c-1.026-0.001-2.041-0.088-3.039-0.25c0.064,0.282,0.055,15.09,0.05,20.323
			C44.608,79.424,39.009,81.047,39.009,83c0,2.209,7.163,4,16,4V59C55.006,59,55.003,59,55,59z"/>
		<g>
			<path style="fill:#E54B44;" d="M40.107,51.794C43.711,56.344,49.196,58.997,55,59c0.003,0,0.006,0,0.008,0V43H36.242
				C36.751,46.175,38.062,49.21,40.107,51.794z"/>
		</g>
	</g>
</g>
<g id="R-Red" style="display:none;">
	<circle style="display:inline;fill:#FABBAF;" cx="55" cy="55" r="55"/>
	<g style="display:inline;">
		<path style="fill:#FFEFED;" d="M58.007,79.073c-0.005-5.234-0.016-20.045,0.05-20.325C57.051,58.912,56.027,59,54.992,59
			c-1.023,0-2.036-0.087-3.031-0.248c0.064,0.282,0.055,15.087,0.049,20.32C44.608,79.424,39.009,81.047,39.009,83
			c0,2.209,7.163,4,16,4s16-1.791,16-4C71.009,81.047,65.408,79.424,58.007,79.073z"/>
		<g>
			<path style="fill:#FFEFED;" d="M73.512,35.638c1.33,5.653,0.003,11.604-3.603,16.156C66.304,56.346,60.815,59,55.008,59
				c-5.807,0-11.295-2.654-14.9-7.206c-3.605-4.552-4.932-10.503-3.601-16.156L39.008,25h32L73.512,35.638z"/>
		</g>
		<g>
			<path style="fill:#FFFFFF;" d="M39.008,25l-2.502,10.638c-1.33,5.652-0.004,11.603,3.601,16.155
				C43.713,56.346,49.201,59,55.008,59V25H39.008z"/>
		</g>
		<g>
			<path style="fill:#C23023;" d="M36.225,43c0.51,3.175,1.82,6.21,3.866,8.794C43.696,56.346,49.185,59,54.992,59
				c5.807,0,11.295-2.654,14.9-7.206c2.047-2.584,3.356-5.619,3.865-8.794H36.225z"/>
		</g>
		<path style="fill:#FFFFFF;" d="M55,59c-1.026-0.001-2.041-0.088-3.039-0.25c0.064,0.282,0.055,15.09,0.05,20.323
			C44.608,79.424,39.009,81.047,39.009,83c0,2.209,7.163,4,16,4V59C55.006,59,55.003,59,55,59z"/>
		<g>
			<path style="fill:#E54B44;" d="M40.107,51.794C43.711,56.344,49.196,58.997,55,59c0.003,0,0.006,0,0.008,0V43H36.242
				C36.751,46.175,38.062,49.21,40.107,51.794z"/>
		</g>
	</g>
</g>
<g id="Yellow" style="display:none;">
	<g style="display:inline;">
		<path style="fill:#FFF5D9;" d="M58.007,79.073c-0.005-5.234-0.016-20.045,0.05-20.325C57.051,58.912,56.027,59,54.992,59
			c-1.023,0-2.036-0.087-3.031-0.248c0.064,0.282,0.055,15.087,0.049,20.32C44.608,79.424,39.009,81.047,39.009,83
			c0,2.209,7.163,4,16,4s16-1.791,16-4C71.009,81.047,65.408,79.424,58.007,79.073z"/>
		<g>
			<path style="fill:#FFF5D9;" d="M73.512,35.638c1.33,5.653,0.003,11.604-3.603,16.156C66.304,56.346,60.815,59,55.008,59
				c-5.807,0-11.295-2.654-14.9-7.207c-3.605-4.552-4.932-10.503-3.601-16.156L39.008,25h32L73.512,35.638z"/>
		</g>
		<g>
			<path style="fill:#FFFFFF;" d="M39.008,25l-2.502,10.638c-1.33,5.652-0.004,11.603,3.601,16.155
				C43.713,56.346,49.201,59,55.008,59V25H39.008z"/>
		</g>
		<g>
			<path style="fill:#E07000;" d="M36.225,43c0.51,3.175,1.82,6.209,3.866,8.793C43.696,56.346,49.185,59,54.992,59
				c5.807,0,11.295-2.654,14.9-7.207c2.047-2.584,3.356-5.619,3.865-8.793H36.225z"/>
		</g>
		<path style="fill:#FFFFFF;" d="M55,59c-1.026-0.001-2.041-0.088-3.039-0.25c0.064,0.282,0.055,15.09,0.05,20.323
			C44.608,79.424,39.009,81.047,39.009,83c0,2.209,7.163,4,16,4V59C55.006,59,55.003,59,55,59z"/>
		<g>
			<path style="fill:#FA9200;" d="M40.107,51.793C43.711,56.344,49.196,58.997,55,59c0.003,0,0.006,0,0.008,0V43H36.242
				C36.751,46.175,38.062,49.209,40.107,51.793z"/>
		</g>
	</g>
</g>
<g id="R-Yellow" style="display:none;">
	<circle style="display:inline;fill:#FFD75E;" cx="55" cy="55" r="55"/>
	<g style="display:inline;">
		<path style="fill:#FFF5D9;" d="M58.007,79.073c-0.005-5.234-0.016-20.045,0.05-20.325C57.051,58.912,56.027,59,54.992,59
			c-1.023,0-2.036-0.087-3.031-0.248c0.065,0.282,0.055,15.087,0.049,20.32C44.608,79.424,39.009,81.047,39.009,83
			c0,2.209,7.163,4,16,4s16-1.791,16-4C71.009,81.047,65.408,79.424,58.007,79.073z"/>
		<g>
			<path style="fill:#FFF5D9;" d="M73.512,35.638c1.33,5.653,0.003,11.604-3.603,16.156C66.304,56.346,60.815,59,55.008,59
				c-5.807,0-11.295-2.654-14.9-7.207c-3.605-4.552-4.932-10.503-3.601-16.156L39.008,25h32L73.512,35.638z"/>
		</g>
		<g>
			<path style="fill:#FFFFFF;" d="M39.008,25l-2.502,10.638c-1.33,5.652-0.004,11.603,3.601,16.155
				C43.713,56.346,49.201,59,55.008,59V25H39.008z"/>
		</g>
		<g>
			<path style="fill:#E07000;" d="M36.225,43c0.51,3.175,1.82,6.209,3.866,8.793C43.696,56.346,49.185,59,54.992,59
				c5.807,0,11.295-2.654,14.9-7.207c2.047-2.584,3.356-5.619,3.865-8.793H36.225z"/>
		</g>
		<path style="fill:#FFFFFF;" d="M55,59c-1.026-0.001-2.041-0.088-3.039-0.25c0.065,0.282,0.055,15.09,0.05,20.323
			C44.608,79.424,39.009,81.047,39.009,83c0,2.209,7.163,4,16,4V59C55.006,59,55.003,59,55,59z"/>
		<g>
			<path style="fill:#FA9200;" d="M40.107,51.793C43.711,56.344,49.196,58.997,55,59c0.003,0,0.006,0,0.008,0V43H36.242
				C36.751,46.175,38.061,49.209,40.107,51.793z"/>
		</g>
	</g>
</g>
</svg>
