<?xml version="1.0" encoding="iso-8859-1"?>
<!-- Generator: Adobe Illustrator 17.1.0, SVG Export Plug-In . SVG Version: 6.00 Build 0)  -->
<!DOCTYPE svg PUBLIC "-//W3C//DTD SVG 1.0//EN" "http://www.w3.org/TR/2001/REC-SVG-20010904/DTD/svg10.dtd">
<svg version="1.0" xmlns="http://www.w3.org/2000/svg" xmlns:xlink="http://www.w3.org/1999/xlink" x="0px" y="0px" width="110px"
	 height="110px" viewBox="0 0 110 110" style="enable-background:new 0 0 110 110;" xml:space="preserve">
<g id="Artboard">
</g>
<g id="Multicolor">
	<g>
		<circle style="fill:#32BEA6;" cx="55" cy="55" r="55"/>
	</g>
	<g>
		<g>
			<path style="fill:#3E3E3F;" d="M72.698,28.72l1.827-0.87c1.176-0.564,2.592-0.067,3.157,1.109l0.019,0.048
				c0.564,1.176,0.067,2.592-1.11,3.157l-1.894,0.899l-11.138,5.806l-1.01,9.957L65.739,65H60l-5.103-12.348L50,65h-5.739
				l2.984-16.174l-0.903-9.948l-13.138-6.715c-1.176-0.564-1.674-1.98-1.109-3.157l0.019-0.048c0.564-1.176,1.98-1.674,3.157-1.109
				l12.932,5.672h13.391L72.698,28.72z"/>
		</g>
		<g>
			<polygon style="fill:#EBEBEC;" points="51.071,33.522 58.723,33.522 54.897,45 			"/>
		</g>
		<g>
			<polygon style="fill:#FA5655;" points="54.897,33.522 53.158,39.782 54.897,45 56.636,39.782 			"/>
		</g>
		<g>
			<circle style="fill:#F7B4B4;" cx="54.95" cy="28.261" r="5.261"/>
		</g>
		<g>
			<path style="fill:#692E19;" d="M60.211,27.998c-0.829,0.171-1.71,0.263-2.618,0.263c-2.946,0-5.563-0.986-7.246-2.525
				C51.241,24.105,52.977,23,54.963,23C57.778,23,60.079,25.209,60.211,27.998z"/>
		</g>
		<g>
			<path style="fill:#FFFFFF;" d="M71,75v-8c0-1.105-0.895-2-2-2H41c-1.105,0-2,0.895-2,2v8H25c-1.105,0-2,0.895-2,2v10h64V77
				c0-1.105-0.895-2-2-2H71z"/>
		</g>
		<g>
			<path style="fill:#F1F2F2;" d="M39,75H25c-1.104,0-2,0.896-2,2v10h16V75z"/>
		</g>
		<g>
			<path style="fill:#F1F2F2;" d="M71,75h14c1.104,0,2,0.896,2,2v10H71V75z"/>
		</g>
		<g>
			<path style="fill:#F7B4B4;" d="M35.27,27.85c-1.177-0.564-2.592-0.067-3.157,1.109l-0.019,0.048
				c-0.564,1.177-0.067,2.592,1.109,3.157l1.702,0.87l1.976-4.471L35.27,27.85z"/>
		</g>
		<g>
			<path style="fill:#F7B4B4;" d="M75.104,32.869l1.487-0.706c1.177-0.564,1.674-1.98,1.11-3.157l-0.019-0.048
				c-0.564-1.176-1.98-1.674-3.157-1.109l-1.647,0.785L75.104,32.869z"/>
		</g>
		<g>
			<g>
				<path style="fill:#FA5655;" d="M54.33,71.401c-0.421,0.109-1.418,0.405-1.823,0.405c-0.809,0-1.507-0.675-1.507-1.485
					c0-0.697,0.45-1.282,1.147-1.485c1.621-0.47,2.944-0.945,3.847-0.945h0.045c0.946,0,1.71,0.765,1.71,1.709v12.69
					c0,0.945-0.765,1.709-1.71,1.709c-0.945,0-1.709-0.765-1.709-1.709V71.401z"/>
			</g>
		</g>
		<path style="fill:#FBC8C8;" d="M55,23.005c-0.017,0-0.033-0.005-0.05-0.005c-2.905,0-5.261,2.355-5.261,5.261
			c0,2.906,2.355,5.261,5.261,5.261c0.017,0,0.033-0.005,0.05-0.005V23.005z"/>
		<path style="fill:#84462D;" d="M55,23.004c-0.013,0-0.024-0.004-0.037-0.004c-1.985,0-3.722,1.105-4.616,2.736
			c1.167,1.067,2.789,1.858,4.653,2.25V23.004z"/>
	</g>
</g>
</svg>
