<?xml version="1.0" encoding="iso-8859-1"?>
<!-- Generator: Adobe Illustrator 17.1.0, SVG Export Plug-In . SVG Version: 6.00 Build 0)  -->
<!DOCTYPE svg PUBLIC "-//W3C//DTD SVG 1.0//EN" "http://www.w3.org/TR/2001/REC-SVG-20010904/DTD/svg10.dtd">
<svg version="1.0" xmlns="http://www.w3.org/2000/svg" xmlns:xlink="http://www.w3.org/1999/xlink" x="0px" y="0px" width="110px"
	 height="110px" viewBox="0 0 110 110" style="enable-background:new 0 0 110 110;" xml:space="preserve">
<g id="Artboard">
</g>
<g id="Multicolor">
	<circle style="fill:#32BEA6;" cx="55" cy="55" r="55"/>
	<g>
		<path style="fill:#FFFFFF;" d="M82.96,84.6C80.014,70.164,68.595,65,55,65c-13.717,0-25.004,5.129-27.959,19.6
			c-0.12,0.59,0.03,1.2,0.41,1.67C27.831,86.73,28.4,87,29,87h52c0.6,0,1.17-0.27,1.55-0.73C82.93,85.8,83.08,85.19,82.96,84.6z"/>
		<path style="fill:#F0F1F1;" d="M69,27c0-2.209-1.791-4-4-4H45c-2.209,0-4,1.791-4,4v52h28V27z"/>
		<path style="fill:#FFFFFF;" d="M69,28v-1c0-2.209-1.791-4-4-4H45c-2.209,0-4,1.791-4,4v29L69,28z"/>
		<path style="fill:#CFD3D4;" d="M61,27c0,0.552-0.448,1-1,1H50c-0.552,0-1-0.448-1-1s0.448-1,1-1h10C60.552,26,61,26.448,61,27z"/>
		<path style="fill:#17B198;" d="M65,42c0,0.552-0.448,1-1,1H46c-0.552,0-1-0.448-1-1V32c0-0.552,0.448-1,1-1h18
			c0.552,0,1,0.448,1,1V42z"/>
		<path style="fill:#4AC3AF;" d="M64,31H46c-0.552,0-1,0.448-1,1v10c0,0.552,0.448,1,1,1h8l11-11C65,31.448,64.552,31,64,31z"/>
		<g>
			<path style="fill:#CFD3D4;" d="M49,66c0,0.552-0.448,1-1,1h-2c-0.552,0-1-0.448-1-1v-2c0-0.552,0.448-1,1-1h2
				c0.552,0,1,0.448,1,1V66z"/>
			<path style="fill:#CFD3D4;" d="M57,66c0,0.552-0.448,1-1,1h-2c-0.552,0-1-0.448-1-1v-2c0-0.552,0.448-1,1-1h2
				c0.552,0,1,0.448,1,1V66z"/>
			<path style="fill:#CFD3D4;" d="M65,66c0,0.552-0.448,1-1,1h-2c-0.552,0-1-0.448-1-1v-2c0-0.552,0.448-1,1-1h2
				c0.552,0,1,0.448,1,1V66z"/>
			<path style="fill:#CFD3D4;" d="M49,74c0,0.552-0.448,1-1,1h-2c-0.552,0-1-0.448-1-1v-2c0-0.552,0.448-1,1-1h2
				c0.552,0,1,0.448,1,1V74z"/>
			<path style="fill:#CFD3D4;" d="M57,74c0,0.552-0.448,1-1,1h-2c-0.552,0-1-0.448-1-1v-2c0-0.552,0.448-1,1-1h2
				c0.552,0,1,0.448,1,1V74z"/>
			<path style="fill:#CFD3D4;" d="M65,74c0,0.552-0.448,1-1,1h-2c-0.552,0-1-0.448-1-1v-2c0-0.552,0.448-1,1-1h2
				c0.552,0,1,0.448,1,1V74z"/>
		</g>
		<path style="fill:#FA5655;" d="M77,83c0,1.105-0.895,2-2,2l0,0c-1.105,0-2-0.895-2-2l0,0c0-1.105,0.895-2,2-2l0,0
			C76.105,81,77,81.895,77,83L77,83z"/>
		<circle style="fill:#CFD3D4;" cx="55" cy="53.188" r="4"/>
		<path style="fill:#FFFFFF;" d="M55,49.188c2.209,0,4,1.791,4,4c0,2.209-1.791,4-4,4s-4-1.791-4-4
			C51,50.979,52.79,49.188,55,49.188 M55,47.188c-3.308,0-6,2.691-6,6c0,3.309,2.692,6,6,6s6-2.691,6-6
			C61,49.879,58.308,47.188,55,47.188L55,47.188z"/>
	</g>
</g>
</svg>
