<?xml version="1.0" encoding="iso-8859-1"?>
<!-- Generator: Adobe Illustrator 17.1.0, SVG Export Plug-In . SVG Version: 6.00 Build 0)  -->
<!DOCTYPE svg PUBLIC "-//W3C//DTD SVG 1.0//EN" "http://www.w3.org/TR/2001/REC-SVG-20010904/DTD/svg10.dtd">
<svg version="1.0" xmlns="http://www.w3.org/2000/svg" xmlns:xlink="http://www.w3.org/1999/xlink" x="0px" y="0px" width="110px"
	 height="110px" viewBox="0 0 110 110" style="enable-background:new 0 0 110 110;" xml:space="preserve">
<g id="Artboard">
</g>
<g id="Multicolor">
	<g>
		<path style="fill:#FABC3D;" d="M110.018,54.976c0,30.362-24.651,56.302-54.994,54.976C23.324,108.566-0.595,84.686,0.03,54.976
			C0.669,24.62,24.652,0,55.024,0S110.018,24.613,110.018,54.976z"/>
	</g>
	<g>
		<g>
			<path style="fill:#059BBF;" d="M55,72h10l13.241,2.872c2.371,0.711,4.279,2.48,5.168,4.791L87,87H55V72z"/>
		</g>
		<g>
			<polygon style="fill:#FFFFFF;" points="67.465,72.535 55,85 55,82 65,72 			"/>
		</g>
		<g>
			<path style="fill:#FFFFFF;" d="M71.168,83.82H70.5v1.56h-1.733v-1.56h-2.523l-0.577-1.064l3.343-4.549h1.49v4.144h0.669V83.82z
				 M68.899,82.371l0.02-1.834l-1.287,1.834H68.899z"/>
			<path style="fill:#FFFFFF;" d="M73.219,83.262c0.264,0.436,0.719,0.598,1.135,0.598c0.497,0,0.942-0.284,0.942-0.689v-0.74
				c-1.378,1.003-3.536,0.101-3.536-1.682v-0.425c0-1.479,1.277-2.219,2.614-2.219s2.634,0.729,2.654,2.219v2.857
				c0,1.469-1.327,2.3-2.654,2.3c-0.993,0-1.986-0.426-2.442-1.368L73.219,83.262z M73.492,80.8c0,0.76,1.803,0.75,1.803,0v-0.537
				c0-0.75-1.803-0.76-1.803,0V80.8z"/>
		</g>
		<g>
			<path style="fill:#059BBF;" d="M55,72H45l-13.241,2.872c-2.371,0.711-4.279,2.48-5.168,4.791L23,87h32V72z"/>
		</g>
		<g>
			<polygon style="fill:#FFFFFF;" points="42.535,72.535 55,85 55,82 45,72 			"/>
		</g>
		<path style="fill:#F7B4B4;" d="M55,71v11l10-10v-8.567C62.159,67.829,58.284,69.905,55,71z"/>
		<path style="fill:#FBC8C8;" d="M45,63.433V72l10,10V71C51.716,69.905,47.841,67.829,45,63.433z"/>
		<path style="fill:#FBC8C8;" d="M70,47c-0.277,0-0.633,0-1,0c0-0.007,0-0.014,0-0.021C68.982,37.971,67.976,30,55,30
			s-13.982,7.971-14,16.979c0,0.007,0,0.014,0,0.021c-0.368,0-0.723,0-1,0c-1,0-2,1.111-2,2.222c0,3.091,0.864,7.13,4.178,7.703
			C44.62,66.027,50.396,69.465,55,71c4.604-1.535,10.38-4.973,12.822-14.075C71.136,56.353,72,52.313,72,49.222
			C72,48.111,71,47,70,47z"/>
		<path style="fill:#FBD7D7;" d="M41,46.979c0,0.007,0,0.014,0,0.021c-0.368,0-0.723,0-1,0c-1,0-2,1.111-2,2.222
			c0,3.091,0.864,7.13,4.178,7.703C44.62,66.027,50.396,69.465,55,71V30C42.024,30,41.018,37.971,41,46.979z"/>
		<g>
			<path style="fill:#F79392;" d="M50,60h10c0,0,0,3-5,3S50,60,50,60z"/>
		</g>
		<g>
			<path style="fill:#3E3E3F;" d="M52.006,49c0-1.104-0.896-2-2-2c-0.002,0-0.004,0-0.006,0c0.001,0.021,0.006,0.041,0.006,0.062
				c0,1.103-0.892,1.996-1.994,2C48.046,50.137,48.923,51,50.006,51C51.111,51,52.006,50.104,52.006,49z"/>
		</g>
		<g>
			<path style="fill:#3E3E3F;" d="M62,49c0-1.104-0.896-2-2-2c-0.002,0-0.004,0-0.006,0C59.995,47.021,60,47.042,60,47.063
				c0,1.103-0.892,1.996-1.994,2C58.04,50.137,58.917,51,60,51C61.104,51,62,50.104,62,49z"/>
		</g>
		<path style="fill:#84462D;" d="M60.973,29.539C61.292,26.02,58.527,23,54.989,23v0c-3.414,0-6.281,2.919-5.962,6.539
			C40.753,30.565,33.549,38.13,40,47c0.697,0.1,1.404,0.097,2.112,0.017l0.636,11.449C42.937,61.863,43.142,64.521,45,67V46.284
			C50.327,44.251,55,39,55,39v0c0,0,4.673,5.252,10,7.284V67c1.858-2.478,2.063-5.137,2.252-8.535l0.636-11.449
			C68.596,47.096,69.303,47.1,70,47C76.451,38.13,69.247,30.566,60.973,29.539z"/>
		<path style="fill:#9C6144;" d="M54.989,29.997V23C51.681,23.006,49,25.689,49,29c0,0.182,0.011,0.361,0.027,0.539
			C40.753,30.565,33.549,38.13,40,47c0.697,0.1,1.404,0.097,2.112,0.017l0.636,11.449C42.937,61.863,43.142,64.521,45,67V46.284
			C50.327,44.251,55,39,55,39v-9C54.997,29.999,54.993,29.998,54.989,29.997z"/>
	</g>
</g>
</svg>
