<?xml version="1.0" encoding="iso-8859-1"?>
<!-- Generator: Adobe Illustrator 17.1.0, SVG Export Plug-In . SVG Version: 6.00 Build 0)  -->
<!DOCTYPE svg PUBLIC "-//W3C//DTD SVG 1.0//EN" "http://www.w3.org/TR/2001/REC-SVG-20010904/DTD/svg10.dtd">
<svg version="1.0" xmlns="http://www.w3.org/2000/svg" xmlns:xlink="http://www.w3.org/1999/xlink" x="0px" y="0px" width="110px"
	 height="110px" viewBox="0 0 110 110" style="enable-background:new 0 0 110 110;" xml:space="preserve">
<g id="Artboard">
</g>
<g id="Multicolor">
	<g>
		<circle style="fill:#32BEA6;" cx="55" cy="55" r="55"/>
	</g>
	<g>
		<path style="fill:#BF8662;" d="M70,44c-0.277,0-0.633,0-1,0v-0.001C65.999,32.001,56,42,50,32v5c0,0-5.999-1-9,6.999V44
			c-0.368,0-0.723,0-1,0c-1,0-2,1.111-2,2.222c0,3.091,0.864,7.13,4.178,7.703C44.62,63.027,50.396,66.465,55,68
			c4.604-1.535,10.38-4.973,12.822-14.075C71.136,53.353,72,49.313,72,46.222C72,45.111,71,44,70,44z"/>
		<path style="fill:#CC9978;" d="M50,32v5c0,0-5.999-1-9,6.999V44c-0.368,0-0.723,0-1,0c-1,0-2,1.111-2,2.222
			c0,3.091,0.864,7.13,4.178,7.703C44.62,63.027,50.396,66.465,55,68V36.375C53.2,35.711,51.479,34.464,50,32z"/>
		<path style="fill:#3E3E3F;" d="M72,37c0-1.657-1.343-3-3-3c-0.293,0-0.572,0.056-0.84,0.134c-0.271-0.744-0.601-1.433-0.995-2.066
			C67.68,31.529,68,30.804,68,30c0-1.657-1.343-3-3-3c-0.988,0-1.857,0.484-2.404,1.221c-1.305-0.567-2.831-0.966-4.599-1.195
			C57.998,27.018,58,27.009,58,27c0-1.657-1.343-3-3-3c-1.606,0-2.907,1.266-2.985,2.854c-0.174,0.009-0.343,0.014-0.521,0.024
			c-1.575,0.095-3.011,0.47-4.295,1.094C46.65,27.378,45.872,27,45,27c-1.657,0-3,1.343-3,3c0,0.822,0.332,1.566,0.868,2.108
			c-0.357,0.629-0.674,1.311-0.94,2.053C41.634,34.065,41.326,34,41,34c-1.657,0-3,1.343-3,3c0,1.617,1.282,2.926,2.885,2.988
			C40.837,41.238,40.87,42.572,41,44c3-8,9-7,9-7v-5c6,10,16,0,19,12c0.119-1.424,0.164-2.76,0.133-4.014
			C70.727,39.916,72,38.611,72,37z"/>
		<path style="fill:#AF7653;" d="M83.409,77.663c-0.889-2.311-2.797-4.08-5.168-4.791L65,69.715v-9.283
			c-2.841,4.396-6.716,6.473-10,7.567c-3.284-1.095-7.159-3.171-10-7.567v9.283l-13.241,3.157c-2.371,0.711-4.279,2.48-5.168,4.791
			L23,87h32h32L83.409,77.663z"/>
		<path style="fill:#BF8662;" d="M45,60.433v9.283l-13.241,3.157c-2.371,0.711-4.279,2.48-5.168,4.791L23,87h32v-1.077V70v-2
			C51.716,66.905,47.841,64.829,45,60.433z"/>
		<g>
			<g>
				<polygon style="fill:#3E3E3F;" points="55,75.542 44.615,69.923 45,69 55,74.458 65,69 65.385,69.923 				"/>
			</g>
		</g>
		<g>
			<g>
				<path style="fill:#FFFFFF;" d="M55,74.58l1.386,3.346c0.232,0.561,0.104,1.206-0.325,1.635c-0.586,0.586-1.535,0.586-2.121,0
					c-0.429-0.429-0.557-1.074-0.325-1.635L55,74.58z"/>
			</g>
		</g>
		<g>
			<path style="fill:#3E3E3F;" d="M52,46c0-1.104-0.896-2-2-2c-0.002,0-0.004,0-0.006,0C49.995,44.021,50,44.042,50,44.062
				c0,1.103-0.892,1.996-1.994,2C48.04,47.137,48.917,48,50,48C51.104,48,52,47.104,52,46z"/>
		</g>
		<g>
			<path style="fill:#3E3E3F;" d="M61.994,46c0-1.104-0.896-2-2-2c-0.002,0-0.004,0-0.006,0c0.001,0.021,0.006,0.041,0.006,0.062
				c0,1.103-0.892,1.996-1.994,2C58.033,47.137,58.91,48,59.994,48C61.098,48,61.994,47.104,61.994,46z"/>
		</g>
		<g>
			<path style="fill:#84462D;" d="M50,57h10c0,0,0,3-5,3S50,57,50,57z"/>
		</g>
		<path style="fill:#FACB1B;" d="M81.443,74.733C73.348,79.349,63.986,82,54,82c-9.446,0-18.337-2.367-26.124-6.529
			c-0.534,0.652-0.975,1.387-1.285,2.192L23,87h32h32l-3.591-9.337C82.976,76.537,82.297,75.542,81.443,74.733z"/>
	</g>
</g>
</svg>
