<?xml version="1.0" encoding="iso-8859-1"?>
<!-- Generator: Adobe Illustrator 17.1.0, SVG Export Plug-In . SVG Version: 6.00 Build 0)  -->
<!DOCTYPE svg PUBLIC "-//W3C//DTD SVG 1.0//EN" "http://www.w3.org/TR/2001/REC-SVG-20010904/DTD/svg10.dtd">
<svg version="1.0" xmlns="http://www.w3.org/2000/svg" xmlns:xlink="http://www.w3.org/1999/xlink" x="0px" y="0px" width="110px"
	 height="110px" viewBox="0 0 110 110" style="enable-background:new 0 0 110 110;" xml:space="preserve">
<g id="Artboard">
</g>
<g id="Multicolor">
	<g>
		<circle style="fill:#E04F5F;" cx="55" cy="55" r="55"/>
	</g>
	<g>
		<path style="fill:#3E3E3F;" d="M75.382,72.268c-2.317-3.087-4.8-8.641-4.952-18.341c-0.518,0.5-1.153,0.867-1.931,1.035
			c-1.2,4.499-3.214,7.613-5.5,9.803v4.55L75.382,72.268z"/>
		<path style="fill:#BF8662;" d="M83.409,77.663c-0.889-2.311-2.797-4.08-5.168-4.791L62,69l-7,1l-7-1l-16.241,3.872
			c-2.371,0.711-4.279,2.48-5.168,4.791L23,87h32h32L83.409,77.663z"/>
		<g>
			<path style="fill:#CC9978;" d="M55,70l-7-1l-16.241,3.872c-2.371,0.711-4.279,2.48-5.168,4.791L23,87h32V70z"/>
		</g>
		<path style="fill:#FACB1B;" d="M71.917,71.077l-4-1v5.272c0,2.745-1.55,5.253-4.005,6.48l-8.87,4.435l-8.87-4.435
			c-2.455-1.227-4.005-3.736-4.005-6.48v-5.272l-4,1l-5,16h9H54h1h12.917h9L71.917,71.077z"/>
		<path style="fill:#AF7653;" d="M55.667,69.077c-3.549-1.183-7.789-3.511-10.667-8.679v11.679c0,0,2,4,10,4s10-4,10-4v-9.602
			C62.237,66.215,58.7,68.065,55.667,69.077z"/>
		<path style="fill:#BF8662;" d="M71.333,45.41c-6.921,0-11.985-5.404-11.941-14.882c-0.727,8.012-5.358,14.923-19.892,14.923
			c0-0.004,0-0.008,0-0.012c-0.573,0.417-1,1.135-1,1.859c0,3.145,0.893,7.274,4.353,7.732c2.446,9.08,8.215,12.513,12.814,14.046
			c4.61-1.537,10.398-4.983,12.833-14.115c3.164-0.687,4-4.629,4-7.663C72.5,46.257,71.362,45.049,71.333,45.41z"/>
		<path style="fill:#3E3E3F;" d="M59.5,28.077c-16-4-20.294,3.444-20,17.375c14.534,0,19.166-6.911,19.892-14.923
			c-0.044,9.478,5.02,14.882,11.941,14.882C72.167,34.827,71.083,26.077,59.5,28.077z"/>
		<g>
			<path style="fill:#3E3E3F;" d="M62.494,47.077c0-1.104-0.896-2-2-2c-0.002,0-0.004,0-0.006,0
				c0.001,0.021,0.006,0.041,0.006,0.062c0,1.103-0.892,1.996-1.994,2c0.033,1.075,0.91,1.938,1.994,1.938
				C61.598,49.077,62.494,48.181,62.494,47.077z"/>
		</g>
		<g>
			<path style="fill:#FFFFFF;" d="M69.32,55.077l1.527,3.687c0.256,0.618,0.114,1.329-0.358,1.801c-0.646,0.646-1.692,0.646-2.338,0
				c-0.473-0.473-0.614-1.184-0.358-1.801L69.32,55.077z"/>
		</g>
		<path style="fill:#3E3E3F;" d="M53.768,68.347c-4.185-1.826-8.796-5.451-10.915-13.316c-1.617-0.214-2.668-1.234-3.335-2.578H39.5
			c0.5,19.686,6.036,17.167,7.25,25.061c0.625,4.062-2.25,8.215-6.25,5.553c1.388,5.544,15.625,3.829,15.625-8.178
			C56.125,72.353,55.162,70.223,53.768,68.347z"/>
		<g>
			<path style="fill:#FFFFFF;" d="M40.32,55.077l1.527,3.687c0.256,0.618,0.114,1.329-0.358,1.801c-0.646,0.646-1.692,0.646-2.338,0
				c-0.473-0.473-0.614-1.184-0.358-1.801L40.32,55.077z"/>
		</g>
		<path style="fill:#CC9978;" d="M39.5,45.452c0-0.004,0-0.008,0-0.012c-0.573,0.417-1,1.135-1,1.859
			c0,3.145,0.893,7.274,4.353,7.732c2.446,9.08,8.215,12.513,12.814,14.046V39.955C52.687,43.277,47.651,45.452,39.5,45.452z"/>
		<g>
			<path style="fill:#3E3E3F;" d="M52.5,47.077c0-1.104-0.896-2-2-2c-0.002,0-0.004,0-0.006,0c0.001,0.021,0.006,0.041,0.006,0.062
				c0,1.103-0.892,1.996-1.994,2c0.033,1.075,0.91,1.938,1.994,1.938C51.604,49.077,52.5,48.181,52.5,47.077z"/>
		</g>
		<g>
			<path style="fill:#84462D;" d="M50.5,58.077h10c0,0,0,3-5,3S50.5,58.077,50.5,58.077z"/>
		</g>
	</g>
</g>
</svg>
