<?xml version="1.0" encoding="iso-8859-1"?>
<!-- Generator: Adobe Illustrator 17.1.0, SVG Export Plug-In . SVG Version: 6.00 Build 0)  -->
<!DOCTYPE svg PUBLIC "-//W3C//DTD SVG 1.0//EN" "http://www.w3.org/TR/2001/REC-SVG-20010904/DTD/svg10.dtd">
<svg version="1.0" xmlns="http://www.w3.org/2000/svg" xmlns:xlink="http://www.w3.org/1999/xlink" x="0px" y="0px" width="110px"
	 height="110px" viewBox="0 0 110 110" style="enable-background:new 0 0 110 110;" xml:space="preserve">
<g id="Artboard">
</g>
<g id="Multicolor">
	<g>
		<path style="fill:#25B7D3;" d="M110,54.976c0,30.362-24.651,56.302-54.994,54.976C23.305,108.566-0.613,84.686,0.012,54.976
			C0.651,24.62,24.634,0,55.006,0S110,24.613,110,54.976z"/>
	</g>
	<g>
		<path style="fill:#84462D;" d="M55.011,23L55.011,23c-0.004,0-0.007,0-0.011,0c-23.164,0-28.659,27.715-14.068,38.699L55,55
			l0.009,0.004l0.002,0.001l0,0l14.058,6.694C83.528,50.813,78.326,23.009,55.011,23z"/>
		<path style="fill:#9C6144;" d="M40.932,61.699L55,55V23C31.836,23,26.341,50.715,40.932,61.699z"/>
		<path style="fill:#F7B4B4;" d="M87,87l-3.591-9.337c-0.889-2.311-2.797-4.079-5.168-4.791L65,69.715v-8.283
			c-2.841,4.396-6.716,6.473-10,7.567c-3.284-1.094-7.159-3.171-10-7.567V72c0,0,2,4,10,4v11H87z"/>
		<path style="fill:#FBC8C8;" d="M45,61.433v8.283l-13.241,3.157c-2.371,0.711-4.279,2.48-5.168,4.791L23,87h32V69
			C51.716,67.906,47.841,65.829,45,61.433z"/>
		<path style="fill:#FFFFFF;" d="M72,71l-2.691-0.914C66.987,79.373,66,85.667,55,85.667s-11.987-6.293-14.309-15.581L38,71l-5,16
			h44L72,71z"/>
		<g>
			<g>
				<path style="fill:#FFFFFF;" d="M55.275,80.812l-0.374-0.076c-0.468-0.099-10.971-6.828-11.4-11.994
					c-0.023-0.275,0.182-0.517,0.457-0.54c0.275-0.023,0.517,0.182,0.54,0.457c0.349,4.212,8.895,10.062,10.462,10.999
					c3.14-2.007,10.54-7.475,10.54-10.957c0-0.276,0.224-0.5,0.5-0.5s0.5,0.224,0.5,0.5c0,4.599-9.692,10.962-11.084,11.852
					L55.275,80.812z"/>
			</g>
		</g>
		<g>
			<g>
				<path style="fill:#FA5655;" d="M54.948,85c0,0,4.052-2.337,4.052-4.921c0-2.583-4.052-2.519-4.052-0.547
					c0-1.972-4.052-2.037-4.052,0.746C50.896,83.06,54.948,85,54.948,85z"/>
			</g>
		</g>
		<path style="fill:#FBC8C8;" d="M70,45c-0.277,0-0.633,0-1,0c0-0.007,0-0.014,0-0.021c-0.002-1.032-0.019-2.049-0.063-3.044
			C68.63,41.973,68.318,42,68,42c-3.563,0-6.498-2.474-6.937-5.672C59.357,39.667,55.497,42,51,42c-3.969,0-7.436-2.033-9.368-4.903
			c-0.524,2.39-0.626,5.085-0.632,7.882c0,0.007,0,0.014,0,0.021c-0.368,0-0.723,0-1,0c-1,0-2,1.111-2,2.222
			c0,3.091,0.864,7.13,4.178,7.703C44.62,64.027,50.396,67.466,55,69c4.604-1.534,10.38-4.973,12.822-14.075
			C71.136,54.353,72,50.313,72,47.222C72,46.111,71,45,70,45z"/>
		<path style="fill:#FBD7D7;" d="M51,42c-3.969,0-7.436-2.033-9.368-4.903c-0.524,2.39-0.626,5.085-0.632,7.882
			c0,0.007,0,0.014,0,0.021c-0.368,0-0.723,0-1,0c-1,0-2,1.111-2,2.222c0,3.091,0.864,7.13,4.178,7.703
			C44.62,64.027,50.396,67.466,55,69V41.324C53.757,41.746,52.417,42,51,42z"/>
		<g>
			<path style="fill:#3E3E3F;" d="M52,47c0-1.104-0.896-2-2-2c-0.002,0-0.004,0-0.006,0C49.995,45.022,50,45.042,50,45.063
				c0,1.103-0.892,1.996-1.994,2C48.04,48.137,48.917,49,50,49C51.104,49,52,48.105,52,47z"/>
		</g>
		<g>
			<path style="fill:#3E3E3F;" d="M61.994,47c0-1.104-0.896-2-2-2c-0.002,0-0.004,0-0.006,0c0.001,0.021,0.006,0.041,0.006,0.062
				c0,1.103-0.892,1.996-1.994,2C58.033,48.137,58.91,49,59.994,49C61.098,49,61.994,48.105,61.994,47z"/>
		</g>
		<g>
			<path style="fill:#F79392;" d="M50,58h10c0,0,0,3-5,3S50,58,50,58z"/>
		</g>
	</g>
</g>
</svg>
