<?xml version="1.0" encoding="iso-8859-1"?>
<!-- Generator: Adobe Illustrator 17.1.0, SVG Export Plug-In . SVG Version: 6.00 Build 0)  -->
<!DOCTYPE svg PUBLIC "-//W3C//DTD SVG 1.0//EN" "http://www.w3.org/TR/2001/REC-SVG-20010904/DTD/svg10.dtd">
<svg version="1.0" xmlns="http://www.w3.org/2000/svg" xmlns:xlink="http://www.w3.org/1999/xlink" x="0px" y="0px" width="110px"
	 height="110px" viewBox="0 0 110 110" style="enable-background:new 0 0 110 110;" xml:space="preserve">
<g id="Artboard">
</g>
<g id="Multicolor">
	<g>
		<circle style="fill:#FABC3D;" cx="55" cy="55" r="55"/>
	</g>
	<g>
		<path style="fill:#84462D;" d="M72,58c0-8,0-16,0-16c0-9.389-7.611-17-17-17s-17,7.611-17,17c0,0,0,8,0,16c0,10-9,8-9,8s1,8,14,8
			c10.177,0,11.769,0,11.982,0c0.005,0,0.014,0,0.018,0c0.153,0,1.571,0,12,0c13,0,14-8,14-8S72,68,72,58z"/>
		<path style="fill:#9C6144;" d="M38,42c0,0,0,8,0,16c0,10-9,8-9,8s1,8,14,8c10.177,0,11.769,0,11.982,0c0.005,0,0.014,0,0.018,0V25
			C45.611,25,38,32.611,38,42z"/>
		<path style="fill:#40C9E7;" d="M83.409,77.663c-0.889-2.311-2.797-4.08-5.168-4.791L65,70H55H45l-13.241,2.872
			c-2.371,0.711-4.279,2.48-5.168,4.791L23,87h32h32L83.409,77.663z"/>
		<g>
			<g>
				<path style="fill:#FFFFFF;" d="M42,73.5c0,1.884,1.492,3.409,3.357,3.486C45.135,77.445,45,77.955,45,78.5
					c0,1.884,1.492,3.409,3.357,3.486C48.135,82.445,48,82.955,48,83.5c0,1.933,1.567,3.5,3.5,3.5c0.486,0,0.948-0.1,1.369-0.278
					l-7.847-16.674C43.317,70.283,42,71.73,42,73.5z"/>
			</g>
		</g>
		<g>
			<g>
				<path style="fill:#FFFFFF;" d="M68,73.5c0,1.884-1.492,3.409-3.357,3.486C64.865,77.445,65,77.955,65,78.5
					c0,1.884-1.492,3.409-3.357,3.486C61.865,82.445,62,82.955,62,83.5c0,1.933-1.567,3.5-3.5,3.5c-0.486,0-0.948-0.1-1.369-0.278
					l7.847-16.674C66.683,70.283,68,71.73,68,73.5z"/>
			</g>
		</g>
		<path style="fill:#F7B4B4;" d="M55,69v18h2l8-17v-8.567C62.159,65.829,58.284,67.905,55,69z"/>
		<path style="fill:#FBC8C8;" d="M45,61.433V70l8,17h2V69C51.716,67.905,47.841,65.829,45,61.433z"/>
		<path style="fill:#FBC8C8;" d="M70,45c-0.277,0-0.633,0-1,0c0-0.007,0-0.014,0-0.021c-0.004-1.901-0.053-3.754-0.249-5.498
			C68.117,41.514,66.242,43,64,43c-1.991,0-3.696-1.172-4.5-2.856C58.696,41.828,56.991,43,55,43s-3.696-1.172-4.5-2.856
			C49.696,41.828,47.991,43,46,43c-2.242,0-4.117-1.486-4.751-3.519c-0.195,1.744-0.245,3.597-0.249,5.498c0,0.007,0,0.014,0,0.021
			c-0.368,0-0.723,0-1,0c-1,0-2,1.111-2,2.222c0,3.091,0.864,7.13,4.178,7.703C44.62,64.027,50.396,67.465,55,69
			c4.604-1.535,10.38-4.973,12.822-14.075C71.136,54.353,72,50.313,72,47.222C72,46.111,71,45,70,45z"/>
		<g>
			<circle style="fill:#9CE5F4;" cx="36" cy="77" r="2"/>
		</g>
		<g>
			<circle style="fill:#9CE5F4;" cx="41" cy="83" r="2"/>
		</g>
		<g>
			<circle style="fill:#9CE5F4;" cx="29" cy="83" r="2"/>
		</g>
		<g>
			<circle style="fill:#9CE5F4;" cx="74" cy="77" r="2"/>
		</g>
		<g>
			<circle style="fill:#9CE5F4;" cx="69" cy="83" r="2"/>
		</g>
		<g>
			<circle style="fill:#9CE5F4;" cx="81" cy="83" r="2"/>
		</g>
		<path style="fill:#FBD7D7;" d="M50.5,40.144C49.696,41.828,47.991,43,46,43c-2.242,0-4.117-1.486-4.751-3.519
			c-0.195,1.744-0.245,3.597-0.249,5.498c0,0.007,0,0.014,0,0.021c-0.368,0-0.723,0-1,0c-1,0-2,1.111-2,2.222
			c0,3.091,0.864,7.13,4.178,7.703C44.62,64.027,50.396,67.465,55,69V43C53.009,43,51.304,41.828,50.5,40.144z"/>
		<g>
			<path style="fill:#F79392;" d="M50,58h10c0,0,0,3-5,3S50,58,50,58z"/>
		</g>
		<g>
			<path style="fill:#3E3E3F;" d="M62,43c-2.625,0-5.25,1.75-5.25,1.75H55h-1.75c0,0-2.625-1.75-5.25-1.75c-4.375,0-7,1.75-7,1.75
				v0.875h0.875c0,5.25,1.75,7.875,6.308,7.875c4.557,0,5.505-4.375,5.505-5.589C53.687,46.698,55,46.5,55,46.5
				s1.312,0.198,1.312,1.411c0,1.214,0.948,5.589,5.505,5.589c4.558,0,6.308-2.625,6.308-7.875H69V44.75C69,44.75,66.375,43,62,43z"
				/>
			<g>
				<path style="fill:#9E9FA0;" d="M48,44.75c-2.416,0-4.375,1.084-4.375,3.5c0,1.13,0.44,2.149,1.142,2.925l5.854-5.854
					C49.889,44.942,48.988,44.75,48,44.75z"/>
			</g>
			<g>
				<path style="fill:#9E9FA0;" d="M62,44.75c-2.416,0-4.375,1.084-4.375,3.5c0,1.13,0.44,2.149,1.142,2.925l5.854-5.854
					C63.889,44.942,62.988,44.75,62,44.75z"/>
			</g>
		</g>
	</g>
</g>
</svg>
