<?xml version="1.0" encoding="iso-8859-1"?>
<!-- Generator: Adobe Illustrator 17.1.0, SVG Export Plug-In . SVG Version: 6.00 Build 0)  -->
<!DOCTYPE svg PUBLIC "-//W3C//DTD SVG 1.0//EN" "http://www.w3.org/TR/2001/REC-SVG-20010904/DTD/svg10.dtd">
<svg version="1.0" xmlns="http://www.w3.org/2000/svg" xmlns:xlink="http://www.w3.org/1999/xlink" x="0px" y="0px" width="110px"
	 height="110px" viewBox="0 0 110 110" style="enable-background:new 0 0 110 110;" xml:space="preserve">
<g id="Artboard">
</g>
<g id="Multicolor">
	<g>
		<circle style="fill:#32BEA6;" cx="55" cy="55" r="55"/>
	</g>
	<g>
		<path style="fill:#F7B4B4;" d="M87,87l-3.591-9.337c-0.889-2.311-2.797-4.08-5.168-4.791L65,69.715v-8.283
			c-2.841,4.396-6.716,6.473-10,7.567c-3.282-1.094-7.159-3.162-10-7.555V72c0,0,2,4,10,4v11H87z"/>
		<path style="fill:#3E3E3F;" d="M67.822,54.925c-0.701,2.611-1.679,4.748-2.822,6.515v8.275l10.707,2.553L73,47c0-1,2-21-15-19
			c0,0.011,0.001,0.021,0.001,0.032c-4.591-5.252-23.317,1.671-21.046,20.536l-2.897,23.756L45,69.715v-8.27
			c0.213,0.326-1.426-1.954-2.522-5.482c-3.445-0.364-4.413-4.291-4.472-7.427C38.004,48.432,38,48.325,38,48.222
			C38,47.111,39,46,40,46c0.281,0,3,0,3,0v0.025c4.639-2.481,13.217-7.508,15.524-12.225C59.536,39.084,62.617,42.672,67,45
			c0-0.031,2.969,0,3,0c0.867,0,1.845,0.91,1.975,1.992C71.984,47.069,72,47.145,72,47.222C72,50.313,71.136,54.353,67.822,54.925z"
			/>
		<path style="fill:#FBC8C8;" d="M45,61.445v8.27l-13.241,3.157c-2.371,0.711-4.279,2.48-5.168,4.791L23,87h32V69
			C51.718,67.906,47.841,65.838,45,61.445z"/>
		<g>
			<polygon style="fill:#F79392;" points="42,70 42,87 35,87 38,71 			"/>
		</g>
		<g>
			<polygon style="fill:#F79392;" points="68,70 68,87 75,87 72,71 			"/>
		</g>
		<g>
			<path style="fill:#FBD7D7;" d="M53.06,87c-1.966-4.137-6.175-7-11.06-7v7H53.06z"/>
		</g>
		<g>
			<path style="fill:#FBC8C8;" d="M56.94,87c1.966-4.137,6.175-7,11.06-7v7H56.94z"/>
		</g>
		<g>
			<circle style="fill:#FFFFFF;" cx="44.5" cy="69.5" r="1.5"/>
		</g>
		<g>
			<circle style="fill:#FFFFFF;" cx="47" cy="74" r="2"/>
		</g>
		<g>
			<circle style="fill:#FFFFFF;" cx="52" cy="78" r="2"/>
		</g>
		<g>
			<circle style="fill:#FFFFFF;" cx="65.5" cy="69.5" r="1.5"/>
		</g>
		<g>
			<circle style="fill:#FFFFFF;" cx="63" cy="74" r="2"/>
		</g>
		<g>
			<circle style="fill:#FFFFFF;" cx="58" cy="78" r="2"/>
		</g>
		<path style="fill:#FBC8C8;" d="M70,45c-0.277,0-3,0-3,0v0.02c-4.383-2.328-7.464-5.936-8.476-11.22
			C56.337,38.269,48.575,43.044,43,46.025V46c0,0-2.719,0-3,0c-1,0-2,1.111-2,2.222c0,0.103,0.004,0.209,0.006,0.314l0,0
			c0.059,3.136,1.027,7.063,4.472,7.427C45.067,64.292,50.576,67.525,55,69c4.604-1.535,10.38-4.973,12.822-14.075
			C71.136,54.353,72,50.313,72,47.222c0-0.077-0.016-0.153-0.025-0.23C71.845,45.91,70.867,45,70,45z"/>
		<path style="fill:#FBD7D7;" d="M43,46c0-0.039-2.961,0-3,0c-1,0-2,1.111-2,2.222c0,0.103,0.004,0.209,0.006,0.314l0,0
			c0.059,3.136,1.027,7.063,4.472,7.427C45.067,64.292,50.576,67.525,55,69V38.082C51.625,41.12,46.805,43.966,43,46z"/>
		<g>
			<path style="fill:#3E3E3F;" d="M52,47c0-1.104-0.896-2-2-2c-0.002,0-0.004,0-0.006,0C49.995,45.021,50,45.042,50,45.062
				c0,1.103-0.892,1.996-1.994,2C48.04,48.137,48.917,49,50,49C51.104,49,52,48.104,52,47z"/>
		</g>
		<g>
			<path style="fill:#3E3E3F;" d="M61.994,47c0-1.104-0.896-2-2-2c-0.002,0-0.004,0-0.006,0c0.001,0.021,0.006,0.041,0.006,0.062
				c0,1.103-0.892,1.996-1.994,2C58.033,48.137,58.91,49,59.994,49C61.098,49,61.994,48.104,61.994,47z"/>
		</g>
		<g>
			<path style="fill:#F79392;" d="M50,58h10c0,0,0,3-5,3S50,58,50,58z"/>
		</g>
	</g>
</g>
</svg>
