<?xml version="1.0" encoding="iso-8859-1"?>
<!-- Generator: Adobe Illustrator 17.1.0, SVG Export Plug-In . SVG Version: 6.00 Build 0)  -->
<!DOCTYPE svg PUBLIC "-//W3C//DTD SVG 1.0//EN" "http://www.w3.org/TR/2001/REC-SVG-20010904/DTD/svg10.dtd">
<svg version="1.0" xmlns="http://www.w3.org/2000/svg" xmlns:xlink="http://www.w3.org/1999/xlink" x="0px" y="0px" width="110px"
	 height="110px" viewBox="0 0 110 110" style="enable-background:new 0 0 110 110;" xml:space="preserve">
<g id="Artboard">
</g>
<g id="Multicolor">
	<g>
		<circle style="fill:#32BEA6;" cx="55" cy="55" r="55"/>
	</g>
	<g>
		<path style="fill:#84462D;" d="M72,58c0-8,0-16,0-16c0-9.389-7.611-17-17-17s-17,7.611-17,17c0,0,0,8,0,16c0,10-9,8-9,8s1,8,14,8
			c10.177,0,11.769,0,11.982,0c0.005,0,0.014,0,0.018,0c0.153,0,1.571,0,12,0c13,0,14-8,14-8S72,68,72,58z"/>
		<path style="fill:#9C6144;" d="M38,42c0,0,0,8,0,16c0,10-9,8-9,8s1,8,14,8c10.177,0,11.769,0,11.982,0c0.005,0,0.014,0,0.018,0V25
			C45.611,25,38,32.611,38,42z"/>
		<path style="fill:#FBC8C8;" d="M70,45c-0.277,0-0.633,0-1,0c0-0.007,0-0.014,0-0.021c-0.004-1.901-0.053-3.754-0.249-5.498
			C68.117,41.514,66.242,43,64,43c-1.991,0-3.696-1.172-4.5-2.856C58.696,41.828,56.991,43,55,43s-3.696-1.172-4.5-2.856
			C49.696,41.828,47.991,43,46,43c-2.242,0-4.117-1.486-4.751-3.519c-0.195,1.744-0.245,3.597-0.249,5.498c0,0.007,0,0.014,0,0.021
			c-0.368,0-0.723,0-1,0c-1,0-2,1.111-2,2.222c0,3.091,0.864,7.13,4.178,7.703C44.62,64.027,50.396,67.465,55,69
			c4.604-1.535,10.38-4.973,12.822-14.075C71.136,54.353,72,50.313,72,47.222C72,46.111,71,45,70,45z"/>
		<path style="fill:#FBD7D7;" d="M50.5,40.144C49.696,41.828,47.991,43,46,43c-2.242,0-4.117-1.486-4.751-3.519
			c-0.195,1.744-0.245,3.597-0.249,5.498c0,0.007,0,0.014,0,0.021c-0.368,0-0.723,0-1,0c-1,0-2,1.111-2,2.222
			c0,3.091,0.864,7.13,4.178,7.703C44.62,64.027,50.396,67.465,55,69V43C53.009,43,51.304,41.828,50.5,40.144z"/>
		<path style="fill:#0484AB;" d="M83.409,77.663c-0.889-2.311-2.797-4.08-5.168-4.791L65,70H55H45l-13.241,2.872
			c-2.371,0.711-4.279,2.48-5.168,4.791L23,87h32h32L83.409,77.663z"/>
		<g>
			<path style="fill:#FFFFFF;" d="M65,70v-3c2.602,0.651,4.938,2.094,6.683,4.13L75,75h-7l0.14,0.279C70.589,80.177,67.43,87,57,87
				L65,70z"/>
		</g>
		<g>
			<path style="fill:#FFFFFF;" d="M45,70v-3c-2.602,0.651-4.938,2.094-6.683,4.13L35,75h7l-0.14,0.279C39.411,80.177,42.57,87,53,87
				L45,70z"/>
		</g>
		<g>
			<path style="fill:#F79392;" d="M50,58h10c0,0,0,3-5,3S50,58,50,58z"/>
		</g>
		<g>
			<path style="fill:#3E3E3F;" d="M52.006,47c0-1.104-0.896-2-2-2c-0.002,0-0.004,0-0.006,0c0.001,0.021,0.006,0.041,0.006,0.062
				c0,1.103-0.892,1.996-1.994,2C48.046,48.137,48.923,49,50.006,49C51.111,49,52.006,48.104,52.006,47z"/>
		</g>
		<g>
			<path style="fill:#3E3E3F;" d="M62,47c0-1.104-0.896-2-2-2c-0.002,0-0.004,0-0.006,0C59.995,45.021,60,45.042,60,45.062
				c0,1.103-0.892,1.996-1.994,2C58.04,48.137,58.917,49,60,49C61.104,49,62,48.104,62,47z"/>
		</g>
		<path style="fill:#F7B4B4;" d="M55,69v18h2l8-17v-8.567C62.159,65.829,58.284,67.905,55,69z"/>
		<path style="fill:#FBC8C8;" d="M45,61.433V70l8,17h2V69C51.716,67.905,47.841,65.829,45,61.433z"/>
	</g>
</g>
</svg>
