<?xml version="1.0" encoding="iso-8859-1"?>
<!-- Generator: Adobe Illustrator 17.1.0, SVG Export Plug-In . SVG Version: 6.00 Build 0)  -->
<!DOCTYPE svg PUBLIC "-//W3C//DTD SVG 1.0//EN" "http://www.w3.org/TR/2001/REC-SVG-20010904/DTD/svg10.dtd">
<svg version="1.0" xmlns="http://www.w3.org/2000/svg" xmlns:xlink="http://www.w3.org/1999/xlink" x="0px" y="0px" width="110px"
	 height="110px" viewBox="0 0 110 110" style="enable-background:new 0 0 110 110;" xml:space="preserve">
<g id="Artboard">
</g>
<g id="Multicolor">
	<g>
		<circle style="fill:#FABC3D;" cx="55" cy="55" r="55"/>
	</g>
	<g>
		<g>
			<g>
				<path style="fill:#FFFFFF;" d="M55,70H45l-13.241,2.872c-2.371,0.711-4.279,2.48-5.168,4.791L23,87h32V70z"/>
			</g>
			<g>
				<path style="fill:#FFFFFF;" d="M55,70h10l13.241,2.872c2.371,0.711,4.279,2.48,5.168,4.791L87,87H55V70z"/>
			</g>
		</g>
		<path style="fill:#F7B4B4;" d="M55,69v18h2l8-17v-8.544C62.158,65.843,58.281,67.906,55,69z"/>
		<g>
			<polygon style="fill:#3E3E3F;" points="61.854,76.686 62.488,75.338 55,78.458 55,79.542 			"/>
		</g>
		<path style="fill:#FBC8C8;" d="M45,61.432V70l8,17h2V69C51.716,67.905,47.841,65.829,45,61.432z"/>
		<path style="fill:#3E3E3F;" d="M72,68c-5.374-6.717,0.143-7,0.143-18l-0.058-8v-2C71.495,31.067,64.082,24,55,24
			s-16.552,7.067-17.143,16v2c0,3,0,3,0,8c0,11,5.517,11.283,0.143,18c-4,5-12,12-1,19h8c-14-7,3.092-8.902,2-18
			c-1.192-9.929-4-7-4-15c0-5,0-12,0-12h1.784c3.929,0,7.645-1.786,10.1-4.854L55,37l0.117,0.146c2.455,3.068,6.17,4.854,10.1,4.854
			H67c0,0,0,7,0,12c0,8-2.808,5.071-4,15c-1.092,9.098,16,11,2,18h8C84,80,76,73,72,68z"/>
		<path style="fill:#FBC8C8;" d="M70,45c-0.277,0-0.633,0-1,0c0-0.007,0-0.014,0-0.021c-0.002-1.01-0.018-2.005-0.061-2.979h-3.723
			c-3.93,0-7.646-1.786-10.1-4.854L55,37v0l-0.117,0.146C52.429,40.214,48.713,42,44.784,42h-3.723
			c-0.042,0.974-0.059,1.969-0.061,2.979c0,0.007,0,0.014,0,0.021c-0.368,0-0.723,0-1,0c-1,0-2,1.111-2,2.222
			c0,3.091,0.864,7.13,4.178,7.703C44.62,64.026,50.396,67.465,55,69c4.604-1.535,10.38-4.974,12.822-14.075
			C71.136,54.353,72,50.313,72,47.222C72,46.111,71,45,70,45z"/>
		<path style="fill:#FBD7D7;" d="M54.883,37.146C52.429,40.214,48.713,42,44.784,42h-3.723c-0.042,0.974-0.059,1.969-0.061,2.979
			c0,0.007,0,0.014,0,0.021c-0.368,0-0.723,0-1,0c-1,0-2,1.111-2,2.222c0,3.091,0.864,7.13,4.178,7.703
			C44.62,64.026,50.396,67.465,55,69V37L54.883,37.146z"/>
		<g>
			<path style="fill:#3E3E3F;" d="M52,47c0-1.104-0.896-2-2-2c-0.002,0-0.004,0-0.006,0C49.995,45.021,50,45.042,50,45.062
				c0,1.103-0.892,1.996-1.994,2C48.04,48.137,48.917,49,50,49C51.104,49,52,48.104,52,47z"/>
		</g>
		<g>
			<path style="fill:#3E3E3F;" d="M61.994,47c0-1.104-0.896-2-2-2c-0.002,0-0.004,0-0.006,0c0.001,0.021,0.006,0.041,0.006,0.062
				c0,1.103-0.892,1.996-1.994,2C58.033,48.137,58.91,49,59.994,49C61.098,49,61.994,48.104,61.994,47z"/>
		</g>
		<g>
			<path style="fill:#F79392;" d="M50,58h10c0,0,0,3-5,3S50,58,50,58z"/>
		</g>
		<g>
			<polygon style="fill:#3E3E3F;" points="47.512,75.338 48.146,76.686 55,79.542 55,78.458 			"/>
		</g>
		<g>
			<g>
				<path style="fill:#FFFFFF;" d="M55,78.58l1.386,3.346c0.232,0.561,0.104,1.206-0.325,1.635c-0.586,0.586-1.535,0.586-2.121,0
					c-0.429-0.429-0.557-1.074-0.325-1.635L55,78.58z"/>
			</g>
		</g>
	</g>
</g>
</svg>
