<?xml version="1.0" encoding="iso-8859-1"?>
<!-- Generator: Adobe Illustrator 17.1.0, SVG Export Plug-In . SVG Version: 6.00 Build 0)  -->
<!DOCTYPE svg PUBLIC "-//W3C//DTD SVG 1.0//EN" "http://www.w3.org/TR/2001/REC-SVG-20010904/DTD/svg10.dtd">
<svg version="1.0" xmlns="http://www.w3.org/2000/svg" xmlns:xlink="http://www.w3.org/1999/xlink" x="0px" y="0px" width="110px"
	 height="110px" viewBox="0 0 110 110" style="enable-background:new 0 0 110 110;" xml:space="preserve">
<g id="Artboard">
</g>
<g id="Multicolor">
	<g>
		<circle style="fill:#E04F5F;" cx="55" cy="55" r="55"/>
	</g>
	<g>
		<path style="fill:#AF7653;" d="M87,87l-3.591-9.337c-0.889-2.311-2.797-4.08-5.168-4.791L65,69.715v-7.283
			c-2.841,4.396-6.716,6.473-10,7.568c-3.284-1.095-7.159-3.171-10-7.568V72c0,0,2,4,10,4v11H87z"/>
		<path style="fill:#BF8662;" d="M45,62.432v7.283l-13.241,3.157c-2.371,0.711-4.279,2.48-5.168,4.791L23,87h32V70
			C51.716,68.905,47.841,66.829,45,62.432z"/>
		<g>
			<path style="fill:#3E3E3F;" d="M55,78.673l-10.334-9.301c-0.205-0.185-0.222-0.501-0.037-0.706
				c0.185-0.205,0.501-0.222,0.706-0.037L55,77.327l9.666-8.699c0.205-0.185,0.521-0.168,0.706,0.037
				c0.185,0.205,0.168,0.521-0.037,0.706L55,78.673z"/>
		</g>
		<g>
			<path style="fill:#FFFFFF;" d="M78,87c-1.789-3.306-4.743-7.998-9.497-7.998c-8.016,0-9.439,6-13.447,6
				c-4.008,0-5.433-5.794-13.446-6C36.752,78.878,33.782,83.451,32,87H78z"/>
		</g>
		<g>
			<path style="fill:#FBE158;" d="M55,76l1.527,3.687c0.256,0.618,0.114,1.329-0.358,1.801c-0.646,0.646-1.692,0.646-2.338,0
				c-0.473-0.473-0.614-1.184-0.358-1.801L55,76z"/>
		</g>
		<path style="fill:#BF8662;" d="M64.312,63.321c1.434-1.934,2.665-4.366,3.501-7.47c2.353-0.305,2.923-7.619-0.002-8.956
			c-6.764-2.899-9.215-8.907-10.832-11.021c-0.117,0.49-0.633,3.542,3.02,9.021c0,0,0,0-0.001,0
			c-5.492-0.915-9.214-8.504-9.884-9.872c-0.909,4.36-3.813,15.212-7.974,16.872c0-2.146-0.58-4.235-1.57-5.996
			c0-0.001-0.001-0.003-0.002-0.004c-0.279,0-0.546,0-0.762,0c-1,0-2,1.111-2,2.222c0,3.382,1.027,7.309,4.377,7.734
			c0.517,1.917,1.188,3.57,1.959,5.019l-0.003,0.025c-0.018-0.007-0.034-0.016-0.052-0.023C46.967,66.357,51.35,68.783,55,70
			c3.101-1.034,6.73-2.94,9.519-6.851C64.45,63.206,64.38,63.265,64.312,63.321z"/>
		<path style="fill:#CC9978;" d="M50.115,35c-0.909,4.36-3.813,15.212-7.974,16.872c0-2.146-0.58-4.235-1.57-5.996
			c0-0.001-0.001-0.003-0.002-0.004c-0.279,0-0.546,0-0.762,0c-1,0-2,1.111-2,2.222c0,3.382,1.027,7.31,4.377,7.734
			c0.517,1.917,1.188,3.57,1.959,5.019l-0.003,0.025c-0.018-0.007-0.034-0.016-0.052-0.023c2.878,5.485,7.26,7.912,10.911,9.128
			V42.059C52.306,39.449,50.553,35.895,50.115,35z"/>
		<path style="fill:#3E3E3F;" d="M77.999,43.895c0-9.06-11.355-22.402-23.892-19.397c-2.88,0.567-5.85,2.021-6.166,2.372
			c-15.89-2.727-26.702,25.064-3.799,34.026l0.003-0.025c-0.771-1.449-1.442-3.101-1.959-5.019
			c-3.479-0.442-4.377-4.582-4.377-7.734c0-1.111,1-2.222,2-2.222c0.216,0,0.483,0,0.762,0c0,0.001,0.001,0.002,0.002,0.004
			c0.99,1.761,1.57,3.851,1.57,5.996c4.161-1.659,7.065-12.512,7.974-16.872c0.669,1.367,4.392,8.957,9.884,9.872c0,0,0,0,0,0
			c-3.992-5.989-3.003-9.088-3-9.099c0.005,0.011,3.817,8.101,10.812,11.099c2.94,1.344,2.345,8.652,0.002,8.956
			c-0.836,3.104-2.067,5.536-3.501,7.47c3.957-3.267,9.078-7.921,10.83-11.426c1.964-3.928,0.501-7.417-0.745-9.365
			C75.272,42.903,76.511,43.398,77.999,43.895z"/>
		<g>
			<g>
				<path style="fill:#FBE158;" d="M40.309,56l1.527,3.687c0.256,0.618,0.114,1.329-0.358,1.801c-0.646,0.646-1.692,0.646-2.338,0
					c-0.473-0.473-0.614-1.184-0.358-1.801L40.309,56z"/>
			</g>
			<g>
				<path style="fill:#FBE158;" d="M69.309,56l1.527,3.687c0.256,0.618,0.114,1.329-0.358,1.801c-0.646,0.646-1.692,0.646-2.338,0
					c-0.473-0.473-0.614-1.184-0.358-1.801L69.309,56z"/>
			</g>
		</g>
		<g>
			<path style="fill:#3E3E3F;" d="M51.803,48c0-1.104-0.896-2-2-2c-0.002,0-0.004,0-0.006,0c0.001,0.021,0.006,0.041,0.006,0.062
				c0,1.103-0.892,1.996-1.994,2C47.842,49.137,48.719,50,49.803,50C50.907,50,51.803,49.104,51.803,48z"/>
		</g>
		<g>
			<path style="fill:#3E3E3F;" d="M61.796,48c0-1.104-0.896-2-2-2c-0.002,0-0.004,0-0.006,0c0.001,0.021,0.006,0.041,0.006,0.062
				c0,1.103-0.892,1.996-1.994,2C57.836,49.137,58.713,50,59.796,50C60.901,50,61.796,49.104,61.796,48z"/>
		</g>
		<g>
			<path style="fill:#84462D;" d="M49.809,59h10c0,0,0,3-5,3S49.809,59,49.809,59z"/>
		</g>
	</g>
</g>
</svg>
