<?xml version="1.0" encoding="iso-8859-1"?>
<!-- Generator: Adobe Illustrator 17.1.0, SVG Export Plug-In . SVG Version: 6.00 Build 0)  -->
<!DOCTYPE svg PUBLIC "-//W3C//DTD SVG 1.0//EN" "http://www.w3.org/TR/2001/REC-SVG-20010904/DTD/svg10.dtd">
<svg version="1.0" xmlns="http://www.w3.org/2000/svg" xmlns:xlink="http://www.w3.org/1999/xlink" x="0px" y="0px" width="110px"
	 height="110px" viewBox="0 0 110 110" style="enable-background:new 0 0 110 110;" xml:space="preserve">
<g id="Artboard">
</g>
<g id="Multicolor">
	<g>
		<circle style="fill:#25B7D3;" cx="55" cy="55" r="55"/>
	</g>
	<g>
		<g>
			<g>
				<path style="fill:#F1F2F2;" d="M59,62.599C68.129,60.745,75,52.676,75,43c0-11.046-8.954-20-20-20s-20,8.954-20,20
					c0,9.676,6.871,17.745,16,19.599V71H41c-1.105,0-2,0.895-2,2v4c0,1.105,0.895,2,2,2h10v6c0,1.105,0.895,2,2,2h4
					c1.105,0,2-0.895,2-2v-6h10c1.105,0,2-0.895,2-2v-4c0-1.105-0.895-2-2-2H59V62.599z M43,43c0-6.627,5.373-12,12-12
					s12,5.373,12,12s-5.373,12-12,12S43,49.627,43,43z"/>
			</g>
		</g>
		<g>
			<path style="fill:#FFFFFF;" d="M43,43c0-6.627,5.373-12,12-12v-8c-11.046,0-20,8.954-20,20c0,9.676,6.871,17.745,16,19.599V71H41
				c-1.104,0-2,0.896-2,2v4c0,1.104,0.896,2,2,2h10v6c0,1.104,0.896,2,2,2h2V55C48.373,55,43,49.627,43,43z"/>
		</g>
	</g>
</g>
</svg>
