<?xml version="1.0" encoding="iso-8859-1"?>
<!-- Generator: Adobe Illustrator 17.1.0, SVG Export Plug-In . SVG Version: 6.00 Build 0)  -->
<!DOCTYPE svg PUBLIC "-//W3C//DTD SVG 1.0//EN" "http://www.w3.org/TR/2001/REC-SVG-20010904/DTD/svg10.dtd">
<svg version="1.0" xmlns="http://www.w3.org/2000/svg" xmlns:xlink="http://www.w3.org/1999/xlink" x="0px" y="0px" width="110px"
	 height="110px" viewBox="0 0 110 110" style="enable-background:new 0 0 110 110;" xml:space="preserve">
<g id="Artboard">
</g>
<g id="Multicolor">
	<g>
		<circle style="fill:#25B7D3;" cx="55" cy="55" r="55"/>
	</g>
	<g>
		<path style="fill:#FBC8C8;" d="M70,45.188c-0.146,0-0.314,0-0.493,0C68.682,45.904,68.714,48.714,67,53c0-0.226,0-6-1-8.936
			c-1.633-4.793-6.392-4.946-13.229-4.946c-2.902,0-5.246-0.363-7.143-0.972C42.004,43.157,42,52,42,52s-1.092-3.285-1.641-7
			c-0.126,0-0.252,0-0.359,0c-1,0-2,1.111-2,2.222c0,3.091,0.864,7.13,4.178,7.703C44.62,64.027,50.396,67.465,55,69
			c4.57-1.523,10.296-4.923,12.768-13.875C71.128,54.588,72,50.518,72,47.41C72,46.299,71,45.188,70,45.188z"/>
		<g>
			<path style="fill:#B5BBBD;" d="M83.409,77.663c-0.889-2.311-2.797-4.08-5.168-4.791L62,69l-7,1l-7-1l-16.241,3.872
				c-2.371,0.711-4.279,2.48-5.168,4.791L23,87h32h32L83.409,77.663z"/>
		</g>
		<g>
			<path style="fill:#FFFFFF;" d="M31.759,72.872c-1.024,0.307-1.953,0.821-2.759,1.481V87h3V72.814L31.759,72.872z"/>
		</g>
		<g>
			<polygon style="fill:#FFFFFF;" points="37,71.623 37,87 40,87 40,70.907 			"/>
		</g>
		<g>
			<polygon style="fill:#FFFFFF;" points="69,70.669 69,87 72,87 72,71.384 			"/>
		</g>
		<g>
			<path style="fill:#FFFFFF;" d="M80,73.646c-0.549-0.323-1.137-0.587-1.759-0.773L77,72.576V87h3V73.646z"/>
		</g>
		<path style="fill:#F7B4B4;" d="M55,69c-3.284-1.095-7.159-3.171-10-7.567V72c0,0,2,4,10,4s10-4,10-4V61.433
			C62.159,65.829,58.284,67.905,55,69z"/>
		<path style="fill:#FBC8C8;" d="M45,61.433V72c0,0,2,4,10,4v-7C51.716,67.905,47.841,65.829,45,61.433z"/>
		<path style="fill:#FBD7D7;" d="M52.771,39.118c-2.902,0-5.246-0.363-7.143-0.972C42.004,43.157,42,52,42,52s-1.092-3.285-1.641-7
			c-0.126,0-0.252,0-0.359,0c-1,0-2,1.111-2,2.222c0,3.091,0.864,7.13,4.178,7.703C44.62,64.027,50.396,67.465,55,69V39.131
			C54.283,39.121,53.542,39.118,52.771,39.118z"/>
		<g>
			<circle style="fill:#FFFFFF;" cx="69.629" cy="55.629" r="1.629"/>
		</g>
		<g>
			<circle style="fill:#FFFFFF;" cx="40.371" cy="55.629" r="1.629"/>
		</g>
		<g>
			<path style="fill:#3E3E3F;" d="M52,47c0-1.104-0.896-2-2-2c-0.002,0-0.004,0-0.006,0C49.995,45.021,50,45.042,50,45.062
				c0,1.103-0.892,1.996-1.994,2C48.04,48.137,48.917,49,50,49C51.104,49,52,48.104,52,47z"/>
		</g>
		<g>
			<path style="fill:#3E3E3F;" d="M61.994,47c0-1.104-0.896-2-2-2c-0.002,0-0.004,0-0.006,0c0.001,0.021,0.006,0.041,0.006,0.062
				c0,1.103-0.892,1.996-1.994,2C58.033,48.137,58.91,49,59.994,49C61.098,49,61.994,48.104,61.994,47z"/>
		</g>
		<g>
			<path style="fill:#F79392;" d="M50,58h10c0,0,0,3-5,3S50,58,50,58z"/>
		</g>
		<path style="fill:#692E19;" d="M64.937,30.344C62.291,28.224,58.817,27,55,27c-5.116,0-12,4-15-3
			c-1.674,2.318-2.779,8.2,1.476,11.907C37.99,39.958,42,52,42,52s0.004-8.843,3.628-13.854c1.896,0.609,4.241,0.972,7.143,0.972
			c6.837,0,11.596,0.153,13.229,4.946C67,47,67,52.774,67,53c2-5,1.619-7.812,3-7.812C70,40.954,70.687,34.952,64.937,30.344z"/>
		<path style="fill:#FFFFFF;" d="M65,69.715V72c0,0-2,4-10,4s-10-4-10-4v-2.285l-2,0.477V72v0.472l0.211,0.422
			c0.108,0.215,0.615,1.121,1.789,2.11V87h3V76.778c1.313,0.537,2.958,0.959,5,1.131V87h2h1v-9.032c1.994-0.081,3.645-0.39,5-0.828
			V87h3V75.744c1.906-1.24,2.654-2.581,2.789-2.85L67,72.472V72v-1.808L65,69.715z"/>
		<path style="fill:#84462D;" d="M40,24c-1.674,2.318-2.779,8.2,1.476,11.907C37.99,39.958,42,52,42,52s0.004-8.843,3.628-13.854
			c1.896,0.609,4.241,0.972,7.143,0.972c0.771,0,1.512,0.003,2.229,0.013V27C49.884,27,43,31,40,24z"/>
	</g>
</g>
</svg>
