<?xml version="1.0" encoding="iso-8859-1"?>
<!-- Generator: Adobe Illustrator 17.1.0, SVG Export Plug-In . SVG Version: 6.00 Build 0)  -->
<!DOCTYPE svg PUBLIC "-//W3C//DTD SVG 1.0//EN" "http://www.w3.org/TR/2001/REC-SVG-20010904/DTD/svg10.dtd">
<svg version="1.0" xmlns="http://www.w3.org/2000/svg" xmlns:xlink="http://www.w3.org/1999/xlink" x="0px" y="0px" width="110px"
	 height="110px" viewBox="0 0 110 110" style="enable-background:new 0 0 110 110;" xml:space="preserve">
<g id="Artboard" style="display:none;">
	
		<rect x="-72.5" y="-1058.5" style="display:inline;fill:#808080;stroke:#000000;stroke-miterlimit:10;" width="1392" height="1369"/>
</g>
<g id="R-Multicolor">
	<circle style="fill:#25B7D3;" cx="55" cy="55" r="55"/>
	<g>
		<g>
			<path style="fill:#84462D;" d="M75.846,78.08c-0.27,0.97-0.55,1.95-0.85,2.92c0,0-1,6-20,6s-20-6-20-6
				c-0.27-0.96-0.53-1.91-0.77-2.86c-4.06-15.67-4.29-30.39-0.7-44.16c0.43-1.67,0.92-3.33,1.47-4.98h40
				c0.52,1.67,0.98,3.35,1.4,5.02C80.046,48.68,79.856,63.43,75.846,78.08z"/>
		</g>
		<g>
			<path style="fill:#9C6144;" d="M55,29H34.996c-0.55,1.65-1.04,3.31-1.47,4.98c-3.59,13.77-3.36,28.49,0.7,44.16
				c0.24,0.95,0.5,1.9,0.77,2.86c0,0,1,6,20,6c0.001,0,0.003,0,0.004,0V29z"/>
		</g>
		<g>
			<path style="fill:#E2E4E5;" d="M31.541,44.571c-0.206,1.766-0.354,3.545-0.443,5.34C38,53,48.08,54,55,54
				c8.33,0,16-1,23.741-5.527c-0.141-1.835-0.343-3.671-0.604-5.505C74,46,65.894,48.32,54.986,48.32
				C46.405,48.32,37,47,31.541,44.571z"/>
		</g>
		<g>
			<path style="fill:#E2E4E5;" d="M31.408,62.326c0.18,1.888,0.42,3.792,0.72,5.709C37,71,48.415,71.68,55,71.68
				c8.141,0,19-2.68,23.209-5.176c0.279-2.049,0.48-4.1,0.61-6.151C76,63,66.444,66,54.986,66C46.332,66,35,64,31.408,62.326z"/>
		</g>
		<g>
			<path style="fill:#E2E4E5;" d="M75.846,78.08c-0.27,0.97-0.55,1.95-0.85,2.92c0,0-1,6-20,6s-20-6-20-6
				c-0.27-0.96-0.53-1.91-0.77-2.86c5.85,3.28,13.89,4.61,20.76,4.61C61.706,82.75,69.816,81.47,75.846,78.08z"/>
		</g>
		<g>
			<path style="fill:#E2E4E5;" d="M76.396,34.02c-6.01,3.59-14.31,4.98-21.39,4.98c-7,0-15.5-1.4-21.48-5.02
				c0.43-1.67,0.92-3.33,1.47-4.98c0,3.31,8.95,6,20,6s20-2.69,20-6C75.516,30.67,75.976,32.35,76.396,34.02z"/>
		</g>
		<g>
			<path style="fill:#B6BCBD;" d="M74.996,29c0,0.7-0.4,1.37-1.13,2c-3.918-3.207-13.802-4-18.87-4c-5.135,0-14.931,0.776-18.87,4
				c-0.73-0.63-1.13-1.3-1.13-2c0-0.62,0.31-1.22,0.89-1.78c2.52-2.44,10.12-4.22,19.11-4.22c9,0,16.61,1.79,19.12,4.23
				C74.686,27.79,74.996,28.38,74.996,29z"/>
		</g>
		<g>
			<path style="fill:#84462D;" d="M73.866,31c-2.73,2.32-10.15,4-18.87,4c-8.72,0-16.14-1.68-18.87-4c2.73-2.32,10.15-4,18.87-4
				C63.716,27,71.136,28.68,73.866,31z"/>
		</g>
		<g>
			<path style="fill:#F0F1F1;" d="M55,35c-0.001,0-0.003,0-0.004,0c-11.05,0-20-2.69-20-6c-0.55,1.65-1.04,3.31-1.47,4.98
				C39.504,37.599,48.001,38.999,55,39V35z"/>
		</g>
		<g>
			<path style="fill:#F0F1F1;" d="M55,82.75c-0.005,0-0.01,0-0.014,0c-6.87,0-14.91-1.33-20.76-4.61c0.24,0.95,0.5,1.9,0.77,2.86
				c0,0,1,6,20,6c0.001,0,0.003,0,0.004,0V82.75z"/>
		</g>
		<g>
			<ellipse style="fill:#AF7653;" cx="50" cy="31" rx="3" ry="1"/>
		</g>
		<g>
			<path style="fill:#F0F1F1;" d="M54.986,66C46.332,66,35,64,31.408,62.326c0.18,1.888,0.42,3.792,0.72,5.709
				C37,71,48.415,71.68,55,71.68V66C54.995,66,54.991,66,54.986,66z"/>
		</g>
		<g>
			<path style="fill:#F0F1F1;" d="M54.986,48.32C46.405,48.32,37,47,31.541,44.571c-0.206,1.766-0.354,3.545-0.443,5.34
				C38,53,48.08,54,55,54v-5.68C54.995,48.32,54.991,48.32,54.986,48.32z"/>
		</g>
	</g>
</g>
<g id="Multicolor" style="display:none;">
	<g style="display:inline;">
		<g>
			<path style="fill:#84462D;" d="M75.846,78.08c-0.27,0.97-0.55,1.95-0.85,2.92c0,0-1,6-20,6s-20-6-20-6
				c-0.27-0.96-0.53-1.91-0.77-2.86c-4.06-15.67-4.29-30.39-0.7-44.16c0.43-1.67,0.92-3.33,1.47-4.98h40
				c0.52,1.67,0.98,3.35,1.4,5.02C80.046,48.68,79.856,63.43,75.846,78.08z"/>
		</g>
		<g>
			<path style="fill:#9C6144;" d="M55,29H34.996c-0.55,1.65-1.04,3.31-1.47,4.98c-3.59,13.77-3.36,28.49,0.7,44.16
				c0.24,0.95,0.5,1.9,0.77,2.86c0,0,1,6,20,6c0.001,0,0.003,0,0.004,0V29z"/>
		</g>
		<g>
			<path style="fill:#E2E4E5;" d="M31.541,44.571c-0.206,1.766-0.354,3.545-0.443,5.34C38,53,48.08,54,55,54
				c8.33,0,16-1,23.741-5.527c-0.141-1.835-0.343-3.671-0.604-5.505C74,46,65.894,48.32,54.986,48.32
				C46.405,48.32,37,47,31.541,44.571z"/>
		</g>
		<g>
			<path style="fill:#E2E4E5;" d="M31.408,62.326c0.18,1.888,0.42,3.792,0.72,5.709C37,71,48.415,71.68,55,71.68
				c8.141,0,19-2.68,23.209-5.176c0.279-2.049,0.48-4.1,0.61-6.151C76,63,66.444,66,54.986,66C46.332,66,35,64,31.408,62.326z"/>
		</g>
		<g>
			<path style="fill:#E2E4E5;" d="M75.846,78.08c-0.27,0.97-0.55,1.95-0.85,2.92c0,0-1,6-20,6s-20-6-20-6
				c-0.27-0.96-0.53-1.91-0.77-2.86c5.85,3.28,13.89,4.61,20.76,4.61C61.706,82.75,69.816,81.47,75.846,78.08z"/>
		</g>
		<g>
			<path style="fill:#E2E4E5;" d="M76.396,34.02c-6.01,3.59-14.31,4.98-21.39,4.98c-7,0-15.5-1.4-21.48-5.02
				c0.43-1.67,0.92-3.33,1.47-4.98c0,3.31,8.95,6,20,6s20-2.69,20-6C75.516,30.67,75.976,32.35,76.396,34.02z"/>
		</g>
		<g>
			<path style="fill:#B6BCBD;" d="M74.996,29c0,0.7-0.4,1.37-1.13,2c-3.918-3.207-13.802-4-18.87-4c-5.135,0-14.931,0.776-18.87,4
				c-0.73-0.63-1.13-1.3-1.13-2c0-0.62,0.31-1.22,0.89-1.78c2.52-2.44,10.12-4.22,19.11-4.22c9,0,16.61,1.79,19.12,4.23
				C74.686,27.79,74.996,28.38,74.996,29z"/>
		</g>
		<g>
			<path style="fill:#84462D;" d="M73.866,31c-2.73,2.32-10.15,4-18.87,4c-8.72,0-16.14-1.68-18.87-4c2.73-2.32,10.15-4,18.87-4
				C63.716,27,71.136,28.68,73.866,31z"/>
		</g>
		<g>
			<path style="fill:#F0F1F1;" d="M55,35c-0.001,0-0.003,0-0.004,0c-11.05,0-20-2.69-20-6c-0.55,1.65-1.04,3.31-1.47,4.98
				C39.504,37.599,48.001,38.999,55,39V35z"/>
		</g>
		<g>
			<path style="fill:#F0F1F1;" d="M55,82.75c-0.005,0-0.01,0-0.014,0c-6.87,0-14.91-1.33-20.76-4.61c0.24,0.95,0.5,1.9,0.77,2.86
				c0,0,1,6,20,6c0.001,0,0.003,0,0.004,0V82.75z"/>
		</g>
		<g>
			<ellipse style="fill:#AF7653;" cx="50" cy="31" rx="3" ry="1"/>
		</g>
		<g>
			<path style="fill:#F0F1F1;" d="M54.986,66C46.332,66,35,64,31.408,62.326c0.18,1.888,0.42,3.792,0.72,5.709
				C37,71,48.415,71.68,55,71.68V66C54.995,66,54.991,66,54.986,66z"/>
		</g>
		<g>
			<path style="fill:#F0F1F1;" d="M54.986,48.32C46.405,48.32,37,47,31.541,44.571c-0.206,1.766-0.354,3.545-0.443,5.34
				C38,53,48.08,54,55,54v-5.68C54.995,48.32,54.991,48.32,54.986,48.32z"/>
		</g>
	</g>
</g>
<g id="Blue" style="display:none;">
	<g style="display:inline;">
		<g>
			<path style="fill:#0081A1;" d="M75.846,78.08c-0.27,0.97-0.55,1.95-0.85,2.92c0,0-1,6-20,6s-20-6-20-6
				c-0.271-0.96-0.53-1.91-0.771-2.86c-4.06-15.67-4.29-30.39-0.7-44.16c0.43-1.67,0.92-3.33,1.471-4.98h40
				c0.52,1.67,0.979,3.35,1.4,5.02C80.046,48.68,79.855,63.43,75.846,78.08z"/>
		</g>
		<g>
			<path style="fill:#009FC7;" d="M55,29H34.996c-0.551,1.65-1.04,3.31-1.471,4.98c-3.59,13.77-3.359,28.49,0.7,44.16
				c0.24,0.95,0.5,1.9,0.771,2.86c0,0,1,6,20,6c0.001,0,0.002,0,0.004,0V29z"/>
		</g>
		<g>
			<path style="fill:#BBE7F2;" d="M31.541,44.571c-0.206,1.766-0.354,3.545-0.443,5.34C38,53,48.08,54,55,54
				c8.33,0,16-1,23.74-5.527c-0.141-1.836-0.342-3.671-0.604-5.505C74,46,65.894,48.32,54.986,48.32
				C46.404,48.32,37,47,31.541,44.571z"/>
		</g>
		<g>
			<path style="fill:#BBE7F2;" d="M31.408,62.326c0.18,1.888,0.42,3.791,0.721,5.709C37,71,48.414,71.68,55,71.68
				c8.141,0,19-2.68,23.209-5.176c0.279-2.049,0.48-4.1,0.609-6.151C76,63,66.443,66,54.986,66C46.332,66,35,64,31.408,62.326z"/>
		</g>
		<g>
			<path style="fill:#BBE7F2;" d="M75.846,78.08c-0.27,0.97-0.55,1.95-0.85,2.92c0,0-1,6-20,6s-20-6-20-6
				c-0.271-0.96-0.53-1.91-0.771-2.86c5.851,3.28,13.89,4.61,20.761,4.61C61.705,82.75,69.816,81.47,75.846,78.08z"/>
		</g>
		<g>
			<path style="fill:#BBE7F2;" d="M76.396,34.02C70.386,37.61,62.086,39,55.006,39c-7,0-15.5-1.4-21.48-5.02
				c0.43-1.67,0.92-3.33,1.471-4.98c0,3.31,8.949,6,20,6c11.05,0,20-2.69,20-6C75.516,30.67,75.976,32.35,76.396,34.02z"/>
		</g>
		<g>
			<path style="fill:#53BAD4;" d="M74.996,29c0,0.7-0.4,1.37-1.131,2c-3.918-3.207-13.801-4-18.869-4c-5.135,0-14.932,0.775-18.87,4
				c-0.729-0.63-1.13-1.3-1.13-2c0-0.62,0.31-1.22,0.89-1.78c2.521-2.44,10.12-4.22,19.11-4.22c9,0,16.609,1.79,19.119,4.23
				C74.686,27.79,74.996,28.38,74.996,29z"/>
		</g>
		<g>
			<path style="fill:#00B7E5;" d="M73.865,31c-2.729,2.32-10.149,4-18.869,4c-8.721,0-16.141-1.68-18.87-4
				c2.729-2.32,10.149-4,18.87-4C63.716,27,71.136,28.68,73.865,31z"/>
		</g>
		<g>
			<path style="fill:#E1F5FA;" d="M55,35c-0.002,0-0.003,0-0.004,0c-11.051,0-20-2.69-20-6c-0.551,1.65-1.04,3.31-1.471,4.98
				C39.504,37.599,48.001,38.999,55,39V35z"/>
		</g>
		<g>
			<path style="fill:#E1F5FA;" d="M55,82.75c-0.005,0-0.01,0-0.014,0c-6.871,0-14.91-1.33-20.761-4.61c0.24,0.95,0.5,1.9,0.771,2.86
				c0,0,1,6,20,6c0.001,0,0.002,0,0.004,0V82.75z"/>
		</g>
		<g>
			<ellipse style="fill:#E1F5FA;" cx="50" cy="31" rx="3" ry="1"/>
		</g>
		<g>
			<path style="fill:#E1F5FA;" d="M54.986,66C46.332,66,35,64,31.408,62.326c0.18,1.888,0.42,3.791,0.721,5.709
				C37,71,48.414,71.68,55,71.68V66C54.995,66,54.99,66,54.986,66z"/>
		</g>
		<g>
			<path style="fill:#E1F5FA;" d="M54.986,48.32C46.404,48.32,37,47,31.541,44.571c-0.206,1.766-0.354,3.545-0.443,5.34
				C38,53,48.08,54,55,54v-5.68C54.995,48.32,54.99,48.32,54.986,48.32z"/>
		</g>
	</g>
</g>
<g id="R-Blue" style="display:none;">
	<circle style="display:inline;fill:#81D2EB;" cx="55" cy="55" r="55"/>
	<g style="display:inline;">
		<g>
			<path style="fill:#0081A1;" d="M75.846,78.08c-0.27,0.97-0.55,1.95-0.85,2.92c0,0-1,6-20,6s-20-6-20-6
				c-0.271-0.96-0.53-1.91-0.771-2.86c-4.06-15.67-4.29-30.39-0.7-44.16c0.43-1.67,0.92-3.33,1.471-4.98h40
				c0.52,1.67,0.979,3.35,1.4,5.02C80.046,48.68,79.855,63.43,75.846,78.08z"/>
		</g>
		<g>
			<path style="fill:#009FC7;" d="M55,29H34.996c-0.551,1.65-1.04,3.31-1.471,4.98c-3.59,13.77-3.359,28.49,0.7,44.16
				c0.24,0.95,0.5,1.9,0.771,2.86c0,0,1,6,20,6c0.001,0,0.002,0,0.004,0V29z"/>
		</g>
		<g>
			<path style="fill:#BBE7F2;" d="M31.541,44.571c-0.206,1.766-0.354,3.545-0.443,5.34C38,53,48.08,54,55,54
				c8.33,0,16-1,23.74-5.527c-0.141-1.836-0.342-3.671-0.604-5.505C74,46,65.894,48.32,54.986,48.32
				C46.404,48.32,37,47,31.541,44.571z"/>
		</g>
		<g>
			<path style="fill:#BBE7F2;" d="M31.408,62.326c0.18,1.888,0.42,3.792,0.721,5.709C37,71,48.414,71.68,55,71.68
				c8.141,0,19-2.68,23.209-5.176c0.279-2.049,0.48-4.1,0.609-6.151C76,63,66.443,66,54.986,66C46.332,66,35,64,31.408,62.326z"/>
		</g>
		<g>
			<path style="fill:#BBE7F2;" d="M75.846,78.08c-0.27,0.97-0.55,1.95-0.85,2.92c0,0-1,6-20,6s-20-6-20-6
				c-0.271-0.96-0.53-1.91-0.771-2.86c5.851,3.28,13.89,4.61,20.761,4.61C61.705,82.75,69.816,81.47,75.846,78.08z"/>
		</g>
		<g>
			<path style="fill:#BBE7F2;" d="M76.396,34.02C70.386,37.61,62.086,39,55.006,39c-7,0-15.5-1.4-21.48-5.02
				c0.43-1.67,0.92-3.33,1.471-4.98c0,3.31,8.949,6,20,6c11.05,0,20-2.69,20-6C75.516,30.67,75.976,32.35,76.396,34.02z"/>
		</g>
		<g>
			<path style="fill:#53BAD4;" d="M74.996,29c0,0.7-0.4,1.37-1.131,2c-3.918-3.207-13.801-4-18.869-4c-5.135,0-14.932,0.775-18.87,4
				c-0.729-0.63-1.13-1.3-1.13-2c0-0.62,0.31-1.22,0.89-1.78c2.521-2.44,10.12-4.22,19.11-4.22c9,0,16.609,1.79,19.119,4.23
				C74.686,27.79,74.996,28.38,74.996,29z"/>
		</g>
		<g>
			<path style="fill:#00B7E5;" d="M73.865,31c-2.729,2.32-10.149,4-18.869,4c-8.721,0-16.141-1.68-18.87-4
				c2.729-2.32,10.149-4,18.87-4C63.716,27,71.136,28.68,73.865,31z"/>
		</g>
		<g>
			<path style="fill:#E1F5FA;" d="M55,35c-0.002,0-0.003,0-0.004,0c-11.051,0-20-2.69-20-6c-0.551,1.65-1.04,3.31-1.471,4.98
				C39.504,37.599,48.001,38.998,55,39V35z"/>
		</g>
		<g>
			<path style="fill:#E1F5FA;" d="M55,82.749c-0.005,0-0.01,0.001-0.014,0.001c-6.871,0-14.91-1.33-20.761-4.61
				c0.24,0.95,0.5,1.9,0.771,2.86c0,0,1,6,20,6c0.001,0,0.002,0,0.004,0V82.749z"/>
		</g>
		<g>
			<ellipse style="fill:#E1F5FA;" cx="50" cy="31" rx="3" ry="1"/>
		</g>
		<g>
			<path style="fill:#E1F5FA;" d="M54.986,66C46.332,66,35,64,31.408,62.326c0.18,1.888,0.42,3.792,0.721,5.709
				C37,71,48.414,71.68,55,71.68V66C54.995,66,54.99,66,54.986,66z"/>
		</g>
		<g>
			<path style="fill:#E1F5FA;" d="M54.986,48.32C46.404,48.32,37,47,31.541,44.571c-0.206,1.766-0.354,3.545-0.443,5.34
				C38,53,48.08,54,55,54v-5.68C54.995,48.32,54.99,48.32,54.986,48.32z"/>
		</g>
	</g>
</g>
<g id="Green" style="display:none;">
	<g style="display:inline;">
		<g>
			<path style="fill:#009687;" d="M75.846,78.08c-0.27,0.97-0.55,1.95-0.85,2.92c0,0-1,6-20,6s-20-6-20-6
				c-0.271-0.96-0.53-1.91-0.771-2.86c-4.06-15.67-4.29-30.39-0.7-44.16c0.43-1.67,0.92-3.33,1.471-4.98h40
				c0.52,1.67,0.979,3.35,1.4,5.02C80.046,48.68,79.855,63.43,75.846,78.08z"/>
		</g>
		<g>
			<path style="fill:#00B8A5;" d="M55,29H34.996c-0.551,1.65-1.04,3.31-1.471,4.98c-3.59,13.77-3.359,28.49,0.7,44.16
				c0.24,0.95,0.5,1.9,0.771,2.86c0,0,1,6,20,6c0.001,0,0.002,0,0.004,0V29z"/>
		</g>
		<g>
			<path style="fill:#AAF0E9;" d="M31.541,44.571c-0.206,1.766-0.354,3.545-0.443,5.34C38,53,48.08,54,55,54
				c8.33,0,16-1,23.74-5.527c-0.141-1.835-0.342-3.671-0.604-5.505C74,46,65.894,48.32,54.986,48.32
				C46.404,48.32,37,47,31.541,44.571z"/>
		</g>
		<g>
			<path style="fill:#AAF0E9;" d="M31.408,62.326c0.18,1.888,0.42,3.792,0.721,5.709C37,71,48.414,71.68,55,71.68
				c8.141,0,19-2.68,23.209-5.176c0.279-2.049,0.48-4.1,0.609-6.151C76,63,66.443,66,54.986,66C46.332,66,35,64,31.408,62.326z"/>
		</g>
		<g>
			<path style="fill:#AAF0E9;" d="M75.846,78.08c-0.27,0.97-0.55,1.95-0.85,2.92c0,0-1,6-20,6s-20-6-20-6
				c-0.271-0.96-0.53-1.91-0.771-2.86c5.851,3.28,13.89,4.61,20.761,4.61C61.705,82.75,69.816,81.47,75.846,78.08z"/>
		</g>
		<g>
			<path style="fill:#AAF0E9;" d="M76.396,34.02C70.386,37.61,62.086,39,55.006,39c-7,0-15.5-1.4-21.48-5.02
				c0.43-1.67,0.92-3.33,1.471-4.98c0,3.31,8.949,6,20,6c11.05,0,20-2.69,20-6C75.516,30.67,75.976,32.35,76.396,34.02z"/>
		</g>
		<g>
			<path style="fill:#55C9BE;" d="M74.996,29c0,0.7-0.4,1.37-1.131,2c-3.918-3.207-13.801-4-18.869-4c-5.135,0-14.932,0.775-18.87,4
				c-0.729-0.63-1.13-1.3-1.13-2c0-0.62,0.31-1.22,0.89-1.78c2.521-2.44,10.12-4.22,19.11-4.22c9,0,16.609,1.79,19.119,4.23
				C74.685,27.79,74.996,28.38,74.996,29z"/>
		</g>
		<g>
			<path style="fill:#00D6C1;" d="M73.865,31c-2.729,2.32-10.149,4-18.869,4c-8.721,0-16.141-1.68-18.87-4
				c2.729-2.32,10.149-4,18.87-4C63.716,27,71.136,28.68,73.865,31z"/>
		</g>
		<g>
			<path style="fill:#D7FCF9;" d="M55,35c-0.002,0-0.003,0-0.004,0c-11.051,0-20-2.69-20-6c-0.551,1.65-1.04,3.31-1.471,4.98
				C39.504,37.599,48.001,38.999,55,39V35z"/>
		</g>
		<g>
			<path style="fill:#D7FCF9;" d="M55,82.749c-0.005,0-0.01,0.001-0.014,0.001c-6.871,0-14.91-1.33-20.761-4.61
				c0.24,0.95,0.5,1.9,0.771,2.86c0,0,1,6,20,6c0.001,0,0.002,0,0.004,0V82.749z"/>
		</g>
		<g>
			<ellipse style="fill:#D7FCF9;" cx="50" cy="31" rx="3" ry="1"/>
		</g>
		<g>
			<path style="fill:#D7FCF9;" d="M54.986,66C46.332,66,35,64,31.408,62.326c0.18,1.888,0.42,3.792,0.721,5.709
				C37,71,48.414,71.68,55,71.68V66C54.995,66,54.99,66,54.986,66z"/>
		</g>
		<g>
			<path style="fill:#D7FCF9;" d="M54.986,48.32C46.404,48.32,37,47,31.541,44.571c-0.206,1.766-0.354,3.545-0.443,5.34
				C38,53,48.08,54,55,54v-5.68C54.995,48.32,54.99,48.32,54.986,48.32z"/>
		</g>
	</g>
</g>
<g id="R-Green" style="display:none;">
	<circle style="display:inline;fill:#77E0C4;" cx="55" cy="55" r="55"/>
	<g style="display:inline;">
		<g>
			<path style="fill:#009687;" d="M75.846,78.08c-0.27,0.97-0.55,1.95-0.85,2.92c0,0-1,6-20,6s-20-6-20-6
				c-0.271-0.96-0.53-1.91-0.771-2.86c-4.06-15.67-4.29-30.39-0.7-44.16c0.43-1.67,0.92-3.33,1.471-4.98h40
				c0.52,1.67,0.979,3.35,1.4,5.02C80.046,48.68,79.855,63.43,75.846,78.08z"/>
		</g>
		<g>
			<path style="fill:#00B8A5;" d="M55,29H34.996c-0.551,1.65-1.04,3.31-1.471,4.98c-3.59,13.77-3.359,28.49,0.7,44.16
				c0.24,0.95,0.5,1.9,0.771,2.86c0,0,1,6,20,6c0.001,0,0.002,0,0.004,0V29z"/>
		</g>
		<g>
			<path style="fill:#AAF0E9;" d="M31.541,44.571c-0.206,1.766-0.354,3.545-0.443,5.34C38,53,48.08,54,55,54
				c8.33,0,16-1,23.74-5.527c-0.141-1.836-0.342-3.671-0.603-5.505C74,46,65.894,48.32,54.986,48.32
				C46.404,48.32,37,47,31.541,44.571z"/>
		</g>
		<g>
			<path style="fill:#AAF0E9;" d="M31.408,62.326c0.18,1.888,0.42,3.791,0.721,5.709C37,71,48.414,71.68,55,71.68
				c8.141,0,19-2.68,23.209-5.176c0.279-2.049,0.48-4.1,0.609-6.151C76,63,66.443,66,54.986,66C46.332,66,35,64,31.408,62.326z"/>
		</g>
		<g>
			<path style="fill:#AAF0E9;" d="M75.846,78.08c-0.27,0.97-0.55,1.95-0.85,2.92c0,0-1,6-20,6s-20-6-20-6
				c-0.271-0.96-0.53-1.91-0.771-2.86c5.851,3.28,13.89,4.61,20.761,4.61C61.705,82.75,69.816,81.47,75.846,78.08z"/>
		</g>
		<g>
			<path style="fill:#AAF0E9;" d="M76.396,34.02C70.386,37.61,62.086,39,55.006,39c-7,0-15.5-1.4-21.481-5.02
				c0.43-1.67,0.92-3.33,1.471-4.98c0,3.31,8.949,6,20,6c11.05,0,20-2.69,20-6C75.516,30.67,75.976,32.35,76.396,34.02z"/>
		</g>
		<g>
			<path style="fill:#55C9BE;" d="M74.996,29c0,0.7-0.4,1.37-1.131,2c-3.918-3.207-13.801-4-18.869-4c-5.135,0-14.932,0.775-18.87,4
				c-0.729-0.63-1.13-1.3-1.13-2c0-0.62,0.31-1.22,0.89-1.78c2.521-2.44,10.12-4.22,19.11-4.22c9,0,16.609,1.79,19.119,4.23
				C74.686,27.79,74.996,28.38,74.996,29z"/>
		</g>
		<g>
			<path style="fill:#00D6C1;" d="M73.865,31c-2.729,2.32-10.149,4-18.869,4c-8.721,0-16.141-1.68-18.87-4
				c2.729-2.32,10.149-4,18.87-4C63.716,27,71.136,28.68,73.865,31z"/>
		</g>
		<g>
			<path style="fill:#D7FCF9;" d="M55,35c-0.002,0-0.003,0-0.004,0c-11.051,0-20-2.69-20-6c-0.551,1.65-1.04,3.31-1.471,4.98
				C39.504,37.599,48.001,38.999,55,39V35z"/>
		</g>
		<g>
			<path style="fill:#D7FCF9;" d="M55,82.75c-0.005,0-0.01,0-0.014,0c-6.871,0-14.91-1.33-20.761-4.61c0.24,0.95,0.5,1.9,0.771,2.86
				c0,0,1,6,20,6c0.001,0,0.002,0,0.004,0V82.75z"/>
		</g>
		<g>
			<ellipse style="fill:#D7FCF9;" cx="50" cy="31" rx="3" ry="1"/>
		</g>
		<g>
			<path style="fill:#D7FCF9;" d="M54.986,66C46.332,66,35,64,31.408,62.326c0.18,1.888,0.42,3.791,0.721,5.709
				C37,71,48.414,71.68,55,71.68V66C54.995,66,54.99,66,54.986,66z"/>
		</g>
		<g>
			<path style="fill:#D7FCF9;" d="M54.986,48.32C46.404,48.32,37,47,31.541,44.571c-0.206,1.766-0.354,3.545-0.443,5.34
				C38,53,48.08,54,55,54v-5.68C54.995,48.32,54.99,48.32,54.986,48.32z"/>
		</g>
	</g>
</g>
<g id="Red" style="display:none;">
	<g style="display:inline;">
		<g>
			<path style="fill:#C23023;" d="M75.846,78.08c-0.27,0.97-0.55,1.95-0.85,2.92c0,0-1,6-20,6s-20-6-20-6
				c-0.271-0.96-0.53-1.91-0.771-2.86c-4.06-15.67-4.29-30.39-0.7-44.16c0.43-1.67,0.92-3.33,1.471-4.98h40
				c0.52,1.67,0.979,3.35,1.4,5.02C80.046,48.68,79.855,63.43,75.846,78.08z"/>
		</g>
		<g>
			<path style="fill:#E54B44;" d="M55,29H34.996c-0.551,1.65-1.04,3.31-1.471,4.98c-3.59,13.77-3.359,28.49,0.7,44.16
				c0.24,0.95,0.5,1.9,0.771,2.86c0,0,1,6,20,6c0.001,0,0.002,0,0.004,0V29z"/>
		</g>
		<g>
			<path style="fill:#FFD7D4;" d="M31.541,44.571c-0.206,1.766-0.354,3.545-0.443,5.34C38,53,48.08,54,55,54
				c8.33,0,16-1,23.74-5.527c-0.141-1.835-0.342-3.671-0.603-5.505C74,46,65.894,48.32,54.986,48.32
				C46.404,48.32,37,47,31.541,44.571z"/>
		</g>
		<g>
			<path style="fill:#FFD7D4;" d="M31.408,62.326c0.18,1.888,0.42,3.792,0.721,5.709C37,71,48.414,71.68,55,71.68
				c8.141,0,19-2.68,23.209-5.176c0.279-2.049,0.48-4.1,0.609-6.151C76,63,66.443,66,54.986,66C46.332,66,35,64,31.408,62.326z"/>
		</g>
		<g>
			<path style="fill:#FFD7D4;" d="M75.846,78.08c-0.27,0.97-0.55,1.95-0.85,2.92c0,0-1,6-20,6s-20-6-20-6
				c-0.271-0.96-0.53-1.91-0.771-2.86c5.851,3.28,13.89,4.61,20.761,4.61C61.705,82.75,69.816,81.47,75.846,78.08z"/>
		</g>
		<g>
			<path style="fill:#FFD7D4;" d="M76.396,34.02C70.386,37.61,62.086,39,55.006,39c-7,0-15.5-1.4-21.481-5.02
				c0.43-1.67,0.92-3.33,1.471-4.98c0,3.31,8.949,6,20,6c11.05,0,20-2.69,20-6C75.516,30.67,75.976,32.35,76.396,34.02z"/>
		</g>
		<g>
			<path style="fill:#E8A099;" d="M74.996,29c0,0.7-0.4,1.37-1.131,2c-3.918-3.207-13.801-4-18.869-4c-5.135,0-14.932,0.775-18.87,4
				c-0.729-0.63-1.13-1.3-1.13-2c0-0.62,0.31-1.22,0.89-1.78c2.521-2.44,10.12-4.22,19.11-4.22c9,0,16.609,1.79,19.119,4.23
				C74.686,27.79,74.996,28.38,74.996,29z"/>
		</g>
		<g>
			<path style="fill:#FF6C5E;" d="M73.865,31c-2.729,2.32-10.149,4-18.869,4c-8.721,0-16.141-1.68-18.87-4
				c2.729-2.32,10.149-4,18.87-4C63.716,27,71.136,28.68,73.865,31z"/>
		</g>
		<g>
			<path style="fill:#FFEFED;" d="M55,35c-0.002,0-0.003,0-0.004,0c-11.051,0-20-2.69-20-6c-0.551,1.65-1.04,3.31-1.471,4.98
				C39.504,37.599,48.001,38.999,55,39V35z"/>
		</g>
		<g>
			<path style="fill:#FFEFED;" d="M55,82.749c-0.005,0-0.01,0.001-0.014,0.001c-6.871,0-14.91-1.33-20.761-4.61
				c0.24,0.95,0.5,1.9,0.771,2.86c0,0,1,6,20,6c0.001,0,0.002,0,0.004,0V82.749z"/>
		</g>
		<g>
			<ellipse style="fill:#FFEFED;" cx="50" cy="31" rx="3" ry="1"/>
		</g>
		<g>
			<path style="fill:#FFEFED;" d="M54.986,66C46.332,66,35,64,31.408,62.326c0.18,1.888,0.42,3.792,0.721,5.709
				C37,71,48.414,71.68,55,71.68V66C54.995,66,54.99,66,54.986,66z"/>
		</g>
		<g>
			<path style="fill:#FFEFED;" d="M54.986,48.32C46.404,48.32,37,47,31.541,44.571c-0.206,1.766-0.354,3.545-0.443,5.34
				C38,53,48.08,54,55,54v-5.68C54.995,48.32,54.99,48.32,54.986,48.32z"/>
		</g>
	</g>
</g>
<g id="R-Red" style="display:none;">
	<circle style="display:inline;fill:#FABBAF;" cx="55" cy="55" r="55"/>
	<g style="display:inline;">
		<g>
			<path style="fill:#C23023;" d="M75.846,78.08c-0.27,0.97-0.55,1.95-0.85,2.92c0,0-1,6-20,6s-20-6-20-6
				c-0.271-0.96-0.53-1.91-0.771-2.86c-4.06-15.67-4.29-30.39-0.7-44.16c0.43-1.67,0.92-3.33,1.471-4.98h40
				c0.52,1.67,0.979,3.35,1.4,5.02C80.046,48.68,79.855,63.43,75.846,78.08z"/>
		</g>
		<g>
			<path style="fill:#E54B44;" d="M55,29H34.996c-0.551,1.65-1.04,3.31-1.471,4.98c-3.59,13.77-3.359,28.49,0.7,44.16
				c0.24,0.95,0.5,1.9,0.771,2.86c0,0,1,6,20,6c0.001,0,0.002,0,0.004,0V29z"/>
		</g>
		<g>
			<path style="fill:#FFD7D4;" d="M31.541,44.571c-0.206,1.766-0.354,3.545-0.443,5.34C38,53,48.08,54,55,54
				c8.33,0,16-1,23.74-5.527c-0.141-1.835-0.342-3.671-0.603-5.505C74,46,65.894,48.32,54.986,48.32
				C46.404,48.32,37,47,31.541,44.571z"/>
		</g>
		<g>
			<path style="fill:#FFD7D4;" d="M31.408,62.326c0.18,1.888,0.42,3.792,0.721,5.709C37,71,48.414,71.68,55,71.68
				c8.141,0,19-2.68,23.209-5.176c0.279-2.049,0.48-4.1,0.609-6.151C76,63,66.443,66,54.986,66C46.332,66,35,64,31.408,62.326z"/>
		</g>
		<g>
			<path style="fill:#FFD7D4;" d="M75.846,78.08c-0.27,0.97-0.55,1.95-0.85,2.92c0,0-1,6-20,6s-20-6-20-6
				c-0.271-0.96-0.53-1.91-0.771-2.86c5.851,3.28,13.89,4.61,20.761,4.61C61.705,82.75,69.816,81.47,75.846,78.08z"/>
		</g>
		<g>
			<path style="fill:#FFD7D4;" d="M76.396,34.02C70.386,37.61,62.086,39,55.006,39c-7,0-15.5-1.4-21.481-5.02
				c0.43-1.67,0.92-3.33,1.471-4.98c0,3.31,8.949,6,20,6c11.05,0,20-2.69,20-6C75.516,30.67,75.976,32.35,76.396,34.02z"/>
		</g>
		<g>
			<path style="fill:#E8A099;" d="M74.996,29c0,0.7-0.4,1.37-1.131,2c-3.918-3.207-13.801-4-18.869-4c-5.135,0-14.932,0.775-18.87,4
				c-0.729-0.63-1.13-1.3-1.13-2c0-0.62,0.31-1.22,0.89-1.78c2.521-2.44,10.12-4.22,19.11-4.22c9,0,16.609,1.79,19.119,4.23
				C74.686,27.79,74.996,28.38,74.996,29z"/>
		</g>
		<g>
			<path style="fill:#FF6C5E;" d="M73.865,31c-2.729,2.32-10.149,4-18.869,4c-8.721,0-16.141-1.68-18.87-4
				c2.729-2.32,10.149-4,18.87-4C63.716,27,71.136,28.68,73.865,31z"/>
		</g>
		<g>
			<path style="fill:#FFEFED;" d="M55,35c-0.002,0-0.003,0-0.004,0c-11.051,0-20-2.69-20-6c-0.551,1.65-1.04,3.31-1.471,4.98
				C39.504,37.599,48.001,38.999,55,39V35z"/>
		</g>
		<g>
			<path style="fill:#FFEFED;" d="M55,82.749c-0.005,0-0.01,0.001-0.014,0.001c-6.871,0-14.91-1.33-20.761-4.61
				c0.24,0.95,0.5,1.9,0.771,2.86c0,0,1,6,20,6c0.001,0,0.002,0,0.004,0V82.749z"/>
		</g>
		<g>
			<ellipse style="fill:#FFEFED;" cx="50" cy="31" rx="3" ry="1"/>
		</g>
		<g>
			<path style="fill:#FFEFED;" d="M54.986,66C46.332,66,35,64,31.408,62.326c0.18,1.888,0.42,3.792,0.721,5.709
				C37,71,48.414,71.68,55,71.68V66C54.995,66,54.99,66,54.986,66z"/>
		</g>
		<g>
			<path style="fill:#FFEFED;" d="M54.986,48.32C46.404,48.32,37,47,31.541,44.571c-0.206,1.766-0.354,3.545-0.443,5.34
				C38,53,48.08,54,55,54v-5.68C54.995,48.32,54.99,48.32,54.986,48.32z"/>
		</g>
	</g>
</g>
<g id="Yellow" style="display:none;">
	<g style="display:inline;">
		<g>
			<path style="fill:#E07000;" d="M75.846,78.08c-0.27,0.97-0.55,1.95-0.85,2.92c0,0-1,6-20,6s-20-6-20-6
				c-0.271-0.96-0.53-1.91-0.771-2.86c-4.06-15.67-4.29-30.39-0.7-44.16c0.43-1.67,0.92-3.33,1.471-4.98h40
				c0.52,1.67,0.979,3.35,1.4,5.02C80.046,48.68,79.855,63.43,75.846,78.08z"/>
		</g>
		<g>
			<path style="fill:#FA9200;" d="M55,29H34.996c-0.551,1.65-1.04,3.31-1.471,4.98c-3.59,13.77-3.359,28.49,0.7,44.16
				c0.24,0.95,0.5,1.9,0.771,2.86c0,0,1,6,20,6c0.001,0,0.002,0,0.004,0V29z"/>
		</g>
		<g>
			<path style="fill:#FFE9A1;" d="M31.541,44.571c-0.206,1.766-0.354,3.545-0.443,5.34C38,53,48.08,54,55,54
				c8.33,0,16-1,23.74-5.527c-0.141-1.836-0.342-3.671-0.603-5.505C74,46,65.894,48.32,54.986,48.32
				C46.404,48.32,37,47,31.541,44.571z"/>
		</g>
		<g>
			<path style="fill:#FFE9A1;" d="M31.408,62.326c0.18,1.888,0.42,3.791,0.721,5.709C37,71,48.414,71.68,55,71.68
				c8.141,0,19-2.68,23.209-5.176c0.279-2.049,0.48-4.1,0.609-6.151C76,63,66.443,66,54.986,66C46.332,66,35,64,31.408,62.326z"/>
		</g>
		<g>
			<path style="fill:#FFE9A1;" d="M75.846,78.08c-0.27,0.97-0.55,1.95-0.85,2.92c0,0-1,6-20,6s-20-6-20-6
				c-0.271-0.96-0.53-1.91-0.771-2.86c5.851,3.28,13.89,4.61,20.761,4.61C61.705,82.75,69.816,81.47,75.846,78.08z"/>
		</g>
		<g>
			<path style="fill:#FFE9A1;" d="M76.396,34.02C70.386,37.61,62.086,39,55.006,39c-7,0-15.5-1.4-21.481-5.02
				c0.43-1.67,0.92-3.33,1.471-4.98c0,3.31,8.949,6,20,6c11.05,0,20-2.69,20-6C75.516,30.67,75.976,32.35,76.396,34.02z"/>
		</g>
		<g>
			<path style="fill:#F5C43D;" d="M74.996,29c0,0.7-0.4,1.37-1.131,2c-3.918-3.207-13.801-4-18.869-4c-5.135,0-14.932,0.775-18.87,4
				c-0.729-0.63-1.13-1.3-1.13-2c0-0.62,0.31-1.22,0.89-1.78c2.521-2.44,10.12-4.22,19.11-4.22c9,0,16.609,1.79,19.119,4.23
				C74.686,27.79,74.996,28.38,74.996,29z"/>
		</g>
		<g>
			<path style="fill:#FFAA00;" d="M73.865,31c-2.729,2.32-10.149,4-18.869,4c-8.721,0-16.141-1.68-18.87-4
				c2.729-2.32,10.149-4,18.87-4C63.716,27,71.136,28.68,73.865,31z"/>
		</g>
		<g>
			<path style="fill:#FFF5D9;" d="M55,35c-0.002,0-0.003,0-0.004,0c-11.051,0-20-2.69-20-6c-0.551,1.65-1.04,3.31-1.471,4.98
				C39.504,37.599,48.001,38.999,55,39V35z"/>
		</g>
		<g>
			<path style="fill:#FFF5D9;" d="M55,82.75c-0.005,0-0.01,0-0.014,0c-6.871,0-14.91-1.33-20.761-4.61c0.24,0.95,0.5,1.9,0.771,2.86
				c0,0,1,6,20,6c0.001,0,0.002,0,0.004,0V82.75z"/>
		</g>
		<g>
			<ellipse style="fill:#FFF5D9;" cx="50" cy="31" rx="3" ry="1"/>
		</g>
		<g>
			<path style="fill:#FFF5D9;" d="M54.986,66C46.332,66,35,64,31.408,62.326c0.18,1.888,0.42,3.791,0.721,5.709
				C37,71,48.414,71.68,55,71.68V66C54.995,66,54.99,66,54.986,66z"/>
		</g>
		<g>
			<path style="fill:#FFF5D9;" d="M54.986,48.32C46.404,48.32,37,47,31.541,44.571c-0.206,1.766-0.354,3.545-0.443,5.34
				C38,53,48.08,54,55,54v-5.68C54.995,48.32,54.99,48.32,54.986,48.32z"/>
		</g>
	</g>
</g>
<g id="R-Yellow" style="display:none;">
	<circle style="display:inline;fill:#FFD75E;" cx="55" cy="55" r="55"/>
	<g style="display:inline;">
		<g>
			<path style="fill:#E07000;" d="M75.846,78.08c-0.27,0.97-0.55,1.95-0.85,2.92c0,0-1,6-20,6s-20-6-20-6
				c-0.271-0.96-0.53-1.91-0.771-2.86c-4.06-15.67-4.29-30.39-0.7-44.16c0.43-1.67,0.92-3.33,1.471-4.98h40
				c0.52,1.67,0.979,3.35,1.4,5.02C80.046,48.68,79.855,63.43,75.846,78.08z"/>
		</g>
		<g>
			<path style="fill:#FA9200;" d="M55,29H34.996c-0.551,1.65-1.04,3.31-1.471,4.98c-3.59,13.77-3.359,28.49,0.7,44.16
				c0.24,0.95,0.5,1.9,0.771,2.86c0,0,1,6,20,6c0.001,0,0.002,0,0.004,0V29z"/>
		</g>
		<g>
			<path style="fill:#FFE9A1;" d="M31.541,44.571c-0.206,1.766-0.354,3.545-0.443,5.34C38,53,48.08,54,55,54
				c8.33,0,16-1,23.74-5.527c-0.141-1.836-0.342-3.671-0.604-5.505C74,46,65.894,48.32,54.986,48.32
				C46.404,48.32,37,47,31.541,44.571z"/>
		</g>
		<g>
			<path style="fill:#FFE9A1;" d="M31.408,62.326c0.18,1.888,0.42,3.791,0.721,5.709C37,71,48.414,71.68,55,71.68
				c8.141,0,19-2.68,23.209-5.176c0.279-2.049,0.48-4.1,0.609-6.151C76,63,66.443,66,54.986,66C46.332,66,35,64,31.408,62.326z"/>
		</g>
		<g>
			<path style="fill:#FFE9A1;" d="M75.846,78.08c-0.27,0.97-0.55,1.95-0.85,2.92c0,0-1,6-20,6s-20-6-20-6
				c-0.271-0.96-0.53-1.91-0.771-2.86c5.851,3.28,13.89,4.61,20.761,4.61C61.705,82.75,69.816,81.47,75.846,78.08z"/>
		</g>
		<g>
			<path style="fill:#FFE9A1;" d="M76.396,34.02C70.386,37.61,62.086,39,55.006,39c-7,0-15.5-1.4-21.48-5.02
				c0.43-1.67,0.92-3.33,1.471-4.98c0,3.31,8.949,6,20,6c11.05,0,20-2.69,20-6C75.516,30.67,75.976,32.35,76.396,34.02z"/>
		</g>
		<g>
			<path style="fill:#F5C43D;" d="M74.996,29c0,0.7-0.4,1.37-1.131,2c-3.918-3.207-13.801-4-18.869-4c-5.135,0-14.932,0.775-18.87,4
				c-0.729-0.63-1.13-1.3-1.13-2c0-0.62,0.31-1.22,0.89-1.78c2.521-2.44,10.12-4.22,19.11-4.22c9,0,16.609,1.79,19.119,4.23
				C74.685,27.79,74.996,28.38,74.996,29z"/>
		</g>
		<g>
			<path style="fill:#FFAA00;" d="M73.865,31c-2.729,2.32-10.149,4-18.869,4c-8.721,0-16.141-1.68-18.87-4
				c2.729-2.32,10.149-4,18.87-4C63.716,27,71.136,28.68,73.865,31z"/>
		</g>
		<g>
			<path style="fill:#FFF5D9;" d="M55,35c-0.002,0-0.003,0-0.004,0c-11.051,0-20-2.69-20-6c-0.551,1.65-1.04,3.31-1.471,4.98
				C39.504,37.599,48.001,38.999,55,39V35z"/>
		</g>
		<g>
			<path style="fill:#FFF5D9;" d="M55,82.75c-0.005,0-0.01,0-0.014,0c-6.871,0-14.91-1.33-20.761-4.61c0.24,0.95,0.5,1.9,0.771,2.86
				c0,0,1,6,20,6c0.001,0,0.002,0,0.004,0V82.75z"/>
		</g>
		<g>
			<ellipse style="fill:#FFF5D9;" cx="50" cy="31" rx="3" ry="1"/>
		</g>
		<g>
			<path style="fill:#FFF5D9;" d="M54.986,66C46.332,66,35,64,31.408,62.326c0.18,1.888,0.42,3.791,0.721,5.709
				C37,71,48.414,71.68,55,71.68V66C54.995,66,54.99,66,54.986,66z"/>
		</g>
		<g>
			<path style="fill:#FFF5D9;" d="M54.986,48.32C46.404,48.32,37,47,31.541,44.571c-0.206,1.766-0.354,3.545-0.443,5.34
				C38,53,48.08,54,55,54v-5.68C54.995,48.32,54.99,48.32,54.986,48.32z"/>
		</g>
	</g>
</g>
</svg>
