<?xml version="1.0" encoding="iso-8859-1"?>
<!-- Generator: Adobe Illustrator 17.1.0, SVG Export Plug-In . SVG Version: 6.00 Build 0)  -->
<!DOCTYPE svg PUBLIC "-//W3C//DTD SVG 1.0//EN" "http://www.w3.org/TR/2001/REC-SVG-20010904/DTD/svg10.dtd">
<svg version="1.0" xmlns="http://www.w3.org/2000/svg" xmlns:xlink="http://www.w3.org/1999/xlink" x="0px" y="0px" width="110px"
	 height="110px" viewBox="0 0 110 110" style="enable-background:new 0 0 110 110;" xml:space="preserve">
<g id="Artboard">
</g>
<g id="Multicolor">
	<circle style="fill:#32BEA6;" cx="55" cy="55" r="55"/>
	<g>
		<g>
			<path style="fill:#E2E4E5;" d="M64.968,23.442v19.54h-12v-4.547c0-7.168,4.959-13.396,11.95-14.982
				C64.935,23.449,64.952,23.445,64.968,23.442z"/>
		</g>
		<g>
			<path style="fill:#E2E4E5;" d="M74.968,24.012v14.97l-4,4h-19.89c0.217,1.934,0.751,3.768,1.53,5.463L26.05,75.05
				c-2.734,2.734-2.734,7.166,0,9.899c2.734,2.734,7.166,2.734,9.899,0l26.966-27.015c10.938,3.909,22.665-3.457,23.942-14.954
				C87.782,34.273,82.55,26.691,74.968,24.012z M30.45,83c-1.381,0-2.5-1.119-2.5-2.5s1.119-2.5,2.5-2.5s2.5,1.119,2.5,2.5
				S31.83,83,30.45,83z"/>
		</g>
		<g>
			<rect x="64.968" y="46.982" style="fill:#C7CBCC;" width="2" height="8"/>
		</g>
		<g>
			<rect x="68.968" y="46.982" style="fill:#C7CBCC;" width="2" height="8"/>
		</g>
		<g>
			<g>
				<path style="fill:#FFFFFF;" d="M51.078,42.981c0.217,1.934,0.751,3.768,1.53,5.463L26.05,75.05
					c-2.715,2.715-2.73,7.104-0.052,9.842l2.657-2.657c-0.435-0.45-0.706-1.06-0.706-1.735c0-1.381,1.119-2.5,2.5-2.5
					c0.675,0,1.286,0.271,1.736,0.706l35.724-35.724H51.078z"/>
			</g>
			<g>
				<path style="fill:#FFFFFF;" d="M82.152,28.739c-1.958-2.106-4.411-3.748-7.184-4.727v11.911L82.152,28.739z"/>
			</g>
		</g>
		<g>
			<rect x="60.968" y="46.982" style="fill:#C7CBCC;" width="2" height="8"/>
		</g>
		<g>
			<polygon style="fill:#DADDDE;" points="62.968,47.923 62.968,46.981 60.968,46.981 60.968,49.923 			"/>
		</g>
	</g>
</g>
</svg>
