<?xml version="1.0" encoding="iso-8859-1"?>
<!-- Generator: Adobe Illustrator 17.1.0, SVG Export Plug-In . SVG Version: 6.00 Build 0)  -->
<!DOCTYPE svg PUBLIC "-//W3C//DTD SVG 1.0//EN" "http://www.w3.org/TR/2001/REC-SVG-20010904/DTD/svg10.dtd">
<svg version="1.0" xmlns="http://www.w3.org/2000/svg" xmlns:xlink="http://www.w3.org/1999/xlink" x="0px" y="0px" width="110px"
	 height="110px" viewBox="0 0 110 110" style="enable-background:new 0 0 110 110;" xml:space="preserve">
<g id="Artboard">
</g>
<g id="Multicolor">
	<circle style="fill:#25B7D3;" cx="55" cy="55" r="55"/>
	<g>
		<g>
			<path style="fill:#E2E4E5;" d="M85.777,36.208L72.985,49l-6,2l-3.686-3.687L58.985,43l2-6l12.792-12.792
				C71.654,23.44,69.373,23,66.985,23c-11.046,0-20,8.954-20,20c0,2.388,0.44,4.668,1.208,6.792L25.485,72.5
				c-3.346,3.346-3.39,8.946,0.33,12.298c3.331,3.002,8.463,2.91,11.67-0.298l22.708-22.708C62.317,62.559,64.597,63,66.985,63
				c11.046,0,20-8.954,20-20C86.985,40.612,86.545,38.331,85.777,36.208z M30.985,83c-0.944,0-1.8-0.341-2.485-0.888
				c-0.917-0.733-1.515-1.848-1.515-3.112c0-2.209,1.791-4,4-4c1.265,0,2.379,0.599,3.112,1.516c0.547,0.684,0.888,1.54,0.888,2.484
				C34.985,81.209,33.194,83,30.985,83z"/>
		</g>
		<g>
			<path style="fill:#F0F1F1;" d="M26.985,79c0-2.209,1.791-4,4-4c1.265,0,2.379,0.599,3.112,1.516l29.202-29.202L58.985,43l2-6
				l12.792-12.792C71.654,23.44,69.373,23,66.985,23c-11.046,0-20,8.954-20,20c0,2.388,0.44,4.668,1.208,6.792L25.485,72.5
				c-3.313,3.313-3.313,8.687,0,12c0.106,0.106,0.22,0.199,0.33,0.298l2.686-2.686C27.584,81.379,26.985,80.265,26.985,79z"/>
		</g>
	</g>
</g>
</svg>
