<?xml version="1.0" encoding="iso-8859-1"?>
<!-- Generator: Adobe Illustrator 17.1.0, SVG Export Plug-In . SVG Version: 6.00 Build 0)  -->
<!DOCTYPE svg PUBLIC "-//W3C//DTD SVG 1.0//EN" "http://www.w3.org/TR/2001/REC-SVG-20010904/DTD/svg10.dtd">
<svg version="1.0" xmlns="http://www.w3.org/2000/svg" xmlns:xlink="http://www.w3.org/1999/xlink" x="0px" y="0px" width="110px"
	 height="110px" viewBox="0 0 110 110" style="enable-background:new 0 0 110 110;" xml:space="preserve">
<g id="Artboard">
</g>
<g id="Multicolor">
	<circle style="fill:#FABC3D;" cx="55" cy="55" r="55"/>
	<g>
		<path style="fill:#3E3E3F;" d="M53.963,84.548c0.104,0.601-0.004,1.218-0.384,1.695C53.2,86.72,52.623,87,52.014,87H25.126
			c-0.614,0-1.194-0.282-1.573-0.765s-0.473-1.104-0.37-1.71c2.886-16.97,2.976-35.881,0.423-56.723
			c-0.146-1.192,0.063-2.398,0.822-3.329C25.187,23.543,26.325,23,27.526,23h21.996c1.207,0,2.35,0.545,3.109,1.484
			c0.76,0.938,0.977,2.156,0.803,3.351C50.689,46.743,50.683,65.647,53.963,84.548z"/>
		<path style="fill:#5B5C5F;" d="M38,23H27.526c-1.201,0-2.338,0.543-3.098,1.474c-0.759,0.93-0.968,2.137-0.822,3.329
			c2.553,20.842,2.463,39.753-0.423,56.723c-0.103,0.605-0.009,1.227,0.37,1.71S24.512,87,25.126,87H38V23z"/>
		<path style="fill:#3E3E3F;" d="M58.686,43.742c0,5.732,5.732,4.586,5.732,13.758s-5.732,8.025-5.732,13.758
			c0,5.732,18.339,6.303,25.073,6.742c2.869,0.187,2.928-3.912,1.824-5.093c-1.341-1.436-4.558-5.085-6.643-9.055
			c0.945-1.635,1.528-3.816,1.528-6.22c0-2.465-0.611-4.698-1.599-6.346c2.082-4.022,5.358-7.739,6.714-9.191
			c1.103-1.181,1.045-5.28-1.824-5.093C77.025,37.439,58.686,38.01,58.686,43.742z"/>
		<path style="fill:#818284;" d="M45.438,56c0,1.105-0.895,2-2,2s-2-0.895-2-2V32c0-1.105,0.895-2,2-2s2,0.895,2,2V56z"/>
		<path style="fill:#818284;" d="M34.052,34.5c0,0.828-0.672,1.5-1.5,1.5c-0.828,0-1.5-0.672-1.5-1.5v-3c0-0.828,0.672-1.5,1.5-1.5
			c0.828,0,1.5,0.672,1.5,1.5V34.5z"/>
		<path style="fill:#818284;" d="M34.052,47.5c0,0.828-0.672,1.5-1.5,1.5c-0.828,0-1.5-0.672-1.5-1.5v-6c0-0.828,0.672-1.5,1.5-1.5
			c0.828,0,1.5,0.672,1.5,1.5V47.5z"/>
		<circle style="fill:#17B198;" cx="38.552" cy="69" r="7"/>
		<circle style="fill:#3E3E3F;" cx="38.552" cy="69" r="3"/>
		<g>
			<path style="fill:#CFD3D4;" d="M75.353,47.182c0,2.868-2.334,5.202-5.202,5.202c-2.868,0-5.202-2.334-5.202-5.202
				c0-2.869,2.334-5.202,5.202-5.202C73.019,41.979,75.353,44.313,75.353,47.182z M66.181,47.182c0,2.189,1.781,3.97,3.97,3.97
				c2.189,0,3.97-1.781,3.97-3.97c0-2.189-1.781-3.97-3.97-3.97C67.962,43.211,66.181,44.992,66.181,47.182z"/>
		</g>
		<g>
			<path style="fill:#CFD3D4;" d="M75.353,67.818c0,2.868-2.334,5.202-5.202,5.202c-2.868,0-5.202-2.334-5.202-5.202
				c0-2.869,2.334-5.202,5.202-5.202C73.019,62.616,75.353,64.949,75.353,67.818z M66.181,67.818c0,2.189,1.781,3.97,3.97,3.97
				c2.189,0,3.97-1.781,3.97-3.97c0-2.189-1.781-3.97-3.97-3.97C67.962,63.848,66.181,65.629,66.181,67.818z"/>
		</g>
	</g>
</g>
</svg>
