<?xml version="1.0" encoding="iso-8859-1"?>
<!-- Generator: Adobe Illustrator 17.1.0, SVG Export Plug-In . SVG Version: 6.00 Build 0)  -->
<!DOCTYPE svg PUBLIC "-//W3C//DTD SVG 1.0//EN" "http://www.w3.org/TR/2001/REC-SVG-20010904/DTD/svg10.dtd">
<svg version="1.0" xmlns="http://www.w3.org/2000/svg" xmlns:xlink="http://www.w3.org/1999/xlink" x="0px" y="0px" width="110px"
	 height="110px" viewBox="0 0 110 110" style="enable-background:new 0 0 110 110;" xml:space="preserve">
<g id="Artboard">
</g>
<g id="Multicolor">
	<circle style="fill:#32BEA6;" cx="55" cy="55" r="55"/>
	<g>
		<path style="fill:#F0F1F1;" d="M82.495,69.432L77,61h-2l-4.553-9.105c-0.31-0.62-0.277-1.356,0.088-1.946
			C70.899,49.359,71.543,49,72.236,49h4.35c0.404,0,0.769-0.244,0.924-0.617c0.155-0.374,0.069-0.804-0.217-1.09l-2-2
			C75.105,45.105,74.851,45,74.586,45H39v4l-7,12h-9c0,11,7.342,16,14.849,16H83v-6.24C83,70.271,82.82,69.798,82.495,69.432z"/>
		<g>
			<polygon style="fill:#FFFFFF;" points="39,45 39,49 32,61 40.352,61 56.352,45 			"/>
		</g>
		<g>
			<path style="fill:#6FDAF1;" d="M23,87V76.409c0-0.143,0.061-0.28,0.168-0.375c0.107-0.095,0.25-0.14,0.392-0.122
				c4.262,0.521,8.466-1.273,11.051-4.724C34.701,71.07,34.84,71,34.987,71h0.01c0.157,0,0.306,0.074,0.4,0.2
				C37.588,74.116,41.069,76,45,76c3.936,0,7.422-1.889,9.612-4.812C54.701,71.07,54.84,71,54.987,71h0.01
				c0.157,0,0.306,0.074,0.4,0.2C57.588,74.116,61.069,76,65,76c3.936,0,7.422-1.889,9.612-4.812C74.701,71.07,74.84,71,74.987,71
				h0.01c0.157,0,0.306,0.074,0.4,0.2c2.591,3.449,6.792,5.231,11.042,4.712c0.142-0.017,0.285,0.028,0.392,0.123
				C86.939,76.129,87,76.265,87,76.409V87H23z"/>
		</g>
		<g>
			<path style="fill:#3E3E3F;" d="M67,57c0-4.418-3.582-8-8-8h-4v8H67z"/>
		</g>
		<g>
			<polygon style="fill:#3E3E3F;" points="39,49 52,49 52,57 34.333,57 			"/>
		</g>
		<g>
			<path style="fill:#FFFFFF;" d="M23,61c0,5.712,1.989,9.792,4.943,12.409L40.352,61H23z"/>
		</g>
		<g>
			<polygon style="fill:#5B5C5F;" points="52,49 39,49 34.333,57 44.352,57 52,49.352 			"/>
		</g>
		<g>
			<polygon style="fill:#FFFFFF;" points="63,45 75,31 76,31 68,45 			"/>
		</g>
		<g>
			<path style="fill:#FA5655;" d="M23.218,64c-0.062-0.45-0.112-0.911-0.15-1.381C23.031,62.091,23,61.559,23,61h54l1.955,3H23.218z
				"/>
		</g>
		<g>
			<path style="fill:#F79392;" d="M40.352,61H23c0,0.559,0.031,1.091,0.068,1.619c0.038,0.471,0.088,0.931,0.15,1.381h14.134
				L40.352,61z"/>
		</g>
	</g>
</g>
</svg>
